<?xml version="1.0" encoding="UTF-8" standalone="no"?>
<!-- Created with Inkscape (http://www.inkscape.org/) -->

<svg
   xmlns:dc="http://purl.org/dc/elements/1.1/"
   xmlns:cc="http://creativecommons.org/ns#"
   xmlns:rdf="http://www.w3.org/1999/02/22-rdf-syntax-ns#"
   xmlns:svg="http://www.w3.org/2000/svg"
   xmlns="http://www.w3.org/2000/svg"
   xmlns:sodipodi="http://sodipodi.sourceforge.net/DTD/sodipodi-0.dtd"
   xmlns:inkscape="http://www.inkscape.org/namespaces/inkscape"
   width="100"
   height="100"
   viewBox="0 0 100 100"
   id="svg4142"
   version="1.1"
   inkscape:version="0.91 r13725"
   sodipodi:docname="icon-XXX.svg">
  <defs
     id="defs4144" />
  <sodipodi:namedview
     id="base"
     pagecolor="#ffffff"
     bordercolor="#666666"
     borderopacity="1.0"
     inkscape:pageopacity="0.0"
     inkscape:pageshadow="2"
     inkscape:zoom="3.959798"
     inkscape:cx="25.22763"
     inkscape:cy="56.422413"
     inkscape:document-units="px"
     inkscape:current-layer="layer1"
     showgrid="false"
     units="px"
     inkscape:window-width="1536"
     inkscape:window-height="897"
     inkscape:window-x="-8"
     inkscape:window-y="-8"
     inkscape:window-maximized="1" />
  <metadata
     id="metadata4147">
    <rdf:RDF>
      <cc:Work
         rdf:about="">
        <dc:format>image/svg+xml</dc:format>
        <dc:type
           rdf:resource="http://purl.org/dc/dcmitype/StillImage" />
        <dc:title></dc:title>
      </cc:Work>
    </rdf:RDF>
  </metadata>
  <g
     inkscape:label="Layer 1"
     inkscape:groupmode="layer"
     id="layer1"
     transform="translate(0,-952.36216)">
    <path
       style="fill:#008000;stroke-width:0.40199998;stroke-linecap:round"
       id="path4690"
       d="m 33.389854,1015.3488 c 4.358169,-2.5931 -7.174134,4.2739 -9.351176,5.296 -1.132425,0.5316 2.002986,-1.5062 2.923495,-2.3534 1.081452,-0.9953 2.120887,-2.0425 3.071207,-3.1636 3.011679,-3.5531 3.451656,-4.6827 5.804365,-8.6666 1.881704,-4.2043 2.283776,-4.5734 3.356314,-8.89513 0.292967,-1.18051 0.53437,-2.37862 0.664284,-3.58797 0.183947,-1.71236 0.263836,-3.21967 -0.720806,-4.6932 -0.296129,-0.44316 -0.803677,-0.70031 -1.205516,-1.05047 -0.555424,0.01 -1.1194,-0.0681 -1.666273,0.0295 -0.719448,0.12838 -1.429966,0.34191 -2.096362,0.64191 -0.813324,0.36615 -3.107481,1.75106 -2.314038,1.34361 2.780974,-1.42807 5.393068,-3.2045 8.278902,-4.40666 0.787965,-0.32824 -1.284212,1.12764 -1.878454,1.74043 -0.490618,0.50593 -0.913658,1.07327 -1.370488,1.60991 -0.934635,1.41033 -2.08182,3.13217 -1.395182,4.9046 0.457363,1.18059 0.802723,1.25236 1.76952,2.07497 0.547919,0.26463 1.069568,0.59252 1.643759,0.7939 1.804891,0.63299 3.085963,0.70661 5.031018,0.71976 2.096028,0.0142 4.095976,-0.17214 6.166571,-0.47697 0.920319,-0.13549 1.830809,-0.33094 2.746214,-0.4964 1.904609,-0.39505 3.802966,-0.85482 5.632187,-1.52446 0.330441,-0.12097 0.660164,-0.24697 0.976443,-0.40122 0.200195,-0.0976 0.761336,-0.46254 0.567981,-0.35198 -4.136713,2.36545 -8.265601,4.74455 -12.398402,7.11685 -0.825152,-0.3823 0.801844,1.08 0.422233,1.3706 -0.116479,0.089 -0.291368,0.035 -0.436067,0.059 -0.636645,0.1059 -1.259628,0.2427 -1.900507,0.3247 -0.184114,-10e-5 -0.368229,-10e-5 -0.552343,-2e-4 0,0 11.760919,-8.62256 11.760919,-8.62256 l 0,0 c 0.131405,-0.0137 0.262809,-0.0273 0.394214,-0.041 0.606302,-0.0822 2.196184,-0.37165 2.711273,-0.24222 0.8833,0.22196 0.916152,0.84912 1.332547,1.63452 -4.251291,2.46782 -8.477128,4.97997 -12.753873,7.40347 -0.11485,0.065 -0.262815,0.026 -0.393289,0.046 -0.242346,0.037 -0.482977,0.085 -0.7248,0.1255 -1.58033,0.2648 -3.164745,0.508 -4.758258,0.6804 -2.9143,0.3123 -5.825761,0.5634 -8.760333,0.5799 -2.281111,0.013 -3.92026,0.059 -6.090286,-0.613 -0.707601,-0.2191 -1.344558,-0.6221 -2.016837,-0.9332 -0.529724,-0.4125 -1.128656,-0.749 -1.589172,-1.2376 -0.606607,-0.6436 -1.311675,-2.0751 -1.40067,-2.96713 -0.183792,-1.84215 1.131425,-3.45901 2.061115,-4.87462 0.844946,-0.96127 2.646577,-3.12269 3.682355,-3.80831 4.234094,-2.80272 8.595238,-5.4112 12.967753,-7.99265 1.513907,-0.89379 3.671991,-1.85852 5.514828,-1.78274 0.798286,0.0328 1.532066,0.454 2.298098,0.68101 0.392459,0.59077 0.94586,1.10192 1.177377,1.77232 0.666109,1.92885 0.205799,3.97461 -0.267423,5.86058 -0.335299,1.33629 -0.78896,2.64063 -1.228078,3.9465 -1.611787,4.7932 -1.621564,4.53043 -3.6844,9.27774 -1.263008,2.312 -3.348668,6.2758 -4.864405,8.5037 -0.714384,1.0501 -1.544583,2.0173 -2.35635,2.9941 -0.602647,0.7251 -1.101192,1.5847 -1.884863,2.109 -8.195361,5.4824 -9.12803,5.9257 -14.402802,8.6172 0,0 11.506481,-9.0749 11.506481,-9.0749 z"
       inkscape:connector-curvature="0" />
    <path
       style="fill:#008000;stroke-width:0.40199998;stroke-linecap:round"
       id="path4692"
       d="m 63.707166,1017.4917 c 0.198071,0.1627 0.385399,0.3394 0.594215,0.488 0.265232,0.1888 0.551671,0.3459 0.825266,0.5224 1.098306,0.7084 2.181532,1.4427 3.317938,2.0887 0.174489,0.074 0.594784,0.2966 0.839862,0.2756 0.05468,-0 0.176967,-0.1296 0.130218,-0.1008 -4.223913,2.5981 -8.280895,5.4869 -12.662507,7.8092 -0.288569,0.1529 -0.362057,-0.5457 -0.575005,-0.7933 -0.500593,-0.5821 -1.041653,-1.1282 -1.562479,-1.6922 -0.7987,-0.6825 -1.567331,-1.4018 -2.3961,-2.0475 -0.882731,-0.6876 -1.816728,-1.3069 -2.73346,-1.9486 -2.755367,-1.9285 -5.566247,-3.7767 -8.379577,-5.619 -0.360355,-0.2222 -0.720948,-0.444 -1.081065,-0.6666 -0.226323,-0.1399 -0.931898,-0.5576 -1.191047,-0.7796 -0.110411,-0.095 -0.416153,-0.2394 -0.295585,-0.3206 12.507383,-8.4255 8.493795,-10.7109 13.373561,-7.5692 2.760604,1.1462 5.668068,1.8925 8.630645,2.2616 0.755787,0.024 1.586382,0.1142 2.298352,-0.2238 0.138747,-0.066 0.509166,-0.3425 0.374952,-0.2678 -12.629298,7.0275 -16.932653,8.1667 -12.189855,6.8937 0.02344,0 0.04689,0.01 0.07033,0.015 0,0 13.770243,-5.6783 13.770243,-5.6783 l 0,0 c -0.03367,0.06 -0.06735,0.1207 -0.101021,0.1811 -4.280037,5.2598 -9.851697,8.8299 -15.690481,7.049 -2.90178,-0.921 -5.842886,-1.8249 -8.893922,-2.0646 -5.682863,0.8265 -1.000687,0.2717 11.284232,-7.8656 0.0405,-0.027 -0.143154,-0.016 -0.142042,0.033 0.003,0.1293 0.08654,0.2452 0.150973,0.3573 0.315153,0.5482 0.710479,0.989 1.107603,1.485 0.35407,0.398 0.691794,0.811 1.06221,1.1938 1.111645,1.1487 2.311481,2.2162 3.550107,3.2249 1.639473,1.335 3.440822,2.6837 5.241035,3.7897 0.973671,0.5983 1.99788,1.11 2.996821,1.665 0.83184,0.3684 1.661008,0.7428 2.49552,1.105 0.468441,0.2033 1.809761,0.2699 1.413151,0.5916 -15.497026,12.5694 -8.712169,11.3622 -13.007144,7.4136 -1.127336,-0.9996 -2.462205,-1.9768 -3.939891,-2.3779 -0.274429,-0.074 -0.562608,-0.083 -0.843912,-0.1246 0,0 12.157859,-8.3029 12.157859,-8.3029 z"
       inkscape:connector-curvature="0" />
    <path
       style="fill:#008000;stroke-width:0.40199998;stroke-linecap:round"
       id="path4694"
       d="m 71.449478,993.89234 c -3.032025,3.59186 -5.464688,7.62406 -7.832465,11.66876 -2.79524,4.9925 -1.289497,6.0377 -13.857918,7.3895 -1.880368,0.2022 1.736126,-3.3608 2.639623,-5.0223 6.710406,-12.33971 1.934709,-2.8154 8.41986,-16.37459 2.903309,-6.72784 5.486797,-13.59637 7.633406,-20.60351 0.400713,-1.30804 0.784771,-2.62219 1.114771,-3.94983 0.206302,-0.82999 0.791636,-1.71659 0.492863,-2.51795 -0.209833,-0.5628 -0.557736,1.06398 -0.836605,1.59597 3.1907,-1.35838 6.105078,-4.00078 9.5721,-4.07514 1.664162,-0.0357 -2.091431,2.59176 -3.073452,3.93576 -2.938233,4.02129 -5.439149,8.32939 -7.850364,12.6784 -0.9701,1.87167 -0.540585,1.00817 -1.302005,2.58375 0,0 -12.605772,5.54811 -12.605772,5.54811 l 0,0 c 1.444893,-1.89927 0.650596,-0.86634 2.389394,-3.09379 2.339435,-3.0429 4.620757,-6.11986 6.736914,-9.32492 0.865582,-1.31098 1.714881,-2.63343 2.524913,-3.97945 0.697626,-1.15923 0.952589,-2.6733 1.996591,-3.53385 4.189449,-3.45332 8.963102,-6.12946 13.444653,-9.19419 0.06595,0.55925 0.370214,1.14165 0.197847,1.67775 -0.363742,1.13131 -1.172977,2.06727 -1.738071,3.11267 -0.814613,1.50698 -1.621183,3.01857 -2.400781,4.54397 -3.626119,7.09502 -7.053488,14.30039 -10.014111,21.70137 -2.27612,6.5154 -3.148812,8.10323 -4.334139,14.44197 -0.157954,0.8447 0.529931,2.0782 -0.17326,2.5721 -3.978943,2.7949 -8.638342,4.467 -12.976075,6.6641 -0.596668,0.3022 3.049111,-1.7574 1.483567,-1.351 1.999323,-2.3939 3.839507,-4.8969 5.45125,-7.5716 0.424622,-0.7047 0.862244,-1.4054 1.212459,-2.1498 0.2202,-0.4681 0.327581,-0.9814 0.491371,-1.47206 0,0 13.193436,-5.9002 13.193436,-5.9002 z"
       inkscape:connector-curvature="0" />
    <path
       style="fill:#008000;stroke-width:0.40199998;stroke-linecap:round"
       id="path4696"
       d="m 32.542867,988.52895 c 0.257007,0.22952 0.494618,0.48281 0.771022,0.68856 0.398825,0.29688 0.829934,0.5478 1.249103,0.81518 2.483022,1.58391 0.540607,0.33008 3.093891,1.86713 1.975805,1.23037 1.00591,0.63704 2.908412,1.78206 1.164734,0.82093 2.4515,1.44198 3.657799,2.19334 1.601491,0.99751 -0.416621,-0.21736 0.86692,0.55028 0,0 -12.365243,7.8015 -12.365243,7.8015 l 0,0 c -1.152137,-1.1241 -2.329159,-2.2251 -3.613515,-3.1996 -2.694165,-1.93096 -5.555067,-3.68537 -8.785445,-4.55686 0,0 12.217056,-7.94159 12.217056,-7.94159 z"
       inkscape:connector-curvature="0" />
  </g>
</svg>
