<?xml version="1.0" encoding="utf-8"?>
<!-- Generator: Adobe Illustrator 25.2.0, SVG Export Plug-In . SVG Version: 6.00 Build 0)  -->
<svg version="1.1" id="Layer_1" xmlns="http://www.w3.org/2000/svg" xmlns:xlink="http://www.w3.org/1999/xlink" x="0px" y="0px"
	 viewBox="0 0 100 100" style="enable-background:new 0 0 100 100;" xml:space="preserve">
<rect x="71.1" y="47.2" width="5.6" height="2.5"/>
<path d="M82.3,54.7c-0.1-0.3-0.2-0.5-0.4-0.7l-3.5-3.3c-0.3-0.3-0.6-0.4-1-0.4h-7.6c-2.7,0-4.9,2.2-4.9,4.9v20.1h17.5v-7.7
	c0.1-0.2,0.1-0.3,0.1-0.5V55.2C82.4,55,82.4,54.8,82.3,54.7z M81.3,63.8c0,0.6-0.5,1.2-1.1,1.2c-0.3,0-0.7-0.1-0.9-0.4l-3.1-3
	c-0.2-0.2-0.4-0.5-0.3-0.8v-8.4c0-0.6,0.5-1.2,1.1-1.2c0.3,0,0.7,0.1,0.9,0.4l3.1,3c0.2,0.2,0.3,0.5,0.3,0.8V63.8z"/>
<path d="M22,57.7c1-0.4,2.1-0.5,3.1-0.3c0.9,0.2,1.8,0.5,2.6,1.1c0.3,0.2,0.7,0.2,1,0c0.8-0.5,1.7-0.9,2.6-1.1
	c1.1-0.2,2.1-0.1,3.1,0.3c1.5,0.6,3,1.5,3,3.6c0.1,2.1-0.4,4.2-1.5,6c-0.8,1.4-1.9,2.6-3.2,3.6c-0.7,0.4-1.5,0.6-2.4,0.5
	c-0.5,0-1.3-1-2-1.2c-0.2,0-0.4,0-0.6,0c-0.6,0.2-1.4,1.2-2,1.2c-0.8,0.1-1.7,0-2.4-0.5c-1.3-1-2.4-2.2-3.2-3.6
	c-1.1-1.8-1.6-3.9-1.5-6C19,59.2,20.5,58.2,22,57.7z"/>
<path d="M22.1,50.2c1.7,0,3.4,0.6,4.8,1.8c1.1,1.3,1.8,3,1.8,4.8c-1.7,0-3.4-0.6-4.8-1.8C22.8,53.6,22.1,52,22.1,50.2z"/>
<path d="M62.3,43.4h-2.5l1.2-1.2c0.5-0.4,0.6-1.2,0.1-1.6c-0.4-0.5-1.2-0.6-1.6-0.1c0,0-0.1,0.1-0.1,0.1l-2.9,2.9l-5.9,0.1l3-5
	l4.1-1c0.1,0,0.2,0,0.2-0.1c0.6-0.3,0.8-1,0.5-1.6c-0.3-0.5-0.8-0.7-1.3-0.6l-1.8,0.5l1.4-2.3c0.4-0.5,0.3-1.3-0.2-1.6
	c-0.5-0.4-1.3-0.3-1.6,0.2c0,0.1-0.1,0.1-0.1,0.2l-1.4,2.3l-0.5-1.9c-0.1-0.6-0.7-1.1-1.4-0.9c-0.6,0.1-1.1,0.7-0.9,1.4
	c0,0.1,0,0.1,0,0.2l1,4.1l-3,5l-2.6-4.9l1.3-4.2c0.4-0.5,0.3-1.3-0.3-1.6c-0.5-0.4-1.3-0.3-1.6,0.3c-0.1,0.2-0.2,0.4-0.2,0.7l-0.6,2
	L43,32c-0.3-0.6-0.9-0.8-1.5-0.5c0,0,0,0-0.1,0c-0.6,0.3-0.8,1-0.5,1.6l1.2,2.3l-1.7-0.5c-0.6-0.2-1.3,0.1-1.5,0.8
	c-0.2,0.6,0.1,1.3,0.8,1.5l3.9,1.2l2.8,5.2l-5.7,0.1l-3.1-3.1c-0.5-0.4-1.2-0.4-1.7,0.1c-0.4,0.4-0.4,1.1,0,1.5l1.5,1.5h-2.9
	c-0.6,0-1.2,0.5-1.2,1.2c0,0.6,0.5,1.2,1.2,1.2h2.6l-1.2,1.2c-0.5,0.4-0.5,1.2-0.1,1.6c0.4,0.4,1,0.5,1.4,0.2
	c0.1-0.1,0.2-0.1,0.3-0.2l2.9-2.9l5.8-0.1l-2.9,4.9l-4.1,1.1c-0.6,0.1-1,0.8-0.9,1.4c0.1,0.6,0.8,1,1.4,0.9c0,0,0.1,0,0.1,0l1.8-0.5
	l-1.4,2.4c-0.3,0.5-0.2,1.3,0.4,1.6c0.4,0.2,0.9,0.2,1.2,0c0.2-0.1,0.3-0.3,0.5-0.4l1.4-2.4l0.4,1.8c0.2,0.6,0.8,1,1.4,0.8
	c0.1,0,0.2-0.1,0.2-0.1c0.5-0.3,0.7-0.8,0.6-1.3l-1-4.1l2.9-4.9l2.7,5l-1.3,4.2c-0.3,0.6,0,1.3,0.6,1.5s1.3,0,1.5-0.6
	c0-0.1,0-0.1,0.1-0.2l0.6-2l1.3,2.5c0.3,0.6,1,0.8,1.6,0.5l0,0c0.5-0.3,0.7-1,0.5-1.5l-1.2-2.2l1.7,0.5c0.6,0.2,1.3-0.1,1.5-0.7
	c0,0,0,0,0,0c0.2-0.6-0.1-1.3-0.8-1.5l-3.9-1.2l-2.8-5.4l5.8-0.1l3.1,3.1c0.4,0.4,0.9,0.4,1.4,0.2c0.1-0.1,0.2-0.1,0.3-0.2
	c0.5-0.5,0.5-1.2,0-1.6l-1.5-1.5h2.8c0.6,0,1.2-0.5,1.2-1.2C63.5,44,63,43.4,62.3,43.4C62.3,43.4,62.3,43.4,62.3,43.4z"/>
<path d="M87,80.3H13c-1.1,0-2-0.9-2-2V37.9c0-0.8,0.5-1.5,1.2-1.8l36.5-16.2c0.5-0.2,1.1-0.2,1.6,0l37.5,15.3c0.8,0.3,1.3,1,1.3,1.9
	v41.3C89,79.4,88.1,80.3,87,80.3z M15,76.3h70v-38L49.5,23.8L15,39.2V76.3z"/>
</svg>
