<?xml version="1.0" encoding="iso-8859-1"?>
<!-- Generator: Adobe Illustrator 25.4.1, SVG Export Plug-In . SVG Version: 6.00 Build 0)  -->
<svg version="1.1" id="Layer_1" xmlns="http://www.w3.org/2000/svg" xmlns:xlink="http://www.w3.org/1999/xlink" x="0px" y="0px"
	 viewBox="0 0 100 100" style="enable-background:new 0 0 100 100;" xml:space="preserve">
<path style="fill:none;" d="M72,48h1.75h1.75h1.75H79c0-0.9-0.05-1.775-0.15-2.638S78.6,43.65,78.4,42.8s-0.425-1.7-0.675-2.55
	c-0.25-0.85-0.525-1.7-0.825-2.55h-1.95H73h-1.95H69.1c0.45,0.8,0.85,1.6,1.2,2.425s0.65,1.675,0.9,2.575
	c0.2,0.85,0.375,1.725,0.513,2.612C71.85,46.2,71.95,47.1,72,48z"/>
<path style="fill:none;" d="M45.1,53.9c0.05-0.2,0.075-0.4,0.087-0.6c0.013-0.2,0.013-0.4,0.013-0.6s0-0.4,0-0.6c0-0.2,0-0.4,0-0.6
	c0-0.6-0.025-1.2-0.062-1.8C45.1,49.1,45.05,48.5,45,47.9s-0.15-1.2-0.288-1.787C44.575,45.525,44.4,44.95,44.2,44.4
	c-0.6,0.7-1.025,1.5-1.287,2.338C42.65,47.575,42.55,48.45,42.6,49.3c0.15,0.9,0.425,1.775,0.838,2.562
	C43.85,52.65,44.4,53.35,45.1,53.9L45.1,53.9L45.1,53.9L45.1,53.9L45.1,53.9z"/>
<path style="fill:none;" d="M27,48.8c0-1,0.075-2,0.212-2.975C27.35,44.85,27.55,43.9,27.8,43c0.25-0.95,0.575-1.875,0.962-2.775
	S29.6,38.45,30.1,37.6h-1h-1h-1h-1v6.9v6.9v6.9v6.9h2h2h2h2c-1.15-1.05-2.15-2.225-3.013-3.475C30.225,60.475,29.5,59.15,28.9,57.8
	c-0.6-1.45-1.075-2.925-1.4-4.425S27,50.35,27,48.8z"/>
<path style="fill:none;" d="M63.9,61.2c0.5-0.55,0.95-1.125,1.363-1.725c0.412-0.6,0.787-1.225,1.137-1.875s0.65-1.325,0.912-2.013
	S67.8,54.2,68,53.5h-1h-1h-1h-1v1.95v1.95c-0.05,0-0.075,0.95-0.087,1.9C63.9,60.25,63.9,61.2,63.9,61.2z"/>
<path style="fill:none;" d="M38.8,64.5c0.45-0.15,0.85-0.35,1.225-0.588C40.4,63.675,40.75,63.4,41.1,63.1
	c0.35-0.3,0.675-0.625,0.975-0.975c0.3-0.35,0.575-0.725,0.825-1.125s0.475-0.825,0.675-1.25c0.2-0.425,0.375-0.85,0.525-1.25
	s0.3-0.85,0.438-1.312C44.675,56.725,44.8,56.25,44.9,55.8v0.05v0.05v0.05V56c-0.95-0.65-1.75-1.475-2.362-2.4
	c-0.613-0.925-1.037-1.95-1.237-3s-0.2-2.15,0.013-3.238C41.525,46.275,41.95,45.2,42.6,44.2c0.1-0.1,0.175-0.225,0.25-0.35
	S43,43.6,43.1,43.5s0.2-0.2,0.3-0.312c0.1-0.113,0.2-0.238,0.3-0.388c-0.05-0.15-0.125-0.275-0.2-0.4s-0.15-0.25-0.2-0.4
	s-0.125-0.275-0.213-0.4C43,41.475,42.9,41.35,42.8,41.2s-0.2-0.275-0.3-0.4c-0.1-0.125-0.2-0.25-0.3-0.4
	c-0.1-0.1-0.225-0.225-0.35-0.35S41.6,39.8,41.5,39.7c-1.25,1.1-2.225,2.425-2.913,3.862S37.5,46.55,37.4,48.1
	c-0.1,1.55,0.1,3.125,0.6,4.625s1.3,2.925,2.4,4.175c0.2,0.2,0.4,0.4,0.6,0.6c0.2,0.2,0.4,0.4,0.6,0.6s0.425,0.375,0.65,0.538
	C42.475,58.8,42.7,58.95,42.9,59.1l-0.35,0.55L42.2,60.2l-0.35,0.55L41.5,61.3c-1.7-1.1-3.125-2.5-4.225-4.088
	C36.175,55.625,35.4,53.85,35,52s-0.45-3.775-0.125-5.663C35.2,44.45,35.9,42.6,37,40.9c0.15-0.25,0.3-0.475,0.462-0.7
	c0.163-0.225,0.338-0.45,0.538-0.7c0.2-0.2,0.375-0.4,0.55-0.6c0.175-0.2,0.35-0.4,0.55-0.6c-0.35-0.15-0.725-0.275-1.112-0.375
	C37.6,37.825,37.2,37.75,36.8,37.7s-0.8-0.1-1.2-0.138c-0.4-0.037-0.8-0.062-1.2-0.062h-0.05H34.3h-0.05H34.2
	c-1.55,2.1-2.6,4.425-3.175,6.825C30.45,46.725,30.35,49.2,30.7,51.6s1.175,4.725,2.438,6.838C34.4,60.55,36.1,62.45,38.2,64
	c0.05,0.05,0.1,0.075,0.15,0.1c0.05,0.025,0.1,0.05,0.15,0.1s0.1,0.1,0.15,0.15C38.7,64.4,38.75,64.45,38.8,64.5L38.8,64.5
	L38.8,64.5L38.8,64.5L38.8,64.5z"/>
<path style="fill:none;" d="M20,48.9v-0.05V48.8v-0.05V48.7v0.05v0.05c0,0,0,0,0,0.013S20,48.85,20,48.9c0-0.05,0-0.075,0-0.075
	S20,48.85,20,48.9L20,48.9L20,48.9z"/>
<path style="fill:none;" d="M63.9,37.7v1.85v1.85v1.85v1.85c0.05,0.25,0.1,0.475,0.15,0.7c0.05,0.225,0.1,0.45,0.15,0.7
	c0.05,0.25,0.075,0.5,0.088,0.737C64.3,47.475,64.3,47.7,64.3,47.9h1.05h1.05h1.05h1.05c-0.05-0.95-0.15-1.875-0.312-2.775
	c-0.162-0.9-0.387-1.775-0.688-2.625s-0.65-1.7-1.062-2.525S65.55,38.35,65,37.6h-0.25H64.5h-0.3h-0.3v0.05V37.7z"/>
<path style="fill:#999999;" d="M53.8,41.4l-0.25,0.35L53.3,42.1l-0.25,0.35L52.8,42.8c0.8,0.45,1.5,1.05,2.05,1.75
	c0.55,0.7,0.95,1.5,1.15,2.35c0.25,0.85,0.325,1.725,0.225,2.6c-0.1,0.875-0.375,1.75-0.825,2.6c-0.15,0.3-0.325,0.575-0.513,0.825
	S54.5,53.4,54.3,53.6s-0.45,0.4-0.712,0.588C53.325,54.375,53.05,54.55,52.8,54.7l0.25,0.35l0.25,0.35l0.25,0.35l0.25,0.35
	c0.55-0.3,1.05-0.675,1.5-1.087c0.45-0.413,0.85-0.863,1.2-1.313c0.35-0.5,0.65-1.025,0.888-1.575C57.625,51.575,57.8,51,57.9,50.4
	v-0.8v-0.8V48v-0.8c-0.1-0.6-0.275-1.2-0.513-1.763S56.85,44.35,56.5,43.9s-0.775-0.925-1.238-1.363C54.8,42.1,54.3,41.7,53.8,41.4z
	"/>
<path style="fill:#999999;" d="M41,48.8c0,0.7,0.075,1.4,0.237,2.075C41.4,51.55,41.65,52.2,42,52.8c0.3,0.6,0.7,1.175,1.175,1.7
	c0.475,0.525,1.025,1,1.625,1.4v-0.05V55.8v-0.05V55.7c0-0.05,0-0.075,0-0.1c0-0.025,0-0.05,0-0.1c0-0.05,0-0.075,0.013-0.1
	c0.012-0.025,0.037-0.05,0.087-0.1c0-0.1,0.025-0.225,0.05-0.35S45,54.7,45,54.6s0.025-0.225,0.05-0.35S45.1,54,45.1,53.9
	c-0.7-0.6-1.25-1.325-1.65-2.112C43.05,51,42.8,50.15,42.7,49.3c-0.05-0.85,0.05-1.725,0.312-2.562C43.275,45.9,43.7,45.1,44.3,44.4
	c-0.05-0.15-0.1-0.3-0.15-0.45c-0.05-0.15-0.1-0.3-0.15-0.45s-0.1-0.3-0.162-0.45S43.7,42.75,43.6,42.6
	c-0.4,0.4-0.775,0.825-1.1,1.287c-0.325,0.463-0.6,0.963-0.8,1.513c-0.25,0.55-0.425,1.1-0.537,1.663S41,48.2,41,48.8z"/>
<path style="fill:#999999;" d="M27,48.8c0,1.55,0.15,3.075,0.45,4.562c0.3,1.487,0.75,2.937,1.35,4.337
	c0.6,1.4,1.35,2.725,2.225,3.963C31.9,62.9,32.9,64.05,34,65.1h0.1h0.1h0.1h0.1c0.35,0,0.7,0,1.038-0.012
	C35.775,65.075,36.1,65.05,36.4,65s0.625-0.1,0.962-0.162C37.7,64.775,38.05,64.7,38.4,64.6l0.1-0.05l0.1-0.05l0.1-0.05l0.1-0.05
	c-2.15-1.5-3.925-3.35-5.275-5.425C32.175,56.9,31.25,54.6,30.8,52.2s-0.45-4.875,0.038-7.287C31.325,42.5,32.3,40.15,33.8,38
	c0.05-0.05,0.075-0.1,0.1-0.15c0.025-0.05,0.05-0.1,0.1-0.15s0.075-0.1,0.1-0.15c0.025-0.05,0.05-0.1,0.1-0.15h-1.05H32.1h-1.05H30
	c-0.5,0.85-0.95,1.725-1.337,2.625S27.95,41.85,27.7,42.8c-0.2,1-0.375,2-0.5,3S27,47.8,27,48.8z"/>
<path style="fill:#999999;" d="M39.1,32.5l-0.4-0.65l-0.4-0.65l-0.4-0.65l-0.4-0.65c-0.25,0.15-0.525,0.325-0.8,0.513
	S36.15,30.8,35.9,31s-0.5,0.4-0.75,0.6c-0.25,0.2-0.5,0.4-0.75,0.6h0.3H35h0.25h0.25c0.3,0,0.6,0,0.912,0.013
	c0.312,0.012,0.638,0.037,0.988,0.087c0.25,0,0.525,0.025,0.812,0.062C38.5,32.4,38.8,32.45,39.1,32.5z"/>
<path style="fill:#999999;" d="M65,37.7c0.55,0.75,1.025,1.55,1.438,2.375S67.2,41.75,67.5,42.6s0.525,1.75,0.688,2.662
	C68.35,46.175,68.45,47.1,68.5,48h0.85h0.85h0.9H72c-0.05-0.9-0.125-1.8-0.25-2.688s-0.3-1.763-0.55-2.612s-0.55-1.7-0.9-2.538
	c-0.35-0.837-0.75-1.662-1.2-2.462h-1h-1h-1.05L65,37.7z"/>
<path style="fill:#999999;" d="M61.2,29.6l-0.4,0.65l-0.4,0.65L60,31.55l-0.4,0.65h1.25h1.25h1.25h1.25
	c-0.25-0.25-0.525-0.475-0.812-0.7C63.5,31.275,63.2,31.05,62.9,30.8c-0.25-0.25-0.525-0.475-0.813-0.675
	C61.8,29.925,61.5,29.75,61.2,29.6z"/>
<path style="fill:#999999;" d="M63.9,61.2v1.2v1.2v1.2V66c0.95-0.8,1.85-1.675,2.662-2.612C67.375,62.45,68.1,61.45,68.7,60.4
	c0.65-1.05,1.2-2.15,1.65-3.3c0.45-1.15,0.8-2.35,1.05-3.6h-0.9h-0.9h-0.8H68c-0.2,0.7-0.425,1.4-0.688,2.088S66.75,56.95,66.4,57.6
	s-0.725,1.275-1.138,1.875C64.85,60.075,64.4,60.65,63.9,61.2z"/>
<path style="fill:#999999;" d="M63.9,48H64h0.1h0.1h0.1c0-0.25-0.025-0.5-0.05-0.75c-0.025-0.25-0.05-0.5-0.05-0.75
	c-0.05-0.25-0.1-0.5-0.15-0.737C64,45.525,63.95,45.3,63.9,45.1v0.75v0.75c0,0,0,0.35,0,0.7S63.9,48,63.9,48z"/>
<path style="fill:#999999;" d="M55.8,59.3l0.35,0.55l0.35,0.55l0.35,0.55l0.35,0.55c0.05-0.05,0.125-0.1,0.2-0.138
	c0.075-0.037,0.15-0.062,0.2-0.062c0.05-0.05,0.125-0.1,0.2-0.138c0.075-0.037,0.15-0.062,0.2-0.062v-0.8v-0.8v-0.8v-0.8
	c-0.15,0.15-0.325,0.3-0.5,0.438S57.15,58.6,57,58.7c-0.25,0.1-0.475,0.2-0.675,0.3S55.95,59.2,55.8,59.3z"/>
<path style="fill:#999999;" d="M57.1,36l-0.35,0.55L56.4,37.1l-0.35,0.55L55.7,38.2c0.2,0.1,0.375,0.225,0.55,0.35
	s0.35,0.25,0.55,0.35s0.375,0.225,0.537,0.375C57.5,39.425,57.65,39.6,57.8,39.8V39v-0.8v-0.8v-0.8c-0.05-0.05-0.125-0.1-0.2-0.15
	c-0.075-0.05-0.15-0.1-0.2-0.15c0-0.05-0.05-0.1-0.112-0.15C57.225,36.1,57.15,36.05,57.1,36z"/>
<path style="fill:#999999;" d="M41.5,61.2l0.35-0.55l0.35-0.55l0.35-0.55L42.9,59c-1.4-0.9-2.575-2.05-3.475-3.362
	c-0.9-1.312-1.525-2.787-1.825-4.338s-0.35-3.15-0.087-4.713C37.775,45.025,38.35,43.5,39.3,42.1c0.15-0.25,0.3-0.475,0.462-0.688
	C39.925,41.2,40.1,41,40.3,40.8c0.2-0.2,0.4-0.4,0.6-0.6c0.2-0.2,0.4-0.4,0.6-0.6c-0.15-0.15-0.325-0.3-0.513-0.438
	S40.6,38.9,40.4,38.8s-0.4-0.2-0.6-0.3c-0.2-0.1-0.4-0.2-0.6-0.3c-1.45,1.45-2.55,3.1-3.288,4.862S34.8,46.7,34.8,48.6
	s0.35,3.8,1.062,5.587c0.713,1.788,1.787,3.463,3.237,4.913c0.2,0.2,0.4,0.4,0.6,0.588c0.2,0.188,0.4,0.362,0.6,0.512
	c0.15,0.25,0.325,0.45,0.525,0.612S41.25,61.1,41.5,61.2L41.5,61.2L41.5,61.2L41.5,61.2L41.5,61.2L41.5,61.2L41.5,61.2z"/>
<path style="fill:#999999;" d="M20,48.8L20,48.8L20,48.8c0-0.05,0-0.075,0-0.087c0-0.013,0-0.013,0-0.013v-4.1v-4.1v-4.05V32.4
	c-1.45,2.55-2.525,5.25-3.237,8.013C16.05,43.175,15.7,46,15.7,48.8s0.35,5.625,1.063,8.388C17.475,59.95,18.55,62.65,20,65.2v-4.1
	V57v-4.1V48.8c0,0.05,0,0.075,0,0.075S20,48.85,20,48.8L20,48.8L20,48.8z"/>
<path style="fill:#999999;" d="M33.8,23.8l-0.55-0.9L32.7,22l-0.55-0.9l-0.55-0.9c-1.2,0.75-2.35,1.575-3.438,2.462
	S26.05,24.5,25.1,25.5s-1.85,2.075-2.688,3.2S20.8,31,20.1,32.2h1.25h1.25h1.25h1.25c0.55-0.85,1.15-1.65,1.8-2.413
	c0.65-0.763,1.35-1.488,2.1-2.188s1.525-1.375,2.325-2.013C32.125,24.95,32.95,24.35,33.8,23.8z"/>
<path style="fill:#999999;" d="M31.6,77.4l0.55-0.9l0.55-0.9l0.55-0.9l0.55-0.9c-0.4-0.25-0.775-0.5-1.138-0.75
	C32.3,72.8,31.95,72.55,31.6,72.3s-0.7-0.525-1.05-0.812C30.2,71.2,29.85,70.9,29.5,70.6H28h-1.5H25h-1.5
	c0.55,0.7,1.15,1.35,1.775,1.975S26.55,73.8,27.2,74.4c0.75,0.5,1.475,1,2.2,1.5S30.85,76.9,31.6,77.4z"/>
<path style="fill:#999999;" d="M79,48h0.8h0.8h0.8h0.8v1.35v1.35v1.35v1.35h-0.9h-0.9h-0.9h-0.9c-0.35,2.1-0.925,4.15-1.7,6.112
	c-0.775,1.963-1.75,3.837-2.9,5.587s-2.5,3.375-4.025,4.838C68.45,71.4,66.75,72.7,64.9,73.8l0.55,0.9L66,75.6l0.55,0.9l0.55,0.9
	c3.4-2.05,6.3-4.65,8.662-7.613C78.125,66.825,79.95,63.5,81.2,60c1.25-3.55,1.925-7.275,1.963-11.05
	C83.2,45.175,82.6,41.35,81.3,37.6h-1.15H79h-1.15H76.7c0.35,0.8,0.65,1.625,0.9,2.475s0.45,1.725,0.6,2.625
	c0.25,0.9,0.425,1.775,0.55,2.65C78.875,46.225,78.95,47.1,79,48z"/>
<path style="fill:#999999;" d="M67.2,20l-0.6,0.9L66,21.8l-0.55,0.9l-0.55,0.9c0.9,0.55,1.75,1.15,2.562,1.788
	C68.275,26.025,69.05,26.7,69.8,27.4s1.45,1.45,2.113,2.237C72.575,30.425,73.2,31.25,73.8,32.1h1.25h1.25h1.25h1.25
	c-0.7-1.25-1.475-2.45-2.325-3.587C75.625,27.375,74.7,26.3,73.7,25.3c-0.95-1-1.975-1.95-3.063-2.837
	C69.55,21.575,68.4,20.75,67.2,20z"/>
<path style="fill:#999999;" d="M49.2,61.7c-0.1,0.2-0.2,0.4-0.3,0.6c-0.1,0.2-0.2,0.4-0.3,0.6s-0.225,0.4-0.35,0.6
	c-0.125,0.2-0.25,0.4-0.35,0.6l-0.15,4l-0.15,4l-0.15,4l-0.15,4h1.1h1.1h1.1h1.1l-0.2-5.85l-0.2-5.85l-0.2-5.85l-0.2-5.85
	c-0.1,0.45-0.2,0.9-0.312,1.338C50.475,58.475,50.35,58.9,50.2,59.3c-0.15,0.35-0.3,0.75-0.463,1.163
	C49.575,60.875,49.4,61.3,49.2,61.7z"/>
<path style="fill:#999999;" d="M51.4,48.8c0-0.05,0-0.1,0-0.15c0-0.05,0-0.1,0-0.15s0-0.1-0.013-0.15
	c-0.013-0.05-0.037-0.1-0.087-0.15c0,0.05,0,0.1,0,0.15c0,0.05,0,0.1,0,0.15s0,0.1,0.013,0.15C51.325,48.7,51.35,48.75,51.4,48.8
	c0,0.05,0,0.075,0,0.075S51.4,48.85,51.4,48.8L51.4,48.8L51.4,48.8z"/>
<path style="fill:#FFFFFF;" d="M50.7,50.3l0.05,1.55l0.05,1.55l0.05,1.55l0.05,1.55c0.1-0.5,0.175-0.975,0.237-1.45
	S51.25,54.1,51.3,53.6s0.075-0.975,0.087-1.45C51.4,51.675,51.4,51.2,51.4,50.7c0-0.15,0-0.3,0-0.45c0-0.15,0-0.3,0-0.45
	c0-0.15,0-0.3-0.013-0.45c-0.012-0.15-0.037-0.3-0.087-0.45c0,0.15-0.025,0.275-0.062,0.4c-0.037,0.125-0.087,0.25-0.138,0.4
	c0,0.1-0.05,0.2-0.125,0.3C50.9,50.1,50.8,50.2,50.7,50.3z"/>
<path style="fill:#FFFFFF;" d="M20,32.1v0.05v0.05v0.05v0.05v-0.05V32.2l0.05-0.05l0.05-0.05h-0.05H20L20,32.1L20,32.1z"/>
<path style="fill:#FFFFFF;" d="M57.9,47.2V48v0.8v0.8v0.8c0.05-0.15,0.075-0.275,0.087-0.4S58,49.75,58,49.6s0-0.275,0-0.4
	s0-0.25,0-0.4s0-0.275,0-0.4s0-0.25,0-0.4s-0.025-0.275-0.05-0.4S57.9,47.35,57.9,47.2z"/>
<path d="M20.5,32.6h3.75H28h3.75h3.75c1.25,0,2.45,0.125,3.575,0.362S41.25,33.55,42.2,34c1,0.45,1.9,1.025,2.725,1.713
	S46.5,37.2,47.2,38.1c0.6,0.8,1.15,1.675,1.625,2.612C49.3,41.65,49.7,42.65,50,43.7s0.525,2.15,0.675,3.312
	C50.825,48.175,50.9,49.4,50.9,50.7c0,0.95-0.025,1.875-0.1,2.788C50.725,54.4,50.6,55.3,50.4,56.2s-0.425,1.8-0.7,2.688
	c-0.275,0.887-0.6,1.762-1,2.612c-0.65,1.4-1.425,2.65-2.312,3.725C45.5,66.3,44.5,67.2,43.4,67.9s-2.325,1.225-3.675,1.575
	C38.375,69.825,36.9,70,35.3,70h-3.65H28h-3.7h-3.7v-9.35V51.3v-9.35V32.6h-0.05H20.5z M34.5,65.6c0.35,0,0.7,0,1.05-0.012
	c0.35-0.013,0.7-0.037,1.05-0.088s0.7-0.1,1.038-0.162C37.975,65.275,38.3,65.2,38.6,65.1c0.5-0.15,0.975-0.375,1.425-0.638
	C40.475,64.2,40.9,63.9,41.3,63.6s0.775-0.65,1.112-1.037C42.75,62.175,43.05,61.75,43.3,61.3s0.5-0.9,0.725-1.362
	C44.25,59.475,44.45,59,44.6,58.5c0.2-0.5,0.35-1,0.475-1.5s0.225-1,0.325-1.5c0.05-0.3,0.1-0.625,0.15-0.962
	c0.05-0.338,0.1-0.688,0.15-1.038s0.075-0.675,0.087-1s0.013-0.65,0.013-1c0-1.15-0.05-2.25-0.162-3.287
	C45.525,47.175,45.35,46.2,45.1,45.3c-0.2-0.9-0.475-1.725-0.812-2.487S43.55,41.35,43.1,40.7s-0.975-1.2-1.562-1.675
	C40.95,38.55,40.3,38.15,39.6,37.8c-0.7-0.3-1.5-0.525-2.362-0.675C36.375,36.975,35.45,36.9,34.5,36.9h-2.25H30h-2.2h-2.2v7.15
	v7.15v7.15v7.15h2.2H30l2.25,0.05L34.5,65.6z"/>
<path d="M58.4,32.6h6.45h6.45h6.45h6.45v1.15v1.15v1.15v1.15H79h-5.2h-5.2h-5.2v2.85v2.85v2.85v2.85H68h4.6h4.6h4.6v1.1v1.1v1.1V53
	h-4.6h-4.6H68h-4.6v4.25v4.25v4.25V70h-1.25H60.9h-1.25H58.4v-9.35V51.3l0-9.35V32.6z"/>
</svg>
