<?xml version="1.0" encoding="iso-8859-1"?>
<!-- Generator: Adobe Illustrator 25.4.1, SVG Export Plug-In . SVG Version: 6.00 Build 0)  -->
<svg version="1.1" id="Layer_1" xmlns="http://www.w3.org/2000/svg" xmlns:xlink="http://www.w3.org/1999/xlink" x="0px" y="0px"
	 viewBox="0 0 100 100" style="enable-background:new 0 0 100 100;" xml:space="preserve">
<path style="fill:#B2B2B2;" d="M28.1,47.2c-0.85,0-1.65,0.3-2.375,0.85C25,48.6,24.35,49.4,23.8,50.4s-0.975,2.175-1.263,3.487
	S22.1,56.65,22.1,58.2s0.175,3,0.487,4.312S23.35,65,23.9,66s1.2,1.8,1.913,2.35S27.3,69.2,28.1,69.2s1.6-0.3,2.337-0.85
	C31.175,67.8,31.85,67,32.4,66s1-2.175,1.312-3.487S34.2,59.75,34.2,58.2s-0.175-3-0.487-4.312S32.95,51.4,32.4,50.4
	c-0.55-0.95-1.2-1.75-1.925-2.312C29.75,47.525,28.95,47.2,28.1,47.2z M28.1,63.4c-0.4,0-0.8-0.15-1.163-0.412
	C26.575,62.725,26.25,62.35,26,61.9s-0.475-1-0.638-1.625C25.2,59.65,25.1,58.95,25.1,58.2s0.075-1.425,0.225-2.038
	C25.475,55.55,25.7,55,26,54.5c0.25-0.45,0.575-0.825,0.938-1.088C27.3,53.15,27.7,53,28.1,53s0.8,0.15,1.163,0.412
	c0.362,0.263,0.688,0.638,0.938,1.088s0.475,1,0.638,1.612C31,56.725,31.1,57.4,31.1,58.1c0,0.7-0.075,1.375-0.225,2
	c-0.15,0.625-0.375,1.2-0.675,1.7s-0.6,0.9-0.938,1.175C28.925,63.25,28.55,63.4,28.1,63.4z"/>
<path style="fill:#B2B2B2;" d="M74.3,47.2c-0.85,0-1.65,0.3-2.375,0.85C71.2,48.6,70.55,49.4,70,50.4s-1,2.175-1.312,3.487
	S68.2,56.65,68.2,58.2s0.2,3,0.525,4.312S69.5,65,70,66c0.55,1,1.2,1.8,1.925,2.35C72.65,68.9,73.45,69.2,74.3,69.2
	s1.65-0.3,2.375-0.85S78.05,67,78.6,66s0.975-2.175,1.262-3.487S80.3,59.75,80.3,58.2s-0.175-3-0.475-4.312S79.1,51.4,78.6,50.4
	c-0.55-0.95-1.2-1.75-1.925-2.312C75.95,47.525,75.15,47.2,74.3,47.2z M74.3,63.4c-0.4,0-0.8-0.15-1.162-0.412
	C72.775,62.725,72.45,62.35,72.2,61.9s-0.475-1-0.638-1.625C71.4,59.65,71.3,58.95,71.3,58.2s0.075-1.425,0.225-2.038
	C71.675,55.55,71.9,55,72.2,54.5c0.25-0.45,0.575-0.825,0.938-1.088C73.5,53.15,73.9,53,74.3,53s0.8,0.15,1.162,0.412
	c0.362,0.263,0.688,0.638,0.938,1.088s0.475,1,0.638,1.612C77.2,56.725,77.3,57.4,77.3,58.1c0,0.7-0.075,1.375-0.225,2
	S76.7,61.3,76.4,61.8c-0.25,0.5-0.575,0.9-0.938,1.175C75.1,63.25,74.7,63.4,74.3,63.4z"/>
<path style="fill:#B2B2B2;" d="M85.3,55.8l-1.1-3.65l-1.1-3.65L82,44.85l-1.1-3.65h-4.45H72h-4.5H63v-0.7v-0.7v-0.7v-0.7l-1.45-1
	l-1.45-1l-1.45-1l-1.45-1h-1.6H54h-1.5H51v1.9v1.9v1.9V42l-1.65,2l-1.65,2l-1.65,2l-1.65,2l-1.2-1.5L42,47l-1.15-1.55L39.7,43.9
	h-1.15H37.4h-1.2H35v-3.3v-3.3V34v-3.3h-3.55H27.9h-3.55H20.8c-0.45,0-0.825,0.025-1.15,0.075c-0.325,0.05-0.6,0.125-0.85,0.225
	s-0.425,0.25-0.538,0.462C18.15,31.675,18.1,31.95,18.1,32.3c0,0.35,0,1.175,0,2.225c0,1.05,0,2.325,0,3.575s0,2.45,0,3.337
	c0,0.888,0,1.463,0,1.463h-0.9h-0.9h-0.9h-0.9l-0.6,1.25l-0.6,1.25l-0.65,1.3L12,48v0.6v0.6v0.6v0.6c0,0,0.125-0.025,0.312-0.025
	S12.75,50.4,13,50.5s0.5,0.275,0.688,0.575S14,51.8,14,52.4c0.05,0.3,0.025,0.6-0.062,0.875S13.7,53.8,13.5,54
	s-0.425,0.375-0.675,0.513S12.3,54.75,12,54.8v1.8v1.8v1.8V62h1.9h1.9h1.9h1.9v-0.8v-0.8v-0.8v-0.8h0.3h0.3h0.3h0.3
	c0-0.05,0-0.075,0-0.1c0-0.025,0-0.05,0-0.1c0-0.05,0-0.075,0-0.1s0-0.05,0-0.1c0-1.85,0.2-3.6,0.575-5.188S22.3,50.2,23,49
	s1.5-2.175,2.375-2.85C26.25,45.475,27.2,45.1,28.2,45.1s1.975,0.375,2.862,1.05S32.75,47.8,33.4,49s1.2,2.65,1.588,4.25
	c0.387,1.6,0.612,3.35,0.612,5.15c0,0.05,0,0.075,0,0.1s0,0.05,0,0.1s0,0.075,0,0.1c0,0.025,0,0.05,0,0.1v0.8v0.8v0.8V62H36h0.4h0.4
	h0.4v-0.8v-0.8v-0.8v-0.8h0.95h0.95h0.95H41l1.35,1.65l1.35,1.65l1.35,1.65l1.35,1.65h5h5h5h5c-0.1-0.45-0.2-0.925-0.287-1.413
	S65.95,63,65.9,62.5s-0.1-0.975-0.137-1.45S65.7,60.1,65.7,59.6c0-2.05,0.25-4,0.688-5.775C66.825,52.05,67.45,50.45,68.2,49.1
	c0.8-1.35,1.725-2.425,2.75-3.162C71.975,45.2,73.1,44.8,74.3,44.8s2.35,0.425,3.387,1.175S79.65,47.8,80.4,49.1
	s1.4,2.875,1.862,4.638S83,57.45,83,59.5c0,0.5-0.025,0.975-0.062,1.45S82.85,61.9,82.8,62.4s-0.125,0.975-0.213,1.45
	S82.4,64.8,82.3,65.3h1.4h1.4h1.45H88v-2.35V60.6v-2.35V55.9h-0.65H86.7H86h-0.7v-0.05V55.8z M28.1,40.5h-1.7h-1.7H23h-1.7v-1.1
	v-1.1v-1.1v-1.1H23h1.7h1.7h1.7v1.1v1.1v1.1V40.5z"/>
</svg>
