<?xml version="1.0" encoding="iso-8859-1"?>
<!-- Generator: Adobe Illustrator 25.4.1, SVG Export Plug-In . SVG Version: 6.00 Build 0)  -->
<svg version="1.1" id="Layer_1" xmlns="http://www.w3.org/2000/svg" xmlns:xlink="http://www.w3.org/1999/xlink" x="0px" y="0px"
	 viewBox="0 0 100 100" style="enable-background:new 0 0 100 100;" xml:space="preserve">
<polygon style="fill:none;" points="56.5,48 55.85,50.7 55.2,53.4 54.5,56.1 53.8,58.8 56.6,57.3 59.4,55.8 62.25,54.25 65.1,52.7 
	64.55,51.55 64,50.4 63.5,49.2 63,48 61.4,48 59.8,48 58.15,48 "/>
<path style="fill:none;" d="M19.8,60.5c0.1,0,0.275-1.175,0.463-2.938S20.65,53.45,20.8,51.1s0.325-4.7,0.462-6.463
	C21.4,42.875,21.5,41.7,21.5,41.7s-0.225,0.9-0.562,2.287C20.6,45.375,20.15,47.25,19.7,49.2s-0.875,3.95-1.188,5.563
	C18.2,56.375,18,57.6,18,58c-0.05,0.3-0.025,0.575,0.05,0.837c0.075,0.263,0.2,0.513,0.35,0.763c0.2,0.25,0.4,0.45,0.625,0.6
	C19.25,60.35,19.5,60.45,19.8,60.5z"/>
<path style="fill:#8E8E8E;" d="M74.7,65h1.35h1.35h1.35h1.35c0,0,0.275,0,0.688-0.075C81.2,64.85,81.75,64.7,82.3,64.4
	s1.1-0.775,1.512-1.513S84.5,61.15,84.5,59.8c0.05-1.35-0.1-2.475-0.338-3.412C83.925,55.45,83.6,54.7,83.3,54.1
	s-0.625-1-0.875-1.25S82,52.5,82,52.5h-3.8h-3.8h-3.8h-3.8l-0.65-1.55L65.5,49.4l-0.75-1.6L64,46.2h-1.8h-1.8h-1.8h-1.8l-1.6-1.8
	l-1.6-1.8L52,40.8L50.4,39l-5.95-2.6l-5.95-2.6l-5.95-2.6l-5.95-2.6l-0.1-0.55l-0.1-0.55l-0.1-0.55l-0.1-0.55l-0.55-0.2L25.1,26
	l-0.55-0.1L24,25.8l-0.3,1.95l-0.3,1.95l-0.3,1.95l-0.3,1.95c0,0-0.1,0.05-0.237,0.15C22.425,33.85,22.25,34,22.1,34.2
	c-0.2,0.2-0.375,0.4-0.513,0.612C21.45,35.025,21.35,35.25,21.3,35.5c-0.05,0.4-0.375,1.975-0.837,4.112S19.4,44.45,18.8,47.1
	s-1.175,5.25-1.6,7.188c-0.425,1.938-0.7,3.213-0.7,3.213l-0.3-0.1l-0.3-0.1l-0.25-0.1l-0.25-0.1c0,0,0,0.05,0,0.15
	c0,0.1,0,0.25,0,0.45s0,0.375,0,0.525c0,0.15,0,0.275,0,0.375s0.075,0.225,0.188,0.362S15.85,59.25,16,59.4s0.3,0.325,0.413,0.525
	c0.112,0.2,0.188,0.425,0.188,0.675s-0.025,0.4-0.075,0.5c-0.05,0.1-0.125,0.15-0.225,0.2s-0.225,0.075-0.375,0.125
	S15.6,61.55,15.4,61.7c-0.1,0.7-0.075,1.45,0.062,2.2s0.387,1.5,0.737,2.2c0.35,0.7,0.775,1.375,1.25,1.963
	c0.475,0.587,1,1.087,1.55,1.438c0.55,0.35,1.35,0.775,2.275,1.2c0.925,0.425,1.975,0.85,3.025,1.2c1.05,0.3,2.05,0.525,2.875,0.6
	C28,72.575,28.65,72.5,29,72.2c-1.05-0.55-1.975-1.25-2.788-2.05c-0.812-0.8-1.512-1.7-2.112-2.65c-0.6-0.95-1.05-2-1.35-3.1
	c-0.3-1.1-0.45-2.25-0.45-3.4c0-1.25,0.3-3.525,0.738-6.237S24.05,48.9,24.6,45.9c0.55-3,1.1-5.825,1.513-7.9
	c0.413-2.075,0.688-3.4,0.688-3.4l4.9,2.1l4.9,2.1l4.9,2.1l4.9,2.1l0.75,1.15l0.75,1.15l0.75,1.15l0.75,1.15l0.15,1.8l0.15,1.8
	l0.15,1.8L50,54.8v1.7v1.7v1.7v1.7c0,0.2,0.125,0.5,0.325,0.838c0.2,0.337,0.475,0.712,0.775,1.062s0.7,0.675,1.125,0.913
	C52.65,64.65,53.1,64.8,53.5,64.8h1.55h1.55h1.7H60v0.05v0.05v0.05V65h3.7h3.7h3.65L74.7,65l0-0.1v-0.1l0,0.1V65z M19.8,60.5
	c-0.3-0.05-0.55-0.175-0.763-0.338C18.825,60,18.65,59.8,18.5,59.6s-0.275-0.45-0.35-0.725C18.075,58.6,18.05,58.3,18.1,58
	c0-0.45,0.225-1.7,0.562-3.312S19.45,51.1,19.9,49.2s0.9-3.775,1.237-5.175S21.7,41.7,21.7,41.7s-0.075,1.175-0.2,2.938
	S21.2,48.75,21,51.1s-0.45,4.7-0.675,6.463C20.1,59.325,19.9,60.5,19.8,60.5z M53.8,58.8l0.7-2.7l0.7-2.7l0.7-2.7l0.7-2.7h1.6h1.6
	h1.6H63l0.55,1.2l0.55,1.2l0.55,1.2l0.55,1.2l-2.8,1.5l-2.8,1.5l-2.9,1.5L53.8,58.8z"/>
<path style="fill:#8E8E8E;" d="M79.8,65.3h-6.2h-6.2h-6.15H55.1c-0.6-0.05-1.175,0.05-1.713,0.25c-0.537,0.2-1.037,0.5-1.487,0.85
	c-0.4,0.4-0.75,0.85-1,1.363c-0.25,0.512-0.4,1.088-0.4,1.737c-0.05,0.6,0.05,1.175,0.25,1.713s0.5,1.037,0.85,1.487
	s0.8,0.8,1.325,1.037C53.45,73.975,54.05,74.1,54.7,74.1c0.05,0,0.075,0,0.1,0c0.025,0,0.05,0,0.1,0s0.075,0,0.1,0
	c0.025,0,0.05,0,0.1,0h6.2h6.2h6.2h6.2c0.6-0.05,1.175-0.2,1.7-0.438c0.525-0.237,1-0.562,1.4-0.963s0.7-0.9,0.887-1.45
	c0.188-0.55,0.263-1.15,0.213-1.75c-0.05-0.55-0.175-1.1-0.387-1.6C83.5,67.4,83.2,66.95,82.8,66.6s-0.875-0.65-1.387-0.875
	S80.35,65.35,79.8,65.3z M79.8,73.2h-6.2h-6.2h-6.15H55.1c-0.45,0.05-0.9-0.025-1.325-0.188C53.35,72.85,52.95,72.6,52.6,72.3
	s-0.625-0.65-0.812-1.05S51.5,70.4,51.5,69.9c-0.05-0.45,0.025-0.9,0.188-1.325C51.85,68.15,52.1,67.75,52.4,67.4
	s0.65-0.625,1.05-0.812C53.85,66.4,54.3,66.3,54.8,66.3c0.05,0,0.075,0,0.1,0s0.05,0,0.1,0s0.075,0,0.1,0c0.025,0,0.05,0,0.1,0h6.2
	h6.2h6.2H80c0.45,0.05,0.9,0.175,1.312,0.362S82.1,67.1,82.4,67.4c0.3,0.35,0.525,0.725,0.675,1.137
	C83.225,68.95,83.3,69.4,83.3,69.9c0,0.45-0.1,0.875-0.275,1.25S82.6,71.85,82.3,72.1c-0.4,0.3-0.8,0.55-1.213,0.738
	S80.25,73.15,79.8,73.2z"/>
<path style="fill:#8E8E8E;" d="M55.3,73.1c-0.45,0-0.875-0.1-1.263-0.275S53.3,72.4,53,72.1s-0.55-0.65-0.725-1.037
	C52.1,70.675,52,70.25,52,69.8s0.1-0.875,0.275-1.262C52.45,68.15,52.7,67.8,53,67.5c0.3-0.3,0.65-0.55,1.037-0.725
	C54.425,66.6,54.85,66.5,55.3,66.5s0.875,0.1,1.263,0.275C56.95,66.95,57.3,67.2,57.6,67.5s0.55,0.65,0.725,1.037
	C58.5,68.925,58.6,69.35,58.6,69.8l0,0l0,0l0,0l0,0c0,0.45-0.1,0.875-0.275,1.262C58.15,71.45,57.9,71.8,57.6,72.1
	c-0.25,0.3-0.6,0.55-1,0.725C56.2,73,55.75,73.1,55.3,73.1z M55.3,66.9c-0.4,0-0.775,0.075-1.112,0.213S53.55,67.45,53.3,67.7
	s-0.45,0.55-0.587,0.887C52.575,68.925,52.5,69.3,52.5,69.7s0.075,0.775,0.213,1.113C52.85,71.15,53.05,71.45,53.3,71.7
	s0.55,0.45,0.888,0.588S54.9,72.5,55.3,72.5s0.775-0.075,1.112-0.213S57.05,71.95,57.3,71.7s0.45-0.55,0.587-0.887
	C58.025,70.475,58.1,70.1,58.1,69.7l0,0l0,0l0,0l0,0c0-0.4-0.075-0.775-0.213-1.113C57.75,68.25,57.55,67.95,57.3,67.7
	c-0.25-0.2-0.55-0.4-0.888-0.55S55.7,66.9,55.3,66.9z"/>
<path style="fill:#8E8E8E;" d="M79.5,73.1c-0.45,0-0.875-0.1-1.262-0.275C77.85,72.65,77.5,72.4,77.2,72.1s-0.55-0.65-0.725-1.037
	C76.3,70.675,76.2,70.25,76.2,69.8s0.1-0.875,0.275-1.262C76.65,68.15,76.9,67.8,77.2,67.5c0.3-0.3,0.65-0.55,1.037-0.725
	C78.625,66.6,79.05,66.5,79.5,66.5s0.875,0.1,1.262,0.275C81.15,66.95,81.5,67.2,81.8,67.5s0.55,0.65,0.725,1.037
	C82.7,68.925,82.8,69.35,82.8,69.8l0,0l0,0l0,0l0,0c0,0.45-0.1,0.875-0.275,1.262C82.35,71.45,82.1,71.8,81.8,72.1
	c-0.25,0.3-0.575,0.55-0.963,0.725S80,73.1,79.5,73.1z M79.5,66.9c-0.4,0-0.775,0.075-1.113,0.213
	C78.05,67.25,77.75,67.45,77.5,67.7s-0.45,0.55-0.588,0.887S76.7,69.3,76.7,69.7s0.075,0.775,0.213,1.113S77.25,71.45,77.5,71.7
	s0.55,0.45,0.887,0.588C78.725,72.425,79.1,72.5,79.5,72.5s0.775-0.075,1.113-0.213C80.95,72.15,81.25,71.95,81.5,71.7
	s0.45-0.55,0.588-0.887S82.3,70.1,82.3,69.7l0,0l0,0l0,0l0,0c0-0.4-0.075-0.775-0.213-1.113S81.75,67.95,81.5,67.7
	c-0.25-0.2-0.55-0.4-0.887-0.55C80.275,67,79.9,66.9,79.5,66.9z"/>
</svg>
