<svg xmlns="http://www.w3.org/2000/svg" viewBox="0 0 100 100"><rect x="11.36" y="39.83" width="15.07" height="3.28" rx="1.64" transform="matrix(-0.8, -0.6, 0.6, -0.8, 9.26, 86.02)" fill="#969696"/><rect x="19.27" y="43.89" width="1.57" height="4.92" transform="translate(40.11 92.7) rotate(-180)" fill="#969696"/><path d="M42,29.71c0,1.25-1.35,1.67-3,1.67s-3-.42-3-1.67,1.7-2.65,2.89-2.65S42,28.47,42,29.71Z" fill="#fff"/><path d="M39,31.58c-2.68,0-3.24-1-3.24-1.87,0-1.38,1.81-2.85,3.09-2.85s3.38,1.44,3.38,2.85C42.22,30.57,41.66,31.58,39,31.58Zm-.15-4.32c-1.06,0-2.69,1.31-2.69,2.45S37.7,31.18,39,31.18s2.83-.25,2.83-1.47S40,27.26,38.84,27.26Z" fill="#969696"/><path d="M17.15,71.07c-.42-2.53-1.68-9-1.78-12.82-.32-.53-3-1.5-3-3.58V49.16c0-.6.88-.84,2.37-.84a35.39,35.39,0,0,1,5.42.49c.64.2,3.47,1.41,5,1.41h6.9s.24-15,1.58-17.93c.3-.5,18-.35,18-.35l2.19-8.88h7s.7,21.58.75,22,5.2,6.88,5.79,7,12.5,1.77,14.19,5.4,6.25,13.81.25,13.85Z" fill="#fff"/><path d="M81.76,71.85l-65-.29-.07-.41c-.07-.42-.17-1-.27-1.58a96.67,96.67,0,0,1-1.52-11.12,4,4,0,0,0-.49-.34c-.93-.63-2.48-1.68-2.48-3.44V49.16c0-1.34,2.09-1.34,2.87-1.34a34.76,34.76,0,0,1,5.56.51l.72.26a15.77,15.77,0,0,0,4.1,1.13h6.41c.05-2.66.38-14.92,1.62-17.64.2-.34.46-.78,18-.64l2.19-8.88h7.87V23c.24,7.4.7,21.51.75,22a57.37,57.37,0,0,0,5.47,6.59l.29,0c5.71.94,12.8,2.68,14.17,5.62,3.15,6.76,4,11.06,2.7,13.16A3.19,3.19,0,0,1,81.76,71.85ZM17.58,70.57l64.17.28a2.27,2.27,0,0,0,2.06-.94c1.11-1.76.18-5.86-2.76-12.2-.91-2-5.81-3.8-13.43-5.06a2.79,2.79,0,0,1-.41-.07c-.87-.18-6.12-6.8-6.19-7.43-.05-.43-.61-17.88-.73-21.59H54.17L52,32.44h-.4c-6.15,0-16.09,0-17.59.25-1,2.46-1.37,12.49-1.45,17.54v.49H25.15a16,16,0,0,1-4.45-1.19L20,49.29a35.63,35.63,0,0,0-5.27-.47c-1.7,0-1.87.33-1.87.34v5.51c0,1.23,1.23,2.06,2,2.6a2.91,2.91,0,0,1,.86.72l.06.12v.13a92.1,92.1,0,0,0,1.5,11.16C17.45,69.83,17.52,70.23,17.58,70.57Z" fill="#b1b1b1"/><rect x="12.94" y="50.81" width="68.42" height="6.28" fill="#fff"/><path d="M81.86,57.58H12.44V50.31H81.86Zm-68.42-1H80.86V51.31H13.44Z" fill="#969696"/><rect x="34" y="36.11" width="13.15" height="8.3" fill="#fff"/><path d="M47.77,45H33.38V35.48H47.77ZM34.63,43.78H46.52V36.73H34.63Z" fill="#b1b1b1"/><rect x="70.26" y="40.7" width="13.24" height="3.28" rx="1.56" transform="translate(-7.43 66.76) rotate(-45)" fill="#969696"/><rect x="75.43" y="43.89" width="1.57" height="7.06" fill="#969696"/><path d="M57.09,65.32s2.59-5.83,2.59-7-2.59-7-2.59-7l-4.91,4.23-1.14-1,4.31-5S49.52,47,48.37,47s-7,2.59-7,2.59l4.31,5-1,1.11-5.06-4.37s-2.59,5.82-2.59,7,2.59,7,2.59,7l5-4.32,1.07,1-4.34,5s5.83,2.6,7,2.6,7-2.6,7-2.6L51,62l1.14-1Z" fill="#fc3d3d"/><rect x="37.19" y="56.58" width="22.28" height="1" fill="#e32424"/><path d="M48.37,47c1.15,0,7,2.59,7,2.59l-4.31,5,1.14,1,4.91-4.23s2.59,5.82,2.59,7-2.59,7-2.59,7l-4.94-4.27L51,62l4.34,5s-5.83,2.6-7,2.6-7-2.6-7-2.6l4.34-5-1.07-1-5,4.32s-2.59-5.83-2.59-7,2.59-7,2.59-7l5.06,4.37,1-1.11-4.31-5s5.83-2.59,7-2.59m0-1c-1.24,0-5.59,1.87-7.39,2.68l-1.23.55.88,1,2.06,2.39L40.3,50.59l-1-.88-.55,1.23c-.8,1.81-2.68,6.15-2.68,7.39s1.88,5.58,2.68,7.39L39.28,67l1-.88L42.69,64,40.63,66.4l-.88,1L41,68c1.8.8,6.15,2.68,7.39,2.68S54,68.77,55.75,68L57,67.42l-.88-1L54,64l2.39,2.06,1,.88L58,65.72c.8-1.81,2.68-6.15,2.68-7.39S58.8,52.75,58,50.94l-.55-1.23-1,.88L54,52.66l2.07-2.39.88-1-1.24-.55C54,47.89,49.6,46,48.37,46Z" fill="#969696"/></svg>