<svg xmlns="http://www.w3.org/2000/svg" viewBox="0 0 100 100"><path d="M19.38,53.33c1.35-.47,4.69-1.45,5.44-1.72,0,0,6.89-8.86,8.11-8.86h6.41V66.26H19.85c-.41,0-2.33-.55-2.33-4.74V56.11a3.09,3.09,0,0,1,1.86-2.78" fill="#fff"/><path d="M40.09,67H19.85s-3.08-.06-3.08-5.49V56.11a3.85,3.85,0,0,1,2.36-3.49h0c.76-.26,2.14-.69,3.34-1,.78-.24,1.49-.46,1.9-.6C29,45,31.89,42,32.93,42h7.16ZM33,43.5c-.9.42-4.62,4.74-7.59,8.57l-.14.18-.21.07c-.34.12-1.19.38-2.16.68-1.18.36-2.54.78-3.28,1h0a2.33,2.33,0,0,0-1.36,2.07v5.41c0,3.75,1.58,4,1.6,4H38.59v-22Z" fill="#969696"/><path d="M35.89,52.37H24.82v-1.5H35.89c.63,0,.88-.19.9-.28v-4.3c0-.24,0-.42-.54-.42h-6v-1.5h6a1.84,1.84,0,0,1,2,1.92v4.32C38.28,51.22,37.78,52.37,35.89,52.37Z" fill="#969696"/><rect x="21.56" y="56.06" width="15.64" height="1.5" fill="#969696"/><path d="M34.94,39.73h0a1.12,1.12,0,0,1,1.12,1.12v1.9a0,0,0,0,1,0,0H33.82a0,0,0,0,1,0,0v-1.9A1.12,1.12,0,0,1,34.94,39.73Z" fill="#fff"/><path d="M36.81,43.5H33.07V40.85a1.87,1.87,0,1,1,3.74,0ZM34.57,42h.74V40.85a.36.36,0,0,0-.37-.37.37.37,0,0,0-.37.37Z" fill="#969696"/><rect x="26.36" y="47.29" width="5.86" height="1" transform="translate(-26.3 55) rotate(-65.89)" fill="#969696"/><rect x="26.43" y="48.83" width="2.01" height="5.83" rx="0.87" fill="#969696"/><path d="M17.52,62.27v-1.5c.48,0,1-1.33,1-3.56a.27.27,0,0,0,0-.17c-.05,0-.25-.22-.88-.18l-.05-.75,0-.75A2.75,2.75,0,0,1,19.5,56,1.71,1.71,0,0,1,20,57.21C20,59.1,19.67,62.27,17.52,62.27Zm0-6.16v0Z" fill="#969696"/><rect x="16.07" y="62.82" width="3.17" height="3.68" rx="0.74" fill="#fff"/><path d="M18.5,67H16.81a1.24,1.24,0,0,1-1.24-1.23V63.56a1.25,1.25,0,0,1,1.24-1.24H18.5a1.24,1.24,0,0,1,1.24,1.24v2.21A1.23,1.23,0,0,1,18.5,67Zm-1.69-3.68a.24.24,0,0,0-.24.24v2.21a.23.23,0,0,0,.24.23H18.5a.23.23,0,0,0,.24-.23V63.56a.24.24,0,0,0-.24-.24Z" fill="#969696"/><rect x="39.34" y="27.99" width="43.01" height="38.71" fill="#fff"/><path d="M83.09,67H38.59V27.24h44.5ZM40.09,66h41.5V28.74H40.09Z" fill="#969696"/><path d="M23.93,59.28h2.48a4.08,4.08,0,0,1,4.08,4.08v2.9a0,0,0,0,1,0,0H19.85a0,0,0,0,1,0,0v-2.9A4.08,4.08,0,0,1,23.93,59.28Z" fill="#969696"/><ellipse cx="25.12" cy="66.43" rx="4.85" ry="6.33" fill="#969696"/><ellipse cx="25.12" cy="66.7" rx="1.84" ry="2.4" fill="#fff"/><path d="M25.12,71.42c-2,0-3.7-2.12-3.7-4.72S23.08,62,25.12,62s3.71,2.12,3.71,4.72S27.17,71.42,25.12,71.42Zm0-8.69c-1.63,0-2.95,1.78-2.95,4s1.32,4,2.95,4,3-1.78,3-4S26.75,62.73,25.12,62.73Z" fill="#323232"/><path d="M66.77,59.28h2.48a4.08,4.08,0,0,1,4.08,4.08v2.9a0,0,0,0,1,0,0H62.69a0,0,0,0,1,0,0v-2.9A4.08,4.08,0,0,1,66.77,59.28Z" fill="#969696"/><ellipse cx="67.96" cy="66.43" rx="4.85" ry="6.33" fill="#969696"/><ellipse cx="67.96" cy="66.7" rx="1.84" ry="2.4" fill="#fff"/><path d="M68,71.42c-2,0-3.7-2.12-3.7-4.72S65.92,62,68,62s3.71,2.12,3.71,4.72S70,71.42,68,71.42Zm0-8.69c-1.63,0-2.95,1.78-2.95,4s1.32,4,2.95,4,3-1.78,3-4S69.59,62.73,68,62.73Z" fill="#323232"/><rect x="80.22" y="63.12" width="3.71" height="3.58" rx="0.79" fill="#fff"/><path d="M83.14,67.2H81a1.29,1.29,0,0,1-1.29-1.29v-2A1.29,1.29,0,0,1,81,62.62h2.13a1.29,1.29,0,0,1,1.29,1.29v2A1.29,1.29,0,0,1,83.14,67.2ZM81,63.62a.29.29,0,0,0-.29.29v2a.29.29,0,0,0,.29.29h2.13a.29.29,0,0,0,.29-.29v-2a.29.29,0,0,0-.29-.29Z" fill="#969696"/><ellipse cx="42.21" cy="32.11" rx="1.07" ry="1.5" fill="#fff"/><path d="M42.21,34.12a1.81,1.81,0,0,1-1.57-2,1.81,1.81,0,0,1,1.57-2,1.81,1.81,0,0,1,1.58,2A1.81,1.81,0,0,1,42.21,34.12Zm0-3c-.27,0-.57.43-.57,1s.3,1,.57,1,.58-.43.58-1S42.48,31.11,42.21,31.11Z" fill="#969696"/><ellipse cx="79.54" cy="32.11" rx="1.07" ry="1.5" fill="#fff"/><path d="M79.54,34.12a1.81,1.81,0,0,1-1.57-2,1.62,1.62,0,1,1,3.15,0A1.81,1.81,0,0,1,79.54,34.12Zm0-3c-.27,0-.57.43-.57,1s.3,1,.57,1,.58-.43.58-1S79.82,31.11,79.54,31.11Z" fill="#969696"/><path d="M53.49,57.61a15.44,15.44,0,0,1-.19-24.33l1.21,1.59A13.45,13.45,0,0,0,54.68,56Z"/><path d="M53.54,58l-.2-.14a15.69,15.69,0,0,1-.2-24.73l.2-.16,1.52,2-.19.15a13.19,13.19,0,0,0,.16,20.74L55,56Zm-.29-24.32a15.19,15.19,0,0,0,.19,23.62l.89-1.2a13.7,13.7,0,0,1-.16-21.23Z" fill="#969696"/><path d="M55.74,53.36a10.05,10.05,0,0,1-.12-15.82l.79,1a8.75,8.75,0,0,0,.11,13.75Z"/><path d="M55.8,53.71l-.2-.15a10.29,10.29,0,0,1-.13-16.22l.2-.15,1.09,1.43-.2.15a8.49,8.49,0,0,0,.11,13.34l.2.15Zm-.22-15.82A9.82,9.82,0,0,0,55.69,53l.48-.65a9,9,0,0,1-.11-13.83Z" fill="#969696"/><path d="M57.9,50.23a6.08,6.08,0,0,1-.07-9.56l.48.62a5.28,5.28,0,0,0,.06,8.31Z"/><path d="M58,50.58l-.2-.15a6.32,6.32,0,0,1-.08-10l.2-.15.78,1-.2.15a5,5,0,0,0,.06,7.91l.2.15ZM57.79,41a5.83,5.83,0,0,0,.07,8.85l.17-.23a5.54,5.54,0,0,1-.07-8.4Z" fill="#969696"/><path d="M59.56,47.84a3,3,0,0,1,0-4.78l.24.31a2.62,2.62,0,0,0-1,2.07,2.58,2.58,0,0,0,1,2.08Z"/><path d="M59.61,48.19l-.2-.15a3.22,3.22,0,0,1-1.29-2.6,3.26,3.26,0,0,1,1.25-2.58l.2-.15.54.71-.2.15a2.37,2.37,0,0,0-.9,1.87,2.33,2.33,0,0,0,.93,1.88l.2.15Z" fill="#969696"/><path d="M69.41,57.61a15.44,15.44,0,0,0,.2-24.33l-1.22,1.59A13.46,13.46,0,0,1,68.23,56Z"/><path d="M69.36,58l-1.48-2,.2-.14a13.21,13.21,0,0,0,.16-20.74l-.2-.15,1.52-2,.2.16a15.69,15.69,0,0,1-.2,24.73Zm-.79-1.9.89,1.2a15.19,15.19,0,0,0,.19-23.62l-.91,1.19a13.71,13.71,0,0,1-.17,21.23Z" fill="#969696"/><path d="M67.16,53.36a10,10,0,0,0,.12-15.82l-.79,1a8.75,8.75,0,0,1-.1,13.75Z"/><path d="M67.11,53.71,66,52.26l.2-.15a8.49,8.49,0,0,0,.1-13.34l-.2-.15,1.1-1.43.2.15a10.29,10.29,0,0,1-.13,16.22Zm-.38-1.35.48.65a9.81,9.81,0,0,0,.12-15.12l-.49.64a9,9,0,0,1-.11,13.83Z" fill="#969696"/><path d="M65,50.23a6.08,6.08,0,0,0,.07-9.56l-.48.62a5.28,5.28,0,0,1-.06,8.31Z"/><path d="M65,50.58l-.77-1,.2-.15a5,5,0,0,0,.06-7.91l-.2-.15.79-1,.2.15a6.33,6.33,0,0,1-.08,10Zm-.07-.94.17.24A5.85,5.85,0,0,0,65.12,41l-.18.22a5.54,5.54,0,0,1-.06,8.39Z" fill="#969696"/><path d="M63.35,47.84a3,3,0,0,0,0-4.78l-.23.31a2.62,2.62,0,0,1,1,2.07,2.59,2.59,0,0,1-1,2.08Z"/><path d="M63.29,48.19l-.53-.72.2-.15a2.33,2.33,0,0,0,.93-1.88,2.37,2.37,0,0,0-.9-1.87l-.2-.15.55-.71.2.15a3.29,3.29,0,0,1,0,5.18Z" fill="#969696"/><path d="M62.24,45.45a.8.8,0,1,0-1.6,0,.79.79,0,0,0,.1.37V59.08h1.4V45.82A.93.93,0,0,0,62.24,45.45Z"/><path d="M62.39,59.33h-1.9V45.88a1,1,0,0,1-.1-.43,1.05,1.05,0,1,1,2.1,0,1.17,1.17,0,0,1-.1.43Zm-1.4-.5h.9l0-13.13a.52.52,0,0,0,.08-.25.55.55,0,0,0-1.1,0,.5.5,0,0,0,.07.25l0,.12Z" fill="#969696"/></svg>