<svg xmlns="http://www.w3.org/2000/svg" viewBox="0 0 100 100"><path d="M76.14,60a.49.49,0,0,1-.46.35L21,61.17c-.4,0,2-3.48,2.48-4.6s3.35-1.63,4.95-1.63,9.43-.4,10.08-.36v-.75H36.62a.91.91,0,0,1-.91-.91h-.88v.75h-.56V51.06h.54v.64h.87s.15-.83.83-.83h2.06s0-.32.31-.32h5.3c.38,0,1.47,2.12,1.8,2.12s5.49.53,15.4,2.27S74.69,57.22,75,57.13s6-13.29,6-13.29-.89-.06-.89-.68,3.06-.68,3.06,0-.92.71-.92.71-4.38,13.89-4.75,14.3A6,6,0,0,0,76.14,60Z" fill="#424242"/><rect x="35.57" y="60.33" width="14.72" height="11.67" fill="#424242"/><path d="M24.18,73H28V60.33H21.59s-1.45.11-1.45,6.16C20.14,69,23.26,73,24.18,73Z" fill="#424242"/><polygon points="81.85 59.82 80.52 59.82 82.19 31.85 83.18 31.85 81.85 59.82" fill="#424242"/><polygon points="74.62 45.58 74.96 43.66 81.64 45.84 88.64 46.6 88.64 49.26 81.3 46.91 74.62 45.58" fill="#424242"/><ellipse cx="47.39" cy="52" rx="0.56" ry="1.36" fill="#424242"/><ellipse cx="45.57" cy="77.32" rx="0.87" ry="1.8" fill="#424242"/><ellipse cx="24.48" cy="77.32" rx="0.87" ry="1.8" fill="#424242"/><rect x="45.2" y="72" width="0.85" height="4.02" fill="#424242"/><rect x="23.92" y="72.89" width="0.89" height="3.14" fill="#424242"/><line x1="22.95" y1="71.53" x2="13.05" y2="74.59" fill="none" stroke="#424242" stroke-miterlimit="10"/><path d="M36,68.07C35.16,69.2,30.47,73,29.88,74s-.78,3.83,1.88,3.83H43.52" fill="none" stroke="#424242" stroke-miterlimit="10"/><ellipse cx="43.6" cy="77.84" rx="0.39" ry="1.23" fill="#424242"/><ellipse cx="43.37" cy="49.45" rx="1.36" ry="0.37" fill="#424242"/><rect x="42.99" y="48.19" width="0.76" height="2.67" fill="#424242"/><path d="M11.36,50.18c2.13-.2,22.55-2.25,32-2.25S70.21,49,73.87,50.36" fill="none" stroke="#424242" stroke-linecap="round" stroke-miterlimit="10"/><path d="M46.05,44.46c-2.75,0-8-.14-6.72-6,.12-.38.41,1,1.56,1s.79-2.57.43-3.36a8.07,8.07,0,0,1-1-3.13,3.39,3.39,0,0,1,3.19-3.23c.35,0-.73,3.34,1.38,3.34,1.15-.06,1.31-2.19,1.31-2.9s-2-1.69-1.31-5.24c.05-.29,4.5,3.25,4.5,4.51s.12,1.64.27,1.64a7.11,7.11,0,0,0,2-1.46c.2-.41,1.05,1.17.35,2.75s-1.46,1.93-1.41,2.58c0,.29,2-1.46,4-.25.32.3-1.89,1.85-1.92,2.43S53.48,44.46,46.05,44.46Z" fill="#424242"/><path d="M40.21,30.43c-.65-.72-1.32-.67-1.32-2.9,0-1,2-3,2-4.38,0-.39,1.43,1.48,1.43,2.88S40.21,30.43,40.21,30.43Z" fill="#424242"/><path d="M50.25,21c0-.58-2.09,2.14-1.82,3.94s2.18,2.05,2.18,3.18c0,.35,1-1.13,1-2.35S50.25,21.73,50.25,21Z" fill="#424242"/></svg>