<?xml version="1.0" encoding="iso-8859-1"?>
<!-- Generator: Adobe Illustrator 25.4.1, SVG Export Plug-In . SVG Version: 6.00 Build 0)  -->
<svg version="1.1" id="Layer_1" xmlns="http://www.w3.org/2000/svg" xmlns:xlink="http://www.w3.org/1999/xlink" x="0px" y="0px"
	 viewBox="0 0 100 100" style="enable-background:new 0 0 100 100;" xml:space="preserve">
<polygon style="fill:#CCCCCC;" points="41.4,21.42 45.585,21.42 49.77,21.42 53.955,21.42 58.14,21.42 58.14,35.87 58.14,50.32 
	58.14,64.77 58.14,79.22 53.955,79.22 49.77,79.22 45.585,79.22 41.4,79.22 41.4,64.77 41.4,50.32 41.4,35.87 "/>
<polygon style="fill:#CCCCCC;" points="20.87,58.69 20.87,54.505 20.87,50.32 20.87,46.135 20.87,41.95 35.32,41.95 49.77,41.95 
	64.22,41.95 78.67,41.95 78.67,46.135 78.67,50.32 78.67,54.505 78.67,58.69 64.22,58.69 49.77,58.69 35.32,58.69 "/>
<path style="fill:#4D4D4D;" d="M42.38,68c-0.053-0.001-0.104-0.011-0.152-0.029c-0.048-0.018-0.092-0.043-0.13-0.075
	s-0.072-0.07-0.099-0.113s-0.047-0.091-0.059-0.143c-0.04-0.145-0.059-0.293-0.058-0.439s0.022-0.291,0.062-0.431
	s0.098-0.273,0.175-0.398s0.171-0.24,0.281-0.342c0.13-0.103,0.239-0.19,0.33-0.269c0.091-0.079,0.164-0.148,0.22-0.215
	s0.096-0.131,0.122-0.198c0.026-0.067,0.038-0.138,0.038-0.218c0-0.027,0-0.066,0-0.114c0-0.048,0-0.105,0-0.17s0-0.139,0-0.221
	s0-0.17,0-0.265c0-0.265,0.005-0.639,0.01-1.057c0.006-0.417,0.012-0.878,0.016-1.314c0.005-0.437,0.007-0.85,0.003-1.174
	c-0.003-0.324-0.012-0.557-0.029-0.635c0-0.018-0.007-0.049-0.019-0.092c-0.012-0.043-0.029-0.099-0.05-0.165
	c-0.021-0.067-0.045-0.144-0.07-0.23c-0.026-0.086-0.053-0.181-0.081-0.284c-0.07-0.25-0.167-0.592-0.277-0.97
	c-0.11-0.377-0.231-0.79-0.35-1.18c-0.118-0.39-0.234-0.757-0.332-1.045c-0.097-0.287-0.176-0.495-0.221-0.565l-0.1-0.083
	l-0.1-0.083l-0.1-0.083l-0.1-0.083c-0.327-0.25-0.789-0.612-1.298-1.054c-0.509-0.442-1.064-0.963-1.578-1.532
	c-0.514-0.569-0.988-1.187-1.333-1.82S36.54,49.632,36.54,49c0.037-0.711,0.096-1.419,0.175-2.125
	c0.08-0.706,0.18-1.409,0.302-2.109c0.122-0.7,0.265-1.396,0.429-2.087S37.795,41.301,38,40.62h-0.61h-0.61h-0.61h-0.61
	c-0.157-0.026-0.312-0.063-0.463-0.113c-0.15-0.05-0.296-0.111-0.436-0.184s-0.274-0.156-0.402-0.25
	c-0.127-0.094-0.248-0.199-0.36-0.313c-0.089-0.083-0.167-0.174-0.235-0.271c-0.068-0.098-0.125-0.202-0.17-0.311
	c-0.045-0.109-0.078-0.223-0.1-0.34s-0.03-0.237-0.025-0.358c0-0.073,0.018-0.132,0.058-0.186s0.105-0.102,0.198-0.15
	s0.215-0.096,0.372-0.152s0.349-0.117,0.582-0.192c0.138-0.035,0.273-0.074,0.408-0.118s0.267-0.092,0.398-0.145
	c0.131-0.052,0.26-0.11,0.388-0.171c0.127-0.061,0.253-0.127,0.376-0.196c0,0,0.116-0.158,0.307-0.403
	c0.191-0.244,0.459-0.576,0.762-0.922c0.303-0.346,0.642-0.706,0.977-1.009c0.335-0.303,0.666-0.549,0.954-0.667
	c-0.007-0.162,0-0.323,0.018-0.482c0.018-0.16,0.048-0.317,0.09-0.472s0.096-0.306,0.161-0.452c0.065-0.146,0.143-0.288,0.23-0.424
	c0.036-0.038,0.075-0.072,0.117-0.101c0.042-0.029,0.087-0.054,0.134-0.075c0.047-0.021,0.096-0.036,0.146-0.047
	c0.05-0.011,0.101-0.016,0.153-0.017c0.095,0,0.166,0.023,0.22,0.075s0.089,0.132,0.113,0.247s0.036,0.264,0.042,0.454
	c0.006,0.19,0.006,0.419,0.006,0.694c0,0.048,0,0.098,0,0.149c0,0.051,0,0.104,0,0.155s0,0.1,0,0.145s0,0.086,0,0.121
	c0.135,0.1,0.366,0.287,0.655,0.582c0.288,0.295,0.634,0.697,0.998,1.228s0.746,1.191,1.107,2.001s0.701,1.769,0.981,2.899
	c0.027,0.228,0.049,0.455,0.067,0.683s0.031,0.456,0.04,0.685s0.012,0.457,0.011,0.686s-0.007,0.458-0.018,0.686l0.08,0.048
	l0.08,0.048l0.08,0.048l0.08,0.048c0.463,0.293,0.934,0.574,1.412,0.84c0.478,0.266,0.964,0.519,1.457,0.757
	s0.992,0.463,1.497,0.674c0.505,0.211,1.017,0.407,1.534,0.589c0.339,0.071,0.679,0.132,1.02,0.184
	c0.342,0.051,0.685,0.093,1.029,0.124s0.689,0.053,1.034,0.065s0.691,0.014,1.037,0.007c0.165,0,0.325,0,0.477,0
	c0.152,0,0.297,0,0.433,0s0.264,0,0.381,0c0.117,0,0.224,0,0.319,0h0.108h0.107h0.106H56.8c0.464-0.172,0.916-0.37,1.355-0.594
	c0.439-0.223,0.864-0.471,1.273-0.743c0.41-0.272,0.803-0.567,1.179-0.885s0.734-0.657,1.073-1.018
	c0.157-0.202,0.329-0.435,0.508-0.685c0.179-0.25,0.365-0.518,0.553-0.793s0.378-0.557,0.563-0.834s0.366-0.55,0.536-0.808
	c0.325-0.487,0.573-0.856,0.764-1.135c0.192-0.279,0.329-0.468,0.432-0.596s0.173-0.195,0.231-0.23
	c0.058-0.035,0.105-0.039,0.163-0.039s0.141,0.026,0.234,0.079c0.093,0.053,0.196,0.134,0.292,0.242s0.184,0.244,0.249,0.409
	c0.065,0.165,0.105,0.358,0.105,0.58c0,0.015,0,0.03,0,0.047c0,0.016,0,0.032,0,0.049s0,0.034,0,0.052c0,0.017,0,0.035,0,0.052
	c0,0.23,0.007,0.536-0.026,0.905c-0.034,0.368-0.109,0.799-0.275,1.277c-0.165,0.479-0.422,1.006-0.817,1.567
	c-0.395,0.561-0.93,1.156-1.652,1.771l-0.158,0.132l-0.157,0.132l-0.157,0.133L62.91,46.22c-0.548,0.47-0.989,0.849-1.367,1.154
	c-0.378,0.305-0.692,0.536-0.984,0.708c-0.292,0.173-0.562,0.287-0.851,0.36c-0.289,0.072-0.598,0.103-0.968,0.107
	c0.288,0.445,0.538,0.91,0.749,1.391c0.211,0.481,0.382,0.977,0.513,1.483c0.131,0.507,0.221,1.024,0.27,1.546
	c0.048,0.523,0.055,1.051,0.018,1.58c0.179,0.47,0.388,0.925,0.625,1.363s0.503,0.861,0.796,1.264
	c0.292,0.403,0.612,0.786,0.956,1.147s0.712,0.701,1.103,1.015l0,0l0,0l0,0l0,0l0,0l0,0l0,0l0,0
	c0.118,0.175,0.206,0.627,0.262,1.228c0.057,0.601,0.082,1.35,0.074,2.119c-0.008,0.77-0.049,1.561-0.126,2.244
	s-0.19,1.259-0.34,1.599c-0.017,0.057-0.042,0.111-0.074,0.16s-0.068,0.095-0.11,0.135c-0.042,0.039-0.09,0.074-0.141,0.102
	c-0.051,0.028-0.107,0.049-0.165,0.063h-0.403h-0.403h-0.403H61.54l-0.025-0.068l-0.025-0.067l-0.025-0.067l-0.025-0.068
	c0.007-0.174,0.036-0.344,0.088-0.506s0.123-0.316,0.214-0.457c0.09-0.141,0.2-0.271,0.325-0.385
	c0.125-0.114,0.267-0.213,0.423-0.292v-0.897v-0.897v-0.897V61.49c-0.11-0.152-0.223-0.3-0.34-0.446
	c-0.117-0.146-0.238-0.288-0.362-0.427c-0.125-0.139-0.253-0.276-0.384-0.409c-0.131-0.133-0.266-0.262-0.404-0.388v1.403v1.403
	v1.402v1.403h-0.583h-0.583h-0.583H58.67v-0.085V65.26v-0.085V65.09c0.028-0.151,0.071-0.296,0.129-0.435
	c0.058-0.139,0.13-0.27,0.215-0.393s0.183-0.236,0.293-0.339s0.231-0.194,0.363-0.273v-0.805V62.04v-0.805V60.43
	c-0.2-0.227-0.405-0.447-0.617-0.662c-0.212-0.215-0.429-0.424-0.651-0.626c-0.223-0.203-0.451-0.4-0.685-0.59
	C57.483,58.361,57.244,58.177,57,58c-0.17-0.065-0.432-0.175-0.732-0.337c-0.3-0.161-0.638-0.372-0.959-0.639
	c-0.322-0.267-0.628-0.589-0.864-0.972S54.042,55.228,54,54.72l-0.07-0.025l-0.07-0.025l-0.07-0.025l-0.07-0.025
	c-0.266-0.104-0.536-0.196-0.81-0.275s-0.551-0.144-0.83-0.195c-0.279-0.052-0.562-0.09-0.845-0.116
	C50.951,54.01,50.666,53.998,50.38,54c-0.243,0-0.487,0.007-0.73,0.022c-0.243,0.015-0.485,0.037-0.726,0.067
	s-0.481,0.068-0.72,0.113S47.727,54.3,47.49,54.36c-0.2,0.052-0.4,0.098-0.602,0.139c-0.202,0.041-0.404,0.076-0.608,0.105
	c-0.203,0.029-0.408,0.053-0.613,0.07c-0.205,0.018-0.411,0.03-0.617,0.036c0,0.25-0.006,0.638-0.015,1.125
	c-0.009,0.487-0.023,1.072-0.038,1.717c-0.015,0.645-0.032,1.349-0.049,2.074c-0.017,0.724-0.034,1.469-0.048,2.194
	c0.03,0.18,0.054,0.333,0.074,0.463c0.02,0.13,0.035,0.238,0.047,0.328s0.021,0.164,0.027,0.225c0.006,0.062,0.01,0.111,0.012,0.154
	c0.034,0.043,0.064,0.09,0.09,0.138c0.026,0.048,0.048,0.098,0.066,0.15c0.018,0.051,0.031,0.104,0.04,0.158
	c0.009,0.054,0.014,0.109,0.014,0.164c0,0.082-0.01,0.162-0.03,0.24s-0.048,0.152-0.084,0.223c-0.037,0.071-0.082,0.136-0.135,0.197
	c-0.053,0.06-0.113,0.114-0.181,0.16c-0.015,0.605-0.027,1.062-0.036,1.407c-0.009,0.346-0.016,0.58-0.021,0.74
	c-0.005,0.16-0.008,0.246-0.01,0.294c-0.002,0.048-0.003,0.059-0.003,0.069c-0.013,0.103-0.058,0.22-0.146,0.34
	c-0.088,0.119-0.219,0.24-0.404,0.349c-0.185,0.108-0.424,0.203-0.727,0.271C43.19,67.959,42.823,68,42.38,68z"/>
<path style="fill:#FFFFFF;" d="M40.17,32.44c0.037,0,0.056,0.116,0.065,0.291c0.009,0.175,0.008,0.409,0.006,0.645
	s-0.005,0.473,0,0.654c0.005,0.181,0.018,0.307,0.049,0.32s0.201,0.122,0.459,0.357c0.258,0.235,0.604,0.596,0.984,1.112
	s0.795,1.186,1.19,2.04C43.319,38.713,43.695,39.75,44,41c0.029,0.236,0.053,0.472,0.072,0.708c0.018,0.236,0.031,0.473,0.037,0.71
	s0.007,0.474,0.003,0.711c-0.005,0.237-0.015,0.474-0.032,0.711c0.05,0.017,0.334,0.188,0.767,0.442s1.018,0.593,1.668,0.947
	c0.65,0.354,1.366,0.725,2.065,1.043c0.699,0.318,1.38,0.583,1.96,0.728c0.344,0.074,0.69,0.138,1.037,0.191
	c0.347,0.054,0.696,0.097,1.046,0.131c0.35,0.034,0.701,0.057,1.052,0.07c0.351,0.013,0.703,0.016,1.055,0.008
	c0.25,0,0.487,0,0.705,0s0.417,0,0.591,0s0.324,0,0.444,0s0.208,0,0.26,0c0.494-0.17,0.976-0.372,1.443-0.601
	s0.918-0.489,1.351-0.775c0.434-0.285,0.849-0.598,1.244-0.936s0.77-0.701,1.122-1.088c0.32-0.408,0.688-0.924,1.062-1.469
	c0.374-0.545,0.756-1.119,1.103-1.642s0.661-0.995,0.901-1.337C65.195,39.211,65.36,39,65.41,39s0.112,0.019,0.176,0.058
	c0.065,0.039,0.132,0.098,0.194,0.179c0.061,0.082,0.116,0.185,0.156,0.311S66,39.825,66,40s0.024,0.444,0.013,0.789
	c-0.011,0.345-0.058,0.767-0.199,1.247c-0.142,0.48-0.379,1.02-0.772,1.602s-0.94,1.205-1.702,1.852
	c-0.698,0.595-1.243,1.067-1.693,1.441s-0.805,0.65-1.122,0.851c-0.318,0.201-0.597,0.328-0.897,0.405s-0.62,0.102-1.018,0.102
	h-0.118h-0.118h-0.118H58.14c0.198,0.25,0.412,0.538,0.622,0.887c0.21,0.349,0.417,0.758,0.599,1.251s0.339,1.068,0.451,1.749
	c0.112,0.681,0.178,1.468,0.178,2.383c0.175,0.493,0.384,0.971,0.625,1.431s0.513,0.903,0.815,1.324s0.634,0.821,0.993,1.196
	c0.359,0.375,0.746,0.726,1.157,1.049c0.11,0.162,0.19,0.686,0.236,1.381c0.046,0.695,0.057,1.562,0.029,2.413
	c-0.028,0.85-0.096,1.684-0.208,2.313s-0.27,1.053-0.478,1.083h-0.347h-0.347h-0.347H61.77c-0.042,0-0.064-0.058-0.056-0.152
	c0.008-0.095,0.044-0.226,0.117-0.374s0.183-0.313,0.337-0.474c0.154-0.161,0.352-0.318,0.602-0.45v-0.952v-0.952v-0.952V61.49
	c-0.145-0.219-0.297-0.431-0.458-0.637c-0.161-0.206-0.33-0.405-0.506-0.597s-0.361-0.378-0.552-0.556
	c-0.191-0.178-0.389-0.348-0.594-0.51v1.5v1.5v1.5v1.5h-0.415H59.83h-0.415H59c-0.045,0-0.042-0.079-0.004-0.198
	c0.039-0.119,0.113-0.278,0.212-0.437c0.098-0.159,0.222-0.317,0.357-0.436C59.701,63.999,59.85,63.92,60,63.92v-0.9v-0.9v-0.9v-0.9
	c-0.209-0.241-0.424-0.477-0.646-0.706c-0.221-0.23-0.449-0.454-0.681-0.672c-0.233-0.218-0.472-0.43-0.715-0.635
	s-0.493-0.404-0.748-0.597c-0.158-0.062-0.412-0.17-0.705-0.328c-0.293-0.158-0.624-0.366-0.936-0.63s-0.604-0.583-0.818-0.963
	c-0.214-0.38-0.351-0.821-0.351-1.329c-0.315-0.119-0.636-0.223-0.96-0.313c-0.324-0.09-0.652-0.164-0.982-0.224
	c-0.33-0.059-0.664-0.104-0.999-0.133c-0.335-0.029-0.672-0.042-1.009-0.04c-0.673,0-1.208,0.044-1.67,0.111
	c-0.462,0.067-0.852,0.155-1.234,0.244s-0.756,0.178-1.187,0.244c-0.431,0.066-0.919,0.111-1.529,0.111c0,0-0.005,0.246-0.014,0.67
	c-0.009,0.424-0.021,1.024-0.036,1.733c-0.015,0.708-0.032,1.525-0.051,2.381c-0.019,0.856-0.039,1.751-0.059,2.617
	c0.022,0.104,0.042,0.208,0.059,0.313c0.017,0.104,0.033,0.209,0.046,0.314s0.024,0.21,0.034,0.316
	c0.009,0.105,0.016,0.211,0.021,0.317l0,0l0,0l0,0l0,0c0.037,0.033,0.07,0.07,0.099,0.109c0.029,0.04,0.053,0.082,0.072,0.126
	c0.02,0.044,0.035,0.091,0.045,0.139c0.01,0.048,0.015,0.097,0.014,0.146c0.004,0.07-0.004,0.139-0.022,0.203
	c-0.018,0.065-0.046,0.126-0.083,0.182c-0.037,0.055-0.083,0.105-0.136,0.146s-0.113,0.075-0.179,0.099
	c0,0.377-0.004,0.729-0.009,1.044s-0.014,0.595-0.021,0.83s-0.016,0.423-0.024,0.557c-0.007,0.134-0.013,0.213-0.015,0.228
	s-0.033,0.074-0.102,0.153c-0.069,0.08-0.178,0.181-0.337,0.28c-0.16,0.099-0.37,0.195-0.643,0.267
	c-0.273,0.072-0.608,0.12-1.018,0.12c-0.073,0-0.128-0.062-0.163-0.163c-0.035-0.101-0.048-0.24-0.037-0.393s0.047-0.32,0.113-0.477
	c0.065-0.157,0.16-0.304,0.287-0.417s0.243-0.209,0.343-0.299s0.187-0.172,0.258-0.255c0.07-0.083,0.125-0.167,0.162-0.26
	c0.037-0.093,0.057-0.196,0.057-0.316s0.007-0.473,0.016-0.94c0.009-0.467,0.019-1.048,0.025-1.624
	c0.007-0.576,0.01-1.146,0.005-1.591s-0.019-0.767-0.046-0.845s-0.121-0.388-0.25-0.816c-0.129-0.427-0.292-0.971-0.458-1.514
	s-0.336-1.087-0.477-1.515c-0.141-0.427-0.253-0.738-0.306-0.816s-0.397-0.343-0.886-0.741c-0.488-0.398-1.119-0.931-1.743-1.542
	c-0.625-0.611-1.242-1.302-1.704-2.018s-0.767-1.458-0.767-2.17c0.035-0.741,0.096-1.48,0.181-2.216s0.197-1.468,0.333-2.195
	s0.297-1.45,0.483-2.167c0.186-0.717,0.397-1.428,0.633-2.132h-0.743h-0.743h-0.743H35.56c-0.065,0-0.219-0.036-0.412-0.11
	c-0.193-0.074-0.426-0.186-0.65-0.338c-0.224-0.15-0.438-0.341-0.595-0.572c-0.156-0.231-0.253-0.504-0.243-0.819
	c0-0.05,0.154-0.121,0.389-0.205s0.551-0.183,0.876-0.288s0.659-0.217,0.929-0.329c0.27-0.112,0.476-0.224,0.546-0.329
	s0.244-0.338,0.479-0.629c0.234-0.291,0.528-0.639,0.837-0.974c0.31-0.335,0.634-0.657,0.93-0.895
	c0.296-0.238,0.562-0.392,0.754-0.392c0,0,0-0.125,0.012-0.312s0.036-0.438,0.083-0.688s0.119-0.5,0.226-0.688
	c0.107-0.188,0.249-0.312,0.439-0.312 M40.16,31.86c-0.072-0.001-0.144,0.005-0.214,0.019c-0.07,0.014-0.137,0.036-0.202,0.064
	c-0.065,0.028-0.127,0.063-0.184,0.104c-0.058,0.041-0.111,0.089-0.16,0.143c-0.094,0.132-0.177,0.271-0.249,0.415
	c-0.071,0.144-0.132,0.293-0.18,0.445s-0.084,0.309-0.108,0.468c-0.024,0.159-0.035,0.32-0.034,0.482
	c-0.284,0.205-0.557,0.422-0.821,0.651c-0.263,0.229-0.516,0.469-0.758,0.72s-0.473,0.513-0.692,0.785S36.134,36.709,35.94,37
	c-0.117,0.055-0.235,0.107-0.354,0.158c-0.119,0.05-0.239,0.097-0.36,0.142s-0.243,0.087-0.365,0.127
	c-0.123,0.04-0.246,0.077-0.371,0.113c-0.25,0.083-0.462,0.152-0.641,0.218s-0.323,0.129-0.436,0.199
	c-0.114,0.07-0.197,0.147-0.253,0.241s-0.084,0.204-0.089,0.342c0.001,0.138,0.015,0.273,0.043,0.406s0.068,0.262,0.121,0.386
	c0.053,0.124,0.118,0.243,0.194,0.355c0.076,0.112,0.164,0.217,0.262,0.313c0.126,0.128,0.262,0.243,0.405,0.347
	c0.144,0.104,0.295,0.196,0.453,0.276s0.322,0.146,0.491,0.199c0.169,0.053,0.343,0.092,0.521,0.118h0.515h0.515h0.515h0.515
	c-0.184,0.658-0.351,1.32-0.5,1.986c-0.149,0.666-0.28,1.336-0.394,2.008s-0.209,1.348-0.287,2.026
	c-0.078,0.678-0.138,1.358-0.179,2.04c0,0.667,0.221,1.344,0.574,2.001c0.353,0.656,0.837,1.292,1.362,1.878
	c0.525,0.585,1.093,1.121,1.612,1.576c0.519,0.455,0.99,0.83,1.322,1.095l0.09,0.073l0.09,0.072l0.09,0.072l0.09,0.073
	c0.052,0.11,0.133,0.338,0.228,0.631c0.095,0.293,0.205,0.652,0.317,1.025s0.224,0.76,0.324,1.11s0.188,0.662,0.251,0.884
	c0.028,0.093,0.053,0.179,0.077,0.259c0.023,0.08,0.045,0.154,0.063,0.22c0.019,0.065,0.035,0.123,0.049,0.172
	c0.013,0.049,0.024,0.089,0.031,0.119c0.017,0.103,0.026,0.346,0.029,0.67c0.003,0.324,0.001,0.728-0.003,1.15
	s-0.011,0.864-0.016,1.263c-0.005,0.399-0.01,0.755-0.01,1.007c0,0.097,0,0.188,0,0.271c0,0.083,0,0.158,0,0.224
	c0,0.066,0,0.124,0,0.172s0,0.086,0,0.113s-0.006,0.059-0.022,0.096c-0.016,0.037-0.043,0.081-0.086,0.134
	c-0.042,0.052-0.1,0.114-0.179,0.186c-0.079,0.072-0.178,0.156-0.303,0.254c-0.136,0.121-0.251,0.26-0.345,0.41
	c-0.094,0.15-0.165,0.311-0.214,0.479c-0.049,0.169-0.074,0.343-0.074,0.52s0.023,0.355,0.073,0.531
	c0.023,0.08,0.059,0.155,0.105,0.222c0.046,0.067,0.102,0.125,0.165,0.174c0.063,0.049,0.134,0.089,0.21,0.117
	s0.157,0.044,0.24,0.048c0.5,0,0.913-0.052,1.253-0.139c0.34-0.086,0.606-0.207,0.811-0.342s0.351-0.286,0.449-0.434
	s0.149-0.292,0.167-0.415c0-0.012,0-0.026,0.001-0.074s0.003-0.132,0.008-0.286c0.004-0.154,0.011-0.378,0.021-0.706
	s0.023-0.761,0.04-1.334c0.072-0.063,0.136-0.133,0.191-0.209s0.101-0.157,0.138-0.242c0.037-0.086,0.064-0.175,0.081-0.267
	c0.017-0.092,0.024-0.186,0.02-0.282c0-0.063-0.006-0.126-0.015-0.188s-0.024-0.123-0.042-0.182
	c-0.019-0.06-0.042-0.118-0.069-0.175c-0.027-0.057-0.058-0.111-0.093-0.164c0-0.048-0.003-0.103-0.009-0.169
	c-0.006-0.066-0.015-0.143-0.028-0.234c-0.013-0.09-0.028-0.193-0.047-0.312c-0.019-0.119-0.041-0.253-0.066-0.405
	c0.015-0.662,0.03-1.342,0.044-2.009s0.028-1.318,0.042-1.925s0.025-1.168,0.036-1.653c0.011-0.485,0.02-0.893,0.028-1.193
	c0.188-0.009,0.375-0.023,0.561-0.042c0.187-0.019,0.372-0.042,0.558-0.071c0.185-0.028,0.369-0.062,0.553-0.099
	s0.366-0.08,0.548-0.128c0.23-0.06,0.462-0.112,0.695-0.157c0.233-0.044,0.468-0.081,0.704-0.11s0.472-0.05,0.709-0.064
	c0.237-0.014,0.475-0.02,0.712-0.019c0.28-0.011,0.561-0.008,0.84,0.01s0.557,0.049,0.832,0.093
	c0.275,0.045,0.549,0.104,0.819,0.177s0.537,0.16,0.799,0.26h0.028h0.028h0.027H53.8c0.07,0.517,0.258,0.968,0.512,1.357
	c0.254,0.389,0.573,0.716,0.905,0.987s0.678,0.485,0.985,0.647c0.306,0.162,0.573,0.273,0.748,0.338
	c0.221,0.171,0.437,0.347,0.648,0.528c0.211,0.182,0.418,0.369,0.62,0.561c0.202,0.192,0.399,0.389,0.591,0.591
	c0.192,0.202,0.379,0.409,0.561,0.62v0.73v0.73v0.73v0.73c-0.133,0.096-0.255,0.204-0.365,0.323
	c-0.11,0.118-0.208,0.247-0.293,0.384c-0.085,0.137-0.157,0.282-0.214,0.433c-0.057,0.151-0.1,0.308-0.128,0.47v0.04v0.04v0.04v0.04
	l0.022,0.045l0.022,0.045l0.022,0.045l0.022,0.045l0.04,0.073l0.04,0.072l0.04,0.072l0.04,0.073h0.092h0.093h0.093h0.092h0.573
	h0.572h0.572h0.573v-1.27v-1.27v-1.27v-1.27c0.085,0.083,0.168,0.167,0.25,0.254c0.082,0.086,0.162,0.174,0.241,0.263
	c0.079,0.089,0.155,0.18,0.23,0.272s0.148,0.186,0.219,0.281v0.853v0.853v0.853V65c-0.165,0.096-0.314,0.213-0.444,0.346
	c-0.13,0.133-0.242,0.282-0.332,0.442s-0.16,0.333-0.207,0.513c-0.047,0.18-0.07,0.368-0.067,0.559
	c0.017,0.072,0.046,0.139,0.084,0.199c0.038,0.06,0.086,0.113,0.14,0.157s0.116,0.079,0.183,0.104
	c0.067,0.025,0.139,0.039,0.213,0.04h0.368h0.368h0.368h0.368c0.083-0.019,0.163-0.048,0.237-0.087s0.143-0.086,0.205-0.141
	s0.117-0.118,0.164-0.187s0.085-0.144,0.114-0.225c0.147-0.333,0.262-0.913,0.343-1.61c0.081-0.697,0.127-1.51,0.138-2.307
	c0.01-0.798-0.015-1.579-0.078-2.214c-0.063-0.634-0.163-1.121-0.303-1.328v-0.018v-0.017v-0.018V59.19l-0.02-0.028l-0.02-0.028
	l-0.02-0.028L64,59.08c-0.378-0.302-0.734-0.629-1.067-0.976c-0.333-0.347-0.642-0.715-0.927-1.101s-0.543-0.792-0.775-1.213
	c-0.232-0.421-0.436-0.859-0.611-1.31c0.027-0.494,0.018-0.987-0.026-1.477c-0.043-0.489-0.121-0.975-0.232-1.452
	c-0.111-0.478-0.256-0.947-0.433-1.405s-0.387-0.905-0.629-1.336c0.305-0.03,0.576-0.089,0.841-0.186
	c0.265-0.097,0.524-0.233,0.805-0.417c0.282-0.184,0.587-0.416,0.943-0.705s0.764-0.637,1.251-1.052l0.158-0.135l0.157-0.135
	l0.157-0.135l0.158-0.135c0.75-0.638,1.307-1.256,1.72-1.839s0.682-1.132,0.855-1.632c0.174-0.5,0.253-0.949,0.285-1.334
	c0.033-0.385,0.02-0.705,0.009-0.945v-0.04v-0.04v-0.04V40c0-0.25-0.039-0.475-0.106-0.672c-0.067-0.197-0.162-0.366-0.274-0.503
	s-0.243-0.244-0.379-0.316C65.744,38.438,65.6,38.4,65.46,38.4c-0.103,0-0.184,0.007-0.27,0.05c-0.086,0.043-0.176,0.12-0.296,0.261
	s-0.268,0.344-0.47,0.638c-0.202,0.294-0.459,0.679-0.794,1.181c-0.17,0.25-0.35,0.519-0.534,0.794
	c-0.184,0.275-0.373,0.556-0.56,0.831s-0.372,0.544-0.55,0.794s-0.348,0.481-0.506,0.681c-0.327,0.344-0.672,0.668-1.033,0.972
	c-0.361,0.304-0.738,0.588-1.129,0.851s-0.797,0.504-1.216,0.722c-0.419,0.218-0.85,0.414-1.292,0.585h-0.105H56.6h-0.105H56.39
	c-0.095,0-0.205,0-0.326,0c-0.121,0-0.253,0-0.391,0c-0.139,0-0.285,0-0.433,0s-0.299,0-0.449,0c-0.34,0.008-0.68,0.006-1.02-0.006
	s-0.678-0.034-1.016-0.065s-0.675-0.073-1.011-0.125c-0.336-0.051-0.67-0.113-1.003-0.184c-0.51-0.179-1.015-0.372-1.513-0.58
	c-0.499-0.207-0.991-0.429-1.477-0.664s-0.965-0.485-1.436-0.748s-0.937-0.539-1.394-0.828l-0.042-0.025l-0.042-0.025l-0.042-0.025
	l-0.042-0.025c0.006-0.216,0.007-0.432,0.006-0.648c-0.002-0.216-0.007-0.433-0.016-0.649s-0.022-0.432-0.039-0.647
	s-0.037-0.431-0.061-0.646v-0.017v-0.018v-0.018V40.8c-0.267-1.083-0.589-2.013-0.932-2.807s-0.707-1.455-1.061-1.997
	s-0.697-0.966-0.998-1.29c-0.3-0.323-0.557-0.547-0.739-0.687v-0.105V33.81v-0.105V33.6c0-0.283,0-0.534-0.011-0.752
	c-0.011-0.218-0.032-0.403-0.074-0.552s-0.106-0.264-0.202-0.34c-0.096-0.077-0.223-0.116-0.393-0.116l-0.018,0.005l-0.017,0.005
	l-0.018,0.005L40.16,31.86z"/>
</svg>
