<?xml version="1.0" encoding="iso-8859-1"?>
<!-- Generator: Adobe Illustrator 25.4.1, SVG Export Plug-In . SVG Version: 6.00 Build 0)  -->
<svg version="1.1" id="Layer_1" xmlns="http://www.w3.org/2000/svg" xmlns:xlink="http://www.w3.org/1999/xlink" x="0px" y="0px"
	 viewBox="0 0 100 100" style="enable-background:new 0 0 100 100;" xml:space="preserve">
<polygon style="fill:none;" points="48.3,38 48.3,38 48.3,38 48.3,38 48.3,38 48.05,38.55 47.8,39.1 47.55,39.65 47.3,40.2 
	49.05,40.2 50.8,40.2 52.55,40.2 54.3,40.2 54.3,36.45 54.3,32.7 54.3,29 54.3,25.3 54.2,25.3 54.1,25.3 54,25.3 53.9,25.3 
	52.5,28.45 51.1,31.6 49.7,34.8 "/>
<path style="fill:none;" d="M68.7,57.2c-0.35,0-0.725,0.175-1.088,0.513C67.25,58.05,66.9,58.55,66.6,59.2s-0.575,1.425-0.775,2.312
	C65.625,62.4,65.5,63.4,65.5,64.5s0.125,2.1,0.325,2.988c0.2,0.887,0.475,1.662,0.775,2.312s0.675,1.15,1.05,1.488
	c0.375,0.337,0.75,0.512,1.05,0.512c0.35,0,0.725-0.175,1.088-0.512C70.15,70.95,70.5,70.45,70.8,69.8s0.575-1.425,0.775-2.312
	C71.775,66.6,71.9,65.6,71.9,64.5c0-1.1-0.125-2.1-0.325-2.987c-0.2-0.888-0.475-1.663-0.775-2.312s-0.65-1.15-1.012-1.487
	S69.05,57.2,68.7,57.2z M68.7,66.2c-0.15,0-0.275-0.05-0.387-0.137C68.2,65.975,68.1,65.85,68,65.7s-0.175-0.35-0.225-0.575
	C67.725,64.9,67.7,64.65,67.7,64.4s0.025-0.5,0.075-0.725C67.825,63.45,67.9,63.25,68,63.1c0.1-0.15,0.2-0.275,0.312-0.362
	S68.55,62.6,68.7,62.6c0.15,0,0.275,0.05,0.387,0.138C69.2,62.825,69.3,62.95,69.4,63.1s0.175,0.35,0.225,0.575
	C69.675,63.9,69.7,64.15,69.7,64.4s-0.025,0.5-0.075,0.725C69.575,65.35,69.5,65.55,69.4,65.7c-0.1,0.15-0.2,0.275-0.312,0.363
	C68.975,66.15,68.85,66.2,68.7,66.2z"/>
<path style="fill:none;" d="M39.4,58.2c-0.5,0-0.975,0.175-1.412,0.5s-0.838,0.8-1.188,1.4c-0.35,0.55-0.625,1.225-0.812,1.975
	S35.7,63.65,35.7,64.5s0.1,1.675,0.287,2.425S36.45,68.35,36.8,68.9s0.75,1.025,1.188,1.363S38.9,70.8,39.4,70.8s1-0.175,1.45-0.5
	s0.85-0.8,1.15-1.4s0.575-1.275,0.775-2.013c0.2-0.737,0.325-1.537,0.325-2.387c0-0.85-0.1-1.675-0.287-2.425S42.35,60.65,42,60.1
	c-0.35-0.6-0.75-1.075-1.188-1.4S39.9,58.2,39.4,58.2z M39.4,66.2c-0.15,0-0.275-0.05-0.388-0.137C38.9,65.975,38.8,65.85,38.7,65.7
	s-0.175-0.35-0.225-0.575S38.4,64.65,38.4,64.4s0.025-0.5,0.075-0.725C38.525,63.45,38.6,63.25,38.7,63.1s0.2-0.275,0.312-0.362
	S39.25,62.6,39.4,62.6s0.275,0.05,0.388,0.138S40,62.95,40.1,63.1s0.175,0.35,0.225,0.575C40.375,63.9,40.4,64.15,40.4,64.4
	s-0.025,0.5-0.075,0.725S40.2,65.55,40.1,65.7s-0.225,0.275-0.35,0.363C39.625,66.15,39.5,66.2,39.4,66.2z"/>
<polygon style="fill:none;" points="55.3,25.3 57,25.3 58.7,25.3 60.35,25.3 62,25.3 62,29.6 62,33.9 62,38.2 62,42.5 60.35,42.5 
	58.7,42.5 57,42.5 55.3,42.5 55.3,38.2 55.3,33.9 55.3,29.6 "/>
<path style="fill:#B2B2B2;" d="M39.4,55.2c-0.95,0-1.85,0.25-2.662,0.713C35.925,56.375,35.2,57.05,34.6,57.9s-1.1,1.85-1.45,2.963
	C32.8,61.975,32.6,63.2,32.6,64.5c0,1.3,0.2,2.525,0.55,3.637C33.5,69.25,34,70.25,34.6,71.1s1.325,1.525,2.138,1.987
	C37.55,73.55,38.45,73.8,39.4,73.8s1.85-0.25,2.662-0.713C42.875,72.625,43.6,71.95,44.2,71.1s1.1-1.85,1.45-2.963
	C46,67.025,46.2,65.8,46.2,64.5c0-1.3-0.175-2.525-0.513-3.638S44.85,58.75,44.2,57.9s-1.4-1.525-2.212-1.987
	C41.175,55.45,40.3,55.2,39.4,55.2z M39.4,70.7c-0.5,0-0.975-0.175-1.412-0.5s-0.838-0.8-1.188-1.4s-0.625-1.275-0.812-2.013
	C35.8,66.05,35.7,65.25,35.7,64.4c0-0.85,0.1-1.675,0.287-2.425S36.45,60.55,36.8,60s0.75-1.025,1.188-1.363
	C38.425,58.3,38.9,58.1,39.4,58.1s1,0.175,1.45,0.5S41.7,59.4,42,60s0.575,1.275,0.775,2.013S43.1,63.55,43.1,64.4
	s-0.1,1.675-0.287,2.425S42.35,68.25,42,68.8s-0.75,1.025-1.188,1.363S39.9,70.7,39.4,70.7z"/>
<path style="fill:#B2B2B2;" d="M68.7,53.2c-1,0-1.95,0.3-2.825,0.862C65,54.625,64.2,55.45,63.5,56.5c-0.65,1-1.175,2.2-1.537,3.55
	C61.6,61.4,61.4,62.9,61.4,64.5s0.2,3.1,0.562,4.45c0.362,1.35,0.888,2.55,1.537,3.55s1.425,1.825,2.288,2.4
	c0.862,0.575,1.812,0.9,2.812,0.9s1.95-0.3,2.812-0.863c0.863-0.562,1.638-1.387,2.287-2.438c0.65-1,1.175-2.2,1.537-3.55
	C75.6,67.6,75.8,66.1,75.8,64.5c0-1.55-0.2-3.025-0.562-4.375c-0.363-1.35-0.888-2.575-1.537-3.625
	c-0.55-1.05-1.275-1.875-2.125-2.438C70.725,53.5,69.75,53.2,68.7,53.2z M68.7,71.7c-0.35,0-0.725-0.175-1.088-0.512
	C67.25,70.85,66.9,70.35,66.6,69.7s-0.575-1.425-0.775-2.312C65.625,66.5,65.5,65.5,65.5,64.4c0-1.1,0.125-2.1,0.325-2.987
	c0.2-0.888,0.475-1.663,0.775-2.312s0.675-1.15,1.05-1.487S68.4,57.1,68.7,57.1c0.35,0,0.725,0.175,1.088,0.513
	C70.15,57.95,70.5,58.45,70.8,59.1s0.575,1.425,0.775,2.312C71.775,62.3,71.9,63.3,71.9,64.4s-0.125,2.1-0.325,2.988
	c-0.2,0.887-0.475,1.662-0.775,2.312s-0.65,1.15-1.012,1.488C69.425,71.525,69.05,71.7,68.7,71.7z"/>
<path style="fill:#B2B2B2;" d="M39.4,62.6c0.15,0,0.275,0.05,0.388,0.138C39.9,62.825,40,62.95,40.1,63.1s0.175,0.35,0.225,0.575
	C40.375,63.9,40.4,64.15,40.4,64.4c0,0.25-0.025,0.5-0.075,0.725S40.2,65.55,40.1,65.7s-0.2,0.275-0.312,0.363S39.55,66.2,39.4,66.2
	s-0.275-0.05-0.388-0.137S38.8,65.85,38.7,65.7s-0.175-0.35-0.225-0.575C38.425,64.9,38.4,64.65,38.4,64.4s0.025-0.5,0.075-0.725
	C38.525,63.45,38.6,63.25,38.7,63.1c0.05-0.15,0.15-0.275,0.275-0.363S39.25,62.6,39.4,62.6z"/>
<path style="fill:#B2B2B2;" d="M68.7,62.6c0.15,0,0.275,0.05,0.387,0.138C69.2,62.825,69.3,62.95,69.4,63.1s0.175,0.35,0.225,0.575
	C69.675,63.9,69.7,64.15,69.7,64.4c0,0.25-0.025,0.5-0.075,0.725C69.575,65.35,69.5,65.55,69.4,65.7s-0.2,0.275-0.312,0.363
	C68.975,66.15,68.85,66.2,68.7,66.2s-0.275-0.05-0.387-0.138S68.1,65.85,68,65.7s-0.175-0.35-0.225-0.575
	C67.725,64.9,67.7,64.65,67.7,64.4s0.025-0.5,0.075-0.725C67.825,63.45,67.9,63.25,68,63.1c0.1-0.15,0.2-0.275,0.312-0.362
	C68.425,62.65,68.55,62.6,68.7,62.6z"/>
<path style="fill:#B2B2B2;" d="M27.7,55.6c-0.05-0.05-0.1-0.1-0.163-0.15c-0.062-0.05-0.137-0.1-0.237-0.15
	c-0.05-0.05-0.1-0.1-0.163-0.138C27.075,55.125,27,55.1,26.9,55.1c0,0.1,0.025,0.2,0.05,0.3c0.025,0.1,0.05,0.2,0.05,0.3
	s0.025,0.2,0.05,0.288c0.025,0.087,0.05,0.162,0.05,0.212l0.15-0.15l0.15-0.15l0.15-0.15L27.7,55.6z"/>
<path style="fill:#B2B2B2;" d="M84.8,57.7c0.05,0,0.125-0.025,0.2-0.05c0.075-0.025,0.15-0.05,0.2-0.05
	c0.05-0.05,0.075-0.1,0.088-0.162C85.3,57.375,85.3,57.3,85.3,57.2v-0.55V56.1v-0.55V55c0-0.05-0.025-0.125-0.05-0.2
	c-0.025-0.075-0.05-0.15-0.05-0.2c-0.05-0.05-0.1-0.075-0.162-0.087C84.975,54.5,84.9,54.5,84.8,54.5h-0.25H84.3h-0.25H83.8v-1.95
	V50.6v-1.95V46.7c0-0.05,0-0.1-0.012-0.15c-0.013-0.05-0.038-0.1-0.088-0.15s-0.075-0.075-0.1-0.1s-0.05-0.05-0.1-0.1l-3.05-1.6
	L77.4,43l-3.05-1.6l-3.05-1.6v-2.3v-2.3v-2.3v-2.3c0-0.2-0.025-0.4-0.088-0.587S71.05,29.65,70.9,29.5
	c-0.1-0.15-0.25-0.275-0.412-0.375S70.15,28.95,70,28.9v-0.55V27.8v-0.55V26.7l0.35-0.35L70.7,26l0.35-0.35l0.35-0.35
	c0.05-0.05,0.075-0.1,0.1-0.15c0.025-0.05,0.05-0.1,0.1-0.15c0-0.05,0-0.1-0.012-0.15c-0.013-0.05-0.037-0.1-0.088-0.15l0,0l0,0l0,0
	l0,0c-0.05-0.05-0.1-0.075-0.15-0.1c-0.05-0.025-0.1-0.05-0.15-0.1s-0.1-0.05-0.15-0.025C71,24.5,70.95,24.55,70.9,24.6l0,0l0,0l0,0
	l0,0l-0.35,0.35L70.2,25.3l-0.35,0.35L69.5,26c0,0-0.025,0.025-0.05,0.062C69.425,26.1,69.4,26.15,69.4,26.2s0,0.075,0,0.1
	s0,0.05,0,0.1V27v0.6v0.6v0.6c-0.2,0.05-0.375,0.125-0.537,0.225S68.55,29.25,68.4,29.4c-0.1,0.15-0.2,0.325-0.275,0.513
	C68.05,30.1,68,30.3,68,30.5v2.4v2.4v2.4v2.4h-1.15H65.7h-1.35H63v-3.7v-3.7V29v-3.7h0.55h0.55h0.55h0.55v-0.25V24.8v-0.25V24.3h-3
	h-3h-3h-3l-1.45,3.25L50.3,30.8l-1.45,3.25L47.4,37.3h-0.85H45.7h-0.85H44c-0.05,0-0.075,0-0.1,0s-0.05,0-0.1,0
	s-0.075,0.025-0.1,0.05c-0.025,0.025-0.05,0.05-0.1,0.05l-4,4.55l-4,4.55l-4,4.55l-4,4.55c-0.75-0.55-1.55-1-2.375-1.35
	s-1.675-0.6-2.525-0.75c-0.9-0.15-1.8-0.175-2.7-0.087C19.1,53.5,18.2,53.7,17.3,54l1.05,1.4l1.05,1.4l1.05,1.4l1.05,1.4h-0.05H21.4
	h-0.05H21.3c-0.95,0-1.85,0.175-2.663,0.513C17.825,60.45,17.1,60.95,16.5,61.6c-0.6,0.6-1.1,1.325-1.45,2.138
	C14.7,64.55,14.5,65.45,14.5,66.4s0.175,1.85,0.512,2.662C15.35,69.875,15.85,70.6,16.5,71.2c0.6,0.6,1.325,1.1,2.138,1.45
	S20.35,73.2,21.3,73.2c0.75,0,1.5-0.125,2.2-0.363c0.7-0.237,1.35-0.588,1.9-1.037s1.05-0.975,1.462-1.575
	c0.413-0.6,0.737-1.275,0.938-2.025l0.5,0.7l0.5,0.7l0.5,0.7l0.5,0.7c0.55-0.75,0.975-1.55,1.288-2.375
	C31.4,67.8,31.6,66.95,31.7,66.1c0.1-0.85,0.1-1.75,0-2.65c-0.1-0.9-0.3-1.8-0.6-2.65c0.5-0.65,1.025-1.3,1.537-1.912
	C33.15,58.275,33.65,57.7,34.1,57.2c0.45-0.55,0.875-1.05,1.263-1.487S36.1,54.9,36.4,54.6c0.95-0.9,1.875-1.375,2.763-1.538
	C40.05,52.9,40.9,53.05,41.7,53.4c0.75,0.35,1.425,0.9,1.975,1.513c0.55,0.612,0.975,1.288,1.225,1.888c0.2,0.6,0.375,1.2,0.538,1.8
	c0.162,0.6,0.312,1.2,0.462,1.8s0.25,1.2,0.325,1.812S46.35,63.45,46.4,64.1c0,0.05,0.025,0.125,0.05,0.2
	c0.025,0.075,0.05,0.15,0.05,0.2c0.05,0.05,0.1,0.1,0.162,0.137C46.725,64.675,46.8,64.7,46.9,64.7l0,0l0,0l0,0l0,0h0.25h0.25h0.25
	h0.25c0.05,0,0.125-0.025,0.2-0.05c0.075-0.025,0.15-0.05,0.2-0.05c0.05-0.05,0.075-0.1,0.087-0.162
	C48.4,64.375,48.4,64.3,48.4,64.2v-0.4v-0.4V63v-0.4l1.55,0.05l1.55,0.05l1.55,0.05l1.55,0.05v1.25v1.25v1.25v1.25h1.2H57h1.2h1.2
	v-0.25V67.3v-0.25V66.8h-0.95H57.5h-0.95H55.6v-1v-1v-1v-1h1.05h1.05h1.05h1.05c0.05,0,0.1-0.025,0.15-0.05
	c0.05-0.025,0.1-0.05,0.15-0.05c0.05-0.05,0.075-0.1,0.1-0.15c0.025-0.05,0.05-0.1,0.1-0.15c0-0.05,0.175-0.775,0.538-1.825
	C61.2,59.525,61.75,58.15,62.5,56.8s1.675-2.75,2.8-3.812s2.45-1.788,4-1.788s2.8,0.775,3.825,1.925S74.95,55.8,75.6,57.3
	c0.6,1.55,1.025,3.075,1.3,4.225c0.275,1.15,0.4,1.925,0.4,1.975c0,0.05,0.025,0.1,0.062,0.15c0.037,0.05,0.087,0.1,0.137,0.15
	s0.1,0.075,0.15,0.087C77.7,63.9,77.75,63.9,77.8,63.9h1.1H80h1h1c0.05,0,0.075,0,0.1,0s0.05,0,0.1,0s0.075-0.025,0.1-0.05
	s0.05-0.05,0.1-0.05l0.7-0.65l0.7-0.65l0.7-0.65l0.7-0.65c0.05,0,0.075-0.025,0.088-0.062C85.3,61.1,85.3,61.05,85.3,61
	c0-0.05,0-0.075,0-0.1s0-0.05,0-0.1v-0.4V60v-0.4v-0.4c0-0.05-0.025-0.125-0.05-0.2c-0.025-0.075-0.05-0.15-0.05-0.2
	c-0.05-0.05-0.1-0.075-0.162-0.087C84.975,58.7,84.9,58.7,84.8,58.7h-0.25H84.3h-0.25H83.8v-0.3v-0.3v-0.3v-0.3h0.25h0.25h0.25h0.25
	v0.1V57.7z M54.3,40.2h-1.75H50.8h-1.75H47.3l0.25-0.55l0.25-0.55l0.25-0.55L48.3,38l0,0l0,0l0,0l0,0l1.4-3.15l1.4-3.15l1.4-3.15
	l1.4-3.15H54h0.1h0.1h0.1v3.7v3.7c0-0.05,0,1.8,0,3.662S54.3,40.2,54.3,40.2z M62,42.5h-1.65H58.7h-1.65H55.4v-4.3v-4.3v-4.3v-4.3
	h1.65h1.65h1.65H62v4.3v4.3v4.3V42.5z"/>
</svg>
