<svg xmlns="http://www.w3.org/2000/svg" viewBox="0 0 100 100"><path d="M43.66,48.7c-.08,0-1.09-.24-1.08-1.22a10.45,10.45,0,0,1,1.34-3.4s0-1.57,0-1.77a12.55,12.55,0,0,1,1.32-2.92c.21,0,.35.59.4.59h1.75c.06,0,1.39.07,4.41,2.77s5,5.38,7.69,5.38S63.1,47,65.06,47s5.66,1.69,6.45,4.24,2.16,8.23,2.32,9,.9,5-.1,6.93a8.88,8.88,0,0,1-3.66-6.85,34,34,0,0,1-.14-5.7.49.49,0,0,0-.52.41c-.06.31-.82,3.46-.28,4.74a16.07,16.07,0,0,1,.8,4.49c.15,1.56,1.32,7.11-.92,7.46-.81.15-.46-1.24-.33-1.47a4.53,4.53,0,0,0,.48-1.62c0-.59,0-4.68-.6-4.68s-.42,5.61-1.28,6.43-1.38,1.15-1.62.68.54-1.56.72-2.12A16.21,16.21,0,0,0,67,65.25a16.06,16.06,0,0,0-.9-4.39c-.6-2.06-.81-4.31-1.82-4.28S61,58.67,55.86,58.67c-.26,0,.69,5.62,1.2,8s-.27,4.71-1.49,4.56.53-2,.41-3.46-.92-4.88-1.4-4.88.23,4.43.23,5.33-1,4-2.26,3.52,1.14-1.63,1-3.55A63.62,63.62,0,0,0,52.19,59c-.49-1.39-1.57-2.79-1.8-3.67s0-2.39-.22-3-1.78-6.42-2.43-6.42S43.79,48.74,43.66,48.7Z" fill="#646464" style="isolation:isolate"/><path d="M52.63,70.6c-.34.47-.54.8,0,1s1-.28,1.31-.93Z" fill="#fff"/><path d="M55.33,70.35c-.14.4-.14.69.27.74s.77-.25,1-.76Z" fill="#fff"/><path d="M66,69.85c-.21.4-.4.83-.28,1.07s.55.15,1.16-.4Z" fill="#fff"/><path d="M68.68,70.53c-.12.38-.22,1.16.34,1a1.1,1.1,0,0,0,.84-.68Z" fill="#fff"/><polygon points="79.85 21.98 19.16 34.4 19.16 78.03 79.01 78.03 79.01 72.91 24.32 72.91 24.32 38.64 80.84 27.12 79.85 21.98" fill="#646464"/></svg>