<?xml version="1.0" encoding="iso-8859-1"?>
<!-- Generator: Adobe Illustrator 25.4.1, SVG Export Plug-In . SVG Version: 6.00 Build 0)  -->
<svg version="1.1" id="Layer_1" xmlns="http://www.w3.org/2000/svg" xmlns:xlink="http://www.w3.org/1999/xlink" x="0px" y="0px"
	 viewBox="0 0 100 100" style="enable-background:new 0 0 100 100;" xml:space="preserve">
<path style="fill:#666666;" d="M55.7,63.8h0.05h0.05h0.1H56c0.6,0,1.15-0.125,1.65-0.338C58.15,63.25,58.6,62.95,59,62.6
	s0.7-0.8,0.9-1.312c0.2-0.513,0.3-1.088,0.3-1.688l0,0l0,0l0,0l0,0v-3.15V53.3v-3.15V47l0,0l0,0l0,0l0,0
	c-0.25-0.3-0.55-0.5-0.85-0.612c-0.3-0.112-0.6-0.138-0.85-0.088s-0.475,0.175-0.65,0.35c-0.175,0.175-0.3,0.4-0.35,0.65v0.95v0.95
	v0.9V51v0.05v0.05v0.05v0.05c-0.05,0.05-0.1,0.125-0.15,0.2c-0.05,0.075-0.1,0.15-0.15,0.2c-0.05,0.05-0.125,0.075-0.2,0.087
	C56.925,51.7,56.85,51.7,56.8,51.7c-0.1,0-0.2-0.025-0.288-0.062C56.425,51.6,56.35,51.55,56.3,51.5s-0.125-0.125-0.188-0.212
	C56.05,51.2,56,51.1,56,51l0,0l0,0l0,0l0,0v-1.8v-1.8v-1.8v-1.8c-0.3-0.35-0.625-0.55-0.938-0.638
	C54.75,43.075,54.45,43.1,54.2,43.2s-0.475,0.275-0.638,0.5S53.3,44.2,53.3,44.5l-0.05,1.2l-0.05,1.2l-0.1,1.2L53,49.3v0.4v0.4v0.45
	V51c0,0.1-0.025,0.2-0.062,0.288C52.9,51.375,52.85,51.45,52.8,51.5s-0.125,0.1-0.213,0.138C52.5,51.675,52.4,51.7,52.3,51.7
	s-0.2-0.025-0.288-0.062C51.925,51.6,51.85,51.55,51.8,51.5s-0.1-0.125-0.138-0.213C51.625,51.2,51.6,51.1,51.6,51v-0.4v-0.4v-0.4
	v-0.4l-0.05-1.8l-0.05-1.8L51.45,44l-0.05-1.8c-0.3-0.35-0.625-0.55-0.938-0.638C50.15,41.475,49.85,41.5,49.6,41.6
	s-0.475,0.275-0.638,0.5S48.7,42.6,48.7,42.9v2.05V47v2v2c0,0.1-0.025,0.2-0.062,0.288C48.6,51.375,48.55,51.45,48.5,51.5
	c-0.05,0.05-0.125,0.1-0.212,0.138C48.2,51.675,48.1,51.7,48,51.7s-0.2-0.025-0.288-0.062C47.625,51.6,47.55,51.55,47.5,51.5
	c-0.25-0.05-0.375-0.125-0.438-0.212C47,51.2,47,51.1,47,51v-1.8v-1.8v-1.8v-1.8l0,0l0,0l0,0l0,0c-0.1-0.2-0.25-0.35-0.412-0.463
	C46.425,43.225,46.25,43.15,46.1,43.1c-0.2-0.05-0.4-0.05-0.588-0.013C45.325,43.125,45.15,43.2,45,43.3
	c-0.05,0.05-0.1,0.075-0.138,0.1c-0.037,0.025-0.062,0.05-0.062,0.1c-0.05,0.05-0.075,0.075-0.1,0.1c-0.025,0.025-0.05,0.05-0.1,0.1
	v1.8v1.8v1.85V51c0,0.05,0,0.1-0.013,0.15c-0.013,0.05-0.037,0.1-0.087,0.15s-0.075,0.1-0.1,0.138
	c-0.025,0.037-0.05,0.062-0.1,0.062c-0.05,0.05-0.1,0.075-0.138,0.1c-0.037,0.025-0.062,0.05-0.062,0.1s-0.05,0.075-0.112,0.088
	C43.925,51.8,43.85,51.8,43.8,51.8s-0.1,0-0.15-0.013c-0.05-0.012-0.1-0.037-0.15-0.087c-0.05,0-0.1-0.025-0.15-0.062
	C43.3,51.6,43.25,51.55,43.2,51.5c-0.05-0.05-0.075-0.075-0.087-0.1C43.1,51.375,43.1,51.35,43.1,51.3s0-0.1-0.013-0.138
	C43.075,51.125,43.05,51.1,43,51.1v-0.45V50.2v-0.45V49.3c-0.05-0.1-0.125-0.2-0.212-0.288C42.7,48.925,42.6,48.85,42.5,48.8
	s-0.2-0.075-0.312-0.087S41.95,48.7,41.8,48.7c-0.15,0.05-0.3,0.1-0.438,0.162C41.225,48.925,41.1,49,41,49.1
	s-0.175,0.225-0.225,0.375S40.7,49.8,40.7,50v2.4v2.4v2.4v2.4c0,0.5,0.1,1,0.275,1.463C41.15,61.525,41.4,61.95,41.7,62.3
	s0.675,0.675,1.112,0.925S43.75,63.65,44.3,63.7v4.35v4.35v4.35v4.35h2.85H50h2.85h2.85v-4.35V72.4v-4.3V63.8z"/>
<path style="fill:#666666;" d="M36.1,69.2c0.4,0,0.8-0.1,1.162-0.262c0.362-0.163,0.688-0.388,0.938-0.638s0.475-0.575,0.638-0.938
	C39,67,39.1,66.6,39.1,66.2V64v-2.2v-2.25V57.3l0,0l0,0l0,0l0,0c-0.2-0.2-0.4-0.325-0.6-0.4c-0.2-0.075-0.4-0.1-0.6-0.1
	c-0.2,0.05-0.35,0.125-0.463,0.237S37.25,57.3,37.2,57.5v0.65v0.65v0.65v0.65v0.05v0.05v0.05v0.05c-0.05,0.05-0.1,0.1-0.15,0.15
	c-0.05,0.05-0.1,0.1-0.15,0.15c-0.05,0-0.125,0-0.2,0c-0.075,0-0.15,0-0.2,0s-0.075-0.025-0.1-0.062
	c-0.025-0.037-0.05-0.088-0.1-0.138s-0.075-0.1-0.088-0.138C36.2,60.225,36.2,60.2,36.2,60.2v-1.25V57.7v-1.25V55.2
	c-0.2-0.25-0.425-0.4-0.65-0.475C35.325,54.65,35.1,54.65,34.9,54.7s-0.35,0.175-0.45,0.338C34.35,55.2,34.3,55.4,34.3,55.6
	l-0.05,0.85L34.2,57.3l-0.1,0.9L34,59.1v0.3v0.3V60v0.3c0,0.05-0.025,0.125-0.062,0.2s-0.088,0.15-0.138,0.2
	c-0.05,0.05-0.1,0.1-0.162,0.138C33.575,60.875,33.5,60.9,33.4,60.9c-0.05,0-0.125-0.025-0.2-0.062C33.125,60.8,33.05,60.75,33,60.7
	c-0.05-0.05-0.1-0.1-0.138-0.162C32.825,60.475,32.8,60.4,32.8,60.3V60v-0.3v-0.3v-0.3l-0.05-1.25L32.7,56.6v-1.3l0-1.3
	c-0.2-0.25-0.425-0.4-0.65-0.475C31.825,53.45,31.6,53.45,31.4,53.5s-0.35,0.175-0.45,0.338C30.85,54,30.8,54.2,30.8,54.4v1.45v1.45
	v1.45v1.45c0,0.05-0.025,0.125-0.062,0.2s-0.087,0.15-0.138,0.2c-0.05,0.05-0.1,0.1-0.163,0.138C30.375,60.775,30.3,60.8,30.2,60.8
	c-0.05,0-0.125-0.025-0.2-0.062c-0.075-0.037-0.15-0.087-0.2-0.138c-0.05-0.05-0.1-0.1-0.138-0.162S29.6,60.3,29.6,60.2v-1.25V57.7
	v-1.25V55.2l0,0l0,0l0,0l0,0c-0.05-0.15-0.15-0.25-0.263-0.325C29.225,54.8,29.1,54.75,29,54.7c-0.15-0.05-0.3-0.075-0.438-0.062
	C28.425,54.65,28.3,54.7,28.2,54.8c-0.05,0-0.075,0.025-0.1,0.05S28.05,54.9,28,54.9c0.05,0.05,0.05,0.075,0.038,0.1
	C28.025,55.025,28,55.05,28,55.1v1.3v1.3V59v1.3c0,0.05,0,0.075,0,0.1s0,0.05,0,0.1s-0.025,0.075-0.05,0.1
	c-0.025,0.025-0.05,0.05-0.05,0.1c0,0.05-0.025,0.075-0.062,0.087S27.75,60.8,27.7,60.8s-0.075,0-0.1,0s-0.05,0-0.1,0
	s-0.1,0-0.138-0.013S27.3,60.75,27.3,60.7s-0.025-0.075-0.062-0.087S27.15,60.6,27.1,60.6l-0.05-0.05L27,60.5c0-0.05,0-0.075,0-0.1
	s0-0.05,0-0.1V60v-0.3v-0.35V59c-0.05-0.05-0.1-0.125-0.163-0.188S26.7,58.7,26.6,58.7s-0.175-0.025-0.25-0.05
	c-0.075-0.025-0.15-0.05-0.25-0.05s-0.2,0.05-0.3,0.112c-0.1,0.062-0.2,0.138-0.3,0.188s-0.15,0.15-0.175,0.263S25.3,59.4,25.3,59.5
	v1.7v1.7v1.7v1.7c0,0.4,0.075,0.8,0.225,1.162c0.15,0.363,0.375,0.688,0.675,0.938c0.25,0.25,0.575,0.475,0.938,0.638
	C27.5,69.2,27.9,69.3,28.3,69.3l0,0l0,0l0,0l0,0h0.2h0.2h0.2h0.2l-0.05,2.6L29,74.5l-0.05,2.6l-0.05,2.6
	c0.55,0.4,1.1,0.675,1.663,0.875S31.7,80.9,32.3,81c0.6,0.1,1.2,0.2,1.812,0.338C34.725,81.475,35.35,81.65,36,81.9l0.05-3.15
	l0.05-3.15l0-3.2V69.2z"/>
<path style="fill:#666666;" d="M74.7,68.8v-2v-2v-2v-2l0,0l0,0l0,0l0,0c-0.15-0.2-0.325-0.325-0.5-0.388s-0.35-0.062-0.5-0.013
	s-0.3,0.125-0.412,0.225C73.175,60.725,73.1,60.85,73.1,61v0.6v0.6v0.6v0.6v0.05v0.05v0.05v0.05c0,0.05-0.025,0.1-0.062,0.138
	C73,63.775,72.95,63.8,72.9,63.8c-0.05,0.05-0.1,0.075-0.15,0.087C72.7,63.9,72.65,63.9,72.6,63.9c-0.05,0-0.1,0-0.15-0.013
	c-0.05-0.012-0.1-0.037-0.15-0.087c-0.05-0.05-0.075-0.1-0.088-0.15C72.2,63.6,72.2,63.55,72.2,63.5l0,0l0,0l0,0l0,0v-1.15V61.2
	v-1.15V58.9c-0.2-0.2-0.4-0.325-0.6-0.388C71.4,58.45,71.2,58.45,71,58.5s-0.35,0.15-0.45,0.287c-0.1,0.138-0.15,0.312-0.15,0.513
	l-0.05,0.75L70.3,60.8l-0.05,0.75L70.2,62.3v0.25v0.25v0.25v0.25c0,0.05-0.025,0.125-0.05,0.2c-0.025,0.075-0.05,0.15-0.05,0.2
	c-0.05,0.05-0.1,0.075-0.162,0.087C69.875,63.8,69.8,63.8,69.7,63.8s-0.175-0.025-0.238-0.05S69.35,63.7,69.3,63.7
	c-0.05-0.05-0.075-0.1-0.088-0.162C69.2,63.475,69.2,63.4,69.2,63.3v-0.25V62.8v-0.25V62.3l-0.05-1.15L69.1,60l-0.05-1.1L69,57.8
	c-0.2-0.2-0.4-0.325-0.588-0.388S68.05,57.35,67.9,57.4s-0.3,0.15-0.412,0.287C67.375,57.825,67.3,58,67.3,58.2v1.3v1.3v1.3v1.3
	c0,0.05-0.025,0.125-0.05,0.2c-0.025,0.075-0.05,0.15-0.05,0.2c-0.05,0.05-0.1,0.075-0.162,0.087S66.9,63.9,66.8,63.9
	s-0.175-0.025-0.238-0.05S66.45,63.8,66.4,63.8c-0.05-0.05-0.075-0.1-0.088-0.162C66.3,63.575,66.3,63.5,66.3,63.4v-1.15V61.1v-1.15
	V58.8l0,0l0,0l0,0l0,0c-0.1-0.1-0.2-0.2-0.312-0.275S65.75,58.4,65.6,58.4c-0.15,0-0.275,0-0.387,0.025
	C65.1,58.45,65,58.5,64.9,58.6l-0.05,0.05L64.8,58.7l-0.05,0.05L64.7,58.8v1.15v1.15v1.15v1.15c0,0.05,0,0.075,0,0.1
	c0,0.025,0,0.05,0,0.1s-0.025,0.075-0.05,0.088C64.625,63.7,64.6,63.7,64.6,63.7s-0.025,0.025-0.062,0.05S64.45,63.8,64.4,63.8
	s-0.075,0-0.1,0s-0.05,0-0.1,0s-0.075,0-0.1,0s-0.05,0-0.1,0c-0.05,0-0.075-0.025-0.1-0.05s-0.05-0.05-0.1-0.05l-0.05-0.05
	L63.7,63.6c0,0,0-0.025,0-0.062s0-0.088,0-0.138v-0.3v-0.3v-0.3v-0.3c-0.05-0.05-0.1-0.1-0.15-0.15c-0.05-0.05-0.1-0.1-0.15-0.15
	s-0.125-0.075-0.2-0.087S63.05,61.8,63,61.8c-0.1,0-0.2,0.025-0.288,0.075C62.625,61.925,62.55,62,62.5,62.1s-0.1,0.175-0.138,0.25
	C62.325,62.425,62.3,62.5,62.3,62.6v1.55v1.55v1.55v1.55c0,0.3,0.05,0.6,0.15,0.887c0.1,0.287,0.25,0.562,0.45,0.812
	s0.425,0.45,0.688,0.6c0.263,0.15,0.563,0.25,0.913,0.3v2.45v2.45v2.45v2.45c0.7-0.25,1.4-0.45,2.088-0.637S67.95,80.2,68.6,80
	c0.65-0.15,1.3-0.35,1.938-0.613S71.8,78.8,72.4,78.4v-1.75V74.9v-1.75V71.4c0.3-0.05,0.6-0.15,0.875-0.3
	C73.55,70.95,73.8,70.75,74,70.5c0.25-0.2,0.425-0.45,0.537-0.738C74.65,69.475,74.7,69.15,74.7,68.8z"/>
<path style="fill:#666666;" d="M31,41.3v-5.65V30v-5.65V18.7h1.2h1.2h1.2h1.2v4.65V28v4.65v4.65h2.8h2.8h2.8H47v1v1v1v1h-4h-4h-4H31
	z"/>
<path style="fill:#666666;" d="M52.2,38.7c-0.5-0.6-0.95-1.25-1.337-1.925C50.475,36.1,50.15,35.4,49.9,34.7
	c-0.25-0.75-0.425-1.5-0.525-2.263c-0.1-0.762-0.125-1.537-0.075-2.337c0-0.9,0.05-1.775,0.162-2.612
	C49.575,26.65,49.75,25.85,50,25.1s0.55-1.425,0.913-2.05c0.362-0.625,0.787-1.2,1.287-1.75c0.5-0.55,1.075-1.025,1.688-1.438
	S55.15,19.1,55.8,18.8c0.7-0.25,1.4-0.45,2.112-0.575C58.625,18.1,59.35,18.05,60.1,18.1c0.75-0.05,1.5,0,2.225,0.125
	C63.05,18.35,63.75,18.55,64.4,18.8c0.7,0.3,1.35,0.65,1.95,1.062S67.5,20.75,68,21.3s0.925,1.15,1.287,1.788
	C69.65,23.725,69.95,24.4,70.2,25.1s0.425,1.475,0.537,2.312S70.9,29.15,70.9,30.1c0,0.9-0.05,1.775-0.162,2.6
	c-0.112,0.825-0.287,1.6-0.537,2.3s-0.55,1.375-0.912,2S68.5,38.2,68,38.7c-0.5,0.55-1.075,1.025-1.688,1.438S65.05,40.9,64.4,41.2
	c-0.7,0.25-1.4,0.45-2.112,0.575C61.575,41.9,60.85,41.95,60.1,41.9c-0.75,0.05-1.5,0-2.225-0.125
	C57.15,41.65,56.45,41.45,55.8,41.2c-0.7-0.3-1.35-0.65-1.95-1.062C53.25,39.725,52.7,39.25,52.2,38.7z M64.6,35.8
	c0.3-0.4,0.55-0.85,0.762-1.312c0.213-0.462,0.388-0.938,0.538-1.388s0.25-0.95,0.3-1.463c0.05-0.512,0.05-1.037,0-1.537
	c0.05-0.5,0.05-1.025,0-1.55c-0.05-0.525-0.15-1.05-0.3-1.55s-0.325-0.975-0.537-1.438C65.15,25.1,64.9,24.65,64.6,24.2
	c-0.25-0.35-0.55-0.675-0.888-0.95S63,22.75,62.6,22.6c-0.4-0.2-0.825-0.325-1.263-0.4C60.9,22.125,60.45,22.1,60,22.1
	c-0.45,0-0.875,0.025-1.288,0.1C58.3,22.275,57.9,22.4,57.5,22.6s-0.775,0.425-1.112,0.688C56.05,23.55,55.75,23.85,55.5,24.2
	c-0.3,0.45-0.55,0.9-0.763,1.362C54.525,26.025,54.35,26.5,54.2,27s-0.25,1-0.3,1.513c-0.05,0.512-0.05,1.038,0,1.587
	c-0.05,0.5-0.025,1,0.037,1.5s0.162,1,0.263,1.5c0.15,0.5,0.325,0.975,0.537,1.425C54.95,34.975,55.2,35.4,55.5,35.8
	c0.25,0.35,0.55,0.65,0.888,0.913C56.725,36.975,57.1,37.2,57.5,37.4s0.8,0.325,1.212,0.4c0.413,0.075,0.838,0.1,1.288,0.1
	s0.875-0.025,1.288-0.1c0.412-0.075,0.812-0.2,1.212-0.4c0.45-0.15,0.85-0.375,1.2-0.65C64.05,36.475,64.35,36.15,64.6,35.8z"/>
</svg>
