<?xml version="1.0" encoding="iso-8859-1"?>
<!-- Generator: Adobe Illustrator 25.4.1, SVG Export Plug-In . SVG Version: 6.00 Build 0)  -->
<svg version="1.1" id="Layer_1" xmlns="http://www.w3.org/2000/svg" xmlns:xlink="http://www.w3.org/1999/xlink" x="0px" y="0px"
	 viewBox="0 0 100 100" style="enable-background:new 0 0 100 100;" xml:space="preserve">
<path style="fill:#C7C7C7;" d="M66.7,70.5c-0.75,0-1.45-0.2-2.088-0.562C63.975,69.575,63.4,69.05,62.9,68.4s-0.875-1.425-1.125-2.3
	S61.4,64.25,61.4,63.2c0-1,0.15-1.975,0.412-2.862C62.075,59.45,62.45,58.65,62.9,58s1.025-1.175,1.675-1.537
	C65.225,56.1,65.95,55.9,66.7,55.9s1.45,0.2,2.088,0.562S70,57.35,70.5,58s0.875,1.425,1.125,2.3S72,62.15,72,63.2
	c0,1-0.15,1.975-0.412,2.862C71.325,66.95,70.95,67.75,70.5,68.4c-0.5,0.65-1.075,1.175-1.713,1.537S67.45,70.5,66.7,70.5z
	 M66.7,58.2c-0.4,0-0.8,0.15-1.162,0.412C65.175,58.875,64.85,59.25,64.6,59.7s-0.475,0.975-0.638,1.562S63.7,62.5,63.7,63.2
	s0.075,1.35,0.225,1.938c0.15,0.588,0.375,1.112,0.675,1.562c0.3,0.45,0.625,0.825,0.975,1.087C65.925,68.05,66.3,68.2,66.7,68.2
	c0.4,0,0.8-0.15,1.162-0.412c0.363-0.263,0.688-0.638,0.938-1.088s0.475-0.975,0.638-1.562C69.6,64.55,69.7,63.9,69.7,63.2
	s-0.075-1.35-0.225-1.938S69.1,60.15,68.8,59.7c-0.3-0.45-0.625-0.825-0.975-1.087S67.1,58.2,66.7,58.2z"/>
<path style="fill:#C7C7C7;" d="M66.7,59.7c0.25,0,0.5,0.1,0.738,0.275C67.675,60.15,67.9,60.4,68.1,60.7
	c0.15,0.3,0.3,0.675,0.412,1.1c0.113,0.425,0.188,0.9,0.188,1.4c0,0.5-0.075,0.95-0.2,1.35c-0.125,0.4-0.3,0.75-0.5,1.05
	c-0.15,0.3-0.35,0.55-0.588,0.725C67.175,66.5,66.9,66.6,66.6,66.6c-0.25,0-0.5-0.1-0.738-0.275C65.625,66.15,65.4,65.9,65.2,65.6
	c-0.15-0.3-0.3-0.675-0.412-1.1c-0.113-0.425-0.188-0.9-0.188-1.4s0.05-0.95,0.15-1.362c0.1-0.413,0.25-0.788,0.45-1.138
	c0.25-0.25,0.475-0.475,0.713-0.637C66.15,59.8,66.4,59.7,66.7,59.7z"/>
<path style="fill:#C7C7C7;" d="M78.1,70.5c-0.75,0-1.45-0.2-2.088-0.562S74.8,69.05,74.3,68.4s-0.875-1.425-1.125-2.3
	S72.8,64.25,72.8,63.2c0-1,0.15-1.975,0.412-2.862C73.475,59.45,73.85,58.65,74.3,58c0.5-0.65,1.075-1.175,1.713-1.537
	S77.35,55.9,78.1,55.9s1.45,0.2,2.088,0.562S81.4,57.35,81.9,58s0.875,1.425,1.125,2.3s0.375,1.85,0.375,2.9s-0.15,2.025-0.412,2.9
	s-0.637,1.65-1.088,2.3s-1.025,1.175-1.675,1.537C79.575,70.3,78.85,70.5,78.1,70.5z M78.1,58.2c-0.4,0-0.8,0.15-1.162,0.412
	C76.575,58.875,76.25,59.25,76,59.7s-0.475,0.975-0.637,1.562C75.2,61.85,75.1,62.5,75.1,63.2s0.075,1.35,0.225,1.938
	C75.475,65.725,75.7,66.25,76,66.7c0.25,0.45,0.575,0.825,0.938,1.088C77.3,68.05,77.7,68.2,78.1,68.2s0.8-0.15,1.162-0.412
	c0.363-0.263,0.688-0.638,0.938-1.088s0.475-0.975,0.637-1.562C81,64.55,81.1,63.9,81.1,63.2s-0.075-1.35-0.225-1.938
	C80.725,60.675,80.5,60.15,80.2,59.7c-0.25-0.45-0.575-0.825-0.938-1.087C78.9,58.35,78.5,58.2,78.1,58.2z"/>
<path style="fill:#C7C7C7;" d="M78.1,59.7c0.25,0,0.5,0.1,0.738,0.275C79.075,60.15,79.3,60.4,79.5,60.7
	c0.15,0.3,0.3,0.675,0.412,1.1c0.113,0.425,0.188,0.9,0.188,1.4c0,0.5-0.05,0.95-0.15,1.362c-0.1,0.412-0.25,0.787-0.45,1.137
	c-0.15,0.3-0.35,0.55-0.588,0.725C78.675,66.6,78.4,66.7,78.1,66.7c-0.25,0-0.5-0.1-0.738-0.275C77.125,66.25,76.9,66,76.7,65.7
	c-0.15-0.3-0.3-0.675-0.412-1.1c-0.113-0.425-0.188-0.9-0.188-1.4s0.05-0.95,0.15-1.362c0.1-0.413,0.25-0.788,0.45-1.138
	c0.2-0.3,0.425-0.55,0.662-0.725C77.6,59.8,77.85,59.7,78.1,59.7z"/>
<path style="fill:#C7C7C7;" d="M49.4,28.8h0.45h0.45h0.45h0.45v1.05v1.05v1.05V33h7.15h7.15h7.15h7.15c0,0,0.025-0.125,0.088-0.325
	S80.05,32.2,80.2,31.9c0.15-0.25,0.35-0.525,0.613-0.738C81.075,30.95,81.4,30.8,81.8,30.8h0.4h0.4H83h0.4l1.55,6.35l1.55,6.35
	l1.55,6.35l1.55,6.35h-0.75H88.1h-0.75H86.6v0.65v0.65v0.65v0.65h-0.85H84.9h-0.85H83.2c0,0-0.125-0.35-0.363-0.888
	C82.6,57.375,82.25,56.65,81.8,55.9c-0.45-0.7-1-1.425-1.662-1.963C79.475,53.4,78.7,53.05,77.8,53.1c-0.9,0-1.7,0.375-2.4,0.925
	c-0.7,0.55-1.3,1.275-1.8,1.975s-0.9,1.4-1.175,1.925C72.15,58.45,72,58.8,72,58.8s-0.125-0.375-0.375-0.925
	C71.375,57.325,71,56.6,70.5,55.9s-1.075-1.425-1.75-1.963C68.075,53.4,67.3,53.05,66.4,53.1s-1.675,0.425-2.337,0.963
	C63.4,54.6,62.85,55.3,62.4,56s-0.8,1.4-1.038,1.925C61.125,58.45,61,58.8,61,58.8h-0.35H60.3h-0.35H59.6v0.65v0.65v0.65v0.65H57
	h-2.6h-2.6h-2.6v-8.2V45v-8.1v-8.1h0.1H49.4z"/>
<path style="fill:none;" d="M26.7,65c0.1,0.45,0.25,0.875,0.438,1.25s0.413,0.7,0.663,0.95s0.5,0.475,0.775,0.637
	C28.85,68,29.15,68.1,29.5,68.1c0.4,0,0.8-0.15,1.163-0.412c0.362-0.262,0.688-0.637,0.938-1.088s0.475-0.975,0.638-1.562
	S32.5,63.8,32.5,63.1c0-0.65-0.075-1.3-0.225-1.9c-0.15-0.6-0.375-1.15-0.675-1.6s-0.625-0.825-0.975-1.088
	C30.275,58.25,29.9,58.1,29.5,58.1c-0.25,0-0.5,0.05-0.75,0.162C28.5,58.375,28.25,58.55,28,58.8c-0.2,0.2-0.4,0.475-0.587,0.787
	C27.225,59.9,27.05,60.25,26.9,60.6c0,0.35,0,0.725,0,1.1s0,0.75,0,1.1c-0.05,0.4-0.075,0.775-0.1,1.138
	C26.775,64.3,26.75,64.65,26.7,65z M29.5,59.7c0.25,0,0.5,0.1,0.737,0.275C30.475,60.15,30.7,60.4,30.9,60.7s0.35,0.675,0.45,1.1
	s0.15,0.9,0.15,1.4c0,0.5-0.05,0.95-0.15,1.362S31.1,65.35,30.9,65.7c-0.2,0.3-0.4,0.55-0.625,0.725C30.05,66.6,29.8,66.7,29.5,66.7
	s-0.55-0.1-0.775-0.275C28.5,66.25,28.3,66,28.1,65.7s-0.35-0.675-0.45-1.1c-0.1-0.425-0.15-0.9-0.15-1.4s0.05-0.95,0.15-1.362
	c0.1-0.413,0.25-0.788,0.45-1.138c0.15-0.3,0.35-0.55,0.587-0.725S29.2,59.7,29.5,59.7L29.5,59.7L29.5,59.7L29.5,59.7L29.5,59.7z"/>
<path style="fill:#C7C7C7;" d="M29.5,55.9c-0.25,0-0.5,0.025-0.75,0.075S28.25,56.1,28,56.2s-0.475,0.2-0.688,0.312
	S26.9,56.75,26.7,56.9c0.05,0.3,0.075,0.625,0.1,0.95s0.05,0.65,0.1,0.95c0,0.3,0.025,0.625,0.05,0.95
	C26.975,60.075,27,60.4,27,60.7c0.15-0.35,0.3-0.7,0.475-1.013C27.65,59.375,27.85,59.1,28.1,58.9s0.475-0.375,0.712-0.5
	c0.238-0.125,0.488-0.2,0.788-0.2c0.4,0,0.8,0.15,1.163,0.412c0.362,0.263,0.688,0.638,0.938,1.088
	c0.25,0.45,0.475,0.975,0.637,1.562C32.5,61.85,32.6,62.5,32.6,63.2s-0.075,1.35-0.225,1.938C32.225,65.725,32,66.25,31.7,66.7
	c-0.25,0.45-0.575,0.825-0.938,1.088C30.4,68.05,30,68.2,29.6,68.2c-0.3,0-0.6-0.075-0.888-0.225
	C28.425,67.825,28.15,67.6,27.9,67.3s-0.475-0.65-0.675-1.037C27.025,65.875,26.85,65.45,26.7,65c0,0.3-0.025,0.6-0.062,0.887
	S26.55,66.45,26.5,66.7c-0.05,0.3-0.1,0.575-0.138,0.838C26.325,67.8,26.3,68.05,26.3,68.3c0,0.05,0,0.1,0,0.15c0,0.05,0,0.1,0,0.15
	s-0.025,0.1-0.05,0.15c-0.025,0.05-0.05,0.1-0.05,0.15c0.2,0.25,0.425,0.475,0.675,0.662S27.4,69.9,27.7,70
	c0.3,0.15,0.6,0.25,0.9,0.312c0.3,0.062,0.6,0.088,0.9,0.088c0.75,0,1.45-0.2,2.087-0.562C32.225,69.475,32.8,68.95,33.3,68.3
	c0.5-0.65,0.875-1.425,1.125-2.3s0.375-1.85,0.375-2.9s-0.15-2.025-0.412-2.9s-0.638-1.65-1.088-2.3c-0.5-0.6-1.075-1.1-1.712-1.45
	C30.95,56.1,30.25,55.9,29.5,55.9z"/>
<path style="fill:#C7C7C7;" d="M29.5,66.7c0.25,0,0.5-0.1,0.737-0.275C30.475,66.25,30.7,66,30.9,65.7s0.35-0.675,0.45-1.1
	c0.1-0.425,0.15-0.9,0.15-1.4s-0.05-0.95-0.15-1.362c-0.1-0.413-0.25-0.788-0.45-1.138s-0.4-0.6-0.625-0.763
	C30.05,59.775,29.8,59.7,29.5,59.7s-0.55,0.1-0.775,0.275C28.5,60.15,28.3,60.4,28.1,60.7s-0.35,0.675-0.45,1.1
	c-0.1,0.425-0.15,0.9-0.15,1.4s0.05,0.95,0.15,1.363c0.1,0.412,0.25,0.787,0.45,1.137c0.15,0.3,0.35,0.55,0.587,0.725
	C28.925,66.6,29.2,66.7,29.5,66.7z"/>
<path style="fill:#C7C7C7;" d="M46.3,30.6v-0.5v-0.5v-0.5v-0.5c0-0.15-0.05-0.325-0.125-0.5S46,27.75,45.9,27.6
	c-0.15-0.15-0.3-0.3-0.45-0.413C45.3,27.075,45.15,27,45,27s-0.3,0.05-0.438,0.15c-0.137,0.1-0.262,0.25-0.362,0.45
	c-0.1,0.15-0.2,0.325-0.275,0.487S43.8,28.4,43.8,28.5v0.55v0.55v0.55v0.55h-1.25H41.3h-1.25H38.8l-0.7,0.65L37.4,32l-0.7,0.65
	L36,33.3h0.5H37h0.5H38l-0.6,2.15l-0.6,2.15l-0.6,2.15l-0.6,2.15l-2.9,0.3l-2.9,0.3l-2.9,0.15L24,42.8l-0.25,0.75L23.5,44.3
	l-0.25,0.75L23,45.8h-1.85H19.3h-1.85H15.6v0.5v0.5v0.5v0.5h0.45h0.45h0.45h0.45l0.75,1.15l0.75,1.15l0.75,1.15l0.75,1.15l-2.3,1.4
	l-2.3,1.4l-2.3,1.4L11.2,58v0.05v0.05v0.05v0.05c-0.1,1-0.2,2.125-0.3,3.263c-0.1,1.138-0.2,2.287-0.3,3.338
	c-0.1,1.05-0.175,1.975-0.238,2.65c-0.062,0.675-0.113,1.1-0.162,1.15c-0.05,0.15-0.075,0.275,0.025,0.4S10.55,69.25,11,69.4
	s1.125,0.35,2.137,0.625S15.5,70.65,17.3,71.1c0.65,0.15,1.35,0.325,2.037,0.5s1.363,0.35,1.963,0.5s1.15,0.3,1.575,0.425
	C23.3,72.65,23.6,72.75,23.7,72.8l0.05,0.05l0.05,0.05l0.05,0.05L23.9,73l0.05-0.05L24,72.9l0.05-0.05l0.05-0.05
	c0.2-0.1,0.375-0.25,0.538-0.45c0.163-0.2,0.312-0.45,0.462-0.75c0.15-0.35,0.3-0.75,0.438-1.2c0.137-0.45,0.262-0.95,0.362-1.5
	c0-0.05,0-0.1,0-0.15c0-0.05,0-0.1,0-0.15c0-0.05,0.025-0.1,0.05-0.15C25.975,68.4,26,68.35,26,68.3c0.05-0.25,0.1-0.5,0.138-0.762
	C26.175,67.275,26.2,67,26.2,66.7c0.05-0.3,0.075-0.575,0.1-0.85s0.05-0.55,0.1-0.85c0.05-0.35,0.075-0.7,0.087-1.05
	C26.5,63.6,26.5,63.25,26.5,62.9s0-0.725,0-1.1s0-0.75,0-1.1c0-0.3,0-0.625-0.013-0.95c-0.012-0.325-0.038-0.65-0.087-0.95
	s-0.075-0.625-0.1-0.95s-0.05-0.65-0.1-0.95c-0.05-0.45-0.1-0.9-0.163-1.35c-0.062-0.45-0.137-0.9-0.237-1.35
	s-0.225-0.875-0.375-1.3S25.1,52.05,24.9,51.6l0.05-0.05L25,51.5l0.05-0.05l0.05-0.05l1.75,0.05l1.75,0.05l1.75,0.05l1.75,0.05
	l1,1.85l1,1.85l1,1.85l1,1.85v1.25v1.25v1.25V64h2.85h2.85h2.85h2.85v-8.3v-8.3V39v-8.4h-0.45H46.6h-0.15H46.3z M19.8,47.8h0.65
	h0.65h0.65h0.65l-0.2,0.65L22,49.1l-0.2,0.65l-0.2,0.65l-0.45-0.65L20.7,49.1l-0.45-0.65L19.8,47.8z M25.8,57.8
	c0.05,0.85,0.075,1.675,0.087,2.5c0.013,0.825,0.013,1.65,0.013,2.5c-0.05,0.85-0.1,1.675-0.175,2.5
	c-0.075,0.825-0.175,1.65-0.325,2.5v0.05v0.05v0.05V68c-0.1,0.6-0.2,1.1-0.312,1.525C24.975,69.95,24.85,70.3,24.7,70.6
	c-0.1,0.3-0.2,0.525-0.3,0.7c-0.1,0.175-0.2,0.3-0.3,0.4c-0.2-0.05-0.475-0.125-0.837-0.225C22.9,71.375,22.45,71.25,21.9,71.1
	s-1.175-0.3-1.888-0.475C19.3,70.45,18.5,70.25,17.6,70c-0.6-0.15-1.225-0.3-1.85-0.45c-0.625-0.15-1.25-0.3-1.85-0.45
	s-1.15-0.3-1.6-0.425c-0.45-0.125-0.8-0.225-1-0.275c0.05-0.4,0.125-1.1,0.2-1.95c0.075-0.85,0.15-1.85,0.2-2.85
	c0.1-1,0.2-2.025,0.275-2.925S12.1,59,12.1,58.5l2.1-1.3l2.1-1.3l2.1-1.3l2.1-1.3l-0.05,0.1l-0.05,0.1l-0.05,0.1l-0.05,0.1l1-0.45
	l1-0.45l1-0.45l1-0.45c0.2,0.45,0.375,0.925,0.525,1.4c0.15,0.475,0.275,0.95,0.375,1.4s0.225,1,0.337,1.55
	C25.65,56.8,25.75,57.35,25.8,57.8L25.8,57.8L25.8,57.8L25.8,57.8L25.8,57.8z M38.5,42.4h-0.4h-0.4h-0.4h-0.4l0.4-1.65l0.4-1.65
	l0.4-1.65l0.4-1.65v1.65v1.65v1.65V42.4z M46.3,42.4h-1.55H43.2h-1.55H40.1v-1.95V38.5v-1.95V34.6h1.55h1.55h1.55h1.55v1.95v1.95
	v1.95V42.4z"/>
</svg>
