<svg xmlns="http://www.w3.org/2000/svg" viewBox="0 0 100 100"><path d="M14.49,55.06c1.57-.44,4.76-1.37,5.63-1.62,0,0,8.67-8.38,10.09-8.38h7.43V67.28H15c-.47,0-2.7-.51-2.7-4.48V57.69a3,3,0,0,1,2.15-2.63" fill="#fff"/><path d="M37.89,67.53H15c-.82,0-2.95-.85-2.95-4.73V57.69a3.23,3.23,0,0,1,2.33-2.87l4.94-1.42.64-.18c1.55-1.51,8.77-8.4,10.21-8.4h7.68ZM30.21,45.32c-1,0-6.59,5.09-9.91,8.3l-.11.06-.69.2L14.56,55.3a2.7,2.7,0,0,0-2,2.39V62.8C12.59,66.92,15,67,15,67H37.39V45.32Z" fill="#646464"/><path d="M33.64,53.7H20.12v-.5H33.64c1.36,0,1.65-.51,1.65-.71V48.41c0-.21,0-.86-1.24-.86h-7v-.5h7c1.57,0,1.74,1,1.74,1.36v4.08C35.79,52.94,35.34,53.7,33.64,53.7Z" fill="#646464"/><rect x="17.02" y="58.1" width="18.13" height="0.5" fill="#646464"/><polygon points="24.84 52.42 24.4 52.19 27.15 47.18 27.59 47.42 24.84 52.42" fill="#646464"/><rect x="23.03" y="51.03" width="1.58" height="4.42" rx="0.67" fill="#fff"/><path d="M24,55.69H23.7a.92.92,0,0,1-.91-.92V51.69a.91.91,0,0,1,.91-.91H24a.92.92,0,0,1,.92.91v3.08A.92.92,0,0,1,24,55.69Zm-.25-4.41a.41.41,0,0,0-.41.41v3.08a.41.41,0,0,0,.41.42H24a.42.42,0,0,0,.42-.42V51.69a.41.41,0,0,0-.42-.41Z" fill="#646464"/><path d="M12.34,63.05v-.5c1.62,0,1.74-2.93,1.74-3.82a.57.57,0,0,0-.16-.42,2,2,0,0,0-1.53-.37l-.05-.25,0-.25a2.8,2.8,0,0,1,1.89.51,1.06,1.06,0,0,1,.31.78C14.58,59.74,14.42,63.05,12.34,63.05Zm0-5.36v0Z" fill="#646464"/><rect x="10.66" y="63.59" width="4.22" height="2.98" rx="0.77" fill="#fff"/><path d="M14.12,66.82h-2.7a1,1,0,0,1-1-1V64.35a1,1,0,0,1,1-1h2.7a1,1,0,0,1,1,1V65.8A1,1,0,0,1,14.12,66.82Zm-2.7-3a.51.51,0,0,0-.51.51V65.8a.52.52,0,0,0,.51.52h2.7a.52.52,0,0,0,.51-.52V64.35a.51.51,0,0,0-.51-.51Z" fill="#646464"/><rect x="37.64" y="31.12" width="49.87" height="36.16" fill="#fff"/><path d="M87.76,67.53H37.39V30.87H87.76ZM37.89,67H87.26V31.37H37.89Z" fill="#646464"/><rect x="85.05" y="64.01" width="4.3" height="3.38" rx="0.82" fill="#fff"/><path d="M88.52,67.64H85.87a1.08,1.08,0,0,1-1.08-1.07V64.83a1.08,1.08,0,0,1,1.08-1.07h2.65a1.07,1.07,0,0,1,1.07,1.07v1.74A1.07,1.07,0,0,1,88.52,67.64Zm-2.65-3.38a.58.58,0,0,0-.58.57v1.74a.58.58,0,0,0,.58.57h2.65a.58.58,0,0,0,.57-.57V64.83a.58.58,0,0,0-.57-.57Z" fill="#646464"/><ellipse cx="32.74" cy="43.72" rx="1.88" ry="1.34" fill="#fff"/><path d="M32.74,45.32c-1.18,0-2.13-.72-2.13-1.6s.95-1.59,2.13-1.59,2.13.72,2.13,1.59S33.92,45.32,32.74,45.32Zm0-2.69c-.88,0-1.63.5-1.63,1.09s.75,1.1,1.63,1.1,1.63-.5,1.63-1.1S33.63,42.63,32.74,42.63Z" fill="#646464"/><path d="M69.52,60.66h3a4.19,4.19,0,0,1,4.19,4.19v2.44a0,0,0,0,1,0,0H65.33a0,0,0,0,1,0,0V64.85A4.19,4.19,0,0,1,69.52,60.66Z" fill="#969696"/><path d="M77,67.53H65.08V64.85a4.44,4.44,0,0,1,4.44-4.44h3A4.44,4.44,0,0,1,77,64.85ZM65.58,67H76.51V64.85a3.94,3.94,0,0,0-3.94-3.94h-3a3.94,3.94,0,0,0-3.94,3.94Z" fill="#646464"/><circle cx="71.04" cy="67.16" r="5.2" fill="#323232"/><circle cx="71.04" cy="67.16" r="2.8" fill="#fff"/><path d="M19.71,60.66h3a4.19,4.19,0,0,1,4.19,4.19v2.44a0,0,0,0,1,0,0H15.52a0,0,0,0,1,0,0V64.85A4.19,4.19,0,0,1,19.71,60.66Z" fill="#969696"/><path d="M27.2,67.53H15.27V64.85a4.44,4.44,0,0,1,4.44-4.44h3.05a4.44,4.44,0,0,1,4.44,4.44ZM15.77,67H26.7V64.85a3.94,3.94,0,0,0-3.94-3.94H19.71a3.94,3.94,0,0,0-3.94,3.94Z" fill="#646464"/><circle cx="21.23" cy="67.16" r="5.2" fill="#323232"/><circle cx="21.23" cy="67.16" r="2.8" fill="#fff"/><path d="M50.73,50.36H44.49v4.32h7v3.38H40.64V39.85H51.1v3.38H44.49V47h6.24Z"/><path d="M69,48.76c0,6-3.14,9.59-7.75,9.59s-7.43-4.08-7.43-9.26c0-5.46,3-9.54,7.68-9.54C66.33,39.55,69,43.74,69,48.76ZM57.56,49c0,3.56,1.45,6.07,3.84,6.07s3.8-2.64,3.8-6.18c0-3.27-1.36-6.08-3.82-6.08S57.56,45.47,57.56,49Z"/><path d="M71.75,40.09a28.53,28.53,0,0,1,4.88-.38c3,0,5,.62,6.54,1.95s2.7,3.64,2.7,6.86c0,3.48-1.12,5.89-2.66,7.37S79,58.24,75.84,58.24A26.7,26.7,0,0,1,71.75,58ZM75.37,55a6,6,0,0,0,1.26.08c3.27,0,5.4-2,5.4-6.38,0-3.78-1.92-5.78-5-5.78a6.6,6.6,0,0,0-1.64.17Z"/><circle cx="41.01" cy="34.91" r="1.32" fill="#fff"/><path d="M41,36.48a1.57,1.57,0,1,1,1.57-1.57A1.57,1.57,0,0,1,41,36.48Zm0-2.64a1.07,1.07,0,1,0,1.07,1.07A1.07,1.07,0,0,0,41,33.84Z" fill="#646464"/><circle cx="84.2" cy="34.91" r="1.32" fill="#fff"/><path d="M84.2,36.48a1.57,1.57,0,1,1,1.57-1.57A1.57,1.57,0,0,1,84.2,36.48Zm0-2.64a1.07,1.07,0,1,0,1.07,1.07A1.07,1.07,0,0,0,84.2,33.84Z" fill="#646464"/></svg>