<svg xmlns="http://www.w3.org/2000/svg" viewBox="0 0 100 100"><path d="M31.21,36.58c-2.72,0-8.53,10.73-9.23,11.27s-3.87.81-5.31,1.74C15,50.68,15.5,54,15.5,54.84V62c0,4.45,2.75,5,3.34,5H37.75V36.58Z" fill="#fff"/><path d="M38.5,67.79H18.84c-1.14,0-4.09-1-4.09-5.79V54.83c0-.11,0-.27,0-.47-.09-1.37-.27-4.24,1.53-5.4a12.06,12.06,0,0,1,3.52-1.2,8.35,8.35,0,0,0,1.75-.51c.13-.14.73-1.09,1.31-2,3.14-5,6.14-9.42,8.37-9.42H38.5ZM31.21,37.33c-1.59,0-5.6,6.33-7.11,8.72a11.72,11.72,0,0,1-1.66,2.39,6.48,6.48,0,0,1-2.32.78,11.49,11.49,0,0,0-3.05,1c-1.06.69-.91,3-.84,4.05,0,.24,0,.43,0,.56V62c0,4.17,2.56,4.29,2.59,4.29H37v-29Z" fill="#969696"/><path d="M21.29,48.84v-1.5l7.18-.15L34,47.07c1,0,1.25-.28,1.28-.36v-5.9c0-.19,0-.49-.85-.49H27.61v-1.5h6.84c1.73,0,2.35,1,2.35,2v5.94c0,.67-.59,1.82-2.78,1.82l-5.51.12C25.16,48.77,21.7,48.84,21.29,48.84Z" fill="#969696"/><rect x="18.76" y="53.04" width="17.29" height="1.5" fill="#969696"/><path d="M35.85,36.37H31.14V34a2.3,2.3,0,0,1,2.29-2.29h.13A2.3,2.3,0,0,1,35.85,34Zm-3.21-1.5h1.71V34a.79.79,0,0,0-.79-.79h-.13a.8.8,0,0,0-.79.79Z" fill="#969696"/><rect x="23.98" y="42.41" width="6.69" height="1" transform="translate(-22.6 52.69) rotate(-68.59)" fill="#969696"/><rect x="24.34" y="43.66" width="2.49" height="7.19" rx="1.2" fill="#969696"/><path d="M15.5,59.57v-1.5a.69.69,0,0,0,.55-.2c.53-.55.45-2.18.4-3.06,0-.27,0-.51,0-.7a.36.36,0,0,0,0-.21c-.07-.07-.31-.1-.71-.08H15.5v-1.5h.1a2.39,2.39,0,0,1,1.82.5,1.71,1.71,0,0,1,.5,1.29c0,.17,0,.38,0,.62.06,1.26.16,3.15-.81,4.17A2.18,2.18,0,0,1,15.5,59.57Z" fill="#969696"/><path d="M21.16,57h3.15a3.38,3.38,0,0,1,3.38,3.38v5.14a0,0,0,0,1,0,0H17.78a0,0,0,0,1,0,0V60.4A3.38,3.38,0,0,1,21.16,57Z" fill="#969696"/><path d="M23,73.83c-3.34,0-5.95-3.4-5.95-7.75s2.61-7.76,5.95-7.76,5.95,3.41,5.95,7.76S26.29,73.83,23,73.83ZM22.9,63.32a3.77,3.77,0,0,0-.9,2.76A3.53,3.53,0,0,0,23,68.82a3.53,3.53,0,0,0,.95-2.74A3.32,3.32,0,0,0,22.9,63.32Z" fill="#969696"/><path d="M23,71.83c-2.22,0-3.95-2.52-3.95-5.75s1.73-5.76,3.95-5.76,3.95,2.53,3.95,5.76S25.16,71.83,23,71.83Zm0-10.51c-1.6,0-2.95,2.18-2.95,4.76s1.35,4.75,2.95,4.75,2.95-2.17,2.95-4.75S24.55,61.32,23,61.32Z" fill="#323232"/><ellipse cx="22.95" cy="66.08" rx="2.28" ry="3.47" fill="#fff"/><rect x="13.42" y="61.08" width="4.54" height="4.2" rx="0.94" fill="#fff"/><path d="M17,65.77H14.36a1.44,1.44,0,0,1-1.44-1.44V62a1.44,1.44,0,0,1,1.44-1.44H17A1.44,1.44,0,0,1,18.47,62v2.31A1.44,1.44,0,0,1,17,65.77Zm-2.66-4.19a.44.44,0,0,0-.44.44v2.31a.44.44,0,0,0,.44.44H17a.45.45,0,0,0,.45-.44V62a.45.45,0,0,0-.45-.44Z" fill="#969696"/><rect x="28.65" y="65.39" width="36.91" height="2.3" fill="#969696"/><rect x="37.75" y="26.92" width="45.97" height="39.16" rx="4.34" fill="#fff"/><path d="M79.38,66.83H42.08A5.1,5.1,0,0,1,37,61.74V31.25a5.09,5.09,0,0,1,5.08-5.08h37.3a5.09,5.09,0,0,1,5.09,5.08V61.74A5.1,5.1,0,0,1,79.38,66.83ZM42.08,27.67a3.59,3.59,0,0,0-3.58,3.58V61.74a3.59,3.59,0,0,0,3.58,3.59h37.3A3.59,3.59,0,0,0,83,61.74V31.25a3.59,3.59,0,0,0-3.59-3.58Z" fill="#969696"/><path d="M68.82,56.35h3.39A3.65,3.65,0,0,1,75.86,60v5.54a0,0,0,0,1,0,0H65.17a0,0,0,0,1,0,0V60a3.65,3.65,0,0,1,3.65-3.65Z" fill="#969696"/><path d="M70.73,73.83c-3.34,0-6-3.4-6-7.75s2.61-7.76,6-7.76,6,3.41,6,7.76S74.06,73.83,70.73,73.83Zm0-10.49a4.43,4.43,0,0,0,0,5.48,4.43,4.43,0,0,0,0-5.48Z" fill="#969696"/><path d="M70.73,71.83c-2.22,0-4-2.52-4-5.75s1.73-5.76,4-5.76,4,2.53,4,5.76S72.94,71.83,70.73,71.83Zm0-10.51c-1.6,0-3,2.18-3,4.76s1.35,4.75,3,4.75,3-2.17,3-4.75S72.33,61.32,70.73,61.32Z" fill="#323232"/><ellipse cx="70.73" cy="66.08" rx="2.28" ry="3.47" fill="#fff"/><rect x="82.04" y="61.08" width="4.54" height="4.2" rx="0.94" fill="#fff"/><path d="M85.64,65.77H83a1.43,1.43,0,0,1-1.44-1.44V62A1.43,1.43,0,0,1,83,60.58h2.66A1.44,1.44,0,0,1,87.08,62v2.31A1.44,1.44,0,0,1,85.64,65.77ZM83,61.58a.44.44,0,0,0-.44.44v2.31a.44.44,0,0,0,.44.44h2.66a.44.44,0,0,0,.44-.44V62a.44.44,0,0,0-.44-.44Z" fill="#969696"/><rect x="40.44" y="34.01" width="9.44" height="12.21" rx="1" fill="#fff"/><path d="M48.88,47H41.44a1.75,1.75,0,0,1-1.75-1.75V35a1.76,1.76,0,0,1,1.75-1.75h7.44A1.75,1.75,0,0,1,50.63,35V45.22A1.75,1.75,0,0,1,48.88,47ZM41.44,34.76a.25.25,0,0,0-.25.25V45.22a.25.25,0,0,0,.25.25h7.44a.25.25,0,0,0,.25-.25V35a.25.25,0,0,0-.25-.25Z" fill="#969696"/><rect x="50.93" y="34.01" width="9.44" height="12.21" rx="1" fill="#fff"/><path d="M59.37,47H51.93a1.75,1.75,0,0,1-1.75-1.75V35a1.76,1.76,0,0,1,1.75-1.75h7.44A1.76,1.76,0,0,1,61.12,35V45.22A1.75,1.75,0,0,1,59.37,47ZM51.93,34.76a.25.25,0,0,0-.25.25V45.22a.25.25,0,0,0,.25.25h7.44a.25.25,0,0,0,.25-.25V35a.25.25,0,0,0-.25-.25Z" fill="#969696"/><rect x="61.42" y="34.01" width="9.44" height="12.21" rx="1" fill="#fff"/><path d="M69.86,47H62.42a1.75,1.75,0,0,1-1.75-1.75V35a1.75,1.75,0,0,1,1.75-1.75h7.44A1.75,1.75,0,0,1,71.6,35V45.22A1.74,1.74,0,0,1,69.86,47ZM62.42,34.76a.25.25,0,0,0-.25.25V45.22a.25.25,0,0,0,.25.25h7.44a.25.25,0,0,0,.24-.25V35a.25.25,0,0,0-.24-.25Z" fill="#969696"/><rect x="71.91" y="34.01" width="9.44" height="12.21" rx="1" fill="#fff"/><path d="M80.34,47H72.9a1.74,1.74,0,0,1-1.74-1.75V35a1.75,1.75,0,0,1,1.74-1.75h7.44A1.75,1.75,0,0,1,82.09,35V45.22A1.75,1.75,0,0,1,80.34,47ZM72.9,34.76a.25.25,0,0,0-.24.25V45.22a.25.25,0,0,0,.24.25h7.44a.25.25,0,0,0,.25-.25V35a.25.25,0,0,0-.25-.25Z" fill="#969696"/><ellipse cx="80.6" cy="30.52" rx="1.28" ry="1.77" fill="#fff"/><path d="M80.6,33a2.3,2.3,0,0,1-2-2.52,2.08,2.08,0,1,1,4.06,0A2.29,2.29,0,0,1,80.6,33Zm0-3.55c-.21,0-.53.41-.53,1s.32,1,.53,1,.53-.41.53-1S80.81,29.49,80.6,29.49Z" fill="#969696"/><ellipse cx="40.85" cy="30.52" rx="1.28" ry="1.77" fill="#fff"/><path d="M40.85,33a2.29,2.29,0,0,1-2-2.52,2.29,2.29,0,0,1,2-2.53,2.29,2.29,0,0,1,2,2.53A2.29,2.29,0,0,1,40.85,33Zm0-3.55c-.21,0-.53.41-.53,1s.32,1,.53,1,.53-.41.53-1S41.06,29.49,40.85,29.49Z" fill="#969696"/></svg>