<svg xmlns="http://www.w3.org/2000/svg" viewBox="0 0 100 100"><path d="M83.5,47.13h-.91V44.08H41.33V45H34.91a.8.8,0,0,0-.83-.9H20c-1.85,0-3,6.8-3,7.47v7.87a3.1,3.1,0,0,0,.1.81h-.63a.53.53,0,0,0-.51.55v1.27a.53.53,0,0,0,.51.55h2.07a.49.49,0,0,0,.3-.12,3.6,3.6,0,0,0,1.78.58h5.15c0,.06,0,.11,0,.16,0,2,1.3,3.68,2.9,3.68s2.9-1.65,2.9-3.68c0,0,0-.1,0-.16H54.31c0,.06,0,.11,0,.16,0,2,1.3,3.68,2.9,3.68s2.9-1.65,2.9-3.68c0,0,0-.1,0-.16h3a1,1,0,0,0,0,.16c0,2,1.3,3.68,2.9,3.68s2.9-1.65,2.9-3.68c0,0,0-.1,0-.16H85.27v-14A1.86,1.86,0,0,0,83.5,47.13Z" fill="#fff"/><rect x="41.33" y="44.08" width="10.53" height="18.98" fill="#ececec"/><rect x="71.2" y="44.08" width="11.39" height="18.98" fill="#ececec"/><rect x="51.86" y="44.08" width="19.34" height="11.66" fill="#ececec"/><path d="M83.29,63.82H40.63V43.32H83.29ZM42,62.3H81.9V44.84H42Z" fill="#979797"/><path d="M41.33,63.82H20.64a4.61,4.61,0,0,1-4.32-4.4V51.55c0-.08.92-8.23,3.7-8.23H34.08a1.45,1.45,0,0,1,1.38.9h5.87v1.52H34.21V45a.45.45,0,0,0,0-.12h0a.44.44,0,0,0-.12,0H20c-.93,0-2.28,5.32-2.3,6.71v7.87a3.18,3.18,0,0,0,2.92,2.88H41.33Z" fill="#979797"/><rect x="34.21" y="44.98" width="1.4" height="18.08" fill="#979797"/><path d="M17,52.79V51.65s3.81-.32,3.81-7.57h1.05C21.88,51.19,18.28,52.79,17,52.79Z" fill="#979797"/><path d="M25.11,51.65H23.85a2.28,2.28,0,0,1-2.18-2.37V47.13a2.28,2.28,0,0,1,2.18-2.37h1.26a2.28,2.28,0,0,1,2.18,2.37v2.15A2.28,2.28,0,0,1,25.11,51.65ZM23.85,45.9a1.19,1.19,0,0,0-1.13,1.23v2.15a1.19,1.19,0,0,0,1.13,1.23h1.26a1.19,1.19,0,0,0,1.13-1.23V47.13a1.19,1.19,0,0,0-1.13-1.23Z" fill="#979797"/><path d="M32.35,51.65H31.19A2.26,2.26,0,0,1,29,49.31v-2.2a2.26,2.26,0,0,1,2.16-2.35h1.16a2.26,2.26,0,0,1,2.16,2.35v2.2A2.26,2.26,0,0,1,32.35,51.65ZM31.19,45.9a1.16,1.16,0,0,0-1.11,1.21v2.2a1.16,1.16,0,0,0,1.11,1.2h1.16a1.16,1.16,0,0,0,1.11-1.2v-2.2a1.16,1.16,0,0,0-1.11-1.21Z" fill="#979797"/><path d="M28.83,51.65H27.49a1.3,1.3,0,0,1-1.25-1.35V46.11a1.31,1.31,0,0,1,1.25-1.35h1.34a1.31,1.31,0,0,1,1.25,1.35V50.3A1.3,1.3,0,0,1,28.83,51.65ZM27.49,45.9a.2.2,0,0,0-.2.21V50.3a.2.2,0,0,0,.2.21h1.34a.2.2,0,0,0,.2-.21V46.11a.2.2,0,0,0-.2-.21Z" fill="#979797"/><polygon points="32.51 55.82 28.76 55.82 28.76 53.41 30.71 53.41 30.71 53.76 31.41 53.76 31.41 53.41 32.51 53.41 32.51 55.82" fill="#979797"/><rect x="17.02" y="58.98" width="17.89" height="1.14" fill="#979797"/><rect x="15.98" y="60.23" width="3.08" height="2.38" rx="0.53" fill="#fff"/><path d="M18.56,63.17H16.49a1.08,1.08,0,0,1-1-1.12V60.78a1.08,1.08,0,0,1,1-1.12h2.07a1.08,1.08,0,0,1,1,1.12v1.27A1.08,1.08,0,0,1,18.56,63.17Zm0-2.39-2.05,0,0,1.25h2Zm0,1.26Z" fill="#979797"/><rect x="34.91" y="60.66" width="6.42" height="1.14" fill="#979797"/><rect x="34.91" y="49.73" width="6.42" height="1.14" fill="#979797"/><rect x="51.17" y="44.08" width="1.4" height="18.98" fill="#979797"/><rect x="70.51" y="44.08" width="1.4" height="18.98" fill="#979797"/><rect x="51.86" y="54.98" width="19.34" height="1.52" fill="#979797"/><rect x="61.85" y="44.08" width="1.4" height="11.66" fill="#979797"/><path d="M86,63.82H81.9V46.37h1.6A2.59,2.59,0,0,1,86,49.06ZM83.29,62.3h1.29V49.06a1.14,1.14,0,0,0-1.08-1.17h-.21Z" fill="#979797"/><path d="M37,48.08a1.36,1.36,0,1,1,1.25-1.35A1.3,1.3,0,0,1,37,48.08Zm0-1.76a.39.39,0,0,0-.37.41.39.39,0,0,0,.37.41.4.4,0,0,0,.38-.41A.39.39,0,0,0,37,46.32Z" fill="#979797"/><path d="M39.27,48.08a1.36,1.36,0,1,1,1.25-1.35A1.3,1.3,0,0,1,39.27,48.08Zm0-1.76a.39.39,0,0,0-.38.41.4.4,0,0,0,.38.41.39.39,0,0,0,.37-.41A.39.39,0,0,0,39.27,46.32Z" fill="#979797"/><path d="M37,50.2a1.36,1.36,0,1,1,1.25-1.36A1.31,1.31,0,0,1,37,50.2Zm0-1.76a.41.41,0,0,0,0,.81.41.41,0,0,0,0-.81Z" fill="#979797"/><path d="M36.64,54.93a1.37,1.37,0,1,1,1.24-1.36A1.31,1.31,0,0,1,36.64,54.93Zm0-1.77a.4.4,0,0,0-.38.41.38.38,0,1,0,.75,0A.4.4,0,0,0,36.64,53.16Z" fill="#979797"/><path d="M39.6,54.93a1.36,1.36,0,1,1,1.25-1.36A1.31,1.31,0,0,1,39.6,54.93Zm0-1.77a.4.4,0,0,0-.37.41.38.38,0,1,0,.75,0A.4.4,0,0,0,39.6,53.16Z" fill="#979797"/><path d="M38,59.18c-.7,0-1.25-.8-1.25-1.83s.55-1.83,1.25-1.83,1.25.8,1.25,1.83S38.68,59.18,38,59.18Zm0-2.71c-.13,0-.37.33-.37.88s.24.88.37.88.38-.33.38-.88S38.11,56.47,38,56.47Z" fill="#979797"/><path d="M39.27,50.2a1.36,1.36,0,1,1,1.25-1.36A1.31,1.31,0,0,1,39.27,50.2Zm0-1.76a.41.41,0,0,0,0,.81.41.41,0,0,0,0-.81Z" fill="#979797"/><path d="M28.68,68.32c-2.32,0-4.21-2.29-4.21-5.1s1.89-5.09,4.21-5.09,4.21,2.28,4.21,5.09S31,68.32,28.68,68.32Zm0-7.35c-.86,0-1.59,1-1.59,2.25s.73,2.26,1.59,2.26,1.59-1,1.59-2.26S29.55,61,28.68,61Z" fill="#979797"/><path d="M28.68,67.26c-1.78,0-3.23-1.81-3.23-4s1.45-4,3.23-4,3.23,1.81,3.23,4S30.46,67.26,28.68,67.26Zm0-7.36c-1.42,0-2.57,1.49-2.57,3.32s1.15,3.32,2.57,3.32,2.58-1.49,2.58-3.32S30.1,59.9,28.68,59.9Z" fill="#4d4d4d"/><ellipse cx="28.68" cy="63.22" rx="1.95" ry="2.47" fill="#fff"/><path d="M57.2,68.32C54.88,68.32,53,66,53,63.22s1.89-5.09,4.21-5.09,4.21,2.28,4.21,5.09S59.52,68.32,57.2,68.32Zm0-7.35c-.86,0-1.59,1-1.59,2.25s.73,2.26,1.59,2.26,1.59-1,1.59-2.26S58.06,61,57.2,61Z" fill="#979797"/><path d="M57.2,67.26c-1.78,0-3.23-1.81-3.23-4s1.45-4,3.23-4,3.23,1.81,3.23,4S59,67.26,57.2,67.26Zm0-7.36c-1.42,0-2.57,1.49-2.57,3.32s1.15,3.32,2.57,3.32,2.57-1.49,2.57-3.32S58.62,59.9,57.2,59.9Z" fill="#4d4d4d"/><ellipse cx="57.2" cy="63.22" rx="1.95" ry="2.47" fill="#fff"/><path d="M65.94,68.32c-2.32,0-4.21-2.29-4.21-5.1s1.89-5.09,4.21-5.09,4.21,2.28,4.21,5.09S68.27,68.32,65.94,68.32Zm0-7.35c-.86,0-1.59,1-1.59,2.25s.73,2.26,1.59,2.26,1.6-1,1.6-2.26S66.81,61,65.94,61Z" fill="#979797"/><path d="M65.94,67.26c-1.78,0-3.22-1.81-3.22-4s1.44-4,3.22-4,3.23,1.81,3.23,4S67.72,67.26,65.94,67.26Zm0-7.36c-1.42,0-2.57,1.49-2.57,3.32s1.15,3.32,2.57,3.32,2.58-1.49,2.58-3.32S67.36,59.9,65.94,59.9Z" fill="#4d4d4d"/><ellipse cx="65.94" cy="63.22" rx="1.95" ry="2.47" fill="#fff"/><path d="M81.84,42.71H69.08l6.38-8ZM71.37,41.57h8.18l-4.09-5.13Z" fill="#979797"/><path d="M28.15,42.85c-12.55,0-12.62-.11-12.79-.41a4.89,4.89,0,0,1,.12-4.63c.47-.84,1.31-1.74,1.82-1.74H74.61v1.14H17.39a4,4,0,0,0-1.33,1.89,3.57,3.57,0,0,0,.1,2.51c3.45.2,39.87,0,54.06,0v1.14s-13.56.08-27.15.12Z" fill="#979797"/><polygon points="48.87 42.69 48.13 42.67 43.68 37.45 38.67 42.68 37.93 42.66 33.33 37.45 28.37 42.69 27.61 42.65 23.45 37.47 18.69 42.63 17.82 42.4 16.29 37.16 17.29 36.82 18.56 41.17 23.1 36.24 23.87 36.27 28.04 41.45 32.98 36.23 33.72 36.25 38.32 41.46 43.34 36.23 44.09 36.25 48.54 41.47 53.64 36.23 54.38 36.24 59.06 41.39 63.88 36.24 64.62 36.24 69.52 41.75 68.77 42.54 64.23 37.45 59.43 42.6 58.69 42.6 53.99 37.44 48.87 42.69" fill="#979797"/><path d="M61.79,81H38.21a31,31,0,0,1,0-62H61.79a31,31,0,1,1,0,62ZM38.21,20a30,30,0,0,0,0,60H61.79a30,30,0,1,0,0-60Z" fill="#969696"/></svg>