<?xml version="1.0" encoding="iso-8859-1"?>
<!-- Generator: Adobe Illustrator 25.4.1, SVG Export Plug-In . SVG Version: 6.00 Build 0)  -->
<svg version="1.1" id="Layer_1" xmlns="http://www.w3.org/2000/svg" xmlns:xlink="http://www.w3.org/1999/xlink" x="0px" y="0px"
	 viewBox="0 0 100 100" style="enable-background:new 0 0 100 100;" xml:space="preserve">
<path style="fill:#FFA6A6;" d="M20.28,38.6c0.12-0.034,0.242-0.052,0.364-0.055c0.122-0.004,0.243,0.007,0.361,0.032
	s0.233,0.064,0.344,0.116c0.11,0.052,0.215,0.118,0.311,0.197c0.113-0.145,0.164-0.287,0.179-0.427
	c0.014-0.14-0.009-0.279-0.048-0.417c-0.038-0.138-0.091-0.276-0.135-0.415s-0.081-0.279-0.086-0.421
	c0.113,0.006,0.224,0.023,0.332,0.051s0.212,0.067,0.311,0.115s0.194,0.107,0.283,0.175s0.17,0.144,0.244,0.229
	c0.054-0.197,0.094-0.397,0.121-0.598c0.027-0.201,0.04-0.404,0.04-0.607s-0.014-0.405-0.04-0.607s-0.067-0.401-0.121-0.598
	c0.124-0.04,0.25-0.054,0.374-0.046c0.123,0.008,0.243,0.04,0.352,0.091c0.111,0.051,0.212,0.122,0.297,0.211
	s0.157,0.194,0.207,0.314h0.017h0.017h0.017h0.017l0.017-0.485l0.017-0.485l0.017-0.485L24.11,34
	c0.181,0.213,0.345,0.438,0.493,0.673c0.148,0.235,0.278,0.479,0.391,0.732c0.113,0.253,0.208,0.513,0.284,0.779
	c0.076,0.267,0.134,0.539,0.172,0.816h0.017h0.017h0.017h0.017l0.03-0.265l0.03-0.265l0.03-0.265l0.03-0.265
	c0.157,0.136,0.298,0.288,0.42,0.453c0.123,0.164,0.227,0.34,0.313,0.525s0.151,0.379,0.196,0.579s0.069,0.405,0.071,0.613
	c0.041-0.034,0.08-0.068,0.119-0.104c0.039-0.035,0.076-0.072,0.113-0.11c0.037-0.037,0.072-0.076,0.107-0.116
	c0.035-0.039,0.069-0.08,0.101-0.121c0.014-0.03,0.027-0.06,0.039-0.091c0.013-0.03,0.025-0.061,0.037-0.092
	c0.011-0.031,0.023-0.062,0.034-0.093c0.011-0.031,0.021-0.062,0.03-0.094c0.017-0.032,0.034-0.065,0.051-0.097
	c0.017-0.032,0.035-0.064,0.053-0.096c0.018-0.031,0.037-0.063,0.057-0.094c0.019-0.031,0.039-0.062,0.059-0.093
	c0.024,0.024,0.049,0.049,0.073,0.075s0.048,0.051,0.071,0.076c0.024,0.026,0.046,0.052,0.069,0.079
	c0.023,0.026,0.045,0.053,0.067,0.08c0.066,0.123,0.118,0.251,0.155,0.383c0.037,0.132,0.058,0.267,0.065,0.403
	s-0.001,0.273-0.025,0.408c-0.023,0.135-0.062,0.268-0.115,0.396c-0.014,0.042-0.026,0.084-0.037,0.127
	c-0.011,0.043-0.021,0.086-0.029,0.13s-0.015,0.087-0.021,0.131c-0.006,0.044-0.01,0.088-0.013,0.132
	c0.015-0.02,0.03-0.041,0.045-0.062c0.015-0.021,0.03-0.042,0.046-0.063s0.031-0.042,0.048-0.063
	c0.016-0.021,0.034-0.042,0.051-0.062c0.028-0.04,0.058-0.079,0.088-0.118c0.031-0.038,0.062-0.076,0.095-0.113
	c0.033-0.036,0.066-0.072,0.101-0.107c0.035-0.035,0.07-0.069,0.107-0.102c0.028-0.016,0.056-0.031,0.086-0.044
	c0.029-0.014,0.059-0.026,0.088-0.037s0.06-0.021,0.091-0.029s0.062-0.015,0.095-0.02c0.007,0.029,0.013,0.058,0.018,0.087
	c0.005,0.029,0.01,0.058,0.014,0.087s0.007,0.058,0.01,0.088c0.003,0.029,0.006,0.059,0.007,0.088
	c0.005,0.184-0.005,0.367-0.027,0.548s-0.059,0.36-0.108,0.535c-0.049,0.176-0.111,0.347-0.185,0.514
	c-0.074,0.167-0.161,0.328-0.26,0.483c-0.085,0.135-0.164,0.274-0.239,0.415c-0.075,0.141-0.146,0.285-0.215,0.429
	s-0.137,0.29-0.206,0.435s-0.138,0.289-0.21,0.431c-0.02,0.035-0.041,0.068-0.063,0.1c-0.022,0.032-0.046,0.063-0.071,0.094
	c-0.025,0.03-0.052,0.059-0.079,0.087c-0.028,0.028-0.057,0.054-0.087,0.079c-0.211,0.158-0.436,0.291-0.672,0.399
	c-0.235,0.108-0.481,0.19-0.732,0.247s-0.509,0.086-0.768,0.089s-0.52-0.022-0.778-0.075c-0.112-0.014-0.224-0.031-0.335-0.051
	s-0.222-0.042-0.332-0.067s-0.219-0.053-0.328-0.083c-0.109-0.03-0.217-0.063-0.325-0.099c-0.099-0.035-0.194-0.083-0.28-0.139
	c-0.087-0.057-0.167-0.123-0.238-0.198c-0.071-0.074-0.134-0.157-0.186-0.247c-0.052-0.089-0.095-0.185-0.126-0.286
	c-0.055-0.155-0.109-0.31-0.163-0.465s-0.107-0.31-0.16-0.466c-0.052-0.156-0.104-0.312-0.155-0.468
	c-0.051-0.156-0.102-0.313-0.152-0.471c-0.041-0.167-0.09-0.331-0.145-0.492c-0.056-0.162-0.119-0.321-0.19-0.477
	c-0.07-0.155-0.148-0.308-0.232-0.457c-0.084-0.149-0.175-0.294-0.273-0.434c-0.009-0.013-0.018-0.027-0.026-0.04
	c-0.008-0.014-0.016-0.028-0.024-0.042c-0.008-0.015-0.015-0.029-0.022-0.044C20.292,38.63,20.285,38.615,20.28,38.6z"/>
<polygon style="fill-rule:evenodd;clip-rule:evenodd;fill:#FFFFFF;" points="19.32,48.22 18.908,47.302 18.495,46.385 
	18.083,45.467 17.67,44.55 17.202,44.91 16.735,45.27 16.267,45.63 15.8,45.99 15.8,45.232 15.8,44.475 15.8,43.717 15.8,42.96 
	14.983,42.96 14.165,42.96 13.347,42.96 12.53,42.96 12.53,43.717 12.53,44.475 12.53,45.232 12.53,45.99 12.06,45.63 11.59,45.27 
	11.12,44.91 10.65,44.55 10.235,45.467 9.82,46.385 9.405,47.302 8.99,48.22 9.47,48.618 9.95,49.015 10.43,49.412 10.91,49.81 
	10.435,50.183 9.96,50.555 9.485,50.927 9.01,51.3 9.385,52.24 9.76,53.18 10.135,54.12 10.51,55.06 11.003,54.7 11.495,54.34 
	11.987,53.98 12.48,53.62 12.48,54.423 12.48,55.225 12.48,56.028 12.48,56.83 13.323,56.83 14.165,56.83 15.007,56.83 15.85,56.83 
	15.847,56.028 15.845,55.225 15.843,54.423 15.84,53.62 16.333,53.98 16.825,54.34 17.318,54.7 17.81,55.06 18.185,54.12 
	18.56,53.18 18.935,52.24 19.31,51.3 18.835,50.927 18.36,50.555 17.885,50.183 17.41,49.81 17.888,49.412 18.365,49.015 
	18.842,48.618 19.32,48.22 19.32,48.22 "/>
<path style="fill-rule:evenodd;clip-rule:evenodd;fill:#7A7ABD;" d="M14.08,48.37c0-0.053,0-0.117,0-0.184c0-0.068,0-0.139,0-0.205
	c0-0.066,0-0.126,0-0.172s0-0.079,0-0.089c-0.077-0.17-0.127-0.349-0.155-0.52s-0.034-0.335-0.025-0.476s0.033-0.258,0.065-0.335
	c0.032-0.078,0.073-0.116,0.115-0.098s0.091,0.035,0.141,0.049s0.101,0.025,0.149,0.03s0.091,0.002,0.126-0.01
	c0.035-0.012,0.061-0.034,0.074-0.069l0,0l0,0l0,0l0,0h-0.028h-0.028h-0.028H14.46c0,0,0.006,0,0.015,0c0.009,0,0.022,0,0.035,0
	s0.029,0,0.043,0s0.027,0,0.037,0s0.008-0.009-0.001-0.025c-0.009-0.016-0.026-0.038-0.046-0.064s-0.043-0.055-0.065-0.084
	c-0.022-0.029-0.043-0.06-0.058-0.087c-0.057-0.103-0.124-0.154-0.194-0.169c-0.07-0.015-0.144,0.007-0.215,0.051
	s-0.14,0.109-0.2,0.182s-0.112,0.153-0.15,0.226c-0.045,0.09-0.08,0.184-0.106,0.28s-0.042,0.194-0.049,0.292
	c-0.007,0.098-0.004,0.198,0.008,0.296c0.012,0.098,0.034,0.196,0.066,0.292c0.021,0.066,0.044,0.131,0.068,0.195
	c0.025,0.064,0.051,0.128,0.08,0.19s0.059,0.124,0.091,0.185c0.032,0.061,0.066,0.121,0.101,0.18
	c0.012,0.017,0.032,0.045,0.054,0.075s0.047,0.063,0.07,0.091s0.044,0.052,0.06,0.063c0.016,0.012,0.026,0.011,0.026-0.009
	l-0.012-0.02l-0.012-0.02l-0.012-0.02L14.08,48.37z M14.53,51.31c0.001,0.076-0.003,0.152-0.011,0.227
	c-0.008,0.075-0.02,0.15-0.036,0.223c-0.016,0.074-0.036,0.147-0.06,0.219s-0.052,0.142-0.083,0.211
	c-0.069,0.08-0.128,0.166-0.178,0.257c-0.05,0.091-0.089,0.187-0.118,0.286c-0.029,0.099-0.048,0.201-0.055,0.304
	c-0.007,0.103-0.004,0.208,0.011,0.313c0.042,0.315,0.073,0.496,0.095,0.59c0.022,0.094,0.035,0.102,0.044,0.069
	c0.008-0.033,0.011-0.107,0.011-0.174c0.001-0.067,0-0.128,0-0.135c-0.017-0.25-0.01-0.438,0.014-0.588s0.066-0.263,0.118-0.364
	c0.052-0.101,0.116-0.19,0.183-0.293s0.138-0.219,0.205-0.374c0.019-0.061,0.031-0.122,0.036-0.185s0.003-0.125-0.005-0.186
	c-0.009-0.062-0.024-0.122-0.046-0.181c-0.022-0.059-0.05-0.115-0.085-0.168h-0.015H14.54h-0.015H14.51l0.005-0.013l0.005-0.013
	l0.005-0.013L14.53,51.31z M14.05,46.39l0.023,0.75l0.023,0.75l0.023,0.75l0.023,0.75c0,0.045,0.024,0.038,0.059,0
	c0.036-0.038,0.083-0.108,0.131-0.189c0.048-0.081,0.095-0.172,0.131-0.254c0.036-0.082,0.059-0.154,0.059-0.197v-0.632v-0.632
	v-0.632V46.22c0,0.09-0.032,0.143-0.08,0.173c-0.048,0.03-0.112,0.036-0.175,0.033c-0.063-0.003-0.127-0.016-0.175-0.025
	c-0.048-0.009-0.08-0.014-0.08-0.001l0.01-0.003l0.01-0.002l0.01-0.002L14.05,46.39z M14.4,45.93c0,0.015,0.009,0.029,0.023,0.044
	s0.033,0.029,0.052,0.044s0.038,0.031,0.052,0.047c0.014,0.017,0.023,0.035,0.023,0.055v-0.25v-0.25v-0.25v-0.25
	c0-0.107-0.03-0.191-0.075-0.249s-0.106-0.089-0.167-0.092c-0.061-0.003-0.123,0.022-0.171,0.078S14.055,45,14.05,45.12v0.155v0.155
	v0.155v0.155c0,0.028,0.012,0.036,0.032,0.039c0.02,0.003,0.049-0.001,0.083,0.002s0.073,0.013,0.113,0.042
	c0.04,0.029,0.082,0.077,0.122,0.157v-0.013v-0.013c0,0,0-0.006,0-0.013C14.4,45.936,14.4,45.93,14.4,45.93z M14.46,54
	c0.014,0.077,0.019,0.154,0.016,0.231c-0.003,0.077-0.014,0.153-0.033,0.227s-0.045,0.146-0.079,0.215
	c-0.034,0.069-0.075,0.135-0.124,0.197c0.059-0.041,0.112-0.089,0.156-0.142c0.044-0.054,0.08-0.113,0.107-0.177
	s0.045-0.131,0.053-0.2c0.008-0.069,0.006-0.14-0.006-0.211c0,0-0.006-0.014-0.014-0.033c-0.009-0.019-0.02-0.044-0.031-0.067
	s-0.022-0.043-0.031-0.052C14.466,53.979,14.46,53.98,14.46,54z M14.46,51.52v-0.395V50.73v-0.395V49.94
	c0-0.025-0.018-0.016-0.045,0.014c-0.027,0.031-0.064,0.083-0.1,0.146c-0.036,0.062-0.073,0.135-0.1,0.206
	c-0.027,0.071-0.045,0.139-0.045,0.194v0.442v0.443v0.443v0.442c0,0.028,0.015,0.02,0.038-0.013
	c0.023-0.033,0.053-0.092,0.084-0.167c0.031-0.075,0.063-0.166,0.089-0.264c0.026-0.098,0.045-0.203,0.049-0.306h0.007h0.008
	c0,0,0.004,0,0.008,0S14.46,51.52,14.46,51.52z M14.46,54.37v-0.425V53.52v-0.425V52.67c-0.023,0.032-0.045,0.066-0.066,0.1
	c-0.021,0.034-0.04,0.07-0.057,0.106s-0.033,0.073-0.048,0.11c-0.014,0.037-0.028,0.075-0.039,0.114l0.015,0.403l0.015,0.403
	l0.015,0.403l0.015,0.403c0.016-0.026,0.031-0.053,0.044-0.08c0.014-0.027,0.026-0.055,0.037-0.084s0.021-0.058,0.029-0.087
	c0.008-0.029,0.015-0.059,0.02-0.089h0.005h0.005c0,0,0.002,0,0.005,0S14.46,54.37,14.46,54.37z M14.35,54.92v0.085v0.085v0.085
	v0.085l0,0l0,0l0,0l0,0v-0.118v-0.118v-0.117V54.79c0,0-0.006,0.006-0.014,0.016s-0.02,0.023-0.031,0.038s-0.022,0.03-0.031,0.043
	s-0.014,0.025-0.014,0.033h0.023h0.023c0,0,0.011,0,0.023,0S14.35,54.92,14.35,54.92z M14.16,46h0.023h0.023h0.023h0.023
	c0,0-0.004,0-0.011,0c-0.007,0-0.016,0-0.027,0c-0.01,0-0.02,0-0.029,0S14.165,46,14.16,46s-0.013,0-0.023,0s-0.02,0-0.029,0
	c-0.01,0-0.02,0-0.027,0s-0.011,0-0.011,0s0.005,0,0.013,0c0.008,0,0.018,0,0.028,0s0.021,0,0.03,0S14.157,46,14.16,46z
	 M18.86,48.08l-0.327-0.722l-0.328-0.722l-0.328-0.723L17.55,45.19l-0.522,0.403l-0.523,0.403l-0.522,0.403L15.46,46.8v-0.845V45.11
	v-0.845V43.42h-0.65h-0.65h-0.65h-0.65v0.84v0.84v0.84v0.84l-0.525-0.403l-0.525-0.403l-0.525-0.403L10.76,45.17l-0.325,0.722
	l-0.325,0.722l-0.325,0.722L9.46,48.06l0.528,0.44l0.528,0.44l0.528,0.44l0.528,0.44l-0.528,0.413l-0.528,0.412l-0.528,0.412
	L9.46,51.47l0.295,0.75l0.295,0.75l0.295,0.75l0.295,0.75l0.543-0.4l0.542-0.4l0.542-0.4l0.543-0.4v0.88v0.88v0.88v0.88h0.675h0.675
	h0.675h0.675v-0.888v-0.888v-0.887V52.84l0.543,0.4l0.542,0.4l0.542,0.4l0.542,0.4l0.295-0.75l0.295-0.75l0.295-0.75l0.295-0.75
	l-0.528-0.413l-0.528-0.412l-0.528-0.412L16.75,49.79l0.53-0.44l0.53-0.44l0.53-0.44l0.53-0.44l-0.002,0.013l-0.003,0.013
	l-0.003,0.013L18.86,48.08z M14.59,48.08v0.177v0.178v0.178v0.177c0,0.088-0.04,0.194-0.1,0.312s-0.143,0.25-0.228,0.387
	c-0.085,0.137-0.173,0.28-0.246,0.422s-0.131,0.284-0.156,0.419c-0.01,0.059-0.016,0.118-0.019,0.177
	c-0.002,0.059-0.001,0.118,0.004,0.177s0.014,0.118,0.026,0.175s0.029,0.115,0.049,0.171c0,0.015,0.011,0.051,0.028,0.096
	c0.017,0.045,0.04,0.099,0.064,0.15c0.025,0.052,0.052,0.102,0.076,0.138s0.046,0.059,0.061,0.056c0.003-0.06,0.006-0.12,0.008-0.18
	s0.003-0.12,0.003-0.18s-0.001-0.12-0.003-0.18s-0.005-0.12-0.008-0.18c-0.017-0.158,0.012-0.302,0.069-0.441
	c0.057-0.139,0.141-0.271,0.232-0.404c0.092-0.132,0.192-0.265,0.28-0.404c0.088-0.139,0.164-0.284,0.209-0.441
	c0.035-0.092,0.053-0.187,0.055-0.281c0.002-0.094-0.012-0.187-0.04-0.275c-0.029-0.089-0.071-0.172-0.128-0.247
	c-0.056-0.075-0.126-0.142-0.207-0.197l-0.007,0.005l-0.008,0.005l-0.007,0.005L14.59,48.08z"/>
<path style="fill:#9C9CCE;" d="M28.22,66.26h-1.922h-1.923h-1.923H20.53v-2.4v-2.4v-2.4v-2.4h1.922h1.923h1.923h1.922v2.4v2.4v2.4
	V66.26z M20.86,65.93h1.75h1.75h1.75h1.75v-2.232v-2.233v-2.233V57h-1.75h-1.75h-1.75h-1.75v2.232v2.233v2.233V65.93z"/>
<polygon style="fill:#9C9CCE;" points="28.05,56.83 26.212,59.147 24.375,61.465 22.538,63.783 20.7,66.1 22.538,66.1 24.375,66.1 
	26.212,66.1 28.05,66.1 28.05,63.783 28.05,61.465 28.05,59.147 "/>
<polygon style="fill:#BDBDBD;" points="33.57,44.74 33.035,45.29 32.5,45.84 31.965,46.39 31.43,46.94 31.43,48.143 31.43,49.345 
	31.43,50.548 31.43,51.75 31.965,51.75 32.5,51.75 33.035,51.75 33.57,51.75 33.41,51.085 33.25,50.42 33.09,49.755 32.93,49.09 
	33.13,48.708 33.33,48.325 33.53,47.943 33.73,47.56 33.635,47.238 33.54,46.915 33.445,46.592 33.35,46.27 33.405,45.888 
	33.46,45.505 33.515,45.123 "/>
<polygon style="fill:#BDBDBD;" points="34.41,45.16 34.83,45.607 35.25,46.055 35.67,46.503 36.09,46.95 36.09,48.15 36.09,49.35 
	36.09,50.55 36.09,51.75 35.635,51.75 35.18,51.75 34.725,51.75 34.27,51.75 34.092,51.097 33.915,50.445 33.738,49.792 
	33.56,49.14 33.745,48.757 33.93,48.375 34.115,47.993 34.3,47.61 34.222,47.29 34.145,46.97 34.068,46.65 33.99,46.33 
	34.095,46.037 34.2,45.745 34.305,45.452 "/>
<polygon style="fill:#BDBDBD;" points="30.5,45.43 30.592,45.43 30.685,45.43 30.778,45.43 30.87,45.43 30.87,46.31 30.87,47.19 
	30.87,48.07 30.87,48.95 30.778,48.95 30.685,48.95 30.592,48.95 30.5,48.95 30.5,48.07 30.5,47.19 30.5,46.31 "/>
<polygon style="fill:#BDBDBD;" points="36.66,45.43 36.753,45.43 36.845,45.43 36.938,45.43 37.03,45.43 37.03,46.31 37.03,47.19 
	37.03,48.07 37.03,48.95 36.938,48.95 36.845,48.95 36.753,48.95 36.66,48.95 36.66,48.07 36.66,47.19 36.66,46.31 "/>
<polygon style="fill:#CACACA;" points="25.76,51.75 29.795,51.75 33.83,51.75 37.865,51.75 41.9,51.75 39.882,54.165 37.865,56.58 
	35.848,58.995 33.83,61.41 31.812,58.995 29.795,56.58 27.778,54.165 "/>
<polyline style="fill:#BDBDBD;" points="32.97,51.75 33.118,52.185 33.265,52.62 33.412,53.055 33.56,53.49 33.205,54.045 
	32.85,54.6 32.495,55.155 32.14,55.71 32.61,56.137 33.08,56.565 33.55,56.993 34.02,57.42 34,57.74 33.98,58.06 33.96,58.38 
	33.94,58.7 34.162,58.305 34.385,57.91 34.607,57.515 34.83,57.12 34.57,56.71 34.31,56.3 34.05,55.89 33.79,55.48 34.118,54.91 
	34.445,54.34 34.772,53.77 35.1,53.2 34.963,52.838 34.825,52.475 34.688,52.112 34.55,51.75 "/>
<polygon style="fill:#FFFFFF;" points="32.97,51.75 33.118,52.213 33.265,52.675 33.412,53.137 33.56,53.6 33.945,53.5 34.33,53.4 
	34.715,53.3 35.1,53.2 34.963,52.838 34.825,52.475 34.688,52.112 34.55,51.75 34.155,51.75 33.76,51.75 33.365,51.75 "/>
<path style="fill:#7A7A7A;" d="M24.13,73.35l-4.782-5.908l-4.783-5.907l-4.783-5.907L5,49.72l0.028-0.033l0.027-0.032l0.028-0.033
	L5.11,49.59l4.75-5.69l4.75-5.69l4.75-5.69l4.75-5.69l0.04,0.045l0.04,0.045l0.04,0.045l0.04,0.045l4.898,5.678l4.898,5.677
	l4.897,5.678l4.897,5.678l-0.028,0.033l-0.028,0.032l-0.028,0.032L43.75,49.85l-4.905,5.875L33.94,61.6l-4.905,5.875L24.13,73.35z
	 M5.51,49.72l4.657,5.75l4.658,5.75l4.658,5.75l4.657,5.75l4.795-5.75l4.795-5.75l4.795-5.75l4.795-5.75l-4.795-5.562l-4.795-5.562
	l-4.795-5.562L24.14,27.47l-4.657,5.563l-4.658,5.562l-4.658,5.562L5.51,49.72z"/>
<polygon style="fill:#7A7A7A;" points="14.565,38.513 14.644,38.448 14.723,38.382 14.802,38.317 14.881,38.252 19.646,44.021 
	24.41,49.791 29.174,55.561 33.939,61.33 33.86,61.395 33.781,61.46 33.702,61.525 33.623,61.591 28.859,55.821 24.094,50.052 
	19.33,44.283 "/>
<polygon style="fill:#7A7A7A;" points="14.568,61.317 19.337,55.551 24.107,49.786 28.876,44.021 33.646,38.255 33.725,38.321 
	33.804,38.386 33.883,38.451 33.962,38.517 29.193,44.283 24.423,50.048 19.653,55.813 14.884,61.578 14.805,61.513 14.726,61.448 
	14.647,61.382 "/>
<path style="fill:#424242;" d="M43.49,71.33V61.173V51.015V40.857V30.7h0.795h0.795h0.795h0.795v10.157v10.158v10.158V71.33h-0.795
	H45.08h-0.795H43.49z"/>
<path style="fill:#424242;" d="M67.41,71.33c-0.075-1.4-0.142-4.025-0.204-7.206c-0.062-3.18-0.12-6.916-0.176-10.535
	s-0.111-7.123-0.168-9.84c-0.057-2.717-0.117-4.647-0.182-5.119c-0.305,2.342-0.636,4.975-0.983,7.75
	c-0.348,2.776-0.712,5.696-1.084,8.614c-0.372,2.919-0.753,5.837-1.133,8.607c-0.38,2.771-0.76,5.395-1.13,7.728h-0.765H60.82
	h-0.765H59.29c-0.41-2.315-0.835-4.926-1.257-7.688c-0.422-2.762-0.841-5.675-1.239-8.595s-0.775-5.843-1.114-8.628
	s-0.638-5.429-0.88-7.789l-0.08,8.175l-0.08,8.175l-0.08,8.175l-0.08,8.175H53.7h-0.78h-0.78h-0.78V61.173V51.015V40.857V30.7h1.14
	h1.14h1.14h1.14l0.75,4.142l0.75,4.143l0.75,4.143l0.75,4.142c0.038,0.25,0.082,0.497,0.13,0.742
	c0.048,0.245,0.099,0.487,0.15,0.729s0.102,0.483,0.15,0.724c0.048,0.241,0.092,0.482,0.13,0.725
	c0.127,0.823,0.249,1.645,0.364,2.467c0.116,0.823,0.226,1.645,0.331,2.468s0.205,1.645,0.301,2.468
	c0.096,0.822,0.187,1.645,0.274,2.467c0.028-0.5,0.074-0.99,0.132-1.473c0.058-0.483,0.127-0.959,0.201-1.432
	c0.074-0.472,0.152-0.941,0.227-1.409s0.148-0.936,0.211-1.406c0.05-0.368,0.097-0.739,0.144-1.112s0.091-0.747,0.136-1.121
	c0.045-0.374,0.09-0.747,0.136-1.117c0.046-0.37,0.094-0.738,0.144-1.1c0.038-0.25,0.079-0.493,0.122-0.732
	c0.043-0.239,0.088-0.475,0.133-0.711c0.045-0.235,0.09-0.469,0.133-0.706c0.043-0.237,0.084-0.476,0.122-0.721l0.653-4.08
	l0.653-4.08l0.652-4.08L65.2,30.7h1.3h1.3h1.3h1.3v10.157v10.158v10.158V71.33h-0.747h-0.748h-0.747H67.41z"/>
<path style="fill:#424242;" d="M83.4,36.35v8.75v8.75v8.75v8.75h-0.85H81.7h-0.85H80V62.6v-8.75V45.1v-8.75h-1.5H77h-1.5H74v-1.412
	v-1.413v-1.412V30.7h3.875h3.875h3.875H89.5v1.413v1.412v1.412v1.413h-1.525H86.45c0,0-0.762,0-1.525,0
	C84.162,36.35,83.4,36.35,83.4,36.35z"/>
</svg>
