<svg xmlns="http://www.w3.org/2000/svg" viewBox="0 0 100 100"><path d="M14.06,54l5.63-1.75s8.65-9,10.08-9h7.42v24H14.61c-.48,0-2.7-.56-2.7-4.85V56.81A3.15,3.15,0,0,1,14.06,54" fill="#fff"/><path d="M37.43,67.42H14.61c-.82,0-2.95-.91-2.95-5.09V56.81A3.42,3.42,0,0,1,14,53.73h0l4.73-1.47.83-.26c1.56-1.62,8.78-9.08,10.22-9.08h7.66Zm-7.66-24c-1,0-6.59,5.51-9.9,9l-.05,0-1,.29c-1.32.42-3.51,1.11-4.73,1.48h0a2.89,2.89,0,0,0-2,2.6v5.52c0,4.47,2.42,4.6,2.45,4.6H36.94V43.41Z" fill="#646464"/><path d="M33.19,52.47H19.69V52h13.5c1.31,0,1.66-.51,1.66-.78V46.78c0-.64-.41-1-1.25-1h-7v-.49h7c1.57,0,1.74,1,1.74,1.44V51.2C35.34,51.67,34.89,52.47,33.19,52.47Z" fill="#646464"/><rect x="16.59" y="57.28" width="18.12" height="0.49" fill="#646464"/><rect x="22.52" y="48.04" width="6.06" height="0.49" transform="translate(-29.07 49.17) rotate(-63.03)" fill="#646464"/><rect x="22.6" y="49.61" width="1.58" height="4.77" rx="0.7" fill="#fff"/><path d="M23.48,54.63h-.19a.94.94,0,0,1-.94-.94V50.3a.94.94,0,0,1,.94-.94h.19a.94.94,0,0,1,.94.94v3.39A.94.94,0,0,1,23.48,54.63Zm-.19-4.78a.45.45,0,0,0-.45.45v3.39a.45.45,0,0,0,.45.44h.19a.45.45,0,0,0,.45-.44V50.3a.45.45,0,0,0-.45-.45Z" fill="#646464"/><path d="M11.91,62.58v-.49c1.66,0,1.74-3.47,1.74-4.16a.66.66,0,0,0-.19-.5A2.08,2.08,0,0,0,12,57.06H12l-.05-.25,0-.25a2.78,2.78,0,0,1,1.86.52,1.19,1.19,0,0,1,.34.85C14.15,59.33,13.93,62.58,11.91,62.58Zm0-5.77v0Z" fill="#646464"/><rect x="10.23" y="63.18" width="4.22" height="3.22" rx="0.8" fill="#fff"/><path d="M13.65,66.65H11a1,1,0,0,1-1-1.05V64a1,1,0,0,1,1-1h2.63a1,1,0,0,1,1,1V65.6A1,1,0,0,1,13.65,66.65ZM11,63.43a.55.55,0,0,0-.55.55V65.6a.55.55,0,0,0,.55.55h2.63a.55.55,0,0,0,.55-.55V64a.55.55,0,0,0-.55-.55Z" fill="#646464"/><rect x="37.19" y="28.1" width="49.84" height="39.07" fill="#fff"/><path d="M87.27,67.42H36.94V27.85H87.27Zm-49.84-.49H86.78V28.35H37.43Z" fill="#646464"/><rect x="84.57" y="63.64" width="4.29" height="3.65" rx="0.86" fill="#fff"/><path d="M88,67.54H85.42a1.1,1.1,0,0,1-1.1-1.1v-2a1.1,1.1,0,0,1,1.1-1.1H88a1.11,1.11,0,0,1,1.11,1.1v2A1.11,1.11,0,0,1,88,67.54Zm-2.58-3.65a.61.61,0,0,0-.61.6v2a.61.61,0,0,0,.61.6H88a.6.6,0,0,0,.61-.6v-2a.6.6,0,0,0-.61-.6Z" fill="#646464"/><ellipse cx="32.29" cy="41.72" rx="1.88" ry="1.45" fill="#fff"/><path d="M32.29,43.41a1.94,1.94,0,0,1-2.12-1.69A1.94,1.94,0,0,1,32.29,40a2,2,0,0,1,2.13,1.7A2,2,0,0,1,32.29,43.41Zm0-2.89c-.9,0-1.63.54-1.63,1.2s.73,1.2,1.63,1.2,1.64-.54,1.64-1.2S33.2,40.52,32.29,40.52Z" fill="#646464"/><path d="M69.22,60h2.71a4.35,4.35,0,0,1,4.35,4.35v2.81a0,0,0,0,1,0,0H64.86a0,0,0,0,1,0,0V64.37A4.35,4.35,0,0,1,69.22,60Z" fill="#969696"/><path d="M76.53,67.42H64.62v-3a4.6,4.6,0,0,1,4.6-4.6h2.71a4.6,4.6,0,0,1,4.6,4.6Zm-11.42-.49H76V64.37a4.11,4.11,0,0,0-4.11-4.11H69.22a4.11,4.11,0,0,0-4.11,4.11Z" fill="#646464"/><ellipse cx="70.57" cy="67.04" rx="5.2" ry="5.62" fill="#323232"/><ellipse cx="70.57" cy="67.04" rx="2.8" ry="3.03" fill="#fff"/><path d="M19.44,60h2.71a4.35,4.35,0,0,1,4.35,4.35v2.81a0,0,0,0,1,0,0H15.08a0,0,0,0,1,0,0V64.37A4.35,4.35,0,0,1,19.44,60Z" fill="#969696"/><path d="M26.75,67.42H14.84v-3a4.6,4.6,0,0,1,4.6-4.6h2.71a4.6,4.6,0,0,1,4.6,4.6Zm-11.42-.49H26.26V64.37a4.11,4.11,0,0,0-4.11-4.11H19.44a4.11,4.11,0,0,0-4.11,4.11Z" fill="#646464"/><ellipse cx="20.79" cy="67.04" rx="5.2" ry="5.62" fill="#323232"/><ellipse cx="20.79" cy="67.04" rx="2.8" ry="3.03" fill="#fff"/><ellipse cx="40.56" cy="32.19" rx="1.32" ry="1.42" fill="#fff"/><path d="M40.56,33.86a1.67,1.67,0,1,1,1.56-1.67A1.63,1.63,0,0,1,40.56,33.86Zm0-2.85a1.19,1.19,0,1,0,1.07,1.18A1.13,1.13,0,0,0,40.56,31Z" fill="#646464"/><ellipse cx="83.72" cy="32.19" rx="1.32" ry="1.42" fill="#fff"/><path d="M83.72,33.86a1.67,1.67,0,1,1,1.57-1.67A1.62,1.62,0,0,1,83.72,33.86Zm0-2.85a1.19,1.19,0,1,0,1.07,1.18A1.13,1.13,0,0,0,83.72,31Z" fill="#646464"/><path d="M40.07,50.59a5.21,5.21,0,0,0,3,1,2,2,0,0,0,2.25-2.14c0-1.19-.62-1.89-2.19-2.61-2-.93-3.33-2.31-3.33-4.57a4.24,4.24,0,0,1,4.35-4.52,5.37,5.37,0,0,1,3,.8l-.55,2.3a4.34,4.34,0,0,0-2.45-.74A1.88,1.88,0,0,0,42,42c0,1.21.72,1.77,2.36,2.58,2.14,1,3.19,2.4,3.19,4.66A4.4,4.4,0,0,1,42.9,54a6.08,6.08,0,0,1-3.32-1Z"/><path d="M52.29,53.71,49.45,38H51.7l1.1,7.13c.3,1.91.57,3.91.76,5.48h0c.19-1.66.51-3.52.84-5.5L55.7,38h2.22l1.15,7.22c.3,1.87.54,3.61.71,5.32h0c.2-1.73.48-3.52.79-5.43L61.81,38H64l-3.12,15.7H58.57l-1.2-7.38c-.29-1.8-.5-3.29-.64-5h0c-.21,1.68-.43,3.19-.78,5l-1.34,7.38Z"/><path d="M67.91,49.26l-1.06,4.45H64.52l4-15.7h2.87l4,15.7H72.94l-1.12-4.45Zm3.53-2.16-1-3.87c-.24-1-.44-2-.62-2.94h0c-.18.91-.37,2-.59,2.94l-1,3.87Z"/><path d="M79.13,40.41H75.77V38h8.89v2.4H81.27v13.3H79.13Z"/></svg>