<?xml version="1.0" encoding="utf-8"?>
<!-- Generator: Adobe Illustrator 25.2.3, SVG Export Plug-In . SVG Version: 6.00 Build 0)  -->
<svg version="1.1" id="Layer_1" xmlns="http://www.w3.org/2000/svg" xmlns:xlink="http://www.w3.org/1999/xlink" x="0px" y="0px"
	 viewBox="0 0 100 100" style="enable-background:new 0 0 100 100;" xml:space="preserve">
<style type="text/css">
	.st0{fill:none;stroke:#666666;stroke-width:2;stroke-miterlimit:10;}
	.st1{fill:#666666;}
</style>
<g id="Layer_2_1_">
	<g id="Layer_2-2">
		<path class="st0" d="M36.1,30.6c3.1-0.8,6-1.3,8.5-1.8c2.5-0.5,4.6-0.9,6.1-1.4s3.5-1.2,5.6-1.6c2.1-0.4,4.2-0.5,5.9,0.2
			c1.8,0.7,3.2,1.4,4.6,2c1.4,0.6,2.8,1,4.5,1.2c1.7,0.2,3.5,1.3,4.9,2.9s2.7,3.6,3.3,5.7s1.7,4.2,2.6,6.8s1.7,5.4,1.7,8.9
			s0.1,6.4,0.4,8.7s0.7,4,1.3,5.1s0.5,2.4,0.1,3.7c-0.4,1.3-1,2.5-1.6,3.2s-3.7,0.7-6.8,0.5S71.3,74,71.3,74s-0.2-3.5-0.8-7.6
			c-0.6-4.1-1.5-8.8-2.8-11.3c-1.3-2.5-3.9-5.4-6.9-7.7c-2.9-2.2-6.2-3.8-8.8-3.4s-5.5,1.3-8,2.2c-2.4,0.9-4.4,1.8-4.9,2.3
			c0,2-0.1,4.2-0.3,6.3c-0.2,2-0.6,3.8-1.3,4.9s-2.1,3.5-3.4,5.7c-1.3,2.2-2.5,4.3-2.5,4.7c-0.1,0.6-0.3,1.3-0.5,1.9
			s-0.4,1.2-0.7,1.8h-8h-8c0,0-0.2-1.6-0.3-3.5c-0.1-1.9-0.1-4,0.3-5c0.4-1,1.1-2.9,1.7-4.7c0.6-1.8,1.2-3.5,1.4-4.3
			c0.2-0.7,1.8-2.4,3.4-4s3.4-3.3,3.8-4s0.7-2,0.9-3.1c0.2-1.1,0.3-2.1,0.3-2.3s1-1,2-1.9c1-0.9,2-2,2.3-2.9
			c0.3-0.9,1.7-2.8,3.1-4.4C34.8,32,36.1,30.6,36.1,30.6z"/>
		<polygon class="st1" points="64.3,59.9 60,59.9 55.7,59.9 55.7,55.6 55.7,51.3 52.6,51.3 49.6,51.3 49.6,55.6 49.6,59.9 
			45.3,59.9 41,59.9 41,62.9 41,66 45.3,66 49.6,66 49.6,70.3 49.6,74.6 52.6,74.6 55.7,74.6 55.7,70.3 55.7,66 60,66 64.3,66 
			64.3,62.9 		"/>
	</g>
</g>
</svg>
