<svg xmlns="http://www.w3.org/2000/svg" viewBox="0 0 100 100"><path d="M61.79,81H38.21a31,31,0,0,1,0-62H61.79a31,31,0,1,1,0,62ZM38.21,20a30,30,0,0,0,0,60H61.79a30,30,0,1,0,0-60Z" fill="#969696"/><path d="M20.47,31.93h.12A1.45,1.45,0,0,1,22,33.37v1.56a0,0,0,0,1,0,0H19a0,0,0,0,1,0,0V33.37A1.45,1.45,0,0,1,20.47,31.93Z" fill="#fff"/><path d="M22.69,35.58H18.37V33.37a2.1,2.1,0,0,1,2.1-2.09h.12a2.1,2.1,0,0,1,2.1,2.09Zm-3-1.3h1.71v-.91a.79.79,0,0,0-.8-.79h-.12a.79.79,0,0,0-.79.79Z" fill="#969696"/><rect x="37.49" y="38.41" width="6.98" height="25.64" fill="#fff"/><path d="M45.12,64.7H36.83V37.76h8.29Zm-7-1.3h5.67V39.06H38.14Z" fill="#969696"/><path d="M83.15,42.57h0a2.61,2.61,0,0,1,2.61,2.61V64a0,0,0,0,1,0,0H83.15a0,0,0,0,1,0,0V42.57A0,0,0,0,1,83.15,42.57Z" fill="#fff"/><path d="M86.41,64.7H82.5V41.92h.65a3.26,3.26,0,0,1,3.26,3.26Zm-2.6-1.3h1.3V45.18a2,2,0,0,0-1.3-1.85Z" fill="#969696"/><path d="M35.71,64.05H21c-5.31,0-5.76-2.11-5.76-5.77V47c0-.07,0-.13,0-.19.13-1.1,1.37-11.49,3.8-11.49h16.7a1.78,1.78,0,0,1,1.78,1.77V62.28A1.78,1.78,0,0,1,35.71,64.05Z" fill="#fff"/><path d="M35.71,64.7H21c-5.94,0-6.41-2.78-6.41-6.42V47a2.28,2.28,0,0,1,0-.27c.51-4.5,1.77-12.06,4.44-12.06h16.7a2.42,2.42,0,0,1,2.43,2.42V62.28A2.43,2.43,0,0,1,35.71,64.7ZM19,35.93c-.92,0-2.41,4.38-3.15,10.91a.49.49,0,0,0,0,.12V58.28c0,3.36.23,5.12,5.11,5.12H35.71a1.12,1.12,0,0,0,1.12-1.12V37.05a1.12,1.12,0,0,0-1.12-1.12Z" fill="#969696"/><path d="M44.47,34H80.19a3.35,3.35,0,0,1,3.35,3.35V64a0,0,0,0,1,0,0H44.47a0,0,0,0,1,0,0V34A0,0,0,0,1,44.47,34Z" fill="#fff"/><path d="M84.19,64.7H43.81V33.37H80.19a4,4,0,0,1,4,4ZM45.12,63.4H82.89v-26a2.7,2.7,0,0,0-2.7-2.7H45.12Z" fill="#969696"/><rect x="45.3" y="34.93" width="12.06" height="28.31" fill="#fff"/><path d="M58,63.89H44.65V34.28H58ZM46,62.59H56.71v-27H46Z" fill="#969696"/><path d="M71.23,34.93h9.21a2.15,2.15,0,0,1,2.15,2.15V63.24a0,0,0,0,1,0,0H71.23a0,0,0,0,1,0,0V34.93A0,0,0,0,1,71.23,34.93Z" fill="#fff"/><path d="M83.24,63.89H70.58V34.28h9.86a2.81,2.81,0,0,1,2.8,2.81Zm-11.36-1.3H81.94V37.09a1.51,1.51,0,0,0-1.5-1.51H71.88Z" fill="#969696"/><rect x="58.27" y="34.93" width="12.06" height="16.85" fill="#fff"/><path d="M71,52.44H57.62V34.28H71Zm-12.06-1.3H69.68V35.58H58.92Z" fill="#969696"/><polyline points="70.33 63.44 70.33 54.22 58.27 54.22 58.27 63.44" fill="#fff"/><polygon points="70.98 63.44 69.68 63.44 69.68 54.87 58.92 54.87 58.92 63.44 57.62 63.44 57.62 53.57 70.98 53.57 70.98 63.44" fill="#969696"/><path d="M16.63,48.11h-1.4v-1.3h1.4c.67-.05,1.85-3.86,2.44-8.82H17.23v-1.3h3.29l-.07.72C19.46,46.72,17.63,48.11,16.63,48.11Z" fill="#969696"/><path d="M20.52,37.34h5.39a.66.66,0,0,1,.65.66v7a.65.65,0,0,1-.65.66H19.14Z" fill="#fff"/><path d="M25.91,46.26H18.37L20,36.69h5.94A1.31,1.31,0,0,1,27.21,38v7A1.31,1.31,0,0,1,25.91,46.26Zm-6-1.3h6V38H21.07Z" fill="#969696"/><rect x="27.68" y="37.34" width="2.66" height="8.26" rx="0.88" fill="#fff"/><path d="M29.47,46.26h-.91A1.53,1.53,0,0,1,27,44.73V38.22a1.54,1.54,0,0,1,1.53-1.53h.91A1.53,1.53,0,0,1,31,38.22v6.51A1.52,1.52,0,0,1,29.47,46.26ZM28.56,38a.23.23,0,0,0-.23.23v6.51a.23.23,0,0,0,.23.23h.91a.22.22,0,0,0,.22-.23V38.22a.23.23,0,0,0-.22-.23Z" fill="#969696"/><rect x="31.05" y="37.34" width="5.3" height="8.26" rx="1.24" fill="#fff"/><path d="M35.11,46.26H32.28a1.89,1.89,0,0,1-1.88-1.89V38.58a1.89,1.89,0,0,1,1.88-1.89h2.83A1.89,1.89,0,0,1,37,38.58v5.79A1.89,1.89,0,0,1,35.11,46.26ZM32.28,38a.59.59,0,0,0-.58.59v5.79a.58.58,0,0,0,.58.59h2.83a.58.58,0,0,0,.59-.59V38.58a.59.59,0,0,0-.59-.59Z" fill="#969696"/><rect x="20.71" y="40.32" width="1.02" height="6.19" rx="0.51" fill="#fff"/><path d="M21.22,47.16A1.16,1.16,0,0,1,20.06,46V40.83a1.16,1.16,0,0,1,2.32,0V46A1.16,1.16,0,0,1,21.22,47.16Z" fill="#969696"/><line x1="20.71" y1="41.22" x2="19.4" y2="40.24" fill="#fff"/><rect x="19.4" y="39.91" width="1.3" height="1.64" transform="translate(-24.55 32.26) rotate(-53.03)" fill="#969696"/><rect x="33.7" y="63.4" width="13.44" height="1.3" fill="#969696"/><rect x="14.24" y="59.54" width="3.3" height="3.3" rx="0.64" fill="#fff"/><path d="M16.89,63.49h-2a1.29,1.29,0,0,1-1.29-1.29v-2a1.3,1.3,0,0,1,1.29-1.3h2a1.3,1.3,0,0,1,1.3,1.3v2A1.3,1.3,0,0,1,16.89,63.49Zm0-1.3v0Zm0-2h-2v2h2Z" fill="#969696"/><rect x="15.2" y="53.06" width="1.55" height="4.19" fill="#fff"/><path d="M17.4,57.91H14.55v-5.5H17.4Zm-1.55-1.3h.25v-2.9h-.25Z" fill="#969696"/><rect x="37.49" y="60.89" width="6.98" height="3.15" fill="#969696"/><rect x="37.48" y="45.56" width="6.98" height="1.3" fill="#969696"/><rect x="15.2" y="57.91" width="22.28" height="1.3" fill="#969696"/><path d="M63.47,55.71h1.66a4.57,4.57,0,0,1,4.57,4.57v4.07a0,0,0,0,1,0,0H58.9a0,0,0,0,1,0,0V60.28A4.57,4.57,0,0,1,63.47,55.71Z" fill="#969696"/><ellipse cx="64.26" cy="63.48" rx="4.93" ry="7.66" fill="#969696"/><ellipse cx="64.26" cy="63.64" rx="1.87" ry="2.96" fill="#fff"/><path d="M64.26,69.72c-2.29,0-4.09-2.67-4.09-6.08s1.8-6.07,4.09-6.07,4.08,2.67,4.08,6.07S66.55,69.72,64.26,69.72Zm0-10.75c-1.46,0-2.69,2.14-2.69,4.67s1.23,4.68,2.69,4.68,2.68-2.14,2.68-4.68S65.71,59,64.26,59Z" fill="#323232"/><path d="M29.34,55.71H31a4.57,4.57,0,0,1,4.57,4.57v4.07a0,0,0,0,1,0,0H24.77a0,0,0,0,1,0,0V60.28A4.57,4.57,0,0,1,29.34,55.71Z" fill="#969696"/><ellipse cx="30.13" cy="63.48" rx="4.93" ry="7.66" fill="#969696"/><ellipse cx="30.13" cy="63.64" rx="1.87" ry="2.96" fill="#fff"/><path d="M30.13,69.72c-2.29,0-4.09-2.67-4.09-6.08s1.8-6.07,4.09-6.07,4.08,2.67,4.08,6.07S32.42,69.72,30.13,69.72Zm0-10.75c-1.46,0-2.69,2.14-2.69,4.67s1.23,4.68,2.69,4.68,2.68-2.14,2.68-4.68S31.58,59,30.13,59Z" fill="#323232"/><ellipse cx="41.31" cy="56" rx="1.18" ry="1.71" fill="#fff"/><path d="M41.31,58.36a2.44,2.44,0,0,1,0-4.72,2.44,2.44,0,0,1,0,4.72Zm0-3.42c-.21,0-.53.42-.53,1.06s.32,1.06.53,1.06.53-.43.53-1.06S41.52,54.94,41.31,54.94Z" fill="#969696"/><ellipse cx="39.47" cy="51" rx="0.8" ry="1.16" fill="#fff"/><path d="M39.47,52.81A1.85,1.85,0,1,1,40.92,51,1.63,1.63,0,0,1,39.47,52.81Zm0-2.32a1.23,1.23,0,0,0-.12.51.66.66,0,0,0,.18.52,1.62,1.62,0,0,0,.12-.52A.65.65,0,0,0,39.44,50.49Z" fill="#969696"/><ellipse cx="42.94" cy="51" rx="0.8" ry="1.16" fill="#fff"/><path d="M42.94,52.81A1.85,1.85,0,1,1,44.39,51,1.63,1.63,0,0,1,42.94,52.81Zm0-2.32a1.23,1.23,0,0,0-.12.51.66.66,0,0,0,.18.52,1.62,1.62,0,0,0,.12-.52A.65.65,0,0,0,42.91,50.49Z" fill="#969696"/><circle cx="39.71" cy="43.87" r="0.97" fill="#fff"/><path d="M39.71,45.49a1.63,1.63,0,1,1,1.63-1.62A1.63,1.63,0,0,1,39.71,45.49Zm0-2a.33.33,0,1,0,.33.33A.33.33,0,0,0,39.71,43.54Z" fill="#969696"/><circle cx="42.24" cy="43.87" r="0.97" fill="#fff"/><path d="M42.24,45.49a1.63,1.63,0,1,1,1.62-1.62A1.63,1.63,0,0,1,42.24,45.49Zm0-2a.33.33,0,1,0,0,.65.33.33,0,0,0,0-.65Z" fill="#969696"/><circle cx="39.71" cy="40.94" r="0.97" fill="#fff"/><path d="M39.71,42.56a1.62,1.62,0,1,1,1.63-1.62A1.63,1.63,0,0,1,39.71,42.56Zm0-1.94a.32.32,0,1,0,.33.32A.32.32,0,0,0,39.71,40.62Z" fill="#969696"/><circle cx="42.24" cy="40.94" r="0.97" fill="#fff"/><path d="M42.24,42.56a1.62,1.62,0,1,1,1.62-1.62A1.63,1.63,0,0,1,42.24,42.56Zm0-1.94a.32.32,0,1,0,.32.32A.32.32,0,0,0,42.24,40.62Z" fill="#969696"/></svg>