<?xml version="1.0" encoding="iso-8859-1"?>
<!-- Generator: Adobe Illustrator 25.4.1, SVG Export Plug-In . SVG Version: 6.00 Build 0)  -->
<svg version="1.1" id="Layer_1" xmlns="http://www.w3.org/2000/svg" xmlns:xlink="http://www.w3.org/1999/xlink" x="0px" y="0px"
	 viewBox="0 0 100 100" style="enable-background:new 0 0 100 100;" xml:space="preserve">
<path style="fill:#B2B2B2;" d="M56.8,45.1c-0.15,0-0.275,0.025-0.388,0.075C56.3,45.225,56.2,45.3,56.1,45.4s-0.175,0.2-0.225,0.312
	C55.825,45.825,55.8,45.95,55.8,46.1v1.05v1.05v1.05v1.05h-0.7h-0.7h-0.7H53c-0.15,0-0.275,0.025-0.388,0.075
	C52.5,50.425,52.4,50.5,52.3,50.6s-0.175,0.2-0.225,0.312C52.025,51.025,52,51.15,52,51.3s0.025,0.275,0.075,0.388
	C52.125,51.8,52.2,51.9,52.3,52s0.2,0.175,0.312,0.225C52.725,52.275,52.85,52.3,53,52.3h1.2h1.2h1.2h1.2v-1.55V49.2v-1.55V46.1
	c0-0.15-0.025-0.275-0.075-0.388C57.675,45.6,57.6,45.5,57.5,45.4c-0.1-0.1-0.2-0.175-0.312-0.225
	C57.075,45.125,56.95,45.1,56.8,45.1z"/>
<path style="fill:#B2B2B2;" d="M82.7,30.4c-0.05-1.2-0.3-2.175-0.675-2.938C81.65,26.7,81.15,26.15,80.6,25.8
	s-1.175-0.5-1.762-0.462S77.7,25.6,77.3,26c-0.4,0.4-1.4,1.375-2.675,2.612S71.8,31.35,70.3,32.8s-2.925,2.85-3.975,3.888
	S64.6,38.4,64.6,38.4v3.8V46v3.8v3.8l-0.3-0.2L64,53.2L63.7,53l-0.3-0.2l-0.5-3.6l-0.5-3.6L61.9,42l-0.5-3.6h-2.05H57.3h-2.05H53.2
	V38v-0.4v-0.4v-0.4c-0.05-0.25-0.125-0.475-0.225-0.662S52.75,35.8,52.6,35.7c-0.15-0.15-0.35-0.25-0.562-0.312S51.6,35.3,51.4,35.3
	s-0.4,0.05-0.588,0.138C50.625,35.525,50.45,35.65,50.3,35.8s-0.275,0.325-0.362,0.513S49.8,36.7,49.8,36.9v0.4v0.4v0.4v0.4h-0.5
	h-0.5h-0.5h-0.5c-0.45,0-0.85,0.125-1.213,0.362S45.9,39.45,45.6,39.9c-0.3,0.45-0.525,0.975-0.675,1.562
	C44.775,42.05,44.7,42.7,44.7,43.4v1.45v1.45v1.45v1.45h-0.4h-0.4h-0.4h-0.4v-1.6V46v-1.6v-1.6c0,0-0.1-0.1-0.263-0.25
	S42.45,42.2,42.2,42s-0.6-0.45-0.963-0.65C40.875,41.15,40.5,41,40.2,41s-0.5,0.15-0.638,0.375C39.425,41.6,39.35,41.9,39.3,42.2
	s-0.075,0.625-0.087,0.888C39.2,43.35,39.2,43.55,39.2,43.6c0,0.1,0.05,0.225,0.138,0.35S39.55,44.2,39.7,44.3
	c0.1,0.1,0.225,0.2,0.325,0.275S40.2,44.7,40.2,44.7v1.4v1.4v1.4v1.4c0,0-0.55,0.2-1.388,0.513S36.85,51.55,35.7,52
	s-2.325,0.925-3.25,1.338c-0.925,0.412-1.6,0.763-1.75,0.962s-0.3,0.525-0.425,0.887C30.15,55.55,30.05,55.95,30,56.3
	c-0.1,0.4-0.15,0.775-0.175,1.05C29.8,57.625,29.8,57.8,29.8,57.8h0.45h0.45h0.45h0.45v1v1v1v1h-0.45H30.7h-0.45H29.8
	c0,0.35-0.025,0.675-0.062,0.987S29.65,63.4,29.6,63.7c-0.05,0.3-0.1,0.625-0.163,0.95C29.375,64.975,29.3,65.3,29.2,65.6
	c-0.1,0.2-0.225,0.4-0.363,0.562C28.7,66.325,28.55,66.45,28.4,66.5s-0.325,0.05-0.487-0.013S27.6,66.3,27.5,66.1
	c-0.2-0.5-0.45-0.975-0.75-1.4c-0.3-0.425-0.65-0.8-1.05-1.1s-0.85-0.55-1.337-0.737C23.875,62.675,23.35,62.55,22.8,62.5
	c-0.4-0.25-0.825-0.45-1.25-0.588C21.125,61.775,20.7,61.7,20.3,61.7c-0.35,0-0.65,0.05-0.875,0.138S19.05,62.05,19,62.2
	c-0.05,0.2-0.025,0.35,0.05,0.475C19.125,62.8,19.25,62.9,19.4,63s0.35,0.2,0.575,0.312C20.2,63.425,20.45,63.55,20.7,63.7
	c0,0.1,0.025,0.4,0.05,0.813C20.775,64.925,20.8,65.45,20.8,66s0.025,1.075,0.038,1.5c0.013,0.425,0.013,0.75-0.038,0.9
	c0,0.15-0.275,0.575-0.688,1.137S19.15,70.8,18.6,71.5s-1.075,1.375-1.462,1.875C16.75,73.875,16.5,74.2,16.5,74.2h3.1h3.1h3.1h3.1
	c0,0,0-0.175,0-0.463c0-0.287,0-0.688,0-1.137s0-0.95,0-1.45s0-1,0-1.45s0.225-0.75,0.55-0.938c0.325-0.188,0.75-0.262,1.15-0.262
	c0.4-0.05,0.8-0.025,1.1,0.012s0.5,0.088,0.5,0.088s0.075-0.375,0.263-0.95c0.188-0.575,0.487-1.35,0.938-2.15
	c0.45-0.75,1.05-1.525,1.825-2.112C36,62.8,36.95,62.4,38.1,62.4s2.075,0.375,2.8,0.95c0.725,0.575,1.25,1.35,1.6,2.15
	c0.4,0.75,0.65,1.525,0.8,2.112c0.15,0.588,0.2,0.988,0.2,0.988h1.8h1.8h1.8h1.8c0.05-2,0.25-3.875,0.625-5.55S52.25,59.9,53,58.7
	c0.75-1.25,1.675-2.225,2.763-2.888C56.85,55.15,58.1,54.8,59.5,54.8s2.7,0.375,3.85,0.938S65.5,57.05,66.3,57.8
	s1.4,1.475,1.8,2.013c0.4,0.538,0.6,0.888,0.6,0.888s0.05-1.05,0.137-2.638c0.088-1.587,0.213-3.712,0.363-5.862s0.3-4.325,0.438-6
	c0.138-1.675,0.263-2.85,0.363-3s0.55-0.7,1.188-1.438S72.65,40.1,73.5,39.2c0.8-0.9,1.6-1.825,2.213-2.562
	C76.325,35.9,76.75,35.35,76.8,35.2c0-0.1,0.025-0.175,0.075-0.237C76.925,34.9,77,34.85,77.1,34.8
	c0.05-0.05,0.125-0.075,0.213-0.087S77.5,34.7,77.6,34.7c0.05,0,0.1,0.025,0.15,0.05c0.05,0.025,0.1,0.05,0.15,0.05
	c0.05,0.05,0.075,0.1,0.1,0.15c0.025,0.05,0.05,0.1,0.1,0.15c0.05,0.15,0.175,0.85,0.325,1.825C78.575,37.9,78.75,39.15,78.9,40.4
	s0.275,2.475,0.338,3.412S79.3,45.4,79.2,45.5c-0.15,0.2-0.325,0.4-0.5,0.6c-0.175,0.2-0.35,0.4-0.5,0.6
	c-0.2,0.2-0.375,0.375-0.55,0.55c-0.175,0.175-0.35,0.35-0.55,0.55c-0.05,0-0.25-0.125-0.512-0.312C76.325,47.3,76,47.05,75.7,46.8
	s-0.625-0.5-0.888-0.688C74.55,45.925,74.35,45.8,74.3,45.8s-0.125-0.075-0.188-0.2S74,45.3,74,45.1s0-0.45,0.012-0.725
	C74.025,44.1,74.05,43.8,74.1,43.5c0.05-0.1,0.05-0.225,0.025-0.35C74.1,43.025,74.05,42.9,74,42.8s-0.125-0.2-0.225-0.275
	S73.55,42.4,73.4,42.4c-0.1-0.05-0.2-0.05-0.3-0.025C73,42.4,72.9,42.45,72.8,42.5s-0.175,0.1-0.238,0.162
	C72.5,42.725,72.45,42.8,72.4,42.9c-0.1,0.2-0.25,0.775-0.425,1.538C71.8,45.2,71.6,46.15,71.4,47.1s-0.375,1.9-0.475,2.7
	S70.8,51.25,70.9,51.6c0.05,0.35,0.325,0.725,0.737,1.088C72.05,53.05,72.6,53.4,73.2,53.7s1.25,0.55,1.862,0.725
	C75.675,54.6,76.25,54.7,76.7,54.7c0.65-0.15,1.3-0.35,1.925-0.6c0.625-0.25,1.225-0.55,1.775-0.9s1.075-0.75,1.562-1.2
	c0.487-0.45,0.938-0.95,1.338-1.5c0-0.45-0.05-1.625-0.113-3.213C83.125,45.7,83.05,43.7,83,41.6c-0.05-2.15-0.125-4.35-0.188-6.312
	C82.75,33.325,82.7,31.6,82.7,30.4z M53.7,53.3c-0.3,0-0.6,0.25-0.9,0.625C52.5,54.3,52.2,54.8,51.9,55.3s-0.525,1-0.675,1.375
	C51.075,57.05,51,57.3,51,57.3h-0.9h-0.9h-0.9h-0.9v-3.85V49.6v-3.85V41.9h2.85h2.85h2.85h2.85l0.4,2.7l0.4,2.7L60,50l0.4,2.7
	c0,0-0.35,0.05-0.9,0.112c-0.55,0.062-1.3,0.138-2.1,0.188c-0.7,0.05-1.475,0.125-2.15,0.188S54,53.3,53.7,53.3z M78.9,31.9
	c-0.2,0-0.375-0.05-0.525-0.138C78.225,31.675,78.1,31.55,78,31.4s-0.175-0.3-0.225-0.462C77.725,30.775,77.7,30.6,77.7,30.4
	c-0.05-0.15-0.05-0.3-0.012-0.45c0.037-0.15,0.112-0.3,0.212-0.45s0.2-0.275,0.312-0.362C78.325,29.05,78.45,29,78.6,29
	c0.15-0.05,0.3-0.05,0.45-0.025C79.2,29,79.35,29.05,79.5,29.1c0.15,0.1,0.275,0.2,0.363,0.312C79.95,29.525,80,29.65,80,29.8
	c0,0.05,0,0.1,0,0.15c0,0.05,0,0.1,0,0.15s0,0.1,0,0.15s0,0.1,0,0.15c0,0.2-0.025,0.375-0.075,0.538
	C79.875,31.1,79.8,31.25,79.7,31.4s-0.225,0.25-0.362,0.325C79.2,31.8,79.05,31.85,78.9,31.9z M80.7,49.6
	c-0.15,0-0.3-0.025-0.45-0.088c-0.15-0.062-0.3-0.162-0.45-0.312c-0.1-0.1-0.2-0.225-0.275-0.375C79.45,48.675,79.4,48.5,79.4,48.3
	s0.025-0.35,0.088-0.487S79.65,47.55,79.8,47.4c0.1-0.1,0.225-0.2,0.375-0.275S80.5,47,80.7,47s0.35,0.025,0.488,0.088
	C81.325,47.15,81.45,47.25,81.6,47.4c0.1,0.1,0.2,0.225,0.275,0.375C81.95,47.925,82,48.1,82,48.3s-0.025,0.35-0.088,0.487
	S81.75,49.05,81.6,49.2s-0.3,0.25-0.45,0.312S80.85,49.6,80.7,49.6L80.7,49.6L80.7,49.6L80.7,49.6L80.7,49.6z"/>
<path style="fill:#B2B2B2;" d="M38.1,64.6c-0.7,0-1.35,0.15-1.938,0.412S35.05,65.65,34.6,66.1s-0.825,1-1.088,1.6
	c-0.262,0.6-0.412,1.25-0.412,1.9c0,0.7,0.15,1.35,0.412,1.938c0.263,0.588,0.638,1.112,1.088,1.562s1,0.825,1.6,1.088
	c0.6,0.262,1.25,0.412,1.9,0.412c0.7,0,1.35-0.15,1.938-0.412S41.15,73.55,41.6,73.1s0.825-1,1.088-1.6
	c0.262-0.6,0.412-1.25,0.412-1.9c0-0.7-0.15-1.35-0.412-1.938C42.425,67.075,42.05,66.55,41.6,66.1c-0.45-0.45-1-0.825-1.6-1.088
	S38.75,64.6,38.1,64.6z M38.1,72.6c-0.4,0-0.8-0.075-1.162-0.225C36.575,72.225,36.25,72,36,71.7
	c-0.25-0.25-0.475-0.575-0.638-0.938S35.1,70,35.1,69.6s0.075-0.8,0.225-1.162C35.475,68.075,35.7,67.75,36,67.5
	s0.625-0.475,0.975-0.637C37.325,66.7,37.7,66.6,38.1,66.6s0.8,0.075,1.162,0.225c0.362,0.15,0.688,0.375,0.938,0.675
	c0.25,0.25,0.475,0.575,0.638,0.938S41.1,69.2,41.1,69.6s-0.075,0.8-0.225,1.162C40.725,71.125,40.5,71.45,40.2,71.7
	s-0.625,0.475-0.975,0.637C38.875,72.5,38.5,72.6,38.1,72.6z"/>
<path style="fill:#B2B2B2;" d="M60,58.6c-1,0-1.95,0.225-2.812,0.625S55.55,60.2,54.9,60.9s-1.175,1.525-1.537,2.45
	C53,64.275,52.8,65.3,52.8,66.4s0.2,2.125,0.562,3.05c0.362,0.925,0.887,1.75,1.537,2.45s1.425,1.275,2.287,1.675S59,74.2,60,74.2
	s1.95-0.225,2.812-0.625S64.45,72.6,65.1,71.9s1.175-1.525,1.537-2.45C67,68.525,67.2,67.5,67.2,66.4s-0.2-2.125-0.562-3.05
	S65.75,61.6,65.1,60.9c-0.65-0.7-1.425-1.275-2.287-1.675S61,58.6,60,58.6z M60,71.1c-0.55,0-1.1-0.125-1.6-0.363
	c-0.5-0.237-0.95-0.588-1.3-1.037c-0.4-0.45-0.7-0.95-0.9-1.512C56,67.625,55.9,67,55.9,66.3c0-0.65,0.125-1.275,0.338-1.85
	c0.212-0.575,0.513-1.1,0.862-1.55c0.4-0.45,0.85-0.8,1.338-1.038C58.925,61.625,59.45,61.5,60,61.5s1.1,0.125,1.6,0.362
	s0.95,0.588,1.3,1.038c0.4,0.45,0.7,0.95,0.9,1.5c0.2,0.55,0.3,1.15,0.3,1.8s-0.125,1.275-0.338,1.838
	C63.55,68.6,63.25,69.1,62.9,69.5c-0.35,0.55-0.775,0.95-1.262,1.213C61.15,70.975,60.6,71.1,60,71.1z"/>
</svg>
