<svg xmlns="http://www.w3.org/2000/svg" viewBox="0 0 100 100"><path d="M20,34.69H20a1.49,1.49,0,0,1,1.49,1.49v1.68a0,0,0,0,1,0,0h-3a0,0,0,0,1,0,0V36.19A1.49,1.49,0,0,1,20,34.69Z" fill="#fff"/><path d="M22,38.37H18V36.19a2,2,0,0,1,2-2H20a2,2,0,0,1,2,2Zm-3.05-1H21V36.19a1,1,0,0,0-1-1H20a1,1,0,0,0-1,1Z" fill="#969696"/><path d="M20.45,68.59c-5.36,0-5.81-2.22-5.81-6.08V50.56a1.41,1.41,0,0,1,0-.21c.12-1.16,1.38-12.12,3.82-12.12H35.34a1.83,1.83,0,0,1,1.78,1.87V68.59Z" fill="#fff"/><path d="M37.62,69.09H20.45c-5.86,0-6.31-2.73-6.31-6.58V50.56a2.26,2.26,0,0,1,0-.26C15.38,39,17.58,37.73,18.47,37.73H35.34a2.33,2.33,0,0,1,2.28,2.37ZM18.47,38.73c-1.15,0-2.61,5.13-3.33,11.67V62.51c0,3.56.24,5.58,5.31,5.58H36.62v-28a1.32,1.32,0,0,0-1.28-1.37Z" fill="#969696"/><path d="M16.08,51.58H15v-1h1.06c.85,0,2.06-4.46,2.64-9.67h-2v-1h3.15l-.06.55C18.75,50.5,16.85,51.58,16.08,51.58Z" fill="#969696"/><path d="M25.44,49.63H18l1.56-9.72h5.86a1.18,1.18,0,0,1,1.16,1.2v7.33A1.17,1.17,0,0,1,25.44,49.63Zm-6.24-1h6.24a.17.17,0,0,0,.16-.19V41.11a.18.18,0,0,0-.16-.2h-5Z" fill="#969696"/><path d="M29,49.63h-.88a1.4,1.4,0,0,1-1.4-1.4V41.31a1.4,1.4,0,0,1,1.4-1.4H29a1.4,1.4,0,0,1,1.4,1.4v6.92A1.4,1.4,0,0,1,29,49.63Zm-.88-8.72a.4.4,0,0,0-.4.4v6.92a.4.4,0,0,0,.4.4H29a.4.4,0,0,0,.4-.4V41.31a.4.4,0,0,0-.4-.4Z" fill="#969696"/><path d="M34.7,49.63H31.9a1.77,1.77,0,0,1-1.77-1.77V41.69a1.78,1.78,0,0,1,1.77-1.78h2.8a1.78,1.78,0,0,1,1.78,1.78v6.17A1.78,1.78,0,0,1,34.7,49.63Zm-2.8-8.72a.77.77,0,0,0-.77.78v6.17a.77.77,0,0,0,.77.77h2.8a.78.78,0,0,0,.78-.77V41.69a.78.78,0,0,0-.78-.78Z" fill="#969696"/><rect x="20.19" y="43.55" width="1.03" height="6.53" rx="0.51" fill="#969696"/><path d="M20.72,50.59h0a1,1,0,0,1-1-1V44.06a1,1,0,0,1,2,0v5.52A1,1,0,0,1,20.72,50.59Zm0-6.53,0,5.52h0Z" fill="#969696"/><polygon points="19.88 44.89 18.56 43.85 19.18 43.07 20.5 44.1 19.88 44.89" fill="#969696"/><rect x="13.66" y="63.84" width="3.33" height="3.48" rx="0.67" fill="#fff"/><path d="M16.33,67.82h-2a1.18,1.18,0,0,1-1.17-1.17V64.5a1.17,1.17,0,0,1,1.17-1.16h2a1.16,1.16,0,0,1,1.16,1.16v2.15A1.17,1.17,0,0,1,16.33,67.82Zm-2-3.48a.17.17,0,0,0-.17.16v2.15a.18.18,0,0,0,.17.17h2a.17.17,0,0,0,.16-.17V64.5a.16.16,0,0,0-.16-.16Z" fill="#969696"/><rect x="14.64" y="57" width="0.88" height="4.42" fill="#fff"/><rect x="14.14" y="56.5" width="1.88" height="5.42" fill="#969696"/><rect x="14.88" y="62.3" width="21.98" height="1" fill="#969696"/><path d="M34.53,68.59c0-4.69-2.42-8.48-5.41-8.48s-5.41,3.79-5.41,8.48" fill="#969696"/><ellipse cx="29.12" cy="68.81" rx="4.38" ry="6.87" fill="#969696"/><ellipse cx="29.12" cy="68.01" rx="1.83" ry="2.86" fill="#fff"/><path d="M29.12,73.48c-2,0-3.57-2.45-3.57-5.47s1.6-5.46,3.57-5.46S32.7,65,32.7,68,31.1,73.48,29.12,73.48Zm0-10.43c-1.69,0-3.07,2.23-3.07,5s1.38,5,3.07,5,3.08-2.23,3.08-5S30.82,63.05,29.12,63.05Z" fill="#323232"/><rect x="37.12" y="31.55" width="49.21" height="37.26" fill="#ececec"/><path d="M86.84,69.31H36.62V31.05H86.84Zm-49.22-1H85.84V32.05H37.62Z" fill="#969696"/><path d="M69.47,68.59c0-4.69-2.42-8.48-5.41-8.48s-5.41,3.79-5.41,8.48" fill="#969696"/><ellipse cx="64.06" cy="68.81" rx="4.38" ry="6.87" fill="#969696"/><ellipse cx="64.06" cy="68.01" rx="1.83" ry="2.86" fill="#fff"/><path d="M64.06,73.48c-2,0-3.57-2.45-3.57-5.47s1.6-5.46,3.57-5.46S67.64,65,67.64,68,66,73.48,64.06,73.48Zm0-10.43c-1.69,0-3.07,2.23-3.07,5s1.38,5,3.07,5,3.08-2.23,3.08-5S65.76,63.05,64.06,63.05Z" fill="#323232"/><rect x="47.35" y="31.55" width="1" height="37.26" fill="#969696"/><rect x="57.29" y="31.55" width="1" height="37.04" fill="#969696"/><rect x="70.55" y="31.55" width="1" height="37.26" fill="#969696"/><rect x="83.59" y="31.55" width="1" height="37.26" fill="#969696"/><rect x="57.79" y="57.28" width="13.26" height="1" fill="#969696"/><rect x="57.79" y="52.73" width="13.26" height="1" fill="#969696"/><rect x="37.12" y="65.15" width="20.67" height="4.01" fill="#969696"/><rect x="71.05" y="66.08" width="13.04" height="2.73" fill="#969696"/><rect x="37.12" y="31.55" width="33.93" height="2.19" fill="#969696"/><rect x="71.05" y="31.87" width="13.04" height="2.27" fill="#969696"/><polygon points="52.46 48.16 59.52 40.11 52.28 32.22 45.23 39.92 52.46 48.16" fill="red"/><polygon points="59.52 40.11 66.86 48.11 59.7 56.4 52.46 48.16 59.52 40.11" fill="#feff00"/><polygon points="45.23 39.92 52.46 48.16 45.23 56.4 37.88 47.93 45.23 39.92" fill="#1700ff"/><polygon points="52.46 48.16 59.7 56.4 52.46 64.76 45.23 56.4 52.46 48.16" fill="#fff"/><path d="M52.46,65.52,37.21,47.92,52.28,31.48,67.53,48.1ZM38.55,47.94,52.46,64,66.19,48.12,52.28,33Z" fill="#969696"/><rect x="51.96" y="37.19" width="1" height="21.93" transform="translate(-18.73 46.58) rotate(-41.28)" fill="#969696"/><rect x="41.54" y="47.75" width="21.67" height="1" transform="translate(-18.44 55.78) rotate(-48.72)" fill="#969696"/></svg>