<svg xmlns="http://www.w3.org/2000/svg" viewBox="0 0 100 100"><path d="M13.84,36.23h.33a1.31,1.31,0,0,1,1.31,1.31v1.2a0,0,0,0,1,0,0H12.53a0,0,0,0,1,0,0v-1.2A1.31,1.31,0,0,1,13.84,36.23Z" fill="#fff"/><path d="M15.6,38.87H12.41V37.54a1.43,1.43,0,0,1,1.43-1.43h.33a1.43,1.43,0,0,1,1.43,1.43Zm-2.94-.25h2.69V37.54a1.18,1.18,0,0,0-1.18-1.18h-.33a1.18,1.18,0,0,0-1.18,1.18Z" fill="#969696"/><rect x="30.54" y="41.64" width="6.81" height="21.38" fill="#fff"/><path d="M37.48,63.14H30.42V41.51h7.06Zm-6.81-.25h6.56V41.76H30.67Z" fill="#969696"/><path d="M14.42,63C9.24,63,8.8,61.26,8.8,58.21V48.77c0-.06,0-.11,0-.16.13-.92,1.34-9.58,3.7-9.58H28.82a1.61,1.61,0,0,1,1.72,1.47V63Z" fill="#fff"/><path d="M31.19,63.67H14.42c-5.8,0-6.27-2.37-6.27-5.46V48.77a1.79,1.79,0,0,1,0-.24c1.22-9.17,3.44-10.15,4.34-10.15H28.82a2.26,2.26,0,0,1,2.37,2.12Zm-18.68-24c-1,0-2.39,4-3,9v9.52c0,2.73.22,4.16,5,4.16H29.89V40.5a1,1,0,0,0-1.07-.82Z" fill="#969696"/><path d="M10.2,49.31H8.71v-.25H10.2c1.55,0,2.63-5.78,3-8.18H10.78v-.25h2.65l0,.14C13.37,41.11,12.32,49.31,10.2,49.31Z" fill="#969696"/><path d="M19.25,47.77H12.49l0-.15,1.37-7h5.36a.72.72,0,0,1,.76.67v5.79A.72.72,0,0,1,19.25,47.77Zm-6.45-.25h6.45a.47.47,0,0,0,.51-.43V41.3a.47.47,0,0,0-.51-.42H14.09Z" fill="#969696"/><path d="M22.78,47.77h-1a.92.92,0,0,1-.91-.92V41.54a.91.91,0,0,1,.91-.91h1a.92.92,0,0,1,.92.91v5.31A.92.92,0,0,1,22.78,47.77Zm-1-6.89a.65.65,0,0,0-.66.66v5.31a.66.66,0,0,0,.66.67h1a.67.67,0,0,0,.67-.67V41.54a.66.66,0,0,0-.67-.66Z" fill="#969696"/><path d="M28.32,47.77H25.38a1.24,1.24,0,0,1-1.24-1.24V41.87a1.23,1.23,0,0,1,1.24-1.24h2.94a1.24,1.24,0,0,1,1.24,1.24v4.66A1.25,1.25,0,0,1,28.32,47.77Zm-2.94-6.89a1,1,0,0,0-1,1v4.66a1,1,0,0,0,1,1h2.94a1,1,0,0,0,1-1V41.87a1,1,0,0,0-1-1Z" fill="#969696"/><rect x="14.17" y="43.23" width="1" height="5.16" rx="0.46" fill="#fff"/><path d="M14.71,48.52h-.08a.58.58,0,0,1-.58-.59V43.69a.58.58,0,0,1,.58-.58h.08a.59.59,0,0,1,.59.58v4.24A.59.59,0,0,1,14.71,48.52Zm-.08-5.16a.33.33,0,0,0-.33.33v4.24a.34.34,0,0,0,.33.34h.08a.34.34,0,0,0,.34-.34V43.69a.34.34,0,0,0-.34-.33Z" fill="#969696"/><polygon points="14.11 44.09 12.83 43.27 12.97 43.06 14.24 43.88 14.11 44.09" fill="#969696"/><rect x="26.85" y="62.37" width="13.11" height="1.3" fill="#969696"/><rect x="7.86" y="59.26" width="3.22" height="2.75" rx="0.58" fill="#fff"/><path d="M10.5,62.14H8.45a.71.71,0,0,1-.71-.71V59.84a.7.7,0,0,1,.71-.7H10.5a.7.7,0,0,1,.71.7v1.59A.71.71,0,0,1,10.5,62.14ZM8.45,59.39a.45.45,0,0,0-.46.45v1.59a.46.46,0,0,0,.46.46H10.5a.47.47,0,0,0,.46-.46V59.84a.46.46,0,0,0-.46-.45Z" fill="#969696"/><rect x="8.8" y="53.86" width="0.85" height="3.5" fill="#fff"/><path d="M9.78,57.48H8.68V53.73h1.1Zm-.85-.25h.6V54h-.6Z" fill="#969696"/><rect x="31.19" y="47.89" width="6.04" height="0.5" fill="#c7c7c7"/><rect x="31.19" y="60.58" width="6.04" height="0.5" fill="#b9b9b9"/><rect x="9.45" y="58.19" width="20.45" height="0.5" fill="#cecece"/><path d="M28,63c0-3.7-2.34-6.71-5.23-6.71s-5.23,3-5.23,6.71" fill="#969696"/><ellipse cx="22.81" cy="63.19" rx="4.23" ry="5.43" fill="#323232"/><ellipse cx="22.81" cy="63.19" rx="2.46" ry="3.15" fill="#fff"/><path d="M34.15,57.89a1.64,1.64,0,1,1,1.33-1.61A1.49,1.49,0,0,1,34.15,57.89Zm0-3a1.4,1.4,0,1,0,1.08,1.36A1.25,1.25,0,0,0,34.15,54.92Z" fill="#b9b9b9"/><path d="M32.48,53a1,1,0,1,1,1-1.05A1,1,0,0,1,32.48,53Zm0-1.84a.74.74,0,0,0-.7.79.75.75,0,0,0,.7.8.76.76,0,0,0,.71-.8A.75.75,0,0,0,32.48,51.12Z" fill="#b9b9b9"/><path d="M35.82,53a1,1,0,1,1,1-1.05A1,1,0,0,1,35.82,53Zm0-1.84a.74.74,0,0,0-.7.79.75.75,0,0,0,.7.8.76.76,0,0,0,.71-.8A.75.75,0,0,0,35.82,51.12Z" fill="#b9b9b9"/><path d="M33,47.36a1.23,1.23,0,1,1,.95-1.19A1.09,1.09,0,0,1,33,47.36Zm0-2.14c-.39,0-.71.43-.71,1a.85.85,0,0,0,.71.94c.39,0,.7-.42.7-.94S33.34,45.22,33,45.22Z" fill="#c7c7c7"/><path d="M35.36,47.36a1.23,1.23,0,1,1,1-1.19A1.09,1.09,0,0,1,35.36,47.36Zm0-2.14c-.39,0-.71.43-.71,1a.85.85,0,0,0,.71.94c.38,0,.7-.42.7-.94S35.74,45.22,35.36,45.22Z" fill="#c7c7c7"/><path d="M33,45a1.23,1.23,0,1,1,.95-1.19A1.1,1.1,0,0,1,33,45Zm0-2.14c-.39,0-.71.42-.71.95a.85.85,0,0,0,.71.94c.39,0,.7-.42.7-.94S33.34,42.85,33,42.85Z" fill="#c7c7c7"/><path d="M35.36,45a1.23,1.23,0,1,1,1-1.19A1.1,1.1,0,0,1,35.36,45Zm0-2.14c-.39,0-.71.42-.71.95a.85.85,0,0,0,.71.94c.38,0,.7-.42.7-.94S35.74,42.85,35.36,42.85Z" fill="#c7c7c7"/><path d="M23.5,53.37v-2h.3l.38.85a6.64,6.64,0,0,1,.24.66h0c0-.26,0-.52,0-.82v-.69h.25v2h-.27L24,52.5c-.09-.22-.19-.46-.26-.68h0c0,.26,0,.52,0,.84v.71Z" fill="#989695"/><path d="M25.89,52.64c0,.53-.27.76-.54.76s-.52-.28-.52-.73.22-.76.54-.76S25.89,52.21,25.89,52.64Zm-.79,0c0,.27.1.48.26.48s.25-.2.25-.49-.07-.48-.25-.48S25.1,52.42,25.1,52.66Z" fill="#989695"/><path d="M26.69,51.77h0l-.35.18-.06-.28.46-.23H27v1.91h-.35Z" fill="#989695"/><path d="M88.79,44.79h.3a2.48,2.48,0,0,1,2.48,2.48V63a0,0,0,0,1,0,0H88.79a0,0,0,0,1,0,0V44.79A0,0,0,0,1,88.79,44.79Z" fill="#fff"/><path d="M91.69,63.14h-3V44.67h.43a2.61,2.61,0,0,1,2.6,2.6Zm-2.78-.25h2.53V47.27a2.35,2.35,0,0,0-2.35-2.35h-.18Z" fill="#969696"/><rect x="37.68" y="32.37" width="50.61" height="30.64" fill="#fff"/><path d="M88.94,63.67H37V31.72H88.94Zm-50.61-1.3H87.64V33H38.33Z" fill="#969696"/><path d="M73.53,63.14H51.18V54.66H73.53Zm-22.1-.25H73.28v-8H51.43Z" fill="#969696"/><path d="M62.48,63c0-3.7-2.34-6.71-5.23-6.71S52,59.32,52,63" fill="#969696"/><ellipse cx="57.25" cy="63.19" rx="4.23" ry="5.43" fill="#323232"/><ellipse cx="57.25" cy="63.19" rx="2.46" ry="3.15" fill="#fff"/><path d="M72.94,63c0-3.7-2.34-6.71-5.23-6.71s-5.23,3-5.23,6.71" fill="#969696"/><ellipse cx="67.71" cy="63.19" rx="4.23" ry="5.43" fill="#323232"/><ellipse cx="67.71" cy="63.19" rx="2.46" ry="3.15" fill="#fff"/><polygon points="41.39 51.84 44.23 51.84 44.23 44.37 48.26 44.37 48.26 41.48 44.23 41.48 44.23 37.24 48.8 37.24 48.8 34.34 41.39 34.34 41.39 51.84"/><path d="M44.48,52.09H41.14v-18h7.91v3.4H44.48v3.75h4v3.38h-4Zm-2.84-.5H44V44.12h4V41.74H44V37h4.57v-2.4H41.64Z" fill="#969696"/><path d="M59.52,36.48a4.06,4.06,0,0,0-7.6,0,14.86,14.86,0,0,0-1.25,6.61,14.9,14.9,0,0,0,1.25,6.62,4.06,4.06,0,0,0,7.6,0,15,15,0,0,0,1.23-6.61A15,15,0,0,0,59.52,36.48ZM55.72,49.9c-.79,0-1.46-.5-2-1.53a11.41,11.41,0,0,1-.94-5.28,11.48,11.48,0,0,1,.94-5.29c.57-1,1.24-1.53,2-1.53s1.44.5,2,1.53a11.35,11.35,0,0,1,.94,5.29,11.28,11.28,0,0,1-.94,5.28C57.16,49.4,56.51,49.9,55.72,49.9Z"/><path d="M55.72,52.58a4.37,4.37,0,0,1-4-2.76,15.23,15.23,0,0,1-1.27-6.73,15.18,15.18,0,0,1,1.27-6.72,4.31,4.31,0,0,1,8.05,0h0A15.19,15.19,0,0,1,61,43.09a15.16,15.16,0,0,1-1.26,6.72A4.35,4.35,0,0,1,55.72,52.58Zm0-18.48a3.9,3.9,0,0,0-3.58,2.49,14.65,14.65,0,0,0-1.22,6.5,14.62,14.62,0,0,0,1.22,6.5,3.81,3.81,0,0,0,7.15,0,14.66,14.66,0,0,0,1.21-6.5,14.69,14.69,0,0,0-1.21-6.5A3.89,3.89,0,0,0,55.72,34.1Zm0,16a2.61,2.61,0,0,1-2.24-1.65,11.58,11.58,0,0,1-1-5.41,11.58,11.58,0,0,1,1-5.41,2.33,2.33,0,0,1,4.47,0,11.6,11.6,0,0,1,1,5.41,11.6,11.6,0,0,1-1,5.41A2.59,2.59,0,0,1,55.72,50.15Zm0-13.63c-.7,0-1.29.46-1.81,1.4A11.24,11.24,0,0,0,53,43.09a11.19,11.19,0,0,0,.91,5.16c.52.94,1.11,1.4,1.81,1.4s1.27-.46,1.79-1.4a11.06,11.06,0,0,0,.91-5.16,11.11,11.11,0,0,0-.91-5.17C57,37,56.41,36.52,55.72,36.52Z" fill="#969696"/><path d="M66.46,34.34l-4,17.5H64.7l.8-3.57h4.4l.82,3.57h2l-4-17.5Zm2.39,11.47H66.23l1.29-7.6Z"/><path d="M73,52.09H70.52l-.82-3.57h-4l-.8,3.57H62.17l4.09-18h2.67l0,.2Zm-2.13-.5h1.51l-3.89-17H66.66l-3.86,17h1.7L65.3,48h4.79Zm-1.76-5.53H65.93l1.59-9.32Zm-2.62-.5h2l-1-5.88Z" fill="#969696"/><polygon points="82.89 34.34 80.11 43.76 77.33 34.34 74.63 34.34 74.63 51.84 77.13 51.84 77.13 39.84 77.57 39.84 79.34 47.7 80.57 47.7 82.79 39.84 83.51 39.84 83.51 51.84 85.54 51.84 85.54 34.34 82.89 34.34"/><path d="M85.79,52.09H83.26v-12H83l-2.22,7.85H79.14l-1.76-7.79V52.09h-3v-18h3.14l0,.18,2.54,8.61,2.59-8.79h3.09Zm-2-.5h1.53v-17H83.08l-3,10-3-10H74.88v17h2v-12h.89l1.77,7.85h.84l2.22-7.85h1.16Z" fill="#969696"/></svg>