<?xml version="1.0" encoding="iso-8859-1"?>
<!-- Generator: Adobe Illustrator 25.4.1, SVG Export Plug-In . SVG Version: 6.00 Build 0)  -->
<svg version="1.1" id="Layer_1" xmlns="http://www.w3.org/2000/svg" xmlns:xlink="http://www.w3.org/1999/xlink" x="0px" y="0px"
	 viewBox="0 0 100 100" style="enable-background:new 0 0 100 100;" xml:space="preserve">
<path style="fill:#B2B2B2;" d="M82.1,45.9v-3v-3v-3v-3h-4.9h-4.9h-4.9h-4.9v-0.4v-0.4v-0.4v-0.4h-0.45H61.6h-0.45H60.7v0.4v0.4v0.45
	V34h-0.5h-0.5h-0.5h-0.5c0-0.25,0-0.5,0-0.763s0-0.537,0-0.837s0-0.6,0-0.9c0-0.3,0-0.6,0-0.9c-0.05-0.2-0.05-0.4-0.025-0.6
	c0.025-0.2,0.075-0.4,0.125-0.6s0.125-0.4,0.212-0.587C59.1,28.625,59.2,28.45,59.3,28.3c0.1-0.1,0.2-0.175,0.3-0.225
	C59.7,28.025,59.8,28,59.9,28c0.1-0.05,0.225-0.075,0.35-0.087C60.375,27.9,60.5,27.9,60.6,27.9l0,0l0,0l0,0l0,0v-0.25V27.4v-0.25
	V26.9c-0.2,0-0.4,0-0.588,0.013C59.825,26.925,59.65,26.95,59.5,27c-0.2,0.05-0.375,0.125-0.538,0.225
	C58.8,27.325,58.65,27.45,58.5,27.6c-0.15,0.2-0.3,0.425-0.438,0.663C57.925,28.5,57.8,28.75,57.7,29s-0.15,0.525-0.175,0.8
	C57.5,30.075,57.5,30.35,57.5,30.6c0,0.3,0,0.6,0,0.9c0,0.3,0,0.6,0,0.9s0,0.575,0,0.837s0,0.513,0,0.763h-0.25H57h-0.35H56.3v-2.15
	V29.7v-2.15V25.4h-5.4h-5.4H40h-5.5v0.4v0.4v0.4V27c0,0,0.1-0.025,0.237-0.038C34.875,26.95,35.05,26.95,35.2,27s0.3,0.1,0.4,0.2
	c0.1,0.1,0.15,0.25,0.1,0.5c-1,1.25-1.7,3.05-2.188,5.038C33.025,34.725,32.75,36.9,32.6,38.9c-0.15,2.05-0.2,3.925-0.213,5.287
	C32.375,45.55,32.4,46.4,32.4,46.4h0.25h0.25h0.25h0.25l-0.05,0.95L33.3,48.3l-0.05,0.95L33.2,50.2c0,0-0.425,0.2-1.062,0.5
	s-1.487,0.7-2.337,1.1s-1.725,0.775-2.4,1.037c-0.675,0.263-1.15,0.413-1.2,0.363s-0.075-0.325-0.112-0.725
	C26.05,52.075,26,51.55,25.9,51c-0.1-0.55-0.275-1.15-0.588-1.713C25,48.725,24.55,48.2,23.9,47.8c-0.4,0.3-1.25,0.95-2.312,1.762
	S19.25,51.35,18,52.3s-2.425,1.875-3.288,2.562C13.85,55.55,13.3,56,13.3,56c-0.1,0.7-0.15,1.4-0.175,2.1
	C13.1,58.8,13.1,59.5,13.1,60.2s0.025,1.4,0.062,2.1C13.2,63,13.25,63.7,13.3,64.4c2.2,0.15,4.025-0.125,5.537-0.637
	C20.35,63.25,21.55,62.5,22.5,61.7s1.675-1.65,2.225-2.363c0.55-0.712,0.925-1.287,1.175-1.537s0.675-0.575,1.212-0.925
	S28.3,56.15,29,55.8c0.75-0.35,1.55-0.675,2.375-0.963C32.2,54.55,33.05,54.3,33.9,54.1s1.625-0.375,2.425-0.487
	S37.95,53.45,38.9,53.5c0.9,0.05,1.925,0.2,3.125,0.475S44.6,54.65,46.2,55.2c0.9,0.55,2.15,0.95,3.55,1.25
	c1.4,0.3,2.95,0.5,4.45,0.65c1.5,0.15,2.95,0.2,4.125,0.2s2.075-0.05,2.475-0.1s0.975-0.325,1.65-0.713
	C63.125,56.1,63.9,55.6,64.7,55.1c0.8-0.5,1.65-1,2.463-1.375S68.75,53.1,69.4,53.1h3.25h3.25h3.25h3.25v-0.9v-0.9v-0.9v-0.9h0.3H83
	h0.3h0.3v-1v-1v-1v-1h-0.4h-0.4h-0.35H82.1v0.2V45.9z M46.1,37.2h-2h-2h-2h-2v-2v-2v-2v-2h2h2h2h2v2v2v2V37.2z M54.3,33.7h-1.5h-1.5
	h-1.5h-1.5v-1.1v-1.1v-1.1v-1.1h1.45h1.45h1.45h1.45v1.1v1.1l0.1,1.1L54.3,33.7z"/>
<path style="fill:#B2B2B2;" d="M36.2,56.6c0.65,0,1.75,0.4,3.062,1.013S42.1,59.05,43.6,59.9s2.95,1.75,4.112,2.513
	C48.875,63.175,49.75,63.8,50.1,64.1c0.3,0.3,0.475,0.825,0.562,1.45c0.087,0.625,0.087,1.35,0.037,2.05s-0.175,1.4-0.3,1.975
	c-0.125,0.575-0.25,1.025-0.3,1.225s-0.275,0.525-0.588,0.912C49.2,72.1,48.8,72.55,48.4,73c-0.45,0.45-0.9,0.85-1.3,1.137
	c-0.4,0.287-0.75,0.463-1,0.463h-4.7h-4.7H32h-4.7c-0.55,0-1.15-0.25-1.725-0.65C25,73.55,24.45,73,24,72.4
	c-0.5-0.6-0.9-1.225-1.175-1.762C22.55,70.1,22.4,69.65,22.4,69.4c0-0.3,0-0.8,0-1.4s0-1.3,0-2c0.05-0.7,0.1-1.375,0.188-1.938
	C22.675,63.5,22.8,63.05,23,62.8s1-0.75,2.125-1.375S27.7,60.05,29.2,59.3c1.45-0.7,2.95-1.375,4.212-1.875
	C34.675,56.925,35.7,56.6,36.2,56.6z"/>
<path style="fill:#B2B2B2;" d="M72.4,56.6c0.65,0,1.75,0.4,3.062,1.013S78.3,59.05,79.8,59.9s2.95,1.75,4.113,2.513
	C85.075,63.175,85.95,63.8,86.3,64.1c0.3,0.3,0.475,0.825,0.562,1.45c0.087,0.625,0.087,1.35,0.037,2.05s-0.175,1.4-0.3,1.975
	c-0.125,0.575-0.25,1.025-0.3,1.225c-0.05,0.2-0.275,0.525-0.588,0.912C85.4,72.1,85,72.55,84.6,73c-0.45,0.45-0.9,0.85-1.3,1.137
	s-0.75,0.463-1,0.463h-4.7h-4.7h-4.7h-4.7c-0.55,0-1.15-0.25-1.725-0.65C61.2,73.55,60.65,73,60.2,72.4
	c-0.5-0.6-0.9-1.225-1.175-1.762C58.75,70.1,58.6,69.65,58.6,69.4c0-0.3,0-0.8,0-1.4s0-1.3,0-2c0.05-0.7,0.1-1.375,0.188-1.938
	C58.875,63.5,59,63.05,59.2,62.8s1-0.75,2.125-1.375S63.9,60.05,65.4,59.3c1.5-0.7,3.025-1.375,4.287-1.875S71.95,56.6,72.4,56.6z"
	/>
</svg>
