<svg xmlns="http://www.w3.org/2000/svg" viewBox="0 0 100 100"><path d="M53.24,62.65l-.87-4.5H47.79l-.86,4.5h-3l5-23.11H51.4l4.92,23.11Zm-1.32-6.89c-.69-3.88-1.39-7.8-1.8-11.72-.39,4-1.15,7.84-1.88,11.72Z"/><path d="M65.47,62.65,61.24,51.88V62.65H58.12V39.54h4.13a5.07,5.07,0,0,1,3.36.86c1.56,1.18,2,3.33,2,5.17,0,2.25-.62,5.23-3.32,5.85l4.4,11.23ZM61.24,49.79a3.37,3.37,0,0,0,2.25-.55,4.05,4.05,0,0,0,1.08-3.12,6.56,6.56,0,0,0-.63-3,2.19,2.19,0,0,0-2.18-1h-.52Z"/><path d="M71.05,62.65V39.54h8.28v2.63H74.17v7.35h4.57v2.63H74.17V60h5.16v2.63Z"/><path d="M89.77,62.65l-.87-4.5H84.32l-.86,4.5h-3l5-23.11h2.46l4.92,23.11Zm-1.32-6.89c-.69-3.88-1.39-7.8-1.8-11.72-.39,4-1.15,7.84-1.88,11.72Z"/><path d="M42.29,70.77H9.62V32.52H42.29ZM11.15,69.24H40.76V34.05H11.15Z" fill="navy"/><polygon points="41.53 33.29 10.39 70.01 41.53 70.01 41.53 33.29" fill="navy"/></svg>