<svg xmlns="http://www.w3.org/2000/svg" viewBox="0 0 100 100"><path d="M37.19,38.93H29.87c-1.52,0-3.75,1.77-6.17,5.16s-4,6-4.16,6-7,1.34-7,3.75V66c0,.92,1.89,2.41,3.9,2.41h25" fill="#fff"/><path d="M41.49,69.17h-25c-2.21,0-4.65-1.66-4.65-3.16V53.83c0-2.83,5.82-4.15,7.36-4.44.2-.26.62-.89,1.06-1.56.71-1.06,1.68-2.52,2.86-4.17,2.52-3.54,4.93-5.48,6.78-5.48h7.32v1.5H29.87c-1,0-3,1.27-5.56,4.85-1.16,1.63-2.13,3.08-2.83,4.13-1.35,2.05-1.44,2.17-1.94,2.17-1.28.17-6.23,1.6-6.23,3V66a3.69,3.69,0,0,0,3.15,1.66h25Zm-22-19.84a.79.79,0,0,0-.23,0Z" fill="#646464"/><rect x="37.19" y="29.14" width="49.21" height="39.28" rx="4.3" fill="#fff"/><path d="M82.09,69.17H41.49a5.06,5.06,0,0,1-5.05-5V33.44a5.06,5.06,0,0,1,5.05-5h40.6a5.06,5.06,0,0,1,5,5V64.12A5.06,5.06,0,0,1,82.09,69.17ZM41.49,29.89a3.55,3.55,0,0,0-3.55,3.55V64.12a3.56,3.56,0,0,0,3.55,3.55h40.6a3.56,3.56,0,0,0,3.55-3.55V33.44a3.55,3.55,0,0,0-3.55-3.55Z" fill="#646464"/><rect x="39.85" y="36.18" width="9.97" height="12.26" rx="0.62" fill="#fff"/><path d="M49.2,48.6H40.47a.78.78,0,0,1-.77-.77v-11a.78.78,0,0,1,.77-.77H49.2a.78.78,0,0,1,.77.77v11A.78.78,0,0,1,49.2,48.6ZM40.47,36.33a.47.47,0,0,0-.47.47v11a.47.47,0,0,0,.47.47H49.2a.47.47,0,0,0,.47-.47v-11a.47.47,0,0,0-.47-.47Z" fill="#646464"/><rect x="73.99" y="36.18" width="9.97" height="12.26" rx="0.62" fill="#fff"/><path d="M83.34,48.6H74.61a.78.78,0,0,1-.77-.77v-11a.78.78,0,0,1,.77-.77h8.73a.77.77,0,0,1,.77.77v11A.77.77,0,0,1,83.34,48.6ZM74.61,36.33a.48.48,0,0,0-.47.47v11a.48.48,0,0,0,.47.47h8.73a.47.47,0,0,0,.47-.47v-11a.47.47,0,0,0-.47-.47Z" fill="#646464"/><rect x="16.54" y="55.28" width="18.67" height="1.1" fill="#646464"/><path d="M33.77,50.23H19.54v-.3H33.77c1.07,0,1.38-.55,1.38-2.46V43.2a1.19,1.19,0,0,0-1.3-1.33H25.6v-.3h8.25a1.51,1.51,0,0,1,1.6,1.63v4.27C35.45,49.3,35.19,50.23,33.77,50.23Z" fill="#646464"/><polygon points="23.89 50.1 23.61 50 26.63 41.69 26.91 41.79 23.89 50.1" fill="#646464"/><rect x="22.6" y="46.61" width="1.64" height="5.63" rx="0.66" fill="#fff"/><path d="M23.58,52.39h-.32a.81.81,0,0,1-.81-.81V47.26a.8.8,0,0,1,.81-.8h.32a.8.8,0,0,1,.81.8v4.32A.81.81,0,0,1,23.58,52.39Zm-.32-5.63a.5.5,0,0,0-.51.5v4.32a.51.51,0,0,0,.51.51h.32a.51.51,0,0,0,.51-.51V47.26a.5.5,0,0,0-.51-.5Z" fill="#646464"/><path d="M12.56,61.83v-.3a1,1,0,0,0,.75-.32c.81-.84.71-3.09.66-4.3,0-.24,0-.44,0-.58a.84.84,0,0,0-.2-.62c-.22-.23-.63-.22-1-.22h-.17v-.3h.17a1.68,1.68,0,0,1,1.23.3,1.09,1.09,0,0,1,.29.84c0,.14,0,.33,0,.57.05,1.25.15,3.59-.74,4.52A1.29,1.29,0,0,1,12.56,61.83Z" fill="#646464"/><path d="M74.09,59.16H70.5A3.55,3.55,0,0,0,67,62.7v5H77.63v-5A3.55,3.55,0,0,0,74.09,59.16Z" fill="#969696"/><path d="M66.81,67.9V62.7A3.7,3.7,0,0,1,70.5,59h3.59a3.7,3.7,0,0,1,3.69,3.69v5.2Zm3.69-8.59a3.39,3.39,0,0,0-3.39,3.39v4.9H77.47V62.7a3.38,3.38,0,0,0-3.38-3.39Z" fill="#646464"/><path d="M22.58,59.16H19a3.54,3.54,0,0,0-3.54,3.54v5H26.12v-5A3.54,3.54,0,0,0,22.58,59.16Z" fill="#969696"/><path d="M15.31,67.9V62.7A3.69,3.69,0,0,1,19,59h3.58a3.69,3.69,0,0,1,3.69,3.69v5.2ZM19,59.31a3.39,3.39,0,0,0-3.39,3.39v4.9H26V62.7a3.39,3.39,0,0,0-3.39-3.39Z" fill="#646464"/><rect x="10.68" y="63.09" width="4.12" height="4.39" rx="0.97" fill="#fff"/><path d="M13.83,67.63H11.64a1.11,1.11,0,0,1-1.11-1.11V64.06a1.12,1.12,0,0,1,1.11-1.12h2.19a1.12,1.12,0,0,1,1.11,1.12v2.46A1.11,1.11,0,0,1,13.83,67.63Zm-2.19-4.39a.82.82,0,0,0-.81.82v2.46a.81.81,0,0,0,.81.81h2.19a.81.81,0,0,0,.81-.81V64.06a.82.82,0,0,0-.81-.82Z" fill="#646464"/><rect x="85.1" y="63.09" width="4.12" height="4.39" rx="0.97" fill="#fff"/><path d="M88.25,67.63H86.06A1.11,1.11,0,0,1,85,66.52V64.06a1.12,1.12,0,0,1,1.11-1.12h2.19a1.12,1.12,0,0,1,1.12,1.12v2.46A1.12,1.12,0,0,1,88.25,67.63Zm-2.19-4.39a.82.82,0,0,0-.81.82v2.46a.81.81,0,0,0,.81.81h2.19a.82.82,0,0,0,.82-.81V64.06a.82.82,0,0,0-.82-.82Z" fill="#646464"/><path d="M34.23,36.78a1.74,1.74,0,0,1-2,1.74,1.64,1.64,0,0,1-1.85-1.74,2.74,2.74,0,0,1,1.91-2.18A2.74,2.74,0,0,1,34.23,36.78Z" fill="#fff"/><path d="M32.26,38.67a1.79,1.79,0,0,1-2-1.89,2.9,2.9,0,0,1,2.06-2.34,2.9,2.9,0,0,1,2.06,2.34A1.89,1.89,0,0,1,32.26,38.67Zm.06-3.92c-.27,0-1.76.89-1.76,2a1.51,1.51,0,0,0,1.7,1.59,1.62,1.62,0,0,0,1.82-1.59C34.08,35.64,32.59,34.75,32.32,34.75Z" fill="#646464"/><ellipse cx="40.12" cy="32.88" rx="1.29" ry="1.77" fill="#fff"/><path d="M40.12,34.8c-.79,0-1.44-.86-1.44-1.92S39.33,31,40.12,31a1.73,1.73,0,0,1,1.45,1.91A1.74,1.74,0,0,1,40.12,34.8Zm0-3.53c-.63,0-1.14.72-1.14,1.61s.51,1.62,1.14,1.62,1.15-.73,1.15-1.62S40.75,31.27,40.12,31.27Z" fill="#646464"/><ellipse cx="83.1" cy="32.88" rx="1.29" ry="1.77" fill="#fff"/><path d="M83.1,34.8c-.8,0-1.44-.86-1.44-1.92S82.3,31,83.1,31s1.44.86,1.44,1.91S83.9,34.8,83.1,34.8Zm0-3.53c-.63,0-1.14.72-1.14,1.61s.51,1.62,1.14,1.62,1.14-.73,1.14-1.62S83.73,31.27,83.1,31.27Z" fill="#646464"/><ellipse cx="72.3" cy="67.63" rx="4.92" ry="7.02" fill="#323232"/><ellipse cx="72.3" cy="67.63" rx="2.69" ry="3.83" fill="#fff"/><ellipse cx="20.8" cy="67.63" rx="4.92" ry="7.02" fill="#323232"/><ellipse cx="20.8" cy="67.63" rx="2.69" ry="3.83" fill="#fff"/><polygon points="58.8 54.85 58.8 48.84 54.04 51.56 51.27 46.14 55.9 43.31 51.26 40.31 54.32 35.03 58.9 37.78 58.9 32.04 65.02 32.05 65.02 37.77 69.58 35.03 72.64 40.31 68 43.31 72.63 46.14 69.86 51.56 65.1 48.84 65.11 54.85 58.8 54.85" fill="#fff"/><path d="M59.05,32.19h5.82V38l4.67-2.81,2.91,5-4.72,3.06,4.71,2.88L69.8,51.35,65,48.58V54.7H59V48.58L54.1,51.35,51.46,46.2l4.72-2.88-4.72-3.06,2.91-5L59.05,38V32.19m-.3-.3v5.62L54.53,35l-.26-.16-.16.26-2.91,5-.14.25.24.16,4.31,2.79-4.3,2.63-.24.14.13.25,2.63,5.16.15.28.27-.16,4.4-2.51V55h6.61V49.1l4.4,2.51.28.16.14-.28,2.63-5.16.13-.25-.24-.14-4.31-2.63,4.32-2.79.24-.16-.14-.25-2.91-5-.16-.26-.26.16-4.21,2.53V31.9H58.75Z" fill="#646464"/><path d="M61.77,40.8a7.68,7.68,0,0,0-.09-1.13c-.69-1.18-.36-2.6,0-2.49s1,.24,1.09,0l0,0s-.26,0-.26-.09.21.09.3,0-.26-.27-.39-.46c-.5-.72-1.36.07-1.69.5a2.11,2.11,0,0,0-.18,2,5.77,5.77,0,0,0,.76,1.3c.11.13.46.52.46.39Zm1,5.1a2.83,2.83,0,0,1-.44,1.54,2.23,2.23,0,0,0-.71,2c.39,2.19.35.68.35.61-.16-1.72.54-1.65,1.14-2.8A1.21,1.21,0,0,0,62.92,46l-.13-.09ZM61.7,37.35l.22,5.2c0,.32.85-.81.85-1.11l.08-4.4c0,.63-1.15.22-1.15.31Zm.78-.8c.09.11.35.2.35.34V35.08a.57.57,0,1,0-1.13,0v1.08c0,.18.44-.13.78.41Zm.15,14a1.68,1.68,0,0,1-.49,1.51,1.23,1.23,0,0,0,.69-1.26c0-.1-.2-.39-.2-.25Zm0-4.3,0-2.76c0-.18-.65.59-.65,1l0,3.08c0,.2.54-.59.57-1.29Zm-.09,5,.06-3a2.36,2.36,0,0,0-.47.74l.12,2.8c0-.11.27-.29.29-.58Zm-.24.95,0,.59h.07l.08-.81s-.19.17-.19.22ZM62,36.64s.2,0,.2,0-.16-.06-.2-.06-.22,0-.22.05.18,0,.22,0Zm10.48,3.62-2.91-5L64.86,38V32.2H59.05V38l-4.68-2.81-2.91,5,4.72,3.06L51.46,46.2l2.64,5.15L59,48.58V54.7h6V48.58l4.85,2.77,2.63-5.15-4.71-2.88,4.72-3.06Zm-9.52-.06,0,1.24c0,.62-1.41,1.7-1.63,2.67a2,2,0,0,0,.13,1.22c0,.11.37.8.52.77a8.57,8.57,0,0,0,0-1.24c-.18-1.11,1.34-1.85,1.75-2.94.26-.7,0-1.18-.71-1.72Z" fill="blue" fill-rule="evenodd"/></svg>