<?xml version="1.0" encoding="utf-8"?>
<!-- Generator: Adobe Illustrator 25.2.3, SVG Export Plug-In . SVG Version: 6.00 Build 0)  -->
<svg version="1.1" id="Layer_1" xmlns="http://www.w3.org/2000/svg" xmlns:xlink="http://www.w3.org/1999/xlink" x="0px" y="0px"
	 viewBox="0 0 100 100" style="enable-background:new 0 0 100 100;" xml:space="preserve">
<style type="text/css">
	.st0{fill:#919191;}
</style>
<g id="Layer_2_1_">
	<g id="Layer_2-2">
		<path class="st0" d="M83,60.3c-0.8-1.8-3.9-3.2-6.7-4.2c-2.9-1-5.6-1.5-5.9-1.6c-0.3-0.1-1.3-1.6-2.2-3.2
			c-0.9-1.6-1.8-3.2-1.8-3.4c0-0.2-0.2-5.7-0.4-11.2c-0.2-5.4-0.4-10.8-0.4-10.8h-5.2h-5.2l-1.1,4.4L53,34.8c0,0-4.4,0-8.9,0
			s-9,0.1-9.1,0.4c-0.7,1.5-1.1,5.9-1.3,10.1c-0.2,4.1-0.3,7.9-0.3,7.9H30h-3.4c-0.8,0-1.9-0.3-2.8-0.6c-1-0.3-1.8-0.7-2.2-0.8
			c-0.9-0.2-1.8-0.3-2.7-0.3c-0.9-0.1-1.8-0.1-2.7-0.1c-0.7,0-1.3,0.1-1.7,0.2c-0.4,0.1-0.6,0.3-0.6,0.6v2.8v2.8
			c0,1,0.7,1.8,1.4,2.4s1.5,0.9,1.6,1.2c0,1.9,0.4,4.5,0.8,6.9c0.4,2.4,0.8,4.7,1,5.9L50.9,74l32.3,0.1c3,0,3.4-2.6,2.8-5.6
			C85.4,65.5,83.8,62.1,83,60.3z M49.3,47.3h-6.6h-6.6v-4.2V39h6.6h6.6v4.2V47.3z M64.5,55.9H58h-6.4v-8.5v-8.5
			c0-0.2,0.5-0.6,0.9-0.9c0.5-0.3,0.9-0.6,0.9-0.6c0.5-0.1,0.9,0.2,1.2,0.6c0.3,0.4,0.4,0.8,0.3,1S54.9,40,55.1,41
			c0.2,1,0.6,1.9,1.4,2c1.3,0.1,2.7,0.1,4,0.1s2.7,0,4-0.1l0,6.4L64.5,55.9z"/>
	</g>
</g>
</svg>
