<svg xmlns="http://www.w3.org/2000/svg" viewBox="0 0 100 100"><path d="M28.71,75.28c-5.41,0-16.94-1.69-13.59-12.62.16-.52,1.15,2.46,2.51,1.88s2.2-2.87,1.88-4.23-1.67-5.13-1.93-5.75-1-5,.42-6.91a7,7,0,0,1,4.6-3.14c.63,0-.63,2.93-.37,3.67s2.46,3.39,3.35,3.29S28.4,48.23,28,45.4s-3.87-5.54-2.4-9.57c.26-.62,2.77,1.83,3.45,2.3s4,2.2,4.39,5.08.63,3,1,3.19,1.88-.26,3.55-1.83c.26-.26,1.15,1.46.94,3s-2.66,6.17-2.51,6.75.37.47.74.31,1.3-1.15,2.09-1.15,3.24,0,4.08,1.2c.15.42-3.19,3.66-3.45,4.92s-1.58,9.46-2.67,10.88S33.13,75.31,28.71,75.28Z" fill="#898989"/><path d="M28.77,75.78h-.06c-2.94,0-10.1-.53-13.22-4.78-1.61-2.2-1.9-5-.85-8.49l.09-.3.37-.11c.39-.05.59.26.89.72s1,1.47,1.45,1.26c1.1-.46,1.85-2.52,1.59-3.66-.31-1.32-1.66-5.06-1.91-5.67s-1.14-5.19.47-7.39a7.39,7.39,0,0,1,5-3.34.65.65,0,0,1,.55.21c.31.37.18,1-.11,2.15A6.75,6.75,0,0,0,22.7,48c.24.67,2.25,3,2.83,3s2.35-2.86,2-5.49a9.49,9.49,0,0,0-1.18-2.87c-1-1.94-2.22-4.14-1.2-7a.67.67,0,0,1,.46-.41c.56-.13,1.25.36,2.93,1.8.35.3.64.55.82.67a3.59,3.59,0,0,0,.32.21c1.17.73,3.93,2.44,4.28,5.21s.56,2.74.69,2.8a5.75,5.75,0,0,0,3-1.74.6.6,0,0,1,.69-.09c.64.32,1.28,2.1,1.09,3.56a20.84,20.84,0,0,1-1.5,4,20.11,20.11,0,0,0-1,2.5h0c.08,0,.26-.18.4-.28A3.5,3.5,0,0,1,39.23,53c1.05,0,3.54,0,4.49,1.43l.05.1c.17.44-.14.84-1.37,2.31a12.67,12.67,0,0,0-2.06,2.88c0,.21-.11.62-.21,1.16-.81,4.49-1.68,8.8-2.54,9.92C36.15,72.67,33.1,75.78,28.77,75.78Zm-.06-1h.06c3.9,0,6.7-2.86,8-4.58.84-1.08,1.94-7.19,2.36-9.49.1-.55.17-1,.22-1.18.15-.76,1-1.86,2.26-3.33.4-.47.91-1.08,1.11-1.39C42,54,40,54,39.32,54a2.85,2.85,0,0,0-1.39.71,3.25,3.25,0,0,1-.6.4,1,1,0,0,1-.9.09,1.06,1.06,0,0,1-.51-.73c-.11-.41.17-1.11,1.07-3.17a21.77,21.77,0,0,0,1.43-3.78A4.22,4.22,0,0,0,38,45.22c-1.57,1.35-3.15,1.91-3.77,1.64s-.92-.67-1.29-3.59c-.3-2.3-2.76-3.83-3.82-4.49l-.36-.23c-.19-.13-.52-.41-.9-.74a17.73,17.73,0,0,0-1.91-1.49c-.67,2.23.3,4,1.25,5.82a10.1,10.1,0,0,1,1.29,3.19A8.21,8.21,0,0,1,26.93,51a2.21,2.21,0,0,1-1.29,1c-1.31.16-3.62-2.91-3.88-3.63a4.46,4.46,0,0,1,.26-2.2c.08-.32.18-.76.23-1.07A7,7,0,0,0,18.4,48c-1.26,1.72-.62,5.8-.36,6.41s1.64,4.44,2,5.84c.37,1.59-.56,4.12-2.17,4.8-1.12.47-1.95-.54-2.47-1.32-.66,2.72-.35,5,.93,6.72,2.94,4,10.25,4.37,12.42,4.38Zm9.62-29.86,0,0Z" fill="#969696"/><path d="M18.29,31.7c.36-.2,2.59,3.13,2,5.34s-3.47,7.52-4,7.73S13.9,41.93,14.11,41,17.74,32,18.29,31.7Z" fill="#898989"/><path d="M16.27,45.28a1,1,0,0,1-.63-.27c-.77-.66-2.26-3.07-2-4.11,0-.08,3.52-9.15,4.43-9.65a.65.65,0,0,1,.75.13c.84.66,2.53,3.68,2,5.79s-3.46,7.73-4.26,8.06A.52.52,0,0,1,16.27,45.28Zm2.12-12.9a79.36,79.36,0,0,0-3.79,8.74c-.12.52,1.06,2.57,1.63,3.08a35.49,35.49,0,0,0,3.58-7.28C20.22,35.36,19,33.12,18.39,32.38Z" fill="#969696"/><path d="M34.83,27.18c-.56.19-2.72,4.06-2.51,6.14S35.71,39.88,36,40s2.17-1.41,1.79-4.32S35.33,27,34.83,27.18Z" fill="#898989"/><path d="M36,40.52a.65.65,0,0,1-.26-.06c-.49-.25-3.69-4.9-3.9-7.09s1.88-6.34,2.84-6.66l.23-.08.28.15c.92.58,2.76,6.42,3.07,8.85a5,5,0,0,1-1.67,4.66A1.13,1.13,0,0,1,36,40.52ZM34.81,27.88c-.66.89-2.15,3.75-2,5.39s2.54,5.2,3.26,6.13a4.07,4.07,0,0,0,1.18-3.65A32.08,32.08,0,0,0,34.81,27.88Z" fill="#969696"/><path d="M54,38.56c-.17-.14-3.2-2.94-3.74-5.08-.07-.4,6.94-4.71,8.78-5.63a38.26,38.26,0,0,1,9.41-3.5s-.4,1-.7,1.14a18.8,18.8,0,0,0-6.7,2.76c-.09.31.83,2.41.79,2.67s-.57.57-.31,1.31a79,79,0,0,0,5.91,10.9C70.28,47.29,82,66.19,82.93,67.46s2.89,3.9,3,4.07S84,73.37,83.72,73.24,73.39,56.92,73.17,56.43,62.88,40.63,61.79,39.37s-4.38-4.95-4.38-4.95Z" fill="#898989"/><g opacity="0.95"><path d="M55.05,75.47c-.54-.22-3.19-3.68-2.88-8.9S54,54.67,56.45,52.93c.19-.12,6,4.43,6,4.43S71.64,42.27,72,41.57s1.49-9,1.78-9.18a5.24,5.24,0,0,1,5.09.89,9,9,0,0,1,2.28,4.27c0,.22-5.45,4.07-6.87,6.08s-9,15.32-9,15.32,6.9,4.47,7.11,4.82-1.63,6.76-11.16,11.08A11.92,11.92,0,0,1,55.05,75.47Z" fill="#898989"/></g><path d="M56.69,76.15a5.66,5.66,0,0,1-1.82-.22c-.76-.31-3.53-3.93-3.2-9.39.28-4.53,1.7-12,4.48-14,.37-.25.5-.34,6.17,4.09,3.67-6,8.94-14.75,9.18-15.26.13-.3.5-2.5.79-4.26.83-4.9.89-4.94,1.16-5.12a5.64,5.64,0,0,1,5.68.9,9,9,0,0,1,2.47,4.74c0,.27-.13.34-1.56,1.47-1.68,1.32-4.48,3.52-5.4,4.83C73.38,45.69,67.23,56.53,66,58.78c6.61,4.3,6.8,4.62,6.87,4.74s.19.32-.08,1.16c-.34,1.08-2.5,6.63-11.31,10.63A13.12,13.12,0,0,1,56.69,76.15ZM55.25,75A11.57,11.57,0,0,0,61,74.39C69.58,70.51,71.75,65,71.9,64c-.61-.49-4.48-3-6.89-4.6l-.39-.26.23-.41c.31-.54,7.55-13.34,9-15.36,1-1.43,3.77-3.6,5.6-5,.46-.36.94-.74,1.16-.93a8.73,8.73,0,0,0-2.08-3.71,4.9,4.9,0,0,0-4.39-.89c-.17.59-.55,2.83-.83,4.5a36.25,36.25,0,0,1-.87,4.51c-.32.7-8.58,14.3-9.52,15.84l-.3.48-.44-.34C59.88,56,57.3,54,56.51,53.52c-2.09,1.84-3.53,8-3.84,13.08C52.38,71.4,54.73,74.68,55.25,75Z" fill="#969696"/><path d="M75,39.43a36,36,0,0,1,.73-4.9c.27-.34,2.45.59,2.66,2.23C78.35,37.13,75,39.43,75,39.43Z" fill="#fff"/></svg>