<?xml version="1.0" encoding="utf-8"?>
<!-- Generator: Adobe Illustrator 25.3.1, SVG Export Plug-In . SVG Version: 6.00 Build 0)  -->
<svg version="1.1" id="Layer_1" xmlns="http://www.w3.org/2000/svg" xmlns:xlink="http://www.w3.org/1999/xlink" x="0px" y="0px"
	 viewBox="0 0 100 100" style="enable-background:new 0 0 100 100;" xml:space="preserve">
<path style="fill:#969696;" d="M61.8,81H38.2c-17.1,0-31-13.9-31-31s13.9-31,31-31h23.6c17.1,0,31,13.9,31,31S78.9,81,61.8,81z
	 M38.2,20c-16.6,0-30,13.4-30,30s13.4,30,30,30h23.6c16.6,0,30-13.4,30-30s-13.4-30-30-30l0,0H38.2z"/>
<path style="fill:#FFFFFF;" d="M19,55c0.7-0.2,1.7-0.6,2.7-0.9c1-0.3,1.9-0.6,2.2-0.7c0,0,1.9-2.1,4-4.2c2.1-2.1,4.3-4.2,4.9-4.2H36
	h3.3v11.1v11.1h-9.9h-9.9c-0.2,0-0.8-0.1-1.3-0.8c-0.5-0.6-1-1.7-1-3.7v-2.6v-2.6c0-0.6,0.3-1.2,0.6-1.6C18,55.5,18.4,55.1,19,55"/>
<path style="fill:#646464;" d="M39.5,67.4h-10h-10c-0.4,0-1-0.2-1.6-0.9c-0.6-0.7-1-1.9-1-3.8v-2.6v-2.6c0-0.7,0.3-1.3,0.6-1.8
	s0.8-0.9,1.4-1.1l2.2-0.7l2.2-0.7l0.3-0.1l0.3-0.1c0.7-0.8,2.6-2.9,4.5-4.8s3.8-3.6,4.4-3.6h3.4h3.4l0,11.4L39.5,67.4z M32.8,45.2
	c-0.4,0-1.9,1.3-3.6,2.9s-3.7,3.7-5.1,5.4l0,0l0,0l-0.3,0.1l-0.3,0.1l-2.2,0.7l-2.2,0.7c-0.5,0.1-0.9,0.5-1.2,0.9
	c-0.3,0.4-0.5,0.9-0.5,1.5v2.6v2.6c0,2.1,0.5,3.1,1.1,3.6c0.5,0.5,1.1,0.6,1.1,0.6h9.8h9.8V56.1V45.2h-3.2H32.8z"/>
<path style="fill:#646464;" d="M35.8,53.6h-5.9h-5.9v-0.2v-0.2h5.9h5.9c0.6,0,1-0.1,1.2-0.3s0.3-0.3,0.3-0.4v-2v-2
	c0-0.1,0-0.3-0.1-0.5s-0.4-0.4-1-0.4h-3.1H30v-0.2V47h3.1h3.1c0.7,0,1.1,0.2,1.3,0.5s0.2,0.6,0.2,0.8v2v2c0,0.2-0.1,0.5-0.4,0.8
	C37,53.4,36.5,53.6,35.8,53.6z"/>
<polygon style="fill:#646464;" points="21.2,58 29.2,58 37.1,58 37.1,58.3 37.1,58.5 29.2,58.5 21.2,58.5 21.2,58.3 "/>
<polygon style="fill:#646464;" points="28.1,52.3 27.9,52.2 27.7,52.1 28.9,49.6 30.1,47.1 30.3,47.2 30.5,47.3 29.3,49.8 "/>
<path style="fill:#FFFFFF;" d="M27.1,50.9h0.1h0.1c0.2,0,0.3,0.1,0.4,0.2s0.2,0.3,0.2,0.5v1.5v1.5c0,0.2-0.1,0.4-0.2,0.5
	s-0.3,0.2-0.4,0.2h-0.1h-0.1c-0.2,0-0.3-0.1-0.4-0.2s-0.2-0.3-0.2-0.5v-1.5v-1.5c0-0.2,0.1-0.4,0.2-0.5C26.8,51,26.9,50.9,27.1,50.9
	z"/>
<path style="fill:#646464;" d="M27.3,55.6h-0.1h-0.1c-0.2,0-0.4-0.1-0.6-0.3s-0.2-0.4-0.2-0.6v-1.5v-1.5c0-0.3,0.1-0.5,0.2-0.6
	s0.3-0.3,0.6-0.3h0.1h0.1c0.2,0,0.4,0.1,0.6,0.3c0.1,0.2,0.2,0.4,0.2,0.6v1.5v1.5c0,0.3-0.1,0.5-0.2,0.7
	C27.8,55.5,27.6,55.6,27.3,55.6L27.3,55.6L27.3,55.6z M27.1,51.2c-0.1,0-0.2,0-0.3,0.1c-0.1,0.1-0.1,0.2-0.1,0.3v1.5v1.5
	c0,0.1,0,0.2,0.1,0.3s0.2,0.1,0.3,0.1c0,0,0,0,0,0c0,0,0,0,0,0h0.1h0.1c0.1,0,0.2,0,0.3-0.1s0.1-0.2,0.1-0.3v-1.5v-1.5
	c0-0.1,0-0.2-0.1-0.3c-0.1-0.1-0.2-0.1-0.3-0.1c0,0,0,0,0,0c0,0,0,0,0,0h-0.1C27.2,51.2,27.1,51.2,27.1,51.2z"/>
<path style="fill:#646464;" d="M17.1,63v-0.2v-0.2c0.7,0,1.1-0.7,1.3-1.6c0.2-0.8,0.2-1.8,0.2-2.2c0-0.1,0-0.2,0-0.2
	c0-0.1-0.1-0.1-0.1-0.2c-0.2-0.2-0.4-0.3-0.6-0.3c-0.2-0.1-0.5-0.1-0.7,0l0-0.1l0-0.1v-0.1v-0.1c0.3,0,0.6,0,0.9,0.1
	c0.3,0.1,0.5,0.2,0.8,0.4c0.1,0.1,0.2,0.2,0.2,0.4c0,0.1,0.1,0.3,0.1,0.4c0,0.5,0,1.6-0.3,2.5C18.5,62.1,18,63,17.1,63z M17.1,57.6
	L17.1,57.6L17.1,57.6z"/>
<path style="fill:#FFFFFF;" d="M16.3,63.5h1.2h1.2c0.2,0,0.4,0.1,0.5,0.2c0.1,0.1,0.2,0.3,0.2,0.5V65v0.7c0,0.2-0.1,0.4-0.2,0.5
	s-0.3,0.2-0.5,0.2h-1.2h-1.2c-0.2,0-0.4-0.1-0.5-0.2c-0.1-0.1-0.2-0.3-0.2-0.5V65v-0.7c0-0.2,0.1-0.4,0.2-0.5S16.1,63.5,16.3,63.5z"
	/>
<path style="fill:#646464;" d="M18.7,66.7h-1.2h-1.2c-0.2,0-0.5-0.1-0.6-0.3c-0.2-0.2-0.3-0.4-0.3-0.7V65v-0.7
	c0-0.3,0.1-0.5,0.3-0.7c0.2-0.2,0.4-0.3,0.6-0.3h1.2h1.2c0.2,0,0.5,0.1,0.6,0.3c0.2,0.2,0.3,0.4,0.3,0.7V65v0.7
	c0,0.3-0.1,0.5-0.2,0.7S18.9,66.7,18.7,66.7C18.7,66.7,18.7,66.7,18.7,66.7C18.7,66.7,18.7,66.7,18.7,66.7z M16.3,63.7
	c-0.1,0-0.2,0.1-0.3,0.1s-0.1,0.2-0.1,0.4l0,0l0,0V65v0.7c0,0.1,0.1,0.3,0.1,0.4s0.2,0.2,0.3,0.2h1.2h1.2c0.1,0,0.2-0.1,0.3-0.2
	s0.1-0.2,0.1-0.4V65v-0.7c0-0.1-0.1-0.3-0.1-0.4c-0.1-0.1-0.2-0.1-0.3-0.1l-1.2,0L16.3,63.7z"/>
<polygon style="fill:#FFFFFF;" points="39.3,31 61.2,31 83.1,31 83.1,49.1 83.1,67.2 61.2,67.2 39.3,67.2 39.3,49.1 "/>
<path style="fill:#646464;" d="M83.3,67.4H61.2H39.1V49.1V30.8h22.1h22.1v18.3V67.4z M39.5,66.9h21.7h21.7V49.1V31.3H61.2H39.5v17.8
	V66.9z"/>
<path style="fill:#FFFFFF;" d="M81.6,63.9h1.2H84c0.2,0,0.4,0.1,0.5,0.2s0.2,0.4,0.2,0.6v0.9v0.9c0,0.2-0.1,0.4-0.2,0.6
	s-0.3,0.2-0.5,0.2h-1.2h-1.2c-0.2,0-0.4-0.1-0.5-0.2s-0.2-0.4-0.2-0.6v-0.9v-0.9c0-0.2,0.1-0.4,0.2-0.6S81.4,63.9,81.6,63.9z"/>
<path style="fill:#646464;" d="M84,67.6h-1.2h-1.2c-0.3,0-0.5-0.1-0.7-0.3c-0.2-0.2-0.3-0.5-0.3-0.8v-0.9v-0.9
	c0-0.3,0.1-0.6,0.3-0.8c0.2-0.2,0.4-0.3,0.7-0.3h1.2H84c0.3,0,0.5,0.1,0.7,0.3c0.2,0.2,0.3,0.5,0.3,0.8v0.9v0.9
	c0,0.3-0.1,0.6-0.3,0.8C84.5,67.4,84.2,67.6,84,67.6L84,67.6L84,67.6z M81.6,64.2c-0.1,0-0.3,0.1-0.4,0.2s-0.2,0.2-0.2,0.4v0.9v0.9
	c0,0.2,0.1,0.3,0.2,0.4c0.1,0.1,0.2,0.2,0.4,0.2h1.2H84c0.1,0,0.3-0.1,0.4-0.2s0.1-0.2,0.1-0.4v-0.9v-0.9c0-0.2-0.1-0.3-0.1-0.4
	s-0.2-0.2-0.4-0.2h-1.2C82.8,64.2,81.6,64.2,81.6,64.2z"/>
<path style="fill:#FFFFFF;" d="M35,42.3c0.5,0,0.9,0.2,1.2,0.4s0.5,0.6,0.5,0.9s-0.2,0.7-0.5,0.9S35.5,45,35,45s-0.9-0.2-1.2-0.4
	c-0.3-0.2-0.5-0.6-0.5-0.9s0.2-0.7,0.5-0.9C34.1,42.4,34.6,42.3,35,42.3z"/>
<path style="fill:#646464;" d="M35,45.2c-0.5,0-1-0.2-1.3-0.5c-0.3-0.3-0.5-0.7-0.5-1.1s0.2-0.8,0.5-1.1C34,42.2,34.5,42,35,42
	s1,0.2,1.3,0.5c0.3,0.3,0.5,0.7,0.5,1.1s-0.2,0.8-0.5,1.1C36,45.1,35.5,45.2,35,45.2z M35,42.5c-0.4,0-0.7,0.1-1,0.3
	c-0.3,0.2-0.4,0.5-0.4,0.8s0.2,0.6,0.4,0.8c0.3,0.2,0.6,0.3,1,0.3s0.7-0.1,1-0.3c0.3-0.2,0.4-0.5,0.4-0.8s-0.2-0.6-0.4-0.8
	C35.8,42.7,35.4,42.5,35,42.5z"/>
<path style="fill:#969696;" d="M67.3,60.6h1.3h1.3c1,0,1.9,0.5,2.6,1.2c0.7,0.8,1.1,1.8,1.1,3l0,0l0,0V66v1.2l0,0l0,0h-5h-5l0,0l0,0
	V66v-1.2c0-1.2,0.4-2.2,1.1-3S66.3,60.6,67.3,60.6z"/>
<path style="fill:#646464;" d="M73.8,67.4h-5.2h-5.2v-1.3v-1.3c0-1.2,0.4-2.3,1.1-3.1c0.7-0.8,1.7-1.3,2.8-1.3l0,0l0,0h1.3h1.3
	c1.1,0,2.1,0.5,2.8,1.3c0.7,0.8,1.2,1.9,1.2,3.1c0,0,0,0,0,0s0,0,0,0v1.3C73.8,66.1,73.8,67.4,73.8,67.4z M63.8,66.9h4.8h4.8v-1.1
	v-1.1c0-1.1-0.4-2.1-1-2.8s-1.5-1.2-2.4-1.2l0,0l0,0h-1.3h-1.3c-1,0-1.8,0.4-2.4,1.2c-0.6,0.7-1,1.7-1,2.8l0,0l0,0l0,1.1L63.8,66.9z
	"/>
<path style="fill:#323232;" d="M68.6,61.9c1.3,0,2.4,0.6,3.2,1.5c0.8,0.9,1.3,2.2,1.3,3.7s-0.5,2.7-1.3,3.7c-0.8,0.9-2,1.5-3.2,1.5
	s-2.4-0.6-3.2-1.5c-0.8-0.9-1.3-2.2-1.3-3.7s0.5-2.7,1.3-3.7C66.2,62.5,67.4,61.9,68.6,61.9z"/>
<path style="fill:#FFFFFF;" d="M68.6,64.3c0.7,0,1.3,0.3,1.7,0.8c0.4,0.5,0.7,1.2,0.7,2s-0.3,1.5-0.7,2c-0.4,0.5-1.1,0.8-1.7,0.8
	s-1.3-0.3-1.7-0.8c-0.4-0.5-0.7-1.2-0.7-2s0.3-1.5,0.7-2C67.3,64.6,67.9,64.3,68.6,64.3z"/>
<path style="fill:#969696;" d="M23.6,60.6h1.3h1.3c1,0,1.9,0.5,2.6,1.2s1.1,1.8,1.1,3V66v1.2l0,0l0,0h-5h-5l0,0l0,0V66v-1.2
	c0-1.2,0.4-2.2,1.1-3C21.6,61,22.6,60.6,23.6,60.6z"/>
<path style="fill:#646464;" d="M30.1,67.4h-5.2h-5.2v-1.3v-1.3c0-1.2,0.4-2.3,1.1-3.1c0.7-0.8,1.7-1.3,2.8-1.3h1.3h1.3
	c1.1,0,2,0.5,2.8,1.3s1.1,1.9,1.1,3.1v1.3C30.1,66.1,30.1,67.4,30.1,67.4z M20.1,66.9h4.8h4.8v-1.1v-1.1c0-1.1-0.4-2.1-1-2.8
	c-0.6-0.7-1.5-1.2-2.4-1.2h-1.3h-1.3c-1,0-1.8,0.4-2.4,1.2c-0.6,0.7-1,1.7-1,2.8v1.1V66.9z"/>
<path style="fill:#FFFFFF;" d="M42.3,33.5c0.3,0,0.6,0.1,0.8,0.4c0.2,0.2,0.3,0.6,0.3,0.9s-0.1,0.7-0.3,0.9
	c-0.2,0.2-0.5,0.4-0.8,0.4s-0.6-0.1-0.8-0.4s-0.3-0.6-0.3-0.9s0.1-0.7,0.3-0.9S41.9,33.5,42.3,33.5z"/>
<path style="fill:#646464;" d="M42.3,36.4c-0.4,0-0.7-0.2-1-0.5c-0.2-0.3-0.4-0.7-0.4-1.1s0.2-0.8,0.4-1.1c0.2-0.3,0.6-0.5,1-0.5
	c0.4,0,0.7,0.2,1,0.5c0.2,0.3,0.4,0.7,0.4,1.1l0,0l0,0c0,0.4-0.2,0.8-0.4,1.1C43,36.2,42.6,36.4,42.3,36.4z M42.3,33.8
	c-0.3,0-0.5,0.1-0.7,0.3c-0.2,0.2-0.3,0.5-0.3,0.8s0.1,0.6,0.3,0.8c0.2,0.2,0.4,0.3,0.7,0.3s0.5-0.1,0.7-0.3
	c0.2-0.2,0.3-0.5,0.3-0.8l0,0l0,0c0-0.3-0.1-0.6-0.3-0.8C42.8,33.9,42.5,33.8,42.3,33.8z"/>
<path style="fill:#FFFFFF;" d="M80.2,33.5c0.3,0,0.6,0.1,0.8,0.4c0.2,0.2,0.3,0.6,0.3,0.9s-0.1,0.7-0.3,0.9
	c-0.2,0.2-0.5,0.4-0.8,0.4c-0.3,0-0.6-0.1-0.8-0.4c-0.2-0.2-0.3-0.6-0.3-0.9s0.1-0.7,0.3-0.9C79.6,33.7,79.8,33.5,80.2,33.5z"/>
<path style="fill:#646464;" d="M80.2,36.4c-0.4,0-0.7-0.2-1-0.5c-0.2-0.3-0.4-0.7-0.4-1.1s0.2-0.8,0.4-1.1s0.6-0.5,1-0.5
	c0.4,0,0.7,0.2,1,0.5c0.2,0.3,0.4,0.7,0.4,1.1l0,0l0,0c0,0.4-0.2,0.8-0.4,1.1C80.9,36.2,80.5,36.4,80.2,36.4z M80.2,33.8
	c-0.3,0-0.5,0.1-0.7,0.3c-0.2,0.2-0.3,0.5-0.3,0.8s0.1,0.6,0.3,0.8c0.2,0.2,0.4,0.3,0.7,0.3c0.3,0,0.5-0.1,0.7-0.3
	c0.2-0.2,0.3-0.5,0.3-0.8l0,0l0,0c0-0.3-0.1-0.6-0.3-0.8C80.7,33.9,80.4,33.8,80.2,33.8z"/>
<path style="fill-rule:evenodd;clip-rule:evenodd;fill:#0000FF;" d="M71.9,42.9l-2.8-5.2c-0.1-0.1-0.2-0.2-0.4-0.1l-4.2,2.6
	c-0.2,0.1-0.4,0-0.4-0.2v-5.6c0-0.1-0.1-0.3-0.3-0.3h-5.4c-0.1,0-0.3,0.1-0.3,0.3V40c0,0.2-0.2,0.3-0.4,0.2l-4.1-2.7
	c-0.1-0.1-0.3,0-0.4,0.1l-2.7,5c-0.1,0.1,0,0.3,0.1,0.3l4.3,3c0.2,0.1,0.2,0.3,0,0.4l-4.3,2.9c-0.1,0.1-0.1,0.2-0.1,0.3l2.5,5.2
	c0.1,0.1,0.2,0.2,0.4,0.1l4.4-2.6c0.2-0.1,0.4,0,0.4,0.2v5.9c0,0.1,0.1,0.3,0.3,0.3H64c0.1,0,0.3-0.1,0.3-0.3v-5.9
	c0-0.2,0.2-0.3,0.4-0.2l4.3,2.6c0.1,0.1,0.3,0,0.4-0.1l2.5-5.1c0.1-0.1,0-0.3-0.1-0.3l-4-2.6c-0.3-0.2-0.3-0.6,0-0.8l4.1-2.7
	C71.9,43.1,72,43,71.9,42.9z"/>
<path style="fill:#161616;" d="M64,59h-5.6c-0.3,0-0.6-0.2-0.6-0.5v-5.9l-4.3,2.7c-0.1,0.1-0.3,0.1-0.4,0.1c-0.1,0-0.3-0.1-0.3-0.3
	l-2.5-5.2c-0.1-0.2,0-0.5,0.2-0.7l4.3-2.9l-4.3-2.9c-0.2-0.2-0.3-0.5-0.2-0.7l2.7-5c0.1-0.1,0.2-0.2,0.3-0.3c0.1,0,0.3,0,0.4,0.1
	l4.1,2.7l0-5.6c0-0.3,0.2-0.6,0.5-0.6h5.4c0.3,0,0.6,0.2,0.6,0.6V40l4.1-2.6c0.1-0.1,0.3-0.1,0.4-0.1c0.1,0,0.3,0.1,0.3,0.3l2.8,5.2
	c0.1,0.2,0,0.5-0.1,0.6l-4.1,2.7c-0.1,0.1-0.1,0.1-0.1,0.2c0,0,0,0.1,0.1,0.2l4,2.6c0.2,0.1,0.3,0.4,0.2,0.7l-2.5,5.1
	c-0.1,0.1-0.2,0.2-0.3,0.3c-0.2,0-0.3,0-0.4-0.1l-4.3-2.6l0,5.9C64.6,58.8,64.3,59,64,59z M57.9,52c0.1,0,0.2,0,0.3,0.1
	c0.2,0.1,0.3,0.3,0.3,0.5v5.9l5.6,0l0-5.9c0-0.2,0.1-0.4,0.3-0.5c0.2-0.1,0.4-0.1,0.6,0l4.3,2.6l2.4-5.1l-4-2.6
	c-0.2-0.1-0.4-0.4-0.4-0.6c0-0.3,0.1-0.5,0.3-0.7l4.1-2.7l-2.8-5.1l-4.1,2.6c-0.2,0.1-0.4,0.1-0.6,0c-0.2-0.1-0.3-0.3-0.3-0.5v-5.6
	l-5.4,0l0,5.6c0,0.2-0.1,0.4-0.3,0.5c-0.2,0.1-0.4,0.1-0.6,0l-4.1-2.7l-2.7,5l4.3,3c0.1,0.1,0.2,0.3,0.2,0.5c0,0.2-0.1,0.4-0.2,0.5
	l-4.3,2.9l2.5,5.1l4.3-2.6C57.7,52,57.8,52,57.9,52z M71.7,43.1L71.7,43.1L71.7,43.1z"/>

	<path style="fill:#FFFFFF;" d="M60.3,38.9c0.3,0.3,0.7,0.4,1.1,0.6c0.3,0.1,0.3,0.1,0.3,0.4c0,1.1,0,2.1-0.1,3.2c0,1-0.1,2-0.1,3
		c0,0,0,0.1,0,0.1c-0.2-0.2-0.4-0.3-0.6-0.5c-0.1,0-0.1-0.1-0.1-0.1c-0.2-0.2-0.3-0.4-0.3-0.7c0-1.2-0.1-2.5-0.1-3.7
		C60.3,40.3,60.3,39.6,60.3,38.9z"/>
	<path style="fill:#FFFFFF;" d="M59.8,43c0,0.1,0,0.1,0,0.2c0,0.3,0,0.7,0,1c0,0.7,0.3,1.2,0.8,1.6c0.4,0.3,0.8,0.6,1.2,0.9
		c0.5,0.3,0.8,0.8,0.6,1.4c-0.1,0.4-0.2,0.7-0.6,1c0,0,0,0,0-0.1c-0.1-0.7-0.6-1.2-1.2-1.6c-0.4-0.3-0.9-0.6-1.3-0.9
		c-0.7-0.7-0.8-1.8-0.2-2.8c0.1-0.2,0.3-0.4,0.5-0.6C59.7,43.1,59.7,43.1,59.8,43C59.8,43,59.8,43,59.8,43z"/>
	<path style="fill:#FFFFFF;" d="M62.1,43.1c0-0.1,0-0.1,0-0.1c0-0.4,0-0.8,0-1.2c0-0.1,0-0.2,0.1-0.3c0.2-0.3,0.4-0.6,0.5-1
		c0.2-0.5,0-0.9-0.5-1.2c-0.2-0.1-0.5-0.2-0.8-0.3c-0.2-0.1-0.5-0.2-0.7-0.3c-0.3-0.2-0.3-0.6,0-0.8c0.2-0.1,0.4-0.2,0.6-0.2
		c0.6,0,1.2,0.1,1.6,0.5c0.3,0.3,0.5,0.8,0.6,1.2c0.2,1.2-0.2,2.3-1.1,3.2C62.3,42.9,62.2,43,62.1,43.1
		C62.1,43.1,62.1,43.1,62.1,43.1z M61.1,38.2C61.1,38.2,61.1,38.1,61.1,38.2c-0.1,0-0.2,0-0.3,0.1c0.1,0.1,0.1,0.1,0.2,0.2
		c0.1,0.1,0.2,0,0.4-0.1c0,0,0-0.1,0.1-0.1C61.3,38.2,61.2,38.2,61.1,38.2C61.1,38.2,61.1,38.2,61.1,38.2z"/>
	<path style="fill:#FFFFFF;" d="M61.8,54.4c0-0.2,0-0.4-0.1-0.6c-0.1-0.5-0.3-0.9-0.9-1.2c-0.8-0.4-1.2-1.1-1.3-1.9
		c-0.1-0.4,0.2-1.2,0.5-1.4c0,0.2,0,0.4,0,0.6c0,0.6,0.2,1.1,0.7,1.5c0.2,0.2,0.4,0.3,0.6,0.5c0.5,0.5,0.9,1,0.8,1.7
		C62.1,53.9,62,54.2,61.8,54.4z"/>
	<path style="fill:#FFFFFF;" d="M60.2,38.1c0-0.3,0-0.5,0-0.8c0-0.4,0-0.7,0-1.1c0-0.4,0.3-0.7,0.7-0.7c0.5,0,0.8,0.2,0.9,0.6
		c0,0.4,0,0.8,0,1.2c0,0.1,0,0.1-0.1,0.1c-0.1,0-0.2,0-0.3,0C60.8,37.6,60.5,37.7,60.2,38.1C60.3,38.1,60.3,38.1,60.2,38.1z"/>
	<path style="fill:#FFFFFF;" d="M60.5,47.7c0.4,0.3,0.7,0.5,0.9,0.9c0,0,0,0.1,0,0.2c0,0.8,0,1.7-0.1,2.5c0,0,0,0.1,0,0.1
		c-0.4-0.1-0.8-0.6-0.8-1c0-0.5,0-1.1,0-1.6c0-0.2,0-0.5,0-0.7C60.5,47.9,60.5,47.9,60.5,47.7z"/>
	<path style="fill:#FFFFFF;" d="M60.6,52.9c0.4,0.1,0.8,0.5,0.8,0.9c0,0.7,0,1.5-0.1,2.2c0,0.3,0,0.5,0,0.8c0,0.2,0,0.3-0.1,0.5
		c-0.1,0.2-0.3,0.2-0.4,0c0.1,0,0.2,0,0.3,0c-0.1-0.1-0.1-0.3-0.1-0.4c-0.2-0.4-0.3-0.7-0.3-1.1c0-0.9,0-1.8-0.1-2.6
		C60.6,53,60.6,52.9,60.6,52.9z"/>
	<path style="fill:#FFFFFF;" d="M60.5,56.8c-0.6-0.3-0.7-1.3-0.3-1.6C60.2,55.7,60.4,56.2,60.5,56.8z"/>


	<rect x="39.3" y="31" style="fill:#646464;" width="1.5" height="35.9"/>
	<rect x="82.9" y="31" style="fill:#646464;" width="1.5" height="32.8"/>
	
		<rect x="61.3" y="9.3" transform="matrix(-1.836970e-16 1 -1 -1.836970e-16 93.6848 -30.2981)" style="fill:#646464;" width="1.3" height="44.7"/>
	<polygon style="fill:#646464;" points="80.9,66.2 81.4,67.5 73.2,67.9 73.2,67.1 73.8,66.2 	"/>
	<polygon style="fill:#646464;" points="29.5,67 30.8,66.5 63.8,66.5 63.8,67.9 29.5,67.9 	"/>
	<path style="fill:#646464;" d="M20.7,67.3c0,0-1.1-0.4-1.5-1l-1.7,0.2c0,0,0.7,1.4,2.7,1.4h0.5V67.3z"/>
	<path style="fill:#646464;" d="M17.8,63.7v-1.2h-0.4v-5.1h0.5v-1.2c0,0,0.8-1.6,4.1-2.1c3.3-0.5,2.4-0.5,2.4-0.5l0-0.9
		c0,0-6.6,0.7-7.4,2.9l-0.1,0.8v7.1H17.8z"/>
	<path style="fill:#646464;" d="M24.4,53.6c0,0,0.5-1,0.7-1.3c0.2-0.3,4.4-5.2,4.4-5.2s1.9-1.7,3.5-1.8c1.5-0.2,6.1,0,6.1,0v-1h-6.9
		c0,0-1.6,0.2-3.3,2.2c-1.7,2-5.6,6.5-5.6,6.5l0.6,0.1L24.4,53.6z"/>
	
		<path style="fill:#646464;" d="M84,67.6h-2.2c-0.6,0-1.1-0.5-1.1-1.1v-1.8c0-0.6,0.5-1.1,1.1-1.1H84c0.6,0,1.1,0.5,1.1,1.1v1.8
			C85.1,67.1,84.6,67.6,84,67.6z M81.8,64.1c-0.4,0-0.7,0.3-0.7,0.6v1.8c0,0.3,0.3,0.6,0.7,0.6H84c0.4,0,0.7-0.3,0.7-0.6v-1.8
			c0-0.3-0.3-0.6-0.7-0.6H81.8z"/>
	

<path style="fill:#323232;" d="M24.9,61.9c1.3,0,2.4,0.6,3.2,1.5c0.8,0.9,1.3,2.2,1.3,3.7s-0.5,2.7-1.3,3.7c-0.8,0.9-2,1.5-3.2,1.5
	c-1.3,0-2.4-0.6-3.2-1.5s-1.3-2.2-1.3-3.7s0.5-2.7,1.3-3.7C22.5,62.5,23.7,61.9,24.9,61.9z"/>
<path style="fill:#FFFFFF;" d="M24.9,64.3c0.7,0,1.3,0.3,1.7,0.8c0.4,0.5,0.7,1.2,0.7,2s-0.3,1.5-0.7,2s-1.1,0.8-1.7,0.8
	c-0.7,0-1.3-0.3-1.7-0.8c-0.4-0.5-0.7-1.2-0.7-2s0.3-1.5,0.7-2S24.2,64.3,24.9,64.3z"/>
</svg>
