<?xml version="1.0" encoding="iso-8859-1"?>
<!-- Generator: Adobe Illustrator 25.4.1, SVG Export Plug-In . SVG Version: 6.00 Build 0)  -->
<svg version="1.1" id="Layer_1" xmlns="http://www.w3.org/2000/svg" xmlns:xlink="http://www.w3.org/1999/xlink" x="0px" y="0px"
	 viewBox="0 0 100 100" style="enable-background:new 0 0 100 100;" xml:space="preserve">
<polygon style="fill:#7A7A7A;" points="77.3,48.3 79.1,48.3 80.9,48.3 82.7,48.3 84.5,48.3 84.5,48.6 84.5,48.9 84.5,49.2 
	84.5,49.5 82.7,49.5 80.9,49.5 79.1,49.5 77.3,49.5 77.3,49.2 77.3,48.9 77.3,48.6 "/>
<polygon style="fill:#7A7A7A;" points="77.3,47.5 78.5,47.5 79.7,47.5 80.9,47.5 82.1,47.5 82.1,48 82.1,48.5 82.1,49 82.1,49.5 
	80.9,49.5 79.7,49.5 78.5,49.5 77.3,49.5 77.3,49 77.3,48.5 77.3,48 "/>
<polygon style="fill:#7A7A7A;" points="85.9,49 87.75,49 89.6,49 91.4,49 93.2,49 93.2,49.3 93.2,49.6 93.2,49.9 93.2,50.2 
	91.4,50.2 89.6,50.2 87.75,50.2 85.9,50.2 85.9,49.9 85.9,49.6 85.9,49.3 "/>
<polygon style="fill:#7A7A7A;" points="84.5,38.7 84.8,38.7 85.1,38.7 85.4,38.7 85.7,38.7 85.7,40.8 85.7,42.9 85.7,45.05 
	85.7,47.2 85.4,47.2 85.1,47.2 84.8,47.2 84.5,47.2 84.5,45.05 84.5,42.9 84.5,40.8 "/>
<polygon style="fill:#7A7A7A;" points="84.5,38.7 84.9,38.7 85.3,38.7 85.7,38.7 86.1,38.7 86.1,39.8 86.1,40.9 86.1,41.95 86.1,43 
	85.7,43 85.3,43 84.9,43 84.5,43 84.5,41.95 84.5,40.9 84.5,39.8 "/>
<path style="fill:#7A7A7A;" d="M30.9,72.7c0.4,0,0.8,0.075,1.163,0.225C32.425,73.075,32.75,73.3,33,73.6s0.475,0.625,0.638,0.975
	C33.8,74.925,33.9,75.3,33.9,75.7s-0.075,0.8-0.225,1.162C33.525,77.225,33.3,77.55,33,77.8s-0.625,0.475-0.975,0.638
	C31.675,78.6,31.3,78.7,30.9,78.7s-0.8-0.075-1.163-0.225S29.05,78.1,28.8,77.8s-0.475-0.625-0.638-0.975
	C28,76.475,27.9,76.1,27.9,75.7s0.075-0.8,0.225-1.162c0.15-0.362,0.375-0.688,0.675-0.938s0.625-0.475,0.975-0.638
	C30.125,72.8,30.5,72.7,30.9,72.7z"/>
<path style="fill:#FFFFFF;" d="M30.9,74.7c0.15,0,0.275,0.025,0.387,0.075C31.4,74.825,31.5,74.9,31.6,75
	c0.1,0.1,0.175,0.2,0.225,0.312S31.9,75.55,31.9,75.7c0,0.15-0.025,0.275-0.075,0.387C31.775,76.2,31.7,76.3,31.6,76.4
	s-0.2,0.175-0.312,0.225C31.175,76.675,31.05,76.7,30.9,76.7s-0.275-0.025-0.388-0.075C30.4,76.575,30.3,76.5,30.2,76.4
	c-0.1-0.1-0.175-0.2-0.225-0.312S29.9,75.85,29.9,75.7c0-0.15,0.025-0.275,0.075-0.387C30.025,75.2,30.1,75.1,30.2,75
	c0.05-0.1,0.15-0.175,0.275-0.225C30.6,74.725,30.75,74.7,30.9,74.7z"/>
<path style="fill:#7A7A7A;" d="M44.5,54.5c0.15,0,0.325,0.025,0.487,0.05C45.15,54.575,45.3,54.6,45.4,54.6
	c0.1,0.05,0.2,0.1,0.275,0.162S45.8,54.9,45.8,55s-0.025,0.175-0.088,0.237S45.55,55.35,45.4,55.4
	c-0.1,0.05-0.225,0.075-0.375,0.087S44.7,55.5,44.5,55.5s-0.375-0.025-0.525-0.05S43.7,55.4,43.6,55.4
	c-0.1-0.05-0.2-0.1-0.275-0.162S43.2,55.1,43.2,55s0.025-0.175,0.088-0.237S43.45,54.65,43.6,54.6c0.15-0.05,0.3-0.075,0.45-0.087
	C44.2,54.5,44.35,54.5,44.5,54.5z"/>
<polygon style="fill:#7A7A7A;" points="43.9,52.6 44.2,52.6 44.5,52.6 44.85,52.6 45.2,52.6 45.2,53.15 45.2,53.7 45.2,54.25 
	45.2,54.8 44.85,54.8 44.5,54.8 44.2,54.8 43.9,54.8 43.9,54.25 43.9,53.7 43.9,53.15 "/>
<polygon style="fill:#B9B9B9;" points="36.1,51.2 36.6,51.2 37.1,51.2 37.55,51.2 38,51.2 38,52.25 38,53.3 38,54.3 38,55.3 
	37.55,55.3 37.1,55.3 36.6,55.3 36.1,55.3 36.1,54.3 36.1,53.3 36.1,52.25 "/>
<polygon style="fill:#7A7A7A;" points="37,51.2 37.25,51.2 37.5,51.2 37.8,51.2 38.1,51.2 38.1,51.7 38.1,52.2 38.1,52.7 38.1,53.2 
	37.8,53.2 37.5,53.2 37.25,53.2 37,53.2 37,52.7 37,52.2 37,51.7 "/>
<polygon style="fill:#7A7A7A;" points="37.3,51.2 37.5,51.2 37.7,51.2 37.9,51.2 38.1,51.2 38.1,52.15 38.1,53.1 38.1,54.05 
	38.1,55 37.9,55 37.7,55 37.5,55 37.3,55 37.3,54.05 37.3,53.1 37.3,52.15 "/>
<path style="fill:#7A7A7A;" d="M85.8,47.1c-0.75,0-1.3,0.175-1.688,0.45C83.725,47.825,83.5,48.2,83.4,48.6
	c-0.15,0.4-0.2,0.825-0.2,1.2c0,0.375,0.05,0.7,0.1,0.9c-0.6,1-1.35,2.35-2.162,3.812S79.45,57.55,78.6,59s-1.65,2.775-2.3,3.737
	C75.65,63.7,75.15,64.3,74.9,64.3c-3.7-0.6-6.825-1.25-9.475-1.912C62.775,61.725,60.6,61.05,58.8,60.4s-3.2-1.3-4.325-1.888
	C53.35,57.925,52.5,57.4,51.8,57c-0.8-0.5-1.875-0.875-3.075-1.162C47.525,55.55,46.2,55.35,44.9,55.2
	c-1.35-0.15-2.65-0.25-3.775-0.3c-1.125-0.05-2.075-0.05-2.725,0c-1.2,0.1-2.6,0.325-4.037,0.638S31.45,56.25,30.1,56.7
	c-1.4,0.5-2.7,1.025-3.788,1.562C25.225,58.8,24.35,59.35,23.8,59.9c-0.35,0.3-0.675,0.625-0.975,0.962
	C22.525,61.2,22.25,61.55,22,61.9s-0.525,0.7-0.8,1.062c-0.275,0.362-0.55,0.737-0.8,1.137c-0.35,0.5-0.65,0.85-0.925,1.113
	C19.2,65.475,18.95,65.65,18.7,65.8c-0.25,0.15-0.5,0.3-0.775,0.512C17.65,66.525,17.35,66.8,17,67.2
	c-0.3,0.45-0.55,0.975-0.725,1.525C16.1,69.275,16,69.85,16,70.4s0.1,1.05,0.3,1.425c0.2,0.375,0.5,0.625,0.9,0.675
	c2,0.4,4.15,0.7,6.45,0.912S28.4,73.75,31,73.8s5.4,0.05,8.4,0s6.2-0.15,9.6-0.3c0.95-0.05,1.9-0.1,2.85-0.162
	c0.95-0.062,1.9-0.138,2.85-0.238s1.9-0.175,2.85-0.25c0.95-0.075,1.9-0.15,2.85-0.25l0,0l0,0l0,0l0,0
	c0.35,0,0.925-0.025,1.662-0.062S63.7,72.45,64.7,72.4c0.95-0.05,1.975-0.1,2.963-0.162C68.65,72.175,69.6,72.1,70.4,72l0,0l0,0l0,0
	l0,0c0.05,0.1,0.1,0.25,0.2,0.438s0.25,0.412,0.5,0.662c0.2,0.25,0.475,0.55,0.838,0.875C72.3,74.3,72.75,74.65,73.3,75l0,0l0,0l0,0
	l0,0c0,0.05,0,0.1,0,0.137s0,0.062,0,0.062c0,0.05,0,0.1,0,0.137s0,0.062,0,0.062c0,0.25,0.025,0.5,0.088,0.725
	S73.55,76.55,73.7,76.7c0.1,0.15,0.225,0.275,0.375,0.363C74.225,77.15,74.4,77.2,74.6,77.2s0.35-0.05,0.475-0.137
	C75.2,76.975,75.3,76.85,75.4,76.7c0.1-0.15,0.175-0.35,0.225-0.575C75.675,75.9,75.7,75.65,75.7,75.4s-0.025-0.5-0.088-0.725
	S75.45,74.25,75.3,74.1c-0.1-0.15-0.225-0.275-0.375-0.363C74.775,73.65,74.6,73.6,74.4,73.6c-0.1,0-0.175,0-0.25,0.012
	C74.075,73.625,74,73.65,73.9,73.7c-0.05,0.05-0.125,0.1-0.2,0.15c-0.075,0.05-0.15,0.1-0.2,0.15l0,0l0,0l0,0l0,0
	c-0.15-0.15-0.3-0.325-0.425-0.512C72.95,73.3,72.85,73.1,72.8,72.9c-0.1-0.2-0.175-0.425-0.238-0.65
	C72.5,72.025,72.45,71.8,72.4,71.6c0.45-0.1,0.9-0.225,1.35-0.363c0.45-0.137,0.9-0.287,1.35-0.438s0.875-0.325,1.287-0.525
	C76.8,70.075,77.2,69.85,77.6,69.6c0.35-0.1,0.725-0.2,1.1-0.3c0.375-0.1,0.75-0.2,1.1-0.3s0.7-0.225,1.05-0.375
	c0.35-0.15,0.7-0.325,1.05-0.525c0.2-0.1,0.175-0.35,0.025-0.662S81.5,66.75,81.2,66.4s-0.6-0.7-0.825-0.975S80,64.95,80,64.9
	s0.325-0.775,0.85-1.875c0.525-1.1,1.25-2.575,2.05-4.125c0.75-1.55,1.575-3.2,2.35-4.637s1.5-2.663,2.05-3.363
	c0.25-0.3,0.45-0.7,0.562-1.125C87.975,49.35,88,48.9,87.9,48.5c0.05-0.4-0.1-0.75-0.45-1S86.55,47.1,85.8,47.1z"/>
<polygon style="fill:#7A7A7A;" points="35.3,51 35.4,51 35.5,51 35.6,51 35.7,51 35.7,52.1 35.7,53.2 35.7,54.25 35.7,55.3 
	35.6,55.3 35.5,55.3 35.4,55.3 35.3,55.3 35.3,54.25 35.3,53.2 35.3,52.1 "/>
<polygon style="fill:#7A7A7A;" points="38.5,50.8 38.6,50.8 38.7,50.8 38.8,50.8 38.9,50.8 38.9,51.85 38.9,52.9 38.9,54 38.9,55.1 
	38.8,55.1 38.7,55.1 38.6,55.1 38.5,55.1 38.5,54 38.5,52.9 38.5,51.85 "/>
<polygon style="fill:#7A7A7A;" points="39.3,50.8 39.4,50.8 39.5,50.8 39.6,50.8 39.7,50.8 39.7,51.85 39.7,52.9 39.7,54 39.7,55.1 
	39.6,55.1 39.5,55.1 39.4,55.1 39.3,55.1 39.3,54 39.3,52.9 39.3,51.85 "/>
<polygon style="fill:#FFFFFF;" points="21.8,66.7 22.75,66.7 23.7,66.7 24.65,66.7 25.6,66.7 25.6,65.35 25.6,64 25.6,62.7 
	25.6,61.4 25.2,61.4 24.8,61.4 24.35,61.4 23.9,61.4 23.4,62.7 22.9,64 22.35,65.35 "/>
<path style="fill:#FFFFFF;" d="M28.5,61.8h0.65h0.65h0.65h0.65c0.1,0,0.175,0.025,0.237,0.062C31.4,61.9,31.45,61.95,31.5,62
	s0.1,0.125,0.138,0.2s0.062,0.15,0.062,0.2l0,0l0,0l0,0l0,0l0,0l0,0l0,0l0,0v1.3V65v1.3v1.3c0,0.1-0.025,0.175-0.062,0.238
	C31.6,67.9,31.55,67.95,31.5,68s-0.125,0.1-0.2,0.137c-0.075,0.037-0.15,0.062-0.2,0.062l0,0l0,0l0,0l0,0h-0.65H29.8h-0.65H28.5
	v-1.6V65v-1.6V61.8z"/>
<path style="fill:#FFFFFF;" d="M34.9,61.4h1.6h1.6h1.6h1.6v1.7v1.7v1.7v1.7h-1.6h-1.6h-1.6h-1.6c-0.1,0-0.225-0.025-0.338-0.075
	C34.45,68.075,34.35,68,34.3,67.9c-0.1-0.1-0.175-0.2-0.225-0.3C34.025,67.5,34,67.4,34,67.3l0,0l0,0l0,0l0,0v-1.25V64.8v-1.25V62.3
	c0-0.1,0.025-0.225,0.062-0.338C34.1,61.85,34.15,61.75,34.2,61.7c0.15-0.1,0.275-0.175,0.387-0.225S34.8,61.4,34.9,61.4L34.9,61.4
	L34.9,61.4L34.9,61.4L34.9,61.4z"/>
<polygon style="fill:#7A7A7A;" points="6.8,53.7 6.8,53.2 6.8,52.7 6.8,52.25 6.8,51.8 22.9,50.5 39,49.2 55.1,47.95 71.2,46.7 
	71.2,47.25 71.2,47.8 71.2,48.35 71.2,48.9 55.1,50.1 39,51.3 22.9,52.5 "/>
<path style="fill-rule:evenodd;clip-rule:evenodd;fill:#0000FF;" d="M48.8,29.9c0-0.1,0-0.2,0-0.3c0-0.1,0-0.2,0-0.3
	s0-0.2-0.013-0.3c-0.012-0.1-0.037-0.2-0.087-0.3c-0.15-0.3-0.25-0.6-0.312-0.888S48.3,27.25,48.3,27s0.05-0.45,0.125-0.587
	S48.6,26.2,48.7,26.2s0.2,0.025,0.3,0.05c0.1,0.025,0.2,0.05,0.3,0.05c0.1,0,0.2,0,0.275-0.013C49.65,26.275,49.7,26.25,49.7,26.2
	l0,0l0,0l0,0l0,0h-0.05H49.6c-0.05,0-0.075,0-0.087-0.013C49.5,26.175,49.5,26.15,49.5,26.1s0.025-0.05,0.05-0.038
	c0.025,0.013,0.05,0.038,0.05,0.038c0.05,0,0.075,0,0.1,0c0.025,0,0.05,0,0.1,0s0.05-0.025,0.025-0.062S49.75,25.95,49.7,25.9
	s-0.1-0.1-0.15-0.15c-0.05-0.05-0.1-0.1-0.15-0.15c-0.1-0.2-0.25-0.275-0.412-0.288C48.825,25.3,48.65,25.35,48.5,25.4
	c-0.15,0.1-0.3,0.225-0.438,0.35S47.8,26,47.7,26.1c-0.1,0.15-0.175,0.3-0.225,0.462C47.425,26.725,47.4,26.9,47.4,27.1
	s0,0.375,0.025,0.538C47.45,27.8,47.5,27.95,47.6,28.1c0.05,0.1,0.1,0.225,0.15,0.35c0.05,0.125,0.1,0.25,0.15,0.35
	s0.125,0.2,0.2,0.3c0.075,0.1,0.15,0.2,0.2,0.3c0.05,0.05,0.1,0.1,0.15,0.15c0.05,0.05,0.1,0.1,0.15,0.15
	c0.05,0.1,0.1,0.175,0.137,0.213C48.775,29.95,48.8,29.95,48.8,29.9L48.8,29.9L48.8,29.9L48.8,29.9L48.8,29.9z M49.8,35
	c0,0.15,0,0.275-0.013,0.4c-0.012,0.125-0.037,0.25-0.087,0.4s-0.1,0.275-0.15,0.388C49.5,36.3,49.45,36.4,49.4,36.5
	c-0.15,0.15-0.275,0.3-0.375,0.45c-0.1,0.15-0.175,0.3-0.225,0.45s-0.1,0.325-0.125,0.513S48.65,38.3,48.7,38.5
	c0.1,0.55,0.175,0.875,0.225,1.05C48.975,39.725,49,39.75,49,39.7s0-0.175,0-0.287s0-0.213,0-0.213
	c-0.05-0.45-0.025-0.775,0.037-1.025C49.1,37.925,49.2,37.75,49.3,37.6s0.25-0.3,0.412-0.487C49.875,36.925,50.05,36.7,50.2,36.4
	c0.05-0.1,0.075-0.2,0.087-0.312C50.3,35.975,50.3,35.85,50.3,35.7s-0.025-0.25-0.075-0.338C50.175,35.275,50.1,35.2,50,35.1
	l-0.1-0.05L49.8,35L49.8,35L49.8,35L49.8,35L49.8,35L49.8,35L49.8,35z M48.7,26.5l0.05,1.3l0.05,1.3l0.05,1.3l0.05,1.3
	c0,0.1,0.05,0.1,0.125,0.038S49.2,31.55,49.3,31.4s0.2-0.3,0.275-0.438S49.7,30.7,49.7,30.6v-1.1v-1.1v-1.1v-1.1
	c0,0.15-0.075,0.25-0.188,0.312S49.25,26.6,49.1,26.6c-0.05-0.05-0.15-0.1-0.238-0.125C48.775,26.45,48.7,26.45,48.7,26.5z
	 M49.5,25.7c0,0.05,0.025,0.075,0.062,0.1s0.088,0.05,0.138,0.1s0.075,0.075,0.087,0.1c0.013,0.025,0.013,0.05,0.013,0.1v-0.45V25.2
	v-0.45V24.3c0-0.1,0-0.175-0.013-0.237C49.775,24,49.75,23.95,49.7,23.9s-0.1-0.1-0.162-0.138C49.475,23.725,49.4,23.7,49.3,23.7
	s-0.175,0-0.237,0.013C49,23.725,48.95,23.75,48.9,23.8s-0.1,0.1-0.138,0.163C48.725,24.025,48.7,24.1,48.7,24.2v0.3v0.3v0.3v0.3
	c0,0.05,0.025,0.075,0.075,0.087C48.825,25.5,48.9,25.5,49,25.5c0.05-0.05,0.125-0.05,0.213-0.013C49.3,25.525,49.4,25.6,49.5,25.7
	L49.5,25.7L49.5,25.7L49.5,25.7L49.5,25.7L49.5,25.7L49.5,25.7z M49.7,39.7c0.05,0.15,0.05,0.3,0.025,0.438
	C49.7,40.275,49.65,40.4,49.6,40.5c-0.05,0.15-0.1,0.275-0.162,0.388C49.375,41,49.3,41.1,49.2,41.2c0.1-0.05,0.2-0.125,0.288-0.212
	C49.575,40.9,49.65,40.8,49.7,40.7s0.1-0.225,0.125-0.35C49.85,40.225,49.85,40.1,49.8,40c0-0.05,0-0.1-0.013-0.15
	C49.775,39.8,49.75,39.75,49.7,39.7c0-0.05,0-0.075,0-0.075S49.7,39.65,49.7,39.7z M49.7,35.4v-0.7V34v-0.7v-0.7
	c0-0.05-0.05-0.025-0.112,0.037S49.45,32.8,49.4,32.9c-0.1,0.1-0.175,0.225-0.225,0.35c-0.05,0.125-0.075,0.25-0.075,0.35v0.75v0.75
	v0.75v0.75c0,0.05,0.025,0.05,0.075,0c0.05-0.05,0.125-0.15,0.225-0.3c0-0.1,0.05-0.25,0.112-0.412
	C49.575,35.725,49.65,35.55,49.7,35.4L49.7,35.4L49.7,35.4L49.7,35.4L49.7,35.4z M49.6,40.4v-0.75V38.9v-0.75V37.4
	c-0.05,0.05-0.1,0.1-0.15,0.15c-0.05,0.05-0.1,0.1-0.15,0.15s-0.075,0.125-0.1,0.2c-0.025,0.075-0.05,0.15-0.1,0.2l0.05,0.7
	l0.05,0.7l0.05,0.7l0.05,0.7c0-0.05,0.025-0.075,0.05-0.1c0.025-0.025,0.05-0.05,0.05-0.1c0.05-0.05,0.1-0.1,0.138-0.15
	S49.6,40.45,49.6,40.4L49.6,40.4L49.6,40.4L49.6,40.4L49.6,40.4L49.6,40.4L49.6,40.4z M49.3,41.3v0.15v0.15v0.15v0.15l0,0l0,0l0,0
	l0,0v-0.2v-0.2V41.3v-0.2c0,0,0,0-0.013,0.013C49.275,41.125,49.25,41.15,49.2,41.2c0.05,0,0.075,0.025,0.087,0.05
	C49.3,41.275,49.3,41.3,49.3,41.3L49.3,41.3L49.3,41.3L49.3,41.3L49.3,41.3z M49,25.8L49,25.8L49,25.8h0.1h0.1h-0.05H49.1
	c0,0,0-0.025-0.013-0.037C49.075,25.75,49.05,25.75,49,25.8l-0.05-0.05L48.9,25.7h-0.05H48.8c0,0,0,0,0.013,0s0.037,0,0.087,0
	s0.075,0,0.087,0.013S49,25.75,49,25.8L49,25.8L49,25.8L49,25.8L49,25.8z M59.5,29.4l-0.75-1.25L58,26.9l-0.75-1.25L56.5,24.4
	l-1.2,0.7l-1.2,0.7l-1.2,0.7l-1.2,0.7v-1.45V24.3v-1.45V21.4h-1.35H49h-1.45H46.1v1.45v1.45v1.45v1.45l-1.15-0.7l-1.15-0.7
	l-1.15-0.7l-1.15-0.7l-0.75,1.25L40,26.9l-0.75,1.25L38.5,29.4l1.2,0.75l1.2,0.75l1.2,0.75l1.2,0.75l-1.2,0.75l-1.2,0.75l-1.2,0.75
	l-1.2,0.75l0.65,1.3L39.8,38l0.65,1.3l0.65,1.3l1.25-0.7l1.25-0.7l1.25-0.7l1.25-0.7v1.55v1.55v1.55V44h1.5h1.5h1.5h1.5v-1.55V40.9
	v-1.55V37.8l1.2,0.7l1.2,0.7l1.2,0.7l1.2,0.7l0.65-1.3L58.2,38l0.65-1.3l0.65-1.3l-1.15-0.7L57.2,34l-1.15-0.7l-1.15-0.7l1.2-0.75
	l1.2-0.75l1.1-0.85L59.5,29.4L59.5,29.4L59.5,29.4L59.5,29.4L59.5,29.4z M50,29.3v0.3v0.3v0.3v0.3c0,0.15-0.1,0.325-0.237,0.525
	c-0.138,0.2-0.313,0.425-0.463,0.675c-0.2,0.25-0.4,0.5-0.562,0.75c-0.163,0.25-0.288,0.5-0.338,0.75c0,0.1-0.025,0.2-0.037,0.3
	c-0.013,0.1-0.013,0.2,0.037,0.3c0,0.1,0.025,0.2,0.062,0.3c0.037,0.1,0.087,0.2,0.138,0.3c0,0.05,0.025,0.125,0.062,0.2
	c0.037,0.075,0.088,0.15,0.138,0.2c0.05,0.1,0.1,0.175,0.15,0.225c0.05,0.05,0.1,0.075,0.15,0.075c0-0.1,0-0.2,0-0.3
	c0-0.1,0-0.2,0-0.3s0-0.2,0-0.3s0-0.2,0-0.3c-0.05-0.3,0-0.55,0.125-0.787C49.35,32.875,49.55,32.65,49.8,32.4
	s0.475-0.475,0.663-0.712C50.65,31.45,50.8,31.2,50.9,30.9c0.05-0.2,0.075-0.35,0.075-0.487c0-0.138-0.025-0.263-0.075-0.413
	s-0.175-0.25-0.337-0.35S50.2,29.45,50,29.3L50,29.3L50,29.3L50,29.3L50,29.3z"/>
</svg>
