<?xml version="1.0" encoding="iso-8859-1"?>
<!-- Generator: Adobe Illustrator 25.4.1, SVG Export Plug-In . SVG Version: 6.00 Build 0)  -->
<svg version="1.1" id="Layer_1" xmlns="http://www.w3.org/2000/svg" xmlns:xlink="http://www.w3.org/1999/xlink" x="0px" y="0px"
	 viewBox="0 0 100 100" style="enable-background:new 0 0 100 100;" xml:space="preserve">
<polygon style="fill:none;" points="51.1,37.9 51.1,37.9 51.1,37.9 51.1,37.9 51.1,37.9 50.85,38.45 50.6,39 50.4,39.55 50.2,40.1 
	51.95,40.1 53.7,40.1 55.45,40.1 57.2,40.1 57.2,36.35 57.2,32.6 57.2,28.9 57.2,25.2 57.1,25.2 57,25.2 56.9,25.2 56.8,25.2 
	55.4,28.35 54,31.5 52.55,34.7 "/>
<path style="fill:none;" d="M71.6,57.1c-0.35,0-0.725,0.175-1.088,0.513C70.15,57.95,69.8,58.45,69.5,59.1s-0.575,1.425-0.775,2.312
	C68.525,62.3,68.4,63.3,68.4,64.4c0,1.1,0.125,2.1,0.325,2.987c0.2,0.888,0.475,1.663,0.775,2.313s0.675,1.15,1.05,1.488
	S71.3,71.7,71.6,71.7c0.35,0,0.725-0.175,1.088-0.512C73.05,70.85,73.4,70.35,73.7,69.7s0.575-1.425,0.775-2.312
	C74.675,66.5,74.8,65.5,74.8,64.4s-0.125-2.1-0.325-2.987C74.275,60.525,74,59.75,73.7,59.1c-0.3-0.65-0.675-1.15-1.05-1.488
	S71.9,57.1,71.6,57.1z M71.6,66.1c-0.15,0-0.275-0.05-0.388-0.137C71.1,65.875,71,65.75,70.9,65.6s-0.175-0.35-0.225-0.575
	C70.625,64.8,70.6,64.55,70.6,64.3s0.025-0.5,0.075-0.725C70.725,63.35,70.8,63.15,70.9,63s0.2-0.275,0.312-0.362
	C71.325,62.55,71.45,62.5,71.6,62.5s0.275,0.05,0.388,0.138C72.1,62.725,72.2,62.85,72.3,63s0.175,0.35,0.225,0.575
	C72.575,63.8,72.6,64.05,72.6,64.3s-0.025,0.5-0.075,0.725C72.475,65.25,72.4,65.45,72.3,65.6s-0.2,0.275-0.312,0.363
	C71.875,66.05,71.75,66.1,71.6,66.1z"/>
<path style="fill:none;" d="M42.2,58.1c-0.5,0-0.975,0.175-1.413,0.5S39.95,59.4,39.6,60s-0.625,1.275-0.812,2.013
	S38.5,63.55,38.5,64.4s0.1,1.675,0.288,2.425S39.25,68.25,39.6,68.8c0.35,0.55,0.75,1.025,1.2,1.363
	c0.45,0.337,0.95,0.537,1.5,0.537c0.5,0,1-0.175,1.45-0.5c0.45-0.325,0.85-0.8,1.15-1.4c0.35-0.55,0.625-1.225,0.812-1.975
	S46,65.25,46,64.4c0-0.85-0.1-1.675-0.287-2.425S45.25,60.55,44.9,60c-0.35-0.6-0.775-1.075-1.237-1.4
	C43.2,58.275,42.7,58.1,42.2,58.1z M42.2,66.1c-0.15,0-0.275-0.05-0.388-0.137C41.7,65.875,41.6,65.75,41.5,65.6
	s-0.175-0.35-0.225-0.575C41.225,64.8,41.2,64.55,41.2,64.3s0.025-0.5,0.075-0.725C41.325,63.35,41.4,63.15,41.5,63
	s0.2-0.275,0.312-0.362C41.925,62.55,42.05,62.5,42.2,62.5s0.275,0.05,0.388,0.138C42.7,62.725,42.8,62.85,42.9,63
	s0.175,0.35,0.225,0.575C43.175,63.8,43.2,64.05,43.2,64.3s-0.025,0.5-0.075,0.725C43.075,65.25,43,65.45,42.9,65.6
	c-0.05,0.15-0.15,0.275-0.275,0.363S42.35,66.1,42.2,66.1z"/>
<polygon style="fill:none;" points="58.2,25.2 59.85,25.2 61.5,25.2 63.2,25.2 64.9,25.2 64.9,29.5 64.9,33.8 64.9,38.1 64.9,42.4 
	63.2,42.4 61.5,42.4 59.85,42.4 58.2,42.4 58.2,38.1 58.2,33.8 58.2,29.5 "/>
<path style="fill:#B2B2B2;" d="M42.2,55.1c-0.95,0-1.85,0.25-2.662,0.713C38.725,56.275,38,56.95,37.4,57.8s-1.1,1.85-1.45,2.963
	C35.6,61.875,35.4,63.1,35.4,64.4c0,1.3,0.2,2.525,0.55,3.637C36.3,69.15,36.8,70.15,37.4,71s1.325,1.525,2.138,1.987
	S41.25,73.7,42.2,73.7s1.85-0.25,2.662-0.713C45.675,72.525,46.4,71.85,47,71s1.1-1.85,1.45-2.963C48.8,66.925,49,65.7,49,64.4
	c0-1.3-0.175-2.525-0.513-3.638C48.15,59.65,47.65,58.65,47,57.8s-1.375-1.525-2.175-1.988S43.15,55.1,42.2,55.1z M42.2,70.6
	c-0.5,0-0.975-0.175-1.413-0.5c-0.438-0.325-0.837-0.8-1.187-1.4c-0.35-0.55-0.625-1.225-0.812-1.975S38.5,65.15,38.5,64.3
	c0-0.85,0.1-1.675,0.288-2.425S39.25,60.45,39.6,59.9s0.75-1.025,1.2-1.363C41.25,58.2,41.75,58,42.3,58c0.5,0,1,0.175,1.45,0.5
	s0.85,0.8,1.15,1.4c0.35,0.55,0.625,1.225,0.812,1.975S46,63.45,46,64.3s-0.1,1.675-0.287,2.425S45.25,68.15,44.9,68.7
	c-0.35,0.6-0.775,1.075-1.237,1.4C43.2,70.425,42.7,70.6,42.2,70.6z"/>
<path style="fill:#B2B2B2;" d="M71.6,53.1c-1,0-1.975,0.3-2.863,0.862C67.85,54.525,67.05,55.35,66.4,56.4
	c-0.65,1-1.175,2.2-1.537,3.55C64.5,61.3,64.3,62.8,64.3,64.4s0.2,3.1,0.562,4.45c0.363,1.35,0.887,2.55,1.537,3.55
	s1.425,1.825,2.3,2.4s1.85,0.9,2.9,0.9c1,0,1.95-0.3,2.812-0.863c0.863-0.562,1.638-1.387,2.287-2.438c0.65-1,1.175-2.2,1.537-3.55
	C78.6,67.5,78.8,66,78.8,64.4s-0.2-3.1-0.562-4.45C77.875,58.6,77.35,57.4,76.7,56.4c-0.65-1.05-1.425-1.875-2.287-2.437
	C73.55,53.4,72.6,53.1,71.6,53.1z M71.6,71.6c-0.35,0-0.725-0.175-1.088-0.512C70.15,70.75,69.8,70.25,69.5,69.6
	s-0.575-1.425-0.775-2.312C68.525,66.4,68.4,65.4,68.4,64.3s0.125-2.1,0.325-2.987C68.925,60.425,69.2,59.65,69.5,59
	s0.675-1.15,1.05-1.487S71.3,57,71.6,57c0.35,0,0.725,0.175,1.088,0.513C73.05,57.85,73.4,58.35,73.7,59s0.575,1.425,0.775,2.312
	C74.675,62.2,74.8,63.2,74.8,64.3s-0.125,2.1-0.325,2.988C74.275,68.175,74,68.95,73.7,69.6s-0.675,1.15-1.05,1.488
	S71.9,71.6,71.6,71.6z"/>
<path style="fill:#B2B2B2;" d="M42.2,62.5c0.15,0,0.275,0.05,0.388,0.138C42.7,62.725,42.8,62.85,42.9,63s0.175,0.35,0.225,0.575
	C43.175,63.8,43.2,64.05,43.2,64.3s-0.025,0.5-0.075,0.725C43.075,65.25,43,65.45,42.9,65.6s-0.2,0.275-0.312,0.363
	C42.475,66.05,42.35,66.1,42.2,66.1s-0.275-0.05-0.388-0.137C41.7,65.875,41.6,65.75,41.5,65.6s-0.175-0.35-0.225-0.575
	C41.225,64.8,41.2,64.55,41.2,64.3s0.025-0.5,0.075-0.725C41.325,63.35,41.4,63.15,41.5,63c0.1-0.15,0.2-0.275,0.312-0.363
	C41.925,62.55,42.05,62.5,42.2,62.5z"/>
<path style="fill:#B2B2B2;" d="M71.6,62.5c0.15,0,0.275,0.05,0.388,0.138C72.1,62.725,72.2,62.85,72.3,63s0.175,0.35,0.225,0.575
	C72.575,63.8,72.6,64.05,72.6,64.3s-0.025,0.5-0.075,0.725C72.475,65.25,72.4,65.45,72.3,65.6s-0.2,0.275-0.312,0.363
	C71.875,66.05,71.75,66.1,71.6,66.1s-0.275-0.05-0.387-0.137C71.1,65.875,71,65.75,70.9,65.6s-0.175-0.35-0.225-0.575
	S70.6,64.55,70.6,64.3s0.025-0.5,0.075-0.725C70.725,63.35,70.8,63.15,70.9,63c0.1-0.15,0.2-0.275,0.312-0.363
	C71.325,62.55,71.45,62.5,71.6,62.5z"/>
<path style="fill:#B2B2B2;" d="M30.5,55.5c-0.05-0.05-0.1-0.1-0.163-0.15c-0.062-0.05-0.137-0.1-0.237-0.15s-0.15-0.1-0.188-0.138
	C29.875,55.025,29.85,55,29.8,55c0,0.1,0.025,0.2,0.05,0.3c0.025,0.1,0.05,0.2,0.05,0.3s0.025,0.2,0.05,0.288
	C29.975,55.975,30,56.05,30,56.1l0.1-0.15l0.1-0.15l0.15-0.15L30.5,55.5z"/>
<path style="fill:#B2B2B2;" d="M87.7,57.6c0.05,0,0.125-0.025,0.2-0.05c0.075-0.025,0.15-0.05,0.2-0.05
	c0.05-0.05,0.075-0.1,0.088-0.162C88.2,57.275,88.2,57.2,88.2,57.1v-0.55V56v-0.55V54.9c0-0.05-0.025-0.125-0.05-0.2
	c-0.025-0.075-0.05-0.15-0.05-0.2c-0.05-0.05-0.1-0.075-0.162-0.087S87.8,54.4,87.7,54.4h-0.25H87.2h-0.25H86.7v-1.95V50.5v-1.95
	V46.6c0-0.05,0-0.1-0.012-0.15c-0.013-0.05-0.038-0.1-0.088-0.15c0-0.05-0.025-0.075-0.062-0.1c-0.037-0.025-0.088-0.05-0.137-0.1
	l-3.05-1.6l-3.05-1.6l-3.05-1.6l-3.05-1.6v-2.35V35v-2.3v-2.3c0-0.2-0.025-0.4-0.088-0.587S73.95,29.45,73.8,29.3
	s-0.3-0.275-0.463-0.375C73.175,28.825,73,28.75,72.8,28.7v-0.55V27.6v-0.55V26.5l0.35-0.35l0.35-0.35l0.35-0.35l0.35-0.35
	c0.05-0.05,0.075-0.1,0.1-0.15c0.025-0.05,0.05-0.1,0.1-0.15c0-0.05,0-0.1-0.012-0.15c-0.013-0.05-0.038-0.1-0.088-0.15l0,0l0,0l0,0
	l0,0c-0.05-0.05-0.1-0.075-0.15-0.1c-0.05-0.025-0.1-0.05-0.15-0.1c-0.05,0-0.1,0-0.15,0.013c-0.05,0.012-0.1,0.038-0.15,0.087l0,0
	l0,0l0,0l0,0l-0.35,0.35L73,25.1l-0.5,0.45L72,26c0,0-0.025,0.025-0.05,0.062C71.925,26.1,71.9,26.15,71.9,26.2s0,0.075,0,0.1
	s0,0.05,0,0.1V27v0.6v0.6v0.6c-0.2,0.05-0.375,0.125-0.525,0.225C71.225,29.125,71.1,29.25,71,29.4c-0.1,0.15-0.2,0.325-0.275,0.513
	C70.65,30.1,70.6,30.3,70.6,30.5v2.4v2.4v2.4v2.4h-1.15H68.3h-1.15H66v-3.7v-3.7V29v-3.7h0.5H67h0.5H68v-0.25V24.8v-0.25V24.3h-3h-3
	h-3h-3l-1.45,3.25L53.1,30.8l-1.45,3.25L50.2,37.3h-0.85H48.5h-0.75H47c-0.05,0-0.075,0-0.1,0s-0.05,0-0.1,0s-0.075,0.025-0.1,0.05
	c-0.025,0.025-0.05,0.05-0.1,0.05l-3.95,4.45L38.7,46.3l-3.95,4.45L30.8,55.2c-0.05-0.05-0.075-0.1-0.1-0.15
	c-0.025-0.05-0.05-0.1-0.1-0.15s-0.075-0.1-0.1-0.15c-0.025-0.05-0.05-0.1-0.1-0.15c-0.3-0.5-0.675-0.925-1.1-1.263
	C28.875,53,28.4,52.75,27.9,52.6s-1.05-0.2-1.6-0.138S25.2,52.7,24.7,53l-2.65,1.45L19.4,55.9l-2.7,1.4L14,58.7
	c-0.35,0.2-0.65,0.425-0.913,0.688C12.825,59.65,12.6,59.95,12.4,60.3c-0.2,0.3-0.35,0.65-0.45,1.025
	C11.85,61.7,11.8,62.1,11.8,62.5v1.9v1.9v1.85V70c0,0.55,0.1,1.075,0.288,1.562S12.55,72.5,12.9,72.9s0.775,0.725,1.25,0.963
	s1,0.387,1.55,0.438c0.85,0.05,1.725,0.125,2.6,0.213s1.75,0.188,2.6,0.287s1.725,0.225,2.6,0.375s1.75,0.325,2.6,0.525
	c0.1,0,0.2,0.025,0.288,0.05c0.087,0.025,0.163,0.05,0.212,0.05c0.1,0,0.2,0,0.288,0s0.163,0,0.212,0c0.45,0,0.875-0.075,1.275-0.2
	s0.775-0.3,1.125-0.5s0.675-0.475,0.95-0.8c0.275-0.325,0.5-0.7,0.65-1.1c0.45-1.1,0.8-2.25,1.062-3.412S32.6,67.45,32.7,66.3
	c0.1-1.2,0.1-2.4,0.013-3.588C32.625,61.525,32.45,60.35,32.2,59.2c0.55-0.6,1.2-1.125,1.887-1.6c0.688-0.475,1.413-0.9,2.113-1.3
	s1.375-0.725,1.938-1.025C38.7,54.975,39.15,54.7,39.4,54.4c0.95-0.9,1.875-1.375,2.763-1.537C43.05,52.7,43.9,52.85,44.7,53.2
	c0.75,0.35,1.425,0.9,1.975,1.513C47.225,55.325,47.65,56,47.9,56.6c0.2,0.6,0.375,1.2,0.538,1.8C48.6,59,48.75,59.6,48.9,60.2
	s0.25,1.2,0.325,1.812S49.35,63.25,49.4,63.9c0,0.05,0.025,0.125,0.05,0.2c0.025,0.075,0.05,0.15,0.05,0.2s0.05,0.1,0.125,0.137
	S49.8,64.5,49.9,64.5l0,0l0,0l0,0l0,0h0.25h0.25h0.3H51c0.05,0,0.125-0.025,0.2-0.05c0.075-0.025,0.15-0.05,0.2-0.05
	c0.05-0.05,0.075-0.1,0.087-0.162S51.5,64.1,51.5,64v-0.4v-0.4v-0.4v-0.4l1.55,0.05l1.55,0.05l1.55,0.05l1.55,0.05v1.2V65v1.25v1.25
	h1.2h1.2h1.2h1.2v-0.25V67v-0.25V66.5h-0.95H60.6h-0.95H58.7v-1v-1v-1v-1h1.05h1.05h1.05h1.05c0.05,0,0.1,0,0.15-0.013
	c0.05-0.013,0.1-0.037,0.15-0.087s0.1-0.1,0.138-0.15c0.037-0.05,0.062-0.1,0.062-0.15s0.175-0.775,0.537-1.825
	C64.3,59.225,64.85,57.85,65.6,56.5s1.675-2.75,2.8-3.812s2.45-1.788,4-1.788c1.5,0,2.75,0.75,3.775,1.888
	C77.2,53.925,78,55.45,78.6,57s1.025,3.075,1.312,4.225C80.2,62.375,80.35,63.15,80.4,63.2c0,0.05,0.025,0.1,0.062,0.15
	c0.037,0.05,0.087,0.1,0.137,0.15s0.1,0.075,0.15,0.087C80.8,63.6,80.85,63.6,80.9,63.6h1.05H83h1.05h1.05c0.05,0,0.075,0,0.1,0
	s0.05,0,0.1,0s0.075-0.025,0.1-0.05s0.05-0.05,0.1-0.05l0.7-0.65l0.7-0.65l0.7-0.65l0.7-0.65c0.05,0,0.075-0.025,0.088-0.062
	C88.4,60.8,88.4,60.75,88.4,60.7s0-0.075,0-0.1c0-0.025,0-0.05,0-0.1v-0.25V60v-0.4v-0.4c0-0.05-0.025-0.125-0.05-0.2
	c-0.025-0.075-0.05-0.15-0.05-0.2c-0.05-0.05-0.1-0.075-0.162-0.087C88.075,58.7,88,58.7,87.9,58.7h-0.25H87.4h-0.25H86.9v-0.3v-0.3
	v-0.3v-0.3h0.25h0.25h0.15h0.15v0.05V57.6z M29.3,72.4c-0.1,0.25-0.25,0.475-0.438,0.675c-0.188,0.2-0.413,0.375-0.663,0.525
	c-0.25,0.1-0.5,0.175-0.763,0.213C27.175,73.85,26.9,73.85,26.6,73.8c-0.9-0.2-1.8-0.375-2.688-0.537S22.15,72.95,21.3,72.8
	c-0.9-0.15-1.8-0.25-2.7-0.338c-0.9-0.088-1.8-0.162-2.7-0.262c-0.3,0-0.575-0.075-0.825-0.2S14.6,71.7,14.4,71.5
	s-0.35-0.425-0.45-0.675C13.85,70.575,13.8,70.3,13.8,70v-1.9v-1.9v-1.9v-1.9c0-0.2,0.025-0.4,0.075-0.6
	c0.05-0.2,0.125-0.4,0.225-0.6c0.1-0.15,0.225-0.3,0.375-0.438C14.625,60.625,14.8,60.5,15,60.4l2.7-1.45l2.7-1.45l2.7-1.45
	l2.7-1.45c0.25-0.15,0.525-0.225,0.812-0.25c0.288-0.025,0.588,0,0.888,0.05s0.55,0.175,0.763,0.35
	c0.212,0.175,0.387,0.4,0.537,0.65c0.8,1.3,1.35,2.725,1.7,4.2c0.35,1.475,0.5,3,0.5,4.5c-0.05,1.55-0.225,3.05-0.513,4.45
	S29.8,71.25,29.3,72.4z M57.2,40.1h-1.75H53.7h-1.75H50.2l0.25-0.55L50.7,39l0.25-0.55l0.25-0.55l0,0l0,0l0,0l0,0l1.4-3.15L54,31.6
	l1.4-3.15l1.4-3.15h0.1H57h0.1h0.1V29v3.7v3.7V40.1z M64.9,42.4h-1.65H61.6h-1.65H58.3v-4.3v-4.3v-4.3v-4.3h1.65h1.65h1.65h1.65v4.3
	v4.3v4.3V42.4z"/>
</svg>
