<svg xmlns="http://www.w3.org/2000/svg" viewBox="0 0 100 100"><path d="M87.93,45.38h-1V42.17H39.6v.95H32.24a.87.87,0,0,0-1-.95H15.17c-2.12,0-3.43,7.16-3.43,7.87v8.29a3.3,3.3,0,0,0,.11.85h-.72a.58.58,0,0,0-.58.59v1.34a.58.58,0,0,0,.58.58H13.5a.51.51,0,0,0,.34-.13,4.44,4.44,0,0,0,2,.61h5.91c0,.06,0,.11,0,.17a3.63,3.63,0,0,0,3.32,3.87,3.63,3.63,0,0,0,3.33-3.87,1,1,0,0,0,0-.17H54.48c0,.06,0,.11,0,.17a3.63,3.63,0,0,0,3.33,3.87,3.63,3.63,0,0,0,3.32-3.87c0-.06,0-.11,0-.17h3.4c0,.06,0,.11,0,.17a3.36,3.36,0,1,0,6.65,0c0-.06,0-.11,0-.17H90V47.42A2,2,0,0,0,87.93,45.38Z" fill="#fff"/><rect x="39.6" y="42.17" width="12.07" height="20" fill="#ececec"/><rect x="73.84" y="42.17" width="13.05" height="20" fill="#ececec"/><rect x="51.67" y="42.17" width="22.17" height="12.29" fill="#ececec"/><path d="M87.69,63H38.8V41.37H87.69ZM40.4,61.37H86.09V43H40.4Z" fill="#979797"/><path d="M39.6,63H15.88c-2,0-4.94-1.81-4.94-4.64V50c0-.09,1.05-8.67,4.23-8.67H31.29a1.65,1.65,0,0,1,1.58,1H39.6v1.6H31.44v-.8a.35.35,0,0,0,0-.14H15.17c-1.06,0-2.6,5.6-2.64,7.07v8.29c0,2,2.35,3,3.35,3H39.6Z" fill="#979797"/><rect x="31.44" y="43.12" width="1.6" height="19.05" fill="#979797"/><path d="M11.73,51.34V50.15s4.38-.35,4.38-8h1.2C17.31,49.66,13.18,51.34,11.73,51.34Z" fill="#979797"/><path d="M21,50.15H19.57a2.52,2.52,0,0,1-2.51-2.51V45.38a2.51,2.51,0,0,1,2.51-2.5H21a2.5,2.5,0,0,1,2.5,2.5v2.26A2.51,2.51,0,0,1,21,50.15Zm-1.44-6.07a1.31,1.31,0,0,0-1.31,1.3v2.26A1.31,1.31,0,0,0,19.57,49H21a1.31,1.31,0,0,0,1.3-1.31V45.38a1.31,1.31,0,0,0-1.3-1.3Z" fill="#979797"/><path d="M29.31,50.15H28a2.48,2.48,0,0,1-2.47-2.48V45.35A2.48,2.48,0,0,1,28,42.88h1.34a2.48,2.48,0,0,1,2.47,2.47v2.32A2.48,2.48,0,0,1,29.31,50.15ZM28,44.08a1.27,1.27,0,0,0-1.27,1.27v2.32A1.27,1.27,0,0,0,28,49h1.34a1.27,1.27,0,0,0,1.27-1.28V45.35a1.27,1.27,0,0,0-1.27-1.27Z" fill="#979797"/><path d="M25.27,50.15H23.73a1.43,1.43,0,0,1-1.42-1.43V44.31a1.43,1.43,0,0,1,1.42-1.43h1.54a1.43,1.43,0,0,1,1.43,1.43v4.41A1.43,1.43,0,0,1,25.27,50.15Zm-1.54-6.07a.22.22,0,0,0-.22.23v4.41a.23.23,0,0,0,.22.23h1.54a.23.23,0,0,0,.23-.23V44.31a.23.23,0,0,0-.23-.23Z" fill="#979797"/><polygon points="29.49 54.54 25.2 54.54 25.2 52 27.43 52 27.43 52.36 28.23 52.36 28.23 52 29.49 52 29.49 54.54" fill="#979797"/><rect x="11.73" y="57.87" width="20.51" height="1.2" fill="#979797"/><rect x="10.55" y="59.18" width="3.53" height="2.5" rx="0.58" fill="#fff"/><path d="M13.5,62.29H11.13A1.18,1.18,0,0,1,10,61.11V59.77a1.18,1.18,0,0,1,1.18-1.19H13.5a1.18,1.18,0,0,1,1.18,1.19v1.34A1.18,1.18,0,0,1,13.5,62.29Zm0-2.52H11.13l0,1.33,2.33,0Zm0,1.32Z" fill="#979797"/><rect x="32.24" y="59.64" width="7.35" height="1.2" fill="#979797"/><rect x="32.24" y="48.12" width="7.35" height="1.2" fill="#979797"/><rect x="50.87" y="42.17" width="1.6" height="20" fill="#979797"/><rect x="73.04" y="42.17" width="1.6" height="20" fill="#979797"/><rect x="51.67" y="53.66" width="22.17" height="1.6" fill="#979797"/><rect x="63.12" y="42.17" width="1.6" height="12.29" fill="#979797"/><path d="M90.76,63H86.09V44.58h1.84a2.84,2.84,0,0,1,2.83,2.84Zm-3.07-1.6h1.47V47.42a1.23,1.23,0,0,0-1.23-1.24h-.24Z" fill="#979797"/><path d="M34.6,46.38A1.43,1.43,0,1,1,36,45,1.43,1.43,0,0,1,34.6,46.38Zm0-1.86a.44.44,0,0,0-.43.44.43.43,0,0,0,.43.42A.42.42,0,0,0,35,45,.44.44,0,0,0,34.6,44.52Z" fill="#979797"/><path d="M37.24,46.38a1.43,1.43,0,1,1,0-2.86,1.43,1.43,0,1,1,0,2.86Zm0-1.86a.44.44,0,0,0-.43.44.42.42,0,0,0,.43.42.43.43,0,0,0,.43-.42A.44.44,0,0,0,37.24,44.52Z" fill="#979797"/><path d="M34.6,48.62A1.43,1.43,0,1,1,36,47.19,1.44,1.44,0,0,1,34.6,48.62Zm0-1.86a.43.43,0,0,0-.43.43.44.44,0,0,0,.43.43.43.43,0,0,0,.43-.43A.43.43,0,0,0,34.6,46.76Z" fill="#979797"/><path d="M34.22,53.6a1.43,1.43,0,1,1,1.43-1.43A1.43,1.43,0,0,1,34.22,53.6Zm0-1.86a.43.43,0,0,0-.43.43.43.43,0,0,0,.86,0A.43.43,0,0,0,34.22,51.74Z" fill="#979797"/><path d="M37.62,53.6a1.43,1.43,0,1,1,1.43-1.43A1.43,1.43,0,0,1,37.62,53.6Zm0-1.86a.43.43,0,0,0-.43.43.43.43,0,1,0,.86,0A.43.43,0,0,0,37.62,51.74Z" fill="#979797"/><path d="M35.76,58.08c-.8,0-1.43-.85-1.43-1.93s.63-1.93,1.43-1.93,1.43.85,1.43,1.93S36.56,58.08,35.76,58.08Zm0-2.86c-.15,0-.43.35-.43.93s.28.93.43.93.43-.35.43-.93S35.91,55.22,35.76,55.22Z" fill="#979797"/><path d="M37.24,48.62a1.43,1.43,0,1,1,1.43-1.43A1.44,1.44,0,0,1,37.24,48.62Zm0-1.86a.43.43,0,0,0-.43.43.43.43,0,0,0,.43.43.44.44,0,0,0,.43-.43A.43.43,0,0,0,37.24,46.76Z" fill="#979797"/><path d="M25.1,67.71A5.4,5.4,0,0,1,25.1,57a5.4,5.4,0,0,1,0,10.74Zm0-7.74a2.45,2.45,0,0,0,0,4.74,2.45,2.45,0,0,0,0-4.74Z" fill="#979797"/><path d="M25.1,66.59a4.29,4.29,0,0,1,0-8.5,4.29,4.29,0,0,1,0,8.5Zm0-7.75a3.55,3.55,0,0,0,0,7,3.55,3.55,0,0,0,0-7Z" fill="#4d4d4d"/><ellipse cx="25.1" cy="62.34" rx="2.24" ry="2.61" fill="#fff"/><path d="M57.79,67.71a5.4,5.4,0,0,1,0-10.74,5.4,5.4,0,0,1,0,10.74Zm0-7.74a2.45,2.45,0,0,0,0,4.74,2.45,2.45,0,0,0,0-4.74Z" fill="#979797"/><path d="M57.79,66.59a4.29,4.29,0,0,1,0-8.5,4.29,4.29,0,0,1,0,8.5Zm0-7.75a3.55,3.55,0,0,0,0,7,3.55,3.55,0,0,0,0-7Z" fill="#4d4d4d"/><ellipse cx="57.79" cy="62.34" rx="2.24" ry="2.61" fill="#fff"/><path d="M67.81,67.71a5.4,5.4,0,1,1,4.82-5.37A5.13,5.13,0,0,1,67.81,67.71Zm0-7.74a2.45,2.45,0,0,0,0,4.74,2.45,2.45,0,0,0,0-4.74Z" fill="#979797"/><path d="M67.81,66.59a4.29,4.29,0,1,1,3.7-4.25A4,4,0,0,1,67.81,66.59Zm0-7.75a3.55,3.55,0,1,0,3,3.5A3.26,3.26,0,0,0,67.81,58.84Z" fill="#4d4d4d"/><ellipse cx="67.81" cy="62.34" rx="2.24" ry="2.61" fill="#fff"/><path d="M86,40.72H71.4l7.31-8.43Zm-12-1.2H83.4l-4.69-5.4Z" fill="#979797"/><path d="M24.49,40.87c-14.38,0-14.46-.12-14.65-.43A4.81,4.81,0,0,1,10,35.56c.54-.89,1.51-1.84,2.09-1.84H77.74v1.2H12.16a4.28,4.28,0,0,0-1.52,2,3.46,3.46,0,0,0,.11,2.64c4,.21,45.7,0,62,0v1.2s-15.54.08-31.11.12Z" fill="#979797"/><polygon points="48.24 40.7 47.39 40.67 42.29 35.18 36.55 40.69 35.7 40.67 30.43 35.18 24.75 40.7 23.88 40.66 19.1 35.2 13.65 40.64 12.66 40.4 10.9 34.88 12.05 34.51 13.5 39.1 18.71 33.9 19.59 33.93 24.36 39.4 30.02 33.89 30.88 33.91 36.15 39.41 41.9 33.89 42.76 33.92 47.86 39.41 53.71 33.89 54.55 33.9 59.92 39.33 65.44 33.9 66.29 33.91 71.91 39.7 71.05 40.54 65.85 35.18 60.34 40.61 59.49 40.6 54.11 35.16 48.24 40.7" fill="#979797"/></svg>