<?xml version="1.0" encoding="iso-8859-1"?>
<!-- Generator: Adobe Illustrator 25.4.1, SVG Export Plug-In . SVG Version: 6.00 Build 0)  -->
<svg version="1.1" id="Layer_1" xmlns="http://www.w3.org/2000/svg" xmlns:xlink="http://www.w3.org/1999/xlink" x="0px" y="0px"
	 viewBox="0 0 100 100" style="enable-background:new 0 0 100 100;" xml:space="preserve">
<path style="fill:#808080;" d="M64.5,33.2h-2.45H59.6h-2.45H54.7c-0.7,0-1.375,0.15-1.987,0.412S51.55,34.25,51.1,34.7
	c-0.45,0.45-0.825,1-1.088,1.612C49.75,36.925,49.6,37.6,49.6,38.3v2.65v2.65v2.65v2.65c0.05,0.25,0.15,0.5,0.3,0.725
	c0.15,0.225,0.35,0.425,0.6,0.575c0.2,0.15,0.45,0.25,0.713,0.3c0.262,0.05,0.537,0.05,0.787,0c0.2-0.05,0.375-0.125,0.538-0.212
	C52.7,50.2,52.85,50.1,53,50c0.15-0.15,0.275-0.3,0.362-0.462C53.45,49.375,53.5,49.2,53.5,49v-2.5V44v-2.5V39h0.1h0.1h0.1h0.1v7.25
	v7.25v7.25V68c0,0.4,0.05,0.775,0.162,1.113C54.175,69.45,54.35,69.75,54.6,70s0.55,0.475,0.875,0.637
	C55.8,70.8,56.15,70.9,56.5,70.9c0.4,0,0.775-0.05,1.112-0.162S58.25,70.45,58.5,70.2s0.475-0.55,0.638-0.875
	C59.3,69,59.4,68.65,59.4,68.3c0-0.05,0-0.075,0-0.1s0-0.05,0-0.1s0-0.075,0-0.1s0-0.05,0-0.1v-4v-4v-4v-4h0.05h0.05h0.05h0.05v3.95
	v3.95v3.95v3.95c0,0.4,0.075,0.775,0.212,1.113C59.95,69.15,60.15,69.45,60.4,69.7s0.55,0.45,0.888,0.588
	C61.625,70.425,62,70.5,62.4,70.5s0.775-0.075,1.112-0.213C63.85,70.15,64.15,69.95,64.4,69.7s0.45-0.55,0.588-0.887
	C65.125,68.475,65.2,68.1,65.2,67.7l0,0l0,0l0,0l0,0v-7.2v-7.2v-7.25V38.8h0.1h0.1h0.1h0.1v2.5v2.5v2.5v2.5
	c0.05,0.25,0.15,0.5,0.3,0.725c0.15,0.225,0.35,0.425,0.6,0.575c0.2,0.15,0.45,0.25,0.713,0.3c0.262,0.05,0.537,0.05,0.787,0
	c0.2-0.05,0.375-0.125,0.537-0.212C68.7,50.1,68.85,50,69,49.9c0.15-0.15,0.275-0.3,0.363-0.462C69.45,49.275,69.5,49.1,69.5,48.9
	v-2.65V43.6v-2.65V38.3c0-0.7-0.15-1.375-0.412-1.987C68.825,35.7,68.45,35.15,68,34.7c-0.45-0.5-0.975-0.875-1.562-1.125
	S65.2,33.2,64.5,33.2z"/>
<path style="fill:#808080;" d="M59.3,24.4c0.55,0,1.075,0.1,1.55,0.3c0.475,0.2,0.9,0.5,1.25,0.9c0.35,0.35,0.65,0.775,0.862,1.25
	c0.213,0.475,0.338,1,0.338,1.55s-0.1,1.075-0.3,1.55c-0.2,0.475-0.5,0.9-0.9,1.25c-0.35,0.35-0.775,0.65-1.25,0.863
	c-0.475,0.212-1,0.337-1.55,0.337s-1.075-0.1-1.55-0.3s-0.9-0.5-1.25-0.9c-0.35-0.35-0.65-0.775-0.862-1.25
	c-0.213-0.475-0.338-1-0.338-1.55s0.1-1.075,0.3-1.55c0.2-0.475,0.5-0.9,0.9-1.25c0.35-0.4,0.775-0.7,1.25-0.9
	C58.225,24.5,58.75,24.4,59.3,24.4z"/>
<path d="M64.5,32.7h-0.95H62.6h-0.95H60.7c0.6-0.2,1.125-0.5,1.562-0.875S63.05,31,63.3,30.5s0.425-1.05,0.487-1.625
	S63.8,27.7,63.6,27.1s-0.5-1.125-0.875-1.562S61.9,24.75,61.4,24.5s-1.05-0.425-1.625-0.487S58.6,24,58,24.2s-1.125,0.5-1.562,0.875
	S55.65,25.9,55.4,26.4s-0.425,1.05-0.487,1.625S54.9,29.2,55.1,29.8c0.1,0.35,0.25,0.675,0.438,0.975S55.95,31.35,56.2,31.6
	c0.25,0.25,0.525,0.475,0.825,0.663C57.325,32.45,57.65,32.6,58,32.7h-0.85H56.3h-0.85H54.6c-0.75,0-1.475,0.15-2.15,0.425
	C51.775,33.4,51.15,33.8,50.6,34.3c-0.5,0.5-0.9,1.1-1.188,1.763S48.95,37.45,48.9,38.2l0,0l0,0l0,0l0,0v2.65v2.65v2.65v2.65
	c0,0.35,0.075,0.675,0.2,0.963c0.125,0.287,0.3,0.537,0.5,0.737s0.475,0.375,0.775,0.5c0.3,0.125,0.625,0.2,0.925,0.2
	c0.2,0,0.375-0.025,0.55-0.062C52.025,51.1,52.2,51.05,52.4,51c0.15-0.1,0.3-0.2,0.45-0.312c0.15-0.113,0.3-0.238,0.45-0.388v4.35
	V59v4.35v4.35c0,0.45,0.1,0.875,0.275,1.262C53.75,69.35,54,69.7,54.3,70s0.65,0.55,1.037,0.725C55.725,70.9,56.15,71,56.6,71
	c0.3,0,0.6-0.05,0.875-0.125S58,70.7,58.2,70.6c0.25-0.15,0.475-0.325,0.675-0.525S59.25,69.65,59.4,69.4
	c0.25,0.4,0.55,0.725,0.888,0.975S61,70.8,61.4,70.9s0.825,0.125,1.25,0.075c0.425-0.05,0.85-0.175,1.25-0.375
	c0.25-0.15,0.475-0.325,0.675-0.525c0.2-0.2,0.375-0.425,0.525-0.675s0.25-0.525,0.312-0.8c0.062-0.275,0.088-0.55,0.088-0.8v-4.35
	V59.1v-4.35V50.4c0.2,0.25,0.45,0.45,0.725,0.6c0.275,0.15,0.575,0.25,0.875,0.3c0.3,0.05,0.625,0.025,0.938-0.062
	S68.65,51,68.9,50.8c0.15-0.1,0.275-0.225,0.387-0.375C69.4,50.275,69.5,50.1,69.6,49.9c0.1-0.15,0.15-0.325,0.175-0.513
	S69.8,49,69.8,48.8v-2.65V43.5v-2.65V38.2c0-0.75-0.15-1.475-0.425-2.138C69.1,35.4,68.7,34.8,68.2,34.3
	c-0.4-0.5-0.95-0.9-1.587-1.175C65.975,32.85,65.25,32.7,64.5,32.7z M55.8,28.4c0-0.5,0.1-0.95,0.275-1.362S56.5,26.25,56.8,25.9
	c0.3-0.3,0.675-0.55,1.1-0.725s0.9-0.275,1.4-0.275s0.95,0.1,1.362,0.275S61.45,25.6,61.8,25.9c0.3,0.3,0.55,0.675,0.725,1.1
	s0.275,0.9,0.275,1.4s-0.1,0.95-0.275,1.362S62.1,30.55,61.8,30.9c-0.3,0.3-0.675,0.55-1.1,0.725S59.8,31.9,59.3,31.9
	s-0.95-0.1-1.362-0.275S57.15,31.2,56.8,30.9c-0.3-0.35-0.55-0.725-0.725-1.137C55.9,29.35,55.8,28.9,55.8,28.4z M69,48.8
	c0,0.2-0.05,0.4-0.137,0.575C68.775,49.55,68.65,49.7,68.5,49.8s-0.325,0.2-0.512,0.263S67.6,50.15,67.4,50.1
	c-0.2,0-0.375-0.05-0.525-0.125C66.725,49.9,66.6,49.8,66.5,49.7c-0.1-0.1-0.2-0.25-0.275-0.412C66.15,49.125,66.1,48.95,66.1,48.8
	v-2.6v-2.6V41v-2.6h-0.35H65.4h-0.35H64.7v7.35v7.35v7.35v7.35c0,0.3-0.075,0.6-0.2,0.875S64.2,69.2,64,69.4
	c-0.2,0.2-0.45,0.375-0.725,0.5C63,70.025,62.7,70.1,62.4,70.1s-0.6-0.075-0.875-0.2S61,69.6,60.8,69.4
	c-0.2-0.2-0.375-0.45-0.5-0.725S60.1,68.1,60.1,67.8l0,0l0,0l0,0l0,0v-4.1v-4.1v-4.1v-4.1h-0.3h-0.3h-0.25H59v4.1v4.1v4.1v4.1
	c0,0.3-0.075,0.6-0.2,0.875S58.5,69.2,58.3,69.4s-0.45,0.375-0.725,0.5C57.3,70.025,57,70.1,56.7,70.1s-0.6-0.075-0.875-0.2
	c-0.275-0.125-0.525-0.3-0.725-0.5s-0.375-0.45-0.5-0.725S54.4,68.1,54.4,67.8v-7.35V53.1v-7.4v-7.4h-0.35H53.7h-0.35H53v2.6v2.6
	v2.6v2.6c0,0.2-0.05,0.4-0.138,0.575C52.775,49.45,52.65,49.6,52.5,49.7s-0.325,0.2-0.513,0.263S51.6,50.05,51.4,50
	c-0.2,0-0.375-0.05-0.525-0.125S50.6,49.7,50.5,49.6s-0.2-0.25-0.275-0.412C50.15,49.025,50.1,48.85,50.1,48.7v-2.65V43.4v-2.65
	V38.1c0-0.65,0.125-1.25,0.35-1.787C50.675,35.775,51,35.3,51.4,34.9s0.9-0.725,1.45-0.95C53.4,33.725,54,33.6,54.6,33.6h2.45h2.45
	h2.45h2.45c0.65,0,1.25,0.125,1.787,0.35c0.538,0.225,1.012,0.55,1.412,0.95s0.725,0.9,0.95,1.45c0.225,0.55,0.35,1.15,0.35,1.75
	v2.65v2.65c0.05,0.05,0.075,1.4,0.088,2.738C69,47.475,69,48.8,69,48.8z"/>
<path style="fill:#808080;" d="M33.4,35h-2.45H28.5h-2.45H23.6c-0.7,0-1.375,0.15-1.987,0.412C21,35.675,20.45,36.05,20,36.5
	s-0.825,1-1.087,1.612S18.5,39.4,18.5,40.1v2.65v2.65v2.65v2.65c-0.05,0.25-0.05,0.525,0,0.787C18.55,51.75,18.65,52,18.8,52.2
	s0.325,0.4,0.538,0.562C19.55,52.925,19.8,53.05,20.1,53.1c0.25,0.05,0.525,0.05,0.788,0s0.513-0.15,0.712-0.3
	s0.4-0.325,0.562-0.537C22.325,52.05,22.45,51.8,22.5,51.5c0-0.05,0-0.125,0-0.2s0-0.15,0-0.2s0-0.125,0-0.2s0-0.15,0-0.2v-2.5v-2.5
	v-2.5v-2.5h0.1h0.1h0.1h0.1v7.25v7.25v7.25v7.25c0,0.4,0.075,0.775,0.212,1.113C23.25,71.15,23.45,71.45,23.7,71.7
	s0.55,0.45,0.888,0.588C24.925,72.425,25.3,72.5,25.7,72.5s0.775-0.075,1.112-0.213C27.15,72.15,27.45,71.95,27.7,71.7
	s0.45-0.55,0.587-0.887C28.425,70.475,28.5,70.1,28.5,69.7v-4v-4v-4v-4h0.05h0.05h0.05h0.05v4v4v4v4c0,0.4,0.075,0.775,0.212,1.113
	C29.05,71.15,29.25,71.45,29.5,71.7s0.55,0.45,0.888,0.588C30.725,72.425,31.1,72.5,31.5,72.5s0.775-0.075,1.112-0.213
	C32.95,72.15,33.25,71.95,33.5,71.7s0.45-0.55,0.588-0.887C34.225,70.475,34.3,70.1,34.3,69.7v-7.3v-7.3v-7.25V40.6h0.1h0.1h0.1h0.1
	v2.5v2.5v2.5v2.5c-0.05,0.25-0.05,0.525,0,0.787C34.75,51.65,34.85,51.9,35,52.1s0.325,0.4,0.537,0.562
	C35.75,52.825,36,52.95,36.3,53s0.575,0.05,0.825,0c0.25-0.05,0.475-0.15,0.675-0.3s0.4-0.325,0.562-0.537
	C38.525,51.95,38.65,51.7,38.7,51.4c0-0.05,0-0.125,0-0.2s0-0.15,0-0.2s0-0.125,0-0.2s0-0.15,0-0.2v-2.65V45.3v-2.65V40
	c0-0.7-0.15-1.375-0.412-1.987S37.65,36.85,37.2,36.4c-0.55-0.45-1.15-0.8-1.788-1.038C34.775,35.125,34.1,35,33.4,35z"/>
<path style="fill:#808080;" d="M28.3,26.2c0.55,0,1.075,0.1,1.55,0.3c0.475,0.2,0.9,0.5,1.25,0.9c0.35,0.35,0.65,0.775,0.863,1.25
	c0.212,0.475,0.337,1,0.337,1.55s-0.1,1.075-0.3,1.55c-0.2,0.475-0.5,0.9-0.9,1.25c-0.35,0.35-0.775,0.65-1.25,0.862
	c-0.475,0.213-1,0.338-1.55,0.338s-1.075-0.1-1.55-0.3c-0.475-0.2-0.9-0.5-1.25-0.9c-0.35-0.35-0.65-0.775-0.863-1.25
	c-0.212-0.475-0.337-1-0.337-1.55s0.1-1.075,0.3-1.55c0.2-0.475,0.5-0.9,0.9-1.25s0.8-0.65,1.25-0.862
	C27.2,26.325,27.7,26.2,28.3,26.2z"/>
<path d="M33.4,34.5h-0.95H31.5h-0.95H29.6c0.6-0.2,1.125-0.5,1.562-0.875S31.95,32.8,32.2,32.3s0.425-1.05,0.487-1.625
	S32.7,29.5,32.5,28.9s-0.5-1.125-0.875-1.562S30.8,26.55,30.3,26.3s-1.05-0.425-1.625-0.487S27.5,25.8,26.9,26
	s-1.125,0.5-1.562,0.875S24.55,27.7,24.3,28.2s-0.425,1.05-0.487,1.625S23.8,31,24,31.6c0.1,0.35,0.25,0.675,0.438,0.975
	S24.85,33.15,25.1,33.4s0.525,0.475,0.825,0.662c0.3,0.188,0.625,0.338,0.975,0.438h-0.85H25.2h-0.85H23.5
	c-0.75,0-1.475,0.15-2.137,0.425C20.7,35.2,20.1,35.6,19.6,36.1s-0.9,1.1-1.175,1.763C18.15,38.525,18,39.25,18,40v2.65v2.65v2.65
	v2.65c0,0.35,0.075,0.675,0.2,0.963c0.125,0.287,0.3,0.537,0.5,0.737c0.2,0.2,0.475,0.375,0.775,0.5c0.3,0.125,0.625,0.2,0.925,0.2
	c0.2,0,0.375-0.025,0.55-0.062C21.125,52.9,21.3,52.85,21.5,52.8c0.15-0.1,0.3-0.2,0.45-0.312c0.15-0.112,0.3-0.237,0.45-0.388v4.35
	v4.35v4.35v4.35c0,0.45,0.1,0.875,0.275,1.262C22.85,71.15,23.1,71.5,23.4,71.8s0.65,0.55,1.038,0.725
	C24.825,72.7,25.25,72.8,25.7,72.8c0.3,0,0.6-0.05,0.875-0.125S27.1,72.5,27.3,72.4c0.25-0.15,0.475-0.325,0.675-0.525
	c0.2-0.2,0.375-0.425,0.525-0.675c0.25,0.4,0.55,0.725,0.888,0.975C29.725,72.425,30.1,72.6,30.5,72.7s0.825,0.125,1.25,0.075
	C32.175,72.725,32.6,72.6,33,72.4c0.25-0.15,0.475-0.325,0.675-0.525S34.05,71.45,34.2,71.2s0.25-0.525,0.312-0.8
	c0.062-0.275,0.088-0.55,0.088-0.8v-4.35V60.9v-4.35V52.2c0.2,0.25,0.45,0.45,0.737,0.6c0.288,0.15,0.613,0.25,0.963,0.3
	c0.3,0.05,0.625,0.025,0.938-0.062S37.85,52.8,38.1,52.6c0.15-0.1,0.275-0.225,0.388-0.362C38.6,52.1,38.7,51.95,38.8,51.8
	s0.15-0.325,0.175-0.5C39,51.125,39,50.95,39,50.8v-2.65V45.5v-2.75V40c0-0.75-0.15-1.475-0.425-2.138S37.9,36.6,37.4,36.1
	c-0.55-0.5-1.175-0.9-1.85-1.175C34.875,34.65,34.15,34.5,33.4,34.5z M24.8,30.2c0-0.5,0.1-0.95,0.275-1.362
	C25.25,28.425,25.5,28.05,25.8,27.7c0.3-0.3,0.675-0.55,1.1-0.725c0.425-0.175,0.9-0.275,1.4-0.275s0.95,0.1,1.362,0.275
	C30.075,27.15,30.45,27.4,30.8,27.7c0.3,0.3,0.55,0.675,0.725,1.1c0.175,0.425,0.275,0.9,0.275,1.4s-0.1,0.95-0.275,1.362
	C31.35,31.975,31.1,32.35,30.8,32.7c-0.3,0.3-0.675,0.55-1.1,0.725C29.275,33.6,28.8,33.7,28.3,33.7s-0.95-0.1-1.362-0.275
	C26.525,33.25,26.15,33,25.8,32.7s-0.6-0.675-0.763-1.1C24.875,31.175,24.8,30.7,24.8,30.2L24.8,30.2L24.8,30.2L24.8,30.2L24.8,30.2
	z M38,50.6c0,0.2-0.025,0.4-0.075,0.588S37.8,51.55,37.7,51.7s-0.25,0.275-0.425,0.362C37.1,52.15,36.9,52.2,36.7,52.2
	s-0.4-0.025-0.588-0.075C35.925,52.075,35.75,52,35.6,51.9s-0.275-0.25-0.362-0.425S35.1,51.1,35.1,50.9v-0.05V50.8v-0.05V50.7v-2.6
	v-2.6v-2.6v-2.6h-0.35H34.4h-0.35H33.7v7.35V55v7.35v7.35c0,0.3-0.075,0.6-0.2,0.875C33.375,70.85,33.2,71.1,33,71.3
	s-0.45,0.375-0.725,0.5C32,71.925,31.7,72,31.4,72s-0.6-0.075-0.875-0.2S30,71.5,29.8,71.3c-0.2-0.2-0.375-0.45-0.5-0.725
	C29.175,70.3,29.1,70,29.1,69.7v-4.1v-4.1v-4.1v-4.1h-0.25H28.6h-0.3H28v4.1v4.1v4.1v4.1c0,0.3-0.075,0.6-0.2,0.875
	c-0.125,0.275-0.3,0.525-0.5,0.725s-0.45,0.375-0.725,0.5S26,72,25.7,72s-0.6-0.075-0.875-0.2S24.3,71.5,24.1,71.3
	c-0.2-0.2-0.375-0.45-0.5-0.725C23.475,70.3,23.4,70,23.4,69.7v-7.4v-7.4v-7.4v-7.4H23h-0.4h-0.4h-0.4v2.6v2.6v2.6v2.6
	c0,0.2-0.025,0.4-0.075,0.588C21.675,51.275,21.6,51.45,21.5,51.6c-0.1,0.15-0.25,0.275-0.425,0.362C20.9,52.05,20.7,52.1,20.5,52.1
	s-0.4-0.025-0.587-0.075S19.55,51.9,19.4,51.8s-0.275-0.25-0.362-0.425S18.9,51,18.9,50.8v-0.05V50.7v-0.05V50.6v-2.65V45.3v-2.65
	V40c0-0.65,0.125-1.25,0.35-1.787c0.225-0.538,0.55-1.013,0.95-1.413s0.9-0.725,1.45-0.95c0.55-0.225,1.15-0.35,1.75-0.35h2.45h2.45
	h2.45h2.45c0.65,0,1.25,0.125,1.788,0.35C35.525,36.075,36,36.4,36.4,36.8s0.725,0.9,0.95,1.45C37.575,38.8,37.7,39.4,37.7,40v2.65
	v2.65v2.65v2.65h0.15H38z"/>
<path style="fill:#808080;" d="M54.4,38.2h-2.45H49.5h-2.45H44.6c-0.7,0-1.375,0.15-1.987,0.412S41.45,39.25,41,39.7
	c-0.45,0.45-0.825,1-1.088,1.612C39.65,41.925,39.5,42.6,39.5,43.3v2.65v2.65v2.65v2.65c0.05,0.25,0.15,0.5,0.3,0.725
	c0.15,0.225,0.35,0.425,0.6,0.575c0.2,0.15,0.45,0.25,0.713,0.3c0.262,0.05,0.537,0.05,0.787,0c0.2-0.05,0.375-0.125,0.538-0.212
	C42.6,55.2,42.75,55.1,42.9,55c0.15-0.15,0.275-0.3,0.362-0.462C43.35,54.375,43.4,54.2,43.4,54v-2.5V49v-2.5V44h0.1h0.1h0.1h0.1
	v7.25v7.25v7.25V73c0,0.4,0.075,0.775,0.213,1.113C44.15,74.45,44.35,74.75,44.6,75s0.55,0.45,0.888,0.588S46.2,75.8,46.6,75.8
	s0.775-0.075,1.112-0.213S48.35,75.25,48.6,75s0.45-0.55,0.587-0.887C49.325,73.775,49.4,73.4,49.4,73l0,0l0,0l0,0l0,0v-4v-4v-4v-4
	h0.05h0.05h0.05h0.05v4v4v4v4c0,0.4,0.1,0.775,0.263,1.1c0.163,0.325,0.388,0.6,0.638,0.8c0.25,0.25,0.575,0.425,0.925,0.537
	C51.775,75.55,52.15,75.6,52.5,75.6s0.675-0.075,0.975-0.213c0.3-0.137,0.575-0.338,0.825-0.588s0.45-0.525,0.587-0.825
	C55.025,73.675,55.1,73.35,55.1,73v-7.35V58.3v-7.25V43.8h0.1h0.1h0.1h0.1v2.5v2.5v2.5v2.5c0.05,0.25,0.15,0.5,0.3,0.725
	c0.15,0.225,0.35,0.425,0.6,0.575c0.2,0.15,0.45,0.25,0.713,0.3c0.262,0.05,0.537,0.05,0.787,0c0.2-0.05,0.375-0.125,0.538-0.212
	C58.6,55.1,58.75,55,58.9,54.9c0.15-0.15,0.275-0.3,0.362-0.462C59.35,54.275,59.4,54.1,59.4,53.9v-2.65V48.6v-2.65V43.3
	c0-0.7-0.15-1.375-0.412-1.987C58.725,40.7,58.35,40.15,57.9,39.7c-0.4-0.5-0.925-0.875-1.525-1.125S55.1,38.2,54.4,38.2L54.4,38.2
	L54.4,38.2L54.4,38.2L54.4,38.2z"/>
<path style="fill:#808080;" d="M49.3,29.4c0.55,0,1.075,0.1,1.55,0.3c0.475,0.2,0.9,0.5,1.25,0.9c0.35,0.35,0.65,0.775,0.862,1.25
	c0.213,0.475,0.338,1,0.338,1.55s-0.1,1.075-0.3,1.55c-0.2,0.475-0.5,0.9-0.9,1.25c-0.35,0.35-0.775,0.65-1.25,0.862
	c-0.475,0.213-1,0.338-1.55,0.338s-1.075-0.1-1.55-0.3s-0.9-0.5-1.25-0.9c-0.35-0.35-0.65-0.775-0.862-1.25
	c-0.213-0.475-0.338-1-0.338-1.55s0.1-1.075,0.3-1.55c0.2-0.475,0.5-0.9,0.9-1.25c0.35-0.35,0.775-0.65,1.25-0.863
	C48.225,29.525,48.75,29.4,49.3,29.4z"/>
<path d="M54.4,37.7h-0.95H52.5h-0.95H50.6c0.6-0.2,1.125-0.5,1.562-0.875S52.95,36,53.2,35.5s0.425-1.05,0.487-1.625
	S53.7,32.7,53.5,32.1c-0.2-0.6-0.5-1.125-0.875-1.562S51.8,29.75,51.3,29.5s-1.05-0.425-1.625-0.488S48.5,29,47.9,29.2
	s-1.125,0.5-1.562,0.875S45.55,30.9,45.3,31.4c-0.25,0.5-0.425,1.05-0.487,1.625C44.75,33.6,44.8,34.2,45,34.8
	c0.1,0.35,0.25,0.675,0.438,0.975S45.85,36.35,46.1,36.6s0.525,0.475,0.825,0.662c0.3,0.188,0.625,0.338,0.975,0.438h-0.85H46.2
	h-0.85H44.5c-0.75,0-1.475,0.15-2.138,0.425S41.1,38.8,40.6,39.3s-0.9,1.1-1.175,1.763S39,42.45,39,43.2l0,0l0,0l0,0l0,0v2.65v2.65
	v2.65v2.65c0,0.35,0.075,0.675,0.2,0.963c0.125,0.287,0.3,0.537,0.5,0.737s0.475,0.375,0.775,0.5s0.625,0.2,0.925,0.2
	c0.2,0,0.375-0.025,0.55-0.062S42.3,56.05,42.5,56c0.15-0.1,0.3-0.2,0.45-0.312c0.15-0.112,0.3-0.237,0.45-0.388v4.35V64v4.35v4.35
	c0,0.45,0.1,0.875,0.275,1.262C43.85,74.35,44.1,74.7,44.4,75s0.65,0.55,1.037,0.725C45.825,75.9,46.25,76,46.7,76
	c0.3,0,0.6-0.05,0.875-0.125C47.85,75.8,48.1,75.7,48.3,75.6c0.25-0.15,0.475-0.325,0.675-0.525c0.2-0.2,0.375-0.425,0.525-0.675
	c0.25,0.4,0.55,0.725,0.888,0.975C50.725,75.625,51.1,75.8,51.5,75.9s0.825,0.125,1.25,0.075C53.175,75.925,53.6,75.8,54,75.6
	c0.25-0.15,0.475-0.325,0.675-0.525S55.05,74.65,55.2,74.4s0.25-0.5,0.312-0.762C55.575,73.375,55.6,73.1,55.6,72.8v-4.35V64.1
	v-4.35V55.4c0.2,0.25,0.45,0.45,0.725,0.6c0.275,0.15,0.575,0.25,0.875,0.3s0.625,0.025,0.938-0.062C58.45,56.15,58.75,56,59,55.8
	c0.15-0.1,0.275-0.225,0.388-0.375C59.5,55.275,59.6,55.1,59.7,54.9c0.1-0.15,0.15-0.325,0.175-0.513C59.9,54.2,59.9,54,59.9,53.8
	v-2.65V48.5v-2.65V43.2c0-0.75-0.15-1.475-0.425-2.138S58.8,39.8,58.3,39.3c-0.45-0.5-1.025-0.9-1.687-1.175
	C55.95,37.85,55.2,37.7,54.4,37.7z M45.8,33.4c0-0.5,0.1-0.95,0.275-1.362C46.25,31.625,46.5,31.25,46.8,30.9
	c0.3-0.3,0.675-0.55,1.1-0.725C48.325,30,48.8,29.9,49.3,29.9s0.95,0.1,1.362,0.275C51.075,30.35,51.45,30.6,51.8,30.9
	c0.3,0.3,0.55,0.675,0.725,1.1c0.175,0.425,0.275,0.9,0.275,1.4s-0.1,0.95-0.275,1.362C52.35,35.175,52.1,35.55,51.8,35.9
	c-0.3,0.3-0.675,0.55-1.1,0.725C50.275,36.8,49.8,36.9,49.3,36.9s-0.95-0.1-1.362-0.275C47.525,36.45,47.15,36.2,46.8,35.9
	c-0.3-0.3-0.55-0.675-0.725-1.1S45.8,33.9,45.8,33.4z M59,53.8c0,0.2-0.05,0.4-0.138,0.575C58.775,54.55,58.65,54.7,58.5,54.8
	s-0.325,0.2-0.513,0.263S57.6,55.15,57.4,55.1c-0.2,0-0.375-0.05-0.525-0.125S56.6,54.8,56.5,54.7s-0.2-0.25-0.275-0.412
	C56.15,54.125,56.1,53.95,56.1,53.8v-2.6v-2.6V46v-2.6h-0.35H55.4h-0.35H54.7v7.35v7.35v7.35v7.35c0,0.3-0.075,0.6-0.213,0.875
	C54.35,73.95,54.15,74.2,53.9,74.4c-0.2,0.2-0.45,0.35-0.737,0.45C52.875,74.95,52.55,75,52.2,75c-0.3,0-0.575-0.075-0.825-0.2
	S50.9,74.5,50.7,74.3c-0.2-0.2-0.35-0.425-0.463-0.675C50.125,73.375,50.05,73.1,50,72.8v-4.1v-4.1v-4.1v-4.1h-0.25H49.5h-0.25H49
	v4.1v4.1v4.1v4.1c0,0.3-0.075,0.6-0.2,0.875S48.5,74.2,48.3,74.4s-0.45,0.375-0.725,0.5C47.3,75.025,47,75.1,46.7,75.1
	s-0.6-0.075-0.875-0.2c-0.275-0.125-0.525-0.3-0.725-0.5s-0.375-0.45-0.5-0.725S44.4,73.1,44.4,72.8v-7.35V58.1v-7.4v-7.4h-0.35
	H43.7h-0.35H43v2.6v2.6v2.6v2.6c0,0.2-0.05,0.4-0.138,0.575C42.775,54.45,42.65,54.6,42.5,54.7s-0.325,0.2-0.513,0.263
	S41.6,55.05,41.4,55c-0.2,0-0.375-0.05-0.525-0.125S40.6,54.7,40.5,54.6s-0.2-0.25-0.275-0.412C40.15,54.025,40.1,53.85,40.1,53.7
	v-2.65V48.4v-2.65V43.1c0-0.65,0.125-1.25,0.35-1.787C40.675,40.775,41,40.3,41.4,39.9s0.9-0.725,1.45-0.95
	C43.4,38.725,44,38.6,44.6,38.6h2.45h2.45h2.45h2.45c0.65,0,1.25,0.125,1.787,0.35c0.538,0.225,1.013,0.55,1.413,0.95
	s0.725,0.9,0.95,1.45c0.225,0.55,0.35,1.15,0.35,1.75v2.65v2.65l0.05,2.7L59,53.8z"/>
<path style="fill:#808080;" d="M81.2,35.5h-2.45H76.3h-2.45H71.4c-0.7,0-1.375,0.15-1.988,0.412C68.8,36.175,68.25,36.55,67.8,37
	s-0.825,1-1.088,1.612S66.3,39.9,66.3,40.6v2.65v2.65v2.65v2.65c-0.05,0.25-0.05,0.525,0,0.787c0.05,0.263,0.15,0.513,0.3,0.713
	s0.325,0.4,0.537,0.562C67.35,53.425,67.6,53.55,67.9,53.6s0.575,0.05,0.825,0c0.25-0.05,0.475-0.15,0.675-0.3
	s0.4-0.325,0.562-0.537C70.125,52.55,70.25,52.3,70.3,52c0-0.05,0-0.125,0-0.2s0-0.15,0-0.2s0-0.125,0-0.2s0-0.15,0-0.2v-2.5v-2.5
	v-2.5v-2.5h0.1h0.1h0.1h0.1v7.25v7.25v7.25v7.25c0,0.4,0.075,0.775,0.213,1.113C71.05,71.65,71.25,71.95,71.5,72.2
	s0.55,0.45,0.887,0.588C72.725,72.925,73.1,73,73.5,73s0.775-0.075,1.113-0.213C74.95,72.65,75.25,72.45,75.5,72.2
	s0.45-0.55,0.588-0.887C76.225,70.975,76.3,70.6,76.3,70.2v-4v-4v-4v-4h0.05h0.05h0.05h0.05v4v4v4v4c0,0.4,0.075,0.775,0.213,1.113
	C76.85,71.65,77.05,71.95,77.3,72.2s0.55,0.45,0.887,0.588C78.525,72.925,78.9,73,79.3,73s0.775-0.075,1.113-0.213
	C80.75,72.65,81.05,72.45,81.3,72.2s0.45-0.55,0.588-0.887C82.025,70.975,82.1,70.6,82.1,70.2v-7.3v-7.3v-7.25V41.1h0.1h0.1h0.1h0.1
	v2.5v2.5v2.5v2.5c-0.05,0.25-0.05,0.525,0,0.787c0.05,0.263,0.15,0.513,0.3,0.713s0.325,0.4,0.537,0.562S83.8,53.45,84.1,53.5
	c0.25,0.05,0.525,0.05,0.787,0c0.263-0.05,0.513-0.15,0.713-0.3s0.4-0.325,0.562-0.537C86.325,52.45,86.45,52.2,86.5,51.9
	c0-0.05,0-0.125,0-0.2s0-0.15,0-0.2c0-0.05,0-0.125,0-0.2s0-0.15,0-0.2v-2.65V45.8v-2.65V40.5c0-0.7-0.15-1.375-0.412-1.987
	S85.45,37.35,85,36.9s-1.05-0.8-1.713-1.037C82.625,35.625,81.9,35.5,81.2,35.5L81.2,35.5L81.2,35.5L81.2,35.5L81.2,35.5z"/>
<path style="fill:#808080;" d="M76.1,26.7c0.55,0,1.075,0.1,1.55,0.3c0.475,0.2,0.9,0.5,1.25,0.9c0.35,0.35,0.65,0.775,0.862,1.25
	c0.213,0.475,0.338,1,0.338,1.55s-0.1,1.075-0.3,1.55c-0.2,0.475-0.5,0.9-0.9,1.25c-0.35,0.35-0.775,0.65-1.25,0.862
	c-0.475,0.213-1,0.338-1.55,0.338s-1.075-0.1-1.55-0.3c-0.475-0.2-0.9-0.5-1.25-0.9c-0.35-0.35-0.65-0.775-0.862-1.25
	c-0.213-0.475-0.338-1-0.338-1.55s0.1-1.075,0.3-1.55c0.2-0.475,0.5-0.9,0.9-1.25c0.35-0.35,0.775-0.65,1.25-0.863
	C75.025,26.825,75.55,26.7,76.1,26.7z"/>
<path d="M81.2,35h-0.95H79.3h-0.95H77.4c0.6-0.2,1.125-0.5,1.562-0.875S79.75,33.3,80,32.8s0.425-1.05,0.487-1.625
	S80.5,30,80.3,29.4c-0.2-0.6-0.5-1.125-0.875-1.562S78.6,27.05,78.1,26.8s-1.05-0.425-1.625-0.487C75.9,26.25,75.3,26.3,74.7,26.5
	s-1.125,0.5-1.562,0.875S72.35,28.2,72.1,28.7s-0.425,1.05-0.487,1.625S71.6,31.5,71.8,32.1c0.1,0.35,0.25,0.675,0.438,0.975
	S72.65,33.65,72.9,33.9s0.525,0.475,0.825,0.662C74.025,34.75,74.35,34.9,74.7,35h-0.85H73h-0.85H71.3
	c-0.75,0-1.475,0.15-2.137,0.425C68.5,35.7,67.9,36.1,67.4,36.6s-0.9,1.1-1.175,1.763C65.95,39.025,65.8,39.75,65.8,40.5v2.65v2.65
	v2.65v2.65c0,0.35,0.075,0.675,0.2,0.963c0.125,0.287,0.3,0.537,0.5,0.737s0.475,0.375,0.775,0.5c0.3,0.125,0.625,0.2,0.925,0.2
	c0.2,0,0.375-0.025,0.55-0.062C68.925,53.4,69.1,53.35,69.3,53.3c0.15-0.1,0.3-0.2,0.45-0.312c0.15-0.112,0.3-0.237,0.45-0.388v4.35
	v4.35v4.35V70c0,0.45,0.1,0.875,0.275,1.262C70.65,71.65,70.9,72,71.2,72.3s0.65,0.55,1.037,0.725C72.625,73.2,73.05,73.3,73.5,73.3
	c0.3,0,0.6-0.05,0.875-0.125C74.65,73.1,74.9,73,75.1,72.9c0.25-0.15,0.475-0.325,0.675-0.525c0.2-0.2,0.375-0.425,0.525-0.675
	c0.25,0.4,0.55,0.725,0.887,0.975S77.9,73.1,78.3,73.2s0.825,0.125,1.25,0.075c0.425-0.05,0.85-0.175,1.25-0.375
	c0.25-0.15,0.475-0.325,0.675-0.525c0.2-0.2,0.375-0.425,0.525-0.675s0.25-0.5,0.312-0.762C82.375,70.675,82.4,70.4,82.4,70.1v-4.35
	V61.4v-4.35V52.7c0.2,0.25,0.45,0.45,0.725,0.6C83.4,53.45,83.7,53.55,84,53.6c0.3,0.05,0.625,0.025,0.938-0.062
	S85.55,53.3,85.8,53.1c0.15-0.1,0.275-0.225,0.388-0.375C86.3,52.575,86.4,52.4,86.5,52.2s0.15-0.375,0.175-0.55
	C86.7,51.475,86.7,51.3,86.7,51.1v-2.65V45.8v-2.65V40.5c0-0.75-0.15-1.475-0.425-2.138C86,37.7,85.6,37.1,85.1,36.6
	c-0.45-0.5-1.025-0.9-1.687-1.175C82.75,35.15,82,35,81.2,35z M72.6,30.7c0-0.5,0.1-0.95,0.275-1.362
	C73.05,28.925,73.3,28.55,73.6,28.2c0.3-0.3,0.675-0.55,1.1-0.725c0.425-0.175,0.9-0.275,1.4-0.275s0.95,0.1,1.363,0.275
	C77.875,27.65,78.25,27.9,78.6,28.2c0.3,0.3,0.55,0.675,0.725,1.1c0.175,0.425,0.275,0.9,0.275,1.4s-0.1,0.95-0.275,1.362
	S78.9,32.85,78.6,33.2c-0.3,0.3-0.675,0.55-1.1,0.725S76.6,34.2,76.1,34.2l0,0l0,0l0,0l0,0c-0.5,0-0.95-0.1-1.363-0.275
	S73.95,33.5,73.6,33.2c-0.3-0.3-0.55-0.675-0.725-1.1C72.7,31.675,72.6,31.2,72.6,30.7z M85.8,51.1c0,0.2-0.05,0.4-0.137,0.575
	C85.575,51.85,85.45,52,85.3,52.1s-0.325,0.2-0.512,0.263S84.4,52.45,84.2,52.4c-0.2,0-0.375-0.05-0.525-0.125
	C83.525,52.2,83.4,52.1,83.3,52c-0.1-0.1-0.2-0.25-0.275-0.412C82.95,51.425,82.9,51.25,82.9,51.1v-2.6v-2.6v-2.6v-2.6h-0.35H82.2
	h-0.35H81.5v7.35v7.35v7.35v7.35c0,0.3-0.075,0.6-0.2,0.875C81.175,71.25,81,71.5,80.8,71.7c-0.2,0.2-0.45,0.375-0.725,0.5
	C79.8,72.325,79.5,72.4,79.2,72.4s-0.6-0.075-0.875-0.2c-0.275-0.125-0.525-0.3-0.725-0.5c-0.2-0.2-0.375-0.45-0.5-0.725
	C76.975,70.7,76.9,70.4,76.9,70.1V66v-4.1v-4.1v-4.1h-0.3h-0.3H76h-0.3v4.1v4.1V66v4.1c0,0.3-0.075,0.6-0.2,0.875
	C75.375,71.25,75.2,71.5,75,71.7c-0.2,0.2-0.45,0.375-0.725,0.5C74,72.325,73.7,72.4,73.4,72.4s-0.6-0.075-0.875-0.2
	C72.25,72.075,72,71.9,71.8,71.7s-0.375-0.45-0.5-0.725S71.1,70.4,71.1,70.1v-7.35V55.4V48v-7.4h-0.35H70.4h-0.35H69.7v2.6v2.6v2.6
	V51c0,0.2-0.05,0.4-0.137,0.575S69.35,51.9,69.2,52s-0.325,0.2-0.512,0.263C68.5,52.325,68.3,52.35,68.1,52.3
	c-0.2,0-0.375-0.05-0.525-0.125S67.3,52,67.2,51.9s-0.2-0.25-0.275-0.412C66.85,51.325,66.8,51.15,66.8,51v-2.65V45.7v-2.65V40.4
	c0-0.65,0.125-1.25,0.35-1.788c0.225-0.537,0.55-1.012,0.95-1.412s0.9-0.725,1.45-0.95c0.55-0.225,1.15-0.35,1.75-0.35h2.45h2.45
	h2.45h2.45c0.65,0,1.25,0.125,1.787,0.35c0.537,0.225,1.013,0.55,1.412,0.95c0.4,0.4,0.725,0.9,0.95,1.45s0.35,1.15,0.35,1.75v2.65
	v2.65l0.1,2.7L85.8,51.1L85.8,51.1L85.8,51.1z"/>
<path style="fill:#FFFFFF;" d="M13.5,48.7h18.25H50h18.25H86.5c0.55,0,1.075,0.125,1.562,0.338C88.55,49.25,89,49.55,89.4,49.9
	c0.35,0.35,0.65,0.8,0.862,1.3c0.213,0.5,0.338,1.05,0.338,1.6l0,0l0,0l0,0l0,0c0,0.55-0.125,1.075-0.338,1.562
	C90.05,54.85,89.75,55.3,89.4,55.7c-0.35,0.35-0.8,0.65-1.3,0.862c-0.5,0.213-1.05,0.338-1.6,0.338H68.25H50H31.75H13.5
	c-0.55,0-1.075-0.125-1.562-0.338C11.45,56.35,11,56.05,10.6,55.7s-0.7-0.8-0.9-1.3s-0.3-1.05-0.3-1.6l0,0l0,0l0,0l0,0
	c0-0.55,0.125-1.075,0.337-1.562C9.95,50.75,10.25,50.3,10.6,49.9c0.4-0.35,0.85-0.65,1.337-0.862
	C12.425,48.825,12.95,48.7,13.5,48.7z"/>
<path style="fill:#4D4D4D;" d="M86.5,57.4H68.25H50H31.75H13.5c-0.65-0.05-1.25-0.2-1.788-0.45c-0.537-0.25-1.012-0.6-1.412-1.05
	s-0.725-0.95-0.938-1.5C9.15,53.85,9.05,53.25,9.1,52.6c0.05-0.6,0.2-1.15,0.425-1.65C9.75,50.45,10.05,50,10.4,49.6
	s0.8-0.725,1.312-0.95c0.512-0.225,1.088-0.35,1.688-0.35h18.3H50h18.25H86.5c0.65,0.05,1.25,0.2,1.787,0.45s1.013,0.6,1.412,1.05
	s0.725,0.95,0.938,1.5s0.312,1.15,0.262,1.8c-0.05,0.6-0.2,1.15-0.425,1.65c-0.225,0.5-0.525,0.95-0.875,1.35
	c-0.45,0.35-0.95,0.65-1.475,0.875C87.6,57.2,87.05,57.35,86.5,57.4z M13.5,49.2c-0.5,0.05-0.975,0.175-1.4,0.375
	c-0.425,0.2-0.8,0.475-1.1,0.825s-0.55,0.75-0.712,1.188C10.125,52.025,10.05,52.5,10.1,53c0,0.45,0.1,0.875,0.275,1.263
	C10.55,54.65,10.8,55,11.1,55.3s0.65,0.55,1.038,0.725C12.525,56.2,12.95,56.3,13.4,56.3h18.3H50h18.25H86.5
	c0.5-0.05,0.975-0.175,1.4-0.375c0.425-0.2,0.8-0.475,1.1-0.825s0.55-0.75,0.713-1.188S89.95,53,89.9,52.5
	c0-0.45-0.1-0.875-0.275-1.263S89.2,50.5,88.9,50.2s-0.65-0.55-1.037-0.725C87.475,49.3,87.05,49.2,86.6,49.2H68.3H50H31.75H13.5z"
	/>
</svg>
