<?xml version="1.0" encoding="iso-8859-1"?>
<!-- Generator: Adobe Illustrator 25.4.1, SVG Export Plug-In . SVG Version: 6.00 Build 0)  -->
<svg version="1.1" id="Layer_1" xmlns="http://www.w3.org/2000/svg" xmlns:xlink="http://www.w3.org/1999/xlink" x="0px" y="0px"
	 viewBox="0 0 100 100" style="enable-background:new 0 0 100 100;" xml:space="preserve">
<polygon style="fill:#FFFFFF;" points="37.9,36.6 39.75,36.6 41.6,36.6 43.45,36.6 45.3,36.6 45.3,43.8 45.3,51 45.3,58.2 
	45.3,65.4 43.45,65.4 41.6,65.4 39.75,65.4 37.9,65.4 37.9,58.2 37.9,51 37.9,43.8 "/>
<path style="fill:#969696;" d="M45.9,66.1h-2.15H41.6h-2.15H37.3v-7.55V51v-7.55V35.9h2.15h2.15h2.15h2.15v7.55V51v7.55V66.1z
	 M38.5,64.7h1.55h1.55h1.55h1.55v-6.85V51v-6.85V37.3h-1.55H41.6h-1.55H38.5v6.85V51v6.85V64.7z"/>
<path style="fill:#FFFFFF;" d="M36,65.3h-3.9h-3.9h-3.9h-3.9c-1.4,0-2.475-0.15-3.312-0.438C16.25,64.575,15.65,64.15,15.2,63.6
	c-0.4-0.55-0.625-1.225-0.75-2.025c-0.125-0.8-0.15-1.725-0.15-2.775v-3.25V52.3v-3.15V46c0.05-0.3,0.15-1.25,0.325-2.513
	C14.8,42.225,15.05,40.65,15.4,39.1c0.35-1.55,0.75-3.05,1.225-4.163S17.65,33.1,18.3,33.1h4.4h4.4h4.45H36
	c0.25,0,0.5,0.05,0.725,0.15c0.225,0.1,0.425,0.25,0.575,0.45c0.15,0.2,0.275,0.4,0.362,0.625S37.8,34.8,37.8,35.1l0,0l0,0l0,0l0,0
	v7.1v7.1v7.05v7.05c0,0.25-0.05,0.5-0.138,0.738C37.575,64.375,37.45,64.6,37.3,64.8c-0.1,0.15-0.275,0.275-0.5,0.362
	C36.575,65.25,36.3,65.3,36,65.3c0.05,0,0.075,0,0.075,0S36.05,65.3,36,65.3L36,65.3L36,65.3z"/>
<path style="fill:#969696;" d="M36,66.1h-3.9h-3.9h-3.9h-3.9c-1.55,0-2.75-0.2-3.675-0.55C15.8,65.2,15.15,64.7,14.7,64.1
	c-0.45-0.65-0.7-1.425-0.837-2.287S13.7,60,13.7,59v-3.25V52.5v-3.25V46c0.35-3.05,0.75-5.425,1.175-7.263
	C15.3,36.9,15.75,35.6,16.2,34.7c0.45-0.95,0.875-1.5,1.25-1.812s0.7-0.388,0.95-0.388h4.4h4.4h4.4H36c0.35,0,0.7,0.075,1.013,0.213
	C37.325,32.85,37.6,33.05,37.8,33.3c0.25,0.25,0.425,0.525,0.538,0.837C38.45,34.45,38.5,34.8,38.5,35.2l0,0l0,0l0,0l0,0v7.1v7.1
	v7.05v7.05c0,0.35-0.05,0.7-0.162,1.025C38.225,64.85,38.05,65.15,37.8,65.4c-0.2,0.15-0.45,0.3-0.75,0.425S36.4,66.05,36,66.1z
	 M18.3,33.8c-0.3,0-0.6,0.35-0.9,0.975C17.1,35.4,16.8,36.3,16.5,37.4c-0.3,1.1-0.6,2.425-0.863,3.9
	c-0.262,1.475-0.488,3.1-0.637,4.8c0,0,0,0,0,0.013s0,0.037,0,0.087s0,0.05,0,0.05s0,0,0,0.05v3.15v3.15v3.2V59
	c0,0.95,0.025,1.775,0.137,2.487C15.25,62.2,15.45,62.8,15.8,63.3s0.875,0.85,1.637,1.075C18.2,64.6,19.2,64.7,20.5,64.7h3.9h3.9
	h3.85H36c0.15,0,0.3-0.025,0.45-0.088c0.15-0.062,0.3-0.162,0.45-0.312c0.1-0.1,0.2-0.225,0.275-0.375S37.3,63.6,37.3,63.4l0,0l0,0
	l0,0l0,0v-7.1v-7.1v-7.05V35.1c0-0.15-0.025-0.3-0.075-0.45C37.175,34.5,37.1,34.35,37,34.2c-0.1-0.1-0.225-0.2-0.375-0.275
	C36.475,33.85,36.3,33.8,36.1,33.8l0,0l0,0l0,0l0,0h-4.4h-4.4c0,0-2.25,0-4.5,0S18.3,33.8,18.3,33.8z"/>
<path style="fill:#FFFFFF;" d="M48.9,27.8h8.55H66h8.55h8.55c0.55,0.05,1.05,0.2,1.5,0.425c0.45,0.225,0.85,0.525,1.2,0.875
	c0.35,0.35,0.6,0.775,0.762,1.25c0.162,0.475,0.238,1,0.238,1.55l0,0l0,0l0,0l0,0v8.35v8.35v8.35v8.35H76.4H66H55.65H45.3v-8.35
	V48.6v-8.3V32c-0.05-0.55,0.025-1.075,0.188-1.55c0.163-0.475,0.413-0.9,0.713-1.25s0.7-0.675,1.163-0.925
	C47.825,28.025,48.35,27.85,48.9,27.8L48.9,27.8L48.9,27.8L48.9,27.8L48.9,27.8z"/>
<path style="fill:#969696;" d="M87.3,66.1H76.65H66H55.35H44.7v-8.55V49v-8.5V32c0-0.65,0.125-1.3,0.338-1.888
	C45.25,29.525,45.55,29,45.9,28.6c0.4-0.45,0.85-0.8,1.35-1.038c0.5-0.237,1.05-0.362,1.65-0.362h8.55H66h8.55h8.55
	c0.6,0,1.15,0.125,1.65,0.362c0.5,0.238,0.95,0.588,1.35,1.038s0.7,0.975,0.9,1.55c0.2,0.575,0.3,1.2,0.3,1.85v8.55v8.55l0,8.5V66.1
	z M45.9,64.7h10h10h10h10v-8.15V48.4v-8.15V32.1c0.05-0.45,0-0.875-0.137-1.263C85.625,30.45,85.4,30.1,85.1,29.8
	c-0.25-0.3-0.575-0.55-0.95-0.737s-0.8-0.312-1.25-0.363h-8.45H66h-8.55H48.9c-0.45,0.05-0.85,0.175-1.213,0.363
	C47.325,29.25,47,29.5,46.7,29.8c-0.25,0.3-0.45,0.65-0.587,1.038C45.975,31.225,45.9,31.65,45.9,32.1v8.15v8.15v8.15V64.7z"/>
<polygon style="fill:#969696;" points="76.2,65.3 75.9,65.3 75.6,65.3 75.3,65.3 75,65.3 75,62.9 75,60.5 75,58.1 75,55.7 
	69.45,55.7 63.9,55.7 58.4,55.7 52.9,55.7 52.9,58.1 52.9,60.5 52.9,62.9 52.9,65.3 52.6,65.3 52.3,65.3 52,65.3 51.7,65.3 
	51.7,62.55 51.7,59.8 51.7,57 51.7,54.2 57.85,54.2 64,54.2 70.1,54.2 76.2,54.2 76.2,57 76.2,59.8 76.2,62.55 "/>
<path style="fill:#969696;" d="M15.8,47.5h-0.3h-0.3h-0.3h-0.3v-0.35V46.8v-0.35V46.1h0.3h0.3h0.3h0.3c0.2,0,0.425-0.3,0.663-0.825
	C16.7,44.75,16.95,44,17.2,43.1s0.475-1.975,0.688-3.15C18.1,38.775,18.3,37.5,18.5,36.2H18h-0.5H17h-0.5v-0.4v-0.4V35v-0.4h0.85
	h0.85h0.85h0.85v0.2V35v0.2v0.2c-0.1,0.9-0.225,2.1-0.413,3.388C19.3,40.075,19.05,41.45,18.7,42.7
	c-0.35,1.35-0.75,2.55-1.225,3.412S16.45,47.5,15.8,47.5z"/>
<path style="fill:#969696;" d="M25.7,45.4h-2h-2h-2h-2l0.45-2.7L18.6,40l0.45-2.7l0.45-2.7h1.55h1.55h1.55h1.55
	c0.2,0,0.375,0.05,0.538,0.138C26.4,34.825,26.55,34.95,26.7,35.1c0.1,0.15,0.2,0.3,0.275,0.462C27.05,35.725,27.1,35.9,27.1,36.1
	l0,0l0,0l0,0l0,0v1.95V40v1.95v1.95c0,0.2-0.025,0.375-0.087,0.538C26.95,44.6,26.85,44.75,26.7,44.9
	c-0.15,0.15-0.3,0.275-0.463,0.362C26.075,45.35,25.9,45.4,25.7,45.4z M19.3,43.9h1.6h1.6h1.6h1.6v-1.95V40v-1.95V36.1h-1.3h-1.3
	h-1.3h-1.3l-0.3,1.95L19.9,40l-0.3,1.95L19.3,43.9z"/>
<path style="fill:#969696;" d="M35.5,45.4h-0.8h-0.8h-0.75H32.4c-0.3,0-0.55-0.075-0.775-0.2S31.2,44.9,31,44.7
	c-0.15-0.2-0.275-0.425-0.362-0.675S30.5,43.5,30.5,43.2v-1.6V40v-1.6v-1.6c0-0.3,0.025-0.575,0.1-0.825S30.8,35.5,31,35.3
	c0.15-0.2,0.35-0.375,0.587-0.5s0.513-0.2,0.812-0.2l0,0l0,0l0,0l0,0h0.75h0.75h0.75h0.75c0.3,0,0.55,0.075,0.775,0.2
	c0.225,0.125,0.425,0.3,0.625,0.5c0.15,0.2,0.275,0.425,0.362,0.663C37.25,36.2,37.3,36.45,37.3,36.7l0,0l0,0l0,0l0,0v1.65V40v1.6
	v1.6c0,0.3-0.05,0.575-0.138,0.825C37.075,44.275,36.95,44.5,36.8,44.7s-0.35,0.375-0.575,0.5C36,45.325,35.75,45.4,35.5,45.4z
	 M32.4,36.1c-0.1,0-0.175,0.025-0.25,0.062S32,36.25,31.9,36.3c-0.1,0.05-0.15,0.125-0.175,0.213C31.7,36.6,31.7,36.7,31.7,36.8l0,0
	l0,0l0,0l0,0v1.6V40v1.6v1.6c0,0.1,0.025,0.2,0.062,0.288C31.8,43.575,31.85,43.65,31.9,43.7s0.125,0.1,0.212,0.138
	C32.2,43.875,32.3,43.9,32.4,43.9h0.75h0.75h0.75h0.75c0.1,0,0.175-0.025,0.25-0.062S35.8,43.75,35.9,43.7s0.15-0.125,0.175-0.213
	C36.1,43.4,36.1,43.3,36.1,43.2v-1.6V40v-1.6v-1.6c0-0.1-0.025-0.2-0.062-0.288C36,36.425,35.95,36.35,35.9,36.3
	c-0.05-0.05-0.125-0.1-0.212-0.138C35.6,36.125,35.5,36.1,35.4,36.1h-0.75H33.9h-0.75H32.4z"/>
<path style="fill:#FFFFFF;" d="M21,39.4L21,39.4L21,39.4L21,39.4L21,39.4c0.1,0,0.175,0.025,0.237,0.062S21.35,39.55,21.4,39.6
	s0.075,0.1,0.087,0.162C21.5,39.825,21.5,39.9,21.5,40v1.45v1.45v1.45v1.45c0,0.1,0,0.175-0.013,0.237
	C21.475,46.1,21.45,46.15,21.4,46.2s-0.1,0.1-0.163,0.138C21.175,46.375,21.1,46.4,21,46.4l0,0l0,0l0,0l0,0
	c-0.1,0-0.175-0.025-0.237-0.062S20.65,46.25,20.6,46.2s-0.075-0.125-0.087-0.2C20.5,45.925,20.5,45.85,20.5,45.8v-1.45V42.9v-1.45
	V40c0-0.1,0-0.175,0.013-0.237C20.525,39.7,20.55,39.65,20.6,39.6c0.05-0.05,0.1-0.1,0.163-0.137S20.9,39.4,21,39.4L21,39.4L21,39.4
	L21,39.4L21,39.4z"/>
<polygon style="fill:#969696;" points="33.9,64.6 37.45,64.6 41,64.6 44.55,64.6 48.1,64.6 48.1,64.95 48.1,65.3 48.1,65.7 
	48.1,66.1 44.55,66.1 41,66.1 37.45,66.1 33.9,66.1 33.9,65.7 33.9,65.3 33.9,64.95 "/>
<path style="fill:#FFFFFF;" d="M14,61.7h0.55h0.55h0.55h0.55c0.1,0,0.2,0.025,0.288,0.062C16.575,61.8,16.65,61.85,16.7,61.9
	s0.1,0.125,0.138,0.213C16.875,62.2,16.9,62.3,16.9,62.4v0.5v0.5v0.5v0.5c0,0.1-0.025,0.2-0.062,0.287S16.75,64.85,16.7,64.9
	s-0.125,0.075-0.213,0.088C16.4,65,16.3,65,16.2,65h-0.55H15.1h-0.55H14c-0.1,0-0.2-0.025-0.287-0.062
	C13.625,64.9,13.55,64.85,13.5,64.8s-0.1-0.125-0.137-0.213C13.325,64.5,13.3,64.4,13.3,64.3v-0.5v-0.5v-0.5v-0.5
	c0-0.1,0.025-0.2,0.062-0.288C13.4,61.925,13.45,61.85,13.5,61.8c0.05,0,0.125-0.025,0.213-0.05C13.8,61.725,13.9,61.7,14,61.7z"/>
<path style="fill:#969696;" d="M16.1,64.7h-0.55H15h-0.5H14c-0.2,0-0.375-0.05-0.525-0.137C13.325,64.475,13.2,64.35,13.1,64.2
	s-0.2-0.3-0.262-0.462C12.775,63.575,12.75,63.4,12.8,63.2v-0.55V62.1v-0.55V61c0-0.2,0.025-0.375,0.075-0.538
	C12.925,60.3,13,60.15,13.1,60s0.25-0.275,0.413-0.362C13.675,59.55,13.85,59.5,14,59.5h0.55h0.55h0.55h0.55
	c0.2,0,0.375,0.05,0.538,0.138C16.9,59.725,17.05,59.85,17.2,60c0.1,0.15,0.2,0.3,0.263,0.462C17.525,60.625,17.55,60.8,17.5,61
	v0.55v0.55v0.55v0.55c0,0.2-0.025,0.375-0.075,0.538C17.375,63.9,17.3,64.05,17.2,64.2c-0.15,0.15-0.325,0.275-0.513,0.363
	C16.5,64.65,16.3,64.7,16.1,64.7L16.1,64.7L16.1,64.7L16.1,64.7L16.1,64.7z M14,61.1v0.55v0.55v0.55v0.55h0.55h0.55h0.55h0.55v-0.55
	V62.2v-0.55V61.1h-0.55H15.1h-0.55H14z"/>
<polygon style="fill:#FFFFFF;" points="14.4,55.2 14.6,55.2 14.8,55.2 15.05,55.2 15.3,55.2 15.3,56.25 15.3,57.3 15.3,58.35 
	15.3,59.4 15.05,59.4 14.8,59.4 14.6,59.4 14.4,59.4 14.4,58.35 14.4,57.3 14.4,56.25 "/>
<path style="fill:#969696;" d="M15.4,59.6h-0.3h-0.3h-0.3h-0.3v-1.1v-1.1v-1.1v-1.1h0.3h0.3h0.3h0.3v1.1v1.1v1.1V59.6z M14.5,59.3
	h0.15h0.15H15h0.2v-1v-1v-1v-1H15h-0.2h-0.15H14.5v1v1v1V59.3z"/>
<polygon style="fill:#969696;" points="37.9,44.6 39.75,44.6 41.6,44.6 43.45,44.6 45.3,44.6 45.3,44.95 45.3,45.3 45.3,45.7 
	45.3,46.1 43.45,46.1 41.6,46.1 39.75,46.1 37.9,46.1 37.9,45.7 37.9,45.3 37.9,44.95 "/>
<polygon style="fill:#969696;" points="14.3,58.5 20.2,58.5 26.1,58.5 32,58.5 37.9,58.5 37.9,58.85 37.9,59.2 37.9,59.55 
	37.9,59.9 32,59.9 26.1,59.9 20.2,59.9 14.3,59.9 14.3,59.55 14.3,59.2 14.3,58.85 "/>
<path style="fill:#939393;" d="M35.2,65.4c0-1.25-0.15-2.425-0.425-3.487S34.1,59.9,33.6,59.1s-1.075-1.45-1.725-1.9
	c-0.65-0.45-1.375-0.7-2.175-0.7s-1.525,0.25-2.175,0.7c-0.65,0.45-1.225,1.1-1.725,1.9s-0.9,1.75-1.175,2.812
	C24.35,62.975,24.2,64.15,24.2,65.4"/>
<path style="fill:#323232;" d="M29.7,57.9c0.65,0,1.25,0.2,1.788,0.562S32.5,59.35,32.9,60s0.725,1.425,0.95,2.287
	C34.075,63.15,34.2,64.1,34.2,65.1s-0.125,1.95-0.35,2.812c-0.225,0.863-0.55,1.638-0.95,2.287s-0.9,1.175-1.45,1.537
	C30.9,72.1,30.3,72.3,29.7,72.3s-1.2-0.2-1.75-0.562C27.4,71.375,26.9,70.85,26.5,70.2c-0.4-0.65-0.725-1.425-0.95-2.287
	C25.325,67.05,25.2,66.1,25.2,65.1s0.125-1.95,0.35-2.812S26.1,60.65,26.5,60s0.9-1.175,1.45-1.537C28.5,58.1,29.1,57.9,29.7,57.9z"
	/>
<path style="fill:#FFFFFF;" d="M29.7,60.9c0.35,0,0.7,0.125,1.025,0.338C31.05,61.45,31.35,61.75,31.6,62.1
	c0.25,0.4,0.45,0.85,0.587,1.337C32.325,63.925,32.4,64.45,32.4,65s-0.075,1.1-0.213,1.6c-0.137,0.5-0.337,0.95-0.587,1.3
	s-0.525,0.65-0.837,0.863C30.45,68.975,30.1,69.1,29.7,69.1s-0.75-0.125-1.062-0.338C28.325,68.55,28.05,68.25,27.8,67.9
	c-0.25-0.4-0.45-0.85-0.587-1.338S27,65.55,27,65s0.075-1.1,0.212-1.6s0.337-0.95,0.587-1.3c0.25-0.35,0.55-0.65,0.875-0.862
	C29,61.025,29.35,60.9,29.7,60.9z"/>
<path style="fill:#939393;" d="M64.3,66.1c0-1.25-0.15-2.425-0.425-3.487S63.2,60.6,62.7,59.8s-1.1-1.45-1.763-1.9
	c-0.663-0.45-1.388-0.7-2.138-0.7s-1.475,0.25-2.138,0.7C56,58.35,55.4,59,54.9,59.8s-0.9,1.75-1.175,2.812S53.3,64.85,53.3,66.1"/>
<path style="fill:#323232;" d="M58.8,58.6c0.65,0,1.25,0.2,1.788,0.562C61.125,59.525,61.6,60.05,62,60.7s0.725,1.425,0.95,2.287
	C63.175,63.85,63.3,64.8,63.3,65.8s-0.125,1.95-0.35,2.812C62.725,69.475,62.4,70.25,62,70.9c-0.4,0.65-0.9,1.175-1.45,1.537
	C60,72.8,59.4,73,58.8,73s-1.2-0.2-1.75-0.562C56.5,72.075,56,71.55,55.6,70.9c-0.4-0.65-0.725-1.425-0.95-2.287
	C54.425,67.75,54.3,66.8,54.3,65.8s0.125-1.95,0.35-2.812c0.225-0.862,0.55-1.637,0.95-2.287c0.4-0.65,0.875-1.175,1.413-1.537
	C57.55,58.8,58.15,58.6,58.8,58.6z"/>
<path style="fill:#FFFFFF;" d="M58.8,61.6c0.35,0,0.7,0.125,1.025,0.338C60.15,62.15,60.45,62.45,60.7,62.8
	c0.25,0.4,0.45,0.85,0.587,1.337C61.425,64.625,61.5,65.15,61.5,65.7s-0.075,1.1-0.213,1.6c-0.137,0.5-0.337,0.95-0.587,1.3
	c-0.25,0.4-0.525,0.7-0.837,0.9S59.2,69.8,58.8,69.8s-0.75-0.125-1.063-0.338C57.425,69.25,57.15,68.95,56.9,68.6
	c-0.25-0.4-0.45-0.85-0.587-1.338C56.175,66.775,56.1,66.25,56.1,65.7s0.075-1.1,0.213-1.6c0.137-0.5,0.337-0.95,0.587-1.3
	c0.25-0.35,0.55-0.65,0.875-0.862C58.1,61.725,58.45,61.6,58.8,61.6z"/>
<path style="fill:#939393;" d="M75.3,66.1c0-1.25-0.15-2.425-0.425-3.487C74.6,61.55,74.2,60.6,73.7,59.8s-1.1-1.45-1.763-1.9
	c-0.662-0.45-1.387-0.7-2.137-0.7s-1.475,0.25-2.137,0.7C67,58.35,66.4,59,65.9,59.8s-0.9,1.75-1.175,2.812
	C64.45,63.675,64.3,64.85,64.3,66.1"/>
<path style="fill:#323232;" d="M69.8,58.6c0.65,0,1.25,0.2,1.787,0.562S72.6,60.05,73,60.7c0.4,0.65,0.725,1.425,0.95,2.287
	S74.3,64.8,74.3,65.8s-0.125,1.95-0.35,2.812C73.725,69.475,73.4,70.25,73,70.9c-0.4,0.65-0.9,1.175-1.45,1.537
	C71,72.8,70.4,73,69.8,73s-1.2-0.2-1.75-0.562C67.5,72.075,67,71.55,66.6,70.9c-0.4-0.65-0.725-1.425-0.95-2.287
	C65.425,67.75,65.3,66.8,65.3,65.8s0.125-1.95,0.35-2.812S66.2,61.35,66.6,60.7c0.4-0.65,0.875-1.175,1.412-1.537
	C68.55,58.8,69.15,58.6,69.8,58.6z"/>
<path style="fill:#FFFFFF;" d="M69.8,61.6c0.35,0,0.7,0.125,1.025,0.338C71.15,62.15,71.45,62.45,71.7,62.8
	c0.25,0.4,0.45,0.85,0.588,1.337C72.425,64.625,72.5,65.15,72.5,65.7s-0.075,1.1-0.213,1.6s-0.338,0.95-0.588,1.3
	c-0.25,0.4-0.525,0.7-0.838,0.9S70.2,69.8,69.8,69.8s-0.75-0.125-1.062-0.338C68.425,69.25,68.15,68.95,67.9,68.6
	c-0.25-0.4-0.45-0.85-0.588-1.338S67.1,66.25,67.1,65.7s0.075-1.1,0.213-1.6s0.338-0.95,0.588-1.3s0.55-0.65,0.875-0.862
	C69.1,61.725,69.45,61.6,69.8,61.6z"/>
<path d="M57,34.5h-1.05H54.9h-1.05H52.8v0.9v0.9v0.9v0.9h0.95h0.95h0.95h0.95V39v0.9v0.9v0.9h-0.95H54.7h-0.95H52.8v2v2v2v2h-0.55
	H51.7h-0.55H50.6V45v-4.7v-4.7v-4.7h1.6h1.6h1.6H57v0.9v0.9v0.9V34.5z"/>
<path d="M66.4,42.9c0.05,0.45,0.05,0.9,0.012,1.35c-0.037,0.45-0.112,0.9-0.212,1.35s-0.2,0.9-0.325,1.338
	C65.75,47.375,65.6,47.8,65.4,48.2s-0.475,0.75-0.8,1.038c-0.325,0.287-0.7,0.512-1.1,0.662s-0.825,0.2-1.25,0.162
	C61.825,50.025,61.4,49.9,61,49.7c-0.15-0.1-0.3-0.2-0.45-0.3c-0.15-0.1-0.3-0.2-0.45-0.3s-0.275-0.25-0.375-0.412
	S59.55,48.35,59.5,48.2c-0.2-0.4-0.375-0.825-0.513-1.263S58.75,46.05,58.7,45.6c-0.1-0.45-0.15-0.9-0.175-1.35
	C58.5,43.8,58.5,43.35,58.5,42.9v-3v-3v-3v-3h0.6h0.6h0.6h0.6v2.95v2.95v2.95v2.95c0,0.25,0,0.5,0.013,0.75S60.95,43.95,61,44.2
	s0.1,0.5,0.15,0.737c0.05,0.237,0.1,0.463,0.15,0.663c0.05,0.15,0.125,0.3,0.225,0.438c0.1,0.137,0.225,0.262,0.375,0.362
	s0.325,0.15,0.5,0.163c0.175,0.012,0.35-0.013,0.5-0.063c0.1-0.05,0.2-0.1,0.3-0.15c0.1-0.05,0.2-0.1,0.3-0.15
	s0.175-0.125,0.225-0.225S63.8,45.75,63.8,45.6c0.1-0.25,0.175-0.5,0.225-0.75c0.05-0.25,0.075-0.5,0.075-0.75
	c0.05-0.25,0.075-0.5,0.088-0.75C64.2,43.1,64.2,42.85,64.2,42.6v-2.95V36.7v-2.95V30.8h0.6h0.6H66h0.6v3v3l-0.1,3.05L66.4,42.9z"/>
<path d="M75,49.7h-1.6h-1.6h-1.6h-1.6V45v-4.7v-4.7v-4.7h1.6h1.6h1.6H75v0.9v0.9v0.9v0.9h-1.05H72.9h-1.05H70.8v0.8v0.8v0.8v0.8
	h0.95h0.95h0.95h0.95v0.9v0.9v0.9v0.9h-0.95H72.7h-0.95H70.8v1.15v1.15v1.15v1.15h1.05h1.05h1.05H75v0.9v0.9c0,0.1,0,0.6,0,1.075
	C75,49.25,75,49.7,75,49.7z"/>
<path d="M83.4,49.7h-1.6h-1.6h-1.6H77V45v-4.7v-4.7v-4.7h0.6h0.6h0.6h0.6v3.8v3.8v3.8v3.8h1.05h1.05h1.05h1.05V47v0.9v0.9v0.9h-0.1
	H83.4z"/>
</svg>
