<svg xmlns="http://www.w3.org/2000/svg" viewBox="0 0 100 100"><path d="M69.35,53.27c2.77-2.08,2.42-3.85,2.42-4.42S71.4,48,71.22,48s-2,2.72-3.19,4a11.7,11.7,0,0,1-4.65,2.7,26.31,26.31,0,0,1-5.67-.28,33,33,0,0,1-5.87-2.55,9.87,9.87,0,0,0-.07-2.29c-1.11-4-3.31-5.28-3.38-5.32s0-1.54-.11-1.54c-.73,0-.69,1.62-.69,1.62-.7,0-2.49,2-2.74,2.33s-2.48.76-2.49.93c0,1,1.5,1.48,1.73,1.48h2.66a23,23,0,0,0-1.49,7c0,2.3,4.41,5,4.64,5.22s1.22,3.46,1.32,3.73,0,3.66,0,4.05-.29.6-.75.92-.44,1.16-.18,1.16c1.5,0,1.88-.5,1.91-.66s0-.92.06-2.14a.53.53,0,0,0,.39-.51.56.56,0,0,0-.21-.42h0a7.32,7.32,0,0,0-.15-1l.15-6c2.22,0,2.66-.57,5.1-.57a11.27,11.27,0,0,1,3.6.57c0,1.64,2,2.42,2.55,2.62a16.52,16.52,0,0,1,2.54,2.11v2.86c-.51,0-1,1-.88,1h1.55v-4.8a8.67,8.67,0,0,1,1.92,1.86v3c-.89.43-1.07,1.17-.92,1.17h1.26c.76-.1.78-5.27.38-5.8a8.84,8.84,0,0,1-3.26-4,6.81,6.81,0,0,0-1.68-5C66.45,55.57,66.58,55.36,69.35,53.27Z" fill="#666"/><polygon points="79.85 21.99 19.17 34.41 19.17 78.03 79.01 78.03 79.01 72.91 24.33 72.91 24.33 38.66 80.84 27.14 79.85 21.99" fill="#646464"/></svg>