<svg xmlns="http://www.w3.org/2000/svg" viewBox="0 0 100 100"><path d="M15.59,32.57h.57a1.3,1.3,0,0,1,1.3,1.3v1a0,0,0,0,1,0,0H14.29a0,0,0,0,1,0,0v-1A1.3,1.3,0,0,1,15.59,32.57Z" fill="#fff"/><path d="M17.58,35H14.16V33.87a1.43,1.43,0,0,1,1.43-1.42h.56a1.43,1.43,0,0,1,1.43,1.42Zm-3.17-.25h2.92v-.88a1.17,1.17,0,0,0-1.18-1.17h-.56a1.17,1.17,0,0,0-1.18,1.17Z" fill="#969696"/><path d="M16.32,65.25c-5.57,0-6.05-2.2-6.05-6V47.42c0-.07,0-.13,0-.2.14-1.15,1.44-12,4-12H31.81a1.85,1.85,0,0,1,1.86,1.84V65.25Z" fill="#fff"/><path d="M34.17,65.74H16.32c-6.07,0-6.54-2.7-6.54-6.5V47.42a2.26,2.26,0,0,1,0-.26c.43-3.73,1.72-12.42,4.48-12.42H31.81a2.35,2.35,0,0,1,2.36,2.34Zm-19.9-30c-1.24,0-2.74,5-3.49,11.54a.76.76,0,0,0,0,.15V59.24c0,3.52.26,5.51,5.55,5.51H33.18V37.08a1.36,1.36,0,0,0-1.37-1.35Z" fill="#969696"/><path d="M11.77,48.19h-1.1V47.7h1.1c1.41,0,2.6-6.06,3.06-10.06H12.4v-.5h3l0,.28C14.25,47.67,12.18,48.19,11.77,48.19Z" fill="#969696"/><path d="M21.51,46.26H14.12l1.53-9.12h5.86a.94.94,0,0,1,.94.94v7.25A.94.94,0,0,1,21.51,46.26Zm-6.81-.49h6.81a.45.45,0,0,0,.45-.44V38.08a.45.45,0,0,0-.45-.44H16.07Z" fill="#969696"/><path d="M25.25,46.14H24.3a1,1,0,0,1-1-1V38.31a1,1,0,0,1,1-1h.95a1,1,0,0,1,1,1V45.1A1,1,0,0,1,25.25,46.14Zm-.95-8.63a.8.8,0,0,0-.8.8V45.1a.8.8,0,0,0,.8.79h.95a.8.8,0,0,0,.8-.79V38.31a.8.8,0,0,0-.8-.8Z" fill="#969696"/><path d="M31.18,46.14h-3a1.42,1.42,0,0,1-1.42-1.42v-6a1.41,1.41,0,0,1,1.42-1.42h3a1.41,1.41,0,0,1,1.42,1.42v6A1.42,1.42,0,0,1,31.18,46.14Zm-3-8.63A1.17,1.17,0,0,0,27,38.69v6a1.17,1.17,0,0,0,1.17,1.17h3a1.18,1.18,0,0,0,1.18-1.17v-6a1.18,1.18,0,0,0-1.18-1.18Z" fill="#969696"/><rect x="16.05" y="40.5" width="1.07" height="6.46" rx="0.51" fill="#fff"/><path d="M16.61,47.08h0a.64.64,0,0,1-.64-.64V41a.64.64,0,0,1,.64-.64h0a.64.64,0,0,1,.64.64v5.43A.64.64,0,0,1,16.61,47.08Zm0-6.46a.38.38,0,0,0-.39.39v5.43a.38.38,0,0,0,.39.39h0a.38.38,0,0,0,.39-.39V41a.38.38,0,0,0-.39-.39Z" fill="#969696"/><rect x="15.24" y="40.06" width="0.25" height="1.71" transform="matrix(0.6, -0.8, 0.8, 0.6, -26.61, 28.75)" fill="#969696"/><rect x="9.26" y="60.55" width="3.46" height="3.44" rx="0.67" fill="#fff"/><path d="M12.05,64.24H9.94A.93.93,0,0,1,9,63.32v-2.1a.93.93,0,0,1,.93-.92h2.11a.92.92,0,0,1,.92.92v2.1A.92.92,0,0,1,12.05,64.24ZM9.94,60.8a.42.42,0,0,0-.43.42v2.1a.42.42,0,0,0,.43.42h2.11a.42.42,0,0,0,.43-.42v-2.1a.42.42,0,0,0-.43-.42Z" fill="#969696"/><rect x="10.27" y="53.79" width="0.92" height="4.37" fill="#fff"/><path d="M11.31,58.29H10.15V53.67h1.16ZM10.4,58h.67V53.91H10.4Z" fill="#969696"/><rect x="10.53" y="59.28" width="22.87" height="0.49" fill="#969696"/><rect x="33.67" y="28.63" width="51.21" height="36.84" fill="#fff"/><path d="M85.38,66H33.18V28.14h52.2ZM34.17,65H84.39V29.13H34.17Z" fill="#969696"/><path d="M68.64,65.72H55.35V54.42H68.64Zm-12.79-.5H68.14V54.92H55.85Z" fill="#969696"/><path d="M19.72,64.84c0-4.52,2.54-8.19,5.67-8.19s5.67,3.67,5.67,8.19" fill="#969696"/><ellipse cx="25.39" cy="64.84" rx="4.52" ry="6.53" fill="#ccc"/><path d="M25.39,71.49c-2.56,0-4.65-3-4.65-6.65s2.09-6.65,4.65-6.65,4.64,3,4.64,6.65S28,71.49,25.39,71.49Zm0-13c-2.43,0-4.4,2.87-4.4,6.4s2,6.4,4.4,6.4,4.4-2.87,4.4-6.4S27.81,58.44,25.39,58.44Z" fill="#969696"/><ellipse cx="25.39" cy="64.84" rx="2.66" ry="3.84" fill="#fff"/><path d="M25.39,68.81c-1.54,0-2.79-1.78-2.79-4s1.25-4,2.79-4,2.79,1.78,2.79,4S26.93,68.81,25.39,68.81Zm0-7.69c-1.4,0-2.54,1.67-2.54,3.72s1.14,3.72,2.54,3.72,2.54-1.67,2.54-3.72S26.79,61.12,25.39,61.12Z" fill="#969696"/><path d="M56.32,65.25c0-5.18,2.54-8.6,5.67-8.6s5.68,3.42,5.68,8.6" fill="#969696"/><ellipse cx="61.99" cy="64.84" rx="4.52" ry="6.53" fill="#ccc"/><path d="M62,71.49c-2.56,0-4.64-3-4.64-6.65s2.08-6.65,4.64-6.65,4.65,3,4.65,6.65S64.56,71.49,62,71.49Zm0-13c-2.42,0-4.39,2.87-4.39,6.4s2,6.4,4.39,6.4,4.4-2.87,4.4-6.4S64.42,58.44,62,58.44Z" fill="#969696"/><ellipse cx="61.99" cy="64.84" rx="2.66" ry="3.84" fill="#fff"/><path d="M62,68.81c-1.53,0-2.78-1.78-2.78-4s1.25-4,2.78-4,2.79,1.78,2.79,4S63.53,68.81,62,68.81Zm0-7.69c-1.4,0-2.54,1.67-2.54,3.72s1.14,3.72,2.54,3.72,2.54-1.67,2.54-3.72S63.39,61.12,62,61.12Z" fill="#969696"/><rect x="69.23" y="30.78" width="13.73" height="32.57" fill="#ececec"/><rect x="45.16" y="30.78" width="9.63" height="32.57" fill="#ececec"/><rect x="35.05" y="30.78" width="9.63" height="32.57" fill="#ececec"/><rect x="55.6" y="30.78" width="12.79" height="19.46" fill="#ececec"/></svg>