<svg xmlns="http://www.w3.org/2000/svg" viewBox="0 0 100 100"><path d="M19.74,67.1a7.32,7.32,0,0,1-6.4-3.2c-1.5-2.14-2.24-5.26-2.24-9.38v-21h5.19V54a12.27,12.27,0,0,0,.81,5.1,2.74,2.74,0,0,0,2.64,1.68,2.77,2.77,0,0,0,2.63-1.61A11.84,11.84,0,0,0,23.21,54V33.49h5.18v21c0,4-.73,7.17-2.18,9.34A7.27,7.27,0,0,1,19.74,67.1Z" fill="#666"/><path d="M38.75,67a11.17,11.17,0,0,1-4.17-.73,16.76,16.76,0,0,1-3.33-1.82V56.65h.47a12,12,0,0,0,3.43,3.22A7,7,0,0,0,38.78,61,6,6,0,0,0,40,60.85a3,3,0,0,0,1.17-.49,3.06,3.06,0,0,0,.92-1,3.65,3.65,0,0,0,.37-1.78,3.11,3.11,0,0,0-.61-2,3.59,3.59,0,0,0-1.45-1.13c-.71-.3-1.46-.58-2.26-.84a14.14,14.14,0,0,1-2.24-1A7.92,7.92,0,0,1,32.41,49a13.81,13.81,0,0,1-1-5.71,11.07,11.07,0,0,1,2.46-7.48A7.74,7.74,0,0,1,40,32.9a11.69,11.69,0,0,1,3.67.59,12.27,12.27,0,0,1,3.26,1.62v7.52h-.45A10.78,10.78,0,0,0,43.63,40a6.18,6.18,0,0,0-3.41-1.08A4.58,4.58,0,0,0,39,39a3.94,3.94,0,0,0-1.14.6,2.91,2.91,0,0,0-.83,1,3.32,3.32,0,0,0-.36,1.56,3.25,3.25,0,0,0,.56,2,4.9,4.9,0,0,0,2.17,1.34l2,.73a13.87,13.87,0,0,1,2.06,1,7.86,7.86,0,0,1,3.19,3.33,12.34,12.34,0,0,1,1.05,5.52A12.16,12.16,0,0,1,45.29,64,8,8,0,0,1,38.75,67Z" fill="#666"/><path d="M48.14,66.42l7-32.93h5.66l7,32.93H62.41L61.12,59.7H54.63l-1.29,6.72ZM60,53.73,57.88,42.87,55.77,53.73Z" fill="#666"/><path d="M88.9,66.42H82.58L76.82,54.35H75V66.42H69.8V33.49h8.31a11.55,11.55,0,0,1,3,.35,5.24,5.24,0,0,1,2.36,1.42,8.26,8.26,0,0,1,1.76,2.87,12.75,12.75,0,0,1,.65,4.41,15,15,0,0,1-1.07,6.13A9.67,9.67,0,0,1,82,52.42ZM80.55,43.58a6.78,6.78,0,0,0-.3-2.14,2.51,2.51,0,0,0-2.07-1.8,10.18,10.18,0,0,0-1.48-.09H75v8.87h1.49a7,7,0,0,0,1.84-.21,2.41,2.41,0,0,0,1.28-.9,4,4,0,0,0,.74-1.48A8.63,8.63,0,0,0,80.55,43.58Z" fill="#666"/></svg>