<?xml version="1.0" encoding="iso-8859-1"?>
<!-- Generator: Adobe Illustrator 25.4.1, SVG Export Plug-In . SVG Version: 6.00 Build 0)  -->
<svg version="1.1" id="Layer_1" xmlns="http://www.w3.org/2000/svg" xmlns:xlink="http://www.w3.org/1999/xlink" x="0px" y="0px"
	 viewBox="0 0 100 100" style="enable-background:new 0 0 100 100;" xml:space="preserve">
<path style="fill:#666666;" d="M40.6,33.1c0,0-0.1-0.025-0.237-0.075S40.05,32.9,39.9,32.8s-0.3-0.225-0.412-0.4S39.3,32,39.3,31.7
	c0.05-0.35,0.125-0.7,0.225-1.038C39.625,30.325,39.75,30,39.9,29.7s0.3-0.625,0.462-0.95c0.163-0.325,0.338-0.65,0.538-0.95v-0.5
	v-0.5v-0.5v-0.5c0.1-0.3,0.2-0.6,0.312-0.888S41.45,24.35,41.6,24.1c0.15-0.3,0.3-0.575,0.45-0.837C42.2,23,42.35,22.75,42.5,22.5
	c0.05,0,0.1,0.05,0.15,0.113c0.05,0.062,0.1,0.137,0.15,0.187c0.05,0.1,0.075,0.175,0.1,0.225c0.025,0.05,0.05,0.075,0.1,0.075h0.5
	H44h0.5H45c0,0,0.1,0,0.312,0.05c0.213,0.05,0.537,0.15,0.987,0.35s1,0.5,1.65,0.95c0.65,0.45,1.4,1.05,2.25,1.85
	c0.9,0.8,1.7,1.575,2.463,2.3c0.763,0.725,1.487,1.4,2.237,2s1.45,1.075,2.162,1.4c0.713,0.325,1.438,0.5,2.238,0.5
	s1.475-0.075,2.062-0.2c0.588-0.125,1.088-0.3,1.537-0.5c0.45-0.15,0.9-0.325,1.375-0.462C64.75,31.2,65.25,31.1,65.8,31.1
	c0.6,0,1.3,0.125,2.037,0.362C68.575,31.7,69.35,32.05,70.1,32.5s1.45,0.975,2.025,1.575S73.15,35.35,73.4,36.1
	s0.525,1.725,0.8,2.775c0.275,1.05,0.55,2.175,0.8,3.225s0.5,2.05,0.7,2.837c0.2,0.788,0.35,1.363,0.4,1.563s0.125,0.675,0.2,1.3
	c0.075,0.625,0.15,1.4,0.2,2.2s0.05,1.65-0.025,2.45C76.4,53.25,76.25,54,76,54.6c-0.65-0.45-1.225-0.975-1.738-1.562
	C73.75,52.45,73.3,51.8,72.9,51.1c-0.35-0.7-0.65-1.425-0.862-2.175S71.7,47.4,71.7,46.6c-0.05-0.55-0.1-1.1-0.137-1.65
	c-0.037-0.55-0.062-1.1-0.062-1.65s0-1.1,0.012-1.65c0.013-0.55,0.038-1.1,0.088-1.65c-0.05,0-0.125,0-0.2,0.013
	c-0.075,0.012-0.15,0.037-0.2,0.087s-0.1,0.1-0.137,0.162C71.025,40.325,71,40.4,71,40.5s-0.05,0.4-0.125,0.812
	C70.8,41.725,70.7,42.25,70.6,42.8c-0.1,0.6-0.175,1.2-0.175,1.75c0,0.55,0.075,1.05,0.275,1.45c0.15,0.4,0.275,0.825,0.387,1.263
	C71.2,47.7,71.3,48.15,71.4,48.6s0.175,0.9,0.225,1.338C71.675,50.375,71.7,50.8,71.7,51.2c0.05,0.45,0.175,1.2,0.287,2.075
	C72.1,54.15,72.2,55.15,72.2,56.1s-0.075,1.85-0.312,2.537C71.65,59.325,71.25,59.8,70.6,59.9c-0.25,0.05-0.4-0.025-0.487-0.162
	C70.025,59.6,70,59.4,70,59.2s0.05-0.425,0.1-0.612s0.1-0.338,0.1-0.388c0.05-0.15,0.125-0.3,0.188-0.45
	c0.062-0.15,0.113-0.3,0.113-0.45s0.025-0.3,0.062-0.45s0.087-0.3,0.137-0.45c0-0.15,0-0.575-0.012-1.125
	c-0.013-0.55-0.038-1.225-0.088-1.875c-0.05-0.65-0.125-1.25-0.225-1.687C70.275,51.275,70.15,51,70,51s-0.275,0.4-0.375,1.025
	S69.45,53.5,69.4,54.4c-0.1,0.85-0.2,1.75-0.338,2.5c-0.137,0.75-0.312,1.35-0.562,1.6s-0.475,0.45-0.675,0.612
	c-0.2,0.163-0.375,0.288-0.525,0.388c-0.15,0.05-0.275,0.075-0.387,0.05C66.8,59.525,66.7,59.45,66.6,59.3
	c-0.05-0.15-0.05-0.325-0.012-0.525c0.037-0.2,0.112-0.425,0.212-0.675s0.225-0.475,0.338-0.688C67.25,57.2,67.35,57,67.4,56.8
	c0.1-0.35,0.2-0.7,0.287-1.05c0.088-0.35,0.163-0.7,0.213-1.05s0.1-0.7,0.137-1.05s0.062-0.7,0.062-1.05
	c-0.05-0.45-0.1-0.9-0.15-1.338C67.9,50.825,67.85,50.4,67.8,50s-0.15-0.825-0.275-1.25S67.25,47.9,67.1,47.5
	c-0.2-0.6-0.35-1.2-0.488-1.775C66.475,45.15,66.35,44.6,66.2,44.1s-0.325-0.9-0.525-1.175C65.475,42.65,65.25,42.5,65,42.5
	c-0.3,0-0.675,0.15-1.175,0.375C63.325,43.1,62.7,43.4,61.9,43.7c-0.8,0.3-1.75,0.6-2.875,0.825C57.9,44.75,56.6,44.9,55.1,44.9
	c-0.1,0-0.1,0.4-0.025,1.05S55.3,47.5,55.5,48.5c0.15,1,0.35,2.075,0.55,3.075s0.4,1.925,0.55,2.625s0.2,1.375,0.175,2
	c-0.025,0.625-0.125,1.2-0.275,1.7s-0.375,0.925-0.663,1.213C55.55,59.4,55.2,59.55,54.8,59.5c-0.35-0.05-0.5-0.225-0.513-0.475
	C54.275,58.775,54.4,58.45,54.6,58.1s0.4-0.775,0.537-1.225c0.138-0.45,0.213-0.925,0.163-1.375s-0.125-1.025-0.237-1.638
	C54.95,53.25,54.8,52.6,54.6,52c-0.15-0.6-0.325-1.175-0.5-1.6s-0.35-0.7-0.5-0.7s-0.2,0.325-0.2,0.825s0.05,1.175,0.1,1.875
	s0.125,1.45,0.188,2.088S53.8,55.65,53.8,55.9s-0.075,0.675-0.213,1.163C53.45,57.55,53.25,58.1,53,58.6s-0.55,0.925-0.875,1.188
	S51.45,60.15,51.1,60c-0.4-0.15-0.5-0.35-0.438-0.6s0.287-0.55,0.537-0.9s0.55-0.725,0.775-1.162C52.2,56.9,52.35,56.4,52.3,55.8
	c-0.05-0.9-0.125-1.8-0.225-2.688c-0.1-0.888-0.225-1.763-0.375-2.612c-0.15-0.9-0.3-1.775-0.462-2.65
	C51.075,46.975,50.9,46.1,50.7,45.2c-0.15-0.4-0.325-0.8-0.525-1.188S49.75,43.25,49.5,42.9s-0.45-0.7-0.6-1.025
	C48.75,41.55,48.65,41.25,48.6,41s-0.075-0.55-0.088-0.875C48.5,39.8,48.5,39.45,48.5,39.1s0-0.675-0.013-0.963
	C48.475,37.85,48.45,37.6,48.4,37.4s-0.225-0.75-0.45-1.475C47.725,35.2,47.45,34.3,47.2,33.4c-0.3-0.9-0.6-1.75-0.875-2.375
	C46.05,30.4,45.8,30,45.6,30s-0.575,0.2-1.037,0.512C44.1,30.825,43.55,31.25,43,31.7c-0.65,0.3-1.225,0.65-1.65,0.925
	C40.925,32.9,40.65,33.1,40.6,33.1z"/>
<polygon style="fill:#B3B3B3;" points="34.8,30.1 34.15,30.1 33.5,30.1 32.85,30.1 32.2,30.1 32.2,31.05 32.2,32 32.2,33 32.2,34 
	32.85,35.1 33.5,36.2 34.15,37.35 34.8,38.5 34.8,36.4 34.8,34.3 34.8,32.2 "/>
<path style="fill:#B3B3B3;" d="M34.3,43.3v4.3v4.3v4.3v4.3c0,0.2,0.025,0.4,0.062,0.588C34.4,61.275,34.45,61.45,34.5,61.6
	c0.05,0.2,0.125,0.375,0.212,0.538C34.8,62.3,34.9,62.45,35,62.6c0.35,0.55,0.65,1.275,0.9,2.05s0.45,1.6,0.6,2.35
	s0.25,1.425,0.312,1.912S36.9,69.7,36.9,69.7h7.15h7.15h7.15h7.15c0-0.3,0.1-0.975,0.325-1.825C66.05,67.025,66.4,66,66.9,65
	s1.175-1.95,2.05-2.65c0.875-0.7,1.95-1.15,3.25-1.15c1.3,0,2.325,0.5,3.125,1.263c0.8,0.763,1.375,1.787,1.775,2.838
	c0.4,1,0.65,2,0.8,2.75c0.15,0.75,0.2,1.25,0.2,1.25h2.1h2.1h2.1h2.1l0.65-2.35l0.65-2.35l0.65-2.35l0.65-2.35v-4.15V51.6v-4.15
	V43.3H75.45H61.8c0,0-6.875,0-13.75,0C41.175,43.3,34.3,43.3,34.3,43.3z M86.4,58.7H73.95H61.5H49.05H36.6v-3.1v-3.1v-3.1v-3.1
	h12.45H61.5h12.45H86.4v3.1v3.1v3.1V58.7z"/>
<path style="fill:#B3B3B3;" d="M26.8,77.6c-0.7,0-1.35-0.2-1.938-0.562C24.275,76.675,23.75,76.15,23.3,75.5
	c-0.45-0.65-0.8-1.425-1.038-2.287C22.025,72.35,21.9,71.4,21.9,70.4s0.125-1.95,0.362-2.812C22.5,66.725,22.85,65.95,23.3,65.3
	s0.975-1.175,1.562-1.537C25.45,63.4,26.1,63.2,26.8,63.2s1.35,0.2,1.938,0.562c0.587,0.363,1.112,0.888,1.562,1.537
	c0.45,0.65,0.8,1.425,1.038,2.287C31.575,68.45,31.7,69.4,31.7,70.4s-0.125,1.95-0.362,2.812C31.1,74.075,30.75,74.85,30.3,75.5
	s-0.975,1.175-1.562,1.537C28.15,77.4,27.5,77.6,26.8,77.6z M26.8,65.2c-0.35,0-0.7,0.125-1.025,0.375
	C25.45,65.825,25.15,66.2,24.9,66.7c-0.25,0.45-0.475,1-0.637,1.637C24.1,68.975,24,69.7,24,70.5s0.1,1.5,0.263,2.125
	C24.425,73.25,24.65,73.8,24.9,74.3c0.25,0.45,0.575,0.825,0.913,1.088C26.15,75.65,26.5,75.8,26.8,75.8s0.65-0.125,0.987-0.375
	c0.338-0.25,0.663-0.625,0.913-1.125c0.25-0.45,0.475-1,0.637-1.637C29.5,72.025,29.6,71.3,29.6,70.5c0-0.75-0.1-1.45-0.263-2.088
	C29.175,67.775,28.95,67.2,28.7,66.7c-0.25-0.5-0.55-0.875-0.875-1.125C27.5,65.325,27.15,65.2,26.8,65.2z"/>
<path style="fill:#B3B3B3;" d="M71.7,77.6c-0.7,0-1.35-0.2-1.938-0.562C69.175,76.675,68.65,76.15,68.2,75.5
	c-0.45-0.65-0.8-1.425-1.037-2.287C66.925,72.35,66.8,71.4,66.8,70.4s0.125-1.95,0.363-2.812C67.4,66.725,67.75,65.95,68.2,65.3
	c0.45-0.65,0.975-1.175,1.562-1.537C70.35,63.4,71,63.2,71.7,63.2s1.35,0.2,1.938,0.562c0.588,0.363,1.113,0.888,1.562,1.537
	c0.45,0.65,0.8,1.425,1.037,2.287C76.475,68.45,76.6,69.4,76.6,70.4s-0.125,1.95-0.363,2.812C76,74.075,75.65,74.85,75.2,75.5
	c-0.5,0.65-1.05,1.175-1.637,1.537C72.975,77.4,72.35,77.6,71.7,77.6z M71.7,65.2c-0.35,0-0.7,0.125-1.025,0.375
	C70.35,65.825,70.05,66.2,69.8,66.7c-0.3,0.45-0.525,1-0.675,1.637C68.975,68.975,68.9,69.7,68.9,70.5c0,0.75,0.1,1.45,0.262,2.088
	C69.325,73.225,69.55,73.8,69.8,74.3c0.25,0.45,0.575,0.825,0.912,1.088C71.05,75.65,71.4,75.8,71.7,75.8
	c0.35,0,0.7-0.125,1.025-0.375C73.05,75.175,73.35,74.8,73.6,74.3c0.25-0.45,0.475-1,0.638-1.637C74.4,72.025,74.5,71.3,74.5,70.5
	c0-0.75-0.1-1.45-0.262-2.088C74.075,67.775,73.85,67.2,73.6,66.7s-0.575-0.875-0.912-1.125S72,65.2,71.7,65.2z"/>
<path style="fill:#B3B3B3;" d="M34.7,66.2c-0.05-0.35-0.125-0.675-0.225-1c-0.1-0.325-0.225-0.65-0.375-1
	c-0.15-0.3-0.3-0.6-0.462-0.9C33.475,63,33.3,62.7,33.1,62.4c-0.05-0.1-0.1-0.175-0.15-0.25c-0.05-0.075-0.1-0.15-0.15-0.25
	s-0.075-0.2-0.087-0.3C32.7,61.5,32.7,61.4,32.7,61.3v-5.9v-5.9v-5.9v-5.9h-0.45H31.8h-0.45H30.9v-1v-1v-1v-1h-3.75H23.4h-3.7H16
	l-1.3,3.95l-1.3,3.95l-1.3,3.95l-1.3,3.95v3.35v3.35v3.35v3.35c0,0,0.1-0.025,0.262-0.037S11.45,62.85,11.7,62.9
	c0.2,0.05,0.425,0.125,0.6,0.275c0.175,0.15,0.3,0.375,0.3,0.725s-0.1,0.6-0.262,0.763C12.175,64.825,11.95,64.9,11.7,64.9
	c-0.2,0.05-0.425,0.05-0.6,0.037c-0.175-0.012-0.3-0.037-0.3-0.037v1.05V67v1.15v1.15h2.4h2.4H18h2.4c0,0,0.1-0.325,0.275-0.838
	S21.1,67.25,21.4,66.5c0.35-0.75,0.75-1.575,1.212-2.325c0.463-0.75,0.987-1.425,1.587-1.875c0.5-0.4,1.075-0.675,1.675-0.825
	c0.6-0.15,1.225-0.175,1.825-0.075s1.175,0.25,1.7,0.462s1,0.488,1.4,0.838s0.775,0.9,1.125,1.575
	C32.275,64.95,32.6,65.75,32.9,66.6s0.525,1.75,0.675,2.625S33.8,70.95,33.8,71.7h0.4h0.4H35h0.4c0-0.45-0.025-0.925-0.075-1.4
	c-0.05-0.475-0.125-0.95-0.225-1.4c0-0.45-0.05-0.9-0.125-1.35C34.9,67.1,34.8,66.65,34.7,66.2z M18.4,48.2h-0.85H16.7h-0.85H15
	l0.5-2.45L16,43.3l0.5-2.45L17,38.4h0.35h0.35h0.35h0.35v2.45v2.45c0,0,0,1.225,0,2.45S18.4,48.2,18.4,48.2z M26.5,48.2h-1.55H23.4
	h-1.55H20.3v-2.45V43.3v-2.45V38.4h1.55h1.55h1.55h1.55v2.45v2.45v2.45V48.2z"/>
</svg>
