<svg xmlns="http://www.w3.org/2000/svg" viewBox="0 0 100 100"><path d="M18.55,29.43h.13A1.54,1.54,0,0,1,20.22,31v1.66a0,0,0,0,1,0,0H17a0,0,0,0,1,0,0V31A1.54,1.54,0,0,1,18.55,29.43Z" fill="#fff"/><path d="M20.35,32.76H16.89V31a1.66,1.66,0,0,1,1.66-1.66h.13A1.66,1.66,0,0,1,20.35,31Zm-3.21-.25h3V31a1.42,1.42,0,0,0-1.42-1.41h-.13A1.41,1.41,0,0,0,17.14,31Z" fill="#969696"/><rect x="36.67" y="36.34" width="7.43" height="27.3" fill="#fff"/><path d="M44.23,63.76H36.55V36.21h7.68Zm-7.43-.25H44v-27H36.8Z" fill="#969696"/><path d="M85.31,40.77h0a2.78,2.78,0,0,1,2.78,2.78v20.1a0,0,0,0,1,0,0H85.31a0,0,0,0,1,0,0V40.77A0,0,0,0,1,85.31,40.77Z" fill="#fff"/><path d="M88.21,63.76h-3V40.64h.13a2.9,2.9,0,0,1,2.9,2.9Zm-2.78-.25H88v-20a2.64,2.64,0,0,0-2.53-2.64Z" fill="#969696"/><path d="M34.79,63.64H19.08c-5.66,0-6.14-2.24-6.14-6.14V45.44a1.34,1.34,0,0,1,0-.2C13.08,44.07,14.41,33,17,33h17.8a1.89,1.89,0,0,1,1.88,1.89V61.75A1.88,1.88,0,0,1,34.79,63.64Z" fill="#fff"/><path d="M34.79,64.29H19.08c-6.3,0-6.79-2.81-6.79-6.79V45.44a2.62,2.62,0,0,1,0-.28c.55-4.78,1.89-12.81,4.69-12.81h17.8a2.54,2.54,0,0,1,2.53,2.54V61.75A2.54,2.54,0,0,1,34.79,64.29ZM17,33.65c-1.14,0-2.66,5.23-3.39,11.66a.57.57,0,0,0,0,.13V57.5c0,3.61.24,5.49,5.49,5.49H34.79A1.23,1.23,0,0,0,36,61.75V34.89a1.24,1.24,0,0,0-1.23-1.24Z" fill="#969696"/><path d="M44.11,31.66h38a3.57,3.57,0,0,1,3.57,3.57V63.64a0,0,0,0,1,0,0H44.11a0,0,0,0,1,0,0v-32A0,0,0,0,1,44.11,31.66Z" fill="#fff"/><path d="M86.37,64.29H43.45V31h38.7a4.22,4.22,0,0,1,4.22,4.22ZM44.76,63H85.07V35.23a2.92,2.92,0,0,0-2.92-2.92H44.76Z" fill="#969696"/><path d="M58,62.18H44.8V33H58Zm-12.84-.4H57.64V33.39H45.2Z" fill="#d5d5d5"/><path d="M84.57,62.18H72.41V33h9.75a2.41,2.41,0,0,1,2.41,2.41Zm-11.76-.4H84.17V35.4a2,2,0,0,0-2-2H72.81Z" fill="#d5d5d5"/><path d="M71.85,51H58.61V33H71.85ZM59,50.61H71.45V33.39H59Z" fill="#d5d5d5"/><polygon points="71.85 63 71.45 63 71.45 53.37 59.01 53.37 59.01 63 58.61 63 58.61 52.97 71.85 52.97 71.85 63" fill="#d5d5d5"/><path d="M14.46,46.1H12.83v-.25h1.63c1.71,0,2.9-7.46,3.24-10.52H15.09v-.25H18l0,.14s-.29,2.73-.85,5.39C16.34,44.25,15.45,46.1,14.46,46.1Z" fill="#969696"/><path d="M24.34,44.13H17l1.51-9.05h5.84a.82.82,0,0,1,.82.82v7.4A.83.83,0,0,1,24.34,44.13Zm-7.06-.25h7.06a.57.57,0,0,0,.57-.58V35.9a.57.57,0,0,0-.57-.57H18.71Z" fill="#969696"/><path d="M28.13,44.13h-1a1.05,1.05,0,0,1-1.05-1.06V36.14a1.05,1.05,0,0,1,1.05-1.06h1a1.06,1.06,0,0,1,1.06,1.06v6.93A1.06,1.06,0,0,1,28.13,44.13Zm-1-8.8a.8.8,0,0,0-.8.81v6.93a.8.8,0,0,0,.8.81h1a.81.81,0,0,0,.81-.81V36.14a.81.81,0,0,0-.81-.81Z" fill="#969696"/><path d="M34.14,44.13h-3a1.45,1.45,0,0,1-1.44-1.44V36.52a1.45,1.45,0,0,1,1.44-1.44h3a1.44,1.44,0,0,1,1.44,1.44v6.17A1.44,1.44,0,0,1,34.14,44.13Zm-3-8.8a1.19,1.19,0,0,0-1.19,1.19v6.17a1.19,1.19,0,0,0,1.19,1.19h3a1.19,1.19,0,0,0,1.19-1.19V36.52a1.19,1.19,0,0,0-1.19-1.19Z" fill="#969696"/><rect x="18.8" y="38.37" width="1.09" height="6.6" rx="0.54" fill="#fff"/><path d="M19.35,45.09a.67.67,0,0,1-.67-.67v-5.5a.67.67,0,0,1,1.34,0v5.5A.67.67,0,0,1,19.35,45.09Zm0-6.59a.42.42,0,0,0-.42.42v5.5a.42.42,0,1,0,.84,0v-5.5A.42.42,0,0,0,19.35,38.5Z" fill="#969696"/><polygon points="18.73 39.43 17.34 38.38 17.49 38.18 18.88 39.23 18.73 39.43" fill="#969696"/><rect x="32.64" y="62.99" width="14.32" height="1.3" fill="#969696"/><rect x="11.91" y="58.85" width="3.51" height="3.51" rx="0.69" fill="#fff"/><path d="M14.74,62.48H12.6a.81.81,0,0,1-.81-.81V59.53a.81.81,0,0,1,.81-.81h2.14a.81.81,0,0,1,.81.81v2.14A.81.81,0,0,1,14.74,62.48ZM12.6,59a.56.56,0,0,0-.56.56v2.14a.56.56,0,0,0,.56.56h2.14a.56.56,0,0,0,.56-.56V59.53a.56.56,0,0,0-.56-.56Z" fill="#969696"/><rect x="12.94" y="51.94" width="0.93" height="4.47" fill="#fff"/><path d="M14,56.53H12.81V51.82H14Zm-.93-.25h.68V52.07h-.68Z" fill="#969696"/><rect x="36.67" y="60.28" width="7.43" height="3.36" fill="#969696"/><rect x="36.67" y="44.39" width="7.43" height="0.5" fill="#969696"/><rect x="12.94" y="57.55" width="23.73" height="0.5" fill="#969696"/><path d="M33.94,63.64c0-4.73-2.56-8.56-5.71-8.56s-5.71,3.83-5.71,8.56" fill="#969696"/><ellipse cx="28.23" cy="63.64" rx="4.62" ry="6.93" fill="#b3b3b3"/><path d="M28.23,70.69c-2.62,0-4.75-3.16-4.75-7s2.13-7,4.75-7,4.75,3.16,4.75,7S30.85,70.69,28.23,70.69Zm0-13.85c-2.48,0-4.5,3-4.5,6.8s2,6.8,4.5,6.8,4.5-3,4.5-6.8S30.71,56.84,28.23,56.84Z" fill="#969696"/><ellipse cx="28.23" cy="63.64" rx="2.43" ry="3.64" fill="#fff"/><path d="M28.23,67.41c-1.41,0-2.55-1.69-2.55-3.77s1.14-3.77,2.55-3.77,2.55,1.69,2.55,3.77S29.64,67.41,28.23,67.41Zm0-7.29c-1.27,0-2.3,1.58-2.3,3.52s1,3.52,2.3,3.52,2.3-1.58,2.3-3.52S29.5,60.12,28.23,60.12Z" fill="#969696"/><path d="M70.93,63.64c0-4.73-2.55-8.56-5.71-8.56s-5.71,3.83-5.71,8.56" fill="#969696"/><ellipse cx="65.22" cy="63.64" rx="4.62" ry="6.93" fill="#b3b3b3"/><path d="M65.22,70.69c-2.61,0-4.74-3.16-4.74-7s2.13-7,4.74-7,4.75,3.16,4.75,7S67.84,70.69,65.22,70.69Zm0-13.85c-2.48,0-4.49,3-4.49,6.8s2,6.8,4.49,6.8,4.5-3,4.5-6.8S67.7,56.84,65.22,56.84Z" fill="#969696"/><ellipse cx="65.22" cy="63.64" rx="2.43" ry="3.64" fill="#fff"/><path d="M65.22,67.41c-1.41,0-2.55-1.69-2.55-3.77s1.14-3.77,2.55-3.77,2.56,1.69,2.56,3.77S66.63,67.41,65.22,67.41Zm0-7.29c-1.27,0-2.3,1.58-2.3,3.52s1,3.52,2.3,3.52,2.31-1.58,2.31-3.52S66.49,60.12,65.22,60.12Z" fill="#969696"/></svg>