<?xml version="1.0" encoding="iso-8859-1"?>
<!-- Generator: Adobe Illustrator 25.4.1, SVG Export Plug-In . SVG Version: 6.00 Build 0)  -->
<svg version="1.1" id="Layer_1" xmlns="http://www.w3.org/2000/svg" xmlns:xlink="http://www.w3.org/1999/xlink" x="0px" y="0px"
	 viewBox="0 0 100 100" style="enable-background:new 0 0 100 100;" xml:space="preserve">
<path style="fill:#424242;" d="M39.9,24.7h0.55H41h0.6h0.6V29v4.3v4.3v4.3h-0.35H41.5h-0.35H40.8v-3.55V34.8v-3.55V27.7
	c0-0.2,0-0.375,0-0.55c0-0.175,0-0.35,0-0.55s0-0.375,0-0.55c0-0.175,0-0.35,0-0.55l0,0l0,0l0,0l0,0
	c-0.05,0.25-0.075,0.475-0.1,0.688C40.675,26.4,40.65,26.6,40.6,26.8c-0.05,0.2-0.075,0.375-0.1,0.538s-0.05,0.312-0.1,0.462
	l-0.65,3.5l-0.65,3.5l-0.65,3.5l-0.65,3.5h-0.4H37h-0.4h-0.4l-0.65-3.55L34.9,34.7l-0.65-3.55L33.6,27.6
	c-0.05-0.15-0.075-0.3-0.1-0.45c-0.025-0.15-0.05-0.3-0.1-0.45s-0.075-0.325-0.1-0.525c-0.025-0.2-0.05-0.425-0.1-0.675l0,0l0,0l0,0
	l0,0c0,0.2,0,0.375,0,0.55c0,0.175,0,0.35,0,0.55s0,0.375,0,0.55c0,0.175,0,0.35,0,0.55v3.55v3.55v3.55v3.55h-0.35H32.5h-0.35H31.8
	v-4.3v-4.3V29v-4.3h0.6H33h0.6h0.6l0.6,3.35l0.6,3.35l0.6,3.35l0.6,3.35c0.05,0.2,0.075,0.4,0.1,0.612
	c0.025,0.213,0.05,0.438,0.1,0.688c0,0.2,0.025,0.425,0.05,0.65s0.05,0.45,0.05,0.65l0,0l0,0l0,0l0,0c0-0.2,0.025-0.425,0.05-0.65
	C36.975,39.825,37,39.6,37,39.4c0-0.2,0.025-0.425,0.062-0.65S37.15,38.3,37.2,38.1l0.6-3.35l0.6-3.35l0.75-3.35L39.9,24.7z"/>
<path style="fill:#424242;" d="M48.4,24.3c0.9,0,1.575,0.3,2.1,0.8c0.525,0.5,0.9,1.2,1.2,2c0.25,0.85,0.4,1.8,0.487,2.788
	C52.275,30.875,52.3,31.9,52.3,32.9c0,1.2-0.025,2.375-0.125,3.475c-0.1,1.1-0.275,2.125-0.575,3.025
	c-0.3,0.9-0.7,1.625-1.237,2.125c-0.537,0.5-1.212,0.775-2.062,0.775s-1.55-0.3-2.1-0.812S45.25,40.25,45,39.4
	s-0.425-1.875-0.537-2.987C44.35,35.3,44.3,34.1,44.3,32.9c0-1,0.05-2.025,0.163-3.013C44.575,28.9,44.75,27.95,45,27.1
	s0.65-1.55,1.213-2.037C46.775,24.575,47.5,24.3,48.4,24.3z M48.3,26c-0.5,0-0.925,0.2-1.275,0.55C46.675,26.9,46.4,27.4,46.2,28
	c-0.2,0.65-0.325,1.4-0.4,2.225c-0.075,0.825-0.1,1.725-0.1,2.675c0,1.25,0.025,2.35,0.1,3.3s0.2,1.75,0.4,2.4
	s0.45,1.125,0.788,1.438C47.325,40.35,47.75,40.5,48.3,40.5s0.975-0.175,1.312-0.5c0.337-0.325,0.587-0.8,0.787-1.4
	c0.2-0.65,0.325-1.45,0.4-2.4s0.1-2.05,0.1-3.3c0-0.95-0.025-1.875-0.1-2.712S50.6,28.6,50.4,28s-0.45-1.1-0.787-1.45
	C49.275,26.2,48.85,26,48.3,26z"/>
<path style="fill:#424242;" d="M54.5,41.9v-4.3v-4.3V29v-4.3h0.85h0.85h0.9H58c0.55,0,1,0.1,1.375,0.288S60.05,25.45,60.3,25.8
	s0.425,0.825,0.538,1.375C60.95,27.725,61,28.35,61,29c0,0.5-0.025,0.925-0.088,1.312S60.75,31.05,60.6,31.4
	c-0.15,0.3-0.325,0.575-0.55,0.813c-0.225,0.237-0.5,0.438-0.85,0.587l0,0l0,0l0,0l0,0c0.4,0.05,0.725,0.2,0.987,0.425
	S60.65,33.75,60.8,34.1s0.25,0.75,0.325,1.2s0.125,0.95,0.175,1.5c0,0.85-0.075,1.6-0.225,2.25c-0.15,0.65-0.375,1.2-0.675,1.65
	c-0.3,0.45-0.675,0.775-1.125,0.975c-0.45,0.2-0.975,0.275-1.575,0.225h-0.8h-0.8h-0.8H54.5z M55.9,32.1h0.3h0.3h0.25H57
	c0.4,0.05,0.775,0.05,1.1-0.013c0.325-0.062,0.6-0.188,0.8-0.387s0.375-0.5,0.5-0.913s0.2-0.938,0.2-1.587c0-0.55-0.025-1-0.1-1.362
	C59.425,27.475,59.3,27.2,59.1,27s-0.45-0.35-0.775-0.438S57.6,26.45,57.1,26.5h-0.3h-0.3h-0.3h-0.3v1.4v1.4c0,0,0,0.7,0,1.4
	C55.9,31.4,55.9,32.1,55.9,32.1z M58,40.2c0.35,0,0.65-0.05,0.9-0.175s0.45-0.325,0.6-0.625c0.15-0.25,0.275-0.575,0.362-0.987
	C59.95,38,60,37.5,60,36.9c0-0.85-0.1-1.475-0.263-1.938S59.35,34.2,59.1,34c-0.3-0.2-0.625-0.275-0.962-0.3
	c-0.338-0.025-0.688,0-1.038,0h-0.3h-0.3h-0.3h-0.3v1.65V37v1.6v1.6h0.5h0.5h0.55H58z"/>
<path style="fill:#424242;" d="M63.7,41.9v-4.3v-4.3V29v-4.3h0.35h0.35h0.35h0.35V29v4.3v4.3v4.3h-0.35H64.4h-0.35H63.7z"/>
<path style="fill:#424242;" d="M68,41.9v-4.3v-4.3V29v-4.3h0.35h0.35h0.35h0.35v3.9v3.9v3.9v3.9h1.25h1.25h1.2h1.2v0.45v0.45v0.45
	v0.45h-1.55H71.2c-0.05-0.1-0.85-0.15-1.637-0.175S68,41.9,68,41.9z"/>
<path style="fill:#424242;" d="M75.8,41.9v-4.3v-4.3V29v-4.3h1.5h1.5h1.5h1.5v0.45v0.45v0.45v0.45h-1.15H79.5h-1.15H77.2v1.45v1.45
	v1.4v1.4h1.1h1.1h1.1h1.1v0.4V33v0.45v0.45h-1.1h-1.1h-1.1h-1.1v1.55V37v1.6v1.6h1.2h1.2h1.2H82v0.45v0.45v0.45V42h-1.5H79h-1.6
	h-1.6v-0.05V41.9z"/>
<path style="fill:#424242;" d="M32.2,68.9v-4.3v-4.3V56v-4.3h0.35h0.35h0.35h0.35v2.15V56v2.2v2.2l0,0l0,0l0,0l0,0l1.1-2.2l1.1-2.2
	l1.1-2.2l1.1-2.2h0.4h0.4h0.4h0.4l-0.95,1.8l-0.95,1.8L36.75,57l-0.95,1.8l1,2.5l1,2.5l1,2.5l1,2.5h-0.4H39h-0.4h-0.4l-0.8-2.05
	l-0.8-2.05l-0.8-2.05L35,60.6l-0.3,0.6l-0.3,0.6l-0.3,0.6L33.8,63v1.5V66v1.5V69h-0.35H33.1l-0.45-0.05L32.2,68.9z"/>
<path style="fill:#424242;" d="M41.4,68.9v-4.3v-4.3V56v-4.3h0.35h0.35h0.35h0.35V56v4.3v4.3v4.3h-0.35H42.1h-0.35H41.4z"/>
<path style="fill:#424242;" d="M44.6,51.6h1.9h1.9h1.9h1.9v0.45v0.45v0.45v0.45h-0.8h-0.8h-0.8H49v3.9v3.9v3.9V69h-0.35H48.3h-0.35
	H47.6v-3.9v-3.9v-3.9v-3.9h-0.8H46h-0.8h-0.8v-0.45V52.5v-0.45V51.6h0.1H44.6z"/>
<path style="fill:#424242;" d="M59.1,56.8c0-0.5-0.025-1-0.1-1.463c-0.075-0.462-0.2-0.888-0.4-1.237
	c-0.15-0.35-0.375-0.625-0.662-0.812C57.65,53.1,57.3,53,56.9,53c-0.6,0-1.025,0.3-1.338,0.775C55.25,54.25,55.05,54.9,54.9,55.6
	c-0.15,0.75-0.225,1.55-0.263,2.312C54.6,58.675,54.6,59.4,54.6,60c0,0.55,0,1.3,0.037,2.125C54.675,62.95,54.75,63.85,54.9,64.7
	c0.15,0.8,0.375,1.525,0.713,2.05C55.95,67.275,56.4,67.6,57,67.6c0.4,0,0.725-0.125,0.987-0.338C58.25,67.05,58.45,66.75,58.6,66.4
	s0.25-0.75,0.325-1.188S59.05,64.3,59.1,63.8c0-0.1,0-0.2,0-0.3c0-0.1,0-0.2,0-0.3s0-0.2,0.013-0.3c0.012-0.1,0.037-0.2,0.087-0.3
	h0.35h0.35h0.35h0.35c0,0.1,0,0.175,0,0.25s0,0.15,0,0.25s0,0.2-0.013,0.288C60.575,63.475,60.55,63.55,60.5,63.6
	c0,0.3,0,0.625-0.025,0.95C60.45,64.875,60.4,65.2,60.3,65.5s-0.175,0.6-0.263,0.9C59.95,66.7,59.85,67,59.7,67.3
	c-0.1,0.3-0.25,0.55-0.425,0.775C59.1,68.3,58.9,68.5,58.7,68.7c-0.25,0.15-0.5,0.275-0.763,0.375S57.4,69.25,57.1,69.3
	c-0.95,0-1.65-0.325-2.175-0.875C54.4,67.875,54.05,67.1,53.8,66.2c-0.25-0.9-0.375-1.925-0.438-2.987
	C53.3,62.15,53.3,61.05,53.3,60c0-0.95,0.025-1.975,0.112-2.975c0.088-1,0.237-1.975,0.487-2.825s0.625-1.575,1.15-2.088
	c0.525-0.513,1.2-0.812,2.05-0.812c0.55,0,1.05,0.15,1.487,0.425S59.4,52.4,59.7,52.9s0.525,1.1,0.662,1.763
	C60.5,55.325,60.55,56.05,60.5,56.8h-0.35H59.8l-0.35,0L59.1,56.8z"/>
<path style="fill:#424242;" d="M62.5,68.9v-4.3v-4.3V56v-4.3h0.35h0.35h0.35h0.35v1.8v1.8v1.8v1.8h1.15h1.15h1.15h1.15v-1.8v-1.8
	v-1.8v-1.8h0.35h0.35h0.35h0.35V56v4.3v4.3v4.3h-0.35H69.2h-0.35H68.5v-2.05V64.8v-2.05V60.7h-1.15H66.2h-1.15H63.9v2.1v2.1V67v2.1
	h-0.35H63.2L62.85,69L62.5,68.9z"/>
<path style="fill:#424242;" d="M72.3,68.9v-4.3v-4.3V56v-4.3h1.5h1.5h1.5h1.5v0.45v0.45v0.45v0.45h-1.15H76h-1.15H73.7v1.45v1.45
	v1.3V59h1.1h1.1h1.05H78v0.45v0.45v0.45v0.45h-1.1h-1.1h-1.1h-1.1v1.6V64v1.6v1.6h1.2H76h1.15h1.15v0.4V68v0.45v0.45h-1.5h-1.5h-1.5
	H72.3z"/>
<path style="fill:#424242;" d="M86.4,51.6h0.3H87h0.35h0.35v4.3v4.3v4.3v4.3h-0.55H86.6h-0.55H85.5l-0.85-3.4L83.8,62l-0.85-3.45
	L82.1,55.1c-0.05-0.2-0.1-0.425-0.15-0.65c-0.05-0.225-0.1-0.45-0.15-0.65s-0.075-0.425-0.1-0.65c-0.025-0.225-0.05-0.45-0.1-0.65
	l0,0l0,0l0,0l0,0c0,0.2,0,0.425,0,0.65s0,0.45,0,0.65s0,0.425,0,0.65c0,0.225,0,0.45,0,0.65v3.45V62v3.45v3.45h-0.3H81h-0.35H80.3
	v-4.3v-4.3V56v-4.3h0.55h0.55h0.55h0.55l0.85,3.55l0.85,3.55l0.85,3.55l0.85,3.55c0.05,0.15,0.075,0.275,0.1,0.4s0.05,0.25,0.1,0.4
	s0.075,0.3,0.1,0.475c0.025,0.175,0.05,0.375,0.1,0.625l0,0l0,0l0,0l0,0c0-0.15,0-0.3,0-0.463s0-0.338,0-0.537c0-0.15,0-0.325,0-0.5
	s0-0.35,0-0.5v-3.5v-3.5l0.05-3.6L86.4,51.6L86.4,51.6L86.4,51.6z"/>
<path style="fill:#424242;" d="M19.7,25.8v3.1V32v3.1v3.1h-0.3h-0.3h-0.3h-0.3v-3.1V32v-3.1v-3.1h-0.35H17.8h-0.35H17.1v3.1V32v3.1
	v3.1h-0.25H16.6h-0.25H16.1v-3.1V32v-3.1v-3.1h-0.35H15.4h-0.35H14.7v3.1V32v3.1v3.1h-0.3h-0.3h-0.3h-0.3v-3.1V32v-3.1v-3.1h-0.25
	H13h-0.35H12.3v4.25v4.25v4.25v4.25c0,0.35,0.05,0.7,0.15,1.025c0.1,0.325,0.25,0.625,0.45,0.875s0.45,0.5,0.738,0.713
	C13.925,45.625,14.25,45.8,14.6,45.9v7.35v7.35v7.35v7.35h1.05h1.05h1.05h1.05v-7.35V60.6v-7.35V45.9
	c0.35-0.1,0.675-0.25,0.962-0.45C20.05,45.25,20.3,45,20.5,44.7c0.2-0.25,0.35-0.55,0.45-0.875S21.1,43.15,21.1,42.8v-4.25V34.3
	v-4.25V25.8h-0.35H20.4h-0.35H19.7z"/>
<path style="fill:#424242;" d="M25.6,23.6c-0.4,0-0.8,0.075-1.163,0.225C24.075,23.975,23.75,24.2,23.5,24.5
	c-0.25,0.25-0.475,0.575-0.638,0.938C22.7,25.8,22.6,26.2,22.6,26.6v7.45v7.45v7.45v7.45h0.6h0.6h0.6H25V61v4.6v4.6v4.6
	c0,0.25,0.05,0.475,0.138,0.688C25.225,75.7,25.35,75.9,25.5,76.1s0.35,0.325,0.575,0.4s0.475,0.1,0.725,0.1s0.475-0.05,0.688-0.137
	S27.9,76.25,28.1,76.1c0.15-0.15,0.275-0.35,0.362-0.575C28.55,75.3,28.6,75.05,28.6,74.8v-12v-12v-12v-12
	c0-0.4-0.075-0.8-0.225-1.163C28.225,25.275,28,24.95,27.7,24.7s-0.625-0.525-0.975-0.737C26.375,23.75,26,23.6,25.6,23.6z"/>
</svg>
