<svg xmlns="http://www.w3.org/2000/svg" viewBox="0 0 100 100"><polygon points="41.71 33.42 32.95 33.42 32.95 24.54 25.91 24.54 25.91 33.42 17.18 33.42 17.18 39.74 25.91 39.74 25.91 48.62 32.95 48.62 32.95 39.74 41.71 39.74 41.71 33.42" fill="#b2b2b2" stroke="#646464" stroke-miterlimit="10" stroke-width="0.5"/><path d="M57.63,67.92c-.16,0-2.67-2.72-3.35-2.72s-4.92-1.44-4.92-2.2,4.92-2.59,5.28-2.83.48-2,.48-2.08-7.64-4.32-7.68-5.6c0-.4,8.55.28,9,.24s1.56-.92,1.48-1.28-6.55-5.39-6.31-7.11c.16-.56,4.95,1.92,5.15,1.48a8.77,8.77,0,0,0-.48-3.2c-.2-.4,0-2,.68-2.2S58.83,40.14,59,39s.24-2.56.72-3,1.52-1.48,1.48-1.88a26.07,26.07,0,0,0-.8-3.91c-.24-.36,1.92-.6,2.2-1.08S64.39,24,65,24,68,33.5,68,34.66c.12.52,5,1,5,1.92a60.69,60.69,0,0,1-1.8,7c-.2.64,2.24,1.44,2.76,1s1-.8,1.2-.72,1.32,1.24.68,3.47c-.28.76-1.08,1.16-1.08,1.56s.32,2,1.48,2h2.64s.24,3.16-3.68,4.16c-.72.36.2,2.72,1.28,2.72s6.28-.2,6.36.88-2.52,4.83-6,6.79a11.29,11.29,0,0,1-3.56,1l-3.36.14c-.24,0-1.47,1.26-2.07,1.26S65.47,67,64.79,67H60.08C59.74,67,58.5,67.92,57.63,67.92Z" fill="#b2b2b2"/><path d="M65.13,68.42c-.33.09-.48,7.55,0,7.55s.57-.51.87-.51.47.51.85.51,0-6.68,0-6.91S65.46,68.33,65.13,68.42Z" fill="#b2b2b2"/></svg>