<svg xmlns="http://www.w3.org/2000/svg" viewBox="0 0 100 100"><path d="M76.66,27.49c.1-.41-6.62-6.88-6.8-6.94s-19.86,0-19.86,0-19.68-.06-19.86,0-6.9,6.53-6.8,6.94c.34.14,3.05,5.35,3.75,7.92,2.63,13-1.81,17.07-1.88,25.4s15.15,14.1,18.3,16a42.22,42.22,0,0,1,6.49,5,42.22,42.22,0,0,1,6.49-5c3.15-1.87,18.37-7.64,18.3-16s-4.51-12.43-1.88-25.4C73.61,32.84,76.32,27.63,76.66,27.49Z" fill="#848584"/><polygon points="50 21.62 26.93 63.66 50 63.66 73.07 63.66 50 21.62" fill="#fff"/><path d="M61.15,54.36a38.59,38.59,0,0,0-8.74-4.23c0-.06,0-.12,0-.19a2.42,2.42,0,0,0-1.33-2.16A38.52,38.52,0,0,0,52,38.12C52,28.89,50.36,27,50,27s-2,1.9-2,11.13a38.52,38.52,0,0,0,.92,9.66,2.42,2.42,0,0,0-1.33,2.16c0,.06,0,.12,0,.18a38.26,38.26,0,0,0-8.78,4.24c-7.89,4.79-8.65,7.19-8.46,7.5S33,62.6,40.9,57.8A38.56,38.56,0,0,0,48.7,52a2.39,2.39,0,0,0,1.3.38A2.43,2.43,0,0,0,51.28,52a38.23,38.23,0,0,0,7.78,5.81c7.88,4.8,10.36,4.37,10.55,4.06S69,59.15,61.15,54.36Z" fill="#333"/></svg>