<?xml version="1.0" encoding="utf-8"?>
<!-- Generator: Adobe Illustrator 25.2.3, SVG Export Plug-In . SVG Version: 6.00 Build 0)  -->
<svg version="1.1" id="Layer_1" xmlns="http://www.w3.org/2000/svg" xmlns:xlink="http://www.w3.org/1999/xlink" x="0px" y="0px"
	 viewBox="0 0 100 100" style="enable-background:new 0 0 100 100;" xml:space="preserve">
<style type="text/css">
	.st0{fill:#B2B2B2;}
</style>
<g id="Layer_2_1_">
	<g id="Layer_2-2">
		<path class="st0" d="M79.2,61.2h0.3h0.3c0.5,0,0.8-0.9,1.1-1.8c0.3-0.9,0.4-1.8,0.4-1.8V45.9V34.2l0.5-0.4l0.5-0.4
			c0.5-0.4,0.7-1.6,0.6-2.5c-0.1-0.9-0.6-1.7-1.6-1.3c-0.5,0.1-1.3,0.8-1.9,1.6c-0.6,0.8-1.2,1.7-1.2,2.3v1.7v1.7h-1.8h-1.8V33v-3.8
			h1h1v-2.7v-2.7H65.9H55.1L55,30.5L54.9,37c0,0-2.7,0-5.8-0.1c-3.2,0-6.8,0-8.8,0.1s-2.8,1.4-3.1,2.8s-0.1,3-0.1,3.6s0.5,0.9,1.1,1
			c0.5,0.1,1,0.1,1,0.1v2.1v2.1c-0.4,0.2-0.9,0.4-1.3,0.7c-0.4,0.2-0.8,0.5-1.3,0.8c0.1,1,0.3,2.9,0.5,4.6c0.2,1.7,0.4,3.1,0.4,3.1
			h0.4h0.4v0.6V59c-1.1,0.7-2.2,1.6-3.1,2.6c-0.9,1-1.7,2.1-2.3,3.3c-0.3-3.3-2.7-5.7-5.4-7.3c-2.7-1.6-5.6-2.4-7-2.5l0.2,5.6
			l0.2,5.6l-2.1,3.6l-2.1,3.6c0,0,2.6,0.2,5.9,0.4C26,74,30,74.1,32.9,74c0.8,0,1.6-0.2,2.3-0.6s1.2-1,1.6-1.7
			c0.7,1.4,1.7,2.5,2.9,3.2c1.2,0.8,2.7,1.2,4.2,1.2h15.7h15.7c2.2,0,4.2-0.9,5.7-2.3c1.5-1.4,2.4-3.4,2.4-5.6
			c0-1.5-0.4-2.9-1.1-4.1S80.4,61.8,79.2,61.2L79.2,61.2C79.2,61.1,79.2,61.2,79.2,61.2z M66.2,29.1h2.7h2.7v6.1v6.1h-2.7h-2.7v-6.1
			V29.1z M57.7,29.1h2.7H63v8v8h-2.7h-2.7v-8V29.1z M75.3,73.2H59.6H43.9c-1.4,0-2.6-0.6-3.5-1.5c-0.9-0.9-1.5-2.2-1.5-3.5
			c0-1.4,0.6-2.6,1.5-3.5c0.9-0.9,2.2-1.5,3.5-1.5h15.7h15.7c1.4,0,2.6,0.6,3.5,1.5c0.9,0.9,1.5,2.2,1.5,3.5c0,1.4-0.6,2.6-1.5,3.5
			C77.9,72.6,76.6,73.2,75.3,73.2L75.3,73.2L75.3,73.2z"/>
	</g>
</g>
</svg>
