<?xml version="1.0" encoding="utf-8"?>
<!-- Generator: Adobe Illustrator 25.2.3, SVG Export Plug-In . SVG Version: 6.00 Build 0)  -->
<svg version="1.1" id="Layer_1" xmlns="http://www.w3.org/2000/svg" xmlns:xlink="http://www.w3.org/1999/xlink" x="0px" y="0px"
	 viewBox="0 0 100 100" style="enable-background:new 0 0 100 100;" xml:space="preserve">
<style type="text/css">
	.st0{fill:#8E8E8E;}
</style>
<g id="Layer_2_1_">
	<g id="Layer_2-2">
		<polygon points="83.1,27.6 82.6,27.6 82.1,27.5 81.7,30.5 81.3,33.6 51.9,29.3 22.4,25.1 22.4,25.6 22.3,26.1 51.7,30.3 81,34.5 
			78.6,40.9 76.1,47.3 76.6,47.4 77,47.6 79.5,41.2 82,34.7 82.1,34.7 82.1,34.7 82.6,31.2 		"/>
		<path class="st0" d="M78.1,68.9h-3.9h-3.9v-1.3v-1.3h2.5h2.5c0.6,0,1.1-0.2,1.4-0.6s0.6-0.9,0.6-1.4v-7.7v-7.7
			c0-0.6-0.2-1.1-0.6-1.4s-0.9-0.6-1.4-0.6h-4.9h-4.9c-0.5,0-0.9,0.2-1.2,0.4c-0.3,0.3-0.6,0.6-0.7,1.1l-0.7,3.2L62,54.9h-5.4h-5.4
			L36.1,39.6l-15-15.3c-0.2-0.2-0.5-0.3-0.8-0.4s-0.6,0-0.9,0.2c-0.1,0.1-0.2,0.2-0.3,0.3c-0.1,0.1-0.2,0.3-0.2,0.4l0,0l0,0v0v0
			c0,0.1,0,0.2,0,0.2s0,0.2,0,0.2l-0.3,2.8l-0.3,2.8h-0.2H18c-0.2,0-0.5,0-0.7,0.2c-0.2,0.1-0.3,0.4-0.3,0.6c0,0.2,0,0.5,0.2,0.7
			c0.1,0.2,0.4,0.3,0.6,0.3c0,0,0.1,0,0.1,0s0.1,0,0.1,0h0.4h0.4v0.7v0.7c0,0.3,0.1,0.5,0.2,0.7c0.2,0.2,0.4,0.3,0.6,0.3
			c0.1,0,0.4,0,0.7,0.2c0.3,0.2,0.5,0.4,0.5,0.8c0,0.1,0,0.2,0,0.3c0,0.1-0.1,0.2-0.1,0.3c-0.1,0.1-0.3,0.2-0.4,0.2
			c-0.2,0-0.3,0-0.5,0c-0.2,0-0.4,0-0.6-0.1C19,36.7,19,36.4,19,36c0-0.3-0.1-0.5-0.3-0.7S18.2,35,18,35s-0.5,0.1-0.7,0.3
			S17,35.7,17,36c-0.1,0.7,0.1,1.4,0.6,1.9c0.4,0.5,1,0.9,1.7,0.9c0.1,0,0.2,0,0.3,0c0.1,0,0.2,0,0.3,0h0.1h0.1c0.4,0,0.8,0,1.2-0.2
			c0.4-0.1,0.7-0.3,1-0.6c0.3-0.3,0.5-0.6,0.6-0.9c0.1-0.3,0.2-0.7,0.2-1.1c0-0.6-0.2-1.2-0.6-1.7s-0.8-0.9-1.4-1.1V33v-0.3h0.3h0.3
			c0.2,0,0.4-0.2,0.6-0.4c0.1-0.2,0.2-0.4,0.1-0.7c0-0.2-0.1-0.4-0.3-0.5c-0.1-0.1-0.3-0.2-0.5-0.2h-0.1h-0.1v-1.3v-1.3l14.6,16.1
			l14.6,16.1v2v2c0,0.6,0.2,1.1,0.6,1.4c0.4,0.4,0.9,0.6,1.4,0.6h3.3H59v1.2v1.2h-7.2h-7.2c-1-0.1-1.9,0.3-2.6,0.9
			c-0.7,0.6-1.1,1.5-1.2,2.5c-0.1,1,0.3,1.9,0.9,2.6c0.6,0.7,1.5,1.1,2.5,1.2c0.1,0,0.1,0,0.2,0c0.1,0,0.1,0,0.2,0h16.8h16.8
			c1,0.1,1.9-0.3,2.6-0.9c0.7-0.6,1.1-1.5,1.2-2.5c0.1-1-0.3-1.9-0.9-2.6c-0.6-0.7-1.5-1.1-2.5-1.2c-0.1,0-0.1,0-0.2,0
			C78.2,68.9,78.2,68.9,78.1,68.9z M70.7,49.9h2.6h2.6v2.5v2.4h-2.6h-2.6v-2.4V49.9z M20.2,30.6h-0.4h-0.4v-2.2v-2.2l0.4,0.5
			l0.4,0.5v1.7V30.6z M68.9,64.8h-2.1h-2.1v-7.5v-7.5h2.1h2.1v7.5C68.9,57.3,68.9,64.8,68.9,64.8z"/>
	</g>
</g>
</svg>
