<svg xmlns="http://www.w3.org/2000/svg" viewBox="0 0 100 100"><g style="isolation:isolate"><path d="M19.72,41.39a1.56,1.56,0,0,1,1.31.24c.43-.49-.07-.94-.09-1.42a1.65,1.65,0,0,1,1.11.48,3.58,3.58,0,0,0,0-2,1,1,0,0,1,1.16.49l.07,0,.11-1.58A4.67,4.67,0,0,1,24.62,40l.07,0,.12-.9A2.4,2.4,0,0,1,25.73,41a3.19,3.19,0,0,0,.41-.38,1.44,1.44,0,0,0,.13-.31,2.53,2.53,0,0,1,.21-.32,1.66,1.66,0,0,1,.27.26,1.5,1.5,0,0,1,.08,1.35,2,2,0,0,0-.11.44l.18-.21a3.41,3.41,0,0,1,.38-.38.91.91,0,0,1,.34-.11,1.57,1.57,0,0,1,.05.3,2.82,2.82,0,0,1-.56,1.76c-.31.46-.54,1-.82,1.45a1,1,0,0,1-.28.31,3.89,3.89,0,0,1-2.8.56A6,6,0,0,1,22,45.42a1.17,1.17,0,0,1-.79-.74c-.21-.52-.41-1-.6-1.58a4.69,4.69,0,0,0-.79-1.58A.85.85,0,0,1,19.72,41.39Z" fill="#ffa6a6"/></g><g style="isolation:isolate"><polygon points="18.81 49.55 17.24 46.43 15.47 47.66 15.47 45.09 12.36 45.08 12.36 47.66 10.58 46.43 9.01 49.55 10.83 50.9 9.02 52.16 10.45 55.35 12.31 54.13 12.31 56.85 15.51 56.85 15.51 54.13 17.38 55.35 18.8 52.16 16.99 50.9 18.81 49.55 18.81 49.55" fill="#fff" fill-rule="evenodd"/></g><g style="isolation:isolate"><path d="M13.83,49.67a5.07,5.07,0,0,0,0-.55c-.29-.57-.15-1.27,0-1.21s.42.11.47,0h0s-.11,0-.11,0,.1,0,.13,0-.11-.13-.16-.22c-.22-.35-.58,0-.72.24a1.2,1.2,0,0,0-.08,1,3.27,3.27,0,0,0,.32.64c0,.06.2.25.2.18Zm.43,2.5a1.54,1.54,0,0,1-.18.75,1.2,1.2,0,0,0-.31,1c.17,1.07.15.33.15.29-.06-.83.23-.8.49-1.36a.66.66,0,0,0-.09-.62l-.06,0ZM13.8,48l.09,2.54c0,.15.36-.4.36-.54l0-2.15c0,.31-.49.11-.49.15Zm.33-.39c0,.06.15.1.15.17v-.89c0-.36-.46-.4-.48,0v.53c0,.09.19-.06.33.2Zm.07,6.85a.93.93,0,0,1-.21.74.62.62,0,0,0,.29-.62s-.08-.19-.08-.12Zm0-2.1,0-1.34c0-.09-.28.28-.28.47L14,53c0,.1.23-.29.24-.63Zm0,2.42,0-1.45a1.22,1.22,0,0,0-.2.37l0,1.36a.68.68,0,0,0,.12-.28Zm-.1.46,0,.29h0l0-.4s-.08.09-.08.11Zm-.14-7.58s.09,0,.09,0-.07,0-.09,0-.09,0-.09,0,.08,0,.09,0Zm4.46,1.76L17.13,47l-2,1.37V45.48H12.68v2.86l-2-1.37L9.45,49.41l2,1.49-2,1.41,1.12,2.51,2.06-1.35v3h2.56v-3l2.06,1.35,1.12-2.51-2-1.41,2-1.49Zm-4.05,0V50c0,.3-.6.83-.69,1.3a1.1,1.1,0,0,0,.05.6s.16.38.22.37,0-.5,0-.61c-.08-.53.57-.9.74-1.43a.7.7,0,0,0-.3-.84Z" fill="#7a7abd" fill-rule="evenodd"/></g><path d="M27.25,64.86H20V56.71h7.29Zm-7-.28h6.67V57H20.27Z" fill="#9c9cce"/><polygon points="27.09 56.85 20.11 64.72 27.09 64.72 27.09 56.85" fill="#9c9cce"/><g style="isolation:isolate"><polygon points="32.33 46.59 30.3 48.46 30.3 52.54 32.33 52.54 31.71 50.28 32.47 48.99 32.12 47.9 32.33 46.59" fill="#bdbdbd"/><polygon points="33.12 46.95 34.72 48.48 34.72 52.54 32.99 52.54 32.32 50.33 33.02 49.03 32.72 47.95 33.12 46.95" fill="#bdbdbd"/></g><rect x="29.41" y="47.18" width="0.35" height="2.99" fill="#bdbdbd"/><rect x="35.25" y="47.18" width="0.35" height="2.99" fill="#bdbdbd"/><g style="isolation:isolate"><polygon points="24.92 52.54 40.23 52.54 32.57 60.74 24.92 52.54" fill="#cacaca"/></g><g style="isolation:isolate"><polyline points="31.75 52.54 32.32 54.02 30.97 55.9 32.75 57.35 32.67 58.44 33.52 57.1 32.53 55.71 33.77 53.77 33.25 52.54" fill="#bdbdbd"/></g><polygon points="31.75 52.54 32.32 54.11 33.77 53.77 33.25 52.54 31.75 52.54" fill="#fff"/><path d="M23.37,70.87,5.2,50.82l.1-.11L23.37,31.4l.15.15L42.09,50.82l-.11.11ZM5.71,50.82l17.67,19.5,18.19-19.5L23.38,31.94Z" fill="#7a7a7a"/><polygon points="32.38 60.9 14.3 41.32 14.6 41.09 32.68 60.67 32.38 60.9" fill="#7a7a7a"/><polygon points="14.6 60.9 14.3 60.67 32.38 41.09 32.68 41.32 14.6 60.9" fill="#7a7a7a"/><path d="M41.57,31.67H52.12v5.92h-8V47.84h7.39v5.6H44.14V64.89h8.13v5.92H41.57Z" fill="#323232"/><path d="M52.84,31.67h2.67l3.67,31h0l3.76-31h2.6l-5,39.14H57.72Z" fill="#323232"/><path d="M69.83,31.67h2.73L78.2,70.81H75.45L74.08,60.45H68.23L66.85,70.81H64.21Zm-.9,23.57H73.4L71.2,38.41h-.06Z" fill="#323232"/><path d="M89.49,44.11Q89.32,42.41,89,41a13.21,13.21,0,0,0-.74-2.47,4.89,4.89,0,0,0-1.06-1.61,2,2,0,0,0-1.41-.58,2.45,2.45,0,0,0-2,1.26A10.86,10.86,0,0,0,82.43,41a31.61,31.61,0,0,0-.79,4.8c-.17,1.79-.26,3.62-.26,5.48s.09,3.69.26,5.48a31.61,31.61,0,0,0,.79,4.8,10.76,10.76,0,0,0,1.38,3.37,2.45,2.45,0,0,0,2,1.26,1.91,1.91,0,0,0,1.52-.79,6.77,6.77,0,0,0,1.13-2.19,18.45,18.45,0,0,0,.74-3.27,39.47,39.47,0,0,0,.35-4h2.5a45.55,45.55,0,0,1-.56,6.42,25.21,25.21,0,0,1-1.31,5,9.68,9.68,0,0,1-1.92,3.26,3.34,3.34,0,0,1-2.45,1.15,3.75,3.75,0,0,1-2.94-1.62,13.73,13.73,0,0,1-2.21-4.41,36.54,36.54,0,0,1-1.38-6.52,65.58,65.58,0,0,1,0-15.84,36.86,36.86,0,0,1,1.38-6.53,14.35,14.35,0,0,1,2.21-4.44,3.75,3.75,0,0,1,2.94-1.64,3.57,3.57,0,0,1,2.32.9,7.62,7.62,0,0,1,1.92,2.64,18.26,18.26,0,0,1,1.35,4.19,34.51,34.51,0,0,1,.63,5.64Z" fill="#323232"/></svg>