<?xml version="1.0" encoding="iso-8859-1"?>
<!-- Generator: Adobe Illustrator 25.4.1, SVG Export Plug-In . SVG Version: 6.00 Build 0)  -->
<svg version="1.1" id="Layer_1" xmlns="http://www.w3.org/2000/svg" xmlns:xlink="http://www.w3.org/1999/xlink" x="0px" y="0px"
	 viewBox="0 0 100 100" style="enable-background:new 0 0 100 100;" xml:space="preserve">
<path style="fill:#FFFFFF;" d="M38.4,37.4h-1.85H34.7h-1.85H31c-0.4,0-0.825,0.1-1.275,0.312C29.275,37.925,28.8,38.25,28.3,38.7
	c-0.55,0.45-1.1,1-1.663,1.65C26.075,41,25.5,41.75,24.9,42.6s-1.15,1.65-1.637,2.375C22.775,45.7,22.35,46.35,22,46.9
	c-0.35,0.55-0.65,0.975-0.863,1.263C20.925,48.45,20.8,48.6,20.8,48.6s-0.45,0.075-1.125,0.237S18.1,49.25,17.2,49.6
	c-0.85,0.3-1.7,0.7-2.337,1.175S13.8,51.8,13.8,52.4v3.05v3.05v3.05v3.05c0,0.25,0.125,0.525,0.337,0.8
	c0.213,0.275,0.513,0.55,0.863,0.8s0.775,0.475,1.238,0.637C16.7,67,17.2,67.1,17.7,67.1h6.25h6.25h6.25h6.25"/>
<path style="fill:#646464;" d="M42.7,67.6h-6.25H30.2h-6.25H17.7c-0.55,0-1.125-0.1-1.675-0.275C15.475,67.15,14.95,66.9,14.5,66.6
	s-0.825-0.65-1.087-1.012C13.15,65.225,13,64.85,13,64.5v-3.05V58.4v-3.05V52.3c0-0.7,0.375-1.325,0.95-1.862
	C14.525,49.9,15.3,49.45,16.1,49.1c0.8-0.35,1.675-0.625,2.45-0.837C19.325,48.05,20,47.9,20.4,47.8c0.05-0.05,0.125-0.15,0.2-0.263
	c0.075-0.112,0.15-0.237,0.2-0.337s0.15-0.25,0.263-0.412C21.175,46.625,21.3,46.45,21.4,46.3c0.2-0.25,0.4-0.55,0.612-0.875
	S22.45,44.75,22.7,44.4s0.5-0.725,0.763-1.112C23.725,42.9,24,42.5,24.3,42.1c0.65-0.9,1.275-1.675,1.875-2.35S27.35,38.5,27.9,38
	c0.55-0.45,1.1-0.8,1.625-1.038C30.05,36.725,30.55,36.6,31,36.6h1.85h1.85h1.85h1.85V37v0.4v0.4v0.4h-1.85H34.7h-1.85H31
	c-0.25,0-0.55,0.075-0.913,0.25S29.3,38.9,28.8,39.3c-0.45,0.4-0.975,0.9-1.55,1.525c-0.575,0.625-1.2,1.375-1.85,2.275
	c-0.3,0.4-0.575,0.8-0.837,1.188C24.3,44.675,24.05,45.05,23.8,45.4s-0.475,0.675-0.675,0.975c-0.2,0.3-0.375,0.575-0.525,0.825
	c-0.35,0.5-0.6,0.9-0.8,1.213c-0.2,0.312-0.35,0.537-0.5,0.688s-0.25,0.225-0.35,0.263c-0.1,0.037-0.2,0.037-0.35,0.037
	c-0.3,0.05-0.85,0.175-1.5,0.35c-0.65,0.175-1.4,0.4-2.1,0.65c-0.7,0.3-1.35,0.625-1.825,0.962C14.7,51.7,14.4,52.05,14.4,52.4v3.05
	v3.05v3.05v3.05c0.15,0.25,0.35,0.475,0.587,0.675c0.238,0.2,0.513,0.375,0.812,0.525c0.25,0.15,0.55,0.25,0.863,0.312
	S17.3,66.2,17.6,66.2h6.25h6.25h6.25h6.25v0.4V67l0.05,0.3L42.7,67.6z M20.7,47.8h-0.05H20.6h-0.05H20.5h0.05h0.05h0.05H20.7z"/>
<path style="fill:#FFFFFF;" d="M42.7,27.6h10.15H63h10.15H83.3c0.6,0,1.175,0.125,1.688,0.35C85.5,28.175,85.95,28.5,86.3,28.9
	c0.4,0.4,0.725,0.875,0.95,1.387C87.475,30.8,87.6,31.35,87.6,31.9v7.65v7.65v7.65v7.65c0,0.6-0.125,1.175-0.35,1.688
	C87.025,64.7,86.7,65.15,86.3,65.5c-0.4,0.4-0.875,0.725-1.388,0.95C84.4,66.675,83.85,66.8,83.3,66.8H73.15H63H52.85H42.7
	c-0.6,0-1.175-0.125-1.688-0.35S40.05,65.9,39.7,65.5c-0.4-0.4-0.725-0.875-0.95-1.388C38.525,63.6,38.4,63.05,38.4,62.5v-7.65V47.2
	v-7.65V31.9c0-0.6,0.125-1.175,0.35-1.688C38.975,29.7,39.3,29.25,39.7,28.9c0.35-0.4,0.8-0.725,1.312-0.95
	C41.525,27.725,42.1,27.6,42.7,27.6z"/>
<path style="fill:#646464;" d="M83.3,67.6H73.15H63H52.85H42.7c-0.7,0-1.35-0.15-1.938-0.412S39.65,66.55,39.2,66.1
	s-0.825-1-1.088-1.6c-0.263-0.6-0.412-1.25-0.412-1.9v-7.65V47.3v-7.7v-7.7c0-0.7,0.15-1.35,0.412-1.938S38.75,28.85,39.2,28.4
	s1-0.825,1.6-1.087c0.6-0.263,1.25-0.413,1.9-0.413h10.15H63h10.15H83.3c0.7,0,1.35,0.15,1.938,0.413S86.35,27.95,86.8,28.4
	s0.825,0.975,1.088,1.562C88.15,30.55,88.3,31.2,88.3,31.9v7.65v7.65v7.65v7.65c0,0.7-0.15,1.375-0.412,1.988
	C87.625,65.1,87.25,65.65,86.8,66.1c-0.45,0.5-0.975,0.875-1.562,1.125C84.65,67.475,84,67.6,83.3,67.6z M42.7,28.3
	c-0.5,0-0.975,0.1-1.4,0.275C40.875,28.75,40.5,29,40.2,29.3s-0.575,0.675-0.775,1.1c-0.2,0.425-0.325,0.9-0.325,1.4l0,0l0,0l0,0
	l0,0v7.65v7.65v7.65v7.65c0,0.5,0.1,0.975,0.275,1.4c0.175,0.425,0.425,0.8,0.725,1.1s0.675,0.55,1.1,0.725
	c0.425,0.175,0.9,0.275,1.4,0.275l0,0l0,0l0,0l0,0h10.2H63h10.15H83.3c0.5,0,0.975-0.1,1.4-0.275c0.425-0.175,0.8-0.425,1.1-0.725
	s0.55-0.675,0.725-1.1c0.175-0.425,0.275-0.9,0.275-1.4v-7.6v-7.6v-7.65V31.9c0-0.5-0.1-0.975-0.275-1.4
	c-0.175-0.425-0.425-0.8-0.725-1.1s-0.675-0.55-1.1-0.725C84.275,28.5,83.8,28.4,83.3,28.4l0,0l0,0l0,0l0,0H73.15H63H52.85H42.7
	v-0.05V28.3z"/>
<path style="fill:#FFFFFF;" d="M41.7,34.6h2.15H46h2.2h2.2c0.1,0,0.175,0.025,0.237,0.062S50.75,34.75,50.8,34.8
	c0.05,0.05,0.1,0.125,0.138,0.2C50.975,35.075,51,35.15,51,35.2v2.75v2.75v2.75v2.75c0,0.1-0.025,0.175-0.062,0.237
	C50.9,46.5,50.85,46.55,50.8,46.6s-0.125,0.1-0.2,0.138S50.45,46.8,50.4,46.8h-2.2H46h-2.2h-2.2c-0.1,0-0.175-0.025-0.237-0.062
	S41.25,46.65,41.2,46.6s-0.1-0.1-0.138-0.15C41.025,46.4,41,46.35,41,46.3v-2.75V40.8v-2.75V35.3c0-0.1,0.025-0.175,0.062-0.237
	S41.15,34.95,41.2,34.9s0.125-0.125,0.213-0.188C41.5,34.65,41.6,34.6,41.7,34.6z"/>
<path style="fill:#646464;" d="M50.4,47.1h-2.2H46h-2.2h-2.2c-0.1,0-0.2-0.025-0.288-0.062C41.225,47,41.15,46.95,41.1,46.9
	s-0.1-0.125-0.138-0.212C40.925,46.6,40.9,46.5,40.9,46.4v-2.75V40.9v-2.75V35.4c0-0.1,0.025-0.2,0.062-0.288
	C41,35.025,41.05,34.95,41.1,34.9c0.05-0.05,0.125-0.1,0.212-0.138C41.4,34.725,41.5,34.7,41.6,34.7h2.2H46h2.2h2.2
	c0.1,0,0.2,0.025,0.288,0.062C50.775,34.8,50.85,34.85,50.9,34.9s0.1,0.125,0.138,0.212C51.075,35.2,51.1,35.3,51.1,35.4v2.75v2.75
	v2.75v2.75c0,0.1-0.025,0.2-0.062,0.288C51,46.775,50.95,46.85,50.9,46.9s-0.125,0.1-0.213,0.138S50.5,47.1,50.4,47.1z M41.7,34.8
	c-0.05,0-0.1,0.025-0.15,0.05c-0.05,0.025-0.1,0.05-0.15,0.05s-0.075,0.05-0.087,0.112S41.3,35.15,41.3,35.2l0,0l0,0l0,0l0,0v2.75
	v2.75v2.75v2.75c0,0.05,0.025,0.1,0.05,0.15c0.025,0.05,0.05,0.1,0.05,0.15c0.05,0.05,0.1,0.075,0.15,0.087
	C41.6,46.6,41.65,46.6,41.7,46.6h2.15H46h2.2h2.2c0.05,0,0.1-0.025,0.15-0.05c0.05-0.025,0.1-0.05,0.15-0.05
	c0.05-0.05,0.075-0.1,0.087-0.15C50.8,46.3,50.8,46.25,50.8,46.2l0,0l0,0l0,0l0,0l0,0l0,0l0,0l0,0v-2.75V40.7v-2.75V35.2
	c0-0.05-0.025-0.1-0.05-0.15c-0.025-0.05-0.05-0.1-0.05-0.15c-0.05-0.05-0.1-0.075-0.15-0.087C50.5,34.8,50.45,34.8,50.4,34.8l0,0
	l0,0l0,0l0,0c0,0-0.55,0-1.375,0s-1.925,0-3.025,0s-2.175,0-2.975,0C42.225,34.8,41.7,34.8,41.7,34.8z"/>
<polygon style="fill:#646464;" points="17.7,53.7 22.4,53.7 27.1,53.7 31.75,53.7 36.4,53.7 36.4,54 36.4,54.3 36.4,54.55 
	36.4,54.8 31.75,54.8 27.1,54.8 22.4,54.8 17.7,54.8 17.7,54.55 17.7,54.3 17.7,54 "/>
<path style="fill:#646464;" d="M35,48.7h-3.55H27.9h-3.55H20.8v-0.05V48.6v-0.1v-0.1h3.55h3.55h3.55H35
	c0.25,0,0.475-0.025,0.662-0.1C35.85,48.225,36,48.1,36.1,47.9s0.175-0.45,0.225-0.763S36.4,46.45,36.4,46v-1.05V43.9v-1.05V41.8
	c0-0.15,0-0.3-0.025-0.45C36.35,41.2,36.3,41.05,36.2,40.9s-0.225-0.25-0.362-0.325S35.55,40.45,35.4,40.4h-2.15H31.1h-2.15H26.8
	v-0.1v-0.1v-0.1V40h2.05h2.05h2.05H35c0.2,0,0.4,0.025,0.588,0.088S35.95,40.25,36.1,40.4s0.275,0.3,0.362,0.462
	C36.55,41.025,36.6,41.2,36.6,41.4v0.05v0.05v0.05v0.05v1.05v1.05v1.05v1.05c0,0.45-0.025,0.85-0.075,1.2
	c-0.05,0.35-0.125,0.65-0.225,0.9c-0.1,0.3-0.25,0.5-0.462,0.625C35.625,48.65,35.35,48.7,35,48.7z"/>
<polygon style="fill:#646464;" points="25.1,48.6 25,48.55 24.9,48.5 24.85,48.5 24.8,48.5 25.55,46.4 26.3,44.3 27.05,42.2 
	27.8,40.1 27.9,40.15 28,40.2 28.05,40.2 28.1,40.2 27.35,42.3 26.6,44.4 25.85,46.5 "/>
<path style="fill:#FFFFFF;" d="M24.5,45.1h0.1h0.1h0.1h0.1c0.1,0,0.175,0.025,0.25,0.062S25.3,45.25,25.4,45.3
	c0.05,0.05,0.1,0.125,0.138,0.212C25.575,45.6,25.6,45.7,25.6,45.8v1.1V48v1v1c0,0.1-0.025,0.175-0.062,0.25S25.45,50.4,25.4,50.5
	c-0.05,0.05-0.125,0.1-0.212,0.138C25.1,50.675,25,50.7,24.9,50.7h-0.1h-0.1h-0.1h-0.1c-0.1,0-0.175-0.025-0.25-0.062
	C24.175,50.6,24.1,50.55,24,50.5c-0.05-0.05-0.1-0.125-0.138-0.212C23.825,50.2,23.8,50.1,23.8,50v-1.1v-1.1v-1.1v-1.1
	c0-0.1,0.025-0.175,0.062-0.25S23.95,45.2,24,45.1s0.125-0.1,0.212-0.075C24.3,45.05,24.4,45.1,24.5,45.1z"/>
<path style="fill:#646464;" d="M24.8,50.9h-0.1h-0.1h-0.1h-0.1c-0.1,0-0.2-0.025-0.3-0.062C24,50.8,23.9,50.75,23.8,50.7
	c-0.05-0.05-0.1-0.125-0.138-0.225c-0.038-0.1-0.062-0.225-0.062-0.375l0,0l0,0l0,0l0,0V49v-1.1v-1.1v-1.1
	c0-0.1,0.025-0.2,0.062-0.3c0.038-0.1,0.087-0.2,0.138-0.3c0.05-0.05,0.125-0.1,0.225-0.138c0.1-0.037,0.225-0.062,0.375-0.062h0.1
	h0.1h0.1h0.1c0.1,0,0.2,0.025,0.3,0.062C25.2,45,25.3,45.05,25.4,45.1c0.05,0.05,0.1,0.125,0.138,0.225
	c0.038,0.1,0.062,0.225,0.062,0.375l0,0l0,0l0,0l0,0l0,0l0,0l0,0l0,0v1.1v1.1v1.05V50c0,0.1-0.025,0.2-0.062,0.3
	c-0.038,0.1-0.087,0.2-0.138,0.3c-0.1,0.05-0.2,0.1-0.3,0.15S24.9,50.85,24.8,50.9L24.8,50.9L24.8,50.9L24.8,50.9L24.8,50.9z
	 M24.5,45.3c-0.05,0-0.125,0.025-0.2,0.05c-0.075,0.025-0.15,0.05-0.2,0.05c-0.05,0.05-0.1,0.1-0.138,0.162
	C23.925,45.625,23.9,45.7,23.9,45.8l0,0l0,0l0,0l0,0l0,0l0,0l0,0l0,0v1.1V48v1.1v1.1c0,0.05,0.025,0.125,0.05,0.2
	c0.025,0.075,0.05,0.15,0.05,0.2c0.05,0.05,0.1,0.075,0.163,0.087C24.225,50.7,24.3,50.7,24.4,50.7l0,0l0,0l0,0l0,0h0.1h0.1h0.1h0.1
	c0.05,0,0.125-0.025,0.2-0.05c0.075-0.025,0.15-0.05,0.2-0.05c0.05-0.05,0.075-0.1,0.087-0.162C25.3,50.375,25.3,50.3,25.3,50.2l0,0
	l0,0l0,0l0,0v-1.1V48v-1.1v-1.1c0-0.05-0.025-0.125-0.05-0.2c-0.025-0.075-0.05-0.15-0.05-0.2c-0.05-0.05-0.1-0.075-0.163-0.087
	C24.975,45.3,24.9,45.3,24.8,45.3h-0.1h-0.1h-0.05H24.5L24.5,45.3L24.5,45.3L24.5,45.3L24.5,45.3z"/>
<path style="fill:#646464;" d="M13.7,60.3v-0.1v-0.1v-0.05V60c0.05,0,0.125,0,0.2-0.013c0.075-0.013,0.15-0.037,0.2-0.087
	s0.1-0.075,0.15-0.1c0.05-0.025,0.1-0.05,0.15-0.1c0.2-0.2,0.35-0.5,0.462-0.85c0.113-0.35,0.188-0.75,0.238-1.15
	s0.05-0.825,0.038-1.225C15.125,56.075,15.1,55.7,15.1,55.4v-0.15V55.1v-0.15V54.8c0-0.05,0-0.1,0-0.15c0-0.05,0-0.1,0-0.15
	s-0.025-0.1-0.062-0.15C15,54.3,14.95,54.25,14.9,54.2c-0.05-0.05-0.125-0.1-0.213-0.138C14.6,54.025,14.5,54,14.4,54
	s-0.175,0-0.25,0S14,54,13.9,54h-0.05H13.8h-0.05H13.7v-0.05V53.9v-0.05V53.8h0.05h0.05h0.1H14c0.1,0,0.2,0,0.3,0c0.1,0,0.2,0,0.3,0
	c0.1,0.05,0.2,0.075,0.3,0.112C15,53.95,15.1,54,15.2,54.1c0.05,0.05,0.1,0.1,0.137,0.162C15.375,54.325,15.4,54.4,15.4,54.5
	c0,0.05,0.025,0.125,0.05,0.212C15.475,54.8,15.5,54.9,15.5,55v0.15v0.15v0.15v0.15c0,0.3,0.025,0.675,0.038,1.088
	C15.55,57.1,15.55,57.55,15.5,58s-0.125,0.875-0.238,1.237S15,59.9,14.8,60.1c-0.05,0.05-0.125,0.1-0.213,0.15
	C14.5,60.3,14.4,60.35,14.3,60.4s-0.2,0.025-0.3-0.013S13.8,60.3,13.7,60.3z"/>
<path style="fill:#969696;" d="M75.3,57.6h-0.9h-0.9h-0.9h-0.9c-0.5,0-0.95,0.1-1.363,0.287C69.925,58.075,69.55,58.35,69.2,58.7
	c-0.3,0.3-0.55,0.675-0.725,1.1C68.3,60.225,68.2,60.7,68.2,61.2v1.25v1.25v1.25v1.25h2.65h2.65h2.65h2.65v-1.25V63.7v-1.25V61.2
	c0-0.5-0.1-0.975-0.275-1.4C78.35,59.375,78.1,59,77.8,58.7c-0.35-0.35-0.725-0.625-1.138-0.812S75.8,57.6,75.3,57.6z"/>
<path style="fill:#646464;" d="M68,66.4v-1.3v-1.3v-1.3v-1.3c0-0.5,0.1-0.975,0.287-1.412S68.75,58.95,69.1,58.6
	s0.75-0.625,1.188-0.812S71.2,57.5,71.7,57.5l0,0l0,0l0,0l0,0h0.9h0.9h0.9h0.9c0.5,0,0.975,0.1,1.412,0.287S77.55,58.25,77.9,58.6
	s0.625,0.75,0.812,1.188S79,60.7,79,61.2v1.3v1.3v1.3v1.3h-2.75H73.5h-2.75H68z M71.7,57.8c-0.45,0-0.9,0.1-1.312,0.275
	C69.975,58.25,69.6,58.5,69.3,58.8s-0.55,0.675-0.725,1.087C68.4,60.3,68.3,60.75,68.3,61.2l0,0l0,0l0,0l0,0v1.25v1.25v1.25v1.25
	h2.6h2.6h2.6h2.6v-1.25V63.7v-1.25V61.2c0-0.45-0.1-0.9-0.275-1.312S78,59.1,77.7,58.8c-0.3-0.3-0.675-0.55-1.088-0.725
	C76.2,57.9,75.75,57.8,75.3,57.8l0,0l0,0l0,0l0,0c0,0-0.225,0-0.562,0s-0.788,0-1.238,0s-0.9,0-1.237,0
	C71.925,57.8,71.7,57.8,71.7,57.8z"/>
<path style="fill:#969696;" d="M23.8,57.6h-0.9H22h-0.9h-0.9c-0.5,0-0.975,0.1-1.4,0.275C18.375,58.05,18,58.3,17.7,58.6
	s-0.55,0.675-0.725,1.1C16.8,60.125,16.7,60.6,16.7,61.1l0,0l0,0l0,0l0,0l0,0l0,0l0,0l0,0v1.25v1.25v1.25v1.25h2.65H22h2.65h2.65
	v-1.25V63.6v-1.25V61.1c0-0.5-0.1-0.975-0.275-1.4c-0.175-0.425-0.425-0.8-0.725-1.1s-0.675-0.55-1.1-0.725
	C24.775,57.7,24.3,57.6,23.8,57.6L23.8,57.6L23.8,57.6L23.8,57.6L23.8,57.6z"/>
<path style="fill:#646464;" d="M16.5,66.4v-1.3v-1.3v-1.3v-1.3c0-0.5,0.1-0.975,0.288-1.412S17.25,58.95,17.6,58.6
	s0.75-0.625,1.188-0.812S19.7,57.5,20.2,57.5l0,0l0,0l0,0l0,0h0.9H22h0.9h0.9c0.5,0,0.975,0.1,1.413,0.287S26.05,58.25,26.4,58.6
	s0.625,0.75,0.812,1.188S27.5,60.7,27.5,61.2v1.3v1.3v1.3v1.3h-2.75H22h-2.75H16.5z M20.2,57.8c-0.45,0-0.9,0.1-1.312,0.275
	C18.475,58.25,18.1,58.5,17.8,58.8s-0.55,0.675-0.725,1.087C16.9,60.3,16.8,60.75,16.8,61.2v1.25v1.25v1.25v1.25h2.6H22h2.6h2.6
	v-1.25V63.7v-1.25V61.2c0-0.45-0.1-0.9-0.275-1.312C26.75,59.475,26.5,59.1,26.2,58.8c-0.3-0.3-0.675-0.55-1.087-0.725
	C24.7,57.9,24.25,57.8,23.8,57.8h-0.9H22c0,0-0.45,0-0.9,0S20.2,57.8,20.2,57.8z"/>
<path style="fill:#FFFFFF;" d="M12.8,61.5h0.55h0.55h0.55H15c0.15,0,0.275,0.025,0.387,0.075S15.6,61.7,15.7,61.8
	s0.175,0.2,0.225,0.312S16,62.35,16,62.5v0.6v0.6v0.65V65c0,0.15-0.025,0.275-0.075,0.387C15.875,65.5,15.8,65.6,15.7,65.7
	s-0.2,0.175-0.312,0.225C15.275,65.975,15.15,66,15,66h-0.55H13.9h-0.55H12.8c-0.15,0-0.275-0.025-0.387-0.075
	C12.3,65.875,12.2,65.8,12.1,65.7c-0.1-0.1-0.175-0.2-0.225-0.312S11.8,65.15,11.8,65v-0.6v-0.6v-0.6v-0.6
	c0-0.15,0.025-0.275,0.075-0.388S12,62,12.1,61.9c0.1-0.1,0.225-0.2,0.35-0.275C12.575,61.55,12.7,61.5,12.8,61.5z"/>
<path style="fill:#646464;" d="M15,66.1h-0.55H13.9h-0.55H12.8c-0.15,0-0.3-0.025-0.438-0.075C12.225,65.975,12.1,65.9,12,65.8
	s-0.175-0.225-0.225-0.362C11.725,65.3,11.7,65.15,11.7,65l0,0l0,0l0,0l0,0v-0.6v-0.6v-0.6v-0.6c0-0.15,0.025-0.3,0.075-0.438
	C11.825,62.025,11.9,61.9,12,61.8s0.225-0.175,0.363-0.225C12.5,61.525,12.65,61.5,12.8,61.5h0.55h0.55h0.55H15
	c0.15,0,0.3,0.025,0.438,0.075C15.575,61.625,15.7,61.7,15.8,61.8s0.175,0.225,0.225,0.362C16.075,62.3,16.1,62.45,16.1,62.6v0.6
	v0.6v0.6V65c0,0.15-0.025,0.3-0.075,0.438C15.975,65.575,15.9,65.7,15.8,65.8c-0.1,0.1-0.225,0.175-0.363,0.225
	C15.3,66.075,15.15,66.1,15,66.1L15,66.1L15,66.1L15,66.1L15,66.1z M12.8,61.7c-0.1,0-0.2,0.025-0.3,0.062
	c-0.1,0.037-0.2,0.087-0.3,0.138c-0.05,0.05-0.1,0.15-0.137,0.263C12.025,62.275,12,62.4,12,62.5v0.6v0.6v0.65V65
	c0,0.1,0.025,0.2,0.062,0.3c0.038,0.1,0.087,0.2,0.137,0.3c0.05,0.05,0.125,0.1,0.225,0.137c0.1,0.037,0.225,0.062,0.375,0.062l0,0
	l0,0l0,0l0,0h0.55h0.55h0.55H15c0.1,0,0.2-0.025,0.3-0.062c0.1-0.037,0.2-0.088,0.3-0.137c0.05-0.05,0.1-0.125,0.137-0.225
	C15.775,65.275,15.8,65.15,15.8,65l0,0l0,0l0,0l0,0v-0.6v-0.6v-0.6v-0.6c0-0.1-0.025-0.2-0.062-0.3C15.7,62.2,15.65,62.1,15.6,62
	c-0.05-0.05-0.125-0.1-0.225-0.138C15.275,61.825,15.15,61.8,15,61.8h-0.55H13.9h-0.55H12.8v-0.05V61.7z"/>
<path style="fill:#FFFFFF;" d="M35.4,35.2c0,0.25-0.05,0.475-0.138,0.675c-0.087,0.2-0.212,0.375-0.362,0.525
	s-0.325,0.275-0.525,0.362C34.175,36.85,33.95,36.9,33.7,36.9h-0.05H33.6h-0.05H33.5c-0.2,0.05-0.425,0.025-0.638-0.037
	S32.45,36.7,32.3,36.6c-0.15-0.15-0.3-0.3-0.413-0.475C31.775,35.95,31.7,35.75,31.7,35.5c0-0.05,0-0.075,0-0.1
	c0-0.025,0-0.05,0-0.1s0-0.075,0-0.1c0-0.025,0-0.05,0-0.1c0.05-0.25,0.125-0.5,0.225-0.737c0.1-0.238,0.225-0.463,0.375-0.663
	s0.35-0.375,0.575-0.513C33.1,33.05,33.35,32.95,33.6,32.9c0.25,0.05,0.475,0.15,0.688,0.287C34.5,33.325,34.7,33.5,34.9,33.7
	s0.3,0.45,0.362,0.712C35.325,34.675,35.35,34.95,35.4,35.2z"/>
<path style="fill:#646464;" d="M33.5,37.1c-0.25,0.05-0.5,0.025-0.725-0.05c-0.225-0.075-0.425-0.2-0.575-0.35
	s-0.3-0.325-0.425-0.525S31.55,35.75,31.5,35.5l0,0l0,0l0,0l0,0c0-0.05,0-0.075,0-0.1c0-0.025,0-0.05,0-0.1s0-0.075,0-0.1
	c0-0.025,0-0.05,0-0.1c0.05-0.3,0.125-0.575,0.237-0.825C31.85,34.025,32,33.8,32.2,33.6s0.4-0.375,0.625-0.525
	C33.05,32.925,33.3,32.8,33.6,32.7c0.25,0.1,0.5,0.225,0.737,0.375C34.575,33.225,34.8,33.4,35,33.6s0.35,0.425,0.463,0.675
	S35.65,34.8,35.7,35.1c0,0.25-0.05,0.5-0.138,0.725C35.475,36.05,35.35,36.25,35.2,36.4s-0.35,0.3-0.575,0.412
	C34.4,36.925,34.15,37,33.9,37h-0.05H33.8l-0.15,0.05L33.5,37.1z M33.5,33.2c-0.05,0-0.2,0.05-0.387,0.15
	c-0.188,0.1-0.413,0.25-0.613,0.45s-0.4,0.425-0.55,0.663C31.8,34.7,31.7,34.95,31.7,35.2c0,0.2,0.025,0.4,0.087,0.588
	C31.85,35.975,31.95,36.15,32.1,36.3c0.15,0.15,0.3,0.275,0.462,0.362C32.725,36.75,32.9,36.8,33.1,36.8h0.05h0.05h0.05h0.05
	c0.2,0.05,0.425,0.025,0.638-0.037C34.15,36.7,34.35,36.6,34.5,36.5c0.15-0.15,0.3-0.3,0.412-0.475S35.1,35.65,35.1,35.4l0,0l0,0
	l0,0l0,0v-0.05V35.3v-0.05V35.2c0-0.3-0.1-0.575-0.25-0.812C34.7,34.15,34.5,33.95,34.3,33.8c-0.1-0.2-0.275-0.35-0.438-0.45
	C33.7,33.25,33.55,33.2,33.5,33.2z"/>
<path style="fill:#FFFFFF;" d="M41.3,29.6c0.2,0,0.375,0.05,0.525,0.138c0.15,0.087,0.275,0.212,0.375,0.362s0.2,0.35,0.275,0.575
	C42.55,30.9,42.6,31.15,42.6,31.4s-0.025,0.475-0.087,0.688C42.45,32.3,42.35,32.5,42.2,32.7c-0.1,0.15-0.25,0.275-0.412,0.362
	C41.625,33.15,41.45,33.2,41.3,33.2c-0.2,0-0.375-0.05-0.525-0.138C40.625,32.975,40.5,32.85,40.4,32.7s-0.2-0.35-0.275-0.575
	C40.05,31.9,40,31.65,40,31.4s0.025-0.475,0.087-0.688S40.25,30.3,40.4,30.1c0.1-0.15,0.25-0.275,0.413-0.363
	C40.975,29.65,41.15,29.6,41.3,29.6z"/>
<path style="fill:#646464;" d="M41.3,33.3c-0.2,0-0.4-0.05-0.575-0.15C40.55,33.05,40.4,32.9,40.3,32.7
	c-0.15-0.15-0.25-0.35-0.312-0.587C39.925,31.875,39.9,31.6,39.9,31.3c-0.05-0.25-0.025-0.475,0.037-0.675
	C40,30.425,40.1,30.25,40.2,30.1c0.15-0.15,0.3-0.3,0.475-0.413C40.85,29.575,41.05,29.5,41.3,29.5
	c0.25,0.05,0.45,0.125,0.625,0.237C42.1,29.85,42.25,30,42.4,30.2c0.15,0.15,0.25,0.35,0.3,0.562c0.05,0.212,0.05,0.438,0,0.638
	c0,0.25-0.025,0.475-0.075,0.675c-0.05,0.2-0.125,0.375-0.225,0.525c-0.15,0.15-0.3,0.3-0.475,0.425S41.55,33.25,41.3,33.3z
	 M41.3,29.7c-0.15,0-0.3,0.05-0.438,0.138C40.725,29.925,40.6,30.05,40.5,30.2s-0.175,0.325-0.225,0.513
	C40.225,30.9,40.2,31.1,40.2,31.3s0.025,0.425,0.075,0.625c0.05,0.2,0.125,0.375,0.225,0.475c0.1,0.15,0.225,0.275,0.362,0.362
	C41,32.85,41.15,32.9,41.3,32.9s0.3-0.05,0.438-0.138C41.875,32.675,42,32.55,42.1,32.4s0.2-0.325,0.275-0.513S42.5,31.5,42.5,31.3
	s-0.025-0.4-0.075-0.587S42.3,30.35,42.2,30.2c-0.15-0.15-0.3-0.275-0.45-0.363S41.45,29.7,41.3,29.7z"/>
<path style="fill:#323232;" d="M73.5,59.1c0.7,0,1.35,0.2,1.938,0.562S76.55,60.55,77,61.2s0.8,1.4,1.037,2.237
	C78.275,64.275,78.4,65.2,78.4,66.2s-0.15,1.925-0.4,2.762c-0.25,0.838-0.6,1.588-1,2.238c-0.45,0.65-0.975,1.175-1.562,1.537
	C74.85,73.1,74.2,73.3,73.5,73.3s-1.35-0.2-1.938-0.562C70.975,72.375,70.45,71.85,70,71.2c-0.45-0.65-0.8-1.4-1.037-2.238
	C68.725,68.125,68.6,67.2,68.6,66.2s0.15-1.925,0.4-2.763s0.6-1.587,1-2.237s0.925-1.175,1.525-1.537S72.8,59.1,73.5,59.1z"/>
<path style="fill:#323232;" d="M22,59.1c0.7,0,1.35,0.2,1.938,0.562S25.05,60.55,25.5,61.2s0.8,1.4,1.038,2.237
	C26.775,64.275,26.9,65.2,26.9,66.2s-0.15,1.925-0.4,2.762c-0.25,0.838-0.6,1.588-1,2.238c-0.45,0.65-0.975,1.175-1.562,1.537
	C23.35,73.1,22.7,73.3,22,73.3s-1.35-0.2-1.938-0.562C19.475,72.375,18.95,71.85,18.5,71.2c-0.45-0.65-0.8-1.4-1.038-2.238
	C17.225,68.125,17.1,67.2,17.1,66.2s0.15-1.925,0.4-2.763s0.6-1.587,1-2.237s0.925-1.175,1.525-1.537S21.3,59.1,22,59.1z"/>
<path style="fill:#FFFFFF;" d="M22,62.3c0.35,0,0.7,0.1,1.025,0.288C23.35,62.775,23.65,63.05,23.9,63.4
	c0.25,0.35,0.45,0.775,0.587,1.237S24.7,65.6,24.7,66.1c0,0.55-0.075,1.05-0.212,1.5c-0.138,0.45-0.337,0.85-0.587,1.2
	s-0.55,0.625-0.875,0.812C22.7,69.8,22.35,69.9,22,69.9s-0.7-0.1-1.025-0.287C20.65,69.425,20.35,69.15,20.1,68.8
	s-0.45-0.75-0.587-1.2c-0.138-0.45-0.212-0.95-0.212-1.5s0.075-1.05,0.212-1.5c0.138-0.45,0.337-0.85,0.587-1.2
	s0.525-0.625,0.837-0.812S21.6,62.3,22,62.3z"/>
<polygon style="fill:#FFFFFF;" points="60,53.3 60,51.8 60,50.3 60,48.8 60,47.3 58.8,48 57.6,48.7 56.4,49.35 55.2,50 54.5,48.65 
	53.8,47.3 53.15,45.95 52.5,44.6 53.65,43.9 54.8,43.2 55.95,42.5 57.1,41.8 55.95,41.05 54.8,40.3 53.65,39.55 52.5,38.8 
	53.25,37.45 54,36.1 54.75,34.8 55.5,33.5 56.65,34.2 57.8,34.9 58.95,35.55 60.1,36.2 60.1,34.8 60.1,33.4 60.1,31.95 60.1,30.5 
	61.65,30.5 63.2,30.5 64.7,30.5 66.2,30.5 66.2,31.95 66.2,33.4 66.2,34.8 66.2,36.2 67.35,35.55 68.5,34.9 69.65,34.2 70.8,33.5 
	71.55,34.8 72.3,36.1 73.05,37.45 73.8,38.8 72.65,39.55 71.5,40.3 70.35,41.05 69.2,41.8 70.35,42.5 71.5,43.2 72.65,43.9 
	73.8,44.6 73.1,45.95 72.4,47.3 71.75,48.65 71.1,50 69.9,49.35 68.7,48.7 67.5,48 66.3,47.3 66.3,48.8 66.3,50.3 66.3,51.8 
	66.3,53.3 64.7,53.3 63.1,53.3 61.55,53.3 "/>
<path style="fill:#646464;" d="M56.2,30.4h2.45h2.45h2.45H66v2v2v2v2l1.95-0.95l1.95-0.95l1.95-0.95l1.95-0.95l1.2,1.7l1.2,1.7
	l1.2,1.7l1.2,1.7l-1.95,1.05L74.7,43.5l-2,1.05l-2,1.05l2,1l2,1l1.95,1l1.95,1l-1.05,1.7L76.5,53l-1.1,1.8l-1.1,1.8l-2-0.95l-2-0.95
	l-2-0.95l-2-0.95v2.1V57v2.1v2.1h-2.5h-2.5h-2.5h-2.5v-2.1V57v-2.1v-2.1l-2.15,0.95L52,54.7l-2.05,0.95L47.9,56.6l-1.1-1.75
	l-1.1-1.75l-1.1-1.75l-1.1-1.75l2-1l2-1l2-1l2-1l-2-1.05l-2-1.05l-2-1.05l-2-1.05l1.25-1.7L46,38l1.25-1.7l1.25-1.7l1.95,0.95
	l1.95,0.95l1.95,0.95l1.95,0.95v-2v-2v-2v-2 M55.7,30v1.9v1.9v1.9v1.9l-1.75-0.8L52.2,36l-1.75-0.85L48.7,34.3l-0.1-0.05l-0.1-0.05
	l-0.15-0.1L48.2,34l-0.1,0.1L48,34.2l-0.05,0.1l-0.05,0.1l-1.2,1.7l-1.2,1.7l-1.25,1.7L43,41.2l-0.05,0.1l-0.05,0.1l-0.05,0.1
	l-0.05,0.1l0.1,0.05L43,41.7l0.1,0.05l0.1,0.05l1.8,0.95l1.8,0.95l1.8,0.95l1.8,0.95l-1.8,0.9l-1.8,0.9L45,48.3l-1.8,0.9l-0.1,0.05
	L43,49.3l-0.1,0.05l-0.1,0.05l0.05,0.1l0.05,0.1l0.05,0.1L43,49.8l1.1,1.75l1.1,1.75l1.1,1.75l1.1,1.75l0.05,0.1L47.5,57l0.05,0.1
	l0.05,0.1l0.1-0.05l0.1-0.05l0.1-0.05L48,57l1.85-0.85l1.85-0.85l1.85-0.85l1.85-0.85v2v2v2v2h2.8H61h2.8h2.8v-2v-2v-2v-2l1.85,0.85
	l1.85,0.85l1.85,0.85L74,57l0.1,0.05l0.1,0.05l0.1,0.05l0.1,0.05l0.05-0.1L74.5,57l0.05-0.1l0.05-0.1l1.1-1.75l1.1-1.75l1.1-1.75
	L79,49.8l0.05-0.1l0.05-0.1l0.05-0.1l0.05-0.1l-0.1-0.05L79,49.3l0-0.05l0-0.05l-1.8-0.9l-1.8-0.9l-1.8-0.9l-1.8-0.9l1.8-0.95
	l1.8-0.95l1.8-0.95L79,41.8l0.1-0.05l0.1-0.05l0.1-0.05l0.1-0.05l-0.05-0.1l-0.05-0.1l-0.05-0.1l-0.05-0.1L78,39.5l-1.2-1.7
	l-1.25-1.7l-1.25-1.7l-0.05-0.1l-0.05-0.1l-0.1-0.05L74,34.1l-0.1,0.05l-0.1,0.05l-0.1,0.05l-0.1,0.05l-1.8,0.85L70,36l-1.75,0.85
	L66.5,37.7v-1.9v-1.9v-1.95V30h-2.7h-2.7h-2.7H55.7L55.7,30L55.7,30L55.7,30L55.7,30z"/>
<path style="fill-rule:evenodd;clip-rule:evenodd;fill:#CCCCCC;" d="M78.8,41.4l-1.2-1.7L76.4,38l-1.2-1.7L74,34.6l-2,0.95l-2,0.95
	l-2,0.95l-2,0.95v-2v-2v-2v-2h-2.45H61.1h-2.45H56.2v2v2v2v2l-1.95-0.95L52.3,36.5l-1.95-0.95L48.4,34.6l-1.25,1.7L45.9,38
	l-1.25,1.7l-1.25,1.7l2,1.05l2,1.05l2,1.05l2,1.05l-2,1l-2,1l-2,1l-2,1l1.1,1.75l1.1,1.75l1.1,1.75l1.1,1.75l2.05-0.95l2.05-0.95
	l2.05-0.95L56,52.8v2.1V57v2.1v2.1h2.5H61h2.55h2.55v-2.1V57v-2.05V52.9l2.05,0.95l2.05,0.95l2.05,0.95l2.05,0.95l1.1-1.75l1.1-1.75
	l1.1-1.75l1.1-1.75l-2-1l-2-1l-2-1l-2-1l2-1.05l2-1.05l2.05-1.1L78.8,41.4L78.8,41.4L78.8,41.4L78.8,41.4L78.8,41.4z"/>
<path style="fill:#0000FF;" d="M58.1,49.8h-0.5h-0.5h-0.5h-0.5v-1.35V47.1v-1.35V44.4l-0.4,0.85l-0.4,0.85l-0.4,0.85l-0.4,0.85
	h-0.35H53.8h-0.35H53.1l-0.35-0.85L52.4,46.1l-0.35-0.85L51.7,44.4v1.35v1.35v1.35v1.35h-0.5h-0.5h-0.5h-0.5v-2v-2v-2v-2h0.6h0.6
	h0.6h0.6l0.45,1l0.45,1l0.45,1l0.45,1l0.45-1l0.45-1l0.45-1l0.45-1h0.6h0.6h0.6h0.6v2v2l0,2L58.1,49.8z"/>
<path style="fill:#0000FF;" d="M63.8,49.9c-0.15,0-0.3,0-0.438-0.013S63.1,49.85,63,49.8c-0.15,0-0.275-0.025-0.4-0.062
	s-0.25-0.088-0.4-0.138c-0.1-0.05-0.225-0.1-0.35-0.15c-0.125-0.05-0.25-0.1-0.35-0.15s-0.2-0.125-0.3-0.212
	C61.1,49,61,48.9,60.9,48.8s-0.2-0.2-0.288-0.3c-0.087-0.1-0.162-0.2-0.212-0.3s-0.125-0.225-0.188-0.35S60.1,47.6,60.1,47.5
	c-0.1-0.3-0.175-0.6-0.225-0.9c-0.05-0.3-0.075-0.6-0.075-0.9s0.025-0.6,0.075-0.9c0.05-0.3,0.125-0.6,0.225-0.9
	c0.1-0.25,0.2-0.5,0.325-0.725C60.55,42.95,60.7,42.75,60.9,42.6c0.2-0.2,0.4-0.375,0.612-0.525c0.213-0.15,0.438-0.275,0.688-0.375
	c0.15-0.05,0.275-0.1,0.4-0.138c0.125-0.037,0.25-0.062,0.4-0.062s0.3-0.025,0.45-0.05c0.15-0.025,0.3-0.05,0.45-0.05
	c0.1,0,0.175,0,0.25,0s0.15,0,0.25,0s0.175,0,0.25,0s0.15,0,0.25,0c0.05,0,0.125,0,0.2,0.013c0.075,0.012,0.15,0.037,0.2,0.087
	s0.1,0.075,0.162,0.087C65.525,41.6,65.6,41.6,65.7,41.6c0.05,0,0.1,0.025,0.15,0.05c0.05,0.025,0.1,0.05,0.15,0.05
	c0.05,0,0.1,0.025,0.15,0.05c0.05,0.025,0.1,0.05,0.15,0.05l0.15,0.05l0.15,0.05l0.15,0.05L66.9,42v0.5V43v0.5V44h-0.05H66.8h-0.05
	H66.7l-0.1-0.1l-0.1-0.1l-0.25,0.05L66,43.9c-0.05-0.05-0.1-0.075-0.15-0.1c-0.05-0.025-0.1-0.05-0.15-0.1s-0.1-0.075-0.15-0.1
	c-0.05-0.025-0.1-0.05-0.15-0.1c-0.05-0.05-0.1-0.075-0.15-0.1c-0.05-0.025-0.1-0.05-0.15-0.1c-0.05,0-0.1-0.025-0.15-0.05
	c-0.05-0.025-0.1-0.05-0.15-0.05c-0.15-0.05-0.275-0.075-0.4-0.087C64.275,43.1,64.15,43.1,64,43.1s-0.275,0-0.4,0.013
	c-0.125,0.012-0.25,0.037-0.4,0.087c-0.05,0-0.125,0.025-0.2,0.062c-0.075,0.037-0.15,0.087-0.2,0.138c-0.05,0.05-0.1,0.1-0.15,0.15
	c-0.05,0.05-0.1,0.1-0.15,0.15s-0.1,0.1-0.15,0.162C62.3,43.925,62.25,44,62.2,44.1s-0.1,0.175-0.138,0.237
	C62.025,44.4,62,44.45,62,44.5c-0.05,0.1-0.075,0.2-0.1,0.3c-0.025,0.1-0.05,0.2-0.1,0.3c0,0.1,0,0.2,0,0.3c0,0.1,0,0.2,0,0.3
	c0,0.1,0,0.2,0,0.3c0,0.1,0,0.2,0,0.3s0.025,0.2,0.062,0.3S61.95,46.8,62,46.9c0.05,0.1,0.075,0.175,0.1,0.237
	c0.025,0.062,0.05,0.113,0.1,0.163c0.05,0.05,0.1,0.125,0.15,0.2c0.05,0.075,0.1,0.15,0.15,0.2s0.1,0.1,0.15,0.138
	c0.05,0.037,0.1,0.062,0.15,0.062s0.125,0.025,0.2,0.062s0.15,0.088,0.2,0.138c0.05,0,0.125,0.025,0.2,0.05s0.15,0.05,0.2,0.05
	c0.05,0,0.125,0,0.2,0s0.15,0,0.2,0c0.05,0,0.125,0,0.2,0c0.075,0,0.15,0,0.2,0s0.1,0,0.162-0.013
	C64.625,48.175,64.7,48.15,64.8,48.1c0.05,0,0.1-0.025,0.15-0.05C65,48.025,65.05,48,65.1,48c0.05,0,0.1-0.025,0.15-0.062
	c0.05-0.037,0.1-0.087,0.15-0.138l0.1-0.1l0.1-0.1l0.1-0.1l0.1-0.1l0.1-0.1l0.1-0.1l0.1-0.1l0.1-0.1h0.05h0.05h0.05h0.05v0.5V48v0.5
	V49l-0.15,0.05L66.1,49.1l-0.15,0.05L65.8,49.2c-0.05,0-0.1,0.025-0.15,0.05c-0.05,0.025-0.1,0.05-0.15,0.05
	c-0.05,0-0.1,0.025-0.15,0.05c-0.05,0.025-0.1,0.05-0.15,0.05c-0.05,0-0.1,0.025-0.162,0.05S64.9,49.5,64.8,49.5
	c-0.05,0-0.125,0.025-0.2,0.05c-0.075,0.025-0.15,0.05-0.2,0.05c-0.1,0-0.175,0-0.25,0s-0.15,0-0.25,0
	c0.1,0.15,0.1,0.225,0.063,0.263C63.925,49.9,63.85,49.9,63.8,49.9z"/>
<path style="fill:#0000FF;" d="M72.5,49.8h-1.15H70.2h-1.15H67.9v-0.35V49.1v-0.35V48.4h0.35h0.35h0.35h0.35v-1.3v-1.3v-1.3v-1.3
	h-0.35H68.6h-0.35H67.9v-0.35V42.5v-0.35V41.8h1.15h1.15h1.15h1.15v0.35v0.35v0.35v0.35h-0.35H71.8h-0.35H71.1v1.3v1.3v1.3v1.3h0.35
	h0.35h0.35h0.35v0.35v0.35v0.35V49.8z"/>
</svg>
