<?xml version="1.0" encoding="iso-8859-1"?>
<!-- Generator: Adobe Illustrator 25.4.1, SVG Export Plug-In . SVG Version: 6.00 Build 0)  -->
<svg version="1.1" id="Layer_1" xmlns="http://www.w3.org/2000/svg" xmlns:xlink="http://www.w3.org/1999/xlink" x="0px" y="0px"
	 viewBox="0 0 100 100" style="enable-background:new 0 0 100 100;" xml:space="preserve">
<path style="fill:#4D4D4D;" d="M74.5,37.5c0.35-0.35,0.65-0.725,0.912-1.125c0.262-0.4,0.487-0.825,0.688-1.275
	c0.15-0.45,0.275-0.925,0.35-1.4c0.075-0.475,0.1-0.95,0.05-1.4c0-0.15-0.025-0.3-0.062-0.438S76.35,31.6,76.3,31.5
	c-0.05-0.1-0.1-0.15-0.15-0.175C76.1,31.3,76.05,31.3,76,31.3s-0.175,0.2-0.35,0.525C75.475,32.15,75.25,32.6,75,33.1
	s-0.55,1.05-0.838,1.575C73.875,35.2,73.6,35.7,73.4,36.1c-0.25,0.35-0.525,0.675-0.812,0.987S72,37.7,71.7,38
	c-0.3,0.25-0.65,0.5-1.012,0.725C70.325,38.95,69.95,39.15,69.6,39.3c-0.4,0.05-0.8,0.075-1.188,0.075S67.65,39.35,67.3,39.3
	c-0.4-0.05-0.775-0.1-1.15-0.15C65.775,39.1,65.4,39.05,65,39c-0.45-0.2-0.875-0.425-1.288-0.663C63.3,38.1,62.9,37.85,62.5,37.6
	s-0.8-0.5-1.188-0.763C60.925,36.575,60.55,36.3,60.2,36c0-0.25,0.025-0.475,0.05-0.7s0.05-0.45,0.05-0.7s0-0.475-0.013-0.7
	c-0.012-0.225-0.037-0.45-0.087-0.7c-0.25-1.2-0.525-2.175-0.812-2.975C59.1,29.425,58.8,28.8,58.5,28.3
	c-0.3-0.5-0.55-0.85-0.737-1.075C57.575,27,57.45,26.9,57.4,26.9c0-0.15,0-0.3,0-0.45c0-0.15,0-0.3,0-0.45s0-0.3-0.013-0.45
	c-0.013-0.15-0.037-0.3-0.087-0.45c-0.15,0-0.25,0.125-0.325,0.312S56.85,25.85,56.8,26.1s-0.075,0.5-0.087,0.688
	S56.7,27.1,56.7,27.1c-0.15,0-0.35,0.15-0.575,0.375C55.9,27.7,55.65,28,55.4,28.3s-0.475,0.625-0.65,0.9s-0.3,0.5-0.35,0.6
	S54.2,30,54,30.1c-0.2,0.1-0.45,0.2-0.7,0.3s-0.475,0.2-0.65,0.288s-0.3,0.162-0.35,0.212c0,0.2,0.025,0.4,0.087,0.587
	S52.55,31.85,52.7,32c0.1,0.15,0.25,0.3,0.425,0.425S53.5,32.65,53.7,32.7h0.55h0.55h0.55h0.55c-0.2,0.7-0.35,1.375-0.475,2.05
	C55.3,35.425,55.2,36.1,55.1,36.8s-0.175,1.4-0.237,2.1S54.75,40.3,54.7,41c0,0.7,0.225,1.4,0.562,2.075S56.05,44.4,56.5,45
	s0.925,1.1,1.3,1.475s0.65,0.625,0.7,0.725s0.125,0.4,0.225,0.8c0.1,0.4,0.225,0.9,0.375,1.4c0.1,0.5,0.225,1.025,0.325,1.438
	S59.6,51.55,59.6,51.6s0,0.35,0,0.775s0,0.975,0,1.525s0,1.1,0,1.55s0,0.8,0,0.95c0,0.1-0.025,0.2-0.062,0.3
	C59.5,56.8,59.45,56.9,59.4,57c-0.05,0.1-0.125,0.175-0.212,0.25C59.1,57.325,59,57.4,58.9,57.5s-0.175,0.225-0.225,0.362
	C58.625,58,58.6,58.15,58.6,58.3s0,0.3,0.013,0.412C58.625,58.825,58.65,58.9,58.7,58.9c0.3,0,0.55-0.025,0.75-0.075
	c0.2-0.05,0.35-0.125,0.45-0.225s0.175-0.2,0.225-0.288c0.05-0.087,0.075-0.162,0.075-0.212v-0.65V56.8v-0.65V55.5
	c0.05-0.05,0.1-0.1,0.138-0.15c0.037-0.05,0.062-0.1,0.062-0.15s0.025-0.1,0.05-0.15c0.025-0.05,0.05-0.1,0.05-0.15s0-0.1,0-0.15
	c0-0.05,0-0.1,0-0.15s-0.025-0.1-0.05-0.138C60.425,54.425,60.4,54.4,60.4,54.4l0,0l0,0l0,0l0,0c0-0.1,0-0.2,0-0.3
	c0-0.1,0-0.2,0-0.3s-0.025-0.2-0.05-0.3c-0.025-0.1-0.05-0.2-0.05-0.3c0-0.8,0-1.65,0.013-2.463S60.35,49.15,60.4,48.5
	c0-0.65,0.025-1.225,0.05-1.638C60.475,46.45,60.5,46.2,60.5,46.2c0.45,0,0.825-0.05,1.15-0.112c0.325-0.062,0.6-0.138,0.85-0.188
	c0.3-0.1,0.6-0.175,0.95-0.225c0.35-0.05,0.75-0.075,1.25-0.075c0.25,0,0.5,0.025,0.75,0.062s0.5,0.088,0.75,0.138
	s0.5,0.125,0.738,0.212C67.175,46.1,67.4,46.2,67.6,46.3c0,0.35,0.075,0.675,0.188,0.975c0.113,0.3,0.263,0.575,0.412,0.825
	c0.2,0.25,0.425,0.5,0.675,0.713C69.125,49.025,69.4,49.2,69.7,49.3c0.2,0.2,0.4,0.4,0.588,0.6c0.188,0.2,0.362,0.4,0.512,0.6
	s0.325,0.4,0.5,0.612c0.175,0.213,0.35,0.438,0.5,0.688v0.85v0.85v0.85v0.85c-0.1,0-0.2,0.075-0.3,0.188
	c-0.1,0.112-0.2,0.263-0.3,0.412c-0.05,0.15-0.1,0.3-0.137,0.412S71,56.4,71,56.4h0.3h0.3h0.3h0.3v-1.45V53.5v-1.45V50.6
	c0.15,0.15,0.3,0.325,0.45,0.5c0.15,0.175,0.3,0.35,0.45,0.5c0.15,0.2,0.275,0.4,0.388,0.6c0.112,0.2,0.212,0.4,0.312,0.6v0.9v0.9
	v0.9v0.9c-0.2,0.15-0.35,0.3-0.463,0.45C73.225,57,73.15,57.15,73.1,57.3s-0.075,0.275-0.088,0.362C73,57.75,73,57.8,73,57.8h0.25
	h0.25h0.25H74c0.15-0.05,0.275-0.45,0.363-1.037C74.45,56.175,74.5,55.4,74.5,54.6s0-1.625-0.025-2.287
	C74.45,51.65,74.4,51.15,74.3,51c-0.3-0.35-0.6-0.7-0.875-1.062C73.15,49.575,72.9,49.2,72.7,48.8c-0.25-0.4-0.45-0.825-0.613-1.263
	S71.8,46.65,71.7,46.2c0.05-0.5,0.05-1.025,0.012-1.55S71.6,43.6,71.5,43.1s-0.25-1-0.45-1.487c-0.2-0.487-0.45-0.963-0.75-1.413
	c0.4,0,0.725,0,1.013-0.05C71.6,40.1,71.85,40,72.1,39.8c0.35-0.2,0.675-0.475,1.05-0.85C73.525,38.575,73.95,38.1,74.5,37.5z"/>
<polygon style="fill:#B3B3B3;" points="34.8,27.4 34.15,27.4 33.5,27.4 32.85,27.4 32.2,27.4 32.2,28.4 32.2,29.4 32.2,30.35 
	32.2,31.3 32.85,32.45 33.5,33.6 34.15,34.7 34.8,35.8 34.8,33.7 34.8,31.6 34.8,29.5 "/>
<path style="fill:#B3B3B3;" d="M34.3,40.6v4.3v4.3v4.3v4.3c0,0.2,0.025,0.4,0.062,0.588C34.4,58.575,34.45,58.75,34.5,58.9
	s0.125,0.325,0.213,0.5C34.8,59.575,34.9,59.75,35,59.9c0.35,0.55,0.65,1.275,0.9,2.05c0.25,0.775,0.45,1.6,0.6,2.35
	s0.25,1.425,0.312,1.912S36.9,67,36.9,67h7.15h7.15h7.15h7.15c0-0.3,0.1-0.975,0.325-1.825C66.05,64.325,66.4,63.3,66.9,62.3
	c0.5-1,1.175-1.95,2.05-2.65c0.875-0.7,1.95-1.15,3.25-1.15c1.3,0,2.325,0.5,3.125,1.25c0.8,0.75,1.375,1.75,1.775,2.75
	s0.65,2,0.8,2.75c0.15,0.75,0.2,1.25,0.2,1.25h2.1h2.1h2.1h2.1l0.65-2.35l0.65-2.35l0.65-2.35l0.65-2.35v-4.15V48.8v-4.15V40.5
	H75.45H61.8c0,0.05-6.875,0.075-13.75,0.088S34.3,40.6,34.3,40.6z M86.4,56H73.95H61.5H49.05H36.6v-3.1v-3.1v-3.1v-3.1h12.45H61.5
	h12.45H86.4v3.1v3.1v3.1V56z"/>
<path style="fill:#B3B3B3;" d="M26.8,75c-0.7,0-1.35-0.2-1.938-0.562S23.75,73.55,23.3,72.9s-0.8-1.425-1.038-2.287
	C22.025,69.75,21.9,68.8,21.9,67.8s0.125-1.95,0.362-2.812C22.5,64.125,22.85,63.35,23.3,62.7s0.975-1.175,1.562-1.537
	C25.45,60.8,26.1,60.6,26.8,60.6s1.35,0.2,1.938,0.562S29.85,62.05,30.3,62.7c0.45,0.65,0.8,1.425,1.038,2.287
	C31.575,65.85,31.7,66.8,31.7,67.8s-0.125,1.95-0.362,2.812C31.1,71.475,30.75,72.25,30.3,72.9s-0.975,1.175-1.562,1.537
	C28.15,74.8,27.5,75,26.8,75z M26.8,62.5c-0.35,0-0.7,0.125-1.025,0.375C25.45,63.125,25.15,63.5,24.9,64
	c-0.25,0.45-0.475,1-0.637,1.637C24.1,66.275,24,67,24,67.8c0,0.75,0.1,1.45,0.263,2.088C24.425,70.525,24.65,71.1,24.9,71.6
	c0.25,0.45,0.575,0.825,0.913,1.088C26.15,72.95,26.5,73.1,26.8,73.1s0.65-0.125,0.987-0.375c0.338-0.25,0.663-0.625,0.913-1.125
	c0.25-0.45,0.475-1,0.637-1.637C29.5,69.325,29.6,68.6,29.6,67.8c0-0.75-0.1-1.45-0.263-2.088C29.175,65.075,28.95,64.5,28.7,64
	c-0.25-0.45-0.55-0.825-0.875-1.088C27.5,62.65,27.15,62.5,26.8,62.5z"/>
<path style="fill:#B3B3B3;" d="M71.7,75c-0.7,0-1.35-0.2-1.938-0.562S68.65,73.55,68.2,72.9s-0.8-1.425-1.037-2.287
	C66.925,69.75,66.8,68.8,66.8,67.8s0.125-1.95,0.363-2.812C67.4,64.125,67.75,63.35,68.2,62.7c0.45-0.65,0.975-1.175,1.562-1.537
	S71,60.6,71.7,60.6s1.35,0.2,1.938,0.562S74.75,62.05,75.2,62.7c0.45,0.65,0.8,1.425,1.037,2.287C76.475,65.85,76.6,66.8,76.6,67.8
	s-0.125,1.95-0.363,2.812C76,71.475,75.65,72.25,75.2,72.9c-0.5,0.65-1.05,1.175-1.637,1.537C72.975,74.8,72.35,75,71.7,75z
	 M71.7,62.5c-0.35,0-0.7,0.125-1.025,0.375C70.35,63.125,70.05,63.5,69.8,64c-0.25,0.45-0.475,1-0.638,1.637
	C69,66.275,68.9,67,68.9,67.8c0,0.75,0.1,1.45,0.262,2.088C69.325,70.525,69.55,71.1,69.8,71.6c0.25,0.45,0.575,0.825,0.912,1.088
	C71.05,72.95,71.4,73.1,71.7,73.1c0.35,0,0.7-0.125,1.025-0.375C73.05,72.475,73.35,72.1,73.6,71.6c0.25-0.45,0.475-1,0.638-1.637
	C74.4,69.325,74.5,68.6,74.5,67.8c0-0.75-0.1-1.45-0.262-2.088C74.075,65.075,73.85,64.5,73.6,64
	c-0.25-0.45-0.575-0.825-0.912-1.088C72.35,62.65,72,62.5,71.7,62.5z"/>
<path style="fill:#B3B3B3;" d="M34.7,63.5c-0.05-0.35-0.125-0.675-0.225-1c-0.1-0.325-0.225-0.65-0.375-1
	c-0.15-0.3-0.3-0.6-0.462-0.9C33.475,60.3,33.3,60,33.1,59.7c-0.05-0.1-0.1-0.175-0.15-0.25c-0.05-0.075-0.1-0.15-0.15-0.25
	s-0.075-0.2-0.087-0.3C32.7,58.8,32.7,58.7,32.7,58.6v-5.9v-5.9v-5.9V35h-0.45H31.8h-0.45H30.9v-1v-1v-1v-1h-3.75H23.4h-3.7H16
	l-1.3,3.95l-1.3,3.95l-1.3,3.95l-1.3,3.95v3.35v3.35v3.25V60c0,0,0.1-0.025,0.262-0.037C11.225,59.95,11.45,59.95,11.7,60
	c0.2,0.05,0.425,0.125,0.6,0.275c0.175,0.15,0.3,0.375,0.3,0.725s-0.1,0.6-0.262,0.763C12.175,61.925,11.95,62,11.7,62
	c-0.2,0.05-0.425,0.05-0.6,0.037C10.925,62.025,10.8,62,10.8,62v1.15v1.15v1.15v1.15h2.4h2.4H18h2.4c0,0,0.1-0.325,0.275-0.838
	C20.85,65.25,21.1,64.55,21.4,63.8c0.35-0.75,0.75-1.575,1.212-2.325c0.463-0.75,0.987-1.425,1.587-1.875
	c0.5-0.4,1.075-0.65,1.675-0.787c0.6-0.138,1.225-0.163,1.825-0.113s1.175,0.2,1.7,0.425c0.525,0.225,1,0.525,1.4,0.875
	s0.775,0.9,1.125,1.575S32.6,63.05,32.9,63.9s0.525,1.75,0.675,2.625S33.8,68.25,33.8,69h0.4h0.4H35h0.4
	c0-0.45-0.025-0.925-0.075-1.4c-0.05-0.475-0.125-0.95-0.225-1.4c0-0.45-0.05-0.9-0.125-1.35C34.9,64.4,34.8,63.95,34.7,63.5z
	 M18.4,45.6h-0.85H16.7h-0.85H15l0.5-2.45L16,40.7l0.5-2.45L17,35.8h0.35h0.35h0.35h0.35v2.45v2.45c0,0,0,1.225,0,2.45
	S18.4,45.6,18.4,45.6z M26.5,45.6h-1.55H23.4h-1.55H20.3v-2.45V40.7v-2.45V35.8h1.55h1.55h1.55h1.55v2.45v2.45v2.45V45.6z"/>
</svg>
