<?xml version="1.0" encoding="iso-8859-1"?>
<!-- Generator: Adobe Illustrator 25.4.1, SVG Export Plug-In . SVG Version: 6.00 Build 0)  -->
<svg version="1.1" id="Layer_1" xmlns="http://www.w3.org/2000/svg" xmlns:xlink="http://www.w3.org/1999/xlink" x="0px" y="0px"
	 viewBox="0 0 100 100" style="enable-background:new 0 0 100 100;" xml:space="preserve">
<path style="fill:#666666;" d="M82.1,41.1c-0.15,0-1,0.175-2.175,0.45C78.75,41.825,77.25,42.2,75.8,42.6
	c-1.5,0.35-2.95,0.725-4.025,1.037S70,44.2,70,44.3s0.075,0.2,0.2,0.312S70.5,44.85,70.7,45s0.375,0.275,0.5,0.388
	s0.2,0.212,0.2,0.312s-0.35,0.725-0.875,1.6s-1.225,2-1.925,3.1s-1.4,2.2-1.95,3.038C66.1,54.275,65.7,54.85,65.6,54.9
	s-1,0.225-2.325,0.463C61.95,55.6,60.2,55.9,58.4,56.2s-3.6,0.6-5,0.825C52,57.25,51,57.4,50.8,57.4h-0.5h-0.5h-0.5h-0.5
	c0-0.2,0.025-0.45,0.05-0.713c0.025-0.262,0.05-0.537,0.05-0.787s-0.025-0.475-0.075-0.638C48.775,55.1,48.7,55,48.6,55
	s-0.2,0.1-0.312,0.263C48.175,55.425,48.05,55.65,47.9,55.9s-0.25,0.525-0.338,0.787C47.475,56.95,47.4,57.2,47.3,57.4
	c-1.5,0-3.35,0-5.288,0s-3.963,0-5.812,0s-3.55,0-4.825,0c-1.275,0-2.125,0-2.275,0c-0.2,0-0.5,0.2-0.837,0.5
	c-0.338,0.3-0.713,0.7-1.062,1.1c-0.4,0.4-0.775,0.825-1.112,1.175C25.75,60.525,25.45,60.8,25.2,60.9
	c-0.35,0.1-0.7,0.225-1.05,0.35c-0.35,0.125-0.7,0.25-1.05,0.35c-0.3,0.1-0.6,0.225-0.9,0.35c-0.3,0.125-0.6,0.25-0.9,0.35v-0.95
	V60.4v-0.95V58.5l0,0l0,0l0,0l0,0c0-0.15-0.025-0.275-0.075-0.375C21.175,58.025,21.1,57.95,21,57.9c-0.1-0.1-0.2-0.175-0.312-0.225
	C20.575,57.625,20.45,57.6,20.3,57.6l0,0l0,0l0,0l0,0h-0.05H20.2l0,0l0,0v1.3v1.3l0.05,1.3l0.05,1.3
	c-1.25,0.55-2.225,1.075-2.987,1.563C16.55,64.85,16,65.3,15.6,65.7s-0.625,0.7-0.75,0.9c-0.125,0.2-0.15,0.3-0.15,0.3
	c0,0.35,0.225,0.675,0.587,0.988S16.15,68.5,16.7,68.8c0.55,0.25,1.15,0.5,1.7,0.7c0.55,0.2,1.05,0.35,1.4,0.4l0.15,0.05L20.1,70
	l0.15,0.05l0.15,0.05l0.05,1.6l0.05,1.6l0.05,1.6l0.05,1.6h0.25h0.25h0.25h0.25l-0.05-1.45L21.5,73.6l-0.05-1.45L21.4,70.7
	c1,0.4,1.925,0.65,2.837,0.8c0.913,0.15,1.812,0.2,2.763,0.2s1.925-0.025,2.975-0.05c1.05-0.025,2.175-0.05,3.425-0.05
	c2,0,4-0.075,5.987-0.238S43.35,70.95,45.3,70.6c1.95-0.35,3.9-0.75,5.825-1.225S54.95,68.35,56.8,67.7
	c0.55-0.2,1.425-0.475,2.475-0.775c1.05-0.3,2.275-0.625,3.525-0.925c1.2-0.3,2.4-0.6,3.425-0.862
	C67.25,64.875,68.1,64.65,68.6,64.5s0.85-0.3,1.1-0.463s0.4-0.337,0.5-0.537s0.15-0.375,0.2-0.538c0.05-0.162,0.1-0.312,0.2-0.462
	c0.1-0.1,0.375-0.275,0.75-0.475c0.375-0.2,0.85-0.425,1.35-0.625s0.975-0.425,1.338-0.612C74.4,60.6,74.65,60.45,74.7,60.4
	c0.05-0.1,0.35-1,0.775-2.312C75.9,56.775,76.45,55.05,77,53.3s1.125-3.525,1.6-4.938c0.475-1.412,0.85-2.463,1-2.763
	c0.15-0.25,0.575-0.625,1.137-1.037C81.3,44.15,82,43.7,82.7,43.3s1.35-0.8,1.812-1.112S85.25,41.65,85.2,41.6
	c-0.2-0.2-0.45-0.325-0.725-0.413C84.2,41.1,83.9,41.05,83.6,41c-0.3,0-0.6,0-0.862,0.013C82.475,41.025,82.25,41.05,82.1,41.1z"/>
<path style="fill:#FFFFFF;" d="M35.6,58.8c0.15,0,0.3,0.05,0.45,0.138c0.15,0.088,0.3,0.213,0.45,0.362s0.25,0.325,0.312,0.525
	S36.9,60.25,36.9,60.5s-0.025,0.475-0.088,0.675S36.65,61.55,36.5,61.7s-0.275,0.275-0.413,0.362S35.8,62.2,35.6,62.2
	c-0.15,0-0.3-0.05-0.45-0.138C35,61.975,34.85,61.85,34.7,61.7s-0.25-0.325-0.312-0.525S34.3,60.75,34.3,60.5
	s0.025-0.475,0.088-0.675S34.55,59.45,34.7,59.3s0.3-0.275,0.45-0.362C35.3,58.85,35.45,58.8,35.6,58.8z"/>
<path style="fill:#FFFFFF;" d="M29.8,58.8c0.15,0,0.3,0.05,0.45,0.138c0.15,0.088,0.3,0.213,0.45,0.362
	c0.1,0.15,0.2,0.325,0.275,0.525c0.075,0.2,0.125,0.425,0.125,0.675s-0.025,0.475-0.087,0.675S30.85,61.55,30.7,61.7
	s-0.275,0.275-0.413,0.362C30.15,62.15,30,62.2,29.8,62.2c-0.15,0-0.3-0.05-0.45-0.138c-0.15-0.088-0.3-0.213-0.45-0.362
	c-0.1-0.15-0.2-0.325-0.275-0.525C28.55,60.975,28.5,60.75,28.5,60.5s0.025-0.475,0.087-0.675S28.75,59.45,28.9,59.3
	c0.1-0.15,0.225-0.275,0.375-0.362S29.6,58.8,29.8,58.8z"/>
<path style="fill:#FFFFFF;" d="M38.3,58.8c0.15,0,0.3,0.05,0.45,0.138c0.15,0.088,0.3,0.213,0.45,0.362s0.25,0.325,0.313,0.525
	S39.6,60.25,39.6,60.5s-0.025,0.475-0.087,0.675S39.35,61.55,39.2,61.7c-0.1,0.15-0.225,0.275-0.375,0.362
	C38.675,62.15,38.5,62.2,38.3,62.2s-0.35-0.05-0.487-0.138C37.675,61.975,37.55,61.85,37.4,61.7s-0.25-0.325-0.313-0.525
	S37,60.75,37,60.5s0.025-0.475,0.087-0.675S37.25,59.45,37.4,59.3s0.3-0.275,0.45-0.362C38,58.85,38.15,58.8,38.3,58.8z"/>
<path style="fill:#FFFFFF;" d="M28.1,57.8v0.95v0.95v0.95v0.95c0,0.05,0,0.1-0.013,0.15C28.075,61.8,28.05,61.85,28,61.9
	s-0.075,0.075-0.1,0.087S27.85,62,27.8,62s-0.175-0.05-0.337-0.138C27.3,61.775,27.1,61.65,26.9,61.5
	c-0.25-0.1-0.525-0.2-0.812-0.275S25.5,61.1,25.2,61.1l0.75-0.8l0.75-0.8l0.7-0.85L28.1,57.8z"/>
<path style="fill:#FFFFFF;" d="M55.4,59.2c0.1,0,0.225,0.025,0.338,0.087C55.85,59.35,55.95,59.45,56,59.6s0.125,0.275,0.188,0.413
	C56.25,60.15,56.3,60.3,56.3,60.5s-0.025,0.375-0.075,0.525C56.175,61.175,56.1,61.3,56,61.4s-0.2,0.2-0.3,0.275
	c-0.1,0.075-0.2,0.125-0.3,0.125s-0.225-0.025-0.337-0.087S54.85,61.55,54.8,61.4s-0.125-0.275-0.188-0.413
	C54.55,60.85,54.5,60.7,54.5,60.5s0.025-0.375,0.075-0.525c0.05-0.15,0.125-0.275,0.225-0.375s0.2-0.2,0.3-0.275
	S55.3,59.2,55.4,59.2z"/>
<path style="fill:#FFFFFF;" d="M47.1,59.2c0.1,0,0.225,0.025,0.338,0.087C47.55,59.35,47.65,59.45,47.7,59.6
	s0.125,0.275,0.188,0.413C47.95,60.15,48,60.3,48,60.5s-0.025,0.375-0.075,0.525C47.875,61.175,47.8,61.3,47.7,61.4
	s-0.2,0.2-0.3,0.275c-0.1,0.075-0.2,0.125-0.3,0.125s-0.225-0.025-0.337-0.087S46.55,61.55,46.5,61.4
	c-0.1-0.1-0.175-0.225-0.225-0.375C46.225,60.875,46.2,60.7,46.2,60.5s0.025-0.375,0.075-0.525c0.05-0.15,0.125-0.275,0.225-0.375
	s0.2-0.2,0.3-0.275C46.9,59.25,47,59.2,47.1,59.2z"/>
<path style="fill:#FFFFFF;" d="M43.7,58.8c0.15,0,0.3,0.05,0.45,0.138c0.15,0.088,0.3,0.213,0.45,0.362s0.25,0.325,0.313,0.525
	S45,60.25,45,60.5s-0.025,0.475-0.087,0.675S44.75,61.55,44.6,61.7c-0.1,0.15-0.225,0.275-0.375,0.362
	C44.075,62.15,43.9,62.2,43.7,62.2s-0.375-0.05-0.525-0.138C43.025,61.975,42.9,61.85,42.8,61.7s-0.2-0.325-0.275-0.525
	S42.4,60.75,42.4,60.5s0.025-0.475,0.087-0.675S42.65,59.45,42.8,59.3c0.1-0.15,0.225-0.275,0.375-0.362
	C43.325,58.85,43.5,58.8,43.7,58.8z"/>
<path style="fill:#FFFFFF;" d="M41,58.8c0.15,0,0.3,0.05,0.45,0.138c0.15,0.088,0.3,0.213,0.45,0.362s0.25,0.325,0.312,0.525
	S42.3,60.25,42.3,60.5s-0.025,0.475-0.088,0.675S42.05,61.55,41.9,61.7s-0.275,0.275-0.413,0.362S41.2,62.2,41,62.2
	c-0.15,0-0.3-0.05-0.45-0.138c-0.15-0.088-0.3-0.213-0.45-0.362s-0.25-0.325-0.312-0.525S39.7,60.75,39.7,60.5
	s0.025-0.475,0.088-0.675S39.95,59.45,40.1,59.3s0.275-0.275,0.413-0.362S40.8,58.8,41,58.8z"/>
<polygon style="fill:#ACACAC;" points="63.3,34.2 60.6,34.2 57.9,34.2 55.25,34.2 52.6,34.2 52.6,31.5 52.6,28.8 52.6,26.1 
	52.6,23.4 50.65,23.4 48.7,23.4 46.8,23.4 44.9,23.4 44.9,26.1 44.9,28.8 44.9,31.5 44.9,34.2 42.2,34.2 39.5,34.2 36.85,34.2 
	34.2,34.2 34.2,36.1 34.2,38 34.2,39.9 34.2,41.8 36.85,41.8 39.5,41.8 42.2,41.8 44.9,41.8 44.9,44.5 44.9,47.2 44.9,49.85 
	44.9,52.5 46.8,52.5 48.7,52.5 50.65,52.5 52.6,52.5 52.6,49.85 52.6,47.2 52.6,44.5 52.6,41.8 55.25,41.8 57.9,41.8 60.6,41.8 
	63.3,41.8 63.3,39.9 63.3,38 63.3,36.1 "/>
</svg>
