<?xml version="1.0" encoding="iso-8859-1"?>
<!-- Generator: Adobe Illustrator 25.4.1, SVG Export Plug-In . SVG Version: 6.00 Build 0)  -->
<svg version="1.1" id="Layer_1" xmlns="http://www.w3.org/2000/svg" xmlns:xlink="http://www.w3.org/1999/xlink" x="0px" y="0px"
	 viewBox="0 0 100 100" style="enable-background:new 0 0 100 100;" xml:space="preserve">
<path style="fill:#B2B2B2;" d="M86.8,57.7c0.05,0,0.125-0.025,0.2-0.05c0.075-0.025,0.15-0.05,0.2-0.05
	c0.05-0.05,0.075-0.1,0.088-0.162C87.3,57.375,87.3,57.3,87.3,57.2v-0.55V56.1v-0.55V55c0-0.05-0.025-0.125-0.05-0.2
	c-0.025-0.075-0.05-0.15-0.05-0.2c-0.05-0.05-0.1-0.075-0.162-0.087C86.975,54.5,86.9,54.5,86.8,54.5h-0.25H86.3h-0.25H85.8v-1.95
	V50.6v-1.95V46.7c0-0.05,0-0.1-0.012-0.15c-0.013-0.05-0.038-0.1-0.088-0.15c0-0.05-0.025-0.075-0.062-0.1s-0.088-0.05-0.137-0.1
	l-3.05-1.6L79.4,43l-3.05-1.6l-3.05-1.6v-2.3v-2.3v-2.3v-2.3c0-0.2-0.025-0.4-0.088-0.587S73.05,29.65,72.9,29.5
	s-0.3-0.275-0.463-0.375c-0.162-0.1-0.338-0.175-0.537-0.225v-0.55V27.8v-0.55V26.7l0.35-0.35L72.6,26l0.35-0.35l0.35-0.35
	c0.05-0.05,0.075-0.1,0.1-0.15c0.025-0.05,0.05-0.1,0.1-0.15c0-0.05,0-0.1-0.012-0.15c-0.013-0.05-0.038-0.1-0.088-0.15l0,0l0,0l0,0
	l0,0c-0.05-0.05-0.1-0.075-0.15-0.1c-0.05-0.025-0.1-0.05-0.15-0.1s-0.1-0.05-0.15-0.025C72.9,24.5,72.85,24.55,72.8,24.6l0,0l0,0
	l0,0l0,0l-0.35,0.35L72.1,25.3l-0.35,0.35L71.4,26c0,0-0.025,0.025-0.05,0.062C71.325,26.1,71.3,26.15,71.3,26.2s0,0.075,0,0.1
	s0,0.05,0,0.1V27v0.6v0.6v0.6c-0.2,0.05-0.375,0.125-0.525,0.225S70.5,29.25,70.4,29.4s-0.2,0.325-0.275,0.513
	C70.05,30.1,70,30.3,70,30.5v2.4v2.4v2.4v2.4h-1.15H67.7h-1.35H65v-3.7v-3.7V29v-3.7h0.5H66h0.55h0.55v-0.25V24.8v-0.25V24.3h-3h-3
	h-3h-3l-1.45,3.25L52.2,30.8l-1.45,3.25L49.3,37.3h-0.85H47.6h-0.8H46c-0.05,0-0.075,0-0.1,0s-0.05,0-0.1,0s-0.075,0.025-0.1,0.05
	c-0.025,0.025-0.05,0.05-0.1,0.05l-4.15,4.7l-4.15,4.7l-4.15,4.7L29,56.2c-0.1-0.45-0.225-1.025-0.375-1.662
	C28.475,53.9,28.3,53.2,28.1,52.5s-0.45-1.375-0.75-1.963c-0.3-0.587-0.65-1.087-1.05-1.438c-0.1-0.1-0.225-0.2-0.35-0.288
	c-0.125-0.087-0.25-0.162-0.35-0.212c-0.15-0.05-0.3-0.1-0.45-0.125C25,48.45,24.85,48.45,24.7,48.5s-0.275,0.175-0.375,0.35
	s-0.175,0.4-0.225,0.65s-0.075,0.5-0.087,0.75C24,50.5,24,50.75,24,51c0,0.05,0,0.125,0,0.2s0,0.15,0,0.2c0,0.05,0,0.125,0,0.2
	s0,0.15,0,0.2c-0.05,0.15-0.25,0.475-0.55,0.875c-0.3,0.4-0.7,0.875-1.15,1.325c-0.45,0.5-0.9,0.975-1.3,1.337S20.25,55.95,20,56
	c-0.4,0.05-0.8,0.075-1.2,0.087C18.4,56.1,18,56.1,17.6,56.1s-0.8,0-1.2,0c-0.4,0-0.8,0-1.2,0c-0.3,0-0.55,0-0.775,0
	c-0.225,0-0.425,0-0.625,0c-0.15,0-0.275,0-0.375,0s-0.175,0-0.225,0s-0.1,0-0.15,0.013C13,56.125,12.95,56.15,12.9,56.2
	s-0.1,0.075-0.137,0.112C12.725,56.35,12.7,56.4,12.7,56.5c-0.2,0.55,0.2,1.625,0.925,2.938S15.4,62.3,16.5,63.8
	c1.05,1.5,2.15,2.925,3.025,4c0.875,1.075,1.525,1.8,1.675,1.9c0.05,0.05,0.1,0.075,0.138,0.088C21.375,69.8,21.4,69.8,21.4,69.8
	s0.05,0,0.112,0s0.138,0,0.188,0l0,0l0,0l0,0l0,0c0.2,0,0.45-0.1,0.712-0.263c0.263-0.162,0.538-0.387,0.788-0.637
	c0.3-0.25,0.575-0.525,0.825-0.787C24.275,67.85,24.5,67.6,24.7,67.4l0.35,0.35l0.35,0.35l0.3,0.35L26,68.8
	c0,0.05,0.025,0.075,0.062,0.088C26.1,68.9,26.15,68.9,26.2,68.9s0.075,0,0.1,0s0.05,0,0.1,0s0.075,0,0.1,0s0.05,0,0.1,0
	s0.075-0.025,0.1-0.05c0.025-0.025,0.05-0.05,0.1-0.05c0-0.05,0.55-0.775,1.413-1.887C29.075,65.8,30.25,64.3,31.5,62.7
	s2.6-3.275,3.825-4.737C36.55,56.5,37.65,55.25,38.4,54.5c0.95-0.9,1.875-1.375,2.763-1.538C42.05,52.8,42.9,52.95,43.7,53.3
	c0.75,0.35,1.425,0.9,1.975,1.513c0.55,0.612,0.975,1.288,1.225,1.888c0.2,0.6,0.375,1.2,0.538,1.8c0.162,0.6,0.312,1.2,0.462,1.8
	s0.25,1.2,0.325,1.812C48.3,62.725,48.35,63.35,48.4,64c0,0.05,0,0.075,0,0.1s0,0.05,0,0.1s0.025,0.075,0.05,0.1s0.05,0.05,0.05,0.1
	c0,0,0.025,0.025,0.062,0.05C48.6,64.475,48.65,64.5,48.7,64.5c0.05,0,0.075,0,0.1,0s0.05,0,0.1,0h0.25h0.25h0.25h0.25
	c0.05,0,0.125-0.025,0.2-0.05c0.075-0.025,0.15-0.05,0.2-0.05c0.05-0.05,0.075-0.1,0.087-0.162C50.4,64.175,50.4,64.1,50.4,64v-0.4
	v-0.4v-0.4v-0.4l1.55,0.05l1.55,0.05l1.55,0.05l1.55,0.05v1.25v1.25v1.25v1.25h1.2H59h1.2h1.2v-0.25V67.1v-0.25V66.6h-0.95H59.5
	h-0.95H57.6v-1v-1v-1v-1h1.05h1.05h1.05h1.05c0.05,0,0.1,0,0.15-0.013c0.05-0.013,0.1-0.037,0.15-0.087s0.1-0.1,0.138-0.15
	c0.037-0.05,0.062-0.1,0.062-0.15s0.175-0.775,0.538-1.825C63.2,59.325,63.75,57.95,64.5,56.6c0.75-1.4,1.675-2.8,2.8-3.85
	s2.45-1.75,4-1.75c1.5,0,2.75,0.75,3.775,1.888C76.1,54.025,76.9,55.55,77.5,57.1s1.025,3.075,1.312,4.225
	C79.1,62.475,79.25,63.25,79.3,63.3c0,0.05,0.025,0.1,0.062,0.15c0.037,0.05,0.087,0.1,0.137,0.15s0.1,0.075,0.15,0.087
	C79.7,63.7,79.75,63.7,79.8,63.7h1.1H82h1h1c0.05,0,0.075,0,0.1,0s0.05,0,0.1,0s0.075-0.025,0.1-0.05s0.05-0.05,0.1-0.05l0.7-0.65
	l0.7-0.65l0.7-0.65L87.2,61c0.05,0,0.075-0.025,0.088-0.062C87.3,60.9,87.3,60.85,87.3,60.8c0-0.05,0-0.075,0-0.1s0-0.05,0-0.1v-0.4
	v-0.4v-0.35V59.1c0-0.05-0.025-0.125-0.05-0.2c-0.025-0.075-0.05-0.15-0.05-0.2c-0.05-0.05-0.1-0.075-0.162-0.087
	C86.975,58.6,86.9,58.6,86.8,58.6h-0.25H86.3h-0.25H85.8v-0.3V58v-0.3v-0.3h0.25h0.25h0.25h0.25v0.15V57.7z M56.3,40.2h-1.75H52.8
	h-1.75H49.3l0.25-0.55l0.25-0.55l0.25-0.55L50.3,38l0,0l0,0l0,0l0,0l1.4-3.15l1.4-3.15l1.4-3.15l1.4-3.15H56h0.1h0.1h0.1v3.7v3.7
	v3.7V40.2z M64,42.5h-1.65H60.7h-1.65H57.4v-4.3v-4.3v-4.3v-4.3h1.65h1.65h1.65H64v4.3v4.3v4.3V42.5z"/>
<path style="fill:#B2B2B2;" d="M41.3,73.7c-0.95,0-1.85-0.25-2.662-0.713C37.825,72.525,37.1,71.85,36.5,71s-1.1-1.85-1.45-2.963
	C34.7,66.925,34.5,65.7,34.5,64.4c0-1.3,0.2-2.525,0.55-3.638C35.4,59.65,35.9,58.65,36.5,57.8s1.325-1.525,2.138-1.987
	C39.45,55.35,40.35,55.1,41.3,55.1s1.85,0.25,2.662,0.713C44.775,56.275,45.5,56.95,46.1,57.8s1.1,1.85,1.45,2.963
	C47.9,61.875,48.1,63.1,48.1,64.4c0,1.3-0.175,2.525-0.513,3.637C47.25,69.15,46.75,70.15,46.1,71
	c-0.6,0.85-1.325,1.525-2.137,1.987S42.25,73.7,41.3,73.7z M41.3,58.2c-0.5,0-0.975,0.175-1.413,0.5s-0.837,0.8-1.187,1.4
	c-0.35,0.55-0.625,1.225-0.812,1.975S37.6,63.65,37.6,64.5s0.1,1.675,0.288,2.425S38.35,68.35,38.7,68.9
	c0.35,0.55,0.75,1.025,1.188,1.363S40.8,70.8,41.3,70.8s1-0.175,1.45-0.5c0.45-0.325,0.85-0.8,1.15-1.4
	c0.35-0.55,0.625-1.225,0.812-1.975S45,65.35,45,64.5c0-0.85-0.1-1.675-0.288-2.425S44.25,60.65,43.9,60.1
	c-0.35-0.6-0.75-1.075-1.187-1.4S41.8,58.2,41.3,58.2z"/>
<path style="fill:#B2B2B2;" d="M70.7,75.7c-1,0-1.95-0.3-2.825-0.863S66.2,73.45,65.5,72.4c-0.65-1-1.175-2.2-1.537-3.55
	C63.6,67.5,63.4,66,63.4,64.4c0-1.55,0.2-3.025,0.562-4.375c0.363-1.35,0.888-2.575,1.537-3.625c0.65-1,1.425-1.825,2.3-2.4
	c0.875-0.575,1.85-0.9,2.9-0.9s2,0.3,2.863,0.862C74.425,54.525,75.2,55.35,75.9,56.4c0.65,1,1.175,2.2,1.537,3.55
	C77.8,61.3,78,62.8,78,64.4s-0.2,3.1-0.562,4.45C77.075,70.2,76.55,71.4,75.9,72.4c-0.7,1.05-1.5,1.875-2.375,2.438
	S71.7,75.7,70.7,75.7z M70.7,57.2c-0.35,0-0.725,0.175-1.088,0.513C69.25,58.05,68.9,58.55,68.6,59.2s-0.575,1.425-0.775,2.312
	C67.625,62.4,67.5,63.4,67.5,64.5s0.125,2.1,0.325,2.988c0.2,0.887,0.475,1.662,0.775,2.312s0.675,1.15,1.05,1.488
	c0.375,0.337,0.75,0.512,1.05,0.512s0.675-0.175,1.05-0.512c0.375-0.338,0.75-0.838,1.05-1.488s0.575-1.425,0.775-2.312
	C73.775,66.6,73.9,65.6,73.9,64.5c0-1.1-0.125-2.1-0.325-2.987c-0.2-0.888-0.475-1.663-0.775-2.312
	c-0.35-0.65-0.725-1.15-1.087-1.487C71.35,57.375,71,57.2,70.7,57.2z"/>
<path style="fill:#B2B2B2;" d="M41.3,62.6c0.15,0,0.275,0.05,0.388,0.138C41.8,62.825,41.9,62.95,42,63.1s0.175,0.35,0.225,0.575
	C42.275,63.9,42.3,64.15,42.3,64.4c0,0.25-0.025,0.5-0.075,0.725C42.175,65.35,42.1,65.55,42,65.7s-0.2,0.275-0.312,0.363
	C41.575,66.15,41.45,66.2,41.3,66.2s-0.275-0.05-0.388-0.137C40.8,65.975,40.7,65.85,40.6,65.7s-0.175-0.35-0.225-0.575
	C40.325,64.9,40.3,64.65,40.3,64.4s0.025-0.5,0.075-0.725C40.425,63.45,40.5,63.25,40.6,63.1c0.1-0.15,0.2-0.275,0.312-0.363
	C41.025,62.65,41.15,62.6,41.3,62.6z"/>
<path style="fill:#B2B2B2;" d="M70.7,62.6c0.15,0,0.275,0.05,0.387,0.138C71.2,62.825,71.3,62.95,71.4,63.1s0.175,0.35,0.225,0.575
	C71.675,63.9,71.7,64.15,71.7,64.4c0,0.25-0.025,0.5-0.075,0.725C71.575,65.35,71.5,65.55,71.4,65.7s-0.2,0.275-0.312,0.363
	C70.975,66.15,70.85,66.2,70.7,66.2s-0.275-0.05-0.387-0.137S70.1,65.85,70,65.7s-0.175-0.35-0.225-0.575
	C69.725,64.9,69.7,64.65,69.7,64.4s0.025-0.5,0.075-0.725C69.825,63.45,69.9,63.25,70,63.1c0.05-0.15,0.15-0.275,0.275-0.363
	S70.55,62.6,70.7,62.6z"/>
</svg>
