<svg xmlns="http://www.w3.org/2000/svg" viewBox="0 0 100 100"><circle cx="30.88" cy="74.61" r="2.99"/><circle cx="30.88" cy="74.61" r="1.04" fill="#fff"/><ellipse cx="44.52" cy="53.89" rx="1.26" ry="0.51"/><rect x="43.88" y="51.48" width="1.31" height="2.19"/><rect x="36.14" y="50.14" width="1.89" height="4.06" fill="#787878"/><rect x="36.96" y="50.12" width="1.11" height="2"/><rect x="37.3" y="50.12" width="0.77" height="3.81"/><path d="M85.84,46c-3,0-2.65,2.82-2.56,3.59C81,53.46,75.85,63.19,74.92,63.09,60.08,60.74,54.5,57.4,51.81,55.75c-3.13-1.92-10.92-2.3-13.41-2.14-4.86.3-12.52,2.9-14.62,5a23.52,23.52,0,0,0-3.43,4.21C19,64.88,18.21,64.24,16.93,66s-1.49,5,.19,5.28c8,1.52,18.22,1.72,31.78,1,3.8-.22,7.71-.54,11.47-1h0c1.34,0,6.7-.22,10-.55h0c.14.39.68,1.54,2.9,3h0a2.52,2.52,0,0,0-.05.48c0,1,.55,1.81,1.23,1.81s1.23-.81,1.23-1.81-.55-1.82-1.23-1.82a1.06,1.06,0,0,0-.83.49h0a4.47,4.47,0,0,1-1.1-2.44,23,23,0,0,0,5.19-2A21.15,21.15,0,0,0,82,66.93c.79-.42-1.94-3-1.81-3.12s5.1-11.19,7.31-14C88.43,48.6,88.79,46,85.84,46Z"/><rect x="35.29" y="49.95" width="0.43" height="4.3"/><rect x="38.49" y="49.68" width="0.43" height="4.3"/><rect x="39.3" y="49.68" width="0.43" height="4.3"/><rect x="77.29" y="47.16" width="7.22" height="1.21"/><rect x="77.29" y="46.42" width="4.77" height="1.95"/><rect x="85.94" y="47.91" width="7.22" height="1.21" transform="translate(179.11 97.04) rotate(180)"/><rect x="88.39" y="47.91" width="4.77" height="1.95" transform="translate(181.56 97.78) rotate(180)"/><rect x="80.9" y="41.25" width="8.49" height="1.21" transform="translate(127 -43.28) rotate(90)"/><rect x="83.15" y="39" width="4.34" height="1.57" transform="translate(125.11 -45.54) rotate(90)"/><path d="M17.67,66.76c-.05-.18,0-.78.37-.78h2.87a.56.56,0,0,1-.54.39c-.43,0-.75.39-1.08.39A7.82,7.82,0,0,1,17.67,66.76Z" fill="#fff"/><path d="M17.65,68c0-.42.65-.77,1.25-.82a12.33,12.33,0,0,0,1.74-.32c.26-.08.75.57.63.94A4.55,4.55,0,0,0,20.91,69c0,.6-.24,2.34-.75,2.11S17.58,69.66,17.65,68Z" fill="#fff"/><polygon points="21.85 65.58 25.63 65.58 25.63 60.32 23.89 60.32 21.85 65.58" fill="#fff"/><polygon points="20.43 63.8 21.44 64.76 23.4 60.32 23.16 59.91 20.43 63.8" fill="#fff"/><path d="M28.45,60.73h2.61a.63.63,0,0,1,.63.63v5.16a.63.63,0,0,1-.63.63H28.45a0,0,0,0,1,0,0V60.73A0,0,0,0,1,28.45,60.73Z" fill="#fff"/><path d="M34.94,60.32h6.34a0,0,0,0,1,0,0v6.82a0,0,0,0,1,0,0H34.94a.86.86,0,0,1-.86-.86V61.18A.86.86,0,0,1,34.94,60.32Z" fill="#fff"/><polygon points="6.83 52.58 6.83 50.68 71.17 45.61 71.17 47.77 6.83 52.58"/><path d="M48.1,45.81c-2.31,0-12.42.38-12-6,0-.42,4,1.1,4-1.38S38,34.44,38,32.78s2.6-3.27,4.67-3.27c.41,0,.69,3.38,3,3.38s2.45-2.59,2.45-3.38-2-3.48-2.58-4.14c0,0,1.34-.82,5,.76s3.14,4,3.34,4a10.13,10.13,0,0,0,3.52-.55c.31-.2,1.41,2.24-1.14,4.86-.31.35,3.1-.89,5.55.14.24.14-3.55,3-3.55,4.34S57.34,45.81,48.1,45.81Z" fill="#800100"/><path d="M47.11,46.81c-2.65,0-8-.18-10.58-2.9a5.24,5.24,0,0,1-1.39-4.13,1.14,1.14,0,0,1,.36-.73c.41-.36.91-.3,1.59-.21.5.06,1.69.21,2-.07.07-.06.07-.21.07-.3a5.7,5.7,0,0,0-1.09-2.91A5.54,5.54,0,0,1,37,32.78c0-2.3,3.12-4.27,5.67-4.27.82,0,1.09.73,1.33,1.38.39,1.05.8,2,1.63,2,1.26,0,1.45-1.49,1.45-2.38A18.4,18.4,0,0,0,44.75,26a1,1,0,0,1-.22-.81,1,1,0,0,1,.46-.69c.3-.18,2-1,5.92.7,2.78,1.2,3.52,2.91,3.76,3.93a9.36,9.36,0,0,0,2.18-.39,1.11,1.11,0,0,1,1.47.29,4.14,4.14,0,0,1,0,4.19,8,8,0,0,1,3.83.45l.11.05a1,1,0,0,1,.5.77c.07.59-.24.88-1.16,1.74-.57.53-2.3,2.14-2.39,2.72,0,2.9-2.34,7.84-11.13,7.84h-1Zm-9.94-6A3.14,3.14,0,0,0,38,42.54c2.17,2.32,7.86,2.28,9.73,2.27h.38c8.88,0,9.13-5.26,9.13-5.86,0-1.13,1.13-2.37,2.58-3.75a12.31,12.31,0,0,0-2.77.24c-.68.11-1.33.23-1.7-.44a1.06,1.06,0,0,1,.15-1.2,4.08,4.08,0,0,0,1.39-3,10.07,10.07,0,0,1-3.34.28A1.17,1.17,0,0,1,52.79,30c-.08-.58-.25-1.92-2.68-3a10.7,10.7,0,0,0-2.69-.83c.79,1.09,1.68,2.5,1.68,3.29,0,2.7-1.32,4.38-3.45,4.38-2.29,0-3.11-2.24-3.51-3.31v0C40.59,30.8,39,32,39,32.78a4.33,4.33,0,0,0,.77,1.75,7.47,7.47,0,0,1,1.38,3.94,2.3,2.3,0,0,1-.74,1.8A4.2,4.2,0,0,1,37.17,40.86Zm0-1a.34.34,0,0,0,0,.1S37.14,39.89,37.14,39.86Z" fill="#969696"/><path d="M54.41,20.33c.52-.11,2.86,3.94,2.79,4.21s-1,2-1.39,2-3.59-2.73-3.56-3.4S53.33,20.57,54.41,20.33Z" fill="#800100"/><path d="M55.81,27.56c-1,0-3.47-2.54-3.49-2.56-.79-.83-1.09-1.36-1.07-1.89.06-1.05,1.37-3.41,2.94-3.75h0a1.43,1.43,0,0,1,1.31.51c.38.39,2.92,3.91,2.67,4.91C58.17,24.81,57.14,27.56,55.81,27.56Zm-2.52-4.49a15.27,15.27,0,0,0,2.37,2.24c.17-.26.35-.58.47-.81a21.27,21.27,0,0,0-1.84-3A4.24,4.24,0,0,0,53.29,23.07Zm1.33-1.76Zm-.21-1h0Z" fill="#969696"/><path d="M39.29,22.59c.55-.09,2.33,2.11,2.16,2.57S38,29.25,37.54,29.29s-2.46-1.69-2.35-2.09S38.69,22.69,39.29,22.59Z" fill="#800100"/><path d="M37.55,30.29c-1.15,0-2.84-1.9-2.85-1.92A1.62,1.62,0,0,1,34.21,27c0-.15.15-.59,2.08-2.83,2.06-2.4,2.51-2.47,2.84-2.53h0c.42-.07,1.1,0,2.26,1.4,1.33,1.6,1.09,2.26,1,2.5-.16.45-3.62,4.7-4.77,4.78Zm.17-2Zm-1.37-1.1a7.26,7.26,0,0,0,1.09.93A32.15,32.15,0,0,0,40.36,25a6.4,6.4,0,0,0-1-1.24A37.26,37.26,0,0,0,36.35,27.22Zm2.94-4.63h0Z" fill="#969696"/></svg>