<?xml version="1.0" encoding="iso-8859-1"?>
<!-- Generator: Adobe Illustrator 25.4.1, SVG Export Plug-In . SVG Version: 6.00 Build 0)  -->
<svg version="1.1" id="Layer_1" xmlns="http://www.w3.org/2000/svg" xmlns:xlink="http://www.w3.org/1999/xlink" x="0px" y="0px"
	 viewBox="0 0 100 100" style="enable-background:new 0 0 100 100;" xml:space="preserve">
<path style="fill:#8E8E8E;" d="M43.1,56.8h8.2h8.2h8.2h8.2c1.05,0,2.025,0.2,2.912,0.575C79.7,57.75,80.5,58.3,81.2,59
	s1.25,1.5,1.625,2.388S83.4,63.25,83.4,64.3l0,0l0,0l0,0l0,0c0,1.05-0.2,2.025-0.575,2.912C82.45,68.1,81.9,68.9,81.2,69.6
	s-1.5,1.25-2.387,1.625S76.95,71.8,75.9,71.8h-8.25H59.4h-8.15H43.1c-1.05,0-2.025-0.2-2.912-0.575C39.3,70.85,38.5,70.3,37.8,69.6
	s-1.25-1.5-1.625-2.387C35.8,66.325,35.6,65.35,35.6,64.3l0,0l0,0l0,0l0,0c0-1.05,0.2-2.025,0.575-2.912
	C36.55,60.5,37.1,59.7,37.8,59c0.65-0.7,1.45-1.25,2.35-1.625C41.05,57,42.05,56.8,43.1,56.8z"/>
<path style="fill:#8E8E8E;" d="M78.2,36.7v-0.8v-0.8v-0.8v-0.8h-0.7h-0.7h-0.7h-0.7l-0.3,0.85l-0.3,0.85l-0.3,0.85l-0.3,0.85h-1.7
	h-1.7h-1.7h-1.7v0.8v0.8v0.75V40l-0.9,0.65l-0.9,0.65l-0.9,0.65l-0.9,0.65v1.55v1.55v1.55v1.55h-1.7h-1.7h-1.7H57
	c-0.25-0.3-0.425-1.05-0.55-2s-0.2-2.1-0.25-3.2c-0.05-1.15-0.05-2.25-0.037-3.062C56.175,39.725,56.2,39.2,56.2,39.2h-2.4h-2.4H49
	h-2.4v-2.25V34.7v-2.25V30.2c0-0.05,0-0.075,0-0.1s0-0.05,0-0.1s-0.025-0.075-0.05-0.1s-0.05-0.05-0.05-0.1l-0.55-0.5l-0.55-0.5
	l-0.55-0.55L44.3,27.7c-0.05-0.05-0.1-0.075-0.162-0.087C44.075,27.6,44,27.6,43.9,27.6s-0.175,0-0.237,0.013
	C43.6,27.625,43.55,27.65,43.5,27.7c-0.05,0.05-0.075,0.1-0.087,0.163S43.4,28,43.4,28.1s0,0.175,0.013,0.237S43.45,28.45,43.5,28.5
	L44,29l0.5,0.5L45,30l0.5,0.5v2.2v2.2v2.2v2.2h-0.95H43.6h-0.95H41.7v-1.15V37v-1.15V34.7h-0.35H41h-0.4h-0.4l-0.6,1.1L39,36.9
	l-0.55,1.15L37.9,39.2h-1.8h-1.8h-1.8h-1.8v4.45v4.45v4.45V57l-3.2-1.65l-3.2-1.65l-3.2-1.65l-3.2-1.65
	c-0.2,0.85-0.2,1.525-0.087,2.062S18.15,53.4,18.4,53.7c0.25,0.25,0.5,0.4,0.688,0.487S19.4,54.3,19.4,54.3l-0.05,3.5l-0.05,3.5
	l-0.05,3.55L19.2,68.4c0,0-0.15,0.075-0.388,0.225C18.575,68.775,18.25,69,17.9,69.3c-0.3,0.3-0.625,0.625-0.875,0.988
	C16.775,70.65,16.6,71.05,16.6,71.5s0.125,0.725,0.312,0.887S17.35,72.6,17.6,72.6s0.5-0.025,0.688-0.05
	c0.188-0.025,0.312-0.05,0.312-0.05l3.5-1.55l3.5-1.55l3.5-1.55l3.5-1.55v-0.55V65.2v-0.55V64.1h-0.5h-0.5h-0.5h-0.5l0.35-1l0.35-1
	l0.35-1l0.35-1h0.5H33h0.45h0.45c1.05-2,1.975-3.45,2.838-4.487C37.6,54.575,38.4,53.95,39.2,53.6s1.6-0.475,2.475-0.513
	C42.55,53.05,43.5,53.1,44.6,53.1h8.55h8.55h8.55h8.55l0.75-0.95l0.75-0.95l0.75-0.95l0.75-0.95v-3.15V43v-3.15V36.7h-0.9H80h-0.9
	H78.2z M29,64.2h-1.45H26.1h-1.45H23.2v-1.85V60.5v-1.85V56.8l1.9,0.85L27,58.5l1.9,0.85l1.9,0.85l-0.45,1.05L29.9,62.3l-0.45,0.95
	L29,64.2z"/>
</svg>
