<?xml version="1.0" encoding="iso-8859-1"?>
<!-- Generator: Adobe Illustrator 25.4.1, SVG Export Plug-In . SVG Version: 6.00 Build 0)  -->
<svg version="1.1" id="Layer_1" xmlns="http://www.w3.org/2000/svg" xmlns:xlink="http://www.w3.org/1999/xlink" x="0px" y="0px"
	 viewBox="0 0 100 100" style="enable-background:new 0 0 100 100;" xml:space="preserve">
<polygon style="fill:none;" points="40,62.7 45.5,62.75 51,62.8 56.5,62.8 62,62.8 62.25,61.8 62.5,60.8 62.7,59.85 62.9,58.9 
	56.75,58.9 50.6,58.9 44.45,58.9 38.3,58.9 38.75,59.85 39.2,60.8 39.6,61.75 "/>
<polygon style="fill:none;" points="16.3,44.4 17.1,44.4 17.9,44.4 18.7,44.4 19.5,44.4 19.5,41.95 19.5,39.5 19.5,37.05 19.5,34.6 
	19.2,34.6 18.9,34.6 18.55,34.6 18.2,34.6 17.75,37.05 17.3,39.5 16.8,41.95 "/>
<polygon style="fill:none;" points="21.3,34.6 22.8,34.6 24.3,34.6 25.8,34.6 27.3,34.6 27.3,37.05 27.3,39.5 27.3,41.95 27.3,44.4 
	25.8,44.4 24.3,44.4 22.8,44.4 21.3,44.4 21.3,41.95 21.3,39.5 21.3,37.05 "/>
<path style="fill:none;" d="M27.7,61.3c-0.35,0-0.675,0.125-0.987,0.375S26.1,62.3,25.8,62.8c-0.25,0.45-0.475,1-0.637,1.638
	C25,65.075,24.9,65.8,24.9,66.6c0,0.75,0.1,1.45,0.263,2.088C25.325,69.325,25.55,69.9,25.8,70.4c0.25,0.45,0.55,0.825,0.875,1.088
	C27,71.75,27.35,71.9,27.7,71.9s0.675-0.125,0.987-0.375S29.3,70.9,29.6,70.4c0.25-0.45,0.475-1,0.637-1.637
	C30.4,68.125,30.5,67.4,30.5,66.6c0-0.75-0.1-1.45-0.263-2.088C30.075,63.875,29.85,63.3,29.6,62.8
	c-0.3-0.45-0.625-0.825-0.95-1.087C28.325,61.45,28,61.3,27.7,61.3z"/>
<path style="fill:none;" d="M70.9,61.3c-0.35,0-0.675,0.125-0.988,0.375C69.6,61.925,69.3,62.3,69,62.8
	c-0.25,0.45-0.475,1-0.637,1.638C68.2,65.075,68.1,65.8,68.1,66.6s0.1,1.5,0.263,2.125C68.525,69.35,68.75,69.9,69,70.4
	c0.25,0.45,0.55,0.825,0.875,1.088S70.55,71.9,70.9,71.9s0.675-0.125,0.988-0.375S72.5,70.9,72.8,70.4s0.525-1.05,0.675-1.675
	C73.625,68.1,73.7,67.4,73.7,66.6c0-0.75-0.1-1.45-0.263-2.088C73.275,63.875,73.05,63.3,72.8,62.8
	c-0.3-0.45-0.625-0.825-0.95-1.087C71.525,61.45,71.2,61.3,70.9,61.3z"/>
<path style="fill:#B3B3B3;" d="M35.4,31.8v-1.4V29v-1.4v-1.4h-0.65H34.1h-0.65H32.8v1v1v1v1l0.5,0.9l0.5,0.9l0.5,0.9l0.5,0.9v5.7
	v5.7v5.7v5.7c0,0.2,0,0.375,0.013,0.55S34.85,57.5,34.9,57.7c0.05,0.2,0.125,0.375,0.212,0.538C35.2,58.4,35.3,58.55,35.4,58.7
	c0.35,0.55,0.65,1.275,0.9,2.05c0.25,0.775,0.45,1.6,0.6,2.35s0.25,1.425,0.312,1.912S37.3,65.8,37.3,65.8h6.9h6.9H58h6.9
	c0-0.3,0.1-0.975,0.312-1.812S65.75,62.15,66.2,61.2s1.1-1.9,1.95-2.612C69,57.875,70.05,57.4,71.3,57.4s2.225,0.5,2.988,1.25
	C75.05,59.4,75.6,60.4,76,61.4c0.4,1,0.65,2,0.8,2.75C76.95,64.9,77,65.4,77,65.4h2.05h2.05h2.05h2.05l0.65-2.35l0.65-2.35
	l0.65-2.35L87.8,56v-6.05V43.9v-6.05V31.8H74.7H61.6H48.5H35.4z M62,62.8h-5.5H51h-5.5H40l-0.4-0.95l-0.4-0.95l-0.4-0.95L38.4,59
	h6.15h6.15h6.15H63l-0.2,0.95l-0.2,0.95l-0.3,0.95L62,62.8z M83.3,62.3h-1.35H80.6h-1.3H78l-0.2-1l-0.2-1l-0.2-1l-0.2-1h1.5h1.5h1.5
	h1.5v1v1v1v1h0.05H83.3z"/>
<path style="fill:#B3B3B3;" d="M27.7,59.3c-0.65,0-1.275,0.2-1.837,0.562S24.8,60.75,24.4,61.4s-0.75,1.425-1,2.288S23,65.5,23,66.5
	s0.125,1.95,0.362,2.812C23.6,70.175,23.95,70.95,24.4,71.6c0.4,0.65,0.9,1.175,1.462,1.537C26.425,73.5,27.05,73.7,27.7,73.7
	s1.275-0.2,1.837-0.562S30.6,72.25,31,71.6s0.75-1.425,1-2.287c0.25-0.863,0.4-1.812,0.4-2.812s-0.125-1.95-0.362-2.812
	C31.8,62.825,31.45,62.05,31,61.4c-0.45-0.65-0.95-1.175-1.5-1.538C28.95,59.5,28.35,59.3,27.7,59.3z M27.7,71.8
	c-0.3,0-0.625-0.125-0.95-0.375c-0.325-0.25-0.65-0.625-0.95-1.125c-0.25-0.45-0.475-1-0.637-1.637C25,68.025,24.9,67.3,24.9,66.5
	s0.1-1.5,0.263-2.125C25.325,63.75,25.55,63.2,25.8,62.7c0.25-0.45,0.55-0.825,0.875-1.088C27,61.35,27.35,61.2,27.7,61.2
	s0.675,0.125,0.987,0.375S29.3,62.2,29.6,62.7s0.525,1.05,0.675,1.675S30.5,65.7,30.5,66.5s-0.1,1.5-0.263,2.125
	C30.075,69.25,29.85,69.8,29.6,70.3c-0.3,0.45-0.625,0.825-0.95,1.087C28.325,71.65,28,71.8,27.7,71.8L27.7,71.8L27.7,71.8
	L27.7,71.8L27.7,71.8z"/>
<path style="fill:#B3B3B3;" d="M70.9,59.3c-0.65,0-1.275,0.2-1.838,0.562S68,60.75,67.6,61.4s-0.75,1.425-1,2.288
	S66.2,65.5,66.2,66.5s0.125,1.95,0.363,2.812C66.8,70.175,67.15,70.95,67.6,71.6c0.4,0.65,0.9,1.175,1.463,1.537
	C69.625,73.5,70.25,73.7,70.9,73.7s1.275-0.2,1.838-0.562S73.8,72.25,74.2,71.6s0.75-1.425,1-2.287c0.25-0.863,0.4-1.812,0.4-2.812
	s-0.125-1.95-0.363-2.812C75,62.825,74.65,62.05,74.2,61.4c-0.4-0.65-0.9-1.175-1.463-1.538S71.55,59.3,70.9,59.3z M70.9,71.8
	c-0.35,0-0.675-0.125-0.988-0.375C69.6,71.175,69.3,70.8,69,70.3c-0.25-0.45-0.475-1-0.637-1.637C68.2,68.025,68.1,67.3,68.1,66.5
	c0-0.75,0.1-1.45,0.263-2.088C68.525,63.775,68.75,63.2,69,62.7c0.25-0.45,0.55-0.825,0.875-1.088S70.55,61.2,70.9,61.2
	s0.675,0.125,0.988,0.375S72.5,62.2,72.8,62.7c0.25,0.45,0.475,1,0.637,1.638C73.6,64.975,73.7,65.7,73.7,66.5s-0.1,1.5-0.263,2.125
	C73.275,69.25,73.05,69.8,72.8,70.3c-0.3,0.45-0.625,0.825-0.95,1.087C71.525,71.65,71.2,71.8,70.9,71.8z"/>
<path style="fill:#B3B3B3;" d="M33.6,58.5c-0.05-0.1-0.1-0.175-0.15-0.25c-0.05-0.075-0.1-0.15-0.15-0.25s-0.075-0.2-0.087-0.3
	C33.2,57.6,33.2,57.5,33.2,57.4v-5.9v-5.9v-5.9v-5.9h-0.45H32.3h-0.45H31.4v-1v-1v-1v-1h-3.6h-3.6h-3.6H17l-1.25,3.95L14.5,37.7
	l-1.25,3.95L12,45.6v3.35v3.35v3.35V59c0,0,0.1-0.025,0.25-0.037C12.4,58.95,12.6,58.95,12.8,59s0.4,0.125,0.55,0.275
	C13.5,59.425,13.6,59.65,13.6,60s-0.1,0.6-0.25,0.763C13.2,60.925,13,61,12.8,61c-0.2,0.05-0.4,0.05-0.55,0.037
	C12.1,61.025,12,61,12,61v1.15v1.15v1.15v1.15h2.35h2.35h2.35h2.35c0,0,0.1-0.325,0.275-0.838C21.85,64.25,22.1,63.55,22.4,62.8
	c0.3-0.75,0.7-1.575,1.163-2.337C24.025,59.7,24.55,59,25.1,58.5c0.45-0.4,1-0.65,1.575-0.787C27.25,57.575,27.85,57.55,28.4,57.6
	s1.125,0.2,1.65,0.425c0.525,0.225,1,0.525,1.35,0.875s0.7,0.9,1.038,1.575C32.775,61.15,33.1,61.95,33.4,62.8
	c0.25,0.85,0.475,1.75,0.638,2.625S34.3,67.15,34.3,67.9h0.4h0.4h0.45H36c0-0.45-0.025-0.9-0.075-1.35
	c-0.05-0.45-0.125-0.9-0.225-1.35s-0.175-0.9-0.263-1.35c-0.087-0.45-0.188-0.9-0.337-1.35c-0.05-0.35-0.125-0.675-0.225-1
	c-0.1-0.325-0.225-0.65-0.375-1c-0.1-0.4-0.225-0.75-0.375-1.075C33.975,59.1,33.8,58.8,33.6,58.5z M19.5,44.4h-0.8h-0.8h-0.8h-0.8
	l0.5-2.45l0.5-2.45l0.5-2.45l0.5-2.45h0.3h0.3h0.3h0.3v2.45v2.45v2.45V44.4z M27.3,44.4h-1.5h-1.5h-1.5h-1.5v-2.45V39.5v-2.45V34.6
	h1.5h1.5h1.5h1.5v2.45v2.45v2.45V44.4z"/>
</svg>
