<svg xmlns="http://www.w3.org/2000/svg" viewBox="0 0 100 100"><path d="M15.13,65.13A23.91,23.91,0,0,0,27.9,69.28c7.12,0,10.34-4.15,10.34-4.15s6.44,4.15,12.69,4.15A18.9,18.9,0,0,0,62,65.13,21.61,21.61,0,0,0,74.1,69.28,16.42,16.42,0,0,0,84.87,65.5v6.57s-4,3.53-11.33,3.53-11.32-3.83-11.32-3.83S59.55,75.6,50.45,75.6s-11.93-3.88-11.93-3.88-3.87,3.88-11.4,3.88a20.32,20.32,0,0,1-12-3.57Z" fill="#666"/><path d="M74.1,58.1a20,20,0,0,1-8.31-1.94H58.55a17.09,17.09,0,0,1-7.62,1.94,22.42,22.42,0,0,1-8.37-1.94H35.5a14.84,14.84,0,0,1-7.6,1.94A23.91,23.91,0,0,1,15.13,54v6.91a20.35,20.35,0,0,0,12,3.56c7.53,0,11.4-3.88,11.4-3.88s2.83,3.88,11.93,3.88S62.22,60.6,62.22,60.6s4,3.82,11.32,3.82,11.33-3.53,11.33-3.53V54.33A16.45,16.45,0,0,1,74.1,58.1Z" fill="#666"/><polygon points="62.83 34.55 54.07 34.55 54.07 24.65 47.02 24.65 47.02 34.55 38.3 34.55 38.3 41.6 47.02 41.6 47.02 51.5 54.07 51.5 54.07 41.6 62.83 41.6 62.83 34.55" fill="#b2b2b2"/><path d="M54.32,51.75H46.77v-9.9H38.05V34.3h8.72V24.4h7.55v9.9h8.76v7.55H54.32Zm-7-.5h6.55v-9.9h8.76V34.8H53.82V24.9H47.27v9.9H38.55v6.55h8.72Z" fill="#646464"/></svg>