<?xml version="1.0" encoding="utf-8"?>
<!-- Generator: Adobe Illustrator 25.2.3, SVG Export Plug-In . SVG Version: 6.00 Build 0)  -->
<svg version="1.1" id="Layer_1" xmlns="http://www.w3.org/2000/svg" xmlns:xlink="http://www.w3.org/1999/xlink" x="0px" y="0px"
	 viewBox="0 0 100 100" style="enable-background:new 0 0 100 100;" xml:space="preserve">
<style type="text/css">
	.st0{fill:#8E8E8E;}
</style>
<g id="Layer_2_1_">
	<g id="Layer_2-2">
		<path class="st0" d="M89.4,54.3c0,0,0.1-2.2-0.1-5c-0.2-2.8-0.8-6.1-2.1-8.2c-0.6-1.1-1.6-2-2.8-2.7c-1.2-0.7-2.6-1.3-4.1-1.8
			v-3.8V29c0-0.3,0.1-0.5,0.2-0.7c0.2-0.2,0.4-0.3,0.6-0.3c0,0,0,0,0.1,0s0,0,0.1,0v-0.5V27c-0.5,0-1,0.2-1.4,0.5
			c-0.4,0.3-0.6,0.8-0.6,1.3c0,0,0,0.1,0,0.1c0,0,0,0.1,0,0.1v3.7v3.7c-1.7-0.4-3.4-0.7-5.2-0.9c-1.7-0.2-3.5-0.3-5.3-0.3v-1.6v-1.6
			h-1.4h-1.4v1.6v1.7c-0.5,0-0.9,0-1.2,0c-0.3,0-0.4,0-0.4,0v-3.7v-3.7h-5.7h-5.7c-2,3.4-2.7,8-3.1,11.7c-0.3,3.8-0.1,6.7-0.1,6.7
			h-3.8h-3.8v-0.6v-0.6h-0.9h-0.9v0.6v0.6H29.3H18l-3.3,3.5l-3.3,3.5v2.7v2.7c0,0-0.7,0.3-1.4,1.1c-0.7,0.8-1.4,2.2-1.4,4.5
			c0,2.6,1.2,4.6,2.6,5.9c1.4,1.3,2.9,2,3.6,2c0.7,0,2.1-0.5,3.4-1.5c1.3-1,2.4-2.5,2.4-4.5c0-1.1-0.1-2.2-0.5-3.2
			c-0.4-1-1-2-1.7-2.8v-0.3v-0.3h4.3h4.3v0.9v0.9h-2.2h-2.2v2.6v2.6l12.6,1.4l12.6,1.4v-4v-3.9h-4h-4v-1.4v-1.4h-1h-1
			c0.1-1,0.3-2,0.6-3s0.6-2,1.1-2.9c1,0.3,2.8,1.3,4.9,2.7c2.1,1.4,4.6,3.3,6.9,5.3v2.6v2.6H54h2.7c0.2,0.2,0.4,0.4,0.6,0.6
			c0.2,0.2,0.4,0.4,0.5,0.6c0,1.9,0.8,3.4,1.9,4.5c1.1,1.1,2.5,1.7,3.6,1.7c1.8-0.1,3.4-0.9,4.7-2.1s2-2.8,2.1-4.7
			c-0.1,2.3,0.6,4,1.7,5c1.2,1.1,2.9,1.6,5,1.7s3.1-1.7,3.6-3.5c0.5-1.8,0.5-3.6,0.5-3.6h0.8h0.8l0.2-1.4l0.2-1.4h3.6H90l0.7-4.4
			l0.6-4.4l-0.9,0L89.4,54.3z M36.8,58.4h-9.2h-9.2v-1.8v-1.8l1.1-1.4l1.1-1.4c0,0,3.3-0.1,7.2-0.1s8.3,0,10.6,0.3
			c-0.4,1-0.8,2-1.1,3C37.1,56.3,36.9,57.4,36.8,58.4z M52.3,61.3c0.6,0.5,1.2,1.1,1.8,1.6c0.6,0.5,1.2,1.1,1.7,1.6H54h-1.8V63V61.3
			z"/>
	</g>
</g>
</svg>
