<?xml version="1.0" encoding="iso-8859-1"?>
<!-- Generator: Adobe Illustrator 25.4.1, SVG Export Plug-In . SVG Version: 6.00 Build 0)  -->
<svg version="1.1" id="Layer_1" xmlns="http://www.w3.org/2000/svg" xmlns:xlink="http://www.w3.org/1999/xlink" x="0px" y="0px"
	 viewBox="0 0 100 100" style="enable-background:new 0 0 100 100;" xml:space="preserve">
<polygon style="fill:#E0E0E0;" points="51.8,70.7 50.4,70.2 49,69.7 47.6,69.15 46.2,68.6 48.55,62.35 50.9,56.1 53.25,49.9 
	55.6,43.7 57,44.2 58.4,44.7 59.75,45.25 61.1,45.8 58.8,52.05 56.5,58.3 54.15,64.5 "/>
<path style="fill:#777777;" d="M52.1,71.4l-1.6-0.6l-1.6-0.6l-1.6-0.6L45.7,69l2.4-6.45l2.4-6.45l2.4-6.55L55.3,43l1.6,0.6l1.6,0.6
	l1.6,0.6l1.6,0.6l-2.4,6.45l-2.4,6.45l-2.4,6.55L52.1,71.4z M46.9,68.3l1.15,0.45l1.15,0.45l1.15,0.45l1.15,0.45l2.25-6l2.25-6
	l2.25-6l2.25-6l-1.15-0.45L58.2,45.2l-1.15-0.45L55.9,44.3l-2.25,6l-2.25,6l-2.25,6L46.9,68.3z"/>
<polygon style="fill:#E0E0E0;" points="42.2,49.7 42.85,48.35 43.5,47 44.15,45.7 44.8,44.4 54.2,49.05 63.6,53.7 72.95,58.35 
	82.3,63 81.65,64.35 81,65.7 80.35,67 79.7,68.3 70.3,63.65 60.9,59 51.55,54.35 "/>
<path style="fill:#777777;" d="M83,62.8l-0.8,1.55l-0.8,1.55l-0.75,1.55L79.9,69l-9.6-4.75l-9.6-4.75l-9.6-4.75L41.5,50l0.75-1.55
	L43,46.9l0.75-1.55l0.75-1.55l9.6,4.75l9.6,4.75l9.65,4.75L83,62.8z M79.4,67.7l0.55-1.1l0.55-1.1l0.55-1.1l0.55-1.1l-9.15-4.55
	L63.3,54.2l-9.15-4.6L45,45l-0.55,1.1l-0.55,1.1l-0.55,1.1l-0.55,1.1l9.15,4.55l9.15,4.55l9.15,4.6L79.4,67.7z"/>
<polygon style="fill:#E0E0E0;" points="49.8,33.1 51.2,33.65 52.6,34.2 54,34.7 55.4,35.2 51.65,45 47.9,54.8 44.15,64.55 
	40.4,74.3 39,73.75 37.6,73.2 36.2,72.7 34.8,72.2 38.55,62.4 42.3,52.6 46.05,42.85 "/>
<path style="fill:#777777;" d="M40.7,75l-1.6-0.6l-1.6-0.6l-1.6-0.6l-1.6-0.6l3.85-10l3.85-10l3.85-10l3.85-10l1.6,0.6l1.6,0.6
	l1.55,0.6L56,35l-3.85,10L48.3,55l-3.8,10L40.7,75z M35.5,71.9l1.15,0.45l1.15,0.45l1.15,0.45l1.15,0.45l3.65-9.55l3.65-9.55
	l3.65-9.55l3.65-9.55l-1.15-0.45L52.4,34.6l-1.15-0.45L50.1,33.7l-3.65,9.55L42.8,52.8l-3.65,9.55L35.5,71.9z"/>
<polygon style="fill:#E0E0E0;" points="77,32.6 78.5,32.6 80,32.6 81.5,32.6 83,32.6 83,43.1 83,53.6 83,64.05 83,74.5 81.5,74.5 
	80,74.5 78.5,74.5 77,74.5 77,64.05 77,53.6 77,43.1 "/>
<path style="fill:#777777;" d="M83.5,75h-1.75H80h-1.75H76.5V64.3V53.6V42.85V32.1h1.75H80h1.75h1.75v10.7v10.7v10.75V75z M77.5,74
	h1.25H80h1.25h1.25V63.8V53.6V43.35V33.1h-1.25H80h-1.25H77.5v10.2v10.2v10.25V74z"/>
<polygon style="fill:#ACACAC;" points="35.5,41.6 33.6,41.6 31.7,41.6 29.85,41.6 28,41.6 28,39.75 28,37.9 28,36.05 28,34.2 
	26.65,34.2 25.3,34.2 23.95,34.2 22.6,34.2 22.6,36.05 22.6,37.9 22.6,39.75 22.6,41.6 20.75,41.6 18.9,41.6 17,41.6 15.1,41.6 
	15.1,42.95 15.1,44.3 15.1,45.65 15.1,47 17,47 18.9,47 20.75,47 22.6,47 22.6,48.9 22.6,50.8 22.6,52.65 22.6,54.5 23.95,54.5 
	25.3,54.5 26.65,54.5 28,54.5 28,52.65 28,50.8 28,48.9 28,47 29.85,47 31.7,47 33.6,47 35.5,47 35.5,45.65 35.5,44.3 35.5,42.95 
	"/>
<polygon style="fill:#AEAEAE;" points="41.5,73.5 41.65,73.5 41.8,73.5 41.95,73.5 42.1,73.5 42.1,73.75 42.1,74 42.1,74.25 
	42.1,74.5 41.95,74.5 41.8,74.5 41.65,74.5 41.5,74.5 41.5,74.25 41.5,74 41.5,73.75 "/>
<path style="fill:#AEAEAE;" d="M60.9,74.5h-0.3h-0.3H60h-0.3v-0.25V74v-0.25V73.5H60h0.3h0.3h0.3v0.25V74v0.25V74.5z M58.5,74.5
	h-0.3h-0.3h-0.3h-0.3v-0.25V74v-0.25V73.5h0.3h0.3h0.3h0.3v0.25V74v0.25V74.5z M56.2,74.5h-0.3h-0.3h-0.3H55v-0.25V74v-0.25V73.5
	h0.3h0.3h0.3h0.3v0.25V74c0,0,0,0.125,0,0.25S56.2,74.5,56.2,74.5z M53.8,74.5h-0.3h-0.3h-0.3h-0.3v-0.25V74v-0.25V73.5h0.3h0.3h0.3
	h0.3v0.25V74v0.25V74.5z M51.5,74.5h-0.3h-0.3h-0.3h-0.3v-0.25V74v-0.25V73.5h0.3h0.3h0.3h0.3v0.25V74v0.25V74.5z M49.1,74.5h-0.3
	h-0.3h-0.3h-0.3v-0.25V74v-0.25V73.5h0.3h0.3h0.3h0.3v0.25V74v0.25V74.5z M46.8,74.5h-0.3h-0.3h-0.3h-0.3v-0.25V74v-0.25V73.5h0.3
	h0.3h0.3h0.3v0.25V74v0.25V74.5z M44.4,74.5h-0.3h-0.3h-0.3h-0.3v-0.25V74v-0.25V73.5h0.3h0.3h0.3h0.3v0.25V74v0.25V74.5z"/>
<polygon style="fill:#AEAEAE;" points="62.1,73.5 62.2,73.5 62.3,73.5 62.45,73.5 62.6,73.5 62.6,73.75 62.6,74 62.6,74.25 
	62.6,74.5 62.45,74.5 62.3,74.5 62.2,74.5 62.1,74.5 62.1,74.25 62.1,74 62.1,73.75 "/>
<polygon style="fill:#AEAEAE;" points="72.4,73.5 72.55,73.5 72.7,73.5 72.85,73.5 73,73.5 73,73.75 73,74 73,74.25 73,74.5 
	72.85,74.5 72.7,74.5 72.55,74.5 72.4,74.5 72.4,74.25 72.4,74 72.4,73.75 "/>
<path style="fill:#AEAEAE;" d="M75.6,74.5h-0.3H75h-0.3h-0.3v-0.25V74v-0.25V73.5h0.3H75h0.3h0.3v0.25V74v0.25V74.5z M73.2,74.5
	h-0.3h-0.3h-0.3H72v-0.25V74v-0.25V73.5h0.3h0.3h0.3h0.3v0.25V74v0.25V74.5z"/>
<polygon style="fill:#E0E0E0;" points="80.8,25.7 81.65,26.9 82.5,28.1 83.35,29.35 84.2,30.6 75.55,36.5 66.9,42.4 58.25,48.35 
	49.6,54.3 48.8,53.05 48,51.8 47.15,50.6 46.3,49.4 54.9,43.45 63.5,37.5 72.15,31.6 "/>
<path style="fill:#777777;" d="M49.5,55l-1-1.45l-1-1.45l-1-1.45l-1-1.45l8.85-6.05l8.85-6.05l8.85-6.05L80.9,25l1,1.45l1,1.45
	l1,1.45l1,1.45l-8.85,6.05L67.2,42.9l-8.85,6.05L49.5,55z M47,49.5l0.7,1l0.7,1l0.7,1l0.7,1l8.4-5.75L66.6,42l8.45-5.8l8.45-5.8
	l-0.7-1l-0.7-1l-0.7-1l-0.7-1l-8.45,5.8L63.8,38l-8.4,5.75L47,49.5z"/>
</svg>
