<svg xmlns="http://www.w3.org/2000/svg" viewBox="0 0 100 100"><polygon points="22.11 51.56 34.19 51.56 34.19 44.25 22.11 44.25 22.11 35.37 34.18 35.37 34.18 26.71 15.84 26.71 15.84 73.71 34.52 73.71 34.52 65.96 22.11 65.96 22.11 51.56" fill="#666"/><path d="M50,26.74c-4.48,0-7.92,2.34-10.24,7-2.14,4.27-3.22,10-3.22,17.15s1.08,12.92,3.22,17.19c2.32,4.61,5.76,7,10.24,7s7.92-2.34,10.23-7c2.13-4.27,3.21-10.05,3.21-17.18S62.37,38,60.24,33.71C57.93,29.08,54.49,26.74,50,26.74Zm6,24.12c0,5.91-.67,10.32-2,13.13-2.3,4.88-5.64,4.84-7.92,0-1.33-2.81-2-7.23-2-13.13s.67-10.31,2-13.13c1.14-2.43,2.48-3.67,4-3.67s2.81,1.24,4,3.68C55.29,40.55,56,45,56,50.86Z" fill="#666"/><path d="M77,35.81a4.43,4.43,0,0,1,3.33-1.75,9.05,9.05,0,0,1,5.54,2.24l2.48,2V29.1l-.84-.42c-6.06-3.08-10.8-2.43-14.87,1.13a19,19,0,0,0-5.26,8.68,40.6,40.6,0,0,0-1.77,12.37,40.33,40.33,0,0,0,1.79,12.43A18.93,18.93,0,0,0,72.66,72a11.77,11.77,0,0,0,7.8,3,16.06,16.06,0,0,0,7-1.93l.85-.42V63.54l-2.47,1.91a9.21,9.21,0,0,1-5.55,2.23A4.39,4.39,0,0,1,77,66a15.46,15.46,0,0,1-2.93-6,32.69,32.69,0,0,1-1.22-9.16,33.1,33.1,0,0,1,1.18-9A15.28,15.28,0,0,1,77,35.81Z" fill="#666"/></svg>