<svg xmlns="http://www.w3.org/2000/svg" viewBox="0 0 100 100"><rect x="44.28" y="27.1" width="40.31" height="38.75" fill="#fff"/><path d="M85.29,66.56H43.57V26.39H85.29ZM45,65.14H83.87V27.81H45Z" fill="#969696"/><path d="M42.33,42.18V40.6a1.46,1.46,0,0,0-1.46-1.46h-.12a1.46,1.46,0,0,0-1.46,1.46v1.58H38.08c-.55,0-1.72,1-3,2.38h0c-2.62,2.72-5.81,6.8-5.81,6.8a54.37,54.37,0,0,0-9.57,1.46,3.19,3.19,0,0,0-2.52,2.8v5.44c0,.17,0,.32,0,.48h-1.1a.89.89,0,0,0-.89.89v2.19a.89.89,0,0,0,.89.89h2.52a.88.88,0,0,0,.42-.11,2.69,2.69,0,0,0,.48.24v.2h1.66c0,.17,0,.33,0,.5,0,2.7,1.46,4.89,3.27,4.89s3.27-2.19,3.27-4.89c0-.17,0-.33,0-.5H44.28V42.18Z" fill="#fff"/><path d="M61,57.92h3a3.18,3.18,0,0,1,3.18,3.18v4.75a0,0,0,0,1,0,0H57.79a0,0,0,0,1,0,0V61.1A3.18,3.18,0,0,1,61,57.92Z" fill="#969696"/><path d="M62.69,73.61c-3.17,0-5.64-3.19-5.64-7.26s2.47-7.26,5.64-7.26,5.64,3.19,5.64,7.26S65.85,73.61,62.69,73.61Zm0-9.79a3.35,3.35,0,0,0-.87,2.53,3,3,0,0,0,.94,2.53,3.35,3.35,0,0,0,.87-2.53A3,3,0,0,0,62.65,63.82Z" fill="#969696"/><path d="M62.69,71.72c-2.07,0-3.75-2.41-3.75-5.37S60.62,61,62.69,61s3.74,2.41,3.74,5.37S64.75,71.72,62.69,71.72Zm0-9.79c-1.52,0-2.8,2-2.8,4.42s1.28,4.42,2.8,4.42,2.79-2,2.79-4.42S64.2,61.93,62.69,61.93Z" fill="#323232"/><ellipse cx="62.69" cy="66.35" rx="2.16" ry="3.23" fill="#fff"/><ellipse cx="47.09" cy="30.63" rx="1.19" ry="1.59" fill="#fff"/><path d="M47.09,32.69a1.9,1.9,0,0,1-1.67-2.06,1.9,1.9,0,0,1,1.67-2.06,1.87,1.87,0,0,1,1.66,2.06A1.87,1.87,0,0,1,47.09,32.69Zm0-3.18c-.39,0-.72.53-.72,1.12s.33,1.12.72,1.12.71-.52.71-1.12S47.47,29.51,47.09,29.51Z" fill="#969696"/><ellipse cx="81.94" cy="30.63" rx="1.19" ry="1.59" fill="#fff"/><path d="M81.94,32.69a1.9,1.9,0,0,1-1.66-2.06,1.9,1.9,0,0,1,1.66-2.06,1.87,1.87,0,0,1,1.67,2.06A1.87,1.87,0,0,1,81.94,32.69Zm0-3.18c-.38,0-.71.53-.71,1.12s.33,1.12.71,1.12.72-.52.72-1.12S82.33,29.51,81.94,29.51Z" fill="#969696"/><path d="M83,61.88h1.61a0,0,0,0,1,0,0v4a0,0,0,0,1,0,0H81.5a0,0,0,0,1,0,0v-2.5A1.47,1.47,0,0,1,83,61.88Z" fill="#fff"/><path d="M85.06,66.32H81v-3A1.94,1.94,0,0,1,83,61.41h2.09ZM82,65.37h2.13v-3H83a1,1,0,0,0-1,1Z" fill="#969696"/><path d="M45,66.56H20.31c-1.08,0-3.87-1-3.87-5.49V55.63a3.89,3.89,0,0,1,3-3.49h0a56.71,56.71,0,0,1,9.4-1.47c2.79-3.56,7.49-9.2,9.19-9.2H45Zm-25.14-13a2.51,2.51,0,0,0-2,2.11v5.44c0,4,2.43,4.07,2.45,4.07H43.57V42.89H38.08c-.94.18-5,4.77-8.28,8.92l-.21.27h-.34a52.72,52.72,0,0,0-9.4,1.44Z" fill="#969696"/><path d="M29.24,52.08V50.66l6.24-.15,4.81-.11c.92,0,1.19-.27,1.22-.34V45.74c0-.18,0-.47-.8-.47H35.05V43.85H40.7c1.64,0,2.22,1,2.22,1.89v4.35c0,.64-.55,1.73-2.63,1.73l-4.77.11Z" fill="#969696"/><rect x="19.94" y="55.08" width="22.66" height="1.42" fill="#969696"/><path d="M43.05,42.89H38.58V40.6a2.17,2.17,0,0,1,2.17-2.17h.12a2.18,2.18,0,0,1,2.18,2.17Zm-3-1.42h1.62V40.6a.75.75,0,0,0-.75-.75h-.12a.76.76,0,0,0-.75.75Z" fill="#969696"/><rect x="33.4" y="46.63" width="5.47" height="0.95" transform="translate(-20.91 63.56) rotate(-68.59)" fill="#969696"/><rect x="33.69" y="47.72" width="2.03" height="5.87" rx="0.98" fill="#969696"/><path d="M17.15,61.79V60.36a.64.64,0,0,0,.52-.19c.5-.52.42-2.07.38-2.9,0-.25,0-.48,0-.66a.34.34,0,0,0,0-.2c-.08-.07-.3-.09-.68-.07h-.16V54.92h.09a2.3,2.3,0,0,1,1.73.46,1.63,1.63,0,0,1,.48,1.23c0,.16,0,.36,0,.59.06,1.19.15,3-.77,3.95A2.06,2.06,0,0,1,17.15,61.79Z" fill="#969696"/><path d="M22.66,57.92h3a3.18,3.18,0,0,1,3.18,3.18v4.75a0,0,0,0,1,0,0H19.49a0,0,0,0,1,0,0V61.1a3.18,3.18,0,0,1,3.18-3.18Z" fill="#969696"/><path d="M24.39,73.61c-3.17,0-5.64-3.19-5.64-7.26s2.47-7.26,5.64-7.26S30,62.28,30,66.35,27.55,73.61,24.39,73.61Zm0-9.79a3.36,3.36,0,0,0-.86,2.53,3,3,0,0,0,.93,2.53,3.35,3.35,0,0,0,.87-2.53A3,3,0,0,0,24.35,63.82Z" fill="#969696"/><path d="M24.39,71.72c-2.07,0-3.75-2.41-3.75-5.37S22.32,61,24.39,61s3.74,2.41,3.74,5.37S26.45,71.72,24.39,71.72Zm0-9.79c-1.52,0-2.8,2-2.8,4.42s1.28,4.42,2.8,4.42,2.79-2,2.79-4.42S25.9,61.93,24.39,61.93Z" fill="#323232"/><ellipse cx="24.39" cy="66.35" rx="2.16" ry="3.23" fill="#fff"/><rect x="15.18" y="61.55" width="4.31" height="3.98" rx="0.89" fill="#fff"/><path d="M18.59,66H16.07a1.37,1.37,0,0,1-1.36-1.37V62.44a1.37,1.37,0,0,1,1.36-1.37h2.52A1.37,1.37,0,0,1,20,62.44v2.19A1.37,1.37,0,0,1,18.59,66Zm-2.52-4a.42.42,0,0,0-.42.42v2.19a.42.42,0,0,0,.42.42h2.52a.42.42,0,0,0,.42-.42V62.44a.42.42,0,0,0-.42-.42Z" fill="#969696"/><path d="M78.74,56.5H54.46V29.92H78.74ZM55.88,55.08H77.32V31.34H55.88Z" fill="#969696"/><polygon points="78.03 30.63 55.17 55.79 78.03 55.79 78.03 30.63" fill="navy"/><rect x="49.6" y="42.5" width="34" height="1.42" transform="translate(-10.17 63.45) rotate(-47.75)" fill="#969696"/></svg>