<?xml version="1.0" encoding="utf-8"?>
<!-- Generator: Adobe Illustrator 25.2.0, SVG Export Plug-In . SVG Version: 6.00 Build 0)  -->
<svg version="1.1" id="Layer_1" xmlns="http://www.w3.org/2000/svg" xmlns:xlink="http://www.w3.org/1999/xlink" x="0px" y="0px"
	 viewBox="0 0 100 100" style="enable-background:new 0 0 100 100;" xml:space="preserve">
<path d="M81.7,34.1H18.3c-0.6,0.1-1.1-0.3-1.2-0.8c-0.1-0.6,0.3-1.1,0.8-1.2l31.5-14.5c0.2-0.1,0.4-0.1,0.6,0L82,32.1
	c0.5,0.2,0.8,0.6,0.7,1.1C82.6,33.7,82.2,34.1,81.7,34.1z M24.7,32.1h50.6L49.9,19.6L24.7,32.1z"/>
<rect x="13.1" y="79" width="73.8" height="3.5"/>
<rect x="15.9" y="73.7" width="68.1" height="3.5"/>
<rect x="20.6" y="68.4" width="58.9" height="3.5"/>
<polygon points="43.9,38 46.7,38 46.7,35.3 35.4,35.3 35.4,38 38.1,38 37.4,66.7 44.6,66.7 "/>
<polygon points="61.9,38 64.6,38 64.6,35.3 53.3,35.3 53.3,38 56.1,38 55.4,66.7 62.6,66.7 "/>
<polygon points="27.4,38 30.1,38 30.1,35.3 18.8,35.3 18.8,38 21.5,38 20.8,66.7 28.1,66.7 "/>
<polygon points="78.5,38 81.2,38 81.2,35.3 69.9,35.3 69.9,38 72.6,38 71.9,66.7 79.2,66.7 "/>
<path d="M44.2,25l-2.3,5.7c0,0.6,1,1.1,2.3,1.1c1.3,0,2.3-0.5,2.3-1.1L44.2,25z M44.2,26.1l1.7,4.1h-3.3L44.2,26.1z"/>
<path d="M55.9,25l-2.3,5.7c0,0.6,1,1.1,2.3,1.1s2.3-0.5,2.3-1.1L55.9,25z M55.9,26.1l1.7,4.1h-3.3L55.9,26.1z"/>
<polygon points="56.3,24.5 56.3,24 43.7,24 43.7,24.5 49.3,24.5 49.3,31.2 48.4,31.2 48.4,32.1 49.3,32.1 50.7,32.1 51.6,32.1 
	51.6,31.2 50.7,31.2 50.7,24.5 "/>
</svg>
