<?xml version="1.0" encoding="utf-8"?>
<!-- Generator: Adobe Illustrator 25.3.1, SVG Export Plug-In . SVG Version: 6.00 Build 0)  -->
<svg version="1.1" id="Layer_1" xmlns="http://www.w3.org/2000/svg" xmlns:xlink="http://www.w3.org/1999/xlink" x="0px" y="0px"
	 viewBox="0 0 100 100" style="enable-background:new 0 0 100 100;" xml:space="preserve">

	<path d="M73.7,47.9c0,1.3,0.1,2.4-0.1,3.5c-0.1,0.5-0.8,1-1.3,1.5c-0.4-0.5-1.1-0.9-1.2-1.5c-0.2-0.9-0.1-1.9-0.1-3.1
		c-2.5,0-4.8,0-7.4,0c0,1.1,0.2,2.1-0.1,3.1c-0.1,0.6-0.8,1-1.3,1.5c-0.5-0.5-1.2-0.9-1.3-1.4c-0.2-1-0.1-2-0.1-3.2
		c-2.6,0-4.9,0-7.4,0c0,1.1,0.2,2.2-0.1,3.2c-0.1,0.5-0.9,1-1.3,1.4c-0.4-0.5-1.1-0.9-1.3-1.5c-0.2-0.9-0.1-2-0.1-3.2
		c-5.2,0.2-9.7-1.2-12.3-6.1c-1.4-2.6-1.5-5.4-0.4-8.2c2-5.6,9.7-9.5,17.4-5.1c2.6-4.3,6.5-6.8,11.4-7.7c6-1.1,11.4,0,16,4.2
		c5.6,5.1,5.7,13,0.2,18.3C80.5,45.9,77.4,47.2,73.7,47.9z"/>
	<path d="M12.8,79.4c0.6-3,1.2-5.9,1.8-8.7c0.6-2.6,1.2-5.2,1.6-7.8c0.2-1,0-2.2-0.4-3.1c-4-7.7-1.6-17.3,5.6-22.1
		c1.3-0.9,2-0.9,2.8,0.6c2.4,4.2,4.9,8.4,7.6,13c0.4-0.9,0.7-1.5,0.8-2c0.4-1.9,1.7-2.9,3.4-2.5c1.5,0.3,2.4,1.8,2,3.2
		c-0.4,1.7-2.1,2.4-3.8,1.9c-0.5-0.2-1.1-0.1-1.6-0.1c0.1,0.5,0.2,1.1,0.4,1.6c2.2,3.8,4.3,7.6,6.6,11.3c0.9,1.5,0.5,2.1-0.9,2.7
		c-3,1.2-6.2,1.7-9.4,1.4c-0.8-0.1-1.6-0.1-2.6-0.2c1,3.6,1.9,7,2.8,10.7C24,79.4,18.5,79.4,12.8,79.4z"/>
	<path d="M64.4,57.1c-0.9,0.9-1.4,1.8-2.1,1.9c-1.2,0.2-1.4-0.9-1.4-1.9c0-1,0-2.2,1.4-2C63,55.3,63.5,56.2,64.4,57.1z"/>
	<path d="M50.1,57c0.9-0.8,1.5-1.7,2.1-1.8c1.4-0.2,1.3,1.1,1.4,2.1c0,1-0.2,2-1.4,1.8C51.5,58.9,51,58,50.1,57z"/>
	<path d="M70.4,57.2c0.9-0.9,1.3-1.9,1.9-2c1.4-0.3,1.4,0.9,1.4,1.9c0,1-0.1,2-1.3,1.9C71.8,59,71.3,58.1,70.4,57.2z"/>

</svg>
