<?xml version="1.0" encoding="utf-8"?>
<!-- Generator: Adobe Illustrator 25.3.1, SVG Export Plug-In . SVG Version: 6.00 Build 0)  -->
<svg version="1.1" id="Layer_1" xmlns="http://www.w3.org/2000/svg" xmlns:xlink="http://www.w3.org/1999/xlink" x="0px" y="0px"
	 viewBox="0 0 100 100" style="enable-background:new 0 0 100 100;" xml:space="preserve">
<polygon style="fill:#CCCCCC;" points="70.3,28.1 70.3,50 70.3,71.9 49.1,71.9 27.8,71.9 49.1,50 "/>
<polygon style="fill:#FFFFFF;" points="70.3,28.1 49.1,28.1 27.8,28.1 27.8,50 27.8,71.9 49.1,50 "/>
<path style="fill:#7D7D7D;" d="M71.1,72.7H49.1H27V50V27.3h22.1h22.1V50V72.7z M28.7,71h20.4h20.4V50V29H49.1H28.7v21V71z"/>
<polygon style="fill:#7D7D7D;" points="27.2,71.3 48.4,49.4 69.7,27.6 70.3,28.1 70.9,28.7 49.7,50.6 28.4,72.4 27.8,71.9 "/>
<path d="M73.8,70.5c-1.6,0.1-3.2-0.3-4.6-1.2c-1.4-0.9-2.7-2.2-3.8-3.8c-1-1.7-1.8-3.7-2.3-6c-0.5-2.4-0.8-5.1-0.8-8.1
	c0-2.9,0.3-5.6,0.8-7.9c0.5-2.3,1.3-4.4,2.3-6.1c1-1.7,2.3-3.1,3.7-4s3-1.3,4.7-1.3c0.4,0,0.8,0,1.3,0.1c0.4,0,0.8,0.1,1.3,0.2
	c0.4,0.1,0.7,0.2,1.1,0.3c0.4,0.1,0.7,0.2,1.1,0.4c0.3,0.1,0.6,0.3,0.9,0.5s0.6,0.3,0.9,0.5c0.3,0.2,0.6,0.4,0.9,0.6
	c0.3,0.2,0.5,0.4,0.7,0.5v4.4V44h-0.3h-0.3c-0.1-0.2-0.3-0.4-0.5-0.7c-0.2-0.2-0.4-0.5-0.6-0.8c-0.2-0.3-0.5-0.6-0.7-0.9
	s-0.5-0.5-0.8-0.8c-0.3-0.3-0.6-0.5-0.9-0.7c-0.3-0.2-0.6-0.4-0.9-0.6c-0.3-0.2-0.7-0.3-1-0.4c-0.3-0.1-0.7-0.1-1.1-0.1
	c-0.9,0-1.7,0.2-2.4,0.7c-0.7,0.5-1.4,1.2-1.9,2.1c-0.3,0.6-0.6,1.2-0.9,1.8s-0.4,1.3-0.6,2c-0.2,0.9-0.3,1.9-0.4,2.8
	s-0.1,1.9-0.1,2.9c0,1,0,2,0.1,2.9c0.1,1,0.3,1.9,0.5,2.9c0.2,0.7,0.4,1.4,0.6,2c0.3,0.6,0.6,1.2,0.9,1.8c0.3,0.4,0.6,0.8,0.9,1.2
	c0.3,0.3,0.7,0.6,1.1,0.8c0.4,0.2,0.7,0.3,1.1,0.5s0.8,0.2,1.1,0.2c0.4,0,0.8,0,1.1-0.2c0.4-0.1,0.7-0.3,1.1-0.5
	c0.3-0.2,0.6-0.4,0.9-0.6c0.3-0.2,0.6-0.5,0.9-0.8c0.2-0.2,0.5-0.5,0.7-0.7s0.5-0.5,0.7-0.8l0.5-0.7l0.5-0.7h0.3h0.3V63v4.3
	c-0.2,0.2-0.4,0.3-0.7,0.5c-0.2,0.2-0.5,0.4-0.8,0.6c-0.3,0.2-0.6,0.4-0.9,0.5c-0.3,0.2-0.6,0.3-0.9,0.5c-0.3,0.2-0.7,0.3-1,0.4
	c-0.3,0.1-0.7,0.3-1,0.4c-0.4,0.1-0.9,0.2-1.3,0.3C74.7,70.5,74.2,70.5,73.8,70.5z"/>
<path style="fill:#FFFFFF;" d="M73.8,71.3c-1.7,0.1-3.3-0.4-4.9-1.3c-1.5-0.9-2.9-2.3-3.9-4c-1.1-1.7-1.9-3.8-2.4-6.3
	c-0.5-2.4-0.8-5.2-0.8-8.3c0-3,0.3-5.7,0.8-8.1c0.5-2.4,1.4-4.5,2.4-6.3c1.1-1.8,2.4-3.2,3.9-4.2c1.5-1,3.2-1.4,4.9-1.4
	c0.4,0,0.9,0,1.3,0.1c0.4,0,0.9,0.1,1.3,0.2c0.4,0.1,0.8,0.2,1.1,0.3s0.7,0.3,1.1,0.4c0.3,0.1,0.6,0.3,0.9,0.5
	c0.3,0.2,0.6,0.4,0.9,0.6c0.3,0.2,0.6,0.4,0.9,0.6s0.5,0.4,0.7,0.5l0.1,0.1l0.1,0.1v5v5h-0.7h-0.7l-0.1-0.1l-0.1-0.1
	c-0.1-0.2-0.3-0.4-0.5-0.6c-0.2-0.2-0.4-0.5-0.6-0.8c-0.2-0.3-0.4-0.6-0.7-0.8c-0.2-0.3-0.5-0.5-0.7-0.7c-0.3-0.2-0.5-0.5-0.8-0.7
	c-0.3-0.2-0.6-0.4-0.9-0.5c-0.6-0.4-1.3-0.5-2-0.5s-1.3,0.2-2,0.5c-0.4,0.2-0.7,0.5-1,0.9c-0.3,0.3-0.6,0.7-0.8,1.1
	c-0.3,0.5-0.6,1.1-0.8,1.7c-0.2,0.6-0.4,1.2-0.6,1.9c-0.2,0.9-0.3,1.8-0.4,2.7c-0.1,0.9-0.1,1.8-0.1,2.8c0,0.9,0,1.9,0.1,2.8
	c0.1,0.9,0.2,1.8,0.4,2.8c0.2,0.6,0.4,1.3,0.6,1.9c0.2,0.6,0.5,1.2,0.9,1.7c0.2,0.4,0.5,0.8,0.8,1.1c0.3,0.3,0.6,0.6,1,0.8
	c0.6,0.4,1.3,0.6,2,0.6s1.4-0.2,2-0.6c0.3-0.2,0.6-0.3,0.9-0.6c0.3-0.2,0.5-0.4,0.8-0.7c0.2-0.2,0.5-0.5,0.7-0.7s0.4-0.5,0.6-0.8
	c0.2-0.3,0.4-0.5,0.6-0.7c0.2-0.2,0.3-0.5,0.5-0.7l0.1-0.1l0.1-0.1h0.7h0.7v4.9v4.9l-0.1,0.1L82,68c-0.2,0.2-0.4,0.3-0.7,0.5
	c-0.2,0.2-0.5,0.4-0.8,0.6c-0.3,0.2-0.6,0.4-0.9,0.6S79,70,78.7,70.2c-0.3,0.2-0.7,0.3-1.1,0.5c-0.4,0.1-0.7,0.3-1.1,0.4
	c-0.5,0.1-0.9,0.2-1.4,0.3C74.7,71.3,74.3,71.3,73.8,71.3z M73.8,32.9c-1.5-0.1-3.1,0.3-4.4,1.2c-1.4,0.9-2.6,2.1-3.5,3.8
	c-1,1.7-1.7,3.6-2.2,5.9c-0.5,2.3-0.7,4.8-0.7,7.6c0,2.9,0.3,5.5,0.7,7.8c0.5,2.3,1.2,4.2,2.2,5.8c1,1.6,2.2,2.8,3.6,3.6
	c1.4,0.8,2.9,1.2,4.4,1.1c0.4,0,0.8,0,1.3,0c0.4,0,0.8-0.1,1.3-0.2c0.3-0.1,0.7-0.2,1-0.4s0.7-0.3,1-0.5c0.3-0.1,0.6-0.3,0.9-0.5
	c0.3-0.2,0.6-0.3,0.8-0.5l0.6-0.4l0.6-0.4v-3.6v-3.6c-0.1,0.1-0.2,0.3-0.3,0.4s-0.2,0.3-0.3,0.4c-0.2,0.3-0.5,0.6-0.7,0.9
	c-0.2,0.3-0.5,0.5-0.8,0.8c-0.3,0.3-0.6,0.6-0.9,0.8c-0.3,0.2-0.6,0.5-1,0.6c-0.8,0.4-1.6,0.7-2.4,0.7c-0.8,0-1.7-0.2-2.4-0.7
	c-0.4-0.2-0.8-0.6-1.2-0.9c-0.4-0.4-0.7-0.8-1-1.3c-0.4-0.6-0.7-1.2-1-1.9s-0.5-1.4-0.7-2.1c-0.2-1-0.4-2-0.5-3s-0.1-2-0.1-3
	c0-1,0-2,0.1-3c0.1-1,0.3-2,0.5-2.9c0.2-0.7,0.4-1.5,0.6-2.1c0.3-0.7,0.6-1.3,0.9-1.9c0.3-0.5,0.6-1,1-1.4c0.4-0.4,0.8-0.7,1.2-1
	c0.8-0.5,1.6-0.7,2.4-0.7c0.8,0,1.6,0.2,2.4,0.6c0.3,0.2,0.7,0.4,1,0.6c0.3,0.2,0.6,0.5,0.9,0.7c0.3,0.3,0.5,0.5,0.8,0.8
	c0.3,0.3,0.5,0.6,0.7,0.9l0.4,0.5l0.4,0.5v-3.7v-3.7c-0.2-0.1-0.4-0.3-0.6-0.4s-0.4-0.3-0.7-0.5c-0.3-0.2-0.5-0.4-0.8-0.5
	c-0.3-0.2-0.6-0.3-0.8-0.5c-0.3-0.1-0.7-0.3-1-0.4c-0.3-0.1-0.7-0.2-1-0.3c-0.4-0.1-0.8-0.1-1.2-0.2C74.6,32.8,74.2,32.8,73.8,32.9
	L73.8,32.9L73.8,32.9z"/>
<path d="M21.5,32.5V38h4.9v21.5c0,0-0.4,7.7-8.2,3.5v6.6c0,0,6.9,1.9,10.2-1.8s3-9.5,3-9.5V32.5H21.5z"/>
<path style="fill:#FCFCFC;" d="M22.2,70.6c-2.2,0-4-0.5-4.1-0.5L17.7,70v-7.8l0.7,0.4c2.3,1.3,4.1,1.5,5.4,0.8
	c1.9-1,2.1-3.9,2.1-3.9l0-21H21V32h10.9v26.4c0,0.2,0.3,6.1-3.1,9.8C27,70.1,24.4,70.6,22.2,70.6z M18.7,69.2
	c1.4,0.3,6.7,1.2,9.3-1.7c3.1-3.5,2.9-9.1,2.9-9.1l0-25.4H22v4.6h4.9v22c0,0.2-0.2,3.5-2.6,4.8c-1.4,0.8-3.3,0.7-5.6-0.4V69.2z"/>
<path d="M59.5,51.8c0,6-1.1,10.7-3.2,14.1c-2.1,3.4-5,5.1-8.7,5.1c-3.7,0-6.6-1.7-8.7-5.2c-2.1-3.5-3.1-8.1-3.1-14
	c0-5.9,1-10.6,3.1-14.1s5-5.2,8.7-5.2c3.7,0,6.6,1.7,8.7,5.2S59.5,45.8,59.5,51.8z M53.2,51.8c0-1.9-0.1-3.8-0.5-5.6
	c-0.2-1.4-0.6-2.6-1.2-3.8c-0.9-1.8-2.3-2.8-3.8-2.8c-0.7,0-1.4,0.2-2,0.6c-0.7,0.5-1.3,1.3-1.8,2.2c-0.6,1.2-1,2.5-1.2,3.8
	c-0.3,1.9-0.5,3.8-0.5,5.7c0,1.9,0.1,3.8,0.4,5.7c0.2,1.3,0.7,2.6,1.2,3.8c0.4,0.9,1.1,1.7,1.8,2.2c0.6,0.4,1.3,0.7,2.1,0.7
	c0.7,0,1.5-0.2,2.1-0.7c0.7-0.5,1.3-1.3,1.7-2.2c0.5-1.2,1-2.4,1.2-3.8C53.1,55.6,53.2,53.7,53.2,51.8z"/>
<path style="fill:#FFFFFF;" d="M47.7,71.8c-3.8,0-6.9-1.8-9.1-5.5c-2.2-3.6-3.3-8.5-3.3-14.5s1.1-11,3.3-14.6s5.2-5.4,9.1-5.4
	s6.9,1.8,9.1,5.4c2.2,3.6,3.3,8.5,3.3,14.6s-1.1,11-3.3,14.6C54.6,70,51.5,71.8,47.7,71.8z M47.7,33.3c-3.5,0-6.3,1.7-8.2,4.9
	s-3,7.9-3,13.6s1,10.2,3,13.6c2,3.3,4.8,4.9,8.2,4.9c3.5,0,6.3-1.6,8.3-4.9c2-3.2,3-7.8,3-13.6s-1-10.3-3-13.6S51.2,33.3,47.7,33.3z
	 M47.7,64.8c-0.8,0-1.6-0.2-2.3-0.7c-0.8-0.6-1.5-1.4-2-2.4c-0.6-1.2-1-2.6-1.3-4c-0.3-1.9-0.5-3.9-0.5-5.8c0-2,0.1-4,0.5-5.9
	c0.3-1.5,0.7-2.8,1.3-4.1c0.5-1,1.2-1.8,2-2.4c1.5-0.9,3.1-0.9,4.6,0c0.8,0.6,1.5,1.4,2,2.4c0.6,1.2,1,2.6,1.3,4
	c0.3,1.9,0.5,3.9,0.5,5.8c0,2-0.1,3.9-0.4,5.8c-0.3,1.4-0.7,2.8-1.3,4c-0.5,1-1.2,1.9-2,2.4C49.3,64.6,48.5,64.8,47.7,64.8z
	 M47.7,40.3c-0.6,0-1.2,0.2-1.8,0.5c-0.6,0.5-1.2,1.2-1.6,2c-0.5,1.1-0.9,2.3-1.1,3.6c-0.3,1.8-0.5,3.6-0.5,5.4
	c0,1.8,0.1,3.7,0.4,5.5c0.2,1.3,0.6,2.5,1.1,3.5c0.4,0.8,1,1.5,1.6,1.9c1.9,1.3,4.1,0.4,5.2-2c0.5-1.1,0.9-2.3,1.1-3.5
	c0.3-1.8,0.4-3.6,0.4-5.4c0-1.8-0.1-3.7-0.4-5.4c-0.2-1.3-0.6-2.5-1.1-3.6c-0.4-0.8-0.9-1.5-1.6-1.9C49,40.5,48.3,40.3,47.7,40.3
	L47.7,40.3z"/>
</svg>
