<?xml version="1.0" encoding="utf-8"?>
<!-- Generator: Adobe Illustrator 25.2.0, SVG Export Plug-In . SVG Version: 6.00 Build 0)  -->
<svg version="1.1" id="Layer_1" xmlns="http://www.w3.org/2000/svg" xmlns:xlink="http://www.w3.org/1999/xlink" x="0px" y="0px"
	 viewBox="0 0 100 100" style="enable-background:new 0 0 100 100;" xml:space="preserve">
<path d="M77.2,36.2c0.2-0.1,0.4-0.3,0.6-0.6c1.4-2.7-0.2-6.7-2-9c-5.8-7.2-17.3-7.9-26.4-7c-8.1,0.7-22.6,3-22.3,12.6
	c-0.1,1.3,0.3,2.7,1.2,3.7c1.8,1.4,4.6,1.2,6.7,0.9c1.6-0.2,5.5-0.1,6.7-1.3s0.7-2.6,0.7-3.9l0-2.2c0-0.4,4.3-1.1,4.8-1.1
	c1.7-0.3,3.5-0.5,5.3-0.5c1.7,0,3.4,0.2,5.1,0.5c0.5,0.1,4.6,0.9,4.7,1.2c0,1.2,0.1,2.4,0.2,3.6c0.4,2,0.7,3.4,3.2,4
	c0.9,0.2,1.9,0.2,2.8,0.2c1.7,0,3.3,0,5-0.2C74.8,37.1,76,36.8,77.2,36.2"/>
<path d="M42.1,58.7c0,3.1-0.3,6.2-0.8,9.2c-0.5,2.4-1.3,4.7-2.5,6.9c-1,1.7-2.3,3.2-4,4.3c-1.6,1-3.4,1.5-5.3,1.5
	c-2.1,0.1-4.3-0.5-6.1-1.5v-7c1.5,1.3,3.5,2,5.5,2c2.1,0,4.1-1.1,5.2-3c1.2-2,1.9-4.9,1.9-8.6l-0.1-0.1c-1,2.3-3.3,3.8-5.8,3.8
	c-1.1,0-2.3-0.3-3.2-0.9c-1-0.6-1.9-1.5-2.6-2.5c-0.8-1.2-1.4-2.4-1.7-3.8c-0.4-1.5-0.6-3.2-0.6-4.8c0-1.9,0.2-3.8,0.8-5.6
	c0.4-1.5,1.2-3,2.1-4.3c0.9-1.2,2-2.1,3.2-2.8c1.3-0.7,2.7-1,4.2-1c1.5,0,3,0.4,4.2,1.2c1.3,0.9,2.4,2.1,3.2,3.6
	c1,1.8,1.6,3.7,2,5.7C41.9,53.7,42.1,56.2,42.1,58.7 M35.6,54.2c0-0.9-0.1-1.9-0.3-2.8c-0.2-0.8-0.4-1.5-0.8-2.2
	c-0.3-0.6-0.7-1.1-1.2-1.5c-0.4-0.4-1-0.6-1.5-0.6c-0.5,0-1.1,0.2-1.5,0.5c-0.5,0.3-0.9,0.8-1.2,1.3c-0.4,0.6-0.6,1.3-0.8,2
	c-0.2,0.8-0.3,1.7-0.3,2.6c0,0.9,0.1,1.8,0.3,2.7c0.2,0.7,0.4,1.4,0.8,2c0.3,0.5,0.7,0.9,1.2,1.3c0.5,0.3,1,0.4,1.6,0.4
	c0.5,0,1.1-0.1,1.5-0.4c0.5-0.3,0.9-0.7,1.2-1.2c0.3-0.6,0.6-1.2,0.8-1.8C35.6,55.7,35.7,54.9,35.6,54.2"/>
<path d="M57.1,40.3v39.6h-6.3V50c-0.4,0.4-0.8,0.8-1.2,1.2c-0.5,0.4-1,0.7-1.5,1c-0.5,0.3-1.1,0.6-1.7,0.8c-0.6,0.2-1.1,0.3-1.7,0.4
	v-7.2c1.7-0.7,3.2-1.5,4.7-2.5c1.4-1,2.8-2.1,4-3.3L57.1,40.3L57.1,40.3z"/>
<path d="M74.2,40.3v39.6h-6.4V50c-0.4,0.4-0.8,0.8-1.2,1.2c-0.5,0.4-1,0.7-1.5,1c-0.5,0.3-1.1,0.6-1.7,0.8c-0.5,0.2-1.1,0.3-1.7,0.4
	v-7.2c1.7-0.7,3.2-1.5,4.7-2.5c1.4-1,2.8-2.1,4-3.3L74.2,40.3L74.2,40.3z"/>
</svg>
