<?xml version="1.0" encoding="utf-8"?>
<!-- Generator: Adobe Illustrator 25.2.0, SVG Export Plug-In . SVG Version: 6.00 Build 0)  -->
<svg version="1.1" id="Layer_1" xmlns="http://www.w3.org/2000/svg" xmlns:xlink="http://www.w3.org/1999/xlink" x="0px" y="0px"
	 viewBox="0 0 100 100" style="enable-background:new 0 0 100 100;" xml:space="preserve">
<polygon points="13.4,38.8 11.9,35.1 50.5,19.3 88.1,35.1 86.5,38.8 50.5,23.7 "/>
<ellipse cx="29.5" cy="38.2" rx="4.2" ry="3.2"/>
<path d="M42.8,59.2L32.6,45.2c-0.5-0.7-1.3-1.2-2.2-1.3c-0.3,0-0.7,0-1,0c-1.2,0-2.4,0.6-3.1,1.6l-10,13.6c-0.3,0.4-0.2,1.1,0.2,1.4
	c0,0,0,0,0,0c0.1,0.1,0.3,0.1,0.4,0.2c0.4,0.1,0.8-0.1,1-0.4l7.7-10.6l-5.8,13.6c-0.4,0.9,0,2,1,2.4c0.2,0.1,0.5,0.2,0.7,0.2h3.8
	v13.4c0,0.8,0.6,1.4,1.4,1.4l0,0l0,0c0.7,0,1.3-0.6,1.3-1.4V66h2.7v13.4c0,0.8,0.6,1.4,1.4,1.4c0,0,0,0,0,0l0,0
	c0.8,0,1.4-0.6,1.4-1.4V66h3.9c1,0,1.9-0.8,1.9-1.8c0-0.3-0.1-0.6-0.2-0.8l-6-13.9l7.9,10.9c0.3,0.5,0.9,0.6,1.4,0.2
	C43,60.3,43.1,59.7,42.8,59.2C42.8,59.2,42.8,59.2,42.8,59.2z"/>
<path d="M77.9,59.3l-6.2-12.5c-0.6-2.3-2.9-3.8-5.2-3.2c-1.6,0.4-2.8,1.5-3.2,3.1l-6.4,12.7c-0.2,0.5,0,1.1,0.5,1.3
	c0.1,0.1,0.3,0.1,0.4,0.1c0.4,0,0.7-0.2,0.9-0.6l4.4-8.6v27.6c0.1,0.9,0.8,1.5,1.7,1.4c0.8-0.1,1.4-0.7,1.4-1.4v-12
	c0-0.7,0.6-1.3,1.3-1.3c0.7,0,1.3,0.6,1.3,1.3v12c0,0.9,0.7,1.5,1.6,1.5c0.9,0,1.5-0.7,1.5-1.5V51.6l4.2,8.5
	c0.2,0.4,0.5,0.6,0.9,0.6c0.1,0,0.3,0,0.4-0.1C77.9,60.4,78.1,59.8,77.9,59.3z"/>
<ellipse cx="67.5" cy="38.2" rx="4.2" ry="3.2"/>
<path d="M57.4,65.7l-4.3-8.8c-0.3-1.6-1.8-2.8-3.4-2.5c-1.3,0.2-2.2,1.2-2.5,2.4l-4.5,8.9c-0.2,0.3,0,0.8,0.3,0.9c0,0,0,0,0,0
	c0.1,0,0.2,0.1,0.3,0.1c0.3,0,0.5-0.1,0.7-0.4l3.1-6.1v19.3c-0.1,0.6,0.4,1.1,1,1.2c0.6,0.1,1.1-0.4,1.2-1c0-0.1,0-0.1,0-0.2v-8.4
	c-0.1-0.5,0.3-0.9,0.8-1c0.5-0.1,0.9,0.3,1,0.8c0,0.1,0,0.1,0,0.2v8.4c0,0.6,0.5,1.1,1.1,1.1s1.1-0.5,1.1-1.1V60.3l2.9,6
	c0.1,0.2,0.4,0.4,0.6,0.4c0.1,0,0.2,0,0.3-0.1C57.4,66.5,57.6,66.1,57.4,65.7C57.4,65.7,57.4,65.7,57.4,65.7z"/>
<ellipse cx="50.1" cy="50.9" rx="3" ry="2.2"/>
</svg>
