<?xml version="1.0" encoding="utf-8"?>
<!-- Generator: Adobe Illustrator 25.2.0, SVG Export Plug-In . SVG Version: 6.00 Build 0)  -->
<svg version="1.1" id="Layer_1" xmlns="http://www.w3.org/2000/svg" xmlns:xlink="http://www.w3.org/1999/xlink" x="0px" y="0px"
	 viewBox="0 0 100 100" style="enable-background:new 0 0 100 100;" xml:space="preserve">
<path d="M67.4,64.1c3.3,3.1,6.2,5.8,7.5,7.1c1.2-13.2,7-12.8,7-21.2s-5.9-8-7-21.2c-1.2,1.2-4.2,4-7.5,7.1c-1-1.2-2.1-2.3-3.3-3.3
	c3.1-3.3,5.8-6.2,7.1-7.5c-13.2-1.1-12.8-7-21.2-7s-8,5.9-21.2,7c1.2,1.2,4,4.2,7.1,7.5c-1.2,1-2.3,2.1-3.3,3.3
	c-3.3-3.1-6.2-5.8-7.5-7.1c-1.1,13.2-7,12.8-7,21.2s5.9,8,7,21.2c1.2-1.2,4.2-4,7.5-7.1c1,1.2,2.1,2.3,3.3,3.3
	c-3.1,3.3-5.8,6.2-7.1,7.5c13.2,1.2,12.8,7,21.2,7s8-5.9,21.2-7c-1.2-1.2-4-4.2-7.1-7.5C65.3,66.4,66.4,65.3,67.4,64.1z M47.4,43.1
	H37v4.2h9.6v4.4H37v9.6h-5.8V38.7h16.2L47.4,43.1z M64.1,60.9c-1.5,0.3-3.1,0.4-4.7,0.4h-8V38.7h8.2c1.6,0,3.2,0.1,4.8,0.5
	c1.2,0.2,2.3,0.7,3.4,1.3c1.5,0.9,2.8,2.3,3.7,3.8c0.9,1.7,1.4,3.7,1.3,5.7c0,2-0.5,3.9-1.4,5.6c-0.9,1.6-2.1,2.9-3.6,3.8
	C66.6,60.2,65.4,60.6,64.1,60.9z"/>
<path d="M63.3,43.7c-0.6-0.3-1.2-0.5-1.8-0.6c-0.9-0.1-1.9-0.2-2.8-0.1h-1.5v14.2h1.5c1,0,2,0,3-0.2c0.7-0.1,1.3-0.4,1.9-0.7
	c1-0.5,1.8-1.4,2.3-2.4c0.5-1.2,0.8-2.5,0.7-3.8c0-1.3-0.2-2.6-0.8-3.8C65.3,45.1,64.4,44.2,63.3,43.7z"/>
</svg>
