<?xml version="1.0" encoding="utf-8"?>
<!-- Generator: Adobe Illustrator 25.2.0, SVG Export Plug-In . SVG Version: 6.00 Build 0)  -->
<svg version="1.1" id="Layer_1" xmlns="http://www.w3.org/2000/svg" xmlns:xlink="http://www.w3.org/1999/xlink" x="0px" y="0px"
	 viewBox="0 0 100 100" style="enable-background:new 0 0 100 100;" xml:space="preserve">
<path d="M73.6,42.6c0-0.3-0.2-0.6-0.4-0.8c-1.6-1.4-4.8-4-6-3.8c-5,0.6-3.5,5.4-6.7,7.6s-4.7,1.5-8,1.7s-11.5,0.6-13.2,0
	s-7.4-3.6-10-4.5c-2.6-0.9-2.8-0.1-2.8,0c0,0.1-0.3,0.4,1,1c1.3,0.6,10,5.7,10.8,6.4c0.2,2.5-0.2,7.1,0.1,8.2s2.3,4.3,2.3,5.5
	c0,1.2,0.4,2.6-0.1,3.4c-0.6,0.8-2.1,1.8-2.3,2.4c-0.2,0.6,0.8,3.6,1.1,5.5c0.3,2,0.3,3.1,0.8,3.7c0.5,0.5,1.3,0.7,2,0.6
	c1.7,0,1.7,0.3,1.9-0.4c0.2-0.9,0.2-1.8,0-2.7c-0.1-0.3-1.5-0.3-2-0.3c-0.3-1.6-0.4-3.2-0.4-4.7c0-0.7,1.9-3.4,2.6-3.8
	c0.7-0.4,1.2,0.1,1.2,0.4s-0.7,1.3-0.8,1.8c0,1.7,0.1,3.4,0.5,5.1c0.5,1.2,1.3,2.3,2.3,3.1c0.8,0.3,1.6,0.3,2.4,0
	c0.3-0.2,1.2-1.1,0.7-1.7c-0.6-0.7-1.4-1.2-2.4-1.5c-0.8-1.4-1.1-3-0.9-4.6c0.3-1.3,1.4-1,1.7-1.8s-0.4-7.3-0.2-8.4
	c1.4,0.4,5.5,2.6,9.5,2.9c0.1,2.7-0.1,10.1-0.1,11.3s1.2,3.1,2,3.3s2-0.3,2.5,0.2s0.3,1.2,1,1.2c0.6,0.1,1.3,0.1,1.9,0.1
	c0.7-0.1,1.1-2.5,1-3c-0.1-0.5-2.2-1-2.6-1.1c-0.3-2.2,0.1-12.8,0.2-14.1c1.8-1.1,2.8-7.9,3-10.2c0.2-2.4,0-3.8,1.3-4.1
	c1.4-0.3,3.2,0,4-0.5c0.4-0.3,0.8-0.2,1-1.4C73.6,44,73.6,43.3,73.6,42.6z M61.4,74c0,0.3-0.3,0.6-0.6,0.6c-0.3,0-0.6-0.3-0.6-0.6
	v-2.6c0-0.3,0.3-0.6,0.6-0.6c0.3,0,0.6,0.3,0.6,0.6V74z"/>
<polygon points="13.4,39.8 11.9,36.1 50.5,20.4 88.1,36.1 86.5,39.8 50.5,24.7 "/>
</svg>
