<?xml version="1.0" encoding="utf-8"?>
<!-- Generator: Adobe Illustrator 25.2.0, SVG Export Plug-In . SVG Version: 6.00 Build 0)  -->
<svg version="1.1" id="Layer_1" xmlns="http://www.w3.org/2000/svg" xmlns:xlink="http://www.w3.org/1999/xlink" x="0px" y="0px"
	 viewBox="0 0 100 100" style="enable-background:new 0 0 100 100;" xml:space="preserve">
<path d="M81.2,41l-9.1-15.2l-12.6,7.6V17.6H41.2v16.2l-13.3-8L18.8,41l13.9,8.3l-13.9,8.3l9.1,15.2l13.3-8v17.5h18.2V65.3l12.6,7.6
	l9.1-15.2l-13.9-8.3L81.2,41z M42.2,45.9h-5.7v3h5.7v1.3h-5.7v4h5.7v1.2h-7.1V44.6h7.1V45.9z M54.1,55.4h-1.4v-9.3l-3,6.3h-0.9
	l-3-6.3v9.3h-1.3V44.6h2l2.9,6l2.8-6h2L54.1,55.4z M64.6,53.6c-0.2,0.4-0.5,0.7-0.8,1c-0.4,0.3-0.9,0.6-1.4,0.7
	c-0.6,0.2-1.2,0.3-1.9,0.3c-0.7,0-1.4-0.1-2.1-0.2c-0.6-0.2-1.3-0.4-1.9-0.7v-1.8h0.1c0.6,0.5,1.2,0.8,1.9,1c0.6,0.2,1.3,0.4,2,0.4
	c0.7,0,1.5-0.1,2.1-0.5c0.5-0.3,0.7-0.8,0.7-1.3c0-0.4-0.1-0.8-0.3-1.1c-0.3-0.3-0.7-0.4-1.1-0.5c-0.4-0.1-0.7-0.2-1.1-0.2
	c-0.4-0.1-0.9-0.1-1.3-0.2c-0.8-0.1-1.5-0.5-2.1-1c-0.5-0.5-0.7-1.2-0.7-1.9c0-0.9,0.4-1.7,1.2-2.2c0.8-0.6,1.9-0.9,2.9-0.9
	c0.7,0,1.4,0.1,2.1,0.2c0.6,0.1,1.1,0.3,1.7,0.5v1.7h-0.1c-0.5-0.4-1-0.7-1.6-0.9c-0.7-0.3-1.4-0.4-2.1-0.4c-0.7,0-1.3,0.1-1.9,0.5
	c-0.4,0.3-0.7,0.7-0.7,1.2c0,0.4,0.1,0.8,0.3,1.1c0.3,0.3,0.8,0.5,1.2,0.6c0.3,0.1,0.8,0.2,1.3,0.2c0.6,0.1,1,0.2,1.4,0.3
	c0.7,0.2,1.3,0.5,1.8,1c0.4,0.5,0.7,1.1,0.6,1.8C64.9,52.8,64.8,53.2,64.6,53.6z"/>
</svg>
