<svg xmlns="http://www.w3.org/2000/svg" viewBox="0 0 100 100">
   <polygon style="fill:#3D701E;" points="50.4,5.7 98.7,94.3 1.3,94.3 "/>
   <path style="fill:#FFFFFF;" d="M42.9,56.2V34.4h11.6v3.7H46V43h7.8v3.7H46v5.9h8.7v3.7H42.9z"/>
   <path style="fill:#FFFFFF;" d="M76.6,68.7c-0.3-3.1-3.2-3.6-3.2-3.6H49.9v0.5h-1.6v8.5h-6.4v-8.5H41v-0.4h-2.1v-0.5h-1.8v0.5h-0.3
		v-0.5h-1v0.5h-1.3v-0.5h-4.8v-3.2c0,0-3.7,0-4.6,0c-1,0-0.7,3.5-0.7,3.5l-2.2,0.1c0,0,0,1.4,0,1.9s-0.5,1.2-0.5,1.2l0,14.8h-3.1
		c0,0-0.2,2.4-0.2,3.2c0,0.8,1,1,1,1s3,0,3.7,0c0.7,0,0.7-0.7,0.7-0.7h1.7v0.7h2.6l0.5,0.1c0,0.1,0,0.3,0,0.4c0,2,1.7,3.7,3.7,3.7
		c1.9,0,3.4-1.4,3.7-3.2l0.5,0.1H61c0.1,2.1,1.7,3.8,3.7,3.8c2,0,3.6-1.7,3.7-3.8h0.5h4.9v-0.6c0,0,3.1,0,3.5,0s0.5-1.3,0.5-1.3
		v-5.5C77.8,80.8,76.9,71.8,76.6,68.7z M20.8,86c-0.8-0.1-1-1.7-1-1.7h1c0,0,1.2,0.5,1.4,1.1C22.5,85.9,21.6,86.1,20.8,86z
		 M23.9,73.6h-1.4v-4.9h1.4V73.6z M28.5,72.7h-0.9V73h-2.4v-6.2h2.4v0.7h0.9V72.7z M32.3,89.2c-1,0-1.8-1-1.8-2.3
		c0-1.3,0.8-2.3,1.8-2.3c1,0,1.8,1,1.8,2.3C34.2,88.2,33.3,89.2,32.3,89.2z M40,72.7h-0.5V73h-4.2v-6.2h4.2v0.7H40V72.7z M48.4,78.8
		c0,0-1.4-0.1-1.8,0.2c-0.5,0.3-0.4,2-1.3,3.1c-0.9,1.1-0.8,1.9-0.2,2.3c0.5,0.5,1.4,0.3,1.4-0.3c0-0.6,0.1-2,0.9-2
		c0.8,0,1,0.5,1,0.5s0,2.5,0,3.1c0,0.5-0.7,0.8-0.7,0.8h-1.1V86h-0.8v0.5h-1.3V86h-3.3v-5.5h1c0.1,0.7,1,0.6,1,0.6
		c2.2,0.2,2.3-1.5,2.3-1.5s0.2-2.7-1.1-2.9c-1.4-0.2-1.6,0.4-1.6,0.4h-1.3l0.1-1.5h6.9V78.8z M64.8,90c-1,0-1.8-1-1.8-2.3
		c0-1.3,0.8-2.3,1.8-2.3c1,0,1.8,1,1.8,2.3C66.6,88.9,65.8,90,64.8,90z M74.4,85.4V74.6h0.7c0,0,0.3,1.4,0.6,3s0.6,7.8,0.6,7.8H74.4
		z"/>
</svg>
