<svg xmlns="http://www.w3.org/2000/svg" viewBox="0 0 100 100">
   <polygon style="fill:#3D701E;" points="50.4,5.7 98.7,94.3 1.3,94.3 "/>
   <polygon style="fill:#3D701E;" points="50.4,5.7 98.7,94.3 1.3,94.3 "/>
   <path style="fill:#FFFFFF;" d="M39.1,85.2V52.4h9.4c3.6,0,5.9,0.2,7,0.5c1.7,0.5,3.1,1.6,4.2,3.2s1.7,3.8,1.7,6.4
			c0,2-0.3,3.7-1,5.1c-0.6,1.4-1.5,2.4-2.5,3.2c-1,0.8-2,1.3-3,1.6c-1.4,0.3-3.4,0.5-6.1,0.5H45v12.4H39.1z M45,57.9v9.3h3.2
			c2.3,0,3.9-0.2,4.6-0.5c0.8-0.3,1.4-0.9,1.8-1.6c0.4-0.7,0.7-1.6,0.7-2.6c0-1.2-0.3-2.2-0.9-3c-0.6-0.8-1.4-1.3-2.4-1.5
			c-0.7-0.1-2.1-0.2-4.2-0.2H45z"/>
   <path style="fill:#FFFFFF;" d="M70.3,92H29.7V45.6h40.6V92z M31.7,90h36.6V47.6H31.7V90z"/>
</svg>
