<svg xmlns="http://www.w3.org/2000/svg" viewBox="0 0 100 100">
   <polygon style="fill:#3D701E;" points="50.4,5.7 98.7,94.3 1.3,94.3 "/>
   <path style="fill:#FFFFFF;" d="M51.9,56.6h9.8c2.2,0,3.9,0.2,5.1,0.6c1.6,0.6,2.9,1.6,4,3.1c1.1,1.5,2,3.3,2.5,5.5
			c0.6,2.2,0.9,4.8,0.9,8c0,2.8-0.3,5.2-0.8,7.2c-0.7,2.5-1.6,4.5-2.9,6c-0.9,1.2-2.2,2.1-3.8,2.7c-1.2,0.5-2.8,0.7-4.8,0.7H51.9
			V56.6z M57.3,62.4v22.4h4c1.5,0,2.6-0.1,3.2-0.3c0.9-0.3,1.6-0.7,2.2-1.4c0.6-0.7,1-1.8,1.4-3.3c0.4-1.5,0.5-3.6,0.5-6.2
			c0-2.6-0.2-4.6-0.5-6s-0.9-2.5-1.5-3.3c-0.7-0.8-1.5-1.3-2.5-1.6c-0.8-0.2-2.2-0.3-4.4-0.3H57.3z"/>
   <path style="fill:#FFFFFF;" d="M27.8,90.5V56.6H46v5.7H33.2v8h11.1v5.7H33.2v14.4H27.8z"/>
</svg>
