<svg xmlns="http://www.w3.org/2000/svg" viewBox="0 0 100 100">
   <polygon fill="#3D701E" points="50.4,5.7 98.7,94.3 1.3,94.3 "/>
   <polygon fill="#FFF" points="67.2,55.8 60.6,67.6 65.4,67.6 65.4,88.1 68.4,88.1 68.4,67.7 73.7,67.7"/>
   <path fill="#FFF" d="M50.3,37.6L30.6,65.2v2.6h-7.2l-3,3.6v4.2l1.4,1l-0.6,1.2h-1.5l-2.2-2.3c0,0-1.2-0.5-1.3,0.3
		c-0.1,0.7,0,12.2,0,12.2s0.8,1.1,2.6,0.4v-4.8h2.9v6.6l2.4,2.4h2.3l3.2-2.8h7.6l3.1,3.1l3.8-2.7c0,0,0.6-1.3,0.7-2
		c0.1-0.7,0-4.8,0-4.8h2.1v5h3.3V76.3h-2l-1.7,1.8h-1.9l-0.1-1.9l1-1v-4.4L42.7,68h-6.2v-1.4L54,42.3l0.9,0.1V45h7.3l0.7-1.2v-9
		l-1-0.9h-1.4v0.6h-1.4v-0.9h-3.4l-1.1,1.4v1l0.5,0V37L53.1,37l-0.5,0.6L50.3,37.6z"/>
</svg>
