<svg xmlns="http://www.w3.org/2000/svg" viewBox="0 0 100 100">
   <polygon style="fill:#3D701E;" points="50.4,5.7 98.7,94.3 1.3,94.3 "/>
   <path style="fill:#FFFFFF;" d="M20.1,65.1h21l4.3,5.7H54l5.2-4.7l-3-8.9h2.5l4.2,9l1.7-0.1v0.8l9.4-0.1v0.8l3.8,0v3.1H65.2
		c0,0-4.6,2.3-5,7.9H41.7c0,0-3.4-8-8.8-8c-5.4,0-8.7,5.2-9.7,6.9h-3.1V65.1z"/>
   <path style="fill:#FFFFFF;" d="M32.2,75.8c-3.6,0-6.5,3.2-6.5,7.1s2.9,7.1,6.5,7.1s6.5-3.2,6.5-7.1S35.8,75.8,32.2,75.8z
		 M32.2,85.7c-1.4,0-2.6-1.2-2.6-2.8c0-1.5,1.1-2.8,2.6-2.8s2.6,1.2,2.6,2.8C34.8,84.4,33.6,85.7,32.2,85.7z"/>
   <path style="fill:#FFFFFF;" d="M71.8,75.8c-3.6,0-6.5,3.2-6.5,7.1s2.9,7.1,6.5,7.1s6.5-3.2,6.5-7.1S75.4,75.8,71.8,75.8z
		 M71.8,85.7c-1.4,0-2.6-1.2-2.6-2.8c0-1.5,1.1-2.8,2.6-2.8s2.6,1.2,2.6,2.8C74.4,84.4,73.2,85.7,71.8,85.7z"/>
</svg>
