<svg xmlns="http://www.w3.org/2000/svg" viewBox="0 0 100 100">
   <polygon style="fill:#3D701E;" points="50.4,5.7 98.7,94.3 1.3,94.3 "/>
   <polygon style="fill:#FFFFFF;" points="82.2,84.1 91.3,87.8 88.7,77.8 87.3,78.3 88.8,83.9 42.6,33.4 46.2,34.6 46.9,33.2 
		38.8,30.3 41.6,39.5 43,38.9 41.5,34.4 87.7,84.9 82.9,82.8 	"/>
   <path style="fill:#FFFFFF;" d="M22.4,88.9V73.6h-4.1v-3.1h11.1v3.1h-4.1v15.3H22.4z"/>
   <path style="fill:#FFFFFF;" d="M31.2,88.9V70.5h5.9c1.5,0,2.6,0.2,3.2,0.5c0.7,0.3,1.2,0.9,1.6,1.8c0.4,0.8,0.6,1.8,0.6,2.9
			c0,1.4-0.3,2.5-0.9,3.4c-0.6,0.9-1.5,1.5-2.8,1.7c0.6,0.5,1.1,1,1.5,1.5c0.4,0.6,0.9,1.6,1.6,3l1.7,3.6h-3.4l-2-4
			c-0.7-1.4-1.2-2.3-1.5-2.7s-0.5-0.6-0.8-0.8c-0.3-0.1-0.8-0.2-1.4-0.2H34v7.7H31.2z M34,78.3h2.1c1.3,0,2.2-0.1,2.5-0.2
			c0.3-0.2,0.6-0.4,0.8-0.8c0.2-0.4,0.3-0.8,0.3-1.4c0-0.6-0.1-1.1-0.4-1.5s-0.6-0.6-1.1-0.7c-0.2,0-0.9-0.1-2-0.1H34V78.3z"/>
   <path style="fill:#FFFFFF;" d="M57.8,88.9h-3.1l-1.2-4.2h-5.6l-1.1,4.2h-3l5.4-18.4h3L57.8,88.9z M52.6,81.6l-1.9-6.8l-1.9,6.8
			H52.6z"/>
   <path style="fill:#FFFFFF;" d="M59.2,88.9V70.5h4.2L65.9,83l2.5-12.5h4.2v18.4H70V74.4l-2.8,14.5h-2.7l-2.8-14.5v14.5H59.2z"/>
   <path style="fill:#FFFFFF;" d="M44.7,51.1v12.1H56V51.1H44.7z M53.8,60.9h-0.7v0.4h-5.6v-0.4h-0.6v-7.2h6.9V60.9z"/>
</svg>
