<svg xmlns="http://www.w3.org/2000/svg" viewBox="0 0 100 100">
   <polygon style="fill:#3D701E;" points="50.4,5.7 98.7,94.3 1.3,94.3 "/>
   <path style="fill:#FFFFFF;" d="M60,52.6h-4.4l-1.7-5h-8l-1.6,5H40l7.8-21.8H52L60,52.6z M52.6,44l-2.7-8.1L47.2,44H52.6z"/>
   <path style="fill:#FFFFFF;" d="M74.2,83.5v-7.2v-1V63.5c0-1-0.8-1.9-1.9-1.9H41.9c-1,0-1.9,0.8-1.9,1.9v7.1h-7.9l-6,6.1
		c0,0-4.8,0-6.6,0s-3.1,2.8-3.1,2.8l0.1,3.4l-1.1,0.4v2.2h2.8c0.1-2.5,2.2-4.5,4.7-4.5c2.6,0,4.7,2.1,4.7,4.8c0,0.2,0,0.5-0.1,0.7
		h-0.8c-0.3-2.1-1.9-3.8-3.8-3.8c-2.1,0-3.8,2-3.8,4.5c0,2.5,1.7,4.5,3.8,4.5c1.9,0,3.5-1.6,3.8-3.8h1.9v-0.3h24.7l0.2,0.4h1.8
		c0.2,2.2,1.8,3.9,3.8,3.9c2.1,0,3.8-2,3.8-4.5c0-2.5-1.7-4.5-3.8-4.5c-2,0-3.6,1.7-3.8,3.9h-0.9c-0.1-0.4-0.2-0.7-0.2-1.1
		c0-2.6,2.1-4.8,4.7-4.8c2.6,0,4.9,2.1,4.9,4.8c0,0.3,0,0.6-0.1,0.9h0.4h5v0.6h4.3v-0.6h0.2v0h1v-3.2H74.2z M23.1,89.4
		c-1.1,0-2-1-2-2.3s0.9-2.3,2-2.3c1.1,0,2,1,2,2.3S24.2,89.4,23.1,89.4z M59.2,85.1c1.1,0,2,1,2,2.3s-0.9,2.3-2,2.3
		c-1.1,0-2-1-2-2.3S58.2,85.1,59.2,85.1z M43.7,63.3h26.1v1H43.7V63.3z M61.3,72.2L60,74.6l-1.9-1.2v2.7h-2.7v-2.8l-2,1.3l-1.4-2.4
		l2.1-1.3l-2.1-1.3l1.4-2.4l2,1.3v-2.6h2.7v2.5l1.9-1.2l1.4,2.4l-2.1,1.3L61.3,72.2z M40.8,64.9c0-0.2,0.2-0.4,0.4-0.4H43
		c0.2,0,0.4,0.2,0.4,0.4v1.8c0,0.2-0.2,0.4-0.4,0.4h-1.8c-0.2,0-0.4-0.2-0.4-0.4V64.9z M33.7,71.9c0,0,3.3,0,3.9,0
		c0.6,0,0.5,0.5,0.5,0.5v4h-8.8L33.7,71.9z M71.8,85.2l-0.3,0.3c-0.3,0.3-0.8,0.3-1.1-0.1l-4.5-5.8c-0.1-0.2-0.3-0.3-0.6-0.3H19.5
		c0,0-0.9-0.9,0-1.6h22.2v-0.9h24.3c0.2,0,0.4,0.1,0.6,0.3l5.4,7.1C72,84.5,72,84.9,71.8,85.2z M72.8,67.2c0,0.2-0.2,0.4-0.4,0.4
		h-1.7c-0.2,0-0.4-0.2-0.4-0.4V65c0-0.2,0.2-0.4,0.4-0.4h1.7c0.2,0,0.4,0.2,0.4,0.4V67.2z"/>
</svg>
