<svg xmlns="http://www.w3.org/2000/svg" viewBox="0 0 100 100">
   <polygon style="fill:#3D701E;" points="50.4,5.7 98.7,94.3 1.3,94.3 "/>
   <path style="fill:#FFFFFF;" d="M67.1,51.2c-0.9-1.8-3-0.3-4.9,0.7c-1.9,1-3,0.4-3,0.4s-3-6.7-4-7c-0.6-0.2-1.1-1.5-1.3-2.4
		c2-0.7,3.4-2.6,3.4-4.9c0-2.9-2.3-5.2-5.2-5.2c-2.9,0-5.2,2.3-5.2,5.2c0,1.8,0.9,3.3,2.2,4.3c0,1-1.4,0.8-1.4,0.8
		c-11.4,1.3-15.4,10.7-15.1,13.7s2.9,2.8,4,2.3c1.1-0.5,3.3-4.2,3.8-5.6s1.4-2.1,2.4-1.4c1,0.7-0.6,2.9-0.6,2.9s-3.8,7-4.6,8.7
		c-0.8,1.7-0.9,4.7-1.7,6.6c-0.8,1.9-5.9,6-5.4,8.8s3.1,3,4.1,2.6c1-0.5,4.3-4.2,7.2-9.3c2.9-5.2,2.3-8.1,3.1-8
		c0.9,0.1,3.1,4.9,3.7,7.2c0.6,2.3,0.3,3.4,0.3,3.4s-3.1,3.3-2.5,7.2s3.4,2.7,3.4,2.7s5-5,5.9-9c0.9-4-1.2-8-3.1-12.1
		c-1.9-4-1.9-6.9-1.1-7.9c0.8-1,2.4-0.5,2.4-0.5s2.4,4,7,2.4C65.8,56.3,68,53,67.1,51.2z"/>
   <path style="fill:#FFFFFF;" d="M10.7,86.3h74.9c0,0,4.2-0.7,4.1,1.7c-0.1,2.5-2.6,2.1-4.3,2.1c-1.7,0-4.3,0-4.3,0l-35.6-0.6
		l-0.1,0.6H10.1C10.1,90.1,7.3,87.8,10.7,86.3z"/>
</svg>
