<svg xmlns="http://www.w3.org/2000/svg" viewBox="0 0 100 100"><path d="M62.74,77.23H36.67c.59-2.29,1-4.35,1.64-6.35.43-1.41,0-2.07-1.34-2.58a53.53,53.53,0,0,1-8.14-3.8l9-2.16-7-23,.41-.31L44.65,47c1.81-5.62,3.51-10.94,5.38-16.75C52.48,37.1,53.67,43.78,57.14,50l14.8-11.07-7.28,20L76,63.56c-1,.78-1.94,1.52-2.91,2.17-2.84,1.88-5.66,3.81-8.6,5.53-1.55.92-2.31,1.93-1.87,3.75A12.5,12.5,0,0,1,62.74,77.23Z"/><polygon points="35 77.46 33.52 77.01 35.36 70.92 19.88 63.85 34.03 60.06 26.88 33.32 43.02 42.02 49.82 22.29 58.41 44.99 76.24 32.64 69.2 56.57 82.46 62.97 65.77 73.81 66.12 77.15 64.59 77.32 64.14 73.04 79.33 63.17 67.35 57.4 73.53 36.39 57.66 47.38 49.88 26.82 43.89 44.23 29.3 36.37 35.92 61.15 24.42 64.23 37.23 70.08 35 77.46"/><path d="M32.61,58.38,15.5,49.91l2.11-4.7Zm-15.09-9.2,5.23,2.6-4.59-4Z"/><path d="M41.76,40.56,29.2,27l4-2.74ZM31.54,27.23l3.39,3.68L32.61,26.5Z"/><path d="M42.78,38.68,35.67,19.19l3.46-1.7,5.12,20.74ZM37.59,20l1.73,4.75-1.23-5Z"/><ellipse cx="27.74" cy="48.33" rx="1.69" ry="1.53"/><ellipse cx="43.99" cy="25.37" rx="1.43" ry="2.14" transform="translate(-4.7 10.95) rotate(-13.47)"/><path d="M59,39.73l-1.45-.52,6.13-20.46L67,20.62ZM64.6,21,63.12,26l2-4.66Z"/><ellipse cx="77.69" cy="44.83" rx="1.69" ry="1.53"/><ellipse cx="57.72" cy="22.31" rx="1.43" ry="2.14" transform="translate(-1.75 39.43) rotate(-37.2)"/><polygon points="45.79 10.24 49.22 7.84 49.85 19.8 45.79 10.24"/><path d="M63.89,39.61l-1.07-1.1,9.33-10.46L75,30.24Zm8.45-9.46-1.07,1.2,1.26-1.06Z"/><path d="M73.57,55.31,72.72,54,86,43.43l2.4,3.64Zm12.09-9.63-4.76,3.8,5.32-2.95Z"/></svg>