<svg xmlns="http://www.w3.org/2000/svg" viewBox="0 0 100 100"><path d="M18.63,45.23c4.29-1.4,7.47.17,10.63,1.87,3.26-4.06-.57-7.61-.7-11.54,3.43-.18,5.95,1.74,8.66,3.94a29.27,29.27,0,0,0-.34-16.68c4.06-1,7.09.2,9.07,4l.59-.22.9-12.86a38.37,38.37,0,0,1,9.93,20.41l.57-.1c.15-1.14.32-2.27.46-3.41s.26-2.4.42-3.92C63.68,30.38,65.41,35.36,66,41c2.76-.42,3.51-2.38,4.27-4.44a23.2,23.2,0,0,1,1.67-3.05,21.1,21.1,0,0,1,2.47,2.63c2.21,3.35,1.21,6.89.32,10.37a16.64,16.64,0,0,0-.8,3.63c.5-.62,1-1.28,1.51-1.84a26.39,26.39,0,0,1,3.49-3.37c1.73-1.23,2.45-.69,2.47,1.49a24.78,24.78,0,0,1-4.28,14.54c-2.5,3.7-4.29,7.88-6.5,11.79a9.79,9.79,0,0,1-2.44,2.8C61.63,80.6,54,80.6,46.41,80a48.38,48.38,0,0,1-9.63-2,9.84,9.84,0,0,1-6.55-6.22c-.64-1.67-1.38-3.29-2-5C25.46,59.58,24.21,51.69,18.63,45.23Z"/><rect x="39.44" y="59.47" width="24.39" height="16.5" fill="#fff"/><polygon points="35.59 61.12 51.63 41.68 67.43 61.12 35.59 61.12" fill="#fff"/><rect x="39.13" y="46.75" width="5.32" height="10.94" fill="#fff"/><rect x="49.57" y="66.71" width="3.88" height="9.66"/></svg>