<svg xmlns="http://www.w3.org/2000/svg" viewBox="0 0 100 100"><path d="M74.1,51.53C76.73,49.68,78,46.22,82,46.22c.2,4.87-.15,9.4-2.67,13.58-2.93,4.88-5.76,9.83-8.64,14.74a3.87,3.87,0,0,1-1,1.32c-4.09,2.7-8.31,5.06-13.41,5.17-6,.13-12.07.46-18-1.19-4.53-1.26-7.87-3.65-9.5-8.2C28,69.42,27,67.27,26.25,65c-2.16-6.15-3.78-12.54-8.33-17.52,2-1.8,5-1.39,10.55,1.37,3.4-4-.59-7.43-.71-11.28,3.51-.18,6.14,1.71,8.94,3.87a28.32,28.32,0,0,0-.35-16.27c4.11-1.07,7.22.16,9.41,3.92l.52-.33c.29-4,.57-7.91.89-12.49a37,37,0,0,1,10.29,20l.53-.09c.3-2.29.59-4.58.92-7.19,5,3.43,6.7,8.29,7.36,13.82,2.55-.29,3.45-2,4.24-3.9a27.28,27.28,0,0,1,2-3.41,28.62,28.62,0,0,1,2.62,3c2.07,3.16.93,6.44.13,9.66C75,49.36,74.49,50.43,74.1,51.53ZM35.57,67.68l.08.77c3.8,1.67,7.14,4.76,11.86,3.65,1.59-.37,2.16.31,2.09,1.84a23.1,23.1,0,0,0,0,4.16c.06.52.85,1,1.31,1.42a5.07,5.07,0,0,0,1-1.4,6.44,6.44,0,0,0,0-1.86c0-3.47.95-4.78,4.4-4.79a10.19,10.19,0,0,0,8-3.81,28.15,28.15,0,0,0,2.2-3.36c-1.25-.44-2.48-.94-3.76-1.29-.79-.22-1.66-.18-2.47-.37a8.65,8.65,0,0,1-1.7-.88c1.08-.52,1.84-.67,2.22-1.13a18.52,18.52,0,0,0,1.64-2.72c-.69-.34-1.38-.69-2.08-1-.41-.2-.84-.36-1.5-.64a34.84,34.84,0,0,0,2.28-2.65c.85-1.18,1.88-2.59.5-3.89s-2.12.47-3.1,1a13,13,0,0,1-1.75.76,8.64,8.64,0,0,1-.33-2.21c.21-1.7.59-3.38,1-5.47-4.82.44-5.13-3-5.82-6.14A13.82,13.82,0,0,0,51,35.51c-.29-.72-.7-1.38-1.13-2.22-1.5,2.24-2.81,4.19-4.08,6.16-.13.2,0,.56,0,.82-.45,2.08-.92,4.16-1.34,6.07L41,45.78c.1,1.1.13,2.22.31,3.32s.54,2.17.88,3.5L37.75,51c.13,3.85,3.89,4.53,5.22,7.43H34.11l-.35.71,7.43,5.45Z"/><path d="M35.57,67.68l5.62-3.05-7.43-5.45.35-.71H43c-1.33-2.9-5.09-3.58-5.22-7.43l4.46,1.56c-.34-1.33-.69-2.41-.88-3.5s-.21-2.22-.31-3.32l3.39.56c.42-1.91.89-4,1.34-6.07.06-.26-.1-.62,0-.82,1.27-2,2.58-3.92,4.08-6.16.43.84.84,1.5,1.13,2.22a13.82,13.82,0,0,1,.66,2.19c.69,3.13,1,6.58,5.82,6.14-.39,2.09-.77,3.77-1,5.47a8.64,8.64,0,0,0,.33,2.21,13,13,0,0,0,1.75-.76c1-.58,1.73-2.34,3.1-1s.35,2.71-.5,3.89a34.84,34.84,0,0,1-2.28,2.65c.66.28,1.09.44,1.5.64.7.33,1.39.68,2.08,1a18.52,18.52,0,0,1-1.64,2.72c-.38.46-1.14.61-2.22,1.13a8.65,8.65,0,0,0,1.7.88c.81.19,1.68.15,2.47.37,1.28.35,2.51.85,3.76,1.29a28.15,28.15,0,0,1-2.2,3.36,10.19,10.19,0,0,1-8,3.81c-3.45,0-4.44,1.32-4.4,4.79a6.44,6.44,0,0,1,0,1.86c-.15.52.22,1.39-1,1.4-1.4,0-1.25-.9-1.31-1.42a23.1,23.1,0,0,1,0-4.16c.07-1.53-.5-2.21-2.09-1.84-4.72,1.11-8.06-2-11.86-3.65Z" fill="#fff"/></svg>