<svg xmlns="http://www.w3.org/2000/svg" viewBox="0 0 100 100"><ellipse cx="50.13" cy="62.65" rx="4.94" ry="4.85" transform="translate(-12.75 112.49) rotate(-89.73)"/><path d="M61.27,44.54l-7.43,13A6.16,6.16,0,0,1,56.27,62l15.14.07A21,21,0,0,0,61.27,44.54ZM28.59,61.9,43.73,62a6.16,6.16,0,0,1,2.57-4.52L39,44.38A21,21,0,0,0,28.59,61.9Zm24,6.19a6.47,6.47,0,0,1-2.64.56,6.2,6.2,0,0,1-2.3-.45l-8.2,12.61a21.67,21.67,0,0,0,21.2-.08Z"/><line x1="46.3" y1="57.45" x2="38.99" y2="44.38"/><line x1="43.73" y1="61.97" x2="28.59" y2="61.9"/><line x1="53.84" y1="57.56" x2="61.27" y2="44.54"/><line x1="56.27" y1="62.02" x2="71.41" y2="62.09"/><line x1="39.47" y1="80.81" x2="47.67" y2="68.2"/><line x1="60.67" y1="80.73" x2="52.61" y2="68.09"/><path d="M62.35,38.84c-4.53-5.75-3.71-12.38-3.22-16.35a21.12,21.12,0,0,0,.22-2.35c0-2.54-4.46-3.68-8.87-3.68s-8.87,1.14-8.87,3.68a20.74,20.74,0,0,0,.21,2.35c.49,4,1.31,10.6-3.22,16.35a1.83,1.83,0,0,0-.12,2c.52,1.09,2.74,3.61,12,3.61s11.47-2.52,12-3.61A1.85,1.85,0,0,0,62.35,38.84Zm-11.87-20c3.55,0,5.71.79,6.32,1.25-.62.46-2.77,1.25-6.32,1.25s-5.71-.79-6.32-1.25C44.77,19.68,46.92,18.89,50.48,18.89Zm0,23.11c-6.57,0-9.07-1.4-9.68-2,4.55-6.1,4-13,3.52-17.06a18.61,18.61,0,0,0,6.16.92,18.65,18.65,0,0,0,6.16-.92c-.49,4.1-1,11,3.51,17.06C59.54,40.6,57,42,50.48,42Z"/></svg>