<svg xmlns="http://www.w3.org/2000/svg" viewBox="0 0 100 100"><path d="M66.32,41c2.78-.56,3.61-2.36,4.35-4.35a24.37,24.37,0,0,1,1.76-3.2A22.76,22.76,0,0,1,75,36.18c2.24,3.31,1.14,6.79.28,10.22a25.39,25.39,0,0,0-.92,3.54c.35-.34.71-.66,1-1a21.33,21.33,0,0,1,2.7-3,18.4,18.4,0,0,1,3.5-1.64,20.93,20.93,0,0,1,.51,3.38,23.34,23.34,0,0,1-4.3,13.06c-2.59,3.85-4.57,8.11-6.9,12.14a7.59,7.59,0,0,1-2.19,2.45,24.55,24.55,0,0,1-14.44,4.72c-5.37-.09-10.71.17-16-1.34-4.42-1.26-7.77-3.54-9.34-8.06-1.39-4-2.95-7.93-4.34-11.93-1.57-4.47-3.15-8.93-6.34-12.58a5.37,5.37,0,0,1-.47-1.1c4-1.12,7.4.14,10.64,2.06,3.19-4.18-.52-7.73-.78-11.65,3.53-.08,6.25,1.74,9,4a29.11,29.11,0,0,0-.33-16.63c4.16-1.11,7.25.1,9.33,4l.61-.33c.28-4.06.57-8.12.89-12.77A38,38,0,0,1,57.51,34.11l.56-.15.9-7.3C63.89,30.3,65.74,35.22,66.32,41ZM39.44,50.12c-2.63-.37-3.22.85-3.2,2.81.08,7.35.1,14.69.11,22,0,1.3.43,1.93,1.82,1.93q12.82,0,25.65,0c1.31,0,1.93-.48,1.93-1.87q0-11.44,0-22.89c0-1.35-.55-1.9-1.9-1.89-3.11,0-6.22-.08-9.33-.1H40.86c0-.94-.1-1.62-.1-2.31,0-3.2,1.4-4.28,4.56-3.52a5.9,5.9,0,0,1,1,.37c1.16.49,1.86,0,1.89-1.14.19-5.78,1.28-6-5.07-6.47-.42,0-.85,0-1.27,0-1.87-.25-2.5.58-2.44,2.41C39.51,42.92,39.44,46.37,39.44,50.12Z"/><path d="M39.44,50.12c0-3.75.07-7.2,0-10.65-.06-1.83.57-2.66,2.44-2.41.42,0,.85,0,1.27,0,6.35.49,5.26.69,5.07,6.47,0,1.15-.73,1.63-1.89,1.14a5.9,5.9,0,0,0-1-.37c-3.16-.76-4.56.32-4.56,3.52,0,.69.06,1.37.1,2.31H54.51c3.11,0,6.22.11,9.33.1,1.35,0,1.91.54,1.9,1.89q0,11.44,0,22.89c0,1.39-.62,1.88-1.93,1.87q-12.82,0-25.65,0c-1.39,0-1.82-.63-1.82-1.93,0-7.35,0-14.69-.11-22C36.22,51,36.81,49.75,39.44,50.12ZM54.24,75.6V64.94H48.1V75.6Zm4.61-20.9v6.75h2.7V54.7ZM49.6,61.55V54.72H46.7v6.83Zm-9.09-6.82v6.83h2.66V54.73Zm12.58,6.94,2.33-.11V54.77H53.09Z" fill="#fff"/><path d="M54.24,75.6H48.1V64.94h6.14Z"/><path d="M58.85,54.7h2.7v6.75h-2.7Z"/><path d="M49.6,61.55H46.7V54.72h2.9Z"/><path d="M40.51,54.73h2.66v6.83H40.51Z"/><path d="M53.09,61.67v-6.9h2.33v6.79Z"/></svg>