<svg xmlns="http://www.w3.org/2000/svg" viewBox="0 0 100 100"><path d="M19.33,46.91c3.77-1,6.93.12,10,2,3.31-3.95-.51-7.52-.66-11.39,3.41,0,5.92,1.71,8.55,3.93A28.94,28.94,0,0,0,37,25.21c4-1.1,6.91.22,8.93,3.81l.57-.24.88-12.47a37.6,37.6,0,0,1,9.81,19.9l.55-.13.86-7.1c4.82,3.58,6.44,8.48,7,13.91,2.72-.44,3.44-2.34,4.19-4.32a20.44,20.44,0,0,1,1.79-3,27.21,27.21,0,0,1,2.34,2.71c2.15,3.33,1.11,6.78.21,10.2-.29,1.11-.72,2.19-1.22,3.7,2.63-2.29,3.76-5.77,7.7-6,.27,4.84,0,9.35-2.41,13.54-2.83,5-5.59,10-8.4,15a3.89,3.89,0,0,1-1,1.3c-4.07,2.81-8.3,5.14-13.49,5.16-5.59,0-11.17.36-16.65-1.29C34.51,78.56,31.4,76.31,30,72,28.58,68,27.09,64,25.67,60c-1.49-4.23-3-8.47-6-12A4.15,4.15,0,0,1,19.33,46.91ZM62.88,78.06V43.63h-24V78.06Z"/><path d="M62.88,78.06h-24V43.63h24Zm-7.71-9.61h-8v8.3h8Zm.24-11v8h5.14v-8Zm-2,8.06V57.82H48.52v7.69Zm7.18-11.06v-8H55.94v8Zm-7.09-7.59H48.82v7.22h4.64ZM42,46.78v7.6H46.5v-7.6Zm-.32,11v7.3h4.43v-7.3Z" fill="#fff"/><path d="M55.17,68.45v8.3h-8v-8.3Z"/><path d="M55.41,57.45h5.14v8H55.41Z"/><path d="M53.37,65.51H48.52V57.82h4.85Z"/><path d="M60.55,54.45H55.94v-8h4.61Z"/><path d="M53.46,46.86v7.22H48.82V46.86Z"/><path d="M42,46.78H46.5v7.6H42Z"/><path d="M41.71,57.79h4.43v7.3H41.71Z"/></svg>