<svg xmlns="http://www.w3.org/2000/svg" viewBox="0 0 100 100"><path d="M62.74,55.85V77.73H30.54V32.08H43.12s6,12.57,7.21,13.93S58.32,53.48,62.74,55.85Z"/><path d="M69.53,57.8,65.38,35.23,46.19,38.34l.75,1.49s8.75,11,9.44,11.59S67.16,57.32,69.53,57.8Z"/><rect x="43.52" y="71.05" width="6.03" height="6.87" fill="#fff"/><rect x="36.24" y="60.67" width="6.01" height="6.01" fill="#fff"/><rect x="50.59" y="60.67" width="6.01" height="6.01" fill="#fff"/><rect x="36.24" y="50.21" width="6.01" height="6.01" fill="#fff"/><rect x="36.24" y="39.76" width="6.01" height="6.01" fill="#fff"/><polygon points="56.61 56.23 50.59 56.23 50.59 50.22 54.92 50.22 56.61 51.6 56.61 56.23" fill="#fff"/><rect x="55.27" y="43.36" width="6.09" height="6.09" transform="translate(-10.26 17.24) rotate(-15.47)" fill="#fff"/><polygon points="80.97 37.06 86.18 51.42 70.48 46.8 74.14 42.77 51.69 21.18 53.98 19.75 76.69 40.47 80.97 37.06"/></svg>