<svg xmlns="http://www.w3.org/2000/svg" viewBox="0 0 100 100"><path d="M18,45.17c4.38-1.41,7.62.16,10.84,1.85,3.33-4.05-.58-7.59-.71-11.5,3.5-.19,6.06,1.73,8.83,3.92a28.63,28.63,0,0,0-.35-16.64c4.14-1,7.23.2,9.25,4l.6-.22.92-12.83A38,38,0,0,1,57.52,34.1L58.1,34c.15-1.13.32-2.26.46-3.39s.27-2.4.43-3.92c5,3.66,6.72,8.63,7.3,14.22,2.81-.42,3.58-2.38,4.35-4.43a22.9,22.9,0,0,1,1.7-3,20.8,20.8,0,0,1,2.52,2.63c2.25,3.35,1.23,6.87.33,10.35A15.86,15.86,0,0,0,74.37,50c.51-.62,1-1.28,1.54-1.84a26.85,26.85,0,0,1,3.56-3.36c1.77-1.23,2.5-.69,2.52,1.49a24.37,24.37,0,0,1-4.37,14.51c-2.55,3.69-4.37,7.86-6.63,11.76a9.91,9.91,0,0,1-2.48,2.8c-6.65,5.07-14.4,5.08-22.17,4.47a49.64,49.64,0,0,1-9.82-2,9.92,9.92,0,0,1-6.68-6.2c-.65-1.66-1.4-3.28-2.05-5C25,59.48,23.7,51.61,18,45.17Z"/></svg>