<svg xmlns="http://www.w3.org/2000/svg" viewBox="0 0 100 100"><path d="M28.37,35.5c3.43,0,6,1.76,8.51,3.86,1.54-3.29,1.54-7.69,0-16.58,4-1.05,7,.42,9.08,4.07l.52-.28.88-12.84A38.83,38.83,0,0,1,57.48,34.32L58,34.2l.88-7.46c4.88,3.61,6.62,8.57,7.25,14.7a18.35,18.35,0,0,0,2.93-2.17,15,15,0,0,0,1.28-2.6c.6-1.09,1.27-2.14,1.92-3.21a25.58,25.58,0,0,1,2.36,2.75c2.16,3.35,1.14,6.84.26,10.28A14.31,14.31,0,0,0,74.13,50c.45-.55.88-1.1,1.36-1.62a22.07,22.07,0,0,1,2.88-3,9.83,9.83,0,0,1,2.79-1A14.17,14.17,0,0,1,81.61,47a24.62,24.62,0,0,1-4.5,14.27c-2.48,3.67-4.27,7.8-6.46,11.67a8.27,8.27,0,0,1-2.29,2.56,24.19,24.19,0,0,1-15,4.7c-5.22-.13-10.43,0-15.48-1.69-3.7-1.25-6.56-3.28-7.94-7.07-.4-1.11-.9-2.18-1.35-3.28-3.12-7.6-4.27-16-10.15-22.93,4.18-1.34,7.39.09,10.64,1.92C32.39,43.08,28.46,39.44,28.37,35.5ZM34.1,73.44H66.83V46.27H63.06V57.44H62V46.34H57.78V57.18l-1,0V47.78l-.73-.17Q53,51.74,50,55.84l-.58-.12V47.41l-.58-.09-6.69,8.87c-.18-3.1-.34-5.8-.49-8.5L41,47.55c-2.2,3.2-4.41,6.4-6.6,9.61a2,2,0,0,0-.3,1C34.1,63.21,34.1,68.28,34.1,73.44Z"/><path d="M34.1,73.44c0-5.16,0-10.23,0-15.31a2,2,0,0,1,.3-1c2.19-3.21,4.4-6.41,6.6-9.61l.62.14c.15,2.7.31,5.4.49,8.5l6.69-8.87.58.09v8.31l.58.12q3-4.11,6.08-8.23l.73.17v9.37l1,0V46.34H62V57.43h1.09V46.27h3.77V73.44Z" fill="#fff"/></svg>