<?xml version="1.0" encoding="iso-8859-1"?>
<!-- Generator: Adobe Illustrator 25.4.1, SVG Export Plug-In . SVG Version: 6.00 Build 0)  -->
<svg version="1.1"
	 id="svg8" xmlns:cc="http://creativecommons.org/ns#" xmlns:dc="http://purl.org/dc/elements/1.1/" xmlns:inkscape="http://www.inkscape.org/namespaces/inkscape" xmlns:rdf="http://www.w3.org/1999/02/22-rdf-syntax-ns#" xmlns:sodipodi="http://sodipodi.sourceforge.net/DTD/sodipodi-0.dtd" xmlns:svg="http://www.w3.org/2000/svg"
	 xmlns="http://www.w3.org/2000/svg" xmlns:xlink="http://www.w3.org/1999/xlink" x="0px" y="0px" viewBox="0 0 100 100"
	 style="enable-background:new 0 0 100 100;" xml:space="preserve">
<sodipodi:namedview  bordercolor="#666666" borderopacity="1.0" id="base" inkscape:current-layer="layer3" inkscape:cx="-302.11164" inkscape:cy="84.283015" inkscape:document-units="px" inkscape:guide-bbox="true" inkscape:lockguides="true" inkscape:pageopacity="0.0" inkscape:pageshadow="2" inkscape:window-height="657" inkscape:window-maximized="1" inkscape:window-width="1280" inkscape:window-x="-8" inkscape:window-y="-8" inkscape:zoom="0.765625" pagecolor="#ffffff" showgrid="false" showguides="false" units="px">
	<sodipodi:guide  id="guide5700" inkscape:locked="true" orientation="0,1" position="-0.93017576,23.874511"></sodipodi:guide>
	<sodipodi:guide  id="guide5726" inkscape:locked="true" orientation="0,1" position="-26.098869,26.473047"></sodipodi:guide>
	<sodipodi:guide  id="guide5880" inkscape:locked="true" orientation="0,1" position="104.51042,-2.9104167"></sodipodi:guide>
	<sodipodi:guide  id="guide6001" inkscape:locked="true" orientation="0,1" position="-71.093695,29.279377"></sodipodi:guide>
	<sodipodi:guide  id="guide6005" inkscape:locked="true" orientation="0,1" position="-46.304445,58.278122"></sodipodi:guide>
	<sodipodi:guide  id="guide6736" inkscape:locked="true" orientation="0,1" position="-0.10335287,20.205485"></sodipodi:guide>
	<sodipodi:guide  id="guide6738" inkscape:locked="true" orientation="0,1" position="-0.43848907,22.874513"></sodipodi:guide>
	<inkscape:grid  id="grid2386" type="xygrid"></inkscape:grid>
</sodipodi:namedview>
<g id="g1180" transform="translate(0,-229.2666)" inkscape:groupmode="layer" inkscape:label="halo:always" style="display:none;">
	<g id="g1210" inkscape:groupmode="layer" inkscape:label="-gray-halo:iter3" style="display:inline;">
		<g id="circle1208">
			<path style="fill:#919395;" d="M50,329.3c-27.6,0-50-22.4-50-50s22.4-50,50-50s50,22.4,50,50S77.6,329.3,50,329.3z M50,237.9
				c-22.8,0-41.4,18.6-41.4,41.4s18.6,41.4,41.4,41.4s41.4-18.6,41.4-41.4S72.8,237.9,50,237.9z"/>
		</g>
	</g>
	<g id="g1206" inkscape:groupmode="layer" inkscape:label="-red-halo:iter3" style="display:inline;">
		<g id="circle1204">
			<path style="fill:#C52038;" d="M50,329.3c-27.6,0-50-22.4-50-50s22.4-50,50-50s50,22.4,50,50S77.6,329.3,50,329.3z M50,237.9
				c-22.8,0-41.4,18.6-41.4,41.4s18.6,41.4,41.4,41.4s41.4-18.6,41.4-41.4S72.8,237.9,50,237.9z"/>
		</g>
	</g>
	<g id="g1202" inkscape:groupmode="layer" inkscape:label="-green-halo:iter3" style="display:inline;">
		<g id="circle1200">
			<path style="fill:#5E9C42;" d="M50,329.3c-27.6,0-50-22.4-50-50s22.4-50,50-50s50,22.4,50,50S77.6,329.3,50,329.3z M50,237.9
				c-22.8,0-41.4,18.6-41.4,41.4s18.6,41.4,41.4,41.4s41.4-18.6,41.4-41.4S72.8,237.9,50,237.9z"/>
		</g>
	</g>
	<g id="layer18" inkscape:groupmode="layer" inkscape:label="-yellow-halo:iter3" style="display:inline;">
		<g id="circle1178-4">
			<path style="fill:#FBBA16;" d="M50,329.3c-27.6,0-50-22.4-50-50s22.4-50,50-50s50,22.4,50,50S77.6,329.3,50,329.3z M50,237.9
				c-22.8,0-41.4,18.6-41.4,41.4s18.6,41.4,41.4,41.4s41.4-18.6,41.4-41.4S72.8,237.9,50,237.9z"/>
		</g>
	</g>
</g>
<path id="path11412" inkscape:connector-curvature="0" style="fill:#003366;" d="M25.531,33.056c-0.359,0-0.697,0.074-1.002,0.206
	c-0.305,0.132-0.577,0.322-0.804,0.554c-0.227,0.232-0.409,0.507-0.534,0.808s-0.194,0.628-0.194,0.966v0.148v0.148v0.148v0.148
	v0.211v0.211v0.211v0.211h-0.211h-0.211h-0.211h-0.211c-0.106,0-0.211,0.021-0.31,0.061s-0.192,0.098-0.271,0.172
	c-0.079,0.074-0.145,0.164-0.191,0.267c-0.046,0.103-0.073,0.219-0.073,0.346v2.471v2.471v2.471v2.471
	c0,0.106,0.021,0.211,0.061,0.31c0.04,0.099,0.098,0.192,0.172,0.271c0.074,0.079,0.164,0.145,0.267,0.191
	c0.103,0.046,0.219,0.072,0.346,0.072h0.211h0.211h0.211h0.211v3.274v3.274v3.274v3.274c0,0.338,0.069,0.665,0.193,0.966
	c0.124,0.301,0.304,0.576,0.525,0.808c0.222,0.232,0.486,0.422,0.779,0.554c0.293,0.132,0.615,0.206,0.953,0.206v0.317v0.317v0.317
	V65.5v0.465v0.465v0.465v0.465c0,0.084,0.016,0.164,0.045,0.235c0.029,0.071,0.071,0.135,0.124,0.187s0.116,0.095,0.187,0.124
	s0.15,0.045,0.235,0.045h0.76h0.76h0.76h0.76c0.084,0,0.164-0.016,0.235-0.045s0.135-0.071,0.187-0.124s0.095-0.116,0.124-0.187
	c0.029-0.071,0.045-0.15,0.045-0.235v-0.76v-0.76v-0.76v-0.76h5.154h5.154h5.154h5.154v0.317v0.317v0.317v0.317v0.465v0.465v0.465
	v0.465c0,0.084,0.016,0.164,0.045,0.235c0.029,0.071,0.071,0.135,0.124,0.187c0.053,0.053,0.116,0.095,0.187,0.124
	c0.071,0.029,0.15,0.045,0.235,0.045h0.76h0.76h0.76h0.76c0.084,0,0.164-0.016,0.235-0.045c0.071-0.029,0.135-0.071,0.187-0.124
	c0.053-0.053,0.095-0.116,0.124-0.187c0.029-0.071,0.045-0.15,0.045-0.235v-0.465v-0.465v-0.465v-0.465v-0.317V64.95v-0.317v-0.317
	v-0.021v-0.021v-0.021v-0.021c0.253-0.106,0.481-0.243,0.68-0.405c0.199-0.162,0.371-0.35,0.513-0.556
	c0.143-0.206,0.256-0.43,0.34-0.666c0.083-0.236,0.136-0.484,0.157-0.738V58.55v-3.316v-3.316v-3.316h0.211h0.211h0.211h0.211
	c0.106,0,0.211-0.021,0.31-0.061c0.099-0.04,0.192-0.098,0.271-0.172c0.079-0.074,0.145-0.164,0.191-0.267
	c0.046-0.103,0.072-0.219,0.072-0.346v-2.471v-2.471v-2.471v-2.471c0-0.106-0.021-0.211-0.061-0.31
	c-0.04-0.099-0.098-0.192-0.172-0.271s-0.164-0.145-0.267-0.191c-0.103-0.046-0.219-0.072-0.346-0.072h-0.211h-0.211h-0.211H56.2
	v-0.211v-0.211v-0.211v-0.211v-0.148v-0.148v-0.148v-0.148c0-0.359-0.074-0.697-0.206-1.002s-0.322-0.577-0.554-0.804
	c-0.232-0.227-0.507-0.409-0.808-0.535c-0.301-0.125-0.628-0.194-0.966-0.194c0,0-1.758,0-4.396,0c-2.638,0-6.154,0-9.671,0
	s-7.034,0-9.671,0S25.531,33.056,25.531,33.056z"/>
<path id="path11410" inkscape:connector-curvature="0" style="fill:#FFFFFF;" d="M26.037,37.027h6.696h6.696h6.696h6.696
	c0.148,0,0.29,0.032,0.421,0.09c0.131,0.058,0.249,0.143,0.349,0.248c0.1,0.106,0.182,0.232,0.239,0.375s0.089,0.301,0.089,0.47
	v3.38v3.38v3.38v3.38c0,0.169-0.032,0.327-0.089,0.47c-0.057,0.143-0.139,0.269-0.239,0.375s-0.219,0.19-0.35,0.248
	c-0.131,0.058-0.273,0.09-0.421,0.09h-6.696h-6.696h-6.696h-6.696c-0.148,0-0.29-0.032-0.421-0.09
	c-0.131-0.058-0.25-0.143-0.35-0.248c-0.101-0.106-0.182-0.232-0.239-0.375c-0.057-0.143-0.088-0.301-0.088-0.47v-3.38v-3.38v-3.38
	v-3.38c0.021-0.169,0.063-0.327,0.124-0.47c0.061-0.143,0.14-0.269,0.235-0.375c0.095-0.106,0.206-0.19,0.33-0.248
	C25.752,37.059,25.89,37.027,26.037,37.027z"/>
<path id="path11408" inkscape:connector-curvature="0" style="fill:#FFFFFF;" d="M27.643,56.797L27.643,56.797L27.643,56.797
	L27.643,56.797L27.643,56.797L27.643,56.797L27.643,56.797L27.643,56.797L27.643,56.797c0.275,0,0.539,0.058,0.78,0.162
	c0.242,0.104,0.461,0.255,0.646,0.439c0.185,0.185,0.335,0.404,0.44,0.646c0.104,0.242,0.162,0.506,0.162,0.781
	c0,0.169-0.021,0.333-0.061,0.488c-0.04,0.156-0.098,0.304-0.172,0.441s-0.164,0.264-0.267,0.378
	c-0.103,0.114-0.219,0.214-0.346,0.298c-0.084,0.063-0.174,0.121-0.269,0.173c-0.095,0.052-0.195,0.097-0.301,0.134
	c-0.106,0.037-0.217,0.066-0.333,0.085c-0.116,0.02-0.238,0.03-0.364,0.03c-0.106,0-0.211-0.011-0.317-0.03
	c-0.106-0.02-0.211-0.049-0.317-0.085c-0.106-0.037-0.211-0.082-0.317-0.134c-0.106-0.052-0.211-0.11-0.317-0.173
	c-0.232-0.169-0.417-0.375-0.553-0.603c-0.136-0.228-0.223-0.479-0.26-0.738c-0.037-0.259-0.024-0.525,0.041-0.785
	c0.065-0.26,0.181-0.513,0.35-0.746c0.127-0.106,0.259-0.206,0.396-0.297s0.28-0.173,0.428-0.242
	c0.148-0.068,0.301-0.124,0.459-0.162S27.474,56.797,27.643,56.797L27.643,56.797L27.643,56.797L27.643,56.797L27.643,56.797z"/>
<path id="path6365" inkscape:connector-curvature="0" style="fill:#FFFFFF;" d="M51.299,56.797L51.299,56.797L51.299,56.797
	L51.299,56.797L51.299,56.797L51.299,56.797L51.299,56.797L51.299,56.797L51.299,56.797c0.275,0,0.539,0.058,0.78,0.162
	c0.242,0.104,0.461,0.255,0.646,0.439c0.185,0.185,0.335,0.404,0.44,0.646c0.104,0.242,0.162,0.506,0.162,0.781
	c0,0.169-0.021,0.333-0.061,0.488c-0.04,0.156-0.098,0.304-0.172,0.441c-0.074,0.137-0.164,0.264-0.267,0.378
	c-0.103,0.114-0.219,0.214-0.346,0.298c-0.084,0.063-0.174,0.121-0.269,0.173c-0.095,0.052-0.195,0.097-0.301,0.134
	c-0.106,0.037-0.216,0.066-0.333,0.085c-0.116,0.02-0.238,0.03-0.364,0.03c-0.106,0-0.211-0.011-0.317-0.03
	c-0.106-0.02-0.211-0.049-0.317-0.085c-0.106-0.037-0.211-0.082-0.317-0.134c-0.106-0.052-0.211-0.11-0.317-0.173
	c-0.232-0.169-0.417-0.375-0.553-0.603c-0.136-0.228-0.223-0.479-0.26-0.738c-0.037-0.259-0.023-0.525,0.041-0.785
	c0.065-0.26,0.181-0.513,0.35-0.746c0.127-0.106,0.259-0.206,0.396-0.297c0.137-0.091,0.28-0.173,0.428-0.242
	c0.148-0.068,0.301-0.124,0.459-0.162C50.967,56.818,51.13,56.797,51.299,56.797L51.299,56.797L51.299,56.797L51.299,56.797
	L51.299,56.797z"/>
<path id="path11416" inkscape:connector-curvature="0" style="fill:#003366;" d="M63.973,29.508c-0.929,0-1.801,0.026-2.618,0.075
	c-0.817,0.049-1.58,0.12-2.293,0.21s-1.375,0.198-1.992,0.321c-0.617,0.123-1.187,0.26-1.715,0.408
	c0.422,0.19,0.818,0.428,1.18,0.708c0.362,0.28,0.689,0.602,0.974,0.961c0.285,0.359,0.528,0.755,0.721,1.183
	c0.193,0.428,0.335,0.887,0.42,1.373c0.148,0.084,0.29,0.18,0.426,0.284c0.136,0.104,0.265,0.218,0.386,0.339
	c0.122,0.122,0.235,0.251,0.34,0.387s0.199,0.279,0.284,0.426h3.823h3.823h3.823h3.823c0.232,0,0.449,0.048,0.643,0.133
	c0.194,0.086,0.366,0.21,0.508,0.363c0.143,0.153,0.256,0.335,0.334,0.537c0.078,0.202,0.12,0.424,0.12,0.656v2.091v2.091v2.091
	v2.091c0,0.232-0.048,0.454-0.132,0.656s-0.206,0.384-0.354,0.537c-0.148,0.153-0.322,0.278-0.512,0.363
	c-0.19,0.086-0.396,0.133-0.607,0.133h-3.696h-3.696h-3.696h-3.696c0,0.317-0.042,0.618-0.12,0.902
	c-0.078,0.284-0.191,0.551-0.334,0.799c-0.143,0.248-0.315,0.478-0.509,0.687c-0.194,0.21-0.411,0.4-0.643,0.569v2.598v2.598v2.598
	v2.598h4.098h4.098h4.098h4.098c0.444,0,0.871-0.095,1.263-0.265c0.392-0.17,0.748-0.416,1.049-0.717
	c0.301-0.301,0.547-0.657,0.717-1.049c0.17-0.392,0.265-0.82,0.265-1.263v-5.872v-5.872v-5.872v-5.872c0,0-0.1-0.312-0.455-0.779
	c-0.355-0.467-0.965-1.09-1.985-1.714c-1.019-0.623-2.447-1.246-4.439-1.714C69.802,29.819,67.246,29.508,63.973,29.508z"/>
<path id="path6464" inkscape:connector-curvature="0" style="fill:#FFFFFF;" d="M73.013,52.826c0.338,0,0.66,0.069,0.953,0.194
	s0.557,0.307,0.779,0.534c0.222,0.227,0.401,0.499,0.525,0.804c0.124,0.305,0.193,0.643,0.193,1.002
	c0,0.338-0.069,0.665-0.193,0.966c-0.124,0.301-0.304,0.576-0.525,0.808s-0.486,0.422-0.779,0.554
	c-0.293,0.132-0.615,0.206-0.953,0.206c-0.338,0-0.66-0.069-0.953-0.194s-0.557-0.307-0.779-0.534
	c-0.222-0.227-0.401-0.499-0.525-0.804c-0.124-0.305-0.193-0.643-0.193-1.002s0.069-0.697,0.193-1.002
	c0.124-0.305,0.304-0.577,0.525-0.804c0.222-0.227,0.486-0.409,0.779-0.534S72.675,52.826,73.013,52.826z"/>
<path id="path8890-7" inkscape:connector-curvature="0" style="fill:#003366;" d="M70.563,62.965l0.127,0.275l0.127,0.275
	l0.127,0.275l0.127,0.275H67.88h-3.189h-3.189h-3.189c-0.063,0.127-0.132,0.248-0.206,0.366c-0.074,0.117-0.153,0.231-0.238,0.342
	c-0.084,0.111-0.174,0.219-0.269,0.326c-0.095,0.107-0.195,0.213-0.301,0.318v0.021v0.021v0.021V65.5v0.169v0.169v0.169v0.169h3.654
	h3.654h3.654h3.654l0.127,0.317l0.127,0.317l0.127,0.317l0.127,0.317h-3.781H64.86h-3.781h-3.781c0,0.19-0.021,0.38-0.059,0.568
	c-0.038,0.187-0.094,0.372-0.163,0.552c-0.068,0.18-0.15,0.354-0.241,0.52c-0.091,0.166-0.191,0.325-0.297,0.473h4.224h4.224h4.224
	h4.224l0.106,0.232l0.106,0.232l0.106,0.232l0.106,0.232h1.225h1.225h1.225h1.225l-1.225-1.88l-1.225-1.88l-1.225-1.88l-1.225-1.88
	h-0.824H72.21c0,0-0.412,0-0.824,0S70.563,62.965,70.563,62.965z"/>
<path id="path11418" inkscape:connector-curvature="0" style="fill:#FFFFFF;" d="M60.171,36.098h3.802h3.802h3.802h3.802
	c0.232,0,0.449,0.048,0.643,0.133c0.194,0.086,0.366,0.21,0.508,0.363c0.143,0.153,0.256,0.335,0.334,0.537
	c0.078,0.202,0.12,0.424,0.12,0.656v2.091v2.091v2.091v2.091c0,0.232-0.048,0.454-0.132,0.656c-0.084,0.202-0.206,0.384-0.354,0.537
	c-0.148,0.153-0.322,0.278-0.512,0.363c-0.19,0.086-0.396,0.133-0.607,0.133h-3.696h-3.696h-3.696h-3.696l-0.106-2.936l-0.106-2.936
	l-0.106-2.936L60.171,36.098z"/>
</svg>
