<?xml version="1.0" encoding="iso-8859-1"?>
<!-- Generator: Adobe Illustrator 25.4.1, SVG Export Plug-In . SVG Version: 6.00 Build 0)  -->
<svg version="1.1"
	 id="svg8" xmlns:cc="http://creativecommons.org/ns#" xmlns:dc="http://purl.org/dc/elements/1.1/" xmlns:inkscape="http://www.inkscape.org/namespaces/inkscape" xmlns:rdf="http://www.w3.org/1999/02/22-rdf-syntax-ns#" xmlns:sodipodi="http://sodipodi.sourceforge.net/DTD/sodipodi-0.dtd" xmlns:svg="http://www.w3.org/2000/svg"
	 xmlns="http://www.w3.org/2000/svg" xmlns:xlink="http://www.w3.org/1999/xlink" x="0px" y="0px" viewBox="0 0 100 100"
	 style="enable-background:new 0 0 100 100;" xml:space="preserve">
<sodipodi:namedview  bordercolor="#666666" borderopacity="1.0" id="base" inkscape:current-layer="layer3" inkscape:cx="-302.11164" inkscape:cy="84.283015" inkscape:document-units="px" inkscape:guide-bbox="true" inkscape:lockguides="true" inkscape:pageopacity="0.0" inkscape:pageshadow="2" inkscape:window-height="657" inkscape:window-maximized="1" inkscape:window-width="1280" inkscape:window-x="-8" inkscape:window-y="-8" inkscape:zoom="0.765625" pagecolor="#ffffff" showgrid="false" showguides="false" units="px">
	<sodipodi:guide  id="guide5700" inkscape:locked="true" orientation="0,1" position="-0.93017576,23.874511"></sodipodi:guide>
	<sodipodi:guide  id="guide5726" inkscape:locked="true" orientation="0,1" position="-26.098869,26.473047"></sodipodi:guide>
	<sodipodi:guide  id="guide5880" inkscape:locked="true" orientation="0,1" position="104.51042,-2.9104167"></sodipodi:guide>
	<sodipodi:guide  id="guide6001" inkscape:locked="true" orientation="0,1" position="-71.093695,29.279377"></sodipodi:guide>
	<sodipodi:guide  id="guide6005" inkscape:locked="true" orientation="0,1" position="-46.304445,58.278122"></sodipodi:guide>
	<sodipodi:guide  id="guide6736" inkscape:locked="true" orientation="0,1" position="-0.10335287,20.205485"></sodipodi:guide>
	<sodipodi:guide  id="guide6738" inkscape:locked="true" orientation="0,1" position="-0.43848907,22.874513"></sodipodi:guide>
	<inkscape:grid  id="grid2386" type="xygrid"></inkscape:grid>
</sodipodi:namedview>
<g id="g1180" transform="translate(0,-229.2666)" inkscape:groupmode="layer" inkscape:label="halo:always" style="display:none;">
	<g id="g1210" inkscape:groupmode="layer" inkscape:label="-gray-halo:iter3" style="display:inline;">
		<g id="circle1208">
			<path style="fill:#919395;" d="M50,329.3c-27.6,0-50-22.4-50-50s22.4-50,50-50s50,22.4,50,50S77.6,329.3,50,329.3z M50,237.9
				c-22.8,0-41.4,18.6-41.4,41.4s18.6,41.4,41.4,41.4s41.4-18.6,41.4-41.4S72.8,237.9,50,237.9z"/>
		</g>
	</g>
	<g id="g1206" inkscape:groupmode="layer" inkscape:label="-red-halo:iter3" style="display:inline;">
		<g id="circle1204">
			<path style="fill:#C52038;" d="M50,329.3c-27.6,0-50-22.4-50-50s22.4-50,50-50s50,22.4,50,50S77.6,329.3,50,329.3z M50,237.9
				c-22.8,0-41.4,18.6-41.4,41.4s18.6,41.4,41.4,41.4s41.4-18.6,41.4-41.4S72.8,237.9,50,237.9z"/>
		</g>
	</g>
	<g id="g1202" inkscape:groupmode="layer" inkscape:label="-green-halo:iter3" style="display:inline;">
		<g id="circle1200">
			<path style="fill:#5E9C42;" d="M50,329.3c-27.6,0-50-22.4-50-50s22.4-50,50-50s50,22.4,50,50S77.6,329.3,50,329.3z M50,237.9
				c-22.8,0-41.4,18.6-41.4,41.4s18.6,41.4,41.4,41.4s41.4-18.6,41.4-41.4S72.8,237.9,50,237.9z"/>
		</g>
	</g>
	<g id="layer18" inkscape:groupmode="layer" inkscape:label="-yellow-halo:iter3" style="display:inline;">
		<g id="circle1178-4">
			<path style="fill:#FBBA16;" d="M50,329.3c-27.6,0-50-22.4-50-50s22.4-50,50-50s50,22.4,50,50S77.6,329.3,50,329.3z M50,237.9
				c-22.8,0-41.4,18.6-41.4,41.4s18.6,41.4,41.4,41.4s41.4-18.6,41.4-41.4S72.8,237.9,50,237.9z"/>
		</g>
	</g>
</g>
<path id="path8163" inkscape:connector-curvature="0" inkscape:export-filename="C:\Users\Charlotte Abel\Documents\Symbology\Components\For Distribution\transportation-icon_maritime-gray.png" inkscape:export-xdpi="300.00461" inkscape:export-ydpi="300.00461" style="fill-rule:evenodd;clip-rule:evenodd;fill:#003366;" d="
	M50,41.7l-6.6,1.525l-6.6,1.525l-6.6,1.525L23.6,47.8l2.1,5l2.1,5l2.1,5l2.1,5c0.275-0.125,0.544-0.244,0.812-0.352
	s0.537-0.204,0.812-0.285c0.275-0.081,0.556-0.147,0.85-0.193c0.294-0.045,0.6-0.07,0.925-0.07c0.35-0.025,0.706-0.019,1.066,0.017
	s0.722,0.102,1.084,0.196c0.363,0.094,0.725,0.216,1.084,0.364C38.994,67.625,39.35,67.8,39.7,68l0,0l0,0l0,0l0,0
	c0.2,0.1,0.456,0.175,0.731,0.23s0.569,0.089,0.844,0.108c0.275,0.019,0.531,0.022,0.731,0.014c0.2-0.008,0.344-0.026,0.394-0.051
	c0.35-0.175,0.7-0.344,1.053-0.5c0.353-0.156,0.709-0.3,1.072-0.425c0.362-0.125,0.731-0.232,1.109-0.313
	c0.378-0.081,0.766-0.138,1.166-0.163s0.8-0.019,1.197,0.019c0.397,0.037,0.791,0.106,1.178,0.206s0.769,0.231,1.141,0.394
	c0.372,0.162,0.734,0.356,1.084,0.581l0.025,0.025l0.025,0.025l0.025,0.025L51.5,68.2l0,0l0,0l0,0l0,0
	c0.025,0.025,0.069,0.05,0.13,0.073c0.061,0.023,0.139,0.045,0.232,0.064s0.203,0.034,0.327,0.045S52.45,68.4,52.6,68.4
	s0.287-0.006,0.411-0.017c0.123-0.011,0.233-0.026,0.326-0.045c0.093-0.018,0.172-0.04,0.233-0.064
	c0.061-0.024,0.105-0.049,0.13-0.074l0,0l0,0l0,0l0,0l-0.025,0.025L53.65,68.25l-0.025,0.025L53.6,68.3l0.025-0.025l0.025-0.025
	l0.025-0.025L53.7,68.2l0.025-0.025l0.025-0.025l0.025-0.025L53.8,68.1c0.35-0.2,0.713-0.381,1.084-0.539
	c0.372-0.158,0.753-0.292,1.141-0.399c0.388-0.106,0.781-0.184,1.178-0.229C57.6,66.887,58,66.875,58.4,66.9
	s0.788,0.081,1.166,0.162c0.378,0.081,0.747,0.188,1.109,0.312c0.362,0.125,0.719,0.269,1.072,0.425s0.703,0.325,1.053,0.5l0,0l0,0
	l0,0l0,0l0,0l0,0l0,0l0,0c0.025,0.025,0.156,0.044,0.352,0.051c0.195,0.008,0.455,0.005,0.736-0.014s0.585-0.053,0.867-0.108
	S65.3,68.1,65.5,68l0.725-0.375l0.725-0.375l0.725-0.375L68.4,66.5l1.95-4.625l1.95-4.625l1.95-4.625L76.2,48l-6.55-1.575
	L63.1,44.85l-6.55-1.575L50,41.7z M51.5,68.1c-0.025,0-0.031,0.006-0.027,0.016s0.021,0.022,0.04,0.034
	c0.019,0.013,0.04,0.025,0.057,0.034c0.017,0.009,0.03,0.016,0.03,0.016l-0.025-0.025L51.55,68.15l-0.025-0.025L51.5,68.1L51.5,68.1
	L51.5,68.1L51.5,68.1L51.5,68.1z M47.5,72.4c-0.025,0-0.05,0-0.075,0c-0.025,0-0.05,0-0.075,0s-0.05,0-0.075,0
	c-0.025,0-0.05,0-0.075,0c-0.1,0-0.213,0.013-0.338,0.037C46.737,72.463,46.6,72.5,46.45,72.55c-0.15,0.05-0.312,0.113-0.487,0.188
	S45.6,72.9,45.4,73c0.125-0.025,0.244-0.05,0.359-0.073c0.116-0.023,0.228-0.045,0.341-0.064s0.225-0.034,0.341-0.045
	c0.116-0.011,0.234-0.017,0.359-0.017c0.175,0,0.35,0,0.525,0.003c0.175,0.003,0.35,0.009,0.525,0.022
	c0.175,0.012,0.35,0.03,0.525,0.058S48.725,72.95,48.9,73c-0.075-0.05-0.156-0.1-0.236-0.147s-0.158-0.091-0.227-0.128
	c-0.069-0.037-0.128-0.069-0.17-0.091S48.2,72.6,48.2,72.6l0.075,0.05l0.075,0.05l0.075,0.05L48.5,72.8
	c-0.125-0.075-0.231-0.137-0.325-0.189c-0.094-0.051-0.175-0.092-0.25-0.123c-0.075-0.031-0.144-0.053-0.213-0.068
	C47.644,72.406,47.575,72.4,47.5,72.4L47.5,72.4L47.5,72.4L47.5,72.4L47.5,72.4z M45.4,72.9c-0.225,0.05-0.444,0.106-0.658,0.169
	s-0.424,0.131-0.63,0.206c-0.206,0.075-0.409,0.156-0.611,0.244C43.3,73.606,43.1,73.7,42.9,73.8l0,0l0,0l0,0l0,0
	c0.175-0.025,0.35-0.062,0.523-0.109s0.346-0.103,0.514-0.166c0.168-0.062,0.334-0.131,0.495-0.203
	c0.161-0.072,0.317-0.147,0.467-0.222c0.05,0,0.1-0.006,0.148-0.017c0.048-0.011,0.095-0.027,0.139-0.046
	c0.044-0.018,0.085-0.04,0.121-0.064S45.375,72.925,45.4,72.9L45.4,72.9L45.4,72.9L45.4,72.9L45.4,72.9z M57.8,72.4
	c-0.075,0-0.144,0.006-0.213,0.02c-0.069,0.014-0.138,0.036-0.212,0.068c-0.075,0.032-0.156,0.072-0.25,0.123
	s-0.2,0.114-0.325,0.189l0.05-0.05l0.05-0.05l0.05-0.05L57,72.6c0,0-0.025,0.013-0.067,0.034s-0.101,0.053-0.17,0.091
	s-0.147,0.081-0.227,0.128S56.375,72.95,56.3,73c0.175-0.05,0.35-0.094,0.525-0.13c0.175-0.036,0.35-0.064,0.525-0.083
	c0.175-0.019,0.35-0.028,0.525-0.026c0.175,0.002,0.35,0.014,0.525,0.039c0.125,0,0.244,0.006,0.359,0.017
	c0.116,0.011,0.228,0.026,0.341,0.045c0.113,0.019,0.225,0.04,0.341,0.064C59.556,72.95,59.675,72.975,59.8,73
	c-0.2-0.1-0.388-0.188-0.562-0.262S58.9,72.6,58.75,72.55c-0.15-0.05-0.287-0.088-0.412-0.113C58.213,72.413,58.1,72.4,58,72.4
	c0,0-0.006-0.006-0.017-0.014c-0.011-0.008-0.026-0.017-0.045-0.024c-0.019-0.006-0.041-0.009-0.064-0.004
	C57.85,72.363,57.825,72.375,57.8,72.4L57.8,72.4L57.8,72.4L57.8,72.4L57.8,72.4z M59.9,72.9c0.025,0.025,0.056,0.044,0.091,0.059
	c0.034,0.016,0.072,0.028,0.109,0.041c0.038,0.013,0.075,0.025,0.109,0.041s0.066,0.034,0.091,0.059l0,0l0,0l0,0l0,0
	c0,0,0.006,0,0.016,0.002c0.009,0.001,0.022,0.005,0.034,0.01c0.013,0.007,0.025,0.016,0.034,0.03
	c0.009,0.014,0.016,0.033,0.016,0.058h0.05h0.05h0.05h0.05c-0.05-0.025-0.1-0.05-0.152-0.075c-0.051-0.025-0.104-0.05-0.16-0.075
	c-0.056-0.025-0.116-0.05-0.18-0.075C60.044,72.95,59.975,72.925,59.9,72.9L59.9,72.9L59.9,72.9L59.9,72.9L59.9,72.9z M36,72.4
	c-0.025,0-0.044,0-0.059,0s-0.028,0-0.041,0s-0.025,0-0.041,0s-0.034,0-0.059,0c0,0,0,0-0.002,0s-0.005,0-0.011,0
	c-0.006,0-0.015,0-0.029,0s-0.033,0-0.058,0l0.225,0.05l0.225,0.05l0.225,0.05L36.6,72.6c-0.075-0.025-0.144-0.044-0.206-0.059
	s-0.119-0.028-0.169-0.041c-0.05-0.012-0.094-0.025-0.131-0.041S36.025,72.425,36,72.4L36,72.4L36,72.4L36,72.4L36,72.4z M55.1,73.4
	c-0.175,0.05-0.35,0.1-0.53,0.147c-0.18,0.047-0.364,0.091-0.558,0.128c-0.194,0.037-0.396,0.069-0.614,0.091
	C53.181,73.788,52.95,73.8,52.7,73.8l0,0l0,0l0,0l0,0l0,0l0,0l0,0l0,0c-0.25,0-0.487-0.012-0.713-0.034
	c-0.225-0.022-0.437-0.053-0.637-0.091s-0.388-0.081-0.563-0.128C50.612,73.5,50.45,73.45,50.3,73.4c0.1,0.05,0.2,0.094,0.3,0.134
	c0.1,0.041,0.2,0.078,0.3,0.116c0.1,0.037,0.2,0.075,0.3,0.116c0.1,0.041,0.2,0.084,0.3,0.134l0.025,0.025l0.025,0.025l0.025,0.025
	L51.6,74l0,0l0,0l0,0l0,0c0.025,0.025,0.069,0.05,0.13,0.073c0.061,0.023,0.139,0.045,0.232,0.064s0.203,0.034,0.327,0.045
	C52.412,74.193,52.55,74.2,52.7,74.2s0.287-0.006,0.411-0.017c0.123-0.011,0.233-0.026,0.326-0.045
	c0.094-0.018,0.172-0.04,0.233-0.064c0.061-0.024,0.105-0.049,0.13-0.074l0,0l0,0l0,0l0,0l0,0l0,0l0,0l0,0l0.025-0.025l0.025-0.025
	l0.025-0.025L53.9,73.9c0.1-0.05,0.2-0.094,0.3-0.134c0.1-0.041,0.2-0.078,0.3-0.116c0.1-0.037,0.2-0.075,0.3-0.116
	C54.9,73.494,55,73.45,55.1,73.4L55.1,73.4L55.1,73.4L55.1,73.4L55.1,73.4z M53.8,74l-0.025,0.025L53.75,74.05l-0.025,0.025
	L53.7,74.1c0,0,0.013-0.006,0.03-0.016s0.039-0.022,0.058-0.034c0.019-0.012,0.034-0.025,0.039-0.034
	C53.831,74.006,53.825,74,53.8,74z M51.5,74c-0.025,0-0.031,0.006-0.027,0.016s0.021,0.022,0.04,0.034
	c0.019,0.012,0.04,0.025,0.057,0.034S51.6,74.1,51.6,74.1l-0.025-0.025L51.55,74.05l-0.025-0.025L51.5,74L51.5,74L51.5,74L51.5,74
	L51.5,74z"/>
<path id="path8165" inkscape:connector-curvature="0" inkscape:export-filename="C:\Users\Charlotte Abel\Documents\Symbology\Components\For Distribution\transportation-icon_maritime-gray.png" inkscape:export-xdpi="300.00461" inkscape:export-ydpi="300.00461" style="fill-rule:evenodd;clip-rule:evenodd;fill:#003366;" d="
	M41.9,19.6h4h4h4h4c0.25,0,0.494,0.044,0.719,0.12c0.225,0.077,0.431,0.186,0.606,0.318c0.175,0.131,0.319,0.284,0.419,0.448
	C59.744,20.65,59.8,20.825,59.8,21v1.175v1.175v1.175V25.7h-4.9H50h-4.9h-4.9v-1.175V23.35v-1.175V21
	c0-0.175,0.056-0.35,0.153-0.514c0.097-0.164,0.234-0.317,0.397-0.448c0.162-0.132,0.35-0.241,0.547-0.318
	C41.494,19.644,41.7,19.6,41.9,19.6z"/>
<path id="path11357" inkscape:connector-curvature="0" inkscape:export-filename="C:\Users\Charlotte Abel\Documents\Symbology\Components\For Distribution\transportation-icon_maritime-gray.png" inkscape:export-xdpi="300.00461" inkscape:export-ydpi="300.00461" style="fill-rule:evenodd;clip-rule:evenodd;fill:#003366;" d="
	M33.6,28.5h8.15h8.15h8.15h8.15c0.675,0,1.181,0.206,1.519,0.516c0.337,0.309,0.506,0.722,0.506,1.134
	c0,0.413-0.169,0.825-0.506,1.134C67.381,31.594,66.875,31.8,66.2,31.8h-0.575H65.05h-0.575H63.9v0.975v0.975v0.975V35.7h0.525
	h0.525h0.525H66c0.3,0,0.594,0.056,0.866,0.156s0.522,0.244,0.734,0.419s0.388,0.381,0.509,0.606
	C68.231,37.106,68.3,37.35,68.3,37.6v1.325v1.325v1.325V42.9l-4.575-1.05L59.15,40.8l-4.575-1.05L50,38.7l-4.575,1.05L40.85,40.8
	l-4.575,1.05L31.7,42.9v-1.325V40.25v-1.325V37.6c0-0.275,0.062-0.531,0.177-0.761s0.279-0.433,0.486-0.601
	c0.207-0.169,0.453-0.303,0.73-0.396S33.675,35.7,34,35.7h0.475h0.475h0.475H35.9v-0.975V33.75v-0.975V31.8h-0.575H34.75h-0.575
	H33.6c-0.625,0.025-1.094-0.169-1.406-0.473c-0.312-0.305-0.469-0.721-0.469-1.14s0.156-0.841,0.469-1.158S32.975,28.5,33.6,28.5z"
	/>
<path id="path8167" inkscape:connector-curvature="0" inkscape:export-filename="C:\Users\Charlotte Abel\Documents\Symbology\Components\For Distribution\transportation-icon_maritime-gray.png" inkscape:export-xdpi="300.00461" inkscape:export-ydpi="300.00461" style="fill-rule:evenodd;clip-rule:evenodd;fill:#E23366;" d="
	M50,32.1c0.25,0,0.494,0.044,0.719,0.124s0.431,0.195,0.606,0.34c0.175,0.144,0.319,0.315,0.419,0.507
	c0.1,0.192,0.156,0.405,0.156,0.63c0,0.225-0.05,0.438-0.142,0.63s-0.226,0.364-0.395,0.508c-0.169,0.144-0.372,0.259-0.602,0.339
	S50.275,35.3,50,35.3s-0.531-0.044-0.761-0.124c-0.23-0.08-0.433-0.195-0.602-0.34c-0.169-0.143-0.303-0.315-0.395-0.507
	C48.15,34.138,48.1,33.925,48.1,33.7c0-0.225,0.056-0.438,0.156-0.63c0.1-0.192,0.244-0.364,0.419-0.507
	c0.175-0.144,0.381-0.26,0.606-0.34S49.75,32.1,50,32.1z"/>
<path id="path8169" inkscape:connector-curvature="0" inkscape:export-filename="C:\Users\Charlotte Abel\Documents\Symbology\Components\For Distribution\transportation-icon_maritime-gray.png" inkscape:export-xdpi="300.00461" inkscape:export-ydpi="300.00461" style="fill:#003366;" d="
	M66.9,70.4c-0.4,0.2-0.844,0.363-1.306,0.483c-0.463,0.12-0.944,0.199-1.419,0.23c-0.475,0.031-0.944,0.015-1.381-0.052
	c-0.438-0.067-0.844-0.186-1.194-0.361c-0.625-0.325-1.206-0.581-1.756-0.764c-0.55-0.183-1.069-0.292-1.569-0.324
	c-0.5-0.031-0.981,0.016-1.456,0.145S55.875,70.1,55.4,70.4c0,0-0.056,0.044-0.169,0.109c-0.112,0.066-0.281,0.153-0.506,0.241
	c-0.225,0.088-0.506,0.175-0.844,0.241C53.544,71.056,53.15,71.1,52.7,71.1c-0.475,0-0.881-0.044-1.223-0.109
	s-0.62-0.153-0.839-0.241c-0.219-0.088-0.379-0.175-0.483-0.241C50.05,70.444,50,70.4,50,70.4c-0.5-0.3-0.987-0.512-1.477-0.642
	c-0.489-0.13-0.98-0.176-1.486-0.145c-0.506,0.031-1.028,0.14-1.579,0.323c-0.552,0.183-1.133,0.439-1.758,0.764
	c-0.35,0.175-0.756,0.294-1.194,0.361c-0.438,0.067-0.906,0.083-1.381,0.051c-0.475-0.031-0.956-0.109-1.419-0.23
	C39.244,70.762,38.8,70.6,38.4,70.4c-0.55-0.3-1.037-0.506-1.495-0.631c-0.458-0.125-0.886-0.169-1.317-0.144
	c-0.431,0.025-0.866,0.119-1.336,0.269S33.275,70.25,32.7,70.5c-0.45,0.2-0.888,0.35-1.319,0.45c-0.431,0.1-0.856,0.15-1.281,0.15
	s-0.85-0.05-1.281-0.15c-0.431-0.1-0.869-0.25-1.319-0.45c-0.05-0.025-0.1-0.05-0.149-0.073c-0.049-0.023-0.095-0.045-0.139-0.064
	s-0.084-0.034-0.12-0.045C27.056,70.307,27.025,70.3,27,70.3v1.475v1.475v1.475V76.2c0.05,0.025,0.094,0.044,0.134,0.059
	c0.041,0.016,0.078,0.028,0.116,0.041c0.038,0.013,0.075,0.025,0.116,0.041S27.45,76.375,27.5,76.4c0.45,0.2,0.888,0.35,1.319,0.45
	C29.25,76.95,29.675,77,30.1,77s0.85-0.05,1.281-0.15c0.431-0.1,0.869-0.25,1.319-0.45c0.575-0.25,1.081-0.456,1.552-0.606
	s0.905-0.244,1.336-0.269c0.431-0.025,0.859,0.019,1.317,0.144C37.362,75.794,37.85,76,38.4,76.3c0.4,0.2,0.844,0.363,1.306,0.483
	c0.462,0.12,0.944,0.199,1.419,0.23c0.475,0.031,0.944,0.015,1.381-0.052S43.35,76.775,43.7,76.6
	c0.625-0.325,1.206-0.581,1.758-0.764c0.551-0.183,1.073-0.292,1.579-0.324c0.507-0.031,0.997,0.016,1.486,0.146
	C49.013,75.787,49.5,76,50,76.3c0,0,0.05,0.044,0.155,0.109c0.105,0.066,0.264,0.153,0.483,0.241
	c0.218,0.088,0.496,0.175,0.839,0.241S52.225,77,52.7,77s0.881-0.044,1.223-0.109s0.62-0.153,0.839-0.241
	c0.219-0.088,0.379-0.175,0.483-0.241C55.35,76.344,55.4,76.3,55.4,76.3c0.5-0.3,0.981-0.512,1.461-0.642
	c0.48-0.13,0.958-0.176,1.451-0.145c0.494,0.031,1.003,0.14,1.546,0.323c0.542,0.183,1.117,0.439,1.742,0.764
	c0.35,0.175,0.756,0.294,1.194,0.361c0.438,0.067,0.906,0.083,1.381,0.051c0.475-0.031,0.956-0.109,1.419-0.229
	C66.056,76.662,66.5,76.5,66.9,76.3c0.5-0.275,0.95-0.469,1.375-0.592c0.425-0.123,0.825-0.176,1.225-0.17
	c0.4,0.006,0.8,0.072,1.225,0.186C71.15,75.838,71.6,76,72.1,76.2v-1.475V73.25v-1.475V70.3c-0.5-0.2-0.944-0.363-1.361-0.477
	c-0.417-0.114-0.808-0.179-1.201-0.186c-0.394-0.007-0.791,0.047-1.221,0.17C67.887,69.931,67.425,70.125,66.9,70.4L66.9,70.4
	L66.9,70.4L66.9,70.4L66.9,70.4z"/>
<path id="path11345" inkscape:export-filename="C:\Users\Charlotte Abel\Documents\Symbology\Components\For Distribution\transportation-icon_maritime-gray.png" inkscape:export-xdpi="300.00461" inkscape:export-ydpi="300.00461" style="fill:#FFFFFF;stroke:#FFFFFF;stroke-width:0.0768;stroke-linecap:round;stroke-linejoin:round;stroke-miterlimit:15.1181;" d="
	M50,31.7c0.263,0,0.513,0.053,0.74,0.149c0.227,0.096,0.432,0.235,0.604,0.407c0.172,0.172,0.311,0.377,0.407,0.604
	c0.096,0.227,0.149,0.477,0.149,0.74c0,0.263-0.053,0.513-0.149,0.74c-0.096,0.227-0.235,0.432-0.407,0.604
	c-0.172,0.172-0.377,0.311-0.604,0.407C50.513,35.447,50.263,35.5,50,35.5s-0.513-0.053-0.74-0.149
	c-0.227-0.096-0.432-0.235-0.604-0.407c-0.172-0.172-0.311-0.377-0.407-0.604c-0.096-0.227-0.149-0.477-0.149-0.74
	s0.053-0.513,0.149-0.74c0.096-0.227,0.235-0.432,0.407-0.604c0.172-0.171,0.377-0.31,0.604-0.407S49.737,31.7,50,31.7z"/>
<path id="path11345-9" inkscape:export-filename="C:\Users\Charlotte Abel\Documents\Symbology\Components\For Distribution\transportation-icon_maritime-gray.png" inkscape:export-xdpi="300.00461" inkscape:export-ydpi="300.00461" style="fill:#FFFFFF;stroke:#FFFFFF;stroke-width:0.0768;stroke-linecap:round;stroke-linejoin:round;stroke-miterlimit:15.1181;" d="
	M41.3,31.7c0.263,0,0.513,0.053,0.74,0.149c0.227,0.096,0.432,0.235,0.604,0.407c0.171,0.172,0.31,0.377,0.407,0.604
	S43.2,33.338,43.2,33.6c0,0.263-0.053,0.513-0.149,0.74s-0.235,0.432-0.407,0.604c-0.172,0.172-0.377,0.311-0.604,0.407
	c-0.227,0.096-0.477,0.149-0.74,0.149s-0.513-0.053-0.74-0.149c-0.227-0.096-0.432-0.235-0.604-0.407
	c-0.171-0.172-0.31-0.377-0.407-0.604c-0.096-0.227-0.149-0.477-0.149-0.74s0.053-0.513,0.149-0.74
	c0.096-0.227,0.235-0.432,0.407-0.604c0.172-0.171,0.377-0.31,0.604-0.407C40.787,31.753,41.037,31.7,41.3,31.7z"/>
<path id="path11345-2" inkscape:export-filename="C:\Users\Charlotte Abel\Documents\Symbology\Components\For Distribution\transportation-icon_maritime-gray.png" inkscape:export-xdpi="300.00461" inkscape:export-ydpi="300.00461" style="fill:#FFFFFF;stroke:#FFFFFF;stroke-width:0.0768;stroke-linecap:round;stroke-linejoin:round;stroke-miterlimit:15.1181;" d="
	M58.6,31.7c0.263,0,0.513,0.053,0.74,0.149c0.227,0.096,0.432,0.235,0.604,0.407c0.172,0.172,0.311,0.377,0.407,0.604
	c0.096,0.227,0.149,0.477,0.149,0.74c0,0.263-0.053,0.513-0.149,0.74c-0.096,0.227-0.235,0.432-0.407,0.604
	c-0.172,0.172-0.377,0.311-0.604,0.407c-0.227,0.096-0.477,0.149-0.74,0.149s-0.513-0.053-0.74-0.149
	c-0.227-0.096-0.432-0.235-0.604-0.407c-0.172-0.172-0.31-0.377-0.407-0.604c-0.096-0.227-0.149-0.477-0.149-0.74
	s0.053-0.513,0.149-0.74s0.235-0.432,0.407-0.604c0.172-0.171,0.377-0.31,0.604-0.407C58.088,31.753,58.338,31.7,58.6,31.7z"/>
</svg>
