<?xml version="1.0" encoding="iso-8859-1"?>
<!-- Generator: Adobe Illustrator 25.4.1, SVG Export Plug-In . SVG Version: 6.00 Build 0)  -->
<svg version="1.1"
	 id="svg8" inkscape:export-filename="C:\Users\Charlotte Abel\Documents\Symbology\Components\For Distribution\communications_alerts-warnings-messages.png" inkscape:export-xdpi="300.00464" inkscape:export-ydpi="300.00464" inkscape:version="0.91 r13725" sodipodi:docname="transportation_mass-transit-with-label-clr_256x256.svg" xmlns:cc="http://creativecommons.org/ns#" xmlns:dc="http://purl.org/dc/elements/1.1/" xmlns:inkscape="http://www.inkscape.org/namespaces/inkscape" xmlns:rdf="http://www.w3.org/1999/02/22-rdf-syntax-ns#" xmlns:sodipodi="http://sodipodi.sourceforge.net/DTD/sodipodi-0.dtd" xmlns:svg="http://www.w3.org/2000/svg"
	 xmlns="http://www.w3.org/2000/svg" xmlns:xlink="http://www.w3.org/1999/xlink" x="0px" y="0px" viewBox="0 0 100 100"
	 style="enable-background:new 0 0 100 100;" xml:space="preserve">
<sodipodi:namedview  bordercolor="#666666" borderopacity="1.0" id="base" inkscape:current-layer="g12185" inkscape:cx="-302.11164" inkscape:cy="84.283015" inkscape:document-units="px" inkscape:guide-bbox="true" inkscape:lockguides="true" inkscape:pageopacity="0.0" inkscape:pageshadow="2" inkscape:window-height="657" inkscape:window-maximized="1" inkscape:window-width="1280" inkscape:window-x="-8" inkscape:window-y="-8" inkscape:zoom="0.765625" pagecolor="#ffffff" showgrid="false" showguides="false" units="px">
	<sodipodi:guide  id="guide5700" inkscape:locked="true" orientation="0,1" position="-0.93017576,23.874511"></sodipodi:guide>
	<sodipodi:guide  id="guide5726" inkscape:locked="true" orientation="0,1" position="-26.098869,26.473047"></sodipodi:guide>
	<sodipodi:guide  id="guide5880" inkscape:locked="true" orientation="0,1" position="104.51042,-2.9104167"></sodipodi:guide>
	<sodipodi:guide  id="guide6001" inkscape:locked="true" orientation="0,1" position="-71.093695,29.279377"></sodipodi:guide>
	<sodipodi:guide  id="guide6005" inkscape:locked="true" orientation="0,1" position="-46.304445,58.278122"></sodipodi:guide>
	<sodipodi:guide  id="guide6736" inkscape:locked="true" orientation="0,1" position="-0.10335287,20.205485"></sodipodi:guide>
	<sodipodi:guide  id="guide6738" inkscape:locked="true" orientation="0,1" position="-0.43848907,22.874513"></sodipodi:guide>
	<inkscape:grid  id="grid2386" type="xygrid"></inkscape:grid>
</sodipodi:namedview>
<g id="g1180" transform="translate(0,-229.2666)" inkscape:groupmode="layer" inkscape:label="halo:always" style="display:none;">
	<g id="g1210" inkscape:groupmode="layer" inkscape:label="-gray-halo:iter3" style="display:inline;">
		<g id="circle1208">
			<path style="fill:#919395;" d="M50,329.3c-27.6,0-50-22.4-50-50s22.4-50,50-50s50,22.4,50,50S77.6,329.3,50,329.3z M50,237.9
				c-22.8,0-41.4,18.6-41.4,41.4s18.6,41.4,41.4,41.4s41.4-18.6,41.4-41.4S72.8,237.9,50,237.9z"/>
		</g>
	</g>
	<g id="g1206" inkscape:groupmode="layer" inkscape:label="-red-halo:iter3" style="display:inline;">
		<g id="circle1204">
			<path style="fill:#C52038;" d="M50,329.3c-27.6,0-50-22.4-50-50s22.4-50,50-50s50,22.4,50,50S77.6,329.3,50,329.3z M50,237.9
				c-22.8,0-41.4,18.6-41.4,41.4s18.6,41.4,41.4,41.4s41.4-18.6,41.4-41.4S72.8,237.9,50,237.9z"/>
		</g>
	</g>
	<g id="g1202" inkscape:groupmode="layer" inkscape:label="-green-halo:iter3" style="display:inline;">
		<g id="circle1200">
			<path style="fill:#5E9C42;" d="M50,329.3c-27.6,0-50-22.4-50-50s22.4-50,50-50s50,22.4,50,50S77.6,329.3,50,329.3z M50,237.9
				c-22.8,0-41.4,18.6-41.4,41.4s18.6,41.4,41.4,41.4s41.4-18.6,41.4-41.4S72.8,237.9,50,237.9z"/>
		</g>
	</g>
	<g id="layer18" inkscape:groupmode="layer" inkscape:label="-yellow-halo:iter3" style="display:inline;">
		<g id="circle1178-4">
			<path style="fill:#FBBA16;" d="M50,329.3c-27.6,0-50-22.4-50-50s22.4-50,50-50s50,22.4,50,50S77.6,329.3,50,329.3z M50,237.9
				c-22.8,0-41.4,18.6-41.4,41.4s18.6,41.4,41.4,41.4s41.4-18.6,41.4-41.4S72.8,237.9,50,237.9z"/>
		</g>
	</g>
</g>
<path id="path12157" inkscape:connector-curvature="0" style="fill:#003366;" d="M29.829,24.284c-0.296,0-0.576,0.058-0.829,0.164
	s-0.481,0.259-0.671,0.449c-0.19,0.19-0.343,0.417-0.449,0.671s-0.164,0.533-0.164,0.829v0.127v0.127v0.127v0.127v0.169v0.169v0.169
	v0.169h-0.169h-0.169H27.21h-0.169c-0.084,0-0.169,0.021-0.248,0.058c-0.079,0.037-0.153,0.09-0.217,0.153
	c-0.063,0.063-0.116,0.137-0.153,0.216c-0.037,0.079-0.058,0.164-0.058,0.248v2.028v2.028v2.028v2.028
	c0,0.084,0.021,0.169,0.058,0.248c0.037,0.079,0.09,0.153,0.153,0.216s0.137,0.116,0.217,0.153c0.079,0.037,0.164,0.058,0.248,0.058
	h0.169h0.169h0.169h0.169v2.704v2.704v2.704v2.704c0,0.275,0.058,0.539,0.162,0.782c0.104,0.243,0.255,0.465,0.439,0.655
	s0.404,0.349,0.646,0.465c0.242,0.116,0.506,0.19,0.781,0.211v0.253v0.253v0.253v0.253v0.38v0.38v0.38v0.38
	c0,0.063,0.011,0.121,0.03,0.173c0.02,0.052,0.049,0.097,0.086,0.134c0.037,0.037,0.082,0.066,0.133,0.085
	c0.051,0.02,0.11,0.03,0.173,0.03h0.613h0.613h0.613h0.613c0.063,0,0.121-0.011,0.173-0.03s0.096-0.049,0.133-0.085
	c0.037-0.037,0.066-0.082,0.086-0.134c0.02-0.052,0.03-0.11,0.03-0.173v-0.634v-0.634v-0.634v-0.634h4.246h4.246h4.246h4.246v0.253
	v0.253v0.253v0.253v0.38v0.38v0.38v0.38c0,0.063,0.011,0.121,0.03,0.173s0.049,0.097,0.086,0.134
	c0.037,0.037,0.082,0.066,0.133,0.085c0.051,0.02,0.11,0.03,0.173,0.03h0.613h0.613h0.613h0.613c0.063,0,0.121-0.011,0.173-0.03
	c0.051-0.02,0.096-0.049,0.133-0.085c0.037-0.037,0.066-0.082,0.086-0.134s0.03-0.11,0.03-0.173v-0.38v-0.38v-0.38v-0.38v-0.253
	v-0.253v-0.253v-0.253v-0.021v-0.021v-0.021v-0.021c0.211-0.084,0.401-0.195,0.568-0.327c0.166-0.132,0.309-0.285,0.425-0.454
	c0.116-0.169,0.206-0.354,0.267-0.549c0.061-0.195,0.092-0.401,0.092-0.613v-2.725v-2.725v-2.725v-2.725h0.169h0.169h0.169h0.169
	c0.084,0,0.169-0.021,0.248-0.058c0.079-0.037,0.153-0.09,0.216-0.153s0.116-0.137,0.153-0.216c0.037-0.079,0.058-0.164,0.058-0.248
	v-2.028V32.31v-2.028v-2.028c0-0.084-0.021-0.169-0.058-0.248c-0.037-0.079-0.09-0.153-0.153-0.216
	c-0.063-0.063-0.137-0.116-0.217-0.153s-0.164-0.058-0.248-0.058h-0.169h-0.169h-0.169h-0.169V27.41v-0.169v-0.169v-0.169v-0.127
	v-0.127v-0.127v-0.127c0-0.296-0.058-0.576-0.164-0.829s-0.259-0.481-0.449-0.671c-0.19-0.19-0.417-0.343-0.671-0.449
	s-0.533-0.164-0.829-0.164c0,0-1.42,0-3.551,0c-2.131,0-4.972,0-7.813,0c-2.841,0-5.682,0-7.812,0S29.829,24.284,29.829,24.284z"/>
<path id="path12159" inkscape:connector-curvature="0" style="fill:#FFFFFF;" d="M30.251,27.579h5.513h5.513h5.513h5.513
	c0.127,0,0.243,0.026,0.346,0.074c0.103,0.048,0.193,0.116,0.267,0.201c0.074,0.084,0.132,0.185,0.172,0.296
	s0.061,0.232,0.061,0.359v2.788v2.788v2.788v2.788c0,0.127-0.026,0.248-0.073,0.359c-0.046,0.111-0.112,0.211-0.191,0.296
	c-0.079,0.084-0.172,0.153-0.271,0.201c-0.099,0.048-0.205,0.074-0.311,0.074H46.79h-5.513h-5.513h-5.513
	c-0.127,0-0.243-0.026-0.346-0.074c-0.103-0.048-0.193-0.116-0.267-0.201s-0.132-0.185-0.172-0.296
	c-0.04-0.111-0.061-0.232-0.061-0.359v-2.788v-2.788v-2.788v-2.788c0-0.127,0.026-0.248,0.073-0.359
	c0.046-0.111,0.112-0.211,0.191-0.296c0.079-0.084,0.172-0.153,0.271-0.201C30.04,27.605,30.145,27.579,30.251,27.579z"/>
<path id="path12161" inkscape:connector-curvature="0" style="fill:#FFFFFF;" d="M31.603,43.885L31.603,43.885L31.603,43.885
	L31.603,43.885L31.603,43.885L31.603,43.885L31.603,43.885L31.603,43.885L31.603,43.885c0.232,0,0.454,0.048,0.656,0.133
	c0.202,0.086,0.384,0.21,0.538,0.363c0.153,0.153,0.277,0.335,0.363,0.537c0.086,0.202,0.133,0.424,0.133,0.656
	c0,0.127-0.016,0.253-0.046,0.378c-0.03,0.124-0.075,0.246-0.133,0.362c-0.058,0.116-0.13,0.227-0.213,0.33
	s-0.178,0.198-0.284,0.283c-0.063,0.063-0.137,0.116-0.218,0.16c-0.08,0.044-0.167,0.078-0.257,0.104
	c-0.09,0.026-0.182,0.045-0.273,0.057c-0.091,0.012-0.181,0.018-0.266,0.018c-0.084,0-0.174-0.005-0.265-0.017
	c-0.091-0.012-0.184-0.031-0.274-0.057c-0.09-0.026-0.177-0.06-0.257-0.104s-0.154-0.096-0.218-0.16
	c-0.19-0.148-0.343-0.322-0.457-0.512s-0.187-0.396-0.219-0.607c-0.032-0.211-0.021-0.428,0.034-0.639
	c0.055-0.211,0.156-0.417,0.304-0.607c0.063-0.106,0.143-0.201,0.235-0.284s0.198-0.155,0.314-0.213
	c0.116-0.058,0.243-0.103,0.378-0.133C31.312,43.901,31.455,43.885,31.603,43.885L31.603,43.885L31.603,43.885L31.603,43.885
	L31.603,43.885z"/>
<path id="path12163" inkscape:connector-curvature="0" style="fill:#FFFFFF;" d="M51.035,43.885L51.035,43.885L51.035,43.885
	L51.035,43.885L51.035,43.885L51.035,43.885L51.035,43.885L51.035,43.885L51.035,43.885c0.232,0,0.454,0.048,0.656,0.133
	c0.202,0.086,0.384,0.21,0.537,0.363c0.153,0.153,0.278,0.335,0.363,0.537c0.086,0.202,0.133,0.424,0.133,0.656
	c0,0.127-0.016,0.253-0.046,0.378c-0.03,0.124-0.075,0.246-0.134,0.362c-0.058,0.116-0.129,0.227-0.212,0.33
	s-0.178,0.198-0.284,0.283c-0.063,0.063-0.137,0.116-0.218,0.16c-0.08,0.044-0.167,0.078-0.257,0.104
	c-0.09,0.026-0.182,0.045-0.273,0.057s-0.181,0.018-0.266,0.018s-0.174-0.005-0.265-0.017c-0.091-0.012-0.184-0.031-0.274-0.057
	c-0.09-0.026-0.177-0.06-0.257-0.104s-0.154-0.096-0.218-0.16c-0.19-0.148-0.343-0.322-0.457-0.512s-0.187-0.396-0.219-0.607
	c-0.032-0.211-0.021-0.428,0.034-0.639c0.055-0.211,0.156-0.417,0.304-0.607c0.084-0.106,0.18-0.201,0.283-0.284
	s0.214-0.155,0.33-0.213c0.116-0.058,0.238-0.103,0.362-0.133C50.782,43.901,50.908,43.885,51.035,43.885L51.035,43.885
	L51.035,43.885L51.035,43.885L51.035,43.885z"/>
<path id="path12165" inkscape:connector-curvature="0" style="fill:#003366;" d="M61.512,21.326c-0.76,0-1.473,0.021-2.143,0.061
	c-0.669,0.04-1.295,0.098-1.882,0.172c-0.586,0.074-1.132,0.164-1.643,0.267c-0.511,0.103-0.986,0.219-1.43,0.346
	c0.359,0.148,0.692,0.343,0.993,0.577c0.301,0.234,0.57,0.505,0.803,0.806c0.232,0.301,0.428,0.631,0.581,0.981
	s0.264,0.72,0.327,1.1c0.127,0.084,0.243,0.174,0.351,0.268c0.108,0.094,0.209,0.192,0.304,0.292c0.095,0.1,0.185,0.203,0.272,0.307
	s0.172,0.21,0.256,0.315h3.147h3.147h3.147h3.147c0.19,0,0.37,0.037,0.532,0.104s0.307,0.165,0.429,0.287
	c0.122,0.121,0.219,0.266,0.287,0.429c0.067,0.162,0.104,0.342,0.104,0.532v1.711v1.711v1.711v1.711c0,0.19-0.037,0.37-0.104,0.532
	c-0.067,0.162-0.165,0.308-0.287,0.429c-0.121,0.121-0.266,0.219-0.429,0.286c-0.162,0.067-0.342,0.104-0.532,0.104h-3.042h-3.042
	h-3.042h-3.042c0,0.253-0.037,0.496-0.104,0.727s-0.165,0.45-0.287,0.656c-0.121,0.206-0.266,0.398-0.429,0.577
	c-0.162,0.178-0.342,0.342-0.532,0.49v2.133v2.133v2.133v2.133h3.38h3.38h3.38h3.38c0.38,0,0.739-0.079,1.064-0.221
	c0.325-0.141,0.615-0.345,0.858-0.593c0.243-0.248,0.438-0.541,0.573-0.862c0.135-0.321,0.209-0.669,0.209-1.028V39.85v-4.795
	v-4.795v-4.795c0,0-0.084-0.259-0.379-0.647s-0.799-0.906-1.638-1.423c-0.84-0.517-2.015-1.035-3.651-1.423
	C66.291,21.585,64.194,21.326,61.512,21.326z"/>
<path id="path12167" inkscape:connector-curvature="0" style="fill:#FFFFFF;" d="M68.947,40.59c0.275,0,0.539,0.058,0.78,0.162
	s0.461,0.255,0.646,0.439c0.185,0.185,0.335,0.404,0.44,0.646c0.104,0.242,0.162,0.506,0.162,0.781s-0.058,0.539-0.162,0.78
	c-0.104,0.242-0.255,0.461-0.44,0.646c-0.185,0.185-0.404,0.335-0.645,0.44c-0.241,0.104-0.505,0.162-0.78,0.162
	c-0.275,0-0.539-0.058-0.78-0.162s-0.461-0.255-0.646-0.44s-0.335-0.404-0.44-0.645c-0.104-0.241-0.162-0.505-0.162-0.78
	s0.053-0.539,0.15-0.78c0.098-0.242,0.24-0.461,0.42-0.646c0.18-0.185,0.396-0.335,0.642-0.44
	C68.376,40.648,68.651,40.59,68.947,40.59z"/>
<path id="path12169" inkscape:connector-curvature="0" style="fill:#003366;" d="M66.919,48.87l0.106,0.232l0.106,0.232l0.106,0.232
	l0.106,0.232h-2.619h-2.619h-2.619h-2.619c-0.063,0.106-0.127,0.206-0.191,0.302s-0.131,0.189-0.2,0.279
	c-0.068,0.09-0.14,0.177-0.215,0.262c-0.075,0.086-0.154,0.17-0.239,0.255v0.021v0.021v0.021v0.021v0.148v0.148v0.148v0.148h2.999
	h2.999h2.999h2.999l0.106,0.253l0.106,0.253l0.106,0.253l0.106,0.253h-3.105H62.23h-3.105H56.02c0,0.169-0.016,0.333-0.046,0.491
	c-0.03,0.158-0.075,0.312-0.134,0.459c-0.058,0.148-0.129,0.29-0.212,0.428s-0.178,0.269-0.284,0.396h3.464h3.464h3.464H69.2
	l0.084,0.19l0.084,0.19l0.084,0.19l0.084,0.19h1.014h1.014h1.014h1.014l-0.993-1.563l-0.993-1.563l-0.993-1.563l-0.993-1.563h-0.676
	h-0.676h-0.676H66.919z"/>
<path id="path12171" inkscape:connector-curvature="0" style="fill:#FFFFFF;" d="M58.386,26.818h3.147h3.147h3.147h3.147
	c0.19,0,0.37,0.037,0.532,0.104s0.307,0.165,0.429,0.287c0.122,0.121,0.219,0.266,0.287,0.429c0.067,0.162,0.104,0.342,0.104,0.532
	v1.711v1.711v1.711v1.711c0,0.19-0.037,0.37-0.104,0.532c-0.067,0.162-0.165,0.308-0.287,0.429
	c-0.121,0.121-0.266,0.219-0.429,0.286c-0.162,0.067-0.342,0.104-0.532,0.104h-3.063h-3.063h-3.063h-3.063l-0.084-2.387
	l-0.084-2.387l-0.084-2.387L58.386,26.818z"/>
<path id="path17665" style="fill:#003366;" d="M40.241,70.382v-1.928v-1.928v-1.928V62.67h0.478h0.478h0.478h0.478l0.285,1.316
	l0.285,1.316l0.285,1.316l0.285,1.316l0.285-1.316l0.285-1.316l0.285-1.316l0.285-1.316h0.478h0.478h0.478h0.478v1.928v1.928v1.928
	v1.928H46.05h-0.293h-0.293H45.17v-1.517v-1.517V65.83v-1.517l-0.319,1.517l-0.319,1.517l-0.319,1.517l-0.319,1.517h-0.31h-0.31
	h-0.31h-0.31l-0.31-1.517l-0.31-1.517l-0.31-1.517l-0.31-1.517v1.517v1.517v1.517v1.517h-0.293h-0.293h-0.293H40.241z"/>
<path id="path17667" style="fill:#003366;" d="M48.053,66.493l-0.277-0.059L47.5,66.375l-0.277-0.059l-0.277-0.059
	c0.034-0.143,0.073-0.275,0.119-0.396c0.046-0.122,0.097-0.233,0.153-0.333c0.057-0.101,0.119-0.191,0.185-0.27
	s0.138-0.149,0.213-0.207c0.075-0.059,0.159-0.111,0.252-0.157c0.093-0.046,0.194-0.084,0.306-0.116
	c0.111-0.032,0.232-0.056,0.362-0.072c0.13-0.016,0.271-0.025,0.422-0.025c0.126,0,0.245,0.004,0.358,0.013
	c0.113,0.008,0.218,0.021,0.317,0.038c0.098,0.017,0.19,0.038,0.273,0.063c0.083,0.025,0.159,0.054,0.226,0.088
	c0.067,0.034,0.13,0.071,0.188,0.113c0.058,0.042,0.112,0.088,0.16,0.138c0.048,0.05,0.091,0.105,0.128,0.163
	c0.037,0.059,0.069,0.122,0.094,0.189c0.025,0.059,0.048,0.132,0.069,0.219c0.02,0.087,0.038,0.188,0.053,0.301
	c0.015,0.113,0.026,0.239,0.034,0.376s0.012,0.286,0.012,0.445v0.436V67.7v0.436v0.436c0,0.117,0.002,0.228,0.006,0.333
	s0.009,0.202,0.015,0.292c0.006,0.09,0.014,0.173,0.021,0.248c0.008,0.075,0.016,0.142,0.025,0.2
	c0.008,0.059,0.019,0.119,0.031,0.181s0.027,0.125,0.044,0.188c0.017,0.063,0.036,0.126,0.057,0.188
	c0.021,0.062,0.044,0.123,0.069,0.181h-0.302h-0.302h-0.302h-0.302l-0.042-0.151l-0.042-0.151l-0.042-0.151l-0.042-0.151
	c-0.05,0.059-0.103,0.115-0.157,0.169c-0.054,0.053-0.11,0.104-0.166,0.15c-0.057,0.046-0.114,0.088-0.172,0.125
	c-0.058,0.037-0.117,0.068-0.175,0.093c-0.059,0.034-0.119,0.061-0.181,0.083s-0.125,0.039-0.188,0.051
	c-0.063,0.013-0.126,0.021-0.188,0.026c-0.062,0.005-0.123,0.007-0.181,0.007c-0.109,0-0.214-0.008-0.314-0.026
	c-0.101-0.017-0.197-0.043-0.289-0.079c-0.092-0.036-0.18-0.081-0.264-0.136s-0.163-0.12-0.239-0.196
	c-0.067-0.075-0.128-0.157-0.181-0.245c-0.053-0.088-0.1-0.182-0.137-0.283c-0.038-0.101-0.067-0.207-0.087-0.321
	c-0.02-0.113-0.03-0.233-0.03-0.358c0-0.075,0.004-0.151,0.012-0.225c0.008-0.074,0.019-0.148,0.034-0.219
	c0.015-0.071,0.032-0.14,0.053-0.206c0.02-0.066,0.043-0.129,0.069-0.188c0.025-0.059,0.054-0.115,0.088-0.169
	s0.071-0.105,0.113-0.154c0.042-0.048,0.088-0.093,0.138-0.134s0.105-0.079,0.163-0.113c0.05-0.034,0.109-0.067,0.176-0.1
	c0.067-0.033,0.143-0.066,0.226-0.097s0.176-0.062,0.277-0.091s0.21-0.056,0.327-0.081c0.143-0.034,0.272-0.065,0.391-0.095
	c0.118-0.03,0.225-0.06,0.322-0.089s0.182-0.059,0.259-0.089s0.144-0.062,0.202-0.095c0-0.075-0.002-0.145-0.006-0.207
	c-0.004-0.063-0.009-0.119-0.015-0.17c-0.006-0.05-0.014-0.094-0.022-0.132c-0.008-0.038-0.016-0.069-0.024-0.094
	c-0.008-0.025-0.021-0.048-0.037-0.07c-0.016-0.021-0.035-0.041-0.056-0.06c-0.021-0.019-0.044-0.037-0.068-0.054
	s-0.049-0.034-0.074-0.051c-0.025-0.017-0.054-0.031-0.088-0.044s-0.071-0.023-0.113-0.031c-0.042-0.008-0.088-0.015-0.138-0.019
	c-0.05-0.004-0.105-0.006-0.163-0.006c-0.05,0-0.101,0.002-0.149,0.007c-0.049,0.005-0.096,0.012-0.14,0.022
	c-0.044,0.01-0.085,0.024-0.121,0.041s-0.067,0.038-0.093,0.063c-0.034,0.042-0.065,0.084-0.094,0.127
	c-0.029,0.044-0.057,0.089-0.082,0.137c-0.025,0.048-0.048,0.099-0.069,0.155S48.07,66.426,48.053,66.493L48.053,66.493
	L48.053,66.493L48.053,66.493L48.053,66.493z M49.663,67.7c-0.042,0.017-0.088,0.034-0.139,0.051s-0.106,0.035-0.167,0.054
	c-0.061,0.019-0.127,0.039-0.199,0.06c-0.072,0.022-0.149,0.045-0.233,0.07c-0.092,0.025-0.178,0.05-0.257,0.076
	c-0.079,0.026-0.15,0.052-0.213,0.079c-0.063,0.027-0.117,0.056-0.162,0.086c-0.045,0.03-0.081,0.061-0.106,0.095
	c-0.025,0.034-0.048,0.067-0.069,0.102c-0.02,0.035-0.038,0.07-0.053,0.108c-0.015,0.038-0.026,0.078-0.034,0.121
	c-0.008,0.043-0.012,0.089-0.012,0.139c0,0.05,0.004,0.101,0.013,0.15c0.008,0.049,0.021,0.097,0.038,0.144s0.038,0.09,0.063,0.131
	c0.025,0.041,0.054,0.079,0.088,0.112c0.034,0.034,0.069,0.063,0.106,0.088c0.037,0.025,0.076,0.046,0.116,0.063
	c0.04,0.017,0.081,0.029,0.122,0.038c0.041,0.008,0.083,0.013,0.125,0.013c0.042,0,0.084-0.004,0.126-0.012
	c0.042-0.008,0.084-0.019,0.126-0.034c0.042-0.015,0.084-0.032,0.126-0.053c0.042-0.02,0.084-0.044,0.126-0.069
	c0.042-0.034,0.08-0.067,0.114-0.101s0.065-0.069,0.092-0.104c0.027-0.036,0.051-0.072,0.073-0.111
	c0.021-0.038,0.04-0.078,0.057-0.12c0.017-0.042,0.031-0.092,0.044-0.15c0.013-0.058,0.023-0.124,0.031-0.197
	c0.008-0.073,0.015-0.154,0.019-0.242c0.004-0.087,0.006-0.182,0.006-0.282l0.008-0.075l0.008-0.075l0.008-0.076L49.663,67.7
	L49.663,67.7L49.663,67.7L49.663,67.7L49.663,67.7z"/>
<path id="path17669" style="fill:#003366;" d="M51.138,68.806l0.302-0.059l0.302-0.059l0.302-0.059l0.302-0.059
	c0.025,0.143,0.065,0.268,0.119,0.377s0.122,0.2,0.204,0.273c0.082,0.073,0.177,0.129,0.286,0.166
	c0.108,0.037,0.23,0.056,0.364,0.056c0.075,0,0.145-0.004,0.208-0.012s0.121-0.019,0.173-0.034c0.052-0.015,0.099-0.032,0.142-0.053
	s0.08-0.044,0.114-0.069c0.034-0.025,0.063-0.054,0.088-0.087c0.025-0.032,0.046-0.068,0.063-0.106
	c0.017-0.038,0.029-0.078,0.038-0.118c0.008-0.041,0.013-0.083,0.013-0.125c0-0.034-0.002-0.065-0.006-0.094
	c-0.004-0.029-0.01-0.057-0.019-0.082c-0.008-0.025-0.019-0.048-0.031-0.069c-0.013-0.021-0.027-0.04-0.044-0.057
	c-0.017-0.017-0.038-0.034-0.063-0.05c-0.025-0.016-0.054-0.032-0.088-0.046s-0.071-0.028-0.113-0.04
	c-0.042-0.012-0.088-0.023-0.138-0.031c-0.251-0.067-0.48-0.132-0.685-0.195c-0.205-0.063-0.388-0.125-0.547-0.186
	c-0.159-0.061-0.295-0.12-0.409-0.18c-0.113-0.059-0.203-0.118-0.27-0.177c-0.084-0.075-0.157-0.157-0.22-0.246
	c-0.063-0.089-0.115-0.184-0.157-0.287c-0.042-0.103-0.073-0.213-0.094-0.331s-0.031-0.244-0.031-0.378
	c0-0.126,0.01-0.247,0.031-0.364c0.021-0.116,0.052-0.227,0.094-0.332c0.042-0.105,0.094-0.203,0.157-0.294
	c0.063-0.091,0.136-0.175,0.22-0.25s0.176-0.143,0.277-0.201c0.101-0.058,0.211-0.107,0.33-0.147c0.12-0.04,0.248-0.07,0.387-0.091
	c0.139-0.02,0.288-0.031,0.447-0.031c0.151,0,0.293,0.008,0.427,0.025c0.134,0.016,0.258,0.04,0.374,0.072
	c0.115,0.032,0.221,0.07,0.317,0.116c0.096,0.046,0.182,0.098,0.257,0.157c0.075,0.059,0.147,0.126,0.213,0.202
	s0.128,0.161,0.185,0.255c0.057,0.094,0.108,0.198,0.154,0.312c0.046,0.114,0.085,0.237,0.119,0.371l-0.285,0.067l-0.285,0.067
	l-0.285,0.067l-0.285,0.067c-0.025-0.109-0.063-0.205-0.113-0.289c-0.05-0.083-0.112-0.154-0.185-0.21s-0.158-0.1-0.254-0.128
	c-0.096-0.029-0.203-0.043-0.32-0.043c-0.075,0-0.145,0.002-0.208,0.007c-0.063,0.005-0.121,0.012-0.173,0.022
	c-0.052,0.01-0.099,0.024-0.142,0.041c-0.042,0.017-0.08,0.038-0.114,0.063s-0.063,0.05-0.088,0.076s-0.046,0.052-0.063,0.079
	c-0.017,0.027-0.029,0.056-0.038,0.086c-0.008,0.03-0.013,0.061-0.013,0.095s0.004,0.065,0.012,0.094
	c0.008,0.029,0.019,0.057,0.034,0.082c0.015,0.025,0.032,0.048,0.053,0.069s0.044,0.04,0.069,0.057
	c0.025,0.025,0.067,0.05,0.125,0.076c0.058,0.026,0.132,0.053,0.223,0.083s0.196,0.061,0.317,0.095
	c0.121,0.035,0.257,0.072,0.408,0.114c0.168,0.05,0.323,0.103,0.465,0.157c0.142,0.054,0.271,0.111,0.386,0.17
	c0.115,0.059,0.217,0.119,0.304,0.182c0.087,0.063,0.161,0.128,0.219,0.195c0.059,0.067,0.111,0.14,0.157,0.22
	c0.046,0.079,0.084,0.164,0.116,0.254c0.032,0.09,0.056,0.186,0.072,0.286s0.025,0.205,0.025,0.314c0,0.134-0.013,0.262-0.037,0.384
	c-0.025,0.122-0.061,0.238-0.11,0.35c-0.048,0.111-0.108,0.217-0.179,0.318c-0.071,0.101-0.152,0.197-0.245,0.29
	c-0.092,0.084-0.193,0.159-0.302,0.225c-0.109,0.066-0.228,0.123-0.356,0.169c-0.128,0.046-0.265,0.082-0.412,0.106
	s-0.304,0.037-0.472,0.037c-0.151,0-0.293-0.008-0.428-0.026c-0.135-0.017-0.261-0.043-0.381-0.079
	c-0.119-0.036-0.231-0.081-0.337-0.136c-0.105-0.055-0.204-0.12-0.296-0.196c-0.075-0.092-0.147-0.189-0.213-0.29
	s-0.128-0.207-0.185-0.318c-0.057-0.111-0.108-0.227-0.154-0.349C51.212,69.068,51.172,68.941,51.138,68.806L51.138,68.806
	L51.138,68.806L51.138,68.806L51.138,68.806z"/>
<path id="path17671" style="fill:#003366;" d="M55.598,68.806l0.302-0.059l0.302-0.059l0.302-0.059l0.302-0.059
	c0.025,0.143,0.065,0.268,0.119,0.377c0.054,0.108,0.122,0.2,0.204,0.273c0.082,0.073,0.177,0.129,0.286,0.166
	c0.108,0.037,0.23,0.056,0.364,0.056c0.075,0,0.145-0.004,0.208-0.012s0.121-0.019,0.173-0.034c0.052-0.015,0.099-0.032,0.142-0.053
	c0.042-0.02,0.08-0.044,0.114-0.069c0.034-0.025,0.063-0.054,0.088-0.087c0.025-0.032,0.046-0.068,0.063-0.106
	c0.017-0.038,0.029-0.078,0.038-0.118c0.008-0.041,0.013-0.083,0.013-0.125c0-0.034-0.002-0.065-0.006-0.094
	c-0.004-0.029-0.01-0.057-0.019-0.082c-0.008-0.025-0.019-0.048-0.031-0.069c-0.013-0.021-0.027-0.04-0.044-0.057
	c-0.017-0.017-0.038-0.034-0.063-0.05s-0.054-0.032-0.088-0.046s-0.071-0.028-0.113-0.04c-0.042-0.012-0.088-0.023-0.138-0.031
	c-0.251-0.067-0.48-0.132-0.685-0.195c-0.205-0.063-0.388-0.125-0.547-0.186s-0.295-0.12-0.409-0.18s-0.203-0.118-0.27-0.177
	c-0.084-0.075-0.157-0.157-0.22-0.246c-0.063-0.089-0.115-0.184-0.157-0.287c-0.042-0.103-0.073-0.213-0.094-0.331
	c-0.021-0.118-0.031-0.244-0.031-0.378c0-0.126,0.01-0.247,0.031-0.364c0.021-0.116,0.052-0.227,0.094-0.332
	c0.042-0.105,0.094-0.203,0.157-0.294c0.063-0.091,0.136-0.175,0.22-0.25s0.176-0.143,0.277-0.201
	c0.101-0.058,0.211-0.107,0.33-0.147c0.119-0.04,0.248-0.07,0.387-0.091s0.288-0.031,0.447-0.031c0.151,0,0.293,0.008,0.427,0.025
	s0.258,0.04,0.373,0.072c0.115,0.032,0.221,0.07,0.317,0.116c0.096,0.046,0.182,0.098,0.258,0.157
	c0.075,0.059,0.147,0.126,0.213,0.202c0.067,0.076,0.128,0.161,0.185,0.255c0.057,0.094,0.108,0.198,0.154,0.312
	c0.046,0.114,0.085,0.237,0.119,0.371l-0.285,0.067l-0.285,0.067l-0.285,0.067l-0.285,0.067c-0.025-0.109-0.063-0.205-0.113-0.289
	c-0.05-0.083-0.112-0.154-0.185-0.21s-0.158-0.1-0.254-0.128c-0.096-0.029-0.202-0.043-0.32-0.043c-0.075,0-0.145,0.002-0.208,0.007
	c-0.063,0.005-0.121,0.012-0.173,0.022c-0.052,0.01-0.099,0.024-0.142,0.041c-0.042,0.017-0.08,0.038-0.114,0.063
	c-0.034,0.025-0.063,0.05-0.088,0.076c-0.025,0.026-0.046,0.052-0.063,0.079c-0.017,0.027-0.029,0.056-0.038,0.086
	s-0.013,0.061-0.013,0.095s0.004,0.065,0.012,0.094c0.008,0.029,0.019,0.057,0.034,0.082s0.032,0.048,0.053,0.069
	s0.044,0.04,0.069,0.057c0.025,0.025,0.067,0.05,0.125,0.076c0.058,0.026,0.132,0.053,0.223,0.083
	c0.09,0.029,0.196,0.061,0.317,0.095c0.121,0.035,0.257,0.072,0.408,0.114c0.168,0.05,0.323,0.103,0.465,0.157
	c0.142,0.054,0.271,0.111,0.386,0.17c0.115,0.059,0.217,0.119,0.305,0.182c0.087,0.063,0.161,0.128,0.219,0.195
	c0.059,0.067,0.111,0.14,0.157,0.22c0.046,0.079,0.084,0.164,0.116,0.254c0.031,0.09,0.055,0.186,0.072,0.286
	c0.016,0.1,0.025,0.205,0.025,0.314c0,0.134-0.013,0.262-0.037,0.384c-0.025,0.122-0.061,0.238-0.11,0.35
	c-0.048,0.111-0.108,0.217-0.179,0.318s-0.152,0.197-0.245,0.29c-0.092,0.084-0.193,0.159-0.302,0.225
	c-0.11,0.066-0.228,0.123-0.356,0.169c-0.128,0.046-0.265,0.082-0.412,0.106s-0.304,0.037-0.472,0.037
	c-0.151,0-0.293-0.008-0.428-0.026c-0.135-0.017-0.262-0.043-0.381-0.079c-0.119-0.036-0.231-0.081-0.337-0.136
	s-0.204-0.12-0.296-0.196c-0.075-0.092-0.147-0.189-0.213-0.29c-0.067-0.101-0.128-0.207-0.185-0.318
	c-0.057-0.111-0.108-0.227-0.153-0.349S55.631,68.941,55.598,68.806L55.598,68.806L55.598,68.806L55.598,68.806L55.598,68.806z"/>
<path id="path17673" style="fill:#003366;" d="M38.966,81.179v-1.601v-1.601v-1.601v-1.601h-0.469h-0.469h-0.469h-0.469v-0.327
	v-0.327v-0.327v-0.327h1.257h1.257h1.257h1.257v0.327v0.327v0.327v0.327h-0.469h-0.469H40.71h-0.469v1.601v1.601v1.601v1.601h-0.319
	h-0.319h-0.319H38.966z"/>
<path id="path17675" style="fill:#003366;" d="M43.124,81.179h-0.302h-0.302h-0.302h-0.302v-1.4v-1.4v-1.4v-1.4h0.285h0.285h0.285
	h0.285v0.201v0.201v0.201v0.201c0.05-0.092,0.098-0.176,0.145-0.252s0.09-0.144,0.132-0.205c0.042-0.061,0.082-0.114,0.119-0.161
	s0.073-0.086,0.107-0.12c0.042-0.034,0.084-0.061,0.126-0.083c0.042-0.022,0.085-0.039,0.129-0.051
	c0.044-0.013,0.089-0.021,0.136-0.026s0.095-0.007,0.145-0.007c0.067,0,0.134,0.006,0.201,0.018s0.134,0.03,0.201,0.053
	c0.067,0.023,0.134,0.051,0.201,0.084s0.134,0.071,0.201,0.113l-0.092,0.319l-0.092,0.319l-0.092,0.319l-0.092,0.319
	c-0.05-0.042-0.101-0.078-0.15-0.107s-0.099-0.054-0.147-0.073c-0.048-0.019-0.095-0.033-0.141-0.042
	c-0.046-0.009-0.089-0.013-0.131-0.013c-0.042,0-0.082,0.004-0.12,0.013c-0.038,0.008-0.075,0.021-0.111,0.038
	c-0.036,0.017-0.07,0.038-0.104,0.063c-0.034,0.025-0.068,0.054-0.101,0.088c-0.034,0.034-0.063,0.071-0.089,0.114
	s-0.049,0.091-0.07,0.146c-0.021,0.054-0.04,0.115-0.058,0.183s-0.035,0.144-0.051,0.227c-0.017,0.084-0.031,0.184-0.044,0.302
	c-0.013,0.117-0.023,0.251-0.031,0.402c-0.008,0.151-0.015,0.319-0.019,0.503c-0.004,0.184-0.006,0.386-0.006,0.604v0.428v0.428
	v0.428v0.428h-0.008h-0.008h-0.008L43.124,81.179L43.124,81.179L43.124,81.179z"/>
<path id="path17677" style="fill:#003366;" d="M45.84,77.29l-0.277-0.059l-0.277-0.059l-0.277-0.059l-0.277-0.059
	c0.034-0.143,0.073-0.275,0.119-0.396c0.046-0.122,0.097-0.233,0.153-0.333s0.118-0.191,0.185-0.27s0.138-0.149,0.213-0.207
	c0.075-0.059,0.159-0.111,0.252-0.157s0.194-0.084,0.305-0.116c0.111-0.032,0.232-0.056,0.362-0.072
	c0.13-0.016,0.271-0.025,0.422-0.025c0.126,0,0.245,0.004,0.358,0.013c0.113,0.008,0.218,0.021,0.317,0.038
	c0.099,0.017,0.19,0.038,0.273,0.063c0.083,0.025,0.159,0.054,0.226,0.088c0.067,0.034,0.13,0.071,0.188,0.113
	c0.058,0.042,0.112,0.088,0.16,0.138c0.048,0.05,0.091,0.105,0.128,0.163c0.037,0.059,0.069,0.122,0.094,0.189
	c0.025,0.059,0.048,0.132,0.069,0.219c0.02,0.087,0.038,0.188,0.053,0.301s0.026,0.239,0.034,0.376s0.012,0.286,0.012,0.445v0.436
	v0.436v0.436v0.436c0,0.117,0.002,0.228,0.006,0.333c0.004,0.104,0.009,0.202,0.015,0.292c0.006,0.09,0.014,0.173,0.022,0.248
	c0.008,0.075,0.016,0.142,0.024,0.201c0.008,0.059,0.019,0.119,0.031,0.181c0.013,0.062,0.027,0.125,0.044,0.188
	c0.017,0.063,0.036,0.126,0.057,0.188c0.021,0.062,0.044,0.123,0.069,0.181h-0.302h-0.302h-0.302h-0.302l-0.042-0.151l-0.042-0.151
	l-0.042-0.151l-0.042-0.151c-0.05,0.059-0.103,0.115-0.157,0.169c-0.054,0.053-0.109,0.104-0.166,0.15
	c-0.057,0.046-0.114,0.088-0.173,0.125c-0.058,0.037-0.117,0.068-0.176,0.093c-0.059,0.034-0.119,0.061-0.181,0.083
	c-0.062,0.022-0.125,0.039-0.188,0.051c-0.063,0.013-0.126,0.021-0.188,0.026c-0.062,0.005-0.123,0.007-0.181,0.007
	c-0.109,0-0.214-0.008-0.314-0.026c-0.101-0.017-0.197-0.043-0.289-0.079s-0.18-0.081-0.264-0.136s-0.163-0.12-0.239-0.195
	c-0.067-0.075-0.128-0.157-0.181-0.245s-0.1-0.182-0.137-0.283c-0.038-0.101-0.067-0.207-0.087-0.321s-0.03-0.233-0.03-0.358
	c0-0.075,0.004-0.151,0.012-0.225c0.008-0.074,0.019-0.148,0.034-0.219c0.015-0.071,0.032-0.14,0.053-0.206s0.044-0.129,0.069-0.188
	c0.025-0.059,0.054-0.115,0.088-0.169c0.034-0.054,0.071-0.105,0.113-0.153c0.042-0.048,0.088-0.093,0.138-0.135
	s0.105-0.079,0.163-0.113c0.05-0.034,0.109-0.067,0.176-0.1s0.143-0.065,0.226-0.097c0.084-0.031,0.176-0.062,0.277-0.091
	c0.101-0.029,0.21-0.056,0.327-0.081c0.143-0.034,0.272-0.065,0.391-0.095c0.118-0.03,0.225-0.06,0.322-0.089
	c0.096-0.029,0.182-0.059,0.259-0.089c0.076-0.03,0.144-0.062,0.202-0.095c0-0.075-0.002-0.145-0.006-0.207
	c-0.004-0.063-0.009-0.119-0.015-0.17c-0.006-0.05-0.013-0.094-0.021-0.132s-0.016-0.069-0.025-0.094s-0.021-0.048-0.037-0.07
	c-0.016-0.021-0.035-0.041-0.056-0.06c-0.021-0.019-0.044-0.037-0.068-0.054c-0.024-0.017-0.049-0.034-0.074-0.051
	c-0.025-0.017-0.054-0.031-0.088-0.044c-0.034-0.013-0.071-0.023-0.113-0.031c-0.042-0.008-0.088-0.015-0.138-0.019
	s-0.105-0.006-0.163-0.006c-0.05,0-0.101,0.002-0.149,0.007c-0.049,0.005-0.096,0.012-0.14,0.023
	c-0.044,0.01-0.085,0.024-0.121,0.041c-0.036,0.017-0.068,0.038-0.093,0.063c-0.034,0.034-0.065,0.071-0.094,0.113
	s-0.057,0.088-0.082,0.138c-0.025,0.05-0.048,0.104-0.069,0.163C45.876,77.16,45.857,77.223,45.84,77.29L45.84,77.29L45.84,77.29
	L45.84,77.29L45.84,77.29z M47.45,78.497c-0.042,0.017-0.088,0.034-0.139,0.051s-0.106,0.035-0.167,0.054
	c-0.061,0.019-0.127,0.039-0.199,0.06c-0.072,0.021-0.149,0.045-0.233,0.07c-0.092,0.025-0.178,0.05-0.257,0.076
	c-0.079,0.026-0.15,0.052-0.213,0.079c-0.063,0.027-0.117,0.055-0.162,0.085c-0.045,0.03-0.081,0.061-0.106,0.095
	c-0.025,0.034-0.048,0.067-0.069,0.102c-0.02,0.035-0.038,0.07-0.053,0.108c-0.015,0.038-0.026,0.078-0.034,0.121
	c-0.008,0.043-0.012,0.089-0.012,0.139s0.004,0.101,0.013,0.15c0.008,0.049,0.021,0.097,0.038,0.144
	c0.017,0.046,0.038,0.09,0.063,0.131c0.025,0.041,0.054,0.079,0.088,0.112s0.069,0.063,0.106,0.088
	c0.037,0.025,0.076,0.046,0.116,0.063c0.04,0.017,0.081,0.029,0.122,0.038c0.041,0.008,0.083,0.013,0.125,0.013
	c0.042,0,0.084-0.004,0.126-0.012c0.042-0.008,0.084-0.019,0.126-0.034c0.042-0.015,0.084-0.033,0.126-0.053
	c0.042-0.02,0.084-0.044,0.126-0.069c0.042-0.034,0.08-0.067,0.114-0.101c0.034-0.034,0.065-0.069,0.092-0.104
	c0.027-0.036,0.051-0.072,0.073-0.111c0.021-0.038,0.04-0.078,0.057-0.12c0.017-0.042,0.031-0.092,0.044-0.15
	c0.013-0.058,0.023-0.124,0.031-0.197c0.008-0.073,0.015-0.154,0.019-0.242s0.006-0.182,0.006-0.283l0.008-0.075l0.008-0.075
	l0.008-0.075L47.45,78.497L47.45,78.497L47.45,78.497L47.45,78.497L47.45,78.497z"/>
<path id="path17679" style="fill:#003366;" d="M53.552,81.179h-0.302h-0.302h-0.302h-0.302v-0.713v-0.713v-0.713v-0.713
	c0-0.143-0.002-0.272-0.006-0.39c-0.004-0.118-0.009-0.224-0.015-0.318c-0.006-0.094-0.013-0.177-0.021-0.249
	c-0.008-0.072-0.016-0.133-0.025-0.183c-0.008-0.05-0.021-0.096-0.037-0.139c-0.016-0.042-0.036-0.081-0.059-0.117
	c-0.023-0.036-0.049-0.068-0.078-0.098c-0.029-0.03-0.06-0.057-0.094-0.082c-0.034-0.025-0.067-0.048-0.101-0.069
	s-0.069-0.038-0.104-0.053c-0.036-0.015-0.072-0.026-0.111-0.034c-0.038-0.008-0.078-0.012-0.12-0.012
	c-0.05,0-0.101,0.004-0.15,0.013c-0.049,0.008-0.097,0.021-0.144,0.038c-0.046,0.017-0.09,0.038-0.131,0.063
	s-0.079,0.054-0.112,0.088c-0.042,0.034-0.08,0.069-0.114,0.107s-0.065,0.079-0.092,0.123c-0.027,0.044-0.051,0.091-0.073,0.142
	c-0.021,0.051-0.04,0.105-0.057,0.164c-0.017,0.059-0.031,0.13-0.044,0.214c-0.013,0.084-0.023,0.18-0.031,0.289
	c-0.008,0.109-0.015,0.231-0.019,0.365s-0.006,0.281-0.006,0.44v0.637v0.637v0.637v0.637H50.3h-0.302h-0.302h-0.302v-1.4v-1.4v-1.4
	v-1.4h0.285h0.285h0.285h0.285v0.201v0.201v0.201v0.201c0.05-0.075,0.103-0.147,0.157-0.214c0.054-0.067,0.109-0.13,0.166-0.189
	c0.057-0.059,0.114-0.113,0.173-0.163c0.058-0.05,0.117-0.096,0.176-0.138c0.067-0.042,0.134-0.078,0.202-0.107
	c0.068-0.03,0.136-0.054,0.205-0.073c0.069-0.019,0.139-0.033,0.211-0.042c0.072-0.009,0.145-0.013,0.221-0.013
	c0.092,0,0.178,0.006,0.259,0.018c0.081,0.012,0.158,0.03,0.231,0.053c0.073,0.023,0.143,0.051,0.212,0.084
	c0.069,0.033,0.136,0.071,0.203,0.112c0.059,0.042,0.113,0.09,0.163,0.143c0.05,0.053,0.096,0.111,0.138,0.171
	c0.042,0.061,0.08,0.125,0.113,0.19c0.034,0.066,0.063,0.133,0.088,0.2c0.025,0.075,0.046,0.157,0.063,0.246
	c0.017,0.089,0.031,0.184,0.041,0.287c0.01,0.103,0.018,0.213,0.022,0.33c0.005,0.118,0.007,0.244,0.007,0.378l-0.008,0.88
	l-0.008,0.88L53.56,80.3L53.552,81.179L53.552,81.179L53.552,81.179L53.552,81.179L53.552,81.179z"/>
<path id="path17681" style="fill:#003366;" d="M53.888,79.57l0.302-0.059l0.302-0.059l0.302-0.059l0.302-0.059
	c0.025,0.143,0.065,0.268,0.119,0.377c0.054,0.108,0.122,0.2,0.204,0.273c0.082,0.073,0.177,0.129,0.285,0.166
	c0.108,0.037,0.23,0.056,0.364,0.056c0.075,0,0.145-0.004,0.208-0.012c0.063-0.008,0.121-0.019,0.173-0.034
	c0.052-0.015,0.099-0.033,0.142-0.053c0.042-0.02,0.08-0.044,0.114-0.069s0.063-0.054,0.088-0.087
	c0.025-0.032,0.046-0.068,0.063-0.106c0.017-0.038,0.029-0.078,0.038-0.118c0.008-0.041,0.013-0.083,0.013-0.125
	c0-0.034-0.002-0.065-0.006-0.094c-0.004-0.029-0.01-0.057-0.019-0.082c-0.008-0.025-0.019-0.048-0.031-0.069
	c-0.013-0.021-0.027-0.04-0.044-0.057c-0.017-0.017-0.038-0.034-0.063-0.05c-0.025-0.016-0.054-0.032-0.088-0.046
	c-0.034-0.015-0.071-0.028-0.113-0.04c-0.042-0.012-0.088-0.023-0.138-0.031c-0.251-0.067-0.48-0.132-0.685-0.195
	c-0.205-0.063-0.388-0.125-0.547-0.186c-0.159-0.061-0.295-0.121-0.409-0.18c-0.113-0.059-0.203-0.118-0.27-0.177
	c-0.084-0.075-0.157-0.157-0.22-0.246c-0.063-0.089-0.115-0.184-0.157-0.286c-0.042-0.103-0.073-0.213-0.094-0.331
	c-0.021-0.118-0.031-0.244-0.031-0.378c0-0.126,0.01-0.247,0.031-0.364c0.021-0.116,0.052-0.227,0.094-0.332
	c0.042-0.105,0.094-0.203,0.157-0.294c0.063-0.091,0.136-0.175,0.22-0.25s0.176-0.143,0.277-0.201
	c0.101-0.058,0.211-0.107,0.33-0.147s0.248-0.07,0.387-0.091c0.139-0.021,0.288-0.031,0.447-0.031c0.151,0,0.293,0.008,0.427,0.025
	s0.258,0.04,0.373,0.072c0.115,0.032,0.221,0.07,0.317,0.116c0.096,0.046,0.182,0.098,0.258,0.157
	c0.075,0.059,0.147,0.126,0.213,0.202c0.067,0.076,0.128,0.161,0.185,0.255c0.057,0.094,0.108,0.198,0.153,0.312
	c0.046,0.114,0.085,0.237,0.119,0.371l-0.285,0.067l-0.285,0.067l-0.285,0.067l-0.285,0.067c-0.025-0.109-0.063-0.205-0.113-0.289
	c-0.05-0.083-0.112-0.154-0.185-0.21c-0.073-0.057-0.158-0.099-0.254-0.128c-0.096-0.029-0.203-0.043-0.32-0.043
	c-0.075,0-0.145,0.002-0.208,0.007c-0.063,0.005-0.121,0.012-0.173,0.023c-0.052,0.011-0.099,0.024-0.142,0.041
	c-0.042,0.017-0.08,0.038-0.114,0.063c-0.034,0.025-0.063,0.05-0.088,0.076c-0.025,0.026-0.046,0.052-0.063,0.079
	c-0.017,0.027-0.029,0.055-0.038,0.085c-0.008,0.03-0.013,0.061-0.013,0.095s0.004,0.065,0.012,0.094
	c0.008,0.029,0.019,0.057,0.034,0.082c0.015,0.025,0.033,0.048,0.053,0.069s0.044,0.04,0.069,0.057
	c0.025,0.025,0.067,0.05,0.125,0.076c0.058,0.026,0.133,0.053,0.223,0.083c0.09,0.029,0.196,0.061,0.317,0.095
	c0.121,0.035,0.257,0.072,0.408,0.114c0.168,0.05,0.323,0.103,0.465,0.157c0.142,0.054,0.271,0.111,0.386,0.17
	c0.115,0.059,0.217,0.119,0.305,0.182c0.088,0.063,0.161,0.128,0.22,0.195c0.059,0.067,0.111,0.14,0.157,0.22
	c0.046,0.079,0.084,0.164,0.116,0.254c0.031,0.09,0.055,0.186,0.072,0.286s0.025,0.205,0.025,0.314c0,0.134-0.013,0.262-0.037,0.384
	c-0.025,0.122-0.061,0.238-0.11,0.35c-0.048,0.111-0.108,0.217-0.179,0.318s-0.152,0.197-0.244,0.289
	c-0.092,0.084-0.193,0.159-0.302,0.225s-0.228,0.123-0.356,0.169c-0.128,0.046-0.265,0.082-0.412,0.106
	c-0.147,0.024-0.304,0.037-0.472,0.037c-0.151,0-0.293-0.008-0.428-0.026c-0.135-0.017-0.261-0.043-0.381-0.079
	c-0.12-0.036-0.232-0.081-0.337-0.136c-0.105-0.055-0.204-0.12-0.296-0.195c-0.075-0.084-0.149-0.174-0.218-0.271
	c-0.069-0.097-0.134-0.201-0.193-0.312c-0.059-0.111-0.111-0.23-0.155-0.356C53.949,79.847,53.913,79.712,53.888,79.57L53.888,79.57
	L53.888,79.57L53.888,79.57L53.888,79.57z"/>
<path id="path17683" style="fill:#003366;" d="M58.75,74.808v-0.344v-0.344v-0.344v-0.344h0.302h0.302h0.302h0.302v0.344v0.344
	v0.344v0.344h-0.302h-0.302h-0.302H58.75z M58.75,81.179v-1.4v-1.4v-1.4v-1.4h0.302h0.302h0.302h0.302v1.4v1.4v1.4v1.4h-0.302
	h-0.302h-0.302H58.75z"/>
<path id="path17685" style="fill:#003366;" d="M62.841,75.58v0.293v0.293v0.293v0.293h-0.21h-0.21h-0.21h-0.21v0.562v0.562v0.562V79
	c0,0.126,0,0.237,0.001,0.334c0.001,0.097,0.002,0.18,0.004,0.249c0.002,0.069,0.005,0.125,0.01,0.167
	c0.005,0.042,0.011,0.072,0.019,0.089c0.008,0.034,0.021,0.063,0.038,0.088s0.038,0.046,0.063,0.063
	c0.025,0.017,0.054,0.029,0.088,0.038s0.071,0.013,0.113,0.013c0.025,0,0.054-0.002,0.088-0.007s0.07-0.012,0.11-0.022
	c0.04-0.01,0.083-0.024,0.128-0.041c0.046-0.017,0.094-0.038,0.144-0.063l0.025,0.285l0.025,0.285l0.025,0.285l0.025,0.285
	c-0.067,0.034-0.138,0.065-0.213,0.093s-0.152,0.053-0.232,0.074s-0.161,0.038-0.244,0.049c-0.083,0.012-0.167,0.018-0.25,0.018
	c-0.075,0-0.149-0.004-0.219-0.013s-0.137-0.023-0.2-0.042c-0.063-0.019-0.122-0.043-0.175-0.073s-0.102-0.066-0.144-0.108
	c-0.05-0.034-0.094-0.073-0.133-0.118c-0.039-0.045-0.072-0.095-0.102-0.15c-0.029-0.054-0.054-0.113-0.076-0.175
	c-0.022-0.062-0.041-0.127-0.058-0.194c-0.008-0.05-0.017-0.113-0.025-0.189c-0.008-0.076-0.015-0.165-0.021-0.268
	c-0.006-0.103-0.011-0.219-0.015-0.349c-0.004-0.131-0.006-0.275-0.006-0.434v-0.612v-0.612v-0.612V76.72h-0.143H60.51h-0.143
	h-0.143v-0.293v-0.293V75.84v-0.293h0.143h0.143h0.143h0.143V75.27v-0.277v-0.277V74.44l0.302-0.218l0.302-0.218l0.302-0.218
	l0.302-0.218v0.495v0.495v0.495v0.495l0.21,0.008l0.21,0.008l0.209,0.008L62.841,75.58L62.841,75.58L62.841,75.58L62.841,75.58
	L62.841,75.58z"/>
</svg>
