<?xml version="1.0" encoding="iso-8859-1"?>
<!-- Generator: Adobe Illustrator 25.4.1, SVG Export Plug-In . SVG Version: 6.00 Build 0)  -->
<svg version="1.1"
	 id="svg8" xmlns:cc="http://creativecommons.org/ns#" xmlns:dc="http://purl.org/dc/elements/1.1/" xmlns:inkscape="http://www.inkscape.org/namespaces/inkscape" xmlns:rdf="http://www.w3.org/1999/02/22-rdf-syntax-ns#" xmlns:sodipodi="http://sodipodi.sourceforge.net/DTD/sodipodi-0.dtd" xmlns:svg="http://www.w3.org/2000/svg"
	 xmlns="http://www.w3.org/2000/svg" xmlns:xlink="http://www.w3.org/1999/xlink" x="0px" y="0px" viewBox="0 0 100 100"
	 style="enable-background:new 0 0 100 100;" xml:space="preserve">
<sodipodi:namedview  bordercolor="#666666" borderopacity="1.0" id="base" inkscape:current-layer="g12068" inkscape:cx="-302.11164" inkscape:cy="84.283015" inkscape:document-units="px" inkscape:guide-bbox="true" inkscape:lockguides="true" inkscape:pageopacity="0.0" inkscape:pageshadow="2" inkscape:window-height="657" inkscape:window-maximized="1" inkscape:window-width="1280" inkscape:window-x="-8" inkscape:window-y="-8" inkscape:zoom="0.765625" pagecolor="#ffffff" showgrid="false" showguides="false" units="px">
	<sodipodi:guide  id="guide5700" inkscape:locked="true" orientation="0,1" position="-0.93017576,23.874511"></sodipodi:guide>
	<sodipodi:guide  id="guide5726" inkscape:locked="true" orientation="0,1" position="-26.098869,26.473047"></sodipodi:guide>
	<sodipodi:guide  id="guide5880" inkscape:locked="true" orientation="0,1" position="104.51042,-2.9104167"></sodipodi:guide>
	<sodipodi:guide  id="guide6001" inkscape:locked="true" orientation="0,1" position="-71.093695,29.279377"></sodipodi:guide>
	<sodipodi:guide  id="guide6005" inkscape:locked="true" orientation="0,1" position="-46.304445,58.278122"></sodipodi:guide>
	<sodipodi:guide  id="guide6736" inkscape:locked="true" orientation="0,1" position="-0.10335287,20.205485"></sodipodi:guide>
	<sodipodi:guide  id="guide6738" inkscape:locked="true" orientation="0,1" position="-0.43848907,22.874513"></sodipodi:guide>
	<inkscape:grid  id="grid2386" type="xygrid"></inkscape:grid>
</sodipodi:namedview>
<g id="g1180" transform="translate(0,-229.2666)" inkscape:groupmode="layer" inkscape:label="halo:always" style="display:none;">
	<g id="g1210" inkscape:groupmode="layer" inkscape:label="-gray-halo:iter3" style="display:inline;">
		<g id="circle1208">
			<path style="fill:#919395;" d="M50,329.3c-27.6,0-50-22.4-50-50s22.4-50,50-50s50,22.4,50,50S77.6,329.3,50,329.3z M50,237.9
				c-22.8,0-41.4,18.6-41.4,41.4s18.6,41.4,41.4,41.4s41.4-18.6,41.4-41.4S72.8,237.9,50,237.9z"/>
		</g>
	</g>
	<g id="g1206" inkscape:groupmode="layer" inkscape:label="-red-halo:iter3" style="display:inline;">
		<g id="circle1204">
			<path style="fill:#C52038;" d="M50,329.3c-27.6,0-50-22.4-50-50s22.4-50,50-50s50,22.4,50,50S77.6,329.3,50,329.3z M50,237.9
				c-22.8,0-41.4,18.6-41.4,41.4s18.6,41.4,41.4,41.4s41.4-18.6,41.4-41.4S72.8,237.9,50,237.9z"/>
		</g>
	</g>
	<g id="g1202" inkscape:groupmode="layer" inkscape:label="-green-halo:iter3" style="display:inline;">
		<g id="circle1200">
			<path style="fill:#5E9C42;" d="M50,329.3c-27.6,0-50-22.4-50-50s22.4-50,50-50s50,22.4,50,50S77.6,329.3,50,329.3z M50,237.9
				c-22.8,0-41.4,18.6-41.4,41.4s18.6,41.4,41.4,41.4s41.4-18.6,41.4-41.4S72.8,237.9,50,237.9z"/>
		</g>
	</g>
	<g id="layer18" inkscape:groupmode="layer" inkscape:label="-yellow-halo:iter3" style="display:inline;">
		<g id="circle1178-4">
			<path style="fill:#FBBA16;" d="M50,329.3c-27.6,0-50-22.4-50-50s22.4-50,50-50s50,22.4,50,50S77.6,329.3,50,329.3z M50,237.9
				c-22.8,0-41.4,18.6-41.4,41.4s18.6,41.4,41.4,41.4s41.4-18.6,41.4-41.4S72.8,237.9,50,237.9z"/>
		</g>
	</g>
</g>
<path id="path12050" inkscape:connector-curvature="0" inkscape:export-filename="C:\Users\Charlotte Abel\Documents\Symbology\Round-2\transportation2.png" inkscape:export-xdpi="96" inkscape:export-ydpi="96" style="fill:#003366;" d="
	M49.187,33.321l-4.436,4.372l-4.436,4.372l-4.436,4.372l-4.436,4.372h4.267h4.267h4.267h4.267c0.042-0.422,0.079-0.85,0.114-1.281
	c0.034-0.43,0.066-0.863,0.098-1.296c0.032-0.433,0.063-0.866,0.098-1.296c0.034-0.43,0.071-0.858,0.114-1.281h0.528h0.528h0.528
	h0.528c0.042,0.422,0.079,0.85,0.114,1.281c0.034,0.43,0.066,0.863,0.098,1.296c0.032,0.433,0.063,0.866,0.098,1.296
	c0.034,0.43,0.071,0.858,0.114,1.281h4.267h4.267h4.267h4.267l-4.436-4.372l-4.436-4.372l-4.436-4.372l-4.436-4.372h-0.19h-0.19
	h-0.19h-0.19c0.042,0.465,0.084,0.935,0.127,1.407c0.042,0.473,0.084,0.948,0.127,1.423c0.042,0.475,0.084,0.95,0.127,1.423
	c0.042,0.473,0.084,0.943,0.127,1.407h-0.253h-0.253h-0.253h-0.253c0.042-0.465,0.084-0.935,0.125-1.407
	c0.041-0.473,0.08-0.948,0.117-1.423c0.037-0.475,0.072-0.95,0.102-1.423c0.03-0.473,0.057-0.943,0.078-1.407h-0.19h-0.19h-0.19
	H49.187z M49.356,40.587h0.317h0.317h0.317h0.317c0.021,0.211,0.042,0.422,0.062,0.634s0.038,0.422,0.054,0.634
	c0.016,0.211,0.029,0.422,0.038,0.634c0.009,0.211,0.014,0.422,0.014,0.634H50.37h-0.422h-0.422h-0.422
	c0.021-0.232,0.042-0.454,0.063-0.669s0.042-0.424,0.063-0.63c0.021-0.206,0.042-0.409,0.063-0.613S49.335,40.798,49.356,40.587
	L49.356,40.587L49.356,40.587L49.356,40.587L49.356,40.587z"/>
<path id="path12052" inkscape:connector-curvature="0" inkscape:export-filename="C:\Users\Charlotte Abel\Documents\Symbology\Round-2\transportation2.png" inkscape:export-xdpi="96" inkscape:export-ydpi="96" style="fill:#003366;" d="
	M29.079,23.267c-0.021,0-0.042,0.032-0.062,0.091s-0.038,0.146-0.054,0.257c-0.016,0.111-0.029,0.245-0.038,0.4
	c-0.009,0.155-0.014,0.329-0.014,0.519c0,0.169,0.005,0.333,0.014,0.483c0.009,0.15,0.022,0.288,0.038,0.404
	c0.016,0.116,0.034,0.211,0.054,0.277c0.02,0.066,0.041,0.103,0.062,0.103h5.471h5.471h5.471h5.471h0.211h0.211h0.211h0.211h0.613
	h0.613h0.613h0.613h4.182h4.182h4.182h4.182c0.021,0,0.042-0.032,0.062-0.091c0.02-0.059,0.038-0.146,0.054-0.257
	c0.016-0.111,0.029-0.246,0.039-0.4c0.009-0.155,0.015-0.329,0.015-0.519s-0.005-0.364-0.014-0.519
	c-0.009-0.155-0.022-0.289-0.038-0.4c-0.016-0.111-0.034-0.198-0.054-0.257s-0.041-0.091-0.062-0.091h-4.182h-4.182h-4.182h-4.182
	h-0.613h-0.613h-0.613h-0.613h-0.211h-0.211h-0.211h-0.211h-5.471H40.02H34.55H29.079z"/>
<path id="path12054" inkscape:connector-curvature="0" style="fill:#003366;" d="M47.006,26.615v0.898v0.898v0.898v0.898h1.15h1.15
	h1.15h1.15h0.421h0.421h0.421h0.421h0.196h0.196h0.196h0.196h0.533h0.533h0.533h0.533h0.449h0.449h0.449h0.449
	c0.421,0,0.828,0.091,1.201,0.256c0.373,0.165,0.714,0.403,1.001,0.698c0.287,0.295,0.522,0.645,0.686,1.035
	s0.255,0.817,0.255,1.266v1.571v1.571v1.571v1.571h0.365h0.365h0.365h0.365h0.337h0.337h0.337h0.337h0.393h0.393h0.393h0.393v-1.571
	v-1.571v-1.571v-1.571c0-0.449,0.084-0.877,0.239-1.266c0.154-0.389,0.379-0.74,0.659-1.035c0.281-0.295,0.617-0.533,0.996-0.698
	c0.379-0.165,0.8-0.256,1.249-0.256h0.561h0.561h0.561h0.561v-0.898v-0.898v-0.898v-0.898h-3.648h-3.648H59.97h-3.648h-0.533h-0.533
	h-0.533H54.19h-0.196h-0.196h-0.196h-0.196h-0.421h-0.421h-0.421h-0.421h-1.179h-1.179h-1.179H47.006z"/>
<path id="path12056" inkscape:connector-curvature="0" style="fill:#003366;" d="M52.955,26.615v0.898v0.898v0.898v0.898h-1.15
	h-1.15h-1.15h-1.15h-0.421h-0.421h-0.421H46.67h-0.196h-0.196H46.08h-0.196h-0.533h-0.533h-0.533h-0.533h-0.449h-0.449h-0.449
	h-0.449c-0.421,0-0.828,0.091-1.201,0.256c-0.374,0.165-0.714,0.403-1.002,0.698c-0.288,0.295-0.523,0.645-0.686,1.035
	s-0.254,0.817-0.254,1.266v1.571v1.571v1.571v1.571h-0.365h-0.365h-0.365h-0.365h-0.337H36.68h-0.337h-0.337h-0.365h-0.365h-0.365
	h-0.365v-1.571v-1.571v-1.571v-1.571c0-0.449-0.084-0.877-0.239-1.266s-0.379-0.74-0.659-1.035
	c-0.281-0.295-0.617-0.533-0.996-0.698c-0.379-0.165-0.8-0.256-1.249-0.256h-0.561h-0.561h-0.561H29.16v-0.898v-0.898v-0.898v-0.898
	h3.676h3.676h3.676h3.676h0.533h0.533h0.533h0.533h0.196h0.196h0.196h0.196h0.421h0.421h0.421h0.421h1.122h1.122h1.122H52.955z"/>
<path id="path12062" inkscape:connector-curvature="0" style="fill:#FFFFFF;" d="M49.948,33.321h0.021h0.021h0.021h0.021
	c0.042,0.465,0.084,0.935,0.127,1.407c0.042,0.473,0.084,0.948,0.127,1.423c0.042,0.475,0.084,0.95,0.127,1.423
	c0.042,0.473,0.084,0.943,0.127,1.407h-0.253h-0.253h-0.253h-0.253c0.021-0.465,0.048-0.929,0.078-1.395
	c0.03-0.466,0.065-0.933,0.102-1.403c0.037-0.47,0.076-0.943,0.117-1.42C49.863,34.288,49.905,33.807,49.948,33.321L49.948,33.321
	L49.948,33.321L49.948,33.321L49.948,33.321z"/>
<path id="path12064" inkscape:connector-curvature="0" style="fill:#FFFFFF;" d="M49.356,40.587h0.317h0.317h0.317h0.317
	c0.021,0.211,0.042,0.422,0.062,0.634s0.038,0.422,0.054,0.634c0.016,0.211,0.029,0.422,0.038,0.634
	c0.009,0.211,0.014,0.422,0.014,0.634H50.37h-0.422h-0.422h-0.422c0.021-0.232,0.042-0.454,0.063-0.669s0.042-0.424,0.063-0.63
	c0.021-0.206,0.042-0.409,0.063-0.613S49.335,40.798,49.356,40.587z"/>
<path id="path12066" inkscape:connector-curvature="0" style="fill:#FFFFFF;" d="M48.934,45.656h0.528h0.528h0.528h0.528
	c0.042,0.422,0.079,0.85,0.114,1.281c0.034,0.43,0.066,0.863,0.098,1.296c0.032,0.433,0.063,0.866,0.098,1.296
	c0.034,0.43,0.071,0.858,0.114,1.281h-0.739H49.99h-0.739h-0.739c0.042-0.422,0.079-0.85,0.114-1.281
	c0.034-0.43,0.066-0.863,0.098-1.296c0.032-0.433,0.063-0.866,0.098-1.296C48.854,46.507,48.891,46.079,48.934,45.656z"/>
<path id="path16253" style="fill:#003366;" d="M34.133,71.489V69.72v-1.769v-1.769v-1.769h0.293h0.293h0.293h0.293v0.696v0.696
	v0.696v0.696h0.57h0.57h0.57h0.57v-0.696v-0.696V65.11v-0.696h0.293h0.293h0.293h0.293v1.769v1.769v1.769v1.769h-0.293h-0.293H37.88
	h-0.293v-0.771v-0.771v-0.771v-0.771h-0.57h-0.57h-0.57h-0.57v0.771v0.771v0.771v0.771h-0.293H34.72h-0.293H34.133z"/>
<path id="path16255" style="fill:#003366;" d="M39.532,65.654v-0.31v-0.31v-0.31v-0.31h0.277h0.277h0.277h0.277v0.31v0.31v0.31v0.31
	h-0.277h-0.277h-0.277H39.532z M39.532,71.489v-1.283v-1.283v-1.283v-1.283h0.277h0.277h0.277h0.277v1.283v1.283v1.283v1.283h-0.277
	h-0.277h-0.277H39.532z"/>
<path id="path16257" style="fill:#003366;" d="M41.208,71.824l0.319,0.05l0.319,0.05l0.319,0.05l0.319,0.05
	c0.008,0.05,0.017,0.094,0.026,0.134c0.009,0.039,0.02,0.074,0.032,0.105c0.013,0.031,0.027,0.06,0.045,0.086
	s0.039,0.052,0.064,0.077c0.025,0.017,0.054,0.034,0.088,0.049c0.033,0.016,0.07,0.03,0.11,0.043c0.04,0.013,0.083,0.023,0.128,0.03
	c0.046,0.007,0.094,0.012,0.144,0.012c0.059,0,0.115-0.002,0.17-0.007c0.054-0.005,0.107-0.012,0.157-0.023
	c0.05-0.01,0.098-0.024,0.145-0.041c0.046-0.017,0.09-0.038,0.132-0.063c0.025-0.017,0.05-0.036,0.074-0.057
	c0.024-0.021,0.047-0.044,0.068-0.069s0.04-0.052,0.056-0.082c0.016-0.029,0.028-0.061,0.037-0.094
	c0.008-0.034,0.019-0.073,0.03-0.119c0.011-0.046,0.023-0.098,0.033-0.157c0.01-0.059,0.02-0.124,0.027-0.195
	s0.011-0.149,0.011-0.233v-0.184v-0.184v-0.184v-0.184c-0.042,0.067-0.086,0.13-0.131,0.189c-0.046,0.059-0.093,0.115-0.141,0.167
	c-0.048,0.052-0.098,0.102-0.147,0.148s-0.1,0.091-0.15,0.133c-0.05,0.034-0.103,0.063-0.157,0.088
	c-0.054,0.025-0.111,0.046-0.17,0.063c-0.059,0.017-0.119,0.029-0.182,0.038c-0.063,0.008-0.128,0.013-0.195,0.013
	c-0.117,0-0.231-0.013-0.339-0.038s-0.212-0.064-0.311-0.117c-0.098-0.052-0.192-0.118-0.279-0.199s-0.169-0.175-0.245-0.284
	c-0.092-0.117-0.172-0.247-0.239-0.389c-0.068-0.141-0.123-0.294-0.167-0.458c-0.044-0.163-0.077-0.337-0.098-0.521
	c-0.021-0.183-0.032-0.376-0.032-0.577c0-0.218,0.01-0.423,0.031-0.616c0.021-0.192,0.052-0.372,0.094-0.537
	c0.042-0.165,0.094-0.317,0.157-0.455c0.063-0.138,0.136-0.261,0.22-0.37s0.174-0.205,0.27-0.289
	c0.096-0.083,0.198-0.154,0.305-0.21c0.107-0.056,0.219-0.099,0.336-0.128c0.117-0.029,0.238-0.043,0.364-0.043
	c0.067,0,0.132,0.004,0.195,0.013c0.063,0.008,0.124,0.021,0.182,0.038c0.059,0.017,0.115,0.038,0.17,0.063s0.107,0.054,0.157,0.088
	c0.05,0.034,0.101,0.071,0.15,0.114c0.05,0.042,0.099,0.09,0.147,0.142c0.048,0.052,0.095,0.11,0.141,0.173
	c0.046,0.063,0.089,0.133,0.131,0.208v-0.176v-0.176v-0.176v-0.176h0.26h0.26h0.26h0.26v1.148v1.148v1.148v1.148
	c0,0.184-0.004,0.356-0.013,0.516c-0.008,0.159-0.021,0.306-0.038,0.44c-0.017,0.134-0.038,0.256-0.063,0.365
	c-0.025,0.109-0.054,0.205-0.088,0.289c-0.034,0.084-0.071,0.161-0.114,0.233c-0.042,0.072-0.09,0.138-0.142,0.198
	c-0.052,0.061-0.11,0.116-0.173,0.167c-0.063,0.051-0.133,0.097-0.208,0.139c-0.067,0.042-0.143,0.08-0.226,0.113
	c-0.083,0.033-0.175,0.061-0.273,0.084s-0.204,0.041-0.317,0.053c-0.113,0.012-0.232,0.018-0.358,0.018
	c-0.117,0-0.228-0.004-0.333-0.012c-0.105-0.008-0.203-0.019-0.295-0.034c-0.092-0.015-0.178-0.033-0.258-0.053
	c-0.08-0.02-0.153-0.044-0.22-0.069c-0.067-0.025-0.132-0.057-0.194-0.093c-0.062-0.037-0.121-0.079-0.175-0.125
	c-0.054-0.046-0.105-0.096-0.15-0.15c-0.045-0.053-0.085-0.11-0.118-0.169s-0.063-0.122-0.088-0.188
	c-0.025-0.066-0.046-0.135-0.063-0.206c-0.017-0.071-0.03-0.144-0.038-0.219c-0.009-0.074-0.013-0.15-0.013-0.225v-0.067v-0.067
	v-0.067V71.824L41.208,71.824L41.208,71.824L41.208,71.824L41.208,71.824z M42.214,68.806c0,0.134,0.006,0.26,0.018,0.377
	c0.012,0.117,0.03,0.226,0.053,0.327c0.023,0.101,0.051,0.193,0.084,0.277c0.033,0.084,0.071,0.159,0.113,0.226
	c0.042,0.059,0.088,0.111,0.137,0.157c0.049,0.046,0.102,0.084,0.156,0.116c0.054,0.031,0.111,0.055,0.169,0.072
	s0.116,0.025,0.175,0.025c0.067,0,0.132-0.008,0.194-0.025c0.062-0.016,0.122-0.04,0.179-0.072c0.056-0.032,0.11-0.07,0.16-0.116
	s0.096-0.098,0.138-0.157c0.05-0.067,0.092-0.14,0.127-0.221c0.035-0.08,0.062-0.167,0.083-0.262
	c0.021-0.094,0.036-0.196,0.045-0.305c0.009-0.109,0.014-0.227,0.014-0.353c0-0.134-0.006-0.26-0.018-0.377
	c-0.012-0.117-0.03-0.225-0.053-0.323c-0.023-0.098-0.051-0.187-0.084-0.267c-0.033-0.079-0.071-0.148-0.113-0.207
	c-0.042-0.067-0.088-0.124-0.138-0.171c-0.05-0.047-0.103-0.085-0.16-0.114c-0.057-0.029-0.116-0.05-0.179-0.064
	c-0.062-0.014-0.127-0.02-0.194-0.02c-0.067,0-0.13,0.008-0.19,0.025s-0.116,0.04-0.171,0.072c-0.054,0.031-0.107,0.07-0.158,0.116
	c-0.051,0.046-0.102,0.098-0.152,0.157c-0.034,0.05-0.065,0.113-0.093,0.187c-0.028,0.074-0.053,0.159-0.074,0.253
	c-0.021,0.094-0.038,0.198-0.049,0.31C42.22,68.561,42.214,68.681,42.214,68.806z"/>
<path id="path16259" style="fill:#003366;" d="M46.942,64.414v0.645v0.645v0.645v0.645c0.042-0.067,0.086-0.128,0.131-0.183
	c0.046-0.056,0.093-0.106,0.141-0.152c0.048-0.046,0.098-0.088,0.147-0.127c0.05-0.039,0.1-0.074,0.15-0.108
	c0.05-0.034,0.103-0.063,0.157-0.088c0.054-0.025,0.111-0.046,0.17-0.063c0.059-0.017,0.119-0.029,0.182-0.038
	c0.063-0.008,0.128-0.013,0.195-0.013c0.084,0,0.163,0.006,0.239,0.018c0.076,0.012,0.148,0.03,0.218,0.053
	c0.069,0.023,0.135,0.051,0.199,0.084c0.063,0.033,0.124,0.071,0.183,0.113c0.059,0.042,0.111,0.09,0.158,0.144
	c0.047,0.053,0.089,0.112,0.127,0.175s0.071,0.13,0.102,0.2c0.03,0.07,0.058,0.144,0.083,0.219c0.017,0.059,0.031,0.128,0.044,0.207
	c0.013,0.08,0.023,0.17,0.031,0.27c0.008,0.101,0.015,0.212,0.019,0.333c0.004,0.122,0.006,0.254,0.006,0.396v0.754v0.754v0.754
	v0.754h-0.277h-0.277h-0.277h-0.277v-0.679v-0.679v-0.679v-0.679c0-0.159-0.002-0.302-0.007-0.429
	c-0.005-0.127-0.012-0.238-0.022-0.334c-0.01-0.096-0.024-0.178-0.041-0.246c-0.017-0.068-0.038-0.123-0.063-0.165
	c-0.025-0.05-0.057-0.094-0.094-0.132s-0.08-0.069-0.128-0.094c-0.048-0.025-0.102-0.044-0.16-0.057
	c-0.058-0.013-0.121-0.019-0.188-0.019c-0.075,0-0.145,0.006-0.209,0.019c-0.064,0.013-0.123,0.033-0.177,0.06
	c-0.054,0.027-0.105,0.062-0.152,0.104c-0.047,0.042-0.091,0.093-0.133,0.151c-0.042,0.059-0.078,0.13-0.107,0.213
	c-0.03,0.083-0.054,0.179-0.073,0.285c-0.019,0.107-0.032,0.225-0.041,0.355c-0.009,0.129-0.013,0.27-0.013,0.421v0.637v0.637v0.637
	v0.637h-0.277h-0.277h-0.277h-0.277v-1.769v-1.769v-1.769v-1.769l0.285,0.017l0.285,0.017l0.285,0.017L46.942,64.414L46.942,64.414
	L46.942,64.414L46.942,64.414L46.942,64.414z"/>
<path id="path16261" style="fill:#003366;" d="M51.133,71.489l-0.335-1.283l-0.335-1.283l-0.335-1.283l-0.335-1.283h0.268h0.268
	h0.268h0.268l0.193,0.838l0.193,0.838l0.193,0.838l0.193,0.838l0.184-0.838l0.184-0.838l0.184-0.838l0.184-0.838h0.268h0.268h0.268
	h0.268l0.176,0.838l0.176,0.838l0.176,0.838l0.176,0.838l0.201-0.838l0.201-0.838l0.201-0.838l0.201-0.838h0.277h0.277h0.277h0.277
	l-0.335,1.283l-0.335,1.283l-0.335,1.283l-0.335,1.283h-0.268h-0.268h-0.268h-0.268l-0.184-0.822l-0.184-0.822l-0.184-0.822
	l-0.184-0.822l-0.176,0.822l-0.176,0.822l-0.176,0.822l-0.176,0.822h-0.268H51.67h-0.268H51.133L51.133,71.489L51.133,71.489
	L51.133,71.489L51.133,71.489z"/>
<path id="path16263" style="fill:#003366;" d="M57.035,67.935l-0.251-0.059l-0.251-0.059l-0.251-0.059L56.029,67.7
	c0.034-0.126,0.071-0.243,0.113-0.352c0.042-0.109,0.088-0.21,0.138-0.302c0.05-0.092,0.105-0.176,0.163-0.251
	c0.059-0.075,0.122-0.143,0.189-0.201c0.067-0.059,0.145-0.109,0.231-0.151c0.086-0.042,0.182-0.077,0.285-0.104
	c0.103-0.027,0.213-0.047,0.328-0.06c0.116-0.013,0.237-0.019,0.363-0.019c0.117,0,0.228,0.004,0.333,0.013s0.202,0.021,0.292,0.038
	c0.09,0.017,0.173,0.038,0.248,0.063c0.075,0.025,0.142,0.054,0.201,0.088c0.059,0.034,0.115,0.069,0.169,0.107
	c0.053,0.038,0.104,0.079,0.15,0.123c0.046,0.044,0.088,0.091,0.125,0.142s0.068,0.105,0.093,0.164s0.048,0.128,0.069,0.208
	s0.038,0.171,0.053,0.274c0.015,0.103,0.026,0.217,0.034,0.343c0.008,0.126,0.012,0.265,0.012,0.415v0.394v0.394v0.394v0.394
	c0,0.109,0.002,0.212,0.006,0.308c0.004,0.096,0.009,0.187,0.015,0.27c0.006,0.084,0.014,0.161,0.021,0.233
	c0.008,0.071,0.016,0.136,0.025,0.195c0.008,0.05,0.019,0.103,0.031,0.157s0.027,0.111,0.044,0.17s0.036,0.119,0.057,0.182
	c0.021,0.063,0.044,0.128,0.069,0.195h-0.277h-0.277h-0.277h-0.277l-0.034-0.143l-0.034-0.143l-0.034-0.143l-0.034-0.143
	c-0.05,0.059-0.101,0.113-0.151,0.163c-0.05,0.05-0.101,0.096-0.151,0.138s-0.101,0.08-0.151,0.113s-0.101,0.063-0.151,0.088
	c-0.05,0.025-0.103,0.048-0.157,0.069c-0.054,0.02-0.111,0.038-0.17,0.053c-0.059,0.015-0.119,0.026-0.182,0.034
	c-0.063,0.008-0.128,0.012-0.195,0.012c-0.101,0-0.197-0.008-0.289-0.025c-0.092-0.017-0.18-0.042-0.264-0.075
	s-0.163-0.075-0.239-0.126c-0.075-0.05-0.147-0.109-0.214-0.176s-0.126-0.14-0.176-0.22s-0.092-0.166-0.126-0.258
	c-0.034-0.092-0.059-0.191-0.075-0.295c-0.017-0.105-0.025-0.216-0.025-0.333c0-0.075,0.004-0.147,0.012-0.215
	c0.008-0.068,0.019-0.133,0.034-0.196c0.015-0.063,0.033-0.124,0.053-0.183s0.044-0.118,0.069-0.177
	c0.025-0.059,0.054-0.113,0.087-0.163c0.032-0.05,0.068-0.096,0.106-0.138c0.038-0.042,0.078-0.08,0.118-0.113
	c0.041-0.034,0.083-0.063,0.125-0.088c0.05-0.034,0.107-0.065,0.17-0.095c0.063-0.03,0.134-0.058,0.211-0.085
	c0.078-0.027,0.162-0.053,0.255-0.079c0.093-0.026,0.193-0.051,0.302-0.076c0.126-0.034,0.243-0.065,0.352-0.095
	c0.108-0.03,0.208-0.058,0.298-0.085c0.09-0.027,0.171-0.053,0.241-0.079s0.131-0.051,0.182-0.076c0-0.067-0.002-0.13-0.006-0.188
	c-0.004-0.058-0.009-0.112-0.015-0.16c-0.006-0.048-0.014-0.091-0.022-0.128s-0.016-0.069-0.024-0.094
	c-0.008-0.025-0.019-0.048-0.032-0.069c-0.013-0.021-0.029-0.04-0.048-0.057c-0.019-0.017-0.041-0.031-0.067-0.044
	c-0.026-0.013-0.055-0.023-0.088-0.031c-0.025-0.017-0.054-0.031-0.088-0.044c-0.033-0.013-0.07-0.023-0.11-0.031
	c-0.04-0.008-0.083-0.015-0.129-0.019c-0.046-0.004-0.094-0.006-0.144-0.006c-0.05,0-0.098,0.002-0.144,0.007
	c-0.046,0.005-0.088,0.012-0.128,0.022c-0.04,0.01-0.077,0.024-0.11,0.041c-0.033,0.017-0.062,0.038-0.087,0.063
	c-0.025,0.017-0.05,0.04-0.075,0.069c-0.025,0.029-0.049,0.065-0.072,0.107c-0.023,0.042-0.045,0.09-0.066,0.145
	C57.071,67.807,57.052,67.868,57.035,67.935L57.035,67.935L57.035,67.935L57.035,67.935L57.035,67.935z M58.51,69.008
	c-0.034,0.017-0.073,0.034-0.119,0.05c-0.046,0.017-0.097,0.034-0.153,0.05c-0.057,0.017-0.119,0.034-0.185,0.05
	c-0.067,0.017-0.138,0.034-0.213,0.05c-0.084,0.025-0.161,0.05-0.232,0.075c-0.071,0.025-0.135,0.05-0.191,0.075
	c-0.057,0.025-0.106,0.05-0.147,0.075c-0.041,0.025-0.075,0.05-0.1,0.075s-0.048,0.052-0.069,0.082
	c-0.02,0.03-0.038,0.062-0.053,0.098c-0.015,0.036-0.026,0.074-0.034,0.117c-0.008,0.042-0.012,0.088-0.012,0.139
	s0.004,0.098,0.012,0.145c0.008,0.046,0.019,0.09,0.034,0.132c0.015,0.042,0.032,0.082,0.053,0.119
	c0.02,0.038,0.044,0.073,0.069,0.107c0.034,0.034,0.067,0.063,0.101,0.088s0.069,0.046,0.104,0.063
	c0.036,0.017,0.072,0.029,0.111,0.038c0.038,0.008,0.078,0.013,0.12,0.013c0.042,0,0.082-0.004,0.121-0.012
	c0.039-0.008,0.076-0.019,0.114-0.034c0.038-0.015,0.075-0.032,0.114-0.053s0.079-0.044,0.121-0.069
	c0.042-0.025,0.08-0.052,0.113-0.081c0.034-0.029,0.063-0.059,0.088-0.09c0.025-0.032,0.046-0.064,0.063-0.097
	c0.017-0.033,0.029-0.067,0.038-0.1c0.017-0.034,0.031-0.075,0.044-0.126c0.013-0.05,0.023-0.109,0.031-0.176
	c0.008-0.067,0.015-0.143,0.019-0.226c0.004-0.084,0.006-0.176,0.006-0.277l0.008-0.075l0.008-0.075l0.008-0.075L58.51,69.008
	L58.51,69.008L58.51,69.008L58.51,69.008L58.51,69.008z"/>
<path id="path16265" style="fill:#003366;" d="M59.751,66.359h0.293h0.293h0.293h0.293l0.251,0.905l0.251,0.905l0.251,0.905
	l0.251,0.905l0.243-0.905l0.243-0.905l0.243-0.905l0.243-0.905h0.285h0.285h0.285h0.285l-0.369,1.232l-0.369,1.232l-0.369,1.232
	l-0.369,1.232L62.5,71.531l-0.067,0.243l-0.067,0.243l-0.067,0.243c-0.034,0.092-0.065,0.178-0.095,0.258s-0.06,0.153-0.089,0.22
	c-0.029,0.067-0.059,0.128-0.089,0.182s-0.062,0.103-0.095,0.145s-0.067,0.082-0.102,0.119c-0.035,0.037-0.07,0.072-0.108,0.103
	c-0.038,0.032-0.078,0.06-0.121,0.084c-0.043,0.025-0.089,0.046-0.139,0.062c-0.05,0.025-0.103,0.046-0.157,0.063
	c-0.054,0.017-0.111,0.031-0.17,0.041c-0.059,0.01-0.119,0.018-0.182,0.022c-0.063,0.005-0.128,0.007-0.195,0.007
	c-0.05,0-0.103-0.002-0.156-0.006s-0.108-0.009-0.162-0.015c-0.054-0.006-0.109-0.014-0.162-0.022
	c-0.053-0.008-0.106-0.016-0.156-0.024l-0.025-0.268l-0.025-0.268l-0.025-0.268l-0.025-0.268c0.042,0.008,0.084,0.017,0.125,0.025
	c0.041,0.008,0.082,0.015,0.122,0.021c0.04,0.006,0.079,0.012,0.116,0.015c0.037,0.004,0.073,0.006,0.106,0.006
	c0.05,0,0.098-0.004,0.145-0.013c0.047-0.008,0.092-0.021,0.136-0.038c0.044-0.017,0.087-0.038,0.129-0.063
	c0.042-0.025,0.084-0.054,0.126-0.088c0.034-0.034,0.065-0.075,0.095-0.125s0.058-0.107,0.086-0.172
	c0.027-0.065,0.053-0.137,0.079-0.216c0.026-0.079,0.051-0.165,0.076-0.257l-0.402-1.291l-0.402-1.291l-0.402-1.291L59.751,66.359
	L59.751,66.359L59.751,66.359L59.751,66.359L59.751,66.359z"/>
<path id="path16267" style="fill:#003366;" d="M63.741,71.589l0.36-1.827l0.36-1.827l0.36-1.827l0.36-1.827h0.21h0.21h0.21h0.21
	l-0.36,1.827l-0.36,1.827l-0.36,1.827l-0.36,1.827h-0.21h-0.21h-0.21H63.741z"/>
<path id="path16269" style="fill:#003366;" d="M33.898,81.347v-1.769v-1.769v-1.769v-1.769h0.612h0.612h0.612h0.612
	c0.159,0,0.306,0.004,0.441,0.013c0.135,0.008,0.257,0.021,0.368,0.038c0.111,0.017,0.211,0.038,0.299,0.063
	c0.089,0.025,0.166,0.054,0.233,0.088s0.132,0.071,0.194,0.114c0.062,0.043,0.122,0.091,0.179,0.146
	c0.057,0.054,0.11,0.115,0.16,0.183c0.05,0.068,0.096,0.144,0.138,0.227c0.042,0.075,0.08,0.155,0.113,0.239
	c0.033,0.084,0.061,0.172,0.084,0.264c0.023,0.092,0.041,0.189,0.053,0.289s0.018,0.205,0.018,0.314
	c0,0.134-0.008,0.264-0.025,0.389c-0.017,0.125-0.042,0.244-0.075,0.357s-0.075,0.22-0.126,0.32c-0.05,0.1-0.109,0.192-0.176,0.276
	c-0.067,0.084-0.14,0.159-0.221,0.227c-0.08,0.068-0.167,0.127-0.262,0.18s-0.196,0.098-0.305,0.136
	c-0.109,0.038-0.227,0.07-0.352,0.095c0.059,0.042,0.117,0.086,0.175,0.132c0.058,0.046,0.114,0.094,0.169,0.145
	c0.054,0.05,0.107,0.103,0.156,0.157c0.049,0.054,0.095,0.111,0.137,0.17c0.042,0.05,0.088,0.113,0.138,0.188
	c0.05,0.074,0.103,0.16,0.16,0.257s0.116,0.203,0.179,0.32c0.062,0.116,0.127,0.242,0.195,0.376l0.176,0.344l0.176,0.344
	l0.176,0.344l0.176,0.344h-0.352h-0.352h-0.352h-0.352l-0.21-0.386l-0.21-0.386l-0.21-0.386l-0.21-0.386
	c-0.075-0.143-0.145-0.27-0.208-0.384c-0.063-0.114-0.121-0.213-0.173-0.299c-0.052-0.086-0.099-0.158-0.142-0.217
	c-0.042-0.059-0.08-0.105-0.114-0.139c-0.025-0.034-0.052-0.065-0.081-0.094c-0.028-0.029-0.058-0.057-0.087-0.082
	s-0.059-0.048-0.087-0.069c-0.028-0.021-0.056-0.04-0.081-0.057c-0.034-0.017-0.069-0.029-0.108-0.039
	c-0.039-0.009-0.082-0.016-0.13-0.02c-0.048-0.004-0.102-0.006-0.162-0.007c-0.06-0.001-0.127-0.001-0.203-0.001h-0.059h-0.059
	h-0.059h-0.059v0.738v0.738v0.738v0.738h-0.285h-0.285l-0.285,0L33.898,81.347L33.898,81.347L33.898,81.347L33.898,81.347
	L33.898,81.347z M35.072,77.256h0.218h0.218h0.218h0.218c0.134,0,0.256-0.002,0.365-0.006s0.205-0.009,0.289-0.015
	c0.084-0.006,0.155-0.014,0.214-0.021c0.059-0.008,0.105-0.016,0.138-0.024c0.034-0.008,0.067-0.021,0.1-0.037
	s0.064-0.036,0.093-0.059c0.029-0.023,0.057-0.049,0.081-0.078s0.045-0.06,0.062-0.094c0.017-0.034,0.034-0.071,0.049-0.113
	s0.03-0.087,0.043-0.135c0.013-0.048,0.023-0.099,0.03-0.153c0.007-0.054,0.012-0.111,0.012-0.169c0-0.059-0.002-0.113-0.007-0.164
	c-0.005-0.051-0.012-0.098-0.023-0.142c-0.011-0.044-0.024-0.085-0.041-0.123c-0.017-0.038-0.038-0.074-0.063-0.108
	c-0.025-0.034-0.05-0.065-0.076-0.094c-0.026-0.029-0.053-0.055-0.083-0.078c-0.029-0.023-0.061-0.043-0.095-0.059
	s-0.072-0.029-0.114-0.037c-0.025-0.008-0.065-0.017-0.118-0.025c-0.053-0.008-0.121-0.015-0.2-0.021
	c-0.08-0.006-0.172-0.011-0.276-0.015s-0.219-0.006-0.345-0.006h-0.226h-0.226h-0.226h-0.226v0.444v0.444c0,0,0,0.222,0,0.444
	S35.072,77.256,35.072,77.256z"/>
<path id="path16271" style="fill:#003366;" d="M39.029,78.732c0-0.126,0.006-0.249,0.019-0.37c0.013-0.121,0.031-0.239,0.057-0.355
	c0.025-0.115,0.057-0.228,0.094-0.336c0.038-0.108,0.082-0.213,0.132-0.314s0.105-0.195,0.163-0.283
	c0.058-0.089,0.12-0.171,0.185-0.249c0.065-0.078,0.133-0.15,0.204-0.218c0.071-0.068,0.144-0.13,0.22-0.189
	c0.084-0.05,0.168-0.094,0.253-0.132c0.085-0.038,0.171-0.069,0.259-0.094c0.088-0.025,0.178-0.044,0.271-0.057
	c0.093-0.013,0.19-0.019,0.29-0.019c0.168,0,0.327,0.017,0.477,0.05s0.292,0.084,0.424,0.151c0.132,0.067,0.255,0.151,0.367,0.251
	c0.113,0.101,0.215,0.218,0.307,0.352c0.092,0.134,0.174,0.272,0.245,0.415c0.071,0.143,0.13,0.291,0.179,0.444
	c0.048,0.153,0.085,0.311,0.11,0.475c0.025,0.164,0.037,0.334,0.037,0.51c0,0.134-0.006,0.264-0.019,0.39s-0.031,0.249-0.057,0.368
	c-0.025,0.119-0.057,0.236-0.094,0.349s-0.082,0.225-0.132,0.334c-0.05,0.109-0.105,0.21-0.163,0.303
	c-0.059,0.093-0.122,0.179-0.189,0.259c-0.067,0.08-0.138,0.153-0.214,0.221c-0.075,0.068-0.155,0.131-0.239,0.19
	c-0.084,0.05-0.168,0.094-0.253,0.132c-0.085,0.038-0.171,0.069-0.259,0.094c-0.088,0.025-0.178,0.044-0.271,0.057
	c-0.093,0.013-0.19,0.019-0.29,0.019c-0.159,0-0.31-0.015-0.453-0.044c-0.143-0.029-0.278-0.073-0.406-0.132
	c-0.128-0.059-0.248-0.132-0.362-0.22s-0.221-0.191-0.321-0.308c-0.092-0.126-0.174-0.262-0.245-0.409s-0.13-0.305-0.179-0.475
	c-0.048-0.17-0.085-0.351-0.109-0.544C39.041,79.155,39.029,78.95,39.029,78.732L39.029,78.732L39.029,78.732L39.029,78.732
	L39.029,78.732z M40.169,78.799c0,0.126,0.006,0.245,0.019,0.358s0.031,0.219,0.057,0.317c0.025,0.099,0.057,0.19,0.094,0.273
	c0.038,0.083,0.082,0.159,0.132,0.226c0.05,0.067,0.103,0.126,0.158,0.176c0.055,0.05,0.113,0.092,0.174,0.126
	s0.125,0.059,0.192,0.075c0.068,0.017,0.139,0.025,0.214,0.025c0.067,0,0.132-0.008,0.195-0.025
	c0.063-0.017,0.124-0.042,0.182-0.075s0.115-0.075,0.17-0.126c0.054-0.05,0.107-0.109,0.157-0.176s0.094-0.143,0.132-0.226
	c0.038-0.083,0.069-0.174,0.094-0.273c0.025-0.098,0.044-0.204,0.057-0.317c0.013-0.113,0.019-0.232,0.019-0.358
	c0-0.126-0.006-0.245-0.019-0.358c-0.013-0.113-0.031-0.218-0.057-0.317c-0.025-0.098-0.057-0.19-0.094-0.273
	c-0.038-0.083-0.082-0.159-0.132-0.226c-0.05-0.067-0.103-0.126-0.158-0.176c-0.055-0.05-0.113-0.092-0.174-0.126
	c-0.061-0.034-0.125-0.059-0.192-0.075c-0.068-0.017-0.139-0.025-0.214-0.025c-0.067,0-0.134,0.008-0.2,0.025
	c-0.066,0.017-0.131,0.042-0.194,0.075c-0.063,0.034-0.124,0.075-0.181,0.126c-0.058,0.05-0.112,0.109-0.162,0.176
	c-0.042,0.067-0.08,0.14-0.113,0.221c-0.033,0.081-0.061,0.169-0.084,0.265c-0.023,0.096-0.041,0.201-0.053,0.315
	C40.175,78.541,40.169,78.665,40.169,78.799z"/>
<path id="path16273" style="fill:#003366;" d="M44.628,77.793l-0.251-0.059l-0.251-0.059l-0.251-0.059l-0.251-0.059
	c0.034-0.126,0.071-0.243,0.113-0.352c0.042-0.109,0.088-0.21,0.138-0.302c0.05-0.092,0.105-0.176,0.163-0.251
	c0.059-0.075,0.122-0.143,0.189-0.201c0.067-0.059,0.145-0.109,0.231-0.151c0.086-0.042,0.182-0.077,0.285-0.104
	c0.103-0.027,0.213-0.047,0.328-0.06c0.116-0.013,0.237-0.02,0.363-0.02c0.117,0,0.228,0.004,0.333,0.013
	c0.104,0.008,0.202,0.021,0.292,0.038c0.09,0.017,0.173,0.038,0.248,0.063c0.075,0.025,0.142,0.054,0.2,0.088
	c0.059,0.034,0.115,0.069,0.169,0.107s0.104,0.079,0.15,0.123c0.046,0.044,0.088,0.091,0.125,0.142s0.068,0.105,0.093,0.164
	c0.025,0.059,0.048,0.128,0.069,0.208c0.02,0.08,0.038,0.171,0.053,0.274c0.015,0.103,0.026,0.217,0.034,0.343
	s0.012,0.264,0.012,0.415v0.394v0.394v0.394v0.394c0,0.109,0.002,0.212,0.006,0.308c0.004,0.096,0.009,0.187,0.015,0.27
	c0.006,0.084,0.014,0.161,0.022,0.233c0.008,0.071,0.016,0.136,0.024,0.195c0.008,0.05,0.019,0.103,0.031,0.157
	c0.013,0.054,0.027,0.111,0.044,0.17c0.017,0.059,0.036,0.119,0.057,0.182s0.044,0.128,0.069,0.195h-0.277h-0.277h-0.277h-0.277
	l-0.034-0.143l-0.034-0.143l-0.034-0.143l-0.034-0.143c-0.05,0.059-0.101,0.113-0.151,0.163c-0.05,0.05-0.101,0.096-0.151,0.138
	c-0.05,0.042-0.101,0.08-0.151,0.113c-0.05,0.034-0.101,0.063-0.151,0.088c-0.05,0.025-0.103,0.048-0.157,0.069
	s-0.111,0.038-0.17,0.053c-0.059,0.015-0.119,0.026-0.182,0.034c-0.063,0.008-0.128,0.012-0.195,0.012
	c-0.101,0-0.197-0.008-0.289-0.025c-0.092-0.017-0.18-0.042-0.264-0.075c-0.084-0.034-0.163-0.075-0.239-0.126
	c-0.075-0.05-0.147-0.109-0.214-0.176s-0.126-0.14-0.176-0.22s-0.092-0.166-0.126-0.258s-0.059-0.191-0.075-0.295
	c-0.017-0.105-0.025-0.216-0.025-0.333c0-0.075,0.004-0.147,0.012-0.215c0.008-0.068,0.019-0.133,0.034-0.196
	c0.015-0.063,0.032-0.124,0.053-0.183c0.02-0.06,0.044-0.118,0.069-0.177c0.025-0.05,0.054-0.101,0.087-0.149
	c0.032-0.049,0.068-0.096,0.106-0.14c0.038-0.044,0.078-0.085,0.118-0.121c0.041-0.036,0.083-0.068,0.125-0.093
	c0.05-0.034,0.107-0.065,0.17-0.095c0.063-0.03,0.134-0.058,0.211-0.085c0.078-0.027,0.162-0.054,0.255-0.079
	s0.193-0.051,0.302-0.076c0.126-0.034,0.243-0.065,0.352-0.095c0.108-0.03,0.208-0.058,0.298-0.085
	c0.09-0.027,0.171-0.053,0.241-0.079c0.071-0.026,0.131-0.051,0.182-0.076c0-0.067-0.002-0.13-0.006-0.188
	c-0.004-0.058-0.009-0.112-0.015-0.16c-0.006-0.048-0.013-0.091-0.021-0.128c-0.008-0.037-0.016-0.069-0.025-0.094
	c-0.008-0.025-0.019-0.048-0.032-0.069c-0.013-0.021-0.029-0.04-0.048-0.057c-0.019-0.017-0.041-0.031-0.067-0.044
	c-0.026-0.013-0.055-0.023-0.088-0.031c-0.025-0.017-0.054-0.031-0.088-0.044s-0.07-0.023-0.11-0.031
	c-0.04-0.008-0.083-0.015-0.128-0.019c-0.046-0.004-0.094-0.006-0.144-0.006s-0.098,0.002-0.144,0.007
	c-0.046,0.005-0.089,0.012-0.129,0.023c-0.04,0.01-0.076,0.024-0.109,0.041s-0.062,0.038-0.087,0.063
	c-0.025,0.025-0.05,0.054-0.075,0.088s-0.049,0.071-0.072,0.113c-0.023,0.042-0.044,0.088-0.065,0.138
	C44.664,77.68,44.645,77.734,44.628,77.793L44.628,77.793L44.628,77.793L44.628,77.793L44.628,77.793z M46.104,78.899
	c-0.034,0.017-0.073,0.034-0.119,0.05c-0.046,0.017-0.097,0.034-0.153,0.05c-0.057,0.017-0.119,0.034-0.185,0.05
	c-0.067,0.017-0.138,0.034-0.213,0.05c-0.084,0.025-0.161,0.05-0.232,0.075c-0.071,0.025-0.135,0.05-0.191,0.075
	c-0.057,0.025-0.106,0.05-0.147,0.075c-0.041,0.025-0.075,0.05-0.1,0.075c-0.025,0.025-0.048,0.052-0.069,0.082
	c-0.02,0.03-0.038,0.062-0.053,0.098s-0.026,0.074-0.034,0.117s-0.012,0.088-0.012,0.139c0,0.05,0.004,0.098,0.012,0.145
	c0.008,0.046,0.019,0.09,0.034,0.132s0.032,0.082,0.053,0.119s0.044,0.073,0.069,0.107c0.034,0.034,0.067,0.063,0.101,0.088
	c0.034,0.025,0.069,0.046,0.104,0.063c0.036,0.017,0.072,0.029,0.111,0.038s0.078,0.013,0.12,0.013c0.042,0,0.082-0.004,0.121-0.012
	c0.039-0.008,0.076-0.019,0.114-0.034c0.038-0.015,0.075-0.033,0.114-0.053s0.079-0.044,0.121-0.069
	c0.042-0.025,0.08-0.052,0.113-0.081c0.034-0.029,0.063-0.059,0.088-0.09c0.025-0.032,0.046-0.064,0.063-0.097
	c0.017-0.033,0.029-0.067,0.038-0.1c0.017-0.034,0.031-0.075,0.044-0.126c0.013-0.05,0.023-0.109,0.031-0.176
	c0.008-0.067,0.015-0.143,0.019-0.226c0.004-0.084,0.006-0.176,0.006-0.277v-0.075V79.05v-0.075v-0.075h0.008h0.008h0.008
	L46.104,78.899L46.104,78.899L46.104,78.899z"/>
<path id="path16275" style="fill:#003366;" d="M51.737,81.347h-0.26h-0.26h-0.26h-0.26v-0.184v-0.184v-0.184v-0.184
	c-0.042,0.075-0.086,0.145-0.132,0.208c-0.046,0.063-0.094,0.121-0.145,0.174c-0.05,0.052-0.103,0.099-0.157,0.142
	c-0.054,0.042-0.111,0.08-0.17,0.114c-0.059,0.034-0.117,0.063-0.176,0.088s-0.117,0.046-0.176,0.063
	c-0.059,0.017-0.117,0.029-0.176,0.038c-0.059,0.008-0.117,0.013-0.176,0.013c-0.117,0-0.231-0.015-0.34-0.044
	c-0.109-0.029-0.215-0.073-0.318-0.132c-0.103-0.059-0.202-0.132-0.299-0.22s-0.191-0.191-0.284-0.308
	c-0.084-0.117-0.159-0.247-0.225-0.39c-0.066-0.143-0.123-0.298-0.169-0.465s-0.082-0.348-0.106-0.541
	c-0.024-0.193-0.037-0.398-0.037-0.616c0-0.218,0.01-0.423,0.031-0.616c0.021-0.192,0.052-0.371,0.094-0.537
	c0.042-0.165,0.094-0.317,0.157-0.455c0.063-0.138,0.136-0.261,0.22-0.37s0.174-0.205,0.27-0.289
	c0.096-0.083,0.198-0.154,0.305-0.21c0.107-0.057,0.219-0.099,0.336-0.128s0.238-0.043,0.364-0.043c0.059,0,0.117,0.004,0.175,0.012
	c0.058,0.008,0.116,0.019,0.172,0.034c0.057,0.015,0.112,0.033,0.166,0.053c0.054,0.02,0.106,0.044,0.157,0.069
	c0.05,0.034,0.101,0.069,0.15,0.107c0.05,0.038,0.099,0.079,0.147,0.123c0.048,0.044,0.095,0.091,0.141,0.142
	s0.089,0.105,0.131,0.164V76.15v-0.637v-0.637v-0.637h0.277h0.277h0.277h0.277c0,0,0,0.444,0,1.111c0,0.666,0,1.555,0,2.444
	c0,0.889,0,1.777,0,2.444C51.737,80.903,51.737,81.347,51.737,81.347z M48.753,78.665c0,0.117,0.002,0.226,0.006,0.327
	s0.01,0.194,0.019,0.28c0.008,0.086,0.019,0.165,0.031,0.236c0.013,0.072,0.027,0.137,0.044,0.195
	c0.017,0.059,0.038,0.113,0.062,0.163c0.024,0.05,0.051,0.096,0.081,0.138c0.029,0.042,0.061,0.08,0.093,0.113
	c0.032,0.034,0.066,0.063,0.1,0.088c0.034,0.025,0.069,0.048,0.107,0.069c0.038,0.02,0.078,0.038,0.119,0.053
	c0.042,0.015,0.086,0.026,0.132,0.034c0.046,0.008,0.094,0.012,0.145,0.012c0.059,0,0.117-0.008,0.175-0.025
	c0.058-0.017,0.114-0.042,0.169-0.075c0.054-0.034,0.107-0.075,0.156-0.126c0.049-0.05,0.095-0.109,0.137-0.176
	c0.042-0.067,0.08-0.143,0.113-0.226s0.061-0.174,0.084-0.273c0.023-0.098,0.041-0.204,0.053-0.317
	c0.012-0.113,0.018-0.232,0.018-0.358c0-0.151-0.006-0.289-0.018-0.416c-0.012-0.127-0.03-0.242-0.053-0.347
	c-0.023-0.105-0.051-0.199-0.084-0.284s-0.071-0.16-0.113-0.227c-0.042-0.067-0.088-0.126-0.138-0.176
	c-0.05-0.05-0.103-0.092-0.16-0.126c-0.057-0.034-0.116-0.059-0.179-0.075c-0.062-0.017-0.127-0.025-0.194-0.025
	c-0.067,0-0.13,0.008-0.19,0.025c-0.06,0.016-0.116,0.04-0.171,0.072c-0.054,0.032-0.107,0.07-0.158,0.116s-0.102,0.098-0.152,0.157
	c-0.034,0.075-0.065,0.155-0.093,0.24c-0.028,0.085-0.053,0.175-0.074,0.271c-0.021,0.096-0.038,0.199-0.049,0.309
	C48.759,78.421,48.753,78.539,48.753,78.665L48.753,78.665L48.753,78.665L48.753,78.665L48.753,78.665z"/>
<path id="path16277" style="fill:#003366;" d="M53.179,81.347l-0.335-1.283l-0.335-1.283l-0.335-1.283l-0.335-1.283h0.268h0.268
	h0.268h0.268l0.193,0.838l0.193,0.838l0.193,0.838l0.193,0.838l0.184-0.838l0.184-0.838l0.184-0.838l0.184-0.838h0.268h0.268h0.268
	h0.268l0.176,0.838l0.176,0.838l0.176,0.838l0.176,0.838l0.201-0.838l0.201-0.838l0.201-0.838l0.201-0.838h0.277h0.277h0.277h0.277
	l-0.335,1.283l-0.335,1.283l-0.335,1.283l-0.335,1.283h-0.268H56.23h-0.268h-0.268l-0.184-0.822l-0.184-0.822l-0.184-0.822
	l-0.184-0.822l-0.176,0.822l-0.176,0.822l-0.176,0.822l-0.176,0.822h-0.268h-0.268h-0.268H53.179L53.179,81.347L53.179,81.347
	L53.179,81.347L53.179,81.347z"/>
<path id="path16279" style="fill:#003366;" d="M59.08,77.793l-0.251-0.059l-0.251-0.059l-0.251-0.059l-0.251-0.059
	c0.034-0.126,0.071-0.243,0.113-0.352c0.042-0.109,0.088-0.21,0.138-0.302c0.05-0.092,0.105-0.176,0.163-0.251
	c0.059-0.075,0.122-0.143,0.189-0.201c0.067-0.059,0.145-0.109,0.231-0.151c0.086-0.042,0.182-0.077,0.284-0.104
	c0.103-0.027,0.213-0.047,0.328-0.06s0.237-0.02,0.363-0.02c0.117,0,0.228,0.004,0.333,0.013c0.104,0.008,0.202,0.021,0.292,0.038
	c0.09,0.017,0.173,0.038,0.248,0.063c0.075,0.025,0.142,0.054,0.2,0.088c0.059,0.034,0.115,0.069,0.169,0.107
	s0.104,0.079,0.15,0.123c0.046,0.044,0.088,0.091,0.125,0.142s0.068,0.105,0.093,0.164c0.025,0.059,0.048,0.128,0.069,0.208
	c0.02,0.08,0.038,0.171,0.053,0.274s0.026,0.217,0.034,0.343s0.012,0.264,0.012,0.415v0.394v0.394v0.394v0.394
	c0,0.109,0.002,0.212,0.006,0.308c0.004,0.096,0.009,0.187,0.015,0.27c0.006,0.084,0.014,0.161,0.022,0.233
	c0.008,0.071,0.016,0.136,0.024,0.195c0.008,0.05,0.019,0.103,0.031,0.157c0.013,0.054,0.027,0.111,0.044,0.17
	s0.036,0.119,0.057,0.182c0.021,0.063,0.044,0.128,0.069,0.195h-0.277h-0.277H61.1h-0.277l-0.034-0.143l-0.034-0.143l-0.034-0.143
	l-0.034-0.143c-0.05,0.059-0.101,0.113-0.151,0.163c-0.05,0.05-0.101,0.096-0.151,0.138c-0.05,0.042-0.101,0.08-0.151,0.113
	s-0.101,0.063-0.151,0.088c-0.05,0.025-0.103,0.048-0.157,0.069c-0.054,0.02-0.111,0.038-0.17,0.053
	c-0.059,0.015-0.119,0.026-0.182,0.034s-0.128,0.012-0.195,0.012c-0.101,0-0.197-0.008-0.289-0.025s-0.18-0.042-0.264-0.075
	c-0.084-0.034-0.163-0.075-0.239-0.126c-0.075-0.05-0.147-0.109-0.214-0.176s-0.126-0.14-0.176-0.22s-0.092-0.166-0.126-0.258
	c-0.034-0.092-0.059-0.191-0.075-0.295c-0.017-0.105-0.025-0.216-0.025-0.333c0-0.075,0.004-0.147,0.012-0.215
	c0.008-0.068,0.019-0.133,0.034-0.196c0.015-0.063,0.032-0.124,0.053-0.183c0.02-0.06,0.044-0.118,0.069-0.177
	c0.025-0.05,0.054-0.101,0.087-0.149c0.032-0.049,0.068-0.096,0.106-0.14c0.038-0.044,0.078-0.085,0.118-0.121
	c0.041-0.036,0.083-0.068,0.125-0.093c0.05-0.034,0.107-0.065,0.17-0.095s0.134-0.058,0.211-0.085
	c0.077-0.027,0.162-0.054,0.255-0.079s0.193-0.051,0.303-0.076c0.126-0.034,0.243-0.065,0.352-0.095
	c0.108-0.03,0.208-0.058,0.298-0.085c0.09-0.027,0.171-0.053,0.241-0.079s0.131-0.051,0.182-0.076c0-0.067-0.002-0.13-0.006-0.188
	s-0.009-0.112-0.015-0.16c-0.006-0.048-0.013-0.091-0.021-0.128c-0.008-0.037-0.016-0.069-0.025-0.094
	c-0.008-0.025-0.019-0.048-0.032-0.069s-0.029-0.04-0.048-0.057c-0.019-0.017-0.041-0.031-0.066-0.044s-0.055-0.023-0.089-0.031
	c-0.025-0.017-0.054-0.031-0.087-0.044c-0.033-0.013-0.07-0.023-0.109-0.031c-0.04-0.008-0.083-0.015-0.128-0.019
	c-0.046-0.004-0.094-0.006-0.144-0.006c-0.05,0-0.098,0.002-0.144,0.007c-0.046,0.005-0.088,0.012-0.128,0.023
	c-0.04,0.01-0.076,0.024-0.109,0.041c-0.033,0.017-0.062,0.038-0.087,0.063c-0.025,0.025-0.05,0.054-0.075,0.088
	c-0.025,0.034-0.049,0.071-0.072,0.113c-0.023,0.042-0.045,0.088-0.066,0.138C59.116,77.68,59.097,77.734,59.08,77.793L59.08,77.793
	L59.08,77.793L59.08,77.793L59.08,77.793z M60.556,78.899c-0.034,0.017-0.073,0.034-0.119,0.05c-0.046,0.017-0.097,0.034-0.153,0.05
	s-0.118,0.034-0.185,0.05c-0.067,0.017-0.138,0.034-0.213,0.05c-0.084,0.025-0.161,0.05-0.232,0.075
	c-0.071,0.025-0.135,0.05-0.191,0.075c-0.056,0.025-0.106,0.05-0.147,0.075c-0.041,0.025-0.075,0.05-0.1,0.075
	c-0.025,0.025-0.048,0.052-0.069,0.082c-0.02,0.03-0.038,0.062-0.053,0.098c-0.015,0.036-0.026,0.074-0.034,0.117
	c-0.008,0.042-0.012,0.089-0.012,0.139c0,0.05,0.004,0.098,0.012,0.145c0.008,0.046,0.019,0.09,0.034,0.132
	c0.015,0.042,0.032,0.082,0.053,0.119s0.044,0.073,0.069,0.107c0.034,0.034,0.067,0.063,0.101,0.088s0.069,0.046,0.104,0.063
	c0.036,0.017,0.072,0.029,0.111,0.038s0.078,0.013,0.12,0.013c0.042,0,0.082-0.004,0.121-0.012c0.039-0.008,0.076-0.019,0.114-0.034
	c0.038-0.015,0.075-0.033,0.114-0.053s0.079-0.044,0.121-0.069c0.042-0.025,0.08-0.052,0.113-0.081
	c0.034-0.029,0.063-0.059,0.088-0.09s0.046-0.064,0.063-0.097s0.029-0.067,0.038-0.1c0.017-0.034,0.031-0.075,0.044-0.126
	c0.013-0.05,0.023-0.109,0.031-0.176c0.008-0.067,0.015-0.143,0.019-0.226c0.004-0.084,0.006-0.176,0.006-0.277l0.008-0.075
	l0.008-0.075l0.008-0.075L60.556,78.899L60.556,78.899L60.556,78.899L60.556,78.899L60.556,78.899z"/>
<path id="path16281" style="fill:#003366;" d="M61.763,76.217h0.293h0.293h0.293h0.293l0.251,0.905l0.251,0.905l0.251,0.905
	l0.251,0.905l0.243-0.905l0.243-0.905l0.243-0.905l0.243-0.905H65.2h0.285h0.285h0.285l-0.369,1.232l-0.369,1.232l-0.369,1.232
	l-0.369,1.232l-0.067,0.243l-0.067,0.243l-0.067,0.243l-0.067,0.243c-0.034,0.092-0.065,0.178-0.095,0.258s-0.06,0.153-0.089,0.22
	c-0.029,0.067-0.059,0.128-0.089,0.182s-0.062,0.103-0.095,0.145c-0.034,0.042-0.067,0.082-0.102,0.119
	c-0.035,0.037-0.07,0.072-0.108,0.103s-0.078,0.06-0.121,0.084c-0.043,0.025-0.089,0.045-0.139,0.062
	c-0.05,0.025-0.103,0.046-0.157,0.063c-0.054,0.017-0.111,0.031-0.17,0.041s-0.119,0.018-0.182,0.023
	c-0.063,0.005-0.128,0.007-0.195,0.007c-0.05,0-0.103-0.002-0.156-0.006s-0.108-0.009-0.162-0.015
	c-0.054-0.006-0.109-0.014-0.162-0.021c-0.053-0.008-0.106-0.016-0.156-0.025l-0.025-0.268l-0.025-0.268l-0.025-0.268l-0.025-0.268
	c0.042,0.008,0.084,0.017,0.125,0.025s0.082,0.015,0.122,0.022c0.04,0.006,0.079,0.012,0.116,0.015s0.073,0.006,0.106,0.006
	c0.05,0,0.098-0.004,0.145-0.013c0.047-0.008,0.092-0.021,0.136-0.038c0.044-0.017,0.087-0.038,0.129-0.063
	c0.042-0.025,0.084-0.054,0.126-0.088c0.034-0.034,0.065-0.075,0.095-0.125s0.058-0.107,0.085-0.172
	c0.027-0.065,0.053-0.137,0.079-0.217s0.051-0.165,0.076-0.257L62.97,80.09l-0.402-1.291l-0.402-1.291L61.763,76.217L61.763,76.217
	L61.763,76.217L61.763,76.217L61.763,76.217z"/>
<g id="g8112" inkscape:groupmode="layer" inkscape:label="transportation_highway-roadway" style="display:none;">
	
		<path id="path8100" inkscape:connector-curvature="0" inkscape:export-filename="C:\Users\Charlotte Abel\Documents\Symbology\Components\For Distribution\transportation-icon_highway-roadway-gray.png" inkscape:export-xdpi="300" inkscape:export-ydpi="300" style="display:inline;fill:#003366;" d="
		M49.2,44.5l-4.45,4.375L40.3,53.25l-4.45,4.375L31.4,62h4.275h4.275h4.275H48.5c0.025-0.425,0.056-0.85,0.091-1.275
		c0.034-0.425,0.072-0.85,0.109-1.275s0.075-0.85,0.109-1.275c0.034-0.425,0.066-0.85,0.091-1.275h0.525h0.525h0.525H51
		c0.025,0.425,0.056,0.85,0.091,1.275c0.034,0.425,0.072,0.85,0.109,1.275s0.075,0.85,0.109,1.275
		c0.034,0.425,0.066,0.85,0.091,1.275h4.275h4.275h4.275H68.5l-4.425-4.375L59.65,53.25l-4.425-4.375L50.8,44.5h-0.2h-0.2h-0.2H50
		c0.05,0.475,0.094,0.95,0.134,1.425c0.041,0.475,0.078,0.95,0.116,1.425c0.037,0.475,0.075,0.95,0.116,1.425
		c0.041,0.475,0.084,0.95,0.134,1.425h-0.275H49.95h-0.275H49.4c0.05-0.475,0.094-0.95,0.134-1.425
		c0.041-0.475,0.078-0.95,0.116-1.425s0.075-0.95,0.116-1.425c0.041-0.475,0.084-0.95,0.134-1.425h-0.175H49.55h-0.175H49.2z
		 M49.3,51.7h0.325h0.325h0.325H50.6c0.025,0.2,0.044,0.406,0.059,0.616c0.016,0.209,0.028,0.422,0.041,0.634
		c0.013,0.213,0.025,0.425,0.041,0.634C50.756,53.794,50.775,54,50.8,54.2h-0.425H49.95h-0.425H49.1c0.025-0.2,0.05-0.4,0.073-0.602
		c0.024-0.202,0.046-0.405,0.065-0.611c0.019-0.206,0.034-0.415,0.045-0.629C49.294,52.144,49.3,51.925,49.3,51.7z"/>
	
		<path id="path8102" inkscape:connector-curvature="0" inkscape:export-filename="C:\Users\Charlotte Abel\Documents\Symbology\Components\For Distribution\transportation-icon_highway-roadway-gray.png" inkscape:export-xdpi="300" inkscape:export-ydpi="300" style="display:inline;fill:#003366;" d="
		M29.1,34.5c-0.025,0-0.05,0.031-0.073,0.089c-0.024,0.058-0.046,0.142-0.065,0.249c-0.018,0.106-0.034,0.234-0.045,0.379
		C28.906,35.362,28.9,35.525,28.9,35.7s0.006,0.338,0.017,0.483c0.011,0.145,0.026,0.273,0.045,0.379
		c0.019,0.107,0.041,0.191,0.065,0.249C29.05,36.869,29.075,36.9,29.1,36.9h5.475h5.475h5.475H51h0.2h0.2h0.2h0.2h0.625h0.625h0.625
		H54.3h4.175h4.175h4.175H71c0.025,0,0.05-0.031,0.073-0.089c0.023-0.058,0.045-0.142,0.064-0.249
		c0.019-0.106,0.035-0.234,0.046-0.379c0.011-0.145,0.017-0.308,0.017-0.483s-0.006-0.337-0.017-0.483
		c-0.011-0.145-0.026-0.273-0.045-0.379c-0.019-0.106-0.041-0.191-0.064-0.249C71.05,34.531,71.025,34.5,71,34.5h-4.2h-4.2h-4.2
		h-4.2h-0.625H52.95h-0.625H51.7h-0.2h-0.2h-0.2h-0.2h-5.45H40h-5.45H29.1z"/>
	
		<g id="g8108" transform="matrix(1.1224197,0,0,1.1224197,-1.8188842,3.6304375)" inkscape:export-filename="C:\Users\Charlotte Abel\Documents\Symbology\Components\For Distribution\transportation-icon_highway-roadway-gray.png" inkscape:export-xdpi="300" inkscape:export-ydpi="300" style="display:inline;">
		<path id="path8104" inkscape:connector-curvature="0" style="fill:#003366;" d="M43.5,30.5v0.8v0.8v0.8v0.8h1.025h1.025h1.025
			H47.6h0.375h0.375h0.375H49.1h0.175h0.175h0.175H49.8h0.475h0.475h0.475H51.7h0.4h0.4h0.4h0.4c0.375,0,0.738,0.081,1.07,0.228
			c0.333,0.147,0.636,0.359,0.893,0.622c0.256,0.263,0.465,0.575,0.611,0.922C56.019,35.819,56.1,36.2,56.1,36.6V38v1.4v1.4v1.4
			h0.325h0.325h0.325H57.4h0.3H58h0.3h0.3h0.35h0.35h0.35H60v-1.4v-1.4V38v-1.4c0-0.4,0.075-0.781,0.212-1.128
			c0.138-0.347,0.338-0.659,0.588-0.922c0.25-0.263,0.55-0.475,0.888-0.622C62.025,33.781,62.4,33.7,62.8,33.7h0.5h0.5h0.5h0.5v-0.8
			v-0.8v-0.8v-0.8h-3.25H58.3h-3.25H51.8h-0.475H50.85h-0.475H49.9h-0.175H49.55h-0.175H49.2h-0.375H48.45h-0.375H47.7h-1.05H45.6
			c0,0-0.525,0-1.05,0C44.025,30.5,43.5,30.5,43.5,30.5z"/>
		<path id="path8106" inkscape:connector-curvature="0" style="fill:#003366;" d="M48.8,30.5v0.8v0.8v0.8v0.8h-1.025H46.75h-1.025
			H44.7h-0.375H43.95h-0.375H43.2h-0.175H42.85h-0.175H42.5h-0.475H41.55h-0.475H40.6h-0.4h-0.4h-0.4H39
			c-0.375,0-0.737,0.081-1.07,0.228c-0.333,0.147-0.636,0.359-0.892,0.622c-0.256,0.262-0.465,0.575-0.611,0.922
			C36.281,35.819,36.2,36.2,36.2,36.6V38v1.4v1.4v1.4h-0.325H35.55h-0.325H34.9h-0.3h-0.3H34h-0.3h-0.325H33.05h-0.325H32.4v-1.4
			v-1.4V38v-1.4c0-0.4-0.075-0.781-0.213-1.128c-0.137-0.347-0.337-0.659-0.587-0.922c-0.25-0.263-0.55-0.475-0.888-0.622
			S30,33.7,29.6,33.7h-0.5h-0.5h-0.5h-0.5v-0.8v-0.8v-0.8v-0.8h3.275h3.275h3.275H40.7h0.475h0.475h0.475H42.6h0.175h0.175h0.175
			H43.3h0.375h0.375h0.375H44.8h1h1c0,0,0.5,0,1,0S48.8,30.5,48.8,30.5z"/>
	</g>
	
		<path id="path11530" inkscape:connector-curvature="0" inkscape:export-filename="C:\Users\Charlotte Abel\Documents\Symbology\Components\For Distribution\transportation-icon_highway-roadway-gray.png" inkscape:export-xdpi="300" inkscape:export-ydpi="300" style="display:inline;fill:#FFFFFF;" d="
		M49.9,44.5h0.025h0.025h0.025H50c0.05,0.475,0.094,0.95,0.134,1.425c0.041,0.475,0.078,0.95,0.116,1.425
		c0.037,0.475,0.075,0.95,0.116,1.425c0.041,0.475,0.084,0.95,0.134,1.425h-0.275H49.95h-0.275H49.4
		c0.05-0.475,0.1-0.95,0.148-1.425c0.048-0.475,0.095-0.95,0.139-1.425c0.044-0.475,0.085-0.95,0.121-1.425
		C49.844,45.45,49.875,44.975,49.9,44.5L49.9,44.5L49.9,44.5L49.9,44.5L49.9,44.5z"/>
	
		<path id="path11528" inkscape:connector-curvature="0" inkscape:export-filename="C:\Users\Charlotte Abel\Documents\Symbology\Components\For Distribution\transportation-icon_highway-roadway-gray.png" inkscape:export-xdpi="300" inkscape:export-ydpi="300" style="display:inline;fill:#FFFFFF;" d="
		M49.3,51.7h0.325h0.325h0.325H50.6c0.025,0.2,0.044,0.406,0.059,0.616c0.016,0.209,0.028,0.422,0.041,0.634
		c0.013,0.213,0.025,0.425,0.041,0.634C50.756,53.794,50.775,54,50.8,54.2h-0.425H49.95h-0.425H49.1c0.025-0.2,0.05-0.4,0.073-0.602
		c0.024-0.202,0.046-0.405,0.065-0.611c0.019-0.206,0.034-0.415,0.045-0.629C49.294,52.144,49.3,51.925,49.3,51.7z"/>
	
		<path id="path11521" inkscape:connector-curvature="0" inkscape:export-filename="C:\Users\Charlotte Abel\Documents\Symbology\Components\For Distribution\transportation-icon_highway-roadway-gray.png" inkscape:export-xdpi="300" inkscape:export-ydpi="300" style="display:inline;fill:#FFFFFF;" d="
		M48.9,56.8h0.525h0.525h0.525H51c0.025,0.425,0.056,0.85,0.091,1.275c0.034,0.425,0.072,0.85,0.109,1.275s0.075,0.85,0.109,1.275
		c0.034,0.425,0.066,0.85,0.091,1.275h-0.75H49.9h-0.75H48.4c0.075-0.4,0.138-0.806,0.191-1.219
		c0.053-0.412,0.097-0.831,0.134-1.256c0.037-0.425,0.069-0.856,0.097-1.294C48.85,57.694,48.875,57.25,48.9,56.8z"/>
</g>
</svg>
