<?xml version="1.0" encoding="iso-8859-1"?>
<!-- Generator: Adobe Illustrator 25.4.1, SVG Export Plug-In . SVG Version: 6.00 Build 0)  -->
<svg version="1.1"
	 id="svg8" xmlns:cc="http://creativecommons.org/ns#" xmlns:dc="http://purl.org/dc/elements/1.1/" xmlns:inkscape="http://www.inkscape.org/namespaces/inkscape" xmlns:rdf="http://www.w3.org/1999/02/22-rdf-syntax-ns#" xmlns:sodipodi="http://sodipodi.sourceforge.net/DTD/sodipodi-0.dtd" xmlns:svg="http://www.w3.org/2000/svg"
	 xmlns="http://www.w3.org/2000/svg" xmlns:xlink="http://www.w3.org/1999/xlink" x="0px" y="0px" viewBox="0 0 100 100"
	 style="enable-background:new 0 0 100 100;" xml:space="preserve">
<sodipodi:namedview  bordercolor="#666666" borderopacity="1.0" id="base" inkscape:current-layer="layer3" inkscape:cx="-150" inkscape:cy="148.61928" inkscape:document-units="px" inkscape:guide-bbox="true" inkscape:lockguides="false" inkscape:pageopacity="0.0" inkscape:pageshadow="2" inkscape:window-height="657" inkscape:window-maximized="1" inkscape:window-width="1280" inkscape:window-x="-8" inkscape:window-y="-8" inkscape:zoom="1" pagecolor="#ffffff" showgrid="false" showguides="true" units="px">
	<sodipodi:guide  id="guide5700" inkscape:locked="false" orientation="0,1" position="-0.93017576,23.874511"></sodipodi:guide>
	<sodipodi:guide  id="guide5726" inkscape:locked="false" orientation="0,1" position="-26.098869,26.473047"></sodipodi:guide>
	<sodipodi:guide  id="guide5880" inkscape:locked="false" orientation="0,1" position="104.51042,-2.9104167"></sodipodi:guide>
	<sodipodi:guide  id="guide6001" inkscape:locked="false" orientation="0,1" position="-44.807735,29.092289"></sodipodi:guide>
	<sodipodi:guide  id="guide6005" inkscape:locked="false" orientation="0,1" position="-46.304445,58.278122"></sodipodi:guide>
	<sodipodi:guide  id="guide6736" inkscape:locked="false" orientation="0,1" position="-0.10335287,20.205485"></sodipodi:guide>
	<sodipodi:guide  id="guide6738" inkscape:locked="false" orientation="0,1" position="-0.43848907,22.874513"></sodipodi:guide>
	<inkscape:grid  id="grid2386" type="xygrid"></inkscape:grid>
</sodipodi:namedview>
<g id="g1180_1_" transform="translate(0,-229.2666)" inkscape:groupmode="layer" inkscape:label="halo:always" style="display:none;">
	<g id="g1210_1_" inkscape:groupmode="layer" inkscape:label="-gray-halo:iter3" style="display:inline;">
		<g id="circle1208_1_">
			<path style="fill:#919395;" d="M50,329.3c-27.6,0-50-22.4-50-50s22.4-50,50-50s50,22.4,50,50S77.6,329.3,50,329.3z M50,237.9
				c-22.8,0-41.4,18.6-41.4,41.4s18.6,41.4,41.4,41.4s41.4-18.6,41.4-41.4S72.8,237.9,50,237.9z"/>
		</g>
	</g>
	<g id="g1206_1_" inkscape:groupmode="layer" inkscape:label="-red-halo:iter3" style="display:inline;">
		<g id="circle1204_1_">
			<path style="fill:#C52038;" d="M50,329.3c-27.6,0-50-22.4-50-50s22.4-50,50-50s50,22.4,50,50S77.6,329.3,50,329.3z M50,237.9
				c-22.8,0-41.4,18.6-41.4,41.4s18.6,41.4,41.4,41.4s41.4-18.6,41.4-41.4S72.8,237.9,50,237.9z"/>
		</g>
	</g>
	<g id="g1202_1_" inkscape:groupmode="layer" inkscape:label="-green-halo:iter3" style="display:inline;">
		<g id="circle1200_1_">
			<path style="fill:#5E9C42;" d="M50,329.3c-27.6,0-50-22.4-50-50s22.4-50,50-50s50,22.4,50,50S77.6,329.3,50,329.3z M50,237.9
				c-22.8,0-41.4,18.6-41.4,41.4s18.6,41.4,41.4,41.4s41.4-18.6,41.4-41.4S72.8,237.9,50,237.9z"/>
		</g>
	</g>
	<g id="layer18_1_" inkscape:groupmode="layer" inkscape:label="-yellow-halo:iter3" style="display:inline;">
		<g id="circle1178-4_1_">
			<path style="fill:#FBBA16;" d="M50,329.3c-27.6,0-50-22.4-50-50s22.4-50,50-50s50,22.4,50,50S77.6,329.3,50,329.3z M50,237.9
				c-22.8,0-41.4,18.6-41.4,41.4s18.6,41.4,41.4,41.4s41.4-18.6,41.4-41.4S72.8,237.9,50,237.9z"/>
		</g>
	</g>
</g>
<path id="path1845" inkscape:connector-curvature="0" inkscape:export-filename="C:\Users\Charlotte Abel\Documents\Symbology\Round-2\transportation2.png" inkscape:export-xdpi="96" inkscape:export-ydpi="96" style="fill:#003366;" d="
	M48.703,52.372l-5.592,5.508l-5.592,5.508l-5.592,5.508l-5.592,5.508h5.397h5.397h5.397h5.397c0.056-0.556,0.104-1.106,0.15-1.65
	c0.045-0.544,0.087-1.083,0.129-1.619c0.042-0.535,0.083-1.067,0.129-1.597c0.045-0.53,0.094-1.059,0.15-1.587h0.668h0.668h0.668
	h0.668c0.056,0.556,0.104,1.106,0.15,1.65c0.045,0.544,0.087,1.083,0.129,1.619c0.042,0.535,0.083,1.067,0.129,1.597
	c0.045,0.53,0.094,1.059,0.15,1.587h5.369h5.369h5.369h5.369l-5.592-5.508l-5.592-5.508l-5.592-5.508l-5.592-5.508h-0.25h-0.25
	h-0.25h-0.25c0.056,0.584,0.111,1.175,0.165,1.77c0.054,0.595,0.106,1.193,0.155,1.791c0.049,0.598,0.094,1.196,0.134,1.791
	c0.04,0.595,0.074,1.186,0.102,1.77h-0.334h-0.334h-0.334h-0.334c0.056-0.584,0.104-1.175,0.15-1.77
	c0.045-0.595,0.087-1.193,0.129-1.791c0.042-0.598,0.083-1.196,0.129-1.791c0.045-0.595,0.094-1.186,0.15-1.77h-0.223h-0.223h-0.223
	H48.703z M48.926,61.497h0.417h0.417h0.417h0.417c0.028,0.278,0.056,0.549,0.082,0.816c0.026,0.266,0.051,0.527,0.072,0.785
	c0.021,0.257,0.038,0.511,0.05,0.763s0.019,0.502,0.019,0.753h-0.556h-0.556h-0.556h-0.556c0.028-0.25,0.056-0.501,0.083-0.753
	s0.056-0.506,0.083-0.763c0.028-0.258,0.056-0.519,0.083-0.785S48.898,61.775,48.926,61.497L48.926,61.497L48.926,61.497
	L48.926,61.497L48.926,61.497z"/>
<path id="path1847" inkscape:connector-curvature="0" inkscape:export-filename="C:\Users\Charlotte Abel\Documents\Symbology\Round-2\transportation2.png" inkscape:export-xdpi="96" inkscape:export-ydpi="96" style="fill-rule:evenodd;clip-rule:evenodd;fill:#003366;" d="
	M63.081,22.649c-0.212,0-0.432,0.009-0.662,0.029c-0.229,0.02-0.467,0.05-0.714,0.094s-0.503,0.101-0.767,0.174
	c-0.265,0.073-0.538,0.162-0.82,0.267c-0.988,0.353-2.62,0.935-4.512,1.61c-1.892,0.675-4.044,1.442-6.073,2.165
	c-2.029,0.723-3.934,1.402-5.332,1.901s-2.289,0.816-2.289,0.816l-1.129-0.635l-1.129-0.635l-1.129-0.635l-1.129-0.635l-1.164,0.388
	l-1.164,0.388l-1.164,0.388l-1.164,0.388l1.058,1.164l1.058,1.164l1.058,1.164l1.058,1.164c0,0,0.194,0.203,0.606,0.47
	s1.043,0.597,1.917,0.853c0.873,0.256,1.988,0.437,3.371,0.404c1.382-0.033,3.032-0.28,4.972-0.88c0,0,0.688-0.265,1.773-0.681
	c1.085-0.417,2.567-0.985,4.154-1.594s3.281-1.256,4.789-1.832c1.508-0.575,2.831-1.078,3.678-1.396
	c1.058-0.388,1.905-0.811,2.573-1.246c0.668-0.434,1.157-0.88,1.501-1.311c0.344-0.433,0.543-0.853,0.629-1.234
	c0.086-0.382,0.06-0.726-0.046-1.008c-0.106-0.141-0.273-0.291-0.496-0.437c-0.223-0.146-0.501-0.287-0.828-0.41
	c-0.326-0.123-0.701-0.229-1.117-0.304C64.034,22.694,63.575,22.649,63.081,22.649z"/>
<path id="path1849" inkscape:connector-curvature="0" inkscape:export-filename="C:\Users\Charlotte Abel\Documents\Symbology\Round-2\transportation2.png" inkscape:export-xdpi="96" inkscape:export-ydpi="96" style="fill-rule:evenodd;clip-rule:evenodd;fill:#003366;" d="
	M42.477,20.674l-0.953,0.353l-0.953,0.353l-0.953,0.353l-0.953,0.353l1.482,1.164l1.482,1.164l1.482,1.164l1.482,1.164l1.835-0.67
	l1.835-0.67l1.835-0.67l1.835-0.67l-2.364-0.847l-2.364-0.847l-2.364-0.847L42.477,20.674z"/>
<path id="path1853" inkscape:connector-curvature="0" inkscape:export-filename="C:\Users\Charlotte Abel\Documents\Symbology\Round-2\transportation2.png" inkscape:export-xdpi="96" inkscape:export-ydpi="96" style="fill:#003366;" d="
	M23.333,39.687c-0.028,0-0.056,0.042-0.082,0.118c-0.026,0.077-0.051,0.188-0.072,0.327c-0.021,0.139-0.038,0.306-0.05,0.494
	c-0.012,0.188-0.019,0.396-0.019,0.619c0,0.223,0.007,0.431,0.019,0.619c0.012,0.188,0.029,0.355,0.05,0.494
	c0.021,0.139,0.045,0.25,0.071,0.327s0.054,0.118,0.082,0.118h6.871h6.871h6.871h6.871h0.25h0.25h0.25h0.25h0.779h0.779h0.779h0.779
	h5.258h5.258h5.258h5.258c0.028,0,0.056-0.042,0.082-0.118c0.026-0.077,0.05-0.188,0.071-0.327c0.021-0.139,0.038-0.306,0.05-0.494
	c0.012-0.188,0.019-0.396,0.019-0.619c0-0.223,0-0.431-0.002-0.619s-0.005-0.355-0.012-0.494c-0.007-0.139-0.017-0.25-0.033-0.327
	s-0.036-0.118-0.064-0.118H70.82h-5.258h-5.258h-5.258h-0.779h-0.779h-0.779H51.93h-0.25h-0.25h-0.25h-0.25H44.03h-6.899h-6.899
	H23.333z"/>
<path id="path1855" inkscape:connector-curvature="0" style="fill:#003366;" d="M45.959,43.967V45.1v1.133v1.133v1.133h1.457h1.457
	h1.457h1.457h0.54h0.54h0.54h0.54h0.243h0.243h0.243h0.243h0.674h0.674h0.674h0.674h0.593H58.8h0.593h0.593
	c0.54,0,1.052,0.115,1.517,0.32c0.465,0.206,0.883,0.502,1.234,0.867c0.351,0.364,0.634,0.796,0.83,1.271
	c0.196,0.475,0.303,0.995,0.303,1.534v1.969v1.969v1.969v1.969h0.486h0.486h0.486h0.486h0.405h0.405h0.405h0.405h0.486h0.486h0.486
	h0.486v-1.969V56.43v-1.969v-1.969c0-0.567,0.108-1.099,0.303-1.58s0.479-0.909,0.83-1.266c0.351-0.358,0.769-0.644,1.234-0.842
	s0.978-0.305,1.517-0.305h0.728h0.728h0.728h0.728v-1.133v-1.133V45.1v-1.133h-4.64h-4.64h-4.64h-4.64h-0.674h-0.674H55.59h-0.674
	h-0.243H54.43h-0.243h-0.243h-0.54h-0.54h-0.54h-0.54h-1.457h-1.457c0,0-0.728,0-1.457,0C46.688,43.967,45.959,43.967,45.959,43.967
	z"/>
<path id="path1857" inkscape:connector-curvature="0" style="fill:#003366;" d="M53.405,43.967V45.1v1.133v1.133v1.133h-1.457
	h-1.457h-1.457h-1.457h-0.54h-0.54h-0.54h-0.54h-0.243h-0.243h-0.243h-0.243h-0.674H43.1h-0.674h-0.674h-0.567h-0.567h-0.567h-0.567
	c-0.54,0-1.052,0.115-1.517,0.32s-0.883,0.502-1.234,0.867c-0.351,0.364-0.634,0.796-0.83,1.271
	c-0.196,0.475-0.303,0.995-0.303,1.534v1.969v1.969v1.969v1.969h-0.486h-0.486h-0.486h-0.486h-0.405h-0.405h-0.405h-0.405h-0.486
	h-0.486h-0.486h-0.486v-1.969V56.43v-1.969v-1.969c0-0.567-0.108-1.099-0.303-1.58s-0.479-0.909-0.83-1.266
	c-0.351-0.358-0.769-0.644-1.234-0.842s-0.978-0.305-1.517-0.305h-0.728h-0.728h-0.728h-0.728v-1.133v-1.133V45.1v-1.133h4.64h4.64
	h4.64h4.64h0.674h0.674h0.674h0.674h0.243h0.243h0.243h0.243h0.54h0.54h0.54h0.54h1.43h1.43c0,0,0.715,0,1.43,0
	S53.405,43.967,53.405,43.967z"/>
</svg>
