<?xml version="1.0" encoding="iso-8859-1"?>
<!-- Generator: Adobe Illustrator 25.4.1, SVG Export Plug-In . SVG Version: 6.00 Build 0)  -->
<svg version="1.1"
	 id="svg8" inkscape:export-filename="C:\Users\Charlotte Abel\Documents\Symbology\Components\For Distribution\communications_alerts-warnings-messages.png" inkscape:export-xdpi="300.00464" inkscape:export-ydpi="300.00464" inkscape:version="0.91 r13725" sodipodi:docname="transportation_aviation-with-label-clr_256x256.svg" xmlns:cc="http://creativecommons.org/ns#" xmlns:dc="http://purl.org/dc/elements/1.1/" xmlns:inkscape="http://www.inkscape.org/namespaces/inkscape" xmlns:rdf="http://www.w3.org/1999/02/22-rdf-syntax-ns#" xmlns:sodipodi="http://sodipodi.sourceforge.net/DTD/sodipodi-0.dtd" xmlns:svg="http://www.w3.org/2000/svg"
	 xmlns="http://www.w3.org/2000/svg" xmlns:xlink="http://www.w3.org/1999/xlink" x="0px" y="0px" viewBox="0 0 100 100"
	 style="enable-background:new 0 0 100 100;" xml:space="preserve">
<sodipodi:namedview  bordercolor="#666666" borderopacity="1.0" id="base" inkscape:current-layer="g12350" inkscape:cx="-302.11164" inkscape:cy="84.283015" inkscape:document-units="px" inkscape:guide-bbox="true" inkscape:lockguides="true" inkscape:pageopacity="0.0" inkscape:pageshadow="2" inkscape:window-height="657" inkscape:window-maximized="1" inkscape:window-width="1280" inkscape:window-x="-8" inkscape:window-y="-8" inkscape:zoom="0.765625" pagecolor="#ffffff" showgrid="false" showguides="false" units="px">
	<sodipodi:guide  id="guide5700" inkscape:locked="true" orientation="0,1" position="-0.93017576,23.874511"></sodipodi:guide>
	<sodipodi:guide  id="guide5726" inkscape:locked="true" orientation="0,1" position="-26.098869,26.473047"></sodipodi:guide>
	<sodipodi:guide  id="guide5880" inkscape:locked="true" orientation="0,1" position="104.51042,-2.9104167"></sodipodi:guide>
	<sodipodi:guide  id="guide6001" inkscape:locked="true" orientation="0,1" position="-71.093695,29.279377"></sodipodi:guide>
	<sodipodi:guide  id="guide6005" inkscape:locked="true" orientation="0,1" position="-46.304445,58.278122"></sodipodi:guide>
	<sodipodi:guide  id="guide6736" inkscape:locked="true" orientation="0,1" position="-0.10335287,20.205485"></sodipodi:guide>
	<sodipodi:guide  id="guide6738" inkscape:locked="true" orientation="0,1" position="-0.43848907,22.874513"></sodipodi:guide>
	<inkscape:grid  id="grid2386" type="xygrid"></inkscape:grid>
</sodipodi:namedview>
<g id="g1180" transform="translate(0,-229.2666)" inkscape:groupmode="layer" inkscape:label="halo:always" style="display:none;">
	<g id="g1210" inkscape:groupmode="layer" inkscape:label="-gray-halo:iter3" style="display:inline;">
		<g id="circle1208">
			<path style="fill:#919395;" d="M50,329.3c-27.6,0-50-22.4-50-50s22.4-50,50-50s50,22.4,50,50S77.6,329.3,50,329.3z M50,237.9
				c-22.8,0-41.4,18.6-41.4,41.4s18.6,41.4,41.4,41.4s41.4-18.6,41.4-41.4S72.8,237.9,50,237.9z"/>
		</g>
	</g>
	<g id="g1206" inkscape:groupmode="layer" inkscape:label="-red-halo:iter3" style="display:inline;">
		<g id="circle1204">
			<path style="fill:#C52038;" d="M50,329.3c-27.6,0-50-22.4-50-50s22.4-50,50-50s50,22.4,50,50S77.6,329.3,50,329.3z M50,237.9
				c-22.8,0-41.4,18.6-41.4,41.4s18.6,41.4,41.4,41.4s41.4-18.6,41.4-41.4S72.8,237.9,50,237.9z"/>
		</g>
	</g>
	<g id="g1202" inkscape:groupmode="layer" inkscape:label="-green-halo:iter3" style="display:inline;">
		<g id="circle1200">
			<path style="fill:#5E9C42;" d="M50,329.3c-27.6,0-50-22.4-50-50s22.4-50,50-50s50,22.4,50,50S77.6,329.3,50,329.3z M50,237.9
				c-22.8,0-41.4,18.6-41.4,41.4s18.6,41.4,41.4,41.4s41.4-18.6,41.4-41.4S72.8,237.9,50,237.9z"/>
		</g>
	</g>
	<g id="layer18" inkscape:groupmode="layer" inkscape:label="-yellow-halo:iter3" style="display:inline;">
		<g id="circle1178-4">
			<path style="fill:#FBBA16;" d="M50,329.3c-27.6,0-50-22.4-50-50s22.4-50,50-50s50,22.4,50,50S77.6,329.3,50,329.3z M50,237.9
				c-22.8,0-41.4,18.6-41.4,41.4s18.6,41.4,41.4,41.4s41.4-18.6,41.4-41.4S72.8,237.9,50,237.9z"/>
		</g>
	</g>
</g>
<path id="path12336" inkscape:connector-curvature="0" inkscape:export-filename="C:\Users\Charlotte Abel\Documents\Symbology\Components\For Distribution\transportation-icon_aviation-with-label.png" inkscape:export-xdpi="300" inkscape:export-ydpi="300" style="fill-rule:evenodd;clip-rule:evenodd;fill:#003366;" d="
	M34.9,38.5l2.825-1.4l2.825-1.4l2.825-1.4l2.825-1.4L43.1,30L40,27.1l-3.1-2.9l-3.1-2.9l0.9-0.45l0.9-0.45l0.9-0.45l0.9-0.45
	l4.925,2l4.925,2l4.925,2l4.925,2l2.25-1.1l2.25-1.1l2.25-1.1l2.25-1.1c0.6-0.3,1.3-0.487,2.028-0.569
	c0.728-0.081,1.484-0.056,2.197,0.069c0.713,0.125,1.381,0.35,1.934,0.669C72.812,23.587,73.25,24,73.5,24.5
	c0.05,0.075,0.088,0.156,0.117,0.242c0.03,0.086,0.052,0.177,0.071,0.271c0.018,0.094,0.034,0.19,0.051,0.289
	C73.756,25.4,73.775,25.5,73.8,25.6c0.025,0.5-0.069,1.044-0.253,1.594c-0.184,0.55-0.459,1.106-0.797,1.631
	s-0.738,1.019-1.172,1.444c-0.434,0.425-0.903,0.781-1.378,1.031l-2.25,1.1l-2.25,1.1l-2.25,1.1l-2.25,1.1l-1.375,5.125L58.45,45.95
	l-1.375,5.125L55.7,56.2l-0.925,0.45L53.85,57.1l-0.925,0.45L52,58l-0.425-4.225L51.15,49.55l-0.425-4.225L50.3,41.1l-2.825,1.4
	l-2.825,1.4l-2.825,1.4L39,46.7l-0.525,1.525L37.95,49.75l-0.525,1.525L36.9,52.8l-0.625,0.3l-0.625,0.3l-0.625,0.3L34.4,54
	l-0.35-2.35L33.7,49.3l-0.35-2.35L33,44.6l-1.675-1.7l-1.675-1.7l-1.675-1.7L26.3,37.8l0.625-0.3l0.625-0.3l0.625-0.3l0.625-0.3
	l1.525,0.475l1.525,0.475l1.525,0.475L34.9,38.5z"/>
<path id="path15554" style="fill:#003366;" d="M40.105,80.292h-0.38h-0.38h-0.38h-0.38l-0.148-0.486l-0.148-0.486l-0.148-0.486
	l-0.148-0.486h-0.697h-0.697h-0.697h-0.697l-0.148,0.486l-0.148,0.486l-0.148,0.486l-0.148,0.486h-0.38h-0.38h-0.38h-0.38
	l0.676-2.133l0.676-2.133l0.676-2.133l0.676-2.133h0.38h0.38h0.38h0.38l0.697,2.133l0.697,2.133l0.697,2.133L40.105,80.292z
	 M37.486,76.913l-0.232-0.782l-0.232-0.782l-0.232-0.782l-0.232-0.782l-0.232,0.782l-0.232,0.782l-0.232,0.782l-0.232,0.782h0.465
	h0.465h0.465H37.486z"/>
<path id="path15556" style="fill:#003366;" d="M41.372,80.292l-0.507-1.542l-0.507-1.542l-0.507-1.542l-0.507-1.542h0.359h0.359
	h0.359h0.359l0.232,0.782l0.232,0.782l0.232,0.782l0.232,0.782l0.063,0.253l0.063,0.253l0.063,0.253l0.063,0.253l0.063-0.253
	l0.063-0.253l0.063-0.253l0.063-0.253l0.232-0.782l0.232-0.782l0.232-0.782l0.232-0.782h0.338h0.338h0.338h0.338l-0.507,1.542
	l-0.507,1.542l-0.507,1.542l-0.507,1.542h-0.275h-0.275h-0.275H41.372z"/>
<path id="path15558" style="fill:#003366;" d="M44.921,73.28v-0.38v-0.38v-0.38v-0.38h0.338h0.338h0.338h0.338v0.38v0.38v0.38v0.38
	h-0.338h-0.338h-0.338H44.921z M44.921,80.292V78.75v-1.542v-1.542v-1.542h0.338h0.338h0.338h0.338v1.542v1.542v1.542v1.542h-0.338
	h-0.338c0,0-0.169,0-0.338,0S44.921,80.292,44.921,80.292z"/>
<path id="path15560" style="fill:#003366;" d="M48.047,75.983l-0.296-0.063l-0.296-0.063l-0.296-0.063l-0.296-0.063
	c0.042-0.148,0.09-0.29,0.143-0.425c0.053-0.135,0.111-0.261,0.174-0.378c0.063-0.116,0.132-0.222,0.206-0.314
	c0.074-0.092,0.153-0.172,0.238-0.235c0.084-0.063,0.18-0.121,0.284-0.173c0.104-0.052,0.218-0.097,0.339-0.134
	c0.121-0.037,0.251-0.066,0.387-0.086s0.279-0.03,0.427-0.03s0.285,0.005,0.412,0.016s0.243,0.026,0.349,0.048
	c0.106,0.021,0.201,0.048,0.285,0.079c0.084,0.032,0.158,0.069,0.222,0.111c0.084,0.042,0.158,0.084,0.224,0.129
	s0.124,0.092,0.177,0.145c0.053,0.053,0.1,0.111,0.145,0.177c0.045,0.066,0.087,0.14,0.129,0.224
	c0.042,0.063,0.074,0.143,0.098,0.238c0.024,0.095,0.04,0.206,0.05,0.333c0.011,0.127,0.016,0.269,0.018,0.428
	s0.003,0.333,0.003,0.523v0.486v0.486v0.486v0.486c0,0.127,0,0.248,0.001,0.363c0.001,0.115,0.004,0.223,0.009,0.323
	c0.005,0.101,0.014,0.193,0.025,0.276c0.012,0.083,0.028,0.157,0.049,0.221s0.037,0.127,0.051,0.191
	c0.014,0.065,0.028,0.131,0.043,0.2c0.016,0.068,0.035,0.14,0.06,0.215s0.057,0.154,0.099,0.239h-0.338h-0.338h-0.338h-0.338
	l-0.042-0.169l-0.042-0.169l-0.042-0.169l-0.042-0.169c-0.063,0.063-0.127,0.127-0.19,0.187c-0.063,0.061-0.127,0.119-0.19,0.172
	c-0.063,0.053-0.127,0.1-0.19,0.14s-0.127,0.071-0.19,0.092c-0.063,0.042-0.127,0.074-0.191,0.098c-0.065,0.024-0.131,0.04-0.2,0.05
	c-0.068,0.011-0.14,0.016-0.215,0.018c-0.075,0.003-0.154,0.003-0.239,0.003c-0.127,0-0.248-0.011-0.363-0.032
	s-0.223-0.053-0.323-0.095c-0.1-0.042-0.193-0.095-0.276-0.158c-0.083-0.063-0.157-0.137-0.221-0.222
	c-0.084-0.084-0.158-0.174-0.222-0.271c-0.063-0.096-0.116-0.2-0.158-0.311c-0.042-0.111-0.074-0.23-0.095-0.358
	s-0.032-0.265-0.032-0.413c0-0.084,0.005-0.169,0.014-0.252c0.009-0.083,0.022-0.165,0.038-0.245
	c0.016-0.079,0.035-0.155,0.054-0.228s0.041-0.141,0.062-0.205c0.042-0.063,0.084-0.127,0.127-0.187
	c0.042-0.061,0.084-0.119,0.127-0.172c0.042-0.053,0.084-0.1,0.127-0.14s0.084-0.071,0.127-0.092
	c0.063-0.042,0.132-0.079,0.207-0.114c0.075-0.034,0.157-0.066,0.246-0.098c0.09-0.032,0.188-0.063,0.295-0.098
	c0.107-0.034,0.223-0.071,0.35-0.114c0.148-0.042,0.285-0.079,0.412-0.114s0.243-0.066,0.349-0.098
	c0.106-0.032,0.201-0.063,0.285-0.098s0.158-0.071,0.222-0.114c0-0.084,0-0.164-0.001-0.236c-0.001-0.073-0.004-0.139-0.01-0.197
	c-0.005-0.058-0.013-0.108-0.025-0.149c-0.012-0.041-0.028-0.073-0.049-0.094s-0.042-0.042-0.063-0.063
	c-0.021-0.021-0.042-0.042-0.063-0.063c-0.021-0.021-0.042-0.042-0.063-0.063c-0.021-0.021-0.042-0.042-0.063-0.063
	c-0.042-0.021-0.084-0.037-0.127-0.049c-0.042-0.012-0.084-0.02-0.127-0.025c-0.042-0.005-0.084-0.008-0.127-0.009
	s-0.084-0.001-0.127-0.001c-0.063,0-0.121,0.005-0.176,0.014c-0.054,0.009-0.104,0.022-0.152,0.038
	c-0.048,0.016-0.093,0.034-0.136,0.054c-0.043,0.02-0.085,0.041-0.128,0.062c0,0.021-0.011,0.053-0.028,0.092
	c-0.017,0.04-0.041,0.087-0.068,0.14c-0.027,0.053-0.056,0.111-0.083,0.172C48.094,75.856,48.068,75.92,48.047,75.983L48.047,75.983
	L48.047,75.983L48.047,75.983L48.047,75.983z M49.821,77.335c-0.042,0.021-0.09,0.042-0.143,0.063
	c-0.053,0.021-0.111,0.042-0.174,0.063c-0.063,0.021-0.132,0.042-0.206,0.063c-0.074,0.021-0.153,0.042-0.238,0.063
	c-0.106,0.021-0.201,0.048-0.287,0.077c-0.086,0.029-0.163,0.061-0.231,0.092c-0.068,0.032-0.129,0.063-0.183,0.092
	s-0.102,0.055-0.144,0.077c-0.042,0.042-0.074,0.084-0.098,0.127s-0.04,0.084-0.05,0.127c-0.011,0.042-0.016,0.084-0.018,0.127
	s-0.003,0.084-0.003,0.127c0,0.063,0.005,0.121,0.014,0.176s0.022,0.104,0.038,0.151c0.016,0.048,0.035,0.093,0.054,0.136
	c0.02,0.044,0.041,0.086,0.062,0.128c0.042,0.042,0.084,0.079,0.127,0.111s0.084,0.058,0.127,0.079
	c0.042,0.021,0.084,0.037,0.127,0.048c0.042,0.011,0.084,0.016,0.127,0.016s0.084-0.005,0.128-0.014
	c0.044-0.009,0.088-0.022,0.136-0.038c0.047-0.016,0.098-0.034,0.152-0.054c0.054-0.02,0.113-0.041,0.176-0.062
	c0.042-0.042,0.084-0.079,0.125-0.115c0.041-0.036,0.08-0.07,0.117-0.107c0.037-0.037,0.072-0.076,0.102-0.122
	s0.057-0.099,0.078-0.162c0.021-0.042,0.037-0.095,0.049-0.157c0.012-0.062,0.02-0.133,0.025-0.213
	c0.005-0.079,0.008-0.166,0.009-0.26c0.001-0.094,0.002-0.194,0.002-0.299v-0.084v-0.084v-0.084V77.335L49.821,77.335L49.821,77.335
	L49.821,77.335L49.821,77.335z"/>
<path id="path15562" style="fill:#003366;" d="M54.299,74.124v0.317v0.317v0.317v0.317h-0.232h-0.232h-0.232h-0.232v0.613v0.613
	v0.613v0.613c0,0.127,0,0.243,0,0.347c0,0.104,0,0.197,0,0.276s0,0.145,0,0.196s0,0.089,0,0.11c0.021,0.042,0.042,0.079,0.065,0.111
	c0.022,0.032,0.046,0.058,0.072,0.079s0.055,0.037,0.089,0.048c0.033,0.011,0.07,0.016,0.113,0.016c0.021,0,0.053-0.005,0.091-0.014
	s0.083-0.022,0.13-0.038c0.048-0.016,0.098-0.035,0.147-0.054c0.049-0.02,0.096-0.041,0.139-0.062l0.021,0.317l0.021,0.317
	l0.021,0.317l0.021,0.317c-0.084,0.042-0.169,0.079-0.253,0.111c-0.084,0.032-0.169,0.058-0.253,0.079s-0.169,0.037-0.253,0.048
	s-0.169,0.016-0.253,0.016c-0.084,0-0.164-0.005-0.239-0.016c-0.075-0.011-0.147-0.026-0.216-0.048
	c-0.068-0.021-0.134-0.048-0.199-0.079c-0.065-0.032-0.128-0.069-0.191-0.111c-0.042-0.042-0.084-0.09-0.125-0.141
	c-0.041-0.052-0.081-0.107-0.118-0.165c-0.037-0.058-0.071-0.118-0.101-0.18s-0.057-0.125-0.078-0.189
	c-0.021-0.063-0.037-0.137-0.049-0.223s-0.02-0.184-0.025-0.295c-0.005-0.111-0.008-0.235-0.009-0.373
	c-0.001-0.139-0.001-0.292-0.001-0.461v-0.676v-0.676v-0.676v-0.676h-0.127H51.68h-0.127h-0.127v-0.317v-0.317v-0.317v-0.317h0.148
	h0.148h0.148h0.148v-0.317v-0.317v-0.317v-0.317l0.338-0.232l0.338-0.232l0.338-0.232l0.338-0.232v0.549v0.549v0.549v0.549h0.232
	h0.232h0.232H54.299L54.299,74.124L54.299,74.124L54.299,74.124L54.299,74.124z"/>
<path id="path15564" style="fill:#003366;" d="M54.721,73.28v-0.38v-0.38v-0.38v-0.38h0.338h0.338h0.338h0.338v0.38v0.38v0.38v0.38
	h-0.338h-0.338h-0.338H54.721z M54.721,80.292V78.75v-1.542v-1.542v-1.542h0.338h0.338h0.338h0.338v1.542v1.542v1.542v1.542h-0.338
	h-0.338c0,0-0.169,0-0.338,0C54.89,80.292,54.721,80.292,54.721,80.292z"/>
<path id="path15566" style="fill:#003366;" d="M56.58,77.166c0-0.148,0.005-0.296,0.017-0.442c0.012-0.146,0.031-0.292,0.057-0.434
	c0.027-0.142,0.061-0.282,0.104-0.419s0.096-0.268,0.159-0.395s0.132-0.243,0.205-0.35c0.073-0.107,0.149-0.205,0.228-0.295
	c0.079-0.09,0.161-0.171,0.245-0.246c0.083-0.075,0.168-0.144,0.252-0.207c0.106-0.063,0.211-0.116,0.317-0.16
	s0.211-0.078,0.317-0.104s0.211-0.045,0.317-0.057s0.211-0.018,0.317-0.018c0.211,0,0.407,0.021,0.589,0.062s0.351,0.101,0.51,0.18
	c0.158,0.079,0.306,0.177,0.446,0.292c0.14,0.115,0.272,0.247,0.399,0.394c0.127,0.169,0.232,0.338,0.319,0.51
	s0.156,0.346,0.209,0.525c0.053,0.18,0.09,0.365,0.114,0.558c0.024,0.193,0.034,0.394,0.034,0.605c0,0.169-0.005,0.327-0.017,0.478
	c-0.012,0.15-0.031,0.293-0.057,0.43c-0.026,0.137-0.06,0.269-0.104,0.399c-0.044,0.129-0.096,0.256-0.16,0.383
	c-0.063,0.127-0.132,0.248-0.205,0.363c-0.073,0.115-0.149,0.223-0.229,0.323c-0.079,0.101-0.161,0.193-0.244,0.276
	c-0.083,0.083-0.168,0.157-0.252,0.221c-0.106,0.063-0.211,0.121-0.317,0.173s-0.211,0.097-0.317,0.134
	c-0.106,0.037-0.211,0.066-0.317,0.085s-0.211,0.03-0.317,0.03c-0.19,0-0.37-0.016-0.54-0.049s-0.332-0.083-0.485-0.152
	c-0.153-0.068-0.298-0.155-0.437-0.262c-0.139-0.107-0.271-0.234-0.397-0.381c-0.127-0.148-0.238-0.312-0.333-0.49
	c-0.095-0.178-0.174-0.371-0.238-0.577c-0.063-0.206-0.111-0.425-0.143-0.656C56.596,77.662,56.58,77.419,56.58,77.166L56.58,77.166
	L56.58,77.166L56.58,77.166L56.58,77.166z M57.932,77.251c0,0.148,0.005,0.29,0.017,0.426c0.012,0.136,0.031,0.266,0.057,0.387
	c0.026,0.121,0.06,0.235,0.104,0.339c0.044,0.104,0.096,0.199,0.16,0.284s0.127,0.158,0.191,0.222
	c0.065,0.063,0.131,0.116,0.2,0.158s0.14,0.074,0.215,0.095c0.075,0.021,0.154,0.032,0.239,0.032c0.084,0,0.164-0.011,0.239-0.032
	c0.075-0.021,0.146-0.053,0.215-0.095c0.068-0.042,0.135-0.095,0.199-0.158c0.065-0.063,0.128-0.137,0.192-0.222
	s0.116-0.174,0.16-0.272c0.044-0.098,0.078-0.203,0.104-0.319c0.026-0.116,0.045-0.243,0.057-0.383s0.018-0.293,0.018-0.462
	c0-0.148-0.005-0.29-0.017-0.426c-0.012-0.136-0.031-0.266-0.057-0.387c-0.027-0.122-0.061-0.235-0.104-0.339
	c-0.043-0.104-0.096-0.199-0.159-0.283s-0.127-0.158-0.191-0.222c-0.065-0.063-0.131-0.116-0.2-0.158
	c-0.068-0.042-0.14-0.074-0.215-0.095c-0.075-0.021-0.155-0.032-0.239-0.032c-0.084,0-0.164,0.011-0.239,0.032
	c-0.075,0.021-0.146,0.053-0.215,0.095c-0.069,0.042-0.135,0.095-0.2,0.158c-0.065,0.063-0.128,0.137-0.191,0.222
	s-0.116,0.174-0.16,0.272c-0.044,0.098-0.078,0.203-0.104,0.319c-0.027,0.116-0.045,0.243-0.057,0.383
	C57.937,76.928,57.932,77.082,57.932,77.251L57.932,77.251L57.932,77.251L57.932,77.251L57.932,77.251z"/>
<path id="path15568" style="fill:#003366;" d="M66.887,80.292h-0.338h-0.338h-0.338h-0.338v-0.782v-0.782v-0.782v-0.782
	c0-0.148,0-0.285-0.001-0.412c-0.001-0.127-0.004-0.243-0.01-0.349C65.52,76.3,65.512,76.205,65.5,76.12
	c-0.012-0.084-0.028-0.158-0.049-0.222c-0.021-0.042-0.042-0.084-0.063-0.127s-0.042-0.084-0.063-0.127
	c-0.021-0.042-0.042-0.084-0.063-0.127c-0.021-0.042-0.042-0.084-0.063-0.127c-0.042-0.021-0.079-0.042-0.115-0.062
	c-0.036-0.02-0.07-0.038-0.107-0.054c-0.037-0.016-0.077-0.029-0.123-0.038c-0.046-0.009-0.099-0.015-0.162-0.015
	c-0.063,0-0.121,0.005-0.176,0.016s-0.104,0.026-0.152,0.048c-0.047,0.021-0.092,0.048-0.136,0.079
	c-0.044,0.032-0.086,0.069-0.128,0.111c-0.042,0.042-0.084,0.084-0.125,0.128c-0.041,0.044-0.08,0.088-0.117,0.136
	c-0.037,0.048-0.072,0.098-0.102,0.152c-0.03,0.054-0.057,0.112-0.078,0.176c-0.021,0.063-0.037,0.143-0.049,0.236
	c-0.012,0.094-0.02,0.202-0.025,0.323c-0.005,0.121-0.008,0.256-0.009,0.403c-0.001,0.147-0.001,0.305-0.001,0.474v0.697v0.697
	v0.697v0.697h-0.338h-0.338h-0.338h-0.338V78.75v-1.542v-1.542v-1.542h0.317h0.317h0.317h0.317v0.232v0.232v0.232v0.232
	c0.063-0.084,0.127-0.164,0.19-0.238c0.063-0.074,0.127-0.143,0.19-0.206c0.063-0.063,0.127-0.121,0.19-0.174
	c0.063-0.053,0.127-0.1,0.19-0.143s0.132-0.079,0.205-0.111s0.149-0.058,0.228-0.079c0.079-0.021,0.161-0.037,0.245-0.048
	s0.168-0.016,0.252-0.016c0.106,0,0.206,0.005,0.301,0.017s0.185,0.031,0.269,0.057c0.084,0.026,0.164,0.06,0.238,0.104
	c0.074,0.044,0.143,0.096,0.206,0.16c0.063,0.042,0.121,0.09,0.176,0.143s0.104,0.111,0.151,0.174
	c0.048,0.063,0.093,0.132,0.136,0.206s0.086,0.153,0.128,0.238c0.021,0.084,0.042,0.174,0.062,0.271
	c0.02,0.096,0.038,0.2,0.054,0.311c0.016,0.111,0.029,0.23,0.038,0.358s0.015,0.265,0.015,0.413l-0.021,0.95l-0.021,0.95
	l-0.021,0.95L66.887,80.292L66.887,80.292L66.887,80.292L66.887,80.292L66.887,80.292z"/>
</svg>
