<?xml version="1.0" encoding="iso-8859-1"?>
<!-- Generator: Adobe Illustrator 25.4.1, SVG Export Plug-In . SVG Version: 6.00 Build 0)  -->
<svg version="1.1"
	 id="svg8" xmlns:cc="http://creativecommons.org/ns#" xmlns:dc="http://purl.org/dc/elements/1.1/" xmlns:inkscape="http://www.inkscape.org/namespaces/inkscape" xmlns:rdf="http://www.w3.org/1999/02/22-rdf-syntax-ns#" xmlns:sodipodi="http://sodipodi.sourceforge.net/DTD/sodipodi-0.dtd" xmlns:svg="http://www.w3.org/2000/svg"
	 xmlns="http://www.w3.org/2000/svg" xmlns:xlink="http://www.w3.org/1999/xlink" x="0px" y="0px" viewBox="0 0 100 100"
	 style="enable-background:new 0 0 100 100;" xml:space="preserve">
<sodipodi:namedview  bordercolor="#666666" borderopacity="1.0" id="base" inkscape:current-layer="layer3" inkscape:cx="-302.11164" inkscape:cy="84.283015" inkscape:document-units="px" inkscape:guide-bbox="true" inkscape:lockguides="true" inkscape:pageopacity="0.0" inkscape:pageshadow="2" inkscape:window-height="657" inkscape:window-maximized="1" inkscape:window-width="1280" inkscape:window-x="-8" inkscape:window-y="-8" inkscape:zoom="0.765625" pagecolor="#ffffff" showgrid="false" showguides="false" units="px">
	<sodipodi:guide  id="guide5700" inkscape:locked="true" orientation="0,1" position="-0.93017576,23.874511"></sodipodi:guide>
	<sodipodi:guide  id="guide5726" inkscape:locked="true" orientation="0,1" position="-26.098869,26.473047"></sodipodi:guide>
	<sodipodi:guide  id="guide5880" inkscape:locked="true" orientation="0,1" position="104.51042,-2.9104167"></sodipodi:guide>
	<sodipodi:guide  id="guide6001" inkscape:locked="true" orientation="0,1" position="-71.093695,29.279377"></sodipodi:guide>
	<sodipodi:guide  id="guide6005" inkscape:locked="true" orientation="0,1" position="-46.304445,58.278122"></sodipodi:guide>
	<sodipodi:guide  id="guide6736" inkscape:locked="true" orientation="0,1" position="-0.10335287,20.205485"></sodipodi:guide>
	<sodipodi:guide  id="guide6738" inkscape:locked="true" orientation="0,1" position="-0.43848907,22.874513"></sodipodi:guide>
	<inkscape:grid  id="grid2386" type="xygrid"></inkscape:grid>
</sodipodi:namedview>
<g id="g1180" transform="translate(0,-229.2666)" inkscape:groupmode="layer" inkscape:label="halo:always" style="display:none;">
	<g id="g1210" inkscape:groupmode="layer" inkscape:label="-gray-halo:iter3" style="display:inline;">
		<g id="circle1208">
			<path style="fill:#919395;" d="M50,329.3c-27.6,0-50-22.4-50-50s22.4-50,50-50s50,22.4,50,50S77.6,329.3,50,329.3z M50,237.9
				c-22.8,0-41.4,18.6-41.4,41.4s18.6,41.4,41.4,41.4s41.4-18.6,41.4-41.4S72.8,237.9,50,237.9z"/>
		</g>
	</g>
	<g id="g1206" inkscape:groupmode="layer" inkscape:label="-red-halo:iter3" style="display:inline;">
		<g id="circle1204">
			<path style="fill:#C52038;" d="M50,329.3c-27.6,0-50-22.4-50-50s22.4-50,50-50s50,22.4,50,50S77.6,329.3,50,329.3z M50,237.9
				c-22.8,0-41.4,18.6-41.4,41.4s18.6,41.4,41.4,41.4s41.4-18.6,41.4-41.4S72.8,237.9,50,237.9z"/>
		</g>
	</g>
	<g id="g1202" inkscape:groupmode="layer" inkscape:label="-green-halo:iter3" style="display:inline;">
		<g id="circle1200">
			<path style="fill:#5E9C42;" d="M50,329.3c-27.6,0-50-22.4-50-50s22.4-50,50-50s50,22.4,50,50S77.6,329.3,50,329.3z M50,237.9
				c-22.8,0-41.4,18.6-41.4,41.4s18.6,41.4,41.4,41.4s41.4-18.6,41.4-41.4S72.8,237.9,50,237.9z"/>
		</g>
	</g>
	<g id="layer18" inkscape:groupmode="layer" inkscape:label="-yellow-halo:iter3" style="display:inline;">
		<g id="circle1178-4">
			<path style="fill:#FBBA16;" d="M50,329.3c-27.6,0-50-22.4-50-50s22.4-50,50-50s50,22.4,50,50S77.6,329.3,50,329.3z M50,237.9
				c-22.8,0-41.4,18.6-41.4,41.4s18.6,41.4,41.4,41.4s41.4-18.6,41.4-41.4S72.8,237.9,50,237.9z"/>
		</g>
	</g>
</g>
<path id="path7038" inkscape:connector-curvature="0" inkscape:export-filename="C:\Users\Charlotte Abel\Documents\Symbology\Components\For Distribution\transportation-icon_aviation-gray.png" inkscape:export-xdpi="300.00458" inkscape:export-ydpi="300.00458" style="fill-rule:evenodd;clip-rule:evenodd;fill:#003366;" d="
	M32.2,54.5l3.425-1.7l3.425-1.7l3.425-1.7l3.425-1.7l-3.75-3.5l-3.75-3.5l-3.75-3.5l-3.75-3.5l1.075-0.525l1.075-0.525l1.075-0.525
	L35.2,31.6l5.925,2.425l5.925,2.425l5.925,2.425L58.9,41.3l2.725-1.35l2.725-1.35l2.725-1.35L69.8,35.9
	c0.725-0.35,1.569-0.575,2.447-0.677c0.878-0.101,1.791-0.079,2.653,0.065c0.863,0.144,1.675,0.409,2.353,0.795
	s1.222,0.892,1.547,1.517c0.05,0.1,0.094,0.2,0.131,0.302c0.038,0.101,0.069,0.204,0.094,0.31c0.025,0.107,0.044,0.216,0.056,0.33
	c0.012,0.114,0.019,0.233,0.019,0.358c0.025,0.6-0.087,1.25-0.308,1.906s-0.548,1.319-0.954,1.944
	c-0.406,0.625-0.891,1.213-1.424,1.719C75.881,44.975,75.3,45.4,74.7,45.7l-2.725,1.35L69.25,48.4l-2.725,1.35L63.8,51.1
	l-1.675,6.175L60.45,63.45l-1.675,6.175L57.1,75.8l-1.075,0.55L54.95,76.9l-1.075,0.55L52.8,78l-0.5-5.1l-0.5-5.1l-0.5-5.1l-0.5-5.1
	l-3.45,1.675L43.9,60.95l-3.45,1.675L37,64.3l-0.625,1.85L35.75,68l-0.625,1.85L34.5,71.7l-0.75,0.375L33,72.45l-0.75,0.375
	L31.5,73.2l-0.4-2.85l-0.4-2.85l-0.4-2.85l-0.4-2.85l-2.025-2.05L25.85,57.7l-2.025-2.05L21.8,53.6l0.75-0.375l0.75-0.375
	l0.75-0.375L24.8,52.1l1.85,0.6l1.85,0.6l1.85,0.6L32.2,54.5z"/>
</svg>
