<?xml version="1.0" encoding="iso-8859-1"?>
<!-- Generator: Adobe Illustrator 25.4.1, SVG Export Plug-In . SVG Version: 6.00 Build 0)  -->
<svg version="1.1"
	 id="svg8" xmlns:cc="http://creativecommons.org/ns#" xmlns:dc="http://purl.org/dc/elements/1.1/" xmlns:inkscape="http://www.inkscape.org/namespaces/inkscape" xmlns:rdf="http://www.w3.org/1999/02/22-rdf-syntax-ns#" xmlns:sodipodi="http://sodipodi.sourceforge.net/DTD/sodipodi-0.dtd" xmlns:svg="http://www.w3.org/2000/svg"
	 xmlns="http://www.w3.org/2000/svg" xmlns:xlink="http://www.w3.org/1999/xlink" x="0px" y="0px" viewBox="0 0 100 100"
	 style="enable-background:new 0 0 100 100;" xml:space="preserve">
<sodipodi:namedview  bordercolor="#666666" borderopacity="1.0" id="base" inkscape:current-layer="g1866" inkscape:cx="-90" inkscape:cy="148.61928" inkscape:document-units="px" inkscape:guide-bbox="true" inkscape:lockguides="false" inkscape:pageopacity="0.0" inkscape:pageshadow="2" inkscape:window-height="657" inkscape:window-maximized="1" inkscape:window-width="1280" inkscape:window-x="-8" inkscape:window-y="-8" inkscape:zoom="1" pagecolor="#ffffff" showgrid="false" showguides="true" units="px">
	<sodipodi:guide  id="guide5700" inkscape:locked="false" orientation="0,1" position="-0.93017576,23.874511"></sodipodi:guide>
	<sodipodi:guide  id="guide5726" inkscape:locked="false" orientation="0,1" position="-26.098869,26.473047"></sodipodi:guide>
	<sodipodi:guide  id="guide5880" inkscape:locked="false" orientation="0,1" position="104.51042,-2.9104167"></sodipodi:guide>
	<sodipodi:guide  id="guide6001" inkscape:locked="false" orientation="0,1" position="-44.807735,29.092289"></sodipodi:guide>
	<sodipodi:guide  id="guide6005" inkscape:locked="false" orientation="0,1" position="-46.304445,58.278122"></sodipodi:guide>
	<sodipodi:guide  id="guide6736" inkscape:locked="false" orientation="0,1" position="-0.10335287,20.205485"></sodipodi:guide>
	<sodipodi:guide  id="guide6738" inkscape:locked="false" orientation="0,1" position="-0.43848907,22.874513"></sodipodi:guide>
	<inkscape:grid  id="grid2386" type="xygrid"></inkscape:grid>
</sodipodi:namedview>
<g id="g1180" transform="translate(0,-229.2666)" inkscape:groupmode="layer" inkscape:label="halo:always" style="display:none;">
	<g id="g1210" inkscape:groupmode="layer" inkscape:label="-gray-halo:iter3" style="display:inline;">
		<g id="circle1208">
			<path style="fill:#919395;" d="M50,329.3c-27.6,0-50-22.4-50-50s22.4-50,50-50s50,22.4,50,50S77.6,329.3,50,329.3z M50,237.9
				c-22.8,0-41.4,18.6-41.4,41.4s18.6,41.4,41.4,41.4s41.4-18.6,41.4-41.4S72.8,237.9,50,237.9z"/>
		</g>
	</g>
	<g id="g1206" inkscape:groupmode="layer" inkscape:label="-red-halo:iter3" style="display:inline;">
		<g id="circle1204">
			<path style="fill:#C52038;" d="M50,329.3c-27.6,0-50-22.4-50-50s22.4-50,50-50s50,22.4,50,50S77.6,329.3,50,329.3z M50,237.9
				c-22.8,0-41.4,18.6-41.4,41.4s18.6,41.4,41.4,41.4s41.4-18.6,41.4-41.4S72.8,237.9,50,237.9z"/>
		</g>
	</g>
	<g id="g1202" inkscape:groupmode="layer" inkscape:label="-green-halo:iter3" style="display:inline;">
		<g id="circle1200">
			<path style="fill:#5E9C42;" d="M50,329.3c-27.6,0-50-22.4-50-50s22.4-50,50-50s50,22.4,50,50S77.6,329.3,50,329.3z M50,237.9
				c-22.8,0-41.4,18.6-41.4,41.4s18.6,41.4,41.4,41.4s41.4-18.6,41.4-41.4S72.8,237.9,50,237.9z"/>
		</g>
	</g>
	<g id="layer18" inkscape:groupmode="layer" inkscape:label="-yellow-halo:iter3" style="display:inline;">
		<g id="circle1178-4">
			<path style="fill:#FBBA16;" d="M50,329.3c-27.6,0-50-22.4-50-50s22.4-50,50-50s50,22.4,50,50S77.6,329.3,50,329.3z M50,237.9
				c-22.8,0-41.4,18.6-41.4,41.4s18.6,41.4,41.4,41.4s41.4-18.6,41.4-41.4S72.8,237.9,50,237.9z"/>
		</g>
	</g>
</g>
<path id="path3362" style="fill:#003366;" d="M25.824,75.028v-1.486v-1.486v-1.486v-1.486h-0.436h-0.436h-0.436h-0.436v-0.307
	v-0.307v-0.307v-0.307h1.168h1.168h1.168h1.168v0.302v0.302v0.302v0.302h-0.436H27.88h-0.436h-0.436v1.486v1.486v1.486v1.486
	l-0.296,0.006l-0.296,0.006l-0.296,0.006L25.824,75.028L25.824,75.028L25.824,75.028L25.824,75.028L25.824,75.028z"/>
<path id="path3364" style="fill:#003366;" d="M29.936,75.028h-0.285h-0.285h-0.285h-0.285v-1.296v-1.296v-1.296v-1.296h0.263h0.263
	h0.263h0.263v0.184v0.184v0.184v0.184c0.045-0.089,0.088-0.17,0.13-0.243c0.042-0.073,0.082-0.138,0.122-0.195
	c0.039-0.057,0.077-0.107,0.113-0.149c0.036-0.042,0.071-0.077,0.105-0.105c0.034-0.028,0.07-0.053,0.108-0.075
	s0.079-0.041,0.121-0.056c0.042-0.015,0.085-0.027,0.129-0.035c0.044-0.008,0.089-0.012,0.133-0.012
	c0.067,0,0.133,0.006,0.197,0.017c0.064,0.011,0.127,0.028,0.189,0.05s0.122,0.05,0.18,0.084s0.116,0.073,0.172,0.117l-0.089,0.302
	l-0.089,0.302l-0.089,0.302l-0.089,0.302c-0.045-0.039-0.089-0.073-0.134-0.101c-0.045-0.028-0.089-0.051-0.134-0.07
	c-0.045-0.018-0.089-0.031-0.134-0.04c-0.045-0.009-0.089-0.013-0.134-0.013c-0.039,0-0.077,0.004-0.114,0.012
	s-0.072,0.02-0.107,0.035c-0.035,0.015-0.069,0.034-0.103,0.056c-0.034,0.022-0.067,0.047-0.101,0.075
	c-0.028,0.028-0.054,0.061-0.08,0.101c-0.025,0.039-0.049,0.085-0.071,0.136c-0.022,0.052-0.043,0.11-0.063,0.174
	s-0.038,0.136-0.054,0.214c-0.011,0.078-0.022,0.172-0.033,0.281c-0.01,0.109-0.02,0.233-0.029,0.373s-0.015,0.295-0.02,0.465
	c-0.005,0.17-0.008,0.356-0.008,0.557c0.017-0.006,0.029,0.091,0.039,0.239c0.009,0.148,0.016,0.347,0.02,0.547
	c0.004,0.2,0.006,0.4,0.007,0.551C29.936,74.927,29.936,75.028,29.936,75.028z"/>
<path id="path3366" style="fill:#003366;" d="M32.663,71.429l-0.257-0.056l-0.257-0.056l-0.257-0.056l-0.257-0.056
	c0.028-0.134,0.063-0.257,0.104-0.37s0.089-0.216,0.142-0.309c0.053-0.094,0.112-0.178,0.175-0.254
	c0.064-0.076,0.132-0.145,0.205-0.206c0.073-0.056,0.152-0.106,0.239-0.15c0.087-0.044,0.181-0.082,0.283-0.112
	c0.102-0.031,0.212-0.054,0.329-0.071c0.118-0.016,0.243-0.024,0.377-0.024c0.117,0,0.228,0.004,0.331,0.013
	c0.104,0.008,0.201,0.021,0.291,0.038s0.175,0.038,0.254,0.063c0.079,0.025,0.151,0.054,0.218,0.088
	c0.061,0.034,0.119,0.07,0.172,0.109c0.053,0.039,0.102,0.081,0.147,0.126s0.085,0.092,0.122,0.142
	c0.036,0.05,0.068,0.103,0.096,0.159c0.028,0.056,0.052,0.124,0.072,0.205c0.02,0.081,0.036,0.174,0.049,0.278
	s0.022,0.221,0.028,0.35c0.006,0.128,0.009,0.268,0.009,0.419v0.397v0.397v0.397v0.397c0,0.112,0.001,0.217,0.004,0.314
	c0.002,0.098,0.006,0.189,0.01,0.272c0.004,0.084,0.009,0.161,0.014,0.23c0.005,0.07,0.011,0.133,0.016,0.189
	c0.011,0.056,0.022,0.112,0.035,0.168c0.012,0.056,0.025,0.113,0.041,0.17c0.015,0.057,0.033,0.115,0.053,0.174
	c0.021,0.059,0.044,0.119,0.072,0.181h-0.279h-0.279h-0.279h-0.279l-0.039-0.14l-0.039-0.14l-0.039-0.14l-0.039-0.14
	c-0.045,0.056-0.092,0.109-0.142,0.159c-0.05,0.05-0.101,0.097-0.154,0.14c-0.053,0.043-0.108,0.083-0.163,0.119
	c-0.055,0.036-0.111,0.068-0.167,0.096c-0.056,0.028-0.112,0.053-0.168,0.075c-0.056,0.022-0.113,0.041-0.17,0.056
	c-0.057,0.015-0.115,0.027-0.174,0.035c-0.059,0.008-0.119,0.012-0.181,0.012c-0.106,0-0.207-0.008-0.302-0.026
	c-0.095-0.017-0.184-0.043-0.268-0.078c-0.084-0.035-0.162-0.079-0.235-0.132c-0.073-0.053-0.14-0.116-0.201-0.189
	c-0.067-0.067-0.126-0.141-0.176-0.222c-0.05-0.081-0.092-0.168-0.126-0.262c-0.034-0.094-0.059-0.194-0.075-0.299
	c-0.017-0.106-0.025-0.217-0.025-0.335c0-0.073,0.003-0.142,0.009-0.21s0.015-0.132,0.027-0.195
	c0.013-0.063,0.029-0.124,0.049-0.183c0.02-0.059,0.044-0.116,0.071-0.172c0.028-0.056,0.059-0.109,0.092-0.159
	c0.033-0.05,0.069-0.098,0.106-0.142c0.038-0.045,0.078-0.087,0.119-0.126c0.042-0.039,0.085-0.075,0.13-0.109
	c0.05-0.034,0.108-0.066,0.172-0.097c0.064-0.031,0.135-0.061,0.214-0.09c0.078-0.029,0.163-0.058,0.256-0.086
	c0.092-0.028,0.191-0.056,0.298-0.084c0.129-0.028,0.249-0.056,0.36-0.084c0.111-0.028,0.213-0.056,0.305-0.084
	c0.092-0.028,0.175-0.056,0.247-0.084c0.072-0.028,0.133-0.056,0.184-0.084c0-0.073-0.001-0.138-0.004-0.197
	c-0.003-0.059-0.007-0.111-0.013-0.157c-0.006-0.046-0.012-0.086-0.021-0.12s-0.018-0.062-0.029-0.084
	c-0.011-0.022-0.024-0.045-0.038-0.066s-0.03-0.043-0.049-0.062c-0.018-0.02-0.038-0.038-0.061-0.054
	c-0.023-0.016-0.048-0.03-0.076-0.041c-0.028-0.017-0.059-0.031-0.092-0.042s-0.069-0.021-0.106-0.027
	c-0.038-0.007-0.078-0.012-0.119-0.015c-0.042-0.003-0.085-0.005-0.13-0.005s-0.089,0.003-0.133,0.008
	c-0.044,0.006-0.086,0.014-0.127,0.025c-0.04,0.011-0.079,0.025-0.114,0.042c-0.035,0.017-0.067,0.036-0.095,0.059
	c-0.028,0.039-0.056,0.078-0.083,0.119c-0.027,0.041-0.054,0.084-0.079,0.13c-0.025,0.046-0.049,0.096-0.071,0.15
	C32.699,71.302,32.68,71.362,32.663,71.429L32.663,71.429L32.663,71.429L32.663,71.429L32.663,71.429z M34.183,72.547
	c-0.034,0.017-0.073,0.034-0.117,0.05c-0.045,0.017-0.095,0.034-0.151,0.05c-0.056,0.017-0.117,0.034-0.184,0.05
	c-0.067,0.017-0.14,0.034-0.218,0.05c-0.089,0.022-0.17,0.045-0.243,0.068c-0.073,0.023-0.138,0.047-0.195,0.072
	c-0.057,0.025-0.107,0.052-0.149,0.08c-0.042,0.029-0.077,0.059-0.105,0.093c-0.028,0.028-0.052,0.059-0.072,0.091
	c-0.02,0.033-0.036,0.068-0.048,0.104c-0.013,0.036-0.022,0.074-0.028,0.112s-0.009,0.078-0.009,0.117
	c0,0.05,0.004,0.098,0.012,0.143c0.008,0.045,0.02,0.089,0.035,0.131c0.015,0.042,0.034,0.082,0.056,0.122
	c0.022,0.04,0.047,0.079,0.075,0.118c0.028,0.034,0.059,0.063,0.092,0.088c0.033,0.025,0.069,0.046,0.106,0.063
	c0.038,0.017,0.077,0.029,0.119,0.038c0.042,0.008,0.085,0.013,0.13,0.013c0.039,0,0.078-0.003,0.117-0.009
	c0.039-0.006,0.078-0.015,0.117-0.028s0.078-0.029,0.117-0.049c0.039-0.02,0.078-0.044,0.117-0.072
	c0.039-0.028,0.075-0.057,0.109-0.088c0.033-0.03,0.063-0.062,0.09-0.094c0.026-0.032,0.05-0.065,0.069-0.098s0.035-0.067,0.046-0.1
	c0.017-0.039,0.031-0.085,0.042-0.138c0.012-0.053,0.021-0.113,0.027-0.18s0.012-0.141,0.015-0.222s0.005-0.169,0.005-0.264
	l0.006-0.078l0.006-0.078l0.006-0.078L34.183,72.547L34.183,72.547L34.183,72.547L34.183,72.547L34.183,72.547z"/>
<path id="path3368" style="fill:#003366;" d="M40.038,75.028h-0.285h-0.285h-0.285h-0.285v-0.665v-0.665v-0.665v-0.665
	c0-0.134-0.001-0.257-0.004-0.368c-0.003-0.111-0.007-0.211-0.013-0.299c-0.006-0.088-0.013-0.164-0.021-0.228
	s-0.018-0.116-0.029-0.155c-0.011-0.039-0.024-0.078-0.038-0.116c-0.015-0.038-0.031-0.075-0.051-0.11
	c-0.02-0.035-0.042-0.068-0.068-0.097c-0.026-0.03-0.055-0.056-0.089-0.079c-0.028-0.022-0.057-0.042-0.088-0.059
	c-0.03-0.017-0.062-0.031-0.094-0.042c-0.032-0.011-0.065-0.02-0.098-0.025c-0.033-0.006-0.067-0.008-0.1-0.008
	c-0.045,0-0.089,0.004-0.134,0.012s-0.088,0.02-0.132,0.035c-0.043,0.015-0.086,0.034-0.128,0.056
	c-0.042,0.022-0.082,0.047-0.121,0.075s-0.075,0.06-0.109,0.096c-0.033,0.036-0.063,0.076-0.09,0.119
	c-0.027,0.043-0.05,0.09-0.069,0.14c-0.019,0.05-0.035,0.103-0.046,0.159c-0.017,0.056-0.031,0.123-0.042,0.201
	c-0.012,0.079-0.021,0.169-0.027,0.271c-0.007,0.102-0.012,0.216-0.015,0.342c-0.003,0.126-0.005,0.264-0.005,0.415v0.587v0.587
	v0.587v0.587h-0.285H36.72h-0.285H36.15v-1.296v-1.296v-1.296v-1.296h0.263h0.263h0.263H37.2v0.19v0.19v0.19v0.19
	c0.045-0.073,0.092-0.141,0.142-0.205c0.05-0.064,0.101-0.123,0.154-0.178c0.053-0.055,0.107-0.104,0.162-0.149
	s0.111-0.083,0.167-0.117c0.061-0.039,0.123-0.073,0.185-0.101c0.062-0.028,0.125-0.051,0.189-0.069
	c0.064-0.018,0.13-0.032,0.198-0.04s0.138-0.013,0.21-0.013c0.084,0,0.163,0.006,0.239,0.017c0.076,0.011,0.148,0.028,0.216,0.05
	c0.069,0.022,0.133,0.05,0.195,0.084c0.062,0.034,0.12,0.073,0.176,0.117c0.056,0.045,0.108,0.091,0.155,0.139
	c0.047,0.048,0.091,0.098,0.13,0.152s0.074,0.109,0.105,0.168c0.031,0.059,0.057,0.122,0.08,0.189
	c0.022,0.067,0.042,0.141,0.059,0.222s0.031,0.17,0.042,0.267c0.011,0.096,0.02,0.201,0.025,0.313
	c0.006,0.112,0.008,0.232,0.008,0.361v0.799v0.799v0.799L40.038,75.028L40.038,75.028L40.038,75.028L40.038,75.028L40.038,75.028z"
	/>
<path id="path3370" style="fill:#003366;" d="M40.575,73.553l0.285-0.05l0.285-0.05l0.285-0.05l0.285-0.05
	c0.022,0.134,0.059,0.251,0.109,0.352c0.05,0.101,0.113,0.184,0.19,0.251c0.077,0.067,0.167,0.117,0.27,0.151
	c0.103,0.034,0.219,0.05,0.347,0.05c0.067,0,0.13-0.003,0.189-0.009c0.059-0.006,0.113-0.015,0.163-0.028
	c0.05-0.013,0.096-0.029,0.138-0.049c0.042-0.02,0.08-0.044,0.113-0.072c0.034-0.022,0.063-0.049,0.088-0.079
	c0.025-0.03,0.046-0.063,0.063-0.098c0.017-0.035,0.029-0.072,0.038-0.11s0.013-0.077,0.013-0.116c0-0.028-0.001-0.054-0.005-0.08
	c-0.003-0.025-0.008-0.049-0.015-0.071c-0.007-0.022-0.016-0.043-0.027-0.063c-0.012-0.02-0.025-0.038-0.042-0.054
	s-0.036-0.032-0.059-0.047c-0.023-0.015-0.049-0.029-0.078-0.043c-0.029-0.014-0.062-0.028-0.099-0.043
	c-0.037-0.015-0.077-0.03-0.122-0.047c-0.229-0.061-0.437-0.122-0.625-0.181s-0.354-0.117-0.501-0.174
	c-0.147-0.057-0.273-0.114-0.38-0.17s-0.193-0.112-0.26-0.168c-0.078-0.067-0.147-0.141-0.205-0.222
	c-0.059-0.081-0.108-0.169-0.147-0.264s-0.068-0.197-0.088-0.306c-0.02-0.109-0.029-0.225-0.029-0.348
	c0-0.123,0.01-0.239,0.029-0.348c0.019-0.109,0.048-0.212,0.085-0.308c0.038-0.096,0.085-0.186,0.14-0.271
	c0.056-0.084,0.12-0.162,0.192-0.235c0.078-0.073,0.165-0.137,0.259-0.192s0.197-0.102,0.308-0.14s0.228-0.066,0.354-0.086
	s0.258-0.029,0.398-0.029s0.271,0.007,0.394,0.021s0.237,0.035,0.344,0.063c0.106,0.028,0.204,0.063,0.293,0.105
	c0.089,0.042,0.17,0.091,0.243,0.147c0.073,0.056,0.14,0.119,0.201,0.189s0.118,0.149,0.17,0.235
	c0.052,0.087,0.098,0.182,0.141,0.286c0.042,0.104,0.08,0.217,0.113,0.34l-0.263,0.061l-0.263,0.061l-0.263,0.061l-0.263,0.061
	c-0.022-0.106-0.056-0.198-0.101-0.277s-0.101-0.143-0.168-0.195c-0.067-0.052-0.145-0.09-0.235-0.116
	c-0.089-0.026-0.19-0.038-0.302-0.038c-0.067,0-0.13,0.003-0.189,0.008c-0.059,0.005-0.113,0.013-0.163,0.023
	c-0.05,0.01-0.096,0.022-0.138,0.035c-0.042,0.014-0.08,0.029-0.113,0.046c-0.034,0.017-0.061,0.036-0.085,0.058
	c-0.023,0.022-0.041,0.046-0.055,0.073c-0.014,0.026-0.024,0.055-0.03,0.086c-0.006,0.031-0.009,0.063-0.009,0.096
	c0,0.028,0.003,0.054,0.009,0.08c0.006,0.026,0.015,0.05,0.027,0.074c0.013,0.024,0.029,0.047,0.049,0.069
	c0.02,0.023,0.044,0.045,0.072,0.067c0.028,0.022,0.07,0.046,0.126,0.072s0.126,0.053,0.21,0.082s0.182,0.061,0.293,0.095
	s0.237,0.07,0.377,0.109c0.156,0.045,0.3,0.091,0.432,0.139c0.131,0.048,0.25,0.097,0.356,0.149c0.106,0.052,0.2,0.105,0.281,0.162
	c0.081,0.056,0.149,0.115,0.205,0.176s0.105,0.129,0.147,0.201c0.042,0.073,0.077,0.151,0.105,0.235
	c0.028,0.084,0.049,0.173,0.063,0.268s0.021,0.196,0.021,0.302c0,0.129-0.011,0.25-0.033,0.365
	c-0.022,0.115-0.055,0.223-0.098,0.325c-0.043,0.102-0.097,0.198-0.161,0.287c-0.064,0.09-0.138,0.174-0.222,0.252
	c-0.084,0.084-0.176,0.156-0.277,0.218c-0.101,0.062-0.21,0.113-0.327,0.153c-0.117,0.04-0.243,0.071-0.377,0.09
	c-0.134,0.02-0.277,0.03-0.427,0.03c-0.134,0-0.264-0.008-0.389-0.025s-0.244-0.042-0.357-0.075c-0.113-0.034-0.22-0.075-0.32-0.126
	s-0.192-0.109-0.276-0.176c-0.095-0.067-0.18-0.142-0.256-0.226c-0.076-0.083-0.143-0.175-0.202-0.274
	c-0.059-0.099-0.109-0.206-0.152-0.321C40.638,73.803,40.603,73.681,40.575,73.553L40.575,73.553L40.575,73.553L40.575,73.553
	L40.575,73.553z"/>
<path id="path3372" style="fill:#003366;" d="M45.268,69.843h0.263h0.263h0.263h0.263v0.19v0.19v0.19v0.19
	c0.034-0.067,0.071-0.131,0.112-0.192c0.041-0.061,0.086-0.119,0.133-0.174c0.047-0.054,0.098-0.105,0.15-0.153
	c0.052-0.047,0.107-0.09,0.163-0.13c0.061-0.039,0.123-0.074,0.185-0.104c0.062-0.03,0.124-0.056,0.187-0.077
	c0.063-0.021,0.126-0.037,0.191-0.048c0.065-0.011,0.13-0.016,0.197-0.016c0.123,0,0.24,0.014,0.353,0.042
	c0.112,0.028,0.22,0.071,0.323,0.128s0.203,0.129,0.298,0.216c0.096,0.087,0.188,0.189,0.277,0.306
	c0.089,0.117,0.168,0.246,0.235,0.386c0.067,0.14,0.123,0.292,0.168,0.455s0.078,0.339,0.101,0.526
	c0.022,0.187,0.034,0.387,0.034,0.6c0,0.223-0.011,0.434-0.034,0.632s-0.056,0.383-0.101,0.555c-0.045,0.172-0.101,0.33-0.168,0.475
	c-0.067,0.145-0.145,0.276-0.235,0.394c-0.089,0.117-0.183,0.221-0.28,0.31s-0.199,0.164-0.303,0.224
	c-0.105,0.06-0.213,0.105-0.325,0.136c-0.111,0.03-0.226,0.046-0.343,0.046c-0.056,0-0.112-0.003-0.167-0.009
	c-0.055-0.006-0.11-0.015-0.163-0.028c-0.053-0.013-0.105-0.029-0.154-0.049c-0.05-0.02-0.097-0.044-0.142-0.072
	c-0.045-0.028-0.092-0.061-0.142-0.101c-0.05-0.039-0.101-0.084-0.154-0.134c-0.053-0.05-0.108-0.106-0.163-0.168
	c-0.055-0.061-0.111-0.129-0.167-0.201v0.654v0.654v0.654v0.654h-0.279h-0.279h-0.279h-0.279v-1.788v-1.788v-1.788V69.843z
	 M46.386,72.346c0,0.145,0.006,0.282,0.017,0.41s0.029,0.247,0.053,0.355c0.024,0.109,0.054,0.208,0.09,0.297s0.08,0.167,0.13,0.234
	c0.045,0.067,0.094,0.127,0.146,0.179c0.052,0.052,0.108,0.097,0.167,0.133c0.059,0.036,0.12,0.064,0.184,0.083
	c0.064,0.019,0.129,0.029,0.196,0.029s0.13-0.008,0.189-0.025c0.059-0.016,0.115-0.041,0.168-0.073
	c0.053-0.032,0.103-0.072,0.152-0.119s0.094-0.102,0.139-0.163c0.045-0.067,0.084-0.142,0.117-0.227s0.061-0.178,0.084-0.281
	c0.022-0.103,0.039-0.217,0.05-0.34c0.011-0.124,0.017-0.258,0.017-0.403c0-0.134-0.006-0.261-0.017-0.381
	c-0.011-0.119-0.028-0.231-0.05-0.335c-0.022-0.103-0.05-0.198-0.084-0.284s-0.073-0.163-0.117-0.23
	c-0.045-0.067-0.092-0.126-0.142-0.176c-0.05-0.05-0.102-0.092-0.157-0.126c-0.055-0.034-0.111-0.059-0.169-0.075
	c-0.058-0.017-0.118-0.025-0.18-0.025c-0.067,0-0.133,0.008-0.196,0.025s-0.125,0.041-0.184,0.073
	c-0.059,0.032-0.115,0.072-0.167,0.119c-0.052,0.047-0.101,0.102-0.146,0.163c-0.045,0.067-0.085,0.141-0.121,0.222
	s-0.066,0.17-0.091,0.267c-0.025,0.096-0.045,0.2-0.058,0.312S46.386,72.217,46.386,72.346L46.386,72.346L46.386,72.346
	L46.386,72.346L46.386,72.346z"/>
<path id="path3374" style="fill:#003366;" d="M49.85,72.368c0-0.129,0.006-0.254,0.017-0.377s0.03-0.242,0.055-0.358
	c0.025-0.116,0.057-0.228,0.097-0.337s0.087-0.213,0.143-0.314c0.05-0.106,0.105-0.204,0.163-0.294
	c0.059-0.09,0.122-0.174,0.189-0.25c0.067-0.077,0.138-0.147,0.214-0.213c0.075-0.065,0.155-0.125,0.239-0.181
	c0.084-0.05,0.169-0.095,0.256-0.134c0.087-0.039,0.176-0.072,0.266-0.098c0.091-0.027,0.184-0.047,0.279-0.061
	c0.095-0.014,0.193-0.021,0.294-0.021c0.173,0,0.337,0.017,0.49,0.05c0.154,0.034,0.298,0.084,0.432,0.151
	c0.134,0.067,0.258,0.151,0.373,0.251c0.115,0.101,0.219,0.218,0.314,0.352s0.179,0.274,0.251,0.419
	c0.072,0.145,0.133,0.296,0.182,0.453s0.086,0.318,0.111,0.486c0.025,0.168,0.037,0.341,0.037,0.52c0,0.134-0.006,0.264-0.017,0.39
	c-0.012,0.126-0.03,0.249-0.055,0.369s-0.057,0.237-0.097,0.353s-0.087,0.228-0.143,0.34c-0.05,0.106-0.105,0.207-0.163,0.301
	c-0.059,0.095-0.122,0.183-0.189,0.266c-0.067,0.082-0.138,0.159-0.214,0.228c-0.075,0.07-0.155,0.132-0.239,0.188
	c-0.084,0.056-0.169,0.103-0.256,0.143s-0.175,0.072-0.264,0.097s-0.18,0.043-0.272,0.055c-0.092,0.012-0.186,0.017-0.281,0.017
	c-0.156,0-0.306-0.015-0.449-0.046c-0.143-0.03-0.279-0.076-0.409-0.136c-0.13-0.06-0.253-0.135-0.371-0.224
	c-0.118-0.089-0.229-0.192-0.336-0.31c-0.106-0.117-0.2-0.25-0.28-0.397c-0.081-0.147-0.148-0.308-0.203-0.483
	c-0.055-0.174-0.096-0.362-0.123-0.562S49.85,72.592,49.85,72.368L49.85,72.368L49.85,72.368L49.85,72.368L49.85,72.368z
	 M50.99,72.435c0,0.134,0.006,0.258,0.017,0.374c0.012,0.115,0.03,0.221,0.055,0.319c0.025,0.098,0.057,0.187,0.097,0.269
	s0.087,0.156,0.143,0.223c0.05,0.067,0.103,0.126,0.159,0.176s0.115,0.092,0.176,0.126c0.061,0.034,0.126,0.059,0.193,0.075
	c0.067,0.017,0.137,0.025,0.21,0.025c0.073,0,0.142-0.008,0.209-0.025c0.067-0.017,0.13-0.042,0.19-0.075
	c0.06-0.034,0.117-0.075,0.169-0.126c0.053-0.05,0.102-0.109,0.146-0.176c0.05-0.067,0.095-0.142,0.134-0.226
	c0.039-0.084,0.072-0.176,0.098-0.277c0.026-0.101,0.047-0.21,0.06-0.327c0.014-0.117,0.021-0.243,0.021-0.377
	c0-0.129-0.006-0.249-0.017-0.361c-0.012-0.112-0.03-0.217-0.055-0.315c-0.025-0.098-0.057-0.189-0.097-0.273
	c-0.04-0.085-0.087-0.163-0.143-0.235c-0.05-0.067-0.103-0.126-0.159-0.176c-0.056-0.05-0.115-0.092-0.176-0.126
	c-0.061-0.034-0.126-0.059-0.193-0.075c-0.067-0.017-0.137-0.025-0.21-0.025c-0.073,0-0.142,0.008-0.21,0.025
	c-0.067,0.017-0.131,0.042-0.193,0.075s-0.12,0.075-0.176,0.126c-0.056,0.05-0.109,0.109-0.159,0.176
	c-0.045,0.073-0.085,0.152-0.121,0.239c-0.036,0.087-0.066,0.18-0.091,0.281c-0.025,0.101-0.045,0.208-0.058,0.323
	C50.997,72.185,50.99,72.307,50.99,72.435L50.99,72.435L50.99,72.435L50.99,72.435L50.99,72.435z"/>
<path id="path3376" style="fill:#003366;" d="M55.974,75.028h-0.285h-0.285h-0.285h-0.285v-1.296v-1.296v-1.296v-1.296h0.263h0.263
	h0.263h0.263v0.184v0.184v0.184v0.184c0.045-0.089,0.088-0.17,0.13-0.243c0.042-0.073,0.082-0.138,0.122-0.195
	c0.039-0.057,0.077-0.107,0.113-0.149c0.036-0.042,0.071-0.077,0.105-0.105c0.034-0.028,0.07-0.053,0.108-0.075
	s0.079-0.041,0.121-0.056c0.042-0.015,0.085-0.027,0.129-0.035s0.089-0.012,0.133-0.012c0.067,0,0.133,0.006,0.197,0.017
	c0.064,0.011,0.127,0.028,0.189,0.05s0.122,0.05,0.18,0.084c0.059,0.034,0.116,0.073,0.172,0.117l-0.089,0.302l-0.089,0.302
	l-0.089,0.302l-0.089,0.302c-0.045-0.039-0.089-0.073-0.134-0.101c-0.045-0.028-0.089-0.051-0.134-0.07
	c-0.045-0.018-0.089-0.031-0.134-0.04c-0.045-0.009-0.089-0.013-0.134-0.013c-0.039,0-0.077,0.004-0.114,0.012
	s-0.072,0.02-0.107,0.035c-0.035,0.015-0.069,0.034-0.103,0.056c-0.034,0.022-0.067,0.047-0.101,0.075
	c-0.028,0.028-0.054,0.061-0.08,0.101c-0.025,0.039-0.049,0.085-0.071,0.136c-0.022,0.052-0.043,0.11-0.063,0.174
	c-0.02,0.065-0.038,0.136-0.054,0.214c-0.011,0.078-0.022,0.172-0.033,0.281c-0.01,0.109-0.02,0.233-0.029,0.373
	s-0.015,0.295-0.02,0.465c-0.005,0.17-0.008,0.356-0.008,0.557l0.017,0.397l0.017,0.397l0.017,0.397L55.974,75.028L55.974,75.028
	L55.974,75.028L55.974,75.028L55.974,75.028z"/>
<path id="path3378" style="fill:#003366;" d="M59.796,69.843v0.274v0.274v0.274v0.274h-0.19h-0.19h-0.19h-0.19v0.525v0.525v0.525
	v0.525c0,0.112,0,0.212,0,0.301c0,0.089,0.001,0.167,0.002,0.232c0.001,0.066,0.004,0.119,0.007,0.161
	c0.003,0.042,0.007,0.071,0.013,0.088c0.011,0.034,0.025,0.063,0.042,0.088c0.017,0.025,0.036,0.046,0.059,0.063
	s0.047,0.029,0.075,0.038c0.028,0.008,0.059,0.013,0.092,0.013c0.022,0,0.05-0.003,0.082-0.008c0.032-0.006,0.068-0.014,0.108-0.025
	c0.039-0.011,0.081-0.025,0.124-0.042c0.043-0.017,0.088-0.036,0.133-0.059l0.022,0.263l0.022,0.263l0.022,0.263l0.022,0.263
	c-0.067,0.034-0.135,0.063-0.206,0.088s-0.142,0.046-0.216,0.063c-0.074,0.017-0.15,0.029-0.229,0.038
	c-0.079,0.008-0.16,0.013-0.244,0.013c-0.073,0-0.141-0.004-0.206-0.013c-0.065-0.008-0.125-0.021-0.183-0.038
	c-0.057-0.017-0.111-0.038-0.162-0.063s-0.098-0.054-0.143-0.088c-0.045-0.034-0.085-0.071-0.122-0.113
	c-0.037-0.042-0.07-0.088-0.099-0.138c-0.029-0.05-0.055-0.105-0.078-0.163c-0.023-0.059-0.042-0.122-0.059-0.189
	c-0.011-0.045-0.021-0.103-0.029-0.175c-0.008-0.072-0.015-0.156-0.021-0.253c-0.006-0.096-0.01-0.205-0.013-0.324
	c-0.003-0.119-0.004-0.249-0.004-0.389v-0.564v-0.564v-0.564v-0.564h-0.129h-0.129h-0.128h-0.128v-0.274V70.39v-0.274v-0.274h0.129
	h0.129h0.129h0.129v-0.257v-0.257v-0.257v-0.257l0.285-0.201l0.285-0.201l0.285-0.201l0.285-0.201v0.458v0.458v0.458v0.458h0.201
	h0.201h0.201L59.796,69.843L59.796,69.843L59.796,69.843L59.796,69.843L59.796,69.843z"/>
<path id="path3380" style="fill:#003366;" d="M61.204,71.429l-0.257-0.056l-0.257-0.056l-0.257-0.056l-0.257-0.056
	c0.028-0.134,0.063-0.257,0.104-0.37s0.089-0.216,0.142-0.309c0.053-0.094,0.112-0.178,0.175-0.254
	c0.064-0.076,0.132-0.145,0.205-0.206c0.073-0.056,0.152-0.106,0.239-0.15c0.087-0.044,0.181-0.082,0.283-0.112
	c0.102-0.031,0.212-0.054,0.329-0.071c0.118-0.016,0.243-0.024,0.378-0.024c0.117,0,0.228,0.004,0.331,0.013
	c0.104,0.008,0.201,0.021,0.292,0.038s0.175,0.038,0.254,0.063c0.079,0.025,0.151,0.054,0.218,0.088
	c0.061,0.034,0.119,0.07,0.172,0.109c0.053,0.039,0.102,0.081,0.147,0.126s0.085,0.092,0.122,0.142s0.068,0.103,0.096,0.159
	c0.028,0.056,0.052,0.124,0.072,0.205c0.02,0.081,0.036,0.174,0.049,0.278c0.013,0.105,0.022,0.221,0.027,0.349
	c0.006,0.128,0.009,0.268,0.009,0.419v0.397v0.397v0.397v0.397c0,0.112,0.001,0.217,0.004,0.314c0.002,0.098,0.006,0.189,0.01,0.272
	c0.004,0.084,0.009,0.161,0.014,0.23c0.005,0.07,0.011,0.133,0.017,0.189c0.011,0.056,0.022,0.112,0.035,0.168
	c0.012,0.056,0.025,0.113,0.041,0.17c0.015,0.057,0.033,0.115,0.053,0.174c0.021,0.059,0.044,0.119,0.072,0.181h-0.279h-0.279
	h-0.279h-0.279l-0.039-0.14l-0.039-0.14l-0.039-0.14l-0.039-0.14c-0.045,0.056-0.092,0.109-0.142,0.159
	c-0.05,0.05-0.101,0.097-0.154,0.14s-0.108,0.083-0.163,0.119c-0.055,0.036-0.111,0.068-0.167,0.096
	c-0.056,0.028-0.112,0.053-0.168,0.075c-0.056,0.022-0.113,0.041-0.17,0.056c-0.057,0.015-0.115,0.027-0.174,0.035
	c-0.059,0.008-0.119,0.012-0.181,0.012c-0.106,0-0.207-0.008-0.302-0.026c-0.095-0.017-0.184-0.043-0.268-0.078
	c-0.084-0.035-0.162-0.079-0.235-0.132c-0.073-0.053-0.14-0.116-0.201-0.189c-0.067-0.067-0.126-0.141-0.176-0.222
	c-0.05-0.081-0.092-0.168-0.126-0.262c-0.034-0.094-0.059-0.193-0.075-0.299s-0.025-0.218-0.025-0.335
	c0-0.073,0.003-0.142,0.009-0.21c0.006-0.067,0.015-0.132,0.028-0.195c0.013-0.063,0.029-0.124,0.048-0.183
	c0.02-0.059,0.044-0.116,0.072-0.172c0.028-0.056,0.059-0.109,0.092-0.159s0.069-0.098,0.106-0.142
	c0.038-0.045,0.077-0.087,0.119-0.126c0.042-0.039,0.085-0.075,0.13-0.109c0.05-0.034,0.108-0.066,0.172-0.097
	s0.135-0.061,0.214-0.09c0.078-0.029,0.163-0.058,0.256-0.086c0.092-0.028,0.191-0.056,0.298-0.084
	c0.129-0.028,0.249-0.056,0.36-0.084c0.111-0.028,0.213-0.056,0.305-0.084c0.092-0.028,0.175-0.056,0.247-0.084
	c0.072-0.028,0.133-0.056,0.184-0.084c0-0.073-0.001-0.138-0.004-0.197c-0.003-0.059-0.007-0.111-0.013-0.157
	c-0.006-0.046-0.013-0.086-0.021-0.12s-0.018-0.062-0.029-0.084c-0.011-0.022-0.024-0.045-0.038-0.066s-0.03-0.043-0.049-0.062
	c-0.018-0.02-0.038-0.038-0.061-0.054c-0.023-0.016-0.048-0.03-0.076-0.041c-0.028-0.017-0.059-0.031-0.092-0.042
	c-0.033-0.012-0.069-0.021-0.107-0.027c-0.038-0.007-0.078-0.012-0.119-0.015c-0.042-0.003-0.085-0.005-0.129-0.005
	s-0.089,0.003-0.133,0.008c-0.044,0.006-0.086,0.014-0.127,0.025s-0.079,0.025-0.114,0.042s-0.067,0.036-0.095,0.059
	c-0.034,0.039-0.064,0.078-0.093,0.119c-0.028,0.041-0.054,0.084-0.078,0.13c-0.024,0.046-0.045,0.096-0.065,0.15
	C61.239,71.302,61.221,71.362,61.204,71.429L61.204,71.429L61.204,71.429L61.204,71.429L61.204,71.429z M62.701,72.547
	c-0.034,0.017-0.073,0.034-0.117,0.05s-0.095,0.034-0.151,0.05c-0.056,0.017-0.117,0.034-0.184,0.05s-0.14,0.034-0.218,0.05
	c-0.089,0.022-0.17,0.045-0.243,0.068s-0.138,0.047-0.195,0.072c-0.057,0.025-0.107,0.052-0.149,0.08
	c-0.042,0.029-0.077,0.059-0.105,0.093c-0.028,0.028-0.052,0.059-0.072,0.091s-0.036,0.068-0.049,0.104
	c-0.013,0.036-0.022,0.074-0.027,0.112c-0.006,0.038-0.009,0.078-0.009,0.117c0,0.05,0.004,0.098,0.012,0.143
	s0.02,0.089,0.035,0.131c0.015,0.042,0.034,0.082,0.056,0.122c0.022,0.04,0.047,0.079,0.075,0.118
	c0.028,0.034,0.059,0.063,0.092,0.088c0.033,0.025,0.069,0.046,0.106,0.063s0.077,0.029,0.119,0.038
	c0.042,0.008,0.085,0.013,0.13,0.013c0.039,0,0.078-0.003,0.117-0.009c0.039-0.006,0.078-0.015,0.117-0.028s0.078-0.029,0.117-0.049
	c0.039-0.02,0.078-0.044,0.117-0.072c0.039-0.028,0.075-0.057,0.109-0.088c0.033-0.03,0.063-0.062,0.09-0.094
	c0.026-0.032,0.05-0.065,0.069-0.098s0.035-0.067,0.046-0.1c0.017-0.039,0.031-0.085,0.042-0.138
	c0.012-0.053,0.021-0.113,0.027-0.18c0.007-0.067,0.012-0.141,0.015-0.222s0.005-0.169,0.005-0.264v-0.078v-0.078v-0.078v-0.078
	h0.006h0.006h0.006L62.701,72.547L62.701,72.547L62.701,72.547z"/>
<path id="path3382" style="fill:#003366;" d="M66.657,69.843v0.274v0.274v0.274v0.274h-0.19h-0.19h-0.19h-0.19v0.525v0.525v0.525
	v0.525c0,0.112,0,0.212,0,0.301c0,0.089,0.001,0.167,0.003,0.232c0.001,0.066,0.004,0.119,0.007,0.161
	c0.003,0.042,0.007,0.071,0.013,0.088c0.011,0.034,0.025,0.063,0.042,0.088c0.017,0.025,0.036,0.046,0.059,0.063
	c0.022,0.017,0.047,0.029,0.075,0.038c0.028,0.008,0.059,0.013,0.092,0.013c0.022,0,0.05-0.003,0.082-0.008s0.068-0.014,0.108-0.025
	s0.081-0.025,0.124-0.042c0.043-0.017,0.088-0.036,0.133-0.059l0.022,0.263l0.022,0.263l0.022,0.263l0.022,0.263
	c-0.067,0.034-0.135,0.063-0.206,0.088c-0.07,0.025-0.142,0.046-0.216,0.063c-0.074,0.017-0.15,0.029-0.229,0.038
	c-0.079,0.008-0.16,0.013-0.243,0.013c-0.073,0-0.141-0.004-0.206-0.013c-0.065-0.008-0.125-0.021-0.183-0.038
	c-0.057-0.017-0.111-0.038-0.162-0.063s-0.098-0.054-0.143-0.088c-0.045-0.034-0.085-0.071-0.122-0.113
	c-0.037-0.042-0.069-0.088-0.099-0.138c-0.029-0.05-0.055-0.105-0.078-0.163c-0.023-0.059-0.042-0.122-0.059-0.189
	c-0.011-0.045-0.021-0.103-0.029-0.175c-0.008-0.072-0.015-0.156-0.021-0.253c-0.006-0.096-0.01-0.205-0.013-0.324
	c-0.003-0.119-0.004-0.249-0.004-0.389v-0.564v-0.564v-0.564v-0.564h-0.129h-0.129h-0.129h-0.129v-0.274V70.39v-0.274v-0.274h0.129
	h0.129h0.129h0.129v-0.257v-0.257v-0.257v-0.257l0.285-0.201l0.285-0.201l0.285-0.201l0.285-0.201v0.458v0.458v0.458v0.458h0.201
	h0.201h0.201L66.657,69.843L66.657,69.843L66.657,69.843L66.657,69.843L66.657,69.843z"/>
<path id="path3384" style="fill:#003366;" d="M67.216,69.127v-0.318V68.49v-0.318v-0.318h0.285h0.285h0.285h0.285v0.318v0.318v0.318
	v0.318h-0.285h-0.285h-0.285H67.216z M67.216,75.028v-1.296v-1.296v-1.296v-1.296h0.285h0.285h0.285h0.285v1.296v1.296v1.296v1.296
	h-0.285h-0.285h-0.285H67.216z"/>
<path id="path3386" style="fill:#003366;" d="M69.026,72.368c0-0.129,0.006-0.254,0.017-0.377s0.03-0.242,0.055-0.358
	c0.025-0.116,0.057-0.228,0.097-0.337c0.04-0.109,0.087-0.213,0.143-0.314c0.05-0.106,0.105-0.204,0.163-0.294
	s0.122-0.174,0.189-0.25c0.067-0.077,0.138-0.147,0.214-0.213c0.075-0.065,0.155-0.125,0.239-0.181
	c0.084-0.05,0.169-0.095,0.256-0.134c0.087-0.039,0.176-0.072,0.266-0.098c0.091-0.027,0.184-0.047,0.279-0.061
	c0.095-0.014,0.193-0.021,0.294-0.021c0.173,0,0.337,0.017,0.49,0.05s0.298,0.084,0.432,0.151c0.134,0.067,0.258,0.151,0.373,0.251
	c0.115,0.101,0.219,0.218,0.314,0.352s0.179,0.274,0.251,0.419s0.133,0.296,0.182,0.453s0.086,0.318,0.111,0.486
	c0.025,0.168,0.037,0.341,0.037,0.52c0,0.134-0.006,0.264-0.017,0.39c-0.012,0.126-0.03,0.249-0.055,0.369
	c-0.025,0.12-0.057,0.237-0.097,0.353s-0.087,0.228-0.143,0.34c-0.05,0.106-0.105,0.207-0.163,0.301
	c-0.059,0.095-0.122,0.183-0.189,0.266c-0.067,0.082-0.138,0.159-0.214,0.228c-0.075,0.07-0.155,0.132-0.239,0.188
	c-0.084,0.056-0.169,0.103-0.256,0.143c-0.087,0.04-0.175,0.072-0.264,0.097s-0.18,0.043-0.272,0.055
	c-0.092,0.012-0.186,0.017-0.281,0.017c-0.156,0-0.306-0.015-0.449-0.046c-0.143-0.03-0.279-0.076-0.409-0.136
	c-0.13-0.06-0.254-0.135-0.371-0.224c-0.118-0.089-0.229-0.192-0.336-0.31c-0.112-0.129-0.208-0.267-0.29-0.416
	s-0.149-0.309-0.202-0.481c-0.053-0.172-0.092-0.355-0.118-0.552C69.039,72.801,69.026,72.592,69.026,72.368z M70.166,72.435
	c0,0.134,0.006,0.258,0.017,0.374s0.03,0.221,0.055,0.319c0.025,0.098,0.057,0.187,0.097,0.269s0.087,0.156,0.143,0.223
	c0.05,0.067,0.103,0.126,0.159,0.176c0.056,0.05,0.115,0.092,0.176,0.126c0.061,0.034,0.126,0.059,0.193,0.075
	c0.067,0.017,0.137,0.025,0.21,0.025c0.073,0,0.142-0.008,0.209-0.025c0.067-0.017,0.13-0.042,0.19-0.075
	c0.06-0.034,0.117-0.075,0.169-0.126c0.053-0.05,0.102-0.109,0.146-0.176c0.05-0.067,0.095-0.142,0.134-0.226
	c0.039-0.084,0.072-0.176,0.098-0.277c0.027-0.101,0.047-0.21,0.061-0.327c0.014-0.117,0.021-0.243,0.021-0.377
	c0-0.129-0.006-0.249-0.017-0.361c-0.012-0.112-0.03-0.217-0.055-0.315c-0.025-0.098-0.057-0.189-0.097-0.273
	s-0.087-0.163-0.143-0.235c-0.05-0.067-0.103-0.126-0.159-0.176c-0.056-0.05-0.115-0.092-0.176-0.126
	c-0.061-0.034-0.126-0.059-0.193-0.075c-0.067-0.017-0.137-0.025-0.21-0.025c-0.073,0-0.142,0.008-0.21,0.025
	c-0.067,0.017-0.131,0.042-0.193,0.075s-0.12,0.075-0.176,0.126c-0.056,0.05-0.109,0.109-0.159,0.176
	c-0.045,0.073-0.085,0.152-0.121,0.239c-0.036,0.087-0.066,0.18-0.091,0.281c-0.025,0.101-0.045,0.208-0.058,0.323
	C70.173,72.185,70.166,72.307,70.166,72.435L70.166,72.435L70.166,72.435L70.166,72.435L70.166,72.435z"/>
<path id="path3388" style="fill:#003366;" d="M77.944,75.028h-0.285h-0.285h-0.285h-0.285v-0.665v-0.665v-0.665v-0.665
	c0-0.134-0.001-0.257-0.004-0.368c-0.003-0.111-0.007-0.211-0.013-0.299c-0.006-0.088-0.013-0.164-0.021-0.228
	c-0.008-0.064-0.018-0.116-0.029-0.155c-0.011-0.039-0.024-0.078-0.038-0.116c-0.015-0.038-0.031-0.075-0.051-0.11
	c-0.02-0.035-0.042-0.068-0.068-0.097c-0.026-0.03-0.055-0.056-0.089-0.079c-0.028-0.022-0.057-0.042-0.088-0.059
	c-0.03-0.017-0.062-0.031-0.094-0.042c-0.032-0.011-0.065-0.02-0.098-0.025c-0.033-0.006-0.067-0.008-0.1-0.008
	c-0.045,0-0.089,0.004-0.134,0.012s-0.088,0.02-0.132,0.035c-0.043,0.015-0.086,0.034-0.127,0.056
	c-0.042,0.022-0.082,0.047-0.121,0.075c-0.039,0.028-0.075,0.06-0.109,0.096c-0.033,0.036-0.063,0.076-0.09,0.119
	c-0.026,0.043-0.05,0.09-0.069,0.14c-0.019,0.05-0.035,0.103-0.046,0.159c-0.017,0.056-0.031,0.123-0.042,0.201
	s-0.021,0.169-0.027,0.271c-0.007,0.102-0.012,0.216-0.015,0.342c-0.003,0.126-0.005,0.264-0.005,0.415v0.587v0.587v0.587v0.587
	H74.91h-0.285H74.34h-0.285v-1.296v-1.296v-1.296v-1.296h0.257h0.257h0.257h0.257v0.19v0.19v0.19v0.19
	c0.045-0.073,0.092-0.141,0.142-0.205c0.05-0.064,0.101-0.123,0.154-0.178c0.053-0.055,0.108-0.104,0.163-0.149
	c0.055-0.044,0.111-0.083,0.167-0.117c0.061-0.039,0.123-0.073,0.185-0.101c0.062-0.028,0.125-0.051,0.189-0.069
	c0.064-0.018,0.13-0.032,0.198-0.04s0.138-0.013,0.21-0.013c0.084,0,0.163,0.006,0.239,0.017c0.076,0.011,0.148,0.028,0.216,0.05
	c0.069,0.022,0.133,0.05,0.195,0.084c0.062,0.034,0.12,0.073,0.176,0.117c0.056,0.045,0.108,0.091,0.155,0.139
	c0.047,0.048,0.091,0.098,0.13,0.152s0.074,0.109,0.105,0.168c0.031,0.059,0.057,0.122,0.08,0.189
	c0.022,0.067,0.042,0.141,0.059,0.222s0.031,0.17,0.042,0.267c0.011,0.096,0.02,0.201,0.025,0.313
	c0.006,0.112,0.008,0.232,0.008,0.361l0.006,0.799l0.006,0.799l0.005,0.799L77.944,75.028L77.944,75.028L77.944,75.028
	L77.944,75.028L77.944,75.028z"/>
<path id="path1846-6" inkscape:connector-curvature="0" inkscape:export-filename="C:\Users\Charlotte Abel\Documents\Symbology\Round-2\transportation2.png" inkscape:export-xdpi="96" inkscape:export-ydpi="96" style="fill:#003366;" d="
	M50.113,44.366l-4.92,4.836l-4.92,4.836l-4.92,4.836l-4.92,4.836h4.752h4.752h4.752h4.752c0.042-0.486,0.084-0.966,0.125-1.443
	c0.041-0.477,0.081-0.949,0.118-1.419c0.037-0.47,0.071-0.937,0.101-1.403c0.03-0.466,0.057-0.93,0.078-1.395h0.591h0.591h0.591
	h0.591c0.042,0.486,0.084,0.966,0.125,1.443c0.041,0.477,0.081,0.949,0.118,1.419c0.037,0.47,0.071,0.937,0.101,1.403
	s0.057,0.93,0.078,1.395h4.73h4.73h4.73h4.73l-4.92-4.836l-4.92-4.836l-4.92-4.836l-4.92-4.836h-0.211h-0.211h-0.211h-0.211
	c0.042,0.528,0.084,1.056,0.127,1.584s0.084,1.056,0.127,1.584c0.042,0.528,0.084,1.056,0.127,1.584
	c0.042,0.528,0.084,1.056,0.127,1.584h-0.296h-0.296h-0.296h-0.296c0.042-0.528,0.084-1.056,0.127-1.584
	c0.042-0.528,0.084-1.056,0.127-1.584s0.084-1.056,0.127-1.584s0.084-1.056,0.127-1.584h-0.19h-0.19h-0.19H50.113z M50.282,52.306
	h0.359H51h0.359h0.359c0.021,0.232,0.042,0.465,0.063,0.697c0.021,0.232,0.042,0.465,0.063,0.697
	c0.021,0.232,0.042,0.465,0.063,0.697c0.021,0.232,0.042,0.465,0.063,0.697h-0.486H51h-0.486h-0.486
	c0.042-0.232,0.074-0.465,0.099-0.697c0.025-0.232,0.044-0.465,0.06-0.697c0.016-0.232,0.029-0.465,0.043-0.697
	C50.245,52.771,50.261,52.538,50.282,52.306L50.282,52.306L50.282,52.306L50.282,52.306L50.282,52.306z"/>
<path id="path2055" inkscape:connector-curvature="0" inkscape:export-filename="C:\Users\Charlotte Abel\Documents\Symbology\Round-2\transportation2.png" inkscape:export-xdpi="96" inkscape:export-ydpi="96" style="fill-rule:evenodd;clip-rule:evenodd;fill:#003366;" d="
	M62.793,18.137c-0.187,0-0.388,0.007-0.598,0.022c-0.209,0.015-0.427,0.038-0.647,0.072c-0.221,0.033-0.445,0.077-0.668,0.132
	c-0.223,0.055-0.444,0.123-0.658,0.203c-0.884,0.321-2.33,0.837-4.002,1.43s-3.57,1.262-5.358,1.892
	c-1.788,0.629-3.465,1.219-4.696,1.65c-1.23,0.432-2.014,0.706-2.014,0.706l-0.991-0.536l-0.991-0.536l-0.991-0.536l-0.991-0.536
	l-1.045,0.348L38.1,22.797l-1.045,0.348l-1.045,0.348l0.937,1.018l0.937,1.018l0.937,1.018l0.937,1.018c0,0,0.174,0.181,0.541,0.418
	c0.367,0.238,0.925,0.532,1.695,0.76c0.77,0.228,1.751,0.388,2.962,0.358s2.649-0.251,4.336-0.787c0,0,0.609-0.234,1.57-0.603
	c0.961-0.368,2.273-0.87,3.679-1.406c1.406-0.536,2.906-1.105,4.242-1.607s2.508-0.937,3.257-1.205
	c0.937-0.348,1.687-0.723,2.278-1.105c0.591-0.382,1.023-0.77,1.325-1.145c0.301-0.375,0.472-0.737,0.54-1.065
	s0.035-0.623-0.072-0.864c-0.107-0.161-0.261-0.315-0.459-0.455c-0.198-0.141-0.439-0.268-0.72-0.375
	c-0.281-0.107-0.602-0.194-0.96-0.254C63.617,18.171,63.222,18.137,62.793,18.137z"/>
<path id="path1868-3" inkscape:connector-curvature="0" inkscape:export-filename="C:\Users\Charlotte Abel\Documents\Symbology\Round-2\transportation2.png" inkscape:export-xdpi="96" inkscape:export-ydpi="96" style="fill-rule:evenodd;clip-rule:evenodd;fill:#003366;" d="
	M44.581,16.423l-0.83,0.321l-0.83,0.321l-0.83,0.321l-0.83,0.321l1.312,1.045l1.312,1.045l1.312,1.045l1.312,1.045l1.607-0.589
	l1.607-0.589l1.607-0.589l1.607-0.589l-2.089-0.777l-2.089-0.777L46.67,17.2L44.581,16.423z"/>
<path id="path1848-3" inkscape:connector-curvature="0" inkscape:export-filename="C:\Users\Charlotte Abel\Documents\Symbology\Round-2\transportation2.png" inkscape:export-xdpi="96" inkscape:export-ydpi="96" style="fill:#003366;" d="
	M27.813,33.215c-0.021,0-0.042,0.037-0.062,0.104s-0.038,0.165-0.054,0.287c-0.016,0.121-0.029,0.266-0.038,0.429
	s-0.014,0.342-0.014,0.532c0,0.19,0.005,0.37,0.014,0.532c0.009,0.162,0.022,0.308,0.038,0.429c0.016,0.122,0.034,0.219,0.054,0.286
	s0.041,0.104,0.062,0.104h6.061h6.061h6.061h6.061h0.232h0.232h0.232h0.232h0.676h0.676h0.676h0.676h4.625h4.625h4.625h4.625
	c0.021,0,0.042-0.037,0.062-0.104c0.02-0.067,0.038-0.165,0.054-0.287c0.016-0.121,0.029-0.266,0.039-0.429
	c0.009-0.162,0.015-0.342,0.015-0.532c0-0.19-0.005-0.37-0.014-0.532c-0.009-0.162-0.022-0.308-0.038-0.429
	c-0.016-0.121-0.035-0.219-0.054-0.286s-0.041-0.104-0.062-0.104h-4.625h-4.625h-4.625h-4.625h-0.676h-0.676h-0.676h-0.676h-0.232
	h-0.232h-0.232h-0.232h-6.061h-6.061h-6.061H27.813z"/>
<path id="path1850-8" inkscape:connector-curvature="0" style="fill:#003366;" d="M47.716,36.922v1.003v1.003v1.003v1.003h1.29h1.29
	h1.29h1.29h0.471h0.471h0.471h0.471h0.205h0.205h0.205h0.205h0.594h0.594h0.594h0.594h0.512h0.512h0.512h0.512
	c0.491,0,0.952,0.102,1.367,0.287c0.415,0.184,0.783,0.451,1.09,0.778c0.307,0.328,0.553,0.717,0.722,1.147
	c0.169,0.43,0.261,0.901,0.261,1.393v1.741v1.741v1.741v1.741h0.41h0.41h0.41h0.41h0.369h0.369h0.369h0.369h0.41h0.41h0.41h0.41
	v-1.741v-1.741v-1.741V44.54c0-0.491,0.097-0.962,0.273-1.393c0.175-0.43,0.429-0.819,0.741-1.147
	c0.312-0.328,0.683-0.594,1.094-0.778c0.411-0.184,0.861-0.287,1.332-0.287h0.635h0.635h0.635h0.635v-1.003v-1.003v-1.003v-1.003
	h-4.055h-4.055H62.01h-4.055h-0.594h-0.594h-0.594h-0.594h-0.205H55.17h-0.205H54.76h-0.471h-0.471h-0.471h-0.471
	c0,0-0.323,0-0.806,0c-0.484,0-1.129,0-1.774,0c-0.645,0-1.29,0-1.774,0S47.716,36.922,47.716,36.922z"/>
<path id="path1850-3-9" inkscape:connector-curvature="0" style="fill:#003366;" d="M54.269,36.922v1.003v1.003v1.003v1.003h-1.29
	h-1.29h-1.29h-1.29h-0.471h-0.471h-0.471h-0.471h-0.205h-0.205H46.61h-0.205h-0.594h-0.594h-0.594h-0.594h-0.491h-0.491h-0.491
	h-0.491c-0.491,0-0.952,0.102-1.367,0.287c-0.415,0.184-0.783,0.451-1.09,0.778c-0.307,0.328-0.553,0.717-0.722,1.147
	c-0.169,0.43-0.261,0.901-0.261,1.393v1.741v1.741v1.741v1.741h-0.41h-0.41h-0.41h-0.41h-0.369h-0.369h-0.369H35.51h-0.41h-0.41
	h-0.41h-0.41v-1.741v-1.741v-1.741V44.54c0-0.491-0.097-0.962-0.273-1.393c-0.175-0.43-0.429-0.819-0.741-1.147
	c-0.313-0.328-0.684-0.594-1.094-0.778c-0.411-0.184-0.861-0.287-1.333-0.287h-0.635h-0.635h-0.635h-0.635v-1.003v-1.003v-1.003
	v-1.003h4.075h4.075h4.075h4.075h0.594h0.594h0.594h0.594h0.205h0.205h0.205h0.205h0.471h0.471h0.471h0.471c0,0,0.312,0,0.781,0
	c0.468,0,1.093,0,1.718,0c0.625,0,1.249,0,1.718,0S54.269,36.922,54.269,36.922z"/>
</svg>
