<?xml version="1.0" encoding="iso-8859-1"?>
<!-- Generator: Adobe Illustrator 25.4.1, SVG Export Plug-In . SVG Version: 6.00 Build 0)  -->
<svg version="1.1"
	 id="svg8" inkscape:export-filename="C:\Users\Charlotte Abel\Documents\Symbology\Components\For Distribution\communications_alerts-warnings-messages.png" inkscape:export-xdpi="300.00464" inkscape:export-ydpi="300.00464" inkscape:version="0.91 r13725" sodipodi:docname="transportation_railway-with-label-clr_256x256.svg" xmlns:cc="http://creativecommons.org/ns#" xmlns:dc="http://purl.org/dc/elements/1.1/" xmlns:inkscape="http://www.inkscape.org/namespaces/inkscape" xmlns:rdf="http://www.w3.org/1999/02/22-rdf-syntax-ns#" xmlns:sodipodi="http://sodipodi.sourceforge.net/DTD/sodipodi-0.dtd" xmlns:svg="http://www.w3.org/2000/svg"
	 xmlns="http://www.w3.org/2000/svg" xmlns:xlink="http://www.w3.org/1999/xlink" x="0px" y="0px" viewBox="0 0 100 100"
	 style="enable-background:new 0 0 100 100;" xml:space="preserve">
<sodipodi:namedview  bordercolor="#666666" borderopacity="1.0" id="base" inkscape:current-layer="g12218" inkscape:cx="-302.11164" inkscape:cy="84.283015" inkscape:document-units="px" inkscape:guide-bbox="true" inkscape:lockguides="true" inkscape:pageopacity="0.0" inkscape:pageshadow="2" inkscape:window-height="657" inkscape:window-maximized="1" inkscape:window-width="1280" inkscape:window-x="-8" inkscape:window-y="-8" inkscape:zoom="0.765625" pagecolor="#ffffff" showgrid="false" showguides="false" units="px">
	<sodipodi:guide  id="guide5700" inkscape:locked="true" orientation="0,1" position="-0.93017576,23.874511"></sodipodi:guide>
	<sodipodi:guide  id="guide5726" inkscape:locked="true" orientation="0,1" position="-26.098869,26.473047"></sodipodi:guide>
	<sodipodi:guide  id="guide5880" inkscape:locked="true" orientation="0,1" position="104.51042,-2.9104167"></sodipodi:guide>
	<sodipodi:guide  id="guide6001" inkscape:locked="true" orientation="0,1" position="-71.093695,29.279377"></sodipodi:guide>
	<sodipodi:guide  id="guide6005" inkscape:locked="true" orientation="0,1" position="-46.304445,58.278122"></sodipodi:guide>
	<sodipodi:guide  id="guide6736" inkscape:locked="true" orientation="0,1" position="-0.10335287,20.205485"></sodipodi:guide>
	<sodipodi:guide  id="guide6738" inkscape:locked="true" orientation="0,1" position="-0.43848907,22.874513"></sodipodi:guide>
	<inkscape:grid  id="grid2386" type="xygrid"></inkscape:grid>
</sodipodi:namedview>
<g id="g1180" transform="translate(0,-229.2666)" inkscape:groupmode="layer" inkscape:label="halo:always" style="display:none;">
	<g id="g1210" inkscape:groupmode="layer" inkscape:label="-gray-halo:iter3" style="display:inline;">
		<g id="circle1208">
			<path style="fill:#919395;" d="M50,329.3c-27.6,0-50-22.4-50-50s22.4-50,50-50s50,22.4,50,50S77.6,329.3,50,329.3z M50,237.9
				c-22.8,0-41.4,18.6-41.4,41.4s18.6,41.4,41.4,41.4s41.4-18.6,41.4-41.4S72.8,237.9,50,237.9z"/>
		</g>
	</g>
	<g id="g1206" inkscape:groupmode="layer" inkscape:label="-red-halo:iter3" style="display:inline;">
		<g id="circle1204">
			<path style="fill:#C52038;" d="M50,329.3c-27.6,0-50-22.4-50-50s22.4-50,50-50s50,22.4,50,50S77.6,329.3,50,329.3z M50,237.9
				c-22.8,0-41.4,18.6-41.4,41.4s18.6,41.4,41.4,41.4s41.4-18.6,41.4-41.4S72.8,237.9,50,237.9z"/>
		</g>
	</g>
	<g id="g1202" inkscape:groupmode="layer" inkscape:label="-green-halo:iter3" style="display:inline;">
		<g id="circle1200">
			<path style="fill:#5E9C42;" d="M50,329.3c-27.6,0-50-22.4-50-50s22.4-50,50-50s50,22.4,50,50S77.6,329.3,50,329.3z M50,237.9
				c-22.8,0-41.4,18.6-41.4,41.4s18.6,41.4,41.4,41.4s41.4-18.6,41.4-41.4S72.8,237.9,50,237.9z"/>
		</g>
	</g>
	<g id="layer18" inkscape:groupmode="layer" inkscape:label="-yellow-halo:iter3" style="display:inline;">
		<g id="circle1178-4">
			<path style="fill:#FBBA16;" d="M50,329.3c-27.6,0-50-22.4-50-50s22.4-50,50-50s50,22.4,50,50S77.6,329.3,50,329.3z M50,237.9
				c-22.8,0-41.4,18.6-41.4,41.4s18.6,41.4,41.4,41.4s41.4-18.6,41.4-41.4S72.8,237.9,50,237.9z"/>
		</g>
	</g>
</g>
<path id="path12200" inkscape:connector-curvature="0" style="fill:#003366;" d="M37.19,54.994h6.484h6.484h6.484h6.484
	c0.507,0,0.993-0.106,1.436-0.297c0.444-0.191,0.845-0.468,1.183-0.812c0.338-0.343,0.613-0.752,0.803-1.208
	c0.19-0.456,0.296-0.957,0.296-1.486V44.58v-6.611v-6.611v-6.611c0,0-0.116-0.354-0.521-0.884c-0.405-0.531-1.1-1.238-2.256-1.946
	c-1.157-0.708-2.775-1.415-5.029-1.946c-2.254-0.531-5.142-0.884-8.838-0.884s-6.59,0.354-8.851,0.884
	c-2.261,0.531-3.891,1.238-5.058,1.946c-1.167,0.708-1.872,1.415-2.285,1.946c-0.413,0.531-0.534,0.884-0.534,0.884v6.632v6.632
	v6.632v6.632c0,0.507,0.106,0.993,0.296,1.436s0.465,0.845,0.803,1.183s0.739,0.613,1.183,0.803S36.683,54.994,37.19,54.994z"/>
<path id="path12202" inkscape:connector-curvature="0" style="fill:#FFFFFF;" d="M39.978,51.192c-0.38,0-0.745-0.079-1.077-0.223
	c-0.333-0.144-0.634-0.353-0.887-0.612c-0.253-0.259-0.459-0.567-0.602-0.912c-0.143-0.344-0.222-0.725-0.222-1.126
	s0.079-0.782,0.222-1.126c0.143-0.345,0.349-0.654,0.602-0.913c0.253-0.259,0.554-0.467,0.887-0.611
	c0.333-0.144,0.697-0.223,1.077-0.223s0.745,0.079,1.077,0.223c0.333,0.144,0.634,0.352,0.887,0.611
	c0.253,0.259,0.459,0.568,0.602,0.913s0.222,0.725,0.222,1.126s-0.079,0.782-0.222,1.126c-0.143,0.344-0.349,0.653-0.602,0.912
	c-0.253,0.259-0.554,0.468-0.887,0.612C40.723,51.112,40.358,51.192,39.978,51.192z"/>
<path id="path12204" inkscape:connector-curvature="0" style="fill:#FFFFFF;" d="M60.34,51.192c-0.38,0-0.745-0.079-1.077-0.223
	c-0.333-0.144-0.634-0.353-0.887-0.612c-0.253-0.259-0.459-0.567-0.602-0.912c-0.143-0.344-0.222-0.725-0.222-1.126
	s0.079-0.782,0.222-1.126c0.143-0.345,0.349-0.654,0.602-0.913s0.554-0.467,0.887-0.611c0.333-0.144,0.697-0.223,1.077-0.223
	s0.745,0.079,1.077,0.223c0.333,0.144,0.634,0.352,0.887,0.611c0.253,0.259,0.459,0.568,0.602,0.913s0.222,0.725,0.222,1.126
	s-0.079,0.782-0.222,1.126c-0.143,0.344-0.349,0.653-0.602,0.912c-0.253,0.259-0.554,0.468-0.887,0.612
	C61.084,51.112,60.72,51.192,60.34,51.192z"/>
<path id="path12206" inkscape:connector-curvature="0" style="fill:#FFFFFF;" d="M35.331,28.464c0-0.253,0.053-0.496,0.148-0.718
	c0.095-0.222,0.232-0.422,0.401-0.591c0.169-0.169,0.37-0.306,0.591-0.401c0.222-0.095,0.465-0.148,0.718-0.148h6.484h6.484h6.484
	h6.484c0.253,0,0.496,0.053,0.718,0.148c0.222,0.095,0.422,0.232,0.591,0.401c0.169,0.169,0.306,0.37,0.401,0.591
	s0.148,0.465,0.148,0.718v2.366v2.366v2.366v2.366c0,0.253-0.053,0.496-0.148,0.718c-0.095,0.222-0.232,0.422-0.401,0.591
	s-0.37,0.306-0.591,0.401c-0.222,0.095-0.465,0.148-0.718,0.148h-6.484h-6.484h-6.484H37.19c-0.253,0-0.496-0.053-0.718-0.148
	c-0.222-0.095-0.422-0.232-0.591-0.401s-0.306-0.37-0.401-0.591c-0.095-0.222-0.148-0.465-0.148-0.718v-2.366v-2.366V30.83V28.464z"
	/>
<polygon id="polygon12208" inkscape:export-filename="C:\Users\Charlotte Abel\Documents\Symbology\Components\transportation-icon_railway-3.png" inkscape:export-xdpi="300.00461" inkscape:export-ydpi="300.00461" style="fill:#003366;" points="
	39.049,57.021 37.655,59.155 36.261,61.288 34.866,63.421 33.472,65.555 34.866,65.555 36.261,65.555 37.655,65.555 39.049,65.555 
	39.978,63.421 40.907,61.288 41.837,59.155 42.766,57.021 41.837,57.021 40.907,57.021 39.978,57.021 ">
</polygon>
<polygon id="polygon12210" inkscape:export-filename="C:\Users\Charlotte Abel\Documents\Symbology\Components\transportation-icon_railway-3.png" inkscape:export-xdpi="300.00461" inkscape:export-ydpi="300.00461" style="fill:#003366;" points="
	61.269,65.555 62.663,65.555 64.057,65.555 65.451,65.555 66.845,65.555 65.451,63.421 64.057,61.288 62.663,59.155 61.269,57.021 
	60.34,57.021 59.41,57.021 58.481,57.021 57.551,57.021 58.481,59.155 59.41,61.288 60.34,63.421 ">
</polygon>
<polygon id="rect12212" inkscape:export-filename="C:\Users\Charlotte Abel\Documents\Symbology\Components\transportation-icon_railway-3.png" inkscape:export-xdpi="300.00461" inkscape:export-ydpi="300.00461" style="fill:#003366;" points="
	38.373,58.289 44.181,58.289 49.99,58.289 55.798,58.289 61.607,58.289 61.607,58.88 61.607,59.472 61.607,60.063 61.607,60.654 
	55.798,60.654 49.99,60.654 44.181,60.654 38.373,60.654 38.373,60.063 38.373,59.472 38.373,58.88 ">
</polygon>
<polygon id="rect12214" inkscape:export-filename="C:\Users\Charlotte Abel\Documents\Symbology\Components\transportation-icon_railway-3.png" inkscape:export-xdpi="300.00461" inkscape:export-ydpi="300.00461" style="fill:#003366;" points="
	38.035,62.091 43.843,62.091 49.652,62.091 55.46,62.091 61.269,62.091 61.269,62.682 61.269,63.273 61.269,63.865 61.269,64.456 
	55.46,64.456 49.652,64.456 43.843,64.456 38.035,64.456 38.035,63.865 38.035,63.273 38.035,62.682 ">
</polygon>
<path id="path18370" style="fill:#003366;" d="M35.05,81.141v-2v-2v-2v-2h0.7h0.7h0.7h0.7c0.175,0,0.338,0.006,0.487,0.017
	c0.15,0.011,0.288,0.026,0.413,0.045c0.125,0.019,0.237,0.04,0.338,0.064c0.1,0.023,0.188,0.048,0.262,0.073
	c0.075,0.025,0.15,0.062,0.223,0.109c0.074,0.047,0.146,0.103,0.215,0.166s0.134,0.132,0.195,0.204
	c0.061,0.072,0.117,0.147,0.167,0.222c0.05,0.1,0.094,0.2,0.131,0.302c0.038,0.102,0.069,0.205,0.094,0.311
	c0.025,0.106,0.044,0.216,0.056,0.33c0.013,0.114,0.019,0.233,0.019,0.358c0,0.15-0.012,0.294-0.036,0.431
	c-0.023,0.137-0.058,0.269-0.102,0.394c-0.043,0.125-0.096,0.243-0.157,0.355s-0.13,0.219-0.205,0.319
	c-0.075,0.125-0.156,0.231-0.245,0.322c-0.089,0.091-0.186,0.166-0.292,0.228c-0.106,0.062-0.222,0.113-0.349,0.153
	c-0.127,0.041-0.264,0.072-0.414,0.097c0.075,0.05,0.144,0.1,0.208,0.151s0.124,0.104,0.18,0.16c0.056,0.057,0.109,0.116,0.16,0.18
	c0.052,0.064,0.102,0.133,0.152,0.208c0.05,0.05,0.1,0.119,0.153,0.203s0.109,0.184,0.172,0.297
	c0.062,0.113,0.131,0.238,0.209,0.372c0.078,0.134,0.166,0.278,0.266,0.428l0.2,0.4l0.2,0.4l0.2,0.4l0.2,0.4h-0.4h-0.4h-0.4h-0.4
	l-0.25-0.425l-0.25-0.425l-0.25-0.425l-0.25-0.425c-0.075-0.15-0.15-0.287-0.222-0.412s-0.141-0.238-0.203-0.338
	s-0.119-0.188-0.166-0.263c-0.047-0.075-0.084-0.138-0.109-0.188c-0.025-0.05-0.056-0.094-0.091-0.131
	c-0.034-0.037-0.072-0.069-0.109-0.094c-0.037-0.025-0.075-0.044-0.109-0.056c-0.034-0.012-0.066-0.019-0.091-0.019
	c-0.025-0.025-0.062-0.044-0.109-0.058c-0.047-0.014-0.103-0.024-0.166-0.03c-0.062-0.006-0.131-0.009-0.203-0.01
	c-0.072-0.002-0.147-0.002-0.222-0.002h-0.075H36.4h-0.075H36.25v0.825v0.825v0.825v0.825h-0.3h-0.3h-0.3h-0.3v-0.025v-0.025v-0.025
	V81.141z M36.35,76.541h0.25h0.25h0.25h0.25c0.15,0,0.287,0,0.411-0.001c0.123-0.002,0.233-0.005,0.326-0.011
	c0.094-0.007,0.172-0.016,0.233-0.03c0.061-0.014,0.104-0.033,0.129-0.058c0.05-0.025,0.094-0.05,0.133-0.075
	c0.039-0.025,0.073-0.05,0.104-0.075c0.031-0.025,0.059-0.05,0.086-0.075c0.027-0.025,0.052-0.05,0.077-0.075
	c0.025-0.05,0.05-0.1,0.074-0.15c0.023-0.05,0.045-0.1,0.064-0.15c0.019-0.05,0.034-0.1,0.045-0.15c0.011-0.05,0.017-0.1,0.017-0.15
	c0-0.075-0.006-0.144-0.017-0.206s-0.026-0.119-0.045-0.169c-0.018-0.05-0.04-0.094-0.064-0.131
	c-0.023-0.037-0.048-0.069-0.073-0.094c-0.025-0.05-0.05-0.094-0.077-0.131c-0.027-0.037-0.055-0.069-0.086-0.094
	c-0.031-0.025-0.065-0.044-0.104-0.056c-0.039-0.013-0.083-0.019-0.133-0.019c-0.025,0-0.069-0.006-0.13-0.016
	s-0.139-0.022-0.232-0.034c-0.094-0.012-0.203-0.025-0.327-0.034s-0.261-0.016-0.411-0.016H37.1h-0.25H36.6h-0.25v0.5v0.5v0.5
	V76.541L36.35,76.541L36.35,76.541L36.35,76.541L36.35,76.541z"/>
<path id="path18372" style="fill:#003366;" d="M42.05,77.141l-0.275-0.075L41.5,76.991l-0.275-0.075l-0.275-0.075
	c0.025-0.15,0.062-0.287,0.109-0.414s0.103-0.242,0.166-0.348c0.062-0.106,0.131-0.203,0.203-0.293
	c0.072-0.089,0.147-0.17,0.222-0.245c0.075-0.075,0.163-0.137,0.261-0.189c0.098-0.052,0.208-0.092,0.327-0.123
	c0.118-0.032,0.246-0.054,0.382-0.068c0.136-0.014,0.28-0.02,0.43-0.02c0.125,0,0.244,0.006,0.356,0.017
	c0.112,0.011,0.219,0.026,0.319,0.045c0.1,0.019,0.194,0.04,0.281,0.064c0.088,0.023,0.169,0.048,0.244,0.073
	s0.144,0.062,0.206,0.108s0.119,0.098,0.169,0.154c0.05,0.057,0.094,0.116,0.131,0.174c0.038,0.058,0.069,0.114,0.094,0.164
	c0.025,0.075,0.05,0.156,0.074,0.247c0.023,0.091,0.045,0.191,0.064,0.303c0.019,0.113,0.034,0.238,0.045,0.378
	s0.017,0.297,0.017,0.472v0.45v0.45v0.45v0.45c0,0.125,0,0.244,0.002,0.355c0.002,0.111,0.005,0.214,0.011,0.307
	c0.007,0.094,0.016,0.178,0.03,0.252c0.014,0.074,0.032,0.137,0.057,0.187c0,0.05,0.006,0.106,0.017,0.167s0.026,0.126,0.045,0.195
	c0.019,0.069,0.041,0.141,0.064,0.215c0.024,0.074,0.049,0.149,0.074,0.224h-0.3h-0.3h-0.3h-0.3l-0.05-0.15l-0.05-0.15L44,80.591
	l-0.05-0.15c-0.05,0.075-0.1,0.138-0.151,0.192c-0.052,0.055-0.105,0.102-0.161,0.146s-0.116,0.085-0.18,0.127
	c-0.064,0.042-0.133,0.086-0.208,0.136c-0.05,0.025-0.106,0.05-0.167,0.073c-0.061,0.023-0.126,0.045-0.195,0.064
	s-0.14,0.034-0.214,0.045s-0.149,0.018-0.224,0.018c-0.125,0-0.237-0.012-0.341-0.036c-0.103-0.023-0.197-0.058-0.284-0.101
	c-0.087-0.044-0.169-0.097-0.247-0.158c-0.078-0.061-0.153-0.13-0.228-0.205c-0.075-0.075-0.138-0.156-0.189-0.244
	c-0.052-0.087-0.092-0.181-0.123-0.281c-0.031-0.1-0.053-0.206-0.067-0.319s-0.021-0.231-0.021-0.356
	c0-0.075,0.006-0.15,0.017-0.225c0.011-0.075,0.026-0.15,0.045-0.225c0.019-0.075,0.041-0.15,0.065-0.225
	c0.023-0.075,0.049-0.15,0.073-0.225c0.025-0.075,0.056-0.137,0.092-0.192c0.036-0.055,0.077-0.102,0.121-0.146
	c0.043-0.044,0.09-0.084,0.139-0.126c0.048-0.042,0.098-0.086,0.148-0.136c0.05-0.025,0.112-0.056,0.184-0.091
	c0.072-0.034,0.153-0.072,0.241-0.109c0.088-0.037,0.181-0.075,0.278-0.109c0.097-0.034,0.197-0.066,0.297-0.091
	c0.15-0.025,0.288-0.056,0.413-0.091c0.125-0.034,0.237-0.072,0.337-0.109c0.1-0.037,0.188-0.075,0.263-0.109
	c0.075-0.034,0.138-0.066,0.188-0.091c0-0.075,0-0.144-0.002-0.206s-0.005-0.119-0.011-0.169c-0.006-0.05-0.015-0.094-0.029-0.131
	c-0.014-0.037-0.033-0.069-0.058-0.094c0-0.025-0.006-0.05-0.019-0.073c-0.013-0.023-0.031-0.045-0.056-0.064
	c-0.025-0.019-0.056-0.035-0.094-0.046c-0.038-0.011-0.081-0.017-0.131-0.017c-0.025-0.025-0.056-0.044-0.092-0.058
	c-0.036-0.014-0.076-0.024-0.12-0.03c-0.044-0.006-0.091-0.009-0.139-0.011S43,76.341,42.95,76.341c-0.05,0-0.1,0.006-0.148,0.017
	c-0.049,0.011-0.096,0.026-0.139,0.045c-0.043,0.019-0.084,0.041-0.12,0.065c-0.036,0.023-0.067,0.049-0.092,0.074
	c-0.05,0.025-0.094,0.056-0.133,0.094s-0.074,0.081-0.105,0.131c-0.031,0.05-0.059,0.106-0.085,0.169S42.075,77.066,42.05,77.141
	L42.05,77.141L42.05,77.141L42.05,77.141L42.05,77.141z M43.75,78.341c-0.05,0.025-0.1,0.044-0.152,0.059
	c-0.051,0.016-0.104,0.028-0.16,0.041c-0.056,0.013-0.115,0.025-0.179,0.041s-0.133,0.034-0.209,0.059
	c-0.1,0.025-0.188,0.05-0.266,0.075c-0.078,0.025-0.147,0.05-0.209,0.075s-0.119,0.05-0.172,0.075
	c-0.053,0.025-0.103,0.05-0.153,0.075c-0.025,0.025-0.05,0.056-0.073,0.092c-0.023,0.036-0.046,0.077-0.065,0.121
	c-0.018,0.044-0.034,0.09-0.045,0.139c-0.011,0.048-0.017,0.098-0.017,0.148c0,0.05,0.006,0.1,0.017,0.15
	c0.011,0.05,0.026,0.1,0.045,0.15c0.019,0.05,0.041,0.1,0.064,0.15c0.024,0.05,0.049,0.1,0.074,0.15
	c0.025,0.025,0.056,0.05,0.092,0.073c0.036,0.023,0.076,0.045,0.12,0.064c0.044,0.019,0.091,0.035,0.139,0.046
	c0.048,0.011,0.098,0.017,0.148,0.017s0.1-0.006,0.149-0.017c0.049-0.011,0.095-0.026,0.139-0.045
	c0.044-0.019,0.084-0.041,0.12-0.064c0.036-0.024,0.067-0.049,0.092-0.074c0.05-0.025,0.094-0.056,0.133-0.091
	c0.039-0.034,0.073-0.072,0.104-0.109c0.032-0.037,0.06-0.075,0.086-0.109c0.027-0.034,0.052-0.066,0.077-0.091
	c0.025-0.05,0.044-0.106,0.058-0.169s0.023-0.131,0.029-0.206c0.007-0.075,0.01-0.156,0.011-0.244
	c0.002-0.088,0.002-0.181,0.002-0.281v-0.075v-0.075v-0.075V78.341L43.75,78.341L43.75,78.341L43.75,78.341L43.75,78.341z"/>
<path id="path18374" style="fill:#003366;" d="M45.75,74.641v-0.35v-0.35v-0.35v-0.35h0.325H46.4h0.325h0.325v0.35v0.35v0.35v0.35
	h-0.325H46.4h-0.325H45.75z M45.75,81.141v-1.45v-1.45v-1.45v-1.45h0.325H46.4h0.325h0.325v1.45v1.45v1.45v1.45h-0.325H46.4h-0.325
	H45.75z"/>
<path id="path18376" style="fill:#003366;" d="M47.75,81.141v-2v-2v-2v-2h0.325H48.4h0.325h0.325v2v2v2v2h-0.325H48.4h-0.325H47.75z
	"/>
<path id="path18378" style="fill:#003366;" d="M50.65,81.141l-0.375-1.45l-0.375-1.45l-0.375-1.45l-0.375-1.45h0.3h0.3h0.3h0.3
	l0.225,0.95l0.225,0.95l0.225,0.95l0.225,0.95l0.2-0.95l0.2-0.95l0.2-0.95l0.2-0.95h0.3h0.3h0.3h0.3l0.2,0.95l0.2,0.95l0.2,0.95
	l0.2,0.95l0.225-0.95l0.225-0.95l0.225-0.95l0.225-0.95h0.3h0.3h0.3h0.3l-0.375,1.45l-0.375,1.45l-0.375,1.45l-0.375,1.45h-0.3h-0.3
	h-0.3h-0.3l-0.2-0.925l-0.2-0.925l-0.2-0.925l-0.2-0.925l-0.2,0.925l-0.2,0.925l-0.2,0.925l-0.2,0.925h-0.3h-0.3h-0.3H50.65
	L50.65,81.141L50.65,81.141L50.65,81.141L50.65,81.141z"/>
<path id="path18380" style="fill:#003366;" d="M57.35,77.141l-0.275-0.075L56.8,76.991l-0.275-0.075l-0.275-0.075
	c0.025-0.15,0.062-0.287,0.109-0.414c0.047-0.127,0.103-0.242,0.166-0.348c0.062-0.106,0.131-0.203,0.203-0.293
	c0.072-0.089,0.147-0.17,0.222-0.245c0.075-0.075,0.163-0.137,0.261-0.189c0.098-0.052,0.208-0.092,0.327-0.123
	c0.118-0.032,0.247-0.054,0.382-0.068c0.136-0.014,0.28-0.02,0.43-0.02c0.125,0,0.244,0.006,0.356,0.017
	c0.112,0.011,0.219,0.026,0.319,0.045c0.1,0.019,0.194,0.04,0.281,0.064c0.088,0.023,0.169,0.048,0.244,0.073
	s0.144,0.062,0.206,0.108s0.119,0.098,0.169,0.154c0.05,0.057,0.094,0.116,0.131,0.174c0.037,0.058,0.069,0.114,0.094,0.164
	c0.025,0.075,0.05,0.156,0.073,0.247c0.023,0.091,0.045,0.191,0.064,0.303s0.034,0.238,0.045,0.378
	c0.011,0.141,0.017,0.297,0.017,0.472v0.45v0.45v0.45v0.45c0,0.125,0,0.244,0.001,0.355c0.002,0.111,0.005,0.214,0.011,0.307
	c0.007,0.094,0.017,0.179,0.031,0.253c0.014,0.074,0.033,0.136,0.058,0.186c0,0.05,0.006,0.106,0.017,0.167
	c0.011,0.061,0.026,0.126,0.045,0.195c0.019,0.069,0.041,0.141,0.065,0.215c0.023,0.074,0.048,0.149,0.073,0.224h-0.3h-0.3h-0.3
	h-0.3l-0.05-0.15l-0.05-0.15l-0.05-0.15l-0.05-0.15c-0.05,0.075-0.1,0.138-0.151,0.192s-0.104,0.102-0.16,0.146
	c-0.057,0.044-0.116,0.084-0.18,0.126c-0.064,0.042-0.133,0.086-0.208,0.136c-0.05,0.025-0.106,0.05-0.167,0.073
	c-0.061,0.023-0.126,0.045-0.195,0.064c-0.069,0.019-0.141,0.035-0.215,0.046s-0.149,0.017-0.224,0.017
	c-0.125,0-0.237-0.012-0.341-0.036c-0.103-0.023-0.197-0.058-0.284-0.101c-0.087-0.044-0.169-0.097-0.247-0.158
	c-0.078-0.061-0.153-0.13-0.228-0.205c-0.075-0.075-0.138-0.156-0.189-0.244c-0.051-0.087-0.092-0.181-0.123-0.281
	c-0.031-0.1-0.053-0.206-0.067-0.319c-0.014-0.112-0.021-0.231-0.021-0.356c0-0.075,0.006-0.15,0.017-0.225
	c0.011-0.075,0.026-0.15,0.045-0.225c0.019-0.075,0.041-0.15,0.065-0.225c0.023-0.075,0.049-0.15,0.073-0.225
	c0.025-0.05,0.056-0.1,0.092-0.15c0.036-0.05,0.076-0.1,0.12-0.15c0.044-0.05,0.091-0.1,0.139-0.15c0.049-0.05,0.098-0.1,0.148-0.15
	c0.05-0.025,0.112-0.056,0.184-0.091c0.072-0.034,0.153-0.072,0.241-0.109c0.088-0.037,0.181-0.075,0.278-0.109
	c0.097-0.034,0.197-0.066,0.297-0.091c0.15-0.025,0.288-0.056,0.413-0.091c0.125-0.034,0.237-0.072,0.337-0.109
	s0.188-0.075,0.263-0.109c0.075-0.034,0.137-0.066,0.187-0.091c0-0.075,0-0.144-0.001-0.206s-0.005-0.119-0.011-0.169
	c-0.007-0.05-0.016-0.094-0.03-0.131c-0.014-0.037-0.033-0.069-0.058-0.094c0-0.025-0.006-0.05-0.019-0.073
	c-0.013-0.023-0.031-0.045-0.056-0.064c-0.025-0.019-0.056-0.035-0.094-0.046c-0.038-0.011-0.081-0.017-0.131-0.017
	c-0.025-0.025-0.056-0.044-0.092-0.058c-0.036-0.014-0.077-0.024-0.121-0.03c-0.043-0.006-0.09-0.009-0.139-0.011
	c-0.048-0.002-0.098-0.002-0.148-0.002s-0.1,0.006-0.148,0.017c-0.048,0.011-0.095,0.026-0.139,0.045
	c-0.044,0.019-0.084,0.04-0.12,0.064c-0.036,0.024-0.068,0.049-0.093,0.074c-0.05,0.025-0.094,0.056-0.133,0.094
	s-0.073,0.081-0.104,0.131c-0.031,0.05-0.06,0.106-0.086,0.169C57.4,76.998,57.375,77.066,57.35,77.141L57.35,77.141L57.35,77.141
	L57.35,77.141L57.35,77.141z M59.05,78.341c-0.05,0.025-0.1,0.044-0.151,0.059c-0.051,0.016-0.104,0.028-0.16,0.041
	c-0.056,0.013-0.115,0.025-0.179,0.041s-0.133,0.034-0.208,0.059c-0.1,0.025-0.187,0.05-0.266,0.075
	c-0.078,0.025-0.147,0.05-0.209,0.075c-0.063,0.025-0.12,0.05-0.173,0.075c-0.053,0.025-0.103,0.05-0.153,0.075
	c-0.025,0.025-0.05,0.056-0.073,0.092c-0.023,0.036-0.046,0.077-0.065,0.121c-0.019,0.044-0.034,0.09-0.045,0.139
	c-0.011,0.048-0.017,0.098-0.017,0.148c0,0.05,0.006,0.1,0.017,0.15c0.011,0.05,0.026,0.1,0.045,0.15
	c0.019,0.05,0.041,0.1,0.064,0.15c0.024,0.05,0.049,0.1,0.074,0.15c0.025,0.025,0.056,0.05,0.092,0.073
	c0.036,0.023,0.076,0.045,0.12,0.064c0.044,0.019,0.091,0.035,0.139,0.046c0.049,0.011,0.099,0.017,0.149,0.017
	s0.1-0.006,0.148-0.017c0.048-0.011,0.095-0.026,0.139-0.045c0.044-0.018,0.084-0.04,0.12-0.064
	c0.036-0.024,0.068-0.049,0.093-0.074c0.05-0.025,0.094-0.056,0.133-0.091c0.039-0.034,0.074-0.072,0.105-0.109
	c0.031-0.037,0.059-0.075,0.086-0.109c0.027-0.034,0.052-0.066,0.076-0.091c0.025-0.05,0.044-0.106,0.058-0.169
	c0.014-0.062,0.024-0.131,0.03-0.206c0.006-0.075,0.009-0.156,0.011-0.244s0.001-0.181,0.001-0.281v-0.075v-0.075v-0.075V78.341
	L59.05,78.341L59.05,78.341L59.05,78.341L59.05,78.341z"/>
<path id="path18382" style="fill:#003366;" d="M60.45,75.341h0.325H61.1h0.325h0.325l0.275,1.025l0.275,1.025l0.275,1.025
	l0.275,1.025l0.275-1.025l0.275-1.025l0.275-1.025l0.275-1.025h0.325H64.6h0.325h0.325l-0.4,1.4l-0.4,1.4l-0.4,1.4l-0.4,1.4
	l-0.075,0.275L63.5,81.491l-0.075,0.275l-0.075,0.275c-0.025,0.1-0.056,0.194-0.091,0.281s-0.072,0.169-0.109,0.244
	c-0.037,0.075-0.075,0.144-0.109,0.206c-0.034,0.062-0.066,0.119-0.091,0.169c-0.025,0.05-0.056,0.094-0.092,0.133
	c-0.036,0.039-0.077,0.074-0.121,0.105c-0.044,0.031-0.09,0.059-0.139,0.086c-0.048,0.026-0.098,0.051-0.148,0.076
	c-0.05,0.025-0.106,0.05-0.167,0.073c-0.061,0.023-0.126,0.045-0.195,0.064c-0.069,0.019-0.141,0.035-0.215,0.046
	s-0.149,0.017-0.224,0.017c-0.05,0-0.106,0-0.166-0.001c-0.059-0.002-0.122-0.005-0.184-0.011c-0.062-0.007-0.125-0.016-0.184-0.03
	c-0.059-0.014-0.116-0.033-0.166-0.058l-0.025-0.3l-0.025-0.3l-0.025-0.3l-0.025-0.3c0.05,0,0.1,0.006,0.148,0.016
	c0.048,0.009,0.095,0.022,0.139,0.034c0.044,0.013,0.085,0.025,0.121,0.034s0.067,0.016,0.092,0.016c0.05,0,0.1-0.006,0.15-0.017
	c0.05-0.011,0.1-0.026,0.15-0.045c0.05-0.019,0.1-0.04,0.15-0.064c0.05-0.024,0.1-0.049,0.15-0.073c0.05-0.05,0.094-0.1,0.133-0.155
	c0.039-0.055,0.074-0.114,0.105-0.183c0.031-0.069,0.059-0.147,0.085-0.24c0.027-0.092,0.051-0.199,0.076-0.324l-0.475-1.475
	L61.4,78.291l-0.475-1.475L60.45,75.341L60.45,75.341L60.45,75.341L60.45,75.341L60.45,75.341z"/>
</svg>
