<?xml version="1.0" encoding="iso-8859-1"?>
<!-- Generator: Adobe Illustrator 25.4.1, SVG Export Plug-In . SVG Version: 6.00 Build 0)  -->
<svg version="1.1"
	 id="svg8" xmlns:cc="http://creativecommons.org/ns#" xmlns:dc="http://purl.org/dc/elements/1.1/" xmlns:inkscape="http://www.inkscape.org/namespaces/inkscape" xmlns:rdf="http://www.w3.org/1999/02/22-rdf-syntax-ns#" xmlns:sodipodi="http://sodipodi.sourceforge.net/DTD/sodipodi-0.dtd" xmlns:svg="http://www.w3.org/2000/svg"
	 xmlns="http://www.w3.org/2000/svg" xmlns:xlink="http://www.w3.org/1999/xlink" x="0px" y="0px" viewBox="0 0 100 100"
	 style="enable-background:new 0 0 100 100;" xml:space="preserve">
<sodipodi:namedview  bordercolor="#666666" borderopacity="1.0" id="base" inkscape:current-layer="layer3" inkscape:cx="-302.11164" inkscape:cy="84.283015" inkscape:document-units="px" inkscape:guide-bbox="true" inkscape:lockguides="true" inkscape:pageopacity="0.0" inkscape:pageshadow="2" inkscape:window-height="657" inkscape:window-maximized="1" inkscape:window-width="1280" inkscape:window-x="-8" inkscape:window-y="-8" inkscape:zoom="0.765625" pagecolor="#ffffff" showgrid="false" showguides="false" units="px">
	<sodipodi:guide  id="guide5700" inkscape:locked="true" orientation="0,1" position="-0.93017576,23.874511"></sodipodi:guide>
	<sodipodi:guide  id="guide5726" inkscape:locked="true" orientation="0,1" position="-26.098869,26.473047"></sodipodi:guide>
	<sodipodi:guide  id="guide5880" inkscape:locked="true" orientation="0,1" position="104.51042,-2.9104167"></sodipodi:guide>
	<sodipodi:guide  id="guide6001" inkscape:locked="true" orientation="0,1" position="-71.093695,29.279377"></sodipodi:guide>
	<sodipodi:guide  id="guide6005" inkscape:locked="true" orientation="0,1" position="-46.304445,58.278122"></sodipodi:guide>
	<sodipodi:guide  id="guide6736" inkscape:locked="true" orientation="0,1" position="-0.10335287,20.205485"></sodipodi:guide>
	<sodipodi:guide  id="guide6738" inkscape:locked="true" orientation="0,1" position="-0.43848907,22.874513"></sodipodi:guide>
	<inkscape:grid  id="grid2386" type="xygrid"></inkscape:grid>
</sodipodi:namedview>
<g id="g1180" transform="translate(0,-229.2666)" inkscape:groupmode="layer" inkscape:label="halo:always" style="display:none;">
	<g id="g1210" inkscape:groupmode="layer" inkscape:label="-gray-halo:iter3" style="display:inline;">
		<g id="circle1208">
			<path style="fill:#919395;" d="M50,329.3c-27.6,0-50-22.4-50-50s22.4-50,50-50s50,22.4,50,50S77.6,329.3,50,329.3z M50,237.9
				c-22.8,0-41.4,18.6-41.4,41.4s18.6,41.4,41.4,41.4s41.4-18.6,41.4-41.4S72.8,237.9,50,237.9z"/>
		</g>
	</g>
	<g id="g1206" inkscape:groupmode="layer" inkscape:label="-red-halo:iter3" style="display:inline;">
		<g id="circle1204">
			<path style="fill:#C52038;" d="M50,329.3c-27.6,0-50-22.4-50-50s22.4-50,50-50s50,22.4,50,50S77.6,329.3,50,329.3z M50,237.9
				c-22.8,0-41.4,18.6-41.4,41.4s18.6,41.4,41.4,41.4s41.4-18.6,41.4-41.4S72.8,237.9,50,237.9z"/>
		</g>
	</g>
	<g id="g1202" inkscape:groupmode="layer" inkscape:label="-green-halo:iter3" style="display:inline;">
		<g id="circle1200">
			<path style="fill:#5E9C42;" d="M50,329.3c-27.6,0-50-22.4-50-50s22.4-50,50-50s50,22.4,50,50S77.6,329.3,50,329.3z M50,237.9
				c-22.8,0-41.4,18.6-41.4,41.4s18.6,41.4,41.4,41.4s41.4-18.6,41.4-41.4S72.8,237.9,50,237.9z"/>
		</g>
	</g>
	<g id="layer18" inkscape:groupmode="layer" inkscape:label="-yellow-halo:iter3" style="display:inline;">
		<g id="circle1178-4">
			<path style="fill:#FBBA16;" d="M50,329.3c-27.6,0-50-22.4-50-50s22.4-50,50-50s50,22.4,50,50S77.6,329.3,50,329.3z M50,237.9
				c-22.8,0-41.4,18.6-41.4,41.4s18.6,41.4,41.4,41.4s41.4-18.6,41.4-41.4S72.8,237.9,50,237.9z"/>
		</g>
	</g>
</g>
<path id="path11401" inkscape:connector-curvature="0" inkscape:export-filename="C:\Users\Charlotte Abel\Documents\Symbology\Components\For Distribution\transportation-icon_railway-gray.png" inkscape:export-xdpi="300.00461" inkscape:export-ydpi="300.00461" style="fill:#003366;" d="
	M34.5,63.5h7.75H50h7.75h7.75c0.6,0,1.175-0.125,1.7-0.352c0.525-0.226,1-0.554,1.4-0.96c0.4-0.406,0.725-0.89,0.95-1.43
	c0.225-0.539,0.35-1.133,0.35-1.758v-7.95V43.1v-7.95V27.2c0,0-0.138-0.425-0.62-1.062c-0.483-0.638-1.311-1.487-2.692-2.337
	c-1.382-0.85-3.316-1.7-6.011-2.338C57.881,20.825,54.425,20.4,50,20.4s-7.881,0.425-10.577,1.062
	c-2.695,0.638-4.63,1.488-6.011,2.337c-1.381,0.85-2.209,1.7-2.692,2.337C30.238,26.775,30.1,27.2,30.1,27.2v7.925v7.925v7.925V58.9
	c0,0.625,0.125,1.225,0.35,1.773s0.55,1.045,0.95,1.464c0.4,0.419,0.875,0.76,1.4,0.996C33.325,63.369,33.9,63.5,34.5,63.5z"/>
<path id="path11399" inkscape:connector-curvature="0" inkscape:export-filename="C:\Users\Charlotte Abel\Documents\Symbology\Components\For Distribution\transportation-icon_railway-gray.png" inkscape:export-xdpi="300.00461" inkscape:export-ydpi="300.00461" style="fill:#FFFFFF;" d="
	M37.8,58.9c-0.45,0-0.881-0.094-1.275-0.264s-0.75-0.417-1.05-0.723c-0.3-0.306-0.544-0.672-0.712-1.08S34.5,55.975,34.5,55.5
	c0-0.475,0.094-0.925,0.263-1.333s0.412-0.774,0.712-1.08c0.3-0.306,0.656-0.553,1.05-0.723S37.35,52.1,37.8,52.1
	s0.881,0.094,1.275,0.264s0.75,0.417,1.05,0.723c0.3,0.307,0.544,0.672,0.712,1.08S41.1,55.025,41.1,55.5
	c0,0.475-0.088,0.925-0.249,1.333s-0.395,0.774-0.689,1.08c-0.293,0.306-0.646,0.553-1.045,0.723
	C38.719,58.806,38.275,58.9,37.8,58.9z"/>
<path id="path11397" inkscape:connector-curvature="0" inkscape:export-filename="C:\Users\Charlotte Abel\Documents\Symbology\Components\For Distribution\transportation-icon_railway-gray.png" inkscape:export-xdpi="300.00461" inkscape:export-ydpi="300.00461" style="fill:#FFFFFF;" d="
	M62.2,58.9c-0.45,0-0.881-0.094-1.275-0.264s-0.75-0.417-1.05-0.723c-0.3-0.306-0.544-0.672-0.712-1.08S58.9,55.975,58.9,55.5
	c0-0.475,0.094-0.925,0.263-1.333s0.412-0.774,0.712-1.08c0.3-0.306,0.656-0.553,1.05-0.723S61.75,52.1,62.2,52.1
	s0.881,0.094,1.275,0.264s0.75,0.417,1.05,0.723c0.3,0.307,0.544,0.672,0.713,1.08c0.169,0.408,0.262,0.858,0.262,1.333
	c0,0.475-0.094,0.925-0.262,1.333c-0.169,0.408-0.413,0.774-0.713,1.08c-0.3,0.306-0.656,0.553-1.05,0.723
	C63.081,58.806,62.65,58.9,62.2,58.9z"/>
<path id="path8129" inkscape:connector-curvature="0" inkscape:export-filename="C:\Users\Charlotte Abel\Documents\Symbology\Components\For Distribution\transportation-icon_railway-gray.png" inkscape:export-xdpi="300.00461" inkscape:export-ydpi="300.00461" style="fill:#FFFFFF;" d="
	M32.3,31.8c0-0.325,0.062-0.631,0.175-0.908c0.113-0.277,0.275-0.523,0.475-0.729c0.2-0.206,0.438-0.372,0.7-0.486
	c0.263-0.114,0.55-0.177,0.85-0.177h7.75H50h7.75h7.75c0.3,0,0.588,0.062,0.85,0.177c0.263,0.114,0.5,0.28,0.7,0.486
	c0.2,0.207,0.363,0.453,0.475,0.73S67.7,31.475,67.7,31.8v2.825v2.825v2.825V43.1c0,0.325-0.062,0.631-0.175,0.908
	c-0.112,0.277-0.275,0.524-0.475,0.73c-0.2,0.206-0.437,0.371-0.7,0.486C66.088,45.338,65.8,45.4,65.5,45.4h-7.75H50h-7.75H34.5
	c-0.3,0-0.588-0.062-0.85-0.176c-0.263-0.114-0.5-0.279-0.7-0.486c-0.2-0.206-0.362-0.453-0.475-0.73
	C32.362,43.732,32.3,43.426,32.3,43.1v-2.825V37.45v-2.825V31.8z"/>
<polygon id="polygon8131" inkscape:export-filename="C:\Users\Charlotte Abel\Documents\Symbology\Components\For Distribution\transportation-icon_railway-gray.png" inkscape:export-xdpi="300.00461" inkscape:export-ydpi="300.00461" style="fill:#003366;" points="
	36.7,65.9 35.05,68.45 33.4,71 31.75,73.55 30.1,76.1 31.75,76.1 33.4,76.1 35.05,76.1 36.7,76.1 37.8,73.55 38.9,71 40,68.45 
	41.1,65.9 40,65.9 38.9,65.9 37.8,65.9 ">
</polygon>
<polygon id="polygon8133" inkscape:export-filename="C:\Users\Charlotte Abel\Documents\Symbology\Components\For Distribution\transportation-icon_railway-gray.png" inkscape:export-xdpi="300.00461" inkscape:export-ydpi="300.00461" style="fill:#003366;" points="
	63.3,76.1 64.95,76.1 66.6,76.1 68.25,76.1 69.9,76.1 68.25,73.55 66.6,71 64.95,68.45 63.3,65.9 62.2,65.9 61.1,65.9 60,65.9 
	58.9,65.9 60,68.45 61.1,71 62.2,73.55 ">
</polygon>
<polygon id="rect8135" inkscape:export-filename="C:\Users\Charlotte Abel\Documents\Symbology\Components\For Distribution\transportation-icon_railway-gray.png" inkscape:export-xdpi="300.00461" inkscape:export-ydpi="300.00461" style="fill:#003366;" points="
	35.9,67.4 42.85,67.4 49.8,67.4 56.75,67.4 63.7,67.4 63.7,68.125 63.7,68.85 63.7,69.575 63.7,70.3 56.75,70.3 49.8,70.3 
	42.85,70.3 35.9,70.3 35.9,69.575 35.9,68.85 35.9,68.125 ">
</polygon>
<polygon id="rect8137" inkscape:export-filename="C:\Users\Charlotte Abel\Documents\Symbology\Components\For Distribution\transportation-icon_railway-gray.png" inkscape:export-xdpi="300.00461" inkscape:export-ydpi="300.00461" style="fill:#003366;" points="
	35.5,71.9 42.45,71.9 49.4,71.9 56.35,71.9 63.3,71.9 63.3,72.625 63.3,73.35 63.3,74.075 63.3,74.8 56.35,74.8 49.4,74.8 
	42.45,74.8 35.5,74.8 35.5,74.075 35.5,73.35 35.5,72.625 ">
</polygon>
</svg>
