<?xml version="1.0" encoding="iso-8859-1"?>
<!-- Generator: Adobe Illustrator 25.4.1, SVG Export Plug-In . SVG Version: 6.00 Build 0)  -->
<svg version="1.1"
	 id="svg8" inkscape:export-filename="C:\Users\Charlotte Abel\Documents\Symbology\Components\For Distribution\communications_alerts-warnings-messages.png" inkscape:export-xdpi="300.00464" inkscape:export-ydpi="300.00464" inkscape:version="0.91 r13725" sodipodi:docname="transportation_maritime-with-label-clr_256x256.svg" xmlns:cc="http://creativecommons.org/ns#" xmlns:dc="http://purl.org/dc/elements/1.1/" xmlns:inkscape="http://www.inkscape.org/namespaces/inkscape" xmlns:rdf="http://www.w3.org/1999/02/22-rdf-syntax-ns#" xmlns:sodipodi="http://sodipodi.sourceforge.net/DTD/sodipodi-0.dtd" xmlns:svg="http://www.w3.org/2000/svg"
	 xmlns="http://www.w3.org/2000/svg" xmlns:xlink="http://www.w3.org/1999/xlink" x="0px" y="0px" viewBox="0 0 100 100"
	 style="enable-background:new 0 0 100 100;" xml:space="preserve">
<sodipodi:namedview  bordercolor="#666666" borderopacity="1.0" id="base" inkscape:current-layer="g12280" inkscape:cx="-302.11164" inkscape:cy="84.283015" inkscape:document-units="px" inkscape:guide-bbox="true" inkscape:lockguides="true" inkscape:pageopacity="0.0" inkscape:pageshadow="2" inkscape:window-height="657" inkscape:window-maximized="1" inkscape:window-width="1280" inkscape:window-x="-8" inkscape:window-y="-8" inkscape:zoom="0.765625" pagecolor="#ffffff" showgrid="false" showguides="false" units="px">
	<sodipodi:guide  id="guide5700" inkscape:locked="true" orientation="0,1" position="-0.93017576,23.874511"></sodipodi:guide>
	<sodipodi:guide  id="guide5726" inkscape:locked="true" orientation="0,1" position="-26.098869,26.473047"></sodipodi:guide>
	<sodipodi:guide  id="guide5880" inkscape:locked="true" orientation="0,1" position="104.51042,-2.9104167"></sodipodi:guide>
	<sodipodi:guide  id="guide6001" inkscape:locked="true" orientation="0,1" position="-71.093695,29.279377"></sodipodi:guide>
	<sodipodi:guide  id="guide6005" inkscape:locked="true" orientation="0,1" position="-46.304445,58.278122"></sodipodi:guide>
	<sodipodi:guide  id="guide6736" inkscape:locked="true" orientation="0,1" position="-0.10335287,20.205485"></sodipodi:guide>
	<sodipodi:guide  id="guide6738" inkscape:locked="true" orientation="0,1" position="-0.43848907,22.874513"></sodipodi:guide>
	<inkscape:grid  id="grid2386" type="xygrid"></inkscape:grid>
</sodipodi:namedview>
<g id="g1180" transform="translate(0,-229.2666)" inkscape:groupmode="layer" inkscape:label="halo:always" style="display:none;">
	<g id="g1210" inkscape:groupmode="layer" inkscape:label="-gray-halo:iter3" style="display:inline;">
		<g id="circle1208">
			<path style="fill:#919395;" d="M50,329.3c-27.6,0-50-22.4-50-50s22.4-50,50-50s50,22.4,50,50S77.6,329.3,50,329.3z M50,237.9
				c-22.8,0-41.4,18.6-41.4,41.4s18.6,41.4,41.4,41.4s41.4-18.6,41.4-41.4S72.8,237.9,50,237.9z"/>
		</g>
	</g>
	<g id="g1206" inkscape:groupmode="layer" inkscape:label="-red-halo:iter3" style="display:inline;">
		<g id="circle1204">
			<path style="fill:#C52038;" d="M50,329.3c-27.6,0-50-22.4-50-50s22.4-50,50-50s50,22.4,50,50S77.6,329.3,50,329.3z M50,237.9
				c-22.8,0-41.4,18.6-41.4,41.4s18.6,41.4,41.4,41.4s41.4-18.6,41.4-41.4S72.8,237.9,50,237.9z"/>
		</g>
	</g>
	<g id="g1202" inkscape:groupmode="layer" inkscape:label="-green-halo:iter3" style="display:inline;">
		<g id="circle1200">
			<path style="fill:#5E9C42;" d="M50,329.3c-27.6,0-50-22.4-50-50s22.4-50,50-50s50,22.4,50,50S77.6,329.3,50,329.3z M50,237.9
				c-22.8,0-41.4,18.6-41.4,41.4s18.6,41.4,41.4,41.4s41.4-18.6,41.4-41.4S72.8,237.9,50,237.9z"/>
		</g>
	</g>
	<g id="layer18" inkscape:groupmode="layer" inkscape:label="-yellow-halo:iter3" style="display:inline;">
		<g id="circle1178-4">
			<path style="fill:#FBBA16;" d="M50,329.3c-27.6,0-50-22.4-50-50s22.4-50,50-50s50,22.4,50,50S77.6,329.3,50,329.3z M50,237.9
				c-22.8,0-41.4,18.6-41.4,41.4s18.6,41.4,41.4,41.4s41.4-18.6,41.4-41.4S72.8,237.9,50,237.9z"/>
		</g>
	</g>
</g>
<path id="path12262" inkscape:connector-curvature="0" inkscape:export-filename="C:\Users\Charlotte Abel\Documents\Symbology\Components\transportation-icon_maritime-4.png" inkscape:export-xdpi="300.00461" inkscape:export-ydpi="300.00461" style="fill-rule:evenodd;clip-rule:evenodd;fill:#003366;" d="
	M50.539,34.313l-5.449,1.267l-5.449,1.267l-5.449,1.267l-5.449,1.267l1.732,4.119l1.732,4.119l1.732,4.119l1.732,4.119
	c0.211-0.106,0.428-0.201,0.65-0.285c0.222-0.084,0.449-0.158,0.681-0.222s0.47-0.116,0.713-0.158
	c0.243-0.042,0.491-0.074,0.745-0.095c0.296-0.021,0.597-0.016,0.899,0.013c0.302,0.029,0.606,0.082,0.907,0.156
	c0.301,0.074,0.599,0.169,0.891,0.283c0.292,0.114,0.577,0.246,0.851,0.393l0,0l0,0l0,0l0,0c0.169,0.084,0.385,0.148,0.618,0.194
	c0.232,0.046,0.481,0.075,0.713,0.091c0.232,0.016,0.449,0.018,0.618,0.012s0.29-0.022,0.333-0.043
	c0.296-0.148,0.591-0.29,0.888-0.422c0.297-0.132,0.595-0.253,0.896-0.359c0.301-0.106,0.605-0.196,0.913-0.265
	c0.308-0.069,0.619-0.116,0.936-0.137c0.317-0.021,0.639-0.016,0.962,0.016c0.323,0.032,0.648,0.09,0.97,0.174
	c0.322,0.084,0.642,0.195,0.955,0.333c0.313,0.137,0.619,0.301,0.915,0.491l0.021,0.021l0.021,0.021l0.021,0.021l0.021,0.021l0,0
	l0,0l0,0l0,0c0.021,0.021,0.058,0.042,0.11,0.062c0.051,0.02,0.117,0.038,0.196,0.054c0.079,0.016,0.172,0.029,0.276,0.038
	c0.104,0.009,0.221,0.015,0.348,0.015s0.238-0.005,0.335-0.014c0.098-0.009,0.182-0.022,0.256-0.038
	c0.074-0.016,0.137-0.034,0.193-0.054c0.055-0.02,0.103-0.041,0.145-0.062l0,0l0,0l0,0l0,0l-0.021,0.021l-0.021,0.021l-0.021,0.021
	l-0.021,0.021l0.021-0.021l0.021-0.021l0.021-0.021l0.021-0.021l0.021-0.021l0.021-0.021l0.021-0.021l0.021-0.021
	c0.275-0.169,0.565-0.322,0.867-0.455s0.617-0.247,0.939-0.337c0.322-0.09,0.652-0.155,0.986-0.194
	c0.334-0.038,0.672-0.049,1.01-0.028c0.317,0.021,0.628,0.069,0.936,0.137c0.308,0.069,0.611,0.158,0.913,0.264
	s0.599,0.227,0.896,0.359c0.297,0.132,0.592,0.275,0.888,0.422l0,0l0,0l0,0l0,0l0,0l0,0l0,0l0,0
	c0.021,0.021,0.132,0.037,0.296,0.044c0.164,0.007,0.38,0.004,0.613-0.012c0.232-0.016,0.481-0.045,0.708-0.091
	c0.227-0.046,0.433-0.11,0.581-0.194l0.613-0.317l0.613-0.317l0.613-0.317l0.613-0.317l1.605-3.823l1.605-3.823l1.605-3.823
	l1.605-3.823l-5.428-1.267l-5.428-1.267l-5.428-1.267L50.539,34.313z M51.806,56.111c-0.021,0-0.026,0.005-0.022,0.013
	c0.004,0.008,0.017,0.018,0.033,0.029c0.016,0.011,0.034,0.021,0.048,0.029c0.014,0.008,0.025,0.013,0.025,0.013l-0.021-0.021
	l-0.021-0.021l-0.021-0.021L51.806,56.111L51.806,56.111L51.806,56.111L51.806,56.111L51.806,56.111z M48.427,59.659
	c-0.021,0-0.042,0-0.063,0s-0.042,0-0.063,0s-0.042,0-0.063,0s-0.042,0-0.063,0c-0.084,0-0.18,0.011-0.284,0.032
	s-0.218,0.053-0.34,0.095c-0.121,0.042-0.251,0.095-0.386,0.158s-0.278,0.137-0.426,0.222c0.084-0.021,0.174-0.042,0.268-0.062
	c0.094-0.02,0.192-0.038,0.292-0.054c0.1-0.016,0.203-0.029,0.307-0.039s0.21-0.015,0.315-0.015c0.148,0,0.296,0,0.444,0.003
	c0.148,0.003,0.296,0.008,0.444,0.018c0.148,0.011,0.296,0.026,0.444,0.05s0.296,0.055,0.444,0.098
	c-0.063-0.042-0.132-0.084-0.199-0.124s-0.133-0.077-0.192-0.108c-0.058-0.032-0.108-0.058-0.144-0.077
	c-0.036-0.018-0.057-0.029-0.057-0.029l0.063,0.042l0.063,0.042l0.063,0.042l0.063,0.042c-0.127-0.063-0.232-0.116-0.323-0.16
	c-0.091-0.044-0.167-0.078-0.236-0.104c-0.069-0.027-0.13-0.045-0.189-0.057C48.548,59.665,48.49,59.659,48.427,59.659
	L48.427,59.659L48.427,59.659L48.427,59.659L48.427,59.659z M46.737,60.166c-0.169,0.042-0.338,0.09-0.507,0.143
	c-0.169,0.053-0.338,0.111-0.507,0.174c-0.169,0.063-0.338,0.132-0.507,0.206c-0.169,0.074-0.338,0.153-0.507,0.238l0,0l0,0l0,0l0,0
	c0.148-0.021,0.29-0.053,0.43-0.092c0.14-0.04,0.277-0.087,0.415-0.14c0.137-0.053,0.275-0.111,0.415-0.172s0.283-0.124,0.43-0.187
	c0.021-0.021,0.042-0.042,0.065-0.062s0.046-0.038,0.073-0.054c0.027-0.016,0.056-0.029,0.088-0.038S46.695,60.166,46.737,60.166
	L46.737,60.166L46.737,60.166L46.737,60.166L46.737,60.166z M56.96,59.659c-0.063,0-0.121,0.005-0.178,0.017
	c-0.057,0.012-0.112,0.031-0.171,0.057c-0.058,0.026-0.118,0.06-0.186,0.104c-0.067,0.044-0.141,0.096-0.226,0.16l0.042-0.042
	l0.042-0.042l0.042-0.042l0.042-0.042c0,0-0.021,0.011-0.057,0.028c-0.036,0.017-0.086,0.041-0.144,0.067
	c-0.058,0.027-0.124,0.056-0.191,0.084s-0.136,0.054-0.199,0.075c0.148-0.042,0.296-0.079,0.444-0.11
	c0.148-0.03,0.296-0.054,0.444-0.07c0.148-0.016,0.296-0.023,0.444-0.022c0.148,0.001,0.296,0.012,0.444,0.033
	c0.106,0,0.206,0.005,0.304,0.014c0.098,0.009,0.193,0.022,0.288,0.038c0.095,0.016,0.19,0.035,0.288,0.054
	c0.098,0.02,0.198,0.041,0.304,0.062c-0.169-0.084-0.327-0.153-0.474-0.21c-0.147-0.057-0.281-0.101-0.403-0.138
	c-0.121-0.037-0.229-0.066-0.323-0.091c-0.094-0.025-0.173-0.046-0.236-0.067c-0.042,0.021-0.079,0.037-0.112,0.049
	c-0.033,0.012-0.062,0.02-0.088,0.025c-0.027,0.005-0.05,0.008-0.073,0.01S56.981,59.659,56.96,59.659L56.96,59.659L56.96,59.659
	L56.96,59.659L56.96,59.659z M58.734,60.166c0.021,0.021,0.048,0.037,0.077,0.05c0.029,0.013,0.061,0.024,0.092,0.034
	c0.032,0.011,0.063,0.021,0.092,0.034c0.029,0.013,0.055,0.029,0.077,0.05l0,0l0,0l0,0l0,0c0,0,0.005,0,0.013,0.001
	c0.008,0.001,0.018,0.004,0.029,0.009c0.011,0.005,0.021,0.013,0.029,0.025c0.008,0.012,0.013,0.028,0.013,0.049h0.042h0.042h0.042
	h0.042c-0.042-0.042-0.09-0.079-0.14-0.111c-0.05-0.032-0.103-0.058-0.156-0.079c-0.053-0.021-0.106-0.037-0.156-0.048
	C58.824,60.172,58.777,60.166,58.734,60.166L58.734,60.166L58.734,60.166L58.734,60.166L58.734,60.166z M38.964,59.744
	c-0.021,0-0.037,0-0.05,0c-0.013,0-0.024,0-0.034,0c-0.011,0-0.021,0-0.034,0c-0.013,0-0.029,0-0.05,0c0,0,0,0-0.001,0
	s-0.004,0-0.01,0s-0.013,0-0.025,0c-0.012,0-0.027,0-0.048,0l0.19,0.042l0.19,0.042l0.19,0.042l0.19,0.042
	c-0.063-0.042-0.121-0.074-0.174-0.098c-0.053-0.024-0.1-0.04-0.143-0.05c-0.042-0.011-0.079-0.016-0.111-0.018
	C39.012,59.744,38.985,59.744,38.964,59.744L38.964,59.744L38.964,59.744L38.964,59.744L38.964,59.744z M54.763,60.504
	c-0.148,0.042-0.296,0.084-0.448,0.124s-0.308,0.077-0.472,0.108c-0.163,0.032-0.335,0.058-0.518,0.077s-0.379,0.029-0.59,0.029l0,0
	l0,0l0,0l0,0l0,0l0,0l0,0l0,0c-0.211,0-0.407-0.011-0.59-0.029s-0.355-0.045-0.518-0.077c-0.163-0.032-0.319-0.069-0.471-0.108
	c-0.152-0.04-0.3-0.082-0.448-0.124c0.084,0.042,0.169,0.079,0.252,0.114c0.083,0.034,0.165,0.066,0.244,0.098
	c0.079,0.032,0.156,0.063,0.229,0.098c0.073,0.034,0.141,0.071,0.205,0.114l0.021,0.021l0.021,0.021l0.021,0.021l0.021,0.021l0,0
	l0,0l0,0l0,0c0.021,0.021,0.058,0.037,0.11,0.05c0.051,0.013,0.117,0.024,0.196,0.034c0.079,0.011,0.172,0.021,0.276,0.034
	c0.104,0.013,0.221,0.029,0.347,0.05c0.127,0,0.238-0.005,0.335-0.014c0.098-0.009,0.182-0.022,0.256-0.038
	c0.074-0.016,0.137-0.034,0.193-0.054c0.055-0.02,0.103-0.041,0.145-0.062l0,0l0,0l0,0l0,0l0,0l0,0l0,0l0,0l0.021-0.021l0.021-0.021
	l0.022-0.022l0.022-0.022c0.106-0.042,0.206-0.079,0.302-0.114c0.096-0.034,0.189-0.066,0.279-0.098
	c0.09-0.032,0.177-0.063,0.262-0.098C54.594,60.583,54.679,60.547,54.763,60.504L54.763,60.504L54.763,60.504L54.763,60.504
	L54.763,60.504z M53.665,61.011l-0.021,0.021l-0.021,0.021l-0.021,0.021l-0.021,0.021l0.021-0.021l0.021-0.021l0.021-0.021
	L53.665,61.011z M51.806,61.011c-0.021,0-0.026,0.005-0.022,0.013c0.004,0.008,0.017,0.018,0.033,0.029
	c0.016,0.011,0.034,0.021,0.048,0.029c0.014,0.008,0.025,0.013,0.025,0.013l-0.021-0.021l-0.021-0.021l-0.021-0.021L51.806,61.011
	L51.806,61.011L51.806,61.011L51.806,61.011L51.806,61.011z"/>
<path id="path12264" inkscape:connector-curvature="0" inkscape:export-filename="C:\Users\Charlotte Abel\Documents\Symbology\Components\transportation-icon_maritime-4.png" inkscape:export-xdpi="300.00461" inkscape:export-ydpi="300.00461" style="fill-rule:evenodd;clip-rule:evenodd;fill:#003366;" d="
	M43.78,16.064h3.295h3.295h3.295h3.295c0.211,0,0.412,0.037,0.594,0.102c0.182,0.065,0.346,0.157,0.483,0.268
	c0.137,0.111,0.248,0.24,0.325,0.379c0.077,0.139,0.119,0.286,0.119,0.434v0.972v0.972v0.972v0.972h-4.013h-4.013h-4.013h-4.013
	v-0.972V19.19v-0.972v-0.972c0-0.148,0.042-0.296,0.116-0.434c0.074-0.139,0.18-0.268,0.306-0.379
	c0.127-0.111,0.275-0.204,0.433-0.268C43.442,16.101,43.611,16.064,43.78,16.064z"/>
<path id="path12266" inkscape:connector-curvature="0" inkscape:export-filename="C:\Users\Charlotte Abel\Documents\Symbology\Components\transportation-icon_maritime-4.png" inkscape:export-xdpi="300.00461" inkscape:export-ydpi="300.00461" style="fill-rule:evenodd;clip-rule:evenodd;fill:#003366;" d="
	M36.936,23.499h6.738h6.738h6.738h6.738c0.549,0,0.961,0.174,1.236,0.436c0.275,0.261,0.412,0.61,0.412,0.958
	c0,0.349-0.137,0.697-0.412,0.958c-0.275,0.261-0.686,0.436-1.236,0.436h-0.465h-0.465h-0.465h-0.465v0.803v0.803v0.803v0.803h0.422
	h0.422h0.422h0.422c0.253,0,0.496,0.048,0.718,0.132s0.422,0.206,0.591,0.354s0.306,0.322,0.401,0.512s0.148,0.396,0.148,0.607
	v1.077v1.077v1.077v1.077l-3.781-0.866l-3.781-0.866l-3.781-0.866l-3.781-0.866l-3.781,0.866l-3.781,0.866l-3.781,0.866
	l-3.781,0.866v-1.077v-1.077V32.18v-1.077c0-0.211,0.053-0.417,0.148-0.607s0.232-0.364,0.401-0.512
	c0.169-0.148,0.37-0.269,0.591-0.354c0.222-0.084,0.465-0.132,0.718-0.132h0.38h0.38h0.38h0.38v-0.803v-0.803v-0.803v-0.803h-0.465
	h-0.465h-0.465h-0.465c-0.486-0.021-0.85-0.206-1.092-0.471c-0.242-0.265-0.36-0.611-0.355-0.955
	c0.005-0.343,0.134-0.684,0.389-0.938C36.049,23.668,36.429,23.499,36.936,23.499z"/>
<path id="path12268" inkscape:connector-curvature="0" inkscape:export-filename="C:\Users\Charlotte Abel\Documents\Symbology\Components\transportation-icon_maritime-4.png" inkscape:export-xdpi="300.00461" inkscape:export-ydpi="300.00461" style="fill-rule:evenodd;clip-rule:evenodd;fill:#E23366;" d="
	M50.539,26.371c0.211,0,0.412,0.037,0.594,0.103c0.182,0.066,0.346,0.161,0.483,0.277c0.137,0.116,0.248,0.253,0.325,0.404
	c0.077,0.15,0.119,0.314,0.119,0.483c0,0.19-0.042,0.364-0.119,0.519c-0.077,0.154-0.187,0.289-0.325,0.4
	c-0.137,0.111-0.301,0.198-0.483,0.258c-0.182,0.059-0.383,0.091-0.594,0.091s-0.412-0.037-0.594-0.103
	c-0.182-0.066-0.346-0.161-0.483-0.277c-0.137-0.116-0.248-0.253-0.325-0.404c-0.077-0.15-0.119-0.314-0.119-0.483
	c-0.021-0.169,0.005-0.333,0.071-0.483s0.172-0.288,0.309-0.404c0.137-0.116,0.306-0.211,0.499-0.277
	C50.09,26.408,50.307,26.371,50.539,26.371z"/>
<path id="path12270" inkscape:connector-curvature="0" inkscape:export-filename="C:\Users\Charlotte Abel\Documents\Symbology\Components\transportation-icon_maritime-4.png" inkscape:export-xdpi="300.00461" inkscape:export-ydpi="300.00461" style="fill:#003366;" d="
	M64.479,58.054c-0.317,0.169-0.676,0.306-1.055,0.408c-0.379,0.102-0.778,0.168-1.174,0.194c-0.396,0.027-0.79,0.013-1.158-0.044
	s-0.711-0.157-1.007-0.305c-0.507-0.275-0.982-0.491-1.435-0.646s-0.883-0.247-1.301-0.274c-0.417-0.026-0.821,0.014-1.221,0.123
	c-0.4,0.11-0.796,0.289-1.197,0.543c0,0-0.042,0.032-0.131,0.079c-0.089,0.048-0.223,0.111-0.408,0.174s-0.42,0.127-0.709,0.174
	c-0.289,0.048-0.632,0.079-1.033,0.079c-0.401,0-0.745-0.032-1.034-0.079c-0.289-0.048-0.524-0.111-0.709-0.174
	c-0.185-0.063-0.32-0.127-0.408-0.174c-0.089-0.048-0.131-0.079-0.131-0.079c-0.401-0.253-0.797-0.428-1.197-0.531
	c-0.4-0.103-0.804-0.135-1.221-0.103c-0.417,0.032-0.847,0.127-1.3,0.277c-0.453,0.15-0.928,0.356-1.435,0.61
	c-0.296,0.148-0.634,0.248-0.995,0.305c-0.362,0.057-0.747,0.07-1.138,0.043s-0.787-0.093-1.17-0.194
	c-0.383-0.101-0.752-0.239-1.09-0.408c-0.444-0.232-0.84-0.396-1.215-0.498c-0.375-0.102-0.729-0.141-1.088-0.126
	c-0.359,0.016-0.723,0.087-1.119,0.208c-0.396,0.12-0.824,0.289-1.31,0.5c-0.359,0.169-0.713,0.296-1.064,0.38
	s-0.7,0.127-1.048,0.127s-0.697-0.042-1.048-0.127s-0.705-0.211-1.064-0.38c-0.042-0.021-0.079-0.037-0.114-0.05
	c-0.034-0.013-0.066-0.024-0.098-0.034c-0.032-0.011-0.063-0.021-0.098-0.034c-0.034-0.013-0.071-0.029-0.114-0.05v1.225v1.225
	v1.225v1.225c0.042,0.021,0.079,0.037,0.114,0.05c0.034,0.013,0.066,0.024,0.098,0.034c0.032,0.011,0.063,0.021,0.098,0.034
	s0.071,0.029,0.114,0.05c0.359,0.169,0.713,0.296,1.064,0.38s0.7,0.127,1.048,0.127s0.697-0.042,1.048-0.127s0.705-0.211,1.064-0.38
	c0.465-0.211,0.882-0.385,1.274-0.512s0.759-0.206,1.123-0.227c0.365-0.021,0.726,0.016,1.108,0.121
	c0.382,0.106,0.783,0.28,1.226,0.533c0.338,0.169,0.708,0.306,1.09,0.408c0.383,0.102,0.779,0.168,1.17,0.194
	c0.391,0.027,0.776,0.013,1.138-0.044s0.7-0.157,0.995-0.305c0.507-0.275,0.982-0.491,1.435-0.646
	c0.453-0.155,0.883-0.247,1.3-0.274s0.821,0.013,1.221,0.123c0.4,0.11,0.796,0.289,1.198,0.543c0,0,0.042,0.032,0.131,0.079
	s0.223,0.111,0.408,0.174c0.185,0.063,0.419,0.127,0.709,0.174c0.289,0.048,0.632,0.079,1.034,0.079c0.38,0,0.713-0.032,0.998-0.079
	c0.285-0.048,0.523-0.111,0.713-0.174s0.333-0.127,0.428-0.174c0.095-0.048,0.143-0.079,0.143-0.079
	c0.401-0.253,0.797-0.428,1.197-0.531c0.4-0.103,0.804-0.135,1.221-0.103c0.417,0.032,0.847,0.127,1.3,0.277
	c0.453,0.15,0.928,0.356,1.435,0.61c0.296,0.148,0.634,0.248,0.995,0.305s0.747,0.07,1.138,0.043
	c0.391-0.026,0.787-0.092,1.17-0.194s0.752-0.239,1.09-0.408c0.422-0.211,0.797-0.364,1.147-0.465c0.35-0.1,0.674-0.148,0.996-0.148
	s0.641,0.048,0.981,0.137c0.339,0.09,0.699,0.222,1.1,0.391v-1.225V60.42v-1.225V57.97c-0.401-0.169-0.76-0.306-1.1-0.403
	c-0.339-0.096-0.659-0.152-0.981-0.157c-0.322-0.005-0.647,0.04-0.996,0.144C65.277,57.658,64.902,57.822,64.479,58.054
	L64.479,58.054L64.479,58.054L64.479,58.054L64.479,58.054z"/>
<path id="circle12274" inkscape:export-filename="C:\Users\Charlotte Abel\Documents\Symbology\Components\transportation-icon_maritime-4.png" inkscape:export-xdpi="300.00461" inkscape:export-ydpi="300.00461" style="fill:#FFFFFF;stroke:#FFFFFF;stroke-width:0.0548;stroke-linecap:round;stroke-linejoin:round;stroke-miterlimit:9.1177;" d="
	M50.539,26.118c0.222,0,0.433,0.045,0.625,0.126c0.192,0.081,0.365,0.199,0.51,0.344c0.145,0.145,0.262,0.318,0.344,0.51
	s0.126,0.403,0.126,0.625c0,0.222-0.045,0.433-0.126,0.625s-0.199,0.365-0.344,0.51c-0.145,0.145-0.318,0.263-0.51,0.344
	c-0.192,0.081-0.404,0.126-0.625,0.126s-0.433-0.045-0.625-0.126s-0.365-0.199-0.51-0.344c-0.145-0.145-0.262-0.318-0.344-0.51
	c-0.081-0.192-0.126-0.403-0.126-0.625c0-0.222,0.045-0.433,0.126-0.625c0.081-0.192,0.199-0.365,0.344-0.51
	c0.145-0.145,0.318-0.262,0.51-0.344C50.106,26.163,50.317,26.118,50.539,26.118z"/>
<path id="circle12276" inkscape:export-filename="C:\Users\Charlotte Abel\Documents\Symbology\Components\transportation-icon_maritime-4.png" inkscape:export-xdpi="300.00461" inkscape:export-ydpi="300.00461" style="fill:#FFFFFF;stroke:#FFFFFF;stroke-width:0.0548;stroke-linecap:round;stroke-linejoin:round;stroke-miterlimit:9.1177;" d="
	M43.273,26.118c0.222,0,0.433,0.045,0.625,0.126c0.192,0.081,0.365,0.199,0.51,0.344c0.145,0.145,0.262,0.318,0.344,0.51
	c0.081,0.192,0.126,0.403,0.126,0.625c0,0.222-0.045,0.433-0.126,0.625c-0.081,0.192-0.199,0.365-0.344,0.51
	c-0.145,0.145-0.318,0.263-0.51,0.344c-0.192,0.081-0.404,0.126-0.625,0.126c-0.222,0-0.433-0.045-0.625-0.126
	c-0.192-0.081-0.365-0.199-0.51-0.344c-0.145-0.145-0.262-0.318-0.344-0.51c-0.081-0.192-0.126-0.403-0.126-0.625
	c0-0.222,0.045-0.433,0.126-0.625c0.081-0.192,0.199-0.365,0.344-0.51c0.145-0.145,0.318-0.262,0.51-0.344
	C42.84,26.163,43.051,26.118,43.273,26.118z"/>
<path id="circle12278" inkscape:export-filename="C:\Users\Charlotte Abel\Documents\Symbology\Components\transportation-icon_maritime-4.png" inkscape:export-xdpi="300.00461" inkscape:export-ydpi="300.00461" style="fill:#FFFFFF;stroke:#FFFFFF;stroke-width:0.0548;stroke-linecap:round;stroke-linejoin:round;stroke-miterlimit:9.1177;" d="
	M57.636,26.118c0.222,0,0.433,0.045,0.625,0.126c0.192,0.081,0.365,0.199,0.51,0.344c0.145,0.145,0.262,0.318,0.344,0.51
	s0.126,0.403,0.126,0.625c0,0.222-0.045,0.433-0.126,0.625s-0.199,0.365-0.344,0.51c-0.145,0.145-0.318,0.263-0.51,0.344
	c-0.192,0.081-0.404,0.126-0.625,0.126s-0.433-0.045-0.625-0.126s-0.365-0.199-0.51-0.344c-0.145-0.145-0.262-0.318-0.344-0.51
	c-0.081-0.192-0.126-0.403-0.126-0.625c0-0.222,0.045-0.433,0.126-0.625c0.081-0.192,0.199-0.365,0.344-0.51
	c0.145-0.145,0.318-0.262,0.51-0.344C57.203,26.163,57.414,26.118,57.636,26.118z"/>
<path id="path16966" style="fill:#003366;" d="M32.892,80.911v-2.104v-2.104v-2.104v-2.104h0.52h0.52h0.52h0.52l0.31,1.442
	l0.31,1.442l0.31,1.442l0.31,1.442l0.31-1.442l0.31-1.442l0.31-1.442l0.31-1.442h0.52h0.52h0.52h0.52v2.104v2.104v2.104v2.104
	h-0.327h-0.327h-0.327h-0.327v-1.66v-1.66v-1.66v-1.66l-0.344,1.66l-0.344,1.66l-0.344,1.66l-0.344,1.66h-0.335h-0.335h-0.335
	h-0.335l-0.344-1.66l-0.344-1.66l-0.344-1.66l-0.344-1.66v1.66v1.66v1.66v1.66c0.017,0-0.052,0-0.166,0s-0.27,0-0.43,0
	c-0.159,0-0.321,0-0.442,0S32.892,80.911,32.892,80.911z"/>
<path id="path16968" style="fill:#003366;" d="M41.409,76.653l-0.302-0.067l-0.302-0.067l-0.302-0.067l-0.302-0.067
	c0.034-0.151,0.073-0.293,0.119-0.426c0.046-0.133,0.098-0.257,0.157-0.37c0.059-0.113,0.124-0.216,0.195-0.307
	c0.071-0.091,0.149-0.171,0.233-0.238c0.084-0.067,0.176-0.126,0.277-0.176c0.101-0.05,0.211-0.092,0.33-0.126
	s0.248-0.059,0.387-0.075c0.139-0.017,0.288-0.025,0.447-0.025c0.143,0,0.275,0.004,0.397,0.013
	c0.123,0.009,0.236,0.022,0.341,0.041c0.105,0.019,0.201,0.043,0.29,0.073c0.089,0.03,0.171,0.066,0.246,0.108
	c0.075,0.042,0.145,0.086,0.208,0.133s0.121,0.096,0.173,0.148c0.052,0.052,0.1,0.108,0.142,0.167s0.08,0.122,0.114,0.189
	s0.063,0.149,0.088,0.245c0.025,0.096,0.046,0.206,0.063,0.33c0.017,0.124,0.029,0.261,0.038,0.411
	c0.008,0.15,0.013,0.314,0.013,0.49v0.469v0.469v0.469v0.469c0,0.134,0.002,0.26,0.006,0.377c0.004,0.117,0.009,0.225,0.015,0.323
	c0.006,0.098,0.014,0.187,0.021,0.267c0.008,0.079,0.016,0.148,0.024,0.207c0.008,0.067,0.021,0.134,0.037,0.202
	c0.016,0.068,0.035,0.136,0.056,0.205c0.021,0.069,0.044,0.139,0.068,0.211c0.024,0.072,0.049,0.145,0.074,0.221h-0.327h-0.327
	h-0.327h-0.327l-0.042-0.168l-0.042-0.168l-0.042-0.168l-0.042-0.168c-0.059,0.067-0.117,0.13-0.177,0.189
	c-0.059,0.059-0.119,0.113-0.18,0.163c-0.061,0.05-0.122,0.096-0.186,0.138s-0.128,0.08-0.195,0.113
	c-0.067,0.034-0.134,0.063-0.202,0.088c-0.068,0.025-0.136,0.046-0.205,0.063c-0.069,0.017-0.139,0.029-0.211,0.038
	c-0.072,0.008-0.145,0.013-0.221,0.013c-0.126,0-0.243-0.01-0.354-0.031s-0.214-0.052-0.313-0.094
	c-0.098-0.042-0.192-0.094-0.281-0.157c-0.09-0.063-0.176-0.136-0.259-0.22c-0.075-0.084-0.143-0.174-0.201-0.27
	c-0.058-0.096-0.107-0.199-0.147-0.308c-0.04-0.109-0.07-0.224-0.09-0.346c-0.02-0.122-0.031-0.249-0.031-0.384
	c0-0.084,0.004-0.166,0.013-0.245c0.008-0.08,0.021-0.157,0.038-0.233c0.017-0.075,0.038-0.149,0.063-0.22
	c0.025-0.071,0.054-0.14,0.088-0.207s0.069-0.13,0.107-0.189c0.038-0.059,0.079-0.113,0.123-0.163
	c0.044-0.05,0.091-0.096,0.142-0.138c0.051-0.042,0.105-0.08,0.164-0.113c0.059-0.042,0.126-0.082,0.201-0.119
	c0.075-0.038,0.159-0.073,0.251-0.107c0.092-0.034,0.193-0.065,0.302-0.094c0.109-0.029,0.226-0.057,0.352-0.082
	c0.151-0.034,0.291-0.067,0.421-0.101c0.129-0.034,0.248-0.067,0.355-0.101c0.107-0.034,0.202-0.067,0.286-0.101
	c0.083-0.034,0.155-0.067,0.213-0.101c0-0.084-0.002-0.161-0.006-0.232c-0.004-0.071-0.009-0.135-0.015-0.191
	c-0.006-0.057-0.014-0.106-0.022-0.147c-0.008-0.041-0.016-0.075-0.024-0.1c-0.008-0.025-0.021-0.05-0.037-0.075
	c-0.016-0.025-0.036-0.049-0.059-0.072c-0.023-0.023-0.049-0.045-0.078-0.065s-0.06-0.039-0.094-0.056
	c-0.034-0.017-0.069-0.031-0.107-0.044c-0.038-0.013-0.079-0.023-0.123-0.031c-0.044-0.008-0.091-0.015-0.142-0.019
	c-0.051-0.004-0.105-0.006-0.164-0.006c-0.059,0-0.115,0.004-0.169,0.012c-0.054,0.008-0.105,0.019-0.153,0.034
	c-0.048,0.015-0.093,0.033-0.135,0.053c-0.041,0.02-0.079,0.044-0.113,0.069c-0.025,0.034-0.05,0.071-0.075,0.114
	c-0.025,0.042-0.05,0.09-0.075,0.142c-0.025,0.052-0.05,0.11-0.076,0.174S41.434,76.577,41.409,76.653L41.409,76.653L41.409,76.653
	L41.409,76.653L41.409,76.653z M43.186,77.96c-0.042,0.017-0.09,0.034-0.144,0.051c-0.054,0.017-0.114,0.035-0.179,0.054
	c-0.065,0.019-0.135,0.039-0.21,0.06c-0.075,0.021-0.155,0.044-0.238,0.069c-0.101,0.025-0.193,0.052-0.277,0.081
	s-0.159,0.059-0.226,0.09c-0.067,0.032-0.126,0.064-0.176,0.097c-0.05,0.033-0.092,0.066-0.126,0.1
	c-0.034,0.034-0.063,0.069-0.088,0.107c-0.025,0.038-0.046,0.078-0.063,0.119c-0.017,0.042-0.029,0.086-0.038,0.132
	c-0.008,0.046-0.013,0.094-0.013,0.145c0,0.059,0.004,0.115,0.013,0.17c0.008,0.054,0.021,0.107,0.038,0.157
	c0.017,0.05,0.038,0.098,0.063,0.145c0.025,0.046,0.054,0.09,0.088,0.132c0.034,0.042,0.069,0.078,0.107,0.107
	c0.038,0.03,0.079,0.054,0.123,0.073c0.044,0.019,0.091,0.033,0.142,0.042c0.051,0.009,0.105,0.013,0.164,0.013
	c0.05,0,0.098-0.004,0.146-0.013s0.093-0.021,0.139-0.038c0.046-0.017,0.092-0.038,0.139-0.063s0.095-0.054,0.146-0.088
	c0.042-0.034,0.082-0.067,0.119-0.102s0.072-0.07,0.103-0.108c0.032-0.038,0.06-0.078,0.084-0.121
	c0.025-0.043,0.046-0.089,0.062-0.139c0.017-0.042,0.031-0.094,0.044-0.157c0.013-0.062,0.023-0.135,0.031-0.216
	c0.008-0.082,0.015-0.173,0.019-0.273c0.004-0.1,0.006-0.209,0.006-0.327v-0.075v-0.075l0-0.075L43.186,77.96L43.186,77.96
	L43.186,77.96L43.186,77.96L43.186,77.96z"/>
<path id="path16970" style="fill:#003366;" d="M46.573,80.911h-0.335h-0.335h-0.335h-0.335v-1.526V77.86v-1.526v-1.526h0.31h0.31
	h0.31h0.31v0.218v0.218v0.218v0.218c0.05-0.101,0.101-0.193,0.15-0.277c0.05-0.084,0.099-0.159,0.147-0.226
	c0.048-0.067,0.095-0.126,0.141-0.176c0.046-0.05,0.09-0.092,0.131-0.126c0.042-0.034,0.086-0.063,0.131-0.088
	c0.046-0.025,0.093-0.046,0.141-0.063c0.048-0.017,0.098-0.029,0.147-0.038c0.05-0.008,0.1-0.013,0.15-0.013
	c0.075,0,0.151,0.006,0.226,0.019c0.075,0.013,0.149,0.031,0.223,0.057c0.073,0.025,0.146,0.057,0.216,0.094
	c0.071,0.038,0.14,0.082,0.207,0.132l-0.101,0.352l-0.101,0.352l-0.101,0.352l-0.101,0.352c-0.059-0.042-0.115-0.08-0.17-0.113
	c-0.055-0.033-0.108-0.061-0.161-0.084s-0.104-0.041-0.154-0.053c-0.051-0.012-0.101-0.018-0.151-0.018
	c-0.042,0-0.084,0.004-0.126,0.013c-0.042,0.008-0.084,0.021-0.126,0.038c-0.042,0.017-0.084,0.038-0.126,0.063
	c-0.042,0.025-0.084,0.054-0.126,0.088c-0.034,0.034-0.065,0.073-0.094,0.12c-0.029,0.047-0.057,0.1-0.082,0.161
	c-0.025,0.061-0.048,0.129-0.069,0.205c-0.021,0.076-0.04,0.16-0.057,0.252c-0.017,0.092-0.031,0.201-0.044,0.328
	c-0.013,0.127-0.023,0.271-0.031,0.435c-0.008,0.163-0.015,0.346-0.019,0.548c-0.004,0.202-0.006,0.424-0.006,0.667
	c0.008,0,0.015,0.117,0.019,0.293c0.005,0.176,0.008,0.411,0.01,0.645c0.002,0.235,0.003,0.469,0.004,0.645
	C46.573,80.794,46.573,80.911,46.573,80.911z"/>
<path id="path16972" style="fill:#003366;" d="M48.518,73.97v-0.377v-0.377v-0.377v-0.377h0.335h0.335h0.335h0.335v0.377v0.377
	v0.377v0.377h-0.335h-0.335h-0.335H48.518z M48.518,80.911v-1.526V77.86v-1.526v-1.526h0.335h0.335h0.335h0.335v1.526v1.526v1.526
	v1.526h-0.335h-0.335h-0.335H48.518z"/>
<path id="path16974" style="fill:#003366;" d="M52.944,74.808v0.319v0.319v0.319v0.319h-0.226h-0.226h-0.226h-0.226v0.612v0.612
	v0.612v0.612c0,0.134,0,0.254,0,0.359c0.001,0.105,0.002,0.197,0.004,0.274c0.002,0.078,0.005,0.142,0.01,0.192
	c0.005,0.051,0.011,0.088,0.02,0.114c0.017,0.042,0.036,0.078,0.057,0.107c0.021,0.03,0.046,0.054,0.073,0.073
	c0.027,0.019,0.058,0.033,0.092,0.042c0.034,0.009,0.072,0.013,0.114,0.013c0.034,0,0.069-0.004,0.107-0.012
	c0.038-0.008,0.079-0.019,0.123-0.034c0.044-0.015,0.091-0.033,0.142-0.053c0.051-0.02,0.105-0.044,0.164-0.069l0.025,0.31
	l0.025,0.31l0.025,0.31l0.025,0.31c-0.075,0.042-0.153,0.078-0.233,0.107c-0.08,0.03-0.163,0.054-0.249,0.073
	s-0.175,0.033-0.268,0.042c-0.093,0.009-0.189,0.013-0.29,0.013c-0.084,0-0.163-0.004-0.239-0.013
	c-0.075-0.009-0.147-0.023-0.214-0.042c-0.067-0.019-0.13-0.043-0.189-0.073c-0.059-0.03-0.113-0.066-0.163-0.108
	c-0.05-0.042-0.096-0.088-0.138-0.138c-0.042-0.05-0.08-0.105-0.113-0.163c-0.034-0.059-0.063-0.122-0.088-0.189
	c-0.025-0.067-0.046-0.138-0.063-0.214c-0.017-0.059-0.029-0.13-0.039-0.214c-0.009-0.084-0.016-0.182-0.02-0.293
	c-0.004-0.111-0.006-0.236-0.007-0.375c-0.001-0.139-0.001-0.292-0.001-0.46V78.07v-0.662v-0.662v-0.662H50.58h-0.151h-0.151h-0.151
	v-0.319v-0.319v-0.319v-0.319h0.151h0.151h0.151h0.151v-0.302v-0.302v-0.302v-0.302l0.335-0.235l0.335-0.235l0.335-0.235
	l0.335-0.235v0.536v0.536v0.536v0.536h0.218h0.218h0.218L52.944,74.808L52.944,74.808L52.944,74.808L52.944,74.808L52.944,74.808z"
	/>
<path id="path16976" style="fill:#003366;" d="M53.346,73.97v-0.377v-0.377v-0.377v-0.377h0.335h0.335h0.335h0.335v0.377v0.377
	v0.377v0.377h-0.335h-0.335h-0.335H53.346z M53.346,80.911v-1.526V77.86v-1.526v-1.526h0.335h0.335h0.335h0.335v1.526v1.526v1.526
	v1.526h-0.335h-0.335h-0.335H53.346z"/>
<path id="path16978" style="fill:#003366;" d="M55.425,74.808h0.302h0.302h0.302h0.302v0.21v0.21v0.21v0.21
	c0.059-0.084,0.117-0.161,0.176-0.233c0.059-0.072,0.117-0.138,0.176-0.198c0.059-0.061,0.117-0.116,0.176-0.167
	s0.117-0.097,0.176-0.139c0.067-0.042,0.134-0.078,0.202-0.107s0.136-0.054,0.205-0.073c0.069-0.019,0.139-0.033,0.211-0.041
	c0.072-0.009,0.145-0.013,0.221-0.013c0.084,0,0.163,0.004,0.239,0.013s0.148,0.022,0.218,0.041
	c0.069,0.019,0.135,0.043,0.198,0.073s0.124,0.066,0.183,0.107c0.059,0.042,0.115,0.088,0.169,0.139s0.105,0.106,0.153,0.167
	c0.048,0.061,0.093,0.127,0.135,0.198c0.041,0.072,0.079,0.149,0.112,0.233c0.059-0.084,0.117-0.161,0.176-0.233
	c0.059-0.072,0.117-0.138,0.176-0.198s0.117-0.116,0.176-0.167c0.059-0.051,0.117-0.097,0.176-0.139
	c0.067-0.042,0.134-0.078,0.201-0.107s0.134-0.054,0.201-0.073c0.067-0.019,0.134-0.033,0.201-0.041s0.134-0.013,0.201-0.013
	c0.084,0,0.166,0.004,0.245,0.013s0.156,0.022,0.229,0.041s0.144,0.043,0.21,0.073c0.067,0.03,0.129,0.066,0.188,0.108
	c0.059,0.042,0.115,0.088,0.169,0.138c0.054,0.05,0.105,0.105,0.153,0.163c0.048,0.059,0.093,0.122,0.135,0.189
	s0.079,0.138,0.113,0.214c0.034,0.075,0.063,0.161,0.088,0.258c0.025,0.096,0.046,0.203,0.063,0.321
	c0.017,0.117,0.029,0.245,0.038,0.384c0.008,0.138,0.013,0.287,0.013,0.446v0.972v0.972v0.972v0.972H62.4h-0.335h-0.335h-0.335
	V80.04v-0.872v-0.872v-0.872c0-0.151-0.004-0.289-0.012-0.415c-0.008-0.126-0.019-0.239-0.034-0.34
	c-0.015-0.101-0.032-0.189-0.053-0.264c-0.02-0.075-0.044-0.138-0.069-0.189c-0.025-0.05-0.057-0.094-0.093-0.132
	c-0.037-0.038-0.079-0.069-0.125-0.094c-0.046-0.025-0.096-0.044-0.15-0.057c-0.053-0.013-0.11-0.019-0.169-0.019
	c-0.075,0-0.147,0.008-0.214,0.026c-0.067,0.017-0.13,0.043-0.189,0.079c-0.059,0.036-0.113,0.081-0.163,0.136
	c-0.05,0.055-0.096,0.12-0.138,0.195c-0.042,0.067-0.08,0.153-0.113,0.257s-0.061,0.225-0.084,0.364
	c-0.023,0.138-0.041,0.293-0.053,0.464c-0.012,0.171-0.018,0.357-0.018,0.559v0.729v0.729v0.729v0.729h-0.335h-0.335h-0.335h-0.335
	v-0.838v-0.838v-0.838v-0.838c0-0.168-0.002-0.321-0.006-0.458c-0.004-0.138-0.01-0.26-0.019-0.367
	c-0.008-0.107-0.019-0.198-0.031-0.273s-0.027-0.134-0.044-0.176c-0.025-0.067-0.057-0.124-0.094-0.171
	c-0.037-0.047-0.08-0.085-0.129-0.114c-0.048-0.029-0.102-0.05-0.16-0.064c-0.058-0.014-0.121-0.02-0.188-0.02
	c-0.05,0-0.098,0.004-0.145,0.013s-0.092,0.021-0.136,0.038c-0.044,0.017-0.087,0.038-0.129,0.063s-0.084,0.054-0.126,0.088
	c-0.042,0.034-0.08,0.071-0.114,0.113s-0.066,0.087-0.095,0.135c-0.029,0.048-0.057,0.1-0.083,0.154
	c-0.026,0.054-0.051,0.11-0.076,0.169c-0.017,0.059-0.031,0.13-0.044,0.213c-0.013,0.083-0.023,0.179-0.031,0.286
	c-0.008,0.107-0.015,0.225-0.019,0.355c-0.004,0.129-0.006,0.27-0.006,0.421v0.746v0.746v0.746v0.746h-0.335h-0.335h-0.335h-0.335
	l0.017-1.534l0.017-1.534l0.017-1.534L55.425,74.808L55.425,74.808L55.425,74.808L55.425,74.808L55.425,74.808z"/>
<path id="path16980" style="fill:#003366;" d="M66.491,78.966l0.327,0.067l0.327,0.067l0.327,0.067l0.327,0.067
	c-0.042,0.151-0.09,0.293-0.145,0.427s-0.117,0.258-0.186,0.374c-0.069,0.115-0.146,0.221-0.23,0.317
	c-0.084,0.096-0.177,0.182-0.277,0.257c-0.092,0.075-0.191,0.14-0.294,0.195s-0.213,0.1-0.326,0.136
	c-0.113,0.036-0.231,0.062-0.351,0.079c-0.12,0.017-0.244,0.026-0.37,0.026c-0.184,0-0.358-0.015-0.522-0.045
	c-0.163-0.03-0.316-0.075-0.459-0.136c-0.143-0.061-0.275-0.137-0.396-0.23s-0.233-0.202-0.333-0.328
	c-0.117-0.143-0.22-0.3-0.308-0.472c-0.088-0.172-0.161-0.358-0.22-0.56c-0.059-0.201-0.103-0.417-0.132-0.648
	c-0.029-0.231-0.044-0.476-0.044-0.736c0-0.251,0.015-0.492,0.044-0.722c0.029-0.229,0.073-0.447,0.132-0.653
	c0.059-0.205,0.132-0.398,0.22-0.577s0.191-0.345,0.308-0.496c0.101-0.126,0.21-0.237,0.326-0.333s0.241-0.176,0.373-0.241
	c0.132-0.065,0.272-0.114,0.418-0.147c0.146-0.033,0.299-0.05,0.458-0.05c0.176,0,0.344,0.017,0.502,0.05s0.309,0.084,0.449,0.151
	c0.14,0.067,0.271,0.151,0.392,0.251c0.121,0.101,0.232,0.218,0.333,0.352c0.117,0.151,0.22,0.321,0.308,0.509
	s0.161,0.395,0.22,0.619c0.059,0.224,0.103,0.466,0.132,0.725s0.044,0.536,0.044,0.829v0.042v0.042v0.042v0.042h-0.83h-0.83h-0.83
	h-0.83c0,0.117,0.006,0.231,0.019,0.338c0.013,0.107,0.033,0.209,0.06,0.303c0.027,0.094,0.062,0.181,0.104,0.259
	c0.042,0.078,0.093,0.147,0.151,0.206c0.05,0.067,0.105,0.126,0.163,0.176c0.058,0.05,0.12,0.092,0.185,0.126
	c0.065,0.034,0.133,0.059,0.204,0.075c0.071,0.017,0.144,0.025,0.22,0.025c0.101,0,0.193-0.019,0.277-0.056
	c0.084-0.037,0.161-0.093,0.23-0.166c0.069-0.073,0.131-0.164,0.186-0.273S66.449,79.109,66.491,78.966L66.491,78.966L66.491,78.966
	L66.491,78.966L66.491,78.966z M66.558,77.323c0-0.117-0.006-0.228-0.019-0.333c-0.013-0.104-0.031-0.202-0.057-0.292
	c-0.025-0.09-0.057-0.173-0.094-0.248s-0.082-0.142-0.132-0.201c-0.05-0.059-0.103-0.111-0.157-0.157
	c-0.054-0.046-0.109-0.084-0.166-0.116c-0.056-0.031-0.114-0.055-0.172-0.072s-0.117-0.025-0.175-0.025
	c-0.067,0-0.132,0.008-0.195,0.025c-0.063,0.016-0.124,0.04-0.182,0.072c-0.059,0.032-0.115,0.07-0.17,0.116
	c-0.054,0.046-0.107,0.098-0.157,0.157c-0.05,0.067-0.094,0.138-0.132,0.215c-0.038,0.076-0.069,0.158-0.094,0.246
	c-0.025,0.088-0.044,0.182-0.057,0.284c-0.013,0.102-0.019,0.211-0.019,0.328h0.495h0.495h0.494H66.558L66.558,77.323L66.558,77.323
	L66.558,77.323L66.558,77.323z"/>
</svg>
