<?xml version="1.0" encoding="iso-8859-1"?>
<!-- Generator: Adobe Illustrator 25.4.1, SVG Export Plug-In . SVG Version: 6.00 Build 0)  -->
<svg version="1.1" id="Layer_1" xmlns="http://www.w3.org/2000/svg" xmlns:xlink="http://www.w3.org/1999/xlink" x="0px" y="0px"
	 viewBox="0 0 100 100" style="enable-background:new 0 0 100 100;" xml:space="preserve">
<polygon style="opacity:0.5;fill:#FF0000;" points="29.35,27.245 34.445,22.455 39.54,17.665 44.635,12.875 49.73,8.085 
	54.967,13.005 60.205,17.925 65.443,22.845 70.68,27.765 65.58,32.772 60.48,37.78 55.38,42.787 50.28,47.795 45.048,42.658 
	39.815,37.52 34.583,32.382 "/>
<path style="opacity:0.5;fill:#FFFFFF;" d="M49.73,9.345l4.905,4.608l4.905,4.608l4.905,4.608l4.905,4.608l-4.768,4.682
	l-4.767,4.682l-4.767,4.682l-4.768,4.682l-4.908-4.812l-4.907-4.812l-4.907-4.812l-4.908-4.812l4.77-4.478l4.77-4.477l4.77-4.477
	L49.73,9.345 M49.73,6.825l-5.428,5.1l-5.427,5.1l-5.427,5.1l-5.428,5.1l5.565,5.463l5.565,5.463l5.565,5.463l5.565,5.462
	l5.43-5.333l5.43-5.333l5.43-5.333L72,27.745l-5.567-5.223L60.865,17.3l-5.568-5.222L49.73,6.855V6.847V6.84V6.832V6.825z"/>
<polygon style="opacity:0.5;fill:#FEFF00;" points="51.59,49.075 56.698,44.06 61.805,39.045 66.912,34.03 72.02,29.015 
	77.332,34.005 82.645,38.995 87.957,43.985 93.27,48.975 88.085,54.14 82.9,59.305 77.715,64.47 72.53,69.635 67.295,64.495 
	62.06,59.355 56.825,54.215 "/>
<path style="fill:#FFFFFF;" d="M72.03,30.295l4.98,4.675l4.98,4.675l4.98,4.675l4.98,4.675l-4.857,4.838l-4.857,4.837l-4.857,4.837
	l-4.857,4.838l-4.905-4.818L62.71,58.71l-4.905-4.818L52.9,49.075l4.783-4.695l4.782-4.695l4.782-4.695L72.03,30.295 M72.03,27.745
	l-5.438,5.332l-5.438,5.333l-5.438,5.333l-5.438,5.333l5.562,5.462L61.405,60l5.562,5.463l5.562,5.463l5.515-5.5l5.515-5.5
	l5.515-5.5l5.515-5.5l-5.647-5.295l-5.647-5.295l-5.647-5.295L72,27.745h0.007h0.007h0.007H72.03z"/>
<polygon style="opacity:0.5;fill:#1700FF;" points="6.73,48.505 12.05,43.505 17.37,38.505 22.69,33.505 28.01,28.505 33.25,33.647 
	38.49,38.79 43.73,43.933 48.97,49.075 43.732,54.217 38.495,59.36 33.257,64.503 28.02,69.645 22.698,64.36 17.375,59.075 
	12.052,53.79 "/>
<path style="fill:#FFFFFF;" d="M27.99,29.775l4.915,4.825l4.915,4.825l4.915,4.825l4.915,4.825l-4.905,4.82l-4.905,4.82l-4.905,4.82
	l-4.905,4.82l-4.995-4.96l-4.995-4.96l-4.995-4.96l-4.995-4.96l4.985-4.685l4.985-4.685l4.985-4.685L27.99,29.775 M27.99,27.225
	l-5.645,5.315L16.7,37.855l-5.645,5.315L5.41,48.485l5.653,5.61l5.653,5.61l5.653,5.61l5.653,5.61l5.565-5.463L39.15,60l5.565-5.463
	l5.565-5.462l-5.565-5.462L39.15,38.15l-5.565-5.463l-5.565-5.462h-0.007h-0.007h-0.007H27.99z"/>
<polygon style="opacity:0.5;fill:#FFFFFF;" points="50.28,49.075 55.842,54.537 61.405,60 66.967,65.463 72.53,70.925 
	66.967,76.467 61.405,82.01 55.842,87.553 50.28,93.095 44.715,87.553 39.15,82.01 33.585,76.467 28.02,70.925 33.585,65.463 
	39.15,60 44.715,54.537 "/>
<path style="opacity:0.5;" d="M50.28,94.855l-11.658-11.6l-11.657-11.6l-11.657-11.6L3.65,48.455l11.517-10.827L26.685,26.8
	l11.517-10.827L49.72,5.145l11.658,10.948L73.035,27.04l11.658,10.948L96.35,48.935l-11.517,11.48l-11.518,11.48l-11.518,11.48
	L50.28,94.855z M7.15,48.505l10.783,10.718L28.715,69.94l10.782,10.717L50.28,91.375l10.638-10.598L71.555,70.18l10.638-10.597
	L92.83,48.985l-10.775-10.12L71.28,28.745l-10.775-10.12L49.73,8.505l-10.645,10l-10.645,10l-10.645,10L7.15,48.505z"/>
<polygon style="opacity:0.5;" points="27.156,28.102 27.585,27.664 28.014,27.227 28.443,26.79 28.872,26.353 40.001,37.278 
	51.13,48.203 62.259,59.128 73.388,70.053 72.958,70.49 72.529,70.927 72.1,71.364 71.671,71.801 60.542,60.876 49.414,49.951 
	38.285,39.027 "/>
<polygon style="opacity:0.5;" points="27.155,70.046 38.152,59.25 49.148,48.455 60.145,37.66 71.142,26.865 71.571,27.302 
	72,27.739 72.429,28.176 72.858,28.613 61.862,39.409 50.865,50.204 39.868,60.999 28.871,71.794 28.442,71.357 28.013,70.92 
	27.584,70.483 "/>
<path d="M29.79,48.895c0.01,0.741-0.011,1.481-0.064,2.219c-0.053,0.737-0.138,1.472-0.255,2.201s-0.264,1.454-0.442,2.171
	c-0.179,0.717-0.388,1.427-0.628,2.129c-0.177,0.554-0.386,1.095-0.624,1.623s-0.505,1.041-0.8,1.537s-0.618,0.976-0.968,1.437
	s-0.726,0.903-1.128,1.323c-0.246,0.245-0.506,0.475-0.777,0.689c-0.271,0.214-0.555,0.412-0.848,0.594
	c-0.293,0.181-0.597,0.345-0.91,0.492s-0.635,0.275-0.965,0.385c-0.366,0.107-0.736,0.2-1.108,0.278s-0.747,0.143-1.124,0.193
	s-0.756,0.086-1.136,0.108s-0.761,0.029-1.142,0.021h-1.923h-1.922h-1.922H9.18v-8.722V48.85v-8.722v-8.722h1.977h1.977h1.977h1.977
	c0.388-0.005,0.776,0.006,1.161,0.034c0.386,0.028,0.77,0.073,1.152,0.135s0.76,0.141,1.135,0.236s0.746,0.207,1.112,0.335
	c0.304,0.106,0.601,0.228,0.891,0.366c0.289,0.138,0.571,0.291,0.843,0.458s0.536,0.35,0.789,0.546s0.496,0.406,0.727,0.63
	c0.414,0.421,0.802,0.866,1.161,1.332c0.359,0.465,0.69,0.951,0.991,1.454c0.302,0.504,0.573,1.025,0.813,1.561
	s0.449,1.088,0.625,1.653c0.229,0.706,0.428,1.42,0.597,2.141s0.309,1.448,0.417,2.18s0.187,1.468,0.235,2.207
	S29.804,48.153,29.79,48.895z M23.97,48.815c0.01-0.498,0.002-0.995-0.026-1.492c-0.028-0.496-0.074-0.991-0.139-1.483
	c-0.065-0.493-0.149-0.982-0.252-1.468s-0.224-0.969-0.363-1.447c-0.11-0.369-0.246-0.728-0.407-1.074s-0.347-0.68-0.556-0.998
	s-0.441-0.622-0.694-0.907c-0.253-0.286-0.528-0.553-0.823-0.801c-0.129-0.113-0.263-0.219-0.402-0.317
	c-0.139-0.099-0.283-0.19-0.432-0.274s-0.301-0.16-0.457-0.229c-0.156-0.068-0.316-0.129-0.479-0.181
	c-0.223-0.049-0.448-0.092-0.673-0.127c-0.226-0.035-0.452-0.063-0.679-0.084c-0.227-0.021-0.455-0.035-0.683-0.041
	s-0.457-0.006-0.685,0.002h-0.355H15.51h-0.355H14.8v5.468v5.467v5.467v5.468h0.355h0.355h0.355h0.355
	c0.248,0.01,0.496,0.011,0.744,0.003c0.248-0.008,0.495-0.024,0.742-0.049s0.492-0.059,0.736-0.101
	c0.244-0.042,0.487-0.093,0.728-0.153c0.169-0.056,0.334-0.121,0.496-0.194s0.319-0.154,0.473-0.243s0.302-0.186,0.446-0.289
	s0.282-0.215,0.415-0.334c0.27-0.257,0.52-0.53,0.751-0.819s0.441-0.592,0.63-0.909s0.357-0.646,0.502-0.985
	s0.268-0.689,0.367-1.048c0.131-0.475,0.244-0.953,0.339-1.435c0.096-0.482,0.174-0.967,0.234-1.454s0.103-0.976,0.127-1.467
	C23.975,49.799,23.981,49.307,23.97,48.815z"/>
<path d="M45.87,66.295h-3.193h-3.192h-3.193H33.1v-1.537V63.22v-1.537v-1.538h0.888h0.888h0.888h0.888v-5.638V48.87v-5.638v-5.637
	h-0.888h-0.888h-0.888H33.1v-1.548V34.5v-1.548v-1.547h3.193h3.193h3.193h3.193v1.547V34.5v1.548v1.548h-0.893h-0.892h-0.893H42.3
	v5.637v5.638v5.638v5.637h0.892h0.893h0.893h0.892v1.537v1.538v1.538V66.295z"/>
<path d="M70.82,66.295h-1.728h-1.728h-1.728H63.91l-1.63-3.5l-1.63-3.5l-1.63-3.5l-1.63-3.5l-0.327,0.645l-0.327,0.645l-0.327,0.645
	l-0.327,0.645v2.855v2.855v2.855v2.855h-1.405H53.27h-1.405H50.46v-8.722V48.85v-8.722v-8.722h1.405h1.405h1.405h1.405v3.953v3.952
	v3.952v3.952l1.947-3.952l1.948-3.952l1.948-3.952l1.947-3.953h1.63h1.63h1.63h1.63l-2.13,4.038l-2.13,4.037L64,43.518l-2.13,4.037
	l2.237,4.685l2.238,4.685l2.238,4.685L70.82,66.295z"/>
<path d="M89.36,66.295h-3.943h-3.942h-3.942H73.59v-8.722V48.85v-8.722v-8.722h3.943h3.942h3.942h3.943v1.685v1.685v1.685v1.685
	h-2.545H84.27h-2.545H79.18v1.5v1.5v1.5v1.5h2.368h2.368h2.368h2.368v1.685v1.685V49.2v1.685h-2.368h-2.368h-2.368H79.18v2.158V55.2
	v2.157v2.158h2.545h2.545h2.545h2.545v1.695v1.695V64.6C89.36,64.6,89.36,66.295,89.36,66.295z"/>
</svg>
