<?xml version="1.0" encoding="iso-8859-1"?>
<!-- Generator: Adobe Illustrator 25.2.3, SVG Export Plug-In . SVG Version: 6.00 Build 0)  -->
<svg version="1.1" id="Layer_1" xmlns="http://www.w3.org/2000/svg" xmlns:xlink="http://www.w3.org/1999/xlink" x="0px" y="0px"
	 viewBox="0 0 100 100" style="enable-background:new 0 0 100 100;" xml:space="preserve">
<g id="Layer_2_1_">
	<g id="Layer_2-2">
		<path d="M20.32,25.94c0.005,0.443,0.063,0.883,0.173,1.309c0.109,0.426,0.269,0.84,0.477,1.231
			c0.422,0.635,1.003,1.128,1.667,1.443c0.665,0.315,1.414,0.452,2.173,0.377c0.384,0.004,0.767-0.028,1.144-0.095
			s0.747-0.169,1.106-0.305c0.611-0.178,1.123-0.553,1.476-1.042c0.353-0.489,0.547-1.092,0.524-1.728
			c0.036-0.406-0.028-0.807-0.179-1.173C28.73,25.591,28.492,25.262,28.18,25c-0.401-0.261-0.825-0.484-1.265-0.666
			c-0.44-0.182-0.897-0.324-1.365-0.424l-1.105-0.28l-1.105-0.28c-0.54-0.109-1.069-0.266-1.579-0.468s-1.003-0.451-1.471-0.742
			c-0.528-0.407-0.937-0.932-1.204-1.521c-0.267-0.589-0.39-1.244-0.346-1.909c-0.02-0.742,0.107-1.472,0.368-2.152
			s0.652-1.309,1.162-1.848c0.572-0.562,1.249-0.991,1.983-1.269s1.526-0.404,2.327-0.361c0.786-0.024,1.565,0.086,2.304,0.321
			s1.438,0.595,2.066,1.069c0.638,0.553,1.125,1.242,1.434,2.004c0.309,0.762,0.439,1.595,0.366,2.436h-1.07h-1.07
			c-0.024-0.398-0.096-0.79-0.214-1.167c-0.117-0.378-0.28-0.742-0.486-1.083c-0.405-0.514-0.927-0.906-1.511-1.154
			c-0.583-0.248-1.228-0.351-1.879-0.286c-0.507-0.05-1.012,0.01-1.485,0.169s-0.911,0.416-1.285,0.761
			c-0.278,0.286-0.494,0.621-0.638,0.985c-0.145,0.364-0.218,0.756-0.212,1.155c-0.031,0.4,0.049,0.793,0.223,1.139
			c0.173,0.346,0.438,0.646,0.777,0.861c0.478,0.226,0.969,0.423,1.47,0.589c0.501,0.167,1.012,0.305,1.53,0.411l1.14,0.275
			l1.14,0.275c0.461,0.102,0.909,0.251,1.336,0.446C28.943,22.48,29.35,22.719,29.73,23c0.533,0.468,0.943,1.046,1.208,1.685
			c0.265,0.638,0.386,1.337,0.342,2.045c0.076,0.851-0.077,1.69-0.422,2.441c-0.345,0.751-0.883,1.413-1.578,1.909
			c-0.684,0.443-1.427,0.779-2.202,1s-1.583,0.326-2.398,0.31c-0.887,0.055-1.765-0.076-2.583-0.374
			c-0.817-0.298-1.573-0.763-2.217-1.376c-0.599-0.63-1.052-1.372-1.342-2.172c-0.29-0.8-0.415-1.66-0.358-2.528h1.07H20.32z"/>
		<path d="M35.57,13.54l1.585,7.44l1.585,7.44l1.9-7.44l1.9-7.44h1.23H45l1.9,7.455l1.9,7.455l1.585-7.455l1.585-7.455h1.25h1.25
			l-2.21,9.155l-2.21,9.155h-1.195H47.66l-1.94-7.59l-1.94-7.59l-1.95,7.59l-1.95,7.59h-1.195H37.49l-2.195-9.155L33.1,13.54h1.235
			H35.57z"/>
		<path d="M60.61,13.54h1.285h1.285l3.05,9.155l3.05,9.155h-1.25h-1.25l-0.875-2.74l-0.875-2.74h-3.295H58.44l-0.91,2.74l-0.91,2.74
			h-1.17h-1.17l3.165-9.155L60.61,13.54z M64.38,24.35l-1.29-4.045L61.8,16.26l-1.345,4.045L59.11,24.35h2.635H64.38z"/>
		<path d="M81.82,13.54v1.09v1.09H79h-2.82v8.065v8.065h-1.15h-1.15v-8.065V15.72h-2.85h-2.85v-1.09v-1.09H75H81.82z"/>
		<path d="M65.18,74.55c-0.018,0.245-0.027,0.49-0.027,0.735s0.009,0.49,0.027,0.735c0.035,0.175,0.175,0.35,0.236,0.594
			c0.062,0.244,0.044,0.556-0.236,1.006c-0.28,0.45-0.465,1.567-0.589,2.625c-0.124,1.058-0.186,2.055-0.221,2.265
			c-0.237,0.465-0.609,0.83-1.05,1.061c-0.441,0.231-0.953,0.329-1.47,0.259c-0.73-0.07-1.6-0.105-2.244-0.23
			s-1.061-0.34-0.886-0.77s0.82-0.777,1.447-1.07c0.628-0.293,1.238-0.53,1.343-0.74c0.101-0.706,0.179-1.414,0.236-2.125
			s0.091-1.422,0.104-2.135c0,0-1.667-1.17-3.364-2.562c-1.696-1.393-3.421-3.007-3.536-3.897s-0.135-1.658-0.2-2.237
			c-0.065-0.58-0.175-0.972-0.47-1.112s-1.795,0.33-3.651,0.87c-1.856,0.54-4.069,1.15-5.789,1.29
			c-1.036,0.084-2.074,0.108-3.111,0.073c-1.037-0.035-2.071-0.13-3.099-0.283c0,0-0.333,1.25-0.691,2.685
			c-0.359,1.433-0.744,3.053-0.849,3.793c-0.05,0.837-0.046,1.676,0.013,2.511c0.058,0.835,0.171,1.666,0.337,2.489
			c0.07,0.175-0.028,0.49-0.145,0.84c-0.117,0.35-0.255,0.735-0.265,1.05c-0.01,0.315-0.17,1.272-0.466,2.173
			c-0.296,0.901-0.729,1.743-1.284,1.827s-1.568,0.382-2.406,0.51c-0.839,0.127-1.504,0.085-1.364-0.51s0.715-0.943,1.273-1.238
			c0.558-0.295,1.098-0.537,1.168-0.923s0.158-3.333,0.201-6.271c0.044-2.939,0.044-5.869-0.061-6.219s-0.453-0.6-0.774-0.673
			c-0.321-0.072-0.616,0.033-0.616,0.393s0.017,3.325,0,6.244s-0.07,5.791-0.21,5.966c-0.14,0.175-0.507,0.577-0.919,0.945
			s-0.866,0.7-1.181,0.735s-1.1,0.035-1.745-0.088C28,85.02,27.495,84.775,27.74,84.32c0.245-0.455,0.745-0.705,1.222-0.934
			c0.477-0.229,0.932-0.436,1.087-0.806c0.155-0.37-0.063-4.54-0.306-8.731c-0.243-4.191-0.513-8.404-0.463-8.859
			s-0.137-0.792-0.369-1.25c-0.231-0.458-0.506-1.035-0.631-1.97s0.142-2.135,0.467-3.171c0.325-1.036,0.707-1.909,0.812-2.189
			c0.105-0.28-0.145-2.373-0.421-4.395s-0.579-3.975-0.579-3.975s-1.065,0.123-2.251,0.263S23.815,48.6,23.33,48.67
			c-0.485,0.07-1.58-0.54-2.598-1.272c-1.017-0.733-1.957-1.588-2.132-2.008c1-0.7,3.17-1.95,5.156-3.104s3.789-2.211,4.054-2.526
			c0.159-0.309,0.277-0.635,0.353-0.971s0.109-0.682,0.097-1.029c0.015-0.251,0.131-0.472,0.305-0.626
			c0.174-0.154,0.408-0.242,0.658-0.227c0.006,0,0.012,0.001,0.018,0.001c0.006,0,0.012,0.001,0.018,0.002l1,0.12l1,0.12
			c0,0,0.097,0.583,0.311,1.249s0.544,1.416,1.009,1.751s1.767,1.917,3.035,3.834c1.268,1.917,2.5,4.166,2.825,5.836
			c1.905,2.095,3.323,3.283,4.542,4.004c1.219,0.721,2.243,0.976,3.358,1.206s4.115,0.463,7.139,0.638s6.071,0.292,7.281,0.292
			s2.605,0.28,3.75,0.67c1.145,0.39,2.04,0.89,2.25,1.33s0.065,0.793-0.132,1.081c-0.197,0.289-0.447,0.514-0.447,0.699
			c0.177,0.624,0.33,1.254,0.456,1.89c0.127,0.636,0.228,1.276,0.304,1.92c0,0.65-0.237,1.812-0.405,2.981s-0.265,2.344,0.015,3.019
			c0.28,0.675,1.165,2.232,2.2,3.749c1.035,1.517,2.22,2.991,3.1,3.501v4.745v4.745c-0.384,0.216-0.799,0.365-1.226,0.444
			c-0.427,0.079-0.868,0.089-1.304,0.026c-0.64-0.14-1.07-0.442-1.26-0.839c-0.19-0.396-0.14-0.886,0.18-1.401
			c0.32-0.515,0.63-0.973,0.84-1.643s0.32-1.552,0.24-2.917"/>
	</g>
</g>
</svg>
