<svg xmlns="http://www.w3.org/2000/svg" viewBox="0 0 100 100"><polygon points="91.32 38.77 79.26 19.78 62.5 29.23 62.5 9.53 38.39 9.53 38.39 29.73 20.74 19.78 8.68 38.77 27.13 49.18 8.68 59.58 20.74 78.57 38.39 68.62 38.39 90.47 62.5 90.47 62.5 69.12 79.26 78.57 91.32 59.58 72.87 49.18 91.32 38.77" fill="#1a1a1a"/><path d="M38.18,66.52h-11V60.68h2.94V38.92H27.14V33.08h11v5.84h-3V60.68h3Z" fill="#fff"/><path d="M55.28,66.52H41.59V33.08h5.15V60.14h8.54Z" fill="#fff"/><path d="M64.07,67.12a10.62,10.62,0,0,1-4.14-.74,16.41,16.41,0,0,1-3.31-1.84v-8h.47a11.94,11.94,0,0,0,3.4,3.28A6.92,6.92,0,0,0,64.1,61a6.16,6.16,0,0,0,1.16-.16,2.89,2.89,0,0,0,1.16-.5,3.08,3.08,0,0,0,.91-1.06,3.78,3.78,0,0,0,.37-1.81,3.25,3.25,0,0,0-.6-2,3.62,3.62,0,0,0-1.45-1.15c-.7-.3-1.44-.58-2.24-.85a13.13,13.13,0,0,1-2.22-1,7.93,7.93,0,0,1-3.42-3.68,14.41,14.41,0,0,1-1-5.8,11.43,11.43,0,0,1,2.44-7.6,7.61,7.61,0,0,1,6.09-2.91,11.53,11.53,0,0,1,3.64.61,12,12,0,0,1,3.24,1.64v7.63H71.7a11,11,0,0,0-2.79-2.69,6.06,6.06,0,0,0-3.38-1.1,4.08,4.08,0,0,0-1.21.16,3.37,3.37,0,0,0-1.13.6,2.92,2.92,0,0,0-.84,1.07A3.56,3.56,0,0,0,62,42a3.38,3.38,0,0,0,.56,2,4.73,4.73,0,0,0,2.15,1.35l2,.74a14,14,0,0,1,2,1,7.93,7.93,0,0,1,3.17,3.38,12.72,12.72,0,0,1,1,5.6,12.54,12.54,0,0,1-2.4,8A7.85,7.85,0,0,1,64.07,67.12Z" fill="#fff"/></svg>