<svg xmlns="http://www.w3.org/2000/svg" viewBox="0 0 100 100"><path d="M18.62,63.47,33.79,62q1.37,7.65,5.55,11.23T50.63,76.8q7.53,0,11.35-3.19a9.48,9.48,0,0,0,3.81-7.45,7,7,0,0,0-1.6-4.67,12.86,12.86,0,0,0-5.61-3.35q-2.73-.95-12.48-3.37-12.52-3.1-17.58-7.64a20.12,20.12,0,0,1-7.11-15.55,19.9,19.9,0,0,1,3.35-11,21,21,0,0,1,9.63-7.82A38.61,38.61,0,0,1,49.58,10q14.54,0,21.87,6.38t7.72,17l-15.59.69q-1-6-4.29-8.57t-9.87-2.61q-6.8,0-10.63,2.8a5.62,5.62,0,0,0-2.48,4.79,5.92,5.92,0,0,0,2.32,4.69Q41.57,37.7,53,40.38t16.82,5.56A21.74,21.74,0,0,1,78.3,53.8a23,23,0,0,1,3.08,12.3,22.74,22.74,0,0,1-3.69,12.44,22.09,22.09,0,0,1-10.42,8.62Q60.54,90,50.47,90,35.85,90,28,83.21T18.62,63.47Z" fill="#ccc"/><path d="M14.75,61.07V37.44H27v2.79H17v7.24h9.34v2.77H17v8H27.35v2.78Z" fill="#000102"/><path d="M27.5,61.22H14.61V37.3h12.5v3.08h-10v6.94h9.34v3.07H17.13v7.75H27.5Zm-12.6-.29H27.2v-2.5H16.84V50.1h9.34V47.62H16.84V40.09h10v-2.5H14.9Z" fill="#fff"/><path d="M43.23,58.54a13.43,13.43,0,0,0,2.87,2.2l-.66,2.17A13,13,0,0,1,41.81,60a6.55,6.55,0,0,1-4.14,1.47,6.36,6.36,0,0,1-4.16-1.55,9.79,9.79,0,0,1-2.87-4.35,18.66,18.66,0,0,1-1-6.32,19.21,19.21,0,0,1,1-6.37,9.51,9.51,0,0,1,2.89-4.37A6.51,6.51,0,0,1,37.71,37a6.42,6.42,0,0,1,4.22,1.55,9.73,9.73,0,0,1,2.86,4.35,18.87,18.87,0,0,1,1,6.31,20.1,20.1,0,0,1-.63,5.25A12,12,0,0,1,43.23,58.54Zm-4.92-4A7.66,7.66,0,0,1,41.5,56.8c1.32-1.67,2-4.19,2-7.56a16.08,16.08,0,0,0-.7-5,7.34,7.34,0,0,0-2-3.33,4.44,4.44,0,0,0-3-1.18,4.88,4.88,0,0,0-4.15,2.39q-1.65,2.4-1.65,7.15a12.92,12.92,0,0,0,1.63,7.08,4.86,4.86,0,0,0,4.17,2.46A4.32,4.32,0,0,0,40,58.17a6.46,6.46,0,0,0-2.21-1.35Z" fill="#000102"/><path d="M45.53,63.12,45.37,63a12.87,12.87,0,0,1-3.57-2.83,6.74,6.74,0,0,1-4.13,1.41A6.5,6.5,0,0,1,33.42,60a10,10,0,0,1-2.92-4.41,19,19,0,0,1-1-6.37,19.21,19.21,0,0,1,1-6.42,9.56,9.56,0,0,1,2.93-4.43,6.68,6.68,0,0,1,4.27-1.53A6.57,6.57,0,0,1,42,38.47a9.87,9.87,0,0,1,2.91,4.41,19.12,19.12,0,0,1,1,6.36,20,20,0,0,1-.64,5.29,12.28,12.28,0,0,1-1.86,4,12.81,12.81,0,0,0,2.75,2.08l.1,0Zm-3.7-3.31.09.1a13,13,0,0,0,3.43,2.79l.57-1.89a14,14,0,0,1-2.79-2.16L43,58.56l.07-.1a12,12,0,0,0,1.89-4,19.84,19.84,0,0,0,.63-5.21,18.82,18.82,0,0,0-1-6.26,9.52,9.52,0,0,0-2.82-4.29,6.29,6.29,0,0,0-4.12-1.52,6.44,6.44,0,0,0-4.09,1.47,9.36,9.36,0,0,0-2.84,4.3,19.13,19.13,0,0,0-1,6.32,18.41,18.41,0,0,0,1,6.27,9.72,9.72,0,0,0,2.83,4.29,6.24,6.24,0,0,0,4.06,1.51,6.42,6.42,0,0,0,4-1.44ZM37.73,59a5,5,0,0,1-4.29-2.53c-1.1-1.67-1.65-4.07-1.65-7.16s.56-5.62,1.67-7.23a5.05,5.05,0,0,1,4.27-2.46,4.57,4.57,0,0,1,3.1,1.22,7.54,7.54,0,0,1,2.08,3.39,16.44,16.44,0,0,1,.71,5.06c0,3.38-.67,6-2,7.65l-.11.14-.12-.13a7.64,7.64,0,0,0-3-2.16l-.48,2a6.45,6.45,0,0,1,2.14,1.33l.15.14-.17.1A4.53,4.53,0,0,1,37.73,59Zm0-19.09a4.78,4.78,0,0,0-4,2.33c-1.08,1.57-1.62,4-1.62,7.07s.54,5.38,1.61,7a4.72,4.72,0,0,0,4,2.41,4.28,4.28,0,0,0,2-.51,6.06,6.06,0,0,0-2-1.19l-.12-.05.61-2.56.16.06a8.07,8.07,0,0,1,3.13,2.16c1.21-1.64,1.83-4.11,1.83-7.33a16.41,16.41,0,0,0-.69-5,7.32,7.32,0,0,0-2-3.27A4.31,4.31,0,0,0,37.73,39.86Z" fill="#fff"/><path d="M59.86,37.44h2.23V51.1a22.31,22.31,0,0,1-.57,5.65,6.82,6.82,0,0,1-2.08,3.41,5.78,5.78,0,0,1-3.95,1.32,5.78,5.78,0,0,1-6-4.46,21.52,21.52,0,0,1-.65-5.92V37.44h2.24V51.08a18,18,0,0,0,.41,4.54,4.25,4.25,0,0,0,1.4,2.25,3.86,3.86,0,0,0,2.44.79,3.9,3.9,0,0,0,3.51-1.57q1-1.56,1-6Z" fill="#000102"/><path d="M55.49,61.62a5.9,5.9,0,0,1-6.17-4.56,21.89,21.89,0,0,1-.65-6V37.3h2.52V51.08a18.11,18.11,0,0,0,.41,4.5A4.08,4.08,0,0,0,53,57.75a3.66,3.66,0,0,0,2.35.76A3.79,3.79,0,0,0,58.69,57c.68-1,1-3,1-5.93V37.3h2.53V51.1a22.64,22.64,0,0,1-.58,5.69,7,7,0,0,1-2.13,3.48A5.91,5.91,0,0,1,55.49,61.62ZM49,37.59V51.1A21.26,21.26,0,0,0,49.6,57a5.61,5.61,0,0,0,5.89,4.35,5.64,5.64,0,0,0,3.85-1.28,6.59,6.59,0,0,0,2-3.33,22.1,22.1,0,0,0,.57-5.62V37.59H60V51.08c0,3-.35,5-1.07,6.09A4,4,0,0,1,55.3,58.8,3.94,3.94,0,0,1,52.77,58a4.38,4.38,0,0,1-1.45-2.32,18.32,18.32,0,0,1-.42-4.58V37.59Z" fill="#fff"/><path d="M66.19,61.07V37.44h2.23V61.07Z" fill="#000102"/><path d="M68.57,61.22H66V37.3h2.53Zm-2.23-.29h1.94V37.59H66.34Z" fill="#fff"/><path d="M72.36,61.07V37.44h6.37a11.07,11.07,0,0,1,2.57.23,4.32,4.32,0,0,1,2.08,1.1,5.85,5.85,0,0,1,1.35,2.28,9.56,9.56,0,0,1,.52,3.23,9.11,9.11,0,0,1-1.37,5.1q-1.38,2.09-4.95,2.09H74.6v9.6ZM74.6,48.68H79A3.73,3.73,0,0,0,82,47.55a4.91,4.91,0,0,0,.91-3.17,5.51,5.51,0,0,0-.53-2.54A2.74,2.74,0,0,0,81,40.44a6.92,6.92,0,0,0-2.09-.21H74.6Z" fill="#000102"/><path d="M74.74,61.22H72.22V37.3h6.51a11.36,11.36,0,0,1,2.6.23,4.48,4.48,0,0,1,2.15,1.14A5.78,5.78,0,0,1,84.87,41a9.75,9.75,0,0,1,.52,3.27A9.31,9.31,0,0,1,84,49.46c-.94,1.43-2.65,2.15-5.07,2.15H74.74Zm-2.23-.29h1.94V51.32h4.48c2.32,0,3.94-.68,4.82-2a8.94,8.94,0,0,0,1.35-5,9.77,9.77,0,0,0-.5-3.18,5.6,5.6,0,0,0-1.32-2.22,4.29,4.29,0,0,0-2-1.07,10.79,10.79,0,0,0-2.53-.22H72.51ZM79,48.82H74.45V40.09h4.46a6.89,6.89,0,0,1,2.14.22,2.82,2.82,0,0,1,1.49,1.46,5.68,5.68,0,0,1,.55,2.61,5.1,5.1,0,0,1-.94,3.26A3.87,3.87,0,0,1,79,48.82Zm-4.22-.29H79a3.62,3.62,0,0,0,3-1.07,4.83,4.83,0,0,0,.88-3.08,5.51,5.51,0,0,0-.52-2.48A2.62,2.62,0,0,0,81,40.58a7,7,0,0,0-2-.2H74.74Z" fill="#fff"/></svg>