<?xml version="1.0" encoding="iso-8859-1"?>
<!-- Generator: Adobe Illustrator 25.4.1, SVG Export Plug-In . SVG Version: 6.00 Build 0)  -->
<svg version="1.1" id="Layer_1" xmlns="http://www.w3.org/2000/svg" xmlns:xlink="http://www.w3.org/1999/xlink" x="0px" y="0px"
	 viewBox="0 0 100 100" style="enable-background:new 0 0 100 100;" xml:space="preserve">
<polygon style="opacity:0.5;fill:#FF0000;" points="29.35,27.18 34.445,22.39 39.54,17.6 44.635,12.81 49.73,8.02 54.967,12.94 
	60.205,17.86 65.443,22.78 70.68,27.7 65.58,32.708 60.48,37.715 55.38,42.722 50.28,47.73 45.048,42.592 39.815,37.455 
	34.583,32.318 "/>
<path style="fill:#FFFFFF;" d="M49.73,9.28l4.905,4.607l4.905,4.608l4.905,4.608l4.905,4.608l-4.768,4.682l-4.767,4.682
	l-4.767,4.683L50.28,46.44l-4.908-4.812l-4.907-4.812l-4.908-4.812L30.65,27.19l4.77-4.477l4.77-4.478l4.77-4.478L49.73,9.28
	 M49.73,6.76l-5.428,5.1l-5.427,5.1l-5.427,5.1l-5.428,5.1l5.565,5.462l5.565,5.463l5.565,5.463l5.565,5.462l5.43-5.333l5.43-5.333
	l5.43-5.333L72,27.68l-5.567-5.222l-5.568-5.222l-5.568-5.222L49.73,6.79V6.783V6.775V6.767V6.76z"/>
<polygon style="fill:#FEFF00;" points="51.59,49.01 56.698,43.995 61.805,38.98 66.912,33.965 72.02,28.95 77.332,33.94 
	82.645,38.93 87.957,43.92 93.27,48.91 88.085,54.075 82.9,59.24 77.715,64.405 72.53,69.57 67.295,64.43 62.06,59.29 56.825,54.15 
	"/>
<path style="fill:#FFFFFF;" d="M72.03,30.23l4.98,4.675l4.98,4.675l4.98,4.675l4.98,4.675l-4.857,4.838l-4.857,4.837l-4.857,4.837
	L72.52,68.28l-4.905-4.818l-4.905-4.818l-4.905-4.817L52.9,49.01l4.783-4.695l4.782-4.695l4.782-4.695L72.03,30.23 M72.03,27.68
	l-5.438,5.333l-5.438,5.333l-5.438,5.332L50.28,49.01l5.562,5.462l5.562,5.463l5.562,5.463l5.562,5.463l5.515-5.5l5.515-5.5
	l5.515-5.5l5.515-5.5l-5.647-5.295l-5.647-5.295l-5.647-5.295L72,27.68h0.007h0.007h0.007H72.03z"/>
<polygon style="opacity:0.5;fill:#1700FF;" points="6.73,48.44 12.05,43.44 17.37,38.44 22.69,33.44 28.01,28.44 33.25,33.583 
	38.49,38.725 43.73,43.868 48.97,49.01 43.732,54.152 38.495,59.295 33.257,64.438 28.02,69.58 22.698,64.295 17.375,59.01 
	12.052,53.725 "/>
<path style="fill:#FFFFFF;" d="M27.99,29.71l4.915,4.825l4.915,4.825l4.915,4.825l4.915,4.825l-4.905,4.82l-4.905,4.82l-4.905,4.82
	l-4.905,4.82l-4.995-4.96l-4.995-4.96l-4.995-4.96L8.05,48.45l4.985-4.685l4.985-4.685l4.985-4.685L27.99,29.71 M27.99,27.16
	l-5.645,5.315L16.7,37.79l-5.645,5.315L5.41,48.42l5.653,5.61l5.653,5.61l5.653,5.61l5.653,5.61l5.565-5.463l5.565-5.462
	l5.565-5.463l5.565-5.463l-5.565-5.462l-5.565-5.463l-5.565-5.463L28.02,27.16h-0.007h-0.007h-0.007H27.99z"/>
<polygon style="opacity:0.5;fill:#FFFFFF;" points="50.28,49.01 55.842,54.472 61.405,59.935 66.967,65.397 72.53,70.86 
	66.967,76.402 61.405,81.945 55.842,87.488 50.28,93.03 44.715,87.488 39.15,81.945 33.585,76.402 28.02,70.86 33.585,65.397 
	39.15,59.935 44.715,54.472 "/>
<path style="opacity:0.5;" d="M50.28,94.79l-11.658-11.6l-11.657-11.6l-11.657-11.6L3.65,48.39l11.517-10.827l11.517-10.828
	l11.517-10.827L49.72,5.08l11.658,10.948l11.658,10.948l11.658,10.948L96.35,48.87L84.833,60.35L73.315,71.83L61.798,83.31
	L50.28,94.79z M7.15,48.44l10.783,10.718l10.782,10.717l10.782,10.717L50.28,91.31l10.638-10.598l10.638-10.597l10.638-10.597
	L92.83,48.92L82.055,38.8L71.28,28.68L60.505,18.56L49.73,8.44l-10.645,10l-10.645,10l-10.645,10L7.15,48.44z"/>
<polygon style="opacity:0.5;" points="27.156,28.037 27.585,27.6 28.014,27.162 28.443,26.725 28.872,26.288 40.001,37.213 
	51.13,48.138 62.259,59.063 73.388,69.988 72.958,70.425 72.529,70.862 72.1,71.299 71.671,71.736 60.542,60.811 49.414,49.886 
	38.285,38.962 "/>
<polygon style="opacity:0.5;" points="27.155,69.981 38.152,59.186 49.148,48.39 60.145,37.595 71.142,26.8 71.571,27.237 
	72,27.674 72.429,28.111 72.858,28.548 61.862,39.343 50.865,50.139 39.868,60.934 28.871,71.729 28.442,71.292 28.013,70.855 
	27.584,70.418 "/>
<path d="M35.45,17.6h6.845h6.845h6.845h6.845c1.229,0,2.4,0.249,3.464,0.699c1.065,0.45,2.024,1.102,2.829,1.908
	s1.457,1.764,1.907,2.829s0.7,2.235,0.7,3.464l0,0l0,0l0,0l0,0H60.435H49.14H37.845H26.55c0-1.229,0.249-2.4,0.699-3.465
	s1.102-2.023,1.908-2.828c0.805-0.806,1.764-1.457,2.829-1.908S34.221,17.6,35.45,17.6L35.45,17.6L35.45,17.6L35.45,17.6L35.45,17.6
	z"/>
<polygon points="44.14,6.87 46.592,6.87 49.045,6.87 51.497,6.87 53.95,6.87 53.95,10.032 53.95,13.195 53.95,16.358 53.95,19.52 
	51.497,19.52 49.045,19.52 46.592,19.52 44.14,19.52 44.14,16.358 44.14,13.195 44.14,10.032 "/>
<path d="M49.05,28.59c0.313,0,0.612,0.042,0.883,0.117s0.516,0.184,0.722,0.319c0.205,0.135,0.372,0.295,0.487,0.474
	c0.115,0.178,0.178,0.374,0.178,0.58s-0.063,0.402-0.178,0.58s-0.281,0.339-0.487,0.474s-0.45,0.244-0.722,0.319
	s-0.57,0.117-0.883,0.117s-0.612-0.042-0.883-0.117s-0.516-0.184-0.722-0.319c-0.205-0.135-0.372-0.295-0.487-0.474
	c-0.115-0.178-0.178-0.374-0.178-0.58s0.063-0.402,0.178-0.58s0.281-0.339,0.487-0.474c0.205-0.135,0.45-0.243,0.722-0.319
	C48.438,28.632,48.736,28.59,49.05,28.59z"/>
<path d="M49.05,34.63c0.313,0,0.612,0.042,0.883,0.117s0.516,0.184,0.722,0.319c0.205,0.135,0.372,0.296,0.487,0.474
	s0.178,0.374,0.178,0.58s-0.063,0.402-0.178,0.58s-0.281,0.339-0.487,0.474s-0.45,0.244-0.722,0.319
	c-0.271,0.075-0.57,0.117-0.883,0.117s-0.612-0.042-0.883-0.117s-0.516-0.184-0.722-0.319c-0.205-0.135-0.372-0.296-0.487-0.474
	s-0.178-0.374-0.178-0.58s0.063-0.402,0.178-0.58s0.281-0.339,0.487-0.474c0.205-0.134,0.45-0.243,0.722-0.319
	S48.736,34.63,49.05,34.63z"/>
<path d="M49.05,40.88c0.313,0,0.612,0.042,0.883,0.117s0.516,0.184,0.722,0.319s0.372,0.295,0.487,0.473s0.178,0.375,0.178,0.581
	s-0.063,0.402-0.178,0.58s-0.281,0.339-0.487,0.474s-0.45,0.244-0.722,0.319c-0.271,0.075-0.57,0.117-0.883,0.117
	s-0.612-0.042-0.883-0.117s-0.516-0.184-0.722-0.319s-0.372-0.295-0.487-0.473s-0.178-0.375-0.178-0.581s0.063-0.402,0.178-0.58
	s0.281-0.339,0.487-0.474s0.45-0.244,0.722-0.319C48.438,40.922,48.736,40.88,49.05,40.88z"/>
<path d="M49.05,47.02c0.313,0,0.612,0.042,0.883,0.117s0.516,0.184,0.722,0.319s0.372,0.295,0.487,0.473s0.178,0.375,0.178,0.581
	s-0.063,0.402-0.178,0.58s-0.281,0.339-0.487,0.474s-0.45,0.244-0.722,0.319S49.363,50,49.05,50s-0.612-0.042-0.883-0.117
	s-0.516-0.184-0.722-0.319s-0.372-0.295-0.487-0.473c-0.115-0.178-0.178-0.375-0.178-0.581s0.063-0.402,0.178-0.58
	s0.281-0.339,0.487-0.474s0.45-0.244,0.722-0.319S48.736,47.02,49.05,47.02z"/>
<path d="M40.75,28.19c0.313,0,0.612,0.042,0.883,0.117s0.516,0.184,0.722,0.319s0.372,0.295,0.487,0.473s0.178,0.375,0.178,0.581
	s-0.063,0.402-0.178,0.58s-0.281,0.339-0.487,0.474s-0.45,0.244-0.722,0.319c-0.271,0.075-0.57,0.117-0.883,0.117
	s-0.612-0.042-0.883-0.117s-0.516-0.184-0.722-0.319s-0.372-0.295-0.487-0.474c-0.115-0.178-0.178-0.375-0.178-0.58
	s0.063-0.402,0.178-0.58s0.281-0.339,0.487-0.474s0.45-0.244,0.722-0.319C40.138,28.232,40.437,28.19,40.75,28.19z"/>
<path d="M39.22,34.11c0.313,0,0.612,0.042,0.883,0.117s0.516,0.184,0.722,0.319c0.206,0.135,0.372,0.295,0.487,0.474
	c0.115,0.178,0.178,0.374,0.178,0.58s-0.063,0.402-0.178,0.58s-0.281,0.339-0.487,0.474s-0.45,0.244-0.722,0.319
	c-0.271,0.075-0.57,0.117-0.883,0.117s-0.612-0.042-0.883-0.117s-0.516-0.184-0.722-0.319c-0.206-0.135-0.372-0.295-0.487-0.474
	c-0.115-0.178-0.178-0.374-0.178-0.58s0.063-0.402,0.178-0.58s0.281-0.339,0.487-0.474s0.45-0.243,0.722-0.319
	C38.608,34.152,38.907,34.11,39.22,34.11z"/>
<path d="M37.99,40.03c0.313,0,0.612,0.042,0.883,0.117s0.516,0.184,0.722,0.319s0.372,0.295,0.487,0.473
	c0.115,0.178,0.178,0.375,0.178,0.581s-0.063,0.402-0.178,0.58s-0.281,0.339-0.487,0.474s-0.45,0.244-0.722,0.319
	c-0.271,0.075-0.57,0.117-0.883,0.117s-0.612-0.042-0.883-0.117s-0.516-0.184-0.722-0.319s-0.372-0.295-0.487-0.473
	c-0.115-0.178-0.178-0.375-0.178-0.581s0.063-0.402,0.178-0.58s0.281-0.339,0.487-0.474s0.45-0.244,0.721-0.319
	C37.378,40.071,37.676,40.03,37.99,40.03z"/>
<path d="M36.29,45.95c0.313,0,0.612,0.042,0.883,0.117s0.516,0.184,0.722,0.319s0.372,0.295,0.487,0.473s0.178,0.375,0.178,0.581
	s-0.063,0.402-0.178,0.58s-0.281,0.339-0.487,0.474s-0.45,0.244-0.722,0.319c-0.271,0.075-0.57,0.117-0.883,0.117
	s-0.612-0.042-0.883-0.117s-0.516-0.184-0.722-0.319s-0.372-0.295-0.487-0.473s-0.178-0.375-0.178-0.581s0.063-0.402,0.178-0.58
	s0.281-0.339,0.487-0.474s0.45-0.244,0.722-0.319C35.678,45.992,35.977,45.95,36.29,45.95z"/>
<path d="M23.63,45.1c0.314,0,0.612,0.042,0.884,0.117c0.271,0.075,0.516,0.184,0.721,0.319s0.372,0.295,0.487,0.473
	S25.9,46.384,25.9,46.59s-0.063,0.402-0.178,0.58s-0.281,0.339-0.487,0.474s-0.45,0.244-0.722,0.319
	c-0.271,0.075-0.57,0.117-0.883,0.117s-0.612-0.042-0.883-0.117c-0.272-0.075-0.516-0.184-0.722-0.319s-0.372-0.295-0.487-0.473
	s-0.178-0.375-0.178-0.581s0.063-0.402,0.178-0.58s0.281-0.339,0.487-0.474s0.45-0.244,0.722-0.319
	C23.018,45.141,23.316,45.1,23.63,45.1z"/>
<path d="M26.77,39.59c0.313,0,0.612,0.042,0.884,0.117c0.271,0.075,0.516,0.184,0.721,0.319s0.372,0.295,0.487,0.474
	s0.178,0.375,0.178,0.58s-0.063,0.402-0.178,0.58s-0.281,0.339-0.487,0.474s-0.45,0.244-0.722,0.319
	c-0.271,0.075-0.57,0.117-0.883,0.117s-0.612-0.042-0.883-0.117s-0.516-0.184-0.722-0.319s-0.372-0.295-0.487-0.474
	S24.5,41.285,24.5,41.08s0.063-0.402,0.178-0.58s0.281-0.339,0.487-0.474s0.45-0.244,0.722-0.319
	C26.158,39.632,26.457,39.59,26.77,39.59z"/>
<path d="M29.64,33.91c0.313,0,0.612,0.042,0.884,0.117c0.271,0.075,0.516,0.184,0.721,0.319c0.205,0.135,0.372,0.296,0.487,0.474
	s0.178,0.374,0.178,0.58s-0.063,0.402-0.178,0.58s-0.281,0.339-0.487,0.474c-0.205,0.135-0.45,0.244-0.722,0.319
	c-0.271,0.075-0.57,0.117-0.883,0.117s-0.612-0.042-0.883-0.117s-0.516-0.184-0.722-0.319c-0.205-0.135-0.372-0.296-0.487-0.474
	s-0.178-0.374-0.178-0.58s0.063-0.402,0.178-0.58s0.281-0.339,0.487-0.474c0.205-0.134,0.45-0.243,0.722-0.319
	S29.326,33.91,29.64,33.91z"/>
<path d="M32.82,28.36c0.313,0,0.612,0.042,0.883,0.117s0.516,0.184,0.722,0.319s0.372,0.295,0.487,0.474
	c0.115,0.178,0.178,0.374,0.178,0.58s-0.063,0.402-0.178,0.58s-0.281,0.339-0.487,0.474s-0.45,0.244-0.722,0.319
	s-0.57,0.117-0.883,0.117s-0.612-0.042-0.883-0.117s-0.516-0.184-0.722-0.319c-0.205-0.135-0.372-0.295-0.487-0.474
	c-0.115-0.178-0.178-0.374-0.178-0.58s0.063-0.402,0.178-0.58s0.281-0.339,0.487-0.474c0.205-0.135,0.45-0.243,0.722-0.319
	C32.208,28.402,32.507,28.36,32.82,28.36z"/>
<path d="M57.79,28.19c0.313,0,0.612,0.042,0.883,0.117s0.516,0.184,0.722,0.319s0.372,0.295,0.487,0.473s0.178,0.375,0.178,0.581
	s-0.063,0.402-0.178,0.58s-0.281,0.339-0.487,0.474s-0.45,0.244-0.722,0.319c-0.271,0.075-0.57,0.117-0.883,0.117
	s-0.612-0.042-0.883-0.117s-0.516-0.184-0.722-0.319s-0.372-0.295-0.487-0.474c-0.115-0.178-0.178-0.375-0.178-0.58
	s0.063-0.402,0.178-0.58s0.281-0.339,0.487-0.474s0.45-0.244,0.722-0.319C57.178,28.232,57.477,28.19,57.79,28.19z"/>
<path d="M59.32,34.11c0.313,0,0.612,0.042,0.883,0.117s0.516,0.184,0.722,0.319c0.206,0.135,0.372,0.295,0.487,0.474
	c0.115,0.178,0.178,0.374,0.178,0.58s-0.063,0.402-0.178,0.58s-0.281,0.339-0.487,0.474s-0.45,0.244-0.722,0.319
	c-0.271,0.075-0.57,0.117-0.883,0.117s-0.612-0.042-0.883-0.117s-0.516-0.184-0.722-0.319c-0.206-0.135-0.372-0.295-0.487-0.474
	c-0.115-0.178-0.178-0.374-0.178-0.58s0.063-0.402,0.178-0.58s0.281-0.339,0.487-0.474s0.45-0.243,0.722-0.319
	C58.708,34.152,59.007,34.11,59.32,34.11z"/>
<path d="M60.55,40.03c0.313,0,0.612,0.042,0.883,0.117s0.516,0.184,0.722,0.319s0.372,0.295,0.487,0.473
	c0.115,0.178,0.178,0.375,0.178,0.581s-0.063,0.402-0.178,0.58s-0.281,0.339-0.487,0.474s-0.45,0.244-0.722,0.319
	c-0.271,0.075-0.57,0.117-0.883,0.117s-0.612-0.042-0.883-0.117s-0.516-0.184-0.722-0.319s-0.372-0.295-0.487-0.473
	c-0.115-0.178-0.178-0.375-0.178-0.581s0.063-0.402,0.178-0.58s0.281-0.339,0.487-0.474s0.45-0.244,0.722-0.319
	C59.938,40.071,60.236,40.03,60.55,40.03z"/>
<path d="M62.25,45.95c0.313,0,0.612,0.042,0.883,0.117s0.516,0.184,0.722,0.319c0.206,0.135,0.372,0.295,0.487,0.473
	s0.178,0.375,0.178,0.581s-0.063,0.402-0.178,0.58s-0.281,0.339-0.487,0.474s-0.45,0.244-0.722,0.319
	c-0.271,0.075-0.57,0.117-0.883,0.117s-0.612-0.042-0.883-0.117s-0.516-0.184-0.722-0.319s-0.372-0.295-0.487-0.473
	s-0.178-0.375-0.178-0.581s0.063-0.402,0.178-0.58s0.281-0.339,0.487-0.474s0.45-0.244,0.722-0.319
	C61.638,45.992,61.937,45.95,62.25,45.95z"/>
<path d="M74.91,45.1c0.313,0,0.612,0.042,0.883,0.117s0.516,0.184,0.722,0.319s0.372,0.295,0.487,0.473s0.178,0.375,0.178,0.581
	s-0.063,0.402-0.178,0.58s-0.281,0.339-0.487,0.474s-0.45,0.244-0.722,0.319c-0.271,0.075-0.57,0.117-0.883,0.117
	s-0.612-0.042-0.883-0.117s-0.516-0.184-0.722-0.319s-0.372-0.295-0.487-0.473s-0.178-0.375-0.178-0.581s0.063-0.402,0.178-0.58
	s0.281-0.339,0.487-0.474s0.45-0.244,0.722-0.319C74.298,45.141,74.596,45.1,74.91,45.1z"/>
<path d="M71.77,39.59c0.313,0,0.612,0.042,0.883,0.117s0.516,0.184,0.722,0.319s0.372,0.295,0.487,0.474s0.178,0.375,0.178,0.58
	s-0.063,0.402-0.178,0.58s-0.281,0.339-0.487,0.474s-0.45,0.244-0.721,0.319s-0.57,0.117-0.884,0.117s-0.612-0.042-0.884-0.117
	s-0.516-0.184-0.721-0.319s-0.372-0.295-0.487-0.474S69.5,41.285,69.5,41.08s0.063-0.402,0.178-0.58s0.281-0.339,0.487-0.474
	s0.45-0.244,0.721-0.319C71.158,39.632,71.456,39.59,71.77,39.59z"/>
<path d="M68.89,33.91c0.313,0,0.612,0.042,0.883,0.117s0.516,0.184,0.722,0.319c0.205,0.135,0.372,0.296,0.487,0.474
	s0.178,0.374,0.178,0.58s-0.063,0.402-0.178,0.58s-0.281,0.339-0.487,0.474s-0.45,0.244-0.722,0.319
	c-0.271,0.075-0.57,0.117-0.883,0.117s-0.612-0.042-0.883-0.117s-0.516-0.184-0.722-0.319c-0.205-0.135-0.372-0.296-0.487-0.474
	s-0.178-0.374-0.178-0.58s0.063-0.402,0.178-0.58s0.281-0.339,0.487-0.474c0.205-0.134,0.45-0.243,0.722-0.319
	S68.576,33.91,68.89,33.91z"/>
<path d="M65.71,28.36c0.313,0,0.612,0.042,0.883,0.117s0.516,0.184,0.722,0.319s0.372,0.295,0.487,0.474
	c0.115,0.178,0.178,0.374,0.178,0.58s-0.063,0.402-0.178,0.58s-0.281,0.339-0.487,0.474s-0.45,0.244-0.721,0.319
	s-0.57,0.117-0.884,0.117s-0.612-0.042-0.884-0.117c-0.271-0.075-0.516-0.184-0.721-0.319s-0.372-0.295-0.487-0.474
	c-0.115-0.178-0.178-0.374-0.178-0.58s0.063-0.402,0.178-0.58s0.281-0.339,0.487-0.474s0.45-0.243,0.722-0.319
	C65.098,28.402,65.396,28.36,65.71,28.36z"/>
<path d="M72.65,84.94h-1.345H69.96h-1.345H67.27l-1.285-3.135L64.7,78.67l-1.285-3.135L62.13,72.4
	c-0.077-0.188-0.181-0.359-0.305-0.51s-0.27-0.283-0.431-0.391s-0.338-0.193-0.525-0.251c-0.188-0.058-0.386-0.088-0.589-0.088
	h-3.545H53.19h-3.545H46.1l-0.042-0.298l-0.042-0.298l-0.042-0.298L45.93,69.97h2.835H51.6h2.835h2.835
	c0.276,0,0.539-0.056,0.778-0.157s0.455-0.248,0.636-0.429s0.327-0.396,0.429-0.636s0.157-0.502,0.157-0.778
	s-0.056-0.539-0.157-0.778s-0.248-0.455-0.429-0.636s-0.396-0.327-0.636-0.429s-0.502-0.157-0.778-0.157h-2.975H51.32h-2.975H45.37
	l-0.25-1.72l-0.25-1.72l-0.25-1.72l-0.25-1.72c0.572-0.104,1.096-0.318,1.554-0.617s0.849-0.684,1.156-1.127
	c0.307-0.443,0.529-0.944,0.649-1.477c0.12-0.534,0.137-1.1,0.034-1.672s-0.318-1.096-0.617-1.554s-0.684-0.849-1.127-1.156
	s-0.944-0.529-1.477-0.649c-0.534-0.12-1.1-0.137-1.672-0.034s-1.096,0.318-1.554,0.617s-0.849,0.684-1.156,1.127
	s-0.529,0.944-0.649,1.477c-0.12,0.534-0.137,1.1-0.034,1.672c0.024,0.134,0.055,0.268,0.092,0.399s0.081,0.26,0.131,0.386
	c0.049,0.126,0.105,0.251,0.167,0.372c0.062,0.122,0.13,0.24,0.203,0.356l0.57,4.057l0.57,4.057l0.57,4.058l0.57,4.057
	c0.035,0.249,0.115,0.481,0.23,0.689c0.116,0.208,0.267,0.393,0.446,0.547s0.384,0.275,0.608,0.359
	c0.224,0.083,0.465,0.127,0.716,0.125h3.648h3.647h3.647h3.647l1.285,3.135l1.285,3.135l1.285,3.135L64.08,87.7
	c0.077,0.188,0.181,0.359,0.305,0.51s0.27,0.283,0.431,0.391s0.338,0.193,0.525,0.251c0.188,0.058,0.385,0.088,0.589,0.088h1.68
	h1.68h1.68h1.68c0.276,0,0.539-0.056,0.778-0.157s0.455-0.248,0.636-0.429s0.327-0.396,0.429-0.636s0.157-0.502,0.157-0.778
	s-0.056-0.539-0.157-0.778s-0.248-0.455-0.429-0.636s-0.396-0.327-0.636-0.429C73.189,84.996,72.926,84.94,72.65,84.94z"/>
<path d="M47.65,94.92c-1.942-0.003-3.793-0.398-5.475-1.113c-1.682-0.714-3.197-1.746-4.469-3.021
	c-1.271-1.275-2.3-2.792-3.009-4.476c-0.71-1.684-1.101-3.536-1.099-5.478c0.001-0.929,0.094-1.849,0.274-2.746
	s0.447-1.774,0.795-2.616s0.779-1.65,1.286-2.413c0.507-0.762,1.091-1.479,1.747-2.137l0.53,0.53l0.53,0.53l0.53,0.53l0.53,0.53
	c-1.074,1.088-1.877,2.341-2.409,3.677s-0.793,2.754-0.784,4.171s0.288,2.831,0.837,4.16c0.549,1.329,1.367,2.573,2.454,3.647
	s2.341,1.877,3.677,2.409s2.754,0.793,4.171,0.784s2.831-0.288,4.16-0.837c1.329-0.549,2.573-1.367,3.647-2.454
	c0.252-0.256,0.491-0.522,0.717-0.8s0.437-0.566,0.634-0.864c0.198-0.298,0.381-0.605,0.548-0.921
	c0.168-0.316,0.32-0.64,0.457-0.972l0.697,0.26l0.698,0.26l0.698,0.26l0.698,0.26c-0.531,1.339-1.253,2.562-2.128,3.643
	c-0.875,1.082-1.902,2.022-3.043,2.794c-1.141,0.772-2.396,1.375-3.725,1.784C50.494,94.71,49.09,94.925,47.65,94.92z"/>
</svg>
