<svg xmlns="http://www.w3.org/2000/svg" viewBox="0 0 100 100"><polygon points="86.96 39.47 76.3 21.65 61.48 30.52 61.48 12.03 40.16 12.03 40.16 30.99 24.56 21.65 13.9 39.47 30.21 49.23 13.9 58.99 24.56 76.81 40.16 67.47 40.16 87.97 61.48 87.97 61.48 67.94 76.3 76.81 86.96 58.99 70.65 49.23 86.96 39.47" fill="#b3b3b3"/><path d="M24.55,77.41V34.76H13.36v-10H45.24v10H34.06V77.41Z"/><path d="M35.3,78.65h-12V36H12.13V23.47H46.48V36H35.3Zm-9.51-2.48h7V33.52H44V26H14.6v7.57H25.79Z" fill="#fff"/><path d="M85.75,77.41H74.15L63.6,58.09H60.2V77.41H50.74V24.71H66a24,24,0,0,1,5.49.55,10,10,0,0,1,4.32,2.28A12.77,12.77,0,0,1,79,32.13a17.9,17.9,0,0,1,1.19,7.06,21.41,21.41,0,0,1-2,9.82A16.1,16.1,0,0,1,73,55ZM70.44,40.85a9.74,9.74,0,0,0-.54-3.42,4.36,4.36,0,0,0-1.82-2.21,5.11,5.11,0,0,0-2-.67,22.74,22.74,0,0,0-2.72-.14H60.2V48.6h2.72a14.23,14.23,0,0,0,3.37-.34,4.49,4.49,0,0,0,2.35-1.43A6.32,6.32,0,0,0,70,44.46,12.28,12.28,0,0,0,70.44,40.85Z"/><path d="M87.87,78.65H73.42L62.87,59.33H61.44V78.65H49.5V23.47H66a25.85,25.85,0,0,1,5.77.58,11.23,11.23,0,0,1,4.86,2.56,14.13,14.13,0,0,1,3.55,5,19.27,19.27,0,0,1,1.29,7.55,22.64,22.64,0,0,1-2.09,10.39,17.51,17.51,0,0,1-4.72,5.77Zm-13-2.48h8.73L71.37,54.63l.94-.65a14.92,14.92,0,0,0,4.84-5.54A20.34,20.34,0,0,0,79,39.19a16.84,16.84,0,0,0-1.1-6.58A11.57,11.57,0,0,0,75,28.47a8.87,8.87,0,0,0-3.78-2A23.32,23.32,0,0,0,66,26H52V76.17h7V56.85h5.38Zm-12-26.33H59V33.17h4.42a23.31,23.31,0,0,1,2.88.15,6.48,6.48,0,0,1,2.46.84A5.55,5.55,0,0,1,71.05,37a10.81,10.81,0,0,1,.63,3.86,13.16,13.16,0,0,1-.5,4,7.51,7.51,0,0,1-1.63,2.83,5.66,5.66,0,0,1-3,1.8A15.63,15.63,0,0,1,62.92,49.84Zm-1.48-2.48h1.48a13.32,13.32,0,0,0,3.07-.3A3.24,3.24,0,0,0,67.71,46a5,5,0,0,0,1.11-1.93,11.13,11.13,0,0,0,.38-3.23,8.39,8.39,0,0,0-.46-3,3.11,3.11,0,0,0-1.31-1.6,3.81,3.81,0,0,0-1.49-.5,20.27,20.27,0,0,0-2.56-.13H61.44Z" fill="#fff"/></svg>