<?xml version="1.0" encoding="iso-8859-1"?>
<!-- Generator: Adobe Illustrator 25.2.3, SVG Export Plug-In . SVG Version: 6.00 Build 0)  -->
<svg version="1.1" id="Layer_1" xmlns="http://www.w3.org/2000/svg" xmlns:xlink="http://www.w3.org/1999/xlink" x="0px" y="0px"
	 viewBox="0 0 100 100" style="enable-background:new 0 0 100 100;" xml:space="preserve">
<g id="Layer_2_1_">
	<g id="Layer_2-2">
		<path d="M12.195,26.83h1.89h1.89v9.575v9.575h7.11h7.11v-9.575V26.83h1.89h1.89V50v23.17h-1.89h-1.89V62.335V51.5h-7.11h-7.11
			v10.835V73.17h-1.89h-1.89V50V26.83z"/>
		<path d="M39.915,26.83h2.205h2.205l6.885,18.72l6.885,18.72V45.55V26.83h1.785h1.785V50v23.17h-2.1h-2.1l-7-18.7l-7-18.7v18.7
			v18.7H41.69h-1.775V50V26.83z"/>
		<path d="M87.805,26.83v2.76v2.76H83.15h-4.655v20.41v20.41h-1.89h-1.89V52.76V32.35h-4.65h-4.65v-2.76v-2.76H76.61H87.805z"/>
	</g>
</g>
</svg>
