<?xml version="1.0" encoding="iso-8859-1"?>
<!-- Generator: Adobe Illustrator 25.2.3, SVG Export Plug-In . SVG Version: 6.00 Build 0)  -->
<svg version="1.1" id="Layer_1" xmlns="http://www.w3.org/2000/svg" xmlns:xlink="http://www.w3.org/1999/xlink" x="0px" y="0px"
	 viewBox="0 0 100 100" style="enable-background:new 0 0 100 100;" xml:space="preserve">
<g id="Layer_2_1_">
	<g id="Layer_2-2">
		<path d="M30.265,39.965c-0.818,0.008-1.633-0.054-2.437-0.183c-0.805-0.129-1.598-0.325-2.373-0.587
			c-1.454-0.48-2.756-1.281-3.824-2.323s-1.901-2.325-2.416-3.767c-0.305-0.841-0.531-1.706-0.676-2.585
			c-0.146-0.879-0.211-1.771-0.194-2.665c-0.009-0.851,0.057-1.7,0.195-2.536c0.139-0.837,0.351-1.661,0.635-2.464
			c0.252-0.725,0.58-1.419,0.977-2.071c0.398-0.653,0.864-1.262,1.393-1.819c0.536-0.532,1.126-1.002,1.76-1.405
			c0.634-0.402,1.311-0.736,2.02-0.995c0.786-0.287,1.595-0.503,2.417-0.645s1.656-0.211,2.493-0.205
			c0.445-0.002,0.889,0.011,1.333,0.039c0.444,0.028,0.886,0.072,1.327,0.131c0.369,0.049,0.736,0.109,1.102,0.181
			c0.365,0.072,0.728,0.155,1.088,0.249c0.325,0.09,0.648,0.191,0.966,0.303c0.319,0.112,0.633,0.234,0.944,0.367
			c0.285,0.12,0.55,0.237,0.798,0.351s0.478,0.224,0.693,0.329v2.83v2.83h-0.345h-0.346c-0.145-0.125-0.31-0.26-0.494-0.408
			c-0.184-0.147-0.386-0.307-0.606-0.482c-0.243-0.182-0.491-0.357-0.745-0.523c-0.253-0.167-0.512-0.326-0.775-0.477
			c-0.294-0.174-0.596-0.331-0.907-0.471c-0.31-0.14-0.629-0.263-0.953-0.369c-0.346-0.118-0.701-0.206-1.06-0.264
			c-0.36-0.059-0.724-0.087-1.09-0.086c-0.412-0.003-0.822,0.03-1.227,0.097c-0.405,0.067-0.804,0.168-1.193,0.303
			c-0.387,0.145-0.757,0.33-1.104,0.552s-0.671,0.478-0.966,0.768c-0.333,0.336-0.627,0.706-0.879,1.103
			c-0.251,0.397-0.46,0.822-0.621,1.267c-0.204,0.572-0.354,1.161-0.449,1.759c-0.095,0.598-0.136,1.204-0.121,1.811
			c-0.02,0.625,0.022,1.248,0.126,1.861s0.269,1.216,0.494,1.799c0.17,0.439,0.388,0.855,0.65,1.243
			c0.262,0.387,0.567,0.746,0.91,1.067c0.304,0.282,0.638,0.529,0.996,0.735s0.738,0.373,1.134,0.495
			c0.375,0.121,0.758,0.213,1.146,0.275s0.78,0.094,1.174,0.095c0.368,0,0.735-0.028,1.097-0.083s0.721-0.138,1.073-0.247
			c0.351-0.104,0.695-0.23,1.029-0.379c0.334-0.149,0.658-0.319,0.971-0.511c0.247-0.151,0.489-0.31,0.726-0.477
			c0.237-0.167,0.468-0.341,0.694-0.523c0.22-0.175,0.42-0.335,0.601-0.483c0.181-0.147,0.344-0.282,0.489-0.407h0.315h0.315v2.8
			v2.8l-0.835,0.37l-0.835,0.37c-0.273,0.117-0.55,0.225-0.83,0.323c-0.28,0.098-0.564,0.187-0.85,0.267
			c-0.354,0.103-0.71,0.197-1.069,0.282c-0.358,0.085-0.719,0.161-1.081,0.228c-0.461,0.063-0.923,0.108-1.387,0.134
			C31.194,39.965,30.73,39.975,30.265,39.965z"/>
		<path d="M55.545,39.515H48.72h-6.825v-2.07v-2.07h1.915h1.915V27.84v-7.535H43.81h-1.915v-2.07v-2.07h6.825h6.825v2.07v2.07h-1.9
			h-1.9v7.535v7.535h1.9h1.9v2.07V39.515z"/>
		<path d="M81.655,16.165L77.4,27.84l-4.255,11.675H69.77h-3.375L62.14,27.84l-4.255-11.675h3.16h3.16l2.825,8.195l2.825,8.195
			L72.7,24.36l2.845-8.195H78.6H81.655z"/>
		<path d="M93.155,7.385L95.69,4.85l2.535-2.535c0.155-0.154,0.232-0.356,0.233-0.558c0.001-0.202-0.076-0.405-0.23-0.559
			l-0.001-0.001l-0.001-0.001c-0.151-0.153-0.35-0.231-0.55-0.232c-0.2-0.001-0.4,0.074-0.553,0.225
			c-0.001,0.001-0.002,0.002-0.003,0.003c-0.001,0.001-0.002,0.002-0.003,0.003L94.582,3.73l-2.537,2.535l-1.385-1.38l-1.385-1.38
			l-1.865,5.17l-1.865,5.17l5.175-1.85l5.175-1.85l-1.37-1.38L93.155,7.385z"/>
		<path d="M6.845,7.385L4.31,4.85L1.775,2.315C1.62,2.16,1.543,1.958,1.543,1.755c0-0.203,0.077-0.405,0.232-0.56
			s0.357-0.232,0.56-0.232S2.74,1.04,2.895,1.195L5.43,3.73l2.535,2.535l1.38-1.38l1.38-1.38l1.85,5.17l1.85,5.17l-5.17-1.85
			l-5.17-1.85l1.38-1.38L6.845,7.385z"/>
		<path d="M93.155,92.625l2.535,2.535l2.535,2.535c0.153,0.153,0.23,0.354,0.23,0.555s-0.077,0.402-0.23,0.555
			s-0.354,0.23-0.555,0.23s-0.402-0.077-0.555-0.23L94.58,96.27l-2.535-2.535l-1.385,1.38l-1.385,1.38l-1.865-5.17l-1.865-5.17
			l5.175,1.85l5.175,1.85l-1.37,1.385L93.155,92.625z"/>
		<path d="M6.845,92.625L4.31,95.16l-2.535,2.535c-0.153,0.151-0.231,0.35-0.232,0.55c-0.001,0.2,0.074,0.4,0.225,0.553
			c0.001,0.001,0.002,0.002,0.003,0.003c0.001,0.001,0.002,0.002,0.003,0.003c0.154,0.155,0.356,0.232,0.558,0.233
			c0.202,0.001,0.405-0.076,0.559-0.23l0.001-0.001l0.001-0.001l2.535-2.535l2.537-2.535l1.38,1.38l1.38,1.38l1.85-5.17l1.85-5.17
			l-5.17,1.85l-5.17,1.85l1.38,1.385L6.845,92.625z"/>
		<path d="M74.545,54.965c-1-2.38-2.423-3.538-3.842-4.093c-1.42-0.555-2.838-0.507-3.827-0.477s-2.417-0.017-3.841,0.522
			c-1.424,0.54-2.844,1.668-3.819,4.048c-1.07,2.605-2.07,5.158-2.697,7.177c-0.628,2.02-0.882,3.507-0.463,3.983
			c0.86,0.545,2.033-1.433,3.104-3.604c1.071-2.171,2.041-4.536,2.496-4.766s0.728-0.23,0.886,0.141s0.203,1.114,0.203,2.369
			s-0.092,7.488-0.185,13.581c-0.092,6.094-0.185,12.049-0.185,12.749c1.675,0.23,2.535-0.445,2.976-1.41
			c0.441-0.965,0.464-2.22,0.464-3.15c0-0.815-0.058-3.385,0.046-5.751s0.369-4.529,1.014-4.529s0.91,2.162,1.014,4.529
			c0.104,2.366,0.046,4.936,0.046,5.751c0,0.93,0.022,2.18,0.464,3.143c0.441,0.962,1.301,1.637,2.976,1.417
			c0-0.7-0.092-6.655-0.185-12.749c-0.093-6.093-0.185-12.326-0.185-13.581s0.048-2.005,0.209-2.38s0.436-0.375,0.891-0.13
			s1.425,2.61,2.496,4.778s2.244,4.137,3.104,3.592c0.38-0.47,0.113-1.955-0.511-3.975C76.57,60.13,75.59,57.575,74.545,54.965z"/>
		<path d="M66.825,42.595c0.9,0,1.715,0.365,2.305,0.955s0.955,1.405,0.955,2.305S69.72,47.57,69.13,48.16s-1.405,0.955-2.305,0.955
			S65.11,48.75,64.52,48.16c-0.59-0.59-0.955-1.405-0.955-2.305s0.365-1.715,0.955-2.305C65.11,42.96,65.925,42.595,66.825,42.595z"
			/>
		<path d="M56.195,68.545c-0.315-0.105-0.698,0.098-1.091,0.43s-0.799,0.795-1.159,1.21c-0.399,0.354-0.86,0.621-1.355,0.791
			s-1.023,0.243-1.555,0.209h-1.14h-1.14c-0.531,0.033-1.057-0.041-1.55-0.211s-0.953-0.436-1.35-0.789
			c-0.36-0.415-0.768-0.878-1.163-1.21s-0.778-0.535-1.087-0.43c-0.309,0.105-0.162,0.575,0.219,1.225
			c0.381,0.65,0.996,1.48,1.621,2.305c0.278,0.344,0.615,0.63,0.991,0.849c0.376,0.219,0.792,0.369,1.229,0.441
			c0,2-0.045,5.885-0.09,9.345c-0.045,3.46-0.09,6.495-0.09,6.795c0.895,0.125,1.355-0.237,1.591-0.755
			c0.236-0.518,0.249-1.19,0.249-1.685s-0.03-1.873,0.026-3.126c0.056-1.254,0.199-2.384,0.544-2.384s0.487,1.158,0.544,2.425
			c0.056,1.267,0.026,2.645,0.026,3.085s0,1.113,0.231,1.644c0.231,0.531,0.694,0.921,1.619,0.796c0-0.3-0.033-3.3-0.071-6.743
			c-0.039-3.442-0.084-7.327-0.109-9.397c0.436-0.074,0.85-0.226,1.226-0.445c0.376-0.219,0.713-0.504,0.994-0.845
			c0.62-0.825,1.198-1.632,1.561-2.271C56.28,69.165,56.43,68.695,56.195,68.545z"/>
		<path d="M49.895,65.915c0.483,0,0.921,0.196,1.237,0.513c0.317,0.317,0.513,0.754,0.513,1.237s-0.196,0.921-0.513,1.237
			c-0.317,0.317-0.754,0.513-1.237,0.513s-0.921-0.196-1.237-0.513c-0.317-0.316-0.513-0.754-0.513-1.237s0.196-0.921,0.513-1.237
			C48.974,66.111,49.412,65.915,49.895,65.915z"/>
		<path d="M32.965,42.595c0.9,0,1.715,0.365,2.305,0.955s0.955,1.405,0.955,2.305S35.86,47.57,35.27,48.16s-1.405,0.955-2.305,0.955
			S31.25,48.75,30.66,48.16s-0.955-1.405-0.955-2.305s0.365-1.715,0.955-2.305S32.065,42.595,32.965,42.595z"/>
		<path d="M40.635,54.965c-1-2.38-2.423-3.538-3.842-4.093c-1.42-0.555-2.838-0.507-3.828-0.477s-2.418-0.017-3.841,0.522
			c-1.424,0.54-2.844,1.668-3.819,4.048c-1.07,2.605-2.07,5.158-2.698,7.177c-0.627,2.02-0.882,3.507-0.462,3.983
			c0.86,0.545,2.032-1.433,3.104-3.604c1.072-2.171,2.041-4.536,2.496-4.766s0.728-0.23,0.886,0.141
			c0.159,0.371,0.204,1.114,0.204,2.369c0,0.185,0,0.475,0,0.855s0,0.85,0,1.395c-0.25,0.305-0.5,0.615-0.734,0.924
			s-0.451,0.616-0.636,0.916c-0.689,1.166-1.254,2.397-1.69,3.672c-0.436,1.275-0.741,2.594-0.91,3.938
			c0.631,0.093,1.265,0.167,1.9,0.222c0.635,0.055,1.272,0.091,1.91,0.108c-0.05,3.3-0.102,6.685-0.142,9.34s-0.067,4.58-0.067,4.96
			c1.675,0.23,2.535-0.445,2.976-1.41s0.464-2.22,0.464-3.15c0-0.685-0.04-2.603,0.009-4.598c0.049-1.995,0.186-4.067,0.541-5.062
			c0.17,0,0.338,0,0.505,0s0.332,0,0.495,0c0.355,1,0.493,3.073,0.541,5.066c0.049,1.994,0.009,3.909,0.009,4.594
			c0,0.93,0.022,2.18,0.464,3.143c0.441,0.962,1.301,1.637,2.976,1.417c0-0.38-0.028-2.305-0.068-4.96s-0.092-6.04-0.142-9.34
			c0.643-0.016,1.285-0.052,1.925-0.107c0.64-0.055,1.279-0.129,1.915-0.223c-0.166-1.344-0.47-2.663-0.904-3.938
			c-0.434-1.275-0.998-2.506-1.686-3.672c-0.212-0.319-0.432-0.632-0.66-0.938s-0.465-0.607-0.71-0.902c0-0.545,0-1.015,0-1.395
			s0-0.67,0-0.855c0-1.255,0.048-2.005,0.209-2.38s0.436-0.375,0.891-0.13s1.425,2.61,2.496,4.778
			c1.071,2.168,2.244,4.138,3.104,3.593c0.395-0.47,0.135-1.955-0.491-3.975C42.698,60.13,41.705,57.575,40.635,54.965z"/>
	</g>
</g>
</svg>
