<?xml version="1.0" encoding="iso-8859-1"?>
<!-- Generator: Adobe Illustrator 25.2.3, SVG Export Plug-In . SVG Version: 6.00 Build 0)  -->
<svg version="1.1" id="Layer_1" xmlns="http://www.w3.org/2000/svg" xmlns:xlink="http://www.w3.org/1999/xlink" x="0px" y="0px"
	 viewBox="0 0 100 100" style="enable-background:new 0 0 100 100;" xml:space="preserve">
<g id="Layer_2_1_">
	<g id="Layer_2-2">
		<path d="M87.075,56.68l-6.42,3.415l-6.42,3.415l1.775,1.065l1.775,1.065c-2.493,4.447-5.964,8.173-10.077,10.949
			c-4.113,2.776-8.866,4.603-13.923,5.251v-23.7v-23.7c3.022-1.078,5.321-3.28,6.595-5.967c1.274-2.687,1.523-5.86,0.444-8.882
			s-3.28-5.321-5.967-6.595s-5.86-1.523-8.882-0.444s-5.321,3.28-6.595,5.967c-1.274,2.687-1.523,5.86-0.444,8.882
			c0.586,1.642,1.525,3.109,2.728,4.312c1.203,1.203,2.67,2.142,4.312,2.728v23.73V81.9c-5.062-0.605-9.831-2.391-13.966-5.133
			c-4.136-2.742-7.638-6.44-10.165-10.867l1.96-1.175l1.96-1.175l-6.43-3.435l-6.43-3.435v7.27v7.27l1.9-1.135l1.9-1.135
			c5.236,9.122,13.674,15.258,23.084,17.805s19.791,1.504,28.913-3.733c2.966-1.703,5.676-3.789,8.065-6.195
			c2.389-2.405,4.456-5.13,6.138-8.108l2.085,1.25l2.085,1.25v-7.27C87.075,63.949,87.075,56.68,87.075,56.68z M43.255,23.52
			c-0.003-1.828,0.736-3.484,1.932-4.684c1.196-1.2,2.85-1.943,4.678-1.946s3.484,0.736,4.684,1.932
			c1.2,1.196,1.943,2.85,1.946,4.678c0.003,1.824-0.733,3.477-1.925,4.677c-1.192,1.199-2.841,1.945-4.665,1.953
			c-1.828,0.008-3.486-0.725-4.69-1.918c-1.203-1.193-1.952-2.844-1.96-4.672c0-0.003,0-0.007,0-0.01
			C43.255,23.527,43.255,23.523,43.255,23.52z"/>
	</g>
</g>
</svg>
