<?xml version="1.0" encoding="iso-8859-1"?>
<!-- Generator: Adobe Illustrator 25.2.3, SVG Export Plug-In . SVG Version: 6.00 Build 0)  -->
<svg version="1.1" id="Layer_1" xmlns="http://www.w3.org/2000/svg" xmlns:xlink="http://www.w3.org/1999/xlink" x="0px" y="0px"
	 viewBox="0 0 100 100" style="enable-background:new 0 0 100 100;" xml:space="preserve">
<g id="Layer_2_1_">
	<g id="Layer_2-2">
		<path d="M20.32,25.94c0.005,0.443,0.063,0.883,0.173,1.309c0.109,0.426,0.269,0.84,0.477,1.231
			c0.422,0.635,1.003,1.128,1.667,1.443c0.665,0.315,1.414,0.452,2.173,0.377c0.384,0.004,0.767-0.028,1.144-0.095
			s0.747-0.169,1.106-0.305c0.611-0.178,1.123-0.553,1.476-1.042c0.353-0.489,0.547-1.092,0.524-1.728
			c0.036-0.406-0.028-0.807-0.179-1.173C28.73,25.591,28.492,25.262,28.18,25c-0.401-0.261-0.825-0.484-1.265-0.666
			c-0.44-0.182-0.897-0.324-1.365-0.424l-1.105-0.28l-1.105-0.28c-0.54-0.109-1.069-0.266-1.579-0.468s-1.003-0.451-1.471-0.742
			c-0.528-0.407-0.937-0.932-1.204-1.521c-0.267-0.589-0.39-1.244-0.346-1.909c-0.02-0.742,0.107-1.472,0.368-2.152
			s0.652-1.309,1.162-1.848c0.572-0.562,1.249-0.991,1.983-1.269s1.526-0.404,2.327-0.361c0.786-0.024,1.565,0.086,2.304,0.321
			s1.438,0.595,2.066,1.069c0.638,0.553,1.125,1.242,1.434,2.004c0.309,0.762,0.439,1.595,0.366,2.436h-1.07h-1.07
			c-0.024-0.398-0.096-0.79-0.214-1.167c-0.117-0.378-0.28-0.742-0.486-1.083c-0.405-0.514-0.927-0.906-1.511-1.154
			c-0.583-0.248-1.228-0.351-1.879-0.286c-0.507-0.05-1.012,0.01-1.485,0.169s-0.911,0.416-1.285,0.761
			c-0.278,0.286-0.494,0.621-0.638,0.985c-0.145,0.364-0.218,0.756-0.212,1.155c-0.031,0.4,0.049,0.793,0.223,1.139
			c0.173,0.346,0.438,0.646,0.777,0.861c0.478,0.226,0.969,0.423,1.47,0.589c0.501,0.167,1.012,0.305,1.53,0.411l1.14,0.275
			l1.14,0.275c0.461,0.102,0.909,0.251,1.336,0.446C28.943,22.48,29.35,22.719,29.73,23c0.533,0.468,0.943,1.046,1.208,1.685
			c0.265,0.638,0.386,1.337,0.342,2.045c0.076,0.851-0.077,1.69-0.422,2.441c-0.345,0.751-0.883,1.413-1.578,1.909
			c-0.684,0.443-1.427,0.779-2.202,1s-1.583,0.326-2.398,0.31c-0.887,0.055-1.765-0.076-2.583-0.374
			c-0.817-0.298-1.573-0.763-2.217-1.376c-0.599-0.63-1.052-1.372-1.342-2.172c-0.29-0.8-0.415-1.66-0.358-2.528h1.07H20.32z"/>
		<path d="M35.57,13.54l1.585,7.44l1.585,7.44l1.9-7.44l1.9-7.44h1.23H45l1.9,7.455l1.9,7.455l1.585-7.455l1.585-7.455h1.25h1.25
			l-2.21,9.155l-2.21,9.155h-1.195H47.66l-1.94-7.59l-1.94-7.59l-1.95,7.59l-1.95,7.59h-1.195H37.49l-2.195-9.155L33.1,13.54h1.235
			H35.57z"/>
		<path d="M60.61,13.54h1.285h1.285l3.05,9.155l3.05,9.155h-1.25h-1.25l-0.875-2.74l-0.875-2.74h-3.295H58.44l-0.91,2.74l-0.91,2.74
			h-1.17h-1.17l3.165-9.155L60.61,13.54z M64.38,24.35l-1.29-4.045L61.8,16.26l-1.345,4.045L59.11,24.35h2.635H64.38z"/>
		<path d="M81.82,13.54v1.09v1.09H79h-2.82v8.065v8.065h-1.15h-1.15v-8.065V15.72h-2.85h-2.85v-1.09v-1.09H75H81.82z"/>
		<path style="fill:#0C23F5;" d="M74.44,55.78l-3.63-5.95l-3.63-5.95l-5.105,3.1l-5.105,3.1v-6v-6h-6.965H43.04v6v6l-5.1-3.105
			l-5.1-3.105l-3.64,5.945l-3.64,5.945l5.535,3.385l5.535,3.385l-5.535,3.385L25.56,69.3l3.63,5.945l3.63,5.945l5.1-3.115l5.1-3.115
			v6v6h6.97h6.97v-6v-6l5.11,3.125l5.11,3.125l3.635-5.945l3.635-5.945l-5.545-3.39l-5.545-3.39l5.54-3.38L74.44,55.78z M45,66.28
			h-2.755H39.49v-3.745V58.79h2.72h2.72v0.46v0.46h-2.225H40.48v1.135v1.135h2.055h2.055v0.435v0.435h-2.055H40.48v1.27v1.27h2.26
			H45v0.445V66.28z M53.52,66.28h-0.5h-0.5v-2.21v-2.21c0-0.075,0-0.175,0-0.301s0-0.279,0-0.459s0-0.362,0-0.55s0-0.38,0-0.58
			l-1.07,3.16l-1.07,3.16h-0.5h-0.5l-1.08-3.165l-1.08-3.165v0.115v0.115c0,0.095,0,0.212,0,0.353c0,0.14,0,0.303,0,0.487
			s0,0.35,0,0.49c0,0.14,0,0.255,0,0.34v2.21v2.21h-0.5h-0.5v-3.745V58.79h0.725h0.725l1.075,3.17l1.075,3.17l1.07-3.17l1.07-3.17
			h0.725h0.725l0.055,3.745L53.52,66.28z M60.52,59.68h-1.265H57.99v3.3v3.3h-0.5h-0.5v-3.3v-3.3h-1.275H54.44v-0.45v-0.45h3.035
			h3.035l0.005,0.45L60.52,59.68z"/>
	</g>
</g>
</svg>
