<svg xmlns="http://www.w3.org/2000/svg" viewBox="0 0 100 100"><path d="M18.64,31.56,22,31.19A5,5,0,0,0,23.17,34a3.33,3.33,0,0,0,2.47.91,3.43,3.43,0,0,0,2.48-.81A2.54,2.54,0,0,0,29,32.24a1.94,1.94,0,0,0-.35-1.18,2.78,2.78,0,0,0-1.22-.84c-.4-.16-1.31-.45-2.73-.85a8.62,8.62,0,0,1-3.84-1.94,5.42,5.42,0,0,1-1.56-3.93A5.64,5.64,0,0,1,20,20.71a4.76,4.76,0,0,1,2.11-2,7.34,7.34,0,0,1,3.32-.68,6.48,6.48,0,0,1,4.78,1.61A6.15,6.15,0,0,1,31.88,24l-3.41.17A3.54,3.54,0,0,0,27.53,22a3.09,3.09,0,0,0-2.15-.66,3.52,3.52,0,0,0-2.33.71,1.5,1.5,0,0,0-.54,1.21A1.59,1.59,0,0,0,23,24.42a8.29,8.29,0,0,0,3.13,1.31,15.09,15.09,0,0,1,3.67,1.4,5.12,5.12,0,0,1,1.87,2,7,7,0,0,1-.13,6.26,5.16,5.16,0,0,1-2.28,2.18,8.51,8.51,0,0,1-3.67.71,6.66,6.66,0,0,1-4.92-1.71A8,8,0,0,1,18.64,31.56Z"/><path d="M37.62,37.92l-4-19.54h3.49L39.62,31.8l3.09-13.42h4l3,13.65,2.59-13.65h3.43l-4.1,19.54H48L44.66,23.31,41.32,37.92Z"/><path d="M71.39,37.92H67.68l-1.47-4.44H59.46l-1.39,4.44H54.46L61,18.38h3.6Zm-6.27-7.73-2.33-7.25-2.28,7.25Z"/><path d="M75.24,37.92V21.69h-5V18.38h13.4v3.31h-5V37.92Z"/><path d="M74,65.32H73A21.31,21.31,0,0,0,53.57,45.7V43.51a2,2,0,1,0-4,0v2.22A21.34,21.34,0,0,0,30.75,65.32H29.21a2,2,0,1,0,0,3.94h1.57A21.35,21.35,0,0,0,49.62,88.34v3.31a2,2,0,0,0,4,0V88.38A21.32,21.32,0,0,0,72.93,69.26H74a2,2,0,0,0,0-3.94Zm-5,0H67.37a15.7,15.7,0,0,0-13.8-13.64v-2A17.4,17.4,0,0,1,69,65.32Zm-19.4,0H40.33a11.76,11.76,0,0,1,9.29-9.57Zm0,3.94v9.57a11.76,11.76,0,0,1-9.29-9.57Zm4,0h9.81a11.73,11.73,0,0,1-9.81,9.65Zm0-3.94V55.67a11.73,11.73,0,0,1,9.81,9.65Zm-4-15.6v2A15.69,15.69,0,0,0,36.35,65.32H34.7A17.38,17.38,0,0,1,49.62,49.72ZM34.77,69.26h1.58A15.68,15.68,0,0,0,49.62,82.82v1.54A17.39,17.39,0,0,1,34.77,69.26Zm18.8,15.17V82.9a15.7,15.7,0,0,0,13.8-13.64H69A17.38,17.38,0,0,1,53.57,84.43Z"/></svg>