<?xml version="1.0" encoding="iso-8859-1"?>
<!-- Generator: Adobe Illustrator 25.4.1, SVG Export Plug-In . SVG Version: 6.00 Build 0)  -->
<svg version="1.1" id="Layer_1" xmlns="http://www.w3.org/2000/svg" xmlns:xlink="http://www.w3.org/1999/xlink" x="0px" y="0px"
	 viewBox="0 0 100 100" style="enable-background:new 0 0 100 100;" xml:space="preserve">
<polygon style="fill:#FFFFFF;" points="0,0 50,0 100,0 100,50 100,100 50,100 0,100 0,50 "/>
<polygon style="fill:#008CF0;" points="99.09,99.25 99.09,50.08 99.09,0.91 49.92,50.08 0.75,99.25 49.92,99.25 "/>
<polygon style="fill:#000096;" points="0.289,98.796 49.461,49.624 98.633,0.451 99.093,0.911 99.552,1.371 50.38,50.543 
	1.208,99.715 0.748,99.255 "/>
<path d="M22.9,60.58c0.006,1.049-0.056,2.096-0.185,3.135s-0.324,2.069-0.585,3.085c-0.217,0.903-0.523,1.78-0.914,2.617
	c-0.39,0.838-0.864,1.636-1.416,2.383c-0.534,0.73-1.155,1.387-1.847,1.958c-0.692,0.571-1.455,1.056-2.273,1.442
	c-0.863,0.378-1.762,0.66-2.681,0.843c-0.919,0.183-1.857,0.266-2.799,0.247c-0.724-0.003-1.448-0.029-2.17-0.077
	C7.308,76.164,6.588,76.093,5.87,76c-0.603-0.071-1.202-0.168-1.795-0.29s-1.183-0.269-1.765-0.44v-5.135V65h0.395H3.1
	c0.333,0.203,0.682,0.4,1.048,0.59c0.365,0.19,0.746,0.373,1.142,0.55c0.463,0.194,0.945,0.336,1.436,0.425
	c0.491,0.089,0.992,0.124,1.494,0.105c0.632,0.032,1.261-0.04,1.862-0.209s1.175-0.435,1.698-0.791
	c0.428-0.339,0.796-0.743,1.091-1.193c0.295-0.451,0.519-0.949,0.659-1.477c0.191-0.626,0.337-1.264,0.438-1.909
	s0.155-1.297,0.162-1.951c0.02-0.73,0.035-1.502,0.045-2.317c0.01-0.815,0.015-1.673,0.015-2.573V44.125V34h-3.975H6.24v-4.615
	V24.77h8.33h8.33v17.905V60.58z"/>
<path style="fill:#FFFFFF;" d="M10.2,76.73c-0.734,0.002-1.467-0.019-2.199-0.062c-0.732-0.043-1.463-0.109-2.191-0.198
	c-0.618-0.07-1.233-0.168-1.842-0.293c-0.609-0.125-1.212-0.277-1.808-0.457l-0.17-0.05l-0.17-0.05v-5.565V64.49h0.705H3.23
	l0.06,0.03l0.06,0.03c0.347,0.205,0.699,0.4,1.056,0.587c0.357,0.187,0.718,0.364,1.084,0.533c0.433,0.176,0.882,0.304,1.34,0.385
	c0.458,0.08,0.924,0.113,1.39,0.095c0.575,0.039,1.149-0.016,1.699-0.159c0.551-0.144,1.078-0.376,1.561-0.691
	c0.386-0.307,0.718-0.672,0.987-1.078s0.473-0.856,0.603-1.332c0.181-0.605,0.319-1.222,0.414-1.845
	c0.095-0.623,0.147-1.253,0.156-1.885c0-0.73,0.015-1.502,0.03-2.316c0.015-0.814,0.03-1.669,0.03-2.564v-9.915V34.45H9.73H5.76
	v-5.085V24.28h8.815h8.815v18.15v18.15c0.005,1.069-0.059,2.137-0.19,3.195c-0.132,1.059-0.332,2.109-0.6,3.145
	c-0.231,0.925-0.551,1.823-0.955,2.682c-0.404,0.859-0.89,1.679-1.455,2.448c-0.559,0.762-1.21,1.448-1.933,2.044
	s-1.522,1.103-2.377,1.506c-0.895,0.39-1.827,0.682-2.779,0.871C12.149,76.661,11.176,76.748,10.2,76.73z M2.8,74.89
	c0.513,0.142,1.031,0.264,1.553,0.366S5.401,75.439,5.93,75.5c0.708,0.087,1.419,0.151,2.131,0.193s1.425,0.061,2.139,0.057
	c0.904,0.024,1.805-0.049,2.689-0.217c0.883-0.168,1.749-0.43,2.581-0.783c0.783-0.368,1.513-0.831,2.174-1.377
	S18.9,72.198,19.41,71.5c0.528-0.717,0.983-1.482,1.36-2.285c0.377-0.802,0.675-1.641,0.89-2.505
	c0.256-0.995,0.446-2.004,0.572-3.021c0.125-1.017,0.185-2.042,0.178-3.069V42.94V25.26h-7.84H6.73v4.105v4.105h3.97h3.97v10.405
	V54.28c0,0.9,0,1.76-0.006,2.577c-0.006,0.818-0.019,1.592-0.044,2.323c-0.009,0.678-0.065,1.354-0.169,2.022
	C14.348,61.87,14.197,62.531,14,63.18c-0.16,0.573-0.409,1.114-0.735,1.603s-0.728,0.928-1.195,1.297
	c-0.57,0.373-1.193,0.647-1.843,0.816c-0.65,0.169-1.328,0.233-2.007,0.184c-0.538,0.018-1.074-0.022-1.6-0.118
	s-1.042-0.247-1.54-0.452c-0.36-0.17-0.718-0.347-1.07-0.531c-0.352-0.184-0.7-0.374-1.04-0.569H2.885H2.8v4.74V74.89z"/>
<path d="M62.4,50c0,4.093-0.377,7.752-1.132,10.975c-0.755,3.223-1.887,6.012-3.397,8.365c-1.51,2.353-3.301,4.113-5.372,5.28
	c-2.072,1.167-4.424,1.74-7.058,1.72c-2.64,0-4.996-0.595-7.067-1.785c-2.072-1.19-3.859-2.975-5.363-5.355s-2.631-5.17-3.383-8.37
	S28.5,54.02,28.5,50c0-4.073,0.376-7.72,1.128-10.94c0.752-3.22,1.879-6.013,3.383-8.38c1.503-2.367,3.291-4.142,5.363-5.325
	c2.072-1.183,4.427-1.775,7.067-1.775c2.63,0,4.981,0.589,7.052,1.767s3.864,2.946,5.378,5.302c1.513,2.357,2.647,5.148,3.402,8.373
	C62.028,42.248,62.403,45.907,62.4,50z M53.33,50c0.02-1.292-0.024-2.584-0.131-3.871c-0.107-1.287-0.277-2.568-0.509-3.839
	c-0.154-0.917-0.373-1.822-0.656-2.705C51.752,38.701,51.406,37.837,51,37c-0.29-0.6-0.655-1.159-1.084-1.663
	S48.996,34.383,48.45,34c-0.902-0.585-1.933-0.877-2.965-0.877S43.422,33.415,42.52,34c-0.535,0.393-1.019,0.846-1.444,1.349
	S40.287,36.407,39.99,37c-0.418,0.826-0.775,1.68-1.067,2.556c-0.292,0.876-0.521,1.773-0.683,2.684
	c-0.242,1.286-0.419,2.582-0.531,3.883c-0.112,1.302-0.158,2.609-0.139,3.917c-0.022,1.299,0.02,2.597,0.125,3.89
	s0.274,2.581,0.505,3.86c0.165,0.896,0.394,1.777,0.685,2.638c0.291,0.861,0.643,1.7,1.055,2.512
	c0.291,0.602,0.657,1.161,1.087,1.665c0.43,0.504,0.925,0.953,1.473,1.335c0.446,0.292,0.929,0.516,1.435,0.668
	c0.505,0.152,1.032,0.23,1.565,0.232c0.539-0.011,1.07-0.103,1.576-0.272s0.986-0.413,1.424-0.728
	c0.539-0.386,1.024-0.836,1.446-1.341s0.78-1.061,1.064-1.659c0.406-0.816,0.756-1.658,1.046-2.521
	c0.291-0.862,0.523-1.744,0.694-2.639c0.224-1.277,0.385-2.564,0.482-3.856c0.097-1.292,0.13-2.588,0.098-3.884v0.03V50z"/>
<path style="fill:#FFFFFF;" d="M45.44,76.84c-2.715,0-5.155-0.618-7.301-1.846c-2.146-1.229-3.999-3.069-5.539-5.514
	s-2.69-5.287-3.455-8.532S28,54.055,28,50s0.385-7.753,1.151-11.035c0.766-3.283,1.914-6.15,3.439-8.545
	c1.525-2.395,3.377-4.235,5.529-5.476c2.151-1.241,4.601-1.884,7.321-1.884s5.153,0.615,7.294,1.834s3.991,3.041,5.546,5.456
	s2.708,5.257,3.471,8.531C62.515,42.155,62.89,45.86,62.89,50s-0.388,7.853-1.158,11.124c-0.77,3.271-1.923,6.101-3.452,8.476
	s-3.388,4.185-5.539,5.401C50.59,76.217,48.145,76.84,45.44,76.84z M45.44,24.04c-2.54,0-4.82,0.577-6.825,1.725
	c-2.005,1.147-3.735,2.865-5.175,5.145c-1.44,2.28-2.55,5.052-3.3,8.255S29,46,29,50s0.375,7.585,1.118,10.752S31.97,66.67,33.44,69
	c1.47,2.33,3.205,4.058,5.205,5.202c2,1.145,4.265,1.708,6.795,1.708s4.805-0.575,6.81-1.716s3.74-2.849,5.19-5.114
	s2.568-5.035,3.322-8.239C61.517,57.638,61.91,54,61.91,50s-0.375-7.62-1.119-10.816c-0.744-3.196-1.856-5.969-3.331-8.274
	s-3.215-4.033-5.219-5.184S47.97,24,45.44,24v0.02V24.04z M45.44,67.28c-0.573-0.009-1.14-0.101-1.682-0.269
	s-1.06-0.414-1.538-0.731c-0.585-0.407-1.113-0.886-1.572-1.423c-0.459-0.538-0.849-1.134-1.158-1.777
	c-0.423-0.834-0.785-1.697-1.084-2.581c-0.299-0.884-0.535-1.789-0.706-2.709c-0.228-1.285-0.395-2.58-0.498-3.88
	c-0.103-1.3-0.144-2.605-0.122-3.91c-0.017-1.323,0.031-2.645,0.145-3.962s0.292-2.628,0.535-3.928
	c0.166-0.936,0.401-1.857,0.702-2.756s0.668-1.776,1.098-2.624c0.318-0.627,0.708-1.211,1.161-1.741
	c0.453-0.53,0.969-1.007,1.539-1.419c0.982-0.619,2.101-0.922,3.215-0.91S47.701,33,48.67,33.64
	c0.581,0.402,1.106,0.874,1.563,1.405c0.457,0.531,0.847,1.12,1.157,1.755c0.42,0.847,0.78,1.722,1.078,2.618
	c0.297,0.896,0.532,1.812,0.702,2.742c0.234,1.288,0.406,2.586,0.514,3.889c0.108,1.303,0.154,2.612,0.136,3.921
	c0.024,1.309-0.016,2.617-0.119,3.92c-0.103,1.303-0.27,2.601-0.501,3.89c-0.181,0.905-0.421,1.797-0.718,2.669
	S51.83,62.173,51.42,63c-0.305,0.637-0.688,1.231-1.138,1.769c-0.45,0.538-0.968,1.019-1.542,1.431
	c-0.481,0.339-1.007,0.602-1.56,0.784c-0.553,0.182-1.132,0.283-1.72,0.296h-0.01H45.44z M45.44,33.61
	c-0.474-0.006-0.944,0.057-1.395,0.185s-0.884,0.321-1.285,0.575c-0.499,0.367-0.952,0.791-1.35,1.261s-0.741,0.986-1.02,1.539
	c-0.404,0.805-0.749,1.637-1.033,2.489c-0.284,0.852-0.507,1.725-0.667,2.611c-0.233,1.27-0.404,2.549-0.512,3.834
	c-0.108,1.285-0.154,2.575-0.138,3.866c-0.021,1.282,0.02,2.564,0.124,3.84s0.269,2.548,0.496,3.81
	c0.164,0.869,0.388,1.724,0.671,2.559s0.623,1.651,1.019,2.441c0.271,0.565,0.612,1.09,1.014,1.564
	c0.402,0.474,0.864,0.897,1.376,1.256c0.823,0.562,1.778,0.836,2.729,0.826c0.952-0.01,1.9-0.306,2.711-0.886
	c0.505-0.365,0.96-0.79,1.355-1.266c0.395-0.475,0.73-1.001,0.995-1.564c0.392-0.792,0.73-1.608,1.012-2.443
	s0.509-1.689,0.678-2.557c0.225-1.255,0.387-2.52,0.487-3.79c0.1-1.27,0.138-2.545,0.113-3.82c0.019-1.277-0.024-2.554-0.13-3.825
	c-0.105-1.272-0.272-2.538-0.5-3.795c-0.159-0.884-0.38-1.754-0.66-2.604s-0.621-1.681-1.02-2.486
	c-0.275-0.558-0.617-1.077-1.017-1.547c-0.4-0.47-0.857-0.891-1.363-1.253c-0.397-0.261-0.827-0.462-1.277-0.6
	c-0.45-0.138-0.919-0.213-1.393-0.22h-0.01H45.44z"/>
<path d="M83.44,76.45c-2.54,0-4.819-0.575-6.838-1.725s-3.776-2.875-5.272-5.175c-1.497-2.3-2.618-5.066-3.365-8.298
	c-0.747-3.232-1.118-6.929-1.115-11.092c0-4,0.374-7.601,1.122-10.802c0.748-3.202,1.871-6.004,3.368-8.408s3.255-4.202,5.275-5.397
	c2.02-1.195,4.302-1.786,6.845-1.773c0.611-0.007,1.221,0.018,1.829,0.075C85.896,23.911,86.501,24,87.1,24.12
	c0.53,0.113,1.054,0.249,1.571,0.407c0.517,0.158,1.027,0.34,1.529,0.543c0.439,0.201,0.87,0.418,1.292,0.652
	c0.422,0.234,0.835,0.483,1.238,0.748c0.455,0.295,0.865,0.57,1.231,0.825c0.366,0.255,0.689,0.49,0.969,0.705v6.045v6.045H94.5
	h-0.43c-0.205-0.275-0.438-0.575-0.696-0.906S92.83,38.49,92.52,38.09c-0.328-0.389-0.668-0.767-1.022-1.132
	c-0.354-0.365-0.72-0.718-1.098-1.058c-0.392-0.369-0.807-0.714-1.241-1.031C88.725,34.552,88.271,34.262,87.8,34
	c-0.46-0.252-0.948-0.443-1.452-0.571c-0.504-0.128-1.024-0.192-1.548-0.189c-0.592-0.006-1.179,0.066-1.747,0.212
	c-0.568,0.146-1.117,0.367-1.633,0.658c-0.601,0.376-1.152,0.821-1.644,1.325c-0.492,0.504-0.924,1.065-1.286,1.675
	c-0.491,0.809-0.912,1.656-1.26,2.533c-0.348,0.876-0.623,1.782-0.82,2.707c-0.29,1.279-0.502,2.574-0.638,3.876
	c-0.135,1.302-0.193,2.613-0.172,3.924c-0.026,1.337,0.031,2.674,0.171,4.001s0.363,2.646,0.669,3.949
	c0.219,0.921,0.515,1.821,0.885,2.689c0.37,0.868,0.813,1.705,1.325,2.501c0.372,0.573,0.811,1.097,1.307,1.56
	c0.495,0.463,1.047,0.867,1.643,1.2c0.497,0.272,1.024,0.482,1.568,0.624c0.544,0.143,1.106,0.219,1.672,0.226
	c0.562,0.001,1.12-0.071,1.659-0.212c0.539-0.141,1.061-0.352,1.551-0.628c0.47-0.246,0.921-0.525,1.35-0.834
	c0.429-0.309,0.837-0.649,1.22-1.016c0.361-0.332,0.708-0.678,1.042-1.036c0.334-0.359,0.653-0.73,0.958-1.114
	c0.285-0.36,0.552-0.702,0.802-1.026s0.483-0.629,0.698-0.914h0.385h0.385v5.985v5.985l-1.08,0.74l-1.08,0.74
	c-0.392,0.277-0.796,0.534-1.212,0.773c-0.415,0.239-0.842,0.458-1.278,0.657c-0.484,0.222-0.977,0.424-1.478,0.606
	c-0.5,0.182-1.008,0.343-1.522,0.484c-0.623,0.139-1.254,0.239-1.889,0.299S84.078,76.47,83.44,76.45z"/>
<path style="fill:#FFFFFF;" d="M83.44,76.94c-2.62,0-4.982-0.6-7.074-1.79c-2.091-1.19-3.911-2.97-5.446-5.33
	s-2.675-5.177-3.431-8.452S66.36,54.36,66.36,50.17c0-4.045,0.382-7.708,1.145-10.963c0.763-3.255,1.905-6.103,3.425-8.517
	s3.342-4.265,5.44-5.511c2.097-1.246,4.47-1.889,7.09-1.889c0.628-0.005,1.255,0.021,1.879,0.08c0.624,0.058,1.245,0.149,1.861,0.27
	c0.546,0.117,1.086,0.26,1.618,0.426c0.532,0.167,1.057,0.358,1.572,0.574c0.452,0.204,0.896,0.425,1.331,0.661
	c0.435,0.237,0.862,0.49,1.279,0.759c0.455,0.295,0.87,0.573,1.244,0.831c0.374,0.259,0.706,0.499,0.996,0.719l0.095,0.075
	l0.095,0.075v6.41v6.41h-0.8h-0.8l-0.07-0.1l-0.07-0.1c-0.205-0.27-0.435-0.568-0.691-0.891c-0.256-0.324-0.539-0.674-0.849-1.049
	c-0.317-0.389-0.649-0.765-0.994-1.129s-0.704-0.714-1.076-1.051c-0.379-0.348-0.779-0.672-1.196-0.971
	c-0.417-0.299-0.853-0.573-1.304-0.819c-0.924-0.488-1.94-0.723-2.953-0.705c-1.012,0.017-2.02,0.286-2.927,0.805
	c-0.566,0.361-1.086,0.787-1.549,1.267s-0.87,1.014-1.211,1.593c-0.472,0.787-0.877,1.611-1.211,2.462s-0.598,1.73-0.789,2.628
	c-0.281,1.26-0.488,2.535-0.62,3.817c-0.132,1.282-0.189,2.572-0.17,3.863c-0.021,1.313,0.04,2.624,0.182,3.927S76.697,56.723,77,58
	c0.21,0.888,0.495,1.755,0.851,2.591c0.356,0.836,0.784,1.642,1.279,2.409c0.351,0.541,0.765,1.035,1.232,1.473
	c0.467,0.438,0.986,0.82,1.548,1.137c0.932,0.52,1.966,0.78,3,0.78s2.068-0.26,3-0.78c0.448-0.24,0.879-0.51,1.29-0.808
	c0.411-0.297,0.802-0.622,1.17-0.972c0.36-0.324,0.707-0.662,1.04-1.012c0.334-0.35,0.654-0.713,0.96-1.088
	c0.29-0.36,0.558-0.7,0.806-1.021c0.249-0.321,0.479-0.624,0.694-0.909l0.07-0.095l0.07-0.095h0.755h0.755v6.365v6.365l-0.105,0.075
	L95.31,72.49c-0.31,0.215-0.645,0.448-1.005,0.695c-0.36,0.247-0.745,0.51-1.155,0.785c-0.413,0.281-0.838,0.543-1.273,0.787
	s-0.881,0.468-1.337,0.673c-0.484,0.225-0.977,0.43-1.478,0.615c-0.5,0.185-1.008,0.35-1.522,0.495
	c-0.672,0.155-1.352,0.267-2.037,0.334C84.818,76.94,84.129,76.963,83.44,76.94z M83.44,24.27c-2.44,0-4.645,0.583-6.601,1.741
	c-1.956,1.159-3.664,2.894-5.109,5.199s-2.55,5.055-3.294,8.229c-0.744,3.174-1.126,6.771-1.126,10.771
	c0,4.095,0.372,7.75,1.11,10.944c0.737,3.194,1.84,5.926,3.3,8.176s3.17,3.917,5.125,5.022C78.8,75.458,81,76,83.44,76
	c0.622,0.017,1.243-0.004,1.861-0.064c0.618-0.06,1.232-0.159,1.839-0.296c0.49-0.146,0.974-0.312,1.451-0.495
	c0.477-0.183,0.947-0.385,1.409-0.605c0.428-0.194,0.848-0.405,1.258-0.634s0.811-0.474,1.202-0.736l1-0.67l1-0.67v-5.585V60.66
	c-0.195,0.26-0.408,0.537-0.635,0.831c-0.227,0.294-0.47,0.604-0.725,0.929c-0.32,0.394-0.656,0.775-1.006,1.142
	S91.379,64.282,91,64.62c-0.399,0.379-0.824,0.73-1.27,1.051c-0.446,0.321-0.914,0.611-1.4,0.869
	c-1.076,0.598-2.268,0.897-3.46,0.897s-2.384-0.299-3.46-0.897c-0.63-0.351-1.213-0.776-1.737-1.265s-0.989-1.041-1.383-1.645
	c-0.533-0.821-0.993-1.684-1.376-2.581C76.53,60.152,76.225,59.223,76,58.27c-0.312-1.322-0.54-2.66-0.683-4.008
	s-0.203-2.704-0.177-4.062c-0.015-1.331,0.05-2.66,0.193-3.981c0.144-1.321,0.366-2.633,0.667-3.929
	c0.204-0.953,0.486-1.886,0.844-2.789c0.358-0.903,0.791-1.776,1.296-2.611c0.384-0.643,0.842-1.236,1.362-1.768
	c0.52-0.532,1.103-1.003,1.738-1.402c1.045-0.59,2.203-0.895,3.366-0.914S86.937,33.054,88,33.61c0.489,0.264,0.96,0.558,1.411,0.88
	c0.451,0.322,0.882,0.673,1.289,1.05c0.387,0.355,0.762,0.723,1.124,1.103c0.362,0.38,0.711,0.773,1.046,1.177
	c0.275,0.34,0.525,0.658,0.757,0.954c0.233,0.296,0.448,0.571,0.653,0.826h0.07h0.07v-5.675V28.25c-0.27-0.2-0.57-0.415-0.902-0.644
	c-0.333-0.229-0.698-0.471-1.098-0.726c-0.386-0.257-0.781-0.499-1.184-0.726C90.832,25.928,90.42,25.716,90,25.52
	c-1.036-0.43-2.11-0.751-3.206-0.961s-2.213-0.307-3.334-0.289l-0.01,0L83.44,24.27z"/>
</svg>
