<svg xmlns="http://www.w3.org/2000/svg" viewBox="0 0 100 100"><path d="M69.09,63.84c0-4.37,2.86-8.79,2.86-8.79l-7.11-6.27s-4,2.73-7.37,2.73A28,28,0,0,1,50,50.12a28,28,0,0,1-7.47,1.39c-3.37,0-7.37-2.73-7.37-2.73l-7.11,6.27s2.86,4.42,2.86,8.79-3.12,7.76-3.12,13S35.52,88.09,42.11,90.1,50,94.21,50,94.21s1.3-2.11,7.89-4.11,14.32-8,14.32-13.26S69.09,68.21,69.09,63.84Z"/><path d="M48.63,78.13c0,.74.46,1,1.19,1h2.43v2.5H40.08v-2.5h2.6c1,0,1.07-1,1.07-1.84V64.64a1,1,0,0,0-1.07-1h-2.6V61.11H54.34c4.26,0,7.88,1.84,7.88,5.91,0,3.3-2.63,5.85-6.44,5.85H48.63Zm0-7.72h4.75c2.37,0,3.84-1.52,3.84-3.45,0-2.23-1.75-3.32-4.44-3.32H48.63Z" fill="#fff"/><path d="M32.35,32.49l7.75-.71a8.76,8.76,0,0,0,2.83,5.43A8.88,8.88,0,0,0,48.7,39q3.86,0,5.8-1.54a4.53,4.53,0,0,0,2-3.61,3.28,3.28,0,0,0-.82-2.26,6.66,6.66,0,0,0-2.86-1.62c-.94-.31-3.06-.85-6.38-1.64q-6.41-1.5-9-3.7a9.51,9.51,0,0,1-3.63-7.52,9.25,9.25,0,0,1,1.7-5.35,10.6,10.6,0,0,1,4.93-3.79,20.62,20.62,0,0,1,7.76-1.3q7.42,0,11.17,3.09A10.65,10.65,0,0,1,63.28,18l-8,.33a6.29,6.29,0,0,0-2.19-4.14,8.28,8.28,0,0,0-5-1.27,9.49,9.49,0,0,0-5.44,1.35,2.7,2.7,0,0,0-1.26,2.33,2.82,2.82,0,0,0,1.18,2.27c1,.8,3.44,1.63,7.32,2.5A40,40,0,0,1,58.48,24a10.86,10.86,0,0,1,4.36,3.8,10.69,10.69,0,0,1,1.57,6,10.57,10.57,0,0,1-1.88,6A11.14,11.14,0,0,1,57.2,44a23.37,23.37,0,0,1-8.58,1.37q-7.47,0-11.48-3.28T32.35,32.49Z"/></svg>