<svg xmlns="http://www.w3.org/2000/svg" viewBox="0 0 100 100"><path d="M13.88,57.6l3.68-.83a18.06,18.06,0,0,0,1.35,6.33,3.09,3.09,0,0,0,2.75,2,3,3,0,0,0,2.75-1.8,9.07,9.07,0,0,0,.93-4.21A7.8,7.8,0,0,0,25,56.49a4.25,4.25,0,0,0-1.36-1.89,30.24,30.24,0,0,0-3-1.91,10.18,10.18,0,0,1-4.28-4.31,20.22,20.22,0,0,1-1.72-8.78,23.06,23.06,0,0,1,.81-6.23A9.84,9.84,0,0,1,17.71,29a5,5,0,0,1,3.69-1.51A5.68,5.68,0,0,1,26.71,31a22.6,22.6,0,0,1,1.88,9.61L24.8,41a12.71,12.71,0,0,0-1-4.83,2.56,2.56,0,0,0-2.4-1.48,2.87,2.87,0,0,0-2.58,1.58,5.28,5.28,0,0,0-.6,2.71,5.73,5.73,0,0,0,.56,2.65,8.34,8.34,0,0,0,3.48,2.91,14,14,0,0,1,4.09,3.14,11.79,11.79,0,0,1,2.07,4.43,27.43,27.43,0,0,1,.75,7,26.36,26.36,0,0,1-.9,7A10.58,10.58,0,0,1,25.7,71a5.62,5.62,0,0,1-4.08,1.59q-3.56,0-5.46-3.82T13.88,57.6Z"/><path d="M35,71.79,30.49,28.18h3.88l2.83,30,3.42-30h4.51l3.28,30.46,2.88-30.46H55.1L50.55,71.79h-4L42.8,39.19l-3.72,32.6Z"/><path d="M72.5,71.79H68.38l-1.64-9.91H59.25L57.7,71.79h-4L61,28.18h4Zm-7-17.25L62.94,38.35,60.41,54.54Z"/><path d="M76.78,71.79V35.56H71.22V28.18h14.9v7.38H80.57V71.79Z"/></svg>