<svg xmlns="http://www.w3.org/2000/svg" viewBox="0 0 100 100"><path d="M63.46,51.29c-1.55-.56-7.94-5.11-13.34-5.11s-11.8,4.55-13.35,5.11-5.05.16-5.05.16l5.88,5.74a19.86,19.86,0,0,1,12.52-3.9,19.86,19.86,0,0,1,12.52,3.9l5.88-5.74S65,51.85,63.46,51.29Z"/><path d="M63.46,89.63c-1.55.56-7.94,5.11-13.34,5.11s-11.8-4.55-13.35-5.11-5.05-.16-5.05-.16l5.88-5.74a19.8,19.8,0,0,0,12.52,3.9,19.8,19.8,0,0,0,12.52-3.9l5.88,5.74S65,89.07,63.46,89.63Z"/><path d="M28.16,58.88c-.61,1.36-5.5,7-5.5,11.78s4.89,10.42,5.5,11.79.17,4.46.17,4.46l6.19-5.19a15.28,15.28,0,0,1-4.21-11.06,15.27,15.27,0,0,1,4.21-11l-6.19-5.2S28.77,57.51,28.16,58.88Z"/><path d="M71.84,58.88c.61,1.36,5.5,7,5.5,11.78s-4.89,10.42-5.5,11.79-.17,4.46-.17,4.46l-6.19-5.19a15.28,15.28,0,0,0,4.21-11.06,15.27,15.27,0,0,0-4.21-11l6.19-5.2S71.23,57.51,71.84,58.88Z"/><ellipse cx="50.12" cy="70.29" rx="16.59" ry="15"/><path d="M42.58,80.58V60.07H58.35v2.42H45.67v6.35h11v2.42h-11v9.32Z" fill="#fff"/><path d="M33.14,30.4l7.16-.65a7.91,7.91,0,0,0,2.63,4.92,8.29,8.29,0,0,0,5.33,1.57,8.6,8.6,0,0,0,5.36-1.4,4.07,4.07,0,0,0,1.81-3.26,3,3,0,0,0-.76-2A6.15,6.15,0,0,0,52,28.07q-1.29-.42-5.9-1.48c-3.94-.91-6.71-2-8.31-3.35a8.56,8.56,0,0,1-3.35-6.8A8.21,8.21,0,0,1,36,11.6a9.8,9.8,0,0,1,4.55-3.43A19.57,19.57,0,0,1,47.76,7q6.87,0,10.34,2.8a9.55,9.55,0,0,1,3.64,7.45l-7.36.3a5.63,5.63,0,0,0-2-3.75,7.85,7.85,0,0,0-4.66-1.14,9,9,0,0,0-5,1.22A2.44,2.44,0,0,0,41.5,16,2.54,2.54,0,0,0,42.59,18c.93.72,3.18,1.48,6.77,2.26a37.06,37.06,0,0,1,7.94,2.44,9.92,9.92,0,0,1,4,3.43A10,10,0,0,1,61.05,37a10.32,10.32,0,0,1-4.93,3.78A22.16,22.16,0,0,1,48.19,42q-6.91,0-10.62-3A12.54,12.54,0,0,1,33.14,30.4Z"/></svg>