<?xml version="1.0" encoding="iso-8859-1"?>
<!-- Generator: Adobe Illustrator 25.4.1, SVG Export Plug-In . SVG Version: 6.00 Build 0)  -->
<svg version="1.1" id="Layer_1" xmlns="http://www.w3.org/2000/svg" xmlns:xlink="http://www.w3.org/1999/xlink" x="0px" y="0px"
	 viewBox="0 0 100 100" style="enable-background:new 0 0 100 100;" xml:space="preserve">
<path style="fill:#FFFFFF;" d="M50,1.48c13.398,0,25.528,5.431,34.309,14.211S98.52,36.602,98.52,50s-5.431,25.528-14.211,34.309
	S63.398,98.52,50,98.52s-25.528-5.431-34.309-14.211S1.48,63.398,1.48,50s5.431-25.528,14.211-34.309S36.602,1.48,50,1.48z"/>
<polygon style="opacity:0.5;fill:#FF0000;" points="30.2,28.39 40.39,18.81 50.58,9.23 61.055,19.07 71.53,28.91 61.33,38.925 
	51.13,48.94 40.665,38.665 "/>
<path style="fill:#FFFFFF;" d="M50.58,10.49l9.81,9.215l9.81,9.215l-9.535,9.365L51.13,47.65l-9.805-9.625L31.52,28.4l9.53-8.955
	L50.58,10.49 M50.58,7.97l-10.855,10.2L28.87,28.37L40,39.295L51.13,50.22l10.86-10.665L72.85,28.89L61.715,18.445L50.58,8V7.985
	V7.97z"/>
<polygon style="opacity:0.5;fill:#FEFF00;" points="52.44,50.22 62.655,40.19 72.87,30.16 83.495,40.14 94.12,50.12 83.75,60.45 
	73.38,70.78 62.91,60.5 "/>
<path style="fill:#FFFFFF;" d="M72.88,31.44l9.96,9.35l9.96,9.35l-9.715,9.675L73.37,69.49l-9.81-9.635l-9.81-9.635l9.565-9.39
	L72.88,31.44 M72.88,28.89L62.005,39.555L51.13,50.22l11.125,10.925L73.38,72.07l11.03-11l11.03-11L84.145,39.48L72.85,28.89h0.015
	H72.88z"/>
<polygon style="opacity:0.5;fill:#1700FF;" points="7.58,49.65 18.22,39.65 28.86,29.65 39.34,39.935 49.82,50.22 39.345,60.505 
	28.87,70.79 18.225,60.22 "/>
<path style="fill:#FFFFFF;" d="M28.84,30.92l9.835,9.65l9.835,9.65l-9.815,9.64L28.88,69.5l-9.99-9.92L8.9,49.66l9.97-9.37
	L28.84,30.92 M28.84,28.37L17.55,39L6.26,49.63l11.305,11.22L28.87,72.07L40,61.145L51.13,50.22L40,39.295L28.87,28.37h-0.015H28.84
	z"/>
<polygon style="opacity:0.5;fill:#FFFFFF;" points="51.13,50.22 62.255,61.145 73.38,72.07 62.255,83.155 51.13,94.24 40,83.155 
	28.87,72.07 40,61.145 "/>
<path style="opacity:0.5;" d="M51.13,96L27.815,72.8L4.5,49.6l23.035-21.655L50.57,6.29l23.315,21.895L97.2,50.08L74.165,73.04
	L51.13,96z M8,49.65l21.565,21.435L51.13,92.52l21.275-21.195L93.68,50.13L72.13,29.89L50.58,9.65l-21.29,20L8,49.65z"/>
<polygon style="opacity:0.5;" points="28.007,29.242 28.865,28.368 29.723,27.493 51.981,49.343 74.239,71.193 73.38,72.067 
	72.522,72.941 50.265,51.091 "/>
<polygon style="opacity:0.5;" points="28.009,71.194 50.003,49.604 71.997,28.013 72.855,28.887 73.713,29.761 51.719,51.352 
	29.726,72.942 28.867,72.068 "/>
<path d="M35.83,16.17h13.69h13.69c2.458,0,4.683,0.996,6.293,2.607c1.611,1.611,2.607,3.836,2.607,6.293l0,0l0,0l0,0l0,0l0,0l0,0
	H49.52H26.93l0,0l0,0l0,0l0,0c0-2.458,0.996-4.683,2.607-6.293C31.147,17.166,33.372,16.17,35.83,16.17L35.83,16.17L35.83,16.17z"/>
<polygon points="44.52,5.44 49.425,5.44 54.33,5.44 54.33,11.765 54.33,18.09 49.425,18.09 44.52,18.09 44.52,11.765 "/>
<path d="M49.43,27.16c0.627,0,1.194,0.167,1.605,0.436S51.7,28.239,51.7,28.65s-0.254,0.784-0.665,1.054s-0.978,0.436-1.605,0.436
	s-1.194-0.167-1.605-0.436s-0.665-0.642-0.665-1.054s0.254-0.784,0.665-1.054S48.803,27.16,49.43,27.16z"/>
<path d="M49.43,33.2c0.627,0,1.194,0.167,1.605,0.436S51.7,34.279,51.7,34.69s-0.254,0.784-0.665,1.054s-0.978,0.436-1.605,0.436
	s-1.194-0.167-1.605-0.436s-0.665-0.642-0.665-1.054s0.254-0.784,0.665-1.054S48.803,33.2,49.43,33.2z"/>
<path d="M49.43,39.45c0.627,0,1.194,0.167,1.605,0.436S51.7,40.529,51.7,40.94s-0.254,0.784-0.665,1.054s-0.978,0.436-1.605,0.436
	s-1.194-0.167-1.605-0.436s-0.665-0.642-0.665-1.054s0.254-0.784,0.665-1.054S48.803,39.45,49.43,39.45z"/>
<path d="M49.43,45.59c0.627,0,1.194,0.167,1.605,0.436S51.7,46.669,51.7,47.08s-0.254,0.784-0.665,1.054s-0.978,0.436-1.605,0.436
	s-1.194-0.167-1.605-0.436s-0.665-0.642-0.665-1.054s0.254-0.784,0.665-1.054S48.803,45.59,49.43,45.59z"/>
<path d="M41.13,26.76c0.627,0,1.194,0.167,1.605,0.436c0.411,0.27,0.665,0.642,0.665,1.054s-0.254,0.784-0.665,1.054
	s-0.978,0.436-1.605,0.436s-1.194-0.167-1.605-0.436c-0.411-0.27-0.665-0.642-0.665-1.054s0.254-0.784,0.665-1.054
	C39.936,26.927,40.503,26.76,41.13,26.76z"/>
<path d="M39.6,32.68c0.627,0,1.194,0.167,1.605,0.436s0.665,0.642,0.665,1.054s-0.254,0.784-0.665,1.054S40.227,35.66,39.6,35.66
	s-1.194-0.167-1.605-0.436s-0.665-0.642-0.665-1.054s0.254-0.784,0.665-1.054S38.973,32.68,39.6,32.68z"/>
<path d="M38.37,38.6c0.627,0,1.194,0.167,1.605,0.436s0.665,0.642,0.665,1.054s-0.254,0.784-0.665,1.054s-0.978,0.436-1.605,0.436
	s-1.194-0.167-1.605-0.436S36.1,40.501,36.1,40.09s0.254-0.784,0.665-1.054S37.743,38.6,38.37,38.6z"/>
<path d="M36.67,44.52c0.627,0,1.194,0.167,1.605,0.436s0.665,0.642,0.665,1.054s-0.254,0.784-0.665,1.054S37.297,47.5,36.67,47.5
	s-1.194-0.167-1.605-0.436S34.4,46.421,34.4,46.01s0.254-0.784,0.665-1.054S36.043,44.52,36.67,44.52z"/>
<path d="M24.01,43.67c0.627,0,1.194,0.167,1.605,0.436s0.665,0.642,0.665,1.054s-0.254,0.784-0.665,1.054s-0.978,0.436-1.605,0.436
	s-1.194-0.167-1.605-0.436s-0.665-0.642-0.665-1.054s0.254-0.784,0.665-1.054S23.383,43.67,24.01,43.67z"/>
<path d="M27.15,38.16c0.627,0,1.194,0.167,1.605,0.436s0.665,0.642,0.665,1.054s-0.254,0.784-0.665,1.054s-0.978,0.436-1.605,0.436
	s-1.194-0.167-1.605-0.436s-0.665-0.642-0.665-1.054s0.254-0.784,0.665-1.054S26.523,38.16,27.15,38.16z"/>
<path d="M30.02,32.48c0.627,0,1.194,0.167,1.605,0.436s0.665,0.642,0.665,1.054s-0.254,0.784-0.665,1.054s-0.978,0.436-1.605,0.436
	s-1.194-0.167-1.605-0.436s-0.665-0.642-0.665-1.054s0.254-0.784,0.665-1.054S29.393,32.48,30.02,32.48z"/>
<path d="M33.2,26.93c0.627,0,1.194,0.167,1.605,0.436s0.665,0.642,0.665,1.054s-0.254,0.784-0.665,1.054S33.827,29.91,33.2,29.91
	s-1.194-0.167-1.605-0.436s-0.665-0.642-0.665-1.054s0.254-0.784,0.665-1.054C32.006,27.096,32.573,26.93,33.2,26.93z"/>
<path d="M58.17,26.76c0.627,0,1.194,0.167,1.605,0.436c0.411,0.27,0.665,0.642,0.665,1.054s-0.254,0.784-0.665,1.054
	s-0.978,0.436-1.605,0.436s-1.194-0.167-1.605-0.436c-0.411-0.27-0.665-0.642-0.665-1.054s0.254-0.784,0.665-1.054
	C56.976,26.927,57.543,26.76,58.17,26.76z"/>
<path d="M59.7,32.68c0.627,0,1.194,0.167,1.605,0.436s0.665,0.642,0.665,1.054s-0.254,0.784-0.665,1.054S60.327,35.66,59.7,35.66
	s-1.194-0.167-1.605-0.436s-0.665-0.642-0.665-1.054s0.254-0.784,0.665-1.054S59.073,32.68,59.7,32.68z"/>
<path d="M60.93,38.6c0.627,0,1.194,0.167,1.605,0.436S63.2,39.679,63.2,40.09s-0.254,0.784-0.665,1.054s-0.978,0.436-1.605,0.436
	s-1.194-0.167-1.605-0.436s-0.665-0.642-0.665-1.054s0.254-0.784,0.665-1.054S60.303,38.6,60.93,38.6z"/>
<path d="M62.63,44.52c0.627,0,1.194,0.167,1.605,0.436c0.411,0.27,0.665,0.642,0.665,1.054s-0.254,0.784-0.665,1.054
	c-0.411,0.27-0.978,0.436-1.605,0.436s-1.194-0.167-1.605-0.436s-0.665-0.642-0.665-1.054s0.254-0.784,0.665-1.054
	S62.003,44.52,62.63,44.52z"/>
<path d="M75.29,43.67c0.627,0,1.194,0.167,1.605,0.436s0.665,0.642,0.665,1.054s-0.254,0.784-0.665,1.054s-0.978,0.436-1.605,0.436
	s-1.194-0.167-1.605-0.436s-0.665-0.642-0.665-1.054s0.254-0.784,0.665-1.054S74.663,43.67,75.29,43.67z"/>
<path d="M72.15,38.16c0.627,0,1.194,0.167,1.605,0.436s0.665,0.642,0.665,1.054s-0.254,0.784-0.665,1.054s-0.978,0.436-1.605,0.436
	s-1.194-0.167-1.605-0.436s-0.665-0.642-0.665-1.054s0.254-0.784,0.665-1.054S71.523,38.16,72.15,38.16z"/>
<path d="M69.27,32.48c0.627,0,1.194,0.167,1.605,0.436s0.665,0.642,0.665,1.054s-0.254,0.784-0.665,1.054s-0.978,0.436-1.605,0.436
	s-1.194-0.167-1.605-0.436S67,34.381,67,33.97s0.254-0.784,0.665-1.054S68.643,32.48,69.27,32.48z"/>
<path d="M66.09,26.93c0.627,0,1.194,0.167,1.605,0.436c0.411,0.27,0.665,0.642,0.665,1.054s-0.254,0.784-0.665,1.054
	s-0.978,0.436-1.605,0.436s-1.194-0.167-1.605-0.436s-0.665-0.642-0.665-1.054s0.254-0.784,0.665-1.054S65.463,26.93,66.09,26.93z"
	/>
<path d="M25.65,63.05c0.013,0.828-0.059,1.654-0.215,2.463s-0.395,1.603-0.715,2.367c-0.251,0.632-0.577,1.229-0.97,1.778
	s-0.852,1.05-1.37,1.492c-0.368,0.313-0.771,0.578-1.201,0.79s-0.886,0.37-1.359,0.47c-0.494,0.095-0.993,0.166-1.493,0.213
	c-0.501,0.047-1.003,0.069-1.507,0.067h-2.35h-2.35v-9.66v-9.66h2.35h2.35c0.503-0.005,1.006,0.015,1.506,0.058
	c0.501,0.043,0.999,0.111,1.494,0.202c0.482,0.093,0.948,0.248,1.387,0.46c0.439,0.212,0.85,0.48,1.223,0.8
	c0.524,0.439,0.99,0.941,1.386,1.492s0.724,1.151,0.974,1.788c0.304,0.777,0.529,1.58,0.673,2.397
	C25.607,61.385,25.67,62.216,25.65,63.05z M21.74,63.05c0.013-0.556-0.024-1.111-0.109-1.658s-0.219-1.087-0.401-1.612
	c-0.151-0.424-0.364-0.821-0.631-1.179s-0.586-0.675-0.949-0.941c-0.237-0.188-0.499-0.339-0.777-0.45
	C18.595,57.099,18.301,57.028,18,57c-0.285,0-0.597-0.015-0.932-0.03S16.375,56.94,16,56.94h-0.035H15.93v6.05v6.05h0.035H16
	c0.427,0,0.82-0.005,1.18-0.015S17.867,69,18.16,68.98c0.308-0.028,0.607-0.103,0.889-0.221c0.282-0.118,0.545-0.279,0.781-0.479
	c0.328-0.273,0.614-0.588,0.853-0.937c0.239-0.348,0.43-0.729,0.567-1.133c0.176-0.516,0.305-1.046,0.387-1.583
	c0.082-0.537,0.117-1.081,0.103-1.627v0.025V63.05z"/>
<path d="M28.41,72.69v-9.66v-9.66h5.12h5.12v1.84v1.84h-3.23h-3.23v1.695v1.695h3h3v1.84v1.84h-3h-3v2.44V69h3.23h3.23v1.845v1.845
	h-5.12H28.41z"/>
<path d="M48.06,73.06c-1.064,0.036-2.102-0.193-3.031-0.645c-0.929-0.452-1.75-1.127-2.379-1.985
	c-0.667-0.873-1.167-1.925-1.5-3.155c-0.333-1.23-0.5-2.638-0.5-4.225c-0.069-1.297,0.072-2.589,0.409-3.826
	s0.872-2.421,1.591-3.504c0.615-0.883,1.433-1.58,2.365-2.048c0.932-0.468,1.98-0.707,3.055-0.672
	c0.51-0.007,1.02,0.031,1.521,0.113s0.997,0.208,1.479,0.377c0.195,0.075,0.387,0.158,0.575,0.248s0.373,0.187,0.555,0.292
	c0.2,0.11,0.382,0.215,0.549,0.312c0.166,0.097,0.316,0.188,0.451,0.268v2.305v2.305h-0.19h-0.19
	c-0.09-0.105-0.195-0.22-0.311-0.345s-0.244-0.26-0.379-0.405c-0.149-0.152-0.303-0.298-0.461-0.44s-0.321-0.278-0.489-0.41
	c-0.182-0.143-0.372-0.274-0.569-0.395S50.21,56.996,50,56.9c-0.209-0.095-0.427-0.167-0.65-0.215
	c-0.223-0.049-0.451-0.074-0.68-0.075c-0.261-0.003-0.52,0.024-0.774,0.079c-0.253,0.055-0.5,0.139-0.736,0.251
	c-0.26,0.139-0.502,0.306-0.721,0.499s-0.417,0.411-0.589,0.651c-0.216,0.301-0.403,0.621-0.559,0.956
	c-0.156,0.335-0.28,0.684-0.371,1.044c-0.129,0.489-0.225,0.986-0.285,1.487s-0.085,1.007-0.075,1.513
	c-0.009,0.507,0.018,1.012,0.082,1.514c0.063,0.501,0.163,0.998,0.298,1.486c0.102,0.362,0.237,0.713,0.405,1.048
	c0.167,0.335,0.367,0.654,0.595,0.952c0.178,0.222,0.379,0.423,0.601,0.6c0.221,0.176,0.463,0.327,0.719,0.45
	c0.228,0.102,0.466,0.181,0.709,0.234c0.243,0.054,0.491,0.082,0.741,0.086c0.247,0.003,0.494-0.024,0.734-0.077
	s0.474-0.135,0.696-0.243c0.207-0.09,0.407-0.194,0.599-0.311c0.192-0.117,0.376-0.247,0.551-0.389
	c0.16-0.125,0.315-0.256,0.465-0.393s0.295-0.279,0.435-0.427c0.13-0.14,0.25-0.27,0.361-0.393c0.111-0.122,0.214-0.237,0.309-0.347
	h0.17h0.17v2.26v2.26l-0.5,0.285l-0.5,0.285c-0.18,0.104-0.365,0.201-0.554,0.289c-0.189,0.088-0.381,0.169-0.576,0.241
	c-0.216,0.086-0.436,0.164-0.657,0.234c-0.222,0.07-0.446,0.132-0.673,0.186c-0.277,0.051-0.556,0.089-0.836,0.112
	S48.342,73.065,48.06,73.06z"/>
<path d="M70,63c0.068,1.304-0.073,2.601-0.411,3.845S68.718,69.28,68,70.37c-1.1,1.484-2.697,2.382-4.391,2.634
	c-1.693,0.252-3.483-0.142-4.967-1.242c-0.265-0.196-0.515-0.412-0.747-0.644c-0.233-0.233-0.448-0.482-0.644-0.747
	c-0.711-1.088-1.241-2.274-1.579-3.512c-0.337-1.239-0.482-2.53-0.421-3.828c-0.063-1.301,0.081-2.596,0.418-3.838
	c0.338-1.242,0.869-2.431,1.582-3.522c1.109-1.484,2.715-2.378,4.415-2.624s3.493,0.157,4.977,1.266
	c0.258,0.193,0.501,0.403,0.728,0.63s0.438,0.47,0.63,0.728c0.713,1.085,1.245,2.269,1.582,3.506C69.92,60.413,70.063,61.703,70,63z
	 M66,63c0.009-0.494-0.01-0.987-0.057-1.478s-0.121-0.979-0.223-1.462c-0.069-0.352-0.166-0.697-0.292-1.031
	c-0.125-0.334-0.279-0.659-0.458-0.969c-0.129-0.219-0.285-0.419-0.463-0.597c-0.178-0.178-0.379-0.334-0.597-0.463
	c-0.193-0.113-0.399-0.199-0.612-0.258s-0.435-0.09-0.658-0.092c-0.224-0.002-0.445,0.024-0.661,0.078
	c-0.215,0.054-0.423,0.135-0.619,0.242c-0.223,0.143-0.429,0.311-0.612,0.501s-0.344,0.401-0.478,0.629
	c-0.181,0.31-0.336,0.634-0.463,0.968c-0.127,0.334-0.227,0.68-0.297,1.032c-0.187,0.978-0.28,1.969-0.28,2.96
	s0.093,1.982,0.28,2.96c0.074,0.351,0.175,0.695,0.302,1.03c0.127,0.334,0.28,0.659,0.458,0.97c0.129,0.237,0.289,0.454,0.474,0.648
	c0.185,0.193,0.395,0.362,0.626,0.502c0.197,0.111,0.406,0.195,0.623,0.253s0.441,0.087,0.667,0.087
	c0.229-0.001,0.457-0.034,0.675-0.096c0.219-0.062,0.429-0.154,0.625-0.274c0.224-0.154,0.425-0.337,0.6-0.542
	c0.175-0.205,0.323-0.433,0.44-0.678c0.173-0.313,0.322-0.639,0.447-0.973s0.227-0.677,0.303-1.027
	c0.094-0.481,0.162-0.966,0.203-1.453C65.995,63.979,66.011,63.49,66,63z"/>
<path d="M86,72.69h-1.835H82.33l-2.92-6.735l-2.92-6.735v6.735v6.735h-1.745H73v-9.66v-9.66h2.33h2.33l2.415,5.53l2.415,5.53V58.9
	v-5.53h1.755H86v9.66V72.69z"/>
</svg>
