<?xml version="1.0" encoding="iso-8859-1"?>
<!-- Generator: Adobe Illustrator 25.2.3, SVG Export Plug-In . SVG Version: 6.00 Build 0)  -->
<svg version="1.1" id="Layer_1" xmlns="http://www.w3.org/2000/svg" xmlns:xlink="http://www.w3.org/1999/xlink" x="0px" y="0px"
	 viewBox="0 0 100 100" style="enable-background:new 0 0 100 100;" xml:space="preserve">
<g id="Layer_2_1_">
	<g id="Layer_2-2">
		<path d="M89.895,55.805l-6.32,3.185l-6.32,3.185l3.115-7.185l3.115-7.185L69.25,47.98l-14.235,0.175l-3.085-6.83l-3.085-6.83
			l1.97,0.04l1.97,0.04l3.07,6.615l3.07,6.615h2.795h2.795l-3.815-9.5l-3.815-9.5h-11h-11v2.7v2.7L39.59,34.3l4.705,0.095l3.12,6.9
			l3.12,6.9l-20.64,0.26l-20.64,0.26l2.075,8.79l2.075,8.79c-0.013,0.095-0.024,0.189-0.032,0.284s-0.014,0.19-0.018,0.286
			c-0.003,0.44,0.063,0.875,0.193,1.29c0.13,0.415,0.324,0.81,0.577,1.17c0.676,0.983,1.686,1.599,2.773,1.801
			s2.251-0.012,3.234-0.688c0.588-0.404,1.057-0.941,1.379-1.554c0.322-0.614,0.496-1.305,0.494-2.018
			c-0.035,1.19,0.417,2.282,1.174,3.084c0.757,0.803,1.821,1.316,3.011,1.351c1.19,0.035,2.282-0.417,3.084-1.174
			c0.803-0.757,1.316-1.821,1.351-3.011l0,0l0,0c0.057,1.189,0.591,2.242,1.408,2.983c0.817,0.741,1.916,1.171,3.105,1.114
			c1.109-0.053,2.106-0.524,2.84-1.257c0.734-0.734,1.204-1.731,1.257-2.84c0.081,1.187,0.636,2.23,1.467,2.955
			c0.831,0.725,1.939,1.133,3.126,1.052c1.075-0.073,2.04-0.538,2.754-1.252c0.715-0.715,1.179-1.68,1.252-2.754
			c0.081,1.187,0.636,2.23,1.467,2.955s1.939,1.133,3.127,1.052c1.075-0.073,2.04-0.538,2.754-1.252s1.179-1.68,1.252-2.754
			c0.081,1.187,0.636,2.23,1.467,2.955s1.939,1.133,3.127,1.052c1.075-0.073,2.04-0.538,2.754-1.252
			c0.714-0.714,1.179-1.68,1.252-2.754c0.081,1.187,0.636,2.23,1.467,2.955c0.831,0.725,1.939,1.133,3.127,1.052
			c1.075-0.073,2.04-0.538,2.754-1.252c0.715-0.715,1.179-1.68,1.252-2.754c0.022,0.355,0.088,0.704,0.196,1.04
			c0.108,0.336,0.256,0.659,0.444,0.96l0.75-1.735l0.75-1.735c0.07,0.032,0.145,0.048,0.22,0.048c0.075,0,0.15-0.016,0.22-0.048
			l7.105-3.62l7.105-3.62c0.097-0.051,0.176-0.126,0.231-0.216c0.055-0.09,0.087-0.194,0.089-0.304v-0.805v-0.81
			c-0.012-0.16-0.087-0.3-0.199-0.397s-0.262-0.151-0.421-0.139c-0.04,0.003-0.08,0.01-0.118,0.021
			C89.968,55.771,89.93,55.786,89.895,55.805z"/>
	</g>
</g>
</svg>
