<?xml version="1.0" encoding="iso-8859-1"?>
<!-- Generator: Adobe Illustrator 25.4.1, SVG Export Plug-In . SVG Version: 6.00 Build 0)  -->
<svg version="1.1" id="Layer_1" xmlns="http://www.w3.org/2000/svg" xmlns:xlink="http://www.w3.org/1999/xlink" x="0px" y="0px"
	 viewBox="0 0 100 100" style="enable-background:new 0 0 100 100;" xml:space="preserve">
<path style="fill:#3F81F7;" d="M30.73,62.925c0.012,0.9,0.083,1.794,0.211,2.679c0.128,0.884,0.313,1.759,0.553,2.617
	c0.241,0.859,0.537,1.702,0.886,2.525c0.35,0.822,0.754,1.624,1.21,2.399c0.793,1.214,1.74,2.275,2.839,3.186
	c1.099,0.91,2.351,1.669,3.756,2.277c1.405,0.607,2.963,1.063,4.674,1.368c1.711,0.305,3.575,0.458,5.591,0.459
	c0.842,0.011,1.683-0.014,2.521-0.076c0.838-0.062,1.672-0.161,2.5-0.295c0.828-0.134,1.65-0.305,2.464-0.512
	c0.814-0.207,1.62-0.449,2.415-0.727c1.435-0.519,2.69-1.139,3.766-1.863c1.076-0.723,1.972-1.549,2.689-2.478
	s1.254-1.959,1.611-3.092c0.357-1.133,0.535-2.369,0.534-3.708c0-1-0.076-1.929-0.227-2.786c-0.152-0.858-0.379-1.644-0.683-2.359
	s-0.683-1.359-1.138-1.931c-0.455-0.572-0.986-1.074-1.592-1.504s-1.303-0.843-2.09-1.24s-1.664-0.777-2.632-1.14
	s-2.025-0.71-3.173-1.04c-1.148-0.33-2.386-0.643-3.715-0.94l-2.417-0.565l-2.417-0.565l-2.417-0.565l-2.417-0.565
	c-1.58-0.368-3.045-0.746-4.393-1.133c-1.349-0.387-2.582-0.783-3.699-1.189s-2.119-0.821-3.005-1.245
	c-0.887-0.425-1.658-0.859-2.313-1.303c-1.135-0.766-2.128-1.629-2.979-2.587s-1.561-2.012-2.129-3.161
	c-0.567-1.149-0.993-2.394-1.276-3.734c-0.284-1.34-0.426-2.776-0.426-4.308c-0.05-1.535,0.065-3.058,0.334-4.544
	c0.27-1.486,0.695-2.936,1.265-4.327s1.286-2.721,2.138-3.969s1.839-2.412,2.953-3.47c1.115-1.062,2.346-1.99,3.692-2.787
	s2.809-1.46,4.388-1.991s3.273-0.929,5.083-1.194c1.81-0.265,3.736-0.398,5.777-0.398c1.88,0,3.689,0.116,5.428,0.349
	c1.739,0.233,3.407,0.583,5.004,1.049s3.125,1.048,4.581,1.747c1.456,0.699,2.842,1.514,4.157,2.445s2.465,2.003,3.451,3.214
	c0.986,1.211,1.807,2.562,2.464,4.053c0.657,1.491,1.148,3.122,1.476,4.892s0.491,3.68,0.489,5.73h-2.345H71.8h-2.345H67.11
	c-0.126-0.986-0.286-1.916-0.478-2.787s-0.416-1.686-0.673-2.443s-0.546-1.456-0.868-2.097s-0.676-1.226-1.062-1.753
	c-0.73-0.962-1.587-1.803-2.571-2.524s-2.095-1.322-3.334-1.803s-2.604-0.841-4.096-1.081c-1.493-0.24-3.112-0.361-4.859-0.361
	c-1.411,0-2.724,0.077-3.937,0.232c-1.213,0.154-2.327,0.386-3.341,0.695c-1.014,0.309-1.929,0.695-2.744,1.159
	S37.617,22.866,37,23.485c-0.595,0.562-1.125,1.181-1.585,1.842c-0.46,0.662-0.851,1.367-1.167,2.104s-0.557,1.506-0.718,2.295
	s-0.243,1.6-0.24,2.419c-0.048,0.817,0.022,1.623,0.2,2.396c0.178,0.773,0.462,1.515,0.842,2.203
	c0.381,0.688,0.856,1.324,1.417,1.886c0.56,0.562,1.204,1.051,1.921,1.445c0.479,0.268,1.108,0.553,1.889,0.854
	s1.713,0.618,2.796,0.951s2.318,0.683,3.704,1.049c1.386,0.366,2.923,0.748,4.611,1.146l2.5,0.59l2.5,0.59l2.5,0.59l2.5,0.59
	c1.207,0.285,2.344,0.596,3.413,0.932s2.069,0.698,2.999,1.085c0.931,0.388,1.793,0.801,2.586,1.24
	c0.793,0.439,1.517,0.903,2.172,1.392c1.135,0.86,2.128,1.818,2.979,2.873s1.561,2.208,2.129,3.458
	c0.567,1.25,0.993,2.597,1.277,4.042s0.425,2.987,0.425,4.627c0,2.04-0.181,3.935-0.543,5.684c-0.362,1.75-0.905,3.354-1.63,4.814
	c-0.724,1.459-1.629,2.773-2.715,3.942s-2.354,2.192-3.801,3.07c-1.527,0.898-3.109,1.686-4.734,2.36s-3.292,1.234-4.99,1.676
	s-3.426,0.768-5.173,0.973c-1.747,0.205-3.512,0.29-5.283,0.251c-2.235,0-4.349-0.146-6.341-0.437
	c-1.993-0.292-3.864-0.729-5.614-1.313s-3.379-1.312-4.886-2.187c-1.507-0.875-2.894-1.895-4.159-3.062s-2.368-2.436-3.311-3.808
	c-0.942-1.372-1.723-2.847-2.342-4.424s-1.077-3.258-1.373-5.041c-0.296-1.783-0.431-3.669-0.404-5.657h2.345h2.345
	c0,0,1.172,0,2.345,0S30.73,62.925,30.73,62.925z"/>
</svg>
