<?xml version="1.0" encoding="iso-8859-1"?>
<!-- Generator: Adobe Illustrator 25.2.3, SVG Export Plug-In . SVG Version: 6.00 Build 0)  -->
<svg version="1.1" id="Layer_1" xmlns="http://www.w3.org/2000/svg" xmlns:xlink="http://www.w3.org/1999/xlink" x="0px" y="0px"
	 viewBox="0 0 100 100" style="enable-background:new 0 0 100 100;" xml:space="preserve">
<g id="Layer_2_1_">
	<g id="Layer_2-2">
		<path d="M23.745,77.55L19.29,50l-4.455-27.55h3.5h3.5l2.67,20.165l2.67,20.165l0,0l0,0l2.275-20.165l2.275-20.165h3.555h3.555
			l2.31,20l2.31,20l0,0l0,0l2.69-20l2.69-20h3.38h3.38L51.125,50l-4.47,27.55H43.47h-3.185l-2.57-21.685l-2.57-21.685l-2.5,21.685
			l-2.5,21.685h-3.2H23.745z"/>
		<path d="M57.095,22.45h3.555h3.555l3.5,21.045l3.5,21.045l0,0l0,0l3.525-21.045l3.525-21.045h3.455h3.455L79.735,50l-5.43,27.55
			h-3.18h-3.18L62.52,50L57.095,22.45z"/>
	</g>
</g>
</svg>
