<svg xmlns="http://www.w3.org/2000/svg" viewBox="0 0 100 100"><path d="M19.57,34.45A10.42,10.42,0,0,1,22,30.74a4,4,0,0,1,2.68-1.15,4.75,4.75,0,0,1,2.37.58,9.49,9.49,0,0,1,2,1.63,14.46,14.46,0,0,1,1.7,2.2c.48.78.88,1.44,1.18,2l.24.42h1.6V26.94l-.22-.24a23.77,23.77,0,0,0-1.85-1.79,14.67,14.67,0,0,0-1.89-1.39,12.52,12.52,0,0,0-2.35-1.05,9,9,0,0,0-2.78-.42,8.32,8.32,0,0,0-5.44,2,15.82,15.82,0,0,0-4,5.6,36.11,36.11,0,0,0-2.55,8.62,67.79,67.79,0,0,0-.87,11.5,69.35,69.35,0,0,0,.9,11.73,34,34,0,0,0,2.55,8.64,14.55,14.55,0,0,0,4,5.38,8.58,8.58,0,0,0,5.33,1.88A8.23,8.23,0,0,0,27.6,77a14.59,14.59,0,0,0,4.33-2.71c.52-.49,1.07-1,1.65-1.52l.27-.25V63.09h-1.6l-.23.45a20.88,20.88,0,0,1-1.1,1.86,14.07,14.07,0,0,1-1.62,2.1,8.59,8.59,0,0,1-2.12,1.68,4.26,4.26,0,0,1-5.12-.48,9.93,9.93,0,0,1-2.4-3.58,27.83,27.83,0,0,1-1.76-6.3,54.57,54.57,0,0,1-.65-9,57.93,57.93,0,0,1,.62-8.89A27.41,27.41,0,0,1,19.57,34.45Z"/><path d="M46.31,34.45a10.68,10.68,0,0,1,2.47-3.71,4,4,0,0,1,2.69-1.15,4.75,4.75,0,0,1,2.37.58,9.44,9.44,0,0,1,2,1.63,14.46,14.46,0,0,1,1.7,2.2c.49.78.88,1.44,1.19,2l.23.42H60.6V26.94l-.22-.24a23.86,23.86,0,0,0-1.86-1.79,14,14,0,0,0-1.89-1.39,12.24,12.24,0,0,0-2.35-1.05,8.94,8.94,0,0,0-2.78-.42,8.32,8.32,0,0,0-5.44,2,15.68,15.68,0,0,0-4,5.6,35.66,35.66,0,0,0-2.55,8.62,66.77,66.77,0,0,0-.87,11.5,69.43,69.43,0,0,0,.89,11.73,34.44,34.44,0,0,0,2.55,8.64,14.76,14.76,0,0,0,4,5.38,8.61,8.61,0,0,0,5.34,1.88A8.13,8.13,0,0,0,54.34,77a14.59,14.59,0,0,0,4.33-2.71c.52-.49,1.07-1,1.66-1.52l.27-.25V63.09H59l-.23.45c-.26.51-.63,1.14-1.09,1.86a14.77,14.77,0,0,1-1.62,2.1,8.63,8.63,0,0,1-2.13,1.68,4.25,4.25,0,0,1-5.11-.48,9.81,9.81,0,0,1-2.41-3.58,28.36,28.36,0,0,1-1.76-6.3,54.57,54.57,0,0,1-.65-9,57.93,57.93,0,0,1,.62-8.89A27.91,27.91,0,0,1,46.31,34.45Z"/><path d="M87.1,31.27a15.57,15.57,0,0,0-2.87-5.45,9.68,9.68,0,0,0-3.74-2.77,13.71,13.71,0,0,0-5.08-.84l-8.55.8V78l5.78-1V58h2.68a10.82,10.82,0,0,0,5.93-1.52,12.87,12.87,0,0,0,4-4.39,19.59,19.59,0,0,0,2.08-5.5,36.49,36.49,0,0,0,.75-7.48A26.54,26.54,0,0,0,87.1,31.27ZM72.64,29.94h2.59a8.93,8.93,0,0,1,3,.41,4.6,4.6,0,0,1,1.94,1.34,7.57,7.57,0,0,1,1.5,3,18,18,0,0,1,.52,4.57,27.65,27.65,0,0,1-.4,5,11.53,11.53,0,0,1-1.24,3.26,4.94,4.94,0,0,1-2.19,2.14,9,9,0,0,1-3.7.63h-2Z"/></svg>