<svg xmlns="http://www.w3.org/2000/svg" viewBox="0 0 100 100"><path d="M17.13,63.41l15.75-1.47q1.42,7.62,5.77,11.18t11.73,3.57q7.83,0,11.79-3.17c2.64-2.12,4-4.6,4-7.43a6.86,6.86,0,0,0-1.67-4.65,13.64,13.64,0,0,0-5.83-3.33c-1.89-.63-6.22-1.75-13-3.36q-13-3.09-18.27-7.61Q20,40.78,20,31.65a19.15,19.15,0,0,1,3.47-11,21.47,21.47,0,0,1,10-7.8,41.53,41.53,0,0,1,15.78-2.68q15.09,0,22.73,6.35t8,17l-16.19.68q-1.05-5.93-4.46-8.53T49.12,23q-7,0-11,2.79A5.53,5.53,0,0,0,35.5,30.6a5.87,5.87,0,0,0,2.41,4.68Q41,37.74,52.79,40.42T70.26,46a22.23,22.23,0,0,1,8.87,7.82A22.19,22.19,0,0,1,82.33,66,22,22,0,0,1,78.5,78.43,22.81,22.81,0,0,1,67.67,87q-7,2.8-17.45,2.81-15.21,0-23.36-6.75T17.13,63.41Z" fill="#ccc"/><path d="M10.81,63.75V37.25H25v3.13H13.59v8.21h9.86v3.12H13.59v12Z" fill="#000102"/><path d="M13.75,63.92H10.64V37.09h14.5v3.45H13.75v7.88h9.86v3.46H13.75ZM11,63.59h2.45v-12h9.86v-2.8H13.42V40.22h11.4V37.41H11Z" fill="#fff"/><path d="M24.66,63.75l8.07-26.5h3l8.6,26.5H41.16l-2.45-8H29.92l-2.3,8Zm6.07-10.88h7.12l-2.19-7.34q-1-3.35-1.5-5.49A39.2,39.2,0,0,1,33,45.1Z" fill="#000102"/><path d="M44.55,63.92H41l0-.12-2.41-7.91H30l-2.3,8h-3.3l.07-.21,8.1-26.62h3.24l0,.11Zm-3.27-.33H44.1L35.61,37.41H32.85l-8,26.18h2.61l2.31-8h9l0,.11ZM38.07,53H30.51l.06-.2,2.31-7.78A42.53,42.53,0,0,0,34,40l.13-.84.18.83c.33,1.43.83,3.28,1.49,5.49Zm-7.13-.32h6.69L35.5,45.58c-.55-1.83-1-3.42-1.31-4.72a40.19,40.19,0,0,1-1,4.28Z" fill="#fff"/><path d="M47,63.75V37.25H49.8v26.5Z" fill="#000102"/><path d="M50,63.92h-3.1V37.09H50Zm-2.78-.33h2.46V37.41H47.18Z" fill="#fff"/><path d="M60.05,63.75V40.38H53.12V37.25H69.78v3.13h-7V63.75Z" fill="#000102"/><path d="M63,63.92H59.88V40.54H53V37.09h17v3.45H63Zm-2.78-.33h2.45V40.22h7V37.41H53.29v2.81h6.92Z" fill="#fff"/><path d="M72.71,63.75V37.25h2.78V48.14H86.41V37.25h2.78v26.5H86.41V51.26H75.49V63.75Z" fill="#000102"/><path d="M89.36,63.92H86.25V51.43H75.66V63.92H72.55V37.09h3.11V48H86.25V37.09h3.11Zm-2.78-.33H89V37.41H86.58V48.3H75.33V37.41H72.88V63.59h2.45V51.1H86.58Z" fill="#fff"/></svg>