<svg xmlns="http://www.w3.org/2000/svg" viewBox="0 0 100 100"><polygon points="91.44 35.78 63.72 35.78 63.72 7.05 36.6 7.05 36.6 35.78 8.56 35.78 8.56 64.39 35.95 64.39 35.95 92.94 63.72 92.94 63.72 64.39 91.44 64.39 91.44 35.78"/><path d="M12.29,61.49V37.68h7.34a7,7,0,0,1,3.36.65,4.4,4.4,0,0,1,1.84,2.26,9.08,9.08,0,0,1,.69,3.59,7.62,7.62,0,0,1-1.14,4.27,5.17,5.17,0,0,1-3.52,2.21,5.83,5.83,0,0,1,1.32,1.19A16.08,16.08,0,0,1,24,55l2.88,6.48H24.12l-2.19-5c-.64-1.43-1.17-2.52-1.58-3.28a6.21,6.21,0,0,0-1.11-1.59,2.86,2.86,0,0,0-1-.64A4.91,4.91,0,0,0,17,50.92H14.48V61.49Zm2.19-13.3h4.71a5.09,5.09,0,0,0,2.35-.45,2.84,2.84,0,0,0,1.28-1.42,5.09,5.09,0,0,0,.44-2.14,4.37,4.37,0,0,0-.85-2.78,3.21,3.21,0,0,0-2.69-1.08H14.48Z" fill="#fff"/><path d="M29,61.49V37.68H41v2.81H31.19v7.3h9.15v2.79H31.19v8.1H41.35v2.81Z" fill="#fff"/><path d="M44.44,61.49V37.68h2.19v9.78h8.6V37.68h2.19V61.49H55.23V50.27h-8.6V61.49Z" fill="#fff"/><path d="M59.25,61.49l6.36-23.81H68l6.77,23.81H72.25l-1.93-7.21H63.4l-1.82,7.21ZM64,51.72h5.61l-1.73-6.6c-.53-2-.92-3.65-1.17-4.93a39.6,39.6,0,0,1-.9,4.54Z" fill="#fff"/><path d="M76.4,61.49V37.68h6.21a5.65,5.65,0,0,1,3,.73,4.76,4.76,0,0,1,1.8,2.22,7.88,7.88,0,0,1,.65,3.14,7.33,7.33,0,0,1-.58,2.88,5,5,0,0,1-1.74,2.17A4.66,4.66,0,0,1,88.09,51a7.6,7.6,0,0,1,.81,3.61,9.79,9.79,0,0,1-.49,3.11,6.24,6.24,0,0,1-1.22,2.22,4.44,4.44,0,0,1-1.81,1.17,7.74,7.74,0,0,1-2.67.4Zm2.19-13.8h3.58a5.53,5.53,0,0,0,2.09-.28,2.53,2.53,0,0,0,1.26-1.18,4.61,4.61,0,0,0,.42-2.08,5.06,5.06,0,0,0-.4-2.09,2.28,2.28,0,0,0-1.12-1.23,6.51,6.51,0,0,0-2.52-.34H78.59Zm0,11h4.12a7.09,7.09,0,0,0,1.49-.11,3.06,3.06,0,0,0,1.27-.65,3.41,3.41,0,0,0,.83-1.33,5.55,5.55,0,0,0,.33-2,5.18,5.18,0,0,0-.48-2.31,2.72,2.72,0,0,0-1.31-1.38,5.75,5.75,0,0,0-2.42-.4H78.59Z" fill="#fff"/></svg>