<?xml version="1.0" encoding="iso-8859-1"?>
<!-- Generator: Adobe Illustrator 25.2.3, SVG Export Plug-In . SVG Version: 6.00 Build 0)  -->
<svg version="1.1" id="Layer_1" xmlns="http://www.w3.org/2000/svg" xmlns:xlink="http://www.w3.org/1999/xlink" x="0px" y="0px"
	 viewBox="0 0 100 100" style="enable-background:new 0 0 100 100;" xml:space="preserve">
<g id="Layer_2_1_">
	<g id="Layer_2-2">
		<path style="fill:none;" d="M64.205,15.93l2.825,8.195l2.825,8.195l2.845-8.195l2.845-8.195h3.08h3.08l-4.28,11.675l-4.28,11.675
			H69.77h-3.375L62.14,27.605L57.885,15.93h3.16H64.205z M41.905,35.14h1.91h1.91v-7.535V20.07h-1.91h-1.91V18v-2.07h6.82h6.82V18
			v2.07h-1.9h-1.9v7.535v7.535h1.9h1.9v2.07v2.07h-6.82h-6.82v-2.07V35.14z M19.175,22.6c0.253-0.722,0.582-1.412,0.979-2.061
			c0.397-0.649,0.863-1.255,1.391-1.809c0.536-0.532,1.126-1.002,1.76-1.405c0.634-0.402,1.311-0.736,2.02-0.995
			c0.786-0.287,1.595-0.503,2.417-0.645c0.822-0.142,1.656-0.211,2.493-0.205c0.445-0.002,0.889,0.011,1.333,0.039
			c0.444,0.028,0.886,0.072,1.327,0.131c0.369,0.049,0.736,0.109,1.102,0.181c0.365,0.072,0.728,0.155,1.088,0.249
			c0.325,0.09,0.648,0.191,0.966,0.303c0.319,0.112,0.633,0.234,0.944,0.367c0.285,0.12,0.55,0.237,0.798,0.351
			s0.478,0.224,0.693,0.329v2.83v2.83h-0.345h-0.346c-0.145-0.125-0.31-0.26-0.494-0.408c-0.184-0.147-0.386-0.307-0.606-0.482
			c-0.243-0.182-0.491-0.357-0.745-0.523c-0.253-0.167-0.512-0.326-0.775-0.477c-0.294-0.174-0.596-0.331-0.907-0.471
			c-0.31-0.14-0.629-0.263-0.953-0.369c-0.346-0.118-0.701-0.206-1.06-0.264c-0.36-0.059-0.724-0.087-1.09-0.086
			c-0.412-0.003-0.822,0.03-1.227,0.097c-0.405,0.067-0.804,0.168-1.193,0.303c-0.387,0.145-0.757,0.33-1.104,0.552
			s-0.671,0.478-0.966,0.768c-0.333,0.336-0.627,0.706-0.879,1.103c-0.251,0.397-0.46,0.822-0.621,1.267
			c-0.204,0.572-0.354,1.161-0.449,1.759c-0.095,0.598-0.136,1.204-0.121,1.811c-0.02,0.625,0.022,1.248,0.126,1.861
			S25,30.747,25.225,31.33c0.17,0.439,0.388,0.855,0.65,1.243c0.262,0.387,0.567,0.746,0.91,1.067
			c0.304,0.282,0.638,0.529,0.996,0.735s0.738,0.373,1.134,0.495c0.375,0.121,0.758,0.213,1.146,0.275s0.78,0.094,1.174,0.095
			c0.368,0,0.735-0.028,1.097-0.083s0.721-0.138,1.073-0.247c0.351-0.104,0.695-0.23,1.029-0.379
			c0.334-0.149,0.658-0.319,0.971-0.511c0.247-0.151,0.489-0.31,0.726-0.477c0.237-0.167,0.468-0.341,0.694-0.523
			c0.22-0.175,0.42-0.335,0.601-0.483c0.181-0.147,0.344-0.282,0.489-0.407h0.315h0.315v2.8v2.8L37.71,38.1l-0.835,0.37
			c-0.273,0.117-0.55,0.225-0.83,0.323c-0.28,0.098-0.564,0.187-0.85,0.267c-0.354,0.103-0.71,0.197-1.069,0.282
			c-0.358,0.085-0.719,0.161-1.081,0.228c-0.457,0.064-0.916,0.11-1.377,0.139c-0.461,0.029-0.922,0.039-1.383,0.031
			c-0.818,0.008-1.633-0.054-2.437-0.183s-1.598-0.325-2.373-0.587c-1.454-0.48-2.756-1.281-3.824-2.323
			c-1.068-1.042-1.901-2.325-2.416-3.767c-0.305-0.841-0.531-1.706-0.676-2.585s-0.211-1.771-0.194-2.665
			c-0.014-0.856,0.047-1.709,0.183-2.551C18.683,24.238,18.893,23.408,19.175,22.6z"/>
		<path d="M21.665,36.73c0.541,0.514,1.135,0.967,1.771,1.35c0.635,0.384,1.312,0.699,2.019,0.94
			c0.774,0.262,1.568,0.459,2.373,0.587c0.805,0.129,1.62,0.19,2.437,0.183c0.462,0.007,0.923-0.003,1.383-0.031
			c0.46-0.028,0.92-0.075,1.377-0.139c0.362-0.067,0.723-0.143,1.081-0.228s0.715-0.179,1.069-0.282
			c0.286-0.08,0.57-0.169,0.85-0.267s0.557-0.206,0.83-0.323l0.845-0.395l0.845-0.395v-2.79v-2.79h-0.31h-0.31
			c-0.145,0.125-0.307,0.26-0.489,0.408c-0.181,0.147-0.381,0.308-0.601,0.483c-0.226,0.182-0.457,0.356-0.694,0.523
			c-0.237,0.166-0.479,0.325-0.726,0.476c-0.312,0.192-0.637,0.362-0.971,0.511c-0.334,0.149-0.678,0.275-1.029,0.379
			c-0.351,0.109-0.71,0.192-1.073,0.247c-0.363,0.055-0.73,0.083-1.097,0.083c-0.394-0.001-0.787-0.033-1.174-0.095
			c-0.388-0.062-0.771-0.154-1.146-0.275c-0.397-0.122-0.777-0.289-1.134-0.495c-0.357-0.206-0.691-0.453-0.996-0.735
			c-0.344-0.321-0.649-0.68-0.91-1.067c-0.261-0.387-0.48-0.804-0.65-1.243c-0.225-0.583-0.39-1.186-0.494-1.799
			c-0.104-0.613-0.146-1.237-0.126-1.861c-0.015-0.607,0.025-1.214,0.121-1.811c0.095-0.598,0.246-1.186,0.449-1.759
			c0.158-0.448,0.365-0.876,0.614-1.276s0.544-0.775,0.876-1.114c0.301-0.292,0.631-0.551,0.985-0.772
			c0.354-0.221,0.731-0.405,1.125-0.548c0.389-0.135,0.788-0.236,1.193-0.303s0.815-0.099,1.227-0.097
			c0.366-0.002,0.73,0.027,1.09,0.086s0.714,0.147,1.06,0.264c0.325,0.105,0.643,0.228,0.953,0.369
			c0.31,0.14,0.613,0.298,0.907,0.471c0.263,0.151,0.522,0.31,0.775,0.477c0.253,0.167,0.502,0.341,0.745,0.523
			c0.22,0.175,0.423,0.335,0.606,0.483c0.184,0.147,0.349,0.282,0.494,0.407h0.355h0.355v-2.835V17.42
			c-0.215-0.105-0.445-0.215-0.693-0.329c-0.247-0.114-0.513-0.231-0.798-0.351c-0.31-0.133-0.625-0.255-0.944-0.367
			c-0.319-0.112-0.641-0.213-0.966-0.303c-0.36-0.094-0.723-0.177-1.088-0.249s-0.733-0.132-1.102-0.181
			c-0.441-0.059-0.883-0.103-1.327-0.131c-0.444-0.028-0.888-0.041-1.333-0.039c-0.837-0.006-1.671,0.063-2.493,0.205
			s-1.631,0.358-2.417,0.645c-0.72,0.256-1.408,0.59-2.052,0.994c-0.643,0.405-1.243,0.879-1.787,1.416
			c-0.536,0.553-1.009,1.161-1.413,1.811c-0.404,0.65-0.739,1.344-0.997,2.069c-0.284,0.803-0.496,1.627-0.635,2.464
			s-0.205,1.685-0.195,2.536c-0.017,0.894,0.048,1.786,0.194,2.665s0.372,1.744,0.676,2.585c0.263,0.731,0.608,1.427,1.025,2.076
			S21.109,36.187,21.665,36.73z"/>
		<polygon points="55.575,35.14 53.66,35.14 51.745,35.14 51.745,27.605 51.745,20.07 53.66,20.07 55.575,20.07 55.575,18 
			55.575,15.93 48.735,15.93 41.895,15.93 41.895,18 41.895,20.07 43.81,20.07 45.725,20.07 45.725,27.605 45.725,35.14 
			43.81,35.14 41.895,35.14 41.895,37.21 41.895,39.28 48.735,39.28 55.575,39.28 55.575,37.21 		"/>
		<polygon points="73.145,39.28 77.4,27.605 81.655,15.93 78.575,15.93 75.495,15.93 72.675,24.125 69.855,32.32 67.03,24.125 
			64.205,15.93 61.045,15.93 57.885,15.93 62.14,27.605 66.395,39.28 69.77,39.28 		"/>
		<path d="M93.155,7.15l2.535-2.535l2.535-2.535c0.155-0.154,0.232-0.356,0.233-0.558c0.001-0.202-0.076-0.405-0.23-0.559
			l-0.001-0.001l-0.001-0.001c-0.151-0.153-0.35-0.231-0.55-0.232c-0.2-0.001-0.4,0.074-0.553,0.225
			c-0.001,0.001-0.002,0.002-0.003,0.003c-0.001,0.001-0.002,0.002-0.003,0.003l-2.535,2.535L92.045,6.03L90.66,4.65l-1.385-1.38
			L87.41,8.44l-1.865,5.17l5.175-1.85l5.175-1.85l-1.37-1.38L93.155,7.15z"/>
		<path d="M6.845,7.15l-1.38,1.38l-1.38,1.38l5.17,1.85l5.17,1.85l-1.85-5.17l-1.85-5.17l-1.38,1.38l-1.38,1.38L5.43,3.495
			L2.895,0.96C2.74,0.805,2.538,0.728,2.335,0.728c-0.203,0-0.405,0.077-0.56,0.232S1.543,1.317,1.543,1.52S1.62,1.925,1.775,2.08
			L4.31,4.615L6.845,7.15z"/>
		<path d="M93.155,92.39l1.385-1.385l1.385-1.385l-5.19-1.85l-5.19-1.85l1.85,5.17l1.85,5.17l1.385-1.38l1.385-1.38l2.535,2.535
			l2.535,2.535c0.153,0.153,0.354,0.23,0.555,0.23s0.402-0.077,0.555-0.23s0.23-0.354,0.23-0.555s-0.077-0.402-0.23-0.555
			l-2.52-2.535L93.155,92.39z"/>
		<path d="M6.845,92.39L4.31,94.925L1.775,97.46c-0.153,0.151-0.231,0.35-0.232,0.55c-0.001,0.2,0.074,0.4,0.225,0.553
			c0.001,0.001,0.002,0.002,0.003,0.003c0.001,0.001,0.002,0.002,0.003,0.003c0.154,0.155,0.356,0.232,0.558,0.233
			c0.202,0.001,0.405-0.076,0.559-0.23l0.001-0.001l0.001-0.001l2.535-2.535L7.965,93.5l1.38,1.38l1.38,1.38l1.85-5.17l1.85-5.17
			l-5.17,1.85l-5.17,1.85l1.38,1.385L6.845,92.39z"/>
		<path d="M58.005,71.99h0.18h0.18c1.574,0,2.999-0.638,4.031-1.669c1.031-1.031,1.669-2.456,1.669-4.031v-8.625V49.04l0,0l0,0
			c-0.75-0.83-1.575-1.057-2.256-0.91s-1.219,0.67-1.394,1.34v2.565V54.6c-0.001,0.06-0.008,0.12-0.019,0.178
			c-0.012,0.059-0.029,0.116-0.051,0.172c-0.048,0.276-0.204,0.507-0.417,0.656s-0.482,0.217-0.758,0.169s-0.507-0.204-0.656-0.417
			s-0.217-0.482-0.169-0.758v-4.865V44.87c-0.82-0.935-1.75-1.118-2.475-0.864c-0.725,0.254-1.245,0.944-1.245,1.754l-0.19,3.27
			l-0.19,3.27v1.145v1.145c0,0.276-0.112,0.526-0.293,0.707s-0.431,0.293-0.707,0.293s-0.526-0.112-0.707-0.293
			s-0.293-0.431-0.293-0.707v-1.145V52.3l-0.185-4.865l-0.185-4.865c-0.82-0.935-1.75-1.118-2.475-0.864
			c-0.725,0.254-1.245,0.944-1.245,1.754v5.565v5.565c0,0.276-0.112,0.526-0.293,0.707s-0.431,0.293-0.707,0.293
			s-0.526-0.112-0.707-0.293s-0.293-0.431-0.293-0.707v-4.86v-4.86l0,0l0,0c-0.635-0.715-1.327-0.985-1.941-0.955
			s-1.149,0.36-1.469,0.845v4.92v4.92c-0.001,0.137-0.028,0.27-0.079,0.394s-0.125,0.238-0.221,0.336
			c-0.096,0.095-0.208,0.168-0.331,0.218c-0.122,0.049-0.255,0.074-0.389,0.072c-0.269-0.017-0.51-0.133-0.689-0.311
			c-0.179-0.179-0.294-0.42-0.311-0.689v-1.235V52.15c-0.167-0.285-0.41-0.507-0.694-0.648s-0.608-0.201-0.936-0.162
			c-0.448,0.051-0.839,0.269-1.117,0.586s-0.441,0.733-0.433,1.184v6.59v6.59c-0.001,1.409,0.515,2.713,1.379,3.716
			s2.077,1.706,3.471,1.914v11.85v11.85H50.2h7.805V83.805C58.005,83.805,58.005,71.99,58.005,71.99z"/>
		<path d="M42.385,95.62v0.5v0.5c1.396,0.232,2.801,0.4,4.211,0.505s2.824,0.147,4.239,0.125c1.202-0.026,2.402-0.096,3.598-0.211
			c1.196-0.115,2.387-0.275,3.572-0.479v-0.5v-0.5l-7.81,0.03L42.385,95.62z"/>
		<path d="M50.835,97.27c-1.415,0.022-2.829-0.02-4.239-0.125c-1.41-0.105-2.815-0.274-4.211-0.505v1v1
			c1.402,0.221,2.812,0.382,4.227,0.483c1.415,0.1,2.834,0.139,4.253,0.117c1.196-0.024,2.391-0.09,3.582-0.199
			c1.191-0.108,2.378-0.259,3.558-0.451v-1v-1c-1.185,0.202-2.376,0.361-3.572,0.474C53.237,97.177,52.037,97.246,50.835,97.27z"/>
		<path d="M31.375,79.41c1.105,0,2.105-0.448,2.828-1.172s1.172-1.724,1.172-2.828l0,0l0,0v-6.085V63.24l0,0l0,0
			c-0.525-0.585-1.105-0.745-1.585-0.64s-0.86,0.475-0.985,0.95v1.805v1.805c0,0.041-0.004,0.082-0.013,0.123
			c-0.008,0.04-0.021,0.08-0.037,0.117c-0.049,0.143-0.141,0.263-0.258,0.347c-0.117,0.084-0.26,0.132-0.412,0.133
			c-0.199,0-0.379-0.081-0.509-0.211c-0.13-0.13-0.211-0.31-0.211-0.509l0,0l0,0v-3.43V60.3c-0.575-0.655-1.23-0.783-1.741-0.604
			s-0.879,0.664-0.879,1.234l-0.1,2.3l-0.1,2.3v0.81v0.81c0,0.199-0.081,0.379-0.211,0.509s-0.31,0.211-0.509,0.211
			s-0.379-0.081-0.509-0.211c-0.13-0.13-0.211-0.31-0.211-0.509v-0.81v-0.81l-0.155-3.4l-0.155-3.4
			c-0.58-0.66-1.237-0.787-1.75-0.607s-0.88,0.667-0.88,1.237v3.92v3.92c0.023,0.197-0.035,0.386-0.15,0.53
			c-0.114,0.145-0.283,0.246-0.481,0.269c-0.197,0.023-0.386-0.035-0.53-0.15c-0.145-0.114-0.246-0.283-0.269-0.481
			c-0.003-0.028-0.005-0.056-0.005-0.085c0-0.028,0.002-0.057,0.005-0.085v-3.45v-3.45l0,0l0,0c-0.216-0.34-0.55-0.561-0.915-0.642
			s-0.76-0.024-1.101,0.193c-0.077,0.049-0.149,0.104-0.215,0.166s-0.126,0.13-0.18,0.203v3.47v3.47
			c0.004,0.196-0.072,0.375-0.198,0.506s-0.302,0.214-0.498,0.218c-0.112,0.002-0.221-0.022-0.319-0.069s-0.186-0.116-0.255-0.205
			c-0.053-0.063-0.094-0.135-0.123-0.211c-0.029-0.076-0.045-0.157-0.047-0.239v-0.865V65.43c-0.116-0.2-0.286-0.356-0.485-0.456
			c-0.199-0.099-0.425-0.142-0.655-0.114c-0.297,0.058-0.551,0.22-0.729,0.442s-0.279,0.506-0.271,0.808v4.645V75.4
			c0,1.105,0.448,2.105,1.172,2.828c0.724,0.724,1.724,1.172,2.828,1.172h0.595h0.595v4.32v4.32c1.47,1.078,3,2.069,4.581,2.971
			c1.581,0.901,3.213,1.713,4.889,2.429l-0.015-7.015L31.375,79.41z"/>
		<path d="M21.905,88.05v1.22v1.22c1.48,1.026,3.014,1.971,4.595,2.829s3.208,1.63,4.875,2.311v-1.09v-1.09
			c-1.676-0.717-3.308-1.528-4.889-2.429C24.905,90.119,23.375,89.128,21.905,88.05z"/>
		<path d="M78.745,79.54v-4.77V70l0,0l0,0c-0.415-0.46-0.87-0.585-1.244-0.503c-0.374,0.083-0.666,0.373-0.756,0.743v1.42v1.42
			c0.007,0.031,0.011,0.063,0.011,0.095s-0.004,0.064-0.011,0.095c-0.037,0.112-0.108,0.205-0.199,0.27
			c-0.091,0.065-0.203,0.102-0.321,0.1c-0.155,0-0.297-0.062-0.4-0.163c-0.103-0.101-0.168-0.241-0.17-0.397v-2.675V67.73
			c-0.45-0.5-0.965-0.603-1.368-0.467c-0.402,0.135-0.692,0.507-0.692,0.957l-0.105,1.81l-0.105,1.81v0.635v0.635
			c0,0.155-0.063,0.295-0.164,0.396c-0.101,0.101-0.241,0.164-0.396,0.164c-0.155,0-0.295-0.063-0.396-0.164
			s-0.164-0.241-0.164-0.396v-0.655V71.8l-0.105-2.695l-0.105-2.695c-0.455-0.5-0.97-0.6-1.371-0.463
			c-0.401,0.137-0.689,0.512-0.689,0.963v3.08v3.08c-0.021,0.156-0.103,0.289-0.219,0.377c-0.116,0.089-0.266,0.133-0.422,0.112
			c-0.128-0.017-0.241-0.076-0.328-0.162c-0.086-0.086-0.145-0.2-0.162-0.328v-2.67V67.73l0,0l0,0
			c-0.168-0.267-0.427-0.44-0.712-0.505c-0.285-0.065-0.594-0.021-0.86,0.146c-0.062,0.039-0.12,0.084-0.174,0.134
			c-0.053,0.05-0.102,0.105-0.145,0.165v2.725v2.725c0.002,0.076-0.013,0.15-0.042,0.218c-0.029,0.068-0.072,0.13-0.128,0.182
			c-0.052,0.052-0.113,0.092-0.179,0.119c-0.066,0.027-0.138,0.041-0.211,0.041c-0.086,0-0.169-0.019-0.244-0.055
			c-0.075-0.036-0.142-0.089-0.196-0.155c-0.039-0.05-0.07-0.106-0.092-0.165c-0.022-0.059-0.035-0.121-0.038-0.185v-0.695V71.73
			c-0.091-0.159-0.225-0.282-0.382-0.361c-0.157-0.078-0.336-0.112-0.518-0.089c-0.241,0.044-0.448,0.172-0.593,0.35
			c-0.146,0.178-0.231,0.406-0.227,0.65v3.645v3.645c0,0.766,0.276,1.477,0.739,2.03c0.464,0.553,1.116,0.947,1.871,1.08v5.8v5.8
			c1.662-0.628,3.286-1.348,4.865-2.156c1.579-0.808,3.113-1.704,4.595-2.684v-3.395V82.65c0.743-0.146,1.381-0.545,1.834-1.097
			C78.481,81.001,78.747,80.297,78.745,79.54z"/>
		<path d="M66.675,94.25v0.74v0.74h0.875h0.875c1.34-0.538,2.655-1.136,3.942-1.79c1.286-0.654,2.544-1.365,3.768-2.13v-1.2v-1.2
			c-1.482,0.98-3.016,1.876-4.595,2.684C69.961,92.902,68.337,93.622,66.675,94.25z"/>
	</g>
</g>
</svg>
