<svg xmlns="http://www.w3.org/2000/svg" viewBox="0 0 100 100"><path d="M34.14,30.73l8.6-.69a8.29,8.29,0,0,0,3.15,5.24A11,11,0,0,0,52.3,37q4.28,0,6.44-1.49A4.21,4.21,0,0,0,60.91,32,3,3,0,0,0,60,29.8a7.65,7.65,0,0,0-3.19-1.56c-1-.29-3.39-.82-7.08-1.57q-7.11-1.46-10-3.57c-2.69-2-4-4.4-4-7.26a8.11,8.11,0,0,1,1.9-5.15A11.71,11.71,0,0,1,43.09,7,26.26,26.26,0,0,1,51.7,5.78q8.25,0,12.42,3A9.83,9.83,0,0,1,68.5,16.7L59.65,17a6,6,0,0,0-2.43-4,10.4,10.4,0,0,0-5.6-1.21,11.78,11.78,0,0,0-6,1.3,2.51,2.51,0,0,0-1.4,2.24,2.62,2.62,0,0,0,1.31,2.19c1.12.77,3.82,1.57,8.13,2.41a49.17,49.17,0,0,1,9.54,2.6A11.66,11.66,0,0,1,68,26.21a9.66,9.66,0,0,1-.34,11.55,12.19,12.19,0,0,1-5.92,4,29.51,29.51,0,0,1-9.53,1.32c-5.53,0-9.79-1.05-12.75-3.16A13,13,0,0,1,34.14,30.73Z"/><ellipse cx="50" cy="69.41" rx="24.26" ry="24.81"/><path d="M54.11,89.18H49.45V58A24.56,24.56,0,0,1,45,61.35a30.08,30.08,0,0,1-4.92,2.53V59.15A28.18,28.18,0,0,0,47,54.47a18.48,18.48,0,0,0,4.15-5.33h3Z" fill="#fff"/></svg>