<svg xmlns="http://www.w3.org/2000/svg" viewBox="0 0 100 100"><path d="M25.13,23.84H35.5c-.66,3.31,1.46,5.41,3.14,7.53a16.08,16.08,0,0,1,3.45,11.31c-.35,10.08-.22,20.17-.29,30.25,0,3.16-1.31,5.08-4.5,5.25a133.66,133.66,0,0,1-15.76-.07c-3.17-.2-4.38-2.11-4.36-5.34.08-11.45.13-22.89.29-34.34a7.83,7.83,0,0,1,1.15-3.56c1-1.8,2.43-3.38,3.5-5.17S24,26.06,25.13,23.84Z"/><path d="M61,55.83c-1.23-2.14-.8-3.92.91-5.6,5.5-5.43,10.83-11,16.46-16.32,2-1.88,4.61-3.11,7-4.58,1.26-.78,2.58-.94,3.69.33A3.27,3.27,0,0,1,89.23,34a8.74,8.74,0,0,1-.86,1Q71.1,53.86,53.83,72.69c-.6.65-1.42,1.51-2.13,1.51-1,0-2.54-.43-2.94-1.17a5.73,5.73,0,0,1-.12-3.61c.16-.72,1-1.32,1.57-1.94C53.77,63.6,57.35,59.74,61,55.83Z"/><path d="M74.46,84.59c-.37,3.3-.37,3.3-3.69,3.31-1.36,0-2.73,0-4.1,0-1.71,0-3-.3-2.66-2.46a2.92,2.92,0,0,0-.18-.81H55.5c-.1.16-.22.26-.22.37-.2,2.89-.2,2.89-3.2,2.9H48.56c-3,0-3,0-3.31-3.2H36.79c0,.07-.18.17-.19.28-.28,2.91-.28,2.91-3.21,2.92H30.26c-3.27,0-3.27,0-3.82-3.3-.61,0-1.25-.07-1.89-.09-1,0-1.53-.43-1.55-1.54s.39-1.72,1.54-1.73c.65,0,1.3-.06,2-.06h48c.65,0,1.3,0,1.95,0,1.07,0,1.45.54,1.44,1.61s-.34,1.61-1.41,1.65Z"/><path d="M64.05,44.91,60,49.3c-.62-.65-1.16-1.2-1.68-1.78-1.15-1.28-2.13-2.58-4.3-2.38a4.81,4.81,0,0,1-3.16-1.64c-2.7-2.72-5.26-5.58-7.77-8.48-.41-.47-.26-1.41-.38-2.14.65.2,1.5.2,1.9.62,2.44,2.53,4.74,5.19,7.17,7.72.47.48,1.37.56,2.07.82-.13-.8,0-1.83-.42-2.36-2.29-2.75-4.73-5.36-7.12-8-.6-.67-1.47-1.47-.35-2.22.35-.24,1.51.26,2,.75,2.4,2.47,4.65,5.08,7.05,7.55.46.47,1.37.48,2.07.71-.13-.78,0-1.79-.43-2.31-2.22-2.63-4.59-5.14-6.9-7.7-.26-.29-.67-.55-.73-.88a6.25,6.25,0,0,1,0-1.61c.52,0,1.25-.1,1.51.18,3,3.18,5.89,6.42,8.77,9.68a3.76,3.76,0,0,1,.7,1.59c.36,1.39.39,2.93,1,4.17A18.2,18.2,0,0,0,64.05,44.91Z"/><path d="M68.76,59l4-4.41c.45.42.84.74,1.17,1.1q5.68,6.2,11.35,12.39a10.34,10.34,0,0,1,1.22,1.51,3.28,3.28,0,0,1-.71,4.24,2.75,2.75,0,0,1-4-.55q-5.08-5.53-10.15-11.1Z"/><path d="M24.42,16.93h11v5.18h-11Z"/></svg>