<svg xmlns="http://www.w3.org/2000/svg" viewBox="0 0 100 100"><path d="M16.93,64l16-1.54q1.44,8,5.85,11.7t11.91,3.73q7.94,0,11.95-3.32a9.85,9.85,0,0,0,4-7.77A7.29,7.29,0,0,0,65,62Q63.27,60,59,58.48q-2.88-1-13.15-3.51-13.2-3.24-18.53-8a20.87,20.87,0,0,1-7.49-16.2,20.52,20.52,0,0,1,3.52-11.5,22.06,22.06,0,0,1,10.16-8.16,41.18,41.18,0,0,1,16-2.8q15.31,0,23,6.65t8.13,17.73l-16.42.72c-.71-4.14-2.21-7.12-4.53-8.93S54,21.8,49.39,21.8q-7.16,0-11.21,2.91a5.85,5.85,0,0,0-2.61,5A6.2,6.2,0,0,0,38,34.6q3.12,2.58,15.1,5.38t17.73,5.79a22.82,22.82,0,0,1,9,8.18,23.79,23.79,0,0,1,3.24,12.82,23.49,23.49,0,0,1-3.88,13,23.21,23.21,0,0,1-11,9q-7.1,2.94-17.7,2.94-15.42,0-23.69-7.06T16.93,64Z" fill="#999"/><polygon points="42.54 71.58 42.54 60.16 31.21 65.33 22.64 54.4 34.43 49.02 22.64 43.63 31.21 32.7 42.54 37.88 42.54 27.33 59.42 27.33 59.42 37.61 70.17 32.7 78.73 43.63 66.94 49.02 78.73 54.4 70.17 65.33 59.42 60.43 59.42 71.58 42.54 71.58"/><path d="M59,27.81V38.35L70,33.29l8,10.16L65.8,49,78,54.58,70,64.74,59,59.69V71.11H43V59.42L31.36,64.74l-8-10.16L35.58,49,23.39,43.45l8-10.16L43,38.62V27.81H59m.95-.95H42.06V37.14L31.75,32.43l-.68-.31-.46.59-8,10.16-.74,1,1.09.5L33.29,49,23,53.72l-1.09.5.74,1,8,10.16.46.59.68-.31L42.06,60.9V72.06H59.9V61.17l9.73,4.44.68.31.46-.59,8-10.16.74-1-1.1-.5L68.09,49l10.29-4.7,1.1-.5-.74-1-8-10.16-.46-.59-.68.31L59.9,36.87v-10Z" fill="#fff"/><polygon points="40.22 49.84 45.33 49.84 45.33 48.21 40.22 48.21 40.22 46.8 45.71 46.8 45.71 45.16 37.81 45.16 37.81 53.28 45.9 53.28 45.9 51.65 40.22 51.65 40.22 49.84" fill="#fff"/><polygon points="51.4 50.11 49.72 45.16 46.41 45.16 46.41 53.28 48.62 53.28 48.62 48.07 50.29 53.28 52.49 53.28 54.17 48.06 54.17 53.28 56.38 53.28 56.38 45.16 53.07 45.16 51.4 50.11" fill="#fff"/><polygon points="56.2 45.16 56.2 46.8 59.3 46.8 59.3 53.28 61.77 53.28 61.77 46.8 64.87 46.8 64.87 45.16 56.2 45.16" fill="#fff"/></svg>