<svg xmlns="http://www.w3.org/2000/svg" viewBox="0 0 100 100"><path d="M19.6,70.65H13.88a1.82,1.82,0,0,1-1.77-1.22,10.62,10.62,0,0,1-.53-3.9V34.47a10.3,10.3,0,0,1,.55-3.93,1.8,1.8,0,0,1,1.75-1.19H20a6.77,6.77,0,0,1,2.32.36A4.06,4.06,0,0,1,24,31.12a8.93,8.93,0,0,1,1.17,2.21,15.59,15.59,0,0,1,.78,3,20.83,20.83,0,0,1,.27,3.43c0,4.13-.93,7.15-2.81,9.07q3.69,2.6,3.69,10.09a22.64,22.64,0,0,1-.8,6.24,9.28,9.28,0,0,1-2.17,4.1,5,5,0,0,1-2,1.11A9.13,9.13,0,0,1,19.6,70.65Zm-4.22-35V46.31h3.47A3.59,3.59,0,0,0,21,45.72a4,4,0,0,0,1.18-2.26,10.29,10.29,0,0,0,.32-2.65c0-2.08-.34-3.47-1-4.15a4.12,4.12,0,0,0-3.08-1Zm3.94,16.68H15.38V64.37h4.07q3.84,0,3.84-6.11a8,8,0,0,0-1-4.54A3.39,3.39,0,0,0,19.32,52.31Z"/><path d="M38.65,28.64a6.21,6.21,0,0,1,5,2.61,18.1,18.1,0,0,1,3.16,7.41,51.93,51.93,0,0,1,1.07,11.28,59.24,59.24,0,0,1-.58,8.71,29.64,29.64,0,0,1-1.76,6.79,11.82,11.82,0,0,1-2.89,4.4,5.77,5.77,0,0,1-7.85,0,12,12,0,0,1-2.9-4.41,29.78,29.78,0,0,1-1.75-6.85,58.45,58.45,0,0,1-.6-8.65,57.3,57.3,0,0,1,.62-8.74A29,29,0,0,1,32,34.39a11.44,11.44,0,0,1,2.86-4.27A5.62,5.62,0,0,1,38.65,28.64ZM44,49.89A40.77,40.77,0,0,0,43.37,42a13,13,0,0,0-1.9-5,3.48,3.48,0,0,0-2.82-1.71,3,3,0,0,0-2.1,1A7.41,7.41,0,0,0,34.89,39a21.26,21.26,0,0,0-1.1,4.61,44.42,44.42,0,0,0-.4,6.3,45.56,45.56,0,0,0,.4,6.37A22.12,22.12,0,0,0,34.92,61a8.09,8.09,0,0,0,1.69,2.8,2.93,2.93,0,0,0,2.09.93,3.4,3.4,0,0,0,2.67-1.61,12.79,12.79,0,0,0,1.94-5A40,40,0,0,0,44,49.89Z"/><path d="M57.44,64.43l-3-26.32V66.62A10,10,0,0,1,54,70.18c-.32.78-.75,1.18-1.27,1.18s-.93-.39-1.25-1.17A9.71,9.71,0,0,1,51,66.62V33.94a7.1,7.1,0,0,1,.64-3.65,2,2,0,0,1,1.72-.94h1.18a2.28,2.28,0,0,1,1.53.42,2.73,2.73,0,0,1,.71,1.52c.16.73.33,1.93.53,3.58L60,57.5l2.71-22.63c.2-1.65.37-2.85.53-3.58a2.73,2.73,0,0,1,.71-1.52,2.29,2.29,0,0,1,1.53-.42h1.18a2,2,0,0,1,1.72.94A7.1,7.1,0,0,1,69,33.94V66.62a10,10,0,0,1-.48,3.56c-.32.78-.75,1.18-1.28,1.18S66.32,71,66,70.18a10,10,0,0,1-.48-3.56V38.11l-3,26.32c-.2,1.71-.36,3-.48,3.76a7.14,7.14,0,0,1-.69,2.18,1.52,1.52,0,0,1-1.37,1,1.35,1.35,0,0,1-1.13-.64,4.86,4.86,0,0,1-.71-1.62,15.47,15.47,0,0,1-.4-2.18Q57.59,65.72,57.44,64.43Z"/><path d="M80.88,70.65H75.17a1.8,1.8,0,0,1-1.77-1.22,10.41,10.41,0,0,1-.53-3.9V34.47a10.34,10.34,0,0,1,.54-3.93,1.82,1.82,0,0,1,1.76-1.19h6.06a6.73,6.73,0,0,1,2.32.36,4,4,0,0,1,1.76,1.41,8.62,8.62,0,0,1,1.18,2.21,15.59,15.59,0,0,1,.78,3,20.86,20.86,0,0,1,.26,3.43q0,6.2-2.8,9.07,3.69,2.6,3.69,10.09a22.26,22.26,0,0,1-.81,6.24,9.18,9.18,0,0,1-2.17,4.1,5,5,0,0,1-2,1.11A9.2,9.2,0,0,1,80.88,70.65Zm-4.22-35V46.31h3.47a3.55,3.55,0,0,0,2.19-.59,4,4,0,0,0,1.18-2.26,10.29,10.29,0,0,0,.32-2.65c0-2.08-.34-3.47-1-4.15a4.11,4.11,0,0,0-3.07-1ZM80.6,52.31H76.66V64.37h4.07q3.84,0,3.84-6.11a8.06,8.06,0,0,0-1-4.54A3.42,3.42,0,0,0,80.6,52.31Z"/></svg>