<?xml version="1.0" encoding="iso-8859-1"?>
<!-- Generator: Adobe Illustrator 25.2.3, SVG Export Plug-In . SVG Version: 6.00 Build 0)  -->
<svg version="1.1" id="Layer_1" xmlns="http://www.w3.org/2000/svg" xmlns:xlink="http://www.w3.org/1999/xlink" x="0px" y="0px"
	 viewBox="0 0 100 100" style="enable-background:new 0 0 100 100;" xml:space="preserve">
<g id="Layer_2_1_">
	<g id="Layer_2-2">
		<path d="M30.73,62.925c0.024,1.799,0.283,3.579,0.764,5.296c0.481,1.718,1.184,3.373,2.096,4.924
			c1.587,2.427,3.785,4.247,6.595,5.463c2.81,1.215,6.232,1.824,10.265,1.827c1.684,0.023,3.364-0.102,5.021-0.371
			c1.656-0.269,3.289-0.683,4.879-1.239c2.87-1.037,5.022-2.483,6.455-4.34s2.148-4.123,2.145-6.8c0-2-0.303-3.715-0.91-5.145
			c-0.607-1.43-1.517-2.575-2.73-3.435c-1.213-0.86-2.787-1.653-4.722-2.38c-1.935-0.727-4.231-1.387-6.888-1.98l-4.835-1.13
			l-4.835-1.13c-3.16-0.737-5.858-1.511-8.092-2.322s-4.008-1.661-5.318-2.548c-2.27-1.533-3.972-3.449-5.108-5.748
			c-1.134-2.298-1.702-4.979-1.702-8.042c-0.1-3.071,0.459-6.09,1.599-8.871s2.863-5.323,5.091-7.439
			c2.23-2.123,4.923-3.716,8.08-4.778c3.157-1.062,6.777-1.592,10.86-1.592c3.76,0,7.237,0.466,10.432,1.398
			s6.108,2.329,8.738,4.192s4.602,4.286,5.915,7.267c1.313,2.982,1.968,6.522,1.965,10.622H71.8h-4.69
			c-0.253-1.973-0.637-3.717-1.15-5.23s-1.157-2.797-1.93-3.85c-1.46-1.923-3.428-3.366-5.905-4.327s-5.462-1.442-8.955-1.442
			c-2.823,0-5.249,0.309-7.278,0.927c-2.028,0.618-3.659,1.546-4.892,2.783c-1.19,1.125-2.12,2.472-2.752,3.946
			s-0.964,3.076-0.958,4.714c-0.096,1.634,0.282,3.222,1.042,4.599c0.761,1.377,1.904,2.543,3.338,3.331
			c0.957,0.537,2.518,1.138,4.685,1.805s4.938,1.398,8.315,2.195l5,1.18l5,1.18c2.413,0.57,4.551,1.243,6.412,2.017
			c1.862,0.775,3.448,1.653,4.758,2.632c2.27,1.72,3.972,3.83,5.108,6.33c1.135,2.5,1.702,5.39,1.702,8.67
			c0,4.08-0.724,7.579-2.173,10.498c-1.448,2.918-3.621,5.256-6.517,7.012c-3.054,1.797-6.328,3.151-9.724,4.036
			c-3.396,0.885-6.914,1.302-10.456,1.224c-4.47,0-8.455-0.583-11.955-1.75c-3.5-1.167-6.515-2.916-9.045-5.249
			c-2.53-2.333-4.414-5.077-5.653-8.232s-1.83-6.721-1.777-10.698h4.69H30.73z"/>
	</g>
</g>
</svg>
