<?xml version="1.0" encoding="iso-8859-1"?>
<!-- Generator: Adobe Illustrator 25.4.1, SVG Export Plug-In . SVG Version: 6.00 Build 0)  -->
<svg version="1.1" id="Layer_1" xmlns="http://www.w3.org/2000/svg" xmlns:xlink="http://www.w3.org/1999/xlink" x="0px" y="0px"
	 viewBox="0 0 100 100" style="enable-background:new 0 0 100 100;" xml:space="preserve">
<polygon style="opacity:0.5;fill:#FF0000;" points="29.35,27.245 34.445,22.455 39.54,17.665 44.635,12.875 49.73,8.085 
	54.967,13.005 60.205,17.925 65.443,22.845 70.68,27.765 65.58,32.772 60.48,37.78 55.38,42.787 50.28,47.795 45.048,42.658 
	39.815,37.52 34.583,32.382 "/>
<path style="opacity:0.51;fill:#FFFFFF;" d="M49.73,9.345l4.905,4.608l4.905,4.608l4.905,4.608l4.905,4.608l-4.768,4.682
	l-4.767,4.682l-4.767,4.682l-4.768,4.682l-4.908-4.812l-4.907-4.812l-4.907-4.812l-4.908-4.812l4.77-4.478l4.77-4.477l4.77-4.477
	L49.73,9.345 M49.73,6.825l-5.428,5.1l-5.427,5.1l-5.427,5.1l-5.428,5.1l5.565,5.463l5.565,5.463l5.565,5.463l5.565,5.462
	l5.43-5.333l5.43-5.333l5.43-5.333L72,27.745l-5.567-5.223L60.865,17.3l-5.568-5.222L49.73,6.855V6.847V6.84V6.832V6.825z"/>
<polygon style="opacity:0.51;fill:#FEFF00;" points="51.59,49.075 56.698,44.06 61.805,39.045 66.912,34.03 72.02,29.015 
	77.332,34.005 82.645,38.995 87.957,43.985 93.27,48.975 88.085,54.14 82.9,59.305 77.715,64.47 72.53,69.635 67.295,64.495 
	62.06,59.355 56.825,54.215 "/>
<path style="fill:#FFFFFF;" d="M72.03,30.295l4.98,4.675l4.98,4.675l4.98,4.675l4.98,4.675l-4.857,4.838l-4.857,4.837l-4.857,4.837
	l-4.857,4.838l-4.905-4.818L62.71,58.71l-4.905-4.818L52.9,49.075l4.783-4.695l4.782-4.695l4.782-4.695L72.03,30.295 M72.03,27.745
	l-5.438,5.332l-5.438,5.333l-5.438,5.333l-5.438,5.333l5.562,5.462L61.405,60l5.562,5.463l5.562,5.463l5.515-5.5l5.515-5.5
	l5.515-5.5l5.515-5.5l-5.647-5.295l-5.647-5.295l-5.647-5.295L72,27.745h0.007h0.007h0.007H72.03z"/>
<polygon style="opacity:0.5;fill:#1700FF;" points="6.73,48.505 12.05,43.505 17.37,38.505 22.69,33.505 28.01,28.505 33.25,33.647 
	38.49,38.79 43.73,43.933 48.97,49.075 43.732,54.217 38.495,59.36 33.257,64.503 28.02,69.645 22.698,64.36 17.375,59.075 
	12.052,53.79 "/>
<path style="opacity:0.51;fill:#FFFFFF;" d="M27.99,29.775l4.915,4.825l4.915,4.825l4.915,4.825l4.915,4.825l-4.905,4.82
	l-4.905,4.82l-4.905,4.82l-4.905,4.82l-4.995-4.96l-4.995-4.96l-4.995-4.96l-4.995-4.96l4.985-4.685l4.985-4.685l4.985-4.685
	L27.99,29.775 M27.99,27.225l-5.645,5.315L16.7,37.855l-5.645,5.315L5.41,48.485l5.653,5.61l5.653,5.61l5.653,5.61l5.653,5.61
	l5.565-5.463L39.15,60l5.565-5.463l5.565-5.462l-5.565-5.462L39.15,38.15l-5.565-5.463l-5.565-5.462h-0.007h-0.007h-0.007H27.99z"/>
<polygon style="opacity:0.51;fill:#FFFFFF;" points="50.28,49.075 55.842,54.537 61.405,60 66.967,65.463 72.53,70.925 
	66.967,76.467 61.405,82.01 55.842,87.553 50.28,93.095 44.715,87.553 39.15,82.01 33.585,76.467 28.02,70.925 33.585,65.463 
	39.15,60 44.715,54.537 "/>
<path style="opacity:0.51;" d="M50.28,94.855l-11.658-11.6l-11.657-11.6l-11.657-11.6L3.65,48.455l11.517-10.827L26.685,26.8
	l11.517-10.827L49.72,5.145l11.658,10.948L73.035,27.04l11.658,10.948L96.35,48.935l-11.517,11.48l-11.518,11.48l-11.518,11.48
	L50.28,94.855z M7.15,48.505l10.783,10.718L28.715,69.94l10.782,10.717L50.28,91.375l10.638-10.598L71.555,70.18l10.638-10.597
	L92.83,48.985l-10.775-10.12L71.28,28.745l-10.775-10.12L49.73,8.505l-10.645,10l-10.645,10l-10.645,10L7.15,48.505z"/>
<polygon style="opacity:0.5;" points="27.156,28.102 27.585,27.664 28.014,27.227 28.443,26.79 28.872,26.353 40.001,37.278 
	51.13,48.203 62.259,59.128 73.388,70.053 72.958,70.49 72.529,70.927 72.1,71.364 71.671,71.801 60.542,60.876 49.414,49.951 
	38.285,39.027 "/>
<polygon style="opacity:0.5;" points="27.075,69.899 38.017,59.112 48.958,48.325 59.899,37.538 70.84,26.751 71.268,27.186 
	71.697,27.62 72.126,28.055 72.555,28.49 61.614,39.277 50.673,50.064 39.731,60.851 28.79,71.638 28.361,71.203 27.933,70.768 
	27.504,70.333 "/>
<path d="M22.27,40.595h-2.25h-2.25h-2.25h-2.25v1.438v1.438v1.438v1.438h2.095h2.095h2.095h2.095v1.5v1.5v1.5v1.5h-2.108h-2.108
	h-2.108H13.22v3.3v3.3v3.3v3.3h-1.25h-1.25H9.47H8.22v-7.73v-7.73v-7.73v-7.73h3.512h3.513h3.512h3.513v1.493v1.493v1.493V40.595z"
	/>
<path d="M44.89,50.085c0,1.23-0.056,2.397-0.169,3.5s-0.281,2.145-0.506,3.123c-0.225,0.978-0.506,1.892-0.844,2.743
	s-0.731,1.639-1.181,2.364c-0.579,1.027-1.339,1.888-2.217,2.566c-0.878,0.678-1.875,1.173-2.927,1.467s-2.161,0.387-3.263,0.262
	s-2.198-0.468-3.226-1.047c-0.34-0.192-0.664-0.405-0.973-0.639c-0.308-0.234-0.6-0.489-0.873-0.762s-0.528-0.565-0.762-0.873
	c-0.234-0.308-0.448-0.633-0.639-0.973c-0.444-0.725-0.831-1.513-1.164-2.364s-0.61-1.765-0.831-2.743
	c-0.222-0.979-0.388-2.02-0.499-3.123c-0.111-1.104-0.166-2.271-0.166-3.501s0.056-2.398,0.168-3.504
	c0.112-1.106,0.28-2.15,0.505-3.131s0.505-1.901,0.841-2.758c0.336-0.858,0.728-1.653,1.176-2.387
	c0.583-1.027,1.346-1.886,2.228-2.562c0.881-0.676,1.881-1.168,2.936-1.459c1.055-0.291,2.165-0.381,3.268-0.252
	s2.199,0.477,3.226,1.06c0.335,0.19,0.657,0.403,0.961,0.635c0.305,0.232,0.593,0.484,0.863,0.754s0.522,0.558,0.754,0.863
	c0.232,0.305,0.444,0.626,0.635,0.961c0.445,0.72,0.834,1.505,1.169,2.356s0.613,1.767,0.836,2.749
	c0.223,0.982,0.391,2.029,0.504,3.141C44.832,47.663,44.889,48.841,44.89,50.085z M38.16,57.905
	c0.133-0.262,0.256-0.529,0.369-0.799c0.113-0.271,0.215-0.546,0.307-0.824s0.174-0.56,0.244-0.844
	c0.071-0.285,0.131-0.573,0.18-0.863c0.067-0.372,0.125-0.745,0.175-1.12s0.091-0.75,0.123-1.126s0.056-0.753,0.072-1.131
	c0.015-0.377,0.022-0.755,0.02-1.133c0.006-0.397,0.001-0.795-0.013-1.192c-0.014-0.397-0.039-0.793-0.073-1.188
	c-0.034-0.396-0.078-0.79-0.132-1.184c-0.054-0.393-0.118-0.786-0.192-1.176c-0.052-0.277-0.114-0.552-0.186-0.824
	c-0.072-0.272-0.154-0.541-0.246-0.807c-0.092-0.265-0.194-0.528-0.305-0.786s-0.232-0.513-0.363-0.763
	c-0.09-0.181-0.191-0.355-0.301-0.522c-0.111-0.167-0.231-0.327-0.361-0.479s-0.269-0.296-0.418-0.431
	c-0.148-0.135-0.305-0.261-0.469-0.378c-0.136-0.09-0.278-0.169-0.424-0.237c-0.146-0.069-0.297-0.127-0.451-0.174
	s-0.312-0.083-0.471-0.108c-0.16-0.025-0.321-0.039-0.484-0.041c-0.162,0-0.322,0.013-0.48,0.036
	c-0.159,0.023-0.315,0.058-0.469,0.103c-0.153,0.046-0.303,0.102-0.449,0.169c-0.146,0.067-0.287,0.145-0.422,0.232
	c-0.166,0.118-0.323,0.247-0.472,0.384c-0.149,0.137-0.289,0.283-0.42,0.436c-0.131,0.153-0.252,0.315-0.364,0.484
	s-0.213,0.344-0.304,0.526c-0.131,0.251-0.251,0.507-0.361,0.767s-0.211,0.524-0.301,0.792s-0.17,0.538-0.24,0.812
	c-0.07,0.274-0.129,0.55-0.178,0.829c-0.073,0.392-0.135,0.785-0.188,1.179s-0.097,0.79-0.132,1.186s-0.059,0.793-0.074,1.191
	c-0.015,0.398-0.02,0.796-0.016,1.194c-0.006,0.394-0.002,0.788,0.011,1.181s0.037,0.787,0.071,1.179s0.077,0.783,0.13,1.173
	s0.116,0.779,0.188,1.167c0.051,0.274,0.111,0.545,0.181,0.814s0.149,0.535,0.237,0.799c0.088,0.263,0.187,0.523,0.294,0.779
	s0.223,0.509,0.348,0.758c0.09,0.181,0.19,0.355,0.301,0.522s0.231,0.327,0.361,0.479c0.13,0.152,0.27,0.296,0.418,0.431
	s0.305,0.261,0.47,0.378c0.138,0.093,0.281,0.175,0.429,0.246c0.148,0.071,0.301,0.132,0.458,0.181s0.317,0.086,0.479,0.112
	s0.328,0.039,0.494,0.041c0.169,0,0.337-0.013,0.502-0.038c0.165-0.025,0.328-0.063,0.488-0.113c0.16-0.049,0.315-0.111,0.465-0.185
	s0.296-0.158,0.435-0.254c0.161-0.12,0.314-0.25,0.459-0.389s0.281-0.285,0.407-0.44s0.244-0.316,0.352-0.485
	C37.975,58.262,38.073,58.087,38.16,57.905z"/>
<path d="M66.92,65.525h-1.318h-1.317h-1.317H61.65l-0.342-1.562L60.965,62.4l-0.343-1.562l-0.342-1.562h-1.81h-1.81h-1.81h-1.81
	l-0.347,1.562L52.345,62.4l-0.347,1.562l-0.347,1.562h-1.272h-1.272h-1.272H46.56l1.815-7.725l1.815-7.725l1.815-7.725l1.815-7.725
	h1.458h1.458h1.458h1.458l1.818,7.725l1.817,7.725l1.817,7.725L66.92,65.525z M59.1,53.605l-0.612-2.767l-0.612-2.768l-0.612-2.768
	l-0.612-2.767l-0.597,2.767l-0.597,2.768l-0.597,2.768l-0.597,2.767h1.21h1.21h1.21H59.1z"/>
<path d="M90.36,65.525h-1.25h-1.25h-1.25h-1.25v-5.173V55.18v-5.173v-5.173l-0.928,3.355l-0.927,3.355L82.577,54.9l-0.928,3.355
	h-0.875H79.9h-0.875H78.15L77.245,54.9l-0.905-3.355l-0.905-3.355l-0.905-3.355v5.173v5.173v5.173v5.173h-1.195H72.14h-1.195H69.75
	V57.8v-7.725V42.35v-7.725h1.475H72.7h1.475h1.475l1.103,3.88l1.103,3.88l1.103,3.88l1.103,3.88l1.103-3.875l1.103-3.875
	l1.103-3.875l1.103-3.875h1.472h1.473h1.473h1.472v7.72v7.72v7.72v7.72H90.36z"/>
</svg>
