<?xml version="1.0" encoding="iso-8859-1"?>
<!-- Generator: Adobe Illustrator 25.2.3, SVG Export Plug-In . SVG Version: 6.00 Build 0)  -->
<svg version="1.1" id="Layer_1" xmlns="http://www.w3.org/2000/svg" xmlns:xlink="http://www.w3.org/1999/xlink" x="0px" y="0px"
	 viewBox="0 0 100 100" style="enable-background:new 0 0 100 100;" xml:space="preserve">
			<polygon style="fill:#FF0000;opacity:0.4;" points="29.35,27.245 39.54,17.665 49.73,8.085 60.205,17.925 70.68,27.765 60.48,37.78 
				50.28,47.795 39.815,37.52 			"/>
			<path style="fill:#FFFFFF;opacity:0.4;" d="M49.73,9.345l9.81,9.215l9.81,9.215l-9.535,9.365l-9.535,9.365l-9.815-9.625l-9.815-9.625
				l9.54-8.955L49.73,9.345 M49.73,6.825l-10.855,10.2l-10.855,10.2L39.15,38.15l11.13,10.925L61.14,38.41L72,27.745L60.865,17.3
				L49.73,6.855V6.84V6.825z"/>
			<polygon style="fill:#FEFF00;opacity:0.4;" points="51.59,49.075 61.805,39.045 72.02,29.015 82.645,38.995 93.27,48.975 82.9,59.305 
				72.53,69.635 62.06,59.355 			"/>
			<path style="fill:#FFFFFF;opacity:0.4;" d="M72.03,30.295l9.96,9.35l9.96,9.35l-9.715,9.675l-9.715,9.675l-9.81-9.635l-9.81-9.635l9.565-9.39
				L72.03,30.295 M72.03,27.745L61.155,38.41L50.28,49.075L61.405,60L72.53,70.925l11.03-11l11.03-11l-11.295-10.59L72,27.745h0.015
				H72.03z"/>
			<polygon style="fill:#1700FF;opacity:0.4;" points="6.73,48.505 17.37,38.505 28.01,28.505 38.49,38.79 48.97,49.075 38.495,59.36 
				28.02,69.645 17.375,59.075 			"/>
			<path style="fill:#FFFFFF;opacity:0.4;" d="M27.99,29.775l9.83,9.65l9.83,9.65l-9.81,9.64l-9.81,9.64l-9.99-9.92l-9.99-9.92l9.97-9.37
				L27.99,29.775 M27.99,27.225L16.7,37.855L5.41,48.485l11.305,11.22l11.305,11.22L39.15,60l11.13-10.925L39.15,38.15L28.02,27.225
				h-0.015H27.99z"/>
			<polygon style="fill:#FFFFFF;opacity:0.4;" points="50.28,49.075 61.405,60 72.53,70.925 61.405,82.01 50.28,93.095 39.15,82.01 
				28.02,70.925 39.15,60 			"/>
			<path style="opacity:0.4;" d="M50.28,94.855l-23.315-23.2L3.65,48.455L26.685,26.8L49.72,5.145L73.035,27.04L96.35,48.935l-23.035,22.96L50.28,94.855z
				 M7.15,48.505L28.715,69.94L50.28,91.375L71.555,70.18L92.83,48.985l-21.55-20.24L49.73,8.505l-21.29,20L7.15,48.505z"/>
			<polygon style="opacity:0.4;" points="27.156,28.102 28.014,27.227 28.872,26.353 51.13,48.203 73.388,70.053 72.529,70.927 71.671,71.801 
				49.414,49.951 			"/>
			<polygon style="opacity:0.4;" points="27.155,70.046 49.148,48.455 71.142,26.865 72,27.739 72.858,28.613 50.865,50.204 28.871,71.794 28.013,70.92 
							"/>
		<path d="M22.06,64.835h-1.705H18.65l-0.445-3.23l-0.445-3.23h-2.39h-2.39l-0.445,3.23l-0.445,3.23h-1.67H8.75l2.37-16l2.37-16
			h1.91h1.91l2.375,16L22.06,64.835z M16.94,52.515l-0.79-5.725l-0.79-5.725l-0.79,5.725l-0.79,5.725h1.58H16.94z"/>
		<path d="M34.9,55.045c0.008,0.696-0.019,1.392-0.081,2.084c-0.062,0.693-0.158,1.382-0.289,2.066
			c-0.095,0.521-0.227,1.034-0.394,1.535s-0.37,0.991-0.606,1.465c-0.194,0.396-0.434,0.765-0.714,1.101s-0.601,0.638-0.956,0.899
			c-0.347,0.211-0.722,0.369-1.111,0.47c-0.389,0.101-0.793,0.145-1.199,0.13h-2.82h-2.82v-16v-16h2.5h2.5
			c0.383-0.016,0.766-0.002,1.145,0.041s0.756,0.117,1.125,0.219c0.297,0.128,0.574,0.297,0.821,0.5
			c0.247,0.204,0.466,0.442,0.649,0.71c0.254,0.372,0.467,0.77,0.634,1.186c0.168,0.416,0.291,0.85,0.366,1.294
			c0.127,0.585,0.22,1.176,0.28,1.77s0.087,1.192,0.08,1.79c0.011,0.688-0.024,1.375-0.106,2.057s-0.21,1.358-0.384,2.023
			c-0.114,0.507-0.286,0.996-0.513,1.459c-0.227,0.463-0.507,0.9-0.837,1.301v0.09v0.09c0.484,0.286,0.905,0.659,1.244,1.095
			s0.597,0.935,0.756,1.475c0.271,0.83,0.469,1.681,0.591,2.543C34.883,53.3,34.93,54.172,34.9,55.045z M30.65,41.915
			c-0.002-0.267-0.016-0.533-0.043-0.799s-0.066-0.529-0.117-0.791c-0.031-0.221-0.095-0.434-0.19-0.633
			c-0.094-0.199-0.219-0.384-0.37-0.547c-0.122-0.116-0.262-0.209-0.415-0.273c-0.153-0.064-0.317-0.101-0.485-0.107
			c-0.18,0-0.398,0-0.651,0s-0.544,0-0.869,0h-0.155H27.2v3.38v3.38h0.26h0.26c0.224,0.002,0.447-0.002,0.671-0.012
			c0.223-0.01,0.447-0.026,0.669-0.048c0.167-0.015,0.328-0.061,0.475-0.133c0.148-0.073,0.282-0.173,0.395-0.297
			c0.158-0.181,0.288-0.382,0.387-0.598c0.099-0.216,0.168-0.445,0.203-0.682c0.048-0.304,0.083-0.61,0.105-0.917
			C30.646,42.531,30.655,42.223,30.65,41.915z M31.45,54.915c0.012-0.395-0.002-0.79-0.042-1.183s-0.106-0.782-0.198-1.167
			c-0.059-0.245-0.159-0.476-0.294-0.684s-0.306-0.393-0.506-0.546c-0.159-0.103-0.332-0.181-0.512-0.232
			c-0.18-0.051-0.368-0.074-0.558-0.068c-0.23,0-0.462,0-0.699,0s-0.476,0-0.721,0h-0.365H27.19v4v4h0.12h0.12h1h1
			c0.215-0.014,0.424-0.071,0.612-0.166s0.359-0.229,0.498-0.394c0.186-0.199,0.341-0.423,0.462-0.664s0.208-0.499,0.258-0.766
			c0.073-0.35,0.126-0.704,0.16-1.059c0.033-0.356,0.047-0.713,0.04-1.071h-0.005C31.455,54.915,31.45,54.915,31.45,54.915z"/>
		<path d="M47.65,54.785c0.056,1.327-0.054,2.651-0.324,3.941s-0.701,2.546-1.286,3.739c-0.533,1-1.164,1.75-1.892,2.25
			s-1.554,0.75-2.478,0.75c-0.487,0.012-0.97-0.042-1.438-0.16s-0.919-0.299-1.342-0.54c-0.415-0.249-0.81-0.526-1.185-0.83
			c-0.374-0.304-0.727-0.635-1.055-0.99v-3.83v-3.83h0.185h0.185c0.276,0.592,0.61,1.155,0.995,1.679
			c0.385,0.524,0.822,1.01,1.305,1.451c0.329,0.325,0.71,0.585,1.125,0.772c0.415,0.186,0.863,0.299,1.325,0.328
			c0.134-0.007,0.267-0.022,0.399-0.043c0.132-0.022,0.263-0.051,0.391-0.087c0.149-0.037,0.293-0.092,0.427-0.164
			c0.134-0.072,0.26-0.161,0.373-0.266c0.136-0.145,0.258-0.302,0.364-0.469c0.105-0.167,0.195-0.345,0.266-0.531
			c0.093-0.275,0.16-0.558,0.2-0.844c0.04-0.286,0.054-0.576,0.04-0.866c0.007-0.312-0.019-0.624-0.078-0.929
			s-0.15-0.604-0.272-0.891c-0.104-0.241-0.243-0.463-0.411-0.661c-0.169-0.197-0.367-0.369-0.589-0.509
			c-0.245-0.14-0.495-0.278-0.751-0.411c-0.256-0.134-0.519-0.264-0.789-0.389c-0.272-0.134-0.535-0.285-0.787-0.452
			s-0.494-0.35-0.723-0.548c-0.558-0.462-1.041-1.002-1.436-1.6c-0.394-0.598-0.7-1.255-0.904-1.95
			c-0.257-0.905-0.445-1.827-0.564-2.758s-0.168-1.871-0.146-2.812c-0.047-1.246,0.065-2.488,0.33-3.696
			c0.265-1.208,0.684-2.383,1.25-3.494c0.54-0.94,1.155-1.645,1.845-2.115c0.69-0.47,1.455-0.705,2.295-0.705
			c0.436,0.002,0.87,0.056,1.291,0.158c0.421,0.102,0.83,0.254,1.219,0.452c0.399,0.194,0.781,0.421,1.14,0.679
			c0.36,0.258,0.697,0.546,1.01,0.861v3.68v3.68h-0.18H46.8c-0.237-0.485-0.517-0.946-0.835-1.379
			c-0.318-0.433-0.674-0.839-1.065-1.211c-0.292-0.319-0.639-0.577-1.021-0.763s-0.798-0.303-1.229-0.337
			c-0.141,0.001-0.282,0.014-0.421,0.037s-0.276,0.058-0.409,0.103c-0.15,0.056-0.293,0.13-0.426,0.219s-0.255,0.193-0.364,0.311
			c-0.131,0.144-0.246,0.301-0.344,0.469s-0.176,0.346-0.236,0.531c-0.083,0.241-0.146,0.489-0.186,0.739s-0.058,0.505-0.054,0.761
			c-0.019,0.335,0.006,0.669,0.071,0.995c0.066,0.326,0.172,0.644,0.319,0.945c0.182,0.27,0.401,0.512,0.648,0.719
			s0.524,0.379,0.822,0.511l0.68,0.355l0.68,0.355c0.247,0.135,0.488,0.281,0.721,0.438s0.46,0.324,0.679,0.502
			c0.511,0.433,0.955,0.934,1.322,1.486s0.657,1.156,0.858,1.794c0.249,0.872,0.428,1.762,0.535,2.659
			C47.652,52.972,47.687,53.879,47.65,54.785z"/>
		<path d="M62.44,48.865c0,2.547-0.148,4.832-0.443,6.855c-0.295,2.023-0.737,3.785-1.327,5.285s-1.29,2.625-2.1,3.375
			c-0.81,0.75-1.73,1.125-2.76,1.125c-1.033,0-1.956-0.375-2.767-1.125c-0.812-0.75-1.513-1.875-2.103-3.375
			s-1.032-3.262-1.325-5.285s-0.438-4.308-0.435-6.855c0-2.57,0.147-4.87,0.44-6.9c0.293-2.03,0.733-3.79,1.32-5.28
			c0.59-1.5,1.29-2.62,2.101-3.365s1.734-1.115,2.769-1.115s1.955,0.375,2.764,1.122s1.506,1.868,2.096,3.358
			c0.59,1.49,1.033,3.25,1.328,5.28S62.44,46.295,62.44,48.865z M58.04,56.955c0.176-0.56,0.324-1.128,0.444-1.702
			s0.212-1.154,0.276-1.738c0.082-0.776,0.142-1.553,0.18-2.332c0.038-0.779,0.055-1.558,0.05-2.338
			c0.008-0.817-0.01-1.634-0.055-2.449c-0.045-0.815-0.117-1.629-0.215-2.441c-0.06-0.556-0.149-1.107-0.266-1.653
			s-0.262-1.085-0.434-1.617c-0.096-0.343-0.229-0.674-0.397-0.985c-0.168-0.312-0.37-0.605-0.603-0.875
			c-0.151-0.176-0.335-0.316-0.54-0.415c-0.204-0.099-0.429-0.156-0.66-0.165c-0.226,0.007-0.446,0.06-0.647,0.154
			c-0.201,0.094-0.383,0.228-0.533,0.396c-0.228,0.271-0.427,0.564-0.595,0.874c-0.168,0.31-0.303,0.637-0.405,0.976
			c-0.172,0.54-0.317,1.088-0.433,1.642s-0.206,1.114-0.267,1.678c-0.096,0.813-0.167,1.629-0.212,2.446
			c-0.045,0.817-0.064,1.636-0.058,2.454c-0.007,0.812,0.011,1.624,0.055,2.434c0.043,0.81,0.112,1.619,0.205,2.426
			c0.065,0.557,0.155,1.109,0.272,1.657c0.117,0.547,0.26,1.089,0.428,1.623c0.096,0.343,0.23,0.673,0.398,0.985
			s0.369,0.605,0.602,0.875c0.151,0.18,0.336,0.325,0.542,0.427c0.206,0.102,0.433,0.162,0.668,0.173
			c0.238-0.01,0.468-0.07,0.676-0.174s0.394-0.252,0.544-0.436c0.228-0.279,0.426-0.58,0.59-0.898
			C57.814,57.638,57.945,57.303,58.04,56.955z"/>
		<path d="M77.35,64.835h-2h-2l-1.775-5.845L69.8,53.145h-0.77h-0.77v5.845v5.845h-1.645H64.97v-16v-16h2.78h2.78
			c0.34-0.009,0.68,0.013,1.015,0.067c0.335,0.054,0.665,0.138,0.985,0.253c0.319,0.152,0.612,0.349,0.87,0.585
			c0.258,0.236,0.481,0.51,0.66,0.815c0.273,0.425,0.508,0.873,0.7,1.338c0.192,0.465,0.343,0.948,0.45,1.442
			c0.162,0.708,0.28,1.425,0.353,2.146s0.102,1.447,0.087,2.174c0.025,0.972-0.018,1.944-0.128,2.908s-0.288,1.92-0.532,2.862
			c-0.193,0.679-0.454,1.334-0.778,1.957c-0.323,0.623-0.709,1.214-1.152,1.763l2.145,6.845L77.35,64.835z M72.17,42.665
			c0.006-0.346-0.007-0.691-0.038-1.035c-0.032-0.344-0.082-0.686-0.152-1.025c-0.049-0.254-0.134-0.499-0.25-0.728
			s-0.264-0.442-0.44-0.632c-0.105-0.108-0.225-0.198-0.357-0.267s-0.274-0.118-0.423-0.143c-0.165-0.026-0.332-0.046-0.498-0.06
			s-0.334-0.02-0.502-0.02h-0.6h-0.6v4.305v4.305h0.5h0.5c0.228,0.003,0.455-0.015,0.68-0.052c0.224-0.036,0.445-0.093,0.66-0.168
			c0.202-0.082,0.384-0.202,0.537-0.351c0.153-0.15,0.277-0.329,0.363-0.529c0.12-0.231,0.222-0.471,0.305-0.716
			c0.084-0.246,0.149-0.498,0.195-0.754c0.054-0.352,0.091-0.707,0.111-1.062C72.181,43.377,72.184,43.021,72.17,42.665z"/>
		<path d="M89.79,55.045c0.008,0.696-0.019,1.392-0.081,2.084c-0.062,0.693-0.158,1.382-0.289,2.066
			c-0.093,0.522-0.223,1.035-0.39,1.537c-0.167,0.501-0.371,0.99-0.61,1.463c-0.194,0.396-0.434,0.765-0.714,1.101
			s-0.601,0.638-0.956,0.899c-0.347,0.211-0.722,0.369-1.111,0.47c-0.389,0.101-0.793,0.145-1.199,0.13h-2.82H78.8v-16v-16h2.5h2.5
			c0.383-0.016,0.766-0.002,1.145,0.041s0.756,0.117,1.125,0.219c0.285,0.12,0.551,0.278,0.792,0.468s0.455,0.413,0.638,0.662
			c0.27,0.369,0.498,0.764,0.681,1.18s0.32,0.852,0.409,1.3c0.127,0.585,0.22,1.176,0.28,1.77c0.06,0.594,0.087,1.192,0.08,1.79
			c0.011,0.688-0.024,1.375-0.106,2.057s-0.21,1.358-0.384,2.023c-0.115,0.523-0.293,1.028-0.528,1.505
			c-0.235,0.477-0.527,0.925-0.872,1.335v0.09v0.09c0.484,0.286,0.905,0.659,1.244,1.095c0.339,0.436,0.597,0.935,0.756,1.475
			c0.271,0.83,0.469,1.681,0.591,2.543C89.773,53.3,89.82,54.172,89.79,55.045z M85.55,41.915c-0.002-0.267-0.016-0.533-0.043-0.799
			s-0.066-0.529-0.117-0.791c-0.032-0.221-0.098-0.435-0.194-0.634c-0.096-0.199-0.223-0.383-0.376-0.546
			c-0.122-0.116-0.262-0.209-0.415-0.273s-0.317-0.101-0.485-0.107c-0.18,0-0.395,0-0.647,0s-0.542,0-0.872,0h-0.155H82.09v3.38
			v3.38h0.28h0.28c0.224,0.002,0.447-0.002,0.671-0.012c0.223-0.01,0.447-0.026,0.669-0.048c0.167-0.015,0.328-0.061,0.475-0.133
			c0.148-0.073,0.282-0.173,0.395-0.297c0.158-0.181,0.288-0.382,0.387-0.598s0.168-0.445,0.203-0.682
			c0.043-0.305,0.073-0.611,0.09-0.918S85.56,42.223,85.55,41.915z M86.35,54.915c0.012-0.395-0.002-0.79-0.042-1.183
			s-0.106-0.782-0.198-1.167c-0.057-0.246-0.156-0.478-0.291-0.686s-0.307-0.393-0.509-0.544c-0.159-0.103-0.332-0.181-0.512-0.232
			s-0.368-0.074-0.558-0.068c-0.225,0-0.457,0-0.695,0s-0.48,0-0.725,0h-0.365H82.09v4v4h0.125h0.125h1h1
			c0.217-0.014,0.426-0.072,0.616-0.167c0.19-0.095,0.362-0.228,0.504-0.393c0.182-0.201,0.335-0.425,0.454-0.666
			s0.206-0.498,0.256-0.764c0.07-0.351,0.119-0.704,0.149-1.06C86.35,55.629,86.36,55.272,86.35,54.915z"/>
</svg>
