<?xml version="1.0" encoding="iso-8859-1"?>
<!-- Generator: Adobe Illustrator 25.4.1, SVG Export Plug-In . SVG Version: 6.00 Build 0)  -->
<svg version="1.1" id="Layer_1" xmlns="http://www.w3.org/2000/svg" xmlns:xlink="http://www.w3.org/1999/xlink" x="0px" y="0px"
	 viewBox="0 0 100 100" style="enable-background:new 0 0 100 100;" xml:space="preserve">
<polygon style="fill:#FFFFFF;" points="0,0 50,0 100,0 100,50 100,100 50,100 0,100 0,50 "/>
<polygon style="fill:#008CF0;" points="99.09,99.25 99.09,50.08 99.09,0.91 49.92,50.08 0.75,99.25 49.92,99.25 "/>
<polygon style="fill:#000096;" points="0.289,98.796 49.461,49.624 98.633,0.451 99.093,0.911 99.552,1.371 50.38,50.543 
	1.208,99.715 0.748,99.255 "/>
<path d="M4.43,72.85l5.63-25l5.63-25h4.57h4.57l5.63,25l5.63,25h-4.31h-4.31l-1.04-5.105l-1.04-5.105h-5.24h-5.24l-1.04,5.105
	l-1.04,5.105h-4.2H4.43z M23.55,53.57l-1.7-8.24l-1.7-8.24l-1.7,8.24l-1.7,8.24h3.4H23.55z"/>
<path style="fill:#FFFFFF;" d="M36.58,73.24h-4.715H27.15l-1.04-5.12L25.07,63h-4.92h-4.92l-1.04,5.12l-1.04,5.12H8.545H3.94
	l5.72-25.39l5.72-25.39h4.88h4.88l5.72,25.39L36.58,73.24z M27.79,72.46h3.905H35.6l-5.54-24.61l-5.54-24.61h-4.26H16l-5.54,24.61
	L4.92,72.46h3.795h3.795l1.04-5.105l1.04-5.105h5.56h5.56l1.04,5.105L27.79,72.46z M24,54h-3.865H16.27l1.94-9.4l1.94-9.4l1.925,9.4
	L24,54z M17.19,53.22h2.925h2.925l-1.445-7.11L20.15,39l-1.48,7.11L17.19,53.22z"/>
<path d="M54.22,73.82c-2.363,0-4.48-0.568-6.35-1.705S44.377,69.273,43,67c-1.377-2.273-2.416-5.002-3.118-8.185
	S38.817,51.993,38.79,47.9c0-3.967,0.348-7.533,1.045-10.7c0.697-3.167,1.742-5.933,3.135-8.3s3.029-4.138,4.908-5.315
	s3.999-1.758,6.362-1.745c0.569-0.006,1.138,0.019,1.704,0.074s1.129,0.141,1.686,0.256c0.493,0.112,0.981,0.247,1.462,0.404
	c0.481,0.157,0.954,0.336,1.418,0.536c0.408,0.198,0.808,0.413,1.198,0.643c0.39,0.23,0.771,0.476,1.142,0.737
	c0.425,0.29,0.81,0.56,1.154,0.811c0.344,0.251,0.646,0.484,0.906,0.699v6v6h-0.405H64.1c-0.19-0.27-0.405-0.565-0.645-0.886
	c-0.24-0.321-0.505-0.669-0.795-1.044c-0.307-0.39-0.627-0.769-0.961-1.136c-0.334-0.367-0.68-0.722-1.039-1.064
	c-0.357-0.361-0.736-0.699-1.135-1.011c-0.399-0.312-0.818-0.599-1.255-0.859c-0.419-0.246-0.866-0.434-1.33-0.562
	c-0.464-0.128-0.945-0.195-1.43-0.198c-0.553-0.004-1.101,0.068-1.629,0.213c-0.528,0.145-1.037,0.362-1.511,0.647
	c-0.567,0.384-1.083,0.833-1.54,1.337s-0.853,1.062-1.18,1.663c-0.459,0.804-0.853,1.643-1.177,2.507
	c-0.324,0.864-0.58,1.755-0.763,2.663c-0.26,1.26-0.45,2.532-0.568,3.81c-0.119,1.279-0.166,2.564-0.142,3.85
	c-0.025,1.317,0.028,2.634,0.158,3.943c0.13,1.309,0.338,2.61,0.622,3.897c0.199,0.904,0.473,1.789,0.817,2.646
	c0.345,0.856,0.76,1.684,1.243,2.474c0.337,0.56,0.741,1.074,1.201,1.53s0.977,0.857,1.539,1.19
	c0.456,0.266,0.942,0.472,1.446,0.613c0.504,0.141,1.026,0.218,1.554,0.227c0.528,0.001,1.051-0.069,1.555-0.207
	c0.505-0.138,0.991-0.343,1.445-0.613c0.438-0.25,0.858-0.528,1.257-0.834c0.399-0.306,0.778-0.638,1.133-0.996
	c0.336-0.328,0.659-0.668,0.97-1.02s0.607-0.715,0.89-1.09c0.27-0.36,0.52-0.7,0.753-1.02c0.232-0.32,0.447-0.62,0.647-0.9h0.36
	h0.36v5.875v5.875c-0.29,0.215-0.603,0.445-0.936,0.689c-0.334,0.244-0.689,0.501-1.064,0.771c-0.37,0.269-0.751,0.52-1.143,0.754
	c-0.392,0.234-0.795,0.449-1.207,0.646c-0.446,0.217-0.9,0.415-1.362,0.594c-0.462,0.178-0.932,0.337-1.408,0.476
	c-0.59,0.143-1.189,0.246-1.792,0.308C55.435,73.82,54.827,73.84,54.22,73.82z"/>
<path style="fill:#FFFFFF;" d="M54.22,74.21c-2.425,0-4.612-0.588-6.549-1.756c-1.936-1.169-3.621-2.919-5.041-5.244
	s-2.478-5.09-3.18-8.305c-0.702-3.215-1.05-6.88-1.05-11.005c0-4,0.357-7.6,1.065-10.794c0.708-3.194,1.765-5.981,3.165-8.356
	s3.09-4.19,5.036-5.411c1.946-1.221,4.149-1.849,6.574-1.849c0.583-0.007,1.165,0.018,1.744,0.075
	c0.579,0.057,1.155,0.145,1.726,0.265c0.507,0.117,1.008,0.26,1.5,0.427c0.492,0.167,0.976,0.358,1.45,0.573
	c0.423,0.2,0.836,0.418,1.24,0.653c0.404,0.235,0.797,0.488,1.18,0.757c0.435,0.3,0.823,0.575,1.166,0.829s0.644,0.486,0.904,0.701
	l0.075,0.055L65.3,25.88v6.25v6.25h-0.7h-0.7l-0.055-0.08l-0.055-0.08c-0.19-0.27-0.405-0.565-0.644-0.885S62.645,36.67,62.36,36.3
	c-0.297-0.383-0.608-0.754-0.931-1.115s-0.66-0.709-1.009-1.045c-0.351-0.344-0.723-0.664-1.113-0.96
	c-0.391-0.296-0.8-0.566-1.227-0.81c-0.858-0.488-1.816-0.723-2.769-0.706s-1.901,0.287-2.741,0.806
	c-0.532,0.362-1.018,0.783-1.449,1.255C50.69,34.196,50.313,34.718,50,35.28c-0.444,0.779-0.826,1.59-1.142,2.426
	c-0.316,0.836-0.566,1.697-0.748,2.574c-0.264,1.249-0.457,2.511-0.581,3.779c-0.124,1.269-0.177,2.544-0.159,3.821
	c-0.024,1.302,0.029,2.604,0.157,3.898s0.333,2.58,0.613,3.852c0.193,0.883,0.459,1.746,0.793,2.583
	c0.334,0.836,0.738,1.645,1.207,2.417c0.322,0.532,0.707,1.021,1.145,1.456s0.93,0.816,1.465,1.134
	c0.863,0.52,1.834,0.781,2.805,0.781s1.942-0.26,2.805-0.781c0.424-0.238,0.831-0.505,1.217-0.799s0.751-0.615,1.093-0.961
	c0.33-0.324,0.647-0.66,0.953-1.007c0.305-0.347,0.598-0.705,0.877-1.073c0.265-0.355,0.515-0.692,0.748-1.01
	c0.232-0.318,0.447-0.615,0.642-0.89l0.06-0.085l0.06-0.085h0.645H65.3v6.205v6.205l-0.08,0.06l-0.08,0.06l-1,0.73l-1,0.73
	c-0.379,0.273-0.769,0.528-1.169,0.767c-0.4,0.239-0.811,0.46-1.231,0.663c-0.457,0.222-0.924,0.425-1.397,0.609
	c-0.474,0.183-0.955,0.347-1.443,0.491c-0.602,0.144-1.213,0.248-1.827,0.311S54.839,74.228,54.22,74.21z M54.22,22.27
	c-2.28,0-4.338,0.577-6.162,1.725c-1.825,1.147-3.418,2.865-4.768,5.145s-2.378,5.015-3.068,8.158S39.18,43.99,39.18,47.9
	c0,4.05,0.345,7.667,1.031,10.829c0.686,3.161,1.714,5.866,3.079,8.091s2.958,3.877,4.779,4.974
	c1.821,1.096,3.871,1.636,6.151,1.636c0.58,0.017,1.16-0.005,1.736-0.063s1.149-0.154,1.714-0.287
	c0.464-0.13,0.923-0.279,1.375-0.446c0.452-0.167,0.897-0.352,1.335-0.554c0.401-0.192,0.793-0.402,1.175-0.629
	c0.382-0.227,0.754-0.471,1.115-0.731l0.925-0.67l0.925-0.67v-5.61v-5.61h-0.065H64.39c-0.185,0.26-0.385,0.538-0.6,0.831
	c-0.215,0.294-0.445,0.604-0.69,0.929c-0.287,0.385-0.589,0.758-0.906,1.118s-0.648,0.708-0.994,1.042
	c-0.364,0.377-0.754,0.727-1.167,1.048S59.185,63.74,58.73,64c-0.983,0.586-2.086,0.879-3.19,0.879c-1.104,0-2.207-0.293-3.19-0.879
	c-0.588-0.352-1.129-0.772-1.613-1.25c-0.484-0.478-0.909-1.015-1.267-1.6c-0.494-0.809-0.92-1.656-1.273-2.532
	c-0.353-0.876-0.633-1.782-0.837-2.708c-0.286-1.303-0.495-2.621-0.626-3.947c-0.132-1.326-0.187-2.659-0.164-3.993
	c-0.017-1.305,0.038-2.609,0.165-3.906c0.127-1.297,0.325-2.587,0.595-3.864c0.189-0.93,0.452-1.841,0.787-2.726
	c0.334-0.885,0.74-1.742,1.213-2.564c0.344-0.624,0.76-1.201,1.238-1.722s1.019-0.984,1.612-1.378
	c0.962-0.59,2.046-0.896,3.135-0.915s2.183,0.249,3.165,0.805c0.457,0.254,0.897,0.537,1.318,0.846
	c0.421,0.309,0.822,0.644,1.202,1.004c0.359,0.35,0.705,0.712,1.039,1.085S62.693,35.394,63,35.79
	c0.265,0.34,0.515,0.658,0.741,0.954s0.429,0.571,0.599,0.826h0.105h0.105V31.9v-5.67c-0.245-0.195-0.522-0.407-0.836-0.638
	c-0.314-0.23-0.664-0.477-1.054-0.742c-0.362-0.255-0.734-0.495-1.116-0.719c-0.382-0.224-0.774-0.431-1.174-0.621
	c-0.451-0.198-0.911-0.374-1.378-0.528c-0.467-0.154-0.942-0.285-1.422-0.392c-0.548-0.112-1.101-0.195-1.656-0.249
	s-1.114-0.077-1.674-0.071h-0.01H54.22z"/>
<path d="M95.81,38.63c0.005,1.118-0.053,2.235-0.173,3.345c-0.12,1.11-0.303,2.213-0.547,3.305
	c-0.193,0.932-0.466,1.844-0.816,2.726c-0.35,0.882-0.776,1.733-1.274,2.544c-0.266,0.435-0.551,0.857-0.855,1.266
	C91.841,52.225,91.519,52.62,91.18,53c-0.32,0.356-0.663,0.69-1.027,0.999c-0.364,0.309-0.749,0.593-1.153,0.851
	c-0.406,0.262-0.83,0.495-1.267,0.697c-0.438,0.202-0.89,0.374-1.353,0.513c-0.513,0.152-1.035,0.265-1.563,0.339
	s-1.062,0.108-1.597,0.101h-2.155H78.91v8.175v8.175h-4.095H70.72v-25v-25h6.325h6.325c0.831-0.02,1.66,0.037,2.476,0.17
	s1.621,0.34,2.404,0.62c0.709,0.273,1.384,0.624,2.013,1.043c0.629,0.419,1.212,0.907,1.737,1.457
	c0.664,0.711,1.24,1.494,1.718,2.333s0.859,1.734,1.132,2.667c0.352,1.216,0.609,2.456,0.769,3.708S95.844,37.364,95.81,38.63z
	 M87.4,38.93c0.017-0.622-0.03-1.243-0.139-1.853c-0.109-0.61-0.28-1.209-0.511-1.787c-0.152-0.421-0.365-0.815-0.632-1.169
	c-0.266-0.354-0.585-0.668-0.948-0.931c-0.322-0.23-0.669-0.422-1.033-0.571C83.773,32.469,83.391,32.362,83,32.3
	c-0.479-0.046-0.958-0.078-1.438-0.098s-0.961-0.027-1.442-0.022h-0.605H78.91v7.5v7.5h0.285h0.285c0.383,0,0.757,0,1.123,0
	c0.365,0,0.721,0,1.067,0c0.302-0.007,0.603-0.031,0.902-0.071c0.299-0.04,0.595-0.096,0.888-0.169
	c0.248-0.069,0.49-0.159,0.722-0.267c0.232-0.109,0.456-0.237,0.668-0.383c0.229-0.148,0.441-0.319,0.634-0.51
	c0.193-0.191,0.366-0.402,0.516-0.63c0.269-0.392,0.499-0.808,0.688-1.241c0.189-0.434,0.337-0.885,0.442-1.349
	c0.108-0.599,0.185-1.202,0.23-1.808C87.405,40.146,87.418,39.538,87.4,38.93z"/>
<path style="fill:#FFFFFF;" d="M79.3,73.24h-4.5h-4.5V47.85V22.46h6.5h6.5c0.851-0.018,1.7,0.042,2.537,0.178
	c0.837,0.136,1.661,0.347,2.463,0.632c0.728,0.289,1.421,0.655,2.066,1.091s1.244,0.942,1.784,1.509
	c0.697,0.726,1.304,1.528,1.813,2.389c0.508,0.861,0.918,1.78,1.217,2.741c0.36,1.232,0.624,2.488,0.791,3.757
	s0.237,2.55,0.209,3.833c0.006,1.133-0.053,2.266-0.175,3.391c-0.122,1.125-0.307,2.243-0.555,3.349
	c-0.199,0.952-0.479,1.884-0.835,2.786c-0.356,0.902-0.789,1.773-1.295,2.604c-0.275,0.438-0.569,0.864-0.881,1.276
	c-0.312,0.412-0.642,0.811-0.989,1.194c-0.334,0.383-0.692,0.742-1.073,1.076c-0.381,0.334-0.784,0.643-1.207,0.924
	c-0.894,0.574-1.863,1.01-2.874,1.298s-2.064,0.429-3.126,0.412h-1.935H79.3v8.17V73.24z M71.11,72.46h3.705h3.705v-8.175V56.11
	h2.34h2.34c0.507,0.002,1.014-0.033,1.515-0.103c0.501-0.07,0.998-0.176,1.485-0.317c0.896-0.278,1.745-0.677,2.526-1.182
	s1.493-1.115,2.114-1.818c0.331-0.369,0.646-0.752,0.945-1.147c0.299-0.395,0.581-0.803,0.845-1.223
	c0.479-0.795,0.887-1.627,1.222-2.489c0.335-0.862,0.595-1.752,0.778-2.661c0.24-1.077,0.42-2.165,0.538-3.26
	c0.119-1.095,0.176-2.197,0.172-3.3c0.021-1.243-0.053-2.485-0.22-3.713s-0.428-2.444-0.78-3.637
	c-0.266-0.907-0.635-1.778-1.098-2.595s-1.02-1.581-1.662-2.275c-0.489-0.514-1.03-0.975-1.611-1.375
	c-0.581-0.4-1.204-0.741-1.859-1.015c-0.761-0.268-1.543-0.466-2.336-0.594c-0.793-0.127-1.598-0.183-2.404-0.166h-6.13h-6.13v24.61
	V72.46z M79.48,47.55h-0.5h-0.5v-7.88v-7.88h0.775h0.775c0.487-0.006,0.975,0.001,1.462,0.021c0.487,0.02,0.973,0.053,1.458,0.099
	c0.434,0.069,0.857,0.189,1.26,0.356c0.403,0.168,0.786,0.384,1.14,0.644c0.394,0.284,0.74,0.624,1.03,1.006s0.523,0.808,0.69,1.264
	c0.239,0.603,0.416,1.226,0.53,1.861s0.165,1.281,0.15,1.929c0.014,0.622-0.005,1.244-0.055,1.863
	c-0.05,0.619-0.132,1.236-0.245,1.847c-0.112,0.486-0.268,0.959-0.465,1.414c-0.197,0.455-0.437,0.892-0.715,1.306
	c-0.163,0.241-0.35,0.463-0.558,0.665c-0.208,0.201-0.436,0.381-0.682,0.535c-0.229,0.161-0.472,0.301-0.724,0.42
	c-0.253,0.119-0.515,0.216-0.786,0.29c-0.308,0.074-0.62,0.132-0.933,0.174c-0.314,0.042-0.63,0.067-0.947,0.076
	c-0.32-0.01-0.665-0.013-1.028-0.013S79.87,47.55,79.48,47.55z M79.3,46.77h0.09h0.09c0.385,0,0.757,0,1.119,0
	c0.361,0,0.711,0,1.051,0c0.288-0.005,0.576-0.027,0.862-0.065c0.285-0.038,0.569-0.093,0.848-0.165
	c0.229-0.063,0.451-0.145,0.666-0.245c0.214-0.1,0.42-0.219,0.614-0.355c0.2-0.13,0.385-0.28,0.553-0.447s0.318-0.353,0.447-0.553
	c0.254-0.371,0.473-0.765,0.654-1.175c0.181-0.41,0.324-0.837,0.426-1.275c0.107-0.587,0.185-1.179,0.231-1.773
	c0.047-0.594,0.063-1.191,0.049-1.787c0.014-0.595-0.031-1.188-0.135-1.771s-0.266-1.155-0.485-1.709
	c-0.13-0.382-0.316-0.741-0.548-1.066C85.599,34.058,85.32,33.767,85,33.52c-0.305-0.219-0.634-0.4-0.98-0.539
	s-0.708-0.237-1.08-0.291c-0.47-0.044-0.942-0.075-1.414-0.093c-0.472-0.018-0.944-0.024-1.416-0.017h-0.405H79.3v7.095V46.77z"/>
</svg>
