<svg xmlns="http://www.w3.org/2000/svg" viewBox="0 0 100 100"><polygon points="91.32 38.77 79.26 19.78 62.5 29.23 62.5 9.53 38.39 9.53 38.39 29.73 20.74 19.78 8.68 38.77 27.13 49.18 8.68 59.58 20.74 78.57 38.39 68.62 38.39 90.47 62.5 90.47 62.5 69.12 79.26 78.57 91.32 59.58 72.87 49.18 91.32 38.77" fill="#1a1a1a"/><path d="M25.9,66.51,32.09,33h5L43.3,66.51H38.56l-1.14-6.84H31.66l-1.14,6.84Zm10.51-12.9-1.87-11-1.87,11Z" fill="#fff"/><path d="M57.35,66.51H45.5V33H50V60.12h7.39Z" fill="#fff"/><path d="M65.46,67.12a8.09,8.09,0,0,1-3.58-.75A13.94,13.94,0,0,1,59,64.53v-8h.41a11.19,11.19,0,0,0,2.94,3.28A5.33,5.33,0,0,0,65.48,61a4.12,4.12,0,0,0,1-.16,2.35,2.35,0,0,0,1-.49,3.11,3.11,0,0,0,.79-1.07,4.38,4.38,0,0,0,.32-1.81,3.59,3.59,0,0,0-.53-2,3.15,3.15,0,0,0-1.24-1.15c-.61-.3-1.25-.58-1.94-.85a10.88,10.88,0,0,1-1.92-1A7.71,7.71,0,0,1,60,48.75a16.37,16.37,0,0,1-.89-5.8,12.65,12.65,0,0,1,2.11-7.61,6.27,6.27,0,0,1,5.25-2.91,8.52,8.52,0,0,1,3.15.61,9.92,9.92,0,0,1,2.8,1.64v7.64h-.39a10.25,10.25,0,0,0-2.41-2.7,4.75,4.75,0,0,0-2.92-1.1,3.13,3.13,0,0,0-1,.16,2.86,2.86,0,0,0-1,.61A2.82,2.82,0,0,0,64,40.35a4.06,4.06,0,0,0-.31,1.59,3.65,3.65,0,0,0,.49,2A4,4,0,0,0,66,45.33c.59.26,1.16.51,1.72.74a11.08,11.08,0,0,1,1.76,1,7.57,7.57,0,0,1,2.74,3.39,14.55,14.55,0,0,1,.9,5.61,14,14,0,0,1-2.07,8A6.49,6.49,0,0,1,65.46,67.12Z" fill="#fff"/></svg>