<?xml version="1.0" encoding="iso-8859-1"?>
<!-- Generator: Adobe Illustrator 25.2.3, SVG Export Plug-In . SVG Version: 6.00 Build 0)  -->
<svg version="1.1" id="Layer_1" xmlns="http://www.w3.org/2000/svg" xmlns:xlink="http://www.w3.org/1999/xlink" x="0px" y="0px"
	 viewBox="0 0 100 100" style="enable-background:new 0 0 100 100;" xml:space="preserve">
<g id="Layer_2_1_">
	<g id="Layer_2-2">
		<polygon points="84.965,28.095 78.435,21.565 71.905,15.035 60.955,25.99 50.005,36.945 39.05,25.99 28.095,15.035 21.565,21.565 
			15.035,28.095 25.99,39.05 36.945,50.005 25.99,60.955 15.035,71.905 21.565,78.435 28.095,84.965 39.05,74.01 50.005,63.055 
			60.955,74.01 71.905,84.965 78.435,78.435 84.965,71.905 74.01,60.955 63.055,50.005 74.01,39.05 		"/>
		<path style="fill:#FFFFFF;" d="M58.035,60.735H50.41h-7.625V50.19V39.645h7.625h7.625v2.04v2.04h-4.92h-4.92v1.82v1.82h4.565
			h4.565v2.04v2.04H52.76h-4.565v2.605v2.605h4.92h4.92v2.04V60.735z"/>
	</g>
</g>
</svg>
