<?xml version="1.0" encoding="iso-8859-1"?>
<!-- Generator: Adobe Illustrator 25.4.1, SVG Export Plug-In . SVG Version: 6.00 Build 0)  -->
<svg version="1.1" id="Layer_1" xmlns="http://www.w3.org/2000/svg" xmlns:xlink="http://www.w3.org/1999/xlink" x="0px" y="0px"
	 viewBox="0 0 100 100" style="enable-background:new 0 0 100 100;" xml:space="preserve">
<path style="fill:#3D7AF6;" d="M78.19,62.77c0.012,0.74-0.019,1.478-0.094,2.21c-0.075,0.732-0.193,1.458-0.355,2.175
	c-0.161,0.717-0.365,1.424-0.61,2.118c-0.245,0.694-0.533,1.374-0.861,2.037c-0.314,0.616-0.663,1.211-1.044,1.783
	c-0.381,0.572-0.795,1.121-1.238,1.645c-0.444,0.523-0.918,1.021-1.42,1.491c-0.502,0.47-1.032,0.911-1.588,1.322
	c-0.641,0.481-1.303,0.93-1.985,1.345s-1.382,0.798-2.1,1.147s-1.452,0.662-2.2,0.941s-1.511,0.521-2.285,0.727
	c-0.969,0.227-1.944,0.424-2.924,0.589c-0.98,0.166-1.964,0.3-2.952,0.404s-1.979,0.176-2.972,0.217
	c-0.993,0.041-1.987,0.051-2.982,0.03h-6.795H36.99h-6.795H23.4c-0.22-0.001-0.429-0.047-0.62-0.129
	c-0.19-0.082-0.361-0.199-0.505-0.343s-0.26-0.316-0.34-0.507c-0.08-0.191-0.125-0.401-0.125-0.621V65.673V49.995V34.317V18.64
	c0-0.219,0.045-0.429,0.125-0.619s0.197-0.361,0.341-0.505s0.315-0.26,0.505-0.341c0.19-0.081,0.399-0.125,0.619-0.125l0,0l0,0l0,0
	l0,0h6h6h6h6c0.972-0.017,1.945-0.02,2.918-0.007s1.944,0.042,2.915,0.087s1.942,0.104,2.911,0.179
	c0.97,0.075,1.938,0.165,2.906,0.271c0.638,0.097,1.27,0.219,1.896,0.366s1.246,0.319,1.858,0.515s1.216,0.417,1.811,0.662
	c0.595,0.245,1.18,0.514,1.755,0.807c0.584,0.277,1.144,0.596,1.676,0.954c0.532,0.358,1.036,0.754,1.508,1.186
	s0.912,0.898,1.316,1.396c0.404,0.498,0.772,1.027,1.1,1.584c0.312,0.557,0.587,1.133,0.822,1.724
	c0.235,0.59,0.43,1.195,0.584,1.809s0.269,1.239,0.341,1.87s0.104,1.268,0.092,1.907c0.014,0.751-0.031,1.498-0.132,2.236
	c-0.101,0.737-0.259,1.464-0.471,2.175c-0.213,0.711-0.48,1.406-0.8,2.078c-0.32,0.672-0.693,1.321-1.117,1.941
	c-0.449,0.632-0.94,1.229-1.469,1.788s-1.095,1.08-1.695,1.559s-1.233,0.916-1.896,1.308s-1.354,0.738-2.07,1.035v0.087v0.088v0.088
	v0.087c0.973,0.16,1.927,0.397,2.854,0.705c0.927,0.308,1.827,0.689,2.692,1.137c0.865,0.448,1.695,0.964,2.481,1.543
	c0.787,0.579,1.53,1.222,2.223,1.925c0.63,0.674,1.181,1.4,1.654,2.18c0.472,0.78,0.866,1.612,1.181,2.498s0.551,1.825,0.709,2.817
	C78.111,60.627,78.19,61.672,78.19,62.77z M56.42,35.68c-0.004-0.285-0.024-0.568-0.061-0.849c-0.037-0.281-0.089-0.56-0.158-0.834
	c-0.069-0.274-0.154-0.545-0.254-0.81c-0.1-0.265-0.216-0.524-0.347-0.777c-0.153-0.29-0.334-0.561-0.537-0.812
	c-0.203-0.251-0.43-0.482-0.676-0.689s-0.512-0.391-0.794-0.548s-0.581-0.289-0.893-0.391c-0.373-0.129-0.75-0.242-1.13-0.339
	c-0.381-0.097-0.765-0.177-1.153-0.241c-0.387-0.065-0.777-0.112-1.169-0.144c-0.392-0.032-0.785-0.047-1.178-0.046
	c-0.46-0.014-0.967-0.025-1.52-0.035c-0.553-0.009-1.153-0.017-1.8-0.022c-0.646-0.006-1.34-0.01-2.08-0.012
	c-0.74-0.002-1.527-0.002-2.36,0l0,0l0,0l0,0l0,0c-0.22,0-0.429,0.045-0.619,0.125s-0.362,0.197-0.505,0.341
	c-0.144,0.144-0.26,0.315-0.341,0.505c-0.08,0.19-0.125,0.399-0.125,0.619l0,0l0,0l0,0l0,0v2.69v2.69v2.69v2.69
	c0.003,0.217,0.049,0.424,0.13,0.612c0.082,0.188,0.199,0.357,0.343,0.499c0.144,0.142,0.314,0.256,0.503,0.335
	c0.189,0.079,0.396,0.123,0.614,0.123h0.265h0.265h0.265h0.265c0.673,0,1.321,0,1.945-0.002s1.223-0.006,1.796-0.014
	s1.12-0.02,1.64-0.039c0.52-0.018,1.014-0.043,1.479-0.075c0.383-0.001,0.765-0.021,1.145-0.058c0.38-0.037,0.757-0.092,1.131-0.165
	c0.374-0.073,0.745-0.163,1.111-0.271c0.366-0.108,0.728-0.233,1.083-0.376c0.324-0.116,0.635-0.262,0.928-0.434
	c0.293-0.173,0.568-0.372,0.822-0.595s0.488-0.47,0.698-0.738s0.395-0.557,0.552-0.863c0.124-0.296,0.232-0.597,0.325-0.903
	c0.092-0.306,0.169-0.616,0.229-0.93c0.061-0.313,0.105-0.629,0.133-0.948C56.414,36.321,56.425,36.001,56.42,35.68z M60.53,62.5
	c0.026-0.425,0.019-0.851-0.02-1.271s-0.109-0.838-0.211-1.247s-0.235-0.81-0.399-1.2c-0.164-0.39-0.357-0.768-0.58-1.132
	c-0.263-0.321-0.551-0.619-0.861-0.889c-0.31-0.27-0.641-0.514-0.99-0.729s-0.716-0.4-1.097-0.555
	c-0.381-0.155-0.776-0.278-1.182-0.367c-0.448-0.11-0.899-0.205-1.353-0.285c-0.454-0.081-0.91-0.147-1.367-0.199
	c-0.458-0.052-0.917-0.089-1.377-0.112c-0.46-0.023-0.921-0.031-1.383-0.024c-0.58,0-1.167,0-1.76,0s-1.193,0-1.8,0s-1.22,0-1.84,0
	c-0.62,0-1.247,0-1.88,0H41.9h-0.53h-0.53h-0.53c-0.216,0-0.423,0.043-0.612,0.122c-0.189,0.079-0.359,0.192-0.502,0.333
	s-0.26,0.309-0.343,0.496c-0.082,0.187-0.129,0.393-0.133,0.609v3.702v3.702v3.702v3.702h0.308h0.307h0.307h0.308
	c1.194,0,2.302,0,3.326,0c1.024,0,1.962,0,2.816,0s1.624,0,2.308,0s1.285,0,1.8,0c0.489-0.002,0.977-0.028,1.462-0.077
	c0.485-0.049,0.967-0.122,1.444-0.218c0.478-0.096,0.95-0.216,1.416-0.358c0.466-0.142,0.926-0.308,1.378-0.496
	c0.379-0.133,0.743-0.299,1.089-0.492c0.347-0.194,0.676-0.416,0.984-0.665s0.595-0.523,0.857-0.821
	c0.262-0.298,0.5-0.62,0.71-0.962c0.171-0.329,0.32-0.668,0.448-1.014s0.233-0.699,0.317-1.058c0.083-0.359,0.144-0.723,0.182-1.09
	S60.539,62.871,60.53,62.5z"/>
</svg>
