<?xml version="1.0" encoding="iso-8859-1"?>
<!-- Generator: Adobe Illustrator 25.2.3, SVG Export Plug-In . SVG Version: 6.00 Build 0)  -->
<svg version="1.1" id="Layer_1" xmlns="http://www.w3.org/2000/svg" xmlns:xlink="http://www.w3.org/1999/xlink" x="0px" y="0px"
	 viewBox="0 0 100 100" style="enable-background:new 0 0 100 100;" xml:space="preserve">
<g id="Layer_2_1_">
	<g id="Layer_2-2">
		<polygon points="84.965,28.095 78.435,21.565 71.905,15.035 60.955,25.99 50.005,36.945 39.05,25.99 28.095,15.035 21.565,21.565 
			15.035,28.095 25.99,39.05 36.945,50.005 25.99,60.955 15.035,71.905 21.565,78.435 28.095,84.965 39.05,74.01 50.005,63.055 
			60.955,74.01 71.905,84.965 78.435,78.435 84.965,71.905 74.01,60.955 63.055,50.005 74.01,39.05 		"/>
		<path style="fill:#FFFFFF;" d="M51.725,61.145c-0.738,0.007-1.474-0.048-2.2-0.165s-1.442-0.296-2.14-0.535
			c-0.637-0.217-1.247-0.501-1.821-0.847c-0.573-0.345-1.11-0.752-1.599-1.213c-0.491-0.483-0.925-1.017-1.296-1.592
			c-0.371-0.575-0.678-1.191-0.914-1.838c-0.277-0.759-0.482-1.54-0.615-2.333c-0.132-0.793-0.191-1.599-0.175-2.407
			c-0.01-0.775,0.048-1.547,0.174-2.308s0.318-1.512,0.576-2.242c0.236-0.654,0.539-1.279,0.904-1.866
			c0.365-0.587,0.793-1.135,1.276-1.634c0.484-0.475,1.017-0.894,1.589-1.251s1.182-0.652,1.821-0.879
			c0.71-0.262,1.442-0.458,2.185-0.587c0.743-0.129,1.498-0.19,2.255-0.183c0.401-0.002,0.802,0.009,1.203,0.034
			c0.4,0.025,0.8,0.064,1.197,0.116c0.337,0.045,0.672,0.1,1.006,0.165c0.334,0.065,0.665,0.14,0.994,0.225
			c0.293,0.081,0.583,0.171,0.87,0.271s0.57,0.21,0.85,0.329c0.26,0.11,0.51,0.217,0.74,0.321c0.23,0.104,0.44,0.204,0.62,0.299
			v2.555v2.555H58.91h-0.315c-0.13-0.115-0.28-0.237-0.447-0.37c-0.167-0.133-0.353-0.275-0.553-0.43
			c-0.217-0.168-0.439-0.328-0.665-0.482c-0.227-0.153-0.458-0.3-0.695-0.438c-0.269-0.154-0.545-0.294-0.827-0.421
			c-0.282-0.127-0.57-0.24-0.863-0.339c-0.312-0.106-0.632-0.185-0.957-0.237c-0.324-0.052-0.653-0.076-0.983-0.073
			c-0.371-0.002-0.741,0.028-1.105,0.088s-0.724,0.151-1.075,0.272c-0.357,0.129-0.698,0.295-1.018,0.494s-0.619,0.432-0.892,0.696
			c-0.307,0.301-0.578,0.634-0.809,0.993s-0.423,0.743-0.571,1.147c-0.187,0.516-0.324,1.047-0.411,1.586
			c-0.087,0.539-0.124,1.086-0.109,1.634c-0.016,0.565,0.024,1.128,0.118,1.682c0.094,0.554,0.242,1.099,0.442,1.628
			c0.155,0.396,0.352,0.773,0.589,1.123c0.236,0.35,0.512,0.675,0.821,0.967c0.276,0.252,0.578,0.473,0.9,0.659
			s0.664,0.338,1.02,0.451c0.34,0.108,0.687,0.189,1.038,0.244c0.351,0.055,0.706,0.084,1.062,0.086
			c0.339,0.002,0.677-0.023,1.012-0.073c0.334-0.05,0.665-0.126,0.988-0.227c0.315-0.091,0.624-0.204,0.923-0.338
			c0.299-0.134,0.589-0.288,0.867-0.462c0.226-0.129,0.446-0.266,0.661-0.411s0.425-0.298,0.629-0.459
			c0.2-0.155,0.38-0.3,0.545-0.435s0.315-0.26,0.455-0.375h0.285h0.285v2.5v2.5l-0.79,0.36l-0.79,0.36
			c-0.246,0.106-0.494,0.205-0.746,0.295c-0.252,0.09-0.507,0.172-0.764,0.245c-0.328,0.095-0.66,0.181-0.993,0.256
			s-0.669,0.14-1.007,0.194c-0.404,0.054-0.81,0.091-1.217,0.111C52.54,61.156,52.133,61.159,51.725,61.145z"/>
	</g>
</g>
</svg>
