<svg xmlns="http://www.w3.org/2000/svg" xmlns:xlink="http://www.w3.org/1999/xlink" viewBox="0 0 100 100"><defs><clipPath id="a"><path d="M28.79,78.45a17.71,17.71,0,0,1-.94-4.9,18.73,18.73,0,0,1,.94-5H69.63V64.41c0-.53.12-2,1.37-2h3v16Z" fill="none"/></clipPath></defs><polygon points="45.41 22.59 14.77 22.59 14.77 28.68 26.19 28.68 26.19 62.44 34.12 62.44 34.12 28.68 45.41 28.68 45.41 22.59"/><polygon points="83.43 22.59 75.29 22.59 66.64 36.15 57.99 22.59 49.85 22.59 62.59 42.49 49.85 62.44 57.92 62.44 66.64 48.82 75.36 62.44 83.43 62.44 70.69 42.49 83.43 22.59"/><ellipse cx="22.34" cy="72.17" rx="4.5" ry="6.67" fill="gray"/><path d="M28.79,78.45a17.71,17.71,0,0,1-.94-4.9,18.73,18.73,0,0,1,.94-5H69.63V64.41c0-.53.12-2,1.37-2h3v16Z" fill="gray"/><g clip-path="url(#a)"><path d="M47.07,78.77l-.08-.3s5.87-1.73,5.87-4.68-6.41-5.41-6.47-5.43l.11-.3c.28.1,6.68,2.55,6.68,5.73S47.32,78.7,47.07,78.77Z" fill="#fff"/></g><rect x="19.71" y="80.01" width="59.43" height="4.73" fill="#b3b3b3"/></svg>