<?xml version="1.0" encoding="iso-8859-1"?>
<!-- Generator: Adobe Illustrator 25.2.3, SVG Export Plug-In . SVG Version: 6.00 Build 0)  -->
<svg version="1.1" id="Layer_1" xmlns="http://www.w3.org/2000/svg" xmlns:xlink="http://www.w3.org/1999/xlink" x="0px" y="0px"
	 viewBox="0 0 100 100" style="enable-background:new 0 0 100 100;" xml:space="preserve">
<g id="Layer_2_1_">
	<g id="Layer_2-2">
		<polygon style="fill:#FFFFFF;" points="0,0 50,0 100,0 100,50 100,100 50,100 0,100 0,50 		"/>
		<polygon style="fill:#008CF0;" points="99.09,99.25 99.09,50.08 99.09,0.91 49.92,50.08 0.75,99.25 49.92,99.25 		"/>
		<polygon style="fill:#000096;" points="0.289,98.796 49.461,49.624 98.633,0.451 99.093,0.911 99.552,1.371 50.38,50.543 
			1.208,99.715 0.748,99.255 		"/>
		<path style="fill:#000096;" d="M98.31,1.69V50v48.31H50H1.69V50V1.69H50H98.31 M100,0H50H0v50v50h50h50V50V0z"/>
		<polygon points="24.58,74.41 24.58,60.185 24.58,45.96 23.22,54.21 21.86,62.46 19.685,62.46 17.51,62.46 16.15,54.21 
			14.79,45.96 14.79,60.185 14.79,74.41 11.9,74.41 9.01,74.41 9.01,48.485 9.01,22.56 12.415,22.56 15.82,22.56 17.825,34.1 
			19.83,45.64 21.825,34.1 23.82,22.56 27.225,22.56 30.63,22.56 30.63,48.485 30.63,74.41 27.605,74.41 		"/>
		<path style="fill:#FFFFFF;" d="M30.13,23.06v25.425V73.91h-2.525H25.08v-17v-17l-1.82,11.045L21.44,62h-1.75h-1.75l-1.825-11.05
			L14.29,39.9v17.005V73.91H11.9H9.51V48.485V23.06h2.945H15.4l2.215,12.755L19.83,48.57l2.205-12.755L24.24,23.06h2.945H30.13
			 M31.13,22.06h-3.865H23.4l-0.075,0.415L23.25,22.89l-1.71,9.91l-1.71,9.91l-1.72-9.91l-1.72-9.91l-0.075-0.415L16.24,22.06
			h-3.865H8.51v26.425V74.91h3.39h3.39V63.485V52.06l0.855,5.03L17,62.12l0.07,0.42l0.07,0.42h2.6h2.6l0.065-0.42l0.065-0.42
			l0.83-5.03l0.83-5.03v11.425V74.91h3.525h3.525V48.485V22.06h-0.025H31.13z"/>
		<path d="M47.65,74.41l-0.685-5.14l-0.685-5.14h-3.2h-3.2l-0.685,5.14l-0.685,5.14h-3.065H32.38l3.705-25.925L39.79,22.56h3.355
			H46.5l3.705,25.925L53.91,74.41h-3.13H47.65z M44.93,53.81l-0.925-6.96l-0.925-6.96l-0.925,6.96l-0.925,6.96l1.85,0H44.93z"/>
		<path style="fill:#FFFFFF;" d="M46.06,23.06l3.635,25.425L53.33,73.91h-2.62h-2.62l-0.685-5.14l-0.685-5.14h-3.64h-3.64
			l-0.685,5.14l-0.685,5.14h-2.535H33l3.635-25.425L40.27,23.06h2.915H46.1 M40.7,54.31h2.4h2.4l-1.21-9.11l-1.21-9.11l-1.21,9.11
			l-1.21,9.11 M46.93,22.06h-3.785H39.36l-0.06,0.43l-0.06,0.43l-3.62,25.425L32,73.77l-0.08,0.57l-0.08,0.57h3.58H39l0.055-0.43
			l0.055-0.43l0.63-4.71l0.63-4.71h2.765H45.9l0.625,4.71l0.625,4.71l0.06,0.43l0.06,0.43h3.63h3.63l-0.08-0.57l-0.08-0.57
			l-3.66-25.425L47.05,22.92c0,0-0.03-0.215-0.06-0.43C46.96,22.275,46.93,22.06,46.93,22.06z M41.8,53.31l0.64-4.815l0.64-4.815
			l0.64,4.815l0.64,4.815h-1.28H41.8z"/>
		<path d="M65.05,75.4c-0.818-0.009-1.619-0.174-2.363-0.48c-0.743-0.306-1.429-0.751-2.017-1.32
			c-0.741-0.725-1.396-1.53-1.952-2.397c-0.557-0.867-1.016-1.797-1.368-2.773c-0.511-1.351-0.943-2.73-1.294-4.129
			c-0.351-1.399-0.62-2.818-0.806-4.251c-0.262-1.907-0.455-3.822-0.579-5.742c-0.123-1.92-0.177-3.844-0.161-5.768
			c-0.009-1.839,0.045-3.678,0.161-5.512c0.117-1.834,0.296-3.665,0.539-5.488c0.191-1.456,0.46-2.9,0.806-4.326
			c0.345-1.425,0.767-2.832,1.264-4.214c0.346-1.01,0.8-1.977,1.351-2.884s1.201-1.754,1.939-2.526
			c0.584-0.621,1.28-1.112,2.044-1.452s1.594-0.529,2.446-0.548c0.41-0.006,0.819,0.024,1.222,0.089
			c0.403,0.065,0.801,0.166,1.188,0.301c0.355,0.12,0.7,0.264,1.034,0.432s0.657,0.357,0.966,0.568
			c0.308,0.224,0.604,0.465,0.886,0.72c0.282,0.255,0.551,0.526,0.804,0.81c0.245,0.275,0.475,0.538,0.689,0.789
			c0.214,0.251,0.411,0.491,0.591,0.721l0.055,0.07l0.055,0.07v6.5v6.5h-0.7h-0.7L71.075,39L71,38.84
			c-0.123-0.27-0.262-0.565-0.418-0.885c-0.155-0.32-0.326-0.665-0.512-1.035c-0.184-0.372-0.38-0.739-0.587-1.099
			c-0.207-0.36-0.425-0.714-0.653-1.061c-0.214-0.324-0.447-0.634-0.7-0.928S67.608,33.26,67.32,33
			c-0.2-0.192-0.431-0.343-0.682-0.448c-0.251-0.105-0.521-0.164-0.798-0.172c-0.32,0.013-0.631,0.085-0.919,0.211
			c-0.288,0.125-0.554,0.304-0.781,0.529c-0.368,0.386-0.692,0.81-0.969,1.262c-0.277,0.453-0.505,0.934-0.681,1.438
			c-0.298,0.808-0.55,1.631-0.755,2.466s-0.364,1.681-0.475,2.534c-0.174,1.276-0.301,2.557-0.381,3.841
			c-0.08,1.284-0.113,2.571-0.099,3.859c-0.017,1.321,0.017,2.642,0.102,3.96c0.085,1.318,0.221,2.632,0.408,3.94
			c0.12,0.842,0.288,1.676,0.503,2.497s0.478,1.63,0.787,2.423c0.173,0.474,0.4,0.925,0.677,1.343
			c0.277,0.418,0.603,0.803,0.973,1.147c0.225,0.206,0.483,0.371,0.76,0.487s0.575,0.186,0.88,0.203
			c0.275,0.001,0.547-0.044,0.804-0.132C66.931,64.3,67.173,64.17,67.39,64c0.32-0.259,0.616-0.545,0.886-0.855
			S68.787,62.503,69,62.15c0.216-0.331,0.421-0.669,0.616-1.012c0.195-0.343,0.38-0.693,0.554-1.048
			c0.185-0.37,0.353-0.715,0.504-1.035c0.151-0.32,0.286-0.615,0.406-0.885l0.065-0.15l0.065-0.15h0.675h0.675v6.425v6.425
			l-0.06,0.07l-0.06,0.07c-0.245,0.285-0.495,0.562-0.736,0.831c-0.241,0.269-0.474,0.529-0.684,0.779
			c-0.223,0.254-0.46,0.496-0.708,0.725s-0.51,0.444-0.782,0.645c-0.302,0.23-0.616,0.443-0.941,0.636S67.926,74.845,67.58,75
			c-0.403,0.155-0.82,0.267-1.244,0.334C65.912,75.401,65.481,75.423,65.05,75.4z"/>
		<path style="fill:#FFFFFF;" d="M65.06,22.07c0.381-0.006,0.761,0.022,1.136,0.082c0.375,0.06,0.744,0.153,1.104,0.278
			c0.327,0.114,0.646,0.25,0.955,0.405c0.309,0.155,0.608,0.331,0.895,0.525c0.291,0.215,0.57,0.445,0.837,0.689
			c0.267,0.244,0.522,0.501,0.763,0.771c0.24,0.265,0.465,0.515,0.675,0.759c0.21,0.244,0.405,0.481,0.585,0.721v6.165v6.165h-0.29
			h-0.29c-0.12-0.27-0.257-0.568-0.412-0.891c-0.155-0.324-0.328-0.674-0.518-1.049c-0.191-0.378-0.392-0.751-0.604-1.118
			c-0.212-0.367-0.434-0.728-0.666-1.082c-0.222-0.34-0.466-0.664-0.73-0.972c-0.264-0.307-0.548-0.597-0.85-0.868
			c-0.243-0.235-0.527-0.42-0.834-0.547c-0.307-0.127-0.638-0.197-0.976-0.203c-0.376,0.014-0.743,0.099-1.082,0.247
			s-0.651,0.358-0.918,0.623c-0.407,0.408-0.767,0.858-1.076,1.341c-0.308,0.483-0.565,0.999-0.764,1.539
			c-0.306,0.832-0.565,1.68-0.775,2.539c-0.21,0.86-0.372,1.731-0.485,2.611c-0.174,1.287-0.302,2.58-0.382,3.876
			c-0.08,1.296-0.113,2.595-0.098,3.894c-0.019,1.338,0.015,2.676,0.102,4.01c0.087,1.334,0.226,2.665,0.418,3.99
			c0.122,0.856,0.294,1.704,0.514,2.538c0.22,0.835,0.489,1.657,0.806,2.462c0.188,0.511,0.436,0.996,0.736,1.446
			c0.3,0.45,0.654,0.864,1.054,1.234c0.276,0.246,0.592,0.44,0.93,0.575c0.338,0.135,0.7,0.212,1.07,0.225
			c0.338-0.01,0.668-0.079,0.978-0.201c0.31-0.122,0.598-0.297,0.852-0.519c0.331-0.272,0.638-0.571,0.918-0.893
			c0.279-0.323,0.531-0.67,0.752-1.037c0.221-0.339,0.431-0.685,0.632-1.037c0.2-0.352,0.39-0.71,0.568-1.073
			c0.185-0.375,0.355-0.722,0.507-1.045c0.153-0.323,0.287-0.62,0.403-0.895h0.25H72v6.09v6.09
			c-0.245,0.285-0.495,0.562-0.735,0.831c-0.24,0.269-0.47,0.529-0.675,0.779c-0.212,0.238-0.437,0.466-0.672,0.681
			c-0.235,0.215-0.482,0.419-0.738,0.609c-0.281,0.215-0.574,0.414-0.876,0.598s-0.614,0.351-0.934,0.502
			c-1.1,0.397-2.264,0.47-3.368,0.245C62.899,74.55,61.856,74.026,61,73.23c-0.713-0.703-1.342-1.481-1.877-2.32
			c-0.535-0.839-0.976-1.737-1.313-2.68c-0.503-1.327-0.928-2.681-1.273-4.055S55.925,61.407,55.74,60
			c-0.262-1.898-0.455-3.805-0.579-5.717c-0.123-1.911-0.177-3.827-0.161-5.743c-0.013-1.839,0.038-3.678,0.155-5.512
			c0.117-1.834,0.298-3.665,0.545-5.488c0.179-1.437,0.436-2.862,0.77-4.27s0.744-2.796,1.23-4.16
			c0.335-0.976,0.774-1.91,1.307-2.787c0.533-0.877,1.161-1.696,1.873-2.443c0.538-0.572,1.181-1.024,1.885-1.337
			c0.704-0.313,1.47-0.487,2.255-0.503 M65.02,21.04c-0.916,0.015-1.81,0.214-2.633,0.575c-0.823,0.36-1.575,0.883-2.207,1.545
			c-0.763,0.798-1.436,1.673-2.008,2.61c-0.572,0.937-1.042,1.936-1.402,2.98c-0.506,1.399-0.934,2.824-1.282,4.268
			s-0.619,2.907-0.808,4.382c-0.243,1.846-0.422,3.7-0.535,5.558c-0.113,1.858-0.162,3.72-0.145,5.582
			c-0.016,1.936,0.038,3.872,0.161,5.803c0.123,1.931,0.316,3.858,0.579,5.777c0.191,1.453,0.466,2.892,0.821,4.311
			c0.356,1.419,0.792,2.818,1.309,4.189c0.368,1.015,0.848,1.982,1.428,2.884c0.58,0.902,1.261,1.74,2.032,2.496
			c0.635,0.61,1.375,1.087,2.176,1.415c0.801,0.328,1.663,0.505,2.544,0.515c0.466,0.019,0.931-0.011,1.389-0.088
			c0.457-0.077,0.907-0.201,1.341-0.372c0.354-0.164,0.698-0.346,1.032-0.546s0.657-0.418,0.968-0.654
			c0.285-0.211,0.558-0.438,0.819-0.678c0.26-0.24,0.508-0.495,0.741-0.762c0.23-0.25,0.463-0.5,0.7-0.764
			c0.238-0.264,0.48-0.541,0.73-0.846l0.115-0.16L73,70.9v-6.765V57.37h-1.085H70.83l-0.13,0.3l-0.13,0.3
			c-0.115,0.26-0.245,0.545-0.393,0.86s-0.312,0.66-0.497,1.04c-0.172,0.344-0.353,0.684-0.545,1.017
			c-0.192,0.333-0.393,0.661-0.605,0.983c-0.19,0.324-0.408,0.629-0.65,0.914c-0.243,0.284-0.51,0.548-0.8,0.786
			c-0.168,0.149-0.358,0.267-0.563,0.352c-0.205,0.085-0.423,0.135-0.647,0.148c-0.248-0.019-0.489-0.08-0.714-0.178
			c-0.225-0.098-0.433-0.233-0.616-0.402c-0.342-0.317-0.645-0.671-0.903-1.055S63.164,61.636,63,61.2
			c-0.304-0.776-0.56-1.568-0.769-2.373s-0.369-1.622-0.481-2.447c-0.187-1.293-0.324-2.592-0.409-3.895
			c-0.085-1.303-0.119-2.609-0.101-3.915c-0.006-1.266,0.034-2.532,0.119-3.794S61.574,42.254,61.75,41
			c0.114-0.854,0.275-1.701,0.484-2.535C62.443,37.63,62.698,36.807,63,36c0.165-0.467,0.378-0.914,0.635-1.334
			c0.256-0.421,0.556-0.815,0.895-1.176c0.179-0.185,0.39-0.333,0.621-0.436c0.231-0.104,0.481-0.163,0.739-0.174
			c0.216,0.009,0.427,0.058,0.622,0.143s0.374,0.205,0.528,0.357c0.259,0.24,0.502,0.496,0.727,0.766
			c0.225,0.271,0.434,0.556,0.623,0.854c0.223,0.338,0.437,0.682,0.64,1.032c0.203,0.35,0.397,0.706,0.58,1.068
			c0.18,0.365,0.348,0.708,0.5,1.025c0.152,0.317,0.29,0.61,0.41,0.875l0.135,0.295l0.135,0.295h1.105H73v-6.795V26l-0.105-0.135
			L72.79,25.73c-0.185-0.23-0.388-0.48-0.606-0.739c-0.219-0.259-0.454-0.526-0.704-0.791c-0.264-0.294-0.542-0.575-0.834-0.84
			s-0.598-0.516-0.916-0.75c-0.325-0.225-0.664-0.428-1.015-0.609s-0.713-0.338-1.085-0.471c-0.415-0.141-0.841-0.246-1.273-0.314
			c-0.432-0.069-0.869-0.101-1.307-0.096l-0.015-0.04L65.02,21.04z"/>
		<path d="M84.63,75.4c-0.818-0.009-1.619-0.174-2.363-0.48c-0.743-0.306-1.429-0.751-2.017-1.32
			c-0.741-0.725-1.396-1.53-1.952-2.397c-0.557-0.867-1.016-1.797-1.368-2.773c-0.511-1.351-0.943-2.73-1.294-4.129
			c-0.351-1.399-0.62-2.818-0.806-4.251c-0.262-1.907-0.455-3.822-0.578-5.742s-0.177-3.844-0.162-5.768
			c-0.009-1.839,0.044-3.678,0.161-5.512c0.117-1.834,0.296-3.665,0.539-5.488c0.19-1.456,0.459-2.9,0.804-4.326
			c0.346-1.425,0.768-2.832,1.266-4.214c0.346-1.01,0.8-1.977,1.351-2.884s1.201-1.754,1.939-2.526
			c0.584-0.621,1.28-1.112,2.044-1.452c0.764-0.34,1.594-0.529,2.446-0.548c0.41-0.006,0.819,0.024,1.222,0.089
			c0.403,0.065,0.801,0.166,1.188,0.301c0.354,0.122,0.699,0.268,1.033,0.435s0.657,0.356,0.967,0.565
			c0.308,0.224,0.604,0.465,0.886,0.72c0.282,0.255,0.551,0.526,0.804,0.81c0.245,0.275,0.475,0.538,0.69,0.789
			c0.215,0.251,0.415,0.491,0.6,0.721l0.05,0.07l0.05,0.07v6.5v6.5h-0.7h-0.7l-0.065-0.145L90.6,38.87
			c-0.123-0.27-0.263-0.565-0.418-0.885s-0.326-0.665-0.512-1.035c-0.186-0.372-0.382-0.738-0.589-1.098
			c-0.207-0.36-0.424-0.714-0.651-1.062c-0.216-0.33-0.452-0.645-0.708-0.944S87.192,33.264,86.9,33
			c-0.2-0.192-0.431-0.343-0.682-0.448c-0.251-0.105-0.521-0.164-0.798-0.172c-0.32,0.013-0.631,0.085-0.919,0.211
			c-0.288,0.125-0.554,0.304-0.781,0.529c-0.368,0.386-0.692,0.81-0.969,1.262c-0.277,0.453-0.505,0.934-0.681,1.438
			c-0.297,0.808-0.549,1.631-0.754,2.466c-0.205,0.835-0.364,1.681-0.476,2.534c-0.174,1.276-0.301,2.557-0.381,3.841
			c-0.08,1.284-0.113,2.571-0.099,3.859c-0.019,1.321,0.016,2.643,0.102,3.96c0.087,1.318,0.226,2.632,0.418,3.94
			c0.112,0.843,0.275,1.678,0.489,2.499c0.214,0.822,0.478,1.63,0.791,2.421c0.175,0.473,0.403,0.923,0.68,1.341
			c0.277,0.418,0.602,0.804,0.97,1.149c0.225,0.206,0.483,0.371,0.76,0.487s0.575,0.186,0.88,0.203
			c0.28,0.003,0.557-0.041,0.819-0.129C86.531,64.303,86.778,64.171,87,64c0.308-0.257,0.594-0.538,0.855-0.841
			c0.261-0.303,0.497-0.627,0.705-0.969c0.216-0.331,0.421-0.669,0.616-1.012c0.195-0.343,0.38-0.693,0.554-1.048
			c0.185-0.37,0.353-0.715,0.504-1.035c0.151-0.32,0.286-0.615,0.406-0.885l0.065-0.15l0.065-0.15h0.675h0.675v6.405v6.405
			l-0.06,0.07L92,70.86c-0.245,0.285-0.495,0.562-0.736,0.831c-0.241,0.269-0.474,0.529-0.684,0.779
			c-0.223,0.254-0.46,0.496-0.708,0.725s-0.51,0.444-0.782,0.645c-0.298,0.23-0.61,0.442-0.932,0.635
			c-0.322,0.194-0.655,0.369-0.998,0.525c-0.403,0.155-0.82,0.267-1.244,0.334C85.492,75.401,85.061,75.423,84.63,75.4z"/>
		<path style="fill:#FFFFFF;" d="M84.64,22.07c0.381-0.006,0.761,0.022,1.136,0.082c0.375,0.06,0.744,0.153,1.104,0.278
			c0.327,0.114,0.646,0.25,0.955,0.405c0.309,0.155,0.608,0.331,0.895,0.525c0.291,0.215,0.57,0.445,0.837,0.689
			c0.267,0.244,0.522,0.501,0.763,0.771c0.24,0.265,0.465,0.515,0.675,0.759c0.21,0.244,0.405,0.481,0.585,0.721v6.165v6.165h-0.295
			H91c-0.125-0.27-0.265-0.568-0.42-0.891s-0.325-0.674-0.51-1.049c-0.19-0.38-0.392-0.753-0.606-1.12
			c-0.213-0.367-0.438-0.727-0.674-1.08c-0.219-0.341-0.461-0.666-0.723-0.973c-0.262-0.307-0.545-0.597-0.847-0.867
			c-0.244-0.234-0.527-0.418-0.834-0.546c-0.307-0.127-0.638-0.198-0.976-0.204c-0.376,0.014-0.743,0.099-1.082,0.247
			s-0.651,0.358-0.918,0.623c-0.4,0.408-0.752,0.858-1.05,1.341c-0.299,0.483-0.544,0.999-0.73,1.539
			c-0.31,0.831-0.572,1.678-0.784,2.538c-0.212,0.86-0.374,1.732-0.486,2.612c-0.174,1.287-0.302,2.58-0.382,3.876
			c-0.08,1.296-0.113,2.595-0.098,3.894c-0.019,1.338,0.015,2.676,0.102,4.01c0.087,1.334,0.226,2.665,0.418,3.99
			c0.122,0.856,0.294,1.704,0.514,2.538c0.22,0.835,0.489,1.657,0.806,2.462c0.188,0.511,0.436,0.996,0.736,1.446
			s0.654,0.864,1.054,1.234c0.276,0.246,0.592,0.44,0.93,0.575c0.338,0.135,0.7,0.212,1.07,0.225
			c0.337-0.011,0.667-0.081,0.977-0.202c0.31-0.122,0.598-0.296,0.853-0.518c0.329-0.269,0.633-0.565,0.911-0.884
			c0.278-0.319,0.528-0.662,0.749-1.026c0.221-0.339,0.431-0.685,0.632-1.037c0.2-0.352,0.39-0.71,0.568-1.073
			c0.185-0.375,0.355-0.722,0.507-1.045c0.153-0.323,0.287-0.62,0.403-0.895h0.265h0.265v6.08v6.08
			c-0.245,0.285-0.495,0.562-0.735,0.831c-0.24,0.269-0.47,0.529-0.675,0.779c-0.213,0.24-0.439,0.468-0.676,0.683
			c-0.237,0.215-0.485,0.418-0.744,0.607c-0.279,0.216-0.569,0.416-0.87,0.6c-0.3,0.184-0.611,0.351-0.93,0.5
			c-1.101,0.399-2.268,0.473-3.373,0.248c-1.105-0.225-2.15-0.75-3.007-1.548c-0.713-0.703-1.342-1.481-1.877-2.32
			c-0.535-0.839-0.976-1.737-1.313-2.68c-0.511-1.326-0.945-2.68-1.299-4.053S75.513,61.408,75.32,60
			c-0.26-1.895-0.451-3.799-0.573-5.707c-0.122-1.908-0.174-3.82-0.157-5.733c-0.013-1.839,0.038-3.678,0.155-5.512
			s0.298-3.665,0.545-5.488c0.179-1.437,0.436-2.862,0.77-4.27s0.744-2.796,1.23-4.16c0.335-0.976,0.774-1.91,1.307-2.787
			c0.533-0.877,1.161-1.696,1.873-2.443c0.538-0.572,1.181-1.024,1.885-1.337c0.704-0.313,1.47-0.487,2.255-0.503 M84.61,21.06
			c-0.916,0.015-1.81,0.214-2.633,0.575s-1.575,0.883-2.207,1.545c-0.763,0.798-1.436,1.673-2.008,2.61
			c-0.572,0.937-1.042,1.936-1.402,2.98c-0.503,1.4-0.93,2.825-1.279,4.268s-0.62,2.906-0.811,4.382
			c-0.247,1.841-0.43,3.69-0.549,5.543c-0.118,1.853-0.172,3.71-0.161,5.567c-0.016,1.936,0.038,3.872,0.162,5.803
			c0.123,1.931,0.316,3.858,0.578,5.777c0.192,1.453,0.467,2.892,0.822,4.311c0.356,1.419,0.792,2.818,1.308,4.189
			c0.371,1.017,0.853,1.987,1.437,2.891c0.584,0.904,1.268,1.743,2.043,2.499c0.635,0.61,1.375,1.087,2.176,1.415
			c0.801,0.328,1.663,0.505,2.544,0.515c0.466,0.019,0.931-0.011,1.389-0.088c0.457-0.077,0.907-0.201,1.341-0.372
			c0.354-0.163,0.699-0.345,1.033-0.545c0.334-0.2,0.657-0.419,0.967-0.655c0.285-0.211,0.558-0.438,0.819-0.678
			c0.26-0.24,0.508-0.495,0.741-0.762c0.23-0.25,0.463-0.5,0.7-0.764c0.238-0.264,0.48-0.541,0.73-0.846l0.12-0.14l0.12-0.14v-6.785
			V57.37H91.5h-1.09l-0.13,0.3l-0.13,0.3c-0.12,0.27-0.255,0.565-0.404,0.882s-0.311,0.658-0.486,1.018
			c-0.172,0.343-0.353,0.682-0.543,1.015c-0.19,0.333-0.389,0.662-0.597,0.985c-0.193,0.323-0.413,0.628-0.658,0.912
			c-0.244,0.284-0.513,0.548-0.802,0.788c-0.168,0.149-0.358,0.267-0.563,0.352c-0.205,0.085-0.423,0.135-0.647,0.148
			c-0.248-0.019-0.489-0.08-0.714-0.178c-0.225-0.098-0.433-0.233-0.616-0.402c-0.335-0.319-0.631-0.674-0.882-1.058
			s-0.459-0.797-0.618-1.232c-0.303-0.774-0.559-1.565-0.768-2.368s-0.37-1.619-0.482-2.442c-0.187-1.295-0.324-2.596-0.409-3.9
			c-0.085-1.304-0.119-2.612-0.101-3.92c-0.012-1.266,0.021-2.531,0.099-3.793c0.078-1.262,0.202-2.522,0.371-3.777
			c0.104-0.853,0.257-1.7,0.458-2.534S82.236,36.808,82.53,36c0.164-0.469,0.377-0.918,0.633-1.34
			c0.256-0.422,0.557-0.818,0.897-1.18c0.179-0.185,0.39-0.333,0.621-0.436c0.231-0.104,0.481-0.163,0.739-0.174
			c0.216,0.009,0.427,0.058,0.622,0.143s0.374,0.205,0.528,0.357c0.273,0.239,0.53,0.495,0.769,0.768
			C87.578,34.41,87.799,34.698,88,35c0.221,0.338,0.433,0.683,0.635,1.033c0.202,0.35,0.394,0.706,0.575,1.067
			c0.185,0.37,0.355,0.715,0.509,1.034c0.154,0.319,0.291,0.611,0.411,0.876l0.135,0.29l0.135,0.29h1.11h1.11v-6.795V26
			l-0.105-0.135L92.41,25.73c-0.185-0.23-0.388-0.48-0.605-0.739c-0.217-0.259-0.45-0.526-0.695-0.791
			c-0.265-0.294-0.545-0.575-0.839-0.84c-0.294-0.265-0.601-0.516-0.921-0.75c-0.326-0.223-0.666-0.425-1.016-0.606
			c-0.351-0.18-0.713-0.339-1.084-0.474c-0.415-0.141-0.841-0.246-1.273-0.314c-0.432-0.069-0.869-0.101-1.307-0.096l-0.03-0.03
			L84.61,21.06z"/>
	</g>
</g>
</svg>
