<?xml version="1.0" encoding="iso-8859-1"?>
<!-- Generator: Adobe Illustrator 25.4.1, SVG Export Plug-In . SVG Version: 6.00 Build 0)  -->
<svg version="1.1" id="Layer_1" xmlns="http://www.w3.org/2000/svg" xmlns:xlink="http://www.w3.org/1999/xlink" x="0px" y="0px"
	 viewBox="0 0 100 100" style="enable-background:new 0 0 100 100;" xml:space="preserve">
<polygon style="fill:#FFFFFF;" points="0,0 50,0 100,0 100,50 100,100 50,100 0,100 0,50 "/>
<polygon style="fill:#008CF0;" points="99.09,99.25 99.09,50.08 99.09,0.91 49.92,50.08 0.75,99.25 49.92,99.25 "/>
<polygon style="fill:#000096;" points="0.289,98.796 49.461,49.624 98.633,0.451 99.093,0.911 99.552,1.371 50.38,50.543 
	1.208,99.715 0.748,99.255 "/>
<path d="M24.17,75.05h-9.96H4.25v-4.375V66.3h2.66h2.66V50V33.7H6.91H4.25v-4.35V25h9.96h9.96v4.35v4.35h-2.655H18.86V50v16.3h2.655
	h2.655v4.375V75.05z"/>
<path style="fill:#FFFFFF;" d="M24.66,75.54H14.215H3.77v-4.865V65.81h2.655H9.08V49.995V34.18H6.425H3.77v-4.86v-4.86h10.445H24.66
	v4.86v4.86H22h-2.66v15.815V65.81H22h2.66v4.865V75.54z M4.74,74.54h9.47h9.47v-3.875V66.79h-2.655H18.37V50V33.21h2.655h2.655
	v-3.885V25.44h-9.47H4.74v3.885v3.885h2.655h2.655V50v16.79H7.395H4.74v3.875V74.54z"/>
<path d="M46.61,76c-2.59,0.057-5.102-0.56-7.318-1.735c-2.216-1.175-4.136-2.909-5.542-5.085c-1.583-2.26-2.771-4.984-3.562-8.172
	C29.396,57.819,29,54.167,29,50.05c0-3.97,0.398-7.538,1.193-10.705c0.795-3.167,1.987-5.932,3.577-8.295s3.457-4.132,5.6-5.307
	s4.563-1.756,7.26-1.743c0.649-0.005,1.297,0.021,1.943,0.078c0.646,0.057,1.289,0.144,1.927,0.262
	c0.561,0.108,1.117,0.241,1.666,0.398c0.549,0.157,1.091,0.338,1.624,0.542c0.463,0.196,0.919,0.41,1.366,0.64
	s0.885,0.477,1.314,0.74c0.5,0.29,0.938,0.562,1.325,0.816s0.725,0.489,1.025,0.704v5.955v5.955h-0.46H57.9
	c-0.22-0.27-0.47-0.565-0.746-0.886s-0.579-0.669-0.904-1.044c-0.349-0.386-0.712-0.759-1.087-1.119C54.788,36.68,54.4,36.333,54,36
	c-0.422-0.362-0.865-0.696-1.328-1.002c-0.463-0.306-0.944-0.582-1.442-0.828c-0.489-0.25-1.004-0.441-1.535-0.568
	c-0.53-0.128-1.076-0.192-1.625-0.192c-0.624-0.006-1.245,0.065-1.848,0.21c-0.603,0.144-1.188,0.362-1.742,0.65
	c-0.63,0.368-1.21,0.81-1.731,1.313c-0.52,0.504-0.981,1.069-1.369,1.687c-0.518,0.792-0.964,1.626-1.334,2.492
	c-0.37,0.867-0.663,1.766-0.876,2.688c-0.309,1.259-0.535,2.536-0.679,3.822s-0.204,2.581-0.181,3.878
	c-0.027,1.324,0.034,2.647,0.183,3.96s0.385,2.616,0.707,3.9c0.233,0.919,0.549,1.813,0.942,2.672s0.864,1.682,1.408,2.458
	c0.403,0.575,0.873,1.097,1.399,1.555c0.526,0.458,1.106,0.853,1.731,1.175c0.534,0.27,1.095,0.477,1.672,0.618
	c0.577,0.141,1.17,0.216,1.768,0.222c0.593,0,1.182-0.071,1.755-0.211s1.128-0.347,1.655-0.619c0.497-0.251,0.975-0.534,1.433-0.848
	S53.857,64.373,54.27,64c0.382-0.325,0.751-0.665,1.106-1.019c0.355-0.354,0.697-0.721,1.024-1.101c0.303-0.36,0.588-0.7,0.853-1.02
	s0.511-0.62,0.737-0.9h0.415h0.415v5.88v5.88c-0.33,0.215-0.688,0.443-1.071,0.685c-0.384,0.243-0.794,0.5-1.229,0.775
	c-0.426,0.271-0.863,0.524-1.31,0.758c-0.447,0.234-0.904,0.448-1.37,0.642c-0.515,0.218-1.037,0.417-1.566,0.597
	c-0.529,0.18-1.064,0.341-1.604,0.483c-0.668,0.134-1.342,0.23-2.02,0.286C47.972,76.003,47.291,76.021,46.61,76z"/>
<path style="fill:#FFFFFF;" d="M46.61,76.51c-2.666,0.057-5.253-0.576-7.537-1.782c-2.284-1.206-4.266-2.984-5.723-5.218
	c-1.61-2.3-2.823-5.085-3.632-8.333C28.907,57.93,28.5,54.22,28.5,50.07c0-4,0.407-7.62,1.219-10.839
	c0.811-3.219,2.026-6.036,3.641-8.431c1.615-2.395,3.548-4.218,5.769-5.441c2.221-1.224,4.731-1.849,7.501-1.849
	c1.259-0.028,2.514,0.067,3.748,0.283C51.613,24.01,52.826,24.346,54,24.8c0.478,0.2,0.948,0.419,1.408,0.656
	s0.911,0.492,1.352,0.764c0.5,0.29,0.945,0.565,1.34,0.821s0.74,0.494,1.04,0.709l0.1,0.07l0.1,0.07v6.345v6.345h-0.835H57.67
	l-0.075-0.09L57.52,40.4c-0.215-0.27-0.465-0.565-0.74-0.885c-0.275-0.32-0.575-0.665-0.89-1.035
	c-0.34-0.386-0.694-0.759-1.061-1.12c-0.367-0.36-0.747-0.707-1.139-1.04c-0.41-0.349-0.842-0.672-1.291-0.968
	C51.95,35.057,51.483,34.789,51,34.55c-0.999-0.484-2.082-0.716-3.162-0.699c-1.08,0.017-2.155,0.284-3.138,0.799
	c-0.593,0.347-1.141,0.762-1.633,1.236S42.14,36.89,41.77,37.47c-0.501,0.764-0.932,1.569-1.29,2.406s-0.643,1.705-0.85,2.594
	c-0.301,1.24-0.524,2.497-0.666,3.763s-0.204,2.541-0.184,3.817c-0.026,1.302,0.035,2.603,0.182,3.894
	c0.147,1.291,0.38,2.573,0.698,3.836c0.225,0.895,0.529,1.766,0.909,2.603c0.38,0.837,0.835,1.639,1.361,2.397
	c0.379,0.544,0.822,1.037,1.317,1.47c0.495,0.433,1.043,0.806,1.633,1.11c1.007,0.52,2.108,0.779,3.21,0.779s2.203-0.26,3.21-0.779
	c0.486-0.229,0.957-0.49,1.408-0.78c0.451-0.291,0.883-0.611,1.292-0.96c0.359-0.32,0.705-0.653,1.038-0.998S55.693,61.919,56,61.55
	c0.305-0.36,0.59-0.697,0.855-1.015s0.51-0.615,0.735-0.895l0.07-0.09l0.07-0.09h0.785H59.3v6.27V72l-0.11,0.075l-0.11,0.075
	l-1.15,0.73l-1.15,0.73c-0.443,0.27-0.897,0.521-1.361,0.753C54.955,74.595,54.482,74.807,54,75
	c-0.524,0.224-1.055,0.428-1.594,0.611s-1.084,0.346-1.636,0.489c-0.683,0.147-1.374,0.255-2.068,0.324S47.309,76.521,46.61,76.51z
	 M46.61,24.51c-2.6,0-4.948,0.577-7.03,1.725c-2.083,1.147-3.9,2.865-5.44,5.145c-1.54,2.28-2.713,5.007-3.5,8.141
	c-0.788,3.134-1.19,6.674-1.19,10.579c0,4.045,0.395,7.658,1.177,10.812s1.952,5.853,3.502,8.067
	c1.364,2.106,3.225,3.785,5.371,4.923c2.147,1.139,4.58,1.738,7.089,1.687c0.661,0.018,1.323-0.004,1.981-0.064
	s1.312-0.159,1.959-0.296c0.529-0.137,1.052-0.293,1.569-0.468c0.517-0.175,1.028-0.369,1.531-0.582
	c0.453-0.19,0.898-0.398,1.334-0.625c0.435-0.227,0.861-0.472,1.276-0.735l1.035-0.66l1.035-0.66V66v-5.5h-0.05h-0.05
	c-0.21,0.26-0.438,0.535-0.681,0.826c-0.244,0.291-0.504,0.599-0.779,0.924c-0.337,0.387-0.687,0.763-1.051,1.124
	c-0.364,0.362-0.74,0.711-1.129,1.046c-0.428,0.377-0.881,0.725-1.353,1.042s-0.966,0.604-1.477,0.858
	c-1.144,0.586-2.395,0.879-3.645,0.879s-2.501-0.293-3.645-0.879c-0.657-0.339-1.269-0.754-1.823-1.236
	c-0.554-0.482-1.05-1.03-1.477-1.634c-0.562-0.801-1.049-1.649-1.455-2.535c-0.407-0.885-0.733-1.807-0.975-2.755
	c-0.329-1.307-0.57-2.633-0.722-3.97s-0.215-2.683-0.188-4.03c-0.02-1.318,0.045-2.635,0.192-3.943s0.377-2.606,0.688-3.887
	c0.221-0.963,0.526-1.903,0.913-2.808S40.457,37.746,41,36.92c0.414-0.645,0.902-1.236,1.453-1.761
	c0.551-0.525,1.164-0.985,1.827-1.369c1.121-0.591,2.349-0.897,3.582-0.916c1.233-0.019,2.47,0.249,3.608,0.806
	c0.513,0.258,1.009,0.547,1.487,0.864s0.936,0.663,1.373,1.036c0.411,0.347,0.809,0.71,1.193,1.087
	c0.384,0.377,0.753,0.768,1.107,1.173c0.295,0.335,0.57,0.65,0.822,0.944s0.483,0.566,0.688,0.816h0.1h0.1V34v-5.6
	c-0.28-0.195-0.595-0.405-0.946-0.63c-0.351-0.225-0.739-0.465-1.164-0.72c-0.42-0.258-0.851-0.5-1.289-0.725
	C54.502,26.1,54.055,25.891,53.6,25.7c-0.517-0.2-1.042-0.376-1.574-0.528c-0.532-0.152-1.071-0.279-1.616-0.382
	c-0.623-0.116-1.251-0.201-1.882-0.257c-0.631-0.055-1.264-0.08-1.898-0.073l-0.01,0.025L46.61,24.51z"/>
<path d="M92.9,40.76c0.005,1.124-0.06,2.247-0.195,3.36c-0.135,1.114-0.341,2.219-0.615,3.31c-0.219,0.945-0.525,1.865-0.913,2.748
	c-0.388,0.884-0.859,1.732-1.407,2.532c-0.298,0.431-0.614,0.849-0.948,1.253c-0.334,0.404-0.685,0.793-1.052,1.167
	c-0.375,0.366-0.774,0.706-1.193,1.018c-0.419,0.312-0.859,0.597-1.317,0.852c-0.462,0.26-0.939,0.491-1.428,0.693
	c-0.489,0.202-0.991,0.375-1.502,0.517c-0.578,0.151-1.164,0.262-1.756,0.334c-0.591,0.072-1.187,0.104-1.784,0.096h-2.395H74v8.205
	v8.205h-4.585H64.83V50.025V25h7.085H79c0.924-0.02,1.846,0.036,2.758,0.168c0.911,0.132,1.812,0.34,2.692,0.622
	c0.772,0.268,1.512,0.616,2.207,1.037c0.695,0.421,1.347,0.914,1.943,1.473c0.727,0.691,1.364,1.466,1.9,2.306
	c0.536,0.84,0.97,1.744,1.29,2.695c0.396,1.203,0.688,2.435,0.874,3.683S92.929,39.494,92.9,40.76z M83.5,41.07
	c0.016-0.628-0.04-1.255-0.164-1.867c-0.124-0.612-0.317-1.21-0.576-1.783c-0.176-0.435-0.417-0.837-0.714-1.193
	c-0.297-0.356-0.649-0.666-1.046-0.917c-0.378-0.237-0.779-0.431-1.197-0.58c-0.417-0.149-0.851-0.253-1.293-0.31
	c-0.395-0.04-0.86-0.07-1.396-0.09c-0.536-0.02-1.144-0.03-1.824-0.03h-0.645H74v7.5v7.5h0.32h0.32c0.435,0,0.855,0,1.262,0
	c0.408,0,0.803,0,1.188,0c0.336-0.007,0.672-0.031,1.006-0.071c0.334-0.04,0.666-0.097,0.994-0.169
	c0.275-0.067,0.543-0.156,0.802-0.267c0.259-0.11,0.509-0.242,0.748-0.393c0.246-0.137,0.477-0.299,0.69-0.481
	s0.407-0.386,0.58-0.609c0.296-0.384,0.551-0.797,0.762-1.231c0.211-0.434,0.378-0.889,0.498-1.359
	c0.125-0.6,0.215-1.206,0.271-1.815S83.516,41.683,83.5,41.07z"/>
<path style="fill:#FFFFFF;" d="M74.48,75.54h-5.065H64.35V50V24.46h7.325H79c0.951-0.018,1.901,0.042,2.839,0.18
	s1.865,0.351,2.771,0.64c0.803,0.28,1.572,0.642,2.296,1.079s1.402,0.95,2.024,1.531c0.757,0.721,1.42,1.53,1.975,2.407
	c0.556,0.877,1.005,1.821,1.335,2.813c0.411,1.232,0.714,2.496,0.908,3.775s0.279,2.576,0.252,3.875
	c0.003,1.144-0.064,2.286-0.201,3.42s-0.344,2.259-0.619,3.37c-0.234,0.975-0.555,1.924-0.961,2.836S90.726,52.173,90.16,53
	c-0.312,0.443-0.642,0.872-0.991,1.286s-0.715,0.812-1.099,1.194c-0.383,0.388-0.791,0.75-1.22,1.084s-0.88,0.64-1.35,0.916
	c-0.472,0.269-0.96,0.509-1.461,0.718c-0.501,0.209-1.015,0.387-1.539,0.532c-0.597,0.16-1.203,0.279-1.814,0.356
	c-0.611,0.077-1.228,0.112-1.846,0.104h-2.18h-2.18v8.175V75.54z M65.32,74.54h4.095h4.095v-8.18v-8.18h2.645H78.8
	c0.575,0.006,1.149-0.026,1.719-0.096c0.57-0.07,1.135-0.178,1.691-0.324c0.488-0.136,0.966-0.302,1.432-0.497
	c0.466-0.195,0.92-0.42,1.358-0.673c0.43-0.249,0.843-0.524,1.237-0.825c0.394-0.301,0.769-0.626,1.123-0.975
	c0.366-0.364,0.717-0.744,1.05-1.137c0.334-0.394,0.65-0.802,0.95-1.223c0.53-0.778,0.986-1.602,1.363-2.461
	c0.377-0.859,0.674-1.752,0.887-2.669c0.27-1.069,0.472-2.153,0.606-3.245s0.199-2.193,0.194-3.295
	c0.026-1.242-0.053-2.483-0.237-3.707c-0.184-1.224-0.472-2.433-0.863-3.613c-0.305-0.919-0.72-1.794-1.234-2.607
	C89.562,30.02,88.95,29.27,88.25,28.6c-0.575-0.536-1.203-1.008-1.874-1.411c-0.67-0.402-1.383-0.734-2.126-0.989
	c-0.848-0.269-1.716-0.468-2.594-0.595S79.89,25.422,79,25.44h-6.84h-6.84l0,24.55V74.54z M74.63,49.8h-0.56h-0.56v-8v-8h0.89h0.89
	c0.685,0,1.302,0,1.849,0.015s1.021,0.045,1.421,0.105c0.48,0.065,0.95,0.182,1.401,0.35s0.884,0.385,1.289,0.65
	c0.445,0.274,0.842,0.614,1.18,1.005c0.337,0.391,0.615,0.834,0.82,1.315c0.266,0.603,0.463,1.231,0.589,1.873
	c0.126,0.642,0.18,1.299,0.161,1.957c0.015,0.629-0.006,1.259-0.062,1.885c-0.057,0.626-0.149,1.249-0.278,1.865
	c-0.131,0.5-0.311,0.985-0.537,1.447c-0.226,0.462-0.498,0.902-0.813,1.313c-0.189,0.249-0.403,0.477-0.638,0.681
	c-0.235,0.204-0.49,0.385-0.762,0.539c-0.261,0.163-0.534,0.304-0.816,0.423c-0.283,0.119-0.575,0.215-0.874,0.287
	c-0.347,0.077-0.697,0.137-1.049,0.178c-0.352,0.042-0.706,0.066-1.061,0.072c-0.395,0.015-0.798,0.025-1.21,0.031
	C75.488,49.798,75.065,49.8,74.63,49.8z M74.48,48.8h0.075h0.075c0.43,0,0.847,0,1.254,0s0.801,0,1.186,0
	c0.325-0.007,0.648-0.03,0.971-0.069c0.322-0.038,0.642-0.092,0.959-0.161c0.246-0.061,0.487-0.139,0.721-0.234
	c0.234-0.095,0.461-0.207,0.679-0.336c0.217-0.127,0.42-0.276,0.606-0.444c0.186-0.168,0.355-0.354,0.504-0.556
	c0.277-0.359,0.516-0.744,0.714-1.149s0.354-0.831,0.466-1.271c0.119-0.577,0.204-1.16,0.256-1.746s0.07-1.175,0.054-1.764
	c0.017-0.592-0.034-1.182-0.149-1.759c-0.116-0.577-0.297-1.141-0.541-1.681c-0.155-0.389-0.368-0.749-0.632-1.067
	c-0.263-0.319-0.576-0.597-0.928-0.823c-0.348-0.222-0.719-0.405-1.104-0.545c-0.386-0.141-0.786-0.24-1.196-0.295
	c-0.385-0.035-0.842-0.062-1.371-0.081C76.55,34.8,75.95,34.79,75.28,34.79h-0.405H74.47l0.005,7.005L74.48,48.8z"/>
</svg>
