<?xml version="1.0" encoding="iso-8859-1"?>
<!-- Generator: Adobe Illustrator 25.2.3, SVG Export Plug-In . SVG Version: 6.00 Build 0)  -->
<svg version="1.1" id="Layer_1" xmlns="http://www.w3.org/2000/svg" xmlns:xlink="http://www.w3.org/1999/xlink" x="0px" y="0px"
	 viewBox="0 0 100 100" style="enable-background:new 0 0 100 100;" xml:space="preserve">
<g id="Layer_2_1_">
	<g id="Layer_2-2">
		<path d="M55.03,83.415c-2.251,0.022-4.495-0.147-6.709-0.501c-2.215-0.355-4.399-0.895-6.531-1.619
			c-3.994-1.321-7.575-3.521-10.516-6.379c-2.941-2.858-5.241-6.376-6.674-10.331c-0.842-2.326-1.467-4.719-1.868-7.15
			c-0.402-2.43-0.581-4.897-0.532-7.37c-0.032-2.361,0.145-4.716,0.528-7.037c0.383-2.321,0.972-4.607,1.762-6.833
			c0.714-1.996,1.638-3.903,2.753-5.692c1.115-1.789,2.42-3.458,3.897-4.978c1.468-1.47,3.089-2.769,4.831-3.877
			s3.606-2.026,5.559-2.733c2.168-0.794,4.399-1.388,6.665-1.778c2.266-0.39,4.567-0.575,6.875-0.552
			c1.224-0.008,2.447,0.025,3.668,0.1c1.221,0.075,2.439,0.192,3.652,0.35c1.011,0.139,2.017,0.308,3.018,0.507
			c1.001,0.199,1.995,0.426,2.982,0.683c0.894,0.249,1.78,0.527,2.655,0.834c0.875,0.307,1.741,0.642,2.595,1.006
			c0.645,0.26,1.252,0.525,1.826,0.782c0.574,0.258,1.114,0.508,1.624,0.738c0.218,0.103,0.397,0.265,0.52,0.461
			c0.123,0.196,0.192,0.427,0.19,0.669v6.78v6.78c0.014,0.348-0.115,0.668-0.333,0.905c-0.219,0.237-0.528,0.39-0.876,0.404
			c-0.008,0-0.017,0.001-0.025,0.001c-0.008,0-0.017,0-0.026,0h-0.095H76.35c-0.146,0-0.29-0.026-0.425-0.075
			s-0.262-0.122-0.375-0.215c-0.373-0.31-0.785-0.645-1.235-1.005c-0.45-0.36-0.938-0.745-1.465-1.155
			c-0.664-0.509-1.345-0.997-2.04-1.462c-0.695-0.465-1.406-0.908-2.13-1.328c-0.816-0.47-1.655-0.9-2.513-1.287
			s-1.735-0.732-2.627-1.033c-0.952-0.33-1.928-0.579-2.918-0.747c-0.99-0.167-1.994-0.252-3.002-0.253
			c-1.131-0.005-2.259,0.086-3.371,0.27c-1.112,0.184-2.209,0.461-3.279,0.83c-1.091,0.391-2.133,0.897-3.111,1.507
			c-0.977,0.61-1.889,1.325-2.719,2.133c-0.917,0.922-1.727,1.939-2.42,3.03c-0.692,1.091-1.267,2.258-1.71,3.48
			c-0.562,1.576-0.976,3.197-1.239,4.843c-0.263,1.645-0.374,3.315-0.331,4.987c-0.053,1.721,0.065,3.439,0.35,5.129
			c0.285,1.69,0.736,3.352,1.35,4.961c0.472,1.211,1.075,2.362,1.796,3.433c0.721,1.072,1.56,2.064,2.504,2.957
			c0.845,0.771,1.769,1.445,2.755,2.011c0.986,0.567,2.033,1.026,3.125,1.369c1.033,0.329,2.089,0.578,3.157,0.745
			s2.149,0.253,3.233,0.255c1.017,0.001,2.032-0.075,3.035-0.227s1.994-0.38,2.965-0.683c0.965-0.289,1.909-0.642,2.826-1.054
			c0.917-0.413,1.807-0.886,2.664-1.416c0.684-0.399,1.354-0.821,2.009-1.264s1.296-0.909,1.921-1.396
			c0.5-0.405,0.978-0.785,1.42-1.141c0.443-0.356,0.85-0.689,1.21-0.999c0.113-0.1,0.242-0.178,0.381-0.231s0.287-0.08,0.439-0.079
			l0,0l0,0c0.348,0,0.663,0.141,0.891,0.369c0.228,0.228,0.369,0.543,0.369,0.891v6.65v6.65c-0.001,0.25-0.077,0.488-0.209,0.688
			c-0.132,0.2-0.322,0.363-0.551,0.462c-0.67,0.3-1.327,0.59-1.972,0.872c-0.645,0.283-1.278,0.558-1.897,0.828
			c-0.757,0.334-1.525,0.642-2.302,0.926c-0.777,0.283-1.563,0.542-2.358,0.774c-0.972,0.287-1.953,0.546-2.94,0.776
			s-1.981,0.431-2.98,0.604c-1.258,0.178-2.523,0.305-3.791,0.38C57.571,83.42,56.301,83.444,55.03,83.415z"/>
	</g>
</g>
</svg>
