<?xml version="1.0" encoding="iso-8859-1"?>
<!-- Generator: Adobe Illustrator 25.2.3, SVG Export Plug-In . SVG Version: 6.00 Build 0)  -->
<svg version="1.1" id="Layer_1" xmlns="http://www.w3.org/2000/svg" xmlns:xlink="http://www.w3.org/1999/xlink" x="0px" y="0px"
	 viewBox="0 0 100 100" style="enable-background:new 0 0 100 100;" xml:space="preserve">
<g id="Layer_2_1_">
	<g id="Layer_2-2">
		<path d="M30.265,39.965c-0.818,0.008-1.633-0.054-2.437-0.183c-0.805-0.129-1.598-0.325-2.373-0.587
			c-1.454-0.48-2.756-1.281-3.824-2.323s-1.901-2.325-2.416-3.767c-0.305-0.841-0.531-1.706-0.676-2.585
			c-0.146-0.879-0.211-1.771-0.194-2.665c-0.009-0.851,0.057-1.7,0.195-2.536c0.139-0.837,0.351-1.661,0.635-2.464
			c0.252-0.725,0.58-1.419,0.977-2.071c0.398-0.653,0.864-1.262,1.393-1.819c0.536-0.532,1.126-1.002,1.76-1.405
			c0.634-0.402,1.311-0.736,2.02-0.995c0.786-0.287,1.595-0.503,2.417-0.645s1.656-0.211,2.493-0.205
			c0.445-0.002,0.889,0.011,1.333,0.039c0.444,0.028,0.886,0.072,1.327,0.131c0.369,0.049,0.736,0.109,1.102,0.181
			c0.365,0.072,0.728,0.155,1.088,0.249c0.325,0.09,0.648,0.191,0.966,0.303c0.319,0.112,0.633,0.234,0.944,0.367
			c0.285,0.12,0.55,0.237,0.798,0.351s0.478,0.224,0.693,0.329v2.83v2.83h-0.345h-0.346c-0.145-0.125-0.31-0.26-0.494-0.408
			c-0.184-0.147-0.386-0.307-0.606-0.482c-0.243-0.182-0.491-0.357-0.745-0.523c-0.253-0.167-0.512-0.326-0.775-0.477
			c-0.294-0.174-0.596-0.331-0.907-0.471c-0.31-0.14-0.629-0.263-0.953-0.369c-0.346-0.118-0.701-0.206-1.06-0.264
			c-0.36-0.059-0.724-0.087-1.09-0.086c-0.412-0.003-0.822,0.03-1.227,0.097c-0.405,0.067-0.804,0.168-1.193,0.303
			c-0.387,0.145-0.757,0.33-1.104,0.552s-0.671,0.478-0.966,0.768c-0.333,0.336-0.627,0.706-0.879,1.103
			c-0.251,0.397-0.46,0.822-0.621,1.267c-0.204,0.572-0.354,1.161-0.449,1.759c-0.095,0.598-0.136,1.204-0.121,1.811
			c-0.02,0.625,0.022,1.248,0.126,1.861s0.269,1.216,0.494,1.799c0.17,0.439,0.388,0.855,0.65,1.243
			c0.262,0.387,0.567,0.746,0.91,1.067c0.304,0.282,0.638,0.529,0.996,0.735s0.738,0.373,1.134,0.495
			c0.375,0.121,0.758,0.213,1.146,0.275s0.78,0.094,1.174,0.095c0.368,0,0.735-0.028,1.097-0.083s0.721-0.138,1.073-0.247
			c0.351-0.104,0.695-0.23,1.029-0.379c0.334-0.149,0.658-0.319,0.971-0.511c0.247-0.151,0.489-0.31,0.726-0.477
			c0.237-0.167,0.468-0.341,0.694-0.523c0.22-0.175,0.42-0.335,0.601-0.483c0.181-0.147,0.344-0.282,0.489-0.407h0.315h0.315v2.8
			v2.8l-0.835,0.37l-0.835,0.37c-0.273,0.117-0.55,0.225-0.83,0.323c-0.28,0.098-0.564,0.187-0.85,0.267
			c-0.354,0.103-0.71,0.197-1.069,0.282c-0.358,0.085-0.719,0.161-1.081,0.228c-0.461,0.063-0.923,0.108-1.387,0.134
			C31.194,39.965,30.73,39.975,30.265,39.965z"/>
		<path d="M55.545,39.515H48.72h-6.825v-2.07v-2.07h1.915h1.915V27.84v-7.535H43.81h-1.915v-2.07v-2.07h6.825h6.825v2.07v2.07h-1.9
			h-1.9v7.535v7.535h1.9h1.9v2.07V39.515z"/>
		<path d="M81.655,16.165L77.4,27.84l-4.255,11.675H69.77h-3.375L62.14,27.84l-4.255-11.675h3.16h3.16l2.825,8.195l2.825,8.195
			L72.7,24.36l2.845-8.195H78.6H81.655z"/>
		<path d="M71.775,42.045c-1.13-0.47-2.177-0.088-3.396,0.721s-2.609,2.044-4.424,3.279s-3.47,2.833-5.02,4.112
			c-1.55,1.28-2.995,2.243-4.39,2.208s-4.588-0.052-7.763-0.165c-3.175-0.112-6.333-0.32-7.657-0.735s-3.21-0.713-5.042-0.766
			s-3.613,0.136-4.728,0.696c-1.513,0.779-2.741,1.951-3.587,3.353c-0.846,1.403-1.31,3.036-1.293,4.737
			c0,2.13,0.112,4.397,0.229,6.35c0.116,1.952,0.236,3.59,0.251,4.46c0.015,0.87-0.045,1.9,0.149,2.725
			c0.193,0.825,0.641,1.445,1.671,1.495c-0.035,1.065-0.052,3.43-0.07,5.711c-0.018,2.281-0.035,4.479-0.07,5.209
			s0.75,1.307,1.587,1.414c0.837,0.106,1.727-0.259,1.903-1.414s0.488-3.945,0.8-6.577s0.625-5.107,0.8-5.632s0.28-1.135,0.42-1.622
			c0.14-0.488,0.315-0.853,0.63-0.888c0.315-0.035,0.333,0.42,0.315,1.092c-0.017,0.673-0.07,1.562,0.105,2.397
			s0.645,3.537,1.15,6.15c0.505,2.613,1.045,5.135,1.36,5.61c0.315,0.475,1.065,0.79,1.754,0.82s1.316-0.225,1.386-0.89
			c0.07-0.665-0.43-3.753-0.925-6.821c-0.495-3.069-0.985-6.119-0.895-6.709c0.767-0.68,1.445-1.449,2.019-2.288
			c0.574-0.84,1.046-1.75,1.401-2.712c1.085,0.42,3.457,0.92,5.802,1.345s4.662,0.775,5.638,0.895
			c-0.205,1.74-0.57,5.403-0.892,8.812c-0.323,3.41-0.603,6.568-0.638,7.298s0.513,1.202,1.194,1.247
			c0.681,0.045,1.496-0.337,1.996-1.317c0.5-0.98,1.11-3.37,1.63-5.68s0.95-4.54,1.09-5.2c0.07-0.455,0.368-0.665,0.656-0.656
			s0.569,0.236,0.604,0.656s0.535,3.018,1.09,5.685c0.555,2.668,1.165,5.405,1.42,6.105c0.255,0.7,1.205,0.82,2.07,0.626
			c0.865-0.194,1.645-0.701,1.56-1.256c-0.18-0.945-0.96-4.935-1.695-8.883c-0.735-3.948-1.425-7.852-1.425-8.627
			c0-0.775,1.778-4.333,3.695-7.775c1.918-3.442,3.975-6.77,4.535-7.085c1,0.21,1.925,0.68,2.791,1.112s1.674,0.828,2.439,0.888
			c0.798,0.149,1.6,0.043,2.307-0.273c0.708-0.316,1.322-0.843,1.743-1.537c0-1.22-1.188-2.93-2.488-4.458
			c-1.3-1.528-2.713-2.872-3.162-3.362c-0.035-0.72,0.018-1.602-0.026-2.349C72.335,42.83,72.195,42.22,71.775,42.045z"/>
		<path d="M93.155,7.385L95.69,4.85l2.535-2.535c0.155-0.154,0.232-0.356,0.233-0.558c0.001-0.202-0.076-0.405-0.23-0.559
			l-0.001-0.001l-0.001-0.001c-0.151-0.153-0.35-0.231-0.55-0.232c-0.2-0.001-0.4,0.074-0.553,0.225
			c-0.001,0.001-0.002,0.002-0.003,0.003c-0.001,0.001-0.002,0.002-0.003,0.003L94.582,3.73l-2.537,2.535l-1.385-1.38l-1.385-1.38
			l-1.865,5.17l-1.865,5.17l5.175-1.85l5.175-1.85l-1.37-1.38L93.155,7.385z"/>
		<path d="M6.845,7.385L4.31,4.85L1.775,2.315C1.62,2.16,1.543,1.958,1.543,1.755c0-0.203,0.077-0.405,0.232-0.56
			s0.357-0.232,0.56-0.232S2.74,1.04,2.895,1.195L5.43,3.73l2.535,2.535l1.38-1.38l1.38-1.38l1.85,5.17l1.85,5.17l-5.17-1.85
			l-5.17-1.85l1.38-1.38L6.845,7.385z"/>
		<path d="M93.155,92.625l2.535,2.535l2.535,2.535c0.153,0.153,0.23,0.354,0.23,0.555s-0.077,0.402-0.23,0.555
			s-0.354,0.23-0.555,0.23s-0.402-0.077-0.555-0.23L94.58,96.27l-2.535-2.535l-1.385,1.38l-1.385,1.38l-1.865-5.17l-1.865-5.17
			l5.175,1.85l5.175,1.85l-1.37,1.385L93.155,92.625z"/>
		<path d="M6.845,92.625L4.31,95.16l-2.535,2.535c-0.153,0.151-0.231,0.35-0.232,0.55c-0.001,0.2,0.074,0.4,0.225,0.553
			c0.001,0.001,0.002,0.002,0.003,0.003c0.001,0.001,0.002,0.002,0.003,0.003c0.154,0.155,0.356,0.232,0.558,0.233
			c0.202,0.001,0.405-0.076,0.559-0.23l0.001-0.001l0.001-0.001l2.535-2.535l2.537-2.535l1.38,1.38l1.38,1.38l1.85-5.17l1.85-5.17
			l-5.17,1.85l-5.17,1.85l1.38,1.385L6.845,92.625z"/>
	</g>
</g>
</svg>
