<?xml version="1.0" encoding="utf-8"?>
<!-- Generator: Adobe Illustrator 25.3.1, SVG Export Plug-In . SVG Version: 6.00 Build 0)  -->
<svg version="1.1" id="Layer_1" xmlns="http://www.w3.org/2000/svg" xmlns:xlink="http://www.w3.org/1999/xlink" x="0px" y="0px"
	 viewBox="0 0 100 100" style="enable-background:new 0 0 100 100;" xml:space="preserve">
<path d="M22.6,62h-5.2c-0.7,0-1.3-0.2-1.6-0.7c-0.3-0.5-0.5-1.3-0.5-2.3V40.6c0-1.1,0.2-1.9,0.5-2.3c0.3-0.5,0.9-0.7,1.6-0.7h5.5
	c0.8,0,1.5,0.1,2.1,0.2c0.6,0.1,1.1,0.4,1.6,0.8c0.4,0.3,0.8,0.8,1.1,1.3c0.3,0.5,0.5,1.1,0.7,1.8c0.2,0.6,0.2,1.3,0.2,2
	c0,2.4-0.8,4.2-2.5,5.4c2.2,1,3.3,3,3.3,6c0,1.4-0.2,2.6-0.7,3.7c-0.5,1.1-1.1,1.9-2,2.4c-0.5,0.3-1.1,0.5-1.8,0.7
	C24.3,62,23.5,62,22.6,62z M18.8,41.3v6.3h3.1c0.9,0,1.5-0.1,2-0.4c0.5-0.2,0.8-0.7,1.1-1.3c0.2-0.5,0.3-1,0.3-1.6
	c0-1.2-0.3-2.1-0.9-2.5c-0.6-0.4-1.5-0.6-2.8-0.6H18.8z M22.3,51.2h-3.6v7.1h3.7c2.3,0,3.5-1.2,3.5-3.6c0-1.2-0.3-2.1-0.9-2.7
	C24.4,51.5,23.5,51.2,22.3,51.2z"/>
<path d="M39.8,37.2c1.7,0,3.3,0.5,4.5,1.5s2.2,2.5,2.8,4.4c0.6,1.9,1,4.1,1,6.7c0,1.9-0.2,3.6-0.5,5.2c-0.4,1.5-0.9,2.9-1.6,4
	s-1.6,2-2.6,2.6c-1,0.6-2.2,0.9-3.5,0.9c-1.3,0-2.5-0.3-3.5-0.9c-1-0.6-1.9-1.5-2.6-2.6c-0.7-1.1-1.2-2.5-1.6-4.1
	c-0.4-1.6-0.5-3.3-0.5-5.1c0-1.9,0.2-3.6,0.6-5.2c0.4-1.6,0.9-2.9,1.6-4s1.6-1.9,2.6-2.5C37.3,37.5,38.5,37.2,39.8,37.2z M44.6,49.7
	c0-1.8-0.2-3.3-0.6-4.7c-0.4-1.3-1-2.3-1.7-3c-0.7-0.7-1.6-1-2.5-1c-0.7,0-1.3,0.2-1.9,0.6c-0.6,0.4-1.1,0.9-1.5,1.6
	c-0.4,0.7-0.7,1.6-1,2.7c-0.2,1.1-0.4,2.3-0.4,3.7c0,1.4,0.1,2.6,0.4,3.8c0.2,1.1,0.6,2.1,1,2.8c0.4,0.7,0.9,1.3,1.5,1.7
	s1.2,0.6,1.9,0.6c0.9,0,1.7-0.3,2.4-1c0.7-0.6,1.3-1.6,1.7-2.9C44.4,53.3,44.6,51.7,44.6,49.7z"/>
<path d="M56.7,58.4L54,42.8v16.9c0,0.9-0.1,1.6-0.4,2.1c-0.3,0.5-0.7,0.7-1.1,0.7c-0.5,0-0.8-0.2-1.1-0.7c-0.3-0.5-0.4-1.2-0.4-2.1
	V40.3c0-1.1,0.2-1.8,0.6-2.2c0.4-0.4,0.9-0.6,1.6-0.6H54c0.6,0,1.1,0.1,1.4,0.3s0.5,0.5,0.6,0.9c0.1,0.4,0.3,1.1,0.5,2.1L59,54.3
	l2.5-13.4c0.2-1,0.3-1.7,0.5-2.1c0.1-0.4,0.4-0.7,0.6-0.9c0.3-0.2,0.7-0.3,1.4-0.3H65c0.7,0,1.2,0.2,1.6,0.6
	c0.4,0.4,0.6,1.1,0.6,2.2v19.3c0,0.9-0.1,1.6-0.4,2.1c-0.3,0.5-0.7,0.7-1.2,0.7c-0.5,0-0.8-0.2-1.1-0.7c-0.3-0.5-0.4-1.2-0.4-2.1
	V42.8l-2.7,15.6c-0.2,1-0.3,1.8-0.4,2.2c-0.1,0.5-0.3,0.9-0.6,1.3c-0.3,0.4-0.7,0.6-1.2,0.6c-0.4,0-0.7-0.1-1-0.4
	c-0.3-0.2-0.5-0.6-0.6-1c-0.2-0.4-0.3-0.8-0.4-1.3C56.9,59.4,56.8,58.9,56.7,58.4z"/>
<path d="M77.8,62h-5.2c-0.7,0-1.3-0.2-1.6-0.7c-0.3-0.5-0.5-1.3-0.5-2.3V40.6c0-1.1,0.2-1.9,0.5-2.3c0.3-0.5,0.9-0.7,1.6-0.7h5.5
	c0.8,0,1.5,0.1,2.1,0.2c0.6,0.1,1.1,0.4,1.6,0.8c0.4,0.3,0.8,0.8,1.1,1.3c0.3,0.5,0.5,1.1,0.7,1.8c0.2,0.6,0.2,1.3,0.2,2
	c0,2.4-0.8,4.2-2.5,5.4c2.2,1,3.3,3,3.3,6c0,1.4-0.2,2.6-0.7,3.7c-0.5,1.1-1.1,1.9-2,2.4c-0.5,0.3-1.1,0.5-1.8,0.7
	C79.5,62,78.7,62,77.8,62z M74,41.3v6.3h3.1c0.9,0,1.5-0.1,2-0.4c0.5-0.2,0.8-0.7,1.1-1.3c0.2-0.5,0.3-1,0.3-1.6
	c0-1.2-0.3-2.1-0.9-2.5c-0.6-0.4-1.5-0.6-2.8-0.6H74z M77.6,51.2H74v7.1h3.7c2.3,0,3.5-1.2,3.5-3.6c0-1.2-0.3-2.1-0.9-2.7
	C79.7,51.5,78.8,51.2,77.6,51.2z"/>
</svg>
