<?xml version="1.0" encoding="iso-8859-1"?>
<!-- Generator: Adobe Illustrator 25.2.3, SVG Export Plug-In . SVG Version: 6.00 Build 0)  -->
<svg version="1.1" id="Layer_1" xmlns="http://www.w3.org/2000/svg" xmlns:xlink="http://www.w3.org/1999/xlink" x="0px" y="0px"
	 viewBox="0 0 100 100" style="enable-background:new 0 0 100 100;" xml:space="preserve">
<g id="Layer_2_1_">
	<g id="Layer_2-2">
		<path d="M30.265,39.965c-0.818,0.008-1.633-0.054-2.437-0.183c-0.805-0.129-1.598-0.325-2.373-0.587
			c-1.454-0.48-2.756-1.281-3.824-2.323s-1.901-2.325-2.416-3.767c-0.305-0.841-0.531-1.706-0.676-2.585
			c-0.146-0.879-0.211-1.771-0.194-2.665c-0.009-0.851,0.057-1.7,0.195-2.536c0.139-0.837,0.351-1.661,0.635-2.464
			c0.252-0.725,0.58-1.419,0.977-2.071c0.398-0.653,0.864-1.262,1.393-1.819c0.536-0.532,1.126-1.002,1.76-1.405
			c0.634-0.402,1.311-0.736,2.02-0.995c0.786-0.287,1.595-0.503,2.417-0.645s1.656-0.211,2.493-0.205
			c0.445-0.002,0.889,0.011,1.333,0.039c0.444,0.028,0.886,0.072,1.327,0.131c0.369,0.049,0.736,0.109,1.102,0.181
			c0.365,0.072,0.728,0.155,1.088,0.249c0.325,0.09,0.648,0.191,0.966,0.303c0.319,0.112,0.633,0.234,0.944,0.367
			c0.285,0.12,0.55,0.237,0.798,0.351s0.478,0.224,0.693,0.329v2.83v2.83h-0.345h-0.346c-0.145-0.125-0.31-0.26-0.494-0.408
			c-0.184-0.147-0.386-0.307-0.606-0.482c-0.243-0.182-0.491-0.357-0.745-0.523c-0.253-0.167-0.512-0.326-0.775-0.477
			c-0.294-0.174-0.596-0.331-0.907-0.471c-0.31-0.14-0.629-0.263-0.953-0.369c-0.346-0.118-0.701-0.206-1.06-0.264
			c-0.36-0.059-0.724-0.087-1.09-0.086c-0.412-0.003-0.822,0.03-1.227,0.097c-0.405,0.067-0.804,0.168-1.193,0.303
			c-0.387,0.145-0.757,0.33-1.104,0.552s-0.671,0.478-0.966,0.768c-0.333,0.336-0.627,0.706-0.879,1.103
			c-0.251,0.397-0.46,0.822-0.621,1.267c-0.204,0.572-0.354,1.161-0.449,1.759c-0.095,0.598-0.136,1.204-0.121,1.811
			c-0.02,0.625,0.022,1.248,0.126,1.861s0.269,1.216,0.494,1.799c0.17,0.439,0.388,0.855,0.65,1.243
			c0.262,0.387,0.567,0.746,0.91,1.067c0.304,0.282,0.638,0.529,0.996,0.735s0.738,0.373,1.134,0.495
			c0.375,0.121,0.758,0.213,1.146,0.275s0.78,0.094,1.174,0.095c0.368,0,0.735-0.028,1.097-0.083s0.721-0.138,1.073-0.247
			c0.351-0.104,0.695-0.23,1.029-0.379c0.334-0.149,0.658-0.319,0.971-0.511c0.247-0.151,0.489-0.31,0.726-0.477
			c0.237-0.167,0.468-0.341,0.694-0.523c0.22-0.175,0.42-0.335,0.601-0.483c0.181-0.147,0.344-0.282,0.489-0.407h0.315h0.315v2.8
			v2.8l-0.835,0.37l-0.835,0.37c-0.273,0.117-0.55,0.225-0.83,0.323c-0.28,0.098-0.564,0.187-0.85,0.267
			c-0.354,0.103-0.71,0.197-1.069,0.282c-0.358,0.085-0.719,0.161-1.081,0.228c-0.461,0.063-0.923,0.108-1.387,0.134
			C31.194,39.965,30.73,39.975,30.265,39.965z"/>
		<path d="M55.545,39.515H48.72h-6.825v-2.07v-2.07h1.915h1.915V27.84v-7.535H43.81h-1.915v-2.07v-2.07h6.825h6.825v2.07v2.07h-1.9
			h-1.9v7.535v7.535h1.9h1.9v2.07V39.515z"/>
		<path d="M81.655,16.165L77.4,27.84l-4.255,11.675H69.77h-3.375L62.14,27.84l-4.255-11.675h3.16h3.16l2.825,8.195l2.825,8.195
			L72.7,24.36l2.845-8.195H78.6H81.655z"/>
		<path d="M93.155,7.385L95.69,4.85l2.535-2.535c0.155-0.154,0.232-0.356,0.233-0.558c0.001-0.202-0.076-0.405-0.23-0.559
			l-0.001-0.001l-0.001-0.001c-0.151-0.153-0.35-0.231-0.55-0.232c-0.2-0.001-0.4,0.074-0.553,0.225
			c-0.001,0.001-0.002,0.002-0.003,0.003c-0.001,0.001-0.002,0.002-0.003,0.003L94.582,3.73l-2.537,2.535l-1.385-1.38l-1.385-1.38
			l-1.865,5.17l-1.865,5.17l5.175-1.85l5.175-1.85l-1.37-1.38L93.155,7.385z"/>
		<path d="M6.845,7.385L4.31,4.85L1.775,2.315C1.62,2.16,1.543,1.958,1.543,1.755c0-0.203,0.077-0.405,0.232-0.56
			s0.357-0.232,0.56-0.232S2.74,1.04,2.895,1.195L5.43,3.73l2.535,2.535l1.38-1.38l1.38-1.38l1.85,5.17l1.85,5.17l-5.17-1.85
			l-5.17-1.85l1.38-1.38L6.845,7.385z"/>
		<path d="M93.155,92.625l2.535,2.535l2.535,2.535c0.153,0.153,0.23,0.354,0.23,0.555s-0.077,0.402-0.23,0.555
			s-0.354,0.23-0.555,0.23s-0.402-0.077-0.555-0.23L94.58,96.27l-2.535-2.535l-1.385,1.38l-1.385,1.38l-1.865-5.17l-1.865-5.17
			l5.175,1.85l5.175,1.85l-1.37,1.385L93.155,92.625z"/>
		<path d="M6.845,92.625L4.31,95.16l-2.535,2.535c-0.153,0.151-0.231,0.35-0.232,0.55c-0.001,0.2,0.074,0.4,0.225,0.553
			c0.001,0.001,0.002,0.002,0.003,0.003c0.001,0.001,0.002,0.002,0.003,0.003c0.154,0.155,0.356,0.232,0.558,0.233
			c0.202,0.001,0.405-0.076,0.559-0.23l0.001-0.001l0.001-0.001l2.535-2.535l2.537-2.535l1.38,1.38l1.38,1.38l1.85-5.17l1.85-5.17
			l-5.17,1.85l-5.17,1.85l1.38,1.385L6.845,92.625z"/>
		<polygon style="fill:none;" points="36.675,53.905 39.29,53.905 41.905,53.905 41.905,58.045 41.905,62.185 39.29,62.185 
			36.675,62.185 36.675,58.045 		"/>
		<path style="fill:none;" d="M19.345,57.355v2.415v2.415h2.1h2.1v-4.14v-4.14H22.27h-1.275c-0.52,0.422-0.932,0.95-1.214,1.539
			C19.499,56.034,19.347,56.685,19.345,57.355z"/>
		<polygon style="fill:none;" points="46.125,53.905 48.74,53.905 51.355,53.905 51.355,58.045 51.355,62.185 48.74,62.185 
			46.125,62.185 46.125,58.045 		"/>
		<polygon style="fill:none;" points="27.235,53.905 29.85,53.905 32.465,53.905 32.465,58.045 32.465,62.185 29.85,62.185 
			27.235,62.185 27.235,58.045 		"/>
		<path style="fill:none;" d="M73.845,54.095v4.045v4.045h2.615h2.615v-1.61v-1.61c-0.61-1.054-1.37-2.005-2.251-2.826
			S74.94,54.628,73.845,54.095z"/>
		<polygon style="fill:none;" points="65.755,53.905 68.37,53.905 70.985,53.905 70.985,58.045 70.985,62.185 68.37,62.185 
			65.755,62.185 65.755,58.045 		"/>
		<polygon style="fill:none;" points="56.635,53.905 59.25,53.905 61.865,53.905 61.865,58.045 61.865,62.185 59.25,62.185 
			56.635,62.185 56.635,58.045 		"/>
		<path d="M82.655,64.965c-0.006-3.894-1.586-7.419-4.139-9.971c-2.553-2.553-6.077-4.133-9.971-4.139H46.19H23.835
			c-1.793,0.003-3.415,0.731-4.59,1.907s-1.9,2.8-1.9,4.593V68.5v11.145h3.13h3.13c0.135-1.555,0.708-2.923,1.564-3.901
			c0.856-0.979,1.996-1.569,3.266-1.569s2.413,0.59,3.27,1.569c0.858,0.979,1.43,2.346,1.56,3.901h14.76h14.76
			c0.135-1.555,0.708-2.923,1.564-3.901c0.856-0.979,1.996-1.569,3.266-1.569s2.412,0.59,3.271,1.569
			c0.859,0.979,1.434,2.346,1.569,3.901h5.1h5.1v-7.34V64.965z M23.545,62.185h-2.1h-2.1V59.77v-2.415
			c0.002-0.67,0.154-1.321,0.436-1.911c0.282-0.59,0.693-1.117,1.214-1.539h1.275h1.275v4.14V62.185z M32.435,62.185h-2.6h-2.6
			v-4.14v-4.14h2.615h2.615l-0.015,4.14L32.435,62.185z M41.875,62.185h-2.6h-2.6v-4.14v-4.14h2.615h2.615l-0.015,4.14
			L41.875,62.185z M51.325,62.185h-2.6h-2.6v-4.14v-4.14h2.615h2.615l-0.015,4.14L51.325,62.185z M61.835,62.185h-2.6h-2.6v-4.14
			v-4.14h2.615h2.615l-0.015,4.14L61.835,62.185z M70.955,62.185h-2.6h-2.6v-4.14v-4.14h2.615h2.615l-0.015,4.14L70.955,62.185z
			 M79.045,62.185h-2.6h-2.6V58.14v-4.045c1.095,0.533,2.098,1.223,2.979,2.044s1.641,1.772,2.251,2.826l-0.015,1.61L79.045,62.185z
			"/>
		<path d="M33.265,79.645c-0.13-1.555-0.702-2.923-1.56-3.901c-0.858-0.979-2-1.569-3.27-1.569s-2.41,0.59-3.266,1.569
			c-0.856,0.979-1.429,2.346-1.564,3.901c0,0.115,0,0.233,0,0.351c0,0.119,0,0.239,0,0.359c0,1.73,0.532,3.272,1.406,4.382
			s2.089,1.787,3.454,1.787s2.583-0.677,3.459-1.787c0.876-1.11,1.411-2.653,1.411-4.382c-0.015-0.12-0.028-0.24-0.039-0.359
			C33.285,79.878,33.275,79.76,33.265,79.645z M28.435,83.525c-0.44,0-0.905-0.325-1.26-0.884c-0.355-0.559-0.6-1.351-0.6-2.286
			c-0.01-0.118-0.015-0.237-0.015-0.355c0-0.118,0.005-0.237,0.015-0.355c0.1-0.74,0.35-1.358,0.676-1.79
			c0.326-0.433,0.729-0.68,1.134-0.68s0.808,0.25,1.135,0.684c0.327,0.434,0.58,1.051,0.685,1.786
			c0.016,0.118,0.028,0.236,0.037,0.354s0.013,0.237,0.013,0.356c0.025,0.935-0.21,1.728-0.561,2.286
			C29.343,83.2,28.875,83.525,28.435,83.525z"/>
		<path d="M72.455,79.645c-0.135-1.555-0.71-2.923-1.569-3.901c-0.858-0.979-2.001-1.569-3.271-1.569s-2.41,0.59-3.266,1.569
			c-0.856,0.979-1.429,2.346-1.564,3.901c0,0.115,0,0.233,0,0.351c0,0.119,0,0.239,0,0.359c0,1.73,0.533,3.272,1.406,4.382
			c0.873,1.11,2.089,1.787,3.454,1.787s2.582-0.677,3.459-1.787s1.411-2.653,1.411-4.382c-0.015-0.12-0.025-0.24-0.034-0.359
			C72.473,79.878,72.465,79.76,72.455,79.645z M67.615,83.525c-0.44,0-0.905-0.325-1.26-0.884c-0.355-0.559-0.6-1.351-0.6-2.286
			c0.001-0.119,0.005-0.237,0.013-0.356s0.021-0.237,0.037-0.354c0.105-0.725,0.355-1.342,0.68-1.779
			c0.325-0.436,0.725-0.691,1.13-0.691s0.807,0.25,1.135,0.684c0.327,0.434,0.58,1.051,0.685,1.786
			c0.008,0.118,0.012,0.237,0.012,0.355c0,0.118-0.004,0.237-0.012,0.355c0.025,0.935-0.198,1.728-0.543,2.286
			C68.548,83.2,68.08,83.525,67.615,83.525z"/>
	</g>
</g>
</svg>
