<?xml version="1.0" encoding="iso-8859-1"?>
<!-- Generator: Adobe Illustrator 25.4.1, SVG Export Plug-In . SVG Version: 6.00 Build 0)  -->
<svg version="1.1"
	 id="svg8" xmlns:cc="http://creativecommons.org/ns#" xmlns:dc="http://purl.org/dc/elements/1.1/" xmlns:inkscape="http://www.inkscape.org/namespaces/inkscape" xmlns:rdf="http://www.w3.org/1999/02/22-rdf-syntax-ns#" xmlns:sodipodi="http://sodipodi.sourceforge.net/DTD/sodipodi-0.dtd" xmlns:svg="http://www.w3.org/2000/svg"
	 xmlns="http://www.w3.org/2000/svg" xmlns:xlink="http://www.w3.org/1999/xlink" x="0px" y="0px" viewBox="0 0 100 100"
	 style="enable-background:new 0 0 100 100;" xml:space="preserve">
<sodipodi:namedview  bordercolor="#666666" borderopacity="1.0" id="base" inkscape:current-layer="g12002" inkscape:cx="-126.84379" inkscape:cy="84.283015" inkscape:document-units="px" inkscape:guide-bbox="true" inkscape:lockguides="true" inkscape:pageopacity="0.0" inkscape:pageshadow="2" inkscape:window-height="657" inkscape:window-maximized="1" inkscape:window-width="1280" inkscape:window-x="-8" inkscape:window-y="-8" inkscape:zoom="0.765625" pagecolor="#ffffff" showgrid="false" showguides="false" units="px">
	<sodipodi:guide  id="guide5700" inkscape:locked="true" orientation="0,1" position="-0.93017576,23.874511"></sodipodi:guide>
	<sodipodi:guide  id="guide5726" inkscape:locked="true" orientation="0,1" position="-26.098869,26.473047"></sodipodi:guide>
	<sodipodi:guide  id="guide5880" inkscape:locked="true" orientation="0,1" position="104.51042,-2.9104167"></sodipodi:guide>
	<sodipodi:guide  id="guide6001" inkscape:locked="true" orientation="0,1" position="-71.093695,29.279377"></sodipodi:guide>
	<sodipodi:guide  id="guide6005" inkscape:locked="true" orientation="0,1" position="-46.304445,58.278122"></sodipodi:guide>
	<sodipodi:guide  id="guide6736" inkscape:locked="true" orientation="0,1" position="-0.10335287,20.205485"></sodipodi:guide>
	<sodipodi:guide  id="guide6738" inkscape:locked="true" orientation="0,1" position="-0.43848907,22.874513"></sodipodi:guide>
	<inkscape:grid  id="grid2386" type="xygrid"></inkscape:grid>
</sodipodi:namedview>
<g id="g1180" transform="translate(0,-229.2666)" inkscape:groupmode="layer" inkscape:label="halo:always" style="display:none;">
	<g id="g1210" inkscape:groupmode="layer" inkscape:label="-gray-halo:iter3" style="display:inline;">
		<g id="circle1208">
			<path style="fill:#919395;" d="M50,329.3c-27.6,0-50-22.4-50-50s22.4-50,50-50s50,22.4,50,50S77.6,329.3,50,329.3z M50,237.9
				c-22.8,0-41.4,18.6-41.4,41.4s18.6,41.4,41.4,41.4s41.4-18.6,41.4-41.4S72.8,237.9,50,237.9z"/>
		</g>
	</g>
	<g id="g1206" inkscape:groupmode="layer" inkscape:label="-red-halo:iter3" style="display:inline;">
		<g id="circle1204">
			<path style="fill:#C52038;" d="M50,329.3c-27.6,0-50-22.4-50-50s22.4-50,50-50s50,22.4,50,50S77.6,329.3,50,329.3z M50,237.9
				c-22.8,0-41.4,18.6-41.4,41.4s18.6,41.4,41.4,41.4s41.4-18.6,41.4-41.4S72.8,237.9,50,237.9z"/>
		</g>
	</g>
	<g id="g1202" inkscape:groupmode="layer" inkscape:label="-green-halo:iter3" style="display:inline;">
		<g id="circle1200">
			<path style="fill:#5E9C42;" d="M50,329.3c-27.6,0-50-22.4-50-50s22.4-50,50-50s50,22.4,50,50S77.6,329.3,50,329.3z M50,237.9
				c-22.8,0-41.4,18.6-41.4,41.4s18.6,41.4,41.4,41.4s41.4-18.6,41.4-41.4S72.8,237.9,50,237.9z"/>
		</g>
	</g>
	<g id="layer18" inkscape:groupmode="layer" inkscape:label="-yellow-halo:iter3" style="display:inline;">
		<g id="circle1178-4">
			<path style="fill:#FBBA16;" d="M50,329.3c-27.6,0-50-22.4-50-50s22.4-50,50-50s50,22.4,50,50S77.6,329.3,50,329.3z M50,237.9
				c-22.8,0-41.4,18.6-41.4,41.4s18.6,41.4,41.4,41.4s41.4-18.6,41.4-41.4S72.8,237.9,50,237.9z"/>
		</g>
	</g>
</g>
<path id="path11976" inkscape:connector-curvature="0" style="fill:#003366;" d="M38.049,18.316c-0.02,0-0.04,0-0.059,0
	c-0.019,0-0.037,0-0.052,0c-0.015,0-0.027,0-0.036,0c-0.009,0-0.014,0-0.014,0l0,0l0,0l0,0l0,0l0,0l0,0l0,0l0,0
	c-0.08,0.02-0.156,0.05-0.223,0.089c-0.068,0.039-0.128,0.087-0.178,0.142c-0.05,0.055-0.09,0.118-0.118,0.187
	s-0.043,0.144-0.043,0.225v0.161v0.161v0.161v0.161l-0.08,3.433l-0.08,3.433l-0.08,3.433l-0.08,3.433l0,0l0,0l0,0l0,0
	c-0.181,0.04-0.341,0.08-0.482,0.12c-0.141,0.04-0.261,0.08-0.361,0.12c-0.1,0.04-0.181,0.08-0.241,0.12
	c-0.06,0.04-0.1,0.08-0.12,0.12l0,0l0,0l0,0l0,0l0,0l0,0l0,0l0,0v5.16v5.16v5.16v5.16c0,0.12,0.015,0.231,0.043,0.329
	c0.028,0.098,0.068,0.183,0.118,0.253c0.05,0.07,0.11,0.125,0.178,0.163s0.143,0.058,0.223,0.058h2.67h2.67h2.67h2.67
	c0.08,0,0.156-0.025,0.223-0.069c0.068-0.044,0.128-0.107,0.178-0.182s0.09-0.163,0.118-0.257c0.028-0.094,0.043-0.195,0.043-0.295
	v-5.14v-5.14v-5.14v-5.14l0,0l0,0l0,0l0,0l0,0l0,0l0,0l0,0c-0.02-0.04-0.06-0.08-0.119-0.12s-0.137-0.08-0.233-0.12
	c-0.095-0.04-0.208-0.08-0.337-0.12s-0.275-0.08-0.436-0.12l-0.02-0.381l-0.02-0.381l-0.02-0.381l-0.02-0.381v-0.1v-0.1v-0.1v-0.1
	c0-0.06-0.015-0.115-0.044-0.166c-0.029-0.05-0.071-0.095-0.126-0.136c-0.055-0.04-0.123-0.075-0.202-0.105
	c-0.079-0.03-0.169-0.055-0.27-0.075l0,0l0,0l0,0l0,0l0,0l0,0l0,0l0,0c-0.02,0-0.04,0-0.06,0c-0.02,0-0.04,0-0.06,0
	c-0.02,0-0.04,0-0.06,0c-0.02,0-0.04,0-0.06,0h-0.04h-0.04h-0.04h-0.04h-0.04h-0.04h-0.04h-0.04c-0.02,0-0.04,0-0.06,0
	c-0.02,0-0.04,0-0.06,0c-0.02,0-0.04,0-0.06,0c-0.02,0-0.04,0-0.06,0l0,0l0,0l0,0l0,0l0,0l0,0l0,0l0,0
	c-0.1,0.02-0.191,0.045-0.27,0.075c-0.079,0.03-0.147,0.065-0.202,0.105c-0.055,0.04-0.098,0.085-0.127,0.136
	c-0.029,0.05-0.044,0.105-0.044,0.166v0.1v0.1v0.1v0.1l-0.02,0.301l-0.02,0.301l-0.02,0.301l-0.02,0.301
	c-0.1,0-0.201-0.005-0.302-0.013c-0.102-0.008-0.205-0.018-0.31-0.028c-0.105-0.01-0.213-0.02-0.325-0.028
	c-0.112-0.008-0.227-0.013-0.348-0.013l-0.02-0.522l-0.02-0.522l-0.02-0.522l-0.02-0.522v-0.1v-0.1v-0.1v-0.1
	c0-0.06-0.015-0.115-0.044-0.166c-0.029-0.05-0.071-0.095-0.126-0.136c-0.055-0.04-0.123-0.075-0.202-0.105
	c-0.079-0.03-0.169-0.055-0.27-0.075l0,0l0,0l0,0l0,0l0,0l0,0l0,0l0,0c-0.02,0-0.04,0-0.06,0c-0.02,0-0.04,0-0.06,0s-0.04,0-0.06,0
	c-0.02,0-0.04,0-0.06,0h-0.04h-0.04h-0.04h-0.04h-0.04h-0.04h-0.04h-0.04c-0.02,0-0.04,0-0.06,0c-0.02,0-0.04,0-0.06,0
	c-0.02,0-0.04,0-0.06,0c-0.02,0-0.04,0-0.06,0l0,0l0,0l0,0l0,0l0,0l0,0l0,0l0,0c-0.1,0.02-0.191,0.045-0.27,0.075
	c-0.079,0.03-0.147,0.065-0.202,0.105c-0.055,0.04-0.098,0.085-0.127,0.136c-0.029,0.05-0.044,0.105-0.044,0.166v0.1v0.1v0.1v0.1
	l-0.02,0.522l-0.02,0.522l-0.02,0.522l-0.02,0.522c-0.12,0-0.236,0-0.348,0.001c-0.112,0.001-0.219,0.004-0.325,0.009
	c-0.105,0.005-0.208,0.013-0.31,0.024c-0.102,0.011-0.202,0.026-0.303,0.046l0,0l0,0l0,0l0,0l-0.06-3.353l-0.06-3.353l-0.06-3.353
	l-0.06-3.353V19.52V19.36v-0.161v-0.161c0-0.08-0.015-0.161-0.043-0.236c-0.028-0.075-0.068-0.146-0.118-0.206
	c-0.05-0.06-0.11-0.11-0.178-0.146c-0.068-0.035-0.143-0.055-0.223-0.055l0,0l0,0l0,0l0,0l0,0l0,0l0,0l0,0c-0.02,0-0.04,0-0.059,0
	s-0.037,0-0.052,0c-0.015,0-0.027,0-0.036,0c-0.009,0-0.014,0-0.014,0h-0.04h-0.04h-0.04h-0.04l-0.06-0.02l-0.06-0.02l-0.06-0.02
	L38.049,18.316z"/>
<path id="path11978" inkscape:connector-curvature="0" style="fill:#FFFFFF;" d="M37.487,37.35h2.128h2.128h2.128h2.128
	c0.04,0,0.08,0.015,0.118,0.043c0.038,0.028,0.073,0.068,0.103,0.118c0.03,0.05,0.055,0.11,0.073,0.178
	c0.018,0.068,0.028,0.143,0.028,0.223s-0.01,0.156-0.028,0.223c-0.018,0.068-0.043,0.128-0.073,0.178
	c-0.03,0.05-0.065,0.09-0.103,0.118s-0.078,0.043-0.118,0.043h-2.128h-2.128h-2.128h-2.128c-0.04,0-0.08-0.015-0.118-0.043
	s-0.073-0.068-0.103-0.118s-0.055-0.11-0.073-0.178c-0.018-0.068-0.028-0.143-0.028-0.223s0.01-0.156,0.028-0.223
	c0.018-0.068,0.043-0.128,0.073-0.178s0.065-0.09,0.103-0.118C37.407,37.365,37.447,37.35,37.487,37.35z"/>
<path id="path11980" inkscape:connector-curvature="0" style="fill:#FFFFFF;" d="M37.487,39.117h2.128h2.128h2.128h2.128
	c0.04,0,0.08,0.015,0.118,0.043c0.038,0.028,0.073,0.068,0.103,0.118c0.03,0.05,0.055,0.11,0.073,0.178
	c0.018,0.068,0.028,0.143,0.028,0.223s-0.01,0.156-0.028,0.223c-0.018,0.068-0.043,0.128-0.073,0.178
	c-0.03,0.05-0.065,0.09-0.103,0.118s-0.078,0.043-0.118,0.043h-2.128h-2.128h-2.128h-2.128c-0.04,0-0.08-0.015-0.118-0.043
	c-0.038-0.028-0.073-0.068-0.103-0.118s-0.055-0.11-0.073-0.178c-0.018-0.068-0.028-0.143-0.028-0.223s0.01-0.156,0.028-0.223
	c0.018-0.068,0.043-0.128,0.073-0.178s0.065-0.09,0.103-0.118S37.447,39.117,37.487,39.117z"/>
<path id="path11982" inkscape:connector-curvature="0" style="fill:#FFFFFF;" d="M37.889,42.651h1.928h1.928h1.928h1.928
	c0.1,0,0.196,0.03,0.282,0.084c0.087,0.054,0.165,0.132,0.23,0.227c0.065,0.095,0.118,0.208,0.154,0.332
	c0.036,0.124,0.056,0.26,0.056,0.4v0.783v0.783v0.783v0.783c0,0.141-0.02,0.276-0.057,0.4s-0.089,0.237-0.155,0.332
	c-0.065,0.096-0.143,0.173-0.229,0.227c-0.087,0.054-0.182,0.084-0.282,0.084h-1.928h-1.928h-1.928h-1.928
	c-0.1,0-0.196-0.03-0.282-0.084s-0.165-0.132-0.23-0.227c-0.065-0.095-0.118-0.208-0.154-0.332c-0.036-0.124-0.056-0.26-0.056-0.4
	v-0.783v-0.783v-0.783v-0.783c0-0.161,0.02-0.306,0.057-0.434c0.036-0.128,0.089-0.238,0.155-0.329
	c0.065-0.09,0.143-0.161,0.229-0.208C37.693,42.676,37.788,42.651,37.889,42.651z"/>
<path id="path11986" inkscape:connector-curvature="0" inkscape:export-filename="C:\Users\Charlotte Abel\Documents\Symbology\Components\communications_responder-communications-3.png" inkscape:export-xdpi="300.00458" inkscape:export-ydpi="300.00458" style="fill:#003366;" d="
	M50.858,18.246l-1.024,0.82l-1.024,0.82l-1.024,0.82l-1.024,0.82l0.471,0.348l0.471,0.348l0.471,0.348l0.471,0.348l-1.885,0.717
	l-1.885,0.717l-1.885,0.717l-1.885,0.717l1.045-0.82l1.045-0.82l1.045-0.82l1.045-0.82c-0.143-0.123-0.292-0.241-0.443-0.356
	c-0.151-0.115-0.305-0.228-0.458-0.341s-0.307-0.225-0.458-0.341c-0.151-0.115-0.3-0.233-0.443-0.356
	c0.635-0.225,1.255-0.461,1.867-0.702s1.217-0.487,1.821-0.732c0.604-0.246,1.209-0.492,1.821-0.732S50.223,18.471,50.858,18.246
	L50.858,18.246L50.858,18.246L50.858,18.246L50.858,18.246z"/>
<path id="path11988" inkscape:connector-curvature="0" style="fill:#003366;" d="M54.019,15.887c-0.017,0-0.034,0-0.05,0
	s-0.031,0-0.043,0c-0.013,0-0.024,0-0.031,0s-0.012,0-0.012,0l0,0l0,0l0,0l0,0l0,0l0,0l0,0l0,0c-0.068,0.017-0.132,0.043-0.19,0.076
	s-0.109,0.074-0.151,0.121c-0.043,0.047-0.077,0.1-0.1,0.159s-0.036,0.122-0.036,0.19v0.136v0.136v0.136v0.136l-0.051,2.916
	l-0.051,2.916l-0.051,2.916l-0.051,2.916l0,0l0,0l0,0l0,0c-0.153,0.034-0.29,0.068-0.409,0.102
	c-0.119,0.034-0.222,0.068-0.307,0.102c-0.085,0.034-0.153,0.068-0.205,0.102s-0.085,0.068-0.102,0.102l0,0l0,0l0,0l0,0l0,0l0,0l0,0
	l0,0v4.383v4.383v4.383v4.383c0,0.102,0.013,0.196,0.036,0.279s0.058,0.156,0.1,0.215c0.043,0.06,0.094,0.107,0.151,0.139
	c0.058,0.032,0.122,0.049,0.19,0.049h2.268h2.268h2.268h2.268c0.068,0,0.132-0.021,0.19-0.059s0.109-0.09,0.151-0.154
	c0.043-0.064,0.077-0.138,0.1-0.219c0.023-0.08,0.036-0.166,0.036-0.251v-4.366v-4.366v-4.366v-4.366l0,0l0,0l0,0l0,0l0,0l0,0l0,0
	l0,0c-0.017-0.034-0.051-0.068-0.101-0.102c-0.05-0.034-0.116-0.068-0.197-0.102c-0.081-0.034-0.177-0.068-0.286-0.102
	c-0.11-0.034-0.233-0.068-0.37-0.102l-0.017-0.324l-0.017-0.324l-0.017-0.324l-0.017-0.324V27.33v-0.085v-0.085v-0.085
	c0-0.051-0.013-0.098-0.037-0.141c-0.024-0.043-0.061-0.081-0.107-0.115c-0.047-0.034-0.105-0.064-0.172-0.09
	c-0.067-0.026-0.144-0.047-0.229-0.064l0,0l0,0l0,0l0,0l0,0l0,0l0,0l0,0c-0.017,0-0.034,0-0.051,0c-0.017,0-0.034,0-0.051,0
	c-0.017,0-0.034,0-0.051,0c-0.017,0-0.034,0-0.051,0h-0.034h-0.034h-0.034h-0.034h-0.034h-0.034h-0.034h-0.034
	c-0.017,0-0.034,0-0.051,0c-0.017,0-0.034,0-0.051,0s-0.034,0-0.051,0c-0.017,0-0.034,0-0.051,0l0,0l0,0l0,0l0,0l0,0l0,0l0,0l0,0
	c-0.085,0.017-0.162,0.038-0.229,0.064c-0.067,0.026-0.125,0.055-0.171,0.09c-0.047,0.034-0.083,0.072-0.108,0.115
	c-0.025,0.043-0.037,0.09-0.037,0.141v0.085v0.085v0.085v0.085l-0.017,0.256l-0.017,0.256l-0.017,0.256l-0.017,0.256
	c-0.085,0-0.171-0.004-0.257-0.011s-0.174-0.015-0.263-0.023c-0.09-0.009-0.181-0.017-0.276-0.023
	c-0.095-0.006-0.193-0.011-0.295-0.011l-0.017-0.443l-0.017-0.443l-0.017-0.443l-0.017-0.443v-0.085v-0.085v-0.085v-0.085
	c0-0.051-0.013-0.098-0.037-0.141c-0.025-0.043-0.061-0.081-0.108-0.115s-0.105-0.064-0.172-0.09s-0.144-0.047-0.229-0.064l0,0l0,0
	l0,0l0,0l0,0l0,0l0,0l0,0c-0.017,0-0.034,0-0.051,0c-0.017,0-0.034,0-0.051,0c-0.017,0-0.034,0-0.051,0c-0.017,0-0.034,0-0.051,0
	h-0.034h-0.034h-0.034h-0.034h-0.034h-0.034h-0.034h-0.034c-0.017,0-0.034,0-0.051,0c-0.017,0-0.034,0-0.051,0
	c-0.017,0-0.034,0-0.051,0c-0.017,0-0.034,0-0.051,0l0,0l0,0l0,0l0,0l0,0l0,0l0,0l0,0c-0.085,0.017-0.162,0.038-0.229,0.064
	s-0.125,0.055-0.172,0.09c-0.047,0.034-0.083,0.072-0.107,0.115c-0.024,0.043-0.037,0.09-0.037,0.141v0.085v0.085v0.085v0.085
	L56.39,27.04l-0.017,0.443l-0.017,0.443l-0.017,0.443c-0.102,0-0.2,0-0.295,0.001c-0.095,0.001-0.186,0.003-0.276,0.008
	c-0.089,0.004-0.177,0.011-0.263,0.02c-0.086,0.009-0.172,0.022-0.257,0.039l0,0l0,0l0,0l0,0l-0.051-2.848l-0.051-2.848
	l-0.051-2.848l-0.051-2.848V16.91v-0.136v-0.136v-0.136c0-0.068-0.013-0.136-0.036-0.2s-0.058-0.124-0.1-0.175
	c-0.043-0.051-0.094-0.094-0.151-0.124c-0.058-0.03-0.122-0.047-0.19-0.047l0,0l0,0l0,0l0,0l0,0l0,0l0,0l0,0
	c-0.017,0-0.034,0-0.05,0s-0.031,0-0.043,0c-0.013,0-0.024,0-0.031,0s-0.012,0-0.012,0h-0.034H54.36h-0.034h-0.034l-0.068-0.017
	l-0.068-0.017l-0.068-0.017L54.019,15.887z"/>
<path id="path11990" inkscape:connector-curvature="0" style="fill:#FFFFFF;" d="M53.61,32.122h1.808h1.808h1.808h1.808
	c0.034,0,0.068,0.013,0.1,0.036c0.032,0.023,0.062,0.058,0.087,0.1c0.026,0.043,0.047,0.094,0.062,0.151s0.023,0.122,0.023,0.19
	s-0.009,0.132-0.023,0.19s-0.036,0.109-0.062,0.151s-0.055,0.077-0.087,0.1s-0.066,0.036-0.1,0.036h-1.808h-1.808h-1.808H53.61
	c-0.034,0-0.068-0.013-0.1-0.036c-0.032-0.023-0.062-0.058-0.087-0.1s-0.047-0.094-0.062-0.151c-0.015-0.058-0.023-0.122-0.023-0.19
	c-0.017-0.068-0.021-0.132-0.015-0.19c0.006-0.058,0.023-0.109,0.049-0.151c0.026-0.043,0.06-0.077,0.1-0.1
	C53.512,32.135,53.559,32.122,53.61,32.122z"/>
<path id="path11992" inkscape:connector-curvature="0" style="fill:#FFFFFF;" d="M53.61,33.555h1.808h1.808h1.808h1.808
	c0.034,0,0.068,0.013,0.1,0.036c0.032,0.023,0.062,0.058,0.087,0.1s0.047,0.094,0.062,0.151s0.023,0.122,0.023,0.19
	s-0.009,0.132-0.023,0.19s-0.036,0.109-0.062,0.151c-0.026,0.043-0.055,0.077-0.087,0.1s-0.066,0.036-0.1,0.036h-1.808h-1.808
	h-1.808H53.61c-0.034,0-0.068-0.013-0.1-0.036c-0.032-0.023-0.062-0.058-0.087-0.1c-0.026-0.043-0.047-0.094-0.062-0.151
	c-0.015-0.058-0.023-0.122-0.023-0.19c-0.017-0.068-0.021-0.132-0.015-0.19c0.006-0.058,0.023-0.109,0.049-0.151s0.06-0.077,0.1-0.1
	C53.512,33.567,53.559,33.555,53.61,33.555z"/>
<path id="path11994" inkscape:connector-curvature="0" style="fill:#FFFFFF;" d="M53.883,36.556h1.637h1.637h1.637h1.637
	c0.085,0,0.166,0.026,0.24,0.071c0.074,0.046,0.14,0.112,0.195,0.193c0.055,0.081,0.1,0.177,0.131,0.283
	c0.031,0.106,0.048,0.221,0.048,0.34v0.665v0.665v0.665v0.665c0,0.119-0.017,0.234-0.048,0.34c-0.031,0.105-0.076,0.201-0.131,0.282
	c-0.055,0.081-0.121,0.147-0.195,0.193c-0.074,0.046-0.155,0.071-0.24,0.071h-1.637h-1.637H55.52h-1.637
	c-0.085,0-0.166-0.026-0.24-0.071c-0.074-0.046-0.14-0.112-0.195-0.193c-0.055-0.081-0.1-0.177-0.131-0.282
	c-0.031-0.105-0.048-0.221-0.048-0.34v-0.665v-0.665v-0.665v-0.665c0-0.119,0.017-0.234,0.048-0.34
	c0.031-0.106,0.076-0.202,0.131-0.283c0.056-0.081,0.122-0.147,0.195-0.193C53.716,36.582,53.797,36.556,53.883,36.556z"/>
<path id="path6793" style="fill:#003366;" d="M32.139,66.56v-1.584v-1.584v-1.584v-1.584h0.553h0.553h0.553h0.553
	c0.143,0,0.275,0.004,0.396,0.012c0.122,0.008,0.233,0.019,0.333,0.034c0.101,0.015,0.191,0.032,0.27,0.053s0.149,0.044,0.207,0.069
	c0.059,0.025,0.115,0.057,0.17,0.094c0.054,0.038,0.107,0.082,0.157,0.132c0.05,0.05,0.098,0.107,0.145,0.17s0.09,0.132,0.132,0.207
	c0.042,0.067,0.078,0.138,0.107,0.214c0.03,0.075,0.054,0.155,0.073,0.239c0.019,0.084,0.032,0.172,0.041,0.264
	c0.009,0.092,0.013,0.189,0.013,0.289c0,0.126-0.008,0.245-0.025,0.358s-0.04,0.22-0.072,0.321c-0.032,0.101-0.07,0.195-0.116,0.283
	c-0.046,0.088-0.098,0.17-0.157,0.245c-0.059,0.075-0.124,0.145-0.195,0.207c-0.071,0.062-0.149,0.118-0.233,0.166
	c-0.084,0.048-0.174,0.089-0.27,0.122s-0.199,0.058-0.308,0.075c0.059,0.042,0.113,0.084,0.165,0.126
	c0.051,0.042,0.1,0.085,0.146,0.129c0.046,0.044,0.09,0.089,0.133,0.136c0.043,0.047,0.085,0.095,0.127,0.145
	c0.034,0.05,0.071,0.109,0.113,0.177c0.042,0.068,0.088,0.144,0.138,0.23s0.105,0.181,0.163,0.287
	c0.059,0.105,0.122,0.22,0.189,0.346l0.159,0.31l0.159,0.31l0.159,0.31l0.159,0.31h-0.31h-0.31h-0.31h-0.31L35.4,66.25l-0.193-0.344
	l-0.193-0.344l-0.193-0.344c-0.067-0.126-0.13-0.239-0.188-0.34c-0.058-0.101-0.112-0.19-0.16-0.268
	c-0.048-0.077-0.091-0.143-0.128-0.198c-0.037-0.055-0.069-0.099-0.094-0.133c-0.025-0.034-0.05-0.063-0.075-0.089
	c-0.025-0.026-0.05-0.049-0.075-0.07c-0.025-0.021-0.05-0.04-0.075-0.058c-0.025-0.018-0.05-0.035-0.075-0.051
	c-0.025-0.008-0.057-0.017-0.093-0.025c-0.037-0.008-0.079-0.015-0.125-0.021c-0.046-0.006-0.096-0.012-0.15-0.015
	c-0.053-0.004-0.11-0.006-0.169-0.006h-0.05h-0.05h-0.05h-0.05v0.662v0.662v0.662v0.662l-0.268-0.008l-0.268-0.008l-0.268-0.009
	L32.139,66.56L32.139,66.56L32.139,66.56L32.139,66.56L32.139,66.56z M33.179,62.871h0.193h0.193h0.193h0.193
	c0.117,0,0.224-0.002,0.321-0.006c0.096-0.004,0.182-0.009,0.258-0.015c0.075-0.006,0.14-0.014,0.195-0.021
	c0.054-0.008,0.098-0.016,0.132-0.025c0.034-0.008,0.065-0.021,0.094-0.037c0.029-0.016,0.057-0.036,0.082-0.059
	c0.025-0.023,0.048-0.049,0.069-0.078c0.021-0.029,0.04-0.06,0.057-0.094c0.017-0.034,0.034-0.069,0.049-0.107
	c0.016-0.038,0.03-0.078,0.043-0.119c0.013-0.042,0.023-0.086,0.03-0.132c0.007-0.046,0.012-0.094,0.012-0.145
	s-0.002-0.098-0.007-0.144c-0.005-0.046-0.012-0.088-0.022-0.128s-0.024-0.076-0.041-0.109c-0.017-0.033-0.038-0.062-0.063-0.087
	c-0.017-0.034-0.038-0.063-0.062-0.089c-0.024-0.026-0.051-0.049-0.081-0.07c-0.03-0.021-0.061-0.04-0.094-0.058
	c-0.033-0.018-0.066-0.035-0.1-0.051c-0.025-0.008-0.061-0.015-0.107-0.019c-0.047-0.005-0.104-0.008-0.173-0.01
	c-0.069-0.002-0.15-0.003-0.243-0.004s-0.198-0.001-0.315-0.001h-0.21h-0.21h-0.21h-0.21v0.402v0.402v0.402v0.402h0.008h0.008h0.008
	H33.179z"/>
<path id="path6795" style="fill:#003366;" d="M39.147,65.084l0.251,0.05l0.251,0.05l0.251,0.05l0.251,0.05
	c-0.034,0.117-0.071,0.226-0.113,0.327c-0.042,0.101-0.088,0.194-0.138,0.28s-0.105,0.164-0.163,0.236
	c-0.059,0.072-0.122,0.137-0.189,0.196c-0.067,0.059-0.138,0.109-0.214,0.151c-0.075,0.042-0.155,0.077-0.239,0.104
	c-0.084,0.027-0.172,0.047-0.264,0.06c-0.092,0.013-0.189,0.02-0.289,0.02c-0.143,0-0.275-0.013-0.397-0.037
	c-0.123-0.025-0.236-0.061-0.341-0.11c-0.105-0.048-0.201-0.108-0.29-0.179c-0.089-0.071-0.171-0.152-0.246-0.244
	c-0.092-0.109-0.172-0.228-0.239-0.358c-0.068-0.13-0.123-0.27-0.167-0.421c-0.044-0.151-0.076-0.312-0.098-0.484
	c-0.021-0.172-0.032-0.354-0.032-0.547s0.01-0.375,0.032-0.547c0.021-0.172,0.054-0.335,0.098-0.488
	c0.044-0.153,0.099-0.297,0.167-0.431s0.147-0.26,0.24-0.378c0.075-0.101,0.157-0.187,0.245-0.259s0.181-0.131,0.279-0.177
	c0.098-0.046,0.202-0.08,0.311-0.102c0.109-0.022,0.222-0.032,0.339-0.032c0.134,0,0.262,0.013,0.383,0.038
	c0.121,0.025,0.235,0.063,0.342,0.113c0.107,0.05,0.206,0.113,0.298,0.189c0.092,0.075,0.176,0.163,0.251,0.264
	c0.084,0.117,0.159,0.247,0.225,0.39c0.066,0.143,0.123,0.298,0.169,0.465c0.046,0.168,0.082,0.348,0.106,0.541
	s0.037,0.398,0.037,0.616v0.034v0.034v0.034v0.034h-0.637h-0.637h-0.637h-0.637c0,0.092,0.006,0.178,0.018,0.258
	c0.012,0.08,0.028,0.155,0.049,0.224s0.046,0.133,0.074,0.192c0.028,0.059,0.06,0.114,0.093,0.164
	c0.042,0.05,0.084,0.094,0.127,0.132s0.087,0.069,0.133,0.094s0.094,0.044,0.146,0.057c0.051,0.013,0.106,0.019,0.165,0.019
	c0.084,0,0.159-0.015,0.227-0.044c0.068-0.029,0.127-0.072,0.18-0.129c0.052-0.057,0.098-0.127,0.136-0.21
	C39.091,65.29,39.122,65.193,39.147,65.084L39.147,65.084L39.147,65.084L39.147,65.084L39.147,65.084z M39.214,63.844
	c0-0.092-0.006-0.178-0.018-0.258c-0.012-0.08-0.028-0.153-0.049-0.22c-0.021-0.067-0.046-0.128-0.074-0.182
	c-0.028-0.054-0.06-0.103-0.093-0.145c-0.034-0.042-0.069-0.08-0.107-0.113c-0.038-0.033-0.078-0.061-0.119-0.084
	c-0.042-0.023-0.086-0.041-0.132-0.053s-0.094-0.018-0.145-0.018c-0.05,0-0.101,0.006-0.15,0.018
	c-0.049,0.012-0.097,0.03-0.144,0.053c-0.046,0.023-0.09,0.051-0.131,0.084c-0.041,0.033-0.079,0.071-0.112,0.113
	c-0.034,0.05-0.065,0.105-0.093,0.163c-0.028,0.059-0.052,0.122-0.071,0.189c-0.019,0.067-0.033,0.138-0.039,0.214
	c-0.007,0.075-0.007,0.155,0.002,0.239h0.369h0.369c0,0,0.185,0,0.369,0C39.03,63.844,39.214,63.844,39.214,63.844z"/>
<path id="path6797" style="fill:#003366;" d="M40.287,65.219l0.251-0.05l0.251-0.05l0.251-0.05l0.251-0.05
	c0.025,0.117,0.061,0.222,0.107,0.313c0.046,0.091,0.103,0.169,0.17,0.232c0.067,0.063,0.145,0.111,0.233,0.144
	c0.088,0.032,0.187,0.049,0.295,0.049c0.059,0,0.113-0.002,0.164-0.007s0.098-0.012,0.142-0.023c0.044-0.01,0.085-0.024,0.123-0.041
	c0.038-0.017,0.074-0.038,0.108-0.063c0.034-0.025,0.061-0.05,0.083-0.076c0.022-0.026,0.039-0.053,0.051-0.083
	c0.013-0.029,0.021-0.061,0.026-0.095c0.005-0.035,0.007-0.072,0.007-0.114c0-0.025-0.002-0.048-0.006-0.07
	c-0.004-0.021-0.009-0.041-0.015-0.06c-0.007-0.019-0.014-0.037-0.022-0.054c-0.008-0.017-0.016-0.034-0.025-0.051
	c-0.017-0.017-0.036-0.031-0.057-0.045c-0.021-0.014-0.046-0.026-0.073-0.039s-0.058-0.025-0.092-0.039
	c-0.034-0.014-0.072-0.028-0.114-0.045c-0.201-0.05-0.386-0.103-0.553-0.156c-0.167-0.053-0.317-0.106-0.449-0.159
	c-0.132-0.052-0.246-0.104-0.342-0.152c-0.096-0.049-0.173-0.095-0.232-0.137c-0.067-0.059-0.126-0.124-0.176-0.195
	c-0.05-0.071-0.092-0.149-0.126-0.233s-0.059-0.174-0.075-0.27c-0.017-0.096-0.025-0.199-0.025-0.308s0.008-0.212,0.025-0.309
	c0.017-0.097,0.042-0.188,0.075-0.274c0.034-0.086,0.075-0.166,0.126-0.242c0.05-0.076,0.109-0.147,0.176-0.215
	c0.067-0.067,0.143-0.124,0.226-0.171c0.083-0.047,0.175-0.085,0.273-0.114c0.099-0.029,0.204-0.05,0.317-0.064
	s0.232-0.02,0.358-0.02c0.126,0,0.243,0.006,0.353,0.019c0.11,0.013,0.211,0.031,0.306,0.057s0.181,0.057,0.261,0.094
	c0.08,0.038,0.153,0.082,0.22,0.132c0.067,0.05,0.128,0.107,0.183,0.17c0.055,0.063,0.104,0.134,0.148,0.211
	c0.044,0.077,0.083,0.162,0.117,0.255s0.064,0.193,0.089,0.302l-0.235,0.05l-0.235,0.05l-0.235,0.05l-0.235,0.05
	c-0.017-0.092-0.046-0.174-0.086-0.245c-0.04-0.071-0.092-0.13-0.152-0.179c-0.061-0.048-0.131-0.085-0.209-0.11
	c-0.078-0.025-0.164-0.037-0.256-0.037c-0.059,0-0.115,0.002-0.169,0.006s-0.104,0.01-0.15,0.019
	c-0.046,0.008-0.088,0.019-0.125,0.031s-0.068,0.027-0.093,0.044c-0.025,0.017-0.048,0.036-0.069,0.056s-0.038,0.042-0.053,0.066
	c-0.015,0.023-0.026,0.047-0.034,0.072c-0.008,0.025-0.012,0.05-0.012,0.075c0,0.025,0.002,0.05,0.007,0.074
	c0.005,0.024,0.012,0.047,0.023,0.068s0.024,0.04,0.041,0.056c0.017,0.016,0.038,0.028,0.063,0.037
	c0.025,0.017,0.063,0.036,0.113,0.057c0.05,0.021,0.112,0.044,0.185,0.069c0.073,0.025,0.158,0.052,0.254,0.082
	c0.096,0.029,0.203,0.061,0.32,0.094c0.143,0.042,0.272,0.084,0.39,0.127s0.224,0.087,0.318,0.133
	c0.094,0.046,0.177,0.094,0.249,0.146c0.072,0.051,0.133,0.106,0.183,0.165c0.05,0.059,0.094,0.119,0.132,0.183
	s0.069,0.131,0.094,0.202c0.025,0.071,0.044,0.147,0.057,0.227c0.013,0.081,0.019,0.167,0.019,0.259c0,0.109-0.01,0.214-0.031,0.314
	s-0.051,0.197-0.091,0.289s-0.089,0.18-0.147,0.264c-0.058,0.084-0.125,0.163-0.201,0.239c-0.075,0.075-0.159,0.14-0.251,0.195
	c-0.092,0.055-0.191,0.1-0.298,0.136c-0.107,0.036-0.221,0.062-0.342,0.079s-0.249,0.026-0.383,0.026
	c-0.126,0-0.243-0.008-0.354-0.025c-0.111-0.016-0.214-0.04-0.313-0.072c-0.098-0.032-0.192-0.07-0.281-0.116
	c-0.09-0.046-0.176-0.098-0.259-0.157c-0.067-0.042-0.13-0.096-0.188-0.162s-0.11-0.142-0.156-0.228
	c-0.046-0.086-0.086-0.181-0.118-0.284C40.329,65.447,40.304,65.336,40.287,65.219L40.287,65.219L40.287,65.219L40.287,65.219
	L40.287,65.219z"/>
<path id="path6799" style="fill:#003366;" d="M44.244,61.966h0.235h0.235h0.235h0.235v0.168v0.168v0.168v0.168
	c0.034-0.059,0.069-0.115,0.107-0.169c0.038-0.054,0.078-0.105,0.119-0.153s0.086-0.093,0.132-0.135
	c0.046-0.041,0.094-0.079,0.145-0.113c0.05-0.034,0.103-0.063,0.157-0.088s0.109-0.046,0.166-0.063
	c0.057-0.017,0.114-0.029,0.173-0.038s0.117-0.013,0.176-0.013c0.109,0,0.214,0.013,0.314,0.038
	c0.101,0.025,0.197,0.063,0.289,0.113c0.092,0.05,0.18,0.113,0.264,0.189c0.084,0.075,0.163,0.163,0.239,0.264
	c0.075,0.101,0.143,0.214,0.201,0.338c0.058,0.125,0.107,0.261,0.147,0.408c0.04,0.147,0.07,0.304,0.09,0.47
	s0.031,0.343,0.031,0.527c0,0.201-0.01,0.39-0.031,0.566s-0.051,0.34-0.09,0.49c-0.04,0.151-0.089,0.289-0.147,0.415
	c-0.058,0.126-0.125,0.239-0.201,0.34c-0.075,0.101-0.155,0.191-0.239,0.269c-0.084,0.079-0.172,0.146-0.264,0.2
	c-0.092,0.054-0.189,0.096-0.289,0.125s-0.205,0.043-0.314,0.043c-0.05,0-0.098-0.002-0.146-0.007
	c-0.047-0.005-0.093-0.012-0.139-0.023c-0.046-0.01-0.092-0.024-0.139-0.041c-0.047-0.017-0.095-0.038-0.146-0.063
	c-0.042-0.025-0.084-0.054-0.126-0.089c-0.042-0.034-0.085-0.073-0.13-0.117c-0.044-0.044-0.089-0.093-0.136-0.148
	s-0.095-0.116-0.145-0.183v0.578v0.578v0.578v0.578h-0.251h-0.251h-0.251h-0.251c0,0,0-0.396,0-0.99c0-0.594,0-1.386,0-2.178
	c0-0.792,0-1.584,0-2.178S44.244,61.966,44.244,61.966z M45.216,64.179c0,0.126,0.004,0.245,0.013,0.357s0.022,0.217,0.041,0.313
	c0.019,0.096,0.043,0.184,0.073,0.263s0.066,0.148,0.108,0.206c0.042,0.059,0.086,0.111,0.132,0.157
	c0.046,0.046,0.094,0.084,0.145,0.116c0.05,0.031,0.103,0.055,0.157,0.072s0.111,0.025,0.17,0.025c0.059,0,0.115-0.006,0.169-0.019
	c0.054-0.013,0.105-0.033,0.153-0.06c0.048-0.027,0.093-0.062,0.135-0.104c0.041-0.042,0.079-0.093,0.113-0.151
	c0.042-0.059,0.078-0.126,0.107-0.201s0.054-0.159,0.073-0.251c0.019-0.092,0.033-0.193,0.041-0.302
	c0.009-0.109,0.013-0.226,0.013-0.352s-0.004-0.241-0.013-0.347c-0.009-0.106-0.022-0.202-0.041-0.29
	c-0.019-0.088-0.043-0.168-0.073-0.24c-0.03-0.072-0.065-0.137-0.107-0.196c-0.042-0.059-0.086-0.109-0.132-0.151
	s-0.093-0.077-0.141-0.104c-0.048-0.027-0.097-0.047-0.147-0.06c-0.05-0.013-0.1-0.02-0.15-0.02c-0.059,0-0.115,0.006-0.17,0.019
	c-0.054,0.013-0.107,0.033-0.157,0.06s-0.098,0.062-0.145,0.104c-0.046,0.042-0.09,0.093-0.132,0.151
	c-0.034,0.05-0.065,0.109-0.093,0.176c-0.028,0.067-0.053,0.143-0.074,0.226s-0.038,0.176-0.049,0.277
	C45.223,63.953,45.216,64.062,45.216,64.179L45.216,64.179L45.216,64.179L45.216,64.179L45.216,64.179z"/>
<path id="path6801" style="fill:#003366;" d="M48.1,64.179c0-0.109,0.006-0.218,0.018-0.326c0.012-0.108,0.03-0.215,0.053-0.32
	c0.023-0.105,0.051-0.207,0.084-0.307c0.033-0.1,0.071-0.196,0.112-0.288c0.042-0.092,0.088-0.178,0.138-0.258
	c0.05-0.08,0.105-0.155,0.163-0.224c0.059-0.069,0.122-0.133,0.189-0.192c0.067-0.059,0.138-0.114,0.214-0.164
	c0.075-0.05,0.151-0.092,0.227-0.127c0.076-0.035,0.154-0.062,0.234-0.083c0.08-0.021,0.161-0.036,0.246-0.045
	c0.085-0.009,0.173-0.014,0.265-0.014c0.151,0,0.293,0.015,0.428,0.044c0.135,0.029,0.262,0.073,0.381,0.132
	c0.119,0.059,0.231,0.132,0.337,0.22c0.105,0.088,0.204,0.191,0.296,0.308c0.084,0.117,0.157,0.241,0.22,0.37
	c0.063,0.129,0.115,0.265,0.157,0.405c0.042,0.14,0.073,0.286,0.094,0.437s0.031,0.305,0.031,0.465c0,0.117-0.006,0.233-0.018,0.345
	c-0.012,0.113-0.03,0.223-0.053,0.329s-0.051,0.211-0.084,0.311c-0.033,0.1-0.071,0.197-0.112,0.289
	c-0.042,0.092-0.088,0.18-0.138,0.264c-0.05,0.083-0.105,0.162-0.163,0.235c-0.059,0.073-0.122,0.141-0.189,0.204
	c-0.067,0.062-0.138,0.119-0.214,0.169s-0.151,0.094-0.227,0.132s-0.154,0.069-0.234,0.094c-0.08,0.025-0.161,0.044-0.246,0.057
	c-0.085,0.013-0.173,0.019-0.265,0.019c-0.143,0-0.279-0.013-0.409-0.038c-0.13-0.026-0.254-0.065-0.371-0.117
	c-0.117-0.052-0.228-0.118-0.333-0.199c-0.105-0.08-0.203-0.174-0.295-0.283c-0.092-0.109-0.172-0.228-0.239-0.359
	c-0.068-0.13-0.123-0.272-0.167-0.425c-0.044-0.153-0.077-0.318-0.098-0.494C48.11,64.569,48.1,64.38,48.1,64.179z M49.106,64.246
	c0,0.117,0.006,0.226,0.018,0.327c0.012,0.101,0.03,0.194,0.053,0.28c0.023,0.086,0.051,0.164,0.084,0.236
	c0.033,0.072,0.071,0.137,0.113,0.196c0.042,0.059,0.088,0.111,0.138,0.157c0.05,0.046,0.103,0.084,0.16,0.116
	c0.057,0.032,0.116,0.056,0.179,0.072c0.062,0.016,0.127,0.025,0.194,0.025c0.059,0,0.117-0.008,0.175-0.025
	c0.058-0.016,0.114-0.04,0.169-0.072s0.107-0.07,0.156-0.116c0.049-0.046,0.095-0.098,0.137-0.157
	c0.042-0.059,0.08-0.126,0.113-0.201c0.033-0.075,0.061-0.158,0.084-0.248c0.023-0.09,0.041-0.188,0.053-0.292
	c0.012-0.104,0.018-0.215,0.018-0.333c0-0.117-0.006-0.226-0.018-0.327c-0.012-0.101-0.03-0.194-0.053-0.28
	c-0.023-0.086-0.051-0.164-0.084-0.236c-0.033-0.072-0.071-0.137-0.113-0.196c-0.042-0.059-0.088-0.111-0.137-0.157
	c-0.049-0.046-0.102-0.084-0.156-0.116c-0.054-0.031-0.111-0.055-0.169-0.072c-0.058-0.016-0.116-0.025-0.175-0.025
	s-0.117,0.008-0.175,0.025s-0.114,0.04-0.169,0.072c-0.054,0.032-0.107,0.07-0.156,0.116c-0.049,0.046-0.095,0.098-0.137,0.157
	c-0.05,0.067-0.094,0.138-0.132,0.215s-0.069,0.158-0.094,0.246s-0.044,0.182-0.057,0.284C49.112,64.02,49.106,64.129,49.106,64.246
	L49.106,64.246L49.106,64.246L49.106,64.246L49.106,64.246z"/>
<path id="path6803" style="fill:#003366;" d="M55.779,66.56h-0.251h-0.251h-0.251h-0.251v-0.587v-0.587v-0.587v-0.587
	c0-0.117-0.002-0.224-0.006-0.321c-0.004-0.097-0.009-0.184-0.015-0.262c-0.006-0.077-0.013-0.146-0.021-0.205
	c-0.008-0.059-0.016-0.109-0.025-0.151c-0.008-0.042-0.019-0.08-0.031-0.114c-0.013-0.035-0.027-0.066-0.044-0.095
	c-0.017-0.029-0.036-0.057-0.057-0.083s-0.044-0.051-0.069-0.076c-0.025-0.017-0.05-0.034-0.076-0.049
	c-0.026-0.016-0.052-0.03-0.079-0.043c-0.027-0.013-0.056-0.023-0.086-0.03c-0.03-0.007-0.061-0.012-0.095-0.012
	c-0.042,0-0.084,0.004-0.125,0.012c-0.041,0.008-0.082,0.019-0.122,0.034c-0.04,0.015-0.079,0.033-0.116,0.053
	s-0.073,0.044-0.106,0.069c-0.034,0.025-0.065,0.054-0.094,0.087c-0.029,0.032-0.057,0.068-0.082,0.106
	c-0.025,0.038-0.048,0.078-0.069,0.118c-0.021,0.041-0.04,0.083-0.057,0.125c-0.017,0.05-0.029,0.109-0.039,0.177
	c-0.009,0.068-0.016,0.146-0.02,0.234s-0.006,0.187-0.007,0.297c-0.001,0.11-0.001,0.232-0.001,0.366v0.52v0.52v0.52v0.52h-0.251
	h-0.251h-0.251h-0.251v-1.148v-1.148v-1.148v-1.148h0.235h0.235h0.235h0.235V62.1v0.168v0.168v0.168
	c0.042-0.067,0.084-0.13,0.127-0.188s0.087-0.112,0.133-0.16c0.046-0.048,0.094-0.091,0.146-0.128s0.106-0.069,0.165-0.094
	c0.05-0.034,0.103-0.063,0.157-0.088c0.054-0.025,0.111-0.046,0.17-0.063c0.059-0.017,0.119-0.029,0.182-0.038
	c0.063-0.008,0.128-0.013,0.195-0.013c0.075,0,0.147,0.004,0.214,0.013s0.132,0.023,0.192,0.042
	c0.061,0.019,0.118,0.043,0.173,0.073c0.055,0.03,0.107,0.065,0.158,0.107c0.05,0.034,0.096,0.071,0.138,0.113
	c0.042,0.041,0.08,0.087,0.113,0.135c0.034,0.048,0.063,0.1,0.088,0.154c0.025,0.054,0.046,0.11,0.063,0.169
	c0.017,0.059,0.031,0.124,0.044,0.195c0.013,0.072,0.023,0.15,0.031,0.236c0.008,0.086,0.015,0.179,0.019,0.28
	c0.004,0.101,0.006,0.21,0.006,0.327v0.721v0.721v0.721V66.56L55.779,66.56L55.779,66.56L55.779,66.56L55.779,66.56z"/>
<path id="path6805" style="fill:#003366;" d="M59.869,66.56h-0.235H59.4h-0.235h-0.235v-0.168v-0.168v-0.168v-0.168
	c-0.042,0.067-0.084,0.13-0.126,0.188s-0.085,0.112-0.13,0.16c-0.044,0.048-0.089,0.091-0.136,0.128s-0.095,0.069-0.145,0.094
	c-0.05,0.034-0.103,0.063-0.156,0.088c-0.053,0.025-0.108,0.046-0.162,0.063c-0.054,0.017-0.109,0.029-0.162,0.038
	c-0.053,0.008-0.106,0.013-0.156,0.013c-0.109,0-0.214-0.013-0.314-0.038c-0.101-0.026-0.197-0.065-0.289-0.117
	c-0.092-0.052-0.18-0.118-0.264-0.199c-0.084-0.08-0.163-0.174-0.239-0.283c-0.075-0.109-0.143-0.226-0.201-0.354
	s-0.107-0.265-0.147-0.414s-0.07-0.309-0.091-0.483s-0.031-0.36-0.031-0.561c0-0.193,0.01-0.375,0.031-0.546s0.051-0.332,0.091-0.48
	c0.04-0.149,0.089-0.286,0.147-0.411c0.058-0.125,0.125-0.239,0.201-0.339s0.155-0.189,0.239-0.264
	c0.084-0.075,0.173-0.138,0.268-0.189s0.194-0.088,0.299-0.113c0.105-0.025,0.216-0.038,0.334-0.038c0.05,0,0.101,0.004,0.151,0.012
	s0.101,0.019,0.151,0.034c0.05,0.015,0.101,0.032,0.151,0.053c0.05,0.02,0.101,0.043,0.151,0.069
	c0.05,0.025,0.098,0.054,0.145,0.088c0.046,0.033,0.09,0.07,0.132,0.11c0.042,0.04,0.082,0.083,0.12,0.128
	c0.038,0.046,0.074,0.094,0.107,0.144v-0.57v-0.57v-0.57v-0.57h0.251H59.4h0.251h0.251v1.593v1.593v1.593v1.593h-0.008h-0.008
	c0,0-0.004,0-0.008,0C59.874,66.56,59.869,66.56,59.869,66.56z M57.22,64.146c0,0.101,0.002,0.197,0.006,0.288
	c0.004,0.091,0.01,0.177,0.019,0.257s0.019,0.153,0.031,0.219c0.013,0.066,0.027,0.125,0.044,0.175
	c0.017,0.05,0.036,0.099,0.057,0.144c0.021,0.046,0.044,0.088,0.069,0.128c0.025,0.04,0.052,0.077,0.082,0.11
	c0.029,0.033,0.061,0.062,0.094,0.087c0.034,0.025,0.067,0.048,0.101,0.069c0.034,0.02,0.069,0.038,0.104,0.053
	c0.036,0.015,0.072,0.026,0.111,0.034s0.078,0.012,0.12,0.012c0.059,0,0.113-0.008,0.165-0.025c0.051-0.016,0.1-0.04,0.146-0.072
	c0.046-0.032,0.09-0.07,0.133-0.116s0.085-0.098,0.127-0.157c0.042-0.059,0.078-0.126,0.107-0.201
	c0.03-0.075,0.054-0.158,0.073-0.248c0.019-0.09,0.033-0.188,0.042-0.292c0.009-0.104,0.013-0.215,0.013-0.333
	c0-0.134-0.004-0.258-0.013-0.371c-0.009-0.114-0.023-0.217-0.042-0.312s-0.043-0.179-0.073-0.255
	c-0.03-0.076-0.065-0.143-0.107-0.202c-0.042-0.059-0.086-0.109-0.132-0.151c-0.046-0.042-0.094-0.077-0.145-0.104
	c-0.05-0.027-0.103-0.047-0.157-0.06c-0.054-0.013-0.111-0.02-0.17-0.02c-0.059,0-0.115,0.006-0.17,0.019s-0.107,0.033-0.157,0.06
	c-0.05,0.027-0.098,0.062-0.145,0.104s-0.09,0.093-0.132,0.151c-0.034,0.05-0.063,0.109-0.088,0.176
	c-0.025,0.067-0.046,0.143-0.063,0.226c-0.017,0.084-0.03,0.176-0.038,0.277S57.22,64.028,57.22,64.146L57.22,64.146L57.22,64.146
	L57.22,64.146L57.22,64.146z"/>
<path id="path6807" style="fill:#003366;" d="M62.652,65.084l0.251,0.05l0.251,0.05l0.251,0.05l0.251,0.05
	c-0.034,0.117-0.071,0.226-0.113,0.327c-0.042,0.101-0.088,0.194-0.138,0.28s-0.105,0.164-0.163,0.236
	c-0.059,0.072-0.122,0.137-0.189,0.196c-0.067,0.059-0.138,0.109-0.214,0.151s-0.155,0.077-0.239,0.104s-0.172,0.047-0.264,0.06
	c-0.092,0.013-0.189,0.02-0.289,0.02c-0.143,0-0.275-0.013-0.397-0.037s-0.236-0.061-0.341-0.11s-0.201-0.108-0.29-0.179
	c-0.089-0.071-0.171-0.152-0.246-0.244c-0.092-0.109-0.172-0.228-0.239-0.358s-0.123-0.27-0.167-0.421
	c-0.044-0.151-0.077-0.312-0.098-0.484c-0.021-0.172-0.032-0.354-0.032-0.547s0.01-0.375,0.032-0.547
	c0.022-0.172,0.054-0.335,0.098-0.488c0.044-0.153,0.099-0.297,0.167-0.431s0.147-0.26,0.239-0.378
	c0.075-0.101,0.157-0.187,0.245-0.259c0.087-0.072,0.181-0.131,0.279-0.177c0.099-0.046,0.202-0.08,0.311-0.102
	c0.108-0.022,0.222-0.032,0.339-0.032c0.134,0,0.262,0.013,0.383,0.038c0.121,0.025,0.235,0.063,0.342,0.113
	c0.107,0.05,0.207,0.113,0.298,0.189c0.092,0.075,0.175,0.163,0.251,0.264c0.084,0.117,0.159,0.247,0.225,0.39
	c0.066,0.143,0.123,0.298,0.169,0.465c0.046,0.168,0.082,0.348,0.106,0.541s0.037,0.398,0.037,0.616v0.034v0.034v0.034v0.034h-0.645
	h-0.645h-0.645h-0.645c0,0.092,0.006,0.178,0.018,0.258c0.012,0.08,0.028,0.155,0.049,0.224s0.046,0.133,0.074,0.192
	c0.028,0.059,0.06,0.114,0.093,0.164c0.042,0.05,0.084,0.094,0.127,0.132s0.087,0.069,0.133,0.094s0.094,0.044,0.146,0.057
	c0.051,0.013,0.106,0.019,0.165,0.019c0.084,0,0.161-0.015,0.232-0.044c0.071-0.029,0.135-0.072,0.191-0.129
	c0.056-0.057,0.106-0.127,0.147-0.21S62.627,65.193,62.652,65.084L62.652,65.084L62.652,65.084L62.652,65.084L62.652,65.084z
	 M62.686,63.844c0-0.092-0.006-0.178-0.018-0.258c-0.012-0.08-0.028-0.153-0.049-0.22c-0.021-0.067-0.046-0.128-0.074-0.182
	c-0.028-0.054-0.06-0.103-0.093-0.145c-0.034-0.042-0.069-0.08-0.107-0.113c-0.038-0.033-0.078-0.061-0.119-0.084
	c-0.042-0.023-0.086-0.041-0.132-0.053c-0.046-0.012-0.094-0.018-0.145-0.018s-0.101,0.006-0.15,0.018
	c-0.049,0.012-0.097,0.03-0.144,0.053s-0.09,0.051-0.131,0.084c-0.041,0.033-0.079,0.071-0.112,0.112
	c-0.034,0.05-0.065,0.105-0.093,0.163c-0.028,0.059-0.052,0.122-0.071,0.189c-0.019,0.067-0.032,0.138-0.039,0.214
	c-0.007,0.075-0.007,0.155,0.001,0.239h0.369h0.369c0,0,0.184,0,0.369,0C62.502,63.844,62.686,63.844,62.686,63.844z"/>
<path id="path6809" style="fill:#003366;" d="M65.067,66.56h-0.251h-0.251h-0.251h-0.251v-1.148v-1.148v-1.148v-1.148h0.235h0.235
	h0.235H65v0.159v0.159v0.159v0.159c0.042-0.075,0.082-0.145,0.12-0.207c0.038-0.063,0.075-0.119,0.111-0.17
	c0.036-0.05,0.07-0.094,0.104-0.132c0.034-0.038,0.068-0.069,0.101-0.094c0.034-0.025,0.067-0.048,0.101-0.069
	s0.069-0.038,0.104-0.053c0.036-0.015,0.072-0.026,0.111-0.034c0.038-0.008,0.078-0.012,0.12-0.012c0.059,0,0.115,0.004,0.17,0.013
	c0.055,0.009,0.108,0.023,0.161,0.042c0.052,0.019,0.104,0.043,0.155,0.073c0.051,0.03,0.101,0.065,0.152,0.107l-0.075,0.268
	l-0.075,0.268l-0.075,0.268l-0.075,0.268c-0.042-0.034-0.084-0.063-0.125-0.088C66.04,63.026,66,63.005,65.96,62.989
	c-0.04-0.017-0.079-0.029-0.116-0.038c-0.037-0.008-0.073-0.013-0.106-0.013s-0.067,0.004-0.1,0.012
	c-0.033,0.008-0.066,0.019-0.097,0.034c-0.032,0.015-0.062,0.033-0.091,0.053s-0.056,0.044-0.081,0.069
	c-0.025,0.025-0.048,0.057-0.07,0.094c-0.021,0.037-0.041,0.08-0.06,0.129c-0.019,0.048-0.037,0.102-0.054,0.16
	c-0.017,0.058-0.034,0.121-0.051,0.188c-0.008,0.067-0.017,0.149-0.025,0.245c-0.008,0.096-0.015,0.206-0.022,0.33
	c-0.006,0.124-0.011,0.261-0.015,0.411s-0.006,0.314-0.006,0.49v0.352v0.352v0.352V66.56L65.067,66.56L65.067,66.56L65.067,66.56
	L65.067,66.56z"/>
<path id="path6811" style="fill:#003366;" d="M25.969,73.065l0.251,0.101l0.251,0.101l0.251,0.101l0.251,0.101
	c-0.042,0.176-0.09,0.342-0.145,0.496c-0.054,0.154-0.115,0.297-0.182,0.426c-0.067,0.13-0.14,0.247-0.22,0.351
	c-0.08,0.104-0.166,0.194-0.258,0.269c-0.092,0.084-0.191,0.157-0.295,0.22c-0.104,0.063-0.214,0.115-0.329,0.157
	c-0.115,0.042-0.236,0.073-0.361,0.094c-0.125,0.021-0.255,0.031-0.389,0.031c-0.168,0-0.329-0.017-0.483-0.05
	c-0.154-0.033-0.301-0.082-0.439-0.147c-0.138-0.065-0.268-0.146-0.389-0.242c-0.121-0.096-0.232-0.207-0.332-0.333
	c-0.117-0.151-0.222-0.314-0.313-0.491c-0.091-0.177-0.169-0.366-0.232-0.57c-0.063-0.203-0.111-0.42-0.144-0.651
	c-0.032-0.231-0.049-0.476-0.049-0.736c0-0.268,0.015-0.522,0.045-0.761c0.03-0.239,0.075-0.465,0.136-0.676
	c0.061-0.212,0.137-0.41,0.23-0.595c0.093-0.185,0.202-0.357,0.327-0.516c0.109-0.134,0.226-0.251,0.352-0.352
	c0.126-0.101,0.26-0.184,0.402-0.251s0.293-0.117,0.453-0.151s0.327-0.05,0.503-0.05c0.143,0,0.281,0.013,0.414,0.038
	c0.134,0.025,0.262,0.063,0.386,0.113s0.242,0.113,0.355,0.189s0.22,0.163,0.32,0.264c0.067,0.067,0.13,0.145,0.189,0.232
	c0.059,0.087,0.113,0.185,0.163,0.292c0.05,0.107,0.096,0.223,0.138,0.349c0.042,0.125,0.08,0.259,0.113,0.402l-0.26,0.075
	l-0.26,0.075l-0.26,0.075l-0.26,0.075c-0.017-0.084-0.038-0.163-0.063-0.238c-0.025-0.075-0.054-0.145-0.088-0.21
	c-0.034-0.065-0.071-0.125-0.113-0.179s-0.088-0.102-0.138-0.144c-0.05-0.05-0.103-0.092-0.157-0.127
	c-0.054-0.035-0.111-0.062-0.17-0.083s-0.119-0.036-0.182-0.045c-0.063-0.009-0.128-0.014-0.195-0.014
	c-0.092,0-0.182,0.01-0.269,0.031s-0.171,0.052-0.25,0.094c-0.08,0.042-0.155,0.094-0.225,0.157c-0.07,0.063-0.135,0.136-0.194,0.22
	c-0.059,0.084-0.111,0.18-0.157,0.29s-0.084,0.232-0.116,0.368c-0.031,0.136-0.055,0.286-0.072,0.45
	c-0.016,0.164-0.025,0.342-0.025,0.535c0,0.201,0.008,0.388,0.025,0.56c0.016,0.172,0.04,0.329,0.072,0.472
	c0.031,0.143,0.07,0.27,0.116,0.384c0.046,0.113,0.098,0.212,0.157,0.295c0.059,0.084,0.121,0.157,0.188,0.22
	s0.138,0.115,0.214,0.157c0.075,0.042,0.155,0.073,0.239,0.094s0.172,0.031,0.264,0.031c0.067,0,0.132-0.006,0.195-0.019
	c0.063-0.013,0.124-0.033,0.182-0.06c0.059-0.027,0.115-0.062,0.17-0.104c0.054-0.042,0.107-0.093,0.157-0.151
	c0.067-0.059,0.126-0.124,0.178-0.195s0.097-0.15,0.137-0.236c0.04-0.086,0.075-0.179,0.105-0.28
	C25.917,73.291,25.944,73.182,25.969,73.065z"/>
<path id="path6813" style="fill:#003366;" d="M27.244,73.031c0-0.109,0.006-0.218,0.018-0.326c0.012-0.108,0.03-0.215,0.053-0.32
	c0.023-0.105,0.051-0.207,0.084-0.307s0.071-0.196,0.113-0.288s0.088-0.178,0.138-0.258s0.105-0.155,0.163-0.224
	c0.059-0.069,0.122-0.133,0.189-0.192s0.138-0.114,0.214-0.164c0.075-0.05,0.151-0.092,0.227-0.127
	c0.076-0.035,0.154-0.062,0.234-0.083c0.08-0.021,0.161-0.036,0.246-0.045c0.085-0.009,0.173-0.014,0.265-0.014
	c0.151,0,0.293,0.015,0.428,0.044c0.135,0.029,0.261,0.073,0.381,0.132c0.12,0.059,0.232,0.132,0.337,0.22
	c0.105,0.088,0.204,0.191,0.296,0.308c0.084,0.117,0.157,0.241,0.22,0.37c0.063,0.129,0.115,0.265,0.157,0.405
	c0.042,0.14,0.073,0.286,0.094,0.436c0.021,0.15,0.031,0.306,0.031,0.465c0,0.117-0.006,0.233-0.018,0.345s-0.03,0.223-0.053,0.329
	s-0.051,0.211-0.084,0.311c-0.033,0.1-0.071,0.197-0.113,0.289s-0.088,0.18-0.138,0.264s-0.105,0.162-0.163,0.235
	c-0.059,0.073-0.122,0.141-0.189,0.204c-0.067,0.062-0.138,0.119-0.214,0.169c-0.075,0.05-0.151,0.094-0.227,0.132
	c-0.076,0.038-0.154,0.069-0.234,0.094c-0.08,0.025-0.161,0.044-0.246,0.057s-0.173,0.019-0.265,0.019
	c-0.143,0-0.279-0.013-0.409-0.038c-0.13-0.026-0.254-0.064-0.371-0.117s-0.228-0.118-0.333-0.199
	c-0.105-0.08-0.203-0.174-0.295-0.283c-0.092-0.109-0.172-0.228-0.239-0.359c-0.068-0.13-0.123-0.272-0.167-0.425
	c-0.044-0.153-0.076-0.318-0.098-0.494C27.254,73.421,27.244,73.232,27.244,73.031L27.244,73.031L27.244,73.031L27.244,73.031
	L27.244,73.031z M28.25,73.098c0,0.117,0.006,0.226,0.018,0.327s0.03,0.194,0.053,0.28c0.023,0.086,0.051,0.165,0.084,0.236
	c0.033,0.072,0.071,0.137,0.113,0.195s0.088,0.111,0.138,0.157c0.05,0.046,0.103,0.084,0.16,0.116
	c0.056,0.032,0.116,0.056,0.179,0.072c0.062,0.016,0.127,0.025,0.194,0.025c0.059,0,0.117-0.008,0.175-0.025
	c0.058-0.016,0.114-0.04,0.169-0.072c0.054-0.032,0.107-0.07,0.156-0.116s0.095-0.098,0.137-0.157s0.08-0.126,0.113-0.201
	s0.061-0.158,0.084-0.248c0.023-0.09,0.041-0.187,0.053-0.292c0.012-0.104,0.018-0.215,0.018-0.333c0-0.117-0.006-0.226-0.018-0.327
	c-0.012-0.101-0.03-0.194-0.053-0.28c-0.023-0.086-0.051-0.164-0.084-0.236s-0.071-0.137-0.113-0.196s-0.088-0.111-0.137-0.157
	s-0.102-0.084-0.156-0.116c-0.054-0.032-0.111-0.056-0.169-0.072c-0.058-0.016-0.116-0.024-0.175-0.024s-0.117,0.008-0.175,0.025
	c-0.058,0.016-0.114,0.04-0.169,0.072c-0.054,0.032-0.107,0.07-0.156,0.116c-0.049,0.046-0.095,0.098-0.137,0.157
	c-0.05,0.067-0.094,0.138-0.132,0.215c-0.038,0.076-0.069,0.158-0.094,0.246c-0.025,0.088-0.044,0.182-0.057,0.284
	C28.256,72.872,28.25,72.981,28.25,73.098z"/>
<path id="path6815" style="fill:#003366;" d="M31.435,70.818h0.226h0.226h0.226h0.226v0.159v0.159v0.159v0.159
	c0.042-0.059,0.084-0.115,0.126-0.169c0.042-0.053,0.085-0.104,0.13-0.15c0.044-0.046,0.089-0.088,0.136-0.125
	s0.095-0.068,0.145-0.093c0.05-0.034,0.101-0.061,0.151-0.083c0.051-0.022,0.102-0.039,0.155-0.051
	c0.052-0.013,0.106-0.021,0.161-0.026c0.055-0.005,0.112-0.007,0.17-0.007c0.059,0,0.115,0.004,0.17,0.012
	c0.055,0.008,0.108,0.019,0.161,0.034c0.052,0.015,0.104,0.033,0.155,0.053s0.101,0.044,0.151,0.069
	c0.042,0.034,0.084,0.069,0.125,0.107s0.081,0.079,0.118,0.123c0.038,0.044,0.073,0.091,0.106,0.142s0.062,0.105,0.087,0.164
	c0.042-0.059,0.084-0.115,0.126-0.169c0.042-0.053,0.085-0.104,0.13-0.15c0.044-0.046,0.089-0.088,0.136-0.125
	s0.095-0.068,0.145-0.093c0.05-0.034,0.101-0.061,0.151-0.083s0.101-0.039,0.151-0.051s0.101-0.021,0.151-0.026
	c0.05-0.005,0.101-0.007,0.151-0.007c0.067,0,0.13,0.004,0.19,0.013s0.116,0.021,0.171,0.038c0.054,0.017,0.107,0.038,0.158,0.063
	s0.102,0.054,0.152,0.088s0.096,0.069,0.139,0.107c0.042,0.038,0.081,0.079,0.117,0.123c0.036,0.044,0.068,0.091,0.098,0.142
	s0.057,0.105,0.082,0.164s0.046,0.124,0.063,0.196c0.017,0.072,0.031,0.15,0.041,0.236c0.01,0.086,0.018,0.179,0.022,0.28
	c0.005,0.101,0.007,0.21,0.007,0.327v0.738v0.738v0.738v0.738h-0.251h-0.251h-0.251h-0.251v-0.654v-0.654v-0.654v-0.654
	c0-0.117-0.002-0.224-0.007-0.321c-0.005-0.096-0.012-0.182-0.022-0.258c-0.01-0.075-0.024-0.14-0.041-0.195
	s-0.038-0.099-0.063-0.132c-0.017-0.042-0.038-0.078-0.063-0.107c-0.025-0.03-0.054-0.054-0.088-0.073
	c-0.034-0.019-0.071-0.032-0.113-0.041c-0.042-0.009-0.088-0.013-0.138-0.013c-0.059,0-0.113,0.006-0.164,0.019
	c-0.051,0.013-0.098,0.033-0.142,0.06c-0.044,0.027-0.085,0.062-0.123,0.104c-0.038,0.042-0.074,0.093-0.108,0.151
	c-0.034,0.05-0.063,0.115-0.088,0.194c-0.025,0.079-0.046,0.171-0.063,0.276s-0.029,0.222-0.038,0.351
	c-0.008,0.129-0.013,0.269-0.013,0.42v0.553v0.553v0.553v0.553h-0.251h-0.251h-0.251h-0.251v-0.629v-0.629v-0.629v-0.629
	c0-0.126-0.002-0.239-0.006-0.341c-0.004-0.102-0.009-0.192-0.015-0.271c-0.006-0.08-0.013-0.149-0.021-0.209
	c-0.008-0.06-0.016-0.11-0.025-0.152c-0.017-0.05-0.038-0.094-0.063-0.132c-0.026-0.038-0.056-0.069-0.092-0.094
	c-0.036-0.025-0.076-0.044-0.123-0.057c-0.047-0.013-0.099-0.019-0.158-0.019c-0.034,0-0.067,0.002-0.101,0.007
	s-0.067,0.012-0.101,0.022c-0.034,0.01-0.067,0.024-0.101,0.041c-0.034,0.017-0.067,0.038-0.101,0.063
	c-0.034,0.025-0.063,0.052-0.089,0.082c-0.026,0.03-0.049,0.063-0.07,0.098c-0.021,0.036-0.04,0.074-0.058,0.117
	c-0.018,0.042-0.035,0.089-0.051,0.139s-0.029,0.107-0.039,0.171c-0.009,0.064-0.016,0.135-0.02,0.215
	c-0.004,0.08-0.006,0.168-0.007,0.265c-0.001,0.097-0.001,0.204-0.001,0.322v0.562v0.562v0.562v0.562H32.19h-0.251h-0.251h-0.251
	v-1.174v-1.174v-1.174L31.435,70.818L31.435,70.818L31.435,70.818L31.435,70.818L31.435,70.818z"/>
<path id="path6817" style="fill:#003366;" d="M37.504,70.818h0.226h0.226h0.226h0.226v0.159v0.159v0.159v0.159
	c0.042-0.059,0.084-0.115,0.126-0.169c0.042-0.053,0.085-0.104,0.129-0.15c0.044-0.046,0.089-0.088,0.136-0.125
	s0.095-0.068,0.145-0.093c0.05-0.034,0.101-0.061,0.151-0.083c0.051-0.022,0.102-0.039,0.154-0.051s0.106-0.021,0.161-0.026
	c0.055-0.005,0.112-0.007,0.171-0.007c0.059,0,0.115,0.004,0.17,0.012c0.055,0.008,0.108,0.019,0.161,0.034
	c0.052,0.015,0.104,0.033,0.155,0.053s0.101,0.044,0.151,0.069c0.042,0.034,0.084,0.069,0.125,0.107
	c0.041,0.038,0.081,0.079,0.118,0.123c0.038,0.044,0.073,0.091,0.106,0.142c0.032,0.051,0.062,0.105,0.087,0.164
	c0.042-0.059,0.084-0.115,0.126-0.169c0.042-0.053,0.085-0.104,0.13-0.15c0.044-0.046,0.089-0.088,0.136-0.125
	s0.095-0.068,0.145-0.093c0.05-0.034,0.101-0.061,0.151-0.083s0.101-0.039,0.151-0.051c0.05-0.013,0.101-0.021,0.151-0.026
	c0.05-0.005,0.101-0.007,0.151-0.007c0.067,0,0.13,0.004,0.19,0.013c0.06,0.008,0.116,0.021,0.171,0.038
	c0.054,0.017,0.107,0.038,0.158,0.063s0.102,0.054,0.152,0.088s0.096,0.069,0.139,0.107s0.081,0.079,0.117,0.123
	c0.036,0.044,0.068,0.091,0.098,0.142s0.057,0.105,0.082,0.164c0.025,0.059,0.046,0.124,0.063,0.195s0.031,0.15,0.041,0.236
	c0.01,0.086,0.018,0.179,0.022,0.28c0.005,0.101,0.007,0.21,0.007,0.327v0.738v0.738v0.738v0.738h-0.251h-0.251h-0.251H42.03v-0.654
	v-0.654v-0.654v-0.654c0-0.117-0.002-0.224-0.007-0.321c-0.005-0.096-0.012-0.182-0.022-0.258s-0.024-0.14-0.041-0.195
	c-0.017-0.054-0.038-0.099-0.063-0.132c-0.017-0.042-0.038-0.078-0.063-0.107c-0.025-0.03-0.054-0.054-0.088-0.073
	c-0.034-0.019-0.071-0.032-0.113-0.041c-0.042-0.009-0.088-0.013-0.138-0.013c-0.059,0-0.113,0.006-0.164,0.019
	c-0.051,0.013-0.098,0.033-0.142,0.06c-0.044,0.027-0.085,0.062-0.123,0.104c-0.038,0.042-0.074,0.093-0.108,0.151
	c-0.034,0.05-0.063,0.115-0.088,0.194c-0.025,0.079-0.046,0.171-0.063,0.276c-0.017,0.105-0.029,0.222-0.038,0.351
	c-0.008,0.129-0.013,0.269-0.013,0.42v0.553v0.553v0.553v0.553h-0.251h-0.251h-0.251H39.75v-0.629v-0.629v-0.629v-0.629
	c0-0.126-0.002-0.239-0.006-0.341c-0.004-0.102-0.009-0.192-0.015-0.271c-0.006-0.08-0.013-0.149-0.021-0.209
	c-0.008-0.06-0.016-0.11-0.025-0.152c-0.017-0.05-0.038-0.094-0.063-0.132c-0.026-0.038-0.056-0.069-0.092-0.094
	c-0.036-0.025-0.076-0.044-0.123-0.057c-0.047-0.013-0.099-0.019-0.158-0.019c-0.034,0-0.067,0.002-0.101,0.007
	s-0.067,0.012-0.101,0.022c-0.034,0.01-0.067,0.024-0.101,0.041c-0.034,0.017-0.067,0.038-0.101,0.063
	c-0.034,0.025-0.063,0.052-0.089,0.082s-0.049,0.062-0.07,0.098c-0.021,0.036-0.04,0.075-0.058,0.117
	c-0.018,0.042-0.035,0.089-0.051,0.139c-0.017,0.05-0.029,0.107-0.039,0.171c-0.009,0.064-0.016,0.135-0.02,0.215
	c-0.004,0.08-0.006,0.168-0.007,0.265c-0.001,0.097-0.001,0.204-0.001,0.322v0.562v0.562v0.562v0.562h-0.251h-0.251h-0.251h-0.251
	v-1.174v-1.174v-1.174L37.504,70.818L37.504,70.818L37.504,70.818L37.504,70.818L37.504,70.818z"/>
<path id="path6819" style="fill:#003366;" d="M46.088,75.412v-0.176V75.06v-0.176v-0.176c-0.034,0.059-0.071,0.115-0.112,0.169
	c-0.041,0.054-0.085,0.105-0.131,0.153c-0.046,0.048-0.094,0.093-0.144,0.135c-0.049,0.041-0.1,0.079-0.15,0.113
	c-0.059,0.034-0.117,0.063-0.176,0.088c-0.059,0.025-0.117,0.046-0.176,0.063c-0.059,0.017-0.117,0.029-0.176,0.038
	c-0.059,0.008-0.117,0.013-0.176,0.013c-0.059,0-0.117-0.004-0.176-0.013c-0.058-0.008-0.116-0.021-0.173-0.038
	c-0.057-0.017-0.112-0.038-0.166-0.063s-0.106-0.054-0.157-0.088c-0.05-0.034-0.096-0.069-0.139-0.108
	c-0.042-0.039-0.081-0.081-0.117-0.127c-0.036-0.046-0.068-0.096-0.098-0.152c-0.03-0.056-0.057-0.116-0.082-0.183
	c-0.025-0.059-0.046-0.124-0.063-0.195s-0.031-0.15-0.041-0.236s-0.018-0.179-0.023-0.28c-0.005-0.101-0.007-0.21-0.007-0.327
	v-0.713v-0.713v-0.713v-0.713h0.251h0.251h0.251h0.251v0.528v0.528v0.528v0.528c0,0.151,0,0.287,0.001,0.409
	c0,0.122,0.002,0.23,0.004,0.324c0.002,0.094,0.005,0.175,0.01,0.242c0.005,0.068,0.011,0.122,0.02,0.164s0.019,0.082,0.031,0.119
	s0.027,0.072,0.044,0.103c0.017,0.032,0.036,0.06,0.057,0.085c0.021,0.025,0.044,0.046,0.069,0.062
	c0.025,0.025,0.052,0.046,0.081,0.063c0.029,0.017,0.059,0.031,0.09,0.041c0.032,0.01,0.064,0.018,0.097,0.023
	s0.067,0.007,0.1,0.007c0.042,0,0.084-0.004,0.125-0.012c0.041-0.008,0.082-0.019,0.122-0.034c0.04-0.015,0.079-0.032,0.116-0.053
	c0.037-0.02,0.073-0.043,0.106-0.069c0.034-0.034,0.065-0.067,0.094-0.101c0.029-0.034,0.055-0.069,0.078-0.104
	c0.023-0.036,0.043-0.072,0.059-0.111c0.016-0.038,0.029-0.078,0.037-0.12c0.008-0.05,0.017-0.113,0.025-0.189
	s0.015-0.163,0.021-0.264s0.011-0.214,0.015-0.34c0.004-0.126,0.006-0.264,0.006-0.415v-0.486V71.79v-0.486v-0.486h0.251h0.251
	h0.251h0.251v1.148v1.148v1.148v1.148h-0.235h-0.235h-0.235L46.088,75.412L46.088,75.412L46.088,75.412L46.088,75.412L46.088,75.412
	z"/>
<path id="path6821" style="fill:#003366;" d="M51.084,75.412h-0.251h-0.251H50.33h-0.251v-0.587v-0.587v-0.587v-0.587
	c0-0.117-0.002-0.224-0.006-0.321s-0.009-0.184-0.015-0.262c-0.006-0.077-0.014-0.146-0.021-0.205s-0.016-0.109-0.024-0.151
	s-0.019-0.08-0.031-0.114c-0.013-0.035-0.027-0.066-0.044-0.095c-0.017-0.029-0.036-0.057-0.057-0.083
	c-0.021-0.026-0.044-0.051-0.069-0.076c-0.025-0.017-0.05-0.034-0.076-0.049c-0.026-0.016-0.052-0.03-0.079-0.043
	c-0.027-0.013-0.055-0.023-0.085-0.03s-0.061-0.012-0.095-0.012c-0.042,0-0.084,0.004-0.125,0.012s-0.082,0.019-0.122,0.034
	c-0.04,0.015-0.078,0.032-0.116,0.053s-0.073,0.044-0.106,0.069c-0.034,0.025-0.065,0.054-0.094,0.087
	c-0.029,0.032-0.057,0.068-0.082,0.106c-0.025,0.038-0.048,0.078-0.069,0.118c-0.021,0.041-0.04,0.083-0.057,0.125
	c-0.017,0.05-0.029,0.109-0.039,0.177c-0.009,0.068-0.016,0.146-0.02,0.234s-0.006,0.187-0.007,0.297
	c-0.001,0.11-0.001,0.232-0.001,0.366v0.52v0.52v0.52v0.52h-0.251h-0.251h-0.251h-0.251v-1.14v-1.14v-1.14v-1.14h0.235H48.1h0.235
	h0.235v0.168v0.168v0.168v0.168c0.042-0.067,0.084-0.13,0.127-0.188s0.087-0.112,0.133-0.16c0.046-0.048,0.094-0.091,0.146-0.128
	s0.106-0.069,0.165-0.094c0.05-0.034,0.103-0.063,0.157-0.088c0.054-0.025,0.111-0.046,0.17-0.063s0.119-0.029,0.182-0.038
	s0.128-0.013,0.195-0.013c0.075,0,0.147,0.004,0.214,0.013c0.068,0.009,0.131,0.023,0.192,0.042
	c0.061,0.019,0.119,0.043,0.174,0.073c0.055,0.03,0.107,0.065,0.158,0.107c0.05,0.034,0.096,0.071,0.138,0.113
	c0.042,0.041,0.08,0.087,0.113,0.135c0.034,0.048,0.063,0.1,0.088,0.153c0.025,0.054,0.046,0.111,0.063,0.169
	c0.017,0.059,0.031,0.124,0.044,0.195c0.013,0.072,0.023,0.15,0.031,0.236c0.008,0.086,0.015,0.179,0.019,0.28
	c0.004,0.101,0.006,0.21,0.006,0.327v0.713v0.713l0,0.713L51.084,75.412L51.084,75.412L51.084,75.412L51.084,75.412L51.084,75.412z"
	/>
<path id="path6823" style="fill:#003366;" d="M51.721,70.181v-0.285v-0.285v-0.285v-0.285h0.251h0.251h0.251h0.251v0.285v0.285
	v0.285v0.285h-0.251h-0.251h-0.251H51.721z M51.721,75.412v-1.148v-1.148v-1.148v-1.148h0.251h0.251h0.251h0.251v1.148v1.148v1.148
	v1.148h-0.251h-0.251c0,0-0.126,0-0.251,0C51.847,75.412,51.721,75.412,51.721,75.412z"/>
<path id="path6825" style="fill:#003366;" d="M56.617,72.159l-0.243,0.05l-0.243,0.05l-0.243,0.05l-0.243,0.05
	c-0.017-0.117-0.044-0.222-0.081-0.313s-0.084-0.169-0.141-0.232c-0.057-0.063-0.123-0.111-0.198-0.144
	c-0.075-0.032-0.159-0.049-0.251-0.049c-0.059,0-0.115,0.006-0.17,0.019c-0.054,0.013-0.107,0.031-0.157,0.057
	c-0.05,0.025-0.098,0.057-0.145,0.094c-0.046,0.038-0.09,0.082-0.132,0.132c-0.034,0.05-0.065,0.111-0.093,0.181
	s-0.053,0.15-0.074,0.238c-0.021,0.088-0.038,0.184-0.049,0.288c-0.012,0.104-0.018,0.215-0.018,0.332
	c0,0.134,0.004,0.26,0.013,0.376c0.009,0.116,0.023,0.223,0.042,0.32c0.019,0.096,0.043,0.182,0.073,0.257
	c0.03,0.074,0.065,0.137,0.107,0.188c0.034,0.059,0.071,0.109,0.113,0.151c0.042,0.042,0.088,0.077,0.138,0.104
	s0.105,0.047,0.163,0.06c0.059,0.013,0.122,0.02,0.189,0.02c0.05,0,0.096-0.004,0.139-0.013s0.083-0.021,0.12-0.038
	c0.038-0.017,0.073-0.038,0.108-0.063c0.035-0.025,0.068-0.054,0.102-0.088c0.034-0.034,0.063-0.073,0.089-0.119
	c0.026-0.046,0.049-0.097,0.07-0.153c0.021-0.057,0.04-0.119,0.058-0.185c0.018-0.067,0.035-0.138,0.051-0.213l0.243,0.05
	l0.243,0.05l0.243,0.05l0.243,0.05c-0.05,0.277-0.124,0.52-0.221,0.729c-0.097,0.209-0.217,0.384-0.362,0.524
	c-0.145,0.14-0.313,0.246-0.507,0.317c-0.193,0.071-0.411,0.106-0.654,0.106c-0.151,0-0.293-0.015-0.427-0.044
	s-0.258-0.073-0.373-0.132c-0.115-0.059-0.221-0.132-0.317-0.22c-0.096-0.088-0.182-0.191-0.258-0.308
	c-0.075-0.117-0.14-0.241-0.195-0.37c-0.055-0.129-0.1-0.265-0.136-0.405c-0.036-0.14-0.062-0.286-0.079-0.436
	c-0.017-0.15-0.026-0.305-0.026-0.465c0-0.193,0.01-0.375,0.031-0.547c0.021-0.172,0.052-0.333,0.094-0.484
	c0.042-0.151,0.094-0.291,0.157-0.421s0.136-0.249,0.22-0.358c0.084-0.101,0.174-0.189,0.27-0.264
	c0.096-0.075,0.199-0.138,0.308-0.189c0.109-0.05,0.224-0.088,0.346-0.113c0.122-0.025,0.249-0.038,0.384-0.038
	c0.109,0,0.214,0.006,0.314,0.019s0.195,0.033,0.286,0.06c0.09,0.027,0.175,0.062,0.254,0.104c0.079,0.042,0.152,0.093,0.22,0.151
	c0.075,0.075,0.145,0.155,0.207,0.24c0.063,0.085,0.119,0.175,0.17,0.271c0.05,0.096,0.094,0.199,0.132,0.309
	C56.56,71.916,56.592,72.034,56.617,72.159L56.617,72.159L56.617,72.159L56.617,72.159L56.617,72.159z"/>
<path id="path6827" style="fill:#003366;" d="M57.723,72.193l-0.226-0.05l-0.226-0.05l-0.226-0.05l-0.226-0.05
	c0.025-0.117,0.057-0.226,0.093-0.327c0.037-0.101,0.079-0.193,0.125-0.277c0.046-0.084,0.096-0.159,0.15-0.226
	s0.11-0.126,0.169-0.176c0.067-0.05,0.138-0.094,0.215-0.132c0.077-0.038,0.16-0.069,0.25-0.094c0.09-0.025,0.188-0.044,0.294-0.057
	c0.106-0.013,0.222-0.019,0.347-0.019c0.109,0,0.21,0.004,0.303,0.012c0.093,0.008,0.179,0.019,0.259,0.034
	c0.08,0.015,0.153,0.033,0.221,0.053c0.068,0.02,0.131,0.044,0.19,0.069c0.059,0.034,0.111,0.067,0.158,0.102
	c0.047,0.035,0.089,0.07,0.127,0.108c0.038,0.038,0.071,0.078,0.102,0.12c0.03,0.043,0.058,0.089,0.083,0.139
	c0.025,0.05,0.046,0.111,0.063,0.182c0.017,0.071,0.031,0.153,0.041,0.245c0.01,0.092,0.018,0.195,0.022,0.308
	s0.007,0.237,0.007,0.371v0.352v0.352v0.352v0.352c0,0.101,0,0.195,0.001,0.283c0.001,0.088,0.002,0.17,0.004,0.245
	c0.002,0.075,0.005,0.145,0.01,0.207c0.005,0.063,0.011,0.119,0.019,0.17c0.008,0.05,0.019,0.101,0.031,0.151
	c0.012,0.05,0.026,0.101,0.04,0.151c0.015,0.05,0.031,0.101,0.047,0.151c0.016,0.05,0.033,0.101,0.05,0.151h-0.243h-0.243h-0.243
	h-0.243l-0.034-0.126l-0.034-0.126l-0.034-0.126l-0.034-0.126c-0.042,0.05-0.086,0.098-0.131,0.144
	c-0.045,0.046-0.091,0.088-0.137,0.128s-0.092,0.076-0.137,0.109c-0.045,0.033-0.089,0.062-0.131,0.087
	c-0.05,0.025-0.101,0.048-0.151,0.069s-0.101,0.038-0.151,0.053s-0.101,0.026-0.151,0.034s-0.101,0.012-0.151,0.012
	c-0.092,0-0.18-0.008-0.264-0.025s-0.163-0.04-0.239-0.072c-0.075-0.031-0.147-0.07-0.214-0.116s-0.13-0.098-0.189-0.157
	c-0.059-0.059-0.109-0.124-0.151-0.194s-0.077-0.147-0.104-0.229c-0.027-0.082-0.047-0.169-0.06-0.26
	c-0.013-0.092-0.019-0.188-0.019-0.288c0-0.067,0.002-0.13,0.007-0.19c0.005-0.06,0.012-0.116,0.022-0.171
	c0.01-0.054,0.024-0.107,0.041-0.158s0.038-0.102,0.063-0.152c0.025-0.05,0.052-0.096,0.082-0.139s0.061-0.083,0.094-0.121
	c0.034-0.038,0.069-0.073,0.107-0.108c0.038-0.035,0.078-0.068,0.119-0.102c0.042-0.025,0.09-0.05,0.145-0.075
	c0.055-0.025,0.117-0.05,0.186-0.075c0.069-0.025,0.146-0.05,0.23-0.075c0.084-0.025,0.177-0.05,0.277-0.075
	c0.117-0.025,0.224-0.05,0.322-0.075c0.097-0.025,0.185-0.05,0.265-0.075c0.08-0.025,0.151-0.05,0.215-0.075s0.121-0.05,0.171-0.075
	c0-0.067-0.002-0.128-0.006-0.182s-0.009-0.103-0.015-0.145c-0.006-0.042-0.014-0.078-0.022-0.107
	c-0.008-0.029-0.016-0.052-0.024-0.069c-0.008-0.017-0.019-0.034-0.031-0.05c-0.013-0.017-0.027-0.034-0.044-0.05
	s-0.036-0.034-0.057-0.05c-0.021-0.017-0.044-0.034-0.069-0.05c-0.025-0.017-0.052-0.029-0.082-0.039
	c-0.029-0.009-0.061-0.016-0.094-0.02c-0.034-0.004-0.069-0.006-0.107-0.007c-0.038-0.001-0.078-0.001-0.119-0.001
	c-0.042,0-0.084,0.002-0.125,0.007s-0.081,0.012-0.118,0.022c-0.038,0.01-0.073,0.024-0.106,0.041s-0.062,0.038-0.087,0.063
	c-0.025,0.017-0.05,0.04-0.075,0.068c-0.025,0.028-0.049,0.062-0.072,0.1c-0.023,0.038-0.045,0.08-0.065,0.125
	C57.759,72.095,57.74,72.143,57.723,72.193L57.723,72.193L57.723,72.193L57.723,72.193L57.723,72.193z M59.065,73.199
	c-0.034,0.017-0.071,0.031-0.113,0.045c-0.042,0.014-0.088,0.026-0.138,0.039c-0.05,0.013-0.105,0.025-0.163,0.039
	c-0.059,0.014-0.122,0.028-0.189,0.045c-0.075,0.017-0.145,0.036-0.207,0.056c-0.063,0.02-0.119,0.042-0.17,0.065
	c-0.05,0.023-0.094,0.047-0.132,0.072c-0.038,0.025-0.069,0.05-0.094,0.075c-0.025,0.025-0.046,0.052-0.063,0.081
	s-0.031,0.059-0.041,0.09c-0.01,0.031-0.018,0.064-0.023,0.097c-0.005,0.033-0.007,0.067-0.007,0.1c0,0.042,0.004,0.084,0.012,0.125
	c0.008,0.041,0.019,0.081,0.034,0.118c0.015,0.038,0.032,0.073,0.053,0.106s0.044,0.062,0.069,0.087
	c0.025,0.034,0.052,0.061,0.082,0.083c0.029,0.022,0.061,0.039,0.094,0.051c0.034,0.013,0.069,0.021,0.107,0.026
	s0.078,0.007,0.119,0.007c0.034,0,0.067-0.002,0.101-0.007s0.069-0.012,0.104-0.023c0.036-0.01,0.072-0.024,0.111-0.041
	s0.078-0.038,0.12-0.063c0.034-0.025,0.065-0.05,0.094-0.076c0.029-0.026,0.057-0.052,0.082-0.079
	c0.025-0.027,0.048-0.056,0.069-0.085c0.021-0.03,0.04-0.061,0.057-0.095s0.029-0.073,0.039-0.12s0.016-0.1,0.02-0.161
	c0.004-0.061,0.006-0.129,0.007-0.205s0.001-0.16,0.001-0.252l-0.008-0.05l-0.008-0.05l-0.008-0.05L59.065,73.199L59.065,73.199
	L59.065,73.199L59.065,73.199L59.065,73.199z"/>
<path id="path6829" style="fill:#003366;" d="M62.351,70.818v0.243v0.243v0.243v0.243h-0.168h-0.168h-0.168H61.68v0.461v0.461v0.461
	v0.461c0,0.101,0,0.191,0.001,0.27s0.002,0.149,0.004,0.207c0.002,0.059,0.005,0.107,0.01,0.145
	c0.005,0.038,0.011,0.065,0.019,0.082c0.008,0.025,0.021,0.048,0.037,0.069c0.016,0.02,0.035,0.038,0.056,0.053
	c0.021,0.015,0.044,0.026,0.068,0.034s0.049,0.012,0.074,0.012c0.025,0,0.052-0.002,0.082-0.006c0.029-0.004,0.061-0.01,0.094-0.019
	c0.034-0.008,0.069-0.019,0.107-0.031s0.078-0.027,0.119-0.044l0.025,0.235l0.025,0.235l0.025,0.235l0.025,0.235
	c-0.059,0.034-0.119,0.061-0.182,0.083c-0.062,0.022-0.126,0.039-0.191,0.051c-0.065,0.013-0.131,0.021-0.197,0.026
	s-0.134,0.007-0.201,0.007c-0.067,0-0.13-0.004-0.189-0.012c-0.059-0.008-0.113-0.019-0.163-0.034
	c-0.05-0.015-0.096-0.032-0.138-0.053c-0.042-0.02-0.08-0.044-0.113-0.069c-0.042-0.034-0.08-0.069-0.113-0.107
	c-0.034-0.038-0.063-0.079-0.088-0.123c-0.025-0.044-0.046-0.091-0.063-0.142s-0.029-0.105-0.038-0.164
	c-0.008-0.042-0.017-0.094-0.025-0.157c-0.008-0.063-0.015-0.136-0.021-0.22c-0.006-0.084-0.011-0.178-0.015-0.283
	c-0.004-0.105-0.006-0.22-0.006-0.346V73.3v-0.503v-0.503v-0.503H60.59h-0.117h-0.117h-0.117v-0.243v-0.243v-0.243v-0.243h0.117
	h0.117h0.117h0.117v-0.226v-0.226v-0.226v-0.226l0.251-0.176l0.251-0.176l0.251-0.176l0.251-0.176v0.402v0.402v0.402v0.402h0.159
	h0.159h0.159L62.351,70.818L62.351,70.818L62.351,70.818L62.351,70.818L62.351,70.818z"/>
<path id="path6831" style="fill:#003366;" d="M62.652,70.181v-0.285v-0.285v-0.285v-0.285h0.251h0.251h0.251h0.251v0.285v0.285
	v0.285v0.285h-0.251h-0.251h-0.251H62.652z M62.652,75.412v-1.148v-1.148v-1.148v-1.148h0.251h0.251h0.251h0.251v1.148v1.148v1.148
	v1.148h-0.251h-0.251c0,0-0.126,0-0.251,0C62.778,75.412,62.652,75.412,62.652,75.412z"/>
<path id="path6833" style="fill:#003366;" d="M64.061,73.031c0-0.109,0.006-0.218,0.018-0.326c0.012-0.108,0.03-0.215,0.053-0.32
	c0.023-0.105,0.051-0.207,0.085-0.307s0.071-0.196,0.113-0.288c0.042-0.092,0.088-0.178,0.138-0.258
	c0.05-0.08,0.105-0.155,0.163-0.224c0.059-0.069,0.122-0.133,0.189-0.192s0.138-0.114,0.214-0.164
	c0.075-0.05,0.151-0.092,0.227-0.127c0.076-0.035,0.154-0.062,0.234-0.083c0.08-0.021,0.161-0.036,0.246-0.045
	c0.085-0.009,0.173-0.014,0.265-0.014c0.151,0,0.293,0.015,0.428,0.044c0.135,0.029,0.261,0.073,0.381,0.132
	c0.119,0.059,0.231,0.132,0.337,0.22c0.105,0.088,0.204,0.191,0.296,0.308c0.084,0.117,0.157,0.241,0.22,0.37
	c0.063,0.129,0.115,0.265,0.157,0.405c0.042,0.14,0.073,0.286,0.094,0.436s0.031,0.306,0.031,0.465c0,0.117-0.006,0.233-0.018,0.345
	s-0.03,0.223-0.053,0.329c-0.023,0.107-0.051,0.211-0.084,0.311c-0.033,0.1-0.071,0.197-0.113,0.289s-0.088,0.18-0.138,0.264
	c-0.05,0.083-0.105,0.162-0.163,0.235c-0.059,0.073-0.122,0.141-0.189,0.204c-0.067,0.062-0.138,0.119-0.214,0.169
	c-0.075,0.05-0.151,0.094-0.227,0.132s-0.154,0.069-0.234,0.094s-0.161,0.044-0.246,0.057s-0.173,0.019-0.265,0.019
	c-0.143,0-0.279-0.013-0.409-0.038c-0.13-0.026-0.254-0.064-0.371-0.117s-0.228-0.118-0.333-0.199
	c-0.105-0.08-0.203-0.174-0.295-0.283c-0.092-0.109-0.172-0.228-0.239-0.359s-0.123-0.272-0.167-0.425
	c-0.044-0.153-0.076-0.318-0.098-0.494C64.071,73.421,64.061,73.232,64.061,73.031L64.061,73.031L64.061,73.031L64.061,73.031
	L64.061,73.031z M65.067,73.098c0,0.117,0.006,0.226,0.018,0.327c0.012,0.101,0.03,0.194,0.053,0.28
	c0.023,0.086,0.051,0.165,0.084,0.236c0.033,0.072,0.071,0.137,0.113,0.195s0.088,0.111,0.138,0.157
	c0.05,0.046,0.103,0.084,0.16,0.116c0.057,0.032,0.116,0.056,0.179,0.072c0.062,0.016,0.127,0.025,0.194,0.025
	c0.059,0,0.117-0.008,0.175-0.025c0.058-0.016,0.114-0.04,0.169-0.072c0.054-0.032,0.107-0.07,0.156-0.116
	c0.049-0.046,0.095-0.098,0.137-0.157c0.042-0.059,0.08-0.126,0.113-0.201c0.033-0.075,0.061-0.158,0.084-0.248
	c0.023-0.09,0.041-0.187,0.053-0.292s0.018-0.215,0.018-0.333c0-0.117-0.006-0.226-0.018-0.327c-0.012-0.101-0.03-0.194-0.053-0.28
	c-0.023-0.086-0.051-0.164-0.084-0.236c-0.033-0.072-0.071-0.137-0.113-0.196s-0.088-0.111-0.137-0.157s-0.102-0.084-0.156-0.116
	c-0.054-0.031-0.111-0.055-0.169-0.072s-0.116-0.025-0.175-0.025s-0.117,0.008-0.175,0.025s-0.114,0.04-0.169,0.072
	c-0.054,0.032-0.107,0.07-0.156,0.116c-0.049,0.046-0.095,0.098-0.137,0.157c-0.05,0.067-0.094,0.138-0.132,0.215
	c-0.038,0.076-0.069,0.158-0.094,0.246c-0.025,0.088-0.044,0.182-0.057,0.284S65.067,72.981,65.067,73.098L65.067,73.098
	L65.067,73.098L65.067,73.098L65.067,73.098z"/>
<path id="path6835" style="fill:#003366;" d="M71.773,75.412h-0.251H71.27h-0.251h-0.251v-0.587v-0.587v-0.587v-0.587
	c0-0.117-0.002-0.224-0.006-0.321s-0.009-0.184-0.015-0.262c-0.006-0.077-0.014-0.146-0.022-0.205
	c-0.008-0.059-0.016-0.109-0.024-0.151c-0.008-0.042-0.019-0.08-0.031-0.114c-0.013-0.035-0.027-0.066-0.044-0.095
	c-0.017-0.029-0.036-0.057-0.057-0.083c-0.021-0.026-0.044-0.051-0.069-0.076c-0.025-0.017-0.05-0.034-0.076-0.049
	c-0.026-0.016-0.052-0.03-0.079-0.043c-0.027-0.013-0.055-0.023-0.085-0.03c-0.03-0.007-0.061-0.012-0.095-0.012
	c-0.042,0-0.084,0.004-0.125,0.012s-0.082,0.019-0.122,0.034c-0.04,0.015-0.078,0.032-0.116,0.053s-0.073,0.044-0.106,0.069
	c-0.034,0.025-0.065,0.054-0.094,0.087c-0.029,0.032-0.057,0.068-0.082,0.106c-0.025,0.038-0.048,0.078-0.069,0.118
	c-0.021,0.041-0.04,0.083-0.057,0.125c-0.017,0.05-0.029,0.109-0.039,0.177c-0.009,0.068-0.016,0.146-0.02,0.234
	c-0.004,0.088-0.006,0.187-0.007,0.297c-0.001,0.11-0.001,0.232-0.001,0.366v0.52v0.52v0.52v0.52h-0.251h-0.251h-0.251H68.32v-1.14
	v-1.14v-1.14v-1.14h0.235h0.235h0.235h0.235v0.168v0.168v0.168v0.168c0.042-0.067,0.084-0.13,0.127-0.188s0.087-0.112,0.133-0.16
	c0.046-0.048,0.094-0.091,0.146-0.128s0.106-0.069,0.165-0.094c0.05-0.034,0.103-0.063,0.157-0.088
	c0.054-0.025,0.111-0.046,0.17-0.063c0.059-0.017,0.119-0.029,0.182-0.038c0.063-0.008,0.128-0.013,0.195-0.013
	c0.075,0,0.147,0.004,0.214,0.013c0.068,0.009,0.131,0.023,0.192,0.042c0.061,0.019,0.119,0.043,0.174,0.073
	c0.055,0.03,0.107,0.065,0.158,0.107c0.05,0.034,0.096,0.071,0.138,0.113s0.08,0.087,0.113,0.135c0.034,0.048,0.063,0.1,0.088,0.153
	s0.046,0.111,0.063,0.169c0.017,0.059,0.031,0.124,0.044,0.195s0.023,0.15,0.031,0.236c0.008,0.086,0.015,0.179,0.019,0.28
	c0.004,0.101,0.006,0.21,0.006,0.327v0.713v0.713v0.713L71.773,75.412L71.773,75.412L71.773,75.412L71.773,75.412L71.773,75.412z"/>
<path id="path6837" style="fill:#003366;" d="M72.041,74.104l0.251-0.05l0.251-0.05l0.251-0.05l0.251-0.05
	c0.025,0.117,0.061,0.222,0.107,0.313s0.103,0.169,0.17,0.232c0.067,0.063,0.145,0.111,0.233,0.144
	c0.088,0.032,0.187,0.049,0.295,0.049c0.059,0,0.113-0.002,0.164-0.007c0.051-0.005,0.098-0.012,0.142-0.023
	c0.044-0.011,0.085-0.024,0.123-0.041s0.074-0.038,0.107-0.063s0.061-0.05,0.083-0.076s0.039-0.053,0.051-0.083
	c0.013-0.029,0.021-0.061,0.026-0.095c0.005-0.035,0.007-0.072,0.007-0.114c0-0.025-0.002-0.048-0.006-0.07s-0.009-0.041-0.015-0.06
	c-0.006-0.019-0.013-0.037-0.021-0.054c-0.008-0.017-0.016-0.034-0.025-0.051c-0.017-0.017-0.036-0.031-0.057-0.045
	c-0.021-0.014-0.046-0.026-0.073-0.039c-0.027-0.013-0.058-0.025-0.092-0.039c-0.034-0.014-0.072-0.028-0.114-0.045
	c-0.201-0.05-0.386-0.103-0.553-0.156c-0.167-0.053-0.317-0.106-0.449-0.159c-0.132-0.052-0.246-0.104-0.342-0.152
	c-0.096-0.049-0.173-0.095-0.232-0.137c-0.067-0.059-0.126-0.124-0.176-0.195c-0.05-0.071-0.092-0.149-0.126-0.233
	c-0.034-0.084-0.059-0.174-0.075-0.27c-0.017-0.096-0.025-0.199-0.025-0.308s0.008-0.212,0.025-0.309
	c0.017-0.097,0.042-0.188,0.075-0.274s0.075-0.167,0.126-0.243c0.05-0.076,0.109-0.147,0.176-0.214
	c0.067-0.067,0.143-0.124,0.226-0.171c0.083-0.047,0.174-0.085,0.273-0.114c0.099-0.029,0.204-0.05,0.317-0.064
	c0.113-0.014,0.232-0.02,0.358-0.02c0.126,0,0.243,0.006,0.353,0.019c0.11,0.013,0.211,0.031,0.306,0.057
	c0.094,0.025,0.181,0.057,0.261,0.094c0.08,0.038,0.153,0.082,0.221,0.132c0.067,0.05,0.128,0.107,0.183,0.17
	c0.055,0.063,0.104,0.134,0.148,0.211c0.044,0.078,0.083,0.162,0.117,0.255s0.064,0.193,0.089,0.302l-0.235,0.05l-0.235,0.05
	l-0.235,0.05l-0.235,0.05c-0.017-0.092-0.046-0.174-0.086-0.245s-0.092-0.13-0.152-0.179c-0.061-0.048-0.131-0.085-0.209-0.11
	c-0.078-0.025-0.164-0.037-0.256-0.037c-0.059,0-0.115,0.002-0.169,0.006c-0.053,0.004-0.104,0.01-0.15,0.019
	s-0.088,0.019-0.125,0.031s-0.068,0.027-0.093,0.044c-0.025,0.017-0.048,0.036-0.069,0.056c-0.02,0.02-0.038,0.042-0.053,0.066
	c-0.015,0.023-0.026,0.047-0.034,0.072c-0.008,0.025-0.012,0.05-0.012,0.075c0,0.025,0.002,0.05,0.007,0.074
	c0.005,0.024,0.012,0.047,0.022,0.068c0.01,0.021,0.024,0.04,0.041,0.056s0.038,0.028,0.063,0.037
	c0.025,0.017,0.063,0.036,0.113,0.057c0.05,0.021,0.112,0.044,0.185,0.069c0.073,0.025,0.158,0.052,0.254,0.082
	c0.096,0.029,0.203,0.061,0.32,0.094c0.143,0.042,0.272,0.084,0.39,0.127s0.224,0.087,0.318,0.133
	c0.094,0.046,0.177,0.094,0.249,0.146s0.133,0.106,0.183,0.165c0.05,0.059,0.094,0.119,0.132,0.183
	c0.038,0.064,0.069,0.131,0.094,0.202c0.025,0.071,0.044,0.147,0.057,0.227c0.013,0.081,0.019,0.167,0.019,0.259
	c0,0.109-0.01,0.214-0.031,0.314s-0.051,0.197-0.091,0.289c-0.04,0.092-0.089,0.18-0.147,0.264
	c-0.058,0.084-0.125,0.163-0.201,0.239c-0.075,0.075-0.159,0.14-0.251,0.195c-0.092,0.055-0.191,0.1-0.298,0.136
	c-0.107,0.036-0.221,0.062-0.342,0.079c-0.121,0.017-0.249,0.026-0.383,0.026c-0.126,0-0.243-0.008-0.354-0.025
	s-0.214-0.04-0.313-0.072c-0.099-0.032-0.192-0.07-0.281-0.116s-0.176-0.098-0.259-0.157c-0.059-0.05-0.115-0.111-0.169-0.181
	c-0.053-0.07-0.104-0.148-0.15-0.234s-0.088-0.179-0.125-0.278C72.098,74.318,72.066,74.213,72.041,74.104L72.041,74.104
	L72.041,74.104L72.041,74.104L72.041,74.104z"/>
<g id="g8055" inkscape:groupmode="layer" inkscape:label="communications_responder-communications" style="display:none;">
	
		<g id="g8074" transform="matrix(0.81953698,0,0,0.81953698,6.1116863,4.3296441)" inkscape:export-filename="C:\Users\Charlotte Abel\Documents\Symbology\Components\For Distribution\communications_responder-communications-gray.png" inkscape:export-xdpi="300.00458" inkscape:export-ydpi="300.00458" style="display:inline;">
		
			<g id="g8041" transform="matrix(0.98,0,0,0.98,0.4564504,3.561378)" inkscape:export-filename="C:\Users\Charlotte Abel\Documents\Symbology\Components\communications_responder-communications-3.png" inkscape:export-xdpi="300.00458" inkscape:export-ydpi="300.00458">
			<path id="path8033" inkscape:connector-curvature="0" style="fill:#003366;" d="M39.3,23.7c-0.025,0-0.05,0-0.073,0
				c-0.024,0-0.046,0-0.065,0c-0.018,0-0.034,0-0.045,0c-0.011,0-0.017,0-0.017,0l0,0l0,0l0,0l0,0l0,0l0,0l0,0l0,0
				c-0.1,0.025-0.194,0.062-0.278,0.111c-0.084,0.049-0.159,0.108-0.222,0.177c-0.062,0.069-0.112,0.146-0.147,0.232
				C38.419,24.306,38.4,24.4,38.4,24.5v0.2v0.2v0.2v0.2l-0.1,4.275l-0.1,4.275l-0.1,4.275L38,42.4l0,0l0,0l0,0l0,0
				c-0.225,0.05-0.425,0.1-0.6,0.15c-0.175,0.05-0.325,0.1-0.45,0.15s-0.225,0.1-0.3,0.15c-0.075,0.05-0.125,0.1-0.15,0.15l0,0l0,0
				l0,0l0,0l0,0l0,0l0,0l0,0v6.425v6.425v6.425V68.7c0,0.15,0.019,0.288,0.053,0.409c0.034,0.122,0.084,0.228,0.147,0.316
				c0.062,0.088,0.138,0.156,0.222,0.203C37.006,69.675,37.1,69.7,37.2,69.7h3.325h3.325h3.325H50.5c0.1,0,0.194-0.031,0.278-0.086
				c0.084-0.055,0.159-0.133,0.222-0.226s0.112-0.203,0.147-0.32C51.181,68.95,51.2,68.825,51.2,68.7v-6.4v-6.4v-6.4v-6.4l0,0l0,0
				l0,0l0,0l0,0l0,0l0,0l0,0c-0.025-0.05-0.075-0.1-0.148-0.15c-0.074-0.05-0.171-0.1-0.29-0.15c-0.118-0.05-0.259-0.1-0.42-0.15
				c-0.161-0.05-0.343-0.1-0.543-0.15l-0.025-0.475l-0.025-0.475l-0.025-0.475L49.7,40.6v-0.125V40.35v-0.125V40.1
				c0-0.075-0.019-0.144-0.055-0.206c-0.036-0.062-0.089-0.119-0.157-0.169c-0.069-0.05-0.153-0.094-0.252-0.131
				c-0.099-0.037-0.211-0.069-0.336-0.094l0,0l0,0l0,0l0,0l0,0l0,0l0,0l0,0c-0.025,0-0.05,0-0.075,0c-0.025,0-0.05,0-0.075,0
				c-0.025,0-0.05,0-0.075,0c-0.025,0-0.05,0-0.075,0h-0.05H48.5h-0.05H48.4h-0.05H48.3h-0.05H48.2c-0.025,0-0.05,0-0.075,0
				c-0.025,0-0.05,0-0.075,0c-0.025,0-0.05,0-0.075,0c-0.025,0-0.05,0-0.075,0l0,0l0,0l0,0l0,0l0,0l0,0l0,0l0,0
				c-0.125,0.025-0.237,0.056-0.336,0.094c-0.098,0.037-0.183,0.081-0.251,0.131c-0.069,0.05-0.122,0.106-0.158,0.169
				C47.119,39.956,47.1,40.025,47.1,40.1v0.125v0.125v0.125V40.6l-0.025,0.375L47.05,41.35l-0.025,0.375L47,42.1
				c-0.125,0-0.25-0.006-0.377-0.016s-0.255-0.022-0.386-0.034c-0.131-0.012-0.265-0.025-0.404-0.034
				C45.694,42.006,45.55,42,45.4,42l-0.025-0.65L45.35,40.7l-0.025-0.65L45.3,39.4v-0.125V39.15v-0.125V38.9
				c0-0.075-0.019-0.144-0.055-0.206c-0.036-0.062-0.089-0.119-0.157-0.169c-0.069-0.05-0.153-0.094-0.252-0.131
				c-0.099-0.037-0.211-0.069-0.336-0.094l0,0l0,0l0,0l0,0l0,0l0,0l0,0l0,0c-0.025,0-0.05,0-0.075,0c-0.025,0-0.05,0-0.075,0
				c-0.025,0-0.05,0-0.075,0c-0.025,0-0.05,0-0.075,0h-0.05H44.1h-0.05H44h-0.05H43.9h-0.05H43.8c-0.025,0-0.05,0-0.075,0
				c-0.025,0-0.05,0-0.075,0c-0.025,0-0.05,0-0.075,0c-0.025,0-0.05,0-0.075,0l0,0l0,0l0,0l0,0l0,0l0,0l0,0l0,0
				c-0.125,0.025-0.237,0.056-0.336,0.094c-0.098,0.037-0.183,0.081-0.251,0.131c-0.069,0.05-0.122,0.106-0.158,0.169
				C42.719,38.756,42.7,38.825,42.7,38.9v0.125v0.125v0.125V39.4l-0.05,0.65L42.6,40.7l-0.05,0.65L42.5,42
				c-0.15,0-0.294,0-0.433,0.002s-0.273,0.005-0.404,0.011s-0.259,0.016-0.386,0.03c-0.127,0.014-0.252,0.032-0.377,0.057l0,0l0,0
				l0,0l0,0l-0.075-4.175L40.75,33.75l-0.075-4.175L40.6,25.4v-0.2V25v-0.2v-0.2c0-0.1-0.019-0.2-0.053-0.294
				c-0.034-0.094-0.084-0.181-0.147-0.256c-0.062-0.075-0.138-0.137-0.222-0.181S40,23.8,39.9,23.8l0,0l0,0l0,0l0,0l0,0l0,0l0,0l0,0
				c-0.025,0-0.05,0-0.073,0c-0.024,0-0.046,0-0.065,0c-0.018,0-0.034,0-0.045,0c-0.011,0-0.017,0-0.017,0h-0.05H39.6h-0.05H39.5
				l-0.05-0.025L39.4,23.75l-0.05-0.025L39.3,23.7z"/>
			<path id="path8035" inkscape:connector-curvature="0" style="fill:#FFFFFF;" d="M38.6,47.4h2.65h2.65h2.65h2.65
				c0.05,0,0.1,0.019,0.147,0.053c0.047,0.034,0.091,0.084,0.128,0.147c0.038,0.062,0.069,0.138,0.091,0.222
				C49.587,47.906,49.6,48,49.6,48.1c0,0.1-0.013,0.194-0.034,0.278s-0.053,0.159-0.091,0.222c-0.037,0.062-0.081,0.112-0.128,0.147
				S49.25,48.8,49.2,48.8h-2.65H43.9h-2.65H38.6c-0.05,0-0.1-0.019-0.147-0.053c-0.047-0.034-0.091-0.084-0.128-0.147
				c-0.037-0.062-0.069-0.138-0.091-0.222C38.213,48.294,38.2,48.2,38.2,48.1c0-0.1,0.013-0.194,0.034-0.278
				c0.022-0.084,0.053-0.159,0.091-0.222c0.038-0.062,0.081-0.112,0.128-0.147S38.55,47.4,38.6,47.4z"/>
			<path id="path8037" inkscape:connector-curvature="0" style="fill:#FFFFFF;" d="M38.6,49.6h2.65h2.65h2.65h2.65
				c0.05,0,0.1,0.019,0.147,0.053c0.047,0.034,0.091,0.084,0.128,0.147c0.038,0.062,0.069,0.138,0.091,0.222
				C49.587,50.106,49.6,50.2,49.6,50.3c0,0.1-0.013,0.194-0.034,0.278s-0.053,0.159-0.091,0.222
				c-0.037,0.062-0.081,0.112-0.128,0.147C49.3,50.981,49.25,51,49.2,51h-2.65H43.9h-2.65H38.6c-0.05,0-0.1-0.019-0.147-0.053
				c-0.047-0.034-0.091-0.084-0.128-0.147c-0.037-0.062-0.069-0.138-0.091-0.222C38.213,50.494,38.2,50.4,38.2,50.3
				c0-0.1,0.013-0.194,0.034-0.278c0.022-0.084,0.053-0.159,0.091-0.222c0.038-0.062,0.081-0.112,0.128-0.147
				C38.5,49.619,38.55,49.6,38.6,49.6z"/>
			<path id="path8039" inkscape:connector-curvature="0" style="fill:#FFFFFF;" d="M39.1,54h2.4h2.4h2.4h2.4
				c0.125,0,0.244,0.038,0.352,0.105c0.108,0.067,0.205,0.164,0.286,0.283c0.081,0.118,0.147,0.259,0.192,0.414
				s0.07,0.323,0.07,0.498v0.975v0.975v0.975V59.2c0,0.175-0.025,0.344-0.07,0.498s-0.111,0.295-0.193,0.414
				c-0.081,0.119-0.178,0.216-0.285,0.283C48.944,60.463,48.825,60.5,48.7,60.5h-2.4h-2.4h-2.4h-2.4
				c-0.125,0-0.244-0.037-0.352-0.105c-0.108-0.067-0.205-0.164-0.286-0.283c-0.081-0.118-0.146-0.259-0.192-0.414
				S38.2,59.375,38.2,59.2v-0.975V57.25v-0.975V55.3c0-0.2,0.025-0.381,0.07-0.541c0.045-0.159,0.111-0.297,0.193-0.409
				c0.081-0.112,0.178-0.2,0.285-0.259S38.975,54,39.1,54z"/>
		</g>
		
			<path id="path8043" inkscape:connector-curvature="0" inkscape:export-filename="C:\Users\Charlotte Abel\Documents\Symbology\Components\communications_responder-communications-3.png" inkscape:export-xdpi="300.00458" inkscape:export-ydpi="300.00458" style="fill:#003366;" d="
			M54.6,26.7l-1.25,1l-1.25,1l-1.25,1l-1.25,1l0.575,0.425l0.575,0.425l0.575,0.425L51.9,32.4l-2.3,0.875l-2.3,0.875L45,35.025
			L42.7,35.9l1.275-1l1.275-1l1.275-1l1.275-1c-0.175-0.15-0.356-0.294-0.541-0.434c-0.184-0.141-0.372-0.278-0.559-0.416
			c-0.188-0.138-0.375-0.275-0.559-0.416S45.775,30.35,45.6,30.2c0.775-0.275,1.531-0.562,2.278-0.856
			c0.747-0.294,1.484-0.594,2.222-0.894c0.737-0.3,1.475-0.6,2.222-0.894C53.069,27.263,53.825,26.975,54.6,26.7L54.6,26.7
			L54.6,26.7L54.6,26.7L54.6,26.7z"/>
		
			<g id="g8053" transform="matrix(0.8323596,0,0,0.8323596,23.16472,1.947421)" inkscape:export-filename="C:\Users\Charlotte Abel\Documents\Symbology\Components\communications_responder-communications-3.png" inkscape:export-xdpi="300.00458" inkscape:export-ydpi="300.00458">
			<path id="path8045" inkscape:connector-curvature="0" style="fill:#003366;" d="M42.4,26.3c-0.025,0-0.05,0-0.073,0
				c-0.023,0-0.045,0-0.064,0c-0.019,0-0.035,0-0.046,0c-0.011,0-0.017,0-0.017,0l0,0l0,0l0,0l0,0l0,0l0,0l0,0l0,0
				c-0.1,0.025-0.194,0.062-0.278,0.111c-0.084,0.049-0.159,0.108-0.222,0.177s-0.112,0.147-0.147,0.233
				C41.519,26.906,41.5,27,41.5,27.1v0.2v0.2v0.2v0.2l-0.075,4.275L41.35,36.45l-0.075,4.275L41.2,45l0,0l0,0l0,0l0,0
				c-0.225,0.05-0.425,0.1-0.6,0.15s-0.325,0.1-0.45,0.15s-0.225,0.1-0.3,0.15s-0.125,0.1-0.15,0.15l0,0l0,0l0,0l0,0l0,0l0,0l0,0
				l0,0v6.425v6.425v6.425V71.3c0,0.15,0.019,0.288,0.053,0.409c0.034,0.122,0.084,0.228,0.147,0.316
				c0.062,0.088,0.137,0.156,0.222,0.203C40.206,72.275,40.3,72.3,40.4,72.3h3.325h3.325h3.325H53.7c0.1,0,0.194-0.031,0.278-0.086
				c0.084-0.055,0.159-0.133,0.222-0.226s0.112-0.203,0.147-0.32C54.381,71.55,54.4,71.425,54.4,71.3v-6.4v-6.4v-6.4v-6.4l0,0l0,0
				l0,0l0,0l0,0l0,0l0,0l0,0c-0.025-0.05-0.075-0.1-0.148-0.15c-0.074-0.05-0.171-0.1-0.29-0.15s-0.26-0.1-0.42-0.15
				C53.381,45.2,53.2,45.15,53,45.1l-0.025-0.475L52.95,44.15l-0.025-0.475L52.9,43.2v-0.125V42.95v-0.125V42.7
				c0-0.075-0.019-0.144-0.055-0.206c-0.036-0.062-0.089-0.119-0.157-0.169c-0.069-0.05-0.153-0.094-0.252-0.131
				c-0.099-0.038-0.211-0.069-0.336-0.094l0,0l0,0l0,0l0,0l0,0l0,0l0,0l0,0c-0.025,0-0.05,0-0.075,0c-0.025,0-0.05,0-0.075,0
				c-0.025,0-0.05,0-0.075,0c-0.025,0-0.05,0-0.075,0h-0.05H51.7h-0.05H51.6h-0.05H51.5h-0.05H51.4c-0.025,0-0.05,0-0.075,0
				c-0.025,0-0.05,0-0.075,0s-0.05,0-0.075,0c-0.025,0-0.05,0-0.075,0l0,0l0,0l0,0l0,0l0,0l0,0l0,0l0,0
				c-0.125,0.025-0.237,0.056-0.336,0.094c-0.098,0.037-0.183,0.081-0.251,0.131c-0.069,0.05-0.122,0.106-0.158,0.169
				S50.3,42.625,50.3,42.7v0.125v0.125v0.125V43.2l-0.025,0.375L50.25,43.95l-0.025,0.375L50.2,44.7
				c-0.125,0-0.25-0.006-0.376-0.016c-0.126-0.009-0.255-0.022-0.385-0.034c-0.132-0.013-0.266-0.025-0.405-0.034
				C48.894,44.606,48.75,44.6,48.6,44.6l-0.025-0.65L48.55,43.3l-0.025-0.65L48.5,42v-0.125V41.75v-0.125V41.5
				c0-0.075-0.019-0.144-0.055-0.206s-0.089-0.119-0.158-0.169s-0.153-0.094-0.251-0.131c-0.098-0.038-0.21-0.069-0.335-0.094l0,0
				l0,0l0,0l0,0l0,0l0,0l0,0l0,0c-0.025,0-0.05,0-0.075,0s-0.05,0-0.075,0s-0.05,0-0.075,0c-0.025,0-0.05,0-0.075,0h-0.05H47.3
				h-0.05H47.2h-0.05H47.1h-0.05H47c-0.025,0-0.05,0-0.075,0c-0.025,0-0.05,0-0.075,0s-0.05,0-0.075,0c-0.025,0-0.05,0-0.075,0l0,0
				l0,0l0,0l0,0l0,0l0,0l0,0l0,0c-0.125,0.025-0.237,0.056-0.336,0.094c-0.098,0.037-0.183,0.081-0.252,0.131
				c-0.069,0.05-0.122,0.106-0.157,0.169C45.919,41.356,45.9,41.425,45.9,41.5v0.125v0.125v0.125V42l-0.025,0.65L45.85,43.3
				l-0.025,0.65L45.8,44.6c-0.15,0-0.294,0-0.433,0.002s-0.273,0.005-0.404,0.011s-0.259,0.016-0.386,0.03
				c-0.127,0.014-0.252,0.032-0.377,0.057l0,0l0,0l0,0l0,0l-0.125-4.175L43.95,36.35l-0.125-4.175L43.7,28v-0.2v-0.2v-0.2v-0.2
				c0-0.1-0.019-0.2-0.053-0.294c-0.034-0.094-0.084-0.181-0.147-0.256c-0.062-0.075-0.137-0.137-0.222-0.181
				C43.194,26.425,43.1,26.4,43,26.4l0,0l0,0l0,0l0,0l0,0l0,0l0,0l0,0c-0.025,0-0.05,0-0.073,0c-0.023,0-0.045,0-0.064,0
				c-0.019,0-0.035,0-0.046,0c-0.011,0-0.017,0-0.017,0h-0.05H42.7h-0.05H42.6l-0.05-0.025L42.5,26.35l-0.05-0.025L42.4,26.3z"/>
			<path id="path8047" inkscape:connector-curvature="0" style="fill:#FFFFFF;" d="M41.8,50h2.65h2.65h2.65h2.65
				c0.05,0,0.1,0.019,0.147,0.053c0.047,0.034,0.091,0.084,0.128,0.147c0.038,0.062,0.069,0.137,0.091,0.222
				C52.787,50.506,52.8,50.6,52.8,50.7c0,0.1-0.013,0.194-0.034,0.278c-0.022,0.084-0.053,0.159-0.091,0.222
				c-0.037,0.062-0.081,0.112-0.128,0.147S52.45,51.4,52.4,51.4h-2.65H47.1h-2.65H41.8c-0.05,0-0.1-0.019-0.147-0.053
				s-0.091-0.084-0.128-0.147c-0.038-0.062-0.069-0.138-0.091-0.222C41.412,50.894,41.4,50.8,41.4,50.7
				c0-0.1,0.006-0.194,0.02-0.278c0.014-0.084,0.036-0.159,0.067-0.222c0.031-0.062,0.072-0.113,0.124-0.147S41.725,50,41.8,50z"/>
			<path id="path8049" inkscape:connector-curvature="0" style="fill:#FFFFFF;" d="M41.8,52.2h2.65h2.65h2.65h2.65
				c0.05,0,0.1,0.019,0.147,0.053c0.047,0.034,0.091,0.084,0.128,0.147c0.038,0.062,0.069,0.138,0.091,0.222
				C52.787,52.706,52.8,52.8,52.8,52.9c0,0.1-0.013,0.194-0.034,0.278c-0.022,0.084-0.053,0.159-0.091,0.222
				c-0.037,0.062-0.081,0.112-0.128,0.147S52.45,53.6,52.4,53.6h-2.65H47.1h-2.65H41.8c-0.05,0-0.1-0.019-0.147-0.053
				c-0.047-0.034-0.091-0.084-0.128-0.147c-0.038-0.062-0.069-0.137-0.091-0.222C41.412,53.094,41.4,53,41.4,52.9
				c-0.025-0.1-0.031-0.194-0.022-0.278c0.009-0.084,0.034-0.159,0.072-0.222c0.037-0.062,0.087-0.112,0.147-0.147
				S41.725,52.2,41.8,52.2z"/>
			<path id="path8051" inkscape:connector-curvature="0" style="fill:#FFFFFF;" d="M42.2,56.6h2.4H47h2.4h2.4
				c0.125,0,0.244,0.037,0.352,0.105c0.108,0.067,0.205,0.164,0.286,0.282c0.081,0.119,0.146,0.26,0.192,0.414
				c0.045,0.155,0.07,0.324,0.07,0.499v0.975v0.975v0.975V61.8c0,0.175-0.025,0.344-0.07,0.498s-0.111,0.295-0.193,0.414
				c-0.081,0.119-0.178,0.216-0.285,0.283S51.925,63.1,51.8,63.1h-2.4H47h-2.4h-2.4c-0.125,0-0.244-0.037-0.351-0.105
				c-0.108-0.067-0.205-0.164-0.285-0.283c-0.082-0.118-0.147-0.259-0.193-0.414S41.3,61.975,41.3,61.8v-0.975V59.85v-0.975V57.9
				c0-0.175,0.025-0.344,0.07-0.498s0.111-0.295,0.192-0.414c0.081-0.119,0.178-0.216,0.286-0.283
				C41.956,56.637,42.075,56.6,42.2,56.6z"/>
		</g>
	</g>
</g>
</svg>
