<?xml version="1.0" encoding="iso-8859-1"?>
<!-- Generator: Adobe Illustrator 25.4.1, SVG Export Plug-In . SVG Version: 6.00 Build 0)  -->
<svg version="1.1"
	 id="svg8" xmlns:cc="http://creativecommons.org/ns#" xmlns:dc="http://purl.org/dc/elements/1.1/" xmlns:inkscape="http://www.inkscape.org/namespaces/inkscape" xmlns:rdf="http://www.w3.org/1999/02/22-rdf-syntax-ns#" xmlns:sodipodi="http://sodipodi.sourceforge.net/DTD/sodipodi-0.dtd" xmlns:svg="http://www.w3.org/2000/svg"
	 xmlns="http://www.w3.org/2000/svg" xmlns:xlink="http://www.w3.org/1999/xlink" x="0px" y="0px" viewBox="0 0 100 100"
	 style="enable-background:new 0 0 100 100;" xml:space="preserve">
<g id="g1180_1_" transform="translate(0,-229.2666)" inkscape:groupmode="layer" inkscape:label="halo:always" style="display:none;">
	<g id="g1210_1_" inkscape:groupmode="layer" inkscape:label="-gray-halo:iter3" style="display:inline;">
		<g id="circle1208_1_">
			<path style="fill:#919395;" d="M50,329.3c-27.6,0-50-22.4-50-50s22.4-50,50-50s50,22.4,50,50S77.6,329.3,50,329.3z M50,237.9
				c-22.8,0-41.4,18.6-41.4,41.4s18.6,41.4,41.4,41.4s41.4-18.6,41.4-41.4S72.8,237.9,50,237.9z"/>
		</g>
	</g>
	<g id="g1206_1_" inkscape:groupmode="layer" inkscape:label="-red-halo:iter3" style="display:inline;">
		<g id="circle1204_1_">
			<path style="fill:#C52038;" d="M50,329.3c-27.6,0-50-22.4-50-50s22.4-50,50-50s50,22.4,50,50S77.6,329.3,50,329.3z M50,237.9
				c-22.8,0-41.4,18.6-41.4,41.4s18.6,41.4,41.4,41.4s41.4-18.6,41.4-41.4S72.8,237.9,50,237.9z"/>
		</g>
	</g>
	<g id="g1202_1_" inkscape:groupmode="layer" inkscape:label="-green-halo:iter3" style="display:inline;">
		<g id="circle1200_1_">
			<path style="fill:#5E9C42;" d="M50,329.3c-27.6,0-50-22.4-50-50s22.4-50,50-50s50,22.4,50,50S77.6,329.3,50,329.3z M50,237.9
				c-22.8,0-41.4,18.6-41.4,41.4s18.6,41.4,41.4,41.4s41.4-18.6,41.4-41.4S72.8,237.9,50,237.9z"/>
		</g>
	</g>
	<g id="layer18_1_" inkscape:groupmode="layer" inkscape:label="-yellow-halo:iter3" style="display:inline;">
		<g id="circle1178-4_1_">
			<path style="fill:#FBBA16;" d="M50,329.3c-27.6,0-50-22.4-50-50s22.4-50,50-50s50,22.4,50,50S77.6,329.3,50,329.3z M50,237.9
				c-22.8,0-41.4,18.6-41.4,41.4s18.6,41.4,41.4,41.4s41.4-18.6,41.4-41.4S72.8,237.9,50,237.9z"/>
		</g>
	</g>
</g>
<sodipodi:namedview  bordercolor="#666666" borderopacity="1.0" id="base" inkscape:current-layer="layer4" inkscape:cx="113.93522" inkscape:cy="84.283015" inkscape:document-units="px" inkscape:guide-bbox="true" inkscape:lockguides="true" inkscape:pageopacity="0.0" inkscape:pageshadow="2" inkscape:window-height="632" inkscape:window-maximized="0" inkscape:window-width="996" inkscape:window-x="280" inkscape:window-y="0" inkscape:zoom="0.765625" pagecolor="#ffffff" showgrid="false" showguides="false" units="px">
	<sodipodi:guide  id="guide5700" inkscape:locked="true" orientation="0,1" position="-0.93017576,23.874511"></sodipodi:guide>
	<sodipodi:guide  id="guide5726" inkscape:locked="true" orientation="0,1" position="-26.098869,26.473047"></sodipodi:guide>
	<sodipodi:guide  id="guide5880" inkscape:locked="true" orientation="0,1" position="104.51042,-2.9104167"></sodipodi:guide>
	<sodipodi:guide  id="guide6001" inkscape:locked="true" orientation="0,1" position="-71.093695,29.279377"></sodipodi:guide>
	<sodipodi:guide  id="guide6005" inkscape:locked="true" orientation="0,1" position="-46.304445,58.278122"></sodipodi:guide>
	<sodipodi:guide  id="guide6736" inkscape:locked="true" orientation="0,1" position="-0.10335287,20.205485"></sodipodi:guide>
	<sodipodi:guide  id="guide6738" inkscape:locked="true" orientation="0,1" position="-0.43848907,22.874513"></sodipodi:guide>
	<inkscape:grid  id="grid2386" type="xygrid"></inkscape:grid>
</sodipodi:namedview>
<path id="path7870" inkscape:connector-curvature="0" inkscape:export-filename="C:\Users\Charlotte Abel\Documents\Symbology\Components\For Distribution\communications_financial-services-gray.png" inkscape:export-xdpi="300.00458" inkscape:export-ydpi="300.00458" style="fill:#003366;" d="
	M39.8,63.4c-0.1,0.125-0.188,0.25-0.264,0.376c-0.077,0.127-0.142,0.255-0.199,0.386c-0.056,0.132-0.103,0.266-0.142,0.405
	C39.156,64.706,39.125,64.85,39.1,65s-0.044,0.3-0.055,0.448c-0.011,0.148-0.014,0.295-0.007,0.439
	c0.006,0.144,0.021,0.285,0.048,0.421c0.027,0.136,0.064,0.267,0.114,0.392c0.175,0.45,0.431,0.85,0.745,1.188
	c0.314,0.338,0.686,0.613,1.093,0.812c0.406,0.2,0.847,0.325,1.298,0.363S43.25,69.05,43.7,68.9l2.3-0.8l2.3-0.8l2.3-0.8l2.3-0.8
	L53,66l0.1,0.3l0.1,0.3l0.1,0.3L51,67.7l-2.3,0.8l-2.3,0.8l-2.3,0.8c-0.625,0.225-1.263,0.306-1.881,0.262
	C41.6,70.319,41,70.15,40.45,69.875s-1.05-0.656-1.469-1.125S38.225,67.725,38,67.1c-0.075-0.225-0.131-0.45-0.17-0.674
	c-0.039-0.223-0.061-0.445-0.067-0.664c-0.006-0.219,0.003-0.434,0.027-0.645c0.023-0.211,0.06-0.417,0.111-0.617l-3.3-1.525
	l-3.3-1.525L28,59.925L24.7,58.4c-0.45-0.2-0.919-0.306-1.383-0.325c-0.464-0.019-0.923,0.05-1.354,0.2
	c-0.431,0.15-0.835,0.381-1.186,0.688c-0.352,0.306-0.652,0.688-0.877,1.137c-0.2,0.45-0.306,0.919-0.325,1.383
	c-0.019,0.464,0.05,0.923,0.2,1.354c0.15,0.432,0.381,0.835,0.688,1.186c0.306,0.352,0.688,0.652,1.137,0.877l5.7,2.675L33,70.25
	l5.7,2.675l5.7,2.675c0.175,0.075,0.362,0.138,0.556,0.186c0.194,0.048,0.394,0.083,0.594,0.101c0.2,0.019,0.4,0.022,0.594,0.008
	c0.194-0.014,0.381-0.046,0.556-0.096l5.025-1.075l5.025-1.075l5.025-1.075L66.8,71.5l2.025,0.95l2.025,0.95l2.025,0.95L74.9,75.3
	l1.275-2.75l1.275-2.75l1.275-2.75L80,64.3h-0.025H79.95h-0.025H79.9v-0.025V64.25v-0.025V64.2l-4.7-2.175l-4.7-2.175l-4.7-2.175
	L61.1,55.5l-5.025,1.75L51.05,59l-5.025,1.75L41,62.5c-0.05,0-0.119,0.025-0.201,0.07c-0.083,0.045-0.18,0.111-0.285,0.193
	c-0.106,0.081-0.222,0.178-0.343,0.285C40.05,63.156,39.925,63.275,39.8,63.4L39.8,63.4L39.8,63.4L39.8,63.4L39.8,63.4z"/>
<path id="path11590" inkscape:connector-curvature="0" inkscape:export-filename="C:\Users\Charlotte Abel\Documents\Symbology\Components\For Distribution\communications_financial-services-gray.png" inkscape:export-xdpi="300.00458" inkscape:export-ydpi="300.00458" style="fill:#003366;" d="
	M23.9,24.2v0.25v0.25v0.25v0.25v6.125v6.125v6.125V49.7v0.25v0.25v0.25v0.25h13.05H50h13.05H76.1v-0.25V50.2v-0.25V49.7v-6.1v-6.1
	v-6.1v-6.1v-0.25V24.8v-0.25V24.3l-13.05-0.025L50,24.25l-13.05-0.025L23.9,24.2z"/>
<path id="path11588" inkscape:connector-curvature="0" inkscape:export-filename="C:\Users\Charlotte Abel\Documents\Symbology\Components\For Distribution\communications_financial-services-gray.png" inkscape:export-xdpi="300.00458" inkscape:export-ydpi="300.00458" style="fill:#FFFFFF;" d="
	M50,27.5c1.375,0,2.688,0.281,3.883,0.789c1.195,0.508,2.273,1.242,3.179,2.149s1.64,1.985,2.148,3.18S60,36.125,60,37.5
	s-0.281,2.688-0.789,3.883c-0.508,1.195-1.242,2.273-2.149,3.179c-0.906,0.906-1.985,1.64-3.18,2.148
	C52.687,47.219,51.375,47.5,50,47.5s-2.688-0.281-3.883-0.789c-1.195-0.508-2.273-1.242-3.179-2.149
	c-0.906-0.906-1.64-1.985-2.148-3.18C40.282,40.187,40,38.875,40,37.5l0,0l0,0l0,0l0,0c0-1.375,0.281-2.688,0.789-3.883
	c0.508-1.195,1.242-2.273,2.149-3.179s1.985-1.64,3.18-2.149C47.313,27.781,48.625,27.5,50,27.5z"/>
<path id="path11586" inkscape:connector-curvature="0" inkscape:export-filename="C:\Users\Charlotte Abel\Documents\Symbology\Components\For Distribution\communications_financial-services-gray.png" inkscape:export-xdpi="300.00458" inkscape:export-ydpi="300.00458" style="fill:#003366;" d="
	M49.4,30.2v0.125v0.125v0.125V30.7v0.2v0.2v0.2v0.2c-0.275,0.025-0.531,0.062-0.77,0.114s-0.461,0.117-0.668,0.198
	c-0.207,0.081-0.397,0.178-0.573,0.292S47.05,32.35,46.9,32.5c-0.15,0.15-0.281,0.306-0.394,0.47
	c-0.112,0.164-0.206,0.336-0.281,0.517c-0.075,0.181-0.131,0.372-0.169,0.574C46.019,34.263,46,34.475,46,34.7
	c0,0.225,0.019,0.438,0.055,0.639c0.036,0.202,0.089,0.392,0.158,0.574c0.069,0.181,0.153,0.353,0.251,0.517
	c0.098,0.164,0.211,0.32,0.336,0.47c0.15,0.15,0.312,0.287,0.491,0.414c0.178,0.127,0.372,0.242,0.584,0.349
	c0.213,0.106,0.444,0.203,0.697,0.292c0.253,0.089,0.528,0.17,0.828,0.245v0.825v0.825v0.825V41.5
	c-0.075-0.025-0.15-0.062-0.225-0.109c-0.075-0.047-0.15-0.103-0.225-0.166s-0.15-0.131-0.225-0.203
	c-0.075-0.072-0.15-0.147-0.225-0.222s-0.144-0.156-0.205-0.242c-0.061-0.086-0.114-0.177-0.157-0.271
	c-0.043-0.094-0.078-0.191-0.102-0.289C48.013,39.9,48,39.8,48,39.7l-0.625,0.075L46.75,39.85l-0.625,0.075L45.5,40
	c0.05,0.25,0.112,0.487,0.189,0.713c0.077,0.225,0.167,0.438,0.274,0.637c0.106,0.2,0.228,0.388,0.367,0.562s0.295,0.338,0.47,0.487
	c0.175,0.15,0.356,0.281,0.547,0.395c0.191,0.114,0.391,0.211,0.603,0.293c0.213,0.082,0.438,0.147,0.678,0.199
	c0.241,0.052,0.497,0.089,0.772,0.113v0.35v0.35v0.35v0.35h0.325h0.325h0.325H50.7v-0.375V44.05v-0.375V43.3
	c0.3-0.025,0.581-0.069,0.845-0.131s0.511-0.144,0.743-0.244c0.231-0.1,0.447-0.219,0.648-0.356
	c0.201-0.137,0.389-0.294,0.564-0.469c0.175-0.175,0.325-0.356,0.452-0.544s0.23-0.381,0.311-0.581s0.141-0.406,0.18-0.619
	c0.039-0.213,0.057-0.431,0.057-0.656c0-0.225-0.019-0.438-0.055-0.638c-0.036-0.2-0.089-0.387-0.157-0.562
	c-0.069-0.175-0.153-0.337-0.252-0.487c-0.098-0.15-0.211-0.288-0.336-0.413s-0.281-0.25-0.469-0.372
	c-0.188-0.122-0.406-0.241-0.656-0.353s-0.531-0.219-0.844-0.316S51.075,36.375,50.7,36.3v-0.775V34.75v-0.775V33.2
	c0.15,0.05,0.287,0.112,0.411,0.189s0.233,0.167,0.326,0.274c0.094,0.106,0.172,0.228,0.233,0.367s0.104,0.295,0.129,0.47
	l0.575-0.075l0.575-0.075l0.575-0.075l0.575-0.075c-0.05-0.2-0.106-0.388-0.172-0.564c-0.066-0.177-0.141-0.342-0.228-0.498
	c-0.088-0.156-0.187-0.303-0.303-0.442C53.281,32.556,53.15,32.425,53,32.3s-0.306-0.237-0.472-0.337
	c-0.166-0.1-0.341-0.188-0.528-0.263c-0.188-0.075-0.388-0.137-0.603-0.188c-0.216-0.05-0.447-0.087-0.697-0.112v-0.2V31v-0.2v-0.2
	v-0.125V30.35v-0.125V30.1l-0.325,0.025L50.05,30.15l-0.325,0.025L49.4,30.2z"/>
<path id="path11584" inkscape:connector-curvature="0" inkscape:export-filename="C:\Users\Charlotte Abel\Documents\Symbology\Components\For Distribution\communications_financial-services-gray.png" inkscape:export-xdpi="300.00458" inkscape:export-ydpi="300.00458" style="fill:#FFFFFF;" d="
	M49.4,33.2v0.675v0.675v0.675V35.9c-0.1-0.025-0.194-0.056-0.281-0.094c-0.088-0.037-0.169-0.081-0.244-0.131
	s-0.144-0.106-0.206-0.169S48.55,35.375,48.5,35.3c-0.05-0.05-0.094-0.106-0.131-0.167s-0.069-0.126-0.094-0.195
	c-0.025-0.069-0.044-0.141-0.056-0.215C48.206,34.65,48.2,34.575,48.2,34.5s0.006-0.15,0.019-0.223
	c0.013-0.074,0.031-0.146,0.056-0.215c0.025-0.069,0.056-0.134,0.094-0.195S48.45,33.75,48.5,33.7s0.106-0.1,0.169-0.148
	s0.131-0.096,0.206-0.139c0.075-0.043,0.156-0.084,0.244-0.12C49.206,33.256,49.3,33.225,49.4,33.2L49.4,33.2L49.4,33.2L49.4,33.2
	L49.4,33.2z"/>
<path id="path7872" inkscape:connector-curvature="0" inkscape:export-filename="C:\Users\Charlotte Abel\Documents\Symbology\Components\For Distribution\communications_financial-services-gray.png" inkscape:export-xdpi="300.00458" inkscape:export-ydpi="300.00458" style="fill:#FFFFFF;" d="
	M50.7,38.5c0.15,0.025,0.281,0.056,0.399,0.094c0.117,0.037,0.22,0.081,0.314,0.131s0.178,0.106,0.258,0.169
	c0.079,0.062,0.154,0.131,0.229,0.206c0.05,0.075,0.1,0.15,0.147,0.225c0.047,0.075,0.091,0.15,0.128,0.225s0.069,0.15,0.091,0.225
	C52.287,39.85,52.3,39.925,52.3,40c0,0.1-0.006,0.194-0.02,0.283c-0.014,0.089-0.036,0.174-0.068,0.255
	c-0.031,0.081-0.071,0.159-0.123,0.236C52.037,40.85,51.975,40.925,51.9,41c-0.075,0.075-0.156,0.144-0.242,0.205
	c-0.086,0.061-0.177,0.114-0.271,0.157c-0.093,0.044-0.19,0.079-0.289,0.102C51,41.487,50.9,41.5,50.8,41.5v-0.75V40v-0.75V38.5
	h-0.025H50.75h-0.025H50.7z"/>
</svg>
