<?xml version="1.0" encoding="iso-8859-1"?>
<!-- Generator: Adobe Illustrator 25.4.1, SVG Export Plug-In . SVG Version: 6.00 Build 0)  -->
<svg version="1.1"
	 id="svg8" xmlns:cc="http://creativecommons.org/ns#" xmlns:dc="http://purl.org/dc/elements/1.1/" xmlns:inkscape="http://www.inkscape.org/namespaces/inkscape" xmlns:rdf="http://www.w3.org/1999/02/22-rdf-syntax-ns#" xmlns:sodipodi="http://sodipodi.sourceforge.net/DTD/sodipodi-0.dtd" xmlns:svg="http://www.w3.org/2000/svg"
	 xmlns="http://www.w3.org/2000/svg" xmlns:xlink="http://www.w3.org/1999/xlink" x="0px" y="0px" viewBox="0 0 100 100"
	 style="enable-background:new 0 0 100 100;" xml:space="preserve">
<g id="g1180" transform="translate(0,-229.2666)" inkscape:groupmode="layer" inkscape:label="halo:always" style="display:none;">
	<g id="g1210" inkscape:groupmode="layer" inkscape:label="-gray-halo:iter3" style="display:inline;">
		<g id="circle1208">
			<path style="fill:#919395;" d="M50,329.3c-27.6,0-50-22.4-50-50s22.4-50,50-50s50,22.4,50,50S77.6,329.3,50,329.3z M50,237.9
				c-22.8,0-41.4,18.6-41.4,41.4s18.6,41.4,41.4,41.4s41.4-18.6,41.4-41.4S72.8,237.9,50,237.9z"/>
		</g>
	</g>
	<g id="g1206" inkscape:groupmode="layer" inkscape:label="-red-halo:iter3" style="display:inline;">
		<g id="circle1204">
			<path style="fill:#C52038;" d="M50,329.3c-27.6,0-50-22.4-50-50s22.4-50,50-50s50,22.4,50,50S77.6,329.3,50,329.3z M50,237.9
				c-22.8,0-41.4,18.6-41.4,41.4s18.6,41.4,41.4,41.4s41.4-18.6,41.4-41.4S72.8,237.9,50,237.9z"/>
		</g>
	</g>
	<g id="g1202" inkscape:groupmode="layer" inkscape:label="-green-halo:iter3" style="display:inline;">
		<g id="circle1200">
			<path style="fill:#5E9C42;" d="M50,329.3c-27.6,0-50-22.4-50-50s22.4-50,50-50s50,22.4,50,50S77.6,329.3,50,329.3z M50,237.9
				c-22.8,0-41.4,18.6-41.4,41.4s18.6,41.4,41.4,41.4s41.4-18.6,41.4-41.4S72.8,237.9,50,237.9z"/>
		</g>
	</g>
	<g id="layer18" inkscape:groupmode="layer" inkscape:label="-yellow-halo:iter3" style="display:inline;">
		<g id="circle1178-4">
			<path style="fill:#FBBA16;" d="M50,329.3c-27.6,0-50-22.4-50-50s22.4-50,50-50s50,22.4,50,50S77.6,329.3,50,329.3z M50,237.9
				c-22.8,0-41.4,18.6-41.4,41.4s18.6,41.4,41.4,41.4s41.4-18.6,41.4-41.4S72.8,237.9,50,237.9z"/>
		</g>
	</g>
</g>
<path style="fill:#003366;" d="M54.7,46.9c0-0.65-0.131-1.269-0.369-1.831S53.75,44,53.325,43.575
	c-0.425-0.425-0.931-0.769-1.494-1.006C51.269,42.331,50.65,42.2,50,42.2s-1.269,0.131-1.831,0.369s-1.069,0.581-1.494,1.006
	s-0.769,0.931-1.006,1.494S45.3,46.25,45.3,46.9c0,0.35,0.038,0.688,0.108,1.009c0.07,0.322,0.173,0.628,0.304,0.916
	c0.132,0.288,0.291,0.556,0.474,0.803c0.183,0.247,0.389,0.472,0.614,0.672l-2.125,7.525L42.55,65.35l-2.125,7.525L38.3,80.4h0.975
	h0.975h0.975H42.2l0.35-1.275l0.35-1.275l0.35-1.275L43.6,75.3h3.15h3.15h3.15h3.15l0.35,1.275l0.35,1.275l0.35,1.275L57.6,80.4
	h0.975h0.975h0.975H61.5l-2.125-7.525L57.25,65.35l-2.125-7.525L53,50.3c0.275-0.2,0.519-0.425,0.73-0.672
	c0.211-0.247,0.389-0.516,0.532-0.803s0.253-0.594,0.327-0.916C54.662,47.588,54.7,47.25,54.7,46.9z M47.9,60.4l0.525-1.85
	l0.525-1.85l0.525-1.85L50,53l0.525,1.825l0.525,1.825l0.525,1.825L52.1,60.3h-1.05H50h-1.05H47.9v0.025v0.025v0.025V60.4z
	 M52.4,63.7l-1.625,1l-1.625,1l-1.625,1l-1.625,1l0.275-1l0.275-1l0.275-1l0.275-1c0,0,0.338,0,0.844,0s1.181,0,1.856,0
	s1.35,0,1.856,0C52.062,63.7,52.4,63.7,52.4,63.7z M47.2,71l1.675-1.025l1.675-1.025l1.675-1.025L53.9,66.9l0.3,1.025l0.3,1.025
	l0.3,1.025L55.1,71h-1.975H51.15h-1.975H47.2z"/>
<path style="fill:#003366;" d="M58.8,55.7c0.575-0.575,1.088-1.206,1.533-1.881c0.445-0.675,0.823-1.394,1.129-2.144
	s0.541-1.531,0.699-2.331s0.24-1.619,0.24-2.444c0-0.8-0.081-1.6-0.239-2.386c-0.158-0.786-0.392-1.558-0.699-2.302
	s-0.684-1.459-1.13-2.133c-0.445-0.673-0.957-1.304-1.532-1.879l-0.725,0.7l-0.725,0.7l-0.725,0.7L55.9,41
	c0.4,0.4,0.75,0.831,1.051,1.287c0.302,0.456,0.555,0.938,0.761,1.438s0.365,1.019,0.48,1.55S58.375,46.35,58.4,46.9
	c0,0.55-0.056,1.094-0.166,1.625s-0.272,1.05-0.484,1.55s-0.475,0.981-0.784,1.438S56.3,52.4,55.9,52.8l0.725,0.725l0.725,0.725
	l0.725,0.725L58.8,55.7z"/>
<path style="fill:#003366;" d="M32.3,29.3l-0.725-0.725L30.85,27.85l-0.725-0.725L29.4,26.4c-1.375,1.375-2.594,2.862-3.648,4.442
	c-1.055,1.58-1.945,3.252-2.664,4.996c-0.719,1.744-1.266,3.559-1.633,5.426C21.087,43.131,20.9,45.05,20.9,47
	c0,1.925,0.194,3.831,0.569,5.694c0.375,1.863,0.931,3.681,1.656,5.431s1.619,3.431,2.669,5.019S28.05,66.225,29.4,67.6l0.725-0.725
	l0.725-0.725l0.725-0.725L32.3,64.7c-1.175-1.175-2.219-2.45-3.124-3.805c-0.905-1.355-1.67-2.789-2.289-4.283
	c-0.618-1.493-1.09-3.047-1.407-4.639C25.163,50.381,25,48.75,25,47.1c0.025-1.7,0.206-3.369,0.536-4.989
	c0.33-1.62,0.808-3.192,1.426-4.699c0.619-1.506,1.378-2.946,2.271-4.304S31.15,30.475,32.3,29.3z"/>
<path style="fill:#003366;" d="M41.2,55.7l0.725-0.725l0.725-0.725l0.725-0.725L44.1,52.8c-0.4-0.4-0.75-0.831-1.052-1.287
	c-0.301-0.456-0.554-0.938-0.76-1.438s-0.366-1.019-0.48-1.55S41.625,47.45,41.6,46.9c0-0.55,0.056-1.094,0.166-1.625
	s0.272-1.05,0.484-1.55s0.475-0.981,0.784-1.438C43.344,41.831,43.7,41.4,44.1,41l-0.725-0.75L42.65,39.5l-0.725-0.75L41.2,38
	c-0.575,0.575-1.088,1.206-1.533,1.881c-0.445,0.675-0.823,1.394-1.129,2.144s-0.541,1.531-0.699,2.331S37.6,45.975,37.6,46.8
	c-0.025,0.85,0.037,1.688,0.183,2.502c0.145,0.814,0.373,1.605,0.679,2.361c0.307,0.756,0.691,1.478,1.149,2.154
	C40.069,54.494,40.6,55.125,41.2,55.7z"/>
<path style="fill:#003366;" d="M64.7,32.2l-0.725,0.725L63.25,33.65l-0.725,0.725L61.8,35.1c0.775,0.775,1.469,1.619,2.073,2.517
	c0.605,0.898,1.121,1.851,1.54,2.845s0.741,2.028,0.958,3.089C66.588,44.612,66.7,45.7,66.7,46.8c0,1.1-0.106,2.188-0.316,3.249
	c-0.209,1.061-0.522,2.096-0.934,3.09c-0.412,0.994-0.925,1.947-1.534,2.845C63.306,56.882,62.6,57.725,61.8,58.5l0.725,0.725
	l0.725,0.725l0.725,0.725L64.7,61.4c0.975-0.975,1.844-2.037,2.598-3.169c0.755-1.131,1.395-2.331,1.914-3.581
	c0.519-1.25,0.916-2.55,1.183-3.881c0.267-1.331,0.405-2.694,0.405-4.069c0-1.325-0.138-2.65-0.405-3.953
	c-0.267-1.303-0.664-2.584-1.182-3.822c-0.519-1.237-1.16-2.431-1.914-3.559S65.675,33.175,64.7,32.2z"/>
<path style="fill:#003366;" d="M38.2,35.1l-0.725-0.725L36.75,33.65l-0.725-0.725L35.3,32.2c-0.975,0.975-1.844,2.038-2.598,3.169
	c-0.755,1.131-1.396,2.331-1.915,3.581c-0.519,1.25-0.915,2.55-1.182,3.881C29.337,44.163,29.2,45.525,29.2,46.9
	s0.137,2.737,0.405,4.069c0.267,1.331,0.664,2.631,1.182,3.881c0.519,1.25,1.16,2.45,1.914,3.581
	c0.755,1.131,1.623,2.194,2.599,3.169l0.725-0.725l0.725-0.725l0.725-0.725L38.2,58.7c-0.775-0.775-1.469-1.619-2.073-2.517
	s-1.12-1.851-1.539-2.845s-0.74-2.028-0.958-3.089C33.413,49.188,33.3,48.1,33.3,47c0.025-1.125,0.15-2.237,0.372-3.322
	c0.222-1.084,0.541-2.141,0.953-3.153s0.919-1.981,1.516-2.891C36.738,36.725,37.425,35.875,38.2,35.1z"/>
<path style="fill:#003366;" d="M70.6,26.4l-0.725,0.725L69.15,27.85l-0.725,0.725L67.7,29.3c1.175,1.175,2.219,2.45,3.123,3.805
	c0.905,1.355,1.67,2.789,2.289,4.283c0.619,1.493,1.091,3.047,1.408,4.639C74.838,43.619,75,45.25,75,46.9s-0.162,3.281-0.48,4.874
	c-0.317,1.592-0.789,3.146-1.407,4.639c-0.619,1.493-1.385,2.928-2.289,4.282c-0.905,1.355-1.949,2.63-3.124,3.805l0.725,0.725
	l0.725,0.725l0.725,0.725L70.6,67.4c1.375-1.375,2.594-2.863,3.648-4.442c1.055-1.58,1.945-3.252,2.664-4.996
	s1.266-3.559,1.633-5.426C78.912,50.668,79.1,48.75,79.1,46.8c0-1.9-0.194-3.787-0.569-5.634s-0.931-3.653-1.656-5.391
	s-1.619-3.406-2.669-4.978C73.156,29.225,71.95,27.75,70.6,26.4z"/>
</svg>
