<?xml version="1.0" encoding="iso-8859-1"?>
<!-- Generator: Adobe Illustrator 25.4.1, SVG Export Plug-In . SVG Version: 6.00 Build 0)  -->
<svg version="1.1"
	 id="svg8" inkscape:export-filename="C:\Users\Charlotte Abel\Documents\Symbology\Components\For Distribution\communications_alerts-warnings-messages.png" inkscape:export-xdpi="300.00464" inkscape:export-ydpi="300.00464" inkscape:version="0.91 r13725" sodipodi:docname="communications_financial-services-with-label-clr_256x256.svg" xmlns:cc="http://creativecommons.org/ns#" xmlns:dc="http://purl.org/dc/elements/1.1/" xmlns:inkscape="http://www.inkscape.org/namespaces/inkscape" xmlns:rdf="http://www.w3.org/1999/02/22-rdf-syntax-ns#" xmlns:sodipodi="http://sodipodi.sourceforge.net/DTD/sodipodi-0.dtd" xmlns:svg="http://www.w3.org/2000/svg"
	 xmlns="http://www.w3.org/2000/svg" xmlns:xlink="http://www.w3.org/1999/xlink" x="0px" y="0px" viewBox="0 0 100 100"
	 style="enable-background:new 0 0 100 100;" xml:space="preserve">
<g id="g1180" transform="translate(0,-229.2666)" inkscape:groupmode="layer" inkscape:label="halo:always" style="display:none;">
	<g id="g1210" inkscape:groupmode="layer" inkscape:label="-gray-halo:iter3" style="display:inline;">
		<g id="circle1208">
			<path style="fill:#919395;" d="M50,329.3c-27.6,0-50-22.4-50-50s22.4-50,50-50s50,22.4,50,50S77.6,329.3,50,329.3z M50,237.9
				c-22.8,0-41.4,18.6-41.4,41.4s18.6,41.4,41.4,41.4s41.4-18.6,41.4-41.4S72.8,237.9,50,237.9z"/>
		</g>
	</g>
	<g id="g1206" inkscape:groupmode="layer" inkscape:label="-red-halo:iter3" style="display:inline;">
		<g id="circle1204">
			<path style="fill:#C52038;" d="M50,329.3c-27.6,0-50-22.4-50-50s22.4-50,50-50s50,22.4,50,50S77.6,329.3,50,329.3z M50,237.9
				c-22.8,0-41.4,18.6-41.4,41.4s18.6,41.4,41.4,41.4s41.4-18.6,41.4-41.4S72.8,237.9,50,237.9z"/>
		</g>
	</g>
	<g id="g1202" inkscape:groupmode="layer" inkscape:label="-green-halo:iter3" style="display:inline;">
		<g id="circle1200">
			<path style="fill:#5E9C42;" d="M50,329.3c-27.6,0-50-22.4-50-50s22.4-50,50-50s50,22.4,50,50S77.6,329.3,50,329.3z M50,237.9
				c-22.8,0-41.4,18.6-41.4,41.4s18.6,41.4,41.4,41.4s41.4-18.6,41.4-41.4S72.8,237.9,50,237.9z"/>
		</g>
	</g>
	<g id="layer18" inkscape:groupmode="layer" inkscape:label="-yellow-halo:iter3" style="display:inline;">
		<g id="circle1178-4">
			<path style="fill:#FBBA16;" d="M50,329.3c-27.6,0-50-22.4-50-50s22.4-50,50-50s50,22.4,50,50S77.6,329.3,50,329.3z M50,237.9
				c-22.8,0-41.4,18.6-41.4,41.4s18.6,41.4,41.4,41.4s41.4-18.6,41.4-41.4S72.8,237.9,50,237.9z"/>
		</g>
	</g>
</g>
<sodipodi:namedview  bordercolor="#666666" borderopacity="1.0" id="base" inkscape:current-layer="g11935" inkscape:cx="113.93522" inkscape:cy="84.283015" inkscape:document-units="px" inkscape:guide-bbox="true" inkscape:lockguides="true" inkscape:pageopacity="0.0" inkscape:pageshadow="2" inkscape:window-height="632" inkscape:window-maximized="0" inkscape:window-width="996" inkscape:window-x="280" inkscape:window-y="0" inkscape:zoom="0.765625" pagecolor="#ffffff" showgrid="false" showguides="false" units="px">
	<sodipodi:guide  id="guide5700" inkscape:locked="true" orientation="0,1" position="-0.93017576,23.874511"></sodipodi:guide>
	<sodipodi:guide  id="guide5726" inkscape:locked="true" orientation="0,1" position="-26.098869,26.473047"></sodipodi:guide>
	<sodipodi:guide  id="guide5880" inkscape:locked="true" orientation="0,1" position="104.51042,-2.9104167"></sodipodi:guide>
	<sodipodi:guide  id="guide6001" inkscape:locked="true" orientation="0,1" position="-71.093695,29.279377"></sodipodi:guide>
	<sodipodi:guide  id="guide6005" inkscape:locked="true" orientation="0,1" position="-46.304445,58.278122"></sodipodi:guide>
	<sodipodi:guide  id="guide6736" inkscape:locked="true" orientation="0,1" position="-0.10335287,20.205485"></sodipodi:guide>
	<sodipodi:guide  id="guide6738" inkscape:locked="true" orientation="0,1" position="-0.43848907,22.874513"></sodipodi:guide>
	<inkscape:grid  id="grid2386" type="xygrid"></inkscape:grid>
</sodipodi:namedview>
<path id="path11923" inkscape:connector-curvature="0" style="fill:#003366;" d="M42.851,46.117
	c-0.063,0.084-0.121,0.174-0.174,0.268c-0.053,0.094-0.1,0.191-0.143,0.291c-0.042,0.101-0.079,0.204-0.111,0.308
	c-0.032,0.104-0.058,0.21-0.079,0.316s-0.032,0.211-0.034,0.317s0.003,0.211,0.013,0.317c0.011,0.106,0.026,0.211,0.045,0.317
	s0.04,0.211,0.061,0.317c0.127,0.338,0.312,0.634,0.539,0.88c0.227,0.247,0.496,0.445,0.792,0.587
	c0.296,0.143,0.618,0.23,0.95,0.255c0.333,0.025,0.676-0.012,1.014-0.117l1.669-0.591l1.669-0.591l1.669-0.591l1.669-0.591
	l0.084,0.211l0.084,0.211l0.084,0.211l0.084,0.211l-1.669,0.591l-1.669,0.591l-1.669,0.591l-1.669,0.591
	c-0.444,0.148-0.903,0.201-1.353,0.169c-0.45-0.032-0.891-0.148-1.298-0.338c-0.406-0.19-0.779-0.454-1.091-0.782
	c-0.313-0.327-0.566-0.718-0.735-1.162c-0.063-0.148-0.106-0.301-0.132-0.458c-0.026-0.157-0.037-0.318-0.037-0.482
	c0-0.163,0.011-0.33,0.026-0.497c0.016-0.168,0.037-0.337,0.058-0.506l-2.387-1.119l-2.387-1.119l-2.387-1.119l-2.387-1.119
	c-0.317-0.148-0.655-0.227-0.993-0.242s-0.676,0.036-0.993,0.147C29.649,42.5,29.354,42.671,29.1,42.9s-0.465,0.513-0.613,0.851
	c-0.148,0.317-0.222,0.655-0.23,0.993s0.05,0.676,0.166,0.993s0.29,0.613,0.515,0.866c0.224,0.253,0.499,0.465,0.816,0.613
	l4.14,1.943l4.14,1.943l4.14,1.943l4.14,1.943c0.127,0.063,0.259,0.111,0.395,0.145c0.136,0.034,0.276,0.055,0.418,0.066
	c0.143,0.011,0.288,0.011,0.435,0.003c0.147-0.008,0.294-0.024,0.442-0.045l3.654-0.782l3.654-0.782l3.654-0.782l3.654-0.782
	l1.479,0.676l1.479,0.676l1.479,0.676l1.479,0.676l0.929-2.007l0.929-2.007l0.929-2.007l0.929-2.007h-0.021H72.21h-0.021h-0.021
	v-0.021v-0.021v-0.021v-0.021l-3.401-1.605l-3.401-1.605l-3.401-1.605l-3.401-1.605l-3.633,1.267l-3.633,1.267l-3.633,1.267
	l-3.633,1.267c-0.127,0.042-0.248,0.09-0.363,0.144c-0.115,0.054-0.223,0.115-0.323,0.183c-0.101,0.069-0.193,0.146-0.276,0.231
	C42.988,45.916,42.914,46.011,42.851,46.117L42.851,46.117L42.851,46.117L42.851,46.117L42.851,46.117z"/>
<path id="path11925" inkscape:connector-curvature="0" style="fill:#003366;" d="M31.191,17.729v0.19v0.19v0.19v0.19v4.457v4.457
	v4.457v4.457v0.19v0.19v0.19v0.19h9.484h9.484h9.484h9.484v-0.19v-0.19v-0.19v-0.19v-4.478V27.36v-4.478v-4.478v-0.19v-0.19v-0.19
	v-0.19l-9.484,0.021l-9.484,0.021l-9.484,0.021L31.191,17.729z"/>
<path id="path11927" inkscape:connector-curvature="0" style="fill:#FFFFFF;" d="M50.201,20.094c1.014,0,1.975,0.206,2.846,0.577
	c0.871,0.371,1.653,0.907,2.308,1.567c0.655,0.66,1.183,1.444,1.547,2.311c0.364,0.867,0.565,1.818,0.565,2.811
	c0,1.014-0.206,1.975-0.577,2.846c-0.371,0.871-0.907,1.653-1.567,2.308c-0.66,0.655-1.444,1.183-2.311,1.547
	c-0.867,0.364-1.817,0.565-2.81,0.565c-1.014,0-1.975-0.206-2.846-0.577c-0.871-0.371-1.653-0.907-2.308-1.567
	c-0.655-0.66-1.183-1.444-1.547-2.311c-0.364-0.867-0.565-1.817-0.565-2.81l0,0l0,0l0,0l0,0c0-1.014,0.201-1.98,0.565-2.858
	c0.364-0.878,0.892-1.667,1.547-2.328c0.655-0.66,1.436-1.191,2.308-1.552C48.226,20.263,49.187,20.073,50.201,20.094z"/>
<path id="path11929" inkscape:connector-curvature="0" style="fill:#003366;" d="M49.694,22.038v0.084v0.084v0.084v0.084v0.148
	v0.148v0.148v0.148c-0.19,0.021-0.37,0.053-0.54,0.095s-0.332,0.095-0.485,0.158c-0.153,0.063-0.298,0.137-0.437,0.222
	c-0.138,0.084-0.27,0.18-0.397,0.285c-0.106,0.106-0.201,0.217-0.284,0.334c-0.083,0.117-0.155,0.241-0.213,0.373
	c-0.058,0.132-0.103,0.272-0.133,0.421c-0.03,0.149-0.046,0.308-0.046,0.477c0,0.148,0.011,0.296,0.033,0.441
	c0.022,0.145,0.057,0.288,0.104,0.425c0.048,0.137,0.109,0.269,0.184,0.393c0.075,0.124,0.165,0.24,0.271,0.346
	c0.106,0.106,0.222,0.206,0.351,0.301s0.272,0.185,0.43,0.269c0.158,0.084,0.333,0.164,0.525,0.238
	c0.193,0.074,0.404,0.143,0.636,0.206v0.613v0.613v0.613v0.613c-0.063-0.021-0.121-0.048-0.177-0.079s-0.108-0.069-0.161-0.111
	c-0.053-0.042-0.106-0.09-0.161-0.143c-0.055-0.053-0.114-0.111-0.177-0.174c-0.042-0.063-0.084-0.127-0.125-0.19
	s-0.081-0.127-0.118-0.19c-0.037-0.063-0.071-0.127-0.101-0.19c-0.03-0.063-0.057-0.127-0.078-0.19l-0.444,0.042l-0.444,0.042
	l-0.444,0.042l-0.444,0.042c0.042,0.19,0.09,0.37,0.145,0.539s0.119,0.327,0.193,0.475c0.074,0.148,0.158,0.285,0.256,0.412
	c0.098,0.127,0.209,0.243,0.335,0.349s0.259,0.201,0.397,0.285s0.284,0.158,0.437,0.222c0.153,0.063,0.314,0.116,0.485,0.158
	c0.17,0.042,0.35,0.074,0.54,0.095v0.253v0.253v0.253v0.253h0.232h0.232h0.232h0.232v-0.275v-0.275v-0.275v-0.275
	c0.211-0.021,0.412-0.058,0.602-0.108c0.19-0.05,0.37-0.114,0.539-0.187s0.327-0.158,0.475-0.251s0.285-0.193,0.412-0.298
	c0.127-0.127,0.238-0.259,0.333-0.396c0.095-0.137,0.174-0.28,0.238-0.428s0.111-0.301,0.143-0.459
	c0.032-0.158,0.048-0.322,0.048-0.491c0-0.148-0.011-0.29-0.033-0.428s-0.057-0.269-0.105-0.396
	c-0.047-0.127-0.108-0.248-0.183-0.364c-0.075-0.116-0.165-0.227-0.271-0.333s-0.227-0.206-0.367-0.301
	c-0.14-0.095-0.298-0.185-0.478-0.269c-0.18-0.084-0.38-0.164-0.605-0.238s-0.473-0.143-0.747-0.206v-0.57v-0.57v-0.57v-0.57
	c0.106,0.042,0.201,0.095,0.285,0.157c0.084,0.062,0.158,0.133,0.222,0.213c0.063,0.079,0.116,0.166,0.158,0.26
	s0.074,0.194,0.095,0.3l0.422-0.042l0.422-0.042l0.422-0.042l0.422-0.042c-0.021-0.148-0.058-0.285-0.107-0.413
	s-0.11-0.247-0.179-0.358c-0.068-0.111-0.145-0.214-0.225-0.31c-0.08-0.096-0.165-0.186-0.249-0.271
	c-0.106-0.084-0.222-0.164-0.347-0.235c-0.125-0.071-0.26-0.135-0.403-0.187c-0.143-0.053-0.293-0.095-0.45-0.124
	s-0.32-0.045-0.489-0.045v-0.148V22.84v-0.148v-0.148V22.46v-0.084v-0.084v-0.084h-0.211h-0.211h-0.211h-0.211v-0.042v-0.042V22.08
	V22.038z"/>
<path id="path11931" inkscape:connector-curvature="0" style="fill:#FFFFFF;" d="M49.694,24.234v0.507v0.507v0.507v0.507
	c-0.063-0.021-0.127-0.048-0.189-0.078c-0.062-0.03-0.123-0.065-0.181-0.102c-0.058-0.037-0.113-0.076-0.165-0.117
	c-0.051-0.041-0.099-0.083-0.141-0.125c-0.042-0.042-0.079-0.084-0.111-0.128c-0.032-0.044-0.058-0.089-0.079-0.136
	c-0.021-0.047-0.037-0.097-0.048-0.151c-0.011-0.054-0.016-0.112-0.016-0.176c0-0.063,0.005-0.121,0.016-0.176
	c0.011-0.054,0.026-0.104,0.048-0.152c0.021-0.047,0.048-0.092,0.079-0.136c0.032-0.044,0.069-0.086,0.111-0.128
	c0.063-0.063,0.121-0.121,0.177-0.173c0.055-0.051,0.108-0.096,0.161-0.133c0.053-0.037,0.106-0.066,0.161-0.086
	C49.573,24.245,49.631,24.234,49.694,24.234L49.694,24.234L49.694,24.234L49.694,24.234L49.694,24.234z"/>
<path id="path11933" inkscape:connector-curvature="0" style="fill:#FFFFFF;" d="M50.708,28.036
	c0.106,0.021,0.201,0.048,0.286,0.078c0.086,0.03,0.162,0.065,0.231,0.101s0.129,0.076,0.184,0.118
	c0.054,0.041,0.102,0.084,0.144,0.126s0.079,0.09,0.111,0.141c0.032,0.051,0.058,0.107,0.079,0.165s0.037,0.119,0.048,0.181
	c0.011,0.062,0.016,0.126,0.016,0.189c0,0.063-0.005,0.127-0.017,0.19c-0.012,0.063-0.031,0.127-0.057,0.19
	c-0.026,0.063-0.06,0.127-0.104,0.19c-0.044,0.063-0.096,0.127-0.16,0.19c-0.042,0.042-0.095,0.084-0.156,0.125
	c-0.061,0.041-0.129,0.08-0.203,0.117c-0.074,0.037-0.153,0.072-0.235,0.102c-0.082,0.03-0.166,0.057-0.251,0.078v-0.57v-0.57v-0.57
	v-0.57h0.021h0.021h0.021H50.708z"/>
<path id="path4011" style="fill:#003366;" d="M33.351,74.507v-1.953V70.6v-1.953v-1.953h1.098h1.098h1.098h1.098v0.327v0.327v0.327
	v0.327h-0.78h-0.78h-0.78h-0.78v0.461v0.461v0.461v0.461h0.671h0.671h0.671h0.671v0.327V70.5v0.327v0.327h-0.671h-0.671h-0.671
	h-0.671v0.83v0.83v0.83v0.83l-0.319,0.008l-0.319,0.008l-0.319,0.008L33.351,74.507L33.351,74.507L33.351,74.507L33.351,74.507
	L33.351,74.507z"/>
<path id="path4013" style="fill:#003366;" d="M38.313,68.102v-0.344v-0.344v-0.344v-0.344h0.31h0.31h0.31h0.31v0.344v0.344v0.344
	v0.344h-0.31h-0.31h-0.31H38.313z M38.313,74.507V73.09v-1.417v-1.417V68.84h0.31h0.31h0.31h0.31v1.417v1.417v1.417v1.417h-0.31
	h-0.31h-0.31H38.313z"/>
<path id="path4015" style="fill:#003366;" d="M44.55,74.507h-0.31h-0.31h-0.31h-0.31v-0.721v-0.721v-0.721v-0.721
	c0-0.143-0.002-0.275-0.006-0.396c-0.004-0.121-0.009-0.231-0.015-0.329c-0.006-0.099-0.014-0.186-0.022-0.261
	c-0.008-0.075-0.016-0.138-0.024-0.188c-0.008-0.05-0.021-0.096-0.037-0.139c-0.016-0.042-0.036-0.081-0.059-0.117
	c-0.023-0.036-0.049-0.068-0.078-0.098c-0.029-0.03-0.06-0.057-0.094-0.082c-0.034-0.025-0.067-0.048-0.101-0.069
	s-0.069-0.038-0.104-0.053c-0.036-0.015-0.072-0.026-0.111-0.034c-0.038-0.008-0.078-0.012-0.12-0.012
	c-0.05,0-0.101,0.004-0.15,0.013s-0.099,0.021-0.147,0.038c-0.048,0.017-0.095,0.038-0.141,0.063
	c-0.046,0.025-0.089,0.054-0.131,0.088c-0.042,0.034-0.08,0.069-0.114,0.107s-0.066,0.079-0.095,0.123
	c-0.029,0.044-0.057,0.091-0.083,0.142c-0.026,0.051-0.051,0.105-0.076,0.164c-0.017,0.059-0.031,0.13-0.044,0.214
	c-0.013,0.084-0.023,0.182-0.031,0.293c-0.008,0.111-0.015,0.236-0.019,0.375s-0.006,0.292-0.006,0.46v0.645v0.645v0.645v0.645
	h-0.31h-0.31h-0.31h-0.31V73.09v-1.417v-1.417V68.84h0.285h0.285h0.285h0.285v0.21v0.21v0.21v0.21
	c0.05-0.084,0.103-0.161,0.157-0.233c0.054-0.071,0.11-0.136,0.166-0.195c0.056-0.059,0.114-0.111,0.172-0.157
	s0.117-0.086,0.175-0.119c0.067-0.042,0.134-0.078,0.202-0.107c0.068-0.03,0.136-0.054,0.205-0.073
	c0.069-0.019,0.139-0.033,0.211-0.042c0.072-0.009,0.145-0.013,0.221-0.013c0.092,0,0.18,0.006,0.264,0.018
	c0.084,0.012,0.163,0.03,0.239,0.053c0.075,0.023,0.147,0.051,0.214,0.084s0.13,0.071,0.189,0.112
	c0.059,0.05,0.115,0.103,0.168,0.157s0.102,0.111,0.146,0.17c0.044,0.059,0.083,0.119,0.115,0.182
	c0.032,0.063,0.057,0.128,0.074,0.195c0.025,0.075,0.046,0.157,0.063,0.246c0.017,0.089,0.031,0.185,0.041,0.29
	c0.01,0.105,0.018,0.218,0.022,0.341c0.005,0.123,0.007,0.255,0.007,0.397l0.025,0.88l0.025,0.88l0.025,0.88L44.55,74.507
	L44.55,74.507L44.55,74.507L44.55,74.507L44.55,74.507z"/>
<path id="path4017" style="fill:#003366;" d="M46.227,70.584l-0.277-0.059l-0.277-0.059l-0.277-0.059l-0.277-0.059
	c0.034-0.143,0.073-0.275,0.119-0.397c0.046-0.122,0.097-0.234,0.153-0.337c0.057-0.103,0.118-0.196,0.185-0.28
	c0.067-0.084,0.138-0.16,0.213-0.227c0.075-0.067,0.161-0.124,0.257-0.171c0.095-0.047,0.2-0.085,0.313-0.114
	c0.113-0.029,0.235-0.05,0.364-0.064c0.129-0.014,0.265-0.02,0.408-0.02c0.126,0,0.245,0.004,0.358,0.013
	c0.113,0.009,0.218,0.023,0.317,0.042c0.099,0.019,0.19,0.043,0.273,0.073s0.159,0.065,0.226,0.107
	c0.067,0.042,0.13,0.084,0.189,0.127c0.059,0.044,0.113,0.089,0.163,0.137c0.05,0.048,0.096,0.1,0.138,0.156
	c0.042,0.056,0.08,0.117,0.113,0.184c0.034,0.059,0.061,0.132,0.083,0.22c0.022,0.087,0.039,0.189,0.051,0.304
	c0.013,0.115,0.021,0.244,0.026,0.386c0.005,0.142,0.007,0.297,0.007,0.465v0.436v0.436v0.436v0.436
	c0,0.126,0.002,0.243,0.006,0.352c0.004,0.109,0.009,0.21,0.015,0.302c0.006,0.092,0.014,0.176,0.022,0.251
	c0.008,0.075,0.016,0.143,0.024,0.201c0.008,0.059,0.019,0.119,0.032,0.182c0.013,0.062,0.029,0.126,0.048,0.191
	c0.019,0.065,0.041,0.131,0.067,0.198s0.055,0.134,0.088,0.201h-0.302h-0.302h-0.302h-0.302l-0.042-0.151l-0.042-0.151l-0.042-0.151
	l-0.042-0.151c-0.05,0.059-0.103,0.115-0.157,0.169c-0.054,0.054-0.109,0.105-0.166,0.153c-0.057,0.048-0.114,0.093-0.173,0.135
	s-0.117,0.079-0.176,0.113c-0.059,0.034-0.119,0.063-0.182,0.088c-0.062,0.025-0.126,0.046-0.191,0.063
	c-0.065,0.017-0.131,0.029-0.198,0.038c-0.067,0.008-0.134,0.013-0.201,0.013c-0.109,0-0.216-0.01-0.319-0.031
	s-0.203-0.051-0.297-0.091s-0.183-0.089-0.265-0.147c-0.082-0.058-0.158-0.125-0.225-0.201c-0.075-0.075-0.14-0.157-0.195-0.245
	c-0.055-0.088-0.1-0.182-0.136-0.283c-0.036-0.101-0.062-0.207-0.079-0.321s-0.026-0.233-0.026-0.358
	c0-0.084,0.004-0.163,0.012-0.239c0.008-0.076,0.019-0.148,0.034-0.218c0.015-0.069,0.032-0.135,0.053-0.199
	c0.02-0.063,0.044-0.124,0.069-0.183c0.034-0.059,0.067-0.115,0.102-0.169c0.035-0.054,0.072-0.105,0.111-0.153
	c0.04-0.048,0.083-0.093,0.13-0.135c0.048-0.041,0.1-0.079,0.159-0.113c0.05-0.034,0.111-0.067,0.181-0.1
	c0.07-0.033,0.15-0.065,0.238-0.097c0.088-0.032,0.184-0.062,0.288-0.091s0.215-0.056,0.332-0.081
	c0.143-0.034,0.275-0.067,0.396-0.1s0.231-0.065,0.33-0.097c0.098-0.032,0.185-0.062,0.26-0.091
	c0.075-0.029,0.138-0.056,0.188-0.081c0-0.075-0.002-0.145-0.006-0.207c-0.004-0.063-0.009-0.119-0.015-0.17
	c-0.006-0.05-0.013-0.094-0.021-0.132c-0.008-0.038-0.016-0.069-0.025-0.094c-0.008-0.025-0.021-0.048-0.037-0.07
	c-0.016-0.021-0.035-0.041-0.056-0.06c-0.021-0.019-0.044-0.037-0.068-0.054c-0.024-0.017-0.049-0.034-0.074-0.051
	c-0.034-0.017-0.067-0.031-0.102-0.044c-0.035-0.013-0.072-0.023-0.111-0.031c-0.04-0.008-0.083-0.015-0.13-0.019
	c-0.048-0.004-0.1-0.006-0.159-0.006c-0.059,0-0.113,0.002-0.164,0.007c-0.051,0.005-0.098,0.012-0.142,0.023
	c-0.044,0.011-0.085,0.024-0.123,0.041s-0.074,0.038-0.108,0.063c-0.034,0-0.065,0.013-0.095,0.036
	c-0.03,0.023-0.058,0.057-0.085,0.098c-0.028,0.042-0.054,0.092-0.08,0.149C46.277,70.454,46.252,70.516,46.227,70.584
	L46.227,70.584L46.227,70.584L46.227,70.584L46.227,70.584z M47.87,71.791c-0.042,0.017-0.088,0.034-0.139,0.051
	c-0.051,0.017-0.106,0.035-0.167,0.054c-0.061,0.019-0.127,0.039-0.199,0.06c-0.072,0.021-0.149,0.045-0.233,0.07
	c-0.092,0.025-0.178,0.05-0.257,0.076c-0.079,0.026-0.15,0.052-0.213,0.079c-0.063,0.027-0.117,0.055-0.162,0.085
	c-0.045,0.03-0.081,0.061-0.106,0.095c-0.034,0.034-0.061,0.067-0.083,0.102s-0.039,0.07-0.051,0.108
	c-0.013,0.038-0.021,0.078-0.026,0.121c-0.005,0.043-0.007,0.089-0.007,0.139c0,0.05,0.004,0.101,0.013,0.15
	c0.008,0.049,0.021,0.097,0.038,0.144c0.017,0.046,0.038,0.09,0.063,0.131c0.025,0.041,0.054,0.079,0.088,0.112
	c0.034,0.034,0.069,0.065,0.107,0.093s0.078,0.053,0.119,0.074c0.042,0.021,0.086,0.038,0.132,0.049
	c0.046,0.012,0.094,0.018,0.145,0.018c0.042,0,0.084-0.004,0.126-0.012c0.042-0.008,0.084-0.019,0.126-0.034
	c0.042-0.015,0.084-0.033,0.126-0.053c0.042-0.02,0.084-0.044,0.126-0.069c0.042-0.034,0.082-0.067,0.119-0.101
	c0.037-0.034,0.072-0.069,0.103-0.104s0.06-0.072,0.084-0.11c0.025-0.038,0.045-0.078,0.062-0.12
	c0.017-0.042,0.031-0.092,0.044-0.151c0.013-0.059,0.023-0.126,0.031-0.201c0.008-0.075,0.015-0.159,0.019-0.251
	c0.004-0.092,0.006-0.193,0.006-0.302l-0.008-0.075l-0.008-0.075l-0.008-0.075L47.87,71.791L47.87,71.791L47.87,71.791L47.87,71.791
	L47.87,71.791z"/>
<path id="path4019" style="fill:#003366;" d="M54.039,74.507h-0.31h-0.31h-0.31h-0.31v-0.721v-0.721v-0.721v-0.721
	c0-0.143-0.002-0.275-0.006-0.396c-0.004-0.121-0.009-0.231-0.015-0.329c-0.006-0.099-0.013-0.186-0.021-0.261
	c-0.008-0.075-0.016-0.138-0.025-0.188c-0.008-0.05-0.021-0.096-0.037-0.139c-0.016-0.042-0.036-0.081-0.059-0.117
	c-0.023-0.036-0.049-0.068-0.078-0.098c-0.029-0.03-0.06-0.057-0.094-0.082c-0.034-0.025-0.067-0.048-0.101-0.069
	s-0.069-0.038-0.104-0.053c-0.036-0.015-0.072-0.026-0.111-0.034c-0.038-0.008-0.078-0.012-0.12-0.012
	c-0.05,0-0.101,0.004-0.15,0.013c-0.05,0.008-0.099,0.021-0.147,0.038c-0.048,0.017-0.095,0.038-0.141,0.063
	c-0.046,0.025-0.09,0.054-0.131,0.088c-0.042,0.034-0.08,0.069-0.114,0.107c-0.035,0.038-0.066,0.079-0.095,0.123
	c-0.029,0.044-0.057,0.091-0.083,0.142c-0.026,0.051-0.051,0.105-0.076,0.164c-0.025,0.059-0.044,0.13-0.058,0.214
	S51.006,70.98,51,71.091c-0.006,0.111-0.009,0.236-0.011,0.374c-0.002,0.139-0.002,0.292-0.002,0.459v0.645v0.645v0.645v0.645h-0.31
	h-0.31h-0.31h-0.31V73.09v-1.417v-1.417V68.84h0.285h0.285h0.285h0.285v0.21v0.21v0.21v0.21c0.05-0.084,0.103-0.161,0.157-0.233
	c0.054-0.071,0.109-0.136,0.166-0.195c0.057-0.059,0.114-0.111,0.173-0.157c0.058-0.046,0.117-0.086,0.176-0.119
	c0.067-0.042,0.134-0.078,0.202-0.107c0.068-0.03,0.136-0.054,0.205-0.073c0.069-0.019,0.139-0.033,0.211-0.042
	c0.072-0.009,0.145-0.013,0.221-0.013c0.092,0,0.18,0.006,0.264,0.018c0.084,0.012,0.163,0.03,0.239,0.053
	c0.075,0.023,0.147,0.051,0.214,0.084s0.13,0.071,0.189,0.112c0.059,0.05,0.115,0.103,0.168,0.157
	c0.053,0.054,0.102,0.111,0.146,0.17s0.083,0.119,0.115,0.182c0.032,0.063,0.057,0.128,0.074,0.195
	c0.025,0.075,0.046,0.157,0.063,0.246c0.017,0.089,0.031,0.185,0.041,0.29s0.018,0.218,0.022,0.341
	c0.005,0.123,0.007,0.255,0.007,0.397l0.025,0.88l0.025,0.88l0.025,0.88L54.039,74.507L54.039,74.507L54.039,74.507L54.039,74.507
	L54.039,74.507z"/>
<path id="path4021" style="fill:#003366;" d="M58.868,70.516l-0.302,0.067l-0.302,0.067l-0.302,0.067l-0.302,0.067
	c-0.025-0.151-0.061-0.283-0.107-0.396c-0.047-0.113-0.104-0.207-0.174-0.283c-0.069-0.075-0.15-0.132-0.242-0.17
	s-0.197-0.057-0.315-0.057c-0.075,0-0.147,0.008-0.214,0.025c-0.068,0.016-0.131,0.04-0.192,0.072
	c-0.061,0.032-0.119,0.07-0.174,0.116c-0.055,0.046-0.107,0.098-0.158,0.157s-0.092,0.132-0.127,0.218
	c-0.035,0.086-0.062,0.186-0.083,0.297c-0.021,0.111-0.036,0.234-0.045,0.366s-0.014,0.275-0.014,0.426
	c0,0.168,0.006,0.323,0.018,0.465c0.012,0.143,0.03,0.272,0.053,0.39c0.023,0.117,0.051,0.222,0.084,0.314
	c0.033,0.092,0.071,0.172,0.113,0.239c0.05,0.067,0.103,0.126,0.158,0.176c0.055,0.05,0.113,0.092,0.174,0.126
	s0.125,0.059,0.192,0.075c0.068,0.017,0.139,0.025,0.214,0.025c0.059,0,0.115-0.004,0.169-0.013s0.105-0.023,0.153-0.042
	c0.048-0.019,0.093-0.043,0.135-0.073c0.041-0.03,0.079-0.065,0.113-0.107c0.034-0.042,0.067-0.09,0.1-0.145
	c0.032-0.055,0.064-0.117,0.093-0.186c0.029-0.069,0.057-0.146,0.081-0.23c0.024-0.084,0.045-0.176,0.062-0.277l0.302,0.059
	l0.302,0.059l0.302,0.059l0.302,0.059c-0.059,0.344-0.149,0.643-0.269,0.9c-0.121,0.256-0.271,0.469-0.452,0.639
	c-0.18,0.17-0.39,0.297-0.628,0.381s-0.504,0.126-0.797,0.126c-0.193,0-0.371-0.019-0.535-0.056s-0.315-0.093-0.454-0.166
	c-0.138-0.073-0.264-0.165-0.378-0.273c-0.114-0.108-0.217-0.234-0.309-0.377s-0.172-0.294-0.239-0.452
	c-0.068-0.159-0.123-0.325-0.167-0.499c-0.044-0.174-0.077-0.355-0.098-0.543c-0.022-0.188-0.032-0.383-0.032-0.584
	c0-0.243,0.013-0.472,0.038-0.685c0.025-0.214,0.063-0.413,0.113-0.597c0.05-0.184,0.113-0.354,0.189-0.509
	c0.075-0.155,0.163-0.295,0.264-0.421c0.101-0.126,0.212-0.237,0.332-0.333s0.25-0.176,0.389-0.241
	c0.138-0.065,0.285-0.114,0.439-0.147s0.315-0.05,0.483-0.05c0.134,0,0.262,0.008,0.384,0.026c0.122,0.017,0.238,0.043,0.35,0.079
	c0.111,0.036,0.217,0.081,0.318,0.136c0.101,0.055,0.197,0.12,0.29,0.195c0.075,0.092,0.147,0.191,0.214,0.296
	c0.067,0.105,0.13,0.217,0.189,0.337c0.059,0.12,0.113,0.246,0.163,0.381C58.78,70.223,58.826,70.366,58.868,70.516L58.868,70.516
	L58.868,70.516L58.868,70.516L58.868,70.516z"/>
<path id="path4023" style="fill:#003366;" d="M59.304,68.102v-0.344v-0.344v-0.344v-0.344h0.31h0.31h0.31h0.31v0.344v0.344v0.344
	v0.344h-0.31h-0.31h-0.31H59.304z M59.304,74.507V73.09v-1.417v-1.417V68.84h0.31h0.31h0.31h0.31v1.417v1.417v1.417v1.417h-0.31
	h-0.31h-0.31H59.304z"/>
<path id="path4025" style="fill:#003366;" d="M62.221,70.584l-0.277-0.059l-0.277-0.059l-0.277-0.059l-0.277-0.059
	c0.034-0.143,0.073-0.275,0.119-0.397c0.046-0.122,0.097-0.234,0.153-0.337c0.057-0.103,0.119-0.196,0.185-0.28
	c0.067-0.084,0.138-0.16,0.213-0.227s0.161-0.124,0.257-0.171c0.095-0.047,0.2-0.085,0.313-0.114
	c0.113-0.029,0.235-0.05,0.364-0.064c0.129-0.014,0.265-0.02,0.408-0.02c0.126,0,0.245,0.004,0.358,0.013
	c0.113,0.009,0.218,0.023,0.317,0.042s0.19,0.043,0.273,0.073c0.083,0.03,0.159,0.065,0.226,0.107
	c0.067,0.034,0.13,0.071,0.189,0.113c0.059,0.042,0.113,0.088,0.163,0.138c0.05,0.05,0.096,0.105,0.138,0.163
	s0.08,0.122,0.113,0.189c0.034,0.059,0.061,0.132,0.083,0.22c0.022,0.087,0.039,0.189,0.051,0.304
	c0.013,0.115,0.021,0.244,0.026,0.386c0.005,0.142,0.007,0.297,0.007,0.465v0.436v0.436v0.436v0.436
	c0,0.126,0.002,0.243,0.006,0.352c0.004,0.109,0.009,0.21,0.015,0.302c0.006,0.092,0.013,0.176,0.021,0.251s0.016,0.143,0.025,0.201
	c0.008,0.059,0.019,0.119,0.032,0.182c0.013,0.062,0.029,0.126,0.048,0.191c0.019,0.065,0.041,0.131,0.066,0.198
	s0.055,0.134,0.089,0.201h-0.302h-0.302h-0.302h-0.302l-0.042-0.151l-0.042-0.151l-0.042-0.151l-0.042-0.151
	c-0.05,0.059-0.103,0.115-0.157,0.169c-0.054,0.054-0.11,0.105-0.166,0.153c-0.056,0.048-0.114,0.093-0.172,0.135
	c-0.058,0.041-0.117,0.079-0.175,0.113c-0.059,0.034-0.119,0.063-0.182,0.088c-0.062,0.025-0.126,0.046-0.191,0.063
	c-0.065,0.017-0.131,0.029-0.197,0.038c-0.067,0.008-0.134,0.013-0.201,0.013c-0.109,0-0.216-0.01-0.319-0.031
	c-0.103-0.02-0.203-0.051-0.297-0.091c-0.094-0.04-0.183-0.089-0.266-0.147c-0.082-0.058-0.158-0.125-0.225-0.201
	c-0.075-0.075-0.14-0.157-0.195-0.245c-0.055-0.088-0.1-0.182-0.136-0.283c-0.036-0.101-0.062-0.207-0.079-0.321
	s-0.026-0.233-0.026-0.358c0-0.084,0.004-0.163,0.012-0.239c0.008-0.076,0.019-0.148,0.034-0.218
	c0.015-0.069,0.033-0.135,0.053-0.199c0.02-0.063,0.044-0.124,0.069-0.183c0.034-0.059,0.067-0.115,0.102-0.169
	c0.035-0.054,0.072-0.105,0.111-0.153c0.04-0.048,0.083-0.093,0.131-0.135s0.1-0.079,0.159-0.113c0.05-0.034,0.111-0.067,0.181-0.1
	s0.15-0.065,0.238-0.097c0.088-0.032,0.184-0.062,0.288-0.091s0.215-0.056,0.332-0.081c0.143-0.034,0.275-0.067,0.396-0.1
	c0.121-0.033,0.231-0.065,0.329-0.097c0.099-0.032,0.186-0.062,0.261-0.091c0.075-0.029,0.138-0.056,0.188-0.081
	c0-0.075-0.002-0.145-0.006-0.207s-0.009-0.119-0.015-0.17c-0.006-0.05-0.014-0.094-0.022-0.132
	c-0.008-0.038-0.016-0.069-0.024-0.094c-0.008-0.025-0.021-0.048-0.037-0.07c-0.016-0.021-0.035-0.041-0.056-0.06
	c-0.021-0.019-0.044-0.037-0.068-0.054s-0.049-0.034-0.074-0.051c-0.025-0.017-0.054-0.031-0.088-0.044s-0.071-0.023-0.113-0.031
	c-0.042-0.008-0.088-0.015-0.138-0.019c-0.05-0.004-0.105-0.006-0.163-0.006s-0.113,0.002-0.164,0.007s-0.098,0.012-0.142,0.023
	c-0.044,0.01-0.085,0.024-0.123,0.041c-0.038,0.017-0.074,0.038-0.107,0.063c-0.034,0-0.065,0.013-0.095,0.036
	c-0.03,0.023-0.058,0.057-0.085,0.098c-0.027,0.042-0.054,0.092-0.079,0.149C62.271,70.454,62.246,70.516,62.221,70.584
	L62.221,70.584L62.221,70.584L62.221,70.584L62.221,70.584z M63.864,71.791c-0.042,0.017-0.088,0.034-0.139,0.051
	c-0.051,0.017-0.106,0.035-0.167,0.054c-0.061,0.019-0.127,0.039-0.198,0.06c-0.072,0.021-0.149,0.045-0.233,0.07
	c-0.092,0.025-0.178,0.05-0.257,0.076c-0.079,0.026-0.15,0.052-0.213,0.079c-0.063,0.027-0.117,0.055-0.162,0.085
	c-0.045,0.03-0.081,0.061-0.106,0.095c-0.025,0.034-0.048,0.067-0.069,0.102s-0.038,0.07-0.053,0.108
	c-0.015,0.038-0.026,0.078-0.034,0.121c-0.008,0.043-0.012,0.089-0.012,0.139c0,0.05,0.004,0.101,0.013,0.15
	c0.008,0.049,0.021,0.097,0.038,0.144c0.017,0.046,0.038,0.09,0.063,0.131c0.025,0.041,0.054,0.079,0.088,0.112
	c0.034,0.034,0.069,0.065,0.107,0.093s0.078,0.053,0.119,0.074c0.042,0.021,0.086,0.038,0.132,0.049
	c0.046,0.012,0.094,0.018,0.145,0.018c0.042,0,0.084-0.004,0.126-0.012c0.042-0.008,0.084-0.019,0.126-0.034
	c0.042-0.015,0.084-0.033,0.126-0.053c0.042-0.02,0.084-0.044,0.126-0.069c0.042-0.034,0.082-0.067,0.119-0.101
	c0.037-0.034,0.072-0.069,0.103-0.104c0.031-0.036,0.06-0.072,0.084-0.111c0.025-0.038,0.046-0.078,0.062-0.12
	c0.017-0.042,0.031-0.092,0.044-0.151c0.013-0.059,0.023-0.126,0.031-0.201c0.008-0.075,0.015-0.159,0.019-0.251
	c0.004-0.092,0.006-0.193,0.006-0.302l-0.008-0.075l-0.008-0.075l-0.008-0.075L63.864,71.791L63.864,71.791L63.864,71.791
	L63.864,71.791L63.864,71.791z"/>
<path id="path4027" style="fill:#003366;" d="M65.809,74.507v-1.953V70.6v-1.953v-1.953h0.31h0.31h0.31h0.31v1.953V70.6v1.953v1.953
	h-0.31h-0.31h-0.31H65.809z"/>
<path id="path4029" style="fill:#003366;" d="M33.753,82.889l0.319-0.034l0.319-0.034l0.319-0.034l0.319-0.034
	c0.034,0.251,0.088,0.472,0.163,0.66c0.075,0.189,0.172,0.346,0.289,0.472c0.117,0.126,0.256,0.22,0.415,0.283
	c0.159,0.063,0.34,0.094,0.541,0.094c0.101,0,0.195-0.006,0.283-0.019c0.089-0.013,0.171-0.031,0.249-0.057
	c0.078-0.025,0.15-0.057,0.218-0.094c0.068-0.038,0.13-0.082,0.189-0.132c0.059-0.05,0.109-0.105,0.151-0.163
	c0.042-0.058,0.077-0.12,0.104-0.185c0.027-0.065,0.047-0.133,0.06-0.204c0.013-0.071,0.019-0.144,0.019-0.22
	c0-0.042-0.002-0.084-0.007-0.125c-0.005-0.041-0.012-0.082-0.023-0.122c-0.01-0.04-0.024-0.079-0.041-0.116
	c-0.017-0.037-0.038-0.073-0.063-0.106c-0.025-0.034-0.05-0.065-0.076-0.094c-0.026-0.029-0.053-0.057-0.083-0.082
	c-0.029-0.025-0.061-0.048-0.095-0.069s-0.072-0.04-0.114-0.057c-0.042-0.017-0.096-0.038-0.165-0.063
	c-0.068-0.025-0.15-0.054-0.246-0.088c-0.096-0.034-0.207-0.071-0.334-0.113c-0.127-0.042-0.269-0.088-0.429-0.138
	c-0.134-0.042-0.26-0.084-0.377-0.126c-0.117-0.042-0.226-0.085-0.327-0.129c-0.101-0.044-0.193-0.089-0.277-0.136
	c-0.084-0.047-0.159-0.095-0.226-0.145c-0.067-0.05-0.13-0.103-0.189-0.158c-0.059-0.056-0.113-0.114-0.163-0.177
	c-0.05-0.063-0.096-0.13-0.138-0.202c-0.042-0.072-0.08-0.15-0.113-0.234c-0.034-0.084-0.065-0.168-0.093-0.252
	c-0.028-0.084-0.053-0.169-0.074-0.255c-0.021-0.086-0.038-0.173-0.049-0.262c-0.012-0.089-0.018-0.179-0.018-0.271
	c0-0.109,0.006-0.214,0.019-0.315c0.013-0.101,0.031-0.199,0.057-0.293s0.057-0.185,0.094-0.274
	c0.038-0.089,0.082-0.175,0.132-0.258c0.05-0.084,0.105-0.163,0.163-0.238c0.059-0.075,0.122-0.145,0.189-0.21
	c0.067-0.065,0.138-0.125,0.214-0.179c0.075-0.054,0.155-0.102,0.239-0.144s0.174-0.08,0.27-0.113
	c0.096-0.033,0.198-0.061,0.305-0.084c0.107-0.023,0.219-0.041,0.336-0.053s0.238-0.018,0.364-0.018c0.184,0,0.36,0.013,0.528,0.038
	s0.325,0.063,0.474,0.113c0.149,0.05,0.288,0.113,0.417,0.189c0.129,0.075,0.249,0.163,0.358,0.264s0.203,0.214,0.284,0.338
	c0.081,0.125,0.148,0.261,0.202,0.408c0.054,0.147,0.096,0.304,0.127,0.47c0.03,0.167,0.049,0.343,0.058,0.527l-0.327,0.017
	l-0.327,0.017l-0.327,0.017l-0.327,0.017c-0.017-0.109-0.036-0.207-0.058-0.297c-0.022-0.089-0.047-0.169-0.076-0.24
	c-0.029-0.071-0.063-0.134-0.102-0.19c-0.039-0.056-0.083-0.104-0.133-0.146s-0.105-0.078-0.163-0.107s-0.122-0.054-0.189-0.073
	c-0.067-0.019-0.138-0.032-0.214-0.041c-0.075-0.009-0.155-0.013-0.239-0.013c-0.084,0-0.163,0.004-0.239,0.013
	c-0.075,0.009-0.147,0.023-0.214,0.042s-0.13,0.043-0.189,0.073c-0.059,0.03-0.113,0.066-0.163,0.107
	c-0.05,0.034-0.092,0.071-0.127,0.112c-0.035,0.041-0.062,0.085-0.083,0.131c-0.021,0.046-0.036,0.094-0.045,0.144
	s-0.014,0.1-0.014,0.15c0,0.05,0.006,0.101,0.018,0.15c0.012,0.049,0.03,0.097,0.053,0.144c0.023,0.046,0.051,0.09,0.084,0.131
	c0.033,0.041,0.071,0.079,0.113,0.112c0.042,0.034,0.098,0.069,0.169,0.106c0.071,0.037,0.156,0.076,0.254,0.116
	c0.099,0.04,0.211,0.081,0.336,0.122c0.125,0.041,0.264,0.083,0.414,0.125c0.159,0.05,0.308,0.101,0.446,0.151
	c0.138,0.05,0.266,0.101,0.384,0.151s0.224,0.101,0.321,0.151c0.096,0.05,0.182,0.101,0.258,0.151
	c0.075,0.05,0.145,0.105,0.209,0.163s0.123,0.122,0.177,0.189c0.054,0.067,0.105,0.138,0.152,0.214
	c0.047,0.075,0.091,0.155,0.133,0.239c0.042,0.084,0.078,0.172,0.107,0.264c0.03,0.092,0.054,0.189,0.073,0.289
	c0.019,0.101,0.033,0.205,0.042,0.314c0.009,0.109,0.013,0.222,0.013,0.34c0,0.168-0.013,0.329-0.038,0.484
	c-0.026,0.155-0.065,0.304-0.117,0.446c-0.052,0.143-0.118,0.279-0.198,0.409c-0.08,0.13-0.174,0.254-0.283,0.371
	c-0.101,0.117-0.218,0.22-0.351,0.308s-0.282,0.161-0.445,0.22c-0.163,0.059-0.342,0.103-0.533,0.132
	c-0.192,0.029-0.397,0.044-0.615,0.044c-0.402-0.008-0.759-0.069-1.07-0.184c-0.311-0.115-0.577-0.284-0.8-0.508
	c-0.222-0.224-0.4-0.504-0.535-0.841C33.895,83.736,33.803,83.342,33.753,82.889L33.753,82.889L33.753,82.889L33.753,82.889
	L33.753,82.889z"/>
<path id="path4031" style="fill:#003366;" d="M42.27,83.661l0.302,0.059l0.302,0.059l0.302,0.059l0.302,0.059
	c-0.042,0.143-0.088,0.277-0.139,0.402s-0.108,0.242-0.171,0.349c-0.063,0.107-0.132,0.204-0.209,0.292
	c-0.076,0.087-0.16,0.165-0.253,0.232c-0.084,0.067-0.174,0.126-0.27,0.176c-0.096,0.05-0.197,0.092-0.304,0.126
	c-0.107,0.034-0.219,0.059-0.336,0.075c-0.117,0.017-0.238,0.025-0.364,0.025c-0.168,0-0.327-0.015-0.477-0.044
	c-0.15-0.029-0.292-0.073-0.424-0.132c-0.132-0.059-0.255-0.132-0.367-0.22c-0.113-0.088-0.215-0.191-0.308-0.308
	c-0.109-0.134-0.205-0.281-0.289-0.441c-0.083-0.16-0.154-0.333-0.21-0.519c-0.057-0.187-0.1-0.387-0.128-0.601
	c-0.029-0.214-0.043-0.443-0.043-0.686c0-0.235,0.015-0.459,0.043-0.672s0.072-0.415,0.128-0.606c0.056-0.191,0.127-0.37,0.21-0.537
	c0.083-0.167,0.18-0.322,0.289-0.465c0.092-0.117,0.193-0.22,0.301-0.308s0.225-0.161,0.349-0.22
	c0.124-0.059,0.255-0.103,0.392-0.132c0.138-0.029,0.282-0.044,0.433-0.044c0.168,0,0.325,0.015,0.473,0.045
	s0.286,0.075,0.416,0.136s0.251,0.137,0.366,0.23c0.114,0.093,0.221,0.202,0.322,0.327c0.109,0.143,0.203,0.3,0.283,0.473
	s0.146,0.362,0.199,0.567c0.052,0.205,0.091,0.428,0.117,0.667c0.026,0.24,0.038,0.498,0.038,0.774v0.042v0.042v0.042v0.042h-0.771
	h-0.771H41.23h-0.771c0,0.109,0.006,0.214,0.019,0.313c0.013,0.1,0.031,0.194,0.057,0.282c0.025,0.088,0.057,0.17,0.094,0.244
	c0.038,0.074,0.082,0.141,0.132,0.2c0.05,0.059,0.103,0.111,0.157,0.157s0.111,0.084,0.17,0.116
	c0.059,0.032,0.119,0.056,0.182,0.072c0.063,0.016,0.128,0.025,0.195,0.025c0.101,0.008,0.193-0.002,0.277-0.031
	c0.084-0.029,0.159-0.076,0.226-0.141c0.067-0.065,0.126-0.148,0.176-0.248C42.194,83.912,42.236,83.795,42.27,83.661L42.27,83.661
	L42.27,83.661L42.27,83.661L42.27,83.661z M42.337,82.118c0-0.109-0.006-0.212-0.018-0.308c-0.012-0.096-0.03-0.187-0.053-0.27
	c-0.023-0.084-0.051-0.161-0.084-0.233c-0.033-0.071-0.071-0.136-0.113-0.195c-0.042-0.059-0.088-0.109-0.137-0.151
	c-0.049-0.042-0.102-0.077-0.156-0.104c-0.054-0.027-0.111-0.047-0.169-0.06c-0.058-0.013-0.116-0.019-0.175-0.019
	c-0.067,0-0.13,0.006-0.19,0.019c-0.06,0.013-0.116,0.033-0.171,0.06c-0.054,0.027-0.107,0.062-0.158,0.104
	c-0.051,0.042-0.102,0.093-0.152,0.151c-0.042,0.059-0.08,0.124-0.113,0.194c-0.033,0.071-0.061,0.147-0.084,0.229
	c-0.023,0.082-0.041,0.169-0.053,0.26s-0.018,0.188-0.018,0.289h0.461h0.461h0.461h0.461v0.008v0.008v0.008V82.118z"/>
<path id="path4033" style="fill:#003366;" d="M45.254,85.438h-0.31h-0.31h-0.31h-0.31v-1.417v-1.417v-1.417v-1.417h0.285h0.285
	h0.285h0.285v0.201v0.201v0.201v0.201c0.05-0.092,0.098-0.178,0.145-0.257c0.047-0.079,0.092-0.15,0.136-0.213
	c0.044-0.063,0.087-0.117,0.13-0.162c0.042-0.045,0.084-0.081,0.126-0.106c0.042-0.034,0.084-0.063,0.126-0.088
	c0.042-0.025,0.085-0.046,0.129-0.063c0.044-0.017,0.089-0.029,0.136-0.038c0.047-0.008,0.095-0.013,0.145-0.013
	c0.067,0,0.134,0.006,0.201,0.018s0.134,0.03,0.201,0.053c0.067,0.023,0.134,0.051,0.201,0.084s0.134,0.071,0.201,0.112
	l-0.092,0.327l-0.092,0.327l-0.092,0.327l-0.092,0.327c-0.05-0.042-0.101-0.078-0.15-0.107c-0.05-0.03-0.099-0.054-0.147-0.073
	c-0.048-0.019-0.095-0.032-0.141-0.041c-0.046-0.009-0.09-0.013-0.131-0.013c-0.042,0-0.084,0.004-0.125,0.013
	c-0.041,0.008-0.082,0.021-0.122,0.038c-0.04,0.017-0.079,0.038-0.116,0.063c-0.037,0.025-0.073,0.054-0.106,0.088
	c-0.034,0.034-0.065,0.073-0.094,0.119c-0.029,0.046-0.055,0.097-0.078,0.153c-0.023,0.056-0.043,0.118-0.059,0.185
	c-0.016,0.067-0.029,0.138-0.037,0.213c-0.017,0.084-0.031,0.184-0.044,0.302c-0.013,0.117-0.023,0.251-0.031,0.402
	c-0.008,0.151-0.015,0.319-0.019,0.503c-0.004,0.184-0.006,0.386-0.006,0.604v0.444v0.444v0.444L45.254,85.438L45.254,85.438
	L45.254,85.438L45.254,85.438L45.254,85.438z"/>
<path id="path4035" style="fill:#003366;" d="M48.339,85.438l-0.469-1.417L47.4,82.604l-0.469-1.417l-0.469-1.417h0.327h0.327h0.327
	h0.327l0.218,0.721l0.218,0.721l0.218,0.721l0.218,0.721l0.059,0.243l0.059,0.243l0.059,0.243l0.059,0.243l0.067-0.243l0.067-0.243
	l0.067-0.243l0.067-0.243l0.218-0.721l0.218-0.721l0.218-0.721l0.218-0.721h0.319h0.319h0.319h0.319l-0.461,1.417l-0.461,1.417
	l-0.461,1.417l-0.461,1.417h-0.277h-0.277h-0.277H48.339z"/>
<path id="path4037" style="fill:#003366;" d="M51.558,79v-0.344v-0.344v-0.344v-0.344h0.31h0.31h0.31h0.31v0.344v0.344v0.344V79
	h-0.31h-0.31h-0.31H51.558z M51.558,85.438v-1.417v-1.417v-1.417v-1.417h0.31h0.31h0.31h0.31v1.417v1.417v1.417v1.417h-0.31h-0.31
	h-0.31H51.558z"/>
<path id="path4039" style="fill:#003366;" d="M57.594,81.448l-0.302,0.067l-0.302,0.067l-0.302,0.067l-0.302,0.067
	c-0.025-0.151-0.061-0.283-0.107-0.396s-0.104-0.207-0.174-0.283c-0.069-0.075-0.15-0.132-0.242-0.17
	c-0.093-0.038-0.197-0.057-0.315-0.057c-0.075,0-0.147,0.008-0.214,0.025s-0.131,0.04-0.192,0.072
	c-0.061,0.032-0.118,0.07-0.173,0.116s-0.108,0.098-0.158,0.157c-0.05,0.059-0.092,0.132-0.127,0.218
	c-0.035,0.086-0.062,0.186-0.083,0.297c-0.021,0.111-0.036,0.234-0.045,0.366s-0.014,0.275-0.014,0.426
	c0,0.168,0.006,0.323,0.018,0.465c0.012,0.143,0.03,0.272,0.053,0.39c0.023,0.117,0.051,0.222,0.084,0.314
	c0.033,0.092,0.071,0.172,0.113,0.239c0.042,0.067,0.09,0.126,0.144,0.176c0.053,0.05,0.112,0.092,0.175,0.126s0.13,0.059,0.2,0.075
	c0.07,0.017,0.144,0.025,0.219,0.025c0.059,0,0.115-0.004,0.169-0.013s0.105-0.023,0.153-0.042c0.048-0.019,0.093-0.043,0.135-0.073
	c0.041-0.03,0.079-0.066,0.113-0.108c0.034-0.042,0.067-0.09,0.1-0.145c0.032-0.055,0.064-0.117,0.093-0.186
	c0.029-0.069,0.057-0.146,0.081-0.23c0.024-0.084,0.045-0.177,0.062-0.277l0.302,0.059l0.302,0.059l0.302,0.059l0.302,0.059
	c-0.059,0.344-0.149,0.643-0.269,0.9s-0.271,0.469-0.452,0.639c-0.18,0.17-0.39,0.297-0.628,0.381s-0.504,0.126-0.797,0.126
	c-0.193,0-0.371-0.019-0.535-0.056c-0.165-0.037-0.315-0.093-0.454-0.166s-0.264-0.165-0.378-0.273
	c-0.114-0.108-0.217-0.234-0.309-0.377c-0.092-0.143-0.172-0.294-0.239-0.452c-0.068-0.159-0.123-0.325-0.167-0.499
	c-0.044-0.174-0.077-0.355-0.098-0.543c-0.022-0.188-0.032-0.383-0.032-0.584c0-0.243,0.013-0.472,0.038-0.685
	s0.063-0.413,0.113-0.597c0.05-0.184,0.113-0.354,0.189-0.509c0.075-0.155,0.163-0.295,0.264-0.421
	c0.101-0.126,0.212-0.237,0.332-0.333c0.12-0.096,0.25-0.177,0.389-0.241s0.285-0.114,0.439-0.147
	c0.154-0.033,0.315-0.05,0.483-0.05c0.134,0,0.262,0.008,0.384,0.026c0.122,0.017,0.238,0.043,0.35,0.079
	c0.111,0.036,0.217,0.081,0.318,0.136c0.101,0.055,0.197,0.12,0.29,0.195c0.084,0.092,0.161,0.191,0.233,0.296
	c0.071,0.105,0.136,0.217,0.195,0.337s0.111,0.246,0.157,0.381C57.52,81.154,57.56,81.297,57.594,81.448L57.594,81.448
	L57.594,81.448L57.594,81.448L57.594,81.448z"/>
<path id="path4041" style="fill:#003366;" d="M60.746,83.661l0.302,0.059l0.302,0.059l0.302,0.059l0.302,0.059
	c-0.042,0.143-0.088,0.277-0.139,0.402s-0.108,0.242-0.171,0.349c-0.063,0.107-0.132,0.204-0.209,0.292
	c-0.076,0.087-0.16,0.165-0.253,0.232c-0.084,0.067-0.174,0.126-0.27,0.176c-0.096,0.05-0.197,0.092-0.304,0.126
	c-0.107,0.034-0.219,0.059-0.336,0.075c-0.117,0.017-0.239,0.025-0.364,0.025c-0.168,0-0.327-0.015-0.477-0.044
	c-0.15-0.029-0.292-0.073-0.424-0.132c-0.132-0.059-0.255-0.132-0.367-0.22c-0.113-0.088-0.215-0.191-0.308-0.308
	c-0.109-0.134-0.205-0.281-0.289-0.441s-0.154-0.333-0.21-0.519c-0.056-0.187-0.099-0.387-0.128-0.601
	c-0.029-0.214-0.043-0.443-0.043-0.686c0-0.235,0.015-0.459,0.043-0.672c0.029-0.213,0.072-0.415,0.128-0.606s0.127-0.37,0.21-0.537
	c0.083-0.167,0.18-0.322,0.289-0.465c0.092-0.117,0.193-0.22,0.301-0.308s0.225-0.161,0.349-0.22
	c0.124-0.059,0.255-0.103,0.392-0.132s0.282-0.044,0.433-0.044c0.168,0,0.325,0.015,0.473,0.045s0.286,0.075,0.416,0.136
	s0.251,0.137,0.366,0.23c0.114,0.093,0.221,0.202,0.322,0.327c0.109,0.143,0.203,0.3,0.283,0.473s0.146,0.362,0.199,0.567
	c0.052,0.205,0.091,0.428,0.117,0.667c0.026,0.24,0.038,0.498,0.038,0.774v0.042v0.042v0.042v0.042h-0.771h-0.771h-0.771h-0.771
	c0,0.109,0.006,0.214,0.019,0.313s0.031,0.194,0.057,0.282c0.025,0.088,0.057,0.17,0.094,0.244c0.038,0.074,0.082,0.141,0.132,0.2
	c0.05,0.059,0.103,0.111,0.157,0.157c0.054,0.046,0.111,0.084,0.17,0.116c0.059,0.032,0.119,0.056,0.182,0.072
	c0.063,0.016,0.128,0.025,0.195,0.025c0.109,0.008,0.205-0.002,0.291-0.031c0.085-0.029,0.16-0.076,0.225-0.141
	c0.065-0.065,0.12-0.148,0.168-0.248C60.672,83.912,60.712,83.795,60.746,83.661L60.746,83.661L60.746,83.661L60.746,83.661
	L60.746,83.661z M60.813,82.118c0-0.109-0.006-0.212-0.018-0.308c-0.012-0.096-0.03-0.187-0.053-0.27
	c-0.023-0.084-0.051-0.161-0.084-0.233c-0.033-0.071-0.071-0.136-0.113-0.195c-0.042-0.059-0.088-0.109-0.137-0.151
	c-0.049-0.042-0.102-0.077-0.156-0.104c-0.054-0.027-0.111-0.047-0.169-0.06c-0.058-0.013-0.116-0.019-0.175-0.019
	c-0.067,0-0.13,0.006-0.19,0.019c-0.06,0.013-0.116,0.033-0.171,0.06c-0.054,0.027-0.107,0.062-0.158,0.104
	c-0.051,0.042-0.102,0.093-0.152,0.151c-0.042,0.059-0.08,0.124-0.113,0.194c-0.033,0.071-0.061,0.147-0.084,0.229
	c-0.023,0.082-0.041,0.169-0.053,0.26s-0.018,0.188-0.018,0.289h0.461h0.461h0.461h0.461v0.008v0.008v0.008V82.118z"/>
<path id="path4043" style="fill:#003366;" d="M62.12,83.828l0.31-0.059l0.31-0.059l0.31-0.059l0.31-0.059
	c0.025,0.151,0.065,0.283,0.119,0.396c0.054,0.113,0.124,0.207,0.207,0.283c0.084,0.075,0.182,0.132,0.295,0.17
	c0.113,0.038,0.241,0.057,0.384,0.057c0.075,0,0.145-0.004,0.209-0.012s0.123-0.019,0.177-0.034
	c0.054-0.015,0.105-0.032,0.152-0.053c0.047-0.02,0.091-0.043,0.133-0.069c0.034-0.025,0.065-0.054,0.093-0.087
	c0.028-0.032,0.053-0.068,0.074-0.106c0.021-0.038,0.038-0.078,0.049-0.118c0.012-0.041,0.018-0.083,0.018-0.125
	c0-0.034-0.002-0.065-0.006-0.094c-0.004-0.029-0.01-0.057-0.019-0.082c-0.008-0.025-0.019-0.048-0.031-0.069
	c-0.013-0.021-0.027-0.04-0.044-0.057c-0.017-0.017-0.038-0.034-0.063-0.05c-0.025-0.017-0.054-0.034-0.088-0.05
	s-0.071-0.034-0.113-0.05c-0.042-0.017-0.088-0.034-0.138-0.05c-0.251-0.067-0.48-0.134-0.685-0.201
	c-0.205-0.067-0.388-0.133-0.547-0.198c-0.159-0.065-0.295-0.129-0.409-0.191s-0.203-0.123-0.27-0.182
	c-0.084-0.075-0.157-0.157-0.22-0.246s-0.115-0.184-0.157-0.286c-0.042-0.103-0.073-0.213-0.094-0.331
	c-0.021-0.118-0.031-0.244-0.031-0.378c0-0.134,0.01-0.26,0.031-0.378s0.052-0.229,0.094-0.334c0.042-0.105,0.094-0.203,0.157-0.297
	c0.063-0.093,0.136-0.181,0.22-0.265c0.084-0.075,0.176-0.143,0.277-0.201c0.101-0.058,0.211-0.107,0.33-0.147
	c0.119-0.04,0.248-0.07,0.387-0.091c0.139-0.02,0.288-0.031,0.447-0.031c0.151,0,0.293,0.008,0.427,0.025
	c0.134,0.016,0.258,0.04,0.373,0.072c0.115,0.032,0.221,0.07,0.317,0.116s0.182,0.098,0.258,0.157
	c0.075,0.059,0.147,0.126,0.213,0.202s0.128,0.161,0.185,0.255c0.057,0.094,0.108,0.198,0.153,0.312s0.085,0.237,0.119,0.371
	l-0.293,0.067l-0.293,0.067l-0.293,0.067l-0.293,0.067c-0.025-0.117-0.063-0.218-0.113-0.303c-0.05-0.085-0.112-0.154-0.185-0.209
	c-0.073-0.054-0.158-0.094-0.254-0.121c-0.096-0.026-0.203-0.039-0.32-0.039c-0.075,0-0.145,0.002-0.208,0.007
	c-0.063,0.005-0.121,0.012-0.173,0.023c-0.052,0.011-0.1,0.024-0.142,0.041c-0.042,0.017-0.08,0.038-0.114,0.063
	c-0.034,0.025-0.063,0.05-0.088,0.076c-0.025,0.026-0.046,0.052-0.063,0.079c-0.017,0.027-0.029,0.056-0.038,0.086
	c-0.008,0.03-0.013,0.061-0.013,0.095s0.004,0.065,0.012,0.094c0.008,0.029,0.019,0.057,0.034,0.082
	c0.015,0.025,0.032,0.048,0.053,0.069s0.044,0.04,0.069,0.057c0.034,0.025,0.08,0.05,0.14,0.076c0.06,0.026,0.135,0.053,0.225,0.083
	c0.09,0.029,0.196,0.061,0.319,0.095c0.123,0.035,0.264,0.072,0.423,0.114c0.168,0.05,0.323,0.103,0.465,0.157
	s0.272,0.111,0.39,0.17c0.117,0.059,0.222,0.119,0.314,0.182c0.092,0.063,0.172,0.128,0.239,0.195
	c0.059,0.067,0.111,0.14,0.157,0.22c0.046,0.08,0.084,0.166,0.116,0.258c0.032,0.092,0.056,0.191,0.072,0.295
	c0.016,0.105,0.024,0.216,0.024,0.333c0,0.134-0.013,0.264-0.037,0.389c-0.025,0.125-0.061,0.244-0.11,0.357
	c-0.048,0.113-0.108,0.22-0.179,0.32s-0.152,0.192-0.245,0.276c-0.092,0.092-0.195,0.172-0.307,0.239
	c-0.112,0.068-0.234,0.123-0.364,0.167c-0.13,0.044-0.268,0.077-0.414,0.098c-0.146,0.021-0.299,0.032-0.458,0.032
	c-0.151,0-0.295-0.008-0.433-0.026c-0.138-0.017-0.269-0.043-0.393-0.079c-0.124-0.036-0.24-0.081-0.348-0.136
	c-0.108-0.055-0.209-0.12-0.301-0.195c-0.109-0.075-0.205-0.159-0.291-0.251c-0.085-0.092-0.16-0.193-0.225-0.302
	c-0.065-0.109-0.12-0.227-0.168-0.352S62.154,83.971,62.12,83.828L62.12,83.828L62.12,83.828L62.12,83.828L62.12,83.828z"/>
</svg>
