<?xml version="1.0" encoding="iso-8859-1"?>
<!-- Generator: Adobe Illustrator 25.4.1, SVG Export Plug-In . SVG Version: 6.00 Build 0)  -->
<svg version="1.1"
	 id="svg8" xmlns:cc="http://creativecommons.org/ns#" xmlns:dc="http://purl.org/dc/elements/1.1/" xmlns:inkscape="http://www.inkscape.org/namespaces/inkscape" xmlns:rdf="http://www.w3.org/1999/02/22-rdf-syntax-ns#" xmlns:sodipodi="http://sodipodi.sourceforge.net/DTD/sodipodi-0.dtd" xmlns:svg="http://www.w3.org/2000/svg"
	 xmlns="http://www.w3.org/2000/svg" xmlns:xlink="http://www.w3.org/1999/xlink" x="0px" y="0px" viewBox="0 0 100 100"
	 style="enable-background:new 0 0 100 100;" xml:space="preserve">
<sodipodi:namedview  bordercolor="#666666" borderopacity="1.0" id="base" inkscape:current-layer="g11753" inkscape:cx="-43.844733" inkscape:cy="84.283015" inkscape:document-units="px" inkscape:guide-bbox="true" inkscape:lockguides="true" inkscape:pageopacity="0.0" inkscape:pageshadow="2" inkscape:window-height="657" inkscape:window-maximized="1" inkscape:window-width="1280" inkscape:window-x="-8" inkscape:window-y="-8" inkscape:zoom="0.765625" pagecolor="#ffffff" showgrid="false" showguides="false" units="px">
	<sodipodi:guide  id="guide5700" inkscape:locked="true" orientation="0,1" position="-0.93017576,23.874511"></sodipodi:guide>
	<sodipodi:guide  id="guide5726" inkscape:locked="true" orientation="0,1" position="-26.098869,26.473047"></sodipodi:guide>
	<sodipodi:guide  id="guide5880" inkscape:locked="true" orientation="0,1" position="104.51042,-2.9104167"></sodipodi:guide>
	<sodipodi:guide  id="guide6001" inkscape:locked="true" orientation="0,1" position="-71.093695,29.279377"></sodipodi:guide>
	<sodipodi:guide  id="guide6005" inkscape:locked="true" orientation="0,1" position="-46.304445,58.278122"></sodipodi:guide>
	<sodipodi:guide  id="guide6736" inkscape:locked="true" orientation="0,1" position="-0.10335287,20.205485"></sodipodi:guide>
	<sodipodi:guide  id="guide6738" inkscape:locked="true" orientation="0,1" position="-0.43848907,22.874513"></sodipodi:guide>
	<inkscape:grid  id="grid2386" type="xygrid"></inkscape:grid>
</sodipodi:namedview>
<g id="g1180" transform="translate(0,-229.2666)" inkscape:groupmode="layer" inkscape:label="halo:always" style="display:none;">
	<g id="g1210" inkscape:groupmode="layer" inkscape:label="-gray-halo:iter3" style="display:inline;">
		<g id="circle1208">
			<path style="fill:#919395;" d="M50,329.3c-27.6,0-50-22.4-50-50s22.4-50,50-50s50,22.4,50,50S77.6,329.3,50,329.3z M50,237.9
				c-22.8,0-41.4,18.6-41.4,41.4s18.6,41.4,41.4,41.4s41.4-18.6,41.4-41.4S72.8,237.9,50,237.9z"/>
		</g>
	</g>
	<g id="g1206" inkscape:groupmode="layer" inkscape:label="-red-halo:iter3" style="display:inline;">
		<g id="circle1204">
			<path style="fill:#C52038;" d="M50,329.3c-27.6,0-50-22.4-50-50s22.4-50,50-50s50,22.4,50,50S77.6,329.3,50,329.3z M50,237.9
				c-22.8,0-41.4,18.6-41.4,41.4s18.6,41.4,41.4,41.4s41.4-18.6,41.4-41.4S72.8,237.9,50,237.9z"/>
		</g>
	</g>
	<g id="g1202" inkscape:groupmode="layer" inkscape:label="-green-halo:iter3" style="display:inline;">
		<g id="circle1200">
			<path style="fill:#5E9C42;" d="M50,329.3c-27.6,0-50-22.4-50-50s22.4-50,50-50s50,22.4,50,50S77.6,329.3,50,329.3z M50,237.9
				c-22.8,0-41.4,18.6-41.4,41.4s18.6,41.4,41.4,41.4s41.4-18.6,41.4-41.4S72.8,237.9,50,237.9z"/>
		</g>
	</g>
	<g id="layer18" inkscape:groupmode="layer" inkscape:label="-yellow-halo:iter3" style="display:inline;">
		<g id="circle1178-4">
			<path style="fill:#FBBA16;" d="M50,329.3c-27.6,0-50-22.4-50-50s22.4-50,50-50s50,22.4,50,50S77.6,329.3,50,329.3z M50,237.9
				c-22.8,0-41.4,18.6-41.4,41.4s18.6,41.4,41.4,41.4s41.4-18.6,41.4-41.4S72.8,237.9,50,237.9z"/>
		</g>
	</g>
</g>
<path id="path6082" style="fill:#003366;" d="M23.9,79.9v-1.975V75.95v-1.975V72h0.325h0.325h0.325H25.2v1.975v1.975v1.975V79.9
	h-0.325H24.55c0,0-0.163,0-0.325,0C24.062,79.9,23.9,79.9,23.9,79.9z"/>
<path id="path6084" style="fill:#003366;" d="M30.2,79.9h-0.3h-0.3h-0.3H29v-0.725V78.45v-0.725V77c0-0.15,0-0.287-0.002-0.412
	s-0.005-0.238-0.011-0.338c-0.006-0.1-0.015-0.188-0.029-0.262c-0.014-0.075-0.033-0.137-0.058-0.188
	c0-0.05-0.006-0.094-0.019-0.133c-0.013-0.039-0.031-0.074-0.056-0.105c-0.025-0.031-0.056-0.059-0.094-0.086
	C28.694,75.45,28.65,75.425,28.6,75.4c-0.025-0.025-0.056-0.05-0.091-0.073c-0.034-0.023-0.072-0.045-0.109-0.064
	s-0.075-0.034-0.109-0.045c-0.034-0.011-0.066-0.017-0.091-0.017c-0.05,0-0.1,0.006-0.15,0.017c-0.05,0.011-0.1,0.026-0.15,0.045
	c-0.05,0.019-0.1,0.041-0.15,0.064c-0.05,0.023-0.1,0.049-0.15,0.073c-0.05,0.025-0.094,0.056-0.133,0.094s-0.073,0.081-0.104,0.131
	c-0.031,0.05-0.06,0.106-0.086,0.169S27.225,75.925,27.2,76c-0.025,0.05-0.044,0.119-0.058,0.203s-0.023,0.184-0.029,0.297
	c-0.007,0.113-0.01,0.238-0.011,0.372C27.1,77.006,27.1,77.15,27.1,77.3v0.65v0.65v0.65v0.65h-0.275H26.55h-0.275H26v-1.425V77.05
	v-1.425V74.2h0.275h0.275h0.275H27.1v0.2v0.2v0.2V75c0.05-0.075,0.1-0.15,0.152-0.222s0.104-0.141,0.16-0.203
	c0.056-0.062,0.116-0.119,0.18-0.166c0.064-0.047,0.133-0.084,0.208-0.109c0.075-0.05,0.144-0.088,0.211-0.116
	c0.067-0.028,0.133-0.047,0.202-0.059c0.069-0.012,0.14-0.019,0.22-0.022C28.513,74.1,28.6,74.1,28.7,74.1s0.194,0.006,0.281,0.019
	c0.087,0.012,0.169,0.031,0.244,0.056c0.075,0.025,0.144,0.056,0.206,0.094S29.55,74.35,29.6,74.4c0.075,0.05,0.137,0.1,0.191,0.151
	s0.097,0.104,0.134,0.16c0.038,0.057,0.069,0.116,0.097,0.18c0.028,0.064,0.053,0.133,0.078,0.208
	c0.025,0.075,0.044,0.156,0.058,0.245c0.014,0.089,0.023,0.186,0.029,0.292c0.007,0.106,0.01,0.222,0.011,0.349
	S30.2,76.25,30.2,76.4v0.875v0.875v0.875V79.9L30.2,79.9L30.2,79.9L30.2,79.9L30.2,79.9z"/>
<path id="path6086" style="fill:#003366;" d="M30.5,74.2h0.175h0.175h0.175H31.2v-0.1V74v-0.1v-0.1c0-0.125,0-0.244,0.002-0.355
	c0.002-0.111,0.005-0.214,0.011-0.307c0.006-0.094,0.015-0.178,0.029-0.252S31.275,72.75,31.3,72.7s0.056-0.1,0.092-0.148
	c0.036-0.048,0.076-0.095,0.12-0.139s0.09-0.084,0.139-0.12C31.7,72.257,31.75,72.225,31.8,72.2s0.106-0.05,0.167-0.073
	c0.061-0.023,0.127-0.045,0.196-0.064s0.141-0.034,0.214-0.045S32.525,72,32.6,72c0.1,0,0.194,0.006,0.283,0.017
	c0.089,0.011,0.174,0.026,0.255,0.045c0.081,0.019,0.159,0.041,0.236,0.065c0.076,0.023,0.152,0.049,0.226,0.073l-0.05,0.275
	L33.5,72.75l-0.05,0.275L33.4,73.3c-0.05-0.025-0.1-0.044-0.15-0.058c-0.05-0.014-0.1-0.024-0.15-0.03
	c-0.05-0.006-0.1-0.009-0.15-0.011S32.85,73.2,32.8,73.2s-0.094,0.006-0.133,0.017c-0.039,0.011-0.073,0.026-0.104,0.045
	c-0.031,0.019-0.059,0.04-0.086,0.064C32.45,73.35,32.425,73.375,32.4,73.4s-0.044,0.056-0.058,0.094s-0.023,0.081-0.029,0.131
	c-0.007,0.05-0.01,0.106-0.011,0.169S32.3,73.925,32.3,74v0.1v0.1v0.1v0.1h0.225h0.225h0.225H33.2v0.3V75v0.3v0.3h-0.225H32.75
	h-0.225H32.3v1.125v1.125v1.125V80.1H32h-0.3h-0.3h-0.3v-1.125V77.85v-1.125V75.6h-0.175H30.75h-0.175H30.4v-0.35V74.9v-0.35V74.2
	h0.025h0.025c0,0,0.013,0,0.025,0C30.487,74.2,30.5,74.2,30.5,74.2z"/>
<path id="path6088" style="fill:#003366;" d="M34.7,79.9h-0.3h-0.3h-0.3h-0.3v-1.425V77.05v-1.425V74.2h0.275h0.275h0.275H34.6v0.2
	v0.2v0.2V75c0.05-0.1,0.1-0.188,0.148-0.266s0.096-0.147,0.139-0.209c0.043-0.062,0.084-0.119,0.12-0.172S35.075,74.25,35.1,74.2
	c0.05-0.025,0.094-0.05,0.134-0.073c0.041-0.023,0.078-0.045,0.116-0.064s0.075-0.034,0.116-0.045C35.506,74.007,35.55,74,35.6,74
	c0.075,0,0.15,0.006,0.223,0.019c0.074,0.012,0.146,0.031,0.215,0.056c0.069,0.025,0.134,0.056,0.195,0.094
	c0.061,0.038,0.117,0.081,0.167,0.131l-0.1,0.325l-0.1,0.325l-0.1,0.325L36,75.6c-0.05-0.05-0.1-0.088-0.15-0.116
	c-0.05-0.028-0.1-0.047-0.15-0.059c-0.05-0.012-0.1-0.019-0.15-0.022C35.5,75.4,35.45,75.4,35.4,75.4s-0.094,0.006-0.134,0.017
	c-0.041,0.011-0.078,0.026-0.116,0.045c-0.037,0.019-0.075,0.04-0.116,0.064C34.994,75.55,34.95,75.575,34.9,75.6
	c-0.025,0.025-0.05,0.062-0.075,0.109c-0.025,0.047-0.05,0.103-0.075,0.166s-0.05,0.131-0.075,0.203
	c-0.025,0.072-0.05,0.147-0.075,0.222c-0.025,0.075-0.044,0.169-0.058,0.281c-0.014,0.113-0.023,0.244-0.029,0.394
	s-0.009,0.319-0.011,0.506C34.5,77.669,34.5,77.875,34.5,78.1c0.05,0.025,0.088,0.15,0.116,0.323
	c0.028,0.173,0.047,0.395,0.059,0.614c0.013,0.219,0.019,0.435,0.022,0.596C34.7,79.794,34.7,79.9,34.7,79.9z"/>
<path style="fill:#003366;" d="M40.4,79.2c0-0.05-0.006-0.112-0.016-0.186s-0.022-0.158-0.034-0.252s-0.025-0.197-0.034-0.308
	S40.3,78.225,40.3,78.1v-0.45V77.2v-0.45V76.3c0-0.175-0.006-0.331-0.017-0.472c-0.011-0.141-0.026-0.266-0.045-0.378
	c-0.019-0.112-0.041-0.213-0.064-0.303c-0.024-0.091-0.049-0.172-0.074-0.247c-0.025-0.075-0.056-0.144-0.094-0.206
	s-0.081-0.119-0.131-0.169c-0.05-0.05-0.106-0.094-0.169-0.131S39.575,74.325,39.5,74.3s-0.156-0.05-0.244-0.073
	c-0.088-0.023-0.181-0.045-0.281-0.064s-0.206-0.034-0.319-0.045C38.544,74.106,38.425,74.1,38.3,74.1
	c-0.15,0-0.287,0.006-0.416,0.02c-0.128,0.014-0.247,0.036-0.359,0.068c-0.112,0.031-0.219,0.072-0.322,0.123
	C37.1,74.363,37,74.425,36.9,74.5c-0.075,0.075-0.144,0.156-0.208,0.244s-0.124,0.181-0.18,0.281c-0.056,0.1-0.11,0.206-0.161,0.319
	C36.3,75.456,36.25,75.575,36.2,75.7l0.275,0.05l0.275,0.05l0.275,0.05L37.3,75.9l0,0l0,0l0,0l0,0
	c0.025-0.075,0.05-0.144,0.075-0.206c0.025-0.062,0.05-0.119,0.075-0.169c0.025-0.05,0.05-0.094,0.075-0.131
	c0.025-0.037,0.05-0.069,0.075-0.094c0.025-0.025,0.056-0.05,0.092-0.073c0.036-0.023,0.076-0.045,0.12-0.064
	c0.044-0.019,0.091-0.035,0.139-0.046S38.05,75.1,38.1,75.1s0.1,0,0.148,0.002c0.049,0.001,0.096,0.005,0.139,0.01
	c0.043,0.007,0.084,0.016,0.12,0.03c0.036,0.014,0.067,0.033,0.092,0.058c0.025,0.025,0.05,0.044,0.073,0.059
	c0.024,0.016,0.046,0.028,0.065,0.041c0.019,0.013,0.034,0.025,0.045,0.041c0.011,0.016,0.017,0.034,0.017,0.059
	c0,0.025,0.006,0.056,0.016,0.094c0.009,0.037,0.022,0.081,0.034,0.131c0.013,0.05,0.025,0.106,0.034,0.169
	C38.894,75.856,38.9,75.925,38.9,76c-0.05,0.025-0.112,0.05-0.188,0.076c-0.075,0.027-0.163,0.055-0.263,0.086
	c-0.1,0.032-0.212,0.066-0.337,0.105C37.987,76.306,37.85,76.35,37.7,76.4c-0.125,0.025-0.237,0.05-0.339,0.076
	c-0.102,0.027-0.192,0.055-0.273,0.086c-0.082,0.032-0.153,0.066-0.218,0.105c-0.064,0.039-0.12,0.083-0.17,0.133
	c-0.05,0.025-0.1,0.056-0.148,0.094s-0.096,0.081-0.139,0.131c-0.044,0.05-0.084,0.106-0.12,0.169
	c-0.036,0.062-0.067,0.131-0.092,0.206c-0.025,0.05-0.05,0.106-0.073,0.167c-0.024,0.061-0.046,0.127-0.065,0.196
	c-0.018,0.069-0.034,0.14-0.045,0.214C36.006,78.05,36,78.125,36,78.2c0,0.125,0.006,0.244,0.02,0.356
	c0.014,0.113,0.036,0.219,0.067,0.319s0.072,0.194,0.124,0.281s0.114,0.169,0.189,0.244c0.075,0.075,0.156,0.144,0.242,0.205
	c0.086,0.061,0.177,0.114,0.271,0.158s0.191,0.078,0.289,0.102C37.3,79.888,37.4,79.9,37.5,79.9c0.075,0,0.144-0.006,0.209-0.017
	c0.066-0.011,0.128-0.026,0.191-0.045c0.062-0.018,0.125-0.04,0.191-0.064s0.134-0.048,0.209-0.073
	c0.05-0.025,0.106-0.056,0.166-0.094s0.122-0.081,0.184-0.131c0.062-0.05,0.125-0.106,0.184-0.169S38.95,79.175,39,79.1l0.05,0.15
	l0.05,0.15l0.05,0.15l0.05,0.15h0.3h0.3h0.3h0.3c0.025,0,0.037-0.019,0.042-0.05s0.002-0.075-0.004-0.125
	c-0.006-0.05-0.016-0.106-0.024-0.162S40.4,79.25,40.4,79.2z M39.1,77.5c0,0.1,0,0.194-0.002,0.281s-0.005,0.169-0.011,0.244
	c-0.007,0.075-0.016,0.144-0.03,0.206S39.025,78.35,39,78.4c-0.025,0.05-0.05,0.094-0.076,0.133
	c-0.026,0.039-0.054,0.074-0.085,0.105c-0.031,0.032-0.066,0.06-0.105,0.086S38.65,78.775,38.6,78.8
	c-0.05,0.025-0.094,0.05-0.134,0.073c-0.041,0.023-0.078,0.045-0.116,0.064s-0.075,0.034-0.116,0.045
	C38.194,78.993,38.15,79,38.1,79s-0.1-0.006-0.149-0.017c-0.048-0.011-0.095-0.026-0.139-0.045c-0.043-0.019-0.084-0.041-0.12-0.064
	c-0.036-0.024-0.067-0.049-0.092-0.074c-0.025-0.05-0.05-0.094-0.073-0.136c-0.024-0.042-0.046-0.083-0.065-0.126
	c-0.019-0.044-0.034-0.091-0.045-0.146S37.4,78.275,37.4,78.2c0-0.05,0.006-0.1,0.017-0.148c0.011-0.048,0.026-0.095,0.045-0.139
	c0.019-0.044,0.041-0.085,0.064-0.121c0.023-0.036,0.048-0.067,0.073-0.092s0.062-0.05,0.111-0.075
	c0.048-0.025,0.108-0.05,0.176-0.075c0.069-0.025,0.147-0.05,0.233-0.075c0.086-0.025,0.18-0.05,0.28-0.075
	c0.075-0.025,0.15-0.05,0.222-0.073c0.072-0.023,0.141-0.045,0.203-0.064s0.119-0.034,0.166-0.045S39.075,77.2,39.1,77.2v0.075
	v0.075v0.075V77.5z"/>
<path id="path6092" style="fill:#003366;" d="M40.6,78.3l0.3-0.05l0.3-0.05l0.3-0.05l0.3-0.05c0.025,0.15,0.062,0.281,0.114,0.394
	c0.052,0.113,0.117,0.206,0.198,0.281c0.081,0.075,0.178,0.131,0.292,0.169S42.65,79,42.8,79c0.075,0,0.144-0.006,0.208-0.017
	c0.064-0.011,0.124-0.026,0.18-0.045c0.056-0.019,0.109-0.041,0.16-0.064C43.4,78.85,43.45,78.825,43.5,78.8
	c0.025-0.025,0.05-0.056,0.073-0.091c0.024-0.034,0.046-0.072,0.065-0.109c0.019-0.037,0.034-0.075,0.045-0.109
	c0.011-0.034,0.017-0.066,0.017-0.091s0-0.05-0.002-0.075c-0.002-0.025-0.005-0.05-0.011-0.075c-0.006-0.025-0.015-0.05-0.029-0.075
	c-0.014-0.025-0.033-0.05-0.058-0.075s-0.05-0.044-0.076-0.059c-0.026-0.016-0.054-0.028-0.085-0.041
	c-0.031-0.012-0.066-0.025-0.105-0.041c-0.039-0.016-0.083-0.034-0.133-0.059c-0.25-0.075-0.481-0.144-0.691-0.209
	c-0.209-0.066-0.397-0.128-0.559-0.191s-0.3-0.125-0.409-0.191c-0.109-0.066-0.191-0.134-0.241-0.209
	c-0.075-0.075-0.144-0.156-0.205-0.244c-0.061-0.087-0.114-0.181-0.157-0.281c-0.044-0.1-0.079-0.206-0.102-0.319
	C40.812,76.144,40.8,76.025,40.8,75.9s0.013-0.25,0.036-0.372c0.023-0.122,0.058-0.241,0.102-0.353
	c0.044-0.112,0.097-0.219,0.158-0.316c0.061-0.097,0.129-0.184,0.204-0.259c0.075-0.075,0.162-0.144,0.262-0.205
	c0.1-0.061,0.213-0.114,0.338-0.158c0.125-0.043,0.263-0.078,0.412-0.101c0.15-0.023,0.313-0.036,0.488-0.036
	c0.15,0,0.294,0.006,0.43,0.02c0.136,0.014,0.264,0.036,0.382,0.068c0.118,0.032,0.228,0.072,0.327,0.123s0.186,0.114,0.261,0.189
	c0.075,0.05,0.144,0.113,0.208,0.186c0.064,0.074,0.124,0.158,0.18,0.252c0.056,0.093,0.109,0.196,0.16,0.307
	c0.051,0.111,0.101,0.23,0.152,0.355l-0.3,0.075l-0.3,0.075L44,75.825L43.7,75.9c-0.025-0.125-0.062-0.231-0.112-0.32
	c-0.05-0.089-0.112-0.161-0.188-0.217s-0.163-0.096-0.263-0.123c-0.1-0.026-0.212-0.039-0.337-0.039c-0.075,0-0.144,0-0.206,0.002
	c-0.062,0.001-0.119,0.005-0.169,0.01c-0.05,0.007-0.094,0.016-0.131,0.03c-0.038,0.014-0.069,0.033-0.094,0.058
	c-0.025,0.025-0.05,0.05-0.073,0.075c-0.024,0.025-0.046,0.05-0.065,0.075c-0.019,0.025-0.034,0.049-0.045,0.074
	C42.006,75.55,42,75.575,42,75.6c0,0.025,0.006,0.05,0.017,0.075s0.026,0.05,0.045,0.075s0.041,0.05,0.064,0.075
	c0.024,0.025,0.049,0.05,0.074,0.075s0.069,0.05,0.13,0.076c0.061,0.027,0.139,0.055,0.232,0.086
	c0.094,0.031,0.203,0.065,0.327,0.105c0.124,0.039,0.261,0.083,0.411,0.133c0.175,0.05,0.337,0.1,0.486,0.151
	s0.283,0.104,0.402,0.16s0.222,0.116,0.308,0.18C44.581,76.856,44.65,76.925,44.7,77c0.05,0.075,0.1,0.15,0.147,0.228
	c0.047,0.078,0.091,0.159,0.128,0.247c0.037,0.088,0.069,0.181,0.091,0.284S45.1,77.975,45.1,78.1c0,0.15-0.013,0.288-0.037,0.416
	c-0.025,0.128-0.062,0.247-0.113,0.359c-0.05,0.113-0.112,0.219-0.187,0.322C44.688,79.3,44.6,79.4,44.5,79.5
	s-0.206,0.181-0.32,0.247c-0.114,0.066-0.236,0.116-0.368,0.153c-0.132,0.038-0.272,0.062-0.423,0.078S43.075,80,42.9,80
	c-0.15,0-0.294-0.006-0.431-0.02c-0.137-0.014-0.269-0.036-0.394-0.068c-0.125-0.031-0.244-0.072-0.356-0.123S41.5,79.675,41.4,79.6
	c-0.1-0.075-0.194-0.156-0.28-0.245c-0.086-0.089-0.164-0.186-0.233-0.293c-0.069-0.106-0.128-0.222-0.176-0.348
	C40.662,78.587,40.625,78.45,40.6,78.3L40.6,78.3L40.6,78.3L40.6,78.3L40.6,78.3z"/>
<path id="path6094" style="fill:#003366;" d="M47.7,74.2v0.3v0.3v0.3v0.3h-0.2h-0.2h-0.2h-0.2v0.575v0.575v0.575V77.7
	c0,0.125,0,0.238,0,0.338s0,0.188,0,0.262c0,0.075,0,0.138,0,0.188c0,0.05,0,0.088,0,0.113c0.025,0.025,0.05,0.05,0.075,0.073
	c0.025,0.023,0.05,0.045,0.075,0.064c0.025,0.019,0.05,0.034,0.075,0.045c0.025,0.011,0.05,0.017,0.075,0.017s0.056,0,0.092-0.002
	c0.036-0.001,0.076-0.004,0.12-0.01c0.044-0.006,0.091-0.015,0.139-0.029S47.65,78.725,47.7,78.7l0.025,0.3l0.025,0.3l0.025,0.3
	l0.025,0.3c-0.075,0.05-0.15,0.088-0.227,0.116c-0.076,0.028-0.154,0.047-0.236,0.059c-0.081,0.013-0.166,0.019-0.255,0.022
	C46.994,80.1,46.9,80.1,46.8,80.1c-0.075,0-0.15-0.006-0.223-0.017c-0.074-0.011-0.146-0.026-0.215-0.045
	c-0.069-0.018-0.134-0.04-0.195-0.064C46.106,79.95,46.05,79.925,46,79.9c-0.05-0.05-0.094-0.1-0.133-0.15
	c-0.039-0.05-0.073-0.1-0.104-0.15c-0.031-0.05-0.059-0.1-0.086-0.15c-0.027-0.05-0.052-0.1-0.077-0.15
	c-0.025-0.05-0.044-0.112-0.058-0.189c-0.014-0.077-0.023-0.167-0.029-0.274c-0.007-0.106-0.01-0.228-0.011-0.367
	S45.5,78.175,45.5,78v-0.625V76.75v-0.625V75.5h-0.15H45.2h-0.15H44.9v-0.3v-0.3v-0.3v-0.3h0.15h0.15h0.15h0.15v-0.275V73.75v-0.275
	V73.2l0.3-0.225l0.3-0.225l0.3-0.225l0.3-0.225v0.5v0.5v0.5v0.5l0.25-0.025l0.25-0.025l0.25-0.025L47.7,74.2L47.7,74.2L47.7,74.2
	L47.7,74.2L47.7,74.2z"/>
<path id="path6096" style="fill:#003366;" d="M49.3,79.9h-0.325H48.65h-0.325H48v-1.425V77.05v-1.425V74.2h0.275h0.275h0.275H49.1
	v0.2v0.2v0.2V75c0.05-0.1,0.1-0.188,0.148-0.266s0.096-0.147,0.139-0.209c0.043-0.062,0.084-0.119,0.12-0.172
	S49.575,74.25,49.6,74.2c0.05-0.025,0.094-0.05,0.134-0.073c0.041-0.023,0.078-0.045,0.116-0.064s0.075-0.034,0.116-0.045
	C50.006,74.007,50.05,74,50.1,74c0.075,0,0.15,0.006,0.223,0.019c0.074,0.012,0.146,0.031,0.215,0.056
	c0.069,0.025,0.134,0.056,0.195,0.094c0.061,0.038,0.117,0.081,0.167,0.131l-0.1,0.325l-0.1,0.325l-0.1,0.325L50.5,75.6
	c-0.05-0.05-0.1-0.088-0.15-0.116c-0.05-0.028-0.1-0.047-0.15-0.059c-0.05-0.012-0.1-0.019-0.15-0.022C50,75.4,49.95,75.4,49.9,75.4
	s-0.094,0.006-0.134,0.017c-0.041,0.011-0.078,0.026-0.116,0.045c-0.037,0.019-0.075,0.04-0.116,0.064
	C49.494,75.55,49.45,75.575,49.4,75.6c-0.025,0.025-0.05,0.062-0.075,0.109c-0.025,0.047-0.05,0.103-0.075,0.166
	s-0.05,0.131-0.075,0.203c-0.025,0.072-0.05,0.147-0.075,0.222c-0.025,0.075-0.044,0.169-0.058,0.281
	c-0.014,0.113-0.023,0.244-0.029,0.394s-0.009,0.319-0.011,0.506C49,77.669,49,77.875,49,78.1l0.075,0.45L49.15,79l0.075,0.45
	L49.3,79.9L49.3,79.9L49.3,79.9L49.3,79.9L49.3,79.9z"/>
<path id="path6098" style="fill:#003366;" d="M54.2,79.9v-0.225V79.45v-0.225V79c-0.05,0.075-0.1,0.144-0.152,0.208
	c-0.051,0.064-0.104,0.124-0.16,0.18c-0.056,0.056-0.116,0.109-0.18,0.16S53.575,79.65,53.5,79.7
	c-0.075,0.05-0.15,0.094-0.225,0.131c-0.075,0.038-0.15,0.069-0.225,0.094c-0.075,0.025-0.15,0.044-0.225,0.056
	C52.75,79.994,52.675,80,52.6,80s-0.15-0.006-0.223-0.017c-0.074-0.011-0.146-0.026-0.215-0.045
	c-0.069-0.019-0.134-0.041-0.195-0.064C51.906,79.85,51.85,79.825,51.8,79.8c-0.05-0.05-0.1-0.1-0.148-0.151
	s-0.096-0.104-0.139-0.16c-0.044-0.057-0.084-0.116-0.12-0.18S51.325,79.175,51.3,79.1c-0.025-0.075-0.05-0.156-0.073-0.245
	c-0.024-0.089-0.046-0.186-0.065-0.292c-0.018-0.106-0.034-0.222-0.045-0.349S51.1,77.95,51.1,77.8v-0.9V76v-0.9v-0.9h0.3h0.3H52
	h0.3v0.65v0.65v0.65v0.65c0,0.175,0,0.338,0.002,0.486s0.005,0.283,0.011,0.401c0.006,0.119,0.015,0.222,0.029,0.308
	c0.014,0.086,0.033,0.155,0.058,0.205c0,0.05,0.006,0.1,0.019,0.148c0.013,0.048,0.031,0.095,0.056,0.139
	c0.025,0.044,0.056,0.085,0.094,0.121c0.037,0.036,0.081,0.067,0.131,0.092c0.05,0.025,0.094,0.05,0.134,0.073
	c0.041,0.023,0.078,0.045,0.116,0.064s0.075,0.034,0.116,0.045C53.106,78.894,53.15,78.9,53.2,78.9s0.1-0.006,0.15-0.017
	c0.05-0.011,0.1-0.026,0.15-0.045s0.1-0.04,0.15-0.064c0.05-0.023,0.1-0.048,0.15-0.073s0.094-0.056,0.131-0.094
	c0.038-0.037,0.069-0.081,0.094-0.131c0.025-0.05,0.044-0.106,0.056-0.169s0.019-0.131,0.019-0.206
	c0.025-0.05,0.044-0.119,0.058-0.206c0.014-0.087,0.023-0.194,0.029-0.319c0.007-0.126,0.01-0.27,0.011-0.432S54.2,76.8,54.2,76.6
	V76v-0.6v-0.6v-0.6h0.3h0.3h0.3h0.3v1.425v1.425v1.425V79.9h-0.3h-0.3h-0.3H54.2L54.2,79.9L54.2,79.9L54.2,79.9L54.2,79.9z"/>
<path id="path6100" style="fill:#003366;" d="M60.2,75.9l-0.3,0.075l-0.3,0.075l-0.3,0.075L59,76.2
	c-0.025-0.15-0.062-0.281-0.111-0.394c-0.048-0.112-0.108-0.206-0.176-0.281c-0.069-0.075-0.147-0.131-0.233-0.169
	S58.3,75.3,58.2,75.3c-0.075,0-0.144,0.006-0.208,0.02c-0.064,0.014-0.124,0.036-0.18,0.068c-0.056,0.031-0.109,0.072-0.16,0.123
	C57.6,75.562,57.55,75.625,57.5,75.7s-0.094,0.156-0.131,0.245c-0.037,0.089-0.069,0.186-0.094,0.292
	c-0.025,0.106-0.044,0.222-0.056,0.349S57.2,76.85,57.2,77c0,0.175,0.006,0.338,0.019,0.486c0.013,0.148,0.031,0.283,0.056,0.401
	c0.025,0.119,0.056,0.222,0.094,0.308S57.45,78.35,57.5,78.4c0.05,0.075,0.1,0.138,0.152,0.189c0.051,0.051,0.104,0.092,0.16,0.123
	c0.056,0.032,0.116,0.054,0.18,0.068c0.064,0.014,0.133,0.02,0.208,0.02c0.05,0,0.1-0.006,0.15-0.017
	c0.05-0.011,0.1-0.026,0.15-0.045s0.1-0.04,0.15-0.064c0.05-0.023,0.1-0.048,0.15-0.073c0.05-0.05,0.094-0.1,0.131-0.153
	c0.038-0.053,0.069-0.109,0.094-0.172s0.044-0.132,0.056-0.21S59.1,77.9,59.1,77.8l0.3,0.075l0.3,0.075l0.3,0.075l0.3,0.075
	c-0.075,0.35-0.175,0.656-0.302,0.919c-0.127,0.263-0.28,0.481-0.461,0.656c-0.181,0.175-0.39,0.306-0.629,0.394
	C58.669,80.156,58.4,80.2,58.1,80.2c-0.2,0-0.381-0.019-0.547-0.056c-0.166-0.037-0.316-0.094-0.453-0.169
	c-0.138-0.075-0.263-0.169-0.378-0.281C56.606,79.581,56.5,79.45,56.4,79.3s-0.188-0.306-0.263-0.469S56,78.5,55.95,78.325
	c-0.05-0.175-0.088-0.356-0.113-0.544C55.812,77.594,55.8,77.4,55.8,77.2c0-0.25,0.013-0.481,0.037-0.695
	c0.025-0.214,0.063-0.411,0.113-0.592c0.05-0.181,0.112-0.347,0.188-0.499C56.213,75.263,56.3,75.125,56.4,75
	s0.213-0.237,0.334-0.336c0.122-0.098,0.253-0.183,0.391-0.252c0.138-0.068,0.281-0.121,0.428-0.157C57.7,74.219,57.85,74.2,58,74.2
	c0.125,0,0.25,0.006,0.372,0.02c0.122,0.014,0.241,0.036,0.353,0.068c0.113,0.031,0.219,0.072,0.316,0.123
	c0.097,0.052,0.184,0.114,0.259,0.189c0.125,0.05,0.231,0.119,0.323,0.203c0.092,0.084,0.171,0.184,0.24,0.297
	c0.069,0.113,0.128,0.238,0.183,0.372C60.1,75.606,60.15,75.75,60.2,75.9L60.2,75.9L60.2,75.9L60.2,75.9L60.2,75.9z"/>
<path id="path6102" style="fill:#003366;" d="M62.8,74.2v0.3v0.3v0.3v0.3h-0.2h-0.2h-0.2H62v0.575v0.575v0.575V77.7
	c0,0.125,0,0.238,0,0.338s0,0.188,0,0.262c0,0.075,0,0.138,0,0.188c0,0.05,0,0.088,0,0.113c0.025,0.025,0.05,0.05,0.075,0.073
	c0.025,0.023,0.05,0.045,0.075,0.064s0.05,0.034,0.075,0.045c0.025,0.011,0.05,0.017,0.075,0.017s0.056,0,0.092-0.002
	c0.036-0.001,0.076-0.004,0.12-0.01c0.044-0.006,0.091-0.015,0.139-0.029S62.75,78.725,62.8,78.7l0.025,0.3l0.025,0.3l0.025,0.3
	l0.025,0.3c-0.075,0.05-0.15,0.088-0.227,0.116c-0.076,0.028-0.154,0.047-0.236,0.059c-0.081,0.013-0.166,0.019-0.255,0.022
	C62.094,80.1,62,80.1,61.9,80.1c-0.075,0-0.15-0.006-0.223-0.017c-0.074-0.011-0.146-0.026-0.215-0.045
	c-0.069-0.018-0.135-0.04-0.195-0.064S61.15,79.925,61.1,79.9c-0.05-0.05-0.094-0.1-0.133-0.15c-0.039-0.05-0.073-0.1-0.104-0.15
	c-0.031-0.05-0.059-0.1-0.086-0.15c-0.027-0.05-0.052-0.1-0.077-0.15c-0.025-0.05-0.044-0.112-0.058-0.189
	c-0.014-0.077-0.023-0.167-0.029-0.274c-0.007-0.106-0.01-0.228-0.011-0.367S60.6,78.175,60.6,78v-0.625V76.75v-0.625V75.5h-0.15
	H60.3h-0.15H60v-0.3v-0.3v-0.3v-0.3h0.15h0.15h0.15h0.15v-0.275V73.75v-0.275V73.2l0.3-0.225l0.3-0.225l0.3-0.225l0.3-0.225v0.5v0.5
	v0.5v0.5l0.25-0.025l0.25-0.025l0.25-0.025L62.8,74.2L62.8,74.2L62.8,74.2L62.8,74.2L62.8,74.2z"/>
<path id="path6104" style="fill:#003366;" d="M66.2,79.9v-0.225V79.45v-0.225V79c-0.05,0.075-0.1,0.144-0.151,0.208
	s-0.104,0.124-0.16,0.18c-0.057,0.056-0.116,0.109-0.18,0.16S65.575,79.65,65.5,79.7c-0.075,0.05-0.15,0.094-0.225,0.131
	c-0.075,0.038-0.15,0.069-0.225,0.094c-0.075,0.025-0.15,0.044-0.225,0.056C64.75,79.994,64.675,80,64.6,80s-0.15-0.006-0.224-0.017
	c-0.074-0.011-0.146-0.026-0.215-0.045c-0.069-0.018-0.134-0.04-0.195-0.064S63.85,79.825,63.8,79.8c-0.05-0.05-0.1-0.1-0.148-0.151
	s-0.096-0.104-0.139-0.16c-0.044-0.057-0.084-0.116-0.12-0.18S63.325,79.175,63.3,79.1c-0.025-0.075-0.05-0.156-0.073-0.245
	c-0.024-0.089-0.046-0.186-0.065-0.292c-0.018-0.106-0.034-0.222-0.045-0.349S63.1,77.95,63.1,77.8v-0.9V76v-0.9v-0.9h0.3h0.3H64
	h0.3v0.65v0.65v0.65v0.65c0,0.175,0,0.338,0.002,0.486c0.001,0.148,0.005,0.283,0.01,0.401c0.007,0.119,0.016,0.222,0.03,0.308
	c0.014,0.086,0.033,0.155,0.058,0.205c0,0.05,0.006,0.1,0.019,0.148c0.012,0.048,0.031,0.095,0.056,0.139
	c0.025,0.044,0.056,0.085,0.094,0.121S64.65,78.675,64.7,78.7c0.05,0.025,0.094,0.05,0.134,0.073
	c0.041,0.023,0.078,0.045,0.116,0.064s0.075,0.034,0.116,0.045s0.084,0.017,0.134,0.017s0.1-0.006,0.15-0.017
	c0.05-0.011,0.1-0.026,0.15-0.045s0.1-0.04,0.15-0.064c0.05-0.023,0.1-0.048,0.15-0.073s0.094-0.056,0.131-0.094
	s0.069-0.081,0.094-0.131c0.025-0.05,0.044-0.106,0.056-0.169c0.013-0.062,0.019-0.131,0.019-0.206
	c0.025-0.05,0.044-0.119,0.058-0.206c0.014-0.087,0.024-0.194,0.03-0.319c0.006-0.125,0.009-0.269,0.01-0.431
	C66.2,76.981,66.2,76.8,66.2,76.6V76v-0.6v-0.6v-0.6h0.3h0.3h0.3h0.3v1.425v1.425v1.425V79.9h-0.3h-0.3h-0.3H66.2L66.2,79.9
	L66.2,79.9L66.2,79.9L66.2,79.9z"/>
<path id="path6106" style="fill:#003366;" d="M69.4,79.9h-0.3h-0.3h-0.3h-0.3v-1.425V77.05v-1.425V74.2h0.275h0.275h0.275H69.3v0.2
	v0.2v0.2V75c0.05-0.1,0.1-0.188,0.148-0.266c0.048-0.078,0.095-0.147,0.139-0.209s0.084-0.119,0.12-0.172
	C69.744,74.3,69.775,74.25,69.8,74.2c0.05-0.025,0.094-0.05,0.134-0.073c0.041-0.023,0.078-0.045,0.116-0.064
	s0.075-0.034,0.116-0.045S70.25,74,70.3,74c0.075,0,0.15,0.006,0.224,0.019c0.074,0.012,0.146,0.031,0.215,0.056
	c0.068,0.025,0.134,0.056,0.195,0.094c0.061,0.038,0.117,0.081,0.167,0.131L71,74.625l-0.1,0.325l-0.1,0.325L70.7,75.6
	c-0.05-0.05-0.1-0.088-0.15-0.116c-0.05-0.028-0.1-0.047-0.15-0.059c-0.05-0.012-0.1-0.019-0.15-0.022
	C70.2,75.4,70.15,75.4,70.1,75.4s-0.094,0.006-0.134,0.017c-0.041,0.011-0.078,0.026-0.116,0.045
	c-0.037,0.019-0.075,0.04-0.116,0.064S69.65,75.575,69.6,75.6c-0.025,0.025-0.05,0.062-0.075,0.109
	c-0.025,0.047-0.05,0.103-0.075,0.166c-0.025,0.062-0.05,0.131-0.075,0.203s-0.05,0.147-0.075,0.222
	c-0.025,0.075-0.044,0.169-0.058,0.281c-0.014,0.113-0.024,0.244-0.03,0.394c-0.006,0.15-0.009,0.319-0.011,0.506
	S69.2,77.875,69.2,78.1l0.05,0.45L69.3,79l0.05,0.45L69.4,79.9L69.4,79.9L69.4,79.9L69.4,79.9L69.4,79.9z"/>
<path style="fill:#003366;" d="M75.2,77.3c0-0.275-0.012-0.531-0.039-0.77c-0.027-0.239-0.067-0.461-0.123-0.668
	c-0.056-0.206-0.128-0.397-0.217-0.573c-0.089-0.176-0.196-0.339-0.321-0.489c-0.1-0.125-0.206-0.231-0.32-0.32
	c-0.114-0.089-0.236-0.161-0.368-0.217c-0.131-0.056-0.271-0.097-0.423-0.124C73.238,74.113,73.075,74.1,72.9,74.1
	c-0.15,0-0.294,0.013-0.431,0.039c-0.137,0.027-0.269,0.067-0.394,0.123c-0.125,0.057-0.244,0.129-0.356,0.218
	S71.5,74.675,71.4,74.8c-0.1,0.15-0.194,0.306-0.278,0.472S70.963,75.613,70.9,75.8s-0.112,0.388-0.147,0.603
	C70.719,76.619,70.7,76.85,70.7,77.1s0.013,0.481,0.039,0.697c0.026,0.216,0.067,0.416,0.123,0.603s0.128,0.363,0.217,0.528
	c0.089,0.166,0.195,0.322,0.32,0.472c0.1,0.125,0.206,0.231,0.32,0.32c0.114,0.089,0.236,0.161,0.368,0.217
	c0.131,0.056,0.272,0.097,0.424,0.124C72.662,80.088,72.825,80.1,73,80.1c0.125,0,0.244-0.006,0.358-0.02
	c0.114-0.014,0.224-0.036,0.33-0.068c0.107-0.031,0.21-0.072,0.311-0.123S74.2,79.775,74.3,79.7c0.075-0.075,0.15-0.156,0.224-0.245
	c0.074-0.089,0.146-0.186,0.215-0.292s0.134-0.222,0.195-0.349c0.061-0.127,0.117-0.264,0.167-0.414l-0.3-0.075l-0.3-0.075
	l-0.3-0.075L73.9,78.1c-0.025,0.125-0.062,0.238-0.111,0.336c-0.048,0.099-0.108,0.183-0.176,0.252
	c-0.069,0.069-0.147,0.122-0.233,0.157C73.294,78.881,73.2,78.9,73.1,78.9c-0.075,0-0.144-0.006-0.208-0.02
	c-0.064-0.014-0.123-0.036-0.179-0.068c-0.057-0.031-0.11-0.072-0.161-0.123C72.5,78.638,72.45,78.575,72.4,78.5
	c-0.05-0.05-0.094-0.112-0.131-0.184c-0.038-0.072-0.069-0.153-0.094-0.241c-0.025-0.087-0.044-0.181-0.056-0.278
	C72.106,77.7,72.1,77.6,72.1,77.5h0.775h0.775h0.775H75.2v-0.05V77.4c0,0,0-0.025,0-0.05C75.2,77.325,75.2,77.3,75.2,77.3z
	 M72.1,76.6c0-0.1,0.006-0.2,0.019-0.297c0.012-0.097,0.031-0.191,0.056-0.278s0.056-0.169,0.094-0.241
	c0.037-0.072,0.081-0.134,0.131-0.184c0.05-0.05,0.1-0.094,0.151-0.131s0.104-0.069,0.16-0.094s0.115-0.044,0.179-0.056
	c0.064-0.012,0.133-0.019,0.208-0.019c0.05,0,0.106,0.006,0.164,0.019c0.058,0.012,0.117,0.031,0.174,0.056
	c0.057,0.025,0.11,0.056,0.155,0.094S73.675,75.55,73.7,75.6c0.05,0.05,0.094,0.113,0.131,0.184
	c0.037,0.072,0.069,0.153,0.094,0.241s0.044,0.181,0.056,0.278C73.994,76.4,74,76.5,74,76.6h-0.475H73.05h-0.475H72.1z"/>
<path id="path11735" inkscape:connector-curvature="0" inkscape:export-filename="C:\Users\Charlotte Abel\Documents\Symbology\Components\For Distribution\communications_infrastructure-gray.png" inkscape:export-xdpi="300.00461" inkscape:export-ydpi="300.00461" style="fill:#003366;" d="
	M32.7,27.9c-0.825,0.825-1.562,1.725-2.205,2.684c-0.642,0.959-1.189,1.978-1.632,3.041c-0.444,1.062-0.785,2.169-1.015,3.303
	c-0.23,1.134-0.348,2.297-0.348,3.472s0.119,2.338,0.348,3.472c0.23,1.134,0.57,2.241,1.014,3.303
	c0.444,1.062,0.991,2.081,1.633,3.041s1.38,1.859,2.205,2.684l0.625-0.625l0.625-0.625l0.625-0.625L35.2,50.4
	c-0.675-0.675-1.275-1.406-1.795-2.181c-0.52-0.775-0.961-1.594-1.317-2.444c-0.357-0.85-0.629-1.731-0.811-2.631
	C31.094,42.244,31,41.325,31,40.4c0-0.95,0.094-1.888,0.277-2.8c0.183-0.913,0.455-1.8,0.811-2.65
	c0.356-0.85,0.797-1.662,1.317-2.425c0.52-0.763,1.12-1.475,1.795-2.125l-0.625-0.625L33.95,29.15l-0.625-0.625L32.7,27.9z"/>
<path id="path11737" inkscape:connector-curvature="0" inkscape:export-filename="C:\Users\Charlotte Abel\Documents\Symbology\Components\For Distribution\communications_infrastructure-gray.png" inkscape:export-xdpi="300.00461" inkscape:export-ydpi="300.00461" style="fill:#003366;" d="
	M37.7,33c-0.5,0.5-0.944,1.044-1.328,1.622c-0.384,0.578-0.709,1.191-0.972,1.828s-0.462,1.3-0.597,1.978
	C34.669,39.106,34.6,39.8,34.6,40.5c0,0.7,0.069,1.394,0.203,2.072c0.134,0.678,0.334,1.341,0.597,1.978
	c0.263,0.638,0.588,1.25,0.972,1.828C36.756,46.956,37.2,47.5,37.7,48l0.625-0.625l0.625-0.625l0.625-0.625L40.2,45.5
	c-0.325-0.325-0.619-0.681-0.876-1.062c-0.258-0.381-0.479-0.787-0.66-1.213c-0.182-0.425-0.322-0.869-0.418-1.325
	c-0.095-0.456-0.145-0.925-0.145-1.4c0-0.475,0.05-0.944,0.145-1.4c0.095-0.456,0.236-0.9,0.417-1.325s0.403-0.831,0.661-1.212
	c0.258-0.381,0.552-0.738,0.876-1.063l-0.625-0.625l-0.625-0.625l-0.624-0.625L37.7,33z"/>
<path id="path11739" inkscape:connector-curvature="0" style="fill:#003366;" d="M50.108,27.526
	c0.042-0.042,0.083-0.094,0.121-0.155s0.071-0.132,0.097-0.21c0.026-0.078,0.044-0.164,0.051-0.256s0.002-0.191-0.019-0.295
	l-0.125-0.75l-0.125-0.75l-0.125-0.75l-0.125-0.75c-0.021-0.083-0.047-0.167-0.078-0.249c-0.031-0.082-0.068-0.163-0.109-0.24
	c-0.042-0.078-0.089-0.153-0.141-0.225c-0.052-0.072-0.109-0.139-0.172-0.202c-0.021-0.021-0.042-0.042-0.061-0.062
	c-0.02-0.021-0.038-0.042-0.054-0.062c-0.016-0.021-0.029-0.042-0.038-0.062c-0.009-0.021-0.014-0.042-0.014-0.062L47.9,21.154
	l-1.291-1.291l-1.291-1.291l-1.291-1.291c-0.125-0.125-0.266-0.229-0.413-0.308c-0.147-0.079-0.301-0.134-0.452-0.16
	c-0.151-0.027-0.299-0.024-0.436,0.011c-0.137,0.035-0.262,0.103-0.366,0.207l-0.687,0.687l-0.687,0.687l-0.687,0.687l-0.687,0.687
	c-0.083,0.083-0.141,0.193-0.172,0.319c-0.031,0.126-0.036,0.269-0.016,0.42c0.021,0.151,0.068,0.31,0.141,0.468
	s0.172,0.314,0.297,0.46l1.291,1.27l1.291,1.27l1.291,1.27l1.291,1.27c0.021,0.021,0.042,0.042,0.062,0.061
	c0.021,0.02,0.042,0.038,0.062,0.054c0.021,0.016,0.042,0.029,0.062,0.038c0.021,0.009,0.042,0.014,0.062,0.014
	c0.062,0.062,0.13,0.12,0.202,0.172c0.072,0.052,0.147,0.099,0.226,0.141c0.078,0.042,0.158,0.078,0.24,0.109
	c0.082,0.031,0.165,0.057,0.249,0.078l0.75,0.125l0.75,0.125l0.75,0.125l0.75,0.125c0.104,0.021,0.203,0.031,0.295,0.032
	c0.092,0.001,0.178-0.007,0.256-0.022c0.078-0.016,0.148-0.039,0.21-0.069C50.014,27.604,50.066,27.568,50.108,27.526L50.108,27.526
	L50.108,27.526L50.108,27.526L50.108,27.526z"/>
<path id="path11741" inkscape:connector-curvature="0" style="fill:#003366;" d="M58.272,35.607
	c-0.042,0.042-0.083,0.094-0.121,0.155c-0.038,0.061-0.071,0.132-0.097,0.21c-0.026,0.078-0.045,0.164-0.051,0.256
	c-0.007,0.092-0.001,0.191,0.019,0.295l0.125,0.75l0.125,0.75l0.125,0.75l0.125,0.75c0.021,0.083,0.047,0.167,0.078,0.249
	c0.031,0.082,0.068,0.163,0.109,0.24c0.042,0.078,0.089,0.154,0.141,0.225c0.052,0.072,0.109,0.139,0.172,0.202
	c0.021,0.021,0.042,0.042,0.061,0.062s0.038,0.042,0.053,0.062c0.016,0.021,0.029,0.042,0.038,0.062
	c0.009,0.021,0.014,0.042,0.014,0.062l1.291,1.291l1.291,1.291l1.291,1.291l1.291,1.291c0.125,0.125,0.266,0.229,0.413,0.308
	c0.147,0.079,0.301,0.134,0.451,0.16c0.151,0.026,0.3,0.024,0.436-0.011c0.137-0.035,0.262-0.103,0.366-0.207l0.687-0.687
	l0.687-0.687l0.687-0.687l0.687-0.687c0.083-0.083,0.141-0.193,0.172-0.319c0.031-0.126,0.036-0.269,0.016-0.42
	c-0.021-0.151-0.068-0.31-0.141-0.468c-0.073-0.158-0.172-0.314-0.297-0.46l-1.291-1.291l-1.291-1.291l-1.291-1.291l-1.291-1.291
	c-0.021-0.021-0.042-0.042-0.062-0.061s-0.042-0.038-0.062-0.054c-0.021-0.015-0.042-0.028-0.062-0.037s-0.042-0.014-0.062-0.014
	c-0.062-0.062-0.13-0.12-0.202-0.172s-0.147-0.099-0.225-0.141c-0.078-0.042-0.159-0.078-0.241-0.109
	c-0.082-0.031-0.165-0.057-0.249-0.078l-0.75-0.125l-0.75-0.125l-0.75-0.125l-0.75-0.125c-0.104,0-0.203,0.005-0.296,0.016
	s-0.178,0.026-0.257,0.047c-0.078,0.021-0.148,0.047-0.209,0.078C58.366,35.529,58.314,35.565,58.272,35.607L58.272,35.607
	L58.272,35.607L58.272,35.607L58.272,35.607z"/>
<path id="rect11743" style="fill:#003366;" d="M60.355,32.025l-1.416,1.416l-1.416,1.416l-1.416,1.416L54.69,37.69
	c-0.062,0.062-0.135,0.109-0.213,0.141c-0.078,0.031-0.161,0.047-0.245,0.047s-0.167-0.016-0.245-0.047
	c-0.078-0.031-0.151-0.078-0.213-0.141l-1.416-1.416l-1.416-1.416l-1.416-1.416l-1.416-1.416c-0.062-0.062-0.109-0.135-0.141-0.213
	c-0.031-0.078-0.047-0.161-0.047-0.245c0-0.083,0.016-0.167,0.047-0.245c0.031-0.078,0.078-0.151,0.141-0.213l1.395-1.437
	l1.395-1.437l1.395-1.437l1.395-1.437c0.062-0.062,0.135-0.109,0.213-0.141s0.161-0.047,0.245-0.047s0.167,0.016,0.245,0.047
	s0.151,0.078,0.213,0.141l1.437,1.437l1.437,1.437l1.437,1.437l1.437,1.437c0.062,0.062,0.109,0.135,0.141,0.213
	c0.031,0.078,0.047,0.161,0.047,0.245s-0.016,0.167-0.047,0.245C60.464,31.889,60.417,31.962,60.355,32.025z"/>
<path id="path11747" inkscape:connector-curvature="0" style="fill:#003366;" d="M55.9,14.1v0.8v0.8v0.8v0.8
	c0.825,0,1.644,0.081,2.445,0.241c0.801,0.159,1.586,0.397,2.342,0.709c0.757,0.312,1.485,0.7,2.174,1.159
	C63.55,19.869,64.2,20.4,64.8,21c0.6,0.6,1.131,1.25,1.591,1.939c0.459,0.689,0.847,1.417,1.159,2.173
	c0.312,0.757,0.55,1.541,0.709,2.343c0.159,0.802,0.241,1.62,0.241,2.445h0.8h0.8h0.8h0.8c0-1.05-0.106-2.087-0.311-3.098
	c-0.205-1.011-0.508-1.996-0.902-2.94s-0.878-1.847-1.445-2.695c-0.567-0.848-1.217-1.642-1.942-2.367
	c-0.75-0.775-1.562-1.456-2.425-2.042c-0.862-0.586-1.775-1.077-2.725-1.471c-0.95-0.393-1.938-0.69-2.95-0.889
	C57.987,14.2,56.95,14.1,55.9,14.1L55.9,14.1L55.9,14.1L55.9,14.1L55.9,14.1z"/>
<path id="path11749" inkscape:connector-curvature="0" style="fill:#003366;" d="M55.9,20.4v0.8V22v0.8v0.8
	c0.425,0,0.844,0.044,1.252,0.127s0.805,0.205,1.186,0.361c0.382,0.157,0.747,0.347,1.092,0.567c0.345,0.22,0.67,0.47,0.97,0.745
	c0.3,0.3,0.562,0.625,0.787,0.97c0.225,0.345,0.412,0.711,0.562,1.092c0.15,0.382,0.263,0.778,0.338,1.186
	c0.075,0.408,0.112,0.826,0.112,1.252H63h0.8h0.8h0.8c0-0.625-0.062-1.244-0.184-1.848c-0.122-0.605-0.303-1.195-0.541-1.764
	c-0.238-0.569-0.531-1.116-0.878-1.633S63.05,23.65,62.6,23.2c-0.45-0.45-0.938-0.85-1.455-1.197
	c-0.517-0.347-1.064-0.641-1.633-0.878c-0.569-0.237-1.16-0.419-1.764-0.541C57.144,20.462,56.525,20.4,55.9,20.4z"/>
<polygon style="fill:#003366;" points="45.2,36.5 45.2,36.5 45.2,36.5 45.2,36.5 45.2,36.5 45.2,36.5 "/>
<path style="fill:#003366;" d="M47.9,43.4c0.2-0.2,0.381-0.412,0.541-0.636c0.159-0.223,0.297-0.458,0.409-0.701
	c0.112-0.244,0.2-0.497,0.259-0.758c0.059-0.261,0.091-0.53,0.091-0.805c0-0.55-0.112-1.075-0.316-1.553s-0.497-0.909-0.859-1.272
	c-0.363-0.362-0.794-0.656-1.272-0.859C46.275,36.612,45.75,36.5,45.2,36.5s-1.075,0.112-1.553,0.316
	c-0.478,0.203-0.909,0.497-1.272,0.859c-0.362,0.363-0.656,0.794-0.859,1.272S41.2,39.95,41.2,40.5l0,0l0,0l0,0l0,0
	c0,0.275,0.031,0.55,0.091,0.819c0.059,0.269,0.147,0.531,0.259,0.781s0.25,0.487,0.409,0.706S42.3,43.225,42.5,43.4l-1.8,6.425
	l-1.8,6.425l-1.8,6.425L35.3,69.1h0.825h0.825h0.825H38.6l0.325-1.125l0.325-1.125l0.325-1.125L39.9,64.6h2.675h2.675h2.675H50.6
	l0.325,1.125l0.325,1.125l0.325,1.125L51.9,69.1h0.825h0.825h0.825H55.2l-1.825-6.425L51.55,56.25l-1.825-6.425L47.9,43.4z
	 M45.2,45.7l0.45,1.6l0.45,1.6l0.45,1.6L47,52.1h-0.9h-0.9h-0.9h-0.9l0.45-1.6l0.45-1.6l0.45-1.6L45.2,45.7z M42.7,54.7h1.25h1.25
	h1.25h1.25l-1.5,0.925l-1.5,0.925l-1.5,0.925L41.7,58.4l0.25-0.925l0.25-0.925l0.25-0.925L42.7,54.7z M42.4,61.2l1.525-0.95
	l1.525-0.95l1.525-0.95L48.5,57.4l0.275,0.95l0.275,0.95l0.275,0.95L49.6,61.2h-1.8H46h-1.8H42.4z"/>
</svg>
