<?xml version="1.0" encoding="utf-8"?>
<!-- Generator: Adobe Illustrator 25.2.0, SVG Export Plug-In . SVG Version: 6.00 Build 0)  -->
<svg version="1.1" id="Layer_1" xmlns="http://www.w3.org/2000/svg" xmlns:xlink="http://www.w3.org/1999/xlink" x="0px" y="0px"
	 viewBox="0 0 100 100" style="enable-background:new 0 0 100 100;" xml:space="preserve">
<path d="M91.1,45.3h-0.1c-0.8,0-1.5,0.7-1.5,1.5v3.7h-7.6v-3.7c0-0.8-0.7-1.5-1.5-1.5h-0.1c-0.8,0-1.5,0.7-1.5,1.5v3.7H71v-3.7
	c0-0.8-0.7-1.5-1.5-1.5h-0.1c-0.8,0-1.5,0.7-1.5,1.5v3.7h-7.6v-3.7c0-0.8-0.7-1.5-1.5-1.5h-0.1c-0.8,0-1.5,0.7-1.5,1.5v3.7h-5.4
	c-0.8-1.2-2.2-2-3.8-2c-0.4,0-0.7,0.1-1.1,0.1l-5-4.6l2.4-2.6c0.6-0.6,0.5-1.6-0.1-2.1l-0.1-0.1c-0.6-0.6-1.6-0.5-2.1,0.1l-2.4,2.6
	l-5.5-5.1l2.4-2.6c0.6-0.6,0.5-1.6-0.1-2.1L36.1,32c-0.6-0.6-1.6-0.5-2.1,0.1l-2.4,2.6L26,29.7l2.4-2.6c0.6-0.6,0.5-1.6-0.1-2.1
	l-0.1-0.1c-0.6-0.6-1.6-0.5-2.1,0.1l-2.4,2.6l-5.5-5.1l2.4-2.6c0.6-0.6,0.5-1.6-0.1-2.1l-0.1-0.1c-0.6-0.6-1.6-0.5-2.1,0.1l-7.7,8.4
	c-0.6,0.6-0.5,1.6,0.1,2.1l0.1,0.1c0.6,0.6,1.6,0.5,2.1-0.1l2.5-2.7l5.5,5.1l-2.5,2.7c-0.6,0.6-0.5,1.6,0.1,2.1l0.1,0.1
	c0.6,0.6,1.6,0.5,2.1-0.1l2.5-2.7l5.5,5.1l-2.5,2.7c-0.6,0.6-0.5,1.6,0.1,2.1l0.1,0.1c0.6,0.6,1.6,0.5,2.1-0.1l2.5-2.7l5.5,5.1
	l-2.5,2.7c-0.6,0.6-0.5,1.6,0.1,2.1l0.1,0.1c0.6,0.6,1.6,0.5,2.1-0.1l2.5-2.7l4.7,4.3c-0.2,0.4-0.3,0.9-0.3,1.3l-4.6,3.1l-2-2.9
	c-0.5-0.7-1.4-0.9-2.1-0.4l-0.1,0.1c-0.7,0.5-0.9,1.4-0.4,2.1l2,2.9l-6.2,4.2l-2-2.9c-0.5-0.7-1.4-0.9-2.1-0.4l-0.1,0.1
	C25,59,24.8,60,25.3,60.7l2,2.9l-6.2,4.2l-2-2.9c-0.5-0.7-1.4-0.9-2.1-0.4l-0.1,0.1C16.2,65,16,66,16.5,66.6l2,2.9l-6.2,4.2l-2-2.9
	c-0.5-0.7-1.4-0.9-2.1-0.4l-0.1,0.1c-0.7,0.5-0.9,1.4-0.4,2.1l6.4,9.5c0.5,0.7,1.4,0.9,2.1,0.4l0.1-0.1c0.7-0.5,0.9-1.4,0.4-2.1
	l-2.1-3.1l6.2-4.2l2.1,3.1c0.5,0.7,1.4,0.9,2.1,0.4l0.1-0.1c0.7-0.5,0.9-1.4,0.4-2.1l-2.1-3.1l6.2-4.2l2.1,3.1
	c0.5,0.7,1.4,0.9,2.1,0.4l0.1-0.1c0.7-0.5,0.9-1.4,0.4-2.1l-2.1-3.1l6.2-4.2l2.1,3.1c0.5,0.7,1.4,0.9,2.1,0.4l0.1-0.1
	c0.7-0.5,0.9-1.4,0.4-2.1L41,59.4l4-2.7c0.8,0.6,1.7,0.9,2.7,0.9c1.9,0,3.6-1.2,4.2-2.9H57v3.5c0,0.8,0.7,1.5,1.5,1.5h0.1
	c0.8,0,1.5-0.7,1.5-1.5v-3.5h7.6v3.5c0,0.8,0.7,1.5,1.5,1.5h0.1c0.8,0,1.5-0.7,1.5-1.5v-3.5h7.6v3.5c0,0.8,0.7,1.5,1.5,1.5h0.1
	c0.8,0,1.5-0.7,1.5-1.5v-3.5h7.6v3.5c0,0.8,0.7,1.5,1.5,1.5h0.1c0.8,0,1.5-0.7,1.5-1.5V46.8C92.6,46,91.9,45.3,91.1,45.3z"/>
</svg>
