<?xml version="1.0" encoding="utf-8"?>
<!-- Generator: Adobe Illustrator 25.2.0, SVG Export Plug-In . SVG Version: 6.00 Build 0)  -->
<svg version="1.1" id="Layer_1" xmlns="http://www.w3.org/2000/svg" xmlns:xlink="http://www.w3.org/1999/xlink" x="0px" y="0px"
	 viewBox="0 0 100 100" style="enable-background:new 0 0 100 100;" xml:space="preserve">
<path d="M50,18.4c-18.2,0-32.9,14.2-32.9,31.6S31.8,81.6,50,81.6c18.2,0,32.9-14.2,32.9-31.6S68.2,18.4,50,18.4z M35.3,24.1
	c21.3-11.8,43.8,7,44.4,19.7c0.6,13-9.8,15.6-17.5,13c-7.7-2.5-7.2-7.4-6.8-15.7c0.4-8.3-3.6-10.2-7-13c-2.8-2.3-10.1-3.1-13-3.3
	C35.1,24.7,35,24.3,35.3,24.1z M32.7,74.7c-20.1-13-14-39.7-3.2-46.4c11.1-6.8,18.3,1.1,19.8,9.1c1.5,7.9-3.1,9.9-10.5,13.5
	c-7.5,3.6-7.2,8-8.1,12.4c-0.6,3.3,1.5,8.4,2.7,10.8C33.6,74.5,33.1,74.9,32.7,74.7z M38.7,77.3c-10.7-7.3-7-16.5-0.3-21.1
	c6.6-4.6,11,0,16.1,3c12.7,7.3,22.6-4.2,25.2-7.7c0.2-0.3,0.7-0.1,0.7,0.2C80.5,77.6,49.3,84.6,38.7,77.3z"/>
</svg>
