<?xml version="1.0" encoding="utf-8"?>
<!-- Generator: Adobe Illustrator 25.2.0, SVG Export Plug-In . SVG Version: 6.00 Build 0)  -->
<svg version="1.1" id="Layer_1" xmlns="http://www.w3.org/2000/svg" xmlns:xlink="http://www.w3.org/1999/xlink" x="0px" y="0px"
	 viewBox="0 0 100 100" style="enable-background:new 0 0 100 100;" xml:space="preserve">
<path d="M22.6,44.4l-6.7,0l0-4.5l6.7,0L22.6,44.4z M16.9,43.4l4.7,0l0-2.5l-4.7,0L16.9,43.4z"/>
<path d="M44.2,44.3l-6.7,0l0-4.5l6.7,0L44.2,44.3z M38.5,43.3l4.7,0l0-2.5l-4.7,0L38.5,43.3z"/>
<path d="M42.6,27.9c-1.8-1.8-5.8-4.7-12.1-4.7c-0.3,0-0.6,0-0.9,0c-10.9,0.4-14.4,8.1-14.4,8.8c0,0.4,0,5.9,0,11.6
	c0,7,0,14.8,0,15.2c0,0.6,2.6,2.8,3.3,2.8c0,0,0,0,0,0c0,0,0.1,0,0.2,0c0.6,0,2.5,0,5,0.1c5.8,0.1,14.6,0.2,16.8,0.1
	c3.2-0.1,4.6-3.4,4.6-4.7c0-1.3,0.3-22.9,0.3-24.7C45.4,31.6,44.5,29.7,42.6,27.9z M39.2,26.4c0,0,6,2,4.5,8.4l-4.8-3.2L39.2,26.4z
	 M22.8,25.8c0,0,5.2-1.4,8.1-1.4c2.9,0,6.8,1.4,6.8,1.4l0,5.3c0,0-4.6-1.6-7.3-1.5c-3,0.1-7.7,1.8-7.7,1.8L22.8,25.8z M16.8,31.1
	c1-1.3,2.4-3.2,4.6-5l0.2,5.8l-5.3,3.5C16.4,35.4,15.8,32.4,16.8,31.1z M43.7,57.2L16,57.1c0,0,0.2-17.8,0.3-18.5
	c0-0.8,5-7.7,14.3-7.7S44,37.5,44,38S43.7,57.2,43.7,57.2z"/>
<path d="M30.3,42.4c-2.5,0-4.5-2-4.5-4.5c0-2.5,2-4.5,4.5-4.5s4.5,2,4.5,4.5C34.8,40.4,32.8,42.4,30.3,42.4z M30.3,34.4
	c-1.9,0-3.5,1.6-3.5,3.5s1.6,3.5,3.5,3.5s3.5-1.6,3.5-3.5S32.2,34.4,30.3,34.4z"/>
<polygon points="37.7,60.9 51.4,81.7 46.3,81.7 33.8,60.9 "/>
<polygon points="26.3,60.9 15,81.7 9.2,81.7 22.6,60.9 "/>
<polygon points="85.6,18.3 85.6,61.6 48.2,61.6 48.2,64.7 58,64.7 58,74 85.6,74 90.8,74 90.8,63.8 90.8,18.3 "/>
<polygon points="51.8,41.8 47.4,45.4 51.8,49 "/>
<rect x="52.7" y="44.3" width="6.6" height="2.2"/>
<ellipse cx="69.4" cy="24.2" rx="3" ry="2.9"/>
<path d="M67.9,30.2c0,0,0.8-2,2.5-1.9c1.7,0.1,2.8,1.3,2.8,1.3l6,4.8c0,0,1,0.8,1.1,2c0.1,1.1,1,5.2,1,5.2s0.2,1.2-0.8,1.4
	s-1.7-1.3-1.7-1.3s-1.1-4.6-1.2-5c-0.1-0.4-3.1-2.5-3.4-2.6s3.8,15.9,3.8,15.9l4.9,7.7c0,0,0.4,1.4-0.6,2c-1.1,0.5-2.4,0-2.8-0.4
	c-0.4-0.5-4.8-7.7-4.8-7.7l-1.8-6c0,0-0.8-0.3-1.1,0S67.1,51,67.1,51l-1.4,7.2c0,0-0.6,1.8-2.5,1.6s-0.5-6.5-0.5-6.5l1-4.2l6-6.7
	c0,0-0.7-5.8-1.3-6.8c-0.7-1.1-1.4,2-2.9,3s-4.9,3.1-4.9,3.1s-0.8,0.6-1.4-0.3s-0.1-1.7,0.6-2.1c0.6-0.4,4.6-3.3,4.6-3.3L67.9,30.2z
	"/>
</svg>
