<?xml version="1.0" encoding="utf-8"?>
<!-- Generator: Adobe Illustrator 25.2.0, SVG Export Plug-In . SVG Version: 6.00 Build 0)  -->
<svg version="1.1" id="Layer_1" xmlns="http://www.w3.org/2000/svg" xmlns:xlink="http://www.w3.org/1999/xlink" x="0px" y="0px"
	 viewBox="0 0 100 100" style="enable-background:new 0 0 100 100;" xml:space="preserve">
<path d="M22.2,44.6l-6.7,0l0-4.5l6.7,0L22.2,44.6z M16.5,43.5l4.7,0l0-2.5l-4.7,0L16.5,43.5z"/>
<path d="M43.9,44.5l-6.7,0l0-4.5l6.7,0L43.9,44.5z M38.2,43.4l4.7,0l0-2.5l-4.7,0L38.2,43.4z"/>
<path d="M42.3,28.1c-1.8-1.8-5.8-4.7-12.1-4.7c-0.3,0-0.6,0-0.9,0c-10.9,0.4-14.4,8.1-14.4,8.8c0,0.4,0,5.9,0,11.6
	c0,7,0,14.8,0,15.2c0,0.6,2.6,2.8,3.3,2.8c0,0,0,0,0,0c0,0,0.1,0,0.2,0c0.6,0,2.5,0,5,0.1c5.8,0.1,14.6,0.2,16.8,0.1
	c3.2-0.1,4.6-3.4,4.6-4.7c0-1.3,0.3-22.9,0.3-24.7C45.1,31.8,44.1,29.9,42.3,28.1z M38.8,26.6c0,0,6,2,4.5,8.4l-4.8-3.2L38.8,26.6z
	 M22.4,26c0,0,5.2-1.4,8.1-1.4c2.9,0,6.8,1.4,6.8,1.4l0,5.3c0,0-4.6-1.6-7.3-1.5c-3,0.1-7.7,1.8-7.7,1.8L22.4,26z M16.4,31.3
	c1-1.3,2.4-3.2,4.6-5l0.2,5.8L16,35.5C16,35.5,15.4,32.6,16.4,31.3z M43.4,57.3l-27.8-0.1c0,0,0.2-17.8,0.3-18.5
	c0-0.8,5-7.7,14.3-7.7s13.5,6.6,13.4,7.1S43.4,57.3,43.4,57.3z"/>
<path d="M29.9,42.5c-2.5,0-4.5-2-4.5-4.5c0-2.5,2-4.5,4.5-4.5s4.5,2,4.5,4.5C34.4,40.5,32.4,42.5,29.9,42.5z M29.9,34.5
	c-1.9,0-3.5,1.6-3.5,3.5s1.6,3.5,3.5,3.5s3.5-1.6,3.5-3.5S31.9,34.5,29.9,34.5z"/>
<polygon points="37.3,61.1 51,81.9 45.9,81.9 33.4,61.1 "/>
<polygon points="26,61.1 14.6,81.9 8.8,81.9 22.3,61.1 "/>
<polygon points="51.4,42 47.1,45.6 51.4,49.2 "/>
<ellipse cx="69.3" cy="24.6" rx="3" ry="2.9"/>
<path d="M67.8,30.6c0,0,0.8-2,2.5-1.9c1.7,0.1,2.8,1.3,2.8,1.3l6,4.8c0,0,1,0.8,1.1,2c0.1,1.1,1,5.2,1,5.2s0.2,1.2-0.8,1.4
	S78.8,42,78.8,42s-1.1-4.6-1.2-5c-0.1-0.4-3.1-2.5-3.4-2.6S78,50.3,78,50.3l4.9,7.7c0,0,0.4,1.4-0.6,2c-1.1,0.5-2.4,0-2.8-0.4
	c-0.4-0.5-4.8-7.7-4.8-7.7l-1.8-6c0,0-0.8-0.3-1.1,0S67,51.4,67,51.4l-1.4,7.2c0,0-0.6,1.8-2.5,1.6c-1.8-0.2-0.5-6.5-0.5-6.5l1-4.2
	l6-6.7c0,0-0.7-5.8-1.3-6.8c-0.7-1.1-1.4,2-2.9,3c-1.4,1-4.9,3.1-4.9,3.1s-0.8,0.6-1.4-0.3c-0.6-0.9-0.1-1.7,0.6-2.1
	c0.6-0.4,4.6-3.3,4.6-3.3L67.8,30.6z"/>
<polygon points="86,18.1 86,61.4 48.5,61.4 48.5,64.6 58.3,64.6 58.3,73.8 86,73.8 91.2,73.8 91.2,63.6 91.2,18.1 "/>
<rect x="53" y="44.2" width="6.6" height="2.2"/>
</svg>
