<?xml version="1.0" encoding="utf-8"?>
<!-- Generator: Adobe Illustrator 25.2.0, SVG Export Plug-In . SVG Version: 6.00 Build 0)  -->
<svg version="1.1" id="Layer_1" xmlns="http://www.w3.org/2000/svg" xmlns:xlink="http://www.w3.org/1999/xlink" x="0px" y="0px"
	 viewBox="0 0 100 100" style="enable-background:new 0 0 100 100;" xml:space="preserve">
<path d="M22.6,44.6l-6.7,0l0-4.5l6.7,0L22.6,44.6z M16.9,43.5l4.7,0l0-2.5l-4.7,0L16.9,43.5z"/>
<path d="M44.2,44.5l-6.7,0l0-4.5l6.7,0L44.2,44.5z M38.5,43.5l4.7,0l0-2.5l-4.7,0L38.5,43.5z"/>
<path d="M42.6,28.1c-1.8-1.8-5.8-4.7-12.1-4.7c-0.3,0-0.6,0-0.9,0c-10.9,0.4-14.4,8.1-14.4,8.8c0,0.4,0,5.9,0,11.6
	c0,7,0,14.8,0,15.2c0,0.6,2.6,2.8,3.3,2.8c0,0,0,0,0,0c0,0,0.1,0,0.2,0c0.6,0,2.5,0,5,0.1c5.8,0.1,14.6,0.2,16.8,0.1
	c3.2-0.1,4.6-3.4,4.6-4.7c0-1.3,0.3-22.9,0.3-24.7C45.4,31.8,44.5,29.9,42.6,28.1z M39.2,26.6c0,0,6,2,4.5,8.4l-4.8-3.2L39.2,26.6z
	 M22.8,26c0,0,5.2-1.4,8.1-1.4c2.9,0,6.8,1.4,6.8,1.4l0,5.3c0,0-4.6-1.6-7.3-1.5c-3,0.1-7.7,1.8-7.7,1.8L22.8,26z M16.8,31.3
	c1-1.3,2.4-3.2,4.6-5l0.2,5.8l-5.3,3.5C16.4,35.5,15.8,32.6,16.8,31.3z M43.7,57.4L16,57.3c0,0,0.2-17.8,0.3-18.5
	c0-0.8,5-7.7,14.3-7.7S44,37.7,44,38.1S43.7,57.4,43.7,57.4z"/>
<path d="M30.3,42.6c-2.5,0-4.5-2-4.5-4.5c0-2.5,2-4.5,4.5-4.5s4.5,2,4.5,4.5C34.8,40.5,32.8,42.6,30.3,42.6z M30.3,34.5
	c-1.9,0-3.5,1.6-3.5,3.5s1.6,3.5,3.5,3.5s3.5-1.6,3.5-3.5S32.2,34.5,30.3,34.5z"/>
<polygon points="37.7,61.1 51.4,81.9 46.3,81.9 33.8,61.1 "/>
<polygon points="26.3,61.1 15,81.9 9.2,81.9 22.6,61.1 "/>
<polygon points="51.8,42 47.4,45.6 51.8,49.2 "/>
<polygon points="85.6,18.1 85.6,61.4 48.2,61.4 48.2,64.6 58,64.6 58,73.8 85.6,73.8 90.8,73.8 90.8,63.6 90.8,18.1 "/>
<polygon points="51.8,41.7 47.4,45.3 51.8,48.9 "/>
<rect x="52.7" y="44.1" width="6.6" height="2.2"/>
<rect x="61.4" y="36.3" style="fill:#333333;" width="19.8" height="22.4"/>
</svg>
