<?xml version="1.0" encoding="utf-8"?>
<!-- Generator: Adobe Illustrator 25.2.0, SVG Export Plug-In . SVG Version: 6.00 Build 0)  -->
<svg version="1.1" id="Layer_1" xmlns="http://www.w3.org/2000/svg" xmlns:xlink="http://www.w3.org/1999/xlink" x="0px" y="0px"
	 viewBox="0 0 100 100" style="enable-background:new 0 0 100 100;" xml:space="preserve">
<path d="M61.3,19.6c0,0-9.8,0-20.8,0c-11.1,0-16.6,7.2-16.6,7.2V63c0,2.4,2,4.4,4.4,4.4h43.4c2.4,0,4.4-2,4.4-4.4V26.8
	C71.4,20,61.3,19.6,61.3,19.6z M34,63.4c-2.6,0-4.8-2-4.8-4.5c0-2.5,2.1-4.5,4.8-4.5s4.8,2,4.8,4.5C38.8,61.4,36.7,63.4,34,63.4z
	 M66.4,63.4c-2.6,0-4.8-2-4.8-4.5c0-2.5,2.1-4.5,4.8-4.5s4.8,2,4.8,4.5C71.1,61.4,69,63.4,66.4,63.4z M74.7,44
	c0,2.1-1.7,3.8-3.8,3.8H29.8c-2.1,0-3.8-1.7-3.8-3.8V31.7c0-2.1,1.7-3.8,3.8-3.8h41.1c2.1,0,3.8,1.7,3.8,3.8V44z"/>
<polygon points="32.5,71.1 37.4,71.1 32.5,80.4 24.4,80.4 "/>
<polygon points="63.2,71.1 67.8,71.1 75.3,80.4 68.4,80.4 "/>
</svg>
