<?xml version="1.0" encoding="utf-8"?>
<!-- Generator: Adobe Illustrator 25.2.0, SVG Export Plug-In . SVG Version: 6.00 Build 0)  -->
<svg version="1.1" id="Layer_1" xmlns="http://www.w3.org/2000/svg" xmlns:xlink="http://www.w3.org/1999/xlink" x="0px" y="0px"
	 viewBox="0 0 100 100" style="enable-background:new 0 0 100 100;" xml:space="preserve">
<path d="M89.4,40.5L89.4,40.5c-0.9,0-1.7,0.7-1.7,1.7v4.3h-8v-4.3c0-0.9-0.7-1.7-1.7-1.7c-0.9,0-1.7,0.7-1.7,1.7v4.3h-8v-4.3
	c0-0.9-0.7-1.7-1.7-1.7l0,0c-0.9,0-1.7,0.7-1.7,1.7v4.3h-8v-4.3c0-0.9-0.7-1.7-1.7-1.7S54,41.3,54,42.2v4.3h-8v-4.3
	c0-0.9-0.7-1.7-1.7-1.7s-1.7,0.7-1.7,1.7v4.3h-8v-4.3c0-0.9-0.7-1.7-1.7-1.7c-0.9,0-1.7,0.7-1.7,1.7v4.3h-8v-4.3
	c0-0.9-0.7-1.7-1.7-1.7c-0.9,0-1.7,0.7-1.7,1.7v4.3h-8v-4.3c0-0.9-0.7-1.7-1.7-1.7s-1.7,0.7-1.7,1.7v13.2c0,0.9,0.7,1.7,1.7,1.7
	s1.7-0.7,1.7-1.7v-4.1h8v4.1c0,0.9,0.7,1.7,1.7,1.7c0.9,0,1.7-0.7,1.7-1.7v-4.1h8v4.1c0,0.9,0.7,1.7,1.7,1.7c0.9,0,1.7-0.7,1.7-1.7
	v-4.1h8v4.1c0,0.9,0.7,1.7,1.7,1.7s1.7-0.7,1.7-1.7v-4.1h8v4.1c0,0.9,0.7,1.7,1.7,1.7s1.7-0.7,1.7-1.7v-4.1h8v4.1
	c0,0.9,0.7,1.7,1.7,1.7l0,0c0.9,0,1.7-0.7,1.7-1.7v-4.1h8v4.1c0,0.9,0.7,1.7,1.7,1.7c0.9,0,1.7-0.7,1.7-1.7v-4.1h8v4.1
	c0,0.9,0.7,1.7,1.7,1.7h0c0.9,0,1.7-0.7,1.7-1.7V42.2C91.1,41.3,90.4,40.5,89.4,40.5z"/>
<polygon points="76.5,34.1 88.3,20 83.6,16.1 71.6,30.9 28,30.9 16.3,16.1 11.3,19.6 23,34.1 "/>
<polygon points="22.9,65.9 11.3,80.4 16.2,83.9 27.9,69.1 71.2,69.1 83.1,83.9 87.8,80 76.1,65.9 "/>
</svg>
