<?xml version="1.0" encoding="utf-8"?>
<!-- Generator: Adobe Illustrator 25.2.0, SVG Export Plug-In . SVG Version: 6.00 Build 0)  -->
<svg version="1.1" id="Layer_1" xmlns="http://www.w3.org/2000/svg" xmlns:xlink="http://www.w3.org/1999/xlink" x="0px" y="0px"
	 viewBox="0 0 100 100" style="enable-background:new 0 0 100 100;" xml:space="preserve">
<path d="M90.3,63.6c-0.9,0-1.6,0.7-1.6,1.6l0,2.5c0,0-2.6-3-8.3-4.8c-1.9-0.6-6.2-2-11.5-4l1.7-4.6c0.3-0.8-0.1-1.8-1-2.1l0,0
	c-0.8-0.3-1.8,0.1-2.1,1l-1.8,4.6c-2.7-1-5.6-2.1-8.5-3.3l1.5-3.4c0.4-0.8,0-1.8-0.8-2.2l0,0c-0.8-0.4-1.8,0-2.2,0.8l-1.5,3.5
	c-2.5-1-4.9-2.1-7.2-3.1l1.8-3.8c0.4-0.8,0.1-1.8-0.8-2.2c-0.8-0.4-1.8-0.1-2.2,0.8l-1.9,3.8c-2.8-1.3-5.2-2.6-7.1-3.8
	c0,0-0.1-0.1-0.1-0.1l2.4-3.5c0.5-0.8,0.3-1.8-0.4-2.3c-0.8-0.5-1.8-0.3-2.3,0.4l-2.4,3.6c-2.3-1.5-4.6-3.1-6.7-4.7l1.7-2.4
	c0.5-0.7,0.4-1.8-0.4-2.3c-0.7-0.5-1.8-0.4-2.3,0.4l-1.7,2.3c-3.3-2.5-6-4.7-7.3-5.8h13.4v4.1c0,0.9,0.7,1.7,1.7,1.7
	c0.9,0,1.7-0.7,1.7-1.7v-4.1h8v4.1c0,0.9,0.7,1.7,1.7,1.7s1.7-0.7,1.7-1.7v-4.1h8v4.1c0,0.9,0.7,1.7,1.7,1.7c0.9,0,1.7-0.7,1.7-1.7
	v-4.1h8v4.1c0,0.9,0.7,1.7,1.7,1.7c0.9,0,1.7-0.7,1.7-1.7v-4.1h8v4.1c0,0.9,0.7,1.7,1.7,1.7s1.7-0.7,1.7-1.7v-4.1h8v4.1
	c0,0.9,0.7,1.7,1.7,1.7s1.7-0.7,1.7-1.7V21.6c0-0.9-0.7-1.7-1.7-1.7S87,20.7,87,21.6v4.3h-8v-4.3c0-0.9-0.7-1.7-1.7-1.7
	s-1.7,0.7-1.7,1.7v4.3h-8v-4.3c0-0.9-0.7-1.7-1.7-1.7c-0.9,0-1.7,0.7-1.7,1.7v4.3h-8v-4.3c0-0.9-0.7-1.7-1.7-1.7
	c-0.9,0-1.7,0.7-1.7,1.7v4.3h-8v-4.3c0-0.9-0.7-1.7-1.7-1.7s-1.7,0.7-1.7,1.7v4.3h-8v-4.3c0-0.9-0.7-1.7-1.7-1.7
	c-0.9,0-1.7,0.7-1.7,1.7v4.3h-8v-4.3c0-0.9-0.7-1.7-1.7-1.7c-0.9,0-1.7,0.7-1.7,1.7v4.3h-8v-4.3c0-0.9-0.7-1.7-1.7-1.7
	s-1.7,0.7-1.7,1.7v13.2c0,0.9,0.7,1.7,1.7,1.7s1.7-0.7,1.7-1.7v-3.3c2,2,5.7,5.4,10.2,9l-2.4,3.2c-0.5,0.7-0.4,1.8,0.4,2.3l0,0
	c0.7,0.5,1.8,0.4,2.3-0.4l2.3-3.2c2.2,1.6,4.5,3.3,6.8,4.7l-2.2,3.2c-0.5,0.8-0.3,1.8,0.4,2.3l0,0c0.8,0.5,1.8,0.3,2.3-0.4l2.4-3.4
	c1.1,0.6,2.2,1.1,3.2,1.6c1.5,0.7,3.1,1.4,4.9,2.1L40,56.9c-0.4,0.8-0.1,1.8,0.8,2.2c0.8,0.4,1.8,0.1,2.2-0.8l2.2-4.5
	c2.4,1,4.9,1.9,7.4,2.9l-2.1,4.9c-0.4,0.8,0,1.8,0.8,2.2l0,0c0.8,0.4,1.8,0,2.2-0.8l2.2-5c3.1,1.2,6,2.3,8.8,3.3l-1.5,4
	c-0.3,0.8,0.1,1.8,1,2.1l0,0c0.8,0.3,1.8-0.1,2.1-1l1.5-4c5.1,1.9,8.6,3.1,8.6,3.1s7.5,2.4,8,4.1H58.4v-4.3c0-0.9-0.7-1.6-1.6-1.6
	s-1.6,0.7-1.6,1.6v4.3h-7.9v-4.3c0-0.9-0.7-1.6-1.6-1.6c-0.9,0-1.6,0.7-1.6,1.6v4.3h-7.9v-4.3c0-0.9-0.7-1.6-1.6-1.6
	c-0.9,0-1.6,0.7-1.6,1.6v4.3H25v-4.3c0-0.9-0.7-1.6-1.6-1.6s-1.6,0.7-1.6,1.6v4.3h-7.9v-4.3c0-0.9-0.7-1.6-1.6-1.6s-1.6,0.7-1.6,1.6
	v13.2c0,0.9,0.7,1.6,1.6,1.6s1.6-0.7,1.6-1.6v-4.1h7.9v4.1c0,0.9,0.7,1.6,1.6,1.6s1.6-0.7,1.6-1.6v-4.1h7.9v4.1
	c0,0.9,0.7,1.6,1.6,1.6c0.9,0,1.6-0.7,1.6-1.6v-4.1H44v4.1c0,0.9,0.7,1.6,1.6,1.6c0.9,0,1.6-0.7,1.6-1.6v-4.1h7.9v4.1
	c0,0.9,0.7,1.6,1.6,1.6s1.6-0.7,1.6-1.6v-4.1h7.9v4.1c0,0.9,0.7,1.6,1.6,1.6s1.6-0.7,1.6-1.6v-4.1h7.9v4.1c0,0.9,0.7,1.6,1.6,1.6
	s1.6-0.7,1.6-1.6v-4.1h7.9v4.1c0,0.9,0.7,1.6,1.6,1.6s1.6-0.7,1.6-1.6V65.2C91.9,64.3,91.2,63.6,90.3,63.6z"/>
</svg>
