<?xml version="1.0" encoding="iso-8859-1"?>
<!-- Generator: Adobe Illustrator 25.2.3, SVG Export Plug-In . SVG Version: 6.00 Build 0)  -->
<svg version="1.1" id="Layer_1" xmlns="http://www.w3.org/2000/svg" xmlns:xlink="http://www.w3.org/1999/xlink" x="0px" y="0px"
	 viewBox="0 0 100 100" style="enable-background:new 0 0 100 100;" xml:space="preserve">
<g id="Layer_2_1_">
	<g id="Layer_2-2">
		<path d="M16.38,24.19c-0.115-0.006-0.228-0.032-0.333-0.076c-0.104-0.044-0.202-0.106-0.287-0.184
			c-0.217-0.171-0.343-0.414-0.373-0.668s0.038-0.52,0.209-0.736c0.001-0.001,0.001-0.002,0.002-0.003
			c0.001-0.001,0.001-0.002,0.002-0.003c7.56-9.512,18.26-15.059,29.447-16.338s22.863,1.71,32.375,9.27
			c1.213,0.964,2.372,1.99,3.475,3.075s2.148,2.227,3.132,3.424c0.175,0.213,0.248,0.477,0.223,0.732
			c-0.025,0.255-0.147,0.5-0.36,0.675l-0.001,0.001L83.89,23.36c-0.213,0.173-0.476,0.243-0.729,0.218
			c-0.253-0.025-0.497-0.147-0.671-0.358C75.124,14.261,64.825,9.136,54.127,8.092s-21.794,1.993-30.753,9.359
			c-1.144,0.941-2.237,1.941-3.274,2.995c-1.037,1.054-2.019,2.164-2.94,3.324c-0.09,0.127-0.207,0.229-0.341,0.301
			C16.686,24.143,16.536,24.185,16.38,24.19z"/>
		<path d="M50.04,94.07c-6.712,0.014-13.242-1.512-19.134-4.359S19.76,82.697,15.6,77.43c-0.19-0.201-0.28-0.459-0.272-0.715
			s0.112-0.509,0.313-0.698c0.201-0.189,0.459-0.28,0.715-0.272c0.256,0.007,0.509,0.112,0.698,0.313
			c0.019,0.021,0.038,0.042,0.056,0.064s0.034,0.045,0.05,0.069c7.214,9.082,17.426,14.379,28.104,15.603
			c10.679,1.224,21.825-1.626,30.906-8.84c1.16-0.921,2.269-1.903,3.324-2.94c1.055-1.037,2.055-2.13,2.995-3.274
			c0.175-0.211,0.418-0.333,0.671-0.358c0.253-0.025,0.516,0.045,0.729,0.218c0.214,0.175,0.337,0.419,0.363,0.674
			c0.026,0.255-0.046,0.519-0.22,0.733c0,0.001-0.001,0.001-0.001,0.001l-0.001,0.001c-4.174,5.09-9.381,9.108-15.189,11.852
			S56.622,94.077,50.04,94.07z"/>
		<path d="M55.87,42.04l-10.34-3.055L35.19,35.93c-3.049-0.427-5.983,0.423-8.261,2.141s-3.9,4.306-4.327,7.355
			c-0.349,2.49,0.158,4.943,1.329,7.021c1.171,2.078,3.008,3.781,5.319,4.772l10.31,3.19l10.31,3.19
			c2.947,0.912,5.984,0.543,8.513-0.79c2.529-1.333,4.549-3.631,5.461-6.578c0.912-2.947,0.543-5.984-0.79-8.513
			s-3.631-4.549-6.578-5.461c-0.1-0.031-0.201-0.061-0.302-0.089c-0.101-0.028-0.202-0.055-0.304-0.08v-0.025V42.04z M50.38,61.79
			c-2.485-0.691-4.454-2.324-5.63-4.406c-1.175-2.081-1.557-4.611-0.866-7.096c0.691-2.485,2.324-4.454,4.406-5.63
			c2.081-1.175,4.611-1.557,7.096-0.866c2.485,0.691,4.454,2.324,5.63,4.406c1.175,2.081,1.557,4.611,0.866,7.096
			c0,0.001,0,0.002-0.001,0.003c0,0.001,0,0.002-0.001,0.003c-0.692,2.483-2.325,4.451-4.406,5.626
			C55.393,62.1,52.864,62.481,50.38,61.79z"/>
		<path style="fill:#999999;" d="M52.87,17c1.97-0.7,3.337-1.05,4.458-1.05c1.12,0,1.993,0.35,2.972,1.05s1.98,1.64,2.474,2.946
			s0.481,2.979-0.564,5.144s-1.768,3.7-2.089,4.801C59.8,30.992,59.88,31.66,60.44,32.09s1.522,0.812,2.314,1.245
			c0.791,0.433,1.411,0.915,1.286,1.545s-0.678,1.78-1.355,2.79s-1.48,1.88-2.105,1.95c-0.613,0.093-1.23,0.048-1.811-0.123
			s-1.124-0.467-1.589-0.877c-0.28-0.375,0.072-0.725,0.48-1.056s0.87-0.644,0.81-0.944s-1.208-1.007-2.516-1.745
			c-1.309-0.737-2.779-1.505-3.484-1.925c-0.705-0.42-0.767-0.968-0.569-1.579s0.659-1.286,0.999-1.961s0.803-1.465,1.145-2.226
			s0.565-1.494,0.425-2.054s-1.14-1.535-2.175-2.507S50.19,20.68,49.91,20.13c-0.28-0.55,0.46-1.333,1.27-1.978
			C51.99,17.508,52.87,17,52.87,17z"/>
		<path style="fill:#999999;" d="M66.83,58.75c-0.555,0.66-1.555,2.022-2.605,3.349c-1.05,1.326-2.15,2.616-2.905,3.131
			s-5.755,1.888-10.996,3.195c-5.241,1.308-10.724,2.55-12.444,2.805s-3.605,1.14-5.368,2.194S29.11,75.7,27.88,76.63
			s-1.205,1.882-0.769,2.673c0.436,0.79,1.284,1.418,1.699,1.698s0.95,0.723,1.894,0.955c0.944,0.232,2.296,0.255,4.346-0.305
			c2.05-0.56,3.282-1.232,4.176-1.743c0.894-0.51,1.449-0.857,2.144-0.768s2.532,0.625,4.653,1.103
			c2.121,0.478,4.522,0.897,6.347,0.757s8.715-3.175,15.614-6.594S81.79,67.185,83.65,65.51c0.915-0.605,1.147-1.205,0.854-1.776
			C84.21,63.163,83.39,62.62,82.2,62.13s-3.472-1.36-5.589-2.173c-2.116-0.812-4.066-1.568-4.591-1.827
			c-0.525-0.259-1.34-0.682-2.265-0.751C68.83,57.31,67.795,57.595,66.83,58.75z"/>
	</g>
</g>
</svg>
