<?xml version="1.0" encoding="iso-8859-1"?>
<!-- Generator: Adobe Illustrator 25.4.1, SVG Export Plug-In . SVG Version: 6.00 Build 0)  -->
<svg version="1.1" id="Layer_1" xmlns="http://www.w3.org/2000/svg" xmlns:xlink="http://www.w3.org/1999/xlink" x="0px" y="0px"
	 viewBox="0 0 100 100" style="enable-background:new 0 0 100 100;" xml:space="preserve">
<path style="fill:#4575D5;" d="M77.325,80h-4.47h-4.47h-4.47h-4.47l-3.857-5.5L51.73,69l-3.858-5.5L44.015,58H42.32h-1.695H38.93
	h-1.695v5.5V69v5.5V80h-3.64h-3.64h-3.64h-3.64V65V50V35V20h6.135h6.135h6.135h6.135c0.723-0.008,1.447-0.002,2.17,0.019
	c0.723,0.021,1.445,0.056,2.167,0.106s1.442,0.115,2.161,0.194c0.719,0.079,1.437,0.173,2.152,0.281
	c0.606,0.101,1.205,0.233,1.796,0.394c0.59,0.161,1.172,0.352,1.742,0.571c0.57,0.219,1.129,0.468,1.675,0.744
	c0.546,0.276,1.079,0.58,1.597,0.911c0.523,0.326,1.024,0.682,1.501,1.066s0.93,0.797,1.357,1.235
	c0.426,0.438,0.826,0.902,1.198,1.389s0.713,0.998,1.024,1.53c0.333,0.612,0.624,1.244,0.871,1.892
	c0.247,0.647,0.451,1.309,0.609,1.982s0.273,1.356,0.341,2.045s0.092,1.384,0.069,2.081c0.005,1.115-0.053,2.178-0.174,3.189
	c-0.121,1.011-0.306,1.97-0.554,2.876c-0.247,0.906-0.558,1.761-0.931,2.563s-0.811,1.553-1.311,2.251
	c-0.537,0.747-1.119,1.458-1.741,2.128c-0.622,0.671-1.285,1.301-1.984,1.889c-0.699,0.588-1.433,1.133-2.201,1.631
	s-1.567,0.95-2.394,1.352l4.743,6.42l4.743,6.42l4.742,6.42L77.325,80z M54.495,38.37c0.01-0.335-0.001-0.669-0.034-1.001
	c-0.033-0.332-0.086-0.661-0.16-0.985c-0.074-0.324-0.168-0.644-0.283-0.957c-0.114-0.313-0.249-0.619-0.403-0.917
	c-0.17-0.292-0.363-0.567-0.577-0.823c-0.214-0.256-0.449-0.492-0.703-0.707s-0.526-0.408-0.813-0.577s-0.591-0.314-0.907-0.433
	c-0.275-0.114-0.555-0.215-0.838-0.306c-0.283-0.09-0.57-0.168-0.859-0.234s-0.581-0.12-0.875-0.162
	c-0.294-0.042-0.59-0.071-0.888-0.088c-0.333-0.023-0.678-0.042-1.035-0.06c-0.358-0.017-0.729-0.032-1.113-0.044
	c-0.385-0.012-0.782-0.021-1.194-0.027c-0.412-0.006-0.837-0.009-1.277-0.009H41.21h-1.325H38.56h-1.325v4.04v4.04v4.04v4.04h1.123
	h1.122h1.122h1.123c0.49,0.006,0.981,0.003,1.472-0.009c0.49-0.012,0.981-0.033,1.47-0.063s0.979-0.069,1.467-0.117
	s0.975-0.105,1.461-0.171c0.364-0.047,0.724-0.118,1.076-0.212c0.353-0.094,0.698-0.211,1.035-0.351s0.664-0.301,0.979-0.484
	s0.619-0.388,0.91-0.613c0.235-0.186,0.459-0.383,0.671-0.593c0.212-0.209,0.412-0.431,0.599-0.662s0.361-0.473,0.521-0.725
	c0.16-0.251,0.307-0.512,0.439-0.78c0.128-0.322,0.237-0.649,0.33-0.981c0.092-0.332,0.167-0.668,0.223-1.008
	c0.056-0.34,0.094-0.682,0.114-1.026C54.511,39.061,54.512,38.715,54.495,38.37z"/>
</svg>
