<svg xmlns="http://www.w3.org/2000/svg" viewBox="0 0 100 100"><circle cx="50" cy="50" r="48.52" fill="#fff"/><path d="M50,94.45A42.82,42.82,0,0,1,16.34,78.09a1.14,1.14,0,1,1,1.79-1.42,40.54,40.54,0,0,0,63.74,0,1.15,1.15,0,0,1,1.61-.18,1.14,1.14,0,0,1,.18,1.6A42.82,42.82,0,0,1,50,94.45Z"/><path d="M17.23,23.76a1.12,1.12,0,0,1-.71-.25,1.14,1.14,0,0,1-.18-1.6,42.83,42.83,0,0,1,67.32,0,1.14,1.14,0,0,1-.18,1.6,1.15,1.15,0,0,1-1.61-.18,40.54,40.54,0,0,0-63.74,0A1.16,1.16,0,0,1,17.23,23.76Z"/><path d="M74.18,59.07H66.24a1.57,1.57,0,1,1,0-3.14h7.94c3.14,0,9.06-1.17,9.06-5.59,0-5-4.44-8-6.11-9.12a3.67,3.67,0,0,1-.89-.72,2.94,2.94,0,0,1-.52-1.71,11.12,11.12,0,0,0-1.8-5.35c-1.8-2.86-8.4-4.09-9.68-4.13h0c-.81,0-1.28-.5-2.21-1.48-2-2.14-6.27-6.58-12.67-6.58-7.49,0-12.44,6.81-15.71,11.32-2.09,2.88-3.35,4.62-5.09,4.62-6.94,0-11.8,7.2-11.8,11.1,0,4.09,2.61,7.2,3.92,7.2h10a1.57,1.57,0,0,1,0,3.14h-10c-3.63,0-7.07-5-7.07-10.34,0-5,5.61-14.13,14.79-14.24a20.19,20.19,0,0,0,2.71-3.32C34.53,26,40.26,18.1,49.36,18.1c7.75,0,12.79,5.3,15,7.57l.54.56c2.08.25,9.14,1.42,11.73,5.54a14.54,14.54,0,0,1,2.27,6.72s0,.07,0,.11l0,0c1.85,1.25,7.5,5.08,7.5,11.72C86.39,56.34,80.06,59.07,74.18,59.07Zm-9.92-32.9.27,0Z"/><polygon points="41.33 52.05 31.55 63.37 39.84 63.37 32.35 81.9 54.7 60.32 47.38 60.32 54.43 52.05 41.33 52.05"/><path d="M56.73,61.05l-3.92,4.4a.42.42,0,0,0,.33.69h2.27a.72.72,0,0,1,.69,1L52.61,75.5l9.27-8.68A1.29,1.29,0,0,0,61,64.6h0a.23.23,0,0,1-.18-.39l1.89-2.15a1,1,0,0,0-.77-1.63H58.13A1.88,1.88,0,0,0,56.73,61.05Z"/></svg>