<?xml version="1.0" encoding="iso-8859-1"?>
<!-- Generator: Adobe Illustrator 25.2.3, SVG Export Plug-In . SVG Version: 6.00 Build 0)  -->
<svg version="1.1" id="Layer_1" xmlns="http://www.w3.org/2000/svg" xmlns:xlink="http://www.w3.org/1999/xlink" x="0px" y="0px"
	 viewBox="0 0 100 100" style="enable-background:new 0 0 100 100;" xml:space="preserve">
<g id="Layer_2_1_">
	<g id="Layer_2-2">
		<path d="M33.67,63.18H23.415H13.16V49V34.82h10.255H33.67v2.745v2.745h-6.62h-6.62v2.445V45.2h6.145h6.145v2.74v2.74h-6.145H20.43
			v3.5v3.5h6.62h6.62v2.75C33.67,60.43,33.67,63.18,33.67,63.18z"/>
		<path d="M60.25,63.18H50.025H39.8V49V34.82h3.68h3.68v11.435V57.69h6.545h6.545v2.745C60.25,60.435,60.25,63.18,60.25,63.18z"/>
		<path d="M86.84,40.31h-4.43h-4.43v11.435V63.18h-3.655H70.67V51.745V40.31h-4.43h-4.43v-2.745V34.82h12.5h12.5l0.015,2.745
			L86.84,40.31z"/>
		<path d="M23.68,31.31c-0.276-0.002-0.525-0.116-0.705-0.298c-0.18-0.182-0.29-0.433-0.288-0.709
			c0.001-0.105,0.018-0.208,0.05-0.306c0.032-0.098,0.08-0.192,0.142-0.276c3.213-4.328,7.353-7.769,12.037-10.132
			s9.914-3.648,15.304-3.659c5.275-0.023,10.404,1.188,15.017,3.45c4.613,2.262,8.711,5.576,11.923,9.76
			c0.155,0.229,0.203,0.498,0.154,0.75c-0.049,0.252-0.192,0.484-0.421,0.639c-0.209,0.142-0.454,0.194-0.689,0.164
			c-0.235-0.03-0.459-0.143-0.625-0.333c-3.025-3.937-6.882-7.055-11.225-9.184c-4.343-2.129-9.169-3.267-14.134-3.246
			c-5.074,0.014-9.996,1.226-14.404,3.453s-8.304,5.471-11.326,9.547c-0.098,0.124-0.221,0.221-0.36,0.286
			C23.991,31.281,23.837,31.314,23.68,31.31z"/>
		<path d="M50.22,84.07c-5.389-0.014-10.617-1.298-15.301-3.661S26.094,74.606,22.88,70.28c-0.164-0.222-0.223-0.49-0.185-0.743
			c0.038-0.253,0.173-0.492,0.395-0.657s0.49-0.223,0.743-0.185c0.253,0.038,0.492,0.173,0.657,0.395l0,0l0,0
			c3.022,4.076,6.917,7.319,11.326,9.547c4.409,2.227,9.33,3.439,14.404,3.453c4.958,0.011,9.777-1.135,14.11-3.266
			s8.182-5.25,11.2-9.184c0.168-0.225,0.412-0.361,0.67-0.398c0.258-0.037,0.53,0.024,0.755,0.193
			c0.225,0.168,0.361,0.412,0.398,0.67c0.037,0.258-0.024,0.53-0.193,0.755c-3.212,4.184-7.31,7.498-11.923,9.76
			S55.495,84.093,50.22,84.07z"/>
	</g>
</g>
</svg>
