<?xml version="1.0" encoding="iso-8859-1"?>
<!-- Generator: Adobe Illustrator 25.2.3, SVG Export Plug-In . SVG Version: 6.00 Build 0)  -->
<svg version="1.1" id="Layer_1" xmlns="http://www.w3.org/2000/svg" xmlns:xlink="http://www.w3.org/1999/xlink" x="0px" y="0px"
	 viewBox="0 0 100 100" style="enable-background:new 0 0 100 100;" xml:space="preserve">
<g id="Layer_2_1_">
	<g id="Layer_2-2">
		<path d="M81.945,30.03c0.009,0.979-0.071,1.955-0.239,2.915c-0.167,0.961-0.422,1.906-0.761,2.825
			c-0.297,0.803-0.674,1.571-1.123,2.295c-0.449,0.724-0.97,1.402-1.557,2.025c-0.606,0.637-1.254,1.231-1.939,1.779
			c-0.685,0.548-1.407,1.05-2.161,1.501c-0.876,0.512-1.772,0.988-2.686,1.427s-1.846,0.84-2.794,1.203v3.685v3.685h-5.65h-5.65
			v-5.435V42.5c0.76-0.205,1.482-0.413,2.17-0.622c0.688-0.21,1.34-0.423,1.96-0.638c0.69-0.252,1.36-0.554,2.005-0.901
			c0.645-0.348,1.265-0.741,1.855-1.179c0.6-0.389,1.155-0.839,1.658-1.342c0.503-0.503,0.953-1.058,1.342-1.658
			c0.362-0.578,0.637-1.202,0.819-1.852c0.182-0.65,0.271-1.326,0.261-2.008c0-1.075-0.173-1.993-0.517-2.755
			c-0.345-0.762-0.863-1.37-1.553-1.825c-0.89-0.507-1.844-0.877-2.831-1.105c-0.987-0.227-2.007-0.311-3.029-0.245
			c-0.89,0.023-1.775,0.12-2.646,0.287s-1.729,0.405-2.564,0.713c-0.936,0.317-1.851,0.692-2.739,1.121s-1.75,0.913-2.581,1.449
			h-0.64h-0.64v-4.905V20.13c1.03-0.381,2.076-0.719,3.133-1.013s2.128-0.543,3.207-0.747c1.419-0.323,2.854-0.569,4.298-0.736
			s2.896-0.255,4.352-0.264c2.643,0,5.014,0.292,7.112,0.875s3.924,1.458,5.478,2.625c1.484,1.049,2.661,2.43,3.46,4.004
			C81.554,26.447,81.974,28.213,81.945,30.03z M69.585,66.17h-6.5h-6.5v-4.24v-4.24h6.5h6.5v4.24V66.17z"/>
		<path d="M42.515,39.91c-2,0-4.25,2.513-6.125,5.285S33.015,51,32.515,52.04l-1.23-0.56l-1.23-0.56v4.635v4.635l3.43-3.12
			l3.43-3.12L35.66,53.4l-1.255-0.55c1.05-2.22,2.575-4.955,4.091-7.135s3.024-3.805,4.039-3.805h5.575h5.575v-1v-1H48.1
			L42.515,39.91z"/>
		<path d="M26.285,66.17c2.273,0,4.33,0.921,5.819,2.411c1.489,1.49,2.411,3.547,2.411,5.819c0,2.272-0.921,4.33-2.411,5.819
			c-1.489,1.489-3.547,2.411-5.819,2.411s-4.33-0.921-5.819-2.411c-1.49-1.489-2.411-3.546-2.411-5.819
			c0-2.273,0.921-4.33,2.411-5.819C21.956,67.092,24.012,66.17,26.285,66.17z"/>
	</g>
</g>
</svg>
