<?xml version="1.0" encoding="iso-8859-1"?>
<!-- Generator: Adobe Illustrator 25.2.3, SVG Export Plug-In . SVG Version: 6.00 Build 0)  -->
<svg version="1.1" id="Layer_1" xmlns="http://www.w3.org/2000/svg" xmlns:xlink="http://www.w3.org/1999/xlink" x="0px" y="0px"
	 viewBox="0 0 100 100" style="enable-background:new 0 0 100 100;" xml:space="preserve">
<g id="Layer_2_1_">
	<g id="Layer_2-2">
		<path d="M82.125,28.27c0.009,0.979-0.071,1.955-0.239,2.915c-0.167,0.961-0.422,1.906-0.761,2.825
			c-0.299,0.802-0.676,1.57-1.125,2.293c-0.449,0.724-0.969,1.403-1.555,2.027c-0.608,0.637-1.257,1.231-1.944,1.779
			c-0.687,0.548-1.41,1.049-2.166,1.501c-0.872,0.513-1.765,0.989-2.676,1.428c-0.911,0.439-1.84,0.84-2.784,1.202v3.685v3.685
			H63.22h-5.655v-5.435V40.74c0.76-0.205,1.483-0.413,2.169-0.622c0.686-0.21,1.336-0.423,1.951-0.638
			c0.691-0.252,1.363-0.554,2.01-0.901c0.647-0.348,1.268-0.741,1.86-1.179c0.598-0.392,1.152-0.843,1.654-1.346
			s0.954-1.057,1.346-1.654c0.362-0.578,0.637-1.202,0.819-1.852c0.182-0.65,0.271-1.326,0.261-2.008
			c0-1.075-0.173-1.993-0.517-2.755c-0.345-0.762-0.863-1.37-1.553-1.825c-0.89-0.506-1.844-0.876-2.831-1.103
			c-0.987-0.228-2.007-0.312-3.029-0.247c-0.891,0.024-1.778,0.12-2.651,0.287s-1.732,0.406-2.569,0.713
			c-0.935,0.316-1.848,0.69-2.735,1.119s-1.747,0.913-2.575,1.451h-0.65h-0.65v-4.905V18.37c1.03-0.382,2.075-0.719,3.133-1.013
			s2.128-0.543,3.207-0.747c1.421-0.324,2.857-0.57,4.303-0.737c1.445-0.167,2.9-0.255,4.357-0.263c2.64,0,5.008,0.292,7.105,0.875
			s3.922,1.458,5.475,2.625c1.493,1.042,2.677,2.422,3.479,3.997C81.737,24.681,82.158,26.45,82.125,28.27z M69.765,64.41h-6.5h-6.5
			v-4.24v-4.24h6.5h6.5v4.24V64.41z"/>
		<path d="M42.695,38.15c-2,0-4.25,2.513-6.125,5.285s-3.375,5.805-3.875,6.845l-1.26-0.56l-1.26-0.56v4.635v4.635l3.43-3.12
			l3.43-3.12l-1.255-0.55l-1.255-0.55c1.045-2.22,2.57-4.955,4.087-7.135c1.517-2.18,3.028-3.805,4.042-3.805h5.61h5.611v-1v-1
			h-5.59H42.695z"/>
		<path d="M27.795,84.39c-0.138,0-0.263-0.056-0.354-0.146c-0.09-0.09-0.146-0.215-0.146-0.354s0.056-0.263,0.146-0.354
			c0.09-0.09,0.215-0.146,0.354-0.146c0.465,0,0.929-0.037,1.387-0.111s0.91-0.183,1.353-0.329c0.131-0.043,0.267-0.028,0.381,0.03
			c0.114,0.058,0.206,0.159,0.249,0.29c0.045,0.128,0.033,0.261-0.022,0.374s-0.152,0.205-0.28,0.25
			c-0.003,0.001-0.006,0.002-0.009,0.003c-0.003,0.001-0.006,0.002-0.009,0.003c-0.492,0.162-0.996,0.284-1.506,0.366
			C28.829,84.347,28.313,84.389,27.795,84.39z M24.875,83.94c-0.026,0.005-0.053,0.007-0.08,0.007s-0.054-0.002-0.08-0.007
			c-0.493-0.161-0.972-0.36-1.434-0.594c-0.461-0.234-0.905-0.503-1.326-0.806c-0.112-0.081-0.18-0.201-0.2-0.327
			c-0.02-0.127,0.009-0.261,0.09-0.373s0.201-0.18,0.327-0.2c0.127-0.02,0.261,0.009,0.373,0.09
			c0.378,0.273,0.776,0.517,1.191,0.727c0.415,0.211,0.846,0.389,1.289,0.533c0.138,0.021,0.255,0.095,0.332,0.199
			s0.114,0.237,0.093,0.376c-0.021,0.138-0.095,0.255-0.199,0.332s-0.238,0.114-0.376,0.093v-0.025V83.94z M33.305,82.61
			c-0.138,0-0.263-0.056-0.354-0.146c-0.09-0.09-0.146-0.215-0.146-0.354c0-0.079,0.019-0.155,0.053-0.224s0.084-0.129,0.147-0.176
			c0.385-0.277,0.747-0.584,1.081-0.919c0.334-0.334,0.642-0.696,0.919-1.081c0.081-0.112,0.201-0.18,0.327-0.2
			c0.127-0.02,0.261,0.009,0.373,0.09s0.18,0.201,0.2,0.327c0.02,0.127-0.009,0.261-0.09,0.373
			c-0.305,0.419-0.641,0.813-1.005,1.179c-0.364,0.366-0.757,0.704-1.175,1.011c-0.047,0.037-0.099,0.067-0.155,0.087
			C33.424,82.597,33.365,82.609,33.305,82.61z M20.185,80.61c-0.08,0-0.157-0.02-0.226-0.056s-0.128-0.089-0.174-0.154
			c-0.31-0.424-0.584-0.872-0.822-1.338c-0.237-0.467-0.437-0.952-0.598-1.452c-0.04-0.131-0.024-0.266,0.033-0.379
			c0.058-0.114,0.158-0.206,0.287-0.251c0.128-0.045,0.261-0.033,0.374,0.022s0.205,0.152,0.25,0.28
			c0.001,0.003,0.002,0.006,0.003,0.009c0.001,0.003,0.002,0.006,0.003,0.009c0.144,0.444,0.325,0.874,0.539,1.287
			c0.214,0.413,0.462,0.809,0.741,1.183c0.079,0.112,0.106,0.246,0.086,0.372s-0.087,0.245-0.196,0.328
			c-0.044,0.03-0.092,0.052-0.143,0.065c-0.051,0.014-0.104,0.019-0.157,0.015v0.03V80.61z M36.705,77.94
			c-0.025,0.005-0.05,0.007-0.075,0.007c-0.025,0-0.05-0.002-0.075-0.007c-0.131-0.043-0.233-0.134-0.293-0.248
			c-0.06-0.114-0.076-0.25-0.037-0.382c0.144-0.441,0.252-0.891,0.324-1.348c0.072-0.456,0.107-0.919,0.106-1.382
			c-0.003-0.138,0.051-0.264,0.139-0.356c0.089-0.092,0.213-0.151,0.351-0.153c0.002,0,0.003,0,0.005,0c0.002,0,0.003,0,0.005,0
			c0.135-0.003,0.259,0.05,0.349,0.136c0.09,0.087,0.148,0.208,0.151,0.343c0,0.002,0,0.003,0,0.005c0,0.002,0,0.003,0,0.005l0,0
			l0,0c-0.002,0.509-0.043,1.016-0.121,1.518c-0.079,0.501-0.195,0.997-0.349,1.482c-0.038,0.099-0.105,0.18-0.189,0.236
			s-0.185,0.087-0.291,0.084v0.03C36.705,77.91,36.705,77.94,36.705,77.94z M18.375,75.02c-0.132,0.006-0.255-0.043-0.345-0.126
			c-0.09-0.083-0.149-0.201-0.155-0.334c0-0.003,0-0.007,0-0.01s0-0.007,0-0.01l0,0l0,0c0.002-0.509,0.043-1.017,0.123-1.519
			s0.199-0.997,0.357-1.481c0.039-0.129,0.128-0.231,0.238-0.29c0.111-0.059,0.244-0.076,0.373-0.036
			c0.003,0.001,0.006,0.002,0.009,0.003s0.006,0.002,0.009,0.003c0.129,0.04,0.23,0.129,0.288,0.24
			c0.058,0.111,0.074,0.244,0.034,0.373c0,0.001-0.001,0.002-0.001,0.003c0,0.001-0.001,0.002-0.001,0.003
			c-0.137,0.43-0.242,0.869-0.314,1.314s-0.11,0.895-0.115,1.347c0.003,0.141-0.052,0.269-0.142,0.364S18.516,75.017,18.375,75.02
			L18.375,75.02L18.375,75.02z M36.695,72.08c-0.108,0.001-0.211-0.032-0.295-0.092c-0.084-0.06-0.15-0.145-0.185-0.248
			c-0.144-0.444-0.322-0.875-0.533-1.289c-0.211-0.415-0.454-0.813-0.727-1.191c-0.083-0.11-0.113-0.244-0.095-0.371
			c0.018-0.127,0.085-0.246,0.195-0.329l0,0l0,0c0.112-0.079,0.246-0.106,0.372-0.086s0.245,0.087,0.328,0.196
			c0.308,0.419,0.581,0.861,0.817,1.323s0.434,0.942,0.593,1.437c0.045,0.128,0.033,0.261-0.022,0.374
			c-0.055,0.113-0.152,0.205-0.28,0.25c-0.003,0.001-0.006,0.002-0.009,0.003c-0.003,0.001-0.006,0.002-0.009,0.003l-0.075,0.01
			L36.695,72.08z M20.165,69.48c-0.052,0-0.103-0.007-0.152-0.022c-0.049-0.016-0.095-0.038-0.138-0.068
			c-0.111-0.077-0.181-0.192-0.203-0.315c-0.022-0.123,0.003-0.255,0.08-0.366c0.002-0.003,0.004-0.006,0.006-0.009
			c0.002-0.003,0.004-0.006,0.007-0.009c0.303-0.42,0.639-0.815,1.004-1.181c0.365-0.366,0.758-0.704,1.176-1.009
			c0.112-0.081,0.246-0.11,0.373-0.09c0.127,0.02,0.246,0.088,0.327,0.2c0.081,0.112,0.11,0.246,0.09,0.373
			c-0.02,0.127-0.088,0.246-0.2,0.327c-0.384,0.279-0.745,0.587-1.079,0.921c-0.334,0.333-0.642,0.694-0.921,1.078
			c-0.046,0.054-0.103,0.096-0.167,0.125C20.304,69.464,20.236,69.48,20.165,69.48z M33.275,67.4
			c-0.053,0.001-0.105-0.008-0.154-0.025s-0.095-0.042-0.136-0.075c-0.378-0.273-0.777-0.515-1.191-0.726
			c-0.414-0.211-0.845-0.389-1.289-0.534c-0.138-0.043-0.246-0.138-0.308-0.256c-0.062-0.119-0.08-0.261-0.037-0.399
			c0.043-0.138,0.138-0.246,0.256-0.308c0.119-0.062,0.261-0.08,0.399-0.037l0,0l0,0c0.492,0.16,0.97,0.358,1.43,0.592
			c0.46,0.234,0.901,0.504,1.32,0.808c0.111,0.077,0.181,0.192,0.203,0.315c0.022,0.123-0.003,0.255-0.08,0.366
			c-0.002,0.003-0.004,0.006-0.006,0.009s-0.004,0.006-0.007,0.009c-0.039,0.076-0.096,0.138-0.165,0.183
			C33.441,67.368,33.36,67.395,33.275,67.4z M24.875,66.07c-0.109,0.002-0.212-0.033-0.295-0.095s-0.146-0.15-0.175-0.255
			c-0.045-0.128-0.033-0.261,0.022-0.374c0.055-0.113,0.152-0.205,0.28-0.25c0.003-0.001,0.006-0.002,0.009-0.003
			c0.003-0.001,0.006-0.002,0.009-0.003c0.49-0.156,0.99-0.275,1.497-0.355s1.019-0.122,1.533-0.125l0,0l0,0
			c0.138,0,0.263,0.056,0.354,0.146c0.09,0.09,0.146,0.215,0.146,0.354s-0.056,0.263-0.146,0.354
			c-0.091,0.09-0.216,0.146-0.354,0.146c-0.465,0-0.929,0.037-1.388,0.11s-0.91,0.184-1.352,0.33l-0.07,0.01L24.875,66.07z"/>
	</g>
</g>
</svg>
