<?xml version="1.0" encoding="iso-8859-1"?>
<!-- Generator: Adobe Illustrator 25.2.3, SVG Export Plug-In . SVG Version: 6.00 Build 0)  -->
<svg version="1.1" id="Layer_1" xmlns="http://www.w3.org/2000/svg" xmlns:xlink="http://www.w3.org/1999/xlink" x="0px" y="0px"
	 viewBox="0 0 100 100" style="enable-background:new 0 0 100 100;" xml:space="preserve">
<g id="Layer_2_1_">
	<g id="Layer_2-2">
		<path d="M57.93,48.575c0.001,1.437-0.388,2.819-1.092,4.015s-1.721,2.207-2.978,2.905l0.53,0.85l0.53,0.85
			c2.379-1.353,3.984-3.541,4.657-5.987c0.673-2.445,0.412-5.147-0.94-7.526c-0.441-0.776-0.982-1.484-1.608-2.109
			c-0.625-0.625-1.334-1.167-2.109-1.608l-0.53,0.845l-0.53,0.845c1.255,0.699,2.272,1.711,2.975,2.907S57.929,47.138,57.93,48.575z
			"/>
		<path d="M42.07,48.575c0.001-1.306,0.325-2.57,0.917-3.692c0.593-1.122,1.454-2.101,2.533-2.838l-0.5-0.855l-0.5-0.855
			c-2.277,1.528-3.719,3.835-4.209,6.328c-0.491,2.494-0.03,5.174,1.498,7.451c0.359,0.536,0.769,1.034,1.223,1.488
			c0.454,0.454,0.952,0.864,1.488,1.223l0.5-0.855l0.5-0.855c-1.079-0.739-1.941-1.72-2.534-2.843
			C42.393,51.148,42.071,49.883,42.07,48.575z"/>
		<path d="M27.77,48.575c0.004-3.797,0.976-7.461,2.747-10.687c1.771-3.226,4.342-6.012,7.543-8.053l-1.045-1.705l-1.045-1.705
			c-6.117,3.869-10.086,9.852-11.558,16.396c-1.472,6.544-0.449,13.65,3.421,19.766c1.038,1.641,2.252,3.156,3.617,4.521
			c1.365,1.365,2.88,2.579,4.521,3.617l1.045-1.705l1.045-1.705c-3.204-2.039-5.776-4.825-7.547-8.051
			C28.742,56.038,27.771,52.372,27.77,48.575z"/>
		<path d="M72.24,48.575c-0.009,3.891-1.035,7.637-2.892,10.913c-1.857,3.276-4.545,6.08-7.878,8.087l1.06,1.71l1.06,1.71
			c6.192-3.747,10.28-9.649,11.883-16.162c1.603-6.513,0.721-13.638-3.026-19.831c-1.097-1.812-2.405-3.478-3.892-4.966
			c-1.487-1.487-3.153-2.795-4.966-3.892l-1.065,1.69l-1.065,1.69c3.342,2.011,6.036,4.823,7.895,8.108
			C71.213,40.917,72.237,44.675,72.24,48.575z"/>
		<path d="M64.34,48.575c-0.003,2.539-0.677,4.982-1.899,7.111s-2.99,3.945-5.181,5.229l0.8,1.27l0.8,1.27
			c4.108-2.434,6.84-6.302,7.937-10.589s0.558-8.992-1.875-13.1c-0.74-1.249-1.631-2.394-2.649-3.412
			c-1.018-1.018-2.164-1.909-3.412-2.649l-0.8,1.265l-0.8,1.265c2.19,1.284,3.958,3.1,5.18,5.229
			C63.663,43.593,64.336,46.036,64.34,48.575z"/>
		<path d="M35.67,48.575c-0.001-2.422,0.61-4.762,1.731-6.827c1.12-2.065,2.748-3.853,4.779-5.173l-0.795-1.29l-0.795-1.29
			c-4.019,2.582-6.611,6.549-7.553,10.875c-0.942,4.326-0.233,9.012,2.349,13.031c0.671,1.044,1.45,2.01,2.322,2.882
			c0.872,0.872,1.838,1.651,2.882,2.322l0.78-1.28l0.78-1.28c-2.02-1.321-3.64-3.106-4.754-5.165
			C36.281,53.321,35.671,50.989,35.67,48.575z"/>
		<path d="M15.59,48.575c0.004-5.917,1.528-11.625,4.304-16.639s6.804-9.337,11.816-12.481l-1.305-2.135L29.1,15.185
			c-9.22,5.76-15.233,14.712-17.501,24.529s-0.79,20.499,4.97,29.72c1.585,2.537,3.449,4.878,5.551,6.98
			c2.102,2.102,4.442,3.966,6.98,5.551l1.305-2.13l1.305-2.13c-5.014-3.145-9.043-7.468-11.819-12.485S15.592,54.493,15.59,48.575z"
			/>
		<path d="M84.41,48.575c-0.002,5.992-1.563,11.767-4.402,16.826c-2.839,5.059-6.955,9.4-12.068,12.524l1.325,2.12l1.325,2.12
			c9.274-5.684,15.367-14.588,17.72-24.391c2.353-9.802,0.967-20.502-4.717-29.777c-1.624-2.65-3.55-5.089-5.732-7.271
			c-2.182-2.181-4.621-4.107-7.271-5.731l-1.325,2.115l-1.325,2.115c5.112,3.125,9.227,7.467,12.066,12.525
			S84.406,42.584,84.41,48.575z"/>
		<path d="M52.59,84.995l-0.625-17.32l-0.625-17.32c0.492-0.37,0.788-0.905,0.868-1.47c0.08-0.565-0.055-1.161-0.425-1.653
			s-0.905-0.788-1.47-0.868s-1.161,0.055-1.653,0.425s-0.788,0.905-0.868,1.47c-0.08,0.565,0.055,1.161,0.425,1.653
			c0.063,0.084,0.132,0.163,0.206,0.237s0.153,0.143,0.237,0.206l-0.62,17.32l-0.62,17.32h2.585H52.59z"/>
	</g>
</g>
</svg>
