<?xml version="1.0" encoding="iso-8859-1"?>
<!-- Generator: Adobe Illustrator 25.2.3, SVG Export Plug-In . SVG Version: 6.00 Build 0)  -->
<svg version="1.1" id="Layer_1" xmlns="http://www.w3.org/2000/svg" xmlns:xlink="http://www.w3.org/1999/xlink" x="0px" y="0px"
	 viewBox="0 0 100 100" style="enable-background:new 0 0 100 100;" xml:space="preserve">
<g id="Layer_2_1_">
	<g id="Layer_2-2">
		<path d="M35.59,44.77c0,0.636-0.056,1.27-0.167,1.894c-0.11,0.624-0.275,1.238-0.493,1.836c-0.205,0.563-0.471,1.101-0.791,1.604
			s-0.695,0.971-1.119,1.396c-0.54,0.543-1.131,1.029-1.764,1.453s-1.308,0.785-2.016,1.077c-0.829,0.312-1.684,0.54-2.553,0.684
			c-0.869,0.144-1.752,0.203-2.637,0.176h-2.275H19.5v4.62v4.62h-3.655H12.19V49.975V35.82h6h6c0.767-0.014,1.533,0.019,2.294,0.098
			c0.761,0.078,1.518,0.203,2.266,0.372c0.582,0.141,1.15,0.33,1.698,0.564c0.549,0.234,1.078,0.514,1.582,0.836
			c0.554,0.356,1.057,0.782,1.497,1.264c0.44,0.482,0.818,1.022,1.123,1.606c0.323,0.654,0.565,1.342,0.722,2.049
			C35.53,43.315,35.604,44.041,35.59,44.77z M28.03,44.93c0.009-0.369-0.043-0.735-0.151-1.083
			c-0.108-0.348-0.273-0.678-0.489-0.977c-0.191-0.266-0.418-0.503-0.672-0.705s-0.536-0.369-0.838-0.495
			c-0.354-0.149-0.72-0.267-1.093-0.352c-0.373-0.085-0.754-0.138-1.137-0.158c-0.36,0-0.78,0-1.261,0s-1.024,0-1.629,0h-0.63H19.5
			v4.235v4.235h1.05h1.05c0.514,0.008,1.028-0.008,1.54-0.046c0.512-0.038,1.023-0.1,1.53-0.184
			c0.367-0.063,0.723-0.172,1.059-0.325s0.653-0.349,0.941-0.585c0.225-0.196,0.423-0.419,0.591-0.662
			c0.168-0.244,0.306-0.508,0.409-0.788c0.123-0.338,0.215-0.686,0.275-1.039C28.005,45.648,28.034,45.29,28.03,44.93z"/>
		<path d="M61.19,64.18H50.98H40.77V50V35.82h3.66h3.66v11.435V58.69h6.55h6.55v2.745V64.18z"/>
		<path d="M87.81,41.31h-4.43h-4.43v11.435V64.18h-3.655H71.64V52.745V41.31h-4.425H62.79v-2.745V35.82h12.5h12.5l0.01,2.745
			L87.81,41.31z"/>
		<path d="M23.68,31.31c-0.276-0.002-0.525-0.116-0.705-0.298c-0.18-0.182-0.29-0.433-0.288-0.709
			c0.001-0.105,0.018-0.208,0.05-0.306c0.032-0.098,0.08-0.192,0.142-0.276c3.211-4.321,7.347-7.76,12.025-10.122
			s9.902-3.651,15.286-3.669c5.272-0.02,10.397,1.192,15.006,3.454S73.9,24.958,77.11,29.14c0.182,0.208,0.262,0.47,0.245,0.725
			c-0.017,0.255-0.131,0.504-0.339,0.686c-0.208,0.182-0.47,0.262-0.725,0.245c-0.255-0.017-0.504-0.131-0.686-0.339
			c-0.014-0.015-0.027-0.031-0.039-0.048c-0.013-0.016-0.025-0.033-0.036-0.05c-3.023-3.934-6.877-7.051-11.216-9.179
			s-9.162-3.268-14.124-3.25c-5.069,0.02-9.984,1.234-14.387,3.461s-8.294,5.468-11.313,9.539c-0.098,0.124-0.221,0.221-0.36,0.286
			C23.991,31.281,23.837,31.314,23.68,31.31z"/>
		<path d="M50.19,84.07c-5.383-0.02-10.605-1.307-15.284-3.67c-4.679-2.362-8.814-5.8-12.026-10.12
			c-0.164-0.222-0.223-0.49-0.185-0.743s0.173-0.492,0.395-0.657c0.222-0.165,0.49-0.223,0.743-0.185s0.492,0.173,0.657,0.395l0,0
			l0,0c3.021,4.068,6.913,7.304,11.316,9.528c4.403,2.224,9.317,3.435,14.384,3.452c4.962,0.018,9.785-1.122,14.124-3.251
			c4.339-2.129,8.193-5.245,11.216-9.179c0.182-0.208,0.431-0.322,0.686-0.339c0.255-0.017,0.517,0.064,0.725,0.245
			c0.19,0.166,0.303,0.39,0.333,0.625s-0.023,0.48-0.164,0.689c-3.21,4.182-7.304,7.494-11.914,9.756
			C60.587,82.878,55.462,84.09,50.19,84.07z"/>
	</g>
</g>
</svg>
