<?xml version="1.0" encoding="iso-8859-1"?>
<!-- Generator: Adobe Illustrator 25.2.3, SVG Export Plug-In . SVG Version: 6.00 Build 0)  -->
<svg version="1.1" id="Layer_1" xmlns="http://www.w3.org/2000/svg" xmlns:xlink="http://www.w3.org/1999/xlink" x="0px" y="0px"
	 viewBox="0 0 100 100" style="enable-background:new 0 0 100 100;" xml:space="preserve">
<g id="Layer_2_1_">
	<g id="Layer_2-2">
		<path d="M16.56,24.19c-0.115-0.006-0.228-0.032-0.333-0.076c-0.104-0.044-0.202-0.106-0.287-0.184
			c-0.217-0.171-0.343-0.414-0.373-0.668s0.038-0.52,0.209-0.736c0.001-0.001,0.001-0.002,0.002-0.003
			c0.001-0.001,0.001-0.002,0.002-0.003c7.56-9.512,18.26-15.059,29.447-16.338s22.863,1.71,32.375,9.27
			c1.213,0.964,2.372,1.99,3.475,3.075s2.148,2.227,3.132,3.424c0.175,0.213,0.248,0.477,0.223,0.732
			c-0.025,0.255-0.147,0.5-0.36,0.675l-0.001,0.001L84.07,23.36c-0.213,0.173-0.476,0.243-0.729,0.218
			c-0.253-0.025-0.497-0.147-0.671-0.358C75.304,14.261,65.005,9.136,54.307,8.092s-21.794,1.993-30.753,9.359
			c-1.144,0.941-2.237,1.941-3.274,2.995c-1.037,1.054-2.019,2.164-2.94,3.324c-0.09,0.127-0.207,0.229-0.341,0.301
			C16.866,24.143,16.716,24.185,16.56,24.19z"/>
		<path d="M50.22,94.07c-6.712,0.014-13.242-1.512-19.134-4.359S19.94,82.697,15.78,77.43c-0.19-0.201-0.28-0.459-0.272-0.715
			s0.112-0.509,0.313-0.698c0.201-0.189,0.459-0.28,0.715-0.272c0.256,0.007,0.509,0.112,0.698,0.313
			c0.019,0.021,0.038,0.042,0.056,0.064s0.034,0.045,0.05,0.069c7.214,9.082,17.426,14.379,28.104,15.603
			c10.679,1.224,21.825-1.626,30.906-8.84c1.16-0.921,2.269-1.903,3.324-2.94c1.055-1.037,2.055-2.13,2.995-3.274
			c0.175-0.211,0.418-0.333,0.671-0.358c0.253-0.025,0.516,0.045,0.729,0.218c0.214,0.175,0.337,0.419,0.363,0.674
			c0.026,0.255-0.046,0.519-0.22,0.733c0,0.001-0.001,0.001-0.001,0.001l-0.001,0.001c-4.174,5.09-9.381,9.108-15.189,11.852
			S56.802,94.077,50.22,94.07z"/>
		<path d="M50,39.77c2.825,0,5.382,1.145,7.234,2.996c1.851,1.851,2.996,4.409,2.996,7.234s-1.145,5.382-2.996,7.234
			C55.383,59.085,52.825,60.23,50,60.23s-5.382-1.145-7.234-2.996C40.915,55.383,39.77,52.825,39.77,50s1.145-5.382,2.996-7.234
			C44.618,40.915,47.175,39.77,50,39.77z"/>
	</g>
</g>
</svg>
