<?xml version="1.0" encoding="iso-8859-1"?>
<!-- Generator: Adobe Illustrator 25.2.3, SVG Export Plug-In . SVG Version: 6.00 Build 0)  -->
<svg version="1.1" id="Layer_1" xmlns="http://www.w3.org/2000/svg" xmlns:xlink="http://www.w3.org/1999/xlink" x="0px" y="0px"
	 viewBox="0 0 100 100" style="enable-background:new 0 0 100 100;" xml:space="preserve">
<g id="Layer_2_1_">
	<g id="Layer_2-2">
		<path d="M16.56,24.19c-0.115-0.006-0.228-0.032-0.333-0.076c-0.104-0.044-0.202-0.106-0.287-0.184
			c-0.217-0.171-0.343-0.414-0.373-0.668s0.038-0.52,0.209-0.736c0.001-0.001,0.001-0.002,0.002-0.003
			c0.001-0.001,0.001-0.002,0.002-0.003c7.56-9.512,18.26-15.059,29.447-16.338s22.863,1.71,32.375,9.27
			c1.213,0.964,2.372,1.99,3.475,3.075s2.148,2.227,3.132,3.424c0.175,0.213,0.248,0.477,0.223,0.732
			c-0.025,0.255-0.147,0.5-0.36,0.675l-0.001,0.001L84.07,23.36c-0.213,0.173-0.476,0.243-0.729,0.218
			c-0.253-0.025-0.497-0.147-0.671-0.358C75.304,14.261,65.005,9.136,54.307,8.092s-21.794,1.993-30.753,9.359
			c-1.144,0.941-2.237,1.941-3.274,2.995c-1.037,1.054-2.019,2.164-2.94,3.324c-0.09,0.127-0.207,0.229-0.341,0.301
			C16.866,24.143,16.716,24.185,16.56,24.19z"/>
		<path d="M50.22,94.07c-6.712,0.014-13.242-1.512-19.134-4.359S19.94,82.697,15.78,77.43c-0.19-0.201-0.28-0.459-0.272-0.715
			s0.112-0.509,0.313-0.698c0.201-0.189,0.459-0.28,0.715-0.272c0.256,0.007,0.509,0.112,0.698,0.313
			c0.019,0.021,0.038,0.042,0.056,0.064s0.034,0.045,0.05,0.069c7.214,9.082,17.426,14.379,28.104,15.603
			c10.679,1.224,21.825-1.626,30.906-8.84c1.16-0.921,2.269-1.903,3.324-2.94c1.055-1.037,2.055-2.13,2.995-3.274
			c0.175-0.211,0.418-0.333,0.671-0.358c0.253-0.025,0.516,0.045,0.729,0.218c0.214,0.175,0.337,0.419,0.363,0.674
			c0.026,0.255-0.046,0.519-0.22,0.733c0,0.001-0.001,0.001-0.001,0.001l-0.001,0.001c-4.174,5.09-9.381,9.108-15.189,11.852
			S56.802,94.077,50.22,94.07z"/>
		<path d="M48.88,28.29c1.157,0,2.205,0.469,2.963,1.227s1.227,1.806,1.227,2.963c0,1.157-0.469,2.205-1.227,2.963
			c-0.758,0.758-1.806,1.227-2.963,1.227s-2.205-0.469-2.963-1.227c-0.758-0.758-1.227-1.806-1.227-2.963
			c0-1.157,0.469-2.205,1.227-2.963C46.675,28.759,47.723,28.29,48.88,28.29z"/>
		<path d="M72.03,20.93H50H27.97v22.025V64.98h10.39h10.39c-0.105-0.375-0.217-0.82-0.336-1.324
			c-0.119-0.504-0.244-1.066-0.374-1.676h-8.535H30.97V42.955V23.93H50h19.03v19.025V61.98h-0.77h-0.77
			c0.5,0.745,0.925,1.405,1.234,1.894c0.309,0.489,0.501,0.806,0.536,0.866l0.075,0.12l0.075,0.12h1.31h1.31V42.955
			C72.03,42.955,72.03,20.93,72.03,20.93z"/>
		<path d="M58.65,23.27v6.21v6.21c-2.165,0.5-5.095,1.583-7.571,2.924c-2.476,1.341-4.499,2.941-4.849,4.476
			s0.185,6.443,0.948,11.333s1.753,9.763,2.312,11.228c1.325,0.345,1.825-0.062,1.994-0.556c0.169-0.494,0.006-1.074,0.006-1.074
			s-0.417-1.85-0.835-3.979s-0.835-4.536-0.835-5.651s0.28-1.463,0.595-1.375c0.315,0.088,0.665,0.61,0.805,1.235
			s1.22,3.875,2.35,7.14c1.13,3.265,2.31,6.545,2.65,7.23c-0.56,1.12-1.713,3.62-2.864,6.195c-1.151,2.575-2.301,5.225-2.856,6.645
			s-0.103,2.885,0.75,3.524s2.105,0.451,3.15-1.434c1.208-2.207,2.353-4.447,3.433-6.718c1.08-2.271,2.096-4.573,3.047-6.902
			c0-1.465-0.312-3.105-0.677-4.605c-0.365-1.5-0.783-2.86-0.993-3.765s0.173-1.29,0.625-1.256s0.975,0.486,1.045,1.256
			c0.098,0.607,0.241,1.204,0.428,1.787s0.418,1.153,0.692,1.703h3.42h3.42c0,0-1.07-1.78-2.515-3.88
			c-1.445-2.1-3.265-4.521-4.765-5.801c-0.805-1.86-1.549-3.746-2.231-5.654s-1.302-3.838-1.859-5.786
			c0.532-0.831,1.108-1.633,1.724-2.402s1.272-1.506,1.966-2.208c0.42-1.255,0.49-5.255,0.455-8.941S61.44,23.32,61.44,23.32
			l-1.395-0.025L58.65,23.27z"/>
	</g>
</g>
</svg>
