<?xml version="1.0" encoding="iso-8859-1"?>
<!-- Generator: Adobe Illustrator 25.2.3, SVG Export Plug-In . SVG Version: 6.00 Build 0)  -->
<svg version="1.1" id="Layer_1" xmlns="http://www.w3.org/2000/svg" xmlns:xlink="http://www.w3.org/1999/xlink" x="0px" y="0px"
	 viewBox="0 0 100 100" style="enable-background:new 0 0 100 100;" xml:space="preserve">
<g id="Layer_2_1_">
	<g id="Layer_2-2">
		<path d="M25.815,38.565h-2.78h-2.78v3.47v3.47h2.58h2.58v3.605v3.605h-2.58h-2.58v7.97v7.97h-1.55h-1.55V50V31.345h4.33h4.33v3.61
			C25.815,34.955,25.815,38.565,25.815,38.565z"/>
		<path d="M34.505,68.655h-3.54h-3.54V65.35v-3.305h1h1V50V37.955h-1h-1V34.65v-3.305h3.54h3.54v3.305v3.305h-1h-1V50v12.045h1h1
			v3.305V68.655z"/>
		<path d="M48.035,68.655h-1.5h-1.5l-2.54-12.805l-2.54-12.805V55.85v12.805H38.5h-1.455V50V31.345h1.865h1.865l2.2,10.685
			l2.2,10.685V42.03V31.345h1.43h1.43V50C48.035,50,48.035,68.655,48.035,68.655z"/>
		<path d="M57.655,68.655h-3.54h-3.54V65.35v-3.305h1h1V50V37.955h-1h-1V34.65v-3.305h3.54h3.54v3.305v3.305h-1h-1V50v12.045h1h1
			v3.305V68.655z"/>
		<path d="M69.875,56.955c0.058,1.536-0.043,3.07-0.297,4.578s-0.664,2.99-1.223,4.422c-0.507,1.15-1.103,2.012-1.788,2.587
			c-0.685,0.575-1.459,0.863-2.322,0.863c-0.47,0.01-0.935-0.057-1.377-0.195c-0.443-0.139-0.863-0.349-1.243-0.625
			c-0.394-0.294-0.767-0.614-1.116-0.958c-0.349-0.344-0.675-0.712-0.974-1.102v-4.5v-4.5h0.17h0.17
			c0.249,0.67,0.557,1.315,0.92,1.928c0.363,0.612,0.781,1.192,1.25,1.732c0.278,0.364,0.625,0.661,1.017,0.879
			c0.392,0.218,0.828,0.356,1.283,0.401c0.126-0.006,0.252-0.021,0.376-0.047c0.124-0.025,0.245-0.06,0.364-0.103
			c0.149-0.046,0.289-0.114,0.417-0.2s0.244-0.19,0.343-0.31c0.129-0.169,0.243-0.348,0.342-0.535s0.182-0.383,0.248-0.585
			c0.088-0.326,0.152-0.657,0.19-0.991c0.038-0.334,0.052-0.671,0.04-1.009c0.009-0.359-0.015-0.718-0.072-1.071
			c-0.057-0.353-0.146-0.701-0.268-1.039c-0.094-0.273-0.229-0.529-0.397-0.76c-0.169-0.231-0.371-0.437-0.603-0.61
			c-0.23-0.165-0.465-0.328-0.705-0.485c-0.24-0.158-0.485-0.31-0.735-0.455c-0.264-0.151-0.517-0.321-0.756-0.508
			c-0.239-0.187-0.464-0.392-0.674-0.612c-0.548-0.585-1.01-1.24-1.375-1.945c-0.365-0.705-0.633-1.46-0.795-2.245
			c-0.245-1.067-0.424-2.147-0.536-3.234s-0.157-2.181-0.134-3.276c-0.053-1.453,0.049-2.902,0.302-4.326s0.657-2.819,1.208-4.164
			c0.507-1.1,1.084-1.925,1.732-2.475c0.648-0.55,1.368-0.825,2.158-0.825c0.419,0.006,0.834,0.072,1.231,0.193
			c0.397,0.121,0.778,0.298,1.129,0.527c0.384,0.236,0.746,0.505,1.081,0.805c0.335,0.3,0.642,0.629,0.919,0.985v4.295v4.295h-0.16
			h-0.16c-0.212-0.547-0.469-1.074-0.768-1.576c-0.299-0.502-0.641-0.978-1.022-1.424c-0.252-0.352-0.577-0.639-0.945-0.845
			s-0.783-0.333-1.215-0.365c-0.133,0-0.264,0.013-0.393,0.04s-0.255,0.067-0.377,0.12c-0.148,0.069-0.286,0.157-0.412,0.259
			c-0.126,0.102-0.239,0.22-0.338,0.351c-0.126,0.173-0.235,0.356-0.325,0.549s-0.162,0.394-0.215,0.601
			c-0.08,0.283-0.139,0.571-0.178,0.862c-0.038,0.291-0.056,0.584-0.052,0.878c-0.02,0.386,0.002,0.771,0.064,1.15
			s0.164,0.751,0.306,1.11c0.153,0.31,0.349,0.595,0.581,0.846c0.232,0.251,0.501,0.468,0.799,0.644l0.64,0.41l0.64,0.41
			c0.234,0.164,0.461,0.337,0.679,0.521s0.429,0.377,0.631,0.579c0.493,0.541,0.912,1.141,1.249,1.785s0.589,1.331,0.751,2.045
			c0.257,1.021,0.445,2.057,0.566,3.101C69.841,54.85,69.893,55.902,69.875,56.955z"/>
		<path d="M82.845,68.655h-1.56h-1.56v-8.22v-8.22h-2.3h-2.3v8.22v8.22h-1.56h-1.56V50V31.345h1.56h1.56v6.83v6.83h2.3h2.3v-6.83
			v-6.83h1.56h1.56V50V68.655z"/>
		<path d="M97.045,39.375H94h-3.045c-2.005-7.66-6.057-14.445-11.539-19.755c-5.481-5.309-12.391-9.144-20.111-10.905v-2.88v-2.88
			H50h-9.305v2.88v2.88c-7.724,1.757-14.638,5.591-20.123,10.901s-9.54,12.096-11.547,19.759H5.99H2.955v9.29v9.29h2.74h2.74
			c1.605,8.255,5.57,15.647,11.184,21.442s12.876,9.992,21.076,11.858v2.88v2.88H50h9.305V94.15v-2.865
			c8.204-1.868,15.469-6.07,21.084-11.87s9.577-13.199,11.176-21.46h2.74h2.74v-9.29V39.375z M49.955,90.325
			C38.818,90.314,28.74,85.79,21.449,78.484S9.654,61.092,9.665,49.955S14.2,28.74,21.506,21.449S38.898,9.654,50.035,9.665
			c11.121,0.011,21.188,4.523,28.478,11.812s11.801,17.357,11.812,28.478c0,11.148-4.519,21.24-11.824,28.546
			S61.103,90.325,49.955,90.325L49.955,90.325L49.955,90.325z"/>
	</g>
</g>
</svg>
