<?xml version="1.0" encoding="iso-8859-1"?>
<!-- Generator: Adobe Illustrator 25.2.3, SVG Export Plug-In . SVG Version: 6.00 Build 0)  -->
<svg version="1.1" id="Layer_1" xmlns="http://www.w3.org/2000/svg" xmlns:xlink="http://www.w3.org/1999/xlink" x="0px" y="0px"
	 viewBox="0 0 100 100" style="enable-background:new 0 0 100 100;" xml:space="preserve">
<g id="Layer_2_1_">
	<g id="Layer_2-2">
		<path d="M22.69,64.93c-0.758,0.002-1.512-0.083-2.247-0.251s-1.45-0.418-2.133-0.749c-0.683-0.32-1.322-0.72-1.905-1.19
			c-0.583-0.47-1.108-1.01-1.565-1.61c-0.515-0.708-0.96-1.461-1.33-2.25s-0.665-1.612-0.88-2.46
			c-0.278-1.059-0.484-2.134-0.616-3.218s-0.19-2.177-0.174-3.272c-0.013-1.052,0.045-2.103,0.172-3.145s0.323-2.076,0.588-3.095
			c0.222-0.868,0.523-1.713,0.898-2.523c0.375-0.81,0.824-1.585,1.342-2.317c0.91-1.275,2.105-2.286,3.463-2.973
			c1.358-0.687,2.881-1.049,4.447-1.027c0.406-0.004,0.811,0.012,1.215,0.047c0.404,0.035,0.806,0.089,1.205,0.163
			c0.34,0.06,0.678,0.134,1.011,0.223s0.664,0.191,0.989,0.307c0.301,0.114,0.597,0.241,0.887,0.379
			c0.29,0.138,0.575,0.289,0.853,0.451c0.26,0.15,0.51,0.297,0.74,0.439c0.23,0.141,0.44,0.276,0.62,0.401v3.5v3.5h-0.315H29.64
			c-0.13-0.155-0.28-0.325-0.448-0.509c-0.168-0.184-0.352-0.381-0.552-0.591c-0.226-0.221-0.459-0.434-0.699-0.639
			s-0.487-0.402-0.741-0.591c-0.265-0.196-0.54-0.378-0.823-0.545c-0.284-0.167-0.577-0.319-0.877-0.455
			c-0.314-0.144-0.641-0.251-0.977-0.322c-0.335-0.07-0.679-0.104-1.023-0.098c-0.369-0.01-0.738,0.02-1.098,0.091
			c-0.361,0.07-0.714,0.18-1.052,0.329c-0.382,0.193-0.738,0.43-1.062,0.706c-0.324,0.275-0.615,0.589-0.868,0.934
			c-0.315,0.442-0.588,0.911-0.816,1.402c-0.228,0.49-0.41,1.002-0.544,1.528c-0.188,0.723-0.326,1.457-0.413,2.197
			c-0.086,0.74-0.122,1.486-0.107,2.233c-0.02,0.768,0.017,1.535,0.111,2.296c0.094,0.76,0.244,1.514,0.449,2.254
			c0.143,0.519,0.335,1.022,0.573,1.503c0.238,0.481,0.521,0.938,0.847,1.367c0.257,0.329,0.553,0.625,0.878,0.881
			c0.326,0.257,0.682,0.475,1.062,0.649c0.333,0.145,0.679,0.256,1.032,0.331c0.353,0.075,0.714,0.115,1.078,0.119
			c0.343,0.001,0.685-0.032,1.02-0.099c0.335-0.067,0.663-0.168,0.98-0.301c0.327-0.139,0.643-0.303,0.946-0.488
			c0.302-0.186,0.591-0.393,0.864-0.622c0.229-0.184,0.452-0.377,0.667-0.577s0.423-0.408,0.623-0.623
			c0.2-0.21,0.382-0.408,0.549-0.591c0.166-0.184,0.316-0.354,0.451-0.509h0.285h0.285v3.465v3.465
			c-0.265,0.16-0.515,0.318-0.765,0.47s-0.5,0.3-0.765,0.44c-0.243,0.144-0.491,0.278-0.745,0.402
			c-0.254,0.123-0.512,0.236-0.775,0.338c-0.325,0.127-0.655,0.243-0.989,0.346s-0.671,0.195-1.011,0.274
			c-0.411,0.082-0.827,0.141-1.244,0.176S23.109,64.943,22.69,64.93z"/>
		<path d="M49.61,64.36h-7.685H34.24v-14.5v-14.5h7.685h7.685v2.8v2.8h-4.96h-4.96v2.5v2.5h4.6h4.6v2.805v2.805h-4.6h-4.6v3.58v3.58
			h4.96h4.96v2.815V64.36z"/>
		<path d="M69.53,64.36h-7.665H54.2v-14.5v-14.5h2.745h2.745v11.7v11.7h4.92h4.92v2.8C69.53,61.56,69.53,64.36,69.53,64.36z"/>
		<path d="M88.16,64.36H80.5h-7.66v-14.5v-14.5h2.74h2.74v11.7v11.7h4.925h4.925l-0.005,2.8L88.16,64.36z"/>
		<path d="M22.23,31.31c-0.276-0.002-0.525-0.116-0.705-0.298c-0.18-0.182-0.29-0.433-0.288-0.709
			c0.001-0.105,0.018-0.208,0.05-0.306s0.08-0.192,0.142-0.276c3.213-4.327,7.353-7.768,12.038-10.131s9.914-3.648,15.303-3.66
			c5.266-0.015,10.385,1.199,14.99,3.461s8.694,5.572,11.9,9.749c0.182,0.208,0.262,0.47,0.245,0.725s-0.131,0.504-0.339,0.686
			c-0.208,0.182-0.47,0.262-0.725,0.245c-0.255-0.017-0.504-0.131-0.686-0.339c-0.014-0.015-0.027-0.031-0.039-0.048
			c-0.013-0.016-0.025-0.033-0.036-0.05c-3.02-3.93-6.869-7.044-11.202-9.173s-9.152-3.269-14.108-3.256
			c-5.074,0.015-9.995,1.227-14.404,3.455s-8.304,5.469-11.326,9.545c-0.098,0.124-0.221,0.221-0.36,0.286
			C22.541,31.281,22.387,31.314,22.23,31.31z"/>
		<path d="M48.77,84.07c-5.389-0.015-10.617-1.3-15.301-3.662c-4.684-2.363-8.825-5.803-12.039-10.128
			c-0.164-0.222-0.223-0.49-0.185-0.743c0.038-0.253,0.173-0.493,0.395-0.657c0.222-0.164,0.49-0.223,0.743-0.185
			c0.253,0.038,0.492,0.173,0.657,0.395l0,0l0,0c3.022,4.076,6.918,7.318,11.326,9.545s9.33,3.44,14.404,3.455
			c4.958,0.011,9.777-1.135,14.11-3.266s8.182-5.25,11.2-9.184c0.182-0.208,0.431-0.322,0.686-0.339
			c0.255-0.017,0.517,0.064,0.725,0.245c0.19,0.166,0.303,0.39,0.333,0.625s-0.023,0.48-0.164,0.689
			c-3.207,4.177-7.296,7.487-11.9,9.749C59.155,82.871,54.036,84.085,48.77,84.07z"/>
	</g>
</g>
</svg>
