<?xml version="1.0" encoding="iso-8859-1"?>
<!-- Generator: Adobe Illustrator 25.2.3, SVG Export Plug-In . SVG Version: 6.00 Build 0)  -->
<svg version="1.1" id="Layer_1" xmlns="http://www.w3.org/2000/svg" xmlns:xlink="http://www.w3.org/1999/xlink" x="0px" y="0px"
	 viewBox="0 0 100 100" style="enable-background:new 0 0 100 100;" xml:space="preserve">
<g id="Layer_2_1_">
	<g id="Layer_2-2">
		<path d="M50.485,78.445h-6.15h-6.15L32.875,68l-5.31-10.445h-2.34h-2.34V68v10.445h-5h-5V50V21.555h8.445h8.445
			c0.999-0.015,1.998,0.025,2.991,0.12c0.993,0.095,1.981,0.245,2.959,0.45c0.87,0.213,1.707,0.534,2.491,0.952
			c0.784,0.418,1.517,0.934,2.179,1.538c0.761,0.681,1.44,1.444,2.025,2.272c0.585,0.829,1.077,1.723,1.465,2.668
			c0.466,1.216,0.809,2.473,1.025,3.751c0.216,1.278,0.306,2.577,0.265,3.879c0.07,1.768-0.066,3.531-0.402,5.256
			c-0.336,1.725-0.871,3.411-1.598,5.024c-0.667,1.321-1.493,2.55-2.456,3.66c-0.963,1.11-2.061,2.102-3.274,2.95l6.52,12.185
			L50.485,78.445z M34.775,38.975c0.015-0.623-0.028-1.245-0.129-1.858c-0.101-0.613-0.258-1.216-0.471-1.802
			c-0.197-0.508-0.478-0.975-0.828-1.382c-0.35-0.408-0.769-0.756-1.242-1.028c-0.365-0.213-0.752-0.383-1.153-0.509
			s-0.816-0.207-1.237-0.241c-0.45-0.045-0.95-0.078-1.484-0.099s-1.101-0.031-1.686-0.031h-1.83h-1.83v7.66v7.66h1.545h1.545
			c0.671,0.011,1.341-0.013,2.009-0.069c0.668-0.057,1.332-0.147,1.991-0.271c0.528-0.108,1.031-0.299,1.492-0.564
			s0.88-0.604,1.238-1.006c0.34-0.381,0.64-0.795,0.896-1.233c0.256-0.438,0.469-0.903,0.634-1.387
			c0.19-0.622,0.331-1.257,0.421-1.899C34.746,40.274,34.786,39.625,34.775,38.975z"/>
		<path d="M87.115,39.555c0.004,1.259-0.072,2.516-0.226,3.764c-0.154,1.247-0.385,2.485-0.694,3.706
			c-0.25,1.092-0.597,2.157-1.035,3.182c-0.438,1.026-0.968,2.012-1.585,2.948c-0.675,1.023-1.455,1.968-2.327,2.819
			c-0.872,0.852-1.834,1.61-2.873,2.261c-1.091,0.607-2.255,1.06-3.457,1.349c-1.203,0.289-2.445,0.416-3.693,0.371h-3.13h-3.13
			V69.2v9.245h-5.04h-5.04V50V21.555h8.29h8.29c1.066-0.028,2.13,0.038,3.181,0.195c1.051,0.157,2.088,0.406,3.099,0.745
			c0.842,0.306,1.647,0.697,2.405,1.166c0.758,0.469,1.466,1.016,2.115,1.634c0.822,0.806,1.542,1.703,2.15,2.672
			c0.608,0.969,1.102,2.007,1.47,3.098c0.444,1.37,0.77,2.773,0.975,4.193C87.066,36.678,87.152,38.115,87.115,39.555z
			 M76.705,39.885c0.021-0.716-0.045-1.429-0.195-2.124c-0.15-0.695-0.382-1.372-0.695-2.016c-0.222-0.494-0.512-0.952-0.861-1.359
			c-0.349-0.408-0.755-0.765-1.209-1.061c-0.466-0.284-0.961-0.512-1.477-0.679c-0.515-0.168-1.05-0.276-1.593-0.321
			c-0.5-0.035-1.08-0.06-1.745-0.076s-1.415-0.024-2.255-0.024H65.82h-0.855v8.5v8.5h1.46h1.46c0.712,0.015,1.423-0.017,2.13-0.093
			c0.706-0.077,1.408-0.199,2.1-0.367c0.548-0.16,1.064-0.403,1.531-0.718c0.467-0.315,0.886-0.703,1.239-1.152
			c0.333-0.432,0.619-0.897,0.854-1.386c0.235-0.489,0.418-1.003,0.546-1.534c0.155-0.677,0.267-1.362,0.337-2.052
			s0.098-1.384,0.083-2.078v0.02V39.885z"/>
	</g>
</g>
</svg>
