<?xml version="1.0" encoding="iso-8859-1"?>
<!-- Generator: Adobe Illustrator 25.2.3, SVG Export Plug-In . SVG Version: 6.00 Build 0)  -->
<svg version="1.1" id="Layer_1" xmlns="http://www.w3.org/2000/svg" xmlns:xlink="http://www.w3.org/1999/xlink" x="0px" y="0px"
	 viewBox="0 0 100 100" style="enable-background:new 0 0 100 100;" xml:space="preserve">
<g id="Layer_2_1_">
	<g id="Layer_2-2">
		<path d="M35.59,44.77c0,0.636-0.056,1.27-0.167,1.894c-0.11,0.624-0.275,1.238-0.493,1.836c-0.205,0.563-0.471,1.101-0.791,1.604
			s-0.695,0.971-1.119,1.396c-0.54,0.543-1.131,1.029-1.764,1.453s-1.308,0.785-2.016,1.077c-0.829,0.312-1.684,0.54-2.553,0.684
			c-0.869,0.144-1.752,0.203-2.637,0.176h-2.275H19.5v4.62v4.62h-3.655H12.19V49.975V35.82h6h6c0.767-0.014,1.533,0.019,2.294,0.098
			c0.761,0.078,1.518,0.203,2.266,0.372c0.582,0.141,1.15,0.33,1.698,0.564c0.549,0.234,1.078,0.514,1.582,0.836
			c0.554,0.356,1.057,0.782,1.497,1.264c0.44,0.482,0.818,1.022,1.123,1.606c0.323,0.654,0.565,1.342,0.722,2.049
			C35.53,43.315,35.604,44.041,35.59,44.77z M28.03,44.93c0.009-0.369-0.043-0.735-0.151-1.083
			c-0.108-0.348-0.273-0.678-0.489-0.977c-0.191-0.266-0.418-0.503-0.672-0.705s-0.536-0.369-0.838-0.495
			c-0.354-0.149-0.72-0.267-1.093-0.352c-0.373-0.085-0.754-0.138-1.137-0.158c-0.36,0-0.78,0-1.261,0s-1.024,0-1.629,0h-0.63H19.5
			v4.235v4.235h1.05h1.05c0.514,0.008,1.028-0.008,1.54-0.046c0.512-0.038,1.023-0.1,1.53-0.184
			c0.367-0.063,0.723-0.172,1.059-0.325s0.653-0.349,0.941-0.585c0.225-0.196,0.423-0.419,0.591-0.662s0.306-0.508,0.409-0.788
			c0.123-0.338,0.215-0.686,0.275-1.039C28.005,45.648,28.034,45.29,28.03,44.93z"/>
		<path d="M61.19,64.18H50.98H40.77V50V35.82h3.66h3.66v11.435V58.69h6.55h6.55v2.745V64.18z"/>
		<path d="M87.81,41.31h-4.43h-4.43v11.435V64.18h-3.655H71.64V52.745V41.31h-4.425H62.79v-2.745V35.82h12.5h12.5l0.01,2.745
			L87.81,41.31z"/>
		<path d="M17.99,28.03c-0.111,0.003-0.221-0.014-0.324-0.05c-0.103-0.036-0.2-0.09-0.286-0.16c-0.219-0.167-0.35-0.407-0.385-0.661
			c-0.034-0.253,0.028-0.519,0.195-0.739c6.772-8.726,16.44-13.881,26.596-15.162s20.801,1.313,29.528,8.085
			c1.227,0.952,2.396,1.974,3.502,3.06c1.106,1.086,2.149,2.237,3.123,3.446c0.171,0.214,0.24,0.478,0.213,0.731
			c-0.027,0.253-0.15,0.496-0.363,0.669c-0.214,0.174-0.479,0.245-0.734,0.218c-0.255-0.026-0.499-0.15-0.673-0.364
			c-0.001-0.001-0.001-0.001-0.002-0.002c-0.001-0.001-0.001-0.001-0.002-0.002c-6.583-8.169-15.856-12.897-25.525-13.937
			s-19.735,1.61-27.906,8.195c-1.148,0.925-2.241,1.916-3.272,2.967c-1.031,1.051-2.001,2.161-2.905,3.326
			c-0.094,0.119-0.213,0.214-0.347,0.279C18.29,27.994,18.142,28.029,17.99,28.03z"/>
		<path d="M22.27,31.31c-0.108,0.001-0.214-0.014-0.315-0.047c-0.101-0.033-0.197-0.08-0.285-0.143
			c-0.222-0.164-0.357-0.402-0.395-0.655c-0.038-0.253,0.02-0.521,0.184-0.743c0,0,0-0.001,0.001-0.001s0-0.001,0.001-0.001
			c3.214-4.326,7.355-7.766,12.039-10.129s9.911-3.647,15.3-3.661c5.266-0.015,10.385,1.199,14.99,3.461s8.694,5.572,11.9,9.749
			c0.182,0.208,0.262,0.47,0.245,0.725c-0.017,0.255-0.131,0.504-0.339,0.686c-0.208,0.182-0.47,0.262-0.725,0.245
			c-0.255-0.017-0.504-0.131-0.686-0.339c-0.014-0.015-0.027-0.031-0.039-0.048c-0.013-0.016-0.025-0.033-0.036-0.05
			c-3.02-3.93-6.869-7.044-11.202-9.173S53.756,17.917,48.8,17.93c-5.074,0.015-9.995,1.227-14.404,3.455s-8.304,5.469-11.326,9.545
			c-0.096,0.122-0.219,0.218-0.356,0.283S22.426,31.312,22.27,31.31z"/>
		<path d="M48.8,89.07c-6.186,0.017-12.2-1.405-17.612-4.057S20.967,78.48,17.19,73.58c-0.17-0.218-0.236-0.483-0.205-0.737
			s0.159-0.496,0.377-0.666c0.001-0.001,0.003-0.002,0.004-0.003c0.001-0.001,0.003-0.002,0.004-0.003
			c0.218-0.168,0.484-0.232,0.737-0.199c0.253,0.033,0.494,0.162,0.663,0.379c6.427,8.295,15.607,13.2,25.255,14.424
			s19.762-1.232,28.058-7.658c1.168-0.905,2.281-1.876,3.334-2.909c1.053-1.034,2.046-2.128,2.973-3.278
			c0.171-0.217,0.414-0.343,0.668-0.373c0.254-0.03,0.52,0.038,0.736,0.209c0.001,0.001,0.002,0.001,0.003,0.002
			c0.001,0.001,0.002,0.001,0.003,0.002c0.215,0.173,0.34,0.417,0.368,0.671c0.028,0.254-0.042,0.519-0.215,0.735
			c-0.001,0.001-0.001,0.001-0.002,0.002c-0.001,0.001-0.001,0.001-0.002,0.002c-3.791,4.719-8.552,8.448-13.879,10.994
			S54.853,89.083,48.8,89.07z"/>
		<path d="M48.8,84.07c-5.389-0.015-10.616-1.301-15.3-3.663s-8.825-5.803-12.04-10.127c-0.164-0.222-0.223-0.49-0.185-0.743
			c0.038-0.253,0.173-0.492,0.395-0.657c0.222-0.164,0.49-0.223,0.743-0.185c0.253,0.038,0.492,0.173,0.657,0.395l0,0l0,0
			c3.022,4.076,6.918,7.318,11.326,9.545s9.33,3.44,14.404,3.455c4.958,0.011,9.777-1.135,14.11-3.266
			c4.334-2.132,8.182-5.25,11.2-9.184c0.155-0.229,0.388-0.373,0.639-0.421c0.251-0.048,0.521-0.001,0.75,0.154
			s0.373,0.388,0.421,0.639c0.048,0.251,0.001,0.521-0.154,0.75c-0.012,0.017-0.024,0.034-0.036,0.05s-0.026,0.032-0.039,0.048
			c-3.207,4.177-7.296,7.487-11.9,9.749C59.185,82.871,54.066,84.085,48.8,84.07z"/>
	</g>
</g>
</svg>
