<?xml version="1.0" encoding="utf-8"?>
<!-- Generator: Adobe Illustrator 25.3.1, SVG Export Plug-In . SVG Version: 6.00 Build 0)  -->
<svg version="1.1" id="Layer_1" xmlns="http://www.w3.org/2000/svg" xmlns:xlink="http://www.w3.org/1999/xlink" x="0px" y="0px"
	 viewBox="0 0 100 100" style="enable-background:new 0 0 100 100;" xml:space="preserve">

		<path d="M53.3,38.1c1.2-0.7,2-1.8,2.4-3c0.4-1.2,0.2-2.6-0.4-3.8s-1.8-2-3-2.4s-2.6-0.2-3.8,0.4s-2,1.8-2.4,3
			c-0.4,1.2-0.2,2.6,0.4,3.8c0.2,0.4,0.5,0.8,0.8,1.1c0.3,0.3,0.7,0.6,1.1,0.8l-6.3,20.6l-6.3,20.6l7.5-5.8l7.5-5.8l7.5,5.8l7.5,5.8
			l-6.3-20.6L53.3,38.1z M50.9,42.7l1.4,4.5l1.4,4.5h-2.7h-2.7l1.4-4.5L50.9,42.7z M42.8,69.3l1-3.2l1-3.2l1.6,1.2l1.5,1.2l-2.5,2
			L42.8,69.3z M50.8,63.1l-2.5-1.9l-2.5-1.9l0.6-1.9l0.6-1.9h3.8h3.8l0.6,1.9l0.6,1.9l-2.5,2L50.8,63.1z M57,62.9l1,3.2l1,3.2
			l-2.6-2l-2.6-2l1.6-1.2L57,62.9z"/>
		<path d="M25.8,49.7c-0.1,0-0.2,0-0.3,0c-0.1,0-0.2,0-0.3-0.1c-3.1-1.1-5.7-3-7.5-5.6c-1.8-2.5-2.9-5.6-2.9-8.9
			c0-3.3,1.1-6.3,2.9-8.8s4.4-4.5,7.5-5.5c0.5-0.2,1-0.1,1.4,0.1c0.4,0.2,0.8,0.6,0.9,1c0.2,0.5,0.1,1-0.1,1.4s-0.6,0.8-1,0.9
			c-2.3,0.8-4.3,2.3-5.7,4.2c-1.4,1.9-2.2,4.2-2.2,6.7c0,2.5,0.8,4.8,2.2,6.7c1.4,1.9,3.3,3.4,5.7,4.2c0.5,0.1,0.9,0.5,1.1,0.9
			c0.2,0.4,0.3,0.9,0.2,1.4c-0.1,0.4-0.4,0.8-0.7,1C26.7,49.6,26.3,49.7,25.8,49.7z"/>
		<path d="M35.9,44.7c-0.3,0-0.5-0.1-0.7-0.1s-0.4-0.2-0.6-0.4c-2.4-2.5-3.6-5.7-3.6-8.9s1.2-6.4,3.6-8.9c0.3-0.4,0.8-0.6,1.3-0.6
			c0.5,0,1,0.1,1.3,0.5c0.4,0.3,0.6,0.8,0.6,1.3s-0.1,1-0.5,1.3c0,0,0,0,0,0s0,0,0,0c-1.7,1.8-2.6,4.1-2.6,6.4
			c0,2.3,0.9,4.6,2.6,6.4c0.3,0.4,0.5,0.8,0.5,1.3c0,0.5-0.2,0.9-0.6,1.3c-0.2,0.2-0.4,0.3-0.6,0.4C36.4,44.6,36.2,44.7,35.9,44.7z"
			/>
		<path d="M75.9,49.7c0.1,0,0.2,0,0.3,0c0.1,0,0.2,0,0.3-0.1c3.1-1.1,5.7-3,7.5-5.6c1.8-2.5,2.9-5.6,2.9-8.9c0-3.3-1.1-6.3-2.9-8.8
			s-4.4-4.5-7.5-5.5c-0.5-0.2-1-0.1-1.4,0.1c-0.4,0.2-0.8,0.6-0.9,1c-0.2,0.5-0.1,1,0.1,1.4c0.2,0.4,0.6,0.8,1,0.9l0,0l0,0
			c2.3,0.8,4.3,2.3,5.7,4.2s2.2,4.2,2.2,6.7c0,2.5-0.8,4.8-2.2,6.7s-3.4,3.4-5.7,4.2c-0.5,0.1-0.9,0.5-1.1,0.9
			c-0.2,0.4-0.3,0.9-0.2,1.4c0.1,0.4,0.4,0.8,0.7,1C75,49.6,75.4,49.7,75.9,49.7z"/>
		<path d="M65.8,44.7c0.3,0,0.5-0.1,0.8-0.2c0.2-0.1,0.4-0.3,0.6-0.5c2.4-2.5,3.6-5.7,3.6-8.9s-1.2-6.4-3.6-8.9
			c-0.4-0.4-0.8-0.6-1.3-0.6c-0.5,0-1,0.2-1.3,0.5S64,27,63.9,27.4c0,0.5,0.2,1,0.5,1.3l0,0l0,0c1.7,1.8,2.6,4.1,2.6,6.4
			c0,2.3-0.9,4.6-2.6,6.4c-0.4,0.3-0.6,0.8-0.6,1.3s0.2,0.9,0.5,1.3c0.2,0.2,0.4,0.3,0.6,0.4C65.3,44.6,65.5,44.7,65.8,44.7z"/>
		<path d="M35,77.9h-1.6h-1.6V67.3V56.7l-3.4,7.2l-3.4,7.2h-1h-1l-3.4-7.2l-3.4-7.2v10.6v10.6h-1.5h-1.5V65.6V53.3h2.2h2.2l3.3,6.8
			l3.3,6.8l3.2-6.8l3.2-6.8h2.3H35l0,12.3L35,77.9z"/>
		<path d="M86.9,60.7c0,0.5,0,1-0.1,1.5c-0.1,0.5-0.2,1-0.4,1.5c-0.2,0.5-0.4,0.9-0.7,1.3s-0.6,0.8-0.9,1.1
			c-0.4,0.4-0.9,0.8-1.4,1.1c-0.5,0.3-1,0.6-1.6,0.8c-0.7,0.2-1.4,0.4-2.2,0.5c-0.7,0.1-1.5,0.1-2.2,0.1h-1.6H74v4.6v4.6h-1.6h-1.6
			V65.6V53.3h3.3h3.3c0.6,0,1.3,0,1.9,0.1c0.6,0.1,1.2,0.2,1.9,0.3c0.5,0.1,1,0.3,1.4,0.5s0.9,0.4,1.3,0.7c0.5,0.3,0.9,0.6,1.3,1
			c0.4,0.4,0.7,0.8,1,1.3c0.3,0.6,0.5,1.1,0.6,1.7C86.8,59.5,86.9,60.1,86.9,60.7z M83.5,60.8c0-0.4,0-0.8-0.1-1.1
			c-0.1-0.4-0.2-0.7-0.3-1.1c-0.2-0.3-0.3-0.6-0.6-0.9c-0.2-0.3-0.5-0.5-0.8-0.7c-0.3-0.2-0.6-0.3-0.9-0.4c-0.3-0.1-0.6-0.2-0.9-0.3
			c-0.4-0.1-0.8-0.1-1.3-0.2s-0.9-0.1-1.3,0h-1.6H74V61v4.9h1.4h1.4c0.5,0,1.1,0,1.6-0.1c0.5-0.1,1.1-0.2,1.6-0.3
			c0.4-0.1,0.7-0.3,1.1-0.4s0.6-0.4,0.9-0.7c0.2-0.2,0.5-0.5,0.6-0.8s0.3-0.6,0.5-0.9c0.1-0.3,0.2-0.6,0.2-1
			C83.4,61.4,83.5,61.1,83.5,60.8z"/>

</svg>
