<?xml version="1.0" encoding="utf-8"?>
<svg version="1.1" id="Layer_1" xmlns="http://www.w3.org/2000/svg" xmlns:xlink="http://www.w3.org/1999/xlink" x="0px" y="0px"
	 viewBox="0 0 100 100" style="enable-background:new 0 0 100 100;" xml:space="preserve">
<path d="M53.1,38.1c2.4-1.3,3.3-4.4,2-6.8s-4.4-3.3-6.8-2s-3.3,4.4-2,6.8c0.5,0.8,1.1,1.5,2,2L35.7,79.3l14.9-11.6l15,11.6
	L53.1,38.1z M50.7,42.7l2.7,9H48L50.7,42.7z M42.6,69.3l1.9-6.3l3.1,2.4L42.6,69.3z M50.6,63.1l-5-3.8l1.2-3.9h7.7l1.1,3.7
	L50.6,63.1z M56.8,62.9l2,6.5l-5.2-4L56.8,62.9z"/>
<path d="M25.7,49.7c-0.2,0-0.4,0-0.6-0.1c-6.2-2.1-10.3-7.9-10.4-14.4c0.1-6.5,4.2-12.3,10.4-14.4c1-0.3,2,0.2,2.3,1.1
	c0.3,1-0.2,2-1.1,2.3c-4.7,1.6-7.9,6-7.9,10.9c0.1,4.9,3.2,9.3,7.9,10.9c1,0.3,1.6,1.3,1.3,2.3C27.3,49.1,26.5,49.7,25.7,49.7z"/>
<path d="M35.8,44.7c-0.5,0-1-0.2-1.3-0.6c-4.8-5-4.8-12.8,0-17.8c0.7-0.7,1.9-0.7,2.6,0c0.7,0.7,0.7,1.8,0.1,2.5
	c-3.5,3.5-3.5,9.2,0,12.7c0.7,0.7,0.7,1.9-0.1,2.6C36.7,44.5,36.3,44.6,35.8,44.7z"/>
<path d="M75.7,49.7c0.2,0,0.4,0,0.6-0.1c6.2-2.1,10.3-7.9,10.4-14.4c-0.1-6.5-4.2-12.3-10.4-14.4c-1-0.3-2,0.2-2.3,1.1
	s0.2,2,1.1,2.3c4.7,1.6,7.9,6,7.9,10.9c-0.1,4.9-3.2,9.3-7.9,10.9c-1,0.3-1.6,1.3-1.3,2.3C74.1,49.1,74.8,49.7,75.7,49.7z"/>
<path d="M65.6,44.7c0.5,0,1-0.2,1.3-0.6c4.8-5,4.8-12.8,0-17.8c-0.7-0.8-1.8-0.8-2.6-0.1c-0.8,0.7-0.8,1.8-0.1,2.6l0.1,0.1
	c3.5,3.5,3.5,9.2,0,12.7c-0.7,0.7-0.7,1.9,0.1,2.6C64.7,44.5,65.1,44.6,65.6,44.7z"/>
<path d="M34.4,77.9h-3.3V56.7l-6.8,14.4h-2l-6.7-14.4v21.2h-3.1V53.3H17L23.5,67l6.4-13.7h4.5V77.9z"/>
<path d="M87.5,70.7c0,1.1-0.2,2.2-0.7,3.2c-0.4,0.9-1.1,1.7-1.9,2.3c-0.9,0.7-1.9,1.2-3,1.5c-1.4,0.3-2.8,0.5-4.2,0.5h-8.8V53.7h7.3
	c1.3,0,2.7,0,4,0.2c0.9,0.1,1.8,0.4,2.6,0.8c0.8,0.4,1.5,1,2,1.8c0.4,0.8,0.6,1.7,0.6,2.7c0,1.1-0.3,2.1-0.9,3
	c-0.6,0.8-1.4,1.5-2.4,2v0.1c1.5,0.3,2.9,1,3.9,2.2C87,67.7,87.6,69.2,87.5,70.7z M82,59.7c0-0.5-0.1-1-0.3-1.5
	c-0.2-0.4-0.6-0.8-1-1c-0.6-0.3-1.2-0.5-1.9-0.5c-0.7-0.1-1.7-0.1-2.8-0.1h-3.9v7.1h4.3c0.8,0,1.6,0,2.4-0.2
	c0.6-0.1,1.2-0.3,1.7-0.7c0.5-0.3,0.9-0.8,1.1-1.3C81.9,60.9,82,60.3,82,59.7z M84.1,70.9c0-0.8-0.1-1.6-0.4-2.4
	c-0.4-0.7-0.9-1.2-1.6-1.5c-0.6-0.3-1.3-0.5-1.9-0.5c-0.9-0.1-1.8-0.1-2.8-0.1h-5.1v9.2h4.3c1.2,0,2.4-0.1,3.5-0.2
	c0.8-0.1,1.6-0.4,2.2-0.8s1-0.9,1.4-1.5C84,72.3,84.1,71.6,84.1,70.9L84.1,70.9z"/>
</svg>
