<?xml version="1.0" encoding="utf-8"?>
<!-- Generator: Adobe Illustrator 25.2.0, SVG Export Plug-In . SVG Version: 6.00 Build 0)  -->
<svg version="1.1" id="Layer_1" xmlns="http://www.w3.org/2000/svg" xmlns:xlink="http://www.w3.org/1999/xlink" x="0px" y="0px"
	 viewBox="0 0 100 100" style="enable-background:new 0 0 100 100;" xml:space="preserve">
<path d="M52.4,38.1c2.4-1.3,3.3-4.4,2-6.8c-1.3-2.4-4.4-3.3-6.8-2c-2.4,1.3-3.3,4.4-2,6.8c0.5,0.8,1.1,1.5,2,2L35,79.3l15-11.6
	l15,11.6L52.4,38.1z M50,42.7l2.7,9h-5.5L50,42.7z M41.9,69.3l1.9-6.3l3.2,2.4L41.9,69.3z M49.9,63.1L45,59.2l1.2-3.9h7.7l1.1,3.7
	L49.9,63.1z M56.1,62.9l2,6.5l-5.2-4L56.1,62.9z"/>
<path d="M25,49.7c-0.2,0-0.4,0-0.6-0.1C18.2,47.4,14,41.7,14,35.1c0.1-6.5,4.2-12.3,10.4-14.4c1-0.3,2,0.2,2.3,1.1
	c0.3,1-0.2,2-1.1,2.3c-4.7,1.6-7.9,6-7.9,10.9c0.1,4.9,3.2,9.3,7.9,10.9c1,0.3,1.6,1.3,1.3,2.3C26.6,49.1,25.9,49.7,25,49.7z"/>
<path d="M35.1,44.7c-0.5,0-1-0.2-1.3-0.6c-4.8-5-4.8-12.8,0-17.8c0.7-0.8,1.8-0.8,2.6-0.1c0.8,0.7,0.8,1.8,0.1,2.6
	c0,0-0.1,0.1-0.1,0.1c-3.5,3.5-3.5,9.2,0,12.7c0.7,0.7,0.7,1.9-0.1,2.6C36,44.5,35.6,44.6,35.1,44.7z"/>
<path d="M75,49.7c0.2,0,0.4,0,0.6-0.1c6.2-2.1,10.3-7.9,10.4-14.4c-0.1-6.5-4.2-12.3-10.4-14.4c-1-0.3-2,0.2-2.3,1.1s0.2,2,1.1,2.3
	c4.7,1.6,7.9,6,7.9,10.9c-0.1,4.9-3.2,9.3-7.9,10.9c-1,0.3-1.5,1.3-1.3,2.3C73.4,49.1,74.1,49.7,75,49.7z"/>
<path d="M64.9,44.7c0.5,0,1-0.2,1.3-0.6c4.8-5,4.8-12.8,0-17.8c-0.6-0.8-1.7-1-2.6-0.4c-0.8,0.6-1,1.7-0.4,2.6
	c0.1,0.1,0.2,0.3,0.4,0.4c3.5,3.5,3.5,9.2,0,12.7c-0.7,0.7-0.7,1.9,0.1,2.6C64,44.4,64.4,44.6,64.9,44.7z"/>
</svg>
