<?xml version="1.0" encoding="utf-8"?>
<!-- Generator: Adobe Illustrator 25.2.0, SVG Export Plug-In . SVG Version: 6.00 Build 0)  -->
<svg version="1.1" id="Layer_1" xmlns="http://www.w3.org/2000/svg" xmlns:xlink="http://www.w3.org/1999/xlink" x="0px" y="0px"
	 viewBox="0 0 100 100" style="enable-background:new 0 0 100 100;" xml:space="preserve">
<path d="M52.9,38.1c2.4-1.3,3.3-4.4,2-6.8s-4.4-3.3-6.8-2s-3.3,4.4-2,6.8c0.5,0.8,1.1,1.5,2,2L35.5,79.3l14.9-11.6l15,11.6
	L52.9,38.1z M50.5,42.7l2.7,9h-5.5L50.5,42.7z M42.4,69.3l2-6.3l3.1,2.4L42.4,69.3z M50.4,63.1l-4.9-3.8l1.2-3.9h7.7l1.1,3.7
	L50.4,63.1z M56.6,62.9l2,6.5l-5.2-4L56.6,62.9z"/>
<path d="M25.4,49.7c-0.2,0-0.4,0-0.6-0.1c-6.2-2.1-10.3-7.9-10.4-14.4c0.1-6.5,4.2-12.3,10.4-14.4c1-0.3,2,0.2,2.3,1.1
	c0.3,1-0.2,2-1.1,2.3c-4.7,1.6-7.9,6-7.9,10.9C18.2,40,21.3,44.4,26,46c1,0.3,1.5,1.4,1.1,2.3C26.9,49.1,26.2,49.6,25.4,49.7z"/>
<path d="M35.5,44.7c-0.5,0-1-0.2-1.3-0.6c-4.8-5-4.8-12.8,0-17.8c0.6-0.8,1.8-0.9,2.6-0.2c0.8,0.6,0.9,1.8,0.2,2.6
	c-0.1,0.1-0.1,0.1-0.2,0.2c-3.4,3.5-3.4,9.2,0,12.7c0.7,0.7,0.7,1.9,0,2.6C36.5,44.5,36,44.7,35.5,44.7z"/>
<path d="M75.5,49.7c0.2,0,0.4,0,0.6-0.1c6.2-2.1,10.3-7.9,10.4-14.4c-0.1-6.5-4.2-12.3-10.4-14.4c-1-0.3-2,0.2-2.3,1.1
	c-0.3,1,0.2,2,1.1,2.3l0,0c4.7,1.6,7.9,6,7.9,10.9c-0.1,4.9-3.2,9.3-7.9,10.9c-1,0.3-1.5,1.4-1.1,2.3C74,49.1,74.7,49.6,75.5,49.7z"
	/>
<path d="M65.3,44.7c0.5,0,1-0.2,1.3-0.6c4.8-5,4.8-12.8,0-17.8c-0.6-0.8-1.8-0.9-2.6-0.2c-0.8,0.6-0.9,1.8-0.2,2.6
	c0.1,0.1,0.1,0.1,0.2,0.2c3.4,3.5,3.4,9.2,0,12.7c-0.7,0.7-0.7,1.9,0,2.6C64.4,44.5,64.9,44.7,65.3,44.7z"/>
<path d="M32.6,77.9h-3.5L26.7,71H16.1l-2.4,6.9h-3.3l9-24.6h4.4L32.6,77.9z M25.7,68.2l-4.3-12.1l-4.3,12.1H25.7z"/>
<path d="M89.7,77.9h-3.3V56.7l-6.8,14.4h-2l-6.8-14.4v21.2h-3V53.3h4.5L78.8,67l6.3-13.7h4.5L89.7,77.9z"/>
</svg>
