<?xml version="1.0" encoding="utf-8"?>
<!-- Generator: Adobe Illustrator 25.2.0, SVG Export Plug-In . SVG Version: 6.00 Build 0)  -->
<svg version="1.1" id="Layer_1" xmlns="http://www.w3.org/2000/svg" xmlns:xlink="http://www.w3.org/1999/xlink" x="0px" y="0px"
	 viewBox="0 0 100 100" style="enable-background:new 0 0 100 100;" xml:space="preserve">
<path d="M52.9,38.1c2.4-1.3,3.3-4.4,2-6.8c-1.3-2.4-4.4-3.3-6.8-2s-3.3,4.4-2,6.8c0.5,0.8,1.1,1.5,2,2L35.5,79.3l14.9-11.6l15,11.6
	L52.9,38.1z M50.5,42.7l2.7,9h-5.5L50.5,42.7z M42.4,69.3l1.9-6.3l3.1,2.4L42.4,69.3z M50.4,63.1l-5-3.8l1.2-3.9h7.7l1.1,3.7
	L50.4,63.1z M56.6,62.9l2,6.5l-5.2-4L56.6,62.9z"/>
<path d="M25.5,49.7c-0.2,0-0.4,0-0.6-0.1c-6.2-2.1-10.3-7.9-10.4-14.4c0.1-6.5,4.2-12.3,10.4-14.4c1-0.3,2,0.1,2.4,1.1
	c0.3,1-0.1,2-1.1,2.4c-4.7,1.6-7.9,5.9-8,10.9c0.1,5,3.3,9.3,8,10.9c1,0.3,1.6,1.3,1.3,2.3C27.2,49.2,26.4,49.7,25.5,49.7z"/>
<path d="M35.6,44.7c-0.5,0-1-0.2-1.3-0.6c-4.8-5-4.8-12.8,0-17.8c0.7-0.7,1.9-0.7,2.6,0c0.7,0.7,0.7,1.8,0.1,2.5
	c-3.5,3.5-3.5,9.2,0,12.7c0.7,0.7,0.7,1.9-0.1,2.6C36.5,44.5,36.1,44.6,35.6,44.7z"/>
<path d="M75.5,49.7c0.2,0,0.4,0,0.6-0.1c6.2-2.1,10.3-7.9,10.4-14.4c-0.1-6.5-4.2-12.3-10.4-14.4c-1-0.3-2,0.2-2.3,1.1
	s0.2,2,1.1,2.3l0,0c4.7,1.6,7.9,6,7.9,10.9c-0.1,4.9-3.2,9.3-7.9,10.9c-1,0.3-1.6,1.3-1.3,2.3C73.9,49.1,74.7,49.7,75.5,49.7z"/>
<path d="M65.4,44.7c0.5,0,1-0.2,1.3-0.6c4.8-5,4.8-12.8,0-17.8c-0.6-0.9-1.7-1.1-2.5-0.5c-0.9,0.6-1.1,1.7-0.5,2.5
	c0.1,0.2,0.3,0.3,0.4,0.5c3.5,3.5,3.5,9.2,0,12.7c-0.7,0.7-0.7,1.9,0.1,2.6C64.5,44.4,65,44.6,65.4,44.7z"/>
<path d="M34,77.9h-3.3V56.7l-6.8,14.4h-2l-6.7-14.4v21.2h-3.1V53.3h4.5L23.1,67l6.4-13.7H34L34,77.9z"/>
<path d="M87.9,75.7l-1.6,0.7c-0.6,0.3-1.2,0.5-1.9,0.7c-0.7,0.2-1.4,0.4-2.1,0.5c-0.8,0.2-1.7,0.2-2.5,0.2c-1.6,0-3.2-0.2-4.7-0.7
	c-1.4-0.5-2.6-1.2-3.7-2.3c-1.1-1.1-1.9-2.4-2.4-3.8c-0.6-1.7-0.9-3.6-0.9-5.4c0-1.8,0.3-3.6,0.8-5.2c0.5-1.5,1.3-2.8,2.4-3.9
	c1-1,2.3-1.9,3.7-2.4c1.5-0.6,3.1-0.8,4.8-0.8c1.3,0,2.6,0.2,3.8,0.5c1.5,0.4,2.9,0.9,4.2,1.6v3.8h-0.2c-1.2-1-2.5-1.8-3.9-2.4
	c-1.3-0.5-2.7-0.8-4.1-0.8c-1.1,0-2.2,0.2-3.2,0.6c-1,0.4-1.9,1-2.6,1.8c-0.8,0.9-1.4,1.9-1.7,3c-0.4,1.4-0.6,2.8-0.6,4.2
	c0,1.5,0.2,2.9,0.7,4.3c0.4,1.1,1,2.1,1.8,2.9c0.7,0.8,1.6,1.4,2.6,1.7c1,0.4,2.1,0.6,3.1,0.6c1.5,0,2.9-0.3,4.3-0.8
	c1.4-0.5,2.6-1.3,3.7-2.3h0.2L87.9,75.7z"/>
</svg>
