<?xml version="1.0" encoding="utf-8"?>
<!-- Generator: Adobe Illustrator 25.2.0, SVG Export Plug-In . SVG Version: 6.00 Build 0)  -->
<svg version="1.1" id="Layer_1" xmlns="http://www.w3.org/2000/svg" xmlns:xlink="http://www.w3.org/1999/xlink" x="0px" y="0px"
	 viewBox="0 0 100 100" style="enable-background:new 0 0 100 100;" xml:space="preserve">
<path d="M51.4,38.1c2.4-1.3,3.3-4.4,2-6.8s-4.4-3.3-6.8-2s-3.3,4.4-2,6.8c0.5,0.8,1.1,1.5,2,2L33.9,79.3l15-11.6l15,11.6L51.4,38.1z
	 M48.9,42.7l2.7,9h-5.5L48.9,42.7z M40.9,69.3l1.9-6.3l3.2,2.4L40.9,69.3z M48.9,63.1L44,59.3l1.2-3.9h7.7l1.1,3.7L48.9,63.1z
	 M55.1,62.9l2,6.5l-5.2-4L55.1,62.9z"/>
<path d="M23.9,49.7c-0.2,0-0.4,0-0.6-0.1c-6.2-2.1-10.3-7.9-10.4-14.4c0.1-6.5,4.2-12.3,10.4-14.4c1-0.3,2,0.2,2.3,1.1
	c0.3,1-0.2,2-1.1,2.3c-4.7,1.6-7.9,6-7.9,10.9c0.1,4.9,3.2,9.3,7.9,10.9c1,0.3,1.6,1.3,1.3,2.3C25.6,49.1,24.8,49.7,23.9,49.7z"/>
<path d="M34,44.7c-0.5,0-1-0.2-1.3-0.6c-4.8-5-4.8-12.8,0-17.8c0.7-0.8,1.8-0.8,2.6-0.1c0.8,0.7,0.8,1.8,0.1,2.6l-0.1,0.1
	c-3.5,3.5-3.5,9.2,0,12.7c0.7,0.7,0.7,1.9-0.1,2.6C35,44.5,34.5,44.6,34,44.7z"/>
<path d="M73.9,49.7c0.2,0,0.4,0,0.6-0.1c6.2-2.1,10.3-7.9,10.4-14.4c-0.1-6.5-4.2-12.3-10.4-14.4c-1-0.3-2,0.2-2.3,1.1
	c-0.3,1,0.2,2,1.1,2.3c4.7,1.6,7.9,6,7.9,10.9C81.1,40,78,44.4,73.3,46c-1,0.3-1.5,1.3-1.3,2.3C72.3,49.1,73.1,49.7,73.9,49.7z"/>
<path d="M63.9,44.7c0.5,0,1-0.2,1.3-0.6c4.8-5,4.8-12.8,0-17.8c-0.6-0.8-1.7-1-2.6-0.4c-0.8,0.6-1,1.7-0.4,2.6
	c0.1,0.1,0.2,0.3,0.4,0.4c3.5,3.5,3.5,9.2,0,12.7c-0.7,0.7-0.7,1.9,0.1,2.6C62.9,44.4,63.4,44.6,63.9,44.7z"/>
<path d="M87.1,75.7l-1.6,0.7c-0.6,0.3-1.2,0.5-1.8,0.7c-0.7,0.2-1.4,0.4-2.1,0.5c-0.8,0.2-1.7,0.2-2.5,0.2c-1.6,0-3.2-0.2-4.7-0.7
	c-1.4-0.5-2.6-1.2-3.7-2.3c-1.1-1.1-1.9-2.4-2.4-3.8c-0.6-1.7-0.9-3.6-0.9-5.4c0-1.8,0.3-3.6,0.8-5.2c0.5-1.5,1.3-2.8,2.4-3.9
	c1-1,2.3-1.9,3.7-2.4c1.5-0.6,3.1-0.8,4.8-0.8c1.3,0,2.6,0.2,3.8,0.5c1.5,0.4,2.9,0.9,4.2,1.6v3.8h-0.2c-1.2-1-2.5-1.8-3.9-2.4
	c-1.3-0.5-2.7-0.8-4.1-0.8c-1.1,0-2.2,0.2-3.2,0.6c-1,0.4-1.9,1-2.6,1.8c-0.8,0.9-1.4,1.9-1.7,3c-0.4,1.4-0.6,2.8-0.6,4.2
	c0,1.5,0.2,2.9,0.7,4.3c0.4,1.1,1,2.1,1.8,2.9c0.7,0.8,1.6,1.4,2.6,1.7c1,0.4,2.1,0.6,3.2,0.6c1.5,0,2.9-0.3,4.3-0.8S86,73,87.1,72
	H87L87.1,75.7z"/>
</svg>
