<?xml version="1.0" encoding="utf-8"?>
<!-- Generator: Adobe Illustrator 25.2.0, SVG Export Plug-In . SVG Version: 6.00 Build 0)  -->
<svg version="1.1" id="Layer_1" xmlns="http://www.w3.org/2000/svg" xmlns:xlink="http://www.w3.org/1999/xlink" x="0px" y="0px"
	 viewBox="0 0 100 100" style="enable-background:new 0 0 100 100;" xml:space="preserve">
<path d="M50.8,38.1c2.4-1.3,3.3-4.4,1.9-6.8s-4.4-3.3-6.8-1.9s-3.3,4.4-1.9,6.8c0.5,0.8,1.1,1.5,1.9,1.9L33.4,79.3l14.9-11.6
	l15.1,11.6L50.8,38.1z M48.4,42.7l2.7,9h-5.5L48.4,42.7z M40.3,69.3l1.9-6.3l3.1,2.4L40.3,69.3z M48.3,63.1l-4.9-3.8l1.2-3.9h7.7
	l1.1,3.7L48.3,63.1z M54.5,62.9l2,6.5l-5.2-4L54.5,62.9z"/>
<path d="M23.4,49.7c-0.2,0-0.4,0-0.6-0.1c-6.2-2.1-10.3-7.9-10.4-14.4c0.1-6.5,4.2-12.3,10.4-14.4c1-0.3,2,0.2,2.3,1.1
	c0.3,1-0.2,2-1.1,2.3c-4.7,1.6-7.9,6-7.9,10.9C16.2,40,19.3,44.4,24,46c1,0.3,1.5,1.3,1.3,2.3C25,49.1,24.2,49.7,23.4,49.7z"/>
<path d="M33.4,44.7c-0.5,0-1-0.2-1.3-0.6c-4.8-5-4.8-12.8,0-17.8c0.7-0.7,1.9-0.7,2.6,0c0.7,0.7,0.7,1.8,0.1,2.5
	c-3.5,3.5-3.5,9.2,0,12.7c0.7,0.7,0.7,1.9,0,2.6C34.4,44.5,33.9,44.7,33.4,44.7z"/>
<path d="M73.4,49.7c0.2,0,0.4,0,0.6-0.1c6.2-2.1,10.3-7.9,10.4-14.4c-0.1-6.5-4.2-12.3-10.4-14.4c-1-0.3-2,0.2-2.3,1.1
	s0.2,2,1.1,2.3c4.7,1.6,7.9,6,7.9,10.9c-0.1,4.9-3.2,9.3-7.9,10.9c-1,0.3-1.6,1.3-1.3,2.3C71.7,49.1,72.5,49.7,73.4,49.7z"/>
<path d="M63.3,44.7c0.5,0,1-0.2,1.3-0.6c4.8-5,4.8-12.8,0-17.8c-0.7-0.8-1.8-0.8-2.6-0.1c-0.8,0.7-0.8,1.8-0.1,2.6l0.1,0.1
	c3.4,3.5,3.4,9.2,0,12.7c-0.7,0.7-0.7,1.9,0,2.6C62.3,44.5,62.8,44.7,63.3,44.7z"/>
<path d="M90.6,53.3l-6.4,24.6h-3.7l-5.2-20.4l-5,20.4h-3.7l-6.5-24.6h3.4l5.2,20.5l5.1-20.5h3.3L82.2,74l5.1-20.7H90.6z"/>
<path d="M31.3,77.9H28V56.7l-6.8,14.4h-2l-6.7-14.4v21.2H9.4V53.3h4.5L20.4,67l6.4-13.7h4.5V77.9z"/>
</svg>
