<?xml version="1.0" encoding="utf-8"?>
<!-- Generator: Adobe Illustrator 25.3.1, SVG Export Plug-In . SVG Version: 6.00 Build 0)  -->
<svg version="1.1" id="Layer_1" xmlns="http://www.w3.org/2000/svg" xmlns:xlink="http://www.w3.org/1999/xlink" x="0px" y="0px"
	 viewBox="0 0 100 100" style="enable-background:new 0 0 100 100;" xml:space="preserve">
<polygon style="fill:#B3B3B4;" points="50,24.7 96.1,50 50,75.4 3.4,50 "/>

		<path d="M76,79V64.1h8v2.5h-5.7v3.5h4.9v2.5h-4.9V79H76z"/>
	
			<path d="M29.2,62V39.7h8.4c8.4,0,12.6,3.6,12.6,10.9c0,3.5-1.1,6.2-3.4,8.3C44.5,61,41.4,62,37.6,62C37.6,62,29.2,62,29.2,62z
				 M34.5,43.8v14.1h2.6c2.3,0,4.1-0.7,5.4-2c1.3-1.3,2-3.1,2-5.3c0-2.1-0.7-3.8-2-5s-3.1-1.8-5.5-1.8C37,43.8,34.5,43.8,34.5,43.8z
				"/>
		
			<path d="M54.3,62V39.7h8.4c8.4,0,12.6,3.6,12.6,10.9c0,3.5-1.1,6.2-3.4,8.3S66.5,62,62.7,62C62.7,62,54.3,62,54.3,62z M59.6,43.8
				v14.1h2.6c2.3,0,4.1-0.7,5.4-2s2-3.1,2-5.3c0-2.1-0.7-3.8-2-5s-3.1-1.8-5.5-1.8C62.1,43.8,59.6,43.8,59.6,43.8z"/>
		
<polygon points="88.4,76.4 88.4,64 85.7,64 85.7,76.4 85.7,79.1 88.9,79.1 94.4,79.1 94.4,76.4 "/>
</svg>
