<?xml version="1.0" encoding="utf-8"?>
<!-- Generator: Adobe Illustrator 25.2.0, SVG Export Plug-In . SVG Version: 6.00 Build 0)  -->
<svg version="1.1" id="Layer_1" xmlns="http://www.w3.org/2000/svg" xmlns:xlink="http://www.w3.org/1999/xlink" x="0px" y="0px"
	 viewBox="0 0 100 100" style="enable-background:new 0 0 100 100;" xml:space="preserve">
<polygon style="fill:#B3B3B4;" points="50,24.7 96.1,50 50,75.4 3.4,50 "/>
<g>
	<g>
		<path d="M38.2,63.6V36.1H50c11.8,0,17.7,4.5,17.7,13.4c0,4.3-1.6,7.7-4.8,10.2c-3.2,2.6-7.5,3.8-12.9,3.8H38.2z M45.7,41.2v17.4
			h3.7c3.2,0,5.8-0.8,7.6-2.4c1.8-1.6,2.8-3.8,2.8-6.6c0-2.6-0.9-4.7-2.7-6.2c-1.8-1.5-4.4-2.2-7.7-2.2H45.7z"/>
	</g>
</g>
</svg>
