<?xml version="1.0" encoding="utf-8"?>
<!-- Generator: Adobe Illustrator 25.2.0, SVG Export Plug-In . SVG Version: 6.00 Build 0)  -->
<svg version="1.1" id="Layer_1" xmlns="http://www.w3.org/2000/svg" xmlns:xlink="http://www.w3.org/1999/xlink" x="0px" y="0px"
	 viewBox="0 0 100 100" style="enable-background:new 0 0 100 100;" xml:space="preserve">
<polygon style="fill:#B3B3B4;" points="50,24.7 96.1,50 50,75.4 3.4,50 "/>
<g>
	<g>
		<g>
			<path d="M48.5,62.2h-5.4v-9.1h-9.8v9.1H28V39.8h5.3v8.9h9.8v-8.9h5.4V62.2z"/>
		</g>
	</g>
	<g>
		<g>
			<path d="M55.3,62.2V39.8h8.4c8.4,0,12.6,3.6,12.6,10.9c0,3.5-1.1,6.2-3.4,8.3c-2.3,2.1-5.4,3.1-9.2,3.1H55.3z M60.6,43.9v14.1
				h2.6c2.3,0,4.1-0.7,5.4-2c1.3-1.3,2-3.1,2-5.3c0-2.1-0.7-3.8-2-5c-1.3-1.2-3.1-1.8-5.5-1.8H60.6z"/>
		</g>
	</g>
	<g>
		<path d="M50.1,40.3c-3.8,0-6.9-3.1-6.9-6.9c0-3.8,3.1-6.9,6.9-6.9s6.9,3.1,6.9,6.9C57.1,37.2,54,40.3,50.1,40.3z M50.1,27.4
			c-3.3,0-5.9,2.7-5.9,5.9s2.7,5.9,5.9,5.9s5.9-2.7,5.9-5.9S53.4,27.4,50.1,27.4z"/>
	</g>
	<circle cx="50.1" cy="36.9" r="1.9"/>
	<rect x="49.4" y="29.9" width="1.4" height="5.5"/>
</g>
</svg>
