<?xml version="1.0" encoding="utf-8"?>
<!-- Generator: Adobe Illustrator 25.2.0, SVG Export Plug-In . SVG Version: 6.00 Build 0)  -->
<svg version="1.1" id="Layer_1" xmlns="http://www.w3.org/2000/svg" xmlns:xlink="http://www.w3.org/1999/xlink" x="0px" y="0px"
	 viewBox="0 0 100 100" style="enable-background:new 0 0 100 100;" xml:space="preserve">
<polygon style="fill:#B3B3B4;" points="50,24.7 96.1,50 50,75.4 3.4,50 "/>
<g>
	<g>
		<path d="M74,78.8V63.9h1.5V77h5.8v1.8H74z"/>
	</g>
	<g>
		<g>
			<path d="M27.9,61.8V39.5h8.4c8.4,0,12.6,3.6,12.6,10.9c0,3.5-1.1,6.2-3.4,8.3c-2.3,2.1-5.4,3.1-9.2,3.1H27.9z M33.3,43.6v14.1
				h2.6c2.3,0,4.1-0.7,5.4-2c1.3-1.3,2-3.1,2-5.3c0-2.1-0.7-3.8-2-5s-3.1-1.8-5.5-1.8H33.3z"/>
		</g>
	</g>
	<g>
		<g>
			<path d="M53,61.8V39.5h8.4c8.4,0,12.6,3.6,12.6,10.9c0,3.5-1.1,6.2-3.4,8.3c-2.3,2.1-5.4,3.1-9.2,3.1H53z M58.4,43.6v14.1H61
				c2.3,0,4.1-0.7,5.4-2c1.3-1.3,2-3.1,2-5.3c0-2.1-0.7-3.8-2-5s-3.1-1.8-5.5-1.8H58.4z"/>
		</g>
	</g>
</g>
</svg>
