<?xml version="1.0" encoding="iso-8859-1"?>
<!-- Generator: Adobe Illustrator 25.3.1, SVG Export Plug-In . SVG Version: 6.00 Build 0)  -->
<svg version="1.1" id="Layer_1" xmlns="http://www.w3.org/2000/svg" xmlns:xlink="http://www.w3.org/1999/xlink" x="0px" y="0px"
	 viewBox="0 0 100 100" style="enable-background:new 0 0 100 100;" xml:space="preserve">
<polygon style="fill:#E93527;" points="49.6,7.8 61.95,29.15 74.3,50.5 86.65,71.85 99,93.2 74.5,93.2 50,93.2 25.5,93.2 1,93.2 
	13.15,71.85 25.3,50.5 37.45,29.15 "/>
<path style="fill:#020303;" d="M100.7,94.2H75.35H50H24.65H-0.7l12.575-22.1L24.45,50l12.575-22.1L49.6,5.8l12.775,22.1L75.15,50
	l12.775,22.1L100.7,94.2z M2.7,92.2h23.625H49.95h23.625H97.2L85.3,71.625L73.4,51.05L61.5,30.475L49.6,9.9L37.875,30.475
	L26.15,51.05L14.425,71.625L2.7,92.2z"/>
<path style="fill:#FFFFFF;" d="M46.3,87.9c-0.55,0.325-1.138,0.613-1.763,0.861c-0.625,0.249-1.287,0.458-1.987,0.627
	s-1.438,0.297-2.213,0.383C39.562,89.856,38.75,89.9,37.9,89.9c-1.125,0-2.194-0.106-3.205-0.317
	c-1.011-0.211-1.964-0.526-2.857-0.945c-0.894-0.419-1.729-0.941-2.502-1.564C28.562,86.45,27.85,85.725,27.2,84.9
	s-1.219-1.725-1.706-2.697c-0.487-0.972-0.894-2.016-1.219-3.128c-0.325-1.113-0.569-2.294-0.731-3.541
	C23.381,74.287,23.3,72.975,23.3,71.6c0-1.475,0.094-2.881,0.28-4.219s0.464-2.606,0.832-3.806c0.369-1.2,0.828-2.331,1.377-3.394
	s1.186-2.056,1.911-2.981s1.507-1.731,2.343-2.42s1.726-1.261,2.67-1.718c0.944-0.456,1.94-0.796,2.989-1.023
	C36.75,51.812,37.85,51.7,39,51.7c0.725,0,1.419,0.031,2.083,0.092c0.664,0.061,1.298,0.151,1.904,0.27
	c0.606,0.119,1.185,0.266,1.736,0.439c0.552,0.174,1.077,0.374,1.577,0.598v2v2v2v2c-0.5-0.375-1.013-0.7-1.539-0.977
	c-0.527-0.276-1.067-0.504-1.624-0.685c-0.556-0.181-1.128-0.316-1.717-0.405c-0.589-0.089-1.195-0.133-1.82-0.133
	c-0.7,0-1.363,0.069-1.989,0.206s-1.217,0.344-1.774,0.619c-0.556,0.275-1.078,0.619-1.567,1.031
	c-0.489,0.413-0.945,0.894-1.37,1.444s-0.8,1.144-1.123,1.783s-0.596,1.324-0.815,2.055s-0.385,1.509-0.495,2.336
	C30.356,69.2,30.3,70.075,30.3,71c0,0.9,0.05,1.75,0.15,2.551s0.25,1.555,0.45,2.26c0.2,0.706,0.45,1.365,0.75,1.979
	s0.65,1.183,1.05,1.709c0.4,0.525,0.837,0.988,1.311,1.386c0.473,0.398,0.983,0.732,1.526,1.001
	c0.544,0.269,1.122,0.472,1.733,0.608c0.611,0.136,1.255,0.205,1.93,0.205c0.65,0,1.287-0.05,1.911-0.15s1.233-0.25,1.826-0.45
	s1.172-0.45,1.732-0.75c0.561-0.3,1.105-0.65,1.63-1.05c0,0,0,0.475,0,1.188s0,1.662,0,2.613s0,1.9,0,2.613S46.3,87.9,46.3,87.9z"/>
<path d="M37.8,90.3c-1.175,0-2.287-0.106-3.337-0.32c-1.05-0.214-2.038-0.536-2.963-0.967s-1.788-0.971-2.587-1.623
	c-0.8-0.652-1.538-1.414-2.212-2.289c-0.65-0.85-1.225-1.775-1.722-2.772c-0.497-0.997-0.916-2.066-1.253-3.203
	s-0.594-2.344-0.766-3.616S22.7,72.9,22.7,71.5c0-1.5,0.094-2.931,0.281-4.294c0.188-1.363,0.469-2.656,0.844-3.881
	s0.844-2.381,1.406-3.469c0.562-1.088,1.219-2.106,1.969-3.056s1.556-1.781,2.419-2.494c0.862-0.712,1.781-1.306,2.756-1.781
	s2.006-0.831,3.094-1.069S37.7,51.1,38.9,51.1c0.725,0,1.431,0.031,2.114,0.092c0.683,0.061,1.342,0.151,1.974,0.27
	s1.235,0.265,1.805,0.439c0.57,0.174,1.107,0.374,1.607,0.599l0.075,0.025l0.075,0.025l0.075,0.025L46.7,52.6v2.35v2.35v2.35V62
	l-0.175-0.15L46.35,61.7l-0.175-0.15L46,61.4c-0.475-0.35-0.963-0.656-1.464-0.919S43.519,60,42.987,59.825
	c-0.531-0.175-1.078-0.306-1.642-0.394C40.781,59.344,40.2,59.3,39.6,59.3c-0.65,0-1.269,0.062-1.856,0.189
	c-0.587,0.127-1.144,0.317-1.669,0.574c-0.525,0.256-1.019,0.578-1.481,0.967S33.7,61.875,33.3,62.4s-0.75,1.094-1.05,1.708
	c-0.3,0.614-0.55,1.274-0.75,1.98c-0.2,0.706-0.35,1.459-0.45,2.26C30.95,69.15,30.9,70,30.9,70.9c0,0.85,0.05,1.662,0.148,2.434
	c0.098,0.772,0.245,1.503,0.439,2.191s0.434,1.331,0.72,1.928S32.825,78.6,33.2,79.1s0.781,0.938,1.22,1.312
	s0.911,0.688,1.418,0.938c0.506,0.25,1.046,0.438,1.623,0.562S38.65,82.1,39.3,82.1c0.625,0,1.237-0.05,1.836-0.148
	c0.598-0.099,1.183-0.245,1.751-0.439c0.569-0.194,1.122-0.434,1.658-0.72S45.6,80.175,46.1,79.8l0.2-0.15l0.2-0.15l0.2-0.15
	l0.2-0.15v2.225v2.225v2.225V88.1l-0.05,0.025L46.8,88.15l-0.05,0.025L46.7,88.2c-0.6,0.35-1.231,0.656-1.897,0.919
	c-0.666,0.262-1.366,0.481-2.103,0.656c-0.738,0.175-1.513,0.306-2.328,0.394C39.556,90.256,38.7,90.3,37.8,90.3z M39,52.2
	c-1.125,0-2.2,0.112-3.223,0.336c-1.024,0.223-1.996,0.558-2.915,1.001c-0.918,0.444-1.784,0.997-2.595,1.658
	C29.456,55.856,28.7,56.625,28,57.5c-0.7,0.9-1.319,1.869-1.853,2.905c-0.534,1.036-0.984,2.139-1.347,3.308
	s-0.638,2.403-0.822,3.702C23.794,68.713,23.7,70.076,23.7,71.5c0,1.35,0.081,2.637,0.242,3.859c0.161,1.222,0.401,2.378,0.72,3.466
	c0.319,1.088,0.716,2.106,1.19,3.053c0.474,0.947,1.024,1.822,1.649,2.622s1.306,1.5,2.045,2.1c0.739,0.6,1.536,1.1,2.393,1.5
	c0.857,0.4,1.772,0.7,2.748,0.9s2.014,0.3,3.114,0.3c0.8,0,1.569-0.037,2.303-0.111c0.734-0.074,1.434-0.183,2.097-0.327
	s1.288-0.322,1.872-0.533c0.584-0.211,1.128-0.454,1.628-0.729V86v-1.6v-1.6v-1.6c-0.5,0.325-1.013,0.606-1.537,0.845
	c-0.525,0.239-1.063,0.436-1.613,0.593c-0.55,0.156-1.112,0.271-1.688,0.348S39.7,83.1,39.1,83.1c-0.725,0-1.412-0.069-2.062-0.208
	c-0.65-0.139-1.263-0.349-1.838-0.63c-0.575-0.281-1.113-0.634-1.613-1.061c-0.5-0.426-0.962-0.926-1.387-1.501
	c-0.425-0.55-0.794-1.15-1.108-1.797s-0.574-1.341-0.78-2.078c-0.206-0.738-0.359-1.519-0.46-2.341S29.7,71.8,29.7,70.9
	c0-0.95,0.056-1.856,0.169-2.717c0.112-0.861,0.281-1.676,0.506-2.445c0.225-0.769,0.506-1.491,0.844-2.165
	C31.556,62.9,31.95,62.275,32.4,61.7s0.938-1.081,1.461-1.517c0.523-0.436,1.083-0.801,1.677-1.095s1.222-0.515,1.883-0.664
	c0.661-0.149,1.354-0.224,2.079-0.224c0.575,0,1.138,0.038,1.686,0.112c0.548,0.075,1.083,0.188,1.601,0.338
	c0.519,0.15,1.022,0.338,1.508,0.562S45.25,59.7,45.7,60v-1.675V56.65v-1.675V53.3c-0.45-0.175-0.931-0.331-1.441-0.467
	c-0.509-0.136-1.047-0.251-1.609-0.345s-1.15-0.166-1.759-0.214C40.281,52.225,39.65,52.2,39,52.2z"/>
<path style="fill:#FFFFFF;" d="M58,76.5v3.175v3.175v3.175V89.2h-1.65H54.7h-1.65H51.4v-9.225V70.75v-9.225V52.3H54h2.6h2.6h2.6
	c1.85,0,3.475,0.244,4.872,0.731c1.397,0.487,2.566,1.219,3.503,2.194s1.644,2.194,2.116,3.656S73,62.05,73,64
	c0,0.925-0.069,1.806-0.205,2.644c-0.136,0.837-0.339,1.631-0.607,2.381s-0.603,1.456-1.002,2.119
	C70.788,71.806,70.325,72.425,69.8,73s-1.1,1.075-1.722,1.502c-0.622,0.426-1.291,0.779-2.003,1.06
	c-0.713,0.282-1.469,0.491-2.266,0.63C63.013,76.331,62.175,76.4,61.3,76.4h-0.825H59.65h-0.825H58v0.025v0.025v0.025V76.5z
	 M58,58.7v2.875v2.875v2.875V70.2h0.65h0.65h0.65h0.65c0.875,0,1.644-0.119,2.305-0.358c0.661-0.239,1.214-0.599,1.658-1.08
	c0.444-0.481,0.778-1.084,1.001-1.81c0.223-0.727,0.336-1.576,0.336-2.551c0-0.95-0.112-1.781-0.336-2.494s-0.558-1.306-1.002-1.781
	c-0.444-0.475-0.997-0.831-1.657-1.069c-0.661-0.238-1.43-0.356-2.305-0.356c0,0-0.162,0-0.406,0s-0.569,0-0.894,0s-0.65,0-0.894,0
	S58,58.7,58,58.7z"/>
<path d="M58.5,89.7h-1.9h-1.9h-1.9h-1.9v-9.475V70.75v-9.475V51.8h2.725h2.725h2.725H61.8c1.925,0,3.613,0.256,5.061,0.769
	c1.449,0.513,2.658,1.281,3.627,2.306c0.968,1.025,1.696,2.306,2.182,3.844c0.486,1.537,0.73,3.331,0.73,5.381
	c0,0.95-0.069,1.863-0.206,2.733c-0.137,0.87-0.344,1.699-0.619,2.48c-0.275,0.781-0.619,1.515-1.031,2.198
	c-0.412,0.683-0.894,1.314-1.444,1.889c-0.55,0.6-1.15,1.125-1.798,1.575c-0.648,0.45-1.345,0.825-2.089,1.125
	c-0.744,0.3-1.535,0.525-2.371,0.675S62.125,77,61.2,77h-0.675H59.85h-0.675H58.5c0,0,0,0.794,0,1.984s0,2.778,0,4.366
	s0,3.175,0,4.366S58.5,89.7,58.5,89.7z M51.9,88.7h1.4h1.4h1.4h1.4v-3.175V82.35v-3.175V76h0.925h0.925h0.925H61.2
	c0.85,0,1.662-0.069,2.434-0.206c0.772-0.137,1.503-0.344,2.191-0.619c0.688-0.275,1.331-0.619,1.928-1.031
	C68.35,73.731,68.9,73.25,69.4,72.7s0.944-1.144,1.328-1.78s0.709-1.314,0.972-2.032c0.263-0.719,0.463-1.478,0.597-2.277
	s0.203-1.635,0.203-2.51c0-1.9-0.219-3.556-0.658-4.972c-0.439-1.416-1.098-2.591-1.979-3.528c-0.882-0.938-1.985-1.638-3.311-2.103
	c-1.327-0.466-2.877-0.697-4.652-0.697h-2.475H56.95h-2.475H52v8.975v8.975v8.974V88.7h-0.025H51.95h-0.025H51.9z M60.7,70.7h-0.775
	H59.15h-0.775H57.6v-3.125V64.45v-3.125V58.2h0.775h0.775h0.775H60.7c0.95,0,1.787,0.131,2.509,0.392
	c0.722,0.261,1.328,0.651,1.816,1.17c0.488,0.519,0.856,1.166,1.103,1.939c0.247,0.773,0.372,1.674,0.372,2.699
	s-0.125,1.931-0.372,2.714c-0.247,0.783-0.616,1.442-1.103,1.974c-0.487,0.531-1.094,0.934-1.816,1.204
	C62.487,70.562,61.65,70.7,60.7,70.7z M58.5,69.7h0.525h0.525h0.525H60.6c0.825,0,1.537-0.106,2.142-0.322s1.102-0.541,1.496-0.978
	c0.394-0.438,0.684-0.988,0.876-1.653C65.306,66.081,65.4,65.3,65.4,64.4c0-0.875-0.094-1.638-0.286-2.289
	c-0.192-0.651-0.483-1.192-0.876-1.623c-0.394-0.431-0.891-0.753-1.496-0.968c-0.605-0.214-1.317-0.32-2.142-0.32h-0.525H59.55
	h-0.525H58.5c0,0,0,0.656,0,1.641s0,2.297,0,3.609s0,2.625,0,3.609S58.5,69.7,58.5,69.7z"/>
<path d="M92.9,24.6c0.175-0.35,0.394-0.925,0.623-1.591c0.23-0.666,0.47-1.422,0.689-2.134c0.219-0.712,0.416-1.381,0.558-1.872
	S95,18.2,95,18.2s0.05-0.138,0.08-0.345c0.03-0.208,0.039-0.486-0.043-0.768c-0.081-0.281-0.253-0.565-0.586-0.785
	c-0.333-0.22-0.826-0.377-1.551-0.402l-0.65,2.225L91.6,20.35l-0.65,2.225L90.3,24.8c0,0,0.119,0.075,0.308,0.166
	c0.189,0.091,0.448,0.197,0.729,0.259c0.282,0.062,0.585,0.081,0.861-0.003C92.475,25.138,92.725,24.95,92.9,24.6z"/>
<path d="M92.9,40c-0.175-0.35-0.425-0.537-0.701-0.622c-0.276-0.084-0.579-0.066-0.86-0.003s-0.54,0.169-0.73,0.259
	C90.419,39.725,90.3,39.8,90.3,39.8l0.65,2.225l0.65,2.225l0.65,2.225L92.9,48.7c0.7-0.025,1.181-0.181,1.509-0.402
	s0.503-0.505,0.591-0.786c0.088-0.281,0.088-0.559,0.066-0.767C95.044,46.538,95,46.4,95,46.4s-0.088-0.312-0.23-0.803
	c-0.142-0.491-0.339-1.159-0.557-1.872s-0.459-1.469-0.689-2.134C93.294,40.925,93.075,40.35,92.9,40z"/>
<path d="M85.8,39.1c0,0,0-0.219-0.002-0.598c-0.001-0.38-0.004-0.92-0.01-1.564c-0.007-0.644-0.016-1.391-0.03-2.183
	c-0.014-0.792-0.033-1.63-0.058-2.455c0-0.85,0.006-1.7,0.016-2.497s0.022-1.541,0.034-2.178s0.025-1.169,0.034-1.541
	C85.794,25.712,85.8,25.5,85.8,25.5s0.037-0.106,0.13-0.258c0.092-0.152,0.239-0.349,0.458-0.53s0.509-0.347,0.889-0.436
	c0.38-0.089,0.848-0.101,1.423,0.024l0.625-2.2l0.625-2.2l0.625-2.2l0.625-2.2c0,0-0.356-0.038-0.923-0.058
	c-0.567-0.02-1.345-0.023-2.189,0.046c-0.844,0.068-1.753,0.209-2.583,0.476c-0.83,0.267-1.58,0.661-2.105,1.236
	c-0.3,0.35-0.606,1.025-0.898,1.952s-0.571,2.105-0.814,3.461c-0.244,1.356-0.453,2.89-0.607,4.529
	c-0.155,1.639-0.255,3.383-0.28,5.158c0.025,1.775,0.119,3.519,0.266,5.158s0.347,3.174,0.584,4.53s0.512,2.535,0.809,3.461
	s0.616,1.602,0.941,1.952c0.525,0.575,1.275,0.969,2.105,1.236s1.739,0.408,2.583,0.477c0.843,0.068,1.621,0.064,2.189,0.044
	C90.844,49.137,91.2,49.1,91.2,49.1l-0.625-2.2l-0.625-2.2l-0.625-2.2L88.7,40.3c-0.575,0.125-1.044,0.112-1.423,0.023
	c-0.38-0.089-0.67-0.255-0.889-0.436c-0.219-0.181-0.366-0.378-0.458-0.529C85.838,39.206,85.8,39.1,85.8,39.1z"/>
</svg>
