<?xml version="1.0" encoding="utf-8"?>
<!-- Generator: Adobe Illustrator 25.2.0, SVG Export Plug-In . SVG Version: 6.00 Build 0)  -->
<svg version="1.1" id="Layer_1" xmlns="http://www.w3.org/2000/svg" xmlns:xlink="http://www.w3.org/1999/xlink" x="0px" y="0px"
	 viewBox="0 0 100 100" style="enable-background:new 0 0 100 100;" xml:space="preserve">
<polygon style="fill:#B3B3B4;" points="50,24.7 96.1,50 50,75.4 3.4,50 "/>
<g>
	<g>
		<g>
			<path d="M45.8,59.9c-2.2,1.3-4.9,1.9-8.2,1.9c-3.6,0-6.5-1-8.6-3.1c-2.1-2-3.1-4.8-3.1-8.4c0-3.6,1.1-6.5,3.4-8.8
				s5.3-3.4,9.1-3.4c2.4,0,4.5,0.3,6.3,1v4.8c-1.7-1-3.9-1.5-6.4-1.5c-2.1,0-3.8,0.7-5.1,2.1c-1.3,1.4-2,3.2-2,5.6
				c0,2.3,0.6,4.2,1.8,5.4c1.2,1.3,2.8,1.9,4.8,1.9c1.2,0,2.2-0.2,2.9-0.5v-4.5h-4.5v-4.1h9.6V59.9z"/>
		</g>
	</g>
	<g>
		<g>
			<path d="M51.1,61.4V38.6h8c8,0,12,3.7,12,11.1c0,3.6-1.1,6.4-3.3,8.5c-2.2,2.1-5.1,3.2-8.7,3.2H51.1z M56.2,42.8v14.5h2.5
				c2.2,0,3.9-0.7,5.2-2c1.3-1.3,1.9-3.2,1.9-5.5c0-2.2-0.6-3.9-1.9-5.1c-1.2-1.2-3-1.9-5.2-1.9H56.2z"/>
		</g>
	</g>
</g>
</svg>
