<?xml version="1.0" encoding="iso-8859-1"?>
<!-- Generator: Adobe Illustrator 25.3.1, SVG Export Plug-In . SVG Version: 6.00 Build 0)  -->
<svg version="1.1" id="Layer_1" xmlns="http://www.w3.org/2000/svg" xmlns:xlink="http://www.w3.org/1999/xlink" x="0px" y="0px"
	 viewBox="0 0 100 100" style="enable-background:new 0 0 100 100;" xml:space="preserve">
<polygon style="fill:#E93527;" points="49.6,7.8 61.95,29.15 74.3,50.5 86.65,71.85 99,93.2 74.5,93.2 50,93.2 25.5,93.2 1,93.2 
	13.15,71.85 25.3,50.5 37.45,29.15 "/>
<path style="fill:#020303;" d="M100.7,94.2H75.35H50H24.65H-0.7l12.575-22.1L24.45,50l12.575-22.1L49.6,5.8l12.775,22.1L75.15,50
	l12.775,22.1L100.7,94.2z M2.7,92.2h23.625H49.95h23.625H97.2L85.3,71.625L73.4,51.05L61.5,30.475L49.6,9.9L37.875,30.475
	L26.15,51.05L14.425,71.625L2.7,92.2z"/>
<path style="fill:#FFFFFF;" d="M37.2,64.8h-2.175H32.85h-2.175H28.5v1.9v1.9v1.9v1.9h2h2h2h2v1.4v1.4v1.4V78h-2h-2h-2h-2v3v3v3v3
	h-1.4h-1.4h-1.4h-1.4v-7.75V74.5v-7.75V59h3.575h3.575h3.575H37.2v1.45v1.45v1.45V64.8z"/>
<path d="M28.9,90.6h-1.65H25.6h-1.65H22.3v-8v-8v-8v-8h3.825h3.825h3.825H37.6v1.675v1.675v1.675V65.3h-2.175H33.25h-2.175H28.9
	v1.65v1.65v1.65v1.65h2h2h2h2v1.675v1.675v1.675V78.6h-2h-2h-2h-2c0,0,0,0.75,0,1.875s0,2.625,0,4.125s0,3,0,4.125
	S28.9,90.6,28.9,90.6z M23.3,89.6h1.15h1.15h1.15h1.15v-3v-3v-3v-3h2h2h2h2v-1.175V75.25v-1.175V72.9h-2h-2h-2h-2v-2.15V68.6v-2.15
	V64.3h2.175h2.175h2.175H36.6v-1.175V61.95v-1.175V59.6h-3.325H29.95h-3.325H23.3v7.5v7.5v7.5V89.6z"/>
<path style="fill:#FFFFFF;" d="M59.1,64.8h-1.775H55.55h-1.775H52v6.325v6.325v6.325V90.1h-1.4h-1.4h-1.4h-1.4v-6.325V77.45v-6.325
	V64.8h-1.75H42.9h-1.75H39.4v-1.425V61.95v-1.425V59.1h4.925h4.925h4.925H59.1c0,0,0,0.356,0,0.891s0,1.247,0,1.959s0,1.425,0,1.959
	S59.1,64.8,59.1,64.8z"/>
<path d="M52.5,90.6h-1.65H49.2h-1.65H45.9v-6.325V77.95v-6.325V65.3h-1.75H42.4h-1.75H38.9v-1.675V61.95v-1.675V58.6h5.175h5.175
	h5.175H59.6v1.675v1.675v1.675V65.3h-1.775H56.05h-1.775H52.5c0,0,0,1.581,0,3.953c0,2.372,0,5.534,0,8.697s0,6.325,0,8.697
	C52.5,89.019,52.5,90.6,52.5,90.6z M46.9,89.6h1.15h1.15h1.15h1.15v-6.325V76.95v-6.325V64.3h1.775h1.775h1.775H58.6v-1.175V61.95
	v-1.175V59.6h-4.675H49.25h-4.675H39.9v1.175v1.175v1.175V64.3h1.75h1.75h1.75h1.75v6.325v6.325v6.325V89.6z"/>
<path style="fill:#FFFFFF;" d="M83.2,90.1h-1.6H80h-1.6h-1.6l-0.975-2l-0.975-2l-0.975-2l-0.975-2
	c-0.075-0.15-0.15-0.294-0.224-0.433s-0.146-0.274-0.215-0.405c-0.069-0.131-0.134-0.259-0.195-0.385
	C72.206,80.75,72.15,80.625,72.1,80.5c-0.075-0.125-0.144-0.244-0.209-0.356c-0.066-0.113-0.128-0.219-0.191-0.319
	c-0.062-0.1-0.125-0.194-0.191-0.281c-0.066-0.088-0.134-0.169-0.209-0.244s-0.15-0.15-0.224-0.224s-0.146-0.146-0.215-0.215
	s-0.134-0.134-0.195-0.195C70.606,78.606,70.55,78.55,70.5,78.5s-0.113-0.094-0.184-0.131c-0.072-0.037-0.153-0.069-0.241-0.094
	c-0.087-0.025-0.181-0.044-0.278-0.056C69.7,78.206,69.6,78.2,69.5,78.2h-0.375H68.75h-0.375H68v2.975v2.975v2.975V90.1h-1.4h-1.4
	h-1.4h-1.4v-7.75V74.6v-7.75V59.1h2.225h2.225h2.225H71.3c1.5,0,2.812,0.175,3.938,0.525c1.125,0.35,2.062,0.875,2.812,1.575
	c0.75,0.7,1.312,1.575,1.688,2.625C80.112,64.875,80.3,66.1,80.3,67.5c0,0.275-0.006,0.544-0.02,0.806
	c-0.014,0.262-0.036,0.519-0.068,0.769s-0.072,0.494-0.123,0.731c-0.051,0.237-0.114,0.469-0.189,0.694s-0.15,0.444-0.228,0.658
	c-0.078,0.214-0.159,0.423-0.247,0.629c-0.088,0.206-0.181,0.41-0.284,0.611C79.038,72.6,78.925,72.8,78.8,73
	c-0.125,0.175-0.256,0.35-0.394,0.522c-0.137,0.172-0.281,0.341-0.431,0.503c-0.15,0.162-0.306,0.319-0.469,0.466
	C77.344,74.637,77.175,74.775,77,74.9s-0.35,0.25-0.528,0.372c-0.178,0.122-0.359,0.241-0.547,0.353s-0.381,0.219-0.584,0.316
	c-0.203,0.097-0.416,0.184-0.641,0.259v0.025v0.025v0.025V76.3c0.1,0.025,0.194,0.062,0.284,0.109
	c0.091,0.047,0.178,0.103,0.266,0.166c0.088,0.062,0.175,0.131,0.266,0.203C75.606,76.85,75.7,76.925,75.8,77
	s0.194,0.156,0.283,0.242s0.173,0.176,0.254,0.27s0.159,0.19,0.236,0.289C76.65,77.9,76.725,78,76.8,78.1s0.15,0.206,0.225,0.317
	c0.075,0.111,0.15,0.226,0.225,0.345c0.075,0.119,0.15,0.241,0.225,0.365c0.075,0.123,0.15,0.248,0.225,0.373s0.15,0.25,0.223,0.375
	s0.146,0.25,0.215,0.375s0.134,0.25,0.195,0.375C78.394,80.75,78.45,80.875,78.5,81l1.175,2.275l1.175,2.275l1.175,2.275L83.2,90.1z
	 M68,64.3v2.15v2.15v2.15v2.15h0.6h0.6h0.6h0.6c0.3,0,0.588-0.025,0.861-0.076c0.273-0.051,0.533-0.129,0.776-0.235
	c0.244-0.106,0.472-0.241,0.683-0.405c0.211-0.164,0.405-0.358,0.58-0.583c0.175-0.225,0.331-0.463,0.467-0.713
	c0.136-0.25,0.251-0.512,0.345-0.787c0.094-0.275,0.166-0.562,0.214-0.863c0.048-0.3,0.073-0.612,0.073-0.938
	c0-0.675-0.081-1.269-0.244-1.78c-0.162-0.511-0.406-0.939-0.731-1.282c-0.324-0.344-0.73-0.604-1.218-0.777
	C71.719,64.287,71.15,64.2,70.5,64.2h-0.625H69.25h-0.625H68v0.025v0.025v0.025V64.3z"/>
<path d="M84,90.6h-1.875H80.25h-1.875H76.5l-1-2.075l-1-2.075l-1-2.075l-1-2.075c-0.075-0.15-0.15-0.294-0.224-0.433
	s-0.146-0.274-0.215-0.405c-0.068-0.131-0.134-0.259-0.195-0.385C71.806,80.95,71.75,80.825,71.7,80.7
	c-0.075-0.125-0.144-0.238-0.209-0.342c-0.066-0.105-0.128-0.201-0.191-0.295s-0.125-0.184-0.191-0.277
	C71.044,79.694,70.975,79.6,70.9,79.5c-0.05-0.075-0.106-0.144-0.166-0.208c-0.059-0.064-0.122-0.123-0.184-0.179
	c-0.062-0.056-0.125-0.11-0.184-0.161C70.306,78.9,70.25,78.85,70.2,78.8c-0.05-0.025-0.1-0.05-0.151-0.073
	c-0.051-0.023-0.104-0.045-0.16-0.064s-0.116-0.034-0.18-0.045C69.644,78.606,69.575,78.6,69.5,78.6h-0.25H69h-0.25H68.5v2.975
	v2.975v2.975V90.5h-1.65H65.2h-1.65H61.9v-8v-8v-8v-8h2.35h2.35h2.35h2.35c1.575,0,2.956,0.188,4.142,0.561
	c1.186,0.373,2.177,0.933,2.971,1.676c0.794,0.744,1.39,1.672,1.789,2.783S80.8,65.925,80.8,67.4c0,0.275-0.006,0.55-0.02,0.822
	c-0.014,0.272-0.036,0.541-0.068,0.803c-0.031,0.263-0.072,0.519-0.123,0.766c-0.051,0.247-0.114,0.484-0.189,0.709
	c-0.075,0.25-0.156,0.488-0.244,0.716c-0.087,0.228-0.181,0.447-0.281,0.659c-0.1,0.213-0.206,0.419-0.319,0.622
	C79.444,72.7,79.325,72.9,79.2,73.1s-0.256,0.394-0.395,0.58c-0.139,0.186-0.286,0.364-0.443,0.533
	c-0.156,0.169-0.322,0.328-0.498,0.476S77.5,74.975,77.3,75.1c-0.125,0.1-0.25,0.194-0.377,0.283
	c-0.126,0.089-0.254,0.173-0.385,0.254c-0.132,0.082-0.266,0.16-0.405,0.236C75.994,75.95,75.85,76.025,75.7,76.1
	c0.025,0.025,0.056,0.05,0.091,0.075c0.034,0.025,0.072,0.05,0.109,0.075s0.075,0.05,0.109,0.075
	c0.034,0.025,0.066,0.05,0.091,0.075c0.1,0.075,0.194,0.156,0.284,0.244c0.091,0.087,0.178,0.181,0.266,0.281
	c0.088,0.1,0.175,0.206,0.266,0.319c0.091,0.113,0.184,0.231,0.284,0.356c0.075,0.1,0.156,0.206,0.241,0.317
	c0.084,0.111,0.172,0.226,0.259,0.345c0.088,0.119,0.175,0.241,0.259,0.364S78.125,78.875,78.2,79s0.15,0.25,0.223,0.375
	s0.146,0.25,0.215,0.375c0.068,0.125,0.134,0.25,0.195,0.375S78.95,80.375,79,80.5l1.25,2.525l1.25,2.525l1.25,2.525L84,90.6z
	 M77.1,89.6h1.325h1.325h1.325H82.4l-1.075-2.1l-1.075-2.1l-1.075-2.1L78.1,81.2c-0.05-0.125-0.106-0.244-0.167-0.359
	s-0.126-0.228-0.195-0.341c-0.069-0.112-0.141-0.225-0.215-0.341S77.375,79.925,77.3,79.8s-0.15-0.244-0.225-0.359
	C77,79.325,76.925,79.213,76.85,79.1c-0.075-0.112-0.15-0.225-0.225-0.341c-0.075-0.116-0.15-0.234-0.225-0.359
	c-0.075-0.1-0.15-0.2-0.225-0.299c-0.075-0.098-0.15-0.195-0.225-0.289c-0.075-0.094-0.15-0.185-0.225-0.27
	c-0.075-0.086-0.15-0.167-0.225-0.242s-0.15-0.144-0.225-0.206s-0.15-0.119-0.225-0.169c-0.075-0.05-0.15-0.094-0.225-0.131
	c-0.075-0.037-0.15-0.069-0.225-0.094l-0.075-0.025L74.45,76.65l-0.075-0.025L74.3,76.6v-0.175V76.25v-0.175V75.9l0.075-0.05
	l0.075-0.05l0.075-0.05L74.6,75.7c0.2-0.075,0.394-0.156,0.583-0.244c0.189-0.087,0.373-0.181,0.554-0.281
	c0.181-0.1,0.36-0.206,0.536-0.319c0.176-0.113,0.351-0.231,0.526-0.356c0.15-0.125,0.3-0.256,0.447-0.394
	c0.147-0.137,0.291-0.281,0.428-0.431c0.138-0.15,0.269-0.306,0.391-0.469c0.122-0.162,0.234-0.331,0.334-0.506
	c0.125-0.175,0.238-0.356,0.341-0.542c0.103-0.186,0.197-0.376,0.284-0.57c0.088-0.194,0.169-0.391,0.248-0.59
	C79.35,70.8,79.425,70.6,79.5,70.4c0.075-0.225,0.137-0.45,0.189-0.678c0.051-0.228,0.092-0.459,0.123-0.697
	s0.053-0.481,0.067-0.734c0.014-0.253,0.021-0.516,0.021-0.791c0-1.325-0.175-2.481-0.527-3.47c-0.352-0.989-0.88-1.811-1.586-2.468
	s-1.591-1.147-2.655-1.473C74.068,59.762,72.825,59.6,71.4,59.6h-2.1h-2.1h-2.1H63v7.5v7.5v7.5v7.5h1.15h1.15h1.15h1.15v-2.975
	V83.65v-2.975V77.7h0.5h0.5h0.5h0.5c0.1,0,0.2,0.006,0.3,0.019c0.1,0.012,0.2,0.031,0.3,0.056c0.1,0.025,0.2,0.056,0.3,0.094
	c0.1,0.037,0.2,0.081,0.3,0.131c0.075,0.05,0.156,0.106,0.241,0.169s0.172,0.131,0.259,0.206s0.175,0.156,0.259,0.244
	c0.084,0.087,0.166,0.181,0.241,0.281s0.15,0.2,0.225,0.302c0.075,0.102,0.15,0.205,0.225,0.311s0.15,0.216,0.225,0.33
	c0.075,0.114,0.15,0.233,0.225,0.358s0.15,0.25,0.223,0.377c0.074,0.126,0.146,0.255,0.215,0.385
	c0.068,0.131,0.134,0.265,0.195,0.404S73.45,81.65,73.5,81.8l0.9,1.95l0.9,1.95l0.9,1.95L77.1,89.6z M70.4,73.4h-0.725H68.95h-0.725
	H67.5V71v-2.4v-2.4v-2.4h0.75H69h0.75h0.75c0.725,0,1.363,0.1,1.911,0.297c0.548,0.197,1.008,0.491,1.376,0.878
	c0.369,0.388,0.647,0.869,0.833,1.441c0.186,0.572,0.28,1.234,0.28,1.984c0,0.35-0.025,0.688-0.075,1.012
	c-0.05,0.325-0.125,0.638-0.225,0.938s-0.225,0.588-0.375,0.863S73.9,71.75,73.7,72c-0.2,0.225-0.419,0.425-0.656,0.598
	c-0.238,0.173-0.494,0.32-0.769,0.439c-0.275,0.119-0.569,0.21-0.881,0.271C71.081,73.369,70.75,73.4,70.4,73.4z M68.5,72.4h0.475
	h0.475h0.475H70.4c0.275,0,0.531-0.025,0.77-0.073c0.239-0.048,0.461-0.12,0.668-0.214s0.397-0.209,0.573-0.345
	S72.75,71.475,72.9,71.3c0.175-0.2,0.325-0.412,0.451-0.636c0.126-0.223,0.229-0.458,0.311-0.702
	c0.081-0.243,0.141-0.497,0.18-0.757c0.039-0.261,0.058-0.53,0.058-0.805c0-0.6-0.069-1.125-0.208-1.575
	c-0.139-0.45-0.349-0.825-0.63-1.125s-0.634-0.525-1.061-0.675S71.075,64.8,70.5,64.8H70h-0.5H69h-0.5v1.9v1.9c0,0,0,0.95,0,1.9
	C68.5,71.45,68.5,72.4,68.5,72.4z"/>
</svg>
