<?xml version="1.0" encoding="utf-8"?>
<!-- Generator: Adobe Illustrator 25.2.0, SVG Export Plug-In . SVG Version: 6.00 Build 0)  -->
<svg version="1.1" id="Layer_1" xmlns="http://www.w3.org/2000/svg" xmlns:xlink="http://www.w3.org/1999/xlink" x="0px" y="0px"
	 viewBox="0 0 100 100" style="enable-background:new 0 0 100 100;" xml:space="preserve">
<polygon style="fill:#B3B3B4;" points="50,24.7 96.1,50 50,75.4 3.4,50 "/>
<g>
	<g>
		<g>
			<path d="M47.8,62.3h-5.4v-10h-9.8v10h-5.3V37.8h5.3v9.8h9.8v-9.8h5.4V62.3z"/>
		</g>
	</g>
	<g>
		<g>
			<path d="M53.2,62.3V37.8h8.7c8.7,0,13.1,4,13.1,12c0,3.8-1.2,6.9-3.6,9.2c-2.4,2.3-5.6,3.4-9.5,3.4H53.2z M58.7,42.3v15.6h2.7
				c2.4,0,4.3-0.7,5.6-2.2c1.4-1.4,2-3.4,2-5.9c0-2.3-0.7-4.2-2-5.5c-1.4-1.3-3.3-2-5.7-2H58.7z"/>
		</g>
	</g>
</g>
</svg>
