<?xml version="1.0" encoding="utf-8"?>
<!-- Generator: Adobe Illustrator 25.3.1, SVG Export Plug-In . SVG Version: 6.00 Build 0)  -->
<svg version="1.1" id="Layer_1" xmlns="http://www.w3.org/2000/svg" xmlns:xlink="http://www.w3.org/1999/xlink" x="0px" y="0px"
	 viewBox="0 0 100 100" style="enable-background:new 0 0 100 100;" xml:space="preserve">
<polygon style="fill:#B3B3B4;" points="50,24.7 96.1,50 50,75.4 3.4,50 "/>

			<path d="M41.8,58.7v-4.2c1,0.7,2.1,1.1,3.3,1.4c1.1,0.3,2.4,0.5,3.5,0.5c0.7,0,1.3-0.1,1.8-0.2c0.5-0.1,1-0.2,1.3-0.4
				c0.3-0.2,0.6-0.4,0.8-0.6c0.2-0.2,0.2-0.5,0.2-0.7c0-0.3-0.2-0.7-0.4-1s-0.7-0.6-1.1-0.8c-0.5-0.2-1.1-0.5-1.7-0.7
				c-0.7-0.2-1.4-0.5-2.1-0.7c-1.8-0.6-3.3-1.3-4.2-2.2s-1.4-2-1.4-3.2c0-1,0.2-1.8,0.7-2.5c0.5-0.7,1.2-1.3,2.1-1.7
				c0.9-0.5,2-0.8,3.1-1c1.1-0.2,2.4-0.3,3.7-0.3c1.3,0,2.4,0.1,3.4,0.2c1,0.1,1.9,0.3,2.8,0.6v3.9c-0.4-0.2-0.9-0.4-1.4-0.6
				s-1-0.3-1.5-0.4c-0.5-0.1-1.1-0.2-1.5-0.2c-0.5-0.1-1-0.1-1.5-0.1c-0.7,0-1.2,0.1-1.7,0.2c-0.5,0.1-1,0.2-1.3,0.4
				c-0.3,0.2-0.7,0.3-0.8,0.6c-0.2,0.2-0.3,0.5-0.3,0.7c0,0.3,0.1,0.6,0.3,0.8s0.5,0.5,0.9,0.7c0.4,0.2,0.9,0.4,1.5,0.7
				c0.6,0.2,1.2,0.4,2,0.7c1,0.3,1.9,0.7,2.7,1s1.5,0.7,2,1.2c0.6,0.5,1,1,1.3,1.5c0.3,0.6,0.4,1.2,0.4,2c0,1.1-0.2,1.9-0.8,2.6
				c-0.5,0.7-1.2,1.3-2.1,1.7c-0.9,0.4-2,0.7-3.1,1c-1.2,0.2-2.4,0.3-3.7,0.3c-1.4,0-2.6-0.1-3.8-0.2C43.8,59.2,42.7,59,41.8,58.7z"
				/>
		
			<path d="M60.7,59.6V41h7c7,0,10.5,3,10.5,9c0,2.9-1,5.2-2.8,6.9c-2,1.7-4.5,2.6-7.7,2.6L60.7,59.6L60.7,59.6z M65.2,44.4v11.8
				h2.2c2,0,3.4-0.6,4.6-1.6c1.1-1.1,1.6-2.6,1.6-4.5c0-1.8-0.6-3.2-1.6-4.2c-1.1-1-2.6-1.5-4.6-1.5H65.2z"/>
		
	<path d="M36.6,49.5c0,0,2.7-1.6,2.8-4.6c0.1-3-2.9-4.3-4.2-4.4s-9.7,0-9.7,0v19.4h9.7c0,0,5.2-0.1,5.3-5.6
		C40.4,50.2,36.6,49.5,36.6,49.5z M30,43.5h3c0,0,1.7,0.1,1.7,2.1c0,2-1.7,2.1-1.7,2.1h-3V43.5z M33.7,56.2H30V51h3.7
		c0,0,2.1,0.1,2.1,2.6S33.7,56.2,33.7,56.2z"/>

</svg>
