<?xml version="1.0" encoding="iso-8859-1"?>
<!-- Generator: Adobe Illustrator 25.3.1, SVG Export Plug-In . SVG Version: 6.00 Build 0)  -->
<svg version="1.1" id="Layer_1" xmlns="http://www.w3.org/2000/svg" xmlns:xlink="http://www.w3.org/1999/xlink" x="0px" y="0px"
	 viewBox="0 0 100 100" style="enable-background:new 0 0 100 100;" xml:space="preserve">
<polygon style="fill:#E93527;" points="49.6,7.8 61.95,29.15 74.3,50.5 86.65,71.85 99,93.2 74.5,93.2 50,93.2 25.5,93.2 1,93.2 
	13.15,71.85 25.3,50.5 37.45,29.15 "/>
<path style="fill:#020303;" d="M100.7,94.2H75.35H50H24.65H-0.7l12.575-22.1L24.45,50l12.575-22.1L49.6,5.8l12.775,22.1L75.15,50
	l12.775,22.1L100.7,94.2z M2.7,92.2h23.625H49.95h23.625H97.2L85.3,71.625L73.4,51.05L61.5,30.475L49.6,9.9L37.875,30.475
	L26.15,51.05L14.425,71.625L2.7,92.2z"/>
<path style="fill:#FFFFFF;stroke:#000000;" d="M27.4,87.9v-2.05V83.8v-2.05V79.7c0.3,0.325,0.606,0.625,0.919,0.901
	c0.312,0.277,0.631,0.53,0.956,0.761c0.325,0.231,0.656,0.441,0.994,0.63c0.338,0.189,0.681,0.358,1.031,0.508
	c0.35,0.15,0.7,0.281,1.05,0.394c0.35,0.113,0.7,0.206,1.05,0.281c0.35,0.075,0.7,0.131,1.05,0.169c0.35,0.038,0.7,0.056,1.05,0.056
	c0.2,0,0.4-0.006,0.597-0.019c0.197-0.012,0.391-0.031,0.578-0.056s0.369-0.056,0.541-0.094c0.172-0.037,0.334-0.081,0.484-0.131
	s0.294-0.106,0.433-0.167c0.139-0.061,0.273-0.127,0.404-0.196c0.132-0.068,0.26-0.14,0.386-0.214
	c0.127-0.073,0.252-0.148,0.377-0.223c0.1-0.075,0.194-0.156,0.281-0.244c0.088-0.088,0.169-0.181,0.244-0.281
	s0.144-0.206,0.206-0.319S40.15,81.225,40.2,81.1s0.094-0.244,0.131-0.361c0.038-0.117,0.069-0.233,0.094-0.352
	c0.025-0.118,0.044-0.24,0.056-0.37c0.013-0.13,0.019-0.267,0.019-0.417c0-0.175-0.013-0.35-0.036-0.522
	c-0.024-0.172-0.058-0.341-0.102-0.503c-0.043-0.162-0.096-0.319-0.157-0.466c-0.061-0.147-0.13-0.284-0.205-0.409
	c-0.075-0.15-0.162-0.294-0.259-0.433c-0.097-0.139-0.203-0.274-0.316-0.405c-0.112-0.131-0.231-0.259-0.353-0.385
	C38.95,76.35,38.825,76.225,38.7,76.1c-0.15-0.125-0.3-0.244-0.453-0.359s-0.309-0.228-0.472-0.341s-0.331-0.225-0.509-0.341
	C37.088,74.944,36.9,74.825,36.7,74.7c-0.2-0.1-0.4-0.206-0.602-0.317s-0.404-0.226-0.611-0.345
	c-0.206-0.119-0.416-0.241-0.63-0.365c-0.214-0.123-0.433-0.248-0.658-0.373c-0.575-0.3-1.112-0.619-1.614-0.955
	c-0.502-0.336-0.967-0.689-1.399-1.057c-0.431-0.369-0.828-0.754-1.192-1.152S29.3,69.325,29,68.9
	c-0.275-0.425-0.519-0.875-0.73-1.35c-0.211-0.475-0.389-0.975-0.533-1.5s-0.253-1.075-0.326-1.65
	c-0.073-0.575-0.111-1.175-0.111-1.8c0-0.475,0.019-0.938,0.056-1.386c0.038-0.448,0.094-0.883,0.169-1.302s0.169-0.822,0.281-1.208
	S28.05,57.95,28.2,57.6s0.319-0.681,0.503-0.995c0.184-0.314,0.384-0.611,0.597-0.893s0.438-0.547,0.672-0.799
	s0.478-0.489,0.728-0.715c0.275-0.225,0.556-0.431,0.845-0.622c0.289-0.191,0.586-0.366,0.893-0.528
	c0.306-0.162,0.622-0.312,0.948-0.453s0.664-0.272,1.014-0.397c0.35-0.1,0.706-0.188,1.067-0.263s0.727-0.138,1.096-0.188
	c0.368-0.05,0.74-0.087,1.114-0.112s0.748-0.038,1.123-0.038s0.744,0.006,1.105,0.019c0.361,0.013,0.714,0.031,1.058,0.056
	c0.343,0.026,0.678,0.057,1.001,0.095C42.287,51.806,42.6,51.85,42.9,51.9c0.3,0.05,0.594,0.112,0.881,0.186
	c0.287,0.073,0.569,0.158,0.844,0.252s0.544,0.197,0.806,0.308C45.694,52.757,45.95,52.875,46.2,53v1.925v1.925v1.925V60.7
	c-0.125-0.1-0.25-0.2-0.377-0.299c-0.127-0.099-0.255-0.196-0.386-0.29c-0.131-0.093-0.265-0.184-0.404-0.27
	c-0.139-0.086-0.283-0.167-0.433-0.242s-0.3-0.15-0.45-0.223c-0.15-0.074-0.3-0.146-0.45-0.215s-0.3-0.135-0.45-0.196
	c-0.15-0.061-0.3-0.117-0.45-0.166s-0.3-0.099-0.45-0.148s-0.3-0.096-0.45-0.14c-0.15-0.044-0.3-0.084-0.45-0.12
	c-0.15-0.036-0.3-0.067-0.45-0.092s-0.3-0.05-0.449-0.074c-0.148-0.023-0.295-0.045-0.439-0.064
	c-0.143-0.018-0.284-0.034-0.42-0.045C39.556,58.106,39.425,58.1,39.3,58.1c-0.2,0-0.388,0.006-0.567,0.019
	c-0.18,0.013-0.352,0.031-0.521,0.056c-0.168,0.025-0.334,0.056-0.501,0.094c-0.167,0.038-0.336,0.081-0.511,0.131
	s-0.337,0.113-0.489,0.184s-0.292,0.153-0.423,0.241s-0.253,0.181-0.367,0.278C35.806,59.2,35.7,59.3,35.6,59.4
	s-0.2,0.194-0.297,0.286c-0.097,0.092-0.191,0.183-0.278,0.276s-0.169,0.19-0.241,0.295c-0.072,0.105-0.134,0.218-0.184,0.343
	s-0.094,0.25-0.131,0.375c-0.038,0.125-0.069,0.25-0.094,0.375s-0.044,0.25-0.056,0.375C34.306,61.85,34.3,61.975,34.3,62.1
	c0,0.15,0.006,0.3,0.02,0.448c0.014,0.149,0.036,0.296,0.067,0.44c0.032,0.144,0.072,0.284,0.124,0.42s0.114,0.267,0.189,0.392
	c0.075,0.125,0.15,0.25,0.228,0.374c0.078,0.124,0.159,0.246,0.247,0.365c0.087,0.118,0.181,0.234,0.284,0.345
	c0.103,0.111,0.216,0.217,0.341,0.317s0.256,0.206,0.392,0.316c0.136,0.109,0.276,0.222,0.42,0.334
	c0.144,0.112,0.291,0.225,0.44,0.334C37.2,66.294,37.35,66.4,37.5,66.5c0.175,0.1,0.356,0.206,0.542,0.316s0.376,0.222,0.57,0.334
	s0.391,0.225,0.589,0.334S39.6,67.7,39.8,67.8c0.3,0.15,0.587,0.306,0.866,0.467c0.278,0.161,0.547,0.327,0.809,0.496
	c0.263,0.169,0.519,0.34,0.772,0.514C42.5,69.45,42.75,69.625,43,69.8c0.225,0.175,0.444,0.356,0.656,0.544s0.419,0.381,0.619,0.581
	s0.394,0.406,0.581,0.619c0.188,0.212,0.369,0.431,0.544,0.656s0.338,0.456,0.488,0.694c0.15,0.238,0.287,0.481,0.412,0.731
	s0.237,0.506,0.338,0.769c0.1,0.262,0.188,0.531,0.262,0.806c0.1,0.275,0.181,0.562,0.247,0.863S47.263,76.675,47.3,77
	s0.062,0.662,0.078,1.012c0.016,0.35,0.022,0.713,0.022,1.088c0,0.525-0.019,1.025-0.056,1.502c-0.037,0.477-0.094,0.93-0.169,1.361
	c-0.075,0.431-0.169,0.84-0.281,1.229C46.781,83.581,46.65,83.95,46.5,84.3s-0.319,0.681-0.503,0.995
	c-0.184,0.314-0.384,0.611-0.597,0.892s-0.438,0.547-0.672,0.799S44.25,87.475,44,87.7c-0.275,0.225-0.556,0.431-0.845,0.62
	c-0.289,0.189-0.586,0.361-0.892,0.517s-0.622,0.297-0.949,0.424c-0.327,0.127-0.664,0.24-1.014,0.34s-0.706,0.188-1.069,0.262
	C38.869,89.938,38.5,90,38.125,90.05s-0.756,0.088-1.144,0.113S36.2,90.2,35.8,90.2s-0.8-0.012-1.197-0.036
	c-0.397-0.023-0.791-0.058-1.178-0.101c-0.388-0.044-0.769-0.097-1.141-0.158c-0.372-0.061-0.734-0.13-1.084-0.205
	c-0.375-0.15-0.731-0.294-1.072-0.436s-0.666-0.283-0.978-0.427s-0.612-0.291-0.903-0.445C27.956,88.237,27.675,88.075,27.4,87.9z"
	/>
<path style="fill:#FFFFFF;stroke:#000000;" d="M59,76.6v3.175v3.175v3.175V89.3h-1.65H55.7h-1.65H52.4v-9.225V70.85v-9.225V52.4H55
	h2.6h2.6h2.6c1.85,0,3.469,0.244,4.856,0.733s2.544,1.224,3.469,2.205c0.925,0.981,1.619,2.209,2.081,3.685
	C73.669,60.5,73.9,62.225,73.9,64.2c0,0.925-0.069,1.806-0.205,2.644c-0.136,0.837-0.339,1.631-0.607,2.381
	s-0.603,1.456-1.002,2.119S71.225,72.625,70.7,73.2s-1.1,1.075-1.722,1.501s-1.291,0.78-2.003,1.061s-1.469,0.491-2.266,0.63
	C63.913,76.531,63.075,76.6,62.2,76.6c0,0-0.2,0-0.5,0s-0.7,0-1.1,0s-0.8,0-1.1,0C59.2,76.6,59,76.6,59,76.6z M59,58.8v2.875v2.875
	v2.875V70.3h0.65h0.65h0.65h0.65c0.875,0,1.644-0.119,2.305-0.358c0.661-0.239,1.214-0.599,1.658-1.08s0.778-1.085,1.002-1.811
	c0.223-0.726,0.336-1.576,0.336-2.551c0-0.95-0.112-1.781-0.336-2.494s-0.558-1.306-1.002-1.781
	c-0.444-0.475-0.996-0.831-1.657-1.069c-0.661-0.237-1.43-0.356-2.305-0.356h-0.65H60.3h-0.65H59z"/>
</svg>
