<?xml version="1.0" encoding="iso-8859-1"?>
<!-- Generator: Adobe Illustrator 25.3.1, SVG Export Plug-In . SVG Version: 6.00 Build 0)  -->
<svg version="1.1" id="Layer_1" xmlns="http://www.w3.org/2000/svg" xmlns:xlink="http://www.w3.org/1999/xlink" x="0px" y="0px"
	 viewBox="0 0 100 100" style="enable-background:new 0 0 100 100;" xml:space="preserve">
<polygon style="fill:#E93527;" points="47.3,7.8 59.675,29.125 72.05,50.45 84.425,71.775 96.8,93.1 72.3,93.1 47.8,93.1 23.3,93.1 
	-1.2,93.1 10.925,71.775 23.05,50.45 35.175,29.125 "/>
<path style="fill:#020303;" d="M98.5,94.1H73.15H47.8H22.45H-2.9L9.65,72.025L22.2,49.95l12.55-22.075L47.3,5.8l12.8,22.075
	L72.9,49.95l12.8,22.075L98.5,94.1z M0.5,92.1h23.625H47.75h23.625H95L83.1,71.525L71.2,50.95L59.3,30.375L47.4,9.8L35.675,30.375
	L23.95,50.95L12.225,71.525L0.5,92.1z"/>
<path style="fill:#FFFFFF;" d="M44.2,86.7c-0.55,0.325-1.138,0.613-1.763,0.861s-1.287,0.458-1.987,0.627
	c-0.7,0.168-1.438,0.297-2.213,0.382c-0.775,0.086-1.587,0.13-2.438,0.13c-1.125,0-2.194-0.106-3.205-0.317
	s-1.964-0.526-2.857-0.945c-0.894-0.419-1.728-0.941-2.502-1.564S25.75,84.525,25.1,83.7s-1.219-1.725-1.706-2.697
	c-0.488-0.972-0.894-2.016-1.219-3.128c-0.325-1.113-0.569-2.294-0.731-3.541C21.281,73.088,21.2,71.775,21.2,70.4
	c0-1.475,0.094-2.881,0.28-4.219s0.464-2.606,0.832-3.806c0.369-1.2,0.828-2.331,1.377-3.394S24.875,56.925,25.6,56
	s1.506-1.731,2.342-2.42s1.727-1.261,2.671-1.718c0.943-0.456,1.94-0.797,2.989-1.023C34.65,50.612,35.75,50.5,36.9,50.5
	c0.725,0,1.419,0.031,2.083,0.092c0.664,0.061,1.298,0.151,1.904,0.27c0.606,0.119,1.185,0.266,1.736,0.439S43.7,51.675,44.2,51.9v2
	v2v2v2c-0.5-0.375-1.013-0.7-1.539-0.977c-0.527-0.276-1.067-0.504-1.624-0.685c-0.556-0.181-1.128-0.316-1.717-0.405
	c-0.589-0.089-1.195-0.133-1.82-0.133c-0.7,0-1.363,0.069-1.989,0.206c-0.627,0.138-1.217,0.344-1.774,0.619
	c-0.556,0.275-1.078,0.619-1.567,1.031C31.681,59.969,31.225,60.45,30.8,61s-0.8,1.144-1.124,1.783
	c-0.323,0.639-0.595,1.324-0.814,2.055s-0.384,1.509-0.495,2.336C28.256,68,28.2,68.875,28.2,69.8c0,0.9,0.05,1.75,0.15,2.551
	s0.25,1.555,0.45,2.26c0.2,0.706,0.45,1.366,0.75,1.98c0.3,0.614,0.65,1.183,1.05,1.708s0.837,0.988,1.311,1.386
	c0.473,0.398,0.983,0.733,1.526,1.001c0.544,0.269,1.122,0.472,1.733,0.608S36.425,81.5,37.1,81.5c0.65,0,1.287-0.05,1.911-0.15
	s1.233-0.25,1.826-0.45c0.594-0.2,1.172-0.45,1.733-0.75c0.561-0.3,1.104-0.65,1.629-1.05c0,0,0,0.475,0,1.188s0,1.662,0,2.613
	s0,1.9,0.001,2.612C44.2,86.225,44.2,86.7,44.2,86.7z"/>
<path d="M35.8,89.2c-1.175,0-2.287-0.106-3.337-0.32c-1.05-0.214-2.038-0.536-2.963-0.967c-0.925-0.431-1.788-0.972-2.587-1.624
	c-0.8-0.652-1.538-1.414-2.212-2.289c-0.65-0.85-1.225-1.775-1.722-2.772c-0.497-0.997-0.916-2.066-1.253-3.203
	s-0.594-2.344-0.766-3.616C20.788,73.137,20.7,71.8,20.7,70.4c0-1.5,0.094-2.931,0.281-4.294c0.188-1.363,0.469-2.656,0.844-3.881
	s0.844-2.381,1.406-3.469c0.562-1.087,1.219-2.106,1.969-3.056c0.75-0.925,1.562-1.744,2.434-2.451
	c0.872-0.708,1.803-1.305,2.791-1.785c0.988-0.482,2.031-0.847,3.128-1.093C34.65,50.125,35.8,50,37,50
	c0.725,0,1.431,0.031,2.114,0.092c0.683,0.061,1.342,0.151,1.974,0.27c0.631,0.119,1.234,0.266,1.804,0.439S44,51.175,44.5,51.4
	l0.075,0.025l0.075,0.025l0.075,0.025L44.8,51.5v2.325v2.325v2.325V60.8l-0.2-0.15l-0.2-0.15l-0.2-0.15L44,60.2
	c-0.475-0.35-0.963-0.656-1.464-0.919c-0.502-0.262-1.017-0.481-1.549-0.656s-1.078-0.306-1.642-0.394
	C38.781,58.144,38.2,58.1,37.6,58.1c-0.65,0-1.269,0.062-1.856,0.189c-0.587,0.127-1.144,0.317-1.669,0.574
	c-0.525,0.256-1.019,0.578-1.481,0.967S31.7,60.675,31.3,61.2s-0.75,1.1-1.05,1.722s-0.55,1.291-0.75,2.003s-0.35,1.469-0.45,2.266
	c-0.1,0.797-0.15,1.634-0.15,2.509c0,0.85,0.05,1.662,0.148,2.434c0.098,0.772,0.245,1.503,0.439,2.191s0.434,1.331,0.72,1.928
	S30.825,77.4,31.2,77.9s0.781,0.938,1.22,1.312c0.439,0.375,0.911,0.688,1.417,0.938s1.047,0.438,1.624,0.562
	C36.037,80.838,36.65,80.9,37.3,80.9c0.625,0,1.237-0.05,1.836-0.148c0.598-0.099,1.183-0.245,1.751-0.439
	c0.569-0.194,1.122-0.434,1.658-0.72c0.536-0.286,1.055-0.617,1.555-0.992l0.2-0.15l0.2-0.15l0.2-0.15L44.9,78v2.25v2.25v2.25V87
	l-0.05,0.025L44.8,87.05l-0.05,0.025L44.7,87.1c-0.6,0.35-1.231,0.656-1.897,0.919c-0.666,0.262-1.366,0.481-2.103,0.656
	c-0.738,0.175-1.513,0.306-2.328,0.394C37.556,89.156,36.7,89.2,35.8,89.2z M37,51c-1.125,0-2.2,0.112-3.223,0.336
	c-1.024,0.224-1.996,0.558-2.915,1.002c-0.918,0.444-1.784,0.996-2.595,1.657C27.456,54.656,26.7,55.425,26,56.3
	c-0.7,0.9-1.319,1.869-1.853,2.905c-0.534,1.036-0.984,2.139-1.347,3.307c-0.362,1.169-0.638,2.403-0.822,3.702
	C21.794,67.513,21.7,68.875,21.7,70.3c0,1.35,0.081,2.637,0.242,3.859c0.161,1.222,0.401,2.378,0.72,3.466
	c0.319,1.088,0.716,2.106,1.19,3.053S24.875,82.5,25.5,83.3s1.306,1.5,2.045,2.1c0.739,0.6,1.536,1.1,2.393,1.5
	c0.856,0.4,1.771,0.7,2.748,0.9c0.976,0.2,2.014,0.3,3.114,0.3c0.8,0,1.569-0.037,2.303-0.111c0.734-0.074,1.434-0.183,2.097-0.327
	s1.288-0.322,1.872-0.533c0.584-0.211,1.128-0.454,1.628-0.729v-1.6v-1.6v-1.6V80c-0.5,0.325-1.013,0.606-1.537,0.845
	c-0.525,0.239-1.063,0.436-1.613,0.593c-0.55,0.156-1.112,0.271-1.688,0.348S37.7,81.9,37.1,81.9c-0.725,0-1.412-0.069-2.062-0.208
	c-0.65-0.139-1.263-0.349-1.838-0.63c-0.575-0.281-1.112-0.634-1.613-1.061c-0.5-0.426-0.962-0.926-1.387-1.501
	c-0.425-0.55-0.794-1.15-1.108-1.797s-0.574-1.341-0.78-2.078s-0.359-1.519-0.461-2.341S27.7,70.6,27.7,69.7
	c0-0.95,0.056-1.856,0.169-2.717c0.112-0.861,0.281-1.676,0.506-2.445c0.225-0.769,0.506-1.491,0.844-2.164
	C29.556,61.7,29.95,61.075,30.4,60.5s0.938-1.081,1.461-1.517c0.523-0.436,1.083-0.801,1.676-1.095s1.222-0.515,1.883-0.664
	C36.081,57.075,36.775,57,37.5,57c0.575,0,1.138,0.037,1.686,0.112s1.083,0.188,1.602,0.338c0.519,0.15,1.021,0.337,1.507,0.562
	C42.781,58.237,43.25,58.5,43.7,58.8v-1.675V55.45v-1.675V52.1c-0.45-0.175-0.931-0.331-1.441-0.467
	c-0.509-0.136-1.047-0.251-1.609-0.345c-0.562-0.094-1.15-0.166-1.759-0.215C38.281,51.025,37.65,51,37,51z"/>
<path style="fill:#FFFFFF;" d="M56,75.3v3.175v3.175v3.175V88h-1.65H52.7h-1.65H49.4v-9.2v-9.2v-9.2v-9.2H52h2.6h2.6h2.6
	c1.85,0,3.469,0.244,4.856,0.733c1.388,0.489,2.544,1.224,3.469,2.205c0.925,0.981,1.619,2.209,2.081,3.685
	C70.669,59.3,70.9,61.025,70.9,63c0,0.925-0.069,1.806-0.205,2.644c-0.136,0.837-0.339,1.631-0.607,2.381s-0.603,1.456-1.002,2.119
	C68.688,70.806,68.225,71.425,67.7,72s-1.1,1.075-1.722,1.502c-0.622,0.426-1.291,0.779-2.003,1.06
	c-0.712,0.281-1.469,0.491-2.266,0.63S60.075,75.4,59.2,75.4h-0.8h-0.8h-0.8H56v-0.025V75.35v-0.025V75.3z M56,57.5v2.875v2.875
	v2.875V69h0.65h0.65h0.65h0.65c0.875,0,1.644-0.119,2.305-0.358c0.661-0.239,1.214-0.599,1.658-1.08
	c0.444-0.481,0.778-1.084,1.001-1.81c0.223-0.727,0.336-1.576,0.336-2.552c0-0.95-0.112-1.781-0.336-2.494
	c-0.223-0.712-0.558-1.306-1.001-1.781c-0.444-0.475-0.997-0.831-1.658-1.069c-0.661-0.237-1.43-0.356-2.305-0.356h-0.65H57.3h-0.65
	H56z"/>
<path d="M56.5,88.5h-1.9h-1.9h-1.9h-1.9v-9.45V69.6v-9.45V50.7h2.725h2.725h2.725H59.8c1.925,0,3.612,0.256,5.061,0.769
	c1.449,0.513,2.658,1.281,3.627,2.306c0.968,1.025,1.696,2.306,2.182,3.844C71.156,59.156,71.4,60.95,71.4,63
	c0,0.95-0.069,1.863-0.206,2.733c-0.137,0.87-0.344,1.699-0.619,2.48c-0.275,0.781-0.619,1.515-1.031,2.198
	c-0.412,0.683-0.894,1.314-1.444,1.889c-0.55,0.6-1.15,1.125-1.798,1.575S64.956,74.7,64.213,75c-0.744,0.3-1.535,0.525-2.371,0.675
	c-0.836,0.15-1.717,0.225-2.642,0.225h-0.675H57.85h-0.675H56.5c0,0,0,0.787,0,1.969s0,2.756,0,4.331c0,1.575,0,3.15,0,4.331
	S56.5,88.5,56.5,88.5z M49.9,87.5h1.4h1.4h1.4h1.4v-3.175V81.15v-3.175V74.8h0.925h0.925h0.925H59.2c0.85,0,1.662-0.069,2.434-0.206
	c0.772-0.137,1.503-0.344,2.191-0.619c0.688-0.275,1.331-0.619,1.928-1.031C66.35,72.531,66.9,72.05,67.4,71.5
	s0.944-1.144,1.328-1.78s0.709-1.314,0.972-2.032c0.263-0.719,0.463-1.478,0.597-2.277s0.203-1.635,0.203-2.51
	c0-1.9-0.219-3.556-0.658-4.972c-0.439-1.416-1.098-2.591-1.979-3.528c-0.882-0.938-1.985-1.638-3.311-2.103
	c-1.327-0.466-2.877-0.697-4.652-0.697h-2.475H54.95h-2.475H50v8.975v8.975v8.974V87.5h-0.025H49.95h-0.025H49.9z M58.6,69.5h-0.775
	H57.05h-0.775H55.5v-3.125V63.25v-3.125V57h0.775h0.775h0.775H58.6c0.95,0,1.787,0.131,2.509,0.392
	c0.722,0.261,1.328,0.651,1.816,1.17s0.856,1.166,1.103,1.939c0.247,0.774,0.372,1.674,0.372,2.699
	c0.025,1.025-0.088,1.931-0.33,2.714s-0.614,1.442-1.108,1.974c-0.494,0.531-1.109,0.934-1.839,1.204
	C60.394,69.363,59.55,69.5,58.6,69.5z M56.5,68.5h0.525h0.525h0.525H58.6c0.825,0,1.537-0.106,2.142-0.322s1.102-0.541,1.496-0.978
	c0.394-0.438,0.684-0.988,0.876-1.653C63.306,64.881,63.4,64.1,63.4,63.2c0-0.875-0.094-1.638-0.286-2.289
	c-0.192-0.652-0.483-1.192-0.876-1.624c-0.394-0.431-0.891-0.753-1.496-0.967C60.138,58.106,59.425,58,58.6,58h-0.525H57.55h-0.525
	H56.5v2.625v2.625v2.625V68.5z"/>
<path d="M62.6,27.1v-4.2v-4.2v-4.2v-4.2h2.05h2.05h2.05h2.05v0.5v0.5v0.5v0.5h-1.65H67.5h-1.65H64.2v1.3v1.3v1.3v1.3h1.425h1.425
	h1.425H69.9V18v0.5V19v0.5h-1.425H67.05h-1.425H64.2v1.9v1.9v1.9v1.9h-0.4h-0.4H63H62.6z"/>
<path d="M70.7,27.1l1.175-4.2l1.175-4.2l1.175-4.2l1.175-4.2h0.425h0.425h0.425H77.1l1.25,4.2l1.25,4.2l1.25,4.2l1.25,4.2h-0.45
	H81.2h-0.45H80.3l-0.375-1.275L79.55,24.55l-0.375-1.275L78.8,22h-1.275H76.25h-1.275H73.7l-0.325,1.275L73.05,24.55l-0.325,1.275
	L72.4,27.1h-0.425H71.55h-0.425H70.7z M74.2,20.2h1.025h1.025h1.025H78.3l-0.325-1.175L77.65,17.85l-0.325-1.175L77,15.5
	c-0.1-0.35-0.194-0.688-0.281-1.011c-0.088-0.324-0.169-0.633-0.244-0.927s-0.144-0.572-0.206-0.833
	C76.206,12.469,76.15,12.225,76.1,12c-0.05,0.275-0.1,0.544-0.151,0.809s-0.104,0.528-0.16,0.791
	c-0.056,0.262-0.115,0.525-0.179,0.791c-0.064,0.266-0.133,0.534-0.208,0.809l-0.3,1.25l-0.3,1.25l-0.3,1.25L74.2,20.2z"/>
<path d="M92,21.2l0.4,0.15l0.4,0.15l0.4,0.15l0.4,0.15c-0.075,0.45-0.169,0.875-0.281,1.275s-0.244,0.775-0.394,1.125
	s-0.319,0.675-0.506,0.975S92.025,25.75,91.8,26s-0.462,0.462-0.711,0.641c-0.248,0.178-0.508,0.322-0.777,0.434
	c-0.269,0.113-0.547,0.194-0.832,0.247C89.194,27.375,88.9,27.4,88.6,27.4c-0.325,0-0.638-0.025-0.936-0.073
	c-0.298-0.049-0.583-0.121-0.851-0.215c-0.269-0.094-0.522-0.209-0.758-0.345C85.819,26.631,85.6,26.475,85.4,26.3
	s-0.388-0.375-0.564-0.598s-0.342-0.47-0.498-0.739s-0.303-0.559-0.442-0.87S83.625,23.45,83.5,23.1
	c-0.1-0.35-0.188-0.706-0.262-1.069S83.1,21.3,83.05,20.925s-0.088-0.756-0.113-1.144C82.913,19.394,82.9,19,82.9,18.6
	c0-0.425,0.013-0.844,0.039-1.253c0.026-0.409,0.067-0.809,0.123-1.197s0.128-0.763,0.217-1.122S83.475,14.325,83.6,14
	s0.263-0.631,0.412-0.919c0.15-0.288,0.312-0.556,0.488-0.806s0.363-0.481,0.562-0.694c0.2-0.212,0.412-0.406,0.637-0.581
	s0.456-0.325,0.694-0.451c0.238-0.127,0.481-0.229,0.731-0.311c0.25-0.082,0.506-0.141,0.769-0.18C88.156,10.019,88.425,10,88.7,10
	c0.3,0,0.588,0.025,0.864,0.076c0.277,0.052,0.542,0.13,0.798,0.236s0.503,0.24,0.742,0.405s0.471,0.358,0.696,0.583
	s0.426,0.469,0.604,0.731c0.178,0.263,0.334,0.544,0.471,0.844c0.137,0.3,0.256,0.619,0.359,0.956
	c0.103,0.337,0.191,0.694,0.266,1.069l-0.4,0.125l-0.4,0.125l-0.4,0.125L91.9,15.4c-0.075-0.3-0.156-0.581-0.244-0.844
	s-0.181-0.506-0.281-0.731s-0.206-0.431-0.319-0.619c-0.113-0.188-0.231-0.356-0.356-0.506s-0.262-0.275-0.411-0.378
	s-0.308-0.184-0.476-0.247c-0.169-0.062-0.347-0.106-0.533-0.134C89.094,11.912,88.9,11.9,88.7,11.9
	c-0.225,0-0.444,0.019-0.655,0.056c-0.211,0.038-0.414,0.094-0.607,0.169c-0.194,0.075-0.378,0.169-0.552,0.281
	S86.55,12.65,86.4,12.8s-0.294,0.312-0.428,0.489c-0.134,0.176-0.259,0.367-0.372,0.573c-0.112,0.207-0.213,0.428-0.297,0.667
	c-0.084,0.239-0.153,0.495-0.203,0.771c-0.075,0.25-0.138,0.506-0.189,0.767c-0.051,0.261-0.092,0.526-0.123,0.795
	s-0.053,0.541-0.067,0.814S84.7,18.225,84.7,18.5c0,0.35,0.012,0.694,0.036,1.028c0.023,0.334,0.058,0.659,0.101,0.972
	s0.097,0.612,0.158,0.897s0.13,0.553,0.205,0.803c0.075,0.275,0.162,0.531,0.261,0.769c0.098,0.237,0.208,0.456,0.327,0.656
	s0.247,0.381,0.383,0.544c0.136,0.162,0.279,0.306,0.429,0.431s0.306,0.238,0.469,0.336c0.162,0.098,0.331,0.183,0.506,0.251
	s0.356,0.122,0.544,0.158C88.306,25.381,88.5,25.4,88.7,25.4c0.225,0,0.444-0.025,0.655-0.073s0.414-0.121,0.607-0.215
	c0.194-0.094,0.379-0.209,0.552-0.345S90.85,24.475,91,24.3s0.275-0.369,0.381-0.583c0.106-0.214,0.194-0.448,0.269-0.704
	s0.138-0.534,0.194-0.836C91.9,21.875,91.95,21.55,92,21.2z"/>
<path d="M97.2,29.6h-9.375H78.45h-9.375H59.7v-5.75V18.1v-5.75V6.6h9.375h9.375h9.375H97.2v5.75v5.75v5.75V29.6z M60.2,29.1h9.125
	h9.125h9.125H96.7v-5.5v-5.5v-5.5V7.1h-9.125H78.45h-9.125H60.2v5.5v5.5v5.5V29.1z"/>
</svg>
