<?xml version="1.0" encoding="utf-8"?>
<!-- Generator: Adobe Illustrator 25.2.0, SVG Export Plug-In . SVG Version: 6.00 Build 0)  -->
<svg version="1.1" id="Layer_1" xmlns="http://www.w3.org/2000/svg" xmlns:xlink="http://www.w3.org/1999/xlink" x="0px" y="0px"
	 viewBox="0 0 100 100" style="enable-background:new 0 0 100 100;" xml:space="preserve">
<polygon style="fill:#B3B3B4;" points="50,24.7 96.1,50 50,75.4 3.4,50 "/>
<g>
	<g>
		<path d="M80.5,73v-2.5h5.1v5.9c-0.5,0.6-1.2,1.1-2.2,1.6c-0.9,0.5-1.9,0.7-2.9,0.7c-1.2,0-2.3-0.3-3.2-1s-1.6-1.6-2.1-2.8
			c-0.5-1.2-0.7-2.5-0.7-4c0-1.5,0.3-2.9,0.8-4.1c0.5-1.2,1.3-2.1,2.2-2.8c0.8-0.5,1.7-0.7,2.8-0.7c1.5,0,2.6,0.4,3.4,1.2
			c0.8,0.8,1.3,1.8,1.6,3.2L83,68.3c-0.2-0.7-0.5-1.3-0.9-1.7s-1-0.6-1.7-0.6c-1,0-1.9,0.4-2.5,1.2C77.3,68,77,69.3,77,70.9
			c0,1.8,0.3,3.1,0.9,4c0.6,0.9,1.4,1.3,2.4,1.3c0.5,0,1-0.1,1.5-0.4c0.5-0.2,0.9-0.5,1.3-0.9V73H80.5z"/>
	</g>
	<g>
		<g>
			<path d="M28.6,61.5V39.2H37c8.4,0,12.6,3.6,12.6,10.9c0,3.5-1.1,6.2-3.4,8.3c-2.3,2.1-5.4,3.1-9.2,3.1H28.6z M33.9,43.3v14.1h2.6
				c2.3,0,4.1-0.7,5.4-2c1.3-1.3,2-3.1,2-5.3c0-2.1-0.7-3.8-2-5s-3.1-1.8-5.5-1.8H33.9z"/>
		</g>
	</g>
	<g>
		<g>
			<path d="M53.7,61.5V39.2h8.4c8.4,0,12.6,3.6,12.6,10.9c0,3.5-1.1,6.2-3.4,8.3c-2.3,2.1-5.4,3.1-9.2,3.1H53.7z M59,43.3v14.1h2.6
				c2.3,0,4.1-0.7,5.4-2c1.3-1.3,2-3.1,2-5.3c0-2.1-0.7-3.8-2-5s-3.1-1.8-5.5-1.8H59z"/>
		</g>
	</g>
</g>
</svg>
