<?xml version="1.0" encoding="utf-8"?>
<!-- Generator: Adobe Illustrator 25.2.0, SVG Export Plug-In . SVG Version: 6.00 Build 0)  -->
<svg version="1.1" id="Layer_1" xmlns="http://www.w3.org/2000/svg" xmlns:xlink="http://www.w3.org/1999/xlink" x="0px" y="0px"
	 viewBox="0 0 100 100" style="enable-background:new 0 0 100 100;" xml:space="preserve">
<polygon style="fill:#B3B3B4;" points="50,24.7 96.1,50 50,75.4 3.4,50 "/>
<g>
	<g>
		<g>
			<path d="M50.5,43.9h-8v18.2h-6.4V43.9h-8v-4.1h22.4V43.9z"/>
			<path d="M53,61.2v-5c1.1,0.8,2.4,1.3,3.7,1.7c1.3,0.4,2.7,0.6,4,0.6c0.8,0,1.5-0.1,2.1-0.2c0.6-0.1,1.1-0.3,1.5-0.5
				c0.4-0.2,0.7-0.4,0.9-0.7c0.2-0.3,0.3-0.6,0.3-0.9c0-0.4-0.2-0.8-0.5-1.2c-0.3-0.3-0.7-0.7-1.3-0.9c-0.5-0.3-1.2-0.6-1.9-0.8
				c-0.7-0.3-1.6-0.5-2.4-0.8c-2.2-0.7-3.8-1.6-4.9-2.7c-1.1-1-1.6-2.3-1.6-3.8c0-1.2,0.3-2.2,0.9-3c0.6-0.8,1.4-1.5,2.4-2.1
				s2.2-0.9,3.5-1.2c1.3-0.3,2.8-0.4,4.2-0.4c1.5,0,2.8,0.1,3.9,0.2c1.1,0.1,2.2,0.4,3.1,0.6v4.6c-0.5-0.3-1-0.5-1.5-0.7
				c-0.6-0.2-1.1-0.4-1.7-0.5c-0.6-0.1-1.2-0.2-1.8-0.3c-0.6-0.1-1.1-0.1-1.7-0.1c-0.7,0-1.4,0.1-2,0.2s-1.1,0.3-1.5,0.5
				c-0.4,0.2-0.7,0.4-0.9,0.7c-0.2,0.3-0.3,0.6-0.3,0.9c0,0.4,0.1,0.7,0.4,1s0.6,0.6,1.1,0.8c0.5,0.3,1,0.5,1.7,0.8
				c0.7,0.3,1.4,0.5,2.2,0.8c1.1,0.4,2.1,0.8,3,1.2c0.9,0.4,1.7,0.9,2.3,1.4s1.1,1.1,1.5,1.8s0.5,1.5,0.5,2.4c0,1.2-0.3,2.3-0.9,3.1
				c-0.6,0.8-1.4,1.5-2.4,2.1c-1,0.5-2.2,0.9-3.6,1.1c-1.4,0.2-2.8,0.3-4.3,0.3c-1.5,0-3-0.1-4.4-0.3C55.2,62,54,61.6,53,61.2z"/>
		</g>
	</g>
</g>
</svg>
