<?xml version="1.0" encoding="iso-8859-1"?>
<!-- Generator: Adobe Illustrator 25.3.1, SVG Export Plug-In . SVG Version: 6.00 Build 0)  -->
<svg version="1.1" id="Layer_1" xmlns="http://www.w3.org/2000/svg" xmlns:xlink="http://www.w3.org/1999/xlink" x="0px" y="0px"
	 viewBox="0 0 100 100" style="enable-background:new 0 0 100 100;" xml:space="preserve">
<polygon style="fill:#E93527;" points="49.6,7.8 61.95,29.15 74.3,50.5 86.65,71.85 99,93.2 74.5,93.2 50,93.2 25.5,93.2 1,93.2 
	13.15,71.85 25.3,50.5 37.45,29.15 "/>
<path style="fill:#020303;" d="M100.7,94.2H75.35H50H24.65H-0.7l12.575-22.1L24.45,50l12.575-22.1L49.6,5.8l12.775,22.1L75.15,50
	l12.775,22.1L100.7,94.2z M2.7,92.2h23.625H49.95h23.625H97.2L85.3,71.625L73.4,51.05L61.5,30.475L49.6,9.9L37.875,30.475
	L26.15,51.05L14.425,71.625L2.7,92.2z"/>
<path style="fill:#FFFFFF;" d="M52.9,89.8H51h-1.9h-1.9h-1.9l-1.15-2.375L43,85.05l-1.15-2.375L40.7,80.3
	c-0.075-0.175-0.156-0.35-0.241-0.522c-0.084-0.172-0.172-0.341-0.259-0.503s-0.175-0.319-0.259-0.466
	c-0.084-0.147-0.166-0.284-0.241-0.409c-0.075-0.15-0.15-0.294-0.227-0.431s-0.154-0.269-0.236-0.394
	c-0.081-0.125-0.166-0.244-0.255-0.356S38.8,77,38.7,76.9s-0.194-0.194-0.283-0.281s-0.174-0.169-0.255-0.244
	c-0.081-0.075-0.159-0.144-0.236-0.206S37.775,76.05,37.7,76s-0.156-0.094-0.242-0.131c-0.086-0.037-0.177-0.069-0.271-0.094
	c-0.094-0.025-0.19-0.044-0.289-0.056C36.8,75.706,36.7,75.7,36.6,75.7h-0.45H35.7h-0.45H34.8v3.525v3.525v3.525V89.8h-1.65H31.5
	h-1.65H28.2v-9.2v-9.2v-9.2V53h2.625h2.625h2.625H38.7c1.8,0,3.369,0.206,4.709,0.62c1.341,0.414,2.453,1.036,3.341,1.867
	c0.888,0.832,1.55,1.872,1.991,3.124C49.181,59.863,49.4,61.325,49.4,63c0,0.325-0.013,0.644-0.036,0.956
	c-0.024,0.312-0.058,0.619-0.102,0.919s-0.097,0.594-0.158,0.881c-0.061,0.287-0.129,0.569-0.204,0.844s-0.162,0.544-0.259,0.805
	c-0.097,0.261-0.203,0.514-0.316,0.757c-0.112,0.244-0.231,0.479-0.353,0.702C47.85,69.088,47.725,69.3,47.6,69.5
	c-0.15,0.225-0.306,0.438-0.469,0.641s-0.331,0.397-0.506,0.584s-0.356,0.369-0.544,0.547S45.7,71.625,45.5,71.8
	c-0.2,0.15-0.406,0.294-0.619,0.431c-0.213,0.137-0.431,0.269-0.656,0.394s-0.456,0.244-0.694,0.356
	C43.294,73.094,43.05,73.2,42.8,73.3v0.025v0.025v0.025V73.4c0.1,0.05,0.206,0.106,0.316,0.167s0.222,0.126,0.334,0.195
	c0.112,0.069,0.225,0.141,0.334,0.214S44,74.125,44.1,74.2c0.1,0.1,0.2,0.2,0.3,0.303c0.1,0.103,0.2,0.209,0.3,0.322
	s0.2,0.231,0.3,0.359c0.1,0.128,0.2,0.266,0.3,0.416c0.1,0.125,0.2,0.256,0.299,0.392c0.099,0.136,0.196,0.276,0.29,0.42
	c0.094,0.144,0.184,0.291,0.27,0.44C46.244,77,46.325,77.15,46.4,77.3s0.156,0.3,0.241,0.448c0.084,0.148,0.172,0.295,0.259,0.439
	s0.175,0.284,0.259,0.42c0.084,0.136,0.166,0.268,0.241,0.393l1.375,2.7l1.375,2.7l1.375,2.7L52.9,89.8z M34.8,59.2v2.575v2.575
	v2.575V69.5h0.725h0.725h0.725H37.7c0.35,0,0.688-0.031,1.009-0.094c0.322-0.062,0.628-0.156,0.916-0.281s0.556-0.281,0.803-0.469
	C40.675,68.469,40.9,68.25,41.1,68c0.225-0.25,0.419-0.519,0.583-0.806c0.164-0.287,0.298-0.594,0.404-0.919
	c0.106-0.325,0.185-0.669,0.236-1.031C42.375,64.881,42.4,64.5,42.4,64.1c0-0.8-0.094-1.5-0.283-2.1s-0.474-1.1-0.855-1.5
	s-0.86-0.7-1.436-0.9c-0.576-0.2-1.251-0.3-2.026-0.3h-0.75H36.3h-0.75H34.8v-0.025V59.25c0,0,0-0.013,0-0.025
	C34.8,59.213,34.8,59.2,34.8,59.2z"/>
<path d="M53.7,90.3h-2.2h-2.2h-2.2h-2.2l-1.175-2.45L42.55,85.4l-1.175-2.45L40.2,80.5c-0.075-0.175-0.156-0.344-0.241-0.508
	c-0.084-0.164-0.172-0.324-0.259-0.48s-0.175-0.31-0.259-0.461C39.356,78.9,39.275,78.75,39.2,78.6
	c-0.075-0.125-0.15-0.25-0.225-0.373c-0.075-0.124-0.15-0.245-0.225-0.365c-0.075-0.118-0.15-0.234-0.225-0.345
	c-0.075-0.111-0.15-0.217-0.225-0.317c-0.075-0.1-0.15-0.188-0.225-0.266c-0.075-0.078-0.15-0.147-0.225-0.209
	c-0.075-0.062-0.15-0.119-0.225-0.172S37.475,76.45,37.4,76.4c-0.075-0.05-0.15-0.088-0.225-0.116
	c-0.075-0.028-0.15-0.047-0.225-0.059s-0.15-0.019-0.225-0.022C36.65,76.2,36.575,76.2,36.5,76.2h-0.325H35.85h-0.325H35.2v3.525
	v3.525v3.525V90.3h-1.9h-1.9h-1.9h-1.9v-9.45V71.4v-9.45V52.5h2.75h2.75h2.75h2.75c1.875,0,3.513,0.219,4.914,0.656
	c1.402,0.438,2.567,1.094,3.498,1.969c0.931,0.875,1.628,1.969,2.093,3.281C49.569,59.719,49.8,61.25,49.8,63
	c0,0.325-0.013,0.65-0.036,0.972s-0.058,0.641-0.102,0.953s-0.097,0.619-0.158,0.916c-0.061,0.297-0.129,0.584-0.204,0.859
	s-0.163,0.55-0.261,0.822c-0.098,0.272-0.208,0.541-0.326,0.803c-0.119,0.262-0.247,0.519-0.383,0.766
	c-0.136,0.247-0.28,0.484-0.43,0.709s-0.306,0.444-0.47,0.656c-0.164,0.213-0.336,0.419-0.517,0.619s-0.372,0.394-0.574,0.581
	c-0.202,0.188-0.414,0.369-0.639,0.544c-0.15,0.125-0.306,0.244-0.467,0.356c-0.161,0.113-0.326,0.219-0.495,0.319
	c-0.169,0.1-0.341,0.194-0.514,0.281S43.875,73.325,43.7,73.4c0.05,0.025,0.1,0.056,0.15,0.092c0.05,0.036,0.1,0.077,0.15,0.121
	s0.1,0.091,0.15,0.139c0.05,0.048,0.1,0.098,0.15,0.148c0.1,0.1,0.206,0.206,0.316,0.317s0.222,0.226,0.334,0.345
	c0.112,0.119,0.225,0.241,0.334,0.365C45.394,75.05,45.5,75.175,45.6,75.3s0.2,0.256,0.299,0.392c0.098,0.136,0.196,0.276,0.29,0.42
	c0.094,0.144,0.184,0.291,0.27,0.439C46.544,76.7,46.625,76.85,46.7,77c0.1,0.15,0.194,0.3,0.283,0.45
	c0.089,0.15,0.174,0.3,0.255,0.45c0.081,0.15,0.159,0.3,0.236,0.45c0.076,0.15,0.152,0.3,0.227,0.45l1.5,2.875l1.5,2.875l1.5,2.875
	L53.7,90.3z M45.6,89.3h1.6h1.6h1.6H52l-1.3-2.55l-1.3-2.55l-1.3-2.55l-1.3-2.55c-0.075-0.15-0.15-0.294-0.225-0.434
	c-0.075-0.141-0.15-0.278-0.225-0.416s-0.15-0.275-0.225-0.416c-0.075-0.141-0.15-0.284-0.225-0.434
	c-0.075-0.15-0.156-0.294-0.242-0.433c-0.086-0.139-0.177-0.274-0.271-0.405c-0.093-0.131-0.19-0.259-0.289-0.386
	C45,76.05,44.9,75.925,44.8,75.8s-0.194-0.244-0.284-0.358c-0.091-0.114-0.178-0.224-0.266-0.33
	c-0.088-0.106-0.175-0.209-0.266-0.311C43.894,74.7,43.8,74.6,43.7,74.5c-0.1-0.075-0.194-0.15-0.284-0.222
	c-0.091-0.072-0.178-0.141-0.266-0.203s-0.175-0.119-0.266-0.166C42.794,73.863,42.7,73.825,42.6,73.8l-0.075-0.025L42.45,73.75
	l-0.075-0.025L42.3,73.7v-0.2v-0.2v-0.2v-0.2l0.075-0.025l0.075-0.025l0.075-0.025L42.6,72.8c0.225-0.075,0.45-0.162,0.674-0.261
	c0.223-0.098,0.445-0.208,0.665-0.327c0.218-0.118,0.434-0.246,0.645-0.382C44.794,71.694,45,71.55,45.2,71.4
	s0.388-0.306,0.566-0.469c0.178-0.162,0.347-0.331,0.509-0.506s0.319-0.356,0.472-0.544C46.9,69.694,47.05,69.5,47.2,69.3
	c0.125-0.2,0.25-0.412,0.372-0.634c0.122-0.222,0.241-0.453,0.353-0.691s0.219-0.481,0.316-0.728C48.338,67,48.425,66.75,48.5,66.5
	s0.144-0.512,0.205-0.784c0.061-0.272,0.114-0.553,0.157-0.841c0.044-0.287,0.078-0.581,0.102-0.878C48.987,63.7,49,63.4,49,63.1
	c0-1.6-0.206-2.994-0.624-4.184c-0.417-1.191-1.045-2.178-1.889-2.966c-0.843-0.787-1.903-1.375-3.182-1.766S40.525,53.6,38.8,53.6
	h-2.5h-2.5h-2.5h-2.5v8.975v8.975v8.975V89.5h1.4h1.4H33h1.4v-3.575V82.35v-3.575V75.2h0.575h0.575h0.575H36.7
	c0.125,0,0.25,0.006,0.373,0.02c0.123,0.014,0.245,0.036,0.364,0.068s0.234,0.072,0.345,0.123S38,75.525,38.1,75.6
	c0.1,0.05,0.2,0.112,0.299,0.184c0.099,0.072,0.196,0.153,0.29,0.241c0.094,0.088,0.184,0.181,0.27,0.278
	C39.044,76.4,39.125,76.5,39.2,76.6s0.156,0.206,0.241,0.319c0.084,0.113,0.172,0.231,0.259,0.356s0.175,0.256,0.259,0.394
	c0.084,0.137,0.166,0.281,0.241,0.431s0.156,0.3,0.241,0.453c0.084,0.153,0.172,0.309,0.259,0.472s0.175,0.331,0.259,0.509
	c0.084,0.178,0.166,0.366,0.241,0.566l1.1,2.3l1.1,2.3l1.1,2.3L45.6,89.3z M37.6,69.9h-0.85H35.9h-0.85H34.2v-2.8v-2.8v-2.8v-2.8
	h0.875h0.875h0.875H37.7c0.85,0,1.594,0.112,2.231,0.336c0.638,0.223,1.169,0.558,1.594,1.001c0.425,0.444,0.744,0.997,0.956,1.658
	C42.694,62.356,42.8,63.125,42.8,64c0,0.425-0.031,0.831-0.092,1.219s-0.151,0.756-0.27,1.106s-0.265,0.681-0.439,0.994
	S41.625,67.925,41.4,68.2c-0.225,0.3-0.475,0.556-0.748,0.772c-0.273,0.216-0.57,0.391-0.889,0.528
	c-0.319,0.137-0.66,0.238-1.021,0.303C38.381,69.869,38,69.9,37.6,69.9z M35.3,68.9h0.6h0.6h0.6h0.6c0.325,0,0.631-0.025,0.92-0.078
	s0.561-0.134,0.817-0.247c0.257-0.113,0.497-0.256,0.724-0.434C40.388,67.963,40.6,67.75,40.8,67.5s0.375-0.506,0.525-0.773
	c0.15-0.267,0.275-0.546,0.375-0.84c0.1-0.293,0.175-0.603,0.225-0.932S42,64.275,42,63.9c0-0.75-0.081-1.394-0.247-1.938
	c-0.166-0.544-0.416-0.988-0.753-1.338s-0.763-0.606-1.278-0.775S38.6,59.6,37.9,59.6h-0.625H36.65h-0.625H35.4v2.325v2.325v2.325
	V68.9h-0.025H35.35h-0.025H35.3z"/>
<path style="fill:#FFFFFF;" d="M62.3,77.1v3.175v3.175v3.175V89.8h-1.65H59h-1.65H55.7v-9.2v-9.2v-9.2V53h2.575h2.575h2.575H66
	c1.85,0,3.469,0.244,4.856,0.733s2.544,1.224,3.469,2.205c0.925,0.981,1.619,2.209,2.081,3.686C76.869,61.1,77.1,62.825,77.1,64.8
	c0,0.925-0.069,1.806-0.205,2.644c-0.136,0.837-0.339,1.631-0.607,2.381s-0.603,1.456-1.002,2.119
	c-0.399,0.662-0.861,1.281-1.386,1.856s-1.1,1.075-1.722,1.502c-0.622,0.426-1.291,0.779-2.003,1.06s-1.469,0.49-2.266,0.63
	S66.275,77.2,65.4,77.2h-0.775H63.85h-0.775H62.3v-0.025V77.15v-0.025V77.1z M62.3,59.3v2.875v2.875v2.875V70.8h0.65h0.65h0.65h0.65
	c0.875,0,1.644-0.119,2.305-0.358c0.661-0.239,1.214-0.599,1.658-1.08s0.778-1.085,1.002-1.811C70.088,66.825,70.2,65.975,70.2,65
	c0-0.95-0.113-1.781-0.336-2.494s-0.558-1.306-1.002-1.781c-0.443-0.475-0.996-0.831-1.657-1.069
	c-0.661-0.237-1.43-0.356-2.305-0.356h-0.65H63.6h-0.65H62.3z"/>
<path d="M62.8,90.3h-1.9H59h-1.9h-1.9v-9.45V71.4v-9.45V52.5h2.7h2.7h2.7H66c1.925,0,3.613,0.256,5.061,0.769
	c1.449,0.513,2.658,1.281,3.627,2.306s1.697,2.306,2.183,3.844S77.6,62.75,77.6,64.8c0,0.95-0.069,1.863-0.206,2.733
	c-0.137,0.87-0.344,1.699-0.619,2.48c-0.275,0.781-0.619,1.515-1.031,2.198c-0.412,0.683-0.894,1.314-1.444,1.889
	c-0.55,0.6-1.15,1.125-1.798,1.575c-0.648,0.45-1.345,0.825-2.089,1.125c-0.744,0.3-1.535,0.525-2.37,0.675S66.326,77.7,65.4,77.7
	h-0.675H64.05h-0.675H62.7v3.15V84v3.15v3.15h0.025h0.025h0.025H62.8z M56.1,89.3h1.4h1.4h1.4h1.4v-3.175V82.95v-3.175V76.6h0.925
	h0.925h0.925H65.4c0.85,0,1.662-0.069,2.434-0.206c0.772-0.137,1.503-0.344,2.191-0.619s1.331-0.619,1.928-1.031
	S73.1,73.85,73.6,73.3s0.944-1.144,1.328-1.78s0.709-1.314,0.972-2.032c0.263-0.719,0.463-1.478,0.597-2.277s0.203-1.635,0.203-2.51
	c0-1.9-0.219-3.556-0.658-4.972c-0.439-1.416-1.098-2.591-1.979-3.528c-0.882-0.938-1.984-1.638-3.311-2.103
	c-1.326-0.466-2.876-0.697-4.652-0.697h-2.475H61.15h-2.475H56.2v8.975v8.975v8.974V89.3h-0.025H56.15h-0.025H56.1z M64.9,71.3
	h-0.775H63.35h-0.775H61.8v-3.125V65.05v-3.125V58.8h0.775h0.775h0.775H64.9c0.95,0,1.787,0.131,2.509,0.392
	c0.722,0.261,1.328,0.651,1.816,1.17c0.487,0.519,0.856,1.166,1.103,1.94C70.575,63.075,70.7,63.975,70.7,65
	s-0.125,1.931-0.372,2.714c-0.247,0.783-0.616,1.442-1.103,1.974s-1.094,0.935-1.816,1.205C66.688,71.163,65.85,71.3,64.9,71.3z
	 M62.8,70.3h0.525h0.525h0.525H64.9c0.825,0,1.537-0.106,2.142-0.322s1.102-0.541,1.496-0.978c0.394-0.438,0.684-0.988,0.876-1.653
	C69.606,66.681,69.7,65.9,69.7,65c0-0.875-0.094-1.638-0.286-2.289c-0.192-0.651-0.483-1.192-0.876-1.623
	c-0.394-0.431-0.891-0.754-1.496-0.968c-0.605-0.214-1.317-0.32-2.142-0.32h-0.525H63.85h-0.525H62.8c0,0,0,0.656,0,1.641
	s0,2.297,0,3.609s0,2.625,0,3.609S62.8,70.3,62.8,70.3z"/>
</svg>
