<?xml version="1.0" encoding="utf-8"?>
<!-- Generator: Adobe Illustrator 25.2.0, SVG Export Plug-In . SVG Version: 6.00 Build 0)  -->
<svg version="1.1" id="Layer_1" xmlns="http://www.w3.org/2000/svg" xmlns:xlink="http://www.w3.org/1999/xlink" x="0px" y="0px"
	 viewBox="0 0 100 100" style="enable-background:new 0 0 100 100;" xml:space="preserve">
<polygon style="fill:#B3B3B4;" points="50,24.7 96.1,50 50,75.4 3.4,50 "/>
<g>
	<g>
		<path d="M50.1,40.3c-3.8,0-6.9-3.1-6.9-6.9s3.1-6.9,6.9-6.9s6.9,3.1,6.9,6.9S53.9,40.3,50.1,40.3z M50.1,27.4
			c-3.3,0-5.9,2.7-5.9,5.9s2.7,5.9,5.9,5.9s5.9-2.7,5.9-5.9S53.3,27.4,50.1,27.4z"/>
	</g>
	<g>
		<g>
			<path d="M26.7,61.1V56c1.2,0.8,2.6,1.4,4,1.7c1.4,0.4,2.9,0.6,4.3,0.6c0.9,0,1.6-0.1,2.2-0.2c0.6-0.1,1.2-0.3,1.6-0.5
				c0.4-0.2,0.7-0.5,1-0.7c0.2-0.3,0.3-0.6,0.3-0.9c0-0.4-0.2-0.8-0.5-1.2c-0.3-0.4-0.8-0.7-1.4-1c-0.6-0.3-1.3-0.6-2.1-0.9
				s-1.7-0.6-2.6-0.8c-2.4-0.7-4.1-1.6-5.3-2.7c-1.2-1.1-1.7-2.4-1.7-3.9c0-1.2,0.3-2.2,0.9-3.1s1.5-1.6,2.6-2.1
				c1.1-0.6,2.4-1,3.8-1.2c1.4-0.3,3-0.4,4.6-0.4c1.6,0,3,0.1,4.2,0.2s2.3,0.4,3.4,0.7v4.8c-0.5-0.3-1.1-0.5-1.7-0.7
				c-0.6-0.2-1.2-0.4-1.8-0.5c-0.6-0.1-1.3-0.2-1.9-0.3c-0.6-0.1-1.2-0.1-1.8-0.1c-0.8,0-1.5,0.1-2.1,0.2s-1.2,0.3-1.6,0.5
				c-0.4,0.2-0.8,0.4-1,0.7c-0.2,0.3-0.4,0.6-0.4,0.9c0,0.4,0.1,0.7,0.4,1c0.3,0.3,0.6,0.6,1.1,0.9c0.5,0.3,1.1,0.5,1.8,0.8
				c0.7,0.3,1.5,0.5,2.4,0.8c1.2,0.4,2.3,0.8,3.3,1.2c1,0.4,1.8,0.9,2.5,1.5s1.2,1.2,1.6,1.9c0.4,0.7,0.5,1.5,0.5,2.4
				c0,1.3-0.3,2.3-1,3.2c-0.6,0.9-1.5,1.6-2.6,2.1c-1.1,0.5-2.4,0.9-3.8,1.2c-1.5,0.2-3,0.4-4.6,0.4c-1.7,0-3.2-0.1-4.7-0.3
				C29.1,61.8,27.8,61.5,26.7,61.1z"/>
		</g>
	</g>
	<g>
		<g>
			<path d="M53.9,62.3V39.5h8.6c8.6,0,12.9,3.7,12.9,11.1c0,3.6-1.2,6.4-3.5,8.5c-2.4,2.1-5.5,3.2-9.4,3.2H53.9z M59.4,43.7v14.5
				h2.7c2.4,0,4.2-0.7,5.6-2c1.3-1.3,2-3.2,2-5.5c0-2.2-0.7-3.9-2-5.1c-1.3-1.2-3.2-1.9-5.6-1.9H59.4z"/>
		</g>
	</g>
	<g>
		<path d="M50.3,37.9c-0.7,0-1.3-0.2-1.7-0.6c-0.5-0.4-0.7-1.1-0.7-1.9c0.1-1.4,1.4-2.1,2.3-2.6c0.2-0.1,0.4-0.2,0.6-0.3
			c0.5-0.3,0.6-0.9,0.4-1.3c0-0.2-0.2-0.7-0.7-0.7c-0.5,0-0.7,0.1-0.7,0.1c-0.1,0.1,0,0.3,0,0.3c0.1,0.3-0.1,0.5-0.4,0.6
			c-0.3,0.1-0.5-0.1-0.6-0.4c0-0.1-0.2-0.7,0.2-1.1c0.3-0.4,0.8-0.5,1.5-0.5c0.8,0.1,1.4,0.6,1.6,1.5c0.2,0.8,0,1.9-0.9,2.4
			c-0.2,0.1-0.4,0.2-0.7,0.4c-1,0.5-1.7,0.9-1.8,1.7c0,0.5,0.1,0.9,0.4,1.1c0.3,0.3,0.9,0.4,1.6,0.3c0.1,0,0.1,0,0.1,0
			c-0.1-0.2-0.1-0.5,0.1-0.6c0.2-0.2,0.5-0.2,0.7,0c0.2,0.2,0.4,0.6,0.2,1c-0.1,0.4-0.5,0.6-1,0.7C50.7,37.9,50.5,37.9,50.3,37.9z"
			/>
	</g>
</g>
</svg>
