<?xml version="1.0" encoding="iso-8859-1"?>
<!-- Generator: Adobe Illustrator 25.3.1, SVG Export Plug-In . SVG Version: 6.00 Build 0)  -->
<svg version="1.1" id="Layer_1" xmlns="http://www.w3.org/2000/svg" xmlns:xlink="http://www.w3.org/1999/xlink" x="0px" y="0px"
	 viewBox="0 0 100 100" style="enable-background:new 0 0 100 100;" xml:space="preserve">
<polygon style="fill:#B3B3B4;" points="50,24.7 61.525,31.025 73.05,37.35 84.575,43.675 96.1,50 84.575,56.35 73.05,62.7 
	61.525,69.05 50,75.4 38.35,69.05 26.7,62.7 15.05,56.35 3.4,50 15.05,43.675 26.7,37.35 38.35,31.025 "/>
<path d="M73.7,77.3v-3.7v-3.7v-3.7v-3.7h1.25h1.25h1.25h1.25c0.325,0,0.625,0.006,0.9,0.02s0.525,0.036,0.75,0.068
	c0.225,0.031,0.425,0.071,0.6,0.123c0.175,0.051,0.325,0.114,0.45,0.189c0.15,0.075,0.287,0.156,0.416,0.247
	s0.247,0.191,0.359,0.303s0.219,0.237,0.322,0.378S82.7,64.125,82.8,64.3c0.075,0.175,0.144,0.356,0.205,0.542
	c0.061,0.186,0.114,0.377,0.158,0.571c0.043,0.194,0.078,0.39,0.101,0.589S83.3,66.4,83.3,66.6c0,0.275-0.019,0.537-0.055,0.789
	s-0.089,0.492-0.158,0.723c-0.069,0.231-0.153,0.453-0.251,0.668S82.625,69.2,82.5,69.4c-0.125,0.175-0.269,0.338-0.43,0.486
	s-0.339,0.283-0.533,0.401s-0.403,0.222-0.627,0.308C80.687,70.681,80.45,70.75,80.2,70.8c0.125,0.1,0.244,0.2,0.358,0.3
	c0.114,0.1,0.224,0.2,0.33,0.3c0.106,0.1,0.209,0.2,0.311,0.3C81.3,71.8,81.4,71.9,81.5,72c0.075,0.125,0.162,0.269,0.259,0.431
	c0.097,0.162,0.203,0.344,0.316,0.544s0.231,0.419,0.353,0.656c0.122,0.238,0.247,0.494,0.372,0.769l0.35,0.725l0.35,0.725
	l0.35,0.725L84.2,77.3h-0.7h-0.7h-0.7h-0.7l-0.425-0.8l-0.425-0.8l-0.425-0.8L79.7,74.1c-0.15-0.3-0.287-0.569-0.412-0.808
	c-0.125-0.239-0.238-0.449-0.338-0.63c-0.1-0.181-0.187-0.334-0.262-0.46c-0.075-0.126-0.137-0.226-0.188-0.301
	s-0.106-0.144-0.166-0.206c-0.059-0.062-0.122-0.119-0.184-0.169s-0.125-0.094-0.184-0.131c-0.059-0.038-0.116-0.069-0.166-0.094
	c-0.075-0.025-0.15-0.05-0.23-0.073c-0.08-0.023-0.164-0.045-0.258-0.064s-0.197-0.034-0.314-0.045
	C76.881,71.106,76.75,71.1,76.6,71.1h-0.15H76.3h-0.15H76v1.55v1.55v1.55v1.55h-0.575H74.85l-0.575,0H73.7L73.7,77.3L73.7,77.3
	L73.7,77.3L73.7,77.3z M76,68.8h0.425h0.425h0.425H77.7c0.275,0,0.525-0.006,0.75-0.017c0.225-0.011,0.425-0.026,0.6-0.045
	s0.325-0.04,0.45-0.064s0.225-0.048,0.3-0.073s0.144-0.056,0.208-0.094s0.124-0.081,0.18-0.131c0.056-0.051,0.109-0.107,0.161-0.17
	C80.4,68.144,80.45,68.075,80.5,68s0.088-0.156,0.116-0.242c0.028-0.086,0.047-0.176,0.059-0.27
	c0.012-0.094,0.019-0.191,0.022-0.289C80.7,67.1,80.7,67,80.7,66.9c0-0.125-0.006-0.244-0.019-0.356
	c-0.012-0.113-0.031-0.219-0.056-0.319c-0.025-0.1-0.056-0.194-0.094-0.281S80.45,65.775,80.4,65.7s-0.1-0.15-0.153-0.222
	s-0.109-0.141-0.172-0.203c-0.063-0.062-0.131-0.119-0.209-0.166S79.7,65.025,79.6,65c-0.05,0-0.125-0.006-0.224-0.016
	c-0.098-0.009-0.22-0.022-0.364-0.034c-0.144-0.012-0.309-0.025-0.495-0.034C78.331,64.906,78.125,64.9,77.9,64.9h-0.475H76.95
	h-0.475H76v0.975v0.975v0.975V68.8z"/>
<path d="M85.5,77.3v-3.7v-3.7v-3.7v-3.7h2h2h2h2v0.625v0.625v0.625V65h-1.425H90.65h-1.425H87.8v0.875v0.875v0.875V68.5h1.225h1.225
	h1.225H92.7v0.625v0.625v0.625V71h-1.225H90.25h-1.225H87.8v1.575v1.575v1.575V77.3h-0.575H86.65h-0.575H85.5z"/>
<path d="M47.7,61.3h-1.35H45h-1.35H42.3v-2.5v-2.5v-2.5v-2.5h-2.45H37.4h-2.45H32.5v2.5v2.5v2.5v2.5h-1.325H29.85h-1.325H27.2
	v-6.125V49.05v-6.125V36.8h1.325h1.325h1.325H32.5v2.45v2.45v2.45v2.45h2.45h2.45h2.45h2.45v-2.45V41.7v-2.45V36.8h1.35H45h1.35
	h1.35v6.125v6.125v6.125V61.3z"/>
<path d="M53.1,61.3v-6.125V49.05v-6.125V36.8h2.175h2.175h2.175H61.8c2.175,0,4.081,0.25,5.717,0.75s3.002,1.25,4.096,2.25
	s1.916,2.25,2.464,3.75c0.548,1.5,0.823,3.25,0.823,5.25c0,0.95-0.075,1.856-0.225,2.717S74.3,53.194,74,53.963
	c-0.3,0.769-0.675,1.49-1.125,2.164C72.425,56.8,71.9,57.425,71.3,58s-1.25,1.075-1.949,1.501c-0.699,0.427-1.445,0.779-2.24,1.061
	s-1.635,0.491-2.52,0.63C63.706,61.331,62.775,61.4,61.8,61.4h-2.175H57.45h-2.175H53.1v-0.025V61.35v-0.025V61.3z M58.6,41.3v3.9
	v3.9V53v3.9h0.675h0.675h0.675H61.3c0.6,0,1.169-0.044,1.705-0.133c0.536-0.089,1.039-0.223,1.507-0.404
	c0.469-0.181,0.904-0.41,1.302-0.686c0.399-0.277,0.761-0.602,1.086-0.977c0.35-0.35,0.65-0.737,0.903-1.161
	c0.253-0.424,0.459-0.883,0.622-1.377c0.162-0.493,0.281-1.022,0.359-1.582S68.9,49.425,68.9,48.8c0-0.575-0.044-1.125-0.13-1.647
	c-0.086-0.522-0.214-1.016-0.382-1.478s-0.378-0.894-0.627-1.291c-0.249-0.397-0.536-0.759-0.861-1.084
	c-0.35-0.325-0.731-0.612-1.144-0.861c-0.413-0.248-0.856-0.458-1.331-0.626c-0.475-0.169-0.981-0.297-1.519-0.383
	S61.8,41.3,61.2,41.3h-0.65H59.9h-0.65H58.6z"/>
</svg>
