<?xml version="1.0" encoding="iso-8859-1"?>
<!-- Generator: Adobe Illustrator 25.4.1, SVG Export Plug-In . SVG Version: 6.00 Build 0)  -->
<svg version="1.1"
	 id="svg8" xmlns:cc="http://creativecommons.org/ns#" xmlns:dc="http://purl.org/dc/elements/1.1/" xmlns:inkscape="http://www.inkscape.org/namespaces/inkscape" xmlns:rdf="http://www.w3.org/1999/02/22-rdf-syntax-ns#" xmlns:sodipodi="http://sodipodi.sourceforge.net/DTD/sodipodi-0.dtd" xmlns:svg="http://www.w3.org/2000/svg"
	 xmlns="http://www.w3.org/2000/svg" xmlns:xlink="http://www.w3.org/1999/xlink" x="0px" y="0px" viewBox="0 0 100 100"
	 style="enable-background:new 0 0 100 100;" xml:space="preserve">
<sodipodi:namedview  bordercolor="#666666" borderopacity="1.0" id="base" inkscape:current-layer="g6449" inkscape:cx="-90" inkscape:cy="148.61928" inkscape:document-units="px" inkscape:guide-bbox="true" inkscape:lockguides="false" inkscape:pageopacity="0.0" inkscape:pageshadow="2" inkscape:window-height="657" inkscape:window-maximized="1" inkscape:window-width="1280" inkscape:window-x="-8" inkscape:window-y="-8" inkscape:zoom="1" pagecolor="#ffffff" showgrid="false" showguides="true" units="px">
	<sodipodi:guide  id="guide5700" inkscape:locked="false" orientation="0,1" position="-0.93017576,23.874511"></sodipodi:guide>
	<sodipodi:guide  id="guide5726" inkscape:locked="false" orientation="0,1" position="-26.098869,26.473047"></sodipodi:guide>
	<sodipodi:guide  id="guide5880" inkscape:locked="false" orientation="0,1" position="104.51042,-2.9104167"></sodipodi:guide>
	<sodipodi:guide  id="guide6001" inkscape:locked="false" orientation="0,1" position="-44.807735,29.092289"></sodipodi:guide>
	<sodipodi:guide  id="guide6005" inkscape:locked="false" orientation="0,1" position="-46.304445,58.278122"></sodipodi:guide>
	<sodipodi:guide  id="guide6736" inkscape:locked="false" orientation="0,1" position="-0.10335287,20.205485"></sodipodi:guide>
	<sodipodi:guide  id="guide6738" inkscape:locked="false" orientation="0,1" position="-0.43848907,22.874513"></sodipodi:guide>
	<inkscape:grid  id="grid2386" type="xygrid"></inkscape:grid>
</sodipodi:namedview>
<g id="g1180" transform="translate(0,-229.2666)" inkscape:groupmode="layer" inkscape:label="halo:always" style="display:none;">
	<g id="g1210" inkscape:groupmode="layer" inkscape:label="-gray-halo:iter3" style="display:inline;">
		<g id="circle1208">
			<path style="fill:#919395;" d="M50,329.3c-27.6,0-50-22.4-50-50s22.4-50,50-50s50,22.4,50,50S77.6,329.3,50,329.3z M50,237.9
				c-22.8,0-41.4,18.6-41.4,41.4s18.6,41.4,41.4,41.4s41.4-18.6,41.4-41.4S72.8,237.9,50,237.9z"/>
		</g>
	</g>
	<g id="g1206" inkscape:groupmode="layer" inkscape:label="-red-halo:iter3" style="display:inline;">
		<g id="circle1204">
			<path style="fill:#C52038;" d="M50,329.3c-27.6,0-50-22.4-50-50s22.4-50,50-50s50,22.4,50,50S77.6,329.3,50,329.3z M50,237.9
				c-22.8,0-41.4,18.6-41.4,41.4s18.6,41.4,41.4,41.4s41.4-18.6,41.4-41.4S72.8,237.9,50,237.9z"/>
		</g>
	</g>
	<g id="g1202" inkscape:groupmode="layer" inkscape:label="-green-halo:iter3" style="display:inline;">
		<g id="circle1200">
			<path style="fill:#5E9C42;" d="M50,329.3c-27.6,0-50-22.4-50-50s22.4-50,50-50s50,22.4,50,50S77.6,329.3,50,329.3z M50,237.9
				c-22.8,0-41.4,18.6-41.4,41.4s18.6,41.4,41.4,41.4s41.4-18.6,41.4-41.4S72.8,237.9,50,237.9z"/>
		</g>
	</g>
	<g id="layer18" inkscape:groupmode="layer" inkscape:label="-yellow-halo:iter3" style="display:inline;">
		<g id="circle1178-4">
			<path style="fill:#FBBA16;" d="M50,329.3c-27.6,0-50-22.4-50-50s22.4-50,50-50s50,22.4,50,50S77.6,329.3,50,329.3z M50,237.9
				c-22.8,0-41.4,18.6-41.4,41.4s18.6,41.4,41.4,41.4s41.4-18.6,41.4-41.4S72.8,237.9,50,237.9z"/>
		</g>
	</g>
</g>
<path id="path6532" inkscape:connector-curvature="0" inkscape:export-filename="C:\Users\Charlotte Abel\Documents\Symbology\Final-to-FEMA-3\food-water-shelter-v3.png" inkscape:export-xdpi="96" inkscape:export-ydpi="96" style="fill:#003366;" d="
	M71.7,18.6l-11.925,3.375L47.85,25.35l-11.925,3.375L24,32.1v1.075v1.075v1.075V36.4l0.925-0.275l0.925-0.275l0.925-0.275L27.7,35.3
	v0.725v0.725v0.725V38.2v0.225v0.225v0.225V39.1v2.3v2.3V46v2.3v1.575v1.575v1.575V54.6v1.3v1.3v1.3v1.3H28h0.3h0.3h0.3h0.525h0.525
	h0.525H31l0,0l0,0l0,0l0,0h0.3h0.3h0.3h0.3h9.9H52h9.9h9.9v-0.25V59.3v-0.25V58.8v-0.5v-0.5v-0.5v-0.5v-0.25V56.3v-0.25V55.8h-9.925
	H51.95h-9.925H32.1v-0.75V54.3v-0.75V52.8v-2.1v-2.1v-2.1v-2.1v-1.35V41.7v-1.35V39v-0.225V38.55v-0.225V38.1v-1.025V36.05v-1.025
	V34l9.9-2.8l9.9-2.8l9.9-2.8l9.9-2.8v-0.175V22.45v-0.175V22.1v-0.075V21.95v-0.075V21.8v-0.175V21.45v-0.175V21.1v-0.25V20.6v-0.25
	V20.1v-0.175V19.75v-0.175V19.4v-0.075V19.25v-0.075V19.1v-0.125V18.85v-0.125V18.6L71.7,18.6L71.7,18.6L71.7,18.6L71.7,18.6z"/>
<path id="path6443" inkscape:connector-curvature="0" style="fill-rule:evenodd;clip-rule:evenodd;fill:#003366;" d="M58.326,42.642
	l-0.466-0.567l-0.466-0.567l-0.466-0.567l-0.466-0.567c-0.102-0.131-0.167-0.255-0.204-0.385c-0.036-0.13-0.044-0.266-0.029-0.423
	c0.015-0.157,0.051-0.333,0.102-0.543s0.116-0.454,0.189-0.745c0.058-0.218,0.091-0.44,0.097-0.66
	c0.006-0.22-0.014-0.438-0.061-0.649c-0.047-0.211-0.122-0.415-0.224-0.606s-0.234-0.369-0.394-0.529
	c-0.437-0.451-0.982-1.011-1.555-1.598s-1.173-1.2-1.719-1.756c-0.546-0.557-1.037-1.057-1.391-1.418
	c-0.355-0.361-0.573-0.583-0.573-0.583l-0.116,0.087l-0.116,0.087l-0.116,0.087l-0.116,0.087l0.902,1.164l0.902,1.164l0.902,1.164
	l0.902,1.164l-0.189,0.146l-0.189,0.146l-0.189,0.146l-0.189,0.146l-0.946-1.12l-0.946-1.12l-0.946-1.12l-0.946-1.12l-0.116,0.087
	l-0.116,0.087l-0.116,0.087l-0.116,0.087l0.873,1.179l0.873,1.179l0.873,1.179l0.873,1.179l-0.189,0.146l-0.189,0.146l-0.189,0.146
	l-0.189,0.146l-0.946-1.12l-0.946-1.12l-0.946-1.12l-0.946-1.12l-0.116,0.087l-0.116,0.087l-0.116,0.087l-0.116,0.087l0.873,1.179
	l0.873,1.179l0.873,1.179l0.873,1.179l-0.189,0.146l-0.189,0.146l-0.189,0.146l-0.189,0.146l-0.902-1.164l-0.902-1.164l-0.902-1.164
	l-0.902-1.164l-0.102,0.087l-0.102,0.087l-0.102,0.087l-0.102,0.087c0,0,0.156,0.266,0.411,0.698c0.255,0.432,0.608,1.031,1,1.696
	c0.393,0.666,0.826,1.399,1.24,2.1c0.415,0.701,0.811,1.37,1.131,1.909c0.116,0.189,0.262,0.357,0.428,0.501
	s0.354,0.267,0.554,0.365c0.2,0.098,0.413,0.173,0.63,0.223c0.217,0.05,0.439,0.075,0.657,0.075c0.291,0,0.538-0.004,0.753-0.001
	c0.215,0.003,0.397,0.012,0.557,0.037c0.16,0.025,0.298,0.067,0.426,0.136c0.127,0.068,0.244,0.163,0.36,0.294l0.553,0.684
	l0.553,0.684l0.553,0.684l0.553,0.684c-0.597,0.728-1.171,1.43-1.714,2.094c-0.543,0.664-1.054,1.29-1.524,1.864
	c-0.469,0.575-0.897,1.099-1.272,1.559c-0.375,0.46-0.699,0.857-0.961,1.177c-0.189,0.233-0.287,0.498-0.309,0.766
	c-0.022,0.267,0.033,0.537,0.149,0.777s0.295,0.451,0.52,0.602c0.226,0.151,0.498,0.242,0.804,0.242
	c0.102,0,0.204-0.011,0.305-0.034c0.101-0.023,0.201-0.057,0.299-0.105c0.098-0.047,0.194-0.107,0.288-0.181
	c0.094-0.074,0.185-0.161,0.272-0.263l2.037-2.459l2.037-2.459l2.037-2.459l2.037-2.459c0,0,0.058,0.044,0.16,0.121
	c0.102,0.077,0.247,0.188,0.422,0.323c0.175,0.135,0.378,0.293,0.597,0.465s0.451,0.357,0.684,0.546
	c0.771-1.266,1.539-2.612,2.256-3.953c0.718-1.341,1.385-2.678,1.956-3.926c0.571-1.248,1.046-2.406,1.378-3.391
	c0.332-0.985,0.521-1.796,0.521-2.349c0-0.029,0-0.102-0.011-0.195c-0.011-0.093-0.033-0.206-0.076-0.315s-0.109-0.215-0.207-0.293
	c-0.098-0.078-0.229-0.129-0.404-0.129c-0.058,0-0.116,0.007-0.174,0.022s-0.114,0.036-0.168,0.065
	c-0.055,0.029-0.107,0.065-0.157,0.109c-0.05,0.044-0.097,0.095-0.141,0.153c-0.102,0.175-0.48,0.666-1.06,1.389
	c-0.58,0.723-1.362,1.678-2.272,2.78c-0.909,1.102-1.946,2.352-3.036,3.664C60.589,39.913,59.447,41.288,58.326,42.642
	 M61.237,46.192l-0.48,0.582l-0.48,0.582l-0.48,0.582l-0.48,0.582l1.004,1.237l1.004,1.237l1.004,1.237l1.004,1.237
	c0.073,0.087,0.153,0.167,0.239,0.238c0.086,0.071,0.179,0.133,0.278,0.184c0.098,0.051,0.202,0.091,0.31,0.118
	c0.108,0.027,0.221,0.042,0.337,0.042c0.291,0,0.557-0.087,0.779-0.234s0.403-0.352,0.523-0.589c0.12-0.236,0.18-0.504,0.163-0.774
	s-0.112-0.543-0.301-0.79l-1.106-1.368l-1.106-1.368l-1.106-1.368L61.237,46.192z"/>
<path id="path3358" style="fill:#003366;" d="M26.8,71.2v-1.8v-1.8v-1.8V64h1h1h1h1v0.3v0.3v0.3v0.3h-0.7h-0.7h-0.7H28v0.425v0.425
	v0.425V66.9h0.6h0.6h0.6h0.6v0.3v0.3v0.3v0.3h-0.6h-0.6h-0.6H28v0.775v0.775v0.775V71.2c0,0-0.075,0-0.188,0s-0.263,0-0.413,0
	s-0.3,0-0.413,0S26.8,71.2,26.8,71.2z"/>
<path id="path3360" style="fill:#003366;" d="M31.4,68.5c0-0.125,0.006-0.25,0.019-0.373c0.013-0.124,0.031-0.245,0.056-0.365
	c0.025-0.118,0.056-0.234,0.094-0.345C31.606,67.306,31.65,67.2,31.7,67.1c0.05-0.1,0.1-0.194,0.153-0.281s0.109-0.169,0.172-0.244
	c0.062-0.075,0.131-0.144,0.209-0.206S32.4,66.25,32.5,66.2c0.075-0.05,0.156-0.094,0.242-0.131
	c0.086-0.037,0.177-0.069,0.271-0.094c0.094-0.025,0.191-0.044,0.289-0.056C33.4,65.906,33.5,65.9,33.6,65.9
	c0.175,0,0.338,0.019,0.489,0.055c0.152,0.036,0.292,0.089,0.423,0.158c0.132,0.069,0.254,0.153,0.368,0.251
	c0.114,0.098,0.22,0.211,0.32,0.336s0.188,0.263,0.263,0.409c0.075,0.147,0.137,0.303,0.188,0.466
	c0.05,0.162,0.088,0.331,0.112,0.503C35.788,68.25,35.8,68.425,35.8,68.6c0,0.125-0.006,0.25-0.019,0.375s-0.031,0.25-0.056,0.375
	s-0.056,0.25-0.094,0.375c-0.038,0.125-0.081,0.25-0.131,0.375c-0.05,0.1-0.106,0.2-0.167,0.297s-0.126,0.191-0.195,0.278
	c-0.069,0.088-0.141,0.169-0.215,0.241S34.775,71.05,34.7,71.1c-0.075,0.05-0.156,0.094-0.242,0.131
	c-0.086,0.038-0.177,0.069-0.271,0.094c-0.094,0.025-0.19,0.044-0.289,0.056C33.8,71.394,33.7,71.4,33.6,71.4
	c-0.15,0-0.3-0.012-0.447-0.039c-0.147-0.026-0.291-0.067-0.428-0.123c-0.137-0.056-0.269-0.129-0.391-0.218
	C32.213,70.931,32.1,70.825,32,70.7c-0.1-0.15-0.188-0.306-0.263-0.47s-0.138-0.336-0.188-0.518
	c-0.05-0.181-0.087-0.371-0.112-0.573S31.4,68.725,31.4,68.5L31.4,68.5L31.4,68.5L31.4,68.5L31.4,68.5z M32.5,68.6
	c0,0.125,0.006,0.244,0.019,0.356c0.013,0.113,0.031,0.219,0.056,0.319s0.056,0.194,0.094,0.281
	c0.037,0.088,0.081,0.169,0.131,0.244c0.05,0.075,0.1,0.138,0.153,0.189c0.053,0.051,0.109,0.092,0.172,0.123
	s0.131,0.053,0.209,0.067C33.412,70.193,33.5,70.2,33.6,70.2c0.075,0,0.144-0.006,0.208-0.02c0.064-0.014,0.124-0.036,0.18-0.068
	c0.056-0.031,0.11-0.072,0.161-0.123C34.2,69.937,34.25,69.875,34.3,69.8s0.094-0.156,0.131-0.244
	c0.038-0.088,0.069-0.181,0.094-0.281c0.025-0.1,0.044-0.206,0.056-0.319S34.6,68.725,34.6,68.6s-0.006-0.244-0.019-0.356
	c-0.013-0.113-0.031-0.219-0.056-0.319c-0.025-0.1-0.056-0.194-0.094-0.281c-0.037-0.088-0.081-0.169-0.131-0.244
	c-0.05-0.075-0.1-0.137-0.153-0.189c-0.053-0.051-0.109-0.092-0.172-0.123s-0.131-0.053-0.209-0.067S33.6,67,33.5,67
	c-0.075,0-0.144,0.006-0.208,0.02c-0.064,0.014-0.124,0.036-0.18,0.068c-0.056,0.032-0.109,0.072-0.161,0.123
	S32.85,67.325,32.8,67.4c-0.05,0.05-0.094,0.113-0.131,0.188c-0.038,0.075-0.069,0.162-0.094,0.262
	c-0.025,0.1-0.044,0.213-0.056,0.338S32.5,68.45,32.5,68.6L32.5,68.6L32.5,68.6L32.5,68.6L32.5,68.6z"/>
<path id="path3362" style="fill:#003366;" d="M36.2,68.5c0-0.125,0.006-0.25,0.019-0.373c0.013-0.124,0.031-0.245,0.056-0.365
	c0.025-0.118,0.056-0.234,0.094-0.345C36.406,67.306,36.45,67.2,36.5,67.1c0.05-0.1,0.1-0.194,0.153-0.281
	c0.053-0.088,0.109-0.169,0.172-0.244c0.062-0.075,0.131-0.144,0.209-0.206S37.2,66.25,37.3,66.2
	c0.075-0.05,0.156-0.094,0.242-0.131c0.086-0.037,0.177-0.069,0.271-0.094c0.094-0.025,0.191-0.044,0.289-0.056
	C38.2,65.906,38.3,65.9,38.4,65.9c0.175,0,0.338,0.019,0.489,0.055c0.152,0.036,0.292,0.089,0.424,0.158
	c0.131,0.069,0.253,0.153,0.367,0.251c0.114,0.098,0.22,0.211,0.32,0.336s0.188,0.263,0.263,0.409s0.138,0.303,0.188,0.466
	s0.088,0.331,0.112,0.503C40.588,68.25,40.6,68.425,40.6,68.6c0,0.125-0.006,0.25-0.019,0.375s-0.031,0.25-0.056,0.375
	s-0.056,0.25-0.094,0.375c-0.037,0.125-0.081,0.25-0.131,0.375c-0.05,0.1-0.106,0.2-0.167,0.297s-0.126,0.191-0.195,0.278
	c-0.069,0.088-0.141,0.169-0.215,0.241C39.65,70.988,39.575,71.05,39.5,71.1c-0.075,0.05-0.156,0.094-0.242,0.131
	c-0.086,0.038-0.177,0.069-0.271,0.094c-0.093,0.025-0.19,0.044-0.289,0.056C38.6,71.394,38.5,71.4,38.4,71.4
	c-0.15,0-0.3-0.012-0.447-0.039c-0.147-0.026-0.291-0.067-0.428-0.123c-0.138-0.056-0.269-0.129-0.391-0.218
	c-0.122-0.089-0.234-0.195-0.334-0.32c-0.1-0.15-0.188-0.306-0.263-0.47c-0.075-0.164-0.137-0.336-0.188-0.518
	c-0.05-0.181-0.087-0.371-0.112-0.573C36.213,68.938,36.2,68.725,36.2,68.5L36.2,68.5L36.2,68.5L36.2,68.5L36.2,68.5z M37.3,68.6
	c0,0.125,0.006,0.244,0.019,0.356c0.013,0.113,0.031,0.219,0.056,0.319s0.056,0.194,0.094,0.281S37.55,69.725,37.6,69.8
	c0.05,0.075,0.1,0.138,0.153,0.189c0.053,0.051,0.109,0.092,0.172,0.123s0.131,0.053,0.209,0.067C38.213,70.193,38.3,70.2,38.4,70.2
	c0.075,0,0.144-0.006,0.208-0.02c0.064-0.014,0.124-0.036,0.18-0.068c0.056-0.031,0.109-0.071,0.16-0.123
	C39,69.938,39.05,69.875,39.1,69.8s0.094-0.156,0.131-0.244s0.069-0.181,0.094-0.281c0.025-0.1,0.044-0.206,0.056-0.319
	c0.012-0.113,0.019-0.231,0.019-0.356s-0.006-0.244-0.019-0.356c-0.013-0.113-0.031-0.219-0.056-0.319
	c-0.025-0.1-0.056-0.194-0.094-0.281S39.15,67.475,39.1,67.4c-0.05-0.075-0.1-0.137-0.153-0.189
	c-0.053-0.051-0.109-0.092-0.172-0.123s-0.131-0.053-0.209-0.067S38.4,67,38.3,67c-0.075,0-0.144,0.006-0.208,0.02
	c-0.064,0.014-0.124,0.036-0.18,0.068c-0.056,0.031-0.109,0.072-0.16,0.123C37.7,67.263,37.65,67.325,37.6,67.4
	c-0.05,0.05-0.094,0.113-0.131,0.188S37.4,67.75,37.375,67.85c-0.025,0.1-0.044,0.213-0.056,0.338
	C37.306,68.312,37.3,68.45,37.3,68.6L37.3,68.6L37.3,68.6L37.3,68.6L37.3,68.6z"/>
<path id="path3364" style="fill:#003366;" d="M45.2,71.2h-0.275H44.65h-0.275H44.1V71v-0.2v-0.2v-0.2
	c-0.05,0.075-0.1,0.144-0.15,0.208c-0.05,0.064-0.1,0.124-0.15,0.18c-0.05,0.056-0.1,0.109-0.15,0.161
	C43.6,71,43.55,71.05,43.5,71.1c-0.05,0.025-0.106,0.05-0.166,0.073c-0.059,0.023-0.122,0.045-0.184,0.064s-0.125,0.034-0.184,0.045
	S42.85,71.3,42.8,71.3c-0.125,0-0.244-0.012-0.356-0.039c-0.112-0.026-0.219-0.067-0.319-0.123s-0.194-0.128-0.281-0.217
	c-0.088-0.089-0.169-0.195-0.244-0.32c-0.1-0.125-0.181-0.262-0.247-0.411s-0.116-0.308-0.153-0.476
	c-0.037-0.168-0.062-0.347-0.078-0.533C41.106,68.994,41.1,68.8,41.1,68.6c0-0.225,0.013-0.438,0.036-0.636
	c0.024-0.198,0.058-0.383,0.102-0.552c0.044-0.169,0.097-0.322,0.158-0.458c0.061-0.136,0.129-0.254,0.204-0.354
	c0.1-0.1,0.2-0.194,0.302-0.278c0.101-0.084,0.204-0.159,0.31-0.222c0.106-0.062,0.216-0.112,0.33-0.147
	c0.114-0.034,0.233-0.053,0.358-0.053c0.05,0,0.1,0,0.152,0.003c0.051,0.003,0.104,0.009,0.16,0.022
	c0.057,0.012,0.116,0.031,0.18,0.059S43.525,66.05,43.6,66.1c0.075,0.05,0.137,0.094,0.192,0.134s0.102,0.078,0.146,0.116
	c0.043,0.037,0.084,0.075,0.126,0.116S44.15,66.55,44.2,66.6v-0.65V65.3v-0.65V64h0.275h0.275h0.275H45.3v1.8v1.8v1.8v1.8h-0.025
	H45.25h-0.025H45.2z M42.1,68.4c0,0.125,0,0.238,0.002,0.341c0.002,0.103,0.005,0.197,0.011,0.284
	c0.006,0.088,0.015,0.169,0.029,0.247s0.033,0.153,0.058,0.228c0.025,0.05,0.05,0.1,0.076,0.148
	c0.027,0.048,0.055,0.095,0.085,0.139s0.065,0.084,0.105,0.12C42.506,69.944,42.55,69.975,42.6,70
	c0.025,0.025,0.056,0.05,0.092,0.073c0.036,0.023,0.076,0.045,0.12,0.064c0.044,0.019,0.091,0.035,0.139,0.046
	C43,70.194,43.05,70.2,43.1,70.2c0.075,0,0.138-0.006,0.194-0.02c0.056-0.014,0.106-0.036,0.156-0.068
	c0.05-0.031,0.1-0.071,0.156-0.123c0.056-0.051,0.119-0.114,0.194-0.189c0.05-0.075,0.094-0.156,0.131-0.244
	c0.037-0.087,0.069-0.181,0.094-0.281c0.025-0.1,0.044-0.206,0.056-0.319c0.012-0.113,0.019-0.231,0.019-0.356
	c0-0.15-0.006-0.287-0.019-0.414c-0.013-0.127-0.031-0.242-0.056-0.348c-0.025-0.106-0.056-0.203-0.094-0.292
	c-0.037-0.089-0.081-0.171-0.131-0.246s-0.1-0.137-0.152-0.189s-0.104-0.092-0.16-0.123s-0.116-0.053-0.18-0.067
	C43.244,66.907,43.175,66.9,43.1,66.9s-0.144,0.006-0.208,0.02c-0.064,0.014-0.124,0.036-0.18,0.068
	c-0.056,0.032-0.109,0.072-0.161,0.123S42.45,67.225,42.4,67.3c-0.05,0.075-0.094,0.156-0.131,0.242s-0.069,0.177-0.094,0.271
	s-0.044,0.191-0.056,0.289C42.106,68.2,42.1,68.3,42.1,68.4L42.1,68.4L42.1,68.4L42.1,68.4L42.1,68.4z"/>
<path id="path3366" style="fill:#003366;" d="M46,69.8h0.275h0.275h0.275H47.1v0.25v0.25v0.25v0.25c0,0.15,0,0.288-0.003,0.413
	s-0.009,0.237-0.022,0.337c-0.012,0.1-0.031,0.188-0.059,0.262C46.987,71.888,46.95,71.95,46.9,72c-0.05,0.1-0.1,0.188-0.153,0.266
	c-0.053,0.078-0.109,0.147-0.172,0.209s-0.131,0.119-0.209,0.172S46.2,72.75,46.1,72.8l-0.05-0.15L46,72.5l-0.05-0.15L45.9,72.2
	c0.05-0.025,0.1-0.05,0.148-0.076s0.096-0.054,0.139-0.086c0.043-0.031,0.084-0.066,0.12-0.105c0.036-0.039,0.067-0.083,0.092-0.133
	c0.025-0.025,0.044-0.062,0.059-0.109s0.028-0.103,0.041-0.166c0.013-0.062,0.025-0.131,0.041-0.203s0.034-0.147,0.059-0.222h-0.15
	H46.3h-0.15H46v-0.325V70.45v-0.325V69.8L46,69.8L46,69.8L46,69.8L46,69.8z"/>
<path id="path3368" style="fill:#003366;" d="M51,71.2l-0.35-1.8l-0.35-1.8l-0.35-1.8L49.6,64h0.3h0.3h0.3h0.3l0.225,1.225
	l0.225,1.225l0.225,1.225L51.7,68.9l0.275-1.225l0.275-1.225l0.275-1.225L52.8,64h0.35h0.35h0.35h0.35l0.25,1.25l0.25,1.25
	l0.25,1.25L55.2,69l0.225-1.25l0.225-1.25l0.225-1.25L56.1,64h0.3h0.3H57h0.3l-0.35,1.8l-0.35,1.8l-0.35,1.8l-0.35,1.8h-0.3h-0.3H55
	h-0.3l-0.3-1.35l-0.3-1.35l-0.3-1.35l-0.3-1.35l-0.3,1.35l-0.3,1.35l-0.3,1.35l-0.3,1.35h-0.325H51.65h-0.325H51L51,71.2L51,71.2
	L51,71.2L51,71.2z"/>
<path id="path3370" style="fill:#003366;" d="M58.2,67.6l-0.25-0.05L57.7,67.5l-0.25-0.05L57.2,67.4
	c0.025-0.125,0.056-0.244,0.094-0.355c0.037-0.111,0.081-0.214,0.131-0.307c0.05-0.094,0.106-0.178,0.169-0.252
	S57.725,66.35,57.8,66.3s0.156-0.1,0.244-0.147c0.087-0.047,0.181-0.091,0.281-0.128c0.1-0.037,0.206-0.069,0.319-0.091
	S58.875,65.9,59,65.9s0.237,0.006,0.341,0.017c0.103,0.011,0.197,0.026,0.284,0.045c0.088,0.019,0.169,0.04,0.247,0.064
	s0.153,0.049,0.228,0.074c0.075,0.025,0.138,0.056,0.191,0.092c0.053,0.036,0.097,0.077,0.134,0.121s0.069,0.091,0.097,0.139
	C60.55,66.5,60.575,66.55,60.6,66.6c0.025,0.05,0.05,0.119,0.073,0.201c0.024,0.083,0.046,0.18,0.065,0.285
	c0.019,0.107,0.034,0.222,0.045,0.343S60.8,67.675,60.8,67.8v0.4v0.4V69v0.4c0,0.1,0,0.2,0,0.297s0,0.191,0,0.278
	c0,0.088,0,0.169,0,0.241c0,0.072,0,0.134,0,0.184s0.006,0.1,0.017,0.152c0.011,0.051,0.026,0.104,0.045,0.16
	c0.019,0.056,0.041,0.116,0.065,0.18C60.95,70.956,60.975,71.025,61,71.1h-0.25H60.5h-0.25H60l-0.025-0.15L59.95,70.8l-0.025-0.15
	L59.9,70.5c-0.05,0.05-0.1,0.1-0.15,0.148c-0.05,0.048-0.1,0.095-0.15,0.139c-0.05,0.044-0.1,0.085-0.15,0.121
	c-0.05,0.036-0.1,0.067-0.15,0.092c-0.05,0.025-0.1,0.05-0.152,0.073c-0.051,0.023-0.104,0.045-0.16,0.064
	c-0.056,0.019-0.116,0.035-0.18,0.046C58.744,71.194,58.675,71.2,58.6,71.2c-0.1,0-0.2-0.006-0.297-0.02
	c-0.097-0.014-0.191-0.036-0.278-0.068c-0.087-0.031-0.169-0.072-0.241-0.123S57.65,70.875,57.6,70.8
	c-0.075-0.075-0.138-0.156-0.189-0.242c-0.052-0.086-0.092-0.176-0.123-0.27c-0.031-0.093-0.053-0.19-0.067-0.289
	C57.207,69.9,57.2,69.8,57.2,69.7c0-0.075,0-0.144,0.003-0.209c0.003-0.066,0.009-0.128,0.022-0.191s0.031-0.125,0.059-0.191
	c0.028-0.066,0.066-0.134,0.116-0.209c0.025-0.05,0.056-0.1,0.091-0.148c0.034-0.048,0.072-0.095,0.109-0.139
	s0.075-0.084,0.109-0.12c0.034-0.036,0.066-0.067,0.091-0.093c0.025-0.025,0.069-0.056,0.127-0.091
	c0.058-0.034,0.13-0.072,0.211-0.109c0.081-0.037,0.171-0.075,0.267-0.109C58.5,68.056,58.6,68.025,58.7,68
	c0.125-0.025,0.244-0.05,0.355-0.076c0.111-0.026,0.214-0.054,0.307-0.086c0.093-0.031,0.178-0.065,0.252-0.105
	c0.074-0.039,0.136-0.083,0.186-0.133c0-0.075,0-0.144,0-0.206s0-0.119,0-0.169c0-0.05,0-0.094,0-0.131s0-0.069,0-0.094
	s-0.006-0.05-0.017-0.073c-0.011-0.023-0.026-0.045-0.045-0.064s-0.04-0.034-0.064-0.045C59.65,66.807,59.625,66.8,59.6,66.8
	s-0.056-0.006-0.091-0.016s-0.072-0.022-0.109-0.034c-0.038-0.012-0.075-0.025-0.109-0.034S59.225,66.7,59.2,66.7
	c-0.05,0-0.1,0-0.148,0.002c-0.049,0.001-0.096,0.005-0.139,0.01c-0.043,0.007-0.084,0.016-0.12,0.03
	c-0.036,0.014-0.067,0.033-0.092,0.058c-0.075,0.1-0.138,0.181-0.191,0.252c-0.053,0.07-0.097,0.13-0.134,0.186
	c-0.037,0.056-0.069,0.109-0.097,0.167C58.25,67.463,58.225,67.525,58.2,67.6L58.2,67.6L58.2,67.6L58.2,67.6L58.2,67.6z M59.7,68.7
	c-0.025,0-0.062,0.006-0.109,0.017c-0.047,0.011-0.103,0.026-0.166,0.045c-0.062,0.019-0.131,0.041-0.203,0.065
	C59.15,68.85,59.075,68.875,59,68.9c-0.1,0.025-0.188,0.05-0.264,0.075c-0.077,0.025-0.142,0.05-0.199,0.075
	c-0.056,0.025-0.103,0.05-0.142,0.075c-0.039,0.025-0.07,0.05-0.095,0.075s-0.049,0.056-0.073,0.091
	c-0.024,0.034-0.046,0.072-0.065,0.109c-0.018,0.037-0.034,0.075-0.045,0.109S58.1,69.575,58.1,69.6c0,0.025,0,0.062,0.003,0.106
	c0.003,0.044,0.009,0.094,0.022,0.144c0.013,0.05,0.031,0.1,0.059,0.144c0.028,0.044,0.066,0.081,0.116,0.106
	c0.025,0.025,0.056,0.05,0.091,0.073c0.034,0.023,0.072,0.045,0.109,0.064s0.075,0.034,0.109,0.045
	c0.034,0.011,0.066,0.017,0.091,0.017s0.056,0,0.092-0.003c0.036-0.003,0.077-0.009,0.121-0.022c0.043-0.012,0.09-0.03,0.139-0.058
	S59.15,70.15,59.2,70.1c0.05-0.025,0.094-0.05,0.131-0.076c0.038-0.026,0.069-0.054,0.094-0.086
	c0.025-0.031,0.044-0.065,0.056-0.105C59.494,69.794,59.5,69.75,59.5,69.7c0-0.025,0.006-0.062,0.016-0.111
	c0.009-0.048,0.022-0.108,0.034-0.176c0.013-0.069,0.025-0.147,0.034-0.233C59.594,69.094,59.6,69,59.6,68.9v-0.05V68.8v-0.05V68.7
	h0.025h0.025h0.025H59.7z"/>
<path id="path3372" style="fill:#003366;" d="M63.7,66v0.275v0.275v0.275V67.1h-0.2h-0.2h-0.2h-0.2v0.525v0.525v0.525V69.2
	c0,0.1,0,0.194,0,0.28s0,0.164,0,0.232c0,0.069,0,0.129,0,0.177s0,0.086,0,0.111s0.006,0.05,0.019,0.073
	c0.013,0.023,0.031,0.045,0.056,0.064s0.056,0.034,0.094,0.045C63.106,70.194,63.15,70.2,63.2,70.2c0.025,0,0.056,0,0.091-0.002
	c0.034-0.001,0.072-0.004,0.109-0.01c0.037-0.007,0.075-0.016,0.109-0.03c0.034-0.014,0.066-0.033,0.091-0.058l0.025,0.275
	l0.025,0.275l0.025,0.275L63.7,71.2c-0.075,0.025-0.15,0.05-0.225,0.073c-0.075,0.023-0.15,0.045-0.225,0.064
	s-0.15,0.034-0.225,0.045c-0.075,0.011-0.15,0.017-0.225,0.017s-0.144-0.006-0.208-0.017c-0.064-0.011-0.124-0.026-0.18-0.045
	c-0.056-0.019-0.109-0.04-0.16-0.064C62.2,71.25,62.15,71.225,62.1,71.2c-0.05-0.025-0.094-0.062-0.133-0.108
	c-0.039-0.045-0.073-0.098-0.104-0.154c-0.032-0.056-0.06-0.116-0.086-0.174C61.75,70.706,61.725,70.65,61.7,70.6
	c0-0.05-0.006-0.112-0.016-0.188c-0.009-0.075-0.022-0.162-0.034-0.262s-0.025-0.213-0.034-0.338
	C61.606,69.688,61.6,69.55,61.6,69.4v-0.575V68.25v-0.575V67.1h-0.1h-0.1h-0.1h-0.1v-0.275V66.55v-0.275V66h0.125h0.125h0.125H61.7
	v-0.25V65.5v-0.25V65l0.275-0.2l0.275-0.2l0.275-0.2l0.275-0.2v0.45v0.45v0.45V66h0.225h0.225h0.225H63.7L63.7,66L63.7,66L63.7,66
	L63.7,66z"/>
<path id="path3374" style="fill:#003366;" d="M66.8,69.5l0.275,0.05l0.275,0.05l0.275,0.05L67.9,69.7
	c-0.025,0.125-0.062,0.244-0.109,0.356c-0.047,0.113-0.103,0.219-0.166,0.319c-0.063,0.1-0.131,0.194-0.203,0.281
	S67.275,70.825,67.2,70.9c-0.075,0.075-0.156,0.138-0.244,0.189s-0.181,0.092-0.281,0.123s-0.206,0.053-0.319,0.067
	C66.244,71.294,66.125,71.3,66,71.3c-0.15,0-0.294-0.012-0.431-0.037c-0.137-0.025-0.269-0.062-0.394-0.113
	c-0.125-0.05-0.244-0.112-0.356-0.188C64.706,70.888,64.6,70.8,64.5,70.7c-0.1-0.125-0.188-0.262-0.262-0.411
	s-0.137-0.308-0.188-0.476c-0.05-0.169-0.088-0.347-0.112-0.533C63.913,69.094,63.9,68.9,63.9,68.7c0-0.225,0.013-0.438,0.037-0.637
	c0.025-0.2,0.062-0.387,0.113-0.562c0.05-0.175,0.113-0.338,0.188-0.488c0.075-0.15,0.162-0.287,0.262-0.412
	c0.1-0.1,0.2-0.194,0.302-0.278c0.102-0.084,0.205-0.159,0.311-0.222s0.216-0.112,0.33-0.147c0.114-0.034,0.233-0.053,0.358-0.053
	c0.15,0,0.294,0.013,0.43,0.039c0.136,0.027,0.264,0.067,0.382,0.123c0.118,0.056,0.228,0.128,0.326,0.218
	c0.098,0.089,0.186,0.195,0.261,0.32c0.1,0.125,0.188,0.269,0.262,0.43c0.075,0.161,0.137,0.339,0.188,0.533
	s0.088,0.404,0.113,0.627c0.025,0.224,0.037,0.461,0.037,0.711v0.05V69v0.05v0.05h-0.7h-0.7h-0.7H65c0,0.1,0.006,0.194,0.019,0.281
	c0.012,0.088,0.031,0.169,0.056,0.244c0.025,0.075,0.056,0.144,0.094,0.206C65.206,69.894,65.25,69.95,65.3,70
	c0.05,0.05,0.1,0.1,0.152,0.147s0.104,0.091,0.16,0.128c0.057,0.037,0.116,0.069,0.18,0.091C65.856,70.388,65.925,70.4,66,70.4
	c0.1-0.025,0.188-0.062,0.266-0.113c0.078-0.05,0.147-0.112,0.209-0.188c0.062-0.075,0.119-0.162,0.172-0.262
	S66.75,69.625,66.8,69.5L66.8,69.5L66.8,69.5L66.8,69.5L66.8,69.5z M66.8,68.1c0-0.1-0.006-0.194-0.019-0.281
	c-0.012-0.088-0.031-0.169-0.056-0.244c-0.025-0.075-0.056-0.144-0.094-0.206C66.594,67.306,66.55,67.25,66.5,67.2
	c-0.05-0.05-0.1-0.094-0.15-0.131c-0.05-0.037-0.1-0.069-0.15-0.094s-0.1-0.044-0.15-0.056C66,66.906,65.95,66.9,65.9,66.9
	s-0.1,0.006-0.15,0.019c-0.05,0.012-0.1,0.031-0.15,0.056c-0.05,0.025-0.1,0.056-0.15,0.094c-0.05,0.037-0.1,0.081-0.15,0.131
	c-0.05,0.05-0.094,0.106-0.13,0.169s-0.064,0.131-0.083,0.206c-0.019,0.075-0.028,0.156-0.026,0.244
	C65.062,67.906,65.075,68,65.1,68.1h0.425h0.425h0.425H66.8z"/>
<path id="path3376" style="fill:#003366;" d="M69.7,71.2h-0.275H69.15h-0.275H68.6v-1.3v-1.3v-1.3V66h0.275h0.275h0.275H69.7v0.2
	v0.2v0.2v0.2c0.05-0.1,0.1-0.188,0.148-0.264c0.048-0.077,0.095-0.142,0.139-0.199c0.044-0.056,0.084-0.103,0.12-0.142
	c0.036-0.039,0.067-0.07,0.093-0.095c0.025-0.025,0.056-0.05,0.092-0.073c0.036-0.023,0.077-0.045,0.121-0.064
	s0.091-0.034,0.139-0.045C70.6,65.907,70.65,65.9,70.7,65.9c0.075,0,0.144,0.006,0.209,0.019c0.066,0.012,0.128,0.031,0.191,0.056
	c0.062,0.025,0.125,0.056,0.191,0.094c0.066,0.037,0.134,0.081,0.209,0.131l-0.125,0.275L71.25,66.75l-0.125,0.275L71,67.3
	c-0.05-0.025-0.1-0.05-0.148-0.073c-0.048-0.023-0.095-0.045-0.139-0.064s-0.084-0.034-0.12-0.045
	C70.557,67.106,70.525,67.1,70.5,67.1s-0.056,0-0.091,0.003c-0.034,0.003-0.072,0.009-0.109,0.022
	c-0.037,0.013-0.075,0.031-0.109,0.059c-0.034,0.028-0.066,0.066-0.091,0.116c-0.025,0.025-0.05,0.056-0.075,0.094
	c-0.025,0.037-0.05,0.081-0.075,0.131c-0.025,0.05-0.05,0.106-0.075,0.169c-0.025,0.062-0.05,0.131-0.075,0.206
	c0,0.075-0.006,0.162-0.016,0.266s-0.022,0.222-0.034,0.359c-0.012,0.138-0.025,0.294-0.034,0.472S69.7,69.375,69.7,69.6V70v0.4v0.4
	V71.2L69.7,71.2L69.7,71.2L69.7,71.2L69.7,71.2z"/>
<path id="path3378" style="fill:#003366;" d="M71.1,69.8h0.275h0.275h0.275H72.2v0.25v0.25v0.25v0.25c0,0.15,0,0.288-0.003,0.413
	c-0.003,0.125-0.009,0.237-0.022,0.337s-0.031,0.188-0.059,0.262C72.088,71.888,72.05,71.95,72,72c-0.05,0.1-0.1,0.188-0.153,0.266
	s-0.109,0.147-0.172,0.209s-0.131,0.119-0.209,0.172C71.387,72.7,71.3,72.75,71.2,72.8l-0.05-0.15L71.1,72.5l-0.05-0.15L71,72.2
	c0.05-0.025,0.1-0.05,0.148-0.076c0.048-0.026,0.095-0.054,0.139-0.086c0.044-0.031,0.084-0.065,0.12-0.105
	c0.036-0.039,0.068-0.083,0.093-0.133c0.025-0.025,0.044-0.062,0.059-0.109s0.028-0.103,0.041-0.166s0.025-0.131,0.041-0.203
	s0.034-0.147,0.059-0.222h-0.125H71.45h-0.125H71.2l-0.025-0.325L71.15,70.45l-0.025-0.325L71.1,69.8L71.1,69.8L71.1,69.8L71.1,69.8
	L71.1,69.8z"/>
<path id="path3380" style="fill:#003366;" d="M36.6,78.8l0.3-0.025l0.3-0.025l0.3-0.025l0.3-0.025
	c0.025,0.225,0.075,0.425,0.147,0.598c0.072,0.173,0.166,0.32,0.278,0.439c0.113,0.119,0.244,0.21,0.391,0.271
	c0.147,0.061,0.309,0.092,0.484,0.092c0.1,0,0.188-0.006,0.266-0.019c0.078-0.012,0.147-0.031,0.209-0.056s0.119-0.056,0.172-0.094
	C39.8,79.894,39.85,79.85,39.9,79.8c0.05-0.05,0.094-0.1,0.131-0.151s0.069-0.104,0.094-0.16s0.044-0.115,0.056-0.179
	c0.012-0.064,0.019-0.133,0.019-0.208c0-0.05,0-0.094-0.002-0.133s-0.005-0.074-0.011-0.105c-0.006-0.032-0.015-0.06-0.029-0.086
	S40.125,78.725,40.1,78.7s-0.05-0.05-0.075-0.075C40,78.6,39.975,78.575,39.95,78.55s-0.05-0.05-0.075-0.075
	c-0.025-0.025-0.05-0.05-0.075-0.075s-0.069-0.05-0.13-0.076s-0.139-0.054-0.232-0.086c-0.093-0.031-0.203-0.065-0.327-0.105
	C38.988,78.094,38.85,78.05,38.7,78c-0.125-0.025-0.244-0.056-0.355-0.092c-0.111-0.036-0.214-0.077-0.308-0.121
	s-0.178-0.091-0.252-0.139C37.712,77.6,37.65,77.55,37.6,77.5c-0.05-0.05-0.1-0.1-0.15-0.151c-0.05-0.051-0.1-0.104-0.15-0.16
	s-0.1-0.115-0.15-0.179c-0.05-0.064-0.1-0.133-0.15-0.208c-0.025-0.075-0.05-0.15-0.073-0.225c-0.024-0.075-0.046-0.15-0.065-0.225
	c-0.019-0.075-0.034-0.15-0.045-0.225c-0.011-0.075-0.017-0.15-0.017-0.225c0-0.1,0.006-0.2,0.019-0.299
	c0.013-0.098,0.031-0.195,0.056-0.289c0.025-0.094,0.056-0.185,0.094-0.271c0.037-0.086,0.081-0.167,0.131-0.242
	s0.1-0.144,0.153-0.208c0.053-0.064,0.109-0.123,0.172-0.179c0.062-0.056,0.131-0.11,0.209-0.161S37.8,74.15,37.9,74.1
	c0.05-0.025,0.112-0.044,0.186-0.058c0.073-0.014,0.158-0.024,0.252-0.03c0.094-0.006,0.196-0.009,0.307-0.01
	C38.756,74,38.875,74,39,74c0.175,0,0.338,0.013,0.489,0.037c0.152,0.025,0.292,0.063,0.423,0.113
	c0.132,0.05,0.253,0.113,0.368,0.188c0.114,0.075,0.22,0.162,0.32,0.262s0.188,0.206,0.263,0.32
	c0.075,0.114,0.138,0.236,0.188,0.368s0.087,0.272,0.112,0.423S41.2,76.025,41.2,76.2h-0.3h-0.3h-0.3H40
	c0-0.1-0.013-0.194-0.034-0.28c-0.022-0.086-0.053-0.164-0.091-0.232c-0.037-0.069-0.081-0.129-0.128-0.177S39.65,75.425,39.6,75.4
	c-0.05-0.025-0.1-0.05-0.153-0.073c-0.053-0.023-0.109-0.045-0.172-0.064s-0.131-0.034-0.209-0.045
	C38.987,75.206,38.9,75.2,38.8,75.2c-0.075,0-0.15,0.006-0.223,0.017c-0.074,0.011-0.146,0.026-0.215,0.045
	c-0.069,0.019-0.134,0.041-0.195,0.065S38.05,75.375,38,75.4s-0.094,0.056-0.131,0.092c-0.037,0.036-0.069,0.077-0.094,0.121
	s-0.044,0.091-0.056,0.139C37.706,75.8,37.7,75.85,37.7,75.9c0,0.05,0.006,0.1,0.017,0.148c0.011,0.048,0.026,0.095,0.045,0.139
	s0.04,0.084,0.064,0.12c0.024,0.036,0.049,0.068,0.074,0.093c0.05,0.025,0.106,0.056,0.172,0.091
	c0.066,0.034,0.141,0.072,0.228,0.109s0.188,0.075,0.303,0.109C38.719,76.744,38.85,76.775,39,76.8c0.15,0.05,0.287,0.1,0.414,0.148
	c0.127,0.048,0.242,0.095,0.349,0.139c0.106,0.044,0.203,0.085,0.292,0.121c0.089,0.036,0.17,0.067,0.245,0.092
	c0.075,0.05,0.144,0.1,0.206,0.153s0.119,0.109,0.169,0.172s0.094,0.131,0.131,0.209S40.875,78,40.9,78.1
	c0.025,0.075,0.05,0.156,0.073,0.242c0.024,0.086,0.046,0.176,0.065,0.27c0.019,0.094,0.034,0.191,0.045,0.29
	C41.094,79,41.1,79.1,41.1,79.2c0,0.15-0.013,0.3-0.037,0.447c-0.025,0.147-0.062,0.291-0.113,0.428
	c-0.05,0.138-0.112,0.269-0.187,0.391C40.688,80.588,40.6,80.7,40.5,80.8s-0.213,0.188-0.338,0.262
	C40.037,81.138,39.9,81.2,39.75,81.25c-0.15,0.05-0.312,0.088-0.487,0.113S38.9,81.4,38.7,81.4
	c-0.275-0.025-0.531-0.094-0.764-0.209s-0.442-0.278-0.623-0.491c-0.181-0.213-0.335-0.475-0.455-0.791
	C36.737,79.594,36.65,79.225,36.6,78.8L36.6,78.8L36.6,78.8L36.6,78.8L36.6,78.8z"/>
<path id="path3382" style="fill:#003366;" d="M43.2,74v0.65v0.65v0.65v0.65c0.05-0.075,0.1-0.137,0.15-0.192
	c0.05-0.055,0.1-0.102,0.15-0.146s0.1-0.084,0.15-0.127c0.05-0.042,0.1-0.085,0.15-0.135c0.05-0.025,0.1-0.05,0.152-0.073
	c0.051-0.023,0.104-0.045,0.16-0.064s0.116-0.034,0.18-0.045c0.064-0.011,0.133-0.018,0.208-0.018c0.1,0,0.188,0.006,0.266,0.019
	c0.078,0.012,0.147,0.031,0.209,0.056c0.062,0.025,0.119,0.056,0.172,0.094C45.2,76.006,45.25,76.05,45.3,76.1
	c0.05,0.05,0.1,0.1,0.148,0.153s0.096,0.109,0.139,0.172c0.044,0.063,0.084,0.131,0.12,0.209S45.775,76.8,45.8,76.9
	c0.025,0.05,0.044,0.119,0.058,0.201s0.023,0.18,0.029,0.285c0.007,0.106,0.01,0.222,0.011,0.343C45.9,77.85,45.9,77.975,45.9,78.1
	v0.775v0.775v0.775V81.2h-0.275H45.35h-0.275H44.8v-0.7v-0.7v-0.7v-0.7c0-0.15,0-0.287-0.002-0.412s-0.005-0.238-0.011-0.338
	c-0.006-0.1-0.015-0.188-0.029-0.262S44.725,77.25,44.7,77.2c-0.025-0.05-0.056-0.094-0.094-0.131S44.525,77,44.475,76.975
	s-0.106-0.044-0.169-0.056C44.244,76.906,44.175,76.9,44.1,76.9s-0.144,0.006-0.208,0.02c-0.064,0.014-0.124,0.036-0.18,0.068
	c-0.056,0.031-0.109,0.071-0.16,0.123C43.5,77.163,43.45,77.225,43.4,77.3c-0.05,0.05-0.088,0.119-0.116,0.203
	c-0.028,0.084-0.047,0.184-0.059,0.297c-0.013,0.113-0.019,0.238-0.022,0.372C43.2,78.306,43.2,78.45,43.2,78.6v0.65v0.65v0.65v0.65
	h-0.275H42.65h-0.275H42.1v-1.8v-1.8v-1.8V74h0.275h0.275h0.275H43.2L43.2,74L43.2,74L43.2,74L43.2,74z"/>
<path id="path3384" style="fill:#003366;" d="M49.4,79.5l0.275,0.05l0.275,0.05l0.275,0.05L50.5,79.7
	c-0.025,0.125-0.062,0.244-0.109,0.356c-0.047,0.113-0.103,0.219-0.166,0.319s-0.131,0.194-0.203,0.281
	c-0.072,0.088-0.147,0.169-0.222,0.244c-0.075,0.075-0.156,0.138-0.244,0.189c-0.087,0.051-0.181,0.092-0.281,0.123
	s-0.206,0.053-0.319,0.067S48.725,81.3,48.6,81.3c-0.15,0-0.294-0.012-0.431-0.037c-0.137-0.025-0.269-0.062-0.394-0.113
	c-0.125-0.05-0.244-0.112-0.356-0.188C47.306,80.888,47.2,80.8,47.1,80.7c-0.1-0.125-0.188-0.262-0.263-0.411
	s-0.138-0.308-0.188-0.476c-0.05-0.169-0.087-0.347-0.112-0.533C46.512,79.094,46.5,78.9,46.5,78.7c0-0.225,0.013-0.438,0.037-0.637
	c0.025-0.2,0.063-0.387,0.113-0.562c0.05-0.175,0.112-0.338,0.188-0.488C46.912,76.863,47,76.725,47.1,76.6
	c0.1-0.1,0.2-0.194,0.302-0.278c0.101-0.084,0.204-0.159,0.31-0.222c0.106-0.062,0.216-0.112,0.33-0.147
	c0.114-0.034,0.233-0.053,0.358-0.053c0.15,0,0.294,0.013,0.43,0.039c0.136,0.027,0.264,0.067,0.382,0.123
	c0.119,0.056,0.229,0.128,0.327,0.218c0.098,0.089,0.186,0.195,0.261,0.32c0.1,0.125,0.188,0.269,0.263,0.43
	c0.075,0.161,0.137,0.339,0.188,0.533c0.05,0.194,0.088,0.404,0.112,0.627c0.025,0.224,0.038,0.461,0.038,0.711v0.05V79v0.05v0.05
	h-0.7H49h-0.7h-0.7c0,0.1,0.006,0.194,0.019,0.281s0.031,0.169,0.056,0.244c0.025,0.075,0.056,0.144,0.094,0.206
	S47.85,79.95,47.9,80c0.05,0.05,0.1,0.1,0.152,0.147c0.052,0.047,0.104,0.091,0.16,0.128c0.056,0.037,0.116,0.069,0.18,0.091
	c0.064,0.022,0.133,0.034,0.208,0.034c0.1-0.025,0.194-0.062,0.28-0.113c0.086-0.05,0.164-0.112,0.233-0.188
	c0.069-0.075,0.128-0.162,0.176-0.262C49.338,79.738,49.375,79.625,49.4,79.5L49.4,79.5L49.4,79.5L49.4,79.5L49.4,79.5z M49.5,78.1
	c0-0.1-0.006-0.194-0.019-0.281s-0.031-0.169-0.056-0.244c-0.025-0.075-0.056-0.144-0.094-0.206
	C49.294,77.306,49.25,77.25,49.2,77.2c-0.05-0.05-0.1-0.094-0.15-0.131C49,77.031,48.95,77,48.9,76.975s-0.1-0.044-0.15-0.056
	c-0.05-0.012-0.1-0.019-0.15-0.019s-0.1,0.006-0.15,0.019c-0.05,0.012-0.1,0.031-0.15,0.056c-0.05,0.025-0.1,0.056-0.15,0.094
	C48.1,77.106,48.05,77.15,48,77.2c-0.05,0.05-0.094,0.106-0.13,0.169s-0.064,0.131-0.083,0.206
	c-0.019,0.075-0.028,0.156-0.026,0.244S47.775,78,47.8,78.1h0.425h0.425h0.425H49.5z"/>
<path id="path3386" style="fill:#003366;" d="M51.3,81.2v-1.8v-1.8v-1.8V74h0.275h0.275h0.275H52.4v1.8v1.8v1.8v1.8h-0.275H51.85
	h-0.275H51.3z"/>
<path id="path3388" style="fill:#003366;" d="M55.3,76v0.275v0.275v0.275V77.1h-0.2h-0.2h-0.2h-0.2v0.525v0.525v0.525V79.2
	c0,0.1,0,0.194,0,0.28s0,0.164,0,0.232c0,0.069,0,0.129,0,0.177s0,0.086,0,0.111s0.006,0.05,0.019,0.073
	c0.013,0.023,0.031,0.045,0.056,0.064s0.056,0.034,0.094,0.045C54.706,80.194,54.75,80.2,54.8,80.2c0.025,0,0.056,0,0.091-0.002
	c0.034-0.001,0.072-0.004,0.109-0.01c0.037-0.007,0.075-0.016,0.109-0.03c0.034-0.014,0.066-0.033,0.091-0.058l0.025,0.275
	l0.025,0.275l0.025,0.275L55.3,81.2c-0.075,0.025-0.15,0.05-0.225,0.073c-0.075,0.023-0.15,0.045-0.225,0.064
	s-0.15,0.034-0.225,0.045c-0.075,0.011-0.15,0.017-0.225,0.017s-0.144-0.006-0.208-0.017c-0.064-0.011-0.124-0.026-0.18-0.045
	c-0.056-0.019-0.109-0.04-0.16-0.064C53.8,81.25,53.75,81.225,53.7,81.2s-0.094-0.062-0.133-0.108
	c-0.039-0.045-0.073-0.098-0.104-0.154c-0.031-0.056-0.06-0.116-0.086-0.174S53.325,80.65,53.3,80.6c0-0.05-0.006-0.112-0.016-0.188
	c-0.009-0.075-0.022-0.162-0.034-0.262s-0.025-0.213-0.034-0.338C53.206,79.688,53.2,79.55,53.2,79.4v-0.575V78.25v-0.575V77.1
	h-0.125H52.95h-0.125H52.7v-0.275V76.55v-0.275V76h0.125h0.125h0.125H53.2v-0.25V75.5v-0.25V75l0.275-0.2l0.275-0.2l0.275-0.2
	l0.275-0.2v0.45v0.45v0.45V76h0.25h0.25h0.25H55.3L55.3,76L55.3,76L55.3,76L55.3,76z"/>
<path id="path3390" style="fill:#003366;" d="M58.3,79.5l0.275,0.05l0.275,0.05l0.275,0.05L59.4,79.7
	c-0.025,0.125-0.062,0.244-0.109,0.356c-0.047,0.113-0.103,0.219-0.166,0.319c-0.062,0.1-0.131,0.194-0.203,0.281
	c-0.072,0.088-0.147,0.169-0.222,0.244c-0.075,0.075-0.156,0.138-0.244,0.189c-0.087,0.051-0.181,0.092-0.281,0.123
	s-0.206,0.053-0.319,0.067C57.744,81.293,57.625,81.3,57.5,81.3c-0.15,0-0.294-0.012-0.431-0.037
	c-0.137-0.025-0.269-0.062-0.394-0.113c-0.125-0.05-0.244-0.112-0.356-0.187C56.206,80.888,56.1,80.8,56,80.7
	c-0.1-0.125-0.188-0.262-0.263-0.411s-0.138-0.308-0.188-0.476c-0.05-0.168-0.088-0.347-0.112-0.533
	C55.412,79.094,55.4,78.9,55.4,78.7c0-0.225,0.013-0.438,0.037-0.637c0.025-0.2,0.062-0.387,0.113-0.562
	c0.05-0.175,0.112-0.338,0.188-0.488C55.813,76.863,55.9,76.725,56,76.6c0.1-0.1,0.2-0.194,0.302-0.278
	c0.101-0.084,0.204-0.159,0.31-0.222c0.107-0.062,0.216-0.112,0.33-0.147c0.114-0.034,0.233-0.053,0.358-0.053
	c0.15,0,0.294,0.013,0.43,0.039c0.136,0.027,0.264,0.067,0.382,0.123c0.119,0.057,0.228,0.129,0.327,0.218
	c0.098,0.089,0.186,0.195,0.261,0.32c0.1,0.125,0.188,0.269,0.263,0.43c0.075,0.161,0.137,0.339,0.188,0.533
	c0.05,0.194,0.088,0.404,0.112,0.627c0.025,0.224,0.038,0.461,0.038,0.711v0.05V79v0.05v0.05h-0.7h-0.7h-0.7h-0.7
	c0,0.1,0.006,0.194,0.019,0.281s0.031,0.169,0.056,0.244c0.025,0.075,0.056,0.144,0.094,0.206C56.706,79.894,56.75,79.95,56.8,80
	c0.05,0.05,0.1,0.1,0.152,0.147c0.051,0.047,0.104,0.091,0.16,0.128c0.056,0.037,0.116,0.069,0.18,0.091
	c0.064,0.022,0.133,0.034,0.208,0.034c0.125-0.025,0.231-0.062,0.322-0.113c0.091-0.05,0.166-0.112,0.228-0.188
	c0.062-0.075,0.112-0.162,0.153-0.262S58.275,79.625,58.3,79.5L58.3,79.5L58.3,79.5L58.3,79.5L58.3,79.5z M58.4,78.1
	c0-0.1-0.006-0.194-0.019-0.281s-0.031-0.169-0.056-0.244c-0.025-0.075-0.056-0.144-0.094-0.206S58.15,77.25,58.1,77.2
	c-0.05-0.05-0.1-0.094-0.15-0.131c-0.05-0.037-0.1-0.069-0.15-0.094s-0.1-0.044-0.15-0.056c-0.05-0.012-0.1-0.019-0.15-0.019
	s-0.1,0.006-0.15,0.019c-0.05,0.012-0.1,0.031-0.15,0.056c-0.05,0.025-0.1,0.056-0.15,0.094C57,77.106,56.95,77.15,56.9,77.2
	c-0.05,0.05-0.094,0.106-0.13,0.169s-0.064,0.131-0.083,0.206c-0.018,0.075-0.028,0.156-0.026,0.244S56.675,78,56.7,78.1h0.425
	h0.425h0.425H58.4L58.4,78.1L58.4,78.1L58.4,78.1L58.4,78.1z"/>
<path id="path3392" style="fill:#003366;" d="M61.3,81.2h-0.275H60.75h-0.275H60.2v-1.3v-1.3v-1.3V76h0.275h0.275h0.275H61.3v0.2
	v0.2v0.2v0.2c0.05-0.1,0.1-0.188,0.148-0.264s0.096-0.142,0.139-0.199c0.044-0.056,0.084-0.103,0.12-0.142
	c0.036-0.039,0.067-0.07,0.092-0.095c0.025-0.025,0.056-0.05,0.092-0.073c0.036-0.023,0.076-0.045,0.12-0.064
	c0.044-0.019,0.091-0.035,0.139-0.046S62.25,75.9,62.3,75.9c0.075,0,0.144,0.006,0.209,0.019c0.066,0.012,0.128,0.031,0.191,0.056
	c0.062,0.025,0.125,0.056,0.191,0.094c0.066,0.037,0.134,0.081,0.209,0.131L63,76.5l-0.1,0.3l-0.1,0.3l-0.1,0.3
	c-0.05-0.025-0.1-0.05-0.148-0.073c-0.049-0.023-0.096-0.045-0.139-0.064c-0.044-0.019-0.084-0.035-0.12-0.046
	S62.225,77.2,62.2,77.2s-0.056,0-0.091,0.003c-0.034,0.003-0.072,0.009-0.109,0.022c-0.037,0.013-0.075,0.031-0.109,0.059
	c-0.034,0.028-0.066,0.066-0.091,0.116c-0.025,0.025-0.05,0.056-0.075,0.094c-0.025,0.037-0.05,0.081-0.075,0.131
	c-0.025,0.05-0.05,0.106-0.075,0.169C61.55,77.856,61.525,77.925,61.5,78c-0.025,0.075-0.044,0.162-0.058,0.266
	s-0.023,0.222-0.029,0.359c-0.006,0.138-0.01,0.294-0.011,0.472S61.4,79.475,61.4,79.7l-0.025,0.375L61.35,80.45l-0.025,0.375
	L61.3,81.2L61.3,81.2L61.3,81.2L61.3,81.2L61.3,81.2z"/>
<path id="path973" inkscape:connector-curvature="0" inkscape:export-filename="C:\Users\Charlotte Abel\Documents\Symbology\Final-to-FEMA-3\food-water-shelter-v3.png" inkscape:export-xdpi="96" inkscape:export-ydpi="96" style="fill:#003366;" d="
	M41.9,38.1c-0.8,1.2-1.531,2.288-2.178,3.289s-1.209,1.917-1.672,2.773c-0.463,0.857-0.825,1.653-1.072,2.418
	c-0.247,0.764-0.378,1.495-0.378,2.22c0,0.725,0.15,1.413,0.42,2.036c0.27,0.624,0.661,1.183,1.142,1.652
	c0.481,0.469,1.053,0.847,1.686,1.107C40.481,53.856,41.175,54,41.9,54s1.419-0.15,2.052-0.419c0.633-0.269,1.204-0.656,1.685-1.131
	c0.481-0.475,0.872-1.037,1.143-1.656S47.2,49.5,47.2,48.8c0-0.75-0.125-1.5-0.364-2.277c-0.239-0.777-0.592-1.58-1.048-2.436
	c-0.457-0.856-1.016-1.765-1.668-2.754C43.469,40.344,42.725,39.275,41.9,38.1z M41.9,41.5c0.075,0.125,0.156,0.269,0.236,0.428
	c0.08,0.159,0.158,0.334,0.227,0.522c0.069,0.188,0.128,0.388,0.17,0.597c0.042,0.209,0.067,0.428,0.067,0.653
	c0,0.65-0.169,1.162-0.422,1.541c-0.253,0.378-0.591,0.622-0.928,0.734c-0.338,0.112-0.675,0.094-0.928-0.053
	C40.069,45.775,39.9,45.5,39.9,45.1c0-0.275,0.081-0.581,0.214-0.9c0.133-0.319,0.317-0.65,0.523-0.975
	c0.206-0.325,0.435-0.644,0.655-0.937C41.513,41.994,41.725,41.725,41.9,41.5z"/>
</svg>
