<?xml version="1.0" encoding="iso-8859-1"?>
<!-- Generator: Adobe Illustrator 25.4.1, SVG Export Plug-In . SVG Version: 6.00 Build 0)  -->
<svg version="1.1"
	 id="svg8" inkscape:export-filename="C:\Users\Charlotte Abel\Documents\Symbology\Components\For Distribution\communications_alerts-warnings-messages.png" inkscape:export-xdpi="300.00464" inkscape:export-ydpi="300.00464" inkscape:version="0.91 r13725" sodipodi:docname="food-water-shelter_agriculture_256x256.svg" xmlns:cc="http://creativecommons.org/ns#" xmlns:dc="http://purl.org/dc/elements/1.1/" xmlns:inkscape="http://www.inkscape.org/namespaces/inkscape" xmlns:rdf="http://www.w3.org/1999/02/22-rdf-syntax-ns#" xmlns:sodipodi="http://sodipodi.sourceforge.net/DTD/sodipodi-0.dtd" xmlns:svg="http://www.w3.org/2000/svg"
	 xmlns="http://www.w3.org/2000/svg" xmlns:xlink="http://www.w3.org/1999/xlink" x="0px" y="0px" viewBox="0 0 100 100"
	 style="enable-background:new 0 0 100 100;" xml:space="preserve">
<sodipodi:namedview  bordercolor="#666666" borderopacity="1.0" id="base" inkscape:current-layer="layer4" inkscape:cx="-302.11164" inkscape:cy="84.283015" inkscape:document-units="px" inkscape:guide-bbox="true" inkscape:lockguides="true" inkscape:pageopacity="0.0" inkscape:pageshadow="2" inkscape:window-height="657" inkscape:window-maximized="1" inkscape:window-width="1280" inkscape:window-x="-8" inkscape:window-y="-8" inkscape:zoom="0.765625" pagecolor="#ffffff" showgrid="false" showguides="false" units="px">
	<sodipodi:guide  id="guide5700" inkscape:locked="true" orientation="0,1" position="-0.93017576,23.874511"></sodipodi:guide>
	<sodipodi:guide  id="guide5726" inkscape:locked="true" orientation="0,1" position="-26.098869,26.473047"></sodipodi:guide>
	<sodipodi:guide  id="guide5880" inkscape:locked="true" orientation="0,1" position="104.51042,-2.9104167"></sodipodi:guide>
	<sodipodi:guide  id="guide6001" inkscape:locked="true" orientation="0,1" position="-71.093695,29.279377"></sodipodi:guide>
	<sodipodi:guide  id="guide6005" inkscape:locked="true" orientation="0,1" position="-46.304445,58.278122"></sodipodi:guide>
	<sodipodi:guide  id="guide6736" inkscape:locked="true" orientation="0,1" position="-0.10335287,20.205485"></sodipodi:guide>
	<sodipodi:guide  id="guide6738" inkscape:locked="true" orientation="0,1" position="-0.43848907,22.874513"></sodipodi:guide>
	<inkscape:grid  id="grid2386" type="xygrid"></inkscape:grid>
</sodipodi:namedview>
<g id="g1180" transform="translate(0,-229.2666)" inkscape:groupmode="layer" inkscape:label="halo:always" style="display:none;">
	<g id="g1210" inkscape:groupmode="layer" inkscape:label="-gray-halo:iter3" style="display:inline;">
		<g id="circle1208">
			<path style="fill:#919395;" d="M50,329.3c-27.6,0-50-22.4-50-50s22.4-50,50-50s50,22.4,50,50S77.6,329.3,50,329.3z M50,237.9
				c-22.8,0-41.4,18.6-41.4,41.4s18.6,41.4,41.4,41.4s41.4-18.6,41.4-41.4S72.8,237.9,50,237.9z"/>
		</g>
	</g>
	<g id="g1206" inkscape:groupmode="layer" inkscape:label="-red-halo:iter3" style="display:inline;">
		<g id="circle1204">
			<path style="fill:#C52038;" d="M50,329.3c-27.6,0-50-22.4-50-50s22.4-50,50-50s50,22.4,50,50S77.6,329.3,50,329.3z M50,237.9
				c-22.8,0-41.4,18.6-41.4,41.4s18.6,41.4,41.4,41.4s41.4-18.6,41.4-41.4S72.8,237.9,50,237.9z"/>
		</g>
	</g>
	<g id="g1202" inkscape:groupmode="layer" inkscape:label="-green-halo:iter3" style="display:inline;">
		<g id="circle1200">
			<path style="fill:#5E9C42;" d="M50,329.3c-27.6,0-50-22.4-50-50s22.4-50,50-50s50,22.4,50,50S77.6,329.3,50,329.3z M50,237.9
				c-22.8,0-41.4,18.6-41.4,41.4s18.6,41.4,41.4,41.4s41.4-18.6,41.4-41.4S72.8,237.9,50,237.9z"/>
		</g>
	</g>
	<g id="layer18" inkscape:groupmode="layer" inkscape:label="-yellow-halo:iter3" style="display:inline;">
		<g id="circle1178-4">
			<path style="fill:#FBBA16;" d="M50,329.3c-27.6,0-50-22.4-50-50s22.4-50,50-50s50,22.4,50,50S77.6,329.3,50,329.3z M50,237.9
				c-22.8,0-41.4,18.6-41.4,41.4s18.6,41.4,41.4,41.4s41.4-18.6,41.4-41.4S72.8,237.9,50,237.9z"/>
		</g>
	</g>
</g>
<path id="path8516" inkscape:connector-curvature="0" style="fill:#003366;" d="M50.626,28.04c-0.026-0.39-0.148-0.751-0.356-1.07
	s-0.504-0.598-0.878-0.821s-0.826-0.392-1.348-0.492s-1.114-0.133-1.766-0.085c-0.653,0.049-1.383,0.256-2.112,0.54
	c-0.729,0.285-1.456,0.647-2.1,1.006c-0.645,0.36-1.207,0.716-1.607,0.989c-0.4,0.273-0.637,0.461-0.631,0.486
	c-0.004,0.039,0.264,0.233,0.709,0.498c0.445,0.265,1.067,0.602,1.77,0.927c0.704,0.326,1.49,0.641,2.263,0.862
	s1.533,0.349,2.186,0.3c0.653-0.049,1.231-0.169,1.729-0.348c0.498-0.179,0.916-0.416,1.247-0.696
	c0.331-0.281,0.575-0.605,0.726-0.959C50.609,28.822,50.667,28.439,50.626,28.04z"/>
<path id="path8518" inkscape:connector-curvature="0" style="fill:#003366;" d="M53.319,29.971
	c-0.703,0.162-1.465,0.511-2.212,0.943s-1.48,0.95-2.124,1.449c-0.644,0.5-1.2,0.982-1.593,1.346s-0.624,0.608-0.618,0.633
	c0.011,0.048,0.338,0.222,0.868,0.444c0.529,0.222,1.26,0.492,2.079,0.734s1.725,0.456,2.605,0.564
	c0.88,0.109,1.733,0.113,2.445-0.064c0.703-0.162,1.31-0.395,1.819-0.678c0.509-0.283,0.92-0.618,1.231-0.983
	c0.311-0.365,0.523-0.762,0.633-1.17c0.11-0.408,0.118-0.828,0.023-1.24c-0.11-0.421-0.311-0.796-0.596-1.111
	s-0.651-0.57-1.092-0.752s-0.956-0.292-1.537-0.315C54.668,29.746,54.021,29.809,53.319,29.971z"/>
<path id="path8521" inkscape:connector-curvature="0" style="fill:#003366;" d="M53.864,39.189c0.011,0.048,0.341,0.218,0.873,0.435
	c0.532,0.217,1.266,0.482,2.087,0.72s1.728,0.45,2.606,0.562c0.878,0.112,1.727,0.123,2.429-0.039
	c0.703-0.162,1.31-0.395,1.819-0.678c0.509-0.283,0.92-0.618,1.231-0.983c0.311-0.365,0.523-0.762,0.633-1.17
	c0.11-0.408,0.118-0.828,0.023-1.24s-0.289-0.782-0.57-1.095s-0.65-0.57-1.095-0.754c-0.445-0.185-0.965-0.297-1.551-0.323
	c-0.585-0.026-1.235,0.035-1.938,0.197c-0.712,0.177-1.479,0.533-2.228,0.968s-1.481,0.951-2.123,1.447
	c-0.642,0.496-1.194,0.973-1.584,1.332C54.087,38.924,53.858,39.165,53.864,39.189L53.864,39.189L53.864,39.189L53.864,39.189
	L53.864,39.189z"/>
<path id="path8523" inkscape:connector-curvature="0" style="fill:#003366;" d="M48.5,22.148c0.242,0.608,0.531,1.125,0.85,1.55
	c0.319,0.425,0.669,0.757,1.033,0.995c0.365,0.238,0.744,0.382,1.123,0.429c0.379,0.047,0.757-0.002,1.118-0.149
	c0.362-0.147,0.674-0.372,0.923-0.665c0.249-0.293,0.436-0.653,0.547-1.071c0.111-0.418,0.146-0.894,0.093-1.417
	c-0.053-0.523-0.194-1.094-0.437-1.701c-0.242-0.608-0.693-1.231-1.233-1.825c-0.541-0.593-1.171-1.156-1.775-1.642
	c-0.603-0.486-1.18-0.896-1.612-1.182c-0.432-0.286-0.719-0.45-0.743-0.444c-0.024,0.006-0.09,0.302-0.16,0.78
	c-0.07,0.479-0.144,1.141-0.184,1.878c-0.04,0.737-0.047,1.549,0.016,2.329S48.258,21.54,48.5,22.148z"/>
<path id="path8525" inkscape:connector-curvature="0" style="fill:#003366;" d="M61.544,24.906c-0.162-0.703-0.553-1.455-1.05-2.188
	s-1.101-1.447-1.689-2.074c-0.588-0.627-1.161-1.166-1.597-1.55s-0.734-0.612-0.773-0.615c-0.024,0.006-0.139,0.323-0.287,0.839
	s-0.329,1.233-0.485,2.038c-0.155,0.805-0.286,1.698-0.333,2.569c-0.047,0.87-0.011,1.717,0.166,2.429
	c0.162,0.703,0.393,1.313,0.673,1.827s0.611,0.93,0.974,1.246c0.363,0.315,0.759,0.529,1.169,0.636
	c0.41,0.107,0.835,0.108,1.256-0.002c0.421-0.11,0.796-0.311,1.111-0.596c0.315-0.284,0.57-0.651,0.752-1.092
	c0.182-0.441,0.292-0.956,0.315-1.537C61.769,26.255,61.706,25.609,61.544,24.906L61.544,24.906L61.544,24.906L61.544,24.906
	L61.544,24.906z"/>
<path id="path8527" inkscape:connector-curvature="0" style="fill:#003366;" d="M63.826,22.848
	c-0.024,0.006-0.139,0.323-0.287,0.839s-0.329,1.233-0.485,2.038c-0.155,0.805-0.286,1.698-0.333,2.568
	c-0.047,0.87-0.012,1.717,0.166,2.429c0.162,0.703,0.395,1.31,0.678,1.819c0.283,0.509,0.618,0.92,0.983,1.231
	c0.365,0.311,0.762,0.523,1.17,0.633c0.408,0.11,0.828,0.118,1.24,0.023c0.412-0.095,0.782-0.289,1.095-0.57
	c0.313-0.281,0.57-0.65,0.754-1.095s0.297-0.965,0.323-1.551s-0.035-1.235-0.197-1.938c-0.177-0.712-0.579-1.471-1.084-2.209
	s-1.112-1.455-1.701-2.082c-0.588-0.627-1.157-1.164-1.585-1.543C64.137,23.063,63.85,22.842,63.826,22.848z"/>
<path id="path8529" inkscape:connector-curvature="0" style="fill:#003366;" d="M45.771,22.932c0.196-0.313,0.304-0.661,0.323-1.026
	c0.019-0.365-0.05-0.748-0.208-1.133c-0.159-0.384-0.408-0.771-0.748-1.142s-0.77-0.729-1.292-1.055
	c-0.522-0.326-1.193-0.58-1.908-0.775c-0.714-0.195-1.472-0.331-2.167-0.423c-0.694-0.092-1.326-0.139-1.788-0.156
	c-0.463-0.017-0.756-0.003-0.775,0.027s0.079,0.33,0.269,0.783c0.19,0.453,0.472,1.06,0.821,1.703
	c0.35,0.644,0.767,1.325,1.227,1.926c0.46,0.601,0.964,1.123,1.486,1.45c0.537,0.336,1.054,0.57,1.54,0.714
	c0.486,0.144,0.94,0.197,1.351,0.169c0.411-0.028,0.78-0.137,1.095-0.318C45.314,23.497,45.575,23.245,45.771,22.932z"/>
<path id="path8531" inkscape:connector-curvature="0" style="fill:#003366;" d="M66.803,36.406L66.803,36.406L66.803,36.406
	L66.803,36.406L66.803,36.406l3.16,2.079l3.16,2.079l3.16,2.079l3.16,2.079c0.03,0.019,0.079,0.023,0.14,0.013
	c0.061-0.01,0.133-0.035,0.21-0.075c0.077-0.04,0.158-0.095,0.236-0.167c0.078-0.072,0.154-0.159,0.219-0.264
	c0.056-0.09,0.098-0.182,0.129-0.273c0.031-0.091,0.05-0.18,0.06-0.262c0.01-0.082,0.01-0.157,0.003-0.22s-0.022-0.113-0.043-0.147
	l-1.535-0.897l-1.535-0.897l-1.535-0.897l-1.535-0.897l-1.728-1.018l-1.728-1.018l-1.728-1.018l-1.728-1.018
	c-0.015-0.009-0.037-0.007-0.063,0.003c-0.026,0.011-0.057,0.03-0.089,0.057c-0.032,0.027-0.066,0.06-0.099,0.098
	c-0.033,0.038-0.064,0.08-0.092,0.125c-0.052,0.05-0.092,0.098-0.123,0.142c-0.03,0.045-0.051,0.086-0.065,0.124
	c-0.013,0.038-0.02,0.073-0.021,0.104S66.797,36.382,66.803,36.406L66.803,36.406L66.803,36.406L66.803,36.406L66.803,36.406z"/>
<path id="path8535" inkscape:connector-curvature="0" style="fill:#003366;" d="M64.174,78.794c0,0.28-0.053,0.545-0.151,0.784
	c-0.097,0.24-0.238,0.455-0.413,0.634c-0.175,0.18-0.384,0.325-0.617,0.425c-0.233,0.1-0.491,0.155-0.763,0.155
	s-0.53-0.055-0.763-0.155c-0.233-0.1-0.442-0.245-0.617-0.425c-0.175-0.18-0.316-0.395-0.413-0.634
	c-0.097-0.24-0.151-0.505-0.151-0.784v-1.499v-1.499v-1.499v-1.499h0.972h0.972h0.972h0.972v1.499v1.499v1.499V78.794z"/>
<path id="path8537" inkscape:connector-curvature="0" style="fill:#003366;" d="M18.251,54.694l1.536-1.848l1.536-1.848l1.536-1.848
	l1.536-1.848c-0.418-0.12-0.809-0.305-1.161-0.543c-0.352-0.239-0.664-0.531-0.924-0.866c-0.26-0.335-0.468-0.712-0.611-1.12
	c-0.143-0.408-0.221-0.848-0.221-1.308v-0.33v-0.33v-0.33v-0.33c0-0.18,0.036-0.352,0.102-0.51c0.066-0.157,0.16-0.3,0.277-0.42
	s0.255-0.217,0.408-0.285c0.153-0.067,0.321-0.105,0.496-0.105c0.175,0,0.345,0.035,0.502,0.099c0.157,0.064,0.3,0.156,0.422,0.271
	c0.122,0.115,0.221,0.252,0.29,0.406c0.069,0.154,0.108,0.323,0.108,0.503v0.34v0.34v0.34v0.34c0,0.18,0.036,0.352,0.102,0.51
	c0.066,0.157,0.16,0.3,0.277,0.42c0.117,0.12,0.255,0.217,0.408,0.285s0.321,0.105,0.496,0.105h0.972h0.972h0.972h0.972
	c0.175,0,0.343-0.037,0.496-0.105s0.292-0.165,0.408-0.285s0.211-0.262,0.277-0.42c0.066-0.157,0.102-0.33,0.102-0.51v-0.33v-0.33
	v-0.33v-0.33c0-0.18,0.036-0.352,0.102-0.51c0.066-0.157,0.16-0.3,0.277-0.42c0.117-0.12,0.255-0.217,0.408-0.285
	c0.153-0.067,0.321-0.105,0.496-0.105s0.343,0.037,0.496,0.105c0.153,0.067,0.292,0.165,0.408,0.285
	c0.117,0.12,0.211,0.262,0.277,0.42c0.066,0.157,0.102,0.33,0.102,0.51v0.33v0.33v0.33v0.33c0,0.25-0.024,0.495-0.07,0.733
	c-0.046,0.238-0.112,0.469-0.198,0.691c-0.085,0.222-0.188,0.436-0.307,0.639s-0.252,0.395-0.398,0.575h1.38h1.38h1.38h1.38h7.592
	h7.592h7.592h7.592c0.36,0,0.7,0.075,1.008,0.21c0.308,0.135,0.584,0.33,0.815,0.57c0.231,0.24,0.417,0.525,0.545,0.839
	c0.128,0.315,0.199,0.659,0.199,1.019c0.535,0,1.045,0.112,1.51,0.315c0.465,0.203,0.884,0.497,1.236,0.859
	c0.353,0.362,0.638,0.793,0.836,1.271c0.198,0.478,0.307,1.002,0.307,1.552v3.657v3.657v3.657v3.657c0,0.18-0.036,0.352-0.102,0.51
	c-0.066,0.157-0.16,0.3-0.277,0.42c-0.117,0.12-0.255,0.217-0.408,0.285c-0.153,0.067-0.321,0.105-0.496,0.105
	c-0.175,0-0.343-0.037-0.496-0.105c-0.153-0.067-0.292-0.165-0.408-0.285c-0.117-0.12-0.211-0.262-0.277-0.42
	c-0.066-0.157-0.102-0.33-0.102-0.51v-3.637v-3.637v-3.637v-3.637c0-0.18-0.036-0.352-0.102-0.51c-0.066-0.157-0.16-0.3-0.277-0.42
	c-0.117-0.12-0.255-0.217-0.408-0.285s-0.321-0.105-0.496-0.105v4.316v4.316v4.316v4.316v2.488v2.488v2.488v2.488
	c0,0.28-0.053,0.545-0.151,0.784c-0.097,0.24-0.238,0.455-0.413,0.634c-0.175,0.18-0.384,0.325-0.617,0.425
	c-0.233,0.1-0.491,0.155-0.763,0.155s-0.53-0.055-0.763-0.155c-0.233-0.1-0.442-0.245-0.617-0.425
	c-0.175-0.18-0.316-0.395-0.413-0.634c-0.097-0.24-0.151-0.505-0.151-0.784v-1.818v-1.818v-1.818V71.44h-1.614h-1.614H61.9h-1.614
	c-0.36,0-0.7-0.075-1.008-0.21c-0.308-0.135-0.584-0.33-0.815-0.57c-0.231-0.24-0.417-0.525-0.545-0.839s-0.199-0.659-0.199-1.019
	h-3.227h-3.227h-3.227H44.81v2.488v2.488v2.488v2.488c0,0.28-0.053,0.545-0.151,0.784c-0.097,0.24-0.238,0.455-0.413,0.634
	c-0.175,0.18-0.384,0.325-0.617,0.425c-0.233,0.1-0.491,0.155-0.763,0.155s-0.53-0.055-0.763-0.155
	c-0.233-0.1-0.442-0.245-0.617-0.425c-0.175-0.18-0.316-0.395-0.413-0.634c-0.097-0.24-0.151-0.505-0.151-0.784v-2.488v-2.488V71.29
	v-2.488H40.28h-0.642h-0.642h-0.642v2.488v2.488v2.488v2.488c0,0.28-0.053,0.545-0.151,0.784c-0.097,0.24-0.238,0.455-0.413,0.634
	c-0.175,0.18-0.384,0.325-0.617,0.425c-0.233,0.1-0.491,0.155-0.763,0.155s-0.53-0.055-0.763-0.155
	c-0.233-0.1-0.442-0.245-0.617-0.425s-0.316-0.395-0.413-0.634c-0.097-0.24-0.151-0.505-0.151-0.784v-2.528v-2.528V71.17v-2.528
	c-0.554-0.15-1.074-0.39-1.543-0.704c-0.468-0.314-0.885-0.703-1.233-1.15c-0.347-0.447-0.626-0.953-0.817-1.502
	c-0.191-0.549-0.296-1.141-0.296-1.76c0-0.599-0.117-1.274-0.333-1.948c-0.216-0.674-0.532-1.349-0.931-1.948
	c-0.399-0.599-0.88-1.124-1.427-1.499s-1.159-0.599-1.82-0.599c-0.437,0-0.887,0.055-1.332,0.147s-0.886,0.22-1.307,0.368
	c-0.421,0.147-0.82,0.314-1.183,0.48c-0.363,0.167-0.688,0.334-0.961,0.484c-0.146,0.08-0.299,0.127-0.453,0.144
	c-0.154,0.017-0.308,0.003-0.456-0.039c-0.148-0.043-0.29-0.114-0.42-0.212c-0.129-0.098-0.246-0.223-0.343-0.373l-0.34-0.53
	l-0.34-0.53l-0.34-0.53l-0.34-0.53c-0.107-0.15-0.182-0.305-0.23-0.46c-0.047-0.155-0.067-0.31-0.062-0.46
	c0.005-0.15,0.034-0.295,0.084-0.43C18.093,54.929,18.164,54.804,18.251,54.694z"/>
</svg>
