<?xml version="1.0" encoding="iso-8859-1"?>
<!-- Generator: Adobe Illustrator 25.4.1, SVG Export Plug-In . SVG Version: 6.00 Build 0)  -->
<svg version="1.1" id="svg8"
  xmlns:svg="http://www.w3.org/2000/svg"
  xmlns="http://www.w3.org/2000/svg"
  xmlns:xlink="http://www.w3.org/1999/xlink" x="0px" y="0px" viewBox="0 0 100 100" style="enable-background:new 0 0 100 100;" xml:space="preserve">
  <path id="path8118" style="fill:#003366;" d="M48.77,25.015c-0.019-0.302-0.112-0.584-0.274-0.833
	s-0.391-0.468-0.68-0.644c-0.289-0.176-0.639-0.309-1.042-0.388s-0.859-0.105-1.36-0.066s-1.064,0.201-1.625,0.422
	s-1.12,0.502-1.615,0.779c-0.494,0.277-0.924,0.55-1.227,0.756c-0.303,0.206-0.478,0.346-0.463,0.355
	c0.006,0.024,0.215,0.171,0.557,0.374c0.342,0.203,0.817,0.464,1.354,0.717c0.537,0.253,1.136,0.497,1.726,0.669
	c0.59,0.172,1.171,0.27,1.673,0.231c0.502-0.039,0.945-0.135,1.327-0.275c0.382-0.14,0.702-0.324,0.955-0.539
	c0.253-0.215,0.441-0.461,0.558-0.725C48.751,25.584,48.798,25.302,48.77,25.015z"/>
  <path id="path8120" style="fill:#003366;" d="M50.843,26.476c-0.543,0.138-1.13,0.414-1.705,0.752
	c-0.575,0.338-1.139,0.738-1.634,1.123c-0.495,0.386-0.921,0.757-1.223,1.038c-0.301,0.281-0.478,0.471-0.472,0.496
	c0.006,0.024,0.258,0.151,0.668,0.319s0.976,0.377,1.61,0.565c0.634,0.189,1.335,0.357,2.013,0.444
	c0.678,0.087,1.334,0.092,1.876-0.046c0.543-0.138,1.011-0.323,1.403-0.543s0.71-0.475,0.952-0.755
	c0.242-0.279,0.409-0.582,0.498-0.898s0.103-0.644,0.04-0.974c-0.088-0.324-0.248-0.616-0.472-0.863
	c-0.224-0.247-0.513-0.448-0.859-0.591c-0.346-0.144-0.749-0.229-1.201-0.245S51.385,26.338,50.843,26.476z"/>
  <path id="path8122" style="fill:#003366;" d="M51.269,33.628c0.006,0.024,0.258,0.151,0.668,0.319
	s0.977,0.377,1.611,0.566c0.634,0.189,1.335,0.357,2.013,0.444c0.678,0.087,1.334,0.092,1.877-0.046
	c0.543-0.138,1.011-0.323,1.403-0.543s0.71-0.475,0.952-0.754c0.242-0.279,0.408-0.583,0.498-0.899
	c0.09-0.316,0.103-0.645,0.04-0.975c-0.073-0.315-0.221-0.6-0.438-0.841c-0.216-0.241-0.5-0.439-0.842-0.581
	c-0.342-0.141-0.743-0.226-1.194-0.24c-0.451-0.015-0.952,0.04-1.494,0.178c-0.557,0.129-1.156,0.398-1.74,0.73
	c-0.584,0.333-1.153,0.729-1.652,1.112s-0.927,0.753-1.229,1.034C51.439,33.413,51.263,33.604,51.269,33.628L51.269,33.628
	L51.269,33.628L51.269,33.628L51.269,33.628z"/>
  <path id="path8124" style="fill:#003366;" d="M47.151,20.436c0.185,0.468,0.407,0.866,0.655,1.194
	c0.248,0.327,0.521,0.583,0.805,0.767c0.285,0.183,0.582,0.293,0.877,0.329s0.59-0.004,0.869-0.119
	c0.28-0.116,0.52-0.292,0.711-0.522s0.333-0.511,0.417-0.837c0.085-0.326,0.111-0.696,0.07-1.101
	c-0.041-0.405-0.149-0.846-0.334-1.314c-0.185-0.468-0.532-0.949-0.951-1.408s-0.909-0.894-1.378-1.271s-0.92-0.694-1.258-0.916
	s-0.565-0.348-0.59-0.343c-0.034,0.021-0.09,0.26-0.144,0.637s-0.106,0.892-0.131,1.462c-0.025,0.571-0.022,1.197,0.033,1.798
	C46.859,19.392,46.966,19.968,47.151,20.436z"/>
  <path id="path8126" style="fill:#003366;" d="M57.189,22.56c-0.138-0.543-0.448-1.125-0.837-1.694
	c-0.389-0.568-0.857-1.123-1.31-1.608c-0.454-0.486-0.893-0.903-1.225-1.197c-0.332-0.294-0.557-0.466-0.581-0.46
	c-0.024,0.006-0.115,0.25-0.228,0.647s-0.25,0.947-0.366,1.565c-0.116,0.617-0.212,1.301-0.244,1.967
	c-0.032,0.666-0.001,1.312,0.137,1.855c0.138,0.543,0.323,1.011,0.543,1.403c0.22,0.393,0.475,0.71,0.754,0.952
	c0.279,0.242,0.583,0.408,0.899,0.498s0.645,0.103,0.975,0.04c0.315-0.073,0.6-0.221,0.841-0.438c0.241-0.216,0.439-0.5,0.581-0.842
	c0.141-0.342,0.226-0.743,0.24-1.194C57.382,23.604,57.327,23.103,57.189,22.56L57.189,22.56L57.189,22.56L57.189,22.56
	L57.189,22.56z"/>
  <path id="path8128" style="fill:#003366;" d="M58.919,20.986c-0.024,0.006-0.115,0.25-0.229,0.648
	c-0.114,0.398-0.251,0.95-0.37,1.571s-0.218,1.311-0.255,1.985c-0.037,0.674-0.013,1.332,0.116,1.89
	c0.138,0.543,0.323,1.011,0.543,1.403c0.22,0.393,0.475,0.71,0.754,0.952c0.279,0.242,0.583,0.408,0.898,0.498
	c0.316,0.09,0.645,0.103,0.975,0.04c0.315-0.073,0.6-0.221,0.841-0.438c0.241-0.216,0.439-0.5,0.581-0.842
	c0.141-0.342,0.226-0.743,0.241-1.194c0.015-0.451-0.04-0.952-0.179-1.494c-0.104-0.563-0.389-1.161-0.761-1.741
	c-0.372-0.58-0.83-1.141-1.281-1.63c-0.451-0.489-0.895-0.907-1.239-1.199C59.211,21.142,58.968,20.975,58.919,20.986z"/>
  <path id="path8130" style="fill:#003366;" d="M45.04,21.025c0.149-0.239,0.232-0.503,0.246-0.782
	s-0.039-0.571-0.161-0.865c-0.122-0.294-0.313-0.59-0.575-0.875c-0.261-0.285-0.592-0.559-0.995-0.811
	c-0.403-0.252-0.92-0.445-1.469-0.593c-0.55-0.148-1.132-0.249-1.665-0.318c-0.533-0.069-1.016-0.104-1.369-0.118
	c-0.353-0.014-0.575-0.008-0.584,0.007c-0.019,0.03,0.055,0.268,0.203,0.623c0.147,0.355,0.368,0.827,0.643,1.325
	c0.275,0.498,0.603,1.023,0.966,1.482c0.363,0.459,0.76,0.852,1.172,1.089c0.403,0.252,0.791,0.427,1.156,0.533
	c0.365,0.106,0.707,0.144,1.018,0.12s0.589-0.109,0.828-0.248C44.693,21.456,44.891,21.264,45.04,21.025z"/>
  <path id="path8132" style="fill:#003366;" d="M61.24,31.479L61.24,31.479L61.24,31.479
	L61.24,31.479L61.24,31.479l2.439,1.607l2.439,1.607l2.439,1.607l2.439,1.607c0.03,0.019,0.069,0.022,0.114,0.013
	c0.045-0.01,0.096-0.033,0.148-0.067c0.053-0.034,0.107-0.08,0.161-0.137c0.053-0.056,0.105-0.122,0.152-0.197
	c0.047-0.075,0.083-0.15,0.111-0.223c0.027-0.073,0.045-0.142,0.053-0.205c0.008-0.062,0.006-0.118-0.005-0.162
	c-0.011-0.044-0.032-0.078-0.061-0.097l-1.182-0.697l-1.182-0.697l-1.182-0.697l-1.182-0.697l-1.341-0.775l-1.341-0.775
	l-1.341-0.775l-1.341-0.775c-0.015-0.009-0.034-0.011-0.056-0.005c-0.022,0.006-0.046,0.019-0.07,0.041
	c-0.024,0.021-0.047,0.051-0.068,0.088s-0.039,0.083-0.052,0.137c-0.009,0.015-0.017,0.036-0.024,0.06s-0.014,0.051-0.02,0.078
	c-0.007,0.027-0.013,0.054-0.02,0.078C61.257,31.443,61.249,31.464,61.24,31.479L61.24,31.479L61.24,31.479L61.24,31.479
	L61.24,31.479z"/>
  <path id="path8136" style="fill:#003366;" d="M59.226,64.243c0,0.22-0.041,0.427-0.117,0.614
		c-0.075,0.187-0.185,0.355-0.321,0.495c-0.136,0.14-0.299,0.252-0.481,0.33c-0.182,0.077-0.384,0.12-0.598,0.12
		c-0.214,0-0.416-0.042-0.598-0.12c-0.182-0.077-0.345-0.19-0.481-0.33c-0.136-0.14-0.245-0.307-0.321-0.495
		c-0.075-0.187-0.117-0.395-0.117-0.614v-1.159v-1.159v-1.159v-1.159h0.749h0.749h0.749h0.749v1.159v1.159v1.159v1.159h0.01h0.01
		c0,0,0.005,0,0.01,0S59.226,64.243,59.226,64.243z"/>
  <path id="path8138" style="fill:#003366;" d="M23.763,45.579l1.186-1.419l1.186-1.419
		l1.186-1.419l1.186-1.419c-0.321-0.09-0.622-0.232-0.894-0.418c-0.272-0.185-0.513-0.414-0.715-0.676
		c-0.202-0.262-0.363-0.558-0.474-0.878c-0.111-0.32-0.172-0.665-0.172-1.025v-0.26v-0.26v-0.26v-0.26
		c0-0.14,0.029-0.275,0.081-0.398c0.052-0.124,0.128-0.236,0.22-0.331c0.092-0.095,0.202-0.172,0.322-0.226
		c0.12-0.054,0.252-0.084,0.388-0.084c0.136,0,0.267,0.03,0.388,0.084c0.12,0.054,0.23,0.131,0.322,0.226
		c0.092,0.095,0.168,0.207,0.22,0.331s0.081,0.259,0.081,0.398v0.26v0.26v0.26v0.26c0,0.14,0.029,0.275,0.081,0.398
		s0.128,0.236,0.22,0.331c0.092,0.095,0.202,0.172,0.322,0.226c0.12,0.054,0.252,0.084,0.388,0.084h0.749h0.749h0.749h0.749
		c0.136,0,0.267-0.03,0.388-0.084c0.12-0.054,0.23-0.131,0.322-0.226c0.092-0.095,0.168-0.207,0.22-0.331
		c0.052-0.124,0.081-0.259,0.081-0.398v-0.26v-0.26v-0.26v-0.26c0-0.14,0.029-0.275,0.081-0.398c0.052-0.124,0.128-0.236,0.22-0.331
		c0.092-0.095,0.202-0.172,0.322-0.226c0.12-0.054,0.252-0.084,0.388-0.084s0.267,0.03,0.388,0.084
		c0.12,0.054,0.23,0.131,0.322,0.226c0.092,0.095,0.168,0.207,0.22,0.331c0.052,0.124,0.081,0.259,0.081,0.398v0.26v0.26v0.26v0.26
		c0,0.19-0.019,0.377-0.055,0.56c-0.036,0.183-0.088,0.361-0.154,0.534c-0.066,0.172-0.144,0.339-0.234,0.497
		c-0.089,0.158-0.189,0.308-0.296,0.448h1.04h1.04h1.04h1.04h5.872h5.872h5.872h5.872c0.272,0,0.532,0.057,0.769,0.161
		c0.237,0.104,0.451,0.254,0.631,0.438c0.18,0.185,0.326,0.405,0.427,0.648c0.101,0.244,0.157,0.511,0.157,0.791
		c0.408,0,0.8,0.087,1.157,0.245s0.68,0.385,0.953,0.664s0.493,0.612,0.646,0.979c0.153,0.367,0.238,0.769,0.238,1.189v2.828v2.828
		v2.828v2.828c0,0.14-0.029,0.275-0.081,0.398c-0.052,0.124-0.128,0.236-0.22,0.331c-0.092,0.095-0.202,0.172-0.322,0.226
		s-0.252,0.084-0.388,0.084c-0.136,0-0.267-0.03-0.388-0.084c-0.12-0.054-0.23-0.131-0.322-0.226
		c-0.092-0.095-0.168-0.207-0.22-0.331c-0.052-0.124-0.081-0.259-0.081-0.398v-2.808v-2.808v-2.808V44.14
		c0-0.14-0.029-0.275-0.081-0.398c-0.052-0.124-0.128-0.236-0.22-0.331c-0.092-0.095-0.202-0.172-0.322-0.226
		c-0.12-0.054-0.252-0.084-0.388-0.084v3.337v3.337v3.337v3.337v1.928v1.928v1.928v1.928c0,0.22-0.041,0.427-0.117,0.614
		c-0.075,0.187-0.185,0.355-0.321,0.495c-0.136,0.14-0.299,0.252-0.481,0.33c-0.182,0.077-0.384,0.12-0.598,0.12
		c-0.214,0-0.416-0.042-0.598-0.12s-0.345-0.19-0.481-0.33c-0.136-0.14-0.245-0.307-0.321-0.495
		c-0.075-0.187-0.117-0.395-0.117-0.614v-1.409v-1.409v-1.409v-1.409h-1.254h-1.254h-1.254h-1.254c-0.272,0-0.532-0.057-0.769-0.161
		c-0.237-0.104-0.451-0.254-0.631-0.438c-0.18-0.185-0.326-0.405-0.427-0.648s-0.157-0.511-0.157-0.791h-2.498h-2.498h-2.498h-2.498
		v1.918v1.918v1.918v1.918c0,0.22-0.041,0.427-0.117,0.614c-0.075,0.187-0.185,0.355-0.321,0.495
		c-0.136,0.14-0.299,0.252-0.481,0.33c-0.182,0.077-0.384,0.12-0.598,0.12c-0.214,0-0.416-0.042-0.598-0.12s-0.345-0.19-0.481-0.33
		c-0.136-0.14-0.245-0.307-0.321-0.495c-0.075-0.187-0.117-0.395-0.117-0.614v-1.928v-1.928v-1.928V56.45H40.61h-0.496h-0.496
		h-0.496v1.928v1.928v1.928v1.928c0,0.22-0.041,0.427-0.117,0.614c-0.075,0.187-0.185,0.355-0.321,0.495
		c-0.136,0.14-0.299,0.252-0.481,0.33c-0.182,0.077-0.384,0.12-0.598,0.12s-0.416-0.042-0.598-0.12
		c-0.182-0.077-0.345-0.19-0.481-0.33c-0.136-0.14-0.245-0.307-0.321-0.495c-0.075-0.187-0.117-0.395-0.117-0.614v-1.948v-1.948
		v-1.948V56.37c-0.428-0.12-0.829-0.307-1.19-0.551c-0.361-0.244-0.682-0.543-0.949-0.888c-0.267-0.345-0.481-0.734-0.628-1.158
		c-0.147-0.423-0.227-0.881-0.227-1.36c0.039-0.46-0.022-0.979-0.167-1.5c-0.145-0.521-0.375-1.043-0.674-1.507
		c-0.299-0.465-0.667-0.872-1.089-1.163c-0.422-0.291-0.899-0.466-1.414-0.466c-0.34,0-0.688,0.042-1.031,0.113
		c-0.343,0.071-0.682,0.169-1.005,0.282c-0.323,0.112-0.631,0.238-0.911,0.364c-0.28,0.125-0.533,0.25-0.747,0.36
		c-0.117,0.06-0.238,0.097-0.359,0.112c-0.121,0.015-0.241,0.007-0.355-0.022c-0.114-0.03-0.223-0.082-0.319-0.157
		c-0.097-0.075-0.182-0.172-0.25-0.292l-0.262-0.41l-0.262-0.41l-0.262-0.41l-0.262-0.41c-0.078-0.11-0.134-0.225-0.169-0.341
		c-0.035-0.116-0.05-0.234-0.045-0.348c0.005-0.115,0.029-0.227,0.072-0.333C23.625,45.768,23.686,45.669,23.763,45.579z"/>
  <path id="path8910" style="fill:#003366;" d="M32.003,80.442h-0.369h-0.369h-0.369h-0.369l-0.151-0.469l-0.151-0.469l-0.151-0.469
	l-0.151-0.469h-0.671h-0.671h-0.671h-0.671l-0.143,0.469l-0.143,0.469l-0.143,0.469l-0.143,0.469h-0.36h-0.36h-0.36h-0.36
	l0.654-2.054l0.654-2.054l0.654-2.054l0.654-2.054h0.36h0.36h0.36h0.36l0.679,2.054l0.679,2.054l0.679,2.054L32.003,80.442z
	 M29.522,77.189l-0.235-0.763l-0.235-0.763l-0.235-0.763l-0.235-0.763l-0.226,0.763l-0.226,0.763l-0.226,0.763l-0.226,0.763h0.461
	H28.6h0.461H29.522z"/>
  <path id="path8912" style="fill:#003366;" d="M32.07,80.811l0.369,0.059l0.369,0.059l0.369,0.059l0.369,0.059
	c0.008,0.05,0.019,0.098,0.031,0.144c0.013,0.046,0.027,0.088,0.044,0.128c0.017,0.04,0.036,0.077,0.057,0.11
	c0.021,0.033,0.044,0.062,0.069,0.087c0.025,0.025,0.057,0.046,0.093,0.063c0.037,0.017,0.079,0.031,0.125,0.041
	c0.046,0.01,0.096,0.018,0.15,0.022c0.053,0.005,0.11,0.007,0.169,0.007c0.067,0,0.132-0.002,0.195-0.007
	c0.063-0.005,0.124-0.012,0.182-0.022c0.059-0.01,0.115-0.024,0.17-0.041s0.107-0.038,0.157-0.063
	c0.034-0.017,0.065-0.036,0.094-0.057c0.029-0.021,0.057-0.046,0.082-0.073c0.025-0.027,0.048-0.058,0.069-0.092
	c0.021-0.034,0.04-0.072,0.057-0.114c0.017-0.042,0.031-0.09,0.044-0.145c0.013-0.055,0.023-0.117,0.031-0.186
	c0.008-0.069,0.015-0.146,0.019-0.23s0.006-0.177,0.006-0.277v-0.218v-0.218v-0.218v-0.218c-0.05,0.084-0.101,0.161-0.152,0.233
	c-0.051,0.072-0.104,0.138-0.158,0.199c-0.054,0.061-0.111,0.116-0.171,0.167c-0.06,0.051-0.123,0.097-0.19,0.139
	s-0.132,0.078-0.196,0.107s-0.128,0.054-0.193,0.073c-0.065,0.019-0.131,0.033-0.2,0.042s-0.14,0.013-0.215,0.013
	c-0.134,0-0.264-0.015-0.389-0.045c-0.125-0.03-0.246-0.075-0.361-0.136c-0.115-0.061-0.225-0.137-0.33-0.23
	c-0.104-0.093-0.203-0.202-0.295-0.328c-0.109-0.143-0.203-0.295-0.283-0.46s-0.146-0.341-0.199-0.529
	c-0.052-0.189-0.091-0.39-0.117-0.605c-0.026-0.215-0.038-0.443-0.038-0.686c0-0.251,0.013-0.488,0.038-0.71s0.063-0.43,0.113-0.622
	c0.05-0.193,0.113-0.371,0.189-0.534c0.075-0.163,0.163-0.312,0.264-0.446s0.207-0.249,0.32-0.347
	c0.113-0.097,0.231-0.177,0.355-0.24c0.124-0.063,0.252-0.109,0.386-0.139s0.272-0.045,0.414-0.045c0.075,0,0.149,0.004,0.221,0.013
	c0.072,0.009,0.142,0.022,0.211,0.041c0.069,0.019,0.137,0.043,0.205,0.073c0.068,0.03,0.135,0.066,0.202,0.107
	c0.059,0.042,0.117,0.088,0.176,0.139c0.058,0.051,0.116,0.106,0.173,0.167c0.057,0.061,0.112,0.127,0.166,0.199
	s0.106,0.149,0.157,0.233v-0.21v-0.21v-0.21v-0.21h0.302h0.302h0.302h0.302v1.333v1.333v1.333v1.333
	c0,0.218-0.004,0.419-0.013,0.605c-0.009,0.185-0.022,0.355-0.041,0.51c-0.019,0.155-0.043,0.295-0.073,0.422
	c-0.03,0.127-0.066,0.24-0.107,0.341c-0.042,0.092-0.088,0.18-0.139,0.264c-0.051,0.083-0.106,0.162-0.167,0.235
	c-0.061,0.073-0.127,0.142-0.199,0.204c-0.072,0.062-0.149,0.119-0.233,0.169c-0.084,0.05-0.174,0.094-0.271,0.132
	c-0.097,0.038-0.201,0.069-0.312,0.094c-0.111,0.025-0.229,0.044-0.356,0.057s-0.26,0.019-0.403,0.019
	c-0.134,0-0.262-0.004-0.383-0.013c-0.121-0.008-0.235-0.021-0.342-0.038c-0.107-0.017-0.206-0.038-0.298-0.063
	c-0.092-0.025-0.176-0.054-0.251-0.088c-0.084-0.034-0.161-0.073-0.233-0.118s-0.138-0.095-0.198-0.15s-0.116-0.113-0.167-0.175
	c-0.051-0.062-0.097-0.127-0.139-0.194c-0.042-0.067-0.08-0.138-0.113-0.213c-0.033-0.075-0.061-0.153-0.084-0.235
	c-0.023-0.082-0.041-0.166-0.053-0.254c-0.012-0.087-0.018-0.178-0.018-0.27l-0.008-0.059l-0.008-0.059l-0.008-0.059L32.07,80.811
	L32.07,80.811L32.07,80.811L32.07,80.811L32.07,80.811z M33.244,77.323c0,0.159,0.006,0.308,0.019,0.446s0.031,0.265,0.057,0.38
	c0.025,0.115,0.057,0.219,0.094,0.311s0.082,0.171,0.132,0.238c0.05,0.075,0.103,0.14,0.158,0.195
	c0.055,0.055,0.113,0.1,0.174,0.136c0.061,0.036,0.125,0.062,0.192,0.079c0.068,0.017,0.139,0.026,0.214,0.026
	s0.149-0.008,0.22-0.026c0.071-0.017,0.14-0.043,0.207-0.079c0.067-0.036,0.132-0.081,0.195-0.136
	c0.063-0.055,0.124-0.12,0.182-0.195c0.059-0.075,0.109-0.159,0.151-0.252c0.042-0.093,0.077-0.194,0.104-0.305
	c0.027-0.111,0.047-0.232,0.06-0.362s0.019-0.271,0.019-0.422c0-0.159-0.006-0.306-0.019-0.441c-0.013-0.135-0.033-0.259-0.06-0.372
	c-0.027-0.113-0.062-0.216-0.104-0.309c-0.042-0.093-0.093-0.177-0.151-0.253c-0.05-0.075-0.105-0.14-0.163-0.195
	c-0.058-0.055-0.12-0.1-0.185-0.136c-0.065-0.036-0.133-0.062-0.204-0.079s-0.144-0.026-0.22-0.026c-0.075,0-0.149,0.008-0.22,0.026
	c-0.071,0.017-0.139,0.043-0.204,0.079c-0.065,0.036-0.127,0.081-0.185,0.136c-0.058,0.055-0.113,0.12-0.163,0.195
	c-0.05,0.075-0.094,0.159-0.132,0.252c-0.038,0.093-0.069,0.194-0.094,0.306c-0.025,0.111-0.044,0.232-0.057,0.362
	C33.25,77.032,33.244,77.172,33.244,77.323z"/>
  <path id="path8914" style="fill:#003366;" d="M38.709,80.442h-0.327h-0.327h-0.327h-0.327V78.95v-1.492v-1.492v-1.492h0.302h0.302
	h0.302h0.302v0.21v0.21v0.21v0.21c0.05-0.101,0.101-0.193,0.15-0.276c0.049-0.083,0.097-0.158,0.144-0.223
	c0.046-0.065,0.09-0.12,0.131-0.166c0.041-0.046,0.079-0.081,0.112-0.106c0.042-0.034,0.086-0.063,0.131-0.088
	c0.046-0.025,0.093-0.046,0.141-0.063c0.048-0.017,0.097-0.029,0.147-0.038c0.05-0.008,0.1-0.013,0.15-0.013
	c0.075,0,0.149,0.006,0.221,0.019s0.142,0.031,0.211,0.057c0.069,0.025,0.137,0.057,0.205,0.094
	c0.068,0.038,0.135,0.082,0.202,0.132l-0.101,0.344l-0.101,0.344l-0.101,0.344l-0.101,0.344c-0.05-0.042-0.101-0.08-0.151-0.113
	c-0.05-0.033-0.101-0.061-0.151-0.084c-0.05-0.023-0.101-0.041-0.151-0.053c-0.05-0.012-0.101-0.018-0.151-0.018
	c-0.042,0-0.084,0.004-0.125,0.013c-0.041,0.008-0.082,0.021-0.122,0.038c-0.04,0.017-0.079,0.038-0.116,0.063
	s-0.073,0.054-0.106,0.088s-0.065,0.073-0.094,0.119s-0.057,0.098-0.082,0.157c-0.025,0.059-0.048,0.124-0.069,0.195
	c-0.021,0.071-0.04,0.149-0.057,0.233c-0.017,0.084-0.031,0.187-0.044,0.308c-0.013,0.122-0.023,0.262-0.031,0.421
	c-0.008,0.159-0.015,0.337-0.019,0.534c-0.004,0.197-0.006,0.413-0.006,0.647c0.008,0.008,0.015,0.13,0.019,0.308
	c0.005,0.178,0.008,0.411,0.01,0.644c0.002,0.233,0.003,0.464,0.004,0.637S38.709,80.442,38.709,80.442z"/>
  <path id="path8916" style="fill:#003366;" d="M40.587,73.668V73.3v-0.369v-0.369v-0.369h0.327h0.327h0.327h0.327v0.369v0.369V73.3
	v0.369h-0.327h-0.327h-0.327H40.587z M40.587,80.442V78.95v-1.492v-1.492v-1.492h0.327h0.327h0.327h0.327v1.492v1.492v1.492v1.492
	h-0.327h-0.327h-0.327H40.587z"/>
  <path id="path8918" style="fill:#003366;" d="M46.958,76.25l-0.319,0.067l-0.319,0.067l-0.319,0.067l-0.319,0.067
	c-0.025-0.159-0.063-0.298-0.113-0.415c-0.05-0.118-0.112-0.215-0.185-0.293c-0.073-0.078-0.158-0.135-0.254-0.174
	c-0.096-0.038-0.203-0.057-0.32-0.057c-0.075,0-0.149,0.008-0.22,0.025c-0.071,0.017-0.139,0.042-0.204,0.075
	c-0.065,0.034-0.127,0.075-0.185,0.126c-0.058,0.05-0.113,0.109-0.163,0.176c-0.05,0.067-0.094,0.147-0.132,0.238
	c-0.038,0.092-0.069,0.195-0.094,0.311c-0.025,0.115-0.044,0.242-0.057,0.38c-0.013,0.138-0.019,0.287-0.019,0.446
	c0,0.176,0.006,0.34,0.019,0.49c0.013,0.151,0.031,0.289,0.057,0.415c0.025,0.126,0.057,0.239,0.094,0.34
	c0.038,0.101,0.082,0.189,0.132,0.264s0.105,0.14,0.163,0.195s0.12,0.1,0.185,0.136c0.065,0.036,0.133,0.062,0.204,0.079
	c0.071,0.017,0.144,0.026,0.22,0.026c0.059,0,0.115-0.004,0.17-0.013c0.054-0.009,0.107-0.023,0.157-0.042
	c0.05-0.019,0.098-0.043,0.145-0.073c0.046-0.03,0.09-0.066,0.132-0.108c0.042-0.042,0.08-0.092,0.114-0.15s0.065-0.124,0.092-0.197
	c0.027-0.073,0.051-0.154,0.073-0.242c0.021-0.088,0.04-0.182,0.057-0.282l0.319,0.067l0.319,0.067l0.319,0.067l0.319,0.067
	c-0.067,0.36-0.163,0.675-0.29,0.944c-0.126,0.269-0.282,0.492-0.469,0.67c-0.186,0.178-0.403,0.311-0.651,0.4
	s-0.527,0.133-0.837,0.133c-0.201,0-0.388-0.019-0.561-0.057c-0.173-0.038-0.332-0.094-0.479-0.17
	c-0.147-0.075-0.281-0.17-0.403-0.283c-0.123-0.113-0.234-0.245-0.334-0.396c-0.092-0.151-0.174-0.31-0.245-0.477
	c-0.071-0.167-0.13-0.342-0.179-0.524c-0.048-0.182-0.085-0.372-0.11-0.568c-0.025-0.196-0.037-0.4-0.037-0.609
	c0-0.251,0.013-0.49,0.038-0.715c0.026-0.225,0.065-0.435,0.117-0.63c0.052-0.195,0.118-0.374,0.198-0.536
	c0.08-0.162,0.174-0.306,0.283-0.432c0.109-0.134,0.226-0.251,0.352-0.352c0.126-0.101,0.26-0.184,0.402-0.251
	c0.143-0.067,0.293-0.117,0.453-0.151c0.159-0.034,0.327-0.05,0.503-0.05c0.143,0,0.279,0.01,0.409,0.031
	c0.13,0.02,0.254,0.051,0.371,0.09c0.117,0.04,0.228,0.089,0.333,0.147c0.105,0.058,0.203,0.125,0.295,0.201
	c0.092,0.059,0.178,0.132,0.257,0.22c0.079,0.088,0.151,0.189,0.216,0.305c0.065,0.115,0.122,0.244,0.172,0.386
	S46.925,76.083,46.958,76.25L46.958,76.25L46.958,76.25L46.958,76.25L46.958,76.25z"/>
  <path id="path8920" style="fill:#003366;" d="M50.647,80.442v-0.226v-0.226v-0.226v-0.226c-0.042,0.084-0.088,0.161-0.138,0.234
	c-0.05,0.072-0.105,0.139-0.163,0.202c-0.059,0.063-0.122,0.122-0.189,0.177c-0.067,0.056-0.138,0.108-0.214,0.158
	c-0.075,0.042-0.151,0.08-0.226,0.113c-0.075,0.033-0.151,0.061-0.226,0.084c-0.075,0.023-0.151,0.041-0.226,0.053
	c-0.075,0.012-0.151,0.018-0.226,0.018c-0.084,0-0.163-0.006-0.24-0.018s-0.15-0.03-0.221-0.053
	c-0.071-0.023-0.14-0.051-0.209-0.084c-0.068-0.033-0.135-0.071-0.202-0.113c-0.067-0.042-0.128-0.088-0.183-0.138
	c-0.056-0.05-0.106-0.105-0.152-0.163c-0.046-0.059-0.088-0.122-0.127-0.189c-0.039-0.067-0.074-0.138-0.108-0.214
	s-0.063-0.161-0.088-0.257c-0.025-0.095-0.046-0.2-0.063-0.313c-0.017-0.113-0.029-0.235-0.038-0.364
	c-0.008-0.129-0.013-0.265-0.013-0.408v-0.939v-0.939v-0.939v-0.939h0.327h0.327h0.327h0.327v0.687v0.687v0.687v0.687
	c0,0.193,0.002,0.369,0.006,0.528s0.009,0.302,0.015,0.428c0.006,0.126,0.014,0.235,0.022,0.327s0.016,0.168,0.024,0.226
	c0.008,0.05,0.021,0.098,0.037,0.145s0.036,0.09,0.059,0.132s0.049,0.082,0.078,0.119c0.029,0.038,0.06,0.073,0.094,0.107
	c0.034,0.034,0.069,0.061,0.107,0.083s0.078,0.039,0.119,0.051c0.042,0.013,0.086,0.021,0.132,0.026s0.094,0.007,0.145,0.007
	s0.101-0.004,0.151-0.013s0.101-0.023,0.151-0.042c0.05-0.019,0.101-0.043,0.151-0.073c0.05-0.03,0.101-0.066,0.151-0.108
	c0.042-0.042,0.082-0.084,0.119-0.127c0.037-0.043,0.072-0.087,0.103-0.133c0.031-0.046,0.06-0.094,0.084-0.146
	c0.025-0.051,0.046-0.106,0.062-0.165c0.017-0.059,0.031-0.136,0.044-0.232c0.013-0.096,0.023-0.21,0.031-0.342
	c0.008-0.132,0.015-0.282,0.019-0.449c0.004-0.167,0.006-0.352,0.006-0.553v-0.629v-0.629v-0.629V74.54h0.319h0.319h0.319h0.319
	v1.492v1.492v1.492v1.492h-0.31h-0.31h-0.31h-0.31v-0.017v-0.017v-0.017L50.647,80.442L50.647,80.442L50.647,80.442z"/>
  <path id="path8922" style="fill:#003366;" d="M52.692,80.442v-2.054v-2.054V74.28v-2.054h0.327h0.327h0.327H54v2.054v2.054v2.054
	v2.054h-0.327h-0.327h-0.327H52.692z"/>
  <path id="path8924" style="fill:#003366;" d="M57.051,74.473v0.31v0.31v0.31v0.31h-0.218h-0.218h-0.218h-0.218v0.604v0.604v0.604
	v0.604c0,0.134,0,0.251,0.001,0.354s0.002,0.189,0.004,0.263c0.002,0.073,0.005,0.133,0.01,0.181
	c0.005,0.048,0.011,0.083,0.019,0.108c0.017,0.034,0.036,0.065,0.057,0.093c0.021,0.028,0.046,0.053,0.073,0.074
	c0.027,0.021,0.058,0.038,0.092,0.049s0.072,0.018,0.114,0.018c0.034,0,0.069-0.004,0.107-0.012
	c0.038-0.008,0.078-0.019,0.119-0.034c0.042-0.015,0.086-0.033,0.132-0.053c0.046-0.02,0.094-0.044,0.145-0.069l0.025,0.302
	l0.025,0.302l0.025,0.302l0.025,0.302c-0.075,0.042-0.153,0.078-0.233,0.107c-0.08,0.03-0.161,0.054-0.245,0.073
	c-0.084,0.019-0.17,0.033-0.258,0.042c-0.088,0.009-0.178,0.013-0.27,0.013c-0.084,0-0.163-0.004-0.239-0.013
	c-0.075-0.009-0.147-0.023-0.214-0.042c-0.067-0.019-0.13-0.043-0.189-0.073c-0.059-0.03-0.113-0.066-0.163-0.108
	c-0.05-0.042-0.096-0.086-0.138-0.133c-0.042-0.047-0.08-0.097-0.113-0.152s-0.063-0.113-0.088-0.177
	c-0.025-0.064-0.046-0.133-0.063-0.209c-0.017-0.05-0.029-0.117-0.039-0.2c-0.009-0.082-0.016-0.18-0.02-0.291
	c-0.004-0.111-0.006-0.236-0.007-0.373c-0.001-0.137-0.001-0.286-0.001-0.445v-0.645v-0.645v-0.645v-0.645h-0.151H54.57h-0.151
	h-0.151v-0.31v-0.31v-0.31v-0.31h0.151h0.151h0.151h0.151v-0.293V73.92v-0.293v-0.293l0.327-0.226l0.327-0.226l0.327-0.226
	l0.327-0.226v0.528v0.528v0.528v0.528l0.218-0.017l0.218-0.017l0.218-0.017L57.051,74.473L57.051,74.473L57.051,74.473
	L57.051,74.473L57.051,74.473z"/>
  <path id="path8926" style="fill:#003366;" d="M60.639,80.442v-0.226v-0.226v-0.226v-0.226c-0.042,0.084-0.088,0.161-0.138,0.234
	c-0.05,0.072-0.105,0.139-0.163,0.202c-0.059,0.063-0.122,0.122-0.189,0.177c-0.067,0.056-0.138,0.108-0.214,0.158
	c-0.075,0.042-0.151,0.08-0.226,0.113c-0.075,0.033-0.151,0.061-0.226,0.084c-0.075,0.023-0.151,0.041-0.226,0.053
	c-0.075,0.012-0.151,0.018-0.226,0.018c-0.084,0-0.163-0.006-0.24-0.018c-0.076-0.012-0.15-0.03-0.221-0.053
	c-0.071-0.023-0.14-0.051-0.209-0.084c-0.068-0.033-0.135-0.071-0.202-0.113c-0.067-0.042-0.128-0.088-0.183-0.138
	c-0.056-0.05-0.106-0.105-0.152-0.163c-0.046-0.059-0.088-0.122-0.127-0.189c-0.039-0.067-0.074-0.138-0.108-0.214
	s-0.063-0.161-0.088-0.257c-0.025-0.095-0.046-0.2-0.063-0.313s-0.029-0.235-0.038-0.364c-0.008-0.129-0.013-0.265-0.013-0.408
	v-0.939v-0.939v-0.939v-0.939h0.327h0.327h0.327h0.327v0.687v0.687v0.687v0.687c0,0.193,0.002,0.369,0.006,0.528
	s0.009,0.302,0.015,0.428c0.006,0.126,0.014,0.235,0.021,0.327c0.008,0.092,0.016,0.168,0.025,0.226
	c0.008,0.05,0.021,0.098,0.037,0.145s0.036,0.09,0.059,0.132c0.023,0.042,0.049,0.082,0.078,0.119
	c0.029,0.038,0.061,0.073,0.094,0.107c0.034,0.034,0.069,0.061,0.107,0.083c0.038,0.022,0.078,0.039,0.119,0.051
	c0.042,0.013,0.086,0.021,0.132,0.026c0.046,0.005,0.094,0.007,0.145,0.007s0.101-0.004,0.151-0.013s0.101-0.023,0.151-0.042
	c0.05-0.019,0.101-0.043,0.151-0.073c0.05-0.03,0.101-0.066,0.151-0.108c0.042-0.042,0.082-0.084,0.119-0.127
	c0.037-0.043,0.072-0.087,0.103-0.133s0.06-0.094,0.084-0.146s0.046-0.106,0.062-0.165s0.032-0.136,0.044-0.232
	c0.013-0.096,0.023-0.21,0.031-0.342c0.008-0.132,0.015-0.282,0.019-0.449c0.004-0.167,0.006-0.352,0.006-0.553v-0.629v-0.629
	v-0.629V74.54h0.319h0.319h0.319h0.319v1.492v1.492v1.492v1.492h-0.31h-0.31h-0.31h-0.31v-0.017v-0.017v-0.017L60.639,80.442
	L60.639,80.442L60.639,80.442z"/>
  <path id="path8928" style="fill:#003366;" d="M63.925,80.442h-0.327h-0.327h-0.327h-0.327V78.95v-1.492v-1.492v-1.492h0.302h0.302
	h0.302h0.302v0.21v0.21v0.21v0.21c0.05-0.101,0.101-0.193,0.15-0.276c0.049-0.083,0.097-0.158,0.144-0.223
	c0.046-0.065,0.09-0.12,0.131-0.166c0.041-0.046,0.079-0.081,0.112-0.107c0.042-0.034,0.086-0.063,0.131-0.088
	c0.046-0.025,0.093-0.046,0.141-0.063c0.048-0.017,0.097-0.029,0.147-0.038c0.05-0.008,0.1-0.013,0.15-0.013
	c0.075,0,0.149,0.006,0.221,0.019c0.072,0.013,0.142,0.031,0.211,0.057c0.069,0.025,0.137,0.057,0.205,0.094
	c0.068,0.038,0.135,0.082,0.202,0.132l-0.101,0.344l-0.101,0.344l-0.101,0.344l-0.101,0.344c-0.05-0.042-0.101-0.08-0.151-0.113
	c-0.05-0.033-0.101-0.061-0.151-0.084c-0.05-0.023-0.101-0.041-0.151-0.053c-0.05-0.012-0.101-0.018-0.151-0.018
	c-0.042,0-0.084,0.004-0.125,0.013c-0.041,0.008-0.082,0.021-0.122,0.038c-0.04,0.017-0.079,0.038-0.116,0.063
	c-0.037,0.025-0.073,0.054-0.106,0.088s-0.065,0.073-0.094,0.119s-0.057,0.098-0.082,0.157c-0.025,0.059-0.048,0.124-0.069,0.195
	c-0.021,0.071-0.04,0.149-0.057,0.233c-0.017,0.084-0.031,0.187-0.044,0.308s-0.023,0.262-0.031,0.421s-0.015,0.337-0.019,0.534
	c-0.004,0.197-0.006,0.413-0.006,0.648v0.469v0.469v0.469v0.469H63.9h0.008h0.008L63.925,80.442L63.925,80.442L63.925,80.442z"/>
  <path id="path8930" style="fill:#003366;" d="M68.653,78.53l0.319,0.067l0.319,0.067l0.319,0.067l0.319,0.067
	c-0.042,0.151-0.09,0.291-0.145,0.422c-0.054,0.13-0.115,0.251-0.182,0.362c-0.067,0.111-0.14,0.213-0.22,0.305
	c-0.08,0.093-0.166,0.177-0.258,0.252c-0.092,0.075-0.189,0.14-0.289,0.195c-0.101,0.055-0.205,0.1-0.314,0.136
	c-0.109,0.036-0.222,0.062-0.34,0.079s-0.239,0.026-0.365,0.026c-0.184,0-0.356-0.015-0.517-0.045
	c-0.16-0.03-0.309-0.075-0.447-0.136c-0.138-0.061-0.266-0.137-0.385-0.23c-0.118-0.093-0.227-0.202-0.328-0.328
	c-0.117-0.143-0.22-0.298-0.308-0.466s-0.161-0.349-0.22-0.544c-0.059-0.195-0.103-0.404-0.132-0.626
	c-0.029-0.223-0.044-0.46-0.044-0.711c0-0.251,0.015-0.488,0.044-0.711c0.029-0.223,0.073-0.433,0.132-0.63
	c0.059-0.197,0.132-0.381,0.22-0.554s0.191-0.334,0.308-0.485c0.101-0.126,0.207-0.237,0.321-0.333
	c0.114-0.096,0.234-0.177,0.362-0.241c0.128-0.065,0.263-0.114,0.406-0.147s0.294-0.05,0.453-0.05c0.176,0,0.342,0.017,0.497,0.05
	c0.156,0.033,0.301,0.082,0.438,0.147c0.136,0.065,0.263,0.146,0.381,0.242s0.227,0.207,0.327,0.333
	c0.117,0.151,0.218,0.319,0.303,0.503c0.085,0.184,0.154,0.386,0.209,0.604c0.054,0.218,0.094,0.453,0.121,0.704
	c0.026,0.251,0.039,0.52,0.039,0.805v0.042v0.042v0.042v0.042h-0.813h-0.813h-0.813h-0.813c0,0.117,0.006,0.228,0.019,0.333
	c0.013,0.105,0.031,0.203,0.057,0.295c0.025,0.092,0.057,0.178,0.094,0.258c0.038,0.08,0.082,0.153,0.132,0.22
	c0.05,0.067,0.103,0.126,0.158,0.176c0.055,0.05,0.113,0.092,0.174,0.126c0.061,0.034,0.125,0.059,0.192,0.075
	c0.068,0.017,0.139,0.025,0.214,0.025c0.117,0,0.222-0.019,0.315-0.056c0.093-0.037,0.175-0.093,0.246-0.166
	c0.071-0.073,0.132-0.164,0.184-0.273C68.577,78.799,68.619,78.673,68.653,78.53L68.653,78.53L68.653,78.53L68.653,78.53
	L68.653,78.53z M68.72,76.954c0-0.117-0.006-0.226-0.019-0.327s-0.031-0.194-0.057-0.28c-0.025-0.086-0.057-0.165-0.094-0.236
	c-0.038-0.072-0.082-0.137-0.132-0.195c-0.05-0.059-0.101-0.111-0.152-0.157c-0.051-0.046-0.104-0.084-0.158-0.116
	c-0.054-0.031-0.111-0.055-0.171-0.072c-0.06-0.016-0.123-0.025-0.19-0.025c-0.067,0-0.132,0.008-0.195,0.025
	c-0.063,0.016-0.124,0.04-0.182,0.072s-0.115,0.07-0.17,0.116c-0.054,0.046-0.107,0.098-0.157,0.157
	c-0.05,0.059-0.092,0.126-0.127,0.2c-0.035,0.074-0.062,0.156-0.083,0.244c-0.021,0.088-0.036,0.182-0.045,0.282
	s-0.014,0.204-0.014,0.313h0.486h0.486c0,0,0.243,0,0.486,0C68.477,76.954,68.72,76.954,68.72,76.954z"/>
</svg>
