<?xml version="1.0" encoding="iso-8859-1"?>
<!-- Generator: Adobe Illustrator 25.4.1, SVG Export Plug-In . SVG Version: 6.00 Build 0)  -->
<svg version="1.1"
	 id="svg8" xmlns:cc="http://creativecommons.org/ns#" xmlns:dc="http://purl.org/dc/elements/1.1/" xmlns:inkscape="http://www.inkscape.org/namespaces/inkscape" xmlns:rdf="http://www.w3.org/1999/02/22-rdf-syntax-ns#" xmlns:sodipodi="http://sodipodi.sourceforge.net/DTD/sodipodi-0.dtd" xmlns:svg="http://www.w3.org/2000/svg"
	 xmlns="http://www.w3.org/2000/svg" xmlns:xlink="http://www.w3.org/1999/xlink" x="0px" y="0px" viewBox="0 0 100 100"
	 style="enable-background:new 0 0 100 100;" xml:space="preserve">
<sodipodi:namedview  bordercolor="#666666" borderopacity="1.0" id="base" inkscape:current-layer="layer3" inkscape:cx="-302.11164" inkscape:cy="84.283015" inkscape:document-units="px" inkscape:guide-bbox="true" inkscape:lockguides="true" inkscape:pageopacity="0.0" inkscape:pageshadow="2" inkscape:window-height="657" inkscape:window-maximized="1" inkscape:window-width="1280" inkscape:window-x="-8" inkscape:window-y="-8" inkscape:zoom="0.765625" pagecolor="#ffffff" showgrid="false" showguides="false" units="px">
	<sodipodi:guide  id="guide5700" inkscape:locked="true" orientation="0,1" position="-0.93017576,23.874511"></sodipodi:guide>
	<sodipodi:guide  id="guide5726" inkscape:locked="true" orientation="0,1" position="-26.098869,26.473047"></sodipodi:guide>
	<sodipodi:guide  id="guide5880" inkscape:locked="true" orientation="0,1" position="104.51042,-2.9104167"></sodipodi:guide>
	<sodipodi:guide  id="guide6001" inkscape:locked="true" orientation="0,1" position="-71.093695,29.279377"></sodipodi:guide>
	<sodipodi:guide  id="guide6005" inkscape:locked="true" orientation="0,1" position="-46.304445,58.278122"></sodipodi:guide>
	<sodipodi:guide  id="guide6736" inkscape:locked="true" orientation="0,1" position="-0.10335287,20.205485"></sodipodi:guide>
	<sodipodi:guide  id="guide6738" inkscape:locked="true" orientation="0,1" position="-0.43848907,22.874513"></sodipodi:guide>
	<inkscape:grid  id="grid2386" type="xygrid"></inkscape:grid>
</sodipodi:namedview>
<g id="g1180" transform="translate(0,-229.2666)" inkscape:groupmode="layer" inkscape:label="halo:always" style="display:none;">
	<g id="g1210" inkscape:groupmode="layer" inkscape:label="-gray-halo:iter3" style="display:inline;">
		<g id="circle1208">
			<path style="fill:#919395;" d="M50,329.3c-27.6,0-50-22.4-50-50s22.4-50,50-50s50,22.4,50,50S77.6,329.3,50,329.3z M50,237.9
				c-22.8,0-41.4,18.6-41.4,41.4s18.6,41.4,41.4,41.4s41.4-18.6,41.4-41.4S72.8,237.9,50,237.9z"/>
		</g>
	</g>
	<g id="g1206" inkscape:groupmode="layer" inkscape:label="-red-halo:iter3" style="display:inline;">
		<g id="circle1204">
			<path style="fill:#C52038;" d="M50,329.3c-27.6,0-50-22.4-50-50s22.4-50,50-50s50,22.4,50,50S77.6,329.3,50,329.3z M50,237.9
				c-22.8,0-41.4,18.6-41.4,41.4s18.6,41.4,41.4,41.4s41.4-18.6,41.4-41.4S72.8,237.9,50,237.9z"/>
		</g>
	</g>
	<g id="g1202" inkscape:groupmode="layer" inkscape:label="-green-halo:iter3" style="display:inline;">
		<g id="circle1200">
			<path style="fill:#5E9C42;" d="M50,329.3c-27.6,0-50-22.4-50-50s22.4-50,50-50s50,22.4,50,50S77.6,329.3,50,329.3z M50,237.9
				c-22.8,0-41.4,18.6-41.4,41.4s18.6,41.4,41.4,41.4s41.4-18.6,41.4-41.4S72.8,237.9,50,237.9z"/>
		</g>
	</g>
	<g id="layer18" inkscape:groupmode="layer" inkscape:label="-yellow-halo:iter3" style="display:inline;">
		<g id="circle1178-4">
			<path style="fill:#FBBA16;" d="M50,329.3c-27.6,0-50-22.4-50-50s22.4-50,50-50s50,22.4,50,50S77.6,329.3,50,329.3z M50,237.9
				c-22.8,0-41.4,18.6-41.4,41.4s18.6,41.4,41.4,41.4s41.4-18.6,41.4-41.4S72.8,237.9,50,237.9z"/>
		</g>
	</g>
</g>
<path id="path6134" inkscape:connector-curvature="0" inkscape:export-filename="C:\Users\Charlotte Abel\Documents\Symbology\Components\For Distribution\food-water-shelter_water-gray.png" inkscape:export-xdpi="300.00458" inkscape:export-ydpi="300.00458" style="fill:#003366;" d="
	M40.4,23.3c-0.3,0-0.594,0.062-0.866,0.177c-0.272,0.114-0.522,0.28-0.734,0.486c-0.213,0.207-0.388,0.453-0.509,0.73
	C38.169,24.969,38.1,25.275,38.1,25.6c0,0.3,0.062,0.594,0.176,0.866c0.114,0.272,0.279,0.522,0.486,0.734
	c0.206,0.212,0.453,0.388,0.73,0.509c0.277,0.122,0.583,0.191,0.908,0.191h1.175h1.175h1.175H45.1v1.275v1.275v1.275V33h-1.4h-1.4
	h-1.4h-1.4h-0.45H38.6h-0.45H37.7h-1.075H35.55h-1.075H33.4v-1.625V29.75v-1.625V26.5c0-0.225-0.044-0.438-0.124-0.63
	c-0.08-0.192-0.195-0.364-0.34-0.508c-0.143-0.143-0.315-0.259-0.507-0.339c-0.192-0.08-0.405-0.123-0.63-0.123h-1.2h-1.2h-1.2H27
	c-0.225,0-0.438,0.044-0.63,0.123c-0.192,0.08-0.364,0.195-0.508,0.339c-0.143,0.144-0.259,0.316-0.339,0.508
	c-0.08,0.192-0.123,0.405-0.123,0.63v5.575v5.575v5.575V48.8c0,0.225,0.044,0.438,0.123,0.63c0.08,0.192,0.195,0.364,0.339,0.508
	c0.144,0.144,0.316,0.259,0.508,0.339c0.192,0.08,0.405,0.123,0.63,0.123h1.2h1.2h1.2h1.2c0.225,0,0.438-0.044,0.63-0.124
	s0.364-0.195,0.508-0.34c0.143-0.143,0.259-0.315,0.339-0.507c0.08-0.192,0.123-0.405,0.123-0.63v-1.625V45.55v-1.625V42.3h1.075
	h1.075h1.075H37.7h0.45h0.45h0.45h0.45h3.725h3.725h3.725H54.4h0.975h0.975h0.975H58.3h0.025h0.025h0.025H58.4
	c0.625,0,1.219,0.125,1.758,0.352c0.539,0.226,1.024,0.555,1.43,0.96c0.406,0.406,0.734,0.89,0.961,1.43
	c0.226,0.539,0.351,1.133,0.351,1.758v0.625v0.625v0.625V49.3h-0.3h-0.3H62h-0.3c-0.15,0-0.3,0.031-0.441,0.089
	c-0.141,0.058-0.272,0.142-0.384,0.249c-0.112,0.106-0.206,0.234-0.272,0.379C60.537,50.163,60.5,50.325,60.5,50.5v0.875v0.875
	v0.875V54c0,0.15,0.031,0.3,0.089,0.441c0.058,0.141,0.142,0.272,0.249,0.384c0.106,0.112,0.234,0.206,0.379,0.272
	c0.145,0.066,0.308,0.103,0.483,0.103h2.9h2.9h2.9h2.9c0.15,0,0.3-0.031,0.441-0.089c0.141-0.058,0.272-0.142,0.384-0.249
	c0.113-0.106,0.206-0.234,0.272-0.379C74.463,54.338,74.5,54.175,74.5,54v-0.875V52.25v-0.875V50.5c0-0.15-0.031-0.3-0.089-0.441
	s-0.142-0.272-0.249-0.384c-0.106-0.112-0.234-0.206-0.379-0.272C73.637,49.338,73.475,49.3,73.3,49.3H73h-0.3h-0.3h-0.3v-0.625
	V48.05v-0.625V46.8c0-1.9-0.381-3.712-1.072-5.362c-0.691-1.65-1.691-3.138-2.928-4.388s-2.713-2.263-4.353-2.962
	C62.106,33.388,60.3,33,58.4,33h-0.025H58.35h-0.025H58.3h-0.975H56.35h-0.975H54.4h-0.875H52.65h-0.875H50.9v-1.325V30.35v-1.325
	V27.7h1.175h1.175h1.175H55.6c0.3,0,0.594-0.062,0.866-0.177c0.272-0.114,0.522-0.28,0.734-0.486
	c0.213-0.206,0.388-0.453,0.509-0.729c0.122-0.276,0.191-0.583,0.191-0.908c0-0.3-0.062-0.594-0.176-0.866
	c-0.114-0.272-0.279-0.522-0.486-0.734c-0.206-0.212-0.453-0.387-0.73-0.509C56.231,23.169,55.925,23.1,55.6,23.1h-3.8H48h-3.8h-3.8
	v0.05v0.05v0.05V23.3z"/>
<path id="path11876" inkscape:connector-curvature="0" inkscape:export-filename="C:\Users\Charlotte Abel\Documents\Symbology\Components\For Distribution\food-water-shelter_water-gray.png" inkscape:export-xdpi="300.00458" inkscape:export-ydpi="300.00458" style="fill:#003366;" d="
	M67.5,57.7c-0.975,1.425-1.856,2.719-2.63,3.911c-0.773,1.192-1.439,2.283-1.982,3.301c-0.544,1.019-0.966,1.966-1.252,2.871
	C61.35,68.688,61.2,69.55,61.2,70.4c0,0.875,0.175,1.706,0.492,2.461c0.317,0.755,0.776,1.433,1.345,2.002
	c0.569,0.569,1.247,1.028,2.002,1.345c0.755,0.317,1.586,0.492,2.461,0.492s1.706-0.175,2.461-0.492
	c0.755-0.317,1.433-0.777,2.002-1.346c0.568-0.568,1.028-1.246,1.345-2.001S73.8,71.275,73.8,70.4c0-0.85-0.156-1.712-0.45-2.617
	c-0.294-0.905-0.725-1.852-1.275-2.871c-0.55-1.019-1.219-2.109-1.988-3.301C69.319,60.419,68.45,59.125,67.5,57.7L67.5,57.7
	L67.5,57.7L67.5,57.7L67.5,57.7z"/>
<path id="path6120" inkscape:connector-curvature="0" inkscape:export-filename="C:\Users\Charlotte Abel\Documents\Symbology\Components\For Distribution\food-water-shelter_water-gray.png" inkscape:export-xdpi="300.00458" inkscape:export-ydpi="300.00458" style="fill:#FFFFFF;" d="
	M67.5,61.8c0.1,0.15,0.2,0.325,0.294,0.519c0.094,0.194,0.181,0.406,0.256,0.631c0.075,0.225,0.137,0.463,0.181,0.706
	C68.275,63.9,68.3,64.15,68.3,64.4c0,0.775-0.2,1.388-0.5,1.841c-0.3,0.453-0.7,0.747-1.1,0.884c-0.4,0.138-0.8,0.119-1.1-0.053
	s-0.5-0.497-0.5-0.972c0-0.325,0.1-0.688,0.262-1.066c0.163-0.378,0.388-0.772,0.638-1.159c0.25-0.388,0.525-0.769,0.787-1.122
	C67.05,62.4,67.3,62.075,67.5,61.8z"/>
</svg>
