<?xml version="1.0" encoding="iso-8859-1"?>
<!-- Generator: Adobe Illustrator 25.4.1, SVG Export Plug-In . SVG Version: 6.00 Build 0)  -->
<svg version="1.1"
	 id="svg8" xmlns:cc="http://creativecommons.org/ns#" xmlns:dc="http://purl.org/dc/elements/1.1/" xmlns:inkscape="http://www.inkscape.org/namespaces/inkscape" xmlns:rdf="http://www.w3.org/1999/02/22-rdf-syntax-ns#" xmlns:sodipodi="http://sodipodi.sourceforge.net/DTD/sodipodi-0.dtd" xmlns:svg="http://www.w3.org/2000/svg"
	 xmlns="http://www.w3.org/2000/svg" xmlns:xlink="http://www.w3.org/1999/xlink" x="0px" y="0px" viewBox="0 0 100 100"
	 style="enable-background:new 0 0 100 100;" xml:space="preserve">
<sodipodi:namedview  bordercolor="#666666" borderopacity="1.0" id="base" inkscape:current-layer="layer3" inkscape:cx="-215.61719" inkscape:cy="148.61928" inkscape:document-units="px" inkscape:guide-bbox="true" inkscape:lockguides="false" inkscape:pageopacity="0.0" inkscape:pageshadow="2" inkscape:window-height="657" inkscape:window-maximized="1" inkscape:window-width="1280" inkscape:window-x="-8" inkscape:window-y="-8" inkscape:zoom="1" pagecolor="#ffffff" showgrid="false" showguides="true" units="px">
	<sodipodi:guide  id="guide5700" inkscape:locked="false" orientation="0,1" position="-0.93017576,23.874511"></sodipodi:guide>
	<sodipodi:guide  id="guide5726" inkscape:locked="false" orientation="0,1" position="-26.098869,26.473047"></sodipodi:guide>
	<sodipodi:guide  id="guide5880" inkscape:locked="false" orientation="0,1" position="104.51042,-2.9104167"></sodipodi:guide>
	<sodipodi:guide  id="guide6001" inkscape:locked="false" orientation="0,1" position="-44.807735,29.092289"></sodipodi:guide>
	<sodipodi:guide  id="guide6005" inkscape:locked="false" orientation="0,1" position="-46.304445,58.278122"></sodipodi:guide>
	<sodipodi:guide  id="guide6736" inkscape:locked="false" orientation="0,1" position="-0.10335287,20.205485"></sodipodi:guide>
	<sodipodi:guide  id="guide6738" inkscape:locked="false" orientation="0,1" position="-0.43848907,22.874513"></sodipodi:guide>
	<inkscape:grid  id="grid2386" type="xygrid"></inkscape:grid>
</sodipodi:namedview>
<g id="g1180" transform="translate(0,-229.2666)" inkscape:groupmode="layer" inkscape:label="halo:always" style="display:none;">
	<g id="g1210" inkscape:groupmode="layer" inkscape:label="-gray-halo:iter3" style="display:inline;">
		<g id="circle1208">
			<path style="fill:#919395;" d="M50,329.3c-27.6,0-50-22.4-50-50s22.4-50,50-50s50,22.4,50,50S77.6,329.3,50,329.3z M50,237.9
				c-22.8,0-41.4,18.6-41.4,41.4s18.6,41.4,41.4,41.4s41.4-18.6,41.4-41.4S72.8,237.9,50,237.9z"/>
		</g>
	</g>
	<g id="g1206" inkscape:groupmode="layer" inkscape:label="-red-halo:iter3" style="display:inline;">
		<g id="circle1204">
			<path style="fill:#C52038;" d="M50,329.3c-27.6,0-50-22.4-50-50s22.4-50,50-50s50,22.4,50,50S77.6,329.3,50,329.3z M50,237.9
				c-22.8,0-41.4,18.6-41.4,41.4s18.6,41.4,41.4,41.4s41.4-18.6,41.4-41.4S72.8,237.9,50,237.9z"/>
		</g>
	</g>
	<g id="g1202" inkscape:groupmode="layer" inkscape:label="-green-halo:iter3" style="display:inline;">
		<g id="circle1200">
			<path style="fill:#5E9C42;" d="M50,329.3c-27.6,0-50-22.4-50-50s22.4-50,50-50s50,22.4,50,50S77.6,329.3,50,329.3z M50,237.9
				c-22.8,0-41.4,18.6-41.4,41.4s18.6,41.4,41.4,41.4s41.4-18.6,41.4-41.4S72.8,237.9,50,237.9z"/>
		</g>
	</g>
	<g id="layer18" inkscape:groupmode="layer" inkscape:label="-yellow-halo:iter3" style="display:inline;">
		<g id="circle1178-4">
			<path style="fill:#FBBA16;" d="M50,329.3c-27.6,0-50-22.4-50-50s22.4-50,50-50s50,22.4,50,50S77.6,329.3,50,329.3z M50,237.9
				c-22.8,0-41.4,18.6-41.4,41.4s18.6,41.4,41.4,41.4s41.4-18.6,41.4-41.4S72.8,237.9,50,237.9z"/>
		</g>
	</g>
</g>
<path id="path6532-9" inkscape:connector-curvature="0" inkscape:export-filename="C:\Users\Charlotte Abel\Documents\Symbology\Round-2\food-water-sheltering.png" inkscape:export-xdpi="96" inkscape:export-ydpi="96" style="fill:#003366;" d="
	M75.105,26.877l-13.343,3.759l-13.343,3.759l-13.343,3.759l-13.343,3.759v1.181v1.181v1.181v1.181l1.02-0.295l1.02-0.295l1.02-0.295
	l1.02-0.295v0.805v0.805v0.805v0.805v0.268v0.268v0.268v0.268v2.577v2.577v2.577v2.577v1.772v1.772v1.772v1.772v1.477V70.1v1.477
	v1.477h0.322h0.322h0.322h0.322h0.591h0.591h0.591h0.591l0,0l0,0l0,0l0,0h0.322h0.322h0.322h0.322h11.061h11.061h11.061h11.061
	v-0.268v-0.268v-0.268v-0.268v-0.537v-0.537v-0.537v-0.537v-0.268v-0.268v-0.268v-0.268H63.964H52.93H41.895H30.861v-0.832v-0.832
	v-0.832v-0.832v-2.389V60.65v-2.389v-2.389v-1.53v-1.53v-1.53v-1.53v-0.242v-0.242v-0.242v-0.242v-1.154v-1.154V45.32v-1.154
	l11.061-3.141l11.061-3.141l11.061-3.141l11.061-3.141v-0.188v-0.188v-0.188V30.85v-0.081v-0.081v-0.081v-0.081V30.34v-0.188v-0.188
	v-0.188v-0.268v-0.268v-0.268v-0.268v-0.188v-0.188v-0.188V27.95V27.87v-0.081v-0.081v-0.081c0,0,0-0.047,0-0.117s0-0.164,0-0.258
	c0-0.094,0-0.188,0-0.258C75.105,26.924,75.105,26.877,75.105,26.877z"/>
<path id="path6443-0" inkscape:connector-curvature="0" style="fill-rule:evenodd;clip-rule:evenodd;fill:#003366;" d="
	M60.153,53.748l-0.518-0.629l-0.518-0.629l-0.518-0.629l-0.518-0.629c-0.111-0.148-0.18-0.287-0.217-0.432
	c-0.037-0.146-0.042-0.298-0.023-0.474c0.018-0.176,0.06-0.375,0.116-0.613c0.055-0.238,0.125-0.516,0.199-0.849
	c0.055-0.24,0.088-0.486,0.094-0.729c0.006-0.244-0.015-0.487-0.066-0.722c-0.051-0.236-0.132-0.465-0.247-0.681
	c-0.115-0.216-0.262-0.42-0.447-0.605c-0.481-0.499-1.087-1.124-1.725-1.779c-0.638-0.655-1.309-1.342-1.919-1.966
	c-0.61-0.625-1.161-1.186-1.559-1.592c-0.398-0.406-0.643-0.656-0.643-0.656l-0.129,0.092l-0.129,0.092l-0.129,0.092l-0.129,0.092
	l1.017,1.295l1.017,1.295l1.017,1.295l1.017,1.295l-0.222,0.166l-0.222,0.166l-0.222,0.166l-0.222,0.166l-1.054-1.258l-1.054-1.258
	l-1.054-1.258l-1.054-1.258L49.96,41.41l-0.129,0.092l-0.129,0.092l-0.129,0.092l0.962,1.332l0.962,1.332l0.962,1.332l0.962,1.332
	l-0.222,0.166l-0.222,0.166l-0.222,0.166l-0.222,0.166l-1.054-1.221l-1.054-1.221l-1.054-1.221l-1.054-1.221l-0.129,0.092
	l-0.129,0.092l-0.129,0.092l-0.129,0.092l0.962,1.332l0.962,1.332l0.962,1.332l0.962,1.332l-0.222,0.166l-0.222,0.166l-0.222,0.166
	l-0.222,0.166l-1.017-1.295l-1.017-1.295l-1.017-1.295l-1.017-1.295l-0.111,0.092l-0.111,0.092l-0.111,0.092l-0.111,0.092
	c0,0,0.176,0.301,0.461,0.789c0.286,0.488,0.681,1.163,1.12,1.912s0.923,1.572,1.384,2.356c0.461,0.784,0.901,1.528,1.252,2.12
	c0.129,0.203,0.291,0.384,0.476,0.54c0.185,0.156,0.393,0.288,0.615,0.395c0.222,0.106,0.458,0.187,0.698,0.241
	s0.486,0.082,0.726,0.082c0.333,0,0.615-0.005,0.858-0.002s0.446,0.012,0.622,0.039s0.324,0.074,0.456,0.15
	c0.132,0.076,0.247,0.183,0.358,0.331l0.629,0.758l0.629,0.758l0.629,0.758l0.629,0.758c-0.666,0.814-1.309,1.6-1.917,2.343
	c-0.608,0.743-1.182,1.444-1.709,2.087c-0.527,0.643-1.008,1.228-1.431,1.74c-0.423,0.512-0.789,0.952-1.084,1.303
	c-0.166,0.259-0.24,0.555-0.237,0.853c0.004,0.298,0.085,0.599,0.228,0.867c0.143,0.268,0.349,0.504,0.602,0.673
	c0.253,0.169,0.554,0.271,0.887,0.271c0.111,0,0.227-0.009,0.342-0.031c0.116-0.022,0.231-0.057,0.342-0.108
	c0.111-0.051,0.217-0.118,0.314-0.204c0.097-0.087,0.185-0.193,0.259-0.323l2.294-2.756l2.294-2.756l2.294-2.756l2.294-2.756
	c0,0,0.065,0.051,0.179,0.14c0.114,0.089,0.278,0.216,0.477,0.368c0.199,0.153,0.433,0.331,0.686,0.522
	c0.253,0.191,0.526,0.394,0.804,0.598c0.869-1.424,1.734-2.932,2.542-4.432s1.56-2.991,2.202-4.383
	c0.643-1.392,1.177-2.685,1.55-3.786c0.374-1.102,0.586-2.013,0.586-2.642c0-0.037,0-0.12-0.013-0.224s-0.038-0.229-0.089-0.349
	c-0.051-0.12-0.127-0.236-0.242-0.321c-0.115-0.086-0.267-0.141-0.471-0.141c-0.074,0-0.143,0.009-0.209,0.027
	s-0.128,0.043-0.188,0.075c-0.06,0.032-0.118,0.071-0.175,0.116c-0.057,0.045-0.112,0.096-0.168,0.151
	c-0.129,0.203-0.564,0.758-1.221,1.57c-0.657,0.812-1.535,1.88-2.553,3.11c-1.017,1.23-2.174,2.622-3.385,4.081
	S61.392,52.25,60.153,53.748 M63.334,57.744l-0.536,0.647l-0.536,0.647l-0.536,0.647l-0.536,0.647l1.128,1.387l1.128,1.387
	l1.128,1.387l1.128,1.387c0.074,0.092,0.162,0.18,0.26,0.26c0.098,0.08,0.207,0.152,0.322,0.212c0.116,0.06,0.238,0.108,0.365,0.142
	c0.126,0.033,0.256,0.052,0.385,0.052c0.333,0,0.634-0.097,0.884-0.26s0.452-0.392,0.586-0.655c0.134-0.264,0.201-0.562,0.184-0.864
	c-0.017-0.302-0.119-0.607-0.323-0.885l-1.258-1.535l-1.258-1.535l-1.258-1.535L63.334,57.744z"/>
<path id="path973-3" inkscape:connector-curvature="0" style="fill:#003366;" d="M41.815,48.676
	c-0.913,1.342-1.738,2.557-2.463,3.675c-0.725,1.118-1.349,2.138-1.859,3.091c-0.51,0.953-0.906,1.839-1.175,2.688
	s-0.409,1.661-0.409,2.467c0,0.805,0.168,1.577,0.47,2.282s0.738,1.342,1.275,1.879c0.537,0.537,1.175,0.973,1.879,1.275
	c0.705,0.302,1.477,0.47,2.282,0.47s1.577-0.168,2.282-0.47c0.705-0.302,1.342-0.738,1.879-1.275
	c0.537-0.537,0.973-1.175,1.275-1.879s0.47-1.477,0.47-2.282c0-0.805-0.148-1.618-0.424-2.467c-0.277-0.849-0.683-1.735-1.199-2.688
	c-0.517-0.953-1.145-1.973-1.865-3.091C43.513,51.233,42.701,50.019,41.815,48.676z M41.707,52.435
	c0.081,0.134,0.168,0.295,0.253,0.477c0.086,0.181,0.169,0.383,0.243,0.597c0.074,0.215,0.138,0.443,0.183,0.678
	s0.072,0.477,0.072,0.718c0,0.725-0.188,1.295-0.47,1.716c-0.282,0.421-0.658,0.693-1.034,0.82
	c-0.376,0.128-0.752,0.111-1.034-0.045c-0.282-0.156-0.47-0.451-0.47-0.881c0-0.295,0.101-0.631,0.262-0.985
	c0.161-0.354,0.383-0.727,0.624-1.096c0.242-0.369,0.503-0.735,0.745-1.075C41.325,53.019,41.546,52.703,41.707,52.435z"/>
</svg>
