<?xml version="1.0" encoding="utf-8"?>
<!-- Generator: Adobe Illustrator 25.2.0, SVG Export Plug-In . SVG Version: 6.00 Build 0)  -->
<svg version="1.1" id="Layer_1" xmlns="http://www.w3.org/2000/svg" xmlns:xlink="http://www.w3.org/1999/xlink" x="0px" y="0px"
	 viewBox="0 0 100 100" style="enable-background:new 0 0 100 100;" xml:space="preserve">
<polygon points="30.1,33.1 18.8,33.1 18.8,35.8 21.5,35.8 20.5,75.6 28.3,75.6 27.4,35.8 30.1,35.8 "/>
<polygon points="81.2,33.1 69.9,33.1 69.9,35.8 72.6,35.8 71.7,75.6 79.5,75.6 78.5,35.8 81.2,35.8 "/>
<path d="M81.7,31.9H18.3c-0.5,0-0.9-0.4-1-0.8c-0.1-0.5,0.2-1,0.7-1.1l31.5-10.2c0.2-0.1,0.4-0.1,0.6,0L82,29.9
	c0.5,0.2,0.8,0.6,0.7,1.1C82.6,31.5,82.2,31.9,81.7,31.9z M24.7,29.9h50.6l-25.4-8.1L24.7,29.9z"/>
<rect x="13.1" y="76.8" width="73.8" height="3.5"/>
<path d="M63,58.6c0,2.4-1.1,4.7-3,6.2c-2.3,1.8-5.2,2.9-8.2,2.9v7.8h-3.7v-7.7c-1.9,0-3.7-0.2-5.6-0.6c-1.7-0.3-3.4-0.7-5-1.4v-6.3
	h1c1.4,0.8,2.9,1.3,4.5,1.7c1.7,0.4,3.4,0.7,5.1,0.8v-5.9l-2.1-0.5c-1.2-0.3-2.4-0.6-3.6-1c-1-0.4-2-0.9-2.9-1.6
	c-0.8-0.7-1.4-1.5-1.9-2.5c-0.5-1.1-0.7-2.3-0.6-3.6c0-2.2,1.1-4.2,2.9-5.4c2.4-1.7,5.2-2.7,8.1-2.8v-5h3.7v5
	c1.6,0.1,3.1,0.3,4.6,0.6c1.4,0.2,2.8,0.6,4.2,1.1v6.1h-0.9c-1.1-0.6-2.4-1.1-3.6-1.5c-1.4-0.4-2.9-0.6-4.3-0.7V50l1.7,0.3
	c2.6,0.4,5,1.3,7.2,2.9C62.2,54.5,63.1,56.5,63,58.6z M48.4,49.6v-5c-0.9,0.1-1.8,0.3-2.5,0.7c-0.7,0.3-1.1,1-1.1,1.7
	c0,0.6,0.2,1.2,0.7,1.6C46.4,49.1,47.4,49.4,48.4,49.6L48.4,49.6z M55.2,59.4c0-0.8-0.4-1.5-1.2-1.9c-0.7-0.4-1.5-0.7-2.3-0.8v5.3
	c0.9-0.1,1.7-0.4,2.4-0.8C54.8,60.9,55.2,60.2,55.2,59.4L55.2,59.4z"/>
</svg>
