<?xml version="1.0" encoding="iso-8859-1"?>
<!-- Generator: Adobe Illustrator 25.3.1, SVG Export Plug-In . SVG Version: 6.00 Build 0)  -->
<svg version="1.1" id="Layer_1" xmlns="http://www.w3.org/2000/svg" xmlns:xlink="http://www.w3.org/1999/xlink" x="0px" y="0px"
	 viewBox="0 0 100 100" style="enable-background:new 0 0 100 100;" xml:space="preserve">
<polygon points="80.9,21.8 85.45,30.75 90,39.7 80.95,39.7 71.9,39.7 76.4,30.75 "/>
<path style="fill:#FFFFFF;" d="M84.7,39.1h-0.75H83.2l-1.75-2l-1.75-2c-0.05-0.05-0.1-0.1-0.137-0.15
	c-0.037-0.05-0.062-0.1-0.062-0.15l0,0l0,0v2.15v2.15h-0.55H78.4v-4.3v-4.3h0.55h0.55v2.05v2.05l0,0l0,0
	c0.05-0.05,0.075-0.1,0.1-0.15c0.025-0.05,0.05-0.1,0.1-0.15l1.7-1.9l1.7-1.9h0.65h0.65l-1.95,2.05L80.5,34.6l2.1,2.25L84.7,39.1z"
	/>
<path d="M81.2,3.1c-2.35,0-4.6,0.525-6.7,1.475C72.4,5.525,70.45,6.9,68.7,8.6v1.45v1.45c1.65-2,3.575-3.6,5.688-4.7
	S78.8,5.1,81.2,5.1c2.25,0,4.425,0.55,6.438,1.55S91.5,9.1,93.1,10.9V9.5V8.1c-1.7-1.6-3.575-2.85-5.575-3.7S83.4,3.1,81.2,3.1z"/>
<polygon points="79.8,4.3 80.95,4.3 82.1,4.3 82.1,12 82.1,19.7 80.95,19.7 79.8,19.7 79.8,12 "/>
<path d="M68.7,18.8v11.75V42.3h12.4h12.4V30.55V18.8H81.1H68.7z M91.4,40.8H81.15H70.9V30.55V20.3h10.25H91.4v10.25V40.8z"/>
<polygon style="fill:#33751F;" points="49.6,9.9 72.85,50 96.1,90.1 50,90.1 3.9,90.1 26.75,50 "/>
<path style="fill:#020303;" d="M97.8,91.1H50H2.2l23.7-41.65L49.6,7.8l24.1,41.65L97.8,91.1z M5.6,89.1h44.35H94.3L71.95,50.5
	L49.6,11.9l-22,38.6L5.6,89.1z"/>
<path style="fill:#FFFFFF;" d="M32.5,87.9V65.35V42.8h3.95h3.95v10v10l8-10l8-10h5.35h5.35l-7.4,8.75l-7.4,8.75l7.8,13.75l7.8,13.75
	h-5.15H57.6l-5.4-10.55L46.8,66.7l-3.2,3.75l-3.2,3.75V81v6.8h-3.95H32.5v0.05V87.9z"/>
<path d="M68.7,88.4H63h-5.7L52,78l-5.3-10.4L43.8,71l-2.9,3.4v6.95v6.95h-4.45H32v-23v-23h4.45h4.45v9.55v9.55l7.65-9.55l7.65-9.55
	h6h6l-7.65,9.05L52.9,60.4l7.9,14L68.7,88.4z M57.9,87.4h4.55H67l-7.65-13.55L51.7,60.3l7.15-8.5L66,43.3h-4.65H56.7l-8.35,10.5
	L40,64.3V53.8V43.3h-3.5H33v22.05V87.4h3.45h3.45v-6.7V74l3.5-4.1l3.5-4.1l5.5,10.8L57.9,87.4z"/>
</svg>
