<?xml version="1.0" encoding="iso-8859-1"?>
<!-- Generator: Adobe Illustrator 25.3.1, SVG Export Plug-In . SVG Version: 6.00 Build 0)  -->
<svg version="1.1" id="Layer_1" xmlns="http://www.w3.org/2000/svg" xmlns:xlink="http://www.w3.org/1999/xlink" x="0px" y="0px"
	 viewBox="0 0 100 100" style="enable-background:new 0 0 100 100;" xml:space="preserve">
<polygon style="fill:#33751F;" points="49.6,9.9 72.85,50 96.1,90.1 50,90.1 3.9,90.1 26.75,50 "/>
<path style="fill:#020303;" d="M97.8,91.1H50H2.2l23.7-41.65L49.6,7.8l24.1,41.65L97.8,91.1z M5.6,89.1h44.35H94.3L71.95,50.5
	L49.6,11.9l-22,38.6L5.6,89.1z"/>
<path style="fill:#FFFFFF;" d="M32.5,87.9V65.35V42.8h3.95h3.95v10v10l8-10l8-10h5.35h5.35l-7.4,8.75l-7.4,8.75l7.8,13.75l7.8,13.75
	h-5.15H57.6l-5.4-10.55L46.8,66.7l-3.2,3.75l-3.2,3.75V81v6.8h-3.95H32.5v0.05V87.9z"/>
<path d="M68.7,88.4H63h-5.7L52,78l-5.3-10.4L43.8,71l-2.9,3.4v6.95v6.95h-4.45H32v-23v-23h4.45h4.45v9.55v9.55l7.65-9.55l7.65-9.55
	h6h6l-7.65,9.05L52.9,60.4l7.9,14L68.7,88.4z M57.9,87.4h4.55H67l-7.65-13.55L51.7,60.3l7.15-8.5L66,43.3h-4.65H56.7l-8.35,10.5
	L40,64.3V53.8V43.3h-3.5H33v22.05V87.4h3.45h3.45v-6.7V74l3.5-4.1l3.5-4.1l5.5,10.8L57.9,87.4z"/>
<path style="fill:#4CA530;" d="M70.2,42.8V24.35V5.9h6.85h6.85c1.4,0,2.6,0.075,3.638,0.238S89.45,6.55,90.2,6.9
	c0.7,0.35,1.35,0.8,1.925,1.375C92.7,8.85,93.2,9.55,93.6,10.4c0.45,0.85,0.775,1.725,0.988,2.65C94.8,13.975,94.9,14.95,94.9,16
	c0,1.3-0.175,2.5-0.525,3.6c-0.35,1.1-0.875,2.1-1.575,3s-1.6,1.625-2.7,2.188C89,25.35,87.7,25.75,86.2,26
	c0.55,0.3,1.025,0.6,1.438,0.9c0.412,0.3,0.763,0.6,1.062,0.9c0.6,0.65,1.175,1.375,1.738,2.188C91,30.8,91.55,31.7,92.1,32.7l2.7,5
	l2.7,5h-2.55H92.4l-2.05-3.85L88.3,35c-0.6-1.1-1.15-2.075-1.65-2.925c-0.5-0.85-0.95-1.575-1.35-2.175s-0.775-1.1-1.125-1.513
	S83.5,27.65,83.2,27.4s-0.6-0.45-0.912-0.612S81.65,26.5,81.3,26.4c-0.25-0.05-0.55-0.1-0.925-0.138S79.55,26.2,79,26.2h-2.35H74.3
	v8.2v8.2h-2.05H70.2v0.1V42.8z M74.3,22.2h4.35H83c0.95,0,1.775-0.05,2.5-0.163c0.725-0.113,1.35-0.288,1.9-0.538
	s1.025-0.55,1.425-0.913S89.55,19.8,89.8,19.3s0.45-1.025,0.588-1.575C90.525,17.175,90.6,16.6,90.6,16
	c0-0.85-0.125-1.65-0.387-2.375C89.95,12.9,89.55,12.25,89,11.7c-0.5-0.6-1.175-1.025-2.013-1.3S85.15,10,84,10h-4.9h-4.9v6.1v6.1
	h0.05H74.3z"/>
</svg>
