<?xml version="1.0" encoding="iso-8859-1"?>
<!-- Generator: Adobe Illustrator 25.4.1, SVG Export Plug-In . SVG Version: 6.00 Build 0)  -->
<svg version="1.1"
	 id="svg8" xmlns:cc="http://creativecommons.org/ns#" xmlns:dc="http://purl.org/dc/elements/1.1/" xmlns:inkscape="http://www.inkscape.org/namespaces/inkscape" xmlns:rdf="http://www.w3.org/1999/02/22-rdf-syntax-ns#" xmlns:sodipodi="http://sodipodi.sourceforge.net/DTD/sodipodi-0.dtd" xmlns:svg="http://www.w3.org/2000/svg"
	 xmlns="http://www.w3.org/2000/svg" xmlns:xlink="http://www.w3.org/1999/xlink" x="0px" y="0px" viewBox="0 0 100 100"
	 style="enable-background:new 0 0 100 100;" xml:space="preserve">
<sodipodi:namedview  bordercolor="#666666" borderopacity="1.0" id="base" inkscape:current-layer="layer3" inkscape:cx="-302.11164" inkscape:cy="84.283015" inkscape:document-units="px" inkscape:guide-bbox="true" inkscape:lockguides="true" inkscape:pageopacity="0.0" inkscape:pageshadow="2" inkscape:window-height="657" inkscape:window-maximized="1" inkscape:window-width="1280" inkscape:window-x="-8" inkscape:window-y="-8" inkscape:zoom="0.765625" pagecolor="#ffffff" showgrid="false" showguides="false" units="px">
	<sodipodi:guide  id="guide5700" inkscape:locked="true" orientation="0,1" position="-0.93017576,23.874511"></sodipodi:guide>
	<sodipodi:guide  id="guide5726" inkscape:locked="true" orientation="0,1" position="-26.098869,26.473047"></sodipodi:guide>
	<sodipodi:guide  id="guide5880" inkscape:locked="true" orientation="0,1" position="104.51042,-2.9104167"></sodipodi:guide>
	<sodipodi:guide  id="guide6001" inkscape:locked="true" orientation="0,1" position="-71.093695,29.279377"></sodipodi:guide>
	<sodipodi:guide  id="guide6005" inkscape:locked="true" orientation="0,1" position="-46.304445,58.278122"></sodipodi:guide>
	<sodipodi:guide  id="guide6736" inkscape:locked="true" orientation="0,1" position="-0.10335287,20.205485"></sodipodi:guide>
	<sodipodi:guide  id="guide6738" inkscape:locked="true" orientation="0,1" position="-0.43848907,22.874513"></sodipodi:guide>
	<inkscape:grid  id="grid2386" type="xygrid"></inkscape:grid>
</sodipodi:namedview>
<g id="g1180" transform="translate(0,-229.2666)" inkscape:groupmode="layer" inkscape:label="halo:always" style="display:none;">
	<g id="g1210" inkscape:groupmode="layer" inkscape:label="-gray-halo:iter3" style="display:inline;">
		<g id="circle1208">
			<path style="fill:#919395;" d="M50,329.3c-27.6,0-50-22.4-50-50s22.4-50,50-50s50,22.4,50,50S77.6,329.3,50,329.3z M50,237.9
				c-22.8,0-41.4,18.6-41.4,41.4s18.6,41.4,41.4,41.4s41.4-18.6,41.4-41.4S72.8,237.9,50,237.9z"/>
		</g>
	</g>
	<g id="g1206" inkscape:groupmode="layer" inkscape:label="-red-halo:iter3" style="display:inline;">
		<g id="circle1204">
			<path style="fill:#C52038;" d="M50,329.3c-27.6,0-50-22.4-50-50s22.4-50,50-50s50,22.4,50,50S77.6,329.3,50,329.3z M50,237.9
				c-22.8,0-41.4,18.6-41.4,41.4s18.6,41.4,41.4,41.4s41.4-18.6,41.4-41.4S72.8,237.9,50,237.9z"/>
		</g>
	</g>
	<g id="g1202" inkscape:groupmode="layer" inkscape:label="-green-halo:iter3" style="display:inline;">
		<g id="circle1200">
			<path style="fill:#5E9C42;" d="M50,329.3c-27.6,0-50-22.4-50-50s22.4-50,50-50s50,22.4,50,50S77.6,329.3,50,329.3z M50,237.9
				c-22.8,0-41.4,18.6-41.4,41.4s18.6,41.4,41.4,41.4s41.4-18.6,41.4-41.4S72.8,237.9,50,237.9z"/>
		</g>
	</g>
	<g id="layer18" inkscape:groupmode="layer" inkscape:label="-yellow-halo:iter3" style="display:inline;">
		<g id="circle1178-4">
			<path style="fill:#FBBA16;" d="M50,329.3c-27.6,0-50-22.4-50-50s22.4-50,50-50s50,22.4,50,50S77.6,329.3,50,329.3z M50,237.9
				c-22.8,0-41.4,18.6-41.4,41.4s18.6,41.4,41.4,41.4s41.4-18.6,41.4-41.4S72.8,237.9,50,237.9z"/>
		</g>
	</g>
</g>
<path id="rect7840" inkscape:connector-curvature="0" inkscape:export-filename="C:\Users\Charlotte Abel\Documents\Symbology\Components\For Distribution\hazardous-materials_non-fixed-sites-gray.png" inkscape:export-xdpi="300.00461" inkscape:export-ydpi="300.00461" style="fill:#003366;" d="
	M39.1,32c-0.35,0-0.681,0.069-0.981,0.194s-0.569,0.306-0.794,0.531c-0.225,0.225-0.406,0.494-0.531,0.794S36.6,34.15,36.6,34.5
	v0.125v0.125v0.125V35h-2.45H31.7h-2.45H26.8h-0.05H26.7h-0.05H26.6l0,0l0,0l0,0l0,0c-0.875,0.05-1.712,0.412-2.477,1.028
	c-0.764,0.616-1.455,1.484-2.036,2.547c-0.581,1.062-1.053,2.319-1.379,3.709C20.381,43.675,20.2,45.2,20.2,46.8
	c0,1.6,0.175,3.125,0.494,4.516s0.781,2.647,1.356,3.709s1.262,1.931,2.031,2.547C24.85,58.188,25.7,58.55,26.6,58.6l0,0l0,0l0,0
	l0,0h0.3h0.3h0.3h0.3c0.05-0.05,0.106-0.1,0.167-0.15c0.061-0.05,0.126-0.1,0.195-0.15c0.069-0.05,0.141-0.1,0.214-0.15
	c0.074-0.05,0.149-0.1,0.224-0.15c0.05-0.05,0.106-0.094,0.166-0.133c0.059-0.039,0.122-0.073,0.184-0.104
	c0.062-0.031,0.125-0.059,0.184-0.086c0.059-0.027,0.116-0.052,0.166-0.077c0.125-0.075,0.25-0.144,0.377-0.206
	s0.255-0.119,0.386-0.169c0.131-0.05,0.265-0.094,0.404-0.131S30.75,57.025,30.9,57c0.075-0.025,0.144-0.044,0.209-0.058
	c0.066-0.014,0.128-0.023,0.191-0.029s0.125-0.009,0.191-0.011C31.556,56.9,31.625,56.9,31.7,56.9h0.025h0.025h0.025H31.8
	c0.075,0,0.144-0.006,0.209-0.016c0.066-0.009,0.128-0.022,0.191-0.034s0.125-0.025,0.191-0.034
	c0.066-0.009,0.134-0.016,0.209-0.016l0,0l0,0l0,0l0,0h0.025h0.025h0.025H32.7c0.15,0,0.3,0.006,0.45,0.017
	c0.15,0.011,0.3,0.026,0.45,0.045c0.15,0.019,0.3,0.041,0.45,0.065c0.15,0.023,0.3,0.049,0.45,0.073l0,0l0,0l0,0l0,0
	c0.275,0.075,0.55,0.169,0.82,0.278c0.27,0.109,0.536,0.234,0.792,0.372c0.257,0.138,0.504,0.288,0.736,0.447
	c0.233,0.159,0.452,0.328,0.652,0.503h6.05h6.05h6.05h6.05c0.05-0.05,0.106-0.1,0.167-0.15c0.061-0.05,0.126-0.1,0.195-0.15
	c0.069-0.05,0.141-0.1,0.215-0.15c0.073-0.05,0.148-0.1,0.223-0.15c0.05-0.05,0.106-0.094,0.166-0.133
	c0.059-0.039,0.122-0.073,0.184-0.104c0.062-0.031,0.125-0.059,0.184-0.086c0.059-0.027,0.116-0.052,0.166-0.077
	c0.125-0.075,0.25-0.144,0.377-0.206s0.255-0.119,0.386-0.169c0.131-0.05,0.265-0.094,0.404-0.131S64.65,57.025,64.8,57
	c0.075-0.025,0.144-0.044,0.209-0.058c0.066-0.014,0.128-0.023,0.191-0.029s0.125-0.009,0.191-0.011
	C65.456,56.9,65.525,56.9,65.6,56.9h0.025h0.025h0.025H65.7c0.075,0,0.144-0.006,0.209-0.016c0.066-0.009,0.128-0.022,0.191-0.034
	s0.125-0.025,0.191-0.034c0.066-0.009,0.134-0.016,0.209-0.016l0,0l0,0l0,0l0,0h0.025h0.025h0.025H66.6c0.15,0,0.3,0.006,0.45,0.017
	c0.15,0.011,0.3,0.026,0.45,0.045c0.15,0.019,0.3,0.041,0.45,0.065c0.15,0.023,0.3,0.049,0.45,0.073l0,0l0,0l0,0l0,0
	c0.275,0.075,0.55,0.169,0.82,0.278s0.536,0.234,0.792,0.372c0.257,0.138,0.504,0.288,0.736,0.447S71.2,58.425,71.4,58.6h0.4h0.4
	h0.4H73l0,0l0,0l0,0l0,0c0.9,0,1.756-0.331,2.534-0.93c0.778-0.598,1.478-1.464,2.066-2.532c0.588-1.069,1.062-2.341,1.391-3.752
	c0.328-1.411,0.509-2.961,0.509-4.586s-0.181-3.175-0.509-4.586c-0.328-1.411-0.803-2.683-1.391-3.751
	c-0.588-1.069-1.287-1.935-2.066-2.533C74.756,35.331,73.9,35,73,35l0,0l0,0l0,0l0,0h-6.5H60h-6.5H47v-0.125V34.75v-0.125V34.5
	c0-0.35-0.069-0.681-0.194-0.981s-0.306-0.569-0.531-0.794c-0.225-0.225-0.494-0.406-0.794-0.531S44.85,32,44.5,32h-1.35H41.8h-1.35
	H39.1z"/>
<path id="path11273" inkscape:connector-curvature="0" inkscape:export-filename="C:\Users\Charlotte Abel\Documents\Symbology\Components\For Distribution\hazardous-materials_non-fixed-sites-gray.png" inkscape:export-xdpi="300.00461" inkscape:export-ydpi="300.00461" style="fill:#FFFFFF;" d="
	M61.4,34.9v5.9v5.9v5.9v5.9h0.1h0.1h0.1h0.1c0.05-0.05,0.106-0.1,0.167-0.15c0.061-0.05,0.126-0.1,0.195-0.15
	c0.069-0.05,0.141-0.1,0.214-0.15c0.074-0.05,0.149-0.1,0.223-0.15c0.05-0.05,0.106-0.094,0.166-0.133
	c0.059-0.039,0.122-0.073,0.184-0.104c0.062-0.031,0.125-0.059,0.184-0.086c0.059-0.027,0.116-0.052,0.166-0.077l0,0l0,0l0,0l0,0
	v-0.8v-0.8v-0.8v-0.8h1.675h1.675h1.675H70v0.8v0.8v0.8v0.8c0.125,0.075,0.25,0.15,0.375,0.227s0.25,0.154,0.375,0.236
	c0.125,0.082,0.25,0.166,0.375,0.255c0.125,0.089,0.25,0.183,0.375,0.283h0.1h0.1h0.1h0.1v-5.9v-5.9v-5.9v-5.9h-0.45H71h-0.45H70.1
	v1.05V37v1.05v1.05h-1.675H66.75h-1.675H63.4v-1.05V37v-1.05V34.9h-0.5h-0.5h-0.5H61.4z M63.2,40.9h1.675h1.675h1.675H69.9v1.225
	v1.225v1.225V45.8h-1.675H66.55h-1.675H63.2v-1.225V43.35v-1.225V40.9z M63.2,47.7h1.675h1.675h1.675H69.9v1.225v1.225v1.225V52.6
	h-1.675H66.55h-1.675H63.2v-1.225V50.15v-1.225V47.7z"/>
<path id="rect7846" inkscape:connector-curvature="0" inkscape:export-filename="C:\Users\Charlotte Abel\Documents\Symbology\Components\For Distribution\hazardous-materials_non-fixed-sites-gray.png" inkscape:export-xdpi="300.00461" inkscape:export-ydpi="300.00461" style="fill:#003366;" d="
	M23.6,60.4c-0.15,0-0.294,0.031-0.425,0.088c-0.131,0.056-0.25,0.138-0.35,0.237c-0.1,0.1-0.181,0.219-0.238,0.35
	C22.531,61.206,22.5,61.35,22.5,61.5v0.3v0.3v0.3v0.3c0,0.15,0.031,0.294,0.087,0.425c0.056,0.131,0.138,0.25,0.238,0.35
	c0.1,0.1,0.219,0.181,0.35,0.237C23.306,63.769,23.45,63.8,23.6,63.8h0.425h0.425h0.425H25.3c0-0.3,0.025-0.6,0.072-0.897
	s0.116-0.591,0.203-0.878c0.087-0.287,0.194-0.569,0.316-0.841c0.122-0.272,0.259-0.534,0.409-0.784c0,0-0.169,0-0.422,0
	s-0.591,0-0.928,0s-0.675,0-0.928,0S23.6,60.4,23.6,60.4z M39,60.4c0.15,0.25,0.281,0.513,0.395,0.784
	c0.114,0.272,0.211,0.553,0.293,0.841c0.082,0.288,0.147,0.581,0.198,0.878S39.975,63.5,40,63.8h4.825h4.825h4.825H59.3
	c0-0.3,0.025-0.6,0.072-0.897s0.116-0.591,0.203-0.878c0.088-0.287,0.194-0.569,0.316-0.841c0.122-0.272,0.259-0.534,0.409-0.784
	h-5.325H49.65h-5.325H39z M72.9,60.4c0.15,0.25,0.281,0.513,0.395,0.784c0.114,0.272,0.211,0.553,0.293,0.841
	c0.082,0.288,0.147,0.581,0.198,0.878S73.875,63.5,73.9,63.8h0.425h0.425h0.425H75.6c0.15,0,0.294-0.031,0.425-0.088
	c0.131-0.056,0.25-0.137,0.35-0.237c0.1-0.1,0.181-0.219,0.237-0.35C76.669,62.994,76.7,62.85,76.7,62.7v-0.3v-0.3v-0.3v-0.3
	c0-0.15-0.031-0.294-0.088-0.425c-0.056-0.131-0.137-0.25-0.237-0.35c-0.1-0.1-0.219-0.181-0.35-0.237
	C75.894,60.431,75.75,60.4,75.6,60.4h-0.675H74.25l-0.675,0H72.9z"/>
<path id="path7850" inkscape:connector-curvature="0" inkscape:export-filename="C:\Users\Charlotte Abel\Documents\Symbology\Components\For Distribution\hazardous-materials_non-fixed-sites-gray.png" inkscape:export-xdpi="300.00461" inkscape:export-ydpi="300.00461" style="fill:#003366;" d="
	M66.5,58.7c-0.05,0-0.1,0-0.15,0c-0.05,0-0.1,0-0.15,0s-0.1,0-0.15,0c-0.05,0-0.1,0-0.15,0c0,0,0,0-0.002,0c-0.001,0-0.004,0-0.01,0
	c-0.007,0-0.016,0-0.03,0c-0.014,0-0.033,0-0.058,0c-0.05,0-0.1,0.006-0.15,0.016c-0.05,0.009-0.1,0.022-0.15,0.034
	c-0.05,0.013-0.1,0.025-0.15,0.034c-0.05,0.009-0.1,0.016-0.15,0.016c-0.1,0.025-0.2,0.056-0.3,0.092c-0.1,0.036-0.2,0.076-0.3,0.12
	c-0.1,0.044-0.2,0.091-0.3,0.139S64.1,59.25,64,59.3c-0.05,0.025-0.094,0.05-0.134,0.075c-0.041,0.025-0.078,0.05-0.116,0.075
	s-0.075,0.05-0.116,0.075c-0.041,0.025-0.084,0.05-0.134,0.075c-0.125,0.1-0.25,0.2-0.373,0.302
	c-0.123,0.101-0.245,0.204-0.364,0.31c-0.119,0.106-0.235,0.216-0.346,0.33S62.2,60.775,62.1,60.9l0,0l0,0l0,0l0,0l0,0l0,0l0,0l0,0
	l0,0l0,0l0,0l0,0c-0.15,0.225-0.281,0.456-0.394,0.694c-0.112,0.238-0.206,0.481-0.281,0.731s-0.131,0.506-0.169,0.769
	C61.219,63.356,61.2,63.625,61.2,63.9c0,0.75,0.15,1.463,0.422,2.109c0.272,0.647,0.666,1.228,1.153,1.716
	c0.487,0.488,1.069,0.881,1.716,1.153C65.137,69.15,65.85,69.3,66.6,69.3s1.463-0.15,2.109-0.422s1.228-0.666,1.716-1.153
	c0.488-0.488,0.881-1.069,1.153-1.716S72,64.65,72,63.9c0-0.275-0.019-0.55-0.056-0.82c-0.037-0.27-0.094-0.536-0.169-0.792
	c-0.075-0.257-0.169-0.504-0.281-0.736C71.381,61.319,71.25,61.1,71.1,60.9l-0.025-0.025L71.05,60.85l-0.025-0.025L71,60.8
	c-0.175-0.25-0.375-0.481-0.595-0.694c-0.22-0.213-0.461-0.406-0.717-0.581c-0.257-0.175-0.529-0.331-0.811-0.469
	C68.594,58.919,68.3,58.8,68,58.7l0,0l0,0l0,0l0,0c-0.15,0-0.288,0-0.417,0c-0.13,0-0.252,0-0.371,0s-0.234,0-0.352,0
	C66.743,58.7,66.625,58.7,66.5,58.7L66.5,58.7L66.5,58.7L66.5,58.7L66.5,58.7L66.5,58.7L66.5,58.7L66.5,58.7L66.5,58.7z"/>
<path id="path7854" inkscape:connector-curvature="0" inkscape:export-filename="C:\Users\Charlotte Abel\Documents\Symbology\Components\For Distribution\hazardous-materials_non-fixed-sites-gray.png" inkscape:export-xdpi="300.00461" inkscape:export-ydpi="300.00461" style="fill:#003366;" d="
	M32.6,58.7c-0.05,0-0.1,0-0.15,0c-0.05,0-0.1,0-0.15,0s-0.1,0-0.15,0c-0.05,0-0.1,0-0.15,0c0,0,0,0-0.002,0s-0.005,0-0.011,0
	c-0.006,0-0.015,0-0.03,0s-0.033,0-0.057,0c-0.05,0-0.1,0.006-0.15,0.016c-0.05,0.009-0.1,0.022-0.15,0.034
	c-0.05,0.013-0.1,0.025-0.15,0.034c-0.05,0.009-0.1,0.016-0.15,0.016c-0.1,0.025-0.2,0.056-0.3,0.092c-0.1,0.036-0.2,0.076-0.3,0.12
	c-0.1,0.044-0.2,0.091-0.3,0.139s-0.2,0.098-0.3,0.148c-0.05,0.025-0.094,0.05-0.134,0.075c-0.041,0.025-0.078,0.05-0.116,0.075
	s-0.075,0.05-0.116,0.075c-0.041,0.025-0.084,0.05-0.134,0.075c-0.125,0.1-0.25,0.2-0.373,0.302
	c-0.123,0.101-0.245,0.204-0.364,0.31c-0.119,0.106-0.235,0.216-0.346,0.33S28.3,60.775,28.2,60.9l0,0l0,0l0,0l0,0l0,0l0,0l0,0l0,0
	l0,0l0,0l0,0l0,0c-0.15,0.225-0.281,0.456-0.394,0.694c-0.112,0.238-0.206,0.481-0.281,0.731s-0.131,0.506-0.169,0.769
	C27.319,63.356,27.3,63.625,27.3,63.9c0,0.75,0.15,1.463,0.422,2.109s0.666,1.228,1.153,1.716c0.487,0.488,1.069,0.881,1.716,1.153
	C31.238,69.15,31.95,69.3,32.7,69.3s1.462-0.15,2.109-0.422c0.647-0.272,1.228-0.666,1.716-1.153
	c0.487-0.488,0.881-1.069,1.153-1.716S38.1,64.65,38.1,63.9c0-0.275-0.019-0.55-0.056-0.82c-0.037-0.27-0.094-0.536-0.169-0.792
	c-0.075-0.257-0.169-0.504-0.281-0.736C37.481,61.319,37.35,61.1,37.2,60.9l-0.025-0.025L37.15,60.85l-0.025-0.025L37.1,60.8
	c-0.175-0.25-0.375-0.481-0.595-0.694c-0.22-0.213-0.461-0.406-0.717-0.581c-0.256-0.175-0.528-0.331-0.811-0.469
	C34.694,58.919,34.4,58.8,34.1,58.7l0,0l0,0l0,0l0,0c-0.15,0-0.287,0-0.417,0c-0.13,0-0.251,0-0.37,0c-0.119,0-0.235,0-0.352,0
	C32.844,58.7,32.725,58.7,32.6,58.7L32.6,58.7L32.6,58.7L32.6,58.7L32.6,58.7L32.6,58.7L32.6,58.7L32.6,58.7L32.6,58.7z"/>
<path id="path7856" inkscape:connector-curvature="0" inkscape:export-filename="C:\Users\Charlotte Abel\Documents\Symbology\Components\For Distribution\hazardous-materials_non-fixed-sites-gray.png" inkscape:export-xdpi="300.00461" inkscape:export-ydpi="300.00461" style="fill-rule:evenodd;clip-rule:evenodd;fill:#FFFFFF;" d="
	M41.8,37.4l2.35,2.35l2.35,2.35l2.35,2.35l2.35,2.35l-2.35,2.35L46.5,51.5l-2.35,2.35L41.8,56.2l-2.35-2.35L37.1,51.5l-2.35-2.35
	L32.4,46.8l2.35-2.35l2.35-2.35l2.35-2.35L41.8,37.4z"/>
<path id="path7858" inkscape:connector-curvature="0" inkscape:export-filename="C:\Users\Charlotte Abel\Documents\Symbology\Components\For Distribution\hazardous-materials_non-fixed-sites-gray.png" inkscape:export-xdpi="300.00461" inkscape:export-ydpi="300.00461" style="fill:#003366;" d="
	M41.6,50.7c-0.075-0.025-0.15-0.056-0.222-0.094c-0.072-0.037-0.141-0.081-0.203-0.131s-0.119-0.106-0.166-0.169
	S40.925,50.175,40.9,50.1c-0.025-0.05-0.044-0.094-0.058-0.138c-0.014-0.044-0.023-0.087-0.029-0.138
	c-0.007-0.05-0.01-0.106-0.011-0.175C40.8,49.581,40.8,49.5,40.8,49.4c0-0.05-0.006-0.2-0.016-0.428
	c-0.009-0.228-0.022-0.534-0.034-0.897c-0.013-0.362-0.025-0.781-0.034-1.234C40.706,46.388,40.7,45.9,40.7,45.4
	c-0.025-0.85-0.044-1.506-0.058-2.016s-0.023-0.872-0.029-1.134c-0.007-0.263-0.01-0.425-0.011-0.534S40.6,41.55,40.6,41.5
	c0.025-0.1,0.062-0.2,0.111-0.297s0.108-0.191,0.176-0.278c0.069-0.087,0.147-0.169,0.233-0.241c0.086-0.072,0.18-0.134,0.28-0.184
	c0.05-0.025,0.094-0.044,0.136-0.058c0.042-0.014,0.083-0.023,0.127-0.029c0.043-0.006,0.09-0.01,0.145-0.011
	C41.862,40.4,41.925,40.4,42,40.4c0.125,0,0.25,0.019,0.37,0.055c0.12,0.036,0.236,0.089,0.343,0.158
	c0.106,0.069,0.203,0.153,0.285,0.251c0.083,0.098,0.152,0.211,0.201,0.336c0.05,0.075,0.087,0.125,0.112,0.222
	c0.025,0.097,0.038,0.241,0.038,0.503c0,0.263-0.013,0.644-0.037,1.216c-0.025,0.572-0.063,1.334-0.113,2.359
	c-0.025,0.525-0.044,1.031-0.058,1.497s-0.023,0.891-0.029,1.253c-0.007,0.362-0.01,0.662-0.011,0.878S43.1,49.475,43.1,49.5
	c0,0.1-0.006,0.194-0.019,0.281c-0.013,0.088-0.031,0.169-0.056,0.244s-0.056,0.144-0.094,0.206
	C42.894,50.294,42.85,50.35,42.8,50.4c-0.125,0.075-0.244,0.138-0.356,0.188c-0.112,0.05-0.219,0.088-0.319,0.112
	c-0.1,0.025-0.194,0.037-0.281,0.037S41.675,50.725,41.6,50.7L41.6,50.7L41.6,50.7L41.6,50.7L41.6,50.7z M41.6,53.8
	c-0.125-0.025-0.244-0.081-0.35-0.159c-0.106-0.078-0.2-0.178-0.275-0.291c-0.075-0.112-0.131-0.237-0.162-0.366
	S40.775,52.725,40.8,52.6c0.025-0.075,0.056-0.156,0.094-0.237c0.037-0.081,0.081-0.162,0.131-0.237s0.106-0.144,0.169-0.2
	s0.131-0.1,0.206-0.125c0.2-0.1,0.413-0.125,0.614-0.094c0.201,0.031,0.392,0.119,0.548,0.244s0.278,0.287,0.342,0.469
	C42.968,52.6,42.975,52.8,42.9,53c-0.05,0.125-0.125,0.244-0.217,0.35c-0.092,0.106-0.201,0.2-0.32,0.275
	c-0.119,0.075-0.247,0.131-0.377,0.162C41.856,53.819,41.725,53.825,41.6,53.8L41.6,53.8L41.6,53.8L41.6,53.8L41.6,53.8z"/>
</svg>
