<?xml version="1.0" encoding="iso-8859-1"?>
<!-- Generator: Adobe Illustrator 25.4.1, SVG Export Plug-In . SVG Version: 6.00 Build 0)  -->
<svg version="1.1"
	 id="svg8" xmlns:cc="http://creativecommons.org/ns#" xmlns:dc="http://purl.org/dc/elements/1.1/" xmlns:inkscape="http://www.inkscape.org/namespaces/inkscape" xmlns:rdf="http://www.w3.org/1999/02/22-rdf-syntax-ns#" xmlns:sodipodi="http://sodipodi.sourceforge.net/DTD/sodipodi-0.dtd" xmlns:svg="http://www.w3.org/2000/svg"
	 xmlns="http://www.w3.org/2000/svg" xmlns:xlink="http://www.w3.org/1999/xlink" x="0px" y="0px" viewBox="0 0 100 100"
	 style="enable-background:new 0 0 100 100;" xml:space="preserve">
<sodipodi:namedview  bordercolor="#666666" borderopacity="1.0" id="base" inkscape:current-layer="layer3" inkscape:cx="-212.61719" inkscape:cy="148.61928" inkscape:document-units="px" inkscape:guide-bbox="true" inkscape:lockguides="false" inkscape:pageopacity="0.0" inkscape:pageshadow="2" inkscape:window-height="657" inkscape:window-maximized="1" inkscape:window-width="1280" inkscape:window-x="-8" inkscape:window-y="-8" inkscape:zoom="1" pagecolor="#ffffff" showgrid="false" showguides="true" units="px">
	<sodipodi:guide  id="guide5700" inkscape:locked="false" orientation="0,1" position="-0.93017576,23.874511"></sodipodi:guide>
	<sodipodi:guide  id="guide5726" inkscape:locked="false" orientation="0,1" position="-26.098869,26.473047"></sodipodi:guide>
	<sodipodi:guide  id="guide5880" inkscape:locked="false" orientation="0,1" position="104.51042,-2.9104167"></sodipodi:guide>
	<sodipodi:guide  id="guide6001" inkscape:locked="false" orientation="0,1" position="-44.807735,29.092289"></sodipodi:guide>
	<sodipodi:guide  id="guide6005" inkscape:locked="false" orientation="0,1" position="-46.304445,58.278122"></sodipodi:guide>
	<sodipodi:guide  id="guide6736" inkscape:locked="false" orientation="0,1" position="-0.10335287,20.205485"></sodipodi:guide>
	<sodipodi:guide  id="guide6738" inkscape:locked="false" orientation="0,1" position="-0.43848907,22.874513"></sodipodi:guide>
	<inkscape:grid  id="grid2386" type="xygrid"></inkscape:grid>
</sodipodi:namedview>
<g id="g1180" transform="translate(0,-229.2666)" inkscape:groupmode="layer" inkscape:label="halo:always" style="display:none;">
	<g id="g1210" inkscape:groupmode="layer" inkscape:label="-gray-halo:iter3" style="display:inline;">
		<g id="circle1208">
			<path style="fill:#919395;" d="M50,329.3c-27.6,0-50-22.4-50-50s22.4-50,50-50s50,22.4,50,50S77.6,329.3,50,329.3z M50,237.9
				c-22.8,0-41.4,18.6-41.4,41.4s18.6,41.4,41.4,41.4s41.4-18.6,41.4-41.4S72.8,237.9,50,237.9z"/>
		</g>
	</g>
	<g id="g1206" inkscape:groupmode="layer" inkscape:label="-red-halo:iter3" style="display:inline;">
		<g id="circle1204">
			<path style="fill:#C52038;" d="M50,329.3c-27.6,0-50-22.4-50-50s22.4-50,50-50s50,22.4,50,50S77.6,329.3,50,329.3z M50,237.9
				c-22.8,0-41.4,18.6-41.4,41.4s18.6,41.4,41.4,41.4s41.4-18.6,41.4-41.4S72.8,237.9,50,237.9z"/>
		</g>
	</g>
	<g id="g1202" inkscape:groupmode="layer" inkscape:label="-green-halo:iter3" style="display:inline;">
		<g id="circle1200">
			<path style="fill:#5E9C42;" d="M50,329.3c-27.6,0-50-22.4-50-50s22.4-50,50-50s50,22.4,50,50S77.6,329.3,50,329.3z M50,237.9
				c-22.8,0-41.4,18.6-41.4,41.4s18.6,41.4,41.4,41.4s41.4-18.6,41.4-41.4S72.8,237.9,50,237.9z"/>
		</g>
	</g>
	<g id="layer18" inkscape:groupmode="layer" inkscape:label="-yellow-halo:iter3" style="display:inline;">
		<g id="circle1178-4">
			<path style="fill:#FBBA16;" d="M50,329.3c-27.6,0-50-22.4-50-50s22.4-50,50-50s50,22.4,50,50S77.6,329.3,50,329.3z M50,237.9
				c-22.8,0-41.4,18.6-41.4,41.4s18.6,41.4,41.4,41.4s41.4-18.6,41.4-41.4S72.8,237.9,50,237.9z"/>
		</g>
	</g>
</g>
<path id="path2350" inkscape:connector-curvature="0" style="fill:#003366;" d="M49.579,56.55c-0.116-0.029-0.232-0.073-0.347-0.129
	c-0.114-0.056-0.227-0.125-0.336-0.205c-0.109-0.08-0.214-0.17-0.313-0.27c-0.1-0.1-0.194-0.209-0.281-0.325
	c-0.029-0.087-0.058-0.167-0.085-0.249s-0.053-0.165-0.075-0.26c-0.021-0.094-0.039-0.199-0.052-0.324
	c-0.013-0.125-0.02-0.27-0.02-0.444c0-0.087-0.007-0.341-0.02-0.727s-0.031-0.905-0.052-1.522c-0.021-0.617-0.047-1.332-0.074-2.11
	c-0.027-0.778-0.057-1.619-0.086-2.49c-0.058-1.451-0.102-2.569-0.132-3.434s-0.049-1.478-0.057-1.921
	c-0.007-0.443-0.003-0.715,0.01-0.898c0.013-0.183,0.035-0.278,0.064-0.365c0.029-0.174,0.08-0.341,0.15-0.499
	c0.071-0.158,0.161-0.306,0.27-0.444c0.109-0.138,0.236-0.265,0.38-0.38c0.143-0.114,0.303-0.216,0.477-0.303
	c0.087-0.029,0.167-0.058,0.245-0.085s0.154-0.053,0.233-0.075c0.08-0.022,0.163-0.04,0.256-0.053
	c0.093-0.012,0.195-0.019,0.311-0.019c0.232,0,0.45,0.029,0.653,0.085c0.203,0.056,0.392,0.14,0.566,0.249
	c0.174,0.109,0.334,0.243,0.479,0.401c0.145,0.158,0.276,0.339,0.392,0.542c0.058,0.145,0.102,0.232,0.131,0.39
	c0.029,0.158,0.044,0.387,0.044,0.815s-0.015,1.056-0.044,2.012c-0.029,0.956-0.073,2.24-0.131,3.981
	c-0.029,0.871-0.058,1.72-0.085,2.507c-0.027,0.787-0.052,1.513-0.074,2.137c-0.022,0.624-0.04,1.146-0.053,1.527
	c-0.013,0.381-0.02,0.62-0.02,0.678c0,0.203-0.007,0.377-0.025,0.531c-0.018,0.154-0.047,0.288-0.091,0.411
	c-0.044,0.124-0.102,0.236-0.178,0.347c-0.076,0.111-0.171,0.22-0.287,0.336c-0.087,0.145-0.203,0.268-0.337,0.368
	c-0.134,0.1-0.287,0.176-0.446,0.226c-0.16,0.051-0.327,0.077-0.49,0.075C49.883,56.637,49.724,56.608,49.579,56.55L49.579,56.55
	L49.579,56.55L49.579,56.55L49.579,56.55z M49.579,61.774c-0.232-0.058-0.45-0.16-0.642-0.294c-0.192-0.134-0.359-0.301-0.49-0.49
	c-0.131-0.189-0.225-0.399-0.272-0.62s-0.047-0.454,0.011-0.686c0.029-0.145,0.073-0.29,0.131-0.43
	c0.058-0.14,0.131-0.274,0.218-0.398c0.087-0.124,0.189-0.236,0.305-0.332c0.116-0.096,0.247-0.176,0.392-0.233
	c0.348-0.174,0.704-0.225,1.036-0.18c0.332,0.045,0.64,0.187,0.894,0.398s0.453,0.49,0.568,0.811
	c0.115,0.321,0.144,0.683,0.057,1.061c-0.058,0.261-0.16,0.493-0.296,0.691s-0.307,0.361-0.503,0.485
	c-0.196,0.123-0.417,0.206-0.654,0.244C50.094,61.84,49.84,61.832,49.579,61.774L49.579,61.774L49.579,61.774L49.579,61.774
	L49.579,61.774z"/>
<path id="path2352" inkscape:connector-curvature="0" style="fill:#003366;" d="M30.422,21.953c-0.232,0-0.457,0.051-0.664,0.141
	c-0.207,0.091-0.395,0.221-0.555,0.381c-0.16,0.16-0.29,0.348-0.381,0.555c-0.091,0.207-0.141,0.432-0.141,0.664
	c0,0.232,0.051,0.457,0.141,0.664c0.091,0.207,0.221,0.395,0.381,0.555c0.16,0.16,0.348,0.29,0.555,0.381s0.432,0.141,0.664,0.141
	l0,0l0,0l0,0l0,0v3.483v3.483v3.483v3.483l0,0l0,0l0,0l0,0c-0.232,0-0.457,0.051-0.664,0.141s-0.395,0.221-0.555,0.381
	c-0.16,0.16-0.29,0.348-0.381,0.555c-0.091,0.207-0.141,0.432-0.141,0.664c0,0.232,0.051,0.457,0.141,0.664
	c0.091,0.207,0.221,0.395,0.381,0.555c0.16,0.16,0.348,0.29,0.555,0.381s0.432,0.141,0.664,0.141l0,0l0,0l0,0l0,0v3.483v3.483v3.483
	v3.483l0,0l0,0l0,0l0,0c-0.232,0-0.457,0.051-0.664,0.141c-0.207,0.091-0.395,0.221-0.555,0.381c-0.16,0.16-0.29,0.348-0.381,0.555
	c-0.091,0.207-0.141,0.432-0.141,0.664s0.051,0.457,0.141,0.664c0.091,0.207,0.221,0.395,0.381,0.555
	c0.16,0.16,0.348,0.29,0.555,0.381c0.207,0.091,0.432,0.141,0.664,0.141l0,0l0,0l0,0l0,0v3.483v3.483v3.483v3.483l0,0l0,0l0,0l0,0
	c-0.232,0-0.457,0.051-0.664,0.141c-0.207,0.091-0.395,0.221-0.555,0.381c-0.16,0.16-0.29,0.348-0.381,0.555
	c-0.091,0.207-0.141,0.432-0.141,0.664c0,0.232,0.051,0.457,0.141,0.664c0.091,0.207,0.221,0.395,0.381,0.555
	c0.16,0.16,0.348,0.29,0.555,0.381c0.207,0.091,0.432,0.141,0.664,0.141h9.81h9.81h9.81h9.81c0.232,0,0.457-0.051,0.664-0.141
	c0.207-0.091,0.395-0.221,0.555-0.381c0.16-0.16,0.29-0.348,0.381-0.555c0.091-0.207,0.141-0.432,0.141-0.664
	c0-0.203-0.036-0.406-0.105-0.599c-0.069-0.192-0.171-0.374-0.301-0.533c-0.131-0.16-0.29-0.297-0.475-0.403
	c-0.185-0.105-0.395-0.178-0.628-0.207v-3.454v-3.454v-3.454v-3.454c0.203-0.029,0.399-0.094,0.579-0.19
	c0.18-0.096,0.343-0.223,0.481-0.375c0.138-0.153,0.25-0.331,0.328-0.528c0.078-0.198,0.121-0.415,0.121-0.648
	c0-0.203-0.036-0.406-0.105-0.599s-0.171-0.374-0.301-0.533c-0.131-0.16-0.29-0.298-0.475-0.403s-0.395-0.178-0.628-0.207v-3.483
	v-3.483v-3.483v-3.483c0.203-0.029,0.399-0.094,0.579-0.19c0.18-0.096,0.343-0.223,0.481-0.375c0.138-0.153,0.25-0.331,0.328-0.528
	c0.078-0.198,0.121-0.415,0.121-0.648s-0.036-0.45-0.105-0.648s-0.171-0.375-0.301-0.527c-0.131-0.152-0.29-0.279-0.475-0.375
	c-0.185-0.096-0.395-0.162-0.628-0.19v-3.512v-3.512v-3.513v-3.513c0.203-0.029,0.399-0.094,0.579-0.191
	c0.18-0.096,0.343-0.223,0.481-0.376c0.138-0.152,0.25-0.33,0.328-0.527c0.078-0.198,0.121-0.415,0.121-0.648
	s-0.051-0.457-0.141-0.664c-0.091-0.207-0.221-0.395-0.381-0.555c-0.16-0.16-0.348-0.29-0.555-0.381
	c-0.207-0.091-0.432-0.141-0.664-0.141h-9.81h-9.81h-9.81H30.422z M50.043,34.143l3.947,3.947l3.947,3.947l3.947,3.947l3.947,3.947
	l-3.947,3.947l-3.947,3.947l-3.947,3.947l-3.947,3.947l-3.976-3.947l-3.976-3.947l-3.976-3.947l-3.976-3.947l3.976-3.947
	l3.976-3.947l3.976-3.947L50.043,34.143z"/>
</svg>
