<?xml version="1.0" encoding="iso-8859-1"?>
<!-- Generator: Adobe Illustrator 25.4.1, SVG Export Plug-In . SVG Version: 6.00 Build 0)  -->
<svg version="1.1"
	 id="svg8" xmlns:cc="http://creativecommons.org/ns#" xmlns:dc="http://purl.org/dc/elements/1.1/" xmlns:inkscape="http://www.inkscape.org/namespaces/inkscape" xmlns:rdf="http://www.w3.org/1999/02/22-rdf-syntax-ns#" xmlns:sodipodi="http://sodipodi.sourceforge.net/DTD/sodipodi-0.dtd" xmlns:svg="http://www.w3.org/2000/svg"
	 xmlns="http://www.w3.org/2000/svg" xmlns:xlink="http://www.w3.org/1999/xlink" x="0px" y="0px" viewBox="0 0 100 100"
	 style="enable-background:new 0 0 100 100;" xml:space="preserve">
<sodipodi:namedview  bordercolor="#666666" borderopacity="1.0" id="base" inkscape:current-layer="g6806" inkscape:cx="-90" inkscape:cy="148.61928" inkscape:document-units="px" inkscape:guide-bbox="true" inkscape:lockguides="false" inkscape:pageopacity="0.0" inkscape:pageshadow="2" inkscape:window-height="657" inkscape:window-maximized="1" inkscape:window-width="1280" inkscape:window-x="-8" inkscape:window-y="-8" inkscape:zoom="1" pagecolor="#ffffff" showgrid="false" showguides="true" units="px">
	<sodipodi:guide  id="guide5700" inkscape:locked="false" orientation="0,1" position="-0.93017576,23.874511"></sodipodi:guide>
	<sodipodi:guide  id="guide5726" inkscape:locked="false" orientation="0,1" position="-26.098869,26.473047"></sodipodi:guide>
	<sodipodi:guide  id="guide5880" inkscape:locked="false" orientation="0,1" position="104.51042,-2.9104167"></sodipodi:guide>
	<sodipodi:guide  id="guide6001" inkscape:locked="false" orientation="0,1" position="-44.807735,29.092289"></sodipodi:guide>
	<sodipodi:guide  id="guide6005" inkscape:locked="false" orientation="0,1" position="-46.304445,58.278122"></sodipodi:guide>
	<sodipodi:guide  id="guide6736" inkscape:locked="false" orientation="0,1" position="-0.10335287,20.205485"></sodipodi:guide>
	<sodipodi:guide  id="guide6738" inkscape:locked="false" orientation="0,1" position="-0.43848907,22.874513"></sodipodi:guide>
	<inkscape:grid  id="grid2386" type="xygrid"></inkscape:grid>
</sodipodi:namedview>
<g id="g1180" transform="translate(0,-229.2666)" inkscape:groupmode="layer" inkscape:label="halo:always" style="display:none;">
	<g id="g1210" inkscape:groupmode="layer" inkscape:label="-gray-halo:iter3" style="display:inline;">
		<g id="circle1208">
			<path style="fill:#919395;" d="M50,329.3c-27.6,0-50-22.4-50-50s22.4-50,50-50s50,22.4,50,50S77.6,329.3,50,329.3z M50,237.9
				c-22.8,0-41.4,18.6-41.4,41.4s18.6,41.4,41.4,41.4s41.4-18.6,41.4-41.4S72.8,237.9,50,237.9z"/>
		</g>
	</g>
	<g id="g1206" inkscape:groupmode="layer" inkscape:label="-red-halo:iter3" style="display:inline;">
		<g id="circle1204">
			<path style="fill:#C52038;" d="M50,329.3c-27.6,0-50-22.4-50-50s22.4-50,50-50s50,22.4,50,50S77.6,329.3,50,329.3z M50,237.9
				c-22.8,0-41.4,18.6-41.4,41.4s18.6,41.4,41.4,41.4s41.4-18.6,41.4-41.4S72.8,237.9,50,237.9z"/>
		</g>
	</g>
	<g id="g1202" inkscape:groupmode="layer" inkscape:label="-green-halo:iter3" style="display:inline;">
		<g id="circle1200">
			<path style="fill:#5E9C42;" d="M50,329.3c-27.6,0-50-22.4-50-50s22.4-50,50-50s50,22.4,50,50S77.6,329.3,50,329.3z M50,237.9
				c-22.8,0-41.4,18.6-41.4,41.4s18.6,41.4,41.4,41.4s41.4-18.6,41.4-41.4S72.8,237.9,50,237.9z"/>
		</g>
	</g>
	<g id="layer18" inkscape:groupmode="layer" inkscape:label="-yellow-halo:iter3" style="display:inline;">
		<g id="circle1178-4">
			<path style="fill:#FBBA16;" d="M50,329.3c-27.6,0-50-22.4-50-50s22.4-50,50-50s50,22.4,50,50S77.6,329.3,50,329.3z M50,237.9
				c-22.8,0-41.4,18.6-41.4,41.4s18.6,41.4,41.4,41.4s41.4-18.6,41.4-41.4S72.8,237.9,50,237.9z"/>
		</g>
	</g>
</g>
<path id="path6802" inkscape:connector-curvature="0" style="fill:#003366;" d="M49.979,45.335
	c-0.084-0.021-0.174-0.053-0.264-0.095c-0.09-0.042-0.18-0.095-0.264-0.158c-0.084-0.063-0.164-0.137-0.232-0.222
	s-0.127-0.18-0.169-0.285c-0.021-0.063-0.042-0.121-0.062-0.181s-0.038-0.12-0.054-0.189c-0.016-0.068-0.029-0.145-0.039-0.236
	s-0.015-0.197-0.015-0.323c0-0.063-0.005-0.253-0.014-0.542s-0.022-0.677-0.038-1.136c-0.016-0.46-0.035-0.99-0.054-1.564
	c-0.02-0.574-0.041-1.192-0.062-1.825c-0.042-1.077-0.074-1.906-0.096-2.547c-0.022-0.641-0.035-1.096-0.041-1.423
	c-0.005-0.327-0.003-0.528,0.007-0.663s0.025-0.203,0.046-0.267c0.021-0.127,0.058-0.253,0.109-0.375
	c0.051-0.121,0.117-0.238,0.196-0.343c0.079-0.106,0.171-0.201,0.276-0.28c0.104-0.079,0.221-0.143,0.347-0.185
	c0.063-0.021,0.121-0.042,0.178-0.062c0.057-0.02,0.112-0.038,0.171-0.054c0.058-0.016,0.119-0.029,0.186-0.038
	c0.067-0.009,0.141-0.014,0.225-0.014c0.169,0,0.333,0.021,0.487,0.062c0.154,0.041,0.3,0.102,0.432,0.181s0.251,0.177,0.352,0.292
	c0.101,0.115,0.186,0.246,0.249,0.394c0.042,0.106,0.074,0.169,0.095,0.286c0.021,0.118,0.032,0.289,0.032,0.611
	c0,0.322-0.011,0.794-0.032,1.514c-0.021,0.719-0.053,1.685-0.095,2.995c-0.021,0.634-0.042,1.257-0.062,1.837
	c-0.02,0.581-0.038,1.119-0.054,1.584c-0.016,0.465-0.029,0.855-0.038,1.14c-0.009,0.285-0.014,0.465-0.014,0.507
	c0,0.148-0.005,0.275-0.018,0.387s-0.034,0.21-0.066,0.299c-0.032,0.09-0.074,0.171-0.129,0.252s-0.124,0.16-0.209,0.245
	c-0.063,0.106-0.143,0.19-0.234,0.256s-0.194,0.114-0.305,0.145c-0.111,0.032-0.229,0.048-0.352,0.05S50.106,45.356,49.979,45.335
	L49.979,45.335L49.979,45.335L49.979,45.335L49.979,45.335z M49.979,49.221c-0.169-0.042-0.327-0.116-0.467-0.214
	c-0.14-0.098-0.261-0.219-0.356-0.356s-0.164-0.29-0.198-0.451c-0.034-0.161-0.034-0.33,0.008-0.499
	c0.021-0.106,0.053-0.211,0.095-0.313s0.095-0.199,0.158-0.289c0.063-0.09,0.137-0.172,0.222-0.242s0.18-0.128,0.285-0.17
	c0.253-0.127,0.517-0.164,0.767-0.131s0.485,0.136,0.68,0.289c0.195,0.153,0.351,0.356,0.442,0.59s0.117,0.498,0.054,0.772
	c-0.042,0.19-0.121,0.359-0.228,0.503c-0.107,0.144-0.241,0.263-0.394,0.353c-0.153,0.09-0.325,0.15-0.506,0.178
	S50.169,49.263,49.979,49.221L49.979,49.221L49.979,49.221L49.979,49.221L49.979,49.221z"/>
<path id="path6804" inkscape:connector-curvature="0" style="fill:#003366;" d="M35.704,19.571c-0.19,0-0.37,0.037-0.532,0.104
	s-0.307,0.165-0.429,0.286c-0.122,0.122-0.219,0.267-0.287,0.429c-0.067,0.162-0.104,0.342-0.104,0.532
	c0,0.19,0.037,0.37,0.104,0.532c0.067,0.162,0.165,0.308,0.287,0.429c0.122,0.122,0.267,0.219,0.429,0.286s0.341,0.104,0.532,0.104
	l0,0l0,0l0,0l0,0v2.576v2.576v2.576v2.576l0,0l0,0l0,0l0,0c-0.19,0-0.37,0.037-0.532,0.104c-0.162,0.067-0.307,0.165-0.429,0.287
	c-0.122,0.121-0.219,0.266-0.287,0.429c-0.067,0.162-0.104,0.342-0.104,0.532s0.037,0.37,0.104,0.532
	c0.067,0.162,0.165,0.308,0.287,0.429c0.121,0.121,0.266,0.219,0.429,0.286s0.342,0.104,0.532,0.104l0,0l0,0l0,0l0,0v2.576v2.576
	v2.576v2.576l0,0l0,0l0,0l0,0c-0.19,0-0.37,0.037-0.532,0.104s-0.307,0.165-0.429,0.286c-0.122,0.122-0.219,0.267-0.287,0.429
	c-0.067,0.162-0.104,0.342-0.104,0.532c0,0.19,0.037,0.37,0.104,0.532c0.067,0.162,0.165,0.307,0.287,0.429
	c0.121,0.122,0.266,0.219,0.429,0.287s0.342,0.104,0.532,0.104l0,0l0,0l0,0l0,0v2.598v2.598v2.598v2.598l0,0l0,0l0,0l0,0
	c-0.19,0-0.37,0.037-0.532,0.104s-0.307,0.165-0.429,0.287c-0.122,0.121-0.219,0.266-0.287,0.429
	c-0.067,0.162-0.104,0.342-0.104,0.532c0,0.19,0.042,0.359,0.116,0.506s0.18,0.271,0.306,0.371c0.127,0.1,0.275,0.177,0.433,0.228
	c0.158,0.051,0.327,0.078,0.496,0.078h7.307h7.307h7.307h7.307c0.19,0,0.37-0.037,0.532-0.104s0.308-0.165,0.429-0.286
	c0.121-0.122,0.219-0.267,0.286-0.429c0.067-0.162,0.104-0.342,0.104-0.532c0-0.169-0.026-0.327-0.077-0.471
	s-0.124-0.273-0.219-0.384c-0.095-0.111-0.211-0.203-0.346-0.273c-0.135-0.07-0.288-0.118-0.457-0.139V56v-2.598v-2.598v-2.598
	c0.148-0.021,0.29-0.074,0.421-0.15s0.249-0.177,0.349-0.293c0.101-0.116,0.182-0.248,0.239-0.388s0.088-0.288,0.088-0.436
	c0-0.169-0.026-0.327-0.077-0.471s-0.124-0.273-0.219-0.384c-0.095-0.111-0.211-0.203-0.346-0.273
	c-0.135-0.07-0.288-0.117-0.457-0.138v-2.619v-2.619v-2.619v-2.619c0.148-0.021,0.29-0.074,0.421-0.15s0.249-0.177,0.349-0.293
	c0.101-0.116,0.182-0.248,0.239-0.388s0.088-0.288,0.088-0.436c0-0.148-0.026-0.296-0.077-0.436s-0.124-0.272-0.219-0.388
	s-0.211-0.216-0.346-0.293s-0.288-0.129-0.457-0.15v-2.619v-2.619v-2.619V22.19c0.148-0.021,0.29-0.074,0.421-0.15
	s0.249-0.177,0.349-0.293c0.101-0.116,0.182-0.248,0.239-0.388s0.088-0.288,0.088-0.436c0-0.19-0.037-0.37-0.104-0.532
	s-0.165-0.307-0.286-0.429c-0.122-0.122-0.267-0.219-0.429-0.287c-0.162-0.067-0.342-0.104-0.532-0.104c0,0-1.827,0-4.567,0
	c-2.74,0-6.394,0-10.047,0c-3.653,0-7.307,0-10.047,0S35.704,19.571,35.704,19.571z M50.317,28.61l2.935,2.935l2.935,2.935
	l2.935,2.935l2.935,2.935l-2.935,2.957l-2.935,2.957l-2.935,2.957l-2.935,2.957l-2.957-2.935l-2.957-2.935l-2.957-2.935
	l-2.957-2.935l2.957-2.957l2.957-2.957l2.957-2.957L50.317,28.61z"/>
<path id="path3356" style="fill:#003366;" d="M30.209,72.573v-1.805v-1.805v-1.805v-1.805h0.296h0.296h0.296h0.296v0.71v0.71v0.71
	v0.71h0.587h0.587h0.587h0.587v-0.71v-0.71v-0.71v-0.71h0.302h0.302h0.302h0.302v1.805v1.805v1.805v1.805h-0.302h-0.302h-0.302
	H33.74v-0.788v-0.788V70.21v-0.788h-0.587h-0.587H31.98h-0.587v0.788v0.788v0.788v0.788h-0.296h-0.296h-0.296H30.209z"/>
<path id="path3358" style="fill:#003366;" d="M36.802,68.93l-0.257-0.056l-0.257-0.056l-0.257-0.056l-0.257-0.056
	c0.028-0.134,0.063-0.258,0.104-0.373c0.041-0.115,0.089-0.219,0.142-0.314s0.112-0.18,0.175-0.256
	c0.064-0.075,0.132-0.141,0.205-0.197c0.073-0.056,0.152-0.106,0.24-0.15c0.087-0.044,0.182-0.082,0.286-0.112
	c0.103-0.031,0.215-0.054,0.336-0.071c0.121-0.016,0.251-0.024,0.39-0.024c0.123,0,0.237,0.004,0.344,0.013
	c0.106,0.008,0.205,0.021,0.296,0.038s0.174,0.038,0.25,0.063c0.076,0.025,0.144,0.054,0.206,0.088
	c0.061,0.034,0.119,0.07,0.172,0.109c0.053,0.039,0.102,0.082,0.147,0.128c0.045,0.046,0.085,0.096,0.122,0.149
	c0.036,0.053,0.068,0.111,0.096,0.172c0.028,0.056,0.052,0.124,0.072,0.205c0.02,0.081,0.036,0.174,0.048,0.278
	c0.013,0.105,0.022,0.221,0.027,0.35s0.009,0.268,0.009,0.419v0.402v0.402v0.402v0.402c0,0.112,0.001,0.217,0.004,0.314
	c0.002,0.098,0.006,0.189,0.01,0.272c0.004,0.084,0.009,0.161,0.014,0.23c0.005,0.07,0.011,0.133,0.016,0.189
	c0.011,0.056,0.022,0.112,0.035,0.168c0.012,0.056,0.026,0.113,0.041,0.17c0.015,0.057,0.033,0.115,0.053,0.174
	c0.021,0.059,0.044,0.119,0.072,0.181h-0.279h-0.279h-0.279h-0.279l-0.039-0.145l-0.039-0.145l-0.039-0.145l-0.039-0.145
	c-0.05,0.056-0.101,0.109-0.151,0.159c-0.051,0.05-0.102,0.097-0.153,0.14c-0.052,0.043-0.104,0.083-0.158,0.119
	c-0.053,0.036-0.108,0.068-0.164,0.096c-0.056,0.028-0.112,0.053-0.168,0.075s-0.113,0.041-0.17,0.056
	c-0.057,0.015-0.115,0.027-0.174,0.035c-0.059,0.008-0.119,0.012-0.181,0.012c-0.106,0-0.207-0.008-0.302-0.026
	s-0.185-0.043-0.271-0.078c-0.085-0.035-0.166-0.079-0.241-0.132c-0.076-0.053-0.147-0.116-0.214-0.189
	c-0.067-0.073-0.126-0.151-0.176-0.234c-0.05-0.083-0.092-0.172-0.126-0.266c-0.034-0.094-0.059-0.192-0.075-0.295
	c-0.017-0.103-0.025-0.211-0.025-0.322c0-0.073,0.003-0.144,0.009-0.213s0.015-0.137,0.028-0.203
	c0.013-0.066,0.029-0.129,0.049-0.19c0.02-0.061,0.044-0.12,0.071-0.176c0.028-0.056,0.059-0.109,0.092-0.159
	c0.034-0.05,0.07-0.098,0.109-0.142c0.039-0.045,0.081-0.087,0.126-0.126c0.045-0.039,0.092-0.075,0.142-0.109
	c0.05-0.034,0.108-0.066,0.172-0.097c0.064-0.031,0.135-0.061,0.214-0.09c0.078-0.029,0.163-0.058,0.256-0.086
	c0.092-0.028,0.191-0.056,0.298-0.084c0.129-0.028,0.249-0.056,0.36-0.084c0.111-0.028,0.213-0.056,0.305-0.084
	s0.175-0.056,0.247-0.084c0.072-0.028,0.133-0.056,0.184-0.084c0-0.073-0.001-0.14-0.004-0.201
	c-0.003-0.061-0.007-0.116-0.013-0.165c-0.006-0.049-0.013-0.092-0.021-0.127c-0.008-0.036-0.018-0.065-0.029-0.088
	c-0.011-0.022-0.024-0.045-0.038-0.066c-0.014-0.022-0.03-0.043-0.048-0.062c-0.018-0.02-0.038-0.038-0.061-0.054
	c-0.023-0.016-0.048-0.03-0.076-0.041c-0.028-0.017-0.059-0.031-0.092-0.042s-0.07-0.021-0.109-0.027
	c-0.039-0.007-0.081-0.012-0.126-0.015s-0.092-0.005-0.142-0.005c-0.05,0-0.098,0.003-0.143,0.008s-0.088,0.014-0.128,0.025
	c-0.041,0.011-0.079,0.025-0.116,0.042c-0.037,0.017-0.072,0.036-0.105,0.059c-0.028,0.045-0.054,0.089-0.08,0.135
	s-0.049,0.093-0.071,0.142c-0.022,0.049-0.043,0.1-0.062,0.154S36.819,68.869,36.802,68.93L36.802,68.93L36.802,68.93L36.802,68.93
	L36.802,68.93z M38.322,70.07c-0.034,0.017-0.074,0.034-0.12,0.05s-0.099,0.034-0.156,0.05c-0.057,0.017-0.119,0.034-0.185,0.05
	c-0.066,0.017-0.136,0.034-0.208,0.05c-0.089,0.022-0.17,0.046-0.243,0.071c-0.073,0.025-0.138,0.051-0.195,0.077
	c-0.057,0.026-0.107,0.054-0.149,0.081c-0.042,0.028-0.077,0.056-0.105,0.083c-0.028,0.028-0.052,0.059-0.072,0.091
	c-0.02,0.033-0.036,0.068-0.048,0.104c-0.013,0.036-0.022,0.074-0.028,0.112s-0.009,0.078-0.009,0.117
	c0,0.05,0.004,0.099,0.012,0.146c0.008,0.047,0.02,0.092,0.035,0.136c0.015,0.043,0.034,0.085,0.056,0.123
	c0.022,0.039,0.047,0.075,0.075,0.109c0.028,0.034,0.059,0.063,0.092,0.088c0.033,0.025,0.069,0.046,0.106,0.063
	s0.077,0.029,0.119,0.038c0.042,0.008,0.085,0.013,0.13,0.013c0.039,0,0.078-0.003,0.118-0.009c0.039-0.006,0.079-0.015,0.12-0.028
	c0.04-0.013,0.082-0.029,0.124-0.049c0.042-0.02,0.086-0.044,0.13-0.072c0.039-0.028,0.075-0.057,0.109-0.088
	c0.033-0.03,0.063-0.062,0.09-0.094c0.026-0.032,0.05-0.065,0.069-0.098c0.019-0.033,0.035-0.067,0.046-0.1
	c0.017-0.039,0.031-0.085,0.042-0.139c0.012-0.053,0.021-0.114,0.027-0.183c0.007-0.068,0.012-0.145,0.015-0.229
	c0.003-0.084,0.005-0.176,0.005-0.277v-0.073v-0.073l0-0.072L38.322,70.07L38.322,70.07L38.322,70.07L38.322,70.07L38.322,70.07z"/>
<path id="path3360" style="fill:#003366;" d="M39.886,72.573v-0.268v-0.268v-0.268v-0.268l0.402-0.564l0.402-0.564l0.402-0.564
	l0.402-0.564c0.067-0.095,0.13-0.182,0.188-0.261c0.058-0.079,0.112-0.15,0.161-0.214c0.049-0.064,0.093-0.122,0.132-0.173
	c0.039-0.051,0.072-0.096,0.1-0.135c-0.034,0-0.07,0.001-0.109,0.003s-0.08,0.005-0.123,0.008c-0.043,0.003-0.089,0.006-0.136,0.008
	c-0.047,0.002-0.096,0.003-0.146,0.003h-0.38h-0.38h-0.38h-0.38v-0.291v-0.291v-0.291v-0.291h0.888h0.888h0.888h0.888v0.246v0.246
	v0.246v0.246l-0.413,0.576l-0.413,0.576l-0.413,0.576l-0.413,0.576l-0.145,0.19l-0.145,0.19l-0.145,0.19l-0.145,0.19
	c0.078-0.006,0.149-0.01,0.213-0.013s0.12-0.005,0.169-0.007c0.049-0.001,0.09-0.002,0.123-0.002c0.033,0,0.058,0,0.075,0h0.441
	h0.441h0.441h0.441v0.307v0.307v0.307v0.307h-0.955h-0.955l-0.955,0H39.886L39.886,72.573L39.886,72.573L39.886,72.573
	L39.886,72.573z"/>
<path id="path3362" style="fill:#003366;" d="M45.116,68.93l-0.257-0.056l-0.257-0.056l-0.257-0.056l-0.257-0.056
	c0.028-0.134,0.063-0.258,0.104-0.373c0.041-0.115,0.089-0.219,0.142-0.314s0.112-0.18,0.175-0.256
	c0.064-0.075,0.132-0.141,0.205-0.197c0.073-0.056,0.152-0.106,0.24-0.15c0.087-0.044,0.182-0.082,0.286-0.112
	c0.103-0.031,0.215-0.054,0.336-0.071c0.121-0.016,0.251-0.024,0.39-0.024c0.123,0,0.237,0.004,0.344,0.013
	c0.107,0.008,0.205,0.021,0.296,0.038c0.091,0.017,0.174,0.038,0.25,0.063c0.076,0.025,0.144,0.054,0.206,0.088
	s0.119,0.07,0.172,0.109c0.053,0.039,0.102,0.082,0.147,0.128c0.045,0.046,0.085,0.096,0.122,0.149s0.068,0.111,0.096,0.172
	c0.028,0.056,0.052,0.124,0.072,0.205c0.02,0.081,0.036,0.174,0.048,0.278s0.022,0.221,0.028,0.35s0.009,0.268,0.009,0.419v0.402
	v0.402v0.402v0.402c0,0.112,0.001,0.217,0.004,0.314c0.002,0.098,0.006,0.189,0.01,0.272c0.004,0.084,0.009,0.161,0.014,0.23
	c0.005,0.07,0.011,0.133,0.016,0.189c0.011,0.056,0.022,0.112,0.035,0.168s0.025,0.113,0.041,0.17
	c0.015,0.057,0.033,0.115,0.053,0.174c0.021,0.059,0.044,0.119,0.072,0.181h-0.279H47.44h-0.279h-0.279l-0.039-0.145l-0.039-0.145
	l-0.039-0.145l-0.039-0.145c-0.05,0.056-0.101,0.109-0.151,0.159c-0.051,0.05-0.102,0.097-0.153,0.14
	c-0.052,0.043-0.104,0.083-0.158,0.119c-0.053,0.036-0.108,0.068-0.164,0.096c-0.056,0.028-0.112,0.053-0.168,0.075
	c-0.056,0.022-0.113,0.041-0.17,0.056c-0.057,0.015-0.115,0.027-0.174,0.035s-0.119,0.012-0.181,0.012
	c-0.106,0-0.207-0.008-0.302-0.026s-0.185-0.043-0.271-0.078c-0.085-0.035-0.166-0.079-0.241-0.132
	c-0.076-0.053-0.147-0.116-0.214-0.189c-0.067-0.073-0.126-0.151-0.176-0.234c-0.05-0.083-0.092-0.172-0.126-0.266
	c-0.034-0.094-0.059-0.192-0.075-0.295c-0.017-0.103-0.025-0.211-0.025-0.322c0-0.073,0.003-0.144,0.009-0.213
	c0.006-0.069,0.015-0.137,0.027-0.203c0.013-0.066,0.029-0.129,0.049-0.19c0.02-0.061,0.044-0.12,0.071-0.176
	c0.028-0.056,0.059-0.109,0.092-0.159c0.034-0.05,0.07-0.098,0.109-0.142c0.039-0.045,0.081-0.087,0.126-0.126
	c0.045-0.039,0.092-0.075,0.142-0.109c0.05-0.034,0.108-0.066,0.172-0.097c0.064-0.031,0.135-0.061,0.214-0.09
	c0.078-0.029,0.163-0.058,0.256-0.086c0.092-0.028,0.191-0.056,0.298-0.084c0.129-0.028,0.249-0.056,0.36-0.084
	c0.111-0.028,0.213-0.056,0.305-0.084s0.175-0.056,0.247-0.084s0.133-0.056,0.184-0.084c0-0.073-0.001-0.14-0.004-0.201
	c-0.003-0.061-0.007-0.116-0.013-0.165c-0.006-0.049-0.013-0.092-0.021-0.127c-0.008-0.036-0.018-0.065-0.029-0.088
	c-0.011-0.022-0.024-0.045-0.038-0.066c-0.014-0.022-0.03-0.043-0.048-0.062c-0.018-0.02-0.038-0.038-0.061-0.054
	c-0.023-0.016-0.048-0.03-0.076-0.041c-0.028-0.017-0.059-0.031-0.092-0.042s-0.07-0.021-0.109-0.027
	c-0.039-0.007-0.081-0.012-0.126-0.015s-0.092-0.005-0.142-0.005c-0.05,0-0.098,0.003-0.143,0.008
	c-0.045,0.006-0.088,0.014-0.128,0.025c-0.041,0.011-0.079,0.025-0.116,0.042c-0.037,0.017-0.072,0.036-0.105,0.059
	c-0.028,0.045-0.054,0.089-0.08,0.135s-0.049,0.093-0.071,0.142c-0.022,0.049-0.043,0.1-0.063,0.154
	C45.151,68.812,45.133,68.869,45.116,68.93L45.116,68.93L45.116,68.93L45.116,68.93L45.116,68.93z M46.613,70.07
	c-0.034,0.017-0.074,0.034-0.12,0.05c-0.046,0.017-0.099,0.034-0.156,0.05c-0.057,0.017-0.119,0.034-0.185,0.05
	c-0.066,0.017-0.136,0.034-0.208,0.05c-0.089,0.022-0.17,0.046-0.243,0.071c-0.073,0.025-0.138,0.051-0.195,0.077
	c-0.057,0.026-0.107,0.054-0.149,0.081c-0.042,0.028-0.077,0.056-0.105,0.083c-0.028,0.028-0.052,0.059-0.072,0.091
	c-0.02,0.033-0.036,0.068-0.048,0.104c-0.013,0.036-0.022,0.074-0.028,0.112c-0.006,0.038-0.009,0.078-0.009,0.117
	c0,0.05,0.004,0.099,0.012,0.146c0.008,0.047,0.02,0.092,0.035,0.136c0.015,0.043,0.034,0.085,0.056,0.123
	c0.022,0.039,0.047,0.075,0.075,0.109c0.028,0.034,0.059,0.063,0.092,0.088c0.033,0.025,0.069,0.046,0.106,0.063
	c0.038,0.017,0.078,0.029,0.119,0.038c0.042,0.008,0.085,0.013,0.13,0.013c0.039,0,0.078-0.003,0.118-0.009s0.079-0.015,0.12-0.028
	c0.041-0.013,0.082-0.029,0.124-0.049c0.042-0.02,0.085-0.044,0.13-0.072c0.039-0.028,0.075-0.057,0.109-0.088
	c0.033-0.03,0.063-0.062,0.09-0.094c0.026-0.032,0.05-0.065,0.069-0.098s0.035-0.067,0.046-0.1c0.017-0.039,0.031-0.085,0.042-0.139
	c0.012-0.053,0.021-0.114,0.027-0.183c0.007-0.069,0.012-0.145,0.015-0.229c0.003-0.084,0.005-0.176,0.005-0.277v-0.073v-0.073
	l0-0.072L46.613,70.07L46.613,70.07L46.613,70.07L46.613,70.07L46.613,70.07z"/>
<path id="path3364" style="fill:#003366;" d="M49.742,72.573h-0.285h-0.285h-0.285h-0.285v-1.307v-1.307v-1.307v-1.307h0.263h0.263
	h0.263h0.263v0.184v0.184v0.184v0.184c0.045-0.089,0.088-0.17,0.13-0.243s0.083-0.138,0.124-0.195
	c0.041-0.057,0.08-0.107,0.12-0.149s0.079-0.077,0.118-0.105c0.034-0.028,0.07-0.053,0.108-0.075s0.079-0.041,0.121-0.056
	c0.042-0.015,0.085-0.027,0.129-0.035c0.044-0.008,0.089-0.012,0.133-0.012c0.067,0,0.133,0.006,0.197,0.017
	c0.064,0.011,0.127,0.028,0.189,0.05c0.061,0.022,0.122,0.05,0.18,0.084c0.059,0.034,0.116,0.073,0.172,0.117l-0.089,0.302
	l-0.089,0.302l-0.089,0.302l-0.089,0.302c-0.05-0.039-0.098-0.073-0.144-0.101c-0.046-0.028-0.09-0.051-0.133-0.07
	c-0.043-0.018-0.086-0.031-0.129-0.04c-0.043-0.009-0.086-0.013-0.131-0.013c-0.039,0-0.077,0.004-0.114,0.012
	s-0.072,0.02-0.107,0.035c-0.035,0.015-0.069,0.034-0.103,0.056c-0.034,0.022-0.067,0.047-0.101,0.075
	c-0.028,0.028-0.054,0.061-0.08,0.101c-0.025,0.039-0.049,0.085-0.071,0.136c-0.022,0.052-0.043,0.11-0.063,0.174
	c-0.019,0.065-0.038,0.136-0.054,0.214c-0.017,0.078-0.031,0.172-0.042,0.281c-0.012,0.109-0.021,0.233-0.027,0.373
	s-0.012,0.295-0.015,0.465s-0.005,0.356-0.005,0.557l0.011,0.408l0.011,0.408l0.011,0.408L49.742,72.573L49.742,72.573
	L49.742,72.573L49.742,72.573L49.742,72.573z"/>
<path id="path3366" style="fill:#003366;" d="M55.553,72.573h-0.268h-0.268h-0.268h-0.268v-0.196v-0.196v-0.196v-0.196
	c-0.045,0.073-0.091,0.141-0.139,0.205s-0.097,0.124-0.149,0.18c-0.052,0.056-0.106,0.108-0.162,0.155
	c-0.056,0.047-0.115,0.091-0.176,0.13c-0.061,0.039-0.123,0.073-0.184,0.101c-0.061,0.028-0.123,0.051-0.184,0.069
	c-0.061,0.018-0.123,0.032-0.184,0.04c-0.061,0.009-0.123,0.013-0.184,0.013c-0.123,0-0.24-0.015-0.353-0.046
	c-0.112-0.03-0.22-0.076-0.323-0.136c-0.103-0.06-0.203-0.135-0.298-0.224s-0.188-0.192-0.277-0.31
	c-0.089-0.123-0.168-0.257-0.235-0.403c-0.067-0.146-0.123-0.304-0.168-0.474s-0.078-0.353-0.101-0.55
	c-0.022-0.196-0.034-0.406-0.034-0.629c0-0.223,0.011-0.433,0.033-0.629c0.022-0.196,0.055-0.378,0.098-0.547
	c0.043-0.169,0.097-0.325,0.161-0.468s0.138-0.273,0.222-0.39c0.089-0.117,0.183-0.218,0.281-0.303
	c0.098-0.085,0.2-0.154,0.306-0.209c0.106-0.054,0.217-0.094,0.331-0.12c0.115-0.026,0.233-0.039,0.356-0.039
	c0.061,0,0.122,0.004,0.18,0.012c0.059,0.008,0.116,0.02,0.172,0.035c0.056,0.015,0.11,0.034,0.163,0.056
	c0.053,0.022,0.105,0.047,0.155,0.075c0.05,0.028,0.101,0.06,0.151,0.097c0.05,0.037,0.1,0.078,0.149,0.124
	c0.049,0.046,0.097,0.097,0.144,0.153c0.047,0.056,0.093,0.118,0.138,0.185v-0.654v-0.654v-0.654v-0.654h0.285h0.285h0.285h0.285
	l0.011,1.81l0.011,1.81l0.011,1.81L55.553,72.573L55.553,72.573L55.553,72.573L55.553,72.573L55.553,72.573z M52.536,69.847
	c0,0.117,0.003,0.228,0.008,0.331c0.005,0.103,0.013,0.2,0.023,0.289c0.01,0.089,0.022,0.172,0.035,0.247s0.029,0.144,0.046,0.205
	c0.022,0.056,0.046,0.109,0.071,0.159c0.025,0.05,0.052,0.097,0.08,0.14c0.028,0.043,0.057,0.083,0.088,0.119
	s0.063,0.068,0.096,0.096c0.039,0.028,0.078,0.053,0.118,0.075s0.08,0.041,0.122,0.056c0.042,0.015,0.085,0.027,0.131,0.035
	s0.093,0.012,0.143,0.012c0.061,0,0.122-0.008,0.18-0.025c0.058-0.017,0.115-0.042,0.169-0.075c0.054-0.034,0.107-0.075,0.157-0.126
	c0.05-0.05,0.097-0.109,0.142-0.176c0.045-0.067,0.085-0.142,0.121-0.227s0.066-0.177,0.091-0.279
	c0.025-0.102,0.045-0.213,0.058-0.334c0.013-0.12,0.02-0.25,0.02-0.39c0-0.151-0.006-0.291-0.017-0.419
	c-0.011-0.129-0.028-0.247-0.05-0.354c-0.022-0.108-0.05-0.205-0.084-0.291c-0.034-0.087-0.073-0.164-0.117-0.231
	c-0.045-0.067-0.092-0.126-0.142-0.176c-0.05-0.05-0.103-0.092-0.159-0.126c-0.056-0.034-0.115-0.059-0.176-0.075
	c-0.061-0.017-0.126-0.025-0.193-0.025s-0.131,0.008-0.193,0.025s-0.12,0.041-0.176,0.073s-0.109,0.072-0.159,0.119
	c-0.05,0.047-0.098,0.102-0.142,0.163c-0.05,0.067-0.094,0.141-0.13,0.223s-0.067,0.171-0.091,0.269
	c-0.024,0.098-0.041,0.204-0.053,0.319C52.542,69.588,52.536,69.713,52.536,69.847L52.536,69.847L52.536,69.847L52.536,69.847
	L52.536,69.847z"/>
<path id="path3368" style="fill:#003366;" d="M56.202,69.869c0-0.129,0.006-0.254,0.017-0.377c0.012-0.123,0.03-0.243,0.055-0.36
	c0.025-0.117,0.057-0.232,0.097-0.344s0.087-0.221,0.143-0.327c0.05-0.106,0.105-0.205,0.163-0.298
	c0.059-0.092,0.122-0.177,0.189-0.256c0.067-0.078,0.138-0.149,0.214-0.214s0.155-0.122,0.239-0.172
	c0.084-0.05,0.169-0.095,0.256-0.134c0.087-0.039,0.177-0.072,0.269-0.098s0.187-0.047,0.286-0.06
	c0.098-0.014,0.2-0.021,0.307-0.021c0.173,0,0.337,0.017,0.491,0.05c0.154,0.034,0.299,0.084,0.434,0.151
	c0.135,0.067,0.262,0.151,0.38,0.251c0.118,0.101,0.227,0.218,0.327,0.352c0.095,0.134,0.179,0.274,0.251,0.419
	c0.072,0.146,0.133,0.297,0.182,0.455c0.049,0.158,0.086,0.322,0.111,0.493c0.025,0.171,0.037,0.348,0.037,0.532
	c0,0.134-0.006,0.265-0.017,0.394c-0.012,0.128-0.03,0.253-0.055,0.375c-0.025,0.121-0.057,0.239-0.097,0.354
	s-0.087,0.225-0.143,0.331c-0.05,0.106-0.105,0.207-0.163,0.301c-0.059,0.095-0.122,0.183-0.189,0.266
	c-0.067,0.082-0.138,0.159-0.214,0.228c-0.075,0.07-0.155,0.132-0.239,0.188c-0.084,0.056-0.169,0.103-0.256,0.143
	S59.1,72.565,59.01,72.59c-0.091,0.025-0.184,0.043-0.279,0.055s-0.193,0.017-0.294,0.017c-0.162,0-0.316-0.015-0.462-0.046
	s-0.284-0.077-0.416-0.138s-0.256-0.138-0.374-0.23s-0.23-0.2-0.336-0.323c-0.106-0.123-0.2-0.256-0.28-0.4s-0.148-0.3-0.203-0.469
	c-0.055-0.169-0.096-0.351-0.123-0.549S56.202,70.098,56.202,69.869z M57.364,69.959c0,0.134,0.006,0.26,0.017,0.377
	c0.012,0.117,0.03,0.226,0.055,0.327c0.025,0.101,0.057,0.193,0.097,0.277c0.04,0.084,0.087,0.159,0.143,0.226
	c0.05,0.067,0.105,0.126,0.163,0.176c0.058,0.05,0.119,0.092,0.184,0.126s0.131,0.059,0.2,0.075s0.14,0.025,0.213,0.025
	s0.142-0.008,0.21-0.025c0.067-0.017,0.131-0.042,0.193-0.075c0.061-0.034,0.12-0.075,0.176-0.126s0.109-0.109,0.159-0.176
	c0.05-0.067,0.095-0.142,0.134-0.226c0.039-0.084,0.072-0.176,0.098-0.277c0.027-0.101,0.047-0.21,0.061-0.327
	c0.014-0.117,0.021-0.243,0.021-0.377c0-0.129-0.006-0.25-0.017-0.364c-0.012-0.114-0.03-0.221-0.055-0.32
	c-0.025-0.099-0.057-0.191-0.097-0.274c-0.04-0.083-0.087-0.159-0.143-0.226c-0.05-0.067-0.103-0.126-0.159-0.176
	s-0.115-0.092-0.176-0.126s-0.126-0.059-0.193-0.075c-0.067-0.017-0.137-0.025-0.21-0.025c-0.073,0-0.142,0.008-0.21,0.025
	s-0.131,0.042-0.193,0.075c-0.061,0.034-0.12,0.075-0.176,0.126s-0.109,0.109-0.159,0.176c-0.056,0.061-0.105,0.133-0.147,0.213
	c-0.042,0.081-0.077,0.171-0.105,0.27c-0.028,0.099-0.049,0.208-0.063,0.325S57.364,69.824,57.364,69.959L57.364,69.959
	L57.364,69.959L57.364,69.959L57.364,69.959z"/>
<path id="path3370" style="fill:#003366;" d="M64.136,72.573v-0.196v-0.196v-0.196v-0.196c-0.039,0.073-0.081,0.14-0.126,0.202
	c-0.045,0.063-0.093,0.121-0.145,0.175c-0.052,0.054-0.107,0.105-0.166,0.154c-0.059,0.049-0.122,0.095-0.189,0.139
	c-0.067,0.039-0.133,0.074-0.198,0.104c-0.065,0.03-0.13,0.056-0.196,0.077s-0.132,0.037-0.2,0.048
	c-0.068,0.011-0.138,0.017-0.21,0.017c-0.073,0-0.142-0.004-0.21-0.013c-0.067-0.009-0.132-0.022-0.195-0.04
	c-0.063-0.018-0.124-0.041-0.183-0.069c-0.059-0.028-0.116-0.062-0.172-0.101c-0.056-0.039-0.108-0.081-0.155-0.126
	c-0.048-0.045-0.092-0.093-0.132-0.145c-0.041-0.052-0.078-0.107-0.111-0.166s-0.065-0.122-0.092-0.189
	c-0.028-0.067-0.052-0.142-0.072-0.226c-0.02-0.083-0.036-0.175-0.049-0.274c-0.013-0.099-0.022-0.206-0.027-0.32
	s-0.009-0.236-0.009-0.364v-0.827V69.02v-0.827v-0.827h0.285h0.285h0.285h0.285v0.603v0.603v0.603v0.603
	c0,0.173,0.001,0.33,0.004,0.47c0.002,0.14,0.006,0.265,0.01,0.374c0.004,0.109,0.009,0.203,0.014,0.281
	c0.005,0.079,0.011,0.143,0.017,0.193c0.011,0.045,0.024,0.088,0.038,0.129s0.03,0.08,0.049,0.117c0.018,0.036,0.038,0.07,0.061,0.1
	c0.023,0.03,0.048,0.057,0.076,0.079c0.028,0.022,0.059,0.043,0.091,0.062s0.068,0.036,0.104,0.05s0.074,0.025,0.112,0.033
	c0.038,0.008,0.078,0.012,0.117,0.012c0.05,0,0.099-0.004,0.147-0.013s0.094-0.021,0.138-0.038s0.088-0.038,0.13-0.063
	c0.042-0.025,0.082-0.054,0.122-0.088c0.039-0.034,0.075-0.07,0.109-0.109c0.033-0.039,0.063-0.08,0.09-0.123
	c0.027-0.043,0.05-0.089,0.069-0.136c0.019-0.047,0.035-0.096,0.046-0.146c0.011-0.05,0.022-0.117,0.033-0.201
	c0.01-0.083,0.02-0.183,0.029-0.299c0.008-0.116,0.015-0.248,0.02-0.396c0.005-0.148,0.008-0.311,0.008-0.49v-0.553v-0.553v-0.553
	v-0.553h0.285h0.285h0.285h0.285v1.307v1.307v1.307v1.307H64.94h-0.268h-0.268h-0.268V72.59v-0.006v-0.006V72.573z"/>
<path id="path3372" style="fill:#003366;" d="M65.745,71.076l0.285-0.05l0.285-0.05l0.285-0.05l0.285-0.05
	c0.022,0.14,0.059,0.261,0.109,0.365s0.113,0.19,0.19,0.258c0.077,0.068,0.167,0.119,0.27,0.153
	c0.103,0.034,0.219,0.051,0.347,0.051c0.067,0,0.131-0.003,0.192-0.009c0.06-0.006,0.117-0.015,0.169-0.028
	c0.052-0.013,0.098-0.029,0.139-0.049c0.041-0.02,0.076-0.044,0.104-0.072c0.034-0.022,0.063-0.049,0.088-0.079
	c0.025-0.03,0.046-0.063,0.063-0.098c0.017-0.035,0.029-0.072,0.038-0.11s0.013-0.077,0.013-0.116c0-0.028-0.001-0.054-0.005-0.08
	c-0.003-0.025-0.008-0.049-0.015-0.071c-0.007-0.022-0.016-0.043-0.028-0.063s-0.026-0.038-0.042-0.054s-0.038-0.032-0.062-0.047
	c-0.025-0.015-0.053-0.029-0.086-0.043c-0.032-0.014-0.068-0.028-0.107-0.043c-0.039-0.015-0.081-0.03-0.125-0.047
	c-0.235-0.061-0.447-0.123-0.638-0.184c-0.191-0.061-0.36-0.121-0.508-0.18c-0.148-0.059-0.275-0.116-0.382-0.171
	c-0.107-0.055-0.193-0.108-0.261-0.159c-0.078-0.073-0.147-0.151-0.205-0.235s-0.108-0.174-0.147-0.271
	c-0.039-0.096-0.068-0.199-0.088-0.308c-0.02-0.109-0.029-0.225-0.029-0.348c0-0.123,0.01-0.239,0.029-0.348
	c0.02-0.109,0.049-0.212,0.088-0.308c0.039-0.096,0.088-0.187,0.147-0.271c0.059-0.084,0.127-0.162,0.205-0.235
	c0.078-0.073,0.165-0.137,0.26-0.192s0.198-0.102,0.31-0.14c0.112-0.038,0.232-0.066,0.36-0.086
	c0.129-0.019,0.265-0.029,0.411-0.029c0.14,0,0.271,0.007,0.394,0.021c0.123,0.014,0.237,0.035,0.344,0.063
	c0.106,0.028,0.204,0.063,0.293,0.105c0.089,0.042,0.17,0.091,0.243,0.147c0.073,0.056,0.14,0.12,0.202,0.192
	c0.062,0.072,0.118,0.153,0.17,0.241c0.052,0.088,0.099,0.184,0.141,0.287c0.042,0.103,0.08,0.213,0.113,0.331l-0.268,0.061
	l-0.268,0.061l-0.268,0.061l-0.268,0.061c-0.022-0.106-0.056-0.198-0.101-0.277s-0.101-0.143-0.168-0.195
	c-0.067-0.052-0.145-0.09-0.235-0.116s-0.19-0.038-0.302-0.038c-0.073,0-0.14,0.003-0.201,0.008
	c-0.061,0.005-0.117,0.013-0.168,0.023c-0.05,0.01-0.095,0.022-0.134,0.035c-0.039,0.014-0.073,0.029-0.101,0.046
	c-0.028,0.022-0.053,0.045-0.075,0.068s-0.041,0.047-0.056,0.072c-0.015,0.025-0.027,0.052-0.035,0.08s-0.012,0.059-0.012,0.093
	c0,0.028,0.003,0.054,0.009,0.08s0.015,0.05,0.028,0.074c0.013,0.024,0.029,0.047,0.049,0.069s0.044,0.045,0.072,0.067
	c0.028,0.022,0.07,0.046,0.126,0.072s0.126,0.053,0.21,0.082c0.084,0.029,0.182,0.061,0.293,0.095
	c0.112,0.034,0.237,0.07,0.377,0.109c0.156,0.045,0.302,0.091,0.435,0.139c0.133,0.048,0.255,0.098,0.364,0.152
	s0.205,0.109,0.288,0.168c0.083,0.059,0.153,0.122,0.209,0.189c0.056,0.061,0.105,0.129,0.147,0.201
	c0.042,0.073,0.077,0.151,0.105,0.235c0.028,0.084,0.049,0.173,0.063,0.268c0.014,0.095,0.021,0.196,0.021,0.302
	c0,0.129-0.011,0.25-0.033,0.365s-0.055,0.224-0.098,0.328c-0.043,0.103-0.097,0.201-0.161,0.294
	c-0.064,0.093-0.138,0.181-0.222,0.265c-0.084,0.084-0.177,0.156-0.28,0.218c-0.103,0.062-0.214,0.113-0.335,0.153
	c-0.12,0.04-0.249,0.071-0.385,0.09c-0.136,0.02-0.28,0.03-0.431,0.03c-0.14,0-0.272-0.008-0.398-0.025s-0.245-0.042-0.359-0.075
	c-0.113-0.034-0.22-0.075-0.321-0.126c-0.101-0.05-0.196-0.109-0.285-0.176c-0.084-0.073-0.161-0.152-0.23-0.239
	c-0.07-0.087-0.133-0.181-0.189-0.283c-0.056-0.102-0.105-0.212-0.147-0.33S65.773,71.21,65.745,71.076L65.745,71.076L65.745,71.076
	L65.745,71.076L65.745,71.076z"/>
<path id="path3374" style="fill:#003366;" d="M33.405,82.676v-1.805v-1.805v-1.805v-1.805h0.447h0.447h0.447h0.447l0.268,1.235
	l0.268,1.235l0.268,1.235l0.268,1.235l0.268-1.235l0.268-1.235l0.268-1.235l0.268-1.235h0.447h0.447h0.447h0.447v1.805v1.805v1.805
	v1.805h-0.279h-0.279h-0.279h-0.279v-1.425v-1.425v-1.425v-1.425l-0.296,1.425l-0.296,1.425l-0.296,1.425l-0.296,1.425h-0.291
	h-0.291h-0.291h-0.291l-0.291-1.425l-0.291-1.425l-0.291-1.425L34.5,76.976v1.425v1.425v1.425v1.425h-0.274h-0.274h-0.274H33.405z"
	/>
<path id="path3376" style="fill:#003366;" d="M40.937,79.033l-0.257-0.056l-0.257-0.056l-0.257-0.056l-0.257-0.056
	c0.028-0.134,0.063-0.258,0.104-0.373c0.041-0.115,0.089-0.219,0.142-0.314s0.112-0.18,0.175-0.256
	c0.064-0.075,0.132-0.141,0.205-0.197c0.073-0.056,0.152-0.106,0.24-0.15c0.087-0.044,0.182-0.082,0.286-0.112
	c0.103-0.031,0.215-0.054,0.336-0.071c0.121-0.016,0.251-0.024,0.39-0.024c0.123,0,0.237,0.004,0.344,0.013
	c0.107,0.008,0.205,0.021,0.296,0.038c0.091,0.017,0.174,0.038,0.25,0.063c0.076,0.025,0.144,0.054,0.206,0.088
	s0.119,0.07,0.172,0.109c0.053,0.039,0.102,0.082,0.147,0.128c0.045,0.046,0.085,0.096,0.122,0.149
	c0.036,0.053,0.068,0.111,0.096,0.172c0.028,0.056,0.052,0.124,0.072,0.205c0.02,0.081,0.036,0.174,0.048,0.278
	s0.022,0.221,0.028,0.35s0.009,0.268,0.009,0.419v0.402v0.402v0.402v0.402c0,0.112,0.001,0.217,0.004,0.314
	c0.002,0.098,0.006,0.189,0.01,0.272c0.004,0.084,0.009,0.161,0.014,0.23c0.005,0.07,0.011,0.133,0.016,0.189
	c0.011,0.056,0.022,0.112,0.035,0.168c0.012,0.056,0.025,0.113,0.041,0.17c0.015,0.057,0.033,0.115,0.053,0.174
	c0.021,0.059,0.044,0.119,0.072,0.181H43.54h-0.279h-0.279h-0.279l-0.039-0.145l-0.039-0.145l-0.039-0.145l-0.039-0.145
	c-0.05,0.056-0.101,0.109-0.151,0.159c-0.051,0.05-0.102,0.097-0.153,0.14c-0.052,0.043-0.104,0.083-0.158,0.119
	c-0.053,0.036-0.108,0.068-0.164,0.096s-0.112,0.053-0.168,0.075c-0.056,0.022-0.113,0.041-0.17,0.056
	c-0.057,0.015-0.115,0.027-0.174,0.035s-0.119,0.012-0.181,0.012c-0.106,0-0.207-0.008-0.302-0.026
	c-0.095-0.017-0.185-0.043-0.271-0.078c-0.085-0.035-0.166-0.079-0.241-0.132c-0.076-0.053-0.147-0.116-0.214-0.189
	c-0.067-0.073-0.126-0.151-0.176-0.234c-0.05-0.083-0.092-0.172-0.126-0.266c-0.034-0.094-0.059-0.192-0.075-0.295
	s-0.025-0.211-0.025-0.322c0-0.073,0.003-0.144,0.009-0.213s0.015-0.137,0.028-0.203c0.013-0.066,0.029-0.129,0.049-0.19
	s0.044-0.12,0.071-0.176c0.028-0.056,0.059-0.109,0.092-0.159c0.034-0.05,0.07-0.098,0.109-0.142
	c0.039-0.045,0.081-0.087,0.126-0.126c0.045-0.039,0.092-0.075,0.142-0.109c0.05-0.034,0.108-0.066,0.172-0.097
	s0.135-0.061,0.214-0.09c0.078-0.029,0.163-0.058,0.256-0.086s0.191-0.056,0.298-0.084c0.129-0.028,0.249-0.056,0.36-0.084
	c0.111-0.028,0.213-0.056,0.305-0.084s0.175-0.056,0.247-0.084s0.133-0.056,0.184-0.084c0-0.073-0.001-0.14-0.004-0.201
	c-0.003-0.061-0.007-0.116-0.013-0.165s-0.013-0.092-0.021-0.127s-0.018-0.065-0.029-0.088c-0.011-0.022-0.024-0.045-0.038-0.066
	s-0.03-0.043-0.048-0.062c-0.018-0.02-0.038-0.038-0.061-0.054c-0.023-0.016-0.048-0.03-0.076-0.041
	c-0.028-0.017-0.059-0.031-0.092-0.042c-0.034-0.012-0.07-0.021-0.109-0.027c-0.039-0.007-0.081-0.012-0.126-0.015
	c-0.045-0.003-0.092-0.005-0.142-0.005s-0.098,0.003-0.143,0.008c-0.045,0.006-0.088,0.014-0.128,0.025
	c-0.04,0.011-0.079,0.025-0.115,0.042c-0.037,0.017-0.072,0.036-0.105,0.059c-0.022,0.045-0.045,0.088-0.067,0.132
	s-0.045,0.089-0.067,0.136c-0.022,0.048-0.044,0.098-0.066,0.153S40.959,78.966,40.937,79.033L40.937,79.033L40.937,79.033
	L40.937,79.033L40.937,79.033z M42.456,80.15c-0.034,0.017-0.074,0.034-0.12,0.05s-0.099,0.034-0.156,0.05
	c-0.057,0.017-0.119,0.034-0.185,0.05s-0.136,0.034-0.208,0.05c-0.089,0.022-0.17,0.046-0.243,0.071
	c-0.073,0.025-0.138,0.051-0.195,0.077c-0.057,0.027-0.107,0.054-0.149,0.081c-0.042,0.028-0.077,0.056-0.105,0.083
	c-0.028,0.028-0.052,0.059-0.072,0.091c-0.02,0.033-0.036,0.068-0.048,0.104c-0.013,0.036-0.022,0.074-0.028,0.112
	c-0.006,0.038-0.009,0.078-0.009,0.117c0,0.05,0.004,0.099,0.012,0.146c0.008,0.047,0.02,0.092,0.035,0.136
	c0.015,0.043,0.034,0.085,0.056,0.123c0.022,0.039,0.047,0.075,0.075,0.109c0.028,0.034,0.059,0.063,0.092,0.088
	c0.033,0.025,0.069,0.046,0.106,0.063c0.038,0.017,0.078,0.029,0.119,0.038s0.085,0.013,0.13,0.013c0.039,0,0.078-0.003,0.118-0.009
	c0.039-0.006,0.079-0.015,0.12-0.028c0.04-0.013,0.082-0.029,0.124-0.049c0.042-0.02,0.086-0.044,0.13-0.072
	c0.039-0.028,0.075-0.057,0.109-0.088c0.033-0.03,0.063-0.062,0.09-0.094c0.027-0.032,0.05-0.065,0.069-0.098
	c0.019-0.033,0.034-0.067,0.046-0.1c0.017-0.039,0.031-0.085,0.042-0.139s0.021-0.114,0.027-0.183
	c0.007-0.069,0.012-0.145,0.015-0.229c0.003-0.084,0.005-0.176,0.005-0.277v-0.073v-0.073l0-0.072L42.456,80.15L42.456,80.15
	L42.456,80.15L42.456,80.15L42.456,80.15z"/>
<path id="path3378" style="fill:#003366;" d="M46.435,77.423v0.274v0.274v0.274v0.274h-0.196h-0.196h-0.196h-0.196v0.531v0.531
	v0.531v0.531c0,0.117,0,0.221,0,0.311c0,0.09,0.001,0.167,0.002,0.231c0.001,0.064,0.004,0.116,0.007,0.156
	c0.003,0.04,0.007,0.068,0.013,0.085c0.011,0.034,0.025,0.063,0.042,0.088c0.017,0.025,0.037,0.046,0.061,0.063
	c0.024,0.017,0.051,0.029,0.082,0.038c0.031,0.008,0.066,0.013,0.105,0.013c0.022,0,0.05-0.003,0.082-0.008
	c0.032-0.006,0.068-0.014,0.108-0.025s0.081-0.025,0.124-0.042c0.043-0.017,0.088-0.036,0.133-0.059l0.022,0.268l0.022,0.268
	l0.022,0.268l0.022,0.268c-0.067,0.034-0.135,0.063-0.206,0.088c-0.07,0.025-0.142,0.046-0.216,0.063
	c-0.074,0.017-0.15,0.029-0.229,0.038c-0.079,0.008-0.16,0.013-0.244,0.013c-0.073,0-0.141-0.004-0.206-0.013
	c-0.065-0.008-0.125-0.021-0.183-0.038s-0.111-0.038-0.162-0.063c-0.051-0.025-0.098-0.054-0.143-0.088s-0.085-0.071-0.122-0.113
	s-0.07-0.088-0.099-0.138c-0.029-0.05-0.055-0.105-0.078-0.163s-0.042-0.122-0.059-0.189c-0.011-0.05-0.021-0.112-0.029-0.185
	c-0.008-0.073-0.015-0.158-0.021-0.254c-0.006-0.096-0.01-0.205-0.013-0.325c-0.003-0.12-0.004-0.253-0.004-0.398v-0.57v-0.57v-0.57
	v-0.57h-0.129h-0.129h-0.128h-0.128v-0.274v-0.274v-0.274v-0.274h0.129h0.129h0.129h0.129v-0.263v-0.263v-0.263v-0.263l0.285-0.201
	l0.285-0.201l0.285-0.201l0.285-0.201v0.464v0.464v0.464v0.464h0.201h0.201l0.201,0L46.435,77.423L46.435,77.423L46.435,77.423
	L46.435,77.423L46.435,77.423z"/>
<path id="path3380" style="fill:#003366;" d="M49.497,80.999l0.285,0.056l0.285,0.056l0.285,0.056l0.285,0.056
	c-0.039,0.129-0.082,0.25-0.13,0.364s-0.1,0.22-0.157,0.318c-0.057,0.098-0.12,0.187-0.187,0.268
	c-0.067,0.08-0.14,0.152-0.218,0.213s-0.162,0.116-0.251,0.163c-0.089,0.047-0.182,0.087-0.28,0.119
	c-0.098,0.032-0.2,0.057-0.305,0.073c-0.105,0.016-0.214,0.025-0.326,0.025c-0.156,0-0.305-0.013-0.444-0.038
	c-0.14-0.026-0.271-0.064-0.394-0.116c-0.123-0.052-0.237-0.117-0.344-0.195c-0.106-0.079-0.204-0.171-0.293-0.277
	c-0.101-0.123-0.189-0.258-0.264-0.406c-0.075-0.148-0.138-0.309-0.189-0.482c-0.05-0.173-0.088-0.359-0.113-0.557
	c-0.025-0.198-0.038-0.409-0.038-0.633c0-0.218,0.013-0.425,0.038-0.621c0.026-0.196,0.064-0.381,0.116-0.556
	c0.052-0.175,0.117-0.339,0.195-0.493c0.079-0.154,0.171-0.298,0.277-0.432c0.089-0.112,0.184-0.21,0.285-0.293
	c0.101-0.084,0.208-0.154,0.321-0.21c0.113-0.056,0.233-0.098,0.359-0.126c0.126-0.028,0.259-0.042,0.398-0.042
	c0.151,0,0.295,0.014,0.431,0.042c0.137,0.028,0.266,0.07,0.387,0.126c0.121,0.056,0.235,0.126,0.341,0.21
	c0.106,0.084,0.204,0.182,0.293,0.293c0.101,0.129,0.189,0.272,0.264,0.432c0.075,0.16,0.138,0.335,0.189,0.526
	c0.05,0.191,0.088,0.399,0.113,0.623c0.025,0.224,0.038,0.464,0.038,0.721v0.039v0.039v0.039v0.039h-0.71h-0.71h-0.71h-0.71
	c0,0.101,0.006,0.197,0.017,0.288c0.012,0.091,0.029,0.178,0.053,0.259s0.054,0.156,0.09,0.226s0.08,0.132,0.13,0.188
	c0.045,0.056,0.092,0.105,0.142,0.147c0.05,0.042,0.102,0.077,0.157,0.105c0.054,0.028,0.111,0.049,0.169,0.063
	s0.118,0.021,0.18,0.021c0.073,0.011,0.142,0.003,0.208-0.024c0.066-0.027,0.127-0.071,0.183-0.133
	c0.056-0.061,0.106-0.14,0.15-0.233C49.432,81.231,49.469,81.122,49.497,80.999L49.497,80.999L49.497,80.999L49.497,80.999
	L49.497,80.999z M49.564,79.614c0-0.101-0.006-0.196-0.017-0.285c-0.011-0.089-0.028-0.172-0.05-0.249
	c-0.022-0.077-0.05-0.147-0.084-0.211s-0.073-0.121-0.117-0.171c-0.039-0.05-0.081-0.095-0.125-0.134
	c-0.044-0.039-0.091-0.072-0.14-0.098c-0.049-0.026-0.1-0.047-0.153-0.06c-0.053-0.014-0.107-0.021-0.163-0.021
	c-0.061,0-0.12,0.007-0.176,0.021c-0.056,0.014-0.109,0.034-0.159,0.06c-0.05,0.027-0.098,0.059-0.142,0.098
	c-0.045,0.039-0.087,0.083-0.126,0.134c-0.045,0.056-0.082,0.116-0.114,0.181s-0.057,0.135-0.076,0.21
	c-0.02,0.075-0.034,0.156-0.043,0.244s-0.013,0.181-0.013,0.281h0.425h0.425h0.425H49.564L49.564,79.614L49.564,79.614
	L49.564,79.614L49.564,79.614z"/>
<path id="path3382" style="fill:#003366;" d="M52.492,82.676h-0.285h-0.285h-0.285h-0.285v-1.307v-1.307v-1.307v-1.307h0.263h0.263
	h0.263h0.263v0.184v0.184v0.184v0.184c0.045-0.089,0.088-0.17,0.13-0.243c0.042-0.073,0.083-0.138,0.124-0.195
	c0.041-0.057,0.08-0.107,0.12-0.149c0.039-0.042,0.078-0.077,0.118-0.105c0.034-0.028,0.07-0.053,0.108-0.075
	s0.079-0.041,0.121-0.056c0.042-0.015,0.085-0.027,0.129-0.035c0.044-0.008,0.089-0.012,0.133-0.012
	c0.067,0,0.133,0.006,0.197,0.017c0.064,0.011,0.127,0.028,0.189,0.05c0.061,0.022,0.122,0.05,0.18,0.084
	c0.059,0.034,0.116,0.073,0.172,0.117l-0.089,0.302l-0.089,0.302l-0.089,0.302l-0.089,0.302c-0.05-0.039-0.098-0.073-0.144-0.101
	c-0.046-0.028-0.09-0.051-0.133-0.07c-0.043-0.018-0.086-0.031-0.129-0.04c-0.043-0.009-0.086-0.013-0.131-0.013
	c-0.039,0-0.077,0.004-0.114,0.012s-0.072,0.02-0.107,0.035c-0.035,0.015-0.069,0.034-0.103,0.056
	c-0.034,0.022-0.067,0.047-0.101,0.075c-0.028,0.028-0.054,0.061-0.08,0.101c-0.025,0.039-0.049,0.085-0.071,0.136
	s-0.043,0.11-0.063,0.174c-0.02,0.065-0.038,0.136-0.054,0.214c-0.011,0.078-0.022,0.172-0.033,0.281
	c-0.01,0.109-0.02,0.233-0.029,0.373c-0.008,0.14-0.015,0.295-0.02,0.465c-0.005,0.17-0.008,0.356-0.008,0.557l0.011,0.408
	l0.011,0.408l0.011,0.408L52.492,82.676L52.492,82.676L52.492,82.676L52.492,82.676L52.492,82.676z"/>
<path id="path3384" style="fill:#003366;" d="M54.391,76.731v-0.318v-0.318v-0.318v-0.318h0.285h0.285h0.285h0.285v0.318v0.318
	v0.318v0.318h-0.285h-0.285h-0.285H54.391z M54.391,82.676v-1.307v-1.307v-1.307v-1.307h0.285h0.285h0.285h0.285v1.307v1.307v1.307
	v1.307h-0.285h-0.285h-0.285H54.391z"/>
<path id="path3386" style="fill:#003366;" d="M57.319,79.033l-0.257-0.056l-0.257-0.056l-0.257-0.056l-0.257-0.056
	c0.028-0.134,0.063-0.258,0.104-0.373c0.041-0.115,0.089-0.219,0.142-0.314s0.112-0.18,0.175-0.256
	c0.064-0.075,0.132-0.141,0.205-0.197c0.073-0.056,0.152-0.106,0.24-0.15c0.087-0.044,0.182-0.082,0.286-0.112
	c0.103-0.031,0.215-0.054,0.336-0.071c0.121-0.016,0.251-0.024,0.39-0.024c0.123,0,0.237,0.004,0.344,0.013
	c0.107,0.008,0.205,0.021,0.296,0.038c0.091,0.017,0.174,0.038,0.25,0.063c0.076,0.025,0.144,0.054,0.206,0.088
	c0.061,0.034,0.119,0.07,0.172,0.109c0.053,0.039,0.102,0.082,0.147,0.128s0.085,0.096,0.122,0.149
	c0.036,0.053,0.068,0.111,0.096,0.172c0.028,0.056,0.052,0.124,0.072,0.205c0.02,0.081,0.036,0.174,0.049,0.278
	c0.013,0.105,0.022,0.221,0.027,0.35c0.006,0.128,0.009,0.268,0.009,0.419v0.402v0.402v0.402v0.402c0,0.112,0.001,0.217,0.004,0.314
	c0.002,0.098,0.006,0.189,0.01,0.272c0.004,0.084,0.009,0.161,0.014,0.23c0.005,0.07,0.011,0.133,0.016,0.189
	c0.011,0.056,0.022,0.112,0.035,0.168c0.012,0.056,0.025,0.113,0.041,0.17c0.015,0.057,0.033,0.115,0.053,0.174
	c0.021,0.059,0.044,0.119,0.072,0.181h-0.279h-0.279h-0.279h-0.279l-0.039-0.145l-0.039-0.145l-0.039-0.145l-0.039-0.145
	c-0.05,0.056-0.101,0.109-0.151,0.159c-0.051,0.05-0.102,0.097-0.153,0.14c-0.052,0.043-0.104,0.083-0.158,0.119
	c-0.053,0.036-0.108,0.068-0.164,0.096c-0.056,0.028-0.112,0.053-0.168,0.075s-0.113,0.041-0.17,0.056
	c-0.057,0.015-0.115,0.027-0.174,0.035c-0.059,0.008-0.119,0.012-0.181,0.012c-0.106,0-0.207-0.008-0.302-0.026
	c-0.095-0.017-0.185-0.043-0.271-0.078c-0.085-0.035-0.165-0.079-0.241-0.132c-0.076-0.053-0.147-0.116-0.214-0.189
	c-0.067-0.073-0.126-0.151-0.176-0.234c-0.05-0.083-0.092-0.172-0.126-0.266c-0.034-0.094-0.059-0.192-0.075-0.295
	s-0.025-0.211-0.025-0.322c0-0.073,0.003-0.144,0.009-0.213c0.006-0.069,0.015-0.137,0.027-0.203
	c0.013-0.066,0.029-0.129,0.049-0.19c0.02-0.061,0.044-0.12,0.072-0.176c0.028-0.056,0.059-0.109,0.092-0.159
	c0.034-0.05,0.07-0.098,0.109-0.142c0.039-0.045,0.081-0.087,0.126-0.126c0.045-0.039,0.092-0.075,0.142-0.109
	s0.108-0.066,0.172-0.097s0.135-0.061,0.214-0.09c0.078-0.029,0.163-0.058,0.256-0.086c0.092-0.028,0.191-0.056,0.298-0.084
	c0.129-0.028,0.249-0.056,0.36-0.084c0.111-0.028,0.213-0.056,0.305-0.084c0.092-0.028,0.175-0.056,0.247-0.084
	c0.072-0.028,0.133-0.056,0.184-0.084c0-0.073-0.001-0.14-0.004-0.201c-0.003-0.061-0.007-0.116-0.013-0.165
	c-0.006-0.049-0.013-0.092-0.021-0.127s-0.018-0.065-0.029-0.088c-0.011-0.022-0.024-0.045-0.038-0.066
	c-0.014-0.022-0.03-0.043-0.048-0.062c-0.018-0.02-0.038-0.038-0.061-0.054c-0.023-0.016-0.048-0.03-0.076-0.041
	c-0.028-0.017-0.059-0.031-0.092-0.042c-0.034-0.012-0.07-0.021-0.109-0.027c-0.039-0.007-0.081-0.012-0.126-0.015
	c-0.045-0.003-0.092-0.005-0.142-0.005c-0.05,0-0.098,0.003-0.143,0.008s-0.088,0.014-0.128,0.025
	c-0.041,0.011-0.079,0.025-0.116,0.042c-0.037,0.017-0.072,0.036-0.105,0.059c-0.028,0.045-0.054,0.088-0.08,0.132
	c-0.025,0.044-0.049,0.089-0.071,0.136c-0.022,0.047-0.043,0.098-0.063,0.153C57.354,78.905,57.336,78.966,57.319,79.033
	L57.319,79.033L57.319,79.033L57.319,79.033L57.319,79.033z M58.839,80.15c-0.034,0.017-0.074,0.034-0.12,0.05
	c-0.046,0.017-0.099,0.034-0.156,0.05c-0.057,0.017-0.12,0.034-0.186,0.05c-0.066,0.017-0.136,0.034-0.208,0.05
	c-0.089,0.022-0.17,0.046-0.243,0.071s-0.138,0.051-0.195,0.077c-0.057,0.027-0.107,0.054-0.149,0.081
	c-0.042,0.028-0.077,0.056-0.105,0.083c-0.028,0.028-0.052,0.059-0.072,0.091c-0.02,0.033-0.036,0.068-0.049,0.104
	c-0.013,0.036-0.022,0.074-0.028,0.112c-0.006,0.038-0.009,0.078-0.009,0.117c0,0.05,0.004,0.099,0.012,0.146
	c0.008,0.047,0.02,0.092,0.035,0.136c0.015,0.043,0.034,0.085,0.056,0.123c0.022,0.039,0.047,0.075,0.075,0.109
	c0.028,0.034,0.059,0.063,0.092,0.088c0.033,0.025,0.069,0.046,0.106,0.063s0.077,0.029,0.119,0.038
	c0.042,0.008,0.085,0.013,0.13,0.013c0.039,0,0.078-0.003,0.118-0.009c0.039-0.006,0.079-0.015,0.12-0.028
	c0.041-0.013,0.082-0.029,0.124-0.049c0.042-0.02,0.085-0.044,0.13-0.072c0.039-0.028,0.075-0.057,0.109-0.088
	c0.033-0.03,0.063-0.062,0.09-0.094c0.027-0.032,0.05-0.065,0.069-0.098c0.019-0.033,0.035-0.067,0.046-0.1
	c0.017-0.039,0.031-0.085,0.042-0.139s0.021-0.114,0.027-0.183c0.007-0.068,0.012-0.145,0.015-0.229
	c0.003-0.084,0.005-0.176,0.005-0.277v-0.073v-0.073l0-0.073L58.839,80.15L58.839,80.15L58.839,80.15L58.839,80.15L58.839,80.15z"/>
<path id="path3388" style="fill:#003366;" d="M60.85,82.676v-1.805v-1.805v-1.805v-1.805h0.285h0.285h0.285h0.285v1.805v1.805v1.805
	v1.805h-0.285H61.42h-0.285H60.85z"/>
<path id="path3390" style="fill:#003366;" d="M62.527,81.178l0.285-0.05l0.285-0.05l0.285-0.05l0.285-0.05
	c0.022,0.14,0.059,0.261,0.109,0.365c0.05,0.104,0.113,0.19,0.19,0.258c0.077,0.068,0.167,0.119,0.27,0.153
	c0.103,0.034,0.219,0.051,0.348,0.051c0.067,0,0.131-0.003,0.192-0.009c0.06-0.006,0.117-0.015,0.169-0.028s0.098-0.029,0.139-0.049
	c0.041-0.02,0.076-0.044,0.104-0.072c0.034-0.022,0.063-0.049,0.088-0.079c0.025-0.03,0.046-0.063,0.063-0.098
	c0.017-0.035,0.029-0.072,0.038-0.11c0.008-0.038,0.013-0.077,0.013-0.116c0-0.028-0.001-0.054-0.005-0.08
	c-0.003-0.025-0.008-0.049-0.015-0.071c-0.007-0.022-0.016-0.043-0.028-0.063c-0.012-0.02-0.026-0.038-0.042-0.054
	c-0.017-0.017-0.038-0.032-0.062-0.047c-0.025-0.015-0.053-0.029-0.086-0.043c-0.032-0.014-0.068-0.028-0.107-0.043
	c-0.039-0.015-0.081-0.03-0.125-0.047c-0.235-0.061-0.447-0.123-0.638-0.184c-0.191-0.061-0.36-0.121-0.508-0.18
	c-0.148-0.059-0.275-0.116-0.382-0.171s-0.193-0.108-0.261-0.159c-0.078-0.073-0.147-0.151-0.205-0.235
	c-0.059-0.084-0.108-0.174-0.147-0.271c-0.039-0.096-0.068-0.199-0.088-0.308c-0.02-0.109-0.029-0.225-0.029-0.348
	s0.01-0.239,0.029-0.348c0.02-0.109,0.049-0.212,0.088-0.308s0.088-0.186,0.147-0.271s0.127-0.162,0.205-0.235
	c0.078-0.073,0.165-0.137,0.26-0.192s0.198-0.102,0.31-0.14c0.112-0.038,0.232-0.066,0.36-0.086
	c0.129-0.019,0.265-0.029,0.411-0.029c0.14,0,0.271,0.007,0.394,0.021c0.123,0.014,0.237,0.035,0.344,0.063
	c0.106,0.028,0.204,0.063,0.293,0.105c0.089,0.042,0.17,0.091,0.243,0.147c0.073,0.056,0.14,0.12,0.202,0.192
	c0.062,0.072,0.118,0.153,0.17,0.241c0.052,0.088,0.098,0.184,0.141,0.287c0.042,0.103,0.08,0.213,0.113,0.331l-0.268,0.061
	l-0.268,0.061l-0.268,0.061l-0.268,0.061c-0.022-0.106-0.056-0.198-0.101-0.277s-0.101-0.143-0.168-0.195s-0.145-0.09-0.235-0.116
	c-0.089-0.026-0.19-0.038-0.302-0.038c-0.073,0-0.14,0.003-0.201,0.008c-0.061,0.005-0.117,0.013-0.168,0.023
	c-0.05,0.01-0.095,0.022-0.134,0.035c-0.039,0.014-0.073,0.029-0.101,0.046c-0.028,0.022-0.053,0.045-0.075,0.068
	s-0.041,0.047-0.056,0.072c-0.015,0.025-0.027,0.052-0.035,0.08c-0.008,0.029-0.012,0.059-0.012,0.093
	c0,0.028,0.003,0.054,0.009,0.08s0.015,0.05,0.028,0.074c0.013,0.024,0.029,0.047,0.049,0.069s0.044,0.045,0.072,0.067
	c0.028,0.022,0.07,0.046,0.126,0.072c0.056,0.026,0.126,0.053,0.21,0.082c0.084,0.029,0.182,0.061,0.293,0.095
	s0.237,0.07,0.377,0.109c0.156,0.045,0.302,0.091,0.435,0.139c0.133,0.048,0.255,0.098,0.364,0.152
	c0.109,0.053,0.205,0.109,0.288,0.168s0.153,0.122,0.209,0.189c0.056,0.061,0.105,0.129,0.147,0.201
	c0.042,0.073,0.077,0.151,0.105,0.235c0.028,0.084,0.049,0.173,0.063,0.268s0.021,0.196,0.021,0.302c0,0.129-0.011,0.25-0.033,0.365
	s-0.055,0.224-0.098,0.328c-0.043,0.103-0.097,0.201-0.161,0.294c-0.064,0.093-0.138,0.181-0.222,0.265
	c-0.084,0.084-0.177,0.156-0.28,0.218c-0.103,0.062-0.214,0.113-0.335,0.153c-0.12,0.04-0.249,0.071-0.385,0.09
	c-0.136,0.02-0.28,0.03-0.431,0.03c-0.14,0-0.272-0.008-0.398-0.025c-0.126-0.017-0.246-0.042-0.359-0.075
	c-0.113-0.034-0.22-0.076-0.321-0.126c-0.101-0.05-0.196-0.109-0.286-0.176c-0.078-0.078-0.152-0.162-0.221-0.252
	c-0.069-0.09-0.132-0.185-0.19-0.287c-0.057-0.102-0.108-0.21-0.152-0.325S62.555,81.307,62.527,81.178L62.527,81.178L62.527,81.178
	L62.527,81.178L62.527,81.178z"/>
</svg>
