<?xml version="1.0" encoding="iso-8859-1"?>
<!-- Generator: Adobe Illustrator 25.4.1, SVG Export Plug-In . SVG Version: 6.00 Build 0)  -->
<svg version="1.1"
	 id="svg8" inkscape:export-filename="C:\Users\Charlotte Abel\Documents\Symbology\Components\For Distribution\communications_alerts-warnings-messages.png" inkscape:export-xdpi="300.00464" inkscape:export-ydpi="300.00464" inkscape:version="0.91 r13725" sodipodi:docname="hazardous-materials_hazmat-pollutants-contaminants-with-label-clr_256x256.svg" xmlns:cc="http://creativecommons.org/ns#" xmlns:dc="http://purl.org/dc/elements/1.1/" xmlns:inkscape="http://www.inkscape.org/namespaces/inkscape" xmlns:rdf="http://www.w3.org/1999/02/22-rdf-syntax-ns#" xmlns:sodipodi="http://sodipodi.sourceforge.net/DTD/sodipodi-0.dtd" xmlns:svg="http://www.w3.org/2000/svg"
	 xmlns="http://www.w3.org/2000/svg" xmlns:xlink="http://www.w3.org/1999/xlink" x="0px" y="0px" viewBox="0 0 100 100"
	 style="enable-background:new 0 0 100 100;" xml:space="preserve">
<sodipodi:namedview  bordercolor="#666666" borderopacity="1.0" id="base" inkscape:current-layer="g12744" inkscape:cx="-58.99739" inkscape:cy="84.283015" inkscape:document-units="px" inkscape:guide-bbox="true" inkscape:lockguides="true" inkscape:pageopacity="0.0" inkscape:pageshadow="2" inkscape:window-height="657" inkscape:window-maximized="1" inkscape:window-width="1280" inkscape:window-x="-8" inkscape:window-y="-8" inkscape:zoom="0.765625" pagecolor="#ffffff" showgrid="false" showguides="false" units="px">
	<sodipodi:guide  id="guide5700" inkscape:locked="true" orientation="0,1" position="-0.93017576,23.874511"></sodipodi:guide>
	<sodipodi:guide  id="guide5726" inkscape:locked="true" orientation="0,1" position="-26.098869,26.473047"></sodipodi:guide>
	<sodipodi:guide  id="guide5880" inkscape:locked="true" orientation="0,1" position="104.51042,-2.9104167"></sodipodi:guide>
	<sodipodi:guide  id="guide6001" inkscape:locked="true" orientation="0,1" position="-71.093695,29.279377"></sodipodi:guide>
	<sodipodi:guide  id="guide6005" inkscape:locked="true" orientation="0,1" position="-46.304445,58.278122"></sodipodi:guide>
	<sodipodi:guide  id="guide6736" inkscape:locked="true" orientation="0,1" position="-0.10335287,20.205485"></sodipodi:guide>
	<sodipodi:guide  id="guide6738" inkscape:locked="true" orientation="0,1" position="-0.43848907,22.874513"></sodipodi:guide>
	<inkscape:grid  id="grid2386" type="xygrid"></inkscape:grid>
</sodipodi:namedview>
<g id="g1180" transform="translate(0,-229.2666)" inkscape:groupmode="layer" inkscape:label="halo:always" style="display:none;">
	<g id="g1210" inkscape:groupmode="layer" inkscape:label="-gray-halo:iter3" style="display:inline;">
		<g id="circle1208">
			<path style="fill:#919395;" d="M50,329.3c-27.6,0-50-22.4-50-50s22.4-50,50-50s50,22.4,50,50S77.6,329.3,50,329.3z M50,237.9
				c-22.8,0-41.4,18.6-41.4,41.4s18.6,41.4,41.4,41.4s41.4-18.6,41.4-41.4S72.8,237.9,50,237.9z"/>
		</g>
	</g>
	<g id="g1206" inkscape:groupmode="layer" inkscape:label="-red-halo:iter3" style="display:inline;">
		<g id="circle1204">
			<path style="fill:#C52038;" d="M50,329.3c-27.6,0-50-22.4-50-50s22.4-50,50-50s50,22.4,50,50S77.6,329.3,50,329.3z M50,237.9
				c-22.8,0-41.4,18.6-41.4,41.4s18.6,41.4,41.4,41.4s41.4-18.6,41.4-41.4S72.8,237.9,50,237.9z"/>
		</g>
	</g>
	<g id="g1202" inkscape:groupmode="layer" inkscape:label="-green-halo:iter3" style="display:inline;">
		<g id="circle1200">
			<path style="fill:#5E9C42;" d="M50,329.3c-27.6,0-50-22.4-50-50s22.4-50,50-50s50,22.4,50,50S77.6,329.3,50,329.3z M50,237.9
				c-22.8,0-41.4,18.6-41.4,41.4s18.6,41.4,41.4,41.4s41.4-18.6,41.4-41.4S72.8,237.9,50,237.9z"/>
		</g>
	</g>
	<g id="layer18" inkscape:groupmode="layer" inkscape:label="-yellow-halo:iter3" style="display:inline;">
		<g id="circle1178-4">
			<path style="fill:#FBBA16;" d="M50,329.3c-27.6,0-50-22.4-50-50s22.4-50,50-50s50,22.4,50,50S77.6,329.3,50,329.3z M50,237.9
				c-22.8,0-41.4,18.6-41.4,41.4s18.6,41.4,41.4,41.4s41.4-18.6,41.4-41.4S72.8,237.9,50,237.9z"/>
		</g>
	</g>
</g>
<path id="path12718" inkscape:connector-curvature="0" inkscape:export-filename="C:\Users\Charlotte Abel\Documents\Symbology\Components\hazardous-materials_non-fixed-sites-4.png" inkscape:export-xdpi="300.00461" inkscape:export-ydpi="300.00461" style="fill:#003366;" d="
	M41.414,22.199c-0.232,0-0.454,0.048-0.656,0.133s-0.384,0.21-0.537,0.363c-0.153,0.153-0.278,0.335-0.363,0.537
	s-0.133,0.424-0.133,0.656v0.084v0.084v0.084v0.084h-1.669h-1.669h-1.669H33.05h-0.021h-0.021h-0.021h-0.021l0,0l0,0l0,0l0,0
	c-0.613,0.021-1.188,0.264-1.707,0.684c-0.519,0.42-0.981,1.016-1.367,1.745c-0.385,0.729-0.694,1.589-0.907,2.537
	s-0.329,1.983-0.329,3.06c0,1.098,0.121,2.144,0.341,3.096c0.219,0.952,0.536,1.81,0.927,2.533c0.391,0.724,0.855,1.313,1.37,1.726
	c0.515,0.413,1.08,0.651,1.671,0.672l0,0l0,0l0,0l0,0h0.211h0.211h0.211h0.211c0.042-0.042,0.084-0.079,0.127-0.114
	s0.084-0.066,0.127-0.098c0.042-0.032,0.084-0.063,0.127-0.098c0.042-0.034,0.084-0.071,0.127-0.114
	c0.042-0.021,0.084-0.042,0.127-0.063s0.084-0.042,0.127-0.063s0.084-0.042,0.127-0.063s0.084-0.042,0.127-0.063
	c0.084-0.042,0.169-0.084,0.255-0.125c0.086-0.041,0.173-0.081,0.262-0.118c0.09-0.037,0.182-0.071,0.279-0.102
	c0.096-0.03,0.197-0.056,0.302-0.078c0.042-0.021,0.084-0.037,0.127-0.049c0.042-0.012,0.084-0.02,0.127-0.025
	c0.042-0.005,0.084-0.008,0.127-0.009s0.084-0.001,0.127-0.001c0,0,0,0,0.001,0s0.004,0,0.01,0c0.005,0,0.013,0,0.025,0
	c0.012,0,0.028,0,0.049,0c0.042,0,0.084,0,0.128-0.001c0.044-0.001,0.088-0.004,0.136-0.01c0.047-0.005,0.098-0.013,0.152-0.025
	c0.054-0.012,0.113-0.027,0.176-0.048l0,0l0,0l0,0l0,0h0.021h0.021h0.021h0.021c0.106,0,0.211,0.005,0.315,0.014
	s0.207,0.022,0.307,0.038c0.101,0.016,0.198,0.035,0.292,0.054c0.094,0.02,0.184,0.041,0.268,0.062l0,0l0,0l0,0l0,0
	c0.19,0.042,0.38,0.1,0.566,0.172c0.186,0.071,0.368,0.156,0.542,0.251c0.174,0.095,0.34,0.201,0.495,0.314
	c0.155,0.114,0.297,0.235,0.424,0.362h4.14h4.14h4.14h4.14c0.042-0.042,0.084-0.079,0.127-0.114s0.084-0.066,0.127-0.098
	c0.042-0.032,0.084-0.063,0.127-0.098c0.042-0.034,0.084-0.071,0.127-0.114c0.042-0.021,0.084-0.042,0.127-0.063
	s0.084-0.042,0.127-0.063c0.042-0.021,0.084-0.042,0.127-0.063s0.084-0.042,0.127-0.063c0.084-0.042,0.169-0.084,0.255-0.125
	c0.086-0.041,0.173-0.081,0.262-0.118c0.09-0.037,0.182-0.071,0.279-0.102c0.096-0.03,0.197-0.056,0.302-0.078
	c0.042-0.021,0.084-0.037,0.127-0.049c0.042-0.012,0.084-0.02,0.127-0.025c0.042-0.005,0.084-0.008,0.127-0.009
	c0.042-0.001,0.084-0.001,0.127-0.001c0,0,0,0,0.001,0c0.001,0,0.004,0,0.009,0c0.005,0,0.013,0,0.025,0c0.012,0,0.028,0,0.049,0
	c0.042,0,0.084,0,0.127-0.001s0.084-0.004,0.127-0.01c0.042-0.005,0.084-0.013,0.127-0.025s0.084-0.027,0.127-0.048l0,0l0,0l0,0l0,0
	l0,0l0,0l0,0l0,0c0.106,0,0.211,0.005,0.315,0.014c0.104,0.009,0.207,0.022,0.307,0.038c0.101,0.016,0.198,0.035,0.292,0.055
	c0.094,0.02,0.184,0.041,0.268,0.062l0,0l0,0l0,0l0,0c0.19,0.042,0.38,0.1,0.566,0.172c0.186,0.071,0.368,0.156,0.542,0.251
	c0.174,0.095,0.34,0.201,0.495,0.314c0.155,0.114,0.297,0.235,0.424,0.362h0.275h0.275h0.275h0.275l0,0l0,0l0,0l0,0
	c0.613,0,1.199-0.227,1.733-0.636c0.535-0.409,1.018-1.001,1.425-1.729c0.407-0.729,0.737-1.595,0.965-2.553
	c0.228-0.958,0.355-2.009,0.355-3.108c0-1.119-0.127-2.181-0.355-3.143c-0.228-0.962-0.558-1.826-0.965-2.549
	c-0.407-0.724-0.89-1.307-1.425-1.71s-1.121-0.624-1.733-0.624l0,0l0,0l0,0l0,0h-4.436h-4.436h-4.436h-4.436v-0.084v-0.084v-0.084
	v-0.084c0-0.232-0.048-0.454-0.133-0.656c-0.086-0.202-0.21-0.384-0.363-0.537c-0.153-0.153-0.335-0.278-0.537-0.363
	s-0.424-0.133-0.656-0.133h-0.908h-0.908h-0.908H41.414z"/>
<path id="path12720" inkscape:connector-curvature="0" inkscape:export-filename="C:\Users\Charlotte Abel\Documents\Symbology\Components\hazardous-materials_non-fixed-sites-4.png" inkscape:export-xdpi="300.00461" inkscape:export-ydpi="300.00461" style="fill:#FFFFFF;" d="
	M56.622,24.227v4.034v4.034v4.034v4.034h0.063h0.063h0.063h0.063c0.042-0.042,0.084-0.079,0.127-0.114
	c0.042-0.034,0.084-0.066,0.127-0.098s0.084-0.063,0.127-0.098s0.084-0.071,0.127-0.114c0.042-0.021,0.084-0.042,0.127-0.063
	s0.084-0.042,0.127-0.063s0.084-0.042,0.127-0.063s0.084-0.042,0.127-0.063l0,0l0,0l0,0l0,0v-0.549V38.59v-0.549v-0.549h1.141h1.141
	h1.141h1.141v0.549v0.549v0.549v0.549c0.084,0.042,0.169,0.09,0.253,0.141c0.084,0.051,0.169,0.107,0.253,0.165
	c0.084,0.058,0.169,0.119,0.253,0.181s0.169,0.125,0.253,0.189h0.063h0.063h0.063h0.063V36.33v-4.034v-4.034v-4.034h-0.317h-0.317
	h-0.317h-0.317v0.718v0.718v0.718v0.718h-1.141h-1.141H59.03h-1.141v-0.718v-0.718v-0.718v-0.718h-0.317h-0.317h-0.317H56.622z
	 M57.889,28.367h1.141h1.141h1.141h1.141v0.845v0.845v0.845v0.845h-1.141h-1.141H59.03h-1.141c0,0,0-0.211,0-0.528
	c0-0.317,0-0.739,0-1.162s0-0.845,0-1.162C57.889,28.578,57.889,28.367,57.889,28.367z M57.889,32.929h1.141h1.141h1.141h1.141
	v0.845v0.845v0.845v0.845h-1.141h-1.141H59.03h-1.141c0,0,0-0.211,0-0.528s0-0.739,0-1.162s0-0.845,0-1.162
	S57.889,32.929,57.889,32.929z"/>
<path id="path12722" inkscape:connector-curvature="0" inkscape:export-filename="C:\Users\Charlotte Abel\Documents\Symbology\Components\hazardous-materials_non-fixed-sites-4.png" inkscape:export-xdpi="300.00461" inkscape:export-ydpi="300.00461" style="fill:#003366;" d="
	M30.853,41.631c-0.106,0-0.206,0.021-0.297,0.059c-0.091,0.038-0.173,0.094-0.242,0.163c-0.068,0.068-0.124,0.15-0.162,0.241
	c-0.038,0.091-0.059,0.191-0.059,0.297v0.19v0.19v0.19v0.19c0,0.106,0.021,0.206,0.059,0.297s0.094,0.173,0.162,0.242
	c0.069,0.068,0.151,0.124,0.242,0.162c0.091,0.038,0.191,0.059,0.297,0.059h0.296h0.296h0.296h0.296
	c0-0.211,0.016-0.417,0.046-0.618c0.03-0.201,0.075-0.396,0.133-0.586s0.129-0.375,0.213-0.554c0.083-0.18,0.179-0.354,0.284-0.523
	c0,0-0.116,0-0.29,0c-0.174,0-0.407,0-0.639,0s-0.465,0-0.639,0S30.853,41.631,30.853,41.631z M41.414,41.631
	c0.106,0.169,0.195,0.343,0.272,0.523c0.077,0.18,0.14,0.364,0.193,0.554c0.053,0.19,0.095,0.385,0.129,0.586
	c0.034,0.201,0.061,0.407,0.082,0.618h3.295h3.295h3.295h3.295c0-0.211,0.016-0.417,0.046-0.618c0.03-0.201,0.075-0.396,0.133-0.586
	c0.058-0.19,0.13-0.375,0.213-0.554c0.083-0.18,0.178-0.354,0.284-0.523h-3.633H48.68h-3.633H41.414z M64.564,41.631
	c0.106,0.169,0.195,0.343,0.272,0.523c0.077,0.18,0.14,0.364,0.193,0.554s0.095,0.385,0.129,0.586
	c0.034,0.201,0.061,0.407,0.082,0.618h0.296h0.296h0.296h0.296c0.106,0,0.206-0.021,0.297-0.059
	c0.091-0.038,0.173-0.094,0.241-0.163c0.069-0.068,0.124-0.15,0.163-0.241c0.038-0.091,0.059-0.191,0.059-0.297v-0.19v-0.19v-0.19
	v-0.19c0-0.106-0.021-0.206-0.059-0.297s-0.094-0.173-0.163-0.242c-0.068-0.068-0.15-0.124-0.241-0.162
	c-0.091-0.038-0.191-0.059-0.297-0.059c0,0-0.116,0-0.29,0s-0.407,0-0.639,0c-0.232,0-0.465,0-0.639,0
	C64.68,41.631,64.564,41.631,64.564,41.631z"/>
<path id="path12724" inkscape:connector-curvature="0" inkscape:export-filename="C:\Users\Charlotte Abel\Documents\Symbology\Components\hazardous-materials_non-fixed-sites-4.png" inkscape:export-xdpi="300.00461" inkscape:export-ydpi="300.00461" style="fill:#003366;" d="
	M60.171,40.449c-0.042,0-0.079,0-0.114,0s-0.066,0-0.098,0s-0.063,0-0.098,0s-0.071,0-0.114,0c0,0,0,0-0.001,0s-0.004,0-0.009,0
	c-0.005,0-0.014,0-0.025,0s-0.028,0-0.049,0c-0.042,0-0.079,0-0.114,0.001s-0.066,0.004-0.098,0.009
	c-0.032,0.005-0.063,0.014-0.098,0.025c-0.034,0.012-0.071,0.028-0.114,0.049c-0.063,0.021-0.132,0.042-0.203,0.065
	c-0.071,0.022-0.145,0.046-0.219,0.072c-0.074,0.026-0.148,0.055-0.219,0.089c-0.071,0.033-0.14,0.07-0.203,0.113
	c-0.021,0.021-0.048,0.037-0.077,0.05c-0.029,0.013-0.061,0.024-0.092,0.034c-0.032,0.011-0.063,0.021-0.092,0.034
	c-0.029,0.013-0.055,0.029-0.077,0.05c-0.084,0.063-0.169,0.132-0.252,0.205s-0.165,0.149-0.245,0.228
	c-0.079,0.079-0.156,0.161-0.228,0.244c-0.072,0.083-0.141,0.168-0.204,0.253l0,0l0,0l0,0l0,0l0,0l0,0l0,0l0,0l0,0l0,0l0,0l0,0
	c-0.106,0.148-0.201,0.301-0.284,0.459c-0.083,0.158-0.155,0.322-0.213,0.491c-0.058,0.169-0.103,0.343-0.133,0.523
	c-0.03,0.18-0.046,0.364-0.046,0.554c0,0.507,0.1,0.987,0.283,1.423c0.182,0.436,0.446,0.826,0.774,1.154
	c0.327,0.327,0.718,0.591,1.154,0.774c0.436,0.182,0.916,0.283,1.423,0.283c0.507,0,0.987-0.1,1.423-0.283s0.826-0.446,1.154-0.774
	s0.591-0.718,0.774-1.154c0.182-0.436,0.283-0.916,0.283-1.423c0-0.19-0.016-0.38-0.046-0.566c-0.03-0.186-0.075-0.368-0.134-0.542
	c-0.058-0.174-0.129-0.341-0.212-0.495c-0.083-0.155-0.178-0.297-0.284-0.424c0,0,0-0.005-0.001-0.013
	c-0.001-0.008-0.004-0.018-0.01-0.029c-0.005-0.011-0.013-0.021-0.025-0.029c-0.012-0.008-0.028-0.013-0.049-0.013
	c-0.127-0.169-0.269-0.327-0.424-0.474c-0.155-0.147-0.321-0.281-0.495-0.403c-0.174-0.121-0.356-0.229-0.542-0.323
	s-0.376-0.173-0.566-0.236l0,0l0,0l0,0l0,0c-0.042,0-0.09,0-0.143,0c-0.053,0-0.111,0-0.174,0s-0.132,0-0.206,0
	C60.334,40.449,60.255,40.449,60.171,40.449L60.171,40.449L60.171,40.449L60.171,40.449L60.171,40.449L60.171,40.449L60.171,40.449
	L60.171,40.449L60.171,40.449z"/>
<path id="path12726" inkscape:connector-curvature="0" inkscape:export-filename="C:\Users\Charlotte Abel\Documents\Symbology\Components\hazardous-materials_non-fixed-sites-4.png" inkscape:export-xdpi="300.00461" inkscape:export-ydpi="300.00461" style="fill:#003366;" d="
	M37.021,40.449c-0.042,0-0.079,0-0.114,0c-0.034,0-0.066,0-0.098,0s-0.063,0-0.098,0s-0.071,0-0.114,0c0,0,0,0-0.001,0
	s-0.004,0-0.01,0c-0.005,0-0.013,0-0.025,0s-0.027,0-0.048,0c-0.042,0-0.079,0-0.114,0.001c-0.034,0.001-0.066,0.004-0.098,0.009
	c-0.032,0.005-0.063,0.014-0.098,0.025c-0.034,0.012-0.071,0.028-0.114,0.049c-0.063,0.021-0.132,0.042-0.203,0.065
	c-0.071,0.022-0.145,0.046-0.219,0.072c-0.074,0.026-0.148,0.055-0.219,0.088s-0.14,0.07-0.203,0.113
	c-0.021,0.021-0.048,0.037-0.077,0.05c-0.029,0.013-0.061,0.024-0.092,0.034c-0.032,0.011-0.063,0.021-0.092,0.034
	c-0.029,0.013-0.055,0.029-0.077,0.05c-0.084,0.063-0.169,0.132-0.252,0.205c-0.083,0.073-0.165,0.149-0.245,0.228
	c-0.079,0.079-0.156,0.161-0.228,0.244c-0.072,0.083-0.141,0.168-0.204,0.253l0,0l0,0l0,0l0,0l0,0l0,0l0,0l0,0l0,0l0,0l0,0l0,0
	c-0.106,0.148-0.201,0.301-0.284,0.459c-0.083,0.158-0.155,0.322-0.213,0.491c-0.058,0.169-0.103,0.343-0.133,0.523
	c-0.03,0.18-0.046,0.364-0.046,0.554c0,0.507,0.1,0.987,0.283,1.423c0.182,0.436,0.446,0.826,0.774,1.154
	c0.327,0.327,0.718,0.591,1.154,0.774s0.916,0.283,1.423,0.283c0.507,0,0.987-0.1,1.423-0.283c0.436-0.182,0.826-0.446,1.154-0.774
	c0.327-0.327,0.591-0.718,0.774-1.154c0.182-0.436,0.283-0.916,0.283-1.423c0-0.19-0.016-0.38-0.046-0.566s-0.075-0.368-0.134-0.542
	c-0.058-0.174-0.129-0.341-0.212-0.495c-0.083-0.155-0.178-0.297-0.284-0.424c0,0,0-0.005-0.001-0.013s-0.004-0.018-0.01-0.029
	c-0.005-0.011-0.013-0.021-0.025-0.029c-0.012-0.008-0.027-0.013-0.048-0.013c-0.127-0.169-0.269-0.327-0.424-0.474
	c-0.155-0.147-0.321-0.281-0.495-0.403c-0.174-0.121-0.356-0.229-0.542-0.323s-0.376-0.173-0.566-0.236l0,0l0,0l0,0l0,0
	c-0.021,0-0.058,0-0.107,0s-0.11,0-0.179,0c-0.068,0-0.145,0-0.225,0S37.105,40.449,37.021,40.449L37.021,40.449L37.021,40.449
	L37.021,40.449L37.021,40.449L37.021,40.449L37.021,40.449L37.021,40.449L37.021,40.449z"/>
<path id="path12728" inkscape:connector-curvature="0" inkscape:export-filename="C:\Users\Charlotte Abel\Documents\Symbology\Components\hazardous-materials_non-fixed-sites-4.png" inkscape:export-xdpi="300.00461" inkscape:export-ydpi="300.00461" style="fill-rule:evenodd;clip-rule:evenodd;fill:#FFFFFF;" d="
	M43.357,25.917l1.605,1.605l1.605,1.605l1.605,1.605l1.605,1.605l-1.605,1.605l-1.605,1.605l-1.605,1.605l-1.605,1.605l-1.605-1.605
	l-1.605-1.605l-1.605-1.605l-1.605-1.605l1.605-1.605l1.605-1.605l1.605-1.605L43.357,25.917z"/>
<path id="path12730" inkscape:connector-curvature="0" inkscape:export-filename="C:\Users\Charlotte Abel\Documents\Symbology\Components\hazardous-materials_non-fixed-sites-4.png" inkscape:export-xdpi="300.00461" inkscape:export-ydpi="300.00461" style="fill:#003366;" d="
	M43.104,35.041c-0.042-0.021-0.09-0.042-0.139-0.066c-0.049-0.024-0.099-0.05-0.147-0.082c-0.047-0.032-0.092-0.069-0.13-0.114
	c-0.038-0.045-0.07-0.098-0.091-0.161c-0.021-0.042-0.037-0.079-0.049-0.115c-0.012-0.036-0.02-0.07-0.025-0.107
	c-0.005-0.037-0.008-0.076-0.01-0.122c-0.001-0.046-0.001-0.099-0.001-0.162c0-0.021-0.005-0.116-0.013-0.269
	c-0.008-0.153-0.018-0.364-0.029-0.618c-0.011-0.253-0.021-0.549-0.029-0.871c-0.008-0.322-0.013-0.671-0.013-1.03
	c-0.021-0.591-0.037-1.046-0.049-1.395s-0.02-0.595-0.025-0.769c-0.005-0.174-0.008-0.278-0.01-0.342s-0.001-0.091-0.001-0.112
	c0.021-0.063,0.048-0.127,0.079-0.189c0.032-0.062,0.069-0.123,0.111-0.181c0.042-0.058,0.09-0.114,0.143-0.165
	c0.053-0.051,0.111-0.099,0.174-0.141c0.042-0.021,0.079-0.037,0.114-0.049c0.034-0.012,0.066-0.02,0.098-0.025
	c0.032-0.005,0.063-0.008,0.098-0.01c0.034-0.001,0.071-0.001,0.114-0.001c0.084,0,0.169,0.011,0.251,0.032s0.161,0.053,0.235,0.095
	c0.074,0.042,0.143,0.095,0.203,0.158c0.061,0.063,0.114,0.137,0.156,0.222c0.021,0.063,0.037,0.1,0.048,0.165
	c0.011,0.065,0.016,0.157,0.016,0.331c0,0.174-0.005,0.431-0.016,0.823c-0.011,0.392-0.026,0.92-0.048,1.638
	c-0.021,0.359-0.037,0.702-0.049,1.018c-0.012,0.315-0.02,0.603-0.025,0.851c-0.005,0.248-0.008,0.457-0.01,0.614
	c-0.001,0.157-0.001,0.263-0.001,0.305c0,0.084-0.005,0.153-0.016,0.211c-0.011,0.058-0.026,0.106-0.048,0.148
	c-0.021,0.042-0.048,0.079-0.079,0.116c-0.032,0.037-0.069,0.074-0.111,0.116c-0.021,0.042-0.058,0.079-0.106,0.111
	c-0.048,0.032-0.106,0.058-0.169,0.079c-0.063,0.021-0.132,0.037-0.201,0.048C43.236,35.036,43.167,35.041,43.104,35.041
	L43.104,35.041L43.104,35.041L43.104,35.041L43.104,35.041z M43.104,37.069c-0.084-0.021-0.164-0.063-0.235-0.12
	c-0.071-0.057-0.135-0.128-0.187-0.208c-0.053-0.079-0.095-0.166-0.124-0.255c-0.029-0.088-0.045-0.178-0.045-0.262
	c0.021-0.063,0.042-0.121,0.066-0.176s0.05-0.104,0.082-0.152c0.032-0.048,0.069-0.093,0.114-0.136
	c0.045-0.043,0.098-0.085,0.161-0.128c0.148-0.063,0.296-0.079,0.432-0.058c0.136,0.021,0.26,0.079,0.361,0.164
	c0.1,0.084,0.177,0.195,0.218,0.322s0.046,0.269,0.005,0.417c0,0.127-0.026,0.232-0.073,0.318c-0.046,0.086-0.112,0.152-0.191,0.199
	c-0.08,0.048-0.173,0.077-0.272,0.089C43.315,37.095,43.21,37.09,43.104,37.069z"/>
<path id="path12426" style="fill:#003366;" d="M19.65,63.841v-1.475v-1.475v-1.475v-1.475h0.25h0.25h0.25h0.25v0.575v0.575v0.575
	v0.575h0.475H21.6h0.475h0.475v-0.575v-0.575v-0.575v-0.575h0.25h0.25h0.25h0.25v1.475v1.475v1.475v1.475H23.3h-0.25H22.8h-0.25
	v-0.65v-0.65v-0.65v-0.65h-0.475H21.6h-0.475H20.65v0.65v0.65v0.65v0.65H20.4h-0.25H19.9H19.65z"/>
<path id="path12428" style="fill:#003366;" d="M28.55,63.841h-0.275H28h-0.275H27.45l-0.1-0.325l-0.1-0.325l-0.1-0.325l-0.1-0.325
	h-0.475H26.1h-0.475H25.15l-0.1,0.325l-0.1,0.325l-0.1,0.325l-0.1,0.325H24.5h-0.25H24h-0.25l0.475-1.475l0.475-1.475l0.475-1.475
	l0.475-1.475h0.25h0.25h0.25h0.25c0,0,0.119,0.369,0.297,0.922c0.178,0.553,0.416,1.291,0.653,2.028s0.475,1.475,0.653,2.028
	C28.431,63.473,28.55,63.841,28.55,63.841z M26.75,61.541l-0.175-0.55l-0.175-0.55l-0.175-0.55l-0.175-0.55l-0.175,0.55l-0.175,0.55
	l-0.175,0.55l-0.175,0.55h0.35h0.35h0.35H26.75z"/>
<path id="path12430" style="fill:#003366;" d="M28.25,63.841v-0.275v-0.275v-0.275v-0.275l0.65-0.95l0.65-0.95l0.65-0.95l0.65-0.95
	h-0.575H29.7h-0.575H28.55v-0.25v-0.25v-0.25v-0.25h0.9h0.9h0.9h0.9v0.225v0.225v0.225v0.225l-0.675,1l-0.675,1l-0.675,1l-0.675,1
	h0.7h0.7h0.7h0.7v0.25v0.25v0.25v0.25h-1h-1h-1L28.25,63.841L28.25,63.841L28.25,63.841L28.25,63.841L28.25,63.841z"/>
<path id="path12432" style="fill:#003366;" d="M32.45,63.841v-1.475v-1.475v-1.475v-1.475h0.375H33.2h0.375h0.375l0.225,1l0.225,1
	l0.225,1l0.225,1l0.225-1l0.225-1l0.225-1l0.225-1h0.375H36.5h0.375h0.375v1.475v1.475v1.475v1.475h-0.225H36.8h-0.225H36.35v-1.175
	v-1.175v-1.175v-1.175l-0.25,1.175l-0.25,1.175l-0.25,1.175l-0.25,1.175h-0.225H34.9h-0.225H34.45l-0.25-1.175l-0.25-1.175
	l-0.25-1.175l-0.25-1.175v1.175v1.175v1.175v1.175c-0.025,0-0.1,0-0.198,0c-0.098,0-0.22,0-0.339,0s-0.234,0-0.32,0
	S32.45,63.841,32.45,63.841z"/>
<path id="path12434" style="fill:#003366;" d="M42.15,63.841h-0.275H41.6h-0.275H41.05l-0.1-0.325l-0.1-0.325l-0.1-0.325l-0.1-0.325
	h-0.475H39.7h-0.475H38.75l-0.1,0.325l-0.1,0.325l-0.1,0.325l-0.1,0.325H38.1h-0.25H37.6h-0.25l0.475-1.475l0.475-1.475l0.475-1.475
	l0.475-1.475h0.25h0.25H40h0.25l0.475,1.475l0.475,1.475l0.475,1.475L42.15,63.841z M40.35,61.541l-0.175-0.55L40,60.441
	l-0.175-0.55l-0.175-0.55l-0.175,0.55l-0.175,0.55l-0.175,0.55l-0.175,0.55h0.35h0.35c0,0,0.175,0,0.35,0
	C40.175,61.541,40.35,61.541,40.35,61.541z"/>
<path id="path12436" style="fill:#003366;" d="M42.95,63.841v-1.225v-1.225v-1.225v-1.225H42.6h-0.35H41.9h-0.35v-0.25v-0.25v-0.25
	v-0.25h0.975H43.5h0.975h0.975v0.25v0.25v0.25v0.25H45.1h-0.35H44.4h-0.35v1.225v1.225v1.225v1.225h-0.275H43.5h-0.275H42.95
	L42.95,63.841L42.95,63.841L42.95,63.841L42.95,63.841z"/>
<path id="path12438" style="fill:#003366;" d="M44.85,62.741h0.225H45.3h0.225h0.225v0.2v0.2v0.2v0.2
	c0,0.125-0.006,0.238-0.017,0.339c-0.011,0.102-0.026,0.192-0.045,0.273c-0.019,0.081-0.041,0.154-0.064,0.218
	c-0.024,0.064-0.049,0.12-0.074,0.17c-0.025,0.075-0.062,0.144-0.109,0.206s-0.103,0.119-0.166,0.169
	c-0.062,0.05-0.131,0.094-0.203,0.131c-0.072,0.037-0.147,0.069-0.222,0.094l-0.05-0.125l-0.05-0.125l-0.05-0.125l-0.05-0.125
	c0.05-0.025,0.094-0.05,0.133-0.075c0.039-0.025,0.073-0.05,0.104-0.075c0.031-0.025,0.059-0.05,0.086-0.075
	c0.027-0.025,0.052-0.05,0.077-0.075c0.025-0.025,0.044-0.056,0.058-0.092s0.023-0.076,0.029-0.12
	c0.007-0.044,0.01-0.091,0.011-0.139c0.002-0.048,0.002-0.098,0.002-0.148h-0.1h-0.1h-0.1h-0.1v-0.275v-0.275v-0.275v-0.275h0.025
	H44.8h0.025H44.85z"/>
<path id="path12440" style="fill:#003366;" d="M47.85,63.841v-1.475v-1.475v-1.475v-1.475h0.4h0.4h0.4h0.4
	c0.15,0,0.287,0,0.412,0.002s0.238,0.005,0.338,0.011c0.1,0.006,0.188,0.015,0.263,0.029s0.138,0.033,0.188,0.058
	c0.075,0.025,0.144,0.056,0.208,0.094c0.064,0.038,0.124,0.081,0.18,0.131s0.11,0.106,0.161,0.169
	c0.051,0.062,0.101,0.131,0.151,0.206s0.094,0.156,0.131,0.244c0.038,0.088,0.069,0.181,0.094,0.281
	c0.025,0.1,0.044,0.206,0.056,0.319c0.013,0.113,0.019,0.231,0.019,0.356c0,0.1-0.006,0.2-0.017,0.299
	c-0.011,0.098-0.026,0.195-0.045,0.289c-0.019,0.093-0.041,0.184-0.064,0.27s-0.049,0.167-0.074,0.242
	c-0.05,0.075-0.1,0.144-0.15,0.206s-0.1,0.119-0.15,0.169s-0.1,0.094-0.15,0.131c-0.05,0.038-0.1,0.069-0.15,0.094
	c-0.05,0.025-0.119,0.05-0.203,0.074c-0.084,0.023-0.184,0.045-0.297,0.064c-0.112,0.019-0.237,0.034-0.372,0.045
	c-0.134,0.011-0.278,0.017-0.428,0.017H49.4h-0.15H49.1h-0.15v0.55v0.55v0.55v0.55l-0.275-0.025L48.4,63.891l-0.275-0.025
	L47.85,63.841L47.85,63.841L47.85,63.841L47.85,63.841L47.85,63.841z M48.85,58.941v0.425v0.425v0.425v0.425h0.125H49.1h0.125h0.125
	c0.1,0,0.188,0,0.264-0.002s0.142-0.005,0.199-0.011c0.057-0.007,0.103-0.016,0.142-0.03c0.039-0.014,0.07-0.032,0.095-0.057
	c0.025-0.025,0.05-0.044,0.075-0.061c0.025-0.017,0.05-0.033,0.075-0.051c0.025-0.018,0.05-0.04,0.075-0.07s0.05-0.068,0.075-0.118
	c0.025-0.025,0.044-0.056,0.058-0.092c0.014-0.036,0.023-0.076,0.029-0.12c0.006-0.044,0.01-0.091,0.011-0.139
	c0.002-0.049,0.002-0.098,0.002-0.149c0-0.05,0-0.1-0.002-0.148s-0.005-0.096-0.011-0.139c-0.006-0.043-0.015-0.084-0.029-0.12
	c-0.014-0.036-0.033-0.067-0.058-0.092c-0.025-0.025-0.05-0.05-0.075-0.075c-0.025-0.025-0.05-0.05-0.075-0.075
	c-0.025-0.025-0.05-0.05-0.075-0.075c-0.025-0.025-0.05-0.05-0.075-0.075c-0.025,0-0.062-0.006-0.111-0.016
	c-0.048-0.009-0.108-0.022-0.176-0.034c-0.069-0.012-0.147-0.025-0.233-0.034s-0.18-0.016-0.28-0.016l-0.1,0.025l-0.1,0.025
	l-0.1,0.025L48.85,58.941L48.85,58.941L48.85,58.941L48.85,58.941L48.85,58.941z"/>
<path id="path12442" style="fill:#003366;" d="M51.85,61.641c0-0.1,0.006-0.2,0.019-0.299c0.012-0.098,0.031-0.195,0.056-0.29
	c0.025-0.094,0.056-0.184,0.094-0.27c0.038-0.086,0.081-0.167,0.131-0.242s0.1-0.15,0.152-0.223c0.051-0.073,0.104-0.146,0.16-0.215
	c0.056-0.069,0.116-0.134,0.18-0.195s0.133-0.117,0.208-0.167c0.075-0.05,0.15-0.094,0.225-0.131
	c0.075-0.037,0.15-0.069,0.225-0.094c0.075-0.025,0.15-0.044,0.225-0.056c0.075-0.013,0.15-0.019,0.225-0.019
	c0.15,0,0.287,0.013,0.414,0.039s0.242,0.067,0.349,0.123c0.106,0.056,0.203,0.129,0.292,0.218c0.089,0.089,0.17,0.195,0.245,0.32
	c0.075,0.1,0.144,0.213,0.205,0.334s0.114,0.253,0.157,0.391c0.044,0.138,0.078,0.281,0.102,0.428
	c0.023,0.147,0.036,0.297,0.036,0.447c0,0.1-0.006,0.2-0.019,0.3c-0.013,0.1-0.031,0.2-0.056,0.3c-0.025,0.1-0.056,0.2-0.094,0.3
	c-0.037,0.1-0.081,0.2-0.131,0.3c-0.05,0.1-0.1,0.188-0.151,0.266c-0.052,0.078-0.105,0.147-0.161,0.209s-0.115,0.119-0.18,0.172
	s-0.133,0.103-0.208,0.153s-0.15,0.094-0.225,0.131c-0.075,0.038-0.15,0.069-0.225,0.094c-0.075,0.025-0.15,0.044-0.225,0.056
	c-0.075,0.013-0.15,0.019-0.225,0.019c-0.125,0-0.25-0.012-0.372-0.037c-0.122-0.025-0.241-0.062-0.353-0.113
	c-0.112-0.05-0.219-0.112-0.316-0.188c-0.097-0.075-0.184-0.162-0.259-0.263c-0.1-0.125-0.181-0.25-0.247-0.38
	s-0.116-0.264-0.153-0.408c-0.037-0.144-0.062-0.297-0.078-0.464C51.856,62.023,51.85,61.841,51.85,61.641L51.85,61.641
	L51.85,61.641L51.85,61.641L51.85,61.641z M52.75,61.741c0,0.1,0.006,0.2,0.019,0.297c0.013,0.097,0.031,0.191,0.056,0.278
	c0.025,0.088,0.056,0.169,0.094,0.241c0.038,0.072,0.081,0.134,0.131,0.184s0.1,0.094,0.15,0.131c0.05,0.038,0.1,0.069,0.15,0.094
	c0.05,0.025,0.1,0.044,0.15,0.056c0.05,0.013,0.1,0.019,0.15,0.019s0.1-0.006,0.15-0.019s0.1-0.031,0.15-0.056
	c0.05-0.025,0.1-0.056,0.15-0.094c0.05-0.037,0.1-0.081,0.15-0.131s0.094-0.112,0.131-0.184c0.038-0.072,0.069-0.153,0.094-0.241
	c0.025-0.087,0.044-0.181,0.056-0.278c0.013-0.097,0.019-0.197,0.019-0.297c0-0.1-0.006-0.2-0.019-0.297s-0.031-0.191-0.056-0.278
	c-0.025-0.087-0.056-0.169-0.094-0.241c-0.037-0.072-0.081-0.134-0.131-0.184c-0.05-0.05-0.1-0.094-0.15-0.131
	c-0.05-0.037-0.1-0.069-0.15-0.094c-0.05-0.025-0.1-0.044-0.15-0.056s-0.1-0.019-0.15-0.019s-0.1,0.006-0.15,0.019
	c-0.05,0.013-0.1,0.031-0.15,0.056c-0.05,0.025-0.1,0.056-0.15,0.094c-0.05,0.038-0.1,0.081-0.15,0.131s-0.094,0.112-0.131,0.184
	c-0.037,0.072-0.069,0.153-0.094,0.241c-0.025,0.088-0.044,0.181-0.056,0.278S52.75,61.641,52.75,61.741L52.75,61.741L52.75,61.741
	L52.75,61.741L52.75,61.741z"/>
<path id="path12444" style="fill:#003366;" d="M55.85,63.841v-1.475v-1.475v-1.475v-1.475h0.225H56.3h0.225h0.225v1.475v1.475v1.475
	v1.475h-0.225H56.3h-0.225H55.85z"/>
<path id="path12446" style="fill:#003366;" d="M57.35,63.841v-1.475v-1.475v-1.475v-1.475h0.225H57.8h0.225h0.225v1.475v1.475v1.475
	v1.475h-0.225H57.8h-0.225H57.35z"/>
<path id="path12448" style="fill:#003366;" d="M61.15,63.841v-0.15v-0.15v-0.15v-0.15c-0.025,0.05-0.056,0.1-0.092,0.149
	s-0.077,0.095-0.121,0.139c-0.044,0.043-0.09,0.084-0.139,0.12c-0.048,0.036-0.098,0.067-0.148,0.092
	c-0.05,0.025-0.1,0.05-0.151,0.074c-0.051,0.023-0.104,0.045-0.16,0.064c-0.057,0.019-0.116,0.034-0.18,0.045
	c-0.064,0.011-0.133,0.017-0.208,0.017c-0.05,0-0.1-0.006-0.15-0.017s-0.1-0.026-0.15-0.045c-0.05-0.018-0.1-0.04-0.15-0.064
	c-0.05-0.024-0.1-0.049-0.15-0.074c-0.05-0.025-0.094-0.056-0.133-0.092c-0.039-0.036-0.074-0.076-0.105-0.12
	c-0.031-0.044-0.059-0.091-0.085-0.139c-0.026-0.049-0.051-0.098-0.076-0.149c-0.025-0.05-0.044-0.106-0.058-0.17
	c-0.014-0.064-0.024-0.136-0.03-0.218c-0.006-0.081-0.009-0.171-0.011-0.273c-0.002-0.101-0.002-0.214-0.002-0.339v-0.675v-0.675
	v-0.675v-0.675h0.225H59.3h0.225h0.225v0.5v0.5v0.5v0.5c0,0.15,0,0.281,0,0.397c0,0.116,0,0.216,0,0.303c0,0.088,0,0.163,0,0.228
	s0,0.122,0,0.172c0,0.05,0.006,0.094,0.017,0.133c0.011,0.039,0.026,0.073,0.045,0.104c0.018,0.031,0.041,0.059,0.064,0.086
	c0.024,0.027,0.049,0.052,0.074,0.077s0.05,0.044,0.077,0.058c0.026,0.014,0.054,0.023,0.085,0.029s0.066,0.009,0.105,0.011
	c0.039,0.002,0.083,0.002,0.133,0.002s0.094-0.006,0.133-0.017c0.039-0.011,0.074-0.026,0.105-0.045
	c0.031-0.018,0.06-0.04,0.086-0.064c0.026-0.024,0.051-0.049,0.076-0.074c0.025-0.025,0.05-0.056,0.075-0.091
	c0.025-0.034,0.05-0.072,0.075-0.109c0.025-0.037,0.05-0.075,0.075-0.109c0.025-0.034,0.05-0.066,0.075-0.091
	c0-0.05,0.006-0.106,0.016-0.172c0.009-0.066,0.022-0.141,0.034-0.228c0.013-0.087,0.025-0.188,0.034-0.303
	c0.009-0.116,0.016-0.247,0.016-0.397v-0.45v-0.45v-0.45v-0.45h0.225H61.6h0.225h0.225v1.075v1.075v1.075v1.075h-0.225H61.6h-0.225
	H61.15v-0.025v-0.025v-0.025V63.841z"/>
<path id="path12450" style="fill:#003366;" d="M64.25,59.541v0.225v0.225v0.225v0.225H64.1h-0.15H63.8h-0.15v0.425v0.425v0.425
	v0.425c0,0.1,0,0.188,0,0.264s0,0.142,0,0.199c0,0.056,0,0.103,0,0.142c0,0.039,0,0.07,0,0.095c0,0.025,0.006,0.05,0.017,0.074
	c0.011,0.023,0.026,0.045,0.045,0.064c0.019,0.019,0.041,0.034,0.065,0.045c0.024,0.011,0.049,0.017,0.073,0.017
	c0.025,0,0.05,0,0.077-0.002c0.026-0.002,0.054-0.005,0.086-0.011c0.031-0.007,0.065-0.016,0.105-0.03
	c0.039-0.014,0.083-0.032,0.133-0.057l0.025,0.225l0.025,0.225l0.025,0.225l0.025,0.225c-0.05,0.025-0.106,0.05-0.166,0.074
	c-0.059,0.023-0.122,0.045-0.184,0.064c-0.063,0.019-0.125,0.034-0.184,0.045c-0.059,0.011-0.116,0.017-0.166,0.017
	s-0.1-0.006-0.15-0.017c-0.05-0.011-0.1-0.026-0.15-0.045c-0.05-0.018-0.1-0.04-0.15-0.064c-0.05-0.024-0.1-0.049-0.15-0.074
	c-0.025-0.025-0.05-0.056-0.075-0.092c-0.025-0.036-0.05-0.076-0.075-0.12c-0.025-0.044-0.05-0.091-0.075-0.139
	s-0.05-0.099-0.075-0.149c0-0.05-0.006-0.106-0.016-0.17s-0.022-0.136-0.034-0.218c-0.012-0.081-0.025-0.171-0.034-0.273
	c-0.009-0.101-0.016-0.214-0.016-0.339v-0.475v-0.475v-0.475v-0.475h-0.1h-0.1h-0.1h-0.1v-0.225v-0.225v-0.225v-0.225h0.1h0.1h0.1
	h0.1v-0.225v-0.225v-0.225v-0.225l0.225-0.175l0.225-0.175l0.225-0.175l0.225-0.175v0.375v0.375v0.375v0.375h0.175H63.9h0.175h0.175
	v0.025v0.025c0,0,0,0.013,0,0.025S64.25,59.541,64.25,59.541z"/>
<path id="path12452" style="fill:#003366;" d="M65.25,60.841l-0.2-0.05l-0.2-0.05l-0.2-0.05l-0.2-0.05
	c0.025-0.1,0.056-0.194,0.092-0.281c0.036-0.087,0.077-0.169,0.121-0.244s0.091-0.144,0.139-0.206
	c0.048-0.062,0.098-0.119,0.148-0.169c0.05-0.05,0.112-0.094,0.184-0.131c0.072-0.037,0.153-0.069,0.241-0.094
	c0.087-0.025,0.181-0.044,0.278-0.056c0.097-0.013,0.197-0.019,0.297-0.019c0.1,0,0.194,0.006,0.281,0.017
	c0.087,0.011,0.169,0.026,0.244,0.045c0.075,0.019,0.144,0.041,0.206,0.065c0.062,0.023,0.119,0.049,0.169,0.073
	c0.05,0.025,0.1,0.056,0.147,0.092c0.047,0.036,0.091,0.076,0.128,0.12c0.037,0.044,0.069,0.091,0.091,0.139
	s0.034,0.098,0.034,0.148c0.025,0.05,0.044,0.106,0.058,0.17c0.014,0.064,0.024,0.136,0.03,0.218
	c0.006,0.081,0.009,0.172,0.01,0.273c0.002,0.102,0.002,0.214,0.002,0.339v0.325v0.325v0.325v0.325c0,0.1,0,0.188,0,0.266
	s0,0.147,0,0.209s0,0.119,0,0.172c0,0.053,0,0.103,0,0.153s0.006,0.1,0.017,0.15c0.011,0.05,0.026,0.1,0.045,0.15
	c0.019,0.05,0.041,0.1,0.065,0.15c0.023,0.05,0.049,0.1,0.074,0.15h-0.225H67.1h-0.225H66.65l-0.025-0.125L66.6,63.591l-0.025-0.125
	l-0.025-0.125c-0.05,0.05-0.094,0.094-0.134,0.133c-0.041,0.039-0.078,0.073-0.116,0.104c-0.038,0.032-0.075,0.06-0.116,0.086
	c-0.041,0.027-0.084,0.052-0.134,0.077c-0.05,0.025-0.1,0.044-0.15,0.058s-0.1,0.023-0.15,0.029c-0.05,0.007-0.1,0.01-0.15,0.011
	c-0.05,0.002-0.1,0.002-0.15,0.002c-0.075,0-0.15-0.006-0.224-0.019s-0.146-0.031-0.215-0.056c-0.069-0.025-0.135-0.056-0.195-0.094
	c-0.061-0.037-0.117-0.081-0.167-0.131c-0.05-0.05-0.094-0.106-0.131-0.169c-0.037-0.062-0.069-0.131-0.094-0.206
	c-0.025-0.075-0.044-0.156-0.056-0.244c-0.012-0.087-0.019-0.181-0.019-0.281c0-0.05,0-0.106,0.001-0.164
	c0.002-0.058,0.005-0.117,0.011-0.174c0.007-0.056,0.016-0.109,0.03-0.154c0.014-0.045,0.033-0.083,0.058-0.108
	c0.025-0.05,0.05-0.094,0.076-0.133c0.026-0.039,0.054-0.073,0.086-0.104c0.031-0.031,0.065-0.059,0.105-0.086
	c0.039-0.027,0.083-0.052,0.133-0.077c0.05-0.025,0.1-0.05,0.153-0.075c0.053-0.025,0.109-0.05,0.172-0.075
	c0.062-0.025,0.131-0.05,0.209-0.075c0.078-0.025,0.166-0.05,0.266-0.075c0.1-0.025,0.194-0.05,0.281-0.075
	c0.087-0.025,0.169-0.05,0.244-0.075c0.075-0.025,0.144-0.05,0.206-0.075c0.062-0.025,0.119-0.05,0.169-0.075
	c0-0.05,0-0.1-0.002-0.148s-0.005-0.096-0.01-0.139c-0.007-0.043-0.016-0.084-0.03-0.12c-0.014-0.036-0.033-0.067-0.058-0.092
	c0-0.025-0.006-0.044-0.017-0.059s-0.026-0.028-0.045-0.041c-0.019-0.013-0.04-0.025-0.064-0.041s-0.048-0.034-0.073-0.059
	c-0.025,0-0.05-0.006-0.076-0.016c-0.027-0.009-0.055-0.022-0.086-0.034c-0.032-0.013-0.067-0.025-0.106-0.034
	c-0.039-0.009-0.083-0.016-0.133-0.016s-0.094,0-0.133,0.002c-0.039,0.002-0.074,0.005-0.105,0.011
	c-0.031,0.006-0.059,0.015-0.086,0.029c-0.026,0.014-0.051,0.033-0.076,0.058c-0.025,0.05-0.05,0.094-0.074,0.134
	c-0.023,0.041-0.046,0.078-0.064,0.116c-0.019,0.038-0.035,0.075-0.045,0.116C65.256,60.748,65.25,60.791,65.25,60.841L65.25,60.841
	L65.25,60.841L65.25,60.841L65.25,60.841z M66.45,61.841c-0.025,0-0.056,0.006-0.094,0.017c-0.038,0.011-0.081,0.026-0.131,0.045
	c-0.05,0.019-0.106,0.041-0.169,0.064c-0.063,0.024-0.131,0.049-0.206,0.074c-0.075,0.025-0.144,0.05-0.206,0.075
	s-0.119,0.05-0.169,0.075c-0.05,0.025-0.094,0.05-0.131,0.075c-0.037,0.025-0.069,0.05-0.094,0.075
	c-0.025,0.025-0.044,0.05-0.058,0.076s-0.024,0.055-0.03,0.085c-0.006,0.031-0.009,0.066-0.011,0.105
	c-0.001,0.039-0.001,0.083-0.001,0.133s0,0.094,0.001,0.133c0.002,0.039,0.005,0.073,0.011,0.104c0.007,0.032,0.016,0.06,0.03,0.086
	c0.014,0.027,0.033,0.052,0.058,0.077c0.025,0.025,0.05,0.05,0.076,0.074c0.026,0.023,0.054,0.045,0.086,0.064
	c0.031,0.019,0.066,0.034,0.105,0.045c0.039,0.011,0.083,0.017,0.133,0.017c0.025,0,0.056,0,0.091-0.002
	c0.034-0.002,0.072-0.005,0.109-0.011s0.075-0.016,0.109-0.03c0.034-0.014,0.066-0.032,0.091-0.057
	c0.025-0.025,0.05-0.05,0.075-0.075c0.025-0.025,0.05-0.05,0.075-0.075c0.025-0.025,0.05-0.05,0.075-0.075
	c0.025-0.025,0.05-0.05,0.075-0.075s0.044-0.056,0.058-0.095c0.014-0.039,0.024-0.086,0.03-0.142
	c0.006-0.056,0.009-0.122,0.011-0.199c0.002-0.077,0.002-0.164,0.002-0.264v-0.1v-0.1v-0.1V61.841L66.45,61.841L66.45,61.841
	L66.45,61.841L66.45,61.841z"/>
<path id="path12454" style="fill:#003366;" d="M71.15,63.841h-0.225H70.7h-0.225H70.25v-0.55v-0.55v-0.55v-0.55
	c0-0.1,0-0.194-0.002-0.281c-0.002-0.087-0.005-0.169-0.01-0.244c-0.007-0.075-0.016-0.144-0.03-0.206
	c-0.014-0.062-0.033-0.119-0.058-0.169c0-0.025-0.006-0.056-0.017-0.089s-0.026-0.067-0.045-0.099
	c-0.019-0.031-0.041-0.059-0.064-0.08c-0.024-0.02-0.049-0.032-0.074-0.032c-0.025-0.025-0.05-0.044-0.075-0.058
	c-0.025-0.014-0.05-0.023-0.075-0.029c-0.025-0.006-0.05-0.01-0.075-0.011s-0.05-0.002-0.075-0.002c-0.05,0-0.094,0.006-0.133,0.017
	c-0.039,0.011-0.074,0.026-0.105,0.045c-0.031,0.019-0.059,0.041-0.086,0.064c-0.027,0.024-0.051,0.049-0.076,0.074
	s-0.05,0.05-0.075,0.076s-0.05,0.055-0.075,0.085c-0.025,0.031-0.05,0.066-0.075,0.105s-0.05,0.083-0.075,0.133
	s-0.044,0.106-0.058,0.17s-0.024,0.136-0.03,0.218c-0.006,0.081-0.009,0.172-0.011,0.273c-0.001,0.102-0.001,0.214-0.001,0.339
	v0.475v0.475v0.475v0.475h-0.225H68.4h-0.225H67.95v-1.075v-1.075v-1.075v-1.075h0.225H68.4h0.225h0.225v0.15v0.15v0.15v0.15
	c0.05-0.05,0.094-0.1,0.134-0.148c0.041-0.049,0.078-0.096,0.116-0.139c0.037-0.043,0.075-0.084,0.116-0.12
	c0.041-0.036,0.084-0.067,0.134-0.092c0.05-0.025,0.1-0.05,0.15-0.073c0.05-0.023,0.1-0.046,0.15-0.065
	c0.05-0.018,0.1-0.034,0.15-0.045c0.05-0.011,0.1-0.017,0.15-0.017c0.075,0,0.144,0.006,0.208,0.017s0.124,0.026,0.18,0.045
	c0.056,0.019,0.109,0.041,0.16,0.065c0.052,0.023,0.102,0.049,0.152,0.073c0.05,0.025,0.094,0.056,0.133,0.092
	c0.039,0.036,0.074,0.076,0.105,0.12c0.031,0.044,0.059,0.091,0.086,0.139c0.026,0.049,0.051,0.098,0.076,0.148
	s0.044,0.106,0.058,0.17c0.014,0.064,0.024,0.136,0.03,0.218c0.006,0.081,0.009,0.172,0.01,0.273
	c0.002,0.102,0.002,0.214,0.002,0.339v0.675v0.675v0.675V63.841L71.15,63.841L71.15,63.841L71.15,63.841L71.15,63.841z"/>
<path id="path12456" style="fill:#003366;" d="M73.35,59.541v0.225v0.225v0.225v0.225h-0.175H73h-0.175H72.65v0.425v0.425v0.425
	v0.425c0,0.1,0,0.188,0,0.264s0,0.142,0,0.199c0,0.056,0,0.103,0,0.142c0,0.039,0,0.07,0,0.095c0,0.025,0.006,0.05,0.017,0.074
	c0.011,0.023,0.026,0.045,0.045,0.064c0.019,0.019,0.041,0.034,0.064,0.045s0.049,0.017,0.074,0.017s0.05,0,0.076-0.002
	c0.026-0.002,0.054-0.005,0.086-0.011c0.031-0.007,0.065-0.016,0.105-0.03c0.039-0.014,0.083-0.032,0.133-0.057l0.025,0.225
	l0.025,0.225l0.025,0.225l0.025,0.225c-0.05,0.025-0.106,0.05-0.166,0.074c-0.059,0.023-0.122,0.045-0.184,0.064
	c-0.063,0.019-0.125,0.034-0.184,0.045c-0.059,0.011-0.116,0.017-0.166,0.017c-0.05,0-0.1-0.006-0.15-0.017
	c-0.05-0.011-0.1-0.026-0.15-0.045c-0.05-0.018-0.1-0.04-0.15-0.064c-0.05-0.024-0.1-0.049-0.15-0.074
	c-0.025-0.025-0.05-0.056-0.075-0.092c-0.025-0.036-0.05-0.076-0.075-0.12c-0.025-0.044-0.05-0.091-0.075-0.139
	s-0.05-0.099-0.075-0.149c0-0.05-0.006-0.106-0.016-0.17c-0.009-0.064-0.022-0.136-0.034-0.218
	c-0.012-0.081-0.025-0.171-0.034-0.273c-0.009-0.101-0.016-0.214-0.016-0.339v-0.475v-0.475v-0.475v-0.475h-0.1h-0.1h-0.1h-0.1
	v-0.225v-0.225v-0.225v-0.225h0.1h0.1h0.1h0.1v-0.225v-0.225v-0.225v-0.225l0.225-0.175l0.225-0.175l0.225-0.175l0.225-0.175v0.375
	v0.375v0.375v0.375h0.2h0.2h0.2h0.2v0.025v0.025v0.025V59.541z"/>
<path id="path12458" style="fill:#003366;" d="M73.25,62.641l0.225-0.05l0.225-0.05l0.225-0.05l0.225-0.05
	c0.025,0.1,0.056,0.194,0.097,0.278c0.041,0.084,0.091,0.159,0.153,0.222s0.137,0.113,0.228,0.147
	c0.091,0.034,0.197,0.053,0.322,0.053c0.05,0,0.1,0,0.148-0.002c0.048-0.002,0.095-0.005,0.139-0.011s0.084-0.016,0.12-0.03
	s0.068-0.032,0.093-0.057c0.025-0.025,0.05-0.05,0.073-0.075c0.023-0.025,0.045-0.05,0.064-0.075
	c0.019-0.025,0.035-0.05,0.046-0.075c0.011-0.025,0.017-0.05,0.017-0.075s0-0.05-0.002-0.073c-0.002-0.024-0.005-0.046-0.01-0.065
	c-0.007-0.018-0.016-0.034-0.03-0.045c-0.014-0.011-0.033-0.017-0.058-0.017c-0.025-0.025-0.05-0.044-0.075-0.058
	c-0.025-0.014-0.05-0.023-0.075-0.029c-0.025-0.007-0.05-0.01-0.075-0.011s-0.05-0.002-0.075-0.002c-0.2-0.05-0.381-0.1-0.544-0.15
	s-0.306-0.1-0.431-0.15s-0.231-0.1-0.319-0.15s-0.156-0.1-0.206-0.15c-0.075-0.05-0.138-0.106-0.189-0.169s-0.092-0.131-0.123-0.206
	c-0.032-0.075-0.054-0.156-0.068-0.244c-0.014-0.087-0.02-0.181-0.02-0.281c0-0.1,0.006-0.194,0.02-0.283
	c0.014-0.089,0.036-0.174,0.068-0.255c0.031-0.081,0.072-0.159,0.123-0.236s0.114-0.152,0.189-0.227
	c0.075-0.05,0.15-0.1,0.228-0.147s0.159-0.091,0.247-0.128c0.088-0.037,0.181-0.069,0.284-0.091
	c0.103-0.022,0.216-0.034,0.341-0.034s0.237,0.006,0.341,0.019s0.197,0.031,0.284,0.056c0.088,0.025,0.169,0.056,0.247,0.094
	c0.078,0.037,0.153,0.081,0.228,0.131c0.05,0.05,0.1,0.106,0.148,0.169c0.048,0.062,0.095,0.131,0.139,0.206s0.084,0.156,0.12,0.244
	c0.036,0.088,0.068,0.181,0.093,0.281l-0.225,0.05L76,60.841l-0.225,0.05l-0.225,0.05c-0.025-0.075-0.056-0.144-0.095-0.205
	c-0.039-0.061-0.086-0.114-0.143-0.157c-0.056-0.044-0.122-0.078-0.198-0.102c-0.076-0.023-0.164-0.036-0.264-0.036
	c-0.05,0-0.1,0-0.148,0.002s-0.095,0.005-0.139,0.011c-0.044,0.006-0.085,0.015-0.121,0.029c-0.036,0.014-0.067,0.033-0.092,0.058
	s-0.044,0.044-0.058,0.061c-0.014,0.017-0.024,0.033-0.03,0.051c-0.006,0.019-0.009,0.041-0.011,0.071
	c-0.001,0.03-0.001,0.067-0.001,0.117c0,0.025,0,0.05,0.001,0.074c0.002,0.023,0.005,0.045,0.011,0.064
	c0.007,0.019,0.016,0.034,0.03,0.045c0.014,0.011,0.033,0.017,0.058,0.017c0.025,0.025,0.062,0.05,0.111,0.075
	c0.048,0.025,0.108,0.05,0.176,0.075c0.069,0.025,0.147,0.05,0.233,0.075c0.086,0.025,0.18,0.05,0.28,0.075
	c0.125,0.025,0.244,0.056,0.355,0.092c0.111,0.036,0.214,0.076,0.307,0.12c0.094,0.044,0.178,0.091,0.252,0.139
	c0.074,0.049,0.136,0.098,0.186,0.148c0.05,0.05,0.094,0.106,0.131,0.167s0.069,0.126,0.094,0.195
	c0.025,0.069,0.044,0.141,0.056,0.215c0.012,0.074,0.019,0.148,0.019,0.223c0,0.1-0.006,0.2-0.02,0.297
	c-0.014,0.097-0.036,0.191-0.068,0.278c-0.032,0.088-0.072,0.169-0.123,0.241c-0.051,0.072-0.114,0.134-0.189,0.184
	c-0.075,0.075-0.156,0.138-0.244,0.189c-0.088,0.051-0.181,0.092-0.281,0.123c-0.1,0.031-0.206,0.053-0.319,0.067
	c-0.112,0.014-0.231,0.021-0.356,0.021s-0.238-0.006-0.341-0.019c-0.103-0.012-0.197-0.031-0.284-0.056
	c-0.088-0.025-0.169-0.056-0.247-0.094c-0.078-0.037-0.153-0.081-0.228-0.131c-0.075-0.075-0.144-0.156-0.206-0.242
	c-0.062-0.086-0.119-0.177-0.169-0.271c-0.05-0.093-0.094-0.19-0.131-0.289C73.306,62.841,73.275,62.741,73.25,62.641L73.25,62.641
	L73.25,62.641L73.25,62.641L73.25,62.641z"/>
<path id="path12460" style="fill:#003366;" d="M76.95,62.741h0.225H77.4h0.225h0.225v0.2v0.2v0.2v0.2
	c0,0.125-0.006,0.238-0.017,0.339c-0.011,0.102-0.026,0.192-0.045,0.273c-0.019,0.081-0.04,0.153-0.064,0.217
	c-0.024,0.064-0.049,0.121-0.074,0.171c-0.025,0.075-0.063,0.144-0.109,0.206s-0.103,0.119-0.166,0.169
	c-0.062,0.05-0.131,0.094-0.203,0.131c-0.072,0.037-0.147,0.069-0.222,0.094l-0.05-0.125l-0.05-0.125l-0.05-0.125l-0.05-0.125
	c0.05-0.025,0.094-0.05,0.133-0.075s0.074-0.05,0.105-0.075c0.031-0.025,0.059-0.05,0.086-0.075s0.052-0.05,0.076-0.075
	c0.025-0.025,0.044-0.056,0.058-0.092c0.014-0.036,0.024-0.076,0.03-0.12c0.006-0.044,0.009-0.091,0.01-0.139
	c0.002-0.048,0.002-0.098,0.002-0.148h-0.1h-0.1h-0.1h-0.1l0.025-0.275l0.025-0.275l0.025-0.275L76.95,62.741L76.95,62.741
	L76.95,62.741L76.95,62.741L76.95,62.741z"/>
<path id="path12462" style="fill:#003366;" d="M31.75,69.941l0.225,0.1l0.225,0.1l0.225,0.1l0.225,0.1
	c-0.025,0.175-0.062,0.331-0.109,0.473c-0.047,0.142-0.103,0.27-0.166,0.389c-0.062,0.119-0.131,0.229-0.203,0.333
	c-0.072,0.105-0.147,0.205-0.222,0.305c-0.075,0.075-0.162,0.144-0.259,0.205c-0.097,0.061-0.203,0.114-0.316,0.158
	c-0.112,0.044-0.231,0.078-0.353,0.101s-0.247,0.036-0.372,0.036c-0.15,0-0.294-0.012-0.431-0.039
	c-0.137-0.026-0.269-0.067-0.394-0.123c-0.125-0.056-0.244-0.128-0.356-0.218c-0.112-0.089-0.219-0.195-0.319-0.32
	c-0.125-0.15-0.231-0.306-0.32-0.472c-0.089-0.166-0.161-0.341-0.217-0.528c-0.056-0.188-0.097-0.387-0.124-0.603
	c-0.027-0.216-0.039-0.447-0.039-0.697c0-0.25,0.013-0.488,0.039-0.713s0.067-0.438,0.124-0.637c0.056-0.2,0.128-0.388,0.217-0.562
	c0.089-0.175,0.195-0.338,0.32-0.488c0.1-0.125,0.206-0.231,0.32-0.32c0.114-0.089,0.236-0.161,0.368-0.218
	c0.131-0.056,0.272-0.097,0.423-0.123c0.152-0.026,0.314-0.039,0.489-0.039c0.125,0,0.25,0.013,0.373,0.037
	c0.123,0.025,0.245,0.062,0.364,0.113c0.119,0.05,0.235,0.113,0.346,0.188c0.111,0.075,0.217,0.162,0.317,0.263
	c0.075,0.075,0.144,0.156,0.206,0.244c0.062,0.087,0.119,0.181,0.169,0.281c0.05,0.1,0.094,0.206,0.131,0.319
	c0.038,0.112,0.069,0.231,0.094,0.356l-0.25,0.075l-0.25,0.075L32,68.266l-0.25,0.075c-0.025-0.075-0.05-0.15-0.076-0.222
	c-0.026-0.072-0.054-0.141-0.086-0.203c-0.031-0.062-0.065-0.119-0.105-0.166c-0.039-0.047-0.083-0.084-0.133-0.109
	c-0.05-0.05-0.1-0.094-0.151-0.131s-0.105-0.069-0.161-0.094c-0.056-0.025-0.116-0.044-0.18-0.056
	c-0.064-0.012-0.133-0.019-0.208-0.019c-0.1,0-0.194,0.012-0.281,0.036c-0.087,0.023-0.169,0.058-0.244,0.102
	c-0.075,0.043-0.144,0.096-0.206,0.157s-0.119,0.13-0.169,0.205c-0.05,0.075-0.094,0.162-0.131,0.262
	c-0.037,0.1-0.069,0.213-0.094,0.338c-0.025,0.125-0.044,0.262-0.056,0.412c-0.012,0.15-0.019,0.312-0.019,0.488
	c0,0.175,0.006,0.344,0.019,0.503c0.013,0.159,0.031,0.309,0.056,0.447c0.025,0.138,0.056,0.263,0.094,0.372
	c0.038,0.109,0.081,0.203,0.131,0.278c0.05,0.075,0.106,0.144,0.169,0.205c0.062,0.061,0.131,0.114,0.206,0.158
	c0.075,0.044,0.156,0.078,0.244,0.101c0.088,0.023,0.181,0.036,0.281,0.036c0.075,0,0.144-0.006,0.208-0.019
	c0.064-0.013,0.124-0.031,0.18-0.056c0.056-0.025,0.109-0.056,0.16-0.094c0.052-0.038,0.102-0.081,0.152-0.131
	c0.05-0.1,0.1-0.194,0.147-0.286c0.047-0.092,0.091-0.183,0.128-0.276c0.037-0.094,0.069-0.191,0.091-0.296
	C31.738,70.179,31.75,70.066,31.75,69.941L31.75,69.941L31.75,69.941L31.75,69.941L31.75,69.941z"/>
<path id="path12464" style="fill:#003366;" d="M32.95,69.941c0-0.1,0.006-0.2,0.019-0.299c0.012-0.098,0.031-0.196,0.056-0.289
	c0.025-0.094,0.056-0.185,0.094-0.27c0.038-0.086,0.081-0.167,0.131-0.242c0.05-0.075,0.1-0.15,0.152-0.224s0.104-0.146,0.16-0.215
	c0.057-0.068,0.116-0.134,0.18-0.195s0.133-0.117,0.208-0.167c0.075-0.05,0.15-0.094,0.225-0.131s0.15-0.069,0.225-0.094
	s0.15-0.044,0.225-0.056c0.075-0.012,0.15-0.019,0.225-0.019c0.15,0,0.287,0.012,0.414,0.039c0.127,0.027,0.242,0.067,0.349,0.123
	c0.106,0.057,0.203,0.129,0.292,0.218c0.089,0.089,0.17,0.195,0.245,0.32c0.075,0.1,0.144,0.213,0.205,0.334
	s0.114,0.253,0.157,0.391c0.044,0.137,0.079,0.281,0.102,0.428s0.036,0.297,0.036,0.447c0,0.1-0.006,0.2-0.019,0.3
	c-0.013,0.1-0.031,0.2-0.056,0.3c-0.025,0.1-0.056,0.2-0.094,0.3c-0.037,0.1-0.081,0.2-0.131,0.3s-0.1,0.188-0.151,0.266
	c-0.052,0.078-0.105,0.147-0.161,0.209s-0.115,0.119-0.18,0.172c-0.064,0.053-0.133,0.103-0.208,0.153
	c-0.075,0.05-0.15,0.094-0.225,0.131c-0.075,0.038-0.15,0.069-0.225,0.094c-0.075,0.025-0.15,0.044-0.225,0.056
	c-0.075,0.012-0.15,0.019-0.225,0.019c-0.125,0-0.25-0.012-0.372-0.037c-0.122-0.025-0.241-0.062-0.353-0.113
	c-0.112-0.05-0.219-0.112-0.316-0.188c-0.097-0.075-0.184-0.162-0.259-0.262c-0.075-0.125-0.144-0.256-0.205-0.394
	c-0.061-0.138-0.114-0.281-0.157-0.431c-0.043-0.15-0.078-0.306-0.102-0.469C32.963,70.285,32.95,70.116,32.95,69.941L32.95,69.941
	L32.95,69.941L32.95,69.941L32.95,69.941z M33.95,70.041c0,0.1,0.006,0.2,0.019,0.297c0.012,0.097,0.031,0.191,0.056,0.278
	c0.025,0.088,0.056,0.169,0.094,0.241c0.038,0.072,0.081,0.134,0.131,0.184c0.05,0.05,0.1,0.094,0.15,0.131
	c0.05,0.038,0.1,0.069,0.15,0.094c0.05,0.025,0.1,0.044,0.15,0.056c0.05,0.012,0.1,0.019,0.15,0.019s0.1-0.006,0.15-0.019
	c0.05-0.013,0.1-0.031,0.15-0.056s0.1-0.056,0.15-0.094c0.05-0.037,0.1-0.081,0.15-0.131c0.05-0.05,0.094-0.112,0.131-0.184
	c0.038-0.072,0.069-0.153,0.094-0.241c0.025-0.087,0.044-0.181,0.056-0.278s0.019-0.197,0.019-0.297s-0.006-0.2-0.019-0.297
	c-0.013-0.097-0.031-0.191-0.056-0.278c-0.025-0.088-0.056-0.169-0.094-0.241c-0.038-0.072-0.081-0.134-0.131-0.184
	c-0.05-0.05-0.1-0.094-0.15-0.131s-0.1-0.069-0.15-0.094s-0.1-0.044-0.15-0.056c-0.05-0.012-0.1-0.019-0.15-0.019
	s-0.1,0.006-0.15,0.019c-0.05,0.013-0.1,0.031-0.15,0.056s-0.1,0.056-0.15,0.094c-0.05,0.037-0.1,0.081-0.15,0.131
	c-0.05,0.05-0.094,0.106-0.131,0.17s-0.069,0.136-0.094,0.217c-0.025,0.081-0.044,0.172-0.056,0.274
	C33.956,69.804,33.95,69.916,33.95,70.041z"/>
<path id="path12466" style="fill:#003366;" d="M40.15,72.141h-0.225H39.7h-0.225H39.25v-0.55v-0.55v-0.55v-0.55
	c0-0.1,0-0.194-0.002-0.281s-0.005-0.169-0.011-0.244c-0.006-0.075-0.015-0.144-0.029-0.206s-0.033-0.119-0.058-0.169
	c0-0.025-0.006-0.056-0.017-0.089s-0.026-0.067-0.045-0.099c-0.019-0.031-0.041-0.059-0.064-0.079s-0.049-0.033-0.074-0.033
	c0-0.025-0.012-0.044-0.033-0.058c-0.02-0.014-0.048-0.024-0.079-0.03c-0.031-0.007-0.065-0.009-0.098-0.011
	c-0.033-0.001-0.064-0.001-0.09-0.001c-0.05,0-0.094,0.006-0.133,0.017c-0.039,0.011-0.073,0.026-0.104,0.045
	c-0.031,0.019-0.06,0.041-0.086,0.064c-0.027,0.023-0.052,0.049-0.077,0.074c-0.025,0.025-0.05,0.05-0.075,0.076
	c-0.025,0.026-0.05,0.054-0.075,0.085c-0.025,0.031-0.05,0.065-0.075,0.105c-0.025,0.039-0.05,0.083-0.075,0.133
	c-0.025,0.05-0.044,0.106-0.058,0.17s-0.023,0.136-0.029,0.218c-0.006,0.082-0.009,0.172-0.011,0.273
	c-0.002,0.101-0.002,0.214-0.002,0.339v0.475v0.475v0.475v0.475h-0.225H37.4h-0.225H36.95v-1.075v-1.075v-1.075v-1.075h0.225H37.4
	h0.225h0.225v0.15v0.15v0.15v0.15c0.05-0.05,0.094-0.1,0.134-0.148c0.041-0.049,0.078-0.096,0.116-0.14
	c0.038-0.044,0.075-0.084,0.116-0.12c0.041-0.036,0.084-0.067,0.134-0.092s0.1-0.05,0.15-0.074c0.05-0.023,0.1-0.046,0.15-0.064
	c0.05-0.019,0.1-0.034,0.15-0.045c0.05-0.011,0.1-0.017,0.15-0.017c0.075,0,0.144,0.006,0.208,0.017
	c0.064,0.011,0.124,0.026,0.18,0.045c0.056,0.019,0.109,0.041,0.16,0.064c0.052,0.023,0.102,0.049,0.152,0.074
	c0.05,0.025,0.094,0.056,0.133,0.092c0.039,0.036,0.073,0.076,0.104,0.12c0.032,0.044,0.06,0.091,0.086,0.14
	s0.052,0.098,0.077,0.148c0.025,0.05,0.044,0.106,0.058,0.17s0.023,0.136,0.029,0.218c0.007,0.081,0.01,0.171,0.011,0.273
	c0.002,0.102,0.002,0.214,0.002,0.339v0.675v0.675v0.675V72.141L40.15,72.141L40.15,72.141L40.15,72.141L40.15,72.141z"/>
<path id="path12468" style="fill:#003366;" d="M42.35,67.841v0.225v0.225v0.225v0.225H42.2h-0.15H41.9h-0.15v0.425v0.425v0.425
	v0.425c0,0.1,0,0.188,0,0.264c0,0.077,0,0.142,0,0.199c0,0.056,0,0.103,0,0.142c0,0.039,0,0.07,0,0.095s0.006,0.05,0.017,0.073
	c0.011,0.023,0.026,0.045,0.045,0.064c0.019,0.019,0.041,0.034,0.064,0.045s0.049,0.018,0.074,0.018c0.025,0,0.05,0,0.076-0.001
	c0.027-0.002,0.055-0.005,0.085-0.011c0.032-0.006,0.066-0.016,0.105-0.03c0.039-0.014,0.083-0.033,0.133-0.058l0.025,0.225
	l0.025,0.225l0.025,0.225l0.025,0.225c-0.05,0.025-0.106,0.05-0.166,0.073c-0.059,0.023-0.122,0.045-0.184,0.064
	s-0.125,0.034-0.184,0.045s-0.116,0.018-0.166,0.018c-0.05,0-0.1-0.006-0.15-0.017c-0.05-0.011-0.1-0.026-0.15-0.045
	s-0.1-0.04-0.15-0.064c-0.05-0.024-0.1-0.049-0.15-0.073c-0.05-0.025-0.087-0.056-0.117-0.092c-0.03-0.036-0.052-0.077-0.071-0.121
	c-0.018-0.044-0.034-0.091-0.051-0.14c-0.017-0.049-0.036-0.098-0.061-0.148c0-0.05-0.006-0.106-0.016-0.17
	c-0.009-0.064-0.022-0.136-0.034-0.217c-0.013-0.081-0.025-0.172-0.034-0.274c-0.009-0.102-0.016-0.214-0.016-0.339v-0.475v-0.475
	v-0.475v-0.475h-0.1h-0.1h-0.1h-0.1v-0.225v-0.225v-0.225v-0.225h0.1h0.1h0.1h0.1v-0.225v-0.225v-0.225v-0.225l0.225-0.175
	l0.225-0.175l0.225-0.175l0.225-0.175v0.375v0.375v0.375v0.375h0.175H42h0.175h0.175v0.025v0.025c0,0,0,0.012,0,0.025
	C42.35,67.829,42.35,67.841,42.35,67.841z"/>
<path id="path12470" style="fill:#003366;" d="M43.35,69.141l-0.2-0.05l-0.2-0.05l-0.2-0.05l-0.2-0.05
	c0.025-0.1,0.056-0.194,0.092-0.281c0.036-0.088,0.076-0.169,0.12-0.244c0.044-0.075,0.091-0.144,0.139-0.206
	S43,68.091,43.05,68.041c0.05-0.05,0.112-0.094,0.184-0.131s0.153-0.069,0.241-0.094c0.088-0.025,0.181-0.044,0.278-0.056
	c0.097-0.013,0.197-0.019,0.297-0.019c0.1,0,0.194,0.006,0.281,0.017c0.088,0.011,0.169,0.026,0.244,0.045
	c0.075,0.019,0.144,0.041,0.206,0.064s0.119,0.049,0.169,0.074c0.05,0.025,0.1,0.056,0.147,0.092
	c0.047,0.036,0.091,0.076,0.128,0.12c0.038,0.044,0.069,0.091,0.091,0.14c0.022,0.049,0.034,0.098,0.034,0.148
	c0.025,0.05,0.044,0.106,0.058,0.17s0.023,0.136,0.029,0.218c0.007,0.081,0.01,0.171,0.011,0.273s0.002,0.214,0.002,0.339v0.325
	v0.325v0.325v0.325c0,0.1,0,0.188,0,0.266s0,0.147,0,0.209s0,0.119,0,0.172s0,0.103,0,0.153c0,0.05,0.006,0.1,0.017,0.15
	c0.011,0.05,0.026,0.1,0.045,0.15c0.019,0.05,0.041,0.1,0.065,0.15c0.023,0.05,0.049,0.1,0.073,0.15h-0.225H45.2h-0.225H44.75
	l-0.025-0.125L44.7,71.891l-0.025-0.125l-0.025-0.125c-0.05,0.05-0.094,0.094-0.134,0.133c-0.041,0.039-0.078,0.074-0.116,0.105
	c-0.037,0.031-0.075,0.059-0.116,0.086c-0.041,0.026-0.084,0.051-0.134,0.076s-0.1,0.044-0.15,0.058
	c-0.05,0.014-0.1,0.024-0.15,0.03c-0.05,0.006-0.1,0.009-0.15,0.011c-0.05,0.001-0.1,0.001-0.15,0.001
	c-0.075,0-0.15-0.006-0.223-0.019c-0.074-0.013-0.146-0.031-0.215-0.056c-0.069-0.025-0.134-0.056-0.195-0.094
	c-0.061-0.037-0.117-0.081-0.167-0.131c-0.05-0.05-0.094-0.106-0.131-0.169c-0.037-0.062-0.069-0.131-0.094-0.206
	c-0.025-0.075-0.044-0.156-0.056-0.244c-0.013-0.088-0.019-0.181-0.019-0.281c0-0.05,0-0.106,0.002-0.164s0.005-0.117,0.011-0.174
	c0.006-0.056,0.015-0.109,0.029-0.154c0.014-0.045,0.033-0.083,0.058-0.108c0.025-0.05,0.05-0.094,0.076-0.133
	s0.055-0.074,0.085-0.105c0.032-0.031,0.066-0.059,0.105-0.085c0.039-0.027,0.083-0.051,0.133-0.076s0.1-0.05,0.153-0.075
	c0.053-0.025,0.109-0.05,0.172-0.075s0.131-0.05,0.209-0.075c0.078-0.025,0.166-0.05,0.266-0.075c0.1-0.025,0.194-0.05,0.281-0.075
	c0.088-0.025,0.169-0.05,0.244-0.075s0.144-0.05,0.206-0.075s0.119-0.05,0.169-0.075c0-0.05,0-0.1-0.002-0.148
	s-0.005-0.095-0.011-0.139c-0.006-0.044-0.015-0.084-0.029-0.12c-0.014-0.036-0.033-0.067-0.058-0.092
	c0-0.025-0.006-0.044-0.017-0.059s-0.026-0.028-0.045-0.041c-0.019-0.013-0.041-0.025-0.064-0.041
	c-0.024-0.016-0.049-0.034-0.074-0.059c-0.025,0-0.05-0.006-0.076-0.016c-0.026-0.009-0.054-0.022-0.085-0.034
	c-0.032-0.013-0.066-0.025-0.105-0.034c-0.039-0.009-0.083-0.016-0.133-0.016c-0.05,0-0.094,0-0.133,0.002
	c-0.039,0.002-0.073,0.005-0.104,0.011c-0.031,0.006-0.06,0.015-0.086,0.029c-0.027,0.014-0.052,0.033-0.077,0.058
	c-0.025,0.05-0.044,0.094-0.059,0.134s-0.028,0.078-0.041,0.116s-0.025,0.075-0.041,0.116C43.394,69.048,43.375,69.091,43.35,69.141
	L43.35,69.141L43.35,69.141L43.35,69.141L43.35,69.141z M44.55,70.041c-0.025,0-0.056,0.006-0.094,0.017
	c-0.037,0.011-0.081,0.026-0.131,0.045c-0.05,0.019-0.106,0.04-0.169,0.064s-0.131,0.049-0.206,0.074
	c-0.075,0.025-0.144,0.05-0.206,0.075c-0.062,0.025-0.119,0.05-0.169,0.075s-0.094,0.05-0.131,0.075
	c-0.037,0.025-0.069,0.05-0.094,0.075c-0.025,0.025-0.044,0.05-0.058,0.076c-0.014,0.027-0.023,0.055-0.029,0.086
	c-0.006,0.031-0.009,0.065-0.011,0.105c-0.002,0.039-0.002,0.083-0.002,0.133s0,0.094,0.002,0.133
	c0.002,0.039,0.005,0.074,0.011,0.105c0.006,0.031,0.015,0.059,0.029,0.086c0.014,0.026,0.033,0.051,0.058,0.076
	c0.025,0.025,0.05,0.05,0.076,0.073c0.027,0.023,0.055,0.045,0.085,0.064c0.032,0.019,0.066,0.035,0.105,0.046
	c0.039,0.011,0.083,0.017,0.133,0.017c0.025,0,0.056,0,0.091-0.001c0.034-0.002,0.072-0.005,0.109-0.011
	c0.038-0.007,0.075-0.016,0.109-0.03c0.034-0.014,0.066-0.033,0.091-0.058c0.025-0.025,0.05-0.05,0.075-0.075
	c0.025-0.025,0.05-0.05,0.075-0.075s0.05-0.05,0.075-0.075c0.025-0.025,0.05-0.05,0.075-0.075s0.044-0.056,0.058-0.095
	s0.023-0.086,0.029-0.143c0.007-0.056,0.01-0.121,0.011-0.198c0.002-0.076,0.002-0.164,0.002-0.264v-0.1v-0.1v-0.1V70.041
	L44.55,70.041L44.55,70.041L44.55,70.041L44.55,70.041z"/>
<path id="path12472" style="fill:#003366;" d="M45.95,67.841h0.225H46.4h0.225h0.225v0.15v0.15v0.15v0.15
	c0.05-0.05,0.094-0.1,0.134-0.148c0.041-0.049,0.078-0.096,0.116-0.14c0.038-0.044,0.075-0.084,0.116-0.12
	c0.041-0.036,0.084-0.067,0.134-0.092s0.1-0.05,0.15-0.074c0.05-0.023,0.1-0.046,0.15-0.064c0.05-0.019,0.1-0.034,0.15-0.045
	c0.05-0.011,0.1-0.017,0.15-0.017s0.1,0.006,0.15,0.017c0.05,0.011,0.1,0.026,0.15,0.045c0.05,0.018,0.1,0.04,0.15,0.064
	c0.05,0.023,0.1,0.049,0.15,0.074c0.05,0.025,0.094,0.056,0.133,0.092c0.039,0.036,0.073,0.076,0.104,0.12
	c0.032,0.044,0.06,0.091,0.086,0.14c0.027,0.049,0.052,0.098,0.077,0.148c0.05-0.05,0.094-0.1,0.134-0.148
	c0.041-0.049,0.078-0.096,0.116-0.14c0.038-0.044,0.075-0.084,0.116-0.12c0.041-0.036,0.084-0.067,0.134-0.092s0.1-0.05,0.15-0.074
	c0.05-0.023,0.1-0.046,0.15-0.064c0.05-0.019,0.1-0.034,0.15-0.045c0.05-0.011,0.1-0.017,0.15-0.017s0.1,0.006,0.15,0.017
	c0.05,0.011,0.1,0.026,0.15,0.045c0.05,0.019,0.1,0.041,0.15,0.064c0.05,0.023,0.1,0.049,0.15,0.074
	c0.05,0.025,0.094,0.056,0.133,0.092c0.039,0.036,0.073,0.076,0.104,0.12c0.032,0.044,0.06,0.091,0.086,0.14
	s0.052,0.098,0.077,0.148c0.025,0.05,0.044,0.106,0.058,0.17s0.023,0.136,0.029,0.218c0.007,0.081,0.01,0.171,0.011,0.273
	c0.002,0.102,0.002,0.214,0.002,0.339v0.675v0.675v0.675v0.675h-0.225H50.7h-0.225H50.25v-0.625v-0.625v-0.625v-0.625
	c0-0.1,0-0.194-0.002-0.281s-0.005-0.169-0.011-0.244c-0.006-0.075-0.015-0.144-0.029-0.206s-0.033-0.119-0.058-0.169
	c-0.025-0.025-0.05-0.05-0.076-0.074c-0.027-0.023-0.055-0.045-0.086-0.064c-0.031-0.019-0.066-0.034-0.105-0.045
	c-0.039-0.011-0.083-0.017-0.133-0.017c-0.05,0-0.1,0.006-0.148,0.019c-0.049,0.012-0.096,0.031-0.139,0.056
	c-0.043,0.025-0.084,0.056-0.12,0.094c-0.036,0.038-0.067,0.081-0.092,0.131c-0.025,0.05-0.05,0.112-0.073,0.188
	c-0.023,0.075-0.046,0.162-0.065,0.262c-0.018,0.1-0.034,0.213-0.045,0.338c-0.011,0.125-0.017,0.262-0.017,0.412v0.525v0.525v0.525
	v0.525h-0.225H48.6h-0.225H48.15v-0.6v-0.6v-0.6v-0.6c0-0.125,0-0.237-0.002-0.338c-0.002-0.1-0.005-0.188-0.011-0.262
	c-0.006-0.075-0.015-0.137-0.029-0.188c-0.014-0.05-0.033-0.088-0.058-0.112c-0.025-0.025-0.05-0.05-0.076-0.073
	c-0.026-0.023-0.054-0.045-0.085-0.064c-0.031-0.019-0.065-0.034-0.105-0.045c-0.039-0.011-0.083-0.018-0.133-0.018
	c-0.025,0-0.056,0-0.091,0.002c-0.034,0.002-0.072,0.005-0.109,0.011c-0.037,0.006-0.075,0.015-0.109,0.029
	s-0.066,0.033-0.091,0.058c-0.025,0.025-0.05,0.05-0.075,0.076c-0.025,0.026-0.05,0.054-0.075,0.085
	c-0.025,0.031-0.05,0.065-0.075,0.105c-0.025,0.039-0.05,0.083-0.075,0.133c-0.025,0.05-0.044,0.106-0.058,0.169
	s-0.023,0.131-0.029,0.206c-0.006,0.075-0.009,0.156-0.011,0.244c-0.002,0.088-0.002,0.181-0.002,0.281v0.525v0.525v0.525v0.525
	h-0.225H46.4h-0.225H45.95v-1.075v-1.075v-1.075V67.841L45.95,67.841L45.95,67.841L45.95,67.841L45.95,67.841z"/>
<path id="path12474" style="fill:#003366;" d="M51.75,67.241v-0.275v-0.275v-0.275v-0.275h0.225H52.2h0.225h0.225v0.275v0.275v0.275
	v0.275h-0.225H52.2h-0.225H51.75z M51.75,72.141v-1.075v-1.075v-1.075v-1.075h0.225H52.2h0.225h0.225v1.075v1.075v1.075v1.075
	h-0.225H52.2h-0.225H51.75z"/>
<path id="path12476" style="fill:#003366;" d="M56.45,72.141h-0.225H56h-0.225H55.55v-0.55v-0.55v-0.55v-0.55
	c0-0.1,0-0.194-0.002-0.281s-0.005-0.169-0.011-0.244c-0.006-0.075-0.015-0.144-0.029-0.206s-0.033-0.119-0.058-0.169
	c0-0.025-0.006-0.056-0.017-0.089s-0.026-0.067-0.045-0.099c-0.019-0.031-0.041-0.059-0.064-0.079
	c-0.023-0.02-0.049-0.033-0.074-0.033c-0.025-0.025-0.05-0.044-0.075-0.058c-0.025-0.014-0.05-0.024-0.075-0.03
	s-0.05-0.009-0.075-0.011c-0.025-0.001-0.05-0.001-0.075-0.001c-0.05,0-0.094,0.006-0.133,0.017
	c-0.039,0.011-0.073,0.026-0.104,0.045c-0.031,0.019-0.06,0.041-0.086,0.064c-0.027,0.023-0.052,0.049-0.077,0.074
	c-0.025,0.025-0.05,0.05-0.075,0.076c-0.025,0.026-0.05,0.054-0.075,0.085c-0.025,0.031-0.05,0.065-0.075,0.105
	c-0.025,0.039-0.05,0.083-0.075,0.133c-0.025,0.05-0.044,0.106-0.058,0.17s-0.023,0.136-0.029,0.218
	c-0.006,0.082-0.009,0.172-0.011,0.273s-0.002,0.214-0.002,0.339v0.475v0.475v0.475v0.475h-0.225H53.7h-0.225H53.25v-1.075v-1.075
	v-1.075v-1.075h0.225H53.7h0.225h0.225v0.15v0.15v0.15v0.15c0.05-0.05,0.094-0.1,0.134-0.148c0.041-0.049,0.078-0.096,0.116-0.14
	c0.038-0.044,0.075-0.084,0.116-0.12c0.041-0.036,0.084-0.067,0.134-0.092c0.05-0.025,0.1-0.05,0.15-0.074s0.1-0.046,0.15-0.064
	c0.05-0.019,0.1-0.034,0.15-0.045c0.05-0.011,0.1-0.017,0.15-0.017c0.075,0,0.144,0.006,0.208,0.017
	c0.064,0.011,0.124,0.026,0.18,0.045c0.056,0.019,0.109,0.041,0.161,0.064c0.051,0.023,0.101,0.049,0.151,0.074
	c0.05,0.025,0.094,0.056,0.133,0.092c0.039,0.036,0.073,0.076,0.104,0.12c0.032,0.044,0.06,0.091,0.086,0.14
	c0.027,0.049,0.052,0.098,0.077,0.148c0.025,0.05,0.044,0.106,0.058,0.17s0.023,0.136,0.029,0.218
	c0.007,0.081,0.01,0.171,0.011,0.273s0.002,0.214,0.002,0.339v0.675v0.675v0.675V72.141z"/>
<path id="path12478" style="fill:#003366;" d="M57.75,69.141l-0.2-0.05l-0.2-0.05l-0.2-0.05l-0.2-0.05
	c0.025-0.1,0.056-0.194,0.092-0.281c0.036-0.088,0.076-0.169,0.12-0.244c0.044-0.075,0.091-0.144,0.14-0.206
	s0.098-0.119,0.148-0.169c0.05-0.05,0.113-0.094,0.184-0.131c0.072-0.037,0.153-0.069,0.241-0.094
	c0.088-0.025,0.181-0.044,0.278-0.056c0.097-0.013,0.197-0.019,0.297-0.019c0.1,0,0.194,0.006,0.281,0.017
	c0.088,0.011,0.169,0.026,0.244,0.045c0.075,0.019,0.144,0.041,0.206,0.064s0.119,0.049,0.169,0.074
	c0.05,0.025,0.1,0.056,0.147,0.092c0.047,0.036,0.091,0.076,0.128,0.12c0.038,0.044,0.069,0.091,0.091,0.14
	c0.022,0.049,0.034,0.098,0.034,0.148c0.025,0.05,0.044,0.106,0.058,0.17c0.014,0.064,0.024,0.136,0.03,0.218
	c0.006,0.081,0.009,0.171,0.011,0.273s0.001,0.214,0.001,0.339v0.325v0.325v0.325v0.325c0,0.1,0,0.188,0,0.266s0,0.147,0,0.209
	s0,0.119,0,0.172s0,0.103,0,0.153c0,0.05,0.006,0.1,0.017,0.15c0.011,0.05,0.026,0.1,0.045,0.15c0.019,0.05,0.041,0.1,0.064,0.15
	c0.024,0.05,0.049,0.1,0.073,0.15h-0.225h-0.225h-0.224H59.15l-0.025-0.125L59.1,71.891l-0.025-0.125l-0.025-0.125
	c-0.05,0.05-0.094,0.094-0.134,0.133c-0.041,0.039-0.078,0.074-0.116,0.105c-0.038,0.031-0.075,0.059-0.116,0.086
	c-0.041,0.026-0.084,0.051-0.134,0.076s-0.1,0.044-0.15,0.058s-0.1,0.024-0.15,0.03c-0.05,0.006-0.1,0.009-0.15,0.011
	c-0.05,0.001-0.1,0.001-0.15,0.001c-0.075,0-0.15-0.006-0.223-0.019c-0.074-0.013-0.146-0.031-0.215-0.056
	c-0.069-0.025-0.134-0.056-0.195-0.094s-0.117-0.081-0.167-0.131c-0.05-0.05-0.094-0.106-0.131-0.169
	c-0.037-0.062-0.069-0.131-0.094-0.206c-0.025-0.075-0.044-0.156-0.056-0.244c-0.013-0.088-0.019-0.181-0.019-0.281
	c0-0.05,0-0.106,0.002-0.164s0.005-0.117,0.011-0.174c0.006-0.056,0.015-0.109,0.029-0.154c0.014-0.045,0.033-0.083,0.058-0.108
	c0.025-0.05,0.05-0.094,0.076-0.133s0.055-0.074,0.085-0.105c0.032-0.031,0.066-0.059,0.105-0.085
	c0.039-0.027,0.083-0.051,0.133-0.076s0.1-0.05,0.153-0.075c0.053-0.025,0.109-0.05,0.172-0.075s0.131-0.05,0.209-0.075
	c0.078-0.025,0.166-0.05,0.266-0.075s0.194-0.05,0.281-0.075s0.169-0.05,0.244-0.075s0.144-0.05,0.206-0.075s0.119-0.05,0.169-0.075
	c0-0.05,0-0.1-0.001-0.148s-0.005-0.095-0.011-0.139c-0.007-0.044-0.016-0.084-0.03-0.12c-0.014-0.036-0.033-0.067-0.058-0.092
	c0-0.025-0.006-0.044-0.017-0.059s-0.026-0.028-0.045-0.041c-0.019-0.013-0.041-0.025-0.065-0.041
	c-0.023-0.016-0.049-0.034-0.074-0.059c-0.025,0-0.05,0-0.077,0c-0.027,0-0.055,0-0.086,0c-0.031,0-0.065,0-0.104,0
	c-0.039,0-0.083,0-0.134,0c-0.05,0-0.094,0-0.133,0.002c-0.039,0.002-0.074,0.005-0.105,0.011c-0.03,0.006-0.058,0.015-0.085,0.029
	s-0.051,0.033-0.076,0.058c-0.025,0.025-0.05,0.05-0.073,0.077c-0.023,0.027-0.045,0.055-0.064,0.086
	c-0.019,0.031-0.034,0.066-0.045,0.105C57.757,69.048,57.75,69.091,57.75,69.141L57.75,69.141L57.75,69.141L57.75,69.141
	L57.75,69.141z M58.95,70.041c-0.025,0-0.056,0.006-0.094,0.017c-0.037,0.011-0.081,0.026-0.131,0.045
	c-0.05,0.019-0.106,0.04-0.169,0.064c-0.063,0.024-0.131,0.049-0.206,0.074c-0.075,0.025-0.144,0.05-0.206,0.075
	c-0.062,0.025-0.119,0.05-0.169,0.075s-0.094,0.05-0.131,0.075c-0.038,0.025-0.069,0.05-0.094,0.075
	c-0.025,0.025-0.044,0.05-0.058,0.076c-0.014,0.027-0.024,0.055-0.03,0.086c-0.006,0.032-0.009,0.066-0.011,0.105
	c-0.001,0.039-0.001,0.083-0.001,0.133s0,0.094,0.001,0.133c0.002,0.039,0.005,0.074,0.011,0.105
	c0.007,0.031,0.016,0.059,0.03,0.086c0.014,0.026,0.033,0.051,0.058,0.076c0.025,0.025,0.05,0.05,0.077,0.073
	c0.026,0.023,0.054,0.045,0.085,0.064s0.066,0.034,0.105,0.045s0.083,0.018,0.133,0.018c0.025,0,0.056,0,0.091-0.001
	c0.034-0.002,0.072-0.005,0.109-0.011c0.037-0.007,0.075-0.016,0.109-0.03c0.034-0.014,0.066-0.033,0.091-0.058
	c0.025-0.025,0.05-0.05,0.075-0.075c0.025-0.025,0.05-0.05,0.075-0.075s0.05-0.05,0.075-0.075c0.025-0.025,0.05-0.05,0.075-0.075
	s0.044-0.056,0.058-0.095c0.014-0.039,0.024-0.086,0.03-0.143c0.006-0.056,0.009-0.121,0.011-0.198
	c0.001-0.076,0.001-0.164,0.001-0.264v-0.1v-0.1v-0.1V70.041L58.95,70.041L58.95,70.041L58.95,70.041L58.95,70.041z"/>
<path id="path12480" style="fill:#003366;" d="M63.65,72.141H63.4h-0.25H62.9h-0.25v-0.55v-0.55v-0.55v-0.55
	c0-0.1,0-0.194-0.001-0.281s-0.005-0.169-0.011-0.244c-0.007-0.075-0.016-0.144-0.03-0.206s-0.033-0.119-0.058-0.169
	c0-0.025-0.006-0.056-0.017-0.089s-0.026-0.067-0.045-0.099c-0.018-0.032-0.04-0.06-0.064-0.08s-0.049-0.032-0.074-0.032
	c0-0.025-0.006-0.044-0.017-0.058c-0.011-0.014-0.027-0.024-0.046-0.03c-0.018-0.006-0.04-0.009-0.064-0.01
	c-0.023-0.002-0.048-0.002-0.073-0.002c-0.05,0-0.094,0.006-0.133,0.017c-0.039,0.011-0.074,0.026-0.105,0.045
	c-0.031,0.019-0.059,0.041-0.085,0.064c-0.027,0.023-0.052,0.049-0.077,0.074c-0.025,0.025-0.05,0.05-0.075,0.076
	c-0.025,0.026-0.05,0.054-0.075,0.085s-0.05,0.065-0.075,0.105c-0.025,0.039-0.05,0.083-0.075,0.133
	c-0.025,0.05-0.044,0.106-0.058,0.17c-0.014,0.064-0.024,0.136-0.03,0.218c-0.006,0.081-0.009,0.172-0.011,0.273
	c-0.001,0.102-0.001,0.214-0.001,0.339v0.475v0.475v0.475v0.475h-0.225H60.9h-0.225H60.45v-1.075v-1.075v-1.075v-1.075h0.225H60.9
	h0.225h0.225v0.15v0.15v0.15v0.15c0.05-0.05,0.094-0.1,0.134-0.148s0.078-0.096,0.116-0.14c0.037-0.044,0.075-0.084,0.116-0.12
	c0.041-0.036,0.084-0.067,0.134-0.092s0.1-0.05,0.15-0.074c0.05-0.023,0.1-0.046,0.15-0.064c0.05-0.019,0.1-0.034,0.15-0.045
	c0.05-0.011,0.1-0.017,0.15-0.017c0.075,0,0.144,0.006,0.208,0.017c0.064,0.011,0.124,0.026,0.18,0.045
	c0.056,0.019,0.109,0.041,0.16,0.064s0.101,0.049,0.151,0.074c0.05,0.025,0.094,0.056,0.133,0.092
	c0.039,0.036,0.074,0.076,0.105,0.12c0.031,0.044,0.059,0.091,0.086,0.14s0.051,0.098,0.076,0.148
	c0.025,0.05,0.044,0.106,0.058,0.17c0.014,0.064,0.024,0.136,0.03,0.218c0.006,0.081,0.009,0.171,0.011,0.273
	s0.001,0.214,0.001,0.339v0.675v0.675v0.675V72.141L63.65,72.141L63.65,72.141L63.65,72.141L63.65,72.141z"/>
<path id="path12482" style="fill:#003366;" d="M65.85,67.841v0.225v0.225v0.225v0.225H65.7h-0.15H65.4h-0.15v0.425v0.425v0.425
	v0.425c0,0.1,0,0.188,0,0.264c0,0.077,0,0.142,0,0.199c0,0.056,0,0.103,0,0.142c0,0.039,0,0.07,0,0.095s0.006,0.05,0.017,0.073
	c0.011,0.023,0.026,0.045,0.045,0.064c0.018,0.019,0.04,0.034,0.064,0.045s0.049,0.018,0.074,0.018s0.05,0,0.076-0.001
	c0.026-0.002,0.054-0.005,0.086-0.011c0.031-0.006,0.066-0.016,0.105-0.03c0.039-0.014,0.083-0.033,0.133-0.058l0.025,0.225
	l0.025,0.225l0.025,0.225l0.025,0.225c-0.05,0.025-0.106,0.05-0.166,0.073c-0.059,0.023-0.122,0.045-0.184,0.064
	s-0.125,0.034-0.184,0.045c-0.059,0.011-0.116,0.018-0.166,0.018c-0.05,0-0.1-0.006-0.15-0.017c-0.05-0.011-0.1-0.026-0.15-0.045
	c-0.05-0.019-0.1-0.041-0.15-0.064c-0.05-0.023-0.1-0.049-0.15-0.074c-0.025-0.025-0.05-0.056-0.075-0.092
	c-0.025-0.036-0.05-0.077-0.075-0.121c-0.025-0.044-0.05-0.09-0.075-0.139c-0.025-0.048-0.05-0.098-0.075-0.148
	c0-0.05-0.006-0.106-0.016-0.17c-0.009-0.064-0.022-0.136-0.034-0.217c-0.012-0.081-0.025-0.172-0.034-0.274
	c-0.009-0.102-0.016-0.214-0.016-0.339v-0.475v-0.475v-0.475v-0.475h-0.1h-0.1h-0.1h-0.1v-0.225v-0.225v-0.225v-0.225h0.1h0.1h0.1
	h0.1v-0.225v-0.225v-0.225v-0.225l0.225-0.175l0.225-0.175l0.225-0.175l0.225-0.175v0.375v0.375v0.375v0.375h0.175H65.5h0.175h0.175
	v0.025v0.025c0,0,0,0.013,0,0.025S65.85,67.841,65.85,67.841z"/>
<path id="path12484" style="fill:#003366;" d="M65.75,70.941l0.225-0.05l0.225-0.05l0.225-0.05l0.225-0.05
	c0.025,0.1,0.056,0.194,0.097,0.278c0.041,0.084,0.091,0.159,0.153,0.222s0.137,0.113,0.228,0.147
	c0.091,0.034,0.197,0.053,0.322,0.053c0.05,0,0.1,0,0.148-0.001c0.048-0.002,0.095-0.005,0.139-0.011
	c0.044-0.007,0.085-0.016,0.121-0.03c0.036-0.014,0.067-0.033,0.092-0.058s0.05-0.05,0.073-0.075
	c0.023-0.025,0.045-0.05,0.064-0.075s0.034-0.05,0.045-0.075c0.011-0.025,0.017-0.05,0.017-0.075s0-0.05-0.002-0.073
	c-0.002-0.023-0.005-0.045-0.01-0.064c-0.006-0.019-0.015-0.035-0.029-0.046s-0.033-0.017-0.058-0.017
	c0-0.05-0.006-0.088-0.019-0.116c-0.012-0.028-0.031-0.047-0.056-0.059c-0.025-0.012-0.056-0.019-0.094-0.022
	c-0.037-0.003-0.081-0.003-0.131-0.003c-0.2-0.05-0.381-0.1-0.544-0.15c-0.162-0.05-0.306-0.1-0.431-0.15
	c-0.125-0.05-0.231-0.1-0.319-0.15c-0.088-0.05-0.156-0.1-0.206-0.15c-0.075-0.05-0.138-0.106-0.189-0.169s-0.092-0.131-0.123-0.206
	c-0.031-0.075-0.053-0.156-0.067-0.244c-0.014-0.088-0.021-0.181-0.021-0.281s0.006-0.194,0.02-0.283
	c0.014-0.089,0.036-0.174,0.068-0.255c0.031-0.081,0.072-0.159,0.123-0.236s0.114-0.151,0.189-0.227
	c0.075-0.05,0.15-0.1,0.228-0.147s0.159-0.091,0.247-0.128s0.181-0.069,0.284-0.091c0.103-0.022,0.216-0.034,0.341-0.034
	s0.237,0.006,0.341,0.019c0.103,0.012,0.197,0.031,0.284,0.056c0.088,0.025,0.169,0.056,0.247,0.094
	c0.078,0.037,0.153,0.081,0.228,0.131c0.05,0.05,0.1,0.106,0.148,0.169c0.048,0.062,0.095,0.131,0.139,0.206
	c0.044,0.075,0.084,0.156,0.12,0.244c0.036,0.088,0.068,0.181,0.093,0.281l-0.225,0.05l-0.225,0.05l-0.225,0.05l-0.225,0.05
	c-0.025-0.075-0.056-0.144-0.095-0.205c-0.039-0.061-0.086-0.114-0.143-0.157c-0.056-0.044-0.122-0.078-0.198-0.102
	c-0.076-0.023-0.164-0.036-0.264-0.036c-0.05,0-0.1,0-0.148,0.002s-0.095,0.005-0.139,0.011c-0.044,0.006-0.085,0.015-0.121,0.029
	c-0.036,0.014-0.067,0.033-0.092,0.058s-0.044,0.044-0.058,0.061c-0.014,0.017-0.024,0.033-0.03,0.051
	c-0.006,0.019-0.009,0.041-0.011,0.071c-0.001,0.03-0.001,0.067-0.001,0.117c0,0.025,0,0.05,0.001,0.074
	c0.002,0.023,0.005,0.046,0.011,0.064c0.007,0.019,0.016,0.034,0.03,0.045c0.014,0.011,0.033,0.017,0.058,0.017
	c0.025,0.025,0.062,0.05,0.111,0.075c0.048,0.025,0.108,0.05,0.176,0.075c0.069,0.025,0.147,0.05,0.233,0.075
	c0.086,0.025,0.18,0.05,0.28,0.075c0.125,0.025,0.244,0.056,0.355,0.092s0.214,0.076,0.307,0.12c0.093,0.044,0.178,0.09,0.252,0.139
	c0.074,0.049,0.136,0.099,0.186,0.149c0.05,0.05,0.094,0.106,0.131,0.167s0.069,0.126,0.094,0.195
	c0.025,0.069,0.044,0.141,0.056,0.215c0.012,0.074,0.019,0.148,0.019,0.223c0,0.1-0.006,0.2-0.02,0.297s-0.036,0.191-0.068,0.278
	c-0.031,0.088-0.072,0.169-0.123,0.241c-0.051,0.072-0.114,0.134-0.189,0.184c-0.075,0.075-0.156,0.138-0.244,0.189
	s-0.181,0.092-0.281,0.123s-0.206,0.053-0.319,0.067c-0.112,0.014-0.231,0.021-0.356,0.021s-0.238-0.006-0.341-0.019
	c-0.103-0.013-0.197-0.031-0.284-0.056c-0.088-0.025-0.169-0.056-0.247-0.094s-0.153-0.081-0.228-0.131
	c-0.075-0.075-0.144-0.15-0.206-0.227s-0.119-0.154-0.169-0.235c-0.05-0.081-0.094-0.166-0.131-0.255S65.775,71.041,65.75,70.941z"
	/>
</svg>
