<?xml version="1.0" encoding="iso-8859-1"?>
<!-- Generator: Adobe Illustrator 25.4.1, SVG Export Plug-In . SVG Version: 6.00 Build 0)  -->
<svg version="1.1"
	 id="svg8" xmlns:cc="http://creativecommons.org/ns#" xmlns:dc="http://purl.org/dc/elements/1.1/" xmlns:inkscape="http://www.inkscape.org/namespaces/inkscape" xmlns:rdf="http://www.w3.org/1999/02/22-rdf-syntax-ns#" xmlns:sodipodi="http://sodipodi.sourceforge.net/DTD/sodipodi-0.dtd" xmlns:svg="http://www.w3.org/2000/svg"
	 xmlns="http://www.w3.org/2000/svg" xmlns:xlink="http://www.w3.org/1999/xlink" x="0px" y="0px" viewBox="0 0 100 100"
	 style="enable-background:new 0 0 100 100;" xml:space="preserve">
<sodipodi:namedview  bordercolor="#666666" borderopacity="1.0" id="base" inkscape:current-layer="layer3" inkscape:cx="-166.23234" inkscape:cy="84.283015" inkscape:document-units="px" inkscape:guide-bbox="true" inkscape:lockguides="true" inkscape:pageopacity="0.0" inkscape:pageshadow="2" inkscape:window-height="657" inkscape:window-maximized="1" inkscape:window-width="1280" inkscape:window-x="-8" inkscape:window-y="-8" inkscape:zoom="0.765625" pagecolor="#ffffff" showgrid="false" showguides="false" units="px">
	<sodipodi:guide  id="guide5700" inkscape:locked="true" orientation="0,1" position="-0.93017576,23.874511"></sodipodi:guide>
	<sodipodi:guide  id="guide5726" inkscape:locked="true" orientation="0,1" position="-26.098869,26.473047"></sodipodi:guide>
	<sodipodi:guide  id="guide5880" inkscape:locked="true" orientation="0,1" position="104.51042,-2.9104167"></sodipodi:guide>
	<sodipodi:guide  id="guide6001" inkscape:locked="true" orientation="0,1" position="-71.093695,29.279377"></sodipodi:guide>
	<sodipodi:guide  id="guide6005" inkscape:locked="true" orientation="0,1" position="-46.304445,58.278122"></sodipodi:guide>
	<sodipodi:guide  id="guide6736" inkscape:locked="true" orientation="0,1" position="-0.10335287,20.205485"></sodipodi:guide>
	<sodipodi:guide  id="guide6738" inkscape:locked="true" orientation="0,1" position="-0.43848907,22.874513"></sodipodi:guide>
	<inkscape:grid  id="grid2386" type="xygrid"></inkscape:grid>
</sodipodi:namedview>
<g id="g1180" transform="translate(0,-229.2666)" inkscape:groupmode="layer" inkscape:label="halo:always" style="display:none;">
	<g id="g1210" inkscape:groupmode="layer" inkscape:label="-gray-halo:iter3" style="display:inline;">
		<g id="circle1208">
			<path style="fill:#919395;" d="M50,329.3c-27.6,0-50-22.4-50-50s22.4-50,50-50s50,22.4,50,50S77.6,329.3,50,329.3z M50,237.9
				c-22.8,0-41.4,18.6-41.4,41.4s18.6,41.4,41.4,41.4s41.4-18.6,41.4-41.4S72.8,237.9,50,237.9z"/>
		</g>
	</g>
	<g id="g1206" inkscape:groupmode="layer" inkscape:label="-red-halo:iter3" style="display:inline;">
		<g id="circle1204">
			<path style="fill:#C52038;" d="M50,329.3c-27.6,0-50-22.4-50-50s22.4-50,50-50s50,22.4,50,50S77.6,329.3,50,329.3z M50,237.9
				c-22.8,0-41.4,18.6-41.4,41.4s18.6,41.4,41.4,41.4s41.4-18.6,41.4-41.4S72.8,237.9,50,237.9z"/>
		</g>
	</g>
	<g id="g1202" inkscape:groupmode="layer" inkscape:label="-green-halo:iter3" style="display:inline;">
		<g id="circle1200">
			<path style="fill:#5E9C42;" d="M50,329.3c-27.6,0-50-22.4-50-50s22.4-50,50-50s50,22.4,50,50S77.6,329.3,50,329.3z M50,237.9
				c-22.8,0-41.4,18.6-41.4,41.4s18.6,41.4,41.4,41.4s41.4-18.6,41.4-41.4S72.8,237.9,50,237.9z"/>
		</g>
	</g>
	<g id="layer18" inkscape:groupmode="layer" inkscape:label="-yellow-halo:iter3" style="display:inline;">
		<g id="circle1178-4">
			<path style="fill:#FBBA16;" d="M50,329.3c-27.6,0-50-22.4-50-50s22.4-50,50-50s50,22.4,50,50S77.6,329.3,50,329.3z M50,237.9
				c-22.8,0-41.4,18.6-41.4,41.4s18.6,41.4,41.4,41.4s41.4-18.6,41.4-41.4S72.8,237.9,50,237.9z"/>
		</g>
	</g>
</g>
<path id="path12482" inkscape:connector-curvature="0" inkscape:export-filename="C:\Users\Charlotte Abel\Documents\Symbology\Components\For Distribution\hazardous-materials_facilities-gray.png" inkscape:export-xdpi="300.00458" inkscape:export-ydpi="300.00458" style="fill:#003366;" d="
	M45.6,21.4c-1.075,0-2.1,0.219-3.033,0.614c-0.933,0.395-1.774,0.967-2.48,1.674c-0.706,0.706-1.278,1.547-1.673,2.479
	C38.019,27.1,37.8,28.125,37.8,29.2v1.325v1.325v1.325V34.5h0.325h0.325h0.325H39.1c0.05,0,0.087,0,0.116,0s0.047,0,0.059,0
	c0.013,0,0.019,0,0.022,0s0.003,0,0.003,0s0.006,0,0.017,0s0.026,0,0.045,0s0.04,0,0.064,0c0.023,0,0.049,0,0.074,0
	c0.1,0,0.206,0,0.316,0s0.222,0,0.334,0s0.225,0,0.334,0s0.216,0,0.316,0v-1.325V31.85v-1.325V29.2c0-0.65,0.131-1.269,0.369-1.831
	s0.581-1.069,1.006-1.494c0.425-0.425,0.931-0.769,1.494-1.006C44.231,24.631,44.85,24.5,45.5,24.5h0.65h0.65h0.65h0.65h0.55h0.55
	h0.55h0.55h1.075h1.075h1.075H54.6c0.65,0,1.269,0.131,1.831,0.369c0.562,0.238,1.069,0.581,1.494,1.006
	c0.425,0.425,0.769,0.931,1.006,1.494S59.3,28.55,59.3,29.2v3.125v3.125v3.125V41.7c0.125,0,0.25,0,0.375,0s0.25,0,0.375,0
	s0.25,0,0.375,0s0.25,0,0.375,0s0.256,0,0.391,0c0.134,0,0.272,0,0.409,0s0.275,0,0.409,0c0.134,0,0.266,0,0.391,0v-3.125V35.45
	v-3.125V29.2c0-1.075-0.219-2.1-0.614-3.033c-0.395-0.933-0.967-1.773-1.673-2.479c-0.707-0.706-1.547-1.278-2.48-1.674
	C56.7,21.619,55.675,21.4,54.6,21.4h-1.075H52.45h-1.075H50.3h-0.55H49.2h-0.55H48.1c0,0-0.156,0-0.391,0s-0.547,0-0.859,0
	s-0.625,0-0.859,0C45.756,21.4,45.6,21.4,45.6,21.4z"/>
<path id="path11105" inkscape:connector-curvature="0" inkscape:export-filename="C:\Users\Charlotte Abel\Documents\Symbology\Components\For Distribution\hazardous-materials_facilities-gray.png" inkscape:export-xdpi="300.00458" inkscape:export-ydpi="300.00458" style="fill:#003366;" d="
	M61,44.3c-0.35,0-0.694,0.006-1.034,0.019c-0.341,0.013-0.678,0.031-1.016,0.056c-0.337,0.025-0.675,0.056-1.016,0.094
	S57.25,44.55,56.9,44.6v0.675v0.675v0.675V47.3v5.35V58v5.35v5.35h0.575h0.575h0.575H59.2h0.475h0.475h0.475H61.1h1.7h1.7h1.7h1.7
	h0.475h0.475h0.475H69.8h0.9h0.9h0.9h0.9v-0.075V68.55v-0.075V68.4v-0.275V67.85v-0.275V67.3v-0.05V67.2v-0.05V67.1v-4.5v-4.5v-4.5
	v-4.5c0-0.35-0.056-0.688-0.162-1.006c-0.106-0.319-0.263-0.619-0.463-0.894c-0.2-0.275-0.444-0.525-0.725-0.744
	s-0.6-0.406-0.95-0.556c-0.825-0.25-1.656-0.475-2.492-0.672s-1.676-0.366-2.52-0.503c-0.844-0.138-1.691-0.244-2.54-0.316
	C62.7,44.338,61.85,44.3,61,44.3L61,44.3L61,44.3L61,44.3L61,44.3z M51.3,46c-0.025,0-0.056,0.006-0.091,0.016
	c-0.034,0.009-0.072,0.022-0.109,0.034c-0.037,0.013-0.075,0.025-0.109,0.034C50.956,46.094,50.925,46.1,50.9,46.1
	c-0.325,0.125-0.625,0.294-0.892,0.5s-0.502,0.45-0.696,0.725c-0.193,0.275-0.346,0.581-0.451,0.913S48.7,48.925,48.7,49.3v4.5v4.5
	v4.5v4.5v0.075v0.075v0.075V67.6l0,0l0,0l0,0l0,0v0.225v0.225v0.225V68.5v0.075v0.075v0.075V68.8h0.65H50h0.65h0.65v-5.35V58.1
	v-5.35V47.4v-0.35V46.7v-0.35V46z"/>
<path id="path11192" inkscape:connector-curvature="0" inkscape:export-filename="C:\Users\Charlotte Abel\Documents\Symbology\Components\For Distribution\hazardous-materials_facilities-gray.png" inkscape:export-xdpi="300.00458" inkscape:export-ydpi="300.00458" style="fill:#FFFFFF;" d="
	M60.8,49.8c-0.125,0-0.244,0.025-0.352,0.07c-0.108,0.045-0.205,0.111-0.286,0.193c-0.081,0.081-0.146,0.178-0.192,0.285
	c-0.045,0.108-0.07,0.227-0.07,0.352v2.575v2.575v2.575V61v1.925v1.925v1.925V68.7h0.475h0.475h0.475H61.8v-0.675V67.35v-0.675V66
	h1.7h1.7h1.7h1.7v0.7v0.7v0.7v0.7h0.475h0.475h0.475H70.5v-1.925V64.95v-1.925V61.1v-2.6v-2.6v-2.6v-2.6
	c0-0.125-0.025-0.244-0.07-0.352s-0.111-0.205-0.192-0.286c-0.082-0.081-0.179-0.146-0.286-0.192S69.725,49.8,69.6,49.8
	s-0.244,0.025-0.352,0.07c-0.108,0.045-0.205,0.111-0.286,0.193c-0.081,0.081-0.146,0.178-0.192,0.285S68.7,50.575,68.7,50.7v0.75
	v0.75v0.75v0.75H67h-1.7h-1.7h-1.7v-0.75V52.2v-0.75V50.7c-0.05-0.125-0.112-0.244-0.186-0.352s-0.158-0.205-0.251-0.286
	c-0.094-0.081-0.197-0.146-0.308-0.192C61.044,49.825,60.925,49.8,60.8,49.8z M61.7,55.6h1.7h1.7h1.7h1.7v0.8v0.8V58v0.8h-1.7h-1.7
	h-1.7h-1.7V58v-0.8c0,0,0-0.4,0-0.8C61.7,56,61.7,55.6,61.7,55.6z M61.7,60.8h1.7h1.7h1.7h1.7v0.075v0.075v0.075V61.1v0.725v0.725
	v0.725V64h-1.7h-1.7h-1.7h-1.7v-0.725V62.55v-0.725V61.1v-0.075V60.95c0,0,0-0.037,0-0.075C61.7,60.837,61.7,60.8,61.7,60.8z"/>
<path id="path11150" inkscape:connector-curvature="0" inkscape:export-filename="C:\Users\Charlotte Abel\Documents\Symbology\Components\For Distribution\hazardous-materials_facilities-gray.png" inkscape:export-xdpi="300.00458" inkscape:export-ydpi="300.00458" style="fill-rule:evenodd;clip-rule:evenodd;fill:#003366;" d="
	M39.1,37.3c-1.025,0-2.05,0.038-3.073,0.112c-1.024,0.075-2.046,0.188-3.065,0.338c-1.019,0.15-2.034,0.338-3.045,0.562
	C28.906,38.537,27.9,38.8,26.9,39.1c-0.3,0.125-0.594,0.294-0.866,0.499s-0.522,0.445-0.734,0.715
	c-0.212,0.269-0.387,0.565-0.509,0.883C24.669,41.513,24.6,41.851,24.6,42.2v0.025v0.025v0.025V42.3v1.25v1.25v1.25v1.25v6.1v6.1
	v6.1v6.1h-0.45H23.7h-0.45H22.8v0.95v0.95v0.95v0.95h9.925h9.925h9.925H62.5h1.425h1.425h1.425H68.2h1.9H72h1.9h1.9v-0.95V73.6
	v-0.95V71.7l0,0l0,0l0,0l0,0l0,0l0,0l0,0l0,0h-5.425H64.95h-5.425H54.1v-6.075V59.55v-6.075V47.4v-1.25V44.9v-1.25V42.4v-0.025
	V42.35v-0.025V42.3c0-0.35-0.069-0.688-0.191-1.005s-0.297-0.614-0.509-0.883c-0.212-0.268-0.462-0.509-0.734-0.714
	C52.394,39.494,52.1,39.325,51.8,39.2c-1-0.3-2.006-0.562-3.017-0.787c-1.011-0.225-2.026-0.412-3.045-0.562
	c-1.019-0.15-2.041-0.262-3.064-0.337S40.625,37.4,39.6,37.4c-0.025,0-0.044,0-0.059,0s-0.028,0-0.041,0s-0.025,0-0.041,0
	s-0.034,0-0.059,0c-0.025-0.025-0.05-0.044-0.075-0.058c-0.025-0.014-0.05-0.024-0.075-0.03s-0.05-0.009-0.075-0.011
	C39.15,37.3,39.125,37.3,39.1,37.3L39.1,37.3L39.1,37.3L39.1,37.3L39.1,37.3z"/>
<path id="path11111" inkscape:connector-curvature="0" inkscape:export-filename="C:\Users\Charlotte Abel\Documents\Symbology\Components\For Distribution\hazardous-materials_facilities-gray.png" inkscape:export-xdpi="300.00458" inkscape:export-ydpi="300.00458" style="fill-rule:evenodd;clip-rule:evenodd;fill:#FFFFFF;" d="
	M39.3,46l2.575,2.575l2.575,2.575l2.575,2.575L49.6,56.3l-2.575,2.575L44.45,61.45l-2.575,2.575L39.3,66.6l-2.575-2.575L34.15,61.45
	l-2.575-2.575L29,56.3l2.575-2.575l2.575-2.575l2.575-2.575L39.3,46z"/>
<path id="path11113" inkscape:connector-curvature="0" inkscape:export-filename="C:\Users\Charlotte Abel\Documents\Symbology\Components\For Distribution\hazardous-materials_facilities-gray.png" inkscape:export-xdpi="300.00458" inkscape:export-ydpi="300.00458" style="fill:#003366;" d="
	M39.1,60.6c-0.075-0.025-0.15-0.056-0.223-0.094c-0.074-0.037-0.146-0.081-0.215-0.131c-0.069-0.05-0.134-0.106-0.195-0.169
	S38.35,60.075,38.3,60c-0.025-0.05-0.044-0.1-0.058-0.153c-0.014-0.053-0.023-0.109-0.029-0.172
	c-0.007-0.062-0.01-0.131-0.011-0.209S38.2,59.3,38.2,59.2c0-0.05-0.006-0.212-0.017-0.463c-0.011-0.25-0.026-0.587-0.045-0.987
	c-0.019-0.4-0.041-0.862-0.065-1.362C38.05,55.888,38.025,55.35,38,54.8c-0.025-0.95-0.05-1.681-0.072-2.247
	c-0.022-0.566-0.041-0.966-0.053-1.253c-0.013-0.287-0.019-0.463-0.016-0.578c0.003-0.116,0.016-0.172,0.041-0.222
	c0.025-0.125,0.062-0.237,0.111-0.341c0.048-0.103,0.108-0.197,0.176-0.284c0.069-0.087,0.147-0.169,0.233-0.247
	s0.18-0.153,0.28-0.228c0.05-0.025,0.1-0.044,0.15-0.058c0.05-0.014,0.1-0.023,0.15-0.029c0.05-0.007,0.1-0.01,0.15-0.011
	C39.2,49.3,39.25,49.3,39.3,49.3c0.15,0,0.294,0.019,0.43,0.055c0.136,0.036,0.264,0.089,0.382,0.158
	c0.119,0.069,0.229,0.153,0.327,0.251s0.186,0.211,0.261,0.336c0.05,0.1,0.087,0.163,0.112,0.27s0.038,0.261,0.038,0.542
	c0,0.281-0.013,0.691-0.038,1.311S40.75,53.675,40.7,54.8c-0.025,0.575-0.05,1.131-0.073,1.644
	c-0.024,0.513-0.046,0.981-0.065,1.381c-0.018,0.4-0.034,0.731-0.045,0.969S40.5,59.175,40.5,59.2c0,0.125-0.006,0.231-0.019,0.325
	s-0.031,0.175-0.056,0.25s-0.056,0.144-0.094,0.213c-0.037,0.069-0.081,0.137-0.131,0.212c-0.075,0.1-0.156,0.181-0.242,0.245
	c-0.086,0.064-0.177,0.111-0.271,0.142c-0.094,0.031-0.191,0.047-0.289,0.049C39.3,60.637,39.2,60.625,39.1,60.6L39.1,60.6
	L39.1,60.6L39.1,60.6L39.1,60.6z M39.1,64c-0.15-0.025-0.287-0.087-0.408-0.177s-0.224-0.205-0.305-0.336
	c-0.081-0.131-0.14-0.278-0.173-0.429S38.175,62.75,38.2,62.6c0.025-0.1,0.056-0.194,0.095-0.281s0.086-0.169,0.142-0.244
	c0.056-0.075,0.122-0.144,0.199-0.206C38.713,61.806,38.8,61.75,38.9,61.7c0.225-0.1,0.456-0.125,0.674-0.091
	c0.217,0.034,0.421,0.128,0.59,0.266c0.168,0.138,0.303,0.319,0.382,0.528S40.65,62.85,40.6,63.1
	c-0.075,0.15-0.169,0.287-0.277,0.408s-0.229,0.224-0.361,0.305c-0.132,0.081-0.272,0.14-0.418,0.173
	C39.4,64.019,39.25,64.025,39.1,64z"/>
</svg>
