<?xml version="1.0" encoding="iso-8859-1"?>
<!-- Generator: Adobe Illustrator 25.4.1, SVG Export Plug-In . SVG Version: 6.00 Build 0)  -->
<svg version="1.1"
	 id="svg8" inkscape:export-filename="C:\Users\Charlotte Abel\Documents\Symbology\Components\For Distribution\communications_alerts-warnings-messages.png" inkscape:export-xdpi="300.00464" inkscape:export-ydpi="300.00464" inkscape:version="0.91 r13725" sodipodi:docname="hazardous-materials_facilities-with-label-clr_256x256.svg" xmlns:cc="http://creativecommons.org/ns#" xmlns:dc="http://purl.org/dc/elements/1.1/" xmlns:inkscape="http://www.inkscape.org/namespaces/inkscape" xmlns:rdf="http://www.w3.org/1999/02/22-rdf-syntax-ns#" xmlns:sodipodi="http://sodipodi.sourceforge.net/DTD/sodipodi-0.dtd" xmlns:svg="http://www.w3.org/2000/svg"
	 xmlns="http://www.w3.org/2000/svg" xmlns:xlink="http://www.w3.org/1999/xlink" x="0px" y="0px" viewBox="0 0 100 100"
	 style="enable-background:new 0 0 100 100;" xml:space="preserve">
<sodipodi:namedview  bordercolor="#666666" borderopacity="1.0" id="base" inkscape:current-layer="g12599" inkscape:cx="-166.23234" inkscape:cy="84.283015" inkscape:document-units="px" inkscape:guide-bbox="true" inkscape:lockguides="true" inkscape:pageopacity="0.0" inkscape:pageshadow="2" inkscape:window-height="657" inkscape:window-maximized="1" inkscape:window-width="1280" inkscape:window-x="-8" inkscape:window-y="-8" inkscape:zoom="0.765625" pagecolor="#ffffff" showgrid="false" showguides="false" units="px">
	<sodipodi:guide  id="guide5700" inkscape:locked="true" orientation="0,1" position="-0.93017576,23.874511"></sodipodi:guide>
	<sodipodi:guide  id="guide5726" inkscape:locked="true" orientation="0,1" position="-26.098869,26.473047"></sodipodi:guide>
	<sodipodi:guide  id="guide5880" inkscape:locked="true" orientation="0,1" position="104.51042,-2.9104167"></sodipodi:guide>
	<sodipodi:guide  id="guide6001" inkscape:locked="true" orientation="0,1" position="-71.093695,29.279377"></sodipodi:guide>
	<sodipodi:guide  id="guide6005" inkscape:locked="true" orientation="0,1" position="-46.304445,58.278122"></sodipodi:guide>
	<sodipodi:guide  id="guide6736" inkscape:locked="true" orientation="0,1" position="-0.10335287,20.205485"></sodipodi:guide>
	<sodipodi:guide  id="guide6738" inkscape:locked="true" orientation="0,1" position="-0.43848907,22.874513"></sodipodi:guide>
	<inkscape:grid  id="grid2386" type="xygrid"></inkscape:grid>
</sodipodi:namedview>
<g id="g1180" transform="translate(0,-229.2666)" inkscape:groupmode="layer" inkscape:label="halo:always" style="display:none;">
	<g id="g1210" inkscape:groupmode="layer" inkscape:label="-gray-halo:iter3" style="display:inline;">
		<g id="circle1208">
			<path style="fill:#919395;" d="M50,329.3c-27.6,0-50-22.4-50-50s22.4-50,50-50s50,22.4,50,50S77.6,329.3,50,329.3z M50,237.9
				c-22.8,0-41.4,18.6-41.4,41.4s18.6,41.4,41.4,41.4s41.4-18.6,41.4-41.4S72.8,237.9,50,237.9z"/>
		</g>
	</g>
	<g id="g1206" inkscape:groupmode="layer" inkscape:label="-red-halo:iter3" style="display:inline;">
		<g id="circle1204">
			<path style="fill:#C52038;" d="M50,329.3c-27.6,0-50-22.4-50-50s22.4-50,50-50s50,22.4,50,50S77.6,329.3,50,329.3z M50,237.9
				c-22.8,0-41.4,18.6-41.4,41.4s18.6,41.4,41.4,41.4s41.4-18.6,41.4-41.4S72.8,237.9,50,237.9z"/>
		</g>
	</g>
	<g id="g1202" inkscape:groupmode="layer" inkscape:label="-green-halo:iter3" style="display:inline;">
		<g id="circle1200">
			<path style="fill:#5E9C42;" d="M50,329.3c-27.6,0-50-22.4-50-50s22.4-50,50-50s50,22.4,50,50S77.6,329.3,50,329.3z M50,237.9
				c-22.8,0-41.4,18.6-41.4,41.4s18.6,41.4,41.4,41.4s41.4-18.6,41.4-41.4S72.8,237.9,50,237.9z"/>
		</g>
	</g>
	<g id="layer18" inkscape:groupmode="layer" inkscape:label="-yellow-halo:iter3" style="display:inline;">
		<g id="circle1178-4">
			<path style="fill:#FBBA16;" d="M50,329.3c-27.6,0-50-22.4-50-50s22.4-50,50-50s50,22.4,50,50S77.6,329.3,50,329.3z M50,237.9
				c-22.8,0-41.4,18.6-41.4,41.4s18.6,41.4,41.4,41.4s41.4-18.6,41.4-41.4S72.8,237.9,50,237.9z"/>
		</g>
	</g>
</g>
<path id="path12561" inkscape:connector-curvature="0" inkscape:export-filename="C:\Users\Charlotte Abel\Documents\Symbology\Components\For Distribution\hazardous-materials_facilities-gray.png" inkscape:export-xdpi="300.00458" inkscape:export-ydpi="300.00458" style="fill:#003366;" d="
	M48.004,12.237c-0.972,0-1.896,0.195-2.735,0.549c-0.84,0.354-1.595,0.866-2.228,1.5c-0.634,0.634-1.146,1.389-1.5,2.228
	c-0.354,0.84-0.549,1.764-0.549,2.735v1.204v1.204v1.204v1.204h0.296h0.296h0.296h0.296c0.042,0,0.074,0,0.098,0s0.04,0,0.05,0
	c0.011,0,0.016,0,0.018,0c0.003,0,0.003,0,0.003,0s0.005,0,0.014,0c0.009,0,0.022,0,0.038,0c0.016,0,0.034,0,0.054,0
	s0.041,0,0.063,0c0.106,0,0.206,0,0.304,0c0.098,0,0.193,0,0.288,0c0.095,0,0.19,0,0.288,0s0.198,0,0.304,0v-1.204v-1.204v-1.204
	v-1.204c0-0.591,0.116-1.156,0.329-1.671c0.212-0.515,0.521-0.98,0.907-1.37c0.386-0.391,0.848-0.708,1.367-0.927
	c0.519-0.219,1.094-0.341,1.707-0.341h0.591h0.591h0.591h0.591h0.507h0.507h0.507h0.507h0.972h0.972h0.972h0.972
	c0.591,0,1.156,0.116,1.671,0.329s0.98,0.521,1.37,0.907c0.391,0.386,0.708,0.848,0.927,1.367c0.219,0.519,0.341,1.094,0.341,1.707
	v2.83v2.83v2.83v2.83c0.106,0,0.217,0,0.33,0c0.114,0,0.23,0,0.346,0s0.232,0,0.346,0s0.224,0,0.33,0c0.127,0,0.248,0,0.367,0
	c0.119,0,0.235,0,0.351,0c0.116,0,0.232,0,0.351,0c0.119,0,0.24,0,0.367,0v-2.83v-2.83v-2.83v-2.83c0-0.972-0.195-1.896-0.549-2.735
	c-0.354-0.84-0.866-1.595-1.5-2.228c-0.634-0.634-1.389-1.146-2.228-1.5s-1.764-0.549-2.735-0.549h-0.972h-0.972h-0.972h-0.972
	h-0.507h-0.507h-0.507h-0.507c0,0-0.153,0-0.383,0c-0.23,0-0.536,0-0.842,0c-0.306,0-0.613,0-0.842,0S48.004,12.237,48.004,12.237z"
	/>
<path id="path12563" inkscape:connector-curvature="0" inkscape:export-filename="C:\Users\Charlotte Abel\Documents\Symbology\Components\For Distribution\hazardous-materials_facilities-gray.png" inkscape:export-xdpi="300.00458" inkscape:export-ydpi="300.00458" style="fill:#003366;" d="
	M61.86,32.937c-0.317,0-0.628,0.005-0.937,0.016c-0.309,0.011-0.615,0.026-0.921,0.048c-0.306,0.021-0.613,0.048-0.921,0.079
	c-0.309,0.032-0.62,0.069-0.937,0.111v0.613v0.613v0.613v0.613v4.837v4.837v4.837v4.837h0.528h0.528h0.528h0.528h0.422H61.1h0.422
	h0.422h1.542h1.542h1.542h1.542h0.422h0.422h0.422h0.422h0.824h0.824h0.824h0.824v-0.063v-0.063v-0.063v-0.063v-0.232V54.27v-0.232
	v-0.232v-0.042v-0.042v-0.042v-0.042v-4.055v-4.055V41.47v-4.055c0-0.296-0.053-0.591-0.152-0.877
	c-0.099-0.285-0.244-0.56-0.429-0.813c-0.185-0.253-0.409-0.486-0.667-0.686c-0.257-0.201-0.547-0.37-0.864-0.496
	c-0.739-0.275-1.484-0.512-2.234-0.714c-0.75-0.202-1.505-0.368-2.265-0.501c-0.76-0.132-1.526-0.23-2.297-0.294
	C63.418,32.968,62.642,32.937,61.86,32.937z M53.074,34.457c-0.042,0-0.079,0.005-0.114,0.014c-0.034,0.009-0.066,0.022-0.098,0.038
	c-0.032,0.016-0.063,0.035-0.098,0.054c-0.034,0.02-0.071,0.041-0.114,0.062c-0.296,0.106-0.565,0.253-0.803,0.437
	c-0.238,0.183-0.444,0.402-0.613,0.65c-0.169,0.248-0.301,0.526-0.391,0.825c-0.09,0.3-0.137,0.622-0.137,0.96v4.055v4.055v4.055
	v4.055v0.063v0.063v0.063v0.063l0,0l0,0l0,0l0,0v0.211v0.211v0.211v0.211v0.063v0.063v0.063v0.063h0.591h0.591h0.591h0.591v-4.837
	v-4.837v-4.837v-4.837v-0.317v-0.317c0,0,0-0.158,0-0.317C53.074,34.616,53.074,34.457,53.074,34.457z"/>
<path id="path12565" inkscape:connector-curvature="0" inkscape:export-filename="C:\Users\Charlotte Abel\Documents\Symbology\Components\For Distribution\hazardous-materials_facilities-gray.png" inkscape:export-xdpi="300.00458" inkscape:export-ydpi="300.00458" style="fill:#FFFFFF;" d="
	M61.691,37.921c-0.127,0-0.243,0.021-0.346,0.061s-0.193,0.098-0.267,0.172c-0.074,0.074-0.132,0.164-0.172,0.267
	s-0.061,0.219-0.061,0.346v2.345v2.345V45.8v2.345v1.753v1.753v1.753v1.753h0.422h0.422h0.422h0.422v-0.634V53.89v-0.634v-0.634
	h1.542h1.542h1.542h1.542v0.634v0.634v0.634v0.634h0.422h0.422h0.422h0.422v-1.753v-1.753v-1.753v-1.753V45.8v-2.345v-2.345v-2.345
	c0-0.127-0.021-0.243-0.061-0.346s-0.098-0.193-0.172-0.267c-0.074-0.074-0.164-0.132-0.267-0.172
	c-0.103-0.04-0.219-0.061-0.346-0.061s-0.243,0.021-0.346,0.061c-0.103,0.04-0.193,0.098-0.267,0.172
	c-0.074,0.074-0.132,0.164-0.172,0.267s-0.061,0.219-0.061,0.346v0.676v0.676v0.676v0.676h-1.542H65.62h-1.542h-1.542v-0.676v-0.676
	v-0.676v-0.676c0-0.127-0.021-0.243-0.061-0.346c-0.04-0.103-0.098-0.193-0.172-0.267c-0.074-0.074-0.164-0.132-0.267-0.172
	S61.818,37.921,61.691,37.921L61.691,37.921L61.691,37.921L61.691,37.921L61.691,37.921z M62.536,43.16h1.542h1.542h1.542h1.542
	v0.718v0.718v0.718v0.718h-1.542H65.62h-1.542h-1.542v-0.718v-0.718v-0.718V43.16z M62.536,47.806h1.542h1.542h1.542h1.542v0.063
	v0.063v0.063v0.063v0.655v0.655v0.655v0.655h-1.542H65.62h-1.542h-1.542v-0.655v-0.655v-0.655V48.06v-0.063v-0.063V47.87V47.806z"/>
<path id="path12567" inkscape:connector-curvature="0" inkscape:export-filename="C:\Users\Charlotte Abel\Documents\Symbology\Components\For Distribution\hazardous-materials_facilities-gray.png" inkscape:export-xdpi="300.00458" inkscape:export-ydpi="300.00458" style="fill-rule:evenodd;clip-rule:evenodd;fill:#003366;" d="
	M42.09,26.6c-0.929,0-1.853,0.032-2.775,0.096c-0.921,0.065-1.84,0.162-2.759,0.294c-0.919,0.132-1.838,0.298-2.759,0.5
	c-0.921,0.202-1.846,0.44-2.775,0.715c-0.275,0.106-0.544,0.259-0.793,0.447s-0.479,0.413-0.674,0.661
	c-0.196,0.248-0.357,0.52-0.469,0.804c-0.112,0.284-0.176,0.58-0.176,0.875v0.021v0.021v0.021v0.021v1.141v1.141V34.5v1.141v5.513
	v5.513v5.513v5.513h-0.422h-0.422h-0.422H27.22v0.845v0.845v0.845v0.845h8.977h8.977h8.977h8.977h1.267h1.267h1.267h1.267h1.711
	h1.711h1.711h1.711v-0.845v-0.845v-0.845v-0.845l0,0l0,0l0,0l0,0l0,0l0,0l0,0l0,0h-4.858h-4.858h-4.858h-4.858V52.2v-5.492v-5.492
	v-5.492v-1.141v-1.141v-1.141v-1.141v-0.021V31.12v-0.021v-0.021c0-0.317-0.063-0.623-0.176-0.911
	c-0.112-0.288-0.273-0.557-0.469-0.8c-0.196-0.243-0.425-0.459-0.675-0.642c-0.249-0.182-0.518-0.33-0.793-0.436
	c-0.908-0.275-1.822-0.512-2.739-0.714c-0.918-0.202-1.839-0.368-2.763-0.501c-0.924-0.132-1.85-0.229-2.778-0.294
	c-0.928-0.065-1.857-0.096-2.787-0.096c-0.021,0-0.042,0-0.062,0s-0.038,0-0.054,0c-0.016,0-0.029,0-0.038,0
	c-0.009,0-0.014,0-0.014,0c0-0.021-0.005-0.037-0.014-0.049c-0.009-0.012-0.022-0.02-0.038-0.025
	c-0.016-0.005-0.035-0.008-0.054-0.009C42.132,26.6,42.111,26.6,42.09,26.6L42.09,26.6L42.09,26.6L42.09,26.6L42.09,26.6z"/>
<path id="path12569" inkscape:connector-curvature="0" inkscape:export-filename="C:\Users\Charlotte Abel\Documents\Symbology\Components\For Distribution\hazardous-materials_facilities-gray.png" inkscape:export-xdpi="300.00458" inkscape:export-ydpi="300.00458" style="fill-rule:evenodd;clip-rule:evenodd;fill:#FFFFFF;" d="
	M42.344,34.457l2.323,2.323l2.323,2.323l2.323,2.323l2.323,2.323l-2.323,2.323l-2.323,2.323l-2.323,2.323l-2.323,2.323L40.02,50.7
	l-2.323-2.345l-2.323-2.345l-2.323-2.345l2.323-2.302l2.323-2.302l2.323-2.302L42.344,34.457z"/>
<path id="path12571" inkscape:connector-curvature="0" inkscape:export-filename="C:\Users\Charlotte Abel\Documents\Symbology\Components\For Distribution\hazardous-materials_facilities-gray.png" inkscape:export-xdpi="300.00458" inkscape:export-ydpi="300.00458" style="fill:#003366;" d="
	M42.09,47.637c-0.063-0.021-0.132-0.048-0.201-0.079c-0.069-0.032-0.137-0.069-0.201-0.111c-0.063-0.042-0.121-0.09-0.169-0.143
	c-0.048-0.053-0.084-0.111-0.106-0.174c-0.021-0.042-0.042-0.084-0.062-0.131c-0.02-0.046-0.038-0.097-0.054-0.155
	c-0.016-0.058-0.029-0.124-0.038-0.202c-0.009-0.078-0.014-0.168-0.014-0.273c0-0.042-0.005-0.185-0.014-0.408
	s-0.022-0.527-0.038-0.891c-0.016-0.365-0.034-0.79-0.054-1.255s-0.041-0.973-0.062-1.501c-0.042-0.845-0.074-1.5-0.096-2.009
	c-0.022-0.51-0.036-0.874-0.041-1.138c-0.005-0.264-0.002-0.428,0.007-0.536s0.025-0.161,0.046-0.203
	c0.021-0.106,0.053-0.206,0.095-0.3c0.042-0.094,0.095-0.181,0.158-0.26c0.063-0.079,0.137-0.151,0.222-0.212
	c0.084-0.062,0.18-0.114,0.285-0.157c0.042-0.021,0.084-0.042,0.128-0.062s0.088-0.038,0.136-0.054
	c0.048-0.016,0.098-0.029,0.152-0.038c0.054-0.009,0.112-0.014,0.176-0.014c0.127,0,0.253,0.016,0.375,0.048
	c0.121,0.032,0.238,0.079,0.343,0.143s0.201,0.143,0.28,0.238s0.143,0.206,0.185,0.333c0.042,0.084,0.074,0.137,0.095,0.232
	c0.021,0.095,0.032,0.232,0.032,0.486s-0.011,0.623-0.032,1.183c-0.021,0.56-0.053,1.31-0.095,2.323
	c-0.021,0.507-0.042,1.003-0.062,1.464s-0.038,0.886-0.054,1.25c-0.016,0.365-0.029,0.668-0.038,0.886
	c-0.009,0.218-0.014,0.35-0.014,0.371c0,0.106-0.005,0.201-0.017,0.288c-0.012,0.087-0.031,0.166-0.057,0.24
	c-0.026,0.074-0.06,0.143-0.104,0.209c-0.044,0.066-0.096,0.129-0.16,0.193c-0.042,0.106-0.1,0.19-0.169,0.256
	c-0.069,0.066-0.148,0.114-0.232,0.145c-0.084,0.032-0.174,0.048-0.264,0.05C42.264,47.669,42.175,47.659,42.09,47.637L42.09,47.637
	L42.09,47.637L42.09,47.637L42.09,47.637z M42.09,50.679c-0.127-0.042-0.248-0.106-0.358-0.185s-0.207-0.174-0.287-0.28
	c-0.079-0.106-0.14-0.222-0.176-0.343s-0.046-0.248-0.025-0.375c0.021-0.084,0.048-0.169,0.08-0.25s0.072-0.157,0.12-0.226
	c0.048-0.068,0.103-0.129,0.168-0.178c0.065-0.049,0.139-0.086,0.223-0.107c0.211-0.106,0.428-0.137,0.63-0.111
	c0.202,0.026,0.389,0.111,0.542,0.238c0.153,0.127,0.272,0.296,0.337,0.491c0.065,0.195,0.075,0.417,0.012,0.65
	c-0.042,0.127-0.111,0.243-0.198,0.343c-0.087,0.1-0.193,0.185-0.309,0.248c-0.116,0.063-0.243,0.106-0.372,0.121
	S42.217,50.721,42.09,50.679L42.09,50.679L42.09,50.679L42.09,50.679L42.09,50.679z"/>
<path id="path11723" style="fill:#003366;" d="M31.994,83.756v-2.281v-2.281v-2.281v-2.281h1.288h1.288h1.288h1.288v0.38v0.38v0.38
	v0.38h-0.908h-0.908h-0.908h-0.908v0.549v0.549V77.8v0.549h0.782h0.782h0.782h0.782v0.38v0.38v0.38v0.38h-0.782h-0.782h-0.782
	h-0.782v0.972v0.972v0.972v0.972c0,0-0.095,0-0.238,0s-0.333,0-0.523,0c-0.19,0-0.38,0-0.523,0
	C32.089,83.756,31.994,83.756,31.994,83.756z"/>
<path id="path11725" style="fill:#003366;" d="M38.922,79.194l-0.317-0.063l-0.317-0.063l-0.317-0.063l-0.317-0.063
	c0.042-0.169,0.09-0.327,0.143-0.474c0.053-0.147,0.111-0.281,0.174-0.403c0.063-0.121,0.132-0.229,0.206-0.323
	c0.074-0.094,0.153-0.173,0.238-0.236c0.084-0.063,0.185-0.121,0.298-0.173c0.114-0.052,0.24-0.097,0.378-0.134
	c0.137-0.037,0.285-0.066,0.441-0.086s0.319-0.03,0.488-0.03c0.148,0,0.29,0.005,0.426,0.016c0.136,0.011,0.265,0.026,0.386,0.048
	c0.122,0.021,0.235,0.048,0.34,0.079c0.104,0.032,0.199,0.069,0.284,0.111c0.084,0.042,0.158,0.09,0.224,0.141
	c0.066,0.051,0.124,0.107,0.177,0.165c0.053,0.058,0.1,0.119,0.145,0.181c0.045,0.062,0.087,0.125,0.129,0.189
	c0.042,0.063,0.074,0.148,0.098,0.251c0.024,0.103,0.04,0.224,0.05,0.362c0.011,0.137,0.016,0.29,0.018,0.457
	c0.003,0.166,0.003,0.346,0.003,0.536v0.507v0.507v0.507v0.507c0,0.148,0,0.285,0.001,0.412s0.004,0.243,0.009,0.349
	c0.005,0.106,0.014,0.201,0.025,0.285c0.012,0.084,0.028,0.158,0.049,0.222c0,0.063,0.011,0.132,0.028,0.205
	c0.017,0.073,0.041,0.149,0.067,0.228c0.026,0.079,0.055,0.161,0.083,0.244c0.028,0.083,0.054,0.168,0.076,0.253H42.28h-0.359
	h-0.359h-0.359l-0.042-0.19l-0.042-0.19l-0.042-0.19l-0.042-0.19c-0.063,0.063-0.127,0.127-0.19,0.189
	c-0.063,0.062-0.127,0.123-0.19,0.181c-0.063,0.058-0.127,0.114-0.19,0.165c-0.063,0.051-0.127,0.099-0.19,0.141
	s-0.132,0.079-0.205,0.111c-0.073,0.032-0.149,0.058-0.229,0.079s-0.161,0.037-0.244,0.048c-0.083,0.011-0.167,0.016-0.252,0.016
	c-0.127,0-0.248-0.011-0.364-0.032c-0.116-0.021-0.227-0.053-0.333-0.095s-0.206-0.095-0.301-0.158
	c-0.095-0.063-0.185-0.137-0.269-0.222c-0.084-0.084-0.158-0.18-0.222-0.284c-0.063-0.104-0.116-0.218-0.158-0.34
	c-0.042-0.122-0.074-0.251-0.095-0.387c-0.021-0.136-0.032-0.278-0.032-0.426c0-0.106,0.005-0.201,0.014-0.289
	s0.022-0.17,0.038-0.25c0.016-0.079,0.035-0.155,0.054-0.233c0.02-0.078,0.041-0.157,0.062-0.242
	c0.042-0.063,0.084-0.127,0.128-0.189c0.044-0.062,0.088-0.123,0.136-0.181c0.048-0.058,0.098-0.113,0.152-0.165
	s0.112-0.099,0.176-0.141c0.063-0.042,0.137-0.084,0.22-0.125s0.175-0.08,0.276-0.117c0.1-0.037,0.208-0.071,0.323-0.102
	c0.115-0.031,0.237-0.057,0.363-0.078c0.169-0.042,0.322-0.079,0.462-0.114c0.14-0.034,0.267-0.066,0.383-0.098
	c0.116-0.032,0.222-0.063,0.319-0.098c0.098-0.034,0.187-0.071,0.272-0.114c0-0.084,0-0.164-0.001-0.236
	c-0.001-0.073-0.004-0.139-0.01-0.197c-0.005-0.058-0.013-0.108-0.025-0.149c-0.012-0.041-0.028-0.073-0.049-0.094
	c-0.021-0.042-0.042-0.079-0.063-0.111s-0.042-0.058-0.063-0.079s-0.042-0.037-0.063-0.048s-0.042-0.016-0.063-0.016
	c-0.042-0.021-0.084-0.042-0.128-0.062c-0.044-0.02-0.089-0.038-0.136-0.054c-0.047-0.016-0.097-0.029-0.151-0.039
	c-0.054-0.009-0.112-0.015-0.176-0.015s-0.121,0.005-0.176,0.014c-0.054,0.009-0.104,0.022-0.152,0.038
	c-0.048,0.016-0.093,0.034-0.136,0.054c-0.043,0.02-0.085,0.041-0.128,0.062c-0.084,0-0.153,0.016-0.21,0.045
	c-0.057,0.029-0.102,0.071-0.139,0.124s-0.066,0.116-0.091,0.187C38.964,79.03,38.943,79.109,38.922,79.194L38.922,79.194
	L38.922,79.194L38.922,79.194L38.922,79.194z M40.865,80.63c-0.042,0.021-0.095,0.042-0.156,0.063
	c-0.061,0.021-0.129,0.042-0.203,0.063c-0.074,0.021-0.153,0.042-0.235,0.063c-0.082,0.021-0.166,0.042-0.251,0.063
	c-0.106,0.042-0.206,0.079-0.298,0.114c-0.092,0.034-0.177,0.066-0.251,0.098c-0.074,0.032-0.137,0.063-0.187,0.098
	c-0.05,0.034-0.087,0.071-0.108,0.114c-0.042,0.042-0.074,0.084-0.098,0.127s-0.04,0.084-0.05,0.127
	c-0.011,0.042-0.016,0.084-0.018,0.127c-0.003,0.042-0.003,0.084-0.003,0.127c0,0.063,0.005,0.127,0.016,0.189
	c0.011,0.062,0.026,0.123,0.048,0.181c0.021,0.058,0.048,0.114,0.079,0.165c0.032,0.051,0.069,0.099,0.111,0.141
	c0.042,0.042,0.084,0.079,0.128,0.111c0.044,0.032,0.088,0.058,0.136,0.079s0.098,0.037,0.152,0.048
	c0.054,0.011,0.113,0.016,0.176,0.016c0.042,0,0.09-0.005,0.14-0.014c0.05-0.009,0.103-0.022,0.156-0.038
	c0.053-0.016,0.106-0.034,0.156-0.054c0.05-0.02,0.098-0.041,0.14-0.062c0.042-0.042,0.084-0.084,0.125-0.127
	s0.08-0.084,0.117-0.127c0.037-0.042,0.072-0.084,0.102-0.127c0.03-0.042,0.057-0.084,0.078-0.127
	c0.021-0.042,0.042-0.095,0.062-0.158c0.02-0.063,0.038-0.137,0.054-0.222c0.016-0.084,0.029-0.18,0.039-0.285
	c0.009-0.106,0.015-0.222,0.015-0.349l-0.042-0.106l-0.042-0.106l-0.042-0.106L40.865,80.63L40.865,80.63L40.865,80.63L40.865,80.63
	L40.865,80.63z"/>
<path id="path11727" style="fill:#003366;" d="M47.793,79.109l-0.359,0.084l-0.359,0.084l-0.359,0.084l-0.359,0.084
	c-0.021-0.169-0.058-0.317-0.111-0.444c-0.053-0.127-0.121-0.232-0.206-0.317c-0.084-0.084-0.185-0.148-0.301-0.19
	c-0.116-0.042-0.248-0.063-0.396-0.063c-0.084,0-0.169,0.011-0.251,0.03c-0.082,0.02-0.161,0.049-0.235,0.085
	c-0.074,0.037-0.143,0.082-0.203,0.133c-0.061,0.052-0.114,0.11-0.156,0.173c-0.063,0.063-0.116,0.143-0.16,0.238
	c-0.044,0.095-0.078,0.206-0.105,0.333c-0.026,0.127-0.045,0.269-0.056,0.428c-0.012,0.158-0.017,0.333-0.017,0.523
	s0.005,0.37,0.017,0.537c0.012,0.168,0.03,0.324,0.056,0.466c0.026,0.143,0.061,0.272,0.104,0.387
	c0.044,0.115,0.097,0.215,0.16,0.299c0.063,0.084,0.127,0.158,0.191,0.222c0.065,0.063,0.131,0.116,0.199,0.158
	s0.14,0.074,0.215,0.095s0.155,0.032,0.239,0.032c0.063,0,0.127-0.005,0.189-0.016s0.123-0.026,0.18-0.048
	c0.058-0.021,0.114-0.048,0.165-0.079s0.099-0.069,0.141-0.111s0.079-0.095,0.114-0.158c0.034-0.063,0.066-0.137,0.098-0.222
	c0.032-0.084,0.063-0.18,0.098-0.285c0.034-0.106,0.071-0.222,0.114-0.349l0.359,0.063l0.359,0.063l0.359,0.063l0.359,0.063
	c-0.063,0.401-0.164,0.75-0.301,1.047c-0.137,0.297-0.312,0.543-0.523,0.738s-0.459,0.341-0.745,0.437
	c-0.285,0.096-0.607,0.144-0.966,0.144c-0.232,0-0.444-0.021-0.636-0.063s-0.367-0.106-0.525-0.19
	c-0.158-0.084-0.301-0.19-0.43-0.317c-0.129-0.127-0.246-0.275-0.351-0.444c-0.106-0.169-0.201-0.343-0.284-0.525
	s-0.155-0.372-0.213-0.573s-0.103-0.412-0.133-0.636c-0.03-0.224-0.046-0.462-0.046-0.716c0-0.296,0.016-0.57,0.048-0.825
	c0.032-0.255,0.079-0.49,0.143-0.706c0.063-0.217,0.143-0.415,0.238-0.596c0.095-0.181,0.206-0.344,0.333-0.492
	c0.127-0.148,0.259-0.28,0.399-0.395c0.14-0.115,0.288-0.212,0.446-0.291c0.158-0.079,0.327-0.14,0.51-0.18s0.378-0.062,0.589-0.062
	c0.169,0,0.327,0.011,0.477,0.032c0.149,0.021,0.289,0.053,0.421,0.095c0.132,0.042,0.256,0.095,0.374,0.158
	c0.118,0.063,0.229,0.137,0.334,0.222c0.084,0.106,0.164,0.216,0.238,0.335c0.074,0.119,0.143,0.246,0.206,0.383
	c0.063,0.136,0.121,0.284,0.174,0.445C47.703,78.745,47.751,78.919,47.793,79.109L47.793,79.109L47.793,79.109L47.793,79.109
	L47.793,79.109z"/>
<path id="path11729" style="fill:#003366;" d="M48.385,76.237v-0.401v-0.401v-0.401v-0.401h0.359h0.359h0.359h0.359v0.401v0.401
	v0.401v0.401h-0.359h-0.359c0,0-0.18,0-0.359,0C48.564,76.237,48.385,76.237,48.385,76.237z M48.385,83.756v-1.648v-1.648v-1.648
	v-1.648h0.359h0.359h0.359h0.359v1.648v1.648v1.648v1.648h-0.359h-0.359h-0.359H48.385z"/>
<path id="path11731" style="fill:#003366;" d="M50.666,83.756v-2.281v-2.281v-2.281v-2.281h0.359h0.359h0.359h0.359v2.281v2.281
	v2.281v2.281c0,0-0.09,0-0.224,0c-0.135,0-0.314,0-0.494,0c-0.18,0-0.359,0-0.494,0S50.666,83.756,50.666,83.756z"/>
<path id="path11733" style="fill:#003366;" d="M53.031,76.237v-0.401v-0.401v-0.401v-0.401h0.359h0.359h0.359h0.359v0.401v0.401
	v0.401v0.401h-0.359H53.75c0,0-0.18,0-0.359,0C53.211,76.237,53.031,76.237,53.031,76.237z M53.031,83.756v-1.648v-1.648v-1.648
	v-1.648h0.359h0.359h0.359h0.359v1.648v1.648v1.648v1.648h-0.359H53.75H53.39H53.031z"/>
<path id="path11735" style="fill:#003366;" d="M57.847,77.166v0.359v0.359v0.359v0.359h-0.253H57.34h-0.253h-0.253v0.676v0.676
	v0.676v0.676c0,0.148,0,0.28,0,0.396c0,0.116,0,0.216,0,0.301c0,0.084,0,0.153,0,0.206s0,0.09,0,0.111
	c0.021,0.042,0.042,0.079,0.065,0.111c0.022,0.032,0.046,0.058,0.072,0.079c0.026,0.021,0.055,0.037,0.089,0.048
	s0.07,0.016,0.113,0.016c0.042,0,0.084-0.005,0.128-0.014c0.044-0.009,0.088-0.022,0.136-0.038c0.048-0.016,0.098-0.035,0.152-0.055
	c0.054-0.02,0.112-0.041,0.176-0.062l0.042,0.338l0.042,0.338l0.042,0.338l0.042,0.338c-0.084,0.042-0.169,0.079-0.255,0.111
	s-0.173,0.058-0.263,0.079c-0.09,0.021-0.182,0.037-0.278,0.048c-0.096,0.011-0.196,0.016-0.302,0.016
	c-0.084,0-0.169-0.005-0.252-0.016c-0.083-0.011-0.165-0.026-0.245-0.048c-0.079-0.021-0.155-0.048-0.228-0.079
	s-0.141-0.069-0.205-0.111c-0.063-0.042-0.121-0.09-0.173-0.143c-0.052-0.053-0.097-0.111-0.134-0.174
	c-0.037-0.063-0.066-0.132-0.085-0.206c-0.02-0.074-0.03-0.153-0.03-0.238c-0.021-0.063-0.037-0.143-0.049-0.236
	c-0.012-0.094-0.02-0.202-0.025-0.324c-0.005-0.121-0.008-0.256-0.009-0.402c-0.001-0.146-0.001-0.305-0.001-0.474v-0.718v-0.718
	v-0.718v-0.718h-0.169h-0.169H54.89h-0.169v-0.359v-0.359V77.61v-0.359h0.169h0.169h0.169h0.169v-0.317v-0.317V76.3v-0.317
	l0.359-0.253l0.359-0.253l0.359-0.253l0.359-0.253v0.591v0.591v0.591v0.591l0.253-0.042l0.253-0.042l0.253-0.042L57.847,77.166
	L57.847,77.166L57.847,77.166L57.847,77.166L57.847,77.166z"/>
<path id="path11737" style="fill:#003366;" d="M58.27,76.237v-0.401v-0.401v-0.401v-0.401h0.359h0.359h0.359h0.359v0.401v0.401
	v0.401v0.401h-0.359h-0.359c0,0-0.18,0-0.359,0C58.449,76.237,58.27,76.237,58.27,76.237z M58.27,83.756v-1.648v-1.648v-1.648
	v-1.648h0.359h0.359h0.359h0.359v1.648v1.648v1.648v1.648h-0.359h-0.359h-0.359H58.27z"/>
<path id="path11739" style="fill:#003366;" d="M63.761,81.644l0.359,0.063l0.359,0.063l0.359,0.063l0.359,0.063
	c-0.042,0.169-0.095,0.327-0.157,0.474c-0.062,0.146-0.133,0.281-0.213,0.402c-0.079,0.121-0.166,0.23-0.26,0.323
	c-0.094,0.094-0.194,0.173-0.299,0.237c-0.106,0.084-0.216,0.158-0.331,0.222c-0.115,0.063-0.234,0.116-0.355,0.158
	c-0.121,0.042-0.245,0.074-0.371,0.095c-0.126,0.021-0.253,0.032-0.379,0.032c-0.19,0-0.375-0.016-0.552-0.048
	c-0.177-0.032-0.346-0.079-0.504-0.143c-0.158-0.063-0.306-0.143-0.441-0.238c-0.135-0.095-0.256-0.206-0.362-0.333
	c-0.127-0.169-0.238-0.349-0.333-0.54c-0.095-0.191-0.174-0.395-0.238-0.612c-0.063-0.217-0.111-0.446-0.143-0.69
	c-0.032-0.244-0.048-0.503-0.048-0.777c0-0.275,0.016-0.533,0.048-0.778c0.032-0.244,0.079-0.474,0.143-0.691
	s0.143-0.42,0.238-0.611c0.095-0.191,0.206-0.371,0.333-0.54c0.106-0.148,0.222-0.275,0.347-0.381s0.26-0.194,0.402-0.262
	c0.143-0.069,0.293-0.119,0.451-0.152s0.321-0.049,0.49-0.049c0.19,0,0.37,0.016,0.54,0.049c0.17,0.033,0.331,0.083,0.484,0.152
	c0.153,0.068,0.299,0.155,0.437,0.262s0.271,0.234,0.397,0.381c0.127,0.169,0.238,0.354,0.333,0.556
	c0.095,0.202,0.174,0.421,0.238,0.659c0.063,0.238,0.111,0.494,0.143,0.77s0.048,0.571,0.048,0.888v0.042v0.042v0.042v0.042h-0.908
	h-0.908h-0.908h-0.908c0,0.127,0.011,0.248,0.029,0.363c0.018,0.115,0.045,0.223,0.077,0.323c0.032,0.101,0.069,0.193,0.108,0.276
	s0.082,0.157,0.124,0.221c0.063,0.063,0.127,0.121,0.191,0.173c0.065,0.052,0.131,0.097,0.2,0.134
	c0.068,0.037,0.14,0.066,0.215,0.085c0.075,0.02,0.154,0.03,0.239,0.03c0.127,0.042,0.243,0.053,0.347,0.034
	c0.104-0.018,0.197-0.066,0.276-0.14c0.079-0.074,0.146-0.174,0.197-0.298C63.703,81.961,63.74,81.813,63.761,81.644L63.761,81.644
	L63.761,81.644L63.761,81.644L63.761,81.644z M63.846,79.954c0-0.127-0.011-0.248-0.029-0.363c-0.018-0.115-0.045-0.223-0.077-0.323
	c-0.032-0.101-0.069-0.193-0.108-0.276c-0.04-0.083-0.082-0.157-0.124-0.221c-0.063-0.063-0.121-0.121-0.178-0.173
	c-0.057-0.052-0.112-0.097-0.171-0.134c-0.058-0.037-0.118-0.066-0.186-0.085c-0.067-0.02-0.141-0.03-0.226-0.03
	s-0.164,0.011-0.238,0.03c-0.074,0.02-0.143,0.049-0.206,0.085s-0.121,0.082-0.174,0.133c-0.053,0.052-0.1,0.11-0.143,0.173
	c-0.063,0.063-0.116,0.137-0.16,0.221s-0.078,0.176-0.104,0.276c-0.026,0.101-0.045,0.209-0.057,0.323
	c-0.012,0.115-0.018,0.236-0.018,0.363h0.549h0.549h0.549H63.846L63.846,79.954L63.846,79.954L63.846,79.954L63.846,79.954z"/>
<path id="path11741" style="fill:#003366;" d="M65.367,81.897l0.359-0.063l0.359-0.063l0.359-0.063l0.359-0.063
	c0.042,0.169,0.095,0.317,0.161,0.444c0.066,0.127,0.145,0.232,0.24,0.317c0.095,0.084,0.206,0.148,0.335,0.19
	s0.277,0.063,0.446,0.063c0.084,0,0.164-0.005,0.238-0.014c0.074-0.009,0.143-0.022,0.206-0.038
	c0.063-0.016,0.121-0.035,0.174-0.055c0.053-0.02,0.1-0.041,0.143-0.062c0.042-0.042,0.079-0.084,0.111-0.127
	s0.058-0.084,0.079-0.127c0.021-0.042,0.037-0.084,0.048-0.127C68.994,82.066,69,82.024,69,81.982c0-0.042,0-0.079-0.003-0.112
	c-0.003-0.033-0.008-0.062-0.018-0.089s-0.026-0.05-0.05-0.073c-0.024-0.022-0.055-0.043-0.098-0.064
	c-0.021-0.021-0.048-0.042-0.079-0.063c-0.032-0.021-0.069-0.042-0.111-0.063c-0.042-0.021-0.09-0.042-0.143-0.063
	c-0.053-0.021-0.111-0.042-0.174-0.063c-0.296-0.084-0.565-0.164-0.808-0.24s-0.459-0.15-0.649-0.224
	c-0.19-0.074-0.354-0.148-0.491-0.224s-0.248-0.156-0.333-0.24c-0.106-0.084-0.195-0.18-0.271-0.284
	c-0.075-0.104-0.136-0.218-0.183-0.34c-0.048-0.121-0.082-0.25-0.105-0.386c-0.022-0.136-0.033-0.278-0.033-0.426
	c0-0.169,0.011-0.322,0.033-0.462c0.022-0.14,0.057-0.267,0.104-0.383c0.047-0.116,0.108-0.222,0.183-0.319
	c0.075-0.098,0.165-0.187,0.271-0.272c0.106-0.084,0.217-0.158,0.335-0.222c0.119-0.063,0.246-0.116,0.383-0.158
	c0.137-0.042,0.285-0.074,0.446-0.095c0.161-0.021,0.335-0.032,0.525-0.032c0.169,0,0.333,0.011,0.488,0.03
	c0.156,0.02,0.304,0.049,0.441,0.085s0.264,0.082,0.378,0.133c0.114,0.052,0.214,0.11,0.299,0.173
	c0.106,0.063,0.201,0.143,0.285,0.235s0.158,0.198,0.222,0.314c0.063,0.116,0.116,0.243,0.158,0.378s0.074,0.277,0.095,0.425
	L69.76,78.94l-0.338,0.084l-0.338,0.084l-0.338,0.084c-0.042-0.127-0.09-0.238-0.146-0.333c-0.057-0.095-0.123-0.174-0.202-0.238
	c-0.079-0.063-0.172-0.111-0.281-0.143c-0.11-0.032-0.237-0.048-0.385-0.048c-0.084,0-0.164,0.005-0.238,0.014
	s-0.143,0.022-0.206,0.038c-0.063,0.016-0.121,0.034-0.174,0.054c-0.053,0.02-0.1,0.041-0.143,0.062
	c-0.042,0.021-0.079,0.048-0.111,0.078c-0.032,0.03-0.058,0.065-0.079,0.102c-0.021,0.037-0.037,0.076-0.048,0.117
	c-0.011,0.041-0.016,0.083-0.016,0.125s0.005,0.079,0.014,0.112s0.022,0.062,0.038,0.088c0.016,0.027,0.035,0.05,0.054,0.073
	c0.02,0.022,0.041,0.044,0.062,0.065c0.042,0.021,0.1,0.048,0.174,0.078c0.074,0.03,0.164,0.065,0.269,0.102
	c0.106,0.037,0.227,0.077,0.364,0.117c0.137,0.041,0.29,0.083,0.459,0.125c0.19,0.063,0.37,0.127,0.536,0.191
	c0.166,0.065,0.319,0.131,0.457,0.2c0.137,0.068,0.259,0.14,0.362,0.215c0.103,0.075,0.187,0.154,0.251,0.239
	c0.063,0.084,0.121,0.174,0.173,0.269c0.051,0.095,0.096,0.195,0.133,0.301c0.037,0.106,0.066,0.216,0.086,0.333
	c0.02,0.116,0.03,0.238,0.03,0.364c0,0.169-0.016,0.327-0.046,0.477c-0.03,0.149-0.075,0.289-0.134,0.421
	c-0.058,0.132-0.129,0.256-0.212,0.374s-0.178,0.228-0.284,0.334c-0.106,0.106-0.222,0.201-0.35,0.284
	c-0.128,0.083-0.268,0.155-0.421,0.213c-0.153,0.058-0.32,0.103-0.501,0.133c-0.181,0.03-0.376,0.046-0.588,0.046
	c-0.169,0-0.333-0.011-0.49-0.032c-0.157-0.021-0.308-0.053-0.451-0.095c-0.143-0.042-0.277-0.095-0.403-0.158
	c-0.125-0.063-0.241-0.137-0.347-0.222c-0.042-0.148-0.09-0.29-0.14-0.432c-0.05-0.141-0.103-0.281-0.156-0.424
	c-0.053-0.143-0.106-0.288-0.156-0.44S65.409,82.066,65.367,81.897L65.367,81.897L65.367,81.897L65.367,81.897L65.367,81.897z"/>
</svg>
