<?xml version="1.0" encoding="utf-8"?>
<!-- Generator: Adobe Illustrator 25.2.0, SVG Export Plug-In . SVG Version: 6.00 Build 0)  -->
<svg version="1.1" id="Layer_1" xmlns="http://www.w3.org/2000/svg" xmlns:xlink="http://www.w3.org/1999/xlink" x="0px" y="0px"
	 viewBox="0 0 100 100" style="enable-background:new 0 0 100 100;" xml:space="preserve">
<g>
	<path d="M53.3,27.9c0,0-2-0.3-5.5,0c-3.5,0.3-3.8,4.1-3.8,4.1v6.4c-0.9-0.3-2.5-0.8-3.1-0.8c-0.9,0-0.6,0.8-0.6,0.8l5.7,6.5
		l5.7-6.5c0,0,0.3-0.8-0.6-0.8c-0.6,0-2,0.4-2.9,0.8V32c0,0-0.1-1.2,2.6-1.3c2.7,0,2.8,1.7,2.8,1.7v13h3.8v-13
		C57.6,29.2,53.3,27.9,53.3,27.9z"/>
	<path style="fill:#E7443A;" d="M49.7,22.7c-8,0-14.5,6.1-14.5,13.6s6.5,13.6,14.5,13.6s14.5-6.1,14.5-13.6S57.7,22.7,49.7,22.7z
		 M36.7,36.2c0-3.3,1.4-6.3,3.7-8.5l17.9,17.7c-2.3,1.9-5.3,3-8.5,3C42.5,48.5,36.7,43,36.7,36.2z M59.3,44.5L41.4,26.8
		c2.3-1.8,5.2-2.8,8.3-2.8c7.2,0,13.1,5.5,13.1,12.2C62.8,39.4,61.5,42.3,59.3,44.5z"/>
	<g>
		<g>
			<rect x="43.2" y="57.5" style="fill:#FFFFFF;" width="30.6" height="15.6"/>
		</g>
		<g>
			<rect x="25.6" y="70.1" style="fill:#6A6A6A;" width="13.4" height="0.3"/>
		</g>
		<g>
			<path style="fill:#6A6A6A;" d="M37.5,73.2c-0.1-2.4-1.5-4.3-3.1-4.3c-1.7,0-3,1.9-3.1,4.3H37.5z"/>
		</g>
		<g>
			<path style="fill:#6A6A6A;" d="M52,73v-2.1c0,0,0.9-2.4,3.1-2.4s2.9,3.1,2.9,3.1v1.7L52,73z"/>
		</g>
		<g>
			<path style="fill:#6A6A6A;" d="M64.4,73v-2.1c0,0-0.9-2.4-3.1-2.4c-2.2,0-2.9,3.1-2.9,3.1v1.8L64.4,73z"/>
		</g>
		<g>
			<rect x="27" y="73" style="fill:#6A6A6A;" width="46.5" height="0.4"/>
		</g>
		<g>
			<g>
				<ellipse style="fill:#FFFFFF;" cx="61.4" cy="73.5" rx="2.2" ry="3"/>
			</g>
			<g>
				<g>
					<path d="M61.4,69.6c-1.5,0-2.7,1.7-2.7,3.9c0,2.1,1.2,3.9,2.7,3.9c1.5,0,2.7-1.7,2.7-3.9C64.1,71.3,62.9,69.6,61.4,69.6z
						 M61.4,76.1c-1,0-1.8-1.2-1.8-2.7c0-1.5,0.8-2.7,1.8-2.7c1,0,1.8,1.2,1.8,2.7C63.2,74.9,62.4,76.1,61.4,76.1z"/>
				</g>
			</g>
		</g>
		<g>
			<g>
				<ellipse style="fill:#FFFFFF;" cx="55.1" cy="73.5" rx="2.2" ry="3"/>
			</g>
			<g>
				<g>
					<path d="M55.1,69.6c-1.5,0-2.7,1.7-2.7,3.9c0,2.1,1.2,3.9,2.7,3.9c1.5,0,2.7-1.7,2.7-3.9C57.8,71.3,56.6,69.6,55.1,69.6z
						 M55.1,76.1c-1,0-1.8-1.2-1.8-2.7c0-1.5,0.8-2.7,1.8-2.7c1,0,1.8,1.2,1.8,2.7C57,74.9,56.1,76.1,55.1,76.1z"/>
				</g>
			</g>
		</g>
		<g>
			<g>
				<ellipse style="fill:#FFFFFF;" cx="34.3" cy="73.5" rx="2.2" ry="3"/>
			</g>
			<g>
				<g>
					<path d="M34.2,69.6c-1.5,0-2.7,1.7-2.7,3.9c0,2.1,1.2,3.9,2.7,3.9c1.5,0,2.7-1.7,2.7-3.9C37,71.3,35.7,69.6,34.2,69.6z
						 M34.2,76.1c-1,0-1.8-1.2-1.8-2.7c0-1.5,0.8-2.7,1.8-2.7c1,0,1.8,1.2,1.8,2.7C36.1,74.9,35.3,76.1,34.2,76.1z"/>
				</g>
			</g>
		</g>
		<g>
			<g>
				<path style="fill:#FFFFFF;" d="M40,66c-0.3,0-0.5-0.3-0.5-0.7c0-0.4,0.2-0.7,0.5-0.7c0.3,0,0.5,0.3,0.5,0.7
					C40.5,65.7,40.3,66,40,66z"/>
			</g>
			<g>
				<path d="M40,64.7c0.2,0,0.4,0.3,0.4,0.7c0,0.4-0.2,0.7-0.4,0.7c-0.2,0-0.4-0.3-0.4-0.7C39.6,64.9,39.8,64.7,40,64.7 M40,64.5
					c-0.3,0-0.6,0.4-0.6,0.8c0,0.5,0.3,0.8,0.6,0.8c0.3,0,0.6-0.4,0.6-0.8C40.6,64.8,40.3,64.5,40,64.5L40,64.5z"/>
			</g>
		</g>
		<g>
			<g>
				<path style="fill:#FFFFFF;" d="M42,66c-0.3,0-0.5-0.3-0.5-0.7c0-0.4,0.2-0.7,0.5-0.7c0.3,0,0.5,0.3,0.5,0.7
					C42.5,65.7,42.3,66,42,66z"/>
			</g>
			<g>
				<path d="M42,64.7c0.2,0,0.4,0.3,0.4,0.7c0,0.4-0.2,0.7-0.4,0.7s-0.4-0.3-0.4-0.7C41.6,64.9,41.8,64.7,42,64.7 M42,64.5
					c-0.3,0-0.6,0.4-0.6,0.8c0,0.5,0.3,0.8,0.6,0.8c0.3,0,0.6-0.4,0.6-0.8C42.6,64.8,42.3,64.5,42,64.5L42,64.5z"/>
			</g>
		</g>
		<g>
			<g>
				<path style="fill:#FFFFFF;" d="M40.9,69.5c-0.4,0-0.8-0.5-0.8-1.1c0-0.6,0.3-1.1,0.8-1.1s0.8,0.5,0.8,1.1
					C41.7,69,41.3,69.5,40.9,69.5z"/>
			</g>
			<g>
				<path d="M40.9,67.4c0.4,0,0.7,0.5,0.7,1s-0.3,1-0.7,1s-0.7-0.5-0.7-1S40.5,67.4,40.9,67.4 M40.9,67.2c-0.5,0-0.9,0.5-0.9,1.2
					c0,0.7,0.4,1.2,0.9,1.2c0.5,0,0.9-0.5,0.9-1.2C41.8,67.7,41.4,67.2,40.9,67.2L40.9,67.2z"/>
			</g>
		</g>
		<g>
			<path style="fill:#A1A1A1;" d="M42.1,60.4c0.4-0.1,0.7-0.4,0.7-0.9c0-0.5-0.3-0.9-0.7-0.9c-0.4,0-0.6,0.3-0.7,0.7h-0.4
				c-0.1-0.4-0.4-0.7-0.7-0.7c-0.4,0-0.7,0.4-0.7,0.9c0,0.5,0.3,0.9,0.7,0.9c-0.4,0.1-0.7,0.4-0.7,0.9c0,0.5,0.3,0.9,0.7,0.9
				c0.3,0,0.6-0.3,0.7-0.6h0.5c0.1,0.4,0.4,0.6,0.7,0.6c0.4,0,0.7-0.4,0.7-0.9C42.8,60.8,42.5,60.5,42.1,60.4z M41.4,61.1h-0.4
				c-0.1-0.4-0.3-0.6-0.6-0.7c0.3,0,0.5-0.3,0.6-0.6h0.5c0.1,0.3,0.3,0.6,0.6,0.6C41.7,60.4,41.4,60.7,41.4,61.1z M42.1,58.9
				c0.2,0,0.4,0.2,0.4,0.6c0,0.3-0.2,0.6-0.4,0.6c-0.2,0-0.4-0.2-0.4-0.6C41.7,59.1,41.9,58.9,42.1,58.9z M39.9,59.5
				c0-0.3,0.2-0.6,0.4-0.6c0.2,0,0.4,0.2,0.4,0.6c0,0.3-0.2,0.6-0.4,0.6C40,60,39.9,59.8,39.9,59.5z M40.2,61.9
				c-0.2,0-0.4-0.2-0.4-0.6s0.2-0.6,0.4-0.6c0.2,0,0.4,0.2,0.4,0.6S40.4,61.9,40.2,61.9z M42.1,61.9c-0.2,0-0.4-0.2-0.4-0.6
				s0.2-0.6,0.4-0.6c0.2,0,0.4,0.2,0.4,0.6S42.2,61.9,42.1,61.9z"/>
		</g>
		<g>
			<rect x="27.2" y="57.4" style="fill:#6A6A6A;" width="11.5" height="0.4"/>
		</g>
		<g>
			<rect x="38.7" y="58.1" style="fill:#6A6A6A;" width="0.4" height="15"/>
		</g>
		<g>
			<rect x="39" y="71.3" style="fill:#6A6A6A;" width="4.3" height="0.4"/>
		</g>
		<g>
			<rect x="39.1" y="62.5" style="fill:#6A6A6A;" width="4.1" height="0.4"/>
		</g>
		<g>
			<rect x="51.2" y="67.3" style="fill:#6A6A6A;" width="0.5" height="5.9"/>
		</g>
		<g>
			<rect x="73.5" y="57.4" style="fill:#6A6A6A;" width="0.5" height="16"/>
		</g>
		<g>
			<path style="fill:#6A6A6A;" d="M68.1,49.8l-0.9,1.5l-41.9,0.1c0,0-0.9,1.3-1.2,2.9c-0.3,1.6,0.7,2.2,0.7,2.2h47.9L68.1,49.8z
				 M24.8,55c0-1,0.7-2.2,0.7-2.2l0.8,2.9C26.3,55.7,24.8,56.1,24.8,55z M25.9,52.1l3.6,0.1l-2.7,3.6L25.9,52.1z M27.6,55.8l2.7-3.5
				l2.8,3.5H27.6z M30.9,52.1l5.6,0.1l-2.7,3.6L30.9,52.1z M34.8,55.8l2.7-3.5l2.8,3.5H34.8z M38.5,52.1l5.6,0.1l-2.7,3.6L38.5,52.1
				z M42.4,55.8l2.7-3.5l2.8,3.5H42.4z M46,52.1l5.6,0.1l-2.7,3.6L46,52.1z M49.9,55.8l2.7-3.5l2.8,3.5H49.9z M53.6,52.1l5.6,0.1
				l-2.7,3.6L53.6,52.1z M57.5,55.8l2.7-3.5l2.8,3.5H57.5z M61.1,52.1l5.6,0.1l-2.7,3.6L61.1,52.1z M68.2,51.7l2.9,3.9h-5.8
				L68.2,51.7z"/>
		</g>
		<g>
			<rect x="42.8" y="57.4" style="fill:#6A6A6A;" width="30.9" height="0.4"/>
		</g>
		<g>
			<rect x="42.8" y="57.4" style="fill:#6A6A6A;" width="0.8" height="15.8"/>
		</g>
		<g>
			<rect x="51.2" y="67.3" style="fill:#6A6A6A;" width="13.7" height="0.5"/>
		</g>
		<g>
			<rect x="64.4" y="67.3" style="fill:#6A6A6A;" width="0.4" height="5.8"/>
		</g>
		<g>
			<rect x="65.6" y="58.1" style="fill:#ECECEC;" width="7.6" height="14"/>
		</g>
		<g>
			<rect x="59.2" y="58.1" style="fill:#ECECEC;" width="5.6" height="8.8"/>
		</g>
		<g>
			<rect x="51.4" y="58.1" style="fill:#ECECEC;" width="7.3" height="8.8"/>
		</g>
		<g>
			<rect x="43.8" y="58.1" style="fill:#ECECEC;" width="7" height="14.8"/>
		</g>
		<g>
			<rect x="28.8" y="58.5" style="fill:#ACACAC;" width="4" height="0.4"/>
		</g>
		<g>
			<rect x="32.4" y="58.5" style="fill:#ACACAC;" width="0.4" height="4.8"/>
		</g>
		<g>
			<rect x="34.4" y="58.5" style="fill:#ACACAC;" width="0.4" height="4.8"/>
		</g>
		<g>
			<rect x="33.1" y="58.6" style="fill:#ACACAC;" width="0.4" height="4.8"/>
		</g>
		<g>
			<rect x="28" y="62.9" style="fill:#ACACAC;" width="4.7" height="0.4"/>
		</g>
		<g>
			<g>
				<path style="fill:#FFFFFF;" d="M29.6,63.8h-0.5c-0.2,0-0.4-0.2-0.4-0.4v-2.9c0-0.2,0.2-0.4,0.4-0.4h0.5c0.2,0,0.4,0.2,0.4,0.4
					v2.9C30,63.6,29.8,63.8,29.6,63.8z"/>
			</g>
			<g>
				<path style="fill:#ACACAC;" d="M29.6,63.9h-0.5c-0.3,0-0.5-0.2-0.5-0.5v-2.9c0-0.3,0.2-0.5,0.5-0.5h0.5c0.3,0,0.5,0.2,0.5,0.5
					v2.9C30.1,63.7,29.9,63.9,29.6,63.9z M29.1,60.3c-0.1,0-0.2,0.1-0.2,0.2v2.9c0,0.1,0.1,0.2,0.2,0.2h0.5c0.1,0,0.2-0.1,0.2-0.2
					v-2.9c0-0.1-0.1-0.2-0.2-0.2H29.1z"/>
			</g>
		</g>
		<g>
			<rect x="33.2" y="58.5" style="fill:#ACACAC;" width="1.5" height="0.4"/>
		</g>
		<g>
			<rect x="33.3" y="62.9" style="fill:#ACACAC;" width="1.3" height="0.4"/>
		</g>
		<g>
			<rect x="35.2" y="58.6" style="fill:#ACACAC;" width="3.2" height="0.4"/>
		</g>
		<g>
			<rect x="35.2" y="62.9" style="fill:#ACACAC;" width="3.2" height="0.4"/>
		</g>
		<g>
			<rect x="35.2" y="58.6" style="fill:#ACACAC;" width="0.4" height="4.6"/>
		</g>
		<g>
			<rect x="38" y="58.6" style="fill:#ACACAC;" width="0.4" height="4.7"/>
		</g>
		<g>
			<g>
				<path style="fill:#777777;" d="M26,70.7h-0.5v-1.3l0.5,0v-1.7h-0.5l0-0.3c0-0.2,0-4.3,0.2-4.9c0.1-0.6,1.3-4.8,1.3-5l0.1-0.2
					h11.7v0.5H27.4c-0.2,0.8-1.2,4.3-1.3,4.8C26.1,63,26,65.8,26,67.2h0.5v2.7l-0.5,0V70.7z"/>
			</g>
		</g>
		<g>
			<path style="fill:#777777;" d="M25.9,64.6l-0.2-0.5c1-0.3,2-0.9,2.1-1.3c0.1-0.6,0.4-3,0.4-3.9l-1.3,0l0-0.5l1.9,0.1l0,0.3
				c0,0.1-0.3,3.5-0.5,4.2C28.1,63.8,26.2,64.5,25.9,64.6z"/>
		</g>
		<g>
			<g>
				<path style="fill:#777777;" d="M26.3,73.1h-0.6c-0.6,0-1.1-0.5-1.1-1.1v-0.6c0-0.6,0.5-1.1,1.1-1.1h0.6c0.6,0,1.1,0.5,1.1,1.1
					V72C27.4,72.6,26.9,73.1,26.3,73.1z M25.8,70.9c-0.3,0-0.6,0.3-0.6,0.6V72c0,0.3,0.3,0.6,0.6,0.6h0.6c0.3,0,0.6-0.3,0.6-0.6
					v-0.6c0-0.3-0.3-0.6-0.6-0.6H25.8z"/>
			</g>
		</g>
		<g>
			<g>
				<path style="fill:#6A6A6A;" d="M76,73h-2.2v-0.5h1.7c0-1.5,0-8.9,0-10.5c0-0.5-0.1-0.8-0.4-1c-0.5-0.4-1.3-0.3-1.3-0.3l-0.1-0.5
					c0,0,1-0.1,1.7,0.5c0.4,0.3,0.6,0.8,0.5,1.4c0,1.9,0,10.7,0,10.8L76,73z"/>
			</g>
		</g>
	</g>
</g>
</svg>
