<svg xmlns="http://www.w3.org/2000/svg" viewBox="0 0 100 100">
   <g transform="translate(-13,16)">
      <polygon style="fill:#EAEAEA;" points="15.8,35.4 59.6,80.2 76.4,63.5 59.5,31.3 56.8,29.7 19.2,29.7 		"/>
      <polygon points="75,62.7 58.2,30.5 24,30.5 24,29 59.1,29 76.3,62 		"/>
      <rect x="51.4" y="43" transform="matrix(0.6753 0.7375 -0.7375 0.6753 54.1492 -26.161)" width="10.7" height="10.7"/>
      <rect x="35" y="42.3" transform="matrix(0.6753 0.7375 -0.7375 0.6753 48.2911 -14.2932)" width="10.7" height="10.7"/>
      <path d="M83.1,31.9c-0.9-0.1-2.2-0.7-2.2-1.5c0-0.7,0.1-3.6-0.1-4.2c-0.2-0.6,0.3-1.6,0.3-1.6l0,0c0.2,0.1,0.4,0.3,0.7,0.3
			c1.1,0.2,2.2-0.8,2.4-2.2c0.2-1.4-0.5-2.7-1.6-2.9c-1.1-0.2-2.2,0.8-2.4,2.2c-0.1,0.4,0,0.8,0,1.2c-0.2,0.1-0.5,0.2-0.7,0.2
			c-0.8-0.1-3.9-1.1-4.8-1.3c-0.8-0.2-4.6,1.9-5.8,3.3c-1.2,1.4,0.9,2,0.9,2s2.2-1.6,3.7-1.8s0.8,0.9,0.8,0.9s-5,4.3-7.2,4.8
			c-2.2,0.5-3-2.2-4.6-2.7c-1.5-0.5-1.2,1.9-1.2,1.9s2.7,2.7,3.6,3.5s2.1,0.8,2.1,0.8s3.9-3.6,4.6-2.9c0.7,0.7-0.7,5.2-0.7,5.2
			S68.3,38.7,67,41c-1.4,2.2,1.2,1.9,1.2,1.9s4.2-2.8,4.7-3.1c0.6-0.3,1.9-6.6,2.3-8.3c0.3-1.7,2.4-3.4,2.4-1.3c0,2.1,2,3.6,3.4,4
			C82.5,34.5,83.9,32,83.1,31.9z"/>
   </g>
</svg>
