<?xml version="1.0" encoding="utf-8"?>
<!-- Generator: Adobe Illustrator 25.2.0, SVG Export Plug-In . SVG Version: 6.00 Build 0)  -->
<svg version="1.1" id="Layer_1" xmlns="http://www.w3.org/2000/svg" xmlns:xlink="http://www.w3.org/1999/xlink" x="0px" y="0px"
	 viewBox="0 0 100 100" style="enable-background:new 0 0 100 100;" xml:space="preserve">
<g>
	<path d="M52.9,27.3c0,0-2.4-0.3-6.5,0c-4.1,0.3-4.4,4.6-4.4,4.6v7.1c-1.1-0.4-2.9-0.9-3.6-0.9c-1.1,0-0.8,0.9-0.8,0.9l6.7,7.3
		l6.7-7.3c0,0,0.3-0.9-0.8-0.9c-0.7,0-2.3,0.5-3.4,0.8v-7.1c0,0-0.2-1.4,3-1.4c3.2,0,3.3,2,3.3,2V47h4.5V32.5
		C57.8,28.7,52.9,27.3,52.9,27.3z"/>
	<path style="fill:#E7443A;" d="M48.7,21c-8.9,0-16.2,6.9-16.2,15.3s7.3,15.3,16.2,15.3s16.2-6.9,16.2-15.3S57.6,21,48.7,21z
		 M34.1,36.3c0-3.7,1.6-7.1,4.1-9.5l20,19.9c-2.6,2.1-5.9,3.4-9.5,3.4C40.7,50.1,34.1,43.9,34.1,36.3z M59.4,45.7l-20-19.9
		c2.5-2,5.8-3.2,9.3-3.2c8,0,14.6,6.2,14.6,13.8C63.2,39.9,61.8,43.2,59.4,45.7z"/>
	<g>
		<g>
			<path style="fill:#FFFFFF;" d="M44,58.5l-6,0.1l-2.1,1.2L34,62.1l-2,2.8l-0.6,0.2l-2.8,0.5l-1.3,1l-0.1,0.5v5
				c0,0,0.2,3.2,1.5,3.3l0.5,0.3l8.7-0.1l5.4-0.1l1.1-13.9L44,58.5z"/>
		</g>
		<g>
			<polygon style="fill:#FFFFFF;" points="68.1,75.1 65,75.2 64.3,75.7 43,75.7 43,54.7 68.1,54.7 			"/>
		</g>
		<g>
			<g>
				<polygon style="fill:#0000FF;" points="61.4,61.4 59.5,58.3 57,59.8 57,56.6 53.4,56.6 53.4,59.9 50.8,58.3 48.9,61.4 
					51.7,63.1 48.9,64.9 50.8,68 53.4,66.4 53.4,70 57,70 57,66.5 59.5,68 61.4,64.9 58.6,63.1 				"/>
			</g>
			<g>
				<path style="fill:#333333;" d="M57.2,70.2h-4v-3.5l-2.5,1.6l-2-3.5l2.7-1.7l-2.7-1.7l2-3.5l2.5,1.6v-3.2h4v3.1l2.4-1.5l2,3.5
					L59,63.1l2.7,1.7l-2,3.5l-2.4-1.5V70.2z M53.6,69.8h3.3v-3.7l2.6,1.6l1.6-2.8l-2.9-1.8l2.9-1.8l-1.6-2.8l-2.6,1.6v-3.4h-3.3v3.5
					l-2.8-1.7l-1.6,2.8l2.9,1.8l-2.9,1.8l1.6,2.8l2.8-1.7V69.8z"/>
			</g>
		</g>
		<g>
			<g>
				<path style="fill:#FFFFFF;" d="M27.2,67.7h1c0,0,0.3,3.1-0.4,3.6h-0.5L27.2,67.7z"/>
			</g>
			<g>
				<path style="fill:#646464;" d="M27.8,71.5h-0.6l-0.1-3.8h1.2l0,0.1C28.4,68.1,28.6,70.9,27.8,71.5L27.8,71.5z M27.4,71.3h0.4
					c0.5-0.4,0.4-2.5,0.4-3.4h-0.8L27.4,71.3z"/>
			</g>
		</g>
		<g>
			<g>
				<polygon style="fill:#646464;" points="43.4,74.9 43,74.9 43,54.7 68.3,54.7 68.3,72.4 67.9,72.4 67.9,55.2 43.4,55.2 				"/>
			</g>
		</g>
		<g>
			<g>
				<path style="fill:#646464;" d="M27.4,72.3H27l0-5.6c0.8-1.9,4.1-1.9,4.7-1.9c0.4-0.6,3-4.2,3.8-5c0.8-0.9,2.1-1.5,2.2-1.5l0.1,0
					h5.4v0.4h-5.3c-0.2,0.1-1.4,0.6-2,1.4c-0.8,0.9-3.8,5-3.8,5.1L32,65.3l-0.1,0c0,0-3.7-0.1-4.5,1.6V72.3z"/>
			</g>
		</g>
		<g>
			<rect x="29.9" y="67.7" style="fill:#646464;" width="12" height="0.8"/>
		</g>
		<g>
			<g>
				<path style="fill:#646464;" d="M31.9,65.3l0-0.4c0.1,0,8.2-0.3,9.8-0.7v-3.4c0,0-0.1-0.4-0.5-0.4h-5.5v-0.4h5.5
					c0.6,0,0.9,0.5,0.9,0.8l0,3.8l-0.1,0C40.6,65,32.2,65.3,31.9,65.3z"/>
			</g>
		</g>
		<g>
			<g>
				<polygon style="fill:#646464;" points="34.7,65.3 34.3,65.1 36.2,60 36.5,60.2 				"/>
			</g>
		</g>
		<g>
			<g>
				<path style="fill:#FFFFFF;" d="M34.7,66.1h-0.6c-0.2,0-0.4-0.2-0.4-0.4v-3.1h1V66.1z"/>
			</g>
			<g>
				<path style="fill:#646464;" d="M34.8,66.3h-0.7c-0.3,0-0.5-0.3-0.5-0.6v-3.2h1.2V66.3z M33.8,62.7v3c0,0.2,0.1,0.4,0.3,0.4h0.5
					v-3.4H33.8z"/>
			</g>
		</g>
		<g>
			<g>
				<path style="fill:#FFFFFF;" d="M41.5,58.1h-2.8v-0.5c0-0.7,0.6-1.3,1.3-1.3h0.1c0.7,0,1.3,0.6,1.3,1.3V58.1z"/>
			</g>
			<g>
				<path style="fill:#646464;" d="M41.6,58.2h-2.9v-0.5c0-0.9,0.6-1.6,1.4-1.6h0.2c0.8,0,1.4,0.7,1.4,1.6V58.2z M38.8,58h2.6v-0.3
					c0-0.8-0.5-1.4-1.2-1.4H40c-0.7,0-1.2,0.6-1.2,1.4V58z"/>
			</g>
		</g>
		<g>
			<g>
				<ellipse style="fill:#FFFFFF;" cx="45.3" cy="57.3" rx="1" ry="1.1"/>
			</g>
			<g>
				<path style="fill:#646464;" d="M45.3,58.6c-0.6,0-1.1-0.6-1.1-1.2c0-0.7,0.5-1.2,1.1-1.2c0.6,0,1.1,0.6,1.1,1.2
					C46.4,58,45.9,58.6,45.3,58.6z M45.3,56.3c-0.5,0-0.9,0.5-0.9,1c0,0.6,0.4,1,0.9,1s0.9-0.5,0.9-1C46.2,56.8,45.8,56.3,45.3,56.3
					z"/>
			</g>
		</g>
		<g>
			<g>
				<ellipse style="fill:#FFFFFF;" cx="66.3" cy="57.3" rx="1" ry="1.1"/>
			</g>
			<g>
				<path style="fill:#646464;" d="M66.3,58.6c-0.6,0-1.1-0.6-1.1-1.2c0-0.7,0.5-1.2,1.1-1.2s1.1,0.6,1.1,1.2
					C67.4,58,66.9,58.6,66.3,58.6z M66.3,56.3c-0.5,0-0.9,0.5-0.9,1c0,0.6,0.4,1,0.9,1s0.9-0.5,0.9-1C67.2,56.8,66.8,56.3,66.3,56.3
					z"/>
			</g>
		</g>
		<g>
			<g>
				<path style="fill:#FFFFFF;" d="M28.2,74.9h-1.7c-0.3,0-0.6-0.3-0.6-0.6v-1.4c0-0.3,0.3-0.6,0.6-0.6h1.7c0.3,0,0.6,0.3,0.6,0.6
					v1.4C28.7,74.6,28.5,74.9,28.2,74.9z"/>
			</g>
			<g>
				<path style="fill:#646464;" d="M28.2,75h-1.8c-0.4,0-0.6-0.3-0.6-0.7v-1.4c0-0.4,0.3-0.7,0.6-0.7h1.8c0.4,0,0.6,0.3,0.6,0.7v1.4
					C28.8,74.6,28.5,75,28.2,75z M26.4,72.3c-0.3,0-0.5,0.2-0.5,0.5v1.4c0,0.3,0.2,0.5,0.5,0.5h1.8c0.3,0,0.5-0.2,0.5-0.5v-1.4
					c0-0.3-0.2-0.5-0.5-0.5H26.4z"/>
			</g>
		</g>
		<g>
			<path style="fill:#969696;" d="M29.3,75.8v-3.2c0-1.3,0.9-2.3,2-2.3h2c1.7,0,3.1,1.6,3.1,3.5v1.9H29.3z"/>
		</g>
		<g>
			<path style="fill:#969696;" d="M55.6,75.7l0.2-3.1c0-1.2,0.9-2.2,1.9-2.2h3.1c1,0,1.7,0.9,1.7,2l0.3,3.3H55.6z"/>
		</g>
		<g>
			<g>
				<path style="fill:#646464;" d="M29.2,75.2h-1c0,0,0.4,0.5,1,0.6V75.2z"/>
			</g>
			<g>
				<path style="fill:#646464;" d="M36.6,75.9c5.4,0,13,0,18.8,0l0-0.7H36.6V75.9z"/>
			</g>
			<g>
				<path style="fill:#646464;" d="M33.5,75.9c0.2,0,0.4,0,0.6,0H33.5z"/>
			</g>
		</g>
		<g>
			<polygon style="fill:#646464;" points="63,75.2 63.1,75.9 64.5,75.9 65,75.2 			"/>
		</g>
		<g>
			<ellipse style="fill:#FFFFFF;" cx="32.8" cy="75.3" rx="2.1" ry="2.3"/>
		</g>
		<g>
			<g>
				<ellipse style="fill:#FFFFFF;" cx="59.2" cy="75.2" rx="2.1" ry="2.4"/>
			</g>
			<g>
				<path d="M59.2,71.3c-1.7,0-3,1.7-3,3.9s1.4,3.9,3,3.9c1.7,0,3-1.7,3-3.9S60.9,71.3,59.2,71.3z M59.2,77.2
					c-0.9,0-1.7-0.9-1.7-2.1c0-1.2,0.7-2.1,1.7-2.1c0.9,0,1.7,0.9,1.7,2.1C60.9,76.3,60.2,77.2,59.2,77.2z"/>
			</g>
		</g>
		<g>
			<g>
				<path d="M32.7,71.3c-1.7,0-3,1.7-3,3.9c0,2.1,1.4,3.9,3,3.9c1.7,0,3-1.7,3-3.9C35.7,73,34.4,71.3,32.7,71.3z M32.7,77.2
					c-0.9,0-1.7-0.9-1.7-2.1c0-1.2,0.7-2.1,1.7-2.1c0.9,0,1.7,0.9,1.7,2.1C34.4,76.3,33.6,77.2,32.7,77.2z"/>
			</g>
		</g>
		<g>
			<polygon style="fill:#333333;" points="54.8,57.5 55.6,57.5 55.6,69.3 54.7,69.3 			"/>
		</g>
		<g>
			<g>
				<path style="fill:#FFFFFF;" d="M54.7,65.6c0,0-0.4,0.1-0.2,0.5c0.1,0.4,1.4,1,1.5,0.8c0.1-0.2-0.5-0.4-0.8-0.8
					C54.9,65.8,54.7,65.6,54.7,65.6z"/>
			</g>
			<g>
				<path style="fill:#FFFFFF;" d="M54.8,64c0-0.1,0-0.2,0-0.3h0v-0.4l-0.1,0c-0.3,0-0.5,0.4-0.4,1c0.2,0.5,1.3,0.4,1.3,0.4v0.7
					c0.3,0,0.3-0.3,0.4-0.7C56,64.2,55.2,64.4,54.8,64z"/>
			</g>
			<g>
				<g>
					<path style="fill:#FFFFFF;" d="M55.4,62.1c-0.8,0-0.7-0.3-0.7-0.3l0,0v-0.9c-0.1,0-0.7,0-0.7,0.9c0,0.9,0.4,1,0.4,1h1.2v0.5
						v0.1v0.4l0.2,0C56.4,63.3,56.3,62,55.4,62.1z"/>
				</g>
				<g>
					<path style="fill:#FFFFFF;" d="M55.6,60.4v0.4v0.1v0.9l0.2,0c0.5-0.4,0.9-1.6,0-2.3c-0.9-0.6-1.4,0.4-1.4,0.4
						C54.4,60.6,55.6,60.4,55.6,60.4z"/>
				</g>
			</g>
		</g>
		<g>
			<rect x="62.9" y="74.9" style="fill:#7E7E7E;" width="5.4" height="0.3"/>
		</g>
		<g>
			<path style="fill:#646464;" d="M55.8,75.5l0.2-2.9c0-1.1,0.8-2,1.7-2h3.1c0.9,0,1.6,0.8,1.6,1.8v0l0,0l0.3,2.8l0.1,0.6h0.4
				l-0.4-3.5c0-1.2-0.9-2.2-1.9-2.2h-3.1c-1.2,0-2.1,1.1-2.1,2.4l-0.2,3.3h0.4L55.8,75.5z"/>
		</g>
		<g>
			<path style="fill:#646464;" d="M33.3,70.2h-2c-1.2,0-2.1,1.1-2.1,2.4v3.3h0.2v-0.2v-3.1c0-1.2,0.9-2.2,1.9-2.2h2
				c1.7,0,3.1,1.5,3.1,3.4v1.8v0.2h0.2v-2C36.6,71.9,35.1,70.2,33.3,70.2z"/>
		</g>
		<g>
			<g>
				<path style="fill:#FFFFFF;" d="M68.7,74.9h-1.8c-0.3,0-0.6-0.3-0.6-0.6v-1.4c0-0.3,0.3-0.6,0.6-0.6h1.8c0.3,0,0.6,0.3,0.6,0.6
					v1.4C69.3,74.6,69,74.9,68.7,74.9z"/>
			</g>
			<g>
				<path style="fill:#646464;" d="M68.7,75h-1.9c-0.4,0-0.7-0.3-0.7-0.7v-1.3c0-0.4,0.3-0.7,0.7-0.7h1.9c0.4,0,0.7,0.3,0.7,0.7v1.3
					C69.4,74.6,69.1,75,68.7,75z M66.8,72.3c-0.3,0-0.5,0.2-0.5,0.5v1.3c0,0.3,0.2,0.5,0.5,0.5h1.9c0.3,0,0.5-0.2,0.5-0.5v-1.3
					c0-0.3-0.2-0.5-0.5-0.5H66.8z"/>
			</g>
		</g>
	</g>
</g>
</svg>
