<?xml version="1.0" encoding="utf-8"?>
<!-- Generator: Adobe Illustrator 25.2.0, SVG Export Plug-In . SVG Version: 6.00 Build 0)  -->
<svg version="1.1" id="Layer_1" xmlns="http://www.w3.org/2000/svg" xmlns:xlink="http://www.w3.org/1999/xlink" x="0px" y="0px"
	 viewBox="0 0 100 100" style="enable-background:new 0 0 100 100;" xml:space="preserve">
<g>
	<polygon points="62.5,24.2 50,9.9 36.5,24.2 42.3,24.2 42.3,31 56.6,31 56.6,24.2 	"/>
	<polygon points="36.5,75.8 49,90.1 62.5,75.8 56.6,75.8 56.6,69 42.3,69 42.3,75.8 	"/>
	<path d="M64.8,42.5l0,0.3l0.5,0l-0.1,6.3c0,0,0.1,0.6,0.7,0.6l-2.2,2l0.1-10.7c0,0-0.2-0.8-1.1-0.8c-0.9,0-1.4,0-1.4,0
		s-0.5-0.3-0.1-0.5c0.4-0.2,0.9-0.3,0.9-1c0-0.8-0.1-1.1-0.1-1.1s0-0.6-0.7-0.6s-1.5,0-1.5,0s-0.5,2.2-0.1,2.5
		c0.5,0.3,0.4,0.5,0.4,0.5h-5.4c0,0-0.2-0.3,0.3-0.5c0.5-0.2,1.5,0.1,1.9-0.9c0.4-1,0.8,0,1-0.6c0.1-0.6,0-3.2,0-3.2h-1.9
		c0,0-0.3,0.9-0.4,1.1H45.1c0,0,0.1-0.9-0.6-0.9c-0.8,0-1.8,0-1.8,0l-0.1,3c0,0,0.7,1.3,1.1,1.3c0.5,0,0.7-0.3,0.8-0.8
		c0-0.5,0.4-1,0.7-1c0.3,0,0.3,0,0.3,0v2.7h-5.2v-0.7c0,0,0.6-0.5,0.6-1.3c-0.1-0.7,0.3-1.2-0.5-1.2c-0.7,0-1.9-0.3-2.2,1.2
		c-0.2,1.5,0.8,1.6,0.8,1.6l0,0.3l-1.7,0c0,0-1.7,0.5-1.5,1.8L32.5,42v7.6l2.6,2.3v-0.7l-1.3-1.2c0,0,0.6-0.5,0.7-1.3
		c0.1-0.8,0.3-6.1,0.3-6.1l0.3-0.2h1.2l-0.6,19.2c0,0-1.4,0.6-1.3,1.3c0.1,0.7,1.8,2,2.3,2v3c0,0,0.3,0.7,1.2,0.7c1,0,3.4,0,3.4,0
		v-2.3c0,0,1-0.3,2.1-1.6h11.7c0,0,1,1.7,1.6,1.9v1.8c0,0,0.2,0.6,1.1,0.6c0.9,0,3.4,0,3.4,0s0.4-0.1,0.5-0.9c0-0.8,0-2.8,0-2.8
		s1.1-0.1,1.6-1.1c0,0,1-0.2,1-0.8s-0.1-1.1-1-1.6l0.1-9.1l3.7-2.7c0,0,0.3-0.1,0.3-0.4s0-7.2,0-7.2H64.8z M55,37.5h0.7l-0.1,0.6H56
		v1h-1V37.5z M50.5,42.8c0-0.4,0.3-0.7,0.7-0.7h11.2c0.4,0,0.7,0.3,0.7,0.7v6.4c0,0.4-0.3,0.7-0.7,0.7H51.2c-0.4,0-0.7-0.3-0.7-0.7
		V42.8z M62.7,59.4V61c0,0.4-0.4,0.8-0.8,0.8h-3c-0.4,0-0.8-0.4-0.8-0.8v-1.6c0-0.4,0.4-0.8,0.8-0.8h3
		C62.4,58.6,62.7,58.9,62.7,59.4z M56.9,59.6H42.1c-0.2,0-0.4-0.2-0.4-0.4V59c0-0.2,0.2-0.4,0.4-0.4h14.7c0.2,0,0.4,0.2,0.4,0.4v0.2
		C57.2,59.4,57.1,59.6,56.9,59.6z M57.2,60.9v0.2c0,0.2-0.2,0.4-0.4,0.4H42.1c-0.2,0-0.4-0.2-0.4-0.4v-0.2c0-0.2,0.2-0.4,0.4-0.4
		h14.7C57.1,60.6,57.2,60.7,57.2,60.9z M37,42.8c0-0.4,0.3-0.7,0.7-0.7h10.9c0.4,0,0.7,0.3,0.7,0.7v6.4c0,0.4-0.3,0.7-0.7,0.7H37.7
		c-0.4,0-0.7-0.3-0.7-0.7V42.8z M36.3,59.4c0-0.4,0.4-0.8,0.8-0.8h3c0.4,0,0.8,0.4,0.8,0.8V61c0,0.4-0.4,0.8-0.8,0.8h-3
		c-0.4,0-0.8-0.4-0.8-0.8V59.4z M63.6,63c0,0.2-0.2,0.4-0.4,0.4h-4.7c-0.2,0.1,0,0.9,0,0.9l0,0c0,0.1,0,0.2,0,0.3
		c0,0.6-0.6,1.1-1.3,1.1c-0.7,0-1.3-0.5-1.3-1.1c0-0.2,0.1-0.4,0.1-0.5l0,0c0.2-0.2,0.1-0.7,0.1-0.7H43.4c-0.2,0.1-0.4,0.3-0.5,0.5
		c-0.1,0.3-0.2,1.1-0.9,1.5c-0.2,0.1-0.4,0.2-0.7,0.2c-0.3,0-0.5,0-0.6-0.2c-0.3-0.2-0.5-0.5-0.5-0.8c0-0.3,0.2-0.6,0.4-0.8l0,0
		c0,0,0.7-0.3,0.1-0.5h-5c-0.2,0-0.4-0.2-0.4-0.4c0-0.2,0.2-0.4,0.4-0.4h27.4C63.4,62.6,63.6,62.8,63.6,63z"/>
</g>
</svg>
