<?xml version="1.0" encoding="utf-8"?>
<!-- Generator: Adobe Illustrator 25.2.0, SVG Export Plug-In . SVG Version: 6.00 Build 0)  -->
<svg version="1.1" id="Layer_1" xmlns="http://www.w3.org/2000/svg" xmlns:xlink="http://www.w3.org/1999/xlink" x="0px" y="0px"
	 viewBox="0 0 100 100" style="enable-background:new 0 0 100 100;" xml:space="preserve">
<g>
	<polygon points="62.8,24.2 50.2,9.9 36.7,24.2 42.6,24.2 42.6,31 56.9,31 56.9,24.2 	"/>
	<polygon points="36.7,75.8 49.3,90.1 62.8,75.8 56.9,75.8 56.9,69 42.6,69 42.6,75.8 	"/>
	<polygon points="78.3,62.3 89.5,50.9 78.3,38.6 78.3,44 72.9,44 72.9,57 78.3,57 	"/>
	<polygon points="21.2,39.1 10.5,50 21.2,61.8 21.2,56.7 26.5,56.7 26.5,44.2 21.2,44.2 	"/>
	<path d="M68.8,46.4l-4.1-12.7h-28l-4,12.7v14.3h2.6v5.2c0,1.3,1.1,2.4,2.4,2.4h2.4c1.3,0,2.4-1.1,2.4-2.4v-5.2h16.3v5.2
		c0,1.3,1.1,2.4,2.4,2.4h2.4c1.3,0,2.4-1.1,2.4-2.4v-5.2h2.9V46.4z M38.6,35.8h24.1l3.7,10.2H35.1L38.6,35.8z M38.6,58.2
		c-2.2,0-4-1.8-4-4c0-2.2,1.8-4,4-4s4,1.8,4,4C42.6,56.4,40.8,58.2,38.6,58.2z M62.8,58.2c-2.2,0-4-1.8-4-4c0-2.2,1.8-4,4-4
		c2.2,0,4,1.8,4,4C66.7,56.4,64.9,58.2,62.8,58.2z"/>
</g>
</svg>
