<?xml version="1.0" encoding="utf-8"?>
<!-- Generator: Adobe Illustrator 25.2.0, SVG Export Plug-In . SVG Version: 6.00 Build 0)  -->
<svg version="1.1" id="Layer_1" xmlns="http://www.w3.org/2000/svg" xmlns:xlink="http://www.w3.org/1999/xlink" x="0px" y="0px"
	 viewBox="0 0 100 100" style="enable-background:new 0 0 100 100;" xml:space="preserve">
<g>
	<path d="M53.8,28.6c0,0-2.3-0.3-6.4,0c-4.1,0.3-4.3,4.5-4.3,4.5v6.9c-1.1-0.4-2.8-0.9-3.5-0.9c-1,0-0.7,0.9-0.7,0.9l6.6,7.1
		l6.6-7.1c0,0,0.3-0.9-0.7-0.9c-0.7,0-2.3,0.5-3.4,0.8v-6.9c0,0-0.1-1.3,3-1.4c3.1,0,3.2,1.9,3.2,1.9v14.1h4.4V33.7
		C58.7,30,53.8,28.6,53.8,28.6z"/>
	<path style="fill:#E7443A;" d="M49.5,22.9c-8.9,0-16.2,6.7-16.2,14.9s7.3,14.9,16.2,14.9S65.6,46,65.6,37.8S58.4,22.9,49.5,22.9z
		 M34.9,37.8c0-3.6,1.6-6.9,4.1-9.3l20,19.4c-2.6,2-5.9,3.3-9.5,3.3C41.4,51.1,34.9,45.1,34.9,37.8z M60.1,46.8l-20-19.4
		c2.5-1.9,5.8-3.1,9.3-3.1c8,0,14.5,6,14.5,13.4C64,41.2,62.5,44.4,60.1,46.8z"/>
	<g>
		<rect x="48.8" y="56.6" style="fill:#FF0000;" width="25.8" height="16.6"/>
		<path style="fill:#9F9F9F;" d="M66.5,72.9c0-0.9-0.2-4.7-2.7-4.7c-2.8,0-4.2,1.1-4.9,1.8c-0.5,0.5-0.5,2.1-0.5,2.9h-17
			c0.1-0.8,0.3-2.5-0.3-3c-0.8-0.7-3-2.6-4.7-1.6s-2.7,4.3-2.7,4.4c0,0,0,0.1,0,0.2h-4.1v1h42v-1h-4.3H66.5z"/>
		<path style="fill:#FFFFFF;" d="M41.3,73.2c0-0.2,0-0.3,0-0.5c0-2.2-1.7-3.9-3.8-3.9c-2.1,0-3.8,1.7-3.8,3.9l0,0.5h-4.2
			c-0.4-0.1-1.7-0.5-2-0.7l-0.3-0.2c0,0-0.1,0-0.1,0h-1.3c-0.1-0.1-0.2-0.3-0.2-0.5v-1.1c0,0,0.1-0.5,0.9-0.5c0.1,0,0.2-0.1,0.2-0.2
			l0.1-0.4l0.9-0.5c0.1,0,0.1-0.1,0.1-0.2l-0.4-4c0,0,0-0.1-0.1-0.1l-0.7-0.6v-2.1c0.3-1.3,1.3-4.7,2.1-5.4c0,0,14.3,0,14.3,0
			c0.1,0,0.4,0.2,0.4,1.2v15.2H41.3z"/>
		<path d="M43.1,57c0,0,0.2,0.2,0.2,1v15h-1.8c0-0.1,0-0.2,0-0.3c0-2.3-1.8-4.1-4-4.1c-2.2,0-4,1.8-4,4.1c0,0.1,0,0.2,0,0.3h-3.9
			c-0.6-0.2-1.7-0.5-2-0.7l-0.3-0.2c-0.1,0-0.1,0-0.2,0h-1.2c-0.1-0.1-0.1-0.2-0.1-0.3v-1c0-0.1,0.2-0.3,0.7-0.3
			c0.2,0,0.4-0.1,0.4-0.3l0.1-0.3l0.8-0.4c0.1-0.1,0.2-0.2,0.2-0.4l-0.4-4c0-0.1-0.1-0.2-0.1-0.3l-0.7-0.6v-2c0.5-1.9,1.3-4.6,2-5.2
			L43.1,57 M43.1,56.6C43.1,56.6,43.1,56.6,43.1,56.6l-14.4,0c-1,0.7-2.2,5.6-2.2,5.6v2.2l0.7,0.6l0.4,4l-1,0.5l-0.1,0.5
			c-0.9,0-1.1,0.7-1.1,0.7s0,0.6,0,1.1c0,0.4,0.3,0.7,0.3,0.7h1.4l0.3,0.2c0.4,0.3,2.1,0.7,2.1,0.7h4.4c0-0.2,0-0.5,0-0.7
			c0-2,1.6-3.7,3.6-3.7c2,0,3.6,1.7,3.6,3.7c0,0.2,0,0.5,0,0.7h0.2h2.4c0,0,0-13.9,0-15.4C43.7,56.7,43.2,56.6,43.1,56.6L43.1,56.6z
			"/>
		<g>
			<ellipse style="fill:#FFFFFF;" cx="62.7" cy="73.6" rx="2.1" ry="2.2"/>
			<g>
				<path d="M62.6,69.7c-1.7,0-3.1,1.7-3.1,3.7s1.4,3.7,3.1,3.7c1.7,0,3.1-1.7,3.1-3.7S64.3,69.7,62.6,69.7z M62.6,75.4
					c-0.9,0-1.7-0.9-1.7-2c0-1.1,0.8-2,1.7-2c0.9,0,1.7,0.9,1.7,2C64.3,74.5,63.5,75.4,62.6,75.4z"/>
			</g>
		</g>
		<g>
			<ellipse style="fill:#FFFFFF;" cx="37.8" cy="73.4" rx="2.1" ry="2.4"/>
			<g>
				<path d="M37.7,69.4c-1.7,0-3.1,1.7-3.1,3.9c0,2.1,1.4,3.9,3.1,3.9c1.7,0,3.1-1.7,3.1-3.9C40.8,71.1,39.4,69.4,37.7,69.4z
					 M37.7,75.4c-0.9,0-1.7-0.9-1.7-2.1c0-1.2,0.8-2.1,1.7-2.1c0.9,0,1.7,0.9,1.7,2.1C39.4,74.4,38.6,75.4,37.7,75.4z"/>
			</g>
		</g>
		<path style="fill:#777777;" d="M30.7,54.7c0.4,0,0.7,0.3,0.7,0.7v0.5h-1.7v-0.5c0-0.4,0.3-0.7,0.7-0.7H30.7 M30.7,54.3h-0.2
			c-0.6,0-1.2,0.5-1.2,1.1v0.9h2.5v-0.9C31.8,54.8,31.3,54.3,30.7,54.3L30.7,54.3z"/>
		<path style="fill:#777777;" d="M73,54.7c0.4,0,0.7,0.3,0.7,0.7v0.5h-1.7v-0.5c0-0.4,0.3-0.7,0.7-0.7H73 M73,54.3h-0.2
			c-0.6,0-1.2,0.5-1.2,1.1v0.9h2.5v-0.9C74.2,54.8,73.7,54.3,73,54.3L73,54.3z"/>
		<g>
			<rect x="49.9" y="58" style="fill:#ECECEC;" width="7.4" height="14.2"/>
			<path style="fill:#811D1D;" d="M57.2,58.1v14H50v-14H57.2 M57.4,57.9h-7.6v14.4h7.6V57.9L57.4,57.9z"/>
		</g>
		<g>
			<rect x="57.9" y="58" style="fill:#ECECEC;" width="9.2" height="8.2"/>
			<path style="fill:#811D1D;" d="M67.1,58.1v8h-9v-8H67.1 M67.3,57.9h-9.5v8.4h9.5V57.9L67.3,57.9z"/>
		</g>
		<g>
			<rect x="67.9" y="57.9" style="fill:#ECECEC;" width="6" height="14.6"/>
			<path style="fill:#811D1D;" d="M73.7,58v14.4H68V58H73.7 M74,57.8h-6.2v14.8H74V57.8L74,57.8z"/>
		</g>
		<g>
			<rect x="44" y="58.4" style="fill:#FFFFFF;" width="4.9" height="4.5"/>
			<path d="M48.7,58.7v4h-4.4v-4H48.7 M49.2,58.2h-5.4v5h5.4V58.2L49.2,58.2z"/>
		</g>
		<g>
			<rect x="44" y="63.1" style="fill:#FFFFFF;" width="4.9" height="8"/>
			<path d="M48.7,63.3v7.5h-4.4v-7.5H48.7 M49.2,62.8h-5.4v8.5h5.4V62.8L49.2,62.8z"/>
		</g>
		<g>
			<rect x="44" y="71.3" style="fill:#FFFFFF;" width="4.9" height="1.9"/>
			<path d="M48.7,71.5v1.4h-4.4v-1.4H48.7 M49.2,71h-5.4v2.4h5.4V71L49.2,71z"/>
		</g>
		<g>
			<path style="fill:#FFFFFF;" d="M45.2,65.9c-0.3,0-0.6-0.3-0.6-0.8c0-0.4,0.2-0.8,0.6-0.8c0.3,0,0.6,0.3,0.6,0.8
				C45.8,65.5,45.6,65.9,45.2,65.9z"/>
			<path d="M45.2,64.4c0.2,0,0.4,0.3,0.4,0.7c0,0.4-0.2,0.7-0.4,0.7s-0.4-0.3-0.4-0.7C44.8,64.7,45,64.4,45.2,64.4 M45.2,64.2
				c-0.4,0-0.7,0.4-0.7,0.9c0,0.5,0.3,0.9,0.7,0.9c0.4,0,0.7-0.4,0.7-0.9C45.9,64.6,45.6,64.2,45.2,64.2L45.2,64.2z"/>
		</g>
		<g>
			<path style="fill:#FFFFFF;" d="M47.4,65.9c-0.3,0-0.6-0.3-0.6-0.8c0-0.4,0.2-0.8,0.6-0.8c0.3,0,0.6,0.4,0.6,0.8
				C48,65.5,47.7,65.9,47.4,65.9z"/>
			<path d="M47.4,64.4c0.2,0,0.4,0.3,0.4,0.7c0,0.4-0.2,0.7-0.4,0.7c-0.2,0-0.4-0.3-0.4-0.7C47,64.7,47.2,64.4,47.4,64.4 M47.4,64.2
				c-0.4,0-0.7,0.4-0.7,0.9c0,0.5,0.3,0.9,0.7,0.9c0.4,0,0.7-0.4,0.7-0.9C48.1,64.6,47.8,64.2,47.4,64.2L47.4,64.2z"/>
		</g>
		<g>
			<path style="fill:#FFFFFF;" d="M46.3,69.8c-0.5,0-0.8-0.5-0.8-1.1c0-0.6,0.4-1.1,0.8-1.1s0.8,0.5,0.8,1.1
				C47.1,69.2,46.7,69.8,46.3,69.8z"/>
			<path d="M46.3,67.6c0.4,0,0.7,0.5,0.7,1s-0.3,1-0.7,1s-0.7-0.5-0.7-1S45.9,67.6,46.3,67.6 M46.3,67.4c-0.5,0-0.9,0.5-0.9,1.2
				c0,0.7,0.4,1.2,0.9,1.2c0.5,0,0.9-0.5,0.9-1.2C47.2,68,46.8,67.4,46.3,67.4L46.3,67.4z"/>
		</g>
		<path style="fill:#A1A1A1;" d="M47.4,60.6c0.4-0.1,0.7-0.4,0.7-1c0-0.5-0.4-1-0.8-1c-0.4,0-0.7,0.3-0.8,0.7H46
			c-0.1-0.4-0.4-0.7-0.8-0.7c-0.5,0-0.8,0.4-0.8,1c0,0.5,0.3,0.9,0.7,1c-0.4,0.1-0.7,0.4-0.7,1c0,0.5,0.4,1,0.8,1
			c0.4,0,0.6-0.3,0.8-0.6h0.5c0.1,0.4,0.4,0.6,0.8,0.6c0.5,0,0.8-0.4,0.8-1C48.1,61,47.8,60.6,47.4,60.6z M46.5,61.3H46
			c-0.1-0.4-0.3-0.7-0.7-0.7c0.3,0,0.6-0.3,0.7-0.6h0.5c0.1,0.3,0.4,0.6,0.7,0.6C46.8,60.6,46.6,60.9,46.5,61.3z M47.3,59.1
			c0.2,0,0.4,0.2,0.4,0.6c0,0.3-0.2,0.6-0.4,0.6c-0.2,0-0.4-0.2-0.4-0.6C46.9,59.3,47.1,59.1,47.3,59.1z M44.9,59.6
			c0-0.3,0.2-0.6,0.4-0.6c0.2,0,0.4,0.2,0.4,0.6c0,0.3-0.2,0.6-0.4,0.6C45.1,60.2,44.9,60,44.9,59.6z M45.3,62.1
			c-0.2,0-0.4-0.2-0.4-0.6s0.2-0.6,0.4-0.6c0.2,0,0.4,0.2,0.4,0.6S45.4,62.1,45.3,62.1z M47.3,62.1c-0.2,0-0.4-0.2-0.4-0.6
			s0.2-0.6,0.4-0.6c0.2,0,0.4,0.2,0.4,0.6S47.4,62.1,47.3,62.1z"/>
		<path style="fill:#FF0000;" d="M26.5,64.4v1.9h0.6v2.8h-0.6v0.8h8.1c0.6-1,1.7-1.7,3-1.7c1.3,0,2.4,0.7,3,1.7h2.8v-5.5H26.5z"/>
		<g>
			<path style="fill:#A1A1A1;" d="M40.4,69.7c0.1,0.1,0.2,0.3,0.3,0.4h2.6v-0.4H40.4z"/>
			<polygon style="fill:#A1A1A1;" points="34.8,69.7 26.8,69.7 26.8,70 34.4,70 			"/>
		</g>
		<path d="M41.3,71.5c0,0-0.7-3.1-3.7-3.2c-2.6-0.1-3.8,2.7-3.8,2.7s1.9-2.2,3.4-2.1C40.1,68.9,41.3,71.5,41.3,71.5z"/>
		<polygon points="41.5,73 58.5,73 58.8,73 58.8,73.6 41.1,73.6 		"/>
		<g>
			<path d="M28.1,63.8h-1.4c-0.1,0-0.2-0.1-0.2-0.2v-1.5c0,0,0,0,0-0.1l1.4-4.3c0-0.1,0.1-0.1,0.2-0.1h2c0.1,0,0.1,0,0.2,0.1
				c0,0,0.1,0.1,0,0.2c0,0.2-1,4.8-2.1,5.8C28.2,63.8,28.1,63.8,28.1,63.8z M26.9,63.4H28c0.7-0.8,1.5-3.9,1.9-5.3h-1.6l-1.3,4.1
				V63.4z"/>
		</g>
		<g>
			<path d="M34,62.9h-4.4c-0.1,0-0.1,0-0.2-0.1c0,0-0.1-0.1,0-0.2l1-4.8c0-0.1,0.1-0.2,0.2-0.2h3.9c0.1,0,0.2,0.1,0.2,0.2v4.4
				c0,0.1,0,0.1-0.1,0.1l-0.5,0.4C34.1,62.9,34,62.9,34,62.9z M29.9,62.5h4.1l0.3-0.3v-4.1h-3.5L29.9,62.5z"/>
		</g>
		<g>
			<path d="M37.3,63.1h-1.6c-0.3,0-0.6-0.2-0.6-0.6v-4.3c0-0.3,0.3-0.6,0.6-0.6h1.6c0.3,0,0.6,0.2,0.6,0.6v4.3
				C37.9,62.8,37.6,63.1,37.3,63.1z M35.7,58c-0.1,0-0.2,0.1-0.2,0.2v4.3c0,0.1,0.1,0.2,0.2,0.2h1.6c0.1,0,0.2-0.1,0.2-0.2v-4.3
				c0-0.1-0.1-0.2-0.2-0.2H35.7z"/>
		</g>
		<g>
			<path d="M42.2,63H39c-0.4,0-0.7-0.3-0.7-0.7v-4.1c0-0.4,0.3-0.7,0.7-0.7h3.2c0.4,0,0.7,0.3,0.7,0.7v4.1
				C42.9,62.7,42.6,63,42.2,63z M39,58c-0.2,0-0.3,0.1-0.3,0.3v4.1c0,0.2,0.1,0.3,0.3,0.3h3.2c0.2,0,0.3-0.1,0.3-0.3v-4.1
				c0-0.2-0.1-0.3-0.3-0.3H39z"/>
		</g>
		<g>
			<rect x="26.8" y="64" style="fill:#A1A1A1;" width="16.5" height="0.4"/>
		</g>
		<g>
			<path style="fill:#774400;" d="M34.2,65.6C34,65.4,34,65,34,64.8c0,0,0-0.1-0.1-0.1c0,0-0.1,0-0.1,0l-0.6,0.6c0,0,0,0,0,0
				l0.6-0.6c0,0,0,0,0.1,0c0,0,0,0,0,0.1C33.9,65,34,65.4,34.2,65.6c0.3,0.5,0.4,0.7,0.4,1c0,0.2,0,0.5-0.4,0.9
				c-0.2,0.3-0.3,0.6-0.3,0.9c0,0,0,0,0,0.1c0,0,0,0-0.1,0l-0.6-0.6c0,0,0,0,0,0l0.6,0.6c0,0,0,0,0.1,0c0,0,0,0,0,0
				c0,0,0.1,0,0.1-0.1c0-0.2,0.1-0.6,0.3-0.8c0.4-0.4,0.4-0.7,0.4-1C34.6,66.3,34.6,66.1,34.2,65.6z"/>
			<path style="fill:#774400;" d="M34.1,65.7c-0.2-0.3-0.3-0.6-0.3-0.8c0,0,0,0,0,0c0,0,0,0,0,0l-0.5,0.6c0,0,0,0,0,0l0.5-0.6
				C33.8,65.2,33.9,65.5,34.1,65.7c0.3,0.4,0.3,0.7,0.3,0.9c0,0.2,0,0.4-0.4,0.8c-0.2,0.3-0.3,0.6-0.3,0.8l-0.5-0.5c0,0,0,0,0,0
				l0.5,0.6c0,0,0,0,0,0c0,0,0,0,0,0c0,0,0,0,0,0c0-0.2,0.1-0.5,0.3-0.8c0.3-0.4,0.4-0.7,0.4-0.9C34.5,66.4,34.5,66.1,34.1,65.7z"/>
			<path style="fill:#774400;" d="M34.1,65.8c-0.1-0.2-0.2-0.4-0.3-0.6l0,0l-0.4,0.4c0,0,0,0,0,0l0.4-0.4
				C33.8,65.4,33.9,65.6,34.1,65.8c0.3,0.4,0.3,0.6,0.3,0.8c0,0.2,0,0.4-0.3,0.8c-0.1,0.2-0.2,0.4-0.3,0.6l-0.4-0.4c0,0,0,0,0,0
				l0.4,0.4l0,0c0.1-0.2,0.1-0.5,0.3-0.6c0.3-0.4,0.3-0.6,0.3-0.8C34.4,66.4,34.4,66.2,34.1,65.8z"/>
			<path style="fill:#774400;" d="M32.7,68.3l0.4,0.4c-0.2,0.1-0.4,0.2-0.5,0.3c-0.3,0.3-0.5,0.4-0.7,0.4c-0.2,0-0.4,0-0.7-0.4
				c-0.2-0.2-0.3-0.3-0.5-0.3l0.3-0.4c0,0,0,0,0,0l-0.4,0.4l0,0c0.2,0.1,0.4,0.2,0.6,0.3c0.3,0.3,0.5,0.4,0.7,0.4
				c0.2,0,0.4,0,0.7-0.4c0.2-0.2,0.3-0.3,0.6-0.3l0,0L32.7,68.3C32.8,68.3,32.7,68.3,32.7,68.3z"/>
			<path style="fill:#774400;" d="M32.9,68.2C32.9,68.2,32.8,68.2,32.9,68.2l0.5,0.6c-0.2,0-0.5,0.1-0.7,0.3
				c-0.4,0.4-0.6,0.4-0.8,0.4c-0.2,0-0.4,0-0.8-0.4c-0.2-0.2-0.5-0.3-0.7-0.3l0.5-0.5c0,0,0,0,0,0l-0.5,0.6c0,0,0,0,0,0c0,0,0,0,0,0
				c0.2,0,0.5,0.1,0.7,0.3c0.4,0.4,0.6,0.4,0.8,0.4c0.2,0,0.4,0,0.8-0.4c0.2-0.2,0.5-0.3,0.7-0.3c0,0,0,0,0,0c0,0,0,0,0,0L32.9,68.2
				z"/>
			<path style="fill:#774400;" d="M33,68.1C32.9,68.1,32.9,68.1,33,68.1l0.5,0.7c0,0,0,0,0,0.1c0,0,0,0,0,0c-0.2,0-0.5,0.1-0.8,0.3
				c-0.4,0.4-0.6,0.4-0.8,0.4c-0.2,0-0.5,0-0.8-0.4c-0.2-0.2-0.5-0.3-0.8-0.3c0,0,0,0,0,0c0,0,0,0,0-0.1l0.6-0.6c0,0,0,0,0,0
				l-0.6,0.6c0,0,0,0.1,0,0.1c0,0,0,0.1,0.1,0.1c0.2,0,0.5,0.1,0.7,0.3c0.4,0.4,0.7,0.4,0.9,0.4c0.2,0,0.5,0,0.9-0.4
				c0.2-0.2,0.5-0.3,0.7-0.3c0,0,0.1,0,0.1-0.1c0,0,0-0.1,0-0.1L33,68.1z"/>
			<path style="fill:#774400;" d="M30.3,67.6L30,67.9c-0.1-0.2-0.2-0.4-0.3-0.6c-0.3-0.4-0.3-0.6-0.3-0.8c0-0.2,0-0.4,0.3-0.8
				c0.1-0.2,0.2-0.4,0.3-0.6l0.4,0.4c0,0,0,0,0,0L30,65.1l0,0c-0.1,0.2-0.1,0.5-0.3,0.6c-0.3,0.4-0.3,0.6-0.3,0.8
				c0,0.2,0,0.4,0.3,0.8c0.1,0.2,0.2,0.4,0.3,0.6l0,0L30.3,67.6C30.3,67.6,30.3,67.6,30.3,67.6z"/>
			<path style="fill:#774400;" d="M30.4,67.7l-0.5,0.5c0-0.2-0.1-0.5-0.3-0.8c-0.3-0.4-0.4-0.6-0.4-0.8c0-0.2,0-0.4,0.4-0.8
				c0.2-0.3,0.3-0.6,0.3-0.8l0.5,0.5c0,0,0,0,0,0l-0.5-0.6c0,0,0,0,0,0c0,0,0,0,0,0c0,0.2-0.1,0.5-0.3,0.8c-0.3,0.4-0.4,0.7-0.4,0.9
				c0,0.2,0,0.5,0.4,0.9c0.2,0.3,0.3,0.6,0.3,0.8c0,0,0,0,0,0c0,0,0,0,0,0c0,0,0,0,0,0L30.4,67.7C30.4,67.7,30.4,67.7,30.4,67.7z"/>
			<path style="fill:#774400;" d="M30.4,67.8l-0.6,0.6c0,0,0,0-0.1,0c0,0,0,0,0-0.1c0-0.2-0.1-0.6-0.3-0.9c-0.4-0.4-0.4-0.7-0.4-0.9
				c0-0.2,0-0.5,0.4-0.9c0.2-0.3,0.3-0.6,0.3-0.9c0,0,0,0,0-0.1c0,0,0,0,0.1,0l0.6,0.6c0,0,0,0,0,0l-0.6-0.6c0,0-0.1,0-0.1,0
				c0,0-0.1,0-0.1,0.1c0,0.2-0.1,0.6-0.3,0.8c-0.4,0.4-0.4,0.7-0.4,1c0,0.2,0,0.5,0.4,1c0.2,0.3,0.3,0.6,0.3,0.8c0,0,0,0.1,0.1,0.1
				c0,0,0,0,0,0c0,0,0,0,0.1,0L30.4,67.8C30.5,67.8,30.5,67.8,30.4,67.8z"/>
			<path style="fill:#774400;" d="M30.8,65C30.8,65,30.8,65,30.8,65l-0.5-0.7c0,0,0,0,0-0.1c0,0,0,0,0,0c0.2,0,0.5-0.1,0.8-0.3
				c0.4-0.4,0.6-0.4,0.8-0.4c0.2,0,0.5,0,0.8,0.4c0.2,0.2,0.5,0.3,0.8,0.3c0,0,0,0,0,0c0,0,0,0,0,0.1L32.9,65c0,0,0,0,0,0l0.6-0.6
				c0,0,0-0.1,0-0.1c0,0,0-0.1-0.1-0.1c-0.2,0-0.5-0.1-0.7-0.3c-0.4-0.4-0.7-0.4-0.9-0.4c-0.2,0-0.5,0-0.9,0.4
				c-0.2,0.2-0.5,0.3-0.7,0.3c0,0-0.1,0-0.1,0.1c0,0,0,0.1,0,0.1L30.8,65z"/>
			<path style="fill:#774400;" d="M30.9,65C30.9,65,30.9,64.9,30.9,65l-0.4-0.6c0.2,0,0.5-0.1,0.7-0.3c0.4-0.4,0.6-0.4,0.8-0.4
				c0.2,0,0.4,0,0.8,0.4c0.2,0.2,0.5,0.3,0.7,0.3l-0.5,0.5c0,0,0,0,0,0l0.5-0.6c0,0,0,0,0,0c0,0,0,0,0,0c-0.2,0-0.5-0.1-0.7-0.3
				c-0.4-0.4-0.6-0.4-0.8-0.4c-0.2,0-0.4,0-0.8,0.4c-0.2,0.2-0.5,0.3-0.7,0.3c0,0,0,0,0,0c0,0,0,0,0,0L30.9,65z"/>
			<path style="fill:#774400;" d="M31,64.9l-0.4-0.4c0.2-0.1,0.4-0.2,0.5-0.3c0.3-0.3,0.5-0.4,0.7-0.4c0.2,0,0.4,0,0.7,0.4
				c0.2,0.2,0.3,0.3,0.5,0.3l-0.4,0.4c0,0,0,0,0,0l0.4-0.4l0,0c-0.2-0.1-0.4-0.2-0.6-0.3c-0.3-0.3-0.5-0.4-0.7-0.4
				c-0.2,0-0.4,0-0.7,0.4c-0.2,0.2-0.3,0.3-0.6,0.3l0,0L31,64.9C31,64.9,31,64.9,31,64.9z"/>
			<path style="fill:#774400;" d="M31.8,64.6c-1,0-1.8,0.9-1.8,2c0,1.1,0.8,2,1.8,2s1.8-0.9,1.8-2C33.6,65.5,32.8,64.6,31.8,64.6z
				 M31.8,68.6c-1,0-1.8-0.9-1.8-2c0-1.1,0.8-2,1.8-2c1,0,1.8,0.9,1.8,2C33.6,67.7,32.8,68.6,31.8,68.6z"/>
		</g>
		<g>
			<path style="fill:#ECECEC;" d="M67.3,67.1H58v6h0.5c0,0,1.2-3.6,2.6-4c0,0,3-1,4,0.6c0.9,1.7,1.4,3.4,1.4,3.4l0.8,0.2V67.1z"/>
		</g>
		<path d="M58.8,73.6c0,0,0.3-4.7,3.7-4.6c3.4,0,3.6,4.6,3.6,4.6h5.7l0.1-0.3l2.7,0L74.3,73h-7.8c0,0,0.1-4.8-3.8-4.8
			c-4.1,0-4.2,4.8-4.2,4.8L58.8,73.6z"/>
		<rect x="26.4" y="64.4" style="fill:#683232;" width="0.4" height="2"/>
		<rect x="26.4" y="69.1" style="fill:#683232;" width="0.4" height="0.9"/>
		<rect x="25.7" y="70.4" width="2.7" height="0.3"/>
		<rect x="25.7" y="72.1" width="2.7" height="0.4"/>
		<rect x="27.3" y="71.2" transform="matrix(6.123234e-17 -1 1 6.123234e-17 -43.0909 99.6526)" width="1.9" height="0.3"/>
		<g>
			<path style="fill:#FFFFFF;" d="M31.3,63.3h-0.4c-0.2,0-0.3-0.2-0.3-0.3v-3.3c0-0.2,0.2-0.3,0.3-0.3h0.4c0.2,0,0.3,0.2,0.3,0.3
				v3.3C31.6,63.1,31.5,63.3,31.3,63.3z"/>
			<path d="M31.3,63.4h-0.3c-0.3,0-0.5-0.2-0.5-0.4v-3.3c0-0.2,0.2-0.4,0.5-0.4h0.3c0.3,0,0.5,0.2,0.5,0.4V63
				C31.7,63.2,31.5,63.4,31.3,63.4z M30.9,59.4c-0.1,0-0.2,0.1-0.2,0.2V63c0,0.1,0.1,0.2,0.2,0.2h0.3c0.1,0,0.2-0.1,0.2-0.2v-3.3
				c0-0.1-0.1-0.2-0.2-0.2H30.9z"/>
		</g>
		<rect x="57.9" y="66.9" width="9.4" height="0.5"/>
	</g>
</g>
</svg>
