<?xml version="1.0" encoding="UTF-8" standalone="no"?>
<!-- Generator: Adobe Illustrator 25.2.0, SVG Export Plug-In . SVG Version: 6.00 Build 0)  -->

<svg
   xmlns:dc="http://purl.org/dc/elements/1.1/"
   xmlns:cc="http://creativecommons.org/ns#"
   xmlns:rdf="http://www.w3.org/1999/02/22-rdf-syntax-ns#"
   xmlns:svg="http://www.w3.org/2000/svg"
   xmlns="http://www.w3.org/2000/svg"
   xmlns:sodipodi="http://sodipodi.sourceforge.net/DTD/sodipodi-0.dtd"
   xmlns:inkscape="http://www.inkscape.org/namespaces/inkscape"
   version="1.1"
   id="Layer_1"
   x="0px"
   y="0px"
   viewBox="0 0 100 100"
   style="enable-background:new 0 0 100 100;"
   xml:space="preserve"
   inkscape:version="0.91 r13725"
   sodipodi:docname="icon-BABK.svg"><metadata
     id="metadata17"><rdf:RDF><cc:Work
         rdf:about=""><dc:format>image/svg+xml</dc:format><dc:type
           rdf:resource="http://purl.org/dc/dcmitype/StillImage" /></cc:Work></rdf:RDF></metadata><defs
     id="defs15" /><sodipodi:namedview
     pagecolor="#ffffff"
     bordercolor="#666666"
     borderopacity="1"
     objecttolerance="10"
     gridtolerance="10"
     guidetolerance="10"
     inkscape:pageopacity="0"
     inkscape:pageshadow="2"
     inkscape:window-width="1233"
     inkscape:window-height="640"
     id="namedview13"
     showgrid="false"
     inkscape:zoom="2.36"
     inkscape:cx="-9.1101695"
     inkscape:cy="50"
     inkscape:window-x="4793"
     inkscape:window-y="537"
     inkscape:window-maximized="0"
     inkscape:current-layer="Layer_1" /><g
     id="g5"
     style="fill:#ff0000"><path
       inkscape:connector-curvature="0"
       id="path7"
       d="m 58.6,26.6 -15.8,25.1 0,2.4 -5.8,0 -2.4,3.3 0,3.9 1.1,0.9 -0.5,1.1 -1.2,0 -1.7,-2.1 c 0,0 -0.9,-0.4 -1,0.2 -0.1,0.7 0,11.2 0,11.2 0,0 0.6,1 2.1,0.3 l 0,-4.4 2.3,0 0,6 1.9,2.2 1.8,0 2.6,-2.6 6.1,0 2.5,2.9 3,-2.4 c 0,0 0.5,-1.2 0.6,-1.8 0.1,-0.7 0,-4.4 0,-4.4 l 1.7,0 0,4.6 2.7,0 0,-11.1 -1.6,0 -1.4,1.6 -1.5,0 -0.1,-1.6 0.8,-0.9 0,-4 -2.3,-2.6 -5,0 0,-1.2 14.1,-22.2 0.7,0.1 0,2.4 5.8,0 0.6,-1.1 0,-8.4 -0.8,-0.8 -1.2,0 0,0.5 -1.2,0 0,-0.7 -2.7,0 -0.8,1.3 0,0.9 0.4,0 0,0.8 -1.6,0.1 -0.4,0.5 -1.8,0 z"
       style="fill:#ff0000" /></g><g
     id="g9"><path
       inkscape:connector-curvature="0"
       id="path11"
       d="M 50,20.4 C 33.7,20.4 20.4,33.7 20.4,50 20.4,66.3 33.7,79.6 50,79.6 66.3,79.6 79.6,66.3 79.6,50 79.6,33.7 66.3,20.4 50,20.4 Z M 23.4,50 c 0,-7.1 2.8,-13.6 7.4,-18.4 l 36.5,38.5 c -4.7,4 -10.7,6.5 -17.4,6.5 C 35.3,76.6 23.4,64.7 23.4,50 Z M 69.5,68 33,29.5 c 4.6,-3.8 10.5,-6.1 17,-6.1 14.7,0 26.6,11.9 26.6,26.6 0,6.9 -2.7,13.3 -7.1,18 z"
       style="fill:#e7443a" /></g></svg>