<?xml version="1.0" encoding="utf-8"?>
<!-- Generator: Adobe Illustrator 25.2.0, SVG Export Plug-In . SVG Version: 6.00 Build 0)  -->
<svg version="1.1" id="Layer_1" xmlns="http://www.w3.org/2000/svg" xmlns:xlink="http://www.w3.org/1999/xlink" x="0px" y="0px"
	 viewBox="0 0 100 100" style="enable-background:new 0 0 100 100;" xml:space="preserve">
<g>
	<g>
		<path d="M58.6,26.6L42.8,51.7v2.4h-5.8l-2.4,3.3v3.9l1.1,0.9l-0.5,1.1h-1.2l-1.7-2.1c0,0-0.9-0.4-1,0.2c-0.1,0.7,0,11.2,0,11.2
			s0.6,1,2.1,0.3v-4.4h2.3v6l1.9,2.2h1.8l2.6-2.6h6.1l2.5,2.9l3-2.4c0,0,0.5-1.2,0.6-1.8c0.1-0.7,0-4.4,0-4.4h1.7V73h2.7V61.9H57
			l-1.4,1.6h-1.5L54,61.9l0.8-0.9v-4l-2.3-2.6h-5v-1.2l14.1-22.2l0.7,0.1v2.4h5.8l0.6-1.1V24l-0.8-0.8h-1.2v0.5h-1.2V23h-2.7
			L62,24.3v0.9l0.4,0V26l-1.6,0.1l-0.4,0.5L58.6,26.6z"/>
	</g>
	<g>
		<path style="fill:#E7443A;" d="M50,20.4c-16.3,0-29.6,13.3-29.6,29.6S33.7,79.6,50,79.6S79.6,66.3,79.6,50S66.3,20.4,50,20.4z
			 M23.4,50c0-7.1,2.8-13.6,7.4-18.4l36.5,38.5c-4.7,4-10.7,6.5-17.4,6.5C35.3,76.6,23.4,64.7,23.4,50z M69.5,68L33,29.5
			c4.6-3.8,10.5-6.1,17-6.1c14.7,0,26.6,11.9,26.6,26.6C76.6,56.9,73.9,63.3,69.5,68z"/>
	</g>
</g>
</svg>
