<?xml version="1.0" encoding="utf-8"?>
<!-- Generator: Adobe Illustrator 25.2.0, SVG Export Plug-In . SVG Version: 6.00 Build 0)  -->
<svg version="1.1" id="Layer_1" xmlns="http://www.w3.org/2000/svg" xmlns:xlink="http://www.w3.org/1999/xlink" x="0px" y="0px"
	 viewBox="0 0 100 100" style="enable-background:new 0 0 100 100;" xml:space="preserve">
<g>
	<path d="M68.4,45.9L64,32.4H33.8l-4.3,13.5V61h2.9v5.6c0,1.4,1.1,2.5,2.5,2.5h2.6c1.4,0,2.5-1.1,2.5-2.5V61h17.6v5.6
		c0,1.4,1.1,2.5,2.5,2.5h2.6c1.4,0,2.5-1.1,2.5-2.5V61h3.2V45.9z M35.8,34.7h26l4,10.9H32L35.8,34.7z M35.8,58.4
		c-2.4,0-4.3-1.9-4.3-4.2c0-2.3,1.9-4.2,4.3-4.2c2.4,0,4.3,1.9,4.3,4.2C40.1,56.5,38.2,58.4,35.8,58.4z M61.9,58.4
		c-2.4,0-4.3-1.9-4.3-4.2c0-2.3,1.9-4.2,4.3-4.2s4.3,1.9,4.3,4.2C66.1,56.5,64.2,58.4,61.9,58.4z"/>
	<path style="fill:#E7443A;" d="M50,23.2c-15.2,0-27.6,12-27.6,26.8S34.8,76.8,50,76.8s27.6-12,27.6-26.8S65.2,23.2,50,23.2z
		 M25.2,50c0-6.5,2.6-12.3,6.9-16.7l34.1,34.8c-4.3,3.7-10,5.9-16.2,5.9C36.3,74.1,25.2,63.3,25.2,50z M68.2,66.3l-34-34.8
		C38.5,28,44,25.9,50,25.9c13.7,0,24.8,10.8,24.8,24.1C74.8,56.3,72.3,62,68.2,66.3z"/>
</g>
</svg>
