<?xml version="1.0" encoding="utf-8"?>
<!-- Generator: Adobe Illustrator 25.2.0, SVG Export Plug-In . SVG Version: 6.00 Build 0)  -->
<svg version="1.1" id="Layer_1" xmlns="http://www.w3.org/2000/svg" xmlns:xlink="http://www.w3.org/1999/xlink" x="0px" y="0px"
	 viewBox="0 0 100 100" style="enable-background:new 0 0 100 100;" xml:space="preserve">
<g>
	<g>
		<path d="M50,33.4c-9,0-16.3,7.6-16.3,16.9c0,9.3,7.3,16.9,16.3,16.9c9,0,16.3-7.6,16.3-16.9C66.3,40.9,59,33.4,50,33.4z
			 M52.3,49.8l7.9-7.9c1.8,2.3,2.8,5.2,2.8,8.4c0,2.9-0.9,5.6-2.4,7.8L52.3,49.8z M57.9,39.5L50,47.5l-7.9-7.9
			c2.2-1.8,5-2.8,7.9-2.8C53,36.7,55.7,37.8,57.9,39.5z M39.8,41.9l7.9,7.9l-8.3,8.3c-1.5-2.2-2.4-4.9-2.4-7.8
			C36.9,47.1,38,44.2,39.8,41.9z M41.5,60.6l8.5-8.5l8.5,8.5c-2.3,2-5.2,3.2-8.5,3.2C46.8,63.8,43.8,62.6,41.5,60.6z"/>
	</g>
	<g>
		<polygon points="61.4,24.2 48.9,9.9 35.4,24.2 41.3,24.2 41.3,31 55.6,31 55.6,24.2 		"/>
	</g>
	<g>
		<polygon points="35.4,75.8 47.9,90.1 61.4,75.8 55.6,75.8 55.6,69 41.3,69 41.3,75.8 		"/>
	</g>
</g>
</svg>
