<?xml version="1.0" encoding="utf-8"?>
<!-- Generator: Adobe Illustrator 25.2.0, SVG Export Plug-In . SVG Version: 6.00 Build 0)  -->
<svg version="1.1" id="Layer_1" xmlns="http://www.w3.org/2000/svg" xmlns:xlink="http://www.w3.org/1999/xlink" x="0px" y="0px"
	 viewBox="0 0 100 100" style="enable-background:new 0 0 100 100;" xml:space="preserve">
<g>
	<g>
		<path d="M53,25.3c-6.9,0-12.4,5.6-12.4,12.4c0,6.9,5.6,12.4,12.4,12.4c6.9,0,12.4-5.6,12.4-12.4C65.4,30.9,59.8,25.3,53,25.3z
			 M53,44.4c-3.7,0-6.6-3-6.6-6.6c0-3.7,3-6.6,6.6-6.6c3.7,0,6.6,3,6.6,6.6C59.6,41.4,56.6,44.4,53,44.4z"/>
	</g>
	<g>
		<polygon points="52,66.1 52,53.8 48.5,53.8 48.5,66.1 41.5,66.1 50.2,81 58.8,66.1 		"/>
	</g>
	<g>
		<g>
			<path d="M42.5,55.8c-0.2,0-0.5,0-0.7-0.1L7.1,42.5c-1-0.4-1.5-1.5-1.2-2.6c0.4-1,1.6-1.6,2.6-1.2L43.2,52c1,0.4,1.5,1.5,1.2,2.6
				C44,55.3,43.3,55.8,42.5,55.8z"/>
		</g>
	</g>
	<g>
		<g>
			<path d="M57.4,55.7c-0.8,0-1.6-0.5-1.9-1.3c-0.4-1,0.1-2.2,1.2-2.6l34.8-13c1-0.4,2.2,0.1,2.6,1.2c0.4,1-0.1,2.2-1.2,2.6
				l-34.8,13C57.9,55.7,57.7,55.7,57.4,55.7z"/>
		</g>
	</g>
	<g>
		<g>
			<path d="M88.9,37.7H68l-0.2-1.3C67.8,35.9,65.6,22,52.3,22c-13.1,0-13.6,13.7-13.6,14.3l0,1.5l-12.1,0V19.3h3v15.4h6.3
				C36.4,30.6,39.1,19,52.3,19c13.3,0,17.3,11.8,18.2,15.7h18.3V37.7z"/>
		</g>
	</g>
</g>
</svg>
