<?xml version="1.0" encoding="utf-8"?>
<!-- Generator: Adobe Illustrator 25.2.0, SVG Export Plug-In . SVG Version: 6.00 Build 0)  -->
<svg version="1.1" id="Layer_1" xmlns="http://www.w3.org/2000/svg" xmlns:xlink="http://www.w3.org/1999/xlink" x="0px" y="0px"
	 viewBox="0 0 100 100" style="enable-background:new 0 0 100 100;" xml:space="preserve">
<g>
	<g>
		<path style="fill:#FFFFFF;" d="M45.1,39.8L36.9,40L34,41.4l-2.5,2.8l-2.8,3.4L28,47.9l-3.8,0.6l-1.8,1.2l-0.1,0.6v6.1
			c0,0,0.3,3.8,2,3.9l0.7,0.4l11.9-0.1l7.4-0.1l1.5-16.8L45.1,39.8z"/>
	</g>
	<g>
		<polygon style="fill:#FFFFFF;" points="78,60 73.8,60 72.8,60.7 43.8,60.7 43.8,35.3 78,35.3 		"/>
	</g>
	<g>
		<g>
			<polygon style="fill:#0000FF;" points="68.8,43.4 66.4,39.6 62.9,41.5 62.9,37.5 58,37.5 58,41.6 54.3,39.6 51.9,43.4 55.7,45.5 
				51.9,47.6 54.3,51.4 58,49.4 58,53.8 62.9,53.8 62.9,49.5 66.4,51.4 68.8,47.6 65,45.5 			"/>
		</g>
		<g>
			<path style="fill:#333333;" d="M63.2,54h-5.4v-4.2l-3.5,1.9l-2.7-4.2l3.6-2l-3.6-2l2.7-4.2l3.5,1.9v-3.9h5.4v3.8l3.3-1.8l2.7,4.2
				l-3.6,2l3.6,2l-2.7,4.2l-3.3-1.8V54z M58.2,53.5h4.4v-4.5l3.6,2l2.2-3.4l-3.9-2.2l3.9-2.2l-2.2-3.4l-3.6,2v-4.1h-4.4V42l-3.8-2.1
				l-2.2,3.4l3.9,2.2l-3.9,2.2l2.2,3.4l3.8-2.1V53.5z"/>
		</g>
	</g>
	<g>
		<g>
			<path style="fill:#FFFFFF;" d="M22.2,51.1h1.4c0,0,0.4,3.7-0.6,4.4h-0.7L22.2,51.1z"/>
		</g>
		<g>
			<path style="fill:#646464;" d="M23,55.6h-0.9l-0.1-4.7h1.6l0,0.1C23.7,51.4,24.1,54.9,23,55.6L23,55.6z M22.4,55.3H23
				c0.7-0.5,0.6-3.1,0.5-4.2h-1.1L22.4,55.3z"/>
		</g>
	</g>
	<g>
		<g>
			<polygon style="fill:#646464;" points="44.3,59.7 43.8,59.7 43.8,35.3 78.3,35.3 78.3,56.7 77.8,56.7 77.8,35.8 44.3,35.8 			"/>
		</g>
	</g>
	<g>
		<g>
			<path style="fill:#646464;" d="M22.5,56.6H22l0-6.8c1.1-2.2,5.6-2.3,6.4-2.3c0.6-0.7,4.2-5.1,5.2-6.1c1.1-1.1,2.9-1.8,3-1.8
				l0.1,0H44v0.5h-7.3c-0.3,0.1-1.9,0.8-2.8,1.7c-1,1-5.2,6.1-5.2,6.1l-0.1,0.1l-0.1,0c-0.1,0-5-0.2-6.1,1.9V56.6z"/>
		</g>
	</g>
	<g>
		<rect x="25.9" y="51.2" style="fill:#646464;" width="16.3" height="0.8"/>
	</g>
	<g>
		<g>
			<path style="fill:#646464;" d="M28.6,48.1l0-0.5c0.1,0,11.2-0.4,13.4-0.9v-4.2c0,0-0.1-0.5-0.7-0.5h-7.5v-0.5h7.5
				c0.9,0,1.2,0.6,1.2,0.9l0,4.6l-0.2,0.1C40.5,47.7,29,48.1,28.6,48.1z"/>
		</g>
	</g>
	<g>
		<g>
			
				<rect x="30.1" y="44.6" transform="matrix(0.3852 -0.9228 0.9228 0.3852 -20.8664 58.4334)" style="fill:#646464;" width="6.7" height="0.5"/>
		</g>
	</g>
	<g>
		<g>
			<path style="fill:#FFFFFF;" d="M32.4,49.1h-0.8c-0.3,0-0.6-0.3-0.6-0.6v-3.7h1.4V49.1z"/>
		</g>
		<g>
			<path style="fill:#646464;" d="M32.6,49.3h-1c-0.4,0-0.7-0.3-0.7-0.7v-3.9h1.7V49.3z M31.2,44.9v3.6c0,0.2,0.2,0.4,0.4,0.4h0.7
				v-4.1H31.2z"/>
		</g>
	</g>
	<g>
		<g>
			<path style="fill:#FFFFFF;" d="M41.7,39.3h-3.8v-0.5c0-1,0.8-1.8,1.8-1.8h0.2c1,0,1.8,0.8,1.8,1.8V39.3z"/>
		</g>
		<g>
			<path style="fill:#646464;" d="M41.8,39.5h-4v-0.6c0-1,0.9-1.9,1.9-1.9h0.2c1,0,1.9,0.9,1.9,1.9V39.5z M38,39.2h3.5v-0.3
				c0-0.9-0.7-1.6-1.6-1.6h-0.2c-0.9,0-1.6,0.7-1.6,1.6V39.2z"/>
		</g>
	</g>
	<g>
		<g>
			<circle style="fill:#FFFFFF;" cx="46.9" cy="38.5" r="1.4"/>
		</g>
		<g>
			<path style="fill:#646464;" d="M46.9,40c-0.8,0-1.5-0.7-1.5-1.5s0.7-1.5,1.5-1.5s1.5,0.7,1.5,1.5S47.8,40,46.9,40z M46.9,37.2
				c-0.7,0-1.2,0.6-1.2,1.2c0,0.7,0.6,1.2,1.2,1.2s1.2-0.6,1.2-1.2C48.2,37.8,47.6,37.2,46.9,37.2z"/>
		</g>
	</g>
	<g>
		<g>
			<circle style="fill:#FFFFFF;" cx="75.5" cy="38.5" r="1.4"/>
		</g>
		<g>
			<path style="fill:#646464;" d="M75.5,40c-0.8,0-1.5-0.7-1.5-1.5s0.7-1.5,1.5-1.5s1.5,0.7,1.5,1.5S76.4,40,75.5,40z M75.5,37.2
				c-0.7,0-1.2,0.6-1.2,1.2c0,0.7,0.6,1.2,1.2,1.2s1.2-0.6,1.2-1.2C76.8,37.8,76.2,37.2,75.5,37.2z"/>
		</g>
	</g>
	<g>
		<g>
			<path style="fill:#FFFFFF;" d="M23.5,59.7h-2.4c-0.4,0-0.8-0.3-0.8-0.8v-1.7c0-0.4,0.3-0.8,0.8-0.8h2.4c0.4,0,0.8,0.3,0.8,0.8
				v1.7C24.3,59.3,23.9,59.7,23.5,59.7z"/>
		</g>
		<g>
			<path style="fill:#646464;" d="M23.5,59.8h-2.4c-0.5,0-0.9-0.4-0.9-0.9v-1.7c0-0.5,0.4-0.9,0.9-0.9h2.4c0.5,0,0.9,0.4,0.9,0.9
				v1.7C24.4,59.4,24,59.8,23.5,59.8z M21.1,56.6c-0.3,0-0.6,0.3-0.6,0.6v1.7c0,0.3,0.3,0.6,0.6,0.6h2.4c0.3,0,0.6-0.3,0.6-0.6v-1.7
				c0-0.3-0.3-0.6-0.6-0.6H21.1z"/>
		</g>
	</g>
	<g>
		<path style="fill:#969696;" d="M25.1,60.8V57c0-1.5,1.2-2.8,2.8-2.8h2.7c2.4,0,4.3,1.9,4.3,4.3v2.3H25.1z"/>
	</g>
	<g>
		<path style="fill:#969696;" d="M61,60.7l0.3-3.7c0-1.5,1.2-2.7,2.6-2.7h4.2c1.3,0,2.4,1.1,2.4,2.4l0.5,4H61z"/>
	</g>
	<g>
		<g>
			<path style="fill:#646464;" d="M24.9,60h-1.4c0,0,0.6,0.6,1.4,0.8V60z"/>
		</g>
		<g>
			<path style="fill:#646464;" d="M35,60.9c7.4,0,17.7,0,25.7,0l0.1-0.9H35V60.9z"/>
		</g>
		<g>
			<path style="fill:#646464;" d="M30.8,60.9c0.3,0,0.5,0,0.8,0H30.8z"/>
		</g>
	</g>
	<g>
		<polygon style="fill:#646464;" points="71.1,60 71.2,60.9 73.1,60.9 73.8,60 		"/>
	</g>
	<g>
		<circle style="fill:#FFFFFF;" cx="29.8" cy="60.2" r="2.8"/>
	</g>
	<g>
		<g>
			<ellipse style="fill:#FFFFFF;" cx="65.9" cy="60.1" rx="2.9" ry="3"/>
		</g>
		<g>
			<path d="M65.9,55.3c-2.3,0-4.2,2.1-4.2,4.7s1.9,4.7,4.2,4.7c2.3,0,4.2-2.1,4.2-4.7S68.2,55.3,65.9,55.3z M65.9,62.6
				c-1.3,0-2.3-1.1-2.3-2.6c0-1.4,1-2.6,2.3-2.6c1.3,0,2.3,1.1,2.3,2.6C68.2,61.4,67.2,62.6,65.9,62.6z"/>
		</g>
	</g>
	<g>
		<g>
			<path d="M29.7,55.3c-2.3,0-4.2,2.1-4.2,4.7s1.9,4.7,4.2,4.7c2.3,0,4.2-2.1,4.2-4.7S32,55.3,29.7,55.3z M29.7,62.6
				c-1.3,0-2.3-1.1-2.3-2.6c0-1.4,1-2.6,2.3-2.6c1.3,0,2.3,1.1,2.3,2.6C31.9,61.4,30.9,62.6,29.7,62.6z"/>
		</g>
	</g>
	<g>
		<polygon style="fill:#333333;" points="59.8,38.6 61,38.6 61,52.9 59.8,52.9 		"/>
	</g>
	<g>
		<g>
			<path style="fill:#FFFFFF;" d="M59.8,48.5c0,0-0.5,0.1-0.3,0.7s1.9,1.2,2,0.9s-0.7-0.5-1.1-0.9C60,48.7,59.8,48.5,59.8,48.5z"/>
		</g>
		<g>
			<path style="fill:#FFFFFF;" d="M59.8,46.5c0-0.1,0-0.2,0-0.3h0v-0.5l-0.1,0c-0.4,0-0.7,0.5-0.5,1.2c0.2,0.6,1.8,0.5,1.8,0.5v0.9
				c0.4,0,0.4-0.3,0.5-0.9C61.5,46.8,60.4,47,59.8,46.5z"/>
		</g>
		<g>
			<g>
				<path style="fill:#FFFFFF;" d="M60.7,44.2c-1.1,0-0.9-0.4-0.9-0.4l0,0v-1.1c-0.2,0-1,0-1,1c0,1.1,0.6,1.2,0.6,1.2H61v0.6v0.1
					v0.5l0.3,0C62.1,45.7,61.9,44.1,60.7,44.2z"/>
			</g>
			<g>
				<path style="fill:#FFFFFF;" d="M61,42.1v0.5v0.1v1.1l0.3,0c0.7-0.4,1.2-2,0-2.8c-1.2-0.8-1.9,0.5-1.9,0.5
					C59.3,42.4,61,42.1,61,42.1z"/>
			</g>
		</g>
	</g>
	<g>
		<rect x="70.9" y="59.7" style="fill:#7E7E7E;" width="7.3" height="0.4"/>
	</g>
	<g>
		<path style="fill:#646464;" d="M61.3,60.4l0.2-3.5c0-1.3,1.1-2.4,2.4-2.4h4.2c1.2,0,2.1,1,2.1,2.1v0l0,0l0.4,3.4l0.1,0.8h0.5
			l-0.5-4.2c0-1.5-1.2-2.6-2.6-2.6h-4.2c-1.6,0-2.9,1.3-2.9,2.9l-0.3,4h0.5L61.3,60.4z"/>
	</g>
	<g>
		<path style="fill:#646464;" d="M30.6,54.1h-2.7c-1.6,0-2.9,1.3-2.9,2.9v4h0.2v-0.2V57c0-1.5,1.2-2.6,2.6-2.6h2.7
			c2.3,0,4.2,1.9,4.2,4.2v2.2v0.2H35v-2.4C35,56.1,33,54.1,30.6,54.1z"/>
	</g>
	<g>
		<g>
			<path style="fill:#FFFFFF;" d="M78.9,59.7h-2.6c-0.4,0-0.8-0.3-0.8-0.8v-1.6c0-0.4,0.3-0.8,0.8-0.8h2.6c0.4,0,0.8,0.3,0.8,0.8
				v1.6C79.7,59.3,79.3,59.7,78.9,59.7z"/>
		</g>
		<g>
			<path style="fill:#646464;" d="M78.9,59.8h-2.6c-0.5,0-0.9-0.4-0.9-0.9v-1.6c0-0.5,0.4-0.9,0.9-0.9h2.6c0.5,0,0.9,0.4,0.9,0.9
				v1.6C79.8,59.4,79.4,59.8,78.9,59.8z M76.3,56.6c-0.4,0-0.6,0.3-0.6,0.6v1.6c0,0.4,0.3,0.6,0.6,0.6h2.6c0.4,0,0.6-0.3,0.6-0.6
				v-1.6c0-0.4-0.3-0.6-0.6-0.6H76.3z"/>
		</g>
	</g>
</g>
</svg>
