<svg xmlns="http://www.w3.org/2000/svg" viewBox="0 0 100 100">
   <g transform="translate(-13,16)">
      <polygon style="fill:#EAEAEA;" points="61.5,79 77,64 75.9,60.1 51.9,30.7 50.2,29.8 22.3,29.4 17.7,35.1"/>
      <polygon points="77.2,62.9 50.8,30.5 24.8,30.5 24.8,29 51.5,29 78.3,62"/>
      <rect x="41.3" y="44.6" transform="matrix(0.6753 0.7375 -0.7375 0.6753 52.0534 -18.1913)" width="10.7" height="10.7"/>
      <path d="M81.9,33.2c-0.9,0.1-2.4-0.4-2.5-1.1c-0.1-0.8-0.5-3.7-0.8-4.3c-0.3-0.6,0-1.7,0-1.7l0,0c0.2,0.1,0.5,0.2,0.8,0.2
			c1.2,0,2.1-1.2,2.1-2.7s-1-2.7-2.1-2.7c-1.2,0-2.1,1.2-2.1,2.7c0,0.4,0.1,0.8,0.2,1.2c-0.2,0.2-0.4,0.3-0.7,0.3
			c-0.8,0-4.2-0.5-5.1-0.6c-0.9-0.1-4.4,2.7-5.4,4.4c-1,1.7,1.2,1.9,1.2,1.9s2-2,3.5-2.5s1,0.8,1,0.8s-4.4,5.2-6.6,6.1
			s-3.5-1.7-5.1-2c-1.7-0.3-0.9,2.2-0.9,2.2s3.2,2.3,4.2,3s2.3,0.5,2.3,0.5s3.4-4.4,4.2-3.8s0.2,5.4,0.2,5.4s-2.3,2.2-3.4,4.7
			c-1.1,2.5,1.6,1.7,1.6,1.7s3.8-3.5,4.4-3.9s0.9-7.1,1-8.9s1.9-3.9,2.3-1.7c0.4,2.2,2.6,3.4,4.2,3.5C81.8,36,82.8,33.2,81.9,33.2z"/>
   </g>
</svg>
