<svg xmlns="http://www.w3.org/2000/svg" viewBox="0 0 100 100">
   <g transform="translate(-10,14)">
      <polygon style="fill:#EAEAEA;" points="85.9,56.5 59.2,81.4 14.1,37.2 21,30.8 44.6,31.7 85.9,55.2 		"/>
      <polygon points="84.5,54.9 44.4,32.4 23.4,32.4 23.4,30.9 44.8,30.9 85.2,53.6 		"/>
      <path d="M76.6,27.9c-0.7,0.3-2.1,0.3-2.4-0.2c-0.3-0.6-1.4-2.9-1.8-3.3C72.1,24,72,23,72,23l0,0c0.2,0,0.5,0,0.7-0.1
			c1-0.3,1.4-1.5,1-2.7c-0.4-1.2-1.5-1.9-2.5-1.6c-1,0.3-1.4,1.5-1,2.7c0.1,0.3,0.3,0.6,0.5,0.9c-0.1,0.2-0.3,0.4-0.5,0.4
			c-0.7,0.2-3.6,0.7-4.3,0.9c-0.8,0.2-2.9,3.4-3.3,5c-0.4,1.6,1.5,1.2,1.5,1.2s1.1-2.1,2.2-3c1.1-0.8,1,0.4,1,0.4s-2.3,5.4-3.8,6.7
			c-1.5,1.3-3.3-0.5-4.7-0.3c-1.4,0.2-0.2,2-0.2,2s3.2,1,4.3,1.3c1,0.3,2-0.3,2-0.3s1.6-4.5,2.4-4.2s1.6,4.4,1.6,4.4
			s-1.3,2.4-1.5,4.7c-0.2,2.3,1.8,1,1.8,1s2.2-3.9,2.5-4.3c0.3-0.4-1.1-6-1.6-7.5s0.5-3.7,1.4-2c0.9,1.7,3.1,2,4.3,1.8
			C77.2,30.2,77.3,27.6,76.6,27.9z"/>
      <path d="M45.2,55.2a6.2,6.7 0 1,0 12.4,0a6.2,6.7 0 1,0 -12.4,0"/>
      <!-- <ellipse cx="51.4" cy="55.2" rx="6.2" ry="6.7"/> -->
   </g>
</svg>
