<?xml version="1.0" encoding="UTF-8" standalone="no"?>
<!-- Generator: Adobe Illustrator 25.2.0, SVG Export Plug-In . SVG Version: 6.00 Build 0)  -->

<svg
   xmlns:dc="http://purl.org/dc/elements/1.1/"
   xmlns:cc="http://creativecommons.org/ns#"
   xmlns:rdf="http://www.w3.org/1999/02/22-rdf-syntax-ns#"
   xmlns:svg="http://www.w3.org/2000/svg"
   xmlns="http://www.w3.org/2000/svg"
   xmlns:sodipodi="http://sodipodi.sourceforge.net/DTD/sodipodi-0.dtd"
   xmlns:inkscape="http://www.inkscape.org/namespaces/inkscape"
   version="1.1"
   id="Layer_1"
   x="0px"
   y="0px"
   viewBox="0 0 100 100"
   style="enable-background:new 0 0 100 100;"
   xml:space="preserve"
   inkscape:version="0.91 r13725"
   sodipodi:docname="icon-BAAA.svg"><metadata
     id="metadata207"><rdf:RDF><cc:Work
         rdf:about=""><dc:format>image/svg+xml</dc:format><dc:type
           rdf:resource="http://purl.org/dc/dcmitype/StillImage" /></cc:Work></rdf:RDF></metadata><defs
     id="defs205" /><sodipodi:namedview
     pagecolor="#ffffff"
     bordercolor="#666666"
     borderopacity="1"
     objecttolerance="10"
     gridtolerance="10"
     guidetolerance="10"
     inkscape:pageopacity="0"
     inkscape:pageshadow="2"
     inkscape:window-width="1536"
     inkscape:window-height="889"
     id="namedview203"
     showgrid="false"
     inkscape:zoom="9.44"
     inkscape:cx="13.518738"
     inkscape:cy="35.536242"
     inkscape:window-x="-8"
     inkscape:window-y="-8"
     inkscape:window-maximized="1"
     inkscape:current-layer="Layer_1" /><g
     id="g5"><path
       inkscape:connector-curvature="0"
       id="path7"
       d="m 45.1,39.8 -8.2,0.2 -2.9,1.4 -2.5,2.8 -2.8,3.4 -0.7,0.3 -3.8,0.6 -1.8,1.2 -0.1,0.6 0,6.1 c 0,0 0.3,3.8 2,3.9 l 0.7,0.4 11.9,-0.1 7.4,-0.1 1.5,-16.8 -0.7,-3.9 z"
       style="fill:#ffffff" /></g><g
     id="g9"><polygon
       id="polygon11"
       points="72.8,60.7 43.8,60.7 43.8,35.3 78,35.3 78,60 73.8,60 "
       style="fill:#ffffff" /></g><g
     id="g13"><g
       id="g15"><polygon
         id="polygon17"
         points="62.9,41.5 62.9,37.5 58,37.5 58,41.6 54.3,39.6 51.9,43.4 55.7,45.5 51.9,47.6 54.3,51.4 58,49.4 58,53.8 62.9,53.8 62.9,49.5 66.4,51.4 68.8,47.6 65,45.5 68.8,43.4 66.4,39.6 "
         style="fill:#0000ff" /></g><g
       id="g19"><path
         inkscape:connector-curvature="0"
         id="path21"
         d="m 63.2,54 -5.4,0 0,-4.2 -3.5,1.9 -2.7,-4.2 3.6,-2 -3.6,-2 2.7,-4.2 3.5,1.9 0,-3.9 5.4,0 0,3.8 3.3,-1.8 2.7,4.2 -3.6,2 3.6,2 -2.7,4.2 -3.3,-1.8 0,4.1 z m -5,-0.5 4.4,0 0,-4.5 3.6,2 2.2,-3.4 -3.9,-2.2 3.9,-2.2 -2.2,-3.4 -3.6,2 0,-4.1 -4.4,0 0,4.3 -3.8,-2.1 -2.2,3.4 3.9,2.2 -3.9,2.2 2.2,3.4 3.8,-2.1 0,4.5 z"
         style="fill:#333333" /></g></g><g
     id="g23"><g
       id="g25"><path
         inkscape:connector-curvature="0"
         id="path27"
         d="m 22.2,51.1 1.4,0 c 0,0 0.4,3.7 -0.6,4.4 l -0.7,0 -0.1,-4.4 z"
         style="fill:#ffffff" /></g><g
       id="g29"><path
         inkscape:connector-curvature="0"
         id="path31"
         d="m 23,55.6 -0.9,0 -0.1,-4.7 1.6,0 0,0.1 c 0.1,0.4 0.5,3.9 -0.6,4.6 l 0,0 z m -0.6,-0.3 0.6,0 c 0.7,-0.5 0.6,-3.1 0.5,-4.2 l -1.1,0 0,4.2 z"
         style="fill:#646464" /></g></g><g
     id="g33"><g
       id="g35"><polygon
         id="polygon37"
         points="43.8,35.3 78.3,35.3 78.3,56.7 77.8,56.7 77.8,35.8 44.3,35.8 44.3,59.7 43.8,59.7 "
         style="fill:#646464" /></g></g><g
     id="g39"><g
       id="g41"><path
         inkscape:connector-curvature="0"
         id="path43"
         d="m 22.5,56.6 -0.5,0 0,-6.8 c 1.1,-2.2 5.6,-2.3 6.4,-2.3 0.6,-0.7 4.2,-5.1 5.2,-6.1 1.1,-1.1 2.9,-1.8 3,-1.8 l 0.1,0 7.3,0 0,0.5 -7.3,0 c -0.3,0.1 -1.9,0.8 -2.8,1.7 -1,1 -5.2,6.1 -5.2,6.1 l -0.1,0.1 -0.1,0 c -0.1,0 -5,-0.2 -6.1,1.9 l 0,6.7 z"
         style="fill:#646464" /></g></g><g
     id="g45"><rect
       id="rect47"
       height="0.80000001"
       width="16.299999"
       style="fill:#646464"
       y="51.200001"
       x="25.9" /></g><g
     id="g49"><g
       id="g51"><path
         inkscape:connector-curvature="0"
         id="path53"
         d="m 28.6,48.1 0,-0.5 c 0.1,0 11.2,-0.4 13.4,-0.9 l 0,-4.2 c 0,0 -0.1,-0.5 -0.7,-0.5 l -7.5,0 0,-0.5 7.5,0 c 0.9,0 1.2,0.6 1.2,0.9 l 0,4.6 -0.2,0.1 c -1.8,0.6 -13.3,1 -13.7,1 z"
         style="fill:#646464" /></g></g><g
     id="g55"><g
       id="g57"><rect
         id="rect59"
         height="0.5"
         width="6.6999998"
         style="fill:#646464"
         transform="matrix(0.3852,-0.9228,0.9228,0.3852,-20.8664,58.4334)"
         y="44.599998"
         x="30.1" /></g></g><g
     id="g61"><g
       id="g63"><path
         inkscape:connector-curvature="0"
         id="path65"
         d="m 32.4,49.1 -0.8,0 C 31.3,49.1 31,48.8 31,48.5 l 0,-3.7 1.4,0 0,4.3 z"
         style="fill:#ffffff" /></g><g
       id="g67"><path
         inkscape:connector-curvature="0"
         id="path69"
         d="m 32.6,49.3 -1,0 c -0.4,0 -0.7,-0.3 -0.7,-0.7 l 0,-3.9 1.7,0 0,4.6 z m -1.4,-4.4 0,3.6 c 0,0.2 0.2,0.4 0.4,0.4 l 0.7,0 0,-4.1 -1.1,0 z"
         style="fill:#646464" /></g></g><g
     id="g71"><g
       id="g73"><path
         inkscape:connector-curvature="0"
         id="path75"
         d="m 41.7,39.3 -3.8,0 0,-0.5 c 0,-1 0.8,-1.8 1.8,-1.8 l 0.2,0 c 1,0 1.8,0.8 1.8,1.8 l 0,0.5 z"
         style="fill:#ffffff" /></g><g
       id="g77"><path
         inkscape:connector-curvature="0"
         id="path79"
         d="m 41.8,39.5 -4,0 0,-0.6 c 0,-1 0.9,-1.9 1.9,-1.9 l 0.2,0 c 1,0 1.9,0.9 1.9,1.9 l 0,0.6 z m -3.8,-0.3 3.5,0 0,-0.3 c 0,-0.9 -0.7,-1.6 -1.6,-1.6 l -0.2,0 c -0.9,0 -1.6,0.7 -1.6,1.6 l 0,0.3 z"
         style="fill:#646464" /></g></g><g
     id="g81"><g
       id="g83"><circle
         id="circle85"
         r="1.4"
         cy="38.5"
         cx="46.900002"
         style="fill:#ffffff" /></g><g
       id="g87"><path
         inkscape:connector-curvature="0"
         id="path89"
         d="m 46.9,40 c -0.8,0 -1.5,-0.7 -1.5,-1.5 0,-0.8 0.7,-1.5 1.5,-1.5 0.8,0 1.5,0.7 1.5,1.5 0,0.8 -0.6,1.5 -1.5,1.5 z m 0,-2.8 c -0.7,0 -1.2,0.6 -1.2,1.2 0,0.7 0.6,1.2 1.2,1.2 0.6,0 1.2,-0.6 1.2,-1.2 0.1,-0.6 -0.5,-1.2 -1.2,-1.2 z"
         style="fill:#646464" /></g></g><g
     id="g91"><g
       id="g93"><circle
         id="circle95"
         r="1.4"
         cy="38.5"
         cx="75.5"
         style="fill:#ffffff" /></g><g
       id="g97"><path
         inkscape:connector-curvature="0"
         id="path99"
         d="M 75.5,40 C 74.7,40 74,39.3 74,38.5 74,37.7 74.7,37 75.5,37 c 0.8,0 1.5,0.7 1.5,1.5 0,0.8 -0.6,1.5 -1.5,1.5 z m 0,-2.8 c -0.7,0 -1.2,0.6 -1.2,1.2 0,0.7 0.6,1.2 1.2,1.2 0.6,0 1.2,-0.6 1.2,-1.2 0.1,-0.6 -0.5,-1.2 -1.2,-1.2 z"
         style="fill:#646464" /></g></g><g
     id="g101"><g
       id="g103"><path
         inkscape:connector-curvature="0"
         id="path105"
         d="m 23.5,59.7 -2.4,0 c -0.4,0 -0.8,-0.3 -0.8,-0.8 l 0,-1.7 c 0,-0.4 0.3,-0.8 0.8,-0.8 l 2.4,0 c 0.4,0 0.8,0.3 0.8,0.8 l 0,1.7 c 0,0.4 -0.4,0.8 -0.8,0.8 z"
         style="fill:#ffffff" /></g><g
       id="g107"><path
         inkscape:connector-curvature="0"
         id="path109"
         d="m 23.5,59.8 -2.4,0 c -0.5,0 -0.9,-0.4 -0.9,-0.9 l 0,-1.7 c 0,-0.5 0.4,-0.9 0.9,-0.9 l 2.4,0 c 0.5,0 0.9,0.4 0.9,0.9 l 0,1.7 c 0,0.5 -0.4,0.9 -0.9,0.9 z m -2.4,-3.2 c -0.3,0 -0.6,0.3 -0.6,0.6 l 0,1.7 c 0,0.3 0.3,0.6 0.6,0.6 l 2.4,0 c 0.3,0 0.6,-0.3 0.6,-0.6 l 0,-1.7 c 0,-0.3 -0.3,-0.6 -0.6,-0.6 l -2.4,0 z"
         style="fill:#646464" /></g></g><g
     id="g111"><path
       inkscape:connector-curvature="0"
       id="path113"
       d="m 25.1,60.8 0,-3.8 c 0,-1.5 1.2,-2.8 2.8,-2.8 l 2.7,0 c 2.4,0 4.3,1.9 4.3,4.3 l 0,2.3 -9.8,0 z"
       style="fill:#969696" /></g><g
     id="g115"><path
       inkscape:connector-curvature="0"
       id="path117"
       d="M 61,60.7 61.3,57 c 0,-1.5 1.2,-2.7 2.6,-2.7 l 4.2,0 c 1.3,0 2.4,1.1 2.4,2.4 l 0.5,4 -10,0 z"
       style="fill:#969696" /></g><g
     id="g119"><g
       id="g121"><path
         inkscape:connector-curvature="0"
         id="path123"
         d="m 24.9,60 -1.4,0 c 0,0 0.6,0.6 1.4,0.8 l 0,-0.8 z"
         style="fill:#646464" /></g><g
       id="g125"><path
         inkscape:connector-curvature="0"
         id="path127"
         d="m 35,60.9 c 7.4,0 17.7,0 25.7,0 L 60.8,60 35,60 l 0,0.9 z"
         style="fill:#646464" /></g><g
       id="g129"><path
         inkscape:connector-curvature="0"
         id="path131"
         d="m 30.8,60.9 c 0.3,0 0.5,0 0.8,0 l -0.8,0 z"
         style="fill:#646464" /></g></g><g
     id="g133"><polygon
       id="polygon135"
       points="73.1,60.9 73.8,60 71.1,60 71.2,60.9 "
       style="fill:#646464" /></g><g
     id="g137"><circle
       id="circle139"
       r="2.8"
       cy="60.200001"
       cx="29.799999"
       style="fill:#ffffff" /></g><g
     id="g141"><g
       id="g143"><ellipse
         id="ellipse145"
         ry="3"
         rx="2.9000001"
         cy="60.099998"
         cx="65.900002"
         style="fill:#ffffff" /></g><g
       id="g147"><path
         inkscape:connector-curvature="0"
         id="path149"
         d="m 65.9,55.3 c -2.3,0 -4.2,2.1 -4.2,4.7 0,2.6 1.9,4.7 4.2,4.7 2.3,0 4.2,-2.1 4.2,-4.7 0,-2.6 -1.9,-4.7 -4.2,-4.7 z m 0,7.3 c -1.3,0 -2.3,-1.1 -2.3,-2.6 0,-1.4 1,-2.6 2.3,-2.6 1.3,0 2.3,1.1 2.3,2.6 0,1.4 -1,2.6 -2.3,2.6 z" /></g></g><g
     id="g151"><g
       id="g153"><path
         inkscape:connector-curvature="0"
         id="path155"
         d="m 29.7,55.3 c -2.3,0 -4.2,2.1 -4.2,4.7 0,2.6 1.9,4.7 4.2,4.7 2.3,0 4.2,-2.1 4.2,-4.7 0,-2.6 -1.9,-4.7 -4.2,-4.7 z m 0,7.3 c -1.3,0 -2.3,-1.1 -2.3,-2.6 0,-1.4 1,-2.6 2.3,-2.6 1.3,0 2.3,1.1 2.3,2.6 -0.1,1.4 -1.1,2.6 -2.3,2.6 z" /></g></g><g
     id="g181"><rect
       id="rect183"
       height="0.40000001"
       width="7.3000002"
       style="fill:#7e7e7e"
       y="59.700001"
       x="70.900002" /></g><g
     id="g185"><path
       inkscape:connector-curvature="0"
       id="path187"
       d="m 61.3,60.4 0.2,-3.5 c 0,-1.3 1.1,-2.4 2.4,-2.4 l 4.2,0 c 1.2,0 2.1,1 2.1,2.1 l 0,0 0,0 0.4,3.4 0.1,0.8 0.5,0 -0.5,-4.2 C 70.7,55.1 69.5,54 68.1,54 l -4.2,0 C 62.3,54 61,55.3 61,56.9 l -0.3,4 0.5,0 0.1,-0.5 z"
       style="fill:#646464" /></g><g
     id="g189"><path
       inkscape:connector-curvature="0"
       id="path191"
       d="m 30.6,54.1 -2.7,0 C 26.3,54.1 25,55.4 25,57 l 0,4 0.2,0 0,-0.2 0,-3.8 c 0,-1.5 1.2,-2.6 2.6,-2.6 l 2.7,0 c 2.3,0 4.2,1.9 4.2,4.2 l 0,2.2 0,0.2 0.3,0 0,-2.4 c 0,-2.5 -2,-4.5 -4.4,-4.5 z"
       style="fill:#646464" /></g><g
     id="g193"><g
       id="g195"><path
         inkscape:connector-curvature="0"
         id="path197"
         d="m 78.9,59.7 -2.6,0 c -0.4,0 -0.8,-0.3 -0.8,-0.8 l 0,-1.6 c 0,-0.4 0.3,-0.8 0.8,-0.8 l 2.6,0 c 0.4,0 0.8,0.3 0.8,0.8 l 0,1.6 c 0,0.4 -0.4,0.8 -0.8,0.8 z"
         style="fill:#ffffff" /></g><g
       id="g199"><path
         inkscape:connector-curvature="0"
         id="path201"
         d="m 78.9,59.8 -2.6,0 c -0.5,0 -0.9,-0.4 -0.9,-0.9 l 0,-1.6 c 0,-0.5 0.4,-0.9 0.9,-0.9 l 2.6,0 c 0.5,0 0.9,0.4 0.9,0.9 l 0,1.6 c 0,0.5 -0.4,0.9 -0.9,0.9 z m -2.6,-3.2 c -0.4,0 -0.6,0.3 -0.6,0.6 l 0,1.6 c 0,0.4 0.3,0.6 0.6,0.6 l 2.6,0 c 0.4,0 0.6,-0.3 0.6,-0.6 l 0,-1.6 c 0,-0.4 -0.3,-0.6 -0.6,-0.6 l -2.6,0 z"
         style="fill:#646464" /></g></g></svg>