<?xml version="1.0" encoding="iso-8859-1"?>
<!-- Generator: Adobe Illustrator 25.3.1, SVG Export Plug-In . SVG Version: 6.00 Build 0)  -->
<svg version="1.1" id="Layer_1" xmlns="http://www.w3.org/2000/svg" xmlns:xlink="http://www.w3.org/1999/xlink" x="0px" y="0px"
	 viewBox="0 0 100 100" style="enable-background:new 0 0 100 100;" xml:space="preserve">
<path d="M50,21.3c-3.875,0-7.569,0.806-10.93,2.263c-3.361,1.456-6.389,3.562-8.932,6.162s-4.603,5.694-6.027,9.125
	S21.9,46.05,21.9,50s0.788,7.719,2.211,11.15s3.483,6.525,6.027,9.125c2.543,2.6,5.571,4.706,8.932,6.162
	C42.431,77.894,46.125,78.7,50,78.7s7.569-0.806,10.93-2.262c3.361-1.456,6.389-3.562,8.933-6.163
	c2.543-2.6,4.603-5.694,6.026-9.125S78.1,53.95,78.1,50s-0.787-7.719-2.211-11.15c-1.423-3.431-3.483-6.525-6.026-9.125
	c-2.544-2.6-5.572-4.706-8.933-6.163C57.569,22.106,53.875,21.3,50,21.3z M52.6,50.4l4.275-4.075l4.275-4.075l4.275-4.075L69.7,34.1
	c0.85,1.1,1.613,2.269,2.278,3.497c0.666,1.228,1.234,2.516,1.697,3.853s0.819,2.725,1.059,4.153C74.975,47.031,75.1,48.5,75.1,50
	s-0.131,2.975-0.381,4.412S74.1,57.25,73.625,58.6s-1.056,2.65-1.731,3.888S70.45,64.9,69.6,66l-4.25-3.9l-4.25-3.9l-4.25-3.9
	L52.6,50.4z M67.8,31.9l-4.35,4.125L59.1,40.15l-4.35,4.125L50.4,48.4l-4.55-4.15L41.3,40.1l-4.55-4.15L32.2,31.8
	c1.15-1.15,2.4-2.194,3.737-3.112c1.338-0.919,2.763-1.713,4.263-2.363s3.075-1.156,4.713-1.5C46.55,24.481,48.25,24.3,50,24.3
	c1.725,0,3.413,0.181,5.045,0.527s3.211,0.855,4.718,1.511s2.941,1.459,4.286,2.392C65.394,29.663,66.65,30.725,67.8,31.9z
	 M30.3,34.1l4.475,4.1l4.475,4.1l4.475,4.1l4.475,4.1l-4.3,4.075l-4.3,4.075l-4.3,4.075L31,66.8
	c-0.95-1.125-1.806-2.338-2.556-3.624s-1.394-2.645-1.919-4.064c-0.525-1.418-0.931-2.897-1.206-4.42
	C25.044,53.169,24.9,51.6,24.9,50c0-1.5,0.125-2.969,0.366-4.397c0.241-1.428,0.597-2.816,1.059-4.153s1.031-2.625,1.697-3.853
	C28.688,36.369,29.45,35.2,30.3,34.1z M33.1,69l4.325-4.125l4.325-4.125l4.325-4.125L50.4,52.5l4.325,3.925l4.325,3.925l4.325,3.925
	L67.7,68.2c-1.125,1.15-2.363,2.188-3.694,3.097c-1.331,0.909-2.756,1.691-4.256,2.328s-3.075,1.131-4.706,1.466
	C53.413,75.425,51.725,75.6,50,75.6c-1.625,0.025-3.219-0.119-4.764-0.412s-3.042-0.738-4.473-1.312
	c-1.431-0.575-2.797-1.281-4.08-2.1S34.2,70.025,33.1,69z"/>
</svg>
