<?xml version="1.0" encoding="utf-8"?>
<!-- Generator: Adobe Illustrator 25.2.0, SVG Export Plug-In . SVG Version: 6.00 Build 0)  -->
<svg version="1.1" id="Layer_1" xmlns="http://www.w3.org/2000/svg" xmlns:xlink="http://www.w3.org/1999/xlink" x="0px" y="0px"
	 viewBox="0 0 100 100" style="enable-background:new 0 0 100 100;" xml:space="preserve">
<g>
	<g>
		<polygon points="78.3,62.8 89.5,51.4 78.3,39.1 78.3,44.4 72.9,44.4 72.9,57.4 78.3,57.4 		"/>
	</g>
	<g>
		<polygon points="21.2,39.6 10.5,50.5 21.2,62.3 21.2,57.2 26.5,57.2 26.5,44.7 21.2,44.7 		"/>
	</g>
	<g>
		<path d="M68,38.9l0,0.4l0.6,0l-0.1,7.4c0,0,0.2,0.7,0.8,0.7l-2.6,2.4l0.1-12.5c0,0-0.2-1-1.3-1c-1.1,0-1.6,0-1.6,0
			s-0.6-0.4-0.2-0.6c0.4-0.2,1-0.3,1-1.2c0-0.9-0.1-1.3-0.1-1.3s0-0.7-0.8-0.7s-1.8,0-1.8,0s-0.6,2.6-0.1,2.9
			c0.5,0.3,0.5,0.6,0.5,0.6h-6.3c0,0-0.2-0.4,0.3-0.6c0.6-0.2,1.7,0.2,2.2-1c0.5-1.2,1,0,1.1-0.7c0.1-0.7,0-3.8,0-3.8h-2.2
			c0,0-0.4,1-0.5,1.3H45.1c0,0,0.2-1.1-0.7-1.1c-0.9,0-2,0-2,0l-0.1,3.5c0,0,0.8,1.5,1.3,1.5c0.5,0,0.8-0.4,0.9-1
			c0-0.6,0.4-1.2,0.8-1.2c0.4,0,0.4,0,0.4,0v3.1h-6v-0.8c0,0,0.7-0.6,0.7-1.5c-0.1-0.8,0.3-1.4-0.5-1.4c-0.8,0-2.3-0.3-2.5,1.5
			c-0.2,1.8,0.9,1.8,0.9,1.8l0,0.4l-1.9,0c0,0-2,0.6-1.7,2.1l-4,0.1v8.9l3,2.6V49L32,47.6c0,0,0.7-0.6,0.8-1.5
			c0.1-0.9,0.3-7.1,0.3-7.1l0.4-0.2h1.4l-0.7,22.5c0,0-1.6,0.7-1.5,1.5c0.1,0.8,2.1,2.3,2.7,2.4v3.6c0,0,0.3,0.8,1.4,0.8
			c1.1,0,4,0,4,0v-2.8c0,0,1.2-0.4,2.5-1.8h13.6c0,0,1.2,2,1.9,2.2v2.1c0,0,0.3,0.7,1.3,0.7c1,0,4,0,4,0s0.5-0.1,0.5-1.1
			c0-0.9,0-3.3,0-3.3s1.3-0.2,1.8-1.3c0,0,1.2-0.3,1.2-0.9c0-0.7-0.1-1.3-1.2-1.8l0.1-10.6l4.2-3.2c0,0,0.4-0.1,0.4-0.4
			c0-0.3,0-8.4,0-8.4H68z M56.6,33h0.9l-0.1,0.7h0.4v1.1h-1.2V33z M51.4,39.3c0-0.4,0.3-0.8,0.8-0.8h13c0.4,0,0.8,0.3,0.8,0.8v7.5
			c0,0.4-0.3,0.8-0.8,0.8h-13c-0.4,0-0.8-0.3-0.8-0.8V39.3z M65.6,58.7v1.9c0,0.5-0.4,0.9-0.9,0.9h-3.5c-0.5,0-0.9-0.4-0.9-0.9v-1.9
			c0-0.5,0.4-0.9,0.9-0.9h3.5C65.2,57.8,65.6,58.2,65.6,58.7z M58.8,58.9H41.7c-0.2,0-0.4-0.2-0.4-0.4v-0.3c0-0.2,0.2-0.4,0.4-0.4
			h17.1c0.2,0,0.4,0.2,0.4,0.4v0.3C59.2,58.8,59,58.9,58.8,58.9z M59.2,60.5v0.3c0,0.2-0.2,0.4-0.4,0.4H41.7c-0.2,0-0.4-0.2-0.4-0.4
			v-0.3c0-0.2,0.2-0.4,0.4-0.4h17.1C59,60.1,59.2,60.3,59.2,60.5z M35.8,39.3c0-0.4,0.3-0.8,0.8-0.8h12.6c0.4,0,0.8,0.3,0.8,0.8v7.5
			c0,0.4-0.3,0.8-0.8,0.8H36.5c-0.4,0-0.8-0.3-0.8-0.8V39.3z M35,58.7c0-0.5,0.4-0.9,0.9-0.9h3.5c0.5,0,0.9,0.4,0.9,0.9v1.9
			c0,0.5-0.4,0.9-0.9,0.9h-3.5c-0.5,0-0.9-0.4-0.9-0.9V58.7z M66.6,63c0,0.3-0.2,0.5-0.5,0.5h-5.4c-0.3,0.1,0,1,0,1l0,0
			c0,0.1,0.1,0.2,0.1,0.3c0,0.7-0.7,1.3-1.5,1.3c-0.8,0-1.5-0.6-1.5-1.3c0-0.2,0.1-0.4,0.2-0.6l0,0c0.2-0.2,0.1-0.8,0.1-0.8H43.2
			c-0.2,0.1-0.5,0.3-0.6,0.5c-0.1,0.3-0.3,1.3-1.1,1.8c-0.2,0.2-0.5,0.3-0.8,0.3c-0.4,0-0.6-0.1-0.7-0.2c-0.3-0.2-0.6-0.5-0.6-0.9
			c0-0.4,0.2-0.7,0.5-0.9l0,0c0,0,0.8-0.3,0.1-0.5h-5.8c-0.3,0-0.5-0.2-0.5-0.5c0-0.3,0.2-0.5,0.5-0.5h31.8
			C66.4,62.5,66.6,62.7,66.6,63z"/>
	</g>
</g>
</svg>
