<?xml version="1.0" encoding="iso-8859-1"?>
<!-- Generator: Adobe Illustrator 25.3.1, SVG Export Plug-In . SVG Version: 6.00 Build 0)  -->
<svg version="1.1" id="Layer_1" xmlns="http://www.w3.org/2000/svg" xmlns:xlink="http://www.w3.org/1999/xlink" x="0px" y="0px"
	 viewBox="0 0 100 100" style="enable-background:new 0 0 100 100;" xml:space="preserve">
<polygon style="fill:#FFFFFF;" points="40.357,42.427 49.541,42.427 58.725,42.427 67.91,42.427 77.094,42.427 77.094,47.109 
	77.094,51.791 77.094,56.473 77.094,61.155 67.91,61.155 58.725,61.155 49.541,61.155 40.357,61.155 40.357,56.473 40.357,51.791 
	40.357,47.109 "/>
<polygon style="fill:#6A6A6A;" points="19.227,57.554 23.249,57.554 27.271,57.554 31.293,57.554 35.315,57.554 35.315,57.644 
	35.315,57.734 35.315,57.824 35.315,57.914 31.293,57.914 27.271,57.914 23.249,57.914 19.227,57.914 19.227,57.824 19.227,57.734 
	19.227,57.644 "/>
<path style="fill:#6A6A6A;" d="M33.514,61.275c-0.03-0.721-0.158-1.403-0.362-2.022c-0.204-0.619-0.486-1.174-0.823-1.64
	c-0.337-0.465-0.731-0.84-1.161-1.099s-0.895-0.402-1.376-0.402c-0.51,0-0.99,0.142-1.426,0.401c-0.435,0.259-0.825,0.634-1.155,1.1
	c-0.33,0.465-0.6,1.02-0.795,1.639c-0.195,0.619-0.315,1.302-0.346,2.023h1.861h1.861c0,0,0.931,0,1.861,0
	S33.514,61.275,33.514,61.275z"/>
<path style="fill:#6A6A6A;" d="M50.922,61.035v-0.631v-0.631v-0.631v-0.631c0,0,0.068-0.18,0.21-0.45
	c0.143-0.27,0.36-0.63,0.66-0.991c0.3-0.36,0.683-0.72,1.155-0.991s1.036-0.451,1.696-0.451s1.208,0.232,1.658,0.581
	s0.803,0.814,1.073,1.28c0.27,0.465,0.458,0.93,0.577,1.279c0.12,0.349,0.173,0.582,0.173,0.582v0.51v0.51v0.51v0.51l-1.801-0.09
	l-1.801-0.09l-1.8-0.089L50.922,61.035z"/>
<path style="fill:#6A6A6A;" d="M65.808,61.035v-0.631v-0.631v-0.631v-0.631c0,0-0.067-0.18-0.21-0.45
	c-0.143-0.27-0.36-0.63-0.66-0.991c-0.3-0.36-0.683-0.72-1.155-0.991s-1.036-0.451-1.696-0.451c-0.66,0-1.208,0.232-1.658,0.581
	c-0.45,0.349-0.803,0.814-1.073,1.28s-0.458,0.931-0.577,1.28c-0.12,0.349-0.173,0.581-0.173,0.581v0.54v0.54v0.54v0.54l1.801-0.12
	l1.801-0.12l1.8-0.119L65.808,61.035z"/>
<polygon style="fill:#6A6A6A;" points="20.908,61.035 34.865,61.035 48.821,61.035 62.777,61.035 76.733,61.035 76.733,61.155 
	76.733,61.275 76.733,61.395 76.733,61.515 62.777,61.515 48.821,61.515 34.865,61.515 20.908,61.515 20.908,61.395 20.908,61.275 
	20.908,61.155 "/>
<path style="fill:#FFFFFF;" d="M62.207,58.034c0.365,0,0.713,0.101,1.028,0.283s0.6,0.446,0.839,0.772s0.432,0.714,0.566,1.145
	c0.133,0.431,0.207,0.904,0.207,1.401s-0.074,0.971-0.207,1.401c-0.133,0.431-0.327,0.819-0.566,1.145
	c-0.239,0.326-0.523,0.59-0.84,0.772s-0.663,0.283-1.028,0.283s-0.712-0.101-1.028-0.283s-0.601-0.446-0.84-0.772
	c-0.239-0.326-0.432-0.714-0.566-1.145c-0.133-0.431-0.207-0.904-0.207-1.401s0.074-0.971,0.207-1.401
	c0.133-0.431,0.327-0.819,0.566-1.145c0.239-0.326,0.524-0.59,0.84-0.772C61.494,58.135,61.842,58.034,62.207,58.034z"/>
<g>
	<path d="M62.207,56.953c-0.45,0-0.878,0.127-1.266,0.36c-0.388,0.233-0.737,0.57-1.029,0.991c-0.293,0.42-0.529,0.923-0.693,1.486
		s-0.253,1.186-0.253,1.846c0,0.631,0.09,1.238,0.253,1.795s0.4,1.064,0.693,1.492c0.292,0.428,0.641,0.776,1.029,1.018
		c0.388,0.242,0.816,0.377,1.266,0.377s0.878-0.128,1.266-0.36c0.388-0.233,0.737-0.57,1.029-0.991
		c0.293-0.42,0.529-0.923,0.693-1.486s0.253-1.186,0.253-1.846s-0.09-1.283-0.253-1.846c-0.163-0.563-0.399-1.065-0.692-1.486
		c-0.293-0.42-0.641-0.757-1.03-0.99C63.085,57.081,62.657,56.953,62.207,56.953z M62.207,64.757c-0.3,0-0.585-0.09-0.844-0.253
		c-0.259-0.163-0.492-0.399-0.687-0.692c-0.195-0.293-0.353-0.642-0.461-1.03c-0.109-0.388-0.169-0.816-0.169-1.267
		s0.06-0.878,0.169-1.266c0.109-0.388,0.266-0.737,0.461-1.029c0.195-0.293,0.427-0.529,0.686-0.693s0.544-0.253,0.845-0.253
		s0.586,0.09,0.845,0.253c0.259,0.163,0.491,0.399,0.686,0.692c0.195,0.293,0.353,0.642,0.461,1.03
		c0.109,0.388,0.169,0.816,0.169,1.267s-0.06,0.878-0.169,1.266c-0.109,0.388-0.266,0.737-0.461,1.029
		c-0.195,0.293-0.428,0.529-0.687,0.693C62.792,64.667,62.507,64.757,62.207,64.757z"/>
</g>
<path style="fill:#FFFFFF;" d="M54.643,58.034c0.365,0,0.712,0.101,1.028,0.283s0.601,0.446,0.84,0.772s0.432,0.714,0.566,1.145
	c0.133,0.431,0.207,0.904,0.207,1.401s-0.074,0.971-0.207,1.401c-0.133,0.431-0.327,0.819-0.566,1.145
	c-0.239,0.326-0.523,0.59-0.84,0.772s-0.663,0.283-1.028,0.283s-0.712-0.101-1.028-0.283s-0.601-0.446-0.84-0.772
	c-0.239-0.326-0.432-0.714-0.566-1.145c-0.133-0.431-0.207-0.904-0.207-1.401s0.074-0.971,0.207-1.401
	c0.133-0.431,0.327-0.819,0.566-1.145c0.239-0.326,0.523-0.59,0.839-0.772C53.931,58.135,54.278,58.034,54.643,58.034z"/>
<g>
	<path d="M54.643,56.953c-0.45,0-0.878,0.127-1.266,0.36c-0.388,0.233-0.737,0.57-1.029,0.991c-0.293,0.42-0.529,0.923-0.693,1.486
		s-0.253,1.186-0.253,1.846c0,0.631,0.09,1.238,0.253,1.795s0.4,1.064,0.693,1.492c0.292,0.428,0.641,0.776,1.029,1.018
		c0.388,0.242,0.816,0.377,1.266,0.377s0.878-0.128,1.266-0.36c0.388-0.233,0.737-0.57,1.029-0.991
		c0.293-0.42,0.529-0.923,0.693-1.486s0.253-1.186,0.253-1.846s-0.09-1.283-0.253-1.846s-0.4-1.065-0.693-1.486
		c-0.292-0.42-0.64-0.757-1.029-0.99C55.521,57.081,55.093,56.953,54.643,56.953z M54.643,64.757c-0.3,0-0.585-0.09-0.844-0.253
		c-0.259-0.163-0.492-0.399-0.687-0.692c-0.195-0.293-0.353-0.642-0.461-1.03c-0.109-0.388-0.169-0.816-0.169-1.267
		s0.06-0.878,0.169-1.266c0.109-0.388,0.266-0.737,0.461-1.029c0.195-0.293,0.428-0.529,0.686-0.693s0.544-0.253,0.845-0.253
		s0.586,0.09,0.845,0.253c0.259,0.163,0.491,0.399,0.686,0.692c0.195,0.293,0.353,0.642,0.461,1.03
		c0.109,0.388,0.169,0.816,0.169,1.267c0.03,0.45-0.015,0.878-0.118,1.266c-0.103,0.388-0.264,0.737-0.467,1.029
		s-0.446,0.529-0.715,0.692S54.944,64.757,54.643,64.757z"/>
</g>
<path style="fill:#FFFFFF;" d="M29.672,58.034c0.365,0,0.712,0.101,1.028,0.283s0.601,0.446,0.84,0.772s0.432,0.714,0.566,1.145
	c0.133,0.431,0.207,0.904,0.207,1.401s-0.074,0.971-0.207,1.401c-0.134,0.431-0.327,0.819-0.566,1.145
	c-0.239,0.326-0.524,0.59-0.84,0.772s-0.663,0.283-1.028,0.283s-0.712-0.101-1.028-0.283s-0.601-0.446-0.84-0.772
	c-0.239-0.326-0.432-0.714-0.566-1.145c-0.134-0.431-0.207-0.904-0.207-1.401s0.074-0.971,0.207-1.401
	c0.133-0.431,0.327-0.819,0.566-1.145c0.239-0.326,0.524-0.59,0.84-0.772C28.959,58.135,29.307,58.034,29.672,58.034z"/>
<g>
	<path d="M29.552,56.953c-0.45,0-0.878,0.127-1.266,0.36c-0.388,0.233-0.738,0.57-1.031,0.991c-0.292,0.42-0.529,0.923-0.692,1.486
		c-0.163,0.563-0.253,1.186-0.253,1.846c0,0.631,0.09,1.238,0.253,1.795c0.163,0.557,0.399,1.064,0.692,1.492
		c0.293,0.428,0.642,0.776,1.03,1.018c0.388,0.242,0.816,0.377,1.267,0.377s0.878-0.128,1.267-0.36
		c0.388-0.233,0.737-0.57,1.03-0.991c0.292-0.42,0.529-0.923,0.692-1.486s0.253-1.186,0.253-1.846
		c0.03-0.66-0.045-1.283-0.202-1.846s-0.397-1.065-0.698-1.486c-0.301-0.42-0.661-0.757-1.059-0.99
		C30.437,57.081,30.002,56.953,29.552,56.953z M29.552,64.757c-0.3,0-0.585-0.09-0.844-0.253c-0.259-0.163-0.492-0.399-0.687-0.692
		c-0.195-0.293-0.352-0.642-0.461-1.03c-0.109-0.388-0.169-0.816-0.169-1.267s0.06-0.878,0.169-1.266
		c0.109-0.388,0.266-0.737,0.461-1.029c0.195-0.293,0.427-0.529,0.686-0.693s0.544-0.253,0.845-0.253s0.586,0.09,0.845,0.253
		c0.259,0.163,0.491,0.399,0.686,0.692c0.195,0.293,0.352,0.642,0.461,1.03c0.109,0.388,0.169,0.816,0.169,1.267
		c0.03,0.45-0.007,0.878-0.101,1.266c-0.094,0.388-0.244,0.737-0.439,1.029c-0.195,0.292-0.435,0.528-0.709,0.692
		C30.19,64.667,29.882,64.757,29.552,64.757z"/>
</g>
<path style="fill:#FFFFFF;" d="M36.515,52.631c-0.09,0-0.173-0.022-0.246-0.064c-0.073-0.041-0.137-0.101-0.189-0.176
	c-0.053-0.075-0.095-0.165-0.123-0.266c-0.028-0.101-0.043-0.214-0.043-0.334c0-0.12,0.015-0.233,0.043-0.334
	c0.028-0.101,0.07-0.191,0.123-0.266c0.052-0.075,0.116-0.135,0.189-0.176c0.073-0.041,0.156-0.064,0.246-0.064
	s0.173,0.022,0.246,0.064c0.073,0.041,0.137,0.101,0.189,0.176c0.053,0.075,0.095,0.165,0.123,0.266
	c0.028,0.101,0.043,0.214,0.043,0.334c0,0.12-0.015,0.233-0.043,0.334c-0.028,0.101-0.07,0.191-0.123,0.266
	c-0.053,0.075-0.116,0.135-0.189,0.176C36.688,52.609,36.605,52.631,36.515,52.631z"/>
<path d="M36.515,51.071c0.06,0,0.12,0.022,0.176,0.064c0.056,0.041,0.109,0.101,0.154,0.176s0.083,0.165,0.109,0.266
	c0.026,0.101,0.041,0.214,0.041,0.334s-0.015,0.233-0.041,0.334c-0.026,0.101-0.064,0.191-0.109,0.266s-0.097,0.135-0.154,0.176
	c-0.056,0.041-0.116,0.064-0.176,0.064s-0.12-0.022-0.176-0.064c-0.056-0.041-0.109-0.101-0.154-0.176s-0.083-0.165-0.109-0.266
	c-0.026-0.101-0.041-0.214-0.041-0.334c0-0.15,0.015-0.278,0.041-0.384c0.026-0.107,0.064-0.193,0.109-0.261
	c0.045-0.067,0.098-0.116,0.154-0.148C36.395,51.086,36.455,51.071,36.515,51.071 M36.515,50.83c-0.09,0-0.18,0.03-0.264,0.083
	c-0.084,0.052-0.163,0.127-0.231,0.217s-0.124,0.195-0.164,0.307c-0.04,0.112-0.062,0.232-0.062,0.353
	c0,0.15,0.022,0.285,0.062,0.403c0.04,0.118,0.096,0.22,0.164,0.303s0.147,0.147,0.231,0.19c0.084,0.043,0.174,0.065,0.264,0.065
	s0.18-0.03,0.264-0.083c0.084-0.052,0.163-0.127,0.231-0.217s0.124-0.195,0.164-0.307c0.04-0.112,0.062-0.233,0.062-0.353
	c0-0.15-0.022-0.285-0.062-0.403c-0.04-0.118-0.096-0.22-0.164-0.303c-0.068-0.083-0.147-0.147-0.231-0.19
	C36.695,50.852,36.605,50.83,36.515,50.83L36.515,50.83L36.515,50.83L36.515,50.83L36.515,50.83z"/>
<path style="fill:#FFFFFF;" d="M38.916,52.631c-0.09,0-0.173-0.022-0.246-0.064c-0.073-0.041-0.137-0.101-0.189-0.176
	c-0.053-0.075-0.095-0.165-0.123-0.266c-0.028-0.101-0.043-0.214-0.043-0.334c0-0.12,0.015-0.233,0.043-0.334
	c0.028-0.101,0.07-0.191,0.123-0.266c0.052-0.075,0.116-0.135,0.189-0.176c0.073-0.041,0.156-0.064,0.246-0.064
	s0.173,0.022,0.246,0.064c0.073,0.041,0.137,0.101,0.189,0.176c0.053,0.075,0.095,0.165,0.123,0.266
	c0.028,0.101,0.043,0.214,0.043,0.334c0,0.12-0.015,0.233-0.043,0.334c-0.028,0.101-0.07,0.191-0.123,0.266
	c-0.053,0.075-0.116,0.135-0.189,0.176C39.089,52.609,39.006,52.631,38.916,52.631z"/>
<path d="M38.916,51.071c0.06,0,0.12,0.022,0.176,0.064c0.056,0.041,0.109,0.101,0.154,0.176s0.083,0.165,0.109,0.266
	c0.026,0.101,0.041,0.214,0.041,0.334s-0.015,0.233-0.041,0.334c-0.026,0.101-0.064,0.191-0.109,0.266s-0.097,0.135-0.154,0.176
	c-0.056,0.041-0.116,0.064-0.176,0.064s-0.12-0.022-0.176-0.064c-0.056-0.041-0.109-0.101-0.154-0.176s-0.083-0.165-0.109-0.266
	c-0.026-0.101-0.041-0.214-0.041-0.334c0-0.15,0.015-0.278,0.041-0.384c0.026-0.107,0.064-0.193,0.109-0.261
	c0.045-0.067,0.097-0.116,0.154-0.148S38.856,51.071,38.916,51.071 M38.916,50.83c-0.09,0-0.18,0.03-0.264,0.083
	c-0.084,0.052-0.163,0.127-0.231,0.217s-0.124,0.195-0.164,0.307c-0.04,0.112-0.062,0.232-0.062,0.353
	c0,0.15,0.022,0.285,0.062,0.403c0.04,0.118,0.096,0.22,0.164,0.303s0.147,0.147,0.231,0.19c0.084,0.043,0.174,0.065,0.264,0.065
	s0.18-0.03,0.264-0.083c0.084-0.052,0.163-0.127,0.231-0.217s0.124-0.195,0.164-0.307c0.04-0.112,0.062-0.233,0.062-0.353
	c0-0.15-0.022-0.285-0.062-0.403c-0.04-0.118-0.096-0.22-0.164-0.303c-0.068-0.083-0.147-0.147-0.231-0.19
	C39.096,50.852,39.006,50.83,38.916,50.83L38.916,50.83L38.916,50.83L38.916,50.83L38.916,50.83z"/>
<path style="fill:#FFFFFF;" d="M37.596,56.833c-0.12,0-0.24-0.037-0.353-0.105s-0.217-0.165-0.307-0.285
	c-0.09-0.12-0.165-0.263-0.217-0.42c-0.053-0.157-0.083-0.33-0.083-0.51s0.022-0.353,0.066-0.51c0.043-0.158,0.107-0.3,0.189-0.42
	c0.083-0.12,0.184-0.217,0.303-0.285s0.253-0.105,0.403-0.105S37.882,54.23,38,54.298s0.22,0.165,0.303,0.285
	c0.082,0.12,0.146,0.263,0.189,0.42c0.043,0.157,0.066,0.33,0.066,0.51s-0.03,0.353-0.083,0.51c-0.052,0.158-0.127,0.3-0.217,0.42
	c-0.091,0.12-0.197,0.217-0.309,0.285S37.716,56.833,37.596,56.833z"/>
<path d="M37.596,54.312c0.12,0,0.233,0.038,0.334,0.103s0.191,0.159,0.266,0.272c0.075,0.112,0.135,0.243,0.176,0.384
	c0.041,0.141,0.064,0.292,0.064,0.442s-0.022,0.3-0.064,0.441c-0.041,0.141-0.101,0.272-0.176,0.385s-0.165,0.207-0.266,0.272
	s-0.214,0.103-0.334,0.103s-0.232-0.038-0.334-0.103s-0.191-0.159-0.266-0.272c-0.075-0.112-0.135-0.243-0.176-0.384
	c-0.041-0.141-0.064-0.292-0.064-0.442s0.022-0.3,0.064-0.441c0.041-0.141,0.101-0.272,0.176-0.385
	c0.075-0.113,0.164-0.207,0.266-0.272S37.476,54.312,37.596,54.312 M37.596,54.072c-0.15,0-0.292,0.037-0.422,0.107
	c-0.129,0.069-0.246,0.171-0.344,0.299s-0.177,0.282-0.231,0.456c-0.054,0.174-0.084,0.369-0.084,0.579s0.03,0.405,0.084,0.579
	c0.055,0.174,0.133,0.328,0.232,0.456c0.098,0.128,0.214,0.229,0.343,0.299c0.129,0.07,0.272,0.107,0.422,0.107
	s0.292-0.037,0.422-0.107c0.129-0.069,0.246-0.171,0.344-0.299s0.177-0.282,0.231-0.456c0.054-0.174,0.084-0.369,0.084-0.579
	s-0.03-0.405-0.084-0.579c-0.055-0.174-0.134-0.328-0.232-0.456c-0.097-0.128-0.214-0.229-0.343-0.299
	C37.889,54.109,37.746,54.072,37.596,54.072L37.596,54.072L37.596,54.072L37.596,54.072L37.596,54.072z"/>
<path style="fill:#A1A1A1;" d="M39.036,45.908c0.12-0.03,0.233-0.075,0.334-0.135c0.101-0.06,0.191-0.135,0.266-0.225
	s0.135-0.195,0.176-0.315c0.041-0.12,0.064-0.255,0.064-0.405s-0.022-0.292-0.064-0.422c-0.041-0.13-0.101-0.246-0.176-0.344
	s-0.165-0.177-0.266-0.231s-0.214-0.084-0.334-0.084s-0.225,0.022-0.317,0.064c-0.092,0.041-0.171,0.101-0.239,0.176
	c-0.067,0.075-0.124,0.165-0.171,0.266c-0.047,0.101-0.085,0.214-0.114,0.334h-0.12h-0.12h-0.12h-0.12
	c-0.03-0.12-0.075-0.233-0.131-0.334c-0.056-0.101-0.124-0.191-0.199-0.266s-0.158-0.135-0.244-0.176
	c-0.086-0.041-0.176-0.064-0.266-0.064c-0.12,0-0.233,0.03-0.334,0.084s-0.191,0.134-0.266,0.232s-0.135,0.215-0.176,0.344
	c-0.041,0.13-0.064,0.272-0.064,0.422s0.022,0.292,0.064,0.422c0.041,0.129,0.101,0.246,0.176,0.344s0.165,0.177,0.266,0.231
	c0.101,0.055,0.214,0.085,0.334,0.085c-0.12,0.03-0.233,0.075-0.334,0.135c-0.101,0.06-0.191,0.135-0.266,0.225
	s-0.135,0.195-0.176,0.315c-0.041,0.12-0.064,0.255-0.064,0.405s0.022,0.293,0.064,0.422c0.041,0.129,0.101,0.246,0.176,0.344
	s0.165,0.177,0.266,0.231c0.101,0.055,0.214,0.085,0.334,0.085c0.09,0,0.18-0.022,0.266-0.062s0.169-0.096,0.244-0.164
	c0.075-0.068,0.143-0.148,0.199-0.233c0.056-0.085,0.101-0.175,0.131-0.265h0.15h0.15h0.15h0.15c0.03,0.12,0.075,0.225,0.131,0.315
	c0.056,0.09,0.124,0.165,0.199,0.225s0.158,0.105,0.244,0.135c0.086,0.03,0.176,0.045,0.266,0.045c0.12,0,0.233-0.03,0.334-0.084
	s0.191-0.133,0.266-0.232c0.075-0.098,0.135-0.215,0.176-0.344c0.041-0.13,0.064-0.272,0.064-0.422
	c-0.03-0.15-0.075-0.285-0.133-0.405c-0.058-0.12-0.129-0.225-0.212-0.315c-0.082-0.09-0.175-0.164-0.278-0.224
	C39.269,45.983,39.156,45.938,39.036,45.908z M38.196,46.749h-0.12h-0.12h-0.12h-0.12c-0.03-0.12-0.068-0.225-0.113-0.317
	c-0.045-0.092-0.097-0.171-0.157-0.239c-0.06-0.067-0.127-0.124-0.202-0.171c-0.075-0.047-0.158-0.085-0.248-0.114
	c0.09,0,0.173-0.022,0.248-0.062s0.142-0.096,0.202-0.164s0.112-0.147,0.157-0.231c0.045-0.084,0.083-0.174,0.113-0.264h0.15h0.15
	h0.15h0.15c0.03,0.09,0.068,0.18,0.113,0.264c0.045,0.084,0.097,0.163,0.157,0.231s0.127,0.124,0.202,0.164
	c0.075,0.04,0.158,0.062,0.248,0.062c-0.12,0-0.233,0.022-0.334,0.064c-0.101,0.041-0.191,0.101-0.266,0.176
	c-0.075,0.075-0.135,0.165-0.176,0.267C38.218,46.516,38.196,46.629,38.196,46.749z M39.036,44.107c0.06,0,0.12,0.015,0.176,0.045
	c0.056,0.03,0.109,0.075,0.154,0.135s0.083,0.135,0.109,0.225c0.026,0.09,0.041,0.195,0.041,0.315c0,0.09-0.015,0.18-0.041,0.264
	c-0.026,0.084-0.064,0.163-0.109,0.231c-0.045,0.067-0.097,0.124-0.154,0.163c-0.056,0.04-0.116,0.063-0.176,0.063
	s-0.12-0.015-0.176-0.045c-0.056-0.03-0.109-0.075-0.154-0.135s-0.083-0.135-0.109-0.225c-0.026-0.09-0.041-0.195-0.041-0.315
	s0.015-0.225,0.041-0.315c0.026-0.09,0.064-0.165,0.109-0.225c0.045-0.06,0.098-0.106,0.154-0.136
	C38.916,44.122,38.976,44.107,39.036,44.107z M36.395,44.828c0-0.09,0.015-0.18,0.041-0.264c0.026-0.084,0.064-0.163,0.109-0.231
	s0.097-0.124,0.154-0.164c0.056-0.04,0.116-0.062,0.176-0.062s0.12,0.015,0.176,0.045c0.056,0.03,0.109,0.075,0.154,0.135
	s0.083,0.135,0.109,0.225c0.026,0.09,0.041,0.195,0.041,0.315c0,0.09-0.015,0.18-0.041,0.264c-0.026,0.084-0.064,0.163-0.109,0.231
	c-0.045,0.067-0.097,0.124-0.154,0.163c-0.056,0.04-0.116,0.063-0.176,0.063c-0.09-0.03-0.165-0.068-0.227-0.112
	c-0.062-0.045-0.111-0.098-0.148-0.158c-0.037-0.06-0.063-0.127-0.08-0.202S36.395,44.918,36.395,44.828z M36.755,47.709
	c-0.06,0-0.12-0.015-0.176-0.045c-0.056-0.03-0.109-0.075-0.154-0.135s-0.083-0.135-0.109-0.225
	c-0.026-0.09-0.041-0.195-0.041-0.315s0.015-0.225,0.041-0.315c0.026-0.09,0.064-0.165,0.109-0.225
	c0.045-0.06,0.097-0.105,0.154-0.135c0.056-0.03,0.116-0.045,0.176-0.045s0.12,0.015,0.176,0.045
	c0.056,0.03,0.109,0.075,0.154,0.135s0.083,0.135,0.109,0.225c0.026,0.09,0.041,0.195,0.041,0.315s-0.015,0.225-0.041,0.315
	c-0.026,0.09-0.064,0.165-0.109,0.225c-0.045,0.06-0.098,0.105-0.154,0.135C36.875,47.694,36.815,47.709,36.755,47.709z
	 M39.036,47.709c-0.06,0-0.12-0.015-0.176-0.045c-0.056-0.03-0.109-0.075-0.154-0.135s-0.083-0.135-0.109-0.225
	c-0.026-0.09-0.041-0.195-0.041-0.315s0.015-0.225,0.041-0.315c0.026-0.09,0.064-0.165,0.109-0.225
	c0.045-0.06,0.097-0.105,0.154-0.135c0.056-0.03,0.116-0.045,0.176-0.045s0.12,0.015,0.176,0.045
	c0.056,0.03,0.109,0.075,0.154,0.135s0.083,0.135,0.109,0.225c0.026,0.09,0.041,0.195,0.041,0.315s-0.022,0.225-0.058,0.315
	c-0.036,0.09-0.084,0.165-0.136,0.225c-0.053,0.06-0.11,0.105-0.16,0.135C39.111,47.694,39.066,47.709,39.036,47.709z"/>
<polygon style="fill:#6A6A6A;" points="21.148,42.307 24.6,42.307 28.051,42.307 31.502,42.307 34.954,42.307 34.954,42.427 
	34.954,42.547 34.954,42.667 34.954,42.787 31.502,42.787 28.051,42.787 24.6,42.787 21.148,42.787 21.148,42.667 21.148,42.547 
	21.148,42.427 "/>
<polygon style="fill:#6A6A6A;" points="34.954,43.147 35.075,43.147 35.195,43.147 35.315,43.147 35.435,43.147 35.435,47.649 
	35.435,52.151 35.435,56.653 35.435,61.155 35.315,61.155 35.195,61.155 35.075,61.155 34.954,61.155 34.954,56.653 34.954,52.151 
	34.954,47.649 "/>
<polygon style="fill:#6A6A6A;" points="35.315,58.994 36.605,58.994 37.896,58.994 39.187,58.994 40.477,58.994 40.477,59.114 
	40.477,59.234 40.477,59.354 40.477,59.474 39.187,59.474 37.896,59.474 36.605,59.474 35.315,59.474 35.315,59.354 35.315,59.234 
	35.315,59.114 "/>
<polygon style="fill:#6A6A6A;" points="35.435,48.429 36.666,48.429 37.896,48.429 39.126,48.429 40.357,48.429 40.357,48.549 
	40.357,48.67 40.357,48.79 40.357,48.91 39.126,48.91 37.896,48.91 36.666,48.91 35.435,48.91 35.435,48.79 35.435,48.67 
	35.435,48.549 "/>
<polygon style="fill:#6A6A6A;" points="49.961,54.192 50.111,54.192 50.261,54.192 50.411,54.192 50.562,54.192 50.562,55.963 
	50.562,57.734 50.562,59.505 50.562,61.275 50.411,61.275 50.261,61.275 50.111,61.275 49.961,61.275 49.961,59.505 49.961,57.734 
	49.961,55.963 "/>
<polygon style="fill:#6A6A6A;" points="76.733,42.307 76.883,42.307 77.034,42.307 77.184,42.307 77.334,42.307 77.334,47.109 
	77.334,51.911 77.334,56.713 77.334,61.515 77.184,61.515 77.034,61.515 76.883,61.515 76.733,61.515 76.733,56.713 76.733,51.911 
	76.733,47.109 "/>
<path style="fill:#6A6A6A;" d="M70.25,33.182l-0.27,0.45l-0.27,0.45l-0.27,0.45l-0.27,0.45l-12.576,0.03l-12.576,0.03l-12.576,0.03
	l-12.575,0.03c0,0-0.067,0.097-0.174,0.274c-0.107,0.176-0.253,0.431-0.411,0.746c-0.158,0.315-0.327,0.69-0.479,1.107
	s-0.287,0.874-0.377,1.354s-0.083,0.885-0.021,1.223s0.179,0.608,0.306,0.818c0.127,0.21,0.266,0.36,0.373,0.458
	c0.107,0.097,0.182,0.142,0.182,0.142h14.376H47.02h14.376h14.377l-1.381-2.011l-1.381-2.011l-1.381-2.01L70.25,33.182z
	 M18.267,39.425c0-0.3,0.052-0.615,0.131-0.919c0.079-0.304,0.184-0.597,0.289-0.852s0.21-0.472,0.289-0.626
	c0.079-0.154,0.131-0.244,0.131-0.244l0.24,0.871l0.24,0.87l0.24,0.87l0.24,0.871c0,0-0.113,0.03-0.281,0.054
	c-0.169,0.024-0.394,0.043-0.619,0.02c-0.225-0.022-0.45-0.086-0.619-0.226C18.379,39.973,18.267,39.756,18.267,39.425z
	 M19.587,35.944l1.08,0.03l1.08,0.03l1.08,0.03l1.08,0.03l-0.81,1.08l-0.811,1.081l-0.811,1.081l-0.81,1.08l-0.27-1.111l-0.27-1.111
	l-0.27-1.111L19.587,35.944z M21.628,40.386l0.81-1.05l0.811-1.051l0.811-1.051l0.81-1.05l0.84,1.05l0.84,1.051l0.84,1.051
	l0.84,1.05h-1.651H24.93h-1.651H21.628z M25.59,35.944l1.681,0.03l1.681,0.03l1.681,0.03l1.681,0.03l-0.811,1.08l-0.81,1.081
	l-0.81,1.081l-0.811,1.08l-0.87-1.111l-0.871-1.111l-0.871-1.111L25.59,35.944z M30.272,40.386l0.811-1.05l0.81-1.051l0.81-1.051
	l0.811-1.05l0.84,1.05l0.84,1.051l0.84,1.051l0.84,1.05h-1.651h-1.651h-1.651H30.272z M34.714,35.944l1.681,0.03l1.681,0.03
	l1.681,0.03l1.681,0.03l-0.81,1.08l-0.811,1.081l-0.811,1.081l-0.81,1.08l-0.871-1.111l-0.87-1.111l-0.87-1.111L34.714,35.944z
	 M39.396,40.386l0.81-1.05l0.811-1.051l0.811-1.051l0.81-1.05l0.84,1.05l0.84,1.051l0.84,1.051l0.84,1.05h-1.651h-1.651h-1.651
	H39.396z M43.718,35.944l1.681,0.03l1.681,0.03l1.681,0.03l1.681,0.03l-0.81,1.08l-0.811,1.081l-0.811,1.081l-0.81,1.08
	l-0.871-1.111l-0.87-1.111l-0.87-1.111L43.718,35.944z M48.401,40.386l0.811-1.05l0.81-1.051l0.81-1.051l0.811-1.05l0.84,1.05
	l0.84,1.051l0.84,1.051l0.84,1.05h-1.651h-1.651h-1.651H48.401z M52.843,35.944l1.681,0.03l1.681,0.03l1.681,0.03l1.681,0.03
	l-0.81,1.08l-0.811,1.081l-0.811,1.081l-0.81,1.08l-0.871-1.111l-0.87-1.111l-0.87-1.111L52.843,35.944z M57.525,40.386l0.811-1.05
	l0.81-1.051l0.81-1.051l0.811-1.05l0.84,1.05l0.84,1.051l0.84,1.051l0.84,1.05h-1.65h-1.651h-1.652H57.525z M61.847,35.944
	l1.681,0.03l1.681,0.03l1.681,0.03l1.681,0.03l-0.811,1.08l-0.811,1.081l-0.811,1.081l-0.811,1.08l-0.87-1.111l-0.871-1.111
	l-0.87-1.111L61.847,35.944z M70.371,35.463l0.87,1.17l0.87,1.171l0.87,1.171l0.87,1.17h-1.741h-1.741H68.63h-1.741l0.87-1.17
	l0.87-1.171l0.871-1.171L70.371,35.463z"/>
<polygon style="fill:#6A6A6A;" points="39.877,42.307 49.151,42.307 58.425,42.307 67.7,42.307 76.974,42.307 76.974,42.427 
	76.974,42.547 76.974,42.667 76.974,42.787 67.7,42.787 58.425,42.787 49.151,42.787 39.877,42.787 39.877,42.667 39.877,42.547 
	39.877,42.427 "/>
<polygon style="fill:#6A6A6A;" points="39.877,42.307 40.117,42.307 40.357,42.307 40.597,42.307 40.837,42.307 40.837,47.049 
	40.837,51.791 40.837,56.533 40.837,61.275 40.597,61.275 40.357,61.275 40.117,61.275 39.877,61.275 39.877,56.533 39.877,51.791 
	39.877,47.049 "/>
<polygon style="fill:#6A6A6A;" points="49.961,54.192 54.073,54.192 58.185,54.192 62.297,54.192 66.409,54.192 66.409,54.342 
	66.409,54.492 66.409,54.642 66.409,54.792 62.297,54.792 58.185,54.792 54.073,54.792 49.961,54.792 49.961,54.642 49.961,54.492 
	49.961,54.342 "/>
<polygon style="fill:#6A6A6A;" points="65.808,54.192 65.928,54.192 66.049,54.192 66.169,54.192 66.289,54.192 66.289,55.933 
	66.289,57.674 66.289,59.414 66.289,61.155 66.169,61.155 66.049,61.155 65.928,61.155 65.808,61.155 65.808,59.414 65.808,57.674 
	65.808,55.933 "/>
<polygon style="fill:#ECECEC;" points="67.249,43.147 69.53,43.147 71.811,43.147 74.092,43.147 76.373,43.147 76.373,47.349 
	76.373,51.551 76.373,55.753 76.373,59.955 74.092,59.955 71.811,59.955 69.53,59.955 67.249,59.955 67.249,55.753 67.249,51.551 
	67.249,47.349 "/>
<polygon style="fill:#ECECEC;" points="59.566,43.147 61.246,43.147 62.927,43.147 64.608,43.147 66.289,43.147 66.289,45.788 
	66.289,48.429 66.289,51.071 66.289,53.712 64.608,53.712 62.927,53.712 61.246,53.712 59.566,53.712 59.566,51.071 59.566,48.429 
	59.566,45.788 "/>
<polygon style="fill:#ECECEC;" points="50.201,43.147 52.392,43.147 54.583,43.147 56.774,43.147 58.965,43.147 58.965,45.788 
	58.965,48.429 58.965,51.071 58.965,53.712 56.774,53.712 54.583,53.712 52.392,53.712 50.201,53.712 50.201,51.071 50.201,48.429 
	50.201,45.788 "/>
<polygon style="fill:#ECECEC;" points="41.077,43.147 43.178,43.147 45.279,43.147 47.38,43.147 49.481,43.147 49.481,47.589 
	49.481,52.031 49.481,56.473 49.481,60.915 47.38,60.915 45.279,60.915 43.178,60.915 41.077,60.915 41.077,56.473 41.077,52.031 
	41.077,47.589 "/>
<polygon style="fill:#ACACAC;" points="23.069,43.627 24.27,43.627 25.47,43.627 26.67,43.627 27.871,43.627 27.871,43.747 
	27.871,43.867 27.871,43.987 27.871,44.107 26.67,44.107 25.47,44.107 24.27,44.107 23.069,44.107 23.069,43.987 23.069,43.867 
	23.069,43.747 "/>
<polygon style="fill:#ACACAC;" points="27.391,43.627 27.511,43.627 27.631,43.627 27.751,43.627 27.871,43.627 27.871,45.068 
	27.871,46.509 27.871,47.95 27.871,49.39 27.751,49.39 27.631,49.39 27.511,49.39 27.391,49.39 27.391,47.95 27.391,46.509 
	27.391,45.068 "/>
<polygon style="fill:#ACACAC;" points="29.792,43.627 29.912,43.627 30.032,43.627 30.152,43.627 30.272,43.627 30.272,45.068 
	30.272,46.509 30.272,47.95 30.272,49.39 30.152,49.39 30.032,49.39 29.912,49.39 29.792,49.39 29.792,47.95 29.792,46.509 
	29.792,45.068 "/>
<polygon style="fill:#ACACAC;" points="28.231,43.747 28.351,43.747 28.471,43.747 28.591,43.747 28.712,43.747 28.712,45.188 
	28.712,46.629 28.712,48.069 28.712,49.51 28.591,49.51 28.471,49.51 28.351,49.51 28.231,49.51 28.231,48.069 28.231,46.629 
	28.231,45.188 "/>
<polygon style="fill:#ACACAC;" points="22.109,48.91 23.52,48.91 24.93,48.91 26.34,48.91 27.751,48.91 27.751,49.03 27.751,49.15 
	27.751,49.27 27.751,49.39 26.34,49.39 24.93,49.39 23.52,49.39 22.109,49.39 22.109,49.27 22.109,49.15 22.109,49.03 "/>
<path style="fill:#FFFFFF;" d="M24.029,49.99h-0.15h-0.15h-0.15h-0.15c-0.06,0-0.12-0.015-0.176-0.041
	c-0.056-0.026-0.109-0.064-0.154-0.109s-0.083-0.097-0.109-0.154c-0.026-0.056-0.041-0.116-0.041-0.176v-0.871v-0.87v-0.87v-0.871
	c0-0.06,0.015-0.12,0.041-0.176c0.026-0.056,0.064-0.109,0.109-0.154s0.097-0.083,0.154-0.109c0.056-0.026,0.116-0.041,0.176-0.041
	h0.15h0.15h0.15h0.15c0.06,0,0.12,0.015,0.176,0.041c0.056,0.026,0.109,0.064,0.154,0.109s0.083,0.097,0.109,0.154
	c0.026,0.056,0.041,0.116,0.041,0.176v0.871v0.87v0.87v0.871c0,0.06-0.015,0.12-0.041,0.176c-0.026,0.056-0.064,0.109-0.109,0.154
	s-0.097,0.083-0.153,0.109C24.149,49.975,24.09,49.99,24.029,49.99z"/>
<path style="fill:#ACACAC;" d="M24.029,50.11h-0.15h-0.15h-0.15h-0.15c-0.09,0-0.173-0.015-0.246-0.043
	c-0.073-0.028-0.137-0.07-0.189-0.123c-0.053-0.052-0.094-0.116-0.123-0.189c-0.028-0.073-0.043-0.156-0.043-0.246v-0.871v-0.87
	v-0.87v-0.871c0-0.09,0.015-0.173,0.043-0.246c0.028-0.073,0.07-0.137,0.123-0.189c0.052-0.053,0.116-0.094,0.189-0.123
	s0.156-0.043,0.246-0.043h0.15h0.15h0.15h0.15c0.09,0,0.173,0.015,0.246,0.043c0.073,0.028,0.137,0.07,0.189,0.123
	c0.053,0.052,0.094,0.116,0.123,0.189c0.028,0.073,0.043,0.156,0.043,0.246v0.871v0.87v0.87v0.871c0,0.09-0.015,0.173-0.043,0.246
	c-0.028,0.073-0.07,0.137-0.123,0.189c-0.052,0.053-0.115,0.094-0.189,0.123C24.202,50.095,24.119,50.11,24.029,50.11z
	 M23.429,45.788c-0.03,0-0.06,0.007-0.088,0.021c-0.028,0.013-0.055,0.031-0.078,0.054c-0.022,0.023-0.041,0.049-0.053,0.078
	c-0.013,0.028-0.021,0.058-0.021,0.088v0.87v0.871v0.871v0.87c0,0.03,0.007,0.06,0.021,0.088c0.013,0.028,0.031,0.055,0.053,0.078
	c0.023,0.022,0.049,0.041,0.078,0.054c0.028,0.013,0.058,0.021,0.088,0.021h0.15h0.15h0.15h0.15c0.03,0,0.06-0.007,0.088-0.021
	c0.028-0.013,0.055-0.031,0.078-0.054c0.022-0.023,0.041-0.049,0.053-0.078c0.013-0.028,0.021-0.058,0.021-0.088v-0.87v-0.871
	v-0.871v-0.87c0-0.03-0.007-0.06-0.021-0.088c-0.013-0.028-0.031-0.055-0.053-0.078c-0.023-0.022-0.049-0.041-0.078-0.054
	c-0.028-0.013-0.058-0.021-0.088-0.021h-0.15h-0.15h-0.15H23.429z"/>
<polygon style="fill:#ACACAC;" points="28.351,43.627 28.802,43.627 29.252,43.627 29.702,43.627 30.152,43.627 30.152,43.747 
	30.152,43.867 30.152,43.987 30.152,44.107 29.702,44.107 29.252,44.107 28.802,44.107 28.351,44.107 28.351,43.987 28.351,43.867 
	28.351,43.747 "/>
<polygon style="fill:#ACACAC;" points="28.471,48.91 28.861,48.91 29.252,48.91 29.642,48.91 30.032,48.91 30.032,49.03 
	30.032,49.15 30.032,49.27 30.032,49.39 29.642,49.39 29.252,49.39 28.861,49.39 28.471,49.39 28.471,49.27 28.471,49.15 
	28.471,49.03 "/>
<polygon style="fill:#ACACAC;" points="30.753,43.747 31.713,43.747 32.673,43.747 33.633,43.747 34.594,43.747 34.594,43.867 
	34.594,43.987 34.594,44.107 34.594,44.227 33.633,44.227 32.673,44.227 31.713,44.227 30.753,44.227 30.753,44.107 30.753,43.987 
	30.753,43.867 "/>
<polygon style="fill:#ACACAC;" points="30.753,48.91 31.713,48.91 32.673,48.91 33.633,48.91 34.594,48.91 34.594,49.03 
	34.594,49.15 34.594,49.27 34.594,49.39 33.633,49.39 32.673,49.39 31.713,49.39 30.753,49.39 30.753,49.27 30.753,49.15 
	30.753,49.03 "/>
<polygon style="fill:#ACACAC;" points="30.753,43.747 30.873,43.747 30.993,43.747 31.113,43.747 31.233,43.747 31.233,45.128 
	31.233,46.509 31.233,47.889 31.233,49.27 31.113,49.27 30.993,49.27 30.873,49.27 30.753,49.27 30.753,47.889 30.753,46.509 
	30.753,45.128 "/>
<polygon style="fill:#ACACAC;" points="34.114,43.747 34.234,43.747 34.354,43.747 34.474,43.747 34.594,43.747 34.594,45.158 
	34.594,46.569 34.594,47.979 34.594,49.39 34.474,49.39 34.354,49.39 34.234,49.39 34.114,49.39 34.114,47.979 34.114,46.569 
	34.114,45.158 "/>
<path style="fill:#777777;" d="M19.707,58.274h-0.15h-0.15h-0.15h-0.15v-0.39v-0.39v-0.39v-0.39h0.15h0.15h0.15h0.15v-0.51v-0.51
	v-0.51v-0.51h-0.15h-0.15h-0.15h-0.15v-0.09v-0.09v-0.09v-0.09c0-0.06,0-0.413,0.004-0.919s0.011-1.167,0.026-1.842
	c0.015-0.676,0.038-1.366,0.071-1.932c0.034-0.566,0.079-1.009,0.139-1.189c0.03-0.18,0.142-0.63,0.295-1.208
	s0.344-1.283,0.531-1.973c0.188-0.69,0.371-1.366,0.508-1.883c0.137-0.518,0.227-0.878,0.227-0.938l0.03-0.06l0.03-0.06l0.03-0.06
	l0.03-0.06h3.511h3.512h3.511h3.511v0.15v0.15v0.15v0.15h-3.422h-3.421H24.81h-3.422c-0.06,0.24-0.18,0.683-0.328,1.221
	c-0.148,0.539-0.325,1.173-0.498,1.796c-0.173,0.622-0.341,1.234-0.474,1.727s-0.231,0.869-0.261,1.019
	c0,0.12-0.007,0.42-0.019,0.829c-0.011,0.409-0.026,0.927-0.041,1.482c-0.015,0.556-0.03,1.148-0.041,1.707
	c-0.011,0.559-0.019,1.084-0.019,1.504h0.15h0.15h0.15h0.15v0.811v0.81v0.81v0.811h-0.15h-0.15h-0.15h-0.15v0.24v0.24v0.239V58.274z
	"/>
<path style="fill:#777777;" d="M19.587,50.951l-0.06-0.15l-0.06-0.15l-0.06-0.15l-0.06-0.15c0.3-0.09,0.6-0.202,0.884-0.328
	s0.55-0.264,0.782-0.407c0.233-0.143,0.431-0.29,0.579-0.43c0.148-0.141,0.246-0.276,0.276-0.396c0.03-0.18,0.075-0.495,0.126-0.883
	c0.051-0.388,0.107-0.85,0.159-1.322c0.053-0.473,0.102-0.957,0.138-1.39c0.036-0.433,0.058-0.816,0.058-1.087h-0.39h-0.39h-0.39
	h-0.39v-0.15v-0.15v-0.15v-0.15l0.571,0.03l0.57,0.03l0.57,0.03l0.571,0.03v0.09v0.09v0.09v0.09c0,0.03-0.023,0.308-0.06,0.721
	c-0.038,0.413-0.09,0.96-0.15,1.53c-0.06,0.57-0.128,1.163-0.195,1.666c-0.068,0.503-0.135,0.915-0.195,1.125
	c-0.06,0.24-0.247,0.472-0.501,0.688c-0.253,0.216-0.572,0.415-0.894,0.588c-0.324,0.172-0.651,0.318-0.92,0.429
	S19.677,50.921,19.587,50.951z"/>
<path style="fill:#777777;" d="M20.068,61.155h-0.18h-0.18h-0.18h-0.18c-0.18,0-0.353-0.037-0.51-0.105s-0.3-0.165-0.42-0.285
	c-0.12-0.12-0.217-0.263-0.285-0.42c-0.067-0.157-0.105-0.33-0.105-0.51v-0.18v-0.18v-0.18v-0.18c0-0.18,0.038-0.353,0.105-0.51
	c0.068-0.158,0.165-0.3,0.285-0.42s0.263-0.217,0.42-0.285s0.33-0.105,0.51-0.105h0.18h0.18h0.18h0.18
	c0.18,0,0.353,0.037,0.51,0.105s0.3,0.165,0.42,0.285c0.12,0.12,0.217,0.263,0.285,0.42c0.067,0.157,0.105,0.33,0.105,0.51v0.18
	v0.18v0.18v0.18c0,0.18-0.038,0.353-0.105,0.51c-0.068,0.158-0.165,0.3-0.285,0.42c-0.12,0.12-0.263,0.217-0.42,0.285
	C20.42,61.118,20.248,61.155,20.068,61.155z M19.467,58.514c-0.09,0-0.18,0.022-0.264,0.062c-0.085,0.04-0.164,0.096-0.232,0.164
	c-0.067,0.067-0.123,0.146-0.163,0.23s-0.062,0.175-0.062,0.265v0.15v0.15v0.15v0.15c0,0.09,0.022,0.18,0.062,0.264
	c0.039,0.084,0.096,0.163,0.164,0.231c0.067,0.068,0.146,0.125,0.23,0.164c0.084,0.04,0.175,0.062,0.265,0.062h0.18h0.18h0.18h0.18
	c0.09,0,0.18-0.022,0.264-0.062c0.085-0.04,0.164-0.096,0.232-0.164c0.067-0.067,0.123-0.146,0.163-0.23s0.062-0.175,0.062-0.265
	v-0.18v-0.18v-0.18v-0.18c0-0.09-0.022-0.18-0.062-0.264c-0.039-0.084-0.096-0.163-0.164-0.231c-0.067-0.068-0.146-0.125-0.23-0.164
	c-0.084-0.04-0.175-0.062-0.265-0.062h-0.18h-0.18h-0.18h-0.18v0.03v0.03v0.03V58.514z"/>
<path style="fill:#6A6A6A;" d="M79.735,61.035h-0.66h-0.66h-0.66h-0.66v-0.15v-0.15v-0.15v-0.15h0.51h0.51h0.51h0.51
	c0-0.45,0-1.343,0-2.459c0-1.116,0-2.456,0-3.799s0-2.69,0-3.821s0-2.046,0-2.526c0-0.15-0.007-0.285-0.024-0.407
	c-0.017-0.122-0.044-0.231-0.082-0.328c-0.037-0.098-0.085-0.185-0.147-0.262c-0.062-0.077-0.137-0.144-0.228-0.204
	c-0.15-0.12-0.323-0.203-0.497-0.259c-0.174-0.056-0.351-0.086-0.509-0.101c-0.158-0.015-0.297-0.015-0.396-0.011
	s-0.16,0.011-0.16,0.011l-0.03-0.15l-0.03-0.15l-0.029-0.15l-0.03-0.15c0,0,0.075-0.007,0.201-0.007s0.302,0.007,0.505,0.037
	c0.203,0.03,0.432,0.083,0.662,0.173s0.463,0.217,0.673,0.397c0.12,0.09,0.225,0.195,0.313,0.313
	c0.088,0.118,0.16,0.249,0.213,0.392c0.052,0.143,0.086,0.297,0.099,0.46s0.005,0.336-0.025,0.516c0,0.57,0,1.659,0,2.972
	s0,2.851,0,4.321c0,1.471,0,2.874,0,3.917s0,1.726,0,1.756l0.03,0.03l0.03,0.03l0.032,0.029L79.735,61.035z"/>
<path style="fill:#E7443A;" d="M50,25.2c-3.675,0-7.181,0.694-10.374,1.948c-3.192,1.255-6.07,3.071-8.49,5.315
	s-4.378,4.916-5.733,7.883S23.3,46.575,23.3,50s0.75,6.688,2.105,9.655c1.355,2.967,3.314,5.639,5.732,7.882
	s5.297,4.059,8.489,5.314S46.325,74.8,50,74.8s7.181-0.694,10.373-1.949c3.192-1.255,6.07-3.07,8.489-5.314
	c2.419-2.243,4.378-4.915,5.733-7.882S76.7,53.425,76.7,50s-0.75-6.688-2.105-9.655s-3.314-5.639-5.733-7.882
	s-5.297-4.059-8.489-5.314C57.181,25.894,53.675,25.2,50,25.2z M26,50c0-1.5,0.163-2.963,0.47-4.375
	c0.308-1.412,0.761-2.775,1.342-4.075s1.291-2.538,2.111-3.7s1.752-2.25,2.777-3.25l8.225,8.075l8.225,8.075l8.225,8.075L65.6,66.9
	c-1.05,0.85-2.181,1.612-3.381,2.278c-1.2,0.666-2.469,1.234-3.794,1.697c-1.325,0.463-2.706,0.819-4.131,1.059S51.4,72.3,49.9,72.3
	c-3.275,0-6.406-0.625-9.261-1.755c-2.855-1.13-5.433-2.764-7.602-4.782c-2.169-2.019-3.928-4.422-5.145-7.09
	C26.675,56.006,26,53.075,26,50z M67.6,65.1l-8.225-8.05L51.15,49l-8.225-8.05L34.7,32.9c1.05-0.8,2.169-1.519,3.347-2.147
	c1.178-0.628,2.416-1.166,3.703-1.603s2.625-0.775,4.003-1.003S48.55,27.8,50,27.8c3.3,0,6.45,0.625,9.319,1.755
	s5.456,2.764,7.631,4.783c2.175,2.019,3.938,4.422,5.156,7.089S74,47.025,74,50.1c0,1.425-0.15,2.825-0.438,4.186
	s-0.712,2.683-1.262,3.952c-0.55,1.269-1.225,2.484-2.013,3.632C69.5,63.019,68.6,64.1,67.6,65.1z"/>
</svg>
