<?xml version="1.0" encoding="utf-8"?>
<!-- Generator: Adobe Illustrator 25.2.0, SVG Export Plug-In . SVG Version: 6.00 Build 0)  -->
<svg version="1.1" id="Layer_1" xmlns="http://www.w3.org/2000/svg" xmlns:xlink="http://www.w3.org/1999/xlink" x="0px" y="0px"
	 viewBox="0 0 100 100" style="enable-background:new 0 0 100 100;" xml:space="preserve">
<g>
	<path d="M57.4,33.1c0,0-4.2-0.6-11.5,0c-7.3,0.6-7.8,8.5-7.8,8.5v13.1c-2-0.7-5.1-1.7-6.4-1.7c-1.9,0.1-1.3,1.7-1.3,1.7l11.8,13.3
		l11.8-13.3c0,0,0.5-1.7-1.3-1.7c-1.2-0.1-4.1,0.9-6,1.6v-13c0,0-0.3-2.5,5.3-2.6c5.6-0.1,5.7,3.6,5.7,3.6v26.6h7.9V42.7
		C66.1,35.7,57.4,33.1,57.4,33.1z"/>
	<path style="fill:#E7443A;" d="M50,20.4c-16.3,0-29.6,13.3-29.6,29.6S33.7,79.6,50,79.6S79.6,66.3,79.6,50S66.3,20.4,50,20.4z
		 M23.4,50c0-7.1,2.8-13.6,7.4-18.4l36.5,38.5c-4.7,4-10.7,6.5-17.4,6.5C35.3,76.6,23.4,64.7,23.4,50z M69.5,68L33,29.5
		c4.6-3.8,10.5-6.1,17-6.1c14.7,0,26.6,11.9,26.6,26.6C76.6,56.9,73.9,63.3,69.5,68z"/>
</g>
</svg>
