<svg xmlns="http://www.w3.org/2000/svg" viewBox="0 0 100 100">
   <g transform="translate(-11,18)">
      <polygon style="fill:#EAEAEA;" points="15,33.6 59.6,78.4 74,63.4 74.7,60.8 39.7,28.8 17.3,28.8 		"/>
      <polygon points="76,63 39.4,29.6 19.5,29.6 19.5,28.1 40,28.1 77,61.9 		"/>
      <path style="fill:#FFFFFF;" d="M65.2,27.2l-4.4-3.7l-2.2-0.5l-2.6,0.3l-3.1,0.5l-0.5-0.2L50,22l-1.5-0.2l-0.3,0.3l-2.9,3.3
				c0,0-1.6,2.2-0.8,3l0.2,0.5l6.4,5.5l4,3.4l8.6-8.3L65.2,27.2z"/>
      <polygon style="fill:#FFFFFF;" points="73.3,53.3 71.1,51.3 70.3,51.2 54.8,37.7 66.6,24.1 84.9,40.1 			"/>
      <path style="fill:#FFFFFF;" d="M47.8,22.5l0.7,0.6c0,0-1.5,2.2-2.4,2.1l-0.4-0.3L47.8,22.5z"/>
      <path style="fill:#646464;" d="M46.1,25.3l-0.5-0.4l2.1-2.5l0.9,0.7l0,0.1C48.4,23.4,47,25.4,46.1,25.3L46.1,25.3z M45.9,24.9
					l0.3,0.2c0.6,0,1.8-1.4,2.2-2l-0.6-0.5L45.9,24.9z"/>
      <polygon style="fill:#646464;" points="55.5,37.4 55.2,37.2 66.6,24.1 85,40.2 75,51.6 74.8,51.4 84.5,40.2 66.6,24.6 				"/>
      <path style="fill:#646464;" d="M45.3,25.6l-0.3-0.2l3.2-3.6c1.6-0.7,4,1.4,4.5,1.8c0.7-0.1,4.6-0.8,5.6-0.9
					c1.1-0.1,2.4,0.4,2.4,0.4l0.1,0l3.9,3.4l-0.2,0.3l-3.9-3.4c-0.2-0.1-1.3-0.5-2.3-0.4c-1,0.1-5.6,0.9-5.6,0.9l-0.1,0l-0.1-0.1
					c0,0-2.6-2.4-4.1-1.8L45.3,25.6z"/>
      <rect x="53.5" y="22.5" transform="matrix(0.6575 -0.7535 0.7535 0.6575 -2.8599 50.2704)" style="fill:#646464;" width="0.7" height="11.6"/>
      <path style="fill:#646464;" d="M52.6,23.9l0.2-0.3c0.1,0.1,6.1,5,7.6,5.8l1.9-2.2c0,0,0.2-0.3-0.2-0.6l-4-3.5l0.2-0.3l4,3.5
					c0.5,0.4,0.4,0.9,0.2,1.1l-2.1,2.5l-0.1-0.1C59.1,29.2,52.8,24.1,52.6,23.9z"/>
      <polygon style="fill:#646464;" points="54.6,25.6 54.4,25.3 58.7,23.2 58.8,23.5 				"/>
      <path style="fill:#FFFFFF;" d="M54.1,26.3l-0.4-0.4c-0.2-0.1-0.2-0.4,0-0.6l1.7-2l0.8,0.7L54.1,26.3z"/>
      <path style="fill:#646464;" d="M54.1,26.4l-0.5-0.5c-0.2-0.2-0.2-0.5,0-0.7l1.8-2.1l0.9,0.8L54.1,26.4z M55.4,23.4l-1.7,1.9
					c-0.1,0.1-0.1,0.3,0,0.4l0.4,0.3L56,24L55.4,23.4z"/>
      <path style="fill:#FFFFFF;" d="M63.6,25.3l-2-1.8l0.2-0.3c0.5-0.5,1.3-0.6,1.8-0.1l0.1,0.1c0.5,0.5,0.6,1.3,0.1,1.8L63.6,25.3z" />
      <path style="fill:#646464;" d="M63.6,25.4l-2.1-1.9l0.3-0.3c0.5-0.6,1.3-0.6,1.9-0.1l0.1,0.1c0.6,0.5,0.6,1.3,0.1,1.9L63.6,25.4
					z M61.7,23.5l1.9,1.6l0.2-0.2c0.4-0.5,0.4-1.2-0.1-1.6l-0.1-0.1c-0.5-0.4-1.2-0.4-1.6,0.1L61.7,23.5z"/>

      <!-- <ellipse transform="matrix(0.6575 -0.7535 0.7535 0.6575 2.3262 59.7046)" style="fill:#FFFFFF;" cx="66.8" cy="27.3" rx="1" ry="1"/> -->
      <path fill="#FFF" d="M65.8,27.3a1,1 0 1,0 2,0a1,1 0 1,0 -2,0"/>

      <path style="fill:#646464;" d="M66.1,28.1c-0.4-0.4-0.5-1.1-0.1-1.5c0.4-0.4,1.1-0.5,1.5-0.1c0.4,0.4,0.5,1.1,0.1,1.5
					S66.6,28.5,66.1,28.1z M67.4,26.6c-0.4-0.3-0.9-0.3-1.2,0.1c-0.3,0.4-0.3,0.9,0.1,1.2s0.9,0.3,1.2-0.1
					C67.8,27.5,67.8,26.9,67.4,26.6z"/>

      <!-- <ellipse transform="matrix(0.6575 -0.7535 0.7535 0.6575 -2.4737 75.7408)" style="fill:#FFFFFF;" cx="82.1" cy="40.6" rx="1" ry="1"/> -->
      <path fill="#FFF" d="M81.1,40.6a1,1 0 1,0 2,0a1,1 0 1,0 -2,0"/>

      <path style="fill:#646464;" d="M81.4,41.4c-0.4-0.4-0.5-1.1-0.1-1.5c0.4-0.4,1.1-0.5,1.5-0.1s0.5,1.1,0.1,1.5
					C82.5,41.7,81.8,41.8,81.4,41.4z M82.7,39.9c-0.4-0.3-0.9-0.3-1.2,0.1c-0.3,0.4-0.3,0.9,0.1,1.2c0.4,0.3,0.9,0.3,1.2-0.1
					C83.1,40.8,83,40.2,82.7,39.9z"/>
      <path style="fill:#FFFFFF;" d="M44.4,27.7l-1.3-1.1c-0.2-0.2-0.2-0.5-0.1-0.8l0.8-0.9c0.2-0.2,0.5-0.2,0.8-0.1l1.3,1.1
					c0.2,0.2,0.2,0.5,0.1,0.8l-0.8,0.9C45,27.9,44.7,27.9,44.4,27.7z"/>
      <path style="fill:#646464;" d="M44.4,27.8l-1.3-1.1c-0.3-0.2-0.3-0.6-0.1-0.9l0.8-0.9c0.2-0.3,0.6-0.3,0.9-0.1L46,26
					c0.3,0.2,0.3,0.6,0.1,0.9l-0.8,0.9C45,28,44.6,28,44.4,27.8z M44.6,25c-0.2-0.2-0.5-0.1-0.6,0l-0.8,0.9c-0.2,0.2-0.1,0.5,0,0.6
					l1.3,1.1c0.2,0.2,0.5,0.1,0.6,0l0.8-0.9c0.2-0.2,0.1-0.5,0-0.6L44.6,25z"/>
      <path style="fill:#969696;" d="M44.7,29.1l1.8-2.1c0.7-0.8,1.9-0.9,2.8-0.2l1.5,1.3c1.3,1.1,1.4,3,0.3,4.3L50,33.6L44.7,29.1z"/>
      <path style="fill:#969696;" d="M63.9,45.7l1.9-1.9c0.7-0.8,1.9-0.9,2.6-0.2l2.2,2c0.7,0.6,0.8,1.7,0.2,2.4l-1.6,2.3L63.9,45.7z" />
      <path style="fill:#646464;" d="M45,28.6l-0.8-0.7c0,0,0,0.6,0.4,1.1L45,28.6z"/>
      <path style="fill:#646464;" d="M50,33.8c3.9,3.4,9.4,8.2,13.7,11.9l0.4-0.4l-13.7-12L50,33.8z"/>
      <path style="fill:#646464;" d="M47.7,31.8c0.1,0.1,0.3,0.3,0.4,0.4L47.7,31.8z"/>
      <polygon style="fill:#646464;" points="69.6,50.1 69.3,50.6 70.3,51.5 71.1,51.3"/>

      <!-- <ellipse transform="matrix(0.6575 -0.7535 0.7535 0.6575 -7.0146 46.4538)" style="fill:#FFFFFF;" cx="47.6" cy="30.9" rx="2" ry="2"/> -->
      <path fill="#FFF" d="M45.6,30.9a2,2 0 1,0 4,0a2,2 0 1,0 -4,0"/>
      <!-- <ellipse transform="matrix(0.6575 -0.7535 0.7535 0.6575 -13.0425 66.7139)" style="fill:#FFFFFF;" cx="66.9" cy="47.7" rx="2.1" ry="2"/> -->
      <path fill="#FFF" d="M64.80000000000001,47.7a2.1,2 0 1,0 4.2,0a2.1,2 0 1,0 -4.2,0"/>

      <path d="M69.1,45.1c-1.2-1.1-3.2-0.8-4.4,0.6c-1.2,1.4-1.2,3.4,0,4.4c1.2,1.1,3.2,0.8,4.4-0.6S70.3,46.2,69.1,45.1z M65.7,49
					c-0.7-0.6-0.7-1.7,0-2.4c0.7-0.8,1.7-0.9,2.4-0.3c0.7,0.6,0.7,1.7,0,2.4C67.5,49.5,66.4,49.6,65.7,49z"/>
      <path d="M49.8,28.3c-1.2-1.1-3.2-0.8-4.4,0.6c-1.2,1.4-1.2,3.4,0,4.4c1.2,1.1,3.2,0.8,4.4-0.6C51,31.3,51,29.3,49.8,28.3z
					 M46.4,32.1c-0.7-0.6-0.7-1.7,0-2.4c0.7-0.8,1.7-0.9,2.4-0.3c0.7,0.6,0.7,1.7,0,2.4C48.1,32.6,47.1,32.7,46.4,32.1z"/>
      <rect x="69" y="51.5" transform="matrix(0.7535 0.6575 -0.6575 0.7535 51.576 -34.3281)" style="fill:#7E7E7E;" width="5.2" height="0.3"/>
      <path style="fill:#646464;" d="M64.2,45.7L66,44c0.6-0.7,1.7-0.8,2.4-0.2l2.2,2c0.6,0.5,0.7,1.5,0.1,2.1l0,0l0,0l-1.4,2L69,50.4
				l0.3,0.2l1.7-2.5c0.7-0.8,0.6-2-0.2-2.6l-2.2-2c-0.8-0.7-2.1-0.7-2.9,0.2l-2,2l0.3,0.2L64.2,45.7z"/>
      <path style="fill:#646464;" d="M50.8,28l-1.5-1.3c-0.8-0.7-2.1-0.7-2.9,0.2l-1.9,2.1l0.1,0.1l0.1-0.1l1.7-2
				c0.7-0.8,1.9-0.9,2.6-0.2l1.5,1.3c1.2,1.1,1.3,2.9,0.3,4.2l-1,1.2l-0.1,0.1l0.1,0.1l1.1-1.3C52.2,31.1,52.1,29.2,50.8,28z"/>
      <path style="fill:#FFFFFF;" d="M74,53.5l-1.4-1.2c-0.2-0.2-0.2-0.5-0.1-0.8l0.8-0.9c0.2-0.2,0.5-0.2,0.8-0.1l1.4,1.2
					c0.2,0.2,0.2,0.5,0.1,0.8l-0.8,0.9C74.5,53.7,74.2,53.7,74,53.5z"/>
      <path style="fill:#646464;" d="M73.9,53.6l-1.4-1.2c-0.3-0.2-0.3-0.6-0.1-0.9l0.8-0.9c0.2-0.3,0.6-0.3,0.9-0.1l1.4,1.2
					c0.3,0.2,0.3,0.6,0.1,0.9l-0.8,0.9C74.6,53.8,74.2,53.8,73.9,53.6z M74,50.7c-0.2-0.2-0.5-0.1-0.6,0l-0.8,0.9
					c-0.2,0.2-0.1,0.5,0,0.6l1.4,1.2c0.2,0.2,0.5,0.1,0.6,0l0.8-0.9c0.2-0.2,0.1-0.5,0-0.6L74,50.7z"/>
   </g>
</svg>
