<?xml version="1.0" encoding="utf-8"?>
<!-- Generator: Adobe Illustrator 25.2.0, SVG Export Plug-In . SVG Version: 6.00 Build 0)  -->
<svg version="1.1" id="Layer_1" xmlns="http://www.w3.org/2000/svg" xmlns:xlink="http://www.w3.org/1999/xlink" x="0px" y="0px"
	 viewBox="0 0 100 100" style="enable-background:new 0 0 100 100;" xml:space="preserve">
<rect style="fill:#E2DEDB;" width="100" height="100"/>
<g>
	<g>
		<polygon points="60.7,25.9 85.3,86.4 36.4,86.4 		"/>
		<g>
			<path style="fill:#FFFFFF;" d="M53.7,81.2v-2.7c0-0.8,0.8-1.2,1.3-0.8c0,0,0,0,0,0c0.5,0.4,1.1,0.8,1.6,1.1
				c0.6,0.3,1.1,0.5,1.7,0.7c0.6,0.2,1.1,0.2,1.6,0.2c1.7,0,2.9-0.5,3.7-1.6c0.8-1,1.2-2.6,1.2-4.5c0-1.1-0.1-2-0.4-2.8
				c-0.3-0.8-0.7-1.5-1.1-2.1c-0.5-0.6-1.1-1.3-1.7-1.9c-0.7-0.6-1.4-1.2-2.1-1.9c-0.8-0.7-1.6-1.4-2.3-2.1
				c-0.7-0.7-1.3-1.5-1.8-2.4c-0.5-0.9-0.9-1.8-1.2-2.9c-0.3-1.1-0.4-2.4-0.4-3.8c0-1.8,0.2-3.3,0.7-4.7s1.1-2.4,1.8-3.3
				c0.8-0.9,1.6-1.5,2.6-1.9c1-0.4,2-0.6,3-0.6c2,0,3.5,0.4,4.6,1.1c0.3,0.2,0.4,0.5,0.4,0.9v2.7c0,0.8-0.7,1.2-1.2,0.8
				c-1.1-0.8-2.5-1.2-4-1.2c-0.6,0-1.2,0.1-1.8,0.3c-0.6,0.2-1.1,0.6-1.6,1c-0.5,0.5-0.8,1.1-1.1,1.8c-0.3,0.7-0.4,1.7-0.4,2.7
				c0,1,0.1,1.9,0.3,2.6c0.2,0.7,0.5,1.4,1,2c0.4,0.6,1,1.2,1.6,1.7c0.6,0.6,1.3,1.2,2.1,1.9c0.8,0.7,1.6,1.4,2.4,2.2
				c0.7,0.8,1.4,1.6,2,2.5c0.6,0.9,1,2,1.3,3.1c0.3,1.1,0.5,2.4,0.5,3.9c0,1.9-0.2,3.6-0.7,4.9c-0.4,1.3-1.1,2.4-1.8,3.3
				c-0.8,0.8-1.6,1.4-2.6,1.8s-2,0.6-3.1,0.6c-0.4,0-0.8-0.1-1.4-0.2c-0.5-0.1-1.1-0.2-1.7-0.4c-0.6-0.2-1.1-0.4-1.6-0.7
				c-0.3-0.2-0.6-0.4-0.9-0.6C53.8,81.8,53.7,81.5,53.7,81.2z"/>
		</g>
	</g>
	<polygon style="fill:#FFFFFF;" points="25.4,25.7 95,9.1 94.7,8.1 10.7,28.2 10.9,29.1 24.4,25.9 24.4,91.9 93.4,91.9 93.4,90.9 
		25.4,90.9 	"/>
</g>
</svg>
