<?xml version="1.0" encoding="utf-8"?>
<!-- Generator: Adobe Illustrator 25.2.0, SVG Export Plug-In . SVG Version: 6.00 Build 0)  -->
<svg version="1.1" id="Layer_1" xmlns="http://www.w3.org/2000/svg" xmlns:xlink="http://www.w3.org/1999/xlink" x="0px" y="0px"
	 viewBox="0 0 100 100" style="enable-background:new 0 0 100 100;" xml:space="preserve">
<rect y="0" style="fill:#E2DEDB;" width="100" height="100"/>
<g>
	<g>
		<path d="M51.2,34.3c-1.7,0.9-3.9,1.4-6.5,1.4c-3.4,0-6.1-1.1-8.1-3.2c-2-2.1-3-4.9-3-8.4c0-3.7,1.1-6.7,3.4-9
			c2.3-2.3,5.2-3.4,8.7-3.4c2.2,0,4.1,0.3,5.6,1v2.9c-1.7-0.9-3.6-1.4-5.6-1.4c-2.7,0-4.9,0.9-6.6,2.7c-1.7,1.8-2.5,4.2-2.5,7.1
			c0,2.8,0.8,5.1,2.4,6.7c1.6,1.7,3.6,2.5,6.2,2.5c2.4,0,4.4-0.5,6.2-1.5V34.3z"/>
		<path d="M58.8,26.5v8.8H56V12.1h6.5c2.5,0,4.5,0.6,5.9,1.8c1.4,1.2,2.1,2.9,2.1,5.1c0,2.2-0.8,4-2.3,5.4c-1.5,1.4-3.6,2.1-6.3,2.1
			H58.8z M58.8,14.5V24h2.9c1.9,0,3.4-0.4,4.4-1.3c1-0.9,1.5-2.1,1.5-3.6c0-3.1-1.8-4.6-5.5-4.6H58.8z"/>
	</g>
	<g>
		<path style="fill:#FFFFFF;" d="M65.7,41.9l7.1,14.5l1.9,4.7c0,0,4.1,8,2.4,9.1c-1.7,1.1-14.2,1.6-14.2,1.6l-36.3-1.1V58.9l5.5-1.6
			l6.2-17.2l10.4-0.6C48.8,39.6,64,40.2,65.7,41.9z"/>
		<path d="M79.2,60.8c0-2.5-1.9-4.6-4.5-5.4l-5.9-13.5c-0.6-1.5-2.4-4-5.9-4l-23.5,0c-1.5,0-4.4,0.9-5.7,3.6
			C32.9,43.4,30,52.2,29,55.3c-2.8,0.8-4.8,2.9-4.8,5.5v17.6h4.5V85c0,1.9,1.8,3.4,4,3.4c2.2,0,4-1.5,4-3.4v-6.6h29.8V85
			c0,1.9,1.8,3.4,4,3.4c2.2,0,4-1.5,4-3.4v-6.6h4.5V60.8z M38.3,42.9c0.4-0.8,1.1-1,1.3-1h23.3c0.8,0,1.2,1.2,1.2,1.2l5.2,12H34.1
			C35.5,50.8,37.7,44.3,38.3,42.9z M33,69c-2.2,0-4-2.1-4-4.6c0-2.5,1.8-4.6,4-4.6s4,2.1,4,4.6C37.1,66.9,35.3,69,33,69z M70.6,69
			c-2.2,0-4-2.1-4-4.6c0-2.5,1.8-4.6,4-4.6c2.2,0,4,2.1,4,4.6C74.7,66.9,72.9,69,70.6,69z"/>
	</g>
	<rect x="12.4" y="2.7" style="fill:#666666;" width="77.3" height="6.5"/>
	<path style="fill:#FFFFFF;" d="M16.9,10.2v77.2h-1.6V10.2H16.9 M17.9,9.2h-3.6v79.2h3.6V9.2L17.9,9.2z"/>
	<path style="fill:#FFFFFF;" d="M85.4,10.2v77.2h-1.3V10.2H85.4 M86.4,9.2h-3.3v79.2h3.3V9.2L86.4,9.2z"/>
	<line style="fill:none;stroke:#FFFFFF;stroke-miterlimit:10;" x1="6.1" y1="88.4" x2="92.8" y2="89"/>
</g>
</svg>
