<?xml version="1.0" encoding="utf-8"?>
<!-- Generator: Adobe Illustrator 25.2.0, SVG Export Plug-In . SVG Version: 6.00 Build 0)  -->
<svg version="1.1" id="Layer_1" xmlns="http://www.w3.org/2000/svg" xmlns:xlink="http://www.w3.org/1999/xlink" x="0px" y="0px"
	 viewBox="0 0 100 100" style="enable-background:new 0 0 100 100;" xml:space="preserve">
<rect x="0" y="0" style="fill:#E2DEDB;" width="100" height="100"/>
<g>
	<circle cx="50.7" cy="48.8" r="41"/>
	<g>
		<path style="fill:#FFFFFF;" d="M64.6,75.3H34.1v-4.5c7.7-8.3,12.7-13.9,15.1-16.8c2.3-2.8,4.2-5.8,5.6-8.9
			c1.4-3.1,2.2-6.2,2.2-9.3c0-3-0.9-5.3-2.8-7.1c-1.9-1.7-4.5-2.6-7.9-2.6c-2.6,0-6.1,0.8-10.5,2.3l-0.9-5.4c4-1.6,8.1-2.4,12.4-2.4
			c5,0,8.9,1.3,12,4c3,2.7,4.5,6.3,4.5,10.8c0,3.2-0.8,6.4-2.3,9.6c-1.6,3.2-3.6,6.2-6,9.1c-2.4,2.9-7.2,8.1-14.2,15.7h23.3V75.3z"
			/>
	</g>
</g>
</svg>
