<?xml version="1.0" encoding="utf-8"?>
<!-- Generator: Adobe Illustrator 25.2.0, SVG Export Plug-In . SVG Version: 6.00 Build 0)  -->
<svg version="1.1" id="Layer_1" xmlns="http://www.w3.org/2000/svg" xmlns:xlink="http://www.w3.org/1999/xlink" x="0px" y="0px"
	 viewBox="0 0 100 100" style="enable-background:new 0 0 100 100;" xml:space="preserve">
<rect y="0" style="fill:#E2DEDB;" width="100" height="100"/>
<g>
	<path d="M12,87.8V12.2h18.3c4.7,0,8,0.7,10,2c2,1.4,3.7,3.7,4.9,7.1s1.9,7.4,1.9,12c0,5.9-1,10.7-3,14.3c-2,3.6-4.8,5.9-8.4,6.8
		c1.9,1.9,3.4,4,4.6,6.3c1.2,2.3,2.9,6.4,5,12.3l5.2,14.7H40.2L34,71.3c-2.3-5.9-3.8-9.7-4.6-11.2c-0.8-1.5-1.7-2.5-2.6-3.1
		c-0.9-0.6-2.4-0.8-4.4-0.8h-1.8v31.5H12z M20.6,44.2h6.4c3.9,0,6.4-0.2,7.5-0.7c1.1-0.5,1.9-1.5,2.6-3c0.7-1.5,1-3.5,1-6
		c0-2.4-0.3-4.3-1-5.8s-1.6-2.5-2.7-3c-0.8-0.4-3.2-0.6-7.1-0.6h-6.8V44.2z"/>
	<path d="M55.3,87.8V12.2h31.9V25H64v16.7h21.6v12.7H64V75h24v12.8H55.3z"/>
</g>
</svg>
