<?xml version="1.0" encoding="utf-8"?>
<!-- Generator: Adobe Illustrator 25.2.0, SVG Export Plug-In . SVG Version: 6.00 Build 0)  -->
<svg version="1.1" id="Layer_1" xmlns="http://www.w3.org/2000/svg" xmlns:xlink="http://www.w3.org/1999/xlink" x="0px" y="0px"
	 viewBox="0 0 100 100" style="enable-background:new 0 0 100 100;" xml:space="preserve">
<rect x="0" style="fill:#E2DEDB;" width="100" height="100"/>
<g>
	<g>
		<polygon points="62.5,25.5 93,91.8 32.3,91.8 		"/>
		<g>
			<path style="fill:#FFFFFF;" d="M53.7,86.1v-3c0-0.9,0.9-1.4,1.6-0.8c0,0,0,0,0,0c0.6,0.5,1.3,0.9,2,1.2c0.7,0.3,1.4,0.6,2.1,0.8
				c0.7,0.2,1.4,0.3,2,0.3c2.1,0,3.6-0.6,4.7-1.7c1-1.1,1.5-2.8,1.5-5c0-1.2-0.2-2.2-0.5-3c-0.3-0.9-0.8-1.6-1.4-2.3
				c-0.6-0.7-1.3-1.4-2.1-2c-0.8-0.6-1.7-1.3-2.7-2c-1-0.8-1.9-1.5-2.8-2.3c-0.9-0.8-1.6-1.6-2.3-2.6c-0.6-0.9-1.2-2-1.5-3.2
				s-0.6-2.6-0.6-4.2c0-2,0.3-3.7,0.9-5.1c0.6-1.4,1.3-2.6,2.3-3.6c0.9-0.9,2-1.6,3.2-2.1c1.2-0.5,2.4-0.7,3.7-0.7
				c2.5,0,4.4,0.4,5.7,1.2c0.3,0.2,0.5,0.5,0.5,0.9v2.9c0,0.8-0.9,1.3-1.6,0.9c-1.4-0.9-3.1-1.4-5-1.4c-0.7,0-1.5,0.1-2.2,0.3
				c-0.7,0.2-1.4,0.6-2,1.1c-0.6,0.5-1,1.2-1.4,2s-0.5,1.8-0.5,3c0,1.1,0.1,2,0.4,2.8c0.3,0.8,0.7,1.5,1.2,2.2
				c0.5,0.7,1.2,1.3,2,1.9c0.8,0.6,1.7,1.3,2.7,2c1,0.8,2,1.6,2.9,2.4c0.9,0.8,1.7,1.8,2.4,2.8c0.7,1,1.3,2.1,1.7,3.4
				c0.4,1.2,0.6,2.7,0.6,4.2c0,2.1-0.3,3.9-0.8,5.4c-0.6,1.5-1.3,2.7-2.3,3.6c-0.9,0.9-2,1.6-3.3,2C63.6,88.8,62.3,89,61,89
				c-0.5,0-1-0.1-1.7-0.2c-0.7-0.1-1.4-0.3-2.1-0.5c-0.7-0.2-1.4-0.5-2-0.8c-0.4-0.2-0.8-0.4-1.1-0.7C53.9,86.7,53.7,86.4,53.7,86.1
				z"/>
		</g>
	</g>
	<circle cx="32.6" cy="17.9" r="3.4"/>
	<path d="M14.7,8.2V43h16.8v-2.4H16.4V11.2h24.7v9.6c0,0-7.9,3.1-9.8,4.3s-1.2,4-1.2,4s1.5,8.1,2.1,11.1c0.6,3.1,1.6,2.8,2.2,2.7
		s0.5-1.1,0.5-1.1s-1.4-5.2-1.7-6.3s1.2-0.8,1.2-0.8s3.4,8,3.9,9.3c0.5,1.4,0.5,3.6,0.5,3.6l-4.3,8.5c0,0-1,2.5,0.5,3.1
		c1.4,0.5,2.1-0.5,2.1-0.5l5.5-11.5l-1.4-6.5l1-0.7l1.6,3.4h8.9V8.2H14.7z M51.2,40.7h-3.2l-6.2-7.1l-2.4-6.8l4-4.2l0.1-11.5h7.6
		V40.7z"/>
</g>
</svg>
