<?xml version="1.0" encoding="utf-8"?>
<!-- Generator: Adobe Illustrator 25.2.0, SVG Export Plug-In . SVG Version: 6.00 Build 0)  -->
<svg version="1.1" id="Layer_1" xmlns="http://www.w3.org/2000/svg" xmlns:xlink="http://www.w3.org/1999/xlink" x="0px" y="0px"
	 viewBox="0 0 100 100" style="enable-background:new 0 0 100 100;" xml:space="preserve">
<rect x="0" style="fill:#E2DEDB;" width="100" height="100"/>
<g>
	<path d="M55.1,84.5h-9.4l-3.8-17.1H24.7l-3.6,17.1h-9.2L28.6,8.9h9.2L55.1,84.5z M39.1,54.6l-5.9-28l-5.8,28H39.1z"/>
	<path d="M87.2,56.7l8.4,4.7C94.3,69.8,92.1,76,89,79.9c-3.1,3.9-6.8,5.8-11.3,5.8c-5.6,0-10.2-3.1-13.6-9.3c-4-7.2-6-16.9-6-29.1
		c0-12.9,2-23,6.1-30.2c3.5-6.3,8.2-9.5,14.2-9.5c4.8,0,8.9,2.4,12.1,7.1c2.3,3.4,4,8.4,5.1,15l-8.6,3.6c-0.6-4.1-1.6-7.2-3.3-9.4
		c-1.6-2.2-3.6-3.3-5.8-3.3c-3.2,0-5.8,2-7.8,6c-2,4-3,10.6-3,19.7c0,9.5,1,16.3,2.9,20.3c2,4,4.5,6,7.6,6c2.3,0,4.3-1.3,5.9-3.8
		S86.4,62.2,87.2,56.7z"/>
</g>
</svg>
