<?xml version="1.0" encoding="iso-8859-1"?>
<!-- Generator: Adobe Illustrator 25.3.1, SVG Export Plug-In . SVG Version: 6.00 Build 0)  -->
<svg version="1.1" id="Layer_1" xmlns="http://www.w3.org/2000/svg" xmlns:xlink="http://www.w3.org/1999/xlink" x="0px" y="0px"
	 viewBox="0 0 100 100" style="enable-background:new 0 0 100 100;" xml:space="preserve">
<polygon style="fill:#E2DEDB;" points="0,0 25,0 50,0 75,0 100,0 100,25 100,50 100,75 100,100 75,100 50,100 25,100 0,100 0,75 
	0,50 0,25 "/>
<polygon points="93.7,35.8 85.75,35.8 77.8,35.8 69.85,35.8 61.9,35.8 61.9,27.85 61.9,19.9 61.9,11.95 61.9,4 56.05,4 50.2,4 
	44.35,4 38.5,4 38.5,11.95 38.5,19.9 38.5,27.85 38.5,35.8 30.55,35.8 22.6,35.8 14.65,35.8 6.7,35.8 6.7,41.65 6.7,47.5 6.7,53.35 
	6.7,59.2 14.65,59.2 22.6,59.2 30.55,59.2 38.5,59.2 38.5,67.15 38.5,75.1 38.5,83.05 38.5,91 44.35,91 50.2,91 56.05,91 61.9,91 
	61.9,83.05 61.9,75.1 61.9,67.15 61.9,59.2 69.85,59.2 77.8,59.2 85.75,59.2 93.7,59.2 93.7,53.35 93.7,47.5 93.7,41.65 "/>
<path style="fill:#FFFFFF;" d="M45.8,58.3h-0.95H43.9h-0.95H42l-0.775-1.5l-0.775-1.5l-0.775-1.5L38.9,52.3h-3.1h-3.1h-3.1h-3.1
	l-0.725,1.5l-0.725,1.5l-0.725,1.5L23.6,58.3h-0.95H21.7h-0.95H19.8l2.8-5.35l2.8-5.35l2.8-5.35L31,36.9h0.9h0.9h0.9h0.9l2.8,5.35
	l2.8,5.35l2.8,5.35L45.8,58.3z M37.8,50l-1.15-2.275L35.5,45.45l-1.15-2.275L33.2,40.9c-0.025-0.075-0.056-0.162-0.091-0.261
	c-0.034-0.098-0.072-0.208-0.109-0.327c-0.037-0.118-0.075-0.247-0.109-0.382c-0.034-0.136-0.066-0.28-0.091-0.43h-0.025H32.75
	h-0.025H32.7c-0.025,0.15-0.056,0.294-0.092,0.43c-0.036,0.136-0.076,0.264-0.12,0.382c-0.044,0.119-0.091,0.229-0.139,0.327
	S32.25,40.825,32.2,40.9l-1.15,2.275L29.9,45.45l-1.15,2.275L27.6,50h2.55h2.55h2.55H37.8z"/>
<path style="fill:#FFFFFF;" d="M53.5,58.3h-0.85H51.8h-0.85H50.1v-5.35V47.6v-5.35V36.9h0.85h0.85h0.85h0.85v5.35v5.35v5.35V58.3z"
	/>
<path style="fill:#FFFFFF;" d="M61.2,58.3v-5.35V47.6v-5.35V36.9h2.025h2.025h2.025H69.3c2.575,0,4.831,0.219,6.767,0.656
	s3.552,1.094,4.846,1.969c1.293,0.875,2.265,1.969,2.914,3.281S84.8,45.65,84.8,47.4c0,0.825-0.088,1.613-0.264,2.361
	s-0.442,1.458-0.798,2.126c-0.357,0.669-0.804,1.297-1.343,1.883c-0.539,0.586-1.17,1.13-1.895,1.63s-1.506,0.938-2.345,1.312
	c-0.839,0.375-1.736,0.688-2.692,0.938s-1.972,0.438-3.049,0.562C71.338,58.338,70.2,58.4,69,58.4h-1.95H65.1h-1.95H61.2v-0.025
	V58.35c0,0,0-0.013,0-0.025S61.2,58.3,61.2,58.3z M64.6,39.1v4.225v4.225v4.225V56h1.1h1.1h1.1H69c0.95,0,1.85-0.05,2.7-0.148
	c0.85-0.099,1.65-0.246,2.4-0.44c0.75-0.194,1.45-0.434,2.1-0.72c0.65-0.286,1.25-0.617,1.8-0.992
	c0.525-0.375,0.988-0.787,1.386-1.239c0.398-0.451,0.733-0.942,1.001-1.473s0.472-1.103,0.608-1.717S81.2,48,81.2,47.3
	c0-1.375-0.25-2.575-0.75-3.602c-0.5-1.027-1.25-1.88-2.25-2.561c-1-0.681-2.25-1.19-3.75-1.529c-1.5-0.339-3.25-0.508-5.25-0.508
	h-1.15H66.9c0,0-0.575,0-1.15,0C65.175,39.1,64.6,39.1,64.6,39.1z"/>
</svg>
