<?xml version="1.0" encoding="utf-8"?>
<!-- Generator: Adobe Illustrator 25.2.0, SVG Export Plug-In . SVG Version: 6.00 Build 0)  -->
<svg version="1.1" id="Layer_1" xmlns="http://www.w3.org/2000/svg" xmlns:xlink="http://www.w3.org/1999/xlink" x="0px" y="0px"
	 viewBox="0 0 100 100" style="enable-background:new 0 0 100 100;" xml:space="preserve">
<rect x="0" y="0" style="fill:#E2DEDB;" width="100" height="100"/>
<g>
	<g>
		<path d="M52.5,91.2c-2.7,1.4-6.1,2-10.1,2c-5.2,0-9.3-1.6-12.5-4.8c-3.1-3.2-4.7-7.4-4.7-12.5c0-5.6,1.8-10,5.3-13.5
			c3.5-3.4,8-5.1,13.4-5.1c3.5,0,6.3,0.5,8.6,1.4v4.3C49.9,61.7,47,61,43.9,61c-4.2,0-7.6,1.3-10.2,4c-2.6,2.7-3.9,6.2-3.9,10.7
			c0,4.2,1.2,7.6,3.7,10.1c2.4,2.5,5.6,3.8,9.6,3.8c3.7,0,6.8-0.8,9.5-2.3V91.2z"/>
	</g>
	<g>
		<path d="M79.9,92.7H61V57.9h4.3V89h14.7V92.7z"/>
	</g>
	<g>
		<path d="M37.6,14.4c3.1,0,5.5-1.7,5.5-3.8c0-2.1-2.5-3.8-5.5-3.8s-5.5,1.7-5.5,3.8C32.1,12.7,34.6,14.4,37.6,14.4z"/>
		<path d="M55.3,47.9c0,0-6-11.4-7.7-13.8c-1.6-2.4-3.7-2.7-3.7-2.7H28.6L35,19l11.1,3.9h15.5l-2-2.6H46.6L35,15.1h-5.5L18.9,32.4
			c-0.4,2.4,2.4,2.5,2.4,2.5h21.2l8.2,14.9L55.3,47.9z"/>
		<rect x="43.8" y="25.7" width="40.5" height="1.9"/>
		<path d="M86.2,29.4v-5.7H41v5.7h27.3v19.7c-0.5,1-1.4,1.5-2,1.8h-21v1.5h38.8v-1.5h-9.5c-0.8-0.3-1.3-1-1.6-1.6V29.4H86.2z
			 M42,28.4v-3.7h43.2v3.7H42z"/>
		<path d="M37.8,36.7h2.7v-1h-25c-0.8,0-0.9-0.6-0.9-0.6V23.7h1.4c0,0.1,0,0.3,0,0.4c0,1.7,0.6,2.8,1,3.4c0.2,0.3,0.6,0.2,0.7-0.1
			c1.1-3.2,0.4-6.9,0-8.5c-0.1-0.4-0.6-0.5-0.7-0.1c-0.7,1.2-0.9,2.3-0.9,3.8h-1.4h-0.9v1.1v10.6c-0.1,0.1-0.1,0.4,0,0.8
			c0.2,1.5,1.8,1.6,1.8,1.6h3.9c-1.2,0.5-2.1,1.2-2.5,2.6c-0.6,1.9-1.1,12.4-1.1,12.4H17c0,0,0.2-9.2,0.7-11.5
			c0.4-1.7,3.1-3,4.3-3.5h13.2c1.2,0.5,3.9,1.8,4.3,3.5c0.5,2.2,0.7,11.5,0.7,11.5h1.2c0,0-0.5-10.5-1.1-12.4
			C40,37.9,39,37.2,37.8,36.7z"/>
	</g>
</g>
</svg>
