<?xml version="1.0" encoding="utf-8"?>
<!-- Generator: Adobe Illustrator 25.2.0, SVG Export Plug-In . SVG Version: 6.00 Build 0)  -->
<svg version="1.1" id="Layer_1" xmlns="http://www.w3.org/2000/svg" xmlns:xlink="http://www.w3.org/1999/xlink" x="0px" y="0px"
	 viewBox="0 0 100 100" style="enable-background:new 0 0 100 100;" xml:space="preserve">
<rect x="0" y="0" style="fill:#E2DEDB;" width="100" height="100"/>
<g>
	<ellipse cx="52.9" cy="16.4" rx="6" ry="6.3"/>
	<path d="M24.3,28.4V46c0,0-4.5,1.5-4.8,3.6s-1.1,3.7,1.6,6.4c2.7,2.7,8.1,8.6,8.1,8.6s1.4,0.1,0.9-1.3c-0.5-1.4-7.8-9.3-7.8-9.3
		s-1.8-3.9,1.1-4.7s4.6,1,6.2,2.6c1.6,1.6,14.6,16.3,14.6,16.3s1.9,0.9,2,6.8c0.1,5.9,0,14.3,0,14.3H32l0.2-10.9
		c0,0-13.7-18.3-14.5-21.1c-0.8-2.8,0-29.4,0-29.4s0.5-1.6,3.5-1.8S24.3,28.4,24.3,28.4z"/>
	<path d="M75.7,29.1v17.6c0,0,4.5,1.5,4.8,3.6c0.3,2.1,1.1,3.7-1.6,6.4c-2.7,2.7-8.1,8.6-8.1,8.6s-1.4,0.1-0.9-1.3
		c0.5-1.4,7.8-9.3,7.8-9.3s1.8-3.9-1.1-4.7c-2.9-0.8-4.6,1-6.2,2.6C68.7,54,55.7,68.8,55.7,68.8s-1.9,0.9-2,6.8
		c-0.1,5.9,0,14.3,0,14.3H68L67.8,79c0,0,13.7-18.3,14.5-21.1c0.8-2.8,0-29.4,0-29.4s-0.5-1.6-3.5-1.8S75.7,29.1,75.7,29.1z"/>
	<path d="M46.3,25.1h12.2l9.7,13.5l-3,1.6l-4.1-5.6c0,0-1.6-0.9-1.9,0c-0.3,0.9-0.9,4.7-0.9,4.7l-13.4-0.5l-0.8-4.2
		c0,0-0.3-1.4-2-0.4s-4.6,3.8-4.6,3.8s-2.2,0.7-1.7-2.1C36.5,33.1,46.3,25.1,46.3,25.1z"/>
	<path d="M43.7,42.3l4.5,3.8L46,49.6l2.9,8.1l-1.9,2l-7.6-8.2c0,0-1-2.1,0.7-4.9S43.7,42.3,43.7,42.3z"/>
	<path d="M59.1,42.3l-4.5,3.8l2.2,3.5L54,57.7l1.9,2l7.6-8.2c0,0,1-2.1-0.7-4.9S59.1,42.3,59.1,42.3z"/>
</g>
</svg>
