<?xml version="1.0" encoding="utf-8"?>
<!-- Generator: Adobe Illustrator 25.2.0, SVG Export Plug-In . SVG Version: 6.00 Build 0)  -->
<svg version="1.1" id="Layer_1" xmlns="http://www.w3.org/2000/svg" xmlns:xlink="http://www.w3.org/1999/xlink" x="0px" y="0px"
	 viewBox="0 0 100 100" style="enable-background:new 0 0 100 100;" xml:space="preserve">
<rect x="0" y="0" style="fill:#E2DEDB;" width="100" height="100"/>
<path d="M50,16.7c-10.6,0-19.3,8.2-19.3,18.4S39.4,53.5,50,53.5s19.3-8.2,19.3-18.4S60.6,16.7,50,16.7z M50,47.8
	c-7.4,0-13.3-5.7-13.3-12.7s6-12.7,13.3-12.7s13.3,5.7,13.3,12.7S57.4,47.8,50,47.8z"/>
<path d="M50,5.9c-17.4,0-31.5,12.8-31.5,28.6c0,4.9,1.4,9.6,3.8,13.6c2.7,5.8,6.4,9.2,6.4,9.2S41,72.2,44,78.6s3.4,13.4,3.5,14
	c0.2,0.6,0.8,1.4,2.4,1.4c1.6,0,1.9-1.4,1.9-1.4s1-11.7,6-18.7c3.9-5.4,13.1-14,18.9-24.3c2.1-3.1,3.6-6.5,4.3-10.2c0,0,0,0,0-0.1
	c0.3-1.3,0.5-2.6,0.4-3.9c0-0.3,0-0.6,0-0.9C81.5,18.7,67.4,5.9,50,5.9z M74.5,40c-0.7,5.5-5.2,10-5.2,10
	c-9.6,10.6-18,23.7-18.6,25.2c-0.6,1.4-1.4,0.6-1.4,0.6s-8.9-15.1-14-20.1c-2.7-2.7-5.1-6.3-6.7-9c-0.9-1.2-1.6-2.6-2.2-3.9
	c0,0,0,0,0,0l0,0c-1.1-2.5-1.6-5.3-1.6-8.1c0-12.6,11.3-22.9,25.2-22.9s25.2,10.2,25.2,22.9C75.2,36.4,75,38.3,74.5,40L74.5,40z"/>
</svg>
