<?xml version="1.0" encoding="utf-8"?>
<!-- Generator: Adobe Illustrator 25.2.0, SVG Export Plug-In . SVG Version: 6.00 Build 0)  -->
<svg version="1.1" id="Layer_1" xmlns="http://www.w3.org/2000/svg" xmlns:xlink="http://www.w3.org/1999/xlink" x="0px" y="0px"
	 viewBox="0 0 100 100" style="enable-background:new 0 0 100 100;" xml:space="preserve">
<rect style="fill:#E2DEDB;" width="100" height="100"/>
<path d="M75,41.8l-4.6,4.4l-4.9-1.5L49.4,66.1l11.9,10.8c0,0,1.5,1.7-3.8,2.7H37.7V40.7v-4.9v-2.6c6.5,0,11.7-5.2,11.7-11.7
	S44.2,9.8,37.7,9.8C31.3,9.8,26,15,26,21.5c0,5.7,4.1,10.5,9.5,11.5v2.8h-1.9c-8.1,0-14.6,6.5-14.6,14.6v43.2h16.5h2.2h17.9
	c3.2,0,5.8-2.1,6.7-5c2.5,0.2,8.8-0.1,8.8-9.1L86,59.1L75,41.8z"/>
</svg>
