<?xml version="1.0" encoding="utf-8"?>
<!-- Generator: Adobe Illustrator 25.2.0, SVG Export Plug-In . SVG Version: 6.00 Build 0)  -->
<svg version="1.1" id="Layer_1" xmlns="http://www.w3.org/2000/svg" xmlns:xlink="http://www.w3.org/1999/xlink" x="0px" y="0px"
	 viewBox="0 0 100 100" style="enable-background:new 0 0 100 100;" xml:space="preserve">
<rect x="0" y="0" style="fill:#E2DEDB;" width="100" height="100"/>
<g>
	<g>
		<path d="M40.5,24.9H21.9v23.3H39V59H21.9v32.4h-8.3V14h26.9V24.9z"/>
	</g>
	<g>
		<path d="M62,63.3v28.1h-8.9V14h16.3c6.2,0,11,2.1,14.4,6.2c3.4,4.1,5.1,10,5.1,17.5c0,7.5-1.8,13.7-5.3,18.5
			c-3.6,4.8-8.4,7.2-14.4,7.2H62z M62,24.5v28.3h5.8c3.8,0,6.7-1.3,8.7-3.8c2-2.6,3-6.2,3-10.8c0-9.1-3.7-13.7-11-13.7H62z"/>
	</g>
</g>
</svg>
