<?xml version="1.0" encoding="utf-8"?>
<!-- Generator: Adobe Illustrator 25.2.0, SVG Export Plug-In . SVG Version: 6.00 Build 0)  -->
<svg version="1.1" id="Layer_1" xmlns="http://www.w3.org/2000/svg" xmlns:xlink="http://www.w3.org/1999/xlink" x="0px" y="0px"
	 viewBox="0 0 100 100" style="enable-background:new 0 0 100 100;" xml:space="preserve">
<rect x="0" style="fill:#E2DEDB;" width="100" height="100"/>
<g>
	<g>
		<g>
			<path style="fill:#EA3325;" d="M41.2,43.7c0,0,14.9-15.6,25.9-5.4s6.5,22.1-3.6,30.7S41.2,90,41.2,90L16.1,66.8
				c0,0-11.3-12.3-6.3-23.4S31.9,30.5,41.2,43.7z"/>
		</g>
		<g>
			<polygon style="fill:#FFFFFF;" points="48.4,65.9 38.4,52.2 41.4,50.4 31.3,40.5 34.3,38.8 26.6,26.9 10.7,34.9 26,43.3 
				21.9,46.1 35.2,54.1 31.7,56.4 			"/>
			<path style="fill:#EA3325;" d="M50.2,67.5l-19.4-11l3.5-2.2L21,46.1l4-2.8L9.6,34.9l17.2-8.6L35,39l-2.9,1.7l10.1,9.8l-3.1,1.9
				L50.2,67.5z M32.7,56.4l13.9,7.9L37.7,52l2.9-1.8l-10.1-9.8l3.1-1.8l-7.1-11.1l-14.7,7.3l15.2,8.3L22.9,46l13.3,8.1L32.7,56.4z"
				/>
		</g>
	</g>
	<g>
		<g>
			<path d="M42.1,42.7h-5.7l-2.3-7.3H23.6l-2.2,7.3h-5.6l10.2-32.2h5.6L42.1,42.7z M32.4,30l-3.6-12l-3.5,12H32.4z"/>
			<path style="fill:#FFFFFF;" d="M42.8,43.2H36l-2.3-7.3H24l-2.2,7.3h-6.7L25.7,10H32L42.8,43.2z M36.8,42.2h4.7L31.3,11h-4.9
				l-9.9,31.2h4.5l2.2-7.3h11.2L36.8,42.2z M33.1,30.5h-8.5l4.2-14.2L33.1,30.5z M25.9,29.5h5.8l-2.9-9.7L25.9,29.5z"/>
		</g>
		<g>
			<path d="M44.9,42.7V10.5h19.4v5.5H50.1v7.1h13.1v5.4H50.1v8.7h14.6v5.5H44.9z"/>
			<path style="fill:#FFFFFF;" d="M65.2,43.2H44.4V10h20.4v6.5H50.6v6.1h13.1V29H50.6v7.7h14.6V43.2z M45.4,42.2h18.9v-4.5H49.6V28
				h13.1v-4.4H49.6v-8.1h14.1V11H45.4V42.2z"/>
		</g>
		<g>
			<path d="M69.2,10.5h9.6c2.4,0,4.3,0.3,5.5,0.8c1.2,0.5,2.4,1.5,3.4,2.8c1,1.3,1.9,3,2.5,5.1c0.6,2.1,0.9,4.7,0.9,7.8
				c0,2.8-0.3,5.2-0.9,7.3c-0.6,2.1-1.4,3.7-2.4,4.9c-1,1.2-2.1,2.1-3.5,2.7s-3.1,0.9-5.2,0.9h-9.9V10.5z M74.4,15.9v21.3h4
				c1.7,0,2.9-0.2,3.7-0.5c0.8-0.3,1.4-0.8,1.9-1.5c0.5-0.7,0.9-1.7,1.2-3.1c0.3-1.4,0.5-3.3,0.5-5.6c0-2.4-0.2-4.3-0.5-5.6
				c-0.3-1.4-0.8-2.5-1.5-3.2c-0.7-0.8-1.5-1.3-2.5-1.6c-0.7-0.2-2.2-0.3-4.3-0.3H74.4z"/>
			<path style="fill:#FFFFFF;" d="M79.1,43.2H68.7V10h10.1c2.5,0,4.4,0.3,5.7,0.9c1.3,0.6,2.5,1.6,3.6,2.9c1.1,1.4,1.9,3.1,2.5,5.3
				c0.6,2.1,0.9,4.8,0.9,7.9c0,2.8-0.3,5.3-1,7.4c-0.6,2.1-1.5,3.8-2.5,5.1c-1,1.3-2.2,2.2-3.6,2.9C83.1,42.9,81.2,43.2,79.1,43.2z
				 M69.7,42.2h9.4c2,0,3.7-0.3,5-0.9c1.3-0.6,2.4-1.4,3.3-2.6c0.9-1.1,1.7-2.7,2.3-4.7c0.6-2,0.9-4.4,0.9-7.1c0-3-0.3-5.6-0.9-7.6
				c-0.6-2-1.4-3.7-2.4-4.9c-1-1.2-2.1-2.1-3.2-2.6c-1.2-0.5-3-0.8-5.3-0.8h-9.1V42.2z M78.4,37.8h-4.5V15.4h2.9
				c2.2,0,3.6,0.1,4.4,0.3c1.1,0.3,2,0.9,2.8,1.7c0.7,0.8,1.3,2,1.6,3.5c0.3,1.4,0.5,3.3,0.5,5.8c0,2.3-0.2,4.2-0.5,5.7
				c-0.3,1.5-0.8,2.6-1.3,3.3c-0.5,0.7-1.2,1.3-2.1,1.6C81.4,37.6,80.2,37.8,78.4,37.8z M74.9,36.8h3.5c1.6,0,2.8-0.1,3.5-0.4
				c0.7-0.3,1.2-0.7,1.7-1.3c0.4-0.6,0.8-1.6,1.1-2.9c0.3-1.4,0.5-3.2,0.5-5.4c0-2.3-0.2-4.2-0.5-5.5c-0.3-1.3-0.8-2.3-1.4-3
				c-0.6-0.7-1.4-1.2-2.3-1.4c-0.7-0.2-2.1-0.3-4.2-0.3h-1.9V36.8z"/>
		</g>
	</g>
</g>
</svg>
