<?xml version="1.0" encoding="utf-8"?>
<!-- Generator: Adobe Illustrator 25.2.0, SVG Export Plug-In . SVG Version: 6.00 Build 0)  -->
<svg version="1.1" id="Layer_1" xmlns="http://www.w3.org/2000/svg" xmlns:xlink="http://www.w3.org/1999/xlink" x="0px" y="0px"
	 viewBox="0 0 100 100" style="enable-background:new 0 0 100 100;" xml:space="preserve">
<rect x="0" y="0" style="fill:#E2DEDB;" width="100" height="100"/>
<g>
	<path d="M66.9,52.1c-1.4-5.2-5.2-18.8-6.6-23.1C58.5,23.5,55,24,55,24h-4.3h-2.3h-7.7c0,0-3.5-0.5-5.2,4.9
		c-1.4,4.4-5.2,17.9-6.6,23.1c-0.3,1.2,0.3,2.4,1.5,2.7c1.2,0.4,2.4-0.3,2.8-1.5l4.5-16.5c0-0.1,0-0.3,0.1-0.4l0.9-3l0.1-0.5l0.1,0
		c0.4-0.6,1.1-0.9,1.8-0.7c0.8,0.2,1.2,0.9,1.1,1.7l0,0l-0.1,0.4l-0.9,3c0,0,0,0.1,0,0.1l-8.7,29.8h9.4V94c0,1.5,1.2,2.6,2.6,2.6h0
		c1.5,0,2.6-1.2,2.6-2.6V67.1h1.8h1.1V94c0,1.5,1.2,2.6,2.6,2.6c1.5,0,2.6-1.2,2.6-2.6V67.1h9l-8.7-29.6c-0.1-0.1-0.1-0.2-0.2-0.4
		l-0.9-3.2c0,0,0,0,0-0.1l0-0.1l0,0c-0.2-0.8,0.3-1.6,1.1-1.8c0.8-0.2,1.5,0.2,1.9,0.9l0,0l0.5,1.8l0.4,1.6c0,0,0,0.1,0,0.1
		l4.6,16.9c0.3,1.2,1.6,1.9,2.8,1.5C66.5,54.4,67.2,53.2,66.9,52.1z"/>
	<ellipse cx="48.1" cy="14.5" rx="6.6" ry="6.2"/>
</g>
</svg>
