<?xml version="1.0" encoding="utf-8"?>
<!-- Generator: Adobe Illustrator 25.2.0, SVG Export Plug-In . SVG Version: 6.00 Build 0)  -->
<svg version="1.1" id="Layer_1" xmlns="http://www.w3.org/2000/svg" xmlns:xlink="http://www.w3.org/1999/xlink" x="0px" y="0px"
	 viewBox="0 0 100 100" style="enable-background:new 0 0 100 100;" xml:space="preserve">
<rect x="0" y="0" style="fill:#E2DEDB;" width="100" height="100"/>
<g>
	<circle cx="24.9" cy="17.5" r="10.6"/>
	<path d="M30.2,32.5H20c-4.9,0-8.8,3.9-8.8,8.8l0.7,17.9c0,0,1.3,5.5,4.4,7.5l3.1,19.6c0,0,0.7,3.3,3.3,3.1s6.5,0,6.5,0
		s1.4,0.3,2.1-4.8c0.7-5.1,2.7-18.3,2.7-18.3s2.8-1.6,4.1-7.1L39,41.3C39,36.4,35.1,32.5,30.2,32.5z"/>
	<g>
		<path d="M84.7,34.3h-6.4V12.1h6.4c2.3,0,4.1,1.8,4.1,4.1v14C88.8,32.5,87,34.3,84.7,34.3z"/>
		<path d="M84.8,87.5h-6.5V66.6h6.5c2.2,0,4,1.8,4,4v12.9C88.8,85.7,87,87.5,84.8,87.5z"/>
		<path d="M75.8,12.1v21.4c0,0-4.8,0.3-5.6,5.9s-1.1,17,0,20.3c1.1,3.3,1.7,6.8,5.6,6.7v21c0,0-7.6,1.6-14.9-8.9s-7.6-20.2-7.8-30
			C52.9,38.6,56.3,14.8,75.8,12.1z"/>
	</g>
</g>
</svg>
