<?xml version="1.0" encoding="utf-8"?>
<!-- Generator: Adobe Illustrator 25.2.0, SVG Export Plug-In . SVG Version: 6.00 Build 0)  -->
<svg version="1.1" id="Layer_1" xmlns="http://www.w3.org/2000/svg" xmlns:xlink="http://www.w3.org/1999/xlink" x="0px" y="0px"
	 viewBox="0 0 100 100" style="enable-background:new 0 0 100 100;" xml:space="preserve">
<rect x="0" style="fill:#E2DEDB;" width="100" height="100"/>
<g>
	<path d="M77.9,9l-2.4,9.8l-65.1-0.5l2.3,35.3l59.8,6.4c0,0,3.6,0.1,3.6,2s0.1,2.4-2.5,2.9H11.8v5.1h63c0,0,6.1-0.2,6.1-7.7
		c0-6-5.5-7-5.5-7l10.8-39.5h5.4L92.8,9H77.9z M71.9,57l-57-6.4l-2-29.5h64.8l2.1-8.6h4.3L71.9,57z"/>
	<path d="M65.5,73.8c-3.5,0-6.3,3.3-6.3,7.4c0,4.1,2.8,7.4,6.3,7.4c3.5,0,6.3-3.3,6.3-7.4C71.8,77.1,69,73.8,65.5,73.8z M65.5,85.9
		c-2.2,0-4-2.1-4-4.7c0-2.6,1.8-4.7,4-4.7c2.2,0,4,2.1,4,4.7C69.5,83.8,67.7,85.9,65.5,85.9z"/>
	<path d="M22.9,73.8c-3.5,0-6.3,3.3-6.3,7.4c0,4.1,2.8,7.4,6.3,7.4c3.5,0,6.3-3.3,6.3-7.4C29.2,77.1,26.4,73.8,22.9,73.8z
		 M22.9,85.9c-2.2,0-4-2.1-4-4.7c0-2.6,1.8-4.7,4-4.7c2.2,0,4,2.1,4,4.7C26.9,83.8,25.2,85.9,22.9,85.9z"/>
</g>
</svg>
