<svg xmlns="http://www.w3.org/2000/svg" viewBox="0 0 100 100">
   <rect style="fill:#E2DEDB;" width="100" height="100"/>
   <line style="fill:none;stroke:#FFFFFF;stroke-miterlimit:10;" x1="49" y1="7.5" x2="49.6" y2="39.1"/>
   <polygon points="51.9,33.7 49.5,36.5 47.1,33.7 49.5,42.5 	"/>
   <path style="fill:#666666;" d="M67.4,49.4h-5.3v-1.7c0-2.9-2.1-5.2-4.6-5.2H43.3c-2.5,0-4.6,2.3-4.6,5.2v1.7h-6.1
			c-1.7,0-3,1.5-3,3.4v4c0,1.9,1.4,3.4,3,3.4h0.5v29.1c0,3.2,2.3,5.8,5.1,5.8h24.6c2.8,0,5.1-2.6,5.1-5.8V60.2
			c1.5-0.2,2.7-1.6,2.7-3.4v-4C70.5,50.9,69.1,49.4,67.4,49.4z M41,47.7c0-1.4,1-2.5,2.2-2.5h14.3c1.2,0,2.2,1.1,2.2,2.5v1.6H41
			V47.7z M65.5,89.3c0,1.7-1.2,3.1-2.7,3.1H38.1c-1.5,0-2.7-1.4-2.7-3.1v-29h30.1V89.3z M68.1,56.8c0,0.4-0.3,0.8-0.7,0.8H32.6
			c-0.4,0-0.7-0.3-0.7-0.8v-4c0-0.4,0.3-0.8,0.7-0.8h34.9c0.4,0,0.7,0.3,0.7,0.8V56.8z"/>
   <path style="fill:#666666;" d="M51.6,65.7c0.2,0,0.3,0.2,0.3,0.4v21.5c0,0.2-0.2,0.4-0.3,0.4H49c-0.2,0-0.3-0.2-0.3-0.4V66
				c0-0.2,0.2-0.4,0.3-0.4H51.6 M51.6,64.7H49c-0.7,0-1.2,0.6-1.2,1.4v21.5c0,0.8,0.5,1.4,1.2,1.4h2.6c0.7,0,1.2-0.6,1.2-1.4V66
				C52.8,65.3,52.3,64.7,51.6,64.7L51.6,64.7z"/>
   <path style="fill:#666666;" d="M60.3,65.7c0.2,0,0.3,0.2,0.3,0.4v21.5c0,0.2-0.2,0.4-0.3,0.4h-2.6c-0.2,0-0.3-0.2-0.3-0.4V66
				c0-0.2,0.2-0.4,0.3-0.4H60.3 M60.3,64.7h-2.6c-0.7,0-1.2,0.6-1.2,1.4v21.5c0,0.8,0.5,1.4,1.2,1.4h2.6c0.7,0,1.2-0.6,1.2-1.4V66
				C61.5,65.3,61,64.7,60.3,64.7L60.3,64.7z"/>
   <path style="fill:#666666;" d="M42.9,65.7c0.2,0,0.3,0.2,0.3,0.4v21.5c0,0.2-0.2,0.4-0.3,0.4h-2.6c-0.2,0-0.3-0.2-0.3-0.4V66
				c0-0.2,0.2-0.4,0.3-0.4H42.9 M42.9,64.7h-2.6c-0.7,0-1.2,0.6-1.2,1.4v21.5c0,0.8,0.5,1.4,1.2,1.4h2.6c0.7,0,1.2-0.6,1.2-1.4V66
				C44.1,65.3,43.5,64.7,42.9,64.7L42.9,64.7z"/>
</svg>
