<?xml version="1.0" encoding="utf-8"?>
<!-- Generator: Adobe Illustrator 25.2.0, SVG Export Plug-In . SVG Version: 6.00 Build 0)  -->
<svg version="1.1" id="Layer_1" xmlns="http://www.w3.org/2000/svg" xmlns:xlink="http://www.w3.org/1999/xlink" x="0px" y="0px"
	 viewBox="0 0 100 100" style="enable-background:new 0 0 100 100;" xml:space="preserve">
<rect x="0" y="0" style="fill:#E2DEDB;" width="100" height="100"/>
<g>
	<path d="M8.3,28.6v66.1H92V28.6H8.3z M50,82.2c-15.8,0-28.7-10-28.7-22.3c0-12.3,12.8-22.3,28.7-22.3c15.8,0,28.7,10,28.7,22.3
		C78.6,72.2,65.8,82.2,50,82.2z"/>
	<path d="M49.8,40.2c-14.6,0-26.4,8.8-26.4,19.8c0,10.9,11.8,19.8,26.4,19.8s26.4-8.8,26.4-19.8C76.2,49,64.4,40.2,49.8,40.2z
		 M48.2,76.7c-5.8-0.1-23.3-2.5-21.7-21.9L28,54c0,0,2.8,1.8,5.6,1.8c2.8,0,5.1-1.8,5.1-1.8s3,1.9,5.9,1.8s5.1-1.8,5.1-1.8
		s2.5,1.4,6,1.4s4.9-1.4,4.9-1.4s2.7,1.5,5.8,1.5c3.1,0,5.5-1.5,5.5-1.5s2.4,4-0.8,12.8C68,75.6,54,76.8,48.2,76.7z"/>
	<path d="M88.7,10.9H11.6c-1.8,0-3.3,1.5-3.3,3.3v9.1H92v-9.1C92,12.4,90.5,10.9,88.7,10.9z M20.4,21.2c-2.7,0-4.9-2-4.9-4.4
		s2.2-4.4,4.9-4.4c2.7,0,4.9,2,4.9,4.4S23.1,21.2,20.4,21.2z M32.7,21.2c-2.7,0-4.9-2-4.9-4.4s2.2-4.4,4.9-4.4c2.7,0,4.9,2,4.9,4.4
		S35.4,21.2,32.7,21.2z"/>
	<ellipse cx="20.5" cy="17" rx="3.3" ry="2.7"/>
	<ellipse cx="32.7" cy="17" rx="3.3" ry="2.7"/>
</g>
</svg>
