<?xml version="1.0" encoding="iso-8859-1"?>
<!-- Generator: Adobe Illustrator 25.3.1, SVG Export Plug-In . SVG Version: 6.00 Build 0)  -->
<svg version="1.1" id="Layer_1" xmlns="http://www.w3.org/2000/svg" xmlns:xlink="http://www.w3.org/1999/xlink" x="0px" y="0px"
	 viewBox="0 0 100 100" style="enable-background:new 0 0 100 100;" xml:space="preserve">
<polygon style="fill:#E2DEDB;" points="0,0 25,0 50,0 75,0 100,0 100,25 100,50 100,75 100,100 75,100 50,100 25,100 0,100 0,75 
	0,50 0,25 "/>
<polygon points="97.7,35.9 89.75,35.9 81.8,35.9 73.85,35.9 65.9,35.9 65.9,27.925 65.9,19.95 65.9,11.975 65.9,4 60.025,4 54.15,4 
	48.275,4 42.4,4 42.4,11.975 42.4,19.95 42.4,27.925 42.4,35.9 34.45,35.9 26.5,35.9 18.55,35.9 10.6,35.9 10.6,41.75 10.6,47.6 
	10.6,53.45 10.6,59.3 18.55,59.3 26.5,59.3 34.45,59.3 42.4,59.3 42.4,67.25 42.4,75.2 42.4,83.15 42.4,91.1 48.275,91.1 
	54.15,91.1 60.025,91.1 65.9,91.1 65.9,83.15 65.9,75.2 65.9,67.25 65.9,59.3 73.85,59.3 81.8,59.3 89.75,59.3 97.7,59.3 
	97.7,53.45 97.7,47.6 97.7,41.75 "/>
<path style="fill:#FFFFFF;" d="M28.7,57.7H28h-0.7h-0.7h-0.7l-2.475-3.875L20.95,49.95l-2.475-3.875L16,42.2
	c-0.075-0.1-0.144-0.2-0.206-0.3c-0.062-0.1-0.119-0.2-0.169-0.3c-0.05-0.1-0.094-0.2-0.131-0.3c-0.038-0.1-0.069-0.2-0.094-0.3
	h-0.025H15.35h-0.025H15.3c0.025,0.1,0.044,0.231,0.058,0.394c0.014,0.163,0.024,0.356,0.03,0.581
	c0.006,0.225,0.009,0.481,0.01,0.769C15.4,43.031,15.4,43.35,15.4,43.7v3.525v3.525v3.525V57.8h-0.575H14.25h-0.575H13.1v-4.875
	V48.05v-4.875V38.3h0.725h0.725h0.725H16l2.4,3.825l2.4,3.825l2.4,3.825l2.4,3.825c0.1,0.15,0.194,0.294,0.28,0.428
	c0.086,0.134,0.164,0.259,0.233,0.372c0.069,0.112,0.128,0.213,0.176,0.297S26.375,54.85,26.4,54.9h0.025h0.025h0.025H26.5
	c-0.025-0.15-0.044-0.319-0.058-0.509c-0.014-0.191-0.023-0.403-0.029-0.641c-0.007-0.237-0.01-0.5-0.011-0.791
	C26.4,52.669,26.4,52.35,26.4,52v-3.425V45.15v-3.425V38.3h0.575h0.575h0.575H28.7c0,0,0,1.212,0,3.031c0,1.819,0,4.244,0,6.669
	s0,4.85,0,6.669C28.7,56.488,28.7,57.7,28.7,57.7z"/>
<path style="fill:#FFFFFF;" d="M47.8,49.9c0,1.375-0.15,2.575-0.451,3.602c-0.301,1.026-0.754,1.879-1.361,2.56
	c-0.606,0.681-1.366,1.191-2.28,1.53C42.794,57.931,41.725,58.1,40.5,58.1c-1.175,0-2.2-0.162-3.077-0.489
	c-0.877-0.326-1.605-0.817-2.186-1.473c-0.581-0.656-1.015-1.478-1.304-2.468c-0.289-0.989-0.433-2.145-0.433-3.47v-2.975V44.25
	v-2.975V38.3h0.575h0.575h0.575H35.8v2.925v2.925v2.925V50c0,1,0.106,1.875,0.317,2.625c0.211,0.75,0.527,1.375,0.946,1.875
	s0.941,0.875,1.564,1.125S39.975,56,40.8,56c0.8,0,1.5-0.119,2.1-0.358c0.6-0.239,1.1-0.599,1.5-1.08s0.7-1.084,0.9-1.811
	s0.3-1.576,0.3-2.551v-3v-3v-3v-3h0.575h0.575h0.575H47.9v2.925v2.925v2.925V49.9h-0.025H47.85c0,0-0.013,0-0.025,0
	S47.8,49.9,47.8,49.9z"/>
<path style="fill:#FFFFFF;" d="M66.4,57.7h-0.675H65.05h-0.675H63.7l-0.8-1.375l-0.8-1.375l-0.8-1.375L60.5,52.2
	c-0.075-0.125-0.15-0.244-0.225-0.358c-0.075-0.114-0.15-0.224-0.225-0.33c-0.075-0.106-0.15-0.209-0.225-0.311S59.675,51,59.6,50.9
	s-0.15-0.188-0.225-0.267c-0.075-0.08-0.15-0.151-0.225-0.22c-0.075-0.069-0.15-0.135-0.225-0.202S58.775,50.075,58.7,50
	c-0.075-0.05-0.15-0.1-0.225-0.148c-0.075-0.049-0.15-0.096-0.225-0.139c-0.075-0.043-0.15-0.084-0.225-0.12
	c-0.075-0.036-0.15-0.067-0.225-0.092s-0.156-0.05-0.242-0.074c-0.086-0.023-0.177-0.045-0.271-0.064
	c-0.094-0.019-0.19-0.034-0.289-0.045C56.9,49.306,56.8,49.3,56.7,49.3h-0.475H55.75h-0.475H54.8v2.075v2.075v2.075V57.6h-0.575
	H53.65h-0.575H52.5v-4.825V47.95v-4.825V38.3h1.425h1.425h1.425H58.2c0.2,0,0.4,0.006,0.598,0.019
	c0.199,0.013,0.396,0.031,0.59,0.056c0.194,0.025,0.384,0.056,0.57,0.094S60.325,38.55,60.5,38.6s0.344,0.106,0.508,0.17
	c0.164,0.064,0.323,0.136,0.479,0.218c0.157,0.081,0.31,0.172,0.461,0.273C62.1,39.362,62.25,39.475,62.4,39.6
	c0.125,0.1,0.244,0.213,0.356,0.334c0.112,0.122,0.219,0.253,0.319,0.391c0.1,0.138,0.194,0.281,0.281,0.428S63.525,41.05,63.6,41.2
	s0.137,0.312,0.189,0.486c0.052,0.173,0.092,0.358,0.123,0.551c0.031,0.194,0.054,0.397,0.068,0.608
	C63.994,43.056,64,43.275,64,43.5c0,0.175-0.006,0.344-0.019,0.508c-0.013,0.164-0.031,0.323-0.056,0.479s-0.056,0.309-0.094,0.461
	C63.794,45.1,63.75,45.25,63.7,45.4s-0.106,0.294-0.169,0.431S63.4,46.1,63.325,46.225c-0.075,0.125-0.156,0.244-0.244,0.356
	C62.994,46.694,62.9,46.8,62.8,46.9s-0.2,0.2-0.302,0.299c-0.101,0.099-0.204,0.196-0.31,0.29c-0.107,0.093-0.216,0.184-0.33,0.27
	C61.744,47.844,61.625,47.925,61.5,48s-0.256,0.15-0.394,0.222c-0.138,0.072-0.281,0.141-0.431,0.203s-0.306,0.119-0.469,0.166
	c-0.162,0.047-0.331,0.084-0.506,0.109v0.025v0.025v0.025V48.8c0.075,0.025,0.15,0.056,0.223,0.092
	c0.074,0.036,0.146,0.076,0.215,0.12c0.069,0.044,0.134,0.091,0.195,0.139S60.45,49.25,60.5,49.3s0.106,0.1,0.166,0.152
	c0.059,0.051,0.122,0.104,0.184,0.16c0.062,0.056,0.125,0.116,0.184,0.18S61.15,49.925,61.2,50s0.1,0.144,0.15,0.211
	s0.1,0.133,0.15,0.201c0.05,0.069,0.1,0.141,0.15,0.221c0.05,0.08,0.1,0.167,0.15,0.267c0.05,0.075,0.1,0.156,0.152,0.242
	c0.051,0.086,0.104,0.177,0.16,0.271s0.116,0.191,0.18,0.289C62.356,51.8,62.425,51.9,62.5,52l0.975,1.425l0.975,1.425l0.975,1.425
	L66.4,57.7z M54.9,40.3v1.775v1.775v1.775V47.4h0.775h0.775h0.775H58c0.15,0,0.294-0.006,0.433-0.019
	c0.139-0.013,0.273-0.031,0.404-0.056c0.131-0.025,0.26-0.056,0.386-0.094c0.127-0.038,0.252-0.081,0.377-0.131
	s0.244-0.1,0.356-0.152c0.112-0.052,0.219-0.104,0.319-0.16c0.1-0.056,0.194-0.116,0.281-0.18c0.088-0.064,0.169-0.133,0.244-0.208
	s0.15-0.156,0.223-0.244c0.074-0.087,0.146-0.181,0.215-0.281s0.134-0.206,0.195-0.319c0.061-0.112,0.117-0.231,0.167-0.356
	s0.094-0.25,0.131-0.377s0.069-0.255,0.094-0.386c0.025-0.131,0.044-0.265,0.056-0.404C61.894,43.894,61.9,43.75,61.9,43.6
	c0-0.25-0.019-0.494-0.058-0.727c-0.039-0.233-0.098-0.455-0.179-0.661s-0.184-0.397-0.311-0.567s-0.277-0.32-0.452-0.445
	c-0.175-0.15-0.362-0.281-0.566-0.394c-0.203-0.113-0.422-0.206-0.659-0.281c-0.238-0.075-0.494-0.131-0.772-0.169
	C58.625,40.319,58.325,40.3,58,40.3c0,0-0.194,0-0.484,0s-0.678,0-1.066,0s-0.775,0-1.066,0C55.094,40.3,54.9,40.3,54.9,40.3z"/>
<path style="fill:#FFFFFF;" d="M68.2,56.9v-0.675V55.55v-0.675V54.2c0.075,0.075,0.156,0.144,0.242,0.208s0.176,0.124,0.27,0.18
	c0.094,0.056,0.191,0.109,0.29,0.16C69.1,54.8,69.2,54.85,69.3,54.9s0.206,0.1,0.316,0.149c0.109,0.048,0.222,0.095,0.334,0.139
	c0.112,0.043,0.225,0.084,0.334,0.12c0.109,0.036,0.216,0.067,0.316,0.092c0.125,0.025,0.244,0.056,0.359,0.089
	s0.228,0.067,0.341,0.099c0.113,0.031,0.225,0.059,0.341,0.079S71.875,55.7,72,55.7c0.125,0.075,0.25,0.131,0.373,0.174
	c0.124,0.042,0.246,0.07,0.365,0.09c0.118,0.018,0.234,0.028,0.345,0.032C73.194,56,73.3,56,73.4,56c0.35,0,0.675-0.019,0.977-0.055
	c0.301-0.036,0.579-0.089,0.835-0.158c0.257-0.069,0.491-0.153,0.705-0.251c0.214-0.098,0.408-0.211,0.583-0.336
	s0.325-0.269,0.451-0.428c0.127-0.159,0.229-0.334,0.311-0.522c0.082-0.188,0.141-0.388,0.18-0.597
	C77.481,53.444,77.5,53.225,77.5,53c0-0.125-0.006-0.25-0.019-0.373c-0.012-0.123-0.031-0.245-0.056-0.364
	c-0.025-0.119-0.056-0.235-0.094-0.346C77.294,51.806,77.25,51.7,77.2,51.6s-0.106-0.194-0.169-0.284s-0.131-0.178-0.206-0.266
	s-0.156-0.175-0.244-0.266C76.494,50.694,76.4,50.6,76.3,50.5c-0.1-0.075-0.206-0.15-0.317-0.225
	c-0.111-0.075-0.226-0.15-0.345-0.225c-0.119-0.075-0.241-0.15-0.365-0.225c-0.123-0.075-0.248-0.15-0.373-0.225
	c-0.15-0.075-0.294-0.15-0.436-0.225c-0.142-0.075-0.283-0.15-0.427-0.225c-0.144-0.075-0.29-0.15-0.445-0.225
	s-0.317-0.15-0.492-0.225s-0.344-0.156-0.508-0.241c-0.164-0.084-0.324-0.172-0.48-0.259s-0.309-0.175-0.461-0.259
	C71.5,47.856,71.35,47.775,71.2,47.7c-0.15-0.1-0.294-0.194-0.431-0.286c-0.137-0.092-0.269-0.183-0.394-0.276
	s-0.244-0.19-0.356-0.295C69.906,46.738,69.8,46.625,69.7,46.5c-0.1-0.1-0.2-0.206-0.297-0.317s-0.191-0.227-0.278-0.346
	c-0.088-0.119-0.169-0.24-0.241-0.364S68.75,45.225,68.7,45.1s-0.1-0.263-0.147-0.409c-0.047-0.147-0.091-0.303-0.128-0.466
	s-0.069-0.331-0.091-0.503S68.3,43.375,68.3,43.2c0-0.225,0.012-0.444,0.037-0.655s0.063-0.414,0.113-0.608s0.112-0.378,0.187-0.551
	C68.713,41.212,68.8,41.05,68.9,40.9c0.1-0.175,0.206-0.338,0.319-0.489c0.113-0.152,0.231-0.292,0.356-0.423
	c0.125-0.132,0.256-0.254,0.394-0.368c0.137-0.114,0.281-0.22,0.431-0.32s0.306-0.194,0.469-0.283s0.331-0.174,0.506-0.255
	c0.175-0.081,0.356-0.159,0.544-0.236S72.3,38.375,72.5,38.3s0.4-0.131,0.602-0.174s0.404-0.07,0.61-0.09
	c0.207-0.018,0.416-0.028,0.63-0.032C74.556,38,74.775,38,75,38c0.475,0,0.919,0.013,1.331,0.039
	c0.412,0.027,0.794,0.067,1.144,0.124c0.35,0.056,0.669,0.128,0.956,0.217c0.288,0.089,0.544,0.195,0.769,0.32v0.65V40v0.65v0.65
	c-0.275-0.2-0.575-0.375-0.898-0.525c-0.324-0.15-0.671-0.275-1.04-0.375s-0.759-0.175-1.17-0.225S75.249,40.1,74.799,40.1
	c-0.125,0-0.25,0.006-0.375,0.017s-0.25,0.026-0.375,0.045c-0.124,0.019-0.249,0.041-0.374,0.065
	c-0.125,0.023-0.25,0.049-0.375,0.073s-0.244,0.056-0.358,0.092c-0.114,0.036-0.224,0.076-0.33,0.12
	c-0.106,0.044-0.209,0.091-0.311,0.139S72.1,40.75,72,40.8s-0.194,0.106-0.281,0.169s-0.169,0.131-0.244,0.206
	s-0.144,0.156-0.206,0.244C71.206,41.506,71.15,41.6,71.1,41.7s-0.1,0.2-0.147,0.303c-0.047,0.103-0.091,0.209-0.128,0.322
	c-0.037,0.112-0.069,0.231-0.091,0.359C70.712,42.812,70.7,42.95,70.7,43.1c0,0.125,0.006,0.244,0.019,0.358
	c0.012,0.114,0.031,0.224,0.056,0.33c0.025,0.106,0.056,0.209,0.094,0.311C70.906,44.2,70.95,44.3,71,44.4s0.106,0.194,0.167,0.283
	s0.126,0.174,0.195,0.255c0.069,0.081,0.141,0.159,0.215,0.236s0.149,0.152,0.224,0.227c0.1,0.075,0.2,0.15,0.302,0.225
	c0.102,0.075,0.205,0.15,0.311,0.225s0.216,0.15,0.33,0.225c0.114,0.075,0.233,0.15,0.358,0.225s0.256,0.15,0.394,0.225
	c0.137,0.075,0.281,0.15,0.431,0.225s0.306,0.15,0.469,0.225c0.162,0.075,0.331,0.15,0.506,0.225s0.344,0.156,0.509,0.242
	c0.166,0.086,0.328,0.177,0.491,0.271s0.325,0.191,0.491,0.289s0.334,0.198,0.509,0.298s0.338,0.2,0.489,0.302
	c0.152,0.101,0.292,0.204,0.423,0.31s0.253,0.215,0.367,0.33c0.114,0.114,0.22,0.233,0.32,0.358c0.125,0.125,0.238,0.25,0.341,0.375
	c0.103,0.125,0.197,0.25,0.284,0.375s0.169,0.25,0.247,0.375s0.153,0.25,0.228,0.375c0.075,0.15,0.138,0.3,0.189,0.451
	c0.051,0.151,0.092,0.304,0.123,0.46s0.053,0.316,0.067,0.48S80,52.825,80,53c0,0.25-0.012,0.487-0.037,0.713
	c-0.025,0.225-0.063,0.438-0.113,0.637c-0.05,0.2-0.112,0.388-0.188,0.562C79.588,55.087,79.5,55.25,79.4,55.4
	c-0.1,0.175-0.206,0.337-0.319,0.489s-0.231,0.292-0.356,0.423c-0.125,0.132-0.256,0.254-0.394,0.368
	C78.194,56.794,78.05,56.9,77.9,57s-0.312,0.194-0.484,0.281s-0.353,0.169-0.541,0.244s-0.381,0.144-0.578,0.206
	S75.9,57.85,75.7,57.9s-0.406,0.094-0.617,0.131c-0.211,0.038-0.426,0.069-0.645,0.094c-0.219,0.025-0.441,0.044-0.664,0.056
	C73.55,58.194,73.325,58.2,73.1,58.2c-0.075,0-0.156,0-0.242-0.002c-0.086-0.002-0.176-0.005-0.27-0.011
	c-0.094-0.006-0.191-0.015-0.289-0.029S72.1,58.125,72,58.1c-0.1,0-0.206-0.006-0.317-0.017c-0.111-0.011-0.226-0.026-0.345-0.045
	c-0.119-0.019-0.241-0.041-0.365-0.064C70.85,57.95,70.725,57.925,70.6,57.9s-0.244-0.05-0.358-0.076
	c-0.114-0.026-0.224-0.054-0.33-0.085s-0.21-0.066-0.311-0.105S69.4,57.55,69.3,57.5c-0.125-0.05-0.244-0.1-0.355-0.15
	c-0.111-0.05-0.214-0.1-0.307-0.15c-0.094-0.05-0.178-0.1-0.252-0.15S68.25,56.95,68.2,56.9z"/>
<path style="fill:#FFFFFF;" d="M93.9,57.7h-2.55H88.8h-2.55H83.7v-4.85V48v-4.85V38.3h2.45h2.45h2.45h2.45v0.525v0.525v0.525V40.4
	h-1.875H89.75h-1.875H86v1.625v1.625v1.625V46.9h1.75h1.75h1.75H93v0.5v0.5v0.5v0.5h-1.75H89.5h-1.75H86v1.7v1.7V54v1.7h2h2h2h2v0.5
	v0.5v0.5v0.5h-0.025H93.95h-0.025H93.9z"/>
</svg>
