<?xml version="1.0" encoding="iso-8859-1"?>
<!-- Generator: Adobe Illustrator 25.3.1, SVG Export Plug-In . SVG Version: 6.00 Build 0)  -->
<svg version="1.1" id="Layer_1" xmlns="http://www.w3.org/2000/svg" xmlns:xlink="http://www.w3.org/1999/xlink" x="0px" y="0px"
	 viewBox="0 0 100 100" style="enable-background:new 0 0 100 100;" xml:space="preserve">
<polygon style="fill:#E2DEDB;" points="0,0 25,0 50,0 75,0 100,0 100,25 100,50 100,75 100,100 75,100 50,100 25,100 0,100 0,75 
	0,50 0,25 "/>
<path d="M7,94.3v-4.675V84.95v-4.675V75.6h3.225h3.225h3.225H19.9v0.775v0.775v0.775V78.7h-2.375H15.15h-2.375H10.4v1.225v1.225
	v1.225V83.6h2.025h2.025h2.025H18.5v0.75v0.75v0.75v0.75h-2.025H14.45h-2.025H10.4v1.175v1.175v1.175V91.3h2.425h2.425h2.425H20.1
	v0.775v0.775v0.775V94.4h-3.275H13.55h-3.275H7v-0.025V94.35v-0.025V94.3z"/>
<path d="M37.2,94.3l-2.65-2.95L31.9,88.4l-2.65-2.95L26.6,82.5v2.95v2.95v2.95v2.95h-0.85H24.9h-0.85H23.2v-4.675V84.95v-4.675V75.6
	h0.5h0.5h0.5h0.5l2.55,2.8l2.55,2.8l2.55,2.8l2.55,2.8V84v-2.8v-2.8v-2.8h0.825h0.825h0.825H38.7v4.675v4.675v4.675V94.3h-0.375
	H37.95c0,0-0.188,0-0.375,0C37.388,94.3,37.2,94.3,37.2,94.3z"/>
<path d="M51.8,78.7v3.9v3.9v3.9v3.9h-0.85H50.1h-0.85H48.4v-3.9v-3.9v-3.9v-3.9h-1.6h-1.6h-1.6H42v-0.775V77.15v-0.775V75.6h4.025
	h4.025h4.025H58.1v0.775v0.775v0.775V78.7h-1.575H54.95c0,0-0.787,0-1.575,0C52.587,78.7,51.8,78.7,51.8,78.7z"/>
<path d="M72.3,94.3c0,0-0.213-0.338-0.555-0.875s-0.814-1.275-1.332-2.075c-0.519-0.8-1.085-1.662-1.615-2.45s-1.023-1.5-1.398-2
	h-0.65H66.1h-0.65H64.8v1.85v1.85v1.85v1.85h-0.85H63.1h-0.85H61.4v-4.675V84.95v-4.675V75.6h2.125h2.125h2.125H69.9
	c0.875,0,1.694,0.138,2.43,0.395c0.736,0.258,1.389,0.636,1.932,1.117c0.544,0.481,0.979,1.066,1.277,1.736
	C75.838,79.519,76,80.275,76,81.1c0,0.75-0.137,1.456-0.386,2.1s-0.608,1.225-1.052,1.725s-0.972,0.919-1.558,1.238
	C72.418,86.481,71.775,86.7,71.1,86.8l0.05,0.025l0.05,0.025l0.05,0.025L71.3,86.9l1.125,1.8l1.125,1.8l1.125,1.8l1.125,1.8v0.075
	v0.075v0.075V94.4h-0.875H74.05h-0.875H72.3v-0.025V94.35v-0.025V94.3z M69.9,78.7h-1.3h-1.3H66h-1.3v1.225v1.225v1.225V83.6
	l1.225,0.025l1.225,0.025l1.225,0.025L69.6,83.7c0.475,0,0.9-0.075,1.27-0.209c0.37-0.134,0.686-0.328,0.943-0.566
	c0.256-0.237,0.453-0.519,0.586-0.828C72.531,81.787,72.6,81.45,72.6,81.1c0.025-0.325-0.006-0.638-0.099-0.924
	c-0.092-0.286-0.245-0.546-0.465-0.765s-0.503-0.397-0.858-0.52C70.825,78.768,70.4,78.7,69.9,78.7z"/>
<path d="M86.8,87.3v1.775v1.775v1.775V94.4h-0.85H85.1h-0.85H83.4v-1.8v-1.8V89v-1.8l-1.525-2.875L80.35,81.45l-1.525-2.875
	L77.3,75.7h0.875h0.875h0.875H80.8l1.125,2.125l1.125,2.125l1.125,2.125L85.3,84.2l1.075-2.125l1.075-2.125l1.075-2.125L89.6,75.7
	h0.85h0.85h0.85H93l-1.55,2.9l-1.55,2.9l-1.55,2.9L86.8,87.3z"/>
<path d="M36.3,11.3v9.05v9.05v9.05v9.05h-0.175H35.95h-0.175H35.6c0,0-0.112-0.013-0.297-0.016s-0.441,0.003-0.728,0.041
	s-0.606,0.106-0.916,0.228S33.05,48.05,32.8,48.3s-0.388,0.45-0.453,0.609s-0.059,0.278-0.022,0.366
	c0.038,0.088,0.106,0.144,0.166,0.178C32.55,49.487,32.6,49.5,32.6,49.5c0.3-0.225,0.637-0.412,0.975-0.567s0.675-0.277,0.975-0.371
	s0.562-0.16,0.75-0.202s0.3-0.061,0.3-0.061c0.35-0.1,0.719-0.194,1.108-0.278s0.799-0.159,1.23-0.222
	c0.431-0.062,0.884-0.112,1.361-0.147c0.477-0.034,0.977-0.053,1.501-0.053c0,0,0.056,0,0.158-0.027
	c0.102-0.027,0.249-0.08,0.43-0.186c0.181-0.105,0.396-0.264,0.635-0.503c0.239-0.239,0.502-0.558,0.777-0.983
	s0.75-1.213,1.306-2.206C44.662,42.7,45.3,41.5,45.9,40.25s1.162-2.55,1.569-3.744c0.406-1.194,0.656-2.281,0.631-3.106L48,33.25
	l-0.1-0.15l-0.1-0.15l-0.1-0.15l-1.05,1.75L45.6,36.3l-1.05,1.75L43.5,39.8c0,0-0.094,0.062-0.258,0.134
	c-0.164,0.072-0.399,0.153-0.68,0.191c-0.281,0.037-0.609,0.031-0.96-0.072C41.25,39.95,40.875,39.75,40.5,39.4
	s-0.575-0.912-0.648-1.581c-0.074-0.669-0.021-1.444,0.111-2.219c0.132-0.775,0.341-1.55,0.58-2.219
	c0.239-0.669,0.508-1.231,0.758-1.581c0.25-0.325,0.544-0.769,0.905-1.267s0.789-1.051,1.308-1.595
	c0.518-0.544,1.128-1.079,1.851-1.54c0.723-0.461,1.561-0.849,2.536-1.099s1.75-0.481,2.364-0.688s1.067-0.388,1.399-0.538
	c0.331-0.15,0.54-0.269,0.667-0.35c0.126-0.081,0.17-0.125,0.17-0.125s-0.075-0.087-0.188-0.261s-0.263-0.433-0.412-0.777
	s-0.3-0.772-0.412-1.283C51.375,21.768,51.3,21.175,51.3,20.5s0.15-1.312,0.417-1.886s0.652-1.083,1.121-1.502
	s1.022-0.747,1.626-0.958c0.604-0.211,1.26-0.304,1.936-0.254c0.7,0.05,1.325,0.256,1.867,0.58c0.542,0.323,1.001,0.764,1.37,1.283
	c0.369,0.518,0.647,1.115,0.827,1.751c0.18,0.636,0.261,1.311,0.236,1.986s-0.231,1.281-0.527,1.811
	c-0.295,0.53-0.68,0.983-1.061,1.352c-0.382,0.368-0.76,0.653-1.043,0.845C57.787,25.7,57.6,25.8,57.6,25.8s0.181,0.119,0.456,0.33
	c0.275,0.211,0.644,0.514,1.019,0.882c0.375,0.369,0.756,0.804,1.056,1.277c0.3,0.474,0.519,0.986,0.569,1.511
	c0.025,0.5,0.119,1,0.261,1.464c0.142,0.464,0.333,0.892,0.551,1.249c0.219,0.356,0.466,0.64,0.721,0.817S62.75,33.575,63,33.5
	c0.2-0.05,0.5-0.156,0.853-0.295s0.759-0.311,1.172-0.492c0.412-0.181,0.831-0.372,1.209-0.549c0.378-0.177,0.716-0.339,0.966-0.464
	v-5.1v-5.1v-5.1v-5.1h-7.725H51.75h-7.725H36.3z"/>
<path d="M61.6,39c-0.275-0.15-0.65-0.344-1.058-0.55s-0.848-0.425-1.254-0.625c-0.406-0.2-0.778-0.381-1.049-0.513
	C57.969,37.181,57.8,37.1,57.8,37.1s-0.106-0.019-0.27-0.025c-0.164-0.006-0.386,0-0.618,0.05c-0.231,0.05-0.472,0.144-0.673,0.312
	S55.875,37.85,55.8,38.2s0.081,1.244,0.358,2.388c0.277,1.144,0.674,2.537,1.08,3.888c0.406,1.35,0.822,2.656,1.136,3.625
	s0.527,1.6,0.527,1.6s0.088,0.206,0.198,0.573c0.111,0.367,0.246,0.895,0.34,1.539c0.094,0.644,0.146,1.403,0.095,2.233
	S59.325,55.775,59,56.7s-0.781,1.794-1.283,2.577s-1.049,1.48-1.555,2.061c-0.506,0.581-0.972,1.046-1.31,1.367
	C54.513,63.025,54.3,63.2,54.3,63.2s-0.1,0.056-0.269,0.097c-0.169,0.041-0.406,0.066-0.681,0.003s-0.588-0.212-0.906-0.522
	S51.8,62,51.5,61.3s-0.338-1.312-0.236-1.93c0.102-0.617,0.342-1.239,0.598-1.958s0.528-1.535,0.692-2.539
	c0.164-1.005,0.221-2.198,0.046-3.673s-0.444-2.619-0.749-3.505c-0.305-0.886-0.646-1.514-0.965-1.957s-0.616-0.703-0.833-0.852
	S49.7,44.7,49.7,44.7l-0.775,2.075L48.15,48.85l-0.775,2.075L46.6,53c0,0-0.438,0.037-1.156,0.092s-1.719,0.126-2.844,0.195
	c-1.125,0.069-2.375,0.135-3.594,0.177C37.787,53.506,36.6,53.525,35.6,53.5h-0.375H34.85h-0.375H34.1c0,0,0.044,0.05,0.122,0.148
	c0.078,0.099,0.191,0.246,0.328,0.44c0.138,0.194,0.3,0.434,0.478,0.72c0.178,0.286,0.372,0.617,0.572,0.992v1.75v1.75v1.75v1.75
	c0,0-0.188,0.3-0.517,0.789c-0.33,0.489-0.802,1.167-1.371,1.923c-0.568,0.757-1.234,1.591-1.951,2.393s-1.486,1.57-2.261,2.195
	l2.75,0.125L35,70.35l2.75,0.125L40.5,70.6c0,0,0.156-0.319,0.466-0.831c0.309-0.512,0.772-1.219,1.384-1.994
	s1.375-1.619,2.284-2.406S46.6,63.85,47.8,63.3s2.069-0.719,2.689-0.631s0.992,0.431,1.199,0.906
	c0.206,0.475,0.246,1.081,0.204,1.694C51.85,65.881,51.725,66.5,51.6,67s-0.388,0.981-0.711,1.422
	c-0.323,0.441-0.708,0.841-1.076,1.178c-0.369,0.338-0.722,0.613-0.983,0.803C48.569,70.594,48.4,70.7,48.4,70.7l3.175-0.125
	l3.175-0.125l3.175-0.125L61.1,70.2l1.525-1.8l1.525-1.8l1.525-1.8L67.2,63v-6.5V50v-6.5V37l-0.925,0.55L65.35,38.1l-0.925,0.55
	L63.5,39.2c0.025-0.025-0.013-0.006-0.1,0.025c-0.087,0.031-0.225,0.075-0.4,0.1s-0.387,0.031-0.625-0.013
	C62.138,39.269,61.875,39.175,61.6,39z"/>
</svg>
