<?xml version="1.0" encoding="utf-8"?>
<!-- Generator: Adobe Illustrator 25.2.0, SVG Export Plug-In . SVG Version: 6.00 Build 0)  -->
<svg version="1.1" id="Layer_1" xmlns="http://www.w3.org/2000/svg" xmlns:xlink="http://www.w3.org/1999/xlink" x="0px" y="0px"
	 viewBox="0 0 100 100" style="enable-background:new 0 0 100 100;" xml:space="preserve">
<rect x="0" y="0" style="fill:#E2DEDB;" width="100" height="100"/>
<g>
	<polygon points="90.2,22.8 63.4,13.7 50.2,9.2 36.9,13.7 9.8,22.9 9.8,32 50.2,18.2 90.2,31.9 	"/>
	<g>
		<path d="M35.1,36c3.6-0.7,8.7-1.2,15.5-1.2c7.4,0,12.9,1.6,16.4,4.5c3.3,2.7,5.4,7.1,5.4,12.3c0,5.3-1.7,9.7-4.8,12.6
			c-4,4-10.4,5.9-17.6,5.9c-1.9,0-3.6-0.1-5-0.3v21H35.1V36z M45.1,61.9c1.2,0.3,2.9,0.4,5,0.4c7.6,0,12.2-3.7,12.2-10.2
			c0-6.2-4.3-9.5-11.3-9.5c-2.8,0-4.8,0.2-5.9,0.5V61.9z"/>
	</g>
</g>
</svg>
