<?xml version="1.0" encoding="UTF-8" standalone="no"?>
<!-- Generator: Adobe Illustrator 25.2.0, SVG Export Plug-In . SVG Version: 6.00 Build 0)  -->

<svg
   xmlns:dc="http://purl.org/dc/elements/1.1/"
   xmlns:cc="http://creativecommons.org/ns#"
   xmlns:rdf="http://www.w3.org/1999/02/22-rdf-syntax-ns#"
   xmlns:svg="http://www.w3.org/2000/svg"
   xmlns="http://www.w3.org/2000/svg"
   xmlns:sodipodi="http://sodipodi.sourceforge.net/DTD/sodipodi-0.dtd"
   xmlns:inkscape="http://www.inkscape.org/namespaces/inkscape"
   version="1.1"
   id="Layer_1"
   x="0px"
   y="0px"
   viewBox="0 0 100 100"
   style="enable-background:new 0 0 100 100;"
   xml:space="preserve"
   inkscape:version="0.91 r13725"
   sodipodi:docname="icon-CADN.svg"><metadata
     id="metadata19"><rdf:RDF><cc:Work
         rdf:about=""><dc:format>image/svg+xml</dc:format><dc:type
           rdf:resource="http://purl.org/dc/dcmitype/StillImage" /></cc:Work></rdf:RDF></metadata><defs
     id="defs17" /><sodipodi:namedview
     pagecolor="#ffffff"
     bordercolor="#666666"
     borderopacity="1"
     objecttolerance="10"
     gridtolerance="10"
     guidetolerance="10"
     inkscape:pageopacity="0"
     inkscape:pageshadow="2"
     inkscape:window-width="1536"
     inkscape:window-height="889"
     id="namedview15"
     showgrid="false"
     inkscape:zoom="2.36"
     inkscape:cx="50"
     inkscape:cy="50"
     inkscape:window-x="-8"
     inkscape:window-y="-8"
     inkscape:window-maximized="1"
     inkscape:current-layer="Layer_1" /><rect
     x="0"
     y="0"
     style="fill:none"
     width="100"
     height="100"
     id="rect3" /><g
     id="g5"><g
       id="g7"><path
         d="M10.7,83.5V27.4h9.1v46.5h22.8v9.6H10.7z"
         id="path9" /></g><g
       id="g11"><path
         d="M48.8,83.5V26.9h18.1c4.6,0,7.9,0.5,9.9,1.5s3.6,2.8,4.9,5.3c1.3,2.5,1.9,5.5,1.9,9c0,4.4-1,8-2.9,10.7    c-1.9,2.7-4.7,4.4-8.3,5.1c1.8,1.4,3.4,3,4.6,4.7c1.2,1.7,2.8,4.8,4.9,9.2l5.2,11H76.8l-6.2-12.3c-2.2-4.4-3.8-7.2-4.6-8.3    s-1.7-1.9-2.5-2.3s-2.3-0.6-4.3-0.6h-1.8v23.6H48.8z M57.4,50.8h6.4c3.9,0,6.4-0.2,7.4-0.6s1.9-1.1,2.6-2.3c0.7-1.1,1-2.6,1-4.5    c0-1.8-0.3-3.2-1-4.3c-0.7-1.1-1.6-1.8-2.7-2.3c-0.8-0.3-3.1-0.4-7-0.4h-6.7V50.8z"
         id="path13" /></g></g></svg>