<?xml version="1.0" encoding="utf-8"?>
<!-- Generator: Adobe Illustrator 25.2.0, SVG Export Plug-In . SVG Version: 6.00 Build 0)  -->
<svg version="1.1" id="Layer_1" xmlns="http://www.w3.org/2000/svg" xmlns:xlink="http://www.w3.org/1999/xlink" x="0px" y="0px"
	 viewBox="0 0 100 100" style="enable-background:new 0 0 100 100;" xml:space="preserve">
<rect style="fill:#E2DEDB;" width="100" height="100"/>
<g>
	<g>
		<path d="M62.7,43.8V6.3h11c2.7,0,4.8,0.2,6.2,0.7c1.9,0.6,3.5,1.7,4.8,3.3c1.4,1.6,2.4,3.6,3.2,6c0.8,2.4,1.1,5.3,1.1,8.6
			c0,4.2-0.6,7.9-1.9,10.8c-1.3,3-3,5.1-5,6.3c-2,1.2-4.7,1.9-8,1.9H62.7z M66.9,39.4h6.8c2.7,0,4.8-0.4,6.2-1.3
			c1.4-0.9,2.5-2.2,3.3-4.2c1-2.5,1.5-5.6,1.5-9.1c0-3.8-0.5-6.8-1.6-9s-2.4-3.6-4.1-4.4c-1.1-0.5-2.9-0.7-5.4-0.7h-6.7V39.4z"/>
	</g>
	<polygon style="fill:#666666;" points="11.1,47.3 89.7,47.3 82.6,90.4 19.4,90.4 	"/>
	<polygon style="fill:#FFFFFF;" points="11.1,47.3 60,4.7 59,4.3 10.3,46.9 	"/>
</g>
</svg>
