<?xml version="1.0" encoding="utf-8"?>
<!-- Generator: Adobe Illustrator 25.2.0, SVG Export Plug-In . SVG Version: 6.00 Build 0)  -->
<svg version="1.1" id="Layer_1" xmlns="http://www.w3.org/2000/svg" xmlns:xlink="http://www.w3.org/1999/xlink" x="0px" y="0px"
	 viewBox="0 0 100 100" style="enable-background:new 0 0 100 100;" xml:space="preserve">
<rect style="fill:#E2DEDB;" width="100" height="100"/>
<g>
	<g>
		<path d="M18.3,90.7V34.8h27.2v9.5H25.7v12.4h18.4v9.4H25.7v15.2h20.5v9.5H18.3z"/>
		<path d="M69.5,70.2v-9.5h16V83c-1.6,2.4-3.9,4.4-6.8,6.1c-2.9,1.7-5.9,2.6-8.9,2.6c-3.6,0-6.8-1.1-9.6-3.3c-2.8-2.2-5-5.6-6.6-10
			c-1.6-4.4-2.4-9.7-2.4-15.7c0-6.2,0.8-11.4,2.5-15.8c1.6-4.4,3.8-7.6,6.4-9.8c2.6-2.2,5.7-3.2,9.4-3.2c4.4,0,7.9,1.4,10.5,4.2
			c2.6,2.8,4.3,6.9,5.1,12.3l-7.3,2.1c-0.5-2.9-1.6-5.1-3-6.6c-1.5-1.5-3.2-2.3-5.2-2.3c-3.2,0-5.7,1.5-7.7,4.6s-2.9,7.7-2.9,14
			c0,6.7,1.1,11.9,3.2,15.4c1.8,3,4.3,4.5,7.4,4.5c1.4,0,2.9-0.4,4.5-1.3c1.6-0.8,2.9-2,4.2-3.5v-7.1H69.5z"/>
	</g>
	<g>
		<path d="M70.6,25.5V10h4.6c1.1,0,2,0.1,2.6,0.3c0.8,0.2,1.4,0.7,2,1.4c0.6,0.7,1,1.5,1.3,2.5c0.3,1,0.5,2.2,0.5,3.6
			c0,1.8-0.3,3.3-0.8,4.5c-0.5,1.2-1.2,2.1-2.1,2.6c-0.8,0.5-1.9,0.8-3.3,0.8H70.6z M72.3,23.7h2.8c1.1,0,2-0.2,2.6-0.5
			c0.6-0.4,1-0.9,1.4-1.7c0.4-1.1,0.6-2.3,0.6-3.8c0-1.6-0.2-2.8-0.7-3.7c-0.4-0.9-1-1.5-1.7-1.8c-0.5-0.2-1.2-0.3-2.2-0.3h-2.8
			V23.7z"/>
	</g>
	<polygon style="fill:#666666;" points="21.5,7.3 28.7,7.3 22.3,14.8 29,14.8 21.5,22.2 27.6,22.2 15.7,32.9 21.3,24.1 14.5,24.1 
		21.4,16.3 14.5,16.3 	"/>
</g>
</svg>
