<?xml version="1.0" encoding="iso-8859-1"?>
<!-- Generator: Adobe Illustrator 25.3.1, SVG Export Plug-In . SVG Version: 6.00 Build 0)  -->
<svg version="1.1" id="Layer_1" xmlns="http://www.w3.org/2000/svg" xmlns:xlink="http://www.w3.org/1999/xlink" x="0px" y="0px"
	 viewBox="0 0 100 100" style="enable-background:new 0 0 100 100;" xml:space="preserve">
<polygon style="fill:#E2DEDB;" points="0,0 25,0 50,0 75,0 100,0 100,25 100,50 100,75 100,100 75,100 50,100 25,100 0,100 0,75 
	0,50 0,25 "/>
<path style="fill:#75140C;" d="M47.8,10.1c5.882,0,11.486,1.192,16.582,3.348c5.097,2.156,9.686,5.275,13.541,9.129
	s6.974,8.444,9.129,13.541c2.156,5.097,3.348,10.7,3.348,16.582s-1.192,11.486-3.348,16.582s-5.275,9.686-9.129,13.541
	s-8.444,6.974-13.541,9.129S53.682,95.3,47.8,95.3s-11.486-1.192-16.582-3.348s-9.686-5.275-13.541-9.129s-6.974-8.444-9.129-13.541
	S5.2,58.582,5.2,52.7s1.192-11.485,3.348-16.582s5.275-9.686,9.129-13.541s8.444-6.974,13.541-9.129S41.918,10.1,47.8,10.1z"/>
<path style="fill:#FFFC55;" d="M84,72c0.775-1.45,1.463-2.944,2.058-4.478c0.595-1.534,1.098-3.109,1.504-4.722
	s0.715-3.263,0.924-4.947C88.693,56.169,88.8,54.45,88.8,52.7s-0.112-3.475-0.33-5.169c-0.217-1.694-0.539-3.356-0.957-4.981
	s-0.934-3.212-1.539-4.756C85.369,36.25,84.675,34.75,83.9,33.3H65.825H47.75H29.675H11.6c-0.775,1.45-1.469,2.95-2.073,4.494
	s-1.121,3.131-1.54,4.756c-0.419,1.625-0.741,3.288-0.958,4.981S6.7,50.95,6.7,52.7s0.113,3.469,0.328,5.153
	s0.534,3.334,0.947,4.947s0.919,3.188,1.509,4.722C10.075,69.056,10.75,70.55,11.5,72h18.125H47.75h18.125H84z"/>
<path style="fill:#75140C;" d="M31.2,69.4h-4.275H22.65h-4.275H14.1v-7.95V53.5v-7.95V37.6h4.125h4.125h4.125H30.6v0.85v0.85v0.85
	V41h-3.2h-3.2H21h-3.2v2.65v2.65v2.65v2.65h2.925h2.925h2.925H29.5v0.825v0.825v0.825V54.9h-2.925H23.65h-2.925H17.8v2.775v2.775
	v2.775V66h3.35h3.35h3.35h3.35c0,0,0,0.213,0,0.531s0,0.744,0,1.169s0,0.85,0,1.169S31.2,69.4,31.2,69.4z"/>
<path style="fill:#75140C;" d="M59.6,68c-0.6,0.3-1.237,0.569-1.912,0.803c-0.675,0.234-1.388,0.434-2.138,0.597
	s-1.538,0.287-2.362,0.372C52.362,69.856,51.5,69.9,50.6,69.9c-1.15,0-2.244-0.094-3.281-0.28c-1.037-0.186-2.019-0.464-2.944-0.833
	c-0.925-0.368-1.794-0.828-2.606-1.376C40.956,66.863,40.2,66.225,39.5,65.5s-1.312-1.506-1.838-2.345s-0.963-1.736-1.312-2.693
	c-0.35-0.956-0.612-1.971-0.787-3.048S35.3,55.2,35.3,54c0-1.275,0.1-2.487,0.299-3.638c0.199-1.15,0.496-2.237,0.889-3.263
	c0.394-1.025,0.884-1.987,1.47-2.888c0.586-0.9,1.268-1.737,2.043-2.513c0.775-0.775,1.606-1.456,2.492-2.042
	c0.886-0.586,1.826-1.077,2.82-1.471c0.993-0.393,2.04-0.69,3.139-0.889C49.55,37.1,50.7,37,51.9,37
	c0.775,0,1.513,0.025,2.214,0.076s1.367,0.13,1.998,0.236s1.228,0.241,1.792,0.405S59,38.075,59.5,38.3v1v1v1v1
	c-0.575-0.325-1.169-0.606-1.78-0.845s-1.239-0.436-1.882-0.593c-0.644-0.156-1.304-0.271-1.977-0.348S52.5,40.4,51.8,40.4
	c-0.925,0-1.806,0.075-2.645,0.227c-0.839,0.152-1.636,0.38-2.393,0.686c-0.756,0.306-1.472,0.69-2.148,1.154
	C43.938,42.931,43.3,43.475,42.7,44.1s-1.119,1.294-1.559,2.009c-0.441,0.716-0.803,1.478-1.091,2.291s-0.5,1.675-0.641,2.591
	S39.2,52.875,39.2,53.9c0,0.975,0.069,1.9,0.205,2.775c0.136,0.875,0.339,1.7,0.607,2.475s0.603,1.5,1.002,2.175
	c0.399,0.675,0.861,1.3,1.386,1.875c0.55,0.575,1.137,1.075,1.764,1.502c0.627,0.426,1.292,0.779,1.999,1.06s1.453,0.491,2.242,0.63
	c0.789,0.139,1.62,0.208,2.495,0.208c0.825,0,1.619-0.044,2.383-0.131c0.764-0.088,1.498-0.219,2.204-0.394
	c0.707-0.175,1.385-0.394,2.036-0.656S58.8,64.85,59.4,64.5v0.875v0.875v0.875V68h0.05h0.05h0.05H59.6z"/>
<path style="fill:#75140C;" d="M64.6,68.1V67v-1.1v-1.1v-1.1c0.125,0.1,0.256,0.2,0.394,0.3c0.137,0.1,0.281,0.2,0.431,0.3
	c0.15,0.1,0.306,0.2,0.469,0.3c0.162,0.1,0.331,0.2,0.506,0.3s0.356,0.194,0.542,0.281s0.376,0.169,0.57,0.244
	c0.194,0.075,0.391,0.144,0.59,0.206S68.5,65.75,68.7,65.8s0.4,0.1,0.6,0.15s0.4,0.1,0.6,0.15s0.4,0.1,0.6,0.15
	c0.2,0.05,0.4,0.1,0.6,0.15c0.2,0.025,0.394,0.05,0.583,0.073c0.189,0.023,0.373,0.045,0.554,0.064
	c0.182,0.019,0.36,0.035,0.536,0.046C72.95,66.594,73.125,66.6,73.3,66.6c0.575,0,1.119-0.025,1.628-0.076s0.984-0.13,1.422-0.235
	s0.838-0.241,1.197-0.405c0.359-0.164,0.678-0.358,0.953-0.583s0.519-0.469,0.73-0.733c0.211-0.264,0.389-0.549,0.532-0.855
	c0.144-0.306,0.253-0.634,0.327-0.986C80.162,62.375,80.2,62,80.2,61.6c0-0.225-0.012-0.438-0.037-0.639s-0.063-0.392-0.113-0.574
	s-0.112-0.353-0.187-0.517c-0.075-0.164-0.163-0.32-0.263-0.47s-0.206-0.3-0.32-0.448c-0.114-0.149-0.236-0.296-0.368-0.44
	c-0.131-0.144-0.271-0.284-0.423-0.42C78.338,57.956,78.175,57.825,78,57.7s-0.356-0.25-0.544-0.375s-0.381-0.25-0.581-0.375
	s-0.406-0.25-0.619-0.375s-0.431-0.25-0.656-0.375s-0.456-0.25-0.694-0.375c-0.237-0.125-0.481-0.25-0.731-0.375
	s-0.506-0.25-0.769-0.375c-0.262-0.125-0.531-0.25-0.806-0.375c-0.275-0.15-0.55-0.294-0.823-0.434
	c-0.273-0.141-0.545-0.278-0.814-0.416c-0.269-0.138-0.535-0.275-0.796-0.416S69.65,53.15,69.4,53s-0.481-0.306-0.698-0.467
	c-0.217-0.161-0.42-0.326-0.614-0.495c-0.194-0.169-0.379-0.341-0.558-0.514C67.35,51.35,67.175,51.175,67,51
	s-0.344-0.356-0.505-0.544c-0.161-0.188-0.314-0.381-0.458-0.581s-0.278-0.406-0.401-0.619S65.4,48.825,65.3,48.6
	s-0.188-0.456-0.262-0.695c-0.075-0.239-0.137-0.486-0.188-0.743c-0.05-0.256-0.088-0.521-0.113-0.798
	C64.712,46.088,64.7,45.8,64.7,45.5c0-0.35,0.019-0.694,0.058-1.03c0.039-0.336,0.099-0.664,0.18-0.983s0.185-0.628,0.311-0.926
	c0.126-0.298,0.276-0.586,0.451-0.861c0.15-0.275,0.319-0.537,0.505-0.786c0.186-0.248,0.389-0.483,0.607-0.701
	s0.453-0.422,0.702-0.608S68.025,39.25,68.3,39.1c0.275-0.175,0.556-0.338,0.844-0.489c0.287-0.152,0.581-0.292,0.881-0.424
	c0.3-0.131,0.606-0.253,0.919-0.367c0.312-0.114,0.631-0.22,0.956-0.32c0.325-0.075,0.656-0.144,0.992-0.205
	c0.336-0.061,0.676-0.114,1.02-0.157c0.344-0.044,0.691-0.078,1.039-0.102C75.3,37.013,75.65,37,76,37
	c0.8,0,1.544,0.025,2.233,0.073c0.689,0.049,1.323,0.121,1.904,0.215c0.582,0.094,1.11,0.209,1.586,0.345S82.625,37.925,83,38.1
	v1.05v1.05v1.05v1.05c-0.475-0.325-0.988-0.613-1.536-0.861c-0.548-0.248-1.133-0.458-1.751-0.626
	c-0.619-0.169-1.272-0.297-1.958-0.383c-0.686-0.086-1.405-0.13-2.155-0.13c-0.2,0-0.406,0.006-0.616,0.019
	c-0.209,0.013-0.422,0.031-0.634,0.056s-0.425,0.056-0.634,0.094S73.3,40.55,73.1,40.6s-0.4,0.1-0.597,0.153
	c-0.197,0.053-0.391,0.109-0.578,0.172c-0.187,0.062-0.369,0.131-0.541,0.209S71.05,41.3,70.9,41.4s-0.3,0.206-0.447,0.319
	c-0.147,0.113-0.291,0.231-0.428,0.356s-0.269,0.256-0.391,0.394C69.512,42.606,69.4,42.75,69.3,42.9s-0.188,0.306-0.262,0.47
	c-0.075,0.164-0.137,0.336-0.188,0.517s-0.088,0.372-0.113,0.574C68.713,44.662,68.7,44.875,68.7,45.1
	c0,0.2,0.013,0.394,0.036,0.581c0.023,0.188,0.058,0.369,0.101,0.544c0.044,0.175,0.097,0.344,0.158,0.506
	c0.061,0.163,0.13,0.319,0.205,0.469s0.162,0.294,0.261,0.433c0.098,0.139,0.208,0.273,0.327,0.404
	c0.118,0.132,0.246,0.26,0.382,0.386c0.136,0.127,0.28,0.252,0.43,0.377s0.306,0.25,0.47,0.373s0.336,0.245,0.518,0.364
	c0.181,0.119,0.371,0.235,0.573,0.346c0.202,0.111,0.414,0.217,0.639,0.317c0.225,0.125,0.456,0.25,0.694,0.375
	c0.238,0.125,0.481,0.25,0.731,0.375s0.506,0.25,0.769,0.375c0.262,0.125,0.531,0.25,0.806,0.375c0.3,0.15,0.594,0.3,0.881,0.45
	c0.287,0.15,0.569,0.3,0.844,0.45c0.275,0.15,0.544,0.3,0.806,0.45c0.262,0.15,0.519,0.3,0.769,0.45s0.5,0.306,0.745,0.469
	c0.245,0.163,0.486,0.331,0.718,0.506s0.453,0.356,0.661,0.544c0.208,0.188,0.401,0.381,0.576,0.581c0.2,0.2,0.387,0.4,0.564,0.602
	c0.176,0.201,0.342,0.404,0.498,0.611c0.156,0.207,0.303,0.416,0.442,0.63c0.139,0.214,0.271,0.433,0.396,0.658
	s0.231,0.462,0.32,0.709s0.161,0.503,0.217,0.766c0.057,0.263,0.097,0.531,0.124,0.803C84.387,60.65,84.4,60.925,84.4,61.2
	c0,0.4-0.019,0.781-0.056,1.145c-0.037,0.364-0.094,0.711-0.169,1.043c-0.075,0.331-0.169,0.646-0.281,0.948S83.65,64.925,83.5,65.2
	s-0.319,0.537-0.503,0.786c-0.184,0.249-0.384,0.483-0.597,0.702c-0.213,0.218-0.438,0.422-0.672,0.607S81.25,67.65,81,67.8
	c-0.275,0.175-0.556,0.338-0.845,0.488c-0.289,0.15-0.586,0.287-0.893,0.412c-0.306,0.125-0.621,0.237-0.948,0.337
	S77.65,69.225,77.3,69.3s-0.7,0.144-1.053,0.205s-0.709,0.114-1.072,0.158c-0.363,0.043-0.731,0.078-1.109,0.101
	C73.688,69.788,73.3,69.8,72.9,69.8c-0.125,0-0.256,0-0.395-0.002c-0.139-0.001-0.286-0.004-0.443-0.01
	c-0.156-0.007-0.322-0.016-0.498-0.03C71.387,69.744,71.2,69.725,71,69.7s-0.394-0.05-0.584-0.076
	c-0.191-0.026-0.378-0.054-0.566-0.086s-0.375-0.065-0.566-0.105C69.094,69.394,68.9,69.35,68.7,69.3s-0.394-0.094-0.583-0.136
	c-0.189-0.042-0.373-0.083-0.554-0.127c-0.181-0.044-0.36-0.09-0.536-0.145c-0.177-0.055-0.352-0.117-0.527-0.192
	c-0.225-0.025-0.425-0.056-0.606-0.094c-0.181-0.037-0.344-0.081-0.494-0.131s-0.287-0.106-0.419-0.169
	C64.85,68.244,64.725,68.175,64.6,68.1z"/>
</svg>
