<?xml version="1.0" encoding="utf-8"?>
<!-- Generator: Adobe Illustrator 25.2.0, SVG Export Plug-In . SVG Version: 6.00 Build 0)  -->
<svg version="1.1" id="Layer_1" xmlns="http://www.w3.org/2000/svg" xmlns:xlink="http://www.w3.org/1999/xlink" x="0px" y="0px"
	 viewBox="0 0 100 100" style="enable-background:new 0 0 100 100;" xml:space="preserve">
<rect y="0" style="fill:#E2DEDB;" width="100" height="100"/>
<polygon points="90.2,21.7 63.4,12.5 50.2,8 36.9,12.5 9.8,21.8 9.8,30.8 50.2,17.1 90.2,30.7 "/>
<ellipse cx="53.6" cy="35.5" rx="7.4" ry="6.7"/>
<path d="M56,44.5c0,0,4.6,0.7,5,4.6s0,20.6,0,20.6s-1.2,3.2-5,3.3c-3.8,0.2-15.3-1.4-15.3-1.4L37.9,92l-6-0.6l3.6-25.2l13.6-1.4
	l1.9-9.4l-2.6,1l-16.9,5v-3.9l14.7-5.7l5-6.2C51.2,45.7,52.8,44.2,56,44.5z"/>
</svg>
