<?xml version="1.0" encoding="utf-8"?>
<!-- Generator: Adobe Illustrator 25.2.0, SVG Export Plug-In . SVG Version: 6.00 Build 0)  -->
<svg version="1.1" id="Layer_1" xmlns="http://www.w3.org/2000/svg" xmlns:xlink="http://www.w3.org/1999/xlink" x="0px" y="0px"
	 viewBox="0 0 100 100" style="enable-background:new 0 0 100 100;" xml:space="preserve">
<rect x="0" y="0" style="fill:#E2DEDB;" width="100" height="100"/>
<g>
	<g>
		<path d="M40.9,92.8h-28V12.5h26.9v11.3H21.2v22.7h17.1v11.3H21.2v23.7h19.7V92.8z"/>
	</g>
	<g>
		<path d="M87.1,87.3c-5.2,4.6-11,6.8-17.3,6.8c-7.4,0-13.3-3.7-17.9-11.1C47.3,75.7,45,65.9,45,53.7c0-12.4,2.5-22.6,7.5-30.6
			c5-8,11.3-12,19-12c5.5,0,10.2,1.3,14,3.9v13.7c-3.8-4.1-8.4-6.2-13.7-6.2c-5.3,0-9.7,2.8-13,8.5C55.4,36.7,53.7,44,53.7,53
			c0,9.2,1.5,16.5,4.4,21.8C61,80,65,82.7,70,82.7c3.4,0,6.4-1.1,8.9-3.2V60.4H68.4V49.2h18.7V87.3z"/>
	</g>
</g>
</svg>
