<?xml version="1.0" encoding="utf-8"?>
<!-- Generator: Adobe Illustrator 25.2.0, SVG Export Plug-In . SVG Version: 6.00 Build 0)  -->
<svg version="1.1" id="Layer_1" xmlns="http://www.w3.org/2000/svg" xmlns:xlink="http://www.w3.org/1999/xlink" x="0px" y="0px"
	 viewBox="0 0 100 100" style="enable-background:new 0 0 100 100;" xml:space="preserve">
<rect y="0" style="fill:#E2DEDB;" width="100" height="100"/>
<g>
	<g>
		<path d="M62.8,39.2H39.3V1.1h5.3v34h18.2V39.2z"/>
	</g>
	<g>
		<path d="M96.2,88h-6.3l-7.6-11.6c-0.7-1.1-1.4-2-2-2.8c-0.7-0.8-1.3-1.4-2-1.9c-0.7-0.5-1.4-0.8-2.2-1.1c-0.8-0.2-1.7-0.3-2.7-0.3
			h-4.4V88h-5.3V46.6h13.5c2,0,3.8,0.2,5.5,0.7c1.7,0.5,3.1,1.1,4.4,2.1c1.2,0.9,2.2,2.1,2.9,3.5c0.7,1.4,1,3,1,4.8
			c0,1.4-0.2,2.8-0.7,4s-1.1,2.3-2,3.2c-0.9,0.9-1.9,1.7-3.2,2.4s-2.6,1.2-4.2,1.5v0.1c0.8,0.3,1.4,0.7,2,1.1
			c0.6,0.4,1.1,0.9,1.6,1.4c0.5,0.5,1,1.2,1.5,1.8c0.5,0.7,1,1.5,1.7,2.4L96.2,88z M69.1,51v15h7.2c1.3,0,2.6-0.2,3.7-0.5
			c1.1-0.4,2.1-0.9,2.9-1.6c0.8-0.7,1.5-1.5,1.9-2.5c0.5-1,0.7-2.1,0.7-3.3c0-2.2-0.8-3.9-2.4-5.2S79.3,51,76.3,51H69.1z"/>
	</g>
	<path d="M11.6,54.6v33H47v-33H11.6z M28.9,81.3c-6.6,0-11.9-4.9-11.9-11s5.3-11,11.9-11c6.6,0,11.9,4.9,11.9,11
		S35.5,81.3,28.9,81.3z"/>
	<path d="M36.8,68v1.2h-3.1V68h-1.1v1.2h-3.1V68h-1.1v1.2h-3.1V68h-1.1v1.2h-3.1V68h-1.1v1.2v0.2v0.3h0c0.2,4.7,4,8.4,8.8,8.4h0.2
		c4.7,0,8.6-3.7,8.8-8.4h0v-0.3v-0.2V68H36.8z"/>
	<path d="M44.7,45.9H14c-1.3,0-2.3,1-2.3,2.3V52H47v-3.8C47,46.9,45.9,45.9,44.7,45.9z M16.7,51.3c-1.2,0-2.1-0.9-2.1-2.1
		s0.9-2.1,2.1-2.1s2.1,0.9,2.1,2.1S17.9,51.3,16.7,51.3z M21.9,51.3c-1.2,0-2.1-0.9-2.1-2.1s0.9-2.1,2.1-2.1c1.2,0,2.1,0.9,2.1,2.1
		S23.1,51.3,21.9,51.3z"/>
</g>
</svg>
