<?xml version="1.0" encoding="utf-8"?>
<!-- Generator: Adobe Illustrator 25.2.0, SVG Export Plug-In . SVG Version: 6.00 Build 0)  -->
<svg version="1.1" id="Layer_1" xmlns="http://www.w3.org/2000/svg" xmlns:xlink="http://www.w3.org/1999/xlink" x="0px" y="0px"
	 viewBox="0 0 100 100" style="enable-background:new 0 0 100 100;" xml:space="preserve">
<rect x="0" y="0" style="fill:#E2DEDB;" width="100" height="100"/>
<g>
	<g>
		<path d="M21.5,92.4V50.5H7.9V42h36.4v8.5H30.7v41.8H21.5z"/>
	</g>
	<g>
		<path d="M53.8,92.4V42h29.7v8.5H61.9v11.2H82v8.5H61.9v13.7h22.4v8.5H53.8z"/>
	</g>
	<g>
		<path d="M60.8,32.3v-3.7h18.5v3.7c0,1.7-1.3,3-3,3H63.8C62.1,35.3,60.8,34,60.8,32.3z"/>
		<path d="M16.6,32.4v-3.8h17.4v3.8c0,1.6-1.3,2.9-2.9,2.9H19.5C17.9,35.3,16.6,34,16.6,32.4z"/>
		<path d="M79.3,27.1H61.4c0,0-0.3-3-4.9-3.5c-4.6-0.5-14.1-0.7-16.9,0c-2.8,0.7-5.7,1.1-5.6,3.5H16.6c0,0-1.3-4.8,7.4-9.5
			s16.8-4.8,25-5C57.2,12.5,77,14.6,79.3,27.1z"/>
	</g>
</g>
</svg>
