<?xml version="1.0" encoding="utf-8"?>
<!-- Generator: Adobe Illustrator 25.2.0, SVG Export Plug-In . SVG Version: 6.00 Build 0)  -->
<svg version="1.1" id="Layer_1" xmlns="http://www.w3.org/2000/svg" xmlns:xlink="http://www.w3.org/1999/xlink" x="0px" y="0px"
	 viewBox="0 0 100 100" style="enable-background:new 0 0 100 100;" xml:space="preserve">
<rect y="0" style="fill:#E2DEDB;" width="100" height="100"/>
<path d="M47.1,63.4c0,0-10.6-6.9-21.6-1.9S16.5,93,39.4,85.8v-9.5h-8.8V71h15.9c0,0,1.7,1.5,1.7,2.4s0,16.2,0,16.2s-5,4.1-15.4,3.4
	c-10.4-0.6-22-4.3-22-19.9s15.6-23.4,37.4-15.8C48.3,57.3,48.8,62.6,47.1,63.4z"/>
<path d="M90.5,90.9c-0.6-1.2-6.8-12.4-6.8-12.4s-1.4-2.5-3.9-2.7s-0.5-2.1,1.9-2.1s6.7-2.8,6.5-9.3c-0.3-6.5-8.4-9.3-12.1-9.5
	c-3.8-0.2-16.4-0.3-16.4-0.3s-1.3,0.5-1.1,2.2v34.3c0,0,0.2,1.2,4.4,1.2s3.2-1.1,3.2-1.1V76.4h5.6c0,0,2.8-0.4,4.9,4.4
	c2.1,4.8,5.2,11.5,5.2,11.5H90C90,92.3,91.2,92.1,90.5,90.9z M74,71.6h-7.6V59.8h8.2c0,0,5.1,0.9,5.1,5.9C79.8,70.7,74,71.6,74,71.6
	z"/>
<path d="M8.8,45.2c0,0,4.6-2.6,9.1-1.9c4.5,0.6,4.1,3.7,4.1,3.7s-1.7,3.5-4.8,3.4s-9.3-3.1-9.3-3.1S7.3,45.9,8.8,45.2z"/>
<polygon points="27.2,13.3 26.4,49.5 49.9,49.5 49.9,14.4 38.1,7 "/>
<path d="M55,26.8c0,0,4.7-3.8,9.1-3.8s21.1,0,21.1,0s7,3,7,4.3s-1.3,3.2-1.5,4.8c-0.2,1.6,0,16.8,0,16.8H86c0,0,2.8-4.3,2.6-9.2
	c-0.2-4.9-4.3-5.4-10.1-5.2L73.1,30c0,0-3.2-0.6-3.9,0c-0.6,0.6,1.4,3.5,1.4,3.5s-5.4,0.9-7.4,2.5c-2,1.6-2.7,2.6-2.6,5.3
	c0.1,2.7,1.6,7.3,3.1,8.2h-7.3l0.1-16.2l-2-4.7C54.5,28.6,54.2,27.5,55,26.8z"/>
</svg>
