<?xml version="1.0" encoding="utf-8"?>
<!-- Generator: Adobe Illustrator 25.2.0, SVG Export Plug-In . SVG Version: 6.00 Build 0)  -->
<svg version="1.1" id="Layer_1" xmlns="http://www.w3.org/2000/svg" xmlns:xlink="http://www.w3.org/1999/xlink" x="0px" y="0px"
	 viewBox="0 0 100 100" style="enable-background:new 0 0 100 100;" xml:space="preserve">
<rect x="0" y="0" style="fill:#E2DEDB;" width="100" height="100"/>
<g>
	<path d="M78.5,17.1v27.7H11.1V17.1H78.5 M85.5,10.1H4.1v41.7h81.4V10.1L85.5,10.1z"/>
	<path d="M33.6,75.8c1.4-1.9,2.2-4.3,2.2-6.8c0-6.5-5.3-11.8-11.8-11.8S12.3,62.5,12.3,69c0,2.7,0.9,5.2,2.4,7.2
		C8.1,79.5,3.6,86.2,3.6,94h41.9C45.5,86,40.6,79.1,33.6,75.8z M24,64.2c2.6,0,4.8,2.1,4.8,4.8c0,2.6-2.1,4.8-4.8,4.8
		c-2.6,0-4.8-2.1-4.8-4.8C19.3,66.3,21.4,64.2,24,64.2z M13.1,86.8c2.5-3.5,6.6-5.8,11.4-5.8s8.9,2.3,11.4,5.8H13.1z"/>
	<path d="M74.8,75.8c1.4-1.9,2.2-4.3,2.2-6.8c0-6.5-5.3-11.8-11.8-11.8S53.5,62.5,53.5,69c0,2.7,0.9,5.2,2.4,7.2
		C49.3,79.5,44.8,86.2,44.8,94h41.9C86.7,86,81.8,79.1,74.8,75.8z M65.3,64.2c2.6,0,4.8,2.1,4.8,4.8c0,2.6-2.1,4.8-4.8,4.8
		c-2.6,0-4.8-2.1-4.8-4.8C60.5,66.3,62.6,64.2,65.3,64.2z M54.4,86.8C56.8,83.3,61,81,65.7,81s8.9,2.3,11.4,5.8H54.4z"/>
</g>
</svg>
