<?xml version="1.0" encoding="utf-8"?>
<!-- Generator: Adobe Illustrator 25.2.0, SVG Export Plug-In . SVG Version: 6.00 Build 0)  -->
<svg version="1.1" id="Layer_1" xmlns="http://www.w3.org/2000/svg" xmlns:xlink="http://www.w3.org/1999/xlink" x="0px" y="0px"
	 viewBox="0 0 100 100" style="enable-background:new 0 0 100 100;" xml:space="preserve">
<rect x="0" y="0" style="fill:#E2DEDB;" width="100" height="100"/>
<g>
	<g>
		<ellipse cx="70.9" cy="14" rx="5.7" ry="5.4"/>
		<path d="M85.5,27.4C84.9,22.4,80,22,80,22H61.2c-4.1,0.6-5,4.2-5.2,5.4H56v25.3c0,1,0.8,1.9,1.9,1.9H58c1,0,1.9-0.8,1.9-1.9V33.3
			V33c0-0.8,0.7-1.5,1.5-1.5c0.8,0,1.5,0.7,1.5,1.5v0.3v22.5v0.6v29.2c0,1.8,1.5,3.3,3.3,3.3c1.8,0,3.3-1.5,3.3-3.3l0.2-29.2v-0.5
			c0-0.7,0.5-1.2,1.2-1.2c0.7,0,1.2,0.5,1.2,1.2v0.5h0v29.2c0,1.8,1.8,3.3,3.6,3.3h0c1.8,0,3.3-1.5,3.3-3.3V56.4v-23v-0.5
			c0-0.7,0.6-1.3,1.3-1.3s1.3,0.6,1.3,1.3v0.5v19.3c0,1.1,0.9,2,2,2c1.1,0,2-0.9,2-2L85.5,27.4L85.5,27.4z"/>
	</g>
	<g>
		<path d="M42.4,48.5c-1.3-4.8-4.8-17.1-6-21.1c-1.6-5-4.8-4.5-4.8-4.5h-4h-2.1h-7c0,0-3.2-0.5-4.8,4.5c-1.3,4-4.7,16.3-6,21.1
			C7.4,49.6,8,50.7,9.1,51c1.1,0.3,2.2-0.3,2.5-1.4l4.1-15c0-0.1,0-0.3,0.1-0.4l0.8-2.8l0.1-0.4l0,0c0.3-0.6,1-0.9,1.7-0.7
			c0.7,0.2,1.1,0.9,1,1.5l0,0l-0.1,0.4L18.5,35c0,0,0,0.1,0,0.1l-8,27.1h8.6v24.6c0,1.3,1.1,2.4,2.4,2.4h0c1.3,0,2.4-1.1,2.4-2.4
			V62.2h1.6h1v24.6c0,1.3,1.1,2.4,2.4,2.4c1.3,0,2.4-1.1,2.4-2.4V62.2h8.3l-7.9-27c-0.1-0.1-0.1-0.2-0.1-0.3L30.7,32c0,0,0,0,0-0.1
			l0,0l0,0c-0.2-0.7,0.3-1.5,1-1.7c0.7-0.2,1.4,0.2,1.7,0.8l0,0l0.4,1.7l0.4,1.5c0,0,0,0.1,0,0.1l4.2,15.4c0.3,1.1,1.4,1.7,2.5,1.4
			C42.1,50.7,42.7,49.6,42.4,48.5z"/>
		<ellipse cx="25.3" cy="14.2" rx="6" ry="5.6"/>
	</g>
	<rect x="45.2" y="8.6" width="5.4" height="80.6"/>
</g>
</svg>
