<?xml version="1.0" encoding="utf-8"?>
<!-- Generator: Adobe Illustrator 25.2.0, SVG Export Plug-In . SVG Version: 6.00 Build 0)  -->
<svg version="1.1" id="Layer_1" xmlns="http://www.w3.org/2000/svg" xmlns:xlink="http://www.w3.org/1999/xlink" x="0px" y="0px"
	 viewBox="0 0 100 100" style="enable-background:new 0 0 100 100;" xml:space="preserve">
<rect x="0" y="0" style="fill:#E2DEDB;" width="100" height="100"/>
<ellipse cx="65.2" cy="15.1" rx="5.6" ry="6.3"/>
<path d="M57.7,24.4h14.8c0,0,4.1,1,4.7,5.9s0.5,16.2,0.5,16.2h-4.7l-0.2-14.7l-1.2,0.1l0.1,14.6H57.7V33.1l-3.3,13.3H49l5.2-18.6
	C54.2,27.8,55.1,24.8,57.7,24.4z"/>
<path d="M43.1,41.8H21.9c-1,0-1.9-0.8-1.9-1.9V22.5c0-1,0.8-1.9,1.9-1.9h21.2c1,0,1.9,0.8,1.9,1.9v17.4
	C44.9,40.9,44.1,41.8,43.1,41.8z"/>
<path d="M39.8,45.8H25.6c-0.6,0-1-0.5-1-1v-0.6c0-0.6,0.5-1,1-1h14.2c0.6,0,1,0.5,1,1v0.6C40.8,45.3,40.4,45.8,39.8,45.8z"/>
<path d="M87.6,52.7H12.4c-1.1,0-2-0.9-2-2v-1.5c0-1.1,0.9-2,2-2h75.2c1.1,0,2,0.9,2,2v1.5C89.6,51.8,88.7,52.7,87.6,52.7z"/>
<path d="M83.4,91.2H15.9c-1.6,0-2.9-1.3-2.9-2.9v-32c0-1.6,1.3-2.9,2.9-2.9h67.6c1.6,0,2.9,1.3,2.9,2.9v32
	C86.4,89.9,85,91.2,83.4,91.2z"/>
</svg>
