<?xml version="1.0" encoding="utf-8"?>
<!-- Generator: Adobe Illustrator 25.2.0, SVG Export Plug-In . SVG Version: 6.00 Build 0)  -->
<svg version="1.1" id="Layer_1" xmlns="http://www.w3.org/2000/svg" xmlns:xlink="http://www.w3.org/1999/xlink" x="0px" y="0px"
	 viewBox="0 0 100 100" style="enable-background:new 0 0 100 100;" xml:space="preserve">
<rect x="0" y="0" style="fill:#E2DEDB;" width="100" height="100"/>
<path d="M84.2,72.2c-2.2-3.5-4.8-1.5-9.9-7.3c-5-5.8-17.7-13.2-17.7-13.2v0c3.9-4.3,6.6-7.4,7.1-8c2-2.8,6.3-2.2,8.9-1.9
	c2.6,0.4,6.1,1.9,12.1-3.7c6-5.6,2.6-16.4,2.6-16.4l-8.2,9.5h-6.3l-7.1-7.1l0.7-7.8l9.1-7.6c0,0-11.5-3.7-16.7,1.5
	S56.1,24,56.7,29.1s-3.3,10.2-3.3,10.2s-1.8,2-4.6,5.1L24,21.2l-3-7.6l-7.8-3l-3.9,4.3l3,8.4l7.6,2.4l24.1,23.9
	c-11.4,12.5-29.3,32-30.4,32.8c-1.7,1.3-1.7,6,0,8.2s5.8,1.9,5.8,1.9s19.2-20.7,32.3-35.2c1.6,8.7,13.1,17.9,13.1,17.9l3.7,6.7
	c15.6,13.2,21.8,8.9,21.8,8.9C92.6,83.4,86.5,75.7,84.2,72.2z"/>
</svg>
