<?xml version="1.0" encoding="utf-8"?>
<!-- Generator: Adobe Illustrator 25.2.0, SVG Export Plug-In . SVG Version: 6.00 Build 0)  -->
<svg version="1.1" id="Layer_1" xmlns="http://www.w3.org/2000/svg" xmlns:xlink="http://www.w3.org/1999/xlink" x="0px" y="0px"
	 viewBox="0 0 100 100" style="enable-background:new 0 0 100 100;" xml:space="preserve">
<rect style="fill:#E2DEDB;" width="100" height="100"/>
<g>
	<ellipse cx="53.8" cy="15.1" rx="6.1" ry="5.8"/>
	<path d="M69.6,29.5c-0.7-5.4-5.9-5.8-5.9-5.8H43.4c-4.4,0.7-5.4,4.5-5.6,5.8h-0.1v27.3c0,1.1,0.9,2,2,2H40c1.1,0,2-0.9,2-2v-21
		v-0.3c0-0.9,0.7-1.6,1.6-1.6c0.9,0,1.6,0.7,1.6,1.6v0.3v24.2v0.6v31.5c0,2,1.6,3.5,3.5,3.5s3.5-1.6,3.5-3.5l0.2-31.5v-0.6
		c0-0.7,0.6-1.3,1.3-1.3s1.3,0.6,1.3,1.3v0.6h0v31.5c0,2,1.9,3.5,3.9,3.5h0c2,0,3.5-1.6,3.5-3.5V60.7V35.9v-0.6
		c0-0.8,0.6-1.4,1.4-1.4c0.8,0,1.4,0.6,1.4,1.4v0.6v20.9c0,1.2,0.9,2.1,2.1,2.1s2.1-0.9,2.1-2.1L69.6,29.5L69.6,29.5z"/>
</g>
</svg>
