<?xml version="1.0" encoding="utf-8"?>
<!-- Generator: Adobe Illustrator 25.2.0, SVG Export Plug-In . SVG Version: 6.00 Build 0)  -->
<svg version="1.1" id="Layer_1" xmlns="http://www.w3.org/2000/svg" xmlns:xlink="http://www.w3.org/1999/xlink" x="0px" y="0px"
	 viewBox="0 0 100 100" style="enable-background:new 0 0 100 100;" xml:space="preserve">
<rect x="0" y="0" style="fill:#E2DEDB;" width="100" height="100"/>
<path d="M70.6,59.1c-0.3-11.5-11.5-12.6-11.5-12.6s-3.1,0.1-6.9-0.4V26.5c11.6,0.4,16.2,5.4,16.2,5.4l0.2-7.7
	c-6.3-2-11.7-2.9-16.4-3.1V10.2h-4.6v10.9c-13,0.8-18.5,8.3-18.3,15c0.3,9.2,6.6,13.4,18.3,14.4v18.6c-10.4,0-18.3-5.9-18.3-5.9v7.6
	c6.9,2.4,13,3.5,18.3,3.7v15.3h4.6V74.4C64.5,73.5,70.8,66.8,70.6,59.1z M36.8,37.9c-1.3-9,5.8-10.7,5.8-10.7c1.8-0.3,3.5-0.5,5-0.6
	v18.8C42.5,44.3,37.4,42.1,36.8,37.9z M60.1,66.1c-2.7,1.4-5.3,2.2-7.9,2.6V50.9c9.5,1.3,11.3,5.3,11.5,9.1
	C63.9,64.3,60.1,66.1,60.1,66.1z"/>
</svg>
