<?xml version="1.0" encoding="utf-8"?>
<!-- Generator: Adobe Illustrator 25.2.0, SVG Export Plug-In . SVG Version: 6.00 Build 0)  -->
<svg version="1.1" id="Layer_1" xmlns="http://www.w3.org/2000/svg" xmlns:xlink="http://www.w3.org/1999/xlink" x="0px" y="0px"
	 viewBox="0 0 100 100" style="enable-background:new 0 0 100 100;" xml:space="preserve">
<rect x="0" y="0" style="fill:#E2DEDB;" width="100" height="100"/>
<g>
	<g>
		<path d="M16.9,92.2V36.3h27.2v9.5H24.3v12.4h18.4v9.4H24.3v15.2h20.5v9.5H16.9z"/>
		<path d="M68.1,71.7v-9.5h16v22.3c-1.6,2.4-3.9,4.4-6.8,6.1s-5.9,2.6-8.9,2.6c-3.6,0-6.8-1.1-9.6-3.3c-2.8-2.2-5-5.6-6.6-10
			c-1.6-4.4-2.4-9.7-2.4-15.6c0-6.2,0.8-11.4,2.5-15.8c1.6-4.4,3.8-7.6,6.4-9.8c2.6-2.2,5.7-3.2,9.4-3.2c4.4,0,7.9,1.4,10.5,4.2
			c2.6,2.8,4.3,6.9,5.1,12.3l-7.3,2.1c-0.5-2.9-1.6-5.1-3-6.6C71.8,45.7,70,45,68,45c-3.2,0-5.7,1.5-7.7,4.6c-2,3.1-2.9,7.7-2.9,14
			c0,6.7,1.1,11.9,3.2,15.4c1.8,3,4.3,4.5,7.4,4.5c1.4,0,2.9-0.4,4.5-1.3c1.6-0.8,2.9-2,4.2-3.5v-7.1H68.1z"/>
	</g>
	<g>
		<path d="M72.5,27.7V12.1h9.8V14h-8v4.7h7.5v1.8h-7.5v5.3h8.3v1.8H72.5z"/>
	</g>
	<polygon style="fill:#666666;" points="22.9,8.8 30.1,8.8 23.7,16.3 30.4,16.3 22.9,23.7 29,23.7 17.1,34.3 22.7,25.6 15.9,25.5 
		22.8,17.8 15.9,17.8 	"/>
</g>
</svg>
