<?xml version="1.0" encoding="utf-8"?>
<!-- Generator: Adobe Illustrator 25.2.0, SVG Export Plug-In . SVG Version: 6.00 Build 0)  -->
<svg version="1.1" id="Layer_1" xmlns="http://www.w3.org/2000/svg" xmlns:xlink="http://www.w3.org/1999/xlink" x="0px" y="0px"
	 viewBox="0 0 100 100" style="enable-background:new 0 0 100 100;" xml:space="preserve">
<rect x="0" y="0" style="fill:#E2DEDB;" width="100" height="100"/>
<g>
	<path d="M27.8,74.5H24V56.1H13.1v18.5H9.3V31.9h3.8v17.9H24V31.9h3.9V74.5z"/>
	<path d="M51.7,31.9l-8.3,42.6h-4.3l-8.2-42.6h4.2l5.7,32.3c0.2,1,0.3,2.2,0.4,3.6h0.1c0.1-1.1,0.2-2.3,0.5-3.7l5.8-32.3H51.7z"/>
	<path d="M71.9,74.5h-4.2l-2.1-10.8h-9.1l-2,10.8h-4.2L59,31.9h4.3L71.9,74.5z M64.6,57.9l-3.2-17c-0.1-0.6-0.2-1.4-0.3-2.7H61
		c-0.1,1.1-0.2,2-0.3,2.7l-3.2,17H64.6z"/>
	<path d="M90.7,72.8c-1.7,1.7-3.9,2.5-6.5,2.5c-3.4,0-6-2-8.1-5.9s-3-9-3-15.4c0-6.8,1.1-12.3,3.4-16.5s5.1-6.3,8.6-6.3
		c2.2,0,4.1,0.6,5.6,1.8v7c-1.6-1.7-3.3-2.6-5.2-2.6c-2.5,0-4.5,1.5-6.1,4.4s-2.3,6.9-2.3,11.8c0,4.7,0.7,8.4,2.2,11.2
		c1.5,2.8,3.4,4.2,5.7,4.2c2.2,0,4.1-1,5.7-2.9V72.8z"/>
</g>
</svg>
