<?xml version="1.0" encoding="iso-8859-1"?>
<!-- Generator: Adobe Illustrator 25.3.1, SVG Export Plug-In . SVG Version: 6.00 Build 0)  -->
<svg version="1.1" id="Layer_1" xmlns="http://www.w3.org/2000/svg" xmlns:xlink="http://www.w3.org/1999/xlink" x="0px" y="0px"
	 viewBox="0 0 100 100" style="enable-background:new 0 0 100 100;" xml:space="preserve">
<polygon style="fill:#E2DEDB;" points="0,0 25,0 50,0 75,0 100,0 100,25 100,50 100,75 100,100 75,100 50,100 25,100 0,100 0,75 
	0,50 0,25 "/>
<path d="M37,62.8l-1.4,7.15l-1.4,7.15l-1.4,7.15l-1.4,7.15h-0.95H29.5h-0.95H27.6l-0.975-5l-0.975-5l-0.975-5l-0.975-5
	c-0.05-0.225-0.094-0.45-0.131-0.677c-0.038-0.227-0.069-0.455-0.094-0.686c-0.025-0.231-0.044-0.465-0.056-0.704
	C23.406,69.094,23.4,68.85,23.4,68.6h-0.025H23.35h-0.025H23.3c0,0.225-0.013,0.456-0.033,0.691c-0.02,0.234-0.049,0.472-0.08,0.709
	s-0.066,0.475-0.098,0.709C23.056,70.944,23.025,71.175,23,71.4l-0.975,5l-0.975,5l-0.975,5l-0.975,5h-0.975H17.15h-0.975H15.2
	l-1.475-7.15L12.25,77.1l-1.475-7.15L9.3,62.8h0.925h0.925h0.925H13l0.925,5.225l0.925,5.225l0.925,5.225L16.7,83.7
	c0.05,0.225,0.087,0.45,0.117,0.677c0.03,0.227,0.052,0.455,0.071,0.686c0.018,0.231,0.034,0.465,0.051,0.704S16.975,86.25,17,86.5
	h0.025h0.025h0.025H17.1c0-0.175,0.013-0.363,0.034-0.564c0.022-0.202,0.053-0.417,0.091-0.649c0.038-0.231,0.081-0.478,0.128-0.742
	S17.45,84,17.5,83.7l1.05-5.225l1.05-5.225l1.05-5.225L21.7,62.8h0.875h0.875h0.875H25.2l0.975,5.275l0.975,5.275l0.975,5.275
	L29.1,83.9c0.025,0.175,0.05,0.362,0.075,0.561c0.025,0.199,0.05,0.408,0.075,0.627c0.025,0.218,0.05,0.446,0.075,0.682
	c0.025,0.236,0.05,0.48,0.075,0.73h0.025h0.025h0.025H29.5c0-0.175,0.006-0.356,0.019-0.547c0.013-0.191,0.031-0.391,0.056-0.603
	s0.056-0.438,0.094-0.678c0.038-0.241,0.081-0.497,0.131-0.772l0.9-5.25l0.9-5.25l0.9-5.25l0.9-5.25h0.9h0.9h0.9H37v-0.025V62.85
	v-0.025V62.8z"/>
<path d="M55.6,91.4h-0.925H53.75h-0.925H51.9l-0.475-1.825L50.95,87.75l-0.475-1.825L50,84.1h-2h-2h-2h-2l-0.45,1.825L41.1,87.75
	l-0.45,1.825L40.2,91.4h-0.925H38.35h-0.925H36.5l1.925-7.15l1.925-7.15l1.925-7.15L44.2,62.8h0.95h0.95h0.95H48l1.9,7.15l1.9,7.15
	l1.9,7.15L55.6,91.4z M49.1,80.3l-0.7-2.85l-0.7-2.85L47,71.75l-0.7-2.85c-0.025-0.1-0.05-0.212-0.075-0.337
	c-0.025-0.125-0.05-0.263-0.075-0.413s-0.05-0.312-0.075-0.488C46.05,67.488,46.025,67.3,46,67.1h-0.025H45.95h-0.025H45.9
	c-0.025,0.2-0.05,0.387-0.075,0.562C45.8,67.838,45.775,68,45.75,68.15s-0.05,0.288-0.075,0.413C45.65,68.688,45.625,68.8,45.6,68.9
	l-0.7,2.85l-0.7,2.85l-0.7,2.85l-0.7,2.85h1.575h1.575h1.575H49.1z"/>
<path d="M57.5,90.3v-1.225V87.85v-1.225V85.4c0.075,0.1,0.156,0.2,0.242,0.299c0.086,0.098,0.177,0.195,0.271,0.289
	s0.191,0.185,0.289,0.27C58.4,86.344,58.5,86.425,58.6,86.5s0.206,0.15,0.317,0.224s0.227,0.146,0.346,0.215
	s0.241,0.134,0.364,0.195C59.75,87.194,59.875,87.25,60,87.3s0.25,0.1,0.375,0.148c0.125,0.048,0.25,0.095,0.375,0.139
	s0.25,0.084,0.375,0.12s0.25,0.067,0.375,0.093s0.244,0.05,0.358,0.074c0.114,0.023,0.224,0.045,0.33,0.063s0.209,0.034,0.311,0.045
	S62.7,88,62.8,88c0.35,0,0.681-0.019,0.992-0.058c0.311-0.039,0.601-0.099,0.87-0.18c0.269-0.081,0.516-0.184,0.739-0.311
	C65.625,87.325,65.825,87.175,66,87s0.331-0.363,0.467-0.566s0.251-0.422,0.345-0.659s0.165-0.494,0.214-0.772
	c0.049-0.278,0.074-0.578,0.074-0.903c0-0.175-0.006-0.344-0.02-0.506c-0.014-0.163-0.036-0.319-0.068-0.469
	s-0.072-0.294-0.123-0.431c-0.051-0.138-0.114-0.269-0.189-0.394s-0.15-0.25-0.227-0.373c-0.077-0.124-0.155-0.246-0.236-0.365
	c-0.081-0.119-0.165-0.234-0.254-0.345S65.8,81,65.7,80.9s-0.206-0.2-0.319-0.3c-0.112-0.1-0.231-0.2-0.356-0.3
	s-0.256-0.2-0.394-0.3c-0.137-0.1-0.281-0.2-0.431-0.3c-0.15-0.1-0.3-0.2-0.45-0.3c-0.15-0.1-0.3-0.2-0.45-0.3s-0.3-0.2-0.45-0.3
	c-0.15-0.1-0.3-0.2-0.45-0.3c-0.175-0.125-0.344-0.25-0.508-0.377c-0.164-0.126-0.323-0.255-0.479-0.385
	c-0.156-0.132-0.31-0.266-0.461-0.405C60.8,77.194,60.65,77.05,60.5,76.9c-0.15-0.125-0.294-0.256-0.433-0.394
	c-0.139-0.137-0.273-0.281-0.404-0.431c-0.131-0.15-0.26-0.306-0.386-0.469c-0.127-0.162-0.252-0.331-0.377-0.506
	c-0.1-0.15-0.2-0.312-0.297-0.484c-0.097-0.172-0.191-0.353-0.278-0.541s-0.169-0.381-0.241-0.578C58.013,73.3,57.95,73.1,57.9,72.9
	c-0.075-0.2-0.138-0.412-0.189-0.634c-0.052-0.222-0.092-0.453-0.123-0.691c-0.031-0.238-0.054-0.481-0.068-0.728
	C57.506,70.6,57.5,70.35,57.5,70.1c0-0.325,0.013-0.644,0.039-0.955c0.027-0.311,0.067-0.614,0.124-0.908
	c0.056-0.294,0.128-0.578,0.217-0.851c0.089-0.273,0.195-0.536,0.32-0.786c0.1-0.25,0.213-0.487,0.336-0.714
	c0.123-0.227,0.258-0.442,0.401-0.649c0.144-0.206,0.297-0.403,0.458-0.592c0.161-0.189,0.33-0.37,0.505-0.545
	c0.175-0.15,0.356-0.294,0.544-0.43c0.188-0.136,0.381-0.264,0.581-0.382s0.406-0.228,0.619-0.327s0.431-0.186,0.656-0.261
	s0.45-0.144,0.677-0.205c0.226-0.061,0.454-0.114,0.685-0.157c0.231-0.044,0.466-0.078,0.705-0.102
	C64.606,62.213,64.85,62.2,65.1,62.2c0.525,0,1.019,0.019,1.48,0.058c0.461,0.039,0.889,0.098,1.282,0.179
	c0.394,0.082,0.754,0.185,1.077,0.311S69.55,63.025,69.8,63.2v1.2v1.2v1.2V68c-0.3-0.3-0.619-0.562-0.956-0.787
	c-0.337-0.225-0.694-0.412-1.069-0.562s-0.769-0.263-1.181-0.338C66.181,66.238,65.75,66.2,65.3,66.2
	c-0.125,0-0.25,0.006-0.375,0.017c-0.125,0.011-0.25,0.026-0.375,0.045s-0.25,0.04-0.375,0.064s-0.25,0.048-0.375,0.073
	s-0.244,0.062-0.358,0.109s-0.224,0.103-0.33,0.166s-0.209,0.132-0.311,0.204C62.7,66.95,62.6,67.025,62.5,67.1
	s-0.194,0.156-0.283,0.244c-0.089,0.087-0.173,0.181-0.254,0.281c-0.082,0.1-0.16,0.206-0.236,0.319
	c-0.077,0.113-0.152,0.231-0.227,0.356c-0.1,0.125-0.181,0.256-0.247,0.392s-0.116,0.277-0.153,0.421
	c-0.037,0.143-0.062,0.29-0.078,0.439C61.006,69.7,61,69.85,61,70s0.006,0.3,0.019,0.448c0.013,0.148,0.031,0.295,0.056,0.439
	s0.056,0.284,0.094,0.42c0.037,0.136,0.081,0.268,0.131,0.393s0.106,0.244,0.167,0.358c0.061,0.114,0.126,0.224,0.195,0.33
	c0.069,0.106,0.141,0.209,0.215,0.311C61.95,72.8,62.025,72.9,62.1,73c0.1,0.1,0.2,0.2,0.302,0.299
	c0.101,0.099,0.204,0.196,0.31,0.289c0.106,0.094,0.216,0.185,0.33,0.27c0.114,0.086,0.233,0.167,0.358,0.242
	c0.125,0.1,0.256,0.2,0.394,0.3c0.138,0.1,0.281,0.2,0.431,0.3s0.306,0.2,0.469,0.3c0.162,0.1,0.331,0.2,0.506,0.3
	c0.175,0.125,0.35,0.256,0.523,0.391c0.173,0.134,0.345,0.272,0.514,0.409c0.169,0.138,0.335,0.275,0.495,0.409
	s0.317,0.266,0.468,0.391c0.15,0.15,0.3,0.3,0.448,0.451c0.148,0.152,0.295,0.305,0.439,0.461s0.284,0.315,0.42,0.48
	c0.136,0.164,0.268,0.333,0.393,0.508s0.244,0.356,0.355,0.542c0.111,0.186,0.214,0.376,0.307,0.57
	c0.094,0.194,0.178,0.391,0.252,0.59C69.887,80.7,69.95,80.9,70,81.1c0.075,0.2,0.137,0.412,0.189,0.636
	c0.051,0.223,0.092,0.458,0.123,0.702s0.053,0.497,0.067,0.758S70.4,83.725,70.4,84c0,0.35-0.013,0.694-0.037,1.028
	C70.338,85.363,70.3,85.688,70.25,86s-0.113,0.613-0.188,0.897S69.9,87.45,69.8,87.7s-0.212,0.488-0.336,0.713
	c-0.123,0.225-0.258,0.437-0.402,0.637s-0.297,0.388-0.458,0.563c-0.161,0.175-0.329,0.337-0.504,0.487s-0.356,0.294-0.545,0.43
	c-0.189,0.136-0.386,0.264-0.592,0.382c-0.206,0.119-0.422,0.229-0.649,0.327c-0.227,0.099-0.464,0.186-0.714,0.261
	c-0.225,0.075-0.456,0.137-0.692,0.189c-0.236,0.051-0.476,0.092-0.72,0.123c-0.244,0.032-0.491,0.054-0.739,0.068
	C63.2,91.894,62.95,91.9,62.7,91.9c-0.075,0-0.163,0-0.259-0.002c-0.097-0.001-0.203-0.005-0.316-0.01
	c-0.112-0.007-0.231-0.016-0.353-0.03c-0.122-0.014-0.247-0.033-0.372-0.058s-0.25-0.05-0.375-0.075s-0.25-0.05-0.375-0.075
	s-0.25-0.05-0.375-0.075c-0.125-0.025-0.25-0.05-0.375-0.075s-0.25-0.056-0.375-0.092c-0.125-0.036-0.25-0.077-0.375-0.121
	s-0.25-0.091-0.375-0.139C58.65,91.1,58.525,91.05,58.4,91s-0.231-0.106-0.323-0.166c-0.092-0.059-0.17-0.122-0.239-0.184
	c-0.069-0.062-0.129-0.125-0.183-0.184C57.6,90.406,57.55,90.35,57.5,90.3z"/>
<path d="M90.8,91.4h-0.85H89.1h-0.85H87.4v-3.1v-3.1v-3.1V79H85h-2.4h-2.4h-2.4v3.1v3.1v3.1v3.1h-0.85H76.1h-0.85H74.4v-7.15V77.1
	v-7.15V62.8h0.85h0.85h0.85h0.85v3v3v3v3h2.4h2.4H85h2.4v-3v-3v-3v-3h0.85h0.85h0.85h0.85v7.15v7.15v7.15V91.4z"/>
<path d="M9.2,33.9c1.325-1.375,2.706-2.7,4.136-3.975s2.908-2.5,4.427-3.675s3.078-2.3,4.67-3.375s3.217-2.1,4.867-3.075
	c0.85-0.475,1.706-0.931,2.569-1.367c0.862-0.436,1.731-0.851,2.606-1.245s1.756-0.765,2.644-1.114S36.9,15.4,37.8,15.1
	c0.225-0.075,0.456-0.144,0.691-0.209s0.472-0.128,0.709-0.191s0.475-0.125,0.709-0.191c0.234-0.066,0.466-0.134,0.691-0.209
	l0.35-0.1l0.35-0.1l0.35-0.1L42,13.9l0.35-0.05l0.35-0.05l0.35-0.05l0.35-0.05c0.25-0.025,0.494-0.062,0.734-0.106
	c0.241-0.044,0.478-0.094,0.716-0.144s0.475-0.1,0.716-0.144c0.241-0.044,0.484-0.081,0.734-0.106l0.725-0.05l0.725-0.05l0.725-0.05
	L49.2,13c1.95-0.025,3.888,0.113,5.8,0.392c1.913,0.28,3.8,0.701,5.65,1.245c1.85,0.543,3.662,1.209,5.425,1.977
	c1.762,0.767,3.475,1.636,5.125,2.586c1.7,1,3.35,2.056,4.947,3.169c1.597,1.112,3.141,2.281,4.628,3.506s2.919,2.506,4.291,3.844
	C86.438,31.056,87.75,32.45,89,33.9c-0.675-0.7-1.356-1.381-2.047-2.045c-0.691-0.664-1.391-1.311-2.103-1.942
	c-0.713-0.632-1.438-1.247-2.178-1.849c-0.741-0.602-1.497-1.189-2.272-1.764c-0.75-0.575-1.513-1.138-2.286-1.688
	c-0.773-0.55-1.558-1.087-2.351-1.612c-0.794-0.525-1.597-1.037-2.408-1.537c-0.811-0.5-1.63-0.988-2.455-1.463
	c-0.825-0.45-1.662-0.881-2.512-1.292c-0.85-0.411-1.713-0.801-2.588-1.17s-1.762-0.715-2.662-1.039S61.325,15.876,60.4,15.6
	l-0.675-0.175L59.05,15.25l-0.675-0.175L57.7,14.9L57,14.775l-0.7-0.125l-0.7-0.125L54.9,14.4c-0.225-0.05-0.456-0.087-0.691-0.117
	c-0.234-0.03-0.472-0.052-0.709-0.071c-0.237-0.018-0.475-0.034-0.709-0.051c-0.234-0.017-0.466-0.036-0.691-0.062
	c-0.225,0-0.456-0.012-0.691-0.03s-0.472-0.039-0.709-0.057c-0.237-0.019-0.475-0.035-0.709-0.039
	c-0.234-0.005-0.466,0.002-0.691,0.026l-0.7,0.05l-0.7,0.05l-0.7,0.05l-0.7,0.05c-0.225,0.025-0.456,0.056-0.691,0.091
	s-0.472,0.072-0.709,0.109s-0.475,0.075-0.709,0.109c-0.234,0.034-0.466,0.066-0.691,0.091l-0.35,0.05L43,14.7l-0.35,0.05L42.3,14.8
	l-0.35,0.1L41.6,15l-0.35,0.1l-0.35,0.1c-0.225,0.075-0.45,0.137-0.675,0.194C40,15.45,39.775,15.5,39.55,15.55
	c-0.225,0.05-0.45,0.1-0.675,0.156c-0.225,0.056-0.45,0.119-0.675,0.194c-0.9,0.275-1.794,0.581-2.681,0.914
	s-1.769,0.692-2.644,1.074c-0.875,0.381-1.744,0.784-2.606,1.204c-0.862,0.42-1.719,0.858-2.569,1.308s-1.688,0.919-2.513,1.403
	c-0.825,0.484-1.638,0.984-2.438,1.497s-1.587,1.038-2.362,1.572C19.612,25.406,18.85,25.95,18.1,26.5
	c-0.775,0.575-1.544,1.163-2.305,1.761c-0.761,0.599-1.514,1.208-2.257,1.827s-1.478,1.247-2.202,1.883
	C10.613,32.606,9.9,33.25,9.2,33.9z"/>
<path d="M9.2,35.2c0.7,0.65,1.412,1.287,2.134,1.914s1.453,1.242,2.191,1.849c0.738,0.606,1.481,1.203,2.228,1.792
	S17.25,41.925,18,42.5c0.775,0.55,1.556,1.094,2.344,1.628s1.581,1.059,2.381,1.572s1.606,1.013,2.419,1.497S26.775,48.15,27.6,48.6
	c0.85,0.425,1.7,0.844,2.555,1.252c0.855,0.408,1.714,0.805,2.582,1.186s1.747,0.747,2.639,1.092s1.799,0.67,2.724,0.97
	c0.225,0.075,0.45,0.144,0.675,0.208c0.225,0.064,0.45,0.124,0.675,0.18c0.225,0.056,0.45,0.109,0.675,0.16
	C40.35,53.7,40.575,53.75,40.8,53.8l0.35,0.1L41.5,54l0.35,0.1l0.35,0.1l0.35,0.05l0.35,0.05l0.35,0.05l0.35,0.05
	c0.225,0.025,0.456,0.056,0.691,0.091c0.234,0.034,0.472,0.072,0.709,0.109s0.475,0.075,0.709,0.109
	c0.234,0.034,0.466,0.066,0.691,0.091l0.7,0.05l0.7,0.05l0.7,0.05L49.2,55c0.225,0.025,0.456,0.037,0.691,0.041
	c0.234,0.003,0.472-0.003,0.709-0.016c0.237-0.013,0.475-0.031,0.709-0.053C51.544,54.95,51.775,54.925,52,54.9
	s0.456-0.044,0.691-0.061s0.472-0.033,0.709-0.051s0.475-0.041,0.709-0.07c0.234-0.03,0.466-0.068,0.691-0.118l0.7-0.125l0.7-0.125
	l0.7-0.125l0.7-0.125l0.675-0.175l0.675-0.175l0.675-0.175L60.3,53.4c0.9-0.275,1.794-0.569,2.681-0.884
	c0.887-0.316,1.769-0.653,2.644-1.016s1.744-0.75,2.606-1.166C69.094,49.919,69.95,49.475,70.8,49
	c0.825-0.45,1.644-0.919,2.455-1.406s1.614-0.994,2.408-1.519c0.793-0.525,1.578-1.069,2.351-1.631S79.55,43.3,80.3,42.7
	c0.75-0.575,1.494-1.169,2.23-1.778c0.736-0.609,1.464-1.234,2.182-1.872c0.719-0.638,1.428-1.288,2.127-1.947
	s1.386-1.328,2.061-2.003c-1.225,1.475-2.519,2.888-3.875,4.237c-1.356,1.35-2.775,2.638-4.25,3.862s-3.006,2.388-4.588,3.487
	c-1.581,1.1-3.213,2.138-4.887,3.112c-1.675,0.95-3.406,1.825-5.181,2.6c-1.775,0.775-3.594,1.45-5.444,2s-3.731,0.975-5.631,1.25
	c-1.9,0.275-3.819,0.4-5.744,0.35l-0.725-0.05L47.85,55.9l-0.725-0.05L46.4,55.8c-0.25-0.025-0.494-0.056-0.734-0.092
	s-0.478-0.076-0.716-0.12c-0.238-0.044-0.475-0.091-0.716-0.139C43.994,55.4,43.75,55.35,43.5,55.3l-0.35-0.05L42.8,55.2l-0.35-0.05
	L42.1,55.1L41.75,55l-0.35-0.1l-0.35-0.1l-0.35-0.1c-0.225-0.075-0.456-0.144-0.691-0.209c-0.234-0.066-0.472-0.128-0.709-0.191
	s-0.475-0.125-0.709-0.191c-0.234-0.066-0.466-0.134-0.691-0.209c-0.925-0.3-1.838-0.625-2.737-0.973
	c-0.9-0.348-1.788-0.721-2.663-1.115c-0.875-0.394-1.737-0.809-2.587-1.245S28.225,49.675,27.4,49.2
	c-1.675-0.95-3.319-1.956-4.925-3.017c-1.606-1.061-3.175-2.176-4.7-3.345c-1.525-1.169-3.006-2.391-4.437-3.664
	S10.525,36.575,9.2,35.2z"/>
<path d="M49.5,50.2c-1.8,0-3.519-0.45-5.084-1.264c-1.566-0.814-2.978-1.992-4.166-3.449c-1.188-1.456-2.15-3.19-2.816-5.117
	c-0.666-1.927-1.034-4.045-1.034-6.27s0.369-4.344,1.034-6.27s1.628-3.661,2.816-5.118s2.6-2.634,4.166-3.448
	C45.981,18.45,47.7,18,49.5,18s3.519,0.444,5.084,1.249c1.566,0.805,2.978,1.97,4.166,3.414s2.15,3.166,2.816,5.083
	S62.6,31.775,62.6,34s-0.362,4.35-1.02,6.286c-0.658,1.936-1.611,3.683-2.792,5.152s-2.59,2.66-4.161,3.483S51.325,50.2,49.5,50.2z
	 M49.5,18.9c-1.675,0-3.269,0.425-4.717,1.192s-2.751,1.877-3.845,3.246s-1.978,2.997-2.589,4.802
	C37.738,29.944,37.4,31.925,37.4,34s0.338,4.056,0.948,5.861c0.611,1.805,1.495,3.433,2.589,4.801s2.397,2.478,3.845,3.245
	c1.449,0.767,3.043,1.193,4.718,1.193s3.269-0.425,4.717-1.192s2.751-1.877,3.845-3.246s1.978-2.997,2.589-4.801
	C61.262,38.056,61.6,36.075,61.6,34s-0.338-4.056-0.948-5.861c-0.611-1.805-1.495-3.433-2.589-4.802s-2.397-2.478-3.845-3.245
	C52.769,19.325,51.175,18.9,49.5,18.9z"/>
<path d="M49.5,27.6c0.732,0,1.429,0.179,2.063,0.503s1.205,0.793,1.685,1.372c0.479,0.579,0.868,1.268,1.136,2.034
	S54.8,33.117,54.8,34s-0.148,1.725-0.416,2.491s-0.656,1.455-1.136,2.034s-1.05,1.048-1.685,1.372
	C50.929,40.221,50.232,40.4,49.5,40.4s-1.429-0.179-2.063-0.503s-1.205-0.793-1.685-1.372s-0.868-1.269-1.136-2.035
	C44.348,35.725,44.2,34.883,44.2,34s0.148-1.725,0.416-2.491s0.656-1.455,1.136-2.034c0.479-0.58,1.05-1.048,1.685-1.372
	S48.768,27.6,49.5,27.6z"/>
<path style="fill:#FFFFFF;" d="M46.6,30.5c0.235,0,0.458,0.056,0.661,0.157c0.203,0.101,0.387,0.248,0.541,0.429
	c0.154,0.181,0.278,0.396,0.365,0.636c0.086,0.239,0.133,0.502,0.133,0.778s-0.048,0.539-0.133,0.778
	c-0.086,0.239-0.21,0.455-0.365,0.636c-0.154,0.181-0.337,0.327-0.541,0.429C47.058,34.444,46.834,34.5,46.6,34.5
	s-0.458-0.056-0.661-0.157c-0.203-0.101-0.387-0.248-0.541-0.429s-0.278-0.397-0.364-0.636S44.9,32.776,44.9,32.5
	s0.048-0.539,0.133-0.778s0.211-0.455,0.365-0.636s0.337-0.327,0.541-0.429C46.142,30.556,46.366,30.5,46.6,30.5z"/>
</svg>
