<?xml version="1.0" encoding="utf-8"?>
<!-- Generator: Adobe Illustrator 25.2.0, SVG Export Plug-In . SVG Version: 6.00 Build 0)  -->
<svg version="1.1" id="Layer_1" xmlns="http://www.w3.org/2000/svg" xmlns:xlink="http://www.w3.org/1999/xlink" x="0px" y="0px"
	 viewBox="0 0 100 100" style="enable-background:new 0 0 100 100;" xml:space="preserve">
<rect style="fill:#E2DEDB;" width="100" height="100"/>
<path d="M90.2,27.8c0-5.9-4.3-10.6-9.6-10.6c-0.7,0-1.3,0.1-2,0.2c-0.2-4.8-3.6-8.6-7.8-8.6c-4.3,0-7.9,4-7.9,8.9
	c0,0.4,0,0.8,0.1,1.2c-6.5,1.2-11.4,8-11.4,16.2c0,9.1,6.1,16.4,13.5,16.4c0.6,0,1.1-0.1,1.7-0.1c0.8,1.2,1.9,2.3,3.1,3.2v34.5h4.7
	V56.9c0.9,0.2,1.9,0.3,2.9,0.3c7,0,12.7-5.7,12.7-12.7c0-3.3-1.3-6.3-3.4-8.6C88.9,34,90.2,31.1,90.2,27.8z"/>
<rect x="17.6" y="60" width="36.1" height="11.7"/>
<polygon points="62.7,76.4 9.8,76.4 9.8,82.2 19.1,82.2 19.1,91.1 24.5,91.1 24.5,82.2 47,82.2 47,91.1 52.4,91.1 52.4,82.2 
	62.7,82.2 "/>
</svg>
