<?xml version="1.0" encoding="iso-8859-1"?>
<!-- Generator: Adobe Illustrator 25.3.1, SVG Export Plug-In . SVG Version: 6.00 Build 0)  -->
<svg version="1.1" id="Layer_1" xmlns="http://www.w3.org/2000/svg" xmlns:xlink="http://www.w3.org/1999/xlink" x="0px" y="0px"
	 viewBox="0 0 100 100" style="enable-background:new 0 0 100 100;" xml:space="preserve">
<polygon style="fill:#E2DEDB;" points="0,0 25,0 50,0 75,0 100,0 100,25 100,50 100,75 100,100 75,100 50,100 25,100 0,100 0,75 
	0,50 0,25 "/>
<polygon points="59.2,26.4 66.975,42.25 74.75,58.1 82.525,73.95 90.3,89.8 74.85,89.8 59.4,89.8 43.95,89.8 28.5,89.8 
	36.175,73.95 43.85,58.1 51.525,42.25 "/>
<path style="fill:#FFFFFF;" d="M50.3,84.3v-0.725V82.85v-0.725V81.4c0-0.2,0.062-0.381,0.167-0.533
	c0.105-0.152,0.252-0.274,0.421-0.355c0.168-0.081,0.359-0.121,0.551-0.111c0.192,0.011,0.386,0.074,0.561,0.199l0,0l0,0l0,0l0,0
	c0.15,0.125,0.306,0.237,0.469,0.342s0.331,0.202,0.506,0.296s0.356,0.185,0.544,0.277C53.706,81.606,53.9,81.7,54.1,81.8
	c0.175,0.075,0.35,0.15,0.527,0.222c0.176,0.072,0.354,0.141,0.535,0.203c0.181,0.062,0.366,0.119,0.555,0.166
	S56.1,82.475,56.3,82.5c0.175,0.05,0.35,0.094,0.523,0.131s0.346,0.069,0.514,0.094c0.169,0.025,0.334,0.044,0.495,0.056
	C57.994,82.794,58.15,82.8,58.3,82.8c0.525,0,1.019-0.031,1.48-0.095c0.461-0.064,0.889-0.161,1.283-0.292
	c0.393-0.132,0.753-0.297,1.076-0.499C62.463,81.713,62.75,81.475,63,81.2s0.475-0.581,0.672-0.917
	c0.197-0.336,0.366-0.701,0.503-1.095c0.137-0.394,0.244-0.816,0.316-1.264S64.6,77,64.6,76.5c0-0.275-0.013-0.544-0.036-0.805
	c-0.023-0.261-0.058-0.514-0.101-0.757s-0.097-0.478-0.158-0.702c-0.061-0.224-0.13-0.436-0.205-0.636s-0.162-0.4-0.261-0.597
	c-0.098-0.197-0.208-0.391-0.327-0.578c-0.118-0.187-0.246-0.369-0.382-0.541c-0.136-0.172-0.28-0.334-0.43-0.484
	c-0.15-0.175-0.306-0.344-0.47-0.508c-0.164-0.164-0.336-0.324-0.517-0.48c-0.181-0.156-0.372-0.309-0.574-0.461
	S60.725,69.65,60.5,69.5c-0.2-0.15-0.406-0.306-0.619-0.467c-0.213-0.161-0.431-0.327-0.656-0.496s-0.456-0.341-0.694-0.514
	C58.294,67.85,58.05,67.675,57.8,67.5s-0.5-0.356-0.748-0.541c-0.248-0.184-0.495-0.372-0.739-0.559s-0.484-0.375-0.72-0.559
	c-0.236-0.184-0.468-0.366-0.693-0.541s-0.444-0.363-0.655-0.559c-0.211-0.197-0.414-0.403-0.608-0.616
	c-0.194-0.213-0.378-0.431-0.551-0.653C52.912,63.25,52.75,63.025,52.6,62.8c-0.175-0.225-0.338-0.456-0.487-0.694
	c-0.15-0.237-0.288-0.481-0.413-0.731s-0.237-0.506-0.338-0.769c-0.1-0.263-0.188-0.531-0.262-0.806
	c-0.1-0.275-0.188-0.569-0.263-0.878S50.7,58.287,50.65,57.95s-0.087-0.688-0.112-1.047S50.5,56.175,50.5,55.8
	c0-0.475,0.019-0.931,0.056-1.37c0.037-0.439,0.094-0.861,0.169-1.268c0.075-0.406,0.169-0.797,0.281-1.173
	c0.113-0.376,0.244-0.739,0.394-1.089s0.312-0.681,0.486-0.995c0.173-0.314,0.358-0.611,0.551-0.893s0.397-0.547,0.608-0.798
	c0.211-0.251,0.43-0.489,0.655-0.714c0.25-0.225,0.5-0.438,0.755-0.636c0.255-0.198,0.514-0.383,0.782-0.552
	c0.269-0.168,0.547-0.321,0.84-0.457S56.675,45.6,57,45.5c0.3-0.1,0.606-0.194,0.916-0.278c0.309-0.084,0.622-0.159,0.934-0.222
	s0.625-0.112,0.934-0.147C60.094,44.819,60.4,44.8,60.7,44.8c0.625,0,1.219,0.025,1.778,0.073s1.084,0.12,1.572,0.215
	c0.487,0.094,0.938,0.209,1.347,0.345c0.409,0.136,0.778,0.292,1.103,0.467c0.075,0.05,0.144,0.106,0.205,0.169
	c0.061,0.062,0.114,0.131,0.158,0.206c0.044,0.075,0.078,0.156,0.101,0.244C66.988,46.606,67,46.7,67,46.8v0.7v0.7v0.7v0.7
	c0,0.2-0.056,0.381-0.151,0.534c-0.095,0.153-0.229,0.278-0.386,0.366c-0.156,0.087-0.334,0.138-0.517,0.141
	s-0.37-0.041-0.545-0.141c-0.35-0.225-0.719-0.419-1.106-0.583c-0.388-0.164-0.794-0.298-1.219-0.404
	c-0.426-0.107-0.87-0.185-1.332-0.236C61.281,49.225,60.8,49.2,60.3,49.2c-0.2,0-0.394,0.006-0.584,0.019
	c-0.191,0.013-0.378,0.031-0.566,0.056c-0.187,0.025-0.375,0.056-0.566,0.094S58.2,49.45,58,49.5s-0.388,0.112-0.566,0.186
	c-0.178,0.073-0.347,0.158-0.509,0.252s-0.319,0.197-0.472,0.308C56.3,50.356,56.15,50.475,56,50.6s-0.294,0.256-0.43,0.395
	c-0.136,0.139-0.264,0.286-0.382,0.443s-0.228,0.322-0.327,0.498C54.763,52.113,54.675,52.3,54.6,52.5s-0.15,0.4-0.22,0.606
	s-0.136,0.419-0.193,0.644c-0.056,0.225-0.103,0.463-0.136,0.719C54.019,54.725,54,55,54,55.3c0,0.25,0.006,0.5,0.02,0.745
	c0.014,0.245,0.036,0.486,0.068,0.718c0.031,0.231,0.071,0.453,0.123,0.66c0.051,0.208,0.114,0.402,0.189,0.576
	c0.075,0.2,0.156,0.394,0.244,0.581s0.181,0.369,0.281,0.544s0.206,0.344,0.319,0.506c0.113,0.162,0.231,0.319,0.356,0.469
	s0.263,0.3,0.411,0.45c0.148,0.15,0.308,0.3,0.477,0.45s0.347,0.3,0.533,0.45c0.186,0.15,0.379,0.3,0.579,0.45
	s0.406,0.3,0.618,0.451c0.213,0.152,0.432,0.304,0.657,0.46c0.225,0.156,0.456,0.316,0.694,0.48
	c0.237,0.164,0.481,0.333,0.731,0.508c0.275,0.175,0.544,0.356,0.806,0.542c0.262,0.186,0.519,0.376,0.769,0.57
	c0.25,0.194,0.494,0.391,0.731,0.59C62.844,65.7,63.075,65.9,63.3,66.1s0.45,0.406,0.672,0.619c0.222,0.212,0.441,0.431,0.653,0.656
	c0.213,0.225,0.419,0.456,0.616,0.694c0.197,0.238,0.384,0.481,0.559,0.731s0.344,0.5,0.505,0.753
	c0.161,0.253,0.314,0.509,0.458,0.772c0.144,0.262,0.278,0.531,0.401,0.809C67.288,71.412,67.4,71.7,67.5,72
	s0.188,0.606,0.262,0.922S67.9,73.562,67.95,73.9s0.088,0.688,0.113,1.053C68.087,75.319,68.1,75.7,68.1,76.1
	c0,0.5-0.019,0.981-0.056,1.444c-0.037,0.463-0.094,0.906-0.169,1.331s-0.169,0.831-0.281,1.219S67.35,80.85,67.2,81.2
	s-0.306,0.681-0.472,0.995c-0.166,0.314-0.341,0.611-0.528,0.893s-0.387,0.547-0.603,0.798c-0.216,0.251-0.447,0.489-0.697,0.714
	s-0.506,0.431-0.769,0.62c-0.262,0.189-0.531,0.361-0.806,0.517s-0.556,0.297-0.844,0.424C62.194,86.287,61.9,86.4,61.6,86.5
	c-0.325,0.1-0.65,0.188-0.977,0.262s-0.654,0.137-0.986,0.188c-0.332,0.05-0.666,0.088-1.005,0.113
	C58.294,87.087,57.95,87.1,57.6,87.1c-0.125,0-0.25-0.006-0.378-0.017c-0.128-0.011-0.259-0.026-0.397-0.045
	c-0.137-0.019-0.281-0.041-0.434-0.065c-0.153-0.023-0.316-0.048-0.491-0.073s-0.35-0.056-0.525-0.092
	c-0.175-0.036-0.35-0.077-0.525-0.121c-0.175-0.044-0.35-0.09-0.525-0.139C54.15,86.5,53.975,86.45,53.8,86.4s-0.35-0.1-0.524-0.151
	s-0.345-0.104-0.514-0.16c-0.169-0.057-0.334-0.116-0.495-0.18S51.95,85.775,51.8,85.7c-0.1-0.05-0.2-0.1-0.299-0.15
	c-0.098-0.05-0.195-0.1-0.29-0.15s-0.185-0.1-0.27-0.15c-0.086-0.05-0.167-0.1-0.242-0.15c-0.05-0.05-0.1-0.106-0.147-0.167
	s-0.091-0.126-0.128-0.195c-0.037-0.069-0.069-0.141-0.091-0.214S50.3,84.375,50.3,84.3z"/>
<path d="M37.1,47.1l-1.15-3.35L34.8,40.4l-1.15-3.35L32.5,33.7h-2.6h-2.6h-2.6h-2.6l-0.15-0.775L21.8,32.15l-0.15-0.775L21.5,30.6
	h2.125h2.125h2.125H30v-0.525V29.55v-0.525V28.5h-2.25H25.5h-2.25H21l-0.25-2.225L20.5,24.05l-0.25-2.225L20,19.6
	c0.025,0,0.056,0,0.091,0c0.034,0,0.072,0,0.109,0s0.075,0,0.109,0s0.066,0,0.091,0c0.45,0,0.881-0.094,1.275-0.263
	c0.394-0.169,0.75-0.413,1.05-0.712s0.544-0.656,0.712-1.05C23.606,17.181,23.7,16.75,23.7,16.3s-0.094-0.881-0.263-1.275
	c-0.169-0.394-0.413-0.75-0.712-1.05c-0.3-0.3-0.656-0.544-1.05-0.712C21.281,13.094,20.85,13,20.4,13
	c-0.4,0-0.788,0.069-1.149,0.197c-0.361,0.128-0.695,0.316-0.99,0.553c-0.294,0.238-0.546,0.525-0.745,0.853S17.175,15.3,17.1,15.7
	l-0.025-0.025L17.05,15.65l-0.025-0.025L17,15.6v0.075v0.075v0.075V15.9c0,0.05,0,0.094,0,0.134s0,0.078,0,0.116s0,0.075,0,0.116
	s0,0.084,0,0.134c0,0.125,0.006,0.25,0.019,0.373c0.013,0.123,0.031,0.245,0.056,0.364c0.025,0.119,0.056,0.235,0.094,0.346
	C17.206,17.594,17.25,17.7,17.3,17.8l0.65,4.475l0.65,4.475l0.65,4.475L19.9,35.7h2.65h2.65h2.65h2.65l1.225,3.325l1.225,3.325
	l1.225,3.325L35.4,49l1.45-0.425l1.45-0.425l1.45-0.425L41.2,47.3v-0.375V46.55v-0.375V45.8l-1.025,0.325L39.15,46.45l-1.025,0.325
	L37.1,47.1z"/>
<path d="M31.2,41.8c-0.275,0.875-0.688,1.688-1.211,2.414c-0.523,0.726-1.158,1.367-1.876,1.898s-1.522,0.953-2.383,1.242
	C24.869,47.644,23.95,47.8,23,47.8c-1.2,0-2.344-0.244-3.384-0.684c-1.041-0.441-1.978-1.078-2.766-1.866s-1.425-1.725-1.866-2.766
	C14.544,41.444,14.3,40.3,14.3,39.1c0-0.7,0.081-1.381,0.236-2.034s0.383-1.278,0.677-1.866c0.293-0.588,0.653-1.138,1.07-1.641
	c0.417-0.503,0.893-0.959,1.418-1.359l-0.025-0.625l-0.025-0.625l-0.026-0.625L17.6,29.7c-0.825,0.475-1.581,1.05-2.252,1.708
	c-0.67,0.658-1.255,1.399-1.736,2.205c-0.481,0.806-0.859,1.678-1.117,2.598C12.238,37.131,12.1,38.1,12.1,39.1
	c0,1.5,0.3,2.925,0.844,4.219s1.331,2.456,2.306,3.431s2.138,1.763,3.431,2.306C19.975,49.6,21.4,49.9,22.9,49.9
	c1.025,0,2.019-0.144,2.961-0.411c0.942-0.267,1.833-0.658,2.652-1.151c0.819-0.494,1.565-1.091,2.22-1.771
	c0.655-0.68,1.217-1.442,1.667-2.267l-0.3-0.625l-0.3-0.625l-0.3-0.625L31.2,41.8z"/>
</svg>
