<?xml version="1.0" encoding="utf-8"?>
<!-- Generator: Adobe Illustrator 25.2.0, SVG Export Plug-In . SVG Version: 6.00 Build 0)  -->
<svg version="1.1" id="Layer_1" xmlns="http://www.w3.org/2000/svg" xmlns:xlink="http://www.w3.org/1999/xlink" x="0px" y="0px"
	 viewBox="0 0 100 100" style="enable-background:new 0 0 100 100;" xml:space="preserve">
<rect x="0" y="0" style="fill:#E2DEDB;" width="100" height="100"/>
<path d="M90.7,17.6v-7.4H86h-7.4H70h-7.4H9.3v7.4h4.1v61.8H9.3v7.4h81.3v-7.4H86V17.6H90.7z M46.3,79.3h-8.9V17.6h8.9V79.3z
	 M53.7,70.9h8.9v8.5h-8.9V70.9z M61.9,63.6v-8.4c-2.3-1.4-3.8-3.9-3.8-6.8c0-4.4,3.5-7.9,7.9-7.9S74,44,74,48.4
	c0,2.8-1.4,5.2-3.6,6.6v8.6H61.9z M53.7,33.7V17.6h8.9v16.1H53.7z M20.8,17.6H30v61.8h-9.2V17.6z M70,79.3v-8.5h8.6v8.5H70z
	 M78.6,33.7H70V17.6h8.6V33.7z"/>
</svg>
