<?xml version="1.0" encoding="utf-8"?>
<!-- Generator: Adobe Illustrator 25.2.0, SVG Export Plug-In . SVG Version: 6.00 Build 0)  -->
<svg version="1.1" id="Layer_1" xmlns="http://www.w3.org/2000/svg" xmlns:xlink="http://www.w3.org/1999/xlink" x="0px" y="0px"
	 viewBox="0 0 100 100" style="enable-background:new 0 0 100 100;" xml:space="preserve">
<rect x="0" y="0" style="fill:#E2DEDB;" width="100" height="100"/>
<g>
	<g>
		<path d="M25.5,50.3v-33H14.7v-6.7h28.8v6.7H32.8v33H25.5z"/>
		<path d="M53.4,50.3l-8.7-39.8h7.5l5.4,27.3l6.6-27.3H73l6.4,27.8l5.6-27.8h7.4l-8.8,39.8h-7.8l-7.2-29.7l-7.2,29.7H53.4z"/>
	</g>
	<polygon points="35.3,54 71.6,62.6 67.6,81.9 30.9,73.5 	"/>
	<ellipse cx="19.2" cy="77.9" rx="4.4" ry="4.9"/>
	<ellipse cx="53.8" cy="85.8" rx="4.4" ry="4.9"/>
	<polygon points="92.2,54 92.2,82.8 68.6,82.8 68.6,97.7 95.8,97.7 95.8,95.9 95.8,82.8 95.8,54 	"/>
	<path d="M27.6,74.5l3.2-16.3l-11.5-1.1c0,0-3.7,5.8-5.6,8.6c-1.9,2.8-2,10-2,10l0.9,0.5c0,0,2.8-6.1,8.1-5.3
		c5.3,0.8,4.6,8.2,4.6,8.2L47.7,84c0.1-1.4,2.5-3.6,2.5-3.6L27.6,74.5z M24.8,66.5c-4.5,0.4-10-0.7-10-0.7l4.7-7.6l7.3,1.8
		L24.8,66.5z"/>
	<line style="fill:none;stroke:#FFFFFF;stroke-miterlimit:10;" x1="9.1" y1="81.3" x2="68.6" y2="95.4"/>
</g>
</svg>
