<?xml version="1.0" encoding="utf-8"?>
<!-- Generator: Adobe Illustrator 25.2.0, SVG Export Plug-In . SVG Version: 6.00 Build 0)  -->
<svg version="1.1" id="Layer_1" xmlns="http://www.w3.org/2000/svg" xmlns:xlink="http://www.w3.org/1999/xlink" x="0px" y="0px"
	 viewBox="0 0 100 100" style="enable-background:new 0 0 100 100;" xml:space="preserve">
<rect x="0" style="fill:#E2DEDB;" width="100" height="100"/>
<g>
	<g>
		<path d="M22.3,48.4V9h7.3v32.7h18.2v6.7H22.3z"/>
		<path d="M53,8.7h13.3c3.4,0,5.9,0.3,7.6,1c1.7,0.7,3.3,1.8,4.7,3.4c1.4,1.6,2.6,3.7,3.4,6.3c0.8,2.6,1.2,5.8,1.2,9.6
			c0,3.4-0.4,6.4-1.3,9c-0.9,2.5-2,4.6-3.3,6c-1.3,1.5-2.9,2.6-4.8,3.3c-1.9,0.8-4.3,1.1-7.2,1.1H53V8.7z M60.3,15.4v26.3h5.5
			c2.4,0,4.1-0.2,5.1-0.6s1.9-1,2.6-1.8s1.2-2.1,1.7-3.8c0.4-1.7,0.7-4,0.7-6.9c0-2.9-0.2-5.3-0.7-7c-0.5-1.7-1.2-3-2.1-4
			s-2.1-1.6-3.5-1.9c-1-0.2-3-0.4-5.9-0.4H60.3z"/>
	</g>
	<polygon points="86.7,45.3 86.7,74.1 66.2,74.1 66.2,88.9 89.8,88.9 89.8,87.2 89.8,74.1 89.8,45.3 	"/>
	<polygon points="27.5,54 61.8,55.1 62.5,74.8 27.7,73.9 	"/>
	<ellipse cx="17.6" cy="81.4" rx="4" ry="4.9"/>
	<ellipse transform="matrix(3.848084e-02 -0.9993 0.9993 3.848084e-02 -32.6266 128.7948)" cx="50.6" cy="81.4" rx="4.9" ry="4"/>
	<path d="M54.7,76.5c0,0,1.7,2,2.2,4.8c0,0,4.5,0.4,5.8-1.3l-0.5-3.2L54.7,76.5z"/>
	<path d="M25.1,76l-0.7-16.9l-10.6,1.2c0,0-2.1,6.5-3.1,9.7C9.5,73.1,11,80.3,11,80.3l1,0.3c0,0,1.2-6.7,6.1-6.9
		C23,73.5,24,81,24,81l21.2,0.4c-0.2-1.4,1.4-4.1,1.4-4.1L25.1,76z M20.7,68.5c-3.9,1.3-9.2,1.3-9.2,1.3l2.6-8.5l6.9,0.4L20.7,68.5z
		"/>
</g>
</svg>
