<?xml version="1.0" encoding="iso-8859-1"?>
<!-- Generator: Adobe Illustrator 25.3.1, SVG Export Plug-In . SVG Version: 6.00 Build 0)  -->
<svg version="1.1" id="Layer_1" xmlns="http://www.w3.org/2000/svg" xmlns:xlink="http://www.w3.org/1999/xlink" x="0px" y="0px"
	 viewBox="0 0 100 100" style="enable-background:new 0 0 100 100;" xml:space="preserve">
<polygon style="fill:#E2DEDB;" points="0,0 25,0 50,0 75,0 100,0 100,25 100,50 100,75 100,100 75,100 50,100 25,100 0,100 0,75 
	0,50 0,25 "/>
<path style="fill:#EB3223;" d="M64.2,92.6h-9.325H45.55h-9.325H26.9V79.2V65.8V52.4V39c0-2.125,0.431-4.15,1.211-5.992
	c0.78-1.842,1.908-3.502,3.301-4.896c1.394-1.393,3.054-2.521,4.896-3.301S40.175,23.6,42.3,23.6h1.6h1.6h1.6h1.6
	c2.125,0,4.15,0.431,5.992,1.211c1.842,0.78,3.502,1.908,4.896,3.301c1.393,1.394,2.521,3.054,3.301,4.896
	C63.669,34.85,64.1,36.875,64.1,39v13.4v13.4v13.4v13.4h0.025h0.025c0,0,0.012,0,0.025,0C64.188,92.6,64.2,92.6,64.2,92.6z"/>
<path style="fill:#EB3223;" d="M50.7,8.2l0.125,3.275l0.125,3.275l0.125,3.275L51.2,21.3h-2.825H45.55h-2.825H39.9v-1.275V18.75
	v-1.275V16.2c0,0-0.069-0.188-0.219-0.445c-0.15-0.258-0.381-0.586-0.706-0.867s-0.744-0.516-1.269-0.586S36.55,14.325,35.8,14.7
	s-2.112,1.244-3.734,2.336s-3.503,2.408-5.291,3.677s-3.481,2.491-4.728,3.395C20.8,25.013,20,25.6,20,25.6s-0.15,0.044-0.392,0.098
	c-0.242,0.055-0.576,0.121-0.945,0.165c-0.369,0.044-0.772,0.065-1.152,0.032c-0.38-0.033-0.736-0.12-1.011-0.295
	s-0.788-0.525-1.402-0.951c-0.614-0.427-1.33-0.929-2.011-1.41s-1.328-0.941-1.805-1.28C10.806,21.619,10.5,21.4,10.5,21.4
	s0.137-0.125,0.372-0.294c0.234-0.169,0.566-0.381,0.953-0.556s0.831-0.312,1.291-0.331S14.05,20.3,14.5,20.6
	c0,0,0.075,0.081,0.211,0.186c0.136,0.105,0.333,0.233,0.577,0.327c0.243,0.094,0.534,0.153,0.857,0.12
	c0.323-0.033,0.68-0.158,1.055-0.433s1.669-1.206,3.399-2.448s3.895-2.795,6.014-4.314s4.191-3.003,5.733-4.108
	C33.888,8.825,34.9,8.1,34.9,8.1h3.95h3.95h3.95h3.95v0.025V8.15c0,0,0,0.012,0,0.025S50.7,8.2,50.7,8.2z"/>
<path style="fill:#EB3223;" d="M52.7,11.3c0,0,1.638,0.25,4.133,0.947c2.495,0.697,5.849,1.841,9.28,3.628
	c3.431,1.788,6.94,4.219,9.748,7.491S80.775,30.75,81.4,35.9c0,0-0.269-0.006-0.677,0.073c-0.408,0.08-0.955,0.245-1.511,0.589
	c-0.556,0.344-1.121,0.866-1.567,1.658c-0.445,0.792-0.77,1.855-0.845,3.28s-0.262,4.544-0.501,8.42s-0.53,8.511-0.811,12.967
	s-0.553,8.734-0.755,11.898C74.532,77.95,74.4,80,74.4,80h4.175h4.175h4.175H91.1l-0.6-9.85l-0.6-9.85l-0.6-9.85l-0.6-9.85
	c0,0-0.025-0.319-0.125-0.794S88.3,38.7,88,38.075s-0.725-1.244-1.325-1.694c-0.6-0.45-1.375-0.731-2.375-0.681
	c0,0,0-0.775-0.18-2.051c-0.18-1.277-0.539-3.055-1.258-5.061s-1.797-4.24-3.414-6.43C77.831,19.969,75.675,17.825,72.8,16
	s-5.562-3.188-7.977-4.205c-2.414-1.017-4.554-1.689-6.335-2.133s-3.203-0.66-4.18-0.764C53.332,8.794,52.8,8.8,52.8,8.8v0.625
	v0.625v0.625V11.3h-0.025H52.75h-0.025H52.7z"/>
</svg>
