<?xml version="1.0" encoding="iso-8859-1"?>
<!-- Generator: Adobe Illustrator 25.3.1, SVG Export Plug-In . SVG Version: 6.00 Build 0)  -->
<svg version="1.1" id="Layer_1" xmlns="http://www.w3.org/2000/svg" xmlns:xlink="http://www.w3.org/1999/xlink" x="0px" y="0px"
	 viewBox="0 0 100 100" style="enable-background:new 0 0 100 100;" xml:space="preserve">
<polygon style="fill:#E2DEDB;" points="0,0 25,0 50,0 75,0 100,0 100,25 100,50 100,75 100,100 75,100 50,100 25,100 0,100 0,75 
	0,50 0,25 "/>
<polygon points="60.9,26.8 68.45,42.625 76,58.45 83.55,74.275 91.1,90.1 76.075,90.1 61.05,90.1 46.025,90.1 31,90.1 
	38.475,74.275 45.95,58.45 53.425,42.625 "/>
<path style="fill:#FFFFFF;" d="M52.2,84.6v-0.725V83.15v-0.725V81.7c0-0.2,0.056-0.381,0.152-0.533s0.23-0.274,0.386-0.355
	s0.334-0.122,0.517-0.111c0.183,0.011,0.37,0.074,0.545,0.199l0,0l0,0l0,0l0,0c0.15,0.125,0.306,0.237,0.467,0.342
	c0.161,0.105,0.326,0.201,0.495,0.295c0.169,0.094,0.341,0.185,0.514,0.277C55.45,81.906,55.625,82,55.8,82.1
	s0.35,0.188,0.525,0.264c0.175,0.076,0.35,0.142,0.525,0.198c0.175,0.057,0.35,0.104,0.525,0.143c0.175,0.039,0.35,0.07,0.525,0.095
	c0.175,0.05,0.35,0.094,0.523,0.131c0.174,0.038,0.346,0.069,0.514,0.094c0.169,0.025,0.334,0.044,0.495,0.056
	C59.594,83.094,59.75,83.1,59.9,83.1c0.525,0,1.013-0.031,1.464-0.095c0.451-0.064,0.867-0.161,1.248-0.292
	c0.382-0.132,0.729-0.297,1.043-0.499c0.314-0.202,0.595-0.439,0.845-0.714s0.469-0.581,0.656-0.917
	c0.188-0.336,0.344-0.701,0.469-1.095s0.219-0.815,0.281-1.264S66,77.3,66,76.8c0-0.275-0.012-0.544-0.036-0.805
	c-0.023-0.261-0.058-0.514-0.101-0.757c-0.044-0.244-0.097-0.479-0.158-0.702S65.575,74.1,65.5,73.9s-0.162-0.4-0.261-0.597
	c-0.098-0.197-0.208-0.391-0.327-0.578c-0.118-0.188-0.246-0.369-0.382-0.541c-0.136-0.172-0.28-0.334-0.43-0.484
	c-0.15-0.175-0.306-0.344-0.469-0.508s-0.331-0.324-0.506-0.48s-0.356-0.31-0.544-0.461C62.394,70.1,62.2,69.95,62,69.8
	s-0.406-0.306-0.617-0.467c-0.211-0.161-0.427-0.327-0.646-0.496s-0.441-0.341-0.664-0.514C59.85,68.15,59.625,67.975,59.4,67.8
	c-0.25-0.175-0.494-0.356-0.733-0.541c-0.239-0.184-0.474-0.372-0.705-0.559s-0.459-0.375-0.686-0.559
	c-0.226-0.184-0.451-0.366-0.676-0.541s-0.438-0.363-0.641-0.559c-0.203-0.197-0.397-0.403-0.584-0.616
	c-0.188-0.213-0.369-0.431-0.547-0.653C54.65,63.55,54.475,63.325,54.3,63.1c-0.15-0.225-0.294-0.456-0.431-0.694
	c-0.138-0.238-0.269-0.481-0.394-0.731s-0.244-0.506-0.356-0.769S52.9,60.375,52.8,60.1s-0.181-0.569-0.247-0.878
	c-0.066-0.309-0.116-0.634-0.153-0.972s-0.062-0.688-0.078-1.047S52.3,56.475,52.3,56.1c0-0.475,0.019-0.931,0.056-1.37
	c0.037-0.439,0.094-0.861,0.169-1.268c0.075-0.406,0.169-0.796,0.281-1.173c0.112-0.376,0.244-0.739,0.394-1.089
	s0.306-0.681,0.472-0.995s0.341-0.611,0.528-0.893s0.388-0.547,0.603-0.798c0.216-0.251,0.447-0.489,0.697-0.714
	c0.225-0.225,0.463-0.438,0.711-0.636c0.248-0.199,0.508-0.383,0.776-0.552c0.269-0.168,0.547-0.321,0.833-0.457
	c0.286-0.136,0.58-0.255,0.88-0.355s0.6-0.194,0.9-0.278s0.6-0.159,0.9-0.222s0.6-0.112,0.9-0.147c0.3-0.034,0.6-0.053,0.9-0.053
	c0.625,0,1.206,0.025,1.747,0.073c0.541,0.049,1.041,0.121,1.503,0.215s0.887,0.209,1.278,0.345s0.747,0.292,1.072,0.467
	c0.075,0.05,0.144,0.106,0.205,0.169c0.061,0.062,0.114,0.131,0.158,0.206c0.044,0.075,0.078,0.156,0.101,0.244
	C68.387,46.906,68.4,47,68.4,47.1v0.7v0.7v0.7v0.7c0,0.2-0.056,0.381-0.15,0.534s-0.225,0.278-0.375,0.366s-0.319,0.138-0.488,0.141
	S67.05,50.9,66.9,50.8c-0.35-0.225-0.719-0.419-1.105-0.583c-0.386-0.164-0.789-0.298-1.207-0.404
	c-0.419-0.107-0.854-0.185-1.302-0.236C62.838,49.525,62.375,49.5,61.9,49.5c-0.175,0-0.356,0.006-0.541,0.019
	s-0.372,0.031-0.559,0.056s-0.375,0.056-0.559,0.094c-0.184,0.037-0.366,0.081-0.541,0.131s-0.35,0.112-0.523,0.186
	c-0.174,0.073-0.346,0.158-0.514,0.252c-0.169,0.093-0.334,0.197-0.495,0.307S57.85,50.775,57.7,50.9s-0.287,0.256-0.416,0.395
	c-0.128,0.139-0.247,0.286-0.359,0.443c-0.112,0.156-0.219,0.321-0.322,0.498C56.5,52.412,56.4,52.6,56.3,52.8
	s-0.181,0.406-0.247,0.622c-0.066,0.216-0.116,0.441-0.153,0.678s-0.062,0.487-0.078,0.753S55.8,55.4,55.8,55.7
	c0,0.25,0.006,0.5,0.02,0.745c0.014,0.245,0.036,0.486,0.067,0.718c0.032,0.231,0.072,0.453,0.124,0.661
	c0.052,0.208,0.114,0.401,0.189,0.576c0.075,0.2,0.156,0.394,0.244,0.581c0.087,0.188,0.181,0.369,0.281,0.544
	s0.206,0.344,0.319,0.506S57.275,60.35,57.4,60.5s0.263,0.3,0.409,0.45c0.147,0.15,0.303,0.3,0.466,0.45s0.331,0.3,0.503,0.45
	c0.172,0.15,0.347,0.3,0.522,0.45c0.2,0.15,0.4,0.3,0.603,0.451c0.203,0.152,0.409,0.305,0.622,0.46s0.431,0.315,0.659,0.48
	c0.228,0.164,0.466,0.333,0.716,0.508s0.5,0.356,0.748,0.542c0.248,0.186,0.495,0.377,0.739,0.571
	c0.244,0.194,0.485,0.39,0.721,0.589C64.344,66.1,64.575,66.3,64.8,66.5s0.444,0.406,0.656,0.619
	c0.213,0.213,0.419,0.431,0.619,0.656s0.394,0.456,0.581,0.694S67.025,68.95,67.2,69.2s0.338,0.5,0.489,0.753
	c0.152,0.253,0.292,0.509,0.423,0.772s0.253,0.531,0.367,0.809S68.7,72.1,68.8,72.4s0.188,0.606,0.262,0.922
	c0.075,0.316,0.137,0.641,0.188,0.978s0.088,0.688,0.113,1.053C69.387,75.719,69.4,76.1,69.4,76.5c0,0.5-0.019,0.981-0.055,1.444
	s-0.089,0.906-0.158,1.331c-0.069,0.425-0.153,0.831-0.251,1.219c-0.098,0.387-0.211,0.756-0.336,1.106
	c-0.15,0.35-0.306,0.681-0.47,0.995c-0.164,0.314-0.336,0.611-0.518,0.892c-0.181,0.282-0.371,0.547-0.573,0.799
	C66.838,84.538,66.625,84.775,66.4,85s-0.463,0.431-0.711,0.62c-0.248,0.189-0.508,0.361-0.777,0.518s-0.547,0.297-0.833,0.423
	C63.793,86.688,63.5,86.8,63.2,86.9s-0.606,0.188-0.919,0.263c-0.312,0.075-0.631,0.137-0.956,0.187s-0.656,0.088-0.994,0.113
	C59.994,87.488,59.65,87.5,59.3,87.5c-0.125,0-0.25-0.006-0.378-0.017c-0.128-0.011-0.259-0.026-0.397-0.045
	c-0.138-0.019-0.281-0.041-0.434-0.064c-0.153-0.024-0.316-0.049-0.491-0.074s-0.344-0.056-0.509-0.092
	c-0.166-0.036-0.328-0.077-0.491-0.121s-0.325-0.091-0.491-0.139c-0.166-0.048-0.334-0.098-0.509-0.148s-0.344-0.1-0.509-0.151
	c-0.166-0.052-0.328-0.105-0.491-0.161s-0.325-0.115-0.491-0.179c-0.166-0.064-0.334-0.133-0.509-0.208
	c-0.1-0.05-0.2-0.1-0.299-0.15c-0.099-0.05-0.196-0.1-0.29-0.15c-0.094-0.05-0.184-0.1-0.27-0.15c-0.086-0.05-0.167-0.1-0.242-0.15
	c-0.05-0.05-0.094-0.106-0.131-0.169c-0.038-0.062-0.069-0.131-0.094-0.206c-0.025-0.076-0.044-0.157-0.056-0.245
	C52.206,84.794,52.2,84.7,52.2,84.6z"/>
<path d="M42.5,48.3c-1.75,0.9-3.5,1.569-5.248,2.006s-3.495,0.644-5.239,0.619s-3.484-0.281-5.22-0.769S23.325,48.95,21.6,48
	c0.65-1.1,1.3-2.194,1.95-3.284c0.65-1.091,1.3-2.178,1.95-3.266s1.3-2.175,1.95-3.266C28.1,37.094,28.75,36,29.4,34.9
	c0.475,0.25,0.95,0.438,1.425,0.564c0.475,0.127,0.95,0.192,1.425,0.199c0.475,0.007,0.95-0.047,1.425-0.158
	c0.475-0.111,0.95-0.28,1.425-0.505c0.625,1.1,1.244,2.2,1.859,3.302c0.616,1.101,1.228,2.204,1.841,3.31
	c0.612,1.106,1.225,2.216,1.841,3.33C41.256,46.056,41.875,47.175,42.5,48.3z"/>
<path d="M53.8,28.6c-1.275-0.025-2.544-0.044-3.809-0.059c-1.266-0.016-2.528-0.028-3.791-0.041s-2.525-0.025-3.791-0.041
	c-1.266-0.016-2.534-0.034-3.809-0.059c0-0.25-0.013-0.5-0.039-0.748c-0.027-0.248-0.067-0.495-0.123-0.739
	c-0.057-0.244-0.129-0.485-0.218-0.721c-0.089-0.236-0.195-0.467-0.32-0.692s-0.263-0.438-0.411-0.638
	c-0.149-0.2-0.308-0.388-0.477-0.562s-0.347-0.337-0.533-0.487c-0.186-0.15-0.379-0.288-0.579-0.413
	c0.65-1.075,1.3-2.156,1.95-3.241c0.65-1.084,1.3-2.172,1.95-3.259s1.3-2.175,1.95-3.259c0.65-1.084,1.3-2.166,1.95-3.241
	c1.225,0.675,2.475,1.6,3.659,2.745s2.303,2.511,3.266,4.067c0.962,1.557,1.769,3.304,2.328,5.211
	C53.512,24.331,53.825,26.4,53.8,28.6z"/>
<path d="M21.4,10.2c0.625,1.1,1.244,2.2,1.859,3.302s1.228,2.205,1.841,3.311c0.613,1.106,1.225,2.215,1.841,3.33
	s1.234,2.233,1.859,3.358c-0.225,0.125-0.438,0.263-0.638,0.413c-0.2,0.15-0.387,0.312-0.562,0.487s-0.337,0.363-0.487,0.562
	c-0.15,0.2-0.288,0.413-0.413,0.638s-0.237,0.45-0.336,0.677s-0.183,0.454-0.251,0.685s-0.122,0.465-0.158,0.704
	S25.9,28.15,25.9,28.4c-1.275-0.025-2.544-0.044-3.809-0.059c-1.266-0.016-2.528-0.028-3.791-0.041s-2.525-0.025-3.791-0.041
	S11.975,28.225,10.7,28.2c0-0.775,0.044-1.538,0.131-2.289c0.087-0.752,0.219-1.492,0.394-2.224
	c0.175-0.731,0.394-1.453,0.656-2.167c0.262-0.714,0.569-1.42,0.919-2.12c0.475-1,1.012-1.938,1.611-2.816
	c0.599-0.878,1.258-1.697,1.977-2.459s1.497-1.469,2.333-2.122C19.556,11.35,20.45,10.75,21.4,10.2z"/>
<path d="M36.3,31.5c-0.325,0.55-0.744,1.006-1.223,1.361c-0.48,0.355-1.02,0.608-1.589,0.751c-0.569,0.144-1.166,0.179-1.758,0.096
	c-0.592-0.083-1.18-0.283-1.73-0.608s-1.006-0.75-1.361-1.238c-0.355-0.487-0.608-1.038-0.751-1.612
	c-0.144-0.575-0.179-1.175-0.096-1.762c0.083-0.587,0.283-1.162,0.608-1.688c0.325-0.55,0.744-1.006,1.223-1.361
	c0.48-0.355,1.02-0.608,1.589-0.751c0.569-0.144,1.166-0.179,1.758-0.096s1.18,0.283,1.73,0.608s1.006,0.744,1.361,1.223
	c0.355,0.48,0.608,1.02,0.751,1.589c0.144,0.569,0.179,1.166,0.096,1.758C36.825,30.362,36.625,30.95,36.3,31.5z"/>
</svg>
