<?xml version="1.0" encoding="iso-8859-1"?>
<!-- Generator: Adobe Illustrator 25.3.1, SVG Export Plug-In . SVG Version: 6.00 Build 0)  -->
<svg version="1.1" id="Layer_1" xmlns="http://www.w3.org/2000/svg" xmlns:xlink="http://www.w3.org/1999/xlink" x="0px" y="0px"
	 viewBox="0 0 100 100" style="enable-background:new 0 0 100 100;" xml:space="preserve">
<polygon style="fill:#E2DEDB;" points="0,0 25,0 50,0 75,0 100,0 100,25 100,50 100,75 100,100 75,100 50,100 25,100 0,100 0,75 
	0,50 0,25 "/>
<path d="M73.9,16h-1.925H70.05h-1.925H66.2v-0.7v-0.7v-0.7v-0.7c0-1.175-0.188-2.3-0.525-3.326S64.85,7.919,64.25,7.138
	c-0.6-0.782-1.312-1.416-2.1-1.855C61.362,4.844,60.5,4.6,59.6,4.6h-5.2h-5.2H44h-5.2c-0.925,0-1.8,0.237-2.592,0.669
	C35.416,5.7,34.706,6.325,34.112,7.1S33.04,8.8,32.71,9.831C32.381,10.863,32.2,12,32.2,13.2v0.7v0.7v0.7V16h-2.225H27.75h-2.225
	H23.3c-0.6,0-1.175,0.156-1.7,0.441c-0.525,0.284-1,0.697-1.4,1.209s-0.725,1.125-0.95,1.809C19.025,20.144,18.9,20.9,18.9,21.7
	v1.625v1.625v1.625V28.2c0,0.775,0.125,1.519,0.35,2.198c0.225,0.68,0.55,1.295,0.95,1.815c0.4,0.518,0.875,0.94,1.4,1.232
	s1.1,0.455,1.7,0.455h0.175h0.175h0.175H24v12.025V57.95v12.025V82c0,1.325,0.206,2.581,0.58,3.72s0.914,2.161,1.583,3.018
	c0.669,0.856,1.465,1.547,2.351,2.023C29.4,91.238,30.375,91.5,31.4,91.5h8.9h8.9h8.9H67c1.025,0,2-0.269,2.886-0.753
	s1.683-1.184,2.352-2.047c0.668-0.863,1.209-1.887,1.582-3.022S74.4,83.3,74.4,82V69.95V57.9V45.85V33.8
	c0.55-0.075,1.069-0.281,1.537-0.594s0.887-0.731,1.238-1.231c0.35-0.5,0.631-1.081,0.825-1.719s0.3-1.331,0.3-2.056v-1.625V24.95
	v-1.625V21.7c0-0.8-0.125-1.556-0.35-2.241c-0.225-0.684-0.55-1.297-0.95-1.809s-0.875-0.925-1.4-1.209
	C75.075,16.156,74.5,16,73.9,16z M35.5,13.1c0-0.575,0.094-1.125,0.263-1.627s0.412-0.954,0.712-1.335
	c0.3-0.382,0.656-0.691,1.05-0.905C37.919,9.019,38.35,8.9,38.8,8.9H44h5.2h5.2h5.2c0.45,0,0.881,0.119,1.275,0.333
	s0.75,0.524,1.05,0.905s0.544,0.834,0.713,1.335c0.169,0.502,0.263,1.052,0.263,1.627v0.65v0.65v0.65v0.65h-6.85H49.2h-6.85H35.5
	v-0.65V14.4v-0.65V13.1z M71,81.9c0,0.7-0.113,1.369-0.316,1.978s-0.497,1.159-0.859,1.622c-0.363,0.463-0.794,0.838-1.272,1.097
	C68.075,86.856,67.55,87,67,87h-8.9h-8.9h-8.9h-8.9c-0.55,0-1.075-0.144-1.553-0.403c-0.478-0.259-0.909-0.634-1.272-1.097
	s-0.656-1.012-0.859-1.622S27.4,82.6,27.4,81.9v-12v-12v-12v-12h10.9h10.9h10.9H71v12v12v12V81.9z M74.9,28.2
	c0,0.175-0.025,0.344-0.072,0.499s-0.116,0.295-0.203,0.414c-0.088,0.118-0.194,0.215-0.316,0.282
	C74.188,29.462,74.05,29.5,73.9,29.5H61.25H48.6H35.95H23.3c-0.125,0-0.25-0.038-0.367-0.105s-0.227-0.164-0.321-0.283
	c-0.094-0.118-0.172-0.259-0.226-0.414S22.3,28.375,22.3,28.2v-1.625V24.95v-1.625V21.7c0-0.175,0.025-0.344,0.072-0.499
	s0.116-0.295,0.203-0.414s0.194-0.215,0.316-0.282S23.15,20.4,23.3,20.4h12.65H48.6h12.65H73.9c0.125,0,0.25,0.038,0.367,0.105
	s0.227,0.164,0.321,0.283c0.094,0.118,0.172,0.259,0.226,0.414S74.9,21.525,74.9,21.7c0,0,0,0.406,0,1.016s0,1.422,0,2.234
	s0,1.625,0,2.234S74.9,28.2,74.9,28.2z"/>
<path d="M50.9,42.8c0.075,0,0.144,0.019,0.205,0.052s0.114,0.08,0.157,0.136c0.044,0.056,0.078,0.121,0.102,0.192
	c0.024,0.07,0.036,0.145,0.036,0.22v8.9v8.9v8.9V79c0,0.1-0.013,0.188-0.036,0.262c-0.024,0.075-0.058,0.137-0.102,0.188
	c-0.044,0.05-0.097,0.088-0.157,0.113c-0.061,0.025-0.13,0.037-0.205,0.037h-0.95H49h-0.95H47.1c-0.075,0-0.144-0.019-0.205-0.052
	c-0.061-0.033-0.114-0.08-0.157-0.136c-0.044-0.056-0.078-0.121-0.102-0.192C46.612,79.15,46.6,79.075,46.6,79v-8.875V61.25v-8.875
	V43.5c0-0.1,0.013-0.188,0.036-0.263c0.024-0.075,0.058-0.138,0.102-0.188s0.097-0.087,0.158-0.112S47.025,42.9,47.1,42.9h0.95H49
	h0.95h0.95 M50.9,41.2h-0.95H49h-0.95H47.1c-0.25,0-0.487,0.062-0.703,0.176s-0.409,0.279-0.572,0.486
	c-0.162,0.207-0.294,0.453-0.384,0.73S45.3,43.175,45.3,43.5v8.875v8.875v8.875V79c0,0.325,0.05,0.631,0.141,0.908
	s0.222,0.524,0.384,0.73c0.163,0.206,0.356,0.372,0.572,0.486C46.612,81.238,46.85,81.3,47.1,81.3h0.95H49h0.95h0.95
	c0.25,0,0.487-0.062,0.703-0.176s0.409-0.28,0.572-0.486c0.162-0.206,0.294-0.453,0.384-0.73S52.7,79.325,52.7,79v-8.875V61.25
	v-8.875V43.5c-0.025-0.325-0.087-0.631-0.183-0.908c-0.095-0.277-0.223-0.524-0.379-0.73c-0.157-0.206-0.341-0.371-0.549-0.486
	C51.381,41.263,51.15,41.2,50.9,41.2L50.9,41.2L50.9,41.2L50.9,41.2L50.9,41.2z"/>
<path d="M63.5,42.8c0.075,0,0.144,0.019,0.205,0.052s0.114,0.08,0.157,0.136c0.044,0.056,0.078,0.121,0.102,0.192
	C63.987,43.25,64,43.325,64,43.4v8.9v8.9v8.9V79c0,0.1-0.013,0.188-0.036,0.262c-0.024,0.075-0.058,0.137-0.102,0.188
	c-0.044,0.05-0.097,0.088-0.157,0.113c-0.061,0.025-0.13,0.037-0.205,0.037h-0.95H61.6h-0.95H59.7c-0.075,0-0.144-0.019-0.205-0.052
	c-0.061-0.033-0.114-0.08-0.157-0.136c-0.044-0.056-0.078-0.121-0.102-0.192C59.213,79.15,59.2,79.075,59.2,79v-8.875V61.25v-8.875
	V43.5c0-0.1,0.013-0.188,0.036-0.263s0.058-0.138,0.102-0.188s0.097-0.087,0.158-0.112S59.626,42.9,59.7,42.9h0.95h0.95h0.95h0.95
	 M63.5,41.2h-0.95H61.6h-0.95H59.7c-0.25,0-0.487,0.062-0.703,0.176s-0.409,0.279-0.572,0.486c-0.162,0.207-0.294,0.453-0.384,0.73
	C57.95,42.869,57.9,43.175,57.9,43.5v8.875v8.875v8.875V79c0,0.325,0.05,0.631,0.141,0.908s0.222,0.524,0.384,0.73
	s0.356,0.372,0.572,0.486S59.45,81.3,59.7,81.3h0.95h0.95h0.95h0.95c0.25,0,0.487-0.062,0.703-0.176
	c0.216-0.114,0.409-0.28,0.572-0.486s0.294-0.453,0.384-0.73C65.25,79.632,65.3,79.325,65.3,79v-8.875V61.25v-8.875V43.5
	c0-0.325-0.05-0.631-0.141-0.908s-0.222-0.524-0.384-0.73s-0.356-0.371-0.572-0.486C63.987,41.263,63.75,41.2,63.5,41.2L63.5,41.2
	L63.5,41.2L63.5,41.2L63.5,41.2z"/>
<path d="M38.2,42.8c0.075,0,0.144,0.019,0.205,0.052s0.114,0.08,0.157,0.136s0.078,0.122,0.102,0.192
	c0.024,0.07,0.036,0.145,0.036,0.22v8.9v8.9v8.9V79c0,0.1-0.013,0.188-0.036,0.262s-0.058,0.137-0.102,0.188
	s-0.097,0.088-0.158,0.113c-0.061,0.024-0.13,0.037-0.204,0.037h-0.95H36.3h-0.95H34.4c-0.075,0-0.144-0.019-0.205-0.052
	c-0.061-0.033-0.114-0.08-0.157-0.136c-0.044-0.056-0.078-0.121-0.102-0.192C33.913,79.15,33.9,79.075,33.9,79v-8.875V61.25v-8.875
	V43.5c0-0.1,0.013-0.188,0.036-0.263c0.024-0.075,0.058-0.138,0.102-0.188c0.044-0.05,0.097-0.087,0.157-0.112
	S34.325,42.9,34.4,42.9h0.95h0.95h0.95h0.95 M38.2,41.2h-0.95H36.3h-0.95H34.4c-0.25,0-0.487,0.062-0.703,0.176
	s-0.409,0.279-0.572,0.486c-0.162,0.207-0.294,0.453-0.384,0.73S32.6,43.175,32.6,43.5v8.875v8.875v8.875V79
	c0,0.325,0.05,0.631,0.141,0.908s0.222,0.524,0.384,0.73s0.356,0.372,0.572,0.486S34.15,81.3,34.4,81.3h0.95h0.95h0.95h0.95
	c0.25,0,0.487-0.062,0.703-0.176s0.409-0.28,0.572-0.486c0.162-0.206,0.294-0.453,0.384-0.73C39.95,79.631,40,79.325,40,79v-8.875
	V61.25v-8.875V43.5c0-0.325-0.05-0.631-0.141-0.908s-0.222-0.524-0.384-0.73s-0.356-0.371-0.572-0.486
	C38.688,41.263,38.45,41.2,38.2,41.2L38.2,41.2L38.2,41.2L38.2,41.2L38.2,41.2z"/>
</svg>
