<?xml version="1.0" encoding="utf-8"?>
<!-- Generator: Adobe Illustrator 25.2.0, SVG Export Plug-In . SVG Version: 6.00 Build 0)  -->
<svg version="1.1" id="Layer_1" xmlns="http://www.w3.org/2000/svg" xmlns:xlink="http://www.w3.org/1999/xlink" x="0px" y="0px"
	 viewBox="0 0 100 100" style="enable-background:new 0 0 100 100;" xml:space="preserve">
<rect x="0" y="0" style="fill:#E2DEDB;" width="100" height="100"/>
<g>
	<g>
		<path d="M56.2,19.7H54V5.6h-6.7v14.1h-2.5c-6.5,0-11.9,5.3-11.9,11.9h35.2C68.1,25.1,62.8,19.7,56.2,19.7z"/>
		<path d="M40,36.4c0-1-0.8-1.7-1.7-1.7s-1.7,0.8-1.7,1.7c0,1,0.8,1.7,1.7,1.7S40,37.4,40,36.4z"/>
		<path d="M44.6,34.9c-1,0-1.7,0.8-1.7,1.7c0,1,0.8,1.7,1.7,1.7c1,0,1.7-0.8,1.7-1.7C46.4,35.7,45.6,34.9,44.6,34.9z"/>
		<path d="M51,35.1c-1,0-1.7,0.8-1.7,1.7c0,1,0.8,1.7,1.7,1.7c1,0,1.7-0.8,1.7-1.7C52.7,35.9,52,35.1,51,35.1z"/>
		<path d="M59.8,36.7c0-1-0.8-1.7-1.7-1.7s-1.7,0.8-1.7,1.7c0,1,0.8,1.7,1.7,1.7S59.8,37.6,59.8,36.7z"/>
		<path d="M65.5,36.7c0-1-0.8-1.7-1.7-1.7c-1,0-1.7,0.8-1.7,1.7c0,1,0.8,1.7,1.7,1.7C64.7,38.4,65.5,37.6,65.5,36.7z"/>
		<path d="M68.1,44.3c0-1-0.8-1.7-1.7-1.7c-1,0-1.7,0.8-1.7,1.7c0,1,0.8,1.7,1.7,1.7C67.3,46,68.1,45.2,68.1,44.3z"/>
		<path d="M60.8,44.7c0-1-0.8-1.7-1.7-1.7c-1,0-1.7,0.8-1.7,1.7c0,1,0.8,1.7,1.7,1.7C60,46.4,60.8,45.7,60.8,44.7z"/>
		<path d="M51,43.6c-1,0-1.7,0.8-1.7,1.7c0,1,0.8,1.7,1.7,1.7c1,0,1.7-0.8,1.7-1.7C52.7,44.3,52,43.6,51,43.6z"/>
		<path d="M43.3,42.9c-1,0-1.7,0.8-1.7,1.7c0,1,0.8,1.7,1.7,1.7c1,0,1.7-0.8,1.7-1.7C45.1,43.7,44.3,42.9,43.3,42.9z"/>
		<path d="M36,42.5c-1,0-1.7,0.8-1.7,1.7c0,1,0.8,1.7,1.7,1.7c1,0,1.7-0.8,1.7-1.7C37.7,43.3,37,42.5,36,42.5z"/>
		<path d="M33.4,50.4c-1,0-1.7,0.8-1.7,1.7c0,1,0.8,1.7,1.7,1.7c1,0,1.7-0.8,1.7-1.7C35.2,51.2,34.4,50.4,33.4,50.4z"/>
		<path d="M42.2,51c-1,0-1.7,0.8-1.7,1.7c0,1,0.8,1.7,1.7,1.7c1,0,1.7-0.8,1.7-1.7C43.9,51.7,43.1,51,42.2,51z"/>
		<path d="M51,52.1c-1,0-1.7,0.8-1.7,1.7s0.8,1.7,1.7,1.7c1,0,1.7-0.8,1.7-1.7S52,52.1,51,52.1z"/>
		<path d="M62,53.1c0-1-0.8-1.7-1.7-1.7c-1,0-1.7,0.8-1.7,1.7s0.8,1.7,1.7,1.7C61.2,54.8,62,54,62,53.1z"/>
		<path d="M70.7,52.1c0-1-0.8-1.7-1.7-1.7c-1,0-1.7,0.8-1.7,1.7c0,1,0.8,1.7,1.7,1.7C69.9,53.9,70.7,53.1,70.7,52.1z"/>
		<path d="M71.6,58.1c-1,0-1.7,0.8-1.7,1.7s0.8,1.7,1.7,1.7c1,0,1.7-0.8,1.7-1.7S72.5,58.1,71.6,58.1z"/>
		<path d="M61.1,59.1c-1,0-1.7,0.8-1.7,1.7c0,1,0.8,1.7,1.7,1.7c1,0,1.7-0.8,1.7-1.7C62.8,59.9,62.1,59.1,61.1,59.1z"/>
		<path d="M51,60.4c-1,0-1.7,0.8-1.7,1.7s0.8,1.7,1.7,1.7c1,0,1.7-0.8,1.7-1.7S52,60.4,51,60.4z"/>
		<path d="M40.8,59c-1,0-1.7,0.8-1.7,1.7s0.8,1.7,1.7,1.7c1,0,1.7-0.8,1.7-1.7S41.8,59,40.8,59z"/>
		<path d="M31.1,57.8c-1,0-1.7,0.8-1.7,1.7c0,1,0.8,1.7,1.7,1.7s1.7-0.8,1.7-1.7C32.9,58.5,32.1,57.8,31.1,57.8z"/>
	</g>
	<path d="M78.8,63.9L64.2,74.6c0,0,1.9,5.2,0.4,6.7c-1.5,1.6-2.3,3.3-6.4,2.4s-12.8-2.6-12.8-2.6s-1.1-1.3,0.4-1.6
		c1.5-0.4,13.2,1.8,13.2,1.8s4.4-0.7,3.1-3.9c-1.3-3.3-4.1-3.7-6.5-4.3c-2.4-0.6-23.7-4-23.7-4s-2.1-1.2-7,2.2
		C20,74.7,13,79.9,13,79.9l10,13.6l8.9-6.8c0,0,24.8,2,27.6,1c2.9-1,24.3-17.9,24.3-17.9s1-1.4-1-4.4C81,62.6,78.8,63.9,78.8,63.9z"
		/>
</g>
</svg>
