<?xml version="1.0" encoding="utf-8"?>
<!-- Generator: Adobe Illustrator 25.2.0, SVG Export Plug-In . SVG Version: 6.00 Build 0)  -->
<svg version="1.1" id="Layer_1" xmlns="http://www.w3.org/2000/svg" xmlns:xlink="http://www.w3.org/1999/xlink" x="0px" y="0px"
	 viewBox="0 0 100 100" style="enable-background:new 0 0 100 100;" xml:space="preserve">
<rect y="0" style="fill:#E2DEDB;" width="100" height="100"/>
<g>
	<path style="opacity:0.33;fill:#66CCCC;" d="M79.6,86.9H21.7c-2.3,0-4.1-1.8-4.1-4.1V13.6c0-2.3,1.8-4.1,4.1-4.1h57.9
		c2.3,0,4.1,1.8,4.1,4.1v69.2C83.7,85.1,81.9,86.9,79.6,86.9z M21.7,10.5c-1.7,0-3.1,1.4-3.1,3.1v69.2c0,1.7,1.4,3.1,3.1,3.1h57.9
		c1.7,0,3.1-1.4,3.1-3.1V13.6c0-1.7-1.4-3.1-3.1-3.1H21.7z M79.6,83.9H21.7c-0.6,0-1.1-0.5-1.1-1.1V13.6c0-0.6,0.5-1.1,1.1-1.1h57.9
		c0.6,0,1.1,0.5,1.1,1.1v69.2C80.7,83.4,80.2,83.9,79.6,83.9z M21.7,13.5c-0.1,0-0.1,0-0.1,0.1v69.2c0,0.1,0.1,0.1,0.1,0.1h57.9
		c0.1,0,0.1,0,0.1-0.1V13.6c0-0.1,0-0.1-0.1-0.1H21.7z"/>
	<path style="opacity:0.33;fill:#66CCCC;" d="M74,80.9H27.3c-1.9,0-3.4-1.5-3.4-3.4V20.3c0-1.9,1.5-3.4,3.4-3.4H74
		c1.9,0,3.4,1.5,3.4,3.4v57.2C77.4,79.4,75.9,80.9,74,80.9z M27.3,17.9c-1.3,0-2.4,1.1-2.4,2.4v57.2c0,1.3,1.1,2.4,2.4,2.4H74
		c1.3,0,2.4-1.1,2.4-2.4V20.3c0-1.3-1.1-2.4-2.4-2.4H27.3z M74.4,77.9H26.9V19.9h47.5V77.9z M27.9,76.9h45.5V20.9H27.9V76.9z"/>
	<path d="M79.6,13c0.3,0,0.6,0.3,0.6,0.6v69.2c0,0.3-0.3,0.6-0.6,0.6H21.7c-0.3,0-0.6-0.3-0.6-0.6V13.6c0-0.3,0.3-0.6,0.6-0.6H79.6
		 M79.6,10H21.7c-2,0-3.6,1.6-3.6,3.6v69.2c0,2,1.6,3.6,3.6,3.6h57.9c2,0,3.6-1.6,3.6-3.6V13.6C83.2,11.6,81.6,10,79.6,10L79.6,10z"
		/>
	<path d="M73.9,20.4v57.1H27.4V20.4H73.9 M74,17.4H27.3c-1.6,0-2.9,1.3-2.9,2.9v57.2c0,1.6,1.3,2.9,2.9,2.9H74
		c1.6,0,2.9-1.3,2.9-2.9V20.3C76.9,18.7,75.6,17.4,74,17.4L74,17.4z"/>
	<path d="M69.1,40.5h-2.7c0,0-4.4,2.2-4.6,4.6h-8.9v6.3h9c0,0,1,3.7,5.2,3.8c4.3,0.1,5.4-2.4,5.4-2.4l0.3-2.5l0.6-0.1l0.2-1.1h-1
		c0,0,0.3-4.6,0.1-5.6C72.1,41.7,69.1,40.5,69.1,40.5z"/>
	<ellipse style="fill:#646464;" cx="67.9" cy="48" rx="4.3" ry="4.7"/>
	<rect x="13.3" y="85.9" width="73.3" height="4.6"/>
</g>
</svg>
