<?xml version="1.0" encoding="utf-8"?>
<!-- Generator: Adobe Illustrator 25.2.0, SVG Export Plug-In . SVG Version: 6.00 Build 0)  -->
<svg version="1.1" id="Layer_1" xmlns="http://www.w3.org/2000/svg" xmlns:xlink="http://www.w3.org/1999/xlink" x="0px" y="0px"
	 viewBox="0 0 100 100" style="enable-background:new 0 0 100 100;" xml:space="preserve">
<rect x="0" y="0" style="fill:#E2DEDB;" width="100" height="100"/>
<g>
	<g>
		<path d="M11,90.1V9.9h15.8c4.8,0,8.6,1.7,11.5,5.1c2.8,3.4,4.2,7.8,4.2,13.3c0,4.6-0.8,8.5-2.4,11.9c-1.6,3.4-3.8,5.7-6.6,7.2v0.2
			c3.4,0.6,6.2,2.7,8.2,6.1s3.1,7.9,3.1,13.5c0,6.9-1.7,12.4-5,16.7c-3.4,4.3-7.6,6.4-12.7,6.4H11z M19.2,20.5v22.8h5.4
			c2.9,0,5.1-1.1,6.8-3.3c1.6-2.2,2.4-5.3,2.4-9.3c0-6.9-2.8-10.3-8.5-10.3H19.2z M19.2,54.1v25.4h7.1c3.1,0,5.5-1.1,7.1-3.4
			c1.7-2.3,2.5-5.5,2.5-9.5c0-8.3-3.6-12.5-10.7-12.5H19.2z"/>
	</g>
	<g>
		<path d="M92.5,90.1h-9.7l-8-21.5c-0.7-2-1.4-3.7-2.1-5.1c-0.7-1.4-1.4-2.5-2.1-3.4c-0.7-0.9-1.5-1.5-2.3-2
			c-0.8-0.4-1.8-0.6-2.8-0.6h-3.3v32.6H54V9.9h16.4c2.3,0,4.5,0.4,6.5,1.3c2,0.9,3.7,2.2,5.1,4.1c1.5,1.8,2.6,4.1,3.4,6.8
			c0.8,2.7,1.2,5.9,1.2,9.5c0,2.8-0.3,5.4-0.8,7.8c-0.5,2.4-1.3,4.5-2.2,6.3c-1,1.8-2.1,3.4-3.5,4.7c-1.4,1.3-2.9,2.3-4.6,3v0.2
			c0.9,0.8,1.7,1.7,2.4,2.7s1.3,2,1.9,3.1s1.2,2.2,1.8,3.6s1.2,2.9,2,4.6L92.5,90.1z M62.2,20.7v26.1h6.9c1.3,0,2.4-0.3,3.5-1
			s2-1.5,2.8-2.7c0.8-1.2,1.4-2.7,1.8-4.4c0.4-1.7,0.7-3.6,0.7-5.8c0-3.8-0.8-6.8-2.3-9c-1.5-2.2-3.7-3.2-6.5-3.2H62.2z"/>
	</g>
</g>
</svg>
