<?xml version="1.0" encoding="utf-8"?>
<!-- Generator: Adobe Illustrator 25.2.0, SVG Export Plug-In . SVG Version: 6.00 Build 0)  -->
<svg version="1.1" id="Layer_1" xmlns="http://www.w3.org/2000/svg" xmlns:xlink="http://www.w3.org/1999/xlink" x="0px" y="0px"
	 viewBox="0 0 100 100" style="enable-background:new 0 0 100 100;" xml:space="preserve">
<rect y="0" style="fill:#E2DEDB;" width="100" height="100"/>
<g>
	<g>
		<path d="M13.4,96.1V40.2h27.2v9.5H20.8V62h18.4v9.4H20.8v15.2h20.5v9.5H13.4z"/>
		<path d="M64.6,75.6v-9.5h16v22.3c-1.6,2.4-3.9,4.4-6.8,6.1S67.8,97,64.8,97c-3.6,0-6.8-1.1-9.6-3.3c-2.8-2.2-5-5.6-6.6-10
			c-1.6-4.4-2.4-9.7-2.4-15.6c0-6.2,0.8-11.4,2.5-15.8c1.6-4.4,3.8-7.6,6.4-9.8c2.6-2.2,5.7-3.2,9.4-3.2c4.4,0,7.9,1.4,10.5,4.2
			c2.6,2.8,4.3,6.9,5.1,12.3l-7.3,2.1c-0.5-2.9-1.6-5.1-3-6.6c-1.5-1.5-3.2-2.3-5.2-2.3c-3.2,0-5.7,1.5-7.7,4.6
			c-2,3.1-2.9,7.7-2.9,14c0,6.7,1.1,11.9,3.2,15.4c1.8,3,4.3,4.5,7.4,4.5c1.4,0,2.9-0.4,4.5-1.3c1.6-0.8,2.9-2,4.2-3.5v-7.1H64.6z"
			/>
	</g>
	<g>
		<path d="M65.9,30.9V15.3h5c1,0,1.8,0.2,2.4,0.5c0.6,0.3,1.1,0.8,1.4,1.4c0.4,0.6,0.6,1.3,0.6,2.1c0,0.7-0.2,1.4-0.5,1.9
			c-0.3,0.6-0.8,1-1.4,1.4c0.8,0.3,1.4,0.7,1.8,1.4c0.4,0.6,0.7,1.4,0.7,2.4c0,0.9-0.2,1.8-0.6,2.5c-0.4,0.7-0.9,1.2-1.6,1.6
			c-0.7,0.3-1.6,0.5-2.8,0.5H65.9z M67.7,21.9h2.9c0.8,0,1.3,0,1.6-0.1c0.5-0.1,0.8-0.4,1.1-0.7s0.4-0.8,0.4-1.4
			c0-0.6-0.1-1-0.3-1.4s-0.5-0.6-0.9-0.8s-1-0.2-2-0.2h-2.7V21.9z M67.7,29.1H71c0.7,0,1.3-0.1,1.6-0.2c0.5-0.2,0.9-0.5,1.1-0.9
			s0.4-1,0.4-1.6c0-0.6-0.1-1.1-0.4-1.5s-0.6-0.7-1-0.9s-1.1-0.3-2-0.3h-3.1V29.1z"/>
	</g>
	<polygon style="fill:#666666;" points="17.4,12.7 24.5,12.7 18.2,20.2 24.9,20.2 17.4,27.6 23.5,27.6 11.5,38.2 17.1,29.5 
		10.4,29.4 17.3,21.7 10.4,21.7 	"/>
</g>
</svg>
