<?xml version="1.0" encoding="utf-8"?>
<!-- Generator: Adobe Illustrator 25.3.1, SVG Export Plug-In . SVG Version: 6.00 Build 0)  -->
<svg version="1.1" id="Layer_1" xmlns="http://www.w3.org/2000/svg" xmlns:xlink="http://www.w3.org/1999/xlink" x="0px" y="0px"
	 viewBox="0 0 100 100" style="enable-background:new 0 0 100 100;" xml:space="preserve">

  <rect x="0" y="0" style="fill:#E2DEDB;" width="100" height="100"/>

	<path d="M92.7,17.3c0,0.8,0,1.3,0,2c-1.1,0.1-2.1,0.2-3.4,0.3c0,14.2,0,28.3,0,42.5c-1.6,0-3,0-4.4,0c-0.1-1.3-0.2-2.6-0.4-4.1
		c-6.3,0-12.6,0-19.2,0c0-1.1,0-1.8,0-2.6c-0.1-11-0.2-22-0.3-33c0-0.9-0.6-1.9-0.9-2.8c-0.3,0.9-0.8,1.9-0.8,2.8
		c-0.1,9.6-0.1,19.2-0.2,28.8c0,0.8,0,1.5,0,2.4c-15.5,0-30.7,0-46.1,0c0-0.8,0-1.5,0-2.2c0-9.6,0-19.1-0.1-28.7
		c0-1.1-0.3-2.2-0.4-3.3c-0.3,0-0.6,0-0.9,0c-0.2,1.1-0.5,2.2-0.5,3.3C15.1,32,15.1,41.3,15,50.5c0,3.8,0,7.7,0,11.7
		c-1.6,0-3,0-4.6,0c0-14.2,0-28.3,0-42.6c-1.1-0.1-2-0.1-3.1-0.2c0-0.7,0-1.4,0-2.1C35.7,17.3,64.1,17.3,92.7,17.3z M84.5,57.2
		c0-7,0-13.9,0-20.8c-6.3,0-12.5,0-18.7,0c0,7,0,13.8,0,20.8C72.1,57.2,78.3,57.2,84.5,57.2z M84.5,35.4c0-5.4,0-10.6,0-15.8
		c-6.3,0-12.5,0-18.6,0c0,5.3,0,10.5,0,15.8C72.1,35.4,78.2,35.4,84.5,35.4z"/>
	<path d="M8.4,80.2c0.6-3.1,1-6.3,2-9.3c1.3-4,4-5.7,7.8-5.6c3.5,0.1,5.8,2.1,6.9,6.1c1.6,6,1.7,12-0.5,17.9
		c-1.8,4.8-6.3,6.8-10.6,4.7c-3.2-1.5-4.1-4.6-4.7-7.7c-0.4-2-0.4-4-0.6-6C8.6,80.2,8.5,80.2,8.4,80.2z M12,79.7
		c0.4,2.7,0.6,5,1.2,7.3c0.6,2.3,2,3.4,3.9,3.5c2,0.1,3.5-0.9,4.3-3.3c1.6-4.8,1.6-9.7,0.1-14.6c-0.6-1.9-1.9-3.2-4-3.2
		c-2.1,0-3.5,1.3-4,3.1C12.8,75,12.5,77.5,12,79.7z"/>
	<path d="M90,77.5c0.1,0.9,0.1,1.4,0.1,1.9c0.2,1.5-0.3,2.2-2,2c-1.3-0.1-2.7,0-4.2,0c0,3,0,5.7,0,8.9c1.9,0,3.8,0.1,5.6,0
		c1.6-0.1,1.7,0.9,1.6,2c0,1.1,0.1,2.1-1.6,2.1c-2.5-0.1-5,0-7.4,0c-1.2,0-1.6-0.5-1.6-1.7c0-8.4,0-16.9,0-25.3
		c0-1.1,0.4-1.6,1.6-1.6c2.8,0.1,5.6,0,8.7,0c0,1.3,0,2.6,0,3.9c-2.3,0-4.5,0-6.9,0c0,2.6,0,5.1,0,7.8C86,77.5,87.9,77.5,90,77.5z"
		/>
	<path d="M77.2,88c0.2,1.9,0.7,3.7-0.9,5.1c-2.1,1.8-4.6,2.3-6.9,0.9c-1.6-1-3.3-2.7-3.9-4.4c-2.3-6.4-2.3-13,0.3-19.3
		c0.7-1.7,2.3-3.3,4-4.4c2-1.3,4.3-0.8,6.3,0.6c1.9,1.4,1,3.4,1.2,5.6c-0.8-0.7-1.4-1.1-1.9-1.6c-2.3-1.8-4.7-1.4-6.1,1.2
		c-0.6,1.2-1.2,2.7-1.3,4.1c-0.1,3.4-0.2,6.8,0.4,10.1c0.9,4.7,4.3,5.6,7.9,2.6C76.5,88.4,76.8,88.3,77.2,88z"/>
	<path d="M33.3,78.4c1.6,0,3.1,0.1,4.6,0c1.6-0.1,1.6,1,1.6,2.1c0,1,0.2,2.2-1.5,2.1c-1.5-0.1-3,0-4.8,0c0,3.4,0,6.7,0,10
		c0,1.2-0.3,1.8-1.6,1.8c-1.3,0-1.9-0.4-1.9-1.8c0.1-8.2,0-16.5,0-24.7c0-1.5,0.4-2.3,2.1-2.2c2.5,0.1,5.1,0,7.8,0
		c0.1,0.9,0.2,1.7,0.2,2.4c0.1,1.4-0.5,1.9-1.8,1.8c-1.5-0.1-3,0-4.7,0C33.3,72.7,33.3,75.4,33.3,78.4z"/>
	<path d="M53.2,65.7c0,1.4,0,2.7,0,4.1c-2.1,0-4.1,0-6.3,0c0,2.9,0,5.6,0,8.5c1.9,0,3.8,0,5.9,0c0,1.5,0,2.8,0,4.2c-2,0-3.9,0-6.1,0
		c0,3.5,0,6.8,0,10.1c0,1.4-0.7,1.8-1.9,1.8c-1.1,0-1.5-0.5-1.5-1.6c0-8.4,0-16.9,0.1-25.3c0-0.6,0.8-1.7,1.2-1.7
		C47.4,65.6,50.2,65.7,53.2,65.7z"/>
	<path d="M60.3,79.9c0,4.2,0,8.4,0,12.5c0,1.3-0.3,2-1.7,1.9c-1.3,0-1.7-0.6-1.7-1.8c0-8.4,0-16.8,0-25.3c0-1.3,0.5-1.7,1.7-1.7
		c1.3,0,1.7,0.5,1.6,1.8C60.2,71.5,60.3,75.7,60.3,79.9z"/>
	<path d="M72.6,6.6c0.8,0,1.4,0,2.1,0c0,2.8,0,5.5,0,8.4c-0.7,0-1.3,0-2.1,0C72.6,12.2,72.6,9.5,72.6,6.6z"/>
	<path d="M86.5,15.1c-0.6,0-1.1,0-1.7,0c0-3.2,0-6.4,0-9.7c0.5-0.1,1-0.1,1.7-0.2C86.5,8.6,86.5,11.8,86.5,15.1z"/>
	<path d="M77.9,15c0-3.2,0-6.3,0-9.5c0.2,0,0.3,0,0.5,0c0,3.1,0,6.3,0,9.4C78.2,14.9,78,14.9,77.9,15z"/>
	<path d="M80.3,11.5c0-1,0-2,0-2.9c0-0.2,0.4-0.4,0.6-0.6c0.2,0.2,0.6,0.4,0.6,0.6c0,2,0.1,3.9,0,5.9c0,0.2-0.4,0.5-0.7,0.7
		c-0.2-0.2-0.5-0.5-0.5-0.7C80.3,13.5,80.3,12.5,80.3,11.5C80.3,11.5,80.3,11.5,80.3,11.5z"/>
	<path d="M78,24c-1.7,0-3.4,0-5.1,0c0-0.1,0-0.2,0-0.4c1.7,0,3.4,0,5.1,0C77.9,23.8,78,23.9,78,24z"/>
	<path d="M78,40.8c-1.7,0-3.4,0-5.1,0c0-0.1,0-0.2,0-0.4c1.7,0,3.4,0,5.1,0C77.9,40.6,78,40.7,78,40.8z"/>

</svg>
