<?xml version="1.0" encoding="iso-8859-1"?>
<!-- Generator: Adobe Illustrator 25.3.1, SVG Export Plug-In . SVG Version: 6.00 Build 0)  -->
<svg version="1.1" id="Layer_1" xmlns="http://www.w3.org/2000/svg" xmlns:xlink="http://www.w3.org/1999/xlink" x="0px" y="0px"
	 viewBox="0 0 100 100" style="enable-background:new 0 0 100 100;" xml:space="preserve">
<polygon style="fill:#E2DEDB;" points="0,0 25,0 50,0 75,0 100,0 100,25 100,50 100,75 100,100 75,100 50,100 25,100 0,100 0,75 
	0,50 0,25 "/>
<path d="M30.5,8.7c1.464,0,2.858,0.297,4.126,0.833c1.268,0.536,2.41,1.313,3.369,2.272s1.735,2.101,2.272,3.369
	c0.537,1.268,0.833,2.662,0.833,4.125s-0.297,2.858-0.833,4.126c-0.536,1.268-1.313,2.41-2.272,3.369s-2.101,1.735-3.369,2.272
	C33.357,29.603,31.963,29.9,30.5,29.9s-2.858-0.296-4.126-0.833c-1.268-0.536-2.41-1.313-3.369-2.272s-1.735-2.101-2.272-3.369
	C20.197,22.157,19.9,20.764,19.9,19.3s0.296-2.858,0.833-4.126c0.536-1.268,1.313-2.41,2.272-3.369s2.101-1.735,3.369-2.272
	C27.642,8.997,29.036,8.7,30.5,8.7z"/>
<path d="M35.8,34.3h-2.575H30.65h-2.575H25.5c-1.225,0-2.388,0.244-3.442,0.686c-1.055,0.442-2.001,1.083-2.795,1.876
	c-0.794,0.794-1.435,1.741-1.877,2.796C16.944,40.713,16.7,41.875,16.7,43.1l0.2,4.475l0.2,4.475l0.2,4.475L17.5,61
	c0,0,0.081,0.344,0.252,0.891s0.43,1.297,0.786,2.109s0.809,1.688,1.367,2.484S21.125,68,21.9,68.5l0.775,4.9l0.775,4.9l0.775,4.9
	L25,88.1c0,0,0.044,0.206,0.15,0.512s0.275,0.713,0.525,1.113s0.581,0.794,1.013,1.075c0.431,0.281,0.962,0.45,1.612,0.4
	s1.381-0.075,2.112-0.084s1.462-0.003,2.112,0.009c0.65,0.012,1.219,0.031,1.625,0.047S34.8,91.2,34.8,91.2s0.087,0.019,0.23-0.033
	s0.339-0.174,0.558-0.455s0.459-0.722,0.689-1.411c0.229-0.689,0.448-1.626,0.623-2.901c0.175-1.275,0.431-3.056,0.717-5.011
	c0.286-1.955,0.601-4.083,0.895-6.051c0.294-1.969,0.566-3.778,0.764-5.096C39.475,68.925,39.6,68.1,39.6,68.1
	s0.175-0.1,0.458-0.336c0.283-0.236,0.673-0.608,1.104-1.152c0.431-0.544,0.903-1.259,1.349-2.182
	c0.445-0.923,0.864-2.055,1.189-3.43l0.225-4.475l0.225-4.475l0.225-4.475L44.6,43.1c0-1.225-0.25-2.388-0.7-3.442
	c-0.45-1.055-1.1-2.001-1.9-2.795c-0.8-0.794-1.75-1.435-2.8-1.877S37,34.3,35.8,34.3z"/>
<path d="M89.5,83.2l-1.875-5.5l-1.875-5.5l-1.875-5.5L82,61.2h-4.25H73.5h-4.25H65l-0.225-1.275L64.55,58.65l-0.225-1.275L64.1,56.1
	h3.475h3.475h3.475H78v-0.875V54.35v-0.875V52.6h-3.7h-3.7h-3.7h-3.7l-0.425-3.65L62.35,45.3l-0.425-3.65L61.5,38
	c0.05,0,0.1,0,0.152,0c0.051,0,0.104,0,0.16,0c0.056,0,0.116,0,0.18,0s0.133,0,0.208,0c0.75,0,1.463-0.15,2.109-0.422
	c0.647-0.272,1.228-0.666,1.716-1.153s0.881-1.069,1.153-1.716C67.45,34.062,67.6,33.35,67.6,32.6s-0.15-1.462-0.422-2.109
	s-0.666-1.228-1.153-1.716s-1.069-0.881-1.716-1.153C63.663,27.35,62.95,27.2,62.2,27.2c-0.65,0-1.275,0.119-1.855,0.336
	s-1.114,0.533-1.583,0.926c-0.468,0.394-0.871,0.866-1.189,1.396c-0.317,0.53-0.548,1.117-0.673,1.742l-0.025-0.025L56.85,31.55
	l-0.025-0.025L56.8,31.5l0.025,0.1l0.025,0.1l0.025,0.1l0.025,0.1c0,0.075-0.006,0.144-0.016,0.209
	c-0.009,0.066-0.022,0.128-0.034,0.191s-0.025,0.125-0.034,0.191C56.806,32.556,56.8,32.625,56.8,32.7c0,0.2,0.013,0.4,0.036,0.598
	c0.023,0.199,0.058,0.396,0.102,0.59c0.043,0.194,0.097,0.384,0.157,0.57S57.225,34.825,57.3,35l1.025,7.25l1.025,7.25l1.025,7.25
	L61.4,64h4.325h4.325h4.325H78.7l1.975,5.575l1.975,5.575l1.975,5.575L86.6,86.3l2.35-0.675l2.35-0.675l2.35-0.675L96,83.6V83v-0.6
	v-0.6v-0.6l-1.625,0.5l-1.625,0.5l-1.625,0.5L89.5,83.2z"/>
<path d="M79.8,74.6c-0.45,1.425-1.125,2.75-1.983,3.936s-1.898,2.233-3.079,3.101s-2.503,1.559-3.924,2.033S67.875,84.4,66.3,84.4
	c-1.95,0-3.812-0.394-5.509-1.108s-3.228-1.749-4.516-3.03c-1.287-1.281-2.331-2.809-3.053-4.511C52.5,74.05,52.1,72.175,52.1,70.2
	c0-1.15,0.138-2.262,0.395-3.325c0.258-1.062,0.636-2.075,1.118-3.025c0.481-0.95,1.066-1.838,1.736-2.65
	c0.67-0.812,1.426-1.55,2.251-2.2l-0.025-1.025L57.55,56.95l-0.025-1.025L57.5,54.9c-1.325,0.75-2.544,1.675-3.627,2.742
	c-1.083,1.067-2.03,2.276-2.811,3.595c-0.781,1.319-1.396,2.747-1.817,4.252c-0.42,1.505-0.645,3.086-0.645,4.711
	c0,2.45,0.494,4.781,1.388,6.9s2.187,4.025,3.787,5.625s3.506,2.894,5.625,3.787s4.45,1.388,6.9,1.388
	c1.675,0,3.294-0.231,4.826-0.664c1.533-0.433,2.979-1.067,4.311-1.873c1.331-0.806,2.547-1.785,3.618-2.905S81.05,80.075,81.8,78.7
	l-0.5-1.025l-0.5-1.025l-0.5-1.025L79.8,74.6z"/>
</svg>
