<?xml version="1.0" encoding="utf-8"?>
<!-- Generator: Adobe Illustrator 25.2.0, SVG Export Plug-In . SVG Version: 6.00 Build 0)  -->
<svg version="1.1" id="Layer_1" xmlns="http://www.w3.org/2000/svg" xmlns:xlink="http://www.w3.org/1999/xlink" x="0px" y="0px"
	 viewBox="0 0 100 100" style="enable-background:new 0 0 100 100;" xml:space="preserve">
<rect x="0" y="0" style="fill:#E2DEDB;" width="100" height="100"/>
<g>
	<g>
		<path d="M69.7,45.9c-3.5,2.1-7.4,3.2-11.8,3.2c-5,0-9.1-1.7-12.2-5.2c-3.1-3.5-4.6-8.1-4.6-13.8c0-5.8,1.7-10.6,5.2-14.4
			c3.4-3.7,7.8-5.6,13.1-5.6c3.8,0,7,0.7,9.6,2V17c-2.8-1.9-6.2-2.9-10.1-2.9c-3.9,0-7.2,1.5-9.7,4.4c-2.5,2.9-3.8,6.7-3.8,11.3
			c0,4.8,1.2,8.5,3.5,11.3c2.3,2.7,5.5,4.1,9.5,4.1c2.7,0,5.1-0.6,7.1-1.8V32.8h-7.7v-4h11.8V45.9z"/>
	</g>
	<g>
		<path d="M67.1,89.7v-5.2c0.6,0.5,1.2,1,2,1.4c0.8,0.4,1.6,0.8,2.5,1.1c0.9,0.3,1.7,0.5,2.6,0.7c0.9,0.2,1.7,0.2,2.4,0.2
			c2.5,0,4.4-0.5,5.7-1.5c1.2-1,1.9-2.5,1.9-4.4c0-1-0.2-1.9-0.6-2.7c-0.4-0.8-1-1.4-1.7-2.1s-1.6-1.2-2.6-1.8
			c-1-0.6-2.1-1.2-3.2-1.8c-1.2-0.7-2.4-1.3-3.4-2s-2-1.4-2.8-2.3s-1.4-1.8-1.9-2.8s-0.7-2.3-0.7-3.7c0-1.7,0.4-3.2,1.1-4.5
			c0.7-1.3,1.6-2.3,2.8-3.1c1.1-0.8,2.4-1.4,3.9-1.8c1.5-0.4,3-0.6,4.5-0.6c3.5,0,6,0.4,7.6,1.3v5c-2.1-1.5-4.7-2.3-8-2.3
			c-0.9,0-1.8,0.1-2.7,0.3c-0.9,0.2-1.7,0.5-2.4,1c-0.7,0.5-1.3,1-1.7,1.8s-0.7,1.6-0.7,2.6c0,1,0.2,1.8,0.5,2.5
			c0.3,0.7,0.8,1.3,1.5,1.9s1.4,1.1,2.4,1.7s2,1.1,3.2,1.8c1.3,0.7,2.5,1.4,3.6,2.1c1.1,0.7,2.1,1.6,3,2.4c0.8,0.9,1.5,1.9,2,3
			c0.5,1.1,0.7,2.3,0.7,3.7c0,1.9-0.3,3.4-1,4.7c-0.7,1.3-1.6,2.3-2.7,3.1c-1.2,0.8-2.5,1.4-4,1.8c-1.5,0.4-3.1,0.5-4.8,0.5
			c-0.6,0-1.2,0-2.1-0.1c-0.8-0.1-1.6-0.2-2.5-0.4c-0.8-0.2-1.7-0.4-2.4-0.7C68.2,90.3,67.6,90,67.1,89.7z"/>
	</g>
	<polygon points="35.3,40.6 20.2,40.6 19.1,32.6 27.8,29.6 35.9,32.9 	"/>
	<path d="M35.3,43.5c0.1,0.7,0.1,1.3,0.1,2c0,6.4-3.6,11.7-8,11.7s-8-5.2-8-11.7c0-0.7,0-1.3,0.1-2H35.3z"/>
	<g>
		<path d="M31.6,92.9l-13.7-30c-3.6,3.2-4.6,8.6-4.6,8.6l-1.7,21.5l5.2,0.1c0,0,0.4-13.6,0.9-14.5s0.9,0,0.9,0l0,14.3L31.6,92.9z"/>
		<path d="M55.3,89.7c-0.9-2.4-13.4-21.2-17-25.7c-3.5-4.3-10.9-5-17-3l14.9,31.4c0-2.6,0-15.7,0.1-17.1c0-1.6,0.9-0.7,0.9-0.7
			s13,16.6,14.7,18.1S56.2,92.1,55.3,89.7z"/>
	</g>
</g>
</svg>
