<?xml version="1.0" encoding="utf-8"?>
<!-- Generator: Adobe Illustrator 25.2.0, SVG Export Plug-In . SVG Version: 6.00 Build 0)  -->
<svg version="1.1" id="Layer_1" xmlns="http://www.w3.org/2000/svg" xmlns:xlink="http://www.w3.org/1999/xlink" x="0px" y="0px"
	 viewBox="0 0 100 100" style="enable-background:new 0 0 100 100;" xml:space="preserve">
<rect x="0" y="0" style="fill:#E2DEDB;" width="100" height="100"/>
<g>
	<polygon points="51.2,6.9 90.6,87.2 12.2,87.2 	"/>
	<g>
		<path style="fill:#FFFFFF;" d="M39.9,80.2v-3.6c0-1.1,1.2-1.6,2.1-1c0,0,0,0,0,0c0.8,0.6,1.7,1.1,2.6,1.5c0.9,0.4,1.8,0.7,2.7,0.9
			c0.9,0.2,1.8,0.3,2.5,0.3c2.7,0,4.7-0.7,6-2.1c1.3-1.4,2-3.4,2-6c0-1.4-0.2-2.6-0.7-3.7c-0.4-1-1.1-2-1.8-2.8
			c-0.8-0.9-1.7-1.7-2.8-2.5c-1.1-0.8-2.2-1.6-3.4-2.5c-1.3-0.9-2.5-1.8-3.6-2.8c-1.1-0.9-2.1-2-2.9-3.1c-0.8-1.1-1.5-2.4-2-3.9
			c-0.5-1.4-0.7-3.1-0.7-5.1c0-2.4,0.4-4.4,1.1-6.2c0.7-1.8,1.7-3.2,2.9-4.3c1.2-1.1,2.6-2,4.1-2.5c1.5-0.6,3.1-0.8,4.7-0.8
			c3.2,0,5.7,0.5,7.3,1.4c0.4,0.2,0.7,0.7,0.7,1.1v3.5c0,1-1.1,1.6-2,1.1c-1.8-1.1-4-1.6-6.5-1.6c-1,0-1.9,0.1-2.9,0.4
			c-1,0.3-1.8,0.7-2.5,1.4c-0.7,0.6-1.4,1.4-1.8,2.4c-0.5,1-0.7,2.2-0.7,3.6c0,1.3,0.2,2.5,0.5,3.4c0.4,1,0.9,1.8,1.6,2.6
			c0.7,0.8,1.5,1.6,2.5,2.3c1,0.7,2.1,1.6,3.4,2.5c1.3,0.9,2.6,1.9,3.8,2.9c1.2,1,2.2,2.1,3.1,3.4c0.9,1.2,1.6,2.6,2.1,4.1
			c0.5,1.5,0.8,3.2,0.8,5.1c0,2.6-0.4,4.7-1.1,6.5c-0.7,1.8-1.7,3.2-2.9,4.3c-1.2,1.1-2.6,1.9-4.2,2.4c-1.6,0.5-3.3,0.7-5,0.7
			c-0.6,0-1.3-0.1-2.2-0.2c-0.9-0.1-1.7-0.3-2.6-0.6c-0.9-0.3-1.8-0.6-2.6-0.9c-0.5-0.2-1-0.5-1.4-0.8C40.1,81,39.9,80.6,39.9,80.2z
			"/>
	</g>
</g>
</svg>
