<svg xmlns="http://www.w3.org/2000/svg" viewBox="0 0 100 100">
  <path stroke="#000" stroke-width=".5" fill="#FF7300" d="m 48.152344,13.253906 a 3.750375,3.750375 0 0 0 -3.269532,1.660156 l -44.4999995,66.5 A 3.750375,3.750375 0 0 0 3.5,87.25 l 93,0 a 3.750375,3.750375 0 0 0 3.029297,-5.958984 l -48.5,-66.5 a 3.750375,3.750375 0 0 0 -2.876953,-1.53711 z"/>
  <path stroke="#000" stroke-width=".5" fill="#FFF" d="M 48.132812,23.544922 89.125,79.75 l -78.603516,0 37.611328,-56.205078 z"/>
  <path d="M68.4,56.4C68.4,56.3,68.4,56.3,68.4,56.4c0-3.8-2.8-6.8-6.3-6.8c-0.6,0-1.3,0.1-1.9,0.3c-2.3-3.8-6.3-6.1-10.7-6.1
			c-5.7,0-10.6,3.9-12.2,9.5h-2.9c-4.3,0-7.8,3.7-7.8,8.2s3.5,8.2,7.8,8.2h3.5v-2.4h-3.5c-3.1,0-5.6-2.6-5.6-5.8
			c0-3.2,2.5-5.8,5.6-5.8H39l0.2-0.9c1.1-5,5.4-8.6,10.3-8.6c3.9,0,7.4,2.2,9.3,5.8l0.5,1l0.9-0.5c0.6-0.3,1.2-0.5,1.9-0.5
			c2.3,0,4.2,1.9,4.2,4.3c0,0.3,0,0.6-0.1,0.9l-0.3,1.5l1.3,0c0.2,0,0.4,0,0.5,0c2.1,0.3,3.6,2.1,3.6,4.3c0,2.4-1.9,4.3-4.2,4.3
			c-0.2,0-3.6,0-6.2,0c-0.2,0-0.3,0-0.5,0v2.4c0.2,0,0.5,0,0.6,0c2.4,0,5.9,0,6.1,0c3.5,0,6.4-3,6.4-6.8
			C73.4,59.8,71.3,57,68.4,56.4z"/>
  <path d="M46.1,66.6l0.2,0.1c0.2,0.7,0.4,1.1,0.6,1.2l0.4,0.1l-0.1,0.2c-0.7,0.4-1.1,0.8-1.3,1.3l0,0.2c0,0.3,0.1,0.4,0.3,0.5
		c0.6,0.2,1.2-0.3,1.7-1.4l0.4,0.1l-0.1,0.6l0.2,0.1l1.1,0.1l-0.1,0.2l-0.8,0.6L49,71L49,71.2c-0.2-0.1-0.6-0.3-1.2-0.7
		c-0.9,0-1.4,0.2-1.5,0.4c0,0.2,0.1,0.4,0.5,0.7l0.4,0.1l1.5,0.2l-0.1,0.2l-0.6,0.5l0.5,0.9l-0.1,0.2l-0.2-0.1l-0.7-0.6
		c-0.2,0.2-0.4,0.4-0.4,0.7l-0.4-0.1c0.2-0.8,0-1.5-0.6-2l-0.6-0.2l-0.1,0.6c-0.1,0.5,0,1.1,0.5,1.8L45.8,74c-0.6-0.1-0.9,0-1,0.4
		c-0.1,0.3-0.2,0.3-0.5,0.3c0.2-0.6-0.1-1-0.8-1.2l0.1-0.2c0.7-0.4,1.1-0.8,1.2-1.3l0-0.2c0.1-0.3,0-0.4-0.3-0.5
		c-0.7-0.2-1.3,0.3-1.7,1.4l-0.4-0.1l0.1-0.6l-0.2-0.1l-1.1-0.1l0.1-0.2L42,71l-0.3-0.7l0.1-0.2c0.8,0.3,1.3,0.6,1.7,0.6
		c0.4,0.1,0.7-0.1,0.9-0.8l-0.8-0.6c-0.2-0.1-0.7,0-1.4,0.1L42,69c0.3,0.1,0.5,0,0.5-0.3l0.1-0.4c-0.4-0.1-0.6-0.3-0.5-0.5l0.1-0.2
		l1,0.5l0.2,0.1l0.1-0.6l0.4,0.1c-0.1,1.2,0.2,1.9,1.1,2.1l0.3-0.3l0-0.2c0.1-0.5,0-1-0.4-1.7l0.1-0.2c0.6,0.1,0.9,0,1-0.4
		L46.1,66.6z M55.2,59.6l0.4,0.1c0,0.5,0,1-0.1,1.4l0.2,0.1l1.1,0.1l0.1,0.4c-1.1,0.1-1.7,0.6-1.9,1.3l-0.2,1l0.8,0.2
		c1.1-0.3,1.8-0.9,2.1-1.9l0.5,0.1l-0.1,1c0.1,0,0.7,0.1,1.8,0.1l0,0.2c0,0.1-0.5,0.3-1.3,0.7l0,0.2l0.6,1c-0.3,0-0.5,0.1-0.7,0
		c-0.4-0.4-0.8-0.6-1.2-0.7c-1.1-0.1-1.7,0-1.9,0.3l-0.1,0.2c0.1,0.6,0.6,1,1.5,1.2c1,0.1,1.6,0.2,1.8,0.3l0,0.2l-0.8,0.6
		c0,0.1,0.3,0.6,1,1.5c-0.1,0-0.2,0-0.3,0.1l-1.3-1c-0.4,0.2-0.6,0.5-0.7,0.8L56.2,69l-0.8-2.4l-1-0.5l-0.3,0.3L54,67
		c-0.1,0.5,0.1,1.2,0.8,2.2l-0.1,0.2L54,69.3L53.7,69c-0.4,0.6-0.7,1.1-0.8,1.4l-0.4-0.1l0.1-1.4l-0.8-0.2l-0.5,0.1l-0.1-0.5
		c1.1-0.3,1.8-0.8,2-1.5l0.1-0.6c0.1-0.3-0.1-0.4-0.5-0.5c-0.8-0.2-1.6,0.5-2.4,2l-0.2-0.1c0-0.7-0.2-1.1-0.4-1.1l-1.6,0l0-0.2
		l1.4-0.9l0.1-0.2c0.1-0.3-0.1-0.4-0.5-0.5l0.1-0.6l0.2,0.1c0.4,0.4,0.8,0.6,1.2,0.7L51,65c0.8,0.2,1.3,0.1,1.7-0.4l0.1-0.2
		c-0.1-0.6-0.6-0.9-1.3-1.1l-0.2-0.1c-0.1,0-0.7-0.1-1.8-0.1l0-0.2l0.8-0.6l0-0.2L49.6,61l0-0.2c0.9,0.5,1.5,0.8,1.6,0.8
		c0.2-0.2,0.3-0.5,0.4-0.9l0.2,0.1c0.2,0,0.3,0.7,0.4,1.9l0.7,0.8l0.8,0.2l0.2-1c0.1-0.5-0.1-1.2-0.8-2.2l0-0.2l1,0.5l0.2,0.1
		L55.2,59.6z M52.1,72.4l0.4,0.1c0,0.1,0,0.3,0,0.6c-0.2,0.2-0.3,0.4-0.4,0.7l0.2,0.1c0.1,0,0.4-0.1,0.8-0.4
		c0.2,0.2,0.4,0.3,0.6,0.4c0,0.2-0.6,0.4-1.5,0.6c0.7,0.2,1,0.6,0.8,1.2l-0.5,0.1c-0.1-0.6-0.2-0.9-0.4-0.9L52,74.8l-0.1,0.4
		l0.3,0.7l-0.7,0.2c-0.2-0.1-0.4-0.3-0.5-0.7c0.3,0.1,0.5,0,0.5-0.3l0.1-0.4l-0.2-0.1c-0.2,0-0.4,0.2-0.8,0.6
		c-0.4-0.2-0.6-0.4-0.5-0.6c0.1-0.4,0.5-0.5,1.2-0.3l0.1-0.6c-0.7-0.2-1-0.5-0.9-0.9l0.9,0.2c0,0.3,0.1,0.4,0.3,0.5l0.2,0.1
		c0.1-0.3,0.1-0.6,0-0.8C51.9,72.7,52.1,72.6,52.1,72.4z"/>
</svg>
