<svg xmlns="http://www.w3.org/2000/svg" viewBox="0 0 100 100">
  <path stroke="#000" stroke-width=".5" fill="#F00" d="m 48.152344,13.253906 a 3.750375,3.750375 0 0 0 -3.269532,1.660156 l -44.4999995,66.5 A 3.750375,3.750375 0 0 0 3.5,87.25 l 93,0 a 3.750375,3.750375 0 0 0 3.029297,-5.958984 l -48.5,-66.5 a 3.750375,3.750375 0 0 0 -2.876953,-1.53711 z"/>
  <path stroke="#000" stroke-width=".5" fill="#FFF" d="M 48.132812,23.544922 89.125,79.75 l -78.603516,0 37.611328,-56.205078 z"/>
  <path d="M48.5,79.9v-0.4c-4.3,0-9.3-4.1-14.8-12.2c-0.3-0.6-1.2-3.8-2.7-9.5l1.3-0.8c2,2.7,3.8,4.5,5.4,5.5h0.9
	c-1.8-2.7-2.7-5.4-2.7-8.3c0.2-2.9,0.8-4.4,1.8-4.4h0.4l2.7,4.4c0,0.3,0.9,1.1,2.7,2.3l0.9-0.4c0-0.7-0.7-3-2.2-7.1l7.6-10.7
	c0.6,0.1,0.9,0.3,0.9,0.8V40l-2.2,7.5c0,1.4,0.6,2.3,1.8,2.7c1.5,0,2.4-2,2.7-5.9h0.9c2.1,1.8,3.1,3.4,3.1,4.8v1.1
	c-0.9,2.6-1.3,4.5-1.3,6c0.1,0.5,0.4,0.8,0.9,0.8c2.3-2,3.9-4.5,4.9-7.5h0.4c0.6,1,0.9,2,0.9,3.2V55c0,2-0.4,4.2-1.3,6.7h0.9
	c1.4-0.6,3.3-3,5.8-7.1c0.6,0.1,0.9,0.4,0.9,0.8v2.4c0,8.2-4.6,15.3-13.8,21.4c0,0.2-1,0.4-3.1,0.4v0.4H48.5z"/>
</svg>
