<svg xmlns="http://www.w3.org/2000/svg" viewBox="0 0 100 100">
  <path stroke="#000" stroke-width=".5" fill="#F00" d="m 48.152344,13.253906 a 3.750375,3.750375 0 0 0 -3.269532,1.660156 l -44.4999995,66.5 A 3.750375,3.750375 0 0 0 3.5,87.25 l 93,0 a 3.750375,3.750375 0 0 0 3.029297,-5.958984 l -48.5,-66.5 a 3.750375,3.750375 0 0 0 -2.876953,-1.53711 z"/>
  <path stroke="#000" stroke-width=".5" fill="#FFF" d="M 48.132812,23.544922 89.125,79.75 l -78.603516,0 37.611328,-56.205078 z"/>
  <path d="M24.5,60.7c10.1,0.1,17.3,0.1,21.4,0.1c1.4,2.2,2.1,3.5,2.1,3.7s-1.4,1.9-4.1,5.1c3.7,2.2,5.6,3.5,5.9,3.8
	c-0.3,1-0.5,1.8-0.5,2.1v0.1l3.1-2.6c-0.4-0.5-1.6-1.7-3.6-3.7c-0.1-0.1-0.1-0.3-0.1-0.4c2.2-2.6,3.2-4.2,3.2-4.9v-3
	c0-0.1,0.1-0.2,0.3-0.2h6.2c3.6,0,8.9,0,15.9-0.1c0.7,0.8,5.5,7,14.6,18.7l-0.3,0.1h-78c-0.2,0-0.3-0.1-0.3-0.2l14-18.6H24.5z
	 M36.8,45h0.5c0.2,0,0.3,0.1,0.3,0.2v0.3c-1.9,2-2.8,3.8-2.8,5.5c0,0.7,0.4,2.1,1.2,4.4v0.3c0,0.1-0.1,0.2-0.4,0.3h-0.1
	c-0.7,0-1.3-1.5-1.9-4.6v-0.3C33.6,48.8,34.6,46.7,36.8,45z M40.6,46.1l0.1,0.2v0.2c0,0.2-0.5,0.9-1.6,2.2c-0.4,0.8-0.5,1.5-0.5,2.2
	v0.6c0,0.6,0.3,1.7,0.8,3.3c0,0.4-0.2,0.6-0.5,0.6c-0.6,0-1.1-1.4-1.6-4.2c0-2.1,0.9-3.7,2.8-5C40.2,46.1,40.4,46.1,40.6,46.1z
	 M48,45.4c0.4,0.1,0.7,0.4,0.7,0.8c-1,1.9-1.5,3-1.5,3.4c0.6,0.7,0.9,1.3,1.1,1.9c0,0.7-0.7,1.8-2.1,3.1c-0.1,0.4-0.2,0.6-0.3,0.6
	l2.2,5.5l-0.3,0.1H41c-0.2,0-0.3-0.1-0.3-0.2V51c0-0.6,1.9-2.2,5.7-4.6C47,45.7,47.6,45.4,48,45.4z M50.2,46.6
	c3.7,2.4,5.6,4,5.6,4.6v9.3c0,0.2-0.1,0.2-0.3,0.2h-5.2c-0.7,0-1.3-0.9-1.8-2.8c-0.7-1.4-1.1-2.3-1.1-2.7c0-0.4,0.7-1.5,2.2-3.3
	v-0.4c-0.6-1.1-0.9-1.7-0.9-1.9v-0.6C48.8,48.6,49.2,47.8,50.2,46.6z M57.4,45.7h0.3c1.9,1.6,2.8,3.2,2.8,4.7
	c-0.6,2.9-1.1,4.4-1.6,4.4h-0.3c-0.1,0-0.3-0.1-0.4-0.3v-0.2c0.6-1.7,0.9-3,0.9-3.8c0-1.2-0.7-2.6-2-4V46
	C57.2,45.8,57.3,45.7,57.4,45.7z M60.5,44.4c1,0,2.1,1.2,3.2,3.7c0.2,0.3,0.3,0.8,0.3,1.4v1.6c0,1.6-0.5,3-1.5,4.2h-0.5
	c-0.2,0-0.3-0.1-0.3-0.2v-0.3c0.8-2.1,1.2-3.6,1.2-4.6c0-1.5-0.9-3.3-2.6-5.6v-0.1C60.3,44.5,60.4,44.4,60.5,44.4z"/>
</svg>
