<svg xmlns="http://www.w3.org/2000/svg" viewBox="0 0 100 100">
  <path stroke="#000" stroke-width=".5" fill="#F00" d="m 48.152344,13.253906 a 3.750375,3.750375 0 0 0 -3.269532,1.660156 l -44.4999995,66.5 A 3.750375,3.750375 0 0 0 3.5,87.25 l 93,0 a 3.750375,3.750375 0 0 0 3.029297,-5.958984 l -48.5,-66.5 a 3.750375,3.750375 0 0 0 -2.876953,-1.53711 z"/>
  <path stroke="#000" stroke-width=".5" fill="#FFF" d="M 48.132812,23.544922 89.125,79.75 l -78.603516,0 37.611328,-56.205078 z"/>
  <path d="M49.7,40.6l-5.4,5.4h-1.4v-1.5h-4.5v6.4L29.9,58l3.1,2.2l2.1-1.6v0.7V66c1-0.4,2.9-0.8,2.9-0.8c3.2,0,2.1,1.8,6.3,1.8
		s3.8-1.8,7.1-1.9c3.2-0.1,5.1,1.7,8,1.7s5.6-2.3,5.6-2.3s0-4.6,0-5.5s0.5-0.9,0.5-0.9l2.4,2l2.3-1.8L49.7,40.6z M62.1,62.4h-5.2
		v-4.7h5.2V62.4z"/>
  <path d="M84.2,73.9c0,0-3.3,3.3-8.5,3.3s-6-2.9-8.5-2.9c-2.5,0-4.6,2.9-8.7,2.9s-4.7-2.9-8.6-2.9s-3,2.9-7.8,2.9s-5.5-3.3-8.3-3.3
		c-2.8,0-5.3,3.3-9.3,3.3s-7.2-3.3-7.2-3.3l-4,5.5h73.8L84.2,73.9z"/>
  <path d="M81.9,71c0,0-2.5,2.9-5.9,2.9c-3.4,0-4.9-2.5-8.5-2.5c-3.6,0-5.8,2.5-8.7,2.5c-2.9,0-4-2.3-8.6-2.3s-3.5,2.3-8.2,2.3
		s-3.1-2.7-8.4-2.7s-3.9,2.7-8.7,2.7c-2.7,0-5.2-3.4-5.2-3.4l2.3-3c0,0,2.6,2.7,6,2.7s6.4-2.7,8.2-2.7c1.7,0.1,3.7,3.7,7.4,3.2
		c3.6-0.5,5.2-2.9,7.7-2.9s3.6,2.5,7.9,2.5s6.1-2.7,8.4-2.7s3.9,2.6,7.6,2.6c3.7,0,5-1.7,5-1.7L81.9,71z"/>
</svg>
