<svg xmlns="http://www.w3.org/2000/svg" viewBox="0 0 100 100">
  <path stroke="#000" stroke-width=".5" fill="#2D8CBE" d="m 48.152344,13.253906 a 3.750375,3.750375 0 0 0 -3.269532,1.660156 l -44.4999995,66.5 A 3.750375,3.750375 0 0 0 3.5,87.25 l 93,0 a 3.750375,3.750375 0 0 0 3.029297,-5.958984 l -48.5,-66.5 a 3.750375,3.750375 0 0 0 -2.876953,-1.53711 z"/>
  <path stroke="#000" stroke-width=".5" fill="#FFF" d="M 48.132812,23.544922 89.125,79.75 l -78.603516,0 37.611328,-56.205078 z"/>
  <path d="M49.9,42.5l-14.2,4.2v13.8c0,0,2.4,13.1,14.2,17.6c11.8-4.5,14.2-17.6,14.2-17.6V46.7L49.9,42.5z M62.8,60.5
		c0,0-2.2,12.3-13,16.4c-10.8-4.2-13-16.4-13-16.4V47.6l13-3.9l13,3.9V60.5z"/>
  <path style="fill:#3D5170;" d="M49.8,44.9l-12,3.7v11.9c0,0,2,11.3,12,15.2c10-3.8,12-15.2,12-15.2V48.6L49.8,44.9z"/>
  <!-- <ellipse style="fill:#FFFFFF;" cx="49.8" cy="70.8" rx="2.6" ry="2.4"/> -->
  <path fill="#FFF" d="M47.199999999999996,70.8a2.6,2.4 0 1,0 5.2,0a2.6,2.4 0 1,0 -5.2,0"/>
  <path style="fill:#FFFFFF;" d="M52.8,51C52.8,50.9,52.8,50.9,52.8,51c0-1.5-1.3-2.7-2.9-2.7s-2.9,1.2-2.9,2.6c0,0.2,0,0.4,0.1,0.6
			l1.8,14l0.2,1.2c0,0,0.1,0.7,0.8,0.7c0.7,0,0.8-0.8,0.8-0.9c0-0.1,2.1-15,2.1-15S52.8,51.2,52.8,51z"/>
  <path style="fill:#010101;" d="M31.9,62.7l2.7,0.9c0,0-0.5,3,0.5,4.5s2.7,2.4,2.7,2.4l-1.4,2.3c0,0-3.7-2.1-4.3-4.3
		C31.3,65.5,31.9,62.7,31.9,62.7z"/>
  <path style="fill:#010101;" d="M29.6,61.4c0,0-1.6,4.7,0.4,8.1c2.3,4,5.9,6.1,5.9,6.1l-1.3,2.4c0,0-5.9-3.9-7.3-7.8
		c-1.5-4-0.7-8.2,0-9.3L29.6,61.4z"/>
  <path style="fill:#010101;" d="M64.1,73.4l-1.3-2.6c0,0,2.5-1.8,2.8-3.5c0.3-1.7-0.2-3.6-0.2-3.6l2.6-0.6c0,0,1.1,4.1,0,6.1
		C66.6,71.9,64.1,73.4,64.1,73.4z"/>
  <path style="fill:#010101;" d="M64.8,76c0,0,4.5-2.2,5.5-6c1.2-4.4,0.2-8.5,0.2-8.5l2.6-0.8c0,0,1.4,7-0.3,10.7
		c-1.8,3.9-5.3,6.3-6.6,6.6L64.8,76z"/>
</svg>
