<svg xmlns="http://www.w3.org/2000/svg" viewBox="0 0 100 100">
  <path stroke="#000" stroke-width=".5" fill="#2D8CBE" d="m 48.152344,13.253906 a 3.750375,3.750375 0 0 0 -3.269532,1.660156 l -44.4999995,66.5 A 3.750375,3.750375 0 0 0 3.5,87.25 l 93,0 a 3.750375,3.750375 0 0 0 3.029297,-5.958984 l -48.5,-66.5 a 3.750375,3.750375 0 0 0 -2.876953,-1.53711 z"/>
  <path stroke="#000" stroke-width=".5" fill="#FFF" d="M 48.132812,23.544922 89.125,79.75 l -78.603516,0 37.611328,-56.205078 z"/>
  <path d="M55.5,38.9v0.7c-6.2,3.2-9.4,6.1-9.4,8.6c8.6,1.1,12.9,4.3,12.9,9.7c0.3,0,0.4,1,0.4,3c0,6.8-5.6,12.2-16.9,16.4
	c-2.2,0.5-3.7,0.7-4.5,0.7v-0.7c7.1-3.7,10.7-6.9,10.7-9.6h-0.5c-6.8,0-11.1-3-12.9-9v-1.9c0-7.5,4.9-13.1,14.7-16.7
	C52.4,39.2,54.1,38.9,55.5,38.9z"/>
</svg>
