<svg xmlns="http://www.w3.org/2000/svg" viewBox="0 0 100 100">
  <path stroke="#000" stroke-width=".5" fill="#F00" d="m 48.152344,13.253906 a 3.750375,3.750375 0 0 0 -3.269532,1.660156 l -44.4999995,66.5 A 3.750375,3.750375 0 0 0 3.5,87.25 l 93,0 a 3.750375,3.750375 0 0 0 3.029297,-5.958984 l -48.5,-66.5 a 3.750375,3.750375 0 0 0 -2.876953,-1.53711 z"/>
  <path stroke="#000" stroke-width=".5" fill="#FFF" d="M 48.132812,23.544922 89.125,79.75 l -78.603516,0 37.611328,-56.205078 z"/>
  <path d="M45,65.1h6.6c0.1,0,0.2,0.1,0.2,0.2c-0.1,0-1.4,1.3-3.8,3.8h0.5c0.7,0,1.8,0,3.4,0.1v0.1c-0.6,0.6-4.5,4-11.8,10.4v-0.1
		c0-0.1,1.4-3.1,4.2-9.1h-0.5c-0.8,0-2.1,0-3.9-0.1v-0.1C43.2,66.9,44.9,65.1,45,65.1z M53.2,69.4h3.3v0.1l-1.8,1.9h1.8v0.1
		c-0.4,0.5-2.3,2.2-5.6,5.1v-0.2l2-4.2c-0.7-0.1-1.2-0.1-1.6-0.1h-0.5v-0.1C52.3,70.2,53.1,69.4,53.2,69.4z"/>
  <path d="M66.7,57.8C66.7,57.8,66.7,57.8,66.7,57.8c0-3.1-2.6-5.6-5.8-5.6c-0.6,0-1.2,0.1-1.7,0.3c-2.2-3.1-5.8-5-9.8-5
		c-5.2,0-9.7,3.2-11.2,7.8h-2.7c-4,0-7.2,3-7.2,6.8s3.2,6.8,7.2,6.8h3.3v-2h-3.3c-2.9,0-5.2-2.1-5.2-4.8c0-2.6,2.3-4.8,5.2-4.8h4.3
		l0.2-0.8c1-4.1,5-7.1,9.5-7.1c3.6,0,6.9,1.8,8.6,4.8l0.5,0.8l0.8-0.4c0.6-0.3,1.1-0.4,1.7-0.4c2.1,0,3.8,1.6,3.8,3.5
		c0,0.2,0,0.5-0.1,0.7l-0.3,1.2l1.2,0c0.2,0,0.4,0,0.4,0c1.9,0.3,3.3,1.8,3.3,3.5c0,2-1.7,3.6-3.9,3.6c-0.2,0-3.4,0-5.7,0
		c-0.2,0-0.3,0-0.5,0v2c0.2,0,0.4,0,0.5,0c2.2,0,5.4,0,5.6,0c3.2,0,5.9-2.5,5.9-5.6C71.3,60.7,69.3,58.4,66.7,57.8z"/>
</svg>
