<svg xmlns="http://www.w3.org/2000/svg" viewBox="0 0 100 100">
  <path stroke="#000" stroke-width=".5" fill="#FF7300" d="m 48.152344,13.253906 a 3.750375,3.750375 0 0 0 -3.269532,1.660156 l -44.4999995,66.5 A 3.750375,3.750375 0 0 0 3.5,87.25 l 93,0 a 3.750375,3.750375 0 0 0 3.029297,-5.958984 l -48.5,-66.5 a 3.750375,3.750375 0 0 0 -2.876953,-1.53711 z"/>
  <path stroke="#000" stroke-width=".5" fill="#FFF" d="M 48.132812,23.544922 89.125,79.75 l -78.603516,0 37.611328,-56.205078 z"/>
  <path d="M49.6,46.4c2.3,0,5.5,1.6,9.6,4.7c4.9,0.6,7.4,2.9,7.4,7.1c2.4,0,3.9,2.2,4.4,6.7c-0.6,1.7-1.7,3.2-3.3,4.3h-3.3
	c-0.5,0-0.8-0.3-0.8-0.8v-0.4c0-0.5,1.4-0.9,4.1-1.2c1-1.2,1.4-2.1,1.4-2.8c0-2.2-1.5-3.8-4.4-4.7c0-4.2-2.3-6.3-7-6.3
	c-2.7-2.9-5.4-4.5-8.1-4.7c-4,0-7.6,2.9-10.7,8.7c-4.5,0-7.2,2-8.1,5.9v0.8c0,1.6,0.6,3.1,1.8,4.3v0.4c0,0.6-0.2,0.8-0.7,0.8
	c-2-1.1-3-2.5-3-4.3v-2.4c0-3.8,3.1-6.3,9.2-7.5C41.1,49.3,45,46.4,49.6,46.4z M58.9,59.4h0.7c2,0,3.4,1.4,4,4.3v2
	c0,2.2-1.3,3.6-4,4.3H34.2c-0.5,0-0.7-0.3-0.7-0.8c0.1-0.5,0.3-0.8,0.7-0.8h24.3c2.4,0,3.7-1,3.7-3.1v-1.2c0-2.1-1.1-3.1-3.3-3.1
	c-1.2,0-2.3,1.3-3.3,4h-0.3l-0.4-0.8v-0.4C54.8,61.6,56.2,60.1,58.9,59.4z M47.4,59.4h1.9c2.2,0.3,3.3,1.5,3.3,3.5v0.8
	c-0.3,2.3-1.4,3.5-3.3,3.5H34.9c-0.5,0-0.8-0.3-0.8-0.8c0.1-0.5,0.4-0.8,0.8-0.8h13.6c1.7,0,2.6-0.9,2.6-2.8c-0.5-1.2-1-1.9-1.5-2
	h-1.4c-0.2,0-0.9,0.8-2.2,2.4c-0.5,0-0.7-0.3-0.7-0.8v-0.8C45.3,61.4,46,60.6,47.4,59.4z M37.2,70.8h15.4c2.5,0,3.7,1,3.7,3.1v0.4
	c0,0.3-0.6,1-1.8,2h-0.8c-1.7,0-2.6-0.8-2.6-2.4l0.7-0.4l1.5,1.1h1.1l0.3-1.5c-0.9-0.5-1.9-0.8-2.9-0.8H37.2c-0.5,0-0.8-0.3-0.8-0.8
	C36.5,71,36.7,70.8,37.2,70.8z"/>
</svg>
