<svg xmlns="http://www.w3.org/2000/svg" viewBox="0 0 100 100">
  <path stroke="#000" stroke-width=".5" fill="#2D8CBE" d="m 48.152344,13.253906 a 3.750375,3.750375 0 0 0 -3.269532,1.660156 l -44.4999995,66.5 A 3.750375,3.750375 0 0 0 3.5,87.25 l 93,0 a 3.750375,3.750375 0 0 0 3.029297,-5.958984 l -48.5,-66.5 a 3.750375,3.750375 0 0 0 -2.876953,-1.53711 z"/>
  <path stroke="#000" stroke-width=".5" fill="#FFF" d="M 48.132812,23.544922 89.125,79.75 l -78.603516,0 37.611328,-56.205078 z"/>
  <path style="fill:#BABABA;" d="M66.9,57.7C66.9,57.7,66.9,57.6,66.9,57.7c0-3.1-2.6-5.6-5.8-5.6c-0.6,0-1.2,0.1-1.7,0.3
		c-2.2-3.1-5.8-5-9.8-5c-5.2,0-9.7,3.2-11.2,7.8h-2.7c-4,0-7.2,3-7.2,6.8s3.2,6.8,7.2,6.8h3.3v0h20.7c0.2,0,0.4,0,0.5,0
		c2.2,0,5.4,0,5.6,0c3.2,0,5.9-2.5,5.9-5.6C71.6,60.5,69.6,58.2,66.9,57.7z M65.7,66.7c-0.2,0-3.4,0-5.7,0c-0.2,0-0.3,0-0.5,0v0
		H38.9h-3.3c-2.9,0-5.2-2.1-5.2-4.8c0-2.6,2.3-4.8,5.2-4.8h4.3l0.2-0.8c1-4.1,5-7.1,9.5-7.1c3.6,0,6.9,1.8,8.6,4.8l0.5,0.8l0.8-0.4
		c0.6-0.3,1.1-0.4,1.7-0.4c2.1,0,3.8,1.6,3.8,3.5c0,0.2,0,0.5-0.1,0.7l-0.3,1.2l1.2,0c0.2,0,0.4,0,0.4,0c1.9,0.3,3.3,1.8,3.3,3.5
		C69.6,65.1,67.8,66.7,65.7,66.7z"/>
  <!-- <ellipse cx="50" cy="74.4" rx="4.3" ry="3.9"/> -->
  <path d="M45.7,74.4a4.3,3.9 0 1,0 8.6,0a4.3,3.9 0 1,0 -8.6,0"/>
  <path d="M54.7,42c0,0,0-0.1,0-0.1c0-2.3-2.1-4.2-4.8-4.2s-4.8,1.9-4.8,4.2c0,0.3,0,0.6,0.1,0.9l2.9,22.7l0.3,2
			c0,0,0.2,1.1,1.4,1.1s1.3-1.2,1.4-1.5c0.1-0.2,3.4-24.4,3.4-24.4S54.8,42.4,54.7,42z"/>
</svg>
