<?xml version="1.0" encoding="UTF-8" standalone="no"?>
<svg
   xmlns:dc="http://purl.org/dc/elements/1.1/"
   xmlns:cc="http://creativecommons.org/ns#"
   xmlns:rdf="http://www.w3.org/1999/02/22-rdf-syntax-ns#"
   xmlns:svg="http://www.w3.org/2000/svg"
   xmlns="http://www.w3.org/2000/svg"
   viewBox="0 0 100 100"
   id="svg2"
   version="1.1">
  <metadata
     id="metadata20">
    <rdf:RDF>
      <cc:Work
         rdf:about="">
        <dc:format>image/svg+xml</dc:format>
        <dc:type
           rdf:resource="http://purl.org/dc/dcmitype/StillImage" />
        <dc:title></dc:title>
      </cc:Work>
    </rdf:RDF>
  </metadata>
  <defs
     id="defs18" />
  <path
     stroke="#000"
     stroke-width=".5"
     fill="#F00"
     d="m 48.152344,13.253906 a 3.750375,3.750375 0 0 0 -3.269532,1.660156 l -44.4999995,66.5 A 3.750375,3.750375 0 0 0 3.5,87.25 l 93,0 a 3.750375,3.750375 0 0 0 3.029297,-5.958984 l -48.5,-66.5 a 3.750375,3.750375 0 0 0 -2.876953,-1.53711 z"
     id="path4" />
  <path
     fill="#FFF"
     stroke="#000"
     stroke-width=".5"
     d="M 48.132812,23.544922 89.125,79.75 l -78.603516,0 37.611328,-56.205078 z"
     id="path6" />
  <path
     d="M49.3,46.3c2.3,0,5.5,1.6,9.6,4.7c4.9,0.6,7.4,2.9,7.4,7.1c2.4,0,3.9,2.2,4.4,6.7c-0.6,1.7-1.7,3.2-3.3,4.3h-3.3   c-0.5,0-0.8-0.3-0.8-0.8v-0.4c0-0.5,1.4-0.9,4.1-1.2c1-1.2,1.4-2.1,1.4-2.8c0-2.2-1.5-3.8-4.4-4.7c0-4.2-2.3-6.3-7-6.3   c-2.7-2.9-5.4-4.5-8.1-4.7c-4,0-7.6,2.9-10.7,8.7c-4.5,0-7.2,2-8.1,5.9v0.8c0,1.6,0.6,3.1,1.8,4.3v0.4c0,0.6-0.2,0.8-0.7,0.8   c-2-1.1-3-2.5-3-4.3v-2.4c0-3.8,3.1-6.3,9.2-7.5C40.8,49.1,44.6,46.3,49.3,46.3z"
     id="path8" />
  <path
     style="fill:none;fill-rule:evenodd;stroke:#000000;stroke-width:1.04150987;stroke-linecap:butt;stroke-linejoin:miter;stroke-miterlimit:4;stroke-dasharray:2.08301971, 1.04150985;stroke-dashoffset:0;stroke-opacity:1"
     d="m 36.733804,72.190517 13.867979,-0.03299 c 8.127706,-1.378587 6.522516,6.662277 0.892493,3.794534"
     id="path4152" />
  <path
     id="path4170"
     d="m 33.850369,69.484853 22.93022,0.131983 c 0.653858,0.0038 1.311904,0.0017 1.95502,-0.11638 0.643116,-0.118098 1.270081,-0.354124 1.800946,-0.735866 0.530866,-0.381742 0.959839,-0.908021 1.208369,-1.512816 0.248531,-0.604795 0.314542,-1.283569 0.184663,-1.924409 -0.01623,-0.850618 -0.271411,-1.695411 -0.728812,-2.412765 -0.457402,-0.717355 -1.115663,-1.305136 -1.88002,-1.678729 -0.998663,-0.488114 -2.175066,-0.601718 -3.248677,-0.31372 -1.073612,0.287997 -2.035218,0.975124 -2.655509,1.897524"
     style="fill:none;fill-rule:evenodd;stroke:#000000;stroke-width:0.89859295;stroke-linecap:butt;stroke-linejoin:miter;stroke-miterlimit:4;stroke-dasharray:1.79718588, 0.89859294;stroke-dashoffset:0;stroke-opacity:1" />
  <path
     id="path4170-2"
     d="m 34.150974,66.862505 14.428183,0.07859 c 0.397394,0.0022 0.797133,9.57e-4 1.188506,-0.06799 0.391373,-0.06895 0.773741,-0.206605 1.10208,-0.430481 0.328338,-0.223877 0.599498,-0.533345 0.767793,-0.893349 0.168296,-0.360005 0.23254,-0.768128 0.181478,-1.162234 -0.03712,-0.511078 -0.2101,-1.011668 -0.496441,-1.436623 -0.286341,-0.424955 -0.685347,-0.773248 -1.145091,-0.999553 -0.623674,-0.306998 -1.357478,-0.383897 -2.031247,-0.212866 -0.673769,0.171031 -1.282054,0.588609 -1.683796,1.155901"
     style="fill:none;fill-rule:evenodd;stroke:#000000;stroke-width:0.81951678;stroke-linecap:butt;stroke-linejoin:miter;stroke-miterlimit:4;stroke-dasharray:1.63903353, 0.81951676;stroke-dashoffset:0;stroke-opacity:1" />
</svg>
