<svg xmlns="http://www.w3.org/2000/svg" viewBox="0 0 100 100">
  <path stroke="#000" stroke-width=".5" fill="#2D8CBE" d="m 48.152344,13.253906 a 3.750375,3.750375 0 0 0 -3.269532,1.660156 l -44.4999995,66.5 A 3.750375,3.750375 0 0 0 3.5,87.25 l 93,0 a 3.750375,3.750375 0 0 0 3.029297,-5.958984 l -48.5,-66.5 a 3.750375,3.750375 0 0 0 -2.876953,-1.53711 z"/>
  <path stroke="#000" stroke-width=".5" fill="#FFF" d="M 48.132812,23.544922 89.125,79.75 l -78.603516,0 37.611328,-56.205078 z"/>
  <g transform="translate(-2.5)">
    <rect x="49.4" y="29.6" width="2.3" height="13.2"/>
    <rect x="49.4" y="45.2" width="2.3" height="2.3"/>
    <path d="M67.6,56.2c-0.6-0.1-3.6-3-3.6-3s-6-5.1-6.1-5.7c0-0.3,0-0.6,0.1-0.8c0.2-0.1,0.3-0.2,0.4-0.4c0.4-0.5,0.7-1.1,0.7-1.8
		c0-1.4-1.1-2.6-2.4-2.6c-1.3,0-2.4,1.1-2.4,2.6c0,0.1,0,0.1,0,0.2c0,0.1,0,0.2,0,0.3c0,0,0,0,0,0c0,0.3,0.1,0.5,0.2,0.7
		c0.2,0.9,0.3,1.9,0.1,2.1c-0.3,0.3-3.9,2.7-4.8,4.1c-1,1.4-4.8,7.8-5.5,8.4c-0.7,0.6-5.4,1.2-5.4,1.2s-3.6,0.7-2.7-1.8
		c0.9-2.4-0.9-4-2.6-3s-1,3.2-0.2,3.4c0.8,0.2,0.4,2.1,0.1,2.2c-0.3,0.1-5.8,5.1-6.7,6.5c-1,1.4,0.5,1.4,0.5,1.4l2-2.1
		c0,0,2.5-2.6,3.4-2.2c0.9,0.4,1,4.1,1,4.5c0,0.4,6.3,8.8,6.8,9.1c0.5,0.3,2.1,0.1,2.4-0.5c0.3-0.7-2.3-2.8-3.1-3.6s-1.9-3-1.8-3.8
		s1.2-0.3,1.2-0.3s5.5,6.1,6.3,6.4c0.7,0.3,1.8,0.1,2-0.4c0.2-0.5-4-4.5-5-5.4s-5-5.6-4.8-7.1c0.2-1.4,4-2.9,5.3-3.1
		c1.3-0.2,4.2-1.2,4.2-1.2s4.2-6.3,5.1-6c0.9,0.2,0.7,3.7,0.7,3.7s0.1,9.4,0.1,10.2c0,0.9-3.3,6-3.3,6s2.8,3.7,3.7,3.6
		c0.9-0.1,0.7-0.9,0.3-1.4c-0.4-0.5-0.4-2.6-0.4-2.6s3.5-8.3,3.6-9.2c0.1-0.9,1.1-2,1.6-2c0.5,0,1.8,2.2,1.8,2.2s0.4,4.2,0.4,5.6
		c0,1.4,1.2,5.8,1.2,5.8s4,0,4.4,0c0.4,0,0.1-1.4,0.1-1.4l-2.8-0.8l0.2-9.1l-3.4-6.7c0,0-0.5-3.3,0-3.6c0.5-0.3,1.9,0.5,1.9,0.5
		s4.2,2.6,5.6,2.7c1.3,0.2,2.3-0.4,2.3-1.2S68.2,56.3,67.6,56.2z"/>
  </g>
</svg>
