<svg xmlns="http://www.w3.org/2000/svg" viewBox="0 0 100 100">
  <path stroke="#000" stroke-width=".5" fill="#F00" d="m 48.152344,13.253906 a 3.750375,3.750375 0 0 0 -3.269532,1.660156 l -44.4999995,66.5 A 3.750375,3.750375 0 0 0 3.5,87.25 l 93,0 a 3.750375,3.750375 0 0 0 3.029297,-5.958984 l -48.5,-66.5 a 3.750375,3.750375 0 0 0 -2.876953,-1.53711 z"/>
  <path stroke="#000" stroke-width=".5" fill="#FFF" d="M 48.132812,23.544922 89.125,79.75 l -78.603516,0 37.611328,-56.205078 z"/>
  <path d="M 59.4,76.7 l -10-0.6 c 0,0-10.5-1.3-9.1-11.2 c 4.5-7.4,12.6-2.5,12.6-2.5 s -0.9-7.1-12.4-7.6 c 0,0-4.8-3.2-8.3-2.7 l -2.9,0 L 10.8,79.7 h 49.2 L 60.7,76.7 z"/>
  <path style="fill:#B3B3B3;" d="M 82.9,69.8 c 0,0-15.4-1.8-24.5,9.7 L 88.6,79.5 L 81.4,69.8 z"/>
  <path d="M60.2,48.1l-14-4.9c0,0,1.5,1.9,1.8,4.5H37v1.4h11c-0.1,1.2-0.6,2.5-1.7,3.8L60.2,48.1z"/>
</svg>
