<svg xmlns="http://www.w3.org/2000/svg" viewBox="0 0 100 100">
  <path stroke="#000" stroke-width=".5" fill="#F00" d="m 48.152344,13.253906 a 3.750375,3.750375 0 0 0 -3.269532,1.660156 l -44.4999995,66.5 A 3.750375,3.750375 0 0 0 3.5,87.25 l 93,0 a 3.750375,3.750375 0 0 0 3.029297,-5.958984 l -48.5,-66.5 a 3.750375,3.750375 0 0 0 -2.876953,-1.53711 z"/>
  <path stroke="#000" stroke-width=".5" fill="#FFF" d="M 48.132812,23.544922 89.125,79.75 l -78.603516,0 37.611328,-56.205078 z"/>
  <path d="M52.3,52.9l-15.1-2.7c0,0-3.8,2.4-4.5,5.7c-0.7,3.2,1.1,6.6,1.1,6.6s14.9,5.1,15.3,5.1c0.4,0,5.1-0.7,5.8-6.8
		C55.6,54.8,52.3,52.9,52.3,52.9z M49.5,66.6c-2.3,0-4.1-2.1-4.1-5.5c0-3.4,2.5-7.6,4.8-7.6c2.3,0,3.5,2.7,3.5,6
		S51.8,66.6,49.5,66.6z"/>
  <path style="fill:#999999;" d="M52.6,51.3c0,0,1.3-1.3,0.5-2.1s-3.4-1.5-3.6-3.2c-0.2-1.8,1.6-3.4,1.5-5.2s-2.1-2.4-2.1-4
		c0.1-1.6,1-2.9,3.3-2.9s3,3,2.3,6.7S53,44,53.1,46.2c0.1,2.2,2.7,0,2.6,3.1C55.5,52.4,52.5,52.6,52.6,51.3z"/>
  <path style="fill:#999999;" d="M63,63.7c0,0,6,2,6.4,2.2c0.4,0.2,2.5,0.9,0.7,2.4c-1.8,1.4-14.7,9.1-16.1,9.2
		c-1.4,0.1-7.4-1-9.3-0.3c-2,0.7-5.4,2.4-6.6,1c-1.2-1.3-0.6-3.8,2.1-4.9c2.7-1.2,12.7-4.3,14-4.4c1.3-0.2,4.6-2,4.8-3.5
		C59.2,63.8,60.5,63.4,63,63.7z"/>
</svg>
