<svg xmlns="http://www.w3.org/2000/svg" viewBox="0 0 100 100">
  <path stroke="#000" stroke-width=".5" fill="#FF7300" d="m 48.152344,13.253906 a 3.750375,3.750375 0 0 0 -3.269532,1.660156 l -44.4999995,66.5 A 3.750375,3.750375 0 0 0 3.5,87.25 l 93,0 a 3.750375,3.750375 0 0 0 3.029297,-5.958984 l -48.5,-66.5 a 3.750375,3.750375 0 0 0 -2.876953,-1.53711 z"/>
  <path stroke="#000" stroke-width=".5" fill="#FFF" d="M 48.132812,23.544922 89.125,79.75 l -78.603516,0 37.611328,-56.205078 z"/>
  <path d="M50.7,45.1c-5.7-1.9,1.6-10.3,1.6-10.3C36.6,44,37.5,53.6,38,59.6s11.3,8.6,13,10.7s-3.3,8.4-3.3,8.4s14.6-9.3,14.4-19.3
	C62,49.4,56.5,47,50.7,45.1z M50.2,64.6c-4.7,0-8.4-3.5-8.4-7.9s3.8-7.9,8.4-7.9s8.4,3.5,8.4,7.9S54.8,64.6,50.2,64.6z"/>
</svg>
