<svg xmlns="http://www.w3.org/2000/svg" viewBox="0 0 100 100">
  <path stroke="#000" stroke-width=".5" fill="#F00" d="m 48.152344,13.253906 a 3.750375,3.750375 0 0 0 -3.269532,1.660156 l -44.4999995,66.5 A 3.750375,3.750375 0 0 0 3.5,87.25 l 93,0 a 3.750375,3.750375 0 0 0 3.029297,-5.958984 l -48.5,-66.5 a 3.750375,3.750375 0 0 0 -2.876953,-1.53711 z"/>
  <path stroke="#000" stroke-width=".5" fill="#FFF" d="M 48.132812,23.544922 89.125,79.75 l -78.603516,0 37.611328,-56.205078 z"/>
  <path style="fill:none;stroke:#000000;" d="M50.1,33.2c3.1,0.2,4.7,0.7,4.7,1.8v3.9c0,2.3,0.9,5.5,2.8,9.5c-2,0.8-5.1,0.8-7.6,0.8
		c-2.8-0.2-6.9-0.3-6.9-1.2c1.9-3.3,2.8-6.8,2.8-10.4v-2.5C46,33.8,47.5,33.2,50.1,33.2z"/>
  <!-- <ellipse cx="50.5" cy="63.2" rx="3.5" ry="3.5"/> -->
  <path d="M47,63.2a3.5,3.5 0 1,0 7,0a3.5,3.5 0 1,0 -7,0"/>
  <path d="M58.4,50.2l-5.3,9.3c1,0.7,1.7,1.9,1.8,3.2h10.8C65.6,57.4,62.7,52.8,58.4,50.2z M35.1,62.7h10.8c0.1-1.3,0.8-2.5,1.8-3.2
			l-5.3-9.3C38.1,52.7,35.2,57.4,35.1,62.7z M52.3,67.1c-0.6,0.3-1.2,0.4-1.9,0.4c-0.6,0-1.1-0.1-1.6-0.3l-5.8,9
			c2.2,1.2,4.8,1.9,7.5,1.9c2.8,0,5.4-0.7,7.7-2L52.3,67.1z"/>
</svg>
