<svg xmlns="http://www.w3.org/2000/svg" viewBox="0 0 100 100">
  <path stroke="#000" stroke-width=".5" fill="#F00" d="m 48.152344,13.253906 a 3.750375,3.750375 0 0 0 -3.269532,1.660156 l -44.4999995,66.5 A 3.750375,3.750375 0 0 0 3.5,87.25 l 93,0 a 3.750375,3.750375 0 0 0 3.029297,-5.958984 l -48.5,-66.5 a 3.750375,3.750375 0 0 0 -2.876953,-1.53711 z"/>
  <path stroke="#000" stroke-width=".5" fill="#FFF" d="M 48.132812,23.544922 89.125,79.75 l -78.603516,0 37.611328,-56.205078 z"/>

  <!-- <ellipse cx="50" cy="71.4" rx="4.3" ry="3.9"/> -->
  <path d="M45.7,71.4a4.3,3.9 0 1,0 8.6,0a4.3,3.9 0 1,0 -8.6,0"/>

  <path d="M54.7,39c0,0,0-0.1,0-0.1c0-2.3-2.1-4.2-4.8-4.2s-4.8,1.9-4.8,4.2c0,0.3,0,0.6,0.1,0.9l2.9,22.7l0.3,2c0,0,0.2,1.1,1.4,1.1
		s1.3-1.2,1.4-1.5c0.1-0.2,3.4-24.4,3.4-24.4S54.8,39.4,54.7,39z"/>
</svg>
