<svg xmlns="http://www.w3.org/2000/svg" viewBox="0 0 100 100">
  <path stroke="#000" stroke-width=".5" fill="#F00" d="m 48.152344,13.253906 a 3.750375,3.750375 0 0 0 -3.269532,1.660156 l -44.4999995,66.5 A 3.750375,3.750375 0 0 0 3.5,87.25 l 93,0 a 3.750375,3.750375 0 0 0 3.029297,-5.958984 l -48.5,-66.5 a 3.750375,3.750375 0 0 0 -2.876953,-1.53711 z"/>
  <path stroke="#000" stroke-width=".5" fill="#FFF" d="M 48.132812,23.544922 89.125,79.75 l -78.603516,0 37.611328,-56.205078 z"/>
  <path d="M64.8,48.3l-3.2-2.6c-6,3.9-11.3,0-11.3,0c-5.7,3.9-11.4,0-11.4,0l-3.3,2.5c4.4,9.8-0.4,6.3,0,15.6
	C36.1,73.1,49.9,77,49.9,77s14.9-5.6,14.9-12s-1.3-7.2-1.6-10.8C62.9,50.6,64.8,48.3,64.8,48.3z M55.6,67.6l-5.4-3.1l-5.6,3.4l2-5.7
	l-3.9-3.6l5.4-0.6l2.1-4.2l2.8,4.5h5.6l-4,4.2L55.6,67.6z"/>
</svg>
