<svg xmlns="http://www.w3.org/2000/svg" viewBox="0 0 100 100">
  <path stroke="#000" stroke-width=".5" fill="#F00" d="m 48.152344,13.253906 a 3.750375,3.750375 0 0 0 -3.269532,1.660156 l -44.4999995,66.5 A 3.750375,3.750375 0 0 0 3.5,87.25 l 93,0 a 3.750375,3.750375 0 0 0 3.029297,-5.958984 l -48.5,-66.5 a 3.750375,3.750375 0 0 0 -2.876953,-1.53711 z"/>
  <path stroke="#000" stroke-width=".5" fill="#FFF" d="M 48.132812,23.544922 89.125,79.75 l -78.603516,0 37.611328,-56.205078 z"/>
  <path style="fill:#999999;" d="M50.5,43.6C40.3,43.6,32,51.4,32,61s8.3,17.4,18.6,17.4S69.1,70.7,69.1,61S60.8,43.6,50.5,43.6z
		 M35.2,61c0-3.3,1.2-6.4,3.2-8.8l21.5,20c-2.6,1.9-5.9,3.1-9.5,3.1C42.1,75.4,35.2,69,35.2,61z M62.2,70.3L40.8,50
		c2.6-2.1,6-3.3,9.7-3.3c8.4,0,15.3,6.4,15.3,14.3C65.8,64.6,64.4,67.8,62.2,70.3z"/>
  <path d="M48.5,67.3h-2.6c0,0,0,0,0,0c-0.7,0-1.4-0.2-1.8-0.2c-0.1,0-0.1-0.1-0.2-0.1c-0.8,0-1.3-2.7-1.5-8.2v-0.3
			c0-2.2,0.2-4,0.7-5.4c0.1-0.3,0.4-0.7,1-1c0.8-0.3,1.3-0.3,1.6-0.2c0,0,0.1,0.1,0.2,0.1h2.9c0.6,0,1-0.3,1.1-1V43
			c-0.1-0.8-0.5-1.2-1.1-1.2h-2.9h-1.3L43.8,42c-5.2,2.3-7.8,8.2-7.8,17.5v0.7c0,5,1,9.2,3,12.7c1.7,2.3,3.3,3.7,4.7,4.1
			c0,0,0,0,0,0c0.6,0.2,2.6,0.1,2.6,0.1h2.5c0.7,0,1.1-0.4,1.1-1.2v-7.4C49.9,67.8,49.4,67.4,48.5,67.3z"/>
  <path d="M68,64.2h-1.9V54.1c0-0.1-0.1-0.2-0.2-0.2h-0.6l-0.8,1.3c-1.2,0.2-1.8,0.4-1.8,0.5v0.7c0,0.2,0.1,0.3,0.3,0.3h1.9v7.6
			h-1.9c-0.1,0-0.2,0.1-0.3,0.2v0.7c0,0.1,0.1,0.2,0.3,0.2h5c0.2,0,0.3-0.1,0.3-0.2v-0.7C68.2,64.3,68.1,64.2,68,64.2z"/>
  <path d="M59.2,64.2h-1.9V54.1c0-0.1-0.1-0.2-0.3-0.2h-0.6l-0.8,1.3c-1.2,0.2-1.8,0.4-1.8,0.5v0.7c0,0.2,0.1,0.3,0.3,0.3H56v7.6
			h-1.9c-0.1,0-0.2,0.1-0.3,0.2v0.7c0,0.1,0.1,0.2,0.3,0.2h5.1c0.1,0,0.2-0.1,0.2-0.2v-0.7C59.4,64.3,59.3,64.2,59.2,64.2z"/>
  <path d="M47.5,53.7H47c-1.7,0-2.8,1.3-3.2,3.8c0,2.5,1.1,3.8,3.4,3.8c0.7,0,1.5-0.3,2.3-0.8c-0.3,2.5-1.3,3.8-3.2,3.8h-0.1
			c-0.6,0-1-0.1-1.3-0.3l-0.1,0.3v1c0,0.2,0.4,0.3,1.2,0.4l1.6-0.3c2.3-0.9,3.5-2.8,3.5-5.7v-1.5c0-0.5-0.1-1-0.3-1.6
			C50.2,54.6,49.1,53.7,47.5,53.7z M49.6,59.4c-1,0.3-1.6,0.5-2,0.5c-1.6,0-2.3-0.8-2.3-2.3c0-1.8,0.6-2.6,1.9-2.6h0.6
			c1.3,0.2,1.9,1.3,1.9,3.1V59.4z"/>
</svg>
