<svg xmlns="http://www.w3.org/2000/svg" viewBox="0 0 100 100">
  <path stroke="#000" stroke-width=".5" fill="#F00" d="m 48.152344,13.253906 a 3.750375,3.750375 0 0 0 -3.269532,1.660156 l -44.4999995,66.5 A 3.750375,3.750375 0 0 0 3.5,87.25 l 93,0 a 3.750375,3.750375 0 0 0 3.029297,-5.958984 l -48.5,-66.5 a 3.750375,3.750375 0 0 0 -2.876953,-1.53711 z"/>
  <path stroke="#000" stroke-width=".5" fill="#FFF" d="M 48.132812,23.544922 89.125,79.75 l -78.603516,0 37.611328,-56.205078 z"/>
  <path d="M47.1,54.6h1.1c2.8,0,5.2,2.6,7.4,7.8c5.8,10.1,9.3,15.1,10.7,15.1c0.3,0,0.4,0.1,0.4,0.4v1.2c0,0.5-0.2,0.8-0.7,0.8H28.9
	c-0.5,0-0.7-0.3-0.7-0.8c4.2-4.5,6.3-8.6,6.3-12.3C38.7,59,41.7,55,43.4,55C44.7,54.7,46,54.6,47.1,54.6z M54.2,35
	c1.8,0,2.6,2.6,2.6,7.8c0,0.5-1.2,0.9-3.7,1.2c-0.6,4.1-1.2,6.1-1.9,6.1l-3.8-1.2c-0.5,0.9-0.7,1.7-0.7,2.4l0.4,2l-0.7,0.4h-0.8
	c-0.7,0-1.3-1.9-1.9-5.8v-1.6c0.5-1,1.2-1.7,2.2-2c1.6,0.5,2.6,0.8,3,0.8c2-6.8,3.5-10.2,4.4-10.2H54.2z"/>
</svg>
