<svg xmlns="http://www.w3.org/2000/svg" viewBox="0 0 100 100">
  <path stroke="#000" stroke-width=".5" fill="#FF7300" d="m 48.152344,13.253906 a 3.750375,3.750375 0 0 0 -3.269532,1.660156 l -44.4999995,66.5 A 3.750375,3.750375 0 0 0 3.5,87.25 l 93,0 a 3.750375,3.750375 0 0 0 3.029297,-5.958984 l -48.5,-66.5 a 3.750375,3.750375 0 0 0 -2.876953,-1.53711 z"/>
  <path stroke="#000" stroke-width=".5" fill="#FFF" d="M 48.132812,23.544922 89.125,79.75 l -78.603516,0 37.611328,-56.205078 z"/>
  <path d="M31.4,48.2c1.4,0.2,2.1,0.6,2.1,1.2v2c0,4.8,1.5,7.7,4.6,8.6c0.6,0,2,1.2,4.4,3.7c1.3,1.2,2.6,1.8,3.9,1.8l2-0.3
	c0.3,0,2.6,2.2,6.9,6.5c4.7,4.6,7.6,7.4,8.6,8.4v0.1H10c-0.2,0-0.3-0.1-0.3-0.2c6.4-9.2,13.1-19.1,20.1-29.8
	C30.7,48.8,31.2,48.2,31.4,48.2z M34.9,50.3c1.4,0.6,2.5,1.5,3.2,2.8c0.6,1.6,1.5,3,2.7,4.1c2.2,1,3.7,1.8,4.5,2.5
	c1.3,1.7,2,2.9,2,3.6v0.5c0,0.1-0.1,0.2-0.3,0.3h-0.1c-1.9,0-3.9-1.2-6.1-3.5c-0.3-0.3-1.7-1.3-4.1-2.9c-0.8-0.7-1.3-2-1.5-3.9
	c0-0.4-0.1-1.5-0.3-3.2C34.8,50.4,34.9,50.4,34.9,50.3z M45.8,40.8H46c0.3,0,0.5,0.5,0.6,1.5l0.2,0.1h0.1l0.7-0.1
	c0.3,0.1,0.5,0.2,0.5,0.5c-1.1,1.1-1.6,1.9-1.6,2.4c0.1,0.4,0.2,0.6,0.3,0.6h0.3c0.9,0,1.5-0.8,1.8-2.4l0.3-0.2h0.1
	c0.1,0,0.3,0.3,0.7,0.9l0.2,0.1c0.7-0.3,1.1-0.4,1.3-0.4h0.1c0.2,0,0.3,0.1,0.3,0.4l-1,1.1v0.3c0,0,0.2,0.2,0.6,0.5v0.2
	c0,0.2-0.2,0.3-0.6,0.3l-1.6-0.4c-0.6,0-1.2,0.3-1.8,1c0.4,0.4,0.7,0.6,1.1,0.6c0.6,0,1.6,0,2.9-0.1l0.1,0.2l-0.6,0.9
	c0,0.1,0.3,0.5,0.9,1.1v0.4l-0.6,0.1l-1.2-0.3h-0.3c0,0.5-0.2,0.8-0.6,0.9h-0.1c-0.3-0.1-0.5-0.7-0.8-1.8c-0.5-0.5-0.9-0.8-1.5-0.8
	c-0.1,0-0.2,0.1-0.3,0.3v0.5c0,0.6,0.5,1.4,1.6,2.2v0.2C48,52,47.8,52,47.6,52c-0.4-0.1-0.7-0.1-0.9-0.1c-0.3,1-0.5,1.5-0.7,1.5
	c-0.3,0-0.5-0.5-0.8-1.5H45c-0.1,0-0.3,0-0.7,0.1c-0.2-0.1-0.3-0.1-0.5-0.1c0-0.3,0.5-1,1.4-2c0.1-0.1,0.1-0.3,0.1-0.4
	c0-0.1-0.1-0.4-0.2-0.9c-1,0-1.8,0.9-2.2,2.7l-0.2,0.1c-0.2,0-0.5-0.4-0.8-1.3c-0.7,0.3-1.2,0.4-1.5,0.4h-0.2
	c-0.2,0-0.2-0.1-0.2-0.3c0-0.1,0.4-0.5,1.1-1.2v-0.2c0,0-0.2-0.2-0.7-0.6v-0.1c0-0.1,0.1-0.2,0.3-0.3h0.2c0.1,0,0.6,0.1,1.6,0.3
	c0.8,0,1.4-0.2,1.8-0.7V47c-0.3-0.5-0.8-0.7-1.5-0.7h-0.5c-0.2,0-0.7,0.1-1.4,0.3h-0.6c0-0.1,0.2-0.6,0.6-1.4c0-0.1-0.4-0.5-1.1-1.1
	v-0.1c0-0.1,0.1-0.2,0.2-0.2h0.5c0.6,0.1,0.9,0.2,1,0.2h0.3c0.2,0,0.4-0.4,0.7-1.1l0.2-0.1c0.6,1.8,1.2,2.8,1.6,2.8
	c0.1,0.1,0.3,0.1,0.5,0.1h0.3c0.2,0,0.3-0.2,0.3-0.6c0-0.6-0.5-1.3-1.5-2.1c-0.1-0.1-0.1-0.3-0.1-0.5c1.1,0,1.6-0.2,1.6-0.6
	C45.4,41.1,45.5,40.8,45.8,40.8z M49.3,55h0.1c8,8,13.1,13,15.3,15l0.5,0.3v-2c0.1-1.3,0.4-1.9,1-1.9c0.5,0.2,0.9,0.5,1.1,0.9v6.3
	c-0.2,0.7-0.5,1.1-1.1,1.1h-5.8c-0.2,0-0.3-0.4-0.5-1.3c0.1-0.5,0.5-0.7,1.3-0.7h2.2c-0.4-0.6-5.6-5.8-15.5-15.4
	c-0.2-0.2-0.2-0.4-0.2-0.5C47.6,55.9,48.2,55.4,49.3,55z"/>
</svg>
