<svg xmlns="http://www.w3.org/2000/svg" viewBox="0 0 100 100">
  <path stroke="#000" stroke-width=".5" fill="#F00" d="m 48.152344,13.253906 a 3.750375,3.750375 0 0 0 -3.269532,1.660156 l -44.4999995,66.5 A 3.750375,3.750375 0 0 0 3.5,87.25 l 93,0 a 3.750375,3.750375 0 0 0 3.029297,-5.958984 l -48.5,-66.5 a 3.750375,3.750375 0 0 0 -2.876953,-1.53711 z"/>
  <path stroke="#000" stroke-width=".5" fill="#FFF" d="M 48.132812,23.544922 89.125,79.75 l -78.603516,0 37.611328,-56.205078 z"/>
  <!-- <ellipse cx="50.1" cy="59.8" rx="4.3" ry="4.3"/> -->
  <path d="M45.800000000000004,59.8a4.3,4.3 0 1,0 8.6,0a4.3,4.3 0 1,0 -8.6,0"/>
  <path d="M59.8,44l-6.5,11.3c1.2,0.9,2,2.3,2.2,3.9h13.3C68.6,52.8,65.1,47.2,59.8,44z M31.2,59.2h13.3c0.1-1.6,1-3,2.2-3.9L40.2,44
		C34.9,47.1,31.3,52.7,31.2,59.2z M52.3,64.5C51.6,64.8,50.8,65,50,65c-0.7,0-1.4-0.1-2-0.4l-7.1,11c2.7,1.5,5.8,2.3,9.2,2.3
		c3.4,0,6.7-0.9,9.4-2.5L52.3,64.5z"/>
</svg>
