<svg xmlns="http://www.w3.org/2000/svg" viewBox="0 0 100 100">
  <path stroke="#000" stroke-width=".5" fill="#F00" d="m 48.152344,13.253906 a 3.750375,3.750375 0 0 0 -3.269532,1.660156 l -44.4999995,66.5 A 3.750375,3.750375 0 0 0 3.5,87.25 l 93,0 a 3.750375,3.750375 0 0 0 3.029297,-5.958984 l -48.5,-66.5 a 3.750375,3.750375 0 0 0 -2.876953,-1.53711 z"/>
  <path stroke="#000" stroke-width=".5" fill="#FFF" d="M 48.132812,23.544922 89.125,79.75 l -78.603516,0 37.611328,-56.205078 z"/>
  <path d="M34.7,57.1h0.5c0.8,1.4,1.3,2.1,1.7,2.1h0.9v0.4C36.6,60.8,36,61.9,36,63v0.4c0.1,0.6,0.4,0.8,0.9,0.8
	c1.3,0,2.2-1.3,2.7-3.8h0.9v1.3h0.5l2.2-0.4v0.4l-1.3,1.7l0.9,1.3v0.4c-0.5,0-1.4-0.3-2.6-0.9c-1.8,0.6-2.7,1.2-2.7,1.7
	c0,0.4,0.4,0.8,1.3,1.3h0.9l3.1-0.4v0.4l-0.9,1.3l1.3,1.7v0.4h-0.5l-1.7-0.9c-0.3,0.5-0.5,1.1-0.5,1.7h-0.9c0-1.8-0.7-3.1-2.2-3.8
	H36v1.3c0,1,0.6,2.2,1.8,3.4v0.4c-1.2,0-1.8,0.4-1.8,1.3c0,0.6-0.3,0.8-0.9,0.8c0-1.4-0.7-2.1-2.2-2.1v-0.4c1.2-1.2,1.7-2.3,1.7-3.4
	v-0.4c0-0.6-0.3-0.9-0.9-0.9c-1.4,0-2.3,1.3-2.6,3.8h-0.9v-1.3h-0.5l-2.2,0.4v-0.4l1.3-1.7l-0.9-1.3v-0.4c1.6,0.3,2.8,0.4,3.5,0.4
	c0.9,0,1.3-0.7,1.3-2.1l-1.8-0.9c-0.5,0-1.4,0.3-2.6,0.9l-0.5-0.9c0.6,0,0.9-0.3,0.9-0.8v-0.8c-0.9,0-1.3-0.3-1.3-0.8v-0.4l2.2,0.4
	h0.5v-1.3h0.9c0.3,2.5,1.3,3.8,3.1,3.8l0.4-0.8V63c0-1-0.6-2.2-1.7-3.4v-0.4c1.2,0,1.7-0.4,1.7-1.3V57.1z M48.8,37.6h0.9
	c0.3,1.1,0.5,2.1,0.5,3h0.4l2.2-0.4l0.5,0.8c-2,0.9-3.1,2.2-3.1,3.8v2.1h1.7c2-1.2,3.1-2.9,3.1-5.1h0.9l0.4,2.1
	c0.3,0,1.4-0.3,3.5-0.8v0.4c0,0.2-0.7,0.9-2.2,2.2V46l1.7,1.7c-0.5,0.3-1,0.4-1.3,0.4c-1-0.6-1.8-0.8-2.7-0.8
	c-2.2,0.3-3.4,0.9-3.5,1.7v0.4c0.4,1.1,1.6,1.7,3.5,1.7c2.1-0.3,3.2-0.4,3.5-0.4v0.4l-1.3,1.7c0,0.2,0.9,1.1,2.7,2.6
	c-0.3,0-0.5,0.1-0.5,0.4l-3.1-1.3c-0.6,0.7-0.9,1.4-0.9,2.1h-0.5L52.7,52l-2.2-0.4l-0.4,0.8v1.3c0,1.1,0.9,2.5,2.6,4.2v0.4h-1.3
	l-0.9-0.4c-0.6,1.4-0.9,2.6-0.9,3.4h-0.9l-0.5-3h-1.7l-0.9,0.4l-0.5-0.9c2-1.2,3.1-2.6,3.1-4.2v-1.3c0-0.6-0.4-0.8-1.3-0.8
	c-1.7,0-2.8,1.8-3.5,5.5H43c-0.4-1.4-0.8-2.1-1.3-2.1l-3.1,0.8v-0.4l2.2-2.6v-0.4c0-0.6-0.4-0.8-1.3-0.8v-1.3H40
	c1,0.6,1.8,0.8,2.6,0.8h0.9c1.6,0,2.6-0.6,3.1-1.7V49c-0.5-1.1-1.5-1.7-3.1-1.7H43c-0.3,0-1.4,0.3-3.5,0.8v-0.4l1.3-1.7v-0.4
	l-2.2-2.2v-0.4c2.1,0.6,3.2,0.8,3.5,0.8c0.3-0.5,0.4-1.2,0.4-2.1H43c0.4,0,1,1.3,1.7,3.8l1.8,1.2h1.7v-2.1c0-1.1-0.9-2.5-2.6-4.2
	v-0.4l2.2,0.4h0.4L48.8,37.6z M49.2,66h0.9c0,0.3,0.1,0.7,0.4,1.3c-0.3,0.5-0.4,1-0.4,1.7h0.4c0.2,0,0.7-0.4,1.3-1.3
	c0.6,0.3,1,0.4,1.3,0.4c0,0.4-0.9,1.1-2.7,2.1c1.5,0,2.2,0.7,2.2,2.1l-0.9,0.4c-0.4-1.2-0.9-1.7-1.3-1.7h-0.4v0.8l0.9,1.3L49.6,74
	c-0.4,0-0.9-0.4-1.3-1.3c0.6,0,0.9-0.3,0.9-0.9V71h-0.4c-0.3,0-0.8,0.6-1.3,1.7c-0.9-0.3-1.3-0.6-1.3-0.9c0-0.8,0.7-1.2,2.2-1.2
	v-1.3c-1.5,0-2.2-0.4-2.2-1.3h1.8c0.1,0.6,0.4,0.8,0.9,0.8h0.4c0-0.6-0.1-1.2-0.4-1.7C49,66.7,49.2,66.3,49.2,66z M64.1,60.5H65
	l0.5,2.1l2.2-0.4l0.5,0.9c-1.2,0.4-2.1,1.1-2.7,2.1v2.5h0.5c2.1,0,3.4-1.4,3.9-4.2h0.5c0.3,0.5,0.4,1.1,0.4,1.7l3.1-0.4v0.4L72,66.8
	l0.9,1.3v0.4l-3.1-0.4c-1.8,0.2-2.7,0.6-2.7,1.3v0.4c0,0.7,1,1.1,3.1,1.3c0.5,0,1.4-0.3,2.6-0.8l0.5,0.8c-0.4,0-0.9,0.4-1.3,1.3
	c0.5,0,1.1,0.6,1.8,1.7v0.4h-0.5c-1-0.6-1.7-0.8-2.2-0.8c-0.4,1.1-0.9,1.7-1.3,1.7h-0.4c0-2-0.8-3.3-2.2-3.8h-1.7v1.3
	c0,1.2,0.7,2.3,2.2,3.4v0.4c-1.8,0-2.7,0.7-2.7,2.1h-0.9c0-1.4-0.9-2.1-2.6-2.1v-0.4c1.3-1,2.2-2.1,2.6-3.4c-0.3-0.6-0.4-1-0.4-1.3
	h-1.8c-1.5,0.6-2.2,1.9-2.2,3.8h-0.9c0-0.8-0.4-1.2-1.3-1.2l-2.2,0.4V74l1.7-1.7v-0.8c-0.8,0-1.3-0.3-1.3-0.8l0.9-0.4
	c1,0.6,1.8,0.8,2.6,0.8c2.1-0.4,3.1-0.9,3.1-1.7c-0.3-0.9-1.2-1.3-2.7-1.3h-0.5l-3.1,0.4v-0.4l0.9-1.3c0-0.2-0.7-0.9-2.2-2.1
	c0.3,0,0.5-0.1,0.5-0.4c1,0.6,1.8,0.9,2.7,0.9h0.4c0-0.9,0.3-1.3,0.9-1.3h0.5c0,1.7,0.9,3,2.7,3.8h1.3c0-0.3,0.1-0.7,0.4-1.2
	c0-0.7-0.9-1.9-2.6-3.8v-0.4l2.2,0.4L64.1,60.5z"/>
</svg>
