<?xml version="1.0" encoding="iso-8859-1"?>
<!-- Generator: Adobe Illustrator 25.4.1, SVG Export Plug-In . SVG Version: 6.00 Build 0)  -->
<svg version="1.1" id="Layer_1" xmlns="http://www.w3.org/2000/svg" xmlns:xlink="http://www.w3.org/1999/xlink" x="0px" y="0px"
	 viewBox="0 0 100 100" style="enable-background:new 0 0 100 100;" xml:space="preserve">
<path style="fill:#A4251A;" d="M50,2.4c6.572,0,12.833,1.332,18.528,3.741s10.823,5.894,15.13,10.201s7.793,9.435,10.201,15.13
	C96.268,37.167,97.6,43.428,97.6,50s-1.332,12.833-3.741,18.528s-5.894,10.823-10.201,15.13s-9.436,7.793-15.13,10.201
	C62.833,96.268,56.572,97.6,50,97.6s-12.833-1.332-18.528-3.741s-10.823-5.894-15.13-10.201S8.55,74.222,6.141,68.528
	S2.4,56.572,2.4,50s1.332-12.833,3.741-18.528s5.894-10.823,10.201-15.13s9.435-7.792,15.13-10.201S43.428,2.4,50,2.4z"/>
<linearGradient id="SVGID_1_" gradientUnits="userSpaceOnUse" x1="13.4093" y1="-665.2272" x2="88.6569" y2="-665.2272" gradientTransform="matrix(1 0 0 -1 0 -588)">
	<stop  offset="0" style="stop-color:#0022E0"/>
	<stop  offset="0.1017" style="stop-color:#1231E2"/>
	<stop  offset="0.305" style="stop-color:#4059E8"/>
	<stop  offset="0.5913" style="stop-color:#8A9AF1"/>
	<stop  offset="0.9464" style="stop-color:#EFF1FD"/>
	<stop  offset="1" style="stop-color:#FFFFFF"/>
</linearGradient>
<path style="fill:url(#SVGID_1_);" d="M50.95,93c-3.75,0-8.448-1.685-12.278-2.63c-3.83-0.945-5.575-2.999-9.052-4.941
	c-3.476-1.942-6.669-4.395-9.36-7.387c-2.69-2.991-5.38-5.46-6.851-9.553c0.237,0.017,1.756-0.706,1.991-0.689
	c0.234,0.017,0.83,0.435,1.055,0.448c0.226,0.013,0.519-0.008,0.73,0c0.211,0.008,0.248-0.146,0.438-0.146
	c0.285,0-0.487-0.538-0.207-0.546c0.28-0.008,0.556-0.018,0.823-0.031c0.267-0.013,0.526-0.029,0.77-0.045
	c0.245-0.016,0.477-0.034,0.69-0.051c1.068-0.14,0.533-1.233,1.467-1.624s1.795-0.877,2.566-1.393
	c0.771-0.516,1.453-1.063,2.033-1.577c0.579-0.514,1.053-0.995,1.409-1.38c0.475,0.437,1.833,2.054,2.619,2.656
	c0.786,0.602,1.998,1.954,3.006,2.54c1.008,0.586,2.813,1.499,3.955,1.89c1.142,0.392,2.367-0.066,3.554-0.049
	c1.187,0,2.14-0.875,3.225-1.252c1.086-0.376,2.107-0.896,3.032-1.474s1.013-1.447,1.719-2.051c0.706-0.603,1.287-1.176,1.715-1.631
	c0.427,0.455,1.746,1.263,2.449,1.867s1.534,1.238,2.471,1.815c0.937,0.577,1.487,1.751,2.617,2.127
	c1.131,0.376,2.84,1.066,4.122,1.066c0,0,0.016,0.73,0.048-0.381c0.001-0.019,0.046,0,0.075,0c0.029,0,0.063,0,0.093,0
	c0.031,0,0.044,0.381,0.069,0.381c1.305-0.035,2.517-1.399,3.622-1.788c1.105-0.388,2.105-0.911,2.989-1.484
	s1.653-1.196,2.295-1.785c0.642-0.589,1.158-1.144,1.538-1.581c0.451,0.42,1.068,0.962,1.801,1.543s1.582,1.199,2.495,1.772
	c0.913,0.573,1.893,1.1,2.887,1.497c0.994,0.397,3.087,1.387,3.182,1.387c0.641,0,0.031,0.511,0.728,0.442
	c0.697-0.069,0.757-0.394,1.458-0.511s1.389-0.256,2.038-0.404c0.649-0.148,1.261-0.305,1.807-0.463
	c-1.59,4.531-10.356,16.145-13.975,18.083c-3.619,1.938-7.487,3.308-11.348,4.195C59.602,90.748,54.534,93,50.95,93z"/>
<path style="fill:#440C09;" d="M50,1.9c-6.625,0-12.944,1.35-18.695,3.789s-10.936,5.967-15.292,10.324S8.129,25.554,5.69,31.305
	S1.9,43.375,1.9,50s1.35,12.944,3.789,18.695s5.967,10.936,10.324,15.293s9.541,7.884,15.292,10.323S43.375,98.1,50,98.1
	s12.944-1.344,18.695-3.775c5.752-2.431,10.936-5.95,15.293-10.3s7.884-9.531,10.323-15.287S98.1,56.65,98.1,50
	s-1.35-12.981-3.789-18.737s-5.967-10.938-10.323-15.288s-9.54-7.869-15.292-10.3S56.625,1.9,50,1.9z M50,93
	c-5.95,0-11.612-1.2-16.759-3.372s-9.778-5.316-13.666-9.203s-7.031-8.519-9.203-13.666C8.2,61.613,7,55.95,7,50
	s1.2-11.612,3.372-16.759s5.316-9.778,9.203-13.666s8.519-7.031,13.666-9.203S44.05,7,50,7s11.613,1.206,16.759,3.386
	s9.778,5.333,13.666,9.226s7.031,8.528,9.203,13.67S93,44.075,93,50s-1.2,11.575-3.372,16.717s-5.316,9.776-9.203,13.67
	s-8.519,7.047-13.666,9.227C61.613,91.794,55.95,93,50,93z"/>
<path style="fill:#0022E0;" d="M26.7,62.9c0.625,0.7,1.381,1.506,2.241,2.322c0.859,0.816,1.822,1.641,2.859,2.378
	s2.15,1.387,3.309,1.853c1.159,0.466,2.366,0.747,3.591,0.747c1.2,0,2.356-0.269,3.45-0.717c1.094-0.449,2.125-1.077,3.075-1.796
	c0.95-0.718,1.819-1.528,2.587-2.339S49.25,63.725,49.8,63c0.55,0.725,1.219,1.537,1.994,2.348c0.775,0.811,1.656,1.62,2.631,2.339
	s2.044,1.347,3.194,1.795C58.769,69.931,60,70.2,61.3,70.2c0.025,0,0.05,0,0.075,0s0.05,0,0.075,0s0.05,0,0.075,0s0.05,0,0.075,0
	c1.3-0.05,2.513-0.35,3.633-0.817s2.149-1.101,3.08-1.82s1.766-1.522,2.498-2.327s1.364-1.611,1.889-2.336
	c0.6,0.675,1.312,1.444,2.106,2.222C75.6,65.9,76.475,66.687,77.4,67.4s1.9,1.35,2.894,1.828c0.994,0.478,2.006,0.797,3.006,0.872
	c0.075,0,0.15,0,0.225,0s0.15,0,0.225,0s0.15,0,0.225,0s0.15,0,0.225,0c0.175,0,0.35-0.006,0.523-0.017
	c0.173-0.011,0.345-0.026,0.514-0.045s0.334-0.04,0.495-0.064S86.05,69.925,86.2,69.9c-1.65,2.9-3.663,5.719-6,8.316
	c-2.338,2.597-5,4.972-7.95,6.984s-6.188,3.662-9.675,4.809S55.35,91.8,51.4,91.8c-1.95,0-3.9-0.162-5.836-0.484
	c-1.936-0.322-3.858-0.803-5.752-1.441c-1.893-0.637-3.759-1.431-5.582-2.378S30.625,85.45,28.9,84.2
	c-1.325-0.95-2.606-1.981-3.834-3.083c-1.228-1.102-2.403-2.274-3.516-3.505s-2.163-2.522-3.141-3.861S16.525,71.025,15.7,69.6
	c0.125,0,0.256-0.006,0.392-0.017s0.276-0.026,0.42-0.045s0.291-0.04,0.439-0.064C17.1,69.45,17.25,69.425,17.4,69.4
	c1.025-0.125,2.006-0.444,2.93-0.889c0.923-0.445,1.789-1.017,2.582-1.649c0.794-0.631,1.516-1.322,2.152-2.004
	C25.7,64.175,26.25,63.5,26.7,62.9 M72.5,59.5c0,0-0.269,0.531-0.775,1.331s-1.25,1.869-2.2,2.944
	c-0.95,1.075-2.106,2.156-3.438,2.981C64.756,67.581,63.25,68.15,61.6,68.2c-0.025,0-0.05,0-0.075,0s-0.05,0-0.075,0
	s-0.05,0-0.075,0s-0.05,0-0.075,0c-1.625,0-3.15-0.544-4.523-1.359c-1.374-0.816-2.596-1.903-3.615-2.991
	c-1.018-1.088-1.834-2.175-2.395-2.991C50.206,60.044,49.9,59.5,49.9,59.5s-0.331,0.544-0.92,1.359
	c-0.589,0.816-1.436,1.903-2.468,2.991c-1.031,1.088-2.246,2.175-3.573,2.991C41.613,67.656,40.175,68.2,38.7,68.2l0,0l0,0l0,0l0,0
	c-1.475,0-2.969-0.544-4.38-1.359s-2.739-1.903-3.883-2.991c-1.144-1.088-2.103-2.175-2.776-2.991
	C26.987,60.044,26.6,59.5,26.6,59.5s-0.256,0.45-0.727,1.141s-1.155,1.622-2.011,2.584c-0.856,0.963-1.884,1.956-3.042,2.772
	C19.663,66.812,18.375,67.45,17,67.7c-0.15,0.025-0.294,0.044-0.433,0.058s-0.273,0.024-0.404,0.03
	c-0.132,0.006-0.26,0.009-0.386,0.011S15.525,67.8,15.4,67.8c-0.375,0-0.725-0.025-1.052-0.07c-0.326-0.045-0.629-0.111-0.91-0.193
	c-0.281-0.081-0.541-0.178-0.78-0.285C12.419,67.144,12.2,67.025,12,66.9c1.675,3.7,3.894,7.238,6.55,10.463s5.75,6.137,9.175,8.587
	s7.181,4.438,11.163,5.812S47.075,93.9,51.4,93.9c4.525,0,8.856-0.819,12.906-2.294S72.125,88,75.525,85.375
	s6.431-5.744,9.006-9.194C87.106,72.731,89.225,68.95,90.8,65c-0.15,0.175-0.406,0.456-0.764,0.78s-0.817,0.689-1.373,1.032
	c-0.556,0.344-1.21,0.666-1.955,0.902S85.125,68.1,84.2,68.1c-0.05,0-0.106,0-0.166,0c-0.059,0-0.122,0-0.184,0s-0.125,0-0.184,0
	s-0.116,0-0.166,0c-1.225-0.075-2.525-0.65-3.786-1.47s-2.483-1.886-3.552-2.942c-1.068-1.056-1.984-2.104-2.632-2.886
	S72.5,59.5,72.5,59.5L72.5,59.5L72.5,59.5L72.5,59.5L72.5,59.5z"/>
<path style="fill:#71F8FA;" d="M33.2,86.1l0.05-9.5l0.05-9.5l0.05-9.5l0.05-9.5c0-0.075,0.038-0.575,0.186-1.359
	c0.148-0.784,0.408-1.853,0.851-3.066c0.444-1.212,1.072-2.569,1.958-3.928s2.03-2.722,3.505-3.947
	c0.9-0.75,1.869-1.406,2.903-1.969s2.134-1.031,3.297-1.406s2.388-0.656,3.672-0.844S52.4,31.3,53.8,31.3c0.3,0,0.6,0.006,0.9,0.017
	c0.3,0.011,0.6,0.026,0.9,0.045c0.3,0.019,0.6,0.041,0.9,0.064c0.3,0.024,0.6,0.049,0.9,0.074l0.125,0.025l0.125,0.025l0.125,0.025
	L57.9,31.6l-0.15,1.5l-0.15,1.5l-0.15,1.5l-0.15,1.5l-0.125-0.025L57.05,37.55l-0.125-0.025L56.8,37.5
	c-0.25-0.025-0.5-0.05-0.75-0.073c-0.25-0.024-0.5-0.046-0.75-0.065c-0.25-0.019-0.5-0.034-0.75-0.045
	c-0.25-0.011-0.5-0.017-0.75-0.017c-1.05,0-2.05,0.062-2.999,0.189c-0.948,0.127-1.845,0.317-2.689,0.574
	c-0.843,0.256-1.634,0.578-2.37,0.967s-1.417,0.845-2.042,1.37c-0.925,0.775-1.656,1.638-2.234,2.503
	c-0.578,0.866-1.003,1.734-1.316,2.522s-0.513,1.494-0.641,2.034C39.381,48,39.325,48.375,39.3,48.5l-0.05,9.425L39.2,67.35
	l-0.05,9.425L39.1,86.2l-1.475-0.025L36.15,86.15l-1.475-0.025L33.2,86.1z"/>
<path d="M53.8,31.7c0.275,0,0.556,0.006,0.844,0.017c0.287,0.011,0.581,0.026,0.881,0.045c0.3,0.019,0.606,0.041,0.919,0.064
	c0.312,0.024,0.631,0.049,0.956,0.074l-0.125,1.25L57.15,34.4l-0.125,1.25L56.9,36.9c-0.275-0.025-0.544-0.05-0.808-0.073
	c-0.264-0.024-0.523-0.046-0.779-0.065c-0.257-0.019-0.51-0.034-0.761-0.045S54.05,36.7,53.8,36.7c-1.075,0-2.1,0.069-3.073,0.205
	c-0.973,0.136-1.895,0.339-2.764,0.607c-0.869,0.269-1.685,0.604-2.446,1.002c-0.761,0.398-1.467,0.861-2.117,1.386
	c-0.95,0.8-1.706,1.694-2.308,2.594s-1.049,1.806-1.38,2.631s-0.547,1.569-0.686,2.144s-0.202,0.981-0.227,1.131l-0.05,9.3L38.7,67
	l-0.05,9.3l-0.05,9.3h-1.25H36.1h-1.25H33.6l0.05-9.375l0.05-9.375l0.05-9.375L33.8,48.1c0-0.075,0.038-0.562,0.183-1.326
	s0.399-1.805,0.83-2.986s1.041-2.503,1.898-3.83c0.858-1.327,1.964-2.658,3.389-3.858c0.9-0.725,1.862-1.362,2.886-1.911
	c1.023-0.549,2.108-1.008,3.251-1.377c1.144-0.368,2.347-0.646,3.608-0.832C51.106,31.794,52.425,31.7,53.8,31.7 M53.8,30.7
	L53.8,30.7L53.8,30.7L53.8,30.7L53.8,30.7c-1.45,0-2.838,0.1-4.161,0.297c-1.324,0.197-2.583,0.491-3.777,0.878
	c-1.194,0.388-2.322,0.869-3.382,1.441c-1.061,0.572-2.055,1.234-2.98,1.984c-1.5,1.25-2.662,2.644-3.562,4.036
	s-1.537,2.783-1.987,4.026s-0.712,2.34-0.862,3.145S32.9,47.825,32.9,47.9l0,0l0,0l0,0l0,0l0,0l0,0l0,0l0,0l-0.05,9.375L32.8,66.65
	l-0.05,9.375L32.7,85.4v0.25v0.25v0.25v0.25h0.25h0.25h0.25h0.25h1.25h1.25h1.25h1.25h0.25h0.25h0.25h0.25v-0.25V85.9v-0.25V85.4
	l0.05-9.3l0.05-9.3l0.05-9.3l0.05-9.3c0.025-0.175,0.081-0.569,0.206-1.106s0.319-1.219,0.619-1.969s0.706-1.569,1.256-2.381
	s1.244-1.619,2.119-2.344c0.6-0.5,1.25-0.938,1.952-1.312s1.455-0.688,2.261-0.938s1.666-0.438,2.58-0.563
	c0.914-0.125,1.882-0.188,2.907-0.188c0.225,0,0.456,0.006,0.694,0.017s0.481,0.026,0.731,0.045s0.506,0.041,0.769,0.064
	c0.263,0.024,0.531,0.049,0.806,0.074l0.25,0.025l0.25,0.025l0.25,0.025L57.8,37.7l0.025-0.25l0.025-0.25l0.025-0.25L57.9,36.7
	l0.125-1.25l0.125-1.25l0.125-1.25L58.4,31.7l0.025-0.25l0.025-0.25l0.025-0.25L58.5,30.7l-0.25-0.025L58,30.65l-0.25-0.025
	L57.5,30.6c-0.3,0.05-0.606,0.081-0.916,0.1s-0.622,0.025-0.934,0.025s-0.625-0.006-0.934-0.012C54.406,30.706,54.1,30.7,53.8,30.7
	L53.8,30.7L53.8,30.7L53.8,30.7L53.8,30.7z"/>
<path style="fill:#71F8FA;stroke:#000000;stroke-miterlimit:10;" d="M49.8,20.5c0,0,0.281,0.481,0.711,1.297
	s1.008,1.966,1.601,3.303s1.203,2.863,1.695,4.428C54.3,31.094,54.675,32.7,54.8,34.2s-0.125,3.138-0.57,4.75s-1.086,3.2-1.742,4.6
	s-1.328,2.612-1.836,3.475C50.144,47.888,49.8,48.4,49.8,48.4l8.625-3.5l8.625-3.5l8.625-3.5l8.625-3.5l-8.625-3.475L67.05,27.45
	l-8.625-3.475L49.8,20.5z"/>
</svg>
