<?xml version="1.0" encoding="iso-8859-1"?>
<!-- Generator: Adobe Illustrator 25.3.1, SVG Export Plug-In . SVG Version: 6.00 Build 0)  -->
<svg version="1.1" id="Layer_1" xmlns="http://www.w3.org/2000/svg" xmlns:xlink="http://www.w3.org/1999/xlink" x="0px" y="0px"
	 viewBox="0 0 100 100" style="enable-background:new 0 0 100 100;" xml:space="preserve">
<path style="fill:#A4251A;" d="M50,2.4c6.572,0,12.833,1.332,18.528,3.741c5.695,2.409,10.823,5.894,15.13,10.201
	s7.793,9.435,10.201,15.13C96.268,37.167,97.6,43.428,97.6,50s-1.332,12.833-3.741,18.528c-2.409,5.695-5.894,10.823-10.201,15.13
	s-9.436,7.793-15.13,10.201C62.833,96.268,56.572,97.6,50,97.6s-12.833-1.332-18.528-3.741c-5.695-2.409-10.823-5.894-15.13-10.201
	s-7.792-9.436-10.201-15.13S2.4,56.572,2.4,50s1.332-12.833,3.741-18.528s5.894-10.823,10.201-15.13s9.435-7.792,15.13-10.201
	S43.428,2.4,50,2.4z"/>
<path style="fill:#440C09;" d="M50,1.9c-6.625,0-12.944,1.35-18.695,3.789s-10.936,5.967-15.292,10.324S8.129,25.554,5.69,31.305
	S1.9,43.375,1.9,50s1.35,12.944,3.789,18.695s5.967,10.936,10.324,15.293s9.541,7.884,15.292,10.323S43.375,98.1,50,98.1
	s12.944-1.344,18.695-3.775c5.752-2.431,10.936-5.95,15.293-10.3s7.884-9.531,10.323-15.287S98.1,56.65,98.1,50
	s-1.35-12.981-3.789-18.737s-5.967-10.938-10.323-15.288s-9.54-7.869-15.292-10.3C62.944,3.244,56.625,1.9,50,1.9z M50,93
	c-5.95,0-11.612-1.2-16.759-3.372s-9.778-5.316-13.666-9.203s-7.031-8.519-9.203-13.666C8.2,61.613,7,55.95,7,50
	s1.2-11.612,3.372-16.759s5.316-9.778,9.203-13.666s8.519-7.031,13.666-9.203S44.05,7,50,7s11.613,1.206,16.759,3.386
	s9.778,5.333,13.666,9.226s7.031,8.528,9.203,13.67S93,44.075,93,50s-1.2,11.575-3.372,16.717s-5.316,9.776-9.203,13.67
	s-8.519,7.047-13.666,9.227C61.613,91.794,55.95,93,50,93z"/>
<path style="fill:#FFFFFF;" d="M27.6,74.6l-1.8-8.875L24,56.85l-1.8-8.875L20.4,39.1v8.875v8.875v8.875V74.6h-1.65H17.1h-1.65H13.8
	V63.55V52.5V41.45V30.4h2.7h2.7h2.7h2.7l1.825,9.05l1.825,9.05l1.825,9.05L31.9,66.6v-9.05V48.5v-9.05V30.4h1.6h1.6h1.6h1.6v11.075
	V52.55v11.075V74.7h-2.675H32.95h-2.675H27.6v-0.025V74.65v-0.025V74.6z"/>
<path d="M38.9,75.1h-2.925H33.05h-2.925H27.2l-1.55-7.75L24.1,59.6l-1.55-7.75L21,44.1v7.75v7.75v7.75v7.75h-1.9h-1.9h-1.9h-1.9
	V63.8V52.5V41.2V29.9h2.925h2.925h2.925H25.1l1.575,7.925l1.575,7.925l1.575,7.925L31.4,61.6v-7.925V45.75v-7.925V29.9h1.85h1.85
	h1.85h1.85v11.3v11.3v11.3v11.3h0.025h0.025h0.025H38.9z M28,74.1h2.475h2.475h2.475H37.9V63.3V52.5V41.7V30.9h-1.35H35.2h-1.35
	H32.5v8.925v8.925v8.925V66.6l-0.25,0.025L32,66.65l-0.25,0.025L31.5,66.7l-1.8-8.95l-1.8-8.95l-1.8-8.95l-1.8-8.95h-2.475H19.35
	h-2.475H14.4v10.825V52.55v10.825V74.2h1.4h1.4h1.4H20v-8.75V56.7v-8.75V39.2l0.25-0.025l0.25-0.025l0.25-0.025L21,39.1l1.75,8.75
	l1.75,8.75l1.75,8.75L28,74.1z"/>
<path style="fill:#FFFFFF;" d="M44.1,74.6v-1.675V71.25v-1.675V67.9h0.95H46h0.95h0.95v-7.7v-7.7v-7.7v-7.7h-0.95H46h-0.95H44.1
	v-1.675V33.75v-1.675V30.4h3.75h3.75h3.75h3.75v1.675v1.675v1.675V37.1h-0.95H57.2h-0.95H55.3v7.725v7.725v7.725V68h0.95h0.95h0.95
	h0.95v1.675v1.675v1.675V74.7h-3.75H51.6h-3.75H44.1v-0.025V74.65v-0.025V74.6z"/>
<path d="M59.6,75.1h-4h-4h-4h-4v-1.925V71.25v-1.925V67.4h0.95h0.95h0.95h0.95v-7.45V52.5v-7.45V37.6h-0.95H45.5h-0.95H43.6v-1.925
	V33.75v-1.925V29.9h4h4h4h4v1.925v1.925v1.925V37.6h-0.95H57.7h-0.95H55.8v7.475v7.475v7.475V67.5h0.95h0.95h0.95h0.95v1.9v1.9v1.9
	V75.1z M44.6,74.1h3.5h3.5h3.5h3.5v-1.425V71.25v-1.425V68.4h-0.95H56.7h-0.95H54.8v-7.95V52.5v-7.95V36.6h0.95h0.95h0.95h0.95
	v-1.425V33.75v-1.425V30.9h-3.5h-3.5h-3.5h-3.5v1.425v1.425v1.425V36.6h0.95h0.95h0.95h0.95v7.975v7.975v7.975V68.5h-0.95H46.5
	h-0.95H44.6v1.4v1.4v1.4V74.1z"/>
<path style="fill:#FFFFFF;" d="M81.3,74.6h-2.85H75.6h-2.85H69.9L68,63.525L66.1,52.45l-1.9-11.075L62.3,30.3h1.95h1.95h1.95h1.95
	l1.425,9.525l1.425,9.525l1.425,9.525L75.8,68.4l1.475-9.525l1.475-9.525l1.475-9.525L81.7,30.3h1.825h1.825h1.825H89l-1.925,11.075
	L85.15,52.45l-1.925,11.075L81.3,74.6z"/>
<path d="M81.8,75.1h-3.075H75.65h-3.075H69.5l-1.95-11.325L65.6,52.45l-1.95-11.325L61.7,29.8h2.2h2.2h2.2h2.2l1.325,8.8l1.325,8.8
	l1.325,8.8L75.8,65l1.375-8.8l1.375-8.8l1.375-8.8l1.375-8.8h2.075h2.075h2.075H89.6l-1.95,11.325L85.7,52.45l-1.95,11.325
	L81.8,75.1z M70.3,74.1h2.65h2.65h2.65h2.65l1.875-10.825L84.65,52.45l1.875-10.825L88.4,30.8h-1.55H85.3h-1.55H82.2l-1.45,9.4
	l-1.45,9.4L77.85,59l-1.45,9.4h-0.25H75.9h-0.25H75.4L74,59l-1.4-9.4l-1.4-9.4l-1.4-9.4h-1.7h-1.7h-1.7H63l1.825,10.825L66.65,52.45
	l1.825,10.825L70.3,74.1z"/>
</svg>
