<?xml version="1.0" encoding="iso-8859-1"?>
<!-- Generator: Adobe Illustrator 25.3.1, SVG Export Plug-In . SVG Version: 6.00 Build 0)  -->
<svg version="1.1" id="Layer_1" xmlns="http://www.w3.org/2000/svg" xmlns:xlink="http://www.w3.org/1999/xlink" x="0px" y="0px"
	 viewBox="0 0 100 100" style="enable-background:new 0 0 100 100;" xml:space="preserve">
<path style="fill:#A4251A;" d="M50,2.4c6.572,0,12.833,1.332,18.528,3.741c5.695,2.409,10.823,5.894,15.13,10.201
	s7.793,9.435,10.201,15.13C96.268,37.167,97.6,43.428,97.6,50s-1.332,12.833-3.741,18.528c-2.409,5.695-5.894,10.823-10.201,15.13
	s-9.436,7.793-15.13,10.201C62.833,96.268,56.572,97.6,50,97.6s-12.833-1.332-18.528-3.741c-5.695-2.409-10.823-5.894-15.13-10.201
	s-7.792-9.436-10.201-15.13S2.4,56.572,2.4,50s1.332-12.833,3.741-18.528s5.894-10.823,10.201-15.13s9.435-7.792,15.13-10.201
	S43.428,2.4,50,2.4z"/>
<path style="fill:#440C09;" d="M50,1.9c-6.625,0-12.944,1.35-18.695,3.789s-10.936,5.967-15.292,10.324S8.129,25.554,5.69,31.305
	S1.9,43.375,1.9,50s1.35,12.944,3.789,18.695s5.967,10.936,10.324,15.293s9.541,7.884,15.292,10.323S43.375,98.1,50,98.1
	s12.944-1.344,18.695-3.775c5.752-2.431,10.936-5.95,15.293-10.3s7.884-9.531,10.323-15.287S98.1,56.65,98.1,50
	s-1.35-12.981-3.789-18.737s-5.967-10.938-10.323-15.288s-9.54-7.869-15.292-10.3C62.944,3.244,56.625,1.9,50,1.9z M50,93
	c-5.95,0-11.612-1.2-16.759-3.372s-9.778-5.316-13.666-9.203s-7.031-8.519-9.203-13.666C8.2,61.613,7,55.95,7,50
	s1.2-11.612,3.372-16.759s5.316-9.778,9.203-13.666s8.519-7.031,13.666-9.203S44.05,7,50,7s11.613,1.206,16.759,3.386
	s9.778,5.333,13.666,9.226s7.031,8.528,9.203,13.67S93,44.075,93,50s-1.2,11.575-3.372,16.717s-5.316,9.776-9.203,13.67
	s-8.519,7.047-13.666,9.227C61.613,91.794,55.95,93,50,93z"/>
<path style="fill:#FFFFFF;" d="M57.6,30.9l2.45-1.65l2.45-1.65l2.45-1.65l2.45-1.65l0.85,1.3l0.85,1.3l0.85,1.3l0.85,1.3l2.25-3.825
	l2.25-3.825l2.25-3.825L79.8,14.2l-4.5,0.45l-4.5,0.45l-4.5,0.45L61.8,16l0.825,1.25l0.825,1.25l0.825,1.25L65.1,21l-3.15,2.225
	L58.8,25.45l-3.15,2.225L52.5,29.9c-0.375-0.05-0.756-0.094-1.141-0.131S50.588,29.7,50.2,29.675s-0.775-0.044-1.159-0.056
	C48.656,29.606,48.275,29.6,47.9,29.6c-4.675-0.025-9.131,0.931-13.186,2.68s-7.708,4.289-10.777,7.433s-5.553,6.891-7.27,11.052
	S14,59.5,14,64.3c0,0.175,0,0.669,0,1.311s0,1.433,0,2.201c0,0.769,0,1.516,0,2.071s0,0.917,0,0.917h16.95H47.9h16.95H81.8
	c0,0,0-0.363,0-0.917s0-1.302,0-2.071c0-0.769,0-1.559,0-2.201s0-1.136,0-1.311c0-3.95-0.637-7.744-1.812-11.28
	s-2.887-6.814-5.037-9.733c-2.15-2.919-4.738-5.478-7.663-7.576C64.363,33.612,61.1,31.975,57.6,30.9z M78.1,67.2H63H47.9H32.8H17.7
	c0-0.175-0.006-0.406-0.016-0.664s-0.022-0.542-0.034-0.824c-0.013-0.281-0.025-0.559-0.034-0.804
	C17.606,64.662,17.6,64.45,17.6,64.3c0-4.3,0.844-8.394,2.37-12.116c1.526-3.722,3.736-7.072,6.467-9.884s5.984-5.088,9.598-6.659
	C39.65,34.069,43.625,33.2,47.8,33.2s8.15,0.869,11.764,2.441c3.614,1.572,6.867,3.847,9.599,6.659
	c2.731,2.812,4.94,6.162,6.467,9.884C77.156,55.906,78,60,78,64.3c0.05,0.175,0.081,0.406,0.1,0.664
	c0.019,0.258,0.025,0.542,0.025,0.824s-0.006,0.56-0.012,0.805C78.106,66.838,78.1,67.05,78.1,67.2z"/>
<path d="M82.3,71.3H65.1H47.9H30.7H13.5v-1.75V67.8v-1.75V64.3c0-4.875,0.969-9.519,2.717-13.742s4.276-8.027,7.395-11.221
	s6.828-5.778,10.939-7.564C38.662,29.987,43.175,29,47.9,29c0.375,0,0.75,0.006,1.125,0.019c0.375,0.013,0.75,0.031,1.125,0.056
	c0.375,0.025,0.75,0.056,1.125,0.094s0.75,0.081,1.125,0.131l3-2.125l3-2.125l3-2.125l3-2.125l-0.875-1.325L62.65,18.15
	l-0.875-1.325L60.9,15.5l4.95-0.475l4.95-0.475l4.95-0.475L80.7,13.6l-2.475,4.2L75.75,22l-2.475,4.2L70.8,30.4l-0.9-1.35L69,27.7
	l-0.9-1.35L67.2,25l-2.125,1.45L62.95,27.9l-2.125,1.45L58.7,30.8c3.475,1.175,6.688,2.912,9.551,5.094s5.38,4.806,7.461,7.756
	c2.082,2.95,3.729,6.225,4.855,9.706S82.3,60.525,82.3,64.3c0,0,0,0.438,0,1.094s0,1.531,0,2.406s0,1.75,0,2.406
	C82.3,70.863,82.3,71.3,82.3,71.3z M14.5,70.3h16.7h16.7h16.7h16.7v-1.5v-1.5v-1.5v-1.5c0-3.775-0.613-7.45-1.751-10.906
	c-1.139-3.456-2.805-6.694-4.911-9.594s-4.653-5.463-7.555-7.569c-2.902-2.106-6.158-3.756-9.683-4.831l-0.25-0.075L56.9,31.25
	l-0.25-0.075L56.4,31.1l2.75-1.875l2.75-1.875l2.75-1.875L67.4,23.6l0.825,1.225l0.825,1.225l0.825,1.225L70.7,28.5l2.025-3.45
	l2.025-3.45l2.025-3.45L78.8,14.7l-4.05,0.4l-4.05,0.4l-4.05,0.4l-4.05,0.4l0.775,1.175l0.775,1.175l0.775,1.175L65.7,21
	l-3.275,2.325L59.15,25.65l-3.275,2.325L52.6,30.3h-0.05H52.5h-0.05H52.4c-0.375-0.05-0.756-0.094-1.141-0.131
	S50.488,30.1,50.1,30.075s-0.775-0.044-1.159-0.056C48.556,30.006,48.175,30,47.8,30c-4.6,0-8.987,0.962-12.981,2.701
	c-3.994,1.739-7.594,4.255-10.619,7.361s-5.475,6.803-7.169,10.905C15.337,55.069,14.4,59.575,14.4,64.3v1.5v1.5v1.5v1.5h0.025
	h0.025h0.025H14.5z M78.6,67.7H63.275H47.95H32.625H17.3v-0.125V67.45v-0.125V67.2c0-0.175-0.006-0.406-0.016-0.666
	s-0.022-0.547-0.034-0.834s-0.025-0.575-0.034-0.834S17.2,64.375,17.2,64.2c0-4.35,0.862-8.5,2.42-12.278
	c1.558-3.778,3.811-7.184,6.593-10.047s6.091-5.181,9.761-6.784c3.67-1.603,7.701-2.491,11.926-2.491s8.256,0.888,11.927,2.491
	c3.67,1.603,6.98,3.922,9.761,6.784c2.781,2.862,5.034,6.269,6.592,10.047C77.738,55.7,78.6,59.85,78.6,64.2
	c0,0.15,0,0.369-0.002,0.624c-0.001,0.255-0.005,0.545-0.01,0.839c-0.007,0.294-0.016,0.59-0.03,0.857
	c-0.014,0.267-0.033,0.505-0.058,0.68l0.025,0.125l0.025,0.125l0.025,0.125L78.6,67.7z M18.2,66.7h14.85H47.9h14.85H77.6
	c0-0.175,0-0.381,0-0.6s0-0.45,0-0.675s0-0.444,0-0.637s0-0.363,0-0.488c0-4.225-0.831-8.25-2.334-11.911s-3.678-6.958-6.366-9.727
	c-2.688-2.769-5.888-5.009-9.441-6.557C55.906,34.556,52,33.7,47.9,33.7s-8.006,0.862-11.559,2.419
	c-3.553,1.556-6.753,3.806-9.441,6.581s-4.862,6.075-6.366,9.731S18.2,60.1,18.2,64.3c0,0.15,0,0.331,0,0.53
	c0,0.198,0,0.414,0,0.632s0,0.44,0,0.652S18.2,66.525,18.2,66.7z"/>
<path style="fill:#FFFFFF;" d="M48.6,36.9c-1.925,0-3.756,0.4-5.42,1.125c-1.664,0.725-3.161,1.775-4.418,3.075
	s-2.272,2.85-2.973,4.575S34.7,49.3,34.7,51.3c0,1.975,0.388,3.862,1.089,5.583s1.717,3.274,2.973,4.58s2.753,2.366,4.417,3.098
	c1.664,0.733,3.496,1.139,5.421,1.139s3.756-0.4,5.42-1.125c1.664-0.725,3.161-1.775,4.418-3.075s2.272-2.85,2.973-4.575
	C62.113,55.2,62.5,53.3,62.5,51.3c0-1.975-0.388-3.862-1.089-5.583s-1.717-3.274-2.973-4.58s-2.753-2.366-4.417-3.098
	C52.356,37.306,50.525,36.9,48.6,36.9z M50.6,50.9l1.675-1.675l1.675-1.675l1.675-1.675L57.3,44.2
	c0.375,0.5,0.713,1.025,1.008,1.574c0.295,0.549,0.549,1.12,0.755,1.715s0.366,1.209,0.473,1.845
	c0.108,0.636,0.164,1.292,0.164,1.967c0,0.625-0.05,1.237-0.145,1.834c-0.095,0.597-0.236,1.178-0.417,1.741
	s-0.403,1.106-0.661,1.628C58.219,57.025,57.925,57.525,57.6,58l-1.75-1.775L54.1,54.45l-1.75-1.775L50.6,50.9z M55.4,42.2l-1.7,1.7
	L52,45.6l-1.7,1.7L48.6,49l-1.7-1.7l-1.7-1.7l-1.7-1.7l-1.7-1.7c0.475-0.375,0.975-0.713,1.499-1.008
	c0.523-0.295,1.07-0.549,1.639-0.755s1.16-0.366,1.77-0.473S47.95,39.8,48.6,39.8s1.281,0.056,1.892,0.164s1.201,0.267,1.77,0.474
	s1.115,0.459,1.639,0.755C54.425,41.488,54.925,41.825,55.4,42.2z M39.9,44.2l1.675,1.675l1.675,1.675l1.675,1.675L46.6,50.9
	l-1.75,1.775L43.1,54.45l-1.75,1.775L39.6,58c-0.325-0.475-0.619-0.975-0.876-1.497c-0.258-0.522-0.479-1.066-0.66-1.628
	s-0.322-1.144-0.417-1.741C37.55,52.537,37.5,51.925,37.5,51.3c0-0.675,0.056-1.337,0.164-1.981
	c0.108-0.644,0.267-1.269,0.474-1.869c0.206-0.6,0.459-1.175,0.754-1.719S39.525,44.675,39.9,44.2z M41.4,60.1l1.8-1.8l1.8-1.8
	l1.8-1.8l1.8-1.8l1.8,1.8l1.8,1.8l1.8,1.8l1.8,1.8c-0.475,0.425-0.994,0.812-1.547,1.155s-1.141,0.639-1.753,0.882
	c-0.612,0.244-1.25,0.435-1.903,0.564c-0.653,0.13-1.322,0.199-1.997,0.199c-0.675-0.025-1.337-0.106-1.983-0.241
	c-0.645-0.134-1.273-0.322-1.879-0.559c-0.606-0.237-1.191-0.525-1.749-0.859C42.431,60.906,41.9,60.525,41.4,60.1z"/>
<path d="M48.6,66.2c-1.975,0-3.862-0.419-5.583-1.175c-1.72-0.756-3.274-1.85-4.58-3.2c-1.306-1.35-2.365-2.956-3.098-4.737
	S34.2,53.35,34.2,51.3s0.4-4.006,1.125-5.788c0.725-1.781,1.775-3.387,3.075-4.737s2.85-2.444,4.575-3.2
	C44.7,36.819,46.6,36.4,48.6,36.4s3.9,0.419,5.625,1.175c1.725,0.756,3.275,1.85,4.575,3.2s2.35,2.956,3.075,4.737S63,49.25,63,51.3
	s-0.4,4.006-1.125,5.787S60.1,60.475,58.8,61.825s-2.85,2.444-4.575,3.2C52.5,65.781,50.6,66.2,48.6,66.2z M48.6,37.4
	c-1.85,0-3.612,0.388-5.216,1.089c-1.603,0.701-3.047,1.717-4.259,2.973s-2.194,2.753-2.872,4.417
	C35.575,47.544,35.2,49.375,35.2,51.3c0,1.9,0.375,3.719,1.053,5.378c0.678,1.659,1.659,3.159,2.872,4.422
	c1.213,1.263,2.656,2.287,4.259,2.997C44.987,64.806,46.75,65.2,48.6,65.2s3.612-0.387,5.216-1.089
	c1.603-0.702,3.047-1.717,4.259-2.974s2.194-2.753,2.872-4.417C61.625,55.056,62,53.225,62,51.3c0-1.9-0.375-3.719-1.053-5.378
	c-0.678-1.659-1.659-3.159-2.872-4.422c-1.212-1.263-2.656-2.287-4.259-2.997C52.213,37.794,50.45,37.4,48.6,37.4z M48.6,63.3
	c-0.7,0-1.388-0.062-2.058-0.186c-0.67-0.123-1.324-0.308-1.955-0.551c-0.631-0.244-1.24-0.547-1.823-0.908s-1.139-0.78-1.664-1.255
	L41,60.3l-0.1-0.1l-0.1-0.1L40.7,60l1.975-1.975l1.975-1.975l1.975-1.975L48.6,52.1l1.975,1.975l1.975,1.975l1.975,1.975L56.5,60
	l-0.1,0.1l-0.1,0.1l-0.1,0.1l-0.1,0.1c-0.5,0.475-1.044,0.894-1.622,1.255s-1.191,0.664-1.828,0.908
	c-0.638,0.243-1.3,0.428-1.978,0.551S49.3,63.3,48.6,63.3z M42.2,60c0.45,0.375,0.931,0.706,1.438,0.992
	c0.506,0.286,1.038,0.527,1.588,0.721c0.55,0.194,1.119,0.34,1.7,0.439C47.506,62.25,48.1,62.3,48.7,62.3s1.188-0.05,1.761-0.148
	c0.574-0.098,1.133-0.245,1.677-0.439c0.543-0.194,1.071-0.435,1.582-0.721c0.511-0.286,1.005-0.617,1.48-0.992l-1.625-1.625
	L51.95,56.75l-1.625-1.625L48.7,53.5l-1.625,1.625L45.45,56.75l-1.625,1.625L42.2,60z M57.8,58.8l-1.975-1.975L53.85,54.85
	l-1.975-1.975L49.9,50.9l1.875-1.875l1.875-1.875l1.875-1.875L57.4,43.4l0.075,0.125l0.075,0.125l0.075,0.125L57.7,43.9
	c0.4,0.525,0.756,1.081,1.066,1.662s0.572,1.188,0.784,1.812s0.375,1.269,0.484,1.925s0.166,1.325,0.166,2
	c0,0.625-0.044,1.244-0.133,1.853c-0.089,0.609-0.223,1.209-0.404,1.797c-0.182,0.587-0.41,1.162-0.686,1.722
	C58.7,57.231,58.375,57.775,58,58.3l-0.05,0.125L57.9,58.55l-0.05,0.125L57.8,58.8z M51.3,50.9l1.575,1.575l1.575,1.575l1.575,1.575
	L57.6,57.2c0.275-0.45,0.519-0.912,0.73-1.386c0.211-0.473,0.389-0.958,0.533-1.451c0.143-0.494,0.253-0.997,0.326-1.508
	c0.073-0.511,0.111-1.03,0.111-1.555c0-0.575-0.044-1.144-0.13-1.703s-0.214-1.109-0.383-1.647s-0.379-1.062-0.627-1.572
	s-0.536-1.003-0.86-1.478l-1.5,1.5l-1.5,1.5l-1.5,1.5L51.3,50.9z M39.5,58.8l-0.075-0.125L39.35,58.55l-0.075-0.125L39.2,58.3
	c-0.35-0.525-0.663-1.069-0.934-1.628s-0.503-1.134-0.691-1.722s-0.331-1.188-0.428-1.797C37.05,52.544,37,51.925,37,51.3
	c0-0.675,0.056-1.344,0.166-2s0.272-1.3,0.484-1.925s0.475-1.231,0.784-1.812S39.1,44.425,39.5,43.9l0.075-0.125l0.075-0.125
	l0.075-0.125L39.8,43.4l1.875,1.875l1.875,1.875l1.875,1.875L47.3,50.9l-1.95,1.975L43.4,54.85l-1.95,1.975L39.5,58.8z M40,44.9
	c-0.325,0.475-0.613,0.969-0.861,1.478c-0.248,0.509-0.458,1.034-0.626,1.572c-0.169,0.538-0.297,1.088-0.383,1.647
	C38.044,50.156,38,50.725,38,51.3c0,0.525,0.037,1.044,0.111,1.555s0.183,1.014,0.327,1.507c0.143,0.494,0.321,0.979,0.532,1.452
	s0.455,0.936,0.73,1.386l1.575-1.575l1.575-1.575l1.575-1.575L46,50.9l-1.5-1.5L43,47.9l-1.5-1.5L40,44.9z M48.6,49.6l-1.875-1.875
	L44.85,45.85l-1.875-1.875L41.1,42.1l0.1-0.075l0.1-0.075l0.1-0.075l0.1-0.075c0.525-0.4,1.069-0.756,1.63-1.066
	s1.139-0.572,1.732-0.784s1.203-0.375,1.827-0.484C47.312,39.356,47.95,39.3,48.6,39.3s1.287,0.056,1.911,0.166
	s1.233,0.272,1.826,0.484s1.172,0.475,1.733,0.784c0.561,0.309,1.105,0.666,1.63,1.066l0.1,0.075l0.1,0.075l0.1,0.075l0.1,0.075
	l-1.875,1.875L52.35,45.85l-1.875,1.875L48.6,49.6z M42.6,42.2l1.5,1.5l1.5,1.5l1.5,1.5l1.5,1.5l1.5-1.5l1.5-1.5l1.5-1.5l1.5-1.5
	c-0.45-0.325-0.912-0.612-1.388-0.861c-0.475-0.248-0.962-0.458-1.462-0.626s-1.013-0.297-1.537-0.383
	c-0.525-0.086-1.062-0.13-1.613-0.13c-0.525,0.025-1.05,0.081-1.57,0.172c-0.52,0.091-1.036,0.216-1.542,0.378
	s-1.003,0.362-1.486,0.603C43.519,41.594,43.05,41.875,42.6,42.2z"/>
</svg>
