<?xml version="1.0" encoding="utf-8"?>
<!-- Generator: Adobe Illustrator 25.2.0, SVG Export Plug-In . SVG Version: 6.00 Build 0)  -->
<svg version="1.1" id="Layer_1" xmlns="http://www.w3.org/2000/svg" xmlns:xlink="http://www.w3.org/1999/xlink" x="0px" y="0px"
	 viewBox="0 0 100 100" style="enable-background:new 0 0 100 100;" xml:space="preserve">
<g>
	<circle style="fill:#A4251A;" cx="50" cy="50" r="47.6"/>
	<path style="fill:#440C09;" d="M50,1.9C23.5,1.9,1.9,23.5,1.9,50S23.5,98.1,50,98.1c26.5,0,48.1-21.5,48.1-48.1S76.5,1.9,50,1.9z
		 M50,93C26.2,93,7,73.8,7,50S26.2,7,50,7c23.8,0,43,19.3,43,43S73.8,93,50,93z"/>
</g>
<path style="fill:#FFFFFF;" d="M66.3,61.9c5.6,0,9.7-3.4,9.7-3.4V46.2c-5.4-2.2-8.6-2.3-9.8-2.2v-8.6h3.3V31h-3.3v-1.5
	c0-8-5.8-14.7-13.5-16V9.4h-6.1v4.2c-7.4,1.5-12.9,8.1-12.9,15.9V31h-3v4.3h3V44c-1.2-0.1-4.4,0-9.7,2.2v12.3c0,0,4.1,3.4,9.7,3.4
	v22.8c-1.5,0.5-2.7,2-2.7,3.7v0.7h38v-1.2c0-1.7-1.2-3.1-2.8-3.4V61.7L66.3,61.9z"/>
</svg>
