<?xml version="1.0" encoding="iso-8859-1"?>
<!-- Generator: Adobe Illustrator 25.3.1, SVG Export Plug-In . SVG Version: 6.00 Build 0)  -->
<svg version="1.1" id="Layer_1" xmlns="http://www.w3.org/2000/svg" xmlns:xlink="http://www.w3.org/1999/xlink" x="0px" y="0px"
	 viewBox="0 0 100 100" style="enable-background:new 0 0 100 100;" xml:space="preserve">
<path style="fill:#A4251A;" d="M50,2.4c6.572,0,12.833,1.332,18.528,3.741c5.695,2.409,10.823,5.894,15.13,10.201
	s7.793,9.435,10.201,15.13C96.268,37.167,97.6,43.428,97.6,50s-1.332,12.833-3.741,18.528c-2.409,5.695-5.894,10.823-10.201,15.13
	s-9.436,7.793-15.13,10.201C62.833,96.268,56.572,97.6,50,97.6s-12.833-1.332-18.528-3.741c-5.695-2.409-10.823-5.894-15.13-10.201
	s-7.792-9.436-10.201-15.13S2.4,56.572,2.4,50s1.332-12.833,3.741-18.528s5.894-10.823,10.201-15.13s9.435-7.792,15.13-10.201
	S43.428,2.4,50,2.4z"/>
<path style="fill:#440C09;" d="M50,1.9c-6.625,0-12.944,1.35-18.695,3.789s-10.936,5.967-15.292,10.324S8.129,25.554,5.69,31.305
	S1.9,43.375,1.9,50s1.35,12.944,3.789,18.695s5.967,10.936,10.324,15.293s9.541,7.884,15.292,10.323S43.375,98.1,50,98.1
	s12.944-1.344,18.695-3.775c5.752-2.431,10.936-5.95,15.293-10.3s7.884-9.531,10.323-15.287S98.1,56.65,98.1,50
	s-1.35-12.981-3.789-18.737s-5.967-10.938-10.323-15.288s-9.54-7.869-15.292-10.3C62.944,3.244,56.625,1.9,50,1.9z M50,93
	c-5.95,0-11.612-1.2-16.759-3.372s-9.778-5.316-13.666-9.203s-7.031-8.519-9.203-13.666C8.2,61.613,7,55.95,7,50
	s1.2-11.612,3.372-16.759s5.316-9.778,9.203-13.666s8.519-7.031,13.666-9.203S44.05,7,50,7s11.613,1.206,16.759,3.386
	s9.778,5.333,13.666,9.226s7.031,8.528,9.203,13.67S93,44.075,93,50s-1.2,11.575-3.372,16.717s-5.316,9.776-9.203,13.67
	s-8.519,7.047-13.666,9.227C61.613,91.794,55.95,93,50,93z"/>
<path style="fill:#FFFFFF;" d="M45.5,34h-4.275H36.95h-4.275H28.4v3.225v3.225v3.225V46.9h3.925h3.925h3.925H44.1v2.4v2.4v2.4v2.4
	h-3.925H36.25h-3.925H28.4v5.1v5.1v5.1v5.1h-2.725H22.95h-2.725H17.5V63.775V50.65V37.525V24.4h7.025h7.025h7.025H45.6v2.4v2.4v2.4
	V34h-0.025H45.55h-0.025H45.5z"/>
<path style="fill:#FFFFFF;" d="M64.5,58.8v4.525v4.525v4.525V76.9h-2.75H59h-2.75H53.5V63.775V50.65V37.525V24.4h4.275h4.275h4.275
	H70.6c3.075,0,5.763,0.35,8.064,1.049s4.217,1.746,5.748,3.139s2.678,3.135,3.442,5.22C88.618,35.894,89,38.325,89,41.1
	c0,1.325-0.113,2.581-0.336,3.772s-0.558,2.316-1.002,3.378s-0.997,2.062-1.658,3.003s-1.43,1.822-2.305,2.647
	s-1.825,1.544-2.85,2.158s-2.125,1.124-3.3,1.53s-2.425,0.71-3.75,0.911c-1.325,0.202-2.725,0.302-4.2,0.302h-1.275h-1.275h-1.274
	H64.5V58.8L64.5,58.8z M64.5,33.5v4.1v4.1v4.1v4.1h1.075h1.075h1.075H68.8c1.45,0,2.719-0.175,3.806-0.523
	c1.088-0.349,1.994-0.871,2.719-1.565c0.725-0.694,1.269-1.559,1.631-2.595c0.363-1.036,0.544-2.242,0.544-3.617
	c0-1.35-0.181-2.531-0.544-3.544c-0.363-1.013-0.906-1.856-1.631-2.531s-1.631-1.181-2.719-1.519
	C71.519,33.669,70.25,33.5,68.8,33.5h-1.075H66.65h-1.075H64.5z"/>
</svg>
