<?xml version="1.0" encoding="iso-8859-1"?>
<!-- Generator: Adobe Illustrator 25.3.1, SVG Export Plug-In . SVG Version: 6.00 Build 0)  -->
<svg version="1.1" id="Layer_1" xmlns="http://www.w3.org/2000/svg" xmlns:xlink="http://www.w3.org/1999/xlink" x="0px" y="0px"
	 viewBox="0 0 100 100" style="enable-background:new 0 0 100 100;" xml:space="preserve">
<path style="fill:#A4251A;" d="M50,2.4c6.572,0,12.833,1.332,18.528,3.741c5.695,2.409,10.823,5.894,15.13,10.201
	s7.793,9.435,10.201,15.13C96.268,37.167,97.6,43.428,97.6,50s-1.332,12.833-3.741,18.528c-2.409,5.695-5.894,10.823-10.201,15.13
	s-9.436,7.793-15.13,10.201C62.833,96.268,56.572,97.6,50,97.6s-12.833-1.332-18.528-3.741c-5.695-2.409-10.823-5.894-15.13-10.201
	s-7.792-9.436-10.201-15.13S2.4,56.572,2.4,50s1.332-12.833,3.741-18.528s5.894-10.823,10.201-15.13s9.435-7.792,15.13-10.201
	S43.428,2.4,50,2.4z"/>
<path style="fill:#440C09;" d="M50,1.9c-6.625,0-12.944,1.35-18.695,3.789s-10.936,5.967-15.292,10.324S8.129,25.554,5.69,31.305
	S1.9,43.375,1.9,50s1.35,12.944,3.789,18.695s5.967,10.936,10.324,15.293s9.541,7.884,15.292,10.323S43.375,98.1,50,98.1
	s12.944-1.344,18.695-3.775c5.752-2.431,10.936-5.95,15.293-10.3s7.884-9.531,10.323-15.287S98.1,56.65,98.1,50
	s-1.35-12.981-3.789-18.737s-5.967-10.938-10.323-15.288s-9.54-7.869-15.292-10.3C62.944,3.244,56.625,1.9,50,1.9z M50,93
	c-5.95,0-11.612-1.2-16.759-3.372s-9.778-5.316-13.666-9.203s-7.031-8.519-9.203-13.666C8.2,61.613,7,55.95,7,50
	s1.2-11.612,3.372-16.759s5.316-9.778,9.203-13.666s8.519-7.031,13.666-9.203S44.05,7,50,7s11.613,1.206,16.759,3.386
	s9.778,5.333,13.666,9.226s7.031,8.528,9.203,13.67S93,44.075,93,50s-1.2,11.575-3.372,16.717s-5.316,9.776-9.203,13.67
	s-8.519,7.047-13.666,9.227C61.613,91.794,55.95,93,50,93z"/>
<path style="fill:#FFFFFF;" d="M85.7,21.7l-2.925,0.775L79.85,23.25l-2.925,0.775L74,24.8c-0.325,0.075-0.594,0.231-0.8,0.439
	c-0.206,0.208-0.35,0.467-0.425,0.749s-0.081,0.584-0.013,0.88c0.069,0.295,0.213,0.582,0.438,0.832l0.4,0.425L74,28.55l0.4,0.425
	l0.4,0.425l-4.95,4.75L64.9,38.9l-4.95,4.75L55,48.4c-0.7-0.4-1.431-0.763-2.188-1.081C52.056,47,51.275,46.725,50.475,46.5
	c-0.8-0.225-1.619-0.4-2.45-0.519C47.194,45.862,46.35,45.8,45.5,45.8c-2.1,0-4.119,0.337-6.005,0.961
	c-1.886,0.624-3.639,1.533-5.208,2.677s-2.953,2.522-4.101,4.083c-1.148,1.561-2.06,3.304-2.685,5.179h-3.85H19.8h-3.85H12.1v1.575
	v1.575v1.575V65h3.55h3.55h3.55h3.55l0,0l0,0l0,0l0,0c0,2.625,0.538,5.131,1.508,7.414c0.97,2.283,2.374,4.342,4.105,6.074
	c1.731,1.731,3.79,3.134,6.073,4.104c2.283,0.97,4.789,1.508,7.414,1.508c2.65,0,5.169-0.537,7.456-1.508
	c2.288-0.97,4.344-2.373,6.069-4.104c1.725-1.731,3.119-3.791,4.081-6.074C63.969,70.131,64.5,67.625,64.5,65
	c0-1.25-0.119-2.469-0.345-3.647c-0.227-1.178-0.561-2.316-0.993-3.403c-0.431-1.087-0.959-2.125-1.573-3.103
	c-0.614-0.978-1.314-1.897-2.089-2.747l4.8-4.55L69.1,43l4.8-4.55l4.8-4.55l0.5,0.525l0.5,0.525l0.5,0.525L80.7,36
	c0.225,0.25,0.494,0.412,0.776,0.497s0.58,0.091,0.861,0.028s0.547-0.194,0.767-0.384C83.325,35.95,83.5,35.7,83.6,35.4l1.05-2.85
	l1.05-2.85l1.05-2.85L87.8,24c0.1-0.325,0.1-0.65,0.023-0.95c-0.077-0.3-0.23-0.575-0.436-0.8c-0.206-0.225-0.465-0.4-0.754-0.5
	C86.344,21.65,86.025,21.625,85.7,21.7z M45.5,78.5c-1.875,0-3.656-0.381-5.273-1.069c-1.617-0.688-3.07-1.681-4.289-2.906
	c-1.219-1.225-2.203-2.681-2.883-4.294C32.375,68.619,32,66.85,32,65s0.375-3.619,1.055-5.231c0.68-1.612,1.664-3.069,2.883-4.294
	s2.672-2.219,4.289-2.906S43.625,51.5,45.5,51.5s3.656,0.375,5.273,1.055c1.617,0.68,3.07,1.664,4.289,2.883
	s2.203,2.672,2.883,4.289S59,63.125,59,65s-0.381,3.656-1.069,5.273s-1.681,3.07-2.906,4.289c-1.225,1.219-2.681,2.204-4.294,2.883
	S47.35,78.5,45.5,78.5z M81.6,32.1l-1.05-1.15L79.5,29.8l-1.05-1.15L77.4,27.5l1.6-0.475l1.6-0.475l1.6-0.475l1.6-0.475l-0.55,1.625
	L82.7,28.85l-0.55,1.625L81.6,32.1z"/>
<path d="M45.5,84.6c-2.65,0-5.181-0.531-7.492-1.494c-2.311-0.962-4.401-2.356-6.17-4.081c-1.769-1.725-3.216-3.781-4.24-6.069
	c-1.024-2.288-1.624-4.806-1.698-7.456h-3.575H18.75h-3.575H11.6v-1.8v-1.8v-1.8v-1.8h3.85h3.85h3.85H27
	c0.7-1.925,1.688-3.694,2.903-5.264c1.216-1.57,2.659-2.942,4.272-4.073c1.612-1.132,3.394-2.022,5.284-2.63
	C41.35,45.725,43.35,45.4,45.4,45.4c0.825,0,1.65,0.05,2.469,0.15C48.688,45.65,49.5,45.8,50.3,46c0.8,0.2,1.588,0.45,2.356,0.75
	s1.519,0.65,2.244,1.05l4.775-4.6l4.775-4.6l4.775-4.6L74,29.4l-0.325-0.35L73.35,28.7l-0.325-0.35L72.7,28
	c-0.125-0.15-0.231-0.312-0.317-0.484s-0.151-0.353-0.195-0.541c-0.044-0.188-0.066-0.381-0.064-0.578S72.15,26,72.2,25.8
	s0.125-0.381,0.222-0.544c0.097-0.162,0.216-0.306,0.353-0.431c0.138-0.125,0.294-0.231,0.466-0.319
	C73.413,24.419,73.6,24.35,73.8,24.3l2.925-0.775l2.925-0.775l2.925-0.775L85.5,21.2c0.2-0.05,0.406-0.075,0.611-0.073
	c0.205,0.001,0.408,0.029,0.602,0.085c0.193,0.057,0.378,0.141,0.545,0.255c0.167,0.114,0.317,0.258,0.442,0.433
	c0.15,0.15,0.269,0.319,0.359,0.5s0.153,0.375,0.191,0.575c0.037,0.2,0.05,0.406,0.041,0.613C88.281,23.794,88.25,24,88.2,24.2
	l-1.025,2.85L86.15,29.9l-1.025,2.85L84.1,35.6c-0.075,0.175-0.169,0.344-0.28,0.5s-0.239,0.3-0.382,0.425s-0.303,0.231-0.477,0.312
	S82.6,36.975,82.4,37c-0.2,0.05-0.4,0.069-0.595,0.059c-0.195-0.009-0.386-0.047-0.567-0.109c-0.181-0.062-0.354-0.15-0.511-0.259
	S80.425,36.45,80.3,36.3l-0.4-0.45l-0.4-0.45l-0.4-0.45l-0.4-0.45l-4.625,4.4l-4.625,4.4l-4.625,4.4L60.2,52.1
	c0.775,0.9,1.463,1.856,2.058,2.858s1.098,2.048,1.504,3.129c0.407,1.082,0.716,2.197,0.924,3.336S65,63.725,65,64.9
	c0.025,2.725-0.506,5.319-1.486,7.677c-0.98,2.358-2.408,4.48-4.177,6.261c-1.769,1.781-3.878,3.222-6.22,4.217
	C50.775,84.05,48.2,84.6,45.5,84.6z M12.6,64.5h3.55h3.55h3.55h3.55v0.125v0.125v0.125V65c0,2.575,0.519,5.025,1.458,7.252
	s2.299,4.229,3.98,5.91c1.681,1.682,3.684,3.041,5.91,3.98c2.227,0.939,4.677,1.458,7.252,1.458s5.031-0.525,7.267-1.472
	c2.236-0.947,4.252-2.316,5.946-4.003c1.694-1.688,3.065-3.694,4.014-5.916C63.575,69.988,64.1,67.55,64.1,65
	c0-1.15-0.106-2.294-0.316-3.416c-0.209-1.122-0.522-2.222-0.934-3.284s-0.925-2.087-1.534-3.059C60.706,54.269,60,53.35,59.2,52.5
	l-0.075-0.1l-0.075-0.1l-0.075-0.1L58.9,52.1l4.975-4.725l4.975-4.725l4.975-4.725L78.8,33.2l0.575,0.625l0.575,0.625l0.575,0.625
	L81.1,35.7c0.075,0.075,0.156,0.144,0.244,0.203c0.088,0.059,0.181,0.109,0.281,0.147s0.206,0.062,0.319,0.072
	c0.113,0.009,0.231,0.003,0.356-0.022c0.1-0.025,0.2-0.062,0.295-0.111c0.095-0.048,0.186-0.108,0.267-0.176
	c0.082-0.069,0.154-0.147,0.211-0.233c0.058-0.086,0.102-0.18,0.127-0.28l1.025-2.85l1.025-2.85l1.025-2.85L87.3,23.9
	c0.05-0.1,0.081-0.206,0.094-0.316s0.006-0.222-0.019-0.334c-0.025-0.112-0.069-0.225-0.131-0.334S87.1,22.7,87,22.6
	c-0.075-0.075-0.162-0.144-0.258-0.203c-0.095-0.059-0.198-0.109-0.304-0.147c-0.107-0.038-0.216-0.062-0.324-0.072
	C86.006,22.169,85.9,22.175,85.8,22.2l-0.025-0.125L85.75,21.95l-0.025-0.125L85.7,21.7l0.025,0.125l0.025,0.125l0.025,0.125
	L85.8,22.2l-2.95,0.775L79.9,23.75l-2.95,0.775L74,25.3c-0.1,0.025-0.2,0.062-0.295,0.112s-0.186,0.112-0.267,0.188
	c-0.081,0.075-0.154,0.163-0.211,0.263c-0.058,0.1-0.102,0.212-0.127,0.337c-0.025,0.1-0.038,0.206-0.038,0.314
	c0,0.108,0.013,0.217,0.038,0.323c0.025,0.106,0.062,0.21,0.113,0.305s0.113,0.183,0.188,0.258l0.475,0.525l0.475,0.525l0.475,0.525
	L75.3,29.5l-5.05,4.9l-5.05,4.9l-5.05,4.9l-5.05,4.9l-0.075-0.05L54.95,49l-0.075-0.05L54.8,48.9c-0.7-0.4-1.425-0.756-2.17-1.066
	s-1.511-0.572-2.292-0.784s-1.578-0.375-2.386-0.484S46.325,46.4,45.5,46.4c-1.975,0-3.9,0.312-5.717,0.898
	c-1.817,0.586-3.527,1.446-5.071,2.54c-1.543,1.094-2.921,2.422-4.076,3.945c-1.155,1.523-2.086,3.242-2.736,5.117l-0.025,0.075
	L27.85,59.05l-0.025,0.075L27.8,59.2H24h-3.8h-3.8h-3.8v1.325v1.325c0,0,0,0.662,0,1.325C12.6,63.838,12.6,64.5,12.6,64.5z M45.5,79
	c-1.925,0-3.762-0.394-5.436-1.105s-3.183-1.739-4.452-3.008c-1.269-1.269-2.297-2.778-3.007-4.451
	C31.894,68.762,31.5,66.925,31.5,65c0-1.925,0.394-3.762,1.105-5.436c0.711-1.673,1.739-3.183,3.007-4.451
	c1.269-1.269,2.779-2.297,4.452-3.008C41.738,51.394,43.575,51,45.5,51s3.762,0.394,5.436,1.105
	c1.674,0.711,3.183,1.739,4.452,3.007c1.269,1.269,2.297,2.779,3.007,4.452C59.106,61.238,59.5,63.075,59.5,65
	c0,1.925-0.394,3.762-1.105,5.436c-0.711,1.673-1.739,3.183-3.007,4.451c-1.269,1.269-2.779,2.297-4.452,3.008S47.425,79,45.5,79z
	 M45.5,52c-1.8,0-3.512,0.362-5.069,1.019S37.475,54.625,36.3,55.8s-2.125,2.575-2.781,4.131C32.862,61.487,32.5,63.2,32.5,65
	s0.362,3.513,1.019,5.069c0.656,1.556,1.606,2.956,2.781,4.131s2.575,2.125,4.131,2.781C41.987,77.637,43.7,78,45.5,78
	s3.513-0.363,5.069-1.019c1.556-0.656,2.956-1.606,4.131-2.781s2.125-2.575,2.781-4.131S58.5,66.8,58.5,65
	c0-1.8-0.369-3.512-1.033-5.069s-1.624-2.956-2.805-4.131c-1.181-1.175-2.584-2.125-4.135-2.781C48.975,52.362,47.275,52,45.5,52z
	 M81.8,33l-1.325-1.45L79.15,30.1l-1.325-1.45L76.5,27.2l2-0.6l2-0.6l2-0.6l2-0.6l-0.675,2.05L83.15,28.9l-0.675,2.05L81.8,33z
	 M78.3,27.7l0.775,0.85l0.775,0.85l0.775,0.85L81.4,31.1l0.4-1.2l0.4-1.2l0.4-1.2l0.4-1.2l-1.175,0.35L80.65,27l-1.175,0.35
	L78.3,27.7z"/>
</svg>
