<?xml version="1.0" encoding="iso-8859-1"?>
<!-- Generator: Adobe Illustrator 25.4.1, SVG Export Plug-In . SVG Version: 6.00 Build 0)  -->
<svg version="1.1" id="Layer_1" xmlns="http://www.w3.org/2000/svg" xmlns:xlink="http://www.w3.org/1999/xlink" x="0px" y="0px"
	 viewBox="0 0 100 100" style="enable-background:new 0 0 100 100;" xml:space="preserve">
<path style="fill:#A4251A;" d="M50,2.4c6.572,0,12.833,1.332,18.528,3.741c5.695,2.409,10.823,5.894,15.13,10.201
	s7.793,9.435,10.201,15.13C96.268,37.167,97.6,43.428,97.6,50s-1.332,12.833-3.741,18.528c-2.409,5.695-5.894,10.823-10.201,15.13
	s-9.436,7.793-15.13,10.201C62.833,96.268,56.572,97.6,50,97.6s-12.833-1.332-18.528-3.741c-5.695-2.409-10.823-5.894-15.13-10.201
	s-7.792-9.436-10.201-15.13S2.4,56.572,2.4,50s1.332-12.833,3.741-18.528s5.894-10.823,10.201-15.13s9.435-7.792,15.13-10.201
	S43.428,2.4,50,2.4z"/>
<path style="fill:#440C09;" d="M50,1.9c-6.625,0-12.944,1.35-18.695,3.789s-10.936,5.967-15.292,10.324S8.129,25.554,5.69,31.305
	S1.9,43.375,1.9,50s1.35,12.944,3.789,18.695s5.967,10.936,10.324,15.293s9.541,7.884,15.292,10.323S43.375,98.1,50,98.1
	s12.944-1.344,18.695-3.775c5.752-2.431,10.936-5.95,15.293-10.3s7.884-9.531,10.323-15.287S98.1,56.65,98.1,50
	s-1.35-12.981-3.789-18.737s-5.967-10.938-10.323-15.288s-9.54-7.869-15.292-10.3C62.944,3.244,56.625,1.9,50,1.9z M50,93
	c-5.95,0-11.612-1.2-16.759-3.372s-9.778-5.316-13.666-9.203s-7.031-8.519-9.203-13.666C8.2,61.613,7,55.95,7,50
	s1.2-11.612,3.372-16.759s5.316-9.778,9.203-13.666s8.519-7.031,13.666-9.203S44.05,7,50,7s11.613,1.206,16.759,3.386
	s9.778,5.333,13.666,9.226s7.031,8.528,9.203,13.67S93,44.075,93,50s-1.2,11.575-3.372,16.717s-5.316,9.776-9.203,13.67
	s-8.519,7.047-13.666,9.227C61.613,91.794,55.95,93,50,93z"/>
<linearGradient id="SVGID_1_" gradientUnits="userSpaceOnUse" x1="8.3" y1="761.45" x2="89.8625" y2="761.45" gradientTransform="matrix(1 0 0 1 0 -690)">
	<stop  offset="0" style="stop-color:#0022E0"/>
	<stop  offset="0.1017" style="stop-color:#1231E2"/>
	<stop  offset="0.305" style="stop-color:#4059E8"/>
	<stop  offset="0.5913" style="stop-color:#8A9AF1"/>
	<stop  offset="0.9464" style="stop-color:#EFF1FD"/>
	<stop  offset="1" style="stop-color:#FFFFFF"/>
</linearGradient>
<path style="fill:url(#SVGID_1_);" d="M48.6,92.1c-3.95,0-8.056-0.656-12.091-2.006c-4.034-1.35-7.997-3.394-11.659-6.169
	s-7.025-6.281-9.859-10.556S9.85,64.05,8.3,58.2c0.25,0.025,0.5,0.05,0.747,0.073c0.247,0.024,0.491,0.046,0.728,0.065
	c0.238,0.018,0.469,0.034,0.691,0.045S10.9,58.4,11.1,58.4c0.3,0,0.6-0.006,0.895-0.017s0.586-0.026,0.867-0.045
	c0.281-0.019,0.554-0.041,0.811-0.065c0.258-0.023,0.502-0.049,0.727-0.073c1.125-0.2,2.188-0.625,3.172-1.184
	s1.891-1.253,2.703-1.991c0.812-0.738,1.531-1.519,2.141-2.253S23.525,51.35,23.9,50.8c0.5,0.625,1.188,1.431,2.016,2.291
	s1.797,1.772,2.859,2.609c1.062,0.837,2.219,1.6,3.422,2.159C33.4,58.419,34.65,58.775,35.9,58.8c1.25,0,2.463-0.331,3.606-0.869
	c1.144-0.537,2.219-1.281,3.194-2.106s1.85-1.731,2.594-2.594c0.744-0.862,1.356-1.681,1.806-2.331
	c0.45,0.65,1.056,1.469,1.797,2.331c0.741,0.862,1.616,1.769,2.603,2.594s2.087,1.569,3.278,2.106
	C55.969,58.469,57.25,58.8,58.6,58.8c0,0,0.013,0,0.033,0s0.048,0,0.079,0s0.066,0,0.098,0c0.033,0,0.064,0,0.09,0
	c1.375-0.05,2.65-0.412,3.814-0.967c1.164-0.555,2.217-1.302,3.149-2.121s1.741-1.709,2.417-2.551s1.22-1.635,1.62-2.26
	c0.475,0.6,1.125,1.375,1.897,2.205s1.666,1.714,2.628,2.532c0.962,0.819,1.994,1.572,3.041,2.139s2.109,0.948,3.134,1.023
	c0.075,0,0.15,0,0.227,0c0.077,0,0.155,0,0.236,0s0.166,0,0.255,0s0.182,0,0.282,0c0.675,0,1.394-0.056,2.128-0.155
	c0.734-0.098,1.484-0.239,2.222-0.407s1.463-0.366,2.147-0.577C88.781,57.45,89.425,57.225,90,57
	c-1.675,6.475-4.156,11.906-7.172,16.411c-3.016,4.505-6.566,8.083-10.378,10.852c-3.812,2.769-7.887,4.728-11.953,5.995
	C56.431,91.525,52.375,92.1,48.6,92.1z"/>
<path style="fill:#0022E0;" d="M23.9,52.4c0.625,0.7,1.381,1.506,2.241,2.322C27,55.538,27.962,56.363,29,57.1
	s2.15,1.388,3.309,1.853c1.159,0.466,2.366,0.747,3.591,0.747c1.2,0,2.356-0.269,3.45-0.717s2.125-1.077,3.075-1.796
	c0.95-0.719,1.819-1.528,2.587-2.339S46.45,53.225,47,52.5c0.55,0.725,1.219,1.537,1.994,2.348c0.775,0.811,1.656,1.621,2.631,2.34
	s2.044,1.347,3.194,1.795C55.969,59.431,57.2,59.7,58.5,59.7c0.025,0,0.05,0,0.075,0c0.025,0,0.05,0,0.075,0s0.05,0,0.075,0
	c0.025,0,0.05,0,0.075,0c1.3-0.05,2.512-0.35,3.633-0.817s2.149-1.102,3.08-1.821c0.931-0.719,1.766-1.522,2.498-2.327
	c0.733-0.805,1.364-1.611,1.889-2.335c0.6,0.675,1.312,1.444,2.106,2.222C72.8,55.4,73.675,56.188,74.6,56.9s1.9,1.35,2.894,1.828
	S79.5,59.525,80.5,59.6c0.075,0,0.156,0,0.242,0s0.176,0,0.27,0s0.19,0,0.289,0c0.099,0,0.199,0,0.299,0
	c0.525,0,1.081-0.031,1.655-0.089c0.573-0.058,1.164-0.142,1.757-0.249c0.594-0.106,1.191-0.234,1.777-0.379
	c0.586-0.145,1.161-0.308,1.711-0.483c-0.725,2.45-1.587,4.8-2.583,7.036s-2.124,4.358-3.38,6.352
	c-1.256,1.993-2.64,3.859-4.148,5.582S75.25,80.675,73.5,82.1c-1.775,1.425-3.656,2.694-5.619,3.795s-4.006,2.036-6.106,2.793
	c-2.1,0.756-4.256,1.334-6.444,1.723C53.144,90.8,50.925,91,48.7,91c-2.125,0-4.25-0.194-6.352-0.57
	c-2.101-0.376-4.18-0.936-6.21-1.667c-2.032-0.731-4.016-1.635-5.93-2.699S26.45,83.775,24.7,82.4c-1.75-1.4-3.388-2.95-4.902-4.637
	c-1.514-1.688-2.904-3.513-4.16-5.463s-2.378-4.025-3.355-6.213S10.475,61.6,9.8,59.2c0.125,0,0.25,0,0.373,0s0.246,0,0.365,0
	s0.234,0,0.345,0c0.111,0,0.217,0,0.317,0c0.3,0,0.606-0.006,0.911-0.019c0.305-0.013,0.608-0.031,0.901-0.056
	c0.294-0.025,0.578-0.056,0.846-0.094S14.375,58.95,14.6,58.9c1.025-0.125,2.006-0.438,2.93-0.875s1.789-1,2.583-1.625
	s1.516-1.312,2.152-2C22.9,53.713,23.45,53.025,23.9,52.4 M69.7,49c0,0-0.269,0.531-0.775,1.331s-1.25,1.869-2.2,2.944
	s-2.106,2.156-3.438,2.981C61.956,57.081,60.45,57.65,58.8,57.7c-0.025,0-0.05,0-0.075,0c-0.025,0-0.05,0-0.075,0
	c-0.025,0-0.05,0-0.075,0c-0.025,0-0.05,0-0.075,0c-1.625,0-3.15-0.544-4.523-1.359s-2.596-1.903-3.615-2.991
	c-1.018-1.088-1.834-2.175-2.395-2.991S47.1,49,47.1,49s-0.331,0.544-0.92,1.359c-0.589,0.816-1.436,1.903-2.468,2.991
	c-1.031,1.088-2.246,2.175-3.573,2.991S37.375,57.7,35.9,57.7l0,0l0,0l0,0l0,0c-1.475,0-2.969-0.544-4.38-1.359
	s-2.739-1.903-3.882-2.991c-1.144-1.088-2.104-2.175-2.777-2.991S23.8,49,23.8,49s-0.256,0.45-0.726,1.141
	c-0.47,0.691-1.155,1.622-2.01,2.584c-0.856,0.963-1.885,1.956-3.043,2.772c-1.158,0.816-2.445,1.453-3.82,1.703
	c-0.225,0.025-0.462,0.05-0.709,0.073c-0.247,0.024-0.503,0.046-0.766,0.065c-0.262,0.018-0.531,0.034-0.803,0.045
	C11.65,57.394,11.375,57.4,11.1,57.4c-0.425,0-0.856-0.013-1.273-0.037C9.41,57.338,9.007,57.3,8.638,57.25
	c-0.369-0.05-0.704-0.112-0.983-0.188C7.375,56.987,7.15,56.9,7,56.8c1.425,6.075,3.656,11.381,6.472,15.924
	c2.816,4.542,6.216,8.321,9.978,11.34s7.888,5.278,12.153,6.783C39.869,92.35,44.275,93.1,48.6,93.1
	c4.525,0,9.106-0.763,13.522-2.311c4.416-1.549,8.666-3.883,12.528-7.027s7.337-7.097,10.203-11.883S89.975,61.475,91.4,55
	c-0.15,0.175-0.581,0.431-1.208,0.717c-0.627,0.286-1.449,0.601-2.38,0.895c-0.931,0.294-1.972,0.566-3.036,0.764
	C83.713,57.575,82.625,57.7,81.6,57.7c-0.075,0-0.15,0-0.225,0c-0.075,0-0.15,0-0.225,0c-0.075,0-0.15,0-0.225,0
	c-0.075,0-0.15,0-0.225,0c-1.225-0.1-2.525-0.694-3.786-1.528s-2.483-1.909-3.551-2.972c-1.069-1.062-1.985-2.112-2.633-2.897
	C70.081,49.519,69.7,49,69.7,49L69.7,49L69.7,49L69.7,49L69.7,49z"/>
</svg>
