<?xml version="1.0" encoding="iso-8859-1"?>
<!-- Generator: Adobe Illustrator 25.3.1, SVG Export Plug-In . SVG Version: 6.00 Build 0)  -->
<svg version="1.1" id="Layer_1" xmlns="http://www.w3.org/2000/svg" xmlns:xlink="http://www.w3.org/1999/xlink" x="0px" y="0px"
	 viewBox="0 0 100 100" style="enable-background:new 0 0 100 100;" xml:space="preserve">
<path style="fill:#A4251A;" d="M50,2.4c6.572,0,12.833,1.332,18.528,3.741c5.695,2.409,10.823,5.894,15.13,10.201
	s7.793,9.435,10.201,15.13C96.268,37.167,97.6,43.428,97.6,50s-1.332,12.833-3.741,18.528c-2.409,5.695-5.894,10.823-10.201,15.13
	s-9.436,7.793-15.13,10.201C62.833,96.268,56.572,97.6,50,97.6s-12.833-1.332-18.528-3.741c-5.695-2.409-10.823-5.894-15.13-10.201
	s-7.792-9.436-10.201-15.13S2.4,56.572,2.4,50s1.332-12.833,3.741-18.528s5.894-10.823,10.201-15.13s9.435-7.792,15.13-10.201
	S43.428,2.4,50,2.4z"/>
<path style="fill:#440C09;" d="M50,1.9c-6.625,0-12.944,1.35-18.695,3.789s-10.936,5.967-15.292,10.324S8.129,25.554,5.69,31.305
	S1.9,43.375,1.9,50s1.35,12.944,3.789,18.695s5.967,10.936,10.324,15.293s9.541,7.884,15.292,10.323S43.375,98.1,50,98.1
	s12.944-1.344,18.695-3.775c5.752-2.431,10.936-5.95,15.293-10.3s7.884-9.531,10.323-15.287S98.1,56.65,98.1,50
	s-1.35-12.981-3.789-18.737s-5.967-10.938-10.323-15.288s-9.54-7.869-15.292-10.3C62.944,3.244,56.625,1.9,50,1.9z M50,93
	c-5.95,0-11.612-1.2-16.759-3.372s-9.778-5.316-13.666-9.203s-7.031-8.519-9.203-13.666C8.2,61.613,7,55.95,7,50
	s1.2-11.612,3.372-16.759s5.316-9.778,9.203-13.666s8.519-7.031,13.666-9.203S44.05,7,50,7s11.613,1.206,16.759,3.386
	s9.778,5.333,13.666,9.226s7.031,8.528,9.203,13.67S93,44.075,93,50s-1.2,11.575-3.372,16.717s-5.316,9.776-9.203,13.67
	s-8.519,7.047-13.666,9.227C61.613,91.794,55.95,93,50,93z"/>
<path style="fill:#FFFFFF;" d="M32.8,67.4v-4.9v-4.9v-4.9v-4.9h1.25h1.25h1.25h1.25c1.6,0,3,0.2,4.2,0.6c1.2,0.4,2.2,1,3,1.8
	c0.8,0.8,1.4,1.8,1.8,3c0.4,1.2,0.6,2.6,0.6,4.2c0,0.75-0.056,1.469-0.169,2.153c-0.112,0.684-0.281,1.334-0.506,1.947
	s-0.506,1.188-0.844,1.722C45.544,63.756,45.15,64.25,44.7,64.7s-0.931,0.85-1.447,1.197c-0.516,0.347-1.066,0.641-1.653,0.878
	s-1.212,0.419-1.878,0.541C39.056,67.438,38.35,67.5,37.6,67.5h-1.2h-1.2H34h-1.2v-0.025V67.45v-0.025V67.4z M35,49.8v3.875v3.875
	v3.875V65.3h0.675h0.675h0.675H37.7c0.6,0,1.162-0.044,1.689-0.131s1.017-0.219,1.474-0.394c0.456-0.175,0.878-0.394,1.267-0.656
	c0.389-0.263,0.745-0.569,1.07-0.919s0.612-0.731,0.861-1.147c0.249-0.416,0.458-0.866,0.626-1.353s0.297-1.013,0.383-1.578
	c0.086-0.566,0.13-1.172,0.13-1.822c0-1.25-0.156-2.35-0.467-3.297c-0.311-0.947-0.776-1.741-1.395-2.378
	c-0.619-0.638-1.391-1.119-2.314-1.441C40.1,49.862,39.025,49.7,37.8,49.7h-0.7h-0.7h-0.7H35v0.025v0.025v0.025V49.8z"/>
<path d="M37.6,67.9h-1.325H34.95h-1.325H32.3v-5.15V57.6v-5.15V47.3h1.375h1.375h1.375H37.8c1.675,0,3.144,0.212,4.405,0.636
	s2.314,1.058,3.157,1.902c0.844,0.844,1.479,1.897,1.902,3.157c0.424,1.261,0.636,2.73,0.636,4.405c0,0.8-0.056,1.556-0.17,2.272
	c-0.114,0.716-0.286,1.391-0.518,2.028s-0.522,1.237-0.873,1.803S45.575,64.6,45.1,65.1c-0.475,0.45-0.987,0.85-1.537,1.197
	c-0.55,0.347-1.138,0.641-1.763,0.878c-0.625,0.238-1.288,0.419-1.988,0.541C39.112,67.838,38.375,67.9,37.6,67.9z M33.3,66.9h1.075
	h1.075h1.075H37.6c0.7,0,1.369-0.056,2.005-0.167c0.636-0.111,1.239-0.276,1.807-0.495c0.569-0.219,1.103-0.491,1.602-0.814
	c0.499-0.323,0.961-0.698,1.386-1.123c0.425-0.425,0.794-0.894,1.108-1.403c0.314-0.509,0.574-1.059,0.78-1.647
	s0.36-1.212,0.461-1.872C46.85,58.719,46.9,58.025,46.9,57.3c0-1.525-0.188-2.856-0.564-3.995s-0.942-2.086-1.699-2.842
	s-1.703-1.322-2.842-1.699c-1.139-0.377-2.47-0.565-3.995-0.565h-1.125H35.55h-1.125H33.3c0,0,0,1.169,0,2.922s0,4.091,0,6.428
	s0,4.675,0,6.428C33.3,65.731,33.3,66.9,33.3,66.9z M37.7,65.8h-0.8h-0.8h-0.8h-0.8v-4.125V57.55v-4.125V49.3h0.825h0.825h0.825
	H37.8c1.3,0,2.444,0.169,3.428,0.506c0.984,0.338,1.809,0.844,2.472,1.519s1.163,1.519,1.497,2.531S45.7,56.05,45.7,57.4
	c0,0.675-0.044,1.306-0.131,1.897c-0.088,0.591-0.219,1.141-0.394,1.653s-0.394,0.987-0.656,1.428
	c-0.263,0.441-0.569,0.847-0.919,1.222c-0.375,0.375-0.775,0.7-1.203,0.977s-0.884,0.505-1.372,0.686
	c-0.488,0.181-1.006,0.315-1.559,0.404S38.325,65.8,37.7,65.8z M35.5,64.8h0.55h0.55h0.55h0.55c0.55,0,1.075-0.037,1.572-0.114
	c0.497-0.077,0.966-0.192,1.403-0.349s0.844-0.353,1.216-0.592S42.6,63.225,42.9,62.9s0.562-0.681,0.787-1.07
	c0.225-0.389,0.412-0.811,0.562-1.267c0.15-0.456,0.263-0.947,0.338-1.474C44.662,58.563,44.7,58,44.7,57.4
	c0-1.175-0.144-2.206-0.431-3.092c-0.287-0.886-0.719-1.626-1.294-2.22c-0.575-0.594-1.294-1.041-2.156-1.34
	C39.956,50.45,38.95,50.3,37.8,50.3h-0.575H36.65h-0.575H35.5v3.625v3.625v3.625V64.8z"/>
<path style="fill:#FFFFFF;" d="M63.3,66.6c-0.325,0.2-0.675,0.375-1.048,0.525c-0.373,0.15-0.77,0.275-1.189,0.375
	s-0.859,0.175-1.32,0.225C59.282,67.775,58.8,67.8,58.3,67.8c-0.65,0-1.263-0.056-1.841-0.169c-0.578-0.113-1.122-0.281-1.634-0.506
	c-0.513-0.225-0.994-0.506-1.447-0.844S52.5,65.55,52.1,65.1c-0.375-0.45-0.706-0.938-0.992-1.461
	c-0.286-0.523-0.527-1.083-0.721-1.677c-0.194-0.593-0.34-1.221-0.439-1.882C49.85,59.419,49.8,58.725,49.8,58
	c0-0.775,0.056-1.519,0.167-2.228c0.111-0.709,0.277-1.384,0.496-2.022s0.491-1.238,0.814-1.797
	c0.323-0.559,0.698-1.078,1.123-1.553s0.888-0.894,1.383-1.255c0.495-0.361,1.024-0.664,1.58-0.908s1.141-0.428,1.748-0.552
	C57.719,47.562,58.35,47.5,59,47.5c0.425,0,0.831,0.019,1.22,0.055c0.389,0.036,0.761,0.089,1.117,0.158
	c0.356,0.069,0.697,0.153,1.024,0.251C62.688,48.062,63,48.175,63.3,48.3v0.625v0.625v0.625V50.8
	c-0.325-0.2-0.656-0.375-0.995-0.525c-0.339-0.15-0.686-0.275-1.042-0.375c-0.356-0.1-0.722-0.175-1.099-0.225S59.4,49.6,59,49.6
	c-0.525,0-1.025,0.05-1.5,0.148c-0.475,0.099-0.925,0.246-1.35,0.44c-0.425,0.194-0.825,0.434-1.2,0.72
	c-0.375,0.286-0.725,0.617-1.05,0.992s-0.606,0.781-0.845,1.219s-0.436,0.906-0.593,1.406s-0.272,1.031-0.348,1.594
	C52.037,56.681,52,57.275,52,57.9c0,0.6,0.037,1.169,0.112,1.706c0.075,0.538,0.188,1.044,0.338,1.519s0.337,0.919,0.562,1.331
	C53.237,62.869,53.5,63.25,53.8,63.6s0.625,0.656,0.975,0.919C55.125,64.781,55.5,65,55.9,65.175s0.825,0.306,1.275,0.394
	S58.1,65.7,58.6,65.7c0.45,0,0.888-0.025,1.311-0.076s0.833-0.129,1.227-0.235c0.394-0.106,0.771-0.241,1.132-0.405
	c0.361-0.164,0.705-0.358,1.03-0.583c0,0,0,0.138,0,0.344c0,0.206,0,0.481,0,0.756c0,0.275,0,0.55,0,0.756
	C63.3,66.463,63.3,66.6,63.3,66.6z"/>
<path d="M58.3,68.2c-0.675,0-1.319-0.062-1.931-0.186c-0.613-0.124-1.194-0.308-1.744-0.552c-0.55-0.243-1.069-0.547-1.556-0.907
	c-0.487-0.361-0.944-0.78-1.369-1.255c-0.4-0.475-0.75-0.987-1.05-1.536c-0.3-0.549-0.55-1.133-0.75-1.752s-0.35-1.272-0.45-1.958
	c-0.1-0.686-0.15-1.404-0.15-2.154c0-0.825,0.056-1.606,0.169-2.347c0.112-0.741,0.281-1.441,0.506-2.103s0.506-1.288,0.844-1.878
	C51.156,50.981,51.55,50.425,52,49.9c0.45-0.5,0.938-0.944,1.459-1.328c0.522-0.384,1.078-0.709,1.666-0.972
	s1.206-0.462,1.853-0.597C57.625,46.869,58.3,46.8,59,46.8c0.45,0,0.881,0.019,1.294,0.056c0.412,0.037,0.806,0.094,1.181,0.169
	s0.731,0.169,1.069,0.281C62.881,47.419,63.2,47.55,63.5,47.7l0.075,0.025l0.075,0.025l0.075,0.025L63.8,47.8v0.925v0.925v0.925
	V51.5l-0.2-0.1l-0.2-0.1l-0.2-0.1L63,51.1c-0.3-0.175-0.612-0.331-0.934-0.467c-0.322-0.136-0.653-0.251-0.991-0.345
	s-0.681-0.166-1.028-0.214C59.7,50.025,59.35,50,59,50c-0.475,0-0.931,0.044-1.367,0.131c-0.436,0.088-0.851,0.219-1.245,0.394
	c-0.394,0.175-0.766,0.394-1.115,0.656C54.925,51.444,54.6,51.75,54.3,52.1s-0.562,0.731-0.787,1.144
	c-0.225,0.413-0.413,0.856-0.562,1.331s-0.263,0.981-0.338,1.519C52.537,56.631,52.5,57.2,52.5,57.8
	c0,0.575,0.037,1.119,0.111,1.631c0.074,0.513,0.183,0.994,0.327,1.444c0.143,0.45,0.322,0.869,0.533,1.256
	c0.211,0.387,0.455,0.744,0.73,1.069s0.569,0.613,0.884,0.861c0.316,0.248,0.653,0.458,1.016,0.626s0.75,0.297,1.166,0.382
	c0.416,0.086,0.859,0.13,1.334,0.13c0.425,0,0.837-0.025,1.236-0.075c0.399-0.05,0.783-0.125,1.152-0.225
	c0.368-0.099,0.721-0.224,1.056-0.374C62.381,64.375,62.7,64.2,63,64l0.2-0.125l0.2-0.125l0.2-0.125l0.2-0.125v0.875v0.875v0.875V67
	h-0.075H63.65h-0.075H63.5c-0.35,0.2-0.719,0.375-1.108,0.525s-0.799,0.275-1.23,0.375c-0.431,0.1-0.884,0.175-1.361,0.225
	C59.325,68.175,58.825,68.2,58.3,68.2z M59,47.9c-0.65,0-1.263,0.056-1.842,0.169s-1.126,0.281-1.645,0.506
	c-0.519,0.225-1.01,0.506-1.477,0.844S53.125,50.15,52.7,50.6c-0.4,0.45-0.756,0.944-1.066,1.478
	c-0.309,0.534-0.572,1.109-0.784,1.722s-0.375,1.263-0.484,1.947C50.256,56.431,50.2,57.15,50.2,57.9c0,0.7,0.044,1.369,0.133,2.005
	c0.089,0.636,0.224,1.239,0.405,1.807c0.181,0.569,0.409,1.104,0.686,1.602s0.602,0.961,0.977,1.386s0.775,0.794,1.201,1.108
	s0.88,0.573,1.361,0.779s0.991,0.359,1.53,0.461C57.031,67.15,57.6,67.2,58.2,67.2c0.45,0,0.881-0.019,1.294-0.056
	s0.806-0.094,1.181-0.169s0.731-0.169,1.069-0.281C62.081,66.581,62.4,66.45,62.7,66.3v-0.275V65.75v-0.275V65.2
	c-0.3,0.15-0.619,0.281-0.951,0.394s-0.68,0.206-1.035,0.281c-0.357,0.075-0.722,0.131-1.093,0.169
	c-0.37,0.038-0.745,0.056-1.12,0.056c-0.525,0-1.025-0.05-1.5-0.148s-0.925-0.245-1.35-0.439c-0.425-0.194-0.825-0.434-1.2-0.72
	c-0.375-0.286-0.725-0.617-1.05-0.992c-0.325-0.375-0.606-0.781-0.845-1.219s-0.436-0.906-0.593-1.406s-0.272-1.031-0.348-1.594
	C51.537,59.019,51.5,58.425,51.5,57.8c0-0.65,0.044-1.275,0.131-1.872c0.088-0.597,0.219-1.166,0.394-1.703
	c0.175-0.537,0.394-1.044,0.656-1.516C52.944,52.238,53.25,51.8,53.6,51.4s0.725-0.75,1.125-1.05S55.55,49.8,56,49.6
	s0.925-0.35,1.425-0.45C57.925,49.05,58.45,49,59,49c0.35,0,0.688,0.019,1.016,0.055c0.328,0.036,0.647,0.089,0.959,0.157
	c0.312,0.069,0.619,0.153,0.922,0.252C62.2,49.562,62.5,49.675,62.8,49.8v-0.325V49.15v-0.325V48.5
	c-0.25-0.1-0.519-0.188-0.805-0.263c-0.286-0.075-0.589-0.138-0.907-0.188c-0.319-0.05-0.653-0.087-1.002-0.112
	C59.737,47.913,59.375,47.9,59,47.9z"/>
<path style="fill:#FFFFFF;" d="M58.3,37.4l2.45-1.6l2.45-1.6l2.45-1.6L68.1,31l0.85,1.25l0.85,1.25l0.85,1.25L71.5,36l2.25-3.725
	L76,28.55l2.25-3.725L80.5,21.1L76,21.525l-4.5,0.425L67,22.375L62.5,22.8l0.825,1.225l0.825,1.225l0.825,1.225L65.8,27.7
	l-3.15,2.175L59.5,32.05l-3.15,2.175L53.2,36.4c-0.375-0.05-0.756-0.094-1.141-0.131c-0.384-0.038-0.772-0.069-1.159-0.094
	s-0.775-0.044-1.159-0.056C49.356,36.106,48.975,36.1,48.6,36.1c-4.675,0-9.131,0.95-13.186,2.667
	c-4.055,1.717-7.708,4.202-10.777,7.271s-5.553,6.722-7.27,10.777C15.65,60.869,14.7,65.325,14.7,70c0,0.175,0,0.656,0,1.28
	s0,1.389,0,2.132c0,0.744,0,1.466,0,2.002c0,0.536,0,0.886,0,0.886h16.95H48.6h16.95H82.5c0,0,0-0.35,0-0.886
	c0-0.536,0-1.258,0-2.001c0-0.744,0-1.509,0-2.133s0-1.105,0-1.28c0-3.85-0.637-7.55-1.812-11s-2.887-6.65-5.037-9.5
	s-4.737-5.35-7.662-7.4C65.062,40.05,61.8,38.45,58.3,37.4z M78.8,72.8H63.7H48.6H33.5H18.4c0-0.15-0.006-0.363-0.016-0.608
	s-0.022-0.523-0.034-0.804c-0.012-0.281-0.025-0.565-0.034-0.824c-0.009-0.258-0.016-0.49-0.016-0.664
	c0-4.175,0.844-8.15,2.37-11.764c1.526-3.614,3.736-6.867,6.467-9.598s5.984-4.94,9.598-6.467C40.35,40.544,44.325,39.7,48.5,39.7
	s8.15,0.844,11.764,2.37c3.614,1.527,6.867,3.736,9.598,6.468s4.94,5.985,6.467,9.598C77.856,61.75,78.7,65.725,78.7,69.9
	c0.05,0.175,0.081,0.4,0.1,0.65c0.019,0.25,0.025,0.525,0.025,0.8s-0.006,0.55-0.012,0.8S78.8,72.625,78.8,72.8z"/>
<path d="M83,76.7H65.8H48.6H31.4H14.2V75v-1.7v-1.7v-1.7c0-4.75,0.962-9.275,2.703-13.391s4.259-7.822,7.372-10.934
	s6.819-5.631,10.934-7.372S43.85,35.5,48.6,35.5c0.375,0,0.75,0.006,1.125,0.019s0.75,0.031,1.125,0.056s0.75,0.056,1.125,0.094
	c0.375,0.037,0.75,0.081,1.125,0.131l3-2.075l3-2.075l3-2.075l3-2.075l-0.875-1.3l-0.875-1.3l-0.875-1.3L61.6,22.3l4.975-0.475
	l4.975-0.475l4.975-0.475L81.5,20.4l-2.475,4.1l-2.475,4.1l-2.475,4.1L71.6,36.8l-0.9-1.325l-0.9-1.325l-0.9-1.325L68,31.5
	l-2.125,1.4l-2.125,1.4l-2.125,1.4L59.5,37.1c3.475,1.2,6.681,2.931,9.536,5.083c2.855,2.152,5.358,4.724,7.426,7.605
	s3.703,6.072,4.82,9.461C82.4,62.638,83,66.225,83,69.9v1.7v1.7V75V76.7z M15.2,75.7h16.7h16.7h16.7H82v-1.45V72.8v-1.45V69.9
	c0-3.675-0.613-7.25-1.751-10.611c-1.139-3.361-2.805-6.508-4.911-9.327s-4.653-5.309-7.555-7.358S61.625,38.95,58.1,37.9
	l-0.25-0.075L57.6,37.75l-0.25-0.075L57.1,37.6l2.775-1.825l2.775-1.825l2.775-1.825L68.2,30.3l0.825,1.2l0.825,1.2l0.825,1.2
	l0.825,1.2l2.025-3.35l2.025-3.35l2.025-3.35L79.6,21.7l-4.05,0.375L71.5,22.45l-4.05,0.375L63.4,23.2l0.775,1.15l0.775,1.15
	l0.775,1.15L66.5,27.8l-3.275,2.25L59.95,32.3l-3.275,2.25L53.4,36.8h-0.05H53.3h-0.05H53.2c-0.375-0.05-0.756-0.094-1.141-0.131
	S51.288,36.6,50.9,36.575s-0.775-0.044-1.159-0.056C49.356,36.506,48.975,36.5,48.6,36.5c-4.6,0-8.987,0.938-12.981,2.631
	C31.625,40.825,28.025,43.275,25,46.3s-5.475,6.625-7.169,10.619S15.2,65.3,15.2,69.9c0,0,0,0.363,0,0.906s0,1.269,0,1.994
	s0,1.45,0,1.994S15.2,75.7,15.2,75.7z M79.3,73.3H63.975H48.65H33.325H18v-0.125V73.05v-0.125V72.8c0-0.175-0.006-0.406-0.016-0.664
	s-0.022-0.542-0.034-0.824c-0.013-0.281-0.025-0.559-0.034-0.804C17.906,70.262,17.9,70.05,17.9,69.9
	c0-4.25,0.863-8.294,2.42-11.969s3.811-6.981,6.593-9.756s6.091-5.019,9.761-6.569c3.67-1.55,7.701-2.406,11.926-2.406
	c4.25,0,8.294,0.862,11.969,2.42c3.675,1.558,6.981,3.811,9.756,6.593c2.775,2.781,5.019,6.09,6.569,9.761S79.3,65.675,79.3,69.9
	c0,0.15,0,0.363-0.002,0.608c-0.001,0.245-0.004,0.523-0.01,0.804c-0.007,0.282-0.016,0.566-0.03,0.824
	c-0.014,0.258-0.033,0.489-0.058,0.664l0.025,0.125l0.025,0.125l0.025,0.125L79.3,73.3z M18.9,72.3h14.85H48.6h14.85H78.3
	c0-0.175,0-0.381,0-0.6s0-0.45,0-0.675s0-0.444,0-0.637s0-0.363,0-0.488c0-4.1-0.831-8.006-2.334-11.559
	c-1.503-3.553-3.678-6.753-6.366-9.441s-5.888-4.862-9.441-6.366C56.606,41.031,52.7,40.2,48.6,40.2s-8.006,0.831-11.559,2.334
	c-3.553,1.503-6.753,3.678-9.441,6.366s-4.862,5.888-6.366,9.441C19.731,61.894,18.9,65.8,18.9,69.9c0,0.125,0,0.287,0,0.474
	c0,0.186,0,0.395,0,0.614s0,0.447,0,0.67C18.9,71.882,18.9,72.1,18.9,72.3z"/>
</svg>
