<?xml version="1.0" encoding="iso-8859-1"?>
<!-- Generator: Adobe Illustrator 25.3.1, SVG Export Plug-In . SVG Version: 6.00 Build 0)  -->
<svg version="1.1" id="Layer_1" xmlns="http://www.w3.org/2000/svg" xmlns:xlink="http://www.w3.org/1999/xlink" x="0px" y="0px"
	 viewBox="0 0 100 100" style="enable-background:new 0 0 100 100;" xml:space="preserve">
<path style="fill:#A4251A;" d="M50,2.4c6.572,0,12.833,1.332,18.528,3.741c5.695,2.409,10.823,5.894,15.13,10.201
	s7.793,9.435,10.201,15.13C96.268,37.167,97.6,43.428,97.6,50s-1.332,12.833-3.741,18.528c-2.409,5.695-5.894,10.823-10.201,15.13
	s-9.436,7.793-15.13,10.201C62.833,96.268,56.572,97.6,50,97.6s-12.833-1.332-18.528-3.741c-5.695-2.409-10.823-5.894-15.13-10.201
	s-7.792-9.436-10.201-15.13S2.4,56.572,2.4,50s1.332-12.833,3.741-18.528s5.894-10.823,10.201-15.13s9.435-7.792,15.13-10.201
	S43.428,2.4,50,2.4z"/>
<path style="fill:#440C09;" d="M50,1.9c-6.625,0-12.944,1.35-18.695,3.789s-10.936,5.967-15.292,10.324S8.129,25.554,5.69,31.305
	S1.9,43.375,1.9,50s1.35,12.944,3.789,18.695s5.967,10.936,10.324,15.293s9.541,7.884,15.292,10.323S43.375,98.1,50,98.1
	s12.944-1.344,18.695-3.775c5.752-2.431,10.936-5.95,15.293-10.3s7.884-9.531,10.323-15.287S98.1,56.65,98.1,50
	s-1.35-12.981-3.789-18.737s-5.967-10.938-10.323-15.288s-9.54-7.869-15.292-10.3C62.944,3.244,56.625,1.9,50,1.9z M50,93
	c-5.95,0-11.612-1.2-16.759-3.372s-9.778-5.316-13.666-9.203s-7.031-8.519-9.203-13.666C8.2,61.613,7,55.95,7,50
	s1.2-11.612,3.372-16.759s5.316-9.778,9.203-13.666s8.519-7.031,13.666-9.203S44.05,7,50,7s11.613,1.206,16.759,3.386
	s9.778,5.333,13.666,9.226s7.031,8.528,9.203,13.67S93,44.075,93,50s-1.2,11.575-3.372,16.717s-5.316,9.776-9.203,13.67
	s-8.519,7.047-13.666,9.227C61.613,91.794,55.95,93,50,93z"/>
<path style="fill:#FFFFFF;" d="M19.3,37h3.4h3.4h3.4h3.4c0.525,0,1.037,0.019,1.536,0.058c0.498,0.039,0.983,0.098,1.451,0.179
	c0.469,0.082,0.922,0.185,1.358,0.311S38.1,37.825,38.5,38s0.787,0.362,1.159,0.564s0.728,0.417,1.066,0.649
	c0.338,0.231,0.656,0.478,0.953,0.742S42.25,40.5,42.5,40.8c0.275,0.3,0.531,0.612,0.769,0.938s0.456,0.663,0.656,1.013
	s0.381,0.713,0.544,1.088S44.775,44.6,44.9,45s0.237,0.806,0.336,1.219c0.098,0.412,0.183,0.831,0.252,1.256
	c0.069,0.425,0.122,0.856,0.157,1.294C45.681,49.206,45.7,49.65,45.7,50.1c0,0.675-0.031,1.331-0.095,1.969
	s-0.161,1.256-0.293,1.856c-0.131,0.6-0.297,1.181-0.498,1.744S44.375,56.775,44.1,57.3c-0.25,0.5-0.531,0.981-0.842,1.441
	s-0.651,0.897-1.02,1.309c-0.369,0.413-0.766,0.8-1.189,1.159S40.175,61.9,39.7,62.2l2.025,4.225l2.025,4.225l2.025,4.225L47.8,79.1
	h-2.275H43.25h-2.275H38.7l-1.675-3.85L35.35,71.4l-1.675-3.85L32,63.7h-1.15H29.7h-1.15H27.4v3.875v3.875v3.875V79.2h-2.025H23.35
	h-2.025H19.3V68.65V58.1V47.55V37z M32.5,56.1c0.375,0,0.737-0.031,1.083-0.095c0.345-0.064,0.673-0.161,0.979-0.293
	s0.59-0.297,0.848-0.498S35.9,54.775,36.1,54.5c0.225-0.275,0.419-0.562,0.583-0.864c0.164-0.302,0.298-0.617,0.404-0.948
	c0.106-0.332,0.185-0.679,0.236-1.043S37.4,50.9,37.4,50.5c0-0.425-0.025-0.831-0.076-1.217s-0.13-0.751-0.236-1.095
	c-0.107-0.344-0.241-0.666-0.405-0.965c-0.164-0.298-0.358-0.573-0.583-0.823s-0.469-0.469-0.731-0.656s-0.544-0.344-0.844-0.469
	s-0.619-0.219-0.956-0.281S32.875,44.9,32.5,44.9h-1.275H29.95h-1.275H27.4v2.8v2.8v2.8v2.8c0,0,0.319,0,0.797,0s1.116,0,1.753,0
	c0.638,0,1.275,0,1.753,0C32.181,56.1,32.5,56.1,32.5,56.1z"/>
<path d="M48.7,79.7h-2.55H43.6h-2.55H38.5l-1.7-3.875l-1.7-3.875l-1.7-3.875L31.7,64.2h-0.95H29.8h-0.95H27.9v3.875v3.875v3.875
	V79.7h-2.275H23.35h-2.275H18.8V68.9V58.1V47.3V36.5h3.525h3.525h3.525H32.9c0.55,0,1.081,0.025,1.595,0.073s1.011,0.12,1.493,0.214
	c0.481,0.094,0.947,0.21,1.398,0.346c0.451,0.136,0.889,0.292,1.314,0.467s0.831,0.369,1.219,0.581
	c0.388,0.213,0.756,0.444,1.106,0.694s0.681,0.519,0.994,0.806c0.312,0.287,0.606,0.594,0.881,0.919
	c0.275,0.3,0.537,0.619,0.784,0.955s0.478,0.689,0.691,1.058c0.213,0.368,0.406,0.753,0.578,1.151
	c0.172,0.398,0.322,0.811,0.447,1.236c0.125,0.4,0.237,0.812,0.336,1.236c0.099,0.423,0.183,0.858,0.252,1.301
	c0.069,0.444,0.121,0.897,0.157,1.358c0.036,0.461,0.055,0.93,0.055,1.405c0,0.7-0.031,1.381-0.095,2.042s-0.161,1.301-0.293,1.92
	c-0.131,0.619-0.297,1.216-0.498,1.79c-0.201,0.573-0.439,1.124-0.714,1.648c-0.25,0.5-0.525,0.975-0.825,1.425
	C43.475,59.575,43.15,60,42.8,60.4s-0.725,0.775-1.125,1.125c-0.4,0.35-0.825,0.675-1.275,0.975l2.075,4.3l2.075,4.3l2.075,4.3
	L48.7,79.7z M39.1,78.7h2h2h2h2l-2-4.15l-2-4.15l-2-4.15l-2-4.15l0.1-0.05L39.3,62l0.1-0.05l0.1-0.05
	c0.45-0.3,0.881-0.625,1.291-0.973c0.409-0.348,0.797-0.721,1.159-1.115c0.362-0.394,0.7-0.809,1.009-1.245
	c0.309-0.436,0.591-0.892,0.841-1.367c0.25-0.5,0.469-1.019,0.656-1.556c0.188-0.537,0.344-1.094,0.469-1.669
	c0.125-0.575,0.219-1.169,0.281-1.781S45.3,50.95,45.3,50.3c0-0.425-0.019-0.85-0.055-1.273c-0.036-0.424-0.089-0.846-0.157-1.264
	c-0.069-0.419-0.153-0.834-0.252-1.245C44.737,46.106,44.625,45.7,44.5,45.3c-0.125-0.375-0.269-0.744-0.43-1.103
	c-0.161-0.359-0.339-0.709-0.533-1.047c-0.194-0.337-0.403-0.662-0.626-0.972c-0.223-0.309-0.461-0.603-0.711-0.878
	s-0.519-0.544-0.806-0.801c-0.287-0.258-0.594-0.505-0.919-0.736c-0.325-0.231-0.669-0.447-1.031-0.643
	c-0.362-0.195-0.744-0.37-1.144-0.52c-0.375-0.175-0.775-0.325-1.195-0.452s-0.861-0.23-1.318-0.311s-0.928-0.141-1.411-0.18
	C33.894,37.618,33.4,37.6,32.9,37.6h-3.275H26.35h-3.275H19.8v10.3v10.3v10.3v10.3h1.775h1.775h1.775H26.9v-3.9V71v-3.9v-3.9h1.35
	h1.35h1.35h1.35l1.7,3.875l1.7,3.875l1.7,3.875L39.1,78.7z M32.5,56.6h-1.4h-1.4h-1.4h-1.4v-3.05V50.5v-3.05V44.4h1.4h1.4h1.4h1.4
	c0.425,0,0.825,0.037,1.202,0.111s0.73,0.183,1.061,0.327c0.331,0.143,0.64,0.321,0.929,0.532c0.289,0.211,0.558,0.455,0.808,0.73
	s0.463,0.575,0.641,0.898c0.178,0.324,0.322,0.671,0.434,1.04s0.194,0.759,0.247,1.17S37.9,50.05,37.9,50.5
	c0,0.425-0.031,0.838-0.092,1.234s-0.151,0.778-0.27,1.141c-0.119,0.362-0.266,0.706-0.44,1.028
	c-0.174,0.322-0.374,0.622-0.598,0.897c-0.25,0.3-0.519,0.562-0.808,0.787c-0.289,0.225-0.598,0.413-0.929,0.562
	c-0.332,0.15-0.685,0.263-1.061,0.338S32.925,56.6,32.5,56.6z M27.9,55.6h1.15h1.15h1.15h1.15c0.35,0,0.681-0.031,0.992-0.092
	s0.601-0.151,0.87-0.27c0.269-0.119,0.516-0.266,0.74-0.439c0.223-0.174,0.424-0.373,0.598-0.598c0.2-0.25,0.375-0.513,0.525-0.789
	c0.15-0.277,0.275-0.567,0.375-0.873c0.1-0.306,0.175-0.628,0.225-0.968c0.05-0.339,0.075-0.695,0.075-1.07
	c0-0.4-0.025-0.781-0.075-1.142s-0.125-0.701-0.225-1.02s-0.225-0.615-0.375-0.889c-0.15-0.274-0.325-0.524-0.525-0.749
	s-0.419-0.419-0.656-0.583c-0.237-0.164-0.494-0.298-0.769-0.404c-0.275-0.107-0.569-0.185-0.881-0.236S32.75,45.4,32.4,45.4h-1.15
	H30.1h-1.15H27.8v2.55v2.55v2.55v2.55h0.025h0.025h0.025H27.9z"/>
<path style="fill:#FFFFFF;" d="M53.7,37h2.2h2.2h2.2h2.2l2.15,7.7l2.15,7.7l2.15,7.7l2.15,7.7l2.125-7.7l2.125-7.7l2.125-7.7
	L79.6,37h2.125h2.125h2.125H88.1l-3.25,10.55L81.6,58.1l-3.25,10.55L75.1,79.2H73h-2.1h-2.1h-2.1l-3.25-10.55L60.2,58.1l-3.25-10.55
	L53.7,37z"/>
<path d="M75.5,79.7h-2.3h-2.3h-2.3h-2.3l-3.325-10.8L59.65,58.1l-3.325-10.8L53,36.5h2.475h2.475h2.475H62.9l2.075,7.375
	l2.075,7.375l2.075,7.375L71.2,66l2.025-7.35l2.025-7.35l2.025-7.35L79.3,36.6h2.375h2.375h2.375H88.8l-3.325,10.775L82.15,58.15
	l-3.325,10.775L75.5,79.7z M67.1,78.7h1.925h1.925h1.925H74.8l3.175-10.3l3.175-10.3l3.175-10.3L87.5,37.5h-1.875H83.75h-1.875H80
	l-2.2,8.05l-2.2,8.05l-2.2,8.05l-2.2,8.05l-2.25-8.05L66.7,53.6l-2.25-8.05L62.2,37.5h-1.95H58.3h-1.95H54.4l3.175,10.3l3.175,10.3
	l3.175,10.3L67.1,78.7z"/>
<path style="fill:#FFFFFF;" d="M51.1,7.5c-1.775,0-3.469,0.375-5.011,1.053c-1.542,0.678-2.933,1.659-4.101,2.872
	c-1.169,1.213-2.116,2.656-2.771,4.259S38.2,19.05,38.2,20.9s0.362,3.612,1.017,5.216c0.655,1.603,1.601,3.047,2.77,4.259
	c1.169,1.212,2.56,2.194,4.102,2.872c1.542,0.678,3.236,1.053,5.011,1.053s3.469-0.375,5.011-1.053
	c1.542-0.678,2.933-1.659,4.101-2.872c1.169-1.212,2.116-2.656,2.771-4.259S64,22.75,64,20.9s-0.362-3.613-1.017-5.216
	s-1.601-3.047-2.77-4.259c-1.169-1.212-2.56-2.194-4.102-2.872C54.569,7.875,52.875,7.5,51.1,7.5z M52.9,20.5l1.575-1.575
	l1.575-1.575l1.575-1.575L59.2,14.2c0.35,0.45,0.662,0.931,0.934,1.441c0.272,0.509,0.503,1.047,0.691,1.609s0.331,1.15,0.428,1.759
	S61.4,20.25,61.4,20.9c0,0.575-0.044,1.144-0.128,1.7c-0.084,0.556-0.209,1.1-0.372,1.625s-0.362,1.031-0.597,1.512
	C60.069,26.219,59.8,26.675,59.5,27.1l-1.65-1.65L56.2,23.8l-1.65-1.65L52.9,20.5z M57.4,12.4l-1.575,1.575L54.25,15.55
	l-1.575,1.575L51.1,18.7l-1.575-1.575L47.95,15.55l-1.575-1.575L44.8,12.4c0.45-0.35,0.919-0.663,1.406-0.934
	c0.487-0.272,0.994-0.503,1.519-0.691s1.069-0.331,1.631-0.428C49.919,10.25,50.5,10.2,51.1,10.2c0.6-0.025,1.188,0.012,1.758,0.105
	c0.57,0.092,1.123,0.239,1.654,0.432s1.041,0.434,1.524,0.714C56.519,11.731,56.975,12.05,57.4,12.4z M43,14.2l1.575,1.575
	l1.575,1.575l1.575,1.575L49.3,20.5l-1.65,1.65L46,23.8l-1.65,1.65L42.7,27.1c-0.3-0.45-0.569-0.919-0.803-1.405
	c-0.234-0.486-0.434-0.989-0.597-1.508c-0.163-0.518-0.288-1.053-0.372-1.601C40.844,22.037,40.8,21.475,40.8,20.9
	c-0.025-0.625,0.013-1.244,0.105-1.848c0.092-0.605,0.239-1.195,0.433-1.764c0.194-0.569,0.434-1.115,0.714-1.632
	C42.331,15.137,42.65,14.65,43,14.2z M44.4,29.1l1.675-1.675l1.675-1.675l1.675-1.675L51.1,22.4l1.675,1.675l1.675,1.675
	l1.675,1.675L57.8,29.1c-0.45,0.4-0.938,0.762-1.455,1.081S55.281,30.775,54.712,31c-0.569,0.225-1.159,0.4-1.764,0.519
	S51.725,31.7,51.1,31.7c-0.65-0.025-1.281-0.1-1.891-0.223s-1.197-0.296-1.759-0.515s-1.1-0.485-1.609-0.795
	C45.331,29.856,44.85,29.5,44.4,29.1z"/>
<path d="M51.1,34.8c-1.85,0-3.612-0.388-5.216-1.089c-1.603-0.701-3.047-1.717-4.259-2.973s-2.194-2.753-2.872-4.417
	C38.075,24.656,37.7,22.825,37.7,20.9s0.375-3.756,1.053-5.42c0.678-1.664,1.659-3.161,2.872-4.417
	c1.213-1.257,2.656-2.272,4.259-2.974C47.487,7.387,49.25,7,51.1,7s3.612,0.387,5.216,1.089c1.603,0.702,3.047,1.717,4.259,2.973
	c1.213,1.257,2.194,2.753,2.872,4.418c0.678,1.664,1.053,3.495,1.053,5.42s-0.375,3.756-1.053,5.42
	c-0.678,1.664-1.659,3.161-2.872,4.417s-2.656,2.272-4.259,2.973C54.713,34.412,52.95,34.8,51.1,34.8z M51.1,8
	c-1.725,0-3.362,0.363-4.848,1.017s-2.82,1.602-3.94,2.771s-2.022,2.559-2.645,4.102c-0.623,1.542-0.967,3.235-0.967,5.01
	s0.35,3.469,0.981,5.011c0.631,1.542,1.544,2.933,2.669,4.101s2.462,2.116,3.944,2.77S49.4,33.8,51.1,33.8
	c1.725,0,3.362-0.362,4.848-1.017s2.82-1.602,3.94-2.771s2.022-2.559,2.645-4.101S63.5,22.675,63.5,20.9s-0.344-3.469-0.967-5.011
	s-1.526-2.933-2.645-4.102s-2.453-2.116-3.939-2.77S52.825,8,51.1,8z M51.1,32.1c-0.65,0-1.294-0.062-1.925-0.183
	c-0.631-0.12-1.25-0.298-1.85-0.529s-1.181-0.515-1.737-0.848S44.5,29.825,44,29.4l-0.1-0.1l-0.1-0.1l-0.1-0.1L43.6,29l1.85-1.85
	l1.85-1.85l1.85-1.85L51,21.6l1.85,1.85l1.85,1.85l1.85,1.85L58.4,29l-0.1,0.1l-0.1,0.1l-0.1,0.1L58,29.4
	c-0.45,0.45-0.944,0.844-1.472,1.181C56,30.919,55.438,31.2,54.85,31.425c-0.588,0.225-1.2,0.394-1.828,0.506
	C52.394,32.044,51.75,32.1,51.1,32.1z M45.1,29c0.425,0.35,0.875,0.656,1.345,0.919s0.961,0.481,1.467,0.656
	c0.507,0.175,1.028,0.306,1.561,0.394S50.55,31.1,51.1,31.1s1.094-0.044,1.627-0.131c0.533-0.087,1.055-0.219,1.561-0.394
	c0.506-0.175,0.997-0.394,1.467-0.656S56.675,29.35,57.1,29l-1.5-1.5L54.1,26l-1.5-1.5L51.1,23l-1.5,1.5L48.1,26l-1.5,1.5L45.1,29z
	 M42.6,27.9l-0.075-0.125L42.45,27.65l-0.075-0.125L42.3,27.4c-0.325-0.475-0.612-0.975-0.861-1.494
	c-0.248-0.519-0.458-1.056-0.626-1.606c-0.169-0.55-0.297-1.112-0.383-1.681S40.3,21.475,40.3,20.9c0-0.625,0.05-1.25,0.148-1.867
	c0.098-0.617,0.245-1.227,0.439-1.821c0.194-0.594,0.435-1.171,0.721-1.726c0.286-0.555,0.617-1.086,0.992-1.586l0.075-0.125
	l0.075-0.125l0.075-0.125L42.9,13.4l1.775,1.775l1.775,1.775l1.775,1.775L50,20.5l-1.85,1.85L46.3,24.2l-1.85,1.85L42.6,27.9z
	 M43,15c-0.3,0.425-0.562,0.875-0.787,1.344S41.8,17.3,41.65,17.8s-0.263,1.013-0.338,1.531C41.238,19.85,41.2,20.375,41.2,20.9
	c0,0.475,0.031,0.95,0.094,1.42c0.062,0.47,0.156,0.936,0.281,1.392s0.281,0.903,0.469,1.336C42.231,25.481,42.45,25.9,42.7,26.3
	l1.45-1.45l1.45-1.45l1.45-1.45l1.45-1.45l-1.375-1.375L45.75,17.75l-1.375-1.375L43,15z M59.6,27.9l-1.85-1.85L55.9,24.2
	l-1.85-1.85L52.2,20.5l1.775-1.775l1.775-1.775l1.775-1.775L59.3,13.4l0.075,0.125l0.075,0.125l0.075,0.125L59.6,13.9
	c0.375,0.5,0.706,1.025,0.992,1.572c0.286,0.547,0.526,1.116,0.72,1.703c0.194,0.588,0.341,1.194,0.44,1.816
	C61.85,19.612,61.9,20.25,61.9,20.9c0,0.575-0.044,1.15-0.13,1.719c-0.086,0.569-0.214,1.131-0.383,1.681
	c-0.169,0.55-0.378,1.087-0.626,1.606c-0.248,0.519-0.536,1.019-0.861,1.494l-0.075,0.125L59.75,27.65l-0.075,0.125L59.6,27.9z
	 M53.6,20.5l1.45,1.45l1.45,1.45l1.45,1.45l1.45,1.45c0.25-0.4,0.469-0.819,0.656-1.251s0.344-0.88,0.469-1.336
	s0.219-0.922,0.281-1.392S60.9,21.375,60.9,20.9c0-0.525-0.037-1.05-0.112-1.569C60.713,18.812,60.6,18.3,60.45,17.8
	s-0.337-0.987-0.562-1.456C59.663,15.875,59.4,15.425,59.1,15l-1.375,1.375L56.35,17.75l-1.375,1.375L53.6,20.5z M51.1,19.4
	l-1.775-1.775L47.55,15.85l-1.775-1.775L44,12.3l0.1-0.075l0.1-0.075l0.1-0.075L44.4,12c0.475-0.375,0.975-0.706,1.495-0.992
	c0.52-0.286,1.061-0.526,1.617-0.72c0.556-0.194,1.128-0.341,1.711-0.44C49.806,9.75,50.4,9.7,51,9.7s1.194,0.05,1.777,0.148
	c0.583,0.099,1.154,0.246,1.71,0.44c0.556,0.194,1.097,0.434,1.618,0.72c0.52,0.286,1.02,0.617,1.495,0.992l0.1,0.075l0.1,0.075
	l0.1,0.075L58,12.3l-1.725,1.775L54.55,15.85l-1.725,1.775L51.1,19.4z M45.5,12.4l1.4,1.4l1.4,1.4l1.4,1.4l1.4,1.4l1.4-1.4l1.4-1.4
	l1.4-1.4l1.4-1.4c-0.4-0.3-0.825-0.562-1.269-0.788c-0.444-0.225-0.906-0.413-1.381-0.562s-0.963-0.262-1.456-0.337
	C52.1,10.637,51.6,10.6,51.1,10.6s-0.994,0.037-1.48,0.113c-0.486,0.075-0.964,0.188-1.432,0.337s-0.928,0.338-1.377,0.562
	C46.363,11.837,45.925,12.1,45.5,12.4z"/>
</svg>
