<?xml version="1.0" encoding="iso-8859-1"?>
<!-- Generator: Adobe Illustrator 25.3.1, SVG Export Plug-In . SVG Version: 6.00 Build 0)  -->
<svg version="1.1" id="Layer_1" xmlns="http://www.w3.org/2000/svg" xmlns:xlink="http://www.w3.org/1999/xlink" x="0px" y="0px"
	 viewBox="0 0 100 100" style="enable-background:new 0 0 100 100;" xml:space="preserve">
<path style="fill:#A4251A;" d="M50,2.4c6.572,0,12.833,1.332,18.528,3.741c5.695,2.409,10.823,5.894,15.13,10.201
	s7.793,9.435,10.201,15.13C96.268,37.167,97.6,43.428,97.6,50s-1.332,12.833-3.741,18.528c-2.409,5.695-5.894,10.823-10.201,15.13
	s-9.436,7.793-15.13,10.201C62.833,96.268,56.572,97.6,50,97.6s-12.833-1.332-18.528-3.741c-5.695-2.409-10.823-5.894-15.13-10.201
	s-7.792-9.436-10.201-15.13S2.4,56.572,2.4,50s1.332-12.833,3.741-18.528s5.894-10.823,10.201-15.13s9.435-7.792,15.13-10.201
	S43.428,2.4,50,2.4z"/>
<path style="fill:#440C09;" d="M50,1.9c-6.625,0-12.944,1.35-18.695,3.789s-10.936,5.967-15.292,10.324S8.129,25.554,5.69,31.305
	S1.9,43.375,1.9,50s1.35,12.944,3.789,18.695s5.967,10.936,10.324,15.293s9.541,7.884,15.292,10.323S43.375,98.1,50,98.1
	s12.944-1.344,18.695-3.775c5.752-2.431,10.936-5.95,15.293-10.3s7.884-9.531,10.323-15.287S98.1,56.65,98.1,50
	s-1.35-12.981-3.789-18.737s-5.967-10.938-10.323-15.288s-9.54-7.869-15.292-10.3C62.944,3.244,56.625,1.9,50,1.9z M50,93
	c-5.95,0-11.612-1.2-16.759-3.372s-9.778-5.316-13.666-9.203s-7.031-8.519-9.203-13.666C8.2,61.613,7,55.95,7,50
	s1.2-11.612,3.372-16.759s5.316-9.778,9.203-13.666s8.519-7.031,13.666-9.203S44.05,7,50,7s11.613,1.206,16.759,3.386
	s9.778,5.333,13.666,9.226s7.031,8.528,9.203,13.67S93,44.075,93,50s-1.2,11.575-3.372,16.717s-5.316,9.776-9.203,13.67
	s-8.519,7.047-13.666,9.227C61.613,91.794,55.95,93,50,93z"/>
<path d="M51.6,6.2c-1.775,0-3.469,0.375-5.011,1.053s-2.933,1.659-4.101,2.872c-1.169,1.212-2.116,2.656-2.771,4.259
	S38.7,17.75,38.7,19.6s0.362,3.613,1.017,5.216s1.602,3.047,2.771,4.259c1.169,1.212,2.559,2.194,4.101,2.872
	C48.131,32.625,49.825,33,51.6,33s3.469-0.375,5.011-1.053s2.933-1.659,4.101-2.872c1.169-1.213,2.116-2.656,2.771-4.259
	C64.137,23.212,64.5,21.45,64.5,19.6s-0.363-3.612-1.017-5.216c-0.655-1.603-1.601-3.047-2.77-4.259
	c-1.169-1.212-2.56-2.194-4.102-2.872S53.375,6.2,51.6,6.2z M53.4,19.3l1.575-1.575l1.575-1.575l1.575-1.575L59.7,13
	c0.35,0.45,0.663,0.931,0.934,1.441c0.272,0.509,0.503,1.047,0.691,1.609s0.331,1.15,0.428,1.759C61.85,18.419,61.9,19.05,61.9,19.7
	c0,0.575-0.044,1.144-0.128,1.7c-0.084,0.556-0.209,1.1-0.372,1.625c-0.162,0.525-0.362,1.031-0.597,1.512
	C60.569,25.019,60.3,25.475,60,25.9l-1.65-1.65L56.7,22.6l-1.65-1.65L53.4,19.3z M57.9,11.1l-1.575,1.575L54.75,14.25l-1.575,1.575
	L51.6,17.4l-1.575-1.575L48.45,14.25l-1.575-1.575L45.3,11.1c0.45-0.35,0.919-0.663,1.406-0.934
	c0.487-0.272,0.994-0.503,1.519-0.691s1.069-0.331,1.631-0.428C50.419,8.95,51,8.9,51.6,8.9s1.188,0.05,1.758,0.147
	c0.57,0.097,1.123,0.241,1.654,0.428s1.041,0.419,1.524,0.691S57.475,10.75,57.9,11.1z M43.5,13l1.575,1.575l1.575,1.575
	l1.575,1.575L49.8,19.3l-1.65,1.65L46.5,22.6l-1.65,1.65L43.2,25.9c-0.3-0.45-0.569-0.919-0.803-1.405s-0.434-0.989-0.597-1.508
	c-0.162-0.518-0.287-1.053-0.372-1.601C41.344,20.837,41.3,20.275,41.3,19.7c-0.025-0.65,0.013-1.281,0.105-1.891
	c0.092-0.609,0.239-1.197,0.433-1.759c0.194-0.562,0.434-1.1,0.714-1.609S43.15,13.45,43.5,13z M44.9,27.8l1.675-1.675l1.675-1.675
	l1.675-1.675L51.6,21.1l1.675,1.675l1.675,1.675l1.675,1.675L58.3,27.8c-0.45,0.4-0.938,0.763-1.455,1.081
	c-0.517,0.319-1.064,0.594-1.633,0.819c-0.569,0.225-1.159,0.4-1.764,0.519C52.844,30.337,52.225,30.4,51.6,30.4
	c-0.65,0-1.281-0.062-1.891-0.181C49.1,30.1,48.512,29.925,47.95,29.7c-0.562-0.225-1.1-0.5-1.609-0.819
	C45.831,28.562,45.35,28.2,44.9,27.8z"/>
<path style="fill:#75140C;" d="M17.2,80.3V68.925V57.55V46.175V34.8h4.425h4.425h4.425H34.9c0.9,0,1.744,0.025,2.531,0.075
	c0.787,0.05,1.519,0.125,2.194,0.225s1.294,0.225,1.856,0.375S42.55,35.8,43,36c0.475,0.2,0.919,0.444,1.334,0.728
	c0.416,0.284,0.803,0.609,1.166,0.972s0.7,0.763,1.016,1.197c0.316,0.434,0.609,0.903,0.884,1.403
	c0.275,0.525,0.519,1.062,0.73,1.612c0.211,0.55,0.389,1.113,0.533,1.688c0.144,0.575,0.253,1.162,0.327,1.763
	c0.074,0.6,0.111,1.212,0.111,1.837c0,0.8-0.056,1.575-0.17,2.322c-0.114,0.747-0.286,1.466-0.518,2.153s-0.522,1.344-0.874,1.966
	c-0.352,0.622-0.764,1.209-1.239,1.759s-1.006,1.05-1.595,1.5c-0.589,0.45-1.236,0.85-1.942,1.2c-0.706,0.35-1.472,0.65-2.299,0.9
	s-1.714,0.45-2.665,0.6c0.35,0.2,0.681,0.394,0.992,0.584c0.311,0.191,0.601,0.378,0.87,0.566c0.269,0.187,0.516,0.375,0.74,0.566
	S40.825,61.7,41,61.9c0.375,0.4,0.75,0.825,1.123,1.277c0.373,0.452,0.745,0.93,1.114,1.436c0.369,0.506,0.735,1.04,1.096,1.604
	C44.694,66.781,45.05,67.375,45.4,68l1.75,3.1l1.75,3.1l1.75,3.1l1.75,3.1h-1.675H49.05h-1.675H45.7l-1.325-2.375L43.05,75.65
	l-1.325-2.375L40.4,70.9c-0.375-0.675-0.737-1.312-1.086-1.912c-0.348-0.6-0.683-1.163-1.001-1.688
	c-0.319-0.525-0.622-1.012-0.908-1.463c-0.286-0.45-0.555-0.862-0.805-1.237c-0.25-0.35-0.494-0.681-0.731-0.989
	c-0.237-0.308-0.469-0.592-0.694-0.849c-0.225-0.256-0.444-0.484-0.656-0.679C34.306,61.887,34.1,61.725,33.9,61.6
	c-0.2-0.15-0.4-0.287-0.6-0.412c-0.2-0.125-0.4-0.238-0.6-0.338s-0.4-0.188-0.6-0.263c-0.2-0.075-0.4-0.138-0.6-0.188
	c-0.15-0.025-0.325-0.05-0.524-0.073c-0.198-0.024-0.42-0.046-0.664-0.065c-0.243-0.018-0.509-0.034-0.795-0.045
	C29.231,60.206,28.925,60.2,28.6,60.2h-1.525H25.55h-1.525H22.5v5.05v5.05v5.05v5.05h-1.325H19.85h-1.325H17.2v-0.025V80.35v-0.025
	V80.3z M22.5,54.9h2.85h2.85h2.85h2.85c0.6,0,1.169-0.019,1.706-0.056c0.538-0.037,1.044-0.094,1.519-0.169
	c0.475-0.075,0.919-0.169,1.331-0.281C38.869,54.281,39.25,54.15,39.6,54s0.675-0.319,0.977-0.506
	c0.301-0.188,0.579-0.394,0.835-0.619s0.491-0.469,0.705-0.731c0.214-0.263,0.408-0.544,0.583-0.844
	c0.175-0.325,0.331-0.65,0.467-0.978c0.136-0.328,0.251-0.659,0.345-0.997s0.166-0.681,0.214-1.034
	c0.049-0.353,0.074-0.716,0.074-1.091c0-0.55-0.044-1.069-0.131-1.559c-0.088-0.491-0.219-0.953-0.394-1.391
	s-0.394-0.85-0.656-1.241S42.05,42.25,41.7,41.9s-0.744-0.656-1.184-0.919c-0.441-0.263-0.928-0.481-1.466-0.656
	s-1.125-0.306-1.766-0.394S35.95,39.8,35.2,39.8h-3.175H28.85h-3.175H22.5v3.775v3.775v3.775V54.9z"/>
<path style="fill:#FFFFFF;" d="M53.3,80.8h-1.95H49.4h-1.95H45.5l-1.375-2.425L42.75,75.95l-1.375-2.425L40,71.1
	c-0.375-0.675-0.737-1.312-1.086-1.911c-0.349-0.598-0.683-1.158-1.002-1.677c-0.319-0.519-0.621-0.996-0.907-1.432
	c-0.286-0.436-0.555-0.83-0.805-1.18s-0.487-0.675-0.716-0.973c-0.228-0.299-0.447-0.57-0.659-0.814s-0.419-0.459-0.622-0.645
	C34,62.281,33.8,62.125,33.6,62c-0.175-0.125-0.356-0.244-0.542-0.355s-0.376-0.214-0.57-0.307c-0.194-0.094-0.391-0.179-0.59-0.252
	C31.7,61.013,31.5,60.95,31.3,60.9c-0.125-0.025-0.281-0.05-0.466-0.073c-0.184-0.024-0.397-0.046-0.634-0.065
	c-0.238-0.019-0.5-0.034-0.784-0.045C29.131,60.706,28.825,60.7,28.5,60.7h-1.375H25.75h-1.375H23v5.05v5.05v5.05v5.05h-1.575H19.85
	h-1.575H16.7V69.25V57.6V45.95V34.3h4.55h4.55h4.55h4.55c0.9,0,1.75,0.025,2.548,0.076c0.798,0.051,1.545,0.129,2.239,0.236
	c0.694,0.106,1.334,0.241,1.92,0.405c0.586,0.164,1.117,0.357,1.593,0.582c0.475,0.225,0.931,0.487,1.367,0.789
	c0.436,0.301,0.851,0.642,1.245,1.023c0.394,0.382,0.766,0.804,1.114,1.269C47.275,39.144,47.6,39.65,47.9,40.2
	c0.275,0.525,0.519,1.069,0.73,1.63c0.211,0.561,0.389,1.139,0.533,1.732c0.144,0.594,0.253,1.203,0.326,1.827S49.6,46.65,49.6,47.3
	c0,0.825-0.062,1.625-0.186,2.397c-0.123,0.772-0.308,1.516-0.551,2.228c-0.244,0.712-0.547,1.394-0.908,2.041
	c-0.361,0.647-0.78,1.259-1.255,1.834c-0.425,0.5-0.9,0.962-1.425,1.388c-0.525,0.425-1.1,0.812-1.725,1.162s-1.3,0.662-2.025,0.938
	C40.8,59.562,40.025,59.8,39.2,60c0.225,0.15,0.438,0.294,0.638,0.434c0.2,0.141,0.387,0.278,0.562,0.416
	c0.175,0.138,0.338,0.275,0.487,0.416c0.15,0.141,0.288,0.284,0.413,0.434c0.4,0.4,0.794,0.831,1.181,1.292
	c0.387,0.461,0.769,0.951,1.144,1.47s0.744,1.065,1.106,1.639c0.362,0.574,0.719,1.174,1.069,1.799l1.875,3.225l1.875,3.225
	l1.875,3.225L53.3,80.8z M46.1,79.8h1.375h1.375h1.375H51.6l-1.65-2.9L48.3,74l-1.65-2.9L45,68.2c-0.35-0.6-0.7-1.175-1.052-1.725
	c-0.351-0.55-0.704-1.075-1.06-1.575c-0.356-0.5-0.716-0.975-1.08-1.425c-0.364-0.45-0.733-0.875-1.108-1.275
	c-0.175-0.175-0.369-0.35-0.583-0.527c-0.214-0.176-0.449-0.354-0.705-0.535c-0.256-0.181-0.534-0.366-0.836-0.555
	C38.275,60.394,37.95,60.2,37.6,60l-0.325-0.175L36.95,59.65l-0.325-0.175L36.3,59.3l0.375-0.05l0.375-0.05l0.375-0.05L37.8,59.1
	c0.925-0.15,1.794-0.344,2.603-0.583c0.809-0.239,1.559-0.524,2.247-0.855s1.312-0.709,1.872-1.136S45.575,55.625,46,55.1
	c0.45-0.525,0.838-1.088,1.166-1.684s0.597-1.228,0.809-1.891c0.213-0.662,0.369-1.356,0.472-2.078
	C48.55,48.725,48.6,47.975,48.6,47.2c0-0.6-0.031-1.188-0.095-1.763c-0.064-0.575-0.161-1.137-0.293-1.688
	c-0.131-0.55-0.296-1.088-0.498-1.612C47.513,41.612,47.275,41.1,47,40.6c-0.25-0.5-0.531-0.956-0.839-1.372
	c-0.308-0.416-0.642-0.791-0.999-1.128c-0.356-0.338-0.734-0.638-1.13-0.903C43.637,36.931,43.224,36.7,42.8,36.5
	c-0.45-0.2-0.95-0.375-1.501-0.525c-0.552-0.15-1.155-0.275-1.811-0.375s-1.366-0.175-2.13-0.225
	c-0.764-0.05-1.583-0.075-2.458-0.075h-4.3h-4.3H22h-4.3v11.125V57.55v11.125V79.8h1.075h1.075h1.075H22v-5.05V69.7v-5.05V59.6h1.65
	h1.65h1.65h1.65c0.35,0,0.675,0.006,0.976,0.017s0.58,0.026,0.836,0.045c0.257,0.019,0.491,0.041,0.705,0.065
	c0.214,0.023,0.408,0.049,0.583,0.073c0.225,0.05,0.45,0.119,0.674,0.203s0.445,0.184,0.665,0.297
	c0.218,0.112,0.434,0.237,0.645,0.372C33.894,60.806,34.1,60.95,34.3,61.1s0.412,0.331,0.634,0.542
	c0.222,0.211,0.453,0.452,0.691,0.721c0.237,0.269,0.481,0.565,0.728,0.889C36.6,63.575,36.85,63.925,37.1,64.3
	s0.519,0.787,0.805,1.238c0.286,0.45,0.589,0.938,0.908,1.462c0.319,0.525,0.653,1.088,1.001,1.688
	c0.348,0.6,0.711,1.238,1.086,1.912l1.3,2.3l1.3,2.3l1.3,2.3L46.1,79.8z M33.9,55.4h-2.975H27.95h-2.975H22v-4.025V47.35v-4.025
	V39.3h3.275h3.275h3.275H35.1c0.775,0,1.5,0.05,2.175,0.147c0.675,0.097,1.3,0.241,1.875,0.428s1.1,0.419,1.575,0.691
	C41.2,40.838,41.625,41.15,42,41.5c0.375,0.375,0.7,0.775,0.977,1.2c0.276,0.425,0.504,0.875,0.685,1.35
	c0.181,0.475,0.316,0.975,0.405,1.5c0.089,0.525,0.133,1.075,0.133,1.65c0,0.4-0.025,0.787-0.073,1.164
	c-0.049,0.377-0.121,0.742-0.215,1.099c-0.094,0.356-0.209,0.703-0.345,1.042c-0.136,0.339-0.292,0.67-0.467,0.995
	c-0.2,0.325-0.419,0.631-0.656,0.917c-0.237,0.286-0.494,0.552-0.769,0.796c-0.275,0.243-0.569,0.465-0.881,0.664
	S40.15,54.25,39.8,54.4c-0.375,0.175-0.781,0.325-1.217,0.451c-0.436,0.126-0.902,0.229-1.396,0.311
	c-0.493,0.081-1.015,0.141-1.564,0.18C35.075,55.381,34.5,55.4,33.9,55.4z M23,54.4h2.725h2.725h2.725H33.9
	c0.575,0,1.125-0.019,1.647-0.055c0.522-0.036,1.016-0.089,1.478-0.158c0.463-0.069,0.894-0.153,1.291-0.251
	c0.397-0.098,0.759-0.211,1.084-0.336s0.625-0.275,0.903-0.447s0.534-0.366,0.772-0.578c0.237-0.212,0.456-0.444,0.659-0.691
	c0.203-0.247,0.391-0.509,0.566-0.784c0.175-0.3,0.325-0.606,0.452-0.917s0.23-0.626,0.311-0.945
	c0.081-0.319,0.14-0.641,0.179-0.965C43.281,47.95,43.3,47.625,43.3,47.3c0-0.5-0.038-0.981-0.114-1.442
	c-0.077-0.461-0.192-0.902-0.349-1.321c-0.156-0.418-0.353-0.815-0.592-1.189c-0.239-0.373-0.52-0.723-0.845-1.048
	s-0.694-0.606-1.108-0.845c-0.414-0.239-0.873-0.436-1.379-0.593s-1.059-0.272-1.661-0.348C36.65,40.437,36,40.4,35.3,40.4h-3.075
	H29.15h-3.075H23v3.5v3.5v3.5V54.4z"/>
<path style="fill:#75140C;" d="M67.8,80.3l-3.85-11.375L60.1,57.55l-3.85-11.375L52.4,34.8h1.425h1.425h1.425H58.1l2.6,8.275
	l2.6,8.275l2.6,8.275l2.6,8.275c0.2,0.675,0.394,1.331,0.581,1.973c0.188,0.642,0.369,1.27,0.544,1.889
	c0.175,0.619,0.344,1.229,0.506,1.833S70.45,74.8,70.6,75.4c0.15-0.625,0.306-1.25,0.47-1.875s0.336-1.25,0.518-1.875
	c0.181-0.625,0.371-1.25,0.573-1.875s0.414-1.25,0.639-1.875l2.7-8.275l2.7-8.275l2.7-8.275l2.7-8.275h1.35h1.35h1.35H89
	l-3.925,11.375L81.15,57.55l-3.925,11.375L73.3,80.3h-1.375H70.55h-1.375H67.8z"/>
<path style="fill:#FFFFFF;" d="M73.6,80.8h-1.525H70.55h-1.525H67.5l-3.95-11.625L59.6,57.55l-3.95-11.625L51.7,34.3h1.7h1.7h1.7
	h1.7l2.625,8.35L63.75,51l2.625,8.35L69,67.7c0.15,0.475,0.3,0.95,0.447,1.424s0.291,0.946,0.428,1.414
	c0.137,0.469,0.269,0.934,0.391,1.395S70.5,72.85,70.6,73.3c0.125-0.475,0.256-0.944,0.392-1.409
	c0.136-0.466,0.276-0.928,0.42-1.391c0.144-0.463,0.291-0.925,0.44-1.391C72,68.644,72.15,68.175,72.3,67.7l2.725-8.35L77.75,51
	l2.725-8.35L83.2,34.3h1.625h1.625h1.625H89.7l-4.025,11.625L81.65,57.55l-4.025,11.625L73.6,80.8z M68.2,79.8h1.175h1.175h1.175
	H72.9l3.825-11.125L80.55,57.55l3.825-11.125L88.2,35.3h-1.075H86.05h-1.075H83.9l-2.675,8.175L78.55,51.65l-2.675,8.175L73.2,68
	c-0.2,0.625-0.394,1.244-0.581,1.859s-0.369,1.228-0.544,1.841s-0.344,1.225-0.506,1.841S71.25,74.775,71.1,75.4h-0.25H70.6h-0.25
	H70.1c-0.15-0.575-0.306-1.162-0.469-1.761c-0.162-0.598-0.331-1.208-0.506-1.827c-0.175-0.618-0.356-1.246-0.544-1.882
	C68.394,69.294,68.2,68.65,68,68l-2.575-8.175L62.85,51.65l-2.575-8.175L57.7,35.3h-1.175H55.35h-1.175H53l3.8,11.125l3.8,11.125
	l3.8,11.125L68.2,79.8z"/>
</svg>
