<?xml version="1.0" encoding="iso-8859-1"?>
<!-- Generator: Adobe Illustrator 25.3.1, SVG Export Plug-In . SVG Version: 6.00 Build 0)  -->
<svg version="1.1" id="Layer_1" xmlns="http://www.w3.org/2000/svg" xmlns:xlink="http://www.w3.org/1999/xlink" x="0px" y="0px"
	 viewBox="0 0 100 100" style="enable-background:new 0 0 100 100;" xml:space="preserve">
<path style="fill:#A4251A;" d="M50,2.4c6.572,0,12.833,1.332,18.528,3.741c5.695,2.409,10.823,5.894,15.13,10.201
	s7.793,9.435,10.201,15.13C96.268,37.167,97.6,43.428,97.6,50s-1.332,12.833-3.741,18.528c-2.409,5.695-5.894,10.823-10.201,15.13
	s-9.436,7.793-15.13,10.201C62.833,96.268,56.572,97.6,50,97.6s-12.833-1.332-18.528-3.741c-5.695-2.409-10.823-5.894-15.13-10.201
	s-7.792-9.436-10.201-15.13S2.4,56.572,2.4,50s1.332-12.833,3.741-18.528s5.894-10.823,10.201-15.13s9.435-7.792,15.13-10.201
	S43.428,2.4,50,2.4z"/>
<path style="fill:#440C09;" d="M50,1.9c-6.625,0-12.944,1.35-18.695,3.789s-10.936,5.967-15.292,10.324S8.129,25.554,5.69,31.305
	S1.9,43.375,1.9,50s1.35,12.944,3.789,18.695s5.967,10.936,10.324,15.293s9.541,7.884,15.292,10.323S43.375,98.1,50,98.1
	s12.944-1.344,18.695-3.775c5.752-2.431,10.936-5.95,15.293-10.3s7.884-9.531,10.323-15.287S98.1,56.65,98.1,50
	s-1.35-12.981-3.789-18.737s-5.967-10.938-10.323-15.288s-9.54-7.869-15.292-10.3C62.944,3.244,56.625,1.9,50,1.9z M50,93
	c-5.95,0-11.612-1.2-16.759-3.372s-9.778-5.316-13.666-9.203s-7.031-8.519-9.203-13.666C8.2,61.613,7,55.95,7,50
	s1.2-11.612,3.372-16.759s5.316-9.778,9.203-13.666s8.519-7.031,13.666-9.203S44.05,7,50,7s11.613,1.206,16.759,3.386
	s9.778,5.333,13.666,9.226s7.031,8.528,9.203,13.67S93,44.075,93,50s-1.2,11.575-3.372,16.717s-5.316,9.776-9.203,13.67
	s-8.519,7.047-13.666,9.227C61.613,91.794,55.95,93,50,93z"/>
<path style="fill:#FFFFFF;" d="M46.4,44h-4.025H38.35h-4.025H30.3v2.75v2.75v2.75V55H34h3.7h3.7h3.7v2.05v2.05v2.05v2.05h-3.7h-3.7
	H34h-3.7v4.375v4.375v4.375V80.7h-2.575H25.15h-2.575H20V69.45V58.2V46.95V35.7h6.6h6.6h6.6h6.6v2.075v2.075v2.075V44z"/>
<path d="M30.8,81.2h-2.825H25.15h-2.825H19.5V69.7V58.2V46.7V35.2h6.85h6.85h6.85h6.85v2.3v2.3v2.3v2.3h-4.025H38.85h-4.025H30.8
	v2.5v2.5v2.5v2.5h3.7h3.7h3.7h3.7v2.3V59v2.3v2.3h-3.7h-3.7h-3.7h-3.7V68v4.4c0,0,0,2.2,0,4.4C30.8,79,30.8,81.2,30.8,81.2z
	 M20.5,80.2h2.325h2.325h2.325H29.8v-4.375V71.45v-4.375V62.7h3.7h3.7h3.7h3.7v-1.8v-1.8v-1.8v-1.8h-3.7h-3.7h-3.7h-3.7v-3v-3v-3v-3
	h4.025h4.025h4.025H45.9v-1.8v-1.8v-1.8v-1.8h-6.35H33.2h-6.35H20.5v10.975V58.25v10.975V80.2z"/>
<path style="fill:#FFFFFF;" d="M64.2,65.2v3.875v3.875v3.875V80.7h-2.575H59.05h-2.575H53.9V69.45V58.2V46.95V35.7h4.025h4.025
	h4.025H70c2.875,0,5.387,0.3,7.539,0.898c2.152,0.598,3.942,1.495,5.373,2.689c1.432,1.194,2.503,2.685,3.218,4.471
	c0.714,1.786,1.07,3.867,1.07,6.242c0,1.125-0.1,2.2-0.302,3.223c-0.202,1.024-0.505,1.996-0.911,2.915
	c-0.406,0.918-0.915,1.784-1.529,2.595S83.125,60.3,82.3,61s-1.719,1.312-2.681,1.838c-0.963,0.525-1.994,0.963-3.094,1.312
	s-2.269,0.612-3.506,0.787S70.475,65.2,69.1,65.2h-1.225H66.65c0,0-0.613,0-1.225,0C64.812,65.2,64.2,65.2,64.2,65.2z M64.2,43.5V47
	v3.5V54v3.5h1h1h1h1c1.375,0,2.575-0.15,3.602-0.448s1.88-0.745,2.561-1.339s1.19-1.334,1.53-2.22
	c0.339-0.886,0.508-1.918,0.508-3.093c0-1.15-0.169-2.156-0.508-3.019s-0.848-1.581-1.529-2.156
	c-0.681-0.575-1.535-1.006-2.561-1.294C70.775,43.644,69.575,43.5,68.2,43.5h-1h-1h-1H64.2z"/>
<path d="M64.7,81.2h-2.825H59.05h-2.825H53.4V69.7V58.2V46.7V35.2h4.15h4.15h4.15H70c2.95,0,5.531,0.312,7.744,0.934
	s4.056,1.553,5.531,2.791c1.475,1.238,2.581,2.781,3.319,4.628C87.331,45.4,87.7,47.55,87.7,50c0,1.15-0.106,2.256-0.319,3.312
	s-0.531,2.062-0.956,3.013S85.469,58.169,84.831,59c-0.637,0.831-1.381,1.6-2.231,2.3c-0.85,0.725-1.769,1.356-2.756,1.895
	s-2.044,0.986-3.169,1.342s-2.319,0.622-3.581,0.799S70.5,65.6,69.1,65.6H68h-1.1h-1.1h-1.1v3.9v3.9c0,0,0,1.95,0,3.9
	C64.7,79.25,64.7,81.2,64.7,81.2z M54.4,80.2h2.325h2.325h2.325H63.7v-3.875V72.45v-3.875V64.7h1.35h1.35h1.35h1.35
	c1.35,0,2.631-0.088,3.844-0.261c1.213-0.173,2.356-0.433,3.431-0.776c1.075-0.344,2.081-0.772,3.019-1.283S81.2,61.275,82,60.6
	c0.8-0.675,1.5-1.4,2.1-2.176c0.6-0.777,1.1-1.604,1.5-2.486c0.4-0.882,0.7-1.816,0.9-2.805c0.2-0.989,0.3-2.033,0.3-3.133
	c0-2.325-0.344-4.35-1.034-6.08c-0.691-1.73-1.728-3.164-3.116-4.308c-1.387-1.144-3.125-1.996-5.216-2.564
	C75.344,36.481,72.9,36.2,70.1,36.2h-3.925H62.25h-3.925H54.4v11v11v11V80.2z M68.2,58h-1.125H65.95h-1.125H63.7v-3.75V50.5v-3.75
	V43h1.125h1.125h1.125H68.2c1.45,0,2.719,0.156,3.806,0.467s1.994,0.776,2.719,1.395c0.725,0.619,1.269,1.391,1.631,2.314
	C76.719,48.1,76.9,49.175,76.9,50.4c0,1.275-0.181,2.388-0.544,3.339c-0.363,0.951-0.906,1.742-1.631,2.373
	c-0.725,0.632-1.631,1.104-2.719,1.418S69.65,58,68.2,58z M64.7,57h0.875h0.875h0.875H68.2c1.3,0,2.431-0.138,3.397-0.412
	C72.562,56.312,73.363,55.9,74,55.35c0.637-0.55,1.113-1.237,1.428-2.062C75.744,52.462,75.9,51.5,75.9,50.4
	c0-1.075-0.156-2.013-0.472-2.814c-0.316-0.802-0.791-1.467-1.428-1.998s-1.438-0.928-2.403-1.192C70.631,44.132,69.5,44,68.2,44
	h-0.875H66.45h-0.875H64.7v3.25v3.25v3.25V57z"/>
<polygon style="fill:#FFFFFF;" points="29,16.7 34.7,16.7 40.4,16.7 46.1,16.7 51.8,16.7 51.8,19.925 51.8,23.15 51.8,26.375 
	51.8,29.6 46.1,29.6 40.4,29.6 34.7,29.6 29,29.6 29,26.375 29,23.15 29,19.925 "/>
<path d="M51.3,17.2v2.975v2.975v2.975V29.1h-5.45H40.4h-5.45H29.5v-2.975V23.15v-2.975V17.2h5.45h5.45h5.45H51.3 M52.3,16.2h-0.25
	H51.8h-0.25H51.3h-5.45H40.4h-5.45H29.5h-0.25H29h-0.25H28.5v0.25v0.25v0.25v0.25v2.975v2.975v2.975V29.1v0.25v0.25v0.25v0.25h0.25
	H29h0.25h0.25h5.45h5.45h5.45h5.45h0.25h0.25h0.25h0.25v-0.25V29.6v-0.25V29.1v-2.975V23.15v-2.975V17.2v-0.25V16.7v-0.25L52.3,16.2
	L52.3,16.2L52.3,16.2L52.3,16.2L52.3,16.2z"/>
<polygon style="fill:#FFFFFF;" points="51.8,22.2 53.675,22.2 55.55,22.2 57.425,22.2 59.3,22.2 59.3,22.65 59.3,23.1 59.3,23.55 
	59.3,24 57.425,24 55.55,24 53.675,24 51.8,24 51.8,23.55 51.8,23.1 51.8,22.65 "/>
<path d="M59,22.6v0.25v0.25v0.25v0.25h-1.7h-1.7h-1.7h-1.7v-0.25V23.1v-0.25V22.6h1.7h1.7h1.7H59 M59.7,21.9h-0.175H59.35h-0.175H59
	h-1.7h-1.7h-1.7h-1.7H52h-0.2h-0.2h-0.2v0.2v0.2v0.2v0.2v0.25v0.25v0.25v0.25v0.2v0.2v0.2v0.2h0.2h0.2H52h0.2h1.7h1.7h1.7H59h0.2
	h0.2h0.2h0.2v-0.2v-0.2v-0.2v-0.2v-0.25V23.2v-0.25V22.7v-0.2v-0.2v-0.2v-0.2h-0.025H59.75h-0.025H59.7z"/>
<path style="fill:#FFFFFF;" d="M63.5,27.6c-0.675,0-1.312-0.137-1.889-0.384s-1.092-0.603-1.523-1.041
	c-0.431-0.438-0.778-0.956-1.018-1.528c-0.239-0.572-0.37-1.197-0.37-1.847s0.138-1.275,0.384-1.847
	c0.247-0.572,0.603-1.091,1.041-1.528s0.956-0.794,1.528-1.041C62.225,18.138,62.85,18,63.5,18s1.275,0.138,1.847,0.384
	c0.572,0.247,1.091,0.603,1.528,1.041s0.794,0.956,1.041,1.528C68.163,21.525,68.3,22.15,68.3,22.8s-0.131,1.275-0.37,1.847
	c-0.239,0.572-0.586,1.091-1.018,1.528c-0.431,0.438-0.947,0.794-1.523,1.041C64.812,27.462,64.175,27.6,63.5,27.6z"/>
<path d="M63.5,18.3c0.625,0,1.219,0.125,1.758,0.351s1.024,0.555,1.43,0.961s0.734,0.89,0.961,1.43C67.875,21.581,68,22.175,68,22.8
	s-0.125,1.219-0.352,1.758s-0.554,1.024-0.96,1.43s-0.891,0.735-1.43,0.961C64.719,27.175,64.125,27.3,63.5,27.3
	s-1.219-0.125-1.758-0.351c-0.539-0.226-1.024-0.555-1.43-0.961s-0.735-0.89-0.961-1.43C59.125,24.019,59,23.425,59,22.8
	c0.025-0.625,0.169-1.219,0.408-1.758c0.239-0.539,0.573-1.024,0.979-1.43s0.884-0.735,1.411-0.961
	C62.325,18.425,62.9,18.3,63.5,18.3 M63.5,17.6c-0.725,0-1.412,0.144-2.036,0.405c-0.624,0.261-1.183,0.639-1.652,1.107
	s-0.847,1.028-1.108,1.652S58.3,22.075,58.3,22.8s0.144,1.412,0.405,2.036s0.639,1.183,1.108,1.652s1.028,0.847,1.652,1.108
	C62.088,27.856,62.775,28,63.5,28s1.412-0.144,2.036-0.405c0.624-0.261,1.183-0.639,1.652-1.108s0.847-1.028,1.108-1.652
	c0.261-0.623,0.404-1.31,0.404-2.035s-0.144-1.413-0.405-2.036c-0.261-0.624-0.639-1.183-1.107-1.652s-1.028-0.847-1.652-1.108
	C64.913,17.743,64.225,17.6,63.5,17.6L63.5,17.6L63.5,17.6L63.5,17.6L63.5,17.6z"/>
</svg>
