<?xml version="1.0" encoding="iso-8859-1"?>
<!-- Generator: Adobe Illustrator 25.3.1, SVG Export Plug-In . SVG Version: 6.00 Build 0)  -->
<svg version="1.1" id="Layer_1" xmlns="http://www.w3.org/2000/svg" xmlns:xlink="http://www.w3.org/1999/xlink" x="0px" y="0px"
	 viewBox="0 0 100 100" style="enable-background:new 0 0 100 100;" xml:space="preserve">
<path style="fill:#A4251A;" d="M50,2.4c6.572,0,12.833,1.332,18.528,3.741c5.695,2.409,10.823,5.894,15.13,10.201
	s7.793,9.435,10.201,15.13C96.268,37.167,97.6,43.428,97.6,50s-1.332,12.833-3.741,18.528c-2.409,5.695-5.894,10.823-10.201,15.13
	s-9.436,7.793-15.13,10.201C62.833,96.268,56.572,97.6,50,97.6s-12.833-1.332-18.528-3.741c-5.695-2.409-10.823-5.894-15.13-10.201
	s-7.792-9.436-10.201-15.13S2.4,56.572,2.4,50s1.332-12.833,3.741-18.528s5.894-10.823,10.201-15.13s9.435-7.792,15.13-10.201
	S43.428,2.4,50,2.4z"/>
<path style="fill:#440C09;" d="M50,1.9c-6.625,0-12.944,1.35-18.695,3.789s-10.936,5.967-15.292,10.324S8.129,25.554,5.69,31.305
	S1.9,43.375,1.9,50s1.35,12.944,3.789,18.695s5.967,10.936,10.324,15.293s9.541,7.884,15.292,10.323S43.375,98.1,50,98.1
	s12.944-1.344,18.695-3.775c5.752-2.431,10.936-5.95,15.293-10.3s7.884-9.531,10.323-15.287S98.1,56.65,98.1,50
	s-1.35-12.981-3.789-18.737s-5.967-10.938-10.323-15.288s-9.54-7.869-15.292-10.3C62.944,3.244,56.625,1.9,50,1.9z M50,93
	c-5.95,0-11.612-1.2-16.759-3.372s-9.778-5.316-13.666-9.203s-7.031-8.519-9.203-13.666C8.2,61.613,7,55.95,7,50
	s1.2-11.612,3.372-16.759s5.316-9.778,9.203-13.666s8.519-7.031,13.666-9.203S44.05,7,50,7s11.613,1.206,16.759,3.386
	s9.778,5.333,13.666,9.226s7.031,8.528,9.203,13.67S93,44.075,93,50s-1.2,11.575-3.372,16.717s-5.316,9.776-9.203,13.67
	s-8.519,7.047-13.666,9.227C61.613,91.794,55.95,93,50,93z"/>
<path style="fill:#FFFFFF;" d="M16.1,59.5v-8.975V41.55v-8.975V23.6h3.5h3.5h3.5h3.5c3.525,0,6.606,0.363,9.245,1.089
	c2.639,0.727,4.836,1.817,6.592,3.274s3.072,3.278,3.949,5.467S51.2,38.175,51.2,41.1c0,1.4-0.119,2.731-0.358,3.992
	c-0.239,1.261-0.599,2.451-1.08,3.57c-0.481,1.119-1.084,2.166-1.811,3.139c-0.727,0.974-1.576,1.874-2.551,2.699
	c-0.95,0.825-1.988,1.55-3.109,2.173c-1.122,0.623-2.328,1.145-3.616,1.564c-1.288,0.419-2.656,0.735-4.103,0.946
	C33.125,59.394,31.6,59.5,30,59.5h-3.475H23.05h-3.475H16.1z M25,30.2v5.7v5.7v5.7V53h1.1h1.1h1.1h1.1
	c0.975,0,1.894-0.069,2.758-0.205c0.864-0.136,1.673-0.339,2.429-0.607c0.756-0.269,1.46-0.604,2.111-1.002
	c0.652-0.399,1.252-0.861,1.802-1.386s1.031-1.1,1.444-1.723s0.756-1.295,1.031-2.014c0.275-0.719,0.481-1.485,0.619-2.296
	S41.8,42.1,41.8,41.2c0-0.85-0.069-1.656-0.206-2.419c-0.138-0.762-0.344-1.481-0.619-2.156c-0.275-0.675-0.619-1.306-1.031-1.894
	C39.531,34.144,39.05,33.6,38.5,33.1s-1.156-0.931-1.817-1.297c-0.661-0.366-1.377-0.666-2.146-0.903
	c-0.768-0.237-1.59-0.412-2.464-0.528C31.2,30.256,30.275,30.2,29.3,30.2c0,0-0.269,0-0.672,0s-0.941,0-1.478,0s-1.075,0-1.478,0
	S25,30.2,25,30.2z"/>
<path style="fill:#FFFFFF;" d="M56,58.1v-2v-2v-2v-2c0.4,0.3,0.806,0.581,1.22,0.844c0.414,0.263,0.836,0.506,1.267,0.731
	s0.872,0.431,1.324,0.619c0.452,0.188,0.914,0.356,1.389,0.506s0.95,0.281,1.425,0.394c0.475,0.113,0.95,0.206,1.425,0.281
	c0.475,0.075,0.95,0.131,1.425,0.169c0.475,0.037,0.95,0.056,1.425,0.056c0.275,0,0.544-0.006,0.805-0.019s0.514-0.031,0.757-0.056
	c0.244-0.025,0.479-0.056,0.702-0.094C69.387,53.494,69.6,53.45,69.8,53.4s0.394-0.1,0.581-0.153
	c0.188-0.053,0.369-0.109,0.544-0.172s0.344-0.131,0.506-0.209S71.75,52.7,71.9,52.6c0.15-0.075,0.287-0.156,0.414-0.244
	s0.242-0.181,0.348-0.281s0.203-0.206,0.292-0.319s0.171-0.231,0.246-0.356c0.075-0.1,0.137-0.206,0.189-0.317
	c0.051-0.111,0.092-0.227,0.123-0.346s0.053-0.241,0.067-0.364C73.593,50.25,73.6,50.125,73.6,50c0-0.175-0.013-0.344-0.039-0.508
	c-0.026-0.164-0.067-0.323-0.123-0.479s-0.128-0.309-0.217-0.461C73.132,48.4,73.025,48.25,72.9,48.1
	c-0.1-0.15-0.213-0.294-0.338-0.431c-0.125-0.137-0.262-0.269-0.412-0.394s-0.312-0.244-0.488-0.356
	C71.488,46.806,71.3,46.7,71.1,46.6c-0.2-0.125-0.406-0.244-0.619-0.359c-0.212-0.116-0.431-0.228-0.656-0.341
	c-0.225-0.112-0.456-0.225-0.694-0.341c-0.238-0.116-0.481-0.234-0.731-0.359c-0.275-0.1-0.55-0.206-0.826-0.316
	s-0.554-0.222-0.836-0.334s-0.565-0.225-0.855-0.334C65.594,44.106,65.3,44,65,43.9c-0.775-0.3-1.5-0.612-2.175-0.939
	s-1.3-0.667-1.875-1.023c-0.575-0.357-1.1-0.729-1.575-1.118c-0.475-0.389-0.9-0.795-1.275-1.22s-0.706-0.869-0.992-1.333
	c-0.286-0.464-0.527-0.948-0.721-1.454c-0.194-0.507-0.34-1.035-0.439-1.586C55.85,34.675,55.8,34.1,55.8,33.5
	c0-0.475,0.025-0.931,0.075-1.369c0.05-0.438,0.125-0.856,0.225-1.256s0.225-0.781,0.375-1.144S56.8,29.025,57,28.7
	s0.425-0.644,0.672-0.951c0.247-0.308,0.516-0.604,0.803-0.885c0.287-0.281,0.594-0.547,0.916-0.793
	c0.322-0.245,0.659-0.47,1.009-0.67c0.35-0.225,0.719-0.431,1.105-0.62s0.789-0.361,1.207-0.518s0.853-0.297,1.302-0.423
	S64.925,23.6,65.4,23.5s0.956-0.188,1.444-0.263c0.487-0.075,0.981-0.138,1.481-0.188s1.006-0.087,1.519-0.112
	c0.512-0.025,1.031-0.038,1.556-0.038s1.031,0.006,1.52,0.019c0.489,0.013,0.961,0.031,1.418,0.056
	c0.456,0.025,0.896,0.056,1.323,0.094C76.088,23.106,76.5,23.15,76.9,23.2s0.794,0.112,1.18,0.184
	c0.386,0.072,0.764,0.153,1.132,0.241c0.369,0.087,0.729,0.181,1.077,0.278C80.637,24,80.975,24.1,81.3,24.2v1.875v1.875v1.875V31.7
	c-0.175-0.1-0.35-0.2-0.526-0.298c-0.176-0.098-0.354-0.195-0.535-0.289c-0.182-0.094-0.366-0.185-0.555-0.271
	C79.494,30.756,79.3,30.675,79.1,30.6s-0.4-0.15-0.6-0.223c-0.2-0.073-0.4-0.146-0.6-0.215c-0.2-0.068-0.4-0.134-0.6-0.195
	c-0.2-0.061-0.4-0.117-0.6-0.167s-0.406-0.1-0.616-0.149c-0.209-0.049-0.422-0.096-0.634-0.139s-0.425-0.084-0.634-0.12
	C74.606,29.356,74.4,29.325,74.2,29.3s-0.4-0.05-0.599-0.074c-0.199-0.023-0.396-0.045-0.59-0.064s-0.384-0.035-0.57-0.045
	C72.256,29.106,72.075,29.1,71.9,29.1c-0.25,0-0.494,0.006-0.733,0.019c-0.239,0.013-0.474,0.031-0.705,0.056
	c-0.231,0.025-0.459,0.056-0.685,0.094C69.55,29.306,69.325,29.35,69.1,29.4s-0.431,0.113-0.623,0.183
	c-0.192,0.07-0.37,0.149-0.54,0.23c-0.169,0.081-0.328,0.165-0.482,0.248C67.3,30.144,67.15,30.225,67,30.3
	s-0.288,0.156-0.414,0.242c-0.127,0.086-0.242,0.177-0.348,0.271c-0.106,0.094-0.203,0.19-0.293,0.289S65.775,31.3,65.7,31.4
	s-0.144,0.206-0.205,0.319c-0.061,0.112-0.114,0.231-0.158,0.356c-0.043,0.125-0.078,0.256-0.101,0.394S65.2,32.75,65.2,32.9
	s0.012,0.294,0.036,0.433s0.058,0.273,0.101,0.404c0.044,0.131,0.097,0.26,0.158,0.386c0.061,0.127,0.13,0.252,0.205,0.377
	s0.162,0.244,0.262,0.359s0.213,0.228,0.338,0.341s0.263,0.225,0.412,0.341c0.15,0.116,0.312,0.234,0.488,0.359
	c0.15,0.1,0.312,0.2,0.488,0.302c0.175,0.101,0.363,0.204,0.562,0.31c0.2,0.106,0.412,0.216,0.637,0.33
	c0.225,0.114,0.463,0.233,0.713,0.358c0.225,0.1,0.463,0.2,0.709,0.302c0.247,0.101,0.503,0.204,0.766,0.31
	c0.262,0.107,0.531,0.216,0.803,0.33c0.272,0.114,0.547,0.233,0.822,0.358c0.4,0.15,0.788,0.3,1.164,0.451
	c0.377,0.151,0.742,0.304,1.098,0.46c0.356,0.156,0.703,0.316,1.043,0.48S76.675,40.225,77,40.4s0.631,0.35,0.922,0.528
	c0.291,0.178,0.566,0.359,0.828,0.547s0.512,0.381,0.753,0.584c0.241,0.203,0.472,0.416,0.697,0.641s0.438,0.45,0.637,0.678
	c0.2,0.228,0.387,0.459,0.562,0.697s0.338,0.481,0.488,0.734c0.15,0.253,0.287,0.516,0.412,0.791s0.231,0.563,0.32,0.861
	s0.161,0.608,0.217,0.926s0.097,0.647,0.123,0.983C82.987,48.706,83,49.05,83,49.4c0,0.5-0.025,0.981-0.076,1.442
	c-0.051,0.461-0.129,0.902-0.235,1.321c-0.107,0.418-0.241,0.815-0.405,1.189S81.925,54.075,81.7,54.4
	c-0.2,0.35-0.425,0.681-0.672,0.994S80.512,56,80.225,56.275s-0.594,0.531-0.916,0.769C78.988,57.281,78.65,57.5,78.3,57.7
	s-0.719,0.388-1.105,0.562s-0.789,0.337-1.207,0.487c-0.419,0.15-0.854,0.287-1.302,0.412S73.775,59.4,73.3,59.5
	s-0.956,0.188-1.444,0.263c-0.487,0.075-0.981,0.138-1.481,0.188s-1.006,0.087-1.519,0.112C68.344,60.088,67.825,60.1,67.3,60.1
	c-0.55,0-1.088-0.013-1.616-0.036c-0.528-0.023-1.047-0.058-1.559-0.102c-0.513-0.043-1.019-0.097-1.522-0.157
	S61.6,59.675,61.1,59.6s-0.981-0.162-1.444-0.263c-0.463-0.1-0.906-0.212-1.331-0.337s-0.831-0.263-1.219-0.412
	C56.719,58.438,56.35,58.275,56,58.1z"/>
<path style="fill:#0022E0;" d="M49.6,94c4.525,0,8.881-0.7,12.969-1.997s7.906-3.191,11.356-5.578
	c3.45-2.387,6.531-5.269,9.144-8.541C85.681,74.613,87.825,70.95,89.4,67c-0.15,0.175-0.419,0.475-0.805,0.822
	c-0.386,0.347-0.889,0.741-1.507,1.103c-0.619,0.363-1.354,0.694-2.202,0.916C84.037,70.062,83.075,70.175,82,70.1
	c-1.225-0.1-2.519-0.694-3.77-1.528c-1.252-0.834-2.461-1.909-3.517-2.972c-1.057-1.062-1.96-2.112-2.599-2.897
	C71.475,61.919,71.1,61.4,71.1,61.4s-0.269,0.531-0.775,1.331c-0.506,0.8-1.25,1.869-2.2,2.944s-2.106,2.156-3.438,2.981
	C63.356,69.481,61.85,70.05,60.2,70.1s-3.206-0.469-4.612-1.275c-1.406-0.806-2.662-1.9-3.713-3c-1.05-1.1-1.894-2.206-2.475-3.037
	c-0.581-0.831-0.9-1.388-0.9-1.388s-0.331,0.55-0.92,1.374c-0.589,0.823-1.436,1.921-2.468,3.014s-2.247,2.185-3.573,2.995
	c-1.326,0.811-2.764,1.342-4.239,1.317c-1.475,0-2.969-0.544-4.38-1.359c-1.411-0.816-2.739-1.903-3.883-2.991
	c-1.143-1.088-2.103-2.175-2.776-2.991S25.2,61.4,25.2,61.4s-0.256,0.45-0.727,1.141c-0.47,0.691-1.155,1.622-2.011,2.584
	c-0.856,0.963-1.884,1.956-3.042,2.772c-1.158,0.816-2.445,1.453-3.82,1.703c-0.575,0.1-1.106,0.144-1.597,0.144
	c-0.491,0-0.941-0.044-1.353-0.119s-0.788-0.181-1.128-0.306c-0.341-0.125-0.647-0.269-0.922-0.419
	c1.675,3.7,3.869,7.119,6.487,10.166S22.75,84.788,26.125,87s7.081,3.962,11.025,5.159S45.275,94,49.6,94z"/>
</svg>
