<?xml version="1.0" encoding="iso-8859-1"?>
<!-- Generator: Adobe Illustrator 25.3.1, SVG Export Plug-In . SVG Version: 6.00 Build 0)  -->
<svg version="1.1" id="Layer_1" xmlns="http://www.w3.org/2000/svg" xmlns:xlink="http://www.w3.org/1999/xlink" x="0px" y="0px"
	 viewBox="0 0 100 100" style="enable-background:new 0 0 100 100;" xml:space="preserve">
<path style="fill:#A4251A;" d="M50,2.4c6.572,0,12.833,1.332,18.528,3.741c5.695,2.409,10.823,5.894,15.13,10.201
	s7.793,9.435,10.201,15.13C96.268,37.167,97.6,43.428,97.6,50s-1.332,12.833-3.741,18.528c-2.409,5.695-5.894,10.823-10.201,15.13
	s-9.436,7.793-15.13,10.201C62.833,96.268,56.572,97.6,50,97.6s-12.833-1.332-18.528-3.741c-5.695-2.409-10.823-5.894-15.13-10.201
	s-7.792-9.436-10.201-15.13S2.4,56.572,2.4,50s1.332-12.833,3.741-18.528s5.894-10.823,10.201-15.13s9.435-7.792,15.13-10.201
	S43.428,2.4,50,2.4z"/>
<path style="fill:#440C09;" d="M50,1.9c-6.625,0-12.944,1.35-18.695,3.789s-10.936,5.967-15.292,10.324S8.129,25.554,5.69,31.305
	S1.9,43.375,1.9,50s1.35,12.944,3.789,18.695s5.967,10.936,10.324,15.293s9.541,7.884,15.292,10.323S43.375,98.1,50,98.1
	s12.944-1.344,18.695-3.775c5.752-2.431,10.936-5.95,15.293-10.3s7.884-9.531,10.323-15.287S98.1,56.65,98.1,50
	s-1.35-12.981-3.789-18.737s-5.967-10.938-10.323-15.288s-9.54-7.869-15.292-10.3C62.944,3.244,56.625,1.9,50,1.9z M50,93
	c-5.95,0-11.612-1.2-16.759-3.372s-9.778-5.316-13.666-9.203s-7.031-8.519-9.203-13.666C8.2,61.613,7,55.95,7,50
	s1.2-11.612,3.372-16.759s5.316-9.778,9.203-13.666s8.519-7.031,13.666-9.203S44.05,7,50,7s11.613,1.206,16.759,3.386
	s9.778,5.333,13.666,9.226s7.031,8.528,9.203,13.67S93,44.075,93,50s-1.2,11.575-3.372,16.717s-5.316,9.776-9.203,13.67
	s-8.519,7.047-13.666,9.227C61.613,91.794,55.95,93,50,93z"/>
<path d="M49.5,42.4c3.272,0,6.39,0.663,9.225,1.863c2.835,1.199,5.389,2.935,7.533,5.079s3.88,4.698,5.079,7.533
	c1.2,2.835,1.863,5.952,1.863,9.225s-0.663,6.39-1.863,9.225c-1.199,2.835-2.935,5.389-5.079,7.533
	c-2.144,2.145-4.697,3.88-7.533,5.079C55.89,89.137,52.772,89.8,49.5,89.8s-6.39-0.663-9.225-1.863
	c-2.835-1.199-5.389-2.935-7.533-5.079c-2.145-2.144-3.88-4.697-5.079-7.533C26.463,72.49,25.8,69.372,25.8,66.1
	s0.663-6.39,1.863-9.225c1.199-2.835,2.935-5.389,5.079-7.533s4.698-3.879,7.533-5.079S46.228,42.4,49.5,42.4z"/>
<path style="fill:#FFFFFF;" d="M49.4,45.1c2.927,0,5.715,0.593,8.252,1.666c2.536,1.073,4.821,2.625,6.739,4.543
	c1.918,1.919,3.47,4.203,4.543,6.739c1.073,2.536,1.666,5.325,1.666,8.252s-0.593,5.715-1.666,8.252s-2.625,4.821-4.543,6.739
	c-1.918,1.918-4.203,3.47-6.739,4.543C55.116,86.907,52.327,87.5,49.4,87.5s-5.715-0.593-8.252-1.666
	c-2.536-1.073-4.821-2.625-6.739-4.543s-3.471-4.202-4.543-6.739C28.793,72.016,28.2,69.227,28.2,66.3
	c0-2.927,0.593-5.715,1.666-8.252c1.073-2.536,2.625-4.821,4.543-6.739c1.918-1.918,4.202-3.471,6.739-4.543S46.473,45.1,49.4,45.1z
	"/>
<path d="M39.8,58.9h-1.325H37.15h-1.325H34.5v1.2v1.2v1.2v1.2h1.1h1.1h1.1h1.1c0.1,0,0.194,0.006,0.281,0.02
	c0.088,0.014,0.169,0.036,0.244,0.067s0.144,0.072,0.206,0.123S39.75,64.025,39.8,64.1c0.05,0.075,0.094,0.15,0.131,0.228
	c0.038,0.078,0.069,0.159,0.094,0.247c0.025,0.088,0.044,0.181,0.056,0.284c0.013,0.103,0.019,0.216,0.019,0.341
	c0,0.1-0.006,0.2-0.019,0.297s-0.031,0.191-0.056,0.278c-0.025,0.088-0.056,0.169-0.094,0.241C39.894,66.087,39.85,66.15,39.8,66.2
	s-0.106,0.1-0.169,0.147s-0.131,0.091-0.206,0.128s-0.156,0.069-0.244,0.091C39.094,66.588,39,66.6,38.9,66.6h-1.1h-1.1h-1.1h-1.1
	v1.55v1.55v1.55v1.55c0,0.2-0.006,0.388-0.02,0.562c-0.014,0.175-0.036,0.338-0.068,0.488c-0.031,0.15-0.071,0.287-0.123,0.412
	C34.237,74.387,34.175,74.5,34.1,74.6s-0.15,0.188-0.227,0.262c-0.076,0.075-0.154,0.138-0.236,0.188
	c-0.082,0.05-0.166,0.088-0.255,0.113C33.294,75.188,33.2,75.2,33.1,75.2s-0.194-0.012-0.283-0.037
	c-0.089-0.025-0.174-0.063-0.255-0.113c-0.081-0.05-0.159-0.112-0.236-0.187C32.25,74.787,32.175,74.7,32.1,74.6
	s-0.138-0.213-0.189-0.338c-0.052-0.125-0.092-0.262-0.123-0.412s-0.053-0.312-0.067-0.488c-0.014-0.175-0.02-0.362-0.02-0.562
	v-3.625V65.55v-3.625V58.3c0-0.15,0.006-0.287,0.017-0.414c0.011-0.127,0.026-0.242,0.045-0.349c0.018-0.106,0.04-0.203,0.064-0.292
	c0.023-0.089,0.048-0.17,0.073-0.245s0.056-0.15,0.092-0.223c0.036-0.074,0.076-0.146,0.12-0.215
	c0.044-0.069,0.091-0.134,0.139-0.195S32.35,56.25,32.4,56.2s0.113-0.087,0.184-0.116s0.153-0.047,0.241-0.059
	c0.087-0.013,0.181-0.019,0.278-0.022C33.2,56,33.3,56,33.4,56H35h1.6h1.6h1.6c0.1,0,0.194,0.006,0.283,0.02
	s0.174,0.036,0.255,0.068c0.081,0.031,0.159,0.071,0.236,0.123c0.076,0.051,0.151,0.114,0.226,0.189
	c0.05,0.075,0.094,0.15,0.131,0.228c0.038,0.078,0.069,0.159,0.094,0.247c0.025,0.088,0.044,0.181,0.056,0.284
	c0.013,0.103,0.019,0.216,0.019,0.341c0,0.1-0.006,0.2-0.019,0.299c-0.013,0.099-0.031,0.196-0.056,0.29
	c-0.025,0.094-0.056,0.184-0.094,0.27c-0.038,0.086-0.081,0.167-0.131,0.242c-0.075,0.05-0.15,0.094-0.227,0.131
	c-0.077,0.037-0.155,0.069-0.236,0.094c-0.081,0.025-0.165,0.044-0.254,0.056C39.994,58.894,39.9,58.9,39.8,58.9z"/>
<path d="M44.7,56h0.875h0.875h0.875H48.2c0.225,0,0.444,0.006,0.656,0.02c0.213,0.014,0.419,0.036,0.619,0.068
	c0.2,0.031,0.394,0.071,0.581,0.123c0.188,0.051,0.369,0.114,0.544,0.189c0.175,0.05,0.337,0.119,0.492,0.205
	s0.302,0.189,0.446,0.308c0.144,0.118,0.284,0.253,0.426,0.401c0.142,0.148,0.286,0.311,0.436,0.486
	c0.35,0.425,0.656,0.9,0.919,1.428s0.481,1.109,0.656,1.747c0.175,0.638,0.306,1.331,0.394,2.084
	c0.087,0.753,0.131,1.566,0.131,2.441c0,0.275-0.006,0.55-0.017,0.822s-0.026,0.541-0.045,0.803
	c-0.019,0.262-0.041,0.519-0.064,0.766c-0.024,0.247-0.049,0.484-0.074,0.709s-0.062,0.45-0.108,0.672
	c-0.045,0.222-0.099,0.441-0.155,0.653c-0.056,0.213-0.115,0.419-0.173,0.616c-0.058,0.197-0.114,0.384-0.164,0.559
	c-0.075,0.2-0.156,0.388-0.242,0.566c-0.086,0.178-0.177,0.347-0.271,0.509c-0.094,0.162-0.19,0.319-0.289,0.472
	C52.8,72.8,52.7,72.95,52.6,73.1c-0.1,0.125-0.194,0.237-0.286,0.341s-0.183,0.197-0.276,0.284
	c-0.094,0.088-0.191,0.169-0.296,0.247c-0.105,0.078-0.217,0.153-0.342,0.228s-0.244,0.144-0.359,0.206
	c-0.116,0.063-0.228,0.119-0.341,0.169s-0.225,0.094-0.341,0.131C50.244,74.744,50.125,74.775,50,74.8s-0.25,0.05-0.377,0.073
	s-0.255,0.045-0.386,0.064s-0.266,0.034-0.405,0.045S48.55,75,48.4,75h-0.875H46.65h-0.875H44.9c-0.125,0-0.244-0.006-0.355-0.019
	c-0.111-0.012-0.214-0.031-0.307-0.056c-0.094-0.025-0.179-0.056-0.252-0.094C43.912,74.794,43.85,74.75,43.8,74.7
	s-0.1-0.106-0.149-0.169c-0.049-0.062-0.095-0.131-0.139-0.206c-0.044-0.075-0.084-0.156-0.12-0.244
	C43.356,73.994,43.325,73.9,43.3,73.8s-0.044-0.206-0.058-0.319c-0.014-0.113-0.023-0.231-0.029-0.356s-0.009-0.256-0.011-0.394
	C43.2,72.594,43.2,72.45,43.2,72.3v-3.5v-3.5v-3.5v-3.5c0-0.2,0.006-0.388,0.02-0.562c0.014-0.175,0.036-0.338,0.068-0.487
	c0.031-0.15,0.071-0.287,0.123-0.412c0.051-0.125,0.114-0.237,0.189-0.338c0.025-0.075,0.069-0.144,0.13-0.205
	s0.139-0.114,0.232-0.157c0.094-0.044,0.203-0.079,0.327-0.102C44.413,56.013,44.55,56,44.7,56z M45.8,59v3.2v3.2v3.2v3.2h0.5h0.5
	h0.5h0.5c0.1,0,0.2,0,0.299-0.002c0.098-0.001,0.195-0.004,0.29-0.01c0.093-0.007,0.184-0.016,0.27-0.03
	c0.086-0.014,0.167-0.033,0.242-0.058c0.075,0,0.144-0.006,0.209-0.019c0.066-0.012,0.128-0.031,0.191-0.056
	s0.125-0.056,0.191-0.094S49.625,71.45,49.7,71.4s0.144-0.094,0.208-0.136s0.124-0.083,0.18-0.127
	c0.056-0.044,0.109-0.09,0.16-0.145S50.35,70.875,50.4,70.8c0.225-0.275,0.425-0.594,0.598-0.959s0.32-0.778,0.439-1.241
	c0.118-0.463,0.209-0.975,0.27-1.541c0.061-0.566,0.092-1.184,0.092-1.859c0-0.475-0.013-0.919-0.037-1.331
	c-0.025-0.413-0.063-0.794-0.113-1.144s-0.112-0.669-0.188-0.956C51.387,61.481,51.3,61.225,51.2,61s-0.206-0.431-0.319-0.619
	c-0.113-0.188-0.231-0.356-0.356-0.506s-0.256-0.281-0.394-0.394c-0.137-0.113-0.281-0.206-0.431-0.281s-0.306-0.138-0.469-0.189
	c-0.162-0.051-0.331-0.092-0.506-0.123c-0.175-0.032-0.356-0.054-0.544-0.068C47.994,58.806,47.8,58.8,47.6,58.8h-0.45H46.7h-0.45
	H45.8v0.05v0.05c0,0,0,0.025,0,0.05C45.8,58.975,45.8,59,45.8,59z"/>
<path d="M68.1,68.9c0,0.15-0.006,0.306-0.019,0.467c-0.012,0.161-0.031,0.327-0.056,0.496c-0.025,0.168-0.056,0.34-0.094,0.514
	S67.85,70.725,67.8,70.9s-0.106,0.35-0.17,0.525c-0.064,0.175-0.136,0.35-0.217,0.525c-0.082,0.175-0.172,0.35-0.274,0.525
	C67.038,72.65,66.925,72.825,66.8,73c-0.1,0.175-0.212,0.338-0.336,0.489c-0.123,0.152-0.258,0.292-0.402,0.423
	c-0.144,0.132-0.297,0.254-0.457,0.368c-0.161,0.114-0.33,0.22-0.505,0.32s-0.356,0.188-0.544,0.262
	c-0.188,0.075-0.381,0.138-0.581,0.188c-0.2,0.05-0.406,0.088-0.619,0.113C63.144,75.188,62.925,75.2,62.7,75.2
	c-0.175,0-0.344-0.006-0.508-0.019c-0.164-0.012-0.323-0.031-0.479-0.056c-0.156-0.025-0.31-0.056-0.461-0.094
	S60.95,74.95,60.8,74.9s-0.294-0.106-0.433-0.169s-0.273-0.131-0.404-0.206s-0.259-0.156-0.386-0.244
	C59.45,74.194,59.325,74.1,59.2,74s-0.244-0.206-0.358-0.32c-0.114-0.114-0.224-0.236-0.33-0.368
	c-0.106-0.131-0.209-0.271-0.311-0.423S58,72.575,57.9,72.4c-0.1-0.15-0.194-0.306-0.281-0.467
	c-0.088-0.161-0.169-0.327-0.244-0.496c-0.075-0.169-0.144-0.34-0.206-0.514C57.106,70.75,57.05,70.575,57,70.4
	s-0.1-0.356-0.15-0.544c-0.05-0.188-0.1-0.381-0.15-0.581s-0.1-0.406-0.15-0.619c-0.05-0.212-0.1-0.431-0.15-0.656
	c-0.025-0.2-0.05-0.406-0.073-0.619c-0.024-0.213-0.046-0.431-0.065-0.656c-0.019-0.225-0.034-0.456-0.045-0.694
	C56.206,65.794,56.2,65.55,56.2,65.3c0-0.375,0.013-0.744,0.036-1.105c0.023-0.361,0.058-0.714,0.102-1.057
	c0.043-0.344,0.097-0.679,0.157-1.002S56.625,61.5,56.7,61.2s0.163-0.587,0.259-0.864s0.203-0.542,0.316-0.798
	c0.112-0.257,0.231-0.504,0.353-0.743S57.875,58.325,58,58.1c0.15-0.225,0.306-0.431,0.467-0.622s0.326-0.366,0.495-0.528
	c0.169-0.162,0.341-0.312,0.514-0.453S59.825,56.225,60,56.1c0.2-0.1,0.4-0.194,0.602-0.278c0.201-0.084,0.404-0.159,0.611-0.222
	c0.207-0.062,0.416-0.112,0.63-0.147c0.214-0.034,0.433-0.053,0.658-0.053c0.275,0,0.537,0.019,0.791,0.056
	c0.253,0.037,0.497,0.094,0.734,0.169c0.237,0.075,0.469,0.169,0.697,0.281c0.228,0.112,0.453,0.244,0.678,0.394
	c0.2,0.15,0.394,0.312,0.578,0.486c0.184,0.173,0.359,0.358,0.522,0.551c0.162,0.194,0.312,0.397,0.447,0.608
	c0.134,0.211,0.253,0.43,0.353,0.655c0.1,0.225,0.194,0.444,0.278,0.658c0.084,0.214,0.159,0.424,0.222,0.63
	c0.062,0.206,0.113,0.409,0.147,0.611C67.981,60.7,68,60.9,68,61.1c0,0.1-0.006,0.2-0.019,0.3c-0.012,0.1-0.031,0.2-0.056,0.3
	c-0.025,0.1-0.056,0.2-0.094,0.3c-0.037,0.1-0.081,0.2-0.131,0.3s-0.106,0.181-0.167,0.247c-0.061,0.066-0.127,0.116-0.196,0.153
	c-0.068,0.037-0.14,0.062-0.214,0.078S66.975,62.8,66.899,62.8s-0.15-0.006-0.224-0.019s-0.145-0.031-0.214-0.056
	c-0.068-0.025-0.133-0.056-0.194-0.094C66.206,62.594,66.15,62.55,66.1,62.5s-0.1-0.112-0.15-0.188
	c-0.05-0.075-0.1-0.162-0.15-0.263c-0.05-0.1-0.1-0.213-0.15-0.338c-0.05-0.125-0.1-0.263-0.15-0.412
	c-0.1-0.225-0.2-0.438-0.3-0.638c-0.1-0.2-0.2-0.387-0.3-0.562c-0.1-0.175-0.2-0.338-0.3-0.487c-0.1-0.15-0.2-0.288-0.3-0.413
	c-0.125-0.125-0.256-0.231-0.394-0.32c-0.138-0.089-0.281-0.161-0.431-0.218c-0.15-0.056-0.306-0.097-0.469-0.123
	C62.844,58.513,62.675,58.5,62.5,58.5c-0.275,0-0.537,0.037-0.786,0.112s-0.483,0.188-0.701,0.338s-0.422,0.337-0.608,0.562
	C60.219,59.737,60.05,60,59.9,60.3c-0.175,0.3-0.325,0.631-0.452,0.994c-0.127,0.363-0.23,0.756-0.311,1.181
	c-0.081,0.425-0.14,0.881-0.179,1.369C58.919,64.331,58.9,64.85,58.9,65.4c0,0.375,0.006,0.731,0.02,1.07
	c0.014,0.339,0.036,0.661,0.067,0.967s0.072,0.597,0.124,0.873c0.052,0.277,0.114,0.539,0.189,0.789s0.156,0.481,0.244,0.695
	c0.087,0.214,0.181,0.411,0.281,0.592s0.206,0.347,0.319,0.498c0.112,0.152,0.231,0.29,0.356,0.415s0.263,0.231,0.409,0.32
	c0.147,0.089,0.303,0.161,0.466,0.217s0.331,0.097,0.503,0.123S62.225,72,62.4,72c0.2,0,0.388-0.019,0.566-0.055
	c0.178-0.036,0.347-0.089,0.509-0.158s0.319-0.153,0.472-0.252C64.1,71.437,64.25,71.325,64.4,71.2
	c0.125-0.125,0.244-0.269,0.356-0.431c0.113-0.162,0.219-0.344,0.319-0.544s0.194-0.419,0.281-0.656
	c0.088-0.238,0.169-0.494,0.244-0.769c0.025-0.125,0.056-0.244,0.091-0.356c0.034-0.113,0.072-0.219,0.109-0.319
	s0.075-0.194,0.109-0.281S65.975,67.675,66,67.6c0.05-0.075,0.1-0.144,0.153-0.205s0.109-0.114,0.172-0.158
	c0.062-0.043,0.131-0.078,0.209-0.101C66.613,67.113,66.7,67.1,66.8,67.1c0.075,0,0.15,0.013,0.224,0.036
	c0.074,0.023,0.146,0.058,0.215,0.101c0.068,0.044,0.134,0.097,0.195,0.158c0.061,0.061,0.117,0.13,0.167,0.205
	c0.1,0.125,0.181,0.244,0.247,0.358c0.066,0.114,0.116,0.224,0.153,0.33s0.062,0.21,0.078,0.311S68.1,68.8,68.1,68.9z"/>
<polygon points="64.535,36.415 64.782,36.698 65.028,36.98 65.275,37.262 65.522,37.545 63.432,39.37 61.342,41.196 59.252,43.022 
	57.162,44.848 56.915,44.565 56.669,44.283 56.423,44 56.176,43.718 58.265,41.893 60.355,40.067 62.445,38.241 "/>
<polygon points="41.676,43.032 41.424,43.31 41.172,43.588 40.921,43.866 40.669,44.144 38.613,42.28 36.557,40.416 34.501,38.552 
	32.445,36.689 32.697,36.411 32.948,36.133 33.2,35.855 33.452,35.578 35.508,37.441 37.564,39.305 39.62,41.169 "/>
<path d="M24.6,18c1.574,0,3.073,0.319,4.437,0.896s2.592,1.412,3.624,2.443c1.031,1.031,1.866,2.26,2.443,3.624
	C35.681,26.326,36,27.826,36,29.4s-0.319,3.073-0.896,4.437c-0.577,1.364-1.412,2.592-2.443,3.624
	c-1.031,1.032-2.26,1.866-3.624,2.443C27.674,40.481,26.174,40.8,24.6,40.8s-3.073-0.319-4.437-0.896
	c-1.364-0.577-2.592-1.412-3.624-2.443s-1.866-2.26-2.443-3.624C13.519,32.473,13.2,30.974,13.2,29.4s0.319-3.073,0.896-4.437
	s1.412-2.592,2.443-3.624s2.26-1.866,3.624-2.443C21.527,18.319,23.026,18,24.6,18z"/>
<path d="M72.3,18c1.574,0,3.074,0.319,4.437,0.896s2.592,1.412,3.624,2.443s1.866,2.26,2.443,3.624S83.7,27.826,83.7,29.4
	s-0.319,3.074-0.896,4.437c-0.577,1.364-1.412,2.592-2.443,3.624s-2.26,1.866-3.624,2.443C75.373,40.481,73.874,40.8,72.3,40.8
	s-3.074-0.319-4.437-0.896c-1.364-0.577-2.592-1.412-3.624-2.443s-1.866-2.26-2.443-3.624C61.219,32.473,60.9,30.974,60.9,29.4
	s0.319-3.073,0.896-4.437s1.412-2.592,2.443-3.624c1.032-1.032,2.26-1.866,3.624-2.443C69.227,18.319,70.726,18,72.3,18z"/>
<path style="fill:#FFFFFF;" d="M72.3,20.7c1.201,0,2.345,0.243,3.386,0.684c1.041,0.44,1.978,1.077,2.766,1.864
	c0.787,0.787,1.424,1.725,1.864,2.766C80.757,27.055,81,28.199,81,29.4s-0.243,2.345-0.684,3.386
	c-0.44,1.041-1.077,1.978-1.864,2.766c-0.787,0.787-1.725,1.424-2.766,1.864S73.501,38.1,72.3,38.1s-2.345-0.243-3.386-0.684
	c-1.041-0.44-1.978-1.077-2.766-1.864c-0.787-0.787-1.424-1.725-1.864-2.766c-0.44-1.041-0.684-2.185-0.684-3.386
	s0.243-2.345,0.684-3.386c0.44-1.041,1.077-1.978,1.864-2.766c0.788-0.787,1.725-1.424,2.766-1.864
	C69.955,20.944,71.099,20.7,72.3,20.7z"/>
<path style="fill:#FFFFFF;" d="M24.6,20.7c1.201,0,2.345,0.243,3.386,0.684s1.978,1.077,2.766,1.864
	c0.787,0.787,1.424,1.724,1.864,2.765S33.3,28.199,33.3,29.4s-0.243,2.346-0.684,3.387c-0.44,1.041-1.077,1.978-1.864,2.765
	c-0.787,0.787-1.725,1.424-2.766,1.864S25.801,38.1,24.6,38.1s-2.345-0.243-3.386-0.684s-1.978-1.077-2.766-1.864
	s-1.425-1.724-1.865-2.765S15.9,30.601,15.9,29.4s0.243-2.345,0.684-3.386s1.077-1.978,1.864-2.766
	c0.788-0.787,1.725-1.424,2.766-1.864C22.255,20.944,23.399,20.7,24.6,20.7z"/>
</svg>
