<?xml version="1.0" encoding="iso-8859-1"?>
<!-- Generator: Adobe Illustrator 25.3.1, SVG Export Plug-In . SVG Version: 6.00 Build 0)  -->
<svg version="1.1" id="Layer_1" xmlns="http://www.w3.org/2000/svg" xmlns:xlink="http://www.w3.org/1999/xlink" x="0px" y="0px"
	 viewBox="0 0 100 100" style="enable-background:new 0 0 100 100;" xml:space="preserve">
<path style="fill:#A4251A;" d="M50,2.4c6.572,0,12.833,1.332,18.528,3.741c5.695,2.409,10.823,5.894,15.13,10.201
	s7.793,9.435,10.201,15.13C96.268,37.167,97.6,43.428,97.6,50s-1.332,12.833-3.741,18.528c-2.409,5.695-5.894,10.823-10.201,15.13
	s-9.436,7.793-15.13,10.201C62.833,96.268,56.572,97.6,50,97.6s-12.833-1.332-18.528-3.741c-5.695-2.409-10.823-5.894-15.13-10.201
	s-7.792-9.436-10.201-15.13S2.4,56.572,2.4,50s1.332-12.833,3.741-18.528s5.894-10.823,10.201-15.13s9.435-7.792,15.13-10.201
	S43.428,2.4,50,2.4z"/>
<path style="fill:#440C09;" d="M50,1.9c-6.625,0-12.944,1.35-18.695,3.789s-10.936,5.967-15.292,10.324S8.129,25.554,5.69,31.305
	S1.9,43.375,1.9,50s1.35,12.944,3.789,18.695s5.967,10.936,10.324,15.293s9.541,7.884,15.292,10.323S43.375,98.1,50,98.1
	s12.944-1.344,18.695-3.775c5.752-2.431,10.936-5.95,15.293-10.3s7.884-9.531,10.323-15.287S98.1,56.65,98.1,50
	s-1.35-12.981-3.789-18.737s-5.967-10.938-10.323-15.288s-9.54-7.869-15.292-10.3C62.944,3.244,56.625,1.9,50,1.9z M50,93
	c-5.95,0-11.612-1.2-16.759-3.372s-9.778-5.316-13.666-9.203s-7.031-8.519-9.203-13.666C8.2,61.613,7,55.95,7,50
	s1.2-11.612,3.372-16.759s5.316-9.778,9.203-13.666s8.519-7.031,13.666-9.203S44.05,7,50,7s11.613,1.206,16.759,3.386
	s9.778,5.333,13.666,9.226s7.031,8.528,9.203,13.67S93,44.075,93,50s-1.2,11.575-3.372,16.717s-5.316,9.776-9.203,13.67
	s-8.519,7.047-13.666,9.227C61.613,91.794,55.95,93,50,93z"/>
<path d="M51.1,46.7c3.272,0,6.39,0.672,9.225,1.886s5.389,2.972,7.533,5.143c2.145,2.172,3.88,4.758,5.079,7.629
	S74.8,67.386,74.8,70.7s-0.663,6.47-1.863,9.342s-2.935,5.457-5.079,7.629c-2.144,2.172-4.697,3.929-7.533,5.143
	C57.49,94.028,54.372,94.7,51.1,94.7s-6.39-0.672-9.225-1.886c-2.835-1.214-5.389-2.972-7.533-5.143
	c-2.145-2.172-3.88-4.758-5.079-7.629S27.4,74.014,27.4,70.7s0.663-6.47,1.863-9.342c1.199-2.871,2.935-5.457,5.079-7.629
	c2.144-2.172,4.698-3.929,7.533-5.143S47.827,46.7,51.1,46.7z"/>
<path style="fill:#FFFFFF;" d="M51,49.7c2.927,0,5.715,0.593,8.252,1.666c2.536,1.073,4.821,2.625,6.739,4.543
	s3.471,4.202,4.543,6.739c1.073,2.536,1.666,5.325,1.666,8.252s-0.593,5.715-1.666,8.252c-1.073,2.536-2.625,4.821-4.543,6.739
	c-1.919,1.918-4.203,3.47-6.739,4.543C56.715,91.507,53.927,92.1,51,92.1s-5.715-0.593-8.252-1.666
	c-2.536-1.073-4.821-2.625-6.739-4.543c-1.918-1.918-3.47-4.203-4.543-6.739C30.393,76.616,29.8,73.827,29.8,70.9
	s0.593-5.715,1.666-8.252c1.073-2.536,2.625-4.821,4.543-6.739s4.202-3.471,6.739-4.543S48.073,49.7,51,49.7z"/>
<path d="M41.4,64.3h-1.35H38.7h-1.35H36v1.275v1.275v1.275V69.4h1.1h1.1h1.1h1.1c0.1,0,0.194,0.006,0.281,0.02
	c0.088,0.014,0.169,0.036,0.244,0.068s0.144,0.072,0.206,0.123c0.062,0.051,0.119,0.114,0.169,0.189s0.094,0.156,0.131,0.242
	c0.038,0.086,0.069,0.176,0.094,0.27c0.025,0.094,0.044,0.191,0.056,0.289C41.594,70.7,41.6,70.8,41.6,70.9s-0.006,0.2-0.019,0.299
	c-0.013,0.099-0.031,0.195-0.056,0.289c-0.025,0.093-0.056,0.184-0.094,0.27C41.394,71.844,41.35,71.925,41.3,72
	s-0.106,0.137-0.169,0.189c-0.062,0.051-0.131,0.092-0.206,0.123s-0.156,0.053-0.244,0.067C40.594,72.394,40.5,72.4,40.4,72.4h-1.1
	h-1.1h-1.1H36v1.65v1.65v1.65V79c0,0.2-0.006,0.394-0.02,0.578s-0.036,0.359-0.068,0.522c-0.031,0.162-0.071,0.312-0.123,0.447
	C35.737,80.681,35.675,80.8,35.6,80.9s-0.15,0.188-0.227,0.263c-0.076,0.075-0.154,0.137-0.236,0.187
	c-0.082,0.05-0.166,0.088-0.255,0.113C34.794,81.488,34.7,81.5,34.6,81.5s-0.194-0.012-0.283-0.037
	c-0.089-0.025-0.174-0.063-0.255-0.113c-0.081-0.05-0.159-0.112-0.236-0.188C33.75,81.088,33.675,81,33.6,80.9
	s-0.138-0.213-0.189-0.339c-0.052-0.127-0.092-0.267-0.123-0.424s-0.053-0.328-0.067-0.517C33.207,79.431,33.2,79.225,33.2,79
	v-3.825V71.35v-3.825V63.7c0-0.15,0.006-0.294,0.017-0.43c0.011-0.136,0.026-0.264,0.045-0.382s0.04-0.228,0.064-0.327
	c0.024-0.099,0.049-0.186,0.074-0.261c0.025-0.1,0.056-0.188,0.092-0.266s0.076-0.147,0.12-0.209
	c0.044-0.062,0.091-0.119,0.139-0.172C33.8,61.6,33.85,61.55,33.9,61.5s0.113-0.094,0.183-0.131s0.148-0.069,0.229-0.094
	c0.082-0.025,0.166-0.044,0.249-0.056c0.083-0.012,0.164-0.019,0.239-0.019h1.6H38h1.6h1.6c0.1,0,0.194,0.006,0.283,0.02
	s0.174,0.036,0.255,0.067c0.081,0.031,0.159,0.072,0.236,0.124c0.076,0.052,0.152,0.114,0.227,0.189
	c0.05,0.075,0.094,0.156,0.131,0.242c0.038,0.086,0.069,0.177,0.094,0.271s0.044,0.191,0.056,0.289S42.5,62.6,42.5,62.7
	c0,0.125-0.006,0.244-0.019,0.355s-0.031,0.214-0.056,0.308s-0.056,0.178-0.094,0.251C42.294,63.688,42.25,63.75,42.2,63.8
	c-0.025,0.1-0.062,0.181-0.111,0.247c-0.049,0.066-0.108,0.116-0.177,0.153c-0.069,0.038-0.146,0.062-0.232,0.078
	C41.594,64.294,41.5,64.3,41.4,64.3z"/>
<path d="M46.3,61.2h0.875h0.875h0.875H49.8c0.225,0,0.444,0.006,0.656,0.02c0.213,0.014,0.419,0.036,0.619,0.067
	s0.394,0.072,0.581,0.124c0.188,0.052,0.369,0.114,0.544,0.189s0.337,0.156,0.492,0.247s0.302,0.191,0.446,0.303
	c0.144,0.112,0.284,0.237,0.426,0.378S53.85,62.825,54,63c0.35,0.45,0.656,0.956,0.919,1.52s0.481,1.186,0.656,1.868
	c0.175,0.681,0.306,1.422,0.394,2.223c0.087,0.801,0.131,1.664,0.131,2.589c0,0.3-0.006,0.594-0.017,0.881s-0.026,0.569-0.045,0.844
	s-0.041,0.544-0.064,0.806C55.95,73.994,55.925,74.25,55.9,74.5s-0.062,0.494-0.108,0.731c-0.045,0.238-0.099,0.469-0.155,0.694
	c-0.056,0.225-0.115,0.444-0.173,0.656C55.406,76.794,55.35,77,55.3,77.2c-0.075,0.2-0.156,0.394-0.242,0.581
	c-0.086,0.188-0.177,0.369-0.271,0.544s-0.191,0.344-0.289,0.506C54.4,78.994,54.3,79.15,54.2,79.3
	c-0.1,0.125-0.194,0.244-0.286,0.356c-0.092,0.113-0.183,0.219-0.276,0.319c-0.094,0.1-0.191,0.194-0.296,0.281
	C53.237,80.344,53.125,80.425,53,80.5c-0.1,0.075-0.206,0.144-0.317,0.206s-0.227,0.119-0.346,0.169s-0.241,0.094-0.364,0.131
	c-0.123,0.037-0.248,0.069-0.373,0.094s-0.25,0.05-0.377,0.073s-0.255,0.045-0.386,0.064s-0.266,0.034-0.405,0.045
	S50.15,81.3,50,81.3h-0.875H48.25h-0.875H46.5c-0.125,0-0.244-0.006-0.355-0.019c-0.111-0.012-0.214-0.031-0.307-0.056
	c-0.094-0.025-0.179-0.056-0.252-0.094C45.513,81.094,45.45,81.05,45.4,81s-0.1-0.106-0.148-0.169s-0.096-0.131-0.139-0.206
	c-0.043-0.075-0.084-0.156-0.12-0.244S44.925,80.2,44.9,80.1s-0.044-0.206-0.058-0.32c-0.014-0.114-0.023-0.236-0.029-0.368
	s-0.009-0.272-0.011-0.423S44.8,78.675,44.8,78.5v-3.7v-3.7v-3.7v-3.7c0-0.225,0.006-0.431,0.02-0.62
	c0.014-0.189,0.036-0.361,0.068-0.518s0.072-0.297,0.123-0.423c0.051-0.126,0.114-0.239,0.189-0.339s0.144-0.188,0.214-0.263
	c0.07-0.075,0.142-0.137,0.224-0.188s0.172-0.088,0.28-0.112C46.025,61.213,46.15,61.2,46.3,61.2z M47.4,64.4v3.4v3.4v3.4V78h0.5
	h0.5h0.5h0.5c0.1,0,0.2,0,0.299-0.002c0.099-0.001,0.196-0.004,0.29-0.01c0.094-0.007,0.184-0.016,0.27-0.03
	c0.086-0.014,0.167-0.033,0.242-0.058c0.075,0,0.144-0.006,0.209-0.019c0.066-0.012,0.128-0.031,0.191-0.056
	s0.125-0.056,0.191-0.094c0.066-0.037,0.134-0.081,0.209-0.131s0.144-0.1,0.208-0.15c0.064-0.05,0.124-0.1,0.18-0.15
	c0.056-0.05,0.109-0.1,0.16-0.15C51.9,77.1,51.95,77.05,52,77c0.225-0.3,0.425-0.644,0.598-1.034s0.32-0.828,0.439-1.316
	s0.209-1.025,0.27-1.616C53.369,72.444,53.4,71.8,53.4,71.1c0-0.5-0.013-0.969-0.037-1.406c-0.025-0.438-0.062-0.844-0.113-1.219
	c-0.05-0.375-0.112-0.719-0.188-1.031S52.9,66.85,52.8,66.6s-0.206-0.475-0.319-0.677c-0.112-0.202-0.231-0.38-0.356-0.536
	s-0.256-0.291-0.394-0.405S51.45,64.775,51.3,64.7s-0.306-0.137-0.469-0.189c-0.162-0.051-0.331-0.092-0.506-0.123
	s-0.356-0.053-0.544-0.067S49.4,64.3,49.2,64.3h-0.45H48.3h-0.45H47.4v0.025v0.025c0,0,0,0.012,0,0.025
	C47.4,64.388,47.4,64.4,47.4,64.4z"/>
<path d="M69.7,75c0,0.15-0.006,0.306-0.019,0.469c-0.012,0.162-0.031,0.331-0.056,0.506c-0.025,0.175-0.056,0.356-0.094,0.544
	S69.45,76.9,69.4,77.1c-0.05,0.175-0.106,0.356-0.17,0.541c-0.064,0.184-0.136,0.372-0.217,0.559
	c-0.081,0.188-0.172,0.375-0.274,0.559c-0.102,0.184-0.214,0.366-0.339,0.541c-0.1,0.175-0.213,0.344-0.336,0.505
	c-0.123,0.161-0.258,0.314-0.402,0.458c-0.144,0.144-0.297,0.278-0.457,0.401C67.044,80.788,66.875,80.9,66.7,81
	s-0.356,0.194-0.544,0.278c-0.187,0.084-0.381,0.159-0.581,0.222s-0.406,0.113-0.619,0.147S64.525,81.7,64.3,81.7
	c-0.175,0-0.344-0.006-0.508-0.019c-0.164-0.012-0.323-0.031-0.479-0.056c-0.156-0.025-0.31-0.056-0.461-0.094
	C62.7,81.494,62.55,81.45,62.4,81.4s-0.294-0.106-0.433-0.169s-0.273-0.131-0.404-0.206s-0.259-0.156-0.386-0.244
	S60.925,80.6,60.8,80.5s-0.244-0.212-0.358-0.336c-0.114-0.123-0.224-0.258-0.33-0.402c-0.106-0.144-0.209-0.297-0.31-0.457
	C59.7,79.144,59.6,78.975,59.5,78.8c-0.1-0.15-0.194-0.306-0.281-0.469S59.05,78,58.975,77.825
	c-0.075-0.175-0.144-0.356-0.206-0.544S58.65,76.9,58.6,76.7s-0.1-0.4-0.15-0.602c-0.05-0.202-0.1-0.405-0.15-0.611
	c-0.05-0.206-0.1-0.415-0.15-0.629c-0.05-0.214-0.1-0.433-0.15-0.658c-0.025-0.225-0.05-0.45-0.073-0.677
	c-0.024-0.227-0.046-0.455-0.065-0.686c-0.019-0.231-0.034-0.465-0.045-0.704C57.806,71.894,57.8,71.65,57.8,71.4
	c0-0.4,0.013-0.794,0.036-1.178c0.023-0.384,0.058-0.759,0.102-1.122c0.043-0.362,0.097-0.713,0.157-1.047S58.225,67.4,58.3,67.1
	c0.075-0.325,0.163-0.638,0.259-0.938c0.097-0.3,0.203-0.588,0.316-0.863c0.112-0.275,0.231-0.537,0.353-0.787
	s0.247-0.488,0.372-0.713c0.15-0.225,0.306-0.438,0.467-0.638s0.326-0.388,0.495-0.562c0.169-0.175,0.341-0.337,0.514-0.487
	s0.348-0.288,0.523-0.413c0.2-0.125,0.4-0.231,0.602-0.32c0.201-0.089,0.404-0.161,0.611-0.218c0.207-0.056,0.416-0.096,0.63-0.123
	C63.656,61.013,63.875,61,64.1,61c0.275,0,0.537,0.019,0.791,0.058c0.253,0.039,0.497,0.098,0.734,0.179
	c0.238,0.082,0.469,0.185,0.697,0.311S66.775,61.825,67,62c0.2,0.15,0.394,0.319,0.578,0.502s0.359,0.38,0.522,0.586
	c0.162,0.206,0.312,0.421,0.447,0.642c0.134,0.22,0.253,0.445,0.353,0.67c0.1,0.25,0.194,0.494,0.278,0.731
	c0.084,0.238,0.159,0.469,0.222,0.694s0.112,0.444,0.147,0.656S69.6,66.9,69.6,67.1c0,0.125-0.006,0.244-0.019,0.356
	c-0.012,0.113-0.031,0.219-0.056,0.319c-0.025,0.1-0.056,0.194-0.094,0.281S69.35,68.225,69.3,68.3
	c-0.05,0.1-0.106,0.181-0.167,0.247c-0.061,0.066-0.127,0.116-0.196,0.153c-0.069,0.037-0.14,0.062-0.214,0.078
	S68.575,68.8,68.499,68.8s-0.151-0.006-0.224-0.02c-0.073-0.014-0.145-0.036-0.214-0.068s-0.134-0.072-0.195-0.123
	c-0.061-0.051-0.116-0.114-0.166-0.189c-0.05-0.05-0.1-0.119-0.15-0.203c-0.05-0.084-0.1-0.184-0.15-0.297s-0.1-0.237-0.15-0.372
	c-0.05-0.134-0.1-0.278-0.15-0.428c-0.1-0.25-0.2-0.481-0.3-0.695c-0.1-0.214-0.2-0.411-0.3-0.592s-0.2-0.347-0.3-0.498
	c-0.1-0.151-0.2-0.289-0.3-0.414c-0.125-0.125-0.256-0.231-0.394-0.32c-0.137-0.089-0.281-0.161-0.431-0.217
	c-0.15-0.057-0.306-0.098-0.469-0.125C64.444,64.212,64.275,64.2,64.1,64.2c-0.275,0-0.537,0.037-0.786,0.114
	c-0.248,0.077-0.483,0.192-0.701,0.349s-0.422,0.353-0.608,0.592c-0.186,0.239-0.355,0.52-0.505,0.845s-0.287,0.681-0.409,1.069
	c-0.122,0.388-0.228,0.806-0.316,1.256c-0.088,0.45-0.156,0.931-0.203,1.444C60.525,70.381,60.5,70.925,60.5,71.5
	c0,0.4,0.006,0.781,0.02,1.144s0.036,0.706,0.068,1.031c0.031,0.325,0.071,0.631,0.123,0.919c0.051,0.287,0.114,0.556,0.189,0.806
	s0.156,0.487,0.244,0.711s0.181,0.433,0.281,0.627c0.1,0.194,0.206,0.372,0.319,0.533c0.113,0.161,0.231,0.305,0.356,0.43
	s0.263,0.237,0.409,0.336s0.303,0.183,0.466,0.252s0.331,0.122,0.503,0.157C63.65,78.482,63.825,78.5,64,78.5
	c0.2,0,0.387-0.019,0.566-0.056c0.178-0.037,0.347-0.094,0.509-0.169c0.163-0.075,0.319-0.169,0.472-0.281
	C65.7,77.881,65.85,77.75,66,77.6s0.281-0.312,0.398-0.491c0.117-0.178,0.221-0.372,0.314-0.584
	c0.094-0.213,0.178-0.444,0.257-0.697S67.125,75.3,67.2,75c0.025-0.125,0.056-0.25,0.091-0.372c0.034-0.122,0.072-0.241,0.109-0.353
	s0.075-0.219,0.109-0.316c0.034-0.097,0.066-0.184,0.091-0.259c0.05-0.075,0.1-0.144,0.153-0.205
	c0.053-0.061,0.109-0.114,0.172-0.158c0.063-0.044,0.131-0.078,0.209-0.101C68.213,73.212,68.3,73.2,68.4,73.2
	c0.075,0,0.15,0.012,0.224,0.036s0.146,0.058,0.215,0.101c0.068,0.044,0.134,0.097,0.195,0.158c0.061,0.061,0.117,0.13,0.167,0.205
	s0.106,0.156,0.162,0.245c0.056,0.089,0.112,0.186,0.162,0.293c0.05,0.106,0.094,0.221,0.125,0.348
	C69.681,74.712,69.7,74.85,69.7,75z"/>
<polygon points="58.8,49.4 58.55,49.1 58.3,48.8 58.05,48.5 57.8,48.2 59.9,46.25 62,44.3 64.1,42.35 66.2,40.4 66.425,40.7 
	66.65,41 66.875,41.3 67.1,41.6 65.025,43.55 62.95,45.5 60.875,47.45 "/>
<polygon points="34.1,40.7 34.35,40.425 34.6,40.15 34.85,39.875 35.1,39.6 37.15,41.575 39.2,43.55 41.25,45.525 43.3,47.5 
	43.05,47.8 42.8,48.1 42.55,48.4 42.3,48.7 40.25,46.7 38.2,44.7 36.15,42.7 "/>
<path d="M26.2,20.9c1.574,0,3.074,0.338,4.437,0.951c1.364,0.612,2.592,1.498,3.624,2.593s1.866,2.399,2.443,3.846
	C37.281,29.738,37.6,31.33,37.6,33c0,1.671-0.319,3.262-0.896,4.71c-0.577,1.448-1.412,2.751-2.443,3.846s-2.26,1.981-3.624,2.593
	C29.273,44.761,27.774,45.1,26.2,45.1s-3.074-0.339-4.437-0.951c-1.364-0.612-2.592-1.498-3.624-2.593s-1.866-2.399-2.443-3.846
	S14.8,34.671,14.8,33c0-1.67,0.319-3.262,0.896-4.71c0.577-1.448,1.412-2.751,2.443-3.846s2.26-1.981,3.624-2.593
	C23.126,21.239,24.626,20.9,26.2,20.9z"/>
<path d="M73.9,20.9c1.574,0,3.074,0.338,4.437,0.951c1.364,0.612,2.592,1.498,3.624,2.593s1.866,2.399,2.443,3.846
	C84.981,29.738,85.3,31.33,85.3,33c0,1.671-0.319,3.262-0.896,4.71s-1.412,2.751-2.443,3.846s-2.26,1.981-3.624,2.593
	C76.974,44.761,75.474,45.1,73.9,45.1s-3.073-0.339-4.437-0.951c-1.364-0.612-2.592-1.498-3.624-2.593
	c-1.032-1.095-1.866-2.399-2.443-3.846C62.819,36.262,62.5,34.671,62.5,33c0-1.67,0.319-3.262,0.896-4.71s1.412-2.751,2.443-3.846
	c1.032-1.095,2.26-1.981,3.624-2.593C70.826,21.238,72.326,20.9,73.9,20.9z"/>
</svg>
