<?xml version="1.0" encoding="iso-8859-1"?>
<!-- Generator: Adobe Illustrator 25.3.1, SVG Export Plug-In . SVG Version: 6.00 Build 0)  -->
<svg version="1.1" id="Layer_1" xmlns="http://www.w3.org/2000/svg" xmlns:xlink="http://www.w3.org/1999/xlink" x="0px" y="0px"
	 viewBox="0 0 100 100" style="enable-background:new 0 0 100 100;" xml:space="preserve">
<path style="fill:#A4251A;" d="M50,2.4c6.572,0,12.833,1.332,18.528,3.741c5.695,2.409,10.823,5.894,15.13,10.201
	s7.793,9.435,10.201,15.13C96.268,37.167,97.6,43.428,97.6,50s-1.332,12.833-3.741,18.528c-2.409,5.695-5.894,10.823-10.201,15.13
	s-9.436,7.793-15.13,10.201C62.833,96.268,56.572,97.6,50,97.6s-12.833-1.332-18.528-3.741c-5.695-2.409-10.823-5.894-15.13-10.201
	s-7.792-9.436-10.201-15.13S2.4,56.572,2.4,50s1.332-12.833,3.741-18.528s5.894-10.823,10.201-15.13s9.435-7.792,15.13-10.201
	S43.428,2.4,50,2.4z"/>
<path style="fill:#440C09;" d="M50,1.9c-6.625,0-12.944,1.35-18.695,3.789s-10.936,5.967-15.292,10.324S8.129,25.554,5.69,31.305
	S1.9,43.375,1.9,50s1.35,12.944,3.789,18.695s5.967,10.936,10.324,15.293s9.541,7.884,15.292,10.323S43.375,98.1,50,98.1
	s12.944-1.344,18.695-3.775c5.752-2.431,10.936-5.95,15.293-10.3s7.884-9.531,10.323-15.287S98.1,56.65,98.1,50
	s-1.35-12.981-3.789-18.737s-5.967-10.938-10.323-15.288s-9.54-7.869-15.292-10.3C62.944,3.244,56.625,1.9,50,1.9z M50,93
	c-5.95,0-11.612-1.2-16.759-3.372s-9.778-5.316-13.666-9.203s-7.031-8.519-9.203-13.666C8.2,61.613,7,55.95,7,50
	s1.2-11.612,3.372-16.759s5.316-9.778,9.203-13.666s8.519-7.031,13.666-9.203S44.05,7,50,7s11.613,1.206,16.759,3.386
	s9.778,5.333,13.666,9.226s7.031,8.528,9.203,13.67S93,44.075,93,50s-1.2,11.575-3.372,16.717s-5.316,9.776-9.203,13.67
	s-8.519,7.047-13.666,9.227C61.613,91.794,55.95,93,50,93z"/>
<path style="fill:#FFFFFF;" d="M54.6,34.6l2.45-1.65l2.45-1.65l2.45-1.65L64.4,28l0.85,1.3l0.85,1.3l0.85,1.3l0.85,1.3l2.25-3.825
	l2.25-3.825l2.25-3.825L76.8,17.9l-4.5,0.45l-4.5,0.45l-4.5,0.45l-4.5,0.45l0.825,1.25l0.825,1.25l0.825,1.25L62.1,24.7l-3.15,2.225
	L55.8,29.15l-3.15,2.225L49.5,33.6c-0.375-0.05-0.756-0.094-1.141-0.131c-0.384-0.038-0.772-0.069-1.159-0.094
	s-0.775-0.044-1.159-0.056C45.656,33.306,45.275,33.3,44.9,33.3c-4.675-0.025-9.131,0.925-13.186,2.666
	c-4.055,1.741-7.708,4.272-10.777,7.409s-5.553,6.881-7.27,11.047S11,63.175,11,68c0,0.175,0,0.669,0,1.311s0,1.433,0,2.201
	c0,0.769,0,1.516,0,2.071s0,0.917,0,0.917h16.95H44.9h16.95H78.8c0,0,0-0.363,0-0.917s0-1.302,0-2.071c0-0.769,0-1.559,0-2.201
	s0-1.136,0-1.311c0.025-3.95-0.6-7.744-1.77-11.28s-2.886-6.814-5.042-9.733s-4.753-5.478-7.686-7.576
	C61.369,37.312,58.1,35.675,54.6,34.6z M75.1,70.9H60.025H44.95H29.875H14.8c0-0.175-0.006-0.406-0.016-0.664
	c-0.009-0.258-0.022-0.542-0.034-0.824c-0.012-0.281-0.025-0.559-0.034-0.804C14.706,68.363,14.7,68.15,14.7,68
	c0-4.3,0.844-8.394,2.37-12.116c1.527-3.722,3.736-7.072,6.468-9.884s5.984-5.088,9.598-6.659S40.725,36.9,44.9,36.9
	s8.156,0.869,11.78,2.441s6.889,3.847,9.632,6.659c2.744,2.812,4.965,6.162,6.502,9.884C74.35,59.606,75.2,63.7,75.2,68
	c0,0.175,0,0.406-0.002,0.664c-0.001,0.258-0.004,0.542-0.01,0.824c-0.006,0.281-0.016,0.559-0.03,0.804
	C75.144,70.537,75.125,70.75,75.1,70.9z"/>
<path d="M79.4,74.9H62.175H44.95H27.725H10.5v-1.75V71.4v-1.75V67.9c0-4.85,0.969-9.475,2.719-13.684s4.281-8.003,7.406-11.191
	s6.844-5.769,10.969-7.553C35.719,33.688,40.25,32.7,45,32.7c0.375,0,0.75,0.006,1.125,0.019c0.375,0.013,0.75,0.031,1.125,0.056
	s0.75,0.056,1.125,0.094S49.125,32.95,49.5,33l3-2.125l3-2.125l3-2.125l3-2.125l-0.875-1.325L59.75,21.85l-0.875-1.325L58,19.2
	l4.95-0.475l4.95-0.475l4.95-0.475L77.8,17.3l-2.475,4.2l-2.475,4.2l-2.475,4.2L67.9,34.1L67,32.75l-0.9-1.35l-0.9-1.35l-0.9-1.35
	l-2.125,1.45L60.05,31.6l-2.125,1.45L55.8,34.5c3.475,1.175,6.688,2.906,9.551,5.08s5.38,4.789,7.461,7.732s3.728,6.215,4.855,9.702
	C78.794,60.5,79.4,64.2,79.4,68v1.725v1.725v1.725V74.9z M11.5,73.9h16.7h16.7h16.7h16.7v-1.5v-1.5v-1.5v-1.5
	c0-3.775-0.613-7.45-1.751-10.906c-1.139-3.456-2.805-6.694-4.911-9.594s-4.653-5.463-7.555-7.569
	C61.181,37.725,57.925,36.075,54.4,35l-0.25-0.075L53.9,34.85l-0.25-0.075L53.4,34.7l2.75-1.875l2.75-1.875l2.75-1.875L64.4,27.2
	l0.825,1.225l0.825,1.225l0.825,1.225L67.7,32.1l2.025-3.45l2.025-3.45l2.025-3.45L75.8,18.3l-4.025,0.425L67.75,19.15l-4.025,0.425
	L59.7,20l0.775,1.175l0.775,1.175l0.775,1.175L62.8,24.7l-3.275,2.325L56.25,29.35l-3.275,2.325L49.7,34h-0.05H49.6h-0.05H49.5
	c-0.375-0.05-0.756-0.094-1.141-0.131c-0.384-0.037-0.772-0.069-1.159-0.094c-0.388-0.025-0.775-0.044-1.159-0.056
	C45.656,33.706,45.275,33.7,44.9,33.7c-4.6,0-8.987,0.962-12.981,2.701c-3.994,1.739-7.594,4.254-10.619,7.361
	s-5.475,6.803-7.169,10.905S11.5,63.275,11.5,68v1.475v1.475v1.475V73.9z M75.6,71.4H60.275H44.95H29.625H14.3v-0.125V71.15v-0.125
	V70.9c0-0.175-0.006-0.406-0.016-0.666c-0.009-0.259-0.022-0.547-0.034-0.834s-0.025-0.575-0.034-0.834
	C14.206,68.306,14.2,68.075,14.2,67.9c0-4.325,0.863-8.456,2.422-12.22c1.559-3.764,3.816-7.161,6.603-10.018
	s6.106-5.172,9.791-6.773C36.7,37.287,40.75,36.4,45,36.4s8.294,0.888,11.969,2.491c3.675,1.603,6.981,3.922,9.756,6.784
	s5.019,6.269,6.569,10.047C74.844,59.5,75.7,63.65,75.7,68c0,0.15,0,0.369-0.002,0.624c-0.001,0.255-0.004,0.545-0.01,0.839
	c-0.006,0.294-0.016,0.59-0.03,0.857c-0.014,0.267-0.033,0.505-0.058,0.68v0.1v0.1v0.1V71.4z M15.3,70.4h14.85H45h14.85H74.7
	c0-0.2,0-0.419,0-0.642s0-0.451,0-0.67s0-0.428,0-0.614c0-0.186,0-0.349,0-0.474c0-4.225-0.831-8.25-2.334-11.911
	S68.688,49.131,66,46.362s-5.888-5.01-9.441-6.558C53.006,38.256,49.1,37.4,45,37.4s-8.013,0.856-11.575,2.405
	s-6.775,3.789-9.475,6.557s-4.888,6.065-6.4,9.727C16.038,59.75,15.2,63.775,15.2,68c0,0.125,0,0.287,0.002,0.474
	c0.002,0.186,0.004,0.396,0.01,0.614c0.007,0.219,0.016,0.447,0.03,0.67S15.275,70.2,15.3,70.4z"/>
<path style="fill:#FFFFFF;" d="M45.5,40.6c-1.925,0-3.756,0.4-5.42,1.125c-1.664,0.725-3.161,1.775-4.418,3.075
	c-1.256,1.3-2.271,2.85-2.973,4.575C31.988,51.1,31.6,53,31.6,55c0,1.975,0.388,3.862,1.089,5.583
	c0.701,1.72,1.717,3.273,2.973,4.579c1.257,1.307,2.754,2.366,4.418,3.099c1.664,0.733,3.495,1.139,5.42,1.139s3.756-0.4,5.42-1.125
	c1.664-0.725,3.161-1.775,4.418-3.075c1.256-1.3,2.271-2.85,2.973-4.575S59.4,57,59.4,55s-0.388-3.9-1.089-5.625
	S56.594,46.1,55.338,44.8s-2.753-2.35-4.417-3.075S47.425,40.6,45.5,40.6z M45.5,66.5c-1.525,0-2.981-0.325-4.308-0.911
	c-1.326-0.586-2.523-1.433-3.529-2.477s-1.822-2.285-2.386-3.658S34.4,56.575,34.4,55c0-1.6,0.312-3.119,0.877-4.497
	s1.38-2.616,2.386-3.653s2.203-1.875,3.53-2.453S43.975,43.5,45.5,43.5s2.981,0.325,4.308,0.911
	c1.326,0.586,2.523,1.433,3.529,2.477c1.007,1.043,1.822,2.284,2.386,3.657S56.6,53.425,56.6,55s-0.306,3.081-0.862,4.455
	s-1.362,2.614-2.362,3.657c-1,1.044-2.194,1.891-3.525,2.477C48.519,66.175,47.05,66.5,45.5,66.5z"/>
<path d="M45.5,69.8c-1.975,0-3.862-0.419-5.583-1.175c-1.72-0.756-3.273-1.85-4.579-3.2c-1.306-1.35-2.366-2.956-3.099-4.738
	C31.506,58.906,31.1,56.95,31.1,54.9s0.4-4.006,1.125-5.787C32.95,47.331,34,45.725,35.3,44.375s2.85-2.444,4.575-3.2
	C41.6,40.419,43.5,40,45.5,40s3.9,0.425,5.625,1.191s3.275,1.872,4.575,3.234s2.35,2.981,3.075,4.772
	C59.5,50.988,59.9,52.95,59.9,55s-0.406,4-1.139,5.772s-1.792,3.366-3.098,4.703c-1.307,1.338-2.86,2.419-4.58,3.166
	C49.362,69.388,47.475,69.8,45.5,69.8z M45.5,41.1c-1.85,0-3.612,0.388-5.216,1.089c-1.603,0.701-3.047,1.717-4.259,2.973
	s-2.194,2.753-2.872,4.417S32.1,53.075,32.1,55c0,1.9,0.375,3.719,1.053,5.378c0.678,1.659,1.659,3.159,2.872,4.422
	c1.212,1.262,2.656,2.287,4.259,2.997C41.887,68.506,43.65,68.9,45.5,68.9s3.612-0.394,5.216-1.103
	c1.603-0.709,3.047-1.734,4.259-2.997c1.213-1.263,2.194-2.763,2.872-4.422C58.525,58.719,58.9,56.9,58.9,55
	c0-1.925-0.375-3.756-1.053-5.42c-0.678-1.664-1.659-3.161-2.872-4.418s-2.656-2.272-4.259-2.973
	C49.112,41.487,47.35,41.1,45.5,41.1z M45.5,67c-1.6,0-3.125-0.338-4.513-0.947s-2.638-1.491-3.688-2.578s-1.9-2.381-2.487-3.816
	C34.225,58.225,33.9,56.65,33.9,55s0.325-3.225,0.912-4.659c0.588-1.434,1.438-2.728,2.488-3.816c1.05-1.088,2.3-1.969,3.687-2.578
	C42.375,43.338,43.9,43,45.5,43s3.125,0.338,4.513,0.947s2.638,1.491,3.688,2.578s1.9,2.381,2.487,3.816
	C56.775,51.775,57.1,53.35,57.1,55s-0.325,3.225-0.912,4.659c-0.588,1.434-1.438,2.728-2.488,3.816
	c-1.05,1.088-2.3,1.969-3.687,2.578C48.625,66.662,47.1,67,45.5,67z M45.5,43.9c-1.475,0-2.875,0.306-4.145,0.861
	s-2.411,1.358-3.368,2.352c-0.956,0.993-1.728,2.178-2.26,3.495C35.194,51.925,34.9,53.375,34.9,54.9s0.3,2.975,0.841,4.292
	c0.541,1.317,1.322,2.501,2.284,3.495c0.963,0.994,2.106,1.797,3.372,2.352S44.05,65.9,45.5,65.9s2.838-0.306,4.103-0.861
	s2.409-1.358,3.372-2.352c0.963-0.993,1.744-2.178,2.284-3.495C55.8,57.875,56.1,56.425,56.1,54.9s-0.294-2.975-0.826-4.292
	c-0.533-1.317-1.304-2.501-2.26-3.495c-0.957-0.994-2.097-1.797-3.368-2.352S46.975,43.9,45.5,43.9z"/>
</svg>
