<?xml version="1.0" encoding="iso-8859-1"?>
<!-- Generator: Adobe Illustrator 25.3.1, SVG Export Plug-In . SVG Version: 6.00 Build 0)  -->
<svg version="1.1" id="Layer_1" xmlns="http://www.w3.org/2000/svg" xmlns:xlink="http://www.w3.org/1999/xlink" x="0px" y="0px"
	 viewBox="0 0 100 100" style="enable-background:new 0 0 100 100;" xml:space="preserve">
<path style="fill:#A4251A;" d="M50,2.4c6.572,0,12.833,1.332,18.528,3.741c5.695,2.409,10.823,5.894,15.13,10.201
	s7.793,9.435,10.201,15.13C96.268,37.167,97.6,43.428,97.6,50s-1.332,12.833-3.741,18.528c-2.409,5.695-5.894,10.823-10.201,15.13
	s-9.436,7.793-15.13,10.201C62.833,96.268,56.572,97.6,50,97.6s-12.833-1.332-18.528-3.741c-5.695-2.409-10.823-5.894-15.13-10.201
	s-7.792-9.436-10.201-15.13S2.4,56.572,2.4,50s1.332-12.833,3.741-18.528s5.894-10.823,10.201-15.13s9.435-7.792,15.13-10.201
	S43.428,2.4,50,2.4z"/>
<path style="fill:#440C09;" d="M50,1.9c-6.625,0-12.944,1.35-18.695,3.789s-10.936,5.967-15.292,10.324S8.129,25.554,5.69,31.305
	S1.9,43.375,1.9,50s1.35,12.944,3.789,18.695s5.967,10.936,10.324,15.293s9.541,7.884,15.292,10.323S43.375,98.1,50,98.1
	s12.944-1.344,18.695-3.775c5.752-2.431,10.936-5.95,15.293-10.3s7.884-9.531,10.323-15.287S98.1,56.65,98.1,50
	s-1.35-12.981-3.789-18.737s-5.967-10.938-10.323-15.288s-9.54-7.869-15.292-10.3C62.944,3.244,56.625,1.9,50,1.9z M50,93
	c-5.95,0-11.612-1.2-16.759-3.372s-9.778-5.316-13.666-9.203s-7.031-8.519-9.203-13.666C8.2,61.613,7,55.95,7,50
	s1.2-11.612,3.372-16.759s5.316-9.778,9.203-13.666s8.519-7.031,13.666-9.203S44.05,7,50,7s11.613,1.206,16.759,3.386
	s9.778,5.333,13.666,9.226s7.031,8.528,9.203,13.67S93,44.075,93,50s-1.2,11.575-3.372,16.717s-5.316,9.776-9.203,13.67
	s-8.519,7.047-13.666,9.227C61.613,91.794,55.95,93,50,93z"/>
<path style="fill:#FFFFFF;" d="M19.6,64.8l4.625-7.2l4.625-7.2l4.625-7.2L38.1,36h-4.4h-4.4h-4.4h-4.4v-2.325V31.35v-2.325V26.7
	h6.75H34h6.75h6.75v2.175v2.175v2.175V35.4l-4.55,7.2l-4.55,7.2L33.85,57l-4.55,7.2h4.625h4.625h4.625H47.8v2.325v2.325v2.325V73.5
	h-7.05H33.7h-7.05H19.6v-2.175V69.15v-2.175V64.8z"/>
<path d="M48.3,74H41h-7.3h-7.3h-7.3v-2.325V69.35v-2.325V64.7l4.525-7.05l4.525-7.05l4.525-7.05L37.2,36.5h-4.3h-4.3h-4.3H20v-2.6
	v-2.6v-2.6v-2.6h7h7h7h7v2.35v2.35v2.35v2.35l-4.45,7.05L39.1,49.6l-4.45,7.05L30.2,63.7h4.525h4.525h4.525H48.3
	c0,0,0,0.644,0,1.609s0,2.253,0,3.541s0,2.575,0,3.541S48.3,74,48.3,74z M20.1,73h6.8h6.8h6.8h6.8v-2.075V68.85v-2.075V64.7h-4.725
	H37.85h-4.725H28.4l4.65-7.375l4.65-7.375l4.65-7.375L47,35.2v-2.025V31.15v-2.025V27.1h-6.5H34h-6.5H21v2.075v2.075v2.075V35.4h4.5
	H30h4.5H39l-4.725,7.4l-4.725,7.4l-4.725,7.4L20.1,65v2v2v2V73z"/>
<path style="fill:#FFFFFF;" d="M50.2,26.6h2.125h2.125h2.125H58.7l2.075,8.55l2.075,8.55l2.075,8.55L67,60.8l2-8.55l2-8.55l2-8.55
	l2-8.55h2.025h2.025h2.025H83.1l-3.125,11.725L76.85,50.05l-3.125,11.725L70.6,73.5h-2.025H66.55h-2.025H62.5l-3.075-11.725
	L56.35,50.05l-3.075-11.725L50.2,26.6z"/>
<path d="M71,74h-2.2h-2.2h-2.2h-2.2l-3.175-11.975L55.85,50.05l-3.175-11.975L49.5,26.1h2.375h2.375h2.375H59l1.975,8.125
	l1.975,8.125l1.975,8.125L66.9,58.6l1.925-8.125l1.925-8.125l1.925-8.125L74.6,26.1h2.3h2.3h2.3h2.3l-3.2,11.975L77.4,50.05
	l-3.2,11.975L71,74z M63,73h1.825h1.825h1.825H70.3l3.05-11.45L76.4,50.1l3.05-11.45L82.5,27.2h-1.775H78.95h-1.775H75.4l-2,8.45
	l-2,8.45l-2,8.45l-2,8.45h-0.25H66.9h-0.25H66.4l-2.05-8.45L62.3,44.1l-2.05-8.45L58.2,27.2h-1.85H54.5h-1.85H50.8l3.05,11.45
	L56.9,50.1l3.05,11.45L63,73z"/>
</svg>
