<?xml version="1.0" encoding="iso-8859-1"?>
<!-- Generator: Adobe Illustrator 25.3.1, SVG Export Plug-In . SVG Version: 6.00 Build 0)  -->
<svg version="1.1" id="Layer_1" xmlns="http://www.w3.org/2000/svg" xmlns:xlink="http://www.w3.org/1999/xlink" x="0px" y="0px"
	 viewBox="0 0 100 100" style="enable-background:new 0 0 100 100;" xml:space="preserve">
<path style="fill:#A4251A;" d="M50,2.4c6.572,0,12.833,1.332,18.528,3.741c5.695,2.409,10.823,5.894,15.13,10.201
	s7.793,9.435,10.201,15.13C96.268,37.167,97.6,43.428,97.6,50s-1.332,12.833-3.741,18.528c-2.409,5.695-5.894,10.823-10.201,15.13
	s-9.436,7.793-15.13,10.201C62.833,96.268,56.572,97.6,50,97.6s-12.833-1.332-18.528-3.741c-5.695-2.409-10.823-5.894-15.13-10.201
	s-7.792-9.436-10.201-15.13S2.4,56.572,2.4,50s1.332-12.833,3.741-18.528s5.894-10.823,10.201-15.13s9.435-7.792,15.13-10.201
	S43.428,2.4,50,2.4z"/>
<path style="fill:#440C09;" d="M50,1.9c-6.625,0-12.944,1.35-18.695,3.789s-10.936,5.967-15.292,10.324S8.129,25.554,5.69,31.305
	S1.9,43.375,1.9,50s1.35,12.944,3.789,18.695s5.967,10.936,10.324,15.293s9.541,7.884,15.292,10.323S43.375,98.1,50,98.1
	s12.944-1.344,18.695-3.775c5.752-2.431,10.936-5.95,15.293-10.3s7.884-9.531,10.323-15.287S98.1,56.65,98.1,50
	s-1.35-12.981-3.789-18.737s-5.967-10.938-10.323-15.288s-9.54-7.869-15.292-10.3C62.944,3.244,56.625,1.9,50,1.9z M50,93
	c-5.95,0-11.612-1.2-16.759-3.372s-9.778-5.316-13.666-9.203s-7.031-8.519-9.203-13.666C8.2,61.613,7,55.95,7,50
	s1.2-11.612,3.372-16.759s5.316-9.778,9.203-13.666s8.519-7.031,13.666-9.203S44.05,7,50,7s11.613,1.206,16.759,3.386
	s9.778,5.333,13.666,9.226s7.031,8.528,9.203,13.67S93,44.075,93,50s-1.2,11.575-3.372,16.717s-5.316,9.776-9.203,13.67
	s-8.519,7.047-13.666,9.227C61.613,91.794,55.95,93,50,93z"/>
<path style="fill:#FFFFFF;" d="M13.6,74v-9.575V54.85v-9.575V35.7h3.425h3.425h3.425H27.3c0.6,0,1.163,0.006,1.689,0.02
	s1.017,0.036,1.474,0.067s0.878,0.072,1.267,0.123c0.389,0.052,0.745,0.115,1.07,0.189c0.45,0.075,0.881,0.169,1.294,0.281
	s0.806,0.244,1.181,0.394s0.731,0.319,1.069,0.506C36.681,37.469,37,37.675,37.3,37.9s0.587,0.469,0.861,0.733
	c0.274,0.264,0.533,0.549,0.777,0.855c0.243,0.306,0.472,0.634,0.682,0.986c0.211,0.351,0.405,0.726,0.58,1.126
	s0.331,0.806,0.467,1.22c0.136,0.414,0.251,0.836,0.345,1.267s0.166,0.872,0.214,1.324c0.049,0.452,0.074,0.914,0.074,1.389
	c0,0.825-0.062,1.612-0.186,2.366c-0.123,0.753-0.308,1.472-0.551,2.159c-0.244,0.688-0.547,1.344-0.908,1.972
	s-0.78,1.228-1.255,1.803c-0.5,0.575-1.094,1.075-1.783,1.501c-0.689,0.427-1.474,0.779-2.355,1.061s-1.86,0.491-2.936,0.63
	C30.25,58.431,29.075,58.5,27.8,58.5h-2.325H23.15h-2.325H18.5v3.875v3.875v3.875V74h-1.225H16.05h-1.225H13.6z M18.4,53.9h2.35
	h2.35h2.35h2.35c0.775,0,1.494-0.037,2.156-0.112s1.269-0.188,1.819-0.338s1.044-0.337,1.481-0.562S34.075,52.4,34.4,52.1
	s0.613-0.631,0.861-0.994s0.458-0.756,0.626-1.181c0.169-0.425,0.297-0.881,0.383-1.369C36.356,48.069,36.4,47.55,36.4,47
	c0-0.4-0.025-0.787-0.075-1.161S36.2,45.106,36.1,44.763c-0.1-0.344-0.225-0.672-0.375-0.983c-0.15-0.311-0.325-0.604-0.525-0.879
	s-0.413-0.531-0.638-0.767s-0.462-0.451-0.712-0.645s-0.513-0.366-0.788-0.515S32.5,40.7,32.2,40.6
	c-0.2-0.05-0.444-0.094-0.731-0.131c-0.287-0.037-0.619-0.069-0.994-0.094s-0.794-0.044-1.256-0.056
	C28.756,40.306,28.25,40.3,27.7,40.3h-2.325H23.05h-2.325H18.4c0,0,0,0.85,0,2.125c0,1.275,0,2.975,0,4.675c0,1.7,0,3.4,0,4.675
	S18.4,53.9,18.4,53.9z"/>
<path d="M18.9,74.5h-1.45H16h-1.45H13.1v-9.825V54.85v-9.825V35.2h3.55h3.55h3.55h3.55c0.6,0,1.169,0.006,1.705,0.02
	c0.536,0.014,1.039,0.036,1.507,0.067s0.903,0.072,1.302,0.123c0.399,0.052,0.761,0.115,1.086,0.189
	c0.45,0.075,0.888,0.175,1.311,0.297c0.424,0.122,0.833,0.266,1.227,0.428c0.393,0.163,0.771,0.344,1.132,0.541
	c0.361,0.197,0.705,0.409,1.03,0.634s0.631,0.475,0.92,0.75c0.289,0.275,0.561,0.575,0.817,0.9c0.257,0.325,0.497,0.675,0.723,1.05
	s0.439,0.775,0.639,1.2c0.2,0.4,0.369,0.819,0.509,1.251s0.253,0.879,0.341,1.335c0.088,0.457,0.151,0.922,0.192,1.393
	c0.041,0.47,0.06,0.945,0.06,1.42c0,0.85-0.062,1.669-0.189,2.455s-0.317,1.539-0.574,2.258s-0.578,1.403-0.967,2.051
	c-0.389,0.648-0.845,1.261-1.37,1.836c-0.525,0.6-1.15,1.125-1.873,1.575S35.282,57.8,34.363,58.1
	c-0.919,0.3-1.935,0.525-3.046,0.675C30.206,58.925,29,59,27.7,59h-2.2h-2.2h-2.2h-2.2c0,0,0,0.969,0,2.422s0,3.391,0,5.328
	s0,3.875,0,5.328S18.9,74.5,18.9,74.5z M14.1,73.5h0.95H16h0.95h0.95v-3.9v-3.9v-3.9v-3.9h2.45h2.45h2.45h2.45
	c1.25,0,2.4-0.069,3.451-0.205c1.052-0.136,2.004-0.339,2.86-0.607c0.857-0.269,1.616-0.604,2.28-1.002
	c0.664-0.398,1.233-0.861,1.708-1.386c0.475-0.55,0.888-1.125,1.239-1.726c0.351-0.602,0.642-1.229,0.873-1.886
	c0.231-0.656,0.403-1.341,0.518-2.055c0.114-0.714,0.17-1.458,0.17-2.233c0-0.45-0.025-0.894-0.073-1.33s-0.12-0.864-0.215-1.282
	s-0.209-0.828-0.345-1.227c-0.136-0.399-0.292-0.786-0.467-1.161s-0.362-0.731-0.562-1.067s-0.413-0.652-0.638-0.946
	c-0.225-0.293-0.463-0.565-0.713-0.814S37.275,38.5,37,38.3s-0.575-0.388-0.897-0.561c-0.322-0.174-0.666-0.333-1.028-0.477
	c-0.362-0.144-0.744-0.271-1.141-0.382c-0.397-0.111-0.809-0.205-1.234-0.28c-0.3-0.05-0.644-0.1-1.027-0.147
	s-0.805-0.091-1.261-0.128s-0.947-0.069-1.467-0.091S27.875,36.2,27.3,36.2H24h-3.3h-3.3h-3.3v9.325v9.325c0,0,0,4.662,0,9.325
	C14.1,68.838,14.1,73.5,14.1,73.5z M27.8,54.4h-2.475H22.85h-2.475H17.9v-3.675V47.05v-3.675V39.7h2.45h2.45h2.45h2.45
	c0.55,0,1.062,0.006,1.534,0.02c0.472,0.014,0.903,0.036,1.291,0.067c0.387,0.031,0.731,0.072,1.028,0.124
	C31.85,39.963,32.1,40.025,32.3,40.1c0.35,0.1,0.681,0.225,0.994,0.377s0.606,0.33,0.881,0.536c0.275,0.206,0.531,0.44,0.769,0.705
	c0.238,0.264,0.456,0.558,0.656,0.882c0.2,0.3,0.375,0.619,0.525,0.955s0.275,0.689,0.375,1.058c0.1,0.368,0.175,0.753,0.225,1.151
	c0.05,0.399,0.075,0.811,0.075,1.237c0,0.575-0.044,1.125-0.131,1.647c-0.088,0.522-0.219,1.016-0.394,1.478
	c-0.175,0.462-0.394,0.893-0.656,1.29c-0.263,0.397-0.569,0.759-0.919,1.084c-0.325,0.3-0.719,0.569-1.177,0.803
	c-0.458,0.234-0.979,0.434-1.56,0.597c-0.582,0.162-1.222,0.287-1.918,0.372C29.35,54.356,28.6,54.4,27.8,54.4z M18.9,53.4h2.225
	h2.225h2.225H27.8c0.75,0,1.444-0.037,2.081-0.111c0.638-0.074,1.219-0.183,1.744-0.327c0.525-0.143,0.994-0.322,1.406-0.533
	s0.769-0.455,1.069-0.73s0.562-0.581,0.787-0.919c0.225-0.337,0.412-0.706,0.562-1.106c0.15-0.4,0.263-0.831,0.338-1.294
	c0.075-0.462,0.112-0.956,0.112-1.481c0-0.375-0.025-0.737-0.073-1.086c-0.049-0.348-0.12-0.683-0.215-1.002
	c-0.093-0.318-0.209-0.621-0.345-0.906c-0.136-0.286-0.292-0.555-0.467-0.805c-0.175-0.275-0.362-0.519-0.564-0.736
	s-0.417-0.408-0.648-0.576c-0.231-0.169-0.479-0.316-0.743-0.446C32.581,41.213,32.3,41.1,32,41c-0.2-0.05-0.438-0.094-0.714-0.131
	s-0.592-0.069-0.949-0.094s-0.753-0.044-1.192-0.056c-0.439-0.012-0.92-0.019-1.445-0.019h-2.2h-2.2h-2.2h-2.2c0,0,0,0.794,0,1.984
	s0,2.778,0,4.366s0,3.175,0,4.366C18.9,52.606,18.9,53.4,18.9,53.4z"/>
<path style="fill:#FFFFFF;" d="M48.3,74v-9.575V54.85v-9.575V35.7h1.2h1.2h1.2h1.2v9.575v9.575v9.575V74h-1.2h-1.2h-1.2H48.3z"/>
<path d="M53.6,74.5h-1.45H50.7h-1.45H47.8v-9.825V54.85v-9.825V35.2h1.45h1.45h1.45h1.45v9.825v9.825v9.825V74.5z M48.8,73.5h0.95
	h0.95h0.95h0.95v-9.325V54.85v-9.325V36.2h-0.95H50.7h-0.95H48.8v9.325v9.325v9.325V73.5z"/>
<path style="fill:#FFFFFF;" d="M71.9,74l-3.525-9.575L64.85,54.85l-3.525-9.575L57.8,35.7h1.3h1.3h1.3H63l2.35,6.95l2.35,6.95
	l2.35,6.95l2.35,6.95c0.2,0.55,0.387,1.094,0.564,1.631c0.176,0.537,0.342,1.069,0.498,1.594s0.303,1.044,0.442,1.556
	S74.175,69.3,74.3,69.8c0.15-0.525,0.3-1.05,0.453-1.575c0.153-0.525,0.309-1.05,0.472-1.575c0.162-0.525,0.331-1.05,0.509-1.575
	c0.178-0.525,0.366-1.05,0.566-1.575l2.45-6.95l2.45-6.95l2.45-6.95l2.45-6.95h1.225h1.225h1.225H91l-3.55,9.575L83.9,54.85
	l-3.55,9.575L76.8,74h-1.225H74.35h-1.225H71.9z"/>
<path d="M77.2,74.5h-1.4h-1.4H73h-1.4l-3.625-9.825L64.35,54.85l-3.625-9.825L57.1,35.2h1.575h1.575h1.575H63.4l2.375,7.05
	l2.375,7.05l2.375,7.05L72.9,63.4c0.125,0.4,0.25,0.794,0.373,1.183c0.124,0.389,0.245,0.774,0.365,1.155
	c0.118,0.381,0.234,0.759,0.345,1.135C74.094,67.25,74.2,67.625,74.3,68c0.1-0.375,0.206-0.756,0.319-1.141
	c0.113-0.384,0.231-0.772,0.356-1.159s0.256-0.775,0.394-1.159c0.137-0.384,0.281-0.766,0.431-1.141l2.475-7.05l2.475-7.05
	l2.475-7.05L85.7,35.2h1.5h1.5h1.5h1.5l-3.625,9.825L84.45,54.85l-3.625,9.825L77.2,74.5z M72.2,73.5h1.05h1.05h1.05h1.05
	l3.45-9.325l3.45-9.325l3.45-9.325L90.2,36.2h-0.95H88.3h-0.95H86.4l-2.425,6.875L81.55,49.95l-2.425,6.875L76.7,63.7
	c-0.175,0.525-0.35,1.05-0.522,1.573s-0.341,1.046-0.503,1.564c-0.162,0.519-0.319,1.034-0.466,1.545
	C75.062,68.894,74.925,69.4,74.8,69.9l-0.125,0.45L74.55,70.8l-0.125,0.45L74.3,71.7l-0.125-0.45L74.05,70.8l-0.125-0.45L73.8,69.9
	c-0.125-0.475-0.256-0.963-0.395-1.461c-0.139-0.498-0.286-1.008-0.443-1.527s-0.322-1.047-0.498-1.583S72.1,64.25,71.9,63.7
	l-2.325-6.875L67.25,49.95l-2.325-6.875L62.6,36.2h-1.025H60.55h-1.025H58.5l3.425,9.325l3.425,9.325l3.425,9.325L72.2,73.5z"/>
<path style="fill:#FFFFFF;" d="M51.3,27.1v-2.5v-2.5v-2.5v-2.5c0.4-0.05,0.775-0.138,1.112-0.258
	c0.338-0.12,0.638-0.273,0.888-0.454c0.25-0.181,0.45-0.391,0.587-0.624C54.025,15.531,54.1,15.275,54.1,15
	s-0.075-0.531-0.213-0.764c-0.137-0.233-0.337-0.442-0.587-0.623s-0.55-0.334-0.888-0.455S51.7,12.95,51.3,12.9v-0.475V11.95v-0.475
	V11h-0.275H50.75h-0.275H50.2v0.475v0.475v0.475V12.9c-0.4,0.05-0.781,0.138-1.128,0.258c-0.347,0.12-0.659,0.273-0.922,0.454
	c-0.263,0.182-0.475,0.391-0.622,0.624C47.381,14.469,47.3,14.725,47.3,15c0,0.25,0.081,0.494,0.228,0.722
	c0.147,0.228,0.359,0.441,0.622,0.628s0.575,0.35,0.922,0.478S49.8,17.05,50.2,17.1v2.5v2.5v2.5v2.5l-2.225-1.45L45.75,24.2
	l-2.225-1.45L41.3,21.3v3.275v3.275v3.275V34.4l2.225-1.425l2.225-1.425l2.225-1.425L50.2,28.7h0.275h0.275h0.275H51.3l2.225,1.425
	l2.225,1.425l2.225,1.425L60.2,34.4v-3.275V27.85v-3.275V21.3l-2.225,1.45L55.75,24.2l-2.225,1.45L51.3,27.1z M42.4,32.1v-2.125
	V27.85v-2.125V23.6l1.625,1.075l1.625,1.075l1.625,1.075L48.9,27.9l-1.625,1.05L45.65,30l-1.625,1.05L42.4,32.1z M59.1,32.1
	l-1.625-1.05L55.85,30l-1.625-1.05L52.6,27.9l1.625-1.075l1.625-1.075l1.625-1.075L59.1,23.6v2.125v2.125v2.125V32.1z"/>
<path d="M60.4,34.9l-2.275-1.475L55.85,31.95l-2.275-1.475L51.3,29h-0.25H50.8h-0.25H50.3L48,30.475l-2.3,1.475l-2.3,1.475
	L41.1,34.9v-3.525V27.85v-3.525V20.8l2.225,1.45l2.225,1.45l2.225,1.45L50,26.6v-2.35V21.9v-2.35V17.2
	c-0.45-0.025-0.863-0.106-1.228-0.231s-0.684-0.294-0.947-0.494s-0.469-0.431-0.609-0.681S47,15.275,47,15s0.075-0.544,0.214-0.795
	s0.342-0.486,0.598-0.693c0.257-0.206,0.566-0.384,0.918-0.523c0.352-0.139,0.745-0.239,1.17-0.289v-0.475V11.75v-0.475V10.8h0.4
	h0.4h0.4h0.4v0.475v0.475v0.475V12.7c0.425,0.05,0.812,0.15,1.155,0.289s0.639,0.317,0.882,0.523
	c0.244,0.207,0.435,0.441,0.565,0.693c0.13,0.252,0.198,0.52,0.198,0.795s-0.075,0.538-0.212,0.781
	C53.95,16.025,53.75,16.25,53.5,16.45s-0.55,0.375-0.888,0.519C52.275,17.113,51.9,17.225,51.5,17.3v2.35V22v2.35v2.35l2.225-1.45
	l2.225-1.45l2.225-1.45L60.4,20.9v3.5v3.5v3.5V34.9z M41.6,21.8v3.05v3.05v3.05V34l2.125-1.35l2.125-1.35l2.125-1.35L50.1,28.6
	h0.325h0.325h0.325H51.4l2.125,1.35l2.125,1.35l2.125,1.35L59.9,34v-3.05V27.9v-3.05V21.8l-2.225,1.45L55.45,24.7l-2.225,1.45
	L51,27.6v-2.7v-2.7v-2.7v-2.7h0.05h0.05h0.05h0.05c0.375-0.05,0.725-0.131,1.039-0.239c0.314-0.108,0.592-0.242,0.823-0.399
	c0.232-0.156,0.416-0.334,0.543-0.529C53.731,15.438,53.8,15.225,53.8,15s-0.069-0.444-0.195-0.647s-0.311-0.391-0.542-0.553
	s-0.509-0.3-0.823-0.403c-0.314-0.103-0.664-0.172-1.039-0.197h-0.05h-0.05H51.05H51v-0.45V12.3v-0.45V11.4h-0.15H50.7h-0.15H50.4
	v0.45v0.45v0.45v0.45h-0.05H50.3h-0.05H50.2c-0.375,0.025-0.731,0.094-1.055,0.197c-0.324,0.103-0.614,0.241-0.858,0.403
	c-0.244,0.162-0.44,0.35-0.576,0.553S47.5,14.775,47.5,15s0.075,0.444,0.211,0.647c0.136,0.203,0.333,0.391,0.576,0.553
	c0.244,0.163,0.535,0.3,0.858,0.403c0.323,0.103,0.68,0.172,1.055,0.197h0.05h0.05h0.05h0.05v2.675v2.675v2.675V27.5l-2.2-1.425
	L46,24.65l-2.2-1.425L41.6,21.8z M59.4,32.5l-1.8-1.175l-1.8-1.175L54,28.975L52.2,27.8l1.8-1.175l1.8-1.175l1.8-1.175l1.8-1.175
	v2.35v2.35v2.35V32.5z M53.1,27.9l1.45,0.925L56,29.75l1.45,0.925L58.9,31.6v-1.9v-1.9v-1.9V24l-1.45,0.975L56,25.95l-1.45,0.975
	L53.1,27.9z M42.1,32.5v-2.35V27.8v-2.35V23.1l1.8,1.175l1.8,1.175l1.8,1.175l1.8,1.175l-1.8,1.175l-1.8,1.175l-1.8,1.175L42.1,32.5
	z M42.6,24.1V26v1.9v1.9v1.9l1.45-0.925l1.45-0.925l1.45-0.925L48.4,28l-1.45-0.975L45.5,26.05l-1.45-0.975L42.6,24.1z"/>
</svg>
