<?xml version="1.0" encoding="iso-8859-1"?>
<!-- Generator: Adobe Illustrator 25.3.1, SVG Export Plug-In . SVG Version: 6.00 Build 0)  -->
<svg version="1.1" id="Layer_1" xmlns="http://www.w3.org/2000/svg" xmlns:xlink="http://www.w3.org/1999/xlink" x="0px" y="0px"
	 viewBox="0 0 100 100" style="enable-background:new 0 0 100 100;" xml:space="preserve">
<path style="fill:#A4251A;" d="M50,2.4c6.572,0,12.833,1.332,18.528,3.741c5.695,2.409,10.823,5.894,15.13,10.201
	s7.793,9.435,10.201,15.13C96.268,37.167,97.6,43.428,97.6,50s-1.332,12.833-3.741,18.528c-2.409,5.695-5.894,10.823-10.201,15.13
	s-9.436,7.793-15.13,10.201C62.833,96.268,56.572,97.6,50,97.6s-12.833-1.332-18.528-3.741c-5.695-2.409-10.823-5.894-15.13-10.201
	s-7.792-9.436-10.201-15.13S2.4,56.572,2.4,50s1.332-12.833,3.741-18.528s5.894-10.823,10.201-15.13s9.435-7.792,15.13-10.201
	S43.428,2.4,50,2.4z"/>
<path style="fill:#440C09;" d="M50,1.9c-6.625,0-12.944,1.35-18.695,3.789s-10.936,5.967-15.292,10.324S8.129,25.554,5.69,31.305
	S1.9,43.375,1.9,50s1.35,12.944,3.789,18.695s5.967,10.936,10.324,15.293s9.541,7.884,15.292,10.323S43.375,98.1,50,98.1
	s12.944-1.344,18.695-3.775c5.752-2.431,10.936-5.95,15.293-10.3s7.884-9.531,10.323-15.287S98.1,56.65,98.1,50
	s-1.35-12.981-3.789-18.737s-5.967-10.938-10.323-15.288s-9.54-7.869-15.292-10.3C62.944,3.244,56.625,1.9,50,1.9z M50,93
	c-5.95,0-11.612-1.2-16.759-3.372s-9.778-5.316-13.666-9.203s-7.031-8.519-9.203-13.666C8.2,61.613,7,55.95,7,50
	s1.2-11.612,3.372-16.759s5.316-9.778,9.203-13.666s8.519-7.031,13.666-9.203S44.05,7,50,7s11.613,1.206,16.759,3.386
	s9.778,5.333,13.666,9.226s7.031,8.528,9.203,13.67S93,44.075,93,50s-1.2,11.575-3.372,16.717s-5.316,9.776-9.203,13.67
	s-8.519,7.047-13.666,9.227C61.613,91.794,55.95,93,50,93z"/>
<path style="fill:#FFFFFF;" d="M32.9,68.9h-2.125H28.65h-2.125H24.4L24,63.075l-0.4-5.825l-0.4-5.825L22.8,45.6l-0.6,5.825
	l-0.6,5.825L21,63.075L20.4,68.9h-2.05H16.3h-2.05H12.2l-0.4-8.975l-0.4-8.975L11,41.975L10.6,33h1.35h1.35h1.35H16l0.3,6.65
	l0.3,6.65l0.3,6.65l0.3,6.65l0.775-6.525l0.775-6.525l0.775-6.525L20.3,33.5h1.25h1.25h1.25h1.25l0.7,6.525l0.7,6.525l0.7,6.525
	l0.7,6.525l0.325-6.65l0.325-6.65l0.325-6.65L29.4,33h1.25h1.25h1.25h1.25l-0.375,8.975L33.65,50.95l-0.375,8.975L32.9,68.9z"/>
<path d="M33.3,69.4h-2.375H28.55h-2.375H23.8l-0.325-4.5l-0.325-4.5l-0.325-4.5L22.5,51.4l-0.475,4.5l-0.475,4.5l-0.475,4.5
	L20.6,69.4h-2.275H16.05h-2.275H11.5l-0.375-9.225L10.75,50.95l-0.375-9.225L10,32.5h1.6h1.6h1.6h1.6l0.225,5.25L16.85,43
	l0.225,5.25L17.3,53.5l0.625-5.125l0.625-5.125l0.625-5.125L19.8,33h1.475h1.475h1.475H25.7l0.525,5.025l0.525,5.025l0.525,5.025
	L27.8,53.1l0.25-5.15l0.25-5.15l0.25-5.15l0.25-5.15h1.5h1.5h1.5h1.5l-0.375,9.225L34.05,50.95l-0.375,9.225L33.3,69.4z M24.8,68.4
	h1.9h1.9h1.9h1.9l0.375-8.725l0.375-8.725l0.375-8.725L33.9,33.5h-1h-1h-1h-1l-0.3,6.525l-0.3,6.525L29,53.075L28.7,59.6h-0.25H28.2
	h-0.25H27.7l-0.675-6.425L26.35,46.75l-0.675-6.425L25,33.9h-1.025H22.95h-1.025H20.9l-0.775,6.425L19.35,46.75l-0.775,6.425
	L17.8,59.6h-0.25H17.3h-0.25H16.8l-0.3-6.525l-0.3-6.525l-0.3-6.525L15.6,33.5h-1.1h-1.1h-1.1h-1.1l0.375,8.725l0.375,8.725
	l0.375,8.725L12.7,68.4h1.825h1.825h1.825H20l0.6-5.7l0.6-5.7l0.6-5.7l0.6-5.7h0.25h0.25h0.25h0.25l0.35,5.7L24.1,57l0.35,5.7
	L24.8,68.4z"/>
<path style="fill:#FFFFFF;" d="M53.5,44.5c0,0.575-0.013,1.125-0.036,1.65c-0.024,0.525-0.058,1.025-0.102,1.5
	c-0.043,0.475-0.096,0.925-0.157,1.35s-0.13,0.825-0.205,1.2s-0.169,0.737-0.278,1.084c-0.109,0.347-0.234,0.678-0.372,0.991
	s-0.287,0.606-0.447,0.878c-0.159,0.272-0.328,0.522-0.503,0.747c-0.175,0.25-0.362,0.475-0.561,0.678
	c-0.198,0.203-0.408,0.384-0.627,0.547c-0.218,0.162-0.446,0.306-0.682,0.434S49.05,55.8,48.8,55.9s-0.513,0.188-0.787,0.263
	c-0.275,0.075-0.563,0.138-0.863,0.188s-0.612,0.087-0.938,0.112S45.55,56.5,45.2,56.5h-0.525H44.15h-0.525H43.1v3.125v3.125v3.125
	V69h-1.275H40.55h-1.275H38v-8.975V51.05v-8.975V33.1c0.175-0.025,0.356-0.05,0.542-0.075c0.186-0.025,0.376-0.05,0.57-0.075
	c0.194-0.025,0.391-0.05,0.59-0.075S40.1,32.825,40.3,32.8c0.175-0.025,0.35-0.044,0.527-0.059c0.176-0.016,0.354-0.028,0.535-0.041
	s0.365-0.025,0.554-0.041c0.189-0.016,0.383-0.034,0.584-0.059c0.2-0.025,0.4-0.044,0.6-0.058c0.2-0.014,0.4-0.023,0.6-0.029
	c0.2-0.007,0.4-0.01,0.6-0.011c0.2-0.002,0.4-0.002,0.6-0.002c0.425,0,0.831,0.019,1.219,0.055c0.388,0.036,0.756,0.089,1.106,0.158
	c0.35,0.069,0.681,0.153,0.994,0.251c0.312,0.098,0.606,0.211,0.881,0.336s0.537,0.269,0.786,0.43
	c0.248,0.161,0.483,0.339,0.701,0.532c0.219,0.194,0.422,0.403,0.608,0.627S51.55,35.35,51.7,35.6
	c0.175,0.25,0.331,0.519,0.472,0.803c0.141,0.284,0.266,0.584,0.378,0.897s0.212,0.638,0.303,0.972S53.025,38.95,53.1,39.3
	c0.075,0.4,0.138,0.806,0.189,1.22c0.052,0.414,0.092,0.836,0.123,1.267c0.031,0.431,0.054,0.872,0.068,1.324S53.5,44.025,53.5,44.5
	z M48.3,44.9c0-0.5-0.013-0.969-0.037-1.408c-0.025-0.439-0.063-0.849-0.113-1.23c-0.05-0.381-0.112-0.734-0.187-1.061
	C47.888,40.875,47.8,40.575,47.7,40.3c-0.1-0.25-0.219-0.475-0.358-0.672c-0.139-0.197-0.299-0.366-0.48-0.503
	s-0.385-0.244-0.611-0.316C46.025,38.738,45.775,38.7,45.5,38.7c-0.2,0-0.388,0.006-0.562,0.017
	c-0.175,0.011-0.338,0.026-0.487,0.045s-0.287,0.04-0.412,0.064C43.913,38.85,43.8,38.875,43.7,38.9
	c-0.05,0.025-0.1,0.044-0.148,0.058s-0.096,0.023-0.139,0.029c-0.044,0.006-0.084,0.01-0.12,0.011S43.225,39,43.2,39v2.875v2.875
	v2.875V50.5h0.575h0.575h0.575H45.5c0.225,0,0.438-0.031,0.638-0.094c0.2-0.062,0.387-0.156,0.562-0.281
	c0.175-0.125,0.338-0.281,0.487-0.469c0.15-0.188,0.288-0.406,0.413-0.656s0.231-0.525,0.32-0.823
	c0.089-0.298,0.161-0.62,0.217-0.964c0.056-0.344,0.097-0.71,0.124-1.096C48.287,45.731,48.3,45.325,48.3,44.9z"/>
<path d="M43.7,69.5h-1.525H40.65h-1.525H37.6v-9.225V51.05v-9.225V32.6h0.125h0.125h0.125H38.1c0.175-0.025,0.356-0.05,0.542-0.075
	c0.186-0.025,0.376-0.05,0.57-0.075c0.194-0.025,0.391-0.05,0.59-0.075S40.2,32.325,40.4,32.3c0.175-0.025,0.35-0.044,0.528-0.059
	c0.178-0.016,0.359-0.028,0.547-0.041s0.381-0.025,0.584-0.041c0.203-0.016,0.416-0.034,0.641-0.059c0.2-0.025,0.4-0.044,0.6-0.058
	c0.2-0.014,0.4-0.024,0.6-0.03c0.2-0.006,0.4-0.009,0.6-0.011S44.9,32,45.1,32c0.45,0,0.875,0.019,1.278,0.055
	c0.403,0.036,0.784,0.089,1.147,0.157c0.362,0.069,0.706,0.153,1.034,0.252S49.2,32.675,49.5,32.8c0.3,0.15,0.581,0.312,0.847,0.489
	c0.266,0.176,0.516,0.367,0.753,0.573c0.237,0.206,0.463,0.428,0.678,0.668c0.216,0.239,0.422,0.495,0.622,0.77
	c0.175,0.275,0.337,0.562,0.487,0.862c0.15,0.3,0.288,0.613,0.413,0.938s0.237,0.662,0.338,1.012c0.1,0.35,0.187,0.713,0.262,1.088
	s0.138,0.769,0.189,1.178c0.051,0.409,0.092,0.834,0.123,1.272s0.053,0.888,0.067,1.347c0.014,0.459,0.021,0.928,0.021,1.403
	c0,0.575-0.013,1.125-0.036,1.652s-0.058,1.029-0.102,1.51c-0.043,0.482-0.097,0.941-0.157,1.38
	c-0.061,0.439-0.13,0.858-0.205,1.258c-0.1,0.4-0.206,0.781-0.32,1.144c-0.114,0.363-0.236,0.706-0.368,1.031
	s-0.272,0.631-0.423,0.919c-0.151,0.288-0.314,0.556-0.489,0.806s-0.369,0.487-0.578,0.709c-0.209,0.222-0.434,0.428-0.672,0.616
	s-0.487,0.356-0.747,0.503C49.944,56.075,49.675,56.2,49.4,56.3s-0.556,0.194-0.845,0.278c-0.289,0.084-0.586,0.159-0.892,0.222
	s-0.622,0.112-0.949,0.147C46.388,56.981,46.05,57,45.7,57h-0.4h-0.4h-0.4h-0.4v3.125v3.125v3.125V69.5H44h-0.1h-0.1H43.7z
	 M38.6,68.5h1.025h1.025h1.025H42.7v-3.1v-3.1v-3.1v-3.1h0.65H44h0.65h0.65c0.325,0,0.638-0.013,0.939-0.037
	c0.302-0.025,0.592-0.062,0.873-0.113c0.281-0.05,0.553-0.112,0.817-0.188C48.194,55.687,48.45,55.6,48.7,55.5
	c0.225-0.1,0.444-0.213,0.656-0.339c0.213-0.127,0.419-0.267,0.619-0.424s0.394-0.328,0.581-0.517s0.369-0.395,0.544-0.62
	s0.338-0.469,0.487-0.731c0.15-0.263,0.288-0.544,0.413-0.844s0.237-0.619,0.338-0.956c0.1-0.338,0.188-0.694,0.262-1.069
	s0.144-0.775,0.205-1.198c0.061-0.423,0.114-0.87,0.157-1.339c0.044-0.469,0.078-0.96,0.102-1.471
	C53.087,45.481,53.1,44.95,53.1,44.4c0-0.475-0.006-0.938-0.02-1.386c-0.014-0.448-0.036-0.883-0.068-1.302
	s-0.072-0.822-0.123-1.208c-0.051-0.386-0.114-0.754-0.189-1.104c-0.05-0.35-0.119-0.688-0.203-1.013S52.312,37.75,52.2,37.45
	s-0.237-0.587-0.372-0.862C51.694,36.312,51.55,36.05,51.4,35.8c-0.15-0.225-0.312-0.438-0.487-0.638
	c-0.175-0.2-0.362-0.387-0.562-0.562c-0.2-0.175-0.413-0.338-0.638-0.487C49.488,33.962,49.25,33.825,49,33.7
	s-0.525-0.231-0.822-0.32c-0.297-0.089-0.616-0.161-0.953-0.217c-0.338-0.056-0.694-0.097-1.066-0.124C45.787,33.013,45.4,33,45,33
	c-0.2,0-0.394,0-0.584,0.002s-0.378,0.005-0.566,0.011c-0.188,0.006-0.375,0.015-0.566,0.029S42.9,33.075,42.7,33.1
	s-0.394,0.044-0.583,0.059s-0.374,0.028-0.555,0.041c-0.181,0.013-0.359,0.025-0.535,0.041c-0.177,0.016-0.352,0.034-0.527,0.059
	c-0.15,0.025-0.3,0.05-0.45,0.073c-0.15,0.024-0.3,0.046-0.45,0.065c-0.15,0.018-0.3,0.034-0.45,0.045
	C39,33.494,38.85,33.5,38.7,33.5v8.75V51v8.75v8.75h-0.025H38.65h-0.025H38.6z M45.5,51.1h-0.7h-0.7h-0.7h-0.7v-3.125V44.85v-3.125
	V38.6l0.1-0.025l0.1-0.025l0.1-0.025l0.1-0.025c0.025,0,0.056-0.006,0.094-0.016s0.081-0.022,0.131-0.034s0.106-0.025,0.169-0.034
	c0.062-0.009,0.131-0.016,0.206-0.016c0.125-0.025,0.256-0.05,0.397-0.073c0.141-0.024,0.291-0.046,0.453-0.065
	c0.162-0.019,0.338-0.034,0.528-0.045c0.191-0.011,0.397-0.017,0.622-0.017c0.325,0,0.625,0.044,0.9,0.128s0.525,0.209,0.75,0.372
	s0.425,0.362,0.6,0.597c0.175,0.234,0.325,0.503,0.45,0.803c0.1,0.275,0.188,0.581,0.263,0.919c0.075,0.337,0.137,0.706,0.188,1.106
	c0.05,0.4,0.088,0.831,0.112,1.294C48.987,43.881,49,44.375,49,44.9c0,0.45-0.019,0.881-0.055,1.292
	c-0.036,0.411-0.089,0.802-0.158,1.171c-0.069,0.368-0.153,0.715-0.251,1.039c-0.098,0.323-0.211,0.623-0.336,0.898
	c-0.2,0.3-0.4,0.562-0.605,0.787c-0.205,0.225-0.414,0.413-0.632,0.562c-0.219,0.15-0.447,0.263-0.69,0.338
	C46.031,51.062,45.775,51.1,45.5,51.1z M43.7,50.1h0.45h0.45h0.45h0.45c0.175,0,0.337-0.025,0.489-0.076s0.292-0.13,0.423-0.236
	c0.132-0.106,0.253-0.241,0.368-0.405c0.114-0.164,0.22-0.358,0.32-0.583c0.125-0.25,0.231-0.519,0.32-0.806
	c0.089-0.287,0.161-0.594,0.217-0.919c0.056-0.325,0.097-0.669,0.124-1.031C47.787,45.681,47.8,45.3,47.8,44.9
	c0-0.475-0.013-0.925-0.036-1.348s-0.058-0.82-0.102-1.19c-0.043-0.368-0.097-0.709-0.157-1.02S47.375,40.75,47.3,40.5
	c-0.075-0.2-0.169-0.375-0.28-0.525S46.781,39.7,46.637,39.6c-0.144-0.1-0.303-0.175-0.476-0.225C45.987,39.325,45.8,39.3,45.6,39.3
	s-0.381,0-0.547,0.002s-0.316,0.005-0.453,0.011s-0.263,0.016-0.378,0.03C44.106,39.356,44,39.375,43.9,39.4
	c-0.025,0-0.044,0-0.059,0.002s-0.028,0.005-0.041,0.011s-0.025,0.016-0.041,0.03c-0.016,0.014-0.034,0.032-0.059,0.057
	c0,0,0,0.663,0,1.656c0,0.994,0,2.319,0,3.644s0,2.65,0,3.644C43.7,49.438,43.7,50.1,43.7,50.1z"/>
<path style="fill:#FFFFFF;" d="M56.1,69.2v-1.35V66.5v-1.35V63.8h0.65h0.65h0.65h0.65v-6.25V51.3v-6.25V38.8h-0.65H57.4h-0.65H56.1
	v-1.35V36.1v-1.35V33.4h2.575h2.575h2.575H66.4v1.35v1.35v1.35v1.35h-0.65H65.1h-0.65H63.8v6.25v6.25v6.25v6.25h0.65h0.65h0.65h0.65
	v1.35v1.35v1.35v1.35h-2.575H61.25h-2.575H56.1z"/>
<path d="M67,69.7h-2.85H61.3h-2.85H55.6v-1.6v-1.6v-1.6v-1.6h0.65h0.65h0.65h0.65v-6v-6v-6v-6h-0.65H56.9h-0.65H55.6v-1.6v-1.6v-1.6
	v-1.6h2.85h2.85h2.85H67v1.6v1.6v1.6v1.6h-0.65H65.7h-0.65H64.4v6v6v6v6h0.65h0.65h0.65H67v1.6v1.6v1.6V69.7z M56.6,68.7h2.35h2.35
	h2.35H66v-1.1v-1.1v-1.1v-1.1h-0.65H64.7h-0.65H63.4v-6.5v-6.5v-6.5v-6.5h0.65h0.65h0.65H66v-1.1v-1.1V35v-1.1h-2.325H61.35h-2.325
	H56.7V35v1.1v1.1v1.1h0.65H58h0.65h0.65v6.5v6.5v6.5v6.5h-0.65H58h-0.65H56.7v1.1v1.1v1.1v1.1h-0.025H56.65h-0.025H56.6z"/>
<path style="fill:#FFFFFF;" d="M84.2,68.7h-1.975H80.25h-1.975H76.3L75,59.725l-1.3-8.975l-1.3-8.975L71.1,32.8h1.35h1.35h1.35h1.35
	l0.925,6.3l0.925,6.3l0.925,6.3L80.2,58l1.05-6.275l1.05-6.275l1.05-6.275L84.4,32.9h1.25h1.25h1.25h1.25l-1.3,8.95l-1.3,8.95
	l-1.3,8.95L84.2,68.7z"/>
<path d="M84.6,69.2h-2.175H80.25h-2.175H75.9l-1.35-9.225L73.2,50.75l-1.35-9.225L70.5,32.3h1.6h1.6h1.6h1.6l0.85,5.6l0.85,5.6
	l0.85,5.6l0.85,5.6l0.925-5.6l0.925-5.6l0.925-5.6L84,32.3h1.5H87h1.5H90l-1.35,9.225L87.3,50.75l-1.35,9.225L84.6,69.2z M76.7,68.2
	h1.75h1.75h1.75h1.75l1.275-8.725l1.275-8.725l1.275-8.725L88.8,33.3h-1h-1h-1h-1l-1.025,6.175L82.75,45.65l-1.025,6.175L80.7,58
	h-0.25H80.2h-0.25H79.7l-0.925-6.175L77.85,45.65l-0.925-6.175L76,33.3h-1.1h-1.1h-1.1h-1.1l1.275,8.725l1.275,8.725l1.275,8.725
	L76.7,68.2z"/>
</svg>
