<?xml version="1.0" encoding="iso-8859-1"?>
<!-- Generator: Adobe Illustrator 25.3.1, SVG Export Plug-In . SVG Version: 6.00 Build 0)  -->
<svg version="1.1" id="Layer_1" xmlns="http://www.w3.org/2000/svg" xmlns:xlink="http://www.w3.org/1999/xlink" x="0px" y="0px"
	 viewBox="0 0 100 100" style="enable-background:new 0 0 100 100;" xml:space="preserve">
<path style="fill:#A4251A;" d="M50,2.4c6.572,0,12.833,1.332,18.528,3.741c5.695,2.409,10.823,5.894,15.13,10.201
	s7.793,9.435,10.201,15.13C96.268,37.167,97.6,43.428,97.6,50s-1.332,12.833-3.741,18.528c-2.409,5.695-5.894,10.823-10.201,15.13
	s-9.436,7.793-15.13,10.201C62.833,96.268,56.572,97.6,50,97.6s-12.833-1.332-18.528-3.741c-5.695-2.409-10.823-5.894-15.13-10.201
	s-7.792-9.436-10.201-15.13S2.4,56.572,2.4,50s1.332-12.833,3.741-18.528s5.894-10.823,10.201-15.13s9.435-7.792,15.13-10.201
	S43.428,2.4,50,2.4z"/>
<path style="fill:#440C09;" d="M50,1.9c-6.625,0-12.944,1.35-18.695,3.789s-10.936,5.967-15.292,10.324S8.129,25.554,5.69,31.305
	S1.9,43.375,1.9,50s1.35,12.944,3.789,18.695s5.967,10.936,10.324,15.293s9.541,7.884,15.292,10.323S43.375,98.1,50,98.1
	s12.944-1.344,18.695-3.775c5.752-2.431,10.936-5.95,15.293-10.3s7.884-9.531,10.323-15.287S98.1,56.65,98.1,50
	s-1.35-12.981-3.789-18.737s-5.967-10.938-10.323-15.288s-9.54-7.869-15.292-10.3C62.944,3.244,56.625,1.9,50,1.9z M50,93
	c-5.95,0-11.612-1.2-16.759-3.372s-9.778-5.316-13.666-9.203s-7.031-8.519-9.203-13.666C8.2,61.613,7,55.95,7,50
	s1.2-11.612,3.372-16.759s5.316-9.778,9.203-13.666s8.519-7.031,13.666-9.203S44.05,7,50,7s11.613,1.206,16.759,3.386
	s9.778,5.333,13.666,9.226s7.031,8.528,9.203,13.67S93,44.075,93,50s-1.2,11.575-3.372,16.717s-5.316,9.776-9.203,13.67
	s-8.519,7.047-13.666,9.227C61.613,91.794,55.95,93,50,93z"/>
<path style="fill:#FFFFFF;" d="M66.1,43.4v-5.85V31.7v-5.85V20h1.975h1.975h1.975H74c0.45,0,0.869,0.006,1.259,0.019
	c0.391,0.013,0.753,0.031,1.091,0.056c0.338,0.025,0.65,0.056,0.941,0.094S77.85,20.25,78.1,20.3
	c0.325,0.075,0.638,0.169,0.939,0.28s0.592,0.239,0.873,0.383s0.553,0.303,0.817,0.476S81.25,21.8,81.5,22
	c0.3,0.25,0.581,0.525,0.844,0.822s0.506,0.616,0.731,0.953c0.225,0.337,0.431,0.694,0.619,1.066S84.05,25.6,84.2,26
	s0.281,0.819,0.394,1.255c0.112,0.436,0.206,0.889,0.281,1.357c0.075,0.469,0.131,0.953,0.169,1.452
	c0.038,0.499,0.056,1.011,0.056,1.536c0,0.45-0.013,0.887-0.037,1.311c-0.025,0.424-0.062,0.833-0.113,1.227
	c-0.05,0.394-0.113,0.772-0.188,1.133S84.6,35.976,84.5,36.3c-0.1,0.35-0.206,0.681-0.32,0.995
	c-0.114,0.314-0.236,0.611-0.368,0.893s-0.272,0.547-0.423,0.798c-0.151,0.251-0.314,0.489-0.489,0.714s-0.344,0.438-0.511,0.638
	c-0.167,0.2-0.333,0.387-0.501,0.562s-0.34,0.338-0.52,0.487C81.188,41.537,81,41.675,80.8,41.8s-0.406,0.244-0.62,0.356
	c-0.214,0.112-0.436,0.219-0.668,0.319c-0.231,0.1-0.471,0.194-0.723,0.281C78.538,42.844,78.275,42.925,78,43
	s-0.556,0.138-0.845,0.189c-0.289,0.052-0.586,0.092-0.893,0.123c-0.306,0.031-0.621,0.054-0.948,0.068S74.65,43.4,74.3,43.4h-2.05
	H70.2h-2.05H66.1z M69.1,40.6h1.225h1.225h1.225H74c0.375,0,0.731-0.006,1.067-0.02s0.651-0.036,0.945-0.068
	c0.294-0.031,0.566-0.071,0.814-0.123S77.3,40.275,77.5,40.2c0.225-0.075,0.431-0.156,0.622-0.244
	c0.191-0.087,0.366-0.181,0.528-0.281s0.312-0.206,0.453-0.319S79.375,39.125,79.5,39c0.175-0.175,0.344-0.369,0.505-0.581
	c0.161-0.213,0.314-0.444,0.458-0.694s0.278-0.519,0.401-0.806C80.988,36.631,81.1,36.325,81.2,36c0.1-0.3,0.188-0.619,0.262-0.956
	c0.075-0.338,0.137-0.694,0.188-1.069s0.088-0.769,0.113-1.181C81.787,32.381,81.8,31.95,81.8,31.5c0-0.625-0.025-1.206-0.075-1.749
	c-0.05-0.542-0.125-1.045-0.225-1.514c-0.1-0.469-0.225-0.903-0.375-1.307S80.8,26.15,80.6,25.8c-0.2-0.325-0.406-0.625-0.622-0.899
	c-0.216-0.274-0.441-0.521-0.678-0.74s-0.488-0.41-0.753-0.571S78,23.299,77.7,23.2c-0.2-0.075-0.431-0.144-0.694-0.205
	c-0.263-0.061-0.556-0.114-0.881-0.157c-0.325-0.044-0.681-0.078-1.069-0.102C74.669,22.713,74.25,22.7,73.8,22.7h-1.2h-1.2h-1.2H69
	v4.475v4.475v4.475V40.6h0.025h0.025c0,0,0.012,0,0.025,0C69.088,40.6,69.1,40.6,69.1,40.6z"/>
<path d="M74.3,43.9h-2.175H69.95h-2.175H65.6v-6.1v-6.1v-6.1v-6.1h2.1h2.1h2.1H74c0.45,0,0.875,0.006,1.275,0.019
	c0.4,0.013,0.775,0.031,1.125,0.056c0.35,0.025,0.675,0.056,0.975,0.094S77.95,19.75,78.2,19.8c0.35,0.075,0.688,0.169,1.012,0.281
	c0.325,0.112,0.638,0.244,0.938,0.394s0.588,0.319,0.863,0.506S81.55,21.375,81.8,21.6c0.325,0.275,0.625,0.569,0.901,0.881
	c0.277,0.312,0.53,0.644,0.761,0.994s0.441,0.719,0.63,1.106c0.189,0.387,0.358,0.794,0.508,1.219s0.281,0.862,0.394,1.312
	c0.113,0.45,0.206,0.913,0.281,1.388s0.131,0.963,0.169,1.463S85.5,30.975,85.5,31.5c0,0.45-0.012,0.894-0.037,1.328
	c-0.025,0.434-0.063,0.859-0.113,1.272s-0.112,0.812-0.188,1.197C85.088,35.681,85,36.05,84.9,36.4s-0.213,0.688-0.334,1.013
	c-0.122,0.325-0.253,0.637-0.391,0.938s-0.281,0.588-0.428,0.863C83.6,39.487,83.45,39.75,83.3,40
	c-0.175,0.225-0.35,0.444-0.526,0.655c-0.176,0.211-0.354,0.414-0.535,0.608c-0.182,0.194-0.366,0.378-0.555,0.551
	S81.3,42.15,81.1,42.3c-0.2,0.125-0.412,0.25-0.636,0.37c-0.223,0.12-0.458,0.236-0.702,0.343c-0.243,0.106-0.496,0.203-0.757,0.285
	c-0.261,0.083-0.53,0.152-0.805,0.201c-0.3,0.075-0.606,0.138-0.919,0.189c-0.312,0.052-0.631,0.092-0.956,0.123
	c-0.325,0.031-0.656,0.054-0.994,0.068C74.994,43.894,74.65,43.9,74.3,43.9z M66.6,42.9h1.925h1.925h1.925H74.3
	c0.325,0,0.644-0.006,0.955-0.02c0.311-0.014,0.614-0.036,0.908-0.068s0.578-0.072,0.852-0.123c0.273-0.051,0.536-0.114,0.786-0.189
	s0.494-0.15,0.73-0.228c0.236-0.078,0.464-0.159,0.682-0.247s0.428-0.181,0.627-0.284c0.199-0.103,0.386-0.216,0.561-0.341
	s0.35-0.263,0.523-0.411c0.173-0.149,0.345-0.308,0.514-0.477c0.169-0.169,0.335-0.347,0.496-0.532
	c0.161-0.186,0.317-0.38,0.467-0.58c0.15-0.225,0.294-0.463,0.431-0.713s0.269-0.512,0.394-0.787s0.244-0.562,0.356-0.862
	c0.113-0.3,0.219-0.612,0.319-0.938s0.188-0.669,0.263-1.028c0.075-0.359,0.137-0.734,0.187-1.122s0.088-0.788,0.113-1.197
	S84.5,31.925,84.5,31.5c0-0.5-0.019-0.987-0.056-1.462S84.35,29.1,84.275,28.65s-0.169-0.887-0.281-1.312
	C83.881,26.913,83.75,26.5,83.6,26.1c-0.15-0.375-0.312-0.738-0.491-1.086c-0.178-0.348-0.372-0.683-0.584-1.001
	c-0.213-0.319-0.444-0.622-0.697-0.908S81.3,22.55,81,22.3c-0.225-0.2-0.456-0.381-0.695-0.545
	c-0.239-0.164-0.486-0.311-0.743-0.442c-0.256-0.132-0.521-0.247-0.798-0.349S78.2,20.775,77.9,20.7
	c-0.225-0.05-0.475-0.094-0.752-0.131c-0.276-0.038-0.579-0.069-0.91-0.094s-0.69-0.044-1.08-0.056
	C74.769,20.406,74.35,20.4,73.9,20.4h-1.85H70.2h-1.85H66.5v5.625v5.625v5.625V42.9h0.025h0.025h0.025H66.6z M74,41.1h-1.35H71.3
	h-1.35H68.6v-4.725V31.65v-4.725V22.2h1.325h1.325h1.325H73.9c0.475,0,0.912,0.013,1.316,0.036c0.403,0.024,0.772,0.058,1.109,0.102
	c0.337,0.043,0.644,0.096,0.922,0.157c0.278,0.061,0.528,0.13,0.753,0.205c0.3,0.125,0.594,0.275,0.878,0.453
	c0.284,0.178,0.559,0.384,0.822,0.622s0.512,0.506,0.747,0.809S80.9,25.225,81.1,25.6c0.2,0.35,0.375,0.737,0.525,1.161
	c0.15,0.424,0.275,0.883,0.375,1.377c0.1,0.493,0.175,1.021,0.225,1.582c0.05,0.561,0.075,1.155,0.075,1.78
	c0,0.45-0.012,0.887-0.037,1.311c-0.025,0.423-0.063,0.833-0.113,1.226c-0.05,0.394-0.112,0.772-0.188,1.133
	c-0.075,0.361-0.162,0.705-0.262,1.03s-0.213,0.638-0.338,0.936s-0.262,0.583-0.412,0.852c-0.15,0.268-0.312,0.521-0.488,0.757
	C80.288,38.981,80.1,39.2,79.9,39.4c-0.15,0.15-0.306,0.287-0.47,0.414s-0.336,0.242-0.518,0.349
	c-0.181,0.106-0.371,0.203-0.573,0.292c-0.202,0.089-0.414,0.17-0.639,0.245s-0.469,0.138-0.733,0.189
	c-0.264,0.052-0.548,0.092-0.854,0.123c-0.306,0.032-0.635,0.053-0.986,0.068S74.4,41.1,74,41.1z M69.6,40.1h1.1h1.1h1.1H74
	c0.35,0,0.688-0.006,1.009-0.02s0.628-0.036,0.916-0.068c0.287-0.031,0.556-0.071,0.803-0.123c0.247-0.051,0.472-0.114,0.672-0.189
	s0.388-0.15,0.562-0.228c0.175-0.078,0.338-0.159,0.488-0.247c0.15-0.088,0.287-0.181,0.412-0.284S79.1,38.725,79.2,38.6
	c0.175-0.175,0.338-0.362,0.489-0.564c0.152-0.202,0.292-0.417,0.423-0.649c0.132-0.231,0.254-0.478,0.368-0.742
	c0.114-0.264,0.22-0.545,0.32-0.845s0.188-0.619,0.262-0.955c0.075-0.336,0.137-0.689,0.188-1.058
	c0.05-0.368,0.088-0.753,0.113-1.151c0.025-0.398,0.037-0.811,0.037-1.236c0-0.575-0.025-1.125-0.073-1.645
	c-0.048-0.52-0.12-1.011-0.214-1.467s-0.209-0.878-0.345-1.261S80.475,26.3,80.3,26s-0.363-0.575-0.561-0.825
	c-0.199-0.25-0.408-0.475-0.627-0.675s-0.447-0.375-0.683-0.525S77.95,23.7,77.7,23.6c-0.175-0.075-0.387-0.137-0.634-0.189
	c-0.247-0.052-0.528-0.092-0.841-0.123s-0.656-0.053-1.028-0.067C74.825,23.207,74.425,23.2,74,23.2h-1.075H71.85h-1.075H69.7v4.225
	v4.225v4.225V40.1h-0.025H69.65c0,0-0.012,0-0.025,0C69.612,40.1,69.6,40.1,69.6,40.1z"/>
<polygon style="fill:#FFFFFF;" points="47.6,18.3 48.6,18.3 49.6,18.3 50.6,18.3 51.6,18.3 51.6,22.675 51.6,27.05 51.6,31.425 
	51.6,35.8 50.6,35.8 49.6,35.8 48.6,35.8 47.6,35.8 47.6,31.425 47.6,27.05 47.6,22.675 "/>
<path d="M51.9,36h-1.125H49.65h-1.125H47.4v-4.5V27v-4.5V18h1.125h1.125h1.125H51.9v4.5V27v4.5V36z M47.9,35.5h0.875h0.875h0.875
	H51.4v-4.25V27v-4.25V18.5h-0.875H49.65h-0.875H47.9v4.25V27v4.25V35.5z"/>
<path style="fill:#FFFFFF;" d="M61.4,22.6c-0.075-0.25-0.169-0.719-0.37-1.322c-0.202-0.603-0.511-1.341-1.018-2.128
	c-0.506-0.788-1.209-1.625-2.198-2.428C56.825,15.919,55.55,15.15,53.9,14.5v-0.35V13.8v-0.35V13.1h1.075h1.075h1.075H58.2v-0.7
	v-0.7V11v-0.7h-4.3h-4.3h-4.3H41V11v0.7v0.7v0.7h1.05h1.05h1.05h1.05v0.375v0.375v0.375V14.6c-1.6,0.65-2.838,1.413-3.799,2.206
	c-0.961,0.794-1.646,1.619-2.139,2.394s-0.797,1.5-0.995,2.094S37.975,22.35,37.9,22.6c-0.075,0.275-0.15,0.556-0.22,0.861
	c-0.07,0.305-0.136,0.633-0.192,1.001c-0.056,0.369-0.104,0.779-0.136,1.246S37.3,26.7,37.3,27.3c0,0.55,0.038,1.112,0.094,1.647
	c0.056,0.534,0.131,1.041,0.206,1.478s0.15,0.806,0.206,1.066C37.862,31.75,37.9,31.9,37.9,31.9c0.275,1.05,0.712,2.019,1.253,2.905
	c0.541,0.886,1.184,1.689,1.872,2.407c0.688,0.719,1.419,1.354,2.134,1.902s1.416,1.011,2.041,1.386v0.825v0.825v0.825V43.8h2.2h2.2
	h2.2H54v-0.775V42.25v-0.775V40.7c0.625-0.375,1.338-0.837,2.072-1.389c0.734-0.551,1.491-1.192,2.203-1.923
	c0.713-0.731,1.381-1.554,1.941-2.468c0.559-0.914,1.009-1.92,1.284-3.02c0,0,0.037-0.15,0.094-0.409
	c0.056-0.259,0.131-0.628,0.206-1.066s0.15-0.944,0.206-1.478C62.062,28.412,62.1,27.85,62.1,27.3c0-0.6-0.019-1.125-0.053-1.592
	c-0.034-0.467-0.084-0.877-0.147-1.246c-0.062-0.368-0.137-0.697-0.222-1.001C61.594,23.156,61.5,22.875,61.4,22.6z M50.9,37.4
	h-0.075H50.75h-0.075H50.6h-0.525H49.55h-0.525H48.5h-0.075H48.35h-0.075H48.2c-1.175-0.95-2.119-1.894-2.873-2.842
	c-0.755-0.948-1.32-1.901-1.739-2.87c-0.419-0.969-0.691-1.954-0.858-2.965c-0.167-1.011-0.23-2.049-0.23-3.123
	c0-1.375,0.319-2.644,0.797-3.773s1.116-2.12,1.753-2.939s1.275-1.465,1.753-1.908S47.6,16.3,47.6,16.3h0.475h0.475h0.475H49.5
	h0.475h0.475h0.475H51.4c0,0,0.319,0.275,0.797,0.775S53.312,18.3,53.95,19.2s1.275,1.975,1.753,3.175
	c0.478,1.2,0.797,2.525,0.797,3.925c0.05,0.4,0.025,1.056-0.116,1.875s-0.397,1.8-0.809,2.85s-0.981,2.169-1.747,3.262
	S52.1,36.45,50.9,37.4z"/>
<path d="M54.2,44h-2.325H49.55h-2.325H44.9v-0.85V42.3v-0.85V40.6c-0.7-0.425-1.438-0.925-2.166-1.5s-1.447-1.225-2.109-1.95
	c-0.662-0.725-1.269-1.525-1.772-2.4c-0.503-0.875-0.903-1.825-1.153-2.85c0-0.025-0.044-0.188-0.109-0.452
	c-0.066-0.264-0.153-0.63-0.241-1.061c-0.088-0.431-0.175-0.928-0.241-1.454C37.044,28.406,37,27.85,37,27.3
	c0-0.625,0.019-1.169,0.053-1.65c0.034-0.481,0.084-0.9,0.147-1.275s0.138-0.706,0.222-1.013c0.084-0.306,0.178-0.587,0.278-0.862
	c0-0.025,0-0.05,0.002-0.075c0.002-0.025,0.005-0.05,0.011-0.075c0.006-0.025,0.015-0.05,0.029-0.075
	c0.014-0.025,0.033-0.05,0.058-0.075c0.075-0.325,0.194-0.819,0.422-1.416c0.228-0.597,0.566-1.297,1.078-2.034
	s1.2-1.513,2.128-2.259c0.928-0.747,2.097-1.466,3.572-2.091v-0.275V13.85v-0.275V13.3h-1.05H42.9h-1.05H40.8v-0.825V11.65v-0.825
	V10h4.45h4.45h4.45h4.45v0.825v0.825v0.825V13.3h-1.075H56.45h-1.075H54.3v0.225v0.225v0.225V14.2
	c1.525,0.625,2.731,1.35,3.689,2.106c0.958,0.756,1.667,1.544,2.199,2.294s0.884,1.462,1.13,2.069
	c0.245,0.606,0.382,1.106,0.482,1.431c0,0.025,0,0.05,0.002,0.075c0.002,0.025,0.005,0.05,0.011,0.075
	c0.006,0.025,0.015,0.05,0.029,0.075c0.014,0.025,0.033,0.05,0.058,0.075l0,0l0,0l0,0l0,0c0.075,0.275,0.156,0.556,0.236,0.862
	c0.08,0.306,0.158,0.638,0.227,1.013s0.128,0.794,0.17,1.275c0.042,0.481,0.067,1.025,0.067,1.65c0,0.55-0.037,1.106-0.095,1.633
	c-0.058,0.527-0.136,1.023-0.217,1.454c-0.082,0.431-0.166,0.797-0.236,1.061c-0.07,0.264-0.127,0.427-0.152,0.452
	c-0.275,1.1-0.731,2.112-1.299,3.034s-1.245,1.753-1.965,2.491s-1.478,1.381-2.208,1.928C55.7,39.8,55,40.25,54.4,40.6v0.85v0.85
	v0.85V44h-0.05H54.3h-0.05H54.2z M45.4,43.5h2.075h2.075h2.075H53.7v-0.75V42v-0.75V40.5l0.025-0.025l0.025-0.025l0.025-0.025
	L53.8,40.4c0.575-0.35,1.256-0.794,1.972-1.33c0.716-0.536,1.466-1.164,2.178-1.883s1.388-1.528,1.953-2.426
	s1.022-1.886,1.297-2.961c0,0,0.037-0.15,0.094-0.408c0.056-0.258,0.131-0.623,0.206-1.054s0.15-0.928,0.206-1.448
	c0.056-0.52,0.094-1.064,0.094-1.59c0-0.6-0.019-1.125-0.052-1.591s-0.08-0.872-0.136-1.234s-0.122-0.681-0.192-0.972
	S61.275,22.95,61.2,22.7l0,0l0,0l0,0l0,0c0-0.025,0-0.05-0.002-0.075c-0.002-0.025-0.005-0.05-0.011-0.075
	c-0.006-0.025-0.015-0.05-0.029-0.075c-0.014-0.025-0.033-0.05-0.058-0.075c-0.075-0.325-0.194-0.819-0.424-1.413
	s-0.57-1.288-1.09-2.012c-0.519-0.725-1.215-1.481-2.157-2.2c-0.942-0.719-2.13-1.4-3.63-1.975l-0.05-0.025L53.7,14.75l-0.05-0.025
	L53.6,14.7v-0.45V13.8v-0.45V12.9h1.1h1.1h1.1H58v-0.575V11.75v-0.575V10.6h-4.2h-4.2h-4.2h-4.2v0.575v0.575v0.575V12.9h1.05h1.05
	h1.05h1.05v0.475v0.475v0.475V14.8l-0.05,0.025L45.3,14.85l-0.05,0.025L45.2,14.9c-1.45,0.6-2.594,1.294-3.498,2.016
	s-1.57,1.472-2.064,2.184s-0.815,1.388-1.033,1.959c-0.217,0.572-0.33,1.041-0.405,1.341c0,0.025-0.006,0.05-0.016,0.075
	c-0.009,0.025-0.022,0.05-0.034,0.075s-0.025,0.05-0.034,0.075C38.106,22.65,38.1,22.675,38.1,22.7
	c-0.075,0.275-0.15,0.556-0.22,0.859c-0.07,0.303-0.136,0.628-0.192,0.991s-0.103,0.763-0.136,1.216
	C37.519,26.219,37.5,26.725,37.5,27.3c0,0.525,0.037,1.069,0.094,1.589c0.056,0.52,0.131,1.017,0.206,1.449s0.15,0.797,0.206,1.055
	C38.062,31.65,38.1,31.8,38.1,31.8c0.25,1,0.65,1.925,1.152,2.777c0.502,0.852,1.105,1.63,1.761,2.336
	c0.656,0.707,1.365,1.341,2.079,1.905s1.433,1.058,2.108,1.483l0.025,0.025l0.025,0.025l0.025,0.025l0.025,0.025v0.775v0.775v0.775
	v0.775h0.025h0.025h0.025L45.4,43.5L45.4,43.5L45.4,43.5z M51,37.7h-0.7h-0.7h-0.7h-0.7l-0.025-0.025L48.15,37.65l-0.025-0.025
	L48.1,37.6c-1.275-1.05-2.275-2.088-3.058-3.112c-0.783-1.025-1.348-2.038-1.754-3.038s-0.653-1.987-0.799-2.962
	C42.344,27.513,42.3,26.55,42.3,25.6c0-1.4,0.312-2.688,0.784-3.833c0.472-1.145,1.103-2.148,1.741-2.979
	c0.638-0.831,1.281-1.491,1.778-1.949C47.1,16.381,47.45,16.125,47.5,16.1h0.025h0.025h0.025H47.6h0.5h0.5h0.5h0.5h0.5h0.5h0.5h0.5
	l0.025,0.025l0.025,0.025l0.025,0.025L51.7,16.2c0.05,0.05,0.4,0.363,0.897,0.891c0.497,0.528,1.141,1.272,1.778,2.184
	s1.269,1.994,1.741,3.197C56.588,23.675,56.9,25,56.9,26.4c0,0.4-0.062,1.062-0.233,1.892c-0.17,0.83-0.448,1.826-0.879,2.895
	s-1.015,2.209-1.799,3.327S52.225,36.725,51,37.7L51,37.7L51,37.7L51,37.7L51,37.7z M48.4,37.2H49h0.6h0.6h0.6
	c1.125-0.925,2.037-1.962,2.773-3.025c0.736-1.062,1.295-2.15,1.714-3.175c0.418-1.025,0.696-1.987,0.87-2.8
	c0.173-0.812,0.242-1.475,0.242-1.9c0-1.275-0.275-2.487-0.697-3.598c-0.422-1.111-0.991-2.12-1.578-2.989
	c-0.587-0.869-1.193-1.597-1.69-2.146S51.55,16.65,51.4,16.5h-0.45H50.5h-0.45H49.6h-0.45H48.7h-0.45H47.8
	c-0.15,0.125-0.531,0.444-1.019,0.93c-0.487,0.486-1.081,1.139-1.656,1.932c-0.575,0.794-1.131,1.729-1.544,2.777
	S42.9,24.35,42.9,25.6c0,0.9,0.037,1.819,0.17,2.755s0.361,1.889,0.742,2.857c0.382,0.969,0.916,1.954,1.661,2.952
	C46.219,35.163,47.175,36.175,48.4,37.2z"/>
<path style="fill:#FFFFFF;" d="M53.9,41.8c0,0,0.181-0.038,0.464-0.084s0.667-0.103,1.073-0.141s0.834-0.056,1.205-0.028
	c0.371,0.028,0.683,0.103,0.858,0.253s0.3,0.294,0.389,0.425c0.089,0.131,0.142,0.25,0.173,0.35s0.04,0.181,0.042,0.237
	c0.001,0.056-0.005,0.088-0.005,0.088s-0.106,0.044-0.289,0.106c-0.183,0.062-0.442,0.144-0.748,0.219s-0.659,0.144-1.029,0.181
	c-0.37,0.037-0.758,0.044-1.133-0.006s-0.625-0.175-0.789-0.334c-0.164-0.159-0.242-0.353-0.273-0.541
	c-0.031-0.188-0.016-0.369,0.007-0.503C53.869,41.888,53.9,41.8,53.9,41.8z"/>
<path d="M55.3,43.7c-0.05,0-0.094,0-0.134,0c-0.041,0-0.078,0-0.116,0s-0.075,0-0.116,0c-0.041,0-0.084,0-0.134,0
	c-0.125,0-0.244-0.013-0.355-0.037c-0.111-0.025-0.214-0.063-0.308-0.113c-0.093-0.05-0.178-0.112-0.251-0.188S53.75,43.2,53.7,43.1
	c-0.1-0.15-0.156-0.306-0.184-0.458c-0.028-0.152-0.028-0.299-0.016-0.43c0.013-0.131,0.037-0.247,0.059-0.336
	c0.022-0.089,0.041-0.152,0.041-0.177v-0.025v-0.025v-0.025V41.6h0.025h0.025h0.025H53.7c0.075-0.025,0.3-0.075,0.608-0.127
	c0.308-0.052,0.698-0.105,1.104-0.136s0.828-0.041,1.199-0.005c0.37,0.036,0.689,0.118,0.889,0.268s0.344,0.306,0.447,0.458
	c0.103,0.152,0.166,0.299,0.203,0.43c0.037,0.131,0.05,0.247,0.053,0.336C58.206,42.912,58.2,42.975,58.2,43v0.025v0.025v0.025V43.1
	h-0.025H58.15h-0.025H58.1c0,0.025-0.088,0.075-0.241,0.136c-0.153,0.061-0.372,0.133-0.634,0.201
	c-0.262,0.069-0.569,0.135-0.897,0.183S55.65,43.7,55.3,43.7z M54.1,42c0,0.05-0.006,0.106-0.013,0.167s-0.013,0.126-0.013,0.195
	s0.006,0.141,0.025,0.214c0.019,0.074,0.05,0.149,0.1,0.224c0.025,0.05,0.062,0.094,0.109,0.131
	c0.047,0.038,0.103,0.069,0.166,0.094s0.131,0.044,0.203,0.056C54.75,43.094,54.825,43.1,54.9,43.1
	c0.3,0.025,0.606,0.019,0.903-0.006c0.297-0.025,0.584-0.069,0.847-0.119s0.5-0.106,0.697-0.156c0.197-0.05,0.353-0.094,0.453-0.119
	c0-0.05-0.006-0.1-0.022-0.152c-0.016-0.051-0.041-0.104-0.078-0.16c-0.037-0.056-0.088-0.116-0.153-0.18S57.4,42.075,57.3,42
	s-0.281-0.125-0.514-0.155s-0.517-0.039-0.823-0.032c-0.306,0.006-0.635,0.028-0.955,0.061C54.688,41.906,54.375,41.95,54.1,42z"/>
<path style="fill:#FFFFFF;" d="M54.9,43.4l1.575-0.05l1.575-0.05l1.575-0.05L61.2,43.2c0,0,0.05,0.006,0.124,0.03
	c0.073,0.023,0.17,0.064,0.264,0.132s0.184,0.165,0.245,0.302c0.061,0.136,0.092,0.311,0.067,0.536s-0.338,0.388-0.792,0.505
	c-0.455,0.117-1.052,0.189-1.646,0.232c-0.594,0.044-1.184,0.06-1.626,0.064C57.394,45.006,57.1,45,57.1,45s0.231,0.019,0.575,0.053
	c0.344,0.034,0.8,0.084,1.25,0.147s0.894,0.138,1.213,0.222C60.456,45.506,60.65,45.6,60.6,45.7s-0.088,0.225-0.161,0.355
	c-0.073,0.13-0.183,0.264-0.377,0.382c-0.194,0.119-0.472,0.222-0.882,0.289c-0.411,0.067-0.955,0.098-1.68,0.074
	s-1.325-0.1-1.812-0.211c-0.488-0.111-0.863-0.258-1.138-0.427c-0.275-0.168-0.45-0.359-0.537-0.557
	C53.925,45.406,53.925,45.2,54,45c0.075-0.175,0.169-0.362,0.267-0.545c0.098-0.183,0.201-0.361,0.295-0.517
	s0.178-0.291,0.239-0.386C54.862,43.457,54.9,43.4,54.9,43.4z"/>
<path d="M58.1,47c-0.05,0-0.1,0-0.15,0c-0.05,0-0.1,0-0.15,0s-0.1,0-0.15,0c-0.05,0-0.1,0-0.15,0
	c-0.475-0.025-0.912-0.069-1.308-0.131c-0.395-0.062-0.748-0.144-1.054-0.244s-0.565-0.219-0.773-0.356S54,45.975,53.9,45.8
	c-0.05-0.075-0.088-0.15-0.114-0.225c-0.027-0.075-0.042-0.15-0.048-0.225c-0.007-0.075-0.003-0.15,0.007-0.225
	c0.011-0.075,0.03-0.15,0.055-0.225c0.075-0.175,0.169-0.362,0.267-0.545c0.098-0.183,0.201-0.361,0.295-0.517
	s0.178-0.291,0.239-0.386C54.662,43.356,54.7,43.3,54.7,43.3l0.025-0.025l0.025-0.025l0.025-0.025L54.8,43.2l1.6-0.05L58,43.1
	l1.6-0.05L61.2,43c0.025,0,0.069,0,0.123,0.006c0.055,0.006,0.12,0.019,0.189,0.044s0.14,0.062,0.208,0.119
	c0.067,0.056,0.13,0.131,0.18,0.231c0.05,0.05,0.094,0.106,0.13,0.169s0.064,0.131,0.083,0.206c0.018,0.075,0.028,0.156,0.026,0.244
	S62.125,44.2,62.1,44.3c-0.025,0.125-0.1,0.237-0.214,0.338c-0.114,0.1-0.267,0.187-0.448,0.262
	c-0.181,0.075-0.391,0.138-0.618,0.188c-0.227,0.05-0.47,0.087-0.72,0.112c0.1,0.025,0.194,0.05,0.278,0.076
	c0.084,0.026,0.159,0.054,0.222,0.085s0.112,0.066,0.147,0.105C60.781,45.506,60.8,45.55,60.8,45.6
	c0.025,0.025,0.044,0.05,0.056,0.075c0.013,0.025,0.019,0.05,0.019,0.075c0,0.025-0.006,0.05-0.019,0.075
	c-0.013,0.025-0.031,0.05-0.056,0.075c0,0,0,0.006-0.002,0.016c-0.002,0.009-0.005,0.022-0.011,0.034
	c-0.006,0.013-0.015,0.025-0.029,0.034S60.725,46,60.7,46c-0.025,0.125-0.075,0.25-0.167,0.367c-0.092,0.117-0.227,0.226-0.421,0.32
	s-0.447,0.172-0.777,0.227S58.6,47,58.1,47z M55,43.7c-0.05,0.05-0.112,0.131-0.181,0.233c-0.069,0.102-0.144,0.224-0.219,0.355
	s-0.15,0.272-0.219,0.411c-0.069,0.139-0.131,0.276-0.181,0.401c-0.025,0.05-0.044,0.094-0.056,0.133
	c-0.012,0.039-0.019,0.073-0.019,0.104s0.006,0.059,0.019,0.086c0.013,0.027,0.031,0.052,0.056,0.077
	c0.025,0.05,0.081,0.125,0.191,0.212C54.5,45.8,54.662,45.9,54.9,46c0.237,0.1,0.55,0.2,0.959,0.288
	c0.409,0.087,0.916,0.162,1.541,0.212c0.625,0.025,1.106,0.013,1.478-0.027c0.372-0.039,0.634-0.105,0.822-0.186
	c0.188-0.081,0.3-0.178,0.372-0.28s0.103-0.208,0.128-0.307l0,0l0,0l0,0l0,0c-0.1-0.05-0.269-0.1-0.486-0.148
	s-0.483-0.096-0.777-0.139c-0.293-0.043-0.615-0.084-0.945-0.12c-0.33-0.036-0.667-0.067-0.992-0.092v-0.125V44.95v-0.125V44.7
	c0.625,0.025,1.219,0.019,1.758-0.009c0.539-0.028,1.024-0.078,1.43-0.141s0.735-0.138,0.961-0.216S61.5,44.175,61.5,44.1
	c0-0.05,0-0.1-0.002-0.148s-0.005-0.096-0.011-0.139c-0.006-0.043-0.015-0.084-0.029-0.12c-0.014-0.036-0.033-0.067-0.058-0.092
	c-0.025-0.05-0.062-0.088-0.105-0.116c-0.042-0.028-0.089-0.047-0.132-0.059c-0.044-0.013-0.085-0.019-0.115-0.022S61,43.4,61,43.4
	l-1.5,0.075L58,43.55l-1.5,0.075L55,43.7z"/>
<path style="fill:#FFFFFF;" d="M50.6,44.5c0,0,0.088,0.075,0.234,0.194c0.147,0.119,0.353,0.281,0.591,0.456
	c0.237,0.175,0.506,0.362,0.778,0.531C52.475,45.85,52.75,46,53,46.1c0.25,0.075,0.475,0.194,0.661,0.338
	c0.186,0.144,0.333,0.312,0.427,0.487s0.134,0.356,0.108,0.525c-0.027,0.169-0.121,0.325-0.296,0.45s-0.581,0.237-1.089,0.306
	c-0.508,0.069-1.117,0.094-1.698,0.044c-0.582-0.05-1.135-0.175-1.53-0.406C49.188,47.612,48.95,47.275,49,46.8
	c0.025-0.45,0.138-0.819,0.292-1.119s0.351-0.531,0.545-0.706c0.194-0.175,0.385-0.294,0.527-0.369S50.6,44.5,50.6,44.5z"/>
<path d="M51.7,48.5c-0.2,0-0.406-0.006-0.612-0.022c-0.206-0.016-0.412-0.041-0.612-0.078s-0.394-0.088-0.575-0.153
	S49.55,48.1,49.4,48c-0.175-0.1-0.312-0.206-0.419-0.314s-0.181-0.217-0.231-0.324c-0.05-0.106-0.075-0.21-0.081-0.305
	c-0.006-0.095,0.006-0.182,0.031-0.257c0.05-0.475,0.188-0.869,0.366-1.192c0.178-0.324,0.397-0.577,0.609-0.771
	s0.419-0.328,0.572-0.414C50.4,44.337,50.5,44.3,50.5,44.3h0.025h0.025h0.025H50.6l0.025,0.025l0.025,0.025l0.025,0.025L50.7,44.4
	c0,0,0.088,0.075,0.233,0.192s0.348,0.277,0.579,0.446s0.491,0.347,0.749,0.502c0.258,0.154,0.515,0.285,0.74,0.361
	c0.175,0.05,0.338,0.125,0.484,0.217s0.278,0.201,0.391,0.32c0.112,0.119,0.206,0.247,0.278,0.377
	c0.072,0.13,0.122,0.261,0.147,0.386c0.025,0.1,0.031,0.194,0.022,0.281c-0.009,0.088-0.034,0.169-0.072,0.244
	s-0.088,0.144-0.147,0.206c-0.059,0.062-0.128,0.119-0.203,0.169c-0.075,0.05-0.188,0.1-0.33,0.147
	c-0.142,0.047-0.314,0.091-0.507,0.128c-0.194,0.037-0.41,0.069-0.639,0.091C52.194,48.487,51.95,48.5,51.7,48.5z M50.5,44.8
	c-0.075,0.05-0.188,0.119-0.317,0.216c-0.13,0.097-0.276,0.222-0.42,0.384c-0.144,0.163-0.285,0.362-0.402,0.609
	C49.244,46.256,49.15,46.55,49.1,46.9c0,0.075,0.006,0.15,0.022,0.223c0.016,0.074,0.041,0.146,0.078,0.215
	c0.038,0.069,0.088,0.135,0.153,0.196S49.5,47.65,49.6,47.7c0.275,0.15,0.638,0.25,1.033,0.311c0.395,0.061,0.823,0.083,1.229,0.077
	s0.791-0.041,1.098-0.092c0.308-0.052,0.539-0.121,0.639-0.196c0.05-0.025,0.088-0.056,0.116-0.091
	c0.028-0.034,0.047-0.072,0.059-0.109s0.019-0.075,0.022-0.109C53.8,47.456,53.8,47.425,53.8,47.4
	c-0.025-0.1-0.069-0.194-0.128-0.281c-0.059-0.088-0.134-0.169-0.222-0.244s-0.188-0.144-0.297-0.206S52.925,46.55,52.8,46.5
	c-0.2-0.125-0.419-0.275-0.641-0.434s-0.447-0.328-0.659-0.491s-0.412-0.319-0.584-0.453C50.744,44.987,50.6,44.875,50.5,44.8z"/>
<path style="fill:#FFFFFF;" d="M47.9,45c0,0-0.019,0.119-0.086,0.308c-0.067,0.189-0.183,0.448-0.377,0.729
	c-0.194,0.281-0.465,0.585-0.845,0.861c-0.38,0.277-0.867,0.527-1.492,0.702s-1.219,0.194-1.744,0.116
	c-0.525-0.078-0.981-0.253-1.331-0.466s-0.594-0.463-0.694-0.691c-0.1-0.228-0.056-0.434,0.169-0.559
	c0.225-0.1,0.531-0.181,0.88-0.256c0.348-0.075,0.739-0.144,1.133-0.219c0.394-0.075,0.79-0.156,1.151-0.256
	c0.361-0.1,0.686-0.219,0.936-0.369c0.275-0.1,0.556-0.144,0.823-0.153c0.267-0.009,0.52,0.016,0.739,0.053s0.403,0.088,0.533,0.128
	C47.825,44.969,47.9,45,47.9,45z"/>
<path d="M44,48.1c-0.375,0-0.725-0.05-1.044-0.134c-0.319-0.084-0.606-0.203-0.856-0.341c-0.25-0.138-0.463-0.294-0.631-0.453
	C41.3,47.013,41.175,46.85,41.1,46.7c-0.025-0.075-0.037-0.15-0.037-0.223c0-0.074,0.012-0.146,0.037-0.215
	c0.025-0.069,0.062-0.134,0.112-0.195S41.325,45.95,41.4,45.9c0.125-0.05,0.256-0.094,0.395-0.134
	c0.139-0.041,0.286-0.078,0.442-0.116s0.322-0.075,0.499-0.116C42.912,45.494,43.1,45.45,43.3,45.4s0.406-0.094,0.611-0.136
	c0.205-0.042,0.408-0.083,0.602-0.127c0.194-0.044,0.378-0.09,0.545-0.145c0.167-0.055,0.317-0.117,0.442-0.192
	c0.275-0.15,0.562-0.225,0.841-0.253s0.547-0.009,0.784,0.028s0.444,0.094,0.597,0.141S47.975,44.8,48,44.8l0.05,0.025l0.05,0.025
	l0.05,0.025L48.2,44.9v0.05V45v0.05v0.05c0,0.025-0.025,0.162-0.103,0.367s-0.209,0.477-0.422,0.771
	c-0.212,0.294-0.506,0.609-0.909,0.901C46.362,47.431,45.85,47.7,45.2,47.9c-0.1,0.025-0.2,0.05-0.3,0.073
	c-0.1,0.024-0.2,0.046-0.3,0.065c-0.1,0.019-0.2,0.034-0.3,0.045C44.2,48.094,44.1,48.1,44,48.1z M46.7,45
	c-0.075,0-0.15,0.006-0.225,0.017c-0.075,0.011-0.15,0.026-0.225,0.045c-0.075,0.019-0.15,0.041-0.225,0.064
	c-0.075,0.024-0.15,0.049-0.225,0.074c-0.15,0.075-0.319,0.144-0.5,0.206c-0.181,0.062-0.375,0.119-0.575,0.169
	s-0.406,0.094-0.612,0.131C43.906,45.744,43.7,45.775,43.5,45.8c-0.175,0.025-0.35,0.056-0.52,0.091
	c-0.17,0.034-0.336,0.072-0.493,0.109c-0.156,0.037-0.303,0.075-0.436,0.109C41.919,46.144,41.8,46.175,41.7,46.2
	c-0.025,0-0.044,0.006-0.058,0.017c-0.014,0.011-0.023,0.026-0.029,0.045c-0.007,0.019-0.01,0.041-0.011,0.064
	S41.6,46.375,41.6,46.4c0.05,0.125,0.181,0.275,0.377,0.422s0.455,0.291,0.761,0.403s0.66,0.194,1.042,0.216S44.575,47.425,45,47.3
	c0.45-0.125,0.825-0.294,1.138-0.484S46.7,46.412,46.9,46.2s0.35-0.425,0.463-0.616c0.112-0.191,0.188-0.359,0.237-0.484
	c-0.05,0-0.106-0.006-0.169-0.016c-0.062-0.009-0.131-0.022-0.206-0.034c-0.075-0.013-0.156-0.025-0.244-0.034
	C46.894,45.006,46.8,45,46.7,45z"/>
<path style="fill:#FFFFFF;" d="M40.2,42.1c0,0,0.212,0.013,0.539,0.044s0.767,0.081,1.224,0.156
	c0.456,0.075,0.928,0.175,1.317,0.306c0.389,0.131,0.696,0.294,0.821,0.494s0.237,0.406,0.33,0.608s0.164,0.399,0.207,0.58
	c0.043,0.181,0.059,0.347,0.039,0.486S44.6,45.025,44.5,45.1s-0.438,0.162-0.903,0.25c-0.466,0.087-1.059,0.175-1.672,0.25
	s-1.244,0.138-1.784,0.175C39.6,45.812,39.15,45.825,38.9,45.8c-0.25,0-0.469-0.094-0.645-0.234
	c-0.177-0.141-0.311-0.328-0.392-0.516c-0.082-0.188-0.11-0.375-0.074-0.516c0.036-0.141,0.136-0.234,0.311-0.234
	s0.456-0.019,0.78-0.047s0.689-0.066,1.032-0.103c0.344-0.037,0.666-0.075,0.902-0.103S41.2,44,41.2,44s-0.169,0.019-0.419,0.036
	c-0.25,0.017-0.581,0.033-0.906,0.026c-0.325-0.006-0.644-0.034-0.869-0.104c-0.225-0.07-0.356-0.183-0.306-0.358
	c0-0.225,0.094-0.431,0.234-0.614s0.328-0.342,0.516-0.473s0.375-0.234,0.516-0.305S40.2,42.1,40.2,42.1z"/>
<path d="M38.9,46h-0.025H38.85h-0.025H38.8c-0.2,0-0.388-0.05-0.556-0.134c-0.169-0.084-0.319-0.203-0.444-0.341
	c-0.125-0.138-0.225-0.294-0.294-0.453S37.4,44.75,37.4,44.6c0-0.1,0.013-0.188,0.037-0.264c0.025-0.077,0.063-0.142,0.113-0.199
	c0.05-0.056,0.112-0.103,0.188-0.142C37.812,43.956,37.9,43.924,38,43.9c0.025,0,0.056,0,0.094,0s0.081,0,0.131,0s0.106,0,0.169,0
	s0.131,0,0.206,0l-0.025-0.025L38.55,43.85l-0.025-0.025L38.5,43.8c-0.025-0.025-0.05-0.056-0.072-0.091
	c-0.022-0.034-0.041-0.072-0.053-0.109s-0.019-0.075-0.016-0.109c0.003-0.034,0.016-0.066,0.041-0.091
	c0.05-0.2,0.169-0.394,0.322-0.573s0.341-0.345,0.528-0.489c0.188-0.144,0.375-0.266,0.528-0.358s0.272-0.155,0.322-0.18h0.025
	h0.025h0.025H40.2h0.025h0.025h0.025H40.3c0.15,0,0.444,0.019,0.809,0.059c0.366,0.041,0.803,0.103,1.241,0.191
	s0.875,0.2,1.241,0.341C43.956,42.531,44.25,42.7,44.4,42.9c0.05,0.075,0.125,0.194,0.206,0.339s0.169,0.317,0.244,0.498
	c0.075,0.181,0.138,0.372,0.169,0.555C45.05,44.475,45.05,44.65,45,44.8c0,0.05-0.006,0.094-0.019,0.133
	c-0.013,0.039-0.031,0.073-0.056,0.104c-0.025,0.031-0.056,0.06-0.094,0.086C44.794,45.15,44.75,45.175,44.7,45.2
	c-0.175,0.075-0.55,0.163-1.033,0.252s-1.073,0.18-1.679,0.261c-0.606,0.081-1.229,0.153-1.774,0.204C39.669,45.969,39.2,46,38.9,46
	z M41.1,43.7l0.025,0.125l0.025,0.125l0.025,0.125L41.2,44.2c-0.025,0-0.188,0.019-0.428,0.047
	c-0.241,0.028-0.559,0.066-0.897,0.103c-0.337,0.037-0.694,0.075-1.009,0.103C38.55,44.481,38.275,44.5,38.1,44.5
	c-0.025,0-0.044,0-0.058,0.003s-0.023,0.009-0.029,0.022c-0.006,0.012-0.01,0.031-0.011,0.059C38,44.612,38,44.65,38,44.7
	c0,0.075,0.025,0.163,0.07,0.253c0.045,0.091,0.111,0.184,0.193,0.272c0.081,0.087,0.178,0.169,0.285,0.234
	c0.108,0.066,0.227,0.116,0.352,0.141c0.275,0,0.731-0.031,1.267-0.081c0.536-0.05,1.151-0.119,1.745-0.194
	c0.594-0.075,1.166-0.156,1.614-0.231C43.975,45.019,44.3,44.95,44.4,44.9c0,0,0.006,0,0.016-0.002s0.022-0.005,0.034-0.011
	s0.025-0.016,0.034-0.03c0.009-0.014,0.016-0.032,0.016-0.057c0.025-0.075,0.031-0.169,0.02-0.277s-0.039-0.23-0.082-0.361
	s-0.103-0.272-0.177-0.417S44.1,43.45,44,43.3c-0.075-0.1-0.256-0.2-0.506-0.295s-0.569-0.186-0.919-0.267s-0.731-0.153-1.106-0.211
	S40.725,42.425,40.4,42.4c-0.125,0.05-0.269,0.125-0.416,0.216c-0.147,0.091-0.297,0.197-0.434,0.309
	c-0.138,0.112-0.263,0.231-0.359,0.347C39.094,43.388,39.025,43.5,39,43.6c-0.025,0.025,0.019,0.05,0.117,0.072
	c0.098,0.022,0.251,0.041,0.445,0.053c0.194,0.013,0.429,0.019,0.689,0.016C40.513,43.737,40.8,43.725,41.1,43.7z"/>
<path style="fill:#4AAFF8;" d="M56.9,49.7c0.025-0.175,0.1-0.325,0.206-0.444C57.213,49.138,57.35,49.05,57.5,49
	c0.15-0.05,0.312-0.062,0.469-0.031s0.306,0.106,0.431,0.231c0.325,0.3,0.681,0.644,1.031,1.014c0.35,0.37,0.694,0.767,0.994,1.174
	c0.3,0.406,0.556,0.821,0.731,1.229c0.175,0.408,0.269,0.808,0.244,1.183c-0.075,0.65-0.244,1.169-0.48,1.57
	c-0.236,0.402-0.539,0.686-0.882,0.868s-0.728,0.259-1.127,0.248C58.513,56.475,58.1,56.375,57.7,56.2s-0.675-0.525-0.856-0.987
	c-0.181-0.463-0.269-1.038-0.294-1.663s0.013-1.3,0.081-1.963C56.7,50.925,56.8,50.275,56.9,49.7z"/>
<path d="M58.9,56.8c-0.125,0-0.25-0.006-0.373-0.019c-0.123-0.013-0.245-0.031-0.364-0.056c-0.119-0.025-0.235-0.056-0.346-0.094
	S57.6,56.55,57.5,56.5c-0.35-0.15-0.631-0.4-0.845-0.753c-0.214-0.353-0.361-0.809-0.443-1.372
	c-0.081-0.562-0.097-1.231-0.048-2.009c0.049-0.778,0.161-1.666,0.336-2.666l0,0l0,0l0,0l0,0c0.025-0.125,0.062-0.237,0.111-0.339
	s0.108-0.192,0.176-0.273c0.069-0.082,0.147-0.153,0.233-0.218s0.18-0.12,0.28-0.17c0.1-0.025,0.206-0.037,0.314-0.037
	s0.217,0.013,0.324,0.037s0.209,0.062,0.305,0.112c0.095,0.05,0.182,0.112,0.257,0.188c0.375,0.35,0.763,0.731,1.131,1.131
	c0.369,0.4,0.719,0.819,1.019,1.244c0.3,0.425,0.55,0.856,0.719,1.281c0.169,0.425,0.256,0.844,0.231,1.244
	c-0.05,0.4-0.131,0.744-0.233,1.039c-0.102,0.295-0.224,0.542-0.355,0.748s-0.272,0.372-0.411,0.505
	c-0.139,0.133-0.276,0.233-0.401,0.308c-0.075,0.05-0.163,0.094-0.259,0.131s-0.203,0.069-0.316,0.094
	c-0.112,0.025-0.231,0.044-0.353,0.056S59.025,56.8,58.9,56.8z M57.3,49.8c-0.2,1.175-0.3,2.125-0.33,2.892s0.011,1.352,0.093,1.796
	s0.203,0.747,0.336,0.951c0.133,0.205,0.276,0.311,0.401,0.361c0.2,0.075,0.394,0.131,0.581,0.169s0.369,0.056,0.544,0.056
	s0.344-0.019,0.506-0.056c0.163-0.037,0.319-0.094,0.469-0.169s0.287-0.181,0.411-0.314s0.233-0.292,0.326-0.473
	s0.172-0.384,0.233-0.605c0.061-0.22,0.105-0.458,0.13-0.708c0.025-0.225-0.019-0.494-0.128-0.798
	c-0.109-0.305-0.284-0.645-0.522-1.014c-0.237-0.368-0.537-0.765-0.897-1.182s-0.778-0.855-1.253-1.305
	c-0.05-0.05-0.1-0.081-0.148-0.1c-0.049-0.019-0.096-0.025-0.139-0.025c-0.043,0-0.084,0.006-0.12,0.013
	c-0.036,0.006-0.067,0.013-0.092,0.013c-0.075,0.05-0.138,0.094-0.189,0.134c-0.052,0.041-0.092,0.078-0.123,0.116
	s-0.053,0.075-0.067,0.115C57.306,49.707,57.3,49.75,57.3,49.8L57.3,49.8L57.3,49.8L57.3,49.8L57.3,49.8z"/>
<path style="fill:#4AAFF8;" d="M56.7,63.7c0.025-0.175,0.1-0.325,0.206-0.444C57.013,63.138,57.15,63.05,57.3,63
	s0.312-0.062,0.469-0.031s0.306,0.106,0.431,0.231c0.325,0.3,0.681,0.644,1.031,1.014c0.35,0.37,0.694,0.767,0.994,1.174
	c0.3,0.406,0.556,0.822,0.731,1.229c0.175,0.408,0.269,0.808,0.244,1.183c-0.075,0.65-0.244,1.169-0.48,1.57
	s-0.539,0.686-0.882,0.868s-0.728,0.26-1.127,0.248S57.9,70.375,57.5,70.2c-0.425-0.2-0.713-0.569-0.898-1.044
	c-0.186-0.475-0.271-1.056-0.29-1.681c-0.018-0.625,0.028-1.294,0.105-1.944S56.6,64.25,56.7,63.7z"/>
<path d="M58.7,70.8c-0.125,0-0.25-0.006-0.373-0.019c-0.123-0.012-0.245-0.031-0.364-0.056c-0.119-0.025-0.235-0.056-0.346-0.094
	C57.506,70.594,57.4,70.55,57.3,70.5c-0.35-0.15-0.631-0.4-0.845-0.753c-0.214-0.353-0.361-0.809-0.443-1.372
	c-0.081-0.562-0.097-1.231-0.048-2.009c0.049-0.778,0.161-1.666,0.336-2.666c0.025-0.125,0.062-0.237,0.111-0.339
	c0.048-0.102,0.108-0.192,0.176-0.273s0.147-0.153,0.233-0.217S57,62.75,57.1,62.7c0.1-0.025,0.206-0.037,0.316-0.037
	s0.222,0.013,0.334,0.037s0.225,0.062,0.334,0.112C58.194,62.863,58.3,62.925,58.4,63c0.375,0.35,0.763,0.731,1.131,1.131
	c0.369,0.4,0.719,0.819,1.019,1.244c0.3,0.425,0.55,0.856,0.719,1.281S61.525,67.5,61.5,67.9c-0.05,0.4-0.131,0.744-0.233,1.039
	c-0.102,0.295-0.224,0.542-0.355,0.748c-0.131,0.206-0.271,0.372-0.411,0.505c-0.139,0.133-0.277,0.233-0.402,0.308
	c-0.125,0.05-0.244,0.094-0.359,0.131S59.512,70.7,59.4,70.725s-0.225,0.044-0.341,0.056C58.944,70.794,58.825,70.8,58.7,70.8z
	 M57.5,63.3c-0.025,0-0.044,0-0.059,0s-0.028,0-0.041,0s-0.025,0-0.041,0s-0.034,0-0.059,0c-0.05,0.025-0.094,0.05-0.131,0.076
	s-0.069,0.055-0.094,0.085c-0.025,0.032-0.044,0.066-0.056,0.105C57.006,63.606,57,63.65,57,63.7l0,0l0,0l0,0l0,0
	c-0.2,1.175-0.3,2.125-0.33,2.892c-0.03,0.767,0.011,1.351,0.093,1.795c0.081,0.444,0.203,0.747,0.335,0.952
	c0.133,0.205,0.277,0.311,0.402,0.361c0.2,0.075,0.394,0.131,0.581,0.169c0.188,0.038,0.369,0.056,0.544,0.056
	s0.344-0.019,0.506-0.056c0.162-0.037,0.319-0.094,0.469-0.169s0.287-0.181,0.411-0.314s0.233-0.292,0.326-0.473
	c0.094-0.181,0.172-0.385,0.233-0.605s0.105-0.458,0.13-0.708c0.025-0.225-0.019-0.494-0.128-0.797s-0.284-0.641-0.522-1.003
	s-0.538-0.75-0.897-1.153S58.375,63.825,57.9,63.4c-0.025,0-0.056-0.006-0.091-0.016c-0.034-0.009-0.072-0.022-0.109-0.034
	c-0.037-0.012-0.075-0.025-0.109-0.034S57.525,63.3,57.5,63.3z"/>
<path style="fill:#4AAFF8;" d="M56.7,77.7c0.025-0.175,0.1-0.325,0.206-0.444S57.15,77.05,57.3,77s0.312-0.062,0.469-0.031
	s0.306,0.106,0.431,0.231c0.325,0.3,0.681,0.644,1.031,1.014c0.35,0.37,0.694,0.767,0.994,1.174c0.3,0.406,0.556,0.822,0.731,1.229
	c0.175,0.408,0.269,0.808,0.244,1.183c-0.075,0.65-0.244,1.169-0.48,1.57s-0.539,0.686-0.882,0.868
	c-0.344,0.181-0.729,0.259-1.127,0.248C58.312,84.475,57.9,84.375,57.5,84.2c-0.425-0.2-0.713-0.569-0.898-1.044
	c-0.186-0.475-0.271-1.056-0.29-1.681s0.028-1.294,0.105-1.944C56.493,78.881,56.6,78.25,56.7,77.7z"/>
<path d="M58.7,84.7c-0.125,0-0.25-0.006-0.373-0.019c-0.123-0.012-0.245-0.031-0.364-0.056c-0.119-0.025-0.235-0.056-0.346-0.094
	S57.4,84.45,57.3,84.4c-0.35-0.15-0.631-0.4-0.845-0.753s-0.361-0.809-0.443-1.372c-0.081-0.562-0.097-1.231-0.048-2.009
	S56.125,78.6,56.3,77.6c0.025-0.125,0.062-0.237,0.111-0.339c0.048-0.102,0.108-0.192,0.176-0.274
	c0.069-0.081,0.147-0.153,0.233-0.217c0.086-0.064,0.18-0.12,0.28-0.17c0.1-0.025,0.206-0.037,0.316-0.037s0.222,0.012,0.334,0.037
	s0.225,0.062,0.334,0.113c0.109,0.05,0.216,0.112,0.316,0.188c0.375,0.35,0.763,0.731,1.131,1.131
	c0.369,0.4,0.719,0.819,1.019,1.244c0.3,0.425,0.55,0.856,0.719,1.281c0.169,0.425,0.256,0.844,0.231,1.244
	c-0.05,0.4-0.131,0.744-0.233,1.039c-0.102,0.295-0.224,0.542-0.355,0.748c-0.131,0.206-0.271,0.372-0.411,0.505
	c-0.139,0.133-0.277,0.233-0.402,0.308c-0.125,0.05-0.244,0.094-0.359,0.131c-0.116,0.038-0.228,0.069-0.341,0.094
	c-0.112,0.025-0.225,0.044-0.341,0.056C58.944,84.694,58.825,84.7,58.7,84.7z M57.5,77.3c-0.025,0-0.044,0-0.059,0s-0.028,0-0.041,0
	s-0.025,0-0.041,0s-0.034,0-0.059,0c-0.05,0.025-0.094,0.05-0.131,0.076s-0.069,0.054-0.094,0.086s-0.044,0.065-0.056,0.105
	C57.006,77.606,57,77.65,57,77.7l0,0l0,0l0,0l0,0c-0.2,1.175-0.3,2.125-0.33,2.892s0.011,1.352,0.093,1.796
	c0.081,0.443,0.203,0.746,0.335,0.951c0.133,0.205,0.277,0.311,0.402,0.361c0.2,0.075,0.394,0.131,0.581,0.169
	c0.188,0.038,0.369,0.056,0.544,0.056s0.344-0.019,0.506-0.056c0.162-0.037,0.319-0.094,0.469-0.169s0.287-0.181,0.411-0.314
	s0.233-0.292,0.326-0.473c0.094-0.181,0.172-0.385,0.233-0.605s0.105-0.458,0.13-0.708c0.025-0.225-0.019-0.494-0.128-0.797
	s-0.284-0.641-0.522-1.003c-0.237-0.362-0.537-0.75-0.897-1.153c-0.359-0.403-0.778-0.822-1.253-1.247
	c-0.025-0.025-0.056-0.044-0.091-0.058c-0.034-0.014-0.072-0.024-0.109-0.03c-0.037-0.006-0.075-0.009-0.109-0.01
	C57.556,77.3,57.525,77.3,57.5,77.3z"/>
<path style="fill:#4AAFF8;" d="M64.1,70.5c0.025-0.175,0.1-0.319,0.206-0.428c0.106-0.109,0.244-0.184,0.394-0.222
	c0.15-0.037,0.312-0.037,0.469,0.003s0.306,0.122,0.431,0.247c0.3,0.3,0.637,0.656,0.972,1.044c0.334,0.387,0.666,0.806,0.953,1.231
	s0.531,0.856,0.691,1.269c0.159,0.412,0.234,0.806,0.184,1.156c-0.1,0.625-0.287,1.125-0.537,1.511s-0.562,0.658-0.912,0.827
	c-0.35,0.169-0.738,0.234-1.138,0.207S65,77.2,64.6,77s-0.662-0.569-0.823-1.044c-0.161-0.475-0.22-1.056-0.214-1.681
	c0.006-0.625,0.078-1.294,0.179-1.944C63.844,71.681,63.975,71.05,64.1,70.5z"/>
<path d="M65.9,77.7c-0.125,0-0.25-0.006-0.375-0.02c-0.125-0.014-0.25-0.036-0.375-0.068s-0.25-0.072-0.375-0.123
	s-0.25-0.114-0.375-0.189c-0.325-0.175-0.588-0.444-0.784-0.811c-0.197-0.367-0.328-0.833-0.391-1.402
	c-0.063-0.569-0.056-1.24,0.022-2.02S63.475,71.4,63.7,70.4c0.025-0.1,0.062-0.2,0.112-0.295c0.05-0.095,0.113-0.186,0.188-0.267
	c0.075-0.082,0.162-0.154,0.262-0.211c0.1-0.058,0.213-0.102,0.338-0.127c0.1-0.025,0.206-0.037,0.314-0.037
	s0.217,0.012,0.324,0.037c0.106,0.025,0.209,0.062,0.304,0.113c0.095,0.05,0.183,0.112,0.258,0.188
	c0.35,0.35,0.719,0.744,1.072,1.161c0.353,0.417,0.691,0.858,0.978,1.302c0.287,0.444,0.525,0.89,0.678,1.32S68.75,74.425,68.7,74.8
	c-0.05,0.4-0.137,0.744-0.248,1.039s-0.245,0.542-0.389,0.748c-0.144,0.206-0.297,0.372-0.446,0.505S67.325,77.325,67.2,77.4
	c-0.1,0.05-0.2,0.094-0.301,0.131c-0.102,0.038-0.204,0.069-0.311,0.094c-0.106,0.025-0.216,0.044-0.33,0.056
	C66.144,77.694,66.025,77.7,65.9,77.7z M64.9,70.2h-0.025H64.85h-0.025H64.8c-0.05,0.025-0.094,0.05-0.131,0.076
	s-0.069,0.054-0.094,0.086c-0.025,0.032-0.044,0.066-0.056,0.105C64.506,70.506,64.5,70.55,64.5,70.6l0,0l0,0l0,0l0,0
	c-0.25,1.175-0.394,2.125-0.459,2.894c-0.066,0.769-0.053,1.356,0.009,1.806c0.062,0.45,0.175,0.763,0.309,0.981
	C64.494,76.5,64.65,76.625,64.8,76.7c0.2,0.1,0.394,0.175,0.581,0.227s0.369,0.079,0.544,0.085s0.344-0.01,0.506-0.045
	S66.75,76.875,66.9,76.8s0.287-0.175,0.411-0.299c0.123-0.123,0.233-0.271,0.326-0.439s0.172-0.359,0.233-0.57
	c0.061-0.211,0.105-0.442,0.13-0.692c0.025-0.225-0.019-0.494-0.127-0.8s-0.28-0.65-0.51-1.025
	c-0.231-0.375-0.522-0.781-0.868-1.213C66.15,71.331,65.75,70.875,65.3,70.4c-0.025-0.05-0.05-0.088-0.077-0.116
	c-0.027-0.028-0.055-0.047-0.086-0.059s-0.066-0.019-0.105-0.022C64.993,70.2,64.95,70.2,64.9,70.2z"/>
<path style="fill:#4AAFF8;" d="M64,57.9c0.025-0.175,0.094-0.319,0.191-0.43s0.222-0.189,0.359-0.233
	c0.137-0.043,0.287-0.053,0.434-0.026c0.147,0.027,0.291,0.089,0.416,0.189c0.325,0.3,0.688,0.65,1.045,1.028
	s0.711,0.784,1.017,1.197c0.306,0.412,0.566,0.831,0.736,1.234C68.369,61.263,68.45,61.65,68.4,62
	c-0.075,0.65-0.244,1.169-0.48,1.57s-0.539,0.686-0.883,0.868c-0.344,0.181-0.728,0.259-1.126,0.248S65.1,64.575,64.7,64.4
	s-0.669-0.531-0.841-1.002c-0.172-0.47-0.247-1.055-0.259-1.686c-0.012-0.631,0.038-1.309,0.116-1.967S63.9,58.45,64,57.9z"/>
<path d="M66,65.1c-0.125,0-0.25-0.006-0.373-0.019c-0.124-0.012-0.246-0.031-0.365-0.056c-0.118-0.025-0.234-0.056-0.345-0.094
	C64.806,64.894,64.7,64.85,64.6,64.8c-0.35-0.15-0.631-0.406-0.844-0.769c-0.213-0.362-0.356-0.831-0.431-1.406
	c-0.075-0.575-0.081-1.256-0.019-2.044C63.369,59.794,63.5,58.9,63.7,57.9l0,0l0,0l0,0l0,0c0.025-0.1,0.062-0.2,0.111-0.295
	c0.048-0.095,0.108-0.186,0.176-0.267c0.069-0.082,0.147-0.153,0.233-0.211c0.086-0.058,0.18-0.102,0.28-0.127
	s0.206-0.037,0.314-0.037s0.217,0.012,0.323,0.037c0.106,0.025,0.21,0.062,0.305,0.112c0.095,0.05,0.182,0.112,0.257,0.188
	c0.375,0.35,0.769,0.737,1.145,1.145c0.377,0.408,0.736,0.836,1.043,1.268c0.306,0.431,0.56,0.865,0.724,1.286
	c0.164,0.42,0.239,0.826,0.189,1.201c-0.05,0.4-0.131,0.744-0.233,1.039s-0.224,0.542-0.355,0.748
	c-0.131,0.206-0.272,0.372-0.411,0.505S67.525,64.725,67.4,64.8c-0.1,0.025-0.206,0.056-0.317,0.089s-0.226,0.067-0.345,0.099
	c-0.119,0.031-0.241,0.059-0.365,0.079C66.25,65.088,66.125,65.1,66,65.1z M64.4,58c-0.225,1.175-0.338,2.125-0.372,2.894
	c-0.034,0.769,0.009,1.356,0.097,1.806s0.219,0.763,0.359,0.981s0.291,0.344,0.416,0.419c0.2,0.075,0.394,0.131,0.581,0.169
	s0.369,0.056,0.544,0.056s0.344-0.019,0.506-0.056S66.85,64.175,67,64.1s0.288-0.181,0.411-0.314
	c0.123-0.133,0.233-0.292,0.327-0.473s0.172-0.384,0.233-0.605C68.032,62.488,68.075,62.25,68.1,62s-0.025-0.531-0.144-0.841
	c-0.119-0.309-0.306-0.647-0.556-1.009s-0.562-0.75-0.931-1.159C66.1,58.581,65.675,58.15,65.2,57.7
	c-0.025-0.025-0.056-0.05-0.092-0.072c-0.036-0.022-0.077-0.041-0.121-0.053c-0.044-0.013-0.09-0.019-0.139-0.016
	C64.8,57.562,64.75,57.575,64.7,57.6s-0.094,0.05-0.131,0.076c-0.037,0.026-0.069,0.054-0.094,0.085
	c-0.025,0.032-0.044,0.066-0.056,0.105C64.406,57.906,64.4,57.95,64.4,58L64.4,58L64.4,58L64.4,58L64.4,58z"/>
<path style="fill:#4AAFF8;" d="M71.7,66.6c-0.025-0.15-0.006-0.287,0.045-0.405c0.051-0.117,0.136-0.214,0.242-0.283
	c0.106-0.068,0.235-0.109,0.374-0.114C72.5,65.794,72.65,65.825,72.8,65.9c0.375,0.2,0.819,0.438,1.277,0.705
	c0.458,0.267,0.929,0.564,1.36,0.883c0.431,0.319,0.822,0.659,1.118,1.014S77.05,69.225,77.1,69.6
	c0.1,0.625,0.075,1.156-0.045,1.598c-0.12,0.442-0.336,0.795-0.617,1.064c-0.282,0.269-0.628,0.453-1.011,0.558
	c-0.383,0.105-0.802,0.13-1.227,0.08c-0.45-0.075-0.819-0.369-1.122-0.802c-0.303-0.433-0.541-1.005-0.728-1.636
	c-0.188-0.631-0.325-1.322-0.428-1.992S71.75,67.15,71.7,66.6z"/>
<path d="M74.7,73.2c-0.05,0-0.1,0-0.15,0c-0.05,0-0.1,0-0.15,0s-0.1,0-0.15,0c-0.05,0-0.1,0-0.15,0
	c-0.375-0.05-0.713-0.225-1.014-0.525c-0.301-0.3-0.567-0.725-0.798-1.275c-0.231-0.55-0.428-1.225-0.592-2.025
	c-0.164-0.8-0.295-1.725-0.396-2.775l0,0l0,0l0,0l0,0c0-0.1,0.006-0.2,0.022-0.297s0.041-0.191,0.078-0.278
	c0.037-0.088,0.087-0.169,0.153-0.241S71.7,65.65,71.8,65.6c0.075-0.05,0.162-0.094,0.256-0.128
	c0.094-0.034,0.194-0.059,0.294-0.072s0.2-0.012,0.294,0.003c0.094,0.016,0.181,0.047,0.256,0.097
	c0.475,0.25,0.975,0.525,1.463,0.822c0.487,0.297,0.962,0.616,1.387,0.953s0.8,0.694,1.088,1.066S77.325,69.1,77.4,69.5
	s0.1,0.756,0.088,1.072c-0.013,0.316-0.062,0.591-0.138,0.828s-0.175,0.438-0.287,0.603C76.95,72.169,76.825,72.3,76.7,72.4
	c-0.1,0.15-0.225,0.275-0.369,0.378c-0.144,0.103-0.306,0.184-0.481,0.247s-0.362,0.106-0.556,0.134
	C75.1,73.188,74.9,73.2,74.7,73.2z M72.1,66.5c0.1,1.175,0.237,2.125,0.398,2.891s0.346,1.347,0.54,1.784
	c0.194,0.438,0.396,0.731,0.595,0.922c0.198,0.191,0.392,0.278,0.567,0.303c0.2,0.025,0.4,0.031,0.594,0.019
	c0.194-0.013,0.381-0.044,0.556-0.094s0.338-0.119,0.481-0.206c0.144-0.088,0.269-0.194,0.369-0.319
	c0.125-0.125,0.225-0.269,0.303-0.43s0.134-0.339,0.172-0.533c0.037-0.194,0.056-0.403,0.059-0.626S76.725,69.75,76.7,69.5
	c-0.05-0.25-0.181-0.512-0.387-0.786c-0.206-0.273-0.488-0.558-0.838-0.851c-0.35-0.294-0.769-0.597-1.25-0.908
	C73.744,66.644,73.2,66.325,72.6,66c-0.05-0.025-0.094-0.038-0.133-0.042c-0.039-0.005-0.074-0.001-0.105,0.005
	c-0.031,0.006-0.059,0.015-0.085,0.023C72.25,65.994,72.225,66,72.2,66c0,0.05-0.006,0.094-0.016,0.134s-0.022,0.078-0.034,0.116
	s-0.025,0.075-0.034,0.116S72.1,66.45,72.1,66.5L72.1,66.5L72.1,66.5L72.1,66.5L72.1,66.5z"/>
<path style="fill:#4AAFF8;" d="M50.1,54.5c0,0,0.181,0.244,0.43,0.656c0.249,0.412,0.564,0.994,0.833,1.669s0.491,1.444,0.552,2.231
	S51.875,60.65,51.5,61.4s-0.944,1.188-1.567,1.359s-1.302,0.078-1.896-0.234s-1.103-0.844-1.389-1.547
	C46.362,60.275,46.3,59.4,46.6,58.4s0.619-1.819,0.941-2.466c0.322-0.647,0.647-1.122,0.959-1.434s0.612-0.463,0.884-0.459
	C49.656,54.044,49.9,54.2,50.1,54.5z"/>
<path d="M49.3,63.2c-0.1,0-0.194-0.006-0.284-0.017c-0.091-0.011-0.178-0.026-0.266-0.045c-0.088-0.019-0.175-0.041-0.266-0.065
	C48.394,63.05,48.3,63.025,48.2,63c-0.35-0.15-0.694-0.369-1-0.65c-0.306-0.281-0.575-0.625-0.775-1.025s-0.331-0.856-0.362-1.362
	C46.031,59.456,46.1,58.9,46.3,58.3c0.225-0.7,0.456-1.331,0.694-1.886s0.481-1.033,0.731-1.426s0.506-0.703,0.769-0.92
	s0.531-0.342,0.806-0.367c0.075,0,0.163,0,0.256,0.009c0.094,0.009,0.194,0.028,0.294,0.066s0.2,0.094,0.294,0.178
	c0.094,0.084,0.181,0.197,0.256,0.347c0.05,0.075,0.263,0.375,0.53,0.831s0.589,1.069,0.858,1.769
	c0.268,0.7,0.484,1.488,0.539,2.294c0.055,0.806-0.052,1.631-0.427,2.406c-0.15,0.25-0.319,0.475-0.505,0.672
	c-0.186,0.197-0.389,0.366-0.607,0.503c-0.219,0.137-0.453,0.243-0.702,0.315C49.837,63.162,49.575,63.2,49.3,63.2z M49.4,54.4
	c0,0-0.006,0-0.014,0c-0.008,0-0.017,0-0.024,0s-0.009,0-0.005,0C49.362,54.4,49.375,54.4,49.4,54.4
	c-0.125,0.025-0.275,0.1-0.445,0.247c-0.17,0.147-0.361,0.366-0.568,0.678s-0.428,0.719-0.661,1.241
	C47.493,57.088,47.25,57.725,47,58.5c-0.15,0.5-0.206,0.956-0.188,1.367c0.019,0.411,0.113,0.777,0.263,1.096
	c0.15,0.319,0.356,0.59,0.6,0.814C47.919,62,48.2,62.175,48.5,62.3c0.225,0.1,0.469,0.163,0.717,0.181s0.502-0.006,0.746-0.081
	c0.243-0.075,0.478-0.2,0.689-0.381C50.863,61.837,51.05,61.6,51.2,61.3c0.325-0.675,0.4-1.419,0.33-2.155
	c-0.07-0.736-0.286-1.464-0.543-2.108s-0.553-1.203-0.786-1.602C49.968,55.037,49.8,54.8,49.8,54.8l0,0l0,0l0,0l0,0
	c-0.05-0.1-0.1-0.175-0.147-0.231c-0.047-0.056-0.091-0.094-0.128-0.119c-0.037-0.025-0.069-0.037-0.091-0.044
	C49.413,54.4,49.4,54.4,49.4,54.4z"/>
<path style="fill:#4AAFF8;" d="M50.1,68.5c0,0,0.181,0.244,0.43,0.656c0.249,0.412,0.564,0.994,0.833,1.669
	c0.269,0.675,0.49,1.444,0.551,2.231S51.875,74.65,51.5,75.4c-0.35,0.725-0.906,1.15-1.525,1.317c-0.619,0.167-1.3,0.077-1.9-0.229
	s-1.119-0.828-1.413-1.523C46.369,74.269,46.3,73.4,46.6,72.4s0.619-1.825,0.941-2.48c0.322-0.655,0.647-1.139,0.959-1.458
	c0.312-0.319,0.612-0.472,0.884-0.464C49.656,68.006,49.9,68.175,50.1,68.5z"/>
<path d="M49.3,77.1c-0.1,0-0.194-0.006-0.284-0.017c-0.091-0.011-0.178-0.026-0.266-0.045c-0.088-0.019-0.175-0.041-0.266-0.065
	C48.394,76.95,48.3,76.925,48.2,76.9c-0.35-0.15-0.694-0.369-1-0.65c-0.306-0.281-0.575-0.625-0.775-1.025s-0.331-0.856-0.362-1.363
	S46.1,72.8,46.3,72.2c0.225-0.7,0.456-1.331,0.694-1.886c0.237-0.555,0.481-1.033,0.731-1.426s0.506-0.703,0.769-0.92
	s0.531-0.343,0.806-0.368c0.075,0,0.163,0,0.256,0.009c0.094,0.009,0.194,0.028,0.294,0.066s0.2,0.094,0.294,0.178
	S50.325,68.05,50.4,68.2c0.05,0.075,0.263,0.375,0.53,0.831c0.267,0.456,0.589,1.069,0.858,1.769c0.268,0.7,0.484,1.488,0.539,2.294
	c0.055,0.806-0.052,1.631-0.427,2.406c-0.15,0.25-0.319,0.475-0.505,0.672s-0.389,0.366-0.607,0.503
	c-0.219,0.138-0.453,0.244-0.702,0.316S49.575,77.1,49.3,77.1z M49.4,68.4c0,0-0.006,0-0.014,0c-0.008,0-0.017,0-0.024,0
	s-0.009,0-0.005,0C49.362,68.4,49.375,68.4,49.4,68.4c-0.125,0.025-0.275,0.1-0.445,0.247c-0.17,0.147-0.361,0.366-0.568,0.678
	s-0.428,0.719-0.661,1.241S47.25,71.725,47,72.5c-0.15,0.5-0.206,0.956-0.188,1.367c0.019,0.411,0.113,0.777,0.263,1.096
	s0.356,0.591,0.6,0.814C47.919,76,48.2,76.175,48.5,76.3c0.225,0.1,0.469,0.162,0.717,0.181c0.249,0.019,0.502-0.006,0.746-0.081
	c0.243-0.075,0.478-0.2,0.689-0.381C50.863,75.838,51.05,75.6,51.2,75.3c0.325-0.675,0.4-1.419,0.33-2.155
	c-0.07-0.736-0.286-1.464-0.543-2.107c-0.256-0.644-0.553-1.203-0.785-1.602S49.8,68.8,49.8,68.8l0,0l0,0l0,0l0,0
	c-0.05-0.1-0.1-0.175-0.147-0.231c-0.047-0.056-0.091-0.094-0.128-0.119c-0.037-0.025-0.069-0.037-0.091-0.044
	C49.413,68.4,49.4,68.4,49.4,68.4z"/>
<path style="fill:#4AAFF8;" d="M50.1,83.9c0,0,0.181,0.244,0.43,0.656c0.249,0.412,0.564,0.994,0.833,1.669
	c0.269,0.675,0.49,1.444,0.551,2.231c0.061,0.787-0.039,1.594-0.414,2.344s-0.944,1.188-1.567,1.359s-1.302,0.078-1.896-0.234
	s-1.103-0.844-1.389-1.547C46.362,89.675,46.3,88.8,46.6,87.8s0.619-1.819,0.941-2.466c0.322-0.647,0.647-1.122,0.959-1.434
	s0.612-0.463,0.884-0.459C49.656,83.444,49.9,83.6,50.1,83.9z"/>
<path d="M49.3,92.5c-0.1,0-0.194-0.006-0.284-0.017c-0.091-0.011-0.178-0.026-0.266-0.045c-0.088-0.019-0.175-0.041-0.266-0.064
	C48.394,92.35,48.3,92.325,48.2,92.3c-0.35-0.15-0.694-0.369-1-0.65c-0.306-0.281-0.575-0.625-0.775-1.025s-0.331-0.856-0.362-1.363
	C46.031,88.756,46.1,88.2,46.3,87.6c0.225-0.7,0.456-1.331,0.694-1.886c0.237-0.555,0.481-1.033,0.731-1.426s0.506-0.703,0.769-0.92
	S49.025,83.025,49.3,83c0.075,0,0.163,0,0.256,0.009c0.094,0.009,0.194,0.028,0.294,0.066s0.2,0.094,0.294,0.178
	S50.325,83.45,50.4,83.6c0.05,0.075,0.263,0.375,0.53,0.831c0.267,0.456,0.589,1.069,0.858,1.769s0.485,1.488,0.539,2.294
	c0.055,0.806-0.052,1.631-0.427,2.406c-0.15,0.275-0.319,0.512-0.505,0.714s-0.389,0.367-0.607,0.498s-0.453,0.228-0.702,0.292
	C49.838,92.468,49.575,92.5,49.3,92.5z M49.4,83.8c0,0-0.006,0-0.014,0c-0.008,0-0.017,0-0.024,0s-0.009,0-0.005,0
	C49.362,83.8,49.375,83.8,49.4,83.8c-0.125,0.025-0.275,0.1-0.445,0.247c-0.17,0.147-0.361,0.366-0.568,0.678
	s-0.428,0.719-0.661,1.241S47.25,87.125,47,87.9c-0.15,0.5-0.206,0.956-0.188,1.367c0.019,0.411,0.113,0.777,0.263,1.096
	s0.356,0.591,0.6,0.814C47.919,91.4,48.2,91.575,48.5,91.7c0.225,0.1,0.469,0.162,0.717,0.181c0.249,0.019,0.502-0.006,0.746-0.081
	c0.243-0.075,0.478-0.2,0.689-0.381C50.863,91.237,51.05,91,51.2,90.7c0.325-0.675,0.4-1.419,0.33-2.155
	c-0.07-0.736-0.286-1.464-0.543-2.107s-0.553-1.203-0.786-1.602C49.968,84.438,49.8,84.2,49.8,84.2l0,0l0,0l0,0l0,0
	c-0.05-0.1-0.1-0.175-0.147-0.231c-0.047-0.056-0.091-0.094-0.128-0.119c-0.037-0.025-0.069-0.037-0.091-0.044S49.4,83.8,49.4,83.8z
	"/>
<path style="fill:#4AAFF8;" d="M43.4,49.7c0,0,0.1,0.444,0.186,1.103s0.158,1.534,0.101,2.397c-0.056,0.862-0.24,1.712-0.667,2.322
	c-0.427,0.609-1.095,0.978-2.12,0.878s-1.662-0.425-2.028-0.875c-0.366-0.45-0.459-1.025-0.397-1.625s0.281-1.225,0.541-1.775
	c0.259-0.55,0.559-1.025,0.784-1.325c0.2-0.25,0.5-0.594,0.844-0.931c0.344-0.337,0.731-0.669,1.106-0.894
	c0.375-0.225,0.737-0.344,1.031-0.256C43.075,48.806,43.3,49.1,43.4,49.7z"/>
<path d="M41.2,56.8c-0.025,0-0.05,0-0.076,0s-0.055,0-0.085,0c-0.032,0-0.066,0-0.105,0s-0.083,0-0.133,0
	c-0.35-0.025-0.662-0.081-0.941-0.164c-0.278-0.083-0.522-0.192-0.734-0.323c-0.213-0.132-0.394-0.285-0.547-0.455
	C38.425,55.688,38.3,55.5,38.2,55.3c-0.175-0.4-0.225-0.844-0.192-1.297s0.148-0.916,0.304-1.353
	c0.156-0.437,0.354-0.85,0.549-1.203C39.056,51.094,39.25,50.8,39.4,50.6c0.025-0.025,0.162-0.2,0.377-0.442
	c0.214-0.242,0.505-0.551,0.836-0.845c0.331-0.294,0.703-0.572,1.079-0.752c0.376-0.18,0.758-0.261,1.108-0.161
	c0.125,0.025,0.237,0.075,0.338,0.147c0.1,0.072,0.187,0.166,0.262,0.278s0.138,0.244,0.188,0.391s0.087,0.309,0.112,0.484
	c0.025,0.075,0.1,0.394,0.174,0.858s0.146,1.074,0.165,1.73c0.019,0.656-0.016,1.359-0.155,2.01C43.744,54.95,43.5,55.55,43.1,56
	c-0.1,0.125-0.219,0.237-0.353,0.336c-0.134,0.099-0.284,0.183-0.447,0.252c-0.163,0.069-0.338,0.121-0.522,0.157
	C41.594,56.781,41.4,56.8,41.2,56.8z M42.6,49.1c-0.15,0-0.331,0.062-0.531,0.172c-0.2,0.109-0.419,0.266-0.644,0.453
	s-0.456,0.406-0.681,0.641C40.519,50.6,40.3,50.85,40.1,51.1c-0.15,0.2-0.325,0.469-0.495,0.778s-0.336,0.659-0.467,1.022
	c-0.131,0.362-0.228,0.738-0.261,1.097S38.875,54.7,39,55c0.075,0.15,0.169,0.287,0.284,0.411c0.116,0.123,0.253,0.233,0.416,0.326
	s0.35,0.172,0.566,0.233c0.216,0.061,0.459,0.105,0.734,0.13c0.175,0.025,0.344,0.031,0.503,0.02s0.309-0.039,0.447-0.082
	c0.138-0.044,0.263-0.103,0.372-0.177c0.109-0.073,0.203-0.161,0.278-0.261c0.35-0.375,0.55-0.919,0.653-1.523
	c0.103-0.605,0.109-1.27,0.072-1.889c-0.038-0.619-0.119-1.191-0.191-1.608C43.062,50.163,43,49.9,43,49.9l0,0l0,0l0,0l0,0
	c0-0.075-0.006-0.15-0.02-0.222c-0.014-0.072-0.036-0.141-0.068-0.203s-0.072-0.119-0.123-0.166
	c-0.051-0.047-0.114-0.084-0.189-0.109c0-0.025,0-0.044,0-0.058s0-0.023,0-0.029s0-0.009,0-0.011C42.6,49.1,42.6,49.1,42.6,49.1z"/>
<path style="fill:#4AAFF8;" d="M36,70.7c0,0,0.1,0.444,0.186,1.103c0.086,0.659,0.158,1.534,0.101,2.397
	c-0.056,0.863-0.24,1.713-0.667,2.322c-0.427,0.609-1.095,0.978-2.12,0.878s-1.662-0.425-2.028-0.875
	c-0.366-0.45-0.459-1.025-0.397-1.625s0.281-1.225,0.541-1.775c0.259-0.55,0.559-1.025,0.784-1.325
	c0.2-0.25,0.506-0.594,0.858-0.931c0.352-0.337,0.748-0.669,1.129-0.894c0.382-0.225,0.747-0.344,1.036-0.256
	C35.713,69.806,35.925,70.1,36,70.7z"/>
<path d="M33.9,77.8c-0.025,0-0.05,0-0.076,0c-0.026,0-0.054,0-0.085,0s-0.066,0-0.105,0s-0.083,0-0.133,0
	c-0.35-0.025-0.663-0.081-0.941-0.164c-0.278-0.083-0.522-0.192-0.734-0.323c-0.213-0.132-0.394-0.285-0.547-0.455
	C31.125,76.688,31,76.5,30.9,76.3c-0.175-0.4-0.225-0.844-0.192-1.297c0.033-0.453,0.148-0.916,0.304-1.353s0.353-0.85,0.549-1.203
	S31.95,71.8,32.1,71.6c0.025-0.025,0.162-0.2,0.377-0.442c0.214-0.242,0.505-0.551,0.836-0.845c0.331-0.294,0.703-0.572,1.079-0.752
	c0.376-0.18,0.758-0.261,1.108-0.161c0.125,0.025,0.237,0.075,0.338,0.147c0.1,0.072,0.188,0.166,0.262,0.278
	c0.075,0.112,0.138,0.244,0.188,0.391s0.088,0.309,0.112,0.484c0.025,0.075,0.1,0.394,0.174,0.858
	c0.073,0.464,0.146,1.074,0.165,1.73c0.019,0.656-0.016,1.359-0.155,2.01S36.2,76.55,35.8,77c-0.125,0.125-0.256,0.238-0.395,0.336
	c-0.139,0.098-0.286,0.183-0.443,0.251c-0.156,0.069-0.321,0.122-0.498,0.158C34.287,77.781,34.1,77.8,33.9,77.8z M35.2,70.1
	c-0.15,0-0.331,0.062-0.531,0.172s-0.419,0.266-0.644,0.453s-0.456,0.406-0.681,0.641S32.9,71.85,32.7,72.1
	c-0.15,0.2-0.325,0.469-0.495,0.778c-0.17,0.309-0.336,0.659-0.467,1.022c-0.132,0.362-0.229,0.737-0.261,1.097S31.475,75.7,31.6,76
	c0.075,0.15,0.169,0.288,0.284,0.411s0.253,0.233,0.416,0.327c0.163,0.094,0.35,0.172,0.566,0.233
	c0.216,0.061,0.459,0.104,0.734,0.129c0.175,0.025,0.344,0.031,0.503,0.02c0.159-0.011,0.309-0.039,0.447-0.082
	c0.138-0.044,0.263-0.103,0.372-0.177c0.109-0.073,0.203-0.161,0.278-0.261c0.35-0.375,0.55-0.919,0.653-1.523
	c0.103-0.605,0.109-1.27,0.072-1.889s-0.119-1.19-0.191-1.608C35.662,71.163,35.6,70.9,35.6,70.9l0,0l0,0l0,0l0,0
	c0-0.075-0.006-0.15-0.02-0.222s-0.036-0.141-0.068-0.203c-0.031-0.062-0.071-0.119-0.123-0.166S35.275,70.225,35.2,70.2
	c0.025-0.025,0.044-0.044,0.056-0.058c0.013-0.014,0.019-0.024,0.019-0.03c0-0.006-0.006-0.009-0.019-0.01
	C35.244,70.1,35.225,70.1,35.2,70.1z"/>
<path style="fill:#4AAFF8;" d="M43.4,63.8c0,0,0.1,0.444,0.186,1.103c0.086,0.659,0.158,1.534,0.101,2.397
	c-0.056,0.863-0.24,1.713-0.667,2.322c-0.427,0.609-1.095,0.978-2.12,0.878s-1.662-0.425-2.028-0.875
	c-0.366-0.45-0.459-1.025-0.397-1.625s0.281-1.225,0.541-1.775c0.259-0.55,0.559-1.025,0.784-1.325c0.2-0.25,0.5-0.594,0.844-0.931
	c0.344-0.337,0.731-0.669,1.106-0.894s0.737-0.344,1.031-0.256C43.075,62.906,43.3,63.2,43.4,63.8z"/>
<path d="M41.3,70.9c-0.025,0-0.05,0-0.076,0s-0.055,0-0.085,0c-0.032,0-0.066,0-0.105,0s-0.083,0-0.133,0
	c-0.35-0.025-0.662-0.081-0.941-0.164s-0.522-0.192-0.734-0.323c-0.213-0.132-0.394-0.285-0.547-0.455
	C38.525,69.788,38.4,69.6,38.3,69.4c-0.175-0.4-0.225-0.844-0.192-1.297s0.148-0.916,0.304-1.353s0.353-0.85,0.549-1.203
	S39.35,64.9,39.5,64.7c0.025-0.025,0.162-0.2,0.377-0.442c0.214-0.242,0.505-0.551,0.836-0.845c0.331-0.294,0.703-0.572,1.079-0.752
	c0.376-0.18,0.758-0.261,1.108-0.161c0.125,0.025,0.237,0.075,0.338,0.147c0.1,0.072,0.188,0.166,0.262,0.278
	c0.075,0.112,0.138,0.244,0.188,0.391s0.088,0.309,0.112,0.484c0.025,0.075,0.1,0.394,0.174,0.858
	c0.073,0.464,0.146,1.074,0.165,1.73c0.019,0.656-0.016,1.359-0.155,2.01C43.844,69.05,43.6,69.65,43.2,70.1
	c-0.125,0.125-0.256,0.237-0.395,0.336c-0.139,0.098-0.286,0.183-0.443,0.251c-0.156,0.069-0.321,0.122-0.498,0.158
	C41.688,70.881,41.5,70.9,41.3,70.9z M42.6,63.2c-0.15,0-0.331,0.062-0.531,0.172c-0.2,0.109-0.419,0.266-0.644,0.453
	c-0.225,0.187-0.456,0.406-0.681,0.641C40.519,64.7,40.3,64.95,40.1,65.2c-0.15,0.2-0.325,0.469-0.495,0.778
	c-0.17,0.309-0.336,0.659-0.467,1.022c-0.132,0.363-0.229,0.738-0.261,1.097S38.875,68.8,39,69.1
	c0.075,0.15,0.169,0.287,0.284,0.411c0.116,0.123,0.253,0.233,0.416,0.326s0.35,0.172,0.566,0.233S40.725,70.175,41,70.2
	c0.175,0.025,0.344,0.031,0.503,0.02s0.309-0.039,0.447-0.082c0.138-0.044,0.263-0.104,0.372-0.177S42.525,69.8,42.6,69.7
	c0.35-0.375,0.55-0.919,0.653-1.523c0.103-0.605,0.109-1.27,0.072-1.889c-0.038-0.619-0.119-1.191-0.191-1.608
	C43.062,64.262,43,64,43,64l0,0l0,0l0,0l0,0c0-0.075-0.006-0.15-0.02-0.222c-0.014-0.072-0.036-0.141-0.068-0.203
	s-0.072-0.119-0.123-0.166c-0.051-0.047-0.114-0.084-0.189-0.109c0.025-0.025,0.037-0.044,0.042-0.058s0.002-0.023-0.004-0.029
	c-0.006-0.007-0.016-0.01-0.024-0.011C42.606,63.2,42.6,63.2,42.6,63.2z"/>
<path style="fill:#4AAFF8;" d="M36,57.6c0,0,0.1,0.444,0.186,1.103c0.086,0.659,0.158,1.534,0.101,2.397
	c-0.056,0.862-0.24,1.713-0.667,2.322c-0.427,0.609-1.095,0.978-2.12,0.878s-1.662-0.425-2.028-0.875
	c-0.366-0.45-0.459-1.025-0.397-1.625s0.281-1.225,0.541-1.775C31.875,59.475,32.175,59,32.4,58.7c0.2-0.225,0.506-0.55,0.858-0.875
	s0.748-0.65,1.129-0.875c0.382-0.225,0.747-0.35,1.036-0.275C35.713,56.75,35.925,57.025,36,57.6z"/>
<path d="M33.9,64.7c-0.025,0-0.05,0-0.076,0c-0.026,0-0.054,0-0.085,0s-0.066,0-0.105,0s-0.083,0-0.133,0
	c-0.35-0.025-0.663-0.081-0.941-0.164c-0.278-0.083-0.522-0.192-0.734-0.324c-0.213-0.131-0.394-0.284-0.547-0.454
	S31,63.4,30.9,63.2c-0.175-0.4-0.225-0.844-0.192-1.297c0.033-0.453,0.148-0.916,0.304-1.353s0.353-0.85,0.549-1.203
	C31.756,58.994,31.95,58.7,32.1,58.5c0.025-0.025,0.162-0.2,0.377-0.442c0.214-0.242,0.505-0.551,0.836-0.845
	c0.331-0.294,0.703-0.572,1.079-0.752c0.376-0.18,0.758-0.261,1.108-0.161c0.125,0.025,0.237,0.075,0.338,0.147
	c0.1,0.072,0.188,0.166,0.262,0.278c0.075,0.112,0.138,0.244,0.188,0.391s0.088,0.309,0.112,0.484
	c0.025,0.075,0.1,0.394,0.174,0.858c0.073,0.464,0.146,1.073,0.165,1.729c0.019,0.657-0.016,1.36-0.155,2.011
	C36.444,62.85,36.2,63.45,35.8,63.9c-0.125,0.15-0.256,0.275-0.395,0.378c-0.139,0.103-0.286,0.184-0.443,0.247
	s-0.322,0.106-0.498,0.134C34.287,64.688,34.1,64.7,33.9,64.7z M35.2,57c-0.15,0-0.331,0.062-0.531,0.172s-0.419,0.266-0.644,0.453
	s-0.456,0.406-0.681,0.641S32.9,58.75,32.7,59c-0.15,0.2-0.325,0.469-0.495,0.778s-0.336,0.659-0.467,1.022
	c-0.132,0.362-0.229,0.737-0.261,1.097S31.475,62.6,31.6,62.9c0.075,0.15,0.169,0.287,0.284,0.411s0.253,0.233,0.416,0.326
	c0.163,0.094,0.35,0.172,0.566,0.233c0.216,0.061,0.459,0.104,0.734,0.129c0.175,0.025,0.344,0.031,0.503,0.02
	s0.309-0.039,0.447-0.082c0.138-0.044,0.263-0.103,0.372-0.177s0.203-0.161,0.278-0.261c0.35-0.375,0.55-0.919,0.653-1.523
	c0.103-0.605,0.109-1.27,0.072-1.889s-0.119-1.19-0.191-1.607C35.662,58.062,35.6,57.8,35.6,57.8l0,0l0,0l0,0l0,0
	c0-0.075-0.006-0.15-0.02-0.222c-0.014-0.072-0.036-0.141-0.068-0.203s-0.072-0.119-0.123-0.166
	c-0.051-0.047-0.114-0.084-0.189-0.109c0.025-0.025,0.044-0.044,0.056-0.058s0.019-0.023,0.019-0.029
	c0-0.006-0.006-0.01-0.019-0.011S35.225,57,35.2,57z"/>
<path style="fill:#4AAFF8;" d="M27.9,66.4c0,0-0.025,0.456-0.124,1.116c-0.098,0.659-0.27,1.522-0.564,2.334
	s-0.709,1.575-1.295,2.034S24.575,72.5,23.6,72.1c-0.95-0.4-1.469-0.9-1.694-1.439s-0.156-1.117,0.069-1.674
	c0.225-0.556,0.606-1.09,1.006-1.542S23.8,66.625,24.1,66.4c0.25-0.15,0.631-0.369,1.058-0.577c0.427-0.208,0.899-0.405,1.33-0.511
	c0.431-0.106,0.821-0.122,1.085,0.033C27.837,65.5,27.975,65.825,27.9,66.4z"/>
<path d="M24.6,72.8c-0.1,0-0.2-0.006-0.3-0.017c-0.1-0.011-0.2-0.026-0.3-0.045c-0.1-0.019-0.2-0.04-0.3-0.064
	c-0.1-0.023-0.2-0.048-0.3-0.073c-0.325-0.125-0.612-0.269-0.862-0.428s-0.462-0.334-0.638-0.522s-0.312-0.388-0.413-0.597
	c-0.1-0.209-0.162-0.428-0.188-0.653c-0.05-0.45,0.031-0.9,0.194-1.33s0.406-0.839,0.681-1.207c0.275-0.369,0.581-0.697,0.869-0.964
	s0.556-0.473,0.756-0.598c0.025-0.025,0.206-0.156,0.481-0.328c0.275-0.172,0.644-0.384,1.044-0.572s0.831-0.35,1.231-0.422
	c0.4-0.072,0.769-0.053,1.044,0.122c0.1,0.075,0.188,0.162,0.261,0.262c0.073,0.1,0.133,0.213,0.177,0.338s0.072,0.263,0.083,0.412
	c0.011,0.15,0.004,0.312-0.021,0.488c0,0.075-0.019,0.4-0.08,0.866c-0.061,0.466-0.164,1.072-0.333,1.709
	c-0.168,0.636-0.403,1.305-0.726,1.895c-0.323,0.59-0.736,1.103-1.261,1.428c-0.05,0.025-0.112,0.056-0.186,0.089
	c-0.073,0.033-0.158,0.067-0.251,0.098s-0.197,0.059-0.308,0.08C24.844,72.787,24.725,72.8,24.6,72.8z M27,65.6
	c-0.15,0-0.337,0.037-0.548,0.103c-0.211,0.066-0.445,0.159-0.689,0.272c-0.244,0.112-0.497,0.244-0.746,0.384
	S24.525,66.65,24.3,66.8c-0.2,0.15-0.444,0.356-0.695,0.602s-0.511,0.53-0.743,0.836c-0.231,0.306-0.434,0.634-0.573,0.967
	s-0.214,0.67-0.189,0.995c0.025,0.175,0.075,0.338,0.152,0.489c0.076,0.152,0.179,0.292,0.31,0.423
	c0.132,0.132,0.291,0.254,0.48,0.368c0.189,0.114,0.408,0.22,0.658,0.32c0.175,0.075,0.337,0.131,0.491,0.167
	c0.153,0.036,0.297,0.052,0.434,0.046c0.138-0.007,0.269-0.035,0.397-0.086C25.15,71.875,25.275,71.8,25.4,71.7
	c0.425-0.275,0.763-0.744,1.03-1.292c0.267-0.548,0.464-1.176,0.608-1.77s0.234-1.153,0.289-1.564S27.4,66.4,27.4,66.4l0,0l0,0l0,0
	l0,0c0-0.075,0-0.15-0.003-0.222c-0.003-0.072-0.009-0.141-0.022-0.203s-0.031-0.119-0.059-0.166
	c-0.028-0.047-0.066-0.084-0.116-0.109c0.025-0.025,0.031-0.044,0.025-0.058c-0.006-0.014-0.025-0.024-0.05-0.03
	c-0.025-0.006-0.056-0.009-0.088-0.01C27.056,65.6,27.025,65.6,27,65.6z"/>
<path style="fill:#4AAFF8;" d="M43.4,77.8c0,0,0.1,0.406,0.186,1.009s0.158,1.403,0.101,2.191c-0.056,0.787-0.24,1.562-0.667,2.116
	C42.594,83.669,41.925,84,40.9,83.9s-1.662-0.4-2.028-0.811c-0.366-0.411-0.459-0.933-0.397-1.476
	c0.062-0.544,0.281-1.11,0.541-1.608c0.259-0.499,0.559-0.93,0.784-1.205c0.2-0.225,0.5-0.531,0.844-0.831
	c0.344-0.3,0.731-0.594,1.106-0.794s0.737-0.306,1.031-0.231C43.075,77.019,43.3,77.275,43.4,77.8z"/>
<path d="M41.2,84.3c-0.025,0-0.05,0-0.076,0s-0.055,0-0.085,0c-0.032,0-0.066,0-0.105,0s-0.083,0-0.133,0
	c-0.35-0.025-0.669-0.075-0.955-0.15c-0.286-0.075-0.539-0.175-0.758-0.3c-0.219-0.125-0.403-0.275-0.551-0.45
	c-0.148-0.175-0.261-0.375-0.336-0.6c-0.15-0.375-0.181-0.781-0.134-1.191c0.047-0.409,0.172-0.822,0.334-1.209
	s0.362-0.75,0.559-1.059c0.197-0.309,0.391-0.566,0.541-0.741c0.025-0.025,0.169-0.188,0.391-0.411
	c0.222-0.223,0.522-0.508,0.859-0.777c0.338-0.269,0.713-0.521,1.084-0.682c0.372-0.161,0.741-0.23,1.066-0.13
	c0.075,0.025,0.156,0.062,0.239,0.117c0.083,0.055,0.167,0.127,0.248,0.221c0.081,0.093,0.16,0.209,0.23,0.351
	c0.07,0.142,0.133,0.311,0.183,0.511c0.025,0.075,0.1,0.363,0.175,0.778c0.075,0.416,0.15,0.959,0.175,1.547
	c0.025,0.588,0,1.219-0.125,1.809c-0.125,0.591-0.35,1.141-0.725,1.566c-0.125,0.125-0.263,0.238-0.412,0.336
	c-0.15,0.098-0.313,0.183-0.488,0.252c-0.175,0.068-0.362,0.122-0.562,0.157C41.638,84.281,41.425,84.3,41.2,84.3z M42.6,77.3
	c-0.15,0-0.331,0.056-0.531,0.155c-0.2,0.098-0.419,0.239-0.644,0.407s-0.456,0.366-0.681,0.577C40.519,78.65,40.3,78.875,40.1,79.1
	c-0.15,0.175-0.325,0.406-0.495,0.672s-0.336,0.566-0.467,0.878s-0.228,0.637-0.261,0.953C38.844,81.919,38.875,82.225,39,82.5
	c0.05,0.15,0.131,0.281,0.242,0.395s0.252,0.211,0.421,0.293c0.168,0.081,0.365,0.146,0.589,0.198S40.725,83.475,41,83.5
	c0.2,0.025,0.381,0.031,0.547,0.019s0.316-0.044,0.453-0.094s0.263-0.119,0.378-0.206c0.116-0.087,0.222-0.194,0.322-0.319
	c0.25-0.3,0.413-0.7,0.511-1.147s0.133-0.941,0.127-1.428c-0.007-0.488-0.054-0.969-0.118-1.391S43.075,78.15,43,77.9l0,0l0,0l0,0
	l0,0c-0.025-0.075-0.05-0.144-0.075-0.206c-0.025-0.062-0.05-0.119-0.075-0.169s-0.05-0.094-0.075-0.131
	c-0.025-0.038-0.05-0.069-0.075-0.094c-0.025,0-0.044,0-0.058,0c-0.014,0-0.024,0-0.03,0s-0.009,0-0.011,0
	C42.6,77.3,42.6,77.3,42.6,77.3z"/>
</svg>
