<?xml version="1.0" encoding="iso-8859-1"?>
<!-- Generator: Adobe Illustrator 25.3.1, SVG Export Plug-In . SVG Version: 6.00 Build 0)  -->
<svg version="1.1" id="Layer_1" xmlns="http://www.w3.org/2000/svg" xmlns:xlink="http://www.w3.org/1999/xlink" x="0px" y="0px"
	 viewBox="0 0 100 100" style="enable-background:new 0 0 100 100;" xml:space="preserve">
<path style="fill:#A4251A;" d="M50,2.4c6.572,0,12.833,1.332,18.528,3.741c5.695,2.409,10.823,5.894,15.13,10.201
	s7.793,9.435,10.201,15.13C96.268,37.167,97.6,43.428,97.6,50s-1.332,12.833-3.741,18.528c-2.409,5.695-5.894,10.823-10.201,15.13
	s-9.436,7.793-15.13,10.201C62.833,96.268,56.572,97.6,50,97.6s-12.833-1.332-18.528-3.741c-5.695-2.409-10.823-5.894-15.13-10.201
	s-7.792-9.436-10.201-15.13S2.4,56.572,2.4,50s1.332-12.833,3.741-18.528s5.894-10.823,10.201-15.13s9.435-7.792,15.13-10.201
	S43.428,2.4,50,2.4z"/>
<path style="fill:#440C09;" d="M50,1.9c-6.625,0-12.944,1.35-18.695,3.789s-10.936,5.967-15.292,10.324S8.129,25.554,5.69,31.305
	S1.9,43.375,1.9,50s1.35,12.944,3.789,18.695s5.967,10.936,10.324,15.293s9.541,7.884,15.292,10.323S43.375,98.1,50,98.1
	s12.944-1.344,18.695-3.775c5.752-2.431,10.936-5.95,15.293-10.3s7.884-9.531,10.323-15.287S98.1,56.65,98.1,50
	s-1.35-12.981-3.789-18.737s-5.967-10.938-10.323-15.288s-9.54-7.869-15.292-10.3C62.944,3.244,56.625,1.9,50,1.9z M50,93
	c-5.95,0-11.612-1.2-16.759-3.372s-9.778-5.316-13.666-9.203s-7.031-8.519-9.203-13.666C8.2,61.613,7,55.95,7,50
	s1.2-11.612,3.372-16.759s5.316-9.778,9.203-13.666s8.519-7.031,13.666-9.203S44.05,7,50,7s11.613,1.206,16.759,3.386
	s9.778,5.333,13.666,9.226s7.031,8.528,9.203,13.67S93,44.075,93,50s-1.2,11.575-3.372,16.717s-5.316,9.776-9.203,13.67
	s-8.519,7.047-13.666,9.227C61.613,91.794,55.95,93,50,93z"/>
<path style="fill:#FFFFFF;stroke:#000000;" d="M33.5,36.7h-2.4h-2.4h-2.4h-2.4v2.875v2.875v2.875V48.2h2.225h2.225h2.225H32.8v2.15
	v2.15v2.15v2.15h-2.225H28.35h-2.225H23.9v4.55v4.55v4.55V75h-1.55H20.8h-1.55H17.7V63.275V51.55V39.825V28.1h3.95h3.95h3.95h3.95
	v2.15v2.15v2.15V36.7z"/>
<path style="fill:#FFFFFF;stroke:#000000;" d="M38,75V63.275V51.55V39.825V28.1h2.425h2.425h2.425H47.7
	c2.425,0,4.55,0.475,6.374,1.427c1.823,0.951,3.346,2.379,4.564,4.285c1.219,1.906,2.134,4.291,2.745,7.155
	C61.994,43.831,62.3,47.175,62.3,51c0,1.825-0.081,3.562-0.245,5.209c-0.164,1.647-0.411,3.203-0.742,4.666
	c-0.332,1.463-0.747,2.831-1.249,4.103c-0.502,1.272-1.089,2.447-1.764,3.522c-0.65,1.1-1.362,2.056-2.134,2.872
	c-0.772,0.816-1.603,1.491-2.491,2.028s-1.831,0.938-2.828,1.203C49.85,74.869,48.8,75,47.7,75h-2.425H42.85h-2.425H38z M44.1,36.7
	v7.45v7.45v7.45v7.45h0.75h0.75h0.75h0.75c0.675,0,1.312-0.088,1.912-0.261c0.6-0.173,1.162-0.433,1.688-0.776
	c0.525-0.344,1.013-0.772,1.463-1.283c0.45-0.511,0.862-1.104,1.237-1.779c0.375-0.7,0.706-1.456,0.992-2.27
	c0.286-0.814,0.526-1.686,0.72-2.618c0.194-0.931,0.341-1.922,0.439-2.974C55.65,53.487,55.7,52.375,55.7,51.2
	c0-1.125-0.05-2.188-0.149-3.189c-0.098-1.002-0.245-1.942-0.439-2.824c-0.194-0.881-0.434-1.703-0.72-2.467
	c-0.286-0.764-0.617-1.47-0.992-2.12s-0.787-1.213-1.237-1.691c-0.45-0.478-0.938-0.872-1.463-1.184s-1.087-0.544-1.688-0.697
	c-0.6-0.153-1.237-0.228-1.913-0.228h-0.75H45.6h-0.75H44.1v-0.025V36.75v-0.025V36.7z"/>
<path style="fill:#FFFFFF;stroke:#000000;" d="M86.3,73.3c-0.5,0.425-1.037,0.794-1.613,1.108c-0.575,0.314-1.188,0.573-1.837,0.779
	c-0.65,0.206-1.338,0.36-2.063,0.461C80.062,75.75,79.3,75.8,78.5,75.8c-1.05,0-2.044-0.131-2.981-0.395
	c-0.938-0.264-1.819-0.661-2.644-1.193s-1.594-1.197-2.306-1.998S69.2,70.475,68.6,69.4c-0.6-1.05-1.125-2.194-1.575-3.428
	C66.575,64.738,66.2,63.413,65.9,62c-0.3-1.412-0.525-2.912-0.675-4.497C65.075,55.919,65,54.25,65,52.5
	c0-1.875,0.081-3.662,0.245-5.362s0.411-3.313,0.743-4.838c0.331-1.525,0.746-2.962,1.248-4.312S68.325,35.375,69,34.2
	s1.4-2.2,2.175-3.077c0.775-0.877,1.6-1.605,2.475-2.186c0.875-0.581,1.8-1.015,2.775-1.304c0.975-0.289,2-0.433,3.075-0.433
	c0.675,0,1.319,0.038,1.933,0.111c0.614,0.073,1.199,0.183,1.755,0.327s1.085,0.322,1.586,0.533
	c0.501,0.211,0.976,0.454,1.426,0.729v2.55V34v2.55v2.55c-0.45-0.475-0.919-0.888-1.405-1.239c-0.486-0.351-0.989-0.642-1.507-0.873
	c-0.519-0.231-1.053-0.403-1.602-0.518S80.575,36.3,80,36.3c-0.65,0-1.262,0.087-1.841,0.263c-0.578,0.175-1.122,0.438-1.634,0.787
	s-0.994,0.787-1.447,1.312S74.2,39.8,73.8,40.5s-0.75,1.456-1.05,2.272c-0.3,0.816-0.55,1.691-0.75,2.628s-0.35,1.938-0.45,3.003
	c-0.1,1.066-0.15,2.197-0.15,3.397c0,1.125,0.044,2.2,0.133,3.222c0.089,1.022,0.223,1.991,0.404,2.903s0.409,1.769,0.686,2.566
	c0.277,0.797,0.602,1.534,0.977,2.209s0.781,1.263,1.219,1.764c0.438,0.501,0.906,0.917,1.406,1.248s1.031,0.578,1.594,0.742
	S78.975,66.7,79.6,66.7c0.6,0,1.188-0.062,1.762-0.188c0.575-0.125,1.138-0.312,1.688-0.562s1.088-0.562,1.613-0.938
	S85.7,64.2,86.2,63.7v2.4v2.4v2.4v2.4h0.025h0.025h0.025H86.3z"/>
</svg>
