<?xml version="1.0" encoding="iso-8859-1"?>
<!-- Generator: Adobe Illustrator 25.3.1, SVG Export Plug-In . SVG Version: 6.00 Build 0)  -->
<svg version="1.1" id="Layer_1" xmlns="http://www.w3.org/2000/svg" xmlns:xlink="http://www.w3.org/1999/xlink" x="0px" y="0px"
	 viewBox="0 0 100 100" style="enable-background:new 0 0 100 100;" xml:space="preserve">
<path style="fill:#A4251A;" d="M50,2.4c6.572,0,12.833,1.332,18.528,3.741c5.695,2.409,10.823,5.894,15.13,10.201
	s7.793,9.435,10.201,15.13C96.268,37.167,97.6,43.428,97.6,50s-1.332,12.833-3.741,18.528c-2.409,5.695-5.894,10.823-10.201,15.13
	s-9.436,7.793-15.13,10.201C62.833,96.268,56.572,97.6,50,97.6s-12.833-1.332-18.528-3.741c-5.695-2.409-10.823-5.894-15.13-10.201
	s-7.792-9.436-10.201-15.13S2.4,56.572,2.4,50s1.332-12.833,3.741-18.528s5.894-10.823,10.201-15.13s9.435-7.792,15.13-10.201
	S43.428,2.4,50,2.4z"/>
<path style="fill:#440C09;" d="M50,1.9c-6.625,0-12.944,1.35-18.695,3.789s-10.936,5.967-15.292,10.324S8.129,25.554,5.69,31.305
	S1.9,43.375,1.9,50s1.35,12.944,3.789,18.695s5.967,10.936,10.324,15.293s9.541,7.884,15.292,10.323S43.375,98.1,50,98.1
	s12.944-1.344,18.695-3.775c5.752-2.431,10.936-5.95,15.293-10.3s7.884-9.531,10.323-15.287S98.1,56.65,98.1,50
	s-1.35-12.981-3.789-18.737s-5.967-10.938-10.323-15.288s-9.54-7.869-15.292-10.3C62.944,3.244,56.625,1.9,50,1.9z M50,93
	c-5.95,0-11.612-1.2-16.759-3.372s-9.778-5.316-13.666-9.203s-7.031-8.519-9.203-13.666C8.2,61.613,7,55.95,7,50
	s1.2-11.612,3.372-16.759s5.316-9.778,9.203-13.666s8.519-7.031,13.666-9.203S44.05,7,50,7s11.613,1.206,16.759,3.386
	s9.778,5.333,13.666,9.226s7.031,8.528,9.203,13.67S93,44.075,93,50s-1.2,11.575-3.372,16.717s-5.316,9.776-9.203,13.67
	s-8.519,7.047-13.666,9.227C61.613,91.794,55.95,93,50,93z"/>
<path style="fill:#FFFFFF;" d="M17.7,44.3v-5.85V32.6v-5.85V20.9h2.15H22h2.15h2.15c0.375,0,0.731,0.006,1.067,0.017
	c0.336,0.011,0.652,0.026,0.946,0.045s0.566,0.041,0.814,0.064C29.375,21.05,29.6,21.075,29.8,21.1
	c0.275,0.05,0.544,0.113,0.803,0.186s0.509,0.158,0.747,0.252s0.463,0.197,0.672,0.308c0.209,0.111,0.403,0.23,0.578,0.355
	c0.2,0.125,0.388,0.269,0.562,0.43s0.338,0.339,0.487,0.532c0.15,0.193,0.288,0.403,0.413,0.626S34.3,24.25,34.4,24.5
	c0.125,0.25,0.231,0.5,0.32,0.753c0.089,0.253,0.161,0.509,0.217,0.772c0.056,0.262,0.097,0.531,0.124,0.809
	C35.087,27.112,35.1,27.4,35.1,27.7c0,0.5-0.037,0.981-0.114,1.444c-0.076,0.462-0.192,0.906-0.348,1.331s-0.353,0.831-0.592,1.219
	c-0.239,0.387-0.521,0.756-0.846,1.106c-0.3,0.35-0.669,0.656-1.103,0.919c-0.434,0.262-0.934,0.481-1.497,0.656
	s-1.188,0.306-1.872,0.394C28.044,34.856,27.3,34.9,26.5,34.9h-1.475H23.55h-1.475H20.6v2.375v2.375v2.375V44.4h-0.725H19.15h-0.725
	H17.7v-0.025V44.35v-0.025V44.3z M20.7,32.1h1.475h1.475h1.475H26.6c0.5,0,0.956-0.025,1.373-0.074
	c0.417-0.048,0.795-0.12,1.139-0.214s0.653-0.209,0.933-0.345c0.28-0.136,0.53-0.292,0.755-0.467s0.412-0.375,0.567-0.597
	c0.155-0.222,0.277-0.466,0.371-0.728s0.16-0.544,0.201-0.841S32,28.225,32,27.9c0-0.25-0.013-0.488-0.039-0.714
	s-0.067-0.442-0.124-0.648c-0.056-0.206-0.128-0.403-0.217-0.593c-0.089-0.189-0.195-0.37-0.32-0.545s-0.256-0.337-0.395-0.486
	s-0.286-0.283-0.442-0.402s-0.322-0.222-0.499-0.308C29.788,24.118,29.6,24.05,29.4,24c-0.125-0.025-0.275-0.05-0.451-0.073
	s-0.379-0.045-0.611-0.065s-0.49-0.035-0.78-0.045C27.269,23.806,26.95,23.8,26.6,23.8h-1.45H23.7h-1.45H20.8v2.075v2.075v2.075
	V32.1h-0.025H20.75h-0.025H20.7z"/>
<path d="M21.2,44.8h-1h-1h-1h-1v-6.1v-6.1v-6.1v-6.1h2.275h2.275h2.275H26.3c0.375,0,0.731,0.006,1.069,0.017
	c0.337,0.011,0.656,0.026,0.956,0.045c0.3,0.019,0.581,0.041,0.844,0.064c0.263,0.023,0.506,0.048,0.731,0.074
	c0.3,0.05,0.587,0.113,0.862,0.188c0.275,0.075,0.538,0.163,0.788,0.263s0.487,0.212,0.713,0.337
	C32.487,21.513,32.7,21.65,32.9,21.8s0.394,0.312,0.58,0.489c0.186,0.176,0.364,0.367,0.532,0.573
	c0.169,0.206,0.329,0.428,0.477,0.668c0.149,0.239,0.286,0.495,0.411,0.77c0.125,0.25,0.231,0.513,0.32,0.784
	c0.089,0.272,0.161,0.553,0.217,0.841c0.056,0.288,0.097,0.581,0.124,0.878C35.587,27.1,35.6,27.4,35.6,27.7
	c0,0.525-0.044,1.031-0.13,1.519c-0.086,0.487-0.214,0.956-0.383,1.406s-0.379,0.881-0.627,1.294s-0.536,0.806-0.86,1.181
	s-0.718,0.7-1.179,0.977c-0.461,0.277-0.99,0.505-1.584,0.686c-0.593,0.181-1.253,0.315-1.976,0.404
	C28.138,35.256,27.35,35.3,26.5,35.3h-1.35H23.8h-1.35H21.1v2.375v2.375v2.375V44.8h0.025h0.025h0.025H21.2z M18.2,43.8h0.5h0.5h0.5
	h0.5v-2.375V39.05v-2.375V34.3h1.6h1.6H25h1.6c0.775,0,1.487-0.038,2.138-0.114c0.65-0.076,1.237-0.192,1.762-0.348
	s0.987-0.353,1.387-0.592c0.4-0.239,0.737-0.521,1.013-0.846s0.519-0.669,0.73-1.03c0.211-0.361,0.389-0.739,0.533-1.133
	c0.144-0.393,0.253-0.803,0.326-1.226S34.6,28.15,34.6,27.7c0-0.275-0.013-0.544-0.037-0.806c-0.025-0.263-0.062-0.519-0.113-0.769
	c-0.05-0.25-0.112-0.494-0.188-0.731C34.187,25.156,34.1,24.925,34,24.7s-0.213-0.438-0.336-0.638
	c-0.123-0.2-0.258-0.388-0.401-0.562c-0.144-0.175-0.297-0.337-0.458-0.487c-0.161-0.15-0.33-0.288-0.505-0.413
	c-0.175-0.125-0.362-0.238-0.561-0.339c-0.198-0.101-0.408-0.192-0.627-0.273s-0.447-0.153-0.683-0.217
	C30.194,21.707,29.95,21.65,29.7,21.6c-0.2-0.025-0.419-0.05-0.658-0.073s-0.499-0.046-0.78-0.065s-0.584-0.035-0.911-0.045
	S26.675,21.4,26.3,21.4h-2.025H22.25h-2.025H18.2c0,0,0,1.4,0,3.5s0,4.9,0,7.7s0,5.6,0,7.7C18.2,42.4,18.2,43.8,18.2,43.8z
	 M26.6,32.6H25h-1.6h-1.6h-1.6v-2.35V27.9v-2.35V23.2h1.575h1.575h1.575H26.5c0.35,0,0.675,0.006,0.975,0.017
	c0.3,0.011,0.575,0.026,0.825,0.045s0.475,0.04,0.675,0.064c0.2,0.023,0.375,0.049,0.525,0.074c0.225,0.075,0.438,0.163,0.639,0.264
	s0.392,0.217,0.573,0.348c0.182,0.132,0.354,0.279,0.518,0.443C31.394,24.619,31.55,24.8,31.7,25c0.125,0.2,0.237,0.406,0.336,0.62
	c0.098,0.214,0.183,0.436,0.251,0.668c0.069,0.231,0.122,0.472,0.158,0.723c0.036,0.252,0.055,0.514,0.055,0.789
	c0,0.375-0.031,0.731-0.092,1.067c-0.061,0.336-0.151,0.652-0.27,0.946c-0.119,0.293-0.266,0.565-0.44,0.814S31.325,31.1,31.1,31.3
	s-0.487,0.381-0.787,0.541c-0.3,0.159-0.638,0.297-1.013,0.409c-0.375,0.112-0.788,0.2-1.238,0.259S27.125,32.6,26.6,32.6z
	 M21.2,31.6h1.35h1.35h1.35h1.35c0.45,0,0.869-0.019,1.255-0.058c0.386-0.039,0.739-0.098,1.057-0.179
	c0.319-0.081,0.603-0.185,0.852-0.311c0.248-0.127,0.461-0.277,0.636-0.452s0.331-0.363,0.467-0.564
	c0.136-0.201,0.251-0.417,0.345-0.648c0.094-0.232,0.166-0.479,0.215-0.743S31.5,28.1,31.5,27.8c0-0.225-0.013-0.438-0.038-0.639
	s-0.062-0.392-0.112-0.573c-0.05-0.182-0.113-0.354-0.188-0.518C31.087,25.906,31,25.75,30.9,25.6s-0.212-0.288-0.334-0.413
	s-0.253-0.237-0.391-0.337c-0.138-0.1-0.281-0.188-0.428-0.262C29.6,24.513,29.45,24.45,29.3,24.4
	c-0.075-0.025-0.175-0.05-0.309-0.073c-0.134-0.024-0.303-0.046-0.516-0.065c-0.212-0.018-0.469-0.034-0.778-0.045
	C27.388,24.206,27.025,24.2,26.6,24.2h-1.325H23.95h-1.325H21.3v1.85v1.85v1.85v1.85h-0.025H21.25c0,0-0.013,0-0.025,0
	S21.2,31.6,21.2,31.6z"/>
<path style="fill:#FFFFFF;" d="M63.3,44.3l2.2-5.85l2.2-5.85l2.2-5.85l2.2-5.85h0.825h0.825h0.825H75.4l2.325,5.85l2.325,5.85
	l2.325,5.85L84.7,44.3h-0.85H83h-0.85H81.3l-0.675-1.775L79.95,40.75l-0.675-1.775L78.6,37.2h-2.4h-2.4h-2.4H69l-0.625,1.775
	L67.75,40.75l-0.625,1.775L66.5,44.3h-0.8h-0.8h-0.8H63.3z M69.9,34.7h1.925h1.925h1.925H77.6L77,33.075l-0.6-1.625l-0.6-1.625
	L75.2,28.2c-0.175-0.5-0.344-0.975-0.503-1.427c-0.159-0.451-0.309-0.879-0.447-1.285c-0.138-0.406-0.263-0.791-0.372-1.155
	c-0.109-0.364-0.203-0.708-0.278-1.033c-0.075,0.375-0.156,0.75-0.244,1.125s-0.181,0.75-0.281,1.125s-0.206,0.75-0.319,1.125
	c-0.112,0.375-0.231,0.75-0.356,1.125l-0.625,1.725L71.15,31.25l-0.625,1.725L69.9,34.7z"/>
<path d="M85.4,44.8h-1.125H83.15h-1.125H80.9l-0.675-1.775L79.55,41.25l-0.675-1.775L78.2,37.7h-2.225H73.75h-2.225H69.3
	l-0.625,1.775L68.05,41.25l-0.625,1.775L66.8,44.8h-1.075H64.65h-1.075H62.5l2.275-6.1l2.275-6.1l2.275-6.1l2.275-6.1h0.975h0.975
	h0.975H75.5l2.475,6.1l2.475,6.1l2.475,6.1L85.4,44.8z M81.6,43.8h0.6h0.6h0.6H84l-2.25-5.6l-2.25-5.6L77.25,27L75,21.4h-0.65H73.7
	h-0.65H72.4L70.3,27l-2.1,5.6l-2.1,5.6L64,43.8h0.525h0.525h0.525H66.1l0.625-1.775l0.625-1.775l0.625-1.775L68.6,36.7h2.575h2.575
	h2.575H78.9l0.675,1.775l0.675,1.775l0.675,1.775L81.6,43.8z M78.4,35.2h-2.3h-2.3h-2.3h-2.3l0.7-1.875l0.7-1.875l0.7-1.875L72,27.7
	c0.125-0.35,0.244-0.706,0.356-1.067c0.113-0.361,0.219-0.727,0.319-1.096c0.1-0.368,0.194-0.74,0.281-1.114
	s0.169-0.748,0.244-1.123h0.25h0.25h0.25h0.25c0.075,0.3,0.169,0.631,0.278,0.989c0.109,0.358,0.234,0.742,0.372,1.149
	s0.287,0.834,0.447,1.28c0.159,0.445,0.328,0.908,0.503,1.383l0.65,1.775l0.65,1.775l0.65,1.774L78.4,35.2z M70.6,34.2h1.575h1.575
	h1.575H76.9l-0.525-1.45L75.85,31.3l-0.525-1.45L74.8,28.4c-0.1-0.275-0.2-0.55-0.299-0.822c-0.098-0.272-0.195-0.541-0.289-0.803
	c-0.093-0.263-0.184-0.519-0.27-0.766c-0.086-0.247-0.167-0.484-0.242-0.709c-0.05,0.225-0.106,0.45-0.167,0.675
	c-0.061,0.225-0.126,0.45-0.195,0.675c-0.069,0.225-0.141,0.45-0.215,0.675C73.05,27.55,72.975,27.775,72.9,28l-0.575,1.55
	L71.75,31.1l-0.575,1.55L70.6,34.2z"/>
<polygon style="fill:#FFFFFF;" points="48.9,20 49.9,20 50.9,20 51.9,20 52.9,20 52.9,24.375 52.9,28.75 52.9,33.125 52.9,37.5 
	51.9,37.5 50.9,37.5 49.9,37.5 48.9,37.5 48.9,33.125 48.9,28.75 48.9,24.375 "/>
<path d="M53.2,37.8h-1.125H50.95h-1.125H48.7v-4.5v-4.5v-4.5v-4.5h1.125h1.125h1.125H53.2v4.5v4.5v4.5V37.8z M49.2,37.3h0.875h0.875
	h0.875H52.7v-4.25V28.8v-4.25V20.3h-0.875H50.95h-0.875H49.2v4.25v4.25v4.25V37.3z"/>
<path style="fill:#FFFFFF;" d="M62.7,24.3c-0.075-0.25-0.169-0.719-0.37-1.322s-0.511-1.341-1.018-2.128
	c-0.506-0.787-1.209-1.625-2.198-2.428C58.125,17.619,56.85,16.85,55.2,16.2v-0.35V15.5v-0.35V14.8h1.075h1.075h1.075H59.5v-0.7
	v-0.7v-0.7V12h-4.325H50.85h-4.325H42.2v0.7v0.7v0.7v0.7h1.05h1.05h1.05h1.05v0.375v0.375v0.375V16.3
	c-1.6,0.65-2.838,1.412-3.799,2.206c-0.961,0.794-1.646,1.619-2.139,2.394c-0.493,0.775-0.797,1.5-0.995,2.094
	c-0.198,0.594-0.292,1.056-0.367,1.306c-0.075,0.275-0.15,0.556-0.22,0.861c-0.07,0.305-0.136,0.633-0.192,1.001
	c-0.056,0.369-0.104,0.778-0.136,1.246S38.5,28.4,38.5,29c0,0.55,0.037,1.112,0.094,1.647c0.056,0.534,0.131,1.041,0.206,1.478
	s0.15,0.806,0.206,1.066S39.1,33.6,39.1,33.6c0.275,1.05,0.713,2.019,1.253,2.905c0.541,0.886,1.184,1.689,1.872,2.407
	s1.419,1.353,2.134,1.902s1.416,1.011,2.041,1.386v0.825v0.825v0.825V45.5h2.2h2.2H53h2.2v-0.775V43.95v-0.775V42.4
	c0.625-0.375,1.338-0.838,2.072-1.389s1.491-1.192,2.203-1.923c0.712-0.732,1.381-1.554,1.941-2.468
	c0.559-0.914,1.009-1.92,1.284-3.02c0,0,0.038-0.15,0.094-0.409c0.056-0.259,0.131-0.628,0.206-1.066
	c0.075-0.438,0.15-0.944,0.206-1.478C63.263,30.112,63.3,29.55,63.3,29c0-0.6-0.019-1.125-0.052-1.592s-0.08-0.876-0.136-1.245
	c-0.056-0.369-0.121-0.697-0.192-1.002C62.85,24.856,62.775,24.575,62.7,24.3z M52.2,39.1h-0.075H52.05h-0.075H51.9h-0.525H50.85
	h-0.525H49.8h-0.075H49.65h-0.075H49.5c-1.175-0.95-2.119-1.894-2.873-2.842c-0.755-0.949-1.32-1.902-1.739-2.871
	c-0.419-0.968-0.691-1.953-0.858-2.964c-0.167-1.011-0.23-2.048-0.23-3.123c0-1.375,0.319-2.644,0.797-3.773
	c0.478-1.13,1.116-2.12,1.753-2.939s1.275-1.465,1.753-1.908C48.581,18.238,48.9,18,48.9,18h0.475h0.475h0.475H50.8h0.475h0.475
	h0.475H52.7c0,0,0.319,0.275,0.797,0.775S54.613,20,55.25,20.9s1.275,1.975,1.753,3.175C57.481,25.275,57.8,26.6,57.8,28
	c0.025,0.425-0.019,1.094-0.172,1.917s-0.416,1.802-0.828,2.846c-0.413,1.043-0.975,2.153-1.728,3.239
	C54.319,37.088,53.375,38.15,52.2,39.1z"/>
<path d="M55.4,45.7h-2.325H50.75h-2.325H46.1v-0.85V44v-0.85V42.3c-0.7-0.425-1.438-0.925-2.166-1.5s-1.447-1.225-2.109-1.95
	s-1.269-1.525-1.772-2.4c-0.503-0.875-0.903-1.825-1.153-2.85c0-0.025-0.044-0.188-0.109-0.452s-0.153-0.63-0.241-1.061
	c-0.088-0.431-0.175-0.928-0.241-1.454C38.244,30.106,38.2,29.55,38.2,29c0-0.625,0.019-1.169,0.053-1.65
	c0.034-0.481,0.084-0.9,0.147-1.275s0.138-0.706,0.222-1.013c0.084-0.306,0.178-0.587,0.278-0.862c0-0.025,0-0.05,0.002-0.075
	c0.002-0.025,0.005-0.05,0.011-0.075c0.006-0.025,0.015-0.05,0.029-0.075S38.975,23.925,39,23.9
	c0.075-0.325,0.194-0.819,0.422-1.416c0.228-0.597,0.566-1.297,1.078-2.034s1.2-1.513,2.128-2.259
	c0.928-0.747,2.097-1.466,3.572-2.091v-0.275V15.55v-0.275V15h-1.05H44.1h-1.05H42v-0.825V13.35v-0.825V11.7h4.45h4.45h4.45h4.45
	v0.825v0.825v0.825V15h-1.075H57.65h-1.075H55.5v0.225v0.225v0.225V15.9c1.525,0.625,2.731,1.35,3.689,2.106
	c0.958,0.756,1.667,1.544,2.198,2.294s0.884,1.462,1.13,2.069C62.762,22.975,62.9,23.475,63,23.8c0,0.025,0,0.05,0.002,0.075
	c0.002,0.025,0.005,0.05,0.011,0.075s0.016,0.05,0.03,0.075c0.014,0.025,0.032,0.05,0.057,0.075l0,0l0,0l0,0l0,0
	c0.075,0.275,0.156,0.556,0.236,0.862c0.08,0.306,0.158,0.638,0.227,1.013c0.068,0.375,0.128,0.794,0.17,1.275
	S63.8,28.275,63.8,28.9c0,0.55-0.038,1.106-0.095,1.633c-0.058,0.527-0.136,1.023-0.217,1.454c-0.081,0.431-0.166,0.797-0.236,1.061
	S63.125,33.475,63.1,33.5c-0.275,1.1-0.731,2.112-1.298,3.034c-0.567,0.922-1.245,1.753-1.964,2.491
	c-0.719,0.737-1.478,1.381-2.208,1.928C56.9,41.5,56.2,41.95,55.6,42.3v0.85V44v0.85v0.85h-0.05H55.5h-0.05H55.4z M46.6,45.2h2.075
	h2.075h2.075H54.9v-0.75V43.7v-0.75V42.2l0.025-0.025l0.025-0.025l0.025-0.025L55,42.1c0.575-0.35,1.256-0.794,1.972-1.33
	c0.716-0.536,1.466-1.164,2.178-1.883s1.388-1.528,1.953-2.427s1.022-1.886,1.297-2.961c0,0,0.037-0.15,0.094-0.408
	c0.056-0.258,0.131-0.624,0.206-1.055c0.075-0.43,0.15-0.927,0.206-1.447C62.963,30.069,63,29.525,63,29
	c0-0.6-0.019-1.125-0.052-1.591s-0.08-0.872-0.136-1.234c-0.056-0.362-0.122-0.681-0.192-0.972c-0.07-0.291-0.145-0.553-0.22-0.803
	l0,0l0,0l0,0l0,0c0-0.025,0-0.05-0.002-0.075c-0.002-0.025-0.005-0.05-0.011-0.075c-0.006-0.025-0.015-0.05-0.029-0.075
	c-0.014-0.025-0.033-0.05-0.058-0.075c-0.075-0.325-0.194-0.819-0.424-1.413s-0.57-1.287-1.09-2.012
	c-0.518-0.725-1.215-1.481-2.157-2.2c-0.942-0.719-2.13-1.4-3.63-1.975l-0.05-0.025L54.9,16.45l-0.05-0.025L54.8,16.4v-0.45V15.5
	v-0.45V14.6h1.075h1.075h1.075H59.1v-0.575V13.45v-0.575V12.3h-4.15H50.8h-4.15H42.5v0.575v0.575v0.575V14.6h1.05h1.05h1.05h1.05
	v0.475v0.475v0.475V16.5l-0.05,0.025L46.6,16.55l-0.05,0.025L46.5,16.6c-1.45,0.6-2.594,1.294-3.498,2.016s-1.57,1.472-2.064,2.184
	c-0.493,0.712-0.815,1.388-1.032,1.959c-0.217,0.572-0.33,1.041-0.406,1.341c0,0.025-0.006,0.05-0.016,0.075
	c-0.009,0.025-0.022,0.05-0.034,0.075s-0.025,0.05-0.034,0.075C39.406,24.35,39.4,24.375,39.4,24.4
	c-0.075,0.275-0.15,0.556-0.22,0.859c-0.07,0.303-0.136,0.628-0.192,0.991c-0.057,0.363-0.104,0.763-0.136,1.216
	C38.819,27.919,38.8,28.425,38.8,29c0,0.525,0.038,1.069,0.094,1.589c0.056,0.52,0.131,1.017,0.206,1.448
	c0.075,0.431,0.15,0.797,0.206,1.055C39.362,33.35,39.4,33.5,39.4,33.5c0.25,1,0.65,1.925,1.152,2.777
	c0.501,0.851,1.104,1.629,1.76,2.335c0.657,0.707,1.366,1.341,2.08,1.905c0.714,0.564,1.433,1.058,2.108,1.483l0.025,0.025
	l0.025,0.025l0.025,0.025L46.6,42.1v0.775v0.775v0.775V45.2z M52.3,39.4h-0.7h-0.7h-0.7h-0.7l-0.025-0.025L49.45,39.35l-0.025-0.025
	L49.4,39.3c-1.275-1.05-2.275-2.087-3.058-3.112s-1.348-2.038-1.754-3.038s-0.653-1.987-0.799-2.962
	c-0.146-0.975-0.19-1.938-0.19-2.888c0-1.4,0.312-2.688,0.784-3.833s1.103-2.148,1.741-2.979c0.638-0.831,1.281-1.491,1.778-1.949
	C48.4,18.081,48.75,17.825,48.8,17.8h0.025h0.025h0.025H48.9h0.5h0.5h0.5h0.5h0.5h0.5h0.5h0.5l0.025,0.025l0.025,0.025l0.025,0.025
	L53,17.9c0.05,0.05,0.4,0.363,0.897,0.891c0.497,0.528,1.141,1.272,1.778,2.184s1.269,1.994,1.741,3.197
	C57.888,25.375,58.2,26.7,58.2,28.1c0,0.4-0.069,1.062-0.247,1.892c-0.178,0.83-0.466,1.826-0.903,2.895s-1.025,2.209-1.803,3.327
	S53.5,38.425,52.3,39.4L52.3,39.4L52.3,39.4L52.3,39.4L52.3,39.4z M49.7,38.9h0.6h0.6h0.6h0.6c1.125-0.925,2.038-1.963,2.773-3.025
	s1.295-2.15,1.714-3.175c0.418-1.025,0.697-1.987,0.87-2.8c0.174-0.812,0.243-1.475,0.243-1.9c0-1.275-0.275-2.487-0.697-3.598
	c-0.422-1.111-0.991-2.12-1.578-2.989s-1.194-1.597-1.691-2.145C53.237,18.719,52.85,18.35,52.7,18.2h-0.45H51.8h-0.45H50.9h-0.45
	H50h-0.45H49.1c-0.15,0.125-0.531,0.444-1.019,0.93c-0.487,0.486-1.081,1.139-1.656,1.932c-0.575,0.794-1.131,1.729-1.544,2.777
	C44.469,24.887,44.2,26.05,44.2,27.3c-0.025,0.925,0,1.862,0.128,2.811s0.359,1.908,0.747,2.876
	c0.388,0.969,0.931,1.947,1.684,2.933C47.513,36.906,48.475,37.9,49.7,38.9z"/>
<path style="fill:#FFFFFF;" d="M55.2,43.5c0,0,0.181-0.037,0.464-0.084s0.667-0.103,1.074-0.141
	c0.406-0.037,0.834-0.056,1.204-0.028S58.625,43.35,58.8,43.5s0.3,0.294,0.389,0.425c0.089,0.131,0.142,0.25,0.173,0.35
	s0.041,0.181,0.042,0.237S59.4,44.6,59.4,44.6s-0.106,0.044-0.289,0.106c-0.183,0.062-0.442,0.144-0.749,0.219
	c-0.306,0.075-0.659,0.144-1.029,0.181c-0.37,0.037-0.758,0.044-1.133-0.006s-0.625-0.175-0.789-0.334
	c-0.164-0.159-0.242-0.353-0.273-0.541c-0.032-0.188-0.016-0.369,0.007-0.503C55.169,43.588,55.2,43.5,55.2,43.5z"/>
<path d="M56.6,45.4c-0.05,0-0.094,0-0.134,0c-0.041,0-0.078,0-0.116,0s-0.075,0-0.116,0c-0.041,0-0.084,0-0.134,0
	c-0.125,0-0.244-0.013-0.355-0.037c-0.111-0.025-0.214-0.062-0.307-0.113c-0.094-0.05-0.179-0.112-0.252-0.188
	C55.112,44.987,55.05,44.9,55,44.8c-0.1-0.15-0.156-0.306-0.184-0.458s-0.028-0.299-0.016-0.43s0.038-0.247,0.059-0.336
	c0.022-0.089,0.041-0.151,0.041-0.177v-0.025v-0.025v-0.024V43.3h0.025h0.025h0.025H55c0.075-0.025,0.3-0.075,0.608-0.126
	c0.308-0.052,0.699-0.104,1.105-0.136s0.828-0.041,1.198-0.005S58.6,43.15,58.8,43.3s0.344,0.306,0.447,0.458
	c0.103,0.152,0.166,0.299,0.203,0.43s0.05,0.247,0.053,0.336S59.5,44.675,59.5,44.7v0.025v0.025v0.025V44.8h-0.025H59.45h-0.025
	H59.4c0,0.025-0.088,0.075-0.241,0.136c-0.153,0.061-0.372,0.133-0.634,0.201s-0.569,0.134-0.897,0.183
	C57.3,45.368,56.95,45.4,56.6,45.4z M55.4,43.8c0,0.05-0.006,0.106-0.013,0.167s-0.013,0.126-0.013,0.195
	c0,0.069,0.006,0.141,0.025,0.214c0.019,0.073,0.05,0.148,0.1,0.224c0.025,0.05,0.062,0.094,0.109,0.131s0.103,0.069,0.166,0.094
	s0.131,0.044,0.203,0.056C56.05,44.894,56.125,44.9,56.2,44.9c0.3,0.025,0.606,0.019,0.903-0.006
	c0.297-0.025,0.584-0.069,0.847-0.119s0.5-0.106,0.697-0.156C58.844,44.569,59,44.525,59.1,44.5c0-0.05-0.006-0.1-0.022-0.152
	c-0.016-0.051-0.041-0.104-0.078-0.16s-0.087-0.115-0.153-0.179C58.781,43.944,58.7,43.875,58.6,43.8
	c-0.1-0.1-0.281-0.163-0.514-0.197c-0.233-0.034-0.517-0.041-0.824-0.028c-0.306,0.013-0.634,0.044-0.954,0.084
	C55.988,43.7,55.675,43.75,55.4,43.8z"/>
<path style="fill:#FFFFFF;" d="M56.1,45.2l1.575-0.05l1.575-0.05l1.575-0.05L62.4,45c0,0,0.05,0.006,0.124,0.03
	c0.073,0.023,0.17,0.064,0.264,0.132c0.093,0.069,0.184,0.166,0.245,0.302C63.094,45.6,63.125,45.775,63.1,46
	s-0.338,0.388-0.792,0.505c-0.455,0.117-1.052,0.189-1.646,0.232c-0.594,0.044-1.184,0.06-1.626,0.064
	C58.594,46.806,58.3,46.8,58.3,46.8s0.231,0.019,0.575,0.053c0.344,0.034,0.8,0.084,1.25,0.147s0.894,0.138,1.213,0.222
	C61.656,47.306,61.85,47.4,61.8,47.5s-0.088,0.225-0.161,0.355c-0.074,0.13-0.183,0.264-0.377,0.382
	c-0.194,0.119-0.472,0.222-0.882,0.29c-0.411,0.067-0.955,0.098-1.68,0.073s-1.325-0.1-1.812-0.211s-0.862-0.258-1.138-0.427
	c-0.275-0.169-0.45-0.359-0.537-0.558c-0.088-0.198-0.088-0.405-0.013-0.604c0.1-0.2,0.206-0.4,0.309-0.588
	c0.103-0.187,0.203-0.362,0.291-0.512s0.162-0.275,0.216-0.362C56.069,45.25,56.1,45.2,56.1,45.2z"/>
<path d="M59.4,48.8c-0.05,0-0.1,0-0.15,0c-0.05,0-0.1,0-0.15,0s-0.1,0-0.15,0c-0.05,0-0.1,0-0.15,0
	c-0.475-0.025-0.912-0.069-1.308-0.131c-0.395-0.062-0.748-0.144-1.054-0.244s-0.565-0.219-0.774-0.356
	C55.457,47.931,55.3,47.775,55.2,47.6c-0.05-0.075-0.087-0.15-0.114-0.225c-0.027-0.075-0.042-0.15-0.048-0.225
	c-0.007-0.075-0.004-0.15,0.007-0.225s0.03-0.15,0.055-0.225c0.075-0.175,0.169-0.362,0.267-0.545
	c0.098-0.183,0.201-0.361,0.295-0.517s0.178-0.291,0.239-0.386C55.962,45.156,56,45.1,56,45.1l0.025-0.025l0.025-0.025l0.025-0.025
	L56.1,45l1.6-0.05l1.6-0.05l1.6-0.05l1.6-0.05c0.025,0,0.069,0,0.123,0.006c0.055,0.006,0.12,0.019,0.189,0.044
	c0.069,0.025,0.141,0.062,0.208,0.119c0.067,0.056,0.13,0.131,0.18,0.231c0.05,0.05,0.094,0.106,0.13,0.169s0.064,0.131,0.083,0.206
	c0.019,0.075,0.028,0.156,0.026,0.244C63.438,45.906,63.425,46,63.4,46.1c-0.025,0.125-0.1,0.237-0.214,0.338
	c-0.114,0.1-0.267,0.188-0.448,0.262c-0.181,0.075-0.391,0.138-0.618,0.188c-0.227,0.05-0.47,0.087-0.72,0.112
	c0.1,0.025,0.194,0.05,0.278,0.076c0.084,0.026,0.159,0.054,0.222,0.085c0.062,0.031,0.112,0.066,0.147,0.105
	C62.081,47.306,62.1,47.35,62.1,47.4c0.025,0.025,0.044,0.05,0.056,0.075c0.013,0.025,0.019,0.05,0.019,0.075
	c0,0.025-0.006,0.05-0.019,0.075c-0.013,0.025-0.031,0.05-0.056,0.075c0,0,0,0.006-0.002,0.016
	c-0.002,0.009-0.005,0.022-0.011,0.034c-0.006,0.013-0.015,0.025-0.029,0.034C62.044,47.794,62.025,47.8,62,47.8
	c-0.05,0.1-0.112,0.213-0.209,0.325c-0.097,0.112-0.228,0.225-0.416,0.325s-0.431,0.188-0.753,0.25S59.9,48.8,59.4,48.8z M56.3,45.4
	c-0.05,0.05-0.112,0.131-0.181,0.233c-0.069,0.102-0.144,0.224-0.219,0.355s-0.15,0.272-0.219,0.411
	c-0.069,0.139-0.131,0.276-0.181,0.401c-0.025,0.05-0.044,0.094-0.056,0.133c-0.013,0.039-0.019,0.073-0.019,0.104
	s0.006,0.059,0.019,0.086s0.031,0.052,0.056,0.077c0.025,0.05,0.081,0.125,0.191,0.212C55.8,47.5,55.963,47.6,56.2,47.7
	s0.55,0.2,0.959,0.288c0.409,0.087,0.916,0.162,1.541,0.212c0.625,0.025,1.106,0.013,1.478-0.027
	c0.372-0.039,0.634-0.105,0.822-0.186s0.3-0.178,0.372-0.28c0.072-0.101,0.103-0.207,0.128-0.307l0,0l0,0l0,0l0,0
	c-0.1-0.05-0.269-0.1-0.486-0.148s-0.483-0.096-0.777-0.139c-0.293-0.043-0.615-0.084-0.945-0.12S58.625,46.925,58.3,46.9v-0.125
	V46.65v-0.125V46.4c0.625,0.025,1.219,0.019,1.758-0.009c0.539-0.028,1.024-0.078,1.43-0.141c0.406-0.062,0.734-0.138,0.96-0.216
	c0.227-0.078,0.352-0.159,0.352-0.234c0-0.05,0-0.1-0.002-0.148s-0.005-0.096-0.011-0.139c-0.006-0.044-0.015-0.084-0.029-0.12
	S62.725,45.325,62.7,45.3c-0.025-0.05-0.062-0.087-0.105-0.116s-0.089-0.047-0.132-0.059c-0.044-0.013-0.085-0.019-0.115-0.022
	S62.3,45.1,62.3,45.1l-1.5,0.075l-1.5,0.075l-1.5,0.075L56.3,45.4z"/>
<path style="fill:#FFFFFF;" d="M51.8,46.2c0,0,0.087,0.075,0.234,0.194c0.147,0.119,0.353,0.281,0.591,0.456
	c0.237,0.175,0.506,0.362,0.778,0.531C53.675,47.55,53.95,47.7,54.2,47.8c0.25,0.075,0.475,0.194,0.661,0.338
	s0.333,0.312,0.426,0.487c0.094,0.175,0.135,0.356,0.108,0.525s-0.12,0.325-0.295,0.45s-0.581,0.237-1.089,0.306
	c-0.508,0.069-1.117,0.094-1.698,0.044c-0.581-0.05-1.135-0.175-1.53-0.406S50.15,48.975,50.2,48.5s0.175-0.856,0.334-1.161
	c0.159-0.305,0.353-0.533,0.541-0.701c0.188-0.169,0.369-0.278,0.503-0.346C51.713,46.225,51.8,46.2,51.8,46.2z"/>
<path d="M53,50.2c-0.2,0-0.406-0.006-0.612-0.022s-0.413-0.041-0.612-0.078c-0.2-0.038-0.394-0.088-0.575-0.153
	c-0.181-0.066-0.35-0.147-0.5-0.247c-0.175-0.1-0.312-0.206-0.419-0.314c-0.106-0.108-0.181-0.217-0.231-0.324
	s-0.075-0.209-0.081-0.305C49.963,48.662,49.975,48.575,50,48.5c0.05-0.475,0.188-0.869,0.366-1.192
	c0.178-0.324,0.397-0.577,0.609-0.771c0.213-0.194,0.419-0.328,0.572-0.414S51.8,46,51.8,46h0.025h0.025h0.025H51.9h0.025h0.025
	h0.025H52c0,0,0.088,0.075,0.233,0.192c0.145,0.117,0.348,0.277,0.579,0.446c0.232,0.169,0.491,0.347,0.748,0.501
	s0.514,0.286,0.739,0.361c0.175,0.05,0.337,0.125,0.484,0.217s0.278,0.201,0.391,0.32c0.113,0.119,0.207,0.247,0.279,0.377
	c0.072,0.13,0.122,0.261,0.147,0.386c0.025,0.1,0.031,0.194,0.022,0.281c-0.009,0.088-0.034,0.169-0.072,0.244
	s-0.088,0.144-0.147,0.206c-0.059,0.062-0.128,0.119-0.203,0.169c-0.075,0.075-0.188,0.144-0.33,0.205
	c-0.142,0.061-0.314,0.114-0.507,0.157s-0.409,0.078-0.639,0.102C53.494,50.187,53.25,50.2,53,50.2z M51.8,46.5
	c-0.075,0.05-0.188,0.119-0.317,0.216c-0.13,0.097-0.276,0.222-0.42,0.384c-0.144,0.162-0.285,0.362-0.402,0.609
	c-0.117,0.247-0.211,0.541-0.261,0.891c0,0.075,0.006,0.15,0.022,0.223c0.016,0.074,0.041,0.146,0.078,0.215
	c0.037,0.069,0.088,0.134,0.153,0.195S50.8,49.35,50.9,49.4c0.275,0.15,0.638,0.25,1.033,0.311s0.824,0.083,1.23,0.077
	c0.406-0.006,0.79-0.041,1.098-0.093c0.308-0.052,0.539-0.12,0.639-0.195c0.05-0.025,0.088-0.056,0.116-0.091
	c0.028-0.034,0.047-0.072,0.059-0.109s0.019-0.075,0.022-0.109C55.1,49.156,55.1,49.125,55.1,49.1
	c-0.025-0.1-0.069-0.194-0.128-0.281s-0.134-0.169-0.222-0.244s-0.188-0.144-0.297-0.206S54.225,48.25,54.1,48.2
	c-0.2-0.125-0.419-0.275-0.641-0.434s-0.447-0.328-0.659-0.491c-0.213-0.162-0.413-0.319-0.584-0.453
	C52.044,46.688,51.9,46.575,51.8,46.5z"/>
<path style="fill:#FFFFFF;" d="M49.2,46.8c0,0-0.019,0.119-0.086,0.308c-0.067,0.189-0.183,0.449-0.376,0.73
	c-0.194,0.281-0.466,0.584-0.846,0.861c-0.38,0.276-0.867,0.526-1.492,0.701c-0.6,0.175-1.181,0.194-1.701,0.116
	s-0.979-0.253-1.335-0.466c-0.357-0.213-0.61-0.463-0.718-0.691c-0.108-0.228-0.07-0.434,0.156-0.559
	c0.225-0.1,0.531-0.181,0.88-0.256c0.348-0.075,0.739-0.144,1.133-0.219c0.393-0.075,0.789-0.156,1.15-0.256
	c0.361-0.1,0.686-0.219,0.936-0.369c0.275-0.125,0.556-0.181,0.823-0.195s0.52,0.014,0.739,0.057s0.403,0.103,0.533,0.152
	C49.125,46.762,49.2,46.8,49.2,46.8z"/>
<path d="M45.3,49.8c-0.375,0-0.725-0.05-1.044-0.134c-0.319-0.084-0.606-0.203-0.856-0.341s-0.462-0.294-0.631-0.453
	S42.475,48.55,42.4,48.4c-0.025-0.075-0.037-0.15-0.037-0.223c0-0.074,0.013-0.146,0.037-0.215s0.062-0.135,0.112-0.196
	c0.05-0.061,0.113-0.117,0.188-0.166c0.125-0.05,0.256-0.094,0.395-0.134c0.139-0.041,0.286-0.078,0.443-0.116
	s0.322-0.075,0.498-0.116C44.213,47.194,44.4,47.15,44.6,47.1s0.406-0.094,0.611-0.136c0.205-0.042,0.408-0.083,0.602-0.127
	c0.194-0.043,0.378-0.09,0.545-0.145c0.167-0.055,0.317-0.117,0.442-0.192c0.275-0.15,0.562-0.225,0.841-0.253
	s0.547-0.009,0.784,0.028s0.444,0.094,0.597,0.141c0.153,0.047,0.253,0.084,0.278,0.084l0.05,0.025l0.05,0.025l0.05,0.025L49.5,46.6
	v0.05v0.05v0.05v0.05c0,0.025-0.025,0.162-0.103,0.367s-0.209,0.477-0.422,0.771c-0.212,0.294-0.506,0.609-0.909,0.901
	C47.662,49.131,47.15,49.4,46.5,49.6c-0.1,0.025-0.2,0.05-0.3,0.073c-0.1,0.024-0.2,0.046-0.3,0.065c-0.1,0.019-0.2,0.034-0.3,0.045
	C45.5,49.794,45.4,49.8,45.3,49.8z M48,46.8c-0.075,0-0.15,0.006-0.225,0.017c-0.075,0.011-0.15,0.026-0.225,0.045
	c-0.075,0.019-0.15,0.041-0.225,0.065C47.25,46.95,47.175,46.975,47.1,47c-0.15,0.075-0.319,0.144-0.5,0.206
	s-0.375,0.119-0.575,0.169s-0.406,0.094-0.612,0.131C45.206,47.544,45,47.575,44.8,47.6s-0.388,0.056-0.562,0.091
	S43.9,47.762,43.75,47.8s-0.287,0.075-0.412,0.109S43.1,47.975,43,48c-0.025,0-0.044,0.006-0.058,0.017s-0.023,0.026-0.029,0.045
	s-0.009,0.041-0.011,0.064C42.9,48.15,42.9,48.175,42.9,48.2c0.05,0.125,0.181,0.275,0.377,0.422
	c0.195,0.147,0.455,0.291,0.761,0.403s0.66,0.194,1.042,0.216c0.383,0.022,0.795-0.016,1.22-0.141
	c0.45-0.125,0.825-0.294,1.138-0.484S48,48.213,48.2,48s0.35-0.425,0.463-0.616S48.85,47.025,48.9,46.9
	c-0.05,0-0.106-0.006-0.169-0.016s-0.131-0.022-0.206-0.034s-0.156-0.025-0.244-0.034C48.194,46.806,48.1,46.8,48,46.8z"/>
<path style="fill:#FFFFFF;" d="M41.4,43.8c0,0,0.213,0.013,0.539,0.044c0.327,0.031,0.767,0.081,1.224,0.156
	s0.929,0.175,1.318,0.306c0.389,0.131,0.695,0.294,0.82,0.494s0.237,0.406,0.33,0.608c0.092,0.202,0.164,0.399,0.207,0.58
	c0.043,0.181,0.059,0.347,0.039,0.486S45.8,46.725,45.7,46.8s-0.438,0.163-0.903,0.25c-0.466,0.087-1.059,0.175-1.672,0.25
	c-0.612,0.075-1.244,0.138-1.784,0.175C40.8,47.513,40.35,47.525,40.1,47.5c-0.25,0-0.469-0.094-0.645-0.234
	c-0.177-0.141-0.311-0.328-0.392-0.516c-0.082-0.188-0.11-0.375-0.074-0.516C39.025,46.094,39.125,46,39.3,46
	c0.2,0,0.494-0.019,0.822-0.047c0.328-0.028,0.691-0.066,1.028-0.103s0.65-0.075,0.878-0.103S42.4,45.7,42.4,45.7
	s-0.169,0.019-0.419,0.036c-0.25,0.017-0.581,0.033-0.906,0.026s-0.644-0.035-0.869-0.105c-0.225-0.07-0.356-0.182-0.306-0.357
	c0.025-0.225,0.131-0.431,0.277-0.614c0.145-0.183,0.329-0.342,0.51-0.473c0.181-0.132,0.36-0.235,0.493-0.305
	C41.312,43.838,41.4,43.8,41.4,43.8z"/>
<path d="M40.1,47.7h-0.025H40.05h-0.025H40c-0.2,0-0.388-0.05-0.556-0.134c-0.169-0.084-0.319-0.203-0.444-0.341
	s-0.225-0.294-0.294-0.453S38.6,46.45,38.6,46.3c0-0.1,0.013-0.188,0.037-0.264c0.025-0.077,0.062-0.142,0.113-0.199
	c0.05-0.056,0.112-0.103,0.188-0.142S39.1,45.625,39.2,45.6c0.025,0,0.056,0,0.094,0c0.037,0,0.081,0,0.131,0s0.106,0,0.169,0
	s0.131,0,0.206,0l-0.025-0.025L39.75,45.55l-0.025-0.025L39.7,45.5c-0.025-0.025-0.05-0.056-0.072-0.091
	c-0.022-0.034-0.041-0.072-0.053-0.109s-0.019-0.075-0.016-0.109s0.016-0.066,0.041-0.091c0.05-0.2,0.169-0.394,0.322-0.573
	c0.153-0.18,0.341-0.345,0.528-0.489s0.375-0.265,0.528-0.358c0.153-0.092,0.272-0.155,0.322-0.18h0.025h0.025h0.025H41.4h0.025
	h0.025h0.025H41.5c0.15,0,0.444,0.019,0.809,0.059c0.366,0.041,0.803,0.103,1.241,0.191s0.875,0.2,1.241,0.341
	C45.156,44.231,45.45,44.4,45.6,44.6c0.05,0.075,0.125,0.194,0.206,0.339c0.081,0.145,0.169,0.317,0.244,0.499
	c0.075,0.181,0.138,0.372,0.169,0.554C46.25,46.175,46.25,46.35,46.2,46.5c0,0.05-0.006,0.094-0.019,0.133
	c-0.013,0.039-0.031,0.073-0.056,0.104c-0.025,0.032-0.056,0.06-0.094,0.086C45.994,46.85,45.95,46.875,45.9,46.9
	c-0.15,0.1-0.513,0.2-0.991,0.294c-0.478,0.094-1.072,0.181-1.684,0.256s-1.244,0.138-1.797,0.181
	C40.875,47.675,40.4,47.7,40.1,47.7z M42.4,45.4l0.025,0.125l0.025,0.125l0.025,0.125L42.5,45.9c-0.025,0-0.188,0.019-0.428,0.047
	c-0.241,0.028-0.559,0.066-0.897,0.103s-0.694,0.075-1.009,0.103C39.85,46.181,39.575,46.2,39.4,46.2c-0.025,0-0.044,0-0.058,0.003
	c-0.014,0.003-0.023,0.009-0.029,0.022c-0.007,0.013-0.01,0.031-0.011,0.059S39.3,46.35,39.3,46.4c0,0.075,0.025,0.162,0.07,0.253
	s0.111,0.184,0.193,0.272c0.081,0.087,0.178,0.169,0.285,0.234s0.227,0.116,0.352,0.141c0.275,0,0.731-0.031,1.267-0.081
	c0.536-0.05,1.151-0.119,1.745-0.194c0.594-0.075,1.166-0.156,1.614-0.231C45.275,46.719,45.6,46.65,45.7,46.6
	c0,0,0.006,0,0.016-0.002c0.009-0.002,0.022-0.005,0.034-0.011c0.013-0.006,0.025-0.015,0.034-0.029
	c0.009-0.014,0.016-0.033,0.016-0.058c0.025-0.075,0.031-0.169,0.02-0.277c-0.011-0.108-0.039-0.23-0.082-0.361
	s-0.103-0.272-0.177-0.417C45.488,45.3,45.4,45.15,45.3,45c-0.075-0.1-0.256-0.2-0.506-0.295c-0.25-0.095-0.569-0.186-0.919-0.267
	c-0.35-0.082-0.731-0.153-1.106-0.211c-0.375-0.058-0.744-0.102-1.069-0.127c-0.125,0.05-0.269,0.125-0.416,0.216
	c-0.147,0.091-0.297,0.197-0.434,0.309c-0.138,0.112-0.263,0.231-0.359,0.347C40.394,45.087,40.325,45.2,40.3,45.3
	c-0.025,0.025,0.019,0.05,0.117,0.072c0.098,0.022,0.251,0.041,0.445,0.053c0.194,0.013,0.428,0.019,0.689,0.016
	C41.812,45.438,42.1,45.425,42.4,45.4z"/>
<path style="fill:#4AAFF8;" d="M58.6,50.7c0.025-0.175,0.1-0.325,0.206-0.444C58.912,50.138,59.05,50.05,59.2,50
	c0.15-0.05,0.312-0.062,0.469-0.031s0.306,0.106,0.431,0.231c0.325,0.3,0.681,0.644,1.031,1.014c0.35,0.37,0.694,0.767,0.994,1.174
	c0.3,0.406,0.556,0.821,0.731,1.229c0.175,0.408,0.269,0.808,0.244,1.183c-0.075,0.65-0.244,1.169-0.48,1.57
	c-0.236,0.402-0.539,0.686-0.882,0.868s-0.728,0.259-1.127,0.248S59.8,57.375,59.4,57.2c-0.4-0.2-0.675-0.569-0.856-1.044
	c-0.181-0.475-0.269-1.056-0.294-1.681s0.012-1.294,0.081-1.944S58.5,51.25,58.6,50.7z"/>
<path d="M60.7,57.8c-0.125,0-0.25-0.006-0.373-0.019c-0.123-0.013-0.245-0.031-0.364-0.056c-0.119-0.025-0.235-0.056-0.346-0.094
	S59.4,57.55,59.3,57.5c-0.35-0.15-0.631-0.4-0.845-0.753c-0.214-0.353-0.361-0.809-0.443-1.372
	c-0.081-0.562-0.097-1.231-0.048-2.009c0.049-0.778,0.161-1.666,0.336-2.666l0,0l0,0l0,0l0,0c0.025-0.125,0.062-0.237,0.111-0.339
	c0.048-0.102,0.108-0.192,0.176-0.273s0.147-0.153,0.233-0.217S59,49.75,59.1,49.7c0.1-0.025,0.206-0.037,0.314-0.037
	s0.217,0.013,0.324,0.037s0.21,0.062,0.305,0.112c0.095,0.05,0.182,0.113,0.257,0.188c0.375,0.35,0.763,0.731,1.131,1.131
	c0.369,0.4,0.719,0.819,1.019,1.244s0.55,0.856,0.719,1.281c0.169,0.425,0.256,0.844,0.231,1.244c-0.05,0.4-0.131,0.744-0.233,1.039
	c-0.102,0.295-0.224,0.542-0.355,0.748s-0.272,0.372-0.411,0.505C62.262,57.325,62.125,57.425,62,57.5
	c-0.1,0.05-0.2,0.094-0.302,0.131c-0.101,0.037-0.204,0.069-0.31,0.094c-0.106,0.025-0.216,0.044-0.33,0.056
	C60.944,57.794,60.825,57.8,60.7,57.8z M59.5,50.3c-0.025,0-0.044,0-0.059,0s-0.028,0-0.041,0s-0.025,0-0.041,0s-0.034,0-0.059,0
	c-0.05,0.025-0.094,0.05-0.131,0.076s-0.069,0.055-0.094,0.085c-0.025,0.032-0.044,0.066-0.056,0.105
	C59.006,50.606,59,50.65,59,50.7l0,0l0,0l0,0l0,0c-0.2,1.175-0.3,2.125-0.33,2.892s0.011,1.352,0.093,1.796
	c0.081,0.444,0.203,0.746,0.335,0.951c0.133,0.205,0.277,0.311,0.402,0.361c0.2,0.075,0.394,0.131,0.581,0.169
	s0.369,0.056,0.544,0.056s0.344-0.019,0.506-0.056c0.162-0.037,0.319-0.094,0.469-0.169s0.287-0.181,0.411-0.314
	s0.233-0.292,0.326-0.473s0.172-0.384,0.233-0.605c0.061-0.221,0.105-0.458,0.13-0.708c0.025-0.225-0.019-0.494-0.128-0.798
	c-0.109-0.305-0.284-0.645-0.522-1.014s-0.538-0.765-0.897-1.183S60.375,50.75,59.9,50.3c-0.05,0.025-0.094,0.037-0.133,0.042
	c-0.039,0.005-0.073,0.001-0.104-0.005s-0.059-0.016-0.086-0.023C59.55,50.306,59.525,50.3,59.5,50.3z"/>
<path style="fill:#4AAFF8;" d="M58.4,64.7c0.025-0.175,0.1-0.325,0.206-0.444S58.85,64.05,59,64s0.312-0.062,0.469-0.031
	s0.306,0.106,0.431,0.231c0.325,0.3,0.681,0.644,1.031,1.014c0.35,0.37,0.694,0.767,0.994,1.174c0.3,0.406,0.556,0.822,0.731,1.229
	c0.175,0.408,0.269,0.808,0.244,1.183c-0.075,0.65-0.244,1.169-0.48,1.57s-0.539,0.686-0.882,0.868
	c-0.344,0.181-0.729,0.259-1.127,0.248C60.013,71.475,59.6,71.375,59.2,71.2c-0.4-0.2-0.675-0.569-0.856-1.044
	c-0.181-0.475-0.269-1.056-0.294-1.681s0.013-1.294,0.081-1.944C58.2,65.881,58.3,65.25,58.4,64.7z"/>
<path d="M60.4,71.7c-0.125,0-0.25-0.006-0.373-0.019c-0.123-0.012-0.245-0.031-0.364-0.056c-0.119-0.025-0.235-0.056-0.346-0.094
	S59.1,71.45,59,71.4c-0.35-0.15-0.631-0.4-0.845-0.753s-0.361-0.809-0.443-1.372c-0.081-0.562-0.097-1.231-0.048-2.009
	S57.825,65.6,58,64.6c0.025-0.125,0.062-0.237,0.111-0.339s0.108-0.192,0.176-0.273c0.069-0.081,0.147-0.153,0.233-0.218
	s0.18-0.12,0.28-0.17c0.1-0.025,0.206-0.037,0.316-0.037s0.222,0.012,0.334,0.037s0.225,0.062,0.334,0.112
	C59.894,63.762,60,63.825,60.1,63.9c0.375,0.35,0.763,0.731,1.131,1.131c0.369,0.4,0.719,0.819,1.019,1.244s0.55,0.856,0.719,1.281
	S63.225,68.4,63.2,68.8c-0.05,0.4-0.131,0.744-0.233,1.039c-0.102,0.295-0.224,0.542-0.355,0.748s-0.272,0.372-0.411,0.505
	c-0.139,0.133-0.276,0.233-0.401,0.308c-0.1,0.05-0.206,0.094-0.317,0.131c-0.111,0.038-0.226,0.069-0.345,0.094
	c-0.119,0.025-0.241,0.044-0.364,0.056C60.65,71.694,60.525,71.7,60.4,71.7z M59.3,64.3c-0.025,0-0.044,0-0.059,0s-0.028,0-0.041,0
	s-0.025,0-0.041,0c-0.016,0-0.034,0-0.059,0c-0.05,0.025-0.094,0.05-0.131,0.076c-0.038,0.026-0.069,0.054-0.094,0.086
	c-0.025,0.031-0.044,0.066-0.056,0.105C58.806,64.606,58.8,64.65,58.8,64.7l0,0l0,0l0,0l0,0c-0.2,1.175-0.3,2.125-0.33,2.892
	s0.011,1.352,0.093,1.796s0.203,0.747,0.336,0.951s0.276,0.31,0.401,0.36c0.2,0.075,0.394,0.131,0.581,0.169
	c0.188,0.038,0.369,0.056,0.544,0.056s0.344-0.019,0.506-0.056c0.163-0.037,0.319-0.094,0.469-0.169s0.287-0.181,0.411-0.314
	s0.233-0.292,0.326-0.473c0.094-0.181,0.172-0.385,0.233-0.605s0.105-0.458,0.13-0.708c0.025-0.225-0.019-0.494-0.128-0.797
	s-0.284-0.641-0.522-1.003c-0.237-0.362-0.537-0.75-0.897-1.153c-0.359-0.403-0.778-0.822-1.253-1.247
	c-0.05-0.025-0.094-0.044-0.133-0.058c-0.039-0.014-0.073-0.024-0.104-0.03c-0.031-0.006-0.06-0.009-0.086-0.01
	C59.35,64.3,59.325,64.3,59.3,64.3z"/>
<path style="fill:#4AAFF8;" d="M58.4,78.6c0.025-0.175,0.1-0.325,0.206-0.444S58.85,77.95,59,77.9s0.312-0.062,0.469-0.031
	s0.306,0.106,0.431,0.231c0.325,0.3,0.681,0.644,1.031,1.014s0.694,0.767,0.994,1.174c0.3,0.406,0.556,0.821,0.731,1.229
	s0.269,0.808,0.244,1.183c-0.075,0.65-0.244,1.169-0.48,1.57c-0.236,0.402-0.539,0.686-0.882,0.868s-0.728,0.259-1.127,0.248
	C60.013,85.375,59.6,85.275,59.2,85.1c-0.4-0.2-0.675-0.569-0.856-1.044c-0.181-0.475-0.269-1.056-0.294-1.681
	s0.013-1.294,0.081-1.944C58.2,79.781,58.3,79.15,58.4,78.6z"/>
<path d="M60.4,85.7c-0.125,0-0.25-0.006-0.373-0.019c-0.123-0.012-0.245-0.031-0.364-0.056c-0.119-0.025-0.235-0.056-0.346-0.094
	S59.1,85.45,59,85.4c-0.35-0.15-0.631-0.4-0.845-0.753s-0.361-0.809-0.443-1.372c-0.081-0.562-0.097-1.231-0.048-2.009
	S57.825,79.6,58,78.6c0.025-0.125,0.062-0.237,0.111-0.339c0.048-0.102,0.108-0.192,0.176-0.274
	c0.069-0.081,0.147-0.153,0.233-0.217c0.086-0.064,0.18-0.12,0.28-0.17c0.1-0.025,0.206-0.037,0.316-0.037s0.222,0.012,0.334,0.037
	s0.225,0.062,0.334,0.113C59.894,77.762,60,77.825,60.1,77.9c0.375,0.35,0.763,0.731,1.131,1.131c0.369,0.4,0.719,0.819,1.019,1.244
	s0.55,0.856,0.719,1.281c0.169,0.425,0.256,0.844,0.231,1.244c-0.05,0.4-0.131,0.744-0.233,1.039
	c-0.102,0.295-0.224,0.542-0.355,0.748c-0.131,0.206-0.272,0.372-0.411,0.505S61.925,85.325,61.8,85.4
	c-0.1,0.05-0.206,0.094-0.317,0.131c-0.111,0.038-0.226,0.069-0.345,0.094c-0.119,0.025-0.241,0.044-0.364,0.056
	C60.65,85.694,60.525,85.7,60.4,85.7z M59.3,78.2c-0.025,0-0.044,0-0.059,0s-0.028,0-0.041,0s-0.025,0-0.041,0
	c-0.016,0-0.034,0-0.059,0c-0.05,0.025-0.094,0.05-0.131,0.076c-0.038,0.026-0.069,0.054-0.094,0.086
	c-0.025,0.032-0.044,0.066-0.056,0.105C58.806,78.506,58.8,78.55,58.8,78.6l0,0l0,0l0,0l0,0c-0.2,1.175-0.3,2.125-0.33,2.892
	s0.011,1.352,0.093,1.796s0.203,0.747,0.336,0.951s0.276,0.311,0.401,0.36c0.2,0.075,0.394,0.131,0.581,0.169
	s0.369,0.056,0.544,0.056s0.344-0.019,0.506-0.056c0.163-0.037,0.319-0.094,0.469-0.169s0.287-0.181,0.411-0.314
	s0.233-0.292,0.326-0.473c0.094-0.181,0.172-0.385,0.233-0.605c0.061-0.22,0.105-0.458,0.13-0.708
	c0.025-0.225-0.019-0.494-0.128-0.797c-0.109-0.303-0.284-0.641-0.522-1.003c-0.237-0.363-0.537-0.75-0.897-1.153
	c-0.359-0.403-0.778-0.822-1.253-1.247c-0.05,0-0.094-0.006-0.133-0.016c-0.039-0.009-0.073-0.022-0.104-0.034
	s-0.059-0.025-0.086-0.034C59.35,78.206,59.325,78.2,59.3,78.2z"/>
<path style="fill:#4AAFF8;" d="M65.8,71.4c0.025-0.175,0.1-0.319,0.206-0.428s0.244-0.184,0.394-0.222
	c0.15-0.037,0.312-0.037,0.469,0.003c0.156,0.041,0.306,0.122,0.431,0.247c0.3,0.3,0.637,0.656,0.972,1.044
	c0.334,0.388,0.666,0.806,0.953,1.231c0.287,0.425,0.531,0.856,0.691,1.269c0.159,0.413,0.234,0.806,0.184,1.156
	c-0.1,0.625-0.287,1.125-0.537,1.511S69,77.869,68.65,78.038s-0.737,0.234-1.137,0.208S66.7,78.1,66.3,77.9
	c-0.375-0.175-0.625-0.531-0.781-1.002S65.3,75.843,65.3,75.212c0-0.631,0.062-1.309,0.156-1.967
	C65.55,72.588,65.675,71.95,65.8,71.4z"/>
<path d="M67.7,78.6c-0.125,0-0.25-0.006-0.375-0.02c-0.125-0.014-0.25-0.036-0.375-0.068s-0.25-0.072-0.375-0.123
	s-0.25-0.114-0.375-0.189c-0.325-0.175-0.588-0.444-0.784-0.811s-0.328-0.833-0.391-1.402c-0.062-0.569-0.056-1.24,0.022-2.02
	S65.275,72.3,65.5,71.3l0,0l0,0l0,0l0,0c0.025-0.1,0.062-0.2,0.113-0.295s0.113-0.186,0.188-0.267
	c0.075-0.081,0.162-0.153,0.262-0.211c0.1-0.058,0.213-0.102,0.338-0.127c0.1-0.025,0.206-0.038,0.314-0.038
	s0.217,0.013,0.324,0.038c0.106,0.025,0.209,0.062,0.304,0.113c0.095,0.05,0.183,0.113,0.258,0.188
	c0.35,0.35,0.719,0.744,1.072,1.161c0.353,0.417,0.691,0.858,0.978,1.302c0.287,0.443,0.525,0.89,0.678,1.32S70.55,75.325,70.5,75.7
	c-0.05,0.4-0.137,0.744-0.248,1.039s-0.245,0.542-0.389,0.748c-0.144,0.206-0.297,0.372-0.446,0.505S69.125,78.225,69,78.3
	c-0.125,0.05-0.244,0.094-0.358,0.131c-0.114,0.037-0.224,0.069-0.33,0.094c-0.106,0.025-0.209,0.044-0.311,0.056
	C67.9,78.594,67.8,78.6,67.7,78.6z M66.2,71.5c-0.25,1.175-0.394,2.125-0.459,2.894c-0.066,0.769-0.053,1.356,0.009,1.806
	s0.175,0.762,0.309,0.981C66.194,77.4,66.35,77.525,66.5,77.6c0.2,0.1,0.394,0.175,0.581,0.227c0.188,0.051,0.369,0.079,0.544,0.085
	c0.175,0.007,0.344-0.009,0.506-0.045s0.319-0.092,0.469-0.168s0.287-0.175,0.411-0.299s0.233-0.27,0.326-0.439
	c0.094-0.168,0.172-0.358,0.233-0.569c0.061-0.211,0.105-0.442,0.13-0.692c0.025-0.225-0.019-0.494-0.127-0.8s-0.28-0.65-0.51-1.025
	c-0.231-0.375-0.522-0.781-0.868-1.213S67.45,71.775,67,71.3c-0.025-0.025-0.056-0.05-0.092-0.072
	c-0.036-0.022-0.077-0.041-0.121-0.053s-0.091-0.019-0.139-0.016C66.6,71.162,66.55,71.175,66.5,71.2
	c-0.025,0-0.056,0.006-0.089,0.019c-0.033,0.012-0.067,0.031-0.099,0.056c-0.031,0.025-0.059,0.056-0.079,0.094
	C66.212,71.406,66.2,71.45,66.2,71.5L66.2,71.5L66.2,71.5L66.2,71.5L66.2,71.5z"/>
<path style="fill:#4AAFF8;" d="M65.7,58.8c0.025-0.175,0.094-0.319,0.191-0.43s0.222-0.189,0.359-0.233
	c0.137-0.044,0.287-0.053,0.434-0.026c0.147,0.027,0.291,0.089,0.416,0.189c0.325,0.3,0.688,0.65,1.045,1.028
	c0.358,0.378,0.711,0.784,1.017,1.197c0.307,0.413,0.566,0.831,0.736,1.234c0.17,0.403,0.252,0.791,0.202,1.141
	c-0.075,0.65-0.244,1.169-0.48,1.57c-0.236,0.402-0.539,0.686-0.883,0.868c-0.343,0.181-0.728,0.259-1.126,0.248
	C67.213,65.575,66.8,65.475,66.4,65.3c-0.375-0.175-0.631-0.525-0.798-0.988c-0.167-0.462-0.245-1.037-0.264-1.662
	s0.022-1.3,0.092-1.963C65.5,60.025,65.6,59.375,65.7,58.8z"/>
<path d="M67.7,66c-0.125,0-0.25-0.006-0.373-0.019c-0.124-0.012-0.246-0.031-0.365-0.056c-0.118-0.025-0.234-0.056-0.345-0.094
	C66.506,65.794,66.4,65.75,66.3,65.7c-0.35-0.15-0.631-0.406-0.844-0.769c-0.213-0.362-0.356-0.831-0.431-1.406
	s-0.081-1.256-0.019-2.044C65.069,60.694,65.2,59.8,65.4,58.8l0,0l0,0l0,0l0,0c0.025-0.1,0.062-0.2,0.111-0.295
	c0.048-0.095,0.108-0.186,0.176-0.267c0.069-0.081,0.147-0.153,0.233-0.211c0.086-0.058,0.18-0.102,0.28-0.127
	s0.206-0.037,0.314-0.037s0.217,0.012,0.323,0.037c0.106,0.025,0.21,0.062,0.305,0.112c0.095,0.05,0.182,0.112,0.257,0.188
	c0.375,0.35,0.769,0.737,1.145,1.145c0.377,0.408,0.736,0.836,1.043,1.268c0.306,0.431,0.56,0.865,0.724,1.285
	c0.164,0.42,0.239,0.826,0.189,1.201c-0.05,0.4-0.131,0.744-0.233,1.039c-0.102,0.295-0.224,0.542-0.355,0.749
	c-0.131,0.206-0.271,0.372-0.41,0.504c-0.139,0.133-0.277,0.233-0.402,0.308c-0.1,0.05-0.206,0.094-0.317,0.131
	s-0.226,0.069-0.345,0.094c-0.119,0.025-0.241,0.044-0.365,0.056C67.95,65.994,67.825,66,67.7,66z M66.1,58.9
	c-0.225,1.175-0.338,2.125-0.372,2.894c-0.034,0.769,0.009,1.356,0.097,1.806s0.219,0.763,0.359,0.981S66.475,64.925,66.6,65
	c0.2,0.075,0.394,0.131,0.581,0.169c0.188,0.038,0.369,0.056,0.544,0.056s0.344-0.019,0.506-0.056
	C68.394,65.131,68.55,65.075,68.7,65s0.287-0.181,0.411-0.314c0.124-0.133,0.233-0.292,0.327-0.473
	c0.093-0.182,0.172-0.385,0.232-0.605c0.061-0.22,0.105-0.458,0.13-0.708s-0.025-0.531-0.144-0.841S69.35,61.413,69.1,61.05
	s-0.562-0.75-0.931-1.159S67.375,59.05,66.9,58.6c-0.025-0.025-0.056-0.05-0.092-0.072c-0.036-0.022-0.077-0.041-0.121-0.053
	c-0.044-0.013-0.09-0.019-0.139-0.016S66.45,58.475,66.4,58.5s-0.094,0.05-0.131,0.076c-0.038,0.026-0.069,0.054-0.094,0.085
	c-0.025,0.031-0.044,0.066-0.056,0.105C66.106,58.806,66.1,58.85,66.1,58.9L66.1,58.9L66.1,58.9L66.1,58.9L66.1,58.9z"/>
<path style="fill:#4AAFF8;" d="M73.4,67.5c-0.025-0.15-0.006-0.288,0.045-0.405s0.136-0.214,0.242-0.283
	c0.106-0.068,0.235-0.109,0.374-0.114S74.35,66.725,74.5,66.8c0.375,0.2,0.819,0.438,1.277,0.705
	c0.458,0.267,0.929,0.564,1.36,0.883c0.431,0.318,0.822,0.659,1.118,1.014c0.295,0.355,0.495,0.723,0.545,1.098
	c0.1,0.625,0.075,1.156-0.045,1.598s-0.336,0.795-0.617,1.064s-0.628,0.453-1.011,0.558s-0.802,0.13-1.227,0.08
	c-0.45-0.075-0.819-0.369-1.122-0.802s-0.541-1.005-0.728-1.636c-0.188-0.631-0.325-1.322-0.428-1.992S73.45,68.05,73.4,67.5z"/>
<path d="M76.4,74.2c-0.05,0-0.1,0-0.15,0c-0.05,0-0.1,0-0.15,0c-0.05,0-0.1,0-0.15,0c-0.05,0-0.1,0-0.15,0
	c-0.375-0.05-0.713-0.225-1.014-0.525c-0.301-0.3-0.567-0.725-0.798-1.275c-0.231-0.55-0.428-1.225-0.593-2.025
	C73.231,69.575,73.1,68.65,73,67.6l0,0l0,0l0,0l0,0c0-0.1,0.006-0.2,0.022-0.297c0.016-0.097,0.041-0.191,0.078-0.278
	s0.088-0.169,0.153-0.241C73.319,66.713,73.4,66.65,73.5,66.6c0.075-0.05,0.162-0.094,0.256-0.128
	c0.094-0.034,0.194-0.059,0.294-0.072s0.2-0.012,0.294,0.003S74.525,66.45,74.6,66.5c0.475,0.25,0.975,0.525,1.463,0.822
	c0.487,0.297,0.963,0.616,1.387,0.953s0.8,0.694,1.088,1.066c0.287,0.372,0.488,0.759,0.562,1.159s0.1,0.75,0.088,1.058
	c-0.013,0.308-0.063,0.574-0.138,0.805c-0.075,0.231-0.175,0.428-0.287,0.598c-0.113,0.17-0.238,0.314-0.363,0.439
	c-0.1,0.125-0.225,0.237-0.369,0.336c-0.144,0.099-0.306,0.183-0.481,0.252c-0.175,0.069-0.363,0.121-0.556,0.157
	S76.6,74.2,76.4,74.2z M73.8,67.5c0.1,1.175,0.238,2.125,0.398,2.891c0.161,0.766,0.346,1.347,0.54,1.784s0.397,0.731,0.595,0.922
	c0.198,0.191,0.392,0.278,0.567,0.303c0.2,0.025,0.4,0.031,0.594,0.019c0.194-0.013,0.381-0.044,0.556-0.094
	s0.337-0.119,0.481-0.206S77.8,72.925,77.9,72.8c0.125-0.125,0.225-0.269,0.303-0.43s0.134-0.339,0.172-0.533
	s0.056-0.403,0.059-0.627S78.425,70.75,78.4,70.5c-0.05-0.25-0.181-0.512-0.387-0.786c-0.206-0.273-0.488-0.558-0.838-0.851
	c-0.35-0.294-0.769-0.597-1.25-0.908C75.444,67.644,74.9,67.325,74.3,67c-0.05-0.025-0.094-0.038-0.133-0.042
	s-0.074-0.001-0.105,0.005c-0.031,0.006-0.059,0.015-0.086,0.023C73.95,66.994,73.925,67,73.9,67c0,0.05-0.006,0.094-0.016,0.134
	s-0.022,0.078-0.034,0.116s-0.025,0.075-0.034,0.116C73.806,67.406,73.8,67.45,73.8,67.5L73.8,67.5L73.8,67.5L73.8,67.5L73.8,67.5z"
	/>
<path style="fill:#4AAFF8;" d="M51.8,55.5c0,0,0.181,0.244,0.43,0.656s0.564,0.994,0.833,1.669s0.491,1.444,0.552,2.231
	c0.061,0.787-0.04,1.594-0.415,2.344s-0.944,1.188-1.567,1.359s-1.301,0.078-1.895-0.234s-1.103-0.844-1.389-1.547
	C48.063,61.275,48,60.4,48.3,59.4s0.625-1.825,0.955-2.48c0.33-0.655,0.664-1.139,0.983-1.458s0.622-0.472,0.889-0.464
	C51.394,55.006,51.625,55.175,51.8,55.5z"/>
<path d="M51.1,64.1c-0.1,0-0.194-0.006-0.284-0.017c-0.091-0.011-0.178-0.026-0.266-0.045s-0.175-0.04-0.266-0.064
	C50.194,63.95,50.1,63.925,50,63.9c-0.35-0.15-0.694-0.369-1-0.65s-0.575-0.625-0.775-1.025s-0.331-0.856-0.362-1.362
	C47.831,60.356,47.9,59.8,48.1,59.2c0.225-0.7,0.456-1.331,0.694-1.886c0.238-0.555,0.481-1.033,0.731-1.426s0.506-0.703,0.769-0.92
	c0.263-0.217,0.531-0.343,0.806-0.368c0.075,0,0.162,0,0.256,0.009c0.094,0.009,0.194,0.028,0.294,0.066s0.2,0.094,0.294,0.178
	c0.094,0.084,0.181,0.197,0.256,0.347c0.05,0.075,0.262,0.375,0.53,0.831c0.267,0.456,0.589,1.069,0.858,1.769
	c0.269,0.7,0.484,1.487,0.539,2.294c0.055,0.806-0.052,1.631-0.427,2.406c-0.15,0.25-0.325,0.475-0.519,0.672
	c-0.194,0.197-0.406,0.366-0.631,0.503s-0.462,0.244-0.706,0.316C51.6,64.062,51.35,64.1,51.1,64.1z M51.1,55.4L51.1,55.4L51.1,55.4
	L51.1,55.4L51.1,55.4c-0.125,0.025-0.275,0.1-0.445,0.247c-0.17,0.147-0.361,0.366-0.568,0.678s-0.428,0.719-0.661,1.241
	c-0.233,0.522-0.476,1.159-0.726,1.934c-0.15,0.5-0.206,0.956-0.188,1.367c0.019,0.411,0.112,0.777,0.263,1.096
	c0.15,0.319,0.356,0.59,0.6,0.814C49.619,63,49.9,63.175,50.2,63.3c0.225,0.1,0.469,0.163,0.717,0.181
	c0.248,0.019,0.502-0.006,0.746-0.081c0.243-0.075,0.478-0.2,0.689-0.381c0.211-0.181,0.399-0.419,0.548-0.719
	c0.325-0.675,0.4-1.419,0.33-2.155c-0.07-0.736-0.286-1.464-0.543-2.108s-0.553-1.203-0.786-1.602
	C51.668,56.037,51.5,55.8,51.5,55.8l0,0l0,0l0,0l0,0c-0.05-0.1-0.094-0.175-0.133-0.231c-0.039-0.056-0.073-0.094-0.104-0.119
	c-0.032-0.025-0.06-0.037-0.086-0.044C51.15,55.4,51.125,55.4,51.1,55.4z"/>
<path style="fill:#4AAFF8;" d="M51.8,69.4c0,0,0.181,0.244,0.43,0.656s0.564,0.994,0.833,1.669c0.268,0.675,0.49,1.444,0.551,2.231
	c0.061,0.787-0.039,1.594-0.414,2.344s-0.944,1.188-1.567,1.359s-1.301,0.078-1.895-0.234s-1.103-0.844-1.389-1.547
	C48.063,75.175,48,74.3,48.3,73.3s0.625-1.819,0.955-2.466c0.33-0.647,0.664-1.122,0.983-1.434s0.622-0.463,0.889-0.459
	C51.394,68.944,51.625,69.1,51.8,69.4z"/>
<path d="M51.1,78.1c-0.1,0-0.194-0.006-0.284-0.017c-0.091-0.011-0.178-0.026-0.266-0.045s-0.175-0.04-0.266-0.064
	S50.1,77.925,50,77.9c-0.35-0.15-0.694-0.369-1-0.65s-0.575-0.625-0.775-1.025s-0.331-0.856-0.363-1.363S47.9,73.8,48.1,73.2
	c0.225-0.7,0.456-1.331,0.694-1.886c0.238-0.555,0.481-1.033,0.731-1.426s0.506-0.703,0.769-0.92
	c0.263-0.217,0.531-0.343,0.806-0.368c0.075,0,0.162,0,0.256,0.009c0.094,0.009,0.194,0.028,0.294,0.066s0.2,0.094,0.294,0.178
	S52.125,69.05,52.2,69.2c0.05,0.075,0.262,0.375,0.53,0.831c0.267,0.456,0.589,1.069,0.858,1.769c0.269,0.7,0.484,1.488,0.539,2.294
	c0.055,0.806-0.052,1.631-0.427,2.406c-0.15,0.25-0.325,0.475-0.519,0.672c-0.194,0.197-0.406,0.366-0.631,0.503
	s-0.462,0.244-0.706,0.316C51.6,78.062,51.35,78.1,51.1,78.1z M51.1,69.3L51.1,69.3L51.1,69.3L51.1,69.3L51.1,69.3
	c-0.125,0.025-0.275,0.1-0.445,0.247c-0.17,0.147-0.361,0.366-0.568,0.678s-0.428,0.719-0.661,1.241S48.95,72.625,48.7,73.4
	c-0.15,0.5-0.206,0.956-0.188,1.367s0.112,0.777,0.263,1.096s0.356,0.591,0.6,0.814C49.619,76.9,49.9,77.075,50.2,77.2
	c0.225,0.1,0.469,0.162,0.717,0.181c0.248,0.019,0.502-0.006,0.746-0.081c0.243-0.075,0.478-0.2,0.689-0.381
	c0.211-0.181,0.399-0.419,0.548-0.719c0.325-0.675,0.4-1.419,0.33-2.155c-0.07-0.736-0.286-1.464-0.543-2.107
	s-0.553-1.203-0.786-1.602C51.668,69.938,51.5,69.7,51.5,69.7l0,0l0,0l0,0l0,0c-0.05-0.1-0.094-0.175-0.133-0.231
	c-0.039-0.056-0.073-0.094-0.104-0.119c-0.032-0.025-0.06-0.037-0.086-0.044C51.15,69.3,51.125,69.3,51.1,69.3z"/>
<path style="fill:#4AAFF8;" d="M51.8,84.8c0,0,0.181,0.244,0.43,0.656s0.564,0.994,0.833,1.669c0.268,0.675,0.49,1.444,0.551,2.231
	S53.575,90.95,53.2,91.7s-0.944,1.188-1.567,1.359s-1.301,0.078-1.895-0.234s-1.103-0.844-1.389-1.547
	C48.063,90.575,48,89.7,48.3,88.7c0.325-1,0.663-1.819,0.997-2.466c0.334-0.647,0.666-1.122,0.978-1.434s0.606-0.463,0.866-0.459
	S51.625,84.5,51.8,84.8z"/>
<path d="M51.1,93.5c-0.1,0-0.194-0.006-0.284-0.017c-0.091-0.011-0.178-0.026-0.266-0.045s-0.175-0.04-0.266-0.064
	S50.1,93.325,50,93.3c-0.35-0.15-0.694-0.369-1-0.65s-0.575-0.625-0.775-1.025s-0.331-0.856-0.363-1.363
	C47.831,89.756,47.9,89.2,48.1,88.6c0.225-0.7,0.456-1.331,0.694-1.886c0.238-0.555,0.481-1.033,0.731-1.426s0.506-0.703,0.769-0.92
	C50.556,84.15,50.825,84.025,51.1,84c0.075,0,0.162,0,0.256,0.009s0.194,0.028,0.294,0.066s0.2,0.094,0.294,0.178
	S52.125,84.45,52.2,84.6c0.05,0.075,0.262,0.375,0.53,0.831c0.267,0.456,0.589,1.069,0.858,1.769c0.269,0.7,0.484,1.488,0.539,2.294
	c0.055,0.806-0.052,1.631-0.427,2.406c-0.15,0.25-0.325,0.475-0.519,0.672c-0.194,0.197-0.406,0.366-0.631,0.503
	s-0.462,0.244-0.706,0.316C51.6,93.463,51.35,93.5,51.1,93.5z M51.1,84.7L51.1,84.7L51.1,84.7L51.1,84.7L51.1,84.7
	c-0.125,0.025-0.275,0.1-0.445,0.247c-0.17,0.147-0.361,0.366-0.568,0.678s-0.428,0.719-0.661,1.241S48.95,88.025,48.7,88.8
	c-0.15,0.5-0.206,0.956-0.188,1.367s0.112,0.777,0.263,1.096s0.356,0.591,0.6,0.814C49.619,92.3,49.9,92.475,50.2,92.6
	c0.225,0.1,0.469,0.162,0.717,0.181c0.248,0.019,0.502-0.006,0.746-0.081c0.243-0.075,0.478-0.2,0.689-0.381
	c0.211-0.181,0.399-0.419,0.548-0.719c0.325-0.675,0.4-1.419,0.33-2.155c-0.07-0.736-0.286-1.464-0.543-2.107
	s-0.553-1.203-0.786-1.602C51.668,85.338,51.5,85.1,51.5,85.1l0,0l0,0l0,0l0,0c-0.05-0.075-0.094-0.138-0.133-0.189
	c-0.039-0.051-0.073-0.092-0.104-0.123c-0.032-0.032-0.06-0.054-0.086-0.068C51.15,84.706,51.125,84.7,51.1,84.7z"/>
<path style="fill:#4AAFF8;" d="M45.1,50.7c0,0,0.1,0.444,0.186,1.103s0.158,1.534,0.101,2.397c-0.056,0.862-0.24,1.712-0.667,2.322
	c-0.427,0.609-1.095,0.978-2.12,0.878s-1.662-0.425-2.028-0.875c-0.366-0.45-0.459-1.025-0.397-1.625s0.281-1.225,0.541-1.775
	c0.259-0.55,0.559-1.025,0.784-1.325c0.2-0.25,0.5-0.594,0.844-0.931c0.344-0.337,0.731-0.669,1.106-0.894s0.737-0.344,1.031-0.256
	C44.775,49.806,45,50.1,45.1,50.7z"/>
<path d="M43,57.8c-0.025,0-0.05,0-0.076,0c-0.026,0-0.054,0-0.085,0s-0.066,0-0.105,0s-0.083,0-0.133,0
	c-0.35-0.025-0.663-0.081-0.941-0.164c-0.278-0.083-0.522-0.192-0.734-0.323s-0.394-0.284-0.547-0.455S40.1,56.5,40,56.3
	c-0.175-0.4-0.225-0.844-0.192-1.297s0.148-0.916,0.304-1.353c0.157-0.437,0.354-0.85,0.549-1.203
	C40.856,52.094,41.05,51.8,41.2,51.6c0.025-0.025,0.162-0.2,0.376-0.442c0.214-0.242,0.505-0.551,0.836-0.845
	c0.331-0.294,0.703-0.572,1.08-0.752c0.377-0.18,0.758-0.261,1.108-0.161c0.125,0.025,0.237,0.075,0.338,0.147
	c0.1,0.072,0.188,0.166,0.262,0.278c0.075,0.112,0.138,0.244,0.188,0.391s0.088,0.309,0.112,0.484
	c0.025,0.075,0.1,0.394,0.173,0.858s0.145,1.074,0.164,1.73c0.019,0.656-0.015,1.359-0.154,2.01C45.544,55.95,45.3,56.55,44.9,57
	c-0.125,0.125-0.256,0.237-0.395,0.336c-0.139,0.099-0.286,0.183-0.443,0.252s-0.322,0.122-0.498,0.158
	C43.387,57.782,43.2,57.8,43,57.8z M44.3,50.1c-0.15,0-0.331,0.062-0.531,0.172s-0.419,0.266-0.644,0.453s-0.456,0.406-0.681,0.641
	C42.219,51.6,42,51.85,41.8,52.1c-0.15,0.2-0.325,0.469-0.495,0.778s-0.336,0.659-0.467,1.022c-0.132,0.362-0.229,0.737-0.261,1.097
	S40.575,55.7,40.7,56c0.075,0.15,0.169,0.287,0.284,0.411c0.116,0.123,0.253,0.233,0.416,0.326s0.35,0.172,0.566,0.232
	c0.216,0.061,0.459,0.105,0.734,0.13c0.175,0.025,0.344,0.031,0.503,0.02c0.159-0.011,0.309-0.039,0.447-0.082
	c0.138-0.044,0.263-0.103,0.372-0.177s0.203-0.161,0.278-0.261c0.35-0.375,0.55-0.919,0.653-1.523
	c0.103-0.605,0.109-1.27,0.072-1.889c-0.037-0.618-0.119-1.19-0.191-1.607C44.763,51.163,44.7,50.9,44.7,50.9l0,0l0,0l0,0l0,0
	c0-0.075-0.006-0.15-0.02-0.222c-0.014-0.072-0.036-0.141-0.067-0.203s-0.072-0.119-0.124-0.166
	c-0.052-0.047-0.114-0.084-0.189-0.109c0.025-0.025,0.037-0.044,0.042-0.058c0.005-0.014,0.002-0.023-0.004-0.029
	c-0.007-0.007-0.016-0.01-0.024-0.011S44.3,50.1,44.3,50.1z"/>
<path style="fill:#4AAFF8;" d="M37.8,71.6c0,0,0.1,0.444,0.186,1.103c0.086,0.659,0.158,1.534,0.101,2.397s-0.241,1.713-0.667,2.322
	S36.325,78.4,35.3,78.3s-1.662-0.425-2.028-0.875c-0.366-0.45-0.459-1.025-0.397-1.625s0.281-1.225,0.541-1.775
	C33.675,73.475,33.975,73,34.2,72.7c0.2-0.25,0.5-0.588,0.844-0.917c0.344-0.33,0.731-0.651,1.106-0.87s0.737-0.334,1.031-0.252
	C37.475,70.744,37.7,71.025,37.8,71.6z"/>
<path d="M35.6,78.7c-0.025,0-0.05,0-0.076,0c-0.026,0-0.054,0-0.085,0s-0.066,0-0.105,0s-0.083,0-0.133,0
	c-0.35-0.025-0.663-0.081-0.941-0.164c-0.278-0.083-0.522-0.192-0.734-0.323c-0.213-0.132-0.394-0.285-0.547-0.455
	C32.825,77.587,32.7,77.4,32.6,77.2c-0.175-0.4-0.225-0.844-0.192-1.297s0.148-0.916,0.304-1.353s0.353-0.85,0.549-1.203
	c0.196-0.353,0.39-0.647,0.54-0.847c0.025-0.025,0.162-0.2,0.376-0.442s0.505-0.551,0.836-0.845c0.331-0.294,0.703-0.572,1.08-0.752
	S36.85,70.2,37.2,70.3c0.125,0.025,0.237,0.075,0.338,0.147c0.1,0.072,0.187,0.166,0.262,0.278s0.138,0.244,0.188,0.391
	s0.087,0.309,0.112,0.484c0.025,0.075,0.1,0.394,0.173,0.858c0.073,0.464,0.145,1.074,0.164,1.73
	c0.019,0.656-0.015,1.359-0.154,2.01C38.144,76.85,37.9,77.45,37.5,77.9c-0.1,0.125-0.219,0.237-0.353,0.336
	c-0.134,0.098-0.284,0.183-0.447,0.251s-0.338,0.122-0.522,0.158C35.994,78.681,35.8,78.7,35.6,78.7z M37,71
	c-0.15,0-0.331,0.062-0.531,0.172c-0.2,0.109-0.419,0.266-0.644,0.453s-0.456,0.406-0.681,0.641C34.919,72.5,34.7,72.75,34.5,73
	c-0.15,0.2-0.325,0.469-0.495,0.778c-0.17,0.309-0.336,0.659-0.467,1.022c-0.132,0.363-0.229,0.738-0.261,1.097
	S33.275,76.6,33.4,76.9c0.075,0.15,0.169,0.287,0.284,0.411c0.116,0.123,0.253,0.233,0.416,0.326s0.35,0.172,0.566,0.233
	S35.125,77.975,35.4,78c0.175,0.025,0.344,0.031,0.503,0.02s0.309-0.039,0.447-0.082c0.138-0.044,0.262-0.104,0.372-0.177
	S36.925,77.6,37,77.5c0.35-0.375,0.55-0.919,0.653-1.523c0.103-0.605,0.109-1.27,0.072-1.889s-0.119-1.19-0.191-1.608
	S37.4,71.8,37.4,71.8l0,0l0,0l0,0l0,0c0-0.075-0.006-0.15-0.02-0.222s-0.036-0.141-0.068-0.203s-0.072-0.119-0.123-0.166
	C37.137,71.162,37.075,71.125,37,71.1c0-0.025,0-0.044,0-0.058s0-0.024,0-0.03c0-0.006,0-0.009,0-0.01C37,71,37,71,37,71z"/>
<path style="fill:#4AAFF8;" d="M45.2,64.8c0,0,0.1,0.444,0.186,1.103c0.086,0.659,0.158,1.534,0.101,2.397s-0.241,1.713-0.667,2.322
	S43.725,71.6,42.7,71.5s-1.662-0.425-2.028-0.875c-0.366-0.45-0.459-1.025-0.397-1.625s0.281-1.225,0.541-1.775
	c0.259-0.55,0.559-1.025,0.784-1.325c0.175-0.25,0.462-0.594,0.801-0.931c0.339-0.337,0.73-0.669,1.111-0.894
	c0.382-0.225,0.754-0.344,1.055-0.256C44.869,63.906,45.1,64.2,45.2,64.8z"/>
<path d="M43,71.9c-0.025,0-0.05,0-0.076,0c-0.026,0-0.054,0-0.085,0s-0.066,0-0.105,0s-0.083,0-0.133,0
	c-0.35-0.025-0.663-0.081-0.941-0.164c-0.278-0.083-0.522-0.192-0.734-0.323c-0.213-0.132-0.394-0.285-0.547-0.455
	S40.1,70.6,40,70.4c-0.175-0.4-0.225-0.844-0.192-1.297s0.148-0.916,0.304-1.353s0.353-0.85,0.549-1.203
	c0.196-0.353,0.39-0.647,0.54-0.847c0.025-0.025,0.162-0.2,0.376-0.442s0.505-0.551,0.836-0.845c0.331-0.294,0.703-0.572,1.08-0.752
	S44.25,63.4,44.6,63.5c0.125,0.025,0.237,0.075,0.338,0.147c0.1,0.072,0.188,0.166,0.262,0.278c0.075,0.112,0.138,0.244,0.188,0.391
	c0.05,0.147,0.088,0.309,0.112,0.484c0.025,0.075,0.1,0.394,0.173,0.858c0.073,0.464,0.145,1.074,0.164,1.73
	c0.019,0.656-0.015,1.359-0.154,2.01C45.544,70.05,45.3,70.65,44.9,71.1c-0.1,0.125-0.219,0.237-0.353,0.336
	c-0.134,0.098-0.284,0.183-0.447,0.251c-0.163,0.069-0.338,0.122-0.522,0.158C43.394,71.881,43.2,71.9,43,71.9z M44.3,64.1
	c-0.15,0-0.331,0.062-0.531,0.172s-0.419,0.266-0.644,0.453s-0.456,0.406-0.681,0.641C42.219,65.6,42,65.85,41.8,66.1
	c-0.15,0.2-0.325,0.469-0.495,0.778c-0.17,0.309-0.336,0.659-0.467,1.022c-0.132,0.362-0.229,0.737-0.261,1.097S40.575,69.7,40.7,70
	c0.075,0.15,0.169,0.288,0.284,0.411c0.116,0.123,0.253,0.233,0.416,0.327s0.35,0.172,0.566,0.233
	c0.216,0.061,0.459,0.104,0.734,0.129c0.175,0.025,0.344,0.031,0.503,0.02c0.159-0.011,0.309-0.039,0.447-0.082
	c0.138-0.044,0.263-0.103,0.372-0.177c0.109-0.073,0.203-0.161,0.278-0.261c0.35-0.375,0.55-0.919,0.653-1.523
	c0.103-0.605,0.109-1.27,0.072-1.889c-0.037-0.619-0.119-1.191-0.191-1.608C44.763,65.162,44.7,64.9,44.7,64.9l0,0l0,0l0,0l0,0
	c0-0.075-0.006-0.15-0.02-0.222s-0.036-0.141-0.067-0.203c-0.032-0.062-0.072-0.119-0.124-0.166S44.375,64.225,44.3,64.2
	c0.025,0,0.044-0.006,0.056-0.016s0.019-0.022,0.019-0.034s-0.006-0.025-0.019-0.034C44.344,64.106,44.325,64.1,44.3,64.1z"/>
<path style="fill:#4AAFF8;" d="M37.8,58.6c0,0,0.1,0.444,0.186,1.103c0.086,0.659,0.158,1.534,0.101,2.397s-0.241,1.713-0.667,2.322
	S36.325,65.4,35.3,65.3s-1.662-0.425-2.028-0.875c-0.366-0.45-0.459-1.025-0.397-1.625s0.281-1.225,0.541-1.775
	C33.675,60.475,33.975,60,34.2,59.7c0.2-0.25,0.5-0.594,0.844-0.931c0.344-0.337,0.731-0.669,1.106-0.894s0.737-0.344,1.031-0.256
	C37.475,57.706,37.7,58,37.8,58.6z"/>
<path d="M35.6,65.7c-0.025,0-0.05,0-0.076,0c-0.026,0-0.054,0-0.085,0s-0.066,0-0.105,0s-0.083,0-0.133,0
	c-0.35-0.025-0.663-0.081-0.941-0.164c-0.278-0.083-0.522-0.192-0.734-0.323c-0.213-0.132-0.394-0.285-0.547-0.455
	C32.825,64.587,32.7,64.4,32.6,64.2c-0.175-0.4-0.225-0.844-0.192-1.297s0.148-0.916,0.304-1.353s0.353-0.85,0.549-1.203
	c0.196-0.353,0.39-0.647,0.54-0.847c0.025-0.025,0.162-0.2,0.376-0.442c0.214-0.242,0.505-0.551,0.836-0.845
	c0.331-0.294,0.703-0.572,1.08-0.752c0.377-0.18,0.758-0.261,1.108-0.161c0.125,0.025,0.237,0.075,0.338,0.147
	c0.1,0.072,0.187,0.166,0.262,0.278s0.138,0.244,0.188,0.391s0.087,0.309,0.112,0.484c0.025,0.075,0.1,0.394,0.173,0.858
	c0.073,0.464,0.145,1.073,0.164,1.729c0.019,0.657-0.015,1.36-0.154,2.011C38.144,63.85,37.9,64.45,37.5,64.9
	c-0.1,0.125-0.219,0.237-0.353,0.336c-0.134,0.099-0.284,0.183-0.447,0.252c-0.163,0.069-0.338,0.121-0.522,0.157
	C35.994,65.681,35.8,65.7,35.6,65.7z M37,58c-0.15,0-0.331,0.062-0.531,0.172c-0.2,0.109-0.419,0.266-0.644,0.453
	s-0.456,0.406-0.681,0.641C34.919,59.5,34.7,59.75,34.5,60c-0.15,0.2-0.325,0.469-0.495,0.778s-0.336,0.659-0.467,1.022
	c-0.132,0.362-0.229,0.737-0.261,1.097S33.275,63.6,33.4,63.9c0.075,0.15,0.169,0.288,0.284,0.411
	c0.116,0.123,0.253,0.233,0.416,0.326s0.35,0.172,0.566,0.233c0.216,0.061,0.459,0.105,0.734,0.13
	c0.175,0.025,0.344,0.031,0.503,0.02s0.309-0.039,0.447-0.082c0.138-0.044,0.262-0.104,0.372-0.177S36.925,64.6,37,64.5
	c0.35-0.375,0.55-0.919,0.653-1.523c0.103-0.605,0.109-1.27,0.072-1.889c-0.037-0.619-0.119-1.191-0.191-1.608
	C37.463,59.062,37.4,58.8,37.4,58.8l0,0l0,0l0,0l0,0c0-0.075-0.006-0.15-0.02-0.222c-0.014-0.072-0.036-0.141-0.068-0.203
	s-0.072-0.119-0.123-0.166C37.137,58.162,37.075,58.125,37,58.1c0-0.025,0-0.044,0-0.058s0-0.023,0-0.029s0-0.009,0-0.011
	C37,58,37,58,37,58z"/>
<path style="fill:#4AAFF8;" d="M29.6,67.4c0,0-0.025,0.456-0.124,1.116c-0.098,0.659-0.27,1.522-0.564,2.334
	s-0.709,1.575-1.295,2.034S26.275,73.5,25.3,73.1c-0.95-0.4-1.469-0.9-1.694-1.439s-0.156-1.117,0.069-1.674
	c0.225-0.556,0.606-1.09,1.006-1.542S25.5,67.625,25.8,67.4c0.25-0.175,0.631-0.412,1.058-0.633c0.427-0.22,0.899-0.423,1.33-0.529
	c0.431-0.106,0.821-0.116,1.086,0.051C29.538,66.456,29.675,66.8,29.6,67.4z"/>
<path d="M26.3,73.7c-0.1,0-0.2-0.006-0.3-0.017c-0.1-0.011-0.2-0.026-0.3-0.045c-0.1-0.019-0.2-0.04-0.3-0.064
	c-0.1-0.023-0.2-0.048-0.3-0.073c-0.325-0.125-0.612-0.269-0.862-0.428s-0.463-0.334-0.638-0.522s-0.312-0.388-0.413-0.597
	S23.025,71.526,23,71.301c-0.05-0.45,0.031-0.9,0.194-1.33s0.406-0.839,0.681-1.207c0.275-0.369,0.581-0.697,0.869-0.964
	s0.556-0.473,0.756-0.598c0.025-0.025,0.206-0.156,0.481-0.328c0.275-0.172,0.644-0.384,1.044-0.572s0.831-0.35,1.231-0.422
	c0.4-0.072,0.769-0.053,1.044,0.122c0.1,0.075,0.188,0.162,0.261,0.262c0.074,0.1,0.133,0.213,0.177,0.338s0.072,0.263,0.083,0.412
	c0.011,0.15,0.004,0.312-0.021,0.488c0,0.075-0.019,0.4-0.08,0.866c-0.061,0.466-0.164,1.072-0.333,1.709
	c-0.168,0.637-0.403,1.305-0.726,1.895c-0.323,0.59-0.736,1.103-1.261,1.428c-0.05,0.05-0.113,0.094-0.186,0.131
	c-0.073,0.038-0.158,0.069-0.251,0.094c-0.094,0.025-0.197,0.044-0.308,0.056C26.544,73.694,26.425,73.7,26.3,73.7z M28.8,66.5
	c-0.15,0-0.337,0.037-0.548,0.103c-0.211,0.066-0.445,0.159-0.689,0.272c-0.244,0.113-0.497,0.244-0.746,0.384
	C26.569,67.4,26.325,67.55,26.1,67.7c-0.2,0.15-0.444,0.356-0.695,0.602s-0.511,0.53-0.743,0.836
	c-0.231,0.306-0.434,0.634-0.573,0.967s-0.214,0.67-0.189,0.995c0.025,0.175,0.075,0.338,0.152,0.489
	c0.076,0.152,0.179,0.292,0.31,0.423c0.132,0.132,0.291,0.254,0.48,0.368c0.189,0.114,0.408,0.22,0.658,0.32
	c0.175,0.075,0.337,0.131,0.491,0.167c0.153,0.036,0.297,0.052,0.434,0.046c0.138-0.007,0.269-0.035,0.397-0.086
	C26.95,72.775,27.075,72.7,27.2,72.6c0.425-0.275,0.763-0.744,1.03-1.292c0.267-0.548,0.464-1.176,0.608-1.77
	s0.235-1.153,0.289-1.564C29.182,67.563,29.2,67.3,29.2,67.3l0,0l0,0l0,0l0,0c0-0.075,0-0.15-0.003-0.222
	c-0.003-0.072-0.009-0.141-0.022-0.203c-0.013-0.062-0.031-0.119-0.059-0.166C29.087,66.662,29.05,66.625,29,66.6
	c0,0-0.006-0.006-0.017-0.016c-0.011-0.009-0.026-0.022-0.045-0.034c-0.019-0.012-0.041-0.025-0.064-0.034
	C28.85,66.506,28.825,66.5,28.8,66.5z"/>
<path style="fill:#4AAFF8;" d="M45.1,78.8c0,0,0.1,0.406,0.186,1.009s0.158,1.403,0.101,2.191c-0.056,0.787-0.24,1.562-0.667,2.116
	C44.294,84.669,43.625,85,42.6,84.9s-1.662-0.4-2.028-0.811c-0.366-0.411-0.459-0.933-0.397-1.476
	c0.062-0.544,0.281-1.11,0.541-1.608c0.259-0.499,0.559-0.93,0.784-1.205c0.2-0.225,0.5-0.537,0.844-0.845s0.731-0.611,1.106-0.818
	c0.375-0.206,0.737-0.315,1.031-0.236S45,78.25,45.1,78.8z"/>
<path d="M43,85.3c-0.025,0-0.05,0-0.076,0c-0.026,0-0.054,0-0.085,0s-0.066,0-0.105,0s-0.083,0-0.133,0
	c-0.35-0.025-0.669-0.075-0.955-0.15c-0.286-0.075-0.539-0.175-0.758-0.3s-0.403-0.275-0.551-0.45
	c-0.148-0.175-0.261-0.375-0.336-0.6c-0.15-0.375-0.181-0.781-0.134-1.191c0.047-0.409,0.172-0.822,0.334-1.209
	s0.362-0.75,0.559-1.059c0.197-0.309,0.391-0.566,0.541-0.741c0.025-0.025,0.169-0.188,0.391-0.411
	c0.222-0.223,0.522-0.508,0.859-0.777s0.712-0.522,1.084-0.683c0.372-0.161,0.741-0.229,1.066-0.129
	c0.075,0.025,0.156,0.062,0.239,0.117c0.083,0.055,0.167,0.127,0.248,0.221c0.082,0.093,0.16,0.209,0.23,0.351
	c0.07,0.142,0.133,0.311,0.183,0.511c0.025,0.075,0.1,0.363,0.175,0.778c0.075,0.416,0.15,0.959,0.175,1.547
	c0.025,0.588,0,1.219-0.125,1.809c-0.125,0.591-0.35,1.141-0.725,1.566c-0.15,0.125-0.306,0.238-0.469,0.336
	s-0.331,0.183-0.506,0.252s-0.356,0.122-0.544,0.158S43.2,85.3,43,85.3z M44.3,78.2c-0.15,0-0.337,0.062-0.545,0.169
	c-0.208,0.106-0.436,0.256-0.667,0.431c-0.231,0.175-0.466,0.375-0.686,0.581C42.181,79.587,41.975,79.8,41.8,80
	c-0.15,0.175-0.325,0.406-0.495,0.672s-0.336,0.566-0.467,0.878c-0.132,0.312-0.229,0.638-0.261,0.953
	c-0.033,0.316-0.002,0.622,0.123,0.897c0.05,0.15,0.131,0.281,0.242,0.395s0.252,0.211,0.421,0.293
	c0.169,0.081,0.365,0.146,0.589,0.198c0.223,0.052,0.473,0.089,0.748,0.114c0.2,0.025,0.381,0.031,0.547,0.019
	c0.166-0.013,0.316-0.044,0.453-0.094s0.263-0.119,0.378-0.206c0.116-0.088,0.222-0.194,0.322-0.319c0.25-0.3,0.412-0.7,0.511-1.147
	c0.098-0.447,0.133-0.941,0.127-1.428c-0.007-0.488-0.054-0.969-0.118-1.391S44.775,79.05,44.7,78.8l0,0l0,0l0,0l0,0
	c-0.025-0.075-0.05-0.144-0.075-0.206c-0.025-0.062-0.05-0.119-0.075-0.169c-0.025-0.05-0.05-0.094-0.075-0.131
	c-0.025-0.037-0.05-0.069-0.075-0.094c0,0-0.006,0-0.016,0c-0.009,0-0.022,0-0.034,0c-0.012,0-0.025,0-0.034,0
	C44.306,78.2,44.3,78.2,44.3,78.2z"/>
</svg>
