<?xml version="1.0" encoding="iso-8859-1"?>
<!-- Generator: Adobe Illustrator 25.3.1, SVG Export Plug-In . SVG Version: 6.00 Build 0)  -->
<svg version="1.1" id="Layer_1" xmlns="http://www.w3.org/2000/svg" xmlns:xlink="http://www.w3.org/1999/xlink" x="0px" y="0px"
	 viewBox="0 0 100 100" style="enable-background:new 0 0 100 100;" xml:space="preserve">
<path style="fill:#A4251A;" d="M50,2.4c6.572,0,12.833,1.332,18.528,3.741c5.695,2.409,10.823,5.894,15.13,10.201
	s7.793,9.435,10.201,15.13C96.268,37.167,97.6,43.428,97.6,50s-1.332,12.833-3.741,18.528c-2.409,5.695-5.894,10.823-10.201,15.13
	s-9.436,7.793-15.13,10.201C62.833,96.268,56.572,97.6,50,97.6s-12.833-1.332-18.528-3.741c-5.695-2.409-10.823-5.894-15.13-10.201
	s-7.792-9.436-10.201-15.13S2.4,56.572,2.4,50s1.332-12.833,3.741-18.528s5.894-10.823,10.201-15.13s9.435-7.792,15.13-10.201
	S43.428,2.4,50,2.4z"/>
<path style="fill:#440C09;" d="M50,1.9c-6.625,0-12.944,1.35-18.695,3.789s-10.936,5.967-15.292,10.324S8.129,25.554,5.69,31.305
	S1.9,43.375,1.9,50s1.35,12.944,3.789,18.695s5.967,10.936,10.324,15.293s9.541,7.884,15.292,10.323S43.375,98.1,50,98.1
	s12.944-1.344,18.695-3.775c5.752-2.431,10.936-5.95,15.293-10.3s7.884-9.531,10.323-15.287S98.1,56.65,98.1,50
	s-1.35-12.981-3.789-18.737s-5.967-10.938-10.323-15.288s-9.54-7.869-15.292-10.3C62.944,3.244,56.625,1.9,50,1.9z M50,93
	c-5.95,0-11.612-1.2-16.759-3.372s-9.778-5.316-13.666-9.203s-7.031-8.519-9.203-13.666C8.2,61.613,7,55.95,7,50
	s1.2-11.612,3.372-16.759s5.316-9.778,9.203-13.666s8.519-7.031,13.666-9.203S44.05,7,50,7s11.613,1.206,16.759,3.386
	s9.778,5.333,13.666,9.226s7.031,8.528,9.203,13.67S93,44.075,93,50s-1.2,11.575-3.372,16.717s-5.316,9.776-9.203,13.67
	s-8.519,7.047-13.666,9.227C61.613,91.794,55.95,93,50,93z"/>
<path style="fill:#FFFFFF;" d="M57.9,37.4l2.45-1.6l2.45-1.6l2.45-1.6L67.7,31l0.85,1.25l0.85,1.25l0.85,1.25L71.1,36l2.25-3.725
	l2.25-3.725l2.25-3.725L80.1,21.1l-4.5,0.425l-4.5,0.425l-4.5,0.425L62.1,22.8l0.825,1.225l0.825,1.225l0.825,1.225L65.4,27.7
	l-3.15,2.175L59.1,32.05l-3.15,2.175L52.8,36.4c-0.375-0.05-0.756-0.094-1.141-0.131c-0.384-0.038-0.772-0.069-1.159-0.094
	s-0.775-0.044-1.159-0.056C48.956,36.106,48.575,36.1,48.2,36.1c-4.675,0-9.131,0.95-13.186,2.667
	c-4.055,1.717-7.708,4.202-10.777,7.271s-5.553,6.722-7.27,10.777S14.3,65.325,14.3,70c0,0.175,0,0.656,0,1.28s0,1.389,0,2.132
	c0,0.744,0,1.466,0,2.002c0,0.536,0,0.886,0,0.886h16.95H48.2h16.95H82.1c0,0,0-0.35,0-0.886c0-0.536,0-1.258,0-2.001
	c0-0.744,0-1.509,0-2.133s0-1.105,0-1.28c0-3.85-0.637-7.55-1.812-11s-2.887-6.65-5.037-9.5s-4.737-5.35-7.662-7.4
	C64.663,40.05,61.4,38.45,57.9,37.4z M78.3,72.8H63.225H48.15H33.075H18c0-0.15-0.006-0.363-0.016-0.608s-0.022-0.523-0.034-0.804
	c-0.013-0.281-0.025-0.565-0.034-0.824c-0.009-0.258-0.016-0.49-0.016-0.664c0-4.175,0.844-8.15,2.37-11.764
	c1.526-3.614,3.736-6.867,6.467-9.598s5.984-4.94,9.598-6.467C39.95,40.544,43.925,39.7,48.1,39.7s8.15,0.844,11.764,2.37
	c3.614,1.527,6.867,3.736,9.599,6.468s4.941,5.985,6.467,9.598c1.526,3.614,2.37,7.589,2.37,11.764
	c0.025,0.175,0.044,0.4,0.056,0.65c0.012,0.25,0.019,0.525,0.019,0.8s-0.006,0.55-0.019,0.8C78.344,72.4,78.325,72.625,78.3,72.8z"
	/>
<path d="M82.6,76.7H65.4H48.2H31H13.8V75v-1.7v-1.7v-1.7c0-4.75,0.962-9.275,2.703-13.391s4.259-7.822,7.372-10.934
	s6.819-5.631,10.934-7.372S43.45,35.5,48.2,35.5c0.375,0,0.75,0.006,1.125,0.019s0.75,0.031,1.125,0.056s0.75,0.056,1.125,0.094
	c0.375,0.037,0.75,0.081,1.125,0.131l3-2.075l3-2.075l3-2.075l3-2.075l-0.875-1.3l-0.875-1.3l-0.875-1.3L61.2,22.3l4.95-0.45
	l4.95-0.45l4.95-0.45L81,20.5l-2.475,4.1l-2.475,4.1l-2.475,4.1L71.1,36.9l-0.9-1.325l-0.9-1.325l-0.9-1.325L67.5,31.6l-2.125,1.425
	L63.25,34.45l-2.125,1.425L59,37.3c3.475,1.15,6.688,2.844,9.551,4.969s5.38,4.681,7.461,7.556c2.082,2.875,3.729,6.069,4.855,9.469
	C81.994,62.694,82.6,66.3,82.6,70v1.675v1.675v1.675V76.7z M14.8,75.7h16.7h16.7h16.7h16.7v-1.45V72.8v-1.45V69.9
	c0-3.675-0.613-7.25-1.751-10.611c-1.139-3.361-2.805-6.508-4.911-9.327s-4.653-5.309-7.555-7.358
	c-2.902-2.048-6.158-3.654-9.683-4.704l-0.25-0.075L57.2,37.75l-0.25-0.075L56.7,37.6l2.775-1.825l2.775-1.825l2.775-1.825
	L67.8,30.3l0.825,1.2l0.825,1.2l0.825,1.2l0.825,1.2l2.025-3.35l2.025-3.35l2.025-3.35L79.2,21.7l-4.05,0.375L71.1,22.45
	l-4.05,0.375L63,23.2l0.775,1.15l0.775,1.15l0.775,1.15L66.1,27.8l-3.275,2.25L59.55,32.3l-3.275,2.25L53,36.8h-0.05H52.9h-0.05
	H52.8c-0.375-0.05-0.756-0.094-1.141-0.131c-0.384-0.038-0.772-0.069-1.159-0.094s-0.775-0.044-1.159-0.056
	C48.956,36.506,48.575,36.5,48.2,36.5c-4.6,0-8.987,0.938-12.981,2.631c-3.994,1.694-7.594,4.144-10.619,7.169
	s-5.475,6.625-7.169,10.619S14.8,65.3,14.8,69.9c0,0,0,0.362,0,0.906c0,0.544,0,1.269,0,1.994s0,1.45,0,1.994
	C14.8,75.338,14.8,75.7,14.8,75.7z M78.8,73.3H63.475H48.15H32.825H17.5v-0.125V73.05v-0.125V72.8c0-0.175-0.006-0.406-0.016-0.664
	s-0.022-0.542-0.034-0.824c-0.013-0.281-0.025-0.559-0.034-0.804C17.406,70.262,17.4,70.05,17.4,69.9
	c0-4.25,0.863-8.294,2.42-11.969s3.811-6.981,6.593-9.756s6.091-5.019,9.761-6.569c3.67-1.55,7.701-2.406,11.926-2.406
	s8.262,0.862,11.942,2.42s7.002,3.811,9.796,6.593s5.06,6.091,6.627,9.761c1.567,3.67,2.436,7.701,2.436,11.926
	c0,0.15,0,0.363-0.002,0.608c-0.001,0.245-0.005,0.523-0.01,0.804c-0.007,0.282-0.016,0.566-0.03,0.824
	c-0.014,0.258-0.033,0.489-0.058,0.664v0.125v0.125v0.125V73.3z M18.5,72.3h14.85H48.2h14.85H77.9c0-0.175,0-0.375,0-0.586
	s0-0.433,0-0.652s0-0.435,0-0.633c0-0.198,0-0.379,0-0.529c0-4.1-0.831-8.006-2.334-11.559c-1.503-3.553-3.678-6.753-6.366-9.441
	s-5.888-4.862-9.441-6.366C56.206,41.031,52.3,40.2,48.2,40.2s-8.013,0.831-11.575,2.334c-3.562,1.503-6.775,3.678-9.475,6.366
	s-4.887,5.888-6.4,9.441C19.238,61.894,18.4,65.8,18.4,69.9c0,0.15,0,0.331,0.002,0.53c0.002,0.198,0.005,0.414,0.011,0.632
	c0.006,0.219,0.015,0.441,0.029,0.652C18.456,71.925,18.475,72.125,18.5,72.3z"/>
<path style="fill:#FFFFFF;" d="M49.2,43.1l-4.3,7.125l-4.3,7.125l-4.3,7.125L32,71.6h8.625h8.625h8.625H66.5l-4.325-7.125
	L57.85,57.35l-4.325-7.125L49.2,43.1z M49.2,47.6l3.2,5.35l3.2,5.35l3.2,5.35L62,69h-6.325H49.35h-6.325H36.7l3.125-5.35l3.125-5.35
	l3.125-5.35L49.2,47.6z"/>
<path d="M67.3,72.1h-9.05H49.2h-9.05H31.1l4.55-7.5l4.55-7.5l4.55-7.5l4.55-7.5l4.5,7.5l4.5,7.5l4.5,7.5L67.3,72.1z M32.9,71.1
	h8.175h8.175h8.175H65.6l-4.1-6.775l-4.1-6.775l-4.1-6.775L49.2,44l-4.075,6.775L41.05,57.55l-4.075,6.775L32.9,71.1z M62.9,69.5
	h-6.775H49.35h-6.775H35.8l3.35-5.725l3.35-5.725l3.35-5.725L49.2,46.6l3.425,5.725l3.425,5.725l3.425,5.725L62.9,69.5z M37.6,68.5
	h5.9h5.9h5.9h5.9l-3-4.975l-3-4.975l-3-4.975l-3-4.975l-2.9,4.975l-2.9,4.975l-2.9,4.975L37.6,68.5z"/>
</svg>
