<?xml version="1.0" encoding="iso-8859-1"?>
<!-- Generator: Adobe Illustrator 25.3.1, SVG Export Plug-In . SVG Version: 6.00 Build 0)  -->
<svg version="1.1" id="Layer_1" xmlns="http://www.w3.org/2000/svg" xmlns:xlink="http://www.w3.org/1999/xlink" x="0px" y="0px"
	 viewBox="0 0 100 100" style="enable-background:new 0 0 100 100;" xml:space="preserve">
<path style="fill:#A4251A;" d="M50,2.4c6.572,0,12.833,1.332,18.528,3.741c5.695,2.409,10.823,5.894,15.13,10.201
	s7.793,9.435,10.201,15.13C96.268,37.167,97.6,43.428,97.6,50s-1.332,12.833-3.741,18.528c-2.409,5.695-5.894,10.823-10.201,15.13
	s-9.436,7.793-15.13,10.201C62.833,96.268,56.572,97.6,50,97.6s-12.833-1.332-18.528-3.741c-5.695-2.409-10.823-5.894-15.13-10.201
	s-7.792-9.436-10.201-15.13S2.4,56.572,2.4,50s1.332-12.833,3.741-18.528s5.894-10.823,10.201-15.13s9.435-7.792,15.13-10.201
	S43.428,2.4,50,2.4z"/>
<path style="fill:#440C09;" d="M50,1.9c-6.625,0-12.944,1.35-18.695,3.789s-10.936,5.967-15.292,10.324S8.129,25.554,5.69,31.305
	S1.9,43.375,1.9,50s1.35,12.944,3.789,18.695s5.967,10.936,10.324,15.293s9.541,7.884,15.292,10.323S43.375,98.1,50,98.1
	s12.944-1.344,18.695-3.775c5.752-2.431,10.936-5.95,15.293-10.3s7.884-9.531,10.323-15.287S98.1,56.65,98.1,50
	s-1.35-12.981-3.789-18.737s-5.967-10.938-10.323-15.288s-9.54-7.869-15.292-10.3C62.944,3.244,56.625,1.9,50,1.9z M50,93
	c-5.95,0-11.612-1.2-16.759-3.372s-9.778-5.316-13.666-9.203s-7.031-8.519-9.203-13.666C8.2,61.613,7,55.95,7,50
	s1.2-11.612,3.372-16.759s5.316-9.778,9.203-13.666s8.519-7.031,13.666-9.203S44.05,7,50,7s11.613,1.206,16.759,3.386
	s9.778,5.333,13.666,9.226s7.031,8.528,9.203,13.67S93,44.075,93,50s-1.2,11.575-3.372,16.717s-5.316,9.776-9.203,13.67
	s-8.519,7.047-13.666,9.227C61.613,91.794,55.95,93,50,93z"/>
<path style="fill:#FFFFFF;" d="M64.1,15.7c1.075,0,2.1,0.219,3.033,0.614c0.933,0.395,1.774,0.967,2.48,1.673
	c0.706,0.707,1.278,1.547,1.673,2.48C71.681,21.4,71.9,22.425,71.9,23.5s-0.219,2.1-0.614,3.033
	c-0.395,0.933-0.967,1.773-1.673,2.479c-0.707,0.706-1.547,1.278-2.48,1.674S65.175,31.3,64.1,31.3c-1.075,0-2.1-0.219-3.033-0.614
	c-0.933-0.395-1.774-0.967-2.48-1.674c-0.706-0.706-1.278-1.546-1.673-2.479C56.519,25.6,56.3,24.575,56.3,23.5
	c0.025-1.075,0.256-2.1,0.656-3.033c0.4-0.933,0.969-1.774,1.669-2.48c0.7-0.706,1.531-1.278,2.456-1.673
	C62.006,15.919,63.025,15.7,64.1,15.7 M64.1,14.7c-1.2,0-2.35,0.244-3.4,0.686c-1.05,0.442-2,1.083-2.8,1.877
	c-0.8,0.793-1.45,1.74-1.9,2.795c-0.45,1.055-0.7,2.217-0.7,3.442s0.244,2.387,0.686,3.442c0.442,1.055,1.083,2.001,1.876,2.795
	c0.794,0.794,1.741,1.435,2.796,1.877c1.055,0.442,2.217,0.686,3.442,0.686s2.387-0.244,3.442-0.686
	c1.055-0.442,2.002-1.083,2.796-1.876s1.435-1.74,1.877-2.795S72.9,24.725,72.9,23.5s-0.244-2.388-0.686-3.442
	s-1.083-2.001-1.876-2.795s-1.741-1.434-2.795-1.877C66.488,14.944,65.325,14.7,64.1,14.7L64.1,14.7L64.1,14.7L64.1,14.7L64.1,14.7z
	"/>
<path style="fill:#FFFFFF;" d="M48.7,44h-4.025H40.65h-4.025H32.6v2.9v2.9v2.9v2.9h3.7H40h3.7h3.7v2.15v2.15v2.15v2.15h-3.7H40h-3.7
	h-3.7v4.575v4.575v4.575V82.5h-2.575H27.45h-2.575H22.3V70.7V58.9V47.1V35.3h6.6h6.6h6.6h6.6c0,0,0,0.544,0,1.359s0,1.903,0,2.991
	c0,1.088,0,2.175,0,2.991S48.7,44,48.7,44z"/>
<path d="M33.1,83h-2.825H27.45h-2.825H21.8V70.95V58.9V46.85V34.8h6.85h6.85h6.85h6.85v2.425v2.425v2.425V44.5h-4.025H41.15h-4.025
	H33.1v2.625v2.625v2.625V55h3.7h3.7h3.7h3.7v2.4v2.4v2.4v2.4h-3.7h-3.7h-3.7h-3.7v4.6v4.6v4.6V83z M22.8,82h2.325h2.325h2.325H32.1
	v-4.575V72.85v-4.575V63.7h3.7h3.7h3.7h3.7v-1.925V59.85v-1.925V56h-3.7h-3.7h-3.7h-3.7v-3.125V49.75v-3.125V43.5h4.025h4.025h4.025
	H48.2v-1.925V39.65v-1.925V35.8h-6.35H35.5h-6.35H22.8v11.55V58.9v11.55V82z"/>
<path style="fill:#FFFFFF;" d="M66.5,66.2v4.075v4.075v4.075V82.5h-2.575H61.35h-2.575H56.2V70.7V58.9V47.1V35.3h4.025h4.025h4.025
	H72.3c2.875,0,5.387,0.312,7.539,0.938s3.942,1.562,5.373,2.812s2.503,2.812,3.217,4.688S89.5,47.8,89.5,50.3
	c0,1.175-0.1,2.3-0.302,3.372c-0.202,1.072-0.505,2.091-0.911,3.053c-0.406,0.963-0.915,1.869-1.529,2.716S85.425,61.075,84.6,61.8
	s-1.719,1.362-2.681,1.911c-0.962,0.548-1.994,1.008-3.094,1.376c-1.1,0.369-2.269,0.647-3.506,0.833
	c-1.238,0.186-2.544,0.28-3.919,0.28h-1.225H68.95h-1.225H66.5z M66.5,43.5v3.675v3.675v3.675V58.2h1h1h1h1
	c1.375,0,2.575-0.156,3.602-0.467s1.88-0.776,2.561-1.395c0.682-0.619,1.191-1.391,1.53-2.314S78.7,52.025,78.7,50.8
	c0-1.2-0.169-2.256-0.508-3.166s-0.848-1.672-1.529-2.284c-0.681-0.612-1.535-1.075-2.561-1.384S71.875,43.5,70.5,43.5h-1h-1h-1
	H66.5z"/>
<path d="M67,83h-2.825H61.35h-2.825H55.7V70.95V58.9V46.85V34.8h4.15H64h4.15h4.15c2.95,0,5.531,0.325,7.744,0.973
	s4.056,1.62,5.531,2.915c1.475,1.293,2.581,2.909,3.319,4.845C89.631,45.469,90,47.725,90,50.3c0,1.225-0.106,2.394-0.319,3.505
	s-0.531,2.164-0.956,3.157s-0.956,1.928-1.594,2.802C86.494,60.637,85.75,61.45,84.9,62.2s-1.769,1.406-2.758,1.969
	c-0.989,0.562-2.049,1.031-3.18,1.406c-1.131,0.375-2.334,0.656-3.61,0.844C74.075,66.606,72.725,66.7,71.3,66.7h-1.075H69.15
	h-1.075H67v4.075v4.075v4.075V83z M56.7,82h2.325h2.325h2.325H66v-4.075V73.85v-4.075V65.7h1.35h1.35h1.35h1.35
	c1.35,0,2.631-0.088,3.844-0.264s2.356-0.442,3.431-0.798c1.075-0.356,2.081-0.803,3.019-1.342s1.806-1.17,2.606-1.895
	c0.8-0.7,1.5-1.463,2.1-2.283c0.6-0.82,1.1-1.698,1.5-2.629c0.4-0.931,0.7-1.916,0.9-2.948c0.2-1.033,0.3-2.115,0.3-3.24
	c0-2.45-0.344-4.581-1.034-6.4c-0.691-1.819-1.728-3.325-3.116-4.525c-1.387-1.201-3.125-2.095-5.216-2.688S75.2,35.8,72.4,35.8
	h-3.925H64.55h-3.925H56.7v11.55V58.9v11.55V82z M70.6,58.7h-1.15H68.3h-1.15H66v-3.925V50.85v-3.925V43h1.125h1.125h1.125H70.5
	c1.45,0,2.719,0.162,3.806,0.487S76.3,44.3,77.025,44.95s1.269,1.462,1.631,2.438C79.019,48.362,79.2,49.5,79.2,50.8
	c0.025,1.3-0.144,2.444-0.5,3.428c-0.356,0.984-0.9,1.809-1.625,2.472s-1.631,1.163-2.713,1.497
	C73.281,58.531,72.025,58.7,70.6,58.7z M67,57.7h0.875h0.875h0.875H70.5c1.3,0,2.431-0.144,3.397-0.431
	c0.966-0.287,1.766-0.719,2.403-1.294s1.113-1.294,1.428-2.156C78.044,52.956,78.2,51.95,78.2,50.8s-0.156-2.15-0.472-3.003
	c-0.316-0.853-0.791-1.559-1.428-2.122s-1.438-0.981-2.403-1.259C72.931,44.138,71.8,44,70.5,44h-0.875H68.75h-0.875H67v3.425v3.425
	v3.425V57.7z"/>
<polygon style="fill:#FFFFFF;" points="29.6,31.3 29.6,29.95 29.6,28.6 29.6,27.25 29.6,25.9 32.05,25.9 34.5,25.9 36.95,25.9 
	39.4,25.9 39.4,24.45 39.4,23 39.4,21.55 39.4,20.1 36.95,20.1 34.5,20.1 32.05,20.1 29.6,20.1 29.6,18.775 29.6,17.45 29.6,16.125 
	29.6,14.8 34.25,14.8 38.9,14.8 43.55,14.8 48.2,14.8 48.2,16.2 48.2,17.6 48.2,19 48.2,20.4 50,20.4 51.8,20.4 53.6,20.4 
	55.4,20.4 55.4,21.725 55.4,23.05 55.4,24.375 55.4,25.7 53.6,25.7 51.8,25.7 50,25.7 48.2,25.7 48.2,27.1 48.2,28.5 48.2,29.9 
	48.2,31.3 43.55,31.3 38.9,31.3 34.25,31.3 "/>
<path d="M47.7,15.3v1.4v1.4v1.4v1.4h1.8h1.8h1.8h1.8v1.075v1.075v1.075V25.2h-1.8h-1.8h-1.8h-1.8v1.4V28v1.4v1.4h-0.125H47.45
	h-0.125H47.2h-1.8h-1.8h-1.8H40h-2.45H35.1h-2.45H30.2v-1.075V28.65v-1.075V26.5h2.45h2.45h2.45H40v-1.7v-1.7v-1.7v-1.7h-2.45H35.1
	h-2.45H30.2v-1.075V17.55v-1.075V15.4h2.45h2.45h2.45H40h1.8h1.8h1.8h1.8h0.125h0.125h0.125H47.7 M48.7,14.3h-0.25H48.2h-0.25H47.7
	h-0.125H47.45h-0.125H47.2h-1.8h-1.8h-1.8H40h-2.45H35.1h-2.45H30.2h-0.25H29.7h-0.25H29.2v0.25v0.25v0.25v0.25v1.075v1.075v1.075
	V19.6v0.25v0.25v0.25v0.25h0.25h0.25h0.25h0.25h2.2h2.2h2.2H39v1.2V23v1.2v1.2h-2.2h-2.2h-2.2h-2.2h-0.25H29.7h-0.25H29.2v0.25v0.25
	v0.25v0.25v1.075v1.075v1.075V30.7v0.25v0.25v0.25v0.25h0.25h0.25h0.25h0.25h2.45h2.45h2.45H40h1.8h1.8h1.8h1.8h0.125h0.125h0.125
	H47.7h0.25h0.25h0.25h0.25v-0.25V31.2v-0.25V30.7v-1.15V28.4v-1.15V26.1h1.55h1.55h1.55h1.55h0.25h0.25h0.25h0.25v-0.25V25.6v-0.25
	V25.1v-1.075V22.95v-1.075V20.8v-0.25V20.3v-0.25V19.8h-0.25H55.4h-0.25H54.9h-1.55H51.8h-1.55H48.7v-1.15V17.5v-1.15V15.2v-0.225
	V14.75v-0.225L48.7,14.3L48.7,14.3L48.7,14.3L48.7,14.3L48.7,14.3z"/>
</svg>
