<?xml version="1.0" encoding="iso-8859-1"?>
<!-- Generator: Adobe Illustrator 25.3.1, SVG Export Plug-In . SVG Version: 6.00 Build 0)  -->
<svg version="1.1" id="Layer_1" xmlns="http://www.w3.org/2000/svg" xmlns:xlink="http://www.w3.org/1999/xlink" x="0px" y="0px"
	 viewBox="0 0 100 100" style="enable-background:new 0 0 100 100;" xml:space="preserve">
<path style="fill:#A4251A;" d="M50,2.4c6.572,0,12.833,1.332,18.528,3.741c5.695,2.409,10.823,5.894,15.13,10.201
	s7.793,9.435,10.201,15.13C96.268,37.167,97.6,43.428,97.6,50s-1.332,12.833-3.741,18.528c-2.409,5.695-5.894,10.823-10.201,15.13
	s-9.436,7.793-15.13,10.201C62.833,96.268,56.572,97.6,50,97.6s-12.833-1.332-18.528-3.741c-5.695-2.409-10.823-5.894-15.13-10.201
	s-7.792-9.436-10.201-15.13S2.4,56.572,2.4,50s1.332-12.833,3.741-18.528s5.894-10.823,10.201-15.13s9.435-7.792,15.13-10.201
	S43.428,2.4,50,2.4z"/>
<path style="fill:#440C09;" d="M50,1.9c-6.625,0-12.944,1.35-18.695,3.789s-10.936,5.967-15.292,10.324S8.129,25.554,5.69,31.305
	S1.9,43.375,1.9,50s1.35,12.944,3.789,18.695s5.967,10.936,10.324,15.293s9.541,7.884,15.292,10.323S43.375,98.1,50,98.1
	s12.944-1.344,18.695-3.775c5.752-2.431,10.936-5.95,15.293-10.3s7.884-9.531,10.323-15.287S98.1,56.65,98.1,50
	s-1.35-12.981-3.789-18.737s-5.967-10.938-10.323-15.288s-9.54-7.869-15.292-10.3C62.944,3.244,56.625,1.9,50,1.9z M50,93
	c-5.95,0-11.612-1.2-16.759-3.372s-9.778-5.316-13.666-9.203s-7.031-8.519-9.203-13.666C8.2,61.613,7,55.95,7,50
	s1.2-11.612,3.372-16.759s5.316-9.778,9.203-13.666s8.519-7.031,13.666-9.203S44.05,7,50,7s11.613,1.206,16.759,3.386
	s9.778,5.333,13.666,9.226s7.031,8.528,9.203,13.67S93,44.075,93,50s-1.2,11.575-3.372,16.717s-5.316,9.776-9.203,13.67
	s-8.519,7.047-13.666,9.227C61.613,91.794,55.95,93,50,93z"/>
<path style="fill:#FFFFFF;" d="M11,67v-2v-2v-2v-2c0.3,0.3,0.613,0.581,0.934,0.844c0.322,0.263,0.653,0.506,0.991,0.731
	s0.681,0.431,1.028,0.619C14.3,61.381,14.65,61.55,15,61.7s0.706,0.281,1.067,0.394c0.361,0.113,0.727,0.206,1.096,0.281
	c0.368,0.075,0.74,0.131,1.114,0.169C18.65,62.581,19.025,62.6,19.4,62.6c0.225,0,0.438-0.006,0.641-0.019s0.397-0.031,0.584-0.056
	s0.369-0.056,0.547-0.094c0.178-0.038,0.353-0.081,0.528-0.131c0.15-0.05,0.3-0.1,0.447-0.153c0.147-0.053,0.291-0.109,0.428-0.172
	s0.269-0.131,0.391-0.209C23.087,61.688,23.2,61.6,23.3,61.5s0.2-0.194,0.297-0.286c0.097-0.092,0.191-0.183,0.278-0.276
	c0.087-0.094,0.169-0.191,0.241-0.296S24.25,60.425,24.3,60.3c0.05-0.1,0.094-0.206,0.131-0.317s0.069-0.227,0.094-0.346
	c0.025-0.118,0.044-0.24,0.056-0.364C24.594,59.15,24.6,59.025,24.6,58.9c0-0.175-0.012-0.344-0.036-0.508
	c-0.024-0.164-0.058-0.323-0.102-0.479c-0.044-0.157-0.097-0.31-0.157-0.461C24.244,57.3,24.175,57.15,24.1,57
	s-0.163-0.294-0.261-0.431c-0.098-0.137-0.208-0.269-0.326-0.394c-0.119-0.125-0.247-0.244-0.383-0.356
	c-0.136-0.112-0.28-0.219-0.43-0.319c-0.15-0.125-0.306-0.244-0.469-0.359S21.9,54.912,21.725,54.8s-0.356-0.225-0.544-0.341
	C20.994,54.344,20.8,54.225,20.6,54.1c-0.2-0.1-0.406-0.206-0.617-0.316s-0.427-0.222-0.646-0.334s-0.441-0.225-0.664-0.334
	S18.225,52.9,18,52.8c-0.6-0.3-1.156-0.612-1.672-0.939s-0.991-0.667-1.428-1.023c-0.438-0.356-0.837-0.729-1.203-1.118
	S13,48.925,12.7,48.5s-0.562-0.869-0.787-1.333c-0.225-0.464-0.413-0.948-0.563-1.454c-0.15-0.507-0.262-1.035-0.337-1.586
	S10.9,43,10.9,42.4c0-0.475,0.019-0.931,0.058-1.369c0.039-0.438,0.099-0.856,0.18-1.256c0.081-0.4,0.184-0.781,0.311-1.144
	c0.126-0.362,0.276-0.706,0.451-1.031c0.15-0.325,0.319-0.644,0.505-0.951s0.389-0.605,0.608-0.886s0.453-0.547,0.701-0.792
	c0.248-0.245,0.511-0.471,0.786-0.671c0.275-0.225,0.562-0.431,0.861-0.62s0.608-0.361,0.927-0.518
	c0.318-0.156,0.646-0.297,0.982-0.423c0.336-0.126,0.68-0.239,1.03-0.339s0.712-0.188,1.084-0.262
	c0.372-0.075,0.753-0.138,1.141-0.188s0.781-0.088,1.178-0.113S22.5,31.8,22.9,31.8s0.788,0.006,1.163,0.019
	c0.375,0.013,0.737,0.031,1.087,0.056c0.35,0.025,0.688,0.056,1.013,0.094C26.487,32.006,26.8,32.05,27.1,32.1
	s0.6,0.112,0.897,0.184c0.297,0.072,0.591,0.153,0.878,0.241c0.288,0.088,0.569,0.181,0.841,0.278C29.987,32.9,30.25,33,30.5,33.1
	v1.875v1.875v1.875V40.6c-0.125-0.1-0.256-0.2-0.392-0.299c-0.136-0.099-0.276-0.196-0.42-0.29c-0.144-0.093-0.291-0.184-0.439-0.27
	C29.1,39.656,28.95,39.575,28.8,39.5s-0.3-0.15-0.452-0.223c-0.152-0.074-0.305-0.146-0.461-0.215s-0.316-0.135-0.48-0.195
	c-0.164-0.061-0.332-0.117-0.507-0.167c-0.15-0.05-0.306-0.1-0.466-0.148c-0.159-0.049-0.322-0.096-0.484-0.139
	c-0.163-0.044-0.325-0.084-0.484-0.12C25.306,38.256,25.15,38.225,25,38.2s-0.3-0.05-0.45-0.073c-0.15-0.024-0.3-0.046-0.45-0.065
	c-0.15-0.018-0.3-0.034-0.45-0.045S23.35,38,23.2,38c-0.2,0-0.394,0.006-0.581,0.019s-0.369,0.031-0.544,0.056
	s-0.344,0.056-0.506,0.094C21.406,38.206,21.25,38.25,21.1,38.3s-0.3,0.1-0.447,0.152c-0.147,0.051-0.291,0.104-0.428,0.16
	c-0.137,0.056-0.269,0.116-0.391,0.18C19.713,38.856,19.6,38.925,19.5,39s-0.2,0.156-0.297,0.242
	c-0.097,0.086-0.191,0.177-0.278,0.271c-0.087,0.093-0.169,0.19-0.241,0.289C18.612,39.9,18.55,40,18.5,40.1s-0.1,0.206-0.147,0.319
	s-0.091,0.231-0.128,0.356c-0.038,0.125-0.069,0.256-0.091,0.394S18.1,41.45,18.1,41.6s0.006,0.294,0.02,0.433
	s0.036,0.273,0.067,0.404c0.031,0.132,0.072,0.26,0.124,0.386s0.114,0.252,0.189,0.377s0.15,0.244,0.228,0.359
	c0.078,0.116,0.159,0.228,0.247,0.341c0.087,0.112,0.181,0.225,0.284,0.341c0.103,0.116,0.216,0.234,0.341,0.359
	c0.125,0.1,0.256,0.2,0.394,0.302c0.138,0.101,0.281,0.204,0.431,0.31c0.15,0.107,0.306,0.216,0.469,0.33s0.331,0.233,0.506,0.358
	c0.175,0.1,0.356,0.2,0.544,0.302c0.188,0.101,0.381,0.204,0.581,0.31c0.2,0.106,0.406,0.216,0.619,0.33
	c0.212,0.114,0.431,0.233,0.656,0.358c0.3,0.15,0.594,0.3,0.881,0.451c0.287,0.152,0.569,0.305,0.844,0.46
	c0.275,0.157,0.544,0.316,0.806,0.48c0.263,0.164,0.519,0.333,0.769,0.508s0.487,0.35,0.714,0.528
	c0.226,0.178,0.442,0.359,0.648,0.547s0.403,0.381,0.592,0.584s0.371,0.416,0.546,0.641s0.337,0.45,0.489,0.678
	c0.152,0.228,0.292,0.459,0.424,0.697s0.253,0.481,0.367,0.734c0.114,0.253,0.22,0.516,0.32,0.791s0.188,0.562,0.263,0.861
	c0.075,0.298,0.138,0.608,0.188,0.926c0.05,0.319,0.087,0.647,0.112,0.983c0.025,0.336,0.038,0.68,0.038,1.03
	c0,0.5-0.019,0.981-0.058,1.442c-0.039,0.461-0.098,0.902-0.179,1.321s-0.184,0.816-0.311,1.189
	c-0.127,0.373-0.277,0.723-0.452,1.048c-0.15,0.35-0.319,0.681-0.505,0.994s-0.389,0.606-0.608,0.881
	c-0.219,0.275-0.453,0.531-0.701,0.769C28.737,65.981,28.475,66.2,28.2,66.4s-0.562,0.388-0.862,0.562
	c-0.3,0.175-0.612,0.338-0.938,0.488s-0.663,0.287-1.013,0.412c-0.35,0.125-0.712,0.238-1.087,0.338s-0.75,0.188-1.127,0.262
	c-0.377,0.075-0.755,0.138-1.136,0.188c-0.381,0.05-0.765,0.088-1.155,0.113C20.493,68.788,20.1,68.8,19.7,68.8
	c-0.425,0-0.844-0.012-1.256-0.036s-0.819-0.058-1.219-0.101c-0.4-0.044-0.794-0.097-1.181-0.158
	c-0.387-0.061-0.769-0.13-1.144-0.205c-0.375-0.025-0.738-0.075-1.087-0.147c-0.35-0.072-0.688-0.166-1.012-0.278
	c-0.325-0.113-0.638-0.244-0.938-0.391S11.275,67.175,11,67z"/>
<path style="fill:#FFFFFF;" d="M58.5,67.1c-0.55,0.325-1.144,0.606-1.781,0.845c-0.638,0.239-1.319,0.436-2.044,0.593
	s-1.494,0.272-2.306,0.348C51.556,68.963,50.7,69,49.8,69c-1.175,0-2.281-0.1-3.322-0.302c-1.041-0.202-2.016-0.505-2.928-0.911
	s-1.763-0.916-2.553-1.53c-0.791-0.614-1.522-1.333-2.197-2.158c-0.675-0.8-1.263-1.675-1.764-2.622
	c-0.502-0.947-0.917-1.966-1.249-3.053s-0.578-2.243-0.742-3.465C34.881,53.737,34.8,52.45,34.8,51.1
	c0-1.425,0.094-2.787,0.281-4.086s0.469-2.533,0.844-3.702c0.375-1.168,0.844-2.271,1.406-3.307S38.55,38,39.3,37.1
	s1.556-1.688,2.419-2.363c0.862-0.675,1.781-1.237,2.756-1.687s2.006-0.788,3.094-1.013C48.656,31.812,49.8,31.7,51,31.7
	c0.75,0,1.469,0.025,2.156,0.076s1.344,0.129,1.969,0.235c0.625,0.107,1.219,0.241,1.781,0.405C57.469,32.581,58,32.775,58.5,33v2v2
	v2v2c-0.5-0.35-1.025-0.662-1.572-0.934c-0.547-0.272-1.116-0.503-1.703-0.691s-1.194-0.331-1.816-0.428
	C52.787,38.85,52.15,38.8,51.5,38.8c-0.725,0-1.412,0.069-2.062,0.205c-0.65,0.136-1.263,0.339-1.838,0.607
	s-1.113,0.603-1.613,1.001c-0.5,0.398-0.962,0.861-1.387,1.387c-0.45,0.525-0.838,1.1-1.166,1.723s-0.597,1.295-0.809,2.014
	s-0.369,1.484-0.472,2.295C42.05,48.843,42,49.7,42,50.6c0,0.875,0.05,1.7,0.152,2.478c0.101,0.778,0.254,1.509,0.46,2.197
	c0.207,0.688,0.466,1.331,0.78,1.934c0.314,0.603,0.683,1.166,1.108,1.691s0.881,0.981,1.37,1.37
	c0.489,0.389,1.011,0.711,1.568,0.967c0.556,0.257,1.146,0.447,1.773,0.574C49.838,61.938,50.5,62,51.2,62
	c0.675,0,1.331-0.05,1.97-0.148c0.639-0.098,1.261-0.245,1.867-0.439c0.606-0.194,1.197-0.435,1.774-0.721
	c0.577-0.286,1.139-0.617,1.689-0.992v1.85v1.85v1.85V67.1z"/>
<path style="fill:#FFFFFF;" d="M89.2,32.5l-2.625,8.975L83.95,50.45l-2.625,8.975L78.7,68.4h-1.95H74.8h-1.95H70.9l-2.575-8.975
	L65.75,50.45l-2.575-8.975L60.6,32.5h1.85h1.85h1.85H68l1.575,6.25L71.15,45l1.575,6.25L74.3,57.5
	c0.075,0.35,0.144,0.681,0.206,0.998s0.119,0.62,0.169,0.914c0.05,0.294,0.094,0.579,0.131,0.858c0.037,0.28,0.069,0.555,0.094,0.83
	h0.025h0.025h0.025H75c0.025-0.275,0.056-0.556,0.095-0.845c0.039-0.289,0.086-0.586,0.143-0.892
	c0.056-0.306,0.121-0.622,0.198-0.949C75.512,58.088,75.6,57.75,75.7,57.4l1.575-6.225l1.575-6.225l1.575-6.225L82,32.5h1.8h1.8h1.8
	H89.2z"/>
<polygon style="fill:#FFFFFF;" points="50.7,75.8 51.45,75.8 52.2,75.8 52.95,75.8 53.7,75.8 53.7,78.125 53.7,80.45 53.7,82.775 
	53.7,85.1 52.95,85.1 52.2,85.1 51.45,85.1 50.7,85.1 50.7,82.775 50.7,80.45 50.7,78.125 "/>
<path style="fill:#FFFFFF;" d="M61,78.5c-0.05-0.15-0.119-0.444-0.27-0.827c-0.152-0.383-0.386-0.855-0.767-1.361
	c-0.382-0.506-0.91-1.046-1.649-1.567s-1.689-1.02-2.914-1.445v-0.225V72.85v-0.225V72.4h0.8H57h0.8h0.8v-0.45V71.5v-0.45V70.6h-3.2
	h-3.2H49h-3.2v0.45v0.45v0.45v0.45h0.775h0.775h0.775H48.9v0.225v0.225v0.225V73.3c-1.175,0.425-2.088,0.919-2.799,1.43
	s-1.221,1.039-1.59,1.533c-0.368,0.494-0.596,0.953-0.745,1.326C43.619,77.963,43.55,78.25,43.5,78.4
	c-0.05,0.175-0.106,0.356-0.162,0.553s-0.113,0.409-0.163,0.647s-0.094,0.5-0.125,0.797S43,81.025,43,81.4
	c0,0.35,0.031,0.706,0.078,1.044s0.109,0.656,0.172,0.931c0.062,0.275,0.125,0.506,0.172,0.669S43.5,84.3,43.5,84.3
	c0.2,0.675,0.519,1.294,0.914,1.858s0.867,1.073,1.373,1.529c0.507,0.456,1.047,0.86,1.58,1.211S48.425,89.55,48.9,89.8v0.525v0.525
	v0.525V91.9h1.625h1.625h1.625H55.4v-0.5v-0.5v-0.5v-0.5c0.475-0.225,1.013-0.512,1.564-0.861c0.552-0.349,1.117-0.758,1.649-1.227
	c0.531-0.469,1.028-0.997,1.442-1.582C60.469,85.644,60.8,85,61,84.3c0,0,0.031-0.094,0.078-0.256s0.109-0.394,0.172-0.669
	s0.125-0.594,0.172-0.931S61.5,81.75,61.5,81.4s-0.019-0.662-0.05-0.945s-0.075-0.536-0.125-0.768
	c-0.05-0.231-0.106-0.44-0.163-0.636S61.05,78.675,61,78.5z M53.2,87.2h-0.05H53.1h-0.05H53h-0.375H52.25h-0.375H51.5h-0.05H51.4
	h-0.05H51.3c-0.875-0.625-1.581-1.188-2.148-1.722c-0.567-0.534-0.995-1.041-1.314-1.553c-0.319-0.512-0.529-1.031-0.658-1.591
	C47.05,81.775,47,81.175,47,80.5c0-0.875,0.237-1.688,0.594-2.414s0.831-1.367,1.306-1.898s0.95-0.953,1.306-1.242
	C50.563,74.657,50.8,74.5,50.8,74.5h0.35h0.35h0.35h0.35h0.35h0.35h0.35h0.35c0,0,0.237,0.175,0.594,0.494s0.831,0.781,1.306,1.356
	s0.95,1.263,1.306,2.031C57.163,79.15,57.4,80,57.4,80.9c0.025,0.275-0.006,0.65-0.122,1.097c-0.116,0.447-0.316,0.966-0.628,1.528
	c-0.313,0.562-0.738,1.169-1.303,1.791C54.781,85.938,54.075,86.575,53.2,87.2z"/>
<path style="fill:#FFFFFF;" d="M38.8,13.3c0,0,0.112-0.1,0.328-0.248s0.534-0.345,0.947-0.54c0.413-0.193,0.919-0.384,1.509-0.52
	c0.591-0.136,1.266-0.217,2.016-0.192s1.419,0.088,2.003,0.178c0.584,0.091,1.084,0.209,1.497,0.347s0.737,0.294,0.972,0.459
	c0.234,0.166,0.378,0.341,0.428,0.516c0.05,0.2,0.15,0.475,0.283,0.777s0.299,0.63,0.48,0.936c0.181,0.306,0.378,0.59,0.573,0.805
	s0.389,0.358,0.565,0.383c0.2,0.025,0.406,0.037,0.597,0.055s0.366,0.039,0.503,0.083c0.138,0.043,0.238,0.109,0.278,0.214
	c0.041,0.105,0.022,0.248-0.078,0.448c-0.05,0.1-0.119,0.194-0.197,0.289c-0.078,0.095-0.166,0.192-0.253,0.298
	s-0.175,0.222-0.254,0.354c-0.078,0.133-0.147,0.283-0.197,0.458c-0.05,0.125-0.081,0.281-0.098,0.451s-0.02,0.354-0.014,0.535
	c0.006,0.182,0.021,0.36,0.042,0.518c0.02,0.158,0.045,0.295,0.07,0.395c0.05,0.2,0.15,0.362,0.263,0.506
	C51.175,20.95,51.3,21.075,51.4,21.2c0.1,0.125,0.175,0.25,0.188,0.394C51.6,21.737,51.55,21.9,51.4,22.1
	c-0.125,0.2-0.375,0.394-0.68,0.586c-0.305,0.192-0.664,0.383-1.008,0.577c-0.343,0.194-0.671,0.39-0.914,0.595
	C48.556,24.062,48.4,24.275,48.4,24.5c0.025,0.225,0.019,0.444-0.014,0.641s-0.092,0.372-0.174,0.509s-0.185,0.237-0.305,0.284
	c-0.12,0.047-0.258,0.041-0.408-0.034s-0.375-0.181-0.667-0.295c-0.292-0.114-0.651-0.236-1.07-0.343
	c-0.419-0.106-0.896-0.197-1.426-0.248C43.806,24.962,43.225,24.95,42.6,25s-1.131,0.163-1.539,0.303
	c-0.408,0.141-0.717,0.309-0.948,0.472c-0.231,0.163-0.385,0.319-0.48,0.434S39.5,26.4,39.5,26.4s-0.062-0.006-0.155-0.041
	s-0.214-0.097-0.332-0.209c-0.119-0.113-0.235-0.275-0.314-0.509S38.575,25.1,38.6,24.7s0.05-1.312,0.074-2.456
	c0.023-1.144,0.045-2.519,0.064-3.844c0.018-1.325,0.034-2.6,0.045-3.544C38.794,13.913,38.8,13.3,38.8,13.3z"/>
<path style="fill:#FFFFFF;" d="M53.2,17.3c0,0-0.05,0.025-0.125,0.087S52.9,17.55,52.8,17.7s-0.2,0.35-0.275,0.612
	C52.45,18.575,52.4,18.9,52.4,19.3s0.006,0.719,0.031,0.972c0.025,0.253,0.069,0.441,0.144,0.578
	c0.075,0.138,0.181,0.225,0.331,0.278c0.15,0.053,0.344,0.072,0.594,0.072s0.456,0,0.626-0.025S54.431,21.1,54.537,21
	c0.107-0.1,0.185-0.25,0.242-0.475C54.837,20.3,54.874,20,54.9,19.6c0-0.425-0.013-0.794-0.055-1.105
	c-0.042-0.311-0.114-0.564-0.232-0.757c-0.119-0.194-0.285-0.329-0.514-0.402C53.869,17.263,53.575,17.25,53.2,17.3z"/>
<path style="fill:#FFFFFF;" d="M43.6,26.7c0,0,0.3-0.025,0.755-0.033c0.455-0.008,1.064,0.002,1.683,0.071
	c0.618,0.068,1.247,0.196,1.739,0.426c0.492,0.23,0.848,0.561,0.923,1.036s-0.081,0.838-0.388,1.114
	c-0.306,0.277-0.763,0.467-1.287,0.598c-0.525,0.131-1.119,0.203-1.7,0.243S44.175,30.2,43.7,30.2s-1,0.006-1.52-0.011
	s-1.036-0.058-1.493-0.152c-0.456-0.094-0.853-0.24-1.136-0.47c-0.283-0.23-0.451-0.542-0.451-0.967
	c0.025-0.425,0.319-0.756,0.745-1.014c0.427-0.258,0.986-0.442,1.543-0.573c0.556-0.132,1.109-0.21,1.523-0.255S43.6,26.7,43.6,26.7
	z"/>
<path style="fill:#FFFFFF;" d="M68,19.2h-0.375H67.25h-0.375H66.5c-0.025-1.375-0.188-2.688-0.463-3.883s-0.662-2.273-1.137-3.179
	c-0.475-0.906-1.037-1.641-1.662-2.149C62.613,9.481,61.925,9.2,61.2,9.2s-1.419,0.287-2.052,0.808
	c-0.633,0.52-1.204,1.273-1.685,2.204c-0.482,0.931-0.872,2.041-1.143,3.274S55.9,18.075,55.9,19.5s0.15,2.781,0.42,4.014
	s0.661,2.342,1.142,3.273c0.481,0.931,1.053,1.685,1.686,2.205c0.633,0.52,1.327,0.808,2.052,0.808c0.7,0,1.369-0.256,1.981-0.723
	s1.169-1.145,1.644-1.989c0.475-0.844,0.869-1.854,1.156-2.983c0.288-1.13,0.469-2.38,0.519-3.705h0.375h0.375h0.375H68v-0.3v-0.3
	v-0.3V19.2z M64.8,24.2c-0.15-0.225-0.325-0.5-0.509-0.792c-0.184-0.292-0.378-0.602-0.566-0.896s-0.369-0.572-0.528-0.802
	C63.037,21.481,62.9,21.3,62.8,21.2c-0.15-0.125-0.275-0.15-0.378-0.117c-0.103,0.033-0.184,0.123-0.247,0.229
	c-0.062,0.106-0.106,0.229-0.134,0.324C62.013,21.731,62,21.8,62,21.8l0.575,0.975l0.575,0.975l0.575,0.975L64.3,25.7
	c-0.2,0.425-0.412,0.806-0.638,1.139c-0.225,0.333-0.462,0.617-0.712,0.849s-0.513,0.41-0.788,0.53
	C61.888,28.338,61.6,28.4,61.3,28.4c-0.225,0-0.45-0.038-0.672-0.111s-0.441-0.183-0.653-0.327s-0.419-0.322-0.616-0.533
	c-0.197-0.211-0.384-0.454-0.559-0.729l0.5-1.125l0.5-1.125l0.5-1.125l0.5-1.125c0,0,0.013-0.087,0.02-0.211
	c0.008-0.123,0.011-0.283-0.007-0.427c-0.019-0.144-0.06-0.271-0.139-0.332c-0.08-0.061-0.199-0.055-0.374,0.07l-0.55,0.95
	L59.2,23.2l-0.55,0.95L58.1,25.1c-0.15-0.375-0.281-0.781-0.394-1.212C57.594,23.456,57.5,23,57.425,22.525
	c-0.075-0.475-0.131-0.969-0.169-1.475c-0.037-0.506-0.056-1.025-0.056-1.55c0-0.25,0.006-0.5,0.017-0.748s0.026-0.495,0.045-0.739
	c0.019-0.244,0.041-0.485,0.064-0.721s0.049-0.467,0.074-0.692l0.625,0.525l0.625,0.525l0.625,0.525L59.9,18.7
	c0,0,0.037,0.006,0.091-0.002c0.053-0.008,0.122-0.029,0.184-0.085c0.062-0.056,0.119-0.147,0.147-0.293
	c0.028-0.145,0.028-0.345-0.022-0.62l-0.6-0.8l-0.6-0.8l-0.6-0.8l-0.6-0.8c0.2-0.6,0.431-1.15,0.688-1.637
	c0.256-0.488,0.538-0.912,0.838-1.262s0.619-0.625,0.95-0.812C60.706,10.6,61.05,10.5,61.4,10.5c0.3,0,0.587,0.062,0.862,0.181
	C62.537,10.8,62.8,10.975,63.05,11.2s0.487,0.5,0.713,0.819C63.987,12.337,64.2,12.7,64.4,13.1c-0.15,0.25-0.35,0.569-0.57,0.916
	c-0.22,0.347-0.461,0.722-0.693,1.084c-0.231,0.363-0.453,0.713-0.636,1.009S62.174,16.65,62.1,16.8
	c-0.125,0.2-0.188,0.388-0.211,0.556c-0.024,0.169-0.008,0.319,0.023,0.444s0.078,0.225,0.117,0.294
	C62.069,18.162,62.1,18.2,62.1,18.2l0.725-0.9l0.725-0.9l0.725-0.9L65,14.6c0.1,0.35,0.194,0.712,0.278,1.086
	c0.084,0.373,0.159,0.758,0.222,1.151s0.113,0.797,0.147,1.208c0.034,0.411,0.053,0.83,0.053,1.254h-1.175H63.35h-1.175H61v0.3v0.3
	v0.3v0.3h1.1h1.1h1.1h1.1c0,0.325-0.013,0.65-0.037,0.972c-0.025,0.322-0.062,0.641-0.113,0.953s-0.113,0.619-0.188,0.916
	S64.9,23.925,64.8,24.2z"/>
</svg>
