<?xml version="1.0" encoding="iso-8859-1"?>
<!-- Generator: Adobe Illustrator 25.3.1, SVG Export Plug-In . SVG Version: 6.00 Build 0)  -->
<svg version="1.1" id="Layer_1" xmlns="http://www.w3.org/2000/svg" xmlns:xlink="http://www.w3.org/1999/xlink" x="0px" y="0px"
	 viewBox="0 0 100 100" style="enable-background:new 0 0 100 100;" xml:space="preserve">
<path style="fill:#A4251A;" d="M50,2.4c6.572,0,12.833,1.332,18.528,3.741c5.695,2.409,10.823,5.894,15.13,10.201
	s7.793,9.435,10.201,15.13C96.268,37.167,97.6,43.428,97.6,50s-1.332,12.833-3.741,18.528c-2.409,5.695-5.894,10.823-10.201,15.13
	s-9.436,7.793-15.13,10.201C62.833,96.268,56.572,97.6,50,97.6s-12.833-1.332-18.528-3.741c-5.695-2.409-10.823-5.894-15.13-10.201
	s-7.792-9.436-10.201-15.13S2.4,56.572,2.4,50s1.332-12.833,3.741-18.528s5.894-10.823,10.201-15.13s9.435-7.792,15.13-10.201
	S43.428,2.4,50,2.4z"/>
<path style="fill:#440C09;" d="M50,1.9c-6.625,0-12.944,1.35-18.695,3.789s-10.936,5.967-15.292,10.324S8.129,25.554,5.69,31.305
	S1.9,43.375,1.9,50s1.35,12.944,3.789,18.695s5.967,10.936,10.324,15.293s9.541,7.884,15.292,10.323S43.375,98.1,50,98.1
	s12.944-1.344,18.695-3.775c5.752-2.431,10.936-5.95,15.293-10.3s7.884-9.531,10.323-15.287S98.1,56.65,98.1,50
	s-1.35-12.981-3.789-18.737s-5.967-10.938-10.323-15.288s-9.54-7.869-15.292-10.3C62.944,3.244,56.625,1.9,50,1.9z M50,93
	c-5.95,0-11.612-1.2-16.759-3.372s-9.778-5.316-13.666-9.203s-7.031-8.519-9.203-13.666C8.2,61.613,7,55.95,7,50
	s1.2-11.612,3.372-16.759s5.316-9.778,9.203-13.666s8.519-7.031,13.666-9.203S44.05,7,50,7s11.613,1.206,16.759,3.386
	s9.778,5.333,13.666,9.226s7.031,8.528,9.203,13.67S93,44.075,93,50s-1.2,11.575-3.372,16.717s-5.316,9.776-9.203,13.67
	s-8.519,7.047-13.666,9.227C61.613,91.794,55.95,93,50,93z"/>
<path style="fill:#FFFFFF;" d="M58.9,32.4l2.45-1.675l2.45-1.675l2.45-1.675L68.7,25.7l0.85,1.325l0.85,1.325l0.85,1.325L72.1,31
	l2.25-3.9l2.25-3.9l2.25-3.9l2.25-3.9l-4.5,0.45l-4.5,0.45l-4.5,0.45l-4.5,0.45l0.825,1.275l0.825,1.275l0.825,1.275L66.4,22.3
	l-3.15,2.275L60.1,26.85l-3.15,2.275L53.8,31.4c-0.375-0.05-0.756-0.094-1.141-0.131S51.888,31.2,51.5,31.175
	s-0.775-0.044-1.159-0.056C49.956,31.106,49.575,31.1,49.2,31.1c-4.675,0-9.131,0.994-13.186,2.791s-7.708,4.397-10.777,7.609
	s-5.553,7.037-7.27,11.284S15.3,61.7,15.3,66.6c0,0.175,0,0.675,0,1.326c0,0.651,0,1.454,0,2.235s0,1.54,0,2.104s0,0.933,0,0.933
	h16.95H49.2h16.95H83.1c0,0,0-0.369,0-0.933c0-0.564,0-1.323,0-2.104s0-1.584,0-2.236c0-0.652,0-1.152,0-1.326
	c0-4.075-0.637-7.981-1.812-11.616C80.113,51.35,78.4,47.987,76.25,45s-4.737-5.6-7.662-7.734S62.4,33.475,58.9,32.4z M79.4,69.4
	H64.3H49.2H34.1H19c0-0.175-0.006-0.406-0.016-0.666s-0.022-0.547-0.034-0.834s-0.025-0.575-0.034-0.834S18.9,66.575,18.9,66.4
	c0-4.375,0.844-8.544,2.37-12.336c1.526-3.792,3.736-7.208,6.467-10.076s5.984-5.191,9.598-6.795
	C40.95,35.588,44.925,34.7,49.1,34.7s8.15,0.888,11.764,2.492c3.614,1.605,6.867,3.927,9.599,6.796s4.941,6.285,6.467,10.076
	S79.3,62.025,79.3,66.4c0.05,0.175,0.081,0.406,0.1,0.666c0.019,0.259,0.025,0.547,0.025,0.834s-0.006,0.575-0.012,0.834
	C79.406,68.994,79.4,69.225,79.4,69.4z"/>
<path d="M83.6,73.5H66.4H49.2H32H14.8v-1.775V69.95v-1.775V66.4c0-4.95,0.962-9.675,2.703-13.978s4.259-8.184,7.372-11.447
	s6.819-5.906,10.934-7.734C39.925,31.413,44.45,30.4,49.2,30.4c0.375,0,0.75,0.006,1.125,0.019c0.375,0.013,0.75,0.031,1.125,0.056
	s0.75,0.056,1.125,0.094s0.75,0.081,1.125,0.131l3-2.175l3-2.175l3-2.175l3-2.175l-0.875-1.35L63.95,19.3l-0.875-1.35L62.2,16.6
	l4.95-0.5l4.95-0.5l4.95-0.5L82,14.6l-2.475,4.3l-2.475,4.3l-2.475,4.3L72.1,31.8l-0.9-1.375l-0.9-1.375l-0.9-1.375L68.5,26.3
	l-2.125,1.475L64.25,29.25l-2.125,1.475L60,32.2c3.5,1.2,6.725,2.969,9.594,5.189s5.381,4.892,7.456,7.899
	c2.075,3.006,3.712,6.346,4.831,9.904S83.6,62.525,83.6,66.4v1.775v1.775v1.775V73.5z M15.8,72.5h16.7h16.7h16.7h16.7v-1.525V69.45
	v-1.525V66.4c0-3.85-0.613-7.594-1.751-11.112c-1.139-3.519-2.805-6.812-4.911-9.763s-4.653-5.556-7.555-7.7
	C65.481,35.681,62.225,34,58.7,32.9l-0.25-0.075L58.2,32.75l-0.25-0.075L57.7,32.6l2.75-1.9l2.75-1.9l2.75-1.9L68.7,25l0.825,1.25
	l0.825,1.25l0.825,1.25L72,30l2.025-3.525l2.025-3.525l2.025-3.525L80.1,15.9l-4.025,0.4l-4.025,0.4l-4.025,0.4L64,17.5l0.775,1.2
	l0.775,1.2l0.775,1.2l0.775,1.2l-3.275,2.375L60.55,27.05l-3.275,2.375L54,31.8h-0.05H53.9h-0.05H53.8
	c-0.375-0.05-0.756-0.094-1.141-0.131S51.888,31.6,51.5,31.575s-0.775-0.044-1.159-0.056C49.956,31.506,49.575,31.5,49.2,31.5
	c-4.6,0-8.987,0.981-12.981,2.755c-3.994,1.773-7.594,4.339-10.619,7.508s-5.475,6.941-7.169,11.126S15.8,61.675,15.8,66.5
	c0,0,0,0.375,0,0.938s0,1.312,0,2.062s0,1.5,0,2.062S15.8,72.5,15.8,72.5z M79.9,69.9H64.575H49.25H33.925H18.6v-0.125V69.65v-0.125
	V69.4c0-0.175-0.006-0.412-0.016-0.68c-0.009-0.267-0.022-0.564-0.034-0.857c-0.013-0.294-0.025-0.585-0.034-0.84
	C18.506,66.769,18.5,66.55,18.5,66.4c0-4.425,0.862-8.65,2.42-12.498c1.558-3.848,3.811-7.32,6.593-10.239s6.091-5.284,9.761-6.92
	c3.67-1.636,7.701-2.543,11.926-2.543c4.25,0,8.294,0.9,11.969,2.528c3.675,1.628,6.981,3.984,9.756,6.897
	c2.775,2.912,5.019,6.381,6.569,10.234C79.044,57.713,79.9,61.95,79.9,66.4c0,0.15,0,0.369-0.002,0.623
	c-0.001,0.255-0.005,0.546-0.01,0.84c-0.007,0.293-0.016,0.59-0.03,0.857c-0.014,0.267-0.033,0.505-0.058,0.68l0.025,0.125
	l0.025,0.125l0.025,0.125L79.9,69.9z M19.5,68.9h14.85H49.2h14.85H78.9c0-0.2,0-0.419,0-0.644s0-0.456,0-0.681s0-0.444,0-0.644
	c0-0.2,0-0.381,0-0.531c0-4.3-0.831-8.4-2.334-12.131c-1.503-3.731-3.678-7.094-6.366-9.919s-5.887-5.112-9.441-6.694
	S53.3,35.2,49.2,35.2s-8.006,0.875-11.559,2.456c-3.553,1.581-6.753,3.869-9.441,6.694s-4.863,6.188-6.366,9.919
	S19.5,62.1,19.5,66.4c0,0.125,0,0.294,0,0.489c0,0.195,0,0.417,0,0.648s0,0.472,0,0.705C19.5,68.475,19.5,68.7,19.5,68.9z"/>
<path style="fill:#FFFFFF;" d="M49.2,38.5c-1.925,0-3.756,0.412-5.42,1.156s-3.161,1.819-4.417,3.144
	c-1.257,1.325-2.272,2.9-2.974,4.644C35.688,49.188,35.3,51.1,35.3,53.1c0,2.025,0.388,3.95,1.089,5.698s1.717,3.32,2.973,4.639
	s2.753,2.384,4.417,3.12c1.664,0.736,3.496,1.143,5.421,1.143s3.756-0.412,5.42-1.156s3.161-1.819,4.418-3.144
	s2.272-2.9,2.973-4.644S63.1,55.1,63.1,53.1c0-2.025-0.388-3.95-1.089-5.698c-0.702-1.748-1.717-3.32-2.974-4.639
	s-2.753-2.384-4.417-3.12C52.956,38.907,51.125,38.5,49.2,38.5z"/>
<path d="M49.2,68.3c-1.975,0-3.862-0.425-5.583-1.192c-1.72-0.767-3.273-1.877-4.579-3.246c-1.307-1.369-2.366-2.997-3.099-4.801
	S34.8,55.275,34.8,53.2s0.406-4.062,1.139-5.877s1.792-3.455,3.098-4.836s2.859-2.503,4.58-3.28S47.225,38,49.2,38
	s3.862,0.425,5.583,1.192s3.273,1.877,4.579,3.246s2.366,2.997,3.098,4.801S63.6,51.025,63.6,53.1s-0.406,4.062-1.139,5.877
	s-1.792,3.455-3.098,4.836c-1.306,1.381-2.86,2.503-4.58,3.279C53.062,67.869,51.175,68.3,49.2,68.3z M49.2,39
	c-1.85,0-3.612,0.394-5.216,1.106c-1.603,0.712-3.047,1.744-4.259,3.019s-2.194,2.794-2.872,4.481S35.8,51.15,35.8,53.1
	s0.375,3.806,1.053,5.494c0.678,1.688,1.659,3.206,2.872,4.481s2.656,2.306,4.259,3.019C45.588,66.806,47.35,67.2,49.2,67.2
	s3.612-0.394,5.216-1.106c1.603-0.713,3.047-1.744,4.259-3.019c1.212-1.275,2.194-2.794,2.872-4.481S62.6,55.05,62.6,53.1
	s-0.375-3.806-1.053-5.494c-0.678-1.688-1.659-3.206-2.872-4.481s-2.656-2.306-4.259-3.019C52.812,39.394,51.05,39,49.2,39z"/>
</svg>
