<?xml version="1.0" encoding="iso-8859-1"?>
<!-- Generator: Adobe Illustrator 25.3.1, SVG Export Plug-In . SVG Version: 6.00 Build 0)  -->
<svg version="1.1" id="Layer_1" xmlns="http://www.w3.org/2000/svg" xmlns:xlink="http://www.w3.org/1999/xlink" x="0px" y="0px"
	 viewBox="0 0 100 100" style="enable-background:new 0 0 100 100;" xml:space="preserve">
<path style="fill:#A4251A;" d="M50,2.4c6.572,0,12.833,1.332,18.528,3.741c5.695,2.409,10.823,5.894,15.13,10.201
	s7.793,9.435,10.201,15.13C96.268,37.167,97.6,43.428,97.6,50s-1.332,12.833-3.741,18.528c-2.409,5.695-5.894,10.823-10.201,15.13
	s-9.436,7.793-15.13,10.201C62.833,96.268,56.572,97.6,50,97.6s-12.833-1.332-18.528-3.741c-5.695-2.409-10.823-5.894-15.13-10.201
	s-7.792-9.436-10.201-15.13S2.4,56.572,2.4,50s1.332-12.833,3.741-18.528s5.894-10.823,10.201-15.13s9.435-7.792,15.13-10.201
	S43.428,2.4,50,2.4z"/>
<path style="fill:#440C09;" d="M50,1.9c-6.625,0-12.944,1.35-18.695,3.789s-10.936,5.967-15.292,10.324S8.129,25.554,5.69,31.305
	S1.9,43.375,1.9,50s1.35,12.944,3.789,18.695s5.967,10.936,10.324,15.293s9.541,7.884,15.292,10.323S43.375,98.1,50,98.1
	s12.944-1.344,18.695-3.775c5.752-2.431,10.936-5.95,15.293-10.3s7.884-9.531,10.323-15.287S98.1,56.65,98.1,50
	s-1.35-12.981-3.789-18.737s-5.967-10.938-10.323-15.288s-9.54-7.869-15.292-10.3C62.944,3.244,56.625,1.9,50,1.9z M50,93
	c-5.95,0-11.612-1.2-16.759-3.372s-9.778-5.316-13.666-9.203s-7.031-8.519-9.203-13.666C8.2,61.613,7,55.95,7,50
	s1.2-11.612,3.372-16.759s5.316-9.778,9.203-13.666s8.519-7.031,13.666-9.203S44.05,7,50,7s11.613,1.206,16.759,3.386
	s9.778,5.333,13.666,9.226s7.031,8.528,9.203,13.67S93,44.075,93,50s-1.2,11.575-3.372,16.717s-5.316,9.776-9.203,13.67
	s-8.519,7.047-13.666,9.227C61.613,91.794,55.95,93,50,93z"/>
<polygon style="fill:#FFFFFF;" points="47.8,18.7 48.8,18.7 49.8,18.7 50.8,18.7 51.8,18.7 51.8,23.075 51.8,27.45 51.8,31.825 
	51.8,36.2 50.8,36.2 49.8,36.2 48.8,36.2 47.8,36.2 47.8,31.825 47.8,27.45 47.8,23.075 "/>
<path d="M52.1,36.5h-1.125H49.85h-1.125H47.6V32v-4.5V23v-4.5h1.125h1.125h1.125H52.1V23v4.5V32V36.5z M48.1,36h0.875h0.875h0.875
	H51.6v-4.25V27.5v-4.25V19h-0.875H49.85h-0.875H48.1v4.25v4.25v4.25V36z"/>
<path style="fill:#FFFFFF;" d="M61.6,23c-0.075-0.25-0.169-0.719-0.37-1.322c-0.202-0.603-0.511-1.341-1.018-2.128
	c-0.506-0.787-1.209-1.625-2.198-2.428C57.025,16.319,55.75,15.55,54.1,14.9v-0.35V14.2v-0.35V13.5h1.075h1.075h1.075H58.4v-0.7
	v-0.7v-0.7v-0.7h-4.325H49.75h-4.325H41.1v0.7v0.7v0.7v0.7h1.05h1.05h1.05h1.05v0.375v0.375v0.375V15
	c-1.6,0.65-2.838,1.412-3.799,2.206s-1.646,1.619-2.139,2.394c-0.493,0.775-0.796,1.5-0.995,2.094C38.169,22.288,38.075,22.75,38,23
	c-0.075,0.275-0.15,0.556-0.22,0.861c-0.07,0.305-0.136,0.633-0.192,1.001c-0.056,0.369-0.104,0.778-0.136,1.246
	S37.4,27.1,37.4,27.7c0,0.55,0.037,1.112,0.094,1.647c0.056,0.534,0.131,1.041,0.206,1.478s0.15,0.806,0.206,1.066
	C37.963,32.15,38,32.3,38,32.3c0.275,1.05,0.713,2.019,1.253,2.905c0.541,0.886,1.184,1.689,1.872,2.407s1.419,1.353,2.134,1.902
	c0.716,0.549,1.416,1.011,2.041,1.386v0.825v0.825v0.825V44.2h2.2h2.2h2.2h2.2v-0.775V42.65v-0.775V41.1
	c0.625-0.375,1.337-0.838,2.072-1.389s1.491-1.192,2.203-1.923c0.712-0.731,1.381-1.553,1.941-2.468
	c0.559-0.914,1.009-1.92,1.284-3.02c0,0,0.037-0.15,0.094-0.409c0.056-0.259,0.131-0.628,0.206-1.066s0.15-0.944,0.206-1.478
	S62.2,28.25,62.2,27.7c0.025-0.6,0.019-1.125-0.009-1.592c-0.028-0.467-0.078-0.877-0.141-1.246
	c-0.062-0.368-0.137-0.696-0.216-1.001C61.756,23.556,61.675,23.275,61.6,23z M51.1,37.8h-0.075H50.95h-0.075H50.8h-0.525H49.75
	h-0.525H48.7h-0.075H48.55h-0.075H48.4c-1.175-0.95-2.119-1.894-2.873-2.842s-1.32-1.901-1.739-2.87
	c-0.419-0.969-0.691-1.953-0.858-2.964C42.763,28.112,42.7,27.075,42.7,26c0-1.375,0.319-2.644,0.797-3.773
	c0.478-1.13,1.116-2.12,1.753-2.939s1.275-1.465,1.753-1.908c0.478-0.442,0.797-0.68,0.797-0.68h0.475h0.475h0.475H49.7h0.475h0.475
	h0.475H51.6c0,0,0.319,0.275,0.797,0.775c0.478,0.5,1.116,1.225,1.753,2.125c0.638,0.9,1.275,1.975,1.753,3.175
	c0.478,1.2,0.797,2.525,0.797,3.925c0.05,0.425,0.025,1.094-0.116,1.917c-0.141,0.823-0.397,1.801-0.809,2.845
	c-0.412,1.043-0.981,2.153-1.747,3.239S52.3,36.85,51.1,37.8z"/>
<path d="M54.3,44.4h-2.325H49.65h-2.325H45v-0.85V42.7v-0.85V41c-0.7-0.425-1.438-0.925-2.166-1.5s-1.447-1.225-2.109-1.95
	s-1.269-1.525-1.772-2.4S38.05,33.325,37.8,32.3c0-0.025-0.044-0.188-0.109-0.451s-0.153-0.629-0.241-1.06
	c-0.087-0.432-0.175-0.929-0.241-1.455C37.144,28.806,37.1,28.25,37.1,27.7c0-0.625,0.019-1.169,0.053-1.65
	c0.034-0.481,0.084-0.9,0.147-1.275s0.138-0.706,0.222-1.013c0.084-0.306,0.178-0.587,0.278-0.862c0-0.025,0-0.05,0.002-0.075
	c0.002-0.025,0.005-0.05,0.011-0.075c0.006-0.025,0.015-0.05,0.029-0.075c0.014-0.025,0.033-0.05,0.058-0.075
	c0.075-0.325,0.194-0.819,0.422-1.416c0.228-0.597,0.566-1.297,1.078-2.034s1.2-1.513,2.128-2.259
	c0.928-0.747,2.097-1.466,3.572-2.091v-0.275V14.25v-0.275V13.7h-1.05H43h-1.05H40.9v-0.825V12.05v-0.825V10.4h4.45h4.45h4.45h4.45
	v0.825v0.825v0.825V13.7h-1.075H56.55h-1.075H54.4v0.225v0.225v0.225V14.6c1.525,0.625,2.731,1.35,3.689,2.106
	c0.958,0.756,1.667,1.544,2.199,2.294s0.884,1.462,1.13,2.069S61.8,22.175,61.9,22.5c0,0.025,0,0.05,0.002,0.075
	c0.002,0.025,0.005,0.05,0.011,0.075c0.006,0.025,0.015,0.05,0.029,0.075c0.014,0.025,0.033,0.05,0.058,0.075l0,0l0,0l0,0l0,0
	c0.075,0.275,0.156,0.556,0.236,0.862s0.158,0.638,0.227,1.013s0.128,0.794,0.17,1.275c0.042,0.481,0.067,1.025,0.067,1.65
	c0,0.55-0.038,1.106-0.095,1.633c-0.058,0.527-0.136,1.023-0.217,1.454c-0.082,0.431-0.166,0.797-0.236,1.061
	c-0.07,0.264-0.127,0.427-0.152,0.452c-0.275,1.1-0.731,2.112-1.299,3.034s-1.245,1.753-1.965,2.491s-1.478,1.381-2.208,1.928
	C55.8,40.2,55.1,40.65,54.5,41v0.85v0.85v0.85v0.85h-0.05H54.4h-0.05H54.3z M45.5,43.9h2.075h2.075h2.075H53.8v-0.75V42.4v-0.75
	V40.9l0.025-0.025l0.025-0.025l0.025-0.025L53.9,40.8c0.575-0.35,1.256-0.794,1.972-1.33c0.716-0.536,1.466-1.164,2.178-1.883
	s1.388-1.528,1.953-2.426s1.022-1.886,1.297-2.961c0,0,0.037-0.15,0.094-0.408c0.056-0.258,0.131-0.623,0.206-1.054
	c0.075-0.432,0.15-0.929,0.206-1.449c0.056-0.52,0.094-1.064,0.094-1.589c0-0.6-0.019-1.125-0.052-1.591s-0.08-0.872-0.136-1.234
	c-0.056-0.362-0.122-0.681-0.192-0.972c-0.07-0.291-0.145-0.553-0.22-0.803l0,0l0,0l0,0l0,0c0-0.025,0-0.05-0.002-0.075
	c-0.002-0.025-0.005-0.05-0.011-0.075c-0.006-0.025-0.015-0.05-0.029-0.075c-0.014-0.025-0.033-0.05-0.058-0.075
	c-0.05-0.325-0.15-0.819-0.366-1.413c-0.216-0.594-0.547-1.287-1.059-2.012s-1.206-1.481-2.147-2.2S55.5,15.775,54,15.2l-0.05-0.025
	L53.9,15.15l-0.05-0.025L53.8,15.1v-0.45V14.2v-0.45V13.3h1.075h1.075h1.075H58.1v-0.575V12.15v-0.575V11h-4.175H49.75h-4.175H41.4
	v0.575v0.575v0.575V13.3h1.05h1.05h1.05h1.05v0.475v0.475v0.475V15.2l-0.05,0.025L45.5,15.25l-0.05,0.025L45.4,15.3
	c-1.45,0.6-2.594,1.294-3.498,2.016s-1.57,1.472-2.064,2.184s-0.815,1.388-1.032,1.959c-0.217,0.572-0.33,1.041-0.406,1.341
	c0,0.025-0.006,0.05-0.016,0.075c-0.009,0.025-0.022,0.05-0.034,0.075s-0.025,0.05-0.034,0.075C38.306,23.05,38.3,23.075,38.3,23.1
	c-0.075,0.275-0.15,0.556-0.22,0.859c-0.07,0.303-0.136,0.628-0.192,0.991s-0.103,0.763-0.136,1.216S37.7,27.125,37.7,27.7
	c0,0.525,0.038,1.069,0.094,1.589c0.056,0.52,0.131,1.017,0.206,1.448c0.075,0.432,0.15,0.797,0.206,1.055
	c0.056,0.258,0.094,0.407,0.094,0.407c0.25,1,0.65,1.925,1.152,2.777c0.501,0.852,1.104,1.63,1.76,2.335
	c0.656,0.707,1.366,1.341,2.08,1.905s1.433,1.058,2.108,1.483l0.025,0.025l0.025,0.025l0.025,0.025l0.025,0.025v0.775v0.775
	c0,0,0,0.388,0,0.776S45.5,43.9,45.5,43.9z M51.2,38.1h-0.7h-0.7h-0.7h-0.7v-0.025V38.05v-0.025V38
	c-1.275-1.05-2.275-2.088-3.058-3.112c-0.783-1.025-1.348-2.038-1.754-3.038s-0.653-1.987-0.799-2.962S42.6,26.95,42.6,26
	c0-1.4,0.312-2.688,0.784-3.833s1.103-2.148,1.741-2.979c0.638-0.832,1.281-1.491,1.778-1.949S47.75,16.525,47.8,16.5h0.025h0.025
	h0.025H47.9h0.5h0.5h0.5h0.5h0.5h0.5h0.5h0.5l0.025,0.025l0.025,0.025l0.025,0.025L52,16.6c0.05,0.05,0.4,0.363,0.897,0.891
	c0.497,0.528,1.141,1.272,1.778,2.184s1.269,1.994,1.741,3.197C56.888,24.075,57.2,25.4,57.2,26.8
	c-0.025,0.4-0.112,1.062-0.305,1.892c-0.192,0.83-0.489,1.827-0.932,2.896c-0.444,1.068-1.035,2.209-1.815,3.326
	C53.369,36.031,52.4,37.125,51.2,38.1L51.2,38.1L51.2,38.1L51.2,38.1L51.2,38.1z M48.6,37.6h0.6h0.6h0.6H51
	c1.125-0.925,2.037-1.963,2.773-3.025c0.736-1.062,1.295-2.15,1.714-3.175c0.418-1.025,0.696-1.987,0.87-2.8
	c0.173-0.812,0.242-1.475,0.242-1.9c0-1.275-0.275-2.487-0.697-3.598c-0.422-1.111-0.991-2.12-1.578-2.989
	c-0.587-0.869-1.193-1.597-1.69-2.146C52.138,17.419,51.75,17.05,51.6,16.9h-0.45H50.7h-0.45H49.8h-0.45H48.9h-0.45H48
	c-0.15,0.125-0.531,0.444-1.019,0.93s-1.081,1.139-1.656,1.932c-0.575,0.794-1.131,1.729-1.544,2.777
	C43.369,23.587,43.1,24.75,43.1,26c-0.025,0.9,0,1.825,0.128,2.769c0.128,0.944,0.359,1.906,0.747,2.881s0.931,1.962,1.684,2.956
	C46.412,35.6,47.375,36.6,48.6,37.6z"/>
<path style="fill:#FFFFFF;" d="M54.1,42.2c0,0,0.181-0.038,0.464-0.084s0.667-0.103,1.073-0.141s0.834-0.056,1.205-0.028
	c0.371,0.028,0.683,0.103,0.858,0.253s0.3,0.294,0.389,0.425c0.089,0.131,0.142,0.25,0.173,0.35s0.04,0.181,0.042,0.237
	c0.002,0.056-0.005,0.088-0.005,0.088s-0.106,0.044-0.289,0.106c-0.183,0.062-0.442,0.144-0.748,0.219s-0.659,0.144-1.029,0.181
	S55.475,43.85,55.1,43.8c-0.375-0.025-0.625-0.138-0.789-0.292c-0.164-0.155-0.242-0.351-0.273-0.545
	c-0.031-0.194-0.016-0.385,0.007-0.527C54.069,42.294,54.1,42.2,54.1,42.2z"/>
<path d="M55.5,44.1c-0.05,0-0.094,0-0.134,0c-0.041,0-0.078,0-0.116,0s-0.075,0-0.116,0c-0.041,0-0.084,0-0.134,0
	c-0.125,0-0.244-0.013-0.355-0.037c-0.111-0.025-0.214-0.062-0.307-0.113c-0.094-0.05-0.179-0.112-0.252-0.187
	C54.013,43.688,53.95,43.6,53.9,43.5c-0.1-0.15-0.156-0.306-0.184-0.458c-0.028-0.152-0.028-0.299-0.016-0.43
	s0.038-0.247,0.059-0.336s0.041-0.152,0.041-0.177v-0.025v-0.025v-0.025V42h0.025h0.025h0.025H53.9
	c0.075-0.025,0.3-0.075,0.608-0.126c0.308-0.052,0.699-0.105,1.105-0.136s0.828-0.041,1.198-0.005S57.5,41.85,57.7,42
	s0.344,0.306,0.447,0.458c0.103,0.152,0.166,0.299,0.203,0.43s0.05,0.247,0.053,0.336S58.4,43.375,58.4,43.4v0.025v0.025v0.025V43.5
	h-0.025H58.35h-0.025H58.3c0,0.025-0.087,0.075-0.241,0.136s-0.372,0.133-0.634,0.201c-0.263,0.069-0.569,0.135-0.897,0.183
	S55.85,44.1,55.5,44.1z M54.3,42.4c0,0.05-0.006,0.106-0.013,0.167s-0.013,0.126-0.013,0.195s0.006,0.14,0.025,0.214
	c0.019,0.074,0.05,0.149,0.1,0.224c0.025,0.05,0.062,0.094,0.109,0.131c0.047,0.038,0.103,0.069,0.166,0.094
	s0.131,0.044,0.203,0.056C54.95,43.494,55.025,43.5,55.1,43.5c0.3,0.025,0.606,0.019,0.903-0.006
	c0.297-0.025,0.584-0.069,0.847-0.119s0.5-0.106,0.697-0.156C57.744,43.169,57.9,43.125,58,43.1c0-0.05-0.006-0.1-0.022-0.152
	c-0.016-0.051-0.041-0.104-0.078-0.16c-0.037-0.056-0.088-0.116-0.153-0.18S57.6,42.475,57.5,42.4s-0.281-0.119-0.514-0.141
	c-0.233-0.022-0.517-0.022-0.824-0.009c-0.306,0.013-0.634,0.038-0.954,0.066S54.575,42.375,54.3,42.4z"/>
<path style="fill:#FFFFFF;" d="M55.1,43.9l1.575-0.05l1.575-0.05l1.575-0.05L61.4,43.7c0,0,0.05,0.006,0.124,0.03
	c0.073,0.023,0.17,0.064,0.264,0.132s0.185,0.165,0.245,0.302c0.061,0.136,0.092,0.311,0.067,0.536s-0.338,0.388-0.792,0.505
	c-0.455,0.117-1.052,0.189-1.646,0.232c-0.594,0.044-1.184,0.06-1.626,0.064S57.3,45.5,57.3,45.5s0.231,0.019,0.575,0.053
	c0.344,0.034,0.8,0.084,1.25,0.147s0.894,0.138,1.213,0.222S60.85,46.1,60.8,46.2s-0.088,0.225-0.161,0.355
	c-0.074,0.13-0.183,0.264-0.377,0.382c-0.194,0.119-0.472,0.222-0.882,0.289c-0.411,0.067-0.955,0.098-1.68,0.074
	s-1.325-0.1-1.812-0.211s-0.862-0.258-1.138-0.427s-0.45-0.36-0.537-0.558C54.125,45.906,54.125,45.7,54.2,45.5
	s0.169-0.4,0.267-0.587c0.098-0.188,0.201-0.362,0.295-0.513c0.094-0.15,0.178-0.275,0.239-0.363C55.062,43.95,55.1,43.9,55.1,43.9z
	"/>
<path d="M58.3,47.5c-0.05,0-0.1,0-0.15,0c-0.05,0-0.1,0-0.15,0s-0.1,0-0.15,0c-0.05,0-0.1,0-0.15,0
	c-0.475-0.025-0.913-0.069-1.308-0.131s-0.748-0.144-1.054-0.244c-0.306-0.1-0.566-0.219-0.773-0.356
	c-0.208-0.138-0.364-0.294-0.464-0.469c-0.05-0.075-0.087-0.15-0.114-0.225c-0.027-0.075-0.042-0.15-0.049-0.225
	c-0.007-0.075-0.004-0.15,0.007-0.225c0.011-0.075,0.03-0.15,0.055-0.225c0.075-0.175,0.169-0.362,0.267-0.545
	c0.098-0.183,0.201-0.361,0.295-0.517s0.178-0.291,0.239-0.386C54.862,43.856,54.9,43.8,54.9,43.8l0.025-0.025l0.025-0.025
	l0.025-0.025L55,43.7l1.6-0.05l1.6-0.05l1.6-0.05l1.6-0.05c0.025,0,0.069,0,0.123,0.006c0.055,0.006,0.12,0.019,0.189,0.044
	s0.14,0.062,0.208,0.119c0.067,0.056,0.13,0.131,0.18,0.231c0.05,0.05,0.094,0.106,0.13,0.169s0.064,0.131,0.083,0.206
	c0.018,0.075,0.028,0.156,0.026,0.244S62.325,44.7,62.3,44.8c-0.025,0.125-0.1,0.237-0.214,0.338
	c-0.114,0.1-0.267,0.187-0.448,0.262s-0.39,0.138-0.617,0.188c-0.227,0.05-0.471,0.087-0.721,0.112
	c0.1,0.025,0.194,0.05,0.278,0.076c0.084,0.026,0.159,0.054,0.222,0.085s0.112,0.066,0.147,0.105C60.981,46.006,61,46.05,61,46.1
	c0.025,0.025,0.044,0.05,0.056,0.075c0.012,0.025,0.019,0.05,0.019,0.075s-0.006,0.05-0.019,0.075
	C61.044,46.35,61.025,46.375,61,46.4c0,0,0,0.006-0.002,0.016s-0.005,0.022-0.011,0.034s-0.016,0.025-0.03,0.034
	S60.925,46.5,60.9,46.5c-0.05,0.1-0.112,0.213-0.209,0.325c-0.097,0.112-0.228,0.225-0.416,0.325s-0.431,0.188-0.753,0.25
	C59.2,47.463,58.8,47.5,58.3,47.5z M55.2,44.1c-0.05,0.05-0.112,0.131-0.181,0.233c-0.069,0.102-0.144,0.224-0.219,0.355
	s-0.15,0.272-0.219,0.411c-0.069,0.139-0.131,0.276-0.181,0.401c-0.025,0.05-0.044,0.094-0.056,0.133
	c-0.013,0.039-0.019,0.073-0.019,0.104s0.006,0.059,0.019,0.086c0.012,0.027,0.031,0.052,0.056,0.077
	c0.025,0.05,0.081,0.125,0.191,0.212C54.7,46.2,54.863,46.3,55.1,46.4s0.55,0.2,0.959,0.288c0.409,0.087,0.916,0.162,1.541,0.212
	c0.625,0.025,1.106,0.013,1.478-0.027c0.372-0.039,0.634-0.105,0.822-0.186s0.3-0.178,0.372-0.28
	c0.072-0.101,0.103-0.207,0.128-0.307l0,0l0,0l0,0l0,0c-0.1-0.05-0.269-0.1-0.486-0.148s-0.483-0.096-0.777-0.139
	c-0.294-0.043-0.615-0.084-0.945-0.12c-0.33-0.036-0.667-0.067-0.992-0.092v-0.125V45.35v-0.125V45.1
	c0.625,0.025,1.219,0.019,1.758-0.009c0.539-0.028,1.024-0.078,1.43-0.141c0.406-0.062,0.734-0.138,0.96-0.216
	c0.227-0.078,0.352-0.159,0.352-0.234c0-0.05,0-0.1-0.002-0.148s-0.005-0.096-0.011-0.139c-0.006-0.043-0.015-0.084-0.029-0.12
	S61.625,44.025,61.6,44c-0.025-0.05-0.062-0.088-0.105-0.116c-0.042-0.028-0.089-0.047-0.132-0.059
	c-0.044-0.013-0.085-0.019-0.114-0.022C61.219,43.8,61.2,43.8,61.2,43.8l-1.5,0.075l-1.5,0.075l-1.5,0.075L55.2,44.1z"/>
<path style="fill:#FFFFFF;" d="M50.8,44.9c0,0,0.087,0.075,0.234,0.194c0.147,0.119,0.353,0.281,0.591,0.456
	c0.237,0.175,0.506,0.362,0.778,0.531C52.675,46.25,52.95,46.4,53.2,46.5s0.475,0.231,0.661,0.38
	c0.186,0.148,0.333,0.314,0.426,0.482c0.094,0.169,0.135,0.341,0.108,0.502c-0.026,0.161-0.12,0.311-0.295,0.436
	c-0.175,0.125-0.581,0.237-1.089,0.306c-0.508,0.069-1.117,0.094-1.698,0.044c-0.582-0.05-1.135-0.175-1.53-0.406
	S49.15,47.675,49.2,47.2s0.175-0.856,0.334-1.161c0.159-0.305,0.353-0.533,0.541-0.701s0.369-0.278,0.503-0.345
	C50.713,44.925,50.8,44.9,50.8,44.9z"/>
<path d="M51.9,48.9c-0.2,0-0.406-0.006-0.612-0.022s-0.413-0.041-0.612-0.078c-0.2-0.037-0.394-0.088-0.575-0.153
	c-0.181-0.066-0.35-0.147-0.5-0.247c-0.175-0.1-0.312-0.206-0.419-0.314c-0.106-0.108-0.181-0.217-0.231-0.324
	s-0.075-0.21-0.081-0.305s0.006-0.182,0.031-0.257c0.05-0.475,0.188-0.869,0.366-1.192c0.178-0.324,0.397-0.577,0.609-0.771
	c0.213-0.194,0.419-0.328,0.572-0.414C50.6,44.737,50.7,44.7,50.7,44.7h0.025h0.025h0.025H50.8l0.025,0.025l0.025,0.025l0.025,0.025
	L50.9,44.8c0,0,0.087,0.075,0.233,0.192c0.145,0.117,0.348,0.277,0.579,0.446c0.231,0.169,0.491,0.347,0.749,0.502
	c0.258,0.155,0.514,0.286,0.738,0.36c0.175,0.05,0.338,0.125,0.484,0.217s0.278,0.201,0.391,0.32s0.207,0.247,0.279,0.377
	c0.072,0.13,0.122,0.261,0.147,0.386c0.025,0.1,0.031,0.194,0.022,0.281c-0.009,0.088-0.034,0.169-0.072,0.244
	s-0.088,0.144-0.147,0.206c-0.059,0.062-0.128,0.119-0.203,0.169s-0.188,0.1-0.33,0.147c-0.142,0.047-0.314,0.091-0.507,0.128
	c-0.194,0.037-0.41,0.069-0.639,0.091C52.394,48.888,52.15,48.9,51.9,48.9z M50.7,45.2c-0.075,0.05-0.188,0.119-0.317,0.216
	c-0.13,0.097-0.276,0.222-0.42,0.384c-0.144,0.163-0.285,0.362-0.402,0.609c-0.117,0.247-0.211,0.541-0.261,0.891
	c0,0.075,0.006,0.15,0.022,0.223c0.016,0.074,0.041,0.146,0.078,0.215s0.087,0.134,0.153,0.195C49.619,47.994,49.7,48.05,49.8,48.1
	c0.275,0.15,0.638,0.25,1.033,0.311s0.824,0.083,1.23,0.077s0.791-0.041,1.098-0.092S53.7,48.275,53.8,48.2
	c0.05-0.025,0.087-0.056,0.116-0.091c0.028-0.034,0.047-0.072,0.059-0.109c0.013-0.037,0.019-0.075,0.022-0.109
	C54,47.856,54,47.825,54,47.8c-0.025-0.1-0.069-0.194-0.128-0.281c-0.059-0.088-0.134-0.169-0.222-0.244s-0.188-0.144-0.297-0.206
	S53.125,46.95,53,46.9c-0.2-0.125-0.419-0.275-0.641-0.434s-0.447-0.328-0.659-0.491s-0.412-0.319-0.584-0.453
	C50.944,45.388,50.8,45.275,50.7,45.2z"/>
<path style="fill:#FFFFFF;" d="M48.1,45.4c0,0-0.019,0.119-0.086,0.308c-0.067,0.189-0.183,0.448-0.377,0.729
	c-0.194,0.281-0.465,0.585-0.845,0.861c-0.38,0.277-0.867,0.527-1.492,0.702c-0.6,0.175-1.181,0.194-1.702,0.116
	s-0.98-0.253-1.336-0.466c-0.356-0.213-0.609-0.463-0.717-0.691c-0.108-0.228-0.07-0.434,0.155-0.559
	c0.225-0.1,0.531-0.181,0.88-0.256c0.348-0.075,0.739-0.144,1.133-0.219c0.393-0.075,0.79-0.156,1.151-0.256S45.55,45.45,45.8,45.3
	c0.275-0.1,0.556-0.144,0.823-0.153c0.267-0.009,0.52,0.016,0.739,0.053s0.403,0.088,0.533,0.128C48.025,45.369,48.1,45.4,48.1,45.4
	z"/>
<path d="M44.2,48.5c-0.375,0-0.725-0.05-1.044-0.134c-0.319-0.084-0.606-0.203-0.856-0.341c-0.25-0.138-0.462-0.294-0.631-0.453
	S41.375,47.25,41.3,47.1c-0.025-0.075-0.037-0.15-0.037-0.223c0-0.074,0.013-0.146,0.037-0.215c0.025-0.069,0.062-0.134,0.112-0.195
	c0.05-0.061,0.113-0.117,0.188-0.167c0.125-0.05,0.256-0.094,0.395-0.134c0.139-0.041,0.286-0.078,0.443-0.116
	s0.322-0.075,0.498-0.116C43.113,45.894,43.3,45.85,43.5,45.8s0.406-0.094,0.611-0.136c0.205-0.042,0.408-0.083,0.602-0.127
	c0.194-0.043,0.378-0.09,0.545-0.145c0.167-0.055,0.317-0.117,0.442-0.192c0.275-0.15,0.562-0.225,0.841-0.253
	s0.547-0.009,0.784,0.028s0.444,0.094,0.597,0.141S48.175,45.2,48.2,45.2l0.05,0.025l0.05,0.025l0.05,0.025L48.4,45.3v0.05v0.05
	v0.05v0.05c0,0.025-0.025,0.169-0.103,0.381c-0.078,0.213-0.209,0.494-0.422,0.794c-0.212,0.3-0.506,0.619-0.909,0.906
	c-0.403,0.288-0.916,0.544-1.566,0.719c-0.1,0.025-0.2,0.05-0.3,0.073c-0.1,0.024-0.2,0.046-0.3,0.065s-0.2,0.035-0.3,0.045
	S44.3,48.5,44.2,48.5z M46.9,45.5c-0.075,0-0.15,0.006-0.225,0.017c-0.075,0.011-0.15,0.026-0.225,0.045
	c-0.075,0.019-0.15,0.041-0.225,0.064C46.15,45.65,46.075,45.675,46,45.7c-0.15,0.075-0.319,0.144-0.5,0.206
	s-0.375,0.119-0.575,0.169s-0.406,0.094-0.612,0.131C44.106,46.244,43.9,46.275,43.7,46.3c-0.175,0.025-0.35,0.056-0.52,0.091
	c-0.17,0.034-0.336,0.072-0.493,0.109c-0.156,0.037-0.303,0.075-0.436,0.109C42.118,46.644,42,46.675,41.9,46.7
	c-0.025,0-0.044,0.006-0.058,0.017c-0.014,0.011-0.023,0.026-0.029,0.045c-0.007,0.019-0.01,0.041-0.011,0.064
	S41.8,46.875,41.8,46.9c0.05,0.125,0.181,0.275,0.377,0.422s0.455,0.291,0.761,0.403s0.66,0.194,1.042,0.216
	c0.383,0.022,0.795-0.016,1.22-0.141c0.45-0.125,0.825-0.294,1.138-0.484S46.9,46.912,47.1,46.7s0.35-0.425,0.463-0.616
	S47.75,45.725,47.8,45.6c-0.05-0.025-0.106-0.044-0.169-0.058s-0.131-0.024-0.206-0.03c-0.075-0.006-0.156-0.009-0.244-0.011
	S47,45.5,46.9,45.5z"/>
<path style="fill:#FFFFFF;" d="M40.3,42.5c0,0,0.212,0.013,0.539,0.044s0.767,0.081,1.224,0.156
	c0.456,0.075,0.928,0.175,1.317,0.306c0.389,0.131,0.696,0.294,0.821,0.494s0.237,0.406,0.33,0.608s0.164,0.399,0.207,0.58
	c0.044,0.181,0.059,0.347,0.039,0.486c-0.02,0.139-0.077,0.251-0.177,0.326s-0.438,0.162-0.903,0.25s-1.059,0.175-1.672,0.25
	s-1.244,0.138-1.784,0.175C39.7,46.213,39.25,46.225,39,46.2c-0.25,0-0.469-0.094-0.645-0.234c-0.177-0.141-0.311-0.328-0.392-0.516
	c-0.082-0.188-0.11-0.375-0.074-0.516c0.036-0.141,0.136-0.234,0.311-0.234s0.456-0.019,0.78-0.047s0.689-0.066,1.032-0.103
	c0.344-0.038,0.666-0.075,0.902-0.103C41.15,44.419,41.3,44.4,41.3,44.4s-0.169,0.019-0.419,0.036
	c-0.25,0.017-0.581,0.033-0.906,0.026c-0.325-0.006-0.644-0.034-0.869-0.104C38.881,44.287,38.75,44.175,38.8,44
	c0.025-0.225,0.131-0.431,0.277-0.614c0.145-0.183,0.329-0.342,0.51-0.474c0.182-0.131,0.36-0.234,0.493-0.304
	C40.213,42.537,40.3,42.5,40.3,42.5z"/>
<path d="M39.1,46.4h-0.025H39.05h-0.025H39c-0.2,0-0.388-0.05-0.556-0.134c-0.169-0.084-0.319-0.203-0.444-0.341
	c-0.125-0.138-0.225-0.294-0.294-0.453C37.637,45.312,37.6,45.15,37.6,45c0-0.1,0.013-0.188,0.037-0.264
	c0.025-0.077,0.062-0.142,0.113-0.199c0.05-0.056,0.112-0.103,0.188-0.142S38.1,44.325,38.2,44.3c0.025,0,0.056,0,0.094,0
	c0.037,0,0.081,0,0.131,0s0.106,0,0.169,0s0.131,0,0.206,0l-0.025-0.025L38.75,44.25l-0.025-0.025L38.7,44.2
	c-0.025-0.025-0.05-0.056-0.072-0.091c-0.022-0.034-0.041-0.072-0.053-0.109s-0.019-0.075-0.016-0.109
	c0.003-0.034,0.016-0.066,0.041-0.091c0.05-0.2,0.169-0.394,0.322-0.573c0.153-0.18,0.341-0.345,0.528-0.489
	s0.375-0.265,0.528-0.357c0.153-0.092,0.272-0.155,0.322-0.18h0.025h0.025h0.025H40.4h0.025h0.025h0.025H40.5
	c0.15,0,0.444,0.019,0.809,0.059c0.366,0.041,0.803,0.103,1.241,0.191s0.875,0.2,1.241,0.341c0.366,0.141,0.659,0.309,0.809,0.509
	c0.05,0.075,0.125,0.194,0.206,0.339s0.169,0.317,0.244,0.498c0.075,0.181,0.138,0.371,0.169,0.554S45.25,45.05,45.2,45.2
	c0,0.05-0.013,0.094-0.033,0.133c-0.02,0.039-0.048,0.073-0.079,0.104s-0.066,0.059-0.098,0.086
	c-0.033,0.027-0.064,0.052-0.09,0.077c-0.175,0.1-0.55,0.2-1.033,0.294s-1.073,0.181-1.679,0.256
	c-0.607,0.075-1.229,0.138-1.774,0.181C39.869,46.375,39.4,46.4,39.1,46.4z M41.3,44.1l0.025,0.125l0.025,0.125l0.025,0.125
	L41.4,44.6c-0.025,0-0.188,0.019-0.428,0.047c-0.241,0.028-0.559,0.066-0.897,0.103c-0.337,0.037-0.694,0.075-1.009,0.103
	S38.475,44.9,38.3,44.9c-0.025,0-0.044,0-0.058,0.003s-0.023,0.009-0.029,0.022c-0.007,0.012-0.01,0.031-0.011,0.059
	C38.2,45.013,38.2,45.05,38.2,45.1c0,0.075,0.025,0.162,0.07,0.253s0.111,0.184,0.193,0.272c0.081,0.088,0.178,0.169,0.285,0.234
	c0.108,0.066,0.226,0.116,0.351,0.141c0.275,0,0.731-0.031,1.267-0.081s1.152-0.119,1.746-0.194
	c0.593-0.075,1.165-0.156,1.614-0.231C44.175,45.419,44.5,45.35,44.6,45.3c0,0,0.006,0,0.016-0.002s0.022-0.005,0.034-0.011
	c0.013-0.006,0.025-0.015,0.034-0.029c0.009-0.014,0.016-0.033,0.016-0.058c0.025-0.075,0.031-0.169,0.02-0.277
	c-0.011-0.108-0.039-0.23-0.082-0.361s-0.103-0.272-0.177-0.417C44.388,44,44.3,43.85,44.2,43.7c-0.075-0.1-0.256-0.2-0.506-0.295
	c-0.25-0.095-0.569-0.186-0.919-0.267c-0.35-0.081-0.731-0.153-1.106-0.211c-0.375-0.058-0.744-0.102-1.069-0.127
	c-0.125,0.05-0.269,0.125-0.416,0.216c-0.147,0.091-0.297,0.197-0.434,0.309s-0.263,0.231-0.359,0.347S39.225,43.9,39.2,44
	c-0.025,0.025,0.019,0.05,0.117,0.072c0.098,0.022,0.251,0.041,0.445,0.053c0.194,0.013,0.429,0.019,0.689,0.016
	C40.713,44.138,41,44.125,41.3,44.1z"/>
<path style="fill:#4AAFF8;" d="M57,49.7c0.025-0.175,0.1-0.325,0.206-0.444C57.312,49.138,57.45,49.05,57.6,49
	c0.15-0.05,0.312-0.062,0.469-0.031s0.306,0.106,0.431,0.231c0.325,0.3,0.681,0.644,1.031,1.014c0.35,0.37,0.694,0.767,0.994,1.174
	c0.3,0.406,0.556,0.821,0.731,1.229c0.175,0.408,0.269,0.808,0.244,1.183c-0.075,0.65-0.244,1.169-0.48,1.57
	c-0.236,0.402-0.539,0.686-0.882,0.868s-0.728,0.259-1.127,0.248C58.613,56.475,58.2,56.375,57.8,56.2
	c-0.4-0.2-0.675-0.569-0.856-1.044c-0.181-0.475-0.269-1.056-0.294-1.681c-0.025-0.625,0.013-1.294,0.081-1.944
	C56.8,50.881,56.9,50.25,57,49.7z"/>
<path d="M59,56.7c-0.125,0-0.25-0.006-0.373-0.019c-0.123-0.013-0.245-0.031-0.364-0.056c-0.119-0.025-0.235-0.056-0.346-0.094
	S57.7,56.45,57.6,56.4c-0.35-0.15-0.631-0.4-0.845-0.753c-0.214-0.353-0.361-0.809-0.443-1.372
	c-0.081-0.562-0.097-1.231-0.048-2.009S56.425,50.6,56.6,49.6l0,0l0,0l0,0l0,0c0.025-0.125,0.062-0.237,0.111-0.339
	c0.048-0.101,0.108-0.192,0.176-0.273c0.069-0.081,0.147-0.153,0.233-0.218s0.18-0.12,0.28-0.17c0.1-0.025,0.206-0.037,0.314-0.037
	s0.217,0.012,0.324,0.037s0.209,0.062,0.305,0.112c0.095,0.05,0.182,0.112,0.257,0.188c0.375,0.35,0.763,0.731,1.131,1.131
	c0.369,0.4,0.719,0.819,1.019,1.244s0.55,0.856,0.719,1.281S61.725,53.4,61.7,53.8c-0.05,0.4-0.131,0.744-0.233,1.039
	c-0.102,0.295-0.224,0.542-0.355,0.748s-0.272,0.372-0.411,0.505c-0.139,0.133-0.276,0.233-0.401,0.308
	c-0.075,0.05-0.163,0.094-0.259,0.131s-0.203,0.069-0.316,0.094s-0.231,0.044-0.353,0.056C59.25,56.694,59.125,56.7,59,56.7z
	 M57.4,49.7c-0.2,1.175-0.3,2.125-0.33,2.892s0.011,1.352,0.093,1.796c0.081,0.444,0.203,0.746,0.335,0.951
	c0.133,0.205,0.277,0.311,0.402,0.361c0.2,0.075,0.394,0.131,0.581,0.169s0.369,0.056,0.544,0.056s0.344-0.019,0.506-0.056
	C59.694,55.831,59.85,55.775,60,55.7s0.287-0.181,0.411-0.314s0.233-0.292,0.326-0.473s0.172-0.384,0.233-0.605
	c0.061-0.221,0.105-0.458,0.13-0.708c0.025-0.225-0.019-0.494-0.128-0.798c-0.109-0.305-0.284-0.645-0.522-1.014
	s-0.537-0.765-0.897-1.183S58.775,49.75,58.3,49.3c-0.05-0.05-0.1-0.081-0.148-0.1s-0.096-0.025-0.139-0.025
	c-0.044,0-0.084,0.006-0.12,0.013C57.856,49.194,57.825,49.2,57.8,49.2c-0.075,0.05-0.138,0.094-0.189,0.134
	c-0.052,0.041-0.092,0.078-0.123,0.116c-0.032,0.038-0.053,0.075-0.068,0.116C57.406,49.606,57.4,49.65,57.4,49.7L57.4,49.7
	L57.4,49.7L57.4,49.7L57.4,49.7z"/>
<path style="fill:#4AAFF8;" d="M56.8,63.6c0.025-0.175,0.1-0.325,0.206-0.444S57.25,62.95,57.4,62.9s0.312-0.062,0.469-0.031
	s0.306,0.106,0.431,0.231c0.325,0.3,0.681,0.644,1.031,1.014c0.35,0.37,0.694,0.767,0.994,1.174c0.3,0.406,0.556,0.821,0.731,1.229
	c0.175,0.408,0.269,0.808,0.244,1.183c-0.075,0.65-0.244,1.169-0.48,1.57c-0.236,0.402-0.539,0.686-0.882,0.868
	s-0.728,0.259-1.127,0.248C58.413,70.375,58,70.275,57.6,70.1c-0.425-0.2-0.713-0.569-0.898-1.044s-0.27-1.056-0.289-1.681
	c-0.019-0.625,0.028-1.294,0.104-1.944S56.7,64.15,56.8,63.6z"/>
<path d="M58.8,70.7c-0.125,0-0.25-0.006-0.373-0.019c-0.123-0.012-0.245-0.031-0.364-0.056c-0.119-0.025-0.235-0.056-0.346-0.094
	S57.5,70.45,57.4,70.4c-0.35-0.15-0.631-0.4-0.845-0.753s-0.361-0.809-0.443-1.372c-0.081-0.562-0.097-1.231-0.048-2.009
	c0.049-0.778,0.161-1.666,0.336-2.666l0,0l0,0l0,0l0,0c0.025-0.125,0.062-0.237,0.111-0.339c0.048-0.101,0.108-0.192,0.176-0.273
	s0.147-0.153,0.233-0.217c0.086-0.064,0.18-0.121,0.28-0.171c0.1-0.025,0.206-0.037,0.316-0.037s0.222,0.012,0.334,0.037
	s0.225,0.062,0.334,0.112S58.4,62.825,58.5,62.9c0.375,0.35,0.763,0.731,1.131,1.131c0.369,0.4,0.719,0.819,1.019,1.244
	s0.55,0.856,0.719,1.281S61.625,67.4,61.6,67.8c-0.05,0.4-0.131,0.744-0.233,1.039c-0.102,0.295-0.224,0.542-0.355,0.748
	c-0.131,0.207-0.272,0.372-0.411,0.505S60.325,70.325,60.2,70.4c-0.125,0.05-0.244,0.094-0.359,0.131
	c-0.116,0.038-0.228,0.069-0.341,0.094c-0.112,0.025-0.225,0.044-0.341,0.056C59.044,70.694,58.925,70.7,58.8,70.7z M57.1,63.7
	c-0.2,1.175-0.3,2.125-0.33,2.892c-0.03,0.767,0.011,1.351,0.093,1.795c0.081,0.444,0.203,0.747,0.336,0.952
	c0.133,0.205,0.276,0.311,0.401,0.361c0.2,0.075,0.394,0.131,0.581,0.169c0.188,0.038,0.369,0.056,0.544,0.056
	s0.344-0.019,0.506-0.056c0.162-0.037,0.319-0.094,0.469-0.169s0.287-0.181,0.411-0.314s0.233-0.292,0.326-0.473
	c0.094-0.181,0.172-0.385,0.233-0.605s0.105-0.458,0.13-0.708c0.025-0.225-0.019-0.494-0.128-0.797s-0.284-0.641-0.522-1.003
	s-0.538-0.75-0.897-1.153S58.475,63.825,58,63.4c-0.05-0.05-0.1-0.081-0.148-0.1c-0.049-0.019-0.096-0.025-0.139-0.025
	c-0.044,0-0.084,0.006-0.12,0.013C57.556,63.294,57.525,63.3,57.5,63.3c-0.05,0-0.094,0.013-0.133,0.034
	c-0.039,0.022-0.073,0.053-0.104,0.091c-0.031,0.038-0.06,0.081-0.086,0.128C57.15,63.6,57.125,63.65,57.1,63.7L57.1,63.7L57.1,63.7
	L57.1,63.7L57.1,63.7z"/>
<path style="fill:#4AAFF8;" d="M56.8,77.6c0.025-0.175,0.1-0.325,0.206-0.444S57.25,76.95,57.4,76.9s0.312-0.062,0.469-0.031
	s0.306,0.106,0.431,0.231c0.325,0.3,0.681,0.644,1.031,1.014c0.35,0.37,0.694,0.767,0.994,1.174c0.3,0.406,0.556,0.821,0.731,1.229
	c0.175,0.408,0.269,0.808,0.244,1.183c-0.075,0.65-0.244,1.169-0.48,1.57c-0.236,0.402-0.539,0.686-0.882,0.868
	s-0.728,0.259-1.127,0.248C58.413,84.375,58,84.275,57.6,84.1c-0.425-0.2-0.713-0.569-0.898-1.044s-0.27-1.056-0.289-1.681
	c-0.019-0.625,0.028-1.294,0.104-1.944S56.7,78.15,56.8,77.6z"/>
<path d="M58.8,84.6c-0.125,0-0.25-0.006-0.373-0.019c-0.123-0.012-0.245-0.031-0.364-0.056c-0.119-0.025-0.235-0.056-0.346-0.094
	S57.5,84.35,57.4,84.3c-0.35-0.15-0.631-0.4-0.845-0.753c-0.214-0.353-0.361-0.809-0.443-1.372
	c-0.081-0.562-0.097-1.231-0.048-2.009c0.049-0.778,0.161-1.666,0.336-2.666l0,0l0,0l0,0l0,0c0.025-0.125,0.062-0.238,0.111-0.339
	s0.108-0.192,0.176-0.274s0.147-0.153,0.233-0.217c0.086-0.064,0.18-0.12,0.28-0.17s0.206-0.075,0.316-0.08
	c0.109-0.005,0.222,0.011,0.334,0.043s0.225,0.078,0.334,0.136c0.109,0.058,0.216,0.126,0.316,0.201
	c0.375,0.35,0.763,0.731,1.131,1.131c0.369,0.4,0.719,0.819,1.019,1.244c0.3,0.425,0.55,0.856,0.719,1.281S61.625,81.3,61.6,81.7
	c-0.05,0.4-0.131,0.744-0.233,1.039c-0.102,0.295-0.224,0.542-0.355,0.748s-0.272,0.372-0.411,0.505
	c-0.139,0.133-0.276,0.233-0.401,0.308c-0.125,0.05-0.244,0.094-0.359,0.131c-0.116,0.037-0.228,0.069-0.341,0.094
	c-0.112,0.025-0.225,0.044-0.341,0.056C59.044,84.594,58.925,84.6,58.8,84.6z M57.1,77.6c-0.2,1.175-0.3,2.125-0.33,2.892
	s0.011,1.352,0.093,1.796c0.081,0.444,0.203,0.746,0.336,0.951c0.133,0.205,0.276,0.311,0.401,0.361
	c0.2,0.075,0.394,0.131,0.581,0.169s0.369,0.056,0.544,0.056s0.344-0.019,0.506-0.056c0.162-0.037,0.319-0.094,0.469-0.169
	s0.287-0.181,0.411-0.314s0.233-0.292,0.326-0.473c0.094-0.181,0.172-0.385,0.233-0.605c0.061-0.22,0.105-0.458,0.13-0.708
	c0.025-0.225-0.019-0.494-0.128-0.797c-0.109-0.303-0.284-0.641-0.522-1.003s-0.537-0.75-0.897-1.153
	C58.894,78.144,58.475,77.725,58,77.3c-0.05-0.05-0.1-0.081-0.148-0.1s-0.096-0.025-0.139-0.025c-0.044,0-0.084,0.006-0.12,0.013
	C57.556,77.194,57.525,77.2,57.5,77.2c-0.05,0.025-0.094,0.05-0.133,0.076c-0.039,0.026-0.073,0.054-0.104,0.086
	c-0.031,0.032-0.06,0.066-0.086,0.105C57.15,77.506,57.125,77.55,57.1,77.6L57.1,77.6L57.1,77.6L57.1,77.6L57.1,77.6z"/>
<path style="fill:#4AAFF8;" d="M64.2,70.4c0.025-0.175,0.1-0.319,0.206-0.428s0.244-0.184,0.394-0.222
	c0.15-0.037,0.312-0.037,0.469,0.003c0.156,0.041,0.306,0.122,0.431,0.247c0.3,0.3,0.637,0.656,0.972,1.044
	c0.334,0.388,0.666,0.806,0.953,1.231c0.287,0.425,0.531,0.856,0.691,1.269c0.159,0.413,0.234,0.806,0.184,1.156
	c-0.1,0.625-0.287,1.125-0.537,1.511s-0.562,0.658-0.912,0.827s-0.738,0.234-1.137,0.208C65.513,77.219,65.1,77.1,64.7,76.9
	s-0.662-0.569-0.823-1.044c-0.161-0.475-0.22-1.056-0.214-1.681c0.006-0.625,0.078-1.294,0.179-1.944
	C63.944,71.581,64.075,70.95,64.2,70.4z"/>
<path d="M66.1,77.6c-0.125,0-0.25-0.006-0.375-0.02c-0.125-0.014-0.25-0.036-0.375-0.068s-0.25-0.072-0.375-0.123
	s-0.25-0.114-0.375-0.189c-0.325-0.175-0.588-0.444-0.784-0.811c-0.197-0.367-0.328-0.833-0.391-1.402
	c-0.062-0.569-0.056-1.24,0.022-2.02S63.675,71.3,63.9,70.3c0.025-0.1,0.062-0.2,0.113-0.295c0.05-0.095,0.112-0.186,0.188-0.267
	s0.162-0.153,0.262-0.211s0.213-0.102,0.338-0.127c0.1-0.025,0.206-0.038,0.314-0.038s0.217,0.013,0.324,0.038
	c0.106,0.025,0.209,0.062,0.304,0.113c0.095,0.05,0.183,0.113,0.258,0.188c0.35,0.35,0.719,0.744,1.072,1.161
	s0.691,0.858,0.978,1.302c0.287,0.443,0.525,0.89,0.678,1.32c0.153,0.43,0.222,0.842,0.172,1.217c-0.05,0.4-0.137,0.744-0.248,1.039
	c-0.111,0.295-0.245,0.542-0.389,0.748c-0.144,0.206-0.297,0.372-0.446,0.505c-0.149,0.133-0.292,0.233-0.417,0.308
	c-0.125,0.05-0.244,0.094-0.358,0.131s-0.223,0.069-0.329,0.094c-0.106,0.025-0.21,0.044-0.311,0.056
	C66.3,77.594,66.2,77.6,66.1,77.6z M65,70.1h-0.025H64.95h-0.025H64.9c-0.05,0.025-0.094,0.05-0.131,0.076
	c-0.038,0.027-0.069,0.055-0.094,0.086s-0.044,0.065-0.056,0.105S64.6,70.45,64.6,70.5l0,0l0,0l0,0l0,0
	c-0.25,1.175-0.394,2.125-0.459,2.894c-0.066,0.769-0.053,1.356,0.009,1.806s0.175,0.762,0.309,0.981S64.75,76.525,64.9,76.6
	c0.2,0.1,0.394,0.175,0.581,0.227c0.188,0.051,0.369,0.079,0.544,0.085c0.175,0.007,0.344-0.009,0.506-0.045S66.85,76.775,67,76.7
	s0.288-0.175,0.411-0.299s0.233-0.271,0.327-0.439c0.093-0.168,0.172-0.359,0.232-0.57s0.105-0.442,0.13-0.692
	c0.025-0.225-0.019-0.494-0.127-0.8s-0.28-0.65-0.511-1.025c-0.231-0.375-0.521-0.781-0.867-1.213
	C66.25,71.231,65.85,70.775,65.4,70.3c-0.025-0.05-0.05-0.088-0.076-0.116c-0.027-0.028-0.055-0.047-0.086-0.059
	c-0.032-0.012-0.066-0.019-0.105-0.022C65.094,70.1,65.05,70.1,65,70.1z"/>
<path style="fill:#4AAFF8;" d="M64.1,57.8c0.025-0.175,0.094-0.319,0.191-0.43c0.097-0.111,0.222-0.189,0.359-0.233
	c0.138-0.044,0.287-0.053,0.434-0.026c0.147,0.027,0.291,0.089,0.416,0.189c0.325,0.3,0.688,0.65,1.045,1.028
	c0.358,0.378,0.711,0.784,1.017,1.197c0.307,0.413,0.566,0.831,0.736,1.234c0.17,0.403,0.252,0.791,0.202,1.141
	c-0.075,0.65-0.244,1.169-0.48,1.57c-0.236,0.402-0.539,0.686-0.883,0.868c-0.343,0.181-0.728,0.259-1.126,0.248
	C65.613,64.575,65.2,64.475,64.8,64.3c-0.375-0.175-0.631-0.531-0.799-1.001s-0.245-1.055-0.264-1.686
	c-0.019-0.632,0.022-1.31,0.093-1.968C63.9,58.987,64,58.35,64.1,57.8z"/>
<path d="M66.1,65c-0.125,0-0.25-0.006-0.373-0.019c-0.124-0.012-0.245-0.031-0.365-0.056c-0.118-0.025-0.234-0.056-0.345-0.094
	C64.906,64.794,64.8,64.75,64.7,64.7c-0.35-0.15-0.631-0.406-0.844-0.769c-0.213-0.362-0.356-0.831-0.431-1.406
	c-0.075-0.575-0.081-1.256-0.019-2.044C63.469,59.694,63.6,58.8,63.8,57.8c0.025-0.1,0.062-0.2,0.111-0.295
	c0.048-0.095,0.108-0.186,0.176-0.267c0.069-0.081,0.147-0.153,0.233-0.211c0.086-0.058,0.18-0.102,0.28-0.127
	s0.206-0.037,0.314-0.037s0.217,0.012,0.324,0.037c0.106,0.025,0.209,0.062,0.304,0.112c0.095,0.05,0.183,0.112,0.258,0.188
	c0.375,0.35,0.769,0.737,1.145,1.145c0.377,0.408,0.736,0.836,1.043,1.268c0.306,0.431,0.559,0.865,0.723,1.285
	S68.95,61.725,68.9,62.1c-0.05,0.4-0.131,0.744-0.233,1.039s-0.224,0.542-0.355,0.748c-0.131,0.207-0.271,0.372-0.41,0.505
	c-0.139,0.133-0.277,0.233-0.402,0.308c-0.1,0.025-0.206,0.056-0.317,0.089c-0.111,0.033-0.226,0.067-0.345,0.099
	c-0.119,0.031-0.241,0.059-0.365,0.079C66.35,64.988,66.225,65,66.1,65z M64.9,57.5c-0.025,0-0.044,0-0.059,0
	c-0.016,0-0.028,0-0.041,0s-0.025,0-0.041,0s-0.034,0-0.059,0c-0.05,0.025-0.094,0.05-0.131,0.076
	c-0.038,0.026-0.069,0.054-0.094,0.085s-0.044,0.066-0.056,0.105S64.4,57.85,64.4,57.9l0,0l0,0l0,0l0,0
	c-0.225,1.175-0.338,2.125-0.372,2.894c-0.034,0.769,0.009,1.356,0.097,1.806s0.219,0.762,0.359,0.981S64.775,63.925,64.9,64
	c0.2,0.075,0.394,0.131,0.581,0.169c0.188,0.038,0.369,0.056,0.544,0.056s0.344-0.019,0.506-0.056C66.694,64.131,66.85,64.075,67,64
	c0.15-0.075,0.288-0.181,0.411-0.314c0.123-0.133,0.233-0.292,0.327-0.473s0.172-0.384,0.233-0.605
	c0.061-0.221,0.104-0.458,0.129-0.708s-0.025-0.531-0.144-0.841c-0.119-0.309-0.306-0.647-0.556-1.009s-0.562-0.75-0.931-1.159
	C66.1,58.481,65.675,58.05,65.2,57.6c0-0.025-0.006-0.044-0.019-0.058c-0.012-0.014-0.031-0.024-0.056-0.03
	c-0.025-0.006-0.056-0.009-0.094-0.011S64.95,57.5,64.9,57.5z"/>
<path style="fill:#4AAFF8;" d="M71.8,66.5c-0.025-0.15-0.006-0.288,0.045-0.405c0.051-0.117,0.136-0.214,0.242-0.283
	s0.234-0.109,0.373-0.114C72.6,65.693,72.75,65.725,72.9,65.8c0.375,0.2,0.819,0.438,1.276,0.705
	c0.458,0.267,0.93,0.564,1.361,0.883c0.432,0.318,0.822,0.659,1.118,1.014c0.295,0.355,0.495,0.723,0.545,1.098
	c0.1,0.625,0.075,1.156-0.045,1.598s-0.336,0.795-0.617,1.064s-0.628,0.453-1.011,0.558c-0.383,0.105-0.802,0.13-1.227,0.08
	c-0.45-0.075-0.819-0.369-1.122-0.802c-0.303-0.433-0.541-1.005-0.728-1.636c-0.188-0.631-0.325-1.322-0.428-1.992
	S71.85,67.05,71.8,66.5z"/>
<path d="M74.8,73.1c-0.05,0-0.1,0-0.15,0c-0.05,0-0.1,0-0.15,0s-0.1,0-0.15,0c-0.05,0-0.1,0-0.15,0
	c-0.375-0.05-0.713-0.225-1.014-0.525c-0.301-0.3-0.567-0.725-0.798-1.275c-0.231-0.55-0.428-1.225-0.592-2.025
	c-0.164-0.8-0.295-1.725-0.396-2.775l0,0l0,0l0,0l0,0c0-0.1,0.006-0.2,0.022-0.297c0.016-0.097,0.041-0.191,0.078-0.278
	s0.087-0.169,0.153-0.241C71.719,65.612,71.8,65.55,71.9,65.5c0.075-0.05,0.162-0.094,0.256-0.128
	c0.094-0.034,0.194-0.059,0.294-0.072c0.1-0.013,0.2-0.013,0.294,0.003C72.838,65.319,72.925,65.35,73,65.4
	c0.475,0.25,0.975,0.525,1.463,0.822c0.487,0.297,0.962,0.616,1.387,0.953s0.8,0.694,1.088,1.066C77.225,68.612,77.425,69,77.5,69.4
	s0.1,0.75,0.088,1.058c-0.013,0.308-0.062,0.574-0.138,0.805s-0.175,0.428-0.287,0.598c-0.113,0.17-0.238,0.314-0.363,0.439
	c-0.1,0.15-0.225,0.275-0.369,0.378c-0.144,0.103-0.306,0.184-0.481,0.247c-0.175,0.063-0.363,0.106-0.556,0.134
	C75.2,73.088,75,73.1,74.8,73.1z M72.5,66c-0.025,0-0.05,0-0.073,0.002c-0.023,0.001-0.045,0.004-0.064,0.01
	c-0.019,0.007-0.035,0.016-0.046,0.03C72.306,66.056,72.3,66.075,72.3,66.1c-0.025,0-0.05,0.006-0.073,0.019
	c-0.023,0.012-0.045,0.031-0.064,0.056c-0.019,0.025-0.035,0.056-0.046,0.094C72.106,66.306,72.1,66.35,72.1,66.4l0,0l0,0l0,0l0,0
	c0.1,1.175,0.237,2.125,0.398,2.891s0.346,1.347,0.54,1.784c0.194,0.437,0.396,0.731,0.595,0.922
	c0.198,0.191,0.392,0.278,0.567,0.303c0.2,0.025,0.4,0.031,0.594,0.019c0.194-0.012,0.381-0.044,0.556-0.094
	s0.338-0.119,0.481-0.206c0.144-0.087,0.269-0.194,0.369-0.319c0.125-0.125,0.225-0.269,0.303-0.43s0.134-0.339,0.172-0.533
	s0.056-0.403,0.059-0.627c0.003-0.223-0.009-0.461-0.034-0.711c-0.05-0.25-0.181-0.513-0.387-0.786
	c-0.206-0.273-0.488-0.558-0.838-0.851s-0.769-0.597-1.25-0.908c-0.481-0.311-1.025-0.63-1.625-0.955
	c0.025,0.05,0.037,0.081,0.041,0.1s-0.003,0.025-0.016,0.025s-0.031-0.006-0.053-0.013C72.55,66.006,72.525,66,72.5,66z"/>
<path style="fill:#4AAFF8;" d="M50.2,54.4c0,0,0.181,0.244,0.43,0.656s0.564,0.994,0.833,1.669s0.491,1.444,0.551,2.231
	S51.975,60.55,51.6,61.3c-0.35,0.725-0.906,1.15-1.525,1.317c-0.619,0.167-1.3,0.077-1.9-0.229c-0.6-0.306-1.119-0.828-1.413-1.524
	C46.469,60.169,46.4,59.3,46.7,58.3s0.619-1.819,0.941-2.466c0.322-0.647,0.647-1.122,0.959-1.434s0.612-0.462,0.884-0.459
	S50,54.1,50.2,54.4z"/>
<path d="M49.4,63.1c-0.1,0-0.194-0.006-0.284-0.017s-0.178-0.026-0.266-0.045s-0.175-0.041-0.266-0.064
	C48.494,62.95,48.4,62.925,48.3,62.9c-0.35-0.15-0.694-0.369-1-0.65c-0.306-0.281-0.575-0.625-0.775-1.025s-0.331-0.856-0.362-1.362
	C46.131,59.356,46.2,58.8,46.4,58.2c0.225-0.7,0.456-1.331,0.694-1.886c0.238-0.555,0.481-1.033,0.731-1.426s0.506-0.703,0.769-0.92
	c0.263-0.217,0.531-0.343,0.806-0.368c0.075,0,0.162,0,0.256,0.009c0.094,0.009,0.194,0.028,0.294,0.066s0.2,0.094,0.294,0.178
	c0.094,0.084,0.181,0.197,0.256,0.347c0.05,0.075,0.262,0.375,0.53,0.831c0.267,0.456,0.589,1.069,0.858,1.769
	c0.269,0.7,0.484,1.487,0.539,2.294C52.481,59.9,52.375,60.725,52,61.5c-0.15,0.25-0.319,0.475-0.505,0.672
	s-0.389,0.366-0.607,0.503c-0.219,0.138-0.453,0.244-0.702,0.316C49.938,63.062,49.675,63.1,49.4,63.1z M49.5,54.3
	c0,0-0.006,0-0.014,0s-0.017,0-0.023,0c-0.007,0-0.01,0-0.005,0C49.463,54.3,49.475,54.3,49.5,54.3
	c-0.125,0.025-0.275,0.1-0.445,0.247c-0.17,0.147-0.361,0.366-0.568,0.678s-0.428,0.719-0.661,1.241
	c-0.233,0.522-0.476,1.159-0.726,1.934c-0.15,0.5-0.206,0.956-0.188,1.367c0.019,0.411,0.113,0.776,0.263,1.095
	c0.15,0.319,0.356,0.591,0.6,0.814C48.019,61.9,48.3,62.075,48.6,62.2c0.225,0.1,0.469,0.163,0.717,0.181s0.502-0.006,0.746-0.081
	c0.243-0.075,0.478-0.2,0.689-0.381C50.963,61.737,51.15,61.5,51.3,61.2c0.325-0.675,0.4-1.419,0.33-2.155
	c-0.07-0.736-0.286-1.464-0.543-2.108c-0.256-0.643-0.553-1.203-0.785-1.601C50.069,54.938,49.9,54.7,49.9,54.7l0,0l0,0l0,0l0,0
	c-0.05-0.075-0.094-0.138-0.133-0.189c-0.039-0.052-0.073-0.092-0.104-0.123s-0.059-0.053-0.086-0.067
	C49.55,54.306,49.525,54.3,49.5,54.3z"/>
<path style="fill:#4AAFF8;" d="M50.2,68.4c0,0,0.181,0.244,0.43,0.656s0.564,0.994,0.833,1.669c0.268,0.675,0.49,1.444,0.551,2.231
	c0.061,0.787-0.039,1.594-0.414,2.344s-0.944,1.188-1.567,1.359s-1.301,0.078-1.895-0.234s-1.103-0.844-1.389-1.547
	C46.463,74.175,46.4,73.3,46.7,72.3s0.619-1.825,0.941-2.48c0.322-0.655,0.647-1.139,0.959-1.458
	c0.312-0.318,0.612-0.471,0.884-0.464S50,68.075,50.2,68.4z"/>
<path d="M49.4,77c-0.1,0-0.194-0.006-0.284-0.017c-0.091-0.011-0.178-0.026-0.266-0.045s-0.175-0.04-0.266-0.064
	S48.4,76.825,48.3,76.8c-0.35-0.15-0.694-0.369-1-0.65c-0.306-0.281-0.575-0.625-0.775-1.025s-0.331-0.856-0.362-1.363
	C46.131,73.256,46.2,72.7,46.4,72.1c0.225-0.7,0.456-1.331,0.694-1.886c0.238-0.555,0.481-1.033,0.731-1.426s0.506-0.703,0.769-0.92
	s0.531-0.343,0.806-0.368c0.075,0,0.162,0,0.256,0.009s0.194,0.028,0.294,0.066s0.2,0.094,0.294,0.178S50.425,67.95,50.5,68.1
	c0.05,0.075,0.262,0.375,0.53,0.831c0.267,0.456,0.589,1.069,0.858,1.769c0.269,0.7,0.484,1.488,0.539,2.294
	C52.481,73.8,52.375,74.625,52,75.4c-0.15,0.275-0.319,0.512-0.505,0.714s-0.389,0.367-0.607,0.498s-0.453,0.228-0.702,0.292
	C49.938,76.968,49.675,77,49.4,77z M49.5,68.3c0,0-0.006,0-0.014,0s-0.017,0-0.023,0c-0.007,0-0.01,0-0.005,0
	C49.463,68.3,49.475,68.3,49.5,68.3c-0.125,0.025-0.275,0.1-0.445,0.247c-0.17,0.147-0.361,0.366-0.568,0.678
	s-0.428,0.719-0.661,1.241S47.35,71.625,47.1,72.4c-0.15,0.5-0.206,0.956-0.188,1.367c0.019,0.411,0.113,0.777,0.263,1.096
	s0.356,0.591,0.6,0.814C48.019,75.9,48.3,76.075,48.6,76.2c0.225,0.1,0.469,0.162,0.717,0.181c0.249,0.019,0.502-0.006,0.746-0.081
	c0.243-0.075,0.478-0.2,0.689-0.381C50.963,75.738,51.15,75.5,51.3,75.2c0.325-0.675,0.4-1.419,0.33-2.155
	c-0.07-0.736-0.286-1.464-0.543-2.107s-0.553-1.203-0.786-1.602C50.069,68.938,49.9,68.7,49.9,68.7l0,0l0,0l0,0l0,0
	c-0.05-0.1-0.094-0.175-0.133-0.231c-0.039-0.056-0.073-0.094-0.104-0.119c-0.032-0.025-0.06-0.037-0.086-0.044
	C49.55,68.3,49.525,68.3,49.5,68.3z"/>
<path style="fill:#4AAFF8;" d="M50.2,83.8c0,0,0.181,0.244,0.43,0.656s0.564,0.994,0.833,1.669c0.268,0.675,0.49,1.444,0.551,2.231
	c0.061,0.787-0.039,1.594-0.414,2.344s-0.944,1.188-1.567,1.359s-1.301,0.078-1.895-0.234s-1.103-0.844-1.389-1.547
	C46.463,89.575,46.4,88.7,46.7,87.7s0.619-1.819,0.941-2.466c0.322-0.647,0.647-1.122,0.959-1.434s0.612-0.463,0.884-0.459
	S50,83.5,50.2,83.8z"/>
<path d="M49.4,92.5c-0.1,0-0.194-0.006-0.284-0.017c-0.091-0.011-0.178-0.026-0.266-0.045s-0.175-0.04-0.266-0.064
	S48.4,92.325,48.3,92.3c-0.35-0.15-0.694-0.369-1-0.65c-0.306-0.281-0.575-0.625-0.775-1.025s-0.331-0.856-0.362-1.363
	C46.131,88.756,46.2,88.2,46.4,87.6c0.225-0.7,0.456-1.331,0.694-1.886c0.238-0.555,0.481-1.033,0.731-1.426s0.506-0.703,0.769-0.92
	S49.125,83.025,49.4,83c0.075,0,0.162,0,0.256,0.009s0.194,0.028,0.294,0.066s0.2,0.094,0.294,0.178S50.425,83.45,50.5,83.6
	c0.05,0.075,0.262,0.375,0.53,0.831c0.267,0.456,0.589,1.069,0.858,1.769c0.269,0.7,0.484,1.488,0.539,2.294
	C52.481,89.3,52.375,90.125,52,90.9c-0.15,0.25-0.319,0.475-0.505,0.672s-0.389,0.366-0.607,0.503
	c-0.219,0.137-0.453,0.244-0.702,0.316S49.675,92.5,49.4,92.5z M49.5,83.7c0,0-0.006,0-0.014,0s-0.017,0-0.023,0
	c-0.007,0-0.01,0-0.005,0C49.463,83.7,49.475,83.7,49.5,83.7c-0.125,0.025-0.275,0.1-0.445,0.247
	c-0.17,0.147-0.361,0.366-0.568,0.678s-0.428,0.719-0.661,1.241S47.35,87.025,47.1,87.8c-0.15,0.5-0.206,0.956-0.188,1.367
	c0.019,0.411,0.113,0.777,0.263,1.096s0.356,0.591,0.6,0.814C48.019,91.3,48.3,91.475,48.6,91.6c0.225,0.1,0.469,0.162,0.717,0.181
	c0.249,0.019,0.502-0.006,0.746-0.081c0.243-0.075,0.478-0.2,0.689-0.381S51.15,90.9,51.3,90.6c0.325-0.675,0.4-1.419,0.33-2.155
	c-0.07-0.736-0.286-1.464-0.543-2.107s-0.553-1.203-0.786-1.602C50.069,84.338,49.9,84.1,49.9,84.1l0,0l0,0l0,0l0,0
	c-0.05-0.1-0.094-0.175-0.133-0.231c-0.039-0.056-0.073-0.094-0.104-0.119c-0.032-0.025-0.06-0.038-0.086-0.044
	C49.55,83.7,49.525,83.7,49.5,83.7z"/>
<path style="fill:#4AAFF8;" d="M43.5,49.6c0,0,0.1,0.444,0.186,1.103c0.086,0.659,0.158,1.534,0.101,2.397
	c-0.056,0.862-0.24,1.713-0.667,2.322C42.694,56.031,42.025,56.4,41,56.3s-1.662-0.425-2.028-0.875
	c-0.366-0.45-0.459-1.025-0.397-1.625s0.281-1.225,0.541-1.775C39.375,51.475,39.675,51,39.9,50.7c0.2-0.225,0.5-0.55,0.844-0.875
	s0.731-0.65,1.106-0.875s0.737-0.35,1.031-0.275C43.175,48.75,43.4,49.025,43.5,49.6z"/>
<path d="M41.4,56.7c-0.025,0-0.05,0-0.076,0c-0.026,0-0.054,0-0.085,0s-0.066,0-0.105,0s-0.083,0-0.133,0
	c-0.325-0.025-0.625-0.081-0.899-0.164c-0.273-0.083-0.521-0.192-0.739-0.323s-0.41-0.284-0.57-0.455
	C38.631,55.588,38.5,55.4,38.4,55.2c-0.175-0.4-0.225-0.844-0.192-1.297s0.148-0.916,0.304-1.353s0.353-0.85,0.549-1.203
	c0.195-0.353,0.389-0.647,0.54-0.847c0.025-0.025,0.162-0.2,0.376-0.442c0.214-0.242,0.505-0.551,0.836-0.845
	c0.331-0.294,0.703-0.572,1.08-0.752C42.269,48.281,42.65,48.2,43,48.3c0.125,0.025,0.237,0.075,0.338,0.147
	c0.1,0.072,0.188,0.166,0.262,0.278c0.075,0.112,0.138,0.244,0.188,0.391s0.088,0.309,0.112,0.484
	c0.025,0.075,0.1,0.394,0.173,0.858c0.073,0.464,0.145,1.074,0.164,1.73c0.019,0.656-0.015,1.359-0.154,2.011
	C43.944,54.85,43.7,55.45,43.3,55.9c-0.125,0.15-0.263,0.275-0.409,0.378c-0.147,0.103-0.303,0.184-0.466,0.247
	s-0.331,0.106-0.503,0.134C41.75,56.688,41.575,56.7,41.4,56.7z M42.7,49c-0.15,0-0.331,0.062-0.531,0.172s-0.419,0.266-0.644,0.453
	s-0.456,0.406-0.681,0.641S40.4,50.75,40.2,51c-0.15,0.2-0.325,0.469-0.495,0.778s-0.336,0.659-0.467,1.022
	c-0.132,0.362-0.229,0.737-0.261,1.097S38.975,54.6,39.1,54.9c0.075,0.15,0.169,0.287,0.284,0.411
	c0.116,0.123,0.253,0.233,0.416,0.326s0.35,0.172,0.566,0.233c0.216,0.061,0.459,0.105,0.734,0.13
	c0.175,0.025,0.344,0.031,0.503,0.02s0.309-0.039,0.447-0.082c0.138-0.044,0.263-0.103,0.372-0.177
	c0.109-0.073,0.203-0.161,0.278-0.261c0.35-0.375,0.55-0.919,0.653-1.523c0.103-0.605,0.109-1.27,0.072-1.889
	c-0.038-0.619-0.119-1.191-0.191-1.608C43.162,50.062,43.1,49.8,43.1,49.8l0,0l0,0l0,0l0,0c0-0.075-0.006-0.15-0.02-0.222
	c-0.014-0.072-0.036-0.141-0.067-0.203s-0.072-0.119-0.124-0.166c-0.052-0.047-0.114-0.084-0.189-0.109c0-0.025,0-0.044,0-0.058
	s0-0.023,0-0.029s0-0.009,0-0.011C42.7,49,42.7,49,42.7,49z"/>
<path style="fill:#4AAFF8;" d="M36.2,70.6c0,0,0.1,0.444,0.186,1.103c0.086,0.659,0.158,1.534,0.101,2.397s-0.241,1.713-0.667,2.322
	S34.725,77.4,33.7,77.3s-1.662-0.425-2.028-0.875c-0.366-0.45-0.459-1.025-0.397-1.625s0.281-1.225,0.541-1.775
	C32.075,72.475,32.375,72,32.6,71.7c0.175-0.25,0.462-0.594,0.801-0.931s0.73-0.669,1.111-0.894
	c0.382-0.225,0.754-0.344,1.055-0.256S36.1,70,36.2,70.6z"/>
<path d="M34,77.7c-0.025,0-0.05,0-0.076,0c-0.026,0-0.054,0-0.085,0s-0.066,0-0.105,0s-0.083,0-0.133,0
	c-0.325-0.025-0.625-0.081-0.899-0.164c-0.273-0.083-0.521-0.192-0.739-0.323c-0.219-0.132-0.409-0.285-0.57-0.455
	C31.231,76.587,31.1,76.4,31,76.2c-0.175-0.4-0.225-0.844-0.192-1.297c0.033-0.453,0.148-0.916,0.304-1.353s0.353-0.85,0.549-1.203
	c0.195-0.353,0.389-0.647,0.54-0.847c0.025-0.025,0.162-0.2,0.377-0.442c0.214-0.242,0.505-0.551,0.836-0.845
	c0.331-0.294,0.703-0.572,1.079-0.752S35.25,69.2,35.6,69.3c0.125,0.025,0.237,0.075,0.338,0.147c0.1,0.072,0.188,0.166,0.262,0.278
	c0.075,0.113,0.138,0.244,0.188,0.391s0.088,0.309,0.112,0.484c0.025,0.075,0.1,0.394,0.174,0.858
	c0.073,0.464,0.146,1.074,0.165,1.73c0.019,0.656-0.016,1.359-0.155,2.01C36.544,75.85,36.3,76.45,35.9,76.9
	c-0.125,0.125-0.256,0.237-0.395,0.336c-0.139,0.098-0.286,0.183-0.443,0.251s-0.322,0.122-0.498,0.158
	C34.387,77.681,34.2,77.7,34,77.7z M35.3,70c-0.15,0-0.331,0.062-0.531,0.172s-0.419,0.266-0.644,0.453s-0.456,0.406-0.681,0.641
	C33.219,71.5,33,71.75,32.8,72c-0.15,0.2-0.325,0.469-0.495,0.778c-0.17,0.309-0.336,0.659-0.467,1.022
	c-0.132,0.363-0.229,0.738-0.261,1.097S31.575,75.6,31.7,75.9c0.075,0.15,0.169,0.287,0.284,0.411
	c0.116,0.123,0.253,0.233,0.416,0.326s0.35,0.172,0.566,0.233S33.425,76.975,33.7,77c0.175,0.025,0.344,0.031,0.503,0.02
	s0.309-0.039,0.447-0.082c0.138-0.044,0.263-0.104,0.372-0.177S35.225,76.6,35.3,76.5c0.275-0.325,0.456-0.769,0.569-1.27
	c0.112-0.502,0.156-1.061,0.156-1.617c0-0.556-0.044-1.11-0.106-1.599s-0.144-0.914-0.219-1.213l0,0l0,0l0,0l0,0
	c0-0.075-0.006-0.15-0.02-0.222c-0.014-0.072-0.036-0.141-0.068-0.203s-0.072-0.119-0.123-0.166s-0.114-0.085-0.189-0.11
	c0.025-0.025,0.044-0.044,0.056-0.058s0.019-0.024,0.019-0.03c0-0.006-0.006-0.009-0.019-0.01C35.344,70,35.325,70,35.3,70z"/>
<path style="fill:#4AAFF8;" d="M43.5,63.7c0,0,0.1,0.444,0.186,1.103c0.086,0.659,0.158,1.534,0.101,2.397
	c-0.056,0.863-0.24,1.713-0.667,2.322C42.694,70.131,42.025,70.5,41,70.4s-1.662-0.425-2.028-0.875
	c-0.366-0.45-0.459-1.025-0.397-1.625s0.281-1.225,0.541-1.775c0.259-0.55,0.559-1.025,0.784-1.325
	c0.2-0.25,0.506-0.588,0.858-0.917c0.352-0.33,0.748-0.652,1.129-0.871s0.747-0.334,1.036-0.251S43.425,63.125,43.5,63.7z"/>
<path d="M41.4,70.8c-0.025,0-0.05,0-0.076,0c-0.026,0-0.054,0-0.085,0s-0.066,0-0.105,0s-0.083,0-0.133,0
	c-0.325-0.025-0.625-0.081-0.899-0.164c-0.273-0.083-0.521-0.192-0.739-0.323c-0.219-0.132-0.409-0.285-0.57-0.455
	C38.631,69.688,38.5,69.5,38.4,69.3c-0.175-0.4-0.225-0.844-0.192-1.297s0.148-0.916,0.304-1.353s0.353-0.85,0.549-1.203
	S39.45,64.8,39.6,64.6c0.025-0.025,0.162-0.2,0.376-0.442c0.214-0.242,0.505-0.551,0.836-0.845c0.332-0.294,0.703-0.572,1.08-0.752
	C42.269,62.381,42.65,62.3,43,62.4c0.125,0.025,0.237,0.075,0.338,0.147c0.1,0.072,0.188,0.166,0.262,0.278
	c0.075,0.112,0.138,0.244,0.188,0.391s0.088,0.309,0.112,0.484c0.025,0.075,0.1,0.394,0.173,0.858s0.145,1.074,0.164,1.73
	c0.019,0.656-0.015,1.359-0.154,2.01S43.7,69.55,43.3,70c-0.125,0.15-0.256,0.275-0.395,0.378c-0.139,0.103-0.286,0.184-0.443,0.247
	s-0.322,0.106-0.498,0.134C41.787,70.788,41.6,70.8,41.4,70.8z M42.7,63.1c-0.15,0-0.331,0.062-0.531,0.172
	s-0.419,0.266-0.644,0.453s-0.456,0.406-0.681,0.641S40.4,64.85,40.2,65.1c-0.15,0.2-0.325,0.469-0.495,0.778
	c-0.17,0.309-0.336,0.659-0.467,1.022c-0.132,0.362-0.229,0.737-0.261,1.097S38.975,68.7,39.1,69
	c0.075,0.15,0.169,0.288,0.284,0.411c0.116,0.123,0.253,0.233,0.416,0.327s0.35,0.172,0.566,0.233
	c0.216,0.061,0.459,0.104,0.734,0.129c0.175,0.025,0.344,0.031,0.503,0.02c0.159-0.011,0.309-0.039,0.447-0.082
	c0.138-0.044,0.263-0.103,0.372-0.177c0.109-0.073,0.203-0.161,0.278-0.261c0.35-0.375,0.55-0.919,0.653-1.523
	c0.103-0.605,0.109-1.27,0.072-1.889c-0.038-0.619-0.119-1.191-0.191-1.608C43.162,64.162,43.1,63.9,43.1,63.9l0,0l0,0l0,0l0,0
	c0-0.075-0.006-0.15-0.02-0.222c-0.014-0.072-0.036-0.141-0.067-0.203s-0.072-0.119-0.124-0.166
	c-0.052-0.047-0.114-0.084-0.189-0.109c0.025-0.025,0.037-0.044,0.042-0.058c0.005-0.014,0.001-0.023-0.005-0.029
	s-0.016-0.009-0.023-0.011C42.706,63.1,42.7,63.1,42.7,63.1z"/>
<path style="fill:#4AAFF8;" d="M36.2,57.6c0,0,0.1,0.444,0.186,1.103c0.086,0.659,0.158,1.534,0.101,2.397s-0.241,1.713-0.667,2.322
	S34.725,64.4,33.7,64.3s-1.662-0.425-2.028-0.875c-0.366-0.45-0.459-1.025-0.397-1.625s0.281-1.225,0.541-1.775
	C32.075,59.475,32.375,59,32.6,58.7c0.175-0.25,0.462-0.594,0.801-0.931c0.339-0.337,0.73-0.669,1.111-0.894
	s0.753-0.344,1.055-0.256S36.1,57,36.2,57.6z"/>
<path d="M34,64.6c-0.025,0-0.05,0-0.076,0c-0.026,0-0.054,0-0.085,0s-0.066,0-0.105,0s-0.083,0-0.133,0
	c-0.325-0.025-0.625-0.081-0.899-0.164c-0.273-0.083-0.521-0.192-0.739-0.324c-0.219-0.131-0.409-0.284-0.57-0.454
	S31.1,63.3,31,63.1c-0.175-0.4-0.225-0.844-0.192-1.297c0.033-0.453,0.148-0.916,0.304-1.353s0.353-0.85,0.549-1.203
	c0.195-0.353,0.389-0.647,0.54-0.847c0.025-0.025,0.162-0.2,0.377-0.442c0.214-0.242,0.505-0.551,0.836-0.845
	c0.331-0.294,0.703-0.572,1.079-0.752c0.376-0.18,0.758-0.261,1.108-0.161c0.125,0.025,0.237,0.075,0.338,0.147
	c0.1,0.072,0.188,0.166,0.262,0.278c0.075,0.112,0.138,0.244,0.188,0.391s0.088,0.309,0.112,0.484
	c0.025,0.075,0.1,0.394,0.174,0.858c0.073,0.464,0.146,1.073,0.165,1.729c0.019,0.657-0.016,1.36-0.155,2.011
	C36.544,62.75,36.3,63.35,35.9,63.8c-0.125,0.15-0.256,0.275-0.395,0.378s-0.286,0.184-0.443,0.247s-0.322,0.106-0.498,0.134
	C34.387,64.588,34.2,64.6,34,64.6z M35.3,56.9c-0.15,0-0.331,0.062-0.531,0.172s-0.419,0.266-0.644,0.453s-0.456,0.406-0.681,0.641
	C33.219,58.4,33,58.65,32.8,58.9c-0.15,0.2-0.325,0.469-0.495,0.778s-0.336,0.659-0.467,1.022c-0.132,0.362-0.229,0.737-0.261,1.097
	S31.575,62.5,31.7,62.8c0.075,0.15,0.169,0.287,0.284,0.411s0.253,0.233,0.416,0.326s0.35,0.172,0.566,0.232
	c0.216,0.061,0.459,0.105,0.734,0.13c0.175,0.025,0.344,0.031,0.503,0.02c0.159-0.011,0.309-0.039,0.447-0.082
	c0.138-0.044,0.263-0.103,0.372-0.177s0.203-0.161,0.278-0.261c0.275-0.325,0.456-0.769,0.569-1.27s0.156-1.061,0.156-1.618
	s-0.044-1.109-0.106-1.598S35.775,58,35.7,57.7l0,0l0,0l0,0l0,0c0-0.075-0.006-0.15-0.02-0.222
	c-0.014-0.072-0.036-0.141-0.068-0.203s-0.072-0.119-0.123-0.166S35.375,57.025,35.3,57c0.025-0.025,0.044-0.044,0.056-0.058
	s0.019-0.023,0.019-0.029s-0.006-0.009-0.019-0.011C35.344,56.9,35.325,56.9,35.3,56.9z"/>
<path style="fill:#4AAFF8;" d="M28,66.4c0,0-0.025,0.456-0.124,1.116c-0.098,0.659-0.271,1.522-0.564,2.334
	s-0.709,1.575-1.295,2.034S24.675,72.5,23.7,72.1s-1.506-0.9-1.736-1.439c-0.23-0.539-0.158-1.117,0.073-1.674
	s0.622-1.091,1.03-1.542c0.408-0.451,0.833-0.82,1.133-1.045c0.25-0.175,0.631-0.412,1.058-0.633
	c0.426-0.22,0.898-0.423,1.329-0.529c0.431-0.106,0.822-0.116,1.086,0.051C27.938,65.456,28.075,65.8,28,66.4z"/>
<path d="M24.7,72.7c-0.1,0-0.2-0.006-0.3-0.017c-0.1-0.011-0.2-0.026-0.3-0.045c-0.1-0.019-0.2-0.04-0.3-0.064
	c-0.1-0.023-0.2-0.048-0.3-0.073c-0.325-0.125-0.612-0.269-0.862-0.428S22.175,71.739,22,71.551s-0.312-0.388-0.413-0.597
	s-0.163-0.428-0.188-0.653c-0.05-0.45,0.031-0.9,0.194-1.33s0.406-0.839,0.681-1.207c0.275-0.369,0.581-0.697,0.869-0.964
	s0.556-0.473,0.756-0.598c0.025-0.025,0.206-0.156,0.481-0.328c0.275-0.172,0.644-0.384,1.044-0.572s0.831-0.35,1.231-0.422
	c0.4-0.072,0.769-0.053,1.044,0.122c0.1,0.075,0.188,0.162,0.261,0.262c0.074,0.1,0.133,0.213,0.177,0.338s0.072,0.263,0.083,0.412
	c0.011,0.15,0.004,0.312-0.021,0.488c0,0.075-0.019,0.4-0.08,0.866c-0.061,0.466-0.164,1.072-0.333,1.709
	c-0.168,0.637-0.403,1.305-0.726,1.895S26.325,72.075,25.8,72.4c-0.05,0.05-0.112,0.094-0.186,0.131
	c-0.073,0.038-0.158,0.069-0.251,0.094c-0.094,0.025-0.197,0.044-0.308,0.056C24.944,72.694,24.825,72.7,24.7,72.7z M27.1,65.5
	c-0.15,0-0.337,0.037-0.548,0.103c-0.211,0.066-0.445,0.159-0.689,0.272c-0.244,0.113-0.497,0.244-0.746,0.384
	C24.869,66.4,24.625,66.55,24.4,66.7c-0.2,0.15-0.444,0.356-0.695,0.602s-0.511,0.53-0.743,0.836s-0.434,0.635-0.573,0.967
	c-0.139,0.333-0.214,0.67-0.189,0.995c0.025,0.175,0.075,0.338,0.152,0.489c0.076,0.152,0.18,0.292,0.31,0.423
	c0.131,0.132,0.291,0.254,0.48,0.368c0.189,0.114,0.408,0.22,0.658,0.32c0.175,0.075,0.337,0.131,0.491,0.167
	c0.153,0.036,0.297,0.052,0.434,0.046c0.138-0.007,0.269-0.035,0.397-0.086C25.25,71.775,25.375,71.7,25.5,71.6
	c0.425-0.275,0.763-0.744,1.03-1.292c0.267-0.548,0.464-1.176,0.608-1.77c0.143-0.594,0.234-1.154,0.289-1.564
	C27.481,66.562,27.5,66.3,27.5,66.3l0,0l0,0l0,0l0,0c0-0.075,0-0.15-0.003-0.222c-0.003-0.072-0.009-0.141-0.022-0.203
	s-0.031-0.119-0.059-0.166c-0.028-0.047-0.066-0.084-0.116-0.109c0.025-0.025,0.037-0.044,0.039-0.058s-0.008-0.024-0.026-0.03
	c-0.019-0.006-0.047-0.009-0.083-0.01C27.194,65.5,27.15,65.5,27.1,65.5z"/>
<path style="fill:#4AAFF8;" d="M43.5,77.7c0,0,0.1,0.406,0.186,1.009s0.158,1.403,0.101,2.191c-0.056,0.788-0.24,1.562-0.667,2.116
	C42.694,83.569,42.025,83.9,41,83.8s-1.662-0.4-2.028-0.811c-0.366-0.411-0.459-0.933-0.397-1.476
	c0.062-0.544,0.281-1.11,0.541-1.608c0.259-0.499,0.559-0.93,0.784-1.205c0.2-0.225,0.5-0.531,0.844-0.831
	c0.344-0.3,0.731-0.594,1.106-0.794c0.375-0.2,0.737-0.306,1.031-0.231C43.175,76.919,43.4,77.175,43.5,77.7z"/>
<path d="M41.4,84.2c-0.025,0-0.05,0-0.076,0c-0.026,0-0.054,0-0.085,0s-0.066,0-0.105,0s-0.083,0-0.133,0
	c-0.35-0.025-0.669-0.075-0.955-0.15c-0.286-0.075-0.539-0.175-0.758-0.3s-0.403-0.275-0.551-0.45
	c-0.148-0.175-0.261-0.375-0.336-0.6c-0.15-0.375-0.181-0.781-0.134-1.191c0.047-0.409,0.172-0.822,0.334-1.209
	s0.362-0.75,0.559-1.059c0.197-0.309,0.391-0.566,0.541-0.741c0.025-0.025,0.169-0.188,0.391-0.411
	c0.222-0.223,0.522-0.508,0.859-0.777s0.712-0.522,1.084-0.683c0.372-0.161,0.741-0.229,1.066-0.129
	c0.075,0.025,0.156,0.062,0.239,0.117c0.083,0.055,0.167,0.127,0.248,0.221c0.082,0.094,0.16,0.209,0.23,0.351
	C43.888,77.331,43.95,77.5,44,77.7c0.025,0.075,0.1,0.363,0.175,0.778c0.075,0.416,0.15,0.959,0.175,1.547
	c0.025,0.588,0,1.219-0.125,1.809c-0.125,0.591-0.35,1.141-0.725,1.566c-0.15,0.125-0.306,0.238-0.469,0.336
	s-0.331,0.183-0.506,0.252c-0.175,0.069-0.356,0.122-0.544,0.157S41.6,84.2,41.4,84.2z M42.7,77.2c-0.15,0-0.337,0.062-0.545,0.169
	c-0.208,0.106-0.436,0.256-0.667,0.431c-0.231,0.175-0.466,0.375-0.686,0.581C40.581,78.587,40.375,78.8,40.2,79
	c-0.15,0.175-0.325,0.406-0.495,0.672s-0.336,0.566-0.467,0.878c-0.132,0.312-0.229,0.638-0.261,0.953
	c-0.033,0.316-0.002,0.622,0.123,0.897c0.05,0.15,0.131,0.281,0.242,0.395s0.252,0.211,0.421,0.293
	c0.168,0.081,0.365,0.146,0.589,0.198c0.223,0.052,0.473,0.089,0.748,0.114c0.2,0.025,0.381,0.031,0.547,0.019
	c0.166-0.013,0.316-0.044,0.453-0.094s0.263-0.119,0.378-0.206c0.116-0.088,0.222-0.194,0.322-0.319
	c0.3-0.35,0.475-0.837,0.567-1.372s0.102-1.116,0.071-1.653c-0.031-0.537-0.104-1.031-0.174-1.391
	c-0.07-0.359-0.139-0.584-0.164-0.584l0,0l0,0l0,0l0,0c-0.025-0.075-0.05-0.144-0.075-0.206c-0.025-0.062-0.05-0.119-0.075-0.169
	s-0.05-0.094-0.075-0.131c-0.025-0.037-0.05-0.069-0.075-0.094c-0.025,0-0.044,0-0.058,0c-0.014,0-0.024,0-0.03,0s-0.009,0-0.011,0
	C42.7,77.2,42.7,77.2,42.7,77.2z"/>
</svg>
