<?xml version="1.0" encoding="iso-8859-1"?>
<!-- Generator: Adobe Illustrator 25.3.1, SVG Export Plug-In . SVG Version: 6.00 Build 0)  -->
<svg version="1.1" id="Layer_1" xmlns="http://www.w3.org/2000/svg" xmlns:xlink="http://www.w3.org/1999/xlink" x="0px" y="0px"
	 viewBox="0 0 100 100" style="enable-background:new 0 0 100 100;" xml:space="preserve">
<path style="fill:#A4251A;" d="M50,2.4c6.572,0,12.833,1.332,18.528,3.741c5.695,2.409,10.823,5.894,15.13,10.201
	s7.793,9.435,10.201,15.13C96.268,37.167,97.6,43.428,97.6,50s-1.332,12.833-3.741,18.528c-2.409,5.695-5.894,10.823-10.201,15.13
	s-9.436,7.793-15.13,10.201C62.833,96.268,56.572,97.6,50,97.6s-12.833-1.332-18.528-3.741c-5.695-2.409-10.823-5.894-15.13-10.201
	s-7.792-9.436-10.201-15.13S2.4,56.572,2.4,50s1.332-12.833,3.741-18.528s5.894-10.823,10.201-15.13s9.435-7.792,15.13-10.201
	S43.428,2.4,50,2.4z"/>
<path style="fill:#440C09;" d="M50,1.9c-6.625,0-12.944,1.35-18.695,3.789s-10.936,5.967-15.292,10.324S8.129,25.554,5.69,31.305
	S1.9,43.375,1.9,50s1.35,12.944,3.789,18.695s5.967,10.936,10.324,15.293s9.541,7.884,15.292,10.323S43.375,98.1,50,98.1
	s12.944-1.344,18.695-3.775c5.752-2.431,10.936-5.95,15.293-10.3s7.884-9.531,10.323-15.287S98.1,56.65,98.1,50
	s-1.35-12.981-3.789-18.737s-5.967-10.938-10.323-15.288s-9.54-7.869-15.292-10.3C62.944,3.244,56.625,1.9,50,1.9z M50,93
	c-5.95,0-11.612-1.2-16.759-3.372s-9.778-5.316-13.666-9.203s-7.031-8.519-9.203-13.666C8.2,61.613,7,55.95,7,50
	s1.2-11.612,3.372-16.759s5.316-9.778,9.203-13.666s8.519-7.031,13.666-9.203S44.05,7,50,7s11.613,1.206,16.759,3.386
	s9.778,5.333,13.666,9.226s7.031,8.528,9.203,13.67S93,44.075,93,50s-1.2,11.575-3.372,16.717s-5.316,9.776-9.203,13.67
	s-8.519,7.047-13.666,9.227C61.613,91.794,55.95,93,50,93z"/>
<path style="fill:#FFFFFF;" d="M66.2,44.6v-5.85V32.9v-5.85V21.2h4.125h4.125h4.125H82.7v0.7v0.7v0.7V24h-3.375H75.95h-3.375H69.2
	v1.8v1.8v1.8v1.8h3.15h3.15h3.15h3.15v0.675v0.675v0.675V33.9h-3.15H75.5h-3.15H69.2v2v2v2v2h3.5h3.5h3.5h3.5v0.7v0.7V44v0.7h-4.25
	H74.7h-4.25H66.2v-0.025V44.65v-0.025V44.6z"/>
<path d="M83.8,45.1h-4.5h-4.5h-4.5h-4.5V39v-6.1v-6.1v-6.1h4.375h4.375h4.375H83.3v0.95v0.95v0.95v0.95h-3.4h-3.4h-3.4h-3.4v1.55
	v1.55v1.55v1.55h3.15H76h3.15h3.15v0.925v0.925v0.925V34.4h-3.15H76h-3.15H69.7v1.75v1.75v1.75v1.75h3.5h3.5h3.5h3.5v0.925v0.925
	v0.925V45.1h0.025h0.025c0,0,0.012,0,0.025,0S83.8,45.1,83.8,45.1z M66.7,44.1h4h4h4h4v-0.45V43.2v-0.45V42.3h-3.5h-3.5h-3.5h-3.5
	v-2.25V37.8v-2.25V33.3h3.15H75h3.15h3.15v-0.425V32.45v-0.425V31.6h-3.15H75h-3.15H68.7v-2.05V27.5v-2.05V23.4h3.375h3.375h3.375
	H82.2v-0.45V22.5v-0.45V21.6h-3.875H74.45h-3.875H66.7v5.625v5.625v5.625V44.1z"/>
<path style="fill:#FFFFFF;" d="M16.7,44.6v-5.85V32.9v-5.85V21.2h1.975h1.975h1.975H24.6c0.45,0,0.869,0.006,1.259,0.019
	c0.391,0.013,0.753,0.031,1.091,0.056c0.337,0.025,0.65,0.056,0.941,0.094S28.45,21.45,28.7,21.5
	c0.325,0.075,0.637,0.169,0.939,0.28s0.592,0.239,0.873,0.383s0.553,0.303,0.817,0.476C31.594,22.813,31.85,23,32.1,23.2
	c0.3,0.25,0.581,0.525,0.844,0.822s0.506,0.616,0.731,0.953s0.431,0.694,0.619,1.066C34.481,26.413,34.65,26.8,34.8,27.2
	c0.15,0.4,0.281,0.819,0.394,1.255c0.113,0.436,0.206,0.889,0.281,1.357c0.075,0.469,0.131,0.953,0.169,1.452
	c0.038,0.499,0.056,1.011,0.056,1.536c0,0.45-0.013,0.888-0.037,1.311c-0.025,0.424-0.063,0.833-0.113,1.227
	c-0.05,0.394-0.112,0.771-0.188,1.132S35.2,37.175,35.1,37.5c-0.1,0.35-0.206,0.681-0.32,0.995
	c-0.114,0.314-0.236,0.611-0.368,0.893c-0.131,0.281-0.271,0.547-0.423,0.798c-0.151,0.251-0.314,0.489-0.489,0.714
	s-0.344,0.438-0.511,0.638s-0.333,0.388-0.501,0.562c-0.169,0.175-0.341,0.337-0.521,0.487C31.788,42.737,31.6,42.875,31.4,43
	s-0.406,0.244-0.619,0.356c-0.213,0.112-0.431,0.219-0.656,0.319c-0.225,0.1-0.456,0.194-0.694,0.281
	c-0.237,0.088-0.481,0.169-0.731,0.244c-0.275,0.075-0.556,0.138-0.845,0.189c-0.289,0.052-0.586,0.092-0.892,0.123
	c-0.306,0.032-0.622,0.053-0.949,0.068S25.35,44.6,25,44.6c0,0-0.519,0-1.297,0s-1.816,0-2.853,0s-2.075,0-2.853,0
	S16.7,44.6,16.7,44.6z M19.8,41.9h1.225h1.225h1.225H24.7c0.375,0,0.731-0.006,1.067-0.02c0.336-0.014,0.652-0.036,0.946-0.068
	s0.566-0.072,0.814-0.123C27.775,41.637,28,41.575,28.2,41.5s0.394-0.156,0.58-0.244c0.186-0.088,0.364-0.181,0.532-0.281
	s0.328-0.206,0.477-0.319c0.149-0.113,0.286-0.231,0.411-0.356c0.175-0.175,0.344-0.369,0.505-0.581s0.314-0.444,0.457-0.694
	c0.144-0.25,0.278-0.519,0.402-0.806c0.123-0.287,0.236-0.594,0.336-0.919c0.1-0.3,0.188-0.619,0.263-0.956s0.138-0.694,0.188-1.069
	s0.087-0.769,0.112-1.181C32.488,33.681,32.5,33.25,32.5,32.8c0-0.625-0.025-1.206-0.075-1.749c-0.05-0.542-0.125-1.045-0.225-1.514
	s-0.225-0.903-0.375-1.308C31.675,27.825,31.5,27.45,31.3,27.1c-0.2-0.325-0.406-0.625-0.622-0.899
	c-0.216-0.274-0.441-0.521-0.678-0.74s-0.487-0.41-0.753-0.571S28.7,24.599,28.4,24.5c-0.2-0.075-0.431-0.144-0.694-0.205
	c-0.262-0.061-0.556-0.114-0.881-0.157c-0.325-0.044-0.681-0.079-1.069-0.102C25.369,24.013,24.95,24,24.5,24h-1.2h-1.2h-1.2h-1.2
	v4.475v4.475v4.475V41.9h0.025h0.025h0.025H19.8z"/>
<path d="M25,45.1h-2.175H20.65h-2.175H16.3V39v-6.1v-6.1v-6.1h2.1h2.1h2.1h2.1c0.45,0,0.875,0.006,1.275,0.019
	c0.4,0.013,0.775,0.031,1.125,0.056c0.35,0.025,0.675,0.056,0.975,0.094S28.65,20.95,28.9,21c0.35,0.075,0.688,0.169,1.013,0.281
	c0.325,0.112,0.637,0.244,0.938,0.394s0.587,0.319,0.862,0.506S32.25,22.575,32.5,22.8c0.325,0.275,0.625,0.569,0.902,0.881
	s0.529,0.644,0.76,0.994c0.232,0.35,0.441,0.719,0.63,1.106S35.15,26.575,35.3,27s0.281,0.862,0.394,1.312
	c0.113,0.45,0.206,0.913,0.281,1.388c0.075,0.475,0.131,0.963,0.169,1.463c0.037,0.5,0.056,1.013,0.056,1.537
	c0,0.45-0.013,0.894-0.037,1.328c-0.025,0.434-0.062,0.859-0.113,1.272c-0.05,0.413-0.112,0.812-0.188,1.197
	C35.787,36.881,35.7,37.25,35.6,37.6s-0.213,0.688-0.334,1.013c-0.122,0.325-0.253,0.638-0.391,0.938s-0.281,0.588-0.428,0.863
	C34.3,40.688,34.15,40.95,34,41.2c-0.175,0.225-0.35,0.444-0.527,0.655c-0.176,0.211-0.354,0.414-0.535,0.608
	c-0.181,0.194-0.366,0.378-0.555,0.551S32,43.35,31.8,43.5s-0.413,0.287-0.636,0.412c-0.223,0.125-0.458,0.238-0.701,0.338
	s-0.497,0.188-0.757,0.263c-0.261,0.075-0.53,0.138-0.805,0.188c-0.3,0.075-0.606,0.138-0.919,0.189
	c-0.312,0.052-0.631,0.092-0.956,0.123c-0.325,0.032-0.657,0.053-0.995,0.068C25.694,45.094,25.35,45.1,25,45.1z M17.2,44.1h1.95
	h1.95h1.95H25c0.325,0,0.644-0.006,0.955-0.02s0.614-0.036,0.907-0.068c0.294-0.031,0.579-0.071,0.852-0.123
	c0.273-0.051,0.536-0.114,0.786-0.189s0.494-0.15,0.73-0.228s0.464-0.159,0.683-0.247s0.428-0.181,0.626-0.284
	c0.198-0.103,0.385-0.216,0.561-0.341s0.35-0.263,0.524-0.411c0.174-0.149,0.346-0.308,0.514-0.477
	c0.168-0.168,0.334-0.346,0.495-0.532S32.95,40.8,33.1,40.6c0.15-0.225,0.294-0.463,0.431-0.713c0.137-0.25,0.269-0.512,0.394-0.787
	s0.244-0.562,0.356-0.862c0.112-0.3,0.219-0.612,0.319-0.938s0.188-0.669,0.263-1.028S35,35.537,35.05,35.15
	s0.087-0.788,0.112-1.197S35.2,33.125,35.2,32.7c0-0.5-0.019-0.987-0.056-1.462c-0.037-0.475-0.094-0.938-0.169-1.388
	s-0.169-0.887-0.281-1.312C34.581,28.112,34.45,27.7,34.3,27.3c-0.15-0.375-0.312-0.738-0.491-1.086
	c-0.178-0.348-0.372-0.683-0.584-1.001s-0.444-0.622-0.697-0.908C32.275,24.019,32,23.75,31.7,23.5
	c-0.225-0.2-0.456-0.381-0.695-0.545c-0.239-0.164-0.486-0.311-0.743-0.442c-0.256-0.132-0.521-0.247-0.798-0.349
	S28.9,21.975,28.6,21.9c-0.225-0.05-0.475-0.094-0.752-0.131c-0.277-0.037-0.58-0.069-0.911-0.094
	c-0.331-0.025-0.69-0.044-1.079-0.056C25.469,21.606,25.05,21.6,24.6,21.6h-1.85H20.9h-1.85H17.2c0,0,0,1.406,0,3.516
	s0,4.922,0,7.734c0,2.812,0,5.625,0,7.734S17.2,44.1,17.2,44.1z M24.6,42.4h-1.35H21.9h-1.35H19.2v-4.725V32.95v-4.725V23.5h1.325
	h1.325h1.325H24.5c0.475,0,0.913,0.013,1.316,0.036c0.403,0.024,0.772,0.058,1.109,0.102c0.338,0.043,0.644,0.097,0.922,0.157
	S28.375,23.925,28.6,24c0.3,0.125,0.594,0.275,0.878,0.453c0.284,0.178,0.559,0.384,0.822,0.622
	c0.262,0.237,0.512,0.506,0.747,0.809S31.5,26.525,31.7,26.9c0.2,0.35,0.375,0.737,0.525,1.161c0.15,0.424,0.275,0.883,0.375,1.377
	c0.1,0.493,0.175,1.021,0.225,1.582S32.9,32.175,32.9,32.8c0,0.45-0.013,0.888-0.037,1.311c-0.025,0.424-0.062,0.833-0.113,1.227
	c-0.05,0.394-0.112,0.771-0.188,1.132S32.4,37.175,32.3,37.5s-0.213,0.638-0.338,0.936s-0.262,0.583-0.412,0.851
	c-0.15,0.269-0.312,0.522-0.487,0.758S30.7,40.5,30.5,40.7c-0.15,0.15-0.306,0.287-0.47,0.414c-0.164,0.127-0.336,0.242-0.517,0.349
	c-0.181,0.106-0.372,0.203-0.574,0.292S28.525,41.925,28.3,42c-0.225,0.05-0.469,0.1-0.733,0.147
	c-0.264,0.047-0.549,0.091-0.855,0.128c-0.306,0.037-0.634,0.069-0.986,0.091C25.375,42.388,25,42.4,24.6,42.4z M20.3,41.4h1.1h1.1
	h1.1h1.1c0.35,0,0.688-0.006,1.009-0.02s0.628-0.036,0.916-0.068c0.288-0.031,0.556-0.071,0.803-0.123
	C27.675,41.138,27.9,41.075,28.1,41s0.387-0.15,0.562-0.228c0.175-0.078,0.337-0.159,0.487-0.247s0.288-0.181,0.413-0.284
	c0.125-0.103,0.237-0.216,0.337-0.341c0.175-0.175,0.337-0.362,0.489-0.564s0.292-0.417,0.424-0.649
	c0.131-0.231,0.253-0.478,0.367-0.742S31.4,37.4,31.5,37.1s0.188-0.619,0.263-0.955c0.075-0.336,0.138-0.689,0.188-1.058
	s0.088-0.753,0.112-1.151c0.025-0.398,0.037-0.811,0.037-1.236c0-0.575-0.025-1.125-0.074-1.645c-0.048-0.52-0.12-1.011-0.214-1.467
	c-0.094-0.457-0.209-0.879-0.345-1.261S31.175,27.6,31,27.3s-0.362-0.575-0.561-0.825C30.24,26.225,30.031,26,29.812,25.8
	s-0.447-0.375-0.683-0.525S28.65,25,28.4,24.9c-0.175-0.075-0.388-0.137-0.634-0.189c-0.247-0.052-0.528-0.092-0.841-0.123
	s-0.656-0.053-1.028-0.067C25.525,24.507,25.125,24.5,24.7,24.5h-1.075H22.55h-1.075H20.4v4.225v4.225v4.225V41.4h-0.025H20.35
	h-0.025H20.3z"/>
<polygon style="fill:#FFFFFF;" points="48.9,20.3 49.9,20.3 50.9,20.3 51.9,20.3 52.9,20.3 52.9,24.675 52.9,29.05 52.9,33.425 
	52.9,37.8 51.9,37.8 50.9,37.8 49.9,37.8 48.9,37.8 48.9,33.425 48.9,29.05 48.9,24.675 "/>
<path d="M53.2,38.1h-1.125H50.95h-1.125H48.7v-4.525V29.05v-4.525V20h1.125h1.125h1.125H53.2v4.525v4.525v4.525V38.1z M49.2,37.6
	h0.875h0.875h0.875H52.7v-4.25V29.1v-4.25V20.6h-0.875H50.95h-0.875H49.2v4.25v4.25v4.25V37.6z"/>
<path style="fill:#FFFFFF;" d="M62.7,24.6c-0.075-0.25-0.169-0.719-0.37-1.322c-0.202-0.603-0.511-1.341-1.018-2.128
	c-0.506-0.788-1.209-1.625-2.198-2.428C58.125,17.919,56.85,17.15,55.2,16.5v-0.35V15.8v-0.35V15.1h1.075h1.075h1.075H59.5v-0.7
	v-0.7V13v-0.7h-4.325H50.85h-4.325H42.2V13v0.7v0.7v0.7h1.05h1.05h1.05h1.05v0.375v0.375v0.375V16.6
	c-1.6,0.65-2.838,1.413-3.799,2.206c-0.961,0.794-1.646,1.619-2.139,2.394s-0.797,1.5-0.996,2.094S39.174,24.35,39.1,24.6
	c-0.075,0.275-0.15,0.556-0.22,0.861c-0.07,0.305-0.136,0.633-0.192,1.001c-0.056,0.369-0.104,0.779-0.136,1.246
	S38.5,28.7,38.5,29.3c0,0.55,0.037,1.112,0.094,1.647c0.056,0.534,0.131,1.041,0.206,1.478s0.15,0.806,0.206,1.066
	S39.1,33.9,39.1,33.9c0.275,1.05,0.713,2.019,1.253,2.905c0.541,0.886,1.184,1.689,1.872,2.407s1.419,1.353,2.134,1.902
	s1.416,1.011,2.041,1.386v0.825v0.825v0.825V45.8h2.2h2.2H53h2.2v-0.775V44.25v-0.775V42.7c0.625-0.375,1.338-0.837,2.072-1.389
	c0.734-0.551,1.491-1.192,2.203-1.923c0.712-0.731,1.381-1.554,1.941-2.468c0.559-0.914,1.009-1.92,1.284-3.02
	c0,0,0.038-0.15,0.094-0.409c0.056-0.259,0.131-0.628,0.206-1.066c0.075-0.438,0.15-0.944,0.206-1.478
	C63.263,30.413,63.3,29.85,63.3,29.3c0.025-0.6,0.019-1.125-0.009-1.592c-0.028-0.467-0.078-0.877-0.141-1.246
	c-0.062-0.369-0.137-0.697-0.216-1.001C62.856,25.156,62.775,24.875,62.7,24.6z M52.2,39.4h-0.05H52.1h-0.05H52h-0.525H50.95h-0.525
	H49.9h-0.075H49.75h-0.075H49.6c-1.175-0.95-2.119-1.894-2.873-2.842c-0.755-0.949-1.32-1.902-1.739-2.871
	c-0.419-0.969-0.691-1.953-0.858-2.964c-0.167-1.011-0.23-2.048-0.23-3.123c0-1.375,0.319-2.644,0.797-3.773s1.116-2.12,1.753-2.939
	s1.275-1.465,1.753-1.908S49,18.3,49,18.3h0.475h0.475h0.475H50.9h0.475h0.475h0.475H52.8c0,0,0.319,0.275,0.797,0.775
	S54.713,20.3,55.35,21.2s1.275,1.975,1.753,3.175c0.478,1.2,0.797,2.525,0.797,3.925c0.025,0.425-0.019,1.094-0.174,1.917
	c-0.155,0.823-0.421,1.801-0.84,2.845c-0.419,1.044-0.99,2.153-1.757,3.24C54.362,37.388,53.4,38.45,52.2,39.4z"/>
<path d="M55.5,46h-2.325H50.85h-2.325H46.2v-0.85V44.3v-0.85V42.6c-0.7-0.425-1.438-0.925-2.166-1.5
	c-0.728-0.575-1.447-1.225-2.109-1.95s-1.269-1.525-1.772-2.4S39.25,34.925,39,33.9c0-0.025-0.044-0.188-0.109-0.452
	s-0.153-0.63-0.241-1.061c-0.088-0.431-0.175-0.928-0.241-1.454C38.344,30.406,38.3,29.85,38.3,29.3c0-0.625,0.019-1.169,0.053-1.65
	c0.034-0.481,0.084-0.9,0.147-1.275s0.138-0.706,0.222-1.013C38.806,25.056,38.9,24.775,39,24.5c0-0.025,0-0.05,0.002-0.075
	c0.002-0.025,0.005-0.05,0.011-0.075s0.016-0.05,0.03-0.075c0.014-0.025,0.032-0.05,0.057-0.075
	c0.075-0.325,0.194-0.819,0.422-1.416c0.228-0.597,0.566-1.297,1.078-2.034s1.2-1.513,2.128-2.259
	c0.928-0.747,2.097-1.466,3.572-2.091v-0.275V15.85v-0.275V15.3h-1.075H44.15h-1.075H42v-0.825V13.65v-0.825V12h4.45h4.45h4.45h4.45
	v0.825v0.825v0.825V15.3h-1.075H57.65h-1.075H55.5v0.225v0.225v0.225V16.2c1.525,0.625,2.731,1.35,3.689,2.106
	c0.958,0.756,1.667,1.544,2.198,2.294s0.884,1.463,1.13,2.069C62.762,23.275,62.9,23.775,63,24.1c0,0.025,0,0.05,0.002,0.075
	c0.002,0.025,0.005,0.05,0.011,0.075s0.016,0.05,0.03,0.075c0.014,0.025,0.032,0.05,0.057,0.075l0,0l0,0l0,0l0,0
	c0.075,0.275,0.156,0.556,0.236,0.862s0.158,0.638,0.227,1.013c0.068,0.375,0.128,0.794,0.17,1.275
	c0.042,0.481,0.067,1.025,0.067,1.65c0,0.55-0.038,1.106-0.095,1.633c-0.058,0.527-0.136,1.024-0.217,1.455
	c-0.081,0.431-0.166,0.797-0.236,1.06c-0.07,0.264-0.127,0.427-0.152,0.451c-0.275,1.1-0.731,2.112-1.298,3.034
	c-0.567,0.922-1.245,1.753-1.964,2.491s-1.478,1.381-2.208,1.928S56.2,42.25,55.6,42.6v0.85v0.85v0.85V46h-0.025H55.55h-0.025H55.5z
	 M46.7,45.5h2.075h2.075h2.075H55v-0.75V44v-0.75V42.5l0.025-0.025l0.025-0.025l0.025-0.025L55.1,42.4
	c0.575-0.35,1.256-0.794,1.972-1.33c0.716-0.536,1.466-1.164,2.178-1.883s1.388-1.528,1.953-2.426s1.022-1.886,1.297-2.961
	c0,0,0.037-0.15,0.094-0.408c0.056-0.258,0.131-0.624,0.206-1.055c0.075-0.431,0.15-0.928,0.206-1.448
	c0.056-0.52,0.094-1.064,0.094-1.589c0-0.6-0.019-1.125-0.052-1.591c-0.033-0.466-0.08-0.872-0.136-1.234
	c-0.056-0.362-0.121-0.681-0.192-0.972c-0.07-0.291-0.145-0.553-0.22-0.803l0,0l0,0l0,0l0,0c0-0.025,0-0.05-0.002-0.075
	c-0.002-0.025-0.005-0.05-0.011-0.075s-0.016-0.05-0.03-0.075c-0.014-0.025-0.032-0.05-0.057-0.075
	c-0.075-0.325-0.194-0.819-0.424-1.413s-0.57-1.288-1.09-2.012c-0.518-0.725-1.215-1.481-2.157-2.2
	c-0.942-0.719-2.13-1.4-3.63-1.975l-0.025-0.025L55.05,16.75l-0.025-0.025L55,16.7v-0.45V15.8v-0.45V14.9h1.075h1.075h1.075H59.3
	v-0.575V13.75v-0.575V12.6h-4.2h-4.2h-4.2h-4.2v0.575v0.575v0.575V14.9h1.05h1.05h1.05h1.05v0.475v0.475v0.475V16.8l-0.05,0.025
	L46.6,16.85l-0.05,0.025L46.5,16.9c-1.45,0.6-2.594,1.294-3.498,2.016s-1.57,1.472-2.064,2.184
	c-0.493,0.712-0.815,1.388-1.032,1.959c-0.217,0.572-0.33,1.041-0.406,1.341c0,0.025-0.006,0.05-0.016,0.075
	c-0.009,0.025-0.022,0.05-0.034,0.075s-0.025,0.05-0.034,0.075C39.406,24.65,39.4,24.675,39.4,24.7
	c-0.075,0.275-0.15,0.556-0.22,0.859c-0.07,0.303-0.136,0.628-0.192,0.991s-0.103,0.763-0.136,1.216
	C38.819,28.219,38.8,28.725,38.8,29.3c0,0.525,0.038,1.069,0.094,1.589c0.056,0.52,0.131,1.017,0.206,1.449
	c0.075,0.431,0.15,0.797,0.206,1.055c0.056,0.258,0.094,0.408,0.094,0.408c0.25,1,0.65,1.925,1.152,2.777
	c0.501,0.852,1.104,1.63,1.76,2.335c0.656,0.707,1.366,1.341,2.08,1.905s1.433,1.058,2.108,1.483l0.025,0.025l0.025,0.025
	l0.025,0.025l0.025,0.025v0.775v0.775v0.775v0.775h0.025h0.025h0.025L46.7,45.5L46.7,45.5L46.7,45.5z M52.3,39.7h-0.7h-0.7h-0.7
	h-0.7l-0.025-0.025L49.45,39.65l-0.025-0.025L49.4,39.6c-1.275-1.05-2.275-2.088-3.058-3.112c-0.783-1.025-1.348-2.038-1.754-3.038
	s-0.653-1.987-0.799-2.962c-0.146-0.975-0.19-1.938-0.19-2.887c0-1.4,0.312-2.688,0.784-3.833c0.472-1.145,1.103-2.148,1.741-2.979
	c0.638-0.831,1.281-1.491,1.778-1.949C48.4,18.381,48.75,18.125,48.8,18.1h0.025h0.025h0.025H48.9h0.5h0.5h0.5h0.5h0.5h0.5h0.5h0.5
	l0.025,0.025l0.025,0.025l0.025,0.025L53,18.2c0.05,0.05,0.4,0.362,0.897,0.891c0.497,0.528,1.141,1.272,1.778,2.184
	c0.638,0.912,1.269,1.994,1.741,3.197C57.888,25.675,58.2,27,58.2,28.4c0,0.4-0.062,1.062-0.233,1.892
	c-0.17,0.83-0.448,1.826-0.879,2.895c-0.431,1.069-1.016,2.21-1.799,3.327S53.525,38.725,52.3,39.7L52.3,39.7L52.3,39.7L52.3,39.7
	L52.3,39.7z M49.7,39.2h0.6h0.6h0.6h0.6c1.125-0.925,2.038-1.962,2.773-3.025c0.736-1.062,1.295-2.15,1.714-3.175
	c0.418-1.025,0.696-1.987,0.87-2.8s0.242-1.475,0.242-1.9c0-1.275-0.275-2.487-0.697-3.598c-0.422-1.111-0.991-2.12-1.578-2.989
	s-1.194-1.597-1.69-2.145C53.237,19.019,52.85,18.65,52.7,18.5h-0.45H51.8h-0.45H50.9h-0.45H50h-0.45H49.1
	c-0.15,0.125-0.531,0.444-1.019,0.93c-0.487,0.486-1.081,1.139-1.656,1.932c-0.575,0.794-1.131,1.729-1.544,2.777
	C44.469,25.188,44.2,26.35,44.2,27.6c0,0.9,0.038,1.825,0.17,2.769c0.133,0.944,0.361,1.906,0.742,2.881s0.915,1.962,1.661,2.956
	S48.475,38.2,49.7,39.2z"/>
<path style="fill:#FFFFFF;" d="M55.2,43.8c0,0,0.181-0.038,0.464-0.084s0.667-0.103,1.074-0.141s0.834-0.056,1.205-0.028
	c0.37,0.028,0.682,0.103,0.857,0.253s0.3,0.294,0.389,0.425c0.089,0.131,0.142,0.25,0.173,0.35s0.04,0.181,0.042,0.237
	c0.002,0.056-0.005,0.088-0.005,0.088s-0.106,0.044-0.289,0.106c-0.183,0.062-0.442,0.144-0.749,0.219
	c-0.306,0.075-0.658,0.144-1.028,0.181S56.575,45.45,56.2,45.4c-0.375-0.025-0.625-0.138-0.789-0.292
	c-0.164-0.155-0.242-0.351-0.273-0.545c-0.032-0.194-0.016-0.385,0.007-0.527C55.169,43.894,55.2,43.8,55.2,43.8z"/>
<path d="M56.6,45.7c-0.05,0-0.094,0-0.134,0c-0.041,0-0.078,0-0.116,0s-0.075,0-0.116,0c-0.041,0-0.084,0-0.134,0
	c-0.125,0-0.244-0.013-0.355-0.037c-0.111-0.025-0.214-0.063-0.307-0.113c-0.094-0.05-0.179-0.112-0.252-0.188
	C55.112,45.287,55.05,45.2,55,45.1c-0.1-0.15-0.156-0.306-0.184-0.458c-0.028-0.152-0.028-0.299-0.016-0.43
	c0.013-0.131,0.038-0.247,0.059-0.336c0.022-0.089,0.041-0.152,0.041-0.177v-0.025v-0.025v-0.025V43.6h0.025h0.025h0.025H55
	c0.075-0.025,0.3-0.075,0.608-0.127c0.308-0.052,0.699-0.105,1.105-0.136s0.828-0.041,1.198-0.005S58.6,43.45,58.8,43.6
	s0.344,0.306,0.447,0.458c0.103,0.152,0.166,0.299,0.203,0.43c0.038,0.131,0.05,0.247,0.053,0.336
	C59.506,44.912,59.5,44.975,59.5,45v0.025v0.025v0.025V45.1h-0.025H59.45h-0.025H59.4c0,0.025-0.088,0.075-0.241,0.136
	c-0.153,0.061-0.372,0.133-0.634,0.201c-0.263,0.069-0.569,0.135-0.897,0.183S56.95,45.7,56.6,45.7z M55.4,44
	c0,0.05-0.006,0.106-0.013,0.167s-0.013,0.126-0.013,0.195s0.006,0.141,0.025,0.214c0.019,0.074,0.05,0.149,0.1,0.224
	c0.025,0.05,0.062,0.094,0.109,0.131c0.047,0.038,0.103,0.069,0.166,0.094s0.131,0.044,0.203,0.056
	C56.05,45.094,56.125,45.1,56.2,45.1c0.3,0.025,0.606,0.019,0.903-0.006c0.297-0.025,0.584-0.069,0.847-0.119s0.5-0.106,0.697-0.156
	C58.844,44.769,59,44.725,59.1,44.7c0-0.05-0.006-0.1-0.022-0.152c-0.016-0.051-0.041-0.104-0.078-0.16
	c-0.038-0.056-0.088-0.116-0.153-0.18S58.7,44.075,58.6,44s-0.281-0.119-0.514-0.141c-0.233-0.022-0.517-0.022-0.824-0.009
	c-0.306,0.013-0.634,0.038-0.954,0.066C55.988,43.944,55.675,43.975,55.4,44z"/>
<path style="fill:#FFFFFF;" d="M56.2,45.5l1.575-0.05l1.575-0.05l1.575-0.05L62.5,45.3c0,0,0.05,0.006,0.124,0.03
	s0.171,0.064,0.264,0.132s0.184,0.165,0.245,0.302c0.061,0.136,0.092,0.311,0.067,0.536s-0.337,0.388-0.792,0.505
	c-0.455,0.117-1.052,0.189-1.646,0.232c-0.593,0.044-1.184,0.06-1.626,0.064C58.694,47.106,58.4,47.1,58.4,47.1
	s0.231,0.019,0.575,0.053c0.344,0.034,0.8,0.084,1.25,0.147s0.894,0.138,1.213,0.222C61.756,47.606,61.95,47.7,61.9,47.8
	s-0.088,0.225-0.161,0.355s-0.183,0.264-0.376,0.382c-0.194,0.119-0.472,0.222-0.883,0.29c-0.411,0.067-0.955,0.099-1.68,0.074
	s-1.325-0.1-1.812-0.211s-0.862-0.258-1.138-0.427c-0.275-0.169-0.45-0.359-0.537-0.557C55.225,47.506,55.225,47.3,55.3,47.1
	s0.169-0.4,0.267-0.588c0.098-0.187,0.201-0.362,0.295-0.512s0.178-0.275,0.239-0.363C56.162,45.55,56.2,45.5,56.2,45.5z"/>
<path d="M59.4,49.1c-0.05,0-0.1,0-0.15,0c-0.05,0-0.1,0-0.15,0s-0.1,0-0.15,0c-0.05,0-0.1,0-0.15,0
	c-0.475-0.025-0.912-0.069-1.308-0.131c-0.395-0.062-0.748-0.144-1.054-0.244s-0.565-0.219-0.774-0.356
	C55.457,48.231,55.3,48.075,55.2,47.9c-0.05-0.075-0.087-0.15-0.114-0.225c-0.027-0.075-0.042-0.15-0.048-0.225
	c-0.007-0.075-0.004-0.15,0.007-0.225c0.011-0.075,0.03-0.15,0.055-0.225c0.075-0.175,0.169-0.362,0.267-0.545
	c0.098-0.183,0.201-0.361,0.295-0.517s0.178-0.291,0.239-0.386C55.962,45.457,56,45.4,56,45.4l0.025-0.025l0.025-0.025l0.025-0.025
	L56.1,45.3l1.6-0.05l1.6-0.05l1.6-0.05l1.6-0.05c0.025,0,0.069,0,0.123,0.006c0.055,0.006,0.12,0.019,0.189,0.044
	s0.14,0.062,0.208,0.119c0.067,0.056,0.13,0.131,0.18,0.231c0.05,0.05,0.094,0.106,0.13,0.169s0.064,0.131,0.083,0.206
	c0.019,0.075,0.028,0.156,0.026,0.244S63.425,46.3,63.4,46.4c-0.025,0.125-0.1,0.237-0.214,0.338
	c-0.114,0.1-0.267,0.188-0.448,0.262c-0.181,0.075-0.391,0.138-0.618,0.188c-0.227,0.05-0.47,0.088-0.72,0.112
	c0.1,0.025,0.194,0.05,0.278,0.076c0.084,0.027,0.159,0.055,0.222,0.085s0.112,0.065,0.147,0.105
	C62.081,47.606,62.1,47.65,62.1,47.7c0.025,0.025,0.044,0.05,0.056,0.075c0.013,0.025,0.019,0.05,0.019,0.075
	s-0.006,0.05-0.019,0.075C62.144,47.95,62.125,47.975,62.1,48c0,0,0,0.006-0.002,0.016s-0.005,0.022-0.011,0.034
	c-0.006,0.013-0.015,0.025-0.029,0.034C62.044,48.094,62.025,48.1,62,48.1c-0.05,0.1-0.112,0.213-0.209,0.325
	c-0.097,0.112-0.228,0.225-0.416,0.325s-0.431,0.188-0.753,0.25S59.9,49.1,59.4,49.1z M56.3,45.7
	c-0.05,0.05-0.112,0.131-0.181,0.233c-0.069,0.102-0.144,0.224-0.219,0.355s-0.15,0.272-0.219,0.411
	c-0.069,0.139-0.131,0.276-0.181,0.401c-0.025,0.05-0.044,0.094-0.056,0.133c-0.013,0.039-0.019,0.073-0.019,0.104
	s0.006,0.059,0.019,0.086c0.013,0.027,0.031,0.052,0.056,0.077c0.025,0.05,0.081,0.125,0.191,0.212C55.8,47.8,55.963,47.9,56.2,48
	s0.55,0.2,0.959,0.288c0.409,0.087,0.916,0.162,1.541,0.212c0.625,0.025,1.106,0.013,1.478-0.027
	c0.372-0.039,0.634-0.105,0.822-0.186c0.188-0.081,0.3-0.178,0.372-0.28c0.072-0.102,0.103-0.208,0.128-0.307l0,0l0,0l0,0l0,0
	c-0.1-0.05-0.269-0.1-0.486-0.148s-0.483-0.096-0.777-0.139c-0.293-0.043-0.615-0.084-0.945-0.12
	c-0.33-0.036-0.667-0.067-0.992-0.092v-0.125V46.95v-0.125V46.7c0.625,0.025,1.219,0.019,1.758-0.009
	c0.539-0.028,1.024-0.078,1.43-0.141s0.735-0.138,0.961-0.216c0.226-0.078,0.351-0.159,0.351-0.234c0-0.05,0-0.1-0.002-0.148
	s-0.005-0.096-0.011-0.139c-0.006-0.043-0.015-0.084-0.029-0.12c-0.014-0.036-0.033-0.067-0.058-0.092
	c-0.025-0.05-0.062-0.088-0.105-0.116c-0.042-0.028-0.089-0.047-0.132-0.059c-0.044-0.013-0.085-0.019-0.115-0.022
	S62.3,45.4,62.3,45.4l-1.5,0.075l-1.5,0.075l-1.5,0.075L56.3,45.7z"/>
<path style="fill:#FFFFFF;" d="M51.9,46.5c0,0,0.088,0.075,0.234,0.194c0.147,0.119,0.353,0.281,0.591,0.456
	c0.237,0.175,0.506,0.362,0.778,0.531C53.775,47.85,54.05,48,54.3,48.1s0.475,0.231,0.661,0.38c0.186,0.148,0.333,0.314,0.427,0.482
	c0.093,0.169,0.134,0.341,0.107,0.502c-0.027,0.161-0.12,0.311-0.295,0.436s-0.581,0.237-1.089,0.306
	c-0.508,0.069-1.117,0.094-1.698,0.044c-0.581-0.05-1.135-0.175-1.53-0.406S50.25,49.275,50.3,48.8s0.175-0.856,0.334-1.161
	c0.159-0.305,0.353-0.533,0.541-0.701s0.369-0.278,0.503-0.345S51.9,46.5,51.9,46.5z"/>
<path d="M53,50.5c-0.2,0-0.406-0.006-0.612-0.022s-0.413-0.041-0.612-0.078c-0.2-0.037-0.394-0.088-0.575-0.153
	C51.019,50.181,50.85,50.1,50.7,50c-0.175-0.1-0.312-0.206-0.419-0.314c-0.106-0.108-0.181-0.217-0.231-0.324
	s-0.075-0.21-0.081-0.305S49.975,48.875,50,48.8c0.05-0.475,0.188-0.869,0.366-1.192c0.178-0.324,0.397-0.577,0.609-0.771
	c0.213-0.193,0.419-0.328,0.572-0.414C51.7,46.338,51.8,46.3,51.8,46.3h0.025h0.025h0.025H51.9l0.025,0.025l0.025,0.025l0.025,0.025
	L52,46.4c0,0,0.088,0.075,0.233,0.192c0.145,0.117,0.348,0.277,0.579,0.446c0.232,0.169,0.491,0.347,0.749,0.502
	c0.258,0.155,0.514,0.286,0.738,0.36c0.175,0.05,0.337,0.125,0.484,0.217s0.278,0.201,0.391,0.32s0.207,0.247,0.279,0.377
	s0.122,0.261,0.147,0.386c0.025,0.1,0.031,0.194,0.022,0.281c-0.009,0.088-0.034,0.169-0.072,0.244s-0.088,0.144-0.147,0.206
	c-0.059,0.062-0.128,0.119-0.203,0.169s-0.188,0.1-0.33,0.147c-0.142,0.047-0.314,0.091-0.507,0.128s-0.409,0.069-0.639,0.091
	C53.494,50.488,53.25,50.5,53,50.5z M51.8,46.8c-0.075,0.05-0.188,0.119-0.317,0.216c-0.13,0.097-0.276,0.222-0.42,0.384
	c-0.144,0.163-0.285,0.362-0.402,0.609c-0.117,0.247-0.211,0.541-0.261,0.891c0,0.075,0.006,0.15,0.022,0.223
	c0.016,0.074,0.041,0.146,0.078,0.215s0.087,0.135,0.153,0.196C50.719,49.594,50.8,49.65,50.9,49.7
	c0.275,0.15,0.638,0.25,1.033,0.311s0.824,0.083,1.23,0.077s0.791-0.041,1.098-0.092c0.308-0.052,0.539-0.121,0.639-0.196
	c0.05-0.025,0.088-0.056,0.116-0.091c0.028-0.034,0.047-0.072,0.059-0.109s0.019-0.075,0.022-0.109
	C55.1,49.456,55.1,49.425,55.1,49.4c-0.025-0.1-0.069-0.194-0.128-0.281c-0.059-0.088-0.134-0.169-0.222-0.244
	s-0.188-0.144-0.297-0.206S54.225,48.55,54.1,48.5c-0.2-0.125-0.419-0.275-0.641-0.434c-0.222-0.159-0.447-0.328-0.659-0.491
	s-0.413-0.319-0.584-0.453C52.044,46.987,51.9,46.875,51.8,46.8z"/>
<path style="fill:#FFFFFF;" d="M49.2,47c0,0-0.019,0.119-0.086,0.308c-0.067,0.189-0.183,0.448-0.376,0.729
	c-0.194,0.281-0.466,0.585-0.846,0.861c-0.38,0.277-0.867,0.527-1.492,0.702c-0.6,0.175-1.181,0.194-1.701,0.116
	s-0.979-0.253-1.335-0.466c-0.357-0.213-0.61-0.463-0.718-0.691c-0.108-0.228-0.07-0.434,0.156-0.559
	c0.225-0.1,0.531-0.181,0.88-0.256c0.348-0.075,0.739-0.144,1.133-0.219c0.393-0.075,0.789-0.156,1.15-0.256
	c0.361-0.1,0.686-0.219,0.936-0.369c0.275-0.1,0.556-0.144,0.823-0.153c0.267-0.009,0.52,0.016,0.739,0.053s0.403,0.088,0.533,0.128
	S49.2,47,49.2,47z"/>
<path d="M45.3,50.1c-0.375,0-0.725-0.05-1.044-0.134c-0.319-0.084-0.606-0.203-0.856-0.341c-0.25-0.138-0.462-0.294-0.631-0.453
	S42.475,48.85,42.4,48.7c-0.025-0.075-0.037-0.15-0.037-0.223c0-0.074,0.013-0.146,0.037-0.215c0.025-0.069,0.062-0.134,0.112-0.195
	c0.05-0.061,0.113-0.117,0.188-0.167c0.125-0.05,0.256-0.094,0.395-0.134c0.139-0.041,0.286-0.078,0.443-0.116
	s0.322-0.075,0.498-0.116C44.213,47.494,44.4,47.45,44.6,47.4s0.406-0.094,0.611-0.136c0.205-0.042,0.408-0.083,0.602-0.127
	c0.194-0.044,0.378-0.09,0.545-0.145c0.167-0.055,0.317-0.117,0.442-0.192c0.275-0.15,0.562-0.225,0.841-0.253
	s0.547-0.009,0.784,0.028s0.444,0.094,0.597,0.141S49.275,46.8,49.3,46.8l0.05,0.025l0.05,0.025l0.05,0.025L49.5,46.9v0.05V47v0.05
	v0.05c0,0.025-0.025,0.162-0.103,0.367s-0.209,0.477-0.422,0.771c-0.212,0.294-0.506,0.609-0.909,0.901S47.15,49.7,46.5,49.9
	c-0.1,0.025-0.2,0.05-0.3,0.073c-0.1,0.024-0.2,0.046-0.3,0.065c-0.1,0.019-0.2,0.034-0.3,0.045C45.5,50.094,45.4,50.1,45.3,50.1z
	 M48,47.1c-0.075,0-0.15,0.006-0.225,0.017c-0.075,0.011-0.15,0.026-0.225,0.045c-0.075,0.019-0.15,0.041-0.225,0.065
	c-0.075,0.023-0.15,0.049-0.225,0.073c-0.15,0.075-0.319,0.144-0.5,0.206s-0.375,0.119-0.575,0.169s-0.406,0.094-0.612,0.131
	C45.206,47.844,45,47.875,44.8,47.9c-0.175,0.025-0.35,0.056-0.52,0.091c-0.17,0.034-0.336,0.072-0.493,0.109
	c-0.156,0.037-0.303,0.075-0.435,0.109C43.219,48.244,43.1,48.275,43,48.3c-0.025,0-0.044,0.006-0.058,0.017
	c-0.014,0.011-0.023,0.026-0.029,0.045c-0.006,0.019-0.01,0.041-0.011,0.065C42.9,48.45,42.9,48.475,42.9,48.5
	c0.05,0.125,0.181,0.275,0.377,0.422s0.455,0.291,0.761,0.403s0.66,0.194,1.042,0.216c0.383,0.022,0.795-0.016,1.22-0.141
	c0.45-0.125,0.825-0.294,1.138-0.484S48,48.513,48.2,48.3s0.35-0.425,0.463-0.616S48.85,47.325,48.9,47.2
	c-0.05-0.025-0.106-0.044-0.169-0.058c-0.062-0.014-0.131-0.024-0.206-0.03s-0.156-0.01-0.244-0.011C48.194,47.1,48.1,47.1,48,47.1z
	"/>
<path style="fill:#FFFFFF;" d="M41.4,44.1c0,0,0.213,0.013,0.539,0.044c0.327,0.031,0.767,0.081,1.224,0.156
	c0.456,0.075,0.928,0.175,1.318,0.306c0.389,0.131,0.695,0.294,0.82,0.494s0.237,0.406,0.33,0.608s0.164,0.399,0.207,0.58
	c0.043,0.181,0.059,0.347,0.039,0.486S45.8,47.025,45.7,47.1c-0.1,0.075-0.438,0.162-0.903,0.25
	c-0.466,0.088-1.059,0.175-1.672,0.25c-0.612,0.075-1.244,0.138-1.784,0.175C40.8,47.812,40.35,47.825,40.1,47.8
	c-0.25,0-0.469-0.094-0.645-0.234c-0.177-0.141-0.311-0.328-0.392-0.516c-0.082-0.188-0.11-0.375-0.074-0.516
	c0.036-0.141,0.136-0.234,0.311-0.234s0.456-0.019,0.78-0.047s0.689-0.066,1.032-0.103c0.344-0.037,0.666-0.075,0.902-0.103
	S42.4,46,42.4,46s-0.169,0.019-0.419,0.036c-0.25,0.017-0.581,0.033-0.906,0.026s-0.644-0.035-0.869-0.105
	c-0.225-0.07-0.356-0.182-0.306-0.357c0.025-0.225,0.131-0.431,0.277-0.614c0.145-0.183,0.329-0.342,0.51-0.473
	c0.181-0.131,0.36-0.235,0.493-0.305C41.312,44.137,41.4,44.1,41.4,44.1z"/>
<path d="M40.2,48h-0.025H40.15h-0.025H40.1c-0.2,0-0.388-0.05-0.556-0.134c-0.169-0.084-0.319-0.203-0.444-0.341
	c-0.125-0.138-0.225-0.294-0.294-0.453S38.7,46.75,38.7,46.6c0-0.1,0.013-0.188,0.037-0.264c0.025-0.077,0.062-0.142,0.113-0.199
	c0.05-0.056,0.112-0.103,0.188-0.142c0.075-0.039,0.162-0.07,0.263-0.095c0.025,0,0.056,0,0.094,0c0.037,0,0.081,0,0.131,0
	s0.106,0,0.169,0s0.131,0,0.206,0l-0.025-0.025L39.85,45.85l-0.025-0.025L39.8,45.8c-0.025-0.025-0.05-0.056-0.072-0.091
	c-0.022-0.034-0.041-0.072-0.053-0.109s-0.019-0.075-0.016-0.109c0.003-0.034,0.016-0.066,0.041-0.091
	c0.05-0.2,0.169-0.394,0.322-0.573c0.153-0.18,0.341-0.345,0.528-0.489s0.375-0.265,0.528-0.357c0.153-0.092,0.272-0.155,0.322-0.18
	h0.025h0.025h0.025H41.5h0.025h0.025h0.025H41.6c0.15,0,0.444,0.019,0.809,0.059c0.366,0.041,0.803,0.103,1.241,0.191
	s0.875,0.2,1.241,0.341c0.366,0.141,0.659,0.309,0.809,0.509c0.05,0.075,0.125,0.194,0.206,0.339s0.169,0.317,0.244,0.498
	c0.075,0.181,0.138,0.371,0.169,0.554S46.35,46.65,46.3,46.8c0,0.05-0.013,0.094-0.033,0.133c-0.02,0.039-0.048,0.073-0.079,0.104
	s-0.066,0.059-0.098,0.086C46.056,47.15,46.025,47.175,46,47.2c-0.175,0.1-0.55,0.2-1.033,0.294s-1.073,0.181-1.679,0.256
	c-0.606,0.075-1.229,0.138-1.774,0.181C40.969,47.975,40.5,48,40.2,48z M42.4,45.7l0.025,0.125l0.025,0.125l0.025,0.125L42.5,46.2
	c-0.025,0-0.188,0.019-0.428,0.047c-0.241,0.028-0.559,0.066-0.897,0.103c-0.337,0.037-0.694,0.075-1.009,0.103
	C39.85,46.481,39.575,46.5,39.4,46.5c-0.025,0-0.044,0-0.058,0.003s-0.023,0.009-0.029,0.022c-0.007,0.012-0.01,0.031-0.011,0.059
	C39.3,46.612,39.3,46.65,39.3,46.7c0,0.075,0.025,0.163,0.07,0.253c0.045,0.091,0.111,0.184,0.193,0.272
	c0.081,0.087,0.178,0.169,0.285,0.234c0.108,0.066,0.227,0.116,0.352,0.141c0.275,0,0.731-0.031,1.267-0.081
	c0.536-0.05,1.151-0.119,1.745-0.194c0.594-0.075,1.166-0.156,1.614-0.231C45.275,47.019,45.6,46.95,45.7,46.9
	c0,0,0.006,0,0.016-0.002c0.009-0.002,0.022-0.005,0.034-0.011s0.025-0.016,0.034-0.03c0.009-0.014,0.016-0.032,0.016-0.057
	c0.025-0.075,0.031-0.169,0.02-0.277c-0.011-0.108-0.039-0.23-0.082-0.361s-0.103-0.272-0.177-0.417
	C45.488,45.6,45.4,45.45,45.3,45.3c-0.075-0.1-0.256-0.2-0.506-0.295c-0.25-0.095-0.569-0.186-0.919-0.267s-0.731-0.153-1.106-0.211
	S42.025,44.425,41.7,44.4c-0.125,0.05-0.269,0.125-0.416,0.216c-0.147,0.091-0.297,0.197-0.434,0.309
	c-0.138,0.112-0.263,0.231-0.359,0.347C40.394,45.388,40.325,45.5,40.3,45.6c-0.025,0.025,0.019,0.05,0.117,0.072
	c0.098,0.022,0.251,0.041,0.445,0.053c0.194,0.013,0.428,0.019,0.689,0.016C41.812,45.737,42.1,45.725,42.4,45.7z"/>
<path style="fill:#4AAFF8;" d="M58.7,51c0.025-0.175,0.1-0.325,0.206-0.444S59.15,50.35,59.3,50.3s0.312-0.062,0.469-0.031
	s0.306,0.106,0.431,0.231c0.325,0.3,0.681,0.644,1.031,1.014c0.35,0.37,0.694,0.767,0.994,1.174c0.3,0.406,0.556,0.821,0.731,1.229
	c0.175,0.408,0.269,0.808,0.244,1.183c-0.075,0.65-0.244,1.169-0.48,1.57c-0.236,0.402-0.539,0.686-0.882,0.868
	c-0.344,0.181-0.729,0.259-1.127,0.248C60.312,57.775,59.9,57.675,59.5,57.5c-0.4-0.2-0.675-0.569-0.856-1.044
	c-0.181-0.475-0.269-1.056-0.294-1.681s0.013-1.294,0.081-1.944C58.5,52.181,58.6,51.55,58.7,51z"/>
<path d="M60.7,58.1c-0.125,0-0.25-0.006-0.373-0.019s-0.245-0.031-0.364-0.056c-0.119-0.025-0.235-0.056-0.346-0.094
	C59.506,57.894,59.4,57.85,59.3,57.8c-0.35-0.15-0.631-0.4-0.845-0.753s-0.361-0.809-0.443-1.372
	c-0.081-0.562-0.097-1.231-0.048-2.009C58.013,52.888,58.125,52,58.3,51l0,0l0,0l0,0l0,0c0.025-0.125,0.062-0.237,0.111-0.339
	c0.048-0.101,0.108-0.192,0.176-0.273c0.069-0.082,0.147-0.154,0.233-0.218C58.906,50.106,59,50.05,59.1,50
	c0.1-0.025,0.206-0.037,0.314-0.037s0.217,0.012,0.324,0.037s0.21,0.062,0.305,0.112s0.182,0.112,0.257,0.188
	c0.375,0.35,0.763,0.731,1.131,1.131c0.369,0.4,0.719,0.819,1.019,1.244s0.55,0.856,0.719,1.281S63.425,54.8,63.4,55.2
	c-0.05,0.4-0.131,0.744-0.233,1.039c-0.102,0.295-0.224,0.542-0.355,0.748c-0.131,0.207-0.271,0.372-0.41,0.505
	S62.125,57.725,62,57.8c-0.075,0.025-0.162,0.056-0.259,0.089c-0.097,0.033-0.203,0.067-0.316,0.099
	c-0.112,0.031-0.231,0.059-0.353,0.079C60.95,58.087,60.825,58.1,60.7,58.1z M59,51c-0.2,1.175-0.3,2.125-0.33,2.892
	s0.011,1.352,0.093,1.796c0.081,0.444,0.203,0.747,0.335,0.951C59.231,56.844,59.375,56.95,59.5,57
	c0.2,0.075,0.394,0.131,0.581,0.169c0.188,0.037,0.369,0.056,0.544,0.056s0.344-0.019,0.506-0.056
	C61.294,57.131,61.45,57.075,61.6,57s0.287-0.181,0.411-0.314c0.123-0.133,0.233-0.292,0.326-0.473s0.172-0.384,0.233-0.605
	c0.061-0.221,0.105-0.458,0.13-0.708c0.025-0.225-0.019-0.494-0.128-0.798c-0.109-0.305-0.284-0.645-0.522-1.014
	s-0.538-0.765-0.897-1.183c-0.359-0.417-0.778-0.855-1.253-1.305c-0.05-0.05-0.1-0.081-0.148-0.1
	c-0.049-0.019-0.096-0.025-0.139-0.025c-0.043,0-0.084,0.006-0.12,0.013C59.456,50.494,59.425,50.5,59.4,50.5
	c-0.05,0.05-0.094,0.1-0.133,0.148c-0.039,0.048-0.073,0.095-0.104,0.139c-0.032,0.044-0.06,0.085-0.086,0.121
	C59.05,50.944,59.025,50.975,59,51L59,51L59,51L59,51L59,51z"/>
<path style="fill:#4AAFF8;" d="M58.4,64.9c0.025-0.175,0.1-0.325,0.206-0.444S58.85,64.25,59,64.2s0.312-0.062,0.469-0.031
	s0.306,0.106,0.431,0.231c0.325,0.3,0.681,0.644,1.031,1.014s0.694,0.767,0.994,1.174c0.3,0.406,0.556,0.821,0.731,1.229
	c0.175,0.408,0.269,0.808,0.244,1.183c-0.075,0.65-0.244,1.169-0.48,1.57s-0.539,0.686-0.882,0.868s-0.728,0.26-1.127,0.248
	C60.013,71.675,59.6,71.575,59.2,71.4s-0.675-0.525-0.856-0.988c-0.181-0.463-0.269-1.037-0.294-1.662s0.013-1.3,0.081-1.963
	C58.2,66.125,58.3,65.475,58.4,64.9z"/>
<path d="M60.4,72c-0.125,0-0.25-0.006-0.373-0.019c-0.123-0.012-0.245-0.031-0.364-0.056c-0.119-0.025-0.235-0.056-0.346-0.094
	C59.206,71.794,59.1,71.75,59,71.7c-0.35-0.15-0.631-0.4-0.845-0.753c-0.214-0.353-0.361-0.809-0.443-1.372
	c-0.081-0.562-0.097-1.231-0.048-2.009C57.713,66.787,57.825,65.9,58,64.9l0,0l0,0l0,0l0,0c0.025-0.125,0.062-0.237,0.111-0.339
	c0.048-0.102,0.108-0.192,0.176-0.274c0.069-0.081,0.147-0.153,0.233-0.217c0.086-0.064,0.18-0.12,0.28-0.17
	c0.1-0.025,0.206-0.037,0.316-0.037s0.222,0.012,0.334,0.037s0.225,0.062,0.334,0.113C59.894,64.062,60,64.125,60.1,64.2
	c0.375,0.35,0.763,0.731,1.131,1.131c0.369,0.4,0.719,0.819,1.019,1.244s0.55,0.856,0.719,1.281
	c0.169,0.425,0.256,0.844,0.231,1.244c-0.05,0.4-0.131,0.744-0.233,1.039c-0.102,0.295-0.224,0.542-0.355,0.748
	c-0.131,0.206-0.272,0.372-0.411,0.505S61.925,71.625,61.8,71.7c-0.1,0.05-0.206,0.094-0.317,0.131s-0.226,0.069-0.345,0.094
	c-0.119,0.025-0.241,0.044-0.364,0.056C60.65,71.994,60.525,72,60.4,72z M58.8,65c-0.2,1.175-0.3,2.125-0.33,2.892
	s0.011,1.352,0.093,1.796s0.203,0.747,0.336,0.951S59.175,70.95,59.3,71c0.2,0.075,0.394,0.131,0.581,0.169
	c0.188,0.038,0.369,0.056,0.544,0.056s0.344-0.019,0.506-0.056C61.094,71.131,61.25,71.075,61.4,71s0.287-0.181,0.411-0.314
	s0.233-0.292,0.326-0.473c0.094-0.182,0.172-0.385,0.233-0.605s0.105-0.458,0.13-0.708c0.025-0.225-0.019-0.494-0.128-0.797
	s-0.284-0.641-0.522-1.003c-0.237-0.362-0.537-0.75-0.897-1.153c-0.359-0.403-0.778-0.822-1.253-1.247
	c-0.05-0.05-0.1-0.081-0.148-0.1c-0.049-0.019-0.096-0.025-0.139-0.025c-0.043,0-0.084,0.006-0.12,0.012
	C59.256,64.594,59.225,64.6,59.2,64.6c-0.05,0.025-0.1,0.05-0.147,0.076c-0.047,0.027-0.091,0.055-0.128,0.086
	s-0.069,0.065-0.091,0.105S58.8,64.95,58.8,65L58.8,65L58.8,65L58.8,65L58.8,65z"/>
<path style="fill:#4AAFF8;" d="M58.4,78.9c0.025-0.175,0.1-0.325,0.206-0.444S58.85,78.25,59,78.2s0.312-0.062,0.469-0.031
	s0.306,0.106,0.431,0.231c0.325,0.3,0.681,0.644,1.031,1.014s0.694,0.767,0.994,1.174c0.3,0.406,0.556,0.821,0.731,1.229
	c0.175,0.408,0.269,0.808,0.244,1.183c-0.075,0.65-0.244,1.169-0.48,1.57s-0.539,0.686-0.882,0.868s-0.728,0.26-1.127,0.248
	C60.013,85.675,59.6,85.575,59.2,85.4c-0.4-0.2-0.675-0.569-0.856-1.044c-0.181-0.475-0.269-1.056-0.294-1.681
	s0.013-1.294,0.081-1.944C58.2,80.081,58.3,79.45,58.4,78.9z"/>
<path d="M60.4,86c-0.125,0-0.25-0.006-0.373-0.019c-0.123-0.012-0.245-0.031-0.364-0.056c-0.119-0.025-0.235-0.056-0.346-0.094
	C59.206,85.794,59.1,85.75,59,85.7c-0.35-0.15-0.631-0.4-0.845-0.753c-0.214-0.353-0.361-0.809-0.443-1.372
	c-0.081-0.562-0.097-1.231-0.048-2.009C57.713,80.787,57.825,79.9,58,78.9l0,0l0,0l0,0l0,0c0.025-0.125,0.062-0.237,0.111-0.339
	c0.048-0.102,0.108-0.192,0.176-0.274c0.069-0.081,0.147-0.153,0.233-0.217c0.086-0.064,0.18-0.12,0.28-0.17
	c0.1-0.025,0.206-0.037,0.316-0.037s0.222,0.012,0.334,0.037s0.225,0.062,0.334,0.113C59.894,78.062,60,78.125,60.1,78.2
	c0.375,0.35,0.763,0.731,1.131,1.131c0.369,0.4,0.719,0.819,1.019,1.244s0.55,0.856,0.719,1.281
	c0.169,0.425,0.256,0.844,0.231,1.244c-0.05,0.4-0.131,0.744-0.233,1.039c-0.102,0.295-0.224,0.542-0.355,0.748
	c-0.131,0.206-0.272,0.372-0.411,0.505S61.925,85.625,61.8,85.7c-0.1,0.025-0.206,0.056-0.317,0.089s-0.226,0.067-0.345,0.099
	s-0.241,0.06-0.364,0.08C60.65,85.988,60.525,86,60.4,86z M58.8,79c-0.2,1.175-0.3,2.125-0.33,2.892s0.011,1.352,0.093,1.796
	s0.203,0.747,0.336,0.951S59.175,84.95,59.3,85c0.2,0.075,0.394,0.131,0.581,0.169c0.188,0.038,0.369,0.056,0.544,0.056
	s0.344-0.019,0.506-0.056C61.094,85.131,61.25,85.075,61.4,85s0.287-0.181,0.411-0.314s0.233-0.292,0.326-0.473
	c0.094-0.182,0.172-0.385,0.233-0.605s0.105-0.458,0.13-0.708c0.025-0.225-0.019-0.494-0.128-0.797s-0.284-0.641-0.522-1.003
	c-0.237-0.362-0.537-0.75-0.897-1.153c-0.359-0.403-0.778-0.822-1.253-1.247c-0.05-0.05-0.1-0.081-0.148-0.1
	c-0.049-0.019-0.096-0.025-0.139-0.025c-0.043,0-0.084,0.006-0.12,0.012C59.256,78.594,59.225,78.6,59.2,78.6
	c-0.05,0-0.1,0.013-0.147,0.034s-0.091,0.053-0.128,0.091s-0.069,0.081-0.091,0.128S58.8,78.95,58.8,79L58.8,79L58.8,79L58.8,79
	L58.8,79z"/>
<path style="fill:#4AAFF8;" d="M65.9,71.7c0.025-0.175,0.1-0.319,0.206-0.428c0.106-0.109,0.244-0.184,0.394-0.222
	c0.15-0.037,0.312-0.037,0.469,0.003s0.306,0.122,0.431,0.247c0.3,0.3,0.637,0.656,0.972,1.044c0.334,0.387,0.666,0.806,0.953,1.231
	s0.531,0.856,0.691,1.269C70.175,75.256,70.25,75.65,70.2,76c-0.1,0.625-0.287,1.125-0.537,1.511s-0.562,0.658-0.912,0.827
	c-0.35,0.169-0.738,0.234-1.137,0.207C67.213,78.519,66.8,78.4,66.4,78.2s-0.662-0.569-0.823-1.044
	c-0.161-0.475-0.22-1.056-0.214-1.681s0.078-1.294,0.18-1.944S65.775,72.25,65.9,71.7z"/>
<path d="M67.7,78.9c-0.125,0-0.25-0.006-0.375-0.02c-0.125-0.014-0.25-0.036-0.375-0.068s-0.25-0.072-0.375-0.123
	s-0.25-0.114-0.375-0.189c-0.325-0.175-0.588-0.444-0.784-0.811s-0.328-0.833-0.391-1.402c-0.062-0.569-0.056-1.24,0.022-2.02
	S65.275,72.6,65.5,71.6c0.025-0.1,0.062-0.2,0.113-0.295c0.05-0.095,0.113-0.186,0.188-0.267s0.162-0.153,0.262-0.211
	c0.1-0.058,0.213-0.102,0.338-0.127c0.1-0.025,0.206-0.037,0.314-0.037s0.217,0.012,0.324,0.037
	c0.106,0.025,0.209,0.062,0.304,0.113c0.095,0.05,0.183,0.112,0.258,0.188c0.35,0.35,0.719,0.744,1.072,1.161
	c0.353,0.417,0.691,0.858,0.978,1.302c0.287,0.443,0.525,0.89,0.678,1.32S70.55,75.625,70.5,76c-0.05,0.4-0.137,0.744-0.248,1.039
	s-0.245,0.542-0.389,0.748c-0.144,0.206-0.297,0.372-0.446,0.505S69.125,78.525,69,78.6c-0.1,0.05-0.2,0.094-0.302,0.131
	c-0.102,0.038-0.205,0.069-0.311,0.094c-0.106,0.025-0.215,0.044-0.329,0.056C67.944,78.894,67.825,78.9,67.7,78.9z M66.7,71.4
	h-0.025H66.65h-0.025H66.6c-0.05,0.025-0.094,0.05-0.131,0.076c-0.038,0.027-0.069,0.055-0.094,0.086s-0.044,0.065-0.056,0.105
	C66.306,71.706,66.3,71.75,66.3,71.8l0,0l0,0l0,0l0,0c-0.25,1.175-0.394,2.125-0.459,2.894c-0.066,0.769-0.053,1.356,0.009,1.806
	s0.175,0.762,0.309,0.981C66.294,77.7,66.45,77.825,66.6,77.9c0.2,0.1,0.394,0.175,0.581,0.227c0.188,0.051,0.369,0.079,0.544,0.085
	c0.175,0.007,0.344-0.009,0.506-0.045C68.394,78.131,68.55,78.075,68.7,78s0.287-0.175,0.411-0.299
	c0.124-0.123,0.233-0.271,0.327-0.439c0.093-0.168,0.172-0.359,0.232-0.57S69.775,76.25,69.8,76c0.025-0.225-0.019-0.494-0.127-0.8
	s-0.28-0.65-0.511-1.025c-0.231-0.375-0.521-0.781-0.867-1.213S67.55,72.075,67.1,71.6c-0.025-0.025-0.056-0.05-0.091-0.073
	c-0.034-0.023-0.072-0.045-0.109-0.064c-0.037-0.019-0.075-0.035-0.109-0.046C66.756,71.406,66.725,71.4,66.7,71.4z"/>
<path style="fill:#4AAFF8;" d="M65.8,59.1c0.025-0.175,0.094-0.319,0.191-0.43s0.222-0.189,0.359-0.233
	c0.137-0.043,0.287-0.053,0.434-0.026c0.147,0.027,0.291,0.089,0.416,0.189c0.325,0.3,0.688,0.65,1.045,1.028
	s0.711,0.784,1.017,1.197c0.306,0.413,0.566,0.831,0.736,1.234S70.25,62.85,70.2,63.2c-0.075,0.65-0.244,1.169-0.48,1.57
	c-0.236,0.402-0.539,0.686-0.883,0.868c-0.343,0.181-0.728,0.259-1.126,0.248S66.9,65.775,66.5,65.6s-0.669-0.525-0.841-0.988
	s-0.247-1.037-0.259-1.662s0.037-1.3,0.116-1.962C65.594,60.325,65.7,59.675,65.8,59.1z"/>
<path d="M67.8,66.3c-0.125,0-0.25-0.006-0.373-0.019c-0.124-0.012-0.246-0.031-0.365-0.056c-0.119-0.025-0.234-0.056-0.345-0.094
	C66.606,66.094,66.5,66.05,66.4,66c-0.35-0.15-0.631-0.406-0.844-0.769c-0.213-0.362-0.356-0.831-0.431-1.406
	s-0.081-1.256-0.019-2.044C65.169,60.994,65.3,60.1,65.5,59.1l0,0l0,0l0,0l0,0c0.025-0.1,0.062-0.2,0.111-0.295
	c0.048-0.095,0.108-0.186,0.176-0.267c0.069-0.082,0.147-0.153,0.233-0.211c0.086-0.058,0.18-0.102,0.28-0.127
	c0.1-0.025,0.206-0.037,0.314-0.037s0.217,0.013,0.323,0.037c0.106,0.025,0.21,0.062,0.305,0.112
	c0.095,0.05,0.182,0.113,0.257,0.188c0.375,0.35,0.769,0.737,1.145,1.145c0.377,0.408,0.736,0.836,1.043,1.268
	c0.306,0.431,0.56,0.865,0.724,1.285S70.65,63.025,70.6,63.4c-0.05,0.4-0.131,0.744-0.233,1.039
	c-0.102,0.295-0.224,0.542-0.355,0.749c-0.131,0.206-0.271,0.371-0.41,0.504C69.462,65.825,69.325,65.925,69.2,66
	c-0.125,0.05-0.244,0.094-0.359,0.131S68.613,66.2,68.5,66.225s-0.225,0.044-0.341,0.056C68.044,66.294,67.925,66.3,67.8,66.3z
	 M66.1,59.2c-0.225,1.175-0.338,2.125-0.372,2.894c-0.034,0.769,0.009,1.356,0.097,1.806c0.087,0.45,0.219,0.763,0.359,0.981
	s0.291,0.344,0.416,0.419c0.2,0.075,0.394,0.131,0.581,0.169c0.188,0.038,0.369,0.056,0.544,0.056s0.344-0.019,0.506-0.056
	c0.163-0.037,0.319-0.094,0.469-0.169s0.287-0.181,0.411-0.314c0.124-0.133,0.233-0.292,0.327-0.473
	c0.093-0.182,0.172-0.385,0.232-0.605s0.105-0.458,0.13-0.708s-0.025-0.531-0.144-0.841c-0.119-0.309-0.306-0.647-0.556-1.009
	s-0.562-0.75-0.931-1.159S67.375,59.35,66.9,58.9c-0.025-0.025-0.056-0.05-0.092-0.072c-0.036-0.022-0.077-0.041-0.121-0.053
	c-0.044-0.013-0.09-0.019-0.139-0.016C66.5,58.763,66.45,58.775,66.4,58.8c-0.025,0.025-0.05,0.05-0.075,0.076
	c-0.025,0.027-0.05,0.055-0.075,0.085s-0.05,0.065-0.075,0.105C66.15,59.106,66.125,59.15,66.1,59.2L66.1,59.2L66.1,59.2L66.1,59.2
	L66.1,59.2z"/>
<path style="fill:#4AAFF8;" d="M73.5,67.8c-0.025-0.15-0.006-0.288,0.045-0.405c0.051-0.117,0.136-0.214,0.242-0.283
	s0.234-0.109,0.374-0.114C74.3,66.993,74.45,67.025,74.6,67.1c0.375,0.2,0.819,0.438,1.276,0.705
	c0.458,0.267,0.93,0.564,1.361,0.883c0.432,0.319,0.822,0.659,1.118,1.014c0.295,0.355,0.495,0.723,0.545,1.098
	c0.1,0.625,0.075,1.156-0.045,1.598c-0.12,0.442-0.336,0.795-0.617,1.064s-0.628,0.453-1.011,0.558
	c-0.383,0.105-0.802,0.13-1.227,0.08c-0.45-0.075-0.819-0.369-1.122-0.802c-0.303-0.433-0.541-1.005-0.728-1.636
	c-0.188-0.631-0.325-1.321-0.428-1.992C73.619,69,73.55,68.35,73.5,67.8z"/>
<path d="M76.4,74.5c-0.05,0-0.1,0-0.15,0c-0.05,0-0.1,0-0.15,0c-0.05,0-0.1,0-0.15,0c-0.05,0-0.1,0-0.15,0
	c-0.375-0.05-0.713-0.219-1.014-0.511c-0.301-0.292-0.567-0.708-0.798-1.251c-0.231-0.544-0.428-1.216-0.593-2.021
	C73.231,69.913,73.1,68.975,73,67.9l0,0l0,0l0,0l0,0c0-0.1,0.006-0.2,0.022-0.297c0.016-0.097,0.041-0.191,0.078-0.278
	s0.088-0.169,0.153-0.241S73.4,66.95,73.5,66.9c0.075-0.05,0.162-0.094,0.256-0.128c0.094-0.034,0.194-0.059,0.294-0.072
	s0.2-0.012,0.294,0.003S74.525,66.75,74.6,66.8c0.475,0.25,0.975,0.525,1.463,0.822c0.487,0.297,0.963,0.616,1.387,0.953
	s0.8,0.694,1.087,1.066S79.025,70.4,79.1,70.8s0.1,0.75,0.088,1.058c-0.013,0.308-0.062,0.574-0.138,0.805
	c-0.075,0.231-0.175,0.428-0.287,0.598c-0.113,0.17-0.238,0.314-0.363,0.439c-0.1,0.125-0.219,0.237-0.355,0.336
	c-0.136,0.098-0.289,0.183-0.457,0.251c-0.169,0.069-0.354,0.122-0.552,0.158C76.838,74.481,76.625,74.5,76.4,74.5z M73.8,67.8
	c0.1,1.175,0.238,2.125,0.398,2.891c0.161,0.766,0.346,1.347,0.54,1.784s0.397,0.731,0.595,0.922
	c0.198,0.191,0.392,0.278,0.567,0.303c0.2,0.025,0.4,0.031,0.594,0.019s0.381-0.044,0.556-0.094s0.337-0.119,0.481-0.206
	c0.144-0.087,0.269-0.194,0.369-0.319c0.125-0.125,0.225-0.269,0.303-0.43s0.134-0.339,0.172-0.533s0.056-0.403,0.059-0.627
	c0.003-0.223-0.009-0.46-0.034-0.71c-0.05-0.25-0.181-0.512-0.387-0.786c-0.206-0.273-0.488-0.558-0.838-0.851
	c-0.35-0.294-0.769-0.597-1.25-0.908S74.9,67.625,74.3,67.3c-0.05-0.025-0.094-0.038-0.133-0.042s-0.074-0.001-0.105,0.005
	c-0.031,0.006-0.059,0.015-0.086,0.023C73.95,67.294,73.925,67.3,73.9,67.3c0.025,0.05,0.031,0.094,0.027,0.134
	s-0.02,0.078-0.039,0.116c-0.019,0.037-0.041,0.075-0.058,0.116S73.8,67.75,73.8,67.8L73.8,67.8L73.8,67.8L73.8,67.8L73.8,67.8z"/>
<path style="fill:#4AAFF8;" d="M51.8,55.7c0,0,0.181,0.244,0.43,0.656c0.249,0.412,0.564,0.994,0.833,1.669s0.491,1.444,0.552,2.231
	c0.061,0.787-0.04,1.594-0.415,2.344s-0.944,1.188-1.567,1.359s-1.301,0.078-1.895-0.234c-0.594-0.312-1.104-0.844-1.389-1.547
	S48,60.6,48.3,59.6s0.625-1.819,0.955-2.466s0.664-1.122,0.983-1.434s0.622-0.463,0.889-0.459C51.394,55.244,51.625,55.4,51.8,55.7z
	"/>
<path d="M51.1,64.4c-0.1,0-0.194-0.006-0.284-0.017c-0.091-0.011-0.178-0.026-0.266-0.045s-0.175-0.04-0.266-0.064
	S50.1,64.225,50,64.2c-0.35-0.15-0.694-0.369-1-0.65s-0.575-0.625-0.775-1.025s-0.331-0.856-0.362-1.362S47.9,60.1,48.1,59.5
	c0.225-0.7,0.456-1.331,0.694-1.886c0.238-0.555,0.481-1.033,0.731-1.426s0.506-0.703,0.769-0.92
	c0.263-0.217,0.531-0.342,0.806-0.367c0.075,0,0.162,0,0.256,0.009c0.094,0.009,0.194,0.028,0.294,0.066s0.2,0.094,0.294,0.178
	c0.094,0.084,0.181,0.197,0.256,0.347c0.05,0.075,0.262,0.375,0.53,0.831c0.267,0.456,0.589,1.069,0.858,1.769
	c0.269,0.7,0.484,1.487,0.539,2.294c0.055,0.806-0.052,1.631-0.427,2.406c-0.15,0.25-0.325,0.475-0.519,0.672
	c-0.194,0.197-0.406,0.366-0.631,0.503c-0.225,0.137-0.462,0.243-0.706,0.315C51.6,64.363,51.35,64.4,51.1,64.4z M51.1,55.6
	L51.1,55.6L51.1,55.6L51.1,55.6L51.1,55.6c-0.125,0.025-0.275,0.1-0.445,0.247c-0.17,0.147-0.361,0.366-0.568,0.678
	s-0.428,0.719-0.661,1.241c-0.233,0.522-0.476,1.159-0.726,1.934c-0.15,0.5-0.206,0.956-0.188,1.367
	c0.019,0.411,0.112,0.777,0.263,1.096c0.15,0.318,0.356,0.59,0.6,0.814C49.619,63.2,49.9,63.375,50.2,63.5
	c0.225,0.1,0.469,0.162,0.717,0.181c0.248,0.019,0.502-0.006,0.746-0.081c0.243-0.075,0.478-0.2,0.689-0.381
	c0.211-0.181,0.399-0.419,0.548-0.719c0.325-0.675,0.4-1.419,0.33-2.155c-0.07-0.736-0.286-1.464-0.543-2.108
	s-0.553-1.203-0.786-1.602C51.668,56.237,51.5,56,51.5,56l0,0l0,0l0,0l0,0c-0.025-0.075-0.056-0.138-0.091-0.189
	c-0.034-0.052-0.072-0.092-0.109-0.123s-0.075-0.053-0.109-0.067C51.156,55.606,51.125,55.6,51.1,55.6z"/>
<path style="fill:#4AAFF8;" d="M51.8,69.7c0,0,0.181,0.244,0.43,0.656s0.564,0.994,0.833,1.669c0.268,0.675,0.49,1.444,0.551,2.231
	S53.575,75.85,53.2,76.6s-0.944,1.188-1.567,1.359s-1.301,0.078-1.895-0.234s-1.103-0.844-1.389-1.547
	C48.063,75.475,48,74.6,48.3,73.6s0.625-1.819,0.955-2.466c0.33-0.647,0.664-1.122,0.983-1.434s0.622-0.463,0.889-0.459
	C51.394,69.244,51.625,69.4,51.8,69.7z"/>
<path d="M51.1,78.4c-0.1,0-0.194-0.006-0.284-0.017c-0.091-0.011-0.178-0.026-0.266-0.045s-0.175-0.04-0.266-0.064
	S50.1,78.225,50,78.2c-0.35-0.15-0.694-0.369-1-0.65s-0.575-0.625-0.775-1.025s-0.331-0.856-0.363-1.363
	C47.831,74.656,47.9,74.1,48.1,73.5c0.225-0.7,0.456-1.331,0.694-1.886c0.238-0.555,0.481-1.033,0.731-1.426s0.506-0.703,0.769-0.92
	c0.263-0.217,0.531-0.343,0.806-0.368c0.075,0,0.162,0,0.256,0.009c0.094,0.009,0.194,0.028,0.294,0.066s0.2,0.094,0.294,0.178
	S52.125,69.35,52.2,69.5c0.05,0.075,0.262,0.375,0.53,0.831c0.267,0.456,0.589,1.069,0.858,1.769c0.269,0.7,0.484,1.488,0.539,2.294
	c0.055,0.806-0.052,1.631-0.427,2.406c-0.15,0.25-0.325,0.475-0.519,0.672c-0.194,0.197-0.406,0.366-0.631,0.503
	s-0.462,0.244-0.706,0.316C51.6,78.363,51.35,78.4,51.1,78.4z M51.1,69.6L51.1,69.6L51.1,69.6L51.1,69.6L51.1,69.6
	c-0.125,0.025-0.275,0.1-0.445,0.247c-0.17,0.147-0.361,0.366-0.568,0.678s-0.428,0.719-0.661,1.241S48.95,72.925,48.7,73.7
	c-0.15,0.5-0.206,0.956-0.188,1.367s0.112,0.777,0.263,1.096s0.356,0.591,0.6,0.814S49.9,77.375,50.2,77.5
	c0.225,0.1,0.469,0.162,0.717,0.181c0.248,0.019,0.502-0.006,0.746-0.081c0.243-0.075,0.478-0.2,0.689-0.381
	c0.211-0.181,0.399-0.419,0.548-0.719c0.325-0.675,0.4-1.419,0.33-2.155c-0.07-0.736-0.286-1.464-0.543-2.107
	c-0.256-0.644-0.553-1.203-0.785-1.602S51.5,70,51.5,70l0,0l0,0l0,0l0,0c-0.025-0.1-0.056-0.175-0.091-0.231
	c-0.034-0.056-0.072-0.094-0.109-0.119s-0.075-0.037-0.109-0.044C51.156,69.6,51.125,69.6,51.1,69.6z"/>
<path style="fill:#4AAFF8;" d="M51.8,85.1c0,0,0.181,0.244,0.43,0.656s0.564,0.994,0.833,1.669c0.268,0.675,0.49,1.444,0.551,2.231
	S53.575,91.25,53.2,92s-0.944,1.188-1.567,1.359s-1.301,0.078-1.895-0.234s-1.103-0.844-1.389-1.547C48.063,90.875,48,90,48.3,89
	c0.325-1,0.663-1.819,0.997-2.466c0.334-0.647,0.666-1.122,0.978-1.434s0.606-0.463,0.866-0.459S51.625,84.8,51.8,85.1z"/>
<path d="M51.1,93.8c-0.1,0-0.194-0.006-0.284-0.017c-0.091-0.011-0.178-0.026-0.266-0.045s-0.175-0.04-0.266-0.064
	S50.1,93.625,50,93.6c-0.35-0.15-0.694-0.369-1-0.65s-0.575-0.625-0.775-1.025s-0.331-0.856-0.363-1.363S47.9,89.5,48.1,88.9
	c0.225-0.7,0.456-1.331,0.694-1.886c0.238-0.555,0.481-1.033,0.731-1.426s0.506-0.703,0.769-0.92
	c0.263-0.217,0.531-0.343,0.806-0.368c0.075,0,0.162,0,0.256,0.009s0.194,0.028,0.294,0.066s0.2,0.094,0.294,0.178
	S52.125,84.75,52.2,84.9c0.05,0.075,0.262,0.375,0.53,0.831c0.267,0.456,0.589,1.069,0.858,1.769c0.269,0.7,0.484,1.488,0.539,2.294
	c0.055,0.806-0.052,1.631-0.427,2.406c-0.15,0.25-0.325,0.475-0.519,0.672c-0.194,0.197-0.406,0.366-0.631,0.503
	s-0.462,0.244-0.706,0.316C51.6,93.763,51.35,93.8,51.1,93.8z M51.1,85L51.1,85L51.1,85L51.1,85L51.1,85
	c-0.125,0.025-0.275,0.1-0.445,0.247c-0.17,0.147-0.361,0.366-0.568,0.678s-0.428,0.719-0.661,1.241S48.95,88.325,48.7,89.1
	c-0.15,0.5-0.206,0.956-0.188,1.367s0.112,0.777,0.263,1.096s0.356,0.591,0.6,0.814S49.9,92.775,50.2,92.9
	c0.225,0.1,0.469,0.162,0.717,0.181c0.248,0.019,0.502-0.006,0.746-0.081c0.243-0.075,0.478-0.2,0.689-0.381
	c0.211-0.181,0.399-0.419,0.548-0.719c0.325-0.675,0.4-1.419,0.33-2.155c-0.07-0.736-0.286-1.464-0.543-2.107
	s-0.553-1.203-0.786-1.602C51.668,85.638,51.5,85.4,51.5,85.4l0,0l0,0l0,0l0,0c-0.025-0.1-0.056-0.175-0.091-0.231
	s-0.072-0.094-0.109-0.119c-0.038-0.025-0.075-0.038-0.109-0.044S51.125,85,51.1,85z"/>
<path style="fill:#4AAFF8;" d="M45.1,51c0,0,0.1,0.444,0.186,1.103c0.086,0.659,0.158,1.534,0.101,2.397
	c-0.056,0.862-0.24,1.713-0.667,2.322c-0.427,0.609-1.095,0.978-2.12,0.878s-1.662-0.425-2.028-0.875
	c-0.366-0.45-0.459-1.025-0.397-1.625s0.281-1.225,0.541-1.775c0.259-0.55,0.559-1.025,0.784-1.325
	c0.2-0.25,0.506-0.594,0.858-0.931c0.352-0.337,0.748-0.669,1.129-0.894s0.747-0.344,1.036-0.256C44.812,50.106,45.025,50.4,45.1,51
	z"/>
<path d="M43,58.1c-0.025,0-0.05,0-0.076,0c-0.026,0-0.054,0-0.085,0s-0.066,0-0.105,0s-0.083,0-0.133,0
	c-0.325-0.025-0.625-0.081-0.899-0.164c-0.273-0.083-0.521-0.192-0.739-0.323s-0.41-0.284-0.57-0.455
	C40.231,56.988,40.1,56.8,40,56.6c-0.175-0.4-0.225-0.844-0.192-1.297s0.148-0.916,0.304-1.353s0.353-0.85,0.549-1.203
	c0.196-0.353,0.39-0.647,0.54-0.847c0.025-0.025,0.162-0.2,0.376-0.442c0.214-0.242,0.505-0.551,0.836-0.845
	c0.331-0.294,0.703-0.572,1.08-0.752c0.377-0.18,0.758-0.261,1.108-0.161c0.125,0.025,0.237,0.075,0.338,0.147
	c0.1,0.072,0.188,0.166,0.262,0.278c0.075,0.112,0.138,0.244,0.188,0.391S45.475,50.825,45.5,51c0.025,0.075,0.1,0.394,0.173,0.858
	c0.073,0.464,0.145,1.073,0.164,1.729c0.019,0.657-0.015,1.36-0.154,2.011C45.544,56.25,45.3,56.85,44.9,57.3
	c-0.125,0.125-0.256,0.237-0.395,0.336c-0.139,0.098-0.286,0.183-0.443,0.252c-0.156,0.069-0.321,0.121-0.498,0.157
	C43.388,58.081,43.2,58.1,43,58.1z M44.3,50.3c-0.15,0-0.331,0.062-0.531,0.172s-0.419,0.266-0.644,0.453s-0.456,0.406-0.681,0.641
	C42.219,51.8,42,52.05,41.8,52.3c-0.15,0.2-0.325,0.469-0.495,0.778s-0.336,0.659-0.467,1.022c-0.132,0.362-0.229,0.737-0.261,1.097
	S40.575,55.9,40.7,56.2c0.075,0.15,0.169,0.287,0.284,0.411c0.116,0.123,0.253,0.233,0.416,0.326s0.35,0.172,0.566,0.232
	c0.216,0.061,0.459,0.105,0.734,0.13c0.175,0.025,0.344,0.031,0.503,0.02s0.309-0.039,0.447-0.082s0.263-0.103,0.372-0.176
	S44.225,56.9,44.3,56.8c0.35-0.375,0.55-0.919,0.653-1.523c0.103-0.605,0.109-1.271,0.072-1.889
	c-0.037-0.618-0.119-1.19-0.191-1.607C44.763,51.362,44.7,51.1,44.7,51.1l0,0l0,0l0,0l0,0c0-0.075-0.006-0.15-0.02-0.222
	c-0.014-0.072-0.036-0.141-0.067-0.203s-0.072-0.119-0.124-0.166c-0.052-0.047-0.114-0.084-0.189-0.109
	c0.025-0.025,0.044-0.044,0.056-0.058s0.019-0.023,0.019-0.029c0-0.007-0.006-0.01-0.019-0.011S44.325,50.3,44.3,50.3z"/>
<path style="fill:#4AAFF8;" d="M37.8,71.9c0,0,0.1,0.444,0.186,1.103c0.086,0.659,0.158,1.534,0.101,2.397s-0.241,1.713-0.667,2.322
	S36.325,78.7,35.3,78.6s-1.662-0.425-2.028-0.875c-0.366-0.45-0.459-1.025-0.397-1.625s0.281-1.225,0.541-1.775
	C33.675,73.775,33.975,73.3,34.2,73c0.2-0.25,0.5-0.594,0.844-0.931s0.731-0.669,1.106-0.894c0.375-0.225,0.737-0.344,1.031-0.256
	C37.475,71.006,37.7,71.3,37.8,71.9z"/>
<path d="M35.7,79c-0.025,0-0.05,0-0.076,0s-0.055,0-0.085,0c-0.032,0-0.066,0-0.105,0s-0.083,0-0.133,0
	c-0.325-0.025-0.625-0.081-0.899-0.164c-0.273-0.083-0.52-0.192-0.739-0.323c-0.219-0.132-0.409-0.285-0.57-0.455
	C32.931,77.887,32.8,77.7,32.7,77.5c-0.175-0.4-0.225-0.844-0.192-1.297s0.148-0.916,0.304-1.353s0.353-0.85,0.549-1.203
	S33.75,73,33.9,72.8c0.025-0.025,0.162-0.2,0.377-0.442s0.505-0.551,0.836-0.845c0.331-0.294,0.703-0.572,1.079-0.752
	S36.95,70.5,37.3,70.6c0.125,0.025,0.237,0.075,0.338,0.147c0.1,0.072,0.187,0.166,0.262,0.278c0.075,0.112,0.138,0.244,0.188,0.391
	s0.087,0.309,0.112,0.484c0.025,0.075,0.1,0.394,0.174,0.858c0.074,0.464,0.146,1.074,0.165,1.73
	c0.019,0.656-0.016,1.359-0.155,2.011C38.244,77.15,38,77.75,37.6,78.2c-0.125,0.125-0.256,0.238-0.395,0.336
	s-0.286,0.183-0.443,0.251c-0.156,0.069-0.321,0.122-0.498,0.158C36.088,78.981,35.9,79,35.7,79z M37,71.3
	c-0.15,0-0.331,0.062-0.531,0.172c-0.2,0.109-0.419,0.266-0.644,0.453s-0.456,0.406-0.681,0.641C34.919,72.8,34.7,73.05,34.5,73.3
	c-0.15,0.2-0.325,0.469-0.495,0.778c-0.17,0.309-0.336,0.659-0.467,1.022c-0.132,0.363-0.229,0.738-0.261,1.097
	S33.275,76.9,33.4,77.2c0.075,0.15,0.169,0.287,0.284,0.411c0.116,0.123,0.253,0.233,0.416,0.326s0.35,0.172,0.566,0.232
	s0.459,0.105,0.734,0.131c0.175,0.025,0.344,0.031,0.503,0.02s0.309-0.039,0.447-0.082c0.138-0.044,0.263-0.104,0.372-0.177
	S36.925,77.9,37,77.8c0.35-0.375,0.55-0.919,0.653-1.523c0.103-0.605,0.109-1.27,0.072-1.889s-0.119-1.19-0.191-1.608
	C37.463,72.363,37.4,72.1,37.4,72.1l0,0l0,0l0,0l0,0c0-0.075-0.006-0.15-0.02-0.222s-0.036-0.141-0.068-0.203
	s-0.072-0.119-0.123-0.166C37.137,71.462,37.075,71.425,37,71.4c0.025-0.025,0.037-0.044,0.042-0.058
	c0.005-0.014,0.001-0.024-0.005-0.03c-0.006-0.006-0.015-0.009-0.023-0.01C37.006,71.3,37,71.3,37,71.3z"/>
<path style="fill:#4AAFF8;" d="M45.2,65.1c0,0,0.1,0.444,0.186,1.103c0.086,0.659,0.158,1.534,0.101,2.397s-0.241,1.713-0.667,2.322
	S43.725,71.9,42.7,71.8s-1.662-0.425-2.028-0.875c-0.366-0.45-0.459-1.025-0.397-1.625s0.281-1.225,0.541-1.775
	c0.259-0.55,0.559-1.025,0.784-1.325c0.2-0.25,0.5-0.594,0.844-0.931c0.344-0.337,0.731-0.669,1.106-0.894
	c0.375-0.225,0.737-0.344,1.031-0.256S45.1,64.5,45.2,65.1z"/>
<path d="M43.1,72.2c-0.025,0-0.05,0-0.076,0c-0.026,0-0.054,0-0.085,0s-0.066,0-0.105,0s-0.083,0-0.133,0
	c-0.325-0.025-0.625-0.081-0.899-0.164c-0.273-0.083-0.521-0.192-0.739-0.323c-0.219-0.132-0.409-0.285-0.57-0.455
	C40.331,71.087,40.2,70.9,40.1,70.7c-0.175-0.4-0.225-0.844-0.192-1.297s0.148-0.916,0.304-1.353s0.353-0.85,0.549-1.203
	C40.956,66.494,41.15,66.2,41.3,66c0.025-0.025,0.162-0.2,0.376-0.442s0.505-0.551,0.836-0.845c0.331-0.294,0.703-0.572,1.08-0.752
	S44.35,63.7,44.7,63.8c0.125,0.025,0.237,0.075,0.338,0.147c0.1,0.072,0.187,0.166,0.262,0.278s0.138,0.244,0.188,0.391
	s0.087,0.309,0.112,0.484c0.025,0.075,0.1,0.394,0.173,0.858c0.073,0.464,0.145,1.074,0.164,1.73
	c0.019,0.656-0.015,1.359-0.154,2.011C45.644,70.35,45.4,70.95,45,71.4c-0.125,0.125-0.256,0.237-0.395,0.336
	s-0.286,0.183-0.443,0.252c-0.156,0.069-0.321,0.121-0.498,0.157C43.487,72.181,43.3,72.2,43.1,72.2z M44.4,64.4
	c-0.15,0-0.331,0.062-0.531,0.172c-0.2,0.109-0.419,0.266-0.644,0.453s-0.456,0.406-0.681,0.641S42.1,66.15,41.9,66.4
	c-0.15,0.2-0.325,0.469-0.495,0.778c-0.17,0.309-0.336,0.659-0.467,1.022s-0.228,0.738-0.261,1.097S40.675,70,40.8,70.3
	c0.075,0.15,0.169,0.288,0.284,0.411c0.116,0.123,0.253,0.233,0.416,0.327s0.35,0.172,0.566,0.233
	c0.216,0.061,0.459,0.104,0.734,0.129c0.175,0.025,0.344,0.031,0.503,0.02c0.159-0.011,0.309-0.039,0.447-0.082
	c0.138-0.044,0.263-0.103,0.372-0.177c0.109-0.073,0.203-0.161,0.278-0.261c0.35-0.375,0.55-0.919,0.653-1.523
	c0.103-0.605,0.109-1.27,0.072-1.889s-0.119-1.19-0.191-1.608C44.862,65.463,44.8,65.2,44.8,65.2l0,0l0,0l0,0l0,0
	c0-0.075-0.006-0.15-0.02-0.222c-0.014-0.072-0.036-0.141-0.068-0.203c-0.031-0.062-0.071-0.119-0.123-0.166
	c-0.052-0.047-0.114-0.084-0.189-0.109c0-0.025,0-0.044,0-0.058c0-0.014,0-0.024,0-0.03c0-0.006,0-0.009,0-0.01
	C44.4,64.4,44.4,64.4,44.4,64.4z"/>
<path style="fill:#4AAFF8;" d="M37.8,58.9c0,0,0.1,0.444,0.186,1.103c0.086,0.659,0.158,1.534,0.101,2.397s-0.241,1.713-0.667,2.322
	S36.325,65.7,35.3,65.6s-1.662-0.425-2.028-0.875c-0.366-0.45-0.459-1.025-0.397-1.625s0.281-1.225,0.541-1.775
	C33.675,60.775,33.975,60.3,34.2,60c0.2-0.25,0.5-0.594,0.844-0.931c0.344-0.337,0.731-0.669,1.106-0.894s0.737-0.344,1.031-0.256
	C37.475,58.006,37.7,58.3,37.8,58.9z"/>
<path d="M35.7,66c-0.025,0-0.05,0-0.076,0s-0.055,0-0.085,0c-0.032,0-0.066,0-0.105,0s-0.083,0-0.133,0
	c-0.325-0.025-0.625-0.081-0.899-0.164c-0.273-0.083-0.52-0.192-0.739-0.323c-0.219-0.132-0.409-0.285-0.57-0.455
	C32.931,64.887,32.8,64.7,32.7,64.5c-0.175-0.4-0.225-0.844-0.192-1.297s0.148-0.916,0.304-1.353s0.353-0.85,0.549-1.203
	C33.556,60.294,33.75,60,33.9,59.8c0.025-0.025,0.162-0.2,0.377-0.442c0.214-0.242,0.505-0.551,0.836-0.845
	c0.331-0.294,0.703-0.572,1.079-0.752c0.376-0.18,0.758-0.261,1.108-0.161c0.125,0.025,0.237,0.075,0.338,0.147
	c0.1,0.072,0.187,0.166,0.262,0.278s0.138,0.244,0.188,0.391s0.087,0.309,0.112,0.484c0.025,0.075,0.1,0.394,0.174,0.858
	s0.146,1.073,0.165,1.729c0.019,0.657-0.016,1.36-0.155,2.011C38.244,64.15,38,64.75,37.6,65.2
	c-0.125,0.125-0.256,0.238-0.395,0.336s-0.286,0.183-0.443,0.252s-0.322,0.122-0.498,0.158C36.087,65.981,35.9,66,35.7,66z M37,58.3
	c-0.15,0-0.331,0.062-0.531,0.172c-0.2,0.109-0.419,0.266-0.644,0.453s-0.456,0.406-0.681,0.641C34.919,59.8,34.7,60.05,34.5,60.3
	c-0.15,0.2-0.325,0.469-0.495,0.778s-0.336,0.659-0.467,1.022s-0.228,0.737-0.261,1.097S33.275,63.9,33.4,64.2
	c0.075,0.15,0.169,0.288,0.284,0.411c0.116,0.123,0.253,0.233,0.416,0.327s0.35,0.172,0.566,0.233
	c0.216,0.061,0.459,0.104,0.734,0.129c0.175,0.025,0.344,0.031,0.503,0.02c0.159-0.011,0.309-0.039,0.447-0.082
	c0.138-0.044,0.263-0.104,0.372-0.177C36.831,64.988,36.925,64.9,37,64.8c0.35-0.375,0.55-0.919,0.653-1.523
	c0.103-0.605,0.109-1.27,0.072-1.889c-0.037-0.619-0.119-1.191-0.191-1.608C37.463,59.362,37.4,59.1,37.4,59.1l0,0l0,0l0,0l0,0
	c0-0.075-0.006-0.15-0.02-0.222c-0.014-0.072-0.036-0.141-0.068-0.203s-0.072-0.119-0.123-0.166
	C37.137,58.463,37.075,58.425,37,58.4c0.025-0.025,0.037-0.044,0.042-0.058c0.005-0.014,0.001-0.023-0.005-0.029
	c-0.006-0.007-0.015-0.01-0.023-0.011S37,58.3,37,58.3z"/>
<path style="fill:#4AAFF8;" d="M29.6,67.7c0,0-0.025,0.456-0.124,1.116c-0.098,0.659-0.27,1.522-0.564,2.334
	s-0.709,1.575-1.295,2.034C27.031,73.644,26.275,73.8,25.3,73.4c-0.95-0.4-1.469-0.9-1.694-1.439s-0.156-1.117,0.069-1.674
	c0.225-0.556,0.606-1.09,1.006-1.542S25.5,67.925,25.8,67.7c0.275-0.175,0.669-0.412,1.1-0.633c0.431-0.22,0.9-0.423,1.325-0.529
	s0.806-0.116,1.062,0.051S29.675,67.1,29.6,67.7z"/>
<path d="M26.4,74c-0.1,0-0.2-0.006-0.3-0.017c-0.1-0.011-0.2-0.026-0.3-0.045c-0.1-0.019-0.2-0.04-0.3-0.064
	c-0.1-0.023-0.2-0.048-0.3-0.073c-0.325-0.125-0.612-0.269-0.862-0.428s-0.462-0.334-0.638-0.522s-0.312-0.388-0.413-0.597
	c-0.1-0.209-0.162-0.428-0.188-0.653c-0.05-0.45,0.031-0.9,0.194-1.33s0.406-0.839,0.681-1.207c0.275-0.369,0.581-0.697,0.869-0.964
	s0.556-0.473,0.756-0.598c0.025-0.025,0.206-0.156,0.481-0.328c0.275-0.172,0.644-0.384,1.044-0.572s0.831-0.35,1.231-0.422
	c0.4-0.072,0.769-0.053,1.044,0.122c0.1,0.075,0.188,0.162,0.261,0.262c0.073,0.1,0.133,0.213,0.177,0.338s0.072,0.263,0.083,0.412
	c0.011,0.15,0.004,0.312-0.021,0.488c0,0.075-0.019,0.4-0.08,0.866c-0.061,0.466-0.164,1.072-0.333,1.709
	c-0.168,0.637-0.403,1.305-0.726,1.895c-0.323,0.59-0.736,1.103-1.261,1.428c-0.075,0.05-0.156,0.094-0.242,0.131
	s-0.176,0.069-0.27,0.094c-0.094,0.025-0.191,0.044-0.29,0.056C26.6,73.994,26.5,74,26.4,74z M28.8,66.8
	c-0.15,0-0.337,0.037-0.548,0.103c-0.211,0.066-0.445,0.159-0.689,0.272c-0.244,0.113-0.497,0.244-0.746,0.384
	C26.569,67.7,26.325,67.85,26.1,68c-0.2,0.15-0.444,0.356-0.695,0.602s-0.511,0.53-0.743,0.836
	c-0.231,0.306-0.434,0.634-0.573,0.967s-0.214,0.67-0.189,0.995c0.025,0.175,0.075,0.338,0.152,0.489
	c0.076,0.152,0.179,0.292,0.31,0.423c0.132,0.131,0.291,0.253,0.48,0.368C25.031,72.794,25.25,72.9,25.5,73
	c0.175,0.075,0.337,0.131,0.491,0.167c0.153,0.036,0.297,0.052,0.434,0.046c0.138-0.007,0.269-0.035,0.397-0.086
	C26.95,73.075,27.075,73,27.2,72.9c0.425-0.275,0.763-0.744,1.03-1.292c0.267-0.548,0.464-1.176,0.608-1.77s0.235-1.153,0.289-1.564
	C29.182,67.863,29.2,67.6,29.2,67.6l0,0l0,0l0,0l0,0c0-0.075,0-0.15-0.003-0.222c-0.003-0.072-0.009-0.141-0.022-0.203
	c-0.013-0.062-0.031-0.119-0.059-0.166C29.087,66.963,29.05,66.925,29,66.9c0-0.025-0.006-0.044-0.017-0.058
	c-0.011-0.014-0.026-0.024-0.045-0.03c-0.019-0.006-0.041-0.009-0.064-0.01C28.85,66.8,28.825,66.8,28.8,66.8z"/>
<path style="fill:#4AAFF8;" d="M45.1,79.1c0,0,0.1,0.406,0.186,1.009c0.086,0.603,0.158,1.403,0.101,2.191
	c-0.056,0.787-0.24,1.562-0.667,2.116c-0.427,0.553-1.095,0.884-2.12,0.784s-1.662-0.4-2.028-0.811
	c-0.366-0.411-0.459-0.933-0.397-1.476s0.281-1.109,0.541-1.608c0.259-0.499,0.559-0.93,0.784-1.205
	c0.2-0.225,0.506-0.537,0.858-0.845c0.352-0.308,0.748-0.611,1.129-0.817s0.747-0.315,1.036-0.236S45.025,78.55,45.1,79.1z"/>
<path d="M43,85.5c-0.025,0-0.05,0-0.076,0c-0.026,0-0.054,0-0.085,0s-0.066,0-0.105,0s-0.083,0-0.133,0
	c-0.35-0.025-0.669-0.075-0.955-0.15c-0.286-0.075-0.539-0.175-0.758-0.3s-0.403-0.275-0.551-0.45
	C40.187,84.425,40.075,84.225,40,84c-0.15-0.375-0.181-0.781-0.134-1.191c0.047-0.409,0.172-0.822,0.334-1.209
	s0.362-0.75,0.559-1.059c0.197-0.309,0.391-0.566,0.541-0.741c0.025-0.025,0.162-0.188,0.376-0.411
	c0.214-0.223,0.505-0.508,0.836-0.777c0.331-0.269,0.703-0.521,1.08-0.682S44.35,77.7,44.7,77.8
	c0.075,0.025,0.156,0.062,0.239,0.117c0.083,0.055,0.167,0.127,0.248,0.221c0.082,0.093,0.16,0.209,0.23,0.351
	C45.487,78.631,45.55,78.8,45.6,79c0.025,0.075,0.1,0.363,0.175,0.778c0.075,0.416,0.15,0.959,0.175,1.547
	c0.025,0.588,0,1.219-0.125,1.809c-0.125,0.591-0.35,1.141-0.725,1.566c-0.15,0.15-0.3,0.275-0.455,0.378
	c-0.155,0.103-0.314,0.184-0.483,0.247c-0.168,0.062-0.347,0.106-0.539,0.134S43.225,85.5,43,85.5z M44.3,78.5
	c-0.15,0-0.331,0.056-0.531,0.155s-0.419,0.239-0.644,0.407s-0.456,0.366-0.681,0.577C42.219,79.85,42,80.075,41.8,80.3
	c-0.15,0.175-0.325,0.406-0.495,0.672s-0.336,0.566-0.467,0.878c-0.132,0.312-0.229,0.637-0.261,0.953S40.575,83.425,40.7,83.7
	c0.05,0.15,0.131,0.281,0.242,0.395c0.111,0.114,0.252,0.211,0.421,0.293c0.169,0.081,0.365,0.146,0.589,0.198
	s0.473,0.089,0.748,0.114c0.2,0.025,0.381,0.031,0.547,0.019s0.316-0.044,0.453-0.094s0.263-0.119,0.378-0.206
	c0.116-0.087,0.222-0.194,0.322-0.319c0.25-0.3,0.412-0.7,0.511-1.147c0.098-0.447,0.133-0.941,0.127-1.428
	c-0.007-0.487-0.054-0.969-0.118-1.391S44.775,79.35,44.7,79.1l0,0l0,0l0,0l0,0c-0.025-0.075-0.05-0.144-0.075-0.206
	c-0.025-0.062-0.05-0.119-0.075-0.169c-0.025-0.05-0.05-0.094-0.075-0.131c-0.025-0.038-0.05-0.069-0.075-0.094c0,0,0,0-0.002,0
	s-0.005,0-0.011,0s-0.016,0-0.03,0S44.325,78.5,44.3,78.5z"/>
</svg>
