<?xml version="1.0" encoding="iso-8859-1"?>
<!-- Generator: Adobe Illustrator 25.4.1, SVG Export Plug-In . SVG Version: 6.00 Build 0)  -->
<svg version="1.1" id="Layer_1" xmlns="http://www.w3.org/2000/svg" xmlns:xlink="http://www.w3.org/1999/xlink" x="0px" y="0px"
	 viewBox="0 0 100 100" style="enable-background:new 0 0 100 100;" xml:space="preserve">
<polygon style="fill:#00117D;stroke:#000000;stroke-miterlimit:10;" points="98.5,47.3 92,47.3 85.5,47.3 79,47.3 72.5,47.3 
	66.925,36.275 61.35,25.25 55.775,14.225 50.2,3.2 44.625,14.225 39.05,25.25 33.475,36.275 27.9,47.3 21.3,47.3 14.7,47.3 
	8.1,47.3 1.5,47.3 1.5,48.9 1.5,50.5 1.5,52.1 1.5,53.7 7.3,53.7 13.1,53.7 18.9,53.7 24.7,53.7 19.225,64.475 13.75,75.25 
	8.275,86.025 2.8,96.8 26.475,96.8 50.15,96.8 73.825,96.8 97.5,96.8 92.05,86.025 86.6,75.25 81.15,64.475 75.7,53.7 81.4,53.7 
	87.1,53.7 92.8,53.7 98.5,53.7 98.5,52.1 98.5,50.5 98.5,48.9 "/>
<path style="fill:#FFFFFF;" d="M26.3,91.2v-2.325V86.55v-2.325V81.9c0.325,0.35,0.656,0.681,0.994,0.992s0.681,0.602,1.031,0.871
	c0.35,0.269,0.706,0.515,1.069,0.739s0.731,0.423,1.106,0.598s0.75,0.331,1.125,0.467c0.375,0.136,0.75,0.251,1.125,0.345
	s0.75,0.165,1.125,0.214C34.25,86.175,34.625,86.2,35,86.2c0.225,0,0.444-0.006,0.655-0.019c0.211-0.012,0.414-0.031,0.608-0.056
	c0.194-0.025,0.378-0.056,0.551-0.094S37.15,85.95,37.3,85.9c0.175-0.05,0.337-0.106,0.491-0.169s0.297-0.131,0.434-0.206
	c0.138-0.075,0.269-0.156,0.397-0.244S38.875,85.1,39,85s0.237-0.2,0.339-0.302c0.101-0.102,0.192-0.205,0.273-0.311
	c0.082-0.106,0.154-0.215,0.218-0.329c0.064-0.114,0.12-0.233,0.17-0.358s0.094-0.256,0.131-0.392
	c0.037-0.136,0.069-0.276,0.094-0.42c0.025-0.144,0.044-0.291,0.056-0.439S40.3,82.15,40.3,82c0-0.2-0.013-0.394-0.036-0.583
	c-0.023-0.189-0.058-0.373-0.102-0.554c-0.043-0.181-0.097-0.36-0.157-0.536c-0.061-0.177-0.13-0.352-0.205-0.527
	c-0.1-0.15-0.2-0.3-0.303-0.45c-0.103-0.15-0.209-0.3-0.322-0.45s-0.231-0.3-0.359-0.45C38.688,78.3,38.55,78.15,38.4,78
	c-0.15-0.125-0.306-0.256-0.47-0.391c-0.164-0.134-0.336-0.272-0.517-0.409s-0.372-0.275-0.574-0.409
	c-0.202-0.134-0.414-0.266-0.639-0.391c-0.2-0.125-0.406-0.25-0.619-0.375c-0.212-0.125-0.431-0.25-0.656-0.375
	s-0.456-0.25-0.694-0.375S33.75,75.025,33.5,74.9c-0.625-0.35-1.206-0.713-1.745-1.091c-0.539-0.378-1.036-0.772-1.492-1.184
	c-0.457-0.412-0.872-0.844-1.249-1.297S28.3,70.4,28,69.9s-0.562-1.019-0.788-1.559S26.8,67.238,26.65,66.65s-0.262-1.2-0.337-1.841
	C26.237,64.169,26.2,63.5,26.2,62.8c0-0.55,0.019-1.075,0.058-1.578c0.039-0.503,0.098-0.984,0.179-1.447
	c0.082-0.463,0.185-0.906,0.311-1.334c0.127-0.428,0.277-0.841,0.452-1.241s0.362-0.775,0.562-1.13s0.413-0.689,0.638-1.008
	s0.463-0.622,0.713-0.914c0.25-0.292,0.512-0.573,0.787-0.849c0.275-0.25,0.569-0.481,0.878-0.695
	c0.309-0.214,0.634-0.411,0.972-0.592c0.337-0.181,0.688-0.347,1.047-0.499c0.359-0.152,0.728-0.289,1.103-0.414
	s0.756-0.231,1.144-0.32c0.388-0.089,0.781-0.161,1.181-0.218c0.4-0.056,0.806-0.097,1.219-0.123
	c0.412-0.026,0.831-0.039,1.256-0.039c0.4,0,0.794,0.006,1.18,0.02c0.386,0.014,0.764,0.036,1.132,0.068
	c0.369,0.031,0.729,0.072,1.077,0.124c0.348,0.052,0.686,0.114,1.011,0.189s0.637,0.156,0.941,0.244
	c0.303,0.088,0.597,0.181,0.884,0.281s0.569,0.206,0.847,0.319C46.05,51.756,46.325,51.875,46.6,52v2.175v2.175v2.175V60.7
	c-0.125-0.125-0.256-0.244-0.392-0.358s-0.276-0.224-0.42-0.33s-0.291-0.209-0.439-0.311C45.2,59.6,45.05,59.5,44.9,59.4
	s-0.306-0.194-0.466-0.281s-0.322-0.169-0.484-0.244s-0.325-0.144-0.484-0.206S43.15,58.55,43,58.5
	c-0.175-0.05-0.344-0.1-0.509-0.148c-0.166-0.049-0.328-0.096-0.491-0.139c-0.162-0.043-0.325-0.084-0.491-0.12
	C41.344,58.056,41.175,58.025,41,58s-0.344-0.05-0.508-0.074c-0.164-0.023-0.323-0.045-0.479-0.064
	c-0.157-0.019-0.31-0.034-0.461-0.045C39.4,57.806,39.25,57.8,39.1,57.8c-0.2,0-0.394,0.006-0.583,0.019
	c-0.189,0.013-0.374,0.031-0.555,0.056c-0.181,0.025-0.359,0.056-0.535,0.094S37.075,58.05,36.9,58.1s-0.338,0.106-0.491,0.169
	c-0.153,0.062-0.297,0.131-0.434,0.206s-0.269,0.156-0.397,0.244C35.45,58.806,35.325,58.9,35.2,59s-0.237,0.2-0.341,0.302
	c-0.103,0.101-0.197,0.204-0.284,0.31c-0.087,0.106-0.169,0.216-0.247,0.33c-0.078,0.114-0.153,0.233-0.228,0.358
	s-0.138,0.256-0.189,0.392c-0.052,0.136-0.092,0.276-0.123,0.42s-0.053,0.291-0.067,0.439C33.707,61.7,33.7,61.85,33.7,62
	c0,0.175,0.006,0.344,0.02,0.508c0.014,0.164,0.036,0.323,0.067,0.479s0.072,0.309,0.123,0.461C33.962,63.6,34.025,63.75,34.1,63.9
	c0.075,0.15,0.156,0.294,0.244,0.433s0.181,0.274,0.281,0.405c0.1,0.131,0.206,0.259,0.319,0.385
	c0.113,0.127,0.231,0.252,0.356,0.377s0.256,0.25,0.395,0.375c0.139,0.125,0.286,0.25,0.443,0.375s0.322,0.25,0.498,0.375
	S37,66.875,37.2,67c0.175,0.125,0.362,0.25,0.559,0.375c0.197,0.125,0.403,0.25,0.616,0.375s0.431,0.25,0.653,0.375
	s0.447,0.25,0.672,0.375c0.325,0.175,0.638,0.35,0.939,0.526c0.302,0.176,0.592,0.354,0.873,0.535
	c0.282,0.182,0.553,0.366,0.818,0.555S42.85,70.5,43.1,70.7s0.494,0.406,0.73,0.619c0.236,0.213,0.464,0.431,0.682,0.656
	c0.219,0.225,0.429,0.456,0.627,0.694c0.199,0.237,0.386,0.481,0.561,0.731s0.344,0.506,0.505,0.77
	c0.161,0.264,0.314,0.536,0.458,0.818c0.144,0.281,0.278,0.572,0.401,0.873c0.123,0.302,0.236,0.614,0.336,0.939
	s0.188,0.656,0.263,0.997c0.075,0.341,0.138,0.691,0.188,1.053s0.087,0.738,0.112,1.128S48,80.775,48,81.2
	c0,0.575-0.019,1.131-0.058,1.667c-0.039,0.536-0.098,1.052-0.179,1.546s-0.184,0.966-0.311,1.414
	C47.325,86.275,47.175,86.7,47,87.1s-0.362,0.781-0.562,1.142c-0.2,0.361-0.412,0.701-0.638,1.02
	c-0.225,0.319-0.463,0.616-0.713,0.89S44.575,90.675,44.3,90.9s-0.569,0.444-0.878,0.652c-0.309,0.208-0.634,0.405-0.972,0.586
	c-0.337,0.181-0.688,0.346-1.047,0.492C41.044,92.775,40.675,92.9,40.3,93s-0.756,0.188-1.144,0.262
	c-0.388,0.075-0.781,0.137-1.181,0.188s-0.806,0.088-1.219,0.113C36.344,93.587,35.925,93.6,35.5,93.6s-0.85-0.013-1.272-0.037
	c-0.422-0.025-0.841-0.062-1.253-0.113s-0.819-0.113-1.216-0.188S30.975,93.1,30.6,93c-0.45-0.125-0.869-0.25-1.262-0.38
	c-0.394-0.13-0.763-0.264-1.113-0.407c-0.35-0.144-0.681-0.297-1-0.465C26.906,91.581,26.6,91.4,26.3,91.2z"/>
<path style="fill:#FFFFFF;" d="M60.2,78.4V82v3.6v3.6v3.6h-1.775H56.65h-1.775H53.1V82.375V71.95V61.525V51.1h2.8h2.8h2.8h2.8
	c2,0,3.744,0.275,5.234,0.826s2.728,1.38,3.716,2.486c0.987,1.107,1.725,2.491,2.216,4.155S76.2,62.175,76.2,64.4
	c0,1.05-0.069,2.05-0.208,3c-0.139,0.95-0.349,1.85-0.63,2.7c-0.281,0.85-0.634,1.65-1.061,2.4c-0.426,0.75-0.926,1.45-1.501,2.1
	s-1.194,1.219-1.859,1.706c-0.666,0.487-1.378,0.894-2.141,1.219s-1.575,0.569-2.441,0.731S64.575,78.5,63.6,78.5h-0.85H61.9h-0.85
	H60.2v-0.025V78.45c0,0,0-0.012,0-0.025C60.2,78.412,60.2,78.4,60.2,78.4z M60.2,58.3v3.25v3.25v3.25v3.25h0.7h0.7h0.7H63
	c0.95,0,1.781-0.137,2.494-0.412S66.8,70.2,67.275,69.65s0.831-1.237,1.069-2.062C68.581,66.763,68.7,65.8,68.7,64.7
	c0-1.075-0.119-2.013-0.356-2.814c-0.238-0.802-0.594-1.467-1.069-1.998c-0.475-0.532-1.069-0.929-1.781-1.193
	C64.781,58.431,63.95,58.3,63,58.3c0,0-0.175,0-0.438,0s-0.613,0-0.963,0s-0.7,0-0.962,0C60.375,58.3,60.2,58.3,60.2,58.3z"/>
<path style="fill:#00117D;" d="M91.6,24.8c0,0.375-0.025,0.744-0.073,1.105c-0.048,0.361-0.12,0.714-0.214,1.058
	s-0.209,0.678-0.345,1.001C90.831,28.288,90.675,28.6,90.5,28.9c-0.2,0.3-0.419,0.587-0.656,0.859s-0.494,0.528-0.769,0.766
	s-0.569,0.456-0.881,0.653S87.55,31.55,87.2,31.7c-0.375,0.175-0.762,0.325-1.164,0.451s-0.817,0.229-1.248,0.311
	s-0.878,0.14-1.342,0.18C82.981,32.681,82.5,32.7,82,32.7c-0.6,0-1.175-0.031-1.723-0.092c-0.548-0.061-1.07-0.151-1.564-0.27
	c-0.494-0.119-0.96-0.266-1.396-0.44c-0.436-0.174-0.842-0.373-1.217-0.598c-0.275-0.175-0.537-0.362-0.787-0.562
	S74.825,30.325,74.6,30.1s-0.438-0.463-0.637-0.713c-0.2-0.25-0.388-0.512-0.562-0.787s-0.325-0.55-0.451-0.825
	c-0.126-0.275-0.229-0.55-0.311-0.825s-0.141-0.55-0.18-0.825C72.419,25.85,72.4,25.575,72.4,25.3c0-0.15,0.013-0.294,0.037-0.433
	c0.025-0.139,0.062-0.273,0.113-0.404c0.05-0.131,0.113-0.26,0.188-0.386S72.9,23.825,73,23.7s0.206-0.231,0.32-0.32
	c0.114-0.089,0.236-0.161,0.368-0.218s0.272-0.097,0.423-0.123C74.263,23.012,74.425,23,74.6,23c0.125,0,0.25,0.013,0.372,0.036
	c0.122,0.024,0.241,0.058,0.353,0.102c0.113,0.043,0.219,0.097,0.316,0.157s0.184,0.13,0.259,0.205
	c0.1,0.075,0.194,0.163,0.281,0.263c0.088,0.1,0.169,0.212,0.244,0.337s0.144,0.262,0.206,0.413c0.062,0.15,0.119,0.312,0.169,0.487
	c0.075,0.2,0.15,0.394,0.227,0.58c0.077,0.186,0.155,0.364,0.236,0.532c0.081,0.169,0.165,0.329,0.254,0.477
	C77.606,26.737,77.7,26.875,77.8,27s0.206,0.25,0.319,0.372c0.112,0.122,0.231,0.241,0.356,0.353s0.256,0.219,0.394,0.316
	c0.138,0.097,0.281,0.184,0.431,0.259s0.319,0.144,0.505,0.205s0.389,0.114,0.608,0.157c0.218,0.044,0.453,0.079,0.701,0.102
	c0.248,0.023,0.511,0.036,0.786,0.036c0.375,0,0.725-0.019,1.053-0.059c0.328-0.041,0.634-0.103,0.922-0.191s0.556-0.2,0.809-0.341
	S85.175,27.9,85.4,27.7c0.225-0.175,0.425-0.362,0.598-0.561c0.173-0.198,0.32-0.408,0.439-0.627
	c0.119-0.219,0.21-0.447,0.271-0.682c0.061-0.236,0.092-0.48,0.092-0.73c0-0.2-0.012-0.394-0.039-0.58s-0.067-0.364-0.123-0.532
	c-0.057-0.169-0.129-0.329-0.218-0.477c-0.089-0.149-0.195-0.286-0.32-0.411s-0.256-0.244-0.395-0.356
	c-0.139-0.112-0.286-0.219-0.443-0.319c-0.156-0.1-0.322-0.194-0.498-0.281C84.587,22.056,84.4,21.975,84.2,21.9
	s-0.412-0.15-0.639-0.225c-0.227-0.075-0.467-0.15-0.724-0.225c-0.256-0.075-0.528-0.15-0.817-0.225
	c-0.289-0.075-0.595-0.15-0.92-0.225c-0.425-0.1-0.838-0.206-1.236-0.319c-0.398-0.112-0.783-0.231-1.151-0.356
	s-0.722-0.256-1.058-0.394C77.319,19.794,77,19.65,76.7,19.5s-0.581-0.306-0.845-0.472c-0.264-0.166-0.511-0.341-0.743-0.528
	c-0.231-0.188-0.447-0.388-0.648-0.603s-0.389-0.447-0.564-0.697s-0.325-0.513-0.451-0.788s-0.229-0.562-0.311-0.862
	s-0.14-0.613-0.179-0.938C72.919,14.288,72.9,13.95,72.9,13.6s0.025-0.688,0.073-1.014c0.048-0.326,0.12-0.642,0.214-0.948
	c0.094-0.307,0.21-0.604,0.346-0.893c0.136-0.289,0.292-0.57,0.467-0.845s0.375-0.531,0.599-0.77
	c0.223-0.239,0.47-0.461,0.739-0.668c0.269-0.206,0.559-0.396,0.87-0.573C76.519,7.713,76.85,7.55,77.2,7.4s0.712-0.281,1.089-0.394
	c0.377-0.113,0.767-0.206,1.173-0.281c0.407-0.075,0.828-0.131,1.268-0.169C81.169,6.519,81.625,6.5,82.1,6.5
	c0.375,0,0.737,0.012,1.088,0.037C83.537,6.562,83.875,6.6,84.2,6.65s0.637,0.112,0.938,0.188C85.438,6.912,85.725,7,86,7.1
	s0.538,0.206,0.788,0.319S87.275,7.65,87.5,7.775c0.225,0.125,0.438,0.256,0.637,0.394S88.525,8.45,88.7,8.6
	s0.338,0.306,0.489,0.467c0.152,0.161,0.292,0.327,0.423,0.496c0.132,0.168,0.254,0.34,0.368,0.514
	c0.114,0.173,0.22,0.348,0.32,0.523c0.075,0.175,0.144,0.35,0.205,0.523c0.061,0.173,0.114,0.345,0.158,0.514
	c0.043,0.169,0.078,0.335,0.101,0.496S90.8,12.45,90.8,12.6s-0.012,0.294-0.037,0.433c-0.025,0.139-0.063,0.274-0.113,0.405
	c-0.05,0.131-0.112,0.259-0.188,0.385C90.387,13.95,90.3,14.075,90.2,14.2s-0.206,0.231-0.319,0.32
	c-0.112,0.089-0.231,0.161-0.356,0.218c-0.125,0.056-0.256,0.097-0.394,0.123C88.994,14.887,88.85,14.9,88.7,14.9
	s-0.288-0.006-0.414-0.02c-0.127-0.014-0.242-0.036-0.348-0.068c-0.106-0.031-0.203-0.071-0.293-0.123
	c-0.089-0.052-0.17-0.114-0.245-0.189s-0.15-0.163-0.227-0.261c-0.077-0.099-0.155-0.208-0.236-0.327
	c-0.081-0.118-0.165-0.247-0.254-0.382c-0.089-0.136-0.183-0.28-0.283-0.43c-0.1-0.225-0.213-0.444-0.334-0.653
	c-0.122-0.209-0.253-0.409-0.391-0.597s-0.281-0.363-0.428-0.522C85.1,11.169,84.95,11.025,84.8,10.9s-0.325-0.238-0.525-0.336
	c-0.2-0.098-0.425-0.183-0.675-0.251c-0.25-0.069-0.525-0.122-0.825-0.158c-0.3-0.036-0.625-0.055-0.975-0.055
	c-0.325,0-0.631,0.019-0.92,0.056c-0.289,0.038-0.561,0.094-0.818,0.169c-0.256,0.075-0.496,0.169-0.723,0.281S78.9,10.85,78.7,11
	s-0.375,0.306-0.525,0.469S77.9,11.8,77.8,11.975s-0.175,0.356-0.225,0.544S77.5,12.9,77.5,13.1c0,0.125,0.006,0.244,0.02,0.358
	c0.014,0.114,0.036,0.224,0.068,0.33s0.072,0.209,0.123,0.311C77.763,14.2,77.825,14.3,77.9,14.4s0.15,0.194,0.228,0.281
	s0.159,0.169,0.247,0.244c0.088,0.075,0.181,0.144,0.284,0.206C78.762,15.194,78.875,15.25,79,15.3
	c0.125,0.075,0.244,0.144,0.359,0.206s0.228,0.119,0.341,0.169s0.225,0.094,0.341,0.131c0.116,0.037,0.234,0.069,0.359,0.094
	s0.269,0.062,0.43,0.108c0.161,0.045,0.339,0.098,0.533,0.154c0.194,0.056,0.403,0.116,0.626,0.174S82.45,16.45,82.7,16.5
	c0.35,0.075,0.688,0.156,1.014,0.242s0.642,0.177,0.949,0.271c0.306,0.094,0.603,0.19,0.892,0.289
	C85.844,17.4,86.125,17.5,86.4,17.6s0.537,0.206,0.789,0.319s0.492,0.231,0.723,0.356s0.453,0.256,0.667,0.394
	C88.794,18.806,89,18.95,89.2,19.1s0.387,0.306,0.562,0.47c0.175,0.164,0.338,0.336,0.488,0.517c0.15,0.182,0.288,0.372,0.413,0.574
	S90.9,21.075,91,21.3s0.188,0.475,0.262,0.744S91.4,22.6,91.45,22.9s0.088,0.613,0.113,0.931C91.588,24.15,91.6,24.475,91.6,24.8z"
	/>
<path style="fill:#CFCFCF;" d="M92.7,35.2h-5.15H82.4h-5.15H72.1l-0.025-0.05L72.05,35.1l-0.025-0.05L72,35
	c-0.925-1.125-1.744-2.338-2.451-3.619c-0.708-1.281-1.304-2.631-1.785-4.031s-0.847-2.85-1.092-4.331
	C66.425,21.538,66.3,20.025,66.3,18.5c0-1.375,0.1-2.738,0.299-4.075s0.496-2.65,0.89-3.925s0.884-2.512,1.47-3.7
	S70.225,4.475,71,3.4l0.025-0.05L71.05,3.3l0.025-0.05L71.1,3.2h5.65h5.65h5.65h5.65l0.025,0.05L93.75,3.3l0.025,0.05L93.8,3.4
	c0.775,1.075,1.456,2.213,2.042,3.4c0.586,1.188,1.076,2.425,1.47,3.7s0.69,2.587,0.889,3.925c0.199,1.338,0.299,2.7,0.299,4.075
	c0,1.525-0.125,3.037-0.37,4.519c-0.245,1.481-0.611,2.931-1.093,4.331c-0.481,1.4-1.078,2.75-1.785,4.031
	C94.544,32.662,93.725,33.875,92.8,35l-0.025,0.05L92.75,35.1l-0.025,0.05L92.7,35.2z M72.6,34.2h4.9h4.9h4.9h4.9
	c0.85-1.075,1.606-2.231,2.262-3.452c0.656-1.22,1.213-2.505,1.663-3.836s0.794-2.71,1.025-4.117c0.231-1.408,0.35-2.845,0.35-4.295
	c0-1.3-0.094-2.587-0.278-3.851c-0.184-1.264-0.459-2.505-0.822-3.711s-0.812-2.378-1.347-3.505C94.519,6.306,93.9,5.225,93.2,4.2
	h-5.4h-5.4H77h-5.4c-0.7,1.025-1.319,2.106-1.853,3.233c-0.534,1.127-0.984,2.299-1.347,3.505s-0.637,2.447-0.822,3.711
	C67.394,15.913,67.3,17.2,67.3,18.5c0,1.45,0.119,2.888,0.35,4.295c0.231,1.408,0.575,2.786,1.025,4.118
	c0.45,1.331,1.006,2.615,1.662,3.836C70.994,31.969,71.75,33.125,72.6,34.2z"/>
</svg>
