<?xml version="1.0" encoding="iso-8859-1"?>
<!-- Generator: Adobe Illustrator 25.3.1, SVG Export Plug-In . SVG Version: 6.00 Build 0)  -->
<svg version="1.1" id="Layer_1" xmlns="http://www.w3.org/2000/svg" xmlns:xlink="http://www.w3.org/1999/xlink" x="0px" y="0px"
	 viewBox="0 0 100 100" style="enable-background:new 0 0 100 100;" xml:space="preserve">
<polygon style="fill:#00117D;stroke:#000000;stroke-miterlimit:10;" points="98.5,47.3 85.5,47.3 72.5,47.3 61.35,25.25 50.2,3.2 
	39.05,25.25 27.9,47.3 14.7,47.3 1.5,47.3 1.5,50.5 1.5,53.7 13.1,53.7 24.7,53.7 13.75,75.25 2.8,96.8 50.15,96.8 97.5,96.8 
	86.6,75.25 75.7,53.7 87.1,53.7 98.5,53.7 98.5,50.5 "/>
<path style="fill:#FFFFFF;" d="M63.678,94.701c-2.111,0-4.028-0.499-5.748-1.497c-1.721-0.998-3.246-2.495-4.576-4.492
	s-2.327-4.296-2.993-6.897c-0.665-2.601-0.998-5.506-0.998-8.712c0-3.385,0.338-6.447,1.013-9.186
	c0.675-2.738,1.689-5.153,3.04-7.244c1.35-2.091,2.92-3.659,4.709-4.705c1.789-1.045,3.798-1.568,6.026-1.568
	c2.104,0,4.007,0.5,5.709,1.501s3.202,2.502,4.502,4.503c1.299,2.001,2.274,4.322,2.923,6.96s0.974,5.596,0.974,8.872
	c0,3.366-0.337,6.406-1.011,9.119c-0.674,2.713-1.684,5.101-3.03,7.162c-1.347,2.061-2.899,3.607-4.656,4.638
	C67.806,94.186,65.844,94.701,63.678,94.701z M63.966,58.704c-1.166,0-2.211,0.318-3.137,0.952
	c-0.925,0.635-1.731,1.587-2.417,2.857c-0.685,1.27-1.2,2.744-1.543,4.425c-0.343,1.68-0.514,3.566-0.514,5.657
	c0,2.121,0.172,4.021,0.514,5.698c0.343,1.678,0.857,3.134,1.543,4.369s1.477,2.16,2.375,2.778c0.898,0.617,1.903,0.926,3.014,0.926
	c1.145,0,2.171-0.3,3.08-0.9s1.698-1.5,2.37-2.699c0.672-1.2,1.176-2.633,1.512-4.298s0.504-3.563,0.504-5.694
	c0-2.221-0.163-4.195-0.489-5.922c-0.326-1.728-0.814-3.209-1.465-4.444c-0.651-1.235-1.423-2.161-2.314-2.778
	C66.109,59.013,65.097,58.704,63.966,58.704z"/>
<path style="fill:#FFFFFF;" d="M23.882,92.313v-4.776v-4.776c0.689,0.727,1.409,1.362,2.157,1.907
	c0.749,0.545,1.527,0.999,2.336,1.362c0.808,0.363,1.62,0.636,2.436,0.818c0.816,0.182,1.636,0.272,2.46,0.272
	c0.484,0,0.936-0.027,1.358-0.082s0.813-0.137,1.174-0.247c0.361-0.11,0.691-0.24,0.992-0.392c0.301-0.152,0.572-0.324,0.814-0.518
	c0.242-0.194,0.453-0.406,0.633-0.634s0.33-0.475,0.449-0.739s0.208-0.538,0.268-0.825c0.059-0.286,0.089-0.583,0.089-0.891
	c0-0.418-0.048-0.813-0.143-1.187s-0.238-0.724-0.427-1.052c-0.191-0.328-0.416-0.645-0.675-0.948
	c-0.26-0.304-0.554-0.595-0.882-0.873c-0.329-0.278-0.688-0.552-1.079-0.821s-0.811-0.532-1.262-0.791
	c-0.452-0.258-0.922-0.52-1.409-0.783c-0.487-0.264-0.992-0.53-1.515-0.799c-1.332-0.696-2.493-1.47-3.486-2.321
	c-0.992-0.851-1.815-1.778-2.469-2.783c-0.654-1.005-1.145-2.115-1.472-3.328s-0.49-2.532-0.49-3.955
	c0-1.114,0.089-2.151,0.268-3.108c0.178-0.958,0.446-1.837,0.802-2.639c0.356-0.801,0.778-1.531,1.263-2.19
	c0.485-0.659,1.035-1.247,1.649-1.765c0.614-0.518,1.277-0.966,1.988-1.347c0.711-0.381,1.47-0.693,2.278-0.937
	c0.808-0.243,1.64-0.426,2.495-0.548c0.856-0.122,1.735-0.183,2.639-0.183c0.887,0,1.724,0.034,2.511,0.101s1.523,0.168,2.208,0.302
	c0.685,0.134,1.343,0.305,1.975,0.512c0.632,0.206,1.237,0.449,1.815,0.727v4.463v4.462c-0.285-0.249-0.583-0.482-0.894-0.701
	c-0.311-0.219-0.635-0.423-0.971-0.613c-0.337-0.189-0.68-0.362-1.026-0.518c-0.347-0.157-0.698-0.297-1.055-0.422
	c-0.357-0.124-0.712-0.232-1.066-0.324s-0.708-0.168-1.06-0.228c-0.354-0.06-0.697-0.105-1.032-0.135
	c-0.335-0.03-0.66-0.045-0.977-0.045c-0.436,0-0.852,0.026-1.248,0.078c-0.396,0.052-0.773,0.131-1.129,0.236
	c-0.356,0.104-0.686,0.23-0.987,0.377c-0.301,0.147-0.574,0.315-0.819,0.503c-0.246,0.189-0.464,0.397-0.654,0.624
	c-0.19,0.226-0.353,0.472-0.488,0.735c-0.134,0.264-0.236,0.543-0.303,0.84c-0.067,0.296-0.101,0.608-0.101,0.936
	c0,0.358,0.038,0.698,0.113,1.019s0.188,0.623,0.338,0.906c0.151,0.284,0.333,0.56,0.547,0.829c0.214,0.269,0.46,0.53,0.737,0.783
	c0.277,0.254,0.584,0.505,0.921,0.754c0.337,0.249,0.703,0.495,1.099,0.739s0.818,0.492,1.266,0.743s0.921,0.506,1.42,0.765
	c0.681,0.358,1.328,0.728,1.94,1.109c0.612,0.381,1.19,0.772,1.733,1.175c0.542,0.403,1.046,0.832,1.512,1.287
	c0.465,0.455,0.892,0.936,1.28,1.444c0.389,0.507,0.731,1.051,1.028,1.631c0.297,0.58,0.549,1.195,0.755,1.847
	c0.205,0.651,0.36,1.357,0.464,2.116c0.103,0.759,0.155,1.571,0.155,2.437c0,1.194-0.09,2.292-0.271,3.295
	c-0.18,1.003-0.451,1.909-0.811,2.72s-0.785,1.545-1.275,2.202s-1.043,1.237-1.661,1.739c-0.618,0.503-1.286,0.934-2.006,1.295
	c-0.719,0.361-1.488,0.65-2.308,0.869c-0.82,0.218-1.664,0.382-2.529,0.492s-1.754,0.164-2.665,0.164
	c-0.935,0-1.847-0.05-2.736-0.149c-0.889-0.1-1.756-0.249-2.6-0.448c-0.844-0.2-1.63-0.449-2.361-0.747
	C25.175,93.059,24.5,92.711,23.882,92.313z"/>
</svg>
