<?xml version="1.0" encoding="utf-8"?>
<!-- Generator: Adobe Illustrator 25.2.0, SVG Export Plug-In . SVG Version: 6.00 Build 0)  -->
<svg version="1.1" id="Layer_1" xmlns="http://www.w3.org/2000/svg" xmlns:xlink="http://www.w3.org/1999/xlink" x="0px" y="0px"
	 viewBox="0 0 100 100" style="enable-background:new 0 0 100 100;" xml:space="preserve">
<polygon style="fill:#00117D;stroke:#000000;stroke-miterlimit:10;" points="98.5,47.3 72.5,47.3 50.2,3.2 27.9,47.3 1.5,47.3 
	1.5,53.7 24.7,53.7 2.8,96.8 97.5,96.8 75.7,53.7 98.5,53.7 "/>
<g>
	<g>
		<path style="fill:#FFFFFF;" d="M74.1,93H62.3l-7.1-12.1c-0.5-0.9-1-1.7-1.5-2.5c-0.5-0.7-1-1.3-1.5-1.8c-0.5-0.5-1-0.9-1.6-1.2
			C50,75.1,49.4,75,48.8,75H46v18H35.6V46H52c11.1,0,16.7,4.3,16.7,12.8c0,1.6-0.2,3.1-0.7,4.5c-0.5,1.4-1.2,2.6-2.1,3.7
			c-0.9,1.1-2,2.1-3.3,2.9c-1.3,0.8-2.7,1.4-4.2,1.9V72c0.7,0.2,1.3,0.6,2,1.1c0.6,0.5,1.3,1.1,1.9,1.7c0.6,0.7,1.2,1.4,1.7,2.1
			s1,1.5,1.5,2.2L74.1,93z M46,53.9V67h4.5c2.2,0,4-0.7,5.3-2c1.4-1.3,2-3,2-4.9c0-4.1-2.4-6.2-7.2-6.2H46z"/>
	</g>
	<g>
		<g>
			<path style="fill:#00117D;" d="M78.2,30.1l-3.5-15.5v16.8c0,0.9-0.2,1.6-0.6,2.1c-0.4,0.5-0.9,0.7-1.5,0.7
				c-0.6,0-1.1-0.2-1.5-0.7s-0.6-1.2-0.6-2.1V12.1c0-1.1,0.2-1.8,0.7-2.2s1.2-0.6,2-0.6h1.4c0.8,0,1.4,0.1,1.8,0.2
				c0.4,0.2,0.6,0.5,0.8,0.9s0.4,1.1,0.6,2.1L81.2,26l3.2-13.4c0.2-1,0.4-1.7,0.6-2.1c0.2-0.4,0.5-0.7,0.8-0.9
				c0.4-0.2,1-0.2,1.8-0.2H89c0.8,0,1.5,0.2,2,0.6s0.7,1.1,0.7,2.2v19.3c0,0.9-0.2,1.6-0.6,2.1c-0.4,0.5-0.9,0.7-1.5,0.7
				c-0.6,0-1.1-0.2-1.4-0.7s-0.6-1.2-0.6-2.1V14.5l-3.5,15.5c-0.2,1-0.4,1.7-0.6,2.2c-0.1,0.5-0.4,0.9-0.8,1.3s-0.9,0.6-1.6,0.6
				c-0.5,0-1-0.1-1.3-0.4c-0.4-0.2-0.6-0.6-0.8-1c-0.2-0.4-0.4-0.8-0.5-1.3C78.4,31.1,78.3,30.6,78.2,30.1z"/>
		</g>
		<path style="fill:none;stroke:#CFCFCF;stroke-miterlimit:10;" d="M65.6,20.8c0,6.2,2.1,11.9,5.6,16.2h20.1
			c3.5-4.3,5.6-9.9,5.6-16.2c0-5.6-1.7-10.7-4.6-14.8H70.2C67.3,10.1,65.6,15.2,65.6,20.8z"/>
		<g>
			<path style="fill:#00117D;" d="M78.2,30.1l-3.5-15.5v16.8c0,0.9-0.2,1.6-0.6,2.1c-0.4,0.5-0.9,0.7-1.5,0.7
				c-0.6,0-1.1-0.2-1.5-0.7s-0.6-1.2-0.6-2.1V12.1c0-1.1,0.2-1.8,0.7-2.2c0.5-0.4,1.2-0.6,2-0.6h1.4c0.8,0,1.4,0.1,1.8,0.2
				s0.6,0.5,0.8,0.9c0.2,0.4,0.4,1.1,0.6,2.1L81.2,26l3.2-13.4c0.2-1,0.4-1.7,0.6-2.1c0.2-0.4,0.5-0.7,0.8-0.9s1-0.2,1.8-0.2H89
				c0.8,0,1.5,0.2,2,0.6c0.5,0.4,0.7,1.1,0.7,2.2v19.3c0,0.9-0.2,1.6-0.6,2.1s-0.9,0.7-1.5,0.7c-0.6,0-1.1-0.2-1.4-0.7
				s-0.6-1.2-0.6-2.1V14.5l-3.5,15.5c-0.2,1-0.4,1.8-0.6,2.2c-0.1,0.5-0.4,0.9-0.8,1.3c-0.4,0.4-0.9,0.6-1.6,0.6
				c-0.5,0-1-0.1-1.3-0.4c-0.4-0.2-0.6-0.6-0.8-1c-0.2-0.4-0.4-0.8-0.5-1.3S78.3,30.6,78.2,30.1z"/>
		</g>
		<g>
			<path style="fill:#CFCFCF;" d="M91.5,37.4H70.9l-0.1-0.2c-3.7-4.5-5.7-10.4-5.7-16.5c0-5.5,1.6-10.7,4.7-15.1l0.1-0.2h22.6
				l0.1,0.2c3.1,4.3,4.7,9.6,4.7,15.1c0,6.1-2,12-5.7,16.5L91.5,37.4z M71.4,36.4H91c3.4-4.3,5.3-9.9,5.3-15.7
				c0-5.2-1.5-10.2-4.3-14.3H70.4c-2.8,4.1-4.3,9.1-4.3,14.3C66.1,26.6,68,32.1,71.4,36.4z"/>
		</g>
	</g>
</g>
</svg>
