<?xml version="1.0" encoding="utf-8"?>
<!-- Generator: Adobe Illustrator 25.2.0, SVG Export Plug-In . SVG Version: 6.00 Build 0)  -->
<svg version="1.1" id="Layer_1" xmlns="http://www.w3.org/2000/svg" xmlns:xlink="http://www.w3.org/1999/xlink" x="0px" y="0px"
	 viewBox="0 0 100 100" style="enable-background:new 0 0 100 100;" xml:space="preserve">
<polygon style="fill:#00117D;stroke:#000000;stroke-miterlimit:10;" points="98.5,47.3 72.5,47.3 50.2,3.2 27.9,47.3 1.5,47.3 
	1.5,53.7 24.7,53.7 2.8,96.8 97.5,96.8 75.7,53.7 98.5,53.7 "/>
<g>
	<path style="fill:#FFFFFF;" d="M67.2,53.9H48.5v12h17.2v8.9H48.5v19H36.5V44.9h30.6V53.9z"/>
</g>
<g>
	<g>
		<path style="fill:#00117D;" d="M78.4,30.8l-3.5-15.5v16.8c0,0.9-0.2,1.6-0.6,2.1s-0.9,0.7-1.5,0.7c-0.6,0-1.1-0.2-1.5-0.7
			s-0.6-1.2-0.6-2.1V12.8c0-1.1,0.2-1.8,0.7-2.2c0.5-0.4,1.2-0.6,2-0.6H75c0.8,0,1.4,0.1,1.8,0.2c0.4,0.2,0.6,0.5,0.8,0.9
			c0.2,0.4,0.4,1.1,0.6,2.1l3.2,13.4l3.2-13.4c0.2-1,0.4-1.7,0.6-2.1s0.5-0.7,0.8-0.9c0.4-0.2,1-0.2,1.8-0.2h1.4
			c0.8,0,1.5,0.2,2,0.6s0.7,1.1,0.7,2.2v19.3c0,0.9-0.2,1.6-0.6,2.1c-0.4,0.5-0.9,0.7-1.5,0.7c-0.6,0-1.1-0.2-1.4-0.7
			s-0.6-1.2-0.6-2.1V15.2l-3.5,15.5c-0.2,1-0.4,1.7-0.6,2.2c-0.1,0.5-0.4,0.9-0.8,1.3s-0.9,0.6-1.6,0.6c-0.5,0-1-0.1-1.3-0.4
			c-0.4-0.2-0.6-0.6-0.8-1s-0.4-0.8-0.5-1.3C78.7,31.8,78.5,31.3,78.4,30.8z"/>
	</g>
	<g>
		<path style="fill:#CFCFCF;" d="M91.7,38.1H71.2L71,37.9c-3.7-4.5-5.7-10.4-5.7-16.5c0-5.5,1.6-10.8,4.7-15.1l0.1-0.2h22.6l0.1,0.2
			c3.1,4.3,4.7,9.6,4.7,15.1c0,6.1-2,12-5.7,16.5L91.7,38.1z M71.6,37.1h19.6c3.4-4.3,5.3-9.9,5.3-15.7c0-5.2-1.5-10.2-4.3-14.3
			H70.6c-2.8,4.1-4.3,9.1-4.3,14.3C66.3,27.3,68.2,32.8,71.6,37.1z"/>
	</g>
</g>
</svg>
