<?xml version="1.0" encoding="utf-8"?>
<!-- Generator: Adobe Illustrator 25.2.0, SVG Export Plug-In . SVG Version: 6.00 Build 0)  -->
<svg version="1.1" id="Layer_1" xmlns="http://www.w3.org/2000/svg" xmlns:xlink="http://www.w3.org/1999/xlink" x="0px" y="0px"
	 viewBox="0 0 100 100" style="enable-background:new 0 0 100 100;" xml:space="preserve">
<polygon style="fill:#00117D;stroke:#000000;stroke-miterlimit:10;" points="98.5,47.3 72.5,47.3 50.2,3.2 27.9,47.3 1.5,47.3 
	1.5,53.7 24.7,53.7 2.8,96.8 97.5,96.8 75.7,53.7 98.5,53.7 "/>
<g>
	<g>
		<path style="fill:#FFFFFF;" d="M66.9,55.6H54.8v38.3h-9.6V55.6H33.1V47h33.8V55.6z"/>
	</g>
	<g>
		<g>
			<path style="fill:#00117D;" d="M79.3,11.8l8.5,14.4V11.7c0-0.9,0.2-1.6,0.5-2.1s0.9-0.7,1.5-0.7c0.6,0,1.1,0.2,1.5,0.7
				s0.6,1.2,0.6,2.1v19.2c0,2.1-0.8,3.2-2.4,3.2c-0.4,0-0.8-0.1-1.1-0.2c-0.3-0.1-0.6-0.3-0.9-0.6s-0.5-0.6-0.8-1
				c-0.2-0.4-0.5-0.8-0.7-1.1L77.7,17v14.3c0,0.9-0.2,1.6-0.6,2.1s-0.9,0.7-1.5,0.7c-0.6,0-1.1-0.2-1.5-0.7s-0.6-1.2-0.6-2.1V12.4
				c0-0.8,0.1-1.4,0.2-1.9c0.2-0.5,0.5-0.9,0.9-1.2c0.4-0.3,0.9-0.5,1.4-0.5c0.4,0,0.7,0.1,1,0.2c0.3,0.1,0.5,0.3,0.7,0.6
				c0.2,0.2,0.4,0.6,0.7,0.9C78.8,11,79,11.4,79.3,11.8z"/>
		</g>
		<g>
			<path style="fill:#CFCFCF;" d="M92.7,37.3H72.2L72,37.2c-3.7-4.5-5.7-10.4-5.7-16.5c0-5.5,1.6-10.8,4.7-15.1l0.1-0.2h22.6
				l0.1,0.2c3.1,4.3,4.7,9.6,4.7,15.1c0,6.1-2,12-5.7,16.5L92.7,37.3z M72.6,36.3h19.6c3.4-4.3,5.3-9.9,5.3-15.7
				c0-5.2-1.5-10.2-4.3-14.3H71.7c-2.8,4.1-4.3,9.1-4.3,14.3C67.3,26.5,69.2,32,72.6,36.3z"/>
		</g>
	</g>
</g>
</svg>
