<?xml version="1.0" encoding="utf-8"?>
<!-- Generator: Adobe Illustrator 25.2.0, SVG Export Plug-In . SVG Version: 6.00 Build 0)  -->
<svg version="1.1" id="Layer_1" xmlns="http://www.w3.org/2000/svg" xmlns:xlink="http://www.w3.org/1999/xlink" x="0px" y="0px"
	 viewBox="0 0 100 100" style="enable-background:new 0 0 100 100;" xml:space="preserve">
<polygon style="fill:#00117D;stroke:#000000;stroke-miterlimit:10;" points="98.5,47.3 72.5,47.3 50.2,3.2 27.9,47.3 1.5,47.3 
	1.5,53.7 24.7,53.7 2.8,96.8 97.5,96.8 75.7,53.7 98.5,53.7 "/>
<g>
	<g>
		<path style="fill:#FFFFFF;" d="M69.3,90.2C64.5,92.7,58.6,94,51.5,94c-7.9,0-14.1-2-18.6-6c-4.5-4-6.8-9.6-6.8-16.6
			c0-7.1,2.5-12.9,7.4-17.3c5-4.5,11.6-6.7,19.8-6.7c5.2,0,9.8,0.7,13.7,2v9.5c-3.8-2-8.4-3-13.8-3c-4.6,0-8.3,1.4-11.2,4.1
			c-2.9,2.7-4.3,6.4-4.3,11c0,4.6,1.3,8.2,3.9,10.8s6.1,3.8,10.5,3.8c2.6,0,4.7-0.3,6.3-1v-8.8h-9.8v-8.1h20.8V90.2z"/>
	</g>
	<g>
		<g>
			<path style="fill:#00117D;" d="M77.5,30.6L74,15.1v16.8c0,0.9-0.2,1.6-0.6,2.1c-0.4,0.5-0.9,0.7-1.5,0.7c-0.6,0-1.1-0.2-1.5-0.7
				s-0.6-1.2-0.6-2.1V12.6c0-1.1,0.2-1.8,0.7-2.2c0.5-0.4,1.2-0.6,2-0.6h1.4c0.8,0,1.4,0.1,1.8,0.2c0.4,0.2,0.6,0.5,0.8,0.9
				s0.4,1.1,0.6,2.1l3.2,13.4l3.2-13.4c0.2-1,0.4-1.7,0.6-2.1c0.2-0.4,0.5-0.7,0.8-0.9c0.4-0.2,1-0.2,1.8-0.2h1.4
				c0.8,0,1.5,0.2,2,0.6c0.5,0.4,0.7,1.1,0.7,2.2v19.3c0,0.9-0.2,1.6-0.6,2.1c-0.4,0.5-0.9,0.7-1.5,0.7c-0.6,0-1.1-0.2-1.4-0.7
				s-0.6-1.2-0.6-2.1V15.1l-3.5,15.5c-0.2,1-0.4,1.7-0.6,2.2c-0.1,0.5-0.4,0.9-0.8,1.3c-0.4,0.4-0.9,0.6-1.6,0.6
				c-0.5,0-1-0.1-1.3-0.4c-0.4-0.2-0.6-0.6-0.8-1c-0.2-0.4-0.4-0.8-0.5-1.3C77.7,31.6,77.6,31.1,77.5,30.6z"/>
		</g>
		<g>
			<path style="fill:#CFCFCF;" d="M90.8,38H70.2l-0.1-0.2c-3.7-4.5-5.7-10.4-5.7-16.5c0-5.5,1.6-10.8,4.7-15.1L69.2,6h22.7L92,6.2
				c3.1,4.3,4.7,9.6,4.7,15.1c0,6.1-2,12-5.7,16.5L90.8,38z M70.7,37h19.6c3.4-4.3,5.3-9.9,5.3-15.7c0-5.2-1.5-10.2-4.3-14.3H69.7
				c-2.8,4.1-4.3,9.1-4.3,14.3C65.4,27.1,67.3,32.7,70.7,37z"/>
		</g>
	</g>
</g>
</svg>
