<?xml version="1.0" encoding="utf-8"?>
<!-- Generator: Adobe Illustrator 25.2.0, SVG Export Plug-In . SVG Version: 6.00 Build 0)  -->
<svg version="1.1" id="Layer_1" xmlns="http://www.w3.org/2000/svg" xmlns:xlink="http://www.w3.org/1999/xlink" x="0px" y="0px"
	 viewBox="0 0 100 100" style="enable-background:new 0 0 100 100;" xml:space="preserve">
<polygon style="fill:#00117D;stroke:#000000;stroke-miterlimit:10;" points="98.5,47.3 72.5,47.3 50.2,3.2 27.9,47.3 1.5,47.3 
	1.5,53.7 24.7,53.7 2.8,96.8 97.5,96.8 75.7,53.7 98.5,53.7 "/>
<g>
	<g>
		<path style="fill:#FFFFFF;" d="M65.5,54.2H46.8v12H64v8.9H46.8v19H34.9V45.3h30.6V54.2z"/>
	</g>
	<g>
		<g>
			<path style="fill:#00117D;" d="M91.2,28.1c0,1.5-0.4,2.9-1.1,4.1c-0.8,1.2-1.9,2.2-3.3,2.8c-1.5,0.7-3.2,1-5.2,1
				c-2.4,0-4.4-0.5-5.9-1.4c-1.1-0.7-2-1.6-2.7-2.7s-1-2.2-1-3.3c0-0.6,0.2-1.1,0.6-1.6s0.9-0.7,1.6-0.7c0.5,0,1,0.2,1.3,0.5
				c0.4,0.3,0.7,0.8,0.9,1.5c0.3,0.8,0.6,1.5,1,2c0.4,0.5,0.9,1,1.5,1.3s1.5,0.5,2.6,0.5c1.5,0,2.6-0.3,3.5-1.1
				c0.9-0.7,1.4-1.6,1.4-2.6c0-0.8-0.2-1.5-0.7-2c-0.5-0.5-1.1-0.9-1.9-1.2c-0.8-0.3-1.8-0.6-3.1-0.9c-1.7-0.4-3.2-0.9-4.4-1.5
				c-1.2-0.6-2.1-1.3-2.8-2.3c-0.7-1-1-2.2-1-3.6c0-1.4,0.4-2.6,1.1-3.7c0.7-1.1,1.8-1.9,3.2-2.5s3-0.9,4.9-0.9
				c1.5,0,2.8,0.2,3.9,0.6c1.1,0.4,2,0.9,2.7,1.5c0.7,0.6,1.2,1.3,1.6,2c0.3,0.7,0.5,1.4,0.5,2c0,0.6-0.2,1.1-0.6,1.6
				c-0.4,0.5-0.9,0.7-1.5,0.7c-0.6,0-1-0.1-1.3-0.4c-0.3-0.3-0.6-0.8-1-1.4c-0.4-0.9-1-1.7-1.6-2.2c-0.6-0.5-1.6-0.8-3-0.8
				c-1.3,0-2.3,0.3-3.1,0.9c-0.8,0.6-1.2,1.3-1.2,2.1c0,0.5,0.1,0.9,0.4,1.3c0.3,0.4,0.6,0.7,1.1,0.9c0.5,0.3,0.9,0.5,1.4,0.6
				c0.5,0.1,1.3,0.4,2.3,0.6c1.4,0.3,2.6,0.7,3.7,1.1s2,0.9,2.8,1.5c0.8,0.6,1.4,1.3,1.8,2.2S91.2,26.8,91.2,28.1z"/>
		</g>
		<g>
			<path style="fill:#CFCFCF;" d="M92.3,38.5H71.7l-0.1-0.2c-3.7-4.5-5.7-10.4-5.7-16.5c0-5.5,1.6-10.8,4.7-15.1l0.1-0.2h22.6
				l0.1,0.2c3.1,4.3,4.7,9.6,4.7,15.1c0,6.1-2,12-5.7,16.5L92.3,38.5z M72.2,37.5h19.6c3.4-4.3,5.3-9.9,5.3-15.7
				c0-5.2-1.5-10.2-4.3-14.3H71.2c-2.8,4.1-4.3,9.1-4.3,14.3C66.9,27.6,68.8,33.2,72.2,37.5z"/>
		</g>
	</g>
</g>
</svg>
