<?xml version="1.0" encoding="utf-8"?>
<!-- Generator: Adobe Illustrator 25.2.0, SVG Export Plug-In . SVG Version: 6.00 Build 0)  -->
<svg version="1.1" id="Layer_1" xmlns="http://www.w3.org/2000/svg" xmlns:xlink="http://www.w3.org/1999/xlink" x="0px" y="0px"
	 viewBox="0 0 100 100" style="enable-background:new 0 0 100 100;" xml:space="preserve">
<polygon style="fill:#00117D;stroke:#000000;stroke-miterlimit:10;" points="98.5,47.3 72.5,47.3 50.2,3.2 27.9,47.3 1.5,47.3 
	1.5,53.7 24.7,53.7 2.8,96.8 97.5,96.8 75.7,53.7 98.5,53.7 "/>
<g>
	<path style="fill:#FFFFFF;" d="M65.7,94H34V45.1h30.6v9H45.9V65h17.3v8.9H45.9v11.2h19.8V94z"/>
</g>
<g>
	<g>
		<path style="fill:#00117D;" d="M77.5,30.6L74,15v16.8c0,0.9-0.2,1.6-0.6,2.1c-0.4,0.5-0.9,0.7-1.5,0.7c-0.6,0-1.1-0.2-1.5-0.7
			s-0.6-1.2-0.6-2.1V12.6c0-1.1,0.2-1.8,0.7-2.2c0.5-0.4,1.2-0.6,2-0.6H74c0.8,0,1.4,0.1,1.8,0.2c0.4,0.2,0.6,0.5,0.8,0.9
			s0.4,1.1,0.6,2.1l3.2,13.4l3.2-13.4c0.2-1,0.4-1.7,0.6-2.1c0.2-0.4,0.5-0.7,0.8-0.9c0.4-0.2,1-0.2,1.8-0.2h1.4
			c0.8,0,1.5,0.2,2,0.6c0.5,0.4,0.7,1.1,0.7,2.2v19.3c0,0.9-0.2,1.6-0.6,2.1c-0.4,0.5-0.9,0.7-1.5,0.7c-0.6,0-1.1-0.2-1.4-0.7
			s-0.6-1.2-0.6-2.1V15l-3.5,15.5c-0.2,1-0.4,1.8-0.6,2.2c-0.1,0.5-0.4,0.9-0.8,1.3c-0.4,0.4-0.9,0.6-1.6,0.6c-0.5,0-1-0.1-1.3-0.4
			c-0.4-0.2-0.6-0.6-0.8-1c-0.2-0.4-0.4-0.8-0.5-1.3S77.6,31.1,77.5,30.6z"/>
	</g>
	<g>
		<path style="fill:#CFCFCF;" d="M90.8,37.9H70.2l-0.1-0.2c-3.7-4.5-5.7-10.4-5.7-16.5c0-5.5,1.6-10.8,4.7-15.1L69.2,6h22.7L92,6.2
			c3.1,4.3,4.7,9.6,4.7,15.1c0,6.1-2,12-5.7,16.5L90.8,37.9z M70.7,36.9h19.6c3.4-4.3,5.3-9.9,5.3-15.7c0-5.2-1.5-10.2-4.3-14.3
			H69.7c-2.8,4.1-4.3,9.1-4.3,14.3C65.3,27.1,67.2,32.6,70.7,36.9z"/>
	</g>
</g>
</svg>
