<?xml version="1.0" encoding="utf-8"?>
<!-- Generator: Adobe Illustrator 25.2.0, SVG Export Plug-In . SVG Version: 6.00 Build 0)  -->
<svg version="1.1" id="Layer_1" xmlns="http://www.w3.org/2000/svg" xmlns:xlink="http://www.w3.org/1999/xlink" x="0px" y="0px"
	 viewBox="0 0 100 100" style="enable-background:new 0 0 100 100;" xml:space="preserve">
<polygon style="fill:#00117D;stroke:#000000;stroke-miterlimit:10;" points="98.5,47.3 72.5,47.3 50.2,3.2 27.9,47.3 1.5,47.3 
	1.5,53.7 24.7,53.7 2.8,96.8 97.5,96.8 75.7,53.7 98.5,53.7 "/>
<g>
	<path style="fill:#FFFFFF;" d="M69.3,90c-4.8,2.5-10.7,3.8-17.8,3.8c-7.9,0-14.1-2-18.6-6c-4.5-4-6.8-9.6-6.8-16.6
		c0-7.1,2.5-12.9,7.4-17.3c5-4.5,11.6-6.7,19.8-6.7c5.2,0,9.8,0.7,13.7,2v9.5c-3.8-2-8.4-3-13.8-3c-4.6,0-8.3,1.4-11.2,4.1
		c-2.9,2.7-4.3,6.4-4.3,11c0,4.6,1.3,8.2,3.9,10.8c2.6,2.5,6.1,3.8,10.5,3.8c2.6,0,4.7-0.3,6.3-1v-8.8h-9.8v-8.1h20.8V90z"/>
</g>
</svg>
