<?xml version="1.0" encoding="utf-8"?>
<!-- Generator: Adobe Illustrator 25.2.0, SVG Export Plug-In . SVG Version: 6.00 Build 0)  -->
<svg version="1.1" id="Layer_1" xmlns="http://www.w3.org/2000/svg" xmlns:xlink="http://www.w3.org/1999/xlink" x="0px" y="0px"
	 viewBox="0 0 100 100" style="enable-background:new 0 0 100 100;" xml:space="preserve">
<polygon style="fill:#00117D;stroke:#000000;stroke-miterlimit:10;" points="98.5,47.3 72.5,47.3 50.2,3.2 27.9,47.3 1.5,47.3 
	1.5,53.7 24.7,53.7 2.8,96.8 97.5,96.8 75.7,53.7 98.5,53.7 "/>
<g>
	<g>
		<path style="fill:#FFFFFF;" d="M67,54.4H54.9v38.3h-9.6V54.4H33.2v-8.6H67V54.4z"/>
	</g>
	<g>
		<g>
			<path style="fill:#00117D;" d="M79.9,29.8l-3.5-15.5v16.8c0,0.9-0.2,1.6-0.6,2.1s-0.9,0.7-1.5,0.7c-0.6,0-1.1-0.2-1.5-0.7
				s-0.6-1.2-0.6-2.1V11.8c0-1.1,0.2-1.8,0.7-2.2c0.5-0.4,1.2-0.6,2-0.6h1.4c0.8,0,1.4,0.1,1.8,0.2c0.4,0.2,0.6,0.5,0.8,0.9
				c0.2,0.4,0.4,1.1,0.6,2.1l3.2,13.4L86,12.4c0.2-1,0.4-1.7,0.6-2.1s0.5-0.7,0.8-0.9c0.4-0.2,1-0.2,1.8-0.2h1.4
				c0.8,0,1.5,0.2,2,0.6c0.5,0.4,0.7,1.1,0.7,2.2v19.3c0,0.9-0.2,1.6-0.6,2.1c-0.4,0.5-0.9,0.7-1.5,0.7c-0.6,0-1.1-0.2-1.4-0.7
				s-0.6-1.2-0.6-2.1V14.3l-3.5,15.5c-0.2,1-0.4,1.7-0.6,2.2c-0.1,0.5-0.4,0.9-0.8,1.3c-0.4,0.4-0.9,0.6-1.6,0.6
				c-0.5,0-1-0.1-1.3-0.4c-0.4-0.2-0.6-0.6-0.8-1c-0.2-0.4-0.4-0.8-0.5-1.3C80.1,30.9,80,30.4,79.9,29.8z"/>
		</g>
		<g>
			<path style="fill:#CFCFCF;" d="M93.2,37.2H72.6L72.5,37c-3.7-4.5-5.7-10.4-5.7-16.5c0-5.5,1.6-10.8,4.7-15.1l0.1-0.2h22.6
				l0.1,0.2C97.4,9.8,99,15,99,20.6c0,6.1-2,12-5.7,16.5L93.2,37.2z M73.1,36.2h19.6c3.4-4.3,5.3-9.9,5.3-15.7
				c0-5.2-1.5-10.2-4.3-14.3H72.1c-2.8,4.1-4.3,9.1-4.3,14.3C67.7,26.4,69.6,31.9,73.1,36.2z"/>
		</g>
	</g>
</g>
</svg>
