<?xml version="1.0" encoding="utf-8"?>
<!-- Generator: Adobe Illustrator 25.2.0, SVG Export Plug-In . SVG Version: 6.00 Build 0)  -->
<svg version="1.1" id="Layer_1" xmlns="http://www.w3.org/2000/svg" xmlns:xlink="http://www.w3.org/1999/xlink" x="0px" y="0px"
	 viewBox="0 0 100 100" style="enable-background:new 0 0 100 100;" xml:space="preserve">
<polygon style="fill:#00117D;stroke:#000000;stroke-miterlimit:10;" points="98.5,47.3 72.5,47.3 50.2,3.2 27.9,47.3 1.5,47.3 
	1.5,53.7 24.7,53.7 2.8,96.8 97.5,96.8 75.7,53.7 98.5,53.7 "/>
<g>
	<path style="fill:#FFFFFF;" d="M70.8,50l-7.6,43.6h-7.2l-4.8-28c-0.3-1.5-0.4-3.1-0.5-4.9h-0.1c-0.1,2-0.3,3.6-0.5,4.9l-4.9,28
		h-7.5L30.1,50h7.1l4.1,29c0.2,1.2,0.3,2.9,0.4,5h0.1c0.1-1.6,0.2-3.3,0.6-5.1L47.6,50h7l4.7,29.3c0.2,1.1,0.3,2.6,0.5,4.7h0.1
		c0.1-1.6,0.2-3.2,0.4-4.9l4-29.1H70.8z"/>
</g>
</svg>
