<?xml version="1.0" encoding="iso-8859-1"?>
<!-- Generator: Adobe Illustrator 25.3.1, SVG Export Plug-In . SVG Version: 6.00 Build 0)  -->
<svg version="1.1" id="Layer_1" xmlns="http://www.w3.org/2000/svg" xmlns:xlink="http://www.w3.org/1999/xlink" x="0px" y="0px"
	 viewBox="0 0 100 100" style="enable-background:new 0 0 100 100;" xml:space="preserve">
<polygon style="fill:#00117D;stroke:#000000;stroke-miterlimit:10;" points="98.5,47.3 92,47.3 85.5,47.3 79,47.3 72.5,47.3 
	66.925,36.275 61.35,25.25 55.775,14.225 50.2,3.2 44.625,14.225 39.05,25.25 33.475,36.275 27.9,47.3 21.3,47.3 14.7,47.3 
	8.1,47.3 1.5,47.3 1.5,48.9 1.5,50.5 1.5,52.1 1.5,53.7 7.3,53.7 13.1,53.7 18.9,53.7 24.7,53.7 19.225,64.475 13.75,75.25 
	8.275,86.025 2.8,96.8 26.475,96.8 50.15,96.8 73.825,96.8 97.5,96.8 92.05,86.025 86.6,75.25 81.15,64.475 75.7,53.7 81.4,53.7 
	87.1,53.7 92.8,53.7 98.5,53.7 98.5,52.1 98.5,50.5 98.5,48.9 "/>
<path style="fill:#FFFFFF;" d="M35,93c-0.375,0.275-0.781,0.512-1.217,0.714c-0.436,0.202-0.901,0.367-1.395,0.499
	c-0.494,0.131-1.016,0.228-1.565,0.292C30.275,94.569,29.7,94.6,29.1,94.6c-0.8,0-1.556-0.088-2.269-0.261
	c-0.712-0.173-1.381-0.433-2.006-0.776s-1.206-0.772-1.744-1.283S22.05,91.175,21.6,90.5c-0.45-0.7-0.844-1.45-1.181-2.253
	c-0.338-0.803-0.619-1.659-0.844-2.572c-0.225-0.913-0.394-1.881-0.506-2.909C18.956,81.738,18.9,80.65,18.9,79.5
	c0-1.225,0.062-2.394,0.189-3.505c0.127-1.111,0.317-2.164,0.574-3.157c0.256-0.994,0.578-1.928,0.967-2.802
	c0.389-0.873,0.845-1.686,1.37-2.436s1.081-1.412,1.672-1.984s1.216-1.053,1.878-1.441c0.663-0.387,1.363-0.681,2.103-0.878
	C28.394,63.1,29.175,63,30,63c0.5,0,0.981,0.025,1.444,0.073s0.906,0.12,1.331,0.214c0.425,0.094,0.831,0.21,1.219,0.346
	s0.756,0.292,1.106,0.466v1.65v1.65v1.65v1.65c-0.35-0.3-0.713-0.562-1.086-0.787s-0.758-0.412-1.151-0.562
	c-0.394-0.15-0.797-0.263-1.208-0.338c-0.411-0.075-0.83-0.112-1.255-0.112c-0.475,0-0.931,0.056-1.367,0.169
	c-0.436,0.113-0.851,0.281-1.245,0.506c-0.394,0.225-0.766,0.507-1.115,0.845C26.325,70.756,26,71.15,25.7,71.6
	s-0.562,0.944-0.788,1.478c-0.225,0.534-0.413,1.109-0.562,1.722s-0.262,1.262-0.337,1.947C23.938,77.431,23.9,78.15,23.9,78.9
	s0.038,1.456,0.111,2.122c0.073,0.666,0.183,1.291,0.327,1.878s0.322,1.138,0.533,1.653C25.081,85.069,25.325,85.55,25.6,86
	s0.575,0.838,0.9,1.166c0.325,0.328,0.675,0.597,1.05,0.809c0.375,0.213,0.775,0.369,1.2,0.472S29.625,88.6,30.1,88.6
	c0.45,0,0.894-0.044,1.33-0.13c0.436-0.086,0.864-0.214,1.282-0.382c0.419-0.169,0.828-0.378,1.227-0.627
	c0.398-0.248,0.786-0.536,1.161-0.861v1.6v1.6v1.6V93h-0.025H35.05h-0.025H35z"/>
<path style="fill:#FFFFFF;" d="M57.2,94.1h-1.175H54.85h-1.175H52.5l-2.125-4.825L48.25,84.45l-2.125-4.825L44,74.8
	c-0.125-0.275-0.237-0.538-0.339-0.784c-0.101-0.247-0.192-0.478-0.273-0.691c-0.082-0.213-0.154-0.406-0.218-0.578
	S43.05,72.425,43,72.3h-0.025H42.95h-0.025H42.9c0.025,0.275,0.044,0.581,0.058,0.922s0.023,0.716,0.029,1.128
	c0.006,0.412,0.01,0.862,0.011,1.353C43,76.194,43,76.725,43,77.3v4.2v4.2v4.2v4.2h-1.1h-1.1h-1.1h-1.1v-7.65V78.8v-7.65V63.5h1.25
	h1.25h1.25h1.25l2.05,4.65l2.05,4.65l2.05,4.65l2.05,4.65c0.1,0.2,0.194,0.406,0.283,0.616s0.174,0.422,0.255,0.634
	c0.081,0.212,0.159,0.425,0.236,0.634C52.65,84.194,52.725,84.4,52.8,84.6h0.025h0.025h0.025H52.9
	c-0.025-0.175-0.044-0.394-0.058-0.656c-0.014-0.262-0.023-0.569-0.029-0.919c-0.007-0.35-0.01-0.744-0.011-1.181
	S52.8,80.925,52.8,80.4v-4.225V71.95v-4.225V63.5h1.1H55h1.1h1.1v7.65v7.65v7.65V94.1z"/>
<path style="fill:#FFFFFF;" d="M78.9,92c-0.5,0.425-1.031,0.8-1.594,1.123c-0.562,0.324-1.156,0.596-1.781,0.815
	s-1.281,0.384-1.969,0.495S72.15,94.6,71.4,94.6c-0.825,0-1.606-0.088-2.344-0.261c-0.738-0.173-1.431-0.433-2.081-0.776
	c-0.65-0.344-1.256-0.772-1.819-1.283s-1.081-1.104-1.556-1.779s-0.894-1.418-1.255-2.229c-0.361-0.811-0.664-1.69-0.908-2.634
	c-0.243-0.944-0.428-1.953-0.551-3.027S60.7,80.4,60.7,79.2s0.062-2.344,0.189-3.433c0.127-1.089,0.317-2.123,0.574-3.104
	c0.256-0.981,0.578-1.91,0.967-2.786s0.845-1.702,1.37-2.477s1.094-1.444,1.705-2.011c0.611-0.567,1.264-1.033,1.957-1.402
	c0.694-0.368,1.429-0.64,2.202-0.82S71.25,62.9,72.1,62.9c0.55,0,1.081,0.025,1.595,0.076c0.514,0.051,1.011,0.13,1.493,0.236
	c0.481,0.106,0.947,0.241,1.398,0.405c0.452,0.164,0.889,0.358,1.314,0.583v1.625v1.625v1.625V70.7
	c-0.4-0.35-0.819-0.65-1.258-0.903s-0.898-0.459-1.379-0.622c-0.481-0.162-0.985-0.281-1.511-0.359S72.675,68.7,72.1,68.7
	c-0.475,0-0.931,0.056-1.367,0.17c-0.436,0.114-0.852,0.286-1.246,0.518s-0.766,0.522-1.114,0.873
	C68.025,70.613,67.7,71.025,67.4,71.5s-0.562,0.981-0.787,1.522c-0.225,0.541-0.413,1.116-0.562,1.728
	c-0.15,0.613-0.262,1.262-0.338,1.953C65.638,77.394,65.6,78.125,65.6,78.9s0.031,1.513,0.095,2.209
	c0.064,0.697,0.161,1.353,0.292,1.966c0.131,0.612,0.297,1.181,0.499,1.703c0.202,0.522,0.439,0.997,0.714,1.422
	s0.575,0.8,0.898,1.123c0.324,0.324,0.671,0.596,1.04,0.815s0.76,0.385,1.17,0.495C70.719,88.744,71.15,88.8,71.6,88.8
	c0.275,0,0.537-0.012,0.786-0.039c0.248-0.027,0.483-0.067,0.701-0.123s0.422-0.128,0.608-0.217
	c0.186-0.089,0.355-0.196,0.505-0.321v-1.5v-1.5v-1.5v-1.5h-1.025H72.15h-1.025H70.1v-1.375V79.35v-1.375V76.6h2.2h2.2h2.2h2.2v3.85
	v3.85v3.85V92z"/>
<path style="fill:#00117D;" d="M87.6,26.9c0,0.375-0.025,0.744-0.073,1.105c-0.048,0.361-0.12,0.714-0.214,1.058
	s-0.209,0.678-0.345,1.001S86.675,30.7,86.5,31c-0.2,0.3-0.419,0.588-0.656,0.859c-0.238,0.272-0.494,0.528-0.769,0.766
	s-0.569,0.456-0.881,0.653C83.881,33.475,83.55,33.65,83.2,33.8c-0.375,0.175-0.762,0.325-1.164,0.452s-0.817,0.23-1.248,0.311
	s-0.878,0.141-1.342,0.18S78.5,34.8,78,34.8c-0.6,0-1.175-0.031-1.723-0.092c-0.548-0.061-1.07-0.151-1.564-0.27
	c-0.494-0.119-0.96-0.266-1.396-0.439c-0.436-0.174-0.842-0.374-1.217-0.598c-0.275-0.175-0.537-0.362-0.787-0.562
	S70.825,32.425,70.6,32.2c-0.225-0.225-0.438-0.463-0.637-0.713c-0.2-0.25-0.388-0.512-0.562-0.787s-0.325-0.55-0.451-0.825
	c-0.126-0.275-0.229-0.55-0.311-0.825s-0.141-0.55-0.18-0.825C68.419,27.95,68.4,27.675,68.4,27.4c0-0.15,0.013-0.294,0.037-0.433
	c0.025-0.139,0.062-0.273,0.113-0.404c0.05-0.132,0.113-0.26,0.188-0.386S68.9,25.925,69,25.8s0.206-0.231,0.32-0.32
	c0.114-0.089,0.236-0.161,0.368-0.218s0.272-0.097,0.423-0.123c0.151-0.026,0.314-0.039,0.489-0.039c0.125,0,0.25,0.012,0.372,0.036
	c0.122,0.024,0.241,0.058,0.353,0.102c0.113,0.044,0.219,0.097,0.316,0.157s0.184,0.13,0.259,0.205
	c0.1,0.075,0.194,0.163,0.281,0.263s0.169,0.212,0.244,0.337s0.144,0.263,0.206,0.413S72.75,26.925,72.8,27.1
	c0.075,0.2,0.15,0.394,0.227,0.58c0.077,0.186,0.155,0.364,0.236,0.532s0.166,0.328,0.255,0.477S73.7,28.975,73.8,29.1
	s0.206,0.25,0.319,0.372c0.112,0.122,0.231,0.241,0.356,0.353s0.256,0.219,0.394,0.316c0.137,0.097,0.281,0.184,0.431,0.259
	s0.319,0.144,0.505,0.205s0.389,0.114,0.608,0.157s0.453,0.078,0.701,0.102c0.248,0.024,0.51,0.036,0.785,0.036
	c0.375,0,0.725-0.019,1.053-0.059s0.634-0.103,0.922-0.191s0.556-0.2,0.809-0.341C80.938,30.169,81.175,30,81.4,29.8
	c0.225-0.175,0.425-0.362,0.598-0.561c0.173-0.198,0.32-0.408,0.439-0.627c0.119-0.219,0.21-0.446,0.271-0.682
	c0.061-0.236,0.092-0.48,0.092-0.73c0-0.2-0.012-0.394-0.039-0.58s-0.067-0.364-0.123-0.532s-0.128-0.328-0.217-0.477
	c-0.089-0.149-0.196-0.286-0.321-0.411s-0.256-0.244-0.395-0.356c-0.139-0.112-0.286-0.219-0.443-0.319
	c-0.156-0.1-0.322-0.194-0.498-0.281C80.587,24.156,80.4,24.075,80.2,24s-0.412-0.15-0.639-0.225
	c-0.227-0.075-0.467-0.15-0.724-0.225c-0.256-0.075-0.528-0.15-0.817-0.225c-0.289-0.075-0.595-0.15-0.92-0.225
	c-0.425-0.1-0.838-0.206-1.236-0.319c-0.398-0.112-0.783-0.231-1.151-0.356s-0.722-0.256-1.058-0.394
	C73.319,21.894,73,21.75,72.7,21.6s-0.581-0.306-0.845-0.472s-0.511-0.341-0.743-0.528c-0.231-0.188-0.447-0.387-0.648-0.603
	s-0.389-0.447-0.564-0.697s-0.325-0.512-0.451-0.788c-0.127-0.275-0.229-0.562-0.311-0.862s-0.14-0.613-0.179-0.938
	C68.919,16.388,68.9,16.05,68.9,15.7s0.025-0.688,0.073-1.014c0.048-0.326,0.12-0.642,0.214-0.948
	c0.094-0.307,0.21-0.603,0.346-0.893C69.669,12.556,69.825,12.275,70,12s0.375-0.531,0.599-0.77c0.223-0.239,0.47-0.461,0.739-0.668
	s0.559-0.397,0.87-0.573C72.519,9.812,72.85,9.65,73.2,9.5s0.7-0.256,1.058-0.331s0.723-0.119,1.104-0.144
	C75.743,9,76.141,8.994,76.561,8.994S77.425,9,77.9,9c0.375,0,0.737,0.012,1.088,0.038C79.338,9.062,79.675,9.1,80,9.15
	c0.325,0.05,0.637,0.113,0.938,0.188S81.525,9.5,81.8,9.6s0.538,0.206,0.788,0.319s0.487,0.231,0.712,0.356s0.438,0.256,0.637,0.394
	S84.325,10.95,84.5,11.1s0.338,0.306,0.489,0.467c0.152,0.161,0.292,0.327,0.423,0.496c0.132,0.168,0.254,0.34,0.368,0.514
	C85.894,12.75,86,12.925,86.1,13.1c0.075,0.175,0.144,0.35,0.205,0.523c0.061,0.173,0.114,0.345,0.158,0.514
	c0.044,0.169,0.078,0.335,0.101,0.496S86.6,14.95,86.6,15.1s-0.013,0.294-0.037,0.433c-0.025,0.139-0.062,0.274-0.113,0.405
	c-0.05,0.131-0.113,0.259-0.188,0.386C86.188,16.45,86.1,16.575,86,16.7s-0.206,0.231-0.319,0.32
	c-0.113,0.089-0.231,0.161-0.356,0.218s-0.256,0.097-0.394,0.123C84.794,17.388,84.65,17.4,84.5,17.4s-0.288-0.006-0.414-0.02
	c-0.127-0.014-0.242-0.036-0.348-0.067c-0.106-0.031-0.203-0.072-0.293-0.124S83.275,17.075,83.2,17s-0.15-0.163-0.227-0.261
	c-0.077-0.098-0.155-0.208-0.236-0.326s-0.166-0.247-0.255-0.383c-0.089-0.136-0.182-0.28-0.282-0.43
	c-0.1-0.225-0.212-0.444-0.334-0.653c-0.122-0.209-0.253-0.409-0.391-0.597s-0.281-0.363-0.428-0.522S80.75,13.525,80.6,13.4
	s-0.325-0.238-0.525-0.336c-0.2-0.098-0.425-0.183-0.675-0.252c-0.25-0.068-0.525-0.122-0.825-0.157
	c-0.3-0.036-0.625-0.055-0.975-0.055c-0.325,0-0.631,0.019-0.92,0.056c-0.289,0.038-0.561,0.094-0.818,0.169
	c-0.256,0.075-0.496,0.169-0.723,0.281S74.7,13.35,74.5,13.5s-0.375,0.306-0.525,0.469S73.7,14.3,73.6,14.475
	s-0.175,0.356-0.225,0.544S73.3,15.4,73.3,15.6c0,0.125,0.006,0.244,0.02,0.358c0.014,0.114,0.036,0.224,0.068,0.33
	s0.072,0.209,0.123,0.311S73.625,16.8,73.7,16.9s0.15,0.194,0.228,0.281c0.078,0.087,0.159,0.169,0.247,0.244
	s0.181,0.144,0.284,0.206S74.675,17.75,74.8,17.8c0.125,0.075,0.244,0.144,0.359,0.206s0.228,0.119,0.341,0.169
	s0.225,0.094,0.341,0.131s0.234,0.069,0.359,0.094s0.269,0.062,0.43,0.108c0.161,0.045,0.339,0.099,0.533,0.155
	c0.194,0.056,0.403,0.115,0.626,0.173C78.012,18.894,78.25,18.95,78.5,19c0.35,0.075,0.688,0.156,1.014,0.242
	s0.642,0.177,0.949,0.271c0.306,0.094,0.603,0.19,0.892,0.289C81.644,19.9,81.925,20,82.2,20.1s0.537,0.206,0.789,0.319
	c0.251,0.112,0.492,0.231,0.723,0.356s0.453,0.256,0.667,0.394C84.593,21.306,84.8,21.45,85,21.6s0.387,0.306,0.562,0.47
	c0.175,0.164,0.338,0.336,0.488,0.517c0.15,0.182,0.288,0.372,0.413,0.574S86.7,23.575,86.8,23.8s0.2,0.456,0.294,0.695
	c0.094,0.239,0.181,0.486,0.256,0.743c0.075,0.256,0.137,0.521,0.181,0.798S87.6,26.6,87.6,26.9z"/>
<path style="fill:#CFCFCF;" d="M88.6,37.3h-5.125H78.35h-5.125H68.1l-0.025-0.05L68.05,37.2l-0.025-0.05L68,37.1
	c-0.925-1.125-1.744-2.338-2.451-3.619c-0.708-1.281-1.304-2.631-1.785-4.031c-0.481-1.4-0.847-2.85-1.093-4.331
	c-0.245-1.481-0.37-2.994-0.37-4.519c0-1.375,0.1-2.737,0.299-4.075c0.199-1.337,0.496-2.65,0.889-3.925
	c0.394-1.275,0.884-2.512,1.47-3.7C65.544,7.712,66.225,6.575,67,5.5V5.475V5.45V5.425V5.4h5.65h5.65h5.65h5.65l0.025,0.05
	L89.65,5.5l0.025,0.05L89.7,5.6c0.775,1.075,1.456,2.213,2.042,3.4c0.586,1.188,1.076,2.425,1.47,3.7s0.69,2.588,0.889,3.925
	c0.199,1.338,0.299,2.7,0.299,4.075c0,1.525-0.125,3.037-0.37,4.519c-0.245,1.481-0.611,2.931-1.093,4.331s-1.078,2.75-1.786,4.031
	S89.625,36.075,88.7,37.2l-0.025,0.025L88.65,37.25l-0.025,0.025L88.6,37.3z M68.5,36.3h4.9h4.9h4.9h4.9
	c0.85-1.075,1.606-2.231,2.262-3.452s1.213-2.505,1.663-3.836s0.794-2.709,1.025-4.117S93.4,22.05,93.4,20.6
	c0-1.3-0.094-2.587-0.278-3.851c-0.184-1.264-0.459-2.505-0.822-3.711c-0.363-1.207-0.812-2.378-1.347-3.505
	C90.419,8.406,89.8,7.325,89.1,6.3h-5.4h-5.4h-5.4h-5.4c-0.7,1.025-1.319,2.106-1.853,3.233c-0.534,1.127-0.984,2.299-1.347,3.505
	c-0.363,1.206-0.638,2.446-0.822,3.711S63.2,19.3,63.2,20.6c0,1.475,0.119,2.925,0.35,4.337c0.231,1.413,0.575,2.788,1.025,4.112
	c0.45,1.325,1.006,2.6,1.663,3.812C66.894,34.075,67.65,35.225,68.5,36.3z"/>
</svg>
