<?xml version="1.0" encoding="iso-8859-1"?>
<!-- Generator: Adobe Illustrator 25.4.1, SVG Export Plug-In . SVG Version: 6.00 Build 0)  -->
<svg version="1.1" id="Layer_1" xmlns="http://www.w3.org/2000/svg" xmlns:xlink="http://www.w3.org/1999/xlink" x="0px" y="0px"
	 viewBox="0 0 100 100" style="enable-background:new 0 0 100 100;" xml:space="preserve">
<polygon style="fill:#00117D;stroke:#000000;stroke-miterlimit:10;" points="98.5,47.3 85.5,47.3 72.5,47.3 61.35,25.25 50.2,3.2 
	39.05,25.25 27.9,47.3 14.7,47.3 1.5,47.3 1.5,50.5 1.5,53.7 13.1,53.7 24.7,53.7 13.75,75.25 2.8,96.8 50.15,96.8 97.5,96.8 
	86.6,75.25 75.7,53.7 87.1,53.7 98.5,53.7 98.5,50.5 "/>
<path style="fill:#FFFFFF;" d="M26.3,91.2v-4.65V81.9c0.65,0.7,1.325,1.325,2.025,1.863c0.7,0.537,1.425,0.987,2.175,1.337
	s1.5,0.625,2.25,0.812S34.25,86.2,35,86.2c0.45,0,0.875-0.025,1.263-0.075C36.65,86.075,37,86,37.3,85.9
	c0.35-0.1,0.65-0.225,0.925-0.375C38.5,85.375,38.75,85.2,39,85s0.45-0.4,0.612-0.613C39.775,84.175,39.9,83.95,40,83.7
	s0.175-0.525,0.225-0.812C40.275,82.6,40.3,82.3,40.3,82c0-0.4-0.05-0.775-0.138-1.137C40.075,80.5,39.95,80.15,39.8,79.8
	c-0.2-0.3-0.4-0.6-0.625-0.9C38.95,78.6,38.7,78.3,38.4,78c-0.3-0.25-0.625-0.525-0.987-0.8c-0.362-0.275-0.763-0.55-1.213-0.8
	c-0.4-0.25-0.825-0.5-1.275-0.75C34.475,75.4,34,75.15,33.5,74.9c-1.25-0.7-2.325-1.45-3.237-2.275C29.35,71.8,28.6,70.9,28,69.9
	s-1.05-2.075-1.35-3.25c-0.3-1.175-0.45-2.45-0.45-3.85c0-1.1,0.075-2.1,0.237-3.025C26.6,58.85,26.85,58,27.2,57.2
	s0.75-1.5,1.2-2.138s0.95-1.212,1.5-1.763c0.55-0.5,1.175-0.925,1.85-1.287c0.675-0.363,1.4-0.663,2.15-0.913
	s1.525-0.425,2.325-0.538c0.8-0.112,1.625-0.162,2.475-0.162c0.8,0,1.575,0.025,2.312,0.088C41.75,50.55,42.45,50.65,43.1,50.8
	s1.25,0.325,1.825,0.525S46.05,51.75,46.6,52v4.35v4.35c-0.25-0.25-0.525-0.475-0.812-0.688S45.2,59.6,44.9,59.4
	s-0.625-0.375-0.95-0.525C43.625,58.725,43.3,58.6,43,58.5c-0.35-0.1-0.675-0.2-1-0.288c-0.325-0.087-0.65-0.162-1-0.212
	s-0.675-0.1-0.987-0.138C39.7,57.825,39.4,57.8,39.1,57.8c-0.4,0-0.775,0.025-1.138,0.075C37.6,57.925,37.25,58,36.9,58.1
	s-0.65,0.225-0.925,0.375C35.7,58.625,35.45,58.8,35.2,59s-0.45,0.4-0.625,0.612C34.4,59.825,34.25,60.05,34.1,60.3
	s-0.25,0.525-0.312,0.812S33.7,61.7,33.7,62c0,0.35,0.025,0.675,0.087,0.987S33.95,63.6,34.1,63.9c0.15,0.3,0.325,0.575,0.525,0.838
	C34.825,65,35.05,65.25,35.3,65.5s0.525,0.5,0.838,0.75S36.8,66.75,37.2,67c0.35,0.25,0.75,0.5,1.175,0.75s0.875,0.5,1.325,0.75
	c0.65,0.35,1.25,0.7,1.812,1.062C42.075,69.925,42.6,70.3,43.1,70.7s0.975,0.825,1.412,1.275C44.95,72.425,45.35,72.9,45.7,73.4
	s0.675,1.025,0.963,1.588C46.95,75.55,47.2,76.15,47.4,76.8s0.35,1.325,0.45,2.05c0.1,0.725,0.15,1.5,0.15,2.35
	c0,1.15-0.075,2.225-0.237,3.213S47.35,86.3,47,87.1s-0.75,1.525-1.2,2.162c-0.45,0.638-0.95,1.188-1.5,1.638
	s-1.175,0.875-1.85,1.238C41.775,92.5,41.05,92.8,40.3,93s-1.525,0.35-2.325,0.45S36.35,93.6,35.5,93.6s-1.7-0.05-2.525-0.15
	S31.35,93.2,30.6,93c-0.9-0.25-1.675-0.5-2.375-0.787C27.525,91.925,26.9,91.6,26.3,91.2z"/>
<path style="fill:#FFFFFF;" d="M60.2,78.4v7.2v7.2h-3.55H53.1V71.95V51.1h5.6h5.6c4,0,6.975,1.1,8.95,3.312
	c1.975,2.213,2.95,5.538,2.95,9.988c0,2.1-0.275,4-0.838,5.7c-0.562,1.7-1.412,3.2-2.562,4.5s-2.475,2.275-4,2.925
	c-1.525,0.65-3.25,0.975-5.2,0.975l-1.7-0.05L60.2,78.4L60.2,78.4L60.2,78.4z M60.2,58.3v6.5v6.5h1.4H63
	c1.9,0,3.325-0.55,4.275-1.65c0.95-1.1,1.425-2.75,1.425-4.95c0-2.15-0.475-3.75-1.425-4.812C66.325,58.825,64.9,58.3,63,58.3
	c0,0-0.7,0-1.4,0C60.9,58.3,60.2,58.3,60.2,58.3z"/>
<path style="fill:#00117D;" d="M77.5,30.6l-1.75-7.75L74,15.1v8.4v8.4c0,0.45-0.05,0.85-0.15,1.2c-0.1,0.35-0.25,0.65-0.45,0.9
	s-0.425,0.425-0.675,0.537C72.475,34.65,72.2,34.7,71.9,34.7s-0.575-0.05-0.825-0.163C70.825,34.425,70.6,34.25,70.4,34
	s-0.35-0.55-0.45-0.9c-0.1-0.35-0.15-0.75-0.15-1.2v-9.65V12.6c0-0.55,0.05-1,0.162-1.363S70.25,10.6,70.5,10.4
	s0.55-0.35,0.887-0.45C71.725,9.85,72.1,9.8,72.5,9.8h0.7h0.7c0.4,0,0.75,0.025,1.05,0.062C75.25,9.9,75.5,9.95,75.7,10
	c0.2,0.1,0.35,0.225,0.475,0.375S76.4,10.7,76.5,10.9s0.2,0.475,0.3,0.825C76.9,12.075,77,12.5,77.1,13l1.6,6.7l1.6,6.7l1.6-6.7
	l1.6-6.7c0.1-0.5,0.2-0.925,0.3-1.275c0.1-0.35,0.2-0.625,0.3-0.825c0.1-0.2,0.225-0.375,0.362-0.525
	C84.6,10.225,84.75,10.1,84.9,10c0.2-0.1,0.45-0.15,0.75-0.175C85.95,9.8,86.3,9.8,86.7,9.8h0.7h0.7c0.4,0,0.775,0.05,1.113,0.15
	c0.337,0.1,0.637,0.25,0.887,0.45s0.425,0.475,0.537,0.837S90.8,12.05,90.8,12.6v9.65v9.65c0,0.45-0.05,0.85-0.15,1.2
	c-0.1,0.35-0.25,0.65-0.45,0.9s-0.425,0.425-0.675,0.537C89.275,34.65,89,34.7,88.7,34.7s-0.575-0.05-0.812-0.163
	C87.65,34.425,87.45,34.25,87.3,34s-0.3-0.55-0.412-0.9c-0.113-0.35-0.188-0.75-0.188-1.2v-8.4v-8.4l-1.75,7.75L83.2,30.6
	c-0.1,0.5-0.2,0.925-0.3,1.288c-0.1,0.362-0.2,0.662-0.3,0.912c-0.05,0.25-0.15,0.475-0.287,0.688C82.175,33.7,82,33.9,81.8,34.1
	c-0.2,0.2-0.425,0.35-0.688,0.45c-0.262,0.1-0.562,0.15-0.912,0.15c-0.25,0-0.5-0.025-0.725-0.088
	C79.25,34.55,79.05,34.45,78.9,34.3c-0.2-0.1-0.35-0.25-0.475-0.425S78.2,33.5,78.1,33.3s-0.2-0.4-0.287-0.612
	C77.725,32.475,77.65,32.25,77.6,32c0.05-0.2,0.05-0.425,0.025-0.662C77.6,31.1,77.55,30.85,77.5,30.6z"/>
<path style="fill:#CFCFCF;" d="M90.8,38H80.5H70.2l-0.05-0.1l-0.05-0.1c-1.85-2.25-3.275-4.85-4.237-7.65
	c-0.963-2.8-1.463-5.8-1.463-8.85c0-2.75,0.4-5.45,1.188-8S67.55,8.35,69.1,6.2l0.05-0.1L69.2,6h11.35H91.9l0.05,0.1L92,6.2
	c1.55,2.15,2.725,4.55,3.512,7.1s1.188,5.25,1.188,8c0,3.05-0.5,6.05-1.463,8.85S92.85,35.55,91,37.8l-0.1,0.1L90.8,38z M70.7,37
	h9.8h9.8c1.7-2.15,3.025-4.625,3.925-7.288S95.6,24.2,95.6,21.3c0-2.6-0.375-5.15-1.1-7.562C93.775,11.325,92.7,9.05,91.3,7H80.5
	H69.7c-1.4,2.05-2.475,4.325-3.2,6.737S65.4,18.7,65.4,21.3c0,2.9,0.475,5.75,1.375,8.413S69,34.85,70.7,37z"/>
</svg>
