<?xml version="1.0" encoding="utf-8"?>
<!-- Generator: Adobe Illustrator 25.2.0, SVG Export Plug-In . SVG Version: 6.00 Build 0)  -->
<svg version="1.1" id="Layer_1" xmlns="http://www.w3.org/2000/svg" xmlns:xlink="http://www.w3.org/1999/xlink" x="0px" y="0px"
	 viewBox="0 0 100 100" style="enable-background:new 0 0 100 100;" xml:space="preserve">
<polygon style="fill:#00117D;stroke:#000000;stroke-miterlimit:10;" points="98.5,47.3 72.5,47.3 50.2,3.2 27.9,47.3 1.5,47.3 
	1.5,53.7 24.7,53.7 2.8,96.8 97.5,96.8 75.7,53.7 98.5,53.7 "/>
<g>
	<g>
		<path style="fill:#FFFFFF;" d="M65.8,54.8H47.1v12h17.2v8.9H47.1v19H35.1V45.8h30.6V54.8z"/>
	</g>
	<path style="fill:#00117D;" d="M96.5,22.2h-4.1c-0.4-2.3-1.5-4.4-3-6l2.8-3.6l-1.3-1l-2.7,3.5c-1.6-1.2-3.5-1.9-5.5-2.1V7.3h-1.7
		V13c-2.2,0.1-4.2,0.9-5.9,2.1l-3.2-3.2l-1.2,1.2l3.1,3.1c-1.6,1.6-2.7,3.7-3,6h-3v1.7h2.8c0,0,0,0.1,0,0.1c0,3.1,1.3,5.8,3.3,7.8
		l-2.3,2.9l1.3,1l2.2-2.9c1.6,1.2,3.6,1.9,5.8,2.1v4.4h1.7v-4.4c5.6-0.5,9.9-5.2,9.9-10.9c0,0,0-0.1,0-0.1h4V22.2z M81.5,32.6
		c-4.8,0-8.6-3.9-8.6-8.6s3.9-8.6,8.6-8.6s8.6,3.9,8.6,8.6S86.3,32.6,81.5,32.6z"/>
</g>
</svg>
