<?xml version="1.0" encoding="iso-8859-1"?>
<!-- Generator: Adobe Illustrator 25.3.1, SVG Export Plug-In . SVG Version: 6.00 Build 0)  -->
<svg version="1.1" id="Layer_1" xmlns="http://www.w3.org/2000/svg" xmlns:xlink="http://www.w3.org/1999/xlink" x="0px" y="0px"
	 viewBox="0 0 100 100" style="enable-background:new 0 0 100 100;" xml:space="preserve">
<polygon style="fill:#00117D;stroke:#000000;stroke-miterlimit:10;" points="98.5,47.3 85.5,47.3 72.5,47.3 61.35,25.25 50.2,3.2 
	39.05,25.25 27.9,47.3 14.7,47.3 1.5,47.3 1.5,50.5 1.5,53.7 13.1,53.7 24.7,53.7 13.75,75.25 2.8,96.8 50.15,96.8 97.5,96.8 
	86.6,75.25 75.7,53.7 87.1,53.7 98.5,53.7 98.5,50.5 "/>
<path style="fill:#FFFFFF;" d="M25.1,91.1v-4.8v-4.8c0.65,0.75,1.325,1.375,2.025,1.912S28.55,84.4,29.3,84.8s1.5,0.675,2.25,0.85
	c0.75,0.175,1.5,0.25,2.25,0.25c0.45,0,0.875-0.025,1.263-0.075C35.45,85.775,35.8,85.7,36.1,85.6c0.35-0.1,0.65-0.225,0.925-0.375
	C37.3,85.075,37.55,84.9,37.8,84.7c0.2-0.2,0.4-0.4,0.575-0.625C38.55,83.85,38.7,83.6,38.8,83.3c0.1-0.25,0.175-0.525,0.225-0.812
	S39.1,81.9,39.1,81.6c0-0.4-0.05-0.8-0.138-1.175C38.875,80.05,38.75,79.7,38.6,79.4c-0.2-0.35-0.4-0.675-0.625-0.975
	S37.5,77.85,37.2,77.6c-0.3-0.3-0.625-0.575-0.987-0.838C35.85,76.5,35.45,76.25,35,76c-0.4-0.25-0.825-0.5-1.275-0.762
	C33.275,74.975,32.8,74.7,32.3,74.4c-1.25-0.7-2.325-1.475-3.237-2.325C28.15,71.225,27.4,70.3,26.8,69.3s-1.05-2.125-1.35-3.363
	C25.15,64.7,25,63.35,25,61.9c0-1.1,0.075-2.15,0.237-3.125C25.4,57.8,25.65,56.9,26,56.1s0.75-1.525,1.2-2.188
	s0.95-1.263,1.5-1.812c0.55-0.5,1.175-0.95,1.85-1.337c0.675-0.388,1.4-0.713,2.15-0.963s1.525-0.425,2.325-0.537
	c0.8-0.113,1.625-0.163,2.475-0.163c0.8,0,1.575,0.025,2.312,0.087C40.55,49.25,41.25,49.35,41.9,49.5s1.25,0.325,1.825,0.525
	S44.85,50.45,45.4,50.7v4.45v4.45c-0.25-0.25-0.525-0.475-0.812-0.688S44,58.5,43.7,58.3s-0.625-0.375-0.95-0.525
	c-0.325-0.15-0.65-0.275-0.95-0.375c-0.35-0.1-0.675-0.2-1-0.3c-0.325-0.1-0.65-0.2-1-0.3s-0.675-0.15-0.987-0.175
	S38.2,56.6,37.9,56.6c-0.4,0-0.775,0.025-1.138,0.075C36.4,56.725,36.05,56.8,35.7,56.9s-0.65,0.225-0.925,0.375
	C34.5,57.425,34.25,57.6,34,57.8s-0.45,0.4-0.625,0.625C33.2,58.65,33.05,58.9,32.9,59.2c-0.1,0.25-0.2,0.525-0.275,0.825
	C32.55,60.325,32.5,60.65,32.5,61s0.025,0.7,0.087,1.025S32.75,62.65,32.9,62.9s0.325,0.525,0.525,0.8s0.425,0.55,0.675,0.8
	s0.525,0.5,0.838,0.75S35.6,65.75,36,66c0.35,0.25,0.75,0.5,1.175,0.75s0.875,0.5,1.325,0.75c0.65,0.35,1.25,0.725,1.812,1.112
	C40.875,69,41.4,69.4,41.9,69.8s0.975,0.825,1.412,1.275S44.15,72,44.5,72.5s0.675,1.05,0.963,1.637C45.75,74.725,46,75.35,46.2,76
	s0.35,1.35,0.45,2.113c0.1,0.762,0.15,1.588,0.15,2.487c0,1.2-0.075,2.3-0.237,3.3s-0.412,1.9-0.763,2.7s-0.75,1.525-1.2,2.188
	c-0.45,0.662-0.95,1.262-1.5,1.812s-1.175,0.975-1.85,1.325s-1.4,0.625-2.15,0.875c-0.75,0.2-1.525,0.375-2.325,0.5
	s-1.625,0.2-2.475,0.2s-1.7-0.05-2.538-0.15S30.1,93.1,29.3,92.9s-1.55-0.45-2.25-0.75C26.35,91.85,25.7,91.5,25.1,91.1z"/>
<path style="fill:#FFFFFF;" d="M59,78v7.4v7.4h-3.55H51.9V71.35V49.9h5.6h5.6c4,0,6.975,1.15,8.95,3.438S75,59.05,75,63.6
	c0,2.15-0.275,4.1-0.838,5.85s-1.412,3.3-2.562,4.65c-1.15,1.35-2.475,2.35-4,3.012c-1.525,0.663-3.25,0.988-5.2,0.988h-1.7H59
	v-0.05V78z M59,57.3V64v6.7h1.4h1.4c1.9,0,3.325-0.575,4.275-1.713C67.025,67.85,67.5,66.15,67.5,63.9c0-2.2-0.475-3.85-1.425-4.95
	c-0.95-1.1-2.375-1.65-4.275-1.65h-1.4H59z"/>
</svg>
