<?xml version="1.0" encoding="iso-8859-1"?>
<!-- Generator: Adobe Illustrator 25.3.1, SVG Export Plug-In . SVG Version: 6.00 Build 0)  -->
<svg version="1.1" id="Layer_1" xmlns="http://www.w3.org/2000/svg" xmlns:xlink="http://www.w3.org/1999/xlink" x="0px" y="0px"
	 viewBox="0 0 100 100" style="enable-background:new 0 0 100 100;" xml:space="preserve">
<polygon style="fill:#00117D;stroke:#000000;stroke-miterlimit:10;" points="98.5,47.3 92,47.3 85.5,47.3 79,47.3 72.5,47.3 
	66.925,36.275 61.35,25.25 55.775,14.225 50.2,3.2 44.625,14.225 39.05,25.25 33.475,36.275 27.9,47.3 21.3,47.3 14.7,47.3 
	8.1,47.3 1.5,47.3 1.5,48.9 1.5,50.5 1.5,52.1 1.5,53.7 7.3,53.7 13.1,53.7 18.9,53.7 24.7,53.7 19.225,64.475 13.75,75.25 
	8.275,86.025 2.8,96.8 26.475,96.8 50.15,96.8 73.825,96.8 97.5,96.8 92.05,86.025 86.6,75.25 81.15,64.475 75.7,53.7 81.4,53.7 
	87.1,53.7 92.8,53.7 98.5,53.7 98.5,52.1 98.5,50.5 98.5,48.9 "/>
<path style="fill:#FFFFFF;" d="M34.8,91.9c-0.375,0.275-0.781,0.513-1.217,0.714s-0.901,0.367-1.395,0.499
	c-0.494,0.131-1.016,0.228-1.564,0.292C30.075,93.469,29.5,93.5,28.9,93.5c-0.8,0-1.556-0.088-2.269-0.261
	c-0.712-0.173-1.381-0.433-2.006-0.776s-1.206-0.772-1.744-1.283S21.85,90.075,21.4,89.4c-0.45-0.7-0.844-1.45-1.181-2.253
	c-0.338-0.803-0.619-1.659-0.844-2.572c-0.225-0.912-0.394-1.881-0.506-2.909C18.756,80.637,18.7,79.55,18.7,78.4
	c0-1.225,0.062-2.394,0.189-3.505s0.317-2.164,0.574-3.157c0.256-0.994,0.578-1.928,0.967-2.802c0.389-0.873,0.845-1.686,1.37-2.436
	c0.5-0.75,1.044-1.412,1.628-1.984c0.584-0.572,1.209-1.053,1.872-1.441s1.362-0.681,2.097-0.878S28.9,61.9,29.7,61.9
	c0.5,0,0.981,0.025,1.444,0.073c0.462,0.048,0.906,0.12,1.331,0.214c0.425,0.094,0.831,0.21,1.219,0.346
	C34.081,62.669,34.45,62.825,34.8,63v1.65v1.65v1.65v1.65c-0.35-0.3-0.713-0.562-1.086-0.787s-0.758-0.412-1.151-0.562
	c-0.394-0.15-0.797-0.263-1.208-0.338c-0.411-0.075-0.83-0.112-1.255-0.112c-0.475,0-0.931,0.056-1.367,0.169
	c-0.436,0.113-0.851,0.281-1.245,0.506c-0.394,0.225-0.766,0.506-1.115,0.844C26.025,69.656,25.7,70.05,25.4,70.5
	s-0.562,0.944-0.788,1.478c-0.225,0.534-0.412,1.109-0.562,1.722c-0.15,0.613-0.263,1.262-0.337,1.947
	C23.637,76.331,23.6,77.05,23.6,77.8s0.038,1.456,0.111,2.122s0.183,1.291,0.327,1.878s0.322,1.138,0.533,1.653
	c0.211,0.516,0.455,0.997,0.73,1.447c0.275,0.45,0.575,0.838,0.9,1.166c0.325,0.328,0.675,0.597,1.05,0.809
	c0.375,0.213,0.774,0.369,1.199,0.472c0.425,0.103,0.875,0.153,1.35,0.153c0.45,0,0.894-0.044,1.33-0.13s0.864-0.214,1.282-0.382
	c0.419-0.169,0.829-0.379,1.227-0.627s0.786-0.536,1.161-0.861v1.6v1.6v1.6V91.9z"/>
<path style="fill:#FFFFFF;" d="M57,93h-1.175H54.65h-1.175H52.3l-2.125-4.8l-2.125-4.8l-2.125-4.8L43.8,73.8
	c-0.125-0.275-0.237-0.538-0.339-0.784s-0.192-0.478-0.273-0.691c-0.082-0.213-0.153-0.406-0.218-0.578s-0.12-0.322-0.17-0.447
	h-0.025H42.75h-0.025H42.7c0.025,0.275,0.044,0.581,0.058,0.922s0.023,0.716,0.029,1.128c0.007,0.412,0.01,0.863,0.011,1.353
	S42.8,75.725,42.8,76.3v4.175v4.175v4.175V93h-1.1h-1.1h-1.1h-1.1v-7.65V77.7v-7.65V62.4h1.25h1.25h1.25h1.25l2.05,4.65l2.05,4.65
	l2.05,4.65L51.6,81c0.1,0.2,0.194,0.406,0.283,0.616s0.174,0.422,0.255,0.634c0.081,0.213,0.159,0.425,0.236,0.634
	C52.45,83.094,52.525,83.3,52.6,83.5h0.025h0.025h0.025H52.7c-0.025-0.175-0.044-0.394-0.058-0.656s-0.023-0.569-0.029-0.919
	s-0.009-0.744-0.011-1.181C52.6,80.306,52.6,79.825,52.6,79.3v-4.225V70.85v-4.225V62.4h1.1h1.1h1.1H57v7.65v7.65v7.65V93z"/>
<path style="fill:#FFFFFF;" d="M78.6,91c-0.5,0.425-1.031,0.8-1.594,1.123c-0.562,0.324-1.156,0.596-1.781,0.815
	s-1.281,0.384-1.969,0.495S71.85,93.6,71.1,93.6c-0.825,0-1.606-0.088-2.344-0.261c-0.738-0.173-1.431-0.433-2.081-0.776
	c-0.65-0.344-1.256-0.772-1.819-1.283s-1.081-1.104-1.556-1.779s-0.894-1.418-1.255-2.229c-0.361-0.811-0.664-1.69-0.908-2.634
	c-0.243-0.944-0.428-1.953-0.551-3.027S60.4,79.4,60.4,78.2s0.062-2.344,0.189-3.433c0.127-1.089,0.317-2.123,0.574-3.104
	c0.256-0.981,0.578-1.91,0.967-2.786s0.845-1.702,1.37-2.477c0.525-0.75,1.094-1.406,1.705-1.969s1.264-1.031,1.958-1.406
	c0.694-0.375,1.428-0.656,2.201-0.844C70.137,61.994,70.95,61.9,71.8,61.9c0.55,0,1.081,0.025,1.595,0.076s1.011,0.13,1.493,0.236
	c0.481,0.106,0.947,0.241,1.398,0.405c0.452,0.164,0.889,0.358,1.314,0.583v1.625v1.625v1.625V69.7
	c-0.4-0.35-0.819-0.65-1.258-0.903s-0.898-0.459-1.379-0.622c-0.481-0.162-0.985-0.281-1.511-0.359
	C72.925,67.737,72.375,67.7,71.8,67.7c-0.475,0-0.931,0.056-1.367,0.17c-0.436,0.114-0.852,0.286-1.246,0.518
	s-0.766,0.522-1.114,0.873C67.725,69.613,67.4,70.025,67.1,70.5s-0.562,0.981-0.787,1.522c-0.225,0.541-0.413,1.116-0.562,1.728
	c-0.15,0.613-0.262,1.262-0.338,1.953C65.338,76.394,65.3,77.125,65.3,77.9s0.031,1.513,0.095,2.209
	c0.064,0.697,0.161,1.353,0.292,1.966c0.131,0.612,0.297,1.181,0.499,1.703c0.202,0.522,0.439,0.997,0.714,1.422
	s0.575,0.8,0.898,1.123c0.324,0.324,0.671,0.596,1.04,0.815s0.759,0.385,1.17,0.495S70.85,87.8,71.3,87.8
	c0.275,0,0.538-0.012,0.786-0.039c0.248-0.027,0.483-0.067,0.701-0.123s0.422-0.128,0.608-0.217
	c0.186-0.089,0.355-0.196,0.505-0.321v-1.5v-1.5v-1.5v-1.5h-1.025H71.85h-1.025H69.8v-1.375V78.35v-1.375V75.6H72h2.2h2.2h2.2v3.85
	v3.85c0,0,0,1.925,0,3.85C78.6,89.075,78.6,91,78.6,91z"/>
<path style="fill:#00117D;" d="M76.1,28.9l-0.875-3.875L74.35,21.15l-0.875-3.875L72.6,13.4v4.2v4.2V26v4.2
	c0,0.225-0.013,0.438-0.037,0.638c-0.025,0.2-0.062,0.387-0.113,0.562s-0.113,0.337-0.188,0.487S72.1,32.175,72,32.3
	s-0.206,0.231-0.319,0.32c-0.113,0.089-0.231,0.161-0.356,0.218c-0.125,0.056-0.256,0.097-0.394,0.123
	C70.794,32.987,70.65,33,70.5,33s-0.294-0.013-0.431-0.039c-0.137-0.026-0.269-0.067-0.394-0.123
	c-0.125-0.056-0.244-0.129-0.356-0.218C69.206,32.531,69.1,32.425,69,32.3s-0.188-0.263-0.262-0.413S68.6,31.575,68.55,31.4
	s-0.088-0.363-0.113-0.562c-0.025-0.2-0.037-0.413-0.037-0.638v-4.825V20.55v-4.825V10.9c0-0.275,0.013-0.525,0.039-0.752
	s0.067-0.43,0.123-0.611s0.128-0.341,0.217-0.48S68.975,8.8,69.1,8.7s0.263-0.188,0.411-0.262c0.148-0.075,0.308-0.138,0.476-0.188
	s0.347-0.087,0.533-0.112C70.706,8.113,70.9,8.1,71.1,8.1h0.35h0.35h0.35h0.35c0.2,0,0.388,0.006,0.562,0.017
	c0.175,0.011,0.338,0.026,0.488,0.045c0.15,0.019,0.287,0.041,0.413,0.064C74.088,8.25,74.2,8.275,74.3,8.3
	c0.1,0.05,0.188,0.106,0.266,0.169s0.147,0.131,0.209,0.206s0.119,0.156,0.172,0.244C75,9.006,75.05,9.1,75.1,9.2
	s0.1,0.219,0.15,0.356c0.05,0.138,0.1,0.294,0.15,0.469c0.05,0.175,0.1,0.369,0.15,0.581c0.05,0.212,0.1,0.444,0.15,0.694
	l0.825,3.375l0.825,3.375l0.825,3.375L79,24.8l0.8-3.35l0.8-3.35l0.8-3.35l0.8-3.35c0.05-0.25,0.1-0.481,0.15-0.694
	c0.05-0.212,0.1-0.406,0.15-0.581s0.1-0.331,0.15-0.469C82.7,9.519,82.75,9.4,82.8,9.3s0.106-0.194,0.167-0.281
	c0.061-0.087,0.126-0.169,0.195-0.244c0.069-0.075,0.141-0.144,0.215-0.206C83.45,8.506,83.525,8.45,83.6,8.4
	c0.1-0.05,0.213-0.087,0.338-0.116c0.125-0.028,0.262-0.047,0.412-0.059s0.312-0.019,0.488-0.022C85.012,8.2,85.2,8.2,85.4,8.2h0.35
	h0.35h0.35h0.35c0.2,0,0.394,0.012,0.58,0.038c0.186,0.025,0.364,0.062,0.533,0.112c0.169,0.05,0.328,0.113,0.476,0.188
	C88.538,8.613,88.675,8.7,88.8,8.8s0.231,0.219,0.32,0.358s0.161,0.298,0.217,0.479s0.097,0.384,0.123,0.611
	C89.487,10.475,89.5,10.725,89.5,11v4.825v4.825v4.825V30.3c0,0.225-0.012,0.438-0.037,0.638S89.4,31.325,89.35,31.5
	s-0.112,0.338-0.188,0.488C89.088,32.138,89,32.275,88.9,32.4s-0.206,0.231-0.319,0.32c-0.113,0.089-0.231,0.161-0.356,0.218
	c-0.125,0.056-0.256,0.097-0.394,0.123C87.694,33.087,87.55,33.1,87.4,33.1s-0.294-0.013-0.43-0.039
	c-0.136-0.026-0.264-0.067-0.382-0.123c-0.119-0.056-0.229-0.128-0.327-0.218c-0.099-0.089-0.186-0.195-0.261-0.32
	s-0.15-0.263-0.22-0.413s-0.136-0.312-0.192-0.487c-0.057-0.175-0.104-0.363-0.136-0.562c-0.033-0.2-0.052-0.413-0.052-0.638v-4.225
	V21.85v-4.225V13.4l-0.85,3.875L83.7,21.15l-0.85,3.875L82,28.9c-0.05,0.25-0.1,0.488-0.15,0.709c-0.05,0.222-0.1,0.428-0.15,0.616
	s-0.1,0.356-0.15,0.503C81.5,30.875,81.45,31,81.4,31.1c-0.025,0.125-0.062,0.244-0.111,0.358c-0.048,0.114-0.108,0.224-0.176,0.33
	c-0.069,0.106-0.147,0.209-0.233,0.31C80.794,32.2,80.7,32.3,80.6,32.4s-0.206,0.188-0.32,0.263s-0.236,0.138-0.368,0.188
	c-0.131,0.05-0.271,0.087-0.423,0.112C79.338,32.987,79.175,33,79,33c-0.125,0-0.25-0.006-0.372-0.02
	c-0.122-0.014-0.241-0.036-0.353-0.068s-0.219-0.072-0.316-0.123c-0.097-0.051-0.184-0.114-0.259-0.189
	c-0.1-0.05-0.188-0.112-0.266-0.184c-0.078-0.072-0.147-0.153-0.209-0.241s-0.119-0.181-0.172-0.278C77,31.8,76.95,31.7,76.9,31.6
	s-0.1-0.2-0.148-0.302c-0.048-0.101-0.095-0.204-0.139-0.31s-0.084-0.215-0.12-0.33c-0.036-0.114-0.068-0.233-0.093-0.358
	s-0.05-0.237-0.075-0.345s-0.05-0.211-0.075-0.318c-0.025-0.106-0.05-0.215-0.075-0.335C76.15,29.181,76.125,29.05,76.1,28.9z"/>
<path style="fill:#CFCFCF;" d="M89.4,36.3h-5.15H79.1h-5.15H68.8l-0.025-0.05L68.75,36.2l-0.025-0.05L68.7,36.1
	c-0.925-1.125-1.744-2.338-2.451-3.619c-0.708-1.281-1.304-2.631-1.785-4.031c-0.481-1.4-0.847-2.85-1.093-4.331
	C63.125,22.638,63,21.125,63,19.6c0-1.375,0.1-2.737,0.299-4.075s0.496-2.65,0.89-3.925c0.394-1.275,0.884-2.512,1.47-3.7
	c0.586-1.188,1.267-2.325,2.042-3.4l0.025-0.05L67.75,4.4l0.025-0.05L67.8,4.3h5.675h5.675h5.675H90.5l0.025,0.05L90.55,4.4
	l0.025,0.05L90.6,4.5c0.775,1.075,1.456,2.213,2.042,3.4c0.586,1.188,1.076,2.425,1.47,3.7s0.69,2.587,0.889,3.925
	c0.199,1.337,0.299,2.7,0.299,4.075c0,1.525-0.125,3.038-0.37,4.519c-0.245,1.481-0.611,2.931-1.093,4.331
	c-0.481,1.4-1.078,2.75-1.785,4.031S90.525,34.975,89.6,36.1l-0.05,0.05L89.5,36.2l-0.05,0.05L89.4,36.3z M69.3,35.3h4.9h4.9H84h4.9
	c0.85-1.075,1.606-2.231,2.262-3.452s1.213-2.505,1.663-3.836s0.794-2.709,1.025-4.117S94.2,21.05,94.2,19.6
	c0-1.3-0.094-2.587-0.278-3.851c-0.184-1.264-0.459-2.505-0.822-3.711c-0.362-1.207-0.812-2.378-1.347-3.505
	C91.219,7.406,90.6,6.325,89.9,5.3h-5.4h-5.4h-5.4h-5.4c-0.7,1.025-1.319,2.106-1.853,3.233c-0.534,1.127-0.984,2.299-1.347,3.505
	s-0.637,2.447-0.822,3.711C64.094,17.013,64,18.3,64,19.6c-0.025,1.45,0.075,2.887,0.294,4.295c0.219,1.408,0.556,2.786,1.006,4.118
	s1.012,2.616,1.681,3.836C67.65,33.069,68.425,34.225,69.3,35.3z"/>
</svg>
