<?xml version="1.0" encoding="utf-8"?>
<!-- Generator: Adobe Illustrator 25.2.0, SVG Export Plug-In . SVG Version: 6.00 Build 0)  -->
<svg version="1.1" id="Layer_1" xmlns="http://www.w3.org/2000/svg" xmlns:xlink="http://www.w3.org/1999/xlink" x="0px" y="0px"
	 viewBox="0 0 100 100" style="enable-background:new 0 0 100 100;" xml:space="preserve">
<g id="Layer_2_1_">
	<g id="Layer_2-2">
		<rect x="30" y="28.1" width="8.3" height="3.7"/>
		<path d="M21.7,39.2c0.1-0.4,0.3-0.8,0.6-1.1l5.1-5c0.4-0.4,0.9-0.6,1.5-0.6h11.3c4,0,7.2,3.2,7.3,7.2c0,0,0,0,0,0.1v33.8H21.7
			V58.2c-0.1-0.3-0.1-0.5-0.1-0.8V39.9C21.6,39.6,21.7,39.4,21.7,39.2z M23.3,52.6c0,0.9,0.7,1.7,1.7,1.7c0.5,0,0.9-0.2,1.2-0.5
			l4.6-4.5c0.3-0.3,0.5-0.8,0.5-1.2V35.8c0-0.9-0.8-1.7-1.7-1.7c-0.4,0-0.9,0.2-1.2,0.5L23.8,39c-0.3,0.3-0.5,0.8-0.5,1.2V52.6z"/>
		<path d="M74.4,45c-1.6-0.6-3.3-0.7-4.9-0.5c-1.5,0.3-2.8,0.9-4.1,1.7c-0.5,0.3-1.1,0.3-1.7,0c-1.2-0.8-2.6-1.4-4.1-1.7
			c-1.7-0.2-3.3-0.1-4.9,0.5c-2.4,0.9-4.7,2.4-4.8,5.7c-0.2,3.3,0.6,6.6,2.3,9.4c1.3,2.2,3,4.1,5,5.6c1.1,0.7,2.4,0.9,3.7,0.7
			c0.8,0,2-1.6,3.1-1.9c0.3,0,0.6,0,0.9,0c1,0.3,2.2,1.9,3.1,1.9c1.3,0.2,2.6-0.1,3.7-0.7c2-1.5,3.7-3.4,5-5.6
			c1.7-2.8,2.5-6.1,2.3-9.4C79,47.5,76.8,45.9,74.4,45z"/>
		<path d="M74.2,33.3c0,0-4.6,0-7.5,2.8s-2.8,7.5-2.8,7.5s4.6,0,7.5-2.8C74.2,37.9,74.2,33.3,74.2,33.3z"/>
		<path d="M16.2,36V23.7c0-1,0.8-1.8,1.8-1.8l0,0h63.9c1,0,1.8,0.8,1.8,1.8V36h3V23.7c0-2.7-2.1-4.8-4.8-4.8c0,0,0,0,0,0H18
			c-2.7,0-4.8,2.1-4.8,4.8l0,0V36H16.2z"/>
		<path d="M80.2,81.1H19.8c-0.7,0-1.3-0.5-1.5-1.2l-7.8-41.1c-0.2-0.8,0.4-1.6,1.2-1.8c0.8-0.2,1.6,0.4,1.8,1.2l7.6,39.9H79
			l7.6-39.9c0.2-0.8,1-1.4,1.8-1.2s1.4,1,1.2,1.8l-7.9,41.1C81.5,80.6,80.9,81.1,80.2,81.1z"/>
	</g>
</g>
</svg>
