<?xml version="1.0" encoding="utf-8"?>
<!-- Generator: Adobe Illustrator 25.2.0, SVG Export Plug-In . SVG Version: 6.00 Build 0)  -->
<svg version="1.1" id="Layer_1" xmlns="http://www.w3.org/2000/svg" xmlns:xlink="http://www.w3.org/1999/xlink" x="0px" y="0px"
	 viewBox="0 0 100 100" style="enable-background:new 0 0 100 100;" xml:space="preserve">
<g id="Layer_2_1_">
	<g id="Layer_2-2">
		<path style="fill:#B3B3B3;" d="M88.7,25h-7.1c-0.7,0-1.3,0.5-1.5,1.2l-6.7,34H12.8V36.1c0-0.8-0.7-1.5-1.5-1.5s-1.5,0.7-1.5,1.5
			v25.6c0,0.8,0.7,1.5,1.5,1.5h64.8c1.4,0,2.5,1.1,2.5,2.5c0,1.4-1.1,2.5-2.5,2.5H14.5c-0.8,0-1.5,0.7-1.5,1.5
			c0,0.8,0.7,1.5,1.5,1.5h61.6c3,0.1,5.6-2.3,5.7-5.3c0.1-3-2.3-5.6-5.3-5.7L82.8,28h5.8c0.8,0,1.5-0.7,1.5-1.5S89.5,25,88.7,25z"/>
		<path style="fill:#B3B3B3;" d="M26.2,74.3c1.7,0,3.1,1.4,3.1,3.1c0,1.7-1.4,3.1-3.1,3.1s-3.1-1.4-3.1-3.1c0,0,0,0,0,0
			C23.1,75.7,24.5,74.3,26.2,74.3 M26.2,72.3c-2.8,0-5.1,2.3-5.1,5.1s2.3,5.1,5.1,5.1c2.8,0,5.1-2.3,5.1-5.1c0,0,0,0,0,0
			C31.4,74.6,29.1,72.3,26.2,72.3C26.2,72.3,26.2,72.3,26.2,72.3z"/>
		<path style="fill:#B3B3B3;" d="M65.6,74.3c1.7,0,3.1,1.4,3.1,3.1c0,1.7-1.4,3.1-3.1,3.1c-1.7,0-3.1-1.4-3.1-3.1c0,0,0,0,0,0
			C62.5,75.7,63.9,74.3,65.6,74.3 M65.6,72.3c-2.8,0-5.1,2.3-5.1,5.1s2.3,5.1,5.1,5.1c2.8,0,5.1-2.3,5.1-5.1c0,0,0,0,0,0
			C70.7,74.6,68.4,72.3,65.6,72.3C65.6,72.3,65.6,72.3,65.6,72.3z"/>
		<path d="M48.1,17.4h-0.2c-7.7,0-13.9,6.2-13.9,13.9v17.2c0.2,6.5,5.6,11.5,12,11.3c6.2-0.2,11.2-5.2,11.3-11.3V31.8
			c0-4.6-3.7-8.3-8.3-8.3s-8.3,3.7-8.3,8.3V49c0,0.8,0.7,1.5,1.5,1.5c0.8,0,1.5-0.7,1.5-1.5V31.8c0-2.9,2.4-5.3,5.3-5.3
			c2.9,0,5.3,2.4,5.3,5.3c0,0,0,0,0,0v16.7c-0.2,4.8-4.2,8.6-9,8.4c-4.6-0.2-8.2-3.8-8.4-8.4V31.3c0-6,4.9-10.9,10.9-10.9H48
			c6,0,10.9,4.9,10.9,10.9v16.8c0,0.8,0.7,1.5,1.5,1.5s1.5-0.7,1.5-1.5l0,0V31.3C61.9,23.7,55.7,17.5,48.1,17.4z"/>
	</g>
</g>
</svg>
