<?xml version="1.0" encoding="utf-8"?>
<!-- Generator: Adobe Illustrator 25.2.0, SVG Export Plug-In . SVG Version: 6.00 Build 0)  -->
<svg version="1.1" id="Layer_1" xmlns="http://www.w3.org/2000/svg" xmlns:xlink="http://www.w3.org/1999/xlink" x="0px" y="0px"
	 viewBox="0 0 100 100" style="enable-background:new 0 0 100 100;" xml:space="preserve">
<g id="Layer_2_1_">
	<g id="Layer_2-2">
		<rect x="24.6" y="17.3" width="8.3" height="3.7"/>
		<path d="M16.3,28.4c0.1-0.4,0.4-0.7,0.7-1l5.1-5c0.4-0.4,0.9-0.6,1.5-0.6h11.2c4,0,7.2,3.2,7.2,7.2c0,0,0,0,0,0v29.7H16.3V47.4
			c-0.1-0.3-0.1-0.5-0.1-0.8V29.2C16.2,28.9,16.2,28.7,16.3,28.4z M17.8,41.9c0,0.9,0.8,1.7,1.7,1.7c0.4,0,0.9-0.2,1.2-0.5l4.6-4.5
			c0.3-0.3,0.5-0.8,0.5-1.2V25c0-0.9-0.8-1.7-1.7-1.7c-0.4,0-0.9,0.2-1.2,0.5l-4.6,4.5c-0.3,0.3-0.5,0.7-0.5,1.2V41.9z"/>
		<path d="M68.9,34.3c-1.6-0.6-3.3-0.7-4.9-0.5c-1.5,0.3-2.8,0.9-4.1,1.7c-0.5,0.3-1.1,0.3-1.7,0c-1.3-0.8-2.6-1.4-4.1-1.7
			c-1.7-0.3-3.3-0.1-4.9,0.5c-2.4,0.9-4.7,2.4-4.7,5.7c-0.1,3.3,0.7,6.5,2.4,9.3c1.3,2.2,3,4.1,5,5.6c1.1,0.7,2.4,1,3.7,0.8
			c0.8,0,2-1.6,3.1-1.9c0.3-0.1,0.6-0.1,0.9,0c1,0.3,2.2,1.9,3.1,1.9c1.3,0.2,2.6-0.1,3.7-0.8c2-1.5,3.7-3.4,5-5.6
			c1.7-2.8,2.5-6.1,2.3-9.4C73.6,36.7,71.3,35.2,68.9,34.3z"/>
		<path d="M68.7,22.6c0,0-4.6,0-7.5,2.8c-2.8,2.8-2.8,7.5-2.8,7.5s4.6,0,7.5-2.8C68.8,27.2,68.7,22.6,68.7,22.6z"/>
		<path style="fill:#B3B3B3;" d="M88.7,25.2h-7.1c-0.7,0-1.3,0.5-1.5,1.2l-6.7,33.9H12.8V36.2c0-0.8-0.7-1.5-1.5-1.5
			s-1.5,0.7-1.5,1.5v25.6c0,0.8,0.7,1.5,1.5,1.5h64.8c1.4,0,2.5,1.1,2.5,2.5c0,1.4-1.1,2.5-2.5,2.5H14.5c-0.8,0-1.5,0.7-1.5,1.5
			c0,0.8,0.7,1.5,1.5,1.5h61.6c3,0.1,5.6-2.3,5.7-5.3c0.1-3-2.3-5.6-5.3-5.7l6.3-32.1h5.8c0.8,0,1.5-0.7,1.5-1.5
			C90.2,25.8,89.5,25.2,88.7,25.2z"/>
		<path style="fill:#B3B3B3;" d="M26.2,74.5c1.7,0,3.1,1.4,3.1,3.1c0,1.7-1.4,3.1-3.1,3.1c-1.7,0-3.1-1.4-3.1-3.1c0,0,0,0,0,0
			C23.1,75.9,24.5,74.5,26.2,74.5 M26.2,72.5c-2.8,0-5.1,2.3-5.1,5.1s2.3,5.1,5.1,5.1c2.8,0,5.1-2.3,5.1-5.1c0,0,0,0,0,0
			C31.4,74.7,29.1,72.5,26.2,72.5C26.2,72.5,26.2,72.5,26.2,72.5z"/>
		<path style="fill:#B3B3B3;" d="M65.6,74.5c1.7,0,3.1,1.4,3.1,3.1c0,1.7-1.4,3.1-3.1,3.1c-1.7,0-3.1-1.4-3.1-3.1c0,0,0,0,0,0
			C62.5,75.9,63.9,74.5,65.6,74.5 M65.6,72.5c-2.8,0-5.1,2.3-5.1,5.1s2.3,5.1,5.1,5.1c2.8,0,5.1-2.3,5.1-5.1c0,0,0,0,0,0
			C70.7,74.7,68.4,72.5,65.6,72.5C65.6,72.5,65.6,72.5,65.6,72.5z"/>
	</g>
</g>
</svg>
