<?xml version="1.0" encoding="iso-8859-1"?>
<!-- Generator: Adobe Illustrator 25.4.1, SVG Export Plug-In . SVG Version: 6.00 Build 0)  -->
<svg version="1.1" id="Layer_1" xmlns="http://www.w3.org/2000/svg" xmlns:xlink="http://www.w3.org/1999/xlink" x="0px" y="0px"
	 viewBox="0 0 100 100" style="enable-background:new 0 0 100 100;" xml:space="preserve">
<path d="M84.3,19.1h-1.575H81.15h-1.575H78c-0.15,0-0.3,0.025-0.442,0.073s-0.277,0.121-0.396,0.215
	c-0.118,0.094-0.221,0.209-0.301,0.345S76.725,20.025,76.7,20.2l-1.475,10.2L73.75,40.6l-1.475,10.2L70.8,61H57.375H43.95H30.525
	H17.1v-7.65V45.7v-7.65V30.4h13.5h13.5h13.5h13.5c0.2,0.025,0.388,0.006,0.558-0.048c0.17-0.055,0.324-0.145,0.455-0.264
	c0.131-0.119,0.24-0.266,0.323-0.433c0.083-0.167,0.139-0.355,0.164-0.555s0.006-0.387-0.048-0.558
	c-0.055-0.17-0.145-0.323-0.264-0.454c-0.119-0.132-0.266-0.241-0.433-0.324C71.688,27.681,71.5,27.625,71.3,27.6
	c-0.025,0-0.05,0-0.073,0c-0.023,0-0.045,0-0.064,0s-0.034,0-0.045,0s-0.017,0-0.017,0H57.351H43.6H29.85H16.1
	c-0.025,0-0.044,0-0.059,0c-0.016,0-0.028,0-0.041,0c-0.012,0-0.025,0-0.041,0s-0.034,0-0.059,0h-0.025H15.85h-0.025H15.8
	c-0.175,0-0.344,0.038-0.498,0.105c-0.155,0.067-0.295,0.164-0.415,0.283c-0.119,0.118-0.215,0.259-0.282,0.414
	C14.538,28.556,14.5,28.725,14.5,28.9v8.35v8.35v8.35v8.35c0,0.175,0.038,0.344,0.105,0.498c0.067,0.155,0.164,0.295,0.282,0.414
	c0.119,0.119,0.26,0.216,0.415,0.283c0.155,0.067,0.323,0.105,0.498,0.105l0,0l0,0l0,0l0,0h14.35H44.5h14.35H73.2
	c0.3,0,0.588,0.062,0.85,0.175c0.263,0.112,0.5,0.275,0.7,0.475s0.363,0.438,0.475,0.7c0.113,0.263,0.175,0.55,0.175,0.85
	s-0.062,0.588-0.175,0.85c-0.112,0.262-0.275,0.5-0.475,0.7s-0.438,0.363-0.7,0.475C73.787,67.938,73.5,68,73.2,68H59.525H45.85
	H32.175H18.5c-0.175,0-0.344,0.037-0.499,0.105c-0.155,0.067-0.295,0.164-0.414,0.282c-0.118,0.119-0.215,0.26-0.282,0.414
	C17.238,68.956,17.2,69.125,17.2,69.3s0.038,0.344,0.105,0.498c0.067,0.155,0.164,0.295,0.283,0.414
	c0.118,0.119,0.259,0.216,0.414,0.283c0.155,0.067,0.323,0.105,0.498,0.105h13.65H45.8h13.65H73.1c0.675,0,1.312-0.144,1.889-0.4
	c0.576-0.256,1.092-0.625,1.523-1.075s0.778-0.981,1.017-1.562S77.9,66.35,77.9,65.7c0-0.625-0.125-1.225-0.35-1.777
	c-0.225-0.552-0.55-1.055-0.95-1.486c-0.4-0.431-0.875-0.79-1.4-1.054c-0.525-0.264-1.1-0.433-1.7-0.483l1.4-9.825l1.4-9.825
	l1.4-9.825l1.4-9.825h1.3h1.3H83h1.3c0.175,0,0.344-0.038,0.498-0.105s0.295-0.164,0.414-0.283c0.119-0.118,0.216-0.259,0.283-0.414
	c0.067-0.155,0.105-0.323,0.105-0.498c0-0.15-0.037-0.3-0.105-0.441c-0.067-0.141-0.164-0.272-0.282-0.384
	c-0.119-0.112-0.26-0.206-0.414-0.272S84.475,19.1,84.3,19.1z"/>
<path d="M28.9,71.8c-0.625,0-1.219,0.125-1.758,0.352c-0.539,0.227-1.024,0.554-1.43,0.96s-0.734,0.891-0.961,1.43
	C24.525,75.081,24.4,75.675,24.4,76.3s0.125,1.219,0.351,1.758c0.227,0.539,0.555,1.024,0.961,1.43s0.891,0.734,1.43,0.961
	c0.539,0.226,1.133,0.351,1.758,0.351s1.219-0.125,1.758-0.352s1.024-0.554,1.43-0.96c0.406-0.407,0.734-0.891,0.96-1.43
	c0.227-0.539,0.352-1.133,0.352-1.758l0,0l0,0l0,0l0,0c0.025-0.625-0.088-1.219-0.309-1.758s-0.553-1.024-0.966-1.43
	c-0.413-0.407-0.906-0.734-1.453-0.961C30.125,71.925,29.525,71.8,28.9,71.8z"/>
<path d="M63.8,71.8c-0.625,0-1.219,0.131-1.758,0.367c-0.539,0.236-1.024,0.577-1.43,0.996c-0.406,0.418-0.734,0.915-0.96,1.464
	C59.425,75.175,59.3,75.775,59.3,76.4s0.131,1.219,0.367,1.758c0.236,0.539,0.576,1.024,0.995,1.43s0.916,0.735,1.464,0.961
	S63.275,80.9,63.9,80.9s1.219-0.131,1.758-0.366c0.539-0.234,1.023-0.572,1.429-0.984s0.734-0.9,0.961-1.434
	C68.275,77.581,68.4,77,68.4,76.4c0-0.65-0.125-1.263-0.353-1.816c-0.228-0.553-0.559-1.047-0.972-1.459
	c-0.412-0.412-0.906-0.744-1.459-0.972S64.45,71.8,63.8,71.8c0.025,0,0.037,0,0.042,0c0.005,0,0.002,0-0.004,0
	c-0.007,0-0.016,0-0.024,0S63.8,71.8,63.8,71.8z"/>
</svg>
