<?xml version="1.0" encoding="utf-8"?>
<!-- Generator: Adobe Illustrator 25.2.0, SVG Export Plug-In . SVG Version: 6.00 Build 0)  -->
<svg version="1.1" id="Layer_1" xmlns="http://www.w3.org/2000/svg" xmlns:xlink="http://www.w3.org/1999/xlink" x="0px" y="0px"
	 viewBox="0 0 100 100" style="enable-background:new 0 0 100 100;" xml:space="preserve">
<g id="Layer_2_1_">
	<g id="Layer_2-2">
		<path style="fill:#B3B3B3;" d="M88.7,25.1h-7.1c-0.7,0-1.3,0.5-1.5,1.2l-6.7,34H12.8V36.2c0-0.8-0.7-1.5-1.5-1.5s-1.5,0.7-1.5,1.5
			v25.6c0,0.8,0.7,1.5,1.5,1.5h64.8c1.4,0,2.5,1.1,2.5,2.5c0,1.4-1.1,2.5-2.5,2.5H14.5c-0.8,0-1.5,0.7-1.5,1.5
			c0,0.8,0.7,1.5,1.5,1.5h61.6c3,0.1,5.6-2.3,5.7-5.3c0.1-3-2.3-5.6-5.3-5.7l6.3-32.2h5.8c0.8,0,1.5-0.7,1.5-1.5
			S89.5,25.1,88.7,25.1z"/>
		<path style="fill:#B3B3B3;" d="M26.2,74.4c1.7,0,3.1,1.4,3.1,3.1c0,1.7-1.4,3.1-3.1,3.1s-3.1-1.4-3.1-3.1c0,0,0,0,0,0
			C23.1,75.8,24.5,74.4,26.2,74.4 M26.2,72.4c-2.8,0-5.1,2.3-5.1,5.1s2.3,5.1,5.1,5.1c2.8,0,5.1-2.3,5.1-5.1l0,0
			C31.4,74.7,29.1,72.4,26.2,72.4C26.2,72.4,26.2,72.4,26.2,72.4z"/>
		<path style="fill:#B3B3B3;" d="M65.6,74.4c1.7,0,3.1,1.4,3.1,3.1c0,1.7-1.4,3.1-3.1,3.1c-1.7,0-3.1-1.4-3.1-3.1c0,0,0,0,0,0
			C62.5,75.8,63.9,74.4,65.6,74.4 M65.6,72.4c-2.8,0-5.1,2.3-5.1,5.1s2.3,5.1,5.1,5.1c2.8,0,5.1-2.3,5.1-5.1l0,0
			C70.7,74.7,68.4,72.4,65.6,72.4C65.6,72.4,65.6,72.4,65.6,72.4z"/>
		<path d="M40.8,44.2c2.9,0.1,8.9,1.1,9,1.1c0.1,0,0.2,0,0.2,0c0.1,0,0.1-0.1,0.2-0.2c0.1-0.1,0.1-0.3,0-0.5
			c-2.1-2.5-3.9-7.5-4.2-8.3c0.1-0.7,0.2-1.4,0.2-2.1c1.7,4.1,4,8,6.8,11.5c-0.4,0.4-0.7,0.9-1,1.4c-4.4-1.2-8.9-1.8-13.5-1.8
			l0.4-0.2C39.7,44.9,40.3,44.6,40.8,44.2z"/>
		<path d="M16.4,24.4c1.2-2.1,3-3.8,5.3-4.9c4.4-2.1,10-1.7,14.8,1c7.6,4.2,10.9,12.7,7.4,19.1c-1.2,2.1-3,3.8-5.3,4.8
			c-0.9,0.4-1.9,0.8-2.8,1l0,0c-4.1,0.8-8.4,0.2-12-1.9C16.3,39.3,12.9,30.7,16.4,24.4z M24.3,42.7c4.2,2.4,9.2,2.8,13.7,0.9
			c2.1-1,3.8-2.5,5-4.5l0,0l0,0c1.6-2.9,1.8-6.4,0.5-9.5l0,0c0,0,0-0.1,0-0.2c-1.3-3.2-3.6-5.8-6.5-7.6l0,0
			c-0.2-0.2-0.5-0.3-0.8-0.5c-4.1-2.4-9.2-2.8-13.6-0.9c-1.7,0.8-3.2,2-4.3,3.6l0,0c-0.2,0.3-0.4,0.7-0.6,1c-1.6,3-1.8,6.5-0.4,9.7
			C18.4,38.1,21,40.9,24.3,42.7L24.3,42.7z"/>
		<path d="M15.7,24c1.3-2.3,3.3-4.1,5.6-5.2c5.1-2.2,10.8-1.8,15.6,1c4.4,2.3,7.6,6.3,8.8,11.1v0.1c1.8,5.1,4.4,9.9,7.8,14.2
			c0.3-0.3,0.6-0.5,0.6-0.6l0,0h0.1c0.2-0.1,0.5-0.1,1.5,0.4c2,1,5.8,3.3,8.7,5.1c2.3,1.5,3.8,2.5,4.7,3.2l0,0
			c1.5,1.1,1.5,1.3,1.5,1.5c0.2,1.1-1.8,4.3-2.8,4.7c-0.1,0-0.2,0.1-0.3,0.1c-0.2,0-0.4,0-2.9-1.5c-1.4-0.9-3.2-2.1-5.1-3.3
			c-1.7-1.1-7.2-5-8-6.1c-0.1-0.2-0.2-0.4-0.1-0.6c0,0,0-0.1,0-0.1c-6.1-1.9-14.8-1.7-15.6-1.7c-4.3,0.9-8.7,0.2-12.5-2
			C15.5,39.8,12,30.7,15.7,24z M67.5,58.7c1.1-1,1.9-2.3,2.3-3.8c-0.3-0.3-0.6-0.5-0.9-0.8c-0.5,0.5-1.2,1-1.9,1.2
			c-1,0.5-2.1,0.8-3.2,1.1C65,57.3,66.2,58,67.5,58.7z M59.7,53.8c1.1,0.8,2.2,1.5,3.1,2.1c1.3-0.2,4.2-1,5.4-2.2
			c-1-0.7-2.3-1.6-3.8-2.5c-0.5,0.4-1,0.7-1.5,0.9c-1.3,0.6-2.6,0.9-4,1.2L59.7,53.8z M57.8,52.5c0.7-0.1,4-0.5,5.8-1.8
			c-1.4-0.9-2.8-1.8-4.1-2.5c-0.4,0.3-0.9,0.6-1.4,0.8c-1.2,0.5-2.4,0.9-3.7,1.1C55.4,50.7,56.5,51.5,57.8,52.5z M53.7,49.4
			c1.8-0.3,3.6-0.9,5.2-1.8c-1.4-0.9-2.8-1.6-4.3-2.2c-0.8,0.7-1.5,1.6-2,2.5l0,0c0,0.1-0.1,0.2-0.2,0.3
			C52.8,48.7,53.2,49,53.7,49.4z M45.7,37.8c-0.7,2.2-2,4.1-3.8,5.6c2.2,0.2,5.4,0.6,7,0.9C47.5,42.2,46.5,40,45.7,37.8L45.7,37.8z
			 M23.8,43.5c3.6,2.1,7.9,2.8,12,1.9l0,0c1-0.2,1.9-0.6,2.8-1c2.2-1,4.1-2.7,5.3-4.9c3.5-6.3,0.2-14.9-7.4-19
			c-4.9-2.7-10.4-3-14.8-1c-2.2,1-4.1,2.7-5.3,4.9C12.9,30.7,16.3,39.3,23.8,43.5z"/>
		<path d="M17.5,25c0.2-0.3,0.4-0.7,0.6-1l0,0c1.1-1.6,2.6-2.8,4.3-3.6c4.4-1.9,9.5-1.6,13.7,0.9c0.3,0.1,0.5,0.3,0.8,0.4l0,0
			c2.9,1.8,5.2,4.5,6.5,7.7c0,0,0,0.1,0,0.2l0,0c1.3,3.1,1.1,6.6-0.5,9.5l0,0l0,0c-1.1,2-2.9,3.6-5,4.5c-4.4,1.9-9.5,1.6-13.7-0.9
			C21,41,18.4,38.1,17,34.7C15.7,31.5,15.9,28,17.5,25z M18.2,25.4c-0.3,0.6-0.6,1.2-0.8,1.8l1.1,0.7l1.3-2.4l-1.2-0.7
			C18.5,25,18.3,25.2,18.2,25.4z M22.8,30.5l3,1.8l1.3-2.4L24,28.1L22.8,30.5z M23.3,27.6l-2.8-1.7l-1.3,2.4l2.8,1.7L23.3,27.6z
			 M26.5,32.7l2.7,1.6l1.3-2.4l-2.7-1.6L26.5,32.7z M27.5,29.2l1.5-2.8l-3.1-1.9l-1.5,2.8L27.5,29.2z M28.2,29.6l2.7,1.7l1.5-2.7
			l-2.8-1.7L28.2,29.6z M31.7,31.7l3,1.8l1.5-2.7l-3-1.9L31.7,31.7z M33,27.8l1.7-2.9l-2.8-1.8l-1.6,3L33,27.8z M33.7,28.2l3,1.9
			l1.7-2.9l-3-1.9L33.7,28.2z M37.4,30.5l3.1,1.9l1.7-2.8l-3.1-1.9L37.4,30.5z M37,31.3L35.4,34l3,1.8l1.6-2.7L37,31.3z M35,34.7
			l-1.4,2.4l2.9,1.8l1.4-2.4L35,34.7z M34.3,34.3l-3-1.8l-1.4,2.4l3,1.8L34.3,34.3z M29.5,35.6L28,38.1L31,40l1.5-2.6L29.5,35.6z
			 M28.8,35.1l-2.7-1.6l-1.4,2.6l2.6,1.6L28.8,35.1z M25.4,33.1l-3-1.8L21,33.8l2.9,1.8L25.4,33.1z M21.7,30.8l-2.9-1.7l-1.3,2.5
			l2.8,1.7L21.7,30.8z M21.7,21.8c-1,0.6-1.8,1.4-2.6,2.2l1.1,0.7L21.7,21.8L21.7,21.8z M20.9,25.2l2.8,1.7l1.5-2.9l-2.7-1.6
			L20.9,25.2z M26.9,20.1c-1.3,0.1-2.6,0.4-3.8,0.9l-0.3,0.6l2.7,1.7l1.6-3.1L26.9,20.1z M26.3,23.7l3.2,1.9l1.6-3l-3.2-2L26.3,23.7
			z M28.5,20l3,1.9l0.7-1.3C31,20.2,29.7,20,28.5,20L28.5,20z M35.7,22c-0.8-0.5-1.7-0.9-2.6-1.2l-0.8,1.5l2.8,1.8l1.1-1.9L35.7,22z
			 M36.8,22.7l-1.1,1.9l3,1.9l0.8-1.5C38.8,24.1,37.8,23.4,36.8,22.7z M40.2,25.7l-0.7,1.2l2.6,1.7C41.6,27.5,41,26.6,40.2,25.7
			L40.2,25.7z M42.8,30.2l-1.6,2.7l2.2,1.4C43.4,32.9,43.2,31.5,42.8,30.2L42.8,30.2z M43.3,35.2l-2.5-1.6l-1.6,2.6l3.2,2
			C42.8,37.2,43.1,36.2,43.3,35.2L43.3,35.2z M42,39l-3.2-2l-1.5,2.4l2.9,1.8C40.9,40.5,41.5,39.8,42,39L42,39z M36.4,43.3
			c0.4-0.1,0.9-0.3,1.3-0.5c0.7-0.3,1.3-0.7,1.9-1.1l-2.7-1.6l-1.6,2.6L36.4,43.3z M36.2,39.7l-2.9-1.8l-1.5,2.6l2.9,1.8L36.2,39.7z
			 M35.3,43.7l-0.4-0.3l-0.2,0.3L35.3,43.7z M33.6,43.9l0.6-1l-2.8-1.8l-1.5,2.6C31.1,44,32.3,44,33.6,43.9L33.6,43.9z M29,43.6
			l1.6-2.9l-3-1.9l-2,3.6C26.7,42.9,27.8,43.3,29,43.6L29,43.6z M24.7,42l0.2,0.1l2-3.6l-2.6-1.7l-2,3.6C23,41,23.8,41.5,24.7,42
			L24.7,42z M21.7,39.9l1.9-3.5l-2.9-1.8l-1.4,2.6C20,38.1,20.8,39,21.7,39.9L21.7,39.9z M17.8,34.4c0.3,0.7,0.6,1.4,1,2l1.2-2.2
			l-2.8-1.8C17.4,33.1,17.6,33.7,17.8,34.4z M17.1,30.8l1.1-2.1l-0.9-0.6C17.1,29,17,29.9,17.1,30.8L17.1,30.8z"/>
		<path d="M20.3,44.4c1,1.9,1.8,3.8,2.2,5.9c0.5,2.1,1.5,4,3.1,5.4c2.5,1.8,5.8,1.9,8.3,0.2c2.4-1.8,3.9-4.5,4.1-7.5
			c0.1-3-0.7-6-2.3-8.5c-0.9-1.5-2-3-3.2-4.3c-5.8-1.6-11.9,1.1-14.4,6.5C18.9,42.7,19.7,43.5,20.3,44.4z"/>
		<path d="M38.6,39.6c-1-1.3-2.3-2.3-3.7-3.1c0.6,0.8,1.1,1.6,1.6,2.4c1.8,2.9,2.7,6.2,2.7,9.6c-0.1,3.4-1.8,6.6-4.6,8.6
			C31.6,59.1,27.8,59,25,57c-1.8-1.5-3-3.6-3.5-5.9c-1.1-4.7-2.6-6.9-4.1-7.9c-2.3,6.4,1,13.4,7.3,15.7s13.4-1,15.7-7.3
			C42,47.5,41.3,43,38.6,39.6L38.6,39.6z"/>
		
			<radialGradient id="SVGID_1_" cx="-8945.7158" cy="30476.7832" r="50.26" gradientTransform="matrix(-0.93 0.37 0.15 0.37 -12853.416 -7980.645)" gradientUnits="userSpaceOnUse">
			<stop  offset="0" style="stop-color:#EFF0F0"/>
			<stop  offset="1" style="stop-color:#E2E3E4"/>
		</radialGradient>
		<path style="fill:url(#SVGID_1_);" d="M21.6,51.1c0.4,2.3,1.7,4.4,3.4,5.9c2.8,2.1,6.6,2.1,9.5,0.2c2.8-2,4.5-5.2,4.6-8.6
			c0.1-3.4-0.8-6.7-2.7-9.6c-0.5-0.8-1-1.6-1.6-2.4c-0.4-0.2-0.8-0.2-1.2-0.3c-0.4-0.2-0.9-0.5-1.3-0.7c1.2,1.3,2.3,2.8,3.2,4.3
			c1.6,2.5,2.4,5.5,2.4,8.5c-0.1,3-1.6,5.8-4.1,7.6c-2.5,1.7-5.9,1.6-8.3-0.2c-1.5-1.5-2.6-3.4-3.1-5.4c-0.5-2.1-1.2-4.1-2.2-6
			c-0.6-0.9-1.4-1.7-2.3-2.3c-0.1,0.2,0,0.4-0.1,0.6s-0.3,0.3-0.3,0.4C19,44.1,20.5,46.4,21.6,51.1z"/>
		<path style="fill:#FFFFFF;" d="M21.6,51.1c0.4,2.3,1.7,4.4,3.4,5.9c2.8,2.1,6.6,2.1,9.5,0.2c2.8-2,4.5-5.2,4.6-8.6
			c0.1-3.4-0.8-6.7-2.7-9.6c-0.5-0.8-1-1.6-1.6-2.4c-0.4-0.2-0.7-0.4-1.1-0.5c-0.5-0.2-0.9-0.3-1.4-0.5c1.2,1.3,2.3,2.8,3.2,4.3
			c1.6,2.5,2.4,5.5,2.4,8.5c-0.1,3-1.6,5.8-4.1,7.6c-2.5,1.7-5.9,1.6-8.3-0.2c-1.5-1.5-2.6-3.4-3.1-5.4c-0.5-2.1-1.2-4.1-2.2-6
			c-0.6-0.9-1.4-1.7-2.3-2.3c-0.1,0.2,0,0.4-0.1,0.6s-0.3,0.3-0.3,0.4C19,44.1,20.5,46.4,21.6,51.1z"/>
		
			<radialGradient id="SVGID_2_" cx="-8951.7363" cy="30474.4844" r="50.26" gradientTransform="matrix(-0.93 0.37 0.15 0.37 -12853.416 -7980.645)" gradientUnits="userSpaceOnUse">
			<stop  offset="0" style="stop-color:#D7D8DA"/>
			<stop  offset="1" style="stop-color:#B2B4B7"/>
		</radialGradient>
		<path style="fill:url(#SVGID_2_);" d="M39,48.5c-0.1,3.1-1.5,6.1-3.8,8.2c2.4-2,3.9-5,4-8.1c0.1-3.4-0.8-6.7-2.7-9.6
			c-0.5-0.8-1.1-1.6-1.7-2.4l-0.2-0.1c0.5,0.7,1,1.4,1.5,2.2C38,41.6,39,45,39,48.5z"/>
		
			<radialGradient id="SVGID_3_" cx="-8951.7363" cy="30474.4844" r="50.26" gradientTransform="matrix(-0.93 0.37 0.15 0.37 -12853.416 -7980.645)" gradientUnits="userSpaceOnUse">
			<stop  offset="0" style="stop-color:#D7D8DA"/>
			<stop  offset="1" style="stop-color:#B2B4B7"/>
		</radialGradient>
		<path style="fill:url(#SVGID_3_);" d="M39,48.5c-0.1,3.1-1.5,6.1-3.8,8.2c2.4-2,3.9-5,4-8.1c0.1-3.4-0.8-6.7-2.7-9.6
			c-0.5-0.8-1.1-1.6-1.7-2.4l-0.2-0.1c0.5,0.7,1,1.4,1.5,2.2C38,41.6,39,45,39,48.5z"/>
	</g>
</g>
</svg>
