<?xml version="1.0" encoding="utf-8"?>
<!-- Generator: Adobe Illustrator 25.2.0, SVG Export Plug-In . SVG Version: 6.00 Build 0)  -->
<svg version="1.1" id="Layer_1" xmlns="http://www.w3.org/2000/svg" xmlns:xlink="http://www.w3.org/1999/xlink" x="0px" y="0px"
	 viewBox="0 0 100 100" style="enable-background:new 0 0 100 100;" xml:space="preserve">
<g id="Layer_2_1_">
	<g id="Layer_2-2">
		<path style="fill:#B3B3B3;" d="M88.7,23.9h-7.1c-0.7,0-1.3,0.5-1.5,1.2l-6.7,34H12.8V35c0-0.8-0.7-1.5-1.5-1.5S9.8,34.1,9.8,35
			v25.6c0,0.8,0.7,1.5,1.5,1.5h64.8c1.4,0,2.5,1.1,2.5,2.5c0,1.4-1.1,2.5-2.5,2.5H14.5c-0.8,0-1.5,0.7-1.5,1.5
			c0,0.8,0.7,1.5,1.5,1.5h61.6c3,0.1,5.6-2.3,5.7-5.3s-2.3-5.6-5.3-5.7l6.3-32.2h5.8c0.8,0,1.5-0.7,1.5-1.5
			C90.2,24.6,89.5,23.9,88.7,23.9z"/>
		<path style="fill:#B3B3B3;" d="M26.2,73.2c1.7,0,3.1,1.4,3.1,3.1s-1.4,3.1-3.1,3.1c-1.7,0-3.1-1.4-3.1-3.1c0,0,0,0,0,0
			C23.1,74.6,24.5,73.2,26.2,73.2 M26.2,71.2c-2.8,0-5.1,2.3-5.1,5.1s2.3,5.1,5.1,5.1c2.8,0,5.1-2.3,5.1-5.1c0,0,0,0,0,0
			C31.4,73.5,29.1,71.2,26.2,71.2C26.2,71.2,26.2,71.2,26.2,71.2z"/>
		<path style="fill:#B3B3B3;" d="M65.6,73.2c1.7,0,3.1,1.4,3.1,3.1c0,1.7-1.4,3.1-3.1,3.1c-1.7,0-3.1-1.4-3.1-3.1c0,0,0,0,0,0
			C62.5,74.6,63.9,73.2,65.6,73.2 M65.6,71.2c-2.8,0-5.1,2.3-5.1,5.1s2.3,5.1,5.1,5.1c2.8,0,5.1-2.3,5.1-5.1c0,0,0,0,0,0
			C70.7,73.5,68.4,71.2,65.6,71.2C65.6,71.2,65.6,71.2,65.6,71.2z"/>
		<path d="M33.5,33c0.2-0.1,0.5-0.1,0.7,0C38,35.1,71,54.3,71.9,54.8c1,0.5-1.8,4.3-2.6,4.3S36.1,38.6,32,35.8
			c-0.3-0.2-0.4-0.6-0.3-0.9C32.2,34.2,32.8,33.5,33.5,33z"/>
		<path d="M16.4,36.5c0.9-1.1,1.8-2.4,2.5-3.7c0.1-0.9,0.3-1.9,0.5-2.8c0.3-1,5.5-6.7,6.7-7.8c1.2-1.1,5.9-3.8,7.3-3.6
			c1.4,0.2,1,1,0,1.6s-5.2,2.7-4.8,5.3c2.1,3,3.9,4,4.4,4.7s-0.7,2-1.3,2.7s-2.1,2.6-2.5,2.5s-1.8-1.4-3-1c-1.2,0.4-4.2,4.6-4.6,5.3
			c-0.4,0.7-2.1-0.1-2.9-0.6C17.9,38.5,15.7,37.3,16.4,36.5z"/>
		<path d="M19.5,42.8c-0.2,0-0.3,0-0.4-0.1c-1.6-0.9-3.1-2-4.6-3.1c-0.4-0.4-0.4-1,0-1.4c0,0,0,0,0,0c0.4-0.4,1-0.4,1.4,0
			c1.3,1,2.7,1.9,4.1,2.7c0.5,0.2,0.7,0.8,0.4,1.3c0,0,0,0,0,0C20.2,42.6,19.9,42.8,19.5,42.8z"/>
	</g>
</g>
</svg>
