<?xml version="1.0" encoding="utf-8"?>
<!-- Generator: Adobe Illustrator 25.2.0, SVG Export Plug-In . SVG Version: 6.00 Build 0)  -->
<svg version="1.1" id="Layer_1" xmlns="http://www.w3.org/2000/svg" xmlns:xlink="http://www.w3.org/1999/xlink" x="0px" y="0px"
	 viewBox="0 0 100 100" style="enable-background:new 0 0 100 100;" xml:space="preserve">
<g id="Layer_2_1_">
	<g id="Layer_2-2">
		<path d="M17.8,25.7h0.6c1.9,0,3.5,1.6,3.5,3.5c0,0,0,0,0,0V55h56.9V40.9c0-1.9,1.6-3.5,3.5-3.5c0,0,0,0,0.1,0l0,0
			c1.9,0,3.5,1.6,3.5,3.5v33.3h-7.3V63.7H21.8v10.6h-7.5V29.2C14.3,27.3,15.8,25.7,17.8,25.7z"/>
		<path d="M44.1,35.5v16.5h31V39.7c0-2.4-1.9-4.3-4.3-4.3l0,0L44.1,35.5z"/>
		<circle cx="30.5" cy="37.7" r="5"/>
		<path d="M39.7,52.5H26.8c-1.4,0-2.5-1.1-2.5-2.5s1.1-2.5,2.5-2.5h10.3v-9.8c0-1.4,1.1-2.5,2.5-2.5c1.4,0,2.5,1.1,2.5,2.5V50
			C42.2,51.4,41.1,52.5,39.7,52.5z"/>
	</g>
</g>
</svg>
