<?xml version="1.0" encoding="utf-8"?>
<!-- Generator: Adobe Illustrator 25.2.0, SVG Export Plug-In . SVG Version: 6.00 Build 0)  -->
<svg version="1.1" id="Layer_1" xmlns="http://www.w3.org/2000/svg" xmlns:xlink="http://www.w3.org/1999/xlink" x="0px" y="0px"
	 viewBox="0 0 100 100" style="enable-background:new 0 0 100 100;" xml:space="preserve">
<g id="Layer_2_1_">
	<g id="Layer_2-2">
		<path style="fill:#B3B3B3;" d="M88.7,23.9h-7.1c-0.7,0-1.3,0.5-1.5,1.2l-6.7,34H12.8V34.9c0-0.8-0.7-1.5-1.5-1.5s-1.5,0.7-1.5,1.5
			v25.6c0,0.8,0.7,1.5,1.5,1.5h64.8c1.4,0,2.5,1.1,2.5,2.5c0,1.4-1.1,2.5-2.5,2.5H14.5c-0.8,0-1.5,0.7-1.5,1.5
			c0,0.8,0.7,1.5,1.5,1.5h61.6c3,0.1,5.6-2.3,5.7-5.3s-2.3-5.6-5.3-5.7l6.3-32.2h5.8c0.8,0,1.5-0.7,1.5-1.5S89.5,23.9,88.7,23.9z"/>
		<path style="fill:#B3B3B3;" d="M26.2,73.2c1.7,0,3.1,1.4,3.1,3.1s-1.4,3.1-3.1,3.1c-1.7,0-3.1-1.4-3.1-3.1c0,0,0,0,0,0
			C23.1,74.5,24.5,73.2,26.2,73.2 M26.2,71.2c-2.8,0-5.1,2.3-5.1,5.1s2.3,5.1,5.1,5.1c2.8,0,5.1-2.3,5.1-5.1c0,0,0,0,0,0
			C31.4,73.4,29.1,71.2,26.2,71.2C26.2,71.2,26.2,71.2,26.2,71.2z"/>
		<path style="fill:#B3B3B3;" d="M65.6,73.2c1.7,0,3.1,1.4,3.1,3.1c0,1.7-1.4,3.1-3.1,3.1c-1.7,0-3.1-1.4-3.1-3.1c0,0,0,0,0,0
			C62.5,74.5,63.9,73.2,65.6,73.2 M65.6,71.2c-2.8,0-5.1,2.3-5.1,5.1s2.3,5.1,5.1,5.1c2.8,0,5.1-2.3,5.1-5.1c0,0,0,0,0,0
			C70.7,73.4,68.4,71.2,65.6,71.2C65.6,71.2,65.6,71.2,65.6,71.2z"/>
		<path d="M65.5,57.8H23.1c-3.7,0-5.9-2.2-5.9-6c0-2,1.6-3.8,5.4-5.8c3.6-1.9,17.5-7.9,20.6-9.2v-5.9h1c2.8,0,5.1-2.3,5.1-5.1
			c0-2.8-2.3-5.1-5.1-5.1c-2.8,0-5.1,2.3-5.1,5.1h-2c0-3.9,3.2-7.1,7.1-7.1c3.9,0,7.1,3.2,7.1,7.1c0,3.6-2.6,6.6-6.1,7.1v4
			c3.1,1.4,17.1,7.4,20.6,9.2c3.8,2,5.4,3.7,5.4,5.7C71.3,55.6,69.2,57.8,65.5,57.8z M44.5,55.8h21c2.6,0,3.9-1.3,3.9-4
			c0-0.4,0-1.7-4.3-4c-3.5-1.8-18.2-8.1-20.7-9.2c-2.6,1.1-17.2,7.4-20.7,9.3c-4.3,2.3-4.3,3.5-4.3,4c0,2.7,1.3,4,3.9,4L44.5,55.8z"
			/>
	</g>
</g>
</svg>
