<?xml version="1.0" encoding="utf-8"?>
<!-- Generator: Adobe Illustrator 25.2.0, SVG Export Plug-In . SVG Version: 6.00 Build 0)  -->
<svg version="1.1" id="Layer_1" xmlns="http://www.w3.org/2000/svg" xmlns:xlink="http://www.w3.org/1999/xlink" x="0px" y="0px"
	 viewBox="0 0 100 100" style="enable-background:new 0 0 100 100;" xml:space="preserve">
<g id="Layer_2_1_">
	<g id="Layer_2-2">
		<polygon style="fill:#A2A4A4;" points="38,40.4 40.2,40.4 39.1,37.2 		"/>
		<path style="fill:#A2A4A4;" d="M11,20v40.6h60.1V20H11z M46,25.7h6.8v6.8H46V25.7z M44.9,35h2.2v7h4v1.7h-6.2V35z M37.7,25.7h6.8
			v6.8h-6.8V25.7z M29.4,25.7h6.8v6.8h-6.8V25.7z M19.6,32.5h-6.8v-6.8h6.8L19.6,32.5z M21.1,25.7h6.8v6.8h-6.8L21.1,25.7z
			 M26.3,37.9v5.8h-2.1V35h2.6l2,4.4l2-4.4h2.6v8.7h-2.3v-5.9l-1.6,3.8H28L26.3,37.9z M33.6,59h-5.5V46.7h5.4L33.6,59z M40.4,59H35
			V46.7h5.5V59z M40.7,42h-3.2l-0.6,1.8h-2.3l3.2-8.7h2.6l3.2,8.7h-2.3L40.7,42z M47.2,59h-5.4V46.7h5.4V59z M54,59h-5.5V46.7H54V59
			z M58.9,43.7h-6.3V35h2.2v7h4L58.9,43.7z M61,32.5h-6.8v-6.8H61V32.5z M69.3,32.5h-6.8v-6.8h6.8L69.3,32.5z"/>
		<path d="M88.2,46.7h-3.4c-0.3,0-0.6,0.2-0.7,0.6l-3.1,22H52V52.8h29.1c0.4,0,0.8-0.3,0.8-0.8s-0.3-0.8-0.8-0.8H51.5h-0.1h-0.1
			c-0.4,0-0.7,0.3-0.7,0.7l0,0v18c0,0.4,0.3,0.7,0.7,0.7c0,0,0,0,0,0h30.9c0.7,0,1.2,0.5,1.2,1.2s-0.5,1.2-1.2,1.2H52.9
			c-0.4,0-0.8,0.2-0.8,0.6c0,0.4,0.2,0.8,0.6,0.8c0.1,0,0.1,0,0.2,0h29.4c1.4,0,2.6-1.2,2.6-2.6c0-1.3-1-2.5-2.4-2.6l3-21.1h2.8
			c0.4,0,0.7-0.4,0.6-0.8C88.8,47.1,88.6,46.8,88.2,46.7L88.2,46.7z"/>
		<path d="M58.5,75c-1.4,0-2.5,1.1-2.5,2.4s1.1,2.5,2.4,2.5c1.4,0,2.5-1.1,2.5-2.4c0,0,0,0,0,0C60.9,76.1,59.8,75,58.5,75z"/>
		<path d="M77.2,75c-1.4,0-2.5,1.1-2.5,2.4s1.1,2.5,2.4,2.5s2.5-1.1,2.5-2.4c0,0,0,0,0,0C79.7,76.1,78.6,75,77.2,75z"/>
	</g>
</g>
</svg>
