<?xml version="1.0" encoding="utf-8"?>
<!-- Generator: Adobe Illustrator 25.2.0, SVG Export Plug-In . SVG Version: 6.00 Build 0)  -->
<svg version="1.1" id="Layer_1" xmlns="http://www.w3.org/2000/svg" xmlns:xlink="http://www.w3.org/1999/xlink" x="0px" y="0px"
	 viewBox="0 0 100 100" style="enable-background:new 0 0 100 100;" xml:space="preserve">
<polygon style="fill:#999999;" points="81.7,20.6 81.7,56.9 76,56.9 76,20.6 70.1,20.6 70.1,63.7 61.9,63.7 61.9,58.7 44.3,64.8 
	44.3,58.7 26,64.5 26,58.7 11.8,64.5 11.8,68.6 11.8,79.9 70.1,79.9 73,79.9 76,79.9 81.7,79.9 83.7,79.9 88.2,79.9 88.2,68.6 
	88.2,20.6 "/>
<path d="M30.2,64.4l3.7,6c0,0,3.1,5.1-2.5,5.7s-6.5-2.7-6.1-4.6C25.7,69.6,30.2,64.4,30.2,64.4z"/>
<path style="fill:#FFFFFF;" d="M30.1,76.7c-2.3,0-3.6-0.8-4.3-1.5c-1.3-1.4-1.1-3.2-1-3.8c0.4-2,4.6-6.8,5-7.4l0.4-0.5l4.1,6.6
	c0.1,0.1,1.5,2.6,0.6,4.6c-0.5,1.1-1.7,1.7-3.5,1.9C31,76.7,30.5,76.7,30.1,76.7z M30.1,65.2c-1.4,1.7-4.1,5.1-4.4,6.4
	c-0.2,0.8,0,2,0.8,2.9c0.9,1,2.6,1.4,4.8,1.1c1.4-0.2,2.3-0.6,2.7-1.4c0.7-1.4-0.5-3.6-0.6-3.6L30.1,65.2z"/>
<path d="M47.5,77.9c0,0-1.9,1.2-4.8,1.3c-2.9,0.1-5.9-2.8-5.9-2.8s-1.4,2.9-6.2,2.8s-6.2-3.4-6.2-3.4s-2.5,3.7-5.4,3.4
	c-2.9-0.3-5.3-1.2-5.3-1.2s-0.1,4.5,4.2,4.3s6.4-3.2,6.4-3.2s2.7,3.4,6.3,3.2s6.2-3.2,6.2-3.2s2.4,3.4,5.6,3.2s5-1.9,5-1.9V77.9z"/>
<path d="M63.3,26.7v-6.5h-5.5v3H56l-11.5-5.5L12.2,33.1l2.7,2.6l5.5-3.3l0.9,0.3v11.3h36.5c0,0,0.4,11.6-0.5,12.3
	c-0.9,0.8-3.7,3-6.8-3c-3.1-6-9.9-5.8-16.6-5.6c-6.8,0.2-8.9,6.2-8.9,6.2s-0.1,6.5-0.1,7.3c0,0.7-1.4,1.9-1.4,1.9h12.7
	C36,63,35,61.6,35,61.6s-1.4-8.5,2.3-9.2c3.7-0.7,4,1.7,4,1.7l0.9,2.8c0,0,2.3,4.8,13.2,4.9c10.9,0.1,11.4-6.6,11.4-6.6v-23l7.1,3.7
	l3-2.6L63.3,26.7z"/>
<path style="fill:#FFFFFF;" d="M36.3,63.6H23.6c-0.2,0-0.4-0.1-0.5-0.3s0-0.4,0.2-0.6c0.6-0.5,1.3-1.2,1.3-1.5
	c0-0.7,0.1-7.3,0.1-7.3c0-0.1,0-0.1,0-0.2c0-0.1,2.3-6.3,9.3-6.5c6.8-0.2,13.8-0.5,17.1,5.8c1.1,2.2,2.4,3.5,3.6,3.8
	c0.8,0.1,1.6-0.2,2.4-0.9c0.4-0.6,0.5-6.2,0.3-11.5h-36c-0.3,0-0.5-0.2-0.5-0.5V33l-0.4-0.1l-5.3,3.2c-0.2,0.1-0.4,0.1-0.6-0.1
	l-2.7-2.6c-0.1-0.1-0.2-0.3-0.1-0.4c0-0.2,0.1-0.3,0.3-0.4l32.2-15.4c0.1-0.1,0.3-0.1,0.4,0l11.4,5.5h1.2v-2.5
	c0-0.3,0.2-0.5,0.5-0.5h5.5c0.3,0,0.5,0.2,0.5,0.5v6.2L77,32.7c0.2,0.1,0.3,0.2,0.3,0.4s0,0.3-0.2,0.4l-3,2.6
	c-0.2,0.1-0.4,0.2-0.6,0.1l-6.4-3.3v22.2c0,0.1-0.7,7.2-11.9,7.1c-11.1-0.1-13.5-4.9-13.6-5.1l-0.9-2.8c0-0.1-0.1-0.7-0.7-1
	c-0.6-0.4-1.5-0.5-2.7-0.3c-2.6,0.5-2.2,6.2-1.9,8.5c0.4,0.5,0.9,1.1,1,1.2c0.2,0.1,0.4,0.3,0.3,0.5C36.8,63.4,36.5,63.6,36.3,63.6z
	 M24.9,62.6H35c-0.1-0.2-0.3-0.4-0.5-0.6c0-0.1-0.1-0.1-0.1-0.2c-0.1-0.4-1.4-9,2.7-9.8c1.5-0.3,2.7-0.1,3.5,0.5
	c0.9,0.7,1,1.6,1,1.6l0.9,2.7l0,0c0,0,2.3,4.4,12.7,4.5c10.3,0.1,10.9-5.9,10.9-6.2l0-23c0-0.2,0.1-0.3,0.2-0.4
	c0.1-0.1,0.3-0.1,0.5,0l6.8,3.5l2.1-1.9l-12.8-6.1c-0.2-0.1-0.3-0.3-0.3-0.5v-6h-4.5v2.5c0,0.3-0.2,0.5-0.5,0.5H56
	c-0.1,0-0.1,0-0.2,0l-11.3-5.4l-31.4,15l1.9,1.9l5.1-3.1c0.1-0.1,0.3-0.1,0.4-0.1l0.9,0.3c0.2,0.1,0.4,0.3,0.4,0.5v10.8h36
	c0.3,0,0.5,0.2,0.5,0.5c0.2,4.4,0.3,11.9-0.6,12.7c-1,0.9-2.1,1.3-3.3,1.1c-1.6-0.3-3-1.7-4.3-4.3c-2.9-5.8-9.7-5.5-16.1-5.3
	c-6,0.2-8.1,5.1-8.4,5.8c0,0.8-0.1,6.5-0.1,7.2C25.6,61.6,25.2,62.1,24.9,62.6z"/>
</svg>
