<?xml version="1.0" encoding="utf-8"?>
<!-- Generator: Adobe Illustrator 25.2.0, SVG Export Plug-In . SVG Version: 6.00 Build 0)  -->
<svg version="1.1" id="Layer_1" xmlns="http://www.w3.org/2000/svg" xmlns:xlink="http://www.w3.org/1999/xlink" x="0px" y="0px"
	 viewBox="0 0 100 100" style="enable-background:new 0 0 100 100;" xml:space="preserve">
<path d="M69.6,48.9c-12.2-2.8-11.3-1.2-11.9-6.3h2.3v-3.9h-1.5l-4.6-4.1h0.3v-9c0.6-0.6,1-1.3,1.3-2.1c2.4,0.1,10.3,0.9,12,1.1
	c0.1,0,0.2,0,0.3,0c1.2,0,2.2-1,2.2-2.2c0-1.2-1-2.2-2.2-2.2c-0.2,0-0.4,0-0.6,0.1c-3,0.4-9.7,0.7-11.7,0.8
	c-0.5-2.1-2.3-3.6-4.5-3.6c-2.3,0-4.2,1.6-4.6,3.8c-2.8-0.2-9.8-0.9-11.5-1.1c-0.1,0-0.2,0-0.4,0c-1.2,0-2.2,1-2.2,2.2
	c0,1.2,1,2.2,2.2,2.2c0.2,0,0.4,0,0.6-0.1c2.9-0.4,9.2-0.7,11.5-0.8c0.3,0.8,0.8,1.6,1.5,2.1v8.7l-4.6,4.1h-1.7v3.9h1.9
	c0.4,0.4,0.6,1.1-0.1,2.3c-1.4,2.4-5.2,3.8-5.2,3.8H23.7c0,0-0.8-2-2.2-2c-1.4,0-2.8,2.7-2.8,2.7v7.9c0,0,1.3,2.5,2.7,2.6
	c1.4,0.1,2.7-1.9,2.7-1.9l14-0.1c0,0,3.7,2,13,2.1s10.6-3,13.4-2.9c2.8,0.1,5.3,3.3,5.2,10.5h11.6C81.3,67.7,81.7,51.8,69.6,48.9z"
	/>
<path d="M75.5,70.9l2.7,5.8c0,0,2.3,4.9-1.8,5.5c-4.1,0.6-4.8-2.6-4.5-4.4C72.2,76,75.5,70.9,75.5,70.9z"/>
</svg>
