<?xml version="1.0" encoding="utf-8"?>
<!-- Generator: Adobe Illustrator 25.2.0, SVG Export Plug-In . SVG Version: 6.00 Build 0)  -->
<svg version="1.1" id="Layer_1" xmlns="http://www.w3.org/2000/svg" xmlns:xlink="http://www.w3.org/1999/xlink" x="0px" y="0px"
	 viewBox="0 0 100 100" style="enable-background:new 0 0 100 100;" xml:space="preserve">
<polygon style="fill:#999999;" points="81.3,20.3 81.3,56.6 75.6,56.6 75.6,20.3 69.9,20.3 69.9,63.4 61.7,63.4 61.7,58.4 
	44.4,64.5 44.4,58.4 26.3,64.2 26.3,58.4 12.3,64.2 12.3,68.4 12.3,79.7 69.9,79.7 72.7,79.7 75.6,79.7 81.3,79.7 83.3,79.7 
	87.7,79.7 87.7,68.4 87.7,20.3 "/>
<path style="fill:#808080;" d="M60.5,38.7c0,0-2.5,2-6.8,1.8S47,37.4,47,37.4s-2.8,3.4-7,3.1c-4.1-0.3-7.7-3.1-7.7-3.1s-2.4,3-7,3.1
	c-4.6,0.1-6.6-1.9-6.6-1.9l6.8,34.9h28.8L60.5,38.7z"/>
<path d="M57.6,34.5c0,0-1.6,0.9-4.8,1s-6.4-2.8-6.4-2.8s-1.5,2.9-6.8,2.8s-6.7-3.4-6.7-3.4s-2.7,3.3-5.9,3.4
	c-3.9,0.1-5.6-1.4-5.6-1.4s-0.3,4.8,4.4,4.5c4.7-0.3,6.9-3.2,6.9-3.2s2.9,3.4,6.9,3.2c3.9-0.2,6.8-3.2,6.8-3.2s2.6,3.4,6.1,3.2
	c3.5-0.1,5.1-1.6,5.1-1.6V34.5z"/>
<polygon points="66.7,24.9 61.9,24.9 53,72.1 27.3,72.1 17.4,24.9 12.3,24.9 22.6,76.2 56.7,76.2 "/>
</svg>
