<?xml version="1.0" encoding="utf-8"?>
<!-- Generator: Adobe Illustrator 25.2.0, SVG Export Plug-In . SVG Version: 6.00 Build 0)  -->
<svg version="1.1" id="Layer_1" xmlns="http://www.w3.org/2000/svg" xmlns:xlink="http://www.w3.org/1999/xlink" x="0px" y="0px"
	 viewBox="0 0 100 100" style="enable-background:new 0 0 100 100;" xml:space="preserve">
<polygon style="fill:#999999;" points="81.7,20.3 81.7,56.6 76,56.6 76,20.3 70.1,20.3 70.1,63.4 61.9,63.4 61.9,58.4 44.3,64.5 
	44.3,58.4 26,64.2 26,58.4 11.8,64.2 11.8,68.4 11.8,79.7 70.1,79.7 73,79.7 76,79.7 81.7,79.7 83.7,79.7 88.2,79.7 88.2,68.4 
	88.2,20.3 "/>
<path d="M60.1,27.6h-5.7v-1.8c0-3-2.2-5.5-5-5.5H33.8c-2.8,0-5,2.5-5,5.5v1.8h-6.7c-1.8,0-3.3,1.6-3.3,3.6v4.2c0,2,1.5,3.6,3.3,3.6
	h0.5v30.7c0,3.4,2.5,6.1,5.5,6.1H55c3.1,0,5.5-2.7,5.5-6.1V39c1.6-0.2,2.9-1.7,2.9-3.6v-4.2C63.4,29.3,61.9,27.6,60.1,27.6z
	 M31.3,25.8c0-1.5,1.1-2.7,2.4-2.7h15.6c1.3,0,2.4,1.2,2.4,2.7v1.7H31.3V25.8z M57.9,69.8c0,1.8-1.3,3.3-3,3.3H28.2
	c-1.6,0-3-1.5-3-3.3V39.1h32.7V69.8z M60.8,35.4c0,0.5-0.3,0.8-0.7,0.8h-38c-0.4,0-0.7-0.4-0.7-0.8v-4.2c0-0.5,0.3-0.8,0.7-0.8h38
	c0.4,0,0.7,0.4,0.7,0.8V35.4z"/>
<path d="M42.8,44.8c0.2,0,0.4,0.2,0.4,0.4V68c0,0.2-0.2,0.4-0.4,0.4H40c-0.2,0-0.4-0.2-0.4-0.4V45.2c0-0.2,0.2-0.4,0.4-0.4H42.8
	 M42.8,43.8H40c-0.7,0-1.3,0.7-1.3,1.5V68c0,0.8,0.6,1.5,1.3,1.5h2.9c0.7,0,1.3-0.7,1.3-1.5V45.2C44.2,44.4,43.6,43.8,42.8,43.8
	L42.8,43.8z"/>
<path d="M52.3,44.8c0.2,0,0.4,0.2,0.4,0.4V68c0,0.2-0.2,0.4-0.4,0.4h-2.9c-0.2,0-0.4-0.2-0.4-0.4V45.2c0-0.2,0.2-0.4,0.4-0.4H52.3
	 M52.3,43.8h-2.9c-0.7,0-1.3,0.7-1.3,1.5V68c0,0.8,0.6,1.5,1.3,1.5h2.9c0.7,0,1.3-0.7,1.3-1.5V45.2C53.6,44.4,53,43.8,52.3,43.8
	L52.3,43.8z"/>
<path d="M33.3,44.8c0.2,0,0.4,0.2,0.4,0.4V68c0,0.2-0.2,0.4-0.4,0.4h-2.9c-0.2,0-0.4-0.2-0.4-0.4V45.2c0-0.2,0.2-0.4,0.4-0.4H33.3
	 M33.3,43.8h-2.9c-0.7,0-1.3,0.7-1.3,1.5V68c0,0.8,0.6,1.5,1.3,1.5h2.9c0.7,0,1.3-0.7,1.3-1.5V45.2C34.7,44.4,34.1,43.8,33.3,43.8
	L33.3,43.8z"/>
</svg>
