<?xml version="1.0" encoding="iso-8859-1"?>
<!-- Generator: Adobe Illustrator 25.4.1, SVG Export Plug-In . SVG Version: 6.00 Build 0)  -->
<svg version="1.1" id="Layer_1" xmlns="http://www.w3.org/2000/svg" xmlns:xlink="http://www.w3.org/1999/xlink" x="0px" y="0px"
	 viewBox="0 0 100 100" style="enable-background:new 0 0 100 100;" xml:space="preserve">
<path d="M13.7,58.1v-7.725V42.65v-7.725V27.2h1.95h1.95h1.95h1.95l1.175,5.275l1.175,5.275l1.175,5.275L26.2,48.3l1.15-5.275
	l1.15-5.275l1.15-5.275L30.8,27.2h1.95h1.95h1.95h1.95v7.725v7.725v7.725V58.1h-1.2h-1.2H35h-1.2V52v-6.1v-6.1v-6.1l-1.275,6.075
	L31.25,45.85l-1.275,6.075L28.7,58h-1.25H26.2h-1.25H23.7l-1.275-6.075L21.15,45.85l-1.275-6.075L18.6,33.7v6.075v6.075v6.075V58
	h-1.225H16.15h-1.225H13.7v0.025v0.025v0.025V58.1z"/>
<path d="M43.7,58.1v-7.725V42.65v-7.725V27.2h4.775h4.775h4.775H62.8v1.3v1.3v1.3v1.3h-3.475H55.85h-3.475H48.9v1.7v1.7v1.7v1.7
	h3.225h3.225h3.225H61.8v1.3v1.3v1.3v1.3h-3.225H55.35h-3.225H48.9v2.1v2.1v2.1v2.1h3.6h3.6h3.6h3.6v1.3v1.3v1.3V58h-4.9h-4.9h-4.9
	h-4.9v0.025v0.025c0,0,0,0.013,0,0.025C43.7,58.087,43.7,58.1,43.7,58.1z"/>
<path d="M67.7,27.2h2.375h2.375h2.375H77.2c0.525,0,1.025,0.013,1.497,0.038c0.472,0.025,0.916,0.062,1.328,0.112
	s0.794,0.113,1.141,0.188c0.347,0.075,0.659,0.163,0.934,0.263c0.375,0.125,0.738,0.281,1.088,0.466
	c0.35,0.184,0.687,0.397,1.012,0.634s0.638,0.5,0.938,0.784c0.3,0.284,0.588,0.591,0.863,0.916c0.275,0.35,0.531,0.713,0.77,1.091
	c0.239,0.378,0.461,0.772,0.668,1.184c0.206,0.412,0.396,0.844,0.573,1.297C88.188,34.625,88.35,35.1,88.5,35.6
	s0.275,1.025,0.378,1.576c0.103,0.551,0.184,1.13,0.247,1.736s0.106,1.241,0.134,1.905c0.028,0.664,0.041,1.358,0.041,2.083
	c0,0.625-0.019,1.231-0.055,1.819c-0.036,0.588-0.089,1.156-0.158,1.706c-0.069,0.55-0.154,1.081-0.252,1.594
	s-0.211,1.006-0.336,1.481c-0.15,0.55-0.325,1.081-0.522,1.591c-0.197,0.509-0.416,0.997-0.653,1.459
	c-0.237,0.462-0.493,0.9-0.765,1.309S86,54.65,85.7,55c-0.225,0.275-0.469,0.531-0.733,0.77s-0.549,0.461-0.855,0.668
	c-0.306,0.206-0.634,0.396-0.985,0.573C82.775,57.188,82.4,57.35,82,57.5c-0.275,0.1-0.581,0.194-0.916,0.278
	C80.75,57.862,80.387,57.938,80,58s-0.8,0.112-1.234,0.147C78.331,58.181,77.875,58.2,77.4,58.2h-2.45H72.5h-2.45H67.6v-7.75V42.7
	v-7.75V27.2h0.025h0.025h0.025H67.7z M72.9,32.4v5.125v5.125v5.125V52.9h0.975h0.975h0.975H76.8c0.375,0,0.719-0.006,1.033-0.019
	c0.314-0.013,0.598-0.031,0.854-0.056c0.257-0.025,0.485-0.056,0.686-0.094c0.202-0.038,0.377-0.081,0.527-0.131
	c0.2-0.075,0.394-0.156,0.581-0.245s0.369-0.186,0.544-0.292c0.175-0.107,0.344-0.222,0.506-0.349S81.85,51.45,82,51.3
	s0.288-0.325,0.416-0.525c0.128-0.2,0.247-0.425,0.359-0.675s0.219-0.525,0.322-0.825C83.2,48.975,83.3,48.65,83.4,48.3
	s0.181-0.731,0.247-1.144c0.066-0.413,0.116-0.856,0.153-1.331c0.037-0.475,0.062-0.981,0.078-1.519
	C83.894,43.769,83.9,43.2,83.9,42.6s-0.013-1.162-0.036-1.689c-0.023-0.527-0.058-1.017-0.101-1.474
	c-0.044-0.456-0.097-0.878-0.158-1.267c-0.061-0.389-0.13-0.745-0.205-1.07s-0.162-0.631-0.262-0.919
	c-0.1-0.287-0.213-0.556-0.338-0.806s-0.262-0.481-0.412-0.694c-0.15-0.213-0.313-0.406-0.488-0.581
	c-0.15-0.175-0.312-0.338-0.488-0.487c-0.175-0.15-0.362-0.288-0.562-0.413s-0.412-0.237-0.637-0.337
	c-0.225-0.1-0.463-0.188-0.713-0.263c-0.175-0.05-0.4-0.094-0.672-0.131s-0.591-0.069-0.953-0.094s-0.769-0.044-1.216-0.056
	C76.213,32.306,75.725,32.3,75.2,32.3h-0.575H74.05h-0.575H72.9v0.025v0.025v0.025V32.4z"/>
<path d="M18.4,67.8v-0.55V66.7v-0.55V65.6h1.7h1.7h1.7h1.7v1.3v1.3v1.3v1.3c-0.175,0.125-0.363,0.25-0.566,0.373
	c-0.203,0.124-0.422,0.246-0.659,0.365c-0.237,0.118-0.494,0.234-0.772,0.345C22.925,71.994,22.625,72.1,22.3,72.2
	c-0.3,0.1-0.606,0.188-0.917,0.262c-0.311,0.075-0.627,0.137-0.946,0.188c-0.318,0.05-0.64,0.088-0.964,0.113
	C19.15,72.788,18.825,72.8,18.5,72.8c-0.4,0-0.787-0.019-1.162-0.056S16.6,72.65,16.25,72.575s-0.688-0.169-1.012-0.281
	C14.913,72.181,14.6,72.05,14.3,71.9s-0.581-0.312-0.844-0.488c-0.262-0.175-0.506-0.362-0.731-0.562s-0.431-0.412-0.619-0.637
	C11.919,69.988,11.75,69.75,11.6,69.5c-0.15-0.275-0.281-0.55-0.394-0.828S11,68.113,10.925,67.825
	c-0.075-0.287-0.131-0.581-0.169-0.884C10.719,66.637,10.7,66.325,10.7,66c0-0.35,0.019-0.688,0.058-1.012
	c0.039-0.325,0.099-0.637,0.18-0.938c0.081-0.3,0.184-0.588,0.311-0.862c0.127-0.275,0.276-0.538,0.451-0.788
	c0.175-0.275,0.369-0.531,0.581-0.769s0.444-0.456,0.694-0.656s0.519-0.381,0.806-0.544c0.288-0.162,0.594-0.306,0.919-0.431
	c0.25-0.1,0.512-0.188,0.789-0.263c0.277-0.075,0.567-0.137,0.874-0.188c0.306-0.05,0.628-0.088,0.967-0.112
	c0.339-0.025,0.696-0.038,1.071-0.038c0.475,0,0.925,0.019,1.35,0.058c0.425,0.039,0.825,0.098,1.2,0.179
	c0.375,0.081,0.725,0.185,1.05,0.311c0.325,0.127,0.625,0.277,0.9,0.452s0.525,0.363,0.75,0.564c0.225,0.202,0.425,0.417,0.6,0.649
	c0.174,0.231,0.324,0.478,0.449,0.742c0.125,0.264,0.225,0.545,0.3,0.845l-0.775,0.125L23.45,63.45l-0.775,0.125L21.9,63.7
	c-0.05-0.15-0.113-0.294-0.188-0.431C21.637,63.131,21.55,63,21.45,62.875s-0.212-0.244-0.337-0.356S20.85,62.3,20.7,62.2
	s-0.312-0.188-0.486-0.263c-0.174-0.075-0.358-0.137-0.552-0.188c-0.193-0.05-0.396-0.088-0.607-0.112
	c-0.211-0.025-0.43-0.038-0.655-0.038c-0.35,0-0.681,0.025-0.994,0.073c-0.312,0.049-0.606,0.121-0.881,0.215
	c-0.275,0.094-0.531,0.209-0.769,0.345S15.3,62.525,15.1,62.7s-0.375,0.375-0.525,0.598c-0.15,0.223-0.275,0.47-0.375,0.739
	s-0.175,0.559-0.225,0.87C13.925,65.218,13.9,65.55,13.9,65.9c0,0.375,0.025,0.731,0.075,1.067c0.05,0.336,0.125,0.651,0.225,0.945
	s0.225,0.565,0.375,0.814C14.725,68.975,14.9,69.2,15.1,69.4s0.419,0.375,0.655,0.525c0.236,0.15,0.489,0.275,0.757,0.375
	c0.269,0.1,0.554,0.175,0.852,0.225c0.299,0.05,0.611,0.075,0.936,0.075c0.175,0,0.344-0.006,0.509-0.019
	c0.166-0.012,0.328-0.031,0.491-0.056c0.163-0.025,0.325-0.056,0.491-0.094S20.125,70.35,20.3,70.3s0.337-0.106,0.491-0.167
	c0.153-0.061,0.297-0.126,0.434-0.195c0.137-0.069,0.269-0.141,0.397-0.215C21.75,69.65,21.875,69.575,22,69.5v-0.4v-0.4v-0.4v-0.4
	h-0.9h-0.9h-0.9h-0.9v-0.025V67.85c0,0,0-0.012,0-0.025S18.4,67.8,18.4,67.8z"/>
<path d="M28.1,72.6v-3.25V66.1v-3.25V59.6h1.65h1.65h1.65h1.65c0.425,0,0.819,0.006,1.181,0.019
	c0.363,0.013,0.694,0.031,0.994,0.056s0.569,0.056,0.806,0.094c0.237,0.037,0.444,0.081,0.619,0.131
	c0.2,0.05,0.388,0.112,0.562,0.188S39.2,60.25,39.35,60.35s0.287,0.213,0.412,0.338S40,60.95,40.1,61.1s0.194,0.306,0.278,0.467
	c0.084,0.161,0.159,0.327,0.222,0.496c0.062,0.168,0.112,0.34,0.147,0.514C40.781,62.75,40.8,62.925,40.8,63.1
	c0,0.25-0.019,0.487-0.058,0.712c-0.039,0.225-0.098,0.438-0.179,0.638c-0.082,0.2-0.185,0.387-0.311,0.562S39.975,65.35,39.8,65.5
	s-0.369,0.288-0.583,0.413c-0.214,0.125-0.449,0.237-0.705,0.337c-0.256,0.1-0.534,0.188-0.835,0.262
	C37.375,66.587,37.05,66.65,36.7,66.7c0.175,0.075,0.337,0.156,0.491,0.242s0.297,0.176,0.434,0.27
	c0.138,0.094,0.269,0.191,0.397,0.29C38.15,67.6,38.275,67.7,38.4,67.8c0.1,0.1,0.213,0.219,0.338,0.356S39,68.45,39.15,68.625
	s0.312,0.369,0.487,0.581C39.812,69.419,40,69.65,40.2,69.9l0.475,0.625l0.475,0.625l0.475,0.625L42.1,72.4h-0.925H40.25h-0.925
	H38.4l-0.6-0.65l-0.6-0.65l-0.6-0.65L36,69.8c-0.2-0.25-0.388-0.475-0.561-0.677c-0.173-0.202-0.333-0.38-0.476-0.536
	c-0.144-0.156-0.272-0.29-0.383-0.404s-0.205-0.208-0.28-0.283s-0.15-0.138-0.225-0.191c-0.075-0.053-0.15-0.097-0.225-0.134
	c-0.075-0.037-0.15-0.069-0.225-0.097c-0.075-0.028-0.15-0.053-0.225-0.078s-0.169-0.044-0.278-0.058
	c-0.109-0.014-0.234-0.024-0.372-0.03c-0.138-0.006-0.287-0.009-0.447-0.01C32.144,67.3,31.975,67.3,31.8,67.3h-0.15H31.5h-0.15
	H31.2v1.35V70v1.35v1.35h-0.775H29.65h-0.775H28.1v-0.025V72.65v-0.025V72.6z M31.2,65.1h0.575h0.575h0.575H33.5
	c0.375,0,0.712-0.006,1.014-0.017c0.301-0.011,0.567-0.026,0.798-0.045s0.428-0.04,0.592-0.064C36.069,64.95,36.2,64.925,36.3,64.9
	s0.194-0.056,0.281-0.092c0.088-0.036,0.169-0.077,0.244-0.121c0.075-0.044,0.144-0.09,0.206-0.139
	C37.094,64.5,37.15,64.45,37.2,64.4s0.094-0.112,0.131-0.184c0.037-0.072,0.069-0.153,0.094-0.241s0.044-0.181,0.056-0.278
	C37.494,63.6,37.5,63.5,37.5,63.4s-0.006-0.2-0.02-0.299c-0.014-0.098-0.036-0.196-0.068-0.29s-0.072-0.184-0.123-0.27
	c-0.051-0.086-0.114-0.167-0.189-0.242s-0.156-0.138-0.244-0.191c-0.088-0.053-0.181-0.097-0.281-0.134s-0.206-0.069-0.319-0.097
	c-0.112-0.028-0.231-0.053-0.356-0.078c-0.075,0-0.175,0-0.303,0s-0.284,0-0.472,0s-0.406,0-0.659,0s-0.541,0-0.866,0H33h-0.6h-0.6
	h-0.6c0,0,0,0.206,0,0.516s0,0.722,0,1.134s0,0.825,0,1.134C31.2,64.894,31.2,65.1,31.2,65.1z"/>
<path d="M43.1,66.2c0-0.325,0.013-0.637,0.039-0.938c0.026-0.3,0.067-0.588,0.123-0.863c0.056-0.275,0.128-0.537,0.218-0.787
	c0.089-0.25,0.195-0.488,0.32-0.713c0.1-0.175,0.2-0.344,0.303-0.506c0.103-0.162,0.209-0.319,0.322-0.469s0.231-0.294,0.359-0.431
	c0.128-0.137,0.266-0.269,0.416-0.394s0.306-0.244,0.467-0.356c0.161-0.112,0.326-0.219,0.495-0.319
	c0.169-0.1,0.341-0.194,0.514-0.281s0.348-0.169,0.523-0.244c0.25-0.075,0.506-0.144,0.769-0.205s0.531-0.114,0.806-0.157
	c0.275-0.044,0.556-0.078,0.844-0.102C49.906,59.413,50.2,59.4,50.5,59.4c0.575,0,1.119,0.037,1.633,0.112s0.998,0.188,1.454,0.338
	c0.457,0.15,0.885,0.337,1.286,0.562C55.275,60.638,55.65,60.9,56,61.2s0.656,0.625,0.919,0.977
	c0.263,0.351,0.481,0.729,0.656,1.135c0.175,0.406,0.306,0.841,0.394,1.305c0.088,0.464,0.131,0.958,0.131,1.483
	c0,0.525-0.044,1.019-0.13,1.483c-0.086,0.464-0.214,0.898-0.383,1.304c-0.168,0.407-0.378,0.785-0.626,1.136S56.425,70.7,56.1,71
	c-0.35,0.3-0.725,0.562-1.127,0.787s-0.83,0.412-1.286,0.562c-0.456,0.15-0.94,0.263-1.454,0.338S51.175,72.8,50.6,72.8
	s-1.119-0.037-1.633-0.113c-0.514-0.075-0.998-0.187-1.454-0.337c-0.457-0.15-0.885-0.338-1.286-0.562S45.45,71.3,45.1,71
	c-0.325-0.275-0.613-0.581-0.861-0.919c-0.248-0.338-0.458-0.706-0.626-1.106c-0.169-0.4-0.297-0.831-0.383-1.294
	C43.144,67.219,43.1,66.725,43.1,66.2z M46.3,66.1c0,0.375,0.025,0.725,0.075,1.05c0.05,0.325,0.125,0.625,0.225,0.9
	s0.225,0.525,0.375,0.75s0.325,0.425,0.525,0.6c0.2,0.2,0.412,0.369,0.639,0.509s0.467,0.253,0.723,0.341
	c0.257,0.088,0.528,0.15,0.817,0.191s0.595,0.059,0.92,0.059c0.3,0,0.594-0.025,0.878-0.073c0.284-0.048,0.559-0.12,0.822-0.214
	c0.263-0.094,0.513-0.21,0.747-0.346s0.453-0.292,0.653-0.466c0.2-0.2,0.375-0.419,0.525-0.658c0.15-0.239,0.275-0.499,0.375-0.78
	c0.1-0.281,0.176-0.585,0.226-0.911C54.875,66.725,54.9,66.375,54.9,66s-0.025-0.725-0.075-1.05c-0.05-0.325-0.125-0.625-0.225-0.9
	c-0.1-0.275-0.225-0.525-0.375-0.75c-0.15-0.225-0.325-0.425-0.525-0.6s-0.413-0.331-0.639-0.467s-0.467-0.251-0.723-0.345
	s-0.528-0.166-0.817-0.214C51.231,61.625,50.925,61.6,50.6,61.6s-0.631,0.025-0.92,0.073c-0.289,0.049-0.561,0.121-0.817,0.215
	s-0.497,0.209-0.723,0.345C47.913,62.369,47.7,62.525,47.5,62.7c-0.2,0.2-0.375,0.419-0.525,0.658
	c-0.15,0.239-0.275,0.498-0.375,0.779c-0.1,0.282-0.175,0.585-0.225,0.911C46.325,65.375,46.3,65.725,46.3,66.1z"/>
<path d="M60.6,59.6h0.775h0.775h0.775H63.7v1.75v1.75v1.75v1.75c0,0.275,0,0.525,0.002,0.752s0.005,0.43,0.011,0.611
	c0.006,0.181,0.015,0.34,0.029,0.479c0.014,0.139,0.033,0.258,0.058,0.358c0.025,0.125,0.069,0.25,0.128,0.372
	c0.059,0.122,0.134,0.241,0.222,0.353s0.188,0.219,0.297,0.316c0.109,0.097,0.228,0.184,0.353,0.259s0.262,0.144,0.412,0.205
	c0.15,0.061,0.313,0.114,0.488,0.158s0.362,0.078,0.562,0.102c0.2,0.023,0.412,0.035,0.637,0.035s0.438-0.013,0.636-0.036
	c0.198-0.023,0.383-0.058,0.552-0.101s0.322-0.097,0.458-0.158c0.136-0.061,0.254-0.13,0.354-0.205
	c0.125-0.075,0.231-0.156,0.322-0.242c0.091-0.086,0.166-0.176,0.228-0.27c0.062-0.094,0.112-0.191,0.153-0.289S69.675,69.1,69.7,69
	s0.044-0.225,0.058-0.372c0.014-0.147,0.024-0.316,0.03-0.503c0.006-0.188,0.009-0.394,0.011-0.616S69.8,67.05,69.8,66.8V65v-1.8
	v-1.8v-1.8h0.775h0.775h0.775H72.9v1.7V63v1.7v1.7c0,0.4-0.006,0.769-0.019,1.106c-0.012,0.337-0.031,0.644-0.056,0.919
	c-0.025,0.275-0.056,0.519-0.094,0.731C72.694,69.369,72.65,69.55,72.6,69.7s-0.106,0.3-0.169,0.447
	c-0.062,0.147-0.131,0.291-0.206,0.428s-0.156,0.269-0.244,0.391C71.894,71.088,71.8,71.2,71.7,71.3
	c-0.125,0.1-0.256,0.2-0.394,0.299c-0.137,0.099-0.281,0.196-0.431,0.289c-0.15,0.094-0.306,0.185-0.469,0.27
	c-0.162,0.086-0.331,0.167-0.506,0.242c-0.2,0.075-0.412,0.138-0.637,0.189s-0.463,0.092-0.713,0.123s-0.512,0.053-0.787,0.067
	S67.2,72.8,66.9,72.8c-0.375,0-0.725-0.006-1.052-0.02c-0.327-0.014-0.63-0.036-0.911-0.068s-0.541-0.072-0.78-0.123
	S63.7,72.475,63.5,72.4s-0.388-0.156-0.562-0.242c-0.175-0.086-0.338-0.176-0.487-0.27c-0.15-0.094-0.287-0.191-0.412-0.29
	C61.913,71.5,61.8,71.4,61.7,71.3c-0.1-0.125-0.194-0.244-0.281-0.359c-0.088-0.116-0.169-0.228-0.244-0.341
	s-0.144-0.225-0.206-0.341S60.85,70.025,60.8,69.9c-0.05-0.175-0.094-0.375-0.131-0.6c-0.038-0.225-0.069-0.475-0.094-0.75
	s-0.044-0.575-0.056-0.9c-0.013-0.325-0.019-0.675-0.019-1.05v-1.75V63.1v-1.75V59.6h0.025h0.025h0.025H60.6z"/>
<path d="M76.2,72.6v-3.25V66.1v-3.25V59.6h1.25h1.25h1.25h1.25c0.475,0,0.906,0.006,1.295,0.017s0.736,0.026,1.043,0.045
	c0.306,0.019,0.572,0.041,0.798,0.065c0.227,0.023,0.414,0.049,0.564,0.073c0.225,0.05,0.438,0.112,0.639,0.189
	c0.202,0.076,0.392,0.167,0.574,0.273c0.181,0.106,0.353,0.229,0.517,0.368c0.164,0.139,0.32,0.295,0.47,0.47
	s0.281,0.356,0.394,0.545c0.113,0.189,0.206,0.386,0.281,0.593c0.075,0.206,0.131,0.422,0.169,0.648C87.981,63.112,88,63.35,88,63.6
	c0,0.2-0.012,0.394-0.036,0.58c-0.023,0.186-0.058,0.364-0.101,0.533s-0.097,0.328-0.158,0.477c-0.061,0.148-0.13,0.285-0.205,0.41
	s-0.162,0.25-0.259,0.372c-0.097,0.122-0.203,0.241-0.316,0.353s-0.231,0.219-0.353,0.316c-0.122,0.097-0.247,0.184-0.372,0.259
	s-0.256,0.144-0.391,0.206s-0.272,0.119-0.409,0.169s-0.275,0.094-0.409,0.131c-0.134,0.038-0.266,0.069-0.391,0.094
	c-0.175,0.025-0.375,0.05-0.599,0.073c-0.223,0.023-0.47,0.045-0.739,0.064s-0.559,0.034-0.87,0.045
	C82.081,67.693,81.75,67.7,81.4,67.7h-0.5h-0.5h-0.5h-0.5v1.225v1.225v1.225V72.6h-0.8h-0.8c0,0-0.4,0-0.8,0S76.2,72.6,76.2,72.6z
	 M79.4,61.8v0.925v0.925v0.925V65.5h0.425h0.425h0.425H81.1c0.3,0,0.581-0.006,0.841-0.017c0.259-0.011,0.497-0.026,0.709-0.045
	c0.213-0.019,0.4-0.041,0.559-0.064C83.369,65.35,83.5,65.325,83.6,65.3s0.194-0.056,0.283-0.094
	c0.089-0.037,0.173-0.081,0.254-0.131s0.159-0.106,0.236-0.169s0.152-0.131,0.227-0.206s0.138-0.15,0.189-0.227
	c0.051-0.077,0.092-0.155,0.123-0.236c0.032-0.081,0.054-0.165,0.068-0.254C84.994,63.894,85,63.8,85,63.7
	c0-0.125-0.012-0.244-0.036-0.356c-0.023-0.112-0.058-0.219-0.101-0.319c-0.044-0.1-0.097-0.194-0.158-0.281
	s-0.13-0.169-0.205-0.244s-0.162-0.144-0.259-0.206c-0.097-0.062-0.203-0.119-0.316-0.169s-0.231-0.094-0.353-0.131
	c-0.122-0.037-0.247-0.069-0.372-0.094c-0.1-0.025-0.219-0.044-0.359-0.058s-0.303-0.023-0.491-0.029
	c-0.188-0.007-0.4-0.01-0.641-0.011S81.2,61.8,80.9,61.8c0,0-0.094,0-0.234,0s-0.328,0-0.516,0s-0.375,0-0.516,0
	S79.4,61.8,79.4,61.8z"/>
</svg>
