<svg xmlns="http://www.w3.org/2000/svg" viewBox="0 0 100 100"><path d="M27.79,73.42a27.38,27.38,0,0,1-7.82-1,35.76,35.76,0,0,1-6.27-2.48V59.18h.89A21.35,21.35,0,0,0,21,63.61a16.91,16.91,0,0,0,6.82,1.55A15.37,15.37,0,0,0,30.05,65a6.9,6.9,0,0,0,2.2-.67A5,5,0,0,0,34,62.84a4,4,0,0,0,.7-2.44,3.59,3.59,0,0,0-1.15-2.77,6.93,6.93,0,0,0-2.73-1.54c-1.32-.41-2.73-.79-4.23-1.16a30.13,30.13,0,0,1-4.21-1.33,13.22,13.22,0,0,1-6.46-5,14.57,14.57,0,0,1-2-7.83,12.84,12.84,0,0,1,4.61-10.28,17.12,17.12,0,0,1,11.51-3.93A29.9,29.9,0,0,1,37,27.4a27.27,27.27,0,0,1,6.13,2.22V39.94h-.86A18.89,18.89,0,0,0,37,36.3a14.59,14.59,0,0,0-6.4-1.49,11.38,11.38,0,0,0-2.29.21,7.88,7.88,0,0,0-2.13.82,4.49,4.49,0,0,0-1.58,1.44,3.68,3.68,0,0,0-.66,2.14,3.65,3.65,0,0,0,1.05,2.75A9.86,9.86,0,0,0,29,44l3.76,1a31.88,31.88,0,0,1,3.87,1.33,13.31,13.31,0,0,1,6,4.57,13.16,13.16,0,0,1,2,7.57,13.88,13.88,0,0,1-4.55,10.84Q35.53,73.41,27.79,73.42Z"/><path d="M27.79,74.17a28.26,28.26,0,0,1-8-1,36.53,36.53,0,0,1-6.39-2.54L13,70.38V58.43h2l.21.22a20.69,20.69,0,0,0,6.21,4.28,16.3,16.3,0,0,0,6.52,1.48,15.06,15.06,0,0,0,2.09-.2,6.25,6.25,0,0,0,2-.59,4,4,0,0,0,1.48-1.24,3.25,3.25,0,0,0,.55-2A2.87,2.87,0,0,0,33,58.18a6.31,6.31,0,0,0-2.44-1.38c-1.31-.4-2.72-.78-4.19-1.14a30.65,30.65,0,0,1-4.31-1.37A14,14,0,0,1,15.25,49a15.37,15.37,0,0,1-2.06-8.23,13.65,13.65,0,0,1,4.87-10.85,18,18,0,0,1,12-4.11,30.76,30.76,0,0,1,7.06.84A28.38,28.38,0,0,1,43.43,29l.4.21V40.69H41.91l-.22-.22A18.24,18.24,0,0,0,36.62,37a13.94,13.94,0,0,0-6.07-1.41,10.49,10.49,0,0,0-2.13.2,6.91,6.91,0,0,0-1.94.74,3.84,3.84,0,0,0-1.31,1.21,2.87,2.87,0,0,0-.53,1.71,2.93,2.93,0,0,0,.82,2.21,8.93,8.93,0,0,0,3.75,1.65l3.76,1a31.8,31.8,0,0,1,4,1.37,14.05,14.05,0,0,1,6.34,4.84,13.94,13.94,0,0,1,2.1,8,14.67,14.67,0,0,1-4.79,11.4C37.42,72.72,33.12,74.17,27.79,74.17ZM14.45,69.46a35.75,35.75,0,0,0,5.73,2.24,27.11,27.11,0,0,0,7.61,1c4.94,0,8.91-1.32,11.78-3.91a13.23,13.23,0,0,0,4.3-10.28A12.5,12.5,0,0,0,42,51.33,12.66,12.66,0,0,0,36.36,47a31.48,31.48,0,0,0-3.77-1.3l-3.76-1a10.36,10.36,0,0,1-4.41-2,4.38,4.38,0,0,1-1.28-3.29,4.43,4.43,0,0,1,.79-2.57,5.3,5.3,0,0,1,1.84-1.67,8.28,8.28,0,0,1,2.34-.89,12.12,12.12,0,0,1,2.44-.23,15.44,15.44,0,0,1,6.72,1.56A20.14,20.14,0,0,1,42.33,39V30.08a27.07,27.07,0,0,0-5.56-1.95,28.83,28.83,0,0,0-6.71-.8,16.52,16.52,0,0,0-11,3.75,12.06,12.06,0,0,0-4.34,9.71,13.85,13.85,0,0,0,1.83,7.43,12.53,12.53,0,0,0,6.11,4.68,29,29,0,0,0,4.1,1.3c1.5.37,2.94.76,4.28,1.17a7.77,7.77,0,0,1,3,1.71,4.35,4.35,0,0,1,1.39,3.32,4.66,4.66,0,0,1-.86,2.89,5.72,5.72,0,0,1-2,1.66,7.94,7.94,0,0,1-2.43.74,15.49,15.49,0,0,1-2.32.22,17.67,17.67,0,0,1-7.12-1.61,22.14,22.14,0,0,1-6.27-4.21Z" fill="#fff"/><path d="M86.3,50q0,10.95-5,17.23T67.49,73.54q-8.77,0-13.78-6.36T48.71,50q0-10.91,5-17.23t13.78-6.33q8.76,0,13.78,6.3T86.3,50ZM76.24,50a28.33,28.33,0,0,0-.71-6.87,15.38,15.38,0,0,0-1.92-4.66,7.65,7.65,0,0,0-2.82-2.65A7.06,7.06,0,0,0,67.52,35a7.17,7.17,0,0,0-3.26.74,8.26,8.26,0,0,0-2.81,2.66,14.65,14.65,0,0,0-1.94,4.67,28.28,28.28,0,0,0-.74,7,28.35,28.35,0,0,0,.7,6.9,15.1,15.1,0,0,0,1.93,4.6,7.56,7.56,0,0,0,2.84,2.68,7.13,7.13,0,0,0,3.28.81,6.93,6.93,0,0,0,3.33-.87,7.56,7.56,0,0,0,2.79-2.68,16.13,16.13,0,0,0,1.93-4.6A28.51,28.51,0,0,0,76.24,50Z"/><path d="M67.49,74.29c-6.06,0-10.9-2.24-14.37-6.65S48,57.36,48,50s1.74-13.36,5.16-17.69,8.31-6.62,14.37-6.62,10.88,2.22,14.37,6.58S87.05,42.57,87.05,50s-1.75,13.4-5.19,17.7S73.54,74.29,67.49,74.29Zm0-47.08c-5.58,0-10,2-13.19,6S49.46,43,49.46,50s1.63,12.61,4.84,16.7,7.61,6.07,13.19,6.07,10-2,13.2-6S85.55,57.11,85.55,50s-1.64-12.75-4.86-16.79S73.06,27.21,67.49,27.21Zm0,38.55a7.93,7.93,0,0,1-3.62-.89,8.43,8.43,0,0,1-3.13-2.94,15.94,15.94,0,0,1-2-4.82A29.48,29.48,0,0,1,58,50a29.32,29.32,0,0,1,.76-7.14,15.84,15.84,0,0,1,2-4.91,9,9,0,0,1,3.09-2.9,8,8,0,0,1,7.21.06A8.58,8.58,0,0,1,74.24,38a16.35,16.35,0,0,1,2,4.9A29.31,29.31,0,0,1,77,50a29.07,29.07,0,0,1-.7,7.07,16.47,16.47,0,0,1-2,4.81,8.5,8.5,0,0,1-3.06,3A7.8,7.8,0,0,1,67.52,65.76Zm0-30a6.34,6.34,0,0,0-2.92.66,7.6,7.6,0,0,0-2.54,2.42,14.17,14.17,0,0,0-1.82,4.43A27.76,27.76,0,0,0,59.52,50a27.84,27.84,0,0,0,.68,6.71A14.23,14.23,0,0,0,62,61.1a7,7,0,0,0,2.56,2.44,6.24,6.24,0,0,0,5.92-.06A6.9,6.9,0,0,0,73,61.05a15.43,15.43,0,0,0,1.83-4.38A28,28,0,0,0,75.49,50a28,28,0,0,0-.69-6.69A14.49,14.49,0,0,0,73,38.86a7.16,7.16,0,0,0-2.54-2.4A6.4,6.4,0,0,0,67.52,35.74Z" fill="#fff"/></svg>