<?xml version="1.0" encoding="utf-8"?>
<!-- Generator: Adobe Illustrator 25.2.0, SVG Export Plug-In . SVG Version: 6.00 Build 0)  -->
<svg version="1.1" id="Layer_1" xmlns="http://www.w3.org/2000/svg" xmlns:xlink="http://www.w3.org/1999/xlink" x="0px" y="0px"
	 viewBox="0 0 100 100" style="enable-background:new 0 0 100 100;" xml:space="preserve">
<g>
	<g>
		<path d="M12.3,48.5l3.2-0.3c0.2,1.4,0.5,2.6,1.1,3.5c0.6,0.9,1.4,1.7,2.6,2.2c1.2,0.6,2.5,0.8,4,0.8c1.3,0,2.4-0.2,3.4-0.6
			s1.7-1,2.2-1.8c0.5-0.7,0.7-1.6,0.7-2.4c0-0.9-0.2-1.7-0.7-2.4s-1.2-1.2-2.3-1.7c-0.7-0.3-2.2-0.8-4.6-1.4c-2.4-0.6-4-1.2-5-1.8
			c-1.2-0.7-2.1-1.6-2.8-2.7c-0.6-1.1-0.9-2.2-0.9-3.6c0-1.4,0.4-2.8,1.1-4s1.8-2.2,3.2-2.9c1.4-0.6,3-1,4.7-1c1.9,0,3.6,0.3,5.1,1
			s2.6,1.7,3.4,3c0.8,1.3,1.2,2.8,1.3,4.5l-3.3,0.3c-0.2-1.8-0.8-3.2-1.8-4.1s-2.5-1.4-4.5-1.4c-2.1,0-3.6,0.4-4.5,1.3
			s-1.4,1.9-1.4,3c0,1,0.3,1.9,1,2.5c0.7,0.7,2.4,1.3,5.1,2c2.8,0.7,4.7,1.3,5.7,1.8c1.5,0.8,2.6,1.7,3.3,2.9
			c0.7,1.2,1.1,2.5,1.1,4.1c0,1.5-0.4,3-1.2,4.3c-0.8,1.3-1.9,2.4-3.4,3.1s-3.1,1.1-5,1.1c-2.3,0-4.3-0.4-5.9-1.1s-2.8-1.9-3.7-3.4
			C12.8,52.1,12.4,50.4,12.3,48.5z"/>
		<path d="M34.7,57.7l9.9-28.6h3.7l10.5,28.6h-3.9l-3-8.7H41.1l-2.8,8.7H34.7z M42.1,45.9h8.7L48.1,38c-0.8-2.4-1.4-4.4-1.8-5.9
			c-0.3,1.8-0.8,3.7-1.4,5.5L42.1,45.9z"/>
		<path d="M61.5,57.7V29.1H73c2.3,0,4,0.3,5.2,0.8c1.2,0.5,2.2,1.4,2.9,2.7c0.7,1.3,1.1,2.7,1.1,4.3c0,2-0.6,3.7-1.8,5.1
			c-1.2,1.4-3,2.3-5.5,2.7c0.9,0.5,1.6,1,2.1,1.4c1,1,1.9,2.3,2.8,3.8l4.5,7.8H80l-3.4-5.9c-1-1.7-1.8-3-2.5-3.9s-1.2-1.5-1.7-1.9
			c-0.5-0.4-1-0.6-1.6-0.8c-0.4-0.1-1-0.1-1.9-0.1h-4v12.7H61.5z M65,41.7h7.3c1.6,0,2.8-0.2,3.7-0.5c0.9-0.4,1.5-0.9,2-1.7
			c0.5-0.8,0.7-1.6,0.7-2.6c0-1.4-0.4-2.5-1.3-3.3c-0.9-0.9-2.3-1.3-4.2-1.3H65V41.7z"/>
	</g>
	<g>
		<path d="M10.8,71.2v-9.9h5.2c1.1,0,1.9,0.1,2.5,0.3s1.1,0.5,1.5,0.9c0.4,0.4,0.5,0.9,0.5,1.3c0,0.4-0.2,0.8-0.5,1.2
			c-0.3,0.4-0.8,0.7-1.5,0.9c0.8,0.2,1.5,0.5,1.9,0.9c0.4,0.4,0.7,0.9,0.7,1.5c0,0.5-0.1,0.9-0.4,1.3c-0.3,0.4-0.6,0.7-1,0.9
			c-0.4,0.2-0.9,0.4-1.5,0.5c-0.6,0.1-1.3,0.2-2.2,0.2H10.8z M12.6,65.5h3c0.8,0,1.4,0,1.7-0.1c0.5-0.1,0.8-0.3,1-0.5
			c0.2-0.2,0.4-0.5,0.4-0.9c0-0.3-0.1-0.6-0.3-0.9c-0.2-0.3-0.5-0.4-0.9-0.5s-1.1-0.1-2.1-0.1h-2.8V65.5z M12.6,70H16
			c0.6,0,1,0,1.2,0c0.4-0.1,0.8-0.1,1.1-0.3s0.5-0.3,0.7-0.6c0.2-0.2,0.3-0.5,0.3-0.8c0-0.4-0.1-0.7-0.4-1s-0.6-0.5-1.1-0.6
			s-1.1-0.2-2-0.2h-3.2V70z"/>
		<path d="M23.7,71.2v-9.9h6.1c1.2,0,2.2,0.1,2.8,0.3s1.2,0.5,1.5,0.9c0.4,0.5,0.6,1,0.6,1.5c0,0.7-0.3,1.3-1,1.8
			c-0.6,0.5-1.6,0.8-2.9,0.9c0.5,0.2,0.9,0.3,1.1,0.5c0.5,0.4,1,0.8,1.5,1.3l2.4,2.7h-2.3l-1.8-2.1c-0.5-0.6-1-1.1-1.3-1.4
			c-0.3-0.3-0.7-0.5-0.9-0.7c-0.3-0.1-0.6-0.2-0.8-0.3c-0.2,0-0.5,0-1,0h-2.1v4.4H23.7z M25.6,65.7h3.9c0.8,0,1.5-0.1,2-0.2
			c0.5-0.1,0.8-0.3,1.1-0.6c0.2-0.3,0.4-0.6,0.4-0.9c0-0.5-0.2-0.9-0.7-1.2c-0.5-0.3-1.2-0.5-2.2-0.5h-4.4V65.7z"/>
		<path d="M36.1,71.2l5.3-9.9h2l5.7,9.9H47l-1.6-3h-5.8l-1.5,3H36.1z M40.1,67.1h4.7l-1.4-2.8c-0.4-0.8-0.8-1.5-1-2.1
			c-0.2,0.6-0.4,1.3-0.7,1.9L40.1,67.1z"/>
		<path d="M50.5,71.2v-9.9h1.9l7.3,7.8v-7.8h1.8v9.9h-1.9l-7.3-7.8v7.8H50.5z"/>
		<path d="M74.3,67.7l1.8,0.3C75.7,69.1,75,70,74,70.5c-1,0.6-2.2,0.9-3.7,0.9c-1.5,0-2.7-0.2-3.6-0.7c-0.9-0.4-1.6-1.1-2.1-1.9
			c-0.5-0.8-0.7-1.7-0.7-2.7c0-1,0.3-1.9,0.8-2.7c0.5-0.8,1.3-1.4,2.3-1.8c1-0.4,2.1-0.6,3.3-0.6c1.4,0,2.5,0.3,3.5,0.8
			c0.9,0.5,1.6,1.2,2,2.1l-1.8,0.3c-0.3-0.7-0.8-1.2-1.4-1.6c-0.6-0.3-1.4-0.5-2.3-0.5c-1.1,0-1.9,0.2-2.7,0.5
			c-0.7,0.4-1.2,0.9-1.5,1.5c-0.3,0.6-0.4,1.3-0.4,1.9c0,0.8,0.2,1.6,0.5,2.2c0.3,0.6,0.9,1.1,1.6,1.4c0.7,0.3,1.5,0.5,2.3,0.5
			c1,0,1.9-0.2,2.6-0.6C73.5,69.2,74,68.6,74.3,67.7z"/>
		<path d="M78.4,71.2v-9.9h1.8v4.1h7.2v-4.1h1.8v9.9h-1.8v-4.7h-7.2v4.7H78.4z"/>
	</g>
</g>
</svg>
