<?xml version="1.0" encoding="utf-8"?>
<!-- Generator: Adobe Illustrator 25.3.1, SVG Export Plug-In . SVG Version: 6.00 Build 0)  -->
<svg version="1.1" id="Layer_1" xmlns="http://www.w3.org/2000/svg" xmlns:xlink="http://www.w3.org/1999/xlink" x="0px" y="0px"
	 viewBox="0 0 100 100" style="enable-background:new 0 0 100 100;" xml:space="preserve">
<path d="M85.6,67.1c-1.9,0-3.7,0-5.6,0c-1.9-8.8-3.8-17.6-5.7-26.4c-0.1,0-0.3,0-0.4-0.1c-1.9,8.8-3.8,17.6-5.7,26.5
	c-2,0-3.8,0-5.7,0c-2.2-11.4-4.4-22.7-6.6-34.1c1.8,0,3.3,0,5.1,0c1.4,7.9,2.9,15.8,4.3,23.7c0.2,0,0.4,0,0.6,0
	c1.7-7.8,3.4-15.6,5.2-23.8c1.8,0,3.6-0.1,5.5,0.1c0.4,0,1,1,1.1,1.6c1.4,6.5,2.7,13.1,4,19.6c0.2,1,0.4,2,0.7,2.9
	c0.2,0,0.4,0,0.6,0c1.4-8,2.9-16,4.3-24c1.7,0,3.2,0,5,0C90,44.4,87.8,55.7,85.6,67.1z"/>
<path d="M56.6,67.1c-1.9,0-3.6,0-5.5,0c-0.6-2-1.4-4.1-2-6.3c-0.3-1.1-0.8-1.7-2.1-1.7c-2.9,0.1-5.7,0.1-8.6,0
	c-1.3,0-1.9,0.4-2.2,1.7c-0.1,0.7-0.4,1.4-0.6,2.2c-1.4,4.6-1.4,4.6-6.5,4c1-3.3,2.1-6.6,3.1-9.8c2.3-7.3,4.7-14.6,6.8-21.9
	c0.6-2,1.4-2.7,3.4-2.4c1,0.1,1.9,0,3,0C49.2,44.3,52.8,55.6,56.6,67.1z M38.3,53.9c3,0,5.7,0,8.7,0c-1.4-4.8-2.8-9.4-4.4-14.5
	C41,44.6,39.7,49.2,38.3,53.9z"/>
<path d="M26.9,62.1c0,1.9,0,3.3,0,4.9c-6.4,0-12.7,0-19.1,0c0-11.2,0-22.4,0-33.8c1.5,0,3,0,4.8,0c0,9.5,0,19.1,0,28.8
	C17.5,62.1,22.1,62.1,26.9,62.1z"/>
</svg>
