<?xml version="1.0" encoding="utf-8"?>
<!-- Generator: Adobe Illustrator 25.2.0, SVG Export Plug-In . SVG Version: 6.00 Build 0)  -->
<svg version="1.1" id="Layer_1" xmlns="http://www.w3.org/2000/svg" xmlns:xlink="http://www.w3.org/1999/xlink" x="0px" y="0px"
	 viewBox="0 0 100 100" style="enable-background:new 0 0 100 100;" xml:space="preserve">
<g>
	<path d="M71.2,57c0,4.6-1.8,8.5-5.5,11.4c-3.7,3-8.8,4.5-15.2,4.5c-3.2,0-6.1-0.4-8.6-1.1s-4.7-1.8-6.4-3.3
		c-2.1-1.7-3.7-3.9-4.8-6.6c-1.1-2.7-1.7-5.9-1.7-9.6c0-3.9,0.5-7.3,1.6-10.3c1-3,2.7-5.7,5.1-8c2.3-2.2,5.2-3.9,8.8-5.1
		c3.6-1.2,8-1.9,12.9-1.9c1.8,0,3.6,0.1,5.4,0.3c1.8,0.2,3.1,0.3,3.7,0.5v8.7h-1c-0.6-0.3-1.7-0.5-3.2-0.9s-3.2-0.5-5.1-0.5
		c-4.3,0-7.7,0.9-10,2.7c-2.4,1.8-3.8,4.4-4.4,7.8c1.8-0.9,3.6-1.7,5.5-2.2c1.9-0.6,4-0.8,6.3-0.8c2,0,3.8,0.2,5.6,0.6
		c1.7,0.4,3.3,1,4.7,1.9c1.9,1.2,3.4,2.7,4.6,4.6C70.6,51.6,71.2,54,71.2,57z M55,63.7c0.7-0.7,1.3-1.5,1.7-2.3
		c0.4-0.8,0.6-2.1,0.6-3.8c0-1.4-0.2-2.6-0.7-3.5c-0.4-0.9-1.1-1.7-1.9-2.2c-0.8-0.6-1.7-0.9-2.8-1.1c-1-0.2-2.1-0.3-3.3-0.3
		c-1,0-2,0.1-3,0.3c-1,0.2-2,0.4-2.9,0.7c0,0.2,0,0.5,0,1c0,0.5,0,1,0,1.7c0,2.5,0.3,4.6,0.8,6.1s1.3,2.7,2.1,3.5
		c0.6,0.6,1.4,1.1,2.2,1.4c0.8,0.3,1.7,0.4,2.6,0.4c0.7,0,1.5-0.1,2.4-0.4C53.7,64.7,54.4,64.2,55,63.7z"/>
</g>
</svg>
