<?xml version="1.0" encoding="utf-8"?>
<!-- Generator: Adobe Illustrator 25.2.0, SVG Export Plug-In . SVG Version: 6.00 Build 0)  -->
<svg version="1.1" id="Layer_1" xmlns="http://www.w3.org/2000/svg" xmlns:xlink="http://www.w3.org/1999/xlink" x="0px" y="0px"
	 viewBox="0 0 100 100" style="enable-background:new 0 0 100 100;" xml:space="preserve">
<g>
	<g>
		<path d="M60.7,72.8H41.5v-5.8h5.1V45.2h-5.1v-5.8h19.2v5.8h-5.1v21.8h5.1V72.8z"/>
	</g>
	<g>
		<path d="M10,36.6v-9.3h5.3c1.1,0,1.9,0.1,2.6,0.3c0.6,0.2,1.2,0.5,1.5,0.9c0.4,0.4,0.6,0.8,0.6,1.2c0,0.4-0.2,0.8-0.5,1.1
			c-0.3,0.4-0.8,0.6-1.5,0.8c0.8,0.2,1.5,0.4,2,0.8c0.5,0.4,0.7,0.9,0.7,1.4c0,0.4-0.1,0.8-0.4,1.2s-0.6,0.7-1,0.9
			c-0.4,0.2-0.9,0.4-1.5,0.5c-0.6,0.1-1.4,0.2-2.3,0.2H10z M11.9,31.3h3c0.8,0,1.4,0,1.8-0.1c0.5-0.1,0.8-0.2,1.1-0.5
			c0.2-0.2,0.4-0.5,0.4-0.8c0-0.3-0.1-0.6-0.3-0.8c-0.2-0.2-0.5-0.4-1-0.5s-1.1-0.1-2.1-0.1h-2.8V31.3z M11.9,35.6h3.5
			c0.6,0,1,0,1.3,0c0.4-0.1,0.8-0.1,1.1-0.3c0.3-0.1,0.5-0.3,0.7-0.5s0.3-0.5,0.3-0.8c0-0.3-0.1-0.6-0.4-0.9s-0.6-0.4-1.1-0.5
			c-0.5-0.1-1.2-0.2-2.1-0.2h-3.3V35.6z"/>
		<path d="M23.2,36.6v-9.3h6.2c1.3,0,2.2,0.1,2.9,0.2c0.7,0.2,1.2,0.5,1.6,0.9c0.4,0.4,0.6,0.9,0.6,1.4c0,0.7-0.3,1.2-1,1.7
			c-0.6,0.5-1.6,0.7-3,0.9c0.5,0.2,0.9,0.3,1.1,0.5c0.5,0.3,1.1,0.7,1.5,1.2l2.4,2.5h-2.3l-1.9-1.9c-0.5-0.6-1-1-1.3-1.3
			c-0.4-0.3-0.7-0.5-0.9-0.6c-0.3-0.1-0.6-0.2-0.8-0.2c-0.2,0-0.6,0-1,0h-2.2v4.1H23.2z M25.1,31.5h4c0.9,0,1.5-0.1,2-0.2
			c0.5-0.1,0.8-0.3,1.1-0.6c0.2-0.3,0.4-0.5,0.4-0.8c0-0.4-0.2-0.8-0.7-1.1c-0.5-0.3-1.2-0.4-2.3-0.4h-4.5V31.5z"/>
		<path d="M35.9,36.6l5.4-9.3h2l5.8,9.3h-2.1l-1.6-2.8h-5.9l-1.5,2.8H35.9z M39.9,32.8h4.8l-1.5-2.6c-0.4-0.8-0.8-1.4-1-1.9
			c-0.2,0.6-0.4,1.2-0.8,1.8L39.9,32.8z"/>
		<path d="M50.5,36.6v-9.3h1.9l7.4,7.3v-7.3h1.8v9.3h-1.9l-7.4-7.3v7.3H50.5z"/>
		<path d="M74.7,33.4l1.9,0.3c-0.4,1-1.1,1.8-2.1,2.3c-1,0.5-2.3,0.8-3.7,0.8c-1.5,0-2.7-0.2-3.7-0.6c-0.9-0.4-1.7-1-2.2-1.8
			c-0.5-0.8-0.7-1.6-0.7-2.5c0-1,0.3-1.8,0.8-2.5s1.4-1.3,2.4-1.6c1-0.4,2.2-0.6,3.4-0.6c1.4,0,2.6,0.2,3.5,0.7s1.6,1.1,2,2
			l-1.8,0.3c-0.3-0.7-0.8-1.2-1.4-1.5c-0.6-0.3-1.4-0.5-2.3-0.5c-1.1,0-2,0.2-2.7,0.5c-0.7,0.3-1.2,0.8-1.5,1.4
			c-0.3,0.6-0.4,1.2-0.4,1.8c0,0.8,0.2,1.5,0.5,2.1c0.3,0.6,0.9,1,1.6,1.3s1.5,0.4,2.4,0.4c1,0,1.9-0.2,2.6-0.6
			C74,34.8,74.5,34.2,74.7,33.4z"/>
		<path d="M78.9,36.6v-9.3h1.9v3.8h7.3v-3.8H90v9.3h-1.9v-4.4h-7.3v4.4H78.9z"/>
	</g>
</g>
</svg>
