<svg xmlns="http://www.w3.org/2000/svg" viewBox="0 0 100 100"><path d="M41.19,68.6H19V62.22H24.9V38.44H19V32.06H41.19v6.38H35.26V62.22h5.93Z"/><path d="M41.94,69.35H18.22V61.47h5.93V39.19H18.22V31.31H41.94v7.88H36V61.47h5.93Zm-22.22-1.5H40.44V63H34.51V37.69h5.93V32.81H19.72v4.88h5.93V63H19.72Z" fill="#fff"/><path d="M67,69.31q-9.29,0-14.74-5t-5.46-14q0-8.68,5.47-13.85t14.75-5.17a34.83,34.83,0,0,1,4.44.25,33,33,0,0,1,3.76.68,28.86,28.86,0,0,1,3.08,1c1.11.42,2,.79,2.69,1.1V43.1H80c-.49-.39-1.12-.86-1.88-1.41a25.08,25.08,0,0,0-2.58-1.6,17.56,17.56,0,0,0-3.17-1.34,11.74,11.74,0,0,0-3.61-.55,13.14,13.14,0,0,0-4.12.62A10.12,10.12,0,0,0,61.05,41a10.36,10.36,0,0,0-2.53,3.78,14.59,14.59,0,0,0-1,5.62,14.25,14.25,0,0,0,1,5.73,10.23,10.23,0,0,0,2.69,3.74,10,10,0,0,0,3.58,2,13.26,13.26,0,0,0,4,.61,12.64,12.64,0,0,0,3.91-.6,15.71,15.71,0,0,0,3.13-1.34A21.5,21.5,0,0,0,78.26,59c.7-.52,1.31-1,1.82-1.4h1v8.59l-2.64,1.07a24.5,24.5,0,0,1-3.07,1,34.8,34.8,0,0,1-3.63.79A31.15,31.15,0,0,1,67,69.31Z"/><path d="M67,70.06c-6.35,0-11.48-1.74-15.25-5.17s-5.7-8.33-5.7-14.52c0-6,1.92-10.82,5.71-14.4s8.91-5.37,15.26-5.37a38.48,38.48,0,0,1,4.53.25,33.75,33.75,0,0,1,3.85.71,29.63,29.63,0,0,1,3.17,1c1.11.43,2,.8,2.73,1.12l.44.2v9.94H79.71l-.2-.16c-.49-.38-1.11-.85-1.86-1.39a23.55,23.55,0,0,0-2.5-1.56,18.39,18.39,0,0,0-3-1.28,12.29,12.29,0,0,0-7.26.07,9.32,9.32,0,0,0-3.29,2,9.48,9.48,0,0,0-2.35,3.51,14.07,14.07,0,0,0-.93,5.33,13.49,13.49,0,0,0,1,5.43,9.66,9.66,0,0,0,2.48,3.47,9.18,9.18,0,0,0,3.33,1.84,12.29,12.29,0,0,0,7.4,0,16.34,16.34,0,0,0,3-1.27,21.83,21.83,0,0,0,2.37-1.5c.69-.52,1.3-1,1.81-1.39l.21-.16h2v9.84l-.47.19-2.64,1.07a27.21,27.21,0,0,1-3.16,1,36.64,36.64,0,0,1-3.7.8A32.73,32.73,0,0,1,67,70.06Zm0-38c-6,0-10.75,1.67-14.23,5s-5.24,7.76-5.24,13.31c0,5.75,1.75,10.27,5.21,13.41S61.07,68.56,67,68.56a31,31,0,0,0,4.53-.26c1.1-.18,2.29-.44,3.56-.77a24.2,24.2,0,0,0,3-1l2.17-.88V58.38c-.46.36-1,.76-1.58,1.2a19.66,19.66,0,0,1-2.52,1.6,17.4,17.4,0,0,1-3.26,1.4,13.93,13.93,0,0,1-8.31,0,10.84,10.84,0,0,1-3.85-2.14,11,11,0,0,1-2.89-4,15,15,0,0,1-1.09-6,15.4,15.4,0,0,1,1-5.9,11.06,11.06,0,0,1,2.73-4.05,10.65,10.65,0,0,1,3.82-2.33,13.75,13.75,0,0,1,4.36-.66,12.63,12.63,0,0,1,3.84.58,18.29,18.29,0,0,1,3.3,1.4,22.58,22.58,0,0,1,2.66,1.66c.67.48,1.23.9,1.7,1.26h0V34.88c-.61-.26-1.35-.56-2.21-.89a29.49,29.49,0,0,0-3-1,33.43,33.43,0,0,0-3.68-.67A35.19,35.19,0,0,0,67.06,32.1Z" fill="#fff"/></svg>