<svg xmlns="http://www.w3.org/2000/svg" viewBox="0 0 100 100"><path d="M33.54,36H19.46v8.54H32.41v8.64H19.46V72.63H11.08V27.37H33.54Z"/><path d="M20.21,73.38H10.33V26.62h24V36.75H20.21v7H33.16V53.93H20.21Zm-8.38-1.5h6.88V52.43h13V45.29H18.71v-10H32.79V28.12h-21Z" fill="#fff"/><path d="M54.59,72.63H36.53v-7.9h4.82V35.27H36.53v-7.9H54.59v7.9H49.77V64.73h4.82Z"/><path d="M55.34,73.38H35.78V64H40.6V36H35.78v-9.4H55.34V36H50.52V64h4.82Zm-18.06-1.5H53.84v-6.4H49v-31h4.82v-6.4H37.28v6.4H42.1v31H37.28Z" fill="#fff"/><path d="M88.92,72.63H80.81L67.88,41.08V72.63h-7.7V27.37H70.52L81.22,53.3V27.37h7.7Z"/><path d="M89.67,73.38H80.31L68.63,44.89V73.38h-9.2V26.62H71l9.45,22.89V26.62h9.2Zm-8.36-1.5h6.86V28.12H82v29l-12-29H60.93V71.88h6.2V37.27Z" fill="#fff"/></svg>