<?xml version="1.0" encoding="iso-8859-1"?>
<!-- Generator: Adobe Illustrator 25.4.1, SVG Export Plug-In . SVG Version: 6.00 Build 0)  -->
<svg version="1.1" id="Layer_1" xmlns="http://www.w3.org/2000/svg" xmlns:xlink="http://www.w3.org/1999/xlink" x="0px" y="0px"
	 viewBox="0 0 100 100" style="enable-background:new 0 0 100 100;" xml:space="preserve">
<path d="M20.4,32c0,0.275-0.019,0.537-0.055,0.791c-0.036,0.253-0.089,0.497-0.157,0.734c-0.069,0.237-0.153,0.469-0.252,0.697
	c-0.099,0.228-0.211,0.453-0.336,0.678c-0.125,0.2-0.262,0.394-0.413,0.58c-0.15,0.186-0.312,0.364-0.487,0.532
	c-0.175,0.169-0.362,0.328-0.562,0.477c-0.2,0.148-0.413,0.286-0.638,0.411c-0.175,0.1-0.35,0.188-0.527,0.264
	s-0.354,0.142-0.535,0.199c-0.181,0.056-0.366,0.103-0.555,0.142S15.5,37.575,15.3,37.6c-0.175,0.025-0.369,0.05-0.578,0.073
	c-0.209,0.024-0.434,0.046-0.672,0.065c-0.238,0.019-0.488,0.034-0.747,0.045C13.044,37.794,12.775,37.8,12.5,37.8h-0.825H10.85
	h-0.825H9.2v-2.9V32v-2.9v-2.9H10h0.8h0.8h0.8c0.325,0,0.637,0.006,0.934,0.017c0.297,0.011,0.578,0.026,0.841,0.045
	c0.262,0.019,0.506,0.041,0.728,0.064s0.422,0.049,0.597,0.073c0.2,0.05,0.387,0.1,0.564,0.152c0.177,0.052,0.342,0.104,0.498,0.16
	s0.303,0.115,0.442,0.18s0.271,0.133,0.396,0.208c0.225,0.125,0.438,0.256,0.638,0.397c0.2,0.141,0.387,0.291,0.562,0.453
	s0.337,0.338,0.487,0.528s0.288,0.397,0.413,0.622c0.15,0.2,0.281,0.406,0.394,0.622c0.112,0.216,0.206,0.441,0.281,0.678
	c0.075,0.238,0.131,0.488,0.169,0.753S20.4,31.7,20.4,32z M18.4,31.9c0-0.225-0.012-0.438-0.036-0.641s-0.058-0.397-0.102-0.584
	s-0.097-0.369-0.158-0.547c-0.061-0.178-0.129-0.353-0.204-0.528c-0.1-0.15-0.206-0.294-0.32-0.431s-0.236-0.269-0.368-0.394
	c-0.131-0.125-0.271-0.244-0.423-0.356C16.638,28.306,16.475,28.2,16.3,28.1c-0.125-0.05-0.25-0.1-0.377-0.149
	s-0.255-0.096-0.385-0.139s-0.266-0.084-0.405-0.12c-0.139-0.036-0.283-0.067-0.433-0.092s-0.306-0.05-0.469-0.073
	c-0.163-0.024-0.331-0.046-0.506-0.065s-0.356-0.035-0.544-0.045S12.8,27.4,12.6,27.4h-0.35H11.9h-0.35H11.2v2.225v2.225v2.225V36.3
	h0.35h0.35h0.35h0.35c0.2,0,0.4-0.006,0.597-0.017c0.197-0.011,0.391-0.026,0.578-0.045c0.187-0.019,0.369-0.041,0.541-0.064
	S14.65,36.125,14.8,36.1s0.3-0.056,0.448-0.094c0.148-0.037,0.295-0.081,0.439-0.131c0.144-0.05,0.285-0.106,0.42-0.169
	s0.267-0.131,0.392-0.206c0.175-0.1,0.331-0.2,0.473-0.303c0.142-0.103,0.271-0.209,0.39-0.322c0.119-0.112,0.228-0.231,0.333-0.359
	C17.8,34.388,17.9,34.25,18,34.1s0.175-0.306,0.231-0.47c0.056-0.164,0.094-0.336,0.119-0.517c0.025-0.181,0.038-0.372,0.044-0.574
	C18.4,32.337,18.4,32.125,18.4,31.9z"/>
<path d="M27.4,37.7h-1.375H24.65h-1.375H21.9v-0.3v-0.3v-0.3v-0.3h0.45h0.45h0.45h0.45v-2.3v-2.3v-2.3v-2.3h-0.45H22.8h-0.45H21.9
	V27v-0.3v-0.3v-0.3h1.375h1.375h1.375H27.4v0.3v0.3V27v0.3h-0.45H26.5h-0.45H25.6v2.3v2.3v2.3v2.3h0.45h0.45h0.45h0.45v0.3v0.3v0.3
	V37.7z"/>
<path d="M40,26.2l-1.225,2.9L37.55,32l-1.225,2.9L35.1,37.8h-0.5h-0.5h-0.5h-0.5l-1.225-2.9L30.65,32l-1.225-2.9L28.2,26.2h0.5h0.5
	h0.5h0.5l0.975,2.4L32.15,31l0.975,2.4l0.975,2.4l0.975-2.4L36.05,31l0.975-2.4L38,26.2c0,0,0.125,0,0.312,0s0.438,0,0.688,0
	s0.5,0,0.688,0S40,26.2,40,26.2z"/>
<path d="M46.3,37.7h-1.375H43.55h-1.375H40.8v-0.3v-0.3v-0.3v-0.3h0.45h0.45h0.45h0.45v-2.3v-2.3v-2.3v-2.3h-0.45H41.7h-0.45H40.8
	V27v-0.3v-0.3v-0.3h1.375h1.375h1.375H46.3v0.3v0.3V27v0.3h-0.45H45.4h-0.45H44.5v2.3v2.3v2.3v2.3h0.45h0.45h0.45h0.45v0.3v0.3v0.3
	V37.7z"/>
<path d="M52.6,37.9c-0.25,0-0.494-0.006-0.73-0.019s-0.464-0.031-0.682-0.056s-0.428-0.056-0.627-0.094
	C50.363,37.694,50.175,37.65,50,37.6s-0.35-0.1-0.523-0.15s-0.346-0.1-0.514-0.15c-0.168-0.05-0.334-0.1-0.495-0.15
	C48.306,37.1,48.15,37.05,48,37v-0.475V36.05v-0.475V35.1h0.025h0.025h0.025H48.1c0.15,0.125,0.306,0.237,0.469,0.341
	c0.162,0.103,0.331,0.197,0.506,0.284s0.356,0.169,0.544,0.247S50,36.125,50.2,36.2s0.394,0.138,0.584,0.189
	c0.191,0.052,0.378,0.092,0.566,0.123s0.375,0.053,0.566,0.067S52.3,36.6,52.5,36.6c0.25,0,0.487-0.013,0.713-0.036
	c0.225-0.024,0.438-0.058,0.637-0.102c0.2-0.044,0.388-0.097,0.562-0.158S54.75,36.174,54.9,36.1c0.125-0.1,0.237-0.2,0.336-0.303
	c0.098-0.103,0.183-0.209,0.251-0.322c0.069-0.112,0.122-0.231,0.158-0.359C55.681,34.987,55.7,34.85,55.7,34.7
	c0-0.125-0.006-0.237-0.02-0.341c-0.014-0.103-0.036-0.197-0.068-0.284s-0.072-0.169-0.123-0.247S55.375,33.675,55.3,33.6
	s-0.156-0.144-0.245-0.206s-0.186-0.119-0.292-0.169c-0.106-0.05-0.222-0.094-0.349-0.131S54.15,33.025,54,33
	c-0.1-0.025-0.2-0.05-0.3-0.075c-0.1-0.025-0.2-0.05-0.3-0.075s-0.2-0.05-0.3-0.075c-0.1-0.025-0.2-0.05-0.3-0.075
	s-0.2-0.05-0.303-0.075s-0.209-0.05-0.322-0.075c-0.113-0.025-0.231-0.05-0.359-0.075c-0.128-0.025-0.266-0.05-0.416-0.075
	c-0.125-0.025-0.244-0.05-0.358-0.076c-0.114-0.026-0.224-0.054-0.33-0.085c-0.106-0.032-0.209-0.066-0.311-0.105
	C50.3,32.094,50.2,32.05,50.1,32s-0.194-0.1-0.283-0.15c-0.089-0.05-0.174-0.1-0.255-0.15c-0.081-0.05-0.159-0.1-0.236-0.15
	c-0.076-0.05-0.152-0.1-0.227-0.15c-0.075-0.075-0.144-0.15-0.208-0.225c-0.064-0.075-0.124-0.15-0.18-0.225
	c-0.056-0.075-0.109-0.15-0.16-0.225C48.5,30.65,48.45,30.575,48.4,30.5s-0.088-0.156-0.116-0.244
	c-0.028-0.087-0.047-0.181-0.059-0.281s-0.019-0.206-0.022-0.319C48.2,29.544,48.2,29.425,48.2,29.3
	c0-0.225,0.025-0.444,0.076-0.656c0.051-0.212,0.129-0.419,0.236-0.619c0.106-0.2,0.241-0.394,0.405-0.581
	c0.164-0.188,0.357-0.369,0.582-0.544c0.225-0.15,0.463-0.288,0.714-0.409c0.252-0.122,0.517-0.228,0.799-0.316
	s0.578-0.156,0.893-0.203S52.55,25.9,52.9,25.9c0.2,0,0.394,0.006,0.584,0.017c0.191,0.011,0.378,0.026,0.566,0.045
	s0.375,0.041,0.566,0.064S55,26.075,55.2,26.1c0.175,0.025,0.35,0.056,0.523,0.094s0.346,0.081,0.514,0.131
	c0.169,0.05,0.334,0.106,0.495,0.169c0.161,0.062,0.317,0.131,0.467,0.206v0.45v0.45v0.45v0.45h-0.025H57.15h-0.025H57.1
	c-0.125-0.075-0.25-0.15-0.378-0.225c-0.128-0.075-0.259-0.15-0.397-0.225s-0.281-0.15-0.434-0.225
	c-0.153-0.075-0.316-0.15-0.491-0.225s-0.35-0.138-0.527-0.189c-0.176-0.052-0.354-0.092-0.535-0.123
	c-0.181-0.031-0.366-0.053-0.555-0.068C53.594,27.206,53.4,27.2,53.2,27.2c-0.225,0-0.438,0.013-0.638,0.036
	c-0.2,0.024-0.387,0.058-0.562,0.102c-0.175,0.043-0.338,0.097-0.487,0.157c-0.15,0.061-0.288,0.13-0.413,0.205
	s-0.237,0.163-0.336,0.259c-0.098,0.097-0.183,0.203-0.251,0.316c-0.069,0.112-0.122,0.231-0.158,0.353
	C50.319,28.75,50.3,28.875,50.3,29s0.013,0.244,0.036,0.356c0.023,0.112,0.058,0.219,0.102,0.319c0.043,0.1,0.097,0.194,0.157,0.281
	s0.13,0.169,0.205,0.244s0.163,0.144,0.261,0.206s0.208,0.119,0.327,0.169c0.118,0.05,0.246,0.094,0.382,0.131
	c0.136,0.037,0.28,0.069,0.43,0.094c0.1,0.025,0.206,0.05,0.319,0.075c0.112,0.025,0.231,0.05,0.356,0.075s0.256,0.05,0.394,0.075
	c0.138,0.025,0.281,0.05,0.431,0.075s0.294,0.05,0.43,0.075c0.136,0.025,0.264,0.05,0.382,0.075s0.228,0.05,0.327,0.075
	c0.099,0.025,0.186,0.05,0.261,0.075c0.25,0.05,0.481,0.112,0.694,0.186c0.213,0.073,0.406,0.158,0.581,0.252
	c0.175,0.094,0.331,0.197,0.469,0.307S57.1,32.375,57.2,32.5c0.125,0.125,0.231,0.256,0.32,0.394
	c0.089,0.138,0.161,0.281,0.217,0.431c0.056,0.15,0.097,0.306,0.124,0.469c0.027,0.162,0.039,0.331,0.039,0.506
	c0,0.125-0.006,0.244-0.019,0.358c-0.013,0.114-0.031,0.224-0.056,0.33c-0.025,0.106-0.056,0.209-0.094,0.311
	C57.694,35.4,57.65,35.5,57.6,35.6s-0.106,0.2-0.169,0.298s-0.131,0.195-0.206,0.289s-0.156,0.184-0.244,0.27
	C56.894,36.543,56.8,36.625,56.7,36.7c-0.125,0.075-0.25,0.15-0.377,0.223c-0.127,0.074-0.255,0.146-0.386,0.215
	s-0.266,0.134-0.405,0.195C55.394,37.394,55.25,37.45,55.1,37.5c-0.225,0.075-0.438,0.138-0.644,0.189
	c-0.206,0.052-0.406,0.092-0.606,0.123c-0.2,0.031-0.4,0.054-0.606,0.068C53.037,37.894,52.825,37.9,52.6,37.9z"/>
<path d="M64.5,37.7h-1.375H61.75h-1.375H59v-0.3v-0.3v-0.3v-0.3h0.45h0.45h0.45h0.45v-2.3v-2.3v-2.3v-2.3h-0.45H59.9h-0.45H59V27
	v-0.3v-0.3v-0.3h1.375h1.375h1.375H64.5v0.3v0.3V27v0.3h-0.45H63.6h-0.45H62.7v2.3v2.3v2.3v2.3h0.45h0.45h0.45h0.45v0.3v0.3v0.3
	V37.7z"/>
<path d="M76.9,27.5c0.125,0.125,0.25,0.256,0.372,0.395c0.122,0.139,0.241,0.286,0.353,0.442c0.113,0.156,0.219,0.322,0.316,0.499
	c0.097,0.177,0.184,0.364,0.259,0.564s0.137,0.4,0.189,0.603s0.092,0.409,0.123,0.622c0.032,0.212,0.054,0.431,0.068,0.659
	C78.594,31.513,78.6,31.75,78.6,32c0,0.225-0.006,0.45-0.02,0.672c-0.014,0.222-0.036,0.441-0.068,0.653s-0.072,0.419-0.123,0.616
	c-0.051,0.197-0.114,0.384-0.189,0.559c-0.075,0.2-0.156,0.388-0.245,0.564c-0.089,0.177-0.186,0.342-0.292,0.498
	c-0.106,0.156-0.222,0.304-0.349,0.443S77.05,36.275,76.9,36.4s-0.306,0.244-0.467,0.356c-0.161,0.112-0.327,0.219-0.496,0.319
	s-0.341,0.194-0.514,0.281S75.075,37.525,74.9,37.6c-0.2,0.075-0.4,0.138-0.603,0.189c-0.203,0.052-0.409,0.092-0.622,0.123
	c-0.213,0.031-0.431,0.054-0.659,0.068C72.788,37.994,72.55,38,72.3,38s-0.488-0.006-0.716-0.02
	c-0.228-0.014-0.447-0.036-0.659-0.067s-0.419-0.072-0.622-0.124S69.9,37.675,69.7,37.6s-0.387-0.156-0.566-0.244
	c-0.178-0.088-0.347-0.181-0.509-0.281s-0.319-0.206-0.472-0.319C68,36.644,67.85,36.525,67.7,36.4
	c-0.125-0.125-0.25-0.256-0.372-0.395c-0.122-0.139-0.241-0.286-0.353-0.443c-0.112-0.156-0.219-0.321-0.316-0.498
	C66.562,34.888,66.475,34.7,66.4,34.5c-0.075-0.175-0.138-0.362-0.189-0.559c-0.051-0.197-0.092-0.403-0.123-0.616
	s-0.053-0.431-0.067-0.653C66.007,32.45,66,32.225,66,32c0-0.25,0.006-0.487,0.02-0.716c0.014-0.228,0.036-0.447,0.068-0.659
	s0.072-0.419,0.123-0.622S66.325,29.6,66.4,29.4s0.156-0.387,0.245-0.564c0.089-0.177,0.186-0.342,0.292-0.498
	c0.106-0.156,0.222-0.303,0.349-0.443c0.127-0.139,0.264-0.27,0.414-0.395c0.125-0.125,0.262-0.244,0.411-0.356
	c0.148-0.112,0.308-0.219,0.476-0.319c0.169-0.1,0.347-0.194,0.533-0.281s0.38-0.169,0.58-0.244s0.4-0.137,0.603-0.189
	s0.409-0.092,0.622-0.123c0.213-0.031,0.431-0.054,0.659-0.068c0.228-0.014,0.466-0.02,0.716-0.02s0.488,0.006,0.716,0.02
	c0.228,0.014,0.447,0.036,0.659,0.067s0.419,0.072,0.622,0.124S74.7,26.225,74.9,26.3s0.394,0.156,0.58,0.244
	s0.364,0.181,0.532,0.281c0.169,0.1,0.328,0.206,0.477,0.319C76.637,27.256,76.775,27.375,76.9,27.5z M76.6,31.9
	c0-0.2-0.006-0.387-0.019-0.566c-0.012-0.178-0.031-0.347-0.056-0.509s-0.056-0.319-0.094-0.472C76.394,30.2,76.35,30.05,76.3,29.9
	s-0.106-0.294-0.169-0.431C76.069,29.331,76,29.2,75.925,29.075s-0.156-0.244-0.244-0.356S75.5,28.5,75.4,28.4
	s-0.2-0.194-0.303-0.281s-0.209-0.169-0.322-0.244s-0.231-0.144-0.359-0.206C74.288,27.606,74.15,27.55,74,27.5
	s-0.294-0.094-0.436-0.131s-0.283-0.069-0.426-0.094c-0.144-0.025-0.291-0.044-0.446-0.056C72.537,27.206,72.375,27.2,72.2,27.2
	s-0.344,0.006-0.506,0.019c-0.162,0.013-0.319,0.031-0.469,0.056c-0.15,0.025-0.294,0.056-0.431,0.094S70.525,27.45,70.4,27.5
	s-0.25,0.106-0.373,0.169c-0.124,0.062-0.245,0.131-0.365,0.206c-0.118,0.075-0.234,0.156-0.345,0.244
	C69.206,28.206,69.1,28.3,69,28.4s-0.194,0.206-0.281,0.319c-0.088,0.113-0.169,0.231-0.244,0.356s-0.144,0.256-0.206,0.394
	S68.15,29.75,68.1,29.9s-0.094,0.306-0.131,0.467c-0.038,0.161-0.069,0.326-0.094,0.495c-0.025,0.169-0.044,0.341-0.056,0.514
	C67.806,31.55,67.8,31.725,67.8,31.9c0,0.375,0.025,0.731,0.075,1.067c0.05,0.336,0.125,0.651,0.225,0.945
	c0.1,0.294,0.225,0.566,0.375,0.815C68.625,34.975,68.8,35.2,69,35.4s0.412,0.375,0.639,0.525s0.467,0.275,0.723,0.375
	c0.257,0.1,0.529,0.175,0.818,0.225c0.289,0.05,0.595,0.075,0.92,0.075s0.638-0.025,0.934-0.075c0.297-0.05,0.578-0.125,0.841-0.225
	s0.506-0.225,0.728-0.375c0.222-0.15,0.422-0.325,0.597-0.525s0.35-0.419,0.514-0.659c0.164-0.241,0.317-0.503,0.449-0.791
	s0.241-0.6,0.317-0.941C76.556,32.669,76.6,32.3,76.6,31.9z"/>
<path d="M90.8,37.7h-0.525H89.75h-0.525H88.7l-1.575-2.5l-1.575-2.5l-1.575-2.5L82.4,27.7v2.5v2.5v2.5v2.5h-0.45H81.5h-0.45H80.6
	v-2.875V31.95v-2.875V26.2h0.675h0.675h0.675H83.3l1.425,2.275l1.425,2.275l1.425,2.275L89,35.3v-2.275V30.75v-2.275V26.2h0.45h0.45
	h0.45h0.45c0,0,0,0.719,0,1.797s0,2.516,0,3.953s0,2.875,0,3.953S90.8,37.7,90.8,37.7z"/>
<path d="M43.9,73.4h-7.1h-7.1h-7.1h-7.1v-1.475V70.45v-1.475V67.5h2.275h2.275h2.275H24.6v-4.45V58.6v-4.45V49.7h-2.275H20.05
	h-2.275H15.5v-1.375V46.95v-1.375V44.2c0.325,0,0.65-0.006,0.976-0.017c0.326-0.011,0.655-0.026,0.986-0.045
	c0.331-0.019,0.666-0.041,1.005-0.065C18.806,44.05,19.15,44.025,19.5,44c0.325-0.025,0.638-0.062,0.934-0.109
	s0.578-0.103,0.841-0.166s0.506-0.131,0.728-0.203c0.222-0.072,0.422-0.147,0.597-0.222c0.225-0.1,0.438-0.2,0.639-0.305
	c0.201-0.105,0.392-0.214,0.573-0.333c0.181-0.118,0.354-0.246,0.518-0.389c0.164-0.142,0.32-0.298,0.47-0.473
	c0.125-0.15,0.237-0.312,0.337-0.486c0.1-0.173,0.188-0.358,0.263-0.551c0.075-0.194,0.137-0.397,0.188-0.608
	c0.05-0.211,0.087-0.43,0.112-0.655h2.325h2.325h2.325H35v6.975v6.975v6.975V67.4h2.225h2.225h2.225H43.9v1.5v1.5v1.5V73.4z"/>
<path d="M82.9,56.5c0,0.725-0.019,1.431-0.056,2.117c-0.037,0.686-0.094,1.351-0.169,1.995c-0.075,0.644-0.169,1.266-0.281,1.865
	C82.281,63.075,82.15,63.65,82,64.2c-0.15,0.55-0.325,1.075-0.523,1.576s-0.421,0.979-0.665,1.436
	c-0.243,0.457-0.509,0.891-0.795,1.305S79.425,69.325,79.1,69.7s-0.675,0.725-1.05,1.05c-0.375,0.325-0.775,0.625-1.2,0.9
	c-0.425,0.275-0.875,0.525-1.35,0.75c-0.475,0.225-0.975,0.425-1.5,0.6s-1.081,0.331-1.667,0.467
	c-0.586,0.136-1.201,0.251-1.845,0.345s-1.315,0.165-2.014,0.214C67.775,74.075,67.05,74.1,66.3,74.1s-1.475-0.025-2.174-0.073
	c-0.699-0.048-1.37-0.12-2.014-0.214s-1.259-0.209-1.845-0.345C59.681,73.331,59.125,73.175,58.6,73s-1.025-0.381-1.5-0.616
	s-0.925-0.497-1.35-0.784s-0.825-0.6-1.2-0.934s-0.725-0.691-1.05-1.066s-0.631-0.769-0.917-1.183
	c-0.286-0.414-0.551-0.849-0.795-1.305c-0.244-0.456-0.466-0.934-0.664-1.436C50.925,65.175,50.75,64.65,50.6,64.1
	c-0.15-0.55-0.281-1.119-0.394-1.708c-0.112-0.589-0.206-1.198-0.281-1.829c-0.075-0.632-0.131-1.285-0.169-1.961
	C49.719,57.925,49.7,57.225,49.7,56.5c0-0.75,0.019-1.469,0.056-2.159c0.037-0.691,0.094-1.353,0.169-1.991s0.169-1.25,0.281-1.841
	S50.45,49.35,50.6,48.8c0.15-0.525,0.325-1.031,0.523-1.52c0.199-0.489,0.421-0.961,0.665-1.418s0.509-0.897,0.795-1.323
	c0.286-0.426,0.592-0.839,0.917-1.239c0.325-0.375,0.681-0.725,1.066-1.05c0.384-0.325,0.797-0.625,1.234-0.9s0.9-0.525,1.384-0.75
	s0.991-0.425,1.516-0.6c0.525-0.175,1.075-0.331,1.652-0.467s1.18-0.251,1.811-0.345s1.291-0.166,1.98-0.214
	C64.831,38.925,65.55,38.9,66.3,38.9c0.775,0,1.519,0.025,2.231,0.073c0.713,0.048,1.394,0.12,2.044,0.214
	c0.65,0.094,1.269,0.21,1.856,0.346c0.587,0.136,1.144,0.292,1.669,0.466c0.525,0.2,1.025,0.419,1.5,0.658s0.925,0.499,1.35,0.78
	s0.825,0.585,1.2,0.911s0.725,0.677,1.05,1.052s0.631,0.769,0.916,1.183c0.284,0.414,0.547,0.848,0.784,1.304
	c0.237,0.456,0.45,0.935,0.634,1.436C81.719,47.825,81.875,48.35,82,48.9c0.15,0.575,0.281,1.162,0.394,1.764
	s0.206,1.217,0.281,1.848c0.075,0.632,0.131,1.278,0.169,1.943C82.881,55.119,82.9,55.8,82.9,56.5z M72.1,56.5
	c0-1.05-0.025-2.019-0.076-2.908s-0.13-1.699-0.235-2.43c-0.106-0.731-0.241-1.384-0.405-1.96S71.025,48.125,70.8,47.7
	s-0.488-0.794-0.786-1.108c-0.298-0.314-0.633-0.574-1.001-0.78c-0.369-0.206-0.772-0.359-1.208-0.46
	C67.369,45.25,66.9,45.2,66.4,45.2c-0.525,0-1.006,0.05-1.447,0.152s-0.841,0.255-1.203,0.46c-0.362,0.206-0.688,0.465-0.978,0.78
	C62.481,46.906,62.225,47.275,62,47.7s-0.419,0.925-0.583,1.501c-0.164,0.576-0.298,1.229-0.404,1.961
	c-0.106,0.731-0.185,1.541-0.236,2.43C60.725,54.481,60.7,55.45,60.7,56.5c0,1.025,0.025,1.975,0.076,2.85
	c0.051,0.875,0.129,1.675,0.236,2.4c0.106,0.725,0.241,1.375,0.405,1.95c0.164,0.575,0.357,1.075,0.582,1.5s0.487,0.8,0.785,1.123
	c0.299,0.324,0.633,0.596,1.001,0.815c0.37,0.218,0.773,0.384,1.209,0.495C65.431,67.744,65.9,67.8,66.4,67.8
	c0.525,0,1.006-0.056,1.447-0.167c0.441-0.111,0.841-0.276,1.203-0.495s0.688-0.491,0.978-0.814s0.547-0.699,0.772-1.124
	c0.2-0.4,0.381-0.888,0.541-1.458c0.159-0.57,0.297-1.223,0.409-1.954c0.113-0.731,0.2-1.541,0.259-2.424
	C72.069,58.481,72.1,57.525,72.1,56.5z"/>
</svg>
