<?xml version="1.0" encoding="utf-8"?>
<!-- Generator: Adobe Illustrator 25.2.0, SVG Export Plug-In . SVG Version: 6.00 Build 0)  -->
<svg version="1.1" id="Layer_1" xmlns="http://www.w3.org/2000/svg" xmlns:xlink="http://www.w3.org/1999/xlink" x="0px" y="0px"
	 viewBox="0 0 100 100" style="enable-background:new 0 0 100 100;" xml:space="preserve">
<g>
	<path d="M11.9,71.2V28.8h7.8l4.7,28.9l4.7-28.9H37v42.4h-4.9V37.8L27,71.2h-5l-5.1-33.4v33.4H11.9z"/>
	<path d="M42.2,71.2V28.8h19.2V36h-14v9.4h13v7.1h-13v11.5h14.5v7.1H42.2z"/>
	<path d="M66.3,28.8h9.6c2.2,0,3.8,0.3,4.9,0.8c1.5,0.7,2.8,2,3.9,3.9s1.9,4.2,2.5,6.9c0.6,2.7,0.8,6,0.8,10c0,3.5-0.3,6.5-0.8,9
		c-0.6,3.1-1.6,5.6-2.8,7.5c-0.9,1.4-2.1,2.6-3.7,3.4c-1.2,0.6-2.7,0.9-4.6,0.9h-9.9V28.8z M71.6,36v28.1h3.9c1.5,0,2.5-0.1,3.2-0.4
		c0.8-0.3,1.6-0.9,2.1-1.8c0.6-0.8,1-2.2,1.4-4.1c0.4-1.9,0.5-4.5,0.5-7.8c0-3.3-0.2-5.8-0.5-7.5c-0.4-1.8-0.8-3.1-1.5-4.1
		c-0.6-1-1.4-1.6-2.4-2c-0.7-0.3-2.2-0.4-4.3-0.4H71.6z"/>
</g>
</svg>
