<?xml version="1.0" encoding="iso-8859-1"?>
<!-- Generator: Adobe Illustrator 25.4.1, SVG Export Plug-In . SVG Version: 6.00 Build 0)  -->
<svg version="1.1" id="Layer_1" xmlns="http://www.w3.org/2000/svg" xmlns:xlink="http://www.w3.org/1999/xlink" x="0px" y="0px"
	 viewBox="0 0 100 100" style="enable-background:new 0 0 100 100;" xml:space="preserve">
<path d="M14.9,58.2v-7.725V42.75v-7.725V27.3h4.775h4.775h4.775H34v1.3v1.3v1.3v1.3h-3.475H27.05h-3.475H20.1v1.7v1.7v1.7v1.7h3.225
	h3.225h3.225H33v1.3v1.3v1.3v1.3h-3.225H26.55h-3.225H20.1v2.125v2.125v2.125V53h3.6h3.6h3.6h3.6v1.3v1.3v1.3v1.3h-4.9h-4.9
	c0,0-2.45,0-4.9,0S14.9,58.2,14.9,58.2z"/>
<path d="M38.9,58.2v-7.725V42.75v-7.725V27.3h1.95h1.95h1.95h1.95l1.175,5.275l1.175,5.275l1.175,5.275L51.4,48.4l1.15-5.275
	l1.15-5.275l1.15-5.275L56,27.3h1.95h1.95h1.95h1.95v7.725v7.725v7.725V58.2h-1.2h-1.2h-1.2H59v-6.075V46.05v-6.075V33.9
	l-1.275,6.075L56.45,46.05l-1.275,6.075L53.9,58.2h-1.25H51.4h-1.25H48.9l-1.275-6.075L46.35,46.05l-1.275-6.075L43.8,33.9v6.075
	v6.075v6.075V58.2h-1.225H41.35h-1.225H38.9z"/>
<path d="M67.6,48.1l1.275-0.15l1.275-0.15l1.275-0.15L72.7,47.5c0.075,0.5,0.169,0.969,0.283,1.406
	c0.114,0.438,0.249,0.844,0.405,1.219s0.334,0.719,0.536,1.031C74.125,51.469,74.35,51.75,74.6,52
	c0.225,0.25,0.475,0.463,0.748,0.641s0.57,0.322,0.889,0.434c0.319,0.112,0.66,0.194,1.021,0.247C77.619,53.375,78,53.4,78.4,53.4
	c0.425,0,0.819-0.025,1.184-0.076s0.703-0.13,1.016-0.236c0.312-0.107,0.6-0.241,0.866-0.405s0.509-0.357,0.734-0.582
	s0.419-0.45,0.583-0.68c0.164-0.23,0.299-0.464,0.405-0.708c0.106-0.244,0.184-0.497,0.236-0.764S83.5,49.4,83.5,49.1
	c0-0.175-0.012-0.35-0.036-0.522s-0.058-0.341-0.101-0.503s-0.097-0.319-0.158-0.466S83.075,47.325,83,47.2
	c-0.1-0.125-0.212-0.25-0.339-0.372c-0.127-0.122-0.267-0.241-0.424-0.353c-0.156-0.112-0.328-0.219-0.517-0.316
	s-0.395-0.184-0.62-0.259c-0.15-0.075-0.35-0.156-0.6-0.245s-0.55-0.186-0.9-0.292c-0.35-0.107-0.75-0.222-1.2-0.349
	c-0.45-0.127-0.95-0.264-1.5-0.414c-0.7-0.2-1.344-0.412-1.934-0.639c-0.591-0.227-1.128-0.467-1.616-0.723
	c-0.487-0.257-0.925-0.528-1.316-0.818C71.644,42.131,71.3,41.825,71,41.5c-0.4-0.425-0.75-0.875-1.05-1.348s-0.55-0.971-0.75-1.49
	c-0.2-0.518-0.35-1.059-0.45-1.62c-0.1-0.561-0.15-1.142-0.15-1.742c0-0.4,0.025-0.787,0.073-1.166
	c0.048-0.378,0.12-0.747,0.214-1.109c0.094-0.362,0.21-0.719,0.346-1.072C69.369,31.6,69.525,31.25,69.7,30.9
	s0.375-0.675,0.599-0.976c0.223-0.302,0.47-0.58,0.739-0.836c0.269-0.256,0.559-0.491,0.87-0.705S72.55,27.975,72.9,27.8
	s0.719-0.331,1.106-0.467c0.388-0.136,0.794-0.251,1.219-0.345s0.869-0.166,1.331-0.214S77.5,26.7,78,26.7
	c0.8,0,1.556,0.05,2.266,0.152c0.709,0.101,1.372,0.254,1.984,0.46c0.613,0.207,1.175,0.466,1.684,0.78
	c0.509,0.314,0.966,0.683,1.366,1.108s0.756,0.888,1.067,1.386c0.311,0.499,0.577,1.033,0.796,1.602
	c0.219,0.569,0.391,1.172,0.514,1.808C87.8,34.632,87.875,35.3,87.9,36l-1.3,0.075l-1.3,0.075L84,36.225L82.7,36.3
	c-0.05-0.4-0.119-0.769-0.205-1.108c-0.086-0.339-0.189-0.648-0.307-0.929c-0.119-0.282-0.254-0.535-0.402-0.761
	c-0.149-0.227-0.311-0.427-0.486-0.602s-0.375-0.325-0.6-0.452s-0.475-0.23-0.75-0.311c-0.275-0.081-0.575-0.14-0.9-0.179
	C78.725,31.919,78.375,31.9,78,31.9s-0.731,0.025-1.069,0.073s-0.656,0.12-0.956,0.214s-0.581,0.209-0.844,0.345
	C74.869,32.669,74.625,32.825,74.4,33c-0.15,0.125-0.275,0.256-0.378,0.395s-0.184,0.286-0.247,0.443s-0.106,0.322-0.134,0.498
	C73.613,34.513,73.6,34.7,73.6,34.9c0,0.175,0.019,0.35,0.055,0.522s0.089,0.341,0.158,0.503s0.153,0.319,0.252,0.466
	s0.211,0.284,0.336,0.409c0.175,0.175,0.406,0.344,0.694,0.511c0.288,0.167,0.631,0.333,1.031,0.502
	c0.4,0.168,0.856,0.34,1.369,0.52c0.512,0.18,1.081,0.367,1.706,0.567s1.213,0.394,1.761,0.583c0.548,0.189,1.058,0.374,1.526,0.555
	s0.897,0.359,1.283,0.536s0.73,0.351,1.03,0.526c0.3,0.2,0.588,0.412,0.859,0.639s0.528,0.467,0.766,0.723
	c0.238,0.257,0.456,0.528,0.653,0.818c0.197,0.289,0.372,0.595,0.522,0.92c0.175,0.325,0.325,0.675,0.451,1.047
	c0.126,0.372,0.229,0.766,0.311,1.178c0.081,0.413,0.141,0.844,0.18,1.291c0.039,0.447,0.058,0.909,0.058,1.384
	c0,0.45-0.025,0.888-0.075,1.316c-0.05,0.428-0.125,0.847-0.225,1.259s-0.225,0.819-0.375,1.222C87.775,53.3,87.6,53.7,87.4,54.1
	c-0.2,0.375-0.425,0.731-0.674,1.066c-0.249,0.334-0.521,0.647-0.814,0.934c-0.294,0.287-0.609,0.55-0.945,0.784
	c-0.336,0.234-0.692,0.441-1.067,0.616c-0.375,0.2-0.775,0.369-1.198,0.509c-0.423,0.141-0.87,0.253-1.339,0.341
	s-0.959,0.15-1.47,0.191C79.382,58.581,78.85,58.6,78.3,58.6c-0.825,0-1.6-0.056-2.325-0.169c-0.725-0.112-1.4-0.281-2.025-0.506
	s-1.2-0.506-1.725-0.844c-0.525-0.338-1-0.731-1.425-1.181c-0.45-0.425-0.85-0.906-1.203-1.444
	c-0.353-0.538-0.659-1.131-0.922-1.781s-0.481-1.356-0.659-2.119C67.838,49.794,67.7,48.975,67.6,48.1z"/>
<path d="M19,68.5v-0.525V67.45v-0.525V66.4h1.7h1.7h1.7h1.7v1.225v1.225v1.225V71.3c-0.175,0.125-0.362,0.25-0.566,0.372
	c-0.203,0.122-0.422,0.241-0.659,0.353s-0.494,0.219-0.772,0.316c-0.278,0.097-0.578,0.184-0.903,0.259
	c-0.3,0.1-0.606,0.188-0.917,0.262c-0.311,0.075-0.627,0.138-0.946,0.188c-0.319,0.05-0.64,0.088-0.964,0.113
	C19.75,73.188,19.425,73.2,19.1,73.2c-0.4,0-0.788-0.019-1.163-0.055s-0.737-0.089-1.087-0.158c-0.35-0.068-0.688-0.153-1.013-0.252
	c-0.325-0.099-0.637-0.211-0.937-0.336s-0.581-0.269-0.844-0.43s-0.506-0.339-0.731-0.533s-0.431-0.403-0.619-0.626
	c-0.188-0.223-0.356-0.46-0.506-0.71s-0.281-0.506-0.394-0.769c-0.112-0.262-0.206-0.531-0.281-0.806
	c-0.075-0.275-0.131-0.556-0.169-0.844C11.319,67.394,11.3,67.1,11.3,66.8c0-0.325,0.019-0.637,0.058-0.939
	c0.039-0.301,0.099-0.592,0.18-0.873c0.081-0.282,0.184-0.554,0.311-0.818c0.127-0.264,0.276-0.52,0.451-0.77
	s0.369-0.487,0.581-0.711c0.212-0.224,0.444-0.433,0.694-0.627c0.25-0.194,0.519-0.372,0.806-0.532
	c0.288-0.161,0.594-0.305,0.919-0.43c0.25-0.1,0.512-0.188,0.789-0.263s0.567-0.138,0.874-0.188s0.628-0.088,0.967-0.112
	C18.269,60.512,18.625,60.5,19,60.5c0.475,0,0.925,0.019,1.35,0.058c0.425,0.039,0.825,0.098,1.2,0.179s0.725,0.184,1.05,0.311
	c0.325,0.127,0.625,0.277,0.9,0.452s0.525,0.357,0.75,0.549c0.225,0.192,0.425,0.395,0.6,0.614c0.175,0.219,0.325,0.453,0.45,0.707
	c0.125,0.255,0.225,0.53,0.3,0.83l-0.775,0.125L24.05,64.45l-0.775,0.125L22.5,64.7c-0.05-0.15-0.112-0.294-0.188-0.43
	c-0.075-0.136-0.163-0.264-0.263-0.382c-0.1-0.118-0.213-0.228-0.338-0.327S21.45,63.375,21.3,63.3
	c-0.15-0.1-0.312-0.181-0.486-0.247s-0.358-0.116-0.552-0.153c-0.193-0.037-0.396-0.062-0.607-0.078
	C19.444,62.806,19.225,62.8,19,62.8c-0.35,0-0.681,0.019-0.994,0.058c-0.312,0.039-0.606,0.098-0.881,0.179
	c-0.275,0.082-0.531,0.185-0.769,0.311C16.119,63.475,15.9,63.625,15.7,63.8s-0.375,0.369-0.525,0.583
	c-0.15,0.214-0.275,0.448-0.375,0.704s-0.175,0.534-0.225,0.836S14.5,66.55,14.5,66.9c0,0.375,0.025,0.725,0.075,1.05
	c0.05,0.325,0.125,0.625,0.225,0.9s0.225,0.525,0.375,0.75c0.15,0.225,0.325,0.425,0.525,0.6s0.419,0.331,0.655,0.467
	c0.236,0.136,0.489,0.251,0.757,0.345c0.269,0.094,0.554,0.166,0.852,0.215c0.299,0.049,0.611,0.074,0.936,0.074
	c0.175,0,0.344-0.006,0.509-0.019c0.166-0.012,0.328-0.031,0.491-0.056c0.163-0.025,0.325-0.056,0.491-0.094S20.725,71.05,20.9,71
	s0.337-0.106,0.491-0.166c0.153-0.059,0.297-0.122,0.434-0.184s0.269-0.125,0.397-0.184c0.128-0.059,0.253-0.116,0.378-0.166v-0.4
	v-0.4v-0.4v-0.4h-0.9h-0.9h-0.9H19v-0.05V68.6v-0.05V68.5z"/>
<path d="M28.7,73v-3.075V66.85v-3.075V60.7h1.65H32h1.65h1.65c0.425,0,0.819,0.006,1.181,0.019c0.363,0.013,0.694,0.031,0.994,0.056
	s0.569,0.056,0.806,0.094C38.519,60.906,38.725,60.95,38.9,61c0.2,0.05,0.388,0.112,0.562,0.188S39.8,61.35,39.95,61.45
	s0.287,0.213,0.412,0.338S40.6,62.05,40.7,62.2c0.125,0.15,0.231,0.3,0.32,0.451c0.089,0.152,0.161,0.305,0.217,0.46
	c0.056,0.157,0.097,0.316,0.124,0.48S41.4,63.925,41.4,64.1c0,0.225-0.019,0.444-0.058,0.655c-0.039,0.211-0.098,0.414-0.179,0.607
	c-0.082,0.194-0.185,0.379-0.311,0.552S40.575,66.25,40.4,66.4s-0.369,0.287-0.583,0.411c-0.214,0.123-0.449,0.233-0.705,0.326
	c-0.256,0.094-0.534,0.172-0.836,0.233c-0.302,0.061-0.626,0.105-0.977,0.13c0.175,0.075,0.337,0.156,0.491,0.241
	s0.297,0.172,0.434,0.259c0.138,0.088,0.269,0.175,0.397,0.259S38.875,68.425,39,68.5c0.1,0.1,0.213,0.212,0.338,0.341
	s0.262,0.272,0.412,0.434s0.312,0.344,0.487,0.547S40.6,70.25,40.8,70.5l0.475,0.6l0.475,0.6l0.475,0.6l0.475,0.6h-0.925H40.85
	h-0.925H39l-0.575-0.675L37.85,71.55l-0.575-0.675L36.7,70.2c-0.2-0.25-0.388-0.475-0.561-0.675c-0.174-0.2-0.333-0.375-0.477-0.525
	c-0.144-0.15-0.271-0.275-0.382-0.375S35.075,68.45,35,68.4c-0.075-0.075-0.15-0.138-0.225-0.191
	c-0.075-0.053-0.15-0.097-0.225-0.134s-0.15-0.069-0.225-0.097c-0.075-0.028-0.15-0.053-0.225-0.078s-0.169-0.044-0.278-0.058
	c-0.109-0.014-0.234-0.024-0.372-0.03c-0.137-0.006-0.287-0.009-0.447-0.01C32.844,67.8,32.675,67.8,32.5,67.8h-0.15H32.2h-0.15
	H31.9v1.3v1.3v1.3V73h-0.8h-0.8h-0.8H28.7z M31.8,65.9h0.575h0.575h0.575H34.1c0.375,0,0.712-0.006,1.014-0.017
	c0.301-0.011,0.567-0.026,0.798-0.045s0.428-0.04,0.592-0.064S36.8,65.725,36.9,65.7s0.194-0.056,0.281-0.092
	c0.088-0.036,0.169-0.077,0.244-0.121c0.075-0.044,0.144-0.09,0.206-0.139C37.694,65.3,37.75,65.25,37.8,65.2
	s0.094-0.113,0.131-0.183c0.038-0.07,0.069-0.148,0.094-0.229s0.044-0.165,0.056-0.248S38.1,64.375,38.1,64.3
	c0-0.1-0.006-0.2-0.02-0.297c-0.014-0.097-0.036-0.191-0.068-0.278s-0.072-0.169-0.123-0.241c-0.051-0.072-0.114-0.134-0.189-0.184
	c-0.075-0.075-0.156-0.138-0.244-0.191c-0.087-0.053-0.181-0.097-0.281-0.134s-0.206-0.069-0.319-0.097S36.625,62.825,36.5,62.8
	c-0.075,0-0.175,0-0.303,0s-0.284,0-0.472,0s-0.406,0-0.659,0s-0.541,0-0.866,0h-0.6H33h-0.6h-0.6c0,0,0,0.194,0,0.484
	c0,0.291,0,0.678,0,1.066c0,0.388,0,0.775,0,1.066S31.8,65.9,31.8,65.9z"/>
<path d="M43.7,66.9c0-0.325,0.013-0.631,0.039-0.922c0.027-0.291,0.067-0.566,0.124-0.828c0.056-0.263,0.128-0.513,0.217-0.753
	c0.089-0.241,0.195-0.472,0.32-0.697c0.1-0.15,0.2-0.3,0.303-0.448c0.103-0.149,0.209-0.296,0.322-0.44
	c0.112-0.143,0.231-0.284,0.359-0.42C45.513,62.256,45.65,62.125,45.8,62s0.306-0.244,0.467-0.355s0.326-0.214,0.495-0.307
	c0.169-0.094,0.341-0.179,0.514-0.252c0.174-0.074,0.348-0.136,0.523-0.186c0.25-0.075,0.506-0.144,0.769-0.205
	c0.263-0.061,0.531-0.114,0.806-0.157c0.275-0.044,0.556-0.078,0.844-0.102C50.506,60.413,50.8,60.4,51.1,60.4
	c0.575,0,1.119,0.037,1.633,0.111s0.998,0.183,1.454,0.327c0.457,0.143,0.885,0.321,1.286,0.532c0.402,0.211,0.777,0.455,1.127,0.73
	s0.656,0.581,0.919,0.917c0.263,0.336,0.481,0.702,0.656,1.096c0.175,0.394,0.306,0.815,0.394,1.264
	C58.656,65.825,58.7,66.3,58.7,66.8s-0.044,0.975-0.13,1.424s-0.214,0.871-0.383,1.265s-0.378,0.759-0.626,1.095
	c-0.248,0.336-0.535,0.642-0.861,0.917c-0.35,0.275-0.725,0.519-1.127,0.73c-0.402,0.211-0.83,0.389-1.286,0.532
	c-0.456,0.144-0.94,0.254-1.454,0.327C52.319,73.162,51.775,73.2,51.2,73.2s-1.119-0.037-1.633-0.111s-0.998-0.183-1.454-0.327
	c-0.456-0.143-0.885-0.321-1.286-0.532c-0.402-0.211-0.777-0.455-1.127-0.73c-0.325-0.275-0.612-0.575-0.861-0.902
	c-0.248-0.327-0.458-0.68-0.626-1.061c-0.169-0.381-0.297-0.79-0.383-1.229C43.744,67.869,43.7,67.4,43.7,66.9z M46.9,66.8
	c0,0.35,0.025,0.681,0.075,0.992c0.05,0.311,0.125,0.602,0.225,0.871c0.1,0.269,0.225,0.515,0.375,0.739S47.9,69.825,48.1,70
	s0.412,0.331,0.639,0.467c0.226,0.136,0.467,0.251,0.723,0.345s0.528,0.165,0.817,0.214c0.289,0.049,0.596,0.074,0.921,0.074
	c0.3,0,0.594-0.025,0.878-0.073c0.284-0.048,0.559-0.12,0.822-0.214c0.263-0.094,0.513-0.21,0.747-0.346s0.453-0.292,0.653-0.466
	s0.375-0.375,0.525-0.598c0.15-0.224,0.275-0.471,0.375-0.74s0.175-0.56,0.225-0.87c0.05-0.311,0.075-0.642,0.075-0.992
	s-0.025-0.681-0.075-0.992c-0.05-0.311-0.125-0.602-0.225-0.871c-0.1-0.269-0.225-0.516-0.375-0.74S54.5,63.775,54.3,63.6
	s-0.413-0.325-0.639-0.452s-0.467-0.23-0.723-0.311s-0.528-0.141-0.817-0.18C51.831,62.618,51.525,62.6,51.2,62.6
	s-0.631,0.025-0.92,0.073c-0.289,0.049-0.561,0.121-0.817,0.215s-0.497,0.209-0.723,0.345c-0.227,0.136-0.44,0.292-0.64,0.467
	s-0.375,0.369-0.525,0.583c-0.15,0.214-0.275,0.448-0.375,0.704c-0.1,0.257-0.175,0.535-0.225,0.836
	C46.925,66.125,46.9,66.45,46.9,66.8z"/>
<path d="M61.2,60.7h0.775h0.775h0.775H64.3v1.675v1.675v1.675V67.4c0,0.275,0,0.525,0.002,0.75c0.001,0.225,0.004,0.425,0.01,0.6
	c0.007,0.175,0.016,0.325,0.03,0.45c0.014,0.125,0.033,0.225,0.058,0.3c0.025,0.125,0.069,0.244,0.128,0.356
	c0.059,0.113,0.134,0.219,0.222,0.319c0.088,0.1,0.188,0.194,0.297,0.281s0.228,0.169,0.353,0.244s0.263,0.144,0.412,0.205
	c0.15,0.061,0.312,0.114,0.488,0.158c0.175,0.044,0.363,0.078,0.562,0.101c0.2,0.023,0.412,0.036,0.637,0.036
	s0.438-0.006,0.636-0.02c0.199-0.014,0.383-0.036,0.552-0.068s0.322-0.072,0.458-0.123c0.136-0.051,0.254-0.114,0.354-0.189
	c0.125-0.075,0.231-0.15,0.322-0.228s0.166-0.159,0.228-0.247s0.113-0.181,0.153-0.284c0.041-0.103,0.072-0.216,0.097-0.341
	s0.044-0.256,0.058-0.398c0.014-0.142,0.024-0.296,0.03-0.465c0.006-0.169,0.009-0.353,0.01-0.557C70.4,68.075,70.4,67.85,70.4,67.6
	v-1.7v-1.7v-1.7v-1.7h0.775h0.775h0.775H73.5v1.625v1.625v1.625V67.3c0,0.375-0.006,0.719-0.019,1.033
	c-0.012,0.314-0.031,0.598-0.056,0.854c-0.025,0.257-0.056,0.485-0.094,0.686C73.294,70.075,73.25,70.25,73.2,70.4
	s-0.106,0.294-0.169,0.433s-0.131,0.274-0.206,0.405c-0.075,0.131-0.156,0.259-0.244,0.385C72.494,71.75,72.4,71.875,72.3,72
	s-0.219,0.238-0.352,0.339s-0.279,0.192-0.436,0.274c-0.157,0.081-0.322,0.153-0.493,0.217c-0.17,0.064-0.345,0.12-0.52,0.17
	c-0.2,0.075-0.412,0.137-0.637,0.189c-0.225,0.051-0.463,0.092-0.713,0.123s-0.513,0.053-0.787,0.067
	C68.088,73.394,67.8,73.4,67.5,73.4c-0.375,0-0.725-0.006-1.052-0.02c-0.327-0.014-0.63-0.036-0.911-0.068s-0.541-0.072-0.78-0.123
	S64.3,73.075,64.1,73c-0.2-0.075-0.388-0.15-0.562-0.228s-0.338-0.159-0.487-0.247s-0.287-0.181-0.412-0.284S62.4,72.025,62.3,71.9
	s-0.194-0.244-0.281-0.359c-0.088-0.116-0.169-0.228-0.244-0.341s-0.144-0.225-0.206-0.341S61.45,70.625,61.4,70.5
	c-0.05-0.175-0.094-0.375-0.131-0.597c-0.038-0.222-0.069-0.466-0.094-0.728c-0.025-0.263-0.044-0.544-0.056-0.841
	S61.1,67.725,61.1,67.4v-1.675V64.05v-1.675V60.7h0.025h0.025h0.025H61.2z"/>
<path d="M76.8,73v-3.075V66.85v-3.075V60.7h1.25h1.25h1.25h1.25c0.475,0,0.906,0.006,1.295,0.017
	c0.389,0.011,0.736,0.026,1.043,0.045c0.306,0.019,0.572,0.041,0.798,0.064c0.227,0.023,0.414,0.049,0.564,0.074
	c0.225,0.05,0.438,0.112,0.639,0.188s0.392,0.162,0.574,0.263c0.181,0.1,0.353,0.213,0.517,0.338c0.164,0.125,0.32,0.263,0.47,0.412
	s0.281,0.312,0.394,0.487c0.113,0.175,0.206,0.363,0.281,0.562c0.075,0.2,0.131,0.412,0.169,0.638
	C88.581,64.012,88.6,64.25,88.6,64.5c0,0.2-0.013,0.387-0.036,0.564c-0.023,0.176-0.058,0.342-0.101,0.498s-0.097,0.303-0.158,0.442
	c-0.061,0.139-0.13,0.271-0.205,0.396s-0.162,0.244-0.259,0.356c-0.097,0.113-0.203,0.219-0.316,0.319s-0.231,0.194-0.353,0.281
	c-0.122,0.088-0.247,0.169-0.372,0.244s-0.256,0.144-0.391,0.206S86.137,67.925,86,67.975s-0.275,0.094-0.409,0.131
	c-0.134,0.038-0.266,0.069-0.391,0.094c-0.175,0.025-0.375,0.05-0.599,0.073c-0.223,0.023-0.47,0.045-0.739,0.064
	s-0.559,0.034-0.87,0.045C82.681,68.394,82.35,68.4,82,68.4h-0.5H81h-0.5H80v1.15v1.15v1.15V73h-0.8h-0.8h-0.8H76.8z M80,62.7v0.875
	v0.875v0.875V66.2h0.425h0.425h0.425H81.7c0.3,0,0.581-0.006,0.841-0.017c0.259-0.011,0.497-0.026,0.709-0.045
	c0.213-0.019,0.4-0.041,0.559-0.064C83.969,66.05,84.1,66.025,84.2,66s0.194-0.056,0.283-0.094c0.089-0.037,0.173-0.081,0.254-0.131
	s0.159-0.106,0.236-0.169c0.077-0.062,0.152-0.131,0.227-0.206c0.05-0.075,0.1-0.15,0.147-0.227
	c0.047-0.077,0.091-0.155,0.128-0.236c0.037-0.081,0.069-0.165,0.091-0.254C85.588,64.594,85.6,64.5,85.6,64.4
	c0-0.125-0.013-0.238-0.036-0.341c-0.023-0.103-0.058-0.197-0.101-0.284s-0.097-0.169-0.158-0.247
	c-0.061-0.078-0.13-0.153-0.205-0.228s-0.162-0.144-0.259-0.205c-0.097-0.061-0.203-0.114-0.316-0.157
	c-0.112-0.044-0.231-0.079-0.353-0.102C84.05,62.812,83.925,62.8,83.8,62.8c-0.1-0.025-0.219-0.044-0.359-0.058
	s-0.303-0.023-0.491-0.029s-0.4-0.009-0.641-0.011C82.069,62.7,81.8,62.7,81.5,62.7c0,0-0.094,0-0.234,0s-0.328,0-0.516,0
	s-0.375,0-0.516,0S80,62.7,80,62.7z"/>
</svg>
