<?xml version="1.0" encoding="utf-8"?>
<!-- Generator: Adobe Illustrator 25.2.0, SVG Export Plug-In . SVG Version: 6.00 Build 0)  -->
<svg version="1.1" id="Layer_1" xmlns="http://www.w3.org/2000/svg" xmlns:xlink="http://www.w3.org/1999/xlink" x="0px" y="0px"
	 viewBox="0 0 100 100" style="enable-background:new 0 0 100 100;" xml:space="preserve">
<g>
	<path d="M8.3,71.2V28.8h6.3c1.6,0,2.7,0.4,3.4,1.1c0.7,0.8,1.3,2.1,1.7,4.1c0.4,1.9,0.6,4.2,0.6,6.7c0,3.2-0.3,5.8-1,7.9
		c-0.7,2.1-1.6,3.4-2.9,3.9c0.6,1.1,1.2,2.3,1.6,3.6s1,3.6,1.7,6.9l1.8,8.3H18L15.8,62c-0.8-3.3-1.3-5.4-1.6-6.2
		c-0.3-0.9-0.6-1.4-0.9-1.8c-0.3-0.3-0.8-0.5-1.5-0.5h-0.6v17.7H8.3z M11.3,46.7h2.2c1.4,0,2.3-0.2,2.7-0.5c0.4-0.3,0.6-0.9,0.8-1.8
		c0.2-0.8,0.3-1.9,0.3-3.2c0-1.4-0.1-2.6-0.4-3.5c-0.3-0.9-0.6-1.4-1.1-1.7c-0.2-0.1-1-0.1-2.2-0.1h-2.3V46.7z"/>
	<path d="M23.2,71.2V28.8h11V36h-8v9.4h7.4v7.1h-7.4V64h8.2v7.1H23.2z"/>
	<path d="M36.2,57.4l2.9-0.8c0.2,2.8,0.5,4.8,1.1,6.2c0.5,1.3,1.3,2,2.2,2c1,0,1.7-0.6,2.2-1.7c0.5-1.2,0.7-2.5,0.7-4.1
		c0-1-0.1-1.9-0.3-2.6c-0.2-0.7-0.6-1.3-1.1-1.8c-0.3-0.3-1.1-1-2.4-1.9c-1.6-1.1-2.7-2.5-3.4-4.2c-0.9-2.3-1.4-5.2-1.4-8.5
		c0-2.2,0.2-4.2,0.6-6.1c0.4-1.9,1-3.3,1.8-4.3s1.8-1.5,2.9-1.5c1.9,0,3.2,1.2,4.2,3.5c0.9,2.3,1.4,5.4,1.5,9.3l-3,0.4
		c-0.1-2.2-0.4-3.7-0.8-4.7c-0.4-1-1-1.4-1.9-1.4c-0.9,0-1.5,0.5-2,1.5c-0.3,0.7-0.5,1.5-0.5,2.6c0,1,0.1,1.9,0.4,2.6
		c0.4,0.9,1.3,1.9,2.7,2.8c1.5,1,2.5,2,3.2,3.1c0.7,1.1,1.2,2.5,1.6,4.3c0.4,1.8,0.6,4.1,0.6,6.8c0,2.4-0.2,4.7-0.7,6.8
		c-0.5,2.1-1.1,3.7-2,4.7c-0.9,1-1.9,1.5-3.2,1.5c-1.9,0-3.3-1.2-4.3-3.7C37,65.7,36.4,62.1,36.2,57.4z"/>
	<path d="M60.1,55.6l2.9,2.6c-0.4,4.6-1.2,8.1-2.2,10.3c-1,2.2-2.3,3.4-3.9,3.4c-2,0-3.6-1.9-4.8-5.8c-1.3-3.8-1.9-9.1-1.9-15.8
		c0-7.1,0.6-12.5,1.9-16.4c1.3-3.9,2.9-5.9,5-5.9c1.8,0,3.3,1.5,4.4,4.6c0.7,1.8,1.2,4.4,1.5,7.8l-3,2c-0.2-2.2-0.5-3.9-1.1-5.2
		c-0.6-1.3-1.2-1.9-2-1.9c-1.1,0-2,1.1-2.7,3.4c-0.7,2.3-1,5.9-1,11c0,5.4,0.3,9.2,1,11.4c0.7,2.3,1.5,3.4,2.6,3.4
		c0.8,0,1.5-0.7,2-2.2C59.5,61,59.9,58.7,60.1,55.6z"/>
	<path d="M65.6,28.8h3v23c0,3.6,0,6,0.1,7.1c0.1,1.7,0.4,3.1,0.9,4.2c0.5,1.1,1.1,1.6,2,1.6c0.8,0,1.5-0.5,1.9-1.5s0.7-2.2,0.8-3.7
		s0.1-3.8,0.1-7.2V28.8h3v22.3c0,5.1-0.1,8.7-0.2,10.8s-0.5,3.9-0.9,5.3c-0.4,1.4-1,2.6-1.7,3.5c-0.7,0.9-1.7,1.3-2.8,1.3
		c-1.4,0-2.5-0.5-3.2-1.4c-0.7-0.9-1.3-2.1-1.7-3.6c-0.4-1.5-0.7-3.1-0.8-4.7c-0.2-2.4-0.3-6-0.3-10.8V28.8z"/>
	<path d="M80.5,71.2V28.8h11V36h-8v9.4h7.4v7.1h-7.4V64h8.2v7.1H80.5z"/>
</g>
</svg>
