<svg xmlns="http://www.w3.org/2000/svg" viewBox="0 0 100 100"><path d="M30.62,72.67H11.39V27.33h7.24V64h12Z"/><path d="M31.36,73.42H10.64V26.58h8.74V63.27h12Zm-19.22-1.5H29.86V64.77h-12V28.08H12.14Z" fill="#fff"/><path d="M60.28,50q0,11-3.73,17.29t-10.23,6.3q-6.52,0-10.23-6.38T32.37,50q0-10.94,3.72-17.28t10.23-6.35q6.49,0,10.23,6.32T60.28,50Zm-7.47,0a37.76,37.76,0,0,0-.53-6.89,18.38,18.38,0,0,0-1.42-4.67,6.93,6.93,0,0,0-2.1-2.67,4.21,4.21,0,0,0-2.42-.81,4.15,4.15,0,0,0-2.42.75,7.39,7.39,0,0,0-2.09,2.66A18.28,18.28,0,0,0,40.39,43a38.06,38.06,0,0,0-.55,7,38,38,0,0,0,.52,6.92,18.48,18.48,0,0,0,1.43,4.61,6.82,6.82,0,0,0,2.11,2.7,4.26,4.26,0,0,0,2.44.81,4.15,4.15,0,0,0,2.47-.87,6.9,6.9,0,0,0,2.07-2.7,19.09,19.09,0,0,0,1.43-4.61A37.68,37.68,0,0,0,52.81,50Z"/><path d="M46.32,74.36c-4.61,0-8.27-2.27-10.88-6.75S31.62,57.34,31.62,50s1.29-13.33,3.82-17.66,6.27-6.72,10.88-6.72,8.25,2.25,10.87,6.69S61,42.59,61,50s-1.29,13.37-3.84,17.67S50.91,74.36,46.32,74.36Zm0-47.22c-4.1,0-7.23,1.95-9.58,6S33.12,42.9,33.12,50s1.22,12.72,3.62,16.84,5.48,6,9.58,6,7.22-1.94,9.58-5.93S59.53,57.17,59.53,50,58.31,37.16,55.9,33.09,50.4,27.14,46.32,27.14Zm0,38.67a5,5,0,0,1-2.86-.94,7.54,7.54,0,0,1-2.36-3,19.37,19.37,0,0,1-1.5-4.81A39.55,39.55,0,0,1,39.09,50a39.61,39.61,0,0,1,.56-7.12A18.82,18.82,0,0,1,41.16,38a7.88,7.88,0,0,1,2.33-3,5,5,0,0,1,5.7.06,7.63,7.63,0,0,1,2.34,2.95A19.68,19.68,0,0,1,53,43a39.29,39.29,0,0,1,.54,7,39.27,39.27,0,0,1-.51,7,20.6,20.6,0,0,1-1.49,4.79,7.81,7.81,0,0,1-2.31,3A4.94,4.94,0,0,1,46.34,65.81Zm0-30.12a3.46,3.46,0,0,0-2,.62,6.78,6.78,0,0,0-1.85,2.39,17.48,17.48,0,0,0-1.36,4.48A37.4,37.4,0,0,0,40.59,50a37.32,37.32,0,0,0,.51,6.78,17.11,17.11,0,0,0,1.37,4.42,6.06,6.06,0,0,0,1.85,2.41,3.26,3.26,0,0,0,4-.05,6.17,6.17,0,0,0,1.83-2.41,18.49,18.49,0,0,0,1.37-4.43A37,37,0,0,0,52.06,50a37.07,37.07,0,0,0-.52-6.76,18,18,0,0,0-1.35-4.49,6.21,6.21,0,0,0-1.85-2.37A3.44,3.44,0,0,0,46.34,35.69Z" fill="#fff"/><path d="M88.61,70.08a26.51,26.51,0,0,1-4.83,2.37,15.78,15.78,0,0,1-5.84,1.16q-6.66,0-10.6-6.16t-4-17.5q0-10.65,4-17.08t10.81-6.42a13.21,13.21,0,0,1,5.76,1.08,26.11,26.11,0,0,1,4.58,2.94V41.09h-.64l-1.47-1.81a18.3,18.3,0,0,0-1.87-2,10.61,10.61,0,0,0-2.45-1.68,6.57,6.57,0,0,0-3-.7,6.2,6.2,0,0,0-3.31.92,8.41,8.41,0,0,0-2.68,2.8,16,16,0,0,0-1.77,4.63,29.18,29.18,0,0,0-.65,6.51q0,7.95,2.48,11.72A7.74,7.74,0,0,0,80,65.27l.89,0c.34,0,.63,0,.89-.09V56.26H76.27v-8.5H88.61Z"/><path d="M77.94,74.36c-4.69,0-8.47-2.19-11.24-6.51S62.64,57.62,62.64,50c0-7.21,1.36-13.08,4.06-17.47s6.62-6.78,11.45-6.78a14,14,0,0,1,6.09,1.16,27.2,27.2,0,0,1,4.71,3l.29.22V41.84H87.49l-.23-.28-1.46-1.8A16.9,16.9,0,0,0,84,37.85a10.19,10.19,0,0,0-2.29-1.57,5.77,5.77,0,0,0-5.53.19A7.52,7.52,0,0,0,73.76,39a15,15,0,0,0-1.68,4.4,28.26,28.26,0,0,0-.63,6.34c0,5.13.79,8.93,2.36,11.31A7,7,0,0,0,80,64.52l.85,0H81V57H75.52V47H89.36V70.48l-.34.23a27.61,27.61,0,0,1-5,2.44A16.91,16.91,0,0,1,77.94,74.36Zm.21-47.16c-4.34,0-7.66,2-10.17,6.07S64.14,43,64.14,50c0,7.37,1.28,13.12,3.83,17.09s5.77,5.82,10,5.82a15.37,15.37,0,0,0,5.57-1.1,28.25,28.25,0,0,0,4.35-2.09V48.51H77v7H82.5V65.79l-.64.1c-.27,0-.59.07-1,.1L80,66a8.49,8.49,0,0,1-7.41-4.11C70.83,59.28,70,55.19,70,49.77a30.1,30.1,0,0,1,.67-6.68,16.26,16.26,0,0,1,1.87-4.85,9,9,0,0,1,2.92-3.05,7.28,7.28,0,0,1,7-.25A11.69,11.69,0,0,1,85,36.74,18,18,0,0,1,87,38.81l.78,1V30.84a25.45,25.45,0,0,0-4.16-2.64A12.66,12.66,0,0,0,78.15,27.2Z" fill="#fff"/></svg>