<?xml version="1.0" encoding="iso-8859-1"?>
<!-- Generator: Adobe Illustrator 25.4.1, SVG Export Plug-In . SVG Version: 6.00 Build 0)  -->
<svg version="1.1" id="Layer_1" xmlns="http://www.w3.org/2000/svg" xmlns:xlink="http://www.w3.org/1999/xlink" x="0px" y="0px"
	 viewBox="0 0 100 100" style="enable-background:new 0 0 100 100;" xml:space="preserve">
<path d="M20.4,31.6c0,0.275-0.019,0.538-0.055,0.791c-0.036,0.253-0.089,0.497-0.157,0.734s-0.153,0.469-0.252,0.697
	c-0.099,0.228-0.211,0.453-0.336,0.678s-0.262,0.431-0.413,0.622c-0.15,0.191-0.312,0.366-0.487,0.528s-0.362,0.312-0.562,0.453
	S17.725,36.375,17.5,36.5c-0.175,0.1-0.35,0.188-0.527,0.264s-0.354,0.142-0.535,0.199c-0.181,0.056-0.366,0.103-0.555,0.142
	S15.5,37.175,15.3,37.2s-0.406,0.05-0.62,0.073c-0.214,0.024-0.436,0.046-0.668,0.065c-0.231,0.018-0.471,0.034-0.723,0.045
	S12.775,37.4,12.5,37.4h-0.825H10.85h-0.825H9.2v-2.9v-2.9v-2.9v-2.9H10h0.8h0.8h0.8c0.325,0,0.637,0.006,0.934,0.017
	c0.297,0.011,0.578,0.026,0.841,0.045c0.262,0.019,0.506,0.041,0.728,0.064S15.325,25.975,15.5,26c0.2,0.05,0.387,0.1,0.564,0.152
	c0.177,0.052,0.342,0.104,0.498,0.16s0.303,0.115,0.442,0.18c0.139,0.064,0.271,0.133,0.396,0.208
	c0.225,0.125,0.438,0.256,0.638,0.397c0.2,0.141,0.387,0.291,0.562,0.453s0.337,0.337,0.487,0.528
	c0.15,0.191,0.288,0.397,0.413,0.622s0.244,0.444,0.352,0.664c0.108,0.22,0.205,0.442,0.286,0.673
	c0.081,0.232,0.146,0.472,0.192,0.73C20.375,31.025,20.4,31.3,20.4,31.6z M18.4,31.5c0-0.225-0.012-0.438-0.036-0.641
	s-0.058-0.397-0.102-0.584s-0.097-0.369-0.158-0.547c-0.061-0.178-0.129-0.353-0.204-0.528c-0.1-0.15-0.206-0.294-0.32-0.431
	c-0.114-0.138-0.236-0.269-0.368-0.394c-0.131-0.125-0.271-0.244-0.423-0.356C16.638,27.906,16.475,27.8,16.3,27.7
	c-0.125-0.05-0.25-0.1-0.377-0.149s-0.255-0.095-0.385-0.139s-0.266-0.084-0.405-0.12c-0.139-0.036-0.283-0.067-0.433-0.092
	s-0.306-0.05-0.469-0.073c-0.163-0.024-0.331-0.045-0.506-0.065s-0.356-0.035-0.544-0.045S12.8,27,12.6,27h-0.35H11.9h-0.35H11.2
	v2.25v2.25v2.25V36h0.35h0.35h0.35h0.35c0.2,0,0.4-0.006,0.597-0.017c0.197-0.011,0.391-0.026,0.578-0.045s0.369-0.041,0.541-0.064
	S14.65,35.825,14.8,35.8s0.3-0.056,0.448-0.094c0.148-0.037,0.295-0.081,0.439-0.131c0.144-0.05,0.285-0.106,0.42-0.169
	s0.267-0.131,0.392-0.206c0.175-0.1,0.331-0.2,0.473-0.303c0.142-0.103,0.271-0.209,0.39-0.322c0.119-0.112,0.228-0.231,0.333-0.359
	C17.8,34.087,17.9,33.95,18,33.8c0.05-0.15,0.1-0.312,0.147-0.486c0.047-0.173,0.091-0.358,0.128-0.551
	c0.038-0.194,0.069-0.397,0.091-0.608C18.388,31.944,18.4,31.725,18.4,31.5z"/>
<path d="M27.4,37.3h-1.375H24.65h-1.375H21.9V37v-0.3v-0.3v-0.3h0.45h0.45h0.45h0.45v-2.3v-2.3v-2.3v-2.3h-0.45H22.8h-0.45H21.9
	v-0.3v-0.3V26v-0.3h1.375h1.375h1.375H27.4V26v0.3v0.3v0.3h-0.45H26.5h-0.45H25.6v2.3v2.3v2.3v2.3h0.45h0.45h0.45h0.45v0.3v0.3V37
	V37.3z"/>
<path d="M40,25.8l-1.225,2.9l-1.225,2.9l-1.225,2.9L35.1,37.4h-0.5h-0.5h-0.5h-0.5l-1.225-2.9l-1.225-2.9l-1.225-2.9L28.2,25.8h0.5
	h0.5h0.5h0.5l0.975,2.4l0.975,2.4l0.975,2.4l0.975,2.4l0.975-2.4l0.975-2.4l0.975-2.4L38,25.8c0,0,0.125,0,0.312,0s0.438,0,0.688,0
	s0.5,0,0.688,0S40,25.8,40,25.8z"/>
<path d="M46.3,37.3h-1.375H43.55h-1.375H40.8V37v-0.3v-0.3v-0.3h0.45h0.45h0.45h0.45v-2.3v-2.3v-2.3v-2.3h-0.45H41.7h-0.45H40.8
	v-0.3v-0.3V26v-0.3h1.375h1.375h1.375H46.3V26v0.3v0.3v0.3h-0.45H45.4h-0.45H44.5v2.3v2.3v2.3v2.3h0.45h0.45h0.45h0.45v0.3v0.3V37
	V37.3z"/>
<path d="M52.6,37.5c-0.25,0-0.494-0.006-0.73-0.019s-0.464-0.031-0.682-0.056s-0.428-0.056-0.627-0.094
	C50.363,37.294,50.175,37.25,50,37.2s-0.35-0.1-0.523-0.15c-0.174-0.05-0.346-0.1-0.514-0.15c-0.168-0.05-0.334-0.1-0.495-0.15
	S48.15,36.65,48,36.6v-0.475V35.65v-0.475V34.7h0.025h0.025h0.025H48.1c0.15,0.125,0.306,0.237,0.469,0.341s0.331,0.197,0.506,0.284
	s0.356,0.169,0.544,0.247S50,35.725,50.2,35.8s0.394,0.138,0.584,0.189c0.191,0.051,0.378,0.092,0.566,0.123
	s0.375,0.053,0.566,0.067C52.106,36.194,52.3,36.2,52.5,36.2c0.25,0,0.487-0.013,0.713-0.036c0.225-0.023,0.438-0.058,0.637-0.102
	c0.2-0.044,0.388-0.097,0.562-0.158S54.75,35.774,54.9,35.7c0.125-0.1,0.237-0.2,0.336-0.303c0.098-0.103,0.183-0.209,0.251-0.322
	c0.069-0.112,0.122-0.231,0.158-0.359C55.681,34.587,55.7,34.45,55.7,34.3c0-0.125-0.006-0.237-0.02-0.341
	c-0.014-0.103-0.036-0.197-0.068-0.284s-0.072-0.169-0.123-0.247S55.375,33.275,55.3,33.2s-0.156-0.144-0.245-0.206
	s-0.186-0.119-0.292-0.169c-0.106-0.05-0.222-0.094-0.349-0.131C54.287,32.656,54.15,32.625,54,32.6c-0.1-0.025-0.2-0.05-0.3-0.075
	c-0.1-0.025-0.2-0.05-0.3-0.075s-0.2-0.05-0.3-0.075c-0.1-0.025-0.2-0.05-0.3-0.075s-0.2-0.05-0.303-0.075s-0.209-0.05-0.322-0.075
	c-0.113-0.025-0.231-0.05-0.359-0.075C51.688,32.05,51.55,32.025,51.4,32c-0.125-0.025-0.244-0.05-0.358-0.077
	c-0.114-0.027-0.224-0.055-0.33-0.086s-0.209-0.066-0.311-0.105C50.3,31.694,50.2,31.65,50.1,31.6s-0.194-0.1-0.283-0.15
	c-0.089-0.05-0.174-0.1-0.255-0.15c-0.081-0.05-0.159-0.1-0.236-0.15C49.25,31.1,49.175,31.05,49.1,31
	c-0.075-0.075-0.144-0.15-0.208-0.225c-0.064-0.075-0.124-0.15-0.18-0.225c-0.056-0.075-0.109-0.15-0.16-0.225
	C48.5,30.25,48.45,30.175,48.4,30.1s-0.088-0.156-0.116-0.244c-0.028-0.088-0.047-0.181-0.059-0.281
	c-0.013-0.1-0.019-0.206-0.022-0.319C48.2,29.144,48.2,29.025,48.2,28.9c0-0.225,0.025-0.444,0.076-0.656
	c0.051-0.212,0.129-0.419,0.236-0.619c0.106-0.2,0.241-0.394,0.405-0.581c0.164-0.188,0.357-0.369,0.582-0.544
	c0.225-0.15,0.463-0.287,0.714-0.409s0.517-0.228,0.799-0.316s0.578-0.156,0.893-0.203S52.55,25.5,52.9,25.5
	c0.2,0,0.394,0.006,0.584,0.017c0.191,0.011,0.378,0.026,0.566,0.045s0.375,0.041,0.566,0.064S55,25.675,55.2,25.7
	c0.175,0.025,0.35,0.056,0.523,0.094s0.346,0.081,0.514,0.131c0.169,0.05,0.334,0.106,0.495,0.169
	c0.161,0.062,0.317,0.131,0.467,0.206v0.45v0.45v0.45v0.45h-0.025H57.15h-0.025H57.1c-0.125-0.075-0.25-0.15-0.378-0.225
	c-0.128-0.075-0.259-0.15-0.397-0.225c-0.138-0.075-0.281-0.15-0.434-0.225c-0.153-0.075-0.316-0.15-0.491-0.225
	s-0.35-0.138-0.527-0.189c-0.176-0.051-0.354-0.092-0.535-0.123c-0.181-0.031-0.366-0.053-0.555-0.068
	C53.594,26.806,53.4,26.8,53.2,26.8c-0.225,0-0.438,0.013-0.638,0.036c-0.2,0.024-0.387,0.058-0.562,0.102s-0.338,0.097-0.488,0.158
	c-0.15,0.061-0.287,0.129-0.412,0.204s-0.237,0.163-0.336,0.259c-0.098,0.097-0.183,0.203-0.251,0.316
	c-0.069,0.112-0.122,0.231-0.158,0.353C50.319,28.35,50.3,28.475,50.3,28.6s0.013,0.244,0.036,0.356
	c0.023,0.112,0.058,0.219,0.102,0.319c0.043,0.1,0.097,0.194,0.157,0.281s0.13,0.169,0.205,0.244s0.162,0.144,0.261,0.206
	c0.099,0.062,0.208,0.119,0.327,0.169c0.118,0.05,0.246,0.094,0.382,0.131s0.28,0.069,0.43,0.094c0.1,0.025,0.206,0.05,0.319,0.075
	c0.112,0.025,0.231,0.05,0.356,0.075s0.256,0.05,0.394,0.075c0.138,0.025,0.281,0.05,0.431,0.075s0.294,0.05,0.43,0.075
	c0.136,0.025,0.264,0.05,0.382,0.075c0.119,0.025,0.229,0.05,0.327,0.075c0.098,0.025,0.186,0.05,0.261,0.075
	c0.25,0.05,0.481,0.112,0.694,0.186c0.213,0.073,0.406,0.158,0.581,0.252c0.175,0.094,0.331,0.197,0.469,0.307
	c0.138,0.111,0.256,0.23,0.356,0.355s0.194,0.256,0.278,0.394s0.159,0.281,0.222,0.431s0.112,0.306,0.147,0.469
	c0.034,0.162,0.053,0.331,0.053,0.506c0,0.125-0.006,0.244-0.019,0.358c-0.013,0.114-0.031,0.224-0.056,0.33
	c-0.025,0.106-0.056,0.209-0.094,0.311S57.65,35.1,57.6,35.2s-0.106,0.2-0.169,0.299s-0.131,0.195-0.206,0.29
	c-0.075,0.093-0.156,0.184-0.244,0.27C56.894,36.144,56.8,36.225,56.7,36.3c-0.125,0.075-0.25,0.15-0.377,0.223
	c-0.127,0.074-0.255,0.146-0.386,0.215s-0.266,0.134-0.405,0.195C55.394,36.994,55.25,37.05,55.1,37.1
	c-0.225,0.075-0.438,0.138-0.644,0.189c-0.206,0.052-0.406,0.092-0.606,0.123c-0.2,0.031-0.4,0.054-0.606,0.068
	C53.037,37.494,52.825,37.5,52.6,37.5z"/>
<path d="M64.5,37.3h-1.375H61.75h-1.375H59V37v-0.3v-0.3v-0.3h0.45h0.45h0.45h0.45v-2.3v-2.3v-2.3v-2.3h-0.45H59.9h-0.45H59v-0.3
	v-0.3V26v-0.3h1.375h1.375h1.375H64.5V26v0.3v0.3v0.3h-0.45H63.6h-0.45H62.7v2.3v2.3v2.3v2.3h0.45h0.45h0.45h0.45v0.3v0.3V37V37.3z"
	/>
<path d="M76.9,27.1c0.125,0.125,0.25,0.256,0.372,0.395c0.122,0.139,0.241,0.286,0.353,0.442c0.113,0.156,0.219,0.322,0.316,0.499
	C78.037,28.612,78.125,28.8,78.2,29s0.137,0.4,0.189,0.603s0.092,0.409,0.123,0.622c0.032,0.212,0.054,0.431,0.068,0.659
	c0.014,0.228,0.02,0.466,0.02,0.716c0,0.225-0.006,0.45-0.02,0.672c-0.014,0.222-0.036,0.441-0.068,0.653s-0.072,0.419-0.123,0.616
	c-0.051,0.197-0.114,0.384-0.189,0.559c-0.075,0.2-0.156,0.388-0.245,0.564c-0.089,0.177-0.186,0.342-0.292,0.498
	c-0.106,0.156-0.222,0.304-0.349,0.443S77.05,35.875,76.9,36s-0.306,0.244-0.467,0.356c-0.161,0.112-0.327,0.219-0.496,0.319
	s-0.341,0.194-0.514,0.281c-0.173,0.088-0.348,0.169-0.523,0.244s-0.362,0.138-0.561,0.189c-0.199,0.052-0.408,0.092-0.627,0.123
	s-0.447,0.053-0.683,0.067S72.55,37.6,72.3,37.6s-0.488-0.006-0.716-0.02c-0.228-0.014-0.447-0.036-0.659-0.067
	s-0.419-0.072-0.622-0.124C70.1,37.338,69.9,37.275,69.7,37.2s-0.387-0.156-0.566-0.244c-0.178-0.088-0.347-0.181-0.509-0.281
	s-0.319-0.206-0.472-0.319C68,36.244,67.85,36.125,67.7,36c-0.125-0.125-0.25-0.256-0.372-0.395
	c-0.122-0.139-0.241-0.286-0.353-0.443c-0.112-0.156-0.219-0.321-0.316-0.498C66.562,34.487,66.475,34.3,66.4,34.1
	c-0.075-0.175-0.138-0.362-0.189-0.559c-0.051-0.197-0.092-0.403-0.123-0.616s-0.053-0.431-0.067-0.653
	C66.007,32.05,66,31.825,66,31.6c0-0.25,0.006-0.488,0.02-0.716c0.014-0.228,0.036-0.447,0.068-0.659s0.072-0.419,0.123-0.622
	C66.263,29.4,66.325,29.2,66.4,29c0.075-0.175,0.156-0.35,0.245-0.522c0.089-0.172,0.186-0.341,0.292-0.503
	c0.106-0.163,0.222-0.319,0.349-0.466c0.127-0.147,0.264-0.284,0.414-0.409c0.125-0.125,0.262-0.244,0.411-0.356
	c0.148-0.112,0.308-0.219,0.476-0.319c0.169-0.1,0.347-0.194,0.533-0.281s0.38-0.169,0.58-0.244s0.4-0.138,0.603-0.189
	c0.203-0.052,0.409-0.092,0.622-0.123c0.213-0.032,0.431-0.054,0.659-0.068c0.228-0.014,0.466-0.02,0.716-0.02
	s0.488,0.006,0.716,0.02c0.228,0.014,0.447,0.036,0.659,0.067s0.419,0.072,0.622,0.124C74.5,25.762,74.7,25.825,74.9,25.9
	s0.394,0.156,0.58,0.244c0.186,0.088,0.364,0.181,0.532,0.281c0.169,0.1,0.328,0.206,0.477,0.319
	C76.637,26.856,76.775,26.975,76.9,27.1z M76.6,31.5c0-0.2-0.006-0.388-0.019-0.566c-0.012-0.178-0.031-0.347-0.056-0.509
	c-0.025-0.162-0.056-0.319-0.094-0.472S76.35,29.65,76.3,29.5s-0.106-0.294-0.169-0.431C76.069,28.931,76,28.8,75.925,28.675
	s-0.156-0.244-0.244-0.356C75.594,28.206,75.5,28.1,75.4,28s-0.2-0.194-0.303-0.281s-0.209-0.169-0.322-0.244
	s-0.231-0.144-0.359-0.206C74.288,27.206,74.15,27.15,74,27.1s-0.294-0.094-0.436-0.131c-0.142-0.037-0.283-0.069-0.426-0.094
	c-0.144-0.025-0.291-0.044-0.446-0.056C72.537,26.806,72.375,26.8,72.2,26.8s-0.344,0.006-0.506,0.019
	c-0.162,0.013-0.319,0.031-0.469,0.056c-0.15,0.025-0.294,0.056-0.431,0.094c-0.138,0.038-0.269,0.081-0.394,0.131
	s-0.25,0.106-0.373,0.169c-0.124,0.062-0.245,0.131-0.365,0.206c-0.118,0.075-0.234,0.156-0.345,0.244
	C69.206,27.806,69.1,27.9,69,28s-0.194,0.206-0.281,0.319c-0.088,0.112-0.169,0.231-0.244,0.356s-0.144,0.256-0.206,0.394
	C68.206,29.206,68.15,29.35,68.1,29.5s-0.094,0.306-0.131,0.467c-0.038,0.161-0.069,0.326-0.094,0.495s-0.044,0.34-0.056,0.514
	C67.806,31.15,67.8,31.325,67.8,31.5c0,0.375,0.025,0.731,0.075,1.067c0.05,0.336,0.125,0.652,0.225,0.946
	c0.1,0.293,0.225,0.565,0.375,0.814C68.625,34.575,68.8,34.8,69,35s0.412,0.375,0.639,0.525c0.227,0.15,0.467,0.275,0.724,0.375
	c0.256,0.1,0.528,0.175,0.817,0.225c0.289,0.05,0.595,0.075,0.92,0.075s0.637-0.025,0.934-0.075c0.297-0.05,0.579-0.125,0.841-0.225
	s0.506-0.225,0.728-0.375C74.825,35.375,75.025,35.2,75.2,35s0.35-0.419,0.514-0.659c0.164-0.241,0.317-0.503,0.449-0.791
	s0.241-0.6,0.317-0.941C76.556,32.269,76.6,31.9,76.6,31.5z"/>
<path d="M90.8,37.3h-0.525H89.75h-0.525H88.7l-1.575-2.5l-1.575-2.5l-1.575-2.5L82.4,27.3v2.5v2.5v2.5v2.5h-0.45H81.5h-0.45H80.6
	v-2.875V31.55v-2.875V25.8h0.675h0.675h0.675H83.3l1.425,2.275l1.425,2.275l1.425,2.275L89,34.9v-2.275V30.35v-2.275V25.8h0.45h0.45
	h0.45h0.45c0,0,0,0.719,0,1.797s0,2.516,0,3.953s0,2.875,0,3.953S90.8,37.3,90.8,37.3z"/>
<path d="M72.1,66.3h-1.875H68.35h-1.875H64.6v2.025v2.025v2.025V74.4h-3.35H57.9h-3.35H51.2v-2.025V70.35v-2.025V66.3h-6.1H39h-6.1
	h-6.1v-1.625V63.05v-1.625V59.8l5.975-5.025l5.975-5.025l5.975-5.025L50.7,39.7h3.475h3.475h3.475H64.6v5.075v5.075v5.075V60h1.875
	h1.875h1.875H72.1v1.575v1.575v1.575V66.3z M51.2,60.1v-2.95V54.2v-2.95V48.3l-3.5,2.95l-3.5,2.95l-3.5,2.95l-3.5,2.95h3.5h3.5h3.5
	H51.2z"/>
</svg>
