<?xml version="1.0" encoding="utf-8"?>
<!-- Generator: Adobe Illustrator 25.2.0, SVG Export Plug-In . SVG Version: 6.00 Build 0)  -->
<svg version="1.1" id="Layer_1" xmlns="http://www.w3.org/2000/svg" xmlns:xlink="http://www.w3.org/1999/xlink" x="0px" y="0px"
	 viewBox="0 0 100 100" style="enable-background:new 0 0 100 100;" xml:space="preserve">
<g>
	<polygon points="35.4,44 35.4,37.9 17.7,37.9 17.7,44 22.9,44 22.9,66.9 17.7,66.9 17.7,73 35.4,73 35.4,66.9 30.3,66.9 30.3,44 	
		"/>
	<polygon points="58.6,44 58.6,37.9 40.9,37.9 40.9,44 46,44 46,66.9 40.9,66.9 40.9,73 58.6,73 58.6,66.9 53.4,66.9 53.4,44 	"/>
	<polygon points="81.7,44 81.7,37.9 64.1,37.9 64.1,44 69.2,44 69.2,66.9 64.1,66.9 64.1,73 81.7,73 81.7,66.9 76.6,66.9 76.6,44 	
		"/>
	<g>
		<path d="M9.8,36.5v-9.3h5.3c1.1,0,1.9,0.1,2.6,0.3c0.7,0.2,1.2,0.5,1.5,0.9c0.4,0.4,0.6,0.8,0.6,1.2c0,0.4-0.2,0.8-0.5,1.1
			c-0.3,0.4-0.8,0.6-1.5,0.8c0.9,0.2,1.5,0.4,2,0.8c0.5,0.4,0.7,0.9,0.7,1.4c0,0.4-0.1,0.8-0.4,1.2c-0.3,0.4-0.6,0.7-1,0.9
			c-0.4,0.2-0.9,0.4-1.5,0.5c-0.6,0.1-1.4,0.2-2.3,0.2H9.8z M11.7,31.1h3.1c0.8,0,1.4,0,1.8-0.1c0.5-0.1,0.8-0.2,1.1-0.5
			c0.2-0.2,0.4-0.5,0.4-0.8c0-0.3-0.1-0.6-0.3-0.8c-0.2-0.2-0.5-0.4-1-0.5s-1.1-0.1-2.2-0.1h-2.8V31.1z M11.7,35.4h3.5
			c0.6,0,1,0,1.3,0c0.4-0.1,0.8-0.1,1.1-0.3c0.3-0.1,0.5-0.3,0.7-0.5s0.3-0.5,0.3-0.8c0-0.3-0.1-0.6-0.4-0.9
			c-0.3-0.3-0.6-0.4-1.1-0.5c-0.5-0.1-1.2-0.2-2.1-0.2h-3.3V35.4z"/>
		<path d="M23.1,36.5v-9.3h6.3c1.3,0,2.2,0.1,2.9,0.2c0.7,0.2,1.2,0.5,1.6,0.9c0.4,0.4,0.6,0.9,0.6,1.4c0,0.7-0.3,1.2-1,1.7
			s-1.7,0.7-3,0.9c0.5,0.2,0.9,0.3,1.1,0.5c0.5,0.3,1.1,0.7,1.6,1.2l2.5,2.5h-2.4l-1.9-1.9c-0.5-0.6-1-1-1.4-1.3
			c-0.4-0.3-0.7-0.5-1-0.6c-0.3-0.1-0.6-0.2-0.9-0.2c-0.2,0-0.6,0-1,0H25v4.1H23.1z M25,31.3h4c0.9,0,1.5-0.1,2-0.2
			c0.5-0.1,0.8-0.3,1.1-0.6c0.3-0.3,0.4-0.5,0.4-0.8c0-0.4-0.2-0.8-0.7-1.1c-0.5-0.3-1.3-0.4-2.3-0.4H25V31.3z"/>
		<path d="M35.8,36.5l5.4-9.3h2l5.8,9.3h-2.1l-1.6-2.8h-5.9l-1.6,2.8H35.8z M39.9,32.6h4.8l-1.5-2.6c-0.5-0.8-0.8-1.4-1-1.9
			c-0.2,0.6-0.4,1.2-0.8,1.8L39.9,32.6z"/>
		<path d="M50.5,36.5v-9.3h1.9l7.4,7.3v-7.3h1.8v9.3h-1.9l-7.4-7.3v7.3H50.5z"/>
		<path d="M74.9,33.2l1.9,0.3c-0.4,1-1.1,1.8-2.1,2.3c-1,0.5-2.3,0.8-3.7,0.8c-1.5,0-2.8-0.2-3.7-0.6s-1.7-1-2.2-1.8
			s-0.7-1.6-0.7-2.5c0-1,0.3-1.8,0.8-2.5c0.6-0.7,1.4-1.3,2.4-1.6s2.2-0.6,3.4-0.6c1.4,0,2.6,0.2,3.6,0.7c1,0.5,1.6,1.1,2,2L74.6,30
			c-0.3-0.7-0.8-1.2-1.4-1.5c-0.6-0.3-1.4-0.5-2.4-0.5c-1.1,0-2,0.2-2.7,0.5c-0.7,0.3-1.2,0.8-1.5,1.4c-0.3,0.6-0.4,1.2-0.4,1.8
			c0,0.8,0.2,1.5,0.5,2.1c0.4,0.6,0.9,1,1.6,1.3s1.5,0.4,2.4,0.4c1,0,1.9-0.2,2.7-0.6C74.1,34.6,74.6,34,74.9,33.2z"/>
		<path d="M79.1,36.5v-9.3H81V31h7.3v-3.8h1.9v9.3h-1.9v-4.4H81v4.4H79.1z"/>
	</g>
</g>
</svg>
