<?xml version="1.0" encoding="iso-8859-1"?>
<!-- Generator: Adobe Illustrator 25.4.1, SVG Export Plug-In . SVG Version: 6.00 Build 0)  -->
<svg version="1.1" id="Layer_1" xmlns="http://www.w3.org/2000/svg" xmlns:xlink="http://www.w3.org/1999/xlink" x="0px" y="0px"
	 viewBox="0 0 100 100" style="enable-background:new 0 0 100 100;" xml:space="preserve">
<path d="M7.36,73V61.5V50V38.5V27h4.973h4.972h4.972h4.972v1.948v1.948v1.947v1.948h-3.5h-3.5h-3.5h-3.5v2.72v2.72v2.72v2.72h3.02
	h3.02h3.02h3.02v1.945v1.945v1.945v1.945h-3.028h-3.028h-3.028H13.22v4.888v4.888v4.888V73h-1.465H10.29H8.825H7.36z"/>
<path style="fill:#FFFFFF;" d="M14,73.76h-1.847h-1.847H8.458H6.61V61.88V50V38.12V26.24h5.348h5.347h5.347H28v2.323v2.323v2.323
	v2.322h-3.5H21h-3.5H14v2.347v2.347v2.347v2.347h3.02h3.02h3.02h3.02v2.32v2.32v2.32v2.32h-3.02h-3.02h-3.02H14v4.89v4.89v4.89
	V73.76z M8.14,72.26h1.09h1.09h1.09h1.09v-4.89v-4.89v-4.89V52.7h3.02h3.02h3.02h3.02v-1.57v-1.57v-1.57v-1.57h-3.028h-3.028h-3.028
	H12.47v-3.105V40.21v-3.105V34h3.5h3.5h3.5h3.5v-1.565V30.87v-1.565V27.74h-4.59h-4.59H12.7H8.11l0.008,11.13L8.125,50l0.007,11.13
	L8.14,72.26z"/>
<path d="M31.33,73V61.5V50V38.5V27h1.56h1.56h1.56h1.56v11.5V50v11.5V73h-1.56h-1.56h-1.56H31.33z"/>
<path style="fill:#FFFFFF;" d="M38.32,73.76h-1.935H34.45h-1.935H30.58V61.88V50V38.12V26.24h1.935h1.935h1.935h1.935v11.88V50
	v11.88V73.76z M32.08,72.26h1.185h1.185h1.185h1.185V61.13V50V38.87V27.74h-1.185H34.45h-1.185H32.08v11.13V50v11.13V72.26z"/>
<path d="M42.52,73V61.5V50V38.5V27h3h3h3h3c0.75,0,1.452,0.026,2.104,0.078c0.652,0.052,1.255,0.13,1.807,0.234
	c0.552,0.104,1.053,0.233,1.502,0.388c0.449,0.154,0.845,0.334,1.187,0.539c0.389,0.266,0.754,0.562,1.091,0.886
	c0.337,0.323,0.646,0.673,0.925,1.045s0.527,0.768,0.742,1.182s0.396,0.848,0.542,1.297c0.215,0.58,0.402,1.168,0.561,1.764
	c0.16,0.595,0.291,1.197,0.395,1.804c0.104,0.607,0.18,1.218,0.227,1.833c0.047,0.614,0.066,1.231,0.057,1.849
	c0.028,0.742,0.008,1.482-0.058,2.217c-0.066,0.735-0.179,1.464-0.337,2.183c-0.158,0.719-0.362,1.428-0.609,2.123
	c-0.248,0.695-0.54,1.375-0.876,2.037c-0.288,0.542-0.632,1.047-1.023,1.506c-0.392,0.459-0.831,0.873-1.309,1.236
	c-0.478,0.363-0.995,0.674-1.542,0.928c-0.548,0.253-1.125,0.449-1.726,0.58c0.3,0.284,0.589,0.577,0.868,0.881
	c0.278,0.304,0.545,0.617,0.801,0.939c0.256,0.322,0.5,0.654,0.732,0.994c0.232,0.34,0.452,0.689,0.659,1.046
	c0.316,0.6,0.622,1.205,0.918,1.815c0.296,0.61,0.581,1.225,0.856,1.845s0.54,1.243,0.794,1.872
	c0.254,0.628,0.498,1.261,0.732,1.898l0.865,2.25l0.865,2.25l0.865,2.25L68,73h-1.713h-1.713h-1.712H61.15l-1.037-2.5L59.075,68
	l-1.038-2.5L57,63c-0.222-0.576-0.45-1.148-0.686-1.718c-0.236-0.57-0.479-1.136-0.729-1.7s-0.507-1.124-0.771-1.681
	S54.278,56.79,54,56.24c-0.1-0.194-0.211-0.381-0.334-0.559c-0.123-0.178-0.257-0.348-0.401-0.508s-0.299-0.312-0.464-0.453
	c-0.165-0.141-0.338-0.271-0.521-0.39c-0.226-0.102-0.457-0.19-0.692-0.263c-0.235-0.073-0.474-0.132-0.716-0.175
	s-0.486-0.072-0.732-0.086c-0.246-0.014-0.493-0.012-0.74,0.004h-0.29h-0.29h-0.29h-0.29v4.798v4.798v4.797V73h-1.43h-1.43h-1.43
	H42.52z M48.24,46.44h1.057h1.058h1.058h1.057c0.688,0,1.31-0.012,1.868-0.036s1.051-0.059,1.479-0.105s0.793-0.105,1.093-0.175
	c0.301-0.07,0.537-0.152,0.71-0.244c0.187-0.116,0.362-0.247,0.525-0.391c0.162-0.144,0.312-0.302,0.447-0.471
	c0.136-0.169,0.257-0.349,0.362-0.54s0.194-0.39,0.266-0.598c0.105-0.275,0.196-0.555,0.273-0.837
	c0.077-0.283,0.14-0.57,0.189-0.859s0.083-0.58,0.103-0.873c0.02-0.293,0.025-0.587,0.015-0.881
	c0.008-0.319-0.002-0.638-0.032-0.954s-0.078-0.63-0.145-0.939c-0.067-0.31-0.153-0.616-0.257-0.916
	c-0.104-0.3-0.226-0.594-0.366-0.881c-0.107-0.221-0.237-0.427-0.386-0.617c-0.149-0.19-0.317-0.363-0.501-0.518
	c-0.184-0.154-0.384-0.289-0.597-0.402c-0.213-0.113-0.439-0.205-0.675-0.273c-0.347-0.036-0.693-0.066-1.04-0.09
	c-0.347-0.024-0.694-0.042-1.042-0.055s-0.695-0.019-1.044-0.02c-0.348-0.001-0.696,0.004-1.044,0.015h-1.107h-1.108h-1.107H48.24
	v2.915v2.915v2.915V46.44z"/>
<path style="fill:#FFFFFF;" d="M69.09,73.76h-2.11h-2.11h-2.11h-2.11l-1.083-2.62l-1.083-2.62l-1.083-2.62l-1.083-2.62
	c-0.222-0.569-0.45-1.134-0.686-1.696c-0.236-0.562-0.478-1.122-0.728-1.678s-0.507-1.109-0.772-1.659
	c-0.264-0.549-0.536-1.095-0.814-1.638c-0.081-0.162-0.173-0.318-0.274-0.467c-0.101-0.149-0.21-0.292-0.328-0.428
	c-0.118-0.135-0.245-0.263-0.38-0.382C52.203,55.213,52.06,55.102,51.91,55c-0.197-0.086-0.4-0.159-0.605-0.22
	c-0.205-0.061-0.414-0.109-0.624-0.144s-0.424-0.058-0.638-0.067s-0.429-0.006-0.643,0.011h-0.1h-0.1h-0.1H49v4.795v4.795v4.795
	v4.795h-1.808h-1.807h-1.807H41.77V61.88V50V38.12V26.24h3.197h3.198h3.198h3.197c0.8,0,1.542,0.028,2.23,0.083
	s1.32,0.139,1.9,0.251c0.58,0.112,1.107,0.252,1.585,0.421c0.478,0.169,0.905,0.367,1.285,0.595
	c0.424,0.288,0.821,0.609,1.189,0.959c0.368,0.35,0.705,0.729,1.01,1.133c0.305,0.404,0.577,0.833,0.813,1.282
	c0.236,0.449,0.436,0.919,0.598,1.406c0.222,0.601,0.417,1.212,0.583,1.829s0.303,1.242,0.41,1.871
	c0.108,0.63,0.187,1.264,0.237,1.901c0.05,0.637,0.07,1.277,0.06,1.919c0.024,0.773-0.001,1.546-0.074,2.312
	s-0.193,1.526-0.361,2.275s-0.383,1.488-0.644,2.212s-0.568,1.432-0.921,2.121c-0.262,0.491-0.566,0.953-0.908,1.382
	c-0.342,0.43-0.721,0.827-1.133,1.187c-0.412,0.36-0.856,0.683-1.328,0.965c-0.472,0.282-0.97,0.522-1.491,0.716
	c0.222,0.239,0.436,0.483,0.643,0.733c0.207,0.25,0.407,0.506,0.6,0.767s0.378,0.528,0.556,0.8c0.178,0.272,0.348,0.549,0.511,0.83
	c0.319,0.611,0.626,1.228,0.924,1.849c0.297,0.622,0.584,1.248,0.86,1.88s0.541,1.268,0.796,1.908
	c0.254,0.64,0.498,1.285,0.73,1.933l0.967,2.5l0.967,2.5l0.967,2.5L69.09,73.76z M61.65,72.26h1.312h1.312h1.312H66.9l-0.765-2
	l-0.765-2l-0.765-2l-0.765-2c-0.227-0.631-0.464-1.258-0.711-1.881c-0.247-0.623-0.505-1.242-0.772-1.857s-0.545-1.224-0.833-1.83
	c-0.288-0.605-0.586-1.206-0.894-1.802c-0.198-0.341-0.409-0.674-0.632-1c-0.222-0.325-0.456-0.642-0.701-0.95
	c-0.245-0.309-0.501-0.608-0.767-0.898c-0.266-0.29-0.543-0.571-0.831-0.842l-0.25-0.25L57.2,52.7l-0.25-0.25L56.7,52.2l0.325-0.05
	l0.325-0.05l0.325-0.05L58,52c0.551-0.117,1.082-0.294,1.584-0.525c0.502-0.231,0.977-0.515,1.415-0.847s0.84-0.712,1.198-1.134
	s0.672-0.885,0.933-1.384c0.328-0.634,0.614-1.287,0.857-1.953c0.243-0.667,0.444-1.347,0.602-2.038
	c0.157-0.69,0.271-1.391,0.339-2.097c0.069-0.706,0.093-1.418,0.072-2.132c0.011-0.597-0.005-1.193-0.05-1.786
	c-0.044-0.593-0.117-1.184-0.216-1.77s-0.227-1.167-0.381-1.742c-0.154-0.575-0.335-1.143-0.543-1.702
	c-0.133-0.406-0.299-0.799-0.495-1.175c-0.196-0.376-0.422-0.734-0.676-1.072s-0.534-0.655-0.84-0.948
	c-0.306-0.293-0.636-0.562-0.989-0.805c-0.312-0.19-0.678-0.356-1.094-0.499s-0.885-0.261-1.405-0.356
	c-0.52-0.095-1.09-0.166-1.71-0.214c-0.62-0.047-1.291-0.071-2.011-0.071h-2.83h-2.83H46.1h-2.83v11.127v11.128v11.128V72.26h1.055
	h1.055h1.055h1.055v-4.802v-4.803v-4.803V53.05h0.478h0.478h0.477H49.4c0.279-0.017,0.559-0.018,0.836-0.001
	c0.278,0.017,0.554,0.051,0.827,0.103c0.273,0.051,0.543,0.119,0.808,0.204c0.265,0.085,0.525,0.186,0.779,0.304
	c0.212,0.136,0.413,0.285,0.604,0.446c0.191,0.161,0.371,0.334,0.539,0.518c0.168,0.184,0.324,0.379,0.467,0.584
	s0.274,0.419,0.389,0.642c0.285,0.558,0.562,1.12,0.831,1.685c0.27,0.565,0.532,1.134,0.788,1.705s0.503,1.147,0.743,1.725
	c0.24,0.578,0.473,1.16,0.698,1.745l0.985,2.388l0.985,2.387l0.985,2.387L61.65,72.26z M52.47,47.2h-1.25h-1.25h-1.25h-1.25v-3.3
	v-3.3v-3.3V34h1.305h1.305h1.305h1.305c0.362-0.015,0.724-0.024,1.087-0.025c0.363-0.001,0.725,0.006,1.087,0.02
	s0.724,0.036,1.085,0.065c0.361,0.029,0.722,0.066,1.081,0.11c0.289,0.079,0.566,0.189,0.827,0.325
	c0.261,0.136,0.507,0.299,0.733,0.486s0.432,0.397,0.615,0.628c0.183,0.231,0.342,0.482,0.475,0.751
	c0.153,0.319,0.286,0.647,0.399,0.981c0.112,0.334,0.204,0.673,0.275,1.017c0.072,0.344,0.122,0.693,0.151,1.043
	c0.029,0.351,0.038,0.705,0.025,1.059c0.01,0.319,0.003,0.638-0.019,0.955s-0.061,0.633-0.115,0.947s-0.123,0.624-0.207,0.931
	s-0.184,0.609-0.299,0.907c-0.085,0.244-0.19,0.479-0.315,0.701c-0.124,0.223-0.267,0.434-0.427,0.632s-0.337,0.382-0.529,0.551
	S58.22,46.406,58,46.54c-0.132,0.073-0.302,0.15-0.543,0.226s-0.553,0.149-0.97,0.213s-0.937,0.12-1.595,0.159
	C54.233,47.177,53.438,47.2,52.47,47.2z M49,45.7h0.87h0.87h0.87h0.87c0.855,0,1.562-0.018,2.146-0.048
	c0.584-0.03,1.046-0.072,1.41-0.119s0.631-0.101,0.827-0.153c0.196-0.053,0.32-0.105,0.397-0.15
	c0.148-0.091,0.288-0.195,0.417-0.309c0.13-0.114,0.249-0.238,0.358-0.372c0.108-0.133,0.205-0.276,0.29-0.427
	s0.157-0.308,0.215-0.472c0.094-0.253,0.175-0.509,0.243-0.769c0.069-0.259,0.125-0.522,0.168-0.786s0.074-0.531,0.092-0.799
	s0.023-0.537,0.016-0.806c0.013-0.292,0.007-0.585-0.015-0.875c-0.022-0.291-0.062-0.579-0.118-0.865
	c-0.056-0.285-0.129-0.567-0.219-0.845c-0.09-0.277-0.196-0.549-0.318-0.815c-0.083-0.174-0.183-0.338-0.299-0.488
	c-0.116-0.15-0.247-0.288-0.391-0.41s-0.301-0.229-0.468-0.318c-0.167-0.089-0.346-0.161-0.532-0.214
	c-0.332-0.035-0.665-0.064-0.998-0.087c-0.333-0.023-0.667-0.04-1-0.05c-0.333-0.011-0.667-0.016-1.001-0.014
	s-0.667,0.008-1.001,0.021h-0.925H50.85h-0.925H49v2.542v2.542v2.543V45.7z"/>
<path d="M71.09,73V61.5V50V38.5V27h5.25h5.25h5.25h5.25v1.948v1.948v1.947v1.948h-3.82h-3.82h-3.82h-3.82v2.552v2.553v2.553V45
	h3.548h3.548h3.548H91v1.938v1.938v1.938v1.938h-3.548h-3.548h-3.548H76.81v3.125V59v3.125v3.125h3.958h3.957h3.957h3.958v1.938
	v1.938v1.938V73h-5.387h-5.388h-5.388H71.09z"/>
<path style="fill:#FFFFFF;" d="M93.39,73.76h-5.75h-5.75h-5.75h-5.75V61.88V50V38.12V26.24h5.615h5.615h5.615h5.615v2.323v2.323
	v2.323v2.322h-3.822h-3.823h-3.823H77.56v2.175v2.175v2.175v2.175h3.557h3.558h3.558h3.557v2.312v2.312v2.312v2.312h-3.557h-3.558
	h-3.558H77.56v2.75v2.75v2.75v2.75h3.958h3.957h3.957h3.958v2.32v2.32v2.32V73.76z M71.84,72.26h5h5h5h5v-1.565V69.13v-1.565V66
	h-3.945H83.95h-3.945H76.06v-3.5V59v-3.5V52h3.557h3.558h3.558h3.557v-1.567v-1.568v-1.568V45.73h-3.557h-3.558h-3.558H76.06v-2.932
	v-2.933v-2.932V34h3.822h3.823h3.823h3.822v-1.565V30.87v-1.565V27.74h-4.878h-4.877h-4.877H71.84v11.13V50v11.13V72.26z"/>
</svg>
