<svg xmlns="http://www.w3.org/2000/svg" viewBox="0 0 100 100"><path d="M9.9,71.89V62h5.36a9.29,9.29,0,0,1,2.62.3,3.28,3.28,0,0,1,1.55.93A1.93,1.93,0,0,1,20,64.49a1.77,1.77,0,0,1-.49,1.2A3.5,3.5,0,0,1,18,66.6a4.22,4.22,0,0,1,2,.9A2,2,0,0,1,20.68,69a2.21,2.21,0,0,1-.42,1.3,2.92,2.92,0,0,1-1.05.93,5.52,5.52,0,0,1-1.56.49,13.76,13.76,0,0,1-2.31.16Zm1.89-5.76h3.09a9.5,9.5,0,0,0,1.8-.12,2.26,2.26,0,0,0,1.09-.49,1.15,1.15,0,0,0,.36-.87,1.24,1.24,0,0,0-.34-.87,1.79,1.79,0,0,0-1-.52,11.91,11.91,0,0,0-2.18-.14H11.79Zm0,4.59h3.55a12.11,12.11,0,0,0,1.29,0,3.69,3.69,0,0,0,1.09-.27,1.78,1.78,0,0,0,.72-.55,1.32,1.32,0,0,0,.29-.84,1.36,1.36,0,0,0-.41-1,2.36,2.36,0,0,0-1.14-.57,9.94,9.94,0,0,0-2.09-.17h-3.3Z"/><path d="M23.89,71.89V62h5.65a9.53,9.53,0,0,1,2.6.27,2.68,2.68,0,0,1,1.41.94,2.33,2.33,0,0,1,.53,1.5,2.25,2.25,0,0,1-.87,1.79,5.17,5.17,0,0,1-2.72.92,4.88,4.88,0,0,1,1,.49,7.9,7.9,0,0,1,1.4,1.33l2.22,2.7H33l-1.69-2.06c-.5-.6-.9-1.06-1.22-1.38a3.88,3.88,0,0,0-.86-.66,2.83,2.83,0,0,0-.77-.27,7,7,0,0,0-.94,0h-2v4.41Zm1.69-5.55H29.2A6.61,6.61,0,0,0,31,66.15a1.82,1.82,0,0,0,1-.6,1.35,1.35,0,0,0-.31-2,3.75,3.75,0,0,0-2.08-.45h-4Z"/><path d="M36.53,71.89,41.85,62h2l5.67,9.94H47.41l-1.61-3H40l-1.52,3Zm4-4.08h4.7l-1.45-2.75a21.68,21.68,0,0,1-1-2.07,10.41,10.41,0,0,1-.75,1.9Z"/><path d="M51.94,71.89V62h1.74l6.75,7.81V62h1.62v9.94H60.31l-6.74-7.81v7.81Z"/><path d="M75.29,68.41l1.73.33a4.48,4.48,0,0,1-2,2.47,6.6,6.6,0,0,1-3.46.85,7.73,7.73,0,0,1-3.44-.65,4.59,4.59,0,0,1-2-1.9,5.36,5.36,0,0,1-.69-2.66,4.72,4.72,0,0,1,.78-2.71,4.79,4.79,0,0,1,2.22-1.76,8.23,8.23,0,0,1,3.18-.6,6.55,6.55,0,0,1,3.3.76,4.05,4.05,0,0,1,1.86,2.14l-1.7.3a3.12,3.12,0,0,0-1.32-1.58,4.34,4.34,0,0,0-2.18-.5,5.34,5.34,0,0,0-2.52.55,3.07,3.07,0,0,0-1.42,1.48,4.56,4.56,0,0,0-.41,1.91,4.8,4.8,0,0,0,.48,2.21,3.05,3.05,0,0,0,1.52,1.42,5.29,5.29,0,0,0,2.22.47,4.46,4.46,0,0,0,2.46-.64A3.22,3.22,0,0,0,75.29,68.41Z"/><path d="M80.25,71.89V62h1.66V66h6.53V62H90.1v9.94H88.44V67.21H81.91v4.68Z"/><path d="M43.33,59.37H36L33.1,52.23H19.78L17,59.37H9.9l13-31.43H30ZM30.94,46.93,26.35,35.27l-4.5,11.66Z"/><path d="M44.08,59.87H35.67l-2.91-7.14H20.12l-2.75,7.14H9.15L22.54,27.44h7.78Zm-7.74-1h6.23L29.65,28.44H23.21L10.64,58.87h6.05l2.75-7.14h14ZM31.67,47.43H21.12l5.22-13.54Zm-9.09-1h7.63l-3.86-9.78Z" fill="#fff"/><path d="M46.69,59.37V27.94h6.73V59.37Z"/><path d="M53.92,59.87H46.19V27.44h7.73Zm-6.73-1h5.73V28.44H47.19Z" fill="#fff"/><path d="M59.85,59.37V27.94H74a25.83,25.83,0,0,1,7.76.84,7.59,7.59,0,0,1,3.87,3,8.66,8.66,0,0,1,1.46,4.95,8.09,8.09,0,0,1-2.21,5.84A10.82,10.82,0,0,1,78.3,45.5a15.26,15.26,0,0,1,3.6,2.64,34.42,34.42,0,0,1,3.83,5.1l4.07,6.13h-8l-4.87-6.84a47.27,47.27,0,0,0-3.54-4.62,5.19,5.19,0,0,0-2-1.31,11.93,11.93,0,0,0-3.38-.35H66.57V59.37Zm6.72-18.14h5a27,27,0,0,0,6-.39,3.58,3.58,0,0,0,1.88-1.32,3.9,3.9,0,0,0,.68-2.36,3.64,3.64,0,0,0-.89-2.57,4.22,4.22,0,0,0-2.54-1.23c-.54-.07-2.18-.11-4.91-.11H66.57Z"/><path d="M90.73,59.87H81.5l-5-7A44.27,44.27,0,0,0,73,48.26a4.74,4.74,0,0,0-1.82-1.18,11.3,11.3,0,0,0-3.23-.33h-.87V59.87H59.35V27.44H74a25.72,25.72,0,0,1,7.92.87,8.14,8.14,0,0,1,4.13,3.21,9.21,9.21,0,0,1,1.54,5.23,8.63,8.63,0,0,1-2.35,6.19,10.52,10.52,0,0,1-5.53,2.82,15.24,15.24,0,0,1,2.54,2A36.3,36.3,0,0,1,86.15,53Zm-8.72-1h6.86l-3.55-5.35a36.2,36.2,0,0,0-3.77-5,15.31,15.31,0,0,0-3.49-2.56l-1.32-.72L78.23,45a10.43,10.43,0,0,0,6.3-2.75,7.7,7.7,0,0,0,2.07-5.5,8.25,8.25,0,0,0-1.37-4.68,7.22,7.22,0,0,0-3.63-2.82A25.46,25.46,0,0,0,74,28.44H60.35V58.87h5.72V45.75h1.87a11.85,11.85,0,0,1,3.54.38,5.66,5.66,0,0,1,2.22,1.43,44.24,44.24,0,0,1,3.6,4.68ZM71.55,41.73H66.07v-9h5.75c2.78,0,4.41,0,5,.11a4.77,4.77,0,0,1,2.84,1.4,4.12,4.12,0,0,1,1,2.9,4.48,4.48,0,0,1-.77,2.65,4.17,4.17,0,0,1-2.14,1.51A26.77,26.77,0,0,1,71.55,41.73Zm-4.48-1h4.48c3.94,0,5.38-.2,5.89-.36a3.12,3.12,0,0,0,1.64-1.15,3.44,3.44,0,0,0,.58-2.06,3.16,3.16,0,0,0-.76-2.23,3.8,3.8,0,0,0-2.25-1.08c-.5-.06-2.13-.1-4.83-.1H67.07Z" fill="#fff"/></svg>