<?xml version="1.0" encoding="utf-8"?>
<!-- Generator: Adobe Illustrator 25.2.0, SVG Export Plug-In . SVG Version: 6.00 Build 0)  -->
<svg version="1.1" id="Layer_1" xmlns="http://www.w3.org/2000/svg" xmlns:xlink="http://www.w3.org/1999/xlink" x="0px" y="0px"
	 viewBox="0 0 100 100" style="enable-background:new 0 0 100 100;" xml:space="preserve">
<g>
	<path d="M76.2,70.1c-2.6,0.8-5.9,1.6-10,2.4c-4.1,0.8-8.2,1.2-12.1,1.2c-9.2,0-16.6-2.1-22-6.2c-5.5-4.1-8.2-10-8.2-17.6
		c0-7.1,2.7-12.8,8.2-17.1s13-6.4,22.5-6.4c4.9,0,8.9,0.4,12,1.1s6.2,1.7,9.5,2.9V41h-1.3c-0.7-0.4-1.7-1-3.1-1.8s-2.6-1.5-3.9-2
		c-1.5-0.7-3.2-1.2-5.1-1.7c-1.9-0.5-4-0.7-6.1-0.7c-2.5,0-4.8,0.3-6.9,0.9s-3.9,1.5-5.6,2.8c-1.5,1.2-2.8,2.8-3.7,4.6
		c-0.9,1.9-1.4,4.1-1.4,6.5c0,5.3,1.7,9.2,5.2,11.8c3.4,2.5,8.1,3.8,14.1,3.8c0.5,0,1.1,0,1.9,0c0.7,0,1.3-0.1,1.9-0.1v-8.9H50.6
		v-8.5h25.6V70.1z"/>
</g>
</svg>
