<svg xmlns="http://www.w3.org/2000/svg" viewBox="0 0 100 100"><path d="M35.47,41.62a27.42,27.42,0,0,1-.64,6A15.13,15.13,0,0,1,33,52.46a18,18,0,0,1-1.61,2.2,9.67,9.67,0,0,1-1.94,1.7,9.16,9.16,0,0,1-2.32,1.1,9,9,0,0,1-2.79.4H20.54V72.73H13.3V27.27H24.48a11.55,11.55,0,0,1,4.3.72,9.14,9.14,0,0,1,3.29,2.28,11.39,11.39,0,0,1,2.51,4.56A23.05,23.05,0,0,1,35.47,41.62ZM28,41.9a8.54,8.54,0,0,0-.58-3.32,4,4,0,0,0-1.39-1.9,4.35,4.35,0,0,0-2-.81,23.7,23.7,0,0,0-2.54-.11h-1V49.37H21c.68,0,1.33,0,1.93,0a7.13,7.13,0,0,0,1.59-.21,4,4,0,0,0,1.23-.6,3.33,3.33,0,0,0,1-1,7,7,0,0,0,1-2.35A16.71,16.71,0,0,0,28,41.9Z"/><path d="M21.29,73.48H12.55v-47H24.48a12.48,12.48,0,0,1,4.58.77,9.94,9.94,0,0,1,3.55,2.46A12.3,12.3,0,0,1,35.3,34.6a24,24,0,0,1,.92,7,28.42,28.42,0,0,1-.66,6.21,16,16,0,0,1-1.93,5,16.81,16.81,0,0,1-1.69,2.3,10,10,0,0,1-4.59,3,10.2,10.2,0,0,1-3,.43h-3ZM14.05,72h5.74V57.11h4.54a8.42,8.42,0,0,0,2.56-.36,8.52,8.52,0,0,0,2.13-1,8.87,8.87,0,0,0,1.79-1.58,16.51,16.51,0,0,0,1.55-2.1A14.77,14.77,0,0,0,34.1,47.5a27.25,27.25,0,0,0,.62-5.88,22.59,22.59,0,0,0-.85-6.57,10.83,10.83,0,0,0-2.35-4.27,8.49,8.49,0,0,0-3-2.09,11,11,0,0,0-4-.67H14.05Zm7-21.86H19.79V35h1.77a25.62,25.62,0,0,1,2.63.11,5.18,5.18,0,0,1,2.3.94,4.63,4.63,0,0,1,1.66,2.23,9.28,9.28,0,0,1,.64,3.61,17,17,0,0,1-.28,3.45,7.58,7.58,0,0,1-1.1,2.6,4.15,4.15,0,0,1-1.2,1.2,4.89,4.89,0,0,1-1.46.71,8,8,0,0,1-1.75.23C22.39,50.11,21.73,50.12,21,50.12Zm.25-13.61V48.62c.58,0,1.13,0,1.66,0a6.21,6.21,0,0,0,1.41-.18,3.4,3.4,0,0,0,1-.49,2.67,2.67,0,0,0,.79-.78A6.1,6.1,0,0,0,27,45a15.44,15.44,0,0,0,.25-3.14,7.83,7.83,0,0,0-.52-3,3.4,3.4,0,0,0-1.1-1.56,3.8,3.8,0,0,0-1.65-.7,22.62,22.62,0,0,0-2.46-.1Z" fill="#fff"/><path d="M58.57,72.73h-19V27.27h7.14V64.06H58.57Z"/><path d="M59.32,73.48H38.85v-47h8.64V63.31H59.32Zm-19-1.5H57.82V64.81H46V28H40.35Z" fill="#fff"/><path d="M86.7,72.73H79.89L69,41V72.73H62.55V27.27h8.69l9,26v-26H86.7Z"/><path d="M87.45,73.48h-8.1L69.77,45.54V73.48h-8v-47h10l7.71,22.32V26.52h8Zm-7-1.5H86V28H81V57.78L70.7,28H63.3V72h5V36.54Z" fill="#fff"/></svg>