<?xml version="1.0" encoding="utf-8"?>
<!-- Generator: Adobe Illustrator 25.2.0, SVG Export Plug-In . SVG Version: 6.00 Build 0)  -->
<svg version="1.1" id="Layer_1" xmlns="http://www.w3.org/2000/svg" xmlns:xlink="http://www.w3.org/1999/xlink" x="0px" y="0px"
	 viewBox="0 0 100 100" style="enable-background:new 0 0 100 100;" xml:space="preserve">
<g>
	<polygon points="28,34.7 28,26.7 9.6,26.7 9.6,34.7 15,34.7 15,65 9.6,65 9.6,73 28,73 28,65 22.6,65 22.6,34.7 	"/>
	<polygon points="53.3,34.7 53.3,26.7 34.9,26.7 34.9,34.7 40.2,34.7 40.2,65 34.9,65 34.9,73 53.3,73 53.3,65 47.9,65 47.9,34.7 	
		"/>
	<polygon points="90.4,73.3 78.3,49.1 89.4,26.7 81.5,26.7 74.3,41.1 67.1,26.7 58.1,26.7 69.7,50.1 58.1,73.3 66.3,73.3 73.8,58.3 
		81.2,73.3 	"/>
</g>
</svg>
