<svg xmlns="http://www.w3.org/2000/svg" viewBox="0 0 100 100"><path d="M12.47,72V28H32.59v7.44H18v9.75H31.57V52.6H18v12H33.11V72Z"/><path d="M33.86,72.73H11.72V27.24H33.34v8.94H18.7v8.25H32.32v8.92H18.7V63.82H33.86Zm-20.64-1.5H32.36V65.32H17.2V51.85H30.82V45.93H17.2V34.68H31.84V28.74H13.22Z" fill="#fff"/><path d="M36.87,72V28h7.94l4.77,30,4.71-30h8V72H57.32V37.35L52.11,72H47L41.8,37.35V72Z"/><path d="M63,72.73H56.57V47.37L52.75,72.73h-6.4L42.55,47.4V72.73H36.12V27.24h9.33l4.12,26,4.08-25.95H63Zm-4.93-1.5H61.5V28.74H54.93L49.58,62.8,44.17,28.74H37.62V71.23h3.43V37.35l1.49-.11,5.1,34h3.82l5.12-34,1.49.11Z" fill="#fff"/><path d="M66.17,57.67l5.16-.84a14,14,0,0,0,1.89,6.39,4.82,4.82,0,0,0,7.71.22,7.13,7.13,0,0,0,1.3-4.24,5.84,5.84,0,0,0-.55-2.66,4.71,4.71,0,0,0-1.91-1.9,46,46,0,0,0-4.24-1.92,12.79,12.79,0,0,1-6-4.36,15.62,15.62,0,0,1-2.42-8.85,17.22,17.22,0,0,1,1.14-6.29,9.52,9.52,0,0,1,3.28-4.45,8.66,8.66,0,0,1,5.17-1.53,8.43,8.43,0,0,1,7.44,3.63q2.5,3.63,2.63,9.69l-5.3.39A9.9,9.9,0,0,0,80,36.08a3.92,3.92,0,0,0-3.35-1.49A4.42,4.42,0,0,0,73,36.18a4.11,4.11,0,0,0-.85,2.73A4.53,4.53,0,0,0,73,41.58c.67.94,2.29,1.92,4.88,2.94a19.85,19.85,0,0,1,5.72,3.17,10.69,10.69,0,0,1,2.9,4.47,20.34,20.34,0,0,1,1,7,19.89,19.89,0,0,1-1.25,7.08,10.21,10.21,0,0,1-3.55,4.91A9.72,9.72,0,0,1,77,72.76a8.74,8.74,0,0,1-7.65-3.85Q66.69,65.06,66.17,57.67Z"/><path d="M77,73.51a9.47,9.47,0,0,1-8.26-4.18c-1.86-2.67-3-6.58-3.33-11.61l0-.68L72,56l.08.79a13.35,13.35,0,0,0,1.76,6,4.07,4.07,0,0,0,6.48.22,6.42,6.42,0,0,0,1.16-3.81A5.18,5.18,0,0,0,81,56.88a4,4,0,0,0-1.62-1.6c-.59-.34-2-1-4.15-1.87a13.63,13.63,0,0,1-6.32-4.63,16.41,16.41,0,0,1-2.55-9.27A18,18,0,0,1,67.56,33a10.31,10.31,0,0,1,3.54-4.79,9.43,9.43,0,0,1,5.61-1.67,9.19,9.19,0,0,1,8.06,4c1.75,2.54,2.67,5.94,2.76,10.11v.71l-6.74.49L80.73,41a9.29,9.29,0,0,0-1.31-4.5,3.23,3.23,0,0,0-2.77-1.19,3.69,3.69,0,0,0-3,1.32,3.47,3.47,0,0,0-.67,2.25,3.8,3.8,0,0,0,.65,2.24c.4.56,1.51,1.48,4.54,2.68a20.38,20.38,0,0,1,6,3.3,11.59,11.59,0,0,1,3.11,4.77,21.37,21.37,0,0,1,1.09,7.27A20.74,20.74,0,0,1,87,66.52a11,11,0,0,1-3.82,5.25A10.47,10.47,0,0,1,77,73.51ZM67,58.3c.39,4.43,1.4,7.85,3,10.18A8,8,0,0,0,77,72a9,9,0,0,0,5.29-1.47A9.45,9.45,0,0,0,85.58,66a19,19,0,0,0,1.2-6.81,19.86,19.86,0,0,0-1-6.75,10.1,10.1,0,0,0-2.7-4.17,19,19,0,0,0-5.5-3c-2.74-1.08-4.45-2.13-5.21-3.2a5.3,5.3,0,0,1-.93-3.11,4.88,4.88,0,0,1,1-3.21,5.17,5.17,0,0,1,4.19-1.86,4.67,4.67,0,0,1,4,1.78,9.55,9.55,0,0,1,1.53,4.53L86,39.87a16.37,16.37,0,0,0-2.47-8.57A7.68,7.68,0,0,0,76.71,28,8,8,0,0,0,72,29.38a8.76,8.76,0,0,0-3,4.12,16.5,16.5,0,0,0-1.09,6A15,15,0,0,0,70.16,48,12.22,12.22,0,0,0,75.81,52a46.52,46.52,0,0,1,4.34,2,5.44,5.44,0,0,1,2.2,2.22,6.57,6.57,0,0,1,.63,3,7.9,7.9,0,0,1-1.44,4.68,5.57,5.57,0,0,1-8.93-.23,13.57,13.57,0,0,1-1.93-6Z" fill="#fff"/></svg>