<?xml version="1.0" encoding="utf-8"?>
<!-- Generator: Adobe Illustrator 25.2.0, SVG Export Plug-In . SVG Version: 6.00 Build 0)  -->
<svg version="1.1" id="Layer_1" xmlns="http://www.w3.org/2000/svg" xmlns:xlink="http://www.w3.org/1999/xlink" x="0px" y="0px"
	 viewBox="0 0 100 100" style="enable-background:new 0 0 100 100;" xml:space="preserve">
<g>
	<path d="M13.9,57.4l4.9-0.8c0.3,2.8,0.9,4.8,1.8,6.2c0.9,1.3,2.1,2,3.6,2c1.6,0,2.8-0.6,3.7-1.7c0.8-1.2,1.2-2.5,1.2-4.1
		c0-1-0.2-1.9-0.5-2.6c-0.3-0.7-0.9-1.3-1.8-1.8c-0.6-0.3-1.9-1-4-1.9c-2.7-1.1-4.6-2.5-5.7-4.2c-1.5-2.3-2.3-5.2-2.3-8.5
		c0-2.2,0.4-4.2,1.1-6.1c0.7-1.9,1.8-3.3,3.1-4.3s3-1.5,4.9-1.5c3.1,0,5.5,1.2,7.1,3.5c1.6,2.3,2.4,5.4,2.5,9.3l-5,0.4
		c-0.2-2.2-0.7-3.7-1.4-4.7s-1.8-1.4-3.2-1.4c-1.5,0-2.6,0.5-3.4,1.5c-0.5,0.7-0.8,1.5-0.8,2.6c0,1,0.2,1.9,0.7,2.6
		c0.6,0.9,2.2,1.9,4.6,2.8c2.5,1,4.3,2,5.4,3.1c1.2,1.1,2.1,2.5,2.8,4.3c0.7,1.8,1,4.1,1,6.8c0,2.4-0.4,4.7-1.2,6.8
		c-0.8,2.1-1.9,3.7-3.4,4.7c-1.5,1-3.3,1.5-5.4,1.5c-3.2,0-5.6-1.2-7.3-3.7S14.3,62.1,13.9,57.4z"/>
	<path d="M60.9,71.2h-5.5l-2.2-9.6h-10l-2.1,9.6h-5.3l9.7-42.4H51L60.9,71.2z M51.7,54.4l-3.4-15.7l-3.4,15.7H51.7z"/>
	<path d="M63.6,71.2V28.8h10.6c2.7,0,4.6,0.4,5.8,1.1s2.2,2.1,2.9,4.1c0.7,1.9,1.1,4.2,1.1,6.7c0,3.2-0.6,5.8-1.7,7.9
		c-1.1,2.1-2.7,3.4-4.9,3.9c1.1,1.1,2,2.3,2.7,3.6c0.7,1.3,1.7,3.6,2.9,6.9l3,8.3h-6L76.4,62c-1.3-3.3-2.2-5.4-2.7-6.2
		c-0.5-0.9-1-1.4-1.5-1.8c-0.5-0.3-1.4-0.5-2.5-0.5h-1v17.7H63.6z M68.7,46.7h3.7c2.4,0,3.9-0.2,4.5-0.5c0.6-0.3,1.1-0.9,1.4-1.8
		c0.3-0.8,0.5-1.9,0.5-3.2c0-1.4-0.2-2.6-0.7-3.5s-1.1-1.4-1.9-1.7C75.9,36,74.6,36,72.6,36h-3.9V46.7z"/>
</g>
</svg>
