<svg xmlns="http://www.w3.org/2000/svg" viewBox="0 0 100 100"><path d="M34.14,43.19a15.91,15.91,0,0,1-.75,4.91A10.63,10.63,0,0,1,31.24,52a15.28,15.28,0,0,1-1.9,1.78,10.62,10.62,0,0,1-2.27,1.39,14.13,14.13,0,0,1-2.71.9,15.66,15.66,0,0,1-3.28.32H16.64V68.48H8.17v-37H21.26a19.19,19.19,0,0,1,5,.59A11.58,11.58,0,0,1,30.15,34a9,9,0,0,1,2.94,3.71A13.26,13.26,0,0,1,34.14,43.19Zm-8.71.22a5.05,5.05,0,0,0-.68-2.69,3.65,3.65,0,0,0-1.63-1.55,6.6,6.6,0,0,0-2.3-.66c-.73-.06-1.72-.09-3-.09h-1.2V49.49h.59l2.27,0a12,12,0,0,0,1.86-.18,5.6,5.6,0,0,0,1.43-.48A3.64,3.64,0,0,0,24,48a5,5,0,0,0,1.17-1.91A9.56,9.56,0,0,0,25.43,43.41Z"/><path d="M17.39,69.23h-10V30.77H21.26a20.3,20.3,0,0,1,5.25.61,12.66,12.66,0,0,1,4.08,2,9.93,9.93,0,0,1,3.19,4,14.3,14.3,0,0,1,1.11,5.83,16.8,16.8,0,0,1-.79,5.14,11.31,11.31,0,0,1-2.31,4.17,15.3,15.3,0,0,1-2,1.87,12.17,12.17,0,0,1-2.43,1.49,14.75,14.75,0,0,1-2.86.94,15.79,15.79,0,0,1-3.44.34H17.39Zm-8.47-1.5h7V55.64h5.19a14.82,14.82,0,0,0,3.12-.3,13.16,13.16,0,0,0,2.55-.85,10.33,10.33,0,0,0,2.13-1.29,15.26,15.26,0,0,0,1.8-1.7,9.84,9.84,0,0,0,2-3.63,15.08,15.08,0,0,0,.72-4.68,12.73,12.73,0,0,0-1-5.22,8.5,8.5,0,0,0-2.7-3.41,10.82,10.82,0,0,0-3.6-1.73,18.58,18.58,0,0,0-4.85-.56H8.92Zm8.31-17.49H15.89V37.67h1.95c1.27,0,2.29,0,3,.09a7.36,7.36,0,0,1,2.56.73,4.46,4.46,0,0,1,2,1.84,5.9,5.9,0,0,1,.78,3.08,10.37,10.37,0,0,1-.33,2.9,5.82,5.82,0,0,1-1.34,2.21,4.66,4.66,0,0,1-1.39,1,6.76,6.76,0,0,1-1.63.54,12.2,12.2,0,0,1-2,.19Zm.16-11.07v9.57l2.09,0a11.76,11.76,0,0,0,1.74-.16,5.47,5.47,0,0,0,1.25-.43,3.18,3.18,0,0,0,.94-.63,4.29,4.29,0,0,0,1-1.63,8.8,8.8,0,0,0,.27-2.46,4.38,4.38,0,0,0-.57-2.3,3,3,0,0,0-1.29-1.26,6.05,6.05,0,0,0-2.06-.59c-.71-.06-1.69-.09-2.92-.09Z" fill="#fff"/><path d="M55.48,68.48H37.31V62h4.85V38H37.31V31.52H55.48V38H50.63V62h4.85Z"/><path d="M56.23,69.23H36.56v-8h4.85V38.73H36.56v-8H56.23v8H51.38V61.27h4.85Zm-18.17-1.5H54.73v-5H49.88V37.23h4.85v-5H38.06v5h4.85V62.77H38.06Z" fill="#fff"/><path d="M91.83,50q0,9-4.37,14.1t-12,5.14q-7.64,0-12-5.2T59.13,50q0-8.91,4.35-14.08t12-5.18q7.62,0,12,5.15T91.83,50Zm-8.74,0a21.67,21.67,0,0,0-.63-5.62,12,12,0,0,0-1.66-3.81,6.33,6.33,0,0,0-5.31-2.83,6.42,6.42,0,0,0-2.83.61,7,7,0,0,0-2.45,2.17,11.82,11.82,0,0,0-1.68,3.82A21.92,21.92,0,0,0,67.88,50a21.85,21.85,0,0,0,.61,5.65,12,12,0,0,0,1.68,3.76,6.42,6.42,0,0,0,2.47,2.19,6.53,6.53,0,0,0,2.85.66,6.31,6.31,0,0,0,2.91-.71,6.51,6.51,0,0,0,2.42-2.19,12.8,12.8,0,0,0,1.68-3.76A22,22,0,0,0,83.09,50Z"/><path d="M75.47,70c-5.3,0-9.53-1.84-12.56-5.47S58.38,56.06,58.38,50s1.53-11,4.53-14.56S70.17,30,75.47,30,85,31.83,88,35.42,92.58,43.88,92.58,50,91.05,61.05,88,64.6,80.75,70,75.47,70Zm0-38.5c-4.83,0-8.67,1.65-11.41,4.91S59.88,44.28,59.88,50s1.41,10.24,4.18,13.55,6.51,4.94,11.41,4.94,8.67-1.64,11.42-4.88S91.08,55.77,91.08,50s-1.41-10.34-4.19-13.62S80.29,31.5,75.47,31.5ZM75.5,63a7.29,7.29,0,0,1-3.18-.73,7.12,7.12,0,0,1-2.76-2.44,12.77,12.77,0,0,1-1.79-4A22.93,22.93,0,0,1,67.13,50a23,23,0,0,1,.67-5.88,12.35,12.35,0,0,1,1.81-4.06,7.63,7.63,0,0,1,2.73-2.41,7.44,7.44,0,0,1,6.32.05,7.31,7.31,0,0,1,2.75,2.41,13.09,13.09,0,0,1,1.78,4.05A22.85,22.85,0,0,1,83.84,50a22.63,22.63,0,0,1-.62,5.82,13.4,13.4,0,0,1-1.78,4,7.13,7.13,0,0,1-2.71,2.44A7,7,0,0,1,75.5,63Zm0-24.54A5.81,5.81,0,0,0,73,39a6.23,6.23,0,0,0-2.18,2,11.14,11.14,0,0,0-1.56,3.57A21.27,21.27,0,0,0,68.63,50a21.17,21.17,0,0,0,.59,5.45A11.4,11.4,0,0,0,70.78,59,5.83,5.83,0,0,0,73,60.94a5.61,5.61,0,0,0,7.24-2,11.89,11.89,0,0,0,1.57-3.53A20.88,20.88,0,0,0,82.34,50a21.16,21.16,0,0,0-.6-5.43A11.28,11.28,0,0,0,80.18,41,5.75,5.75,0,0,0,78,39.06,5.7,5.7,0,0,0,75.5,38.48Z" fill="#fff"/></svg>