<?xml version="1.0" encoding="utf-8"?>
<!-- Generator: Adobe Illustrator 25.2.0, SVG Export Plug-In . SVG Version: 6.00 Build 0)  -->
<svg version="1.1" id="Layer_1" xmlns="http://www.w3.org/2000/svg" xmlns:xlink="http://www.w3.org/1999/xlink" x="0px" y="0px"
	 viewBox="0 0 100 100" style="enable-background:new 0 0 100 100;" xml:space="preserve">
<g>
	<path d="M44.6,72.1H15.9v-7.7h9.2V41h-9.2v-7.2c1.3,0,2.7-0.1,4-0.3c1.3-0.2,2.4-0.5,3.2-0.9c0.9-0.5,1.7-1.1,2.2-1.9
		c0.5-0.8,0.8-1.8,0.9-3h9.5v36.7h9V72.1z"/>
	<path d="M84.1,50c0,3.8-0.3,7.2-0.9,10.1c-0.6,2.9-1.6,5.3-2.9,7.2c-1.3,1.9-3,3.4-5.2,4.4s-4.7,1.5-7.8,1.5
		c-3.1,0-5.6-0.5-7.8-1.5c-2.1-1-3.9-2.5-5.2-4.4c-1.3-1.9-2.3-4.3-2.9-7.2c-0.6-2.8-0.9-6.2-0.9-10c0-3.9,0.3-7.3,0.9-10.1
		c0.6-2.8,1.6-5.2,3-7.2c1.4-2,3.1-3.4,5.3-4.4c2.1-1,4.7-1.4,7.6-1.4c3.1,0,5.7,0.5,7.8,1.5c2.1,1,3.8,2.5,5.2,4.5
		c1.3,1.9,2.3,4.3,2.9,7.2S84.1,46.3,84.1,50z M73.1,50c0-5.5-0.4-9.3-1.3-11.5c-0.9-2.2-2.4-3.3-4.5-3.3c-2.1,0-3.6,1.1-4.5,3.3
		c-0.9,2.2-1.3,6.1-1.3,11.6c0,5.4,0.4,9.2,1.3,11.5c0.9,2.3,2.4,3.4,4.5,3.4s3.6-1.1,4.5-3.4C72.7,59.2,73.1,55.4,73.1,50z"/>
</g>
</svg>
