<?xml version="1.0" encoding="iso-8859-1"?>
<!-- Generator: Adobe Illustrator 25.4.1, SVG Export Plug-In . SVG Version: 6.00 Build 0)  -->
<svg version="1.1" id="Layer_1" xmlns="http://www.w3.org/2000/svg" xmlns:xlink="http://www.w3.org/1999/xlink" x="0px" y="0px"
	 viewBox="0 0 100 100" style="enable-background:new 0 0 100 100;" xml:space="preserve">
<polygon points="91.4,44.1 91.4,42.125 91.4,40.15 91.4,38.175 91.4,36.2 85.05,36.2 78.7,36.2 72.35,36.2 66,36.2 66,38.175 
	66,40.15 66,42.125 66,44.1 67.85,44.1 69.7,44.1 71.55,44.1 73.4,44.1 73.4,51.6 73.4,59.1 73.4,66.6 73.4,74.1 71.55,74.1 
	69.7,74.1 67.85,74.1 66,74.1 66,76.075 66,78.05 66,80.025 66,82 72.35,82 78.7,82 85.05,82 91.4,82 91.4,80.025 91.4,78.05 
	91.4,76.075 91.4,74.1 89.55,74.1 87.7,74.1 85.85,74.1 84,74.1 84,66.6 84,59.1 84,51.6 84,44.1 85.85,44.1 87.7,44.1 89.55,44.1 
	"/>
<polygon points="60.4,36.2 56.325,47.65 52.25,59.1 48.175,70.55 44.1,82 40.925,82 37.75,82 34.575,82 31.4,82 27.375,70.55 
	23.35,59.1 19.325,47.65 15.3,36.2 18.175,36.2 21.05,36.2 23.925,36.2 26.8,36.2 29.55,44.65 32.3,53.1 35.05,61.55 37.8,70 
	40.575,61.55 43.35,53.1 46.125,44.65 48.9,36.2 51.775,36.2 54.65,36.2 57.525,36.2 "/>
</svg>
