<?xml version="1.0" encoding="utf-8"?>
<!-- Generator: Adobe Illustrator 25.2.0, SVG Export Plug-In . SVG Version: 6.00 Build 0)  -->
<svg version="1.1" id="Layer_1" xmlns="http://www.w3.org/2000/svg" xmlns:xlink="http://www.w3.org/1999/xlink" x="0px" y="0px"
	 viewBox="0 0 100 100" style="enable-background:new 0 0 100 100;" xml:space="preserve">
<g>
	<path d="M54.5,73.6c-9,0-16.2-2.1-21.5-6.2c-5.3-4.1-8-9.9-8-17.4c0-7.2,2.7-12.9,8-17.2c5.3-4.3,12.5-6.4,21.5-6.4
		c2.4,0,4.5,0.1,6.5,0.3c1.9,0.2,3.7,0.5,5.5,0.9c1.4,0.3,2.9,0.7,4.5,1.2c1.6,0.5,2.9,1,3.9,1.4V41h-1.5c-0.7-0.5-1.6-1.1-2.7-1.8
		c-1.1-0.7-2.4-1.3-3.8-2c-1.4-0.6-2.9-1.2-4.6-1.7c-1.7-0.5-3.4-0.7-5.3-0.7c-2.2,0-4.2,0.3-6,0.8c-1.8,0.5-3.5,1.4-5.2,2.7
		c-1.5,1.2-2.7,2.7-3.7,4.7c-1,2-1.4,4.3-1.4,7c0,2.8,0.5,5.2,1.5,7.1c1,1.9,2.3,3.5,3.9,4.6c1.6,1.1,3.3,2,5.2,2.5
		c1.9,0.5,3.8,0.8,5.8,0.8c2,0,3.9-0.2,5.7-0.7c1.8-0.5,3.3-1.1,4.6-1.7c1.3-0.6,2.5-1.3,3.6-1.9c1-0.6,1.9-1.2,2.7-1.7h1.4v10.7
		c-1.1,0.4-2.4,0.8-3.8,1.3c-1.5,0.5-2.9,0.9-4.5,1.3c-1.9,0.4-3.6,0.8-5.3,1C59.7,73.5,57.4,73.6,54.5,73.6z"/>
</g>
</svg>
