<?xml version="1.0" encoding="utf-8"?>
<!-- Generator: Adobe Illustrator 25.3.1, SVG Export Plug-In . SVG Version: 6.00 Build 0)  -->
<svg version="1.1" id="Layer_1" xmlns="http://www.w3.org/2000/svg" xmlns:xlink="http://www.w3.org/1999/xlink" x="0px" y="0px"
	 viewBox="0 0 100 100" style="enable-background:new 0 0 100 100;" xml:space="preserve">
<path d="M81.3,59.3c-1.6,0-3.2,0-4.8,0c-1.7-7.6-3.3-15.2-4.9-22.8c-0.1,0-0.2,0-0.4-0.1c-1.7,7.6-3.3,15.2-5,22.9
	c-1.7,0-3.2,0-4.9,0c-1.9-9.8-3.8-19.6-5.7-29.5c1.5,0,2.9,0,4.4,0c1.2,6.8,2.5,13.7,3.7,20.5c0.2,0,0.4,0,0.6,0
	c1.5-6.8,2.9-13.5,4.5-20.6c1.5,0,3.2-0.1,4.7,0.1c0.4,0,0.8,0.8,0.9,1.4c1.2,5.6,2.3,11.3,3.5,17c0.2,0.8,0.4,1.7,0.6,2.5
	c0.2,0,0.4,0,0.5,0c1.2-6.9,2.5-13.8,3.7-20.8c1.4,0,2.8,0,4.4,0C85.2,39.7,83.2,49.5,81.3,59.3z"/>
<path d="M56.2,59.3c-1.7,0-3.1,0-4.7,0c-0.6-1.7-1.2-3.6-1.7-5.4c-0.3-1-0.7-1.5-1.9-1.5c-2.5,0.1-4.9,0.1-7.4,0
	c-1.1,0-1.7,0.4-1.9,1.4c-0.1,0.6-0.4,1.2-0.6,1.9c-1.2,4-1.2,4-5.6,3.5c0.9-2.9,1.8-5.7,2.7-8.5c2-6.3,4.1-12.6,5.9-18.9
	c0.5-1.7,1.2-2.3,2.9-2.1c0.8,0.1,1.7,0,2.6,0C49.9,39.6,53,49.4,56.2,59.3z M40.5,48c2.6,0,5,0,7.5,0c-1.3-4.1-2.4-8.1-3.8-12.6
	C42.8,39.9,41.7,43.9,40.5,48z"/>
<path d="M30.6,55c0,1.6,0,2.9,0,4.3c-5.5,0-11,0-16.5,0c0-9.7,0-19.4,0-29.2c1.3,0,2.6,0,4.1,0c0,8.2,0,16.5,0,24.9
	C22.5,55,26.4,55,30.6,55z"/>
<path d="M10.1,62.5c2.3,0,4.6-0.2,6.8,0.1c1.1,0.1,2.3,1,3,1.9c0.3,0.4-0.8,1.7-1.3,2.6c0.8,0.4,2.4,0.8,2,2.6
	c-0.4,1.7-1.8,2.1-3.3,2.2c-2.4,0.1-4.8,0-7.3,0C10.1,68.8,10.1,65.8,10.1,62.5z M12.2,70.7c1.7,0,3.3,0.1,4.8-0.1
	c0.5-0.1,1.2-0.8,1.3-1.3c0.1-0.3-0.7-1.2-1.1-1.2c-1.6-0.2-3.3-0.3-5-0.4C12.2,68.8,12.2,69.6,12.2,70.7z M12.2,66.4
	c1.5,0,2.8,0.1,4.1-0.1c0.5-0.1,1-0.8,1.5-1.2c-0.5-0.4-0.9-1.2-1.4-1.3c-1.4-0.2-2.8-0.1-4.2-0.1C12.2,64.8,12.2,65.5,12.2,66.4z"
	/>
<path d="M23.8,62.5c2.4,0,4.8,0,7.1,0c0.6,0,1.3,0.1,1.7,0.4c0.6,0.5,1.5,1.3,1.5,2c0,0.7-0.7,1.6-1.3,2.1c-0.5,0.4-1.3,0.5-1.5,0.5
	c1.1,1.2,2.3,2.5,3.7,4c-1.9,0.8-2.8,0.2-3.8-0.9c-1.3-1.5-2.5-3.5-5.3-2.7c0,1.1,0,2.3,0,3.8c-0.8,0.1-1.4,0.1-2.1,0.2
	C23.8,68.9,23.8,65.8,23.8,62.5z M26,66.7c1.5,0,2.9,0.1,4.3-0.1c0.6-0.1,1-0.9,1.5-1.4c-0.5-0.5-1-1.2-1.6-1.3
	c-1.4-0.2-2.8-0.1-4.3-0.1C26,64.8,26,65.7,26,66.7z"/>
<path d="M51.1,62.7c1.5-0.5,2.4,0,3.3,1.1c1.4,1.8,2.9,3.6,4.8,5.8c0-2.6,0-4.7,0-6.9c0.7-0.1,1.3-0.1,1.9-0.1c0,3.2,0,6.3,0,9.3
	c-1.5,0.6-2.4,0.1-3.3-1c-1.4-1.8-3-3.5-4.8-5.7c0,2.6,0,4.7,0,6.8c-0.7,0-1.3,0-1.9,0C51.1,68.8,51.1,65.8,51.1,62.7z"/>
<path d="M78.4,72c0-3.2,0-6.2,0-9.3c0.7-0.1,1.3-0.1,2.1-0.2c0,1.3,0,2.5,0,3.8c2,0,3.9,0,5.9,0c0.1-1.2,0.1-2.4,0.2-3.7
	c0.7,0,1.3,0,2.1,0c0,3.1,0,6.1,0,9.3c-0.7,0-1.3,0.1-2.1,0.1c0-1.5,0-2.8,0-4.3c-2,0-3.9,0-5.9,0c0,1.4,0,2.7,0,4.2
	C79.8,72,79.2,72,78.4,72z"/>
<path d="M48.7,71.9c-1.5,0.4-2.4,0.2-3-1.1c-0.2-0.4-0.9-0.8-1.5-0.9c-1.2-0.1-2.5-0.1-3.7,0c-0.6,0.1-1.1,0.6-1.6,1
	c-0.7,0.5-1.4,1-2.1,1.5c-0.2-0.2-0.4-0.4-0.6-0.6c1.6-3,3.1-6,4.8-8.9c0.5-0.8,2.5-0.5,3,0.4C45.6,66.1,47.1,68.9,48.7,71.9z
	 M44.5,68.4c-0.7-1.5-1.4-2.7-2.2-4.3c-0.8,1.6-1.4,2.9-2.1,4.3C41.7,68.4,42.9,68.4,44.5,68.4z"/>
<path d="M74.9,65.3c-0.8-0.3-1.6-0.4-2.3-0.9c-1.6-1.1-4.2-0.9-5.3,0.4c-1.1,1.3-0.9,4.1,0.3,5.2c1.4,1.3,3.7,1.1,5.3-0.3
	c0.5-0.5,1.4-0.5,2.6-0.9c-0.7,2.2-1.9,2.8-3.3,3.2c-4.2,1.1-8.2-1.3-7.7-5c0.2-1.3,1-2.9,2.1-3.7c2.6-2,7-1.2,8.7,1.2
	C75,64.8,75,65.1,74.9,65.3z"/>
</svg>
