<?xml version="1.0" encoding="iso-8859-1"?>
<!-- Generator: Adobe Illustrator 25.4.1, SVG Export Plug-In . SVG Version: 6.00 Build 0)  -->
<svg version="1.1" id="Layer_1" xmlns="http://www.w3.org/2000/svg" xmlns:xlink="http://www.w3.org/1999/xlink" x="0px" y="0px"
	 viewBox="0 0 100 100" style="enable-background:new 0 0 100 100;" xml:space="preserve">
<path d="M15.5,57.7v-7.6v-7.6v-7.6v-7.6h3.325h3.325h3.325H28.8c0.825,0,1.6,0.019,2.322,0.055c0.722,0.036,1.391,0.089,2.003,0.157
	c0.612,0.069,1.169,0.154,1.666,0.252s0.934,0.211,1.309,0.336s0.731,0.281,1.069,0.467c0.338,0.186,0.656,0.401,0.956,0.645
	c0.3,0.244,0.581,0.516,0.844,0.815S39.475,30.65,39.7,31s0.425,0.713,0.598,1.088s0.32,0.762,0.439,1.162
	c0.118,0.4,0.209,0.812,0.27,1.237S41.1,35.35,41.1,35.8c0,0.575-0.044,1.125-0.131,1.649c-0.088,0.523-0.219,1.021-0.394,1.489
	c-0.175,0.469-0.394,0.909-0.656,1.32C39.656,40.669,39.35,41.05,39,41.4c-0.35,0.375-0.744,0.713-1.18,1.014
	s-0.914,0.567-1.432,0.798c-0.519,0.231-1.078,0.428-1.677,0.593C34.112,43.969,33.475,44.1,32.8,44.2
	c0.35,0.2,0.681,0.4,0.995,0.602s0.611,0.404,0.893,0.611c0.281,0.206,0.547,0.416,0.798,0.63s0.489,0.433,0.714,0.658
	s0.469,0.5,0.731,0.822c0.262,0.322,0.544,0.691,0.844,1.103s0.619,0.869,0.956,1.366c0.337,0.497,0.694,1.034,1.069,1.609
	l0.95,1.475l0.95,1.475l0.95,1.475L43.6,57.5h-1.9h-1.9h-1.9H36l-1.15-1.65L33.7,54.2l-1.15-1.65L31.4,50.9
	c-0.4-0.6-0.769-1.144-1.106-1.631c-0.337-0.488-0.644-0.919-0.919-1.294c-0.275-0.375-0.519-0.694-0.731-0.956
	C28.431,46.756,28.25,46.55,28.1,46.4s-0.3-0.287-0.452-0.414c-0.152-0.127-0.305-0.242-0.461-0.349
	c-0.156-0.106-0.315-0.203-0.479-0.292s-0.333-0.17-0.508-0.245s-0.362-0.119-0.569-0.142c-0.206-0.023-0.431-0.027-0.681-0.021
	c-0.25,0.007-0.525,0.022-0.831,0.036C23.812,44.987,23.475,45,23.1,45h-0.325H22.45h-0.325H21.8v3.175v3.175v3.175V57.7h-1.575
	H18.65c0,0-0.788,0-1.575,0C16.288,57.7,15.5,57.7,15.5,57.7z M21.8,40.2h1.175h1.175h1.175H26.5c0.75,0,1.431-0.006,2.044-0.02
	c0.612-0.014,1.156-0.036,1.631-0.067c0.475-0.032,0.881-0.072,1.219-0.124C31.731,39.938,32,39.875,32.2,39.8
	c0.2-0.05,0.381-0.119,0.549-0.203s0.32-0.184,0.465-0.297c0.143-0.112,0.278-0.237,0.407-0.372c0.13-0.134,0.255-0.278,0.38-0.428
	c0.1-0.15,0.188-0.312,0.263-0.486s0.138-0.358,0.188-0.551c0.05-0.194,0.087-0.397,0.112-0.608S34.6,36.425,34.6,36.2
	c0-0.25-0.019-0.487-0.055-0.714c-0.036-0.227-0.089-0.442-0.158-0.648c-0.069-0.207-0.153-0.403-0.251-0.593
	c-0.098-0.189-0.211-0.37-0.336-0.545c-0.15-0.15-0.312-0.287-0.487-0.412c-0.175-0.125-0.363-0.237-0.562-0.338
	s-0.412-0.188-0.638-0.263C31.888,32.612,31.65,32.55,31.4,32.5c-0.125-0.025-0.319-0.044-0.578-0.058s-0.584-0.023-0.972-0.029
	c-0.387-0.006-0.837-0.01-1.347-0.011C27.994,32.4,27.425,32.4,26.8,32.4h-1.225H24.35h-1.225H21.9v1.95v1.95v1.95v1.95h-0.025
	H21.85c0,0-0.013,0-0.025,0C21.812,40.2,21.8,40.2,21.8,40.2z"/>
<path d="M46.9,57.7v-7.6v-7.6v-7.6v-7.6h1.575h1.575h1.575H53.2v7.6v7.6v7.6v7.6c0,0-0.394,0-0.984,0s-1.378,0-2.166,0
	c-0.788,0-1.575,0-2.166,0C47.294,57.7,46.9,57.7,46.9,57.7z"/>
<path d="M73.8,46.5v-1.275V43.95v-1.275V41.4h3.4h3.4H84h3.4v3.025v3.025v3.025V53.5c-0.325,0.3-0.688,0.594-1.089,0.881
	c-0.402,0.287-0.842,0.569-1.323,0.844c-0.482,0.275-1.004,0.544-1.568,0.806c-0.564,0.263-1.17,0.519-1.82,0.769
	c-0.625,0.225-1.256,0.425-1.891,0.598s-1.272,0.32-1.909,0.439c-0.637,0.118-1.275,0.209-1.909,0.27S74.625,58.2,74,58.2
	c-0.825,0-1.619-0.044-2.384-0.13s-1.503-0.214-2.216-0.383s-1.4-0.379-2.066-0.627s-1.309-0.536-1.934-0.86s-1.2-0.687-1.73-1.087
	c-0.53-0.4-1.014-0.838-1.458-1.313s-0.847-0.987-1.214-1.537S60.3,51.125,60,50.5s-0.562-1.263-0.787-1.912
	c-0.225-0.65-0.412-1.312-0.562-1.988c-0.15-0.675-0.263-1.362-0.338-2.062c-0.075-0.7-0.112-1.412-0.112-2.138
	c0-0.8,0.044-1.575,0.131-2.325c0.088-0.75,0.219-1.475,0.394-2.175s0.394-1.375,0.656-2.025C59.644,35.225,59.95,34.6,60.3,34
	c0.35-0.625,0.737-1.206,1.162-1.749c0.425-0.542,0.888-1.045,1.388-1.514c0.5-0.468,1.037-0.903,1.612-1.307
	c0.575-0.405,1.188-0.78,1.838-1.13c0.5-0.25,1.031-0.469,1.594-0.656s1.156-0.344,1.781-0.469s1.281-0.219,1.969-0.281
	S73.05,26.8,73.8,26.8c0.975,0,1.894,0.05,2.758,0.15c0.864,0.1,1.674,0.25,2.43,0.45s1.46,0.45,2.111,0.75
	c0.651,0.3,1.251,0.65,1.801,1.05s1.05,0.837,1.5,1.312s0.85,0.988,1.2,1.538s0.65,1.138,0.9,1.763s0.45,1.287,0.6,1.987
	l-1.575,0.275L83.95,36.35l-1.575,0.275L80.8,36.9c-0.1-0.375-0.231-0.731-0.391-1.067c-0.159-0.336-0.347-0.652-0.559-0.946
	c-0.213-0.294-0.45-0.565-0.709-0.814C78.881,33.825,78.6,33.6,78.3,33.4s-0.619-0.381-0.958-0.541
	c-0.339-0.159-0.698-0.297-1.079-0.409c-0.382-0.112-0.785-0.2-1.211-0.259C74.625,32.131,74.175,32.1,73.7,32.1
	c-0.7,0-1.363,0.05-1.988,0.152c-0.625,0.101-1.212,0.254-1.762,0.46c-0.55,0.206-1.062,0.466-1.537,0.78S67.5,34.175,67.1,34.6
	s-0.75,0.9-1.05,1.427c-0.3,0.527-0.55,1.104-0.75,1.735c-0.2,0.632-0.35,1.316-0.45,2.055c-0.1,0.739-0.15,1.533-0.15,2.383
	c0,0.9,0.05,1.744,0.152,2.531s0.255,1.519,0.461,2.194c0.206,0.675,0.465,1.294,0.779,1.856S66.775,49.85,67.2,50.3
	s0.875,0.844,1.353,1.181s0.984,0.619,1.522,0.844c0.538,0.225,1.106,0.394,1.709,0.506C72.387,52.944,73.025,53,73.7,53
	c0.325,0,0.656-0.019,0.991-0.055c0.334-0.036,0.672-0.089,1.009-0.157c0.338-0.069,0.675-0.153,1.009-0.252
	c0.334-0.098,0.666-0.211,0.991-0.336s0.644-0.256,0.953-0.394s0.609-0.281,0.897-0.431s0.562-0.306,0.822-0.469
	c0.259-0.162,0.503-0.331,0.728-0.506v-0.975V48.45v-0.975V46.5c0,0-0.456,0-1.141,0c-0.684,0-1.597,0-2.509,0
	c-0.912,0-1.825,0-2.509,0S73.8,46.5,73.8,46.5z"/>
<path d="M19,68.4v-0.525V67.35v-0.525V66.3h1.7h1.7h1.7h1.7v1.225v1.225v1.225V71.2c-0.175,0.125-0.362,0.25-0.566,0.372
	c-0.203,0.122-0.422,0.241-0.659,0.353c-0.237,0.113-0.494,0.219-0.772,0.316c-0.278,0.097-0.578,0.184-0.903,0.259
	c-0.3,0.1-0.606,0.188-0.917,0.262c-0.311,0.075-0.627,0.137-0.946,0.188c-0.319,0.05-0.64,0.088-0.964,0.113
	C19.75,73.088,19.425,73.1,19.1,73.1c-0.4,0-0.788-0.019-1.163-0.055s-0.737-0.089-1.087-0.158s-0.688-0.153-1.013-0.252
	c-0.325-0.099-0.637-0.211-0.937-0.336s-0.581-0.269-0.844-0.43s-0.506-0.339-0.731-0.533s-0.431-0.403-0.619-0.626
	C12.519,70.487,12.35,70.25,12.2,70s-0.281-0.506-0.394-0.769c-0.112-0.262-0.206-0.531-0.281-0.806
	c-0.075-0.275-0.131-0.556-0.169-0.844C11.319,67.294,11.3,67,11.3,66.7c0-0.325,0.019-0.637,0.058-0.939
	c0.039-0.301,0.099-0.592,0.18-0.873c0.081-0.282,0.184-0.554,0.311-0.818c0.127-0.264,0.276-0.52,0.451-0.77
	s0.369-0.487,0.581-0.711c0.212-0.223,0.444-0.433,0.694-0.627c0.25-0.194,0.519-0.372,0.806-0.532
	c0.288-0.161,0.594-0.305,0.919-0.43c0.25-0.1,0.512-0.188,0.789-0.263c0.277-0.075,0.567-0.137,0.874-0.188
	s0.628-0.088,0.967-0.112S18.625,60.4,19,60.4c0.475,0,0.925,0.019,1.35,0.058c0.425,0.039,0.825,0.098,1.2,0.179
	s0.725,0.184,1.05,0.311c0.325,0.127,0.625,0.277,0.9,0.452s0.525,0.357,0.75,0.549c0.225,0.192,0.425,0.395,0.6,0.614
	c0.175,0.219,0.325,0.453,0.45,0.707c0.125,0.255,0.225,0.53,0.3,0.83l-0.775,0.125L24.05,64.35l-0.775,0.125L22.5,64.6
	c-0.05-0.15-0.112-0.294-0.188-0.43s-0.163-0.264-0.263-0.382c-0.1-0.118-0.213-0.228-0.338-0.327S21.45,63.275,21.3,63.2
	c-0.15-0.1-0.312-0.181-0.486-0.247s-0.358-0.116-0.552-0.153c-0.193-0.037-0.396-0.062-0.607-0.078
	C19.444,62.706,19.225,62.7,19,62.7c-0.35,0-0.681,0.019-0.994,0.058c-0.312,0.039-0.606,0.098-0.881,0.179
	c-0.275,0.082-0.531,0.185-0.769,0.311C16.119,63.375,15.9,63.525,15.7,63.7s-0.375,0.369-0.525,0.583
	c-0.15,0.214-0.275,0.448-0.375,0.704c-0.1,0.257-0.175,0.535-0.225,0.836C14.525,66.125,14.5,66.45,14.5,66.8
	c0,0.375,0.025,0.725,0.075,1.05c0.05,0.325,0.125,0.625,0.225,0.9c0.1,0.275,0.225,0.525,0.375,0.75
	c0.15,0.225,0.325,0.425,0.525,0.6s0.419,0.331,0.655,0.467c0.236,0.136,0.489,0.251,0.757,0.345
	c0.269,0.094,0.554,0.166,0.852,0.215S18.575,71.2,18.9,71.2c0.175,0,0.344-0.006,0.509-0.019c0.166-0.012,0.328-0.031,0.491-0.056
	c0.163-0.025,0.325-0.056,0.491-0.094S20.725,70.95,20.9,70.9s0.337-0.106,0.491-0.166c0.153-0.059,0.297-0.122,0.434-0.184
	s0.269-0.125,0.397-0.184c0.128-0.059,0.253-0.116,0.378-0.166v-0.4v-0.4V69v-0.4h-0.9h-0.9h-0.9H19v-0.05V68.5v-0.05V68.4z"/>
<path d="M28.7,73v-3.1v-3.1v-3.1v-3.1h1.65H32h1.65h1.65c0.425,0,0.819,0.006,1.181,0.019c0.363,0.013,0.694,0.031,0.994,0.056
	s0.569,0.056,0.806,0.094c0.237,0.037,0.444,0.081,0.619,0.131c0.2,0.05,0.388,0.112,0.562,0.188S39.8,61.25,39.95,61.35
	s0.287,0.213,0.412,0.338S40.6,61.95,40.7,62.1c0.125,0.15,0.231,0.3,0.32,0.451c0.089,0.152,0.161,0.305,0.217,0.46
	c0.056,0.157,0.097,0.316,0.124,0.48S41.4,63.825,41.4,64c0,0.225-0.019,0.444-0.058,0.655c-0.039,0.211-0.098,0.414-0.179,0.607
	c-0.082,0.194-0.185,0.379-0.311,0.552S40.575,66.15,40.4,66.3s-0.369,0.288-0.583,0.411c-0.214,0.123-0.449,0.233-0.705,0.327
	c-0.256,0.093-0.534,0.172-0.836,0.232c-0.302,0.061-0.626,0.105-0.977,0.13c0.175,0.075,0.337,0.156,0.491,0.241
	s0.297,0.172,0.434,0.259c0.138,0.088,0.269,0.175,0.397,0.259C38.75,68.244,38.875,68.325,39,68.4c0.1,0.1,0.213,0.213,0.338,0.341
	c0.125,0.128,0.262,0.272,0.412,0.434s0.312,0.344,0.487,0.547S40.6,70.15,40.8,70.4l0.475,0.6l0.475,0.6l0.475,0.6l0.475,0.6
	h-0.925H40.85h-0.925H39l-0.575-0.675L37.85,71.45l-0.575-0.675L36.7,70.1c-0.2-0.25-0.388-0.475-0.561-0.675
	c-0.174-0.2-0.333-0.375-0.477-0.525c-0.144-0.15-0.271-0.275-0.382-0.375S35.075,68.35,35,68.3
	c-0.075-0.025-0.15-0.056-0.227-0.089s-0.154-0.067-0.236-0.099c-0.082-0.031-0.166-0.059-0.255-0.079C34.194,68.012,34.1,68,34,68
	s-0.206-0.006-0.32-0.016c-0.114-0.009-0.236-0.022-0.368-0.034c-0.131-0.012-0.271-0.025-0.423-0.034S32.575,67.9,32.4,67.9h-0.15
	H32.1h-0.15H31.8v1.275v1.275v1.275V73h-0.775H30.25h-0.775H28.7z M31.8,65.8h0.575h0.575h0.575H34.1
	c0.375,0,0.712-0.006,1.014-0.017c0.301-0.011,0.567-0.026,0.798-0.045s0.428-0.04,0.592-0.064S36.8,65.625,36.9,65.6
	s0.194-0.056,0.281-0.092c0.088-0.036,0.169-0.077,0.244-0.121c0.075-0.043,0.144-0.09,0.206-0.139
	C37.694,65.2,37.75,65.15,37.8,65.1s0.094-0.112,0.131-0.183c0.038-0.07,0.069-0.148,0.094-0.229s0.044-0.166,0.056-0.248
	c0.013-0.083,0.019-0.165,0.019-0.24c0-0.1-0.006-0.2-0.02-0.297c-0.014-0.097-0.036-0.191-0.068-0.278s-0.072-0.169-0.123-0.241
	c-0.051-0.072-0.114-0.134-0.189-0.184c-0.075-0.075-0.156-0.138-0.244-0.191c-0.087-0.053-0.181-0.097-0.281-0.134
	s-0.206-0.069-0.319-0.097S36.625,62.725,36.5,62.7c-0.075,0-0.175,0-0.303,0s-0.284,0-0.472,0s-0.406,0-0.659,0s-0.541,0-0.866,0
	h-0.6H33h-0.6h-0.6c0,0,0,0.194,0,0.484c0,0.291,0,0.678,0,1.066s0,0.775,0,1.066S31.8,65.8,31.8,65.8z"/>
<path d="M43.7,66.9c0-0.325,0.013-0.631,0.039-0.922c0.027-0.291,0.067-0.566,0.124-0.828c0.056-0.263,0.128-0.513,0.217-0.753
	c0.089-0.241,0.195-0.472,0.32-0.697c0.1-0.15,0.2-0.3,0.303-0.448c0.103-0.149,0.209-0.296,0.322-0.44
	c0.112-0.143,0.231-0.284,0.359-0.42C45.513,62.256,45.65,62.125,45.8,62s0.306-0.244,0.467-0.355s0.326-0.214,0.495-0.307
	c0.169-0.094,0.341-0.179,0.514-0.252c0.174-0.074,0.348-0.136,0.523-0.186c0.25-0.075,0.506-0.144,0.769-0.205
	c0.263-0.061,0.531-0.114,0.806-0.157c0.275-0.044,0.556-0.078,0.844-0.102C50.506,60.413,50.8,60.4,51.1,60.4
	c0.575,0,1.119,0.037,1.633,0.111s0.998,0.183,1.454,0.327c0.457,0.143,0.885,0.321,1.286,0.532c0.402,0.211,0.777,0.455,1.127,0.73
	s0.656,0.581,0.919,0.917c0.263,0.336,0.481,0.702,0.656,1.096c0.175,0.394,0.306,0.815,0.394,1.264
	C58.656,65.825,58.7,66.3,58.7,66.8s-0.044,0.975-0.13,1.424s-0.214,0.871-0.383,1.265s-0.378,0.759-0.626,1.095
	c-0.248,0.336-0.535,0.642-0.861,0.917c-0.35,0.275-0.725,0.519-1.127,0.73c-0.402,0.211-0.83,0.389-1.286,0.532
	c-0.456,0.144-0.94,0.254-1.454,0.327C52.319,73.162,51.775,73.2,51.2,73.2s-1.119-0.037-1.633-0.111s-0.998-0.183-1.454-0.327
	c-0.456-0.143-0.885-0.321-1.286-0.532c-0.402-0.211-0.777-0.455-1.127-0.73c-0.325-0.275-0.612-0.581-0.861-0.916
	s-0.458-0.697-0.626-1.084c-0.169-0.387-0.297-0.8-0.383-1.234S43.7,67.375,43.7,66.9z M46.9,66.8c0,0.35,0.025,0.681,0.075,0.992
	c0.05,0.311,0.125,0.602,0.225,0.871c0.1,0.269,0.225,0.515,0.375,0.739S47.9,69.825,48.1,70s0.412,0.331,0.639,0.467
	c0.226,0.136,0.467,0.251,0.723,0.345s0.528,0.165,0.817,0.214c0.289,0.049,0.596,0.074,0.921,0.074c0.3,0,0.594-0.025,0.878-0.073
	c0.284-0.048,0.559-0.12,0.822-0.214c0.263-0.094,0.513-0.21,0.747-0.346s0.453-0.292,0.653-0.466s0.375-0.375,0.525-0.598
	c0.15-0.224,0.275-0.471,0.375-0.74s0.175-0.56,0.225-0.87c0.05-0.311,0.075-0.642,0.075-0.992s-0.025-0.681-0.075-0.992
	c-0.05-0.311-0.125-0.602-0.225-0.871c-0.1-0.269-0.225-0.516-0.375-0.74S54.5,63.775,54.3,63.6s-0.413-0.325-0.639-0.452
	s-0.467-0.23-0.723-0.311s-0.528-0.141-0.817-0.18C51.831,62.618,51.525,62.6,51.2,62.6s-0.631,0.025-0.92,0.073
	c-0.289,0.049-0.561,0.121-0.817,0.215s-0.497,0.209-0.723,0.345c-0.227,0.136-0.44,0.292-0.64,0.467s-0.375,0.369-0.525,0.583
	c-0.15,0.214-0.275,0.448-0.375,0.704c-0.1,0.257-0.175,0.535-0.225,0.836C46.925,66.125,46.9,66.45,46.9,66.8z"/>
<path d="M61.2,60.6h0.775h0.775h0.775H64.3v1.675v1.675v1.675V67.3c0,0.275,0,0.525,0.002,0.75c0.001,0.225,0.004,0.425,0.01,0.6
	c0.007,0.175,0.016,0.325,0.03,0.45c0.014,0.125,0.033,0.225,0.058,0.3c0.025,0.125,0.069,0.244,0.128,0.356
	c0.059,0.113,0.134,0.219,0.222,0.319c0.088,0.1,0.188,0.194,0.297,0.281s0.228,0.169,0.353,0.244s0.263,0.144,0.412,0.205
	c0.15,0.061,0.312,0.114,0.488,0.158c0.175,0.044,0.363,0.078,0.562,0.101c0.2,0.023,0.412,0.036,0.637,0.036
	s0.438-0.006,0.636-0.02c0.199-0.014,0.383-0.036,0.552-0.068s0.322-0.072,0.458-0.123c0.136-0.051,0.254-0.114,0.354-0.189
	c0.125-0.075,0.231-0.15,0.322-0.228s0.166-0.159,0.228-0.247s0.113-0.181,0.153-0.284c0.041-0.103,0.072-0.216,0.097-0.341
	s0.044-0.256,0.058-0.398c0.014-0.142,0.024-0.296,0.03-0.465c0.006-0.169,0.009-0.353,0.01-0.557C70.4,67.975,70.4,67.75,70.4,67.5
	v-1.7v-1.7v-1.7v-1.7h0.775h0.775h0.775H73.5v1.625v1.625v1.625V67.2c0,0.375-0.006,0.719-0.019,1.033
	c-0.012,0.314-0.031,0.598-0.056,0.854c-0.025,0.257-0.056,0.485-0.094,0.686C73.294,69.975,73.25,70.15,73.2,70.3
	s-0.106,0.294-0.169,0.433c-0.062,0.139-0.131,0.274-0.206,0.405c-0.075,0.131-0.156,0.259-0.244,0.385
	C72.494,71.65,72.4,71.775,72.3,71.9s-0.219,0.237-0.352,0.339c-0.133,0.102-0.279,0.192-0.436,0.274
	c-0.157,0.081-0.322,0.153-0.493,0.217c-0.17,0.064-0.345,0.12-0.52,0.17c-0.2,0.075-0.412,0.138-0.637,0.189
	c-0.225,0.051-0.463,0.092-0.713,0.123s-0.513,0.053-0.787,0.067C68.088,73.294,67.8,73.3,67.5,73.3
	c-0.375,0-0.725-0.006-1.052-0.02c-0.327-0.014-0.63-0.036-0.911-0.068s-0.541-0.072-0.78-0.123S64.3,72.975,64.1,72.9
	c-0.2-0.075-0.388-0.15-0.562-0.228s-0.338-0.159-0.487-0.247c-0.15-0.088-0.287-0.181-0.412-0.284
	C62.513,72.038,62.4,71.925,62.3,71.8s-0.194-0.244-0.281-0.359c-0.088-0.116-0.169-0.228-0.244-0.341s-0.144-0.225-0.206-0.341
	S61.45,70.525,61.4,70.4c-0.05-0.175-0.094-0.375-0.131-0.597c-0.038-0.222-0.069-0.466-0.094-0.728
	c-0.025-0.263-0.044-0.544-0.056-0.841S61.1,67.625,61.1,67.3v-1.675V63.95v-1.675V60.6h0.025h0.025h0.025H61.2z"/>
<path d="M76.8,73v-3.1v-3.1v-3.1v-3.1h1.25h1.25h1.25h1.25c0.475,0,0.906,0.006,1.295,0.017c0.389,0.011,0.736,0.026,1.043,0.045
	c0.306,0.019,0.572,0.041,0.798,0.064c0.227,0.023,0.414,0.049,0.564,0.073c0.225,0.05,0.438,0.112,0.639,0.188
	s0.392,0.163,0.574,0.263c0.181,0.1,0.353,0.213,0.517,0.338S87.55,61.85,87.7,62s0.281,0.312,0.394,0.487
	c0.112,0.175,0.206,0.362,0.281,0.562s0.131,0.413,0.169,0.638C88.581,63.912,88.6,64.15,88.6,64.4c0,0.2-0.013,0.388-0.036,0.564
	c-0.023,0.176-0.058,0.342-0.101,0.498s-0.097,0.303-0.158,0.442c-0.061,0.139-0.13,0.271-0.205,0.396s-0.162,0.244-0.259,0.356
	c-0.097,0.113-0.203,0.219-0.316,0.319c-0.112,0.1-0.231,0.194-0.353,0.281c-0.122,0.088-0.247,0.169-0.372,0.244
	s-0.256,0.144-0.391,0.206S86.137,67.825,86,67.875s-0.275,0.094-0.409,0.131S85.325,68.075,85.2,68.1
	c-0.175,0.025-0.375,0.05-0.599,0.073c-0.223,0.023-0.47,0.045-0.739,0.064s-0.559,0.034-0.87,0.045S82.35,68.3,82,68.3h-0.5H81
	h-0.5H80v1.175v1.175v1.175V73h-0.8h-0.8h-0.8H76.8z M80,62.7v0.875v0.875v0.875V66.2h0.425h0.425h0.425H81.7
	c0.3,0,0.581-0.006,0.841-0.017c0.259-0.011,0.497-0.026,0.709-0.045c0.213-0.019,0.4-0.041,0.559-0.064
	C83.969,66.05,84.1,66.025,84.2,66s0.194-0.056,0.283-0.094c0.089-0.037,0.173-0.081,0.254-0.131s0.159-0.106,0.236-0.169
	c0.077-0.062,0.152-0.131,0.227-0.206c0.05-0.075,0.1-0.15,0.147-0.227c0.047-0.077,0.091-0.155,0.128-0.236
	c0.037-0.081,0.069-0.165,0.091-0.254C85.588,64.594,85.6,64.5,85.6,64.4c0-0.125-0.013-0.238-0.036-0.341
	c-0.023-0.103-0.058-0.197-0.101-0.284s-0.097-0.169-0.158-0.247c-0.061-0.078-0.13-0.153-0.205-0.228s-0.162-0.144-0.259-0.205
	c-0.097-0.061-0.203-0.114-0.316-0.157c-0.112-0.044-0.231-0.079-0.353-0.102C84.05,62.812,83.925,62.8,83.8,62.8
	c-0.1-0.025-0.219-0.044-0.359-0.058s-0.303-0.023-0.491-0.029s-0.4-0.009-0.641-0.011C82.069,62.7,81.8,62.7,81.5,62.7
	c0,0-0.094,0-0.234,0s-0.328,0-0.516,0s-0.375,0-0.516,0S80,62.7,80,62.7z"/>
</svg>
