<?xml version="1.0" encoding="iso-8859-1"?>
<!-- Generator: Adobe Illustrator 25.4.1, SVG Export Plug-In . SVG Version: 6.00 Build 0)  -->
<svg version="1.1" id="Layer_1" xmlns="http://www.w3.org/2000/svg" xmlns:xlink="http://www.w3.org/1999/xlink" x="0px" y="0px"
	 viewBox="0 0 100 100" style="enable-background:new 0 0 100 100;" xml:space="preserve">
<path d="M20.4,31.4c0,0.275-0.019,0.538-0.055,0.791c-0.036,0.253-0.089,0.497-0.157,0.734c-0.069,0.237-0.153,0.469-0.252,0.697
	c-0.099,0.228-0.211,0.453-0.336,0.678c-0.125,0.2-0.262,0.394-0.413,0.58c-0.15,0.186-0.312,0.364-0.487,0.532
	c-0.175,0.169-0.362,0.329-0.562,0.477S17.725,36.175,17.5,36.3c-0.175,0.1-0.35,0.188-0.527,0.264
	c-0.177,0.077-0.354,0.142-0.535,0.199s-0.365,0.103-0.555,0.142C15.694,36.944,15.5,36.975,15.3,37
	c-0.175,0.025-0.369,0.05-0.578,0.073c-0.209,0.024-0.434,0.046-0.672,0.065c-0.238,0.019-0.488,0.034-0.747,0.045
	C13.044,37.194,12.775,37.2,12.5,37.2h-0.825H10.85h-0.825H9.2v-2.9v-2.9v-2.9v-2.9H10h0.8h0.8h0.8c0.325,0,0.637,0.006,0.934,0.017
	c0.297,0.011,0.578,0.026,0.841,0.045c0.262,0.019,0.506,0.041,0.728,0.064c0.222,0.023,0.422,0.048,0.597,0.073
	c0.2,0.05,0.387,0.1,0.564,0.152c0.177,0.052,0.342,0.104,0.498,0.16c0.156,0.056,0.303,0.116,0.442,0.18s0.27,0.133,0.395,0.208
	c0.225,0.125,0.438,0.256,0.638,0.397c0.2,0.141,0.387,0.291,0.562,0.453s0.337,0.337,0.487,0.528
	c0.15,0.191,0.288,0.397,0.413,0.622c0.15,0.2,0.281,0.406,0.394,0.622c0.112,0.216,0.206,0.441,0.281,0.678
	c0.076,0.237,0.132,0.487,0.17,0.753C20.381,30.819,20.4,31.1,20.4,31.4z M18.4,31.3c0-0.225-0.012-0.438-0.036-0.641
	s-0.058-0.397-0.102-0.584s-0.097-0.369-0.158-0.547C18.043,29.35,17.975,29.175,17.9,29c-0.1-0.15-0.206-0.294-0.32-0.431
	c-0.114-0.138-0.236-0.269-0.368-0.394c-0.131-0.125-0.271-0.244-0.423-0.356C16.638,27.706,16.475,27.6,16.3,27.5
	c-0.125-0.05-0.25-0.1-0.377-0.149s-0.255-0.095-0.385-0.139s-0.266-0.084-0.405-0.12C14.994,27.056,14.85,27.025,14.7,27
	s-0.306-0.05-0.469-0.073c-0.163-0.024-0.331-0.045-0.506-0.065s-0.356-0.035-0.544-0.045S12.8,26.8,12.6,26.8h-0.35H11.9h-0.35
	H11.2v2.225v2.225v2.225V35.7h0.35h0.35h0.35h0.35c0.2,0,0.4-0.006,0.597-0.017c0.197-0.011,0.391-0.026,0.578-0.045
	s0.369-0.041,0.541-0.064S14.65,35.525,14.8,35.5s0.3-0.056,0.448-0.094c0.148-0.037,0.295-0.081,0.439-0.131
	c0.144-0.05,0.285-0.106,0.42-0.169s0.267-0.131,0.392-0.206c0.175-0.1,0.331-0.2,0.473-0.303c0.142-0.103,0.271-0.209,0.39-0.322
	c0.119-0.113,0.228-0.231,0.333-0.359C17.8,33.787,17.9,33.65,18,33.5s0.175-0.306,0.231-0.47c0.056-0.164,0.094-0.336,0.119-0.517
	c0.025-0.181,0.038-0.372,0.044-0.574C18.4,31.737,18.4,31.525,18.4,31.3z"/>
<path d="M27.4,37.1h-1.375H24.65h-1.375H21.9v-0.3v-0.3v-0.3v-0.3h0.45h0.45h0.45h0.45v-2.3v-2.3V29v-2.3h-0.45H22.8h-0.45H21.9
	v-0.3v-0.3v-0.3v-0.3h1.375h1.375h1.375H27.4v0.3v0.3v0.3v0.3h-0.45H26.5h-0.45H25.6V29v2.3v2.3v2.3h0.45h0.45h0.45h0.45v0.3v0.3
	v0.3V37.1z"/>
<path d="M40,25.6l-1.225,2.9l-1.225,2.9l-1.225,2.9L35.1,37.2h-0.5h-0.5h-0.5h-0.5l-1.225-2.9l-1.225-2.9l-1.225-2.9L28.2,25.6h0.5
	h0.5h0.5h0.5l0.975,2.4l0.975,2.4l0.975,2.4l0.975,2.4l0.975-2.4l0.975-2.4l0.975-2.4L38,25.6h0.5H39h0.5H40z"/>
<path d="M46.3,37.1h-1.375H43.55h-1.375H40.8v-0.3v-0.3v-0.3v-0.3h0.45h0.45h0.45h0.45v-2.3v-2.3V29v-2.3h-0.45H41.7h-0.45H40.8
	v-0.3v-0.3v-0.3v-0.3h1.375h1.375h1.375H46.3v0.3v0.3v0.3v0.3h-0.45H45.4h-0.45H44.5V29v2.3v2.3v2.3h0.45h0.45h0.45h0.45v0.3v0.3
	v0.3V37.1z"/>
<path d="M52.6,37.3c-0.25,0-0.494-0.006-0.73-0.019c-0.236-0.013-0.464-0.031-0.682-0.056c-0.219-0.025-0.429-0.056-0.627-0.094
	C50.362,37.094,50.175,37.05,50,37s-0.35-0.1-0.523-0.15c-0.174-0.05-0.346-0.1-0.514-0.15c-0.168-0.05-0.334-0.1-0.495-0.15
	S48.15,36.45,48,36.4v-0.475V35.45v-0.475V34.5h0.025h0.025h0.025H48.1c0.15,0.125,0.306,0.237,0.469,0.341
	c0.162,0.103,0.331,0.197,0.506,0.284s0.356,0.169,0.544,0.247S50,35.525,50.2,35.6s0.394,0.137,0.584,0.189
	c0.191,0.052,0.378,0.092,0.566,0.123s0.375,0.053,0.566,0.067C52.106,35.993,52.3,36,52.5,36c0.25,0,0.487-0.013,0.713-0.036
	c0.225-0.024,0.438-0.058,0.637-0.102c0.2-0.044,0.388-0.097,0.562-0.157s0.338-0.13,0.487-0.205c0.125-0.1,0.237-0.2,0.336-0.303
	c0.098-0.103,0.183-0.209,0.251-0.322c0.069-0.112,0.122-0.231,0.158-0.359C55.681,34.388,55.7,34.25,55.7,34.1
	c0-0.125-0.006-0.237-0.02-0.341c-0.014-0.103-0.036-0.197-0.068-0.284s-0.072-0.169-0.123-0.247S55.375,33.075,55.3,33
	s-0.156-0.144-0.245-0.206s-0.186-0.119-0.292-0.169c-0.106-0.05-0.222-0.094-0.349-0.131S54.15,32.425,54,32.4
	c-0.1-0.025-0.2-0.05-0.3-0.075c-0.1-0.025-0.2-0.05-0.3-0.075s-0.2-0.05-0.3-0.075c-0.1-0.025-0.2-0.05-0.3-0.075
	s-0.2-0.05-0.303-0.075c-0.103-0.025-0.209-0.05-0.322-0.075s-0.231-0.05-0.359-0.075c-0.128-0.025-0.266-0.05-0.416-0.075
	c-0.125-0.025-0.244-0.05-0.358-0.077c-0.114-0.027-0.224-0.055-0.33-0.086s-0.209-0.066-0.311-0.105
	C50.3,31.493,50.2,31.45,50.1,31.4s-0.194-0.1-0.283-0.15c-0.089-0.05-0.174-0.1-0.255-0.15c-0.081-0.05-0.159-0.1-0.236-0.15
	c-0.076-0.05-0.152-0.1-0.227-0.15c-0.075-0.075-0.144-0.15-0.208-0.225c-0.064-0.075-0.124-0.15-0.18-0.225
	c-0.056-0.075-0.109-0.15-0.16-0.225S48.45,29.975,48.4,29.9s-0.088-0.156-0.116-0.244c-0.028-0.088-0.047-0.181-0.059-0.281
	c-0.013-0.1-0.019-0.206-0.022-0.319C48.2,28.944,48.2,28.825,48.2,28.7c0-0.225,0.025-0.444,0.076-0.656
	c0.051-0.212,0.129-0.419,0.236-0.619c0.106-0.2,0.241-0.394,0.405-0.581c0.164-0.188,0.357-0.369,0.582-0.544
	c0.225-0.15,0.463-0.288,0.714-0.409c0.252-0.122,0.517-0.228,0.799-0.316s0.578-0.156,0.893-0.203
	C52.219,25.325,52.55,25.3,52.9,25.3c0.2,0,0.394,0.006,0.584,0.017c0.191,0.011,0.378,0.026,0.566,0.045s0.375,0.041,0.566,0.064
	C54.806,25.45,55,25.475,55.2,25.5c0.175,0.025,0.35,0.056,0.523,0.094s0.346,0.081,0.514,0.131c0.169,0.05,0.334,0.106,0.495,0.169
	c0.161,0.062,0.317,0.131,0.467,0.206v0.45V27v0.45v0.45h-0.025H57.15h-0.025H57.1c-0.125-0.075-0.25-0.15-0.378-0.225
	c-0.128-0.075-0.259-0.15-0.397-0.225c-0.137-0.075-0.281-0.15-0.434-0.225C55.737,27.15,55.575,27.075,55.4,27
	s-0.35-0.138-0.527-0.189c-0.176-0.052-0.354-0.092-0.535-0.123c-0.181-0.031-0.366-0.053-0.555-0.068
	C53.594,26.606,53.4,26.6,53.2,26.6c-0.225,0-0.438,0.012-0.638,0.036c-0.2,0.024-0.387,0.058-0.562,0.102s-0.338,0.097-0.488,0.158
	c-0.15,0.061-0.287,0.129-0.412,0.204c-0.2,0.1-0.369,0.206-0.509,0.317s-0.253,0.226-0.341,0.345s-0.15,0.241-0.191,0.364
	C50.019,28.25,50,28.375,50,28.5s0.013,0.244,0.036,0.356c0.024,0.112,0.058,0.219,0.102,0.319c0.044,0.1,0.097,0.194,0.157,0.281
	s0.13,0.169,0.205,0.244c0.075,0.075,0.162,0.144,0.261,0.206c0.098,0.062,0.208,0.119,0.327,0.169
	c0.118,0.05,0.247,0.094,0.382,0.131c0.136,0.037,0.28,0.069,0.43,0.094c0.1,0.025,0.206,0.05,0.319,0.075
	c0.113,0.025,0.231,0.05,0.356,0.075s0.256,0.05,0.394,0.075c0.138,0.025,0.281,0.05,0.431,0.075s0.294,0.05,0.43,0.075
	c0.136,0.025,0.264,0.05,0.382,0.075s0.228,0.05,0.327,0.075c0.099,0.025,0.186,0.05,0.261,0.075c0.25,0.05,0.481,0.112,0.694,0.186
	c0.213,0.073,0.406,0.158,0.581,0.252c0.175,0.094,0.331,0.197,0.469,0.307C56.681,31.756,56.8,31.875,56.9,32
	c0.125,0.125,0.231,0.256,0.32,0.394c0.089,0.138,0.161,0.281,0.217,0.431c0.056,0.15,0.097,0.306,0.124,0.469
	c0.027,0.162,0.039,0.331,0.039,0.506c0,0.125-0.006,0.244-0.019,0.358c-0.013,0.114-0.031,0.224-0.056,0.33
	c-0.025,0.106-0.056,0.209-0.094,0.311C57.394,34.9,57.35,35,57.3,35.1s-0.106,0.2-0.169,0.298S57,35.593,56.925,35.687
	s-0.156,0.184-0.244,0.27C56.594,36.043,56.5,36.125,56.4,36.2c-0.125,0.075-0.25,0.15-0.377,0.223
	c-0.127,0.074-0.255,0.146-0.386,0.215c-0.131,0.069-0.265,0.134-0.404,0.195S54.95,36.95,54.8,37s-0.306,0.094-0.47,0.131
	c-0.164,0.037-0.336,0.069-0.518,0.094c-0.181,0.025-0.372,0.044-0.573,0.056S52.825,37.3,52.6,37.3z"/>
<path d="M64.5,37.1h-1.375H61.75h-1.375H59v-0.3v-0.3v-0.3v-0.3h0.45h0.45h0.45h0.45v-2.3v-2.3V29v-2.3h-0.45H59.9h-0.45H59v-0.3
	v-0.3v-0.3v-0.3h1.375h1.375h1.375H64.5v0.3v0.3v0.3v0.3h-0.45H63.6h-0.45H62.7V29v2.3v2.3v2.3h0.45h0.45h0.45h0.45v0.3v0.3v0.3
	V37.1z"/>
<path d="M76.9,26.9c0.125,0.125,0.25,0.256,0.372,0.395c0.122,0.139,0.241,0.286,0.353,0.442c0.113,0.156,0.219,0.322,0.316,0.499
	c0.097,0.177,0.184,0.364,0.259,0.564s0.137,0.4,0.189,0.603s0.092,0.409,0.123,0.622c0.032,0.212,0.054,0.431,0.068,0.659
	c0.014,0.228,0.02,0.466,0.02,0.716c0,0.225-0.006,0.45-0.02,0.672c-0.014,0.222-0.036,0.441-0.068,0.653
	c-0.031,0.213-0.072,0.419-0.123,0.616c-0.052,0.197-0.114,0.384-0.189,0.559c-0.075,0.2-0.156,0.388-0.245,0.564
	c-0.089,0.177-0.186,0.342-0.292,0.498c-0.106,0.156-0.222,0.304-0.349,0.443c-0.127,0.139-0.264,0.27-0.414,0.395
	s-0.306,0.244-0.467,0.356c-0.161,0.112-0.327,0.219-0.496,0.319s-0.341,0.194-0.514,0.281S75.075,36.925,74.9,37
	c-0.2,0.075-0.4,0.138-0.603,0.189c-0.203,0.052-0.409,0.092-0.622,0.123c-0.213,0.031-0.431,0.054-0.659,0.068
	c-0.228,0.014-0.466,0.02-0.716,0.02s-0.488-0.006-0.716-0.02c-0.228-0.014-0.447-0.036-0.659-0.067s-0.419-0.072-0.622-0.124
	S69.9,37.075,69.7,37s-0.387-0.156-0.566-0.244c-0.178-0.088-0.347-0.181-0.509-0.281s-0.319-0.206-0.472-0.319
	C68,36.044,67.85,35.925,67.7,35.8c-0.125-0.125-0.25-0.256-0.372-0.395c-0.122-0.139-0.241-0.286-0.353-0.443
	c-0.112-0.156-0.219-0.321-0.316-0.498C66.562,34.287,66.475,34.1,66.4,33.9c-0.075-0.175-0.138-0.362-0.189-0.559
	c-0.051-0.197-0.092-0.403-0.123-0.616s-0.053-0.431-0.067-0.653C66.007,31.85,66,31.625,66,31.4c0-0.25,0.006-0.488,0.02-0.716
	c0.014-0.228,0.036-0.447,0.068-0.659s0.072-0.419,0.123-0.622S66.325,29,66.4,28.8s0.156-0.388,0.245-0.564
	c0.089-0.177,0.186-0.342,0.292-0.498c0.106-0.156,0.222-0.303,0.349-0.443c0.127-0.139,0.264-0.27,0.414-0.395
	c0.125-0.125,0.262-0.244,0.411-0.356c0.148-0.112,0.308-0.219,0.476-0.319c0.169-0.1,0.347-0.194,0.533-0.281
	s0.38-0.169,0.58-0.244s0.4-0.138,0.603-0.189c0.203-0.052,0.409-0.092,0.622-0.123c0.213-0.031,0.431-0.054,0.659-0.068
	c0.228-0.014,0.466-0.02,0.716-0.02s0.488,0.006,0.716,0.02c0.228,0.014,0.447,0.036,0.659,0.067s0.419,0.072,0.622,0.124
	S74.7,25.625,74.9,25.7s0.394,0.156,0.58,0.244c0.186,0.087,0.364,0.181,0.532,0.281c0.169,0.1,0.328,0.206,0.477,0.319
	C76.637,26.656,76.775,26.775,76.9,26.9z M76.6,31.3c0-0.2-0.006-0.388-0.019-0.566c-0.012-0.178-0.031-0.347-0.056-0.509
	c-0.025-0.162-0.056-0.319-0.094-0.472C76.394,29.6,76.35,29.45,76.3,29.3s-0.106-0.294-0.169-0.431
	C76.069,28.731,76,28.6,75.925,28.475s-0.156-0.244-0.244-0.356C75.594,28.006,75.5,27.9,75.4,27.8s-0.2-0.194-0.303-0.281
	s-0.209-0.169-0.322-0.244s-0.231-0.144-0.359-0.206C74.288,27.006,74.15,26.95,74,26.9s-0.294-0.094-0.436-0.131
	c-0.142-0.037-0.283-0.069-0.426-0.094c-0.144-0.025-0.291-0.044-0.446-0.056C72.537,26.606,72.375,26.6,72.2,26.6
	s-0.344,0.006-0.506,0.019c-0.162,0.013-0.319,0.031-0.469,0.056s-0.294,0.056-0.431,0.094S70.525,26.85,70.4,26.9
	s-0.25,0.106-0.373,0.169c-0.124,0.062-0.245,0.131-0.365,0.206c-0.118,0.075-0.234,0.156-0.345,0.244
	C69.206,27.606,69.1,27.7,69,27.8s-0.194,0.206-0.281,0.319c-0.088,0.113-0.169,0.231-0.244,0.356s-0.144,0.256-0.206,0.394
	C68.206,29.006,68.15,29.15,68.1,29.3s-0.094,0.306-0.131,0.467c-0.038,0.161-0.069,0.326-0.094,0.495
	c-0.025,0.169-0.044,0.341-0.056,0.515C67.806,30.95,67.8,31.125,67.8,31.3c0,0.375,0.025,0.731,0.075,1.067
	c0.05,0.336,0.125,0.652,0.225,0.946c0.1,0.293,0.225,0.565,0.375,0.814C68.625,34.375,68.8,34.6,69,34.8s0.425,0.375,0.67,0.525
	c0.245,0.15,0.511,0.275,0.793,0.375s0.578,0.175,0.886,0.225C71.657,35.975,71.975,36,72.3,36s0.637-0.025,0.934-0.075
	s0.578-0.125,0.841-0.225s0.506-0.225,0.728-0.375C75.025,35.175,75.225,35,75.4,34.8s0.338-0.419,0.483-0.659
	c0.145-0.241,0.273-0.503,0.379-0.791c0.106-0.287,0.191-0.6,0.249-0.941C76.569,32.069,76.6,31.7,76.6,31.3z"/>
<path d="M90.8,37.1h-0.525H89.75h-0.525H88.7l-1.575-2.5l-1.575-2.5l-1.575-2.5L82.4,27.1v2.5v2.5v2.5v2.5h-0.45H81.5h-0.45H80.6
	v-2.875V31.35v-2.875V25.6h0.675h0.675h0.675H83.3l1.425,2.275l1.425,2.275l1.425,2.275L89,34.7v-2.275V30.15v-2.275V25.6h0.45h0.45
	h0.45h0.45c0,0,0,0.719,0,1.797s0,2.516,0,3.953c0,1.437,0,2.875,0,3.953S90.8,37.1,90.8,37.1z"/>
<path d="M73.4,63.2c0,0.425-0.031,0.844-0.095,1.255c-0.064,0.411-0.161,0.814-0.292,1.207c-0.132,0.394-0.297,0.778-0.499,1.152
	c-0.202,0.374-0.439,0.736-0.714,1.086s-0.581,0.688-0.917,1.013c-0.336,0.325-0.701,0.637-1.095,0.937s-0.815,0.588-1.264,0.863
	C68.075,70.988,67.6,71.25,67.1,71.5c-0.525,0.25-1.075,0.488-1.648,0.711c-0.574,0.223-1.171,0.433-1.79,0.627
	c-0.618,0.193-1.259,0.372-1.92,0.532c-0.661,0.161-1.342,0.305-2.042,0.43s-1.444,0.238-2.228,0.336
	c-0.784,0.098-1.609,0.183-2.472,0.252c-0.862,0.069-1.762,0.122-2.697,0.158S50.4,74.601,49.4,74.601
	c-1.15,0-2.263-0.012-3.336-0.039c-1.074-0.027-2.108-0.067-3.102-0.123s-1.947-0.128-2.858-0.218
	c-0.911-0.09-1.779-0.196-2.604-0.321s-1.613-0.25-2.363-0.375S33.675,73.275,33,73.15s-1.312-0.25-1.913-0.375
	s-1.163-0.25-1.688-0.375v-1.925V68.55v-1.925V64.7h0.35h0.35h0.35h0.35c0.55,0.2,1.119,0.394,1.709,0.581s1.203,0.369,1.841,0.544
	s1.3,0.344,1.991,0.506c0.691,0.162,1.409,0.319,2.159,0.469c0.725,0.15,1.438,0.281,2.136,0.394
	c0.698,0.113,1.383,0.206,2.052,0.281s1.322,0.131,1.958,0.169S45.9,67.7,46.5,67.7c0.35,0,0.713-0.006,1.086-0.017
	c0.373-0.011,0.758-0.026,1.151-0.045c0.394-0.019,0.797-0.041,1.208-0.064c0.411-0.023,0.83-0.049,1.255-0.074
	c0.425-0.05,0.831-0.106,1.219-0.17s0.756-0.136,1.106-0.217c0.35-0.082,0.681-0.172,0.994-0.274s0.606-0.214,0.881-0.339
	c0.225-0.1,0.438-0.206,0.639-0.319c0.202-0.113,0.392-0.231,0.574-0.356c0.181-0.125,0.353-0.256,0.517-0.394
	c0.164-0.138,0.32-0.281,0.47-0.431c0.125-0.15,0.237-0.312,0.336-0.489c0.098-0.177,0.183-0.367,0.251-0.573
	c0.069-0.207,0.122-0.429,0.158-0.668c0.036-0.239,0.055-0.495,0.055-0.77c0-0.25-0.025-0.494-0.075-0.727
	c-0.05-0.233-0.125-0.455-0.225-0.661s-0.225-0.397-0.375-0.568c-0.15-0.17-0.325-0.32-0.525-0.445s-0.413-0.25-0.639-0.37
	c-0.226-0.12-0.467-0.236-0.723-0.343c-0.257-0.105-0.528-0.202-0.818-0.285c-0.289-0.083-0.595-0.151-0.92-0.201
	c-0.325-0.075-0.662-0.138-1.014-0.191c-0.352-0.053-0.717-0.097-1.098-0.134s-0.778-0.069-1.192-0.097
	C50.382,58.45,49.95,58.425,49.5,58.4c-0.45,0-0.881,0-1.297,0s-0.816,0-1.203,0s-0.763,0-1.128,0c-0.366,0-0.722,0-1.072,0h-0.65
	H43.5h-0.65H42.2v-1.55V55.3v-1.55V52.2h0.6h0.6H44h0.6c0.45,0,0.894,0,1.33-0.002s0.864-0.005,1.282-0.011
	c0.419-0.006,0.828-0.015,1.227-0.029c0.398-0.014,0.786-0.033,1.161-0.058s0.737-0.056,1.088-0.094
	c0.35-0.037,0.688-0.081,1.012-0.131c0.325-0.05,0.638-0.106,0.938-0.169s0.588-0.131,0.862-0.206s0.531-0.156,0.77-0.245
	c0.239-0.089,0.461-0.186,0.668-0.292c0.206-0.107,0.397-0.222,0.573-0.349C55.688,50.487,55.85,50.35,56,50.2
	c0.15-0.125,0.281-0.269,0.394-0.428c0.112-0.159,0.206-0.334,0.281-0.522s0.131-0.388,0.169-0.597
	C56.881,48.444,56.9,48.225,56.9,48c0-0.175-0.019-0.344-0.055-0.505c-0.036-0.161-0.089-0.314-0.158-0.458
	c-0.068-0.143-0.153-0.278-0.251-0.401C56.337,46.513,56.225,46.4,56.1,46.3c-0.15-0.125-0.3-0.237-0.455-0.341
	c-0.155-0.103-0.314-0.197-0.483-0.284c-0.168-0.087-0.347-0.169-0.539-0.247S54.225,45.275,54,45.2
	c-0.25-0.075-0.506-0.144-0.769-0.206s-0.531-0.119-0.806-0.169s-0.556-0.094-0.844-0.131C51.294,44.656,51,44.625,50.7,44.6
	c-0.325-0.025-0.638-0.044-0.938-0.058s-0.587-0.023-0.862-0.029c-0.275-0.007-0.538-0.01-0.788-0.011S47.625,44.5,47.4,44.5
	c-0.375,0-0.744,0.006-1.111,0.019s-0.733,0.031-1.102,0.056c-0.368,0.025-0.74,0.056-1.12,0.094
	C43.688,44.706,43.3,44.75,42.9,44.8c-0.375,0.05-0.75,0.106-1.123,0.167s-0.745,0.126-1.114,0.195
	c-0.369,0.069-0.735,0.141-1.096,0.215C39.206,45.45,38.85,45.525,38.5,45.6c-0.275,0.075-0.556,0.15-0.842,0.227
	s-0.576,0.154-0.87,0.236c-0.294,0.082-0.591,0.166-0.889,0.255C35.6,46.406,35.3,46.5,35,46.6s-0.581,0.194-0.844,0.281
	s-0.506,0.169-0.731,0.244s-0.431,0.144-0.619,0.206S32.45,47.45,32.3,47.5H32h-0.3h-0.3h-0.3v-1.875V43.75v-1.875V40
	c0.5-0.125,1.05-0.25,1.648-0.375c0.598-0.125,1.245-0.25,1.939-0.375c0.694-0.125,1.435-0.25,2.221-0.375
	c0.786-0.125,1.617-0.25,2.492-0.375s1.75-0.231,2.627-0.32c0.877-0.089,1.755-0.161,2.636-0.217
	c0.881-0.056,1.765-0.097,2.654-0.124C48.206,37.812,49.1,37.8,50,37.8c0.875,0,1.725,0.013,2.549,0.036s1.62,0.058,2.389,0.102
	s1.509,0.097,2.22,0.158c0.711,0.061,1.392,0.129,2.042,0.204c0.65,0.1,1.275,0.206,1.875,0.32c0.6,0.114,1.175,0.236,1.725,0.368
	s1.075,0.272,1.575,0.423S65.35,39.725,65.8,39.9c0.5,0.175,0.969,0.369,1.406,0.578s0.844,0.434,1.219,0.672
	s0.719,0.487,1.031,0.747c0.312,0.259,0.594,0.528,0.844,0.803s0.469,0.562,0.656,0.862s0.344,0.612,0.469,0.938
	s0.219,0.663,0.281,1.013S71.8,46.225,71.8,46.6c0,0.5-0.062,0.987-0.186,1.461c-0.124,0.473-0.308,0.933-0.552,1.377
	c-0.244,0.444-0.547,0.872-0.907,1.282c-0.361,0.411-0.78,0.805-1.255,1.18c-0.5,0.375-1.031,0.719-1.597,1.03
	c-0.566,0.311-1.166,0.589-1.803,0.832c-0.637,0.244-1.312,0.453-2.028,0.627S62,54.7,61.2,54.8v0.075v0.075v0.075V55.1
	c0.35,0.025,0.7,0.056,1.049,0.094c0.348,0.037,0.695,0.081,1.04,0.131s0.685,0.106,1.02,0.169c0.336,0.062,0.667,0.131,0.992,0.206
	s0.656,0.163,0.989,0.263c0.333,0.1,0.667,0.212,0.999,0.337c0.331,0.125,0.659,0.263,0.979,0.412
	c0.32,0.15,0.633,0.313,0.933,0.488c0.3,0.15,0.588,0.312,0.863,0.487c0.275,0.175,0.537,0.363,0.787,0.562
	c0.25,0.2,0.488,0.412,0.713,0.638C71.788,59.112,72,59.35,72.2,59.6c0.2,0.275,0.375,0.556,0.525,0.844
	c0.15,0.287,0.275,0.581,0.375,0.881s0.175,0.606,0.225,0.919S73.4,62.875,73.4,63.2z"/>
</svg>
