<svg xmlns="http://www.w3.org/2000/svg" viewBox="0 0 100 100"><path d="M13,59.18V28H30.77v5.28H18.23v7.38H29.05v5.28H18.23V59.18Z" stroke="#fff" stroke-miterlimit="10"/><path d="M34.42,59.18V28H40v31.2Z" stroke="#fff" stroke-miterlimit="10"/><path d="M44.42,59.18V28H55.19a15.23,15.23,0,0,1,5.9.84,6.23,6.23,0,0,1,2.94,3,10.55,10.55,0,0,1,1.11,4.92,9.56,9.56,0,0,1-1.68,5.8,7.55,7.55,0,0,1-5,2.88A12.73,12.73,0,0,1,61.19,48,36.19,36.19,0,0,1,64.1,53.1l3.1,6.08H61.08l-3.7-6.79a45.53,45.53,0,0,0-2.69-4.58,4,4,0,0,0-1.54-1.3,6.83,6.83,0,0,0-2.58-.35h-1v13Zm5.12-18h3.78a15.89,15.89,0,0,0,4.6-.38,2.82,2.82,0,0,0,1.43-1.32,4.71,4.71,0,0,0,.52-2.34,4.34,4.34,0,0,0-.68-2.54,3,3,0,0,0-1.93-1.23,36.07,36.07,0,0,0-3.73-.1h-4Z" stroke="#fff" stroke-miterlimit="10"/><path d="M70,59.18V28H88.74v5.28H75.07v6.91H87.79v5.26H75.07v8.5H89.23v5.25Z" stroke="#fff" stroke-miterlimit="10"/><path d="M9.9,71.85V61.91h5.36a9.29,9.29,0,0,1,2.62.3,3.28,3.28,0,0,1,1.55.93A1.93,1.93,0,0,1,20,64.45a1.77,1.77,0,0,1-.49,1.2,3.5,3.5,0,0,1-1.51.91,4.22,4.22,0,0,1,2,.9A2,2,0,0,1,20.68,69a2.21,2.21,0,0,1-.42,1.3,2.92,2.92,0,0,1-1.05.93,5.52,5.52,0,0,1-1.56.49,13.76,13.76,0,0,1-2.31.16Zm1.89-5.76h3.09a9.5,9.5,0,0,0,1.8-.12,2.26,2.26,0,0,0,1.09-.49,1.15,1.15,0,0,0,.36-.87,1.24,1.24,0,0,0-.34-.87,1.79,1.79,0,0,0-1-.52,11.91,11.91,0,0,0-2.18-.14H11.79Zm0,4.59h3.55a9.87,9.87,0,0,0,1.29-.05,3.69,3.69,0,0,0,1.09-.27,1.78,1.78,0,0,0,.72-.55,1.32,1.32,0,0,0,.29-.84,1.36,1.36,0,0,0-.41-1,2.36,2.36,0,0,0-1.14-.57,9.94,9.94,0,0,0-2.09-.17h-3.3Z"/><path d="M23.89,71.85V61.91h5.65a9.53,9.53,0,0,1,2.6.27,2.68,2.68,0,0,1,1.41.94,2.33,2.33,0,0,1,.53,1.5,2.25,2.25,0,0,1-.87,1.79,5.17,5.17,0,0,1-2.72.92,4.88,4.88,0,0,1,1,.49,7.9,7.9,0,0,1,1.4,1.33l2.22,2.7H33l-1.69-2.06c-.5-.6-.9-1.06-1.22-1.38a3.88,3.88,0,0,0-.86-.66,2.8,2.8,0,0,0-.77-.26,5.34,5.34,0,0,0-.94,0h-2v4.41Zm1.69-5.55H29.2A6.61,6.61,0,0,0,31,66.11a1.82,1.82,0,0,0,1-.6,1.35,1.35,0,0,0-.31-2.05A3.75,3.75,0,0,0,29.61,63h-4Z"/><path d="M36.53,71.85l5.32-9.94h2l5.67,9.94H47.41l-1.61-3H40l-1.52,3Zm4-4.08h4.7L43.78,65a21.68,21.68,0,0,1-1-2.07,10.41,10.41,0,0,1-.75,1.9Z"/><path d="M51.94,71.85V61.91h1.74l6.75,7.81V61.91h1.62v9.94H60.31L53.57,64v7.81Z"/><path d="M75.29,68.37,77,68.7a4.45,4.45,0,0,1-2,2.47A6.6,6.6,0,0,1,71.6,72a7.73,7.73,0,0,1-3.44-.65,4.59,4.59,0,0,1-2-1.9,5.36,5.36,0,0,1-.69-2.66,4.72,4.72,0,0,1,.78-2.71,4.85,4.85,0,0,1,2.22-1.76,8.23,8.23,0,0,1,3.18-.6,6.55,6.55,0,0,1,3.3.76,4.09,4.09,0,0,1,1.86,2.14l-1.7.3a3.12,3.12,0,0,0-1.32-1.58,4.34,4.34,0,0,0-2.18-.5,5.34,5.34,0,0,0-2.52.55,3.07,3.07,0,0,0-1.42,1.48,4.56,4.56,0,0,0-.41,1.91A4.87,4.87,0,0,0,67.72,69a3.08,3.08,0,0,0,1.52,1.41,5.29,5.29,0,0,0,2.22.47,4.46,4.46,0,0,0,2.46-.64A3.19,3.19,0,0,0,75.29,68.37Z"/><path d="M80.25,71.85V61.91h1.66V66h6.53V61.91H90.1v9.94H88.44V67.17H81.91v4.68Z"/></svg>