<svg xmlns="http://www.w3.org/2000/svg" viewBox="0 0 100 100"><path d="M37.53,50q0,11-3.68,17.27T23.76,73.58q-6.44,0-10.09-6.37T10,50q0-10.92,3.67-17.26t10.09-6.34q6.4,0,10.09,6.31T37.53,50Zm-7.36,0a38.48,38.48,0,0,0-.53-6.88,19,19,0,0,0-1.4-4.67,6.85,6.85,0,0,0-2.07-2.66A4.12,4.12,0,0,0,23.78,35a4.06,4.06,0,0,0-2.39.75,7.27,7.27,0,0,0-2.06,2.66,18.38,18.38,0,0,0-1.42,4.68,38.93,38.93,0,0,0-.54,7,38.89,38.89,0,0,0,.51,6.91,18.65,18.65,0,0,0,1.41,4.61,6.83,6.83,0,0,0,2.08,2.69,4.18,4.18,0,0,0,2.41.81,4.09,4.09,0,0,0,2.44-.87,6.89,6.89,0,0,0,2-2.69,19.56,19.56,0,0,0,1.41-4.61A38.55,38.55,0,0,0,30.17,50Z"/><path d="M23.76,74.33c-4.56,0-8.17-2.27-10.75-6.75S9.25,57.33,9.25,50,10.52,36.71,13,32.38s6.18-6.71,10.74-6.71,8.15,2.25,10.74,6.68S38.28,42.6,38.28,50,37,63.37,34.5,67.67,28.3,74.33,23.76,74.33Zm0-47.16c-4,0-7.13,1.95-9.45,6S10.75,42.91,10.75,50s1.2,12.7,3.57,16.82,5.4,6,9.44,6,7.11-1.94,9.44-5.92S36.78,57.16,36.78,50s-1.2-12.84-3.58-16.91S27.78,27.17,23.76,27.17Zm0,38.62A4.92,4.92,0,0,1,21,64.85a7.5,7.5,0,0,1-2.33-3,19.32,19.32,0,0,1-1.48-4.8,39.62,39.62,0,0,1-.52-7,39.5,39.5,0,0,1,.55-7.11A19.32,19.32,0,0,1,18.66,38,7.94,7.94,0,0,1,21,35.09a4.85,4.85,0,0,1,5.64.06,7.59,7.59,0,0,1,2.31,3A19.35,19.35,0,0,1,30.38,43a39.21,39.21,0,0,1,.54,7,39.19,39.19,0,0,1-.51,7,20.38,20.38,0,0,1-1.47,4.78,7.65,7.65,0,0,1-2.28,3A4.8,4.8,0,0,1,23.78,65.79Zm0-30.08a3.32,3.32,0,0,0-2,.61A6.63,6.63,0,0,0,20,38.71a17.51,17.51,0,0,0-1.35,4.48A37.29,37.29,0,0,0,18.12,50a38.33,38.33,0,0,0,.5,6.77A17.68,17.68,0,0,0,20,61.21a6.07,6.07,0,0,0,1.83,2.4,3.15,3.15,0,0,0,4,0,6.18,6.18,0,0,0,1.81-2.4,18.51,18.51,0,0,0,1.35-4.43A37.9,37.9,0,0,0,29.42,50a38.11,38.11,0,0,0-.52-6.75,17.52,17.52,0,0,0-1.34-4.47,6.2,6.2,0,0,0-1.82-2.38A3.38,3.38,0,0,0,23.78,35.71Z" fill="#fff"/><path d="M64.29,41.65a27.85,27.85,0,0,1-.63,6,15.34,15.34,0,0,1-1.84,4.78,17.18,17.18,0,0,1-1.61,2.19,9.71,9.71,0,0,1-1.94,1.7,9,9,0,0,1-5.1,1.49H49.38V72.64H42.15V27.36H53.32a11.59,11.59,0,0,1,4.3.72,9,9,0,0,1,3.27,2.26,11.42,11.42,0,0,1,2.52,4.55A22.86,22.86,0,0,1,64.29,41.65Zm-7.41.28a8.62,8.62,0,0,0-.58-3.3,4,4,0,0,0-1.4-1.9,4.32,4.32,0,0,0-2-.81,24.16,24.16,0,0,0-2.54-.1h-1V49.38h.5c.68,0,1.33,0,1.93,0a6.56,6.56,0,0,0,1.59-.22,4.11,4.11,0,0,0,1.22-.59,3.26,3.26,0,0,0,1-1,6.82,6.82,0,0,0,1-2.34A15.75,15.75,0,0,0,56.88,41.93Z"/><path d="M50.13,73.39H41.4V26.61H53.32a12.48,12.48,0,0,1,4.58.77,9.83,9.83,0,0,1,3.54,2.45,12.2,12.2,0,0,1,2.68,4.83,23.74,23.74,0,0,1,.92,7,28.8,28.8,0,0,1-.65,6.19,15.91,15.91,0,0,1-1.93,5,16.53,16.53,0,0,1-1.69,2.29A10.34,10.34,0,0,1,58.68,57a9.74,9.74,0,0,1-5.51,1.61h-3Zm-7.23-1.5h5.73V57.08h4.54a8.47,8.47,0,0,0,2.56-.36,8.28,8.28,0,0,0,2.12-1,8.82,8.82,0,0,0,1.8-1.57,15,15,0,0,0,1.53-2.09,14.25,14.25,0,0,0,1.74-4.54,26.39,26.39,0,0,0,.62-5.86,22.09,22.09,0,0,0-.85-6.54,10.73,10.73,0,0,0-2.34-4.25,8.49,8.49,0,0,0-3-2.09,11,11,0,0,0-4-.66H42.9Zm7-21.76H48.63V35.07H50.4a23,23,0,0,1,2.63.11,5.16,5.16,0,0,1,2.3.93A4.63,4.63,0,0,1,57,38.34a9.36,9.36,0,0,1,.64,3.59,16.65,16.65,0,0,1-.28,3.44A7.53,7.53,0,0,1,56.25,48a4.28,4.28,0,0,1-1.2,1.2,5,5,0,0,1-1.46.7,8.6,8.6,0,0,1-1.75.24C51.22,50.12,50.57,50.13,49.88,50.13Zm.25-13.56V48.63l1.66,0a6.17,6.17,0,0,0,1.41-.19,3.17,3.17,0,0,0,1-.49,2.65,2.65,0,0,0,.79-.77,6.18,6.18,0,0,0,.89-2.1,15.69,15.69,0,0,0,.25-3.12,7.72,7.72,0,0,0-.53-3,3.26,3.26,0,0,0-1.1-1.56,3.58,3.58,0,0,0-1.64-.69,22.5,22.5,0,0,0-2.46-.1Z" fill="#fff"/><path d="M77.53,73.46a15.65,15.65,0,0,1-5.8-1A23.05,23.05,0,0,1,67.08,70V59.2h.66a16.81,16.81,0,0,0,4.77,4.44,9.92,9.92,0,0,0,5.06,1.55A8.5,8.5,0,0,0,79.2,65a4.38,4.38,0,0,0,1.63-.67,4.31,4.31,0,0,0,1.27-1.45,5,5,0,0,0,.52-2.45,4.27,4.27,0,0,0-.85-2.76,5,5,0,0,0-2-1.55c-1-.41-2-.79-3.14-1.16a18.21,18.21,0,0,1-3.12-1.34,10.88,10.88,0,0,1-4.78-5,18.66,18.66,0,0,1-1.45-7.85,15.17,15.17,0,0,1,3.41-10.29,10.84,10.84,0,0,1,8.54-3.94,16.68,16.68,0,0,1,5.1.82,17.34,17.34,0,0,1,4.55,2.22V39.92h-.64a14.8,14.8,0,0,0-3.91-3.65,8.67,8.67,0,0,0-4.74-1.49,6.38,6.38,0,0,0-1.7.21,5.26,5.26,0,0,0-1.58.83,3.93,3.93,0,0,0-1.17,1.44,4.71,4.71,0,0,0-.49,2.14,4.44,4.44,0,0,0,.78,2.76,6.71,6.71,0,0,0,3,1.83l2.79,1a19,19,0,0,1,2.87,1.34,10.87,10.87,0,0,1,4.45,4.57A16.9,16.9,0,0,1,90,58.5q0,6.75-3.37,10.85A11.16,11.16,0,0,1,77.53,73.46Z"/><path d="M77.53,74.21a16.34,16.34,0,0,1-6.08-1.06,24.16,24.16,0,0,1-4.79-2.57l-.33-.23V58.45h1.79l.22.3A16.1,16.1,0,0,0,72.89,63a9.21,9.21,0,0,0,4.68,1.45,7.79,7.79,0,0,0,1.47-.2,3.41,3.41,0,0,0,1.34-.54,3.48,3.48,0,0,0,1.07-1.2,4.38,4.38,0,0,0,.42-2.09,3.53,3.53,0,0,0-.68-2.29,4.25,4.25,0,0,0-1.73-1.33c-1-.4-2-.78-3.08-1.14a18.92,18.92,0,0,1-3.25-1.39A11.6,11.6,0,0,1,68,48.93a19.46,19.46,0,0,1-1.52-8.16A15.92,15.92,0,0,1,70.11,30a11.57,11.57,0,0,1,9.1-4.2,17.27,17.27,0,0,1,5.33.86A18.09,18.09,0,0,1,89.29,29l.32.22V40.67H87.84l-.22-.3a14.28,14.28,0,0,0-3.71-3.47,8,8,0,0,0-4.34-1.37,5.23,5.23,0,0,0-1.49.19,4.13,4.13,0,0,0-1.34.7,3.22,3.22,0,0,0-.95,1.18,3.94,3.94,0,0,0-.41,1.8A3.7,3.7,0,0,0,76,41.7a5.9,5.9,0,0,0,2.68,1.59l2.79,1a21.59,21.59,0,0,1,3,1.39,11.7,11.7,0,0,1,4.75,4.89,17.68,17.68,0,0,1,1.54,7.93c0,4.66-1.19,8.47-3.54,11.33A11.92,11.92,0,0,1,77.53,74.21Zm-9.7-4.64A23,23,0,0,0,72,71.76a14.8,14.8,0,0,0,5.52.95,10.35,10.35,0,0,0,8.52-3.83c2.12-2.59,3.2-6.08,3.2-10.38a16.25,16.25,0,0,0-1.38-7.25A10.19,10.19,0,0,0,83.72,47,18.47,18.47,0,0,0,81,45.7l-2.79-1a7.24,7.24,0,0,1-3.36-2.09,5.17,5.17,0,0,1-.94-3.21,5.39,5.39,0,0,1,.58-2.48,4.66,4.66,0,0,1,1.39-1.71,5.76,5.76,0,0,1,1.82-.94,7.06,7.06,0,0,1,1.9-.24,9.42,9.42,0,0,1,5.15,1.61,15.94,15.94,0,0,1,3.39,2.94V30a16.25,16.25,0,0,0-4-1.9,15.85,15.85,0,0,0-4.87-.79,10.06,10.06,0,0,0-8,3.68A14.51,14.51,0,0,0,68,40.77a18,18,0,0,0,1.38,7.53A10.22,10.22,0,0,0,73.86,53a17.83,17.83,0,0,0,3,1.28C78,54.59,79,55,80,55.4a5.83,5.83,0,0,1,2.33,1.78,5,5,0,0,1,1,3.23,5.75,5.75,0,0,1-.61,2.82,4.88,4.88,0,0,1-1.51,1.69,4.82,4.82,0,0,1-1.9.79,9.29,9.29,0,0,1-1.78.23,10.68,10.68,0,0,1-5.45-1.66,16.94,16.94,0,0,1-4.29-3.75Z" fill="#fff"/></svg>