<?xml version="1.0" encoding="iso-8859-1"?>
<!-- Generator: Adobe Illustrator 25.4.1, SVG Export Plug-In . SVG Version: 6.00 Build 0)  -->
<svg version="1.1" id="Layer_1" xmlns="http://www.w3.org/2000/svg" xmlns:xlink="http://www.w3.org/1999/xlink" x="0px" y="0px"
	 viewBox="0 0 100 100" style="enable-background:new 0 0 100 100;" xml:space="preserve">
<path d="M20.4,32.3c0,0.275-0.019,0.537-0.055,0.791c-0.036,0.253-0.089,0.497-0.157,0.734c-0.069,0.237-0.153,0.469-0.252,0.697
	c-0.099,0.228-0.211,0.453-0.336,0.678s-0.262,0.431-0.413,0.622c-0.15,0.191-0.312,0.366-0.487,0.528s-0.362,0.312-0.562,0.453
	S17.725,37.075,17.5,37.2c-0.175,0.1-0.35,0.188-0.527,0.264c-0.177,0.077-0.354,0.142-0.535,0.199s-0.365,0.103-0.555,0.142
	S15.5,37.875,15.3,37.9s-0.406,0.05-0.62,0.074c-0.214,0.023-0.436,0.045-0.668,0.064c-0.231,0.019-0.471,0.034-0.723,0.045
	S12.775,38.1,12.5,38.1h-0.825H10.85h-0.825H9.2v-2.9v-2.9v-2.9v-2.9H10h0.8h0.8h0.8c0.325,0,0.637,0.006,0.934,0.017
	c0.297,0.011,0.578,0.026,0.841,0.045c0.262,0.019,0.506,0.041,0.728,0.064c0.222,0.024,0.422,0.049,0.597,0.074
	c0.2,0.05,0.387,0.1,0.564,0.152c0.177,0.052,0.342,0.104,0.498,0.16s0.303,0.115,0.442,0.18c0.139,0.064,0.271,0.133,0.396,0.208
	c0.225,0.125,0.438,0.256,0.638,0.397c0.2,0.141,0.387,0.291,0.562,0.453s0.337,0.338,0.487,0.528s0.288,0.397,0.413,0.622
	s0.244,0.45,0.352,0.678c0.108,0.228,0.205,0.459,0.286,0.697c0.081,0.238,0.146,0.481,0.192,0.734
	C20.375,31.763,20.4,32.025,20.4,32.3z M18.4,32.3c0-0.225-0.012-0.438-0.036-0.641s-0.058-0.397-0.102-0.584
	s-0.097-0.369-0.158-0.547C18.043,30.35,17.975,30.175,17.9,30c-0.1-0.15-0.206-0.294-0.32-0.431
	c-0.114-0.138-0.236-0.269-0.368-0.394c-0.131-0.125-0.271-0.244-0.423-0.356C16.638,28.706,16.475,28.6,16.3,28.5
	c-0.125-0.05-0.25-0.1-0.377-0.149s-0.255-0.095-0.385-0.139s-0.266-0.084-0.405-0.12C14.994,28.056,14.85,28.025,14.7,28
	s-0.306-0.05-0.469-0.073c-0.163-0.024-0.331-0.045-0.506-0.065s-0.356-0.035-0.544-0.045S12.8,27.8,12.6,27.8h-0.35H11.9h-0.35
	H11.2v2.225v2.225v2.225V36.7h0.35h0.35h0.35h0.35c0.2,0,0.4-0.006,0.597-0.017c0.197-0.011,0.391-0.026,0.578-0.045
	s0.369-0.041,0.541-0.064S14.65,36.525,14.8,36.5s0.3-0.056,0.448-0.094c0.148-0.037,0.295-0.081,0.439-0.131
	c0.144-0.05,0.285-0.106,0.42-0.169s0.267-0.131,0.392-0.206c0.175-0.1,0.331-0.2,0.473-0.303c0.142-0.103,0.271-0.209,0.39-0.322
	c0.119-0.113,0.228-0.231,0.333-0.359C17.8,34.787,17.9,34.65,18,34.5c0.05-0.15,0.1-0.306,0.147-0.47
	c0.047-0.164,0.091-0.336,0.128-0.517c0.038-0.181,0.069-0.372,0.091-0.574S18.4,32.525,18.4,32.3z"/>
<path d="M27.4,38.1h-1.375H24.65h-1.375H21.9v-0.3v-0.3v-0.3v-0.3h0.45h0.45h0.45h0.45v-2.3v-2.3V30v-2.3h-0.45H22.8h-0.45H21.9
	v-0.3v-0.3v-0.3v-0.3h1.375h1.375h1.375H27.4v0.3v0.3v0.3v0.3h-0.45H26.5h-0.45H25.6V30v2.3v2.3v2.3h0.45h0.45h0.45h0.45v0.3v0.3
	v0.3V38.1z"/>
<path d="M40,26.5l-1.225,2.9l-1.225,2.9l-1.225,2.9L35.1,38.1h-0.5h-0.5h-0.5h-0.5l-1.225-2.9l-1.225-2.9l-1.225-2.9L28.2,26.5h0.5
	h0.5h0.5h0.5l0.975,2.4l0.975,2.4l0.975,2.4l0.975,2.4l0.975-2.4l0.975-2.4l0.975-2.4L38,26.5c0,0,0.125,0,0.312,0s0.438,0,0.688,0
	s0.5,0,0.688,0S40,26.5,40,26.5z"/>
<path d="M46.3,38.1h-1.375H43.55h-1.375H40.8v-0.3v-0.3v-0.3v-0.3h0.45h0.45h0.45h0.45v-2.3v-2.3V30v-2.3h-0.45H41.7h-0.45H40.8
	v-0.3v-0.3v-0.3v-0.3h1.375h1.375h1.375H46.3v0.3v0.3v0.3v0.3h-0.45H45.4h-0.45H44.5V30v2.3v2.3v2.3h0.45h0.45h0.45h0.45v0.3v0.3
	v0.3V38.1z"/>
<path d="M52.6,38.3c-0.25,0-0.494-0.006-0.73-0.019c-0.236-0.013-0.464-0.031-0.682-0.056c-0.219-0.025-0.429-0.056-0.627-0.094
	C50.362,38.094,50.175,38.05,50,38s-0.35-0.1-0.523-0.15c-0.174-0.05-0.346-0.1-0.514-0.15c-0.168-0.05-0.334-0.1-0.495-0.15
	S48.15,37.45,48,37.4v-0.475V36.45v-0.475V35.5h0.025h0.025h0.025H48.1c0.15,0.125,0.306,0.237,0.469,0.341
	c0.162,0.103,0.331,0.197,0.506,0.284s0.356,0.169,0.544,0.247S50,36.525,50.2,36.6s0.394,0.137,0.584,0.189
	c0.191,0.052,0.378,0.092,0.566,0.123s0.375,0.053,0.566,0.067C52.106,36.993,52.3,37,52.5,37c0.25,0,0.487-0.013,0.713-0.036
	c0.225-0.024,0.438-0.058,0.637-0.102c0.2-0.044,0.388-0.097,0.562-0.157s0.338-0.13,0.487-0.205c0.125-0.1,0.237-0.2,0.336-0.303
	c0.098-0.103,0.183-0.209,0.251-0.322c0.069-0.112,0.122-0.231,0.158-0.359C55.681,35.388,55.7,35.25,55.7,35.1
	c0-0.125-0.006-0.237-0.02-0.341c-0.014-0.103-0.036-0.197-0.068-0.284s-0.072-0.169-0.123-0.247S55.375,34.075,55.3,34
	s-0.156-0.144-0.245-0.206s-0.186-0.119-0.292-0.169c-0.106-0.05-0.222-0.094-0.349-0.131S54.15,33.425,54,33.4
	c-0.1-0.025-0.2-0.05-0.3-0.075c-0.1-0.025-0.2-0.05-0.3-0.075s-0.2-0.05-0.3-0.075c-0.1-0.025-0.2-0.05-0.3-0.075
	s-0.2-0.05-0.303-0.075s-0.209-0.05-0.322-0.075c-0.113-0.025-0.231-0.05-0.359-0.075c-0.128-0.025-0.266-0.05-0.416-0.075
	c-0.125-0.025-0.244-0.05-0.358-0.076s-0.224-0.055-0.33-0.085s-0.209-0.065-0.311-0.105C50.3,32.494,50.2,32.45,50.1,32.4
	s-0.194-0.1-0.283-0.15c-0.089-0.05-0.174-0.1-0.255-0.15c-0.081-0.05-0.159-0.1-0.236-0.15c-0.076-0.05-0.152-0.1-0.227-0.15
	c-0.075-0.075-0.144-0.15-0.208-0.225c-0.064-0.075-0.124-0.15-0.18-0.225c-0.056-0.075-0.109-0.15-0.16-0.225
	S48.45,30.975,48.4,30.9s-0.088-0.156-0.116-0.244c-0.028-0.088-0.047-0.181-0.059-0.281c-0.013-0.1-0.019-0.206-0.022-0.319
	C48.2,29.944,48.2,29.825,48.2,29.7c0-0.225,0.025-0.444,0.076-0.656c0.051-0.212,0.129-0.419,0.236-0.619
	c0.106-0.2,0.241-0.394,0.405-0.581c0.164-0.188,0.357-0.369,0.582-0.544c0.225-0.15,0.463-0.288,0.714-0.409
	c0.252-0.122,0.517-0.228,0.799-0.316s0.578-0.156,0.893-0.203C52.219,26.325,52.55,26.3,52.9,26.3c0.2,0,0.394,0.006,0.584,0.017
	c0.191,0.011,0.378,0.026,0.566,0.045s0.375,0.041,0.566,0.064C54.806,26.45,55,26.475,55.2,26.5
	c0.175,0.025,0.35,0.056,0.523,0.094s0.346,0.081,0.514,0.131c0.169,0.05,0.334,0.106,0.495,0.169
	c0.161,0.062,0.317,0.131,0.467,0.206v0.45V28v0.45v0.45h-0.025H57.15h-0.025H57.1c-0.125-0.075-0.25-0.15-0.378-0.225
	c-0.128-0.075-0.259-0.15-0.397-0.225c-0.137-0.075-0.281-0.15-0.434-0.225C55.737,28.15,55.575,28.075,55.4,28
	s-0.35-0.138-0.527-0.189c-0.176-0.052-0.354-0.092-0.535-0.123c-0.181-0.031-0.366-0.053-0.555-0.068
	C53.594,27.606,53.4,27.6,53.2,27.6c-0.225,0-0.438,0.012-0.638,0.036c-0.2,0.024-0.387,0.058-0.562,0.102
	c-0.175,0.044-0.338,0.097-0.487,0.157c-0.15,0.061-0.288,0.13-0.413,0.205s-0.237,0.163-0.336,0.259
	c-0.098,0.097-0.183,0.203-0.251,0.316c-0.069,0.112-0.122,0.231-0.158,0.353C50.319,29.15,50.3,29.275,50.3,29.4
	s0.013,0.244,0.036,0.356c0.023,0.112,0.058,0.219,0.102,0.319c0.043,0.1,0.097,0.194,0.157,0.281s0.13,0.169,0.205,0.244
	s0.163,0.144,0.261,0.206s0.208,0.119,0.327,0.169c0.118,0.05,0.246,0.094,0.382,0.131s0.28,0.069,0.43,0.094
	c0.1,0.025,0.206,0.05,0.319,0.075c0.112,0.025,0.231,0.05,0.356,0.075s0.256,0.05,0.394,0.075c0.138,0.025,0.281,0.05,0.431,0.075
	s0.294,0.05,0.43,0.075c0.136,0.025,0.264,0.05,0.382,0.075s0.228,0.05,0.327,0.075c0.099,0.025,0.186,0.05,0.261,0.075
	c0.25,0.05,0.481,0.112,0.694,0.186c0.213,0.073,0.406,0.158,0.581,0.251c0.175,0.094,0.331,0.197,0.469,0.308
	S57.1,32.775,57.2,32.9s0.194,0.256,0.278,0.394s0.159,0.281,0.222,0.431s0.112,0.306,0.147,0.469
	c0.034,0.162,0.053,0.331,0.053,0.506c0,0.125-0.006,0.244-0.019,0.358c-0.013,0.114-0.031,0.224-0.056,0.33
	c-0.025,0.106-0.056,0.209-0.094,0.31C57.694,35.8,57.65,35.9,57.6,36c-0.05,0.1-0.106,0.2-0.169,0.299
	c-0.062,0.099-0.131,0.196-0.206,0.29s-0.156,0.184-0.244,0.27C56.894,36.944,56.8,37.025,56.7,37.1
	c-0.125,0.075-0.25,0.15-0.377,0.223c-0.127,0.074-0.255,0.146-0.386,0.215c-0.131,0.069-0.265,0.134-0.404,0.195
	C55.394,37.794,55.25,37.85,55.1,37.9c-0.225,0.075-0.438,0.138-0.644,0.189s-0.406,0.092-0.606,0.124
	c-0.2,0.031-0.4,0.053-0.606,0.067C53.037,38.294,52.825,38.3,52.6,38.3z"/>
<path d="M64.5,38.1h-1.375H61.75h-1.375H59v-0.3v-0.3v-0.3v-0.3h0.45h0.45h0.45h0.45v-2.3v-2.3V30v-2.3h-0.45H59.9h-0.45H59v-0.3
	v-0.3v-0.3v-0.3h1.375h1.375h1.375H64.5v0.3v0.3v0.3v0.3h-0.45H63.6h-0.45H62.7V30v2.3v2.3v2.3h0.45h0.45h0.45h0.45v0.3v0.3v0.3
	V38.1z"/>
<path d="M76.9,27.9c0.125,0.125,0.25,0.256,0.372,0.395c0.122,0.139,0.241,0.286,0.353,0.442c0.113,0.156,0.219,0.322,0.316,0.499
	c0.097,0.177,0.184,0.364,0.259,0.564s0.137,0.4,0.189,0.603s0.092,0.409,0.123,0.622c0.032,0.212,0.054,0.431,0.068,0.659
	c0.014,0.228,0.02,0.466,0.02,0.716c0,0.225-0.006,0.45-0.02,0.672c-0.014,0.222-0.036,0.441-0.068,0.653s-0.072,0.419-0.123,0.616
	S78.275,34.725,78.2,34.9c-0.075,0.2-0.156,0.388-0.245,0.564c-0.089,0.177-0.186,0.342-0.292,0.498
	c-0.106,0.156-0.222,0.304-0.349,0.443c-0.127,0.139-0.264,0.27-0.414,0.395s-0.306,0.244-0.467,0.356
	c-0.161,0.112-0.327,0.219-0.496,0.319c-0.169,0.1-0.34,0.194-0.514,0.281C75.25,37.844,75.075,37.925,74.9,38
	s-0.362,0.138-0.561,0.189c-0.199,0.052-0.408,0.092-0.627,0.123s-0.447,0.053-0.683,0.067C72.794,38.394,72.55,38.4,72.3,38.4
	s-0.488-0.006-0.716-0.02c-0.228-0.014-0.447-0.036-0.659-0.068s-0.419-0.072-0.622-0.123C70.1,38.137,69.9,38.075,69.7,38
	s-0.387-0.156-0.566-0.244c-0.178-0.088-0.347-0.181-0.509-0.281s-0.319-0.206-0.472-0.319C68,37.044,67.85,36.925,67.7,36.8
	c-0.125-0.125-0.25-0.256-0.372-0.395c-0.122-0.139-0.241-0.286-0.353-0.442c-0.112-0.156-0.219-0.322-0.316-0.499
	C66.562,35.287,66.475,35.1,66.4,34.9c-0.075-0.175-0.138-0.362-0.189-0.559c-0.051-0.197-0.092-0.403-0.123-0.616
	s-0.053-0.431-0.067-0.653C66.007,32.85,66,32.625,66,32.4c0-0.25,0.006-0.487,0.02-0.716c0.014-0.228,0.036-0.447,0.068-0.659
	s0.072-0.419,0.123-0.622S66.325,30,66.4,29.8c0.075-0.175,0.156-0.35,0.245-0.522c0.089-0.172,0.186-0.341,0.292-0.503
	c0.106-0.163,0.222-0.319,0.349-0.466c0.127-0.147,0.264-0.284,0.414-0.409c0.125-0.125,0.262-0.244,0.411-0.356
	c0.148-0.112,0.308-0.219,0.476-0.319c0.169-0.1,0.347-0.194,0.533-0.281s0.38-0.169,0.58-0.244s0.4-0.138,0.603-0.189
	c0.203-0.052,0.409-0.092,0.622-0.123c0.213-0.031,0.431-0.054,0.659-0.068c0.228-0.014,0.466-0.02,0.716-0.02
	s0.488,0.006,0.716,0.02c0.228,0.014,0.447,0.036,0.659,0.067s0.419,0.072,0.622,0.124S74.7,26.625,74.9,26.7
	s0.394,0.156,0.58,0.244s0.364,0.181,0.532,0.281c0.169,0.1,0.328,0.206,0.477,0.319C76.637,27.656,76.775,27.775,76.9,27.9z
	 M76.6,32.3c0-0.2-0.006-0.388-0.019-0.566c-0.012-0.178-0.031-0.347-0.056-0.509c-0.025-0.162-0.056-0.319-0.094-0.472
	C76.394,30.6,76.35,30.45,76.3,30.3s-0.106-0.294-0.169-0.431C76.069,29.731,76,29.6,75.925,29.475s-0.156-0.244-0.244-0.356
	C75.594,29.006,75.5,28.9,75.4,28.8s-0.2-0.194-0.303-0.281s-0.209-0.169-0.322-0.244s-0.231-0.144-0.359-0.206
	C74.288,28.006,74.15,27.95,74,27.9s-0.294-0.094-0.436-0.131c-0.142-0.037-0.283-0.069-0.426-0.094
	c-0.144-0.025-0.291-0.044-0.446-0.056C72.537,27.606,72.375,27.6,72.2,27.6s-0.344,0.006-0.506,0.019
	c-0.162,0.013-0.319,0.031-0.469,0.056s-0.294,0.056-0.431,0.094S70.525,27.85,70.4,27.9s-0.25,0.106-0.373,0.169
	c-0.124,0.062-0.245,0.131-0.365,0.206c-0.118,0.075-0.234,0.156-0.345,0.244C69.206,28.606,69.1,28.7,69,28.8
	s-0.194,0.206-0.281,0.319c-0.088,0.113-0.169,0.231-0.244,0.356s-0.144,0.256-0.206,0.394C68.206,30.006,68.15,30.15,68.1,30.3
	s-0.094,0.306-0.131,0.467c-0.038,0.161-0.069,0.326-0.094,0.495s-0.044,0.34-0.056,0.514C67.806,31.95,67.8,32.125,67.8,32.3
	c0,0.375,0.025,0.731,0.075,1.067c0.05,0.336,0.125,0.652,0.225,0.946c0.1,0.293,0.225,0.565,0.375,0.814
	C68.625,35.375,68.8,35.6,69,35.8c0.25,0.2,0.5,0.375,0.755,0.525c0.255,0.15,0.514,0.275,0.783,0.375
	c0.269,0.1,0.547,0.175,0.839,0.225S71.975,37,72.3,37s0.637-0.025,0.934-0.075s0.578-0.125,0.841-0.225s0.506-0.225,0.728-0.375
	C75.025,36.175,75.225,36,75.4,35.8s0.338-0.425,0.483-0.673s0.273-0.52,0.379-0.814c0.106-0.294,0.191-0.61,0.249-0.946
	C76.569,33.031,76.6,32.675,76.6,32.3z"/>
<path d="M90.8,38.1h-0.525H89.75h-0.525H88.7l-1.575-2.5l-1.575-2.5l-1.575-2.5L82.4,28.1v2.5v2.5v2.5v2.5h-0.45H81.5h-0.45H80.6
	v-2.9v-2.9v-2.9v-2.9h0.675h0.675h0.675H83.3l1.425,2.275l1.425,2.275l1.425,2.275L89,35.6v-2.275V31.05v-2.275V26.5h0.45h0.45h0.45
	h0.45c0,0,0,0.725,0,1.812s0,2.537,0,3.987s0,2.9,0,3.987C90.8,37.375,90.8,38.1,90.8,38.1z"/>
<path d="M71,46.5l-5.4,6.8l-5.4,6.8l-5.4,6.8l-5.4,6.8h-3.525H42.35h-3.525H35.3l5.65-6.875l5.65-6.875l5.65-6.875L57.9,46.2h-6.05
	H45.8h-6.05H33.7v-1.6V43v-1.6v-1.6h9.325h9.325h9.325H71v1.675v1.675v1.675V46.5z"/>
</svg>
