<?xml version="1.0" encoding="utf-8"?>
<!-- Generator: Adobe Illustrator 25.3.1, SVG Export Plug-In . SVG Version: 6.00 Build 0)  -->
<svg version="1.1" id="Layer_1" xmlns="http://www.w3.org/2000/svg" xmlns:xlink="http://www.w3.org/1999/xlink" x="0px" y="0px"
	 viewBox="0 0 100 100" style="enable-background:new 0 0 100 100;" xml:space="preserve">

	<path d="M14.6,28.8c1.4,0,2.7,0,4.2,0c0,3.9,0,7.8,0,11.9c3.2,0,6.3,0.1,9.3-0.1c0.4,0,1-1,1-1.6c0.1-3.4,0-6.7,0-10.2
		c1.5,0,2.8,0,4.3,0c0,9.8,0,19.6,0,29.5c-1.4,0-2.8,0-4.2,0c0-4.4,0-8.6,0-13.1c-3.5,0-6.8,0-10.3,0c0,4.3,0,8.6,0,13
		c-1.5,0-2.8,0-4.3,0C14.6,48.5,14.6,38.8,14.6,28.8z"/>
	<path d="M60.8,58.4c-1.7,0-3.1,0-4.7,0c-0.6-1.8-1.2-3.6-1.7-5.4c-0.3-1-0.7-1.5-1.9-1.5c-2.5,0.1-4.9,0.1-7.4,0
		c-1.1,0-1.7,0.4-1.9,1.4c-0.1,0.7-0.4,1.4-0.6,2.1c-1.1,3.9-1.1,3.9-5.6,3.3c0.9-3,1.9-5.9,2.8-8.9c1.9-6.2,4-12.4,5.8-18.6
		c0.5-1.6,1.1-2.3,2.8-2.1c0.9,0.1,1.8,0,2.8,0C54.4,38.6,57.6,48.4,60.8,58.4z M45,47c2.6,0,5,0,7.5,0c-1.2-4.1-2.4-8.1-3.8-12.7
		C47.4,38.9,46.2,42.9,45,47z"/>
	<path d="M75.4,33.1c-4.1,0-7.8,0-11.6,0c0-1.5,0-2.8,0-4.2c5.7,0,11.4,0,17.1,0c0.2,2.2,0.3,4.2-1.1,6.2
		c-3.9,5.6-7.6,11.4-11.3,17.1c-0.3,0.5-0.7,1.1-1.1,1.9c4.9,0,9.4,0,14.1,0c0,1.5,0,2.9,0,4.3c-6.4,0-12.7,0-19.2,0
		c0-2.3-0.5-4.5,1.1-6.8c3.7-5.4,7.2-11,10.8-16.5C74.5,34.6,74.8,34,75.4,33.1z"/>
	<path d="M19.2,66.2c0.9,0.4,2.4,0.8,2,2.7c-0.4,1.7-1.8,2.1-3.3,2.1c-2.4,0.1-4.8,0-7.2,0c0-3.2,0-6.2,0-9.4c2.5,0,5-0.2,7.5,0.1
		c0.9,0.1,2.1,1.1,2.4,1.9C20.7,64.3,19.7,65.3,19.2,66.2z M12.8,69.7c1.7,0,3.3,0.1,4.8-0.1c0.5-0.1,1.2-0.8,1.3-1.3
		c0.1-0.3-0.7-1.2-1.1-1.3c-1.6-0.2-3.3-0.3-5-0.4C12.8,67.9,12.8,68.7,12.8,69.7z M12.9,62.9c0,0.9,0,1.7,0,2.5
		c1.5,0,2.9,0.1,4.2-0.1c0.5-0.1,1-0.8,1.4-1.3c-0.4-0.4-0.8-1.1-1.3-1.2C15.8,62.8,14.4,62.9,12.9,62.9z"/>
	<path d="M35.8,70.7c-2.2,0.8-3.1,0.1-4-1c-1.3-1.5-2.5-3.3-5.2-2.6c-0.1,1.2-0.1,2.4-0.2,3.8c-0.7,0-1.3,0-2,0c0-3.1,0-6.1,0-9.3
		c2.6,0,5.2-0.1,7.9,0c1.4,0.1,2.5,0.8,2.6,2.4c0,1.5-1.1,2.1-2.4,2.4c-0.3,0.1-0.6,0.1-0.6,0.1C33,67.9,34.3,69.2,35.8,70.7z
		 M26.6,65.9c1.7-0.1,3.2-0.1,4.7-0.3c0.5-0.1,1.1-0.8,1.1-1.3c0-0.4-0.7-1.2-1.1-1.2c-1.5-0.2-3-0.2-4.7-0.3
		C26.6,63.9,26.6,64.7,26.6,65.9z"/>
	<path d="M51.8,61.7c1.4-0.5,2.4,0,3.2,1.1c1.4,1.9,3,3.6,4.8,5.8c0-2.5,0-4.6,0-6.9c0.7-0.1,1.3-0.1,2-0.2c0,3.2,0,6.3,0,9.4
		c-1.4,0.6-2.3,0.1-3.2-1c-1.4-1.8-3-3.6-4.8-5.7c0,2.6,0,4.6,0,6.8c-0.7,0-1.3,0.1-1.9,0.1C51.8,67.8,51.8,64.8,51.8,61.7z"/>
	<path d="M89.3,71c-0.6,0-1.3,0-2.1,0c0-1.4,0-2.7,0-4.2c-2,0-3.9,0-5.9,0c0,1.4,0,2.7,0,4.1c-0.8,0-1.4,0-2.2,0c0-3.1,0-6.1,0-9.3
		c0.7,0,1.3-0.1,2.1-0.1c0,1.3,0,2.5,0,3.8c2.1,0,3.9,0,5.9,0c0-1.2,0-2.4,0-3.7c0.7,0,1.4-0.1,2.1-0.1C89.3,64.7,89.3,67.8,89.3,71
		z"/>
	<path d="M49.4,70.9c-1.4,0.4-2.3,0.4-2.9-0.9c-0.3-0.5-1.1-0.9-1.8-1c-1.1-0.2-2.3-0.1-3.5,0c-0.5,0.1-1.3,0.4-1.5,0.9
		c-0.6,1.3-1.4,1.5-2.9,1.1c1.6-3,3.1-5.9,4.7-8.8c0.5-1,2.6-1,3.1,0C46.2,65,47.8,67.9,49.4,70.9z M45.2,67.4
		c-0.8-1.5-1.4-2.7-2.2-4.3c-0.8,1.6-1.3,2.9-2,4.3C42.5,67.4,43.7,67.4,45.2,67.4z"/>
	<path d="M75.7,64.3c-0.8-0.2-1.7-0.3-2.3-0.8c-1.7-1.1-4.2-1.1-5.4,0.3c-1.1,1.3-1,4.1,0.2,5.2c1.4,1.4,3.7,1.2,5.4-0.3
		c0.5-0.4,1.3-0.5,2-0.7c0.1,0.2,0.2,0.3,0.3,0.5c-0.2,0.4-0.3,0.8-0.6,1.1c-1.6,1.8-5,2.2-7.6,1.1c-2-0.9-3-2.6-2.8-4.9
		c0.1-0.5,0.2-1,0.4-1.5c1-2,2.7-2.7,4.8-2.8c2.2-0.1,4.4,0,5.8,2.1C75.8,63.8,75.8,64,75.7,64.3z"/>

</svg>
