<svg xmlns="http://www.w3.org/2000/svg" viewBox="0 0 100 100"><polygon points="70.81 28.14 70.81 71.86 28.33 71.86 70.81 28.14" fill="#ccc"/><polygon points="70.81 28.14 28.33 28.14 28.33 71.86 70.81 28.14" fill="#fff"/><path d="M71.66,72.71H27.48V27.29H71.66ZM29.18,71H70V29H29.18Z" fill="#7d7d7d"/><rect x="19.09" y="49.15" width="60.96" height="1.7" transform="translate(-20.83 50.69) rotate(-45.81)" fill="#7d7d7d"/><path d="M37.89,50A21.24,21.24,0,0,1,36,59.29,16.35,16.35,0,0,1,31,65.56,12.84,12.84,0,0,1,25.61,68a35.16,35.16,0,0,1-6.22.53h-10v-37H19.3a37.86,37.86,0,0,1,6.3.5,12.65,12.65,0,0,1,5.51,2.41,15.9,15.9,0,0,1,5,6.29A22.06,22.06,0,0,1,37.89,50ZM29.67,50a16.21,16.21,0,0,0-1.08-6.24,8.67,8.67,0,0,0-3.33-4.06,7,7,0,0,0-3.42-1.15c-1.19-.06-2.61-.1-4.27-.1h-.15V61.56h.15c1.8,0,3.32,0,4.55-.11a6.61,6.61,0,0,0,3.52-1.33,8.85,8.85,0,0,0,3-4A16.39,16.39,0,0,0,29.67,50Z"/><path d="M19.39,69.24H8.66V30.76H19.3a38.36,38.36,0,0,1,6.43.51,13.48,13.48,0,0,1,5.82,2.54,16.86,16.86,0,0,1,5.21,6.59A23.06,23.06,0,0,1,38.65,50a22.07,22.07,0,0,1-2,9.57,16.87,16.87,0,0,1-5.16,6.55,13.33,13.33,0,0,1-5.71,2.53A35,35,0,0,1,19.39,69.24Zm-9.23-1.5h9.23a34.71,34.71,0,0,0,6.09-.52A12.19,12.19,0,0,0,30.57,65a15.6,15.6,0,0,0,4.7-6A20.6,20.6,0,0,0,37.15,50a21.36,21.36,0,0,0-1.76-9,15.12,15.12,0,0,0-4.73-6,12,12,0,0,0-5.18-2.27,36.44,36.44,0,0,0-6.18-.49H10.16Zm7.41-5.43h-.9V37.66h.9c1.66,0,3.11,0,4.31.1A7.84,7.84,0,0,1,25.66,39a9.53,9.53,0,0,1,3.62,4.41A16.92,16.92,0,0,1,30.42,50a17.28,17.28,0,0,1-1.08,6.47,9.8,9.8,0,0,1-3.25,4.3,7.46,7.46,0,0,1-3.92,1.47C20.92,62.27,19.37,62.31,17.57,62.31Zm.6-23.14V60.81c1.52,0,2.83,0,3.91-.11a5.84,5.84,0,0,0,3.12-1.19A8.28,8.28,0,0,0,28,55.86a15.9,15.9,0,0,0,1-5.9,15.6,15.6,0,0,0-1-6,8.11,8.11,0,0,0-3-3.72,6.37,6.37,0,0,0-3.05-1C20.77,39.21,19.55,39.17,18.17,39.17Z" fill="#fff"/><path d="M59.54,68.49H42.69V62h4.49V38H42.69V31.51H59.54V38H55V62h4.5Z"/><path d="M60.29,69.24H41.94v-8h4.49V38.72H41.94v-8H60.29v8h-4.5V61.28h4.5Zm-16.85-1.5H58.79v-5h-4.5V37.22h4.5v-5H43.44v5h4.49V62.78H43.44Z" fill="#fff"/><path d="M79.85,69.21a14,14,0,0,1-11.31-5q-4.19-5-4.19-14.14,0-8.79,4.2-14a13.77,13.77,0,0,1,11.33-5.23,20.6,20.6,0,0,1,3.4.25,20.32,20.32,0,0,1,2.89.69,19.35,19.35,0,0,1,2.36,1c.85.43,1.54.81,2.06,1.12v8.82h-.81c-.38-.4-.86-.88-1.44-1.43a17.57,17.57,0,0,0-2-1.63,12.43,12.43,0,0,0-2.43-1.35,7.15,7.15,0,0,0-2.78-.56,7.05,7.05,0,0,0-5.89,2.83,11,11,0,0,0-1.94,3.82,18.94,18.94,0,0,0-.76,5.69,18.26,18.26,0,0,0,.79,5.8,10.73,10.73,0,0,0,2.06,3.79,7.36,7.36,0,0,0,2.75,2,8.09,8.09,0,0,0,3,.62,7.49,7.49,0,0,0,3-.61,10.8,10.8,0,0,0,2.4-1.35,16.09,16.09,0,0,0,1.88-1.57l1.4-1.41h.72V66c-.58.32-1.25.68-2,1.08a15.91,15.91,0,0,1-2.36,1,23.65,23.65,0,0,1-2.78.8A18.53,18.53,0,0,1,79.85,69.21Z"/><path d="M79.85,70A14.72,14.72,0,0,1,68,64.66c-2.9-3.48-4.37-8.4-4.37-14.62,0-6,1.47-10.89,4.37-14.49A14.53,14.53,0,0,1,79.88,30a22.07,22.07,0,0,1,3.52.26,20.84,20.84,0,0,1,3,.72,20.36,20.36,0,0,1,2.47,1.06c.86.44,1.57.82,2.11,1.15l.36.22v10H89.46l-.22-.23c-.37-.39-.85-.86-1.42-1.41a18.21,18.21,0,0,0-1.9-1.56A12.27,12.27,0,0,0,83.64,39,7,7,0,0,0,78.3,39a6.8,6.8,0,0,0-2.46,2A10.36,10.36,0,0,0,74,44.6a18.39,18.39,0,0,0-.72,5.46,17.67,17.67,0,0,0,.75,5.56A10.16,10.16,0,0,0,76,59.15,6.74,6.74,0,0,0,78.45,61a7,7,0,0,0,5.45,0,10.39,10.39,0,0,0,2.24-1.26,15.87,15.87,0,0,0,1.8-1.5c.53-.52,1-1,1.39-1.4l.22-.23h1.79v9.89l-.39.21c-.58.32-1.26.68-2,1.08a17.18,17.18,0,0,1-2.46,1.08,23.35,23.35,0,0,1-2.88.82A18.29,18.29,0,0,1,79.85,70Zm0-38.42a12.94,12.94,0,0,0-10.74,5c-2.68,3.33-4,7.89-4,13.55,0,5.86,1.36,10.46,4,13.66a13.14,13.14,0,0,0,10.73,4.76,17.62,17.62,0,0,0,3.42-.26A20.87,20.87,0,0,0,86,67.43a15,15,0,0,0,2.26-1l1.62-.87V58.44c-.26.27-.54.55-.85.85a17.67,17.67,0,0,1-2,1.64,12,12,0,0,1-2.54,1.43,8.47,8.47,0,0,1-6.61,0,8,8,0,0,1-3-2.2,11.74,11.74,0,0,1-2.21-4,19.23,19.23,0,0,1-.83-6,20,20,0,0,1,.79-5.91,11.65,11.65,0,0,1,2.09-4.08,8.22,8.22,0,0,1,3-2.4,8.44,8.44,0,0,1,6.53-.08A13.14,13.14,0,0,1,86.8,39a20.05,20.05,0,0,1,2.06,1.7l1,1V34.3c-.45-.26-1-.55-1.65-.88a20.12,20.12,0,0,0-2.26-1,20,20,0,0,0-2.77-.66A20.34,20.34,0,0,0,79.88,31.54Z" fill="#fff"/></svg>