<?xml version="1.0" encoding="utf-8"?>
<!-- Generator: Adobe Illustrator 25.2.0, SVG Export Plug-In . SVG Version: 6.00 Build 0)  -->
<svg version="1.1" id="Layer_1" xmlns="http://www.w3.org/2000/svg" xmlns:xlink="http://www.w3.org/1999/xlink" x="0px" y="0px"
	 viewBox="0 0 100 100" style="enable-background:new 0 0 100 100;" xml:space="preserve">
<g>
	<polygon points="84.6,47.3 84.6,41.2 60.4,41.2 60.4,47.3 67.5,47.3 67.5,70.1 60.4,70.1 60.4,76.1 84.6,76.1 84.6,70.1 77.6,70.1 
		77.6,47.3 	"/>
	<polygon points="55.4,41.7 39.1,75.9 26.4,75.9 10.3,41.7 21.8,41.7 32.9,67 44,41.7 	"/>
	<g>
		<path d="M10.2,39.6V30h5.2c1.1,0,1.9,0.1,2.6,0.3c0.6,0.2,1.2,0.5,1.5,0.9c0.4,0.4,0.5,0.8,0.5,1.3c0,0.4-0.2,0.8-0.5,1.2
			s-0.8,0.7-1.5,0.9c0.8,0.2,1.5,0.5,2,0.9s0.7,0.9,0.7,1.4c0,0.4-0.1,0.9-0.4,1.2c-0.3,0.4-0.6,0.7-1,0.9c-0.4,0.2-0.9,0.4-1.5,0.5
			c-0.6,0.1-1.4,0.2-2.3,0.2H10.2z M12.1,34.1h3c0.8,0,1.4,0,1.8-0.1c0.5-0.1,0.8-0.3,1.1-0.5c0.2-0.2,0.4-0.5,0.4-0.8
			c0-0.3-0.1-0.6-0.3-0.8c-0.2-0.2-0.5-0.4-1-0.5c-0.4-0.1-1.1-0.1-2.1-0.1h-2.8V34.1z M12.1,38.5h3.5c0.6,0,1,0,1.3,0
			c0.4-0.1,0.8-0.1,1.1-0.3c0.3-0.1,0.5-0.3,0.7-0.5c0.2-0.2,0.3-0.5,0.3-0.8c0-0.4-0.1-0.7-0.4-0.9c-0.3-0.3-0.6-0.4-1.1-0.6
			c-0.5-0.1-1.2-0.2-2-0.2h-3.2V38.5z"/>
		<path d="M23.4,39.6V30h6.2c1.2,0,2.2,0.1,2.8,0.3c0.6,0.2,1.2,0.5,1.6,0.9c0.4,0.4,0.6,0.9,0.6,1.4c0,0.7-0.3,1.3-1,1.7
			c-0.6,0.5-1.6,0.8-3,0.9c0.5,0.2,0.9,0.3,1.1,0.5c0.5,0.3,1.1,0.8,1.5,1.3l2.4,2.6h-2.3l-1.9-2c-0.5-0.6-1-1-1.3-1.3
			c-0.3-0.3-0.7-0.5-0.9-0.6s-0.6-0.2-0.8-0.3c-0.2,0-0.6,0-1,0h-2.1v4.2H23.4z M25.2,34.3h4c0.8,0,1.5-0.1,2-0.2
			c0.5-0.1,0.8-0.3,1.1-0.6s0.4-0.5,0.4-0.9c0-0.5-0.2-0.8-0.7-1.1c-0.5-0.3-1.2-0.4-2.3-0.4h-4.4V34.3z"/>
		<path d="M35.9,39.6l5.4-9.6h2l5.7,9.6h-2.1l-1.6-2.9h-5.8l-1.5,2.9H35.9z M40,35.7h4.7L43.2,33c-0.4-0.8-0.8-1.5-1-2
			c-0.2,0.6-0.4,1.2-0.8,1.8L40,35.7z"/>
		<path d="M50.5,39.6V30h1.9l7.3,7.5V30h1.8v9.6h-1.9l-7.3-7.5v7.5H50.5z"/>
		<path d="M74.6,36.2l1.9,0.3c-0.4,1-1.1,1.8-2.1,2.4c-1,0.5-2.2,0.8-3.7,0.8c-1.5,0-2.7-0.2-3.7-0.6c-0.9-0.4-1.7-1-2.2-1.8
			s-0.7-1.7-0.7-2.6c0-1,0.3-1.9,0.8-2.6c0.6-0.7,1.3-1.3,2.4-1.7s2.2-0.6,3.4-0.6c1.4,0,2.6,0.2,3.5,0.7s1.6,1.2,2,2.1L74.4,33
			c-0.3-0.7-0.8-1.2-1.4-1.5S71.6,31,70.6,31c-1.1,0-2,0.2-2.7,0.5c-0.7,0.4-1.2,0.8-1.5,1.4c-0.3,0.6-0.4,1.2-0.4,1.8
			c0,0.8,0.2,1.5,0.5,2.1c0.3,0.6,0.9,1.1,1.6,1.4c0.7,0.3,1.5,0.4,2.4,0.4c1,0,1.9-0.2,2.6-0.6S74.3,37.1,74.6,36.2z"/>
		<path d="M78.8,39.6V30h1.9V34h7.3V30h1.9v9.6h-1.9v-4.5h-7.3v4.5H78.8z"/>
	</g>
</g>
</svg>
