<?xml version="1.0" encoding="utf-8"?>
<!-- Generator: Adobe Illustrator 25.2.0, SVG Export Plug-In . SVG Version: 6.00 Build 0)  -->
<svg version="1.1" id="Layer_1" xmlns="http://www.w3.org/2000/svg" xmlns:xlink="http://www.w3.org/1999/xlink" x="0px" y="0px"
	 viewBox="0 0 100 100" style="enable-background:new 0 0 100 100;" xml:space="preserve">
<g>
	<polygon points="29.1,44.6 29.1,38.5 11.4,38.5 11.4,44.6 16.6,44.6 16.6,67.5 11.4,67.5 11.4,73.6 29.1,73.6 29.1,67.5 24,67.5 
		24,44.6 	"/>
	<polygon points="52.3,44.6 52.3,38.5 34.6,38.5 34.6,44.6 39.7,44.6 39.7,67.5 34.6,67.5 34.6,73.6 52.3,73.6 52.3,67.5 47.1,67.5 
		47.1,44.6 	"/>
	<polygon points="88.5,73.2 76.4,55.2 87.5,38.5 79.5,38.5 72.3,49.2 65.1,38.5 56.2,38.5 67.8,56 56.2,73.2 64.4,73.2 71.8,62.1 
		79.3,73.2 	"/>
	<g>
		<path d="M10,36.1v-9.6h5.3c1.1,0,1.9,0.1,2.6,0.3c0.6,0.2,1.2,0.5,1.5,0.9c0.4,0.4,0.6,0.8,0.6,1.3c0,0.4-0.2,0.8-0.5,1.2
			S18.7,30.8,18,31c0.8,0.2,1.5,0.5,2,0.9s0.7,0.9,0.7,1.4c0,0.4-0.1,0.9-0.4,1.2c-0.3,0.4-0.6,0.7-1,0.9c-0.4,0.2-0.9,0.4-1.5,0.5
			s-1.4,0.2-2.3,0.2H10z M11.9,30.6h3c0.8,0,1.4,0,1.8-0.1c0.5-0.1,0.8-0.3,1.1-0.5c0.2-0.2,0.4-0.5,0.4-0.8c0-0.3-0.1-0.6-0.3-0.8
			s-0.5-0.4-1-0.5c-0.4-0.1-1.1-0.1-2.1-0.1h-2.8V30.6z M11.9,35h3.5c0.6,0,1,0,1.3,0c0.4-0.1,0.8-0.1,1.1-0.3
			c0.3-0.1,0.5-0.3,0.7-0.5c0.2-0.2,0.3-0.5,0.3-0.8c0-0.4-0.1-0.7-0.4-0.9s-0.6-0.4-1.1-0.6c-0.5-0.1-1.2-0.2-2.1-0.2h-3.3V35z"/>
		<path d="M23.2,36.1v-9.6h6.2c1.3,0,2.2,0.1,2.9,0.3c0.7,0.2,1.2,0.5,1.6,0.9c0.4,0.4,0.6,0.9,0.6,1.4c0,0.7-0.3,1.3-1,1.7
			c-0.6,0.5-1.6,0.8-3,0.9c0.5,0.2,0.9,0.3,1.1,0.5c0.5,0.3,1.1,0.8,1.5,1.3l2.4,2.6h-2.3l-1.9-2c-0.5-0.6-1-1-1.3-1.3
			s-0.7-0.5-0.9-0.6s-0.6-0.2-0.8-0.3c-0.2,0-0.6,0-1,0h-2.2v4.2H23.2z M25.1,30.8h4c0.9,0,1.5-0.1,2-0.2s0.8-0.3,1.1-0.6
			c0.2-0.3,0.4-0.5,0.4-0.9c0-0.5-0.2-0.8-0.7-1.1c-0.5-0.3-1.2-0.4-2.3-0.4h-4.5V30.8z"/>
		<path d="M35.9,36.1l5.4-9.6h2l5.8,9.6h-2.1l-1.6-2.9h-5.9l-1.5,2.9H35.9z M39.9,32.2h4.8l-1.5-2.6c-0.4-0.8-0.8-1.5-1-2
			c-0.2,0.6-0.4,1.2-0.8,1.8L39.9,32.2z"/>
		<path d="M50.5,36.1v-9.6h1.9l7.4,7.5v-7.5h1.8v9.6h-1.9l-7.4-7.5v7.5H50.5z"/>
		<path d="M74.7,32.8l1.9,0.3c-0.4,1-1.1,1.8-2.1,2.4c-1,0.5-2.3,0.8-3.7,0.8c-1.5,0-2.7-0.2-3.7-0.6c-0.9-0.4-1.7-1-2.2-1.8
			c-0.5-0.8-0.7-1.7-0.7-2.6c0-1,0.3-1.9,0.8-2.6c0.6-0.7,1.4-1.3,2.4-1.7c1-0.4,2.2-0.6,3.4-0.6c1.4,0,2.6,0.2,3.5,0.7
			s1.6,1.2,2,2.1l-1.8,0.3c-0.3-0.7-0.8-1.2-1.4-1.5s-1.4-0.5-2.3-0.5c-1.1,0-2,0.2-2.7,0.5c-0.7,0.4-1.2,0.8-1.5,1.4
			s-0.4,1.2-0.4,1.8c0,0.8,0.2,1.5,0.5,2.1c0.3,0.6,0.9,1.1,1.6,1.4c0.7,0.3,1.5,0.4,2.4,0.4c1,0,1.9-0.2,2.6-0.6
			S74.5,33.6,74.7,32.8z"/>
		<path d="M78.9,36.1v-9.6h1.9v3.9h7.3v-3.9H90v9.6h-1.9v-4.5h-7.3v4.5H78.9z"/>
	</g>
</g>
</svg>
