<?xml version="1.0" encoding="iso-8859-1"?>
<!-- Generator: Adobe Illustrator 25.4.1, SVG Export Plug-In . SVG Version: 6.00 Build 0)  -->
<svg version="1.1" id="Layer_1" xmlns="http://www.w3.org/2000/svg" xmlns:xlink="http://www.w3.org/1999/xlink" x="0px" y="0px"
	 viewBox="0 0 100 100" style="enable-background:new 0 0 100 100;" xml:space="preserve">
<path d="M20.4,31.4c0,0.275-0.019,0.538-0.055,0.791c-0.036,0.253-0.089,0.497-0.157,0.734c-0.069,0.237-0.153,0.469-0.252,0.697
	c-0.099,0.228-0.211,0.453-0.336,0.678s-0.262,0.431-0.413,0.622c-0.15,0.191-0.312,0.366-0.487,0.528s-0.362,0.312-0.562,0.453
	S17.725,36.175,17.5,36.3c-0.175,0.1-0.35,0.188-0.527,0.264c-0.177,0.077-0.354,0.142-0.535,0.199s-0.365,0.103-0.555,0.142
	C15.694,36.944,15.5,36.975,15.3,37s-0.406,0.05-0.62,0.073c-0.214,0.024-0.436,0.046-0.668,0.065
	c-0.231,0.019-0.471,0.034-0.723,0.045C13.038,37.194,12.775,37.2,12.5,37.2h-0.825H10.85h-0.825H9.2v-2.9v-2.9v-2.9v-2.9H10h0.8
	h0.8h0.8c0.325,0,0.637,0.006,0.934,0.017c0.297,0.011,0.578,0.026,0.841,0.045c0.262,0.019,0.506,0.041,0.728,0.064
	c0.222,0.023,0.422,0.048,0.597,0.073c0.2,0.05,0.387,0.1,0.564,0.152c0.177,0.052,0.342,0.104,0.498,0.16
	c0.156,0.056,0.303,0.116,0.442,0.18s0.27,0.133,0.395,0.208c0.225,0.125,0.438,0.256,0.638,0.397
	c0.2,0.141,0.387,0.291,0.562,0.453s0.337,0.337,0.487,0.528c0.15,0.191,0.288,0.397,0.413,0.622s0.244,0.45,0.352,0.678
	c0.108,0.228,0.205,0.459,0.286,0.697c0.081,0.237,0.147,0.481,0.193,0.734C20.375,30.862,20.4,31.125,20.4,31.4z M18.4,31.4
	c0-0.225-0.012-0.438-0.036-0.641s-0.058-0.397-0.102-0.584s-0.097-0.369-0.158-0.547c-0.061-0.178-0.129-0.353-0.204-0.528
	c-0.1-0.15-0.206-0.294-0.32-0.431s-0.236-0.269-0.368-0.394c-0.131-0.125-0.271-0.244-0.423-0.356
	C16.638,27.806,16.475,27.7,16.3,27.6c-0.125-0.05-0.25-0.1-0.377-0.149s-0.255-0.096-0.385-0.139s-0.266-0.084-0.405-0.12
	c-0.139-0.036-0.283-0.067-0.433-0.092s-0.306-0.05-0.469-0.073c-0.163-0.024-0.331-0.046-0.506-0.065s-0.356-0.035-0.544-0.045
	S12.8,26.9,12.6,26.9h-0.35H11.9h-0.35H11.2v2.225v2.225v2.225V35.8h0.35h0.35h0.35h0.35c0.2,0,0.4-0.006,0.597-0.017
	c0.197-0.011,0.391-0.026,0.578-0.045c0.187-0.019,0.369-0.041,0.541-0.064S14.65,35.625,14.8,35.6s0.3-0.056,0.448-0.094
	c0.148-0.037,0.295-0.081,0.439-0.131c0.144-0.05,0.285-0.106,0.42-0.169s0.267-0.131,0.392-0.206c0.175-0.1,0.331-0.2,0.473-0.303
	c0.142-0.103,0.271-0.209,0.39-0.322c0.119-0.112,0.228-0.231,0.333-0.359C17.8,33.888,17.9,33.75,18,33.6
	c0.05-0.15,0.1-0.306,0.147-0.47c0.047-0.164,0.091-0.336,0.128-0.517c0.038-0.181,0.069-0.372,0.091-0.574
	C18.388,31.837,18.4,31.625,18.4,31.4z"/>
<path d="M27.4,37.2h-1.375H24.65h-1.375H21.9v-0.3v-0.3v-0.3V36h0.45h0.45h0.45h0.45v-2.3v-2.3v-2.3v-2.3h-0.45H22.8h-0.45H21.9
	v-0.3v-0.3v-0.3v-0.3h1.375h1.375h1.375H27.4v0.3v0.3v0.3v0.3h-0.45H26.5h-0.45H25.6v2.3v2.3v2.3V36h0.45h0.45h0.45h0.45v0.3v0.3
	v0.3V37.2z"/>
<path d="M40,25.6l-1.225,2.9l-1.225,2.9l-1.225,2.9L35.1,37.2h-0.5h-0.5h-0.5h-0.5l-1.225-2.9l-1.225-2.9l-1.225-2.9L28.2,25.6h0.5
	h0.5h0.5h0.5l0.975,2.4l0.975,2.4l0.975,2.4l0.975,2.4l0.975-2.4l0.975-2.4l0.975-2.4L38,25.6h0.5H39h0.5H40z"/>
<path d="M46.3,37.2h-1.375H43.55h-1.375H40.8v-0.3v-0.3v-0.3V36h0.45h0.45h0.45h0.45v-2.3v-2.3v-2.3v-2.3h-0.45H41.7h-0.45H40.8
	v-0.3v-0.3v-0.3v-0.3h1.375h1.375h1.375H46.3v0.3v0.3v0.3v0.3h-0.45H45.4h-0.45H44.5v2.3v2.3v2.3V36h0.45h0.45h0.45h0.45v0.3v0.3
	v0.3V37.2z"/>
<path d="M52.6,37.4c-0.25,0-0.494-0.006-0.73-0.019s-0.464-0.031-0.682-0.056s-0.428-0.056-0.627-0.094
	C50.363,37.194,50.175,37.15,50,37.1s-0.35-0.1-0.523-0.15s-0.346-0.1-0.514-0.15c-0.168-0.05-0.334-0.1-0.495-0.15
	C48.306,36.6,48.15,36.55,48,36.5v-0.475V35.55v-0.475V34.6h0.025h0.025h0.025H48.1c0.15,0.125,0.306,0.237,0.469,0.341
	c0.162,0.103,0.331,0.197,0.506,0.284s0.356,0.169,0.544,0.247S50,35.625,50.2,35.7s0.394,0.138,0.584,0.189
	c0.191,0.052,0.378,0.092,0.566,0.123s0.375,0.053,0.566,0.067S52.3,36.1,52.5,36.1c0.25,0,0.487-0.013,0.713-0.036
	c0.225-0.024,0.438-0.058,0.637-0.102c0.2-0.044,0.388-0.097,0.562-0.158S54.75,35.674,54.9,35.6c0.125-0.1,0.237-0.2,0.336-0.303
	c0.098-0.103,0.183-0.209,0.251-0.322c0.069-0.112,0.122-0.231,0.158-0.359C55.681,34.487,55.7,34.35,55.7,34.2
	c0-0.125-0.006-0.237-0.02-0.341c-0.014-0.103-0.036-0.197-0.068-0.284s-0.072-0.169-0.123-0.247S55.375,33.175,55.3,33.1
	s-0.156-0.144-0.245-0.206s-0.186-0.119-0.292-0.169c-0.106-0.05-0.222-0.094-0.349-0.131S54.15,32.525,54,32.5
	c-0.1-0.025-0.2-0.05-0.3-0.075c-0.1-0.025-0.2-0.05-0.3-0.075s-0.2-0.05-0.3-0.075c-0.1-0.025-0.2-0.05-0.3-0.075
	s-0.2-0.05-0.303-0.075s-0.209-0.05-0.322-0.075c-0.113-0.025-0.231-0.05-0.359-0.075c-0.128-0.025-0.266-0.05-0.416-0.075
	c-0.125-0.025-0.244-0.05-0.358-0.077c-0.114-0.027-0.224-0.055-0.33-0.086s-0.209-0.066-0.311-0.105
	C50.3,31.594,50.2,31.55,50.1,31.5s-0.194-0.1-0.283-0.15c-0.089-0.05-0.174-0.1-0.255-0.15c-0.081-0.05-0.159-0.1-0.236-0.15
	C49.25,31,49.175,30.95,49.1,30.9c-0.075-0.075-0.144-0.15-0.208-0.225c-0.064-0.075-0.124-0.15-0.18-0.225
	c-0.056-0.075-0.109-0.15-0.16-0.225C48.5,30.15,48.45,30.075,48.4,30s-0.088-0.156-0.116-0.244
	c-0.028-0.087-0.047-0.181-0.059-0.281s-0.019-0.206-0.022-0.319C48.2,29.044,48.2,28.925,48.2,28.8
	c0-0.225,0.025-0.444,0.076-0.656c0.051-0.212,0.129-0.419,0.236-0.619c0.106-0.2,0.241-0.394,0.405-0.581
	c0.164-0.188,0.357-0.369,0.582-0.544c0.225-0.15,0.463-0.288,0.714-0.409c0.252-0.122,0.517-0.228,0.799-0.316
	c0.282-0.087,0.578-0.156,0.893-0.203S52.55,25.4,52.9,25.4c0.2,0,0.394,0.006,0.584,0.017c0.191,0.011,0.378,0.026,0.566,0.045
	s0.375,0.041,0.566,0.064S55,25.575,55.2,25.6c0.175,0.025,0.35,0.056,0.523,0.094s0.346,0.081,0.514,0.131
	c0.169,0.05,0.334,0.106,0.495,0.169c0.161,0.062,0.317,0.131,0.467,0.206v0.45v0.45v0.45V28h-0.025H57.15h-0.025H57.1
	c-0.125-0.075-0.25-0.15-0.378-0.225c-0.128-0.075-0.259-0.15-0.397-0.225s-0.281-0.15-0.434-0.225
	c-0.153-0.075-0.316-0.15-0.491-0.225s-0.35-0.138-0.527-0.189c-0.176-0.052-0.354-0.092-0.535-0.123
	c-0.181-0.031-0.366-0.053-0.555-0.068C53.594,26.706,53.4,26.7,53.2,26.7c-0.225,0-0.438,0.013-0.638,0.036
	c-0.2,0.024-0.387,0.058-0.562,0.102c-0.175,0.043-0.338,0.097-0.487,0.157c-0.15,0.061-0.288,0.13-0.413,0.205
	c-0.2,0.1-0.369,0.2-0.509,0.302s-0.253,0.205-0.341,0.31s-0.15,0.215-0.191,0.33C50.019,28.256,50,28.375,50,28.5
	s0.013,0.244,0.036,0.356c0.024,0.112,0.058,0.219,0.102,0.319c0.044,0.1,0.097,0.194,0.157,0.281s0.13,0.169,0.205,0.244
	c0.075,0.075,0.162,0.144,0.261,0.206c0.098,0.062,0.208,0.119,0.327,0.169c0.118,0.05,0.247,0.094,0.382,0.131
	c0.136,0.037,0.28,0.069,0.43,0.094c0.1,0.025,0.206,0.05,0.319,0.075c0.113,0.025,0.231,0.05,0.356,0.075s0.256,0.05,0.394,0.075
	c0.138,0.025,0.281,0.05,0.431,0.075s0.294,0.05,0.43,0.075c0.136,0.025,0.264,0.05,0.382,0.075s0.228,0.05,0.327,0.075
	c0.099,0.025,0.186,0.05,0.261,0.075c0.25,0.05,0.481,0.112,0.694,0.186c0.213,0.073,0.406,0.158,0.581,0.252
	c0.175,0.094,0.331,0.197,0.469,0.307C56.681,31.756,56.8,31.875,56.9,32s0.194,0.256,0.278,0.394
	c0.084,0.138,0.159,0.281,0.222,0.431s0.112,0.306,0.147,0.469c0.034,0.162,0.053,0.331,0.053,0.506
	c0,0.125-0.006,0.244-0.019,0.358c-0.013,0.114-0.031,0.224-0.056,0.33c-0.025,0.106-0.056,0.209-0.094,0.311
	C57.394,34.9,57.35,35,57.3,35.1s-0.106,0.2-0.169,0.299c-0.062,0.099-0.131,0.196-0.206,0.29s-0.156,0.184-0.244,0.27
	C56.594,36.044,56.5,36.125,56.4,36.2c-0.125,0.075-0.25,0.15-0.377,0.223c-0.127,0.074-0.255,0.146-0.386,0.215
	c-0.131,0.069-0.265,0.134-0.404,0.195S54.95,36.95,54.8,37c-0.15,0.075-0.306,0.138-0.47,0.189
	c-0.164,0.052-0.336,0.092-0.518,0.124c-0.181,0.031-0.372,0.053-0.573,0.067C53.037,37.394,52.825,37.4,52.6,37.4z"/>
<path d="M64.5,37.2h-1.375H61.75h-1.375H59v-0.3v-0.3v-0.3V36h0.45h0.45h0.45h0.45v-2.3v-2.3v-2.3v-2.3h-0.45H59.9h-0.45H59v-0.3
	v-0.3v-0.3v-0.3h1.375h1.375h1.375H64.5v0.3v0.3v0.3v0.3h-0.45H63.6h-0.45H62.7v2.3v2.3v2.3V36h0.45h0.45h0.45h0.45v0.3v0.3v0.3
	V37.2z"/>
<path d="M76.9,26.9c0.125,0.125,0.25,0.256,0.372,0.395c0.122,0.139,0.241,0.286,0.353,0.442c0.113,0.156,0.219,0.322,0.316,0.499
	c0.097,0.177,0.184,0.364,0.259,0.564s0.137,0.4,0.189,0.603s0.092,0.409,0.123,0.622c0.032,0.212,0.054,0.431,0.068,0.659
	c0.014,0.228,0.02,0.466,0.02,0.716c0,0.225-0.006,0.45-0.02,0.672c-0.014,0.222-0.036,0.441-0.068,0.653
	c-0.031,0.213-0.072,0.419-0.123,0.616c-0.052,0.197-0.114,0.384-0.189,0.559c-0.075,0.2-0.156,0.388-0.245,0.564
	c-0.089,0.177-0.186,0.342-0.292,0.498c-0.106,0.156-0.222,0.304-0.349,0.443c-0.127,0.139-0.264,0.27-0.414,0.395
	s-0.306,0.244-0.467,0.356c-0.161,0.112-0.327,0.219-0.496,0.319s-0.341,0.194-0.514,0.281S75.075,36.925,74.9,37
	s-0.362,0.138-0.561,0.189c-0.199,0.052-0.408,0.092-0.627,0.123s-0.447,0.053-0.683,0.067C72.794,37.394,72.55,37.4,72.3,37.4
	s-0.488-0.006-0.716-0.02c-0.228-0.014-0.447-0.036-0.659-0.067s-0.419-0.072-0.622-0.124S69.9,37.075,69.7,37
	s-0.387-0.156-0.566-0.244c-0.178-0.088-0.347-0.181-0.509-0.281s-0.319-0.206-0.472-0.319C68,36.044,67.85,35.925,67.7,35.8
	c-0.125-0.125-0.25-0.256-0.372-0.395c-0.122-0.139-0.241-0.286-0.353-0.443c-0.112-0.156-0.219-0.321-0.316-0.498
	C66.562,34.287,66.475,34.1,66.4,33.9c-0.075-0.175-0.138-0.362-0.189-0.559c-0.051-0.197-0.092-0.403-0.123-0.616
	s-0.053-0.431-0.067-0.653C66.007,31.85,66,31.625,66,31.4c0-0.25,0.006-0.488,0.02-0.716c0.014-0.228,0.036-0.447,0.068-0.659
	s0.072-0.419,0.123-0.622S66.325,29,66.4,28.8c0.075-0.175,0.156-0.35,0.245-0.522c0.089-0.172,0.186-0.341,0.292-0.503
	c0.106-0.163,0.222-0.319,0.349-0.466c0.127-0.147,0.264-0.284,0.414-0.409c0.125-0.125,0.262-0.244,0.411-0.356
	c0.148-0.112,0.308-0.219,0.476-0.319c0.169-0.1,0.347-0.194,0.533-0.281s0.38-0.169,0.58-0.244s0.4-0.138,0.603-0.189
	c0.203-0.052,0.409-0.092,0.622-0.123c0.213-0.031,0.431-0.054,0.659-0.068c0.228-0.014,0.466-0.02,0.716-0.02
	s0.488,0.006,0.716,0.02c0.228,0.014,0.447,0.036,0.659,0.067s0.419,0.072,0.622,0.124S74.7,25.625,74.9,25.7
	s0.394,0.156,0.58,0.244c0.186,0.087,0.364,0.181,0.532,0.281c0.169,0.1,0.328,0.206,0.477,0.319
	C76.637,26.656,76.775,26.775,76.9,26.9z M76.6,31.4c0-0.2-0.006-0.387-0.019-0.566c-0.012-0.178-0.031-0.347-0.056-0.509
	s-0.056-0.319-0.094-0.472C76.394,29.7,76.35,29.55,76.3,29.4s-0.106-0.294-0.169-0.431C76.069,28.831,76,28.7,75.925,28.575
	s-0.156-0.244-0.244-0.356S75.5,28,75.4,27.9s-0.2-0.194-0.303-0.281s-0.209-0.169-0.322-0.244s-0.231-0.144-0.359-0.206
	C74.288,27.106,74.15,27.05,74,27s-0.294-0.094-0.436-0.131s-0.283-0.069-0.426-0.094c-0.144-0.025-0.291-0.044-0.446-0.056
	C72.537,26.706,72.375,26.7,72.2,26.7s-0.344,0.006-0.506,0.019c-0.162,0.013-0.319,0.031-0.469,0.056
	c-0.15,0.025-0.294,0.056-0.431,0.094C70.656,26.906,70.525,26.95,70.4,27s-0.25,0.106-0.373,0.169
	c-0.124,0.062-0.245,0.131-0.365,0.206c-0.118,0.075-0.234,0.156-0.345,0.244C69.206,27.706,69.1,27.8,69,27.9
	s-0.194,0.206-0.281,0.319c-0.088,0.113-0.169,0.231-0.244,0.356s-0.144,0.256-0.206,0.394S68.15,29.25,68.1,29.4
	s-0.094,0.306-0.131,0.467c-0.038,0.161-0.069,0.326-0.094,0.495s-0.044,0.34-0.056,0.514C67.806,31.05,67.8,31.225,67.8,31.4
	c0,0.375,0.025,0.731,0.075,1.067c0.05,0.336,0.125,0.651,0.225,0.945c0.1,0.294,0.225,0.566,0.375,0.815
	C68.625,34.475,68.8,34.7,69,34.9s0.412,0.375,0.639,0.525c0.227,0.15,0.467,0.275,0.724,0.375c0.256,0.1,0.528,0.175,0.817,0.225
	c0.289,0.05,0.595,0.075,0.92,0.075s0.637-0.025,0.934-0.075c0.297-0.05,0.579-0.125,0.841-0.225s0.506-0.225,0.728-0.375
	c0.222-0.15,0.422-0.325,0.597-0.525s0.35-0.425,0.514-0.673s0.317-0.52,0.449-0.814c0.131-0.294,0.24-0.61,0.317-0.946
	C76.556,32.131,76.6,31.775,76.6,31.4z"/>
<path d="M90.8,37.2h-0.525H89.75h-0.525H88.7l-1.575-2.5l-1.575-2.5l-1.575-2.5L82.4,27.2v2.5v2.5v2.5v2.5h-0.45H81.5h-0.45H80.6
	v-2.9v-2.9v-2.9v-2.9h0.675h0.675h0.675H83.3l1.425,2.275l1.425,2.275l1.425,2.275L89,34.7v-2.275V30.15v-2.275V25.6h0.45h0.45h0.45
	h0.45c0,0,0,0.725,0,1.812s0,2.538,0,3.988c0,1.45,0,2.9,0,3.987C90.8,36.475,90.8,37.2,90.8,37.2z"/>
<path d="M75,62c0,0.45-0.031,0.894-0.095,1.331c-0.064,0.438-0.161,0.869-0.292,1.294c-0.132,0.425-0.297,0.844-0.499,1.256
	C73.912,66.294,73.675,66.7,73.4,67.1s-0.575,0.781-0.905,1.145c-0.33,0.364-0.689,0.711-1.082,1.043
	c-0.394,0.331-0.822,0.646-1.29,0.948c-0.467,0.301-0.974,0.589-1.523,0.864c-0.525,0.275-1.075,0.537-1.65,0.786
	c-0.575,0.248-1.175,0.483-1.8,0.701s-1.275,0.422-1.95,0.608s-1.375,0.355-2.1,0.505s-1.487,0.281-2.289,0.394
	c-0.801,0.112-1.642,0.206-2.523,0.281c-0.881,0.075-1.803,0.131-2.768,0.169c-0.964,0.038-1.97,0.056-3.02,0.056
	c-1.125,0-2.206-0.013-3.245-0.039c-1.039-0.026-2.036-0.067-2.992-0.123c-0.957-0.056-1.872-0.129-2.749-0.218
	C40.637,74.131,39.8,74.025,39,73.9c-0.8-0.1-1.569-0.206-2.303-0.319s-1.434-0.231-2.097-0.356s-1.287-0.256-1.872-0.394
	C32.144,72.694,31.6,72.55,31.1,72.4v-1.925V68.55v-1.925V64.7h0.35h0.35h0.35h0.35c0.2,0.075,0.4,0.144,0.602,0.209
	c0.201,0.066,0.404,0.128,0.611,0.191c0.207,0.062,0.416,0.125,0.63,0.191c0.214,0.066,0.433,0.134,0.658,0.209
	s0.475,0.15,0.747,0.227c0.272,0.077,0.566,0.155,0.878,0.236s0.644,0.166,0.991,0.255c0.347,0.089,0.709,0.182,1.084,0.282
	c0.35,0.075,0.706,0.15,1.066,0.224s0.722,0.146,1.084,0.215c0.362,0.068,0.725,0.134,1.084,0.195S42.65,67.25,43,67.3
	c0.375,0.05,0.756,0.094,1.145,0.131s0.786,0.069,1.193,0.094s0.822,0.044,1.248,0.056C47.013,67.594,47.45,67.6,47.9,67.6
	c0.4,0,0.8-0.006,1.203-0.019c0.403-0.012,0.809-0.031,1.222-0.056s0.831-0.056,1.259-0.094c0.428-0.037,0.866-0.081,1.316-0.131
	s0.875-0.113,1.277-0.188s0.779-0.162,1.135-0.262c0.357-0.1,0.691-0.212,1.005-0.337S56.925,66.25,57.2,66.1
	c0.2-0.125,0.388-0.25,0.564-0.377c0.177-0.126,0.342-0.254,0.498-0.385c0.157-0.132,0.303-0.266,0.443-0.405
	c0.139-0.139,0.27-0.283,0.395-0.433s0.231-0.312,0.32-0.486c0.089-0.173,0.161-0.358,0.218-0.551
	c0.056-0.194,0.097-0.397,0.123-0.608S59.8,62.425,59.8,62.2c0-0.2-0.019-0.394-0.056-0.581c-0.037-0.188-0.094-0.369-0.169-0.544
	s-0.169-0.344-0.281-0.506C59.181,60.406,59.05,60.25,58.9,60.1s-0.306-0.294-0.472-0.43c-0.166-0.136-0.341-0.264-0.528-0.382
	s-0.388-0.228-0.603-0.327c-0.216-0.099-0.447-0.186-0.697-0.261c-0.35-0.125-0.713-0.244-1.089-0.353s-0.767-0.209-1.174-0.297
	s-0.828-0.163-1.268-0.222c-0.439-0.059-0.895-0.103-1.37-0.128s-0.938-0.05-1.386-0.073c-0.449-0.024-0.883-0.046-1.302-0.065
	c-0.418-0.018-0.821-0.034-1.207-0.045S47.05,57.5,46.7,57.5c-0.55,0-1.094,0.006-1.633,0.019c-0.539,0.013-1.073,0.031-1.604,0.056
	s-1.059,0.056-1.586,0.094C41.35,57.706,40.825,57.75,40.3,57.8s-1.031,0.1-1.519,0.152c-0.488,0.051-0.956,0.104-1.406,0.16
	s-0.881,0.116-1.294,0.18c-0.413,0.064-0.806,0.133-1.181,0.208h-0.325H34.25h-0.325H33.6v-4.925V48.65v-4.925V38.8h9.925h9.925
	h9.925H73.3v1.65v1.65v1.65v1.65h-6.35H60.6h-6.35H47.9v1.475v1.475v1.475V51.3c0.2,0,0.412-0.006,0.636-0.016
	c0.223-0.009,0.458-0.022,0.702-0.034c0.243-0.013,0.497-0.025,0.757-0.034c0.261-0.009,0.53-0.016,0.805-0.016s0.537,0,0.786,0
	s0.483,0,0.701,0s0.422,0,0.607,0s0.355,0,0.505,0c0.725,0,1.431,0.013,2.122,0.036s1.366,0.058,2.028,0.102
	s1.312,0.097,1.953,0.158s1.272,0.129,1.897,0.204c0.6,0.075,1.188,0.169,1.761,0.278c0.573,0.109,1.133,0.234,1.677,0.372
	c0.544,0.138,1.072,0.288,1.583,0.447s1.004,0.328,1.479,0.503c0.575,0.225,1.113,0.463,1.616,0.716
	c0.503,0.253,0.972,0.522,1.409,0.809s0.844,0.594,1.222,0.922c0.378,0.328,0.729,0.678,1.054,1.053
	c0.3,0.325,0.562,0.681,0.787,1.066c0.225,0.384,0.412,0.797,0.562,1.234s0.263,0.9,0.338,1.384C74.963,60.969,75,61.475,75,62z"/>
</svg>
