<?xml version="1.0" encoding="utf-8"?>
<!-- Generator: Adobe Illustrator 25.3.1, SVG Export Plug-In . SVG Version: 6.00 Build 0)  -->
<svg version="1.1" id="Layer_1" xmlns="http://www.w3.org/2000/svg" xmlns:xlink="http://www.w3.org/1999/xlink" x="0px" y="0px"
	 viewBox="0 0 100 100" style="enable-background:new 0 0 100 100;" xml:space="preserve">
<path d="M11,32.7c1.7,0,3.2,0,4.9,0c0,4.6,0,9.1,0,13.9c3.8,0,7.3,0.1,10.9-0.1c0.4,0,1.2-1.2,1.2-1.8C28,40.8,28,36.9,28,32.8
	c1.8,0,3.3,0,5,0c0,11.4,0,22.9,0,34.4c-1.7,0-3.2,0-5,0c0-5.1,0-10.1,0-15.2c-4.1,0-8,0-12.1,0c0,5,0,10,0,15.2c-1.7,0-3.3,0-5,0
	C11,55.8,11,44.4,11,32.7z"/>
<path d="M64.9,67.2c-1.9,0-3.6,0-5.5,0c-0.6-2-1.4-4.2-2-6.3c-0.3-1.2-0.8-1.8-2.2-1.7c-2.9,0.1-5.8,0.1-8.7,0
	c-1.3-0.1-1.9,0.5-2.2,1.7c-0.2,0.8-0.4,1.6-0.7,2.4c-1.3,4.5-1.3,4.5-6.5,3.8c1.1-3.5,2.2-6.9,3.3-10.4c2.3-7.2,4.6-14.4,6.8-21.7
	c0.5-1.9,1.3-2.7,3.2-2.4c1,0.1,2.1,0,3.2,0C57.4,44.2,61.1,55.6,64.9,67.2z M46.4,54c3,0,5.8,0,8.8,0c-1.4-4.8-2.8-9.5-4.4-14.8
	C49.2,44.5,47.8,49.2,46.4,54z"/>
<path d="M81.9,37.7c-4.8,0-9.1,0-13.6,0c0-1.7,0-3.3,0-4.9c6.7,0,13.3,0,20,0c0.3,2.6,0.3,4.9-1.3,7.3c-4.5,6.6-8.8,13.3-13.2,19.9
	c-0.4,0.6-0.8,1.3-1.3,2.2c5.7,0,11,0,16.5,0c0,1.8,0,3.3,0,5c-7.5,0-14.8,0-22.4,0c0-2.7-0.6-5.3,1.2-7.9
	c4.4-6.3,8.4-12.8,12.6-19.2C80.9,39.5,81.2,38.8,81.9,37.7z"/>
</svg>
