<?xml version="1.0" encoding="iso-8859-1"?>
<!-- Generator: Adobe Illustrator 25.4.1, SVG Export Plug-In . SVG Version: 6.00 Build 0)  -->
<svg version="1.1" id="Layer_1" xmlns="http://www.w3.org/2000/svg" xmlns:xlink="http://www.w3.org/1999/xlink" x="0px" y="0px"
	 viewBox="0 0 100 100" style="enable-background:new 0 0 100 100;" xml:space="preserve">
<path d="M13.9,57.4l1.225-0.2L16.35,57l1.225-0.2l1.225-0.2c0.075,0.7,0.169,1.35,0.281,1.953c0.112,0.603,0.244,1.159,0.394,1.672
	s0.319,0.981,0.506,1.409c0.188,0.428,0.394,0.816,0.619,1.166c0.225,0.325,0.469,0.612,0.731,0.861
	c0.262,0.249,0.544,0.458,0.844,0.627c0.3,0.168,0.619,0.297,0.956,0.382s0.694,0.13,1.069,0.13c0.4,0,0.775-0.037,1.126-0.111
	c0.352-0.074,0.68-0.183,0.986-0.327c0.306-0.144,0.591-0.322,0.855-0.533c0.264-0.211,0.508-0.455,0.733-0.73
	c0.2-0.3,0.375-0.606,0.525-0.922c0.15-0.316,0.275-0.641,0.375-0.978s0.175-0.688,0.225-1.053c0.05-0.366,0.075-0.747,0.075-1.147
	c0-0.25-0.013-0.494-0.036-0.73c-0.024-0.236-0.058-0.464-0.102-0.683s-0.097-0.428-0.158-0.626s-0.129-0.385-0.204-0.56
	s-0.169-0.344-0.281-0.506c-0.112-0.162-0.244-0.319-0.394-0.469s-0.319-0.294-0.506-0.431c-0.188-0.137-0.394-0.269-0.619-0.394
	c-0.15-0.075-0.344-0.175-0.583-0.297c-0.239-0.122-0.524-0.266-0.855-0.428c-0.331-0.163-0.709-0.344-1.135-0.541
	C23.8,53.138,23.325,52.925,22.8,52.7c-0.675-0.275-1.3-0.569-1.875-0.881s-1.1-0.644-1.575-0.994s-0.9-0.719-1.275-1.106
	c-0.375-0.387-0.7-0.794-0.975-1.219c-0.375-0.575-0.706-1.188-0.992-1.834c-0.286-0.647-0.526-1.328-0.72-2.041
	c-0.194-0.713-0.341-1.456-0.439-2.228C14.85,41.625,14.8,40.825,14.8,40c0-0.55,0.025-1.088,0.073-1.614
	c0.048-0.527,0.12-1.042,0.214-1.549c0.094-0.506,0.21-1.003,0.346-1.492c0.136-0.489,0.292-0.97,0.467-1.445
	c0.175-0.475,0.375-0.919,0.597-1.333c0.222-0.414,0.466-0.798,0.728-1.154c0.262-0.356,0.544-0.685,0.841-0.986
	C18.362,30.125,18.675,29.85,19,29.6s0.675-0.469,1.047-0.656s0.766-0.344,1.178-0.469s0.844-0.219,1.291-0.281
	S23.425,28.1,23.9,28.1c0.775,0,1.506,0.075,2.192,0.223s1.326,0.371,1.92,0.665c0.594,0.294,1.141,0.659,1.64,1.095
	S30.6,31.025,31,31.6s0.75,1.2,1.051,1.875c0.302,0.675,0.555,1.4,0.761,2.175c0.207,0.775,0.366,1.6,0.48,2.475
	s0.183,1.8,0.208,2.775L32.25,41L31,41.1l-1.25,0.1l-1.25,0.1c-0.05-0.55-0.119-1.056-0.205-1.522s-0.189-0.891-0.308-1.278
	c-0.118-0.388-0.253-0.738-0.401-1.053S27.275,36.85,27.1,36.6s-0.375-0.463-0.598-0.641s-0.47-0.322-0.739-0.434
	s-0.559-0.194-0.87-0.247S24.25,35.2,23.9,35.2c-0.375,0-0.725,0.031-1.052,0.094s-0.629,0.156-0.91,0.281s-0.541,0.281-0.78,0.469
	S20.7,36.45,20.5,36.7c-0.125,0.175-0.237,0.356-0.336,0.547s-0.183,0.391-0.251,0.603c-0.068,0.212-0.122,0.438-0.157,0.678
	c-0.036,0.241-0.055,0.497-0.055,0.772c0,0.25,0.013,0.494,0.039,0.73s0.067,0.464,0.124,0.682s0.128,0.428,0.217,0.627
	c0.089,0.199,0.194,0.386,0.319,0.561c0.15,0.225,0.362,0.456,0.634,0.691s0.603,0.472,0.991,0.709
	c0.387,0.237,0.831,0.475,1.328,0.709C23.85,44.244,24.4,44.475,25,44.7c0.625,0.25,1.206,0.5,1.744,0.752s1.031,0.505,1.481,0.761
	c0.45,0.256,0.856,0.515,1.219,0.779c0.362,0.264,0.681,0.533,0.956,0.808c0.3,0.275,0.581,0.569,0.845,0.883
	s0.511,0.649,0.742,1.005c0.231,0.356,0.447,0.734,0.649,1.135c0.202,0.401,0.389,0.826,0.564,1.276s0.325,0.931,0.452,1.442
	s0.23,1.051,0.311,1.62c0.081,0.569,0.14,1.166,0.179,1.79S34.2,58.225,34.2,58.9c0,0.6-0.025,1.194-0.075,1.78
	c-0.05,0.586-0.125,1.164-0.225,1.733c-0.1,0.568-0.225,1.128-0.375,1.676C33.375,64.637,33.2,65.175,33,65.7
	s-0.419,1.019-0.658,1.48s-0.499,0.889-0.78,1.282s-0.584,0.753-0.911,1.077c-0.326,0.324-0.676,0.611-1.051,0.861
	s-0.769,0.469-1.181,0.656c-0.413,0.188-0.844,0.344-1.294,0.469s-0.919,0.219-1.406,0.281S24.725,71.9,24.2,71.9
	c-0.8,0-1.55-0.075-2.251-0.227s-1.354-0.38-1.961-0.686s-1.166-0.69-1.68-1.155c-0.514-0.464-0.983-1.008-1.408-1.633
	s-0.8-1.319-1.13-2.081c-0.33-0.762-0.614-1.594-0.858-2.494c-0.243-0.9-0.446-1.869-0.614-2.906S14,58.575,13.9,57.4z"/>
<path d="M60.9,71.2h-1.375H58.15h-1.375H55.4l-0.55-2.4l-0.55-2.4L53.75,64l-0.55-2.4h-2.5h-2.5h-2.5h-2.5L42.675,64l-0.525,2.4
	l-0.525,2.4L41.1,71.2h-1.325H38.45h-1.325H35.8l2.425-10.6L40.65,50l2.425-10.6L45.5,28.8h1.375h1.375h1.375H51l2.475,10.6
	L55.95,50l2.475,10.6L60.9,71.2z M51.7,54.4l-0.85-3.925L50,46.55l-0.85-3.925L48.3,38.7l-0.85,3.925L46.6,46.55l-0.85,3.925
	L44.9,54.4h1.7h1.7c0,0,0.85,0,1.7,0S51.7,54.4,51.7,54.4z"/>
<path d="M63.6,71.2V60.6V50V39.4V28.8h2.65h2.65h2.65h2.65c0.675,0,1.3,0.025,1.877,0.073c0.577,0.049,1.105,0.121,1.586,0.215
	s0.916,0.209,1.305,0.345C79.356,29.569,79.7,29.725,80,29.9s0.588,0.394,0.861,0.655c0.273,0.261,0.533,0.564,0.776,0.907
	c0.244,0.344,0.472,0.729,0.683,1.152C82.531,33.037,82.725,33.5,82.9,34c0.175,0.475,0.331,0.975,0.467,1.497
	c0.136,0.522,0.251,1.066,0.345,1.628s0.165,1.144,0.214,1.741C83.975,39.463,84,40.075,84,40.7c0,0.8-0.037,1.562-0.111,2.289
	c-0.074,0.727-0.183,1.417-0.327,2.073s-0.322,1.278-0.533,1.867c-0.211,0.589-0.454,1.146-0.729,1.671s-0.581,1-0.92,1.425
	c-0.339,0.425-0.711,0.8-1.117,1.125s-0.847,0.6-1.324,0.825c-0.477,0.225-0.99,0.4-1.539,0.525
	c0.275,0.275,0.537,0.556,0.787,0.844s0.488,0.581,0.713,0.881s0.438,0.606,0.637,0.919c0.2,0.312,0.388,0.631,0.562,0.956
	s0.369,0.713,0.58,1.162c0.211,0.45,0.439,0.963,0.682,1.538c0.244,0.575,0.504,1.213,0.777,1.913C82.412,61.412,82.7,62.175,83,63
	l0.75,2.075l0.75,2.075l0.75,2.075L86,71.3h-1.5H83h-1.5H80l-0.9-2.325l-0.9-2.325l-0.9-2.325L76.4,62
	c-0.325-0.825-0.625-1.575-0.9-2.248c-0.275-0.673-0.525-1.27-0.75-1.789c-0.225-0.519-0.425-0.96-0.6-1.321
	C73.975,56.281,73.825,56,73.7,55.8c-0.125-0.225-0.25-0.425-0.375-0.605c-0.125-0.18-0.25-0.339-0.375-0.483
	c-0.125-0.144-0.25-0.272-0.375-0.389C72.45,54.206,72.325,54.1,72.2,54c-0.125-0.075-0.275-0.144-0.447-0.205
	s-0.366-0.114-0.578-0.157c-0.213-0.044-0.444-0.078-0.691-0.102C70.238,53.513,69.975,53.5,69.7,53.5h-0.25H69.2h-0.25H68.7v4.425
	v4.425v4.425V71.2h-1.275H66.15h-1.275H63.6z M68.7,46.7h0.925h0.925h0.925H72.4c0.6,0,1.144-0.013,1.631-0.036
	c0.488-0.023,0.919-0.058,1.294-0.102s0.694-0.097,0.956-0.158c0.262-0.061,0.469-0.129,0.619-0.204s0.294-0.169,0.43-0.281
	s0.264-0.244,0.382-0.394c0.119-0.15,0.229-0.319,0.327-0.506c0.098-0.188,0.186-0.394,0.261-0.619
	c0.075-0.2,0.144-0.419,0.205-0.655c0.061-0.236,0.114-0.489,0.158-0.757c0.044-0.269,0.078-0.554,0.101-0.852
	S78.8,41.525,78.8,41.2c0-0.35-0.012-0.688-0.039-1.011c-0.027-0.324-0.067-0.633-0.123-0.927s-0.128-0.572-0.217-0.833
	c-0.089-0.261-0.196-0.504-0.321-0.729s-0.256-0.425-0.395-0.603c-0.139-0.178-0.286-0.334-0.443-0.472s-0.322-0.256-0.498-0.359
	S76.4,36.075,76.2,36c-0.075,0-0.213,0-0.408,0s-0.448,0-0.754,0s-0.665,0-1.074,0S73.1,36,72.6,36h-0.975H70.65h-0.975H68.7v2.675
	v2.675v2.675V46.7z"/>
</svg>
