<svg xmlns="http://www.w3.org/2000/svg" viewBox="0 0 100 100"><path d="M43.48,72.18H36.16L33.25,62.1H19.93L17.18,72.18H10.05L23,27.82h7.12ZM31.09,54.63,26.5,38.17,22,54.63Z"/><path d="M44.49,72.93H35.6L32.69,62.85H20.51L17.76,72.93H9.05L22.46,27.07h8.23Zm-7.77-1.5h5.75L29.58,28.57h-6L11.05,71.43h5.56l2.75-10.08H33.81ZM32.08,55.38H21l5.47-20ZM23,53.88H30.1L26.51,41Z" fill="#fff"/><path d="M46.84,72.18V27.82h6.73V72.18Z"/><path d="M54.32,72.93H46.09V27.07h8.23Zm-6.73-1.5h5.23V28.57H47.59Z" fill="#fff"/><path d="M60,72.18V27.82H74.16q5.34,0,7.76,1.2a8.59,8.59,0,0,1,3.87,4.25,16.09,16.09,0,0,1,1.46,7A14.37,14.37,0,0,1,85,48.5a9.78,9.78,0,0,1-6.59,4.1,17.33,17.33,0,0,1,3.61,3.72,54.39,54.39,0,0,1,3.82,7.2L90,72.18h-8L77,62.53A62.16,62.16,0,0,0,73.5,56a5.39,5.39,0,0,0-2-1.85,8.58,8.58,0,0,0-3.39-.5H66.73V72.18Zm6.73-25.6h5q4.85,0,6-.54a4,4,0,0,0,1.89-1.88,7.34,7.34,0,0,0,.68-3.33,6.48,6.48,0,0,0-.9-3.61,3.91,3.91,0,0,0-2.53-1.74A43.14,43.14,0,0,0,72,35.33H66.73Z"/><path d="M91.13,72.93H81.45L76.37,62.86a64.92,64.92,0,0,0-3.48-6.42,4.63,4.63,0,0,0-1.73-1.6,7.53,7.53,0,0,0-3.07-.43h-.61V72.93H59.25V27.07H74.16c3.71,0,6.36.42,8.09,1.27A9.39,9.39,0,0,1,86.47,33,16.94,16.94,0,0,1,88,40.26a15.23,15.23,0,0,1-2.33,8.66,10.16,10.16,0,0,1-5.61,4,17.31,17.31,0,0,1,2.61,2.92,52.4,52.4,0,0,1,3.89,7.32Zm-8.76-1.5h6.4l-3.56-7.59a52.47,52.47,0,0,0-3.77-7.09A16.49,16.49,0,0,0,78,53.2l-1.3-1,1.62-.31a9,9,0,0,0,6.11-3.79,13.68,13.68,0,0,0,2.08-7.82,15.53,15.53,0,0,0-1.38-6.67,8,8,0,0,0-3.53-3.9c-1.51-.74-4-1.12-7.43-1.12H60.75V71.43H66V52.91h2.11a9.12,9.12,0,0,1,3.7.57,6.16,6.16,0,0,1,2.32,2.09,67.14,67.14,0,0,1,3.61,6.62ZM71.7,47.33H66V34.58h6a36.23,36.23,0,0,1,5,.16,4.68,4.68,0,0,1,3,2.07,7.3,7.3,0,0,1,1,4,8,8,0,0,1-.77,3.67,4.68,4.68,0,0,1-2.24,2.22C77.48,47,76.19,47.33,71.7,47.33Zm-4.22-1.5H71.7c4.07,0,5.34-.3,5.74-.48A3.16,3.16,0,0,0,79,43.82a6.55,6.55,0,0,0,.6-3,5.76,5.76,0,0,0-.78-3.2,3.16,3.16,0,0,0-2.07-1.42A40.74,40.74,0,0,0,72,36.08h-4.5Z" fill="#fff"/></svg>