<?xml version="1.0" encoding="utf-8"?>
<!-- Generator: Adobe Illustrator 25.2.0, SVG Export Plug-In . SVG Version: 6.00 Build 0)  -->
<svg version="1.1" id="Layer_1" xmlns="http://www.w3.org/2000/svg" xmlns:xlink="http://www.w3.org/1999/xlink" x="0px" y="0px"
	 viewBox="0 0 100 100" style="enable-background:new 0 0 100 100;" xml:space="preserve">
<g>
	<polygon points="64.5,34.9 64.5,26.9 46.1,26.9 46.1,34.9 51.5,34.9 51.5,65.1 46.1,65.1 46.1,73.1 64.5,73.1 64.5,65.1 59.2,65.1 
		59.2,34.9 	"/>
	<polygon points="89.8,34.9 89.8,26.9 71.4,26.9 71.4,34.9 76.8,34.9 76.8,65.1 71.4,65.1 71.4,73.1 89.8,73.1 89.8,65.1 84.4,65.1 
		84.4,34.9 	"/>
	<polygon points="42.1,27.1 30.6,72.9 21.6,72.9 10.2,27.1 18.3,27.1 26.2,60.9 34,27.1 	"/>
</g>
</svg>
