<?xml version="1.0" encoding="iso-8859-1"?>
<!-- Generator: Adobe Illustrator 25.4.1, SVG Export Plug-In . SVG Version: 6.00 Build 0)  -->
<svg version="1.1" id="Layer_1" xmlns="http://www.w3.org/2000/svg" xmlns:xlink="http://www.w3.org/1999/xlink" x="0px" y="0px"
	 viewBox="0 0 100 100" style="enable-background:new 0 0 100 100;" xml:space="preserve">
<path d="M8.1,58.3v-7.725V42.85v-7.725V27.4h1.575h1.575h1.575H14.4c0.4,0,0.769,0.019,1.109,0.055
	c0.341,0.036,0.653,0.089,0.941,0.157s0.55,0.153,0.791,0.252S17.7,28.075,17.9,28.2c0.175,0.15,0.344,0.319,0.505,0.511
	c0.161,0.192,0.314,0.408,0.457,0.652s0.278,0.516,0.402,0.82c0.124,0.305,0.236,0.642,0.336,1.017
	c0.1,0.35,0.188,0.713,0.263,1.089c0.075,0.376,0.137,0.767,0.188,1.173s0.087,0.828,0.112,1.267S20.2,35.625,20.2,36.1
	c0,0.575-0.019,1.125-0.058,1.65c-0.039,0.525-0.098,1.025-0.179,1.5c-0.082,0.475-0.185,0.925-0.311,1.35
	c-0.127,0.425-0.277,0.825-0.452,1.2s-0.362,0.719-0.566,1.03s-0.422,0.589-0.659,0.832c-0.238,0.244-0.494,0.454-0.772,0.627
	S16.625,44.6,16.3,44.7c0.15,0.2,0.3,0.406,0.447,0.617c0.147,0.211,0.291,0.427,0.428,0.646c0.138,0.219,0.269,0.44,0.391,0.664
	C17.688,46.85,17.8,47.075,17.9,47.3s0.212,0.5,0.336,0.823c0.123,0.324,0.258,0.696,0.401,1.115s0.297,0.884,0.458,1.395
	c0.161,0.511,0.33,1.067,0.505,1.667l0.45,1.5l0.45,1.5l0.45,1.5l0.45,1.5h-0.9h-0.9h-0.9h-0.9l-0.55-1.675L16.7,54.95l-0.55-1.675
	L15.6,51.6c-0.2-0.6-0.381-1.144-0.545-1.631c-0.164-0.487-0.311-0.919-0.443-1.294s-0.247-0.694-0.348-0.956
	C14.162,47.456,14.075,47.25,14,47.1s-0.15-0.294-0.225-0.428c-0.075-0.134-0.15-0.259-0.225-0.372s-0.15-0.212-0.225-0.297
	c-0.075-0.084-0.15-0.153-0.225-0.203s-0.163-0.094-0.262-0.131c-0.1-0.038-0.213-0.069-0.338-0.094s-0.262-0.044-0.413-0.056
	c-0.15-0.013-0.312-0.019-0.487-0.019h-0.15H11.3h-0.15H11v3.225v3.225v3.225V58.4h-0.725H9.55H8.825H8.1v-0.025V58.35v-0.025V58.3z
	 M11.1,40.5h0.55h0.55h0.55h0.55c0.35,0,0.669-0.006,0.956-0.02c0.287-0.014,0.544-0.036,0.769-0.068
	c0.225-0.031,0.419-0.071,0.581-0.123C15.769,40.237,15.9,40.175,16,40.1s0.188-0.156,0.266-0.245
	c0.078-0.089,0.147-0.186,0.209-0.293c0.062-0.106,0.119-0.222,0.172-0.348C16.7,39.087,16.75,38.95,16.8,38.8
	s0.094-0.312,0.131-0.486c0.038-0.173,0.069-0.358,0.094-0.551c0.025-0.194,0.044-0.397,0.056-0.608
	c0.013-0.211,0.019-0.43,0.019-0.655c0-0.25-0.006-0.494-0.02-0.728s-0.036-0.459-0.067-0.672c-0.031-0.213-0.072-0.412-0.124-0.597
	S16.775,34.15,16.7,34s-0.15-0.287-0.228-0.412s-0.159-0.238-0.247-0.338s-0.181-0.188-0.284-0.263
	c-0.103-0.075-0.216-0.138-0.341-0.188c-0.05-0.025-0.138-0.044-0.259-0.058s-0.278-0.023-0.466-0.029
	c-0.188-0.007-0.406-0.01-0.653-0.011S13.7,32.7,13.4,32.7h-0.575H12.25h-0.575H11.1c0,0,0,0.487,0,1.219s0,1.706,0,2.681
	c0,0.975,0,1.95,0,2.681S11.1,40.5,11.1,40.5z"/>
<path d="M23.1,58.3v-7.725V42.85v-7.725V27.4h2.75h2.75h2.75h2.75v1.3V30v1.3v1.3h-2h-2h-2h-2v1.7V36v1.7v1.7h1.85h1.85h1.85h1.85
	v1.3V42v1.3v1.3h-1.875H29.75h-1.875H26v2.1v2.1v2.1V53h2.075h2.075h2.075H34.3v1.3v1.3v1.3v1.3h-2.8h-2.8h-2.8h-2.8v0.025v0.025
	c0,0,0,0.013,0,0.025S23.1,58.3,23.1,58.3z"/>
<path d="M36.1,48.3l0.725-0.15L37.55,48l0.725-0.15L39,47.7c0.05,0.5,0.106,0.969,0.172,1.406c0.066,0.438,0.141,0.844,0.228,1.219
	s0.188,0.719,0.303,1.031c0.116,0.312,0.247,0.594,0.397,0.844c0.125,0.25,0.269,0.462,0.428,0.641
	c0.159,0.178,0.334,0.322,0.522,0.434s0.388,0.194,0.597,0.247c0.209,0.053,0.428,0.078,0.653,0.078c0.25,0,0.481-0.025,0.695-0.076
	c0.214-0.051,0.411-0.129,0.593-0.236c0.181-0.106,0.347-0.241,0.498-0.405c0.152-0.164,0.289-0.358,0.414-0.583
	s0.231-0.45,0.32-0.68c0.089-0.23,0.161-0.464,0.217-0.708c0.056-0.243,0.097-0.496,0.124-0.764C45.188,49.881,45.2,49.6,45.2,49.3
	c0-0.175-0.006-0.35-0.019-0.522c-0.013-0.172-0.031-0.341-0.056-0.503c-0.025-0.162-0.056-0.319-0.094-0.466
	S44.95,47.525,44.9,47.4s-0.112-0.25-0.186-0.372c-0.073-0.122-0.158-0.241-0.252-0.353c-0.094-0.113-0.196-0.219-0.307-0.316
	c-0.111-0.097-0.23-0.184-0.355-0.259c-0.1-0.075-0.219-0.156-0.361-0.245s-0.308-0.186-0.501-0.292
	c-0.194-0.107-0.416-0.222-0.671-0.349S41.725,44.95,41.4,44.8c-0.4-0.2-0.769-0.413-1.108-0.639
	c-0.339-0.226-0.648-0.467-0.929-0.723s-0.534-0.528-0.761-0.817C38.375,42.331,38.175,42.025,38,41.7
	c-0.225-0.425-0.425-0.875-0.598-1.348s-0.32-0.971-0.439-1.49c-0.119-0.519-0.209-1.059-0.27-1.62S36.6,36.1,36.6,35.5
	c0-0.4,0.013-0.787,0.037-1.166c0.025-0.378,0.062-0.747,0.113-1.109c0.05-0.362,0.112-0.719,0.188-1.072
	C37.013,31.8,37.1,31.45,37.2,31.1s0.213-0.675,0.339-0.976c0.127-0.302,0.267-0.58,0.424-0.836
	c0.156-0.257,0.328-0.491,0.517-0.705c0.189-0.214,0.395-0.408,0.62-0.583c0.2-0.175,0.412-0.331,0.636-0.467
	c0.223-0.136,0.458-0.251,0.702-0.345c0.243-0.094,0.497-0.166,0.757-0.215C41.456,26.925,41.725,26.9,42,26.9
	c0.475,0,0.919,0.05,1.331,0.152c0.413,0.101,0.794,0.254,1.144,0.46c0.35,0.206,0.669,0.466,0.956,0.78
	c0.288,0.314,0.544,0.683,0.769,1.108s0.425,0.888,0.6,1.386c0.175,0.499,0.325,1.033,0.45,1.602c0.125,0.569,0.225,1.172,0.3,1.807
	c0.075,0.636,0.125,1.305,0.15,2.005l-0.75,0.075L46.2,36.35l-0.75,0.075L44.7,36.5c-0.025-0.4-0.062-0.769-0.111-1.108
	s-0.108-0.648-0.176-0.929c-0.069-0.282-0.147-0.535-0.233-0.761C44.094,33.475,44,33.275,43.9,33.1
	c-0.1-0.175-0.219-0.325-0.353-0.452c-0.134-0.127-0.284-0.23-0.447-0.311s-0.338-0.141-0.522-0.18C42.394,32.118,42.2,32.1,42,32.1
	c-0.225,0-0.438,0.025-0.636,0.073c-0.198,0.049-0.383,0.121-0.552,0.215s-0.322,0.209-0.458,0.345
	C40.218,32.869,40.1,33.025,40,33.2c-0.075,0.125-0.144,0.256-0.205,0.395s-0.114,0.286-0.157,0.442
	c-0.044,0.156-0.078,0.322-0.102,0.499C39.513,34.713,39.5,34.9,39.5,35.1c0,0.175,0.006,0.35,0.02,0.522s0.036,0.341,0.068,0.503
	s0.072,0.319,0.123,0.466c0.051,0.147,0.114,0.284,0.189,0.409c0.1,0.175,0.231,0.344,0.395,0.511
	c0.164,0.167,0.361,0.333,0.592,0.502c0.231,0.168,0.497,0.34,0.799,0.52S42.325,38.9,42.7,39.1s0.719,0.394,1.034,0.583
	c0.316,0.189,0.603,0.374,0.866,0.555c0.263,0.181,0.5,0.359,0.716,0.536c0.216,0.177,0.409,0.352,0.584,0.526
	s0.338,0.375,0.489,0.597c0.152,0.222,0.292,0.466,0.423,0.729c0.132,0.263,0.253,0.544,0.368,0.841
	c0.114,0.297,0.22,0.609,0.32,0.934s0.188,0.675,0.263,1.047c0.075,0.372,0.138,0.766,0.188,1.178s0.087,0.844,0.112,1.291
	c0.025,0.447,0.038,0.909,0.038,1.384c0,0.45-0.013,0.888-0.039,1.316c-0.027,0.428-0.067,0.847-0.123,1.259
	c-0.057,0.412-0.129,0.819-0.218,1.222C47.631,53.5,47.525,53.9,47.4,54.3c-0.125,0.375-0.256,0.731-0.397,1.066
	s-0.291,0.647-0.453,0.934s-0.337,0.55-0.528,0.784c-0.191,0.234-0.397,0.441-0.622,0.616c-0.225,0.2-0.456,0.369-0.697,0.509
	c-0.241,0.141-0.491,0.253-0.753,0.341s-0.538,0.15-0.828,0.191S42.525,58.8,42.2,58.8c-0.475,0-0.919-0.056-1.333-0.169
	c-0.414-0.112-0.798-0.281-1.154-0.506c-0.357-0.225-0.685-0.506-0.986-0.844S38.15,56.55,37.9,56.1s-0.475-0.95-0.675-1.5
	s-0.375-1.15-0.525-1.8s-0.275-1.35-0.375-2.1S36.15,49.15,36.1,48.3z"/>
<path d="M60.2,47l0.725,0.475l0.725,0.475l0.725,0.475L63.1,48.9c-0.1,0.85-0.225,1.644-0.372,2.381
	c-0.147,0.738-0.316,1.419-0.503,2.044s-0.394,1.194-0.616,1.706C61.388,55.544,61.15,56,60.9,56.4s-0.519,0.756-0.806,1.066
	c-0.287,0.309-0.594,0.572-0.919,0.784c-0.325,0.213-0.669,0.375-1.031,0.484C57.781,58.844,57.4,58.9,57,58.9
	c-0.5,0-0.975-0.088-1.427-0.263s-0.88-0.437-1.286-0.787s-0.791-0.788-1.155-1.313C52.769,56.013,52.425,55.4,52.1,54.7
	s-0.606-1.462-0.845-2.289s-0.436-1.717-0.593-2.673c-0.156-0.956-0.271-1.979-0.348-3.068S50.2,44.425,50.2,43.2
	c0-1.275,0.038-2.481,0.114-3.619c0.077-1.138,0.192-2.206,0.349-3.206s0.353-1.931,0.592-2.794c0.239-0.862,0.52-1.656,0.845-2.381
	c0.325-0.7,0.675-1.319,1.048-1.853c0.373-0.534,0.77-0.984,1.189-1.347c0.419-0.362,0.86-0.638,1.321-0.822
	C56.119,26.994,56.6,26.9,57.1,26.9c0.45,0,0.881,0.069,1.292,0.208c0.411,0.139,0.802,0.348,1.171,0.629
	c0.368,0.281,0.715,0.635,1.039,1.061c0.323,0.427,0.623,0.927,0.898,1.502c0.175,0.325,0.338,0.688,0.487,1.087
	c0.15,0.4,0.288,0.837,0.413,1.313s0.237,0.987,0.338,1.537c0.1,0.55,0.188,1.138,0.262,1.763l-0.75,0.375L61.5,36.75l-0.75,0.375
	L60,37.5c-0.05-0.4-0.106-0.781-0.172-1.142c-0.066-0.361-0.141-0.701-0.228-1.02c-0.088-0.319-0.188-0.616-0.303-0.889
	c-0.116-0.273-0.247-0.523-0.397-0.749s-0.3-0.425-0.453-0.598s-0.309-0.32-0.472-0.439c-0.162-0.118-0.331-0.209-0.509-0.27
	C57.287,32.331,57.1,32.3,56.9,32.3c-0.275,0-0.537,0.05-0.787,0.152s-0.488,0.255-0.713,0.46s-0.438,0.465-0.638,0.779
	S54.375,34.374,54.2,34.8c-0.175,0.4-0.325,0.869-0.452,1.405s-0.23,1.139-0.311,1.807c-0.081,0.669-0.14,1.403-0.179,2.202
	S53.2,41.875,53.2,42.8c0,0.975,0.019,1.881,0.058,2.717s0.098,1.602,0.179,2.296s0.184,1.316,0.311,1.864
	c0.127,0.548,0.277,1.023,0.452,1.423c0.175,0.425,0.362,0.794,0.561,1.108c0.198,0.314,0.408,0.574,0.627,0.78
	c0.218,0.206,0.446,0.359,0.682,0.461c0.236,0.101,0.48,0.151,0.73,0.151c0.2,0,0.394-0.031,0.581-0.095s0.369-0.161,0.544-0.293
	c0.175-0.131,0.344-0.296,0.506-0.498C58.594,52.513,58.75,52.275,58.9,52s0.288-0.588,0.414-0.936
	c0.127-0.348,0.242-0.733,0.349-1.151c0.106-0.419,0.203-0.872,0.292-1.358S60.125,47.55,60.2,47z"/>
<path d="M65.6,27.4h0.75h0.75h0.75h0.75v4.175v4.175v4.175V44.1c0,0.675,0,1.287,0.002,1.839c0.001,0.551,0.005,1.042,0.01,1.473
	c0.007,0.431,0.016,0.804,0.03,1.118c0.014,0.314,0.033,0.57,0.058,0.77c0.025,0.325,0.062,0.631,0.113,0.919
	s0.113,0.556,0.188,0.806s0.162,0.481,0.262,0.694c0.1,0.213,0.213,0.406,0.338,0.581c0.125,0.2,0.256,0.369,0.397,0.509
	c0.141,0.141,0.291,0.253,0.453,0.341s0.337,0.15,0.528,0.191S71.375,53.4,71.6,53.4c0.2,0,0.394-0.025,0.578-0.073
	c0.184-0.049,0.359-0.12,0.522-0.215s0.312-0.209,0.447-0.345c0.134-0.136,0.253-0.292,0.353-0.467
	c0.1-0.175,0.194-0.362,0.28-0.562s0.164-0.413,0.232-0.638c0.069-0.225,0.129-0.463,0.177-0.713s0.086-0.512,0.111-0.787
	s0.044-0.588,0.058-0.939c0.014-0.352,0.024-0.742,0.03-1.173c0.006-0.431,0.009-0.903,0.01-1.418C74.4,45.556,74.4,45,74.4,44.4
	v-4.25V35.9v-4.25V27.4h0.75h0.75h0.75h0.75v4.05v4.05v4.05v4.05c0,0.925-0.006,1.781-0.017,2.57
	c-0.011,0.789-0.026,1.511-0.045,2.167s-0.04,1.247-0.064,1.774C77.25,50.637,77.225,51.1,77.2,51.5
	c-0.05,0.375-0.106,0.737-0.169,1.088c-0.062,0.35-0.131,0.688-0.206,1.012c-0.075,0.325-0.156,0.638-0.244,0.938
	S76.4,55.125,76.3,55.4s-0.213,0.531-0.336,0.77c-0.123,0.239-0.258,0.461-0.402,0.668c-0.143,0.206-0.296,0.396-0.457,0.573
	c-0.161,0.177-0.33,0.339-0.505,0.489s-0.369,0.281-0.58,0.394c-0.211,0.112-0.439,0.206-0.682,0.281
	c-0.244,0.075-0.503,0.131-0.777,0.169C72.287,58.781,72,58.8,71.7,58.8c-0.35,0-0.681-0.019-0.992-0.058
	c-0.311-0.039-0.602-0.098-0.871-0.179c-0.269-0.082-0.515-0.185-0.739-0.311S68.675,57.975,68.5,57.8s-0.344-0.362-0.505-0.562
	c-0.161-0.2-0.314-0.413-0.458-0.638c-0.144-0.225-0.278-0.462-0.401-0.712c-0.123-0.25-0.236-0.513-0.336-0.788
	s-0.194-0.55-0.28-0.826c-0.086-0.276-0.164-0.554-0.232-0.835c-0.069-0.281-0.129-0.566-0.177-0.855
	C66.062,52.294,66.025,52,66,51.7c-0.05-0.45-0.094-0.95-0.131-1.5s-0.069-1.15-0.094-1.8s-0.044-1.35-0.056-2.1
	S65.7,44.75,65.7,43.9v-4.125V35.65v-4.125V27.4h-0.025H65.65h-0.025H65.6z"/>
<path d="M80.6,58.3v-7.725V42.85v-7.725V27.4h2.75h2.75h2.75h2.75v1.3V30v1.3v1.3h-2h-2h-2h-2v1.7V36v1.7v1.7h1.85h1.85h1.85H91v1.3
	V42v1.3v1.3h-1.85H87.3h-1.85H83.6v2.1v2.1v2.1V53h2.075h2.075h2.075H91.9v1.3v1.3v1.3v1.3h-2.825H86.25h-2.825H80.6v0.025v0.025
	v0.025V58.3z"/>
<path d="M18.4,68.1v-0.55V67v-0.55V65.9h1.7h1.7h1.7h1.7v1.3v1.3v1.3v1.3c-0.175,0.125-0.363,0.25-0.566,0.373
	c-0.203,0.124-0.422,0.245-0.659,0.365c-0.237,0.118-0.494,0.234-0.772,0.345C22.925,72.294,22.625,72.4,22.3,72.5
	c-0.3,0.1-0.606,0.188-0.917,0.262c-0.311,0.075-0.627,0.137-0.946,0.188c-0.318,0.05-0.64,0.088-0.964,0.113
	C19.15,73.088,18.825,73.1,18.5,73.1c-0.4,0-0.787-0.019-1.162-0.056c-0.375-0.037-0.738-0.094-1.088-0.169
	s-0.688-0.169-1.012-0.281S14.6,72.35,14.3,72.2s-0.581-0.312-0.844-0.488s-0.506-0.363-0.731-0.562s-0.431-0.412-0.619-0.637
	C11.919,70.287,11.75,70.05,11.6,69.8c-0.15-0.275-0.281-0.55-0.394-0.828c-0.113-0.278-0.206-0.559-0.281-0.847
	s-0.131-0.581-0.169-0.884C10.719,66.938,10.7,66.625,10.7,66.3c0-0.35,0.019-0.688,0.058-1.012c0.039-0.325,0.099-0.637,0.18-0.938
	c0.081-0.3,0.184-0.588,0.311-0.862c0.127-0.275,0.276-0.538,0.451-0.788c0.175-0.275,0.369-0.531,0.581-0.769
	s0.444-0.456,0.694-0.656s0.519-0.381,0.806-0.544c0.288-0.162,0.594-0.306,0.919-0.431c0.25-0.1,0.512-0.188,0.789-0.263
	c0.277-0.075,0.567-0.137,0.874-0.188c0.306-0.05,0.628-0.088,0.967-0.112c0.339-0.025,0.696-0.038,1.071-0.038
	c0.475,0,0.925,0.019,1.35,0.058c0.425,0.039,0.825,0.098,1.2,0.179c0.375,0.081,0.725,0.185,1.05,0.311
	c0.325,0.127,0.625,0.277,0.9,0.452s0.525,0.363,0.75,0.564c0.225,0.202,0.425,0.417,0.6,0.649c0.174,0.231,0.324,0.478,0.449,0.742
	c0.125,0.264,0.225,0.545,0.3,0.845l-0.8,0.125l-0.8,0.125l-0.8,0.125L21.8,64c-0.05-0.15-0.112-0.294-0.188-0.431
	c-0.075-0.137-0.163-0.269-0.263-0.394s-0.212-0.244-0.337-0.356C20.887,62.706,20.75,62.6,20.6,62.5s-0.312-0.188-0.486-0.263
	s-0.358-0.138-0.552-0.188c-0.194-0.05-0.396-0.087-0.607-0.112S18.525,61.9,18.3,61.9c-0.35,0-0.681,0.025-0.994,0.073
	c-0.312,0.048-0.606,0.12-0.881,0.214c-0.275,0.094-0.531,0.21-0.769,0.346C15.419,62.669,15.2,62.825,15,63
	s-0.375,0.375-0.525,0.598S14.2,64.069,14.1,64.338s-0.175,0.559-0.225,0.87C13.825,65.519,13.8,65.85,13.8,66.2
	c0,0.375,0.025,0.731,0.075,1.067c0.05,0.336,0.125,0.651,0.225,0.945c0.1,0.294,0.225,0.566,0.375,0.815
	C14.625,69.275,14.8,69.5,15,69.7s0.419,0.375,0.655,0.525c0.236,0.15,0.489,0.275,0.757,0.375c0.269,0.1,0.553,0.175,0.852,0.225
	S17.875,70.9,18.2,70.9c0.175,0,0.344-0.006,0.509-0.019c0.166-0.012,0.328-0.031,0.491-0.056s0.325-0.056,0.491-0.094
	S20.025,70.65,20.2,70.6s0.337-0.106,0.491-0.167c0.153-0.061,0.297-0.127,0.434-0.196c0.138-0.069,0.269-0.14,0.397-0.214
	c0.128-0.073,0.253-0.148,0.378-0.223v-0.4V69v-0.4v-0.4h-0.875H20.15h-0.875H18.4v-0.025V68.15v-0.025V68.1z"/>
<path d="M28,72.9v-3.25V66.4v-3.25V59.9h1.65h1.65h1.65h1.65c0.425,0,0.819,0.006,1.181,0.019c0.362,0.013,0.694,0.031,0.994,0.056
	s0.569,0.056,0.806,0.094c0.238,0.037,0.444,0.081,0.619,0.131c0.2,0.05,0.388,0.112,0.562,0.188S39.1,60.55,39.25,60.65
	s0.287,0.213,0.412,0.338S39.9,61.25,40,61.4s0.194,0.306,0.278,0.467s0.159,0.327,0.222,0.496c0.062,0.168,0.112,0.34,0.147,0.514
	c0.034,0.174,0.053,0.348,0.053,0.523c0,0.25-0.019,0.487-0.058,0.713c-0.039,0.225-0.098,0.438-0.179,0.637
	c-0.081,0.2-0.185,0.387-0.311,0.562c-0.127,0.175-0.277,0.338-0.452,0.488s-0.369,0.288-0.583,0.413s-0.448,0.237-0.704,0.337
	c-0.257,0.1-0.535,0.188-0.836,0.262S36.95,66.95,36.6,67c0.175,0.075,0.338,0.156,0.491,0.242c0.153,0.086,0.297,0.176,0.434,0.27
	c0.138,0.094,0.269,0.191,0.397,0.289C38.05,67.9,38.175,68,38.3,68.1c0.1,0.1,0.213,0.219,0.338,0.356
	c0.125,0.138,0.263,0.294,0.412,0.469s0.312,0.369,0.487,0.581C39.713,69.719,39.9,69.95,40.1,70.2l0.475,0.625l0.475,0.625
	l0.475,0.625L42,72.7h-0.925H40.15h-0.925H38.3l-0.575-0.65L37.15,71.4l-0.575-0.65L36,70.1c-0.2-0.25-0.388-0.475-0.561-0.677
	c-0.173-0.202-0.333-0.38-0.476-0.536c-0.144-0.156-0.272-0.29-0.383-0.404c-0.111-0.114-0.205-0.208-0.28-0.283
	s-0.15-0.137-0.225-0.191c-0.075-0.053-0.15-0.097-0.225-0.134c-0.075-0.037-0.15-0.069-0.225-0.097
	c-0.075-0.028-0.15-0.053-0.225-0.078s-0.169-0.044-0.278-0.058c-0.109-0.014-0.234-0.024-0.372-0.03
	c-0.138-0.006-0.287-0.009-0.447-0.01C32.144,67.6,31.975,67.6,31.8,67.6h-0.15H31.5h-0.15H31.2v1.35v1.35v1.35V73h-0.8h-0.8h-0.8
	H28v-0.025V72.95v-0.025V72.9z M31.2,65.4h0.575h0.575h0.575H33.5c0.375,0,0.712-0.006,1.014-0.017
	c0.301-0.011,0.567-0.026,0.798-0.045s0.428-0.04,0.592-0.064C36.069,65.25,36.2,65.225,36.3,65.2s0.194-0.056,0.281-0.092
	c0.088-0.036,0.169-0.077,0.244-0.121c0.075-0.044,0.144-0.09,0.206-0.139C37.094,64.8,37.15,64.75,37.2,64.7
	s0.094-0.113,0.131-0.184c0.037-0.072,0.069-0.153,0.094-0.241c0.025-0.087,0.044-0.181,0.056-0.278S37.5,63.8,37.5,63.7
	s-0.006-0.2-0.02-0.299s-0.036-0.195-0.068-0.29s-0.072-0.185-0.123-0.27c-0.051-0.086-0.114-0.167-0.189-0.242
	s-0.156-0.138-0.244-0.191c-0.088-0.053-0.181-0.097-0.281-0.134c-0.1-0.037-0.206-0.069-0.319-0.097
	c-0.112-0.028-0.231-0.053-0.356-0.078c-0.075,0-0.175,0-0.303,0s-0.284,0-0.472,0s-0.406,0-0.659,0s-0.541,0-0.866,0H33h-0.6h-0.6
	h-0.6c0,0,0,0.206,0,0.516s0,0.722,0,1.134s0,0.825,0,1.134C31.2,65.194,31.2,65.4,31.2,65.4z"/>
<path d="M43,66.5c0-0.325,0.013-0.637,0.039-0.938c0.026-0.3,0.067-0.588,0.123-0.863c0.056-0.275,0.128-0.537,0.218-0.788
	c0.089-0.25,0.195-0.487,0.32-0.712c0.1-0.175,0.2-0.344,0.303-0.506c0.103-0.162,0.209-0.319,0.322-0.469s0.231-0.294,0.359-0.431
	c0.128-0.137,0.266-0.269,0.416-0.394s0.306-0.244,0.467-0.356c0.161-0.112,0.326-0.219,0.495-0.319
	c0.169-0.1,0.341-0.194,0.514-0.281s0.348-0.169,0.523-0.244c0.25-0.075,0.506-0.144,0.769-0.205s0.531-0.114,0.806-0.157
	c0.275-0.044,0.556-0.078,0.844-0.102S50.1,59.7,50.4,59.7c0.575,0,1.119,0.038,1.633,0.112c0.514,0.075,0.998,0.188,1.454,0.338
	c0.457,0.15,0.885,0.338,1.286,0.562S55.55,61.2,55.9,61.5s0.656,0.625,0.919,0.977s0.481,0.73,0.656,1.136
	c0.175,0.406,0.306,0.84,0.394,1.304C57.956,65.381,58,65.875,58,66.4s-0.044,1.019-0.13,1.483
	c-0.086,0.464-0.214,0.898-0.383,1.304c-0.168,0.407-0.378,0.785-0.626,1.136C56.613,70.675,56.325,71,56,71.3
	c-0.35,0.3-0.725,0.562-1.127,0.787s-0.83,0.412-1.286,0.562c-0.456,0.15-0.94,0.263-1.454,0.338S51.075,73.1,50.5,73.1
	s-1.119-0.037-1.633-0.113c-0.514-0.075-0.998-0.187-1.454-0.337c-0.457-0.15-0.885-0.338-1.286-0.562S45.35,71.6,45,71.3
	c-0.325-0.275-0.613-0.588-0.861-0.933c-0.248-0.345-0.458-0.723-0.626-1.129c-0.169-0.407-0.297-0.841-0.383-1.299
	C43.044,67.481,43,67,43,66.5z M46.3,66.4c0,0.375,0.025,0.725,0.075,1.05c0.05,0.325,0.125,0.625,0.225,0.9s0.225,0.525,0.375,0.75
	s0.325,0.425,0.525,0.6c0.2,0.2,0.412,0.369,0.639,0.509s0.467,0.253,0.723,0.341c0.257,0.088,0.528,0.15,0.817,0.191
	s0.595,0.059,0.92,0.059c0.3,0,0.594-0.025,0.878-0.073c0.284-0.048,0.559-0.12,0.822-0.214c0.263-0.094,0.513-0.21,0.747-0.346
	s0.453-0.292,0.653-0.466c0.2-0.2,0.375-0.419,0.525-0.658c0.15-0.239,0.275-0.499,0.375-0.78c0.1-0.281,0.175-0.584,0.225-0.911
	c0.05-0.327,0.075-0.677,0.075-1.052s-0.025-0.725-0.075-1.05c-0.05-0.325-0.125-0.625-0.225-0.9s-0.225-0.525-0.375-0.75
	c-0.15-0.225-0.325-0.425-0.525-0.6s-0.413-0.331-0.639-0.467s-0.467-0.251-0.723-0.345s-0.528-0.166-0.817-0.214
	c-0.289-0.049-0.595-0.074-0.92-0.074s-0.631,0.025-0.92,0.073c-0.289,0.049-0.561,0.121-0.817,0.215s-0.497,0.209-0.723,0.345
	S47.7,62.825,47.5,63c-0.2,0.2-0.375,0.419-0.525,0.658c-0.15,0.239-0.275,0.498-0.375,0.779c-0.1,0.282-0.175,0.585-0.225,0.911
	C46.325,65.675,46.3,66.025,46.3,66.4z"/>
<path d="M60.5,59.9h0.775h0.775h0.775H63.6v1.75v1.75v1.75v1.75c0,0.275,0,0.525,0.002,0.752s0.005,0.43,0.011,0.611
	c0.006,0.181,0.015,0.34,0.029,0.479S63.675,69,63.7,69.1c0.025,0.125,0.069,0.25,0.128,0.372c0.059,0.122,0.134,0.241,0.222,0.353
	s0.188,0.219,0.297,0.316c0.109,0.097,0.228,0.184,0.353,0.259s0.263,0.144,0.412,0.205c0.15,0.061,0.312,0.114,0.488,0.158
	s0.363,0.078,0.562,0.102c0.2,0.023,0.412,0.035,0.637,0.035s0.438-0.012,0.636-0.036s0.383-0.058,0.552-0.101
	s0.322-0.097,0.458-0.158c0.136-0.061,0.254-0.13,0.354-0.205c0.125-0.075,0.231-0.156,0.322-0.242
	c0.091-0.086,0.166-0.176,0.228-0.27c0.062-0.094,0.113-0.191,0.153-0.29C69.544,69.5,69.575,69.4,69.6,69.3
	s0.044-0.225,0.058-0.372c0.014-0.147,0.024-0.316,0.03-0.503c0.006-0.188,0.009-0.394,0.01-0.616C69.7,67.588,69.7,67.35,69.7,67.1
	v-1.8v-1.8v-1.8v-1.8h0.775h0.775h0.775H72.8v1.7v1.7V65v1.7c0,0.4-0.006,0.769-0.019,1.106c-0.012,0.337-0.031,0.644-0.056,0.919
	C72.7,69,72.669,69.244,72.631,69.456C72.594,69.669,72.55,69.85,72.5,70s-0.106,0.3-0.169,0.447s-0.131,0.291-0.206,0.428
	s-0.156,0.269-0.244,0.391S71.7,71.5,71.6,71.6c-0.125,0.1-0.256,0.2-0.394,0.299c-0.137,0.098-0.281,0.195-0.431,0.289
	s-0.306,0.185-0.469,0.27c-0.162,0.086-0.331,0.167-0.506,0.242c-0.2,0.075-0.412,0.137-0.637,0.189
	c-0.225,0.051-0.463,0.092-0.713,0.123s-0.513,0.053-0.787,0.067C67.388,73.093,67.1,73.1,66.8,73.1
	c-0.375,0-0.725-0.006-1.052-0.02c-0.327-0.014-0.63-0.036-0.911-0.068s-0.541-0.072-0.78-0.123S63.6,72.775,63.4,72.7
	s-0.387-0.156-0.562-0.242c-0.175-0.086-0.338-0.176-0.487-0.27c-0.15-0.094-0.288-0.191-0.413-0.289
	C61.812,71.8,61.7,71.7,61.6,71.6c-0.1-0.125-0.194-0.244-0.281-0.359s-0.169-0.228-0.244-0.341s-0.144-0.225-0.206-0.341
	S60.75,70.325,60.7,70.2c-0.05-0.175-0.094-0.375-0.131-0.6c-0.037-0.225-0.069-0.475-0.094-0.75s-0.044-0.575-0.056-0.9
	S60.4,67.275,60.4,66.9v-1.75V63.4v-1.75V59.9h0.025h0.025h0.025H60.5z"/>
<path d="M76.2,72.9v-3.25V66.4v-3.25V59.9h1.25h1.25h1.25h1.25c0.475,0,0.906,0.006,1.295,0.017s0.736,0.026,1.043,0.045
	c0.306,0.019,0.572,0.041,0.798,0.064c0.227,0.023,0.414,0.048,0.564,0.073c0.225,0.05,0.438,0.112,0.639,0.189
	c0.202,0.076,0.392,0.167,0.574,0.273c0.181,0.107,0.353,0.229,0.517,0.368c0.164,0.139,0.32,0.295,0.47,0.47
	s0.281,0.356,0.394,0.545c0.113,0.189,0.206,0.386,0.281,0.593c0.075,0.206,0.131,0.422,0.169,0.648C87.981,63.413,88,63.65,88,63.9
	c0,0.2-0.012,0.394-0.036,0.58c-0.023,0.186-0.058,0.364-0.101,0.533s-0.097,0.328-0.158,0.477c-0.061,0.148-0.13,0.285-0.205,0.41
	s-0.162,0.25-0.259,0.372c-0.097,0.122-0.203,0.241-0.316,0.353s-0.231,0.219-0.353,0.316c-0.122,0.097-0.247,0.184-0.372,0.259
	s-0.256,0.144-0.391,0.206c-0.134,0.063-0.272,0.119-0.409,0.169s-0.275,0.094-0.409,0.131S84.725,67.775,84.6,67.8
	c-0.175,0.025-0.375,0.05-0.599,0.073c-0.223,0.023-0.47,0.045-0.739,0.064s-0.559,0.034-0.87,0.045C82.081,67.993,81.75,68,81.4,68
	h-0.5h-0.5h-0.5h-0.5v1.225v1.225v1.225V72.9h-0.8h-0.8c0,0-0.4,0-0.8,0S76.2,72.9,76.2,72.9z M79.3,62.1v0.925v0.925v0.925V65.8
	h0.425h0.425h0.425H81c0.3,0,0.581-0.006,0.841-0.017c0.259-0.011,0.497-0.026,0.709-0.045c0.212-0.019,0.4-0.041,0.559-0.064
	S83.4,65.625,83.5,65.6s0.194-0.056,0.283-0.094c0.089-0.037,0.173-0.081,0.254-0.131c0.081-0.05,0.16-0.106,0.236-0.169
	C84.35,65.144,84.425,65.075,84.5,65s0.137-0.15,0.189-0.227c0.051-0.076,0.092-0.154,0.123-0.235
	c0.032-0.082,0.054-0.166,0.068-0.255C84.894,64.194,84.9,64.1,84.9,64c0-0.125-0.013-0.244-0.036-0.356
	c-0.023-0.112-0.058-0.219-0.101-0.319s-0.097-0.194-0.158-0.281c-0.061-0.088-0.13-0.169-0.205-0.244s-0.162-0.144-0.259-0.206
	c-0.097-0.062-0.203-0.119-0.316-0.169c-0.113-0.05-0.231-0.094-0.353-0.131c-0.122-0.038-0.247-0.069-0.372-0.094
	c-0.1-0.025-0.219-0.044-0.359-0.058s-0.303-0.023-0.491-0.029c-0.188-0.007-0.4-0.01-0.641-0.011S81.1,62.1,80.8,62.1
	c0,0-0.094,0-0.234,0s-0.328,0-0.516,0s-0.375,0-0.516,0S79.3,62.1,79.3,62.1z"/>
</svg>
