<svg xmlns="http://www.w3.org/2000/svg" viewBox="0 0 100 100"><path d="M13,59.65V28.49H33.12v5.27H18.47v6.91H32.1v5.25H18.47V54.4H33.64v5.25Z"/><path d="M34,60H12.62V28.11H33.49v6H18.85v6.16H32.47v6H18.85V54H34Zm-20.64-.75H33.26v-4.5H18.1V45.54H31.72V41H18.1V33.38H32.74V28.86H13.37Z" fill="#fff"/><path d="M37.4,59.65V28.49h7.94l4.77,21.25,4.71-21.25h8V59.65H57.85V35.12L52.63,59.65h-5.1l-5.2-24.53V59.65Z"/><path d="M63.15,60H57.47V38.69L52.94,60H47.22L42.7,38.7V60H37V28.11h8.62L50.1,48l4.42-19.91h8.63Zm-4.93-.75H62.4V28.86H55.12l-5,22.61L45,28.86H37.77V59.27H42V31.54l5.88,27.73h4.5l5.89-27.72Z" fill="#fff"/><path d="M66.7,49.51l5.16-.6a8,8,0,0,0,1.89,4.53,5.13,5.13,0,0,0,3.84,1.45,5.29,5.29,0,0,0,3.87-1.29,4.12,4.12,0,0,0,1.29-3,3.23,3.23,0,0,0-.54-1.88,4.47,4.47,0,0,0-1.91-1.35c-.62-.25-2-.71-4.25-1.36-2.84-.83-4.84-1.86-6-3.08a8.77,8.77,0,0,1-2.42-6.27,9.07,9.07,0,0,1,1.14-4.45A7.48,7.48,0,0,1,72.07,29,11.35,11.35,0,0,1,77.24,28c3.29,0,5.77.85,7.44,2.57a9.86,9.86,0,0,1,2.63,6.86L82,37.67a5.71,5.71,0,0,0-1.46-3.45,4.72,4.72,0,0,0-3.36-1.06,5.37,5.37,0,0,0-3.62,1.13,2.42,2.42,0,0,0-.84,1.93,2.58,2.58,0,0,0,.79,1.9c.67.66,2.29,1.36,4.87,2.08a23.18,23.18,0,0,1,5.73,2.24A8.08,8.08,0,0,1,87,45.61a10.61,10.61,0,0,1,1,5,10.42,10.42,0,0,1-1.26,5,7.94,7.94,0,0,1-3.54,3.48,13,13,0,0,1-5.72,1.13q-5,0-7.65-2.73C68.11,55.65,67,53,66.7,49.51Z"/><path d="M77.54,60.58c-3.41,0-6.07-1-7.92-2.85s-2.94-4.62-3.29-8.18l0-.37,5.89-.68,0,.36A7.74,7.74,0,0,0,74,53.18a4.72,4.72,0,0,0,3.57,1.33,5,5,0,0,0,3.6-1.17,3.73,3.73,0,0,0,1.19-2.75,2.81,2.81,0,0,0-.48-1.66,3.92,3.92,0,0,0-1.75-1.22c-.6-.25-2-.7-4.2-1.35-2.9-.85-5-1.92-6.16-3.18a9.24,9.24,0,0,1-2.52-6.53A9.47,9.47,0,0,1,68.46,32,7.94,7.94,0,0,1,71.9,28.7a11.8,11.8,0,0,1,5.34-1.12c3.38,0,6,.9,7.71,2.69a10.26,10.26,0,0,1,2.73,7.11v.37l-6,.31-.05-.34a5.39,5.39,0,0,0-1.35-3.23,4.41,4.41,0,0,0-3.1-1,5,5,0,0,0-3.37,1,2,2,0,0,0-.71,1.65,2.21,2.21,0,0,0,.67,1.63c.62.62,2.21,1.29,4.71,2a23.84,23.84,0,0,1,5.83,2.28,8.38,8.38,0,0,1,3,3.32,10.93,10.93,0,0,1,1.09,5.13,10.81,10.81,0,0,1-1.3,5.2,8.29,8.29,0,0,1-3.71,3.63A13.21,13.21,0,0,1,77.54,60.58ZM67.11,49.84a12.27,12.27,0,0,0,3,7.37c1.69,1.74,4.18,2.62,7.38,2.62a12.5,12.5,0,0,0,5.55-1.1,7.64,7.64,0,0,0,3.38-3.32,10,10,0,0,0,1.21-4.84,10.29,10.29,0,0,0-1-4.79,7.77,7.77,0,0,0-2.77-3,22.76,22.76,0,0,0-5.63-2.2c-2.67-.75-4.31-1.46-5-2.18a3,3,0,0,1-.89-2.16,2.8,2.8,0,0,1,1-2.22,5.79,5.79,0,0,1,3.86-1.21,5.16,5.16,0,0,1,3.62,1.15,5.86,5.86,0,0,1,1.52,3.34l4.6-.24a9.42,9.42,0,0,0-2.51-6.25c-1.58-1.63-4-2.46-7.17-2.46a11,11,0,0,0-5,1,7.15,7.15,0,0,0-3.12,3A8.68,8.68,0,0,0,68,36.65a8.46,8.46,0,0,0,2.32,6c1.1,1.17,3,2.17,5.82,3,2.24.67,3.65,1.11,4.28,1.38a4.73,4.73,0,0,1,2.08,1.48,3.6,3.6,0,0,1,.61,2.09,4.52,4.52,0,0,1-1.41,3.28,5.68,5.68,0,0,1-4.13,1.39,5.54,5.54,0,0,1-4.11-1.55,8.15,8.15,0,0,1-1.93-4.38Z" fill="#fff"/><path d="M9.9,72.25v-10h5.36a8.89,8.89,0,0,1,2.62.31,3.35,3.35,0,0,1,1.55.92A1.94,1.94,0,0,1,20,64.85a1.8,1.8,0,0,1-.49,1.2A3.6,3.6,0,0,1,18,67a4,4,0,0,1,2,.9,2,2,0,0,1,.69,1.51,2.24,2.24,0,0,1-.42,1.3,2.9,2.9,0,0,1-1.05.92,5.21,5.21,0,0,1-1.56.49,13.65,13.65,0,0,1-2.31.17Zm1.89-5.77h3.09a10.69,10.69,0,0,0,1.8-.11,2.26,2.26,0,0,0,1.09-.5,1.15,1.15,0,0,0,.36-.87,1.24,1.24,0,0,0-.34-.87,1.78,1.78,0,0,0-1-.51,11.06,11.06,0,0,0-2.18-.14H11.79Zm0,4.6h3.55a12.11,12.11,0,0,0,1.29,0,4.44,4.44,0,0,0,1.09-.27,1.81,1.81,0,0,0,.72-.56,1.31,1.31,0,0,0,.29-.83,1.34,1.34,0,0,0-.41-1,2.37,2.37,0,0,0-1.14-.58,10.07,10.07,0,0,0-2.09-.16h-3.3Z" fill="#666"/><path d="M23.89,72.25v-10h5.65a9.53,9.53,0,0,1,2.6.27,2.76,2.76,0,0,1,1.41,1,2.33,2.33,0,0,1,.53,1.5,2.23,2.23,0,0,1-.87,1.78,5.09,5.09,0,0,1-2.72.92,4.83,4.83,0,0,1,1,.5,7.49,7.49,0,0,1,1.4,1.32l2.22,2.71H33l-1.69-2.07c-.5-.6-.9-1.05-1.22-1.37a3.68,3.68,0,0,0-.86-.67,3.18,3.18,0,0,0-.77-.26,6.57,6.57,0,0,0-.94,0h-2v4.42Zm1.69-5.56H29.2A7.1,7.1,0,0,0,31,66.51a1.94,1.94,0,0,0,1-.6,1.35,1.35,0,0,0-.31-2,3.66,3.66,0,0,0-2.08-.46h-4Z" fill="#666"/><path d="M36.53,72.25l5.32-10h2l5.67,10H47.41l-1.61-3H40l-1.52,3Zm4-4.08h4.7l-1.45-2.76a21.7,21.7,0,0,1-1-2.06,10.41,10.41,0,0,1-.75,1.9Z" fill="#666"/><path d="M51.94,72.25v-10h1.74l6.75,7.81V62.3h1.62v10H60.31l-6.74-7.82v7.82Z" fill="#666"/><path d="M75.29,68.76l1.73.33a4.47,4.47,0,0,1-2,2.48,6.6,6.6,0,0,1-3.46.85,7.72,7.72,0,0,1-3.44-.66,4.51,4.51,0,0,1-2-1.89,5.42,5.42,0,0,1-.69-2.67,4.74,4.74,0,0,1,.78-2.71,4.85,4.85,0,0,1,2.22-1.76,8.23,8.23,0,0,1,3.18-.6,6.66,6.66,0,0,1,3.3.76A4.09,4.09,0,0,1,76.79,65l-1.7.31a3.08,3.08,0,0,0-1.32-1.58,4.24,4.24,0,0,0-2.18-.5,5.22,5.22,0,0,0-2.52.55,3.07,3.07,0,0,0-1.42,1.48,4.53,4.53,0,0,0-.41,1.91,4.83,4.83,0,0,0,.48,2.21,3.08,3.08,0,0,0,1.52,1.41,5.14,5.14,0,0,0,2.22.47,4.54,4.54,0,0,0,2.46-.63A3.22,3.22,0,0,0,75.29,68.76Z" fill="#666"/><path d="M80.25,72.25v-10h1.66v4.09h6.53V62.3H90.1v10H88.44V67.56H81.91v4.69Z" fill="#666"/></svg>