<?xml version="1.0" encoding="utf-8"?>
<!-- Generator: Adobe Illustrator 25.3.1, SVG Export Plug-In . SVG Version: 6.00 Build 0)  -->
<svg version="1.1" id="Layer_1" xmlns="http://www.w3.org/2000/svg" xmlns:xlink="http://www.w3.org/1999/xlink" x="0px" y="0px"
	 viewBox="0 0 100 100" style="enable-background:new 0 0 100 100;" xml:space="preserve">

	<path d="M67.9,39.2c-1.5,0-2.9,0-4.4,0c0-1.9,0-3.6,0-5.4c5.5,0,10.9,0,16.4,0c0,1.8,0,3.5,0,5.3c-1.5,0-2.9,0-4.5,0
		c0,7.3,0,14.4,0,21.7c1.4,0,2.9,0,4.4,0c0,1.9,0,3.6,0,5.5c-5.5,0-10.9,0-16.4,0c0-1.8,0-3.4,0-5.3c1.5,0,2.9,0,4.4,0
		C67.9,53.6,67.9,46.5,67.9,39.2z"/>
	<path d="M53.7,60.8c1.4,0,2.8,0,4.3,0c0,1.9,0,3.6,0,5.4c-5.4,0-10.8,0-16.3,0c0-1.8,0-3.4,0-5.3c1.5,0,2.9,0,4.5,0
		c0-7.3,0-14.4,0-21.7c-1.4,0-2.9,0-4.5,0c0-1.9,0-3.6,0-5.4c5.4,0,10.8,0,16.3,0c0,1.7,0,3.4,0,5.3c-1.4,0-2.8,0-4.4,0
		C53.7,46.3,53.7,53.4,53.7,60.8z"/>
	<path d="M36.5,39.2c-1.6,0-2.9,0-4.5,0c0,7.2,0,14.3,0,21.6c1.4,0,2.9,0,4.4,0c0,1.9,0,3.6,0,5.5c-5.4,0-10.8,0-16.3,0
		c0-1.8,0-3.4,0-5.4c1.5,0,3,0,4.5,0c0-7.3,0-14.4,0-21.7c-1.5,0-2.9,0-4.5,0c0-1.9,0-3.6,0-5.4c5.4,0,10.8,0,16.3,0
		C36.5,35.5,36.5,37.2,36.5,39.2z"/>

</svg>
