<?xml version="1.0" encoding="utf-8"?>
<!-- Generator: Adobe Illustrator 25.2.0, SVG Export Plug-In . SVG Version: 6.00 Build 0)  -->
<svg version="1.1" id="Layer_1" xmlns="http://www.w3.org/2000/svg" xmlns:xlink="http://www.w3.org/1999/xlink" x="0px" y="0px"
	 viewBox="0 0 100 100" style="enable-background:new 0 0 100 100;" xml:space="preserve">
<g>
	<g>
		<path d="M70,73.8H33.4v-5.9h11.7v-18H33.4v-5.6c1.7,0,3.4-0.1,5.1-0.2s3-0.4,4.1-0.7c1.2-0.4,2.1-0.9,2.8-1.5
			c0.7-0.6,1-1.4,1.1-2.3h12.1v28.2H70V73.8z"/>
	</g>
	<g>
		<path d="M20.4,32.3c0,1.1-0.3,2-0.8,2.9c-0.5,0.8-1.2,1.5-2.1,2c-0.7,0.4-1.4,0.6-2.2,0.7C14.5,38,13.6,38,12.4,38H9.2V26.5h3.2
			c1.3,0,2.4,0.1,3.1,0.2c0.8,0.2,1.4,0.4,1.9,0.7c0.9,0.5,1.6,1.1,2.1,2C20.1,30.2,20.4,31.1,20.4,32.3z M18.4,32.2
			c0-0.9-0.2-1.6-0.5-2.3c-0.4-0.6-0.9-1.1-1.6-1.5c-0.5-0.2-1-0.4-1.6-0.5c-0.6-0.1-1.3-0.2-2.1-0.2h-1.4v8.9h1.4
			c0.8,0,1.6-0.1,2.2-0.2c0.6-0.1,1.2-0.3,1.7-0.6c0.7-0.4,1.1-0.8,1.5-1.4S18.4,33.1,18.4,32.2z"/>
		<path d="M27.4,38h-5.5v-1.2h1.8v-9.2h-1.8v-1.2h5.5v1.2h-1.8v9.2h1.8V38z"/>
		<path d="M40,26.5L35.1,38h-2l-4.9-11.6h2l3.9,9.6l3.9-9.6H40z"/>
		<path d="M46.3,38h-5.5v-1.2h1.8v-9.2h-1.8v-1.2h5.5v1.2h-1.8v9.2h1.8V38z"/>
		<path d="M52.6,38.2c-1,0-1.9-0.1-2.6-0.3c-0.7-0.2-1.4-0.4-2-0.6v-1.9h0.1c0.6,0.5,1.3,0.8,2.1,1.1c0.8,0.3,1.5,0.4,2.3,0.4
			c1,0,1.8-0.2,2.4-0.5c0.5-0.4,0.8-0.8,0.8-1.4c0-0.5-0.1-0.8-0.4-1.1c-0.3-0.3-0.7-0.5-1.3-0.6c-0.4-0.1-0.8-0.2-1.2-0.3
			c-0.4-0.1-0.8-0.2-1.4-0.3c-0.5-0.1-0.9-0.2-1.3-0.4c-0.4-0.2-0.7-0.4-1-0.6c-0.3-0.3-0.5-0.6-0.7-0.9c-0.2-0.3-0.2-0.7-0.2-1.2
			c0-0.9,0.4-1.7,1.3-2.4c0.9-0.6,2-1,3.4-1c0.8,0,1.5,0.1,2.3,0.2c0.7,0.1,1.4,0.3,2,0.6v1.8h-0.1c-0.5-0.3-1-0.6-1.7-0.9
			c-0.7-0.3-1.4-0.4-2.2-0.4c-0.9,0-1.6,0.2-2.1,0.5c-0.5,0.3-0.8,0.8-0.8,1.3c0,0.5,0.2,0.9,0.5,1.2c0.3,0.3,0.8,0.5,1.4,0.6
			c0.4,0.1,0.9,0.2,1.5,0.3c0.6,0.1,1.1,0.2,1.4,0.3c1,0.2,1.7,0.6,2.1,1.1c0.5,0.5,0.7,1.1,0.7,1.8c0,0.5-0.1,0.9-0.3,1.3
			s-0.5,0.8-0.9,1.1c-0.5,0.3-1,0.6-1.6,0.8C54.2,38.1,53.5,38.2,52.6,38.2z"/>
		<path d="M64.5,38H59v-1.2h1.8v-9.2H59v-1.2h5.5v1.2h-1.8v9.2h1.8V38z"/>
		<path d="M76.9,27.8c0.5,0.5,1,1.1,1.3,1.9c0.3,0.8,0.4,1.6,0.4,2.6c0,0.9-0.1,1.8-0.4,2.5c-0.3,0.8-0.7,1.4-1.3,1.9
			c-0.6,0.5-1.3,0.9-2,1.2c-0.8,0.3-1.6,0.4-2.6,0.4c-1,0-1.8-0.1-2.6-0.4s-1.4-0.7-2-1.2c-0.5-0.5-1-1.1-1.3-1.9
			C66.2,34,66,33.2,66,32.3c0-1,0.1-1.8,0.4-2.6s0.7-1.4,1.3-1.9c0.5-0.5,1.2-0.9,2-1.2c0.8-0.3,1.6-0.4,2.6-0.4
			c1,0,1.8,0.1,2.6,0.4S76.4,27.3,76.9,27.8z M76.6,32.3c0-0.8-0.1-1.4-0.3-2c-0.2-0.6-0.5-1.1-0.9-1.5c-0.4-0.4-0.8-0.7-1.4-0.9
			s-1.1-0.3-1.8-0.3c-0.7,0-1.3,0.1-1.8,0.3c-0.5,0.2-1,0.5-1.4,0.9c-0.4,0.4-0.7,0.9-0.9,1.5s-0.3,1.3-0.3,2c0,1.5,0.4,2.7,1.2,3.5
			s1.8,1.2,3.1,1.2s2.4-0.4,3.1-1.2S76.6,33.8,76.6,32.3z"/>
		<path d="M90.8,38h-2.1l-6.3-10v10h-1.8V26.5h2.7l5.7,9.1v-9.1h1.8V38z"/>
	</g>
</g>
</svg>
