<?xml version="1.0" encoding="iso-8859-1"?>
<!-- Generator: Adobe Illustrator 25.4.1, SVG Export Plug-In . SVG Version: 6.00 Build 0)  -->
<svg version="1.1" id="Layer_1" xmlns="http://www.w3.org/2000/svg" xmlns:xlink="http://www.w3.org/1999/xlink" x="0px" y="0px"
	 viewBox="0 0 100 100" style="enable-background:new 0 0 100 100;" xml:space="preserve">
<path d="M20.4,32.2c0,0.275-0.019,0.537-0.055,0.791c-0.036,0.253-0.089,0.497-0.157,0.734c-0.069,0.237-0.153,0.469-0.252,0.697
	c-0.099,0.228-0.211,0.453-0.336,0.678c-0.125,0.2-0.262,0.394-0.413,0.58c-0.15,0.186-0.312,0.364-0.487,0.532
	c-0.175,0.169-0.362,0.328-0.562,0.477c-0.2,0.148-0.413,0.286-0.638,0.411c-0.175,0.1-0.35,0.188-0.527,0.264
	s-0.354,0.142-0.535,0.199s-0.365,0.103-0.555,0.142c-0.189,0.039-0.383,0.07-0.583,0.095c-0.175,0.025-0.369,0.05-0.578,0.073
	c-0.209,0.024-0.434,0.046-0.672,0.065c-0.238,0.018-0.488,0.034-0.747,0.045C13.044,37.994,12.775,38,12.5,38h-0.825H10.85h-0.825
	H9.2v-2.9v-2.9v-2.9v-2.9H10h0.8h0.8h0.8c0.325,0,0.637,0.006,0.934,0.017c0.297,0.011,0.578,0.026,0.841,0.045
	c0.262,0.019,0.506,0.041,0.728,0.064c0.222,0.023,0.422,0.049,0.597,0.073c0.2,0.05,0.387,0.1,0.564,0.152
	c0.177,0.052,0.342,0.104,0.498,0.16c0.156,0.057,0.303,0.116,0.442,0.18s0.27,0.133,0.395,0.208
	c0.225,0.125,0.438,0.256,0.638,0.397c0.2,0.141,0.387,0.291,0.562,0.453s0.337,0.338,0.487,0.528s0.288,0.397,0.413,0.622
	c0.15,0.2,0.281,0.413,0.394,0.636s0.206,0.458,0.281,0.701c0.076,0.244,0.132,0.497,0.17,0.758
	C20.381,31.656,20.4,31.925,20.4,32.2z M18.4,32.2c0-0.225-0.012-0.438-0.036-0.641s-0.058-0.397-0.102-0.584
	s-0.097-0.369-0.158-0.547c-0.061-0.178-0.129-0.353-0.204-0.528c-0.1-0.15-0.206-0.294-0.32-0.431s-0.236-0.269-0.368-0.394
	c-0.131-0.125-0.271-0.244-0.423-0.356C16.638,28.606,16.475,28.5,16.3,28.4c-0.125-0.05-0.25-0.1-0.377-0.149
	s-0.255-0.096-0.385-0.139s-0.266-0.084-0.405-0.12S14.85,27.925,14.7,27.9s-0.306-0.05-0.469-0.073
	c-0.163-0.024-0.331-0.046-0.506-0.065s-0.356-0.035-0.544-0.045C12.994,27.706,12.8,27.7,12.6,27.7h-0.35H11.9h-0.35H11.2v2.225
	v2.225v2.225V36.6h0.35h0.35h0.35h0.35c0.2,0,0.4-0.006,0.597-0.017c0.197-0.011,0.391-0.026,0.578-0.045s0.369-0.041,0.541-0.064
	S14.65,36.425,14.8,36.4s0.3-0.056,0.448-0.094c0.148-0.037,0.295-0.081,0.439-0.131c0.144-0.05,0.285-0.106,0.42-0.169
	s0.267-0.131,0.392-0.206c0.175-0.1,0.331-0.2,0.473-0.303c0.142-0.103,0.271-0.209,0.39-0.322c0.119-0.113,0.228-0.231,0.333-0.359
	C17.8,34.688,17.9,34.55,18,34.4s0.175-0.306,0.231-0.47c0.056-0.164,0.094-0.336,0.119-0.517c0.025-0.182,0.038-0.372,0.044-0.574
	C18.4,32.638,18.4,32.425,18.4,32.2z"/>
<path d="M27.4,38h-1.375H24.65h-1.375H21.9v-0.3v-0.3v-0.3v-0.3h0.45h0.45h0.45h0.45v-2.3v-2.3v-2.3v-2.3h-0.45H22.8h-0.45H21.9
	v-0.3V27v-0.3v-0.3h1.375h1.375h1.375H27.4v0.3V27v0.3v0.3h-0.45H26.5h-0.45H25.6v2.3v2.3v2.3v2.3h0.45h0.45h0.45h0.45v0.3v0.3v0.3
	V38z"/>
<path d="M40,26.4l-1.225,2.9l-1.225,2.9l-1.225,2.9L35.1,38h-0.5h-0.5h-0.5h-0.5l-1.225-2.9l-1.225-2.9l-1.225-2.9L28.2,26.4h0.5
	h0.5h0.5h0.5l0.975,2.4l0.975,2.4l0.975,2.4L34.1,36l0.975-2.4l0.975-2.4l0.975-2.4L38,26.4h0.5H39h0.5H40z"/>
<path d="M46.3,38h-1.375H43.55h-1.375H40.8v-0.3v-0.3v-0.3v-0.3h0.45h0.45h0.45h0.45v-2.3v-2.3v-2.3v-2.3h-0.45H41.7h-0.45H40.8
	v-0.3V27v-0.3v-0.3h1.375h1.375h1.375H46.3v0.3V27v0.3v0.3h-0.45H45.4h-0.45H44.5v2.3v2.3v2.3v2.3h0.45h0.45h0.45h0.45v0.3v0.3v0.3
	V38z"/>
<path d="M52.6,38.2c-0.25,0-0.494-0.006-0.73-0.019c-0.236-0.013-0.464-0.031-0.682-0.056c-0.219-0.025-0.429-0.056-0.627-0.094
	C50.362,37.994,50.175,37.95,50,37.9s-0.35-0.1-0.523-0.15c-0.174-0.05-0.346-0.1-0.514-0.15c-0.168-0.05-0.334-0.1-0.495-0.15
	S48.15,37.35,48,37.3v-0.475V36.35v-0.475V35.4h0.025h0.025h0.025H48.1c0.15,0.125,0.306,0.237,0.469,0.341
	c0.162,0.103,0.331,0.197,0.506,0.284s0.356,0.169,0.544,0.247S50,36.425,50.2,36.5s0.394,0.138,0.584,0.189
	c0.191,0.052,0.378,0.092,0.566,0.123s0.375,0.053,0.566,0.067C52.106,36.894,52.3,36.9,52.5,36.9c0.25,0,0.487-0.013,0.713-0.036
	c0.225-0.024,0.438-0.058,0.637-0.102c0.2-0.044,0.388-0.097,0.562-0.157s0.338-0.13,0.487-0.205c0.125-0.1,0.237-0.2,0.336-0.303
	c0.098-0.103,0.183-0.209,0.251-0.322c0.069-0.113,0.122-0.231,0.158-0.359C55.681,35.287,55.7,35.15,55.7,35
	c0-0.125-0.006-0.237-0.02-0.341c-0.014-0.103-0.036-0.197-0.068-0.284s-0.072-0.169-0.123-0.247S55.375,33.975,55.3,33.9
	s-0.156-0.144-0.245-0.206s-0.186-0.119-0.292-0.169c-0.106-0.05-0.222-0.094-0.349-0.131S54.15,33.325,54,33.3
	c-0.1-0.025-0.2-0.05-0.3-0.075c-0.1-0.025-0.2-0.05-0.3-0.075c-0.1-0.025-0.2-0.05-0.3-0.075C53,33.05,52.9,33.025,52.8,33
	s-0.2-0.05-0.303-0.075s-0.209-0.05-0.322-0.075c-0.113-0.025-0.231-0.05-0.359-0.075c-0.128-0.025-0.266-0.05-0.416-0.075
	c-0.125-0.025-0.244-0.05-0.358-0.076s-0.224-0.055-0.33-0.085s-0.209-0.065-0.311-0.105C50.3,32.394,50.2,32.35,50.1,32.3
	s-0.194-0.1-0.283-0.15s-0.174-0.1-0.255-0.15c-0.081-0.05-0.159-0.1-0.236-0.15c-0.076-0.05-0.152-0.1-0.227-0.15
	c-0.075-0.075-0.144-0.15-0.208-0.225c-0.064-0.075-0.124-0.15-0.18-0.225c-0.056-0.075-0.109-0.15-0.16-0.225
	C48.5,30.95,48.45,30.875,48.4,30.8s-0.088-0.156-0.116-0.244c-0.028-0.087-0.047-0.181-0.059-0.281s-0.019-0.206-0.022-0.319
	C48.2,29.844,48.2,29.725,48.2,29.6c0-0.225,0.025-0.444,0.076-0.656c0.051-0.212,0.129-0.419,0.236-0.619
	c0.106-0.2,0.241-0.394,0.405-0.581c0.164-0.188,0.357-0.369,0.582-0.544c0.225-0.15,0.463-0.287,0.714-0.409
	s0.517-0.228,0.799-0.316s0.578-0.156,0.893-0.203S52.55,26.2,52.9,26.2c0.2,0,0.394,0.006,0.584,0.017
	c0.191,0.011,0.378,0.026,0.566,0.045s0.375,0.041,0.566,0.064S55,26.375,55.2,26.4c0.175,0.025,0.35,0.056,0.523,0.094
	s0.346,0.081,0.514,0.131c0.169,0.05,0.334,0.106,0.495,0.169S57.05,26.925,57.2,27v0.45v0.45v0.45v0.45h-0.025H57.15h-0.025H57.1
	c-0.125-0.075-0.25-0.15-0.378-0.225c-0.128-0.075-0.259-0.15-0.397-0.225s-0.281-0.15-0.434-0.225
	c-0.153-0.075-0.316-0.15-0.491-0.225s-0.35-0.138-0.527-0.189c-0.176-0.052-0.354-0.092-0.535-0.123
	c-0.181-0.031-0.366-0.053-0.555-0.068C53.594,27.506,53.4,27.5,53.2,27.5c-0.225,0-0.438,0.013-0.638,0.036
	c-0.2,0.024-0.387,0.058-0.562,0.102c-0.175,0.043-0.338,0.097-0.487,0.157c-0.15,0.061-0.288,0.13-0.413,0.205
	s-0.237,0.163-0.336,0.259c-0.098,0.097-0.183,0.203-0.251,0.316c-0.069,0.112-0.122,0.231-0.158,0.353
	C50.319,29.05,50.3,29.175,50.3,29.3s0.013,0.244,0.036,0.356c0.023,0.112,0.058,0.219,0.102,0.319
	c0.043,0.1,0.097,0.194,0.157,0.281s0.13,0.169,0.205,0.244s0.163,0.144,0.261,0.206s0.208,0.119,0.327,0.169
	c0.118,0.05,0.246,0.094,0.382,0.131c0.136,0.037,0.28,0.069,0.43,0.094c0.1,0.025,0.206,0.05,0.319,0.075
	c0.112,0.025,0.231,0.05,0.356,0.075s0.256,0.05,0.394,0.075c0.138,0.025,0.281,0.05,0.431,0.075s0.294,0.05,0.43,0.075
	c0.136,0.025,0.264,0.05,0.382,0.075s0.228,0.05,0.327,0.075c0.099,0.025,0.186,0.05,0.261,0.075c0.25,0.05,0.481,0.112,0.694,0.186
	c0.213,0.073,0.406,0.158,0.581,0.252c0.175,0.094,0.331,0.197,0.469,0.307c0.138,0.111,0.256,0.23,0.356,0.355
	c0.125,0.125,0.231,0.256,0.32,0.394c0.089,0.138,0.161,0.281,0.217,0.431c0.056,0.15,0.097,0.306,0.124,0.469
	c0.027,0.162,0.039,0.331,0.039,0.506c0,0.125-0.006,0.244-0.019,0.358c-0.013,0.114-0.031,0.224-0.056,0.33
	c-0.025,0.106-0.056,0.209-0.094,0.311C57.694,35.7,57.65,35.8,57.6,35.9s-0.106,0.2-0.169,0.298
	c-0.062,0.098-0.131,0.195-0.206,0.289s-0.156,0.184-0.244,0.27C56.894,36.843,56.8,36.925,56.7,37
	c-0.125,0.075-0.25,0.15-0.377,0.223c-0.127,0.074-0.255,0.146-0.386,0.215c-0.131,0.069-0.265,0.134-0.404,0.195
	S55.25,37.75,55.1,37.8c-0.225,0.075-0.438,0.138-0.644,0.189c-0.206,0.052-0.406,0.092-0.606,0.123
	c-0.2,0.032-0.4,0.054-0.606,0.068C53.037,38.194,52.825,38.2,52.6,38.2z"/>
<path d="M64.5,38h-1.375H61.75h-1.375H59v-0.3v-0.3v-0.3v-0.3h0.45h0.45h0.45h0.45v-2.3v-2.3v-2.3v-2.3h-0.45H59.9h-0.45H59v-0.3V27
	v-0.3v-0.3h1.375h1.375h1.375H64.5v0.3V27v0.3v0.3h-0.45H63.6h-0.45H62.7v2.3v2.3v2.3v2.3h0.45h0.45h0.45h0.45v0.3v0.3v0.3V38z"/>
<path d="M76.9,27.8c0.125,0.125,0.25,0.256,0.372,0.395c0.122,0.139,0.241,0.286,0.353,0.442c0.113,0.156,0.219,0.322,0.316,0.499
	c0.097,0.177,0.184,0.364,0.259,0.564s0.137,0.4,0.189,0.603c0.051,0.203,0.092,0.409,0.123,0.622
	c0.032,0.212,0.054,0.431,0.068,0.659c0.014,0.228,0.02,0.466,0.02,0.716c0,0.225-0.006,0.45-0.02,0.672
	c-0.014,0.222-0.036,0.441-0.068,0.653s-0.072,0.419-0.123,0.616c-0.051,0.197-0.114,0.384-0.189,0.559
	c-0.075,0.2-0.156,0.388-0.245,0.564c-0.089,0.177-0.186,0.342-0.292,0.498c-0.106,0.157-0.222,0.304-0.349,0.443
	c-0.127,0.139-0.264,0.27-0.414,0.395s-0.306,0.244-0.467,0.356c-0.161,0.112-0.327,0.219-0.496,0.319
	c-0.169,0.1-0.34,0.194-0.514,0.281c-0.173,0.088-0.348,0.169-0.523,0.244c-0.2,0.075-0.4,0.138-0.603,0.189
	c-0.203,0.052-0.409,0.092-0.622,0.123c-0.213,0.031-0.431,0.054-0.659,0.068c-0.228,0.014-0.466,0.02-0.716,0.02
	s-0.488-0.006-0.716-0.02c-0.228-0.014-0.447-0.036-0.659-0.068s-0.419-0.072-0.622-0.123C70.1,38.037,69.9,37.975,69.7,37.9
	s-0.387-0.156-0.566-0.244c-0.178-0.087-0.347-0.181-0.509-0.281s-0.319-0.206-0.472-0.319C68,36.944,67.85,36.825,67.7,36.7
	c-0.125-0.125-0.25-0.256-0.372-0.395c-0.122-0.139-0.241-0.286-0.353-0.442c-0.112-0.157-0.219-0.322-0.316-0.499
	C66.562,35.188,66.475,35,66.4,34.8c-0.05-0.2-0.1-0.4-0.147-0.603c-0.047-0.203-0.091-0.409-0.128-0.622s-0.069-0.431-0.091-0.659
	S66,32.45,66,32.2s0.006-0.487,0.02-0.716c0.014-0.228,0.036-0.447,0.068-0.659s0.072-0.419,0.123-0.622S66.325,29.8,66.4,29.6
	s0.156-0.387,0.245-0.564c0.089-0.177,0.186-0.342,0.292-0.498c0.106-0.156,0.222-0.303,0.349-0.443
	c0.127-0.139,0.264-0.27,0.414-0.395c0.125-0.125,0.262-0.244,0.411-0.356c0.148-0.112,0.308-0.219,0.476-0.319
	c0.169-0.1,0.347-0.194,0.533-0.281s0.38-0.169,0.58-0.244s0.4-0.137,0.603-0.189s0.409-0.092,0.622-0.123
	c0.213-0.031,0.431-0.054,0.659-0.068c0.228-0.014,0.466-0.02,0.716-0.02s0.488,0.006,0.716,0.02
	c0.228,0.014,0.447,0.036,0.659,0.067s0.419,0.072,0.622,0.124S74.7,26.425,74.9,26.5s0.394,0.163,0.58,0.259
	c0.186,0.097,0.364,0.203,0.532,0.316c0.169,0.112,0.328,0.231,0.477,0.353C76.637,27.55,76.775,27.675,76.9,27.8z M76.6,32.2
	c0-0.2-0.006-0.388-0.019-0.566c-0.012-0.178-0.031-0.347-0.056-0.509s-0.056-0.319-0.094-0.472C76.394,30.5,76.35,30.35,76.3,30.2
	s-0.106-0.294-0.169-0.431C76.069,29.631,76,29.5,75.925,29.375s-0.156-0.244-0.244-0.356C75.594,28.906,75.5,28.8,75.4,28.7
	s-0.2-0.194-0.303-0.281c-0.103-0.087-0.209-0.169-0.322-0.244c-0.112-0.075-0.231-0.144-0.359-0.206
	C74.288,27.906,74.15,27.85,74,27.8s-0.294-0.094-0.436-0.131s-0.283-0.069-0.426-0.094c-0.144-0.025-0.291-0.044-0.446-0.056
	C72.537,27.506,72.375,27.5,72.2,27.5s-0.344,0.006-0.506,0.019c-0.162,0.013-0.319,0.031-0.469,0.056
	c-0.15,0.025-0.294,0.056-0.431,0.094S70.525,27.75,70.4,27.8s-0.25,0.106-0.373,0.169c-0.124,0.062-0.245,0.131-0.365,0.206
	c-0.118,0.075-0.234,0.156-0.345,0.244C69.206,28.506,69.1,28.6,69,28.7s-0.194,0.206-0.281,0.319
	c-0.088,0.112-0.169,0.231-0.244,0.356s-0.144,0.256-0.206,0.394C68.206,29.906,68.15,30.05,68.1,30.2s-0.094,0.306-0.131,0.467
	c-0.038,0.161-0.069,0.326-0.094,0.495c-0.025,0.169-0.044,0.341-0.056,0.514C67.806,31.85,67.8,32.025,67.8,32.2
	c0,0.375,0.025,0.731,0.075,1.067c0.05,0.336,0.125,0.652,0.225,0.946c0.1,0.293,0.225,0.565,0.375,0.814
	C68.625,35.275,68.8,35.5,69,35.7s0.412,0.375,0.639,0.525c0.227,0.15,0.467,0.275,0.723,0.375c0.257,0.1,0.529,0.175,0.818,0.225
	S71.775,36.9,72.1,36.9s0.638-0.025,0.934-0.075s0.578-0.125,0.841-0.225s0.506-0.225,0.728-0.375
	c0.222-0.15,0.422-0.325,0.597-0.525s0.35-0.425,0.514-0.673s0.317-0.52,0.449-0.814s0.241-0.609,0.317-0.945
	C76.556,32.932,76.6,32.575,76.6,32.2z"/>
<path d="M90.8,38h-0.525H89.75h-0.525H88.7l-1.575-2.5L85.55,33l-1.575-2.5L82.4,28v2.5V33v2.5V38h-0.45H81.5h-0.45H80.6v-2.9v-2.9
	v-2.9v-2.9h0.675h0.675h0.675H83.3l1.425,2.275l1.425,2.275l1.425,2.275L89,35.5v-2.275V30.95v-2.275V26.4h0.45h0.45h0.45h0.45
	c0,0,0,0.725,0,1.812s0,2.538,0,3.988s0,2.9,0,3.987S90.8,38,90.8,38z"/>
<path d="M72.8,63.8c0,0.35-0.031,0.7-0.095,1.047c-0.064,0.347-0.161,0.691-0.292,1.028c-0.132,0.338-0.297,0.669-0.499,0.991
	C71.713,67.188,71.475,67.5,71.2,67.8c-0.25,0.3-0.537,0.594-0.859,0.88c-0.322,0.286-0.678,0.564-1.066,0.833
	c-0.387,0.269-0.806,0.528-1.253,0.776C67.575,70.538,67.1,70.775,66.6,71s-1.031,0.438-1.592,0.637s-1.151,0.387-1.77,0.562
	c-0.619,0.175-1.266,0.338-1.939,0.488S59.925,72.975,59.2,73.1s-1.475,0.237-2.25,0.336c-0.775,0.099-1.575,0.183-2.4,0.252
	S52.875,73.81,52,73.846S50.225,73.9,49.3,73.9c-1,0-1.962-0.019-2.891-0.055c-0.928-0.036-1.822-0.089-2.684-0.158
	s-1.694-0.153-2.497-0.252c-0.803-0.098-1.578-0.211-2.328-0.336s-1.463-0.263-2.139-0.412c-0.676-0.15-1.317-0.312-1.923-0.488
	c-0.607-0.175-1.178-0.363-1.717-0.562s-1.045-0.412-1.52-0.637c-0.475-0.225-0.919-0.456-1.331-0.695
	c-0.413-0.239-0.794-0.486-1.144-0.743c-0.351-0.256-0.67-0.521-0.957-0.798C27.881,68.488,27.625,68.2,27.4,67.9
	s-0.419-0.6-0.583-0.903s-0.298-0.609-0.404-0.922c-0.107-0.313-0.185-0.631-0.236-0.959C26.125,64.787,26.1,64.45,26.1,64.1
	c0-0.475,0.056-0.931,0.17-1.369c0.114-0.438,0.286-0.856,0.518-1.256s0.522-0.781,0.873-1.144s0.764-0.706,1.239-1.031
	s1-0.631,1.575-0.922c0.575-0.291,1.2-0.566,1.875-0.828s1.4-0.513,2.175-0.753c0.775-0.241,1.6-0.472,2.475-0.697v-0.025V56.05
	v-0.025V56c-0.875-0.25-1.681-0.506-2.42-0.772s-1.411-0.541-2.018-0.828c-0.606-0.287-1.146-0.588-1.623-0.903
	C30.462,53.181,30.05,52.85,29.7,52.5s-0.656-0.706-0.919-1.069c-0.262-0.363-0.481-0.731-0.656-1.106s-0.306-0.756-0.394-1.144
	C27.644,48.794,27.6,48.4,27.6,48c0-0.3,0.031-0.6,0.092-0.897s0.151-0.591,0.27-0.878c0.119-0.287,0.266-0.569,0.44-0.841
	C28.575,45.112,28.775,44.85,29,44.6c0.25-0.275,0.525-0.537,0.826-0.791c0.302-0.253,0.63-0.497,0.986-0.734
	c0.356-0.237,0.741-0.469,1.155-0.697c0.414-0.228,0.858-0.453,1.333-0.678c0.45-0.2,0.931-0.388,1.442-0.564
	c0.511-0.177,1.051-0.342,1.62-0.498s1.166-0.303,1.789-0.442c0.624-0.139,1.274-0.271,1.949-0.396
	c0.7-0.125,1.419-0.231,2.156-0.32c0.737-0.089,1.494-0.161,2.269-0.217c0.775-0.056,1.569-0.097,2.381-0.124
	C47.719,39.112,48.55,39.1,49.4,39.1c0.9,0,1.775,0.013,2.623,0.039c0.848,0.027,1.67,0.067,2.464,0.124
	c0.794,0.056,1.56,0.128,2.295,0.217c0.736,0.089,1.442,0.195,2.118,0.32c0.675,0.1,1.319,0.213,1.933,0.336
	c0.614,0.123,1.199,0.258,1.755,0.401c0.556,0.144,1.084,0.297,1.585,0.458c0.501,0.161,0.976,0.33,1.426,0.505
	s0.875,0.362,1.273,0.561c0.398,0.198,0.77,0.408,1.114,0.627c0.344,0.219,0.66,0.446,0.946,0.682
	c0.286,0.236,0.542,0.48,0.767,0.73c0.25,0.25,0.463,0.513,0.641,0.784c0.178,0.272,0.322,0.553,0.434,0.841
	s0.194,0.581,0.247,0.878S71.1,47.2,71.1,47.5c0,0.4-0.05,0.787-0.15,1.164c-0.1,0.377-0.25,0.742-0.45,1.099
	c-0.2,0.356-0.45,0.703-0.75,1.042s-0.65,0.67-1.05,0.995s-0.856,0.631-1.369,0.922c-0.512,0.291-1.081,0.566-1.706,0.828
	s-1.306,0.513-2.044,0.753C62.844,54.544,62.05,54.775,61.2,55l0,0l0,0l0,0l0,0c0.975,0.225,1.888,0.469,2.736,0.73
	s1.633,0.539,2.352,0.832s1.372,0.603,1.958,0.927c0.586,0.324,1.104,0.661,1.554,1.011c0.525,0.375,0.975,0.763,1.355,1.166
	c0.38,0.403,0.689,0.822,0.933,1.259s0.422,0.894,0.539,1.372C72.744,62.775,72.8,63.275,72.8,63.8z M58.2,64.1
	c0-0.275-0.025-0.531-0.075-0.77C58.075,63.09,58,62.868,57.9,62.662c-0.1-0.206-0.225-0.396-0.375-0.573
	C57.375,61.912,57.2,61.75,57,61.6s-0.463-0.3-0.786-0.453c-0.324-0.153-0.708-0.309-1.152-0.472
	c-0.444-0.163-0.946-0.331-1.507-0.509c-0.561-0.178-1.18-0.366-1.855-0.566c-0.2-0.05-0.419-0.106-0.656-0.167
	s-0.494-0.126-0.769-0.195c-0.275-0.069-0.569-0.141-0.881-0.215C49.081,58.95,48.75,58.875,48.4,58.8s-0.694-0.15-1.03-0.225
	c-0.336-0.075-0.664-0.15-0.983-0.225s-0.628-0.15-0.926-0.225c-0.298-0.075-0.586-0.15-0.861-0.225
	c-0.25,0.15-0.494,0.306-0.733,0.47c-0.239,0.164-0.474,0.336-0.705,0.517c-0.231,0.181-0.459,0.372-0.686,0.574
	c-0.227,0.202-0.451,0.414-0.677,0.639c-0.2,0.225-0.375,0.456-0.525,0.692c-0.15,0.236-0.275,0.477-0.375,0.721
	c-0.1,0.244-0.175,0.49-0.225,0.739S40.6,62.75,40.6,63c0,0.375,0.056,0.737,0.167,1.084c0.111,0.347,0.276,0.678,0.495,0.991
	s0.491,0.606,0.814,0.878c0.324,0.272,0.699,0.522,1.124,0.747s0.888,0.425,1.388,0.598c0.5,0.173,1.037,0.32,1.612,0.439
	c0.575,0.119,1.188,0.21,1.838,0.271c0.65,0.061,1.337,0.092,2.062,0.092c0.2,0,0.4-0.006,0.603-0.017
	c0.203-0.011,0.409-0.026,0.622-0.045s0.431-0.04,0.659-0.064S52.45,67.925,52.7,67.9s0.494-0.062,0.73-0.109
	c0.236-0.047,0.464-0.103,0.682-0.166s0.428-0.131,0.627-0.203s0.386-0.147,0.561-0.222c0.2-0.075,0.394-0.156,0.58-0.244
	s0.364-0.181,0.532-0.281c0.169-0.1,0.329-0.206,0.477-0.319c0.148-0.112,0.286-0.231,0.411-0.356s0.244-0.256,0.352-0.395
	c0.108-0.139,0.205-0.286,0.286-0.443c0.081-0.156,0.146-0.322,0.192-0.498S58.2,64.3,58.2,64.1z M56.9,48.4
	c0-0.275-0.044-0.537-0.13-0.787c-0.086-0.25-0.214-0.488-0.383-0.713c-0.169-0.225-0.378-0.438-0.626-0.638
	S55.225,45.875,54.9,45.7s-0.681-0.325-1.069-0.452s-0.806-0.23-1.256-0.311c-0.45-0.081-0.931-0.14-1.444-0.179
	C50.619,44.719,50.075,44.7,49.5,44.7c-0.55,0-1.069,0.019-1.559,0.056c-0.491,0.037-0.953,0.094-1.391,0.169
	s-0.85,0.169-1.241,0.281S44.55,45.45,44.2,45.6c-0.325,0.15-0.612,0.312-0.861,0.486s-0.458,0.358-0.626,0.551
	s-0.297,0.397-0.383,0.608s-0.13,0.43-0.13,0.655s0.025,0.438,0.075,0.639c0.05,0.201,0.125,0.392,0.225,0.573
	c0.1,0.181,0.225,0.353,0.375,0.517S43.2,49.95,43.4,50.1c0.2,0.125,0.431,0.25,0.691,0.375c0.259,0.125,0.547,0.25,0.859,0.375
	s0.65,0.25,1.009,0.375S46.7,51.475,47.1,51.6c0.175,0.05,0.362,0.1,0.561,0.15c0.198,0.05,0.408,0.1,0.627,0.15
	s0.447,0.1,0.683,0.15c0.236,0.05,0.479,0.1,0.729,0.15s0.525,0.106,0.823,0.169s0.62,0.131,0.965,0.206s0.709,0.156,1.095,0.244
	C52.969,52.906,53.375,53,53.8,53.1c0.25-0.2,0.487-0.394,0.711-0.583c0.223-0.189,0.433-0.374,0.626-0.555
	c0.194-0.181,0.372-0.359,0.533-0.536c0.161-0.176,0.305-0.351,0.43-0.526c0.15-0.2,0.275-0.4,0.378-0.602
	c0.103-0.202,0.184-0.405,0.247-0.611c0.062-0.206,0.106-0.415,0.134-0.629S56.9,48.625,56.9,48.4z"/>
</svg>
