<?xml version="1.0" encoding="iso-8859-1"?>
<!-- Generator: Adobe Illustrator 25.4.1, SVG Export Plug-In . SVG Version: 6.00 Build 0)  -->
<svg version="1.1" id="Layer_1" xmlns="http://www.w3.org/2000/svg" xmlns:xlink="http://www.w3.org/1999/xlink" x="0px" y="0px"
	 viewBox="0 0 100 100" style="enable-background:new 0 0 100 100;" xml:space="preserve">
<path d="M16.6,63.5l-2-10.6l-2-10.6l-2-10.6l-2-10.6h1.2H11h1.2h1.2l1.4,7.85l1.4,7.85l1.45,7.85l1.45,7.85l1.45-7.85L22,36.8
	l1.4-7.85l1.4-7.85H26h1.2h1.2h1.2l-2,10.6l-2,10.6l-2,10.6l-2,10.6h-1.3H19h-1.2H16.6z"/>
<path d="M31.7,63.5V52.9V42.3V31.7V21.1h4.15H40h4.15h4.15v1.8v1.8v1.8v1.8h-3h-3h-3h-3v2.35V33v2.35v2.35h2.85H42h2.85h2.85v1.75
	v1.75v1.75v1.75h-2.85H42h-2.85H36.3v2.9v2.9v2.9v2.9h3.1h3.1h3.1h3.1v1.8v1.8v1.8v1.8h-4.25H40.2l-4.25,0H31.7L31.7,63.5L31.7,63.5
	L31.7,63.5L31.7,63.5z"/>
<path d="M52.7,63.5V52.9V42.3V31.7V21.1h1.1h1.1H56h1.1l2.3,7.05l2.3,7.05l2.3,7.1l2.3,7.1v-7.05V35.3v-7.1v-7.1h1.05h1.05h1.05
	h1.05v10.6v10.6v10.6v10.6h-1.1h-1.1h-1.15H66l-2.25-6.9l-2.25-6.9l-2.25-6.9L57,35.9v6.9v6.9v6.9v6.9h-1.1h-1.1h-1.05H52.7z"/>
<path d="M80.3,63.5v-8.8v-8.8v-8.8v-8.8h-1.65H77h-1.7h-1.7v-1.8v-1.8v-1.8v-1.8h4.45h4.45h4.45h4.45v1.8v1.8v1.8v1.8h-1.65H88.1
	h-1.65H84.8v8.8v8.8v8.8v8.8h-1.1h-1.1h-1.15H80.3z"/>
<path d="M18.4,73.9v-0.55V72.8v-0.55V71.7h1.7h1.7h1.7h1.7V73v1.3v1.3v1.3c-0.15,0.1-0.35,0.225-0.562,0.35S24.2,77.5,24,77.6
	c-0.25,0.1-0.5,0.225-0.775,0.35C22.95,78.075,22.65,78.2,22.3,78.3c-0.3,0.1-0.6,0.175-0.913,0.238
	C21.075,78.6,20.75,78.65,20.4,78.7c-0.3,0.05-0.625,0.1-0.95,0.137C19.125,78.875,18.8,78.9,18.5,78.9
	c-0.4,0-0.775-0.025-1.137-0.062C17,78.8,16.65,78.75,16.3,78.7s-0.7-0.15-1.038-0.275S14.6,78.15,14.3,78s-0.575-0.325-0.838-0.512
	S12.95,77.1,12.7,76.9s-0.45-0.4-0.625-0.613S11.75,75.85,11.6,75.6c-0.15-0.3-0.275-0.575-0.387-0.85S11,74.2,10.9,73.9
	s-0.15-0.6-0.175-0.9C10.7,72.7,10.7,72.4,10.7,72.1c0-0.35,0.025-0.675,0.062-0.988C10.8,70.8,10.85,70.5,10.9,70.2
	c0.1-0.3,0.2-0.6,0.325-0.887S11.5,68.75,11.7,68.5c0.2-0.25,0.4-0.5,0.613-0.738C12.525,67.525,12.75,67.3,13,67.1
	s0.525-0.375,0.812-0.537C14.1,66.4,14.4,66.25,14.7,66.1c0.25-0.1,0.525-0.175,0.812-0.25S16.1,65.7,16.4,65.6
	c0.3-0.05,0.625-0.1,0.962-0.137S18.05,65.4,18.4,65.4c0.5,0,0.95,0.025,1.362,0.062C20.175,65.5,20.55,65.55,20.9,65.6
	c0.4,0.1,0.75,0.2,1.075,0.325C22.3,66.05,22.6,66.2,22.9,66.4s0.55,0.4,0.775,0.6c0.225,0.2,0.425,0.4,0.625,0.6
	c0.15,0.25,0.3,0.5,0.425,0.762C24.85,68.625,24.95,68.9,25,69.2l-0.8,0.1l-0.8,0.1l-0.8,0.1l-0.8,0.1
	c-0.05-0.15-0.1-0.3-0.175-0.438C21.55,69.025,21.45,68.9,21.3,68.8s-0.275-0.225-0.4-0.35c-0.125-0.125-0.25-0.25-0.4-0.35
	s-0.3-0.175-0.462-0.238S19.7,67.75,19.5,67.7s-0.4-0.1-0.612-0.137S18.45,67.5,18.2,67.5c-0.35,0-0.675,0.025-0.987,0.075
	C16.9,67.625,16.6,67.7,16.3,67.8c-0.3,0.1-0.55,0.225-0.775,0.362C15.3,68.3,15.1,68.45,14.9,68.6s-0.375,0.35-0.525,0.575
	C14.225,69.4,14.1,69.65,14,69.9s-0.175,0.55-0.225,0.875C13.725,71.1,13.7,71.45,13.7,71.8c0,0.4,0.025,0.75,0.075,1.075
	C13.825,73.2,13.9,73.5,14,73.8s0.225,0.575,0.375,0.825S14.7,75.1,14.9,75.3s0.425,0.375,0.662,0.525S16.05,76.1,16.3,76.2
	s0.525,0.175,0.825,0.225c0.3,0.05,0.625,0.075,0.975,0.075c0.15,0,0.325,0,0.5-0.012c0.175-0.013,0.35-0.037,0.5-0.088
	s0.3-0.075,0.462-0.1s0.337-0.05,0.538-0.1c0.15-0.05,0.3-0.1,0.45-0.162C20.7,75.975,20.85,75.9,21,75.8
	c0.15-0.05,0.275-0.125,0.4-0.2c0.125-0.075,0.25-0.15,0.4-0.2V75v-0.4v-0.3V74h-0.9H20l-0.8-0.05L18.4,73.9L18.4,73.9L18.4,73.9
	L18.4,73.9L18.4,73.9z"/>
<path d="M28,78.7v-3.25V72.2v-3.25V65.7h1.65h1.65h1.65h1.65c0.4,0,0.8,0,1.175,0.012C36.15,65.725,36.5,65.75,36.8,65.8
	c0.3,0,0.575,0.025,0.812,0.062S38.05,65.95,38.2,66c0.2,0.05,0.4,0.1,0.575,0.162S39.1,66.3,39.2,66.4
	c0.15,0.1,0.275,0.225,0.4,0.363C39.725,66.9,39.85,67.05,40,67.2c0.1,0.15,0.2,0.3,0.288,0.463C40.375,67.825,40.45,68,40.5,68.2
	c0.05,0.15,0.1,0.325,0.138,0.5c0.037,0.175,0.062,0.35,0.062,0.5c0,0.25-0.025,0.475-0.062,0.688C40.6,70.1,40.55,70.3,40.5,70.5
	c-0.1,0.2-0.2,0.4-0.325,0.588S39.9,71.45,39.7,71.6s-0.4,0.3-0.612,0.438C38.875,72.175,38.65,72.3,38.4,72.4
	s-0.525,0.175-0.825,0.238C37.275,72.7,36.95,72.75,36.6,72.8c0.15,0.1,0.325,0.175,0.487,0.25C37.25,73.125,37.4,73.2,37.5,73.3
	c0.15,0.1,0.275,0.2,0.4,0.3c0.125,0.1,0.25,0.2,0.4,0.3c0.1,0.1,0.225,0.225,0.362,0.362C38.8,74.4,38.95,74.55,39.1,74.7
	s0.325,0.35,0.5,0.575C39.775,75.5,39.95,75.75,40.1,76l0.5,0.6l0.5,0.6l0.5,0.6l0.5,0.6h-0.9h-0.9h-0.95H38.4l-0.6-0.65l-0.6-0.65
	l-0.6-0.6L36,75.9c-0.2-0.25-0.4-0.475-0.575-0.675C35.25,75.025,35.1,74.85,35,74.7c-0.15-0.15-0.275-0.275-0.388-0.388
	C34.5,74.2,34.4,74.1,34.3,74s-0.175-0.15-0.25-0.188S33.9,73.75,33.8,73.7c-0.05-0.05-0.125-0.075-0.2-0.1
	c-0.075-0.025-0.15-0.05-0.2-0.1s-0.15-0.075-0.275-0.088C33,73.4,32.85,73.4,32.7,73.4s-0.3,0-0.462,0c-0.163,0-0.338,0-0.538,0
	h-0.15H31.4h-0.15H31.1v1.35v1.35v1.35v1.35h-0.8h-0.8l-0.75-0.05L28,78.7L28,78.7L28,78.7L28,78.7L28,78.7z M31.2,71.2h0.6h0.6H33
	h0.6c0.4,0,0.725,0,1.013-0.012C34.9,71.175,35.15,71.15,35.4,71.1s0.45-0.075,0.612-0.088C36.175,71,36.3,71,36.4,71
	s0.2-0.025,0.288-0.062C36.775,70.9,36.85,70.85,36.9,70.8s0.125-0.1,0.2-0.15c0.075-0.05,0.15-0.1,0.2-0.15s0.1-0.1,0.138-0.162
	C37.475,70.275,37.5,70.2,37.5,70.1s0.025-0.2,0.05-0.3c0.025-0.1,0.05-0.2,0.05-0.3s0-0.2-0.013-0.3
	c-0.012-0.1-0.037-0.2-0.087-0.3s-0.1-0.2-0.15-0.287c-0.05-0.088-0.1-0.163-0.15-0.213s-0.125-0.1-0.212-0.15
	C36.9,68.2,36.8,68.15,36.7,68.1c-0.1-0.05-0.2-0.075-0.312-0.1c-0.113-0.025-0.238-0.05-0.388-0.1c-0.1,0-0.2,0-0.325,0
	s-0.275,0-0.475,0s-0.425,0-0.675,0s-0.525,0-0.825,0h-0.6h-0.6h-0.6h-0.6c0,0,0,0.2,0,0.513s0,0.737,0,1.187
	s-0.025,0.85-0.05,1.137S31.2,71.2,31.2,71.2z"/>
<path d="M43,72.3c0-0.35,0-0.65,0.025-0.938C43.05,71.075,43.1,70.8,43.2,70.5c0.05-0.3,0.125-0.55,0.212-0.787
	C43.5,69.475,43.6,69.25,43.7,69c0.1-0.15,0.2-0.325,0.3-0.5c0.1-0.175,0.2-0.35,0.3-0.5c0.1-0.15,0.225-0.3,0.362-0.438
	C44.8,67.425,44.95,67.3,45.1,67.2s0.3-0.225,0.462-0.35c0.163-0.125,0.338-0.25,0.538-0.35c0.15-0.1,0.325-0.2,0.5-0.287
	S46.95,66.05,47.1,66c0.25-0.1,0.5-0.175,0.763-0.238S48.4,65.65,48.7,65.6c0.25-0.05,0.525-0.075,0.812-0.088
	C49.8,65.5,50.1,65.5,50.4,65.5c0.6,0,1.15,0.05,1.663,0.125C52.575,65.7,53.05,65.8,53.5,65.9c0.45,0.15,0.875,0.35,1.275,0.575
	c0.4,0.225,0.775,0.475,1.125,0.725s0.65,0.575,0.913,0.938C57.075,68.5,57.3,68.9,57.5,69.3c0.15,0.4,0.275,0.825,0.362,1.287
	S58,71.55,58,72.1s-0.05,1.05-0.138,1.513S57.65,74.5,57.5,74.9s-0.35,0.775-0.6,1.125S56.35,76.7,56,77s-0.725,0.575-1.125,0.8
	c-0.4,0.225-0.825,0.4-1.275,0.5c-0.45,0.15-0.925,0.25-1.438,0.312S51.1,78.7,50.5,78.7s-1.15-0.05-1.662-0.125
	S47.85,78.4,47.4,78.3c-0.45-0.15-0.875-0.35-1.275-0.575C45.725,77.5,45.35,77.25,45,77c-0.35-0.3-0.65-0.6-0.9-0.938
	s-0.45-0.713-0.6-1.162c-0.15-0.35-0.275-0.75-0.362-1.188C43.05,73.275,43,72.8,43,72.3z M46.3,72.2c0,0.4,0.025,0.75,0.075,1.062
	c0.05,0.312,0.125,0.588,0.225,0.838c0.1,0.3,0.225,0.55,0.375,0.762S47.3,75.25,47.5,75.4c0.2,0.2,0.4,0.375,0.625,0.512
	C48.35,76.05,48.6,76.15,48.9,76.2c0.25,0.1,0.525,0.15,0.812,0.175C50,76.4,50.3,76.4,50.6,76.4s0.6-0.025,0.888-0.075
	c0.287-0.05,0.562-0.125,0.812-0.225s0.5-0.225,0.737-0.362C53.275,75.6,53.5,75.45,53.7,75.3c0.2-0.2,0.375-0.425,0.525-0.662
	C54.375,74.4,54.5,74.15,54.6,73.9c0.1-0.3,0.175-0.6,0.225-0.925C54.875,72.65,54.9,72.3,54.9,71.9s-0.025-0.75-0.075-1.062
	C54.775,70.525,54.7,70.25,54.6,70s-0.225-0.5-0.375-0.725C54.075,69.05,53.9,68.85,53.7,68.7s-0.4-0.3-0.625-0.438
	C52.85,68.125,52.6,68,52.3,67.9c-0.25-0.1-0.525-0.175-0.812-0.225S50.9,67.6,50.6,67.6s-0.6,0.025-0.888,0.075
	C49.425,67.725,49.15,67.8,48.9,67.9s-0.5,0.225-0.737,0.362C47.925,68.4,47.7,68.55,47.5,68.7c-0.2,0.2-0.375,0.425-0.525,0.662
	C46.825,69.6,46.7,69.85,46.6,70.1c-0.1,0.35-0.175,0.675-0.225,1.013C46.325,71.45,46.3,71.8,46.3,72.2z"/>
<path d="M60.5,65.7h0.75H62h0.75h0.75v1.75v1.75v1.75v1.75c0,0.3,0,0.55,0,0.775s0,0.425,0,0.625s0,0.35,0.013,0.475
	S63.55,74.8,63.6,74.9c0,0.1,0.05,0.225,0.125,0.35S63.9,75.5,64,75.6s0.2,0.2,0.312,0.3c0.113,0.1,0.238,0.2,0.387,0.3
	s0.3,0.175,0.45,0.238s0.3,0.113,0.45,0.162s0.35,0.075,0.562,0.088C66.375,76.7,66.6,76.7,66.8,76.7s0.4-0.025,0.6-0.05
	c0.2-0.025,0.4-0.05,0.6-0.05s0.35-0.05,0.475-0.125C68.6,76.4,68.7,76.3,68.8,76.2c0.1-0.1,0.2-0.175,0.3-0.25
	c0.1-0.075,0.2-0.15,0.3-0.25c0.05-0.1,0.1-0.2,0.137-0.3c0.037-0.1,0.062-0.2,0.062-0.3s0.025-0.225,0.05-0.375
	c0.025-0.15,0.05-0.325,0.05-0.525s0-0.4,0-0.613s0-0.438,0-0.688v-1.8v-1.8v-1.8v-1.8h0.8h0.8h0.8h0.8v1.7v1.7v1.7v1.7
	c0,0.4,0,0.775-0.012,1.113C72.875,73.95,72.85,74.25,72.8,74.5s-0.075,0.5-0.1,0.725s-0.05,0.425-0.1,0.575s-0.1,0.3-0.162,0.45
	c-0.062,0.15-0.138,0.3-0.238,0.45s-0.175,0.275-0.25,0.388C71.875,77.2,71.8,77.3,71.7,77.4s-0.225,0.2-0.362,0.3
	C71.2,77.8,71.05,77.9,70.9,78s-0.3,0.2-0.463,0.287S70.1,78.45,69.9,78.5c-0.2,0.1-0.4,0.15-0.613,0.188
	C69.075,78.725,68.85,78.75,68.6,78.8s-0.525,0.075-0.812,0.088S67.2,78.9,66.9,78.9c-0.4,0-0.75,0-1.075-0.012
	C65.5,78.875,65.2,78.85,64.9,78.8s-0.55-0.1-0.775-0.15C63.9,78.6,63.7,78.55,63.5,78.5s-0.4-0.125-0.575-0.213S62.6,78.1,62.5,78
	c-0.15-0.1-0.3-0.2-0.438-0.3c-0.137-0.1-0.262-0.2-0.362-0.3s-0.2-0.225-0.288-0.35c-0.087-0.125-0.162-0.25-0.212-0.35
	s-0.125-0.2-0.2-0.312c-0.075-0.112-0.15-0.237-0.2-0.387s-0.1-0.35-0.138-0.575C60.625,75.2,60.6,74.95,60.6,74.7
	s-0.025-0.55-0.05-0.887S60.5,73.1,60.5,72.7v-1.75V69.2l0-1.75L60.5,65.7L60.5,65.7L60.5,65.7L60.5,65.7L60.5,65.7z"/>
<path d="M76.2,78.7v-3.25V72.2v-3.25V65.7h1.25h1.25h1.25h1.25c0.45,0,0.875,0,1.262,0.012C82.85,65.725,83.2,65.75,83.5,65.8
	c0.3,0,0.575,0.025,0.812,0.05c0.238,0.025,0.438,0.05,0.588,0.05c0.2,0.05,0.4,0.1,0.6,0.175c0.2,0.075,0.4,0.175,0.6,0.325
	c0.2,0.1,0.375,0.225,0.537,0.363C86.8,66.9,86.95,67.05,87.1,67.2c0.15,0.2,0.275,0.375,0.388,0.55
	C87.6,67.925,87.7,68.1,87.8,68.3s0.15,0.425,0.175,0.662C88,69.2,88,69.45,88,69.7c0,0.2-0.025,0.4-0.05,0.588
	c-0.025,0.188-0.05,0.362-0.05,0.512s-0.05,0.3-0.125,0.45S87.6,71.55,87.5,71.7s-0.175,0.275-0.263,0.387
	C87.15,72.2,87.05,72.3,86.9,72.4c-0.1,0.1-0.225,0.2-0.35,0.3c-0.125,0.1-0.25,0.2-0.35,0.3s-0.225,0.175-0.363,0.238
	C85.7,73.3,85.55,73.35,85.4,73.4s-0.3,0.1-0.438,0.137S84.7,73.6,84.6,73.6c-0.15,0.05-0.35,0.075-0.575,0.088
	C83.8,73.7,83.55,73.7,83.3,73.7s-0.55,0.025-0.875,0.05C82.1,73.775,81.75,73.8,81.4,73.8h-0.5h-0.5h-0.5h-0.5V75v1.2v1.2v1.2h-0.8
	h-0.8c0,0.05-0.4,0.075-0.8,0.088C76.6,78.7,76.2,78.7,76.2,78.7z M79.3,67.9v0.9v0.9v0.9v0.9h0.4h0.4h0.45H81
	c0.3,0,0.575,0,0.838-0.012C82.1,71.475,82.35,71.45,82.6,71.4c0.2,0,0.4-0.025,0.562-0.05c0.162-0.025,0.287-0.05,0.338-0.05
	s0.15-0.025,0.25-0.062S83.95,71.15,84,71.1c0.1-0.05,0.175-0.1,0.25-0.162S84.4,70.8,84.5,70.7s0.15-0.175,0.188-0.25
	c0.037-0.075,0.062-0.15,0.113-0.25s0.075-0.175,0.088-0.25C84.9,69.875,84.9,69.8,84.9,69.7s-0.025-0.225-0.05-0.35
	C84.825,69.225,84.8,69.1,84.8,69c-0.05-0.1-0.1-0.2-0.162-0.287S84.5,68.55,84.4,68.5s-0.175-0.125-0.263-0.2
	c-0.087-0.075-0.188-0.15-0.337-0.2c-0.1-0.05-0.225-0.1-0.35-0.137S83.2,67.9,83.1,67.9c-0.1-0.05-0.225-0.075-0.363-0.088
	C82.6,67.8,82.45,67.8,82.3,67.8c-0.2,0-0.4,0-0.625,0c-0.225,0-0.475,0-0.775,0c0,0-0.1,0-0.25,0s-0.35,0-0.55,0
	s-0.4,0.025-0.55,0.05C79.4,67.875,79.3,67.9,79.3,67.9z"/>
</svg>
