<?xml version="1.0" encoding="utf-8"?>
<!-- Generator: Adobe Illustrator 25.2.0, SVG Export Plug-In . SVG Version: 6.00 Build 0)  -->
<svg version="1.1" id="Layer_1" xmlns="http://www.w3.org/2000/svg" xmlns:xlink="http://www.w3.org/1999/xlink" x="0px" y="0px"
	 viewBox="0 0 100 100" style="enable-background:new 0 0 100 100;" xml:space="preserve">
<g>
	<path d="M14,71.2V28.8h13.3c3.3,0,5.8,0.4,7.3,1.1s2.7,2.1,3.6,4.1c0.9,1.9,1.4,4.2,1.4,6.7c0,3.2-0.7,5.8-2.1,7.9
		c-1.4,2.1-3.5,3.4-6.2,3.9c1.4,1.1,2.5,2.3,3.4,3.6s2.1,3.6,3.6,6.9l3.8,8.3h-7.6L30,62c-1.6-3.3-2.7-5.4-3.3-6.2
		c-0.6-0.9-1.2-1.4-1.9-1.8c-0.7-0.3-1.7-0.5-3.2-0.5h-1.3v17.7H14z M20.3,46.7H25c3,0,4.9-0.2,5.7-0.5c0.8-0.3,1.3-0.9,1.8-1.8
		c0.4-0.8,0.6-1.9,0.6-3.2c0-1.4-0.3-2.6-0.8-3.5c-0.6-0.9-1.4-1.4-2.4-1.7C29.4,36,27.8,36,25.3,36h-4.9V46.7z"/>
	<path d="M45.4,71.2V28.8h6.3v42.4H45.4z"/>
	<path d="M72.4,55.6v-7.1H86v16.9c-1.3,1.7-3.2,3.3-5.8,4.6c-2.5,1.3-5.1,2-7.6,2c-3.3,0-6.1-0.9-8.6-2.8c-2.4-1.9-4.3-4.5-5.5-8
		c-1.2-3.5-1.8-7.2-1.8-11.3c0-4.4,0.7-8.3,2.1-11.8c1.4-3.4,3.4-6.1,6-7.9c2-1.4,4.5-2.1,7.5-2.1c3.9,0,6.9,1.1,9.1,3.3
		c2.2,2.2,3.6,5.3,4.2,9.2l-6.3,1.6c-0.4-2.1-1.3-3.7-2.5-4.9c-1.2-1.2-2.7-1.8-4.6-1.8c-2.8,0-5,1.2-6.6,3.6
		c-1.6,2.4-2.4,5.9-2.4,10.6c0,5,0.8,8.8,2.5,11.3c1.7,2.5,3.8,3.8,6.5,3.8c1.3,0,2.7-0.4,4-1.1s2.5-1.6,3.4-2.6v-5.4H72.4z"/>
</g>
</svg>
