<?xml version="1.0" encoding="utf-8"?>
<!-- Generator: Adobe Illustrator 25.2.0, SVG Export Plug-In . SVG Version: 6.00 Build 0)  -->
<svg version="1.1" id="Layer_1" xmlns="http://www.w3.org/2000/svg" xmlns:xlink="http://www.w3.org/1999/xlink" x="0px" y="0px"
	 viewBox="0 0 100 100" style="enable-background:new 0 0 100 100;" xml:space="preserve">
<g>
	<polygon points="40.5,44.1 40.5,38 16.3,38 16.3,44.1 23.4,44.1 23.4,66.9 16.3,66.9 16.3,72.9 40.5,72.9 40.5,66.9 33.5,66.9 
		33.5,44.1 	"/>
	<polygon points="85.6,73.4 70.9,55.4 84.4,38.7 74.7,38.7 66,49.4 57.2,38.7 46.4,38.7 60.5,56.2 46.4,73.4 56.4,73.4 65.4,62.2 
		74.4,73.4 	"/>
	<g>
		<path d="M10,36.3v-9.6h5.3c1.1,0,1.9,0.1,2.6,0.3c0.6,0.2,1.2,0.5,1.5,0.9c0.4,0.4,0.6,0.8,0.6,1.3c0,0.4-0.2,0.8-0.5,1.2
			S18.7,31,18,31.2c0.8,0.2,1.5,0.5,2,0.9s0.7,0.9,0.7,1.4c0,0.4-0.1,0.9-0.4,1.2c-0.3,0.4-0.6,0.7-1,0.9c-0.4,0.2-0.9,0.4-1.5,0.5
			s-1.4,0.2-2.3,0.2H10z M11.9,30.8h3c0.8,0,1.4,0,1.8-0.1c0.5-0.1,0.8-0.3,1.1-0.5c0.2-0.2,0.4-0.5,0.4-0.8c0-0.3-0.1-0.6-0.3-0.8
			s-0.5-0.4-1-0.5c-0.4-0.1-1.1-0.1-2.1-0.1h-2.8V30.8z M11.9,35.2h3.5c0.6,0,1,0,1.3,0c0.4-0.1,0.8-0.1,1.1-0.3
			c0.3-0.1,0.5-0.3,0.7-0.5c0.2-0.2,0.3-0.5,0.3-0.8c0-0.4-0.1-0.7-0.4-0.9s-0.6-0.4-1.1-0.6c-0.5-0.1-1.2-0.2-2.1-0.2h-3.3V35.2z"
			/>
		<path d="M23.2,36.3v-9.6h6.2c1.3,0,2.2,0.1,2.9,0.3c0.7,0.2,1.2,0.5,1.6,0.9c0.4,0.4,0.6,0.9,0.6,1.4c0,0.7-0.3,1.3-1,1.7
			c-0.6,0.5-1.6,0.8-3,0.9c0.5,0.2,0.9,0.3,1.1,0.5c0.5,0.3,1.1,0.8,1.5,1.3l2.4,2.6h-2.3l-1.9-2c-0.5-0.6-1-1-1.3-1.3
			s-0.7-0.5-0.9-0.6s-0.6-0.2-0.8-0.3c-0.2,0-0.6,0-1,0h-2.2v4.2H23.2z M25.1,31h4c0.9,0,1.5-0.1,2-0.2s0.8-0.3,1.1-0.6
			c0.2-0.3,0.4-0.5,0.4-0.9c0-0.5-0.2-0.8-0.7-1.1c-0.5-0.3-1.2-0.4-2.3-0.4h-4.5V31z"/>
		<path d="M35.9,36.3l5.4-9.6h2l5.8,9.6h-2.1l-1.6-2.9h-5.9l-1.5,2.9H35.9z M39.9,32.4h4.8l-1.5-2.6c-0.4-0.8-0.8-1.5-1-2
			c-0.2,0.6-0.4,1.2-0.8,1.8L39.9,32.4z"/>
		<path d="M50.5,36.3v-9.6h1.9l7.4,7.5v-7.5h1.8v9.6h-1.9l-7.4-7.5v7.5H50.5z"/>
		<path d="M74.7,33l1.9,0.3c-0.4,1-1.1,1.8-2.1,2.4c-1,0.5-2.3,0.8-3.7,0.8c-1.5,0-2.7-0.2-3.7-0.6c-0.9-0.4-1.7-1-2.2-1.8
			c-0.5-0.8-0.7-1.7-0.7-2.6c0-1,0.3-1.9,0.8-2.6c0.6-0.7,1.4-1.3,2.4-1.7c1-0.4,2.2-0.6,3.4-0.6c1.4,0,2.6,0.2,3.5,0.7
			s1.6,1.2,2,2.1l-1.8,0.3c-0.3-0.7-0.8-1.2-1.4-1.5s-1.4-0.5-2.3-0.5c-1.1,0-2,0.2-2.7,0.5c-0.7,0.4-1.2,0.8-1.5,1.4
			s-0.4,1.2-0.4,1.8c0,0.8,0.2,1.5,0.5,2.1c0.3,0.6,0.9,1.1,1.6,1.4c0.7,0.3,1.5,0.4,2.4,0.4c1,0,1.9-0.2,2.6-0.6S74.5,33.8,74.7,33
			z"/>
		<path d="M78.9,36.3v-9.6h1.9v3.9h7.3v-3.9H90v9.6h-1.9v-4.5h-7.3v4.5H78.9z"/>
	</g>
</g>
</svg>
