<?xml version="1.0" encoding="iso-8859-1"?>
<!-- Generator: Adobe Illustrator 25.4.1, SVG Export Plug-In . SVG Version: 6.00 Build 0)  -->
<svg version="1.1" id="Layer_1" xmlns="http://www.w3.org/2000/svg" xmlns:xlink="http://www.w3.org/1999/xlink" x="0px" y="0px"
	 viewBox="0 0 100 100" style="enable-background:new 0 0 100 100;" xml:space="preserve">
<path d="M20.4,32.2c0,0.275-0.019,0.537-0.055,0.791c-0.036,0.253-0.089,0.497-0.157,0.734c-0.069,0.237-0.153,0.469-0.252,0.697
	c-0.099,0.228-0.211,0.453-0.336,0.678c-0.125,0.2-0.262,0.394-0.413,0.58c-0.15,0.186-0.312,0.364-0.487,0.532
	c-0.175,0.169-0.362,0.328-0.562,0.477c-0.2,0.148-0.413,0.286-0.638,0.411c-0.175,0.1-0.35,0.188-0.527,0.264
	s-0.354,0.142-0.535,0.199s-0.365,0.103-0.555,0.142c-0.189,0.039-0.383,0.07-0.583,0.095c-0.175,0.025-0.369,0.05-0.578,0.073
	c-0.209,0.024-0.434,0.046-0.672,0.065c-0.238,0.018-0.488,0.034-0.747,0.045C13.044,37.994,12.775,38,12.5,38h-0.825H10.85h-0.825
	H9.2v-2.9v-2.9v-2.9v-2.9H10h0.8h0.8h0.8c0.325,0,0.637,0.006,0.934,0.017c0.297,0.011,0.578,0.026,0.841,0.045
	c0.262,0.019,0.506,0.041,0.728,0.064c0.222,0.023,0.422,0.049,0.597,0.073c0.2,0.05,0.387,0.1,0.564,0.152
	c0.177,0.052,0.342,0.104,0.498,0.16c0.156,0.057,0.303,0.116,0.442,0.18s0.27,0.133,0.395,0.208
	c0.225,0.125,0.438,0.256,0.638,0.397c0.2,0.141,0.387,0.291,0.562,0.453s0.337,0.338,0.487,0.528s0.288,0.397,0.413,0.622
	c0.15,0.2,0.281,0.413,0.394,0.636s0.206,0.458,0.281,0.701c0.076,0.244,0.132,0.497,0.17,0.758
	C20.381,31.656,20.4,31.925,20.4,32.2z M18.4,32.2c0-0.225-0.012-0.438-0.036-0.641s-0.058-0.397-0.102-0.584
	s-0.097-0.369-0.158-0.547c-0.061-0.178-0.129-0.353-0.204-0.528c-0.1-0.15-0.206-0.294-0.32-0.431s-0.236-0.269-0.368-0.394
	c-0.131-0.125-0.271-0.244-0.423-0.356C16.638,28.606,16.475,28.5,16.3,28.4c-0.125-0.05-0.25-0.1-0.377-0.149
	s-0.255-0.096-0.385-0.139s-0.266-0.084-0.405-0.12S14.85,27.925,14.7,27.9s-0.306-0.05-0.469-0.073
	c-0.163-0.024-0.331-0.046-0.506-0.065s-0.356-0.035-0.544-0.045C12.994,27.706,12.8,27.7,12.6,27.7h-0.35H11.9h-0.35H11.2v2.225
	v2.225v2.225V36.6h0.35h0.35h0.35h0.35c0.2,0,0.4-0.006,0.597-0.017c0.197-0.011,0.391-0.026,0.578-0.045s0.369-0.041,0.541-0.064
	S14.65,36.425,14.8,36.4s0.3-0.056,0.448-0.094c0.148-0.037,0.295-0.081,0.439-0.131c0.144-0.05,0.285-0.106,0.42-0.169
	s0.267-0.131,0.392-0.206c0.175-0.1,0.331-0.2,0.473-0.303c0.142-0.103,0.271-0.209,0.39-0.322c0.119-0.113,0.228-0.231,0.333-0.359
	C17.8,34.688,17.9,34.55,18,34.4s0.175-0.306,0.231-0.47c0.056-0.164,0.094-0.336,0.119-0.517c0.025-0.182,0.038-0.372,0.044-0.574
	C18.4,32.638,18.4,32.425,18.4,32.2z"/>
<path d="M27.4,38h-1.375H24.65h-1.375H21.9v-0.3v-0.3v-0.3v-0.3h0.45h0.45h0.45h0.45v-2.3v-2.3v-2.3v-2.3h-0.45H22.8h-0.45H21.9
	v-0.3V27v-0.3v-0.3h1.375h1.375h1.375H27.4v0.3V27v0.3v0.3h-0.45H26.5h-0.45H25.6v2.3v2.3v2.3v2.3h0.45h0.45h0.45h0.45v0.3v0.3v0.3
	V38z"/>
<path d="M40,26.4l-1.225,2.9l-1.225,2.9l-1.225,2.9L35.1,38h-0.5h-0.5h-0.5h-0.5l-1.225-2.9l-1.225-2.9l-1.225-2.9L28.2,26.4h0.5
	h0.5h0.5h0.5l0.975,2.4l0.975,2.4l0.975,2.4L34.1,36l0.975-2.4l0.975-2.4l0.975-2.4L38,26.4h0.5H39h0.5H40z"/>
<path d="M46.3,38h-1.375H43.55h-1.375H40.8v-0.3v-0.3v-0.3v-0.3h0.45h0.45h0.45h0.45v-2.3v-2.3v-2.3v-2.3h-0.45H41.7h-0.45H40.8
	v-0.3V27v-0.3v-0.3h1.375h1.375h1.375H46.3v0.3V27v0.3v0.3h-0.45H45.4h-0.45H44.5v2.3v2.3v2.3v2.3h0.45h0.45h0.45h0.45v0.3v0.3v0.3
	V38z"/>
<path d="M52.6,38.2c-0.25,0-0.494-0.006-0.73-0.019c-0.236-0.013-0.464-0.031-0.682-0.056c-0.219-0.025-0.429-0.056-0.627-0.094
	C50.362,37.994,50.175,37.95,50,37.9s-0.35-0.1-0.523-0.15c-0.174-0.05-0.346-0.1-0.514-0.15c-0.168-0.05-0.334-0.1-0.495-0.15
	S48.15,37.35,48,37.3v-0.475V36.35v-0.475V35.4h0.025h0.025h0.025H48.1c0.15,0.125,0.306,0.237,0.469,0.341
	c0.162,0.103,0.331,0.197,0.506,0.284s0.356,0.169,0.544,0.247S50,36.425,50.2,36.5s0.394,0.138,0.584,0.189
	c0.191,0.052,0.378,0.092,0.566,0.123s0.375,0.053,0.566,0.067C52.106,36.894,52.3,36.9,52.5,36.9c0.25,0,0.487-0.013,0.713-0.036
	c0.225-0.024,0.438-0.058,0.637-0.102c0.2-0.044,0.388-0.097,0.562-0.157s0.338-0.13,0.487-0.205c0.125-0.1,0.237-0.2,0.336-0.303
	c0.098-0.103,0.183-0.209,0.251-0.322c0.069-0.113,0.122-0.231,0.158-0.359C55.681,35.287,55.7,35.15,55.7,35
	c0-0.125-0.006-0.237-0.02-0.341c-0.014-0.103-0.036-0.197-0.068-0.284s-0.072-0.169-0.123-0.247S55.375,33.975,55.3,33.9
	s-0.156-0.144-0.245-0.206s-0.186-0.119-0.292-0.169c-0.106-0.05-0.222-0.094-0.349-0.131S54.15,33.325,54,33.3
	c-0.1-0.025-0.2-0.05-0.3-0.075c-0.1-0.025-0.2-0.05-0.3-0.075c-0.1-0.025-0.2-0.05-0.3-0.075C53,33.05,52.9,33.025,52.8,33
	s-0.2-0.05-0.303-0.075s-0.209-0.05-0.322-0.075c-0.113-0.025-0.231-0.05-0.359-0.075c-0.128-0.025-0.266-0.05-0.416-0.075
	c-0.125-0.025-0.244-0.05-0.358-0.076s-0.224-0.055-0.33-0.085s-0.209-0.065-0.311-0.105C50.3,32.394,50.2,32.35,50.1,32.3
	s-0.194-0.1-0.283-0.15s-0.174-0.1-0.255-0.15c-0.081-0.05-0.159-0.1-0.236-0.15c-0.076-0.05-0.152-0.1-0.227-0.15
	c-0.075-0.075-0.144-0.15-0.208-0.225c-0.064-0.075-0.124-0.15-0.18-0.225c-0.056-0.075-0.109-0.15-0.16-0.225
	C48.5,30.95,48.45,30.875,48.4,30.8s-0.088-0.156-0.116-0.244c-0.028-0.087-0.047-0.181-0.059-0.281s-0.019-0.206-0.022-0.319
	C48.2,29.844,48.2,29.725,48.2,29.6c0-0.225,0.025-0.444,0.076-0.656c0.051-0.212,0.129-0.419,0.236-0.619
	c0.106-0.2,0.241-0.394,0.405-0.581c0.164-0.188,0.357-0.369,0.582-0.544c0.225-0.15,0.463-0.287,0.714-0.409
	s0.517-0.228,0.799-0.316s0.578-0.156,0.893-0.203S52.55,26.2,52.9,26.2c0.2,0,0.394,0.006,0.584,0.017
	c0.191,0.011,0.378,0.026,0.566,0.045s0.375,0.041,0.566,0.064S55,26.375,55.2,26.4c0.175,0.025,0.35,0.056,0.523,0.094
	s0.346,0.081,0.514,0.131c0.169,0.05,0.334,0.106,0.495,0.169S57.05,26.925,57.2,27v0.45v0.45v0.45v0.45h-0.025H57.15h-0.025H57.1
	c-0.125-0.075-0.25-0.15-0.378-0.225c-0.128-0.075-0.259-0.15-0.397-0.225s-0.281-0.15-0.434-0.225
	c-0.153-0.075-0.316-0.15-0.491-0.225s-0.35-0.138-0.527-0.189c-0.176-0.052-0.354-0.092-0.535-0.123
	c-0.181-0.031-0.366-0.053-0.555-0.068C53.594,27.506,53.4,27.5,53.2,27.5c-0.225,0-0.438,0.013-0.638,0.036
	c-0.2,0.024-0.387,0.058-0.562,0.102c-0.175,0.043-0.338,0.097-0.487,0.157c-0.15,0.061-0.288,0.13-0.413,0.205
	s-0.237,0.163-0.336,0.259c-0.098,0.097-0.183,0.203-0.251,0.316c-0.069,0.112-0.122,0.231-0.158,0.353
	C50.319,29.05,50.3,29.175,50.3,29.3s0.013,0.244,0.036,0.356c0.023,0.112,0.058,0.219,0.102,0.319
	c0.043,0.1,0.097,0.194,0.157,0.281s0.13,0.169,0.205,0.244s0.163,0.144,0.261,0.206s0.208,0.119,0.327,0.169
	c0.118,0.05,0.246,0.094,0.382,0.131c0.136,0.037,0.28,0.069,0.43,0.094c0.1,0.025,0.206,0.05,0.319,0.075
	c0.112,0.025,0.231,0.05,0.356,0.075s0.256,0.05,0.394,0.075c0.138,0.025,0.281,0.05,0.431,0.075s0.294,0.05,0.43,0.075
	c0.136,0.025,0.264,0.05,0.382,0.075s0.228,0.05,0.327,0.075c0.099,0.025,0.186,0.05,0.261,0.075c0.25,0.05,0.481,0.112,0.694,0.186
	c0.213,0.073,0.406,0.158,0.581,0.252c0.175,0.094,0.331,0.197,0.469,0.307c0.138,0.111,0.256,0.23,0.356,0.355
	c0.125,0.125,0.231,0.256,0.32,0.394c0.089,0.138,0.161,0.281,0.217,0.431c0.056,0.15,0.097,0.306,0.124,0.469
	c0.027,0.162,0.039,0.331,0.039,0.506c0,0.125-0.006,0.244-0.019,0.358c-0.013,0.114-0.031,0.224-0.056,0.33
	c-0.025,0.106-0.056,0.209-0.094,0.311C57.694,35.7,57.65,35.8,57.6,35.9s-0.106,0.2-0.169,0.298
	c-0.062,0.098-0.131,0.195-0.206,0.289s-0.156,0.184-0.244,0.27C56.894,36.843,56.8,36.925,56.7,37
	c-0.125,0.075-0.25,0.15-0.377,0.223c-0.127,0.074-0.255,0.146-0.386,0.215c-0.131,0.069-0.265,0.134-0.404,0.195
	S55.25,37.75,55.1,37.8c-0.225,0.075-0.438,0.138-0.644,0.189c-0.206,0.052-0.406,0.092-0.606,0.123
	c-0.2,0.032-0.4,0.054-0.606,0.068C53.037,38.194,52.825,38.2,52.6,38.2z"/>
<path d="M64.5,38h-1.375H61.75h-1.375H59v-0.3v-0.3v-0.3v-0.3h0.45h0.45h0.45h0.45v-2.3v-2.3v-2.3v-2.3h-0.45H59.9h-0.45H59v-0.3V27
	v-0.3v-0.3h1.375h1.375h1.375H64.5v0.3V27v0.3v0.3h-0.45H63.6h-0.45H62.7v2.3v2.3v2.3v2.3h0.45h0.45h0.45h0.45v0.3v0.3v0.3V38z"/>
<path d="M76.9,27.8c0.125,0.125,0.25,0.256,0.372,0.395c0.122,0.139,0.241,0.286,0.353,0.442c0.113,0.156,0.219,0.322,0.316,0.499
	c0.097,0.177,0.184,0.364,0.259,0.564s0.137,0.4,0.189,0.603c0.051,0.203,0.092,0.409,0.123,0.622
	c0.032,0.212,0.054,0.431,0.068,0.659c0.014,0.228,0.02,0.466,0.02,0.716c0,0.225-0.006,0.45-0.02,0.672
	c-0.014,0.222-0.036,0.441-0.068,0.653s-0.072,0.419-0.123,0.616c-0.051,0.197-0.114,0.384-0.189,0.559
	c-0.075,0.2-0.156,0.388-0.245,0.564c-0.089,0.177-0.186,0.342-0.292,0.498c-0.106,0.157-0.222,0.304-0.349,0.443
	c-0.127,0.139-0.264,0.27-0.414,0.395s-0.306,0.244-0.467,0.356c-0.161,0.112-0.327,0.219-0.496,0.319
	c-0.169,0.1-0.34,0.194-0.514,0.281c-0.173,0.088-0.348,0.169-0.523,0.244c-0.2,0.075-0.4,0.138-0.603,0.189
	c-0.203,0.052-0.409,0.092-0.622,0.123c-0.213,0.031-0.431,0.054-0.659,0.068c-0.228,0.014-0.466,0.02-0.716,0.02
	s-0.488-0.006-0.716-0.02c-0.228-0.014-0.447-0.036-0.659-0.068s-0.419-0.072-0.622-0.123C70.1,38.037,69.9,37.975,69.7,37.9
	s-0.387-0.156-0.566-0.244c-0.178-0.087-0.347-0.181-0.509-0.281s-0.319-0.206-0.472-0.319C68,36.944,67.85,36.825,67.7,36.7
	c-0.125-0.125-0.25-0.256-0.372-0.395c-0.122-0.139-0.241-0.286-0.353-0.442c-0.112-0.157-0.219-0.322-0.316-0.499
	C66.562,35.188,66.475,35,66.4,34.8c-0.05-0.2-0.1-0.4-0.147-0.603c-0.047-0.203-0.091-0.409-0.128-0.622s-0.069-0.431-0.091-0.659
	S66,32.45,66,32.2s0.006-0.487,0.02-0.716c0.014-0.228,0.036-0.447,0.068-0.659s0.072-0.419,0.123-0.622S66.325,29.8,66.4,29.6
	s0.156-0.387,0.245-0.564c0.089-0.177,0.186-0.342,0.292-0.498c0.106-0.156,0.222-0.303,0.349-0.443
	c0.127-0.139,0.264-0.27,0.414-0.395c0.125-0.125,0.262-0.244,0.411-0.356c0.148-0.112,0.308-0.219,0.476-0.319
	c0.169-0.1,0.347-0.194,0.533-0.281s0.38-0.169,0.58-0.244s0.4-0.137,0.603-0.189s0.409-0.092,0.622-0.123
	c0.213-0.031,0.431-0.054,0.659-0.068c0.228-0.014,0.466-0.02,0.716-0.02s0.488,0.006,0.716,0.02
	c0.228,0.014,0.447,0.036,0.659,0.067s0.419,0.072,0.622,0.124S74.7,26.425,74.9,26.5s0.394,0.163,0.58,0.259
	c0.186,0.097,0.364,0.203,0.532,0.316c0.169,0.112,0.328,0.231,0.477,0.353C76.637,27.55,76.775,27.675,76.9,27.8z M76.6,32.2
	c0-0.2-0.006-0.388-0.019-0.566c-0.012-0.178-0.031-0.347-0.056-0.509s-0.056-0.319-0.094-0.472C76.394,30.5,76.35,30.35,76.3,30.2
	s-0.106-0.294-0.169-0.431C76.069,29.631,76,29.5,75.925,29.375s-0.156-0.244-0.244-0.356C75.594,28.906,75.5,28.8,75.4,28.7
	s-0.2-0.194-0.303-0.281c-0.103-0.087-0.209-0.169-0.322-0.244c-0.112-0.075-0.231-0.144-0.359-0.206
	C74.288,27.906,74.15,27.85,74,27.8s-0.294-0.094-0.436-0.131s-0.283-0.069-0.426-0.094c-0.144-0.025-0.291-0.044-0.446-0.056
	C72.537,27.506,72.375,27.5,72.2,27.5s-0.344,0.006-0.506,0.019c-0.162,0.013-0.319,0.031-0.469,0.056
	c-0.15,0.025-0.294,0.056-0.431,0.094S70.525,27.75,70.4,27.8s-0.25,0.106-0.373,0.169c-0.124,0.062-0.245,0.131-0.365,0.206
	c-0.118,0.075-0.234,0.156-0.345,0.244C69.206,28.506,69.1,28.6,69,28.7s-0.194,0.206-0.281,0.319
	c-0.088,0.112-0.169,0.231-0.244,0.356s-0.144,0.256-0.206,0.394C68.206,29.906,68.15,30.05,68.1,30.2s-0.094,0.306-0.131,0.467
	c-0.038,0.161-0.069,0.326-0.094,0.495c-0.025,0.169-0.044,0.341-0.056,0.514C67.806,31.85,67.8,32.025,67.8,32.2
	c0,0.375,0.025,0.731,0.075,1.067c0.05,0.336,0.125,0.652,0.225,0.946c0.1,0.293,0.225,0.565,0.375,0.814
	C68.625,35.275,68.8,35.5,69,35.7s0.412,0.375,0.639,0.525c0.227,0.15,0.467,0.275,0.723,0.375c0.257,0.1,0.529,0.175,0.818,0.225
	S71.775,36.9,72.1,36.9s0.638-0.025,0.934-0.075s0.578-0.125,0.841-0.225s0.506-0.225,0.728-0.375
	c0.222-0.15,0.422-0.325,0.597-0.525s0.35-0.425,0.514-0.673s0.317-0.52,0.449-0.814s0.241-0.609,0.317-0.945
	C76.556,32.932,76.6,32.575,76.6,32.2z"/>
<path d="M90.8,38h-0.525H89.75h-0.525H88.7l-1.575-2.5L85.55,33l-1.575-2.5L82.4,28v2.5V33v2.5V38h-0.45H81.5h-0.45H80.6v-2.9v-2.9
	v-2.9v-2.9h0.675h0.675h0.675H83.3l1.425,2.275l1.425,2.275l1.425,2.275L89,35.5v-2.275V30.95v-2.275V26.4h0.45h0.45h0.45h0.45
	c0,0,0,0.725,0,1.812s0,2.538,0,3.988s0,2.9,0,3.987S90.8,38,90.8,38z"/>
<path d="M71.3,54.8c0,0.7-0.031,1.388-0.094,2.061s-0.156,1.333-0.281,1.977c-0.125,0.644-0.281,1.271-0.469,1.882
	c-0.188,0.611-0.406,1.205-0.656,1.78s-0.537,1.131-0.863,1.669c-0.325,0.538-0.688,1.056-1.087,1.556
	c-0.4,0.5-0.838,0.981-1.312,1.444C66.063,67.631,65.55,68.075,65,68.5s-1.137,0.825-1.761,1.2s-1.283,0.725-1.976,1.05
	s-1.422,0.625-2.183,0.9c-0.761,0.275-1.555,0.525-2.379,0.75s-1.693,0.425-2.607,0.598c-0.914,0.173-1.874,0.32-2.88,0.439
	c-1.007,0.119-2.061,0.21-3.162,0.271C46.95,73.769,45.8,73.8,44.6,73.8c-0.4,0-0.806-0.006-1.219-0.017
	c-0.412-0.011-0.831-0.026-1.256-0.045s-0.856-0.04-1.294-0.064S39.95,73.625,39.5,73.6s-0.856-0.056-1.222-0.091
	c-0.366-0.034-0.691-0.072-0.978-0.109s-0.538-0.075-0.753-0.109C36.331,73.256,36.15,73.225,36,73.2v-1.625V69.95v-1.625V66.7h0.25
	h0.25h0.25H37c0.15,0.05,0.325,0.1,0.522,0.151c0.197,0.051,0.416,0.104,0.653,0.16c0.237,0.057,0.494,0.116,0.766,0.18
	c0.272,0.064,0.559,0.133,0.859,0.208c0.3,0.05,0.625,0.1,0.976,0.147c0.352,0.047,0.729,0.091,1.136,0.128
	c0.406,0.037,0.841,0.069,1.305,0.091c0.464,0.022,0.958,0.034,1.483,0.034c0.425,0,0.844-0.006,1.258-0.02
	c0.414-0.014,0.823-0.036,1.229-0.068s0.809-0.072,1.211-0.123C48.8,67.537,49.2,67.475,49.6,67.4s0.781-0.156,1.147-0.247
	c0.366-0.091,0.716-0.191,1.053-0.303c0.337-0.112,0.662-0.237,0.978-0.378C53.094,66.331,53.4,66.175,53.7,66
	c0.3-0.15,0.587-0.319,0.862-0.502c0.275-0.183,0.538-0.38,0.788-0.586s0.487-0.422,0.712-0.642c0.225-0.22,0.438-0.445,0.638-0.67
	c0.2-0.25,0.381-0.513,0.545-0.789c0.164-0.276,0.311-0.567,0.442-0.873c0.132-0.306,0.247-0.628,0.349-0.968
	c0.102-0.339,0.189-0.695,0.264-1.07c-0.475,0.175-0.938,0.344-1.389,0.505c-0.452,0.161-0.892,0.314-1.324,0.458
	c-0.431,0.143-0.853,0.278-1.267,0.401C53.906,61.388,53.5,61.5,53.1,61.6s-0.825,0.188-1.273,0.263
	c-0.449,0.075-0.921,0.138-1.415,0.188c-0.493,0.05-1.009,0.087-1.545,0.112c-0.536,0.025-1.092,0.038-1.668,0.038
	c-0.45,0-0.894-0.013-1.331-0.036s-0.869-0.058-1.294-0.102c-0.424-0.043-0.843-0.097-1.255-0.157
	c-0.412-0.061-0.819-0.13-1.219-0.205s-0.794-0.162-1.181-0.261c-0.388-0.099-0.769-0.208-1.144-0.327
	c-0.375-0.118-0.744-0.246-1.106-0.382S37.95,60.45,37.6,60.3c-0.45-0.225-0.875-0.463-1.275-0.714s-0.775-0.517-1.125-0.799
	c-0.35-0.281-0.675-0.578-0.975-0.892c-0.3-0.314-0.575-0.646-0.825-0.996s-0.475-0.725-0.672-1.125
	c-0.197-0.4-0.366-0.825-0.503-1.275c-0.138-0.45-0.244-0.925-0.316-1.425S31.8,52.049,31.8,51.499c0-0.425,0.031-0.844,0.092-1.256
	c0.061-0.413,0.152-0.819,0.271-1.219c0.118-0.4,0.265-0.794,0.439-1.181s0.373-0.769,0.598-1.144s0.475-0.731,0.75-1.072
	c0.275-0.341,0.575-0.666,0.9-0.978s0.675-0.612,1.05-0.903s0.775-0.572,1.2-0.847s0.869-0.531,1.333-0.77
	c0.464-0.239,0.948-0.461,1.454-0.668c0.507-0.205,1.035-0.396,1.586-0.572C42.025,40.713,42.6,40.55,43.2,40.4
	s1.219-0.281,1.856-0.394c0.637-0.112,1.294-0.206,1.969-0.281c0.675-0.075,1.369-0.131,2.081-0.169
	C49.819,39.519,50.55,39.5,51.3,39.5s1.481,0.019,2.192,0.055c0.711,0.036,1.402,0.089,2.071,0.158
	c0.668,0.068,1.315,0.153,1.939,0.251c0.623,0.098,1.223,0.211,1.798,0.336s1.131,0.275,1.669,0.447
	c0.538,0.172,1.056,0.366,1.556,0.578s0.981,0.444,1.444,0.691c0.463,0.247,0.906,0.509,1.331,0.784
	c0.475,0.325,0.925,0.669,1.348,1.033c0.423,0.364,0.82,0.749,1.189,1.155c0.369,0.406,0.71,0.834,1.021,1.285S69.45,47.2,69.7,47.7
	s0.475,1.019,0.672,1.559s0.366,1.103,0.503,1.691s0.244,1.2,0.316,1.841S71.3,54.1,71.3,54.8z M58.5,53.6
	c0-0.45-0.013-0.881-0.039-1.292c-0.026-0.411-0.067-0.802-0.123-1.171c-0.056-0.368-0.129-0.715-0.218-1.039
	c-0.089-0.323-0.195-0.623-0.32-0.898c-0.125-0.3-0.256-0.581-0.397-0.844s-0.291-0.506-0.453-0.731s-0.337-0.431-0.528-0.619
	c-0.191-0.188-0.397-0.356-0.622-0.506c-0.15-0.125-0.306-0.237-0.467-0.339c-0.161-0.101-0.326-0.192-0.495-0.273
	c-0.169-0.082-0.341-0.154-0.514-0.218s-0.349-0.12-0.524-0.17c-0.2-0.05-0.4-0.094-0.6-0.131c-0.2-0.037-0.4-0.069-0.6-0.094
	s-0.4-0.044-0.6-0.056c-0.2-0.012-0.4-0.019-0.6-0.019s-0.394,0.006-0.583,0.019c-0.189,0.013-0.374,0.031-0.555,0.056
	c-0.181,0.025-0.359,0.056-0.535,0.094C49.55,45.406,49.375,45.45,49.2,45.5s-0.35,0.106-0.525,0.17
	c-0.175,0.064-0.35,0.136-0.525,0.218c-0.175,0.081-0.35,0.172-0.525,0.273c-0.175,0.102-0.35,0.214-0.525,0.339
	c-0.15,0.1-0.294,0.219-0.431,0.353c-0.138,0.134-0.269,0.284-0.394,0.447s-0.244,0.338-0.356,0.522
	C45.806,48.006,45.7,48.2,45.6,48.4s-0.188,0.406-0.263,0.619c-0.075,0.212-0.137,0.431-0.188,0.656s-0.088,0.456-0.113,0.694
	C45.013,50.606,45,50.85,45,51.1c0,0.275,0.013,0.531,0.037,0.772c0.025,0.241,0.062,0.466,0.113,0.678
	c0.05,0.212,0.112,0.412,0.188,0.603c0.075,0.191,0.162,0.372,0.263,0.547s0.213,0.337,0.338,0.491s0.263,0.297,0.412,0.434
	c0.15,0.138,0.312,0.269,0.487,0.397S47.2,55.275,47.4,55.4c0.175,0.1,0.362,0.194,0.559,0.28c0.197,0.086,0.403,0.164,0.616,0.233
	s0.431,0.128,0.653,0.176c0.222,0.048,0.447,0.086,0.672,0.111s0.463,0.05,0.711,0.073c0.248,0.024,0.508,0.046,0.776,0.065
	c0.269,0.018,0.547,0.034,0.833,0.045S52.8,56.4,53.1,56.4c0.25,0,0.5-0.006,0.75-0.019s0.5-0.031,0.75-0.056s0.5-0.056,0.75-0.094
	c0.25-0.037,0.5-0.081,0.75-0.131s0.494-0.094,0.728-0.134c0.234-0.041,0.459-0.078,0.672-0.116s0.412-0.075,0.597-0.116
	c0.184-0.041,0.353-0.084,0.503-0.134c0-0.05,0-0.1,0.002-0.152c0.002-0.051,0.005-0.104,0.011-0.16
	c0.007-0.056,0.016-0.116,0.03-0.18s0.032-0.133,0.057-0.208c-0.075-0.075-0.125-0.156-0.158-0.245
	c-0.033-0.089-0.048-0.186-0.054-0.292s-0.003-0.222,0.001-0.348C58.494,53.888,58.5,53.75,58.5,53.6z"/>
</svg>
