<?xml version="1.0" encoding="utf-8"?>
<!-- Generator: Adobe Illustrator 25.2.0, SVG Export Plug-In . SVG Version: 6.00 Build 0)  -->
<svg version="1.1" id="Layer_1" xmlns="http://www.w3.org/2000/svg" xmlns:xlink="http://www.w3.org/1999/xlink" x="0px" y="0px"
	 viewBox="0 0 100 100" style="enable-background:new 0 0 100 100;" xml:space="preserve">
<path style="fill:#999999;" d="M54.5,69.4l-2.9,6.5c-0.4,0.9-0.1,1.9,0.8,2.4c0.9,0.4,1.9,0.1,2.4-0.8c0-0.1,0-0.1,0.1-0.2l3.6-8.1
	C57.2,69.5,55.8,69.6,54.5,69.4z"/>
<path style="fill:#999999;" d="M88.7,38.4h-0.4c-0.5-1.8-1.2-3.5-2.2-5.2l0.3-0.3c0.9-0.9,0.9-2.3,0-3.2l0,0l-5.2-5.2
	c-0.9-0.9-2.3-0.9-3.2,0l0,0l-0.3,0.3c-1.6-0.9-3.4-1.7-5.2-2.1v-0.4c0-1.2-1-2.3-2.3-2.3l0,0h-7.4c-1.2,0-2.3,1-2.3,2.3v0.4
	c-1.8,0.5-3.5,1.2-5.2,2.1L55,24.5c-0.9-0.9-2.3-0.9-3.2,0l0,0l-5.2,5.2c-0.9,0.9-0.9,2.3,0,3.2l0.3,0.3c-0.9,1.6-1.7,3.4-2.2,5.2
	h-0.4c-1.2,0-2.3,1-2.3,2.3V48c0,0.3,0,0.5,0.1,0.8c2.2,0.6,4.6,1.3,7,2.1l-0.2-0.6c-0.5-1.6-0.9-3.2-1-4.8H59
	c0.2,1.3,0.7,2.5,1.4,3.5l-0.1,0.1c0.5,0.7,0.8,1.5,0.8,2.3l0.9-0.9c0.2,0.2,0.5,0.3,0.8,0.5L59,59.5c0.4,1.9,2,3.4,3.9,3.7l0.4,0.1
	l0.2,0.3c1,1.4-1.1,3.8-1.5,4.1c-0.2,0.2-0.5,0.3-0.8,0.4c0.4,0.4,1,0.7,1.6,0.7h7.4c1.2,0,2.3-1,2.3-2.3V66l1.2-0.4l5.2,11.6
	c0.4,0.9,1.4,1.3,2.3,0.9s1.3-1.4,0.9-2.3l-5.2-11.5c0.3-0.1,0.5-0.3,0.8-0.4l0.3,0.3c0.9,0.9,2.3,0.9,3.2,0l5.2-5.2
	c0.9-0.9,0.9-2.3,0-3.2l0,0l-0.3-0.3c0.9-1.6,1.7-3.4,2.2-5.2h0.4c1.2,0,2.3-1,2.3-2.3v-7.4C90.9,39.4,89.9,38.4,88.7,38.4
	L88.7,38.4z M67.7,25.9c2.4,0.2,4.8,0.8,7,1.9c1.5,0.7,2.9,1.7,4.1,2.8l-7.7,7.7c-1-0.8-2.2-1.3-3.5-1.4L67.7,25.9z M59,43.2H48.1
	c0.1-1.7,0.5-3.3,1-4.8c0.8-2.3,2-4.5,3.7-6.3l7.7,7.7C59.7,40.8,59.1,42,59,43.2z M62,38.2l-7.7-7.7c1.2-1.1,2.6-2.1,4.1-2.8
	c0.7-0.4,1.4-0.7,2.2-0.9c1.6-0.5,3.2-0.9,4.8-1v10.9C64.2,36.9,63,37.4,62,38.2L62,38.2z M66.5,62.9c-1.7,0-3.4-0.2-5-0.7L66.1,52
	c0.1,0,0.3,0,0.4,0c0.3,0,0.6,0,1-0.1l4.5,10C70.2,62.5,68.4,62.8,66.5,62.9L66.5,62.9z M75.2,60.7l-4.4-9.9
	c0.1-0.1,0.2-0.1,0.3-0.2l7.7,7.7C77.7,59.1,76.5,60,75.2,60.7L75.2,60.7z M84.1,50.3c-0.3,0.8-0.6,1.5-0.9,2.2
	c-0.7,1.5-1.7,2.9-2.8,4.1L72.7,49c0.8-1,1.2-2.2,1.4-3.5H85C84.9,47.1,84.6,48.7,84.1,50.3z M74.1,43.2c-0.2-1.3-0.7-2.4-1.4-3.5
	l7.7-7.7c1.1,1.2,2,2.6,2.8,4.1c1.1,2.2,1.7,4.6,1.9,7L74.1,43.2z"/>
<path d="M62.7,64.1c-5-0.9-5-5.9-5.2-7.2s2.4-2.7,2.6-3.7c0.2-1.1,0-4-1-3.6s-1.4,1.2-3.7,4.8c-4.7-2.8-19.2-6.2-19.2-6.2l0,0
	c-1.8-0.7-3.7-1.1-5.7-1.1c-6.2,0-11.4,3.5-13.2,8.4l0,0c-0.8-0.8-2.5-1.9-4.7,0.2c-0.1,0.1-0.2,0.2-0.4,0.4
	c-0.2,0.1-0.3,0.2-0.5,0.3c-1.7,1-3.1,3-2.4,4.8c0.1,0.3,0.4,0.4,0.7,0.4c0.1,0,0.2,0,0.3,0c0.4-0.1,0.5-0.5,0.4-0.9
	c-0.1-0.7,0.1-1.4,0.6-1.9c0.1,0.4,0.3,0.8,0.6,1.1c0.5,0.6,1.2,0.9,2,0.9l0,0c0.8,0,1.6-0.4,2.2-1c0.8-1,0.7-2.4-0.2-3.2
	c-0.2-0.2-0.5-0.4-0.8-0.6c0.5,0,1,0.2,1.4,0.6l0.1,0.1l0.5,0.4c-0.2,0.8-0.3,1.6-0.3,2.4c0,1.1,0.1,2.2,0.4,3.2l0,0
	c0.7,2.2,2.4,6.3,2.4,6.6c0,0.7,0,1.3-0.1,2C20,72,21.2,80,21.2,80c1.1,0.1,2.2,0,3.3-0.1c-0.2-1.2-0.9-2.4-1.9-3.1
	c0.4-1.2,0.1-5.9,0.1-5.9h1.2v5.4c0.6,0.4,1.6,3.4,1.6,3.4H30c0-1.6-2.8-2-3.5-2.7S26,73,26,71.5c2.6,1.4,6.2,1.8,9.1,1.7
	c1.9-0.1,3.8-0.6,5.6-1.5v8.5h4c0.2-2.2-1.7-3.1-2-3.5S42,73.2,44,73.4c-0.1,1.4,1.9,6.6,1.9,6.6s3.1,0,3.9,0
	c-0.2-1.9-1.3-3.6-2.9-4.7c0-0.7,0-5.4,0-5.4c2.3,0.2,3-0.8,5.8-1.9c2.5,0.7,5.2,0.6,5.6,0c0.4-0.6,2.6-0.8,3-1.1
	C61.8,66.5,63.1,64.7,62.7,64.1z M14.9,58.7c-0.3,0.3-0.7,0.5-1.2,0.5l0,0c-0.4,0-0.7-0.2-0.9-0.5c-0.3-0.3-0.4-0.7,0.3-1.5
	c0.5-0.3,1.2-0.2,1.6,0.1C14.9,57.7,15.3,58.3,14.9,58.7z"/>
</svg>
