<?xml version="1.0" encoding="utf-8"?>
<!-- Generator: Adobe Illustrator 25.2.0, SVG Export Plug-In . SVG Version: 6.00 Build 0)  -->
<svg version="1.1" id="Layer_1" xmlns="http://www.w3.org/2000/svg" xmlns:xlink="http://www.w3.org/1999/xlink" x="0px" y="0px"
	 viewBox="0 0 100 100" style="enable-background:new 0 0 100 100;" xml:space="preserve">
<path style="fill:#999999;" d="M38.1,47.1l-0.4,1.1L37.4,48c-0.2,0.3-0.4,0.7-0.6,1.1c6,2.1,10.4,7.4,11.4,13.7
	c0.7,0.3,1.5,0.5,2.3,0.5c2.4,0,4.5-1.4,5.5-3.5c0.3,1.6,1.1,3,2.4,3.9v12.6l-2.2,2.2c-0.5,0.5-0.5,1.3,0,1.8s1.3,0.5,1.8,0l2.8-2.8
	l0,0c0,0.1,0,0.1,0,0.2v2c0.1,0.7,0.7,1.3,1.4,1.2c0.6-0.1,1.1-0.6,1.2-1.2v-2c0-0.1,0-0.1,0-0.2l0,0l2.8,2.8c0.5,0.5,1.3,0.5,1.8,0
	s0.5-1.3,0-1.8l-2.2-2.2V63.4c1-0.9,1.8-2.1,2-3.5c1.5,2.9,5.1,4.1,8.1,2.6c2-1,3.2-3,3.2-5.2c0-0.1,0-0.3,0-0.4
	c3.1,1.1,6.6-0.5,7.7-3.6c0.9-2.5,0.1-5.3-2.1-6.9c2.8-1.7,3.7-5.4,2-8.3c-1.1-1.7-2.9-2.8-5-2.9c-0.2,0-0.5,0-0.7,0
	c2.1-2.6,1.6-6.4-1-8.4c-2.1-1.6-4.9-1.7-7.1-0.3c0.1-0.6,0.2-1.2,0.2-1.7C73,21.6,70.3,19,67,19c-2.2,0-4.2,1.3-5.2,3.2
	c-1.6-2.9-5.2-4-8.1-2.5c-1.9,1-3.1,3-3.2,5.2c0,0.6,0.1,1.2,0.3,1.8c-1-0.8-2.3-1.2-3.6-1.2c-3.3,0-6,2.7-5.9,6.1
	c0,1.4,0.5,2.8,1.4,3.8c-0.2,0-0.5,0-0.7,0c-3.3,0-6,2.7-6,6c0,0.8,0.2,1.6,0.5,2.4c0.5,0.1,1,0.2,1.5,0.3l1,0.3l-0.6,1.7
	 M45.4,45.4l1.9-4.5l2,4.5H45.4z M52.7,54.5l2-4.5l2,4.5H52.7z M52.7,35.3l2-4.5l2,4.5H52.7z M59.9,45.4l1.9-4.5l2,4.5H59.9z
	 M67,54.5l1.9-4.5l2,4.5H67z M67,35.3l1.9-4.5l2,4.5H67z M74.3,45.4l2-4.5l2,4.5H74.3z"/>
<path d="M29.9,48.9h-0.3c0.6-0.7,1.4-1.2,2.2-1.6c1.7-0.7,3.6-0.9,5.3-0.4l0.6-1.9c-2.3-0.7-4.7-0.5-6.9,0.5c-0.5,0.2-1,0.5-1.4,0.8
	c-0.1-2.5-1.1-4.8-2.7-6.7c-3.2-3.4-8.8-3.1-9-3h-0.9l-0.1,0.8c0,0.2-0.5,5.8,2.7,9.1c1.1,1.1,2.4,1.9,3.8,2.3
	c0.6,0.2,1.2,0.4,1.9,0.5c-7.4,1.9-12.9,8.1-12.9,15.5c0,8.9,7.8,16.1,17.5,16.1s17.7-7,17.7-15.9S39.5,48.9,29.9,48.9z M21,45.3
	c-1.9-2-2.2-5.1-2.2-6.6c1.5,0.1,4.6,0.5,6.6,2.4c1.9,2,2.2,5.1,2.2,6.7C26,47.6,22.9,47.3,21,45.3z M40,66.1c0-0.4,0.1-0.7,0.1-1.1
	c0-5.2-4.6-9.4-10.2-9.4c-0.3,0-0.6,0-0.8,0v-4.8c0.3,0,0.6,0,0.8,0c8.6,0,15.5,6.4,15.5,14.3c0,0.4,0,0.7-0.1,1.1L40,66.1z"/>
</svg>
