<?xml version="1.0" encoding="utf-8"?>
<!-- Generator: Adobe Illustrator 25.2.0, SVG Export Plug-In . SVG Version: 6.00 Build 0)  -->
<svg version="1.1" id="Layer_1" xmlns="http://www.w3.org/2000/svg" xmlns:xlink="http://www.w3.org/1999/xlink" x="0px" y="0px"
	 viewBox="0 0 100 100" style="enable-background:new 0 0 100 100;" xml:space="preserve">
<path d="M15.3,44.3l1.1-1.8v-6.7c0-1.2,0-5,6.2-5s57.3,0.7,57.3,0.7H81h0.1c1.9-1.8,3.1-4.2,3.2-6.9h2.5c-0.1,3.5-1.7,6.7-4.3,9
	l-0.1,0.1l5.7,9.5l-4.3,4.3L81.2,45c-0.7-0.7-1.7-0.7-2.4,0l0,0c-1.2,1.2-9.9,13.6-9.9,13.6v16.1h-6.2V59.9h-37
	c-2.1,0-3.8,1.7-3.8,3.8v11.7h-5.6V47.3C15.4,48.6,13.9,50,12,50v-2.5C13.3,47.5,14.7,45.4,15.3,44.3z"/>
</svg>
