<?xml version="1.0" encoding="utf-8"?>
<!-- Generator: Adobe Illustrator 25.2.0, SVG Export Plug-In . SVG Version: 6.00 Build 0)  -->
<svg version="1.1" id="Layer_1" xmlns="http://www.w3.org/2000/svg" xmlns:xlink="http://www.w3.org/1999/xlink" x="0px" y="0px"
	 viewBox="0 0 100 100" style="enable-background:new 0 0 100 100;" xml:space="preserve">
<path style="fill:#808080;" d="M63.1,40.6C63.4,20.6,47.9,19,43.6,19c-2.9,0.2-5.7,1.1-8.1,2.8v9.7C51.9,29.1,58.6,33.3,63.1,40.6z"
	/>
<path style="fill:#808080;" d="M35.4,33.6v4.6c0.2,1.9,1.9,3.3,3.8,3.1c3.5,0.1,7-0.1,10.4-0.4c2.5-0.4,5.1-0.5,7.6-0.3
	c2,0.4,4.2,2.7,4.2,2.7c0.2-1.8-0.6-3.7-2-4.8C56.8,36,52.4,32.4,35.4,33.6z"/>
<path style="fill:#808080;" d="M49,60.1c-1.7-2-2.2-3.9-1.5-5.6c0.1-0.3,0.3-0.6,0.5-0.9l-6.9-6v-4.8c-4.6,0-7.2-1.8-7.2-5.5V21.8
	C19.3,21.2,17.6,46,18,55.3c-4.7,3.5-7.5,9-7.4,14.9h43.9c0.5-1.2,1.1-2.2,1.8-3.3c0.4-0.5,0.8-1.1,1.2-1.6
	c-0.7-0.2-1.5-0.5-2.2-0.8C52.9,63.6,50.7,62.1,49,60.1z M29.2,33.4c-0.9,0-1.6-1.1-1.6-2.5c0-1.4,0.7-2.5,1.6-2.5s1.6,1.1,1.6,2.5
	C30.8,32.2,30.1,33.4,29.2,33.4z"/>
<path d="M80.2,65.4c5.5-0.9,9.6-3.9,9.2-6.8c-0.5-2.9-5.3-4.5-10.8-3.7c-1.2,0.2-2.3,0.5-3.5,0.9c0.2-1.1,0.3-2.2,0.3-3.4
	c0-5.6-2.4-10.1-5.3-10.1s-5.3,4.6-5.3,10.1c0,1.7,0.2,3.4,0.7,5.1c-1.6-1.6-3.6-2.9-5.7-3.8c-5.1-2.1-10.3-1.6-11.4,1.1
	s2.2,6.6,7.4,8.7c1.2,0.5,2.5,0.9,3.8,1.1c-0.9,0.8-1.6,1.7-2.3,2.7c-3.2,4.6-3.9,9.7-1.5,11.3s6.9-0.7,10.2-5.2
	c0.8-1.1,1.4-2.2,1.9-3.4c0.5,1.7,1.2,3.3,2.2,4.8c3,4.7,7.5,7.2,9.9,5.6c2.5-1.6,2-6.7-1-11.4c-0.9-1.3-1.9-2.6-3.1-3.6
	C77.3,65.7,78.7,65.7,80.2,65.4z M68.8,66.2c-2.1,0-3.8-1.7-3.8-3.8c0-2.1,1.7-3.8,3.8-3.8c2.1,0,3.8,1.7,3.8,3.8l0,0
	C72.6,64.5,70.9,66.2,68.8,66.2z"/>
</svg>
