<?xml version="1.0" encoding="utf-8"?>
<!-- Generator: Adobe Illustrator 25.2.0, SVG Export Plug-In . SVG Version: 6.00 Build 0)  -->
<svg version="1.1" id="Layer_1" xmlns="http://www.w3.org/2000/svg" xmlns:xlink="http://www.w3.org/1999/xlink" x="0px" y="0px"
	 viewBox="0 0 100 100" style="enable-background:new 0 0 100 100;" xml:space="preserve">
<path d="M66.7,52c-3.1-1.4-12.6-5.3-14-5.9c-0.1,0-0.2-0.1-0.3-0.1h-9.7c0.1-0.3,0.1-0.5,0-0.8c0,0-0.2-0.5-0.4-1.3l11.9-2.7
	c0.8-0.2,1.3-1,1.1-1.8s-1-1.3-1.8-1.1l0,0L41.6,41c-0.2-1.1-0.4-2.3-0.5-3.5c-0.1-2.2,2.1-3.5,3.6-3.7c2.1-0.3,9.9-0.5,10-0.6
	c0.8,0,1.5-0.7,1.5-1.5s-0.7-1.5-1.5-1.5l0,0c-0.3,0-8,0.3-10.3,0.6c-3.2,0.4-6.4,3.1-6.2,6.8c0.3,2.9,0.8,5.7,1.6,8.4h-5.2
	c-0.5,0-0.9,0.4-0.9,0.9c0,0.3,0.1,0.6,0.4,0.7l5.2,4c0.4,0.3,0.5,0.9,0.2,1.3l0,0l-6.9,9c-0.3,0.4-0.2,1,0.2,1.3l10.1,7.9
	c0.4,0.3,1,0.3,1.3-0.1c0,0,0,0,0-0.1l10.5-13.6c0.2-0.2,0.4-0.4,0.7-0.3c1.6,0,6.9,0.1,9.5,0.1C67.7,57.3,68.8,52.1,66.7,52z"/>
<path d="M82.5,48.5h-4.8c-0.7-14.2-12-25.6-26.2-26.4v-4.6c0-0.8-0.7-1.5-1.5-1.5s-1.5,0.7-1.5,1.5v4.6C34.3,22.9,23,34.3,22.3,48.5
	h-4.8c-0.8,0-1.5,0.7-1.5,1.5s0.7,1.5,1.5,1.5h4.9c0.9,14,12.1,25.2,26.2,26v5c0,0.8,0.7,1.5,1.5,1.5s1.5-0.7,1.5-1.5v-5
	c14.1-0.8,25.3-12,26.2-26h4.8c0.8,0,1.5-0.7,1.5-1.5S83.3,48.5,82.5,48.5z M51.5,74.5v-3c0-0.8-0.7-1.5-1.5-1.5s-1.5,0.7-1.5,1.5
	v2.9c-12.4-0.8-22.3-10.6-23.1-23h3.1c0.8,0,1.5-0.7,1.5-1.5s-0.7-1.5-1.5-1.5h-3.2C26,35.9,36,25.9,48.5,25.2v3.3
	c0,0.8,0.7,1.5,1.5,1.5s1.5-0.7,1.5-1.5v-3.3C64,25.9,74,36,74.7,48.5h-3.2c-0.8,0-1.5,0.7-1.5,1.5s0.7,1.5,1.5,1.5h3.1
	C73.8,63.9,63.9,73.7,51.5,74.5L51.5,74.5z"/>
</svg>
