<?xml version="1.0" encoding="utf-8"?>
<!-- Generator: Adobe Illustrator 25.2.0, SVG Export Plug-In . SVG Version: 6.00 Build 0)  -->
<svg version="1.1" id="Layer_1" xmlns="http://www.w3.org/2000/svg" xmlns:xlink="http://www.w3.org/1999/xlink" x="0px" y="0px"
	 viewBox="0 0 100 100" style="enable-background:new 0 0 100 100;" xml:space="preserve">
<path d="M89.7,57L89,55.8v-4.4c0-0.8,0-3.2-4-3.2s-37.1,0.5-37.1,0.5h-0.8c-1.2-1.2-2-2.8-2-4.5h-1.6c0,2.2,1,4.4,2.7,5.8l0.1,0.1
	l-3.7,6.1l2.8,2.8l1.6-1.6c0.4-0.4,1.1-0.5,1.6,0l0,0c0.8,0.8,6.4,8.8,6.4,8.8V82h4V67.1h24c1.3,0,2.4,1.1,2.4,2.4v12.8H89V58.9
	c0.6,1,1.6,1.6,2.8,1.8v-1.6C91,59.1,90.1,57.7,89.7,57z"/>
<path d="M51.5,25.9l-9.7-7.6c-0.4-0.3-1.3-1.1-1.7-0.5c0,0-5.5,9.5-11.5,15.5s-18,13-20,15s2,7,6,4s9-8,11-9s2.9,0,3.7,1.2
	s1.6,2.6,2.3,2.9c0.7,0.3,1.9,0,4.8-2.3s15.3-13.1,17-16.3C54.2,27.6,51.5,25.9,51.5,25.9z M13.1,50.4c-0.5,0-0.9-0.4-0.9-0.9
	s0.4-0.9,0.9-0.9S14,49,14,49.5S13.6,50.4,13.1,50.4L13.1,50.4z"/>
</svg>
