<?xml version="1.0" encoding="utf-8"?>
<!-- Generator: Adobe Illustrator 25.2.0, SVG Export Plug-In . SVG Version: 6.00 Build 0)  -->
<svg version="1.1" id="Layer_1" xmlns="http://www.w3.org/2000/svg" xmlns:xlink="http://www.w3.org/1999/xlink" x="0px" y="0px"
	 viewBox="0 0 100 100" style="enable-background:new 0 0 100 100;" xml:space="preserve">
<path d="M52.7,26.7L43,19.1c-0.4-0.3-1.3-1.1-1.7-0.5c0,0-5.5,9.5-11.5,15.5s-18,13-20,15s2,7,6,4s9-8,11-9s2.9,0,3.7,1.2
	c0.8,1.2,1.6,2.6,2.3,2.9c0.7,0.3,1.9,0,4.8-2.3s15.2-13.2,16.9-16.4C55.3,28.4,52.7,26.7,52.7,26.7z M14.3,51.2
	c-0.5,0-0.9-0.4-0.9-0.9s0.4-0.9,0.9-0.9s0.9,0.4,0.9,0.9S14.8,51.2,14.3,51.2L14.3,51.2z"/>
<path d="M36.7,61.5c-2.6,0.8-4.9,2.5-6.5,4.7c-0.2,0.5-1.2,0.5-1.4-0.1c-0.1-0.6-0.8-1-2-0.8c-1.4,0.2-1.4,2.1-1.1,2.9
	c0.1,0.3-0.8,0.3-1.1,1.6c0,2.3,1.7,1.9,1.3,2.4c-0.6,0.8-0.6,2,0,2.9c0.5,0.5,1.1,0.8,1.8,0.8c0.7-0.1,1.2-0.6,1.5-1.2
	c0.5-0.3,0.8-0.1,1.2,0.5c0.5,0.7,1.2,1.3,1.9,1.8c0.4,0.2,0.9,0.2,1.1-0.2c0.1-0.1,0.1-0.3,0.1-0.4v-2.7c0-0.3,0.1-0.5,0.4-0.7
	c1.3-0.7,2.7-1,4.2-0.9h0.1c2.8,0.5,5.4,1,7.7,1.3l-7.3-12.8C38.1,61,37.4,61.3,36.7,61.5z"/>
<path d="M90.5,41.3c0-0.4-0.4-0.8-0.8-0.7c-0.2,0-0.3,0.1-0.4,0.2c-0.6,0.6-1.2,1-1.9,1.3c-0.6,0.1-0.7-0.8-0.7-1.6
	c0-0.4-0.4-0.8-0.8-0.7c-0.1,0-0.1,0-0.2,0c-2,0.5-6.1,2.7-7.6,5.1c-0.1,0.2-0.3,0.4-0.6,0.4c-2.6,0.3-6.2-0.1-7,0.7s-5.4,1.8-7.2,1
	c-2.3-1.2-4.2-3-5.5-5.2c-4.3,2.5-9.4,5.3-12.8,7.3c-0.3,1.6-0.4,3.1-0.3,4.7c0.2,4.3,2.6,8.3,6.4,10.4c4.8,3.1,6.1,3,9.6,5
	c1.3,0.7,2.7,1.1,4.2,1.4l-0.7,5.1l-2.4-1.8c-0.4-0.3-1.1-0.2-1.4,0.2l0,0c-0.3,0.4-0.2,1.1,0.2,1.4l0,0l1.3,0.9h-4
	c-0.6,0-1,0.4-1,1s0.4,1,1,1h3.9l-1.2,0.9c-0.5,0.3-0.6,0.9-0.3,1.4l0,0c0.2,0.3,0.5,0.4,0.8,0.4c0.2,0,0.4-0.1,0.6-0.2l3.5-2.5h2.3
	c0.6,0,1-0.4,1-1s-0.4-1-1-1H66l0.7-5.6c1.7,0.1,3.4-0.1,5-0.5l1.9,4.6l-3.8,0.6c-0.6,0.1-0.9,0.6-0.8,1.1c0.1,0.6,0.6,0.9,1.2,0.9
	l0,0l1.7-0.3l-2.5,2.2c-0.4,0.4-0.5,1-0.1,1.4c0.2,0.2,0.5,0.3,0.8,0.3c0.2,0,0.5-0.1,0.7-0.2l3-2.6l-0.3,2.1
	c-0.1,0.5,0.3,1.1,0.8,1.2h0.2c0.5,0,0.9-0.3,1-0.8l0.7-4.2l1.6-0.4c0.5-0.1,0.9-0.6,0.8-1.1s-0.6-0.9-1.1-0.8c-0.1,0-0.1,0-0.2,0
	l-1.4,0.3l-2-4.8c1.3-0.5,2.5-1.2,3.5-2.1c2.9-3,2.1-2,2.9-3s0.2-2.7,0.6-3.3c1.5-1.4,3-2.8,4.7-4c1.5-1,0.1-3.5,0.9-4.3
	c0.9-0.9,1.9-1.8,2.9-2.6c0.8-0.7-0.6-2.9,0-3.7s0.8-1.5,1.2-1.7S90.6,42.9,90.5,41.3z"/>
<path d="M57.8,41.8L45,49.1l0,0C48.4,47.2,53.5,44.3,57.8,41.8L57.8,41.8z"/>
</svg>
