<?xml version="1.0" encoding="utf-8"?>
<!-- Generator: Adobe Illustrator 25.2.0, SVG Export Plug-In . SVG Version: 6.00 Build 0)  -->
<svg version="1.1" id="Layer_1" xmlns="http://www.w3.org/2000/svg" xmlns:xlink="http://www.w3.org/1999/xlink" x="0px" y="0px"
	 viewBox="0 0 100 100" style="enable-background:new 0 0 100 100;" xml:space="preserve">
<path d="M15.8,44.9l1-1.6v-6c0-1.1,0-4.4,5.5-4.4s51.1,0.6,51.1,0.6h1h0.1c1.7-1.6,2.7-3.8,2.8-6.2h2.2c-0.1,3.1-1.5,6-3.8,8
	l-0.1,0.1l5.1,8.4l-3.9,3.9l-2.2-2.2c-0.6-0.6-1.6-0.6-2.2,0l0,0c-1.1,1.1-8.8,12.2-8.8,12.2v14.4h-5.5V58.8H25
	c-1.9,0-3.4,1.5-3.4,3.4v10.5h-5V47.6c-0.8,1.1-2.1,2.4-3.8,2.4v-2.2C14,47.8,15.3,45.9,15.8,44.9z"/>
<path d="M86,72.7H67.9l-1.1-17.3h20.4L86,72.7z M69.8,70.7h14.4L85,57.3H68.9L69.8,70.7z"/>
</svg>
