<?xml version="1.0" encoding="utf-8"?>
<!-- Generator: Adobe Illustrator 25.2.0, SVG Export Plug-In . SVG Version: 6.00 Build 0)  -->
<svg version="1.1" id="Layer_1" xmlns="http://www.w3.org/2000/svg" xmlns:xlink="http://www.w3.org/1999/xlink" x="0px" y="0px"
	 viewBox="0 0 100 100" style="enable-background:new 0 0 100 100;" xml:space="preserve">
<path style="fill:none;" d="M57.8,21.5l-17.9,6.6l-7.5,14.7c0.4,0.1,0.9,0.3,1.3,0.5c0.7-0.3,1.4-0.5,2.1-0.6l5.7-12.2l16.3-6.7
	l16.4,6.6l5.4,11.7c0.6-1.3,1-2.6,1.3-3.9l-5.1-10L57.8,21.5z"/>
<path style="fill:none;" d="M47.4,46.7c1.3,1.5,2.4,3.2,3.2,5l6.1,5.3l-4.4,3.8c0,0.9-0.1,1.7-0.2,2.6l6-5.2l0.8,0.7l1.3-1.4
	L59.6,57l4.9-4.2c1.7-1.9,3.5-3.5,5.5-5v-1L47.4,46.7L47.4,46.7z M58.1,55.7l-8.4-7.2h16.7L58.1,55.7z"/>
<path style="fill:none;" d="M50.1,41.4h15.7V31H50.1V41.4z M51.9,32.8h12v6.7h-12V32.8z"/>
<path style="fill:#999999;" d="M32.4,42.8l7.5-14.7l17.9-6.6l17.9,6.6l5.1,10c0-0.2,0.1-0.5,0.1-0.7l0.1-0.3l0.2-0.4
	c0.1-0.4,0.3-0.7,0.5-1.1L77.2,27c-0.1-0.2-0.3-0.4-0.5-0.4l-18.6-6.9c-0.2-0.1-0.4-0.1-0.6,0l-18.6,6.9c-0.2,0.1-0.4,0.2-0.5,0.4
	L32,39.6c0,0.9,0.1,1.9,0.1,3.2H32.4z"/>
<path style="fill:#999999;" d="M84.1,43.1c0.4-0.1,0.7-0.2,1.1-0.3l-1.1-2.1v0.2C83.7,42.3,83.7,42.8,84.1,43.1z"/>
<path style="fill:#999999;" d="M50.5,51.6c1.2,2.7,1.7,5.6,1.7,8.5c0,0.2,0,0.4,0,0.5l4.4-3.8L50.5,51.6z"/>
<polygon style="fill:#999999;" points="49.7,48.5 58.1,55.7 66.4,48.5 "/>
<path style="fill:#999999;" d="M60.1,57.4l1.3-1.4c1-1.2,2-2.3,3-3.3l-4.9,4.2L60.1,57.4z"/>
<path style="fill:#999999;" d="M58.8,58.8l-0.7-0.7l-6,5.2c-0.1,0.5-0.2,1-0.3,1.5h2.3c1.1-1.8,2.4-3.5,3.8-5L58.8,58.8z"/>
<path style="fill:#999999;" d="M57.8,23.8l-16.3,6.6l-5.7,12.2c0.8-0.2,1.6-0.3,2.3-0.3c3.6,0.1,6.9,1.6,9.2,4.3h22.5v1.1
	c1.4-1.1,3.1-1.7,4.9-1.8c0.7,0,1.5,0.1,2.2,0.3l0.2-0.2c1-1.2,1.8-2.6,2.4-4l-5.4-11.7L57.8,23.8z M65.8,41.4H50.1V31h15.7
	C65.8,31,65.8,41.4,65.8,41.4z"/>
<path style="fill:#999999;" d="M75.6,66.1L75,66.6h6.2v-6C79.5,62.6,77.6,64.4,75.6,66.1z"/>
<rect x="51.9" y="32.8" style="fill:#999999;" width="12.1" height="6.7"/>
<path d="M38.1,43.4c-1.5,0-3.1,0.3-4.5,1c-0.8-0.4-1.7-0.7-2.5-0.8c-0.2-2.1-0.2-4.2-0.1-6.3c0.4-1.5,1.1-2.9,2-4.2
	c0.3-0.6,0.1-1.3-0.4-1.6c-0.5-0.3-1.1-0.2-1.4,0.2c-1.2,1.6-2.3,3.3-3,5.2c-0.6,1.9-1,4-1,6c0,0.3,0.1,0.5,0.2,0.7
	c-0.8,0.2-1.6,0.5-2.4,0.9c-1.4-0.7-3-1.1-4.7-1.1c-7.3,0-13.2,7.5-13.2,16.8S13,77,20.3,77c0.5,0,1.1-0.1,1.6-0.1
	c2,2,4.7,3.2,7.5,3.3c2.8-0.1,5.5-1.2,7.5-3.2c0.4,0.1,0.9,0.1,1.3,0.1c7.3,0,13.2-7.5,13.2-16.8S45.4,43.4,38.1,43.4z"/>
<path d="M91.6,41.9c-2,0.2-7,2.4-7.8,2.1c-2.2-1.1,0-3.9-0.5-6.8c-0.6-2.3-1-0.7-1.4,0.3c-0.5,3.3-1.9,6.5-4.1,9.2
	c0.9,0.4,1.8,1,2.4,1.8c1.1,1,1.9,2.2,2.6,3.5c1.1-0.8,3.2-2.3,4.8-2.1c1.3,0.1,2.6,0.4,3.8,1.1c0.8,0.4,1.7-0.8,0-1.6
	c-2-0.8-4.1-1.1-6.2-1.1c0-1.5,1.7-2.8,3.1-3.7c1.2-0.7,2.6-1.1,4-1.2C92.8,43.4,93.6,41.8,91.6,41.9z"/>
<path d="M69.4,70.6c-5.4,5.8-12.7,8.5-16.8,9.7c-1.1,0.3-2.3-0.3-2.6-1.5c-0.1-0.3-0.1-0.7,0-1c0.9-4.2,3.2-11.5,8.7-17.3
	C66.8,52,73,42.6,79.6,49.2C87.8,57.4,77.4,62.1,69.4,70.6z"/>
</svg>
