<?xml version="1.0" encoding="utf-8"?>
<!-- Generator: Adobe Illustrator 25.2.0, SVG Export Plug-In . SVG Version: 6.00 Build 0)  -->
<svg version="1.1" id="Layer_1" xmlns="http://www.w3.org/2000/svg" xmlns:xlink="http://www.w3.org/1999/xlink" x="0px" y="0px"
	 viewBox="0 0 100 100" style="enable-background:new 0 0 100 100;" xml:space="preserve">
<rect x="70.9" y="19.9" width="9.2" height="4.1"/>
<path d="M90.2,32.3c-0.1-0.4-0.4-0.9-0.7-1.2l-5.7-5.5c-0.4-0.4-1-0.7-1.6-0.7H69.7c-4.4,0-8.1,3.6-8.1,8l0,0v8.2l5.1,0.1h0.2
	c0.9-1,1.5-2.4,1.5-3.8v-2h6.1v2c0,3-1.2,5.8-3.2,8l4,6.6l0.8,1.3L75,54.4l-3.6,3.7L70,59.5l-1.4-1.4l-1.7-1.7
	c-0.9,1.1-2.9,4-5.2,7.1v16.6h28.5V53.4c0.1-0.3,0.1-0.6,0.1-0.9V33.1C90.3,32.8,90.3,32.5,90.2,32.3z M88.5,47.3
	c0,1-0.8,1.9-1.9,1.9c-0.5,0-1-0.2-1.3-0.5l-5.1-5c-0.4-0.4-0.6-0.8-0.6-1.4V28.4c0-1,0.9-1.9,1.9-1.9c0.5,0,1,0.2,1.3,0.5l5.1,5
	c0.4,0.4,0.6,0.8,0.6,1.4V47.3z"/>
<path d="M68.7,45.1L68.7,45.1c2.3-2,3.6-4.8,3.7-7.7h-2.1c-0.1,2.2-1.1,4.3-2.7,5.8h-0.1h-0.9c0,0-42.9-0.6-48.1-0.6
	s-5.2,3.1-5.2,4.2v5.7L12.4,54c-0.5,0.9-1.7,2.7-2.8,2.7v2.1c1.5-0.2,2.9-1,3.6-2.3v23.6H18v-8.5h2.1c2.8,0,5.3-1.8,6.1-4.5h25.9
	v12.5h5.2V66.1c0,0,7.3-10.4,8.3-11.5c0.6-0.6,1.5-0.6,2,0l0,0l2.1,2.1l3.7-3.6L68.7,45.1z"/>
</svg>
