<?xml version="1.0" encoding="utf-8"?>
<!-- Generator: Adobe Illustrator 25.2.0, SVG Export Plug-In . SVG Version: 6.00 Build 0)  -->
<svg version="1.1" id="Layer_1" xmlns="http://www.w3.org/2000/svg" xmlns:xlink="http://www.w3.org/1999/xlink" x="0px" y="0px"
	 viewBox="0 0 100 100" style="enable-background:new 0 0 100 100;" xml:space="preserve">
<path d="M71,48h-7.4l-9.1,9.5l-6.8-8.4c0,0-0.3-2.1,1.3-2.4c1.6-0.3,10-1.5,10.9-10.4c0.9-9-6.5-13.6-10.3-14.3H35.2h-5.5H29v44.5
	h6.2V47.3h3.5L49.9,61c0.4,0.8,0.8,2,0.5,2.8C49.8,65.2,39,78,39,78h6.3l8.5-9.6c0,0,0.7-0.5,1.6-0.6L63.7,78H71L58.6,62.7L71,48z
	 M35.2,41.2v-13h14.3c0,0,4.6,1.6,4.4,6.5c-0.2,4.9-5.7,6.5-5.7,6.5H35.2z"/>
</svg>
