<?xml version="1.0" encoding="utf-8"?>
<!-- Generator: Adobe Illustrator 25.2.0, SVG Export Plug-In . SVG Version: 6.00 Build 0)  -->
<svg version="1.1" id="Layer_1" xmlns="http://www.w3.org/2000/svg" xmlns:xlink="http://www.w3.org/1999/xlink" x="0px" y="0px"
	 viewBox="0 0 100 100" style="enable-background:new 0 0 100 100;" xml:space="preserve">
<path d="M11.8,42.9c0,0,3.5,0.9,3.8,4.8c0.3,3.9-0.1,14.4,12.2,15.8c0,0-3.2-4.8-5.2-6.5s-2.5-5-1.4-5.8c1-0.8,3.5,0.1,5.7,3.1
	s10.1,8,12,9.2s8.4,8.4,5.9,15.3l-0.8,3.5h-8.7c0,0,0-6.1-5.3-9.1S8,61.5,11.8,42.9z"/>
<path d="M88.2,42.9c0,0-3.5,0.9-3.8,4.8c-0.3,3.9,0.1,14.4-12.2,15.8c0,0,3.2-4.8,5.2-6.5c1.9-1.7,2.5-5,1.4-5.8
	c-1-0.8-3.5,0.1-5.7,3.1s-10.1,8-12,9.2s-8.4,8.4-5.9,15.3l0.8,3.5h8.7c0,0,0-6.1,5.3-9.1S92,61.5,88.2,42.9z"/>
<ellipse cx="45.7" cy="21.3" rx="4.3" ry="3.6"/>
<path d="M58.3,36.9c-0.1-6.6-6.2-10.8-6.4-11c-1.1-0.8-2.7-0.5-3.5,0.6c-0.8,1.1-0.5,2.7,0.6,3.5c0,0,0.4,0.3,1,0.8l-7.4,5.8
	c0,0-0.7,0.6-0.6,1.4c-2,0.6-2.6,2.2-2.6,3.2v16.3c0,0.3,0.3,0.6,0.6,0.6s0.6-0.3,0.6-0.6V41.2c0-0.2,0-2,2.7-2.1
	c0.9,0,1.6,0.2,2.1,0.6c0.7,0.6,0.7,1.5,0.7,1.6c0,0.3,0.3,0.6,0.6,0.6c0,0,0,0,0,0c0.3,0,0.6-0.3,0.6-0.6c0-0.1-0.1-1.5-1.1-2.4
	c-0.3-0.3-0.7-0.5-1.1-0.6c1.7-1.6,6.6-5,6.6-5s0,0,0.1-0.1c0.8,1.1,1.4,2.5,1.4,4c0.1,5.3-0.1,18.7-0.1,18.8c0,1.4,1.1,2.5,2.5,2.5
	c0,0,0,0,0,0c1.4,0,2.5-1.1,2.5-2.5C58.2,55.3,58.4,42.3,58.3,36.9z"/>
</svg>
