<?xml version="1.0" encoding="utf-8"?>
<!-- Generator: Adobe Illustrator 25.2.0, SVG Export Plug-In . SVG Version: 6.00 Build 0)  -->
<svg version="1.1" id="Layer_1" xmlns="http://www.w3.org/2000/svg" xmlns:xlink="http://www.w3.org/1999/xlink" x="0px" y="0px"
	 viewBox="0 0 100 100" style="enable-background:new 0 0 100 100;" xml:space="preserve">
<ellipse transform="matrix(0.9596 -0.2814 0.2814 0.9596 -6.6795 12.1088)" cx="38.8" cy="29.3" rx="5.8" ry="8.8"/>
<ellipse transform="matrix(0.6372 -0.7707 0.7707 0.6372 -1.5036 69.6791)" cx="73.3" cy="36.4" rx="8" ry="6.2"/>
<ellipse transform="matrix(0.7662 -0.6426 0.6426 0.7662 -21.6077 27.4505)" cx="26.9" cy="43.4" rx="5.8" ry="8.8"/>
<path d="M55.5,20.1c0,0,6-3.9,8.8,1.2s-1.6,10.9-3.8,12.3c-2.2,1.4-9.4,1.1-9.4-5.2C51,22.6,55.5,20.1,55.5,20.1z"/>
<path d="M59.9,39.5c-6.3-5.5-13.9-1.6-13.9-1.6c-8.6,4.2-11.5,12.3-16.6,20c-5.2,7.7,0,16.6,4.8,20.2c4.8,3.5,37.6,7.2,41.6-6
	C79.8,58.9,66.3,45,59.9,39.5z M68,65.8H57.3v10.2H44.4V65.8h-10v-12h10V43.4h12.9v10.4H68V65.8z"/>
</svg>
