<?xml version="1.0" encoding="utf-8"?>
<!-- Generator: Adobe Illustrator 25.2.0, SVG Export Plug-In . SVG Version: 6.00 Build 0)  -->
<svg version="1.1" id="Layer_1" xmlns="http://www.w3.org/2000/svg" xmlns:xlink="http://www.w3.org/1999/xlink" x="0px" y="0px"
	 viewBox="0 0 100 100" style="enable-background:new 0 0 100 100;" xml:space="preserve">
<polygon points="50.4,19 91.3,33.8 8.7,33.8 "/>
<polygon points="88.9,35.7 88.9,78.6 11.4,78.6 11.4,35.7 9.2,35.7 9.2,78.6 9.2,81 11.4,81 88.9,81 91,81 91,78.6 91,35.7 "/>
<path d="M80.3,50.7c-2-0.2-5-1-8.1-4l-0.3-0.3H69v0H31v0h-3c-3.1,3.3-6.7,4-8.9,4.1v0h-2.2v18.6v1.6v1.6h65.6v-1.6v-1.6V52.6v-1.9
	H80.3z M19.1,69.2V52.7c2,0,5.6-0.6,9.4-3.9H69h2.1c3.6,3.2,7,3.8,9.2,3.9v16.5H19.1z"/>
<circle cx="14.3" cy="54.5" r="1.8"/>
<circle cx="84.8" cy="54.5" r="1.8"/>
<path d="M78.6,66.8h-5.2V56.5c0-0.6,0.4-1,1-1h4.2V66.8z"/>
<circle cx="24.9" cy="62.3" r="4.6"/>
<g>
	<path d="M55.5,64.9c0.4-0.4,0.5-0.8,0.5-1.2c-0.1-2.1-3.6-3.2-6.8-3.8H32.4c-1.1,0-2,0.9-2,2v3c0,1.1,0.9,2,2,2h17.9
		C52.4,66.5,54.6,65.9,55.5,64.9z"/>
	<path d="M52.4,59.9c2.3,0.7,4.3,1.9,4.4,3.8c0,0.6-0.2,1.2-0.7,1.7c-0.6,0.6-1.5,1.1-2.5,1.4H77v-6.9H52.4z"/>
</g>
</svg>
