<?xml version="1.0" encoding="utf-8"?>
<!-- Generator: Adobe Illustrator 25.2.0, SVG Export Plug-In . SVG Version: 6.00 Build 0)  -->
<svg version="1.1" id="Layer_1" xmlns="http://www.w3.org/2000/svg" xmlns:xlink="http://www.w3.org/1999/xlink" x="0px" y="0px"
	 viewBox="0 0 100 100" style="enable-background:new 0 0 100 100;" xml:space="preserve">
<polygon points="49.9,19 89.5,31.4 89.5,33.1 10.4,33.1 10.4,31.1 "/>
<rect x="14.8" y="74.1" width="70.5" height="2"/>
<rect x="9.9" y="78.1" width="80.2" height="2.9"/>
<path d="M33.2,69c-2.1,1.3-4.7,2-7.8,2c-4,0-7.2-1.6-9.7-4.7c-2.4-3.2-3.6-7.3-3.6-12.4c0-5.5,1.4-10,4.1-13.4s6.2-5.1,10.3-5.1
	c2.7,0,4.9,0.5,6.7,1.4v5.7c-1.9-1.4-3.9-2.1-6.2-2.1c-3,0-5.4,1.2-7.3,3.6c-1.9,2.4-2.8,5.6-2.8,9.6c0,3.8,0.9,6.8,2.6,9.1
	c1.7,2.3,4,3.4,6.9,3.4c2.6,0,4.9-0.8,6.8-2.3V69z"/>
<path d="M38.4,70.5V36h8c10.2,0,15.3,5.6,15.3,16.8c0,5.3-1.4,9.6-4.3,12.8c-2.8,3.2-6.6,4.8-11.4,4.8H38.4z M43,40.9v24.8h3.7
	c3.2,0,5.8-1.1,7.6-3.3c1.8-2.2,2.7-5.3,2.7-9.4c0-8.1-3.4-12.1-10.1-12.1H43z"/>
<path d="M86.2,69c-2.1,1.3-4.7,2-7.8,2c-4,0-7.2-1.6-9.7-4.7c-2.4-3.2-3.6-7.3-3.6-12.4c0-5.5,1.4-10,4.1-13.4s6.2-5.1,10.3-5.1
	c2.7,0,4.9,0.5,6.7,1.4v5.7c-1.9-1.4-3.9-2.1-6.2-2.1c-3,0-5.4,1.2-7.3,3.6c-1.9,2.4-2.8,5.6-2.8,9.6c0,3.8,0.9,6.8,2.6,9.1
	c1.7,2.3,4,3.4,6.9,3.4c2.6,0,4.9-0.8,6.8-2.3V69z"/>
</svg>
