<?xml version="1.0" encoding="utf-8"?>
<!-- Generator: Adobe Illustrator 25.2.0, SVG Export Plug-In . SVG Version: 6.00 Build 0)  -->
<svg version="1.1" id="Layer_1" xmlns="http://www.w3.org/2000/svg" xmlns:xlink="http://www.w3.org/1999/xlink" x="0px" y="0px"
	 viewBox="0 0 100 100" style="enable-background:new 0 0 100 100;" xml:space="preserve">
<path d="M90.5,71.7c0,0-2.1,5.2-6.3,5.1c-4.2-0.1-6.9-5.7-6.9-5.7s-2.8,5.9-6.4,5.7c-3.7-0.2-7.3-5.7-7.3-5.7s-0.9,5.8-6.3,5.7
	s-6.9-5.7-6.9-5.7s-2.7,5.8-6.7,5.7c-4-0.1-7.5-6.3-7.5-6.3s-0.7,6.5-6.1,6.3c-5.4-0.1-7.1-6.3-7.1-6.3s-0.9,6.5-6.8,6.3
	c-5.9-0.1-6.6-5.7-6.6-5.7v7.1c0,0,1.8,3.3,6.6,3.2s7.2-5.5,7.2-5.5s1.2,5.4,6.4,5.5c5.2,0.1,7-4.8,7-4.8s2,4.7,7,4.8
	c5,0.1,7.1-5.5,7.1-5.5s0.3,5.2,6.4,5.5s6.7-5.5,6.7-5.5s0.8,5.1,7.1,5.5s6.5-5.5,6.5-5.5s2,5.6,6,5.5
	C87.5,81.4,90.1,82.1,90.5,71.7z"/>
<path d="M85.9,38.5v18.1h-71V43.4l6.7-11.7V18.5H10.7v13.3v11.7v13.1v2.7l7.8,11.7c3.8-1.3,4.5-6,4.5-6s1.7,6.2,7.1,6.3
	c5.4,0.1,6.1-6.3,6.1-6.3s3.5,6.2,7.5,6.3s6.7-5.7,6.7-5.7s1.4,5.5,6.9,5.7c5.4,0.1,6.3-5.7,6.3-5.7s3.7,5.4,7.3,5.7
	c3.7,0.2,6.4-5.7,6.4-5.7s1.5,3,3.9,4.7l6.4-11.2h0.7V38.5H85.9z M13.3,19.9h6.4v8.4h-6.4V19.9z"/>
<path d="M80.6,43.1l-2-5.2L65.2,34l-4.8-7.7h-20l-4.5,7.9l-10.5,2.2v4.8c0,0-1-0.2-1.8,1.5s1.3,2.9,1.3,2.9v2.1h3.2
	c0,0,0.2-6.4,6.8-6.4s6.8,6.4,6.8,6.4h21.5c0,0-0.2-7,6.4-7.1c6.6-0.1,7.1,7.1,7.1,7.1h3.7l1.3-2v-2.5H80.6z M49,35.1H38.3
	c0,0,0.9-5,3-6.3H49V35.1z M50.7,35.1v-6.3H59c2.2,1.3,3.2,6.3,3.2,6.3H50.7z"/>
<path d="M34.9,43.3c-3,0-5.4,2.3-5.4,5.1s2.4,5.1,5.4,5.1s5.4-2.3,5.4-5.1S37.8,43.3,34.9,43.3z M34.9,51.8c-2,0-3.6-1.5-3.6-3.4
	s1.6-3.4,3.6-3.4s3.6,1.5,3.6,3.4S36.8,51.8,34.9,51.8z"/>
<path d="M70,43.3c-3,0-5.4,2.3-5.4,5.1s2.4,5.1,5.4,5.1s5.4-2.3,5.4-5.1S73,43.3,70,43.3z M70,51.8c-2,0-3.6-1.5-3.6-3.4
	S68,45,70,45s3.6,1.5,3.6,3.4S72,51.8,70,51.8z"/>
</svg>
