<?xml version="1.0" encoding="utf-8"?>
<!-- Generator: Adobe Illustrator 25.2.0, SVG Export Plug-In . SVG Version: 6.00 Build 0)  -->
<svg version="1.1" id="Layer_1" xmlns="http://www.w3.org/2000/svg" xmlns:xlink="http://www.w3.org/1999/xlink" x="0px" y="0px"
	 viewBox="0 0 100 100" style="enable-background:new 0 0 100 100;" xml:space="preserve">
<path d="M84,21.1c0,0-7.2-3-15.1-1.9c-7.9,1.2-31,4.1-31,4.1v7.8h-2.5v3.1l3.3,1.6l3.2-1.6v-3h-2.1v-6.5h28.6V27h4.1v54h2.1V24.3
	h1.6v56.7h2.2V24.5h11.6V21L84,21.1z"/>
<rect x="24" y="41.5" width="12.2" height="5.8"/>
<rect x="17.9" y="48.9" width="5.1" height="4"/>
<rect x="24.4" y="48.9" width="5.1" height="4"/>
<rect x="31" y="48.9" width="5.1" height="4"/>
<rect x="37.5" y="48.9" width="5.1" height="4"/>
<rect x="17.5" y="54.1" width="5.1" height="4"/>
<rect x="24.1" y="54.1" width="5.1" height="4"/>
<rect x="30.8" y="54.1" width="5.1" height="4"/>
<rect x="37.4" y="54.1" width="5.1" height="4"/>
<rect x="17.5" y="59.3" width="5.1" height="4"/>
<rect x="10.9" y="54.1" width="5.1" height="4"/>
<rect x="10.9" y="59.3" width="5.1" height="4"/>
<rect x="44" y="54.1" width="5.1" height="4"/>
<rect x="44" y="59.3" width="5.1" height="4"/>
<rect x="24.1" y="59.3" width="5.1" height="4"/>
<rect x="30.8" y="59.3" width="5.1" height="4"/>
<rect x="37.4" y="59.3" width="5.1" height="4"/>
<polygon points="22.9,43.7 22.9,41.5 19.9,41.5 19.9,42.9 22.2,43.7 "/>
<polygon points="37.3,43.7 37.3,41.5 40.3,41.5 40.3,42.9 38.1,43.7 "/>
<rect x="29.5" y="35.1" width="1.3" height="5.4"/>
<path d="M13.6,64.4h33.6c0,0-13.3,3.6-17.1,14.1C30.1,78.4,25.6,67.2,13.6,64.4z"/>
<path d="M10.9,65.1c0,0,13,3.2,18.3,14.6H14.7C14.7,79.7,13.1,68.2,10.9,65.1z"/>
<path d="M49.1,65.1c0,0-13,3.2-18.3,14.6h14.6C45.3,79.7,46.9,68.2,49.1,65.1z"/>
<rect x="9.8" y="78.9" width="3.8" height="1.4"/>
<rect x="46.6" y="78.9" width="3.8" height="1.4"/>
</svg>
