<?xml version="1.0" encoding="utf-8"?>
<!-- Generator: Adobe Illustrator 25.2.0, SVG Export Plug-In . SVG Version: 6.00 Build 0)  -->
<svg version="1.1" id="Layer_1" xmlns="http://www.w3.org/2000/svg" xmlns:xlink="http://www.w3.org/1999/xlink" x="0px" y="0px"
	 viewBox="0 0 100 100" style="enable-background:new 0 0 100 100;" xml:space="preserve">
<path d="M90.4,22.7c-1.8-1.5-5.7-5.1-8.5-5.7c-2.9,2.2-13.3,2.3-19.4,2.5c-4.3,0-8.5-0.9-12.5-2.5c-6,1.6-12.1,2.5-18.3,2.5
	c-6.1-0.2-10.8-0.3-13.7-2.5c-2.8,0.6-6.7,4.3-8.5,5.7c2.7,3.8,5.8,8.9,4.8,16.8c0,0-4.7,15.5-4.8,22.5S12.2,74.6,21,76.5
	s19.9,1.4,29.1,6.5c9.2-5.1,20.2-4.6,28.9-6.5c8.8-1.9,11.6-7.6,11.4-14.6c-0.1-7-4.7-22.5-4.7-22.5C84.6,31.5,87.7,26.4,90.4,22.7z
	"/>
</svg>
