<?xml version="1.0" encoding="utf-8"?>
<!-- Generator: Adobe Illustrator 25.2.0, SVG Export Plug-In . SVG Version: 6.00 Build 0)  -->
<svg version="1.1" id="Layer_1" xmlns="http://www.w3.org/2000/svg" xmlns:xlink="http://www.w3.org/1999/xlink" x="0px" y="0px"
	 viewBox="0 0 100 100" style="enable-background:new 0 0 100 100;" xml:space="preserve">
<path d="M90.4,22.7c-1.8-1.5-5.7-5.1-8.5-5.7c-2.9,2.2-13.3,2.3-19.4,2.5c-4.3,0-8.5-0.9-12.5-2.5c-6,1.6-12.1,2.5-18.3,2.5
	c-6.1-0.2-10.8-0.3-13.7-2.5c-2.8,0.6-6.7,4.3-8.5,5.7c2.7,3.8,5.8,8.9,4.8,16.8c0,0-4.7,15.5-4.8,22.5S12.2,74.6,21,76.5
	s19.9,1.4,29.1,6.5c9.2-5.1,20.2-4.6,28.9-6.5c8.8-1.9,11.6-7.6,11.4-14.6c-0.1-7-4.7-22.5-4.7-22.5C84.6,31.5,87.7,26.4,90.4,22.7z
	"/>
<path style="fill:#FFFFFF;" d="M21.4,34.8h14.1v3.4h-9.9v7.6h8v3.4h-8v11h-4.2V34.8z"/>
<path style="fill:#FFFFFF;" d="M35.3,34.8h4.3l3.4,19l4-19h3.6l3.9,19l3.6-19h3.5l-5.3,25.4h-3.8l-4-18.6l-4,18.6h-3.8L35.3,34.8z"
	/>
<path style="fill:#FFFFFF;" d="M79.2,40.5l-3.6,1.2c-0.3-1.1-0.9-2.2-1.7-3c-0.8-0.7-1.8-1-2.8-1c-1-0.1-1.9,0.3-2.6,1
	c-0.6,0.6-0.9,1.4-0.9,2.2c0,0.9,0.3,1.7,1,2.2c1.2,0.8,2.6,1.5,4,2c1.4,0.5,2.7,1.1,4,1.9c0.9,0.6,1.7,1.4,2.3,2.4
	c0.6,1.1,0.9,2.3,0.9,3.5c0,2-0.8,4-2.3,5.4c-1.7,1.6-4,2.4-6.3,2.2c-4.7,0-7.6-2.4-8.7-7.1l3.8-1.1c0.7,3.1,2.4,4.7,5.1,4.7
	c1.1,0.1,2.2-0.3,3.1-1c0.7-0.7,1-1.6,1-2.6c0-0.8-0.3-1.5-0.7-2.1c-0.5-0.7-1.7-1.3-3.6-2.1c-1.5-0.5-3-1.2-4.4-2
	c-2-1.3-3.3-3.5-3.2-5.9c0-1.9,0.7-3.8,2.1-5.1c1.5-1.4,3.5-2.1,5.6-2.1C75.5,34.4,78.1,36.4,79.2,40.5z"/>
</svg>
