<?xml version="1.0" encoding="utf-8"?>
<!-- Generator: Adobe Illustrator 25.2.0, SVG Export Plug-In . SVG Version: 6.00 Build 0)  -->
<svg version="1.1" id="Layer_1" xmlns="http://www.w3.org/2000/svg" xmlns:xlink="http://www.w3.org/1999/xlink" x="0px" y="0px"
	 viewBox="0 0 100 100" style="enable-background:new 0 0 100 100;" xml:space="preserve">
<path d="M90.4,22.7c-1.8-1.5-5.7-5.1-8.5-5.7c-2.9,2.2-13.3,2.3-19.4,2.5c-4.3,0-8.5-0.9-12.5-2.5c-6,1.6-12.1,2.5-18.3,2.5
	c-6.1-0.2-10.8-0.3-13.7-2.5c-2.8,0.6-6.7,4.3-8.5,5.7c2.7,3.8,5.8,8.9,4.8,16.8c0,0-4.7,15.5-4.8,22.5S12.2,74.6,21,76.5
	s19.9,1.4,29.1,6.5c9.2-5.1,20.2-4.6,28.9-6.5c8.8-1.9,11.6-7.6,11.4-14.6c-0.1-7-4.7-22.5-4.7-22.5C84.6,31.5,87.7,26.4,90.4,22.7z
	"/>
<path style="fill:#FFFFFF;" d="M23.2,29.9h5.4v32.7h-5.4V29.9z"/>
<path style="fill:#FFFFFF;" d="M51.2,51.6l5,0.7c-1,7.3-4.6,10.9-10.7,10.9c-4,0-7-1.5-8.9-4.6c-1.9-3-2.9-7.1-2.9-12.2
	c0-5.5,1-9.7,3.1-12.7c2-2.9,5.4-4.6,8.9-4.4c6,0,9.5,3.7,10.5,11.1l-5,0.7c-0.5-4.9-2.4-7.4-5.5-7.4c-4.2,0-6.2,4.3-6.2,12.9
	c0,8,2.1,12,6.2,12c1.5,0.1,2.9-0.6,3.7-1.8C50.5,55.2,51,53.4,51.2,51.6z"/>
<path style="fill:#FFFFFF;" d="M60.7,29.9h18.7v4.3H66.1v9.3h10.5v4.4H66.1v10.2h13.5v4.4H60.7V29.9z"/>
</svg>
