<?xml version="1.0" encoding="utf-8"?>
<!-- Generator: Adobe Illustrator 25.2.0, SVG Export Plug-In . SVG Version: 6.00 Build 0)  -->
<svg version="1.1" id="Layer_1" xmlns="http://www.w3.org/2000/svg" xmlns:xlink="http://www.w3.org/1999/xlink" x="0px" y="0px"
	 viewBox="0 0 100 100" style="enable-background:new 0 0 100 100;" xml:space="preserve">
<path d="M90.4,22.7c-1.8-1.5-5.7-5.1-8.5-5.7c-2.9,2.2-13.3,2.3-19.4,2.5c-4.3,0-8.5-0.9-12.5-2.5c-6,1.6-12.1,2.5-18.3,2.5
	c-6.1-0.2-10.8-0.3-13.7-2.5c-2.8,0.6-6.7,4.3-8.5,5.7c2.7,3.8,5.8,8.9,4.8,16.8c0,0-4.7,15.5-4.8,22.5S12.2,74.6,21,76.5
	s19.9,1.4,29.1,6.5c9.2-5.1,20.2-4.6,28.9-6.5c8.8-1.9,11.6-7.6,11.4-14.6c-0.1-7-4.7-22.5-4.7-22.5C84.6,31.5,87.7,26.4,90.4,22.7z
	"/>
<path style="fill:#FFFFFF;" d="M18.2,33.7h5.7l9.7,21.1V33.7h4V63h-4.5L22.2,39.5V63h-4.1V33.7z"/>
<path style="fill:#FFFFFF;" d="M43.1,33.7h7.3c1.9-0.1,3.8,0.2,5.7,0.7c1.5,0.5,2.8,1.5,3.7,2.9c1,1.6,1.5,3.5,1.5,5.4
	c0.1,1.7-0.4,3.5-1.2,5c-0.7,1.3-1.9,2.4-3.2,3c-2,0.7-4.1,1-6.2,0.9h-2.5V63h-4.9V33.7z M47.9,37.5v10.2h2.4c2.2,0,3.6-0.4,4.5-1.2
	c0.9-1.1,1.4-2.5,1.2-3.9c0-1.1-0.2-2.3-0.8-3.3c-0.4-0.7-1-1.3-1.8-1.5c-1-0.2-2.1-0.3-3.1-0.3L47.9,37.5z"/>
<path style="fill:#FFFFFF;" d="M82.3,40.2l-4.2,1.4c-0.3-1.3-1-2.5-1.9-3.4c-0.9-0.8-2.1-1.2-3.2-1.1c-1.1-0.1-2.2,0.3-3,1.1
	c-0.7,0.7-1,1.6-1,2.6c0,1,0.4,2,1.2,2.6c1.4,1,3,1.7,4.7,2.3c1.6,0.6,3.1,1.3,4.6,2.2c2.3,1.5,3.7,4,3.6,6.8c0,2.4-0.9,4.6-2.6,6.2
	c-2,1.8-4.6,2.8-7.3,2.6c-5.4,0-8.8-2.7-10.1-8.2l4.3-1.2c0.8,3.6,2.7,5.4,5.9,5.4c1.3,0.1,2.6-0.3,3.5-1.2c0.8-0.8,1.2-1.9,1.2-3
	c0-0.9-0.3-1.7-0.8-2.4c-0.6-0.7-2-1.5-4.2-2.4c-1.8-0.6-3.4-1.4-5.1-2.3c-1.1-0.7-2-1.6-2.6-2.7c-0.7-1.2-1.1-2.7-1.1-4.1
	c0-2.2,0.8-4.3,2.4-5.9c1.8-1.6,4.1-2.5,6.5-2.4C77.9,33.2,81,35.5,82.3,40.2z"/>
</svg>
