<?xml version="1.0" encoding="utf-8"?>
<!-- Generator: Adobe Illustrator 25.2.0, SVG Export Plug-In . SVG Version: 6.00 Build 0)  -->
<svg version="1.1" id="Layer_1" xmlns="http://www.w3.org/2000/svg" xmlns:xlink="http://www.w3.org/1999/xlink" x="0px" y="0px"
	 viewBox="0 0 100 100" style="enable-background:new 0 0 100 100;" xml:space="preserve">
<path d="M90.4,22.7c-1.8-1.5-5.7-5.1-8.5-5.7c-2.9,2.2-13.3,2.3-19.4,2.5c-4.3,0-8.5-0.9-12.5-2.5c-6,1.6-12.1,2.5-18.3,2.5
	c-6.1-0.2-10.8-0.3-13.7-2.5c-2.8,0.6-6.7,4.3-8.5,5.7c2.7,3.8,5.8,8.9,4.8,16.8c0,0-4.7,15.5-4.8,22.5S12.2,74.6,21,76.5
	s19.9,1.4,29.1,6.5c9.2-5.1,20.2-4.6,28.9-6.5c8.8-1.9,11.6-7.6,11.4-14.6c-0.1-7-4.7-22.5-4.7-22.5C84.6,31.5,87.7,26.4,90.4,22.7z
	"/>
<path style="fill:#FFFFFF;" d="M20.1,34.5h8.1c1.6-0.1,3.1,0.1,4.6,0.5c1.1,0.4,2.1,1.2,2.7,2.2c0.8,1.2,1.2,2.7,1.1,4.1
	c0.2,2.6-1.5,5.1-4,5.8c3.2,1,4.8,3.2,4.8,6.7c0,1.9-0.6,3.7-1.9,5.1c-1.3,1.5-3.7,2.2-7.2,2.2h-8.2V34.5z M24.4,45.6h2.8
	c2,0,3.3-0.4,3.9-1.1c0.6-0.8,1-1.8,0.9-2.8c0.1-1.1-0.3-2.1-1.1-2.9c-1-0.7-2.1-1-3.3-0.9h-3.2V45.6z M24.4,57.7h3.5
	c3.3,0,4.9-1.4,4.9-4.3c0-1.1-0.3-2.1-1-3c-0.7-0.9-2.1-1.3-4.2-1.3h-3.2V57.7z"/>
<path style="fill:#FFFFFF;" d="M59.8,47.8c0,4.6-0.8,8-2.5,10.3c-1.6,2.3-4.3,3.6-7.1,3.5c-2.8,0.1-5.5-1.2-7.1-3.5
	c-1.7-2.3-2.5-5.8-2.5-10.3s0.8-8,2.5-10.3c1.6-2.3,4.3-3.7,7.2-3.5c2.8-0.1,5.5,1.2,7.1,3.5C59,39.8,59.8,43.3,59.8,47.8z
	 M55.2,47.8c0.1-2.5-0.3-5.1-1.1-7.5c-0.7-2.1-3.1-3.2-5.2-2.5c-1.2,0.4-2.1,1.3-2.5,2.5c-0.8,2.4-1.2,4.9-1.1,7.5
	c-0.1,2.5,0.3,5,1.1,7.4c0.5,1.7,2.1,2.9,3.9,2.8c1.7,0,3.3-1.1,3.8-2.7C54.9,52.9,55.3,50.4,55.2,47.8L55.2,47.8z"/>
<path style="fill:#FFFFFF;" d="M64.1,34.5h8c2.9,0,5.1,0.7,6.4,2c1.5,1.5,2.2,3.6,2.1,5.6c0.2,3-1.4,5.7-4.1,7l5,12h-4.7l-4.2-11.2
	h-4.2v11.1h-4.4V34.5z M68.5,37.9v8.7h3.4c1.2,0.1,2.5-0.4,3.3-1.2c0.7-0.9,1.1-2.1,1.1-3.3c0-2.8-1.4-4.2-4.4-4.2H68.5z"/>
</svg>
