<?xml version="1.0" encoding="iso-8859-1"?>
<!-- Generator: Adobe Illustrator 25.4.1, SVG Export Plug-In . SVG Version: 6.00 Build 0)  -->
<svg version="1.1" id="Layer_1" xmlns="http://www.w3.org/2000/svg" xmlns:xlink="http://www.w3.org/1999/xlink" x="0px" y="0px"
	 viewBox="0 0 100 100" style="enable-background:new 0 0 100 100;" xml:space="preserve">
<path d="M90.4,22.7c-0.9-0.75-2.325-2.025-3.875-3.188S83.3,17.3,81.9,17c-1.45,1.1-4.775,1.675-8.5,2s-7.85,0.4-10.9,0.5
	c-2.15,0-4.275-0.225-6.362-0.65C54.05,18.425,52,17.8,50,17c-3,0.8-6.025,1.425-9.075,1.85c-3.05,0.425-6.125,0.65-9.225,0.65
	c-3.05-0.1-5.75-0.175-8.05-0.5s-4.2-0.9-5.65-2c-1.4,0.3-3.075,1.375-4.625,2.55C11.825,20.725,10.4,22,9.5,22.7
	c1.35,1.9,2.8,4.125,3.788,6.862S14.8,35.55,14.3,39.5c0,0-1.175,3.875-2.363,8.625S9.55,58.5,9.5,62s0.625,6.65,2.412,9.162
	C13.7,73.675,16.6,75.55,21,76.5s9.375,1.3,14.4,2.05s10.1,1.9,14.7,4.45c4.6-2.55,9.65-3.7,14.638-4.45
	C69.725,77.8,74.65,77.45,79,76.5c4.4-0.95,7.3-2.85,9.075-5.387C89.85,68.575,90.5,65.4,90.4,61.9
	c-0.05-3.5-1.225-9.125-2.387-13.875S85.7,39.4,85.7,39.4c-0.55-3.95-0.05-7.2,0.925-9.925S89.05,24.55,90.4,22.7z"/>
<path style="fill:#FFFFFF;" d="M18.5,68.6V48.2V27.8h4.45h4.45c1.5,0,2.85,0.125,4.05,0.362c1.2,0.238,2.25,0.588,3.15,1.038
	s1.65,1.025,2.275,1.725C37.5,31.625,38,32.45,38.4,33.4c0.4,0.9,0.675,1.925,0.85,3.075c0.175,1.15,0.25,2.425,0.25,3.825v7.5v7.5
	c0,1.45-0.1,2.775-0.288,3.987C39.025,60.5,38.75,61.6,38.4,62.6s-0.85,1.875-1.475,2.625S35.55,66.6,34.7,67.1
	s-1.85,0.875-2.987,1.125S29.3,68.6,27.9,68.6h-4.7H18.5z M24.2,64.5h1.6h1.6c1.05,0,1.95-0.1,2.688-0.3
	c0.737-0.2,1.312-0.5,1.712-0.9c0.45-0.4,0.8-0.9,1.062-1.487C33.125,61.225,33.3,60.55,33.4,59.8s0.175-1.6,0.225-2.538
	C33.675,56.325,33.7,55.3,33.7,54.2v-6.65V40.9c0-1.05-0.025-2-0.087-2.85s-0.163-1.6-0.313-2.25
	c-0.15-0.65-0.375-1.225-0.675-1.713C32.325,33.6,31.95,33.2,31.5,32.9s-1.025-0.525-1.737-0.675C29.05,32.075,28.2,32,27.2,32
	h-1.55H24.1v16.25V64.5h0.05H24.2z"/>
<path style="fill:#FFFFFF;" d="M45,68.6V48.2V27.8h7.9h7.9v2.1V32h-5.05H50.7v6.75v6.75h4.1h4.1v2v2h-4.1h-4.1v7.45v7.45h5.1h5.1
	v2.05v2.05h-7.95H45v0.05V68.6z"/>
<path style="fill:#FFFFFF;" d="M63.3,68.6l4.35-20.4L72,27.8h2.75h2.75l4.35,20.4l4.35,20.4h-2.7h-2.7l-0.95-5.15L78.9,58.3h-4.15
	H70.6l-1,5.15l-1,5.15h-2.65H63.3z M71.3,54.2h3.4h3.4L76.4,45l-1.7-9.2L73,45L71.3,54.2z"/>
</svg>
