<?xml version="1.0" encoding="utf-8"?>
<!-- Generator: Adobe Illustrator 25.2.0, SVG Export Plug-In . SVG Version: 6.00 Build 0)  -->
<svg version="1.1" id="Layer_1" xmlns="http://www.w3.org/2000/svg" xmlns:xlink="http://www.w3.org/1999/xlink" x="0px" y="0px"
	 viewBox="0 0 100 100" style="enable-background:new 0 0 100 100;" xml:space="preserve">
<path d="M90.4,22.7c-1.8-1.5-5.7-5.1-8.5-5.7c-2.9,2.2-13.3,2.3-19.4,2.5c-4.3,0-8.5-0.9-12.5-2.5c-6,1.6-12.1,2.5-18.3,2.5
	c-6.1-0.2-10.8-0.3-13.7-2.5c-2.8,0.6-6.7,4.3-8.5,5.7c2.7,3.8,5.8,8.9,4.8,16.8c0,0-4.7,15.5-4.8,22.5S12.2,74.6,21,76.5
	s19.9,1.4,29.1,6.5c9.2-5.1,20.2-4.6,28.9-6.5c8.8-1.9,11.6-7.6,11.4-14.6c-0.1-7-4.7-22.5-4.7-22.5C84.6,31.5,87.7,26.4,90.4,22.7z
	"/>
<path style="fill:#FFFFFF;" d="M20.1,37.3h3.4v12.8c0,1.1,0,2.1,0.2,3.2c0.1,0.6,0.5,1.2,1,1.6c0.6,0.4,1.4,0.6,2.2,0.6
	c0.7,0,1.4-0.1,2-0.5c0.5-0.3,0.8-0.8,1-1.4c0.3-1.2,0.4-2.4,0.3-3.6V37.3h3.1v12.6c0,1.6-0.1,3.1-0.4,4.7c-0.3,1.1-1,2.1-2,2.7
	c-1.3,0.8-2.7,1.2-4.2,1.1c-1.2,0-2.4-0.2-3.5-0.7c-1-0.4-1.8-1.2-2.3-2.2c-0.6-1.7-0.9-3.5-0.8-5.4L20.1,37.3z"/>
<path style="fill:#FFFFFF;" d="M49.5,41.9l-2.9,1c-0.2-0.9-0.7-1.8-1.3-2.4c-0.6-0.5-1.5-0.8-2.3-0.8c-0.8,0-1.5,0.2-2.1,0.8
	c-0.5,0.5-0.7,1.1-0.7,1.8c0,0.7,0.3,1.4,0.8,1.8c1,0.7,2.1,1.2,3.3,1.6c1.1,0.4,2.2,0.9,3.2,1.5c0.8,0.5,1.4,1.2,1.8,2
	c0.5,0.9,0.7,1.8,0.7,2.8c0,1.7-0.6,3.3-1.8,4.4c-1.4,1.3-3.3,1.9-5.2,1.8c-3.8,0-6.2-1.9-7.1-5.8l3.1-0.9c0.5,2.5,1.9,3.8,4.2,3.8
	c0.9,0.1,1.8-0.2,2.5-0.9c0.6-0.5,0.9-1.3,0.9-2.1c0-0.6-0.2-1.2-0.6-1.7c-0.8-0.8-1.8-1.4-2.9-1.7c-1.2-0.4-2.4-1-3.6-1.6
	c-1.7-1-2.7-2.9-2.6-4.8c0-1.6,0.6-3.1,1.7-4.1c1.2-1.1,2.9-1.7,4.5-1.7C46.4,36.9,48.6,38.6,49.5,41.9z"/>
<path style="fill:#FFFFFF;" d="M53,37.3h5.1c1.3,0,2.7,0.1,4,0.5c1.1,0.3,2,1.1,2.6,2c0.7,1.1,1,2.5,1,3.8c0,1.2-0.3,2.4-0.8,3.5
	c-0.5,0.9-1.3,1.7-2.3,2.1c-1.4,0.5-2.9,0.7-4.4,0.7h-1.7v8.1H53V37.3z M56.5,39.9v7.2h1.7c1.1,0.1,2.2-0.2,3.1-0.9
	c0.7-0.8,1-1.8,0.9-2.8c0-0.8-0.2-1.6-0.6-2.3c-0.3-0.5-0.7-0.9-1.3-1.1c-0.7-0.2-1.4-0.2-2.2-0.2L56.5,39.9z"/>
<path style="fill:#FFFFFF;" d="M68.4,37.3h5.1c1.3,0,2.7,0.1,4,0.5c1.1,0.3,2,1,2.6,2c0.7,1.1,1.1,2.5,1.1,3.8
	c0,1.2-0.3,2.4-0.9,3.5c-0.5,0.9-1.3,1.7-2.3,2.1c-1.4,0.5-2.9,0.8-4.4,0.7h-1.8v8h-3.4V37.3z M71.8,39.9v7.2h1.7
	c1.1,0.1,2.2-0.2,3.1-0.9c0.7-0.8,1-1.8,0.9-2.8c0-0.8-0.2-1.6-0.6-2.3c-0.3-0.5-0.7-0.9-1.3-1.1c-0.7-0.2-1.4-0.2-2.2-0.2H71.8z"/>
</svg>
