<?xml version="1.0" encoding="utf-8"?>
<!-- Generator: Adobe Illustrator 25.2.0, SVG Export Plug-In . SVG Version: 6.00 Build 0)  -->
<svg version="1.1" id="Layer_1" xmlns="http://www.w3.org/2000/svg" xmlns:xlink="http://www.w3.org/1999/xlink" x="0px" y="0px"
	 viewBox="0 0 100 100" style="enable-background:new 0 0 100 100;" xml:space="preserve">
<path style="fill:#999999;" d="M58.2,35.4v-7.5l8.4-8.7l8.2,8.7v7.5h6.6v-14l8.5,4L83,28.7v6.8h5.8v25.8H44.1V35.4H58.2z"/>
<path d="M23,80.8c-2.6,0-4.7-2.1-4.7-4.7c0-2.6,2.1-4.7,4.7-4.7c2.6,0,4.7,2.1,4.7,4.7c0,0,0,0,0,0C27.6,78.7,25.6,80.8,23,80.8z
	 M23,73.5c-1.5,0-2.7,1.2-2.7,2.7c0,1.5,1.2,2.7,2.7,2.7c1.5,0,2.7-1.2,2.7-2.6C25.7,74.7,24.5,73.5,23,73.5
	C23,73.5,23,73.5,23,73.5z"/>
<path d="M62,80.8c-2.6,0-4.7-2.1-4.7-4.7c0-2.6,2.1-4.7,4.7-4.7c2.6,0,4.7,2.1,4.7,4.7c0,0,0,0,0,0C66.6,78.7,64.5,80.8,62,80.8z
	 M62,73.5c-1.5,0-2.7,1.2-2.7,2.7s1.2,2.7,2.7,2.7c1.5,0,2.7-1.2,2.7-2.6C64.6,74.7,63.5,73.5,62,73.5C62,73.5,62,73.5,62,73.5z"/>
<path d="M47.3,41.5H13c-1.5,0-2.8,1.2-2.8,2.8c0,0,0,0,0,0v29.6H15c-0.1,0.4-0.2,0.9-0.3,1.4h2c0.1-0.5,0.2-0.9,0.4-1.4
	c1.3-3.2,4.9-4.8,8.2-3.6c1.6,0.6,2.9,1.9,3.6,3.6c0.2,0.4,0.3,0.9,0.4,1.4h2c-0.1-0.4-0.1-0.9-0.3-1.3h19.1V44.2
	C50.1,42.7,48.8,41.5,47.3,41.5C47.3,41.5,47.3,41.5,47.3,41.5z"/>
<path style="fill:none;" d="M63.8,50.8c-0.2-0.8-0.9-1.4-1.8-1.4h-6.5c-1,0-1.8,0.8-1.8,1.8v0v5.9c0,1,0.8,1.8,1.8,1.8h0h7.8
	c1,0,1.8-0.8,1.8-1.8c0-0.1,0-0.3,0-0.4L63.8,50.8z"/>
<path d="M70.7,60h-1.8l-3.7-11.1c-0.3-1-1.2-1.7-2.3-1.6h-9.4c-1.3,0-2.4,1.1-2.4,2.4V74h2.8c-0.1,0.4-0.2,0.8-0.2,1.2h2
	c0.1-0.4,0.2-0.8,0.3-1.1c1.2-3.3,4.8-5,8.1-3.8c1.8,0.6,3.2,2,3.8,3.8c0.1,0.4,0.2,0.8,0.3,1.1h2c-0.1-0.4-0.1-0.8-0.2-1.1h2.6
	c1.5,0,2.7-1.2,2.7-2.7v-6.7C75.2,62.1,73.2,60,70.7,60z M53.7,57.1v-5.9c0-1,0.8-1.8,1.8-1.8l0,0H62c0.9,0,1.6,0.6,1.8,1.4l1.3,5.9
	c0.2,1-0.4,2-1.4,2.2c-0.1,0-0.3,0-0.4,0h-7.8C54.5,58.9,53.7,58.1,53.7,57.1z"/>
</svg>
