<?xml version="1.0" encoding="utf-8"?>
<!-- Generator: Adobe Illustrator 25.2.0, SVG Export Plug-In . SVG Version: 6.00 Build 0)  -->
<svg version="1.1" id="Layer_1" xmlns="http://www.w3.org/2000/svg" xmlns:xlink="http://www.w3.org/1999/xlink" x="0px" y="0px"
	 viewBox="0 0 100 100" style="enable-background:new 0 0 100 100;" xml:space="preserve">
<path d="M53.4,24.8c0,3.1-2.5,5.7-5.7,5.7c-3.1,0-5.7-2.5-5.7-5.7s2.5-5.7,5.7-5.7C50.8,19.1,53.4,21.7,53.4,24.8L53.4,24.8"/>
<path d="M42.7,34.7c1.1-0.7,2.3-1.1,3.6-1.3c1.8-0.1,6.2-0.4,7.4,0c1.2,0.4,11.4,11.9,11.4,11.9l-2.3,1.9L56,39.7
	c0,0-1.8-1.1-1.2,1.2c0.6,2.3,2.8,10.1,2.8,10.1l-2.8,0.8l2.6,12.9c0,0-0.5,1.6-1.7,1.6s-1.8-1.8-1.8-1.8l-2.5-11.7
	c0,0-0.4-0.9-2.2-0.6c-1.8,0.3-1.5,5-1.5,5v9.5c0,0,0,1.2-1.5,1.4c-1.5,0.1-1.6-3.2-1.6-3.2V39.6c0,0,0.1-2.3-1.2-0.8
	s-5.8,7.5-5.8,7.5l-2.6-2L42.7,34.7z"/>
<path d="M22.2,34v13.4c0,0-3.6,1.1-3.8,2.8c-0.2,1.6-0.9,2.8,1.3,4.9s6.5,6.5,6.5,6.5s1.1,0.1,0.7-1c-0.4-1-6.2-7.1-6.2-7.1
	s-1.4-3,0.9-3.6c2.3-0.6,3.7,0.8,4.9,2s11.7,12.4,11.7,12.4s1.5,0.7,1.6,5.2c0.1,4.5,0,10.9,0,10.9H28.4l0.2-8.3
	c0,0-11-14-11.6-16.1c-0.6-2.1,0-22.4,0-22.4s0.4-1.2,2.8-1.3C22.1,32.1,22.2,34,22.2,34"/>
<path d="M77.8,34.5v13.4c0,0,3.6,1.1,3.8,2.7c0.2,1.6,0.9,2.8-1.3,4.9c-2.2,2.1-6.5,6.5-6.5,6.5s-1.1,0.1-0.7-1s6.2-7.1,6.2-7.1
	s1.4-3-0.9-3.6c-2.3-0.6-3.7,0.8-4.9,2c-1.3,1.2-11.7,12.5-11.7,12.5s-1.5,0.7-1.6,5.2c-0.1,4.5,0,10.9,0,10.9h11.5l-0.2-8.3
	c0,0,11-14,11.7-16.1c0.6-2.1,0-22.4,0-22.4s-0.4-1.2-2.8-1.4C77.9,32.6,77.8,34.5,77.8,34.5"/>
</svg>
