<?xml version="1.0" encoding="utf-8"?>
<!-- Generator: Adobe Illustrator 25.2.0, SVG Export Plug-In . SVG Version: 6.00 Build 0)  -->
<svg version="1.1" id="Layer_1" xmlns="http://www.w3.org/2000/svg" xmlns:xlink="http://www.w3.org/1999/xlink" x="0px" y="0px"
	 viewBox="0 0 100 100" style="enable-background:new 0 0 100 100;" xml:space="preserve">
<path style="fill:#999999;" d="M57.5,34.1v-7.5l8.4-8.7l8.2,8.7v7.5h6.6v-14l8.5,4l-6.9,3.2v6.8h5.8v25.8H43.5V34.1H57.5z"/>
<path d="M64.5,56.7c0-0.2-0.2-0.5-0.7-0.7v-6.1h-1.4v5.6c-2.5-0.6-5.1-1-7.7-1.2c-1-3.6-2.1-12.5-3.1-19.6c-0.2-1.7-1.1-3-3.5-3
	s-3.9,2.6-3.9,2.6l-1.8,19.4c-1.5,0-3.1,0-4.7,0c-6.3,0-12.5,0.4-18.7,1.2v-0.1c0-1.9-2.7-6.2-4.6-6.2h-1.8v7.6
	c-1.1,0.3-1.7,0.6-1.7,0.8s0.6,0.6,1.7,0.9V65h1.8c2,0,4.6-4.4,4.6-6.2c6.2,0.7,12.5,1.1,18.7,1.1c1.6,0,3.2,0,4.7,0l1.9,19.7
	c0,0,1.5,2.6,3.9,2.6s3.3-1.3,3.5-3c1-7.3,2.1-16.6,3.2-20v-0.1c2.6-0.2,5.1-0.6,7.6-1.2v6h1.4v-6.5C64.3,57.1,64.5,56.9,64.5,56.7z
	"/>
</svg>
