<?xml version="1.0" encoding="utf-8"?>
<!-- Generator: Adobe Illustrator 25.2.0, SVG Export Plug-In . SVG Version: 6.00 Build 0)  -->
<svg version="1.1" id="Layer_1" xmlns="http://www.w3.org/2000/svg" xmlns:xlink="http://www.w3.org/1999/xlink" x="0px" y="0px"
	 viewBox="0 0 100 100" style="enable-background:new 0 0 100 100;" xml:space="preserve">
<path style="fill:none;" d="M53.3,26.5H33.5c-3.2,0-5.7,2.6-5.7,5.7s2.6,5.7,5.7,5.7h19.8c3.2,0,5.7-2.6,5.7-5.7
	C59,29,56.5,26.5,53.3,26.5z"/>
<path d="M83.8,32.3l-8.1-4.2c-0.5-0.3-1.1-0.1-1.3,0.4c-0.3,0.5-0.1,1.1,0.4,1.3l7.6,4v32c0,2.9-2.8,4.9-5.3,4.9
	c-1,0-1.9-0.4-2.6-1.1c-0.9-1.1-1.3-2.5-1.2-3.9V44.3c0-0.6-0.4-1-1-1h-8.5v-19c0-3.6-2.9-6.5-6.5-6.5H29.6c-3.6,0-6.5,2.9-6.5,6.5
	l0,0v50.5c0,0.1,0,0.2,0,0.3h-7.5v7.1h55.4v-7.1h-7.4c0-0.1,0-0.2,0-0.3V45.3h7.5v20.5c-0.1,1.9,0.5,3.8,1.7,5.2
	c1.1,1.1,2.5,1.7,4.1,1.7c3.5,0,7.3-2.8,7.3-6.9V33.2C84.3,32.8,84.1,32.5,83.8,32.3z M56.8,69.7h-7.3V57.2H38.8v12.5h-7.3V41.3h7.3
	v10.4h10.8V41.3h7.3L56.8,69.7z M53.3,37.9H33.5c-3.2,0-5.7-2.6-5.7-5.7c0-3.2,2.6-5.7,5.7-5.7h19.8c3.2,0,5.7,2.6,5.7,5.7
	C59,35.3,56.5,37.9,53.3,37.9z"/>
</svg>
