<?xml version="1.0" encoding="utf-8"?>
<!-- Generator: Adobe Illustrator 25.2.0, SVG Export Plug-In . SVG Version: 6.00 Build 0)  -->
<svg version="1.1" id="Layer_1" xmlns="http://www.w3.org/2000/svg" xmlns:xlink="http://www.w3.org/1999/xlink" x="0px" y="0px"
	 viewBox="0 0 100 100" style="enable-background:new 0 0 100 100;" xml:space="preserve">
<path d="M49.3,35.4H22.5v12.5h26.8V35.4z M35,45.4h-5.9v-3.8H35V45.4z M42.7,45.4h-5.9v-3.8h5.9V45.4z"/>
<path d="M13.5,71.3c2.8,1.8,7.2,4.6,12.7,4.6c4-0.1,7.8-1.4,11.1-3.7h0.6v-0.4H38c10.4,6.2,18.3,3.8,23.4,0.2v0.2H62
	c9.3,4.7,17.8,4.2,26.1-1.4l1.2-0.8l-1.7-2.5l-1.2,0.8c-5.7,3.8-9.7,3.8-9.7,3.8v-10h4.2V49.7h-4.4l-4.4-22.5H58.6l-4.9,22.5H18.2
	v12.5h4.3v10c-2.6-0.8-5-2-7.3-3.4c-0.7-0.4-1.2-0.8-1.8-1.1L12.1,67l-1.5,2.6l1.3,0.7C12.4,70.6,12.9,71,13.5,71.3z M61.8,31.3H69
	l0.7,3.6H61L61.8,31.3z M60.2,38.9h10.3l0.6,3.3H59.4L60.2,38.9z M58.6,46.2h13.3l0.7,3.6H57.8L58.6,46.2z M37.9,62.2h23.4v6.3
	l-0.1-0.1L60.4,69c-6.3,4.8-13.8,4.7-21.7-0.3l-0.8-0.5L37.9,62.2z"/>
<path d="M86.5,75.5c-10.2,6.9-18.8,3.6-24.4,0.5l-0.9-0.5l-0.8,0.6c-6.3,4.8-13.9,4.7-21.7-0.3l-0.9-0.6L37,75.9
	c-10.1,7.5-17.2,3-21.9,0c-0.6-0.4-1.2-0.8-1.8-1.1l-1.3-0.7l-1.5,2.6l1.3,0.7c0.5,0.3,1,0.6,1.6,1c2.8,1.8,7.2,4.6,12.7,4.6
	C29.7,83,33.6,82,38,79c10.5,6.2,18.4,3.7,23.5,0.2c9.5,5,18.2,4.6,26.7-1.1l1.2-0.8l-1.7-2.5L86.5,75.5z"/>
<path d="M62.5,26.1c-0.1-0.6-0.2-1.2,0-1.8c0.3-1,0.9-2,1.7-2.6c0,0.4,0.4,1.5,0.5,1.3c0.2-0.5,0.4-3,0.5-3.4c0.5,0.5,3,2.1,2.6,4.3
	c-0.1,0.9-0.4,1.8-0.9,2.6c1.9-0.2,3.2-1.9,3.1-3.8c0-2.7-5.1-5.2-6-5.7c-0.2,0.9-0.6,1.8-1.2,2.6c-0.8,0.9-2.1,2.1-2.1,3.3
	C60.6,24.2,61.3,25.5,62.5,26.1z"/>
</svg>
