<?xml version="1.0" encoding="utf-8"?>
<!-- Generator: Adobe Illustrator 25.2.0, SVG Export Plug-In . SVG Version: 6.00 Build 0)  -->
<svg version="1.1" id="Layer_1" xmlns="http://www.w3.org/2000/svg" xmlns:xlink="http://www.w3.org/1999/xlink" x="0px" y="0px"
	 viewBox="0 0 100 100" style="enable-background:new 0 0 100 100;" xml:space="preserve">
<path d="M69.3,24.2c-0.1-0.2-0.4-0.4-0.7-0.2c-0.1,0-0.2,0.1-0.2,0.2c0,0-9,12.4-9,16c0,5.2,4.3,9.5,9.5,9.5s9.5-4.3,9.5-9.5
	C78.3,36.8,69.3,24.2,69.3,24.2z M68.8,48.3c-0.6-0.1-1-0.7-0.8-1.3c0.1-0.4,0.4-0.7,0.8-0.8c2.6,0.1,4.8-2,4.9-4.7
	c-0.1-0.5,0.2-0.9,0.7-1c0.5-0.1,0.9,0.2,1,0.7c0,0.1,0,0.2,0,0.4C75.4,45.2,72.5,48.2,68.8,48.3z"/>
<path d="M87.6,55.9c-2,0-3.6,1.6-3.6,3.6c0,0,0,0,0,0v0.3H51.4V49.7c0-8.2-6.7-14.9-14.9-14.9s-14.9,6.7-14.9,14.9l0,0v10H16v-0.3
	c0-2-1.6-3.6-3.6-3.6s-3.6,1.6-3.6,3.6c0,0,0,0,0,0v13c0,2,1.7,3.6,3.7,3.5c1.5,0,2.8-1,3.3-2.3h68.4c0.7,1.9,2.8,2.8,4.7,2.1
	c1.4-0.5,2.3-1.8,2.3-3.3v-13C91.2,57.5,89.6,55.9,87.6,55.9z M26.5,47.7h2.3c0.2-0.7,0.5-1.4,0.9-2.1L28,44l2.6-2.6l1.6,1.6
	c0.6-0.4,1.3-0.7,2.1-0.9v-2.3h3.6v2.3c0.7,0.2,1.4,0.5,2,0.9l1.6-1.6l2.6,2.6l-1.7,1.6c0.4,0.6,0.7,1.3,0.8,2h2.3v3.6h-2.3
	c-0.2,0.7-0.5,1.4-0.8,2l1.7,1.7l-2.6,2.6l-1.6-1.6c-0.6,0.4-1.3,0.7-2,0.9V59h-3.7v-2.2c-0.7-0.2-1.4-0.5-2.1-0.8l-1.6,1.6L28,55.1
	l1.6-1.6c-0.4-0.7-0.7-1.4-0.8-2.1h-2.3V47.7z M72.5,70.7v-2.6H23c-0.8-0.1-1.3-0.7-1.3-1.5c0.1-0.7,0.6-1.2,1.3-1.3h49.4v-2.6l7,4
	L72.5,70.7z"/>
<path d="M36,52.5c1.7,0,3-1.3,3-3c0-1.7-1.3-3-3-3c-1.7,0-3,1.3-3,3C33,51.2,34.4,52.5,36,52.5z"/>
</svg>
