<?xml version="1.0" encoding="utf-8"?>
<!-- Generator: Adobe Illustrator 25.2.0, SVG Export Plug-In . SVG Version: 6.00 Build 0)  -->
<svg version="1.1" id="Layer_1" xmlns="http://www.w3.org/2000/svg" xmlns:xlink="http://www.w3.org/1999/xlink" x="0px" y="0px"
	 viewBox="0 0 100 100" style="enable-background:new 0 0 100 100;" xml:space="preserve">
<path d="M34.3,26.3c-1.4-2.2-2.1-5.4-2.5-7.3c-1.8,1.5-12.6,8.4-12.6,16c0,6.1,2.5,9.5,6.5,10.6c-1-2.3-1.6-4.7-1.9-7.2
	c-0.7-6.3,4.5-10.8,5.5-12.1c0.3,1,0.6,8.1,1.1,9.4c0.3,0.8,1.1-2.3,1.1-3.6c1.9,2,3.2,4.6,3.6,7.3c0.2,1.7,0.2,3.3-0.1,5
	c2.3-1.6,3.6-4.4,3.6-8.9C38.7,32.2,35.9,28.7,34.3,26.3z"/>
<path d="M75.6,62.3c-1.4-2.2-2.1-5.4-2.5-7.3c-1.8,1.5-12.6,8.4-12.6,16.1c0,6.1,2.5,9.5,6.5,10.6c-1-2.3-1.6-4.7-1.9-7.2
	c-0.8-6.3,4.5-10.8,5.5-12.2c0.3,1,0.6,8.1,1.1,9.5c0.3,0.8,1.1-2.3,1.1-3.6c1.9,2,3.2,4.5,3.6,7.3c0.2,1.7,0.2,3.4-0.1,5
	c2.3-1.6,3.6-4.4,3.6-8.9C80.1,68.2,77.2,64.7,75.6,62.3z"/>
<polygon points="91.5,30.6 66.3,20.6 66.3,27 56.2,27 56.2,34.2 66.3,34.2 66.3,40.7 "/>
<polygon points="8.5,70.3 33.7,60.2 33.7,66.6 43.7,66.6 43.7,73.9 33.7,73.9 33.7,80.3 "/>
<rect x="48.8" y="15.1" width="3.9" height="3.9"/>
<rect x="48.8" y="22.4" width="3.9" height="3.9"/>
<rect x="48.8" y="29.7" width="3.9" height="3.9"/>
<rect x="48.8" y="37.1" width="3.9" height="3.9"/>
<rect x="48.8" y="44.4" width="3.9" height="3.9"/>
<rect x="48.8" y="51.7" width="3.9" height="3.9"/>
<rect x="48.8" y="59" width="3.9" height="3.9"/>
<rect x="48.8" y="66.4" width="3.9" height="3.9"/>
<rect x="48.8" y="73.7" width="3.9" height="3.9"/>
<rect x="48.8" y="81" width="3.9" height="3.9"/>
</svg>
