<?xml version="1.0" encoding="utf-8"?>
<!-- Generator: Adobe Illustrator 25.2.0, SVG Export Plug-In . SVG Version: 6.00 Build 0)  -->
<svg version="1.1" id="Layer_1" xmlns="http://www.w3.org/2000/svg" xmlns:xlink="http://www.w3.org/1999/xlink" x="0px" y="0px"
	 viewBox="0 0 100 100" style="enable-background:new 0 0 100 100;" xml:space="preserve">
<path style="fill:#B3B3B3;" d="M79.9,27c0.3,0,0.6,0.1,0.9,0.2l5.1,2.6v-8.4h-6.4V27C79.6,27,79.7,27,79.9,27z"/>
<path style="fill:#B3B3B3;" d="M69.3,24.3v18h4V21.4h-4.6C69.1,22.3,69.3,23.3,69.3,24.3z"/>
<path style="fill:#B3B3B3;" d="M81.6,69.8c1.9,0,3.7-1.3,4.2-3.2V34.3L79.4,31v25.4h-0.6v9.4C78.7,67,79,68.1,79.7,69
	C80.2,69.5,80.9,69.8,81.6,69.8z"/>
<polygon style="fill:#B3B3B3;" points="19.2,75.1 19.2,74.1 20.2,74.1 26.7,74.1 26.7,58.3 21.2,58.4 11.1,63.4 11.1,78.6 
	19.2,78.6 "/>
<path style="fill:#B3B3B3;" d="M81.6,73.8c-1.8,0-3.6-0.7-4.8-2c-1.4-1.6-2.1-3.8-2-5.9v-9.4h-1.5V46.3h-4v27.8h7.4v4.5h9.2v-6
	C84.6,73.4,83.1,73.8,81.6,73.8z"/>
<path style="fill:none;" d="M57.9,26.5H38.1c-3.2,0-5.7,2.6-5.7,5.7s2.6,5.7,5.7,5.7h19.8c3.2,0,5.7-2.6,5.7-5.7
	C63.6,29,61.1,26.5,57.9,26.5z"/>
<path d="M88.4,32.3l-8.1-4.2c-0.5-0.3-1.1-0.1-1.3,0.4c-0.3,0.5-0.1,1.1,0.4,1.3l7.6,4v32c0,2.9-2.8,4.9-5.3,4.9
	c-1,0-1.9-0.4-2.6-1.1c-0.9-1.1-1.3-2.5-1.2-3.9V44.3c0-0.6-0.4-1-1-1h-8.5v-19c0-3.6-2.9-6.5-6.5-6.5H34.2c-3.6,0-6.5,2.9-6.5,6.5
	c0,0,0,0,0,0v50.5c0,0.1,0,0.2,0,0.3h-7.5v7.1h55.5v-7.1h-7.4c0-0.1,0-0.2,0-0.3V45.3h7.5v20.5c-0.1,1.9,0.5,3.8,1.7,5.2
	c1.1,1.1,2.5,1.7,4.1,1.7c3.5,0,7.3-2.8,7.3-6.9V33.2C88.9,32.8,88.7,32.5,88.4,32.3z M58.6,49.3H44.9v5.1h12.7V60H44.9v7.3h13.7V73
	H37.4V43.6h21.3L58.6,49.3z M57.9,37.9H38.1c-3.2,0-5.7-2.6-5.7-5.7c0-3.2,2.6-5.7,5.7-5.7l0,0h19.8c3.2,0,5.7,2.6,5.7,5.7
	S61.1,37.9,57.9,37.9L57.9,37.9z"/>
</svg>
