<?xml version="1.0" encoding="utf-8"?>
<!-- Generator: Adobe Illustrator 25.2.0, SVG Export Plug-In . SVG Version: 6.00 Build 0)  -->
<svg version="1.1" id="Layer_1" xmlns="http://www.w3.org/2000/svg" xmlns:xlink="http://www.w3.org/1999/xlink" x="0px" y="0px"
	 viewBox="0 0 100 100" style="enable-background:new 0 0 100 100;" xml:space="preserve">
<path style="fill:none;" d="M35.4,36.6c9.3,0,17.1,8.1,18.4,18.8V32.7H17v22.7C18.3,44.6,26,36.6,35.4,36.6z"/>
<path style="fill:none;" d="M35.4,37.6c-9.1,0-16.6,8.2-17.5,19h35C52,45.8,44.5,37.6,35.4,37.6z"/>
<path d="M38.5,76.6h18.1L61,59C50.6,59.7,41.7,66.7,38.5,76.6z"/>
<path d="M10.3,59H9.8l4.4,17.6h20.3C31.1,66.1,21.3,59,10.3,59z"/>
<path d="M62.1,32.8c0.6-0.7,0.5-1.7-0.1-2.3c-0.3-0.3-0.8-0.4-1.2-0.4H38.6v-9.5h-6.5V30H10c-0.9-0.1-1.7,0.6-1.7,1.6
	c0,0.4,0.1,0.9,0.4,1.2l7.3,7.4v16.4H9.2L9.3,57h1.1c1.9,0,3.8,0.2,5.6,0.6c1.1,0.2,2.2,0.5,3.3,0.9c8.3,2.9,14.7,9.5,17.2,17.9
	c2.6-8.4,9-15.1,17.3-17.9c0.3-0.1,0.7-0.2,1-0.3c2.2-0.6,4.4-1,6.7-1.1l0.1-0.4h-6.8V40.2L62.1,32.8z M17.9,56.6
	c0.9-10.8,8.4-19,17.5-19s16.6,8.2,17.5,19H17.9z M53.8,55.4c-1.3-10.7-9.1-18.8-18.4-18.8S18.3,44.6,17,55.4V32.7h36.8V55.4z"/>
<path d="M86,27.5c-1.9-2.8-2.7-7-3.2-9.5c-2.4,1.9-16.3,11-16.3,20.8c0,7.9,3.2,12.3,8.5,13.7c-1.3-3-2.1-6.1-2.4-9.3
	c-1-8.1,5.8-14,7.1-15.8c0.3,1.3,0.8,10.6,1.5,12.3c0.4,1,1.4-3,1.4-4.6c2.5,2.6,4.1,5.9,4.7,9.5c0.3,2.2,0.3,4.4-0.1,6.5
	c3-2,4.7-5.7,4.7-11.6C91.8,35.2,88.1,30.6,86,27.5z"/>
<rect x="66.5" y="59" width="25.3" height="18.3"/>
<path d="M86.2,78.1h-0.4c-0.6,0-1.1,0.2-1.5,0.6c-1.9,1.7-4.9,1.7-6.8,0c-0.4-0.4-1-0.6-1.5-0.6h-0.4c-0.6,0-1.1,0.2-1.5,0.6
	c-1.9,1.7-4.9,1.7-6.8,0c-0.4-0.4-1-0.6-1.5-0.6h-0.5c-0.6,0-1.1,0.2-1.5,0.6c-1.9,1.7-4.9,1.7-6.8,0c-0.4-0.4-1-0.6-1.5-0.6h-0.5
	c-0.6,0-1.1,0.2-1.5,0.6c-1.9,1.7-4.9,1.7-6.8,0c-0.4-0.4-1-0.6-1.5-0.6h-0.4c-0.6,0-1.1,0.2-1.5,0.6c-1.9,1.7-4.9,1.7-6.8,0
	c-0.4-0.4-1-0.6-1.5-0.6h-0.4c-0.6,0-1.1,0.2-1.5,0.6c-1.9,1.7-4.9,1.7-6.8,0c-0.4-0.4-1-0.6-1.5-0.6h-0.4c-0.6,0-1.1,0.2-1.5,0.6
	c-1.9,1.7-4.9,1.7-6.8,0c-0.4-0.4-1-0.6-1.6-0.6h-0.4c-0.6,0-1.1,0.2-1.5,0.6c-0.9,0.8-2,1.3-3.2,1.3V82h82.2V80
	c-1.2,0-2.4-0.5-3.4-1.3C87.3,78.4,86.7,78.1,86.2,78.1z"/>
</svg>
