<?xml version="1.0" encoding="utf-8"?>
<!-- Generator: Adobe Illustrator 25.2.0, SVG Export Plug-In . SVG Version: 6.00 Build 0)  -->
<svg version="1.1" id="Layer_1" xmlns="http://www.w3.org/2000/svg" xmlns:xlink="http://www.w3.org/1999/xlink" x="0px" y="0px"
	 viewBox="0 0 100 100" style="enable-background:new 0 0 100 100;" xml:space="preserve">
<path style="fill:#B3B3B3;" d="M81,21.4v35h-6.1v-35H69v42h-5v-5.7l-7.7,0.1c-0.9,1.7-2.2,3.2-3.7,4.3l-2.1,1.4l0.5-2.5
	c0.2-1,0.3-2.1,0.3-3.1l-13.8,0.2c0.4,1.5,0.9,3,1.6,4.3l1,2l-2.1-0.6c-3.2-0.8-6-2.9-7.7-5.7l-7.5,0.2l-10.1,5v15.2h74.8V21.4H81z
	 M65.7,71.5v4.7H24v-5.7h1.3v-0.2c0-2,1.6-3.6,3.6-3.6h1.7v3.9h2.5v-3.9h6.1v3.9h2.4v-3.9h6.1v3.9h3v-3.9h6.1v3.9h2.4v-3.9H61
	c2,0,3.7,1.6,3.7,3.6l0,0v0.2h1L65.7,71.5z"/>
<path d="M50.7,34.6c-2.1-3.2-3.1-7.9-3.6-10.8C44.4,26,28.6,36.3,28.6,47.4c0,8.9,3.6,13.9,9.6,15.5c-1.5-3.3-2.4-6.9-2.8-10.5
	c-1.1-9.2,6.6-15.9,8-17.9c0.4,1.5,0.9,11.9,1.7,13.9c0.5,1.2,1.6-3.4,1.6-5.2c2.7,3.1,4.9,6.7,5.3,10.7c0.4,2.5,0.3,4.9-0.2,7.4
	c3.4-2.3,5.3-6.5,5.3-13.1C57.2,43.3,53,38.1,50.7,34.6z"/>
<path d="M63.7,71.5v-1.2c0-1.5-1.2-2.6-2.6-2.6c0,0,0,0,0,0h-0.7v3.9h-4.4v-3.9h-4.1v3.9h-5v-3.9h-4.1v3.9h-4.4v-3.9h-4.1v3.9h-4.5
	v-3.9H29c-1.5,0-2.6,1.2-2.6,2.6l0,0v1.2H25v3.7h39.6v-3.7H63.7z"/>
</svg>
