<?xml version="1.0" encoding="utf-8"?>
<!-- Generator: Adobe Illustrator 25.2.0, SVG Export Plug-In . SVG Version: 6.00 Build 0)  -->
<svg version="1.1" id="Layer_1" xmlns="http://www.w3.org/2000/svg" xmlns:xlink="http://www.w3.org/1999/xlink" x="0px" y="0px"
	 viewBox="0 0 100 100" style="enable-background:new 0 0 100 100;" xml:space="preserve">
<path style="fill:none;" d="M57.9,37.9c3.2,0,5.7-2.6,5.7-5.7c0-3.2-2.6-5.7-5.7-5.7H38.1c-3.2,0-5.7,2.6-5.7,5.7
	c0,3.2,2.6,5.7,5.7,5.7c0,0,0,0,0,0H57.9z"/>
<path style="fill:#B3B3B3;" d="M80.8,27.2l5.1,2.6v-8.4h-6.4V27C79.9,26.9,80.4,27,80.8,27.2z"/>
<path style="fill:#B3B3B3;" d="M69.3,42.3h4V21.4h-4.6c0.4,0.9,0.6,1.9,0.6,2.9L69.3,42.3z"/>
<path style="fill:#B3B3B3;" d="M81.6,69.8c1.9,0,3.7-1.3,4.2-3.2V34.3L79.4,31v25.4h-0.6v9.4C78.7,67,79,68.1,79.7,69
	C80.2,69.5,80.9,69.8,81.6,69.8z"/>
<polygon style="fill:#B3B3B3;" points="26.7,74.1 26.7,58.3 21.2,58.4 11.1,63.4 11.1,78.6 19.2,78.6 19.2,75.1 19.2,74.1 
	20.2,74.1 "/>
<path style="fill:#B3B3B3;" d="M76.8,71.7c-1.4-1.6-2.1-3.8-2-5.9v-9.4h-1.5V46.3h-4v27.8h7.4v4.5h9.2v-6c-1.3,0.8-2.7,1.2-4.2,1.2
	C79.8,73.8,78,73.1,76.8,71.7z"/>
<path d="M88.4,32.3l-8.1-4.2c-0.5-0.3-1.1-0.1-1.3,0.4c-0.3,0.5-0.1,1.1,0.4,1.3l7.6,4v32c0,2.9-2.8,4.9-5.3,4.9
	c-1,0-1.9-0.4-2.6-1.1c-0.9-1.1-1.3-2.5-1.2-3.9V44.3c0-0.6-0.4-1-1-1h-8.5v-19c0-3.6-2.9-6.5-6.5-6.5H34.2c-3.6,0-6.5,2.9-6.5,6.5
	c0,0,0,0,0,0v50.5c0,0.1,0,0.2,0,0.3h-7.5v7.1h55.5v-7.1h-7.4c0-0.1,0-0.2,0-0.3V45.3h7.5v20.5c-0.1,1.9,0.5,3.8,1.7,5.2
	c1.1,1.1,2.5,1.7,4.1,1.7c3.5,0,7.3-2.8,7.3-6.9V33.2C88.9,32.8,88.7,32.5,88.4,32.3z M32.4,32.2c0-3.1,2.5-5.7,5.7-5.7h19.8
	c3.2,0,5.7,2.6,5.7,5.7s-2.6,5.7-5.7,5.7H38.1C34.9,37.9,32.4,35.3,32.4,32.2L32.4,32.2z M62.7,66.4c-1.2,2.2-2.9,4-5.1,5.4
	c-1.5,0.9-3.2,1.6-5,1.9c-2.1,0.4-4.3,0.6-6.5,0.5H35.1V42.8h11.4c2.2,0,4.4,0.2,6.6,0.6c1.7,0.3,3.2,1,4.7,1.8
	c2.1,1.3,3.9,3.1,5.1,5.3c1.3,2.4,1.9,5.2,1.9,7.9C64.8,61.3,64.1,64,62.7,66.4z"/>
<path d="M51.7,49.8c-0.8-0.4-1.7-0.7-2.5-0.8c-1.3-0.2-2.6-0.2-3.9-0.2h-2v19.6h2c1.4,0,2.8-0.1,4.2-0.3c0.9-0.2,1.8-0.5,2.6-1
	c1.4-0.7,2.5-1.9,3.3-3.3c0.7-1.6,1.1-3.4,1-5.2c0.1-1.8-0.3-3.7-1.1-5.4C54.5,51.7,53.2,50.5,51.7,49.8z"/>
</svg>
