<?xml version="1.0" encoding="iso-8859-1"?>
<!-- Generator: Adobe Illustrator 25.4.1, SVG Export Plug-In . SVG Version: 6.00 Build 0)  -->
<svg version="1.1" id="Layer_1" xmlns="http://www.w3.org/2000/svg" xmlns:xlink="http://www.w3.org/1999/xlink" x="0px" y="0px"
	 viewBox="0 0 100 100" style="enable-background:new 0 0 100 100;" xml:space="preserve">
<path d="M52.5,18.5h-1.25H50h-1.25H47.5c-2.75,0.025-6.106,0.125-9.594,0.323c-3.487,0.198-7.106,0.495-10.381,0.914
	c-3.275,0.419-6.206,0.96-8.319,1.646C17.094,22.069,15.8,22.9,15.8,23.9v12.875V49.65v12.875V75.4c0,0.975,1.106,1.844,3.025,2.598
	s4.65,1.395,7.9,1.914s7.019,0.915,11.012,1.183C41.731,81.362,45.95,81.5,50.1,81.5s8.369-0.131,12.362-0.391
	s7.763-0.647,11.013-1.159s5.981-1.15,7.9-1.909S84.4,76.4,84.4,75.4V62.525V49.65V36.775V23.9c-0.025-1-1.344-1.825-3.48-2.503
	c-2.136-0.678-5.089-1.209-8.382-1.622c-3.294-0.413-6.929-0.706-10.427-0.909C58.612,18.663,55.25,18.55,52.5,18.5z M62.4,28.9
	h0.15h0.15h0.15H63l0.2-0.025l0.2-0.025l0.2-0.025l0.2-0.025h0.15h0.15h0.15h0.15h0.2h0.2H65h0.2h0.15h0.15h0.15h0.15l0.2-0.025
	l0.2-0.025l0.2-0.025l0.2-0.025l0.125-0.025l0.125-0.025l0.125-0.025L67.1,28.6l0.225-0.025l0.225-0.025l0.225-0.025L68,28.5h0.1
	h0.1h0.1h0.1l0.3-0.025L69,28.45l0.3-0.025l0.3-0.025h0.1h0.1h0.1H70l0.2-0.025l0.2-0.025l0.2-0.025l0.2-0.025l0.125-0.025
	l0.125-0.025l0.125-0.025L71.3,28.2l0.175-0.025l0.175-0.025l0.175-0.025L72,28.1l0.125-0.025l0.125-0.025l0.125-0.025L72.5,28
	l0.175-0.025l0.175-0.025l0.175-0.025L73.2,27.9l0.125-0.025l0.125-0.025l0.125-0.025L73.7,27.8l0.175-0.025l0.175-0.025
	l0.175-0.025L74.4,27.7l0.125-0.025l0.125-0.025l0.125-0.025L74.9,27.6l0.175-0.025l0.175-0.025l0.175-0.025L75.6,27.5l0.1-0.025
	l0.1-0.025l0.1-0.025L76,27.4l0.25-0.05l0.25-0.05l0.25-0.05L77,27.2h0.05h0.05h0.05h0.05l0.2-0.05l0.2-0.05l0.2-0.05L78,27
	l0.075-0.025l0.075-0.025l0.075-0.025L78.3,26.9l0.15-0.025l0.15-0.025l0.15-0.025L78.9,26.8l0.1-0.025l0.1-0.025l0.1-0.025
	l0.1-0.025l0.125-0.025l0.125-0.025l0.125-0.025L79.8,26.6l0.075-0.025l0.075-0.025l0.075-0.025L80.1,26.5l0.125-0.075l0.125-0.075
	l0.125-0.075L80.6,26.2l0.075-0.025l0.075-0.025l0.075-0.025L80.9,26.1l0.125-0.05L81.15,26l0.125-0.05L81.4,25.9l0.05-0.025
	l0.05-0.025l0.05-0.025L81.6,25.8l0.125-0.05l0.125-0.05l0.125-0.05L82.1,25.6h0.025h0.025h0.025H82.2
	c0.05-0.025,0.1-0.05,0.15-0.075c0.05-0.025,0.1-0.05,0.15-0.075s0.1-0.05,0.15-0.075c0.05-0.025,0.1-0.05,0.15-0.075l0.025-0.05
	l0.025-0.05l0.025-0.05L82.9,25.1l0.075-0.05L83.05,25l0.075-0.05L83.2,24.9v12.5v12.5v12.5v12.5c0,0.525-0.794,1.106-2.306,1.683
	c-1.513,0.577-3.744,1.149-6.619,1.655c-2.875,0.506-6.394,0.946-10.481,1.26C59.706,79.812,55.05,80,49.9,80
	s-9.806-0.181-13.894-0.486s-7.606-0.733-10.481-1.227c-2.875-0.493-5.106-1.053-6.619-1.62S16.6,75.525,16.6,75V62.5V50V37.5V25
	c0.025,0.025,0.05,0.044,0.075,0.059c0.025,0.016,0.05,0.028,0.075,0.041s0.05,0.025,0.075,0.041
	c0.025,0.016,0.05,0.034,0.075,0.059l0.025,0.025l0.025,0.025l0.025,0.025L17,25.3c0.05,0.025,0.1,0.05,0.15,0.075
	c0.05,0.025,0.1,0.05,0.15,0.075s0.1,0.05,0.15,0.075c0.05,0.025,0.1,0.05,0.15,0.075h0.025h0.025h0.025H17.7l0.125,0.05l0.125,0.05
	l0.125,0.05L18.2,25.8l0.05,0.025l0.05,0.025l0.05,0.025L18.4,25.9l0.125,0.05L18.65,26l0.125,0.05L18.9,26.1
	c0.025,0,0.05,0.006,0.075,0.016c0.025,0.009,0.05,0.022,0.075,0.034s0.05,0.025,0.075,0.034c0.025,0.009,0.05,0.016,0.075,0.016
	l0.125,0.05l0.125,0.05l0.125,0.05L19.7,26.4l0.075,0.025l0.075,0.025l0.075,0.025L20,26.5l0.15,0.05l0.15,0.05l0.15,0.05l0.15,0.05
	l0.075,0.025l0.075,0.025l0.075,0.025L20.9,26.8l0.15,0.025l0.15,0.025l0.15,0.025L21.5,26.9l0.075,0.025l0.075,0.025l0.075,0.025
	L21.8,27l0.225,0.05l0.225,0.05l0.225,0.05L22.7,27.2h0.075h0.075h0.075H23l0.25,0.05l0.25,0.05l0.25,0.05L24,27.4l0.1,0.025
	l0.1,0.025l0.1,0.025l0.1,0.025l0.175,0.025l0.175,0.025l0.175,0.025L25.1,27.6l0.1,0.025l0.1,0.025l0.1,0.025l0.1,0.025
	l0.175,0.025l0.175,0.025l0.175,0.025L26.2,27.8l0.125,0.025l0.125,0.025l0.125,0.025L26.7,27.9l0.175,0.025l0.175,0.025
	l0.175,0.025L27.4,28l0.125,0.025l0.125,0.025l0.125,0.025L27.9,28.1l0.175,0.025l0.175,0.025l0.175,0.025L28.6,28.2l0.125,0.025
	l0.125,0.025l0.125,0.025L29.1,28.3l0.2,0.025l0.2,0.025l0.2,0.025l0.2,0.025H30h0.1h0.1h0.1l0.325,0.05l0.325,0.05l0.325,0.05
	L31.6,28.6h0.075h0.075h0.075H31.9l0.2,0.025l0.2,0.025l0.2,0.025l0.2,0.025c0.05-0.075,0.1-0.15,0.15-0.225
	c0.05-0.075,0.1-0.15,0.15-0.225s0.1-0.15,0.15-0.225c0.05-0.075,0.1-0.15,0.15-0.225c-2.65-0.225-5.019-0.494-7.081-0.789
	s-3.819-0.617-5.244-0.948s-2.519-0.672-3.256-1.005S16.6,24.4,16.6,24.1c0-0.425,0.688-0.9,2.028-1.376
	c1.341-0.476,3.334-0.955,5.947-1.385c2.612-0.431,5.844-0.816,9.659-1.105C38.05,19.944,42.45,19.75,47.4,19.7h1.25h1.25h1.25h1.25
	c4.95,0.05,9.344,0.244,13.15,0.533s7.025,0.674,9.625,1.105c2.6,0.431,4.581,0.909,5.912,1.385C82.419,23.2,83.1,23.675,83.1,24.1
	c0,0.375-0.5,0.775-1.464,1.175c-0.964,0.4-2.392,0.8-4.249,1.175s-4.141,0.725-6.817,1.025c-2.676,0.3-5.745,0.55-9.17,0.725
	c0.05,0.075,0.1,0.15,0.148,0.226s0.096,0.155,0.139,0.236c0.043,0.081,0.084,0.166,0.12,0.255c0.036,0.089,0.067,0.183,0.092,0.283
	l0.125-0.075l0.125-0.075l0.125-0.075L62.4,28.9z"/>
<path d="M76.2,60.4v-5.75V48.9v-5.75V37.4c0-0.075-0.006-0.144-0.02-0.206c-0.014-0.062-0.036-0.119-0.068-0.169
	s-0.072-0.094-0.123-0.131c-0.051-0.037-0.114-0.069-0.189-0.094l-1.425-0.725L72.95,35.35l-1.425-0.725L70.1,33.9
	c-0.075-0.05-0.162-0.075-0.253-0.08c-0.091-0.005-0.184,0.011-0.272,0.043s-0.169,0.078-0.234,0.136
	c-0.066,0.058-0.116,0.126-0.141,0.201s-0.038,0.163-0.038,0.253c0,0.091,0.013,0.184,0.038,0.272
	c0.025,0.087,0.062,0.169,0.113,0.234s0.113,0.116,0.188,0.141l1.325,0.7l1.325,0.7l1.325,0.7l1.325,0.7v5.625v5.625v5.625V60.4
	c-0.025,0.5-0.15,0.969-0.355,1.391s-0.489,0.797-0.833,1.109s-0.747,0.562-1.189,0.734C71.981,63.806,71.5,63.9,71,63.9
	c-0.175,0-0.35-0.019-0.52-0.055c-0.17-0.036-0.336-0.089-0.492-0.158c-0.157-0.069-0.303-0.153-0.436-0.251
	C69.419,63.337,69.3,63.225,69.2,63.1c-0.15-0.2-0.281-0.406-0.394-0.619s-0.206-0.431-0.281-0.656s-0.131-0.456-0.169-0.694
	C68.319,60.894,68.3,60.65,68.3,60.4v-3.775V52.85v-3.775V45.3c0-0.1-0.019-0.194-0.053-0.278S68.163,44.862,68.1,44.8
	s-0.137-0.112-0.222-0.147C67.794,44.619,67.7,44.6,67.6,44.6l0,0l0,0l0,0l0,0h-1.5h-1.5h-1.5h-1.5v-3.35V37.9v-3.35V31.2
	c0-0.625-0.125-1.225-0.352-1.773c-0.226-0.548-0.554-1.045-0.96-1.464c-0.407-0.419-0.891-0.76-1.43-0.996
	C58.319,26.731,57.725,26.6,57.1,26.6h-4.85H47.4h-4.85H37.7c-0.625,0-1.225,0.131-1.773,0.367
	c-0.548,0.236-1.045,0.577-1.464,0.996c-0.419,0.418-0.76,0.915-0.996,1.464C33.231,29.975,33.1,30.575,33.1,31.2v8.875v8.875v8.875
	V66.7c0,0.025,0,0.044,0,0.059s0,0.028,0,0.041s0,0.025,0,0.041s0,0.034,0,0.059h-1.325H30.45h-1.325H27.8v1.25v1.25v1.25v1.25h9.75
	h9.75h9.75h9.75v-1.25V69.4v-1.25V66.9h-1.3h-1.3h-1.3h-1.3c0-0.025,0-0.044,0-0.059s0-0.028,0-0.041s0-0.025,0-0.041
	s0-0.034,0-0.059v-5.175V56.35v-5.175V46h1.325h1.325h1.325H66.9v3.6v3.6v3.6v3.6c-0.025,0.325-0.012,0.656,0.033,0.986
	s0.124,0.658,0.23,0.977c0.106,0.319,0.24,0.628,0.398,0.92C67.719,63.575,67.9,63.85,68.1,64.1c0.175,0.2,0.375,0.375,0.594,0.525
	C68.912,64.775,69.15,64.9,69.4,65c0.25,0.1,0.513,0.175,0.781,0.225C70.45,65.275,70.725,65.3,71,65.3
	c0.7,0,1.363-0.137,1.966-0.386c0.603-0.248,1.147-0.608,1.609-1.051c0.463-0.444,0.844-0.972,1.122-1.558
	C75.975,61.719,76.15,61.075,76.2,60.4z M54.3,40.8h-3.475H47.35h-3.475H40.4c-0.55,0-1.075-0.112-1.553-0.316
	s-0.909-0.497-1.272-0.859s-0.656-0.794-0.859-1.272S36.4,37.35,36.4,36.8s0.112-1.075,0.316-1.553
	c0.203-0.478,0.497-0.909,0.859-1.272c0.362-0.362,0.794-0.656,1.272-0.859C39.325,32.912,39.85,32.8,40.4,32.8h3.475h3.475h3.475
	H54.3c0.55,0,1.075,0.112,1.553,0.316s0.909,0.497,1.272,0.859c0.362,0.363,0.656,0.794,0.859,1.272
	C58.188,35.725,58.3,36.25,58.3,36.8s-0.112,1.075-0.316,1.553c-0.203,0.478-0.497,0.909-0.859,1.272
	c-0.362,0.362-0.794,0.656-1.272,0.859S54.85,40.8,54.3,40.8z"/>
</svg>
