<?xml version="1.0" encoding="utf-8"?>
<!-- Generator: Adobe Illustrator 25.2.0, SVG Export Plug-In . SVG Version: 6.00 Build 0)  -->
<svg version="1.1" id="Layer_1" xmlns="http://www.w3.org/2000/svg" xmlns:xlink="http://www.w3.org/1999/xlink" x="0px" y="0px"
	 viewBox="0 0 100 100" style="enable-background:new 0 0 100 100;" xml:space="preserve">
<path d="M44.2,55.4c0.7,0,1.5-0.1,2.2-0.4c0.6-0.2,1.2-0.7,1.5-1.3c0.2-0.6,0.4-1.2,0.3-1.8c0-0.6-0.1-1.1-0.4-1.6
	c-0.3-0.6-0.8-1-1.4-1.2c-0.7-0.3-1.5-0.4-2.2-0.4c-0.9,0-2.2,0-3.8,0h-0.8v6.8h1.3C42.2,55.5,43.3,55.5,44.2,55.4z"/>
<path d="M47.6,61.4c-0.9-0.2-1.8-0.3-2.7-0.3c-1.1,0-2.3,0-3.5,0h-1.8v8h0.6h5c1,0,1.9-0.2,2.8-0.6c0.7-0.3,1.4-0.8,1.8-1.4
	c0.3-0.6,0.5-1.3,0.5-2.1c0.1-0.8-0.2-1.6-0.6-2.3C49.1,62,48.4,61.5,47.6,61.4z"/>
<path d="M83.8,32.3l-8.1-4.2c-0.5-0.3-1.1-0.1-1.3,0.4c-0.3,0.5-0.1,1.1,0.4,1.3l7.6,4v32c0,2.9-2.8,4.9-5.3,4.9
	c-1,0-1.9-0.4-2.6-1.1c-0.9-1.1-1.3-2.5-1.2-3.9V44.3c0-0.6-0.4-1-1-1h-8.5v-19c0-3.6-2.9-6.5-6.5-6.5H29.6c-3.6,0-6.5,2.9-6.5,6.5
	l0,0v50.5c0,0.1,0,0.2,0,0.3h-7.5v7.1h55.4v-7.1h-7.4c0-0.1,0-0.2,0-0.3V45.3h7.5v20.5c-0.1,1.9,0.5,3.8,1.7,5.2
	c1.1,1.1,2.5,1.7,4.1,1.7c3.5,0,7.3-2.8,7.3-6.9V33.2C84.3,32.8,84.1,32.5,83.8,32.3z M57.8,69.2c-0.6,1.2-1.5,2.2-2.6,3
	c-1.2,0.9-2.7,1.6-4.2,2c-1.9,0.4-3.8,0.6-5.8,0.6h-14v-32h12.4c1.9,0,3.8,0,5.7,0.3c1.2,0.2,2.4,0.6,3.6,1.1
	c1.1,0.5,2.1,1.4,2.7,2.5c1.3,2.4,1.2,5.4-0.3,7.7c-0.9,1.2-2.1,2.2-3.5,2.8v0.2c1.9,0.3,3.7,1.2,5,2.6c1.3,1.4,1.9,3.3,1.8,5.2
	C58.8,66.5,58.5,67.9,57.8,69.2z M53.3,37.9H33.5c-3.2,0-5.7-2.6-5.7-5.7c0-3.2,2.6-5.7,5.7-5.7h19.8c3.2,0,5.7,2.6,5.7,5.7
	C59,35.3,56.5,37.9,53.3,37.9z"/>
</svg>
