<?xml version="1.0" encoding="utf-8"?>
<!-- Generator: Adobe Illustrator 25.2.0, SVG Export Plug-In . SVG Version: 6.00 Build 0)  -->
<svg version="1.1" id="Layer_1" xmlns="http://www.w3.org/2000/svg" xmlns:xlink="http://www.w3.org/1999/xlink" x="0px" y="0px"
	 viewBox="0 0 100 100" style="enable-background:new 0 0 100 100;" xml:space="preserve">
<path d="M28.1,30.6c-1.3,0.1-1.7,1.6-0.4,1.9c1.4,0.3,8.9-0.4,8.9-0.4C33.9,31.2,31,30.7,28.1,30.6z"/>
<path d="M50.1,17.8c-0.5-1.2-2-1.2-1.9,0.2s2.9,8.4,2.9,8.4C51.2,23.5,50.9,20.6,50.1,17.8z"/>
<path d="M28.2,29.4c3.7,0.3,12.8,1.2,16.3,4.3c-0.4,1.1-6.6-0.1-9.8,0.5c-3.2,0.6-5.1,0.9-5.6,1.7c-0.5,0.8,0.2,2.2,1.6,1.4
	s6.6-1.5,9.5-1.3s4.5-0.3,5.5,0.4c1,0.7,0.4,1,1.3,1.1c0.9,0.1,3.1,0,3.1,0s2.2,0.1,3.1,0c0.9-0.1,0.3-0.4,1.3-1.1s2.6-0.2,5.5-0.4
	c2.9-0.2,8.1,0.4,9.5,1.3s2.1-0.6,1.6-1.4c-0.5-0.8-2.4-1.2-5.6-1.7c-3.2-0.6-9.3,0.6-9.8-0.5c3.4-3.1,12.6-4,16.2-4.3
	s4.3-1.5,3.8-2c-0.5-0.5-5.8-0.4-9.1,0.4c-3.9,1-7.4,3.1-8.5,3.3c-1.1,0.2-1.3-0.7,0.1-1.3c1.5-0.6,10.7-3.9,11-4.7
	c0.2-0.8-1.2-0.6-1.2-0.6c-1.8,0.2-3.6,0.7-5.2,1.4c-1.3,0.6-4.3,3.2-5.6,2.9c-0.6-0.1-0.5-0.4-0.6-0.7c0.1-0.4,0.3-0.7,0.6-0.9
	c2.9-3.4,12.8-5.4,14.7-6.2s3.9-2.8,2.2-3.1s-2.8,0-6.7,1.2c-3.9,1.2-12.7,6.2-14.6,8.7c1.8-2.3,3.4-4.6,4.4-5.6
	c1.6-1.7,9.2-5.7,6.6-5.8C56.8,16.3,50.5,30,50.5,30c-2.2-6.4-7.8-13.5-14.2-13.5c-2.6,0,5,4.1,6.6,5.8c1,1.1,2.6,3.4,4.4,5.6
	c-1.9-2.5-10.7-7.5-14.6-8.7c-3.9-1.2-5-1.5-6.7-1.2c-1.7,0.3,0.4,2.2,2.2,3.1c1.9,0.8,11.8,2.8,14.7,6.2c0.3,0.2,0.5,0.6,0.6,0.9
	c-0.1,0.3,0,0.6-0.6,0.7c-1.3,0.3-4.2-2.3-5.6-2.9c-1.7-0.7-3.4-1.2-5.2-1.4c0,0-1.4-0.3-1.2,0.6s9.5,4.1,11,4.7
	c1.5,0.6,1.3,1.5,0.1,1.3c-1.1-0.2-4.6-2.4-8.5-3.3c-3.3-0.8-8.6-0.9-9.1-0.4C24,27.9,24.5,29.1,28.2,29.4z"/>
<path d="M63.8,32.1c0,0,7.5,0.7,8.9,0.4s0.9-1.8-0.3-1.9C69.4,30.7,66.6,31.2,63.8,32.1z"/>
<path d="M50.2,38.6c-2.2,0-4.1,0.7-4.9,1.8H37v5h26.3v-5h-8.3C54.3,39.4,52.4,38.6,50.2,38.6z"/>
<path d="M66.9,79.7l-0.6-0.4l-5.2-33.4H38.8l-3.5,33.8H16.2v3.8h67.7v-3.8H66.9z M52.4,46.8H59l-6.6,4.6V46.8z M52.4,52.7l7.8-5.5
	l2.3,14.7l-10.1-7V52.7z M52.4,56.1l9.3,6.4h-9.3V56.1z M52.4,63.6h7.1l-7.1,4.8V63.6z M47.7,79.5l-10.2,0.2l10.2-6.9L47.7,79.5z
	 M47.7,71.6l-11.3,7.6L38,63.6l9.7,5.6V71.6z M47.7,68l-7.3-4.4h7.3L47.7,68z M47.7,62.6h-9.3l9.3-6.5V62.6z M47.7,54.8l-9.5,6.7
	l1.5-14.2l8,5.6L47.7,54.8z M47.7,51.6l-6.9-4.8h6.9V51.6z M52.4,79.4V72l11.6,7.1L52.4,79.4z M52.4,70.9v-1.3l8.5-6h1.8l2.3,15
	L52.4,70.9z"/>
</svg>
