<?xml version="1.0" encoding="utf-8"?>
<!-- Generator: Adobe Illustrator 25.2.0, SVG Export Plug-In . SVG Version: 6.00 Build 0)  -->
<svg version="1.1" id="Layer_1" xmlns="http://www.w3.org/2000/svg" xmlns:xlink="http://www.w3.org/1999/xlink" x="0px" y="0px"
	 viewBox="0 0 100 100" style="enable-background:new 0 0 100 100;" xml:space="preserve">
<path d="M43.5,48.2c0.1-3.7,3.1-6.6,6.8-6.5c3.7,0.1,6.6,3.1,6.5,6.8c-0.1,3.6-3.1,6.5-6.7,6.5C46.4,55,43.5,51.9,43.5,48.2
	C43.5,48.2,43.5,48.2,43.5,48.2"/>
<path d="M65.5,23.3L55.3,41.2c1.9,1.5,3.1,3.7,3.3,6.1l20.8,0.1C79.2,37.5,73.9,28.4,65.5,23.3 M20.6,47.2l20.8,0.1
	c0.2-2.5,1.5-4.8,3.5-6.2l-10-18C26.3,28.1,20.9,37.2,20.6,47.2 M53.6,55.7c-1.1,0.5-2.4,0.8-3.6,0.8c-1.1,0-2.2-0.2-3.2-0.6
	L35.5,73.2c9.1,5,20.1,5,29.1-0.1L53.6,55.7z"/>
</svg>
