<?xml version="1.0" encoding="utf-8"?>
<!-- Generator: Adobe Illustrator 25.2.0, SVG Export Plug-In . SVG Version: 6.00 Build 0)  -->
<svg version="1.1" id="Layer_1" xmlns="http://www.w3.org/2000/svg" xmlns:xlink="http://www.w3.org/1999/xlink" x="0px" y="0px"
	 viewBox="0 0 100 100" style="enable-background:new 0 0 100 100;" xml:space="preserve">
<path d="M73.8,37.5l-5.7-3c-0.3-0.2-0.8,0-1,0.3c-0.2,0.3-0.1,0.8,0.3,0.9c0,0,0,0,0,0l5.3,2.8v22.5c-0.1,2-1.8,3.5-3.8,3.5
	c-0.7,0-1.4-0.3-1.8-0.8c-0.6-0.8-0.9-1.7-0.8-2.7V46c0-0.4-0.3-0.7-0.7-0.7c0,0,0,0,0,0h-6V31.9c0-2.5-2-4.6-4.6-4.6H35.7
	c-2.5,0-4.6,2.1-4.6,4.6l0,0v35.5c0,0.1,0,0.1,0,0.2h-5.3v5h39v-5h-5.2c0-0.1,0-0.2,0-0.2V46.7h5.3v14.4c-0.1,1.3,0.4,2.7,1.2,3.7
	c0.7,0.8,1.8,1.2,2.9,1.2c2.7,0,5-2.1,5.2-4.9v-23C74.2,37.9,74,37.7,73.8,37.5z M52.4,41.5h-14c-2.2,0-4-1.8-4-4s1.8-4,4-4h13.9
	c2.2,0,4,1.8,4,4C56.3,39.8,54.5,41.6,52.4,41.5L52.4,41.5z"/>
</svg>
