<?xml version="1.0" encoding="utf-8"?>
<!-- Generator: Adobe Illustrator 25.2.0, SVG Export Plug-In . SVG Version: 6.00 Build 0)  -->
<svg version="1.1" id="Layer_1" xmlns="http://www.w3.org/2000/svg" xmlns:xlink="http://www.w3.org/1999/xlink" x="0px" y="0px"
	 viewBox="0 0 100 100" style="enable-background:new 0 0 100 100;" xml:space="preserve">
<circle cx="36.2" cy="70.3" r="7"/>
<circle cx="65.6" cy="70.3" r="7"/>
<path d="M36.2,59.5c5.6,0,10.3,4.4,10.8,10h7.9c0.4-5.9,5.6-10.4,11.5-10c2.2,0.2,4.2,1,5.9,2.3l9.3-18.7h-63L28.3,63
	C30.3,60.8,33.2,59.5,36.2,59.5z"/>
<path d="M19.6,39.7c0.6-2.4,0.1-3.3,2-3s1.7,0.6,2.4-0.9s1.5-1.8,1.3-3.2s-0.3-1.4,0.9-1.7s3.1-1.5,3-0.6c-0.1,0.9,1.4,1.2,1.8,1.2
	c0.9-0.5,1.5-1.4,1.7-2.4c0-1.1,1.8-2.3,1.8-2.3s1.2-0.5,1.6,0c1.7,1.8,2.4,2.1,2.9,1.2s2.3-3.5,4.1-4.5c1.8-1,2.4-0.6,2.9,0
	c0.4,0.6,0.3,1.7,1.1,1.8s2.3-0.3,3.8-1.8s2.1-0.1,4.5-0.6c2.4-0.6,2.6,0.5,3.2,1.4s-0.1,1.5,2,1.5s2.3-0.3,2.9,0.6s0.3,0.4,1,1.7
	c0.7,1.2-2.3,0.9,0,2.3c2.3,1.4,1.7,2.4,3,0.9c1.3-1.5,0.6-1.3,1.5-1.5c0.9-0.1,0.8-0.4,1.7,0.8c0.9,1.2,1.4,1.5,1.9,1.3
	s-0.3-1.5,0.5-0.1s0,2.9,1.4,3.6c0.9,0.5,1.9,0.7,2.9,0.6c1.1,0,1.5-0.2,1.4,1.2c0,0.9,0.3,1.9,0.9,2.6H19.6z"/>
</svg>
