<?xml version="1.0" encoding="utf-8"?>
<!-- Generator: Adobe Illustrator 25.2.0, SVG Export Plug-In . SVG Version: 6.00 Build 0)  -->
<svg version="1.1" id="Layer_1" xmlns="http://www.w3.org/2000/svg" xmlns:xlink="http://www.w3.org/1999/xlink" x="0px" y="0px"
	 viewBox="0 0 100 100" style="enable-background:new 0 0 100 100;" xml:space="preserve">
<path d="M42.2,47.2C42.2,39.4,35.8,33,28,33c0,0,0,0,0,0h-6.4v-3.1H8.8V33H7.2v28.4H28C35.8,61.4,42.2,55.1,42.2,47.2
	C42.2,47.2,42.2,47.2,42.2,47.2z"/>
<circle cx="28" cy="74.3" r="6.4"/>
<path d="M7.2,65.7v7.4h10.7c0.7-3.9,5-6.9,10.2-6.9s9.5,3,10.2,6.9h4v-7.4H7.2z"/>
<path d="M57.8,47.2C57.8,39.4,64.2,33,72,33h6.4v-3.1h12.8V33h1.6v28.4H72C64.2,61.4,57.8,55,57.8,47.2z"/>
<circle cx="72" cy="74.3" r="6.4"/>
<path d="M92.8,65.7v7.4H82.1c-0.7-3.9-4.9-6.9-10.2-6.9c-5.2,0-9.5,3-10.2,6.9h-4v-7.4H92.8z"/>
<polygon points="89.2,23.5 71.9,19.3 71.9,22.1 28.1,22.1 28.1,19.3 10.8,23.5 28.1,27.7 28.1,25.7 71.9,25.7 71.9,27.7 "/>
</svg>
