<?xml version="1.0" encoding="utf-8"?>
<!-- Generator: Adobe Illustrator 25.2.0, SVG Export Plug-In . SVG Version: 6.00 Build 0)  -->
<svg version="1.1" id="Layer_1" xmlns="http://www.w3.org/2000/svg" xmlns:xlink="http://www.w3.org/1999/xlink" x="0px" y="0px"
	 viewBox="0 0 100 100" style="enable-background:new 0 0 100 100;" xml:space="preserve">
<path d="M55.2,41.4c-1.6-2.4-2.3-6-2.7-8.1c-2,1.6-13.9,9.4-13.9,17.8c0,6.7,2.7,10.5,7.2,11.7c-1.1-2.5-1.8-5.2-2.1-8
	c-0.8-7,5-12,6.1-13.5c0.3,1.1,0.7,9,1.2,10.5c0.3,0.9,1.2-2.5,1.2-4c2.1,2.2,3.5,5.1,4,8.1c0.3,1.8,0.2,3.7-0.1,5.6
	c2.6-1.7,4-4.9,4-9.9C60.1,48,56.9,44.1,55.2,41.4z"/>
<path d="M81.1,67.7c-1.4,0-2.7,0.5-3.7,1.4l-7.9-5.2c6-8.3,6.2-19.5,0.4-28l7.5-5c2.3,2,5.9,1.8,7.9-0.6c2-2.3,1.8-5.9-0.6-7.9
	c-2.3-2-5.9-1.8-7.9,0.6c-0.9,1-1.4,2.3-1.4,3.7c0,0.6,0.1,1.2,0.3,1.7l-7.7,5.1c-8.8-10.1-24.2-11.1-34.2-2.2
	c-0.8,0.7-1.5,1.4-2.1,2.1l-7.5-5c0.2-0.6,0.3-1.1,0.3-1.7c0-3.1-2.6-5.6-5.7-5.5s-5.6,2.6-5.5,5.7s2.6,5.6,5.7,5.5
	c1.3,0,2.6-0.5,3.6-1.4l7.3,4.8C24,44.3,24.1,55.6,30.3,64l-7.7,5.1c-2.3-2-5.9-1.8-7.9,0.6s-1.8,5.9,0.6,7.9c2.3,2,5.9,1.8,7.9-0.6
	c0.9-1,1.4-2.3,1.4-3.7c0-0.6-0.1-1.2-0.2-1.7l8-5.3c9.2,9.7,24.5,10.2,34.3,1c0.4-0.3,0.7-0.7,1.1-1.1l8.2,5.4
	c-0.9,3,0.8,6.1,3.8,7c3,0.9,6.1-0.8,7-3.8c0.1-0.5,0.2-1,0.2-1.5C86.8,70.2,84.3,67.7,81.1,67.7C81.2,67.7,81.1,67.7,81.1,67.7z
	 M49.9,70.8c-6.2,0-12-2.7-16.1-7.4l0,0c-0.1-0.1-0.2-0.2-0.3-0.3c-6.2-7.4-6.5-18.1-0.9-25.9l1.5-1.8c7.8-8.8,21.2-9.6,30-1.8
	c0.7,0.6,1.4,1.3,2,2.1c0.4,0.5,0.8,1,1.2,1.5c6.8,9.6,4.6,22.8-4.9,29.7C58.6,69.5,54.3,70.9,49.9,70.8z"/>
</svg>
