<?xml version="1.0" encoding="utf-8"?>
<!-- Generator: Adobe Illustrator 25.2.0, SVG Export Plug-In . SVG Version: 6.00 Build 0)  -->
<svg version="1.1" id="Layer_1" xmlns="http://www.w3.org/2000/svg" xmlns:xlink="http://www.w3.org/1999/xlink" x="0px" y="0px"
	 viewBox="0 0 100 100" style="enable-background:new 0 0 100 100;" xml:space="preserve">
<path d="M88.7,32.3l-8.1-4.2c-0.5-0.3-1.1-0.1-1.4,0.4c-0.3,0.5-0.1,1.1,0.4,1.3l7.5,4v32c0,2.9-2.8,4.9-5.3,4.9
	c-1,0-1.9-0.4-2.6-1.1c-0.9-1.1-1.3-2.5-1.2-3.9V44.3c0-0.6-0.4-1-1-1h-8.5v-19c0-3.6-2.9-6.5-6.5-6.5H24.8c-3.6,0-6.5,2.9-6.5,6.5
	l0,0v50.5c0,0.1,0,0.2,0,0.3h-7.5v7.1H76v-7.1h-7.4c0-0.1,0-0.2,0-0.3V45.3h7.5v20.5c-0.1,1.9,0.5,3.8,1.7,5.2
	c1.1,1.1,2.5,1.7,4.1,1.7c3.5,0,7.3-2.9,7.3-6.9V33.2C89.2,32.8,89,32.5,88.7,32.3z M28.6,26.5h29.5c3.2,0,5.7,2.6,5.7,5.7
	s-2.6,5.7-5.7,5.7l0,0H28.6c-3.2,0-5.7-2.6-5.7-5.7C22.9,29,25.5,26.5,28.6,26.5z M32.2,65.1H22V45.3h3.3v17h7L32.2,65.1z M47,65.1
	H44l-7.3-15.8v15.8H34V45.3h3.8l6.5,14.2V45.3H47L47,65.1z M64,65.2h-1.8l-0.4-2.5c-0.9,1.8-2.8,2.8-4.8,2.7c-2.1,0.1-4-1-5.2-2.7
	c-1.3-2.2-2-4.7-1.9-7.3c-0.1-2.7,0.5-5.3,1.8-7.7c1.2-1.9,3.4-3,5.7-2.8c3.5,0,5.7,2,6.4,6l-3,0.7c-0.1-1.2-0.6-2.4-1.4-3.3
	c-0.6-0.5-1.3-0.8-2.1-0.8c-2.7,0-4,2.5-4,7.5s1.4,7.5,4.1,7.5c2.3,0,3.4-1.7,3.4-5.2h-3.5V55H64L64,65.2z"/>
</svg>
