<?xml version="1.0" encoding="utf-8"?>
<!-- Generator: Adobe Illustrator 25.2.0, SVG Export Plug-In . SVG Version: 6.00 Build 0)  -->
<svg version="1.1" id="Layer_1" xmlns="http://www.w3.org/2000/svg" xmlns:xlink="http://www.w3.org/1999/xlink" x="0px" y="0px"
	 viewBox="0 0 100 100" style="enable-background:new 0 0 100 100;" xml:space="preserve">
<path d="M88.7,32.3l-8.1-4.2c-0.5-0.3-1.1-0.1-1.4,0.4c-0.3,0.5-0.1,1.1,0.4,1.3l7.5,4v32c0,2.9-2.8,4.9-5.3,4.9
	c-1,0-1.9-0.4-2.6-1.1c-0.9-1.1-1.3-2.5-1.2-3.9V44.3c0-0.6-0.4-1-1-1h-8.5v-19c0-3.6-2.9-6.5-6.5-6.5H24.8c-3.6,0-6.5,2.9-6.5,6.5
	l0,0v50.5c0,0.1,0,0.2,0,0.3h-7.5v7.1H76v-7.1h-7.4c0-0.1,0-0.2,0-0.3V45.3h7.5v20.5c-0.1,1.9,0.5,3.8,1.7,5.2
	c1.1,1.1,2.5,1.7,4.1,1.7c3.5,0,7.3-2.9,7.3-6.9V33.2C89.2,32.8,89,32.5,88.7,32.3z M28.6,26.5h29.5c3.2,0,5.7,2.6,5.7,5.7
	s-2.6,5.7-5.7,5.7l0,0H28.6c-3.2,0-5.7-2.6-5.7-5.7C22.9,29,25.5,26.5,28.6,26.5z M27.8,63.7c0.9,0.1,1.7-0.4,2.2-1.1
	c0.6-1,0.9-2,1-3.1l3,0.4c-0.6,4.3-2.7,6.4-6.3,6.4c-2.1,0.1-4.1-0.9-5.3-2.7c-1.2-2.2-1.8-4.7-1.7-7.2c0-3.3,0.6-5.8,1.8-7.5
	c1.2-1.7,3.2-2.7,5.3-2.6c3.5,0,5.6,2.2,6.2,6.6l-3,0.4c-0.3-2.9-1.4-4.4-3.2-4.4c-2.5,0-3.7,2.5-3.7,7.6
	C24.1,61.3,25.4,63.7,27.8,63.7z M49.4,66h-3l-7.1-15.5V66h-2.7V46.6h3.8l6.4,13.9V46.6h2.7L49.4,66z M66,66.1h-1.7l-0.4-2.4
	c-0.9,1.7-2.7,2.8-4.7,2.7c-2,0.1-4-0.9-5.1-2.6c-1.3-2.1-2-4.6-1.8-7.1c-0.1-2.6,0.5-5.2,1.8-7.5c1.2-1.9,3.3-2.9,5.5-2.8
	c3.5,0,5.5,2,6.2,5.9L63,52.9c-0.1-1.2-0.6-2.3-1.4-3.2c-0.6-0.5-1.3-0.7-2-0.7c-2.6,0-3.9,2.4-3.9,7.3s1.3,7.4,4,7.4
	c2.2,0,3.3-1.7,3.3-5.1h-3.5V56H66V66.1z"/>
</svg>
