<?xml version="1.0" encoding="utf-8"?>
<!-- Generator: Adobe Illustrator 25.2.0, SVG Export Plug-In . SVG Version: 6.00 Build 0)  -->
<svg version="1.1" id="Layer_1" xmlns="http://www.w3.org/2000/svg" xmlns:xlink="http://www.w3.org/1999/xlink" x="0px" y="0px"
	 viewBox="0 0 100 100" style="enable-background:new 0 0 100 100;" xml:space="preserve">
<circle cx="50" cy="39.6" r="9.7"/>
<polygon style="fill:none;" points="32.2,51.5 18,54.8 17.6,54.2 17.6,77.3 12.8,77.3 24.3,77.9 34.5,55.8 30.6,56.5 "/>
<polygon style="fill:none;" points="37.1,50.4 36.5,50.5 34.5,55.8 "/>
<path d="M63.4,44.2l7-1.6l10.5,12.3l8.1-1.8c0.7-17.9-9.7-35-9.7-35l-12.6,1.9v11.9l-4.3,0.9C64.4,36.2,64.7,40.4,63.4,44.2z"/>
<path d="M77.5,77.9L62.7,46c-2.2,4.3-6.4,7.3-11.2,7.8L63,77.5H38.1l10.6-23.8c-3.3-0.3-6.3-1.7-8.7-4.1c-0.6-0.6-1.2-1.3-1.6-2
	c-0.2-0.3-0.4-0.6-0.6-0.9l-1.3,3.7l0.6-0.2l-2.5,5.5l0,0L24.3,77.9l-11.5-0.6h4.8v-23l0.4,0.6l14.2-3.3l3.6-11.9
	c0-0.4,0-0.9,0.1-1.3l-25,5.3l1.9,2.9v30.7l-1.9-0.1V82h78.2v-4.1H77.5z"/>
<polygon points="34.5,55.8 34.5,55.8 34.5,55.8 "/>
</svg>
