<?xml version="1.0" encoding="utf-8"?>
<!-- Generator: Adobe Illustrator 25.2.0, SVG Export Plug-In . SVG Version: 6.00 Build 0)  -->
<svg version="1.1" id="Layer_1" xmlns="http://www.w3.org/2000/svg" xmlns:xlink="http://www.w3.org/1999/xlink" x="0px" y="0px"
	 viewBox="0 0 100 100" style="enable-background:new 0 0 100 100;" xml:space="preserve">
<path style="fill:#B3B3B3;" d="M70.2,34.3h1.2c0.5,0,1,0.1,1.4,0.5c0.4,0.5,0.5,1.1,0.4,1.7c0,0.6,0.2,1.2,0.6,1.6l1.1,1.2V21.4H69
	v12.5C69.3,34.2,69.8,34.3,70.2,34.3z"/>
<polygon style="fill:#B3B3B3;" points="74.8,39.8 73,39.8 69,39.8 69,41 74.8,41 "/>
<path style="fill:#B3B3B3;" d="M81,21.4v35h-6.1V44.2L69,56.1v7.3h-2.4c2,3.6,0.8,8.1-2.8,10.1c-3.6,2-8.1,0.8-10.1-2.8
	c-2-3.6-0.8-8.1,2.8-10.1c2.3-1.3,5.2-1.3,7.5,0.1V59c-4.5-2.1-9.9-0.1-12,4.4c-0.5,1-0.7,2-0.8,3.1l-0.1,0.9H42l-0.1-0.9
	c-0.3-4.3-3.6-7.7-7.9-8.2h-2.4c-2,0.3-3.9,1.3-5.3,2.8l-1,1.1l-0.6-1.3l-1.2-2.4h-0.8l-10.1,5.2v15.2h74.8V21.4H81z M33,74.5
	c-4.1,0-7.4-3.3-7.4-7.4s3.3-7.4,7.4-7.4s7.4,3.3,7.4,7.4c0,0,0,0,0,0C40.4,71.2,37.1,74.5,33,74.5L33,74.5z"/>
<circle cx="33" cy="67.1" r="6.4"/>
<circle cx="60.1" cy="67.1" r="6.4"/>
<path d="M33,57.1c5.2,0,9.6,4,10,9.2h7.3c0.4-5.5,5.3-9.6,10.8-9.2c2,0.2,3.8,0.9,5.4,2.1L74.9,42H16.6l9,18.3
	C27.5,58.3,30.2,57.1,33,57.1z"/>
<path d="M17.6,38.8c0.6-2.2,0.1-3.1,1.8-2.8c1.7,0.3,1.5,0.6,2.2-0.8c0.7-1.4,1.4-1.7,1.3-2.9c-0.1-1.3-0.3-1.3,0.8-1.5
	c1.1-0.3,2.9-1.4,2.8-0.6c-0.1,0.8,1.3,1.1,1.7,1.1c0.9-0.4,1.4-1.3,1.5-2.2c0-1,1.7-2.1,1.7-2.1s1.1-0.5,1.5,0
	c1.5,1.7,2.1,2,2.7,1.1c0.6-0.9,2.1-3.2,3.8-4.2c1.7-1,2.2-0.6,2.6,0c0.4,0.6,0.3,1.5,1,1.7c0.7,0.1,2.1-0.3,3.5-1.7s2-0.1,4.2-0.6
	s2.4,0.5,3,1.3c0.6,0.8-0.1,1.4,1.9,1.4s2.1-0.3,2.7,0.6s0.3,0.4,1,1.5c0.7,1.1-2.1,0.8,0,2.1s1.5,2.2,2.8,0.8
	c1.3-1.4,0.4-1.2,1.2-1.4c0.8-0.1,0.7-0.4,1.5,0.7c0.8,1.1,1.3,1.4,1.8,1.2c0.4-0.1-0.2-1.4,0.4-0.1c0.7,1.2,0,2.6,1.2,3.4
	c0.8,0.5,1.7,0.7,2.7,0.6c1,0,1.4-0.1,1.2,1.1c0,0.9,0.3,1.7,0.8,2.4H17.6z"/>
</svg>
