<?xml version="1.0" encoding="iso-8859-1"?>
<!-- Generator: Adobe Illustrator 25.4.1, SVG Export Plug-In . SVG Version: 6.00 Build 0)  -->
<svg version="1.1"
	 id="svg8" xmlns:cc="http://creativecommons.org/ns#" xmlns:dc="http://purl.org/dc/elements/1.1/" xmlns:inkscape="http://www.inkscape.org/namespaces/inkscape" xmlns:rdf="http://www.w3.org/1999/02/22-rdf-syntax-ns#" xmlns:sodipodi="http://sodipodi.sourceforge.net/DTD/sodipodi-0.dtd" xmlns:svg="http://www.w3.org/2000/svg"
	 xmlns="http://www.w3.org/2000/svg" xmlns:xlink="http://www.w3.org/1999/xlink" x="0px" y="0px" viewBox="0 0 100 100"
	 style="enable-background:new 0 0 100 100;" xml:space="preserve">
<sodipodi:namedview  bordercolor="#666666" borderopacity="1.0" id="base" inkscape:current-layer="layer3" inkscape:cx="-302.11164" inkscape:cy="84.283015" inkscape:document-units="px" inkscape:guide-bbox="true" inkscape:lockguides="true" inkscape:pageopacity="0.0" inkscape:pageshadow="2" inkscape:window-height="657" inkscape:window-maximized="1" inkscape:window-width="1280" inkscape:window-x="-8" inkscape:window-y="-8" inkscape:zoom="0.765625" pagecolor="#ffffff" showgrid="false" showguides="false" units="px">
	<sodipodi:guide  id="guide5700" inkscape:locked="true" orientation="0,1" position="-0.93017576,23.874511"></sodipodi:guide>
	<sodipodi:guide  id="guide5726" inkscape:locked="true" orientation="0,1" position="-26.098869,26.473047"></sodipodi:guide>
	<sodipodi:guide  id="guide5880" inkscape:locked="true" orientation="0,1" position="104.51042,-2.9104167"></sodipodi:guide>
	<sodipodi:guide  id="guide6001" inkscape:locked="true" orientation="0,1" position="-71.093695,29.279377"></sodipodi:guide>
	<sodipodi:guide  id="guide6005" inkscape:locked="true" orientation="0,1" position="-46.304445,58.278122"></sodipodi:guide>
	<sodipodi:guide  id="guide6736" inkscape:locked="true" orientation="0,1" position="-0.10335287,20.205485"></sodipodi:guide>
	<sodipodi:guide  id="guide6738" inkscape:locked="true" orientation="0,1" position="-0.43848907,22.874513"></sodipodi:guide>
	<inkscape:grid  id="grid2386" type="xygrid"></inkscape:grid>
</sodipodi:namedview>
<g id="g1180" transform="translate(0,-229.2666)" inkscape:groupmode="layer" inkscape:label="halo:always" style="display:none;">
	<g id="g1210" inkscape:groupmode="layer" inkscape:label="-gray-halo:iter3" style="display:inline;">
		<g id="circle1208">
			<path style="fill:#919395;" d="M50,329.3c-27.6,0-50-22.4-50-50s22.4-50,50-50s50,22.4,50,50S77.6,329.3,50,329.3z M50,237.9
				c-22.8,0-41.4,18.6-41.4,41.4s18.6,41.4,41.4,41.4s41.4-18.6,41.4-41.4S72.8,237.9,50,237.9z"/>
		</g>
	</g>
	<g id="g1206" inkscape:groupmode="layer" inkscape:label="-red-halo:iter3" style="display:inline;">
		<g id="circle1204">
			<path style="fill:#C52038;" d="M50,329.3c-27.6,0-50-22.4-50-50s22.4-50,50-50s50,22.4,50,50S77.6,329.3,50,329.3z M50,237.9
				c-22.8,0-41.4,18.6-41.4,41.4s18.6,41.4,41.4,41.4s41.4-18.6,41.4-41.4S72.8,237.9,50,237.9z"/>
		</g>
	</g>
	<g id="g1202" inkscape:groupmode="layer" inkscape:label="-green-halo:iter3" style="display:inline;">
		<g id="circle1200">
			<path style="fill:#5E9C42;" d="M50,329.3c-27.6,0-50-22.4-50-50s22.4-50,50-50s50,22.4,50,50S77.6,329.3,50,329.3z M50,237.9
				c-22.8,0-41.4,18.6-41.4,41.4s18.6,41.4,41.4,41.4s41.4-18.6,41.4-41.4S72.8,237.9,50,237.9z"/>
		</g>
	</g>
	<g id="layer18" inkscape:groupmode="layer" inkscape:label="-yellow-halo:iter3" style="display:inline;">
		<g id="circle1178-4">
			<path style="fill:#FBBA16;" d="M50,329.3c-27.6,0-50-22.4-50-50s22.4-50,50-50s50,22.4,50,50S77.6,329.3,50,329.3z M50,237.9
				c-22.8,0-41.4,18.6-41.4,41.4s18.6,41.4,41.4,41.4s41.4-18.6,41.4-41.4S72.8,237.9,50,237.9z"/>
		</g>
	</g>
</g>
<path id="rect6712" inkscape:connector-curvature="0" inkscape:export-filename="C:\Users\Charlotte Abel\Documents\Symbology\Components\For Distribution\energy-power-fuel_power-gray.png" inkscape:export-xdpi="300.00461" inkscape:export-ydpi="300.00461" style="fill:#003366;" d="
	M38.2,18.2c-0.25,0-0.487,0.05-0.703,0.141c-0.216,0.091-0.409,0.222-0.572,0.384c-0.163,0.163-0.294,0.356-0.384,0.572
	C36.45,19.513,36.4,19.75,36.4,20v4.25v4.25v4.25V37h-2.225H31.95h-2.225H27.5c-0.325,0-0.638,0.069-0.924,0.192
	c-0.286,0.124-0.545,0.302-0.764,0.521c-0.219,0.219-0.397,0.478-0.52,0.764C25.169,38.763,25.1,39.075,25.1,39.4v0.9v0.9v0.9V43
	c0,0.325,0.069,0.638,0.192,0.924s0.301,0.546,0.52,0.764c0.219,0.219,0.478,0.397,0.764,0.52c0.286,0.123,0.599,0.192,0.924,0.192
	h0.725h0.725h0.725H30.4v3.55v3.55v3.55v3.55c0,1.4,0.263,2.731,0.739,3.941c0.477,1.209,1.167,2.297,2.024,3.209
	c0.856,0.912,1.878,1.65,3.017,2.159c1.139,0.509,2.395,0.791,3.72,0.791h1.225h1.225h1.225H44.8v3.05v3.05v3.05v3.05h2.6H50h2.6
	h2.6v-3.05V75.8v-3.05V69.7h1.225h1.225h1.225H60.1c1.325,0,2.581-0.281,3.72-0.791c1.139-0.509,2.161-1.247,3.018-2.159
	c0.856-0.912,1.547-2,2.023-3.209C69.338,62.331,69.6,61,69.6,59.6v-3.575V52.45v-3.575V45.3h0.725h0.725h0.725H72.5
	c0.325,0,0.638-0.069,0.924-0.192c0.286-0.123,0.546-0.301,0.765-0.52c0.219-0.218,0.397-0.478,0.52-0.764
	c0.123-0.286,0.192-0.599,0.192-0.924V42v-0.9v-0.9v-0.9c0-0.325-0.069-0.638-0.192-0.924c-0.123-0.286-0.302-0.545-0.521-0.764
	c-0.219-0.219-0.478-0.397-0.764-0.52C73.137,36.969,72.825,36.9,72.5,36.9h-2.225H68.05h-2.225H63.6v-4.225V28.45v-4.225V20
	c0-0.25-0.05-0.487-0.141-0.703s-0.222-0.409-0.384-0.572s-0.356-0.294-0.572-0.384C62.287,18.25,62.05,18.2,61.8,18.2h-0.4H61h-0.4
	h-0.4c-0.25,0-0.487,0.05-0.703,0.141c-0.216,0.091-0.409,0.222-0.572,0.384c-0.163,0.163-0.294,0.356-0.384,0.572
	C58.45,19.513,58.4,19.75,58.4,20v4.25v4.25v4.25V37h-4.2H50h-4.2h-4.2v-4.25V28.5v-4.25V20c0-0.25-0.05-0.487-0.141-0.703
	s-0.222-0.409-0.384-0.572s-0.356-0.294-0.572-0.384C40.287,18.25,40.05,18.2,39.8,18.2h-0.4H39h-0.4H38.2z"/>
<path id="path2164-2" inkscape:connector-curvature="0" inkscape:export-filename="C:\Users\Charlotte Abel\Documents\Symbology\Components\For Distribution\energy-power-fuel_power-gray.png" inkscape:export-xdpi="300.00461" inkscape:export-ydpi="300.00461" style="fill:#FFFFFF;" d="
	M54.3,42l-0.875,2.575L52.55,47.15l-0.875,2.575L50.8,52.3l1.5,0.025l1.5,0.025l1.5,0.025l1.5,0.025l-2.875,3.45L51.05,59.3
	l-2.875,3.45L45.3,66.2l0.95-2.625l0.95-2.625l0.95-2.625L49.1,55.7c-0.475,0-0.956-0.006-1.441-0.016s-0.972-0.022-1.459-0.034
	s-0.975-0.025-1.459-0.034C44.256,55.606,43.775,55.6,43.3,55.6c0.975-1.15,1.9-2.287,2.802-3.419
	c0.902-1.131,1.78-2.256,2.661-3.381s1.766-2.25,2.68-3.381C52.356,44.287,53.3,43.15,54.3,42L54.3,42L54.3,42L54.3,42L54.3,42z"/>
</svg>
