<?xml version="1.0" encoding="iso-8859-1"?>
<!-- Generator: Adobe Illustrator 25.4.1, SVG Export Plug-In . SVG Version: 6.00 Build 0)  -->
<svg version="1.1"
	 id="svg8" inkscape:export-filename="C:\Users\Charlotte Abel\Documents\Symbology\energy-power-fuel-1.png" inkscape:export-xdpi="96" inkscape:export-ydpi="96" inkscape:version="0.91 r13725" sodipodi:docname="energy-power-fuel-with-label-no-halo_256x256.svg" xmlns:cc="http://creativecommons.org/ns#" xmlns:dc="http://purl.org/dc/elements/1.1/" xmlns:inkscape="http://www.inkscape.org/namespaces/inkscape" xmlns:rdf="http://www.w3.org/1999/02/22-rdf-syntax-ns#" xmlns:sodipodi="http://sodipodi.sourceforge.net/DTD/sodipodi-0.dtd" xmlns:svg="http://www.w3.org/2000/svg"
	 xmlns="http://www.w3.org/2000/svg" xmlns:xlink="http://www.w3.org/1999/xlink" x="0px" y="0px" viewBox="0 0 100 100"
	 style="enable-background:new 0 0 100 100;" xml:space="preserve">
<sodipodi:namedview  bordercolor="#666666" borderopacity="1.0" id="base" inkscape:current-layer="g2146" inkscape:cx="-90" inkscape:cy="148.61928" inkscape:document-units="px" inkscape:guide-bbox="true" inkscape:lockguides="false" inkscape:pageopacity="0.0" inkscape:pageshadow="2" inkscape:window-height="657" inkscape:window-maximized="1" inkscape:window-width="1280" inkscape:window-x="-8" inkscape:window-y="-8" inkscape:zoom="1" pagecolor="#ffffff" showgrid="false" showguides="true" units="px">
	<sodipodi:guide  id="guide5700" inkscape:locked="false" orientation="0,1" position="-0.93017576,23.874511"></sodipodi:guide>
	<sodipodi:guide  id="guide5726" inkscape:locked="false" orientation="0,1" position="-26.098869,26.473047"></sodipodi:guide>
	<sodipodi:guide  id="guide5880" inkscape:locked="false" orientation="0,1" position="104.51042,-2.9104167"></sodipodi:guide>
	<sodipodi:guide  id="guide6001" inkscape:locked="false" orientation="0,1" position="-44.807735,29.092289"></sodipodi:guide>
	<sodipodi:guide  id="guide6005" inkscape:locked="false" orientation="0,1" position="-46.304445,58.278122"></sodipodi:guide>
	<sodipodi:guide  id="guide6736" inkscape:locked="false" orientation="0,1" position="-0.10335287,20.205485"></sodipodi:guide>
	<sodipodi:guide  id="guide6738" inkscape:locked="false" orientation="0,1" position="-0.43848907,22.874513"></sodipodi:guide>
	<inkscape:grid  id="grid2386" type="xygrid"></inkscape:grid>
</sodipodi:namedview>
<g id="g1180_1_" transform="translate(0,-229.2666)" inkscape:groupmode="layer" inkscape:label="halo:always" style="display:none;">
	<g id="g1210_1_" inkscape:groupmode="layer" inkscape:label="-gray-halo:iter3" style="display:inline;">
		<g id="circle1208_1_">
			<path style="fill:#919395;" d="M50,329.3c-27.6,0-50-22.4-50-50s22.4-50,50-50s50,22.4,50,50S77.6,329.3,50,329.3z M50,237.9
				c-22.8,0-41.4,18.6-41.4,41.4s18.6,41.4,41.4,41.4s41.4-18.6,41.4-41.4S72.8,237.9,50,237.9z"/>
		</g>
	</g>
	<g id="g1206_1_" inkscape:groupmode="layer" inkscape:label="-red-halo:iter3" style="display:inline;">
		<g id="circle1204_1_">
			<path style="fill:#C52038;" d="M50,329.3c-27.6,0-50-22.4-50-50s22.4-50,50-50s50,22.4,50,50S77.6,329.3,50,329.3z M50,237.9
				c-22.8,0-41.4,18.6-41.4,41.4s18.6,41.4,41.4,41.4s41.4-18.6,41.4-41.4S72.8,237.9,50,237.9z"/>
		</g>
	</g>
	<g id="g1202_1_" inkscape:groupmode="layer" inkscape:label="-green-halo:iter3" style="display:inline;">
		<g id="circle1200_1_">
			<path style="fill:#5E9C42;" d="M50,329.3c-27.6,0-50-22.4-50-50s22.4-50,50-50s50,22.4,50,50S77.6,329.3,50,329.3z M50,237.9
				c-22.8,0-41.4,18.6-41.4,41.4s18.6,41.4,41.4,41.4s41.4-18.6,41.4-41.4S72.8,237.9,50,237.9z"/>
		</g>
	</g>
	<g id="layer18_1_" inkscape:groupmode="layer" inkscape:label="-yellow-halo:iter3" style="display:inline;">
		<g id="circle1178-4_1_">
			<path style="fill:#FBBA16;" d="M50,329.3c-27.6,0-50-22.4-50-50s22.4-50,50-50s50,22.4,50,50S77.6,329.3,50,329.3z M50,237.9
				c-22.8,0-41.4,18.6-41.4,41.4s18.6,41.4,41.4,41.4s41.4-18.6,41.4-41.4S72.8,237.9,50,237.9z"/>
		</g>
	</g>
</g>
<path id="path3359" style="fill:#003366;" d="M37.936,69.688v-1.693v-1.693v-1.693v-1.693h1.028h1.028h1.028h1.028v0.285v0.285
	v0.285v0.285h-0.749h-0.749h-0.749h-0.749v0.374v0.374v0.374v0.374h0.698h0.698h0.698h0.698v0.285v0.285v0.285v0.285h-0.698H40.45
	h-0.698h-0.698v0.458v0.458v0.458v0.458h0.777h0.777h0.777h0.777v0.285v0.285v0.285v0.285l-1.056,0.006l-1.056,0.006l-1.056,0.006
	L37.936,69.688L37.936,69.688L37.936,69.688L37.936,69.688L37.936,69.688z"/>
<path id="path3361" style="fill:#003366;" d="M46.541,69.688h-0.268h-0.268h-0.268h-0.268v-0.626v-0.626V67.81v-0.626
	c0-0.123-0.001-0.236-0.004-0.339s-0.007-0.197-0.013-0.281c-0.006-0.084-0.013-0.158-0.021-0.222s-0.018-0.119-0.029-0.163
	c-0.011-0.045-0.024-0.085-0.038-0.122c-0.014-0.037-0.03-0.071-0.048-0.101c-0.018-0.031-0.038-0.059-0.061-0.085
	c-0.023-0.026-0.048-0.05-0.076-0.072c-0.028-0.022-0.057-0.042-0.087-0.059c-0.03-0.017-0.061-0.031-0.091-0.042
	c-0.031-0.011-0.061-0.02-0.091-0.025c-0.03-0.006-0.059-0.008-0.087-0.008c-0.045,0-0.088,0.004-0.13,0.012
	c-0.042,0.008-0.083,0.02-0.124,0.035c-0.041,0.015-0.08,0.034-0.12,0.056c-0.039,0.022-0.078,0.047-0.118,0.075
	c-0.034,0.028-0.066,0.059-0.096,0.092c-0.03,0.034-0.058,0.07-0.083,0.109c-0.025,0.039-0.047,0.081-0.066,0.126
	c-0.019,0.045-0.034,0.092-0.045,0.142c-0.017,0.05-0.031,0.112-0.042,0.185c-0.012,0.073-0.021,0.158-0.027,0.254
	c-0.007,0.096-0.012,0.205-0.015,0.325c-0.003,0.12-0.005,0.253-0.005,0.398v0.559v0.559v0.559v0.559H43.68h-0.268h-0.268h-0.268
	v-1.229v-1.229v-1.229v-1.229h0.246h0.246h0.246h0.246v0.179v0.179v0.179v0.179c0.045-0.073,0.091-0.14,0.138-0.202
	c0.047-0.062,0.095-0.118,0.144-0.17c0.049-0.052,0.098-0.099,0.148-0.141c0.05-0.042,0.1-0.08,0.151-0.113
	c0.056-0.034,0.113-0.063,0.172-0.088c0.059-0.025,0.119-0.046,0.18-0.063s0.124-0.029,0.189-0.038
	c0.064-0.008,0.13-0.013,0.197-0.013c0.078,0,0.154,0.006,0.226,0.016c0.072,0.011,0.141,0.027,0.207,0.048
	c0.066,0.021,0.128,0.047,0.186,0.077c0.058,0.03,0.113,0.065,0.163,0.104c0.056,0.039,0.106,0.081,0.152,0.126
	c0.045,0.045,0.086,0.093,0.122,0.145s0.068,0.107,0.097,0.166c0.029,0.059,0.054,0.122,0.076,0.189
	c0.022,0.061,0.041,0.131,0.055,0.209c0.015,0.078,0.026,0.163,0.034,0.255c0.008,0.092,0.014,0.191,0.017,0.297
	c0.003,0.105,0.005,0.217,0.005,0.335l0.006,0.76l0.006,0.76l0.006,0.76L46.541,69.688L46.541,69.688L46.541,69.688L46.541,69.688
	L46.541,69.688z"/>
<path id="path3363" style="fill:#003366;" d="M49.759,68.123l0.263,0.056l0.263,0.056l0.263,0.056l0.263,0.056
	c-0.034,0.123-0.073,0.239-0.117,0.347c-0.044,0.108-0.094,0.209-0.149,0.301s-0.114,0.176-0.178,0.251
	c-0.064,0.075-0.132,0.14-0.205,0.196c-0.073,0.061-0.151,0.115-0.234,0.16s-0.171,0.082-0.263,0.111
	c-0.092,0.029-0.189,0.051-0.288,0.065c-0.1,0.014-0.203,0.021-0.309,0.021c-0.145,0-0.284-0.013-0.415-0.037
	c-0.131-0.025-0.255-0.062-0.37-0.111c-0.116-0.049-0.224-0.11-0.324-0.182s-0.192-0.156-0.276-0.251
	c-0.095-0.117-0.179-0.246-0.251-0.386c-0.072-0.14-0.133-0.291-0.182-0.453c-0.049-0.162-0.086-0.335-0.111-0.52
	s-0.037-0.38-0.037-0.587s0.013-0.402,0.037-0.587s0.062-0.359,0.111-0.522c0.049-0.163,0.11-0.316,0.182-0.459
	c0.072-0.143,0.156-0.276,0.251-0.398c0.084-0.101,0.173-0.19,0.268-0.268c0.095-0.078,0.196-0.143,0.302-0.196
	c0.106-0.053,0.218-0.094,0.335-0.121s0.24-0.041,0.369-0.041c0.145,0,0.282,0.014,0.411,0.042c0.129,0.028,0.249,0.069,0.36,0.123
	c0.112,0.054,0.215,0.122,0.31,0.203c0.095,0.081,0.182,0.174,0.26,0.281c0.095,0.123,0.177,0.26,0.248,0.411
	c0.07,0.151,0.128,0.316,0.174,0.494c0.046,0.179,0.08,0.372,0.103,0.578c0.023,0.207,0.034,0.427,0.034,0.662v0.039v0.039v0.039
	v0.039h-0.665h-0.665h-0.665h-0.665c0,0.095,0.006,0.186,0.017,0.272c0.011,0.086,0.028,0.167,0.05,0.242s0.05,0.145,0.084,0.209
	c0.034,0.064,0.073,0.121,0.117,0.171c0.045,0.05,0.091,0.095,0.138,0.134c0.047,0.039,0.096,0.072,0.147,0.098
	c0.05,0.026,0.102,0.047,0.155,0.06s0.108,0.021,0.163,0.021c0.089,0,0.17-0.015,0.243-0.046c0.073-0.03,0.138-0.076,0.195-0.136
	c0.057-0.06,0.107-0.135,0.149-0.224C49.696,68.344,49.731,68.241,49.759,68.123L49.759,68.123L49.759,68.123L49.759,68.123
	L49.759,68.123z M49.804,66.827c0-0.095-0.006-0.184-0.016-0.268c-0.011-0.084-0.027-0.162-0.048-0.235
	c-0.021-0.073-0.047-0.14-0.077-0.201s-0.065-0.117-0.105-0.168s-0.08-0.094-0.122-0.13c-0.042-0.037-0.086-0.067-0.132-0.09
	c-0.046-0.024-0.094-0.041-0.145-0.053c-0.051-0.012-0.104-0.017-0.16-0.017s-0.109,0.007-0.16,0.02
	c-0.051,0.013-0.1,0.033-0.147,0.058c-0.047,0.025-0.094,0.056-0.139,0.091s-0.09,0.076-0.135,0.121
	c-0.039,0.05-0.074,0.106-0.104,0.167c-0.03,0.061-0.056,0.128-0.077,0.199c-0.021,0.071-0.037,0.147-0.048,0.228
	c-0.011,0.081-0.016,0.166-0.016,0.255h0.408h0.408h0.408h0.408v0.006v0.006c0,0,0,0.003,0,0.006
	C49.804,66.824,49.804,66.827,49.804,66.827z"/>
<path id="path3365" style="fill:#003366;" d="M52.553,69.688h-0.268h-0.268h-0.268H51.48v-1.229v-1.229V66v-1.229h0.246h0.246h0.246
	h0.246v0.173v0.173v0.173v0.173c0.045-0.084,0.087-0.159,0.126-0.227c0.04-0.068,0.078-0.128,0.114-0.181
	c0.036-0.053,0.071-0.099,0.105-0.139c0.034-0.04,0.068-0.073,0.101-0.101c0.034-0.028,0.068-0.052,0.105-0.072
	s0.074-0.036,0.113-0.049c0.039-0.013,0.08-0.022,0.122-0.028c0.042-0.006,0.085-0.009,0.13-0.009c0.061,0,0.122,0.006,0.181,0.016
	c0.059,0.011,0.117,0.027,0.174,0.048s0.114,0.047,0.17,0.077c0.056,0.03,0.112,0.065,0.168,0.105l-0.084,0.285l-0.084,0.285
	l-0.084,0.285l-0.084,0.285c-0.045-0.034-0.088-0.064-0.13-0.091c-0.042-0.027-0.083-0.051-0.124-0.071
	c-0.041-0.02-0.08-0.035-0.12-0.045c-0.039-0.01-0.078-0.016-0.118-0.016s-0.077,0.004-0.113,0.012
	c-0.036,0.008-0.071,0.02-0.105,0.035c-0.034,0.015-0.066,0.034-0.096,0.056c-0.031,0.022-0.06,0.047-0.088,0.075
	c-0.028,0.028-0.053,0.06-0.076,0.097c-0.023,0.037-0.044,0.079-0.064,0.126c-0.02,0.047-0.038,0.101-0.055,0.16
	c-0.017,0.059-0.034,0.125-0.051,0.198c-0.011,0.073-0.021,0.161-0.029,0.264s-0.015,0.221-0.021,0.354
	c-0.006,0.133-0.01,0.28-0.013,0.442c-0.003,0.162-0.004,0.338-0.004,0.528l0.006,0.38l0.006,0.38l0.006,0.38L52.553,69.688
	L52.553,69.688L52.553,69.688L52.553,69.688L52.553,69.688z"/>
<path id="path3367" style="fill:#003366;" d="M54.229,70.023l0.307,0.045l0.307,0.045l0.307,0.045l0.307,0.045
	c0.006,0.045,0.013,0.085,0.022,0.122s0.02,0.071,0.034,0.101s0.031,0.059,0.051,0.085c0.02,0.026,0.044,0.05,0.072,0.072
	c0.022,0.017,0.049,0.032,0.079,0.046c0.03,0.014,0.065,0.025,0.102,0.035c0.038,0.01,0.079,0.017,0.123,0.023
	c0.044,0.005,0.092,0.008,0.142,0.008c0.061,0,0.119-0.003,0.173-0.008c0.054-0.005,0.104-0.013,0.152-0.023
	c0.047-0.01,0.092-0.022,0.135-0.035c0.043-0.014,0.083-0.029,0.122-0.046c0.028-0.017,0.053-0.035,0.076-0.055
	s0.044-0.042,0.064-0.065c0.02-0.024,0.038-0.05,0.055-0.078s0.034-0.059,0.051-0.092c0.017-0.034,0.031-0.073,0.042-0.118
	s0.021-0.096,0.027-0.153c0.007-0.057,0.012-0.121,0.015-0.191S57,69.682,57,69.598V69.42v-0.179v-0.179v-0.179
	c-0.039,0.067-0.08,0.13-0.122,0.188c-0.042,0.058-0.085,0.112-0.13,0.161c-0.045,0.049-0.091,0.093-0.138,0.132
	s-0.096,0.072-0.147,0.1c-0.05,0.034-0.102,0.063-0.155,0.088s-0.108,0.046-0.163,0.063c-0.056,0.017-0.113,0.029-0.172,0.038
	c-0.059,0.008-0.119,0.013-0.18,0.013c-0.112,0-0.219-0.013-0.322-0.038s-0.201-0.063-0.295-0.113
	c-0.094-0.05-0.182-0.113-0.266-0.189s-0.162-0.163-0.234-0.264c-0.089-0.117-0.168-0.244-0.235-0.381
	c-0.067-0.137-0.123-0.284-0.168-0.44s-0.078-0.323-0.101-0.499s-0.034-0.362-0.034-0.557c0-0.207,0.011-0.402,0.033-0.586
	c0.022-0.184,0.054-0.356,0.096-0.515c0.042-0.159,0.094-0.306,0.154-0.439c0.061-0.133,0.131-0.254,0.209-0.36
	c0.084-0.106,0.172-0.2,0.264-0.28c0.092-0.081,0.189-0.148,0.289-0.203c0.101-0.054,0.205-0.096,0.314-0.123
	c0.109-0.028,0.222-0.042,0.339-0.042c0.061,0,0.122,0.004,0.18,0.013c0.059,0.008,0.116,0.021,0.172,0.038s0.11,0.038,0.163,0.063
	c0.053,0.025,0.105,0.054,0.155,0.088c0.05,0.034,0.101,0.071,0.15,0.113c0.05,0.042,0.098,0.088,0.146,0.138
	c0.047,0.05,0.094,0.105,0.138,0.163c0.044,0.059,0.086,0.122,0.125,0.189v-0.173v-0.173v-0.173v-0.173h0.251h0.251h0.251h0.251
	v1.101v1.101v1.101v1.101c0,0.179-0.004,0.345-0.013,0.498s-0.021,0.294-0.038,0.421c-0.017,0.127-0.038,0.241-0.063,0.341
	s-0.054,0.187-0.088,0.259c-0.034,0.078-0.071,0.152-0.113,0.222c-0.042,0.069-0.088,0.134-0.138,0.194
	c-0.05,0.06-0.105,0.115-0.163,0.165c-0.059,0.05-0.122,0.095-0.189,0.134c-0.067,0.039-0.141,0.074-0.222,0.104
	c-0.081,0.03-0.168,0.056-0.262,0.077c-0.094,0.021-0.193,0.037-0.299,0.048c-0.106,0.011-0.218,0.016-0.335,0.016
	c-0.112,0-0.217-0.004-0.315-0.012c-0.098-0.008-0.191-0.02-0.277-0.035c-0.087-0.015-0.168-0.034-0.244-0.056
	c-0.076-0.022-0.147-0.047-0.214-0.075c-0.067-0.028-0.13-0.06-0.189-0.096c-0.059-0.036-0.113-0.077-0.163-0.122
	c-0.05-0.045-0.096-0.094-0.138-0.147c-0.042-0.053-0.08-0.11-0.113-0.172c-0.034-0.061-0.063-0.123-0.088-0.185
	c-0.025-0.063-0.046-0.126-0.063-0.192c-0.017-0.066-0.029-0.133-0.038-0.204s-0.013-0.145-0.013-0.223V70.09v-0.022v-0.022v-0.022
	h-0.017h-0.017h-0.017L54.229,70.023L54.229,70.023L54.229,70.023z M55.19,67.14c0,0.134,0.006,0.257,0.016,0.37
	s0.027,0.216,0.048,0.309s0.047,0.178,0.077,0.255c0.03,0.076,0.065,0.145,0.104,0.206c0.045,0.061,0.091,0.115,0.138,0.16
	c0.047,0.045,0.096,0.082,0.147,0.112c0.05,0.029,0.102,0.051,0.155,0.065c0.053,0.014,0.108,0.021,0.163,0.021
	c0.061,0,0.122-0.007,0.18-0.021c0.058-0.014,0.115-0.036,0.169-0.065c0.055-0.029,0.107-0.066,0.157-0.111
	c0.05-0.045,0.097-0.098,0.142-0.16c0.045-0.061,0.084-0.13,0.117-0.206c0.034-0.076,0.061-0.16,0.084-0.252
	c0.022-0.092,0.039-0.193,0.05-0.302c0.011-0.11,0.017-0.228,0.017-0.357c0-0.129-0.006-0.249-0.017-0.36
	c-0.011-0.112-0.028-0.215-0.05-0.31c-0.022-0.095-0.05-0.182-0.084-0.26s-0.073-0.148-0.117-0.21
	c-0.045-0.061-0.091-0.115-0.139-0.16s-0.098-0.082-0.152-0.111c-0.053-0.029-0.109-0.051-0.168-0.065
	c-0.059-0.014-0.122-0.021-0.189-0.021c-0.061,0-0.122,0.007-0.18,0.021c-0.058,0.014-0.114,0.036-0.167,0.065
	c-0.053,0.029-0.103,0.066-0.15,0.111s-0.09,0.098-0.129,0.159c-0.034,0.061-0.064,0.131-0.091,0.209
	c-0.027,0.078-0.051,0.164-0.071,0.257c-0.019,0.094-0.035,0.195-0.045,0.303C55.195,66.901,55.19,67.017,55.19,67.14L55.19,67.14
	L55.19,67.14L55.19,67.14L55.19,67.14z"/>
<path id="path3369" style="fill:#003366;" d="M58.364,64.793h0.285h0.285h0.285h0.285l0.24,0.872l0.24,0.872l0.24,0.872l0.24,0.872
	l0.235-0.872l0.235-0.872l0.235-0.872l0.235-0.872h0.274h0.274h0.274h0.274l-0.352,1.179l-0.352,1.179l-0.352,1.179l-0.352,1.179
	l-0.067,0.229l-0.067,0.229l-0.067,0.229l-0.067,0.229c-0.028,0.089-0.057,0.172-0.087,0.248c-0.03,0.076-0.061,0.145-0.091,0.208
	c-0.031,0.063-0.061,0.119-0.091,0.17s-0.059,0.095-0.087,0.134c-0.028,0.039-0.059,0.077-0.092,0.112s-0.069,0.069-0.106,0.1
	s-0.077,0.059-0.119,0.083c-0.042,0.024-0.085,0.045-0.13,0.062c-0.045,0.022-0.092,0.042-0.142,0.059s-0.103,0.031-0.159,0.042
	c-0.056,0.011-0.115,0.02-0.176,0.025c-0.061,0.006-0.126,0.008-0.193,0.008c-0.05,0-0.101-0.001-0.151-0.004
	c-0.05-0.003-0.101-0.007-0.151-0.013c-0.05-0.006-0.101-0.013-0.151-0.021c-0.05-0.008-0.101-0.018-0.151-0.029l-0.022-0.251
	l-0.022-0.251l-0.022-0.251l-0.022-0.251c0.045,0.011,0.087,0.021,0.126,0.029c0.04,0.008,0.078,0.015,0.114,0.021
	c0.036,0.006,0.071,0.01,0.105,0.013c0.034,0.003,0.068,0.004,0.101,0.004c0.05,0,0.098-0.004,0.143-0.013
	c0.045-0.008,0.088-0.021,0.128-0.038c0.04-0.017,0.079-0.038,0.116-0.063c0.037-0.025,0.072-0.054,0.105-0.088
	c0.034-0.034,0.066-0.074,0.096-0.122c0.03-0.047,0.059-0.102,0.085-0.163c0.027-0.061,0.051-0.13,0.073-0.205
	c0.022-0.075,0.041-0.158,0.058-0.247l-0.386-1.235l-0.386-1.235l-0.385-1.235L58.364,64.793L58.364,64.793L58.364,64.793
	L58.364,64.793L58.364,64.793z"/>
<path id="path3371" style="fill:#003366;" d="M29.175,81.153H28.99h-0.184h-0.184h-0.184c-0.095-0.173-0.184-0.349-0.268-0.528
	c-0.084-0.178-0.162-0.359-0.235-0.542c-0.073-0.183-0.14-0.368-0.201-0.555c-0.061-0.187-0.117-0.375-0.168-0.565
	c-0.05-0.196-0.094-0.388-0.13-0.579s-0.067-0.379-0.091-0.566c-0.024-0.187-0.041-0.373-0.053-0.558
	c-0.012-0.185-0.017-0.369-0.017-0.554c0-0.196,0.007-0.39,0.021-0.583c0.014-0.193,0.034-0.385,0.061-0.576
	c0.026-0.191,0.059-0.382,0.098-0.572c0.039-0.19,0.083-0.38,0.134-0.57c0.05-0.19,0.108-0.376,0.171-0.558
	c0.064-0.182,0.133-0.361,0.209-0.537c0.075-0.176,0.156-0.349,0.242-0.52c0.086-0.171,0.177-0.34,0.272-0.508h0.179h0.179h0.179
	h0.179c-0.089,0.24-0.17,0.471-0.244,0.691c-0.073,0.221-0.139,0.432-0.198,0.633c-0.059,0.201-0.11,0.393-0.156,0.574
	c-0.045,0.182-0.085,0.353-0.118,0.515c-0.028,0.162-0.053,0.327-0.075,0.494c-0.022,0.167-0.041,0.337-0.056,0.509
	c-0.015,0.172-0.027,0.346-0.035,0.521c-0.008,0.176-0.012,0.353-0.012,0.532c0,0.184,0.006,0.372,0.017,0.562
	c0.011,0.19,0.028,0.384,0.05,0.581c0.022,0.197,0.05,0.397,0.084,0.602c0.034,0.204,0.073,0.412,0.117,0.625
	c0.022,0.14,0.052,0.288,0.088,0.444c0.036,0.156,0.08,0.319,0.13,0.49c0.05,0.171,0.108,0.348,0.172,0.532
	S29.096,80.958,29.175,81.153L29.175,81.153L29.175,81.153L29.175,81.153L29.175,81.153z"/>
<path id="path3373" style="fill:#003366;" d="M29.8,79.164v-1.693v-1.693v-1.693v-1.693h0.453h0.453h0.453h0.453
	c0.168,0,0.321,0.001,0.461,0.005c0.139,0.003,0.264,0.008,0.375,0.015c0.11,0.007,0.206,0.016,0.287,0.028s0.146,0.026,0.197,0.042
	c0.084,0.028,0.163,0.063,0.239,0.105c0.076,0.042,0.148,0.091,0.216,0.147c0.069,0.056,0.133,0.119,0.195,0.189
	c0.062,0.07,0.12,0.147,0.176,0.23c0.056,0.084,0.103,0.175,0.143,0.272c0.04,0.097,0.072,0.201,0.097,0.312
	c0.025,0.111,0.043,0.227,0.055,0.35c0.012,0.123,0.017,0.251,0.017,0.385c0,0.123-0.006,0.24-0.017,0.352
	c-0.012,0.112-0.029,0.219-0.053,0.321c-0.024,0.102-0.054,0.199-0.091,0.292c-0.037,0.092-0.08,0.18-0.13,0.264
	c-0.05,0.084-0.101,0.161-0.152,0.231c-0.052,0.07-0.105,0.134-0.161,0.191s-0.115,0.108-0.177,0.153s-0.13,0.084-0.203,0.118
	c-0.073,0.034-0.156,0.063-0.252,0.088c-0.095,0.025-0.202,0.046-0.321,0.063c-0.119,0.017-0.249,0.029-0.392,0.038
	c-0.143,0.008-0.298,0.013-0.466,0.013h-0.184h-0.184h-0.184h-0.184v0.637v0.637v0.637v0.637l-0.279,0.006l-0.279,0.006
	l-0.279,0.006L29.8,79.164L29.8,79.164L29.8,79.164L29.8,79.164L29.8,79.164z M30.918,73.532v0.481v0.481v0.481v0.481h0.156h0.156
	h0.156h0.156c0.101,0,0.194-0.001,0.28-0.005s0.165-0.008,0.236-0.015c0.071-0.007,0.135-0.016,0.19-0.028s0.103-0.026,0.142-0.042
	c0.039-0.017,0.075-0.035,0.109-0.055c0.034-0.02,0.065-0.043,0.095-0.068c0.029-0.025,0.056-0.053,0.082-0.085
	c0.026-0.031,0.049-0.066,0.072-0.105c0.022-0.039,0.042-0.08,0.059-0.122c0.017-0.042,0.031-0.086,0.042-0.132
	c0.011-0.046,0.02-0.094,0.025-0.145s0.008-0.104,0.008-0.16c0-0.056-0.003-0.109-0.009-0.16c-0.006-0.051-0.015-0.1-0.027-0.147
	c-0.013-0.047-0.029-0.094-0.049-0.139c-0.02-0.045-0.044-0.09-0.071-0.135c-0.022-0.039-0.047-0.074-0.075-0.105
	c-0.027-0.031-0.057-0.059-0.087-0.085c-0.031-0.025-0.063-0.047-0.096-0.068c-0.033-0.02-0.066-0.038-0.1-0.055
	c-0.034-0.017-0.078-0.029-0.134-0.039c-0.056-0.009-0.122-0.016-0.199-0.02c-0.077-0.004-0.164-0.006-0.262-0.007
	c-0.097-0.001-0.205-0.001-0.322-0.001H31.32h-0.134h-0.134L30.918,73.532L30.918,73.532L30.918,73.532L30.918,73.532L30.918,73.532
	z"/>
<path id="path3375" style="fill:#003366;" d="M34.136,76.639c0-0.117,0.006-0.233,0.017-0.347c0.012-0.114,0.029-0.227,0.053-0.337
	c0.024-0.11,0.054-0.219,0.091-0.324s0.08-0.209,0.13-0.31c0.05-0.101,0.103-0.194,0.16-0.281s0.116-0.166,0.178-0.239
	c0.063-0.073,0.129-0.138,0.199-0.197c0.07-0.059,0.144-0.11,0.222-0.155c0.078-0.05,0.158-0.094,0.24-0.13
	c0.082-0.037,0.166-0.067,0.252-0.091c0.087-0.024,0.176-0.041,0.269-0.053c0.093-0.012,0.189-0.017,0.29-0.017
	c0.162,0,0.316,0.015,0.461,0.046c0.145,0.031,0.281,0.078,0.408,0.141c0.127,0.063,0.245,0.142,0.354,0.237
	s0.208,0.207,0.297,0.336c0.089,0.129,0.169,0.261,0.238,0.398c0.069,0.137,0.128,0.279,0.175,0.426
	c0.047,0.147,0.084,0.298,0.108,0.455s0.037,0.319,0.037,0.486c0,0.129-0.006,0.253-0.017,0.373c-0.012,0.12-0.029,0.237-0.053,0.35
	c-0.024,0.113-0.054,0.223-0.091,0.329c-0.037,0.107-0.08,0.21-0.13,0.31c-0.045,0.101-0.095,0.196-0.15,0.285
	c-0.055,0.089-0.115,0.172-0.179,0.249c-0.064,0.077-0.133,0.147-0.205,0.211s-0.147,0.121-0.226,0.171
	c-0.078,0.05-0.158,0.094-0.239,0.13s-0.165,0.067-0.25,0.09c-0.085,0.024-0.172,0.041-0.262,0.053
	c-0.09,0.012-0.182,0.017-0.277,0.017c-0.151,0-0.295-0.014-0.432-0.042c-0.137-0.028-0.267-0.071-0.39-0.128
	c-0.123-0.057-0.239-0.129-0.348-0.216c-0.109-0.087-0.211-0.189-0.306-0.306c-0.106-0.106-0.198-0.226-0.277-0.36
	s-0.143-0.281-0.195-0.442c-0.052-0.16-0.09-0.334-0.115-0.521C34.149,77.051,34.136,76.851,34.136,76.639L34.136,76.639
	L34.136,76.639L34.136,76.639L34.136,76.639z M35.231,76.706c0,0.123,0.006,0.239,0.017,0.347c0.012,0.109,0.029,0.21,0.053,0.304
	c0.024,0.094,0.054,0.179,0.091,0.257s0.08,0.148,0.13,0.209c0.05,0.061,0.102,0.116,0.156,0.163s0.11,0.087,0.168,0.119
	c0.059,0.032,0.12,0.057,0.185,0.073c0.065,0.016,0.133,0.025,0.206,0.025c0.067,0,0.131-0.008,0.193-0.025
	c0.062-0.016,0.121-0.041,0.179-0.073c0.057-0.032,0.112-0.072,0.166-0.119c0.053-0.047,0.105-0.102,0.155-0.163
	c0.045-0.061,0.085-0.131,0.121-0.21s0.066-0.165,0.091-0.26s0.045-0.198,0.058-0.31c0.013-0.112,0.02-0.232,0.02-0.36
	c0-0.123-0.006-0.237-0.017-0.344s-0.029-0.206-0.053-0.298c-0.024-0.092-0.054-0.177-0.09-0.256s-0.08-0.152-0.13-0.219
	c-0.05-0.061-0.102-0.116-0.155-0.163c-0.053-0.047-0.109-0.087-0.166-0.119c-0.057-0.032-0.117-0.057-0.178-0.073
	c-0.062-0.016-0.126-0.025-0.193-0.025c-0.067,0-0.131,0.008-0.193,0.025c-0.062,0.016-0.121,0.041-0.178,0.073
	c-0.057,0.032-0.112,0.072-0.166,0.119c-0.053,0.047-0.105,0.102-0.155,0.163c-0.056,0.067-0.103,0.141-0.143,0.222
	s-0.072,0.169-0.097,0.264c-0.025,0.095-0.043,0.197-0.055,0.306C35.237,76.467,35.231,76.583,35.231,76.706z"/>
<path id="path3377" style="fill:#003366;" d="M39.321,79.164l-0.318-1.229l-0.318-1.229l-0.318-1.229l-0.318-1.229h0.257h0.257
	h0.257h0.257l0.19,0.805l0.19,0.805l0.19,0.805l0.19,0.805l0.173-0.805l0.173-0.805l0.173-0.805l0.173-0.805h0.257h0.257h0.257
	h0.257l0.168,0.805l0.168,0.805l0.168,0.805l0.168,0.805l0.19-0.805l0.19-0.805l0.19-0.805l0.19-0.805h0.263h0.263h0.263h0.263
	l-0.324,1.229l-0.324,1.229l-0.324,1.229l-0.324,1.229h-0.257h-0.257H41.97h-0.257l-0.173-0.788l-0.173-0.788l-0.173-0.788
	l-0.173-0.788l-0.173,0.788l-0.173,0.788L40.5,78.376l-0.173,0.788h-0.251h-0.251h-0.251H39.321z"/>
<path id="path3379" style="fill:#003366;" d="M46.742,77.6l0.263,0.056l0.263,0.056l0.263,0.056l0.263,0.056
	c-0.034,0.123-0.073,0.239-0.117,0.347c-0.044,0.108-0.094,0.209-0.149,0.301c-0.054,0.092-0.114,0.176-0.178,0.251
	c-0.064,0.075-0.132,0.14-0.205,0.196c-0.073,0.061-0.151,0.115-0.234,0.16s-0.171,0.082-0.263,0.111
	c-0.092,0.029-0.189,0.051-0.288,0.065c-0.1,0.014-0.203,0.021-0.309,0.021c-0.145,0-0.284-0.013-0.415-0.037
	c-0.131-0.025-0.255-0.062-0.37-0.111c-0.116-0.049-0.224-0.11-0.324-0.182c-0.1-0.072-0.193-0.156-0.276-0.251
	c-0.095-0.117-0.179-0.246-0.251-0.386c-0.072-0.14-0.133-0.291-0.182-0.453c-0.049-0.162-0.086-0.335-0.111-0.52
	s-0.037-0.38-0.037-0.587s0.013-0.402,0.037-0.587c0.025-0.185,0.062-0.359,0.111-0.522c0.049-0.163,0.11-0.316,0.182-0.459
	s0.156-0.276,0.251-0.398c0.084-0.101,0.173-0.19,0.268-0.268c0.095-0.078,0.196-0.143,0.302-0.196
	c0.106-0.053,0.218-0.094,0.335-0.121s0.24-0.041,0.369-0.041c0.145,0,0.282,0.014,0.411,0.042c0.129,0.028,0.249,0.069,0.36,0.123
	c0.112,0.054,0.215,0.122,0.31,0.203c0.095,0.081,0.182,0.174,0.26,0.281c0.095,0.123,0.177,0.26,0.248,0.411
	c0.07,0.151,0.128,0.316,0.174,0.494s0.08,0.372,0.103,0.578c0.023,0.207,0.034,0.427,0.034,0.662v0.039v0.039v0.039v0.039h-0.665
	h-0.665h-0.665h-0.665c0,0.095,0.006,0.186,0.017,0.272c0.011,0.086,0.028,0.167,0.05,0.242c0.022,0.075,0.05,0.145,0.084,0.209
	c0.034,0.064,0.073,0.121,0.117,0.171c0.045,0.056,0.091,0.103,0.138,0.143s0.096,0.072,0.147,0.097
	c0.05,0.025,0.102,0.043,0.155,0.055c0.053,0.012,0.108,0.017,0.163,0.017c0.089-0.006,0.17-0.024,0.243-0.055
	c0.073-0.031,0.138-0.076,0.195-0.135c0.057-0.059,0.107-0.131,0.149-0.219S46.714,77.717,46.742,77.6L46.742,77.6L46.742,77.6
	L46.742,77.6L46.742,77.6z M46.809,76.281c0-0.095-0.006-0.184-0.016-0.268c-0.011-0.084-0.027-0.162-0.048-0.235
	c-0.021-0.073-0.047-0.14-0.077-0.201c-0.03-0.061-0.065-0.117-0.104-0.168c-0.039-0.05-0.08-0.094-0.122-0.13
	c-0.042-0.037-0.086-0.067-0.132-0.09c-0.046-0.024-0.094-0.041-0.145-0.053c-0.051-0.012-0.104-0.017-0.16-0.017
	s-0.109,0.007-0.16,0.02c-0.051,0.013-0.1,0.033-0.147,0.058c-0.047,0.025-0.094,0.056-0.139,0.091
	c-0.045,0.036-0.09,0.076-0.135,0.121c-0.039,0.05-0.074,0.106-0.104,0.167c-0.03,0.061-0.056,0.128-0.077,0.199
	s-0.037,0.147-0.048,0.228c-0.011,0.081-0.017,0.166-0.017,0.255h0.408h0.408h0.408h0.408v0.006v0.006v0.006V76.281z"/>
<path id="path3381" style="fill:#003366;" d="M49.535,79.164h-0.268h-0.268h-0.268h-0.268v-1.229v-1.229v-1.229v-1.229h0.246h0.246
	H49.2h0.246v0.173v0.173v0.173v0.173c0.045-0.084,0.087-0.159,0.126-0.227s0.078-0.128,0.114-0.181
	c0.036-0.053,0.071-0.099,0.105-0.139s0.068-0.073,0.101-0.101c0.034-0.028,0.068-0.052,0.105-0.072s0.074-0.036,0.113-0.049
	c0.039-0.013,0.08-0.022,0.122-0.028c0.042-0.006,0.085-0.009,0.13-0.009c0.061,0,0.122,0.006,0.181,0.016
	c0.059,0.011,0.117,0.027,0.174,0.048s0.114,0.047,0.17,0.077c0.056,0.03,0.112,0.065,0.168,0.105l-0.078,0.285l-0.078,0.285
	l-0.078,0.285l-0.078,0.285c-0.045-0.034-0.088-0.064-0.13-0.091s-0.083-0.051-0.124-0.071c-0.041-0.02-0.08-0.035-0.12-0.045
	s-0.079-0.016-0.118-0.016s-0.077,0.004-0.113,0.012s-0.071,0.02-0.105,0.035c-0.034,0.015-0.066,0.034-0.096,0.056
	s-0.06,0.047-0.088,0.075c-0.028,0.028-0.053,0.06-0.076,0.097s-0.044,0.079-0.064,0.126c-0.02,0.047-0.038,0.101-0.055,0.16
	c-0.017,0.059-0.034,0.125-0.051,0.198s-0.029,0.161-0.039,0.264s-0.016,0.221-0.02,0.354c-0.004,0.133-0.006,0.28-0.007,0.442
	c-0.001,0.162-0.001,0.338-0.001,0.528v0.38v0.38v0.38V79.164L49.535,79.164L49.535,79.164L49.535,79.164L49.535,79.164z"/>
<path id="path3383" style="fill:#003366;" d="M56.24,78.315l-0.162,0.251l-0.162,0.251l-0.162,0.251l-0.162,0.251
	c-0.078-0.045-0.156-0.095-0.234-0.15s-0.155-0.116-0.232-0.182c-0.077-0.066-0.153-0.136-0.228-0.211
	c-0.075-0.075-0.149-0.155-0.222-0.239c-0.061,0.061-0.122,0.12-0.181,0.175c-0.06,0.055-0.119,0.107-0.179,0.154
	c-0.06,0.047-0.121,0.091-0.183,0.129s-0.127,0.072-0.194,0.1c-0.061,0.028-0.126,0.053-0.193,0.075
	c-0.067,0.022-0.137,0.041-0.21,0.056c-0.073,0.015-0.148,0.027-0.226,0.035c-0.078,0.008-0.159,0.012-0.243,0.012
	c-0.168,0-0.324-0.013-0.469-0.038c-0.145-0.025-0.279-0.063-0.402-0.113s-0.235-0.113-0.335-0.189s-0.19-0.163-0.268-0.264
	c-0.078-0.101-0.147-0.205-0.205-0.314c-0.059-0.108-0.108-0.22-0.147-0.335c-0.039-0.115-0.068-0.232-0.088-0.351
	c-0.02-0.119-0.029-0.241-0.029-0.364c0-0.218,0.027-0.425,0.08-0.62c0.053-0.196,0.133-0.38,0.239-0.553
	c0.106-0.173,0.239-0.335,0.398-0.486c0.159-0.151,0.345-0.291,0.557-0.419c-0.095-0.134-0.179-0.267-0.251-0.397
	c-0.072-0.13-0.133-0.258-0.182-0.382c-0.049-0.124-0.086-0.245-0.111-0.361c-0.025-0.116-0.037-0.228-0.037-0.334
	c0-0.106,0.008-0.208,0.025-0.306s0.043-0.19,0.078-0.278c0.035-0.088,0.079-0.171,0.132-0.249c0.054-0.078,0.116-0.15,0.189-0.217
	c0.073-0.067,0.149-0.126,0.231-0.176c0.082-0.05,0.168-0.092,0.261-0.126c0.092-0.034,0.19-0.059,0.294-0.075
	c0.104-0.017,0.214-0.025,0.332-0.025c0.112,0,0.219,0.008,0.322,0.025c0.103,0.017,0.201,0.043,0.295,0.078
	c0.094,0.035,0.182,0.079,0.266,0.132c0.083,0.053,0.162,0.116,0.234,0.189c0.073,0.073,0.135,0.149,0.189,0.231
	s0.097,0.168,0.132,0.261c0.035,0.092,0.061,0.19,0.078,0.294c0.017,0.104,0.025,0.214,0.025,0.332c0,0.073-0.004,0.144-0.013,0.214
	c-0.009,0.07-0.022,0.138-0.04,0.205c-0.018,0.067-0.041,0.133-0.069,0.197c-0.028,0.064-0.062,0.127-0.101,0.189
	c-0.034,0.061-0.075,0.124-0.126,0.189c-0.05,0.065-0.109,0.131-0.176,0.199c-0.067,0.068-0.142,0.139-0.226,0.212
	c-0.084,0.073-0.176,0.148-0.277,0.227l0.19,0.307l0.19,0.307l0.19,0.307l0.19,0.307c0.022-0.045,0.045-0.095,0.067-0.15
	s0.044-0.115,0.065-0.18c0.021-0.064,0.041-0.133,0.06-0.205c0.019-0.072,0.037-0.147,0.054-0.226l0.24,0.067l0.24,0.067l0.24,0.067
	l0.24,0.067c-0.039,0.162-0.078,0.313-0.117,0.453s-0.078,0.268-0.117,0.386c-0.039,0.117-0.078,0.223-0.117,0.318
	s-0.078,0.179-0.117,0.251c0.028,0.034,0.059,0.068,0.092,0.104s0.07,0.073,0.109,0.111c0.039,0.038,0.081,0.076,0.126,0.115
	c0.045,0.039,0.092,0.078,0.142,0.117c0.039,0.022,0.078,0.046,0.116,0.07c0.038,0.024,0.075,0.047,0.11,0.07
	c0.035,0.022,0.068,0.043,0.097,0.062S56.218,78.304,56.24,78.315L56.24,78.315L56.24,78.315L56.24,78.315L56.24,78.315z
	 M53.335,74.649l0.073-0.067l0.073-0.067l0.073-0.067l0.073-0.067c0.056-0.05,0.103-0.101,0.143-0.15s0.072-0.099,0.097-0.148
	c0.025-0.049,0.043-0.097,0.055-0.144c0.012-0.047,0.017-0.093,0.017-0.138c0-0.045-0.004-0.087-0.012-0.126
	c-0.008-0.039-0.019-0.076-0.033-0.111c-0.014-0.035-0.031-0.068-0.05-0.099c-0.019-0.031-0.04-0.06-0.062-0.088
	c-0.028-0.028-0.057-0.053-0.088-0.075c-0.031-0.022-0.063-0.041-0.096-0.056c-0.034-0.015-0.068-0.027-0.105-0.035
	c-0.036-0.008-0.074-0.012-0.113-0.012c-0.039,0-0.077,0.003-0.113,0.009c-0.036,0.006-0.071,0.015-0.105,0.028
	c-0.034,0.013-0.066,0.029-0.096,0.049c-0.031,0.02-0.06,0.044-0.088,0.072c-0.022,0.022-0.043,0.048-0.062,0.075
	c-0.019,0.027-0.036,0.057-0.05,0.087s-0.025,0.063-0.033,0.096c-0.008,0.033-0.012,0.066-0.012,0.1
	c0,0.039,0.006,0.081,0.016,0.125c0.011,0.044,0.027,0.091,0.048,0.14s0.047,0.1,0.077,0.152c0.03,0.053,0.065,0.107,0.105,0.163
	l0.067,0.089l0.067,0.089l0.067,0.089L53.335,74.649L53.335,74.649L53.335,74.649L53.335,74.649L53.335,74.649z M52.91,76.058
	c-0.061,0.039-0.119,0.08-0.172,0.122c-0.053,0.042-0.102,0.085-0.147,0.13s-0.085,0.091-0.122,0.138s-0.068,0.096-0.096,0.147
	c-0.028,0.05-0.053,0.102-0.075,0.155c-0.022,0.053-0.041,0.107-0.056,0.161c-0.015,0.055-0.027,0.11-0.035,0.165
	c-0.008,0.055-0.012,0.111-0.012,0.167c0,0.073,0.004,0.141,0.013,0.206s0.023,0.125,0.043,0.183
	c0.02,0.057,0.045,0.111,0.076,0.162s0.069,0.098,0.114,0.143c0.039,0.045,0.081,0.082,0.126,0.114
	c0.045,0.031,0.092,0.057,0.142,0.076c0.05,0.02,0.103,0.034,0.159,0.043s0.115,0.013,0.176,0.013c0.078,0,0.158-0.011,0.239-0.033
	c0.081-0.022,0.162-0.055,0.245-0.098c0.082-0.043,0.165-0.097,0.249-0.161c0.083-0.064,0.167-0.138,0.251-0.222l-0.279-0.402
	l-0.279-0.402l-0.279-0.402L52.91,76.058L52.91,76.058L52.91,76.058L52.91,76.058L52.91,76.058z"/>
<path id="path3385" style="fill:#003366;" d="M56.71,79.164v-1.693v-1.693v-1.693v-1.693h0.955h0.955h0.955h0.955v0.285v0.285v0.285
	v0.285h-0.67h-0.67h-0.67h-0.67v0.402v0.402v0.402v0.402h0.581h0.581h0.581h0.581v0.285v0.285v0.285v0.285h-0.581h-0.581h-0.581
	H57.85v0.721v0.721v0.721v0.721h-0.285H57.28h-0.285H56.71L56.71,79.164L56.71,79.164L56.71,79.164L56.71,79.164z"/>
<path id="path3387" style="fill:#003366;" d="M63.526,79.164V78.98v-0.184v-0.184v-0.184c-0.039,0.067-0.08,0.13-0.122,0.189
	c-0.043,0.059-0.087,0.114-0.135,0.166c-0.047,0.052-0.098,0.1-0.152,0.145s-0.111,0.087-0.173,0.126
	c-0.061,0.039-0.123,0.073-0.185,0.101c-0.062,0.028-0.124,0.051-0.187,0.07c-0.063,0.018-0.126,0.032-0.191,0.04
	s-0.13,0.013-0.197,0.013c-0.067,0-0.131-0.004-0.193-0.013c-0.062-0.008-0.122-0.021-0.181-0.038s-0.116-0.038-0.173-0.063
	c-0.057-0.025-0.112-0.054-0.168-0.088c-0.05-0.034-0.098-0.071-0.142-0.113s-0.087-0.087-0.126-0.136
	c-0.039-0.049-0.075-0.101-0.109-0.157c-0.034-0.056-0.064-0.114-0.092-0.176c-0.028-0.061-0.052-0.131-0.072-0.209
	c-0.02-0.078-0.036-0.164-0.049-0.257c-0.013-0.094-0.022-0.195-0.027-0.303c-0.006-0.109-0.009-0.225-0.009-0.348v-0.777v-0.777
	v-0.777V74.27h0.268h0.268h0.268h0.268v0.564v0.564v0.564v0.564c0,0.162,0.001,0.309,0.004,0.44c0.002,0.132,0.006,0.248,0.01,0.35
	c0.004,0.102,0.009,0.189,0.014,0.262c0.005,0.073,0.011,0.132,0.017,0.176c0.011,0.045,0.024,0.087,0.038,0.126
	c0.014,0.039,0.03,0.075,0.049,0.109c0.018,0.034,0.038,0.064,0.061,0.092s0.048,0.053,0.076,0.075
	c0.028,0.022,0.057,0.042,0.088,0.059s0.063,0.031,0.096,0.042c0.034,0.011,0.068,0.02,0.105,0.025
	c0.036,0.006,0.074,0.008,0.113,0.008c0.045,0,0.089-0.004,0.133-0.012c0.044-0.008,0.087-0.02,0.129-0.035
	c0.042-0.015,0.082-0.034,0.121-0.056s0.075-0.047,0.108-0.075c0.039-0.028,0.074-0.06,0.105-0.095
	c0.031-0.035,0.058-0.074,0.082-0.114c0.024-0.04,0.044-0.083,0.061-0.127c0.017-0.044,0.031-0.088,0.042-0.133
	c0.011-0.05,0.021-0.115,0.029-0.193s0.015-0.171,0.021-0.279c0.006-0.107,0.01-0.23,0.013-0.367
	c0.003-0.137,0.004-0.29,0.004-0.457v-0.514V75.32v-0.514v-0.514h0.263h0.263h0.263h0.263v1.229v1.229v1.229v1.229h-0.24h-0.24
	h-0.24h-0.24v-0.011v-0.011v-0.011L63.526,79.164L63.526,79.164L63.526,79.164z"/>
<path id="path3389" style="fill:#003366;" d="M67.393,77.6l0.263,0.056l0.263,0.056l0.263,0.056l0.263,0.056
	c-0.034,0.123-0.073,0.239-0.117,0.347c-0.044,0.108-0.094,0.209-0.149,0.301c-0.054,0.092-0.114,0.176-0.178,0.251
	c-0.064,0.075-0.132,0.14-0.205,0.196c-0.073,0.061-0.151,0.115-0.234,0.16c-0.083,0.045-0.171,0.082-0.263,0.111
	c-0.092,0.029-0.189,0.051-0.288,0.065c-0.1,0.014-0.203,0.021-0.309,0.021c-0.145,0-0.284-0.013-0.415-0.037
	c-0.131-0.025-0.255-0.062-0.37-0.111c-0.116-0.049-0.224-0.11-0.325-0.182c-0.1-0.072-0.192-0.156-0.276-0.251
	c-0.095-0.117-0.179-0.246-0.251-0.386s-0.133-0.291-0.182-0.453s-0.086-0.335-0.111-0.52c-0.025-0.184-0.037-0.38-0.037-0.587
	s0.013-0.402,0.037-0.587s0.062-0.359,0.111-0.522c0.049-0.163,0.11-0.316,0.182-0.459s0.156-0.276,0.251-0.398
	c0.084-0.101,0.173-0.19,0.268-0.268c0.095-0.078,0.196-0.143,0.302-0.196c0.106-0.053,0.218-0.094,0.335-0.121
	c0.117-0.027,0.24-0.041,0.369-0.041c0.145,0,0.282,0.014,0.411,0.042c0.129,0.028,0.249,0.069,0.36,0.123
	c0.112,0.054,0.215,0.122,0.31,0.203c0.095,0.081,0.182,0.174,0.26,0.281c0.095,0.123,0.177,0.26,0.248,0.411
	c0.07,0.151,0.128,0.316,0.174,0.494c0.046,0.179,0.08,0.372,0.103,0.578c0.023,0.207,0.034,0.427,0.034,0.662v0.039v0.039v0.039
	v0.039h-0.665h-0.665h-0.665h-0.665c0,0.095,0.006,0.186,0.017,0.272c0.011,0.086,0.028,0.167,0.05,0.242
	c0.022,0.075,0.05,0.145,0.084,0.209c0.034,0.064,0.073,0.121,0.117,0.171c0.045,0.056,0.091,0.103,0.138,0.143
	s0.096,0.072,0.147,0.097c0.05,0.025,0.102,0.043,0.155,0.055c0.053,0.012,0.108,0.017,0.163,0.017
	c0.089-0.006,0.17-0.024,0.243-0.055c0.073-0.031,0.138-0.076,0.195-0.135c0.057-0.059,0.107-0.131,0.149-0.219
	C67.33,77.819,67.365,77.717,67.393,77.6L67.393,77.6L67.393,77.6L67.393,77.6L67.393,77.6z M67.46,76.281
	c0-0.095-0.006-0.184-0.016-0.268c-0.011-0.084-0.027-0.162-0.048-0.235c-0.021-0.073-0.047-0.14-0.077-0.201
	c-0.03-0.061-0.065-0.117-0.104-0.168c-0.039-0.05-0.08-0.094-0.122-0.13c-0.042-0.037-0.086-0.067-0.132-0.09
	c-0.046-0.024-0.094-0.041-0.145-0.053s-0.104-0.017-0.16-0.017c-0.056,0-0.109,0.007-0.16,0.02s-0.1,0.033-0.147,0.058
	c-0.047,0.025-0.094,0.056-0.139,0.091c-0.045,0.036-0.09,0.076-0.135,0.121c-0.039,0.05-0.074,0.106-0.104,0.167
	c-0.03,0.061-0.056,0.128-0.077,0.199s-0.037,0.147-0.048,0.228c-0.011,0.081-0.017,0.166-0.017,0.255h0.408h0.408h0.408h0.408
	v0.006v0.006v0.006V76.281z"/>
<path id="path3391" style="fill:#003366;" d="M69.181,79.164v-1.693v-1.693v-1.693v-1.693h0.268h0.268h0.268h0.268v1.693v1.693
	v1.693v1.693h-0.268h-0.268h-0.268H69.181z"/>
<path id="path3393" style="fill:#003366;" d="M70.835,81.153c0.073-0.196,0.141-0.384,0.205-0.566
	c0.064-0.182,0.122-0.357,0.175-0.526c0.053-0.169,0.101-0.332,0.142-0.488s0.076-0.308,0.104-0.453
	c0.045-0.207,0.084-0.412,0.117-0.616c0.034-0.204,0.061-0.405,0.084-0.605c0.022-0.2,0.039-0.397,0.05-0.593
	c0.011-0.195,0.017-0.388,0.017-0.578c0-0.179-0.004-0.356-0.012-0.532s-0.02-0.35-0.035-0.521
	c-0.015-0.172-0.034-0.342-0.056-0.509c-0.022-0.167-0.047-0.332-0.075-0.494c-0.028-0.162-0.064-0.334-0.109-0.515
	c-0.044-0.182-0.097-0.373-0.157-0.574s-0.128-0.412-0.203-0.633s-0.158-0.451-0.247-0.691h0.179h0.179h0.179h0.179
	c0.101,0.173,0.194,0.348,0.281,0.524c0.087,0.176,0.167,0.353,0.241,0.532c0.074,0.179,0.142,0.359,0.204,0.541
	s0.118,0.365,0.168,0.549c0.05,0.184,0.094,0.369,0.13,0.553c0.037,0.184,0.067,0.369,0.09,0.553
	c0.024,0.184,0.041,0.369,0.053,0.553c0.012,0.184,0.017,0.369,0.017,0.553s-0.007,0.37-0.02,0.557
	c-0.013,0.187-0.033,0.376-0.058,0.566c-0.025,0.19-0.056,0.381-0.091,0.574c-0.036,0.193-0.076,0.387-0.121,0.582
	c-0.05,0.196-0.106,0.388-0.168,0.579c-0.061,0.19-0.129,0.378-0.201,0.564c-0.073,0.186-0.151,0.37-0.235,0.552
	c-0.084,0.182-0.173,0.362-0.268,0.541l-0.184,0.006l-0.184,0.006l-0.184,0.005L70.835,81.153L70.835,81.153L70.835,81.153
	L70.835,81.153L70.835,81.153z"/>
<path id="path2134" inkscape:connector-curvature="0" style="fill:#003366;" d="M75.3,23.6c-0.15,0-0.294,0.031-0.425,0.087
	c-0.131,0.056-0.25,0.138-0.35,0.238s-0.181,0.219-0.237,0.35C74.231,24.406,74.2,24.55,74.2,24.7c0,0.05,0,0.106,0.003,0.164
	c0.003,0.058,0.009,0.117,0.022,0.173c0.012,0.056,0.031,0.11,0.059,0.155c0.028,0.045,0.066,0.083,0.116,0.108l0.475,0.775
	l0.475,0.775l0.475,0.775L76.3,28.4h-0.375H75.55h-0.375H74.8c-0.2,0-0.381,0.038-0.541,0.105c-0.159,0.067-0.297,0.164-0.409,0.283
	c-0.113,0.118-0.2,0.259-0.259,0.414C73.531,29.356,73.5,29.525,73.5,29.7v1.325v1.325v1.325V35c0,0.2,0.037,0.381,0.105,0.541
	c0.067,0.159,0.164,0.297,0.282,0.409c0.119,0.112,0.259,0.2,0.414,0.259c0.155,0.059,0.323,0.091,0.499,0.091h0.75h0.75h0.75h0.75
	c0,0,0.006,0,0.017,0c0.011,0,0.026,0,0.045,0s0.04,0,0.064,0s0.048,0,0.073,0V37v0.7v0.7v0.7v1.05v1.05v1.05v1.05v0.525v0.525
	v0.525V45.4v0.775v0.775v0.775V48.5v0.075v0.075v0.075V48.8l0,0l0,0l0,0l0,0v0.45v0.45v0.45v0.45v0.7V52v0.7v0.7
	c0,0.1-0.019,0.194-0.053,0.278s-0.084,0.159-0.147,0.222s-0.137,0.112-0.222,0.147c-0.084,0.034-0.178,0.053-0.278,0.053
	s-0.194-0.019-0.278-0.053c-0.084-0.034-0.159-0.084-0.222-0.147s-0.113-0.138-0.147-0.222S76.599,53.5,76.599,53.4v-0.7V52v-0.7
	v-0.7v-1.575V47.45v-1.575V44.3v-0.7v-0.7v-0.7v-0.7c0-0.15-0.031-0.294-0.088-0.425c-0.056-0.131-0.137-0.25-0.237-0.35
	c-0.1-0.1-0.219-0.181-0.35-0.237c-0.131-0.056-0.275-0.088-0.425-0.088h-0.775h-0.775h-0.775H72.4h-0.15H72.1h-0.15H71.8l0,0l0,0
	l0,0l0,0v-3.45V33.5v-3.45V26.6c0-0.4-0.081-0.781-0.228-1.128c-0.147-0.347-0.359-0.659-0.622-0.922
	c-0.262-0.262-0.575-0.475-0.922-0.622C69.681,23.781,69.3,23.7,68.9,23.7h-4.25H60.4h-4.25H51.9c-0.4,0-0.781,0.081-1.128,0.228
	c-0.347,0.147-0.659,0.359-0.922,0.622c-0.262,0.263-0.475,0.575-0.622,0.922C49.081,25.819,49,26.2,49,26.6v7.05v7.05v7.05v7.05
	h-0.125H48.75h-0.125H48.5c-0.1,0-0.188,0.019-0.263,0.052s-0.138,0.08-0.188,0.136c-0.05,0.056-0.087,0.121-0.112,0.192
	c-0.025,0.07-0.037,0.145-0.037,0.22v0.725v0.725v0.725V58.3c0,0.1,0.019,0.188,0.052,0.263s0.08,0.138,0.136,0.188
	c0.056,0.05,0.122,0.088,0.192,0.112c0.07,0.025,0.145,0.037,0.22,0.037h0.85h0.85h0.85h0.85h4.25h4.25h4.25h4.25h0.85h0.85h0.85
	h0.85c0.1,0,0.188-0.019,0.262-0.052c0.075-0.033,0.138-0.08,0.188-0.136s0.088-0.122,0.113-0.192S72.9,58.375,72.9,58.3v-0.725
	V56.85v-0.725V55.4c0-0.1-0.019-0.188-0.052-0.263c-0.033-0.075-0.08-0.137-0.136-0.188c-0.056-0.05-0.121-0.088-0.192-0.113
	c-0.07-0.025-0.145-0.037-0.22-0.037h-0.025H72.25h-0.025H72.2h-0.1H72h-0.1h-0.1v-3.025V48.75v-3.025V42.7h0.15h0.15h0.15h0.15h0.5
	h0.5h0.5h0.5v1.525v1.525v1.525V48.8v1.125v1.125v1.125V53.3c0,0.025,0,0.05,0,0.075c0,0.025,0,0.05,0,0.075s0,0.05,0,0.075
	c0,0.025,0,0.05,0,0.075c0,0.4,0.081,0.781,0.228,1.128c0.147,0.347,0.359,0.659,0.622,0.922c0.263,0.263,0.575,0.475,0.922,0.622
	C76.519,56.419,76.9,56.5,77.3,56.5s0.781-0.081,1.128-0.228c0.347-0.147,0.659-0.359,0.922-0.622s0.475-0.575,0.622-0.922
	S80.2,54,80.2,53.6c0-0.025,0-0.05,0-0.075c0-0.025,0-0.05,0-0.075c0-0.025,0-0.05,0-0.075c0-0.025,0-0.05,0-0.075v-1.125V51.05
	v-1.125V48.8v-0.225V48.35v-0.225V47.9v-1.175V45.55v-1.175V43.2v-1.05V41.1v-1.05V39v-1.45V36.1v-1.45V33.2v-0.15V32.9v-0.15V32.6
	v-0.475V31.65v-0.475V30.7c0-0.05,0-0.1-0.003-0.15c-0.003-0.05-0.009-0.1-0.022-0.15c-0.013-0.05-0.031-0.1-0.059-0.15
	C80.088,30.2,80.05,30.15,80,30.1l-0.925-1.475L78.15,27.15l-0.925-1.475L76.3,24.2c-0.05-0.1-0.113-0.188-0.184-0.263
	c-0.072-0.075-0.153-0.137-0.241-0.188c-0.088-0.05-0.181-0.087-0.278-0.112C75.5,23.613,75.4,23.6,75.3,23.6L75.3,23.6L75.3,23.6
	L75.3,23.6L75.3,23.6z M53.9,27.3h3.225h3.225h3.225H66.8c0.2,0,0.387,0.038,0.556,0.105c0.169,0.067,0.319,0.164,0.444,0.283
	c0.125,0.118,0.225,0.259,0.294,0.414c0.069,0.155,0.106,0.323,0.106,0.498v1.6v1.6v1.6V35c0,0.2-0.037,0.381-0.106,0.541
	c-0.069,0.159-0.169,0.297-0.294,0.409s-0.275,0.2-0.444,0.259C67.188,36.269,67,36.3,66.8,36.3h-3.225H60.35h-3.225H53.9
	c-0.2,0-0.388-0.037-0.556-0.105c-0.169-0.067-0.319-0.164-0.444-0.283c-0.125-0.118-0.225-0.259-0.294-0.414S52.5,35.175,52.5,35
	v-1.575V31.85v-1.575V28.7c0-0.2,0.037-0.387,0.106-0.556s0.169-0.319,0.294-0.444s0.275-0.225,0.444-0.294
	C53.513,27.337,53.7,27.3,53.9,27.3z M60.3,40.6c0,0,0.131,0.188,0.336,0.483s0.483,0.698,0.776,1.129
	c0.294,0.432,0.604,0.891,0.871,1.299c0.267,0.408,0.492,0.764,0.617,0.989c0.45,0.725,0.806,1.394,1.073,2.017
	s0.445,1.202,0.539,1.746c0.094,0.543,0.104,1.053,0.033,1.539S64.325,50.75,64.1,51.2c-0.125,0.275-0.287,0.531-0.48,0.766
	c-0.192,0.234-0.414,0.447-0.658,0.634s-0.509,0.35-0.789,0.484C61.894,53.219,61.6,53.325,61.3,53.4
	c-0.125,0.025-0.275,0.05-0.438,0.07c-0.162,0.02-0.337,0.036-0.513,0.042s-0.35,0.003-0.513-0.014
	c-0.162-0.017-0.312-0.048-0.437-0.098c-0.325-0.075-0.638-0.181-0.933-0.316c-0.295-0.134-0.574-0.297-0.83-0.484
	s-0.491-0.4-0.698-0.634c-0.208-0.234-0.389-0.491-0.539-0.766c-0.225-0.45-0.369-0.906-0.431-1.384
	c-0.062-0.478-0.044-0.978,0.056-1.516c0.1-0.537,0.281-1.112,0.544-1.741S57.175,45.25,57.6,44.5
	c0.175-0.2,0.431-0.544,0.717-0.947c0.286-0.403,0.601-0.866,0.895-1.303c0.294-0.438,0.566-0.85,0.764-1.153
	C60.175,40.794,60.3,40.6,60.3,40.6L60.3,40.6L60.3,40.6L60.3,40.6L60.3,40.6z"/>
<path id="path2136" inkscape:connector-curvature="0" style="fill:#003366;" d="M35.8,23.8c-2.225,0-4.338,0.45-6.255,1.263
	s-3.639,1.987-5.082,3.438s-2.609,3.175-3.414,5.088C20.244,35.5,19.8,37.6,19.8,39.8l0,0l0,0l0,0l0,0
	c0,2.225,0.45,4.338,1.263,6.255s1.987,3.639,3.438,5.082c1.45,1.444,3.175,2.61,5.087,3.415C31.5,55.356,33.6,55.8,35.8,55.8
	c0.975,0,1.938-0.087,2.878-0.258s1.859-0.424,2.747-0.755c0.888-0.331,1.744-0.74,2.559-1.223s1.591-1.039,2.316-1.664v-6.05V39.8
	v-6.05V27.7c-0.725-0.625-1.5-1.181-2.316-1.664c-0.816-0.483-1.672-0.892-2.559-1.224c-0.888-0.331-1.806-0.584-2.747-0.754
	C37.737,23.887,36.775,23.8,35.8,23.8z M39,28.5l-0.825,2.425L37.35,33.35l-0.825,2.425L35.7,38.2l1.4,0.025l1.4,0.025l1.4,0.025
	l1.4,0.025l-2.7,3.25l-2.7,3.25l-2.7,3.25l-2.7,3.25l0.875-2.475l0.875-2.475l0.875-2.475L34,41.4c-0.45,0-0.906,0-1.366-0.002
	c-0.459-0.002-0.922-0.005-1.384-0.011c-0.462-0.006-0.925-0.015-1.384-0.029S28.95,41.325,28.5,41.3
	c0.975-1.075,1.888-2.144,2.766-3.209c0.878-1.066,1.722-2.128,2.559-3.191s1.669-2.125,2.522-3.191
	C37.2,30.644,38.075,29.575,39,28.5z"/>
</svg>
