<?xml version="1.0" encoding="iso-8859-1"?>
<!-- Generator: Adobe Illustrator 25.4.1, SVG Export Plug-In . SVG Version: 6.00 Build 0)  -->
<svg version="1.1"
	 id="svg8" inkscape:export-filename="C:\Users\Charlotte Abel\Documents\Symbology\Components\For Distribution\communications_alerts-warnings-messages.png" inkscape:export-xdpi="300.00464" inkscape:export-ydpi="300.00464" inkscape:version="0.91 r13725" sodipodi:docname="energy-power-fuel_power-with-label-clr_256x256.svg" xmlns:cc="http://creativecommons.org/ns#" xmlns:dc="http://purl.org/dc/elements/1.1/" xmlns:inkscape="http://www.inkscape.org/namespaces/inkscape" xmlns:rdf="http://www.w3.org/1999/02/22-rdf-syntax-ns#" xmlns:sodipodi="http://sodipodi.sourceforge.net/DTD/sodipodi-0.dtd" xmlns:svg="http://www.w3.org/2000/svg"
	 xmlns="http://www.w3.org/2000/svg" xmlns:xlink="http://www.w3.org/1999/xlink" x="0px" y="0px" viewBox="0 0 100 100"
	 style="enable-background:new 0 0 100 100;" xml:space="preserve">
<sodipodi:namedview  bordercolor="#666666" borderopacity="1.0" id="base" inkscape:current-layer="g8666" inkscape:cx="-282.50709" inkscape:cy="84.283015" inkscape:document-units="px" inkscape:guide-bbox="true" inkscape:lockguides="true" inkscape:pageopacity="0.0" inkscape:pageshadow="2" inkscape:window-height="657" inkscape:window-maximized="1" inkscape:window-width="1280" inkscape:window-x="-8" inkscape:window-y="-8" inkscape:zoom="0.765625" pagecolor="#ffffff" showgrid="false" showguides="false" units="px">
	<sodipodi:guide  id="guide5700" inkscape:locked="true" orientation="0,1" position="-0.93017576,23.874511"></sodipodi:guide>
	<sodipodi:guide  id="guide5726" inkscape:locked="true" orientation="0,1" position="-26.098869,26.473047"></sodipodi:guide>
	<sodipodi:guide  id="guide5880" inkscape:locked="true" orientation="0,1" position="104.51042,-2.9104167"></sodipodi:guide>
	<sodipodi:guide  id="guide6001" inkscape:locked="true" orientation="0,1" position="-71.093695,29.279377"></sodipodi:guide>
	<sodipodi:guide  id="guide6005" inkscape:locked="true" orientation="0,1" position="-46.304445,58.278122"></sodipodi:guide>
	<sodipodi:guide  id="guide6736" inkscape:locked="true" orientation="0,1" position="-0.10335287,20.205485"></sodipodi:guide>
	<sodipodi:guide  id="guide6738" inkscape:locked="true" orientation="0,1" position="-0.43848907,22.874513"></sodipodi:guide>
	<inkscape:grid  id="grid2386" type="xygrid"></inkscape:grid>
</sodipodi:namedview>
<g id="g1180" transform="translate(0,-229.2666)" inkscape:groupmode="layer" inkscape:label="halo:always" style="display:none;">
	<g id="g1210" inkscape:groupmode="layer" inkscape:label="-gray-halo:iter3" style="display:inline;">
		<g id="circle1208">
			<path style="fill:#919395;" d="M50,329.3c-27.6,0-50-22.4-50-50s22.4-50,50-50s50,22.4,50,50S77.6,329.3,50,329.3z M50,237.9
				c-22.8,0-41.4,18.6-41.4,41.4s18.6,41.4,41.4,41.4s41.4-18.6,41.4-41.4S72.8,237.9,50,237.9z"/>
		</g>
	</g>
	<g id="g1206" inkscape:groupmode="layer" inkscape:label="-red-halo:iter3" style="display:inline;">
		<g id="circle1204">
			<path style="fill:#C52038;" d="M50,329.3c-27.6,0-50-22.4-50-50s22.4-50,50-50s50,22.4,50,50S77.6,329.3,50,329.3z M50,237.9
				c-22.8,0-41.4,18.6-41.4,41.4s18.6,41.4,41.4,41.4s41.4-18.6,41.4-41.4S72.8,237.9,50,237.9z"/>
		</g>
	</g>
	<g id="g1202" inkscape:groupmode="layer" inkscape:label="-green-halo:iter3" style="display:inline;">
		<g id="circle1200">
			<path style="fill:#5E9C42;" d="M50,329.3c-27.6,0-50-22.4-50-50s22.4-50,50-50s50,22.4,50,50S77.6,329.3,50,329.3z M50,237.9
				c-22.8,0-41.4,18.6-41.4,41.4s18.6,41.4,41.4,41.4s41.4-18.6,41.4-41.4S72.8,237.9,50,237.9z"/>
		</g>
	</g>
	<g id="layer18" inkscape:groupmode="layer" inkscape:label="-yellow-halo:iter3" style="display:inline;">
		<g id="circle1178-4">
			<path style="fill:#FBBA16;" d="M50,329.3c-27.6,0-50-22.4-50-50s22.4-50,50-50s50,22.4,50,50S77.6,329.3,50,329.3z M50,237.9
				c-22.8,0-41.4,18.6-41.4,41.4s18.6,41.4,41.4,41.4s41.4-18.6,41.4-41.4S72.8,237.9,50,237.9z"/>
		</g>
	</g>
</g>
<path id="path8662" inkscape:connector-curvature="0" inkscape:export-filename="C:\Users\Charlotte Abel\Documents\Symbology\Components\For Distribution\energy-power-fuel_power-gray.png" inkscape:export-xdpi="300.00461" inkscape:export-ydpi="300.00461" style="fill:#003366;" d="
	M41.499,16.884c-0.211,0-0.412,0.042-0.594,0.119c-0.182,0.077-0.346,0.187-0.483,0.325c-0.137,0.137-0.248,0.301-0.325,0.483
	c-0.077,0.182-0.119,0.383-0.119,0.594v3.506v3.506v3.506v3.506H38.14h-1.838h-1.838h-1.838c-0.275,0-0.533,0.053-0.767,0.149
	c-0.234,0.096-0.442,0.236-0.616,0.41c-0.174,0.174-0.315,0.383-0.411,0.617s-0.149,0.492-0.149,0.767v0.739v0.739v0.739v0.739
	c0,0.275,0.053,0.533,0.149,0.767c0.096,0.234,0.236,0.442,0.411,0.616c0.174,0.174,0.383,0.315,0.616,0.411
	c0.234,0.096,0.492,0.149,0.767,0.149h0.591h0.591h0.591h0.591v2.936v2.936v2.936v2.936c0,1.141,0.216,2.228,0.61,3.218
	c0.393,0.99,0.964,1.883,1.671,2.632c0.708,0.75,1.552,1.357,2.495,1.777s1.983,0.652,3.081,0.652h1.014h1.014h1.014h1.014v2.514
	v2.514v2.514v2.514h2.133h2.133h2.133h2.133v-2.492v-2.492v-2.492v-2.492h1.014h1.014h1.014h1.014c1.077,0,2.107-0.232,3.045-0.652
	c0.939-0.42,1.786-1.027,2.499-1.777c0.713-0.75,1.291-1.642,1.691-2.632c0.4-0.99,0.622-2.078,0.622-3.218v-2.957v-2.957V42.23
	v-2.957h0.591h0.591h0.591h0.591c0.275,0,0.533-0.053,0.767-0.149c0.234-0.096,0.442-0.236,0.617-0.411
	c0.174-0.174,0.314-0.383,0.41-0.616c0.096-0.234,0.149-0.492,0.149-0.767v-0.739v-0.739v-0.739v-0.739
	c0-0.275-0.053-0.533-0.149-0.767c-0.096-0.234-0.236-0.442-0.41-0.617c-0.174-0.174-0.383-0.314-0.617-0.41
	c-0.234-0.096-0.492-0.149-0.767-0.149H67.88h-1.838h-1.838h-1.838v-3.506v-3.506v-3.506v-3.506c0-0.211-0.042-0.412-0.119-0.594
	c-0.077-0.182-0.187-0.346-0.325-0.483c-0.137-0.137-0.301-0.248-0.483-0.325s-0.383-0.119-0.594-0.119H60.53h-0.317h-0.317h-0.317
	c-0.211,0-0.412,0.042-0.594,0.119c-0.182,0.077-0.346,0.187-0.483,0.325c-0.137,0.137-0.248,0.301-0.325,0.483
	c-0.077,0.182-0.119,0.383-0.119,0.594v3.506v3.506v3.506v3.506h-3.443h-3.443H47.73h-3.443v-3.506v-3.506v-3.506v-3.506
	c0-0.211-0.042-0.412-0.119-0.594c-0.077-0.182-0.187-0.346-0.325-0.483s-0.301-0.248-0.483-0.325
	c-0.182-0.077-0.383-0.119-0.594-0.119c0,0-0.079,0-0.198,0c-0.119,0-0.277,0-0.436,0s-0.317,0-0.436,0
	C41.578,16.884,41.499,16.884,41.499,16.884z"/>
<path id="path8664" inkscape:connector-curvature="0" inkscape:export-filename="C:\Users\Charlotte Abel\Documents\Symbology\Components\For Distribution\energy-power-fuel_power-gray.png" inkscape:export-xdpi="300.00461" inkscape:export-ydpi="300.00461" style="fill:#FFFFFF;" d="
	M54.679,36.57l-0.718,2.112l-0.718,2.112l-0.718,2.112l-0.718,2.112l1.225,0.021l1.225,0.021l1.225,0.021l1.225,0.021l-2.345,2.851
	l-2.345,2.851l-2.345,2.851l-2.345,2.851l0.782-2.176l0.782-2.176l0.782-2.176l0.782-2.176c-0.401,0-0.803-0.005-1.204-0.013
	s-0.803-0.018-1.204-0.029c-0.401-0.011-0.803-0.021-1.204-0.029c-0.401-0.008-0.803-0.013-1.204-0.013
	c0.824-0.929,1.595-1.859,2.339-2.788c0.745-0.929,1.463-1.859,2.181-2.788c0.718-0.929,1.436-1.859,2.181-2.788
	C53.084,38.428,53.855,37.499,54.679,36.57L54.679,36.57L54.679,36.57L54.679,36.57L54.679,36.57z"/>
<path id="path8217" style="fill:#003366;" d="M38.446,82.957V80.92v-2.037v-2.037v-2.037h0.545h0.545h0.545h0.545
	c0.201,0,0.386,0.002,0.553,0.006c0.167,0.004,0.317,0.01,0.449,0.019c0.132,0.008,0.246,0.019,0.342,0.031
	c0.096,0.013,0.173,0.027,0.232,0.044c0.101,0.034,0.197,0.075,0.289,0.126c0.092,0.05,0.179,0.109,0.26,0.176
	c0.082,0.067,0.158,0.143,0.229,0.226c0.071,0.084,0.136,0.176,0.194,0.277c0.067,0.101,0.126,0.21,0.176,0.326
	c0.05,0.117,0.092,0.242,0.126,0.374c0.034,0.132,0.059,0.271,0.075,0.417c0.017,0.146,0.025,0.299,0.025,0.458
	c0,0.151-0.006,0.293-0.019,0.429s-0.033,0.263-0.06,0.385c-0.027,0.122-0.061,0.237-0.104,0.347
	c-0.042,0.11-0.093,0.215-0.151,0.315c-0.059,0.101-0.119,0.193-0.183,0.277s-0.129,0.161-0.198,0.23
	c-0.069,0.069-0.141,0.131-0.217,0.186c-0.076,0.055-0.156,0.103-0.24,0.145c-0.084,0.042-0.182,0.078-0.295,0.107
	c-0.113,0.03-0.241,0.054-0.384,0.073c-0.143,0.019-0.3,0.033-0.472,0.042s-0.358,0.013-0.56,0.013h-0.218h-0.218h-0.218H39.82
	v0.771v0.771v0.771v0.771l-0.344,0.008l-0.344,0.008l-0.344,0.008L38.446,82.957L38.446,82.957L38.446,82.957L38.446,82.957
	L38.446,82.957z M39.787,76.183v0.578v0.578v0.578v0.578h0.184h0.184h0.184h0.184c0.126,0,0.241-0.002,0.346-0.006
	c0.105-0.004,0.199-0.01,0.283-0.019s0.157-0.019,0.22-0.031c0.063-0.013,0.115-0.027,0.157-0.044
	c0.042-0.017,0.084-0.038,0.125-0.062c0.041-0.025,0.081-0.053,0.118-0.084c0.038-0.031,0.073-0.066,0.106-0.103
	c0.032-0.037,0.062-0.077,0.087-0.119c0.025-0.05,0.048-0.101,0.069-0.152s0.038-0.104,0.053-0.158
	c0.015-0.054,0.026-0.111,0.034-0.171c0.008-0.06,0.012-0.123,0.012-0.19c0-0.067-0.004-0.132-0.012-0.194
	c-0.008-0.062-0.019-0.122-0.034-0.179c-0.015-0.057-0.032-0.11-0.053-0.16s-0.044-0.096-0.069-0.138
	c-0.034-0.05-0.067-0.094-0.101-0.133c-0.034-0.039-0.069-0.072-0.104-0.102c-0.036-0.029-0.072-0.054-0.111-0.076
	c-0.038-0.022-0.078-0.041-0.12-0.058c-0.042-0.017-0.096-0.031-0.163-0.044s-0.147-0.023-0.239-0.031
	c-0.092-0.008-0.197-0.015-0.314-0.019c-0.117-0.004-0.247-0.006-0.39-0.006h-0.159h-0.159h-0.159h-0.159v-0.008V76.2v-0.008
	L39.787,76.183L39.787,76.183L39.787,76.183z"/>
<path id="path8219" style="fill:#003366;" d="M43.844,79.905c0-0.143,0.006-0.283,0.019-0.421c0.013-0.138,0.033-0.273,0.06-0.405
	c0.027-0.132,0.062-0.261,0.104-0.386c0.042-0.125,0.093-0.247,0.151-0.364c0.059-0.117,0.122-0.228,0.189-0.333
	s0.138-0.202,0.214-0.292s0.155-0.173,0.239-0.248c0.084-0.075,0.172-0.142,0.264-0.201c0.092-0.059,0.189-0.111,0.288-0.157
	c0.1-0.046,0.202-0.084,0.307-0.116c0.105-0.031,0.212-0.055,0.32-0.072c0.108-0.016,0.217-0.025,0.326-0.025
	c0.193,0,0.377,0.019,0.552,0.057c0.175,0.038,0.341,0.094,0.496,0.17c0.155,0.075,0.3,0.17,0.433,0.283
	c0.133,0.113,0.255,0.245,0.364,0.396c0.109,0.151,0.205,0.308,0.289,0.472c0.083,0.164,0.154,0.335,0.21,0.513
	c0.057,0.178,0.1,0.363,0.128,0.557c0.029,0.193,0.043,0.394,0.043,0.604c0,0.151-0.006,0.3-0.019,0.445
	c-0.013,0.146-0.033,0.288-0.06,0.426c-0.027,0.138-0.062,0.272-0.104,0.401c-0.042,0.129-0.093,0.253-0.151,0.37
	c-0.059,0.126-0.122,0.243-0.189,0.352c-0.067,0.109-0.138,0.21-0.214,0.302c-0.075,0.092-0.155,0.176-0.239,0.251
	c-0.084,0.075-0.172,0.143-0.264,0.201c-0.092,0.059-0.187,0.111-0.283,0.157s-0.197,0.084-0.299,0.116
	c-0.103,0.032-0.208,0.056-0.318,0.072c-0.109,0.016-0.223,0.025-0.34,0.025c-0.176,0-0.346-0.017-0.509-0.051
	s-0.319-0.085-0.468-0.154c-0.149-0.069-0.29-0.156-0.424-0.261c-0.134-0.105-0.259-0.229-0.377-0.372
	c-0.126-0.126-0.235-0.27-0.327-0.432c-0.093-0.162-0.169-0.341-0.23-0.536c-0.061-0.195-0.106-0.406-0.136-0.63
	S43.844,80.157,43.844,79.905z M45.152,80.006c0,0.151,0.006,0.291,0.019,0.422s0.033,0.253,0.06,0.366
	c0.027,0.113,0.062,0.218,0.104,0.315s0.093,0.188,0.151,0.271c0.059,0.075,0.119,0.143,0.183,0.201s0.129,0.107,0.198,0.147
	c0.069,0.04,0.141,0.07,0.217,0.09c0.076,0.02,0.156,0.031,0.24,0.031s0.163-0.01,0.239-0.031c0.076-0.02,0.148-0.051,0.217-0.09
	c0.069-0.04,0.135-0.089,0.199-0.147s0.124-0.125,0.183-0.201c0.059-0.075,0.109-0.161,0.151-0.257
	c0.042-0.096,0.077-0.202,0.104-0.317c0.027-0.115,0.047-0.24,0.06-0.374c0.013-0.134,0.019-0.276,0.019-0.427
	c0-0.143-0.006-0.279-0.019-0.408s-0.033-0.25-0.06-0.364c-0.027-0.113-0.062-0.218-0.104-0.313
	c-0.042-0.095-0.093-0.181-0.151-0.257s-0.119-0.143-0.183-0.201c-0.063-0.058-0.129-0.107-0.198-0.147
	c-0.069-0.04-0.141-0.07-0.217-0.091c-0.076-0.02-0.156-0.031-0.239-0.031s-0.163,0.01-0.239,0.031
	c-0.076,0.02-0.148,0.051-0.218,0.091c-0.069,0.04-0.135,0.089-0.199,0.147c-0.063,0.058-0.124,0.125-0.183,0.201
	c-0.05,0.067-0.096,0.147-0.137,0.238s-0.076,0.194-0.106,0.307c-0.029,0.113-0.052,0.237-0.068,0.37
	C45.16,79.712,45.152,79.855,45.152,80.006L45.152,80.006L45.152,80.006L45.152,80.006L45.152,80.006z"/>
<path id="path8221" style="fill:#003366;" d="M50.282,82.957l-0.386-1.475l-0.386-1.475l-0.386-1.475l-0.386-1.475h0.31h0.31h0.31
	h0.31l0.226,0.972L50.433,79l0.226,0.972l0.226,0.972l0.21-0.972L51.305,79l0.21-0.972l0.21-0.972h0.31h0.31h0.31h0.31l0.201,0.972
	L53.367,79l0.201,0.972l0.201,0.972l0.235-0.972L54.239,79l0.235-0.972l0.235-0.972h0.319h0.319h0.319h0.319l-0.386,1.475
	l-0.386,1.475l-0.386,1.475l-0.386,1.475h-0.319h-0.319h-0.319h-0.319l-0.21-0.947l-0.21-0.947l-0.21-0.947l-0.21-0.947l-0.21,0.947
	l-0.21,0.947l-0.21,0.947l-0.21,0.947h-0.302h-0.302h-0.302H50.282L50.282,82.957L50.282,82.957L50.282,82.957L50.282,82.957z"/>
<path id="path8223" style="fill:#003366;" d="M58.933,81.079l0.319,0.067l0.319,0.067l0.319,0.067l0.319,0.067
	c-0.042,0.151-0.09,0.291-0.145,0.422c-0.054,0.13-0.115,0.251-0.182,0.362c-0.067,0.111-0.14,0.213-0.22,0.305
	s-0.166,0.177-0.258,0.252c-0.092,0.075-0.189,0.14-0.289,0.195c-0.101,0.055-0.205,0.1-0.314,0.136
	c-0.109,0.036-0.222,0.062-0.34,0.079c-0.117,0.017-0.239,0.026-0.365,0.026c-0.176,0-0.344-0.015-0.502-0.044
	c-0.158-0.029-0.307-0.073-0.445-0.132c-0.138-0.059-0.266-0.132-0.382-0.22c-0.116-0.088-0.221-0.191-0.313-0.308
	c-0.117-0.143-0.22-0.298-0.308-0.466c-0.088-0.168-0.161-0.349-0.22-0.544c-0.059-0.195-0.103-0.404-0.132-0.626
	c-0.029-0.223-0.044-0.46-0.044-0.711c0-0.243,0.015-0.476,0.044-0.697c0.029-0.222,0.073-0.432,0.132-0.631
	c0.059-0.199,0.132-0.387,0.22-0.562c0.088-0.175,0.191-0.339,0.308-0.49c0.101-0.126,0.207-0.235,0.321-0.327
	s0.233-0.169,0.358-0.23c0.126-0.061,0.258-0.106,0.396-0.136c0.138-0.03,0.283-0.045,0.434-0.045c0.176,0,0.342,0.017,0.497,0.05
	c0.156,0.033,0.301,0.082,0.437,0.147c0.136,0.065,0.263,0.146,0.381,0.241s0.227,0.207,0.328,0.333
	c0.117,0.143,0.218,0.304,0.303,0.484c0.085,0.18,0.154,0.378,0.209,0.594c0.054,0.216,0.094,0.449,0.121,0.7
	c0.026,0.251,0.039,0.519,0.039,0.804v0.042v0.042v0.042v0.042H59.47h-0.805H57.86h-0.805c0,0.117,0.006,0.228,0.019,0.333
	c0.013,0.104,0.031,0.202,0.057,0.292c0.025,0.09,0.057,0.173,0.094,0.248s0.082,0.142,0.132,0.201
	c0.05,0.067,0.103,0.124,0.158,0.171c0.055,0.047,0.113,0.085,0.174,0.114c0.061,0.029,0.125,0.05,0.192,0.064
	c0.068,0.014,0.139,0.02,0.214,0.02c0.109,0,0.207-0.017,0.296-0.051c0.089-0.034,0.167-0.085,0.236-0.154
	c0.069-0.069,0.129-0.156,0.18-0.262C58.858,81.345,58.9,81.221,58.933,81.079L58.933,81.079L58.933,81.079L58.933,81.079
	L58.933,81.079z M59,79.503c0-0.117-0.006-0.226-0.019-0.327c-0.013-0.101-0.031-0.194-0.057-0.28
	c-0.025-0.086-0.057-0.165-0.094-0.236c-0.038-0.072-0.082-0.137-0.132-0.195c-0.05-0.059-0.101-0.109-0.152-0.151
	c-0.051-0.042-0.104-0.077-0.158-0.104c-0.054-0.027-0.111-0.047-0.171-0.06c-0.06-0.013-0.123-0.019-0.19-0.019
	c-0.067,0-0.132,0.008-0.194,0.025c-0.062,0.016-0.122,0.04-0.179,0.072c-0.056,0.032-0.11,0.07-0.16,0.116
	c-0.05,0.046-0.096,0.098-0.138,0.157c-0.05,0.059-0.092,0.124-0.127,0.195c-0.035,0.072-0.062,0.15-0.083,0.236
	c-0.021,0.086-0.036,0.179-0.045,0.28c-0.009,0.101-0.014,0.21-0.014,0.327h0.478h0.478h0.478H59v-0.008V79.52c0,0,0-0.004,0-0.008
	C59,79.507,59,79.503,59,79.503z"/>
<path id="path8225" style="fill:#003366;" d="M62.052,82.957h-0.319h-0.319h-0.319h-0.319v-1.475v-1.475V78.53v-1.475h0.302h0.302
	h0.302h0.302v0.21v0.21v0.21v0.21c0.05-0.101,0.101-0.191,0.15-0.271c0.049-0.081,0.097-0.152,0.144-0.215
	c0.046-0.063,0.09-0.117,0.131-0.165c0.041-0.047,0.079-0.087,0.112-0.121c0.042-0.034,0.084-0.063,0.127-0.088
	s0.087-0.046,0.133-0.063c0.046-0.017,0.094-0.029,0.146-0.038c0.051-0.008,0.106-0.013,0.165-0.013
	c0.075,0,0.149,0.006,0.221,0.019c0.072,0.013,0.142,0.031,0.211,0.057c0.069,0.025,0.137,0.057,0.205,0.094
	c0.068,0.038,0.135,0.082,0.202,0.132l-0.101,0.344l-0.101,0.344l-0.101,0.344l-0.101,0.344c-0.05-0.042-0.101-0.08-0.151-0.113
	s-0.101-0.061-0.151-0.084c-0.05-0.023-0.101-0.041-0.151-0.053c-0.05-0.012-0.101-0.018-0.151-0.018
	c-0.042,0-0.084,0.004-0.125,0.013c-0.041,0.008-0.082,0.021-0.122,0.038c-0.04,0.017-0.078,0.038-0.116,0.063
	c-0.037,0.025-0.073,0.054-0.106,0.088c-0.034,0.034-0.065,0.073-0.094,0.119s-0.057,0.098-0.082,0.157
	c-0.025,0.059-0.048,0.124-0.069,0.195c-0.021,0.071-0.04,0.149-0.057,0.232c-0.017,0.084-0.031,0.187-0.044,0.308
	c-0.013,0.122-0.023,0.262-0.031,0.421c-0.008,0.159-0.015,0.337-0.019,0.534c-0.004,0.197-0.006,0.413-0.006,0.648
	c0,0,0,0.113,0,0.283s0,0.396,0,0.622c0,0.226,0,0.453,0,0.622C62.052,82.843,62.052,82.957,62.052,82.957z"/>
<g id="g6509" inkscape:groupmode="layer" inkscape:label="energy-power-fuel_power" style="display:none;">
	
		<path id="rect6712" inkscape:connector-curvature="0" inkscape:export-filename="C:\Users\Charlotte Abel\Documents\Symbology\Components\For Distribution\energy-power-fuel_power-gray.png" inkscape:export-xdpi="300.00461" inkscape:export-ydpi="300.00461" style="display:inline;fill:#003366;" d="
		M41.5,29.5c-0.2,0-0.394,0.044-0.572,0.122s-0.341,0.191-0.478,0.328s-0.25,0.3-0.328,0.478S40,30.8,40,31v3.5V38v3.5V45h-1.825
		H36.35h-1.825H32.7c-0.275,0-0.537,0.056-0.777,0.158c-0.239,0.102-0.455,0.249-0.636,0.43c-0.181,0.181-0.328,0.396-0.429,0.635
		C30.756,46.463,30.7,46.725,30.7,47v0.725v0.725v0.725V49.9c0,0.275,0.056,0.537,0.158,0.777c0.102,0.239,0.248,0.454,0.429,0.635
		c0.181,0.181,0.397,0.328,0.636,0.43c0.239,0.102,0.502,0.158,0.777,0.158h0.575h0.575h0.575H35v2.925v2.925v2.925V63.6
		c0,1.15,0.219,2.244,0.614,3.238c0.395,0.994,0.967,1.887,1.673,2.637c0.707,0.75,1.547,1.356,2.48,1.775
		c0.933,0.419,1.958,0.65,3.033,0.65h1h1h1h1v2.525v2.525v2.525V82h2.15h2.15h2.15h2.15v-2.525V76.95v-2.525V71.9h1h1h1h1
		c1.075,0,2.1-0.231,3.033-0.65c0.933-0.419,1.774-1.025,2.48-1.775c0.706-0.75,1.278-1.644,1.673-2.637S67.2,64.75,67.2,63.6
		v-2.925V57.75v-2.925V51.9h0.6h0.6H69h0.6c0.275,0,0.538-0.056,0.777-0.158c0.239-0.102,0.454-0.249,0.635-0.43
		c0.182-0.181,0.329-0.396,0.43-0.635c0.102-0.239,0.158-0.501,0.158-0.777v-0.725V48.45v-0.725V47c0-0.275-0.056-0.537-0.158-0.777
		c-0.102-0.239-0.249-0.454-0.43-0.635c-0.181-0.181-0.396-0.329-0.635-0.43C70.137,45.056,69.875,45,69.6,45h-1.825H65.95h-1.825
		H62.3v-3.5V38v-3.5V31c0-0.2-0.044-0.394-0.122-0.572s-0.191-0.341-0.328-0.478c-0.138-0.137-0.3-0.25-0.478-0.328
		C61.194,29.544,61,29.5,60.8,29.5h-0.325H60.15h-0.325H59.5c-0.2,0-0.394,0.044-0.572,0.122s-0.341,0.191-0.478,0.328
		s-0.25,0.3-0.328,0.478S58,30.8,58,31v3.5V38v3.5V45h-3.45H51.1h-3.45H44.2v-3.5V38v-3.5V31c0-0.2-0.044-0.394-0.122-0.572
		s-0.191-0.341-0.328-0.478c-0.138-0.137-0.3-0.25-0.478-0.328S42.9,29.5,42.7,29.5h-0.3h-0.3h-0.3H41.5z"/>
	
		<path id="path2164-2" inkscape:connector-curvature="0" inkscape:export-filename="C:\Users\Charlotte Abel\Documents\Symbology\Components\For Distribution\energy-power-fuel_power-gray.png" inkscape:export-xdpi="300.00461" inkscape:export-ydpi="300.00461" style="display:inline;fill:#FFFFFF;" d="
		M54.7,49.1l-0.725,2.1l-0.725,2.1l-0.725,2.1L51.8,57.5l1.225,0.025l1.225,0.025l1.225,0.025L56.7,57.6l-2.35,2.85L52,63.3
		l-2.35,2.85L47.3,69l0.775-2.175l0.775-2.175l0.775-2.175L50.4,60.3c-0.4,0-0.8-0.006-1.2-0.016c-0.4-0.009-0.8-0.022-1.2-0.034
		c-0.4-0.013-0.8-0.025-1.2-0.034C46.4,60.206,46,60.2,45.6,60.2c0.825-0.9,1.6-1.806,2.35-2.719c0.75-0.912,1.475-1.831,2.2-2.756
		c0.725-0.925,1.45-1.856,2.2-2.794S53.875,50.05,54.7,49.1L54.7,49.1L54.7,49.1L54.7,49.1L54.7,49.1z"/>
</g>
</svg>
