<?xml version="1.0" encoding="iso-8859-1"?>
<!-- Generator: Adobe Illustrator 25.4.1, SVG Export Plug-In . SVG Version: 6.00 Build 0)  -->
<svg version="1.1"
	 id="svg8" inkscape:export-filename="C:\Users\Charlotte Abel\Documents\Symbology\Components\For Distribution\communications_alerts-warnings-messages.png" inkscape:export-xdpi="300.00464" inkscape:export-ydpi="300.00464" inkscape:version="0.91 r13725" sodipodi:docname="energy-power-fuel_fuel-with-label-clr_256x256.svg" xmlns:cc="http://creativecommons.org/ns#" xmlns:dc="http://purl.org/dc/elements/1.1/" xmlns:inkscape="http://www.inkscape.org/namespaces/inkscape" xmlns:rdf="http://www.w3.org/1999/02/22-rdf-syntax-ns#" xmlns:sodipodi="http://sodipodi.sourceforge.net/DTD/sodipodi-0.dtd" xmlns:svg="http://www.w3.org/2000/svg"
	 xmlns="http://www.w3.org/2000/svg" xmlns:xlink="http://www.w3.org/1999/xlink" x="0px" y="0px" viewBox="0 0 100 100"
	 style="enable-background:new 0 0 100 100;" xml:space="preserve">
<sodipodi:namedview  bordercolor="#666666" borderopacity="1.0" id="base" inkscape:current-layer="g8711" inkscape:cx="-302.11164" inkscape:cy="84.283015" inkscape:document-units="px" inkscape:guide-bbox="true" inkscape:lockguides="true" inkscape:pageopacity="0.0" inkscape:pageshadow="2" inkscape:window-height="657" inkscape:window-maximized="1" inkscape:window-width="1280" inkscape:window-x="-8" inkscape:window-y="-8" inkscape:zoom="0.765625" pagecolor="#ffffff" showgrid="false" showguides="false" units="px">
	<sodipodi:guide  id="guide5700" inkscape:locked="true" orientation="0,1" position="-0.93017576,23.874511"></sodipodi:guide>
	<sodipodi:guide  id="guide5726" inkscape:locked="true" orientation="0,1" position="-26.098869,26.473047"></sodipodi:guide>
	<sodipodi:guide  id="guide5880" inkscape:locked="true" orientation="0,1" position="104.51042,-2.9104167"></sodipodi:guide>
	<sodipodi:guide  id="guide6001" inkscape:locked="true" orientation="0,1" position="-71.093695,29.279377"></sodipodi:guide>
	<sodipodi:guide  id="guide6005" inkscape:locked="true" orientation="0,1" position="-46.304445,58.278122"></sodipodi:guide>
	<sodipodi:guide  id="guide6736" inkscape:locked="true" orientation="0,1" position="-0.10335287,20.205485"></sodipodi:guide>
	<sodipodi:guide  id="guide6738" inkscape:locked="true" orientation="0,1" position="-0.43848907,22.874513"></sodipodi:guide>
	<inkscape:grid  id="grid2386" type="xygrid"></inkscape:grid>
</sodipodi:namedview>
<path id="path8705" inkscape:connector-curvature="0" inkscape:export-filename="C:\Users\Charlotte Abel\Documents\Symbology\Components\For Distribution\energy-power-fuel_fuel-gray.png" inkscape:export-xdpi="300.00461" inkscape:export-ydpi="300.00461" style="fill:#003366;" d="
	M65.493,17.053c-0.19,0-0.375,0.037-0.547,0.106s-0.33,0.169-0.467,0.296c-0.137,0.127-0.253,0.28-0.341,0.454
	c-0.087,0.174-0.145,0.37-0.166,0.581c0,0.063,0.005,0.132,0.016,0.203c0.011,0.071,0.026,0.145,0.048,0.219
	s0.048,0.148,0.079,0.219c0.032,0.071,0.069,0.14,0.111,0.203l0.634,0.993l0.634,0.993l0.634,0.993l0.634,0.993h-0.486H65.79h-0.486
	h-0.486c-0.232,0-0.459,0.048-0.669,0.135s-0.403,0.214-0.567,0.372c-0.163,0.158-0.298,0.349-0.392,0.562
	c-0.094,0.214-0.146,0.451-0.146,0.705v1.669v1.669v1.669v1.669c0,0.232,0.048,0.459,0.135,0.669
	c0.087,0.21,0.214,0.402,0.372,0.566c0.158,0.163,0.349,0.298,0.562,0.392s0.451,0.147,0.705,0.147h0.95h0.95h0.95h0.95
	c0.021,0,0.042,0,0.062,0s0.038,0,0.054,0s0.029,0,0.038,0s0.014,0,0.014,0v0.887v0.887v0.887v0.887v1.373v1.373v1.373v1.373v0.676
	v0.676v0.676v0.676v0.993v0.993v0.993v0.993v0.106v0.106v0.106v0.106l0,0l0,0l0,0l0,0v0.591v0.591v0.591v0.591v0.908v0.908v0.908
	v0.908c0,0.127-0.026,0.243-0.073,0.346c-0.046,0.103-0.112,0.193-0.191,0.267s-0.171,0.132-0.27,0.172s-0.205,0.061-0.31,0.061
	c-0.127,0-0.243-0.026-0.346-0.073c-0.103-0.046-0.193-0.112-0.267-0.191c-0.074-0.079-0.132-0.172-0.172-0.271
	c-0.04-0.099-0.061-0.205-0.061-0.31v-0.908v-0.908v-0.908v-0.908v-2.028v-2.028v-2.028V43.92v-0.908v-0.908v-0.908v-0.908
	c0-0.19-0.042-0.375-0.118-0.545c-0.075-0.17-0.184-0.326-0.316-0.458s-0.288-0.24-0.458-0.315s-0.355-0.117-0.545-0.117H64.67
	h-0.993h-0.993h-0.993H61.48h-0.211h-0.211h-0.211l0,0l0,0l0,0l0,0v-4.457v-4.457V25.48v-4.457c0-0.507-0.1-0.993-0.284-1.436
	c-0.184-0.444-0.45-0.845-0.783-1.183c-0.332-0.338-0.731-0.613-1.179-0.803c-0.447-0.19-0.944-0.296-1.472-0.296h-5.471h-5.471
	h-5.471h-5.471c-0.507,0-0.993,0.1-1.436,0.284s-0.845,0.45-1.183,0.782c-0.338,0.333-0.613,0.732-0.803,1.179
	c-0.19,0.448-0.296,0.944-0.296,1.472v9.104v9.104v9.104v9.104h-0.19h-0.19h-0.19h-0.19c-0.106,0-0.211,0.021-0.31,0.061
	c-0.099,0.04-0.192,0.098-0.271,0.172s-0.145,0.164-0.191,0.267s-0.073,0.219-0.073,0.346v0.929v0.929v0.929V62
	c0,0.106,0.021,0.211,0.061,0.31c0.04,0.099,0.098,0.192,0.172,0.271c0.074,0.079,0.164,0.145,0.267,0.191s0.219,0.072,0.346,0.072
	h1.098h1.098h1.098h1.098h5.471h5.471h5.471h5.471h1.098h1.098h1.098h1.098c0.106,0,0.211-0.021,0.31-0.061
	c0.099-0.04,0.192-0.098,0.271-0.172s0.145-0.164,0.191-0.267c0.046-0.103,0.072-0.219,0.072-0.346v-0.929V60.14v-0.929v-0.929
	c0-0.106-0.021-0.211-0.061-0.31c-0.04-0.099-0.098-0.192-0.172-0.271s-0.164-0.145-0.267-0.191
	c-0.103-0.046-0.219-0.072-0.346-0.072h-0.042H61.35h-0.042h-0.042h-0.127h-0.127h-0.127h-0.127V53.53v-3.908v-3.908v-3.908h0.211
	h0.211h0.211h0.211h0.634h0.634h0.634h0.634v1.985v1.985v1.985v1.985v1.457v1.457v1.457v1.457c0,0.021,0,0.042,0,0.065
	c0,0.022,0,0.046,0,0.072c0,0.026,0,0.055,0,0.088s0,0.07,0,0.113c0,0.528,0.106,1.03,0.297,1.485
	c0.191,0.455,0.468,0.865,0.812,1.208s0.752,0.621,1.208,0.812s0.957,0.297,1.486,0.297s1.03-0.106,1.485-0.297
	s0.865-0.468,1.208-0.812c0.343-0.343,0.621-0.752,0.812-1.208c0.191-0.456,0.297-0.957,0.297-1.486c0-0.021,0-0.042,0-0.065
	s0-0.046,0-0.072c0-0.026,0-0.055,0-0.089s0-0.07,0-0.113v-1.436V52.7v-1.43v-1.436v-0.296v-0.296v-0.296V48.65v-1.5v-1.5v-1.5v-1.5
	v-1.394v-1.394v-1.394v-1.394v-1.88v-1.88v-1.88v-1.88v-0.19v-0.19v-0.19v-0.19v-0.613v-0.613v-0.613v-0.613
	c0-0.063-0.005-0.127-0.016-0.19s-0.026-0.127-0.048-0.19c-0.021-0.063-0.048-0.127-0.079-0.19c-0.032-0.063-0.069-0.127-0.111-0.19
	l-1.204-1.922l-1.204-1.922L67.88,19.82l-1.204-1.922c-0.063-0.127-0.137-0.238-0.221-0.334c-0.083-0.096-0.176-0.178-0.276-0.246
	c-0.1-0.069-0.208-0.124-0.323-0.168C65.742,17.106,65.62,17.074,65.493,17.053L65.493,17.053L65.493,17.053L65.493,17.053
	L65.493,17.053z"/>
<path id="path8707" inkscape:connector-curvature="0" inkscape:export-filename="C:\Users\Charlotte Abel\Documents\Symbology\Components\For Distribution\energy-power-fuel_fuel-gray.png" inkscape:export-xdpi="300.00461" inkscape:export-ydpi="300.00461" style="fill:#FFFFFF;" d="
	M37.866,21.869h4.161h4.161h4.161h4.161c0.253,0,0.496,0.048,0.718,0.133c0.222,0.086,0.422,0.21,0.591,0.363
	c0.169,0.153,0.306,0.336,0.401,0.538s0.148,0.424,0.148,0.656v2.049v2.049v2.049v2.049c0,0.232-0.053,0.454-0.148,0.656
	c-0.095,0.202-0.232,0.384-0.401,0.537c-0.169,0.153-0.37,0.278-0.591,0.363c-0.222,0.086-0.465,0.133-0.718,0.133h-4.161h-4.161
	h-4.161h-4.161c-0.253,0-0.496-0.048-0.718-0.133c-0.222-0.086-0.422-0.21-0.591-0.363s-0.306-0.335-0.401-0.537
	s-0.148-0.424-0.148-0.656v-2.049v-2.049v-2.049v-2.049c0-0.232,0.053-0.454,0.148-0.656c0.095-0.202,0.232-0.384,0.401-0.538
	c0.169-0.153,0.37-0.277,0.591-0.363C37.369,21.916,37.612,21.869,37.866,21.869z"/>
<path id="path8709" inkscape:connector-curvature="0" inkscape:export-filename="C:\Users\Charlotte Abel\Documents\Symbology\Components\For Distribution\energy-power-fuel_fuel-gray.png" inkscape:export-xdpi="300.00461" inkscape:export-ydpi="300.00461" style="fill:#FFFFFF;" d="
	M46.23,39.104c0.021,0,0.195,0.243,0.457,0.626c0.261,0.383,0.61,0.906,0.98,1.465c0.37,0.56,0.76,1.156,1.106,1.687
	c0.346,0.531,0.647,0.995,0.837,1.291c0.57,0.95,1.024,1.822,1.368,2.63c0.343,0.808,0.576,1.552,0.702,2.249
	c0.127,0.697,0.148,1.347,0.069,1.964c-0.079,0.618-0.259,1.204-0.533,1.774c-0.169,0.338-0.38,0.66-0.626,0.958
	s-0.525,0.573-0.832,0.816c-0.306,0.243-0.639,0.454-0.99,0.626s-0.721,0.304-1.101,0.388c-0.148,0.042-0.338,0.074-0.549,0.096
	s-0.444,0.035-0.676,0.041s-0.465,0.002-0.676-0.007s-0.401-0.025-0.549-0.046c-0.444-0.084-0.861-0.211-1.249-0.378
	c-0.388-0.166-0.747-0.372-1.075-0.615s-0.623-0.523-0.884-0.837c-0.261-0.314-0.488-0.663-0.679-1.043
	c-0.296-0.57-0.486-1.156-0.569-1.774s-0.06-1.267,0.072-1.964c0.132-0.697,0.372-1.442,0.722-2.249
	c0.35-0.808,0.81-1.679,1.38-2.63c0.148-0.317,0.422-0.792,0.752-1.327c0.33-0.535,0.716-1.129,1.085-1.683s0.723-1.069,0.99-1.446
	C46.029,39.342,46.209,39.104,46.23,39.104L46.23,39.104L46.23,39.104L46.23,39.104L46.23,39.104z"/>
<path id="path7526" style="fill:#003366;" d="M42.064,82.755v-2.196v-2.196v-2.196V73.97h1.232h1.232h1.232h1.232v0.369v0.369v0.369
	v0.369H46.12h-0.87h-0.872h-0.872v0.52v0.52v0.52v0.52h0.754h0.754h0.754h0.754v0.369v0.369v0.369V79H45.77h-0.754h-0.754h-0.754
	v0.93v0.93v0.93v0.93l-0.36,0.008l-0.36,0.008l-0.36,0.008L42.064,82.755L42.064,82.755L42.064,82.755L42.064,82.755L42.064,82.755z
	"/>
<path id="path7528" style="fill:#003366;" d="M51.084,82.755V82.52v-0.235V82.05v-0.235c-0.05,0.084-0.103,0.163-0.158,0.239
	c-0.056,0.075-0.114,0.147-0.177,0.214s-0.13,0.13-0.202,0.189c-0.072,0.059-0.15,0.113-0.234,0.163
	c-0.075,0.05-0.153,0.094-0.232,0.132s-0.16,0.069-0.241,0.094c-0.082,0.025-0.165,0.044-0.248,0.057s-0.167,0.019-0.251,0.019
	s-0.166-0.006-0.246-0.018s-0.159-0.03-0.236-0.053s-0.154-0.051-0.23-0.084s-0.152-0.071-0.227-0.113
	c-0.067-0.042-0.13-0.09-0.189-0.144s-0.113-0.114-0.163-0.179s-0.096-0.135-0.138-0.21s-0.08-0.155-0.113-0.238
	c-0.034-0.084-0.063-0.176-0.088-0.277s-0.046-0.211-0.063-0.33s-0.029-0.248-0.038-0.387s-0.013-0.288-0.013-0.447v-1.006V78.43
	v-1.006v-1.006h0.344h0.344h0.344h0.344v0.729v0.729v0.729v0.729c0,0.21,0.002,0.4,0.006,0.572s0.009,0.325,0.015,0.459
	s0.014,0.249,0.022,0.346c0.008,0.096,0.016,0.174,0.024,0.233s0.021,0.113,0.037,0.164s0.036,0.098,0.059,0.142
	s0.049,0.085,0.078,0.123s0.06,0.074,0.094,0.107s0.069,0.063,0.107,0.088c0.038,0.025,0.079,0.046,0.123,0.063
	s0.091,0.029,0.142,0.038c0.051,0.008,0.105,0.013,0.164,0.013c0.059,0,0.115-0.004,0.17-0.013c0.055-0.009,0.108-0.023,0.161-0.042
	c0.052-0.019,0.104-0.043,0.154-0.073c0.051-0.03,0.101-0.066,0.151-0.108s0.096-0.086,0.138-0.133s0.078-0.096,0.11-0.148
	s0.058-0.108,0.078-0.167s0.035-0.122,0.044-0.189c0.017-0.067,0.031-0.151,0.044-0.253s0.023-0.221,0.031-0.359
	s0.015-0.295,0.019-0.473c0.004-0.177,0.006-0.374,0.006-0.592v-0.671V77.79v-0.671v-0.671h0.344h0.344h0.344h0.344v1.593v1.593
	v1.593v1.593h-0.31h-0.31h-0.31h-0.31v-0.017V82.79c0,0,0-0.009,0-0.017C51.084,82.764,51.084,82.755,51.084,82.755z"/>
<path id="path7530" style="fill:#003366;" d="M56.282,80.743l0.344,0.067l0.344,0.067l0.344,0.067l0.344,0.067
	c-0.042,0.159-0.092,0.308-0.15,0.447c-0.058,0.139-0.124,0.268-0.198,0.387c-0.073,0.119-0.154,0.229-0.242,0.331
	c-0.087,0.101-0.182,0.193-0.282,0.277c-0.101,0.075-0.205,0.143-0.314,0.201s-0.222,0.107-0.34,0.147
	c-0.117,0.04-0.239,0.07-0.365,0.09c-0.126,0.02-0.256,0.031-0.39,0.031c-0.193,0-0.375-0.017-0.546-0.05
	c-0.171-0.033-0.332-0.082-0.48-0.147c-0.149-0.065-0.286-0.146-0.411-0.241c-0.125-0.096-0.238-0.207-0.339-0.333
	c-0.126-0.151-0.235-0.316-0.327-0.497c-0.093-0.18-0.169-0.375-0.23-0.585s-0.106-0.434-0.136-0.673s-0.045-0.493-0.045-0.761
	s0.015-0.522,0.045-0.761s0.075-0.465,0.136-0.676c0.061-0.212,0.137-0.41,0.23-0.595s0.202-0.357,0.327-0.516
	c0.109-0.134,0.224-0.251,0.346-0.352s0.251-0.184,0.387-0.251s0.28-0.117,0.431-0.151s0.311-0.05,0.478-0.05
	c0.184,0,0.36,0.017,0.527,0.051c0.167,0.034,0.324,0.085,0.47,0.155s0.283,0.156,0.408,0.262c0.125,0.105,0.238,0.229,0.338,0.371
	c0.126,0.159,0.235,0.337,0.327,0.534c0.093,0.196,0.169,0.411,0.23,0.644c0.061,0.233,0.106,0.483,0.136,0.751
	c0.03,0.268,0.045,0.553,0.045,0.854v0.05v0.05v0.05v0.05H56.86h-0.863h-0.863h-0.863c0,0.126,0.008,0.245,0.024,0.358
	s0.039,0.219,0.068,0.317s0.065,0.19,0.106,0.273s0.087,0.159,0.137,0.226c0.059,0.067,0.117,0.126,0.178,0.176
	c0.06,0.05,0.122,0.092,0.187,0.126s0.133,0.059,0.206,0.075s0.15,0.025,0.234,0.025c0.109-0.008,0.21-0.034,0.301-0.076
	c0.092-0.042,0.175-0.102,0.248-0.18c0.073-0.077,0.137-0.173,0.192-0.286S56.248,80.894,56.282,80.743L56.282,80.743L56.282,80.743
	L56.282,80.743L56.282,80.743z M56.349,79.033c0-0.126-0.008-0.243-0.024-0.352c-0.015-0.109-0.037-0.21-0.064-0.302
	s-0.06-0.176-0.096-0.251s-0.076-0.143-0.118-0.201c-0.05-0.067-0.103-0.124-0.157-0.171s-0.111-0.085-0.17-0.114
	s-0.119-0.05-0.182-0.064s-0.128-0.02-0.195-0.02c-0.075,0-0.147,0.008-0.214,0.025c-0.068,0.017-0.131,0.042-0.192,0.075
	s-0.118,0.075-0.173,0.126c-0.055,0.05-0.108,0.109-0.158,0.176s-0.094,0.14-0.132,0.22s-0.069,0.166-0.094,0.258
	s-0.044,0.191-0.057,0.295c-0.013,0.105-0.019,0.216-0.019,0.333h0.511h0.511h0.511h0.511v-0.008V79.05v-0.008L56.349,79.033
	L56.349,79.033L56.349,79.033z"/>
<path id="path7532" style="fill:#003366;" d="M58.327,82.755v-2.196v-2.196v-2.196V73.97h0.344h0.344h0.344h0.344v2.196v2.196v2.196
	v2.196h-0.344h-0.344h-0.344L58.327,82.755L58.327,82.755z"/>
</svg>
