<svg xmlns="http://www.w3.org/2000/svg" viewBox="0 0 100 100"><path d="M27.48,71.55c.23-.59.36-1,.57-1.45,2.77-5.43,5.46-10.9,8.36-16.27,2.23-4.14,4.52-8.28,8.59-11a3.39,3.39,0,0,0,.9-2.21c.35-3.17.59-6.36.84-9.55.13-1.66.22-3,2.12-3.42a4.77,4.77,0,0,0,3.7-3.74,57,57,0,0,1,1.8-6.39c.4-1,1.28-3.18,2.27-3.18.72,0,1.72,2.12,1.83,3.42a66,66,0,0,1,.29,7,2.29,2.29,0,0,1-1.09,1.8c-1.81.5-2,1.89-2.35,3.33-.26,1.29-.44,2.61-.78,3.88a2.2,2.2,0,0,1-2.47,1.72c-1,0-2.59.27-2.77.8-.57,1.69-.86,4,.92,5,5.72,3.2,8.44,8.88,12,13.84,3.21,4.45,6.44,8.87,9.63,13.33.34.47.79,1.36.6,1.6a2.53,2.53,0,0,1-1.74.81c-5.13.28-10.27.61-15.4.69-8.62.15-17.24.14-25.85.19C28.88,71.69,28.28,71.6,27.48,71.55Z"/></svg>