<?xml version="1.0" encoding="iso-8859-1"?>
<!-- Generator: Adobe Illustrator 25.4.1, SVG Export Plug-In . SVG Version: 6.00 Build 0)  -->
<svg version="1.1" id="Layer_1" xmlns="http://www.w3.org/2000/svg" xmlns:xlink="http://www.w3.org/1999/xlink" x="0px" y="0px"
	 viewBox="0 0 100 100" style="enable-background:new 0 0 100 100;" xml:space="preserve">
<polygon points="48.77,27.73 46.232,29.993 43.695,32.255 41.158,34.518 38.62,36.78 38.62,41.715 38.62,46.65 38.62,51.585 
	38.62,56.52 41.158,56.52 43.695,56.52 46.232,56.52 48.77,56.52 48.005,53.787 47.24,51.055 46.475,48.323 45.71,45.59 
	46.658,44.025 47.605,42.46 48.552,40.895 49.5,39.33 49.052,38.007 48.605,36.685 48.158,35.363 47.71,34.04 47.975,32.463 
	48.24,30.885 48.505,29.307 "/>
<polygon points="52.73,29.46 54.73,31.305 56.73,33.15 58.73,34.995 60.73,36.84 60.73,41.76 60.73,46.68 60.73,51.6 60.73,56.52 
	58.57,56.52 56.41,56.52 54.25,56.52 52.09,56.52 51.253,53.838 50.415,51.155 49.577,48.472 48.74,45.79 49.618,44.222 
	50.495,42.655 51.372,41.088 52.25,39.52 51.872,38.21 51.495,36.9 51.118,35.59 50.74,34.28 51.238,33.075 51.735,31.87 
	52.232,30.665 "/>
<polygon points="11.71,56.52 30.855,56.52 50,56.52 69.145,56.52 88.29,56.52 78.717,66.435 69.145,76.35 59.572,86.265 50,96.18 
	40.427,86.265 30.855,76.35 21.282,66.435 "/>
<polygon style="fill:#FFFFFF;" points="56.01,62.48 56.01,62.478 56.01,62.475 56.01,62.472 56.01,62.47 56.01,62.47 56.01,62.47 
	56.01,62.47 56.01,62.47 55.36,60.982 54.71,59.495 54.06,58.007 53.41,56.52 51.533,56.52 49.655,56.52 47.778,56.52 45.9,56.52 
	46.583,58.347 47.265,60.175 47.948,62.003 48.63,63.83 46.97,66.068 45.31,68.305 43.65,70.542 41.99,72.78 44.217,74.533 
	46.445,76.285 48.673,78.038 50.9,79.79 50.8,81.11 50.7,82.43 50.6,83.75 50.5,85.07 51.56,83.447 52.62,81.825 53.68,80.202 
	54.74,78.58 53.503,76.893 52.265,75.205 51.028,73.518 49.79,71.83 51.345,69.493 52.9,67.155 54.455,64.817 56.01,62.48 
	56.01,62.48 "/>
<path d="M35.13,45.83c-0.084,0-0.167-0.013-0.244-0.038c-0.077-0.025-0.15-0.062-0.215-0.11c-0.065-0.048-0.123-0.105-0.17-0.171
	c-0.048-0.066-0.085-0.14-0.111-0.221c-0.198-0.674-0.376-1.354-0.533-2.038s-0.294-1.373-0.41-2.065
	c-0.116-0.693-0.211-1.388-0.286-2.086C33.087,38.403,33.033,37.702,33,37c0-1.035,0.213-2.076,0.535-3.059s0.752-1.906,1.187-2.706
	c0.435-0.8,0.874-1.476,1.214-1.964c0.339-0.487,0.578-0.786,0.613-0.831c0.068-0.08,0.149-0.144,0.237-0.19
	c0.088-0.046,0.184-0.074,0.281-0.084s0.197-0.002,0.292,0.025c0.095,0.027,0.187,0.073,0.27,0.139
	c0.082,0.066,0.147,0.145,0.194,0.231c0.047,0.087,0.076,0.181,0.087,0.278s0.003,0.195-0.023,0.29
	c-0.027,0.095-0.072,0.187-0.138,0.269c-0.001,0.001-0.002,0.002-0.002,0.003s-0.001,0.002-0.003,0.003
	c-0.001,0.001-0.002,0.002-0.002,0.003c-0.001,0.001-0.002,0.002-0.003,0.003c0,0-0.201,0.25-0.502,0.681
	c-0.301,0.431-0.702,1.043-1.103,1.768c-0.401,0.724-0.801,1.561-1.102,2.44c-0.301,0.88-0.502,1.803-0.502,2.701
	c0.035,0.665,0.09,1.328,0.165,1.99c0.074,0.661,0.168,1.319,0.28,1.974s0.244,1.307,0.395,1.955
	c0.151,0.648,0.321,1.292,0.51,1.931c0.029,0.1,0.037,0.202,0.026,0.301c-0.011,0.098-0.041,0.193-0.087,0.278
	c-0.046,0.086-0.108,0.163-0.184,0.226c-0.076,0.063-0.165,0.113-0.265,0.145l-0.06,0.007l-0.06,0.007l-0.06,0.008L35.13,45.83z"/>
<path d="M30.17,46.63c-0.082,0-0.162-0.012-0.237-0.036s-0.145-0.06-0.208-0.105s-0.119-0.101-0.166-0.165
	c-0.047-0.064-0.084-0.135-0.109-0.213c-0.02-0.057-0.144-0.433-0.319-1.02c-0.175-0.587-0.402-1.384-0.625-2.286
	c-0.223-0.902-0.445-1.908-0.61-2.911C27.729,38.89,27.62,37.89,27.62,37c0-1.025,0.242-2.162,0.607-3.297
	c0.365-1.134,0.853-2.264,1.344-3.275s0.987-1.903,1.369-2.56s0.648-1.078,0.68-1.148c0.067-0.082,0.149-0.146,0.237-0.193
	s0.185-0.075,0.283-0.084s0.198,0,0.294,0.028c0.096,0.029,0.188,0.076,0.27,0.144c0.07,0.058,0.127,0.125,0.172,0.199
	c0.044,0.074,0.075,0.155,0.092,0.239c0.017,0.083,0.021,0.17,0.01,0.256c-0.011,0.086-0.037,0.171-0.078,0.251
	c0,0.015-0.236,0.385-0.591,0.988c-0.354,0.603-0.827,1.44-1.299,2.389c-0.472,0.948-0.945,2.009-1.299,3.06
	c-0.354,1.051-0.591,2.092-0.591,3.002c0,0.827,0.108,1.778,0.271,2.738c0.163,0.96,0.38,1.931,0.597,2.8s0.435,1.636,0.6,2.189
	s0.277,0.891,0.282,0.903c0.038,0.098,0.054,0.199,0.05,0.298s-0.026,0.195-0.065,0.283s-0.096,0.17-0.167,0.238
	c-0.071,0.069-0.157,0.124-0.255,0.162c-0.005,0.001-0.009,0.003-0.013,0.005c-0.004,0.002-0.008,0.003-0.013,0.005
	s-0.009,0.003-0.014,0.005c-0.004,0.001-0.009,0.003-0.014,0.004c-0.017,0.003-0.035,0.005-0.052,0.006
	c-0.017,0.001-0.035,0.002-0.052,0.002c-0.017,0-0.035,0-0.052-0.001S30.188,46.633,30.17,46.63z"/>
<path d="M64.93,45.83h-0.055H64.82h-0.055H64.71c-0.1-0.031-0.189-0.081-0.265-0.144s-0.138-0.141-0.184-0.227
	c-0.046-0.086-0.076-0.181-0.087-0.279s-0.003-0.2,0.026-0.3c0.189-0.641,0.359-1.287,0.51-1.938
	c0.151-0.65,0.283-1.305,0.396-1.962c0.113-0.658,0.206-1.319,0.28-1.983c0.074-0.663,0.129-1.329,0.164-1.997
	c0-0.903-0.199-1.826-0.497-2.703c-0.299-0.878-0.697-1.71-1.097-2.431c-0.4-0.72-0.8-1.329-1.102-1.761s-0.507-0.685-0.514-0.695
	c-0.067-0.08-0.114-0.171-0.143-0.265s-0.038-0.193-0.03-0.29c0.009-0.097,0.036-0.192,0.082-0.28s0.109-0.168,0.189-0.235
	c0.001-0.001,0.002-0.002,0.003-0.003c0.001-0.001,0.002-0.001,0.003-0.002s0.002-0.002,0.003-0.002
	c0.001-0.001,0.002-0.002,0.003-0.003c0.083-0.065,0.174-0.111,0.27-0.138c0.096-0.027,0.195-0.036,0.292-0.026
	c0.097,0.01,0.193,0.038,0.281,0.084c0.088,0.046,0.169,0.109,0.237,0.19c0.035,0.045,0.274,0.344,0.613,0.831
	c0.339,0.488,0.778,1.164,1.214,1.964s0.866,1.724,1.188,2.706S67.08,35.965,67.08,37c-0.035,0.702-0.09,1.403-0.166,2.101
	c-0.076,0.698-0.173,1.394-0.291,2.086s-0.256,1.381-0.415,2.065c-0.159,0.684-0.338,1.364-0.538,2.038
	c-0.025,0.081-0.063,0.155-0.111,0.221c-0.048,0.066-0.105,0.123-0.17,0.171c-0.065,0.047-0.137,0.085-0.215,0.11
	C65.097,45.817,65.014,45.831,64.93,45.83z"/>
<path d="M69.89,46.63c-0.02,0.003-0.04,0.006-0.06,0.008c-0.02,0.002-0.04,0.003-0.06,0.003s-0.04-0.001-0.06-0.003
	c-0.02-0.002-0.04-0.005-0.06-0.008c-0.1-0.03-0.19-0.08-0.266-0.143s-0.138-0.14-0.184-0.225s-0.076-0.18-0.086-0.278
	c-0.011-0.098-0.002-0.2,0.028-0.301c0.001-0.004,0.003-0.009,0.005-0.014c0.001-0.005,0.003-0.009,0.005-0.014
	c0.001-0.004,0.003-0.009,0.005-0.013s0.003-0.009,0.005-0.013c0-0.013,0.109-0.351,0.272-0.904s0.381-1.319,0.598-2.188
	c0.217-0.869,0.434-1.84,0.597-2.8c0.163-0.96,0.272-1.91,0.272-2.738c0-0.91-0.233-1.951-0.584-3.002s-0.818-2.111-1.286-3.06
	s-0.938-1.785-1.294-2.389c-0.355-0.603-0.596-0.973-0.606-0.988c-0.067-0.082-0.115-0.174-0.144-0.27
	c-0.028-0.096-0.038-0.196-0.028-0.294s0.038-0.194,0.084-0.283c0.046-0.089,0.111-0.17,0.193-0.237s0.174-0.115,0.27-0.144
	c0.096-0.028,0.196-0.038,0.294-0.028s0.194,0.038,0.283,0.084s0.17,0.111,0.237,0.193c0.009,0.01,0.018,0.021,0.026,0.033
	c0.008,0.011,0.016,0.023,0.023,0.034c0.007,0.012,0.015,0.023,0.022,0.035c0.007,0.012,0.014,0.024,0.02,0.037
	c0.04,0.062,0.31,0.48,0.693,1.135c0.382,0.655,0.877,1.548,1.367,2.561c0.49,1.013,0.975,2.146,1.338,3.283
	c0.363,1.137,0.603,2.276,0.603,3.301c0,0.89-0.109,1.89-0.275,2.893c-0.165,1.003-0.387,2.009-0.61,2.911
	c-0.224,0.902-0.45,1.7-0.625,2.286c-0.175,0.587-0.299,0.962-0.32,1.02c-0.025,0.076-0.06,0.145-0.104,0.207
	s-0.098,0.117-0.159,0.162c-0.06,0.045-0.127,0.081-0.199,0.107C70.046,46.612,69.969,46.628,69.89,46.63z"/>
</svg>
