<svg xmlns="http://www.w3.org/2000/svg" viewBox="0 0 100 100"><path d="M64,53.42c-1.42-.79-2.38-1.29-3.31-1.86a5,5,0,0,0-5.84.17c-1.2.81-2.36,1.69-3.55,2.52a6,6,0,0,1-7.32,0c-.12-.08-.24-.15-.35-.24-2.88-2.16-5.35-5.48-10-2.69V39.85l-5.45-.51C30.69,36.28,32.74,33.53,35,31a6.49,6.49,0,0,0,2-5.4,5.3,5.3,0,0,1,.13-2.06c.27-.93.6-2.43,1.15-2.55,1-.2,2.13.44,3.2.77.24.07.42.31.75.57,1.77-1.67,3.52-3.31,5.26-5,.77-.72,1.47-.92,2.29,0q9.66,10.58,19.35,21.13a4.82,4.82,0,0,1,.47,1L64,39.81Zm-2.7-8.06.29-5.94H56c.11,2.06.21,3.95.31,5.94Z"/><path d="M50,94.23c-7-6.94-14.45-14.81-21.65-22,3.3-1.65,6.53-3.35,9.85-4.85a3.63,3.63,0,0,1,2.67.1,41.16,41.16,0,0,1,4.83,2.83,7.31,7.31,0,0,0,7.32.5,18.23,18.23,0,0,0,3.15-1.59,8,8,0,0,1,9.34-.3c2,1.14,4,2.15,6.15,3.3C64.24,79.44,57.27,87.12,50,94.23Z"/><path d="M11.05,55.84c4-.38,7.06,0,9.76,2.5,4.72,4.42,4.92,4.33,9.8.11a22.43,22.43,0,0,1,2.47-1.89c2.6-1.66,4.14-1.51,6.63.28a60,60,0,0,0,5.93,3.77,4.76,4.76,0,0,0,5.12-.24c2.15-1.39,4.35-2.7,6.54-4,2.52-1.52,4.52-1.42,6.91.36C65.66,57.77,67,59,68.55,59.9c2.42,1.52,4.4,1.29,6.69-.39a59.72,59.72,0,0,1,5.67-3.81c2.25-1.28,4.47-1.22,6.45,1.23a104,104,0,0,0-7.63,7.8c-2.48,3.1-5.3,3.23-8.61,2.07-1.7-.59-3.4-1.18-5.06-1.84-4.05-1.62-8-1.58-11.69.88-3,2-5.92,2.07-8.79-.21-3.78-3-7.58-2.91-11.74-.57a33.5,33.5,0,0,1-7.76,2.77,3.66,3.66,0,0,1-2.94-.7C19.17,63.58,15.34,59.88,11.05,55.84Z"/></svg>