<svg xmlns="http://www.w3.org/2000/svg" viewBox="0 0 100 100"><path d="M3.48,50,25.42,28.75c1-.45,2.75.37,3.25.3s6.11-1.43,6.54-1.43,5.17,4,5.32,5-6.8,3.08-5.77,9.21c.26,1.6,2.94,6.44,3.3,8.13.35.71,3.74,4,3.92,4.8.49.35,8.92,1.48,10,9.77v6h19.4c.84,0,3.38.74,2,2.5S50,96.41,50,96.41Z"/><path d="M37.58,37.87c.39-.57.75-2.66,1.62-2.6s3.09,1.38,3,1.94-2.7,3.35-3.36,3.2S37.25,38.35,37.58,37.87Z"/><path d="M48.73,33.48c.84,0,3.14,1.2,3.89,5.91.36,1.76-2.75,3.94-3.89,3.91S43.78,41,43.78,39.39,46,33.48,48.73,33.48Z"/><path d="M39,42.62c.64-.88,2.64-.24,6.92,3,.66.21,2.4,1,4.38,3.73.27.33,3.29,0,3.17,3.41-.15,1.79-3,1.82-5,.71-1.53-.21-5.1.18-6.08-1.1s-.66-3.2-.84-3.85S37,45.42,39,42.62Z"/></svg>