<svg xmlns="http://www.w3.org/2000/svg" viewBox="0 0 100 100"><path d="M50.4,20.35l1.33,3.87C52.89,27.6,53.43,28,57,27.75l2-.15c-1.28,1.72-2.44,3.19-3.51,4.72C53.71,34.94,51.83,37.61,52,41c.05,1.18.54,2.84,1.39,3.34S56,44.48,57,43.9c3.62-2,5.64-5.38,6.6-9.38.22-.93.38-1.88.71-3.46.57,1.05.93,1.63,1.22,2.24,1.12,2.35,2.14,2.93,4.76,2.57a28.43,28.43,0,0,1,5.36-.42c-1,1-1.92,2-2.89,3C70,41.24,70,42,72.49,44.84a5.9,5.9,0,0,1,1.34,2.44c-1.45-.34-2.93-.61-4.35-1-3.64-1.09-7.12-.43-10.54.86-1.41.53-2.72,1.33-2.65,3.06A3.6,3.6,0,0,0,59,53.71a32.42,32.42,0,0,0,6.74.72c2.59,0,5.19-.23,8.4-.4a30.55,30.55,0,0,1-2,2.66A3.16,3.16,0,0,0,72,61.32,22.15,22.15,0,0,1,75,65.8c-1.92-.53-3.84-1.09-5.77-1.59-2.22-.58-2.84-.11-3.22,2.1a22.31,22.31,0,0,1-.94,2.94l-.73,0a23.87,23.87,0,0,1-1.07-3.63c-.53-3.83-2.88-6.42-5.92-8.33a4.86,4.86,0,0,0-4-.28c-.82.38-1.28,2.14-1.37,3.33-.26,3.1,1.36,5.56,3.21,7.86,1.19,1.48,2.41,2.94,4,4.91-1.89-.21-3.1-.31-4.31-.49-2.27-.33-2.73.07-3,2.4-.18,1.57-.53,3.12-.8,4.68l-1,.1a23.9,23.9,0,0,1-1.45-3.13c-1.32-4.33-1.49-4.46-5.77-3.46-.47.1-1,.2-1.42.27a8.3,8.3,0,0,1-1-.08L43.33,70c2.15-2.48,4-5.09,4.55-8.45.25-1.64.28-3.28-1.2-4.34s-3.17-.52-4.68.29c-2.9,1.55-4,4.19-4.6,7.24-.32,1.76-.84,3.48-1.27,5.22l-.68-.09c-.23-.69-.44-1.39-.68-2.09-1-2.81-2.1-3.47-5-2.88-1.67.33-3.33.71-5,1.07l-.36-.56C26,64,27.52,62.63,29.1,61.25c2-1.76,2-1.75.24-3.84-.85-1-1.68-2-2.5-3-.11-.14-.1-.37-.2-.8a58.11,58.11,0,0,0,6.4.89A25.91,25.91,0,0,0,40.2,54c3.33-.87,4.06-4.23,1.47-6.53a7.05,7.05,0,0,0-4.21-1.79,51.67,51.67,0,0,0-7.57.94c-1.05.14-2.11.26-3.16.39l-.31-.57c.87-.91,1.71-1.86,2.63-2.71,1.17-1.08,1.37-2.07.21-3.33-1.44-1.56-2.74-3.25-4.43-5.28,1.76.26,3.07.45,4.38.66,3.43.56,3.66.45,5.29-2.48.3-.54.63-1.06,1.17-2,.42.88.75,1.49,1,2.13.64,1.68,1.16,3.41,1.89,5a16.44,16.44,0,0,0,2,3.38c1.84,2.38,4.19,3.39,5.8,2.64C48.14,43.64,49,41,48,38a22.18,22.18,0,0,0-3.13-5.51,54.39,54.39,0,0,0-4.36-4.72l3.72.62c2.53.42,3.16.05,3.91-2.45.57-1.89,1.07-3.81,1.6-5.71Z"/></svg>