<svg xmlns="http://www.w3.org/2000/svg" viewBox="0 0 100 100"><path d="M55.16,57.67c-1-.74-4.45-.19-6.22-.72S35,46.07,33.45,44.56s-1.86-10.18-2.13-12c-.21-1.51-4.93-2.2-7.42-2.47l-20,20,46,46L71.66,74.17C68.44,70.89,56.05,58.32,55.16,57.67Z"/><path d="M40.27,31.56c-.69.55-1.37,1.12-2.06,1.68l.16.23L40.56,33c1.28-.23,1.78,0,2.2,1.17l.29.84.3,0c.19-.7.42-1.39.56-2.1a3.75,3.75,0,0,1,2-2.92,2,2,0,0,1,2-.12,1.55,1.55,0,0,1,.53,1.75,6.76,6.76,0,0,1-2,3.41l-1.27,1.36a3.43,3.43,0,0,0,.45,0,6.17,6.17,0,0,0,.62-.11c1.88-.4,1.95-.35,2.53,1.4A9.26,9.26,0,0,0,49.47,39l.43,0c.12-.63.28-1.25.35-1.89.12-.94.32-1.1,1.32-1,.53.07,1.06.11,1.88.19-.7-.79-1.24-1.38-1.76-2a4.29,4.29,0,0,1-1.41-3.16c0-.48.25-1.19.61-1.35a2.31,2.31,0,0,1,1.75.11,4.74,4.74,0,0,1,2.59,3.36,10,10,0,0,0,.47,1.47H56a7.62,7.62,0,0,0,.41-1.19c.17-.89.44-1.08,1.41-.85s1.69.43,2.53.64a8.7,8.7,0,0,0-1.29-1.8,1.21,1.21,0,0,1,.07-1.87A12,12,0,0,0,60,28.65c-1.41.07-2.55.18-3.68.16a15.39,15.39,0,0,1-3-.29,1.48,1.48,0,0,1-1.2-1.43c0-.7.54-1,1.16-1.23A7.6,7.6,0,0,1,58,25.51c.62.17,1.27.28,1.9.42a2.41,2.41,0,0,0-.58-1c-1.1-1.16-1.1-1.45.09-2.58l1.27-1.2a12.55,12.55,0,0,0-2.35.17,1.66,1.66,0,0,1-2.08-1c-.13-.25-.29-.48-.54-.9-.14.63-.21,1-.31,1.39a5.64,5.64,0,0,1-2.89,3.79,2,2,0,0,1-1.57.16,1.76,1.76,0,0,1-.61-1.35,5.56,5.56,0,0,1,1.56-3.49c.47-.61,1-1.2,1.53-1.9l-.88.06c-1.57.09-1.81-.06-2.32-1.42l-.58-1.56L49.32,15c-.23.76-.45,1.54-.7,2.3-.33,1-.61,1.16-1.71,1l-1.63-.24A22.87,22.87,0,0,1,47.19,20a8.88,8.88,0,0,1,1.37,2.22,2,2,0,0,1-.74,2.61,2.4,2.4,0,0,1-2.54-1.06,7,7,0,0,1-.87-1.36c-.32-.66-.55-1.36-.83-2-.1-.26-.25-.51-.43-.87-.24.37-.38.58-.51.8-.72,1.18-.82,1.23-2.32,1L38.4,21c.74.82,1.31,1.5,1.94,2.13s.42.91-.09,1.34-.77.73-1.15,1.1l.13.23,1.39-.16a24.86,24.86,0,0,1,3.31-.38,3.29,3.29,0,0,1,1.85.72,1.43,1.43,0,0,1-.65,2.64,12.11,12.11,0,0,1-3.13.2,26.37,26.37,0,0,1-2.81-.36c.05.18,0,.27.09.33.36.41.72.82,1.1,1.22C41.15,30.86,41.15,30.85,40.27,31.56Z"/><path d="M49.43,54.86c1.4,1,3.24.43,3-.82-1.32-6.28-10-9.54-10.77-10.72-1.78-3.15-6.71-9.56-7.14-9.26s-.38,4.07,0,7.36S48,53.88,49.43,54.86Z"/><path d="M54.27,43.42l0,0a1,1,0,0,0,0,1.45L67.66,58.32l-2.8,2.82,10.67,3.58L71.78,54.18l-2.64,2.65L55.73,43.42A1,1,0,0,0,54.27,43.42Z"/></svg>