<svg xmlns="http://www.w3.org/2000/svg" viewBox="0 0 100 100"><path d="M70.57,58.14H63.82a1.25,1.25,0,0,1,0-2.5h6.75c2.9,0,7.8-1.14,7.8-5.43,0-4.79-3.84-7.65-5.29-8.72a3.61,3.61,0,0,1-.73-.64A2.67,2.67,0,0,1,72,39.4a11.4,11.4,0,0,0-1.58-5.12c-1.65-2.88-7.54-3.88-8.27-3.91h0c-.69,0-1.06-.43-1.86-1.36-1.74-2-5.35-6.17-10.8-6.17-6.39,0-10.61,6.39-13.41,10.62-1.76,2.66-2.82,4.26-4.29,4.26-6,0-10.13,6.86-10.13,10.57,0,3.94,2.28,6.94,3.42,6.94h8.52a1.25,1.25,0,0,1,0,2.5H25.05c-3,0-5.92-4.59-5.92-9.44,0-5.1,5.36-13,12.49-13.07A18.06,18.06,0,0,0,34,32.08c3.09-4.68,7.76-11.74,15.49-11.74,6.59,0,10.86,4.93,12.69,7l.46.53c1.88.23,7.86,1.49,10,5.14a14,14,0,0,1,1.9,6.14c0,.08,0,.16,0,.23l.09.07c1.56,1.16,6.3,4.68,6.3,10.73C80.87,55.66,75.53,58.14,70.57,58.14ZM62.14,27.87h0Zm0,0Z"/><polygon points="42.62 51.8 34.3 62.37 41.36 62.37 34.98 79.66 53.99 59.52 47.77 59.52 53.77 51.8 42.62 51.8"/><polygon points="56.26 59.66 52.42 64.78 55.68 64.78 52.73 73.16 61.07 63.77 58.63 63.77 61.14 59.66 56.26 59.66"/></svg>