<svg xmlns="http://www.w3.org/2000/svg" xmlns:xlink="http://www.w3.org/1999/xlink" viewBox="0 0 100 100"><defs><clipPath id="a"><rect x="54.23" y="32.13" width="4.6" height="24.93" transform="translate(57.14 116.6) rotate(-128.75)" fill="none"/></clipPath><clipPath id="b"><polygon points="62.16 65.88 60.01 69.71 40.25 57.41 42.4 53.58 62.16 65.88" fill="none"/></clipPath><clipPath id="c"><polygon points="33.81 77.23 30.33 76.22 40.25 46.87 43.73 47.89 33.81 77.23" fill="none"/></clipPath><clipPath id="d"><rect x="62.75" y="42.05" width="3.95" height="35.52" fill="none"/></clipPath></defs><g clip-path="url(#a)"><rect x="46.55" y="48.91" width="0.54" height="6.96" transform="translate(-22.49 40.83) rotate(-38.74)" fill="#909090"/><polygon points="68.22 39.68 63.87 34.25 64.28 33.91 68.64 39.34 68.22 39.68" fill="#909090"/><polygon points="67.53 40.24 63.17 34.81 63.59 34.47 67.95 39.9 67.53 40.24" fill="#909090"/><polygon points="66.84 40.79 62.48 35.36 62.9 35.03 67.26 40.46 66.84 40.79" fill="#909090"/><polygon points="66.14 41.35 61.78 35.92 62.2 35.58 66.56 41.02 66.14 41.35" fill="#909090"/><polygon points="64.75 42.47 60.39 37.03 60.81 36.7 65.17 42.13 64.75 42.47" fill="#909090"/><polygon points="63.37 43.58 59.01 38.15 59.42 37.81 63.78 43.24 63.37 43.58" fill="#909090"/><polygon points="61.98 44.69 57.62 39.26 58.04 38.93 62.4 44.36 61.98 44.69" fill="#909090"/><polygon points="60.59 45.81 56.23 40.38 56.65 40.04 61.01 45.47 60.59 45.81" fill="#909090"/><polygon points="59.2 46.92 54.84 41.49 55.26 41.16 59.62 46.59 59.2 46.92" fill="#909090"/><polygon points="57.81 48.04 53.45 42.6 53.87 42.27 58.23 47.7 57.81 48.04" fill="#909090"/><rect x="52.8" y="43.9" width="0.54" height="6.96" transform="translate(-17.98 43.63) rotate(-38.74)" fill="#909090"/><rect x="50.02" y="46.13" width="0.54" height="6.96" transform="translate(-19.98 42.38) rotate(-38.74)" fill="#909090"/><rect x="48.63" y="47.24" width="0.54" height="6.96" transform="translate(-20.99 41.77) rotate(-38.75)" fill="#909090"/><rect x="47.94" y="47.8" width="0.54" height="6.96" transform="translate(-21.49 41.46) rotate(-38.75)" fill="#909090"/><rect x="47.24" y="48.36" width="0.54" height="6.96" transform="translate(-21.99 41.14) rotate(-38.74)" fill="#909090"/><polygon points="56.42 49.15 52.06 43.72 52.48 43.38 56.84 48.81 56.42 49.15" fill="#909090"/><rect x="51.41" y="45.01" width="0.54" height="6.96" transform="translate(-18.98 43.01) rotate(-38.74)" fill="#909090"/><polygon points="65.45 41.91 61.09 36.48 61.51 36.14 65.87 41.57 65.45 41.91" fill="#909090"/><polygon points="64.06 43.02 59.7 37.59 60.12 37.26 64.48 42.69 64.06 43.02" fill="#909090"/><polygon points="62.67 44.14 58.31 38.7 58.73 38.37 63.09 43.8 62.67 44.14" fill="#909090"/><polygon points="61.28 45.25 56.92 39.82 57.34 39.48 61.7 44.91 61.28 45.25" fill="#909090"/><polygon points="59.89 46.37 55.53 40.93 55.95 40.6 60.31 46.03 59.89 46.37" fill="#909090"/><polygon points="57.12 48.59 52.76 43.16 53.18 42.83 57.54 48.26 57.12 48.59" fill="#909090"/><rect x="52.1" y="44.46" width="0.54" height="6.96" transform="translate(-18.48 43.32) rotate(-38.74)" fill="#909090"/><rect x="50.71" y="45.57" width="0.54" height="6.96" transform="translate(-19.48 42.7) rotate(-38.75)" fill="#909090"/><rect x="49.32" y="46.69" width="0.54" height="6.96" transform="translate(-20.48 42.07) rotate(-38.74)" fill="#909090"/><polygon points="58.51 47.48 54.15 42.05 54.57 41.71 58.92 47.14 58.51 47.48" fill="#909090"/><polygon points="55.73 49.71 51.37 44.28 51.79 43.94 56.15 49.37 55.73 49.71" fill="#909090"/></g><rect x="45.48" y="45.9" width="25.21" height="0.81" transform="translate(-16.2 46.51) rotate(-38.72)"/><rect x="42.6" y="42.31" width="25.21" height="0.81" transform="translate(-14.58 44.03) rotate(-38.81)"/><rect x="65.85" y="34.5" width="0.8" height="4.6" transform="translate(-8.45 49.57) rotate(-38.75)"/><g clip-path="url(#b)"><polygon points="38.22 79.45 35.29 55.89 35.34 55.89 38.27 79.44 38.22 79.45"/><polygon points="41.59 78.07 38.66 54.51 38.72 54.5 41.64 78.06 41.59 78.07"/><polygon points="46.31 76.13 43.38 52.57 43.44 52.57 46.36 76.12 46.31 76.13"/><polygon points="49.01 75.02 46.08 51.47 46.13 51.46 49.06 75.02 49.01 75.02"/><polygon points="51.7 73.92 48.78 50.36 48.83 50.35 51.76 73.91 51.7 73.92"/><polygon points="53.05 73.36 50.13 49.8 50.18 49.8 53.11 73.36 53.05 73.36"/><polygon points="56.42 71.98 53.5 48.42 53.55 48.41 56.48 71.97 56.42 71.98"/><polygon points="26.75 84.16 23.83 60.6 23.88 60.59 26.8 84.15 26.75 84.16"/><polygon points="29.45 83.05 26.52 59.49 26.58 59.48 29.5 83.04 29.45 83.05"/><polygon points="32.15 81.94 29.22 58.38 29.27 58.38 32.2 81.94 32.15 81.94"/><polygon points="34.17 81.11 31.25 57.55 31.3 57.55 34.22 81.11 34.17 81.11"/><polygon points="36.19 80.28 33.27 56.72 33.32 56.72 36.25 80.28 36.19 80.28"/><polygon points="38.89 79.17 35.97 55.62 36.02 55.61 38.94 79.17 38.89 79.17"/><polygon points="43.61 77.24 40.69 53.68 40.74 53.67 43.66 77.23 43.61 77.24"/><polygon points="46.98 75.85 44.06 52.3 44.11 52.29 47.04 75.85 46.98 75.85"/><polygon points="55.08 72.53 52.15 48.97 52.2 48.97 55.13 72.53 55.08 72.53"/><polygon points="57.77 71.42 54.85 47.87 54.9 47.86 57.83 71.42 57.77 71.42"/><polygon points="42.26 77.79 39.34 54.23 39.39 54.23 42.32 77.78 42.26 77.79"/><polygon points="45.63 76.41 42.71 52.85 42.76 52.84 45.69 76.4 45.63 76.41"/><polygon points="49.68 74.75 46.76 51.19 46.81 51.18 49.73 74.74 49.68 74.75"/><polygon points="51.03 74.19 48.1 50.63 48.16 50.63 51.08 74.19 51.03 74.19"/><polygon points="53.73 73.08 50.8 49.53 50.86 49.52 53.78 73.08 53.73 73.08"/><polygon points="55.75 72.25 52.83 48.7 52.88 48.69 55.8 72.25 55.75 72.25"/><polygon points="25.4 84.71 22.48 61.15 22.53 61.15 25.46 84.7 25.4 84.71"/><polygon points="27.43 83.88 24.5 60.32 24.55 60.32 27.48 83.87 27.43 83.88"/><polygon points="30.8 82.5 27.87 58.94 27.93 58.93 30.85 82.49 30.8 82.5"/><polygon points="32.82 81.67 29.9 58.11 29.95 58.1 32.88 81.66 32.82 81.67"/><polygon points="35.52 80.56 32.59 57 32.65 56.99 35.57 80.55 35.52 80.56"/><polygon points="36.87 80 33.94 56.45 34 56.44 36.92 80 36.87 80"/><polygon points="40.91 78.34 37.99 54.79 38.04 54.78 40.97 78.34 40.91 78.34"/><polygon points="44.28 76.96 41.36 53.4 41.41 53.4 44.34 76.95 44.28 76.96"/><polygon points="22.37 85.96 19.44 62.4 19.5 62.39 22.42 85.95 22.37 85.96"/><polygon points="22.7 85.82 19.78 62.26 19.83 62.25 22.76 85.81 22.7 85.82"/><polygon points="23.38 85.54 20.45 61.98 20.51 61.98 23.43 85.53 23.38 85.54"/><polygon points="24.05 85.26 21.13 61.71 21.18 61.7 24.11 85.26 24.05 85.26"/><polygon points="24.73 84.99 21.8 61.43 21.86 61.42 24.78 84.98 24.73 84.99"/><polygon points="26.08 84.43 23.15 60.88 23.21 60.87 26.13 84.43 26.08 84.43"/><polygon points="28.77 83.33 25.85 59.77 25.9 59.76 28.83 83.32 28.77 83.33"/><polygon points="31.47 82.22 28.55 58.66 28.6 58.66 31.53 82.21 31.47 82.22"/><polygon points="39.56 78.9 36.64 55.34 36.69 55.33 39.62 78.89 39.56 78.9"/><polygon points="42.94 77.51 40.01 53.95 40.07 53.95 42.99 77.51 42.94 77.51"/><polygon points="47.66 75.58 44.73 52.02 44.79 52.01 47.71 75.57 47.66 75.58"/><polygon points="50.35 74.47 47.43 50.91 47.48 50.91 50.41 74.46 50.35 74.47"/><polygon points="52.38 73.64 49.45 50.08 49.51 50.08 52.43 73.63 52.38 73.64"/><polygon points="54.4 72.81 51.48 49.25 51.53 49.24 54.45 72.8 54.4 72.81"/><polygon points="57.1 71.7 54.17 48.14 54.23 48.14 57.15 71.69 57.1 71.7"/><polygon points="28.1 83.6 25.18 60.05 25.23 60.04 28.15 83.6 28.1 83.6"/><polygon points="30.12 82.77 27.2 59.22 27.25 59.21 30.18 82.77 30.12 82.77"/><polygon points="33.49 81.39 30.57 57.83 30.62 57.83 33.55 81.38 33.49 81.39"/><polygon points="34.84 80.83 31.92 57.28 31.97 57.27 34.9 80.83 34.84 80.83"/><polygon points="37.54 79.73 34.62 56.17 34.67 56.16 37.59 79.72 37.54 79.73"/><polygon points="40.24 78.62 37.31 55.06 37.37 55.06 40.29 78.61 40.24 78.62"/><polygon points="44.96 76.68 42.03 53.13 42.09 53.12 45.01 76.68 44.96 76.68"/><polygon points="48.33 75.3 45.41 51.74 45.46 51.73 48.39 75.29 48.33 75.3"/><polygon points="58.45 71.15 55.52 47.59 55.58 47.58 58.5 71.14 58.45 71.15"/><polygon points="59.12 70.87 56.2 47.31 56.25 47.31 59.17 70.86 59.12 70.87"/><polygon points="59.8 70.59 56.87 47.04 56.92 47.03 59.85 70.59 59.8 70.59"/><polygon points="60.47 70.32 57.55 46.76 57.6 46.75 60.52 70.31 60.47 70.32"/><polygon points="61.15 70.04 58.22 46.48 58.27 46.48 61.2 70.03 61.15 70.04"/><polygon points="61.82 69.76 58.9 46.2 58.95 46.2 61.87 69.76 61.82 69.76"/><polygon points="62.49 69.49 59.57 45.93 59.62 45.92 62.55 69.48 62.49 69.49"/><polygon points="63.17 69.21 60.24 45.65 60.3 45.65 63.22 69.2 63.17 69.21"/><polygon points="63.84 68.93 60.92 45.38 60.97 45.37 63.9 68.93 63.84 68.93"/><polygon points="64.52 68.66 61.59 45.1 61.65 45.09 64.57 68.65 64.52 68.66"/><polygon points="65.19 68.38 62.27 44.82 62.32 44.81 65.25 68.37 65.19 68.38"/><polygon points="65.87 68.1 62.94 44.55 62.99 44.54 65.92 68.1 65.87 68.1"/><polygon points="66.54 67.83 63.62 44.27 63.67 44.26 66.59 67.82 66.54 67.83"/><polygon points="67.22 67.55 64.29 43.99 64.34 43.98 67.27 67.54 67.22 67.55"/><polygon points="67.89 67.27 64.97 43.72 65.02 43.71 67.94 67.27 67.89 67.27"/><polygon points="68.56 67 65.64 43.44 65.69 43.43 68.62 66.99 68.56 67"/><polygon points="69.24 66.72 66.31 43.16 66.37 43.15 69.29 66.71 69.24 66.72"/><polygon points="69.91 66.44 66.99 42.88 67.04 42.88 69.97 66.44 69.91 66.44"/><polygon points="70.59 66.17 67.66 42.61 67.72 42.6 70.64 66.16 70.59 66.17"/><polygon points="71.26 65.89 68.34 42.33 68.39 42.32 71.31 65.88 71.26 65.89"/><polygon points="71.94 65.61 69.01 42.05 69.06 42.05 71.99 65.61 71.94 65.61"/><polygon points="72.61 65.33 69.69 41.78 69.74 41.77 72.66 65.33 72.61 65.33"/><polygon points="73.29 65.06 70.36 41.5 70.41 41.49 73.34 65.05 73.29 65.06"/><polygon points="73.96 64.78 71.03 41.22 71.09 41.22 74.01 64.78 73.96 64.78"/><polygon points="74.63 64.5 71.71 40.95 71.76 40.94 74.69 64.5 74.63 64.5"/><polygon points="75.31 64.23 72.38 40.67 72.44 40.66 75.36 64.22 75.31 64.23"/><polygon points="75.98 63.95 73.06 40.39 73.11 40.39 76.04 63.94 75.98 63.95"/><polygon points="76.66 63.67 73.73 40.12 73.78 40.11 76.71 63.67 76.66 63.67"/><polygon points="77.33 63.4 74.41 39.84 74.46 39.83 77.39 63.39 77.33 63.4"/><polygon points="78.01 63.12 75.08 39.56 75.13 39.56 78.06 63.11 78.01 63.12"/><polygon points="78.68 62.84 75.76 39.29 75.81 39.28 78.73 62.84 78.68 62.84"/><polygon points="79.36 62.57 76.43 39.01 76.48 39 79.41 62.56 79.36 62.57"/><polygon points="80.03 62.29 77.1 38.73 77.16 38.73 80.08 62.28 80.03 62.29"/><polygon points="80.7 62.01 77.78 38.46 77.83 38.45 80.76 62.01 80.7 62.01"/><polygon points="81.38 61.74 78.45 38.18 78.51 38.17 81.43 61.73 81.38 61.74"/><polygon points="82.05 61.46 79.13 37.9 79.18 37.9 82.11 61.45 82.05 61.46"/><polygon points="82.73 61.18 79.8 37.62 79.86 37.62 82.78 61.18 82.73 61.18"/><polygon points="83.4 60.91 80.48 37.35 80.53 37.34 83.45 60.9 83.4 60.91"/><polygon points="84.08 60.63 81.15 37.07 81.2 37.06 84.13 60.62 84.08 60.63"/><polygon points="84.75 60.35 81.83 36.79 81.88 36.79 84.8 60.35 84.75 60.35"/><polygon points="85.42 60.08 82.5 36.52 82.55 36.51 85.48 60.07 85.42 60.08"/><polygon points="86.1 59.8 83.17 36.24 83.23 36.23 86.15 59.79 86.1 59.8"/><polygon points="86.77 59.52 83.85 35.96 83.9 35.96 86.83 59.52 86.77 59.52"/><polygon points="87.45 59.24 84.52 35.69 84.58 35.68 87.5 59.24 87.45 59.24"/><polygon points="39.23 79.04 36.3 55.48 36.36 55.47 39.28 79.03 39.23 79.04"/><polygon points="42.6 77.65 39.67 54.09 39.73 54.09 42.65 77.64 42.6 77.65"/><polygon points="47.32 75.71 44.4 52.16 44.45 52.15 47.37 75.71 47.32 75.71"/><polygon points="50.02 74.61 47.09 51.05 47.15 51.04 50.07 74.6 50.02 74.61"/><polygon points="52.72 73.5 49.79 49.94 49.84 49.94 52.77 73.49 52.72 73.5"/><polygon points="54.06 72.95 51.14 49.39 51.19 49.38 54.12 72.94 54.06 72.95"/><polygon points="57.44 71.56 54.51 48.01 54.56 48 57.49 71.56 57.44 71.56"/><polygon points="27.76 83.74 24.84 60.18 24.89 60.18 27.82 83.73 27.76 83.74"/><polygon points="30.46 82.64 27.54 59.08 27.59 59.07 30.51 82.63 30.46 82.64"/><polygon points="33.16 81.53 30.23 57.97 30.29 57.96 33.21 81.52 33.16 81.53"/><polygon points="35.18 80.7 32.26 57.14 32.31 57.13 35.23 80.69 35.18 80.7"/><polygon points="37.2 79.87 34.28 56.31 34.33 56.3 37.26 79.86 37.2 79.87"/><polygon points="39.9 78.76 36.98 55.2 37.03 55.2 39.95 78.75 39.9 78.76"/><polygon points="44.62 76.82 41.7 53.26 41.75 53.26 44.68 76.81 44.62 76.82"/><polygon points="47.99 75.44 45.07 51.88 45.12 51.87 48.05 75.43 47.99 75.44"/><polygon points="56.09 72.11 53.16 48.56 53.22 48.55 56.14 72.11 56.09 72.11"/><polygon points="58.79 71.01 55.86 47.45 55.91 47.44 58.84 71 58.79 71.01"/><polygon points="43.27 77.38 40.35 53.82 40.4 53.81 43.33 77.37 43.27 77.38"/><polygon points="46.65 75.99 43.72 52.43 43.77 52.43 46.7 75.98 46.65 75.99"/><polygon points="50.69 74.33 47.77 50.77 47.82 50.77 50.75 74.32 50.69 74.33"/><polygon points="52.04 73.78 49.12 50.22 49.17 50.21 52.09 73.77 52.04 73.78"/><polygon points="54.74 72.67 51.81 49.11 51.87 49.11 54.79 72.66 54.74 72.67"/><polygon points="56.76 71.84 53.84 48.28 53.89 48.28 56.81 71.83 56.76 71.84"/><polygon points="26.41 84.3 23.49 60.74 23.54 60.73 26.47 84.29 26.41 84.3"/><polygon points="28.44 83.47 25.51 59.91 25.57 59.9 28.49 83.46 28.44 83.47"/><polygon points="31.81 82.08 28.89 58.52 28.94 58.52 31.86 82.07 31.81 82.08"/><polygon points="33.83 81.25 30.91 57.69 30.96 57.69 33.89 81.24 33.83 81.25"/><polygon points="36.53 80.14 33.6 56.59 33.66 56.58 36.58 80.14 36.53 80.14"/><polygon points="37.88 79.59 34.95 56.03 35.01 56.02 37.93 79.58 37.88 79.59"/><polygon points="41.92 77.93 39 54.37 39.05 54.37 41.98 77.92 41.92 77.93"/><polygon points="45.3 76.55 42.37 52.99 42.43 52.98 45.35 76.54 45.3 76.55"/><polygon points="23.04 85.68 20.12 62.12 20.17 62.12 23.09 85.67 23.04 85.68"/><polygon points="23.72 85.4 20.79 61.84 20.84 61.84 23.77 85.4 23.72 85.4"/><polygon points="24.39 85.13 21.47 61.57 21.52 61.56 24.44 85.12 24.39 85.13"/><polygon points="25.07 84.85 22.14 61.29 22.19 61.28 25.12 84.84 25.07 84.85"/><polygon points="25.74 84.57 22.82 61.01 22.87 61.01 25.79 84.57 25.74 84.57"/><polygon points="27.09 84.02 24.16 60.46 24.22 60.45 27.14 84.01 27.09 84.02"/><polygon points="29.79 82.91 26.86 59.35 26.91 59.35 29.84 82.9 29.79 82.91"/><polygon points="32.48 81.8 29.56 58.25 29.61 58.24 32.54 81.8 32.48 81.8"/><polygon points="40.58 78.48 37.65 54.92 37.7 54.92 40.63 78.48 40.58 78.48"/><polygon points="43.95 77.1 41.02 53.54 41.08 53.53 44 77.09 43.95 77.1"/><polygon points="48.67 75.16 45.74 51.6 45.8 51.6 48.72 75.15 48.67 75.16"/><polygon points="51.37 74.05 48.44 50.5 48.5 50.49 51.42 74.05 51.37 74.05"/><polygon points="53.39 73.22 50.47 49.66 50.52 49.66 53.44 73.22 53.39 73.22"/><polygon points="55.41 72.39 52.49 48.84 52.54 48.83 55.47 72.39 55.41 72.39"/><polygon points="58.11 71.28 55.19 47.73 55.24 47.72 58.16 71.28 58.11 71.28"/><polygon points="29.11 83.19 26.19 59.63 26.24 59.62 29.16 83.18 29.11 83.19"/><polygon points="31.14 82.36 28.21 58.8 28.26 58.79 31.19 82.35 31.14 82.36"/><polygon points="34.51 80.97 31.58 57.41 31.64 57.41 34.56 80.97 34.51 80.97"/><polygon points="35.86 80.42 32.93 56.86 32.98 56.86 35.91 80.41 35.86 80.42"/><polygon points="38.55 79.31 35.63 55.76 35.68 55.75 38.61 79.31 38.55 79.31"/><polygon points="41.25 78.21 38.33 54.65 38.38 54.64 41.3 78.2 41.25 78.21"/><polygon points="45.97 76.27 43.05 52.71 43.1 52.7 46.02 76.26 45.97 76.27"/><polygon points="49.34 74.88 46.42 51.33 46.47 51.32 49.4 74.88 49.34 74.88"/><polygon points="59.46 70.73 56.53 47.17 56.59 47.17 59.51 70.73 59.46 70.73"/><polygon points="60.13 70.45 57.21 46.9 57.26 46.89 60.19 70.45 60.13 70.45"/><polygon points="60.81 70.18 57.88 46.62 57.94 46.61 60.86 70.17 60.81 70.18"/><polygon points="61.48 69.9 58.56 46.34 58.61 46.34 61.54 69.89 61.48 69.9"/><polygon points="62.16 69.62 59.23 46.07 59.29 46.06 62.21 69.62 62.16 69.62"/><polygon points="62.83 69.35 59.91 45.79 59.96 45.78 62.88 69.34 62.83 69.35"/><polygon points="63.51 69.07 60.58 45.51 60.63 45.51 63.56 69.06 63.51 69.07"/><polygon points="64.18 68.79 61.26 45.24 61.31 45.23 64.23 68.79 64.18 68.79"/><polygon points="64.86 68.52 61.93 44.96 61.98 44.95 64.91 68.51 64.86 68.52"/><polygon points="65.53 68.24 62.6 44.68 62.66 44.68 65.58 68.23 65.53 68.24"/><polygon points="66.2 67.96 63.28 44.41 63.33 44.4 66.26 67.96 66.2 67.96"/><polygon points="66.88 67.69 63.95 44.13 64.01 44.12 66.93 67.68 66.88 67.69"/><polygon points="67.55 67.41 64.63 43.85 64.68 43.85 67.61 67.4 67.55 67.41"/><polygon points="68.23 67.13 65.3 43.58 65.36 43.57 68.28 67.13 68.23 67.13"/><polygon points="68.9 66.86 65.98 43.3 66.03 43.29 68.95 66.85 68.9 66.86"/><polygon points="69.58 66.58 66.65 43.02 66.7 43.02 69.63 66.57 69.58 66.58"/><polygon points="70.25 66.3 67.33 42.75 67.38 42.74 70.3 66.3 70.25 66.3"/><polygon points="70.92 66.03 68 42.47 68.05 42.46 70.98 66.02 70.92 66.03"/><polygon points="71.6 65.75 68.67 42.19 68.73 42.19 71.65 65.74 71.6 65.75"/><polygon points="72.27 65.47 69.35 41.91 69.4 41.91 72.33 65.47 72.27 65.47"/><polygon points="72.95 65.2 70.02 41.64 70.08 41.63 73 65.19 72.95 65.2"/><polygon points="73.62 64.92 70.7 41.36 70.75 41.35 73.67 64.91 73.62 64.92"/><polygon points="74.3 64.64 71.37 41.09 71.42 41.08 74.35 64.64 74.3 64.64"/><polygon points="74.97 64.36 72.05 40.81 72.1 40.8 75.02 64.36 74.97 64.36"/><polygon points="75.64 64.09 72.72 40.53 72.77 40.52 75.7 64.08 75.64 64.09"/><polygon points="76.32 63.81 73.4 40.26 73.45 40.25 76.37 63.81 76.32 63.81"/><polygon points="76.99 63.53 74.07 39.98 74.12 39.97 77.05 63.53 76.99 63.53"/><polygon points="77.67 63.26 74.74 39.7 74.8 39.69 77.72 63.25 77.67 63.26"/><polygon points="78.34 62.98 75.42 39.42 75.47 39.42 78.4 62.98 78.34 62.98"/><polygon points="79.02 62.7 76.09 39.15 76.14 39.14 79.07 62.7 79.02 62.7"/><polygon points="79.69 62.43 76.77 38.87 76.82 38.86 79.74 62.42 79.69 62.43"/><polygon points="80.37 62.15 77.44 38.59 77.49 38.59 80.42 62.15 80.37 62.15"/><polygon points="81.04 61.87 78.12 38.32 78.17 38.31 81.09 61.87 81.04 61.87"/><polygon points="81.72 61.6 78.79 38.04 78.84 38.03 81.77 61.59 81.72 61.6"/><polygon points="82.39 61.32 79.47 37.76 79.52 37.76 82.44 61.31 82.39 61.32"/><polygon points="83.06 61.04 80.14 37.49 80.19 37.48 83.12 61.04 83.06 61.04"/><polygon points="83.74 60.77 80.81 37.21 80.87 37.2 83.79 60.76 83.74 60.77"/><polygon points="84.41 60.49 81.49 36.93 81.54 36.93 84.47 60.48 84.41 60.49"/><polygon points="85.09 60.21 82.16 36.66 82.22 36.65 85.14 60.21 85.09 60.21"/><polygon points="85.76 59.94 82.84 36.38 82.89 36.37 85.81 59.93 85.76 59.94"/><polygon points="86.44 59.66 83.51 36.1 83.56 36.1 86.49 59.65 86.44 59.66"/><polygon points="87.11 59.38 84.19 35.83 84.24 35.82 87.16 59.38 87.11 59.38"/><polygon points="87.78 59.11 84.86 35.55 84.91 35.54 87.84 59.1 87.78 59.11"/><polygon points="88.12 58.97 85.2 35.41 85.25 35.4 88.17 58.96 88.12 58.97"/></g><rect x="49.43" y="51.92" width="1.4" height="23.28" transform="translate(-30.32 72.53) rotate(-58.1)"/><rect x="51.58" y="48.09" width="1.4" height="23.28" transform="translate(-26.05 72.55) rotate(-58.1)"/><g clip-path="url(#c)"><polygon points="20.71 53.75 20.68 53.71 41.34 40.18 41.36 40.23 20.71 53.75"/><polygon points="22.09 57.29 22.06 57.24 42.72 43.72 42.75 43.77 22.09 57.29"/><polygon points="24.03 62.24 24 62.2 44.65 48.67 44.68 48.72 24.03 62.24"/><polygon points="25.13 65.07 25.1 65.03 45.76 51.5 45.78 51.55 25.13 65.07"/><polygon points="26.24 67.9 26.21 67.86 46.86 54.33 46.89 54.37 26.24 67.9"/><polygon points="26.79 69.31 26.76 69.27 47.41 55.74 47.44 55.79 26.79 69.31"/><polygon points="28.17 72.85 28.14 72.81 48.8 59.28 48.82 59.33 28.17 72.85"/><polygon points="16.01 41.73 15.98 41.68 36.64 28.16 36.67 28.2 16.01 41.73"/><polygon points="17.12 44.56 17.09 44.51 37.74 30.99 37.77 31.03 17.12 44.56"/><polygon points="18.22 47.39 18.19 47.34 38.85 33.82 38.88 33.86 18.22 47.39"/><polygon points="19.05 49.51 19.02 49.47 39.68 35.94 39.71 35.98 19.05 49.51"/><polygon points="19.88 51.63 19.85 51.59 40.51 38.06 40.53 38.11 19.88 51.63"/><polygon points="20.99 54.46 20.96 54.42 41.61 40.89 41.64 40.94 20.99 54.46"/><polygon points="22.92 59.41 22.89 59.37 43.55 45.84 43.58 45.89 22.92 59.41"/><polygon points="24.3 62.95 24.27 62.9 44.93 49.38 44.96 49.42 24.3 62.95"/><polygon points="27.62 71.44 27.59 71.39 48.24 57.87 48.27 57.91 27.62 71.44"/><polygon points="28.72 74.26 28.69 74.22 49.35 60.7 49.38 60.74 28.72 74.26"/><polygon points="22.37 58 22.34 57.95 42.99 44.43 43.02 44.47 22.37 58"/><polygon points="23.75 61.53 23.72 61.49 44.37 47.97 44.4 48.01 23.75 61.53"/><polygon points="25.41 65.78 25.38 65.73 46.03 52.21 46.06 52.25 25.41 65.78"/><polygon points="25.96 67.19 25.93 67.15 46.59 53.62 46.61 53.67 25.96 67.19"/><polygon points="27.07 70.02 27.04 69.98 47.69 56.45 47.72 56.5 27.07 70.02"/><polygon points="27.89 72.14 27.86 72.1 48.52 58.57 48.55 58.62 27.89 72.14"/><polygon points="15.46 40.31 15.43 40.27 36.09 26.75 36.11 26.79 15.46 40.31"/><polygon points="16.29 42.44 16.26 42.39 36.91 28.87 36.94 28.91 16.29 42.44"/><polygon points="17.67 45.97 17.64 45.93 38.3 32.4 38.33 32.45 17.67 45.97"/><polygon points="18.5 48.09 18.47 48.05 39.12 34.53 39.15 34.57 18.5 48.09"/><polygon points="19.61 50.92 19.58 50.88 40.23 37.35 40.26 37.4 19.61 50.92"/><polygon points="20.16 52.34 20.13 52.29 40.78 38.77 40.81 38.81 20.16 52.34"/><polygon points="21.82 56.58 21.79 56.54 42.44 43.01 42.47 43.06 21.82 56.58"/><polygon points="23.2 60.12 23.17 60.07 43.82 46.55 43.85 46.59 23.2 60.12"/><polygon points="14.22 37.13 14.19 37.09 34.84 23.56 34.87 23.61 14.22 37.13"/><polygon points="14.36 37.48 14.33 37.44 34.98 23.92 35.01 23.96 14.36 37.48"/><polygon points="14.63 38.19 14.6 38.15 35.26 24.62 35.29 24.67 14.63 38.19"/><polygon points="14.91 38.9 14.88 38.85 35.53 25.33 35.56 25.38 14.91 38.9"/><polygon points="15.18 39.61 15.15 39.56 35.81 26.04 35.84 26.08 15.18 39.61"/><polygon points="15.74 41.02 15.71 40.98 36.36 27.45 36.39 27.5 15.74 41.02"/><polygon points="16.84 43.85 16.81 43.81 37.47 30.28 37.5 30.33 16.84 43.85"/><polygon points="17.95 46.68 17.92 46.64 38.57 33.11 38.6 33.16 17.95 46.68"/><polygon points="21.26 55.17 21.23 55.12 41.89 41.6 41.92 41.64 21.26 55.17"/><polygon points="22.64 58.7 22.61 58.66 43.27 45.14 43.3 45.18 22.64 58.7"/><polygon points="24.58 63.66 24.55 63.61 45.2 50.09 45.23 50.13 24.58 63.66"/><polygon points="25.68 66.48 25.66 66.44 46.31 52.92 46.34 52.96 25.68 66.48"/><polygon points="26.51 68.61 26.48 68.56 47.14 55.04 47.17 55.08 26.51 68.61"/><polygon points="27.34 70.73 27.31 70.68 47.97 57.16 48 57.2 27.34 70.73"/><polygon points="28.45 73.56 28.42 73.51 49.07 59.99 49.1 60.03 28.45 73.56"/><polygon points="16.57 43.14 16.54 43.1 37.19 29.57 37.22 29.62 16.57 43.14"/><polygon points="17.39 45.27 17.37 45.22 38.02 31.7 38.05 31.74 17.39 45.27"/><polygon points="18.78 48.8 18.75 48.76 39.4 35.23 39.43 35.28 18.78 48.8"/><polygon points="19.33 50.22 19.3 50.17 39.95 36.65 39.98 36.69 19.33 50.22"/><polygon points="20.43 53.05 20.41 53 41.06 39.48 41.09 39.52 20.43 53.05"/><polygon points="21.54 55.87 21.51 55.83 42.16 42.31 42.19 42.35 21.54 55.87"/><polygon points="23.47 60.83 23.44 60.78 44.1 47.26 44.13 47.3 23.47 60.83"/><polygon points="24.86 64.36 24.83 64.32 45.48 50.79 45.51 50.84 24.86 64.36"/><polygon points="29 74.97 28.97 74.93 49.62 61.4 49.65 61.45 29 74.97"/><polygon points="29.28 75.68 29.25 75.64 49.9 62.11 49.93 62.16 29.28 75.68"/><polygon points="29.55 76.39 29.52 76.34 50.18 62.82 50.21 62.86 29.55 76.39"/><polygon points="29.83 77.09 29.8 77.05 50.45 63.53 50.48 63.57 29.83 77.09"/><polygon points="30.11 77.8 30.07 77.76 50.73 64.23 50.76 64.28 30.11 77.8"/><polygon points="30.38 78.51 30.35 78.46 51.01 64.94 51.03 64.98 30.38 78.51"/><polygon points="30.66 79.22 30.63 79.17 51.28 65.65 51.31 65.69 30.66 79.22"/><polygon points="30.93 79.92 30.9 79.88 51.56 66.36 51.59 66.4 30.93 79.92"/><polygon points="31.21 80.63 31.18 80.59 51.83 67.06 51.86 67.11 31.21 80.63"/><polygon points="31.49 81.34 31.46 81.29 52.11 67.77 52.14 67.81 31.49 81.34"/><polygon points="31.76 82.05 31.73 82 52.39 68.48 52.42 68.52 31.76 82.05"/><polygon points="32.04 82.75 32.01 82.71 52.66 69.18 52.69 69.23 32.04 82.75"/><polygon points="32.31 83.46 32.29 83.42 52.94 69.89 52.97 69.94 32.31 83.46"/><polygon points="32.59 84.17 32.56 84.12 53.22 70.6 53.25 70.64 32.59 84.17"/><polygon points="32.87 84.87 32.84 84.83 53.49 71.31 53.52 71.35 32.87 84.87"/><polygon points="33.14 85.58 33.12 85.54 53.77 72.01 53.8 72.06 33.14 85.58"/><polygon points="33.42 86.29 33.39 86.24 54.04 72.72 54.07 72.76 33.42 86.29"/><polygon points="33.7 87 33.67 86.95 54.32 73.43 54.35 73.47 33.7 87"/><polygon points="33.97 87.7 33.94 87.66 54.6 74.14 54.63 74.18 33.97 87.7"/><polygon points="34.25 88.41 34.22 88.37 54.87 74.84 54.9 74.89 34.25 88.41"/><polygon points="34.53 89.12 34.5 89.07 55.15 75.55 55.18 75.59 34.53 89.12"/><polygon points="34.8 89.83 34.77 89.78 55.43 76.26 55.45 76.3 34.8 89.83"/><polygon points="35.08 90.53 35.05 90.49 55.7 76.96 55.73 77.01 35.08 90.53"/><polygon points="35.35 91.24 35.33 91.2 55.98 77.67 56.01 77.72 35.35 91.24"/><polygon points="35.63 91.95 35.6 91.9 56.26 78.38 56.28 78.42 35.63 91.95"/><polygon points="35.91 92.65 35.88 92.61 56.53 79.09 56.56 79.13 35.91 92.65"/><polygon points="36.18 93.36 36.15 93.32 56.81 79.79 56.84 79.84 36.18 93.36"/><polygon points="36.46 94.07 36.43 94.03 57.08 80.5 57.11 80.55 36.46 94.07"/><polygon points="36.74 94.78 36.71 94.73 57.36 81.21 57.39 81.25 36.74 94.78"/><polygon points="37.01 95.48 36.98 95.44 57.64 81.92 57.67 81.96 37.01 95.48"/><polygon points="37.29 96.19 37.26 96.15 57.91 82.62 57.94 82.67 37.29 96.19"/><polygon points="37.56 96.9 37.54 96.85 58.19 83.33 58.22 83.38 37.56 96.9"/><polygon points="37.84 97.61 37.81 97.56 58.47 84.04 58.49 84.08 37.84 97.61"/><polygon points="38.12 98.31 38.09 98.27 58.74 84.74 58.77 84.79 38.12 98.31"/><polygon points="38.39 99.02 38.36 98.98 59.02 85.45 59.05 85.5 38.39 99.02"/><polygon points="38.67 99.73 38.64 99.68 59.29 86.16 59.32 86.2 38.67 99.73"/><polygon points="38.95 100.43 38.92 100.39 59.57 86.87 59.6 86.91 38.95 100.43"/><polygon points="39.22 101.14 39.19 101.1 59.85 87.57 59.88 87.62 39.22 101.14"/><polygon points="39.5 101.85 39.47 101.81 60.12 88.28 60.15 88.33 39.5 101.85"/><polygon points="39.77 102.56 39.75 102.51 60.4 88.99 60.43 89.03 39.77 102.56"/><polygon points="40.05 103.26 40.02 103.22 60.67 89.7 60.7 89.74 40.05 103.26"/><polygon points="40.33 103.97 40.3 103.93 60.95 90.4 60.98 90.45 40.33 103.97"/><polygon points="40.6 104.68 40.58 104.63 61.23 91.11 61.26 91.15 40.6 104.68"/><polygon points="40.88 105.39 40.85 105.34 61.51 91.82 61.53 91.86 40.88 105.39"/><polygon points="21.13 54.81 21.1 54.77 41.75 41.25 41.78 41.29 21.13 54.81"/><polygon points="22.51 58.35 22.48 58.31 43.13 44.78 43.16 44.83 22.51 58.35"/><polygon points="24.44 63.3 24.41 63.26 45.06 49.73 45.09 49.78 24.44 63.3"/><polygon points="25.55 66.13 25.52 66.09 46.17 52.56 46.2 52.61 25.55 66.13"/><polygon points="26.65 68.96 26.62 68.92 47.27 55.39 47.3 55.44 26.65 68.96"/><polygon points="27.2 70.37 27.17 70.33 47.83 56.81 47.86 56.85 27.2 70.37"/><polygon points="28.59 73.91 28.56 73.87 49.21 60.34 49.24 60.39 28.59 73.91"/><polygon points="16.43 42.79 16.4 42.75 37.05 29.22 37.08 29.27 16.43 42.79"/><polygon points="17.53 45.62 17.5 45.58 38.16 32.05 38.19 32.09 17.53 45.62"/><polygon points="18.64 48.45 18.61 48.4 39.26 34.88 39.29 34.92 18.64 48.45"/><polygon points="19.47 50.57 19.44 50.53 40.09 37 40.12 37.05 19.47 50.57"/><polygon points="20.3 52.69 20.27 52.65 40.92 39.12 40.95 39.17 20.3 52.69"/><polygon points="21.4 55.52 21.37 55.48 42.02 41.95 42.05 42 21.4 55.52"/><polygon points="23.34 60.47 23.31 60.43 43.96 46.9 43.99 46.95 23.34 60.47"/><polygon points="24.72 64.01 24.69 63.96 45.34 50.44 45.37 50.48 24.72 64.01"/><polygon points="28.03 72.5 28 72.45 48.66 58.93 48.69 58.97 28.03 72.5"/><polygon points="29.14 75.33 29.11 75.28 49.76 61.76 49.79 61.8 29.14 75.33"/><polygon points="22.78 59.06 22.75 59.01 43.41 45.49 43.44 45.53 22.78 59.06"/><polygon points="24.16 62.59 24.14 62.55 44.79 49.03 44.82 49.07 24.16 62.59"/><polygon points="25.82 66.84 25.79 66.79 46.45 53.27 46.48 53.31 25.82 66.84"/><polygon points="26.38 68.25 26.34 68.21 47 54.68 47.03 54.73 26.38 68.25"/><polygon points="27.48 71.08 27.45 71.04 48.1 57.51 48.13 57.56 27.48 71.08"/><polygon points="28.31 73.2 28.28 73.16 48.93 59.63 48.96 59.68 28.31 73.2"/><polygon points="15.88 41.38 15.85 41.33 36.5 27.81 36.53 27.85 15.88 41.38"/><polygon points="16.7 43.5 16.68 43.45 37.33 29.93 37.36 29.97 16.7 43.5"/><polygon points="18.09 47.03 18.06 46.99 38.71 33.47 38.74 33.51 18.09 47.03"/><polygon points="18.91 49.16 18.89 49.11 39.54 35.59 39.57 35.63 18.91 49.16"/><polygon points="20.02 51.98 19.99 51.94 40.64 38.42 40.67 38.46 20.02 51.98"/><polygon points="20.57 53.4 20.54 53.35 41.2 39.83 41.23 39.88 20.57 53.4"/><polygon points="22.23 57.64 22.2 57.6 42.85 44.08 42.88 44.12 22.23 57.64"/><polygon points="23.61 61.18 23.58 61.13 44.24 47.61 44.27 47.66 23.61 61.18"/><polygon points="14.49 37.84 14.46 37.79 35.12 24.27 35.15 24.31 14.49 37.84"/><polygon points="14.77 38.55 14.74 38.5 35.39 24.98 35.42 25.02 14.77 38.55"/><polygon points="15.05 39.25 15.02 39.21 35.67 25.68 35.7 25.73 15.05 39.25"/><polygon points="15.32 39.96 15.29 39.92 35.95 26.39 35.98 26.44 15.32 39.96"/><polygon points="15.6 40.67 15.57 40.62 36.22 27.1 36.25 27.14 15.6 40.67"/><polygon points="16.15 42.08 16.12 42.04 36.78 28.51 36.8 28.56 16.15 42.08"/><polygon points="17.26 44.91 17.23 44.87 37.88 31.34 37.91 31.39 17.26 44.91"/><polygon points="18.36 47.74 18.33 47.7 38.99 34.17 39.02 34.22 18.36 47.74"/><polygon points="21.68 56.23 21.65 56.18 42.3 42.66 42.33 42.7 21.68 56.23"/><polygon points="23.06 59.77 23.03 59.72 43.68 46.2 43.71 46.24 23.06 59.77"/><polygon points="24.99 64.72 24.96 64.67 45.62 51.15 45.65 51.19 24.99 64.72"/><polygon points="26.1 67.55 26.07 67.5 46.72 53.98 46.75 54.02 26.1 67.55"/><polygon points="26.93 69.67 26.9 69.62 47.55 56.1 47.58 56.14 26.93 69.67"/><polygon points="27.76 71.79 27.73 71.75 48.38 58.22 48.41 58.27 27.76 71.79"/><polygon points="28.86 74.62 28.83 74.57 49.49 61.05 49.52 61.09 28.86 74.62"/><polygon points="16.98 44.2 16.95 44.16 37.6 30.64 37.63 30.68 16.98 44.2"/><polygon points="17.81 46.33 17.78 46.28 38.43 32.76 38.46 32.8 17.81 46.33"/><polygon points="19.19 49.86 19.16 49.82 39.81 36.29 39.84 36.34 19.19 49.86"/><polygon points="19.74 51.28 19.71 51.23 40.37 37.71 40.4 37.75 19.74 51.28"/><polygon points="20.85 54.11 20.82 54.06 41.47 40.54 41.5 40.58 20.85 54.11"/><polygon points="21.95 56.94 21.93 56.89 42.58 43.37 42.61 43.41 21.95 56.94"/><polygon points="23.89 61.89 23.86 61.84 44.51 48.32 44.54 48.36 23.89 61.89"/><polygon points="25.27 65.42 25.24 65.38 45.89 51.85 45.92 51.9 25.27 65.42"/><polygon points="29.41 76.03 29.39 75.99 50.04 62.46 50.07 62.51 29.41 76.03"/><polygon points="29.69 76.74 29.66 76.7 50.31 63.17 50.34 63.22 29.69 76.74"/><polygon points="29.97 77.45 29.94 77.4 50.59 63.88 50.62 63.92 29.97 77.45"/><polygon points="30.24 78.15 30.21 78.11 50.87 64.59 50.9 64.63 30.24 78.15"/><polygon points="30.52 78.86 30.49 78.82 51.14 65.29 51.17 65.34 30.52 78.86"/><polygon points="30.8 79.57 30.77 79.53 51.42 66 51.45 66.05 30.8 79.57"/><polygon points="31.07 80.28 31.04 80.23 51.7 66.71 51.73 66.75 31.07 80.28"/><polygon points="31.35 80.98 31.32 80.94 51.97 67.42 52 67.46 31.35 80.98"/><polygon points="31.62 81.69 31.59 81.65 52.25 68.12 52.28 68.17 31.62 81.69"/><polygon points="31.9 82.4 31.87 82.35 52.52 68.83 52.55 68.87 31.9 82.4"/><polygon points="32.18 83.11 32.15 83.06 52.8 69.54 52.83 69.58 32.18 83.11"/><polygon points="32.45 83.81 32.42 83.77 53.08 70.25 53.11 70.29 32.45 83.81"/><polygon points="32.73 84.52 32.7 84.48 53.35 70.95 53.38 71 32.73 84.52"/><polygon points="33.01 85.23 32.98 85.18 53.63 71.66 53.66 71.7 33.01 85.23"/><polygon points="33.28 85.94 33.25 85.89 53.91 72.37 53.94 72.41 33.28 85.94"/><polygon points="33.56 86.64 33.53 86.6 54.18 73.07 54.21 73.12 33.56 86.64"/><polygon points="33.84 87.35 33.81 87.31 54.46 73.78 54.49 73.83 33.84 87.35"/><polygon points="34.11 88.06 34.08 88.01 54.73 74.49 54.77 74.53 34.11 88.06"/><polygon points="34.39 88.76 34.36 88.72 55.01 75.2 55.04 75.24 34.39 88.76"/><polygon points="34.66 89.47 34.63 89.43 55.29 75.9 55.32 75.95 34.66 89.47"/><polygon points="34.94 90.18 34.91 90.14 55.56 76.61 55.59 76.65 34.94 90.18"/><polygon points="35.22 90.89 35.19 90.84 55.84 77.32 55.87 77.36 35.22 90.89"/><polygon points="35.49 91.59 35.46 91.55 56.12 78.03 56.15 78.07 35.49 91.59"/><polygon points="35.77 92.3 35.74 92.26 56.39 78.73 56.42 78.78 35.77 92.3"/><polygon points="36.05 93.01 36.02 92.96 56.67 79.44 56.7 79.48 36.05 93.01"/><polygon points="36.32 93.72 36.29 93.67 56.95 80.15 56.98 80.19 36.32 93.72"/><polygon points="36.6 94.42 36.57 94.38 57.22 80.85 57.25 80.9 36.6 94.42"/><polygon points="36.87 95.13 36.84 95.09 57.5 81.56 57.53 81.61 36.87 95.13"/><polygon points="37.15 95.84 37.12 95.79 57.77 82.27 57.8 82.31 37.15 95.84"/><polygon points="37.43 96.54 37.4 96.5 58.05 82.98 58.08 83.02 37.43 96.54"/><polygon points="37.7 97.25 37.67 97.21 58.33 83.68 58.36 83.73 37.7 97.25"/><polygon points="37.98 97.96 37.95 97.92 58.6 84.39 58.63 84.44 37.98 97.96"/><polygon points="38.26 98.67 38.23 98.62 58.88 85.1 58.91 85.14 38.26 98.67"/><polygon points="38.53 99.37 38.5 99.33 59.16 85.81 59.19 85.85 38.53 99.37"/><polygon points="38.81 100.08 38.78 100.04 59.43 86.51 59.46 86.56 38.81 100.08"/><polygon points="39.09 100.79 39.05 100.74 59.71 87.22 59.74 87.27 39.09 100.79"/><polygon points="39.36 101.5 39.33 101.45 59.98 87.93 60.01 87.97 39.36 101.5"/><polygon points="39.64 102.2 39.61 102.16 60.26 88.64 60.29 88.68 39.64 102.2"/><polygon points="39.91 102.91 39.88 102.87 60.54 89.34 60.57 89.39 39.91 102.91"/><polygon points="40.19 103.62 40.16 103.57 60.81 90.05 60.84 90.09 40.19 103.62"/><polygon points="40.47 104.33 40.44 104.28 61.09 90.76 61.12 90.8 40.47 104.33"/><polygon points="40.74 105.03 40.71 104.99 61.37 91.46 61.4 91.51 40.74 105.03"/><polygon points="41.02 105.74 40.99 105.7 61.64 92.17 61.67 92.22 41.02 105.74"/><polygon points="41.16 106.09 41.13 106.05 61.78 92.53 61.81 92.57 41.16 106.09"/></g><rect x="19.31" y="61.49" width="31.71" height="0.81" transform="translate(-34.73 75.4) rotate(-71.33)"/><rect x="22.79" y="62.5" width="31.72" height="0.81" transform="translate(-33.32 79.38) rotate(-71.33)"/><rect x="31.54" y="75.28" width="0.81" height="3.62" transform="translate(-51.01 86.14) rotate(-73.72)"/><path d="M39.88,44A18.9,18.9,0,0,0,36,40.7c-1.13-.63-2.83-3.63-2.68-5.65s1.67-6.64,2.64-7.85,2.22-5.17,7.54-5.27,6.43.81,8.46,4.36,5,6.63,5,8.15.41,3.19-.71,4.45-8.64,8-11.08,8C43.81,46.84,39.88,44,39.88,44Z" fill="#fff"/><path d="M45.13,47.92c-1.51,0-4.61-2.13-5.88-3l-.15-.13a18,18,0,0,0-3.68-3.11C33.89,40.78,32,37.32,32.2,35c.16-2.11,1.72-7,2.86-8.44a5.84,5.84,0,0,0,.47-.73c1-1.7,2.91-4.85,7.9-4.94,5.68-.1,7.19,1,9.41,4.89a43.27,43.27,0,0,0,2.65,4c1.45,2,2.51,3.49,2.51,4.73,0,.3,0,.6,0,.91a5.51,5.51,0,0,1-1,4.25C56.54,40.15,48.37,47.92,45.13,47.92Zm-4.54-4.73a17.09,17.09,0,0,0,4.54,2.58c1.77,0,8.87-6,10.27-7.59.6-.67.54-1.62.48-2.72q0-.51,0-1c0-.55-1.17-2.17-2.11-3.47A46.7,46.7,0,0,1,51,26.82c-1.78-3.1-2.45-3.92-7.51-3.81-3.8.07-5.12,2.28-6.09,3.89a10.3,10.3,0,0,1-.63,1,21.61,21.61,0,0,0-2.4,7.26,6.85,6.85,0,0,0,2.12,4.64A19.41,19.41,0,0,1,40.59,43.19Z"/><path d="M23.93,50.79c.18,0,6.88,1.83,7.73,4.35s2,5,1.93,5.77S32.46,66.24,29,66.84c-1.51.13-3.57-.79-5.43-1.14a7.11,7.11,0,0,1-3.5-1.54c-.09-.25-1.83-3.54-1.83-3.88s-.06-3.22.35-4S21.84,50.79,23.93,50.79Z" fill="#fff"/><path d="M28.74,67.55a12.13,12.13,0,0,1-3.25-.64,20.19,20.19,0,0,0-2-.52c-1.59-.3-3.75-1.25-4-2L19,63.59c-1.28-2.52-1.47-3-1.47-3.31v-.13c0-3,.23-3.82.43-4.2,0-.06,3.17-5.86,5.94-5.86.31,0,7.4,1.9,8.39,4.83.3.88.64,1.76,1,2.55.72,1.87,1.1,2.87,1,3.52-.18,1.5-1.51,5.9-5.15,6.54Zm-8-3.76a7.88,7.88,0,0,0,3,1.23,20.72,20.72,0,0,1,2.16.55,9.79,9.79,0,0,0,3.08.57c3.17-.55,3.94-5.27,3.94-5.31A13.57,13.57,0,0,0,32,58c-.32-.82-.66-1.71-1-2.61-.64-1.9-6.09-3.66-7.12-3.88-1.45.09-3.91,3.67-4.65,5.1-.07.14-.3.79-.27,3.55v.14c.07.22.94,1.94,1.32,2.68Zm0,.08v0Z"/><path d="M25.15,34c.18,0,6.87,1.83,7.73,4.35s2,5,1.93,5.77-1.13,5.33-4.57,5.93c-1.52.13-3.57-.79-5.43-1.13a7.13,7.13,0,0,1-3.5-1.55c-.1-.25-1.83-3.53-1.83-3.88s-.07-3.22.35-4S23.06,34,25.15,34Z" fill="#fff"/><path d="M30,50.78a12.13,12.13,0,0,1-3.25-.64,20,20,0,0,0-2-.52c-1.6-.29-3.75-1.25-4-2,0-.09-.2-.41-.41-.83-1.27-2.51-1.46-3-1.46-3.3v-.13c0-3,.23-3.82.43-4.2,0-.06,3.17-5.86,5.94-5.86.31,0,7.4,1.9,8.39,4.83.3.88.64,1.76,1,2.55.72,1.87,1.09,2.87,1,3.52-.18,1.5-1.51,5.91-5.15,6.54Zm-8-3.75a8.09,8.09,0,0,0,3,1.22,21.2,21.2,0,0,1,2.15.55,10.14,10.14,0,0,0,3.09.58c3.17-.56,3.93-5.27,3.94-5.32a14.21,14.21,0,0,0-.93-2.85c-.32-.82-.67-1.71-1-2.61-.64-1.9-6.1-3.66-7.12-3.88-1.45.09-3.91,3.67-4.66,5.1-.06.14-.29.79-.26,3.55v.14c.07.22.94,1.94,1.31,2.67C21.68,46.55,21.83,46.86,21.91,47Zm0,.07,0,0ZM21.88,47Z"/><path d="M60.54,18.83c.18,0,6.88,1.83,7.73,4.35s2,5,1.94,5.77-1.14,5.33-4.58,5.93c-1.51.13-3.57-.79-5.43-1.14a7.11,7.11,0,0,1-3.5-1.54c-.09-.26-1.83-3.54-1.83-3.88s-.06-3.22.35-4S58.45,18.83,60.54,18.83Z" fill="#fff"/><path d="M65.35,35.58A12.5,12.5,0,0,1,62.1,35a20.73,20.73,0,0,0-2-.52c-1.6-.3-3.76-1.25-4-2l-.41-.82c-1.28-2.52-1.47-3-1.47-3.3v-.13c0-3,.23-3.83.43-4.2,0-.06,3.17-5.86,5.94-5.86.31,0,7.4,1.9,8.39,4.83.3.88.64,1.76.95,2.55.72,1.87,1.1,2.87,1,3.52-.18,1.5-1.52,5.9-5.15,6.54Zm-8-3.75a8,8,0,0,0,3,1.23c.72.13,1.45.34,2.16.54a9.56,9.56,0,0,0,3.08.58c3.17-.55,3.94-5.27,3.94-5.32A13.54,13.54,0,0,0,68.58,26c-.32-.82-.66-1.71-1-2.61-.64-1.9-6.09-3.66-7.12-3.88-1.43.09-3.93,3.71-4.65,5.1-.05.1-.3.72-.27,3.55v.14c.07.22.94,1.93,1.31,2.67Zm0,.08s0,0,0,0A.08.08,0,0,1,57.34,31.91Z"/><path d="M72.08,31.66c.18,0,6.87,1.83,7.73,4.35s2,5,1.93,5.77-1.14,5.33-4.58,5.93c-1.51.12-3.56-.79-5.42-1.14A7.21,7.21,0,0,1,68.23,45c-.09-.26-1.83-3.54-1.83-3.89s-.06-3.21.35-4S70,31.66,72.08,31.66Z" fill="#fff"/><path d="M76.88,48.41a12.13,12.13,0,0,1-3.25-.64c-.68-.19-1.37-.39-2-.51-1.6-.3-3.75-1.25-4-2l-.41-.82c-1.27-2.52-1.47-3-1.47-3.31V41c0-3,.23-3.83.43-4.2,0-.06,3.17-5.86,6-5.86.31,0,7.39,1.89,8.39,4.83.3.88.63,1.75.94,2.55.73,1.86,1.1,2.87,1,3.52-.18,1.49-1.51,5.9-5.15,6.54Zm-8-3.75a8,8,0,0,0,3,1.23c.72.13,1.45.34,2.16.54A9.84,9.84,0,0,0,77.1,47c3.18-.55,3.94-5.27,3.94-5.32a13.57,13.57,0,0,0-.93-2.85c-.31-.81-.66-1.71-1-2.61-.64-1.89-6.09-3.65-7.12-3.87-1.43.09-3.93,3.71-4.65,5.1-.07.13-.29.79-.27,3.55v.13c.08.23.94,1.94,1.31,2.68C68.6,44.19,68.76,44.49,68.83,44.66Zm0,.08s0,0,0,0Z"/><path d="M70.87,49.29c.18,0,6.87,1.83,7.73,4.35s2,5,1.93,5.77S79.39,64.74,76,65.34c-1.51.13-3.56-.79-5.42-1.14A7.12,7.12,0,0,1,67,62.66c-.09-.25-1.83-3.54-1.83-3.88s-.06-3.22.35-4S68.78,49.29,70.87,49.29Z" fill="#fff"/><path d="M75.67,66a12.5,12.5,0,0,1-3.25-.63,20,20,0,0,0-2-.52c-1.6-.3-3.76-1.25-4-2L66,62.08c-1.27-2.51-1.46-3-1.46-3.3v-.13c0-3,.23-3.82.42-4.2,0-.06,3.17-5.86,6-5.86.31,0,7.39,1.9,8.39,4.83.3.88.64,1.75.94,2.55.73,1.86,1.1,2.87,1,3.52C81,61,79.71,65.39,76.07,66Zm-8-3.75a8.12,8.12,0,0,0,3,1.23c.71.13,1.44.34,2.15.54a9.56,9.56,0,0,0,3.09.58c3.17-.55,3.93-5.27,3.93-5.32a13.75,13.75,0,0,0-.93-2.85c-.31-.81-.66-1.7-1-2.6-.64-1.9-6.09-3.66-7.12-3.88-1.43.09-3.93,3.71-4.65,5.1-.07.14-.29.79-.27,3.55v.14c.08.22,1,1.94,1.32,2.67C67.39,61.82,67.55,62.13,67.62,62.29Zm0,.08,0,0Z"/><g clip-path="url(#d)"><polygon points="44.96 55.92 44.91 55.88 61.54 34.34 61.59 34.37 44.96 55.92"/><polygon points="47.62 59.37 47.58 59.34 64.21 37.79 64.25 37.83 47.62 59.37"/><polygon points="51.35 64.2 51.31 64.17 67.94 42.63 67.98 42.66 51.35 64.2"/><polygon points="53.48 66.96 53.44 66.93 70.07 45.39 70.11 45.42 53.48 66.96"/><polygon points="55.61 69.72 55.57 69.69 72.2 48.15 72.24 48.18 55.61 69.72"/><polygon points="56.68 71.11 56.64 71.07 73.27 49.53 73.31 49.56 56.68 71.11"/><polygon points="59.34 74.56 59.3 74.52 75.93 52.98 75.97 53.01 59.34 74.56"/><polygon points="35.9 44.18 35.85 44.15 52.48 22.61 52.53 22.64 35.9 44.18"/><polygon points="38.03 46.94 37.98 46.91 54.62 25.37 54.66 25.4 38.03 46.94"/><polygon points="40.16 49.7 40.12 49.67 56.75 28.13 56.79 28.16 40.16 49.7"/><polygon points="41.76 51.77 41.72 51.74 58.35 30.2 58.39 30.23 41.76 51.77"/><polygon points="43.36 53.85 43.31 53.81 59.95 32.27 59.99 32.3 43.36 53.85"/><polygon points="45.49 56.61 45.45 56.57 62.08 35.03 62.12 35.06 45.49 56.61"/><polygon points="49.22 61.44 49.18 61.41 65.81 39.86 65.85 39.9 49.22 61.44"/><polygon points="51.88 64.89 51.84 64.86 68.47 43.32 68.51 43.35 51.88 64.89"/><polygon points="58.28 73.18 58.24 73.14 74.87 51.6 74.91 51.63 58.28 73.18"/><polygon points="60.41 75.94 60.37 75.9 77 54.36 77.04 54.39 60.41 75.94"/><polygon points="48.15 60.06 48.11 60.03 64.74 38.48 64.78 38.52 48.15 60.06"/><polygon points="50.82 63.51 50.77 63.48 67.41 41.93 67.45 41.97 50.82 63.51"/><polygon points="54.02 67.65 53.97 67.62 70.6 46.08 70.65 46.11 54.02 67.65"/><polygon points="55.08 69.03 55.04 69 71.67 47.46 71.71 47.49 55.08 69.03"/><polygon points="57.21 71.8 57.17 71.76 73.8 50.22 73.84 50.25 57.21 71.8"/><polygon points="58.81 73.87 58.77 73.83 75.4 52.29 75.44 52.32 58.81 73.87"/><polygon points="34.83 42.8 34.79 42.77 51.42 21.23 51.46 21.26 34.83 42.8"/><polygon points="36.43 44.87 36.39 44.84 53.02 23.3 53.06 23.33 36.43 44.87"/><polygon points="39.09 48.32 39.05 48.29 55.68 26.75 55.72 26.78 39.09 48.32"/><polygon points="40.69 50.4 40.65 50.36 57.28 28.82 57.32 28.85 40.69 50.4"/><polygon points="42.82 53.16 42.78 53.12 59.41 31.58 59.45 31.61 42.82 53.16"/><polygon points="43.89 54.54 43.85 54.5 60.48 32.96 60.52 32.99 43.89 54.54"/><polygon points="47.09 58.68 47.05 58.65 63.68 37.1 63.72 37.14 47.09 58.68"/><polygon points="49.75 62.13 49.71 62.1 66.34 40.55 66.38 40.59 49.75 62.13"/><polygon points="32.43 39.69 32.39 39.66 49.02 18.12 49.06 18.15 32.43 39.69"/><polygon points="32.7 40.04 32.66 40.01 49.29 18.46 49.33 18.5 32.7 40.04"/><polygon points="33.23 40.73 33.19 40.7 49.82 19.15 49.86 19.19 33.23 40.73"/><polygon points="33.77 41.42 33.72 41.39 50.35 19.84 50.4 19.88 33.77 41.42"/><polygon points="34.3 42.11 34.25 42.08 50.88 20.53 50.93 20.57 34.3 42.11"/><polygon points="35.36 43.49 35.32 43.46 51.95 21.91 51.99 21.95 35.36 43.49"/><polygon points="37.49 46.25 37.45 46.22 54.08 24.68 54.13 24.71 37.49 46.25"/><polygon points="39.63 49.02 39.58 48.98 56.21 27.44 56.26 27.47 39.63 49.02"/><polygon points="46.02 57.3 45.98 57.27 62.61 35.72 62.65 35.76 46.02 57.3"/><polygon points="48.69 60.75 48.64 60.72 65.27 39.17 65.32 39.21 48.69 60.75"/><polygon points="52.42 65.58 52.37 65.55 69 44.01 69.05 44.04 52.42 65.58"/><polygon points="54.55 68.34 54.51 68.31 71.14 46.77 71.18 46.8 54.55 68.34"/><polygon points="56.15 70.42 56.1 70.38 72.73 48.84 72.78 48.87 56.15 70.42"/><polygon points="57.74 72.49 57.7 72.45 74.33 50.91 74.38 50.94 57.74 72.49"/><polygon points="59.88 75.25 59.84 75.21 76.47 53.67 76.51 53.7 59.88 75.25"/><polygon points="36.96 45.56 36.92 45.53 53.55 23.98 53.59 24.02 36.96 45.56"/><polygon points="38.56 47.63 38.52 47.6 55.15 26.06 55.19 26.09 38.56 47.63"/><polygon points="41.23 51.09 41.18 51.05 57.81 29.51 57.85 29.54 41.23 51.09"/><polygon points="42.29 52.47 42.25 52.43 58.88 30.89 58.92 30.92 42.29 52.47"/><polygon points="44.42 55.23 44.38 55.19 61.01 33.65 61.05 33.69 44.42 55.23"/><polygon points="46.55 57.99 46.51 57.95 63.14 36.41 63.18 36.45 46.55 57.99"/><polygon points="50.28 62.82 50.24 62.79 66.87 41.24 66.92 41.28 50.28 62.82"/><polygon points="52.95 66.27 52.91 66.24 69.54 44.7 69.58 44.73 52.95 66.27"/><polygon points="60.94 76.63 60.9 76.59 77.53 55.05 77.57 55.09 60.94 76.63"/><polygon points="61.48 77.32 61.43 77.28 78.06 55.74 78.11 55.77 61.48 77.32"/><polygon points="62.01 78.01 61.97 77.97 78.6 56.43 78.64 56.47 62.01 78.01"/><polygon points="62.54 78.7 62.5 78.67 79.13 57.12 79.17 57.16 62.54 78.7"/><polygon points="63.07 79.39 63.03 79.36 79.66 57.81 79.7 57.85 63.07 79.39"/><polygon points="63.61 80.08 63.56 80.05 80.2 58.5 80.24 58.54 63.61 80.08"/><polygon points="64.14 80.77 64.1 80.74 80.73 59.19 80.77 59.23 64.14 80.77"/><polygon points="64.67 81.46 64.63 81.43 81.26 59.88 81.3 59.92 64.67 81.46"/><polygon points="65.21 82.15 65.16 82.12 81.8 60.57 81.84 60.61 65.21 82.15"/><polygon points="65.74 82.84 65.7 82.81 82.33 61.27 82.37 61.3 65.74 82.84"/><polygon points="66.27 83.53 66.23 83.5 82.86 61.95 82.9 61.99 66.27 83.53"/><polygon points="66.81 84.22 66.76 84.19 83.39 62.65 83.44 62.68 66.81 84.22"/><polygon points="67.34 84.91 67.3 84.88 83.92 63.34 83.97 63.37 67.34 84.91"/><polygon points="67.87 85.6 67.83 85.57 84.46 64.03 84.5 64.06 67.87 85.6"/><polygon points="68.4 86.29 68.36 86.26 84.99 64.72 85.03 64.75 68.4 86.29"/><polygon points="68.94 86.98 68.89 86.95 85.52 65.41 85.57 65.44 68.94 86.98"/><polygon points="69.47 87.67 69.43 87.64 86.06 66.1 86.1 66.13 69.47 87.67"/><polygon points="70 88.36 69.96 88.33 86.59 66.79 86.63 66.82 70 88.36"/><polygon points="70.53 89.05 70.49 89.02 87.12 67.48 87.17 67.51 70.53 89.05"/><polygon points="71.07 89.74 71.03 89.71 87.66 68.17 87.7 68.2 71.07 89.74"/><polygon points="71.6 90.44 71.56 90.4 88.19 68.86 88.23 68.89 71.6 90.44"/><polygon points="72.13 91.13 72.09 91.09 88.72 69.55 88.77 69.58 72.13 91.13"/><polygon points="72.67 91.81 72.62 91.78 89.25 70.24 89.3 70.27 72.67 91.81"/><polygon points="73.2 92.51 73.16 92.47 89.79 70.93 89.83 70.96 73.2 92.51"/><polygon points="73.73 93.2 73.69 93.16 90.32 71.62 90.36 71.65 73.73 93.2"/><polygon points="74.27 93.89 74.22 93.85 90.85 72.31 90.9 72.34 74.27 93.89"/><polygon points="74.8 94.58 74.76 94.54 91.39 73 91.43 73.03 74.8 94.58"/><polygon points="75.33 95.27 75.29 95.23 91.92 73.69 91.96 73.72 75.33 95.27"/><polygon points="75.86 95.96 75.82 95.92 92.45 74.38 92.49 74.41 75.86 95.96"/><polygon points="76.4 96.65 76.36 96.61 92.98 75.07 93.03 75.11 76.4 96.65"/><polygon points="76.93 97.34 76.89 97.3 93.52 75.76 93.56 75.8 76.93 97.34"/><polygon points="77.46 98.03 77.42 98 94.05 76.45 94.09 76.48 77.46 98.03"/><polygon points="78 98.72 77.95 98.69 94.58 77.14 94.63 77.18 78 98.72"/><polygon points="78.53 99.41 78.49 99.38 95.12 77.83 95.16 77.87 78.53 99.41"/><polygon points="79.06 100.1 79.02 100.07 95.65 78.52 95.69 78.56 79.06 100.1"/><polygon points="79.59 100.79 79.55 100.76 96.18 79.21 96.22 79.25 79.59 100.79"/><polygon points="80.13 101.48 80.09 101.45 96.72 79.9 96.76 79.94 80.13 101.48"/><polygon points="80.66 102.17 80.62 102.14 97.25 80.59 97.29 80.63 80.66 102.17"/><polygon points="81.19 102.86 81.15 102.83 97.78 81.28 97.82 81.32 81.19 102.86"/><polygon points="81.73 103.55 81.68 103.52 98.31 81.97 98.36 82.01 81.73 103.55"/><polygon points="82.26 104.24 82.22 104.21 98.85 82.67 98.89 82.7 82.26 104.24"/><polygon points="82.79 104.93 82.75 104.9 99.38 83.36 99.42 83.39 82.79 104.93"/><polygon points="83.33 105.62 83.28 105.59 99.91 84.05 99.96 84.08 83.33 105.62"/><polygon points="83.86 106.31 83.82 106.28 100.45 84.74 100.49 84.77 83.86 106.31"/><polygon points="45.76 56.95 45.71 56.92 62.34 35.38 62.38 35.41 45.76 56.95"/><polygon points="48.42 60.41 48.38 60.37 65.01 38.83 65.05 38.86 48.42 60.41"/><polygon points="52.15 65.24 52.11 65.2 68.74 43.66 68.78 43.69 52.15 65.24"/><polygon points="54.28 68 54.24 67.97 70.87 46.42 70.91 46.45 54.28 68"/><polygon points="56.41 70.76 56.37 70.73 73 49.18 73.04 49.22 56.41 70.76"/><polygon points="57.48 72.14 57.44 72.11 74.07 50.56 74.11 50.6 57.48 72.14"/><polygon points="60.14 75.59 60.1 75.56 76.73 54.02 76.77 54.05 60.14 75.59"/><polygon points="36.7 45.22 36.65 45.18 53.28 23.64 53.33 23.68 36.7 45.22"/><polygon points="38.83 47.98 38.78 47.95 55.41 26.4 55.46 26.43 38.83 47.98"/><polygon points="40.96 50.74 40.92 50.71 57.55 29.16 57.59 29.2 40.96 50.74"/><polygon points="42.56 52.81 42.52 52.78 59.15 31.23 59.19 31.27 42.56 52.81"/><polygon points="44.16 54.88 44.11 54.85 60.74 33.31 60.79 33.34 44.16 54.88"/><polygon points="46.29 57.64 46.24 57.61 62.88 36.07 62.92 36.1 46.29 57.64"/><polygon points="50.02 62.48 49.98 62.44 66.61 40.9 66.65 40.93 50.02 62.48"/><polygon points="52.68 65.93 52.64 65.89 69.27 44.35 69.31 44.38 52.68 65.93"/><polygon points="59.08 74.21 59.04 74.18 75.67 52.63 75.71 52.67 59.08 74.21"/><polygon points="61.21 76.97 61.17 76.94 77.8 55.4 77.84 55.43 61.21 76.97"/><polygon points="48.95 61.1 48.91 61.06 65.54 39.52 65.58 39.55 48.95 61.1"/><polygon points="51.62 64.55 51.58 64.51 68.2 42.97 68.25 43 51.62 64.55"/><polygon points="54.81 68.69 54.77 68.66 71.4 47.11 71.44 47.15 54.81 68.69"/><polygon points="55.88 70.07 55.84 70.04 72.47 48.49 72.51 48.53 55.88 70.07"/><polygon points="58.01 72.83 57.97 72.8 74.6 51.26 74.64 51.29 58.01 72.83"/><polygon points="59.61 74.9 59.57 74.87 76.2 53.33 76.24 53.36 59.61 74.9"/><polygon points="35.63 43.84 35.59 43.8 52.22 22.26 52.26 22.29 35.63 43.84"/><polygon points="37.23 45.91 37.19 45.87 53.82 24.33 53.86 24.36 37.23 45.91"/><polygon points="39.89 49.36 39.85 49.33 56.48 27.78 56.52 27.82 39.89 49.36"/><polygon points="41.49 51.43 41.45 51.4 58.08 29.85 58.12 29.89 41.49 51.43"/><polygon points="43.62 54.19 43.58 54.16 60.21 32.62 60.25 32.65 43.62 54.19"/><polygon points="44.69 55.57 44.65 55.54 61.28 33.99 61.32 34.03 44.69 55.57"/><polygon points="47.89 59.71 47.84 59.68 64.47 38.14 64.52 38.17 47.89 59.71"/><polygon points="50.55 63.17 50.51 63.13 67.14 41.59 67.18 41.62 50.55 63.17"/><polygon points="32.97 40.38 32.92 40.35 49.55 18.81 49.6 18.84 32.97 40.38"/><polygon points="33.5 41.08 33.45 41.04 50.09 19.5 50.13 19.53 33.5 41.08"/><polygon points="34.03 41.77 33.99 41.73 50.62 20.19 50.66 20.22 34.03 41.77"/><polygon points="34.56 42.46 34.52 42.42 51.15 20.88 51.19 20.91 34.56 42.46"/><polygon points="35.1 43.15 35.05 43.11 51.69 21.57 51.73 21.6 35.1 43.15"/><polygon points="36.16 44.53 36.12 44.49 52.75 22.95 52.79 22.98 36.16 44.53"/><polygon points="38.29 47.29 38.25 47.26 54.88 25.71 54.92 25.75 38.29 47.29"/><polygon points="40.43 50.05 40.38 50.02 57.01 28.47 57.06 28.51 40.43 50.05"/><polygon points="46.82 58.33 46.78 58.3 63.41 36.76 63.45 36.79 46.82 58.33"/><polygon points="49.49 61.78 49.44 61.75 66.07 40.21 66.11 40.24 49.49 61.78"/><polygon points="53.22 66.62 53.17 66.58 69.8 45.04 69.85 45.08 53.22 66.62"/><polygon points="55.35 69.38 55.3 69.34 71.94 47.8 71.98 47.84 55.35 69.38"/><polygon points="56.95 71.45 56.9 71.42 73.53 49.87 73.58 49.91 56.95 71.45"/><polygon points="58.55 73.52 58.5 73.49 75.13 51.94 75.17 51.98 58.55 73.52"/><polygon points="60.68 76.28 60.63 76.25 77.26 54.71 77.31 54.74 60.68 76.28"/><polygon points="37.76 46.6 37.72 46.56 54.35 25.02 54.39 25.05 37.76 46.6"/><polygon points="39.36 48.67 39.32 48.64 55.95 27.09 55.99 27.13 39.36 48.67"/><polygon points="42.02 52.12 41.98 52.09 58.61 30.54 58.66 30.58 42.02 52.12"/><polygon points="43.09 53.5 43.05 53.47 59.68 31.92 59.72 31.96 43.09 53.5"/><polygon points="45.22 56.26 45.18 56.23 61.81 34.69 61.85 34.72 45.22 56.26"/><polygon points="47.35 59.02 47.31 58.99 63.94 37.45 63.98 37.48 47.35 59.02"/><polygon points="51.08 63.86 51.04 63.82 67.67 42.28 67.71 42.31 51.08 63.86"/><polygon points="53.75 67.31 53.71 67.27 70.34 45.73 70.38 45.77 53.75 67.31"/><polygon points="61.74 77.66 61.7 77.63 78.33 56.09 78.37 56.12 61.74 77.66"/><polygon points="62.27 78.35 62.23 78.32 78.86 56.78 78.91 56.81 62.27 78.35"/><polygon points="62.81 79.05 62.77 79.01 79.4 57.47 79.44 57.5 62.81 79.05"/><polygon points="63.34 79.73 63.3 79.7 79.93 58.16 79.97 58.19 63.34 79.73"/><polygon points="63.87 80.42 63.83 80.39 80.46 58.85 80.5 58.88 63.87 80.42"/><polygon points="64.41 81.12 64.36 81.08 81 59.54 81.04 59.57 64.41 81.12"/><polygon points="64.94 81.81 64.9 81.77 81.53 60.23 81.57 60.26 64.94 81.81"/><polygon points="65.47 82.5 65.43 82.46 82.06 60.92 82.1 60.95 65.47 82.5"/><polygon points="66 83.19 65.96 83.15 82.59 61.61 82.64 61.64 66 83.19"/><polygon points="66.54 83.88 66.5 83.84 83.13 62.3 83.17 62.33 66.54 83.88"/><polygon points="67.07 84.57 67.03 84.53 83.66 62.99 83.7 63.02 67.07 84.57"/><polygon points="67.6 85.26 67.56 85.22 84.19 63.68 84.23 63.71 67.6 85.26"/><polygon points="68.14 85.95 68.09 85.91 84.72 64.37 84.77 64.4 68.14 85.95"/><polygon points="68.67 86.64 68.63 86.61 85.26 65.06 85.3 65.09 68.67 86.64"/><polygon points="69.2 87.33 69.16 87.29 85.79 65.75 85.83 65.78 69.2 87.33"/><polygon points="69.74 88.02 69.69 87.98 86.32 66.44 86.37 66.47 69.74 88.02"/><polygon points="70.27 88.71 70.23 88.68 86.86 67.13 86.9 67.17 70.27 88.71"/><polygon points="70.8 89.4 70.76 89.36 87.39 67.82 87.43 67.86 70.8 89.4"/><polygon points="71.33 90.09 71.29 90.06 87.92 68.51 87.97 68.55 71.33 90.09"/><polygon points="71.87 90.78 71.83 90.75 88.46 69.2 88.5 69.24 71.87 90.78"/><polygon points="72.4 91.47 72.36 91.44 88.99 69.89 89.03 69.93 72.4 91.47"/><polygon points="72.93 92.16 72.89 92.13 89.52 70.58 89.56 70.62 72.93 92.16"/><polygon points="73.47 92.85 73.42 92.82 90.06 71.28 90.1 71.31 73.47 92.85"/><polygon points="74 93.54 73.96 93.51 90.59 71.96 90.63 72 74 93.54"/><polygon points="74.53 94.23 74.49 94.2 91.12 72.66 91.16 72.69 74.53 94.23"/><polygon points="75.06 94.92 75.02 94.89 91.65 73.34 91.69 73.38 75.06 94.92"/><polygon points="75.6 95.61 75.56 95.58 92.19 74.03 92.23 74.07 75.6 95.61"/><polygon points="76.13 96.3 76.09 96.27 92.72 74.73 92.76 74.76 76.13 96.3"/><polygon points="76.66 96.99 76.62 96.96 93.25 75.42 93.29 75.45 76.66 96.99"/><polygon points="77.2 97.68 77.16 97.65 93.78 76.11 93.83 76.14 77.2 97.68"/><polygon points="77.73 98.37 77.69 98.34 94.32 76.8 94.36 76.83 77.73 98.37"/><polygon points="78.26 99.06 78.22 99.03 94.85 77.49 94.89 77.52 78.26 99.06"/><polygon points="78.8 99.75 78.75 99.72 95.38 78.18 95.42 78.21 78.8 99.75"/><polygon points="79.33 100.44 79.29 100.41 95.92 78.87 95.96 78.9 79.33 100.44"/><polygon points="79.86 101.14 79.82 101.1 96.45 79.56 96.49 79.59 79.86 101.14"/><polygon points="80.39 101.83 80.35 101.79 96.98 80.25 97.03 80.28 80.39 101.83"/><polygon points="80.93 102.52 80.88 102.48 97.52 80.94 97.56 80.97 80.93 102.52"/><polygon points="81.46 103.21 81.42 103.17 98.05 81.63 98.09 81.66 81.46 103.21"/><polygon points="81.99 103.9 81.95 103.86 98.58 82.32 98.62 82.35 81.99 103.9"/><polygon points="82.53 104.59 82.48 104.55 99.11 83.01 99.16 83.04 82.53 104.59"/><polygon points="83.06 105.28 83.02 105.24 99.65 83.7 99.69 83.73 83.06 105.28"/><polygon points="83.59 105.97 83.55 105.93 100.18 84.39 100.22 84.42 83.59 105.97"/><polygon points="84.12 106.66 84.08 106.63 100.71 85.08 100.75 85.11 84.12 106.66"/><polygon points="84.39 107 84.35 106.97 100.98 85.43 101.02 85.46 84.39 107"/></g><rect x="62.35" y="42.05" width="0.81" height="36.37"/><rect x="66.3" y="42.05" width="0.81" height="36.37"/><rect x="62.75" y="77.61" width="3.95" height="0.81"/></svg>