<?xml version="1.0" encoding="utf-8"?>
<!-- Generator: Adobe Illustrator 25.2.0, SVG Export Plug-In . SVG Version: 6.00 Build 0)  -->
<svg version="1.1" id="Layer_1" xmlns="http://www.w3.org/2000/svg" xmlns:xlink="http://www.w3.org/1999/xlink" x="0px" y="0px"
	 viewBox="0 0 100 100" style="enable-background:new 0 0 100 100;" xml:space="preserve">
<rect x="0" y="0" style="fill:#33751F;" width="100" height="100"/>
<polygon style="fill:#FFFFFF;stroke:#000000;stroke-miterlimit:10;" points="88.9,9.9 67.7,9.9 67.7,14.7 67.7,19.5 67.7,27.9 
	54,27.9 54,33.3 54,37.6 54,45.9 39.4,45.9 39.4,49.8 39.2,49.8 39.2,64 25.1,64 25.1,64.9 25.1,72.9 25.1,81.2 11.1,81.2 
	11.1,90.1 32.3,90.1 32.3,83.6 32.3,81.2 32.3,72.9 46.4,72.9 46.4,68.4 46.4,64 46.4,54.9 61.1,54.9 61.1,51.9 61.1,45.9 
	61.1,37.6 74.9,37.6 74.9,33.4 74.9,27.9 74.9,19.5 88.9,19.5 "/>
</svg>
