<?xml version="1.0" encoding="iso-8859-1"?>
<!-- Generator: Adobe Illustrator 25.3.1, SVG Export Plug-In . SVG Version: 6.00 Build 0)  -->
<svg version="1.1" id="Layer_1" xmlns="http://www.w3.org/2000/svg" xmlns:xlink="http://www.w3.org/1999/xlink" x="0px" y="0px"
	 viewBox="0 0 100 100" style="enable-background:new 0 0 100 100;" xml:space="preserve">
<polygon style="fill:#33751F;" points="0,0 50,0 100,0 100,50 100,100 50,100 0,100 0,50 "/>
<path style="fill:#FFFFFF;stroke:#000000;stroke-miterlimit:10;" d="M81.1,86.7l-2.05-6.55L77,73.6h-4.65H67.7l-0.25-1.55L67.2,70.5
	h3.85h3.85v-1.05V68.4h-4.1h-4.1l-0.45-4.35L65.8,59.7c0.05,0,0.1,0,0.162,0s0.137,0,0.238,0c0.85,0,1.6-0.375,2.137-0.963
	C68.875,58.15,69.2,57.35,69.2,56.5c0-0.9-0.325-1.7-0.863-2.275C67.8,53.65,67.05,53.3,66.2,53.3c-0.7,0-1.375,0.275-1.9,0.737
	s-0.9,1.112-1,1.862V56v0.1c0,0.1,0,0.175,0,0.25s0,0.15,0,0.25c0,0.25,0.025,0.475,0.075,0.7S63.5,57.75,63.6,58l1.15,8.7l1.15,8.7
	h4.75h4.75l2.2,6.65l2.2,6.65l2.6-0.8l2.6-0.8v-0.7v-0.7l-1.95,0.5L81.1,86.7z"/>
<path style="fill:#FFFFFF;stroke:#000000;stroke-miterlimit:10;" d="M75.8,81.6c-0.5,1.7-1.475,3.15-2.762,4.175
	C71.75,86.8,70.15,87.4,68.4,87.4c-2.15,0-4.1-0.95-5.513-2.488C61.475,83.375,60.6,81.25,60.6,78.9c0-1.35,0.3-2.625,0.825-3.762
	C61.95,74,62.7,73,63.6,72.2l-0.05-1.25L63.5,69.7c-1.45,0.9-2.675,2.2-3.538,3.775C59.1,75.05,58.6,76.9,58.6,78.9
	c0,2.9,1.1,5.55,2.862,7.475C63.225,88.3,65.65,89.5,68.3,89.5c1.85,0,3.575-0.55,5.037-1.512C74.8,87.025,76,85.65,76.8,84
	l-0.5-1.2L75.8,81.6z"/>
<polygon style="fill:#FFFFFF;stroke:#000000;stroke-miterlimit:10;" points="87,9.9 76.9,9.9 66.8,9.9 66.8,12.3 66.8,14.7 
	66.8,17.1 66.8,19.5 66.8,23.7 66.8,27.9 60.3,27.9 53.8,27.9 53.8,30.6 53.8,33.3 53.8,35.45 53.8,37.6 53.8,41.75 53.8,45.9 
	46.85,45.9 39.9,45.9 39.9,47.85 39.9,49.8 39.8,49.8 39.7,49.8 39.7,56.9 39.7,64 33.05,64 26.4,64 26.4,64.45 26.4,64.9 
	26.4,68.9 26.4,72.9 26.4,77.05 26.4,81.2 19.7,81.2 13,81.2 13,85.65 13,90.1 23.1,90.1 33.2,90.1 33.2,86.85 33.2,83.6 33.2,82.4 
	33.2,81.2 33.2,77.05 33.2,72.9 39.9,72.9 46.6,72.9 46.6,70.65 46.6,68.4 46.6,66.2 46.6,64 46.6,59.45 46.6,54.9 53.6,54.9 
	60.6,54.9 60.6,53.4 60.6,51.9 60.6,48.9 60.6,45.9 60.6,41.75 60.6,37.6 67.1,37.6 73.6,37.6 73.6,35.5 73.6,33.4 73.6,30.65 
	73.6,27.9 73.6,23.7 73.6,19.5 80.3,19.5 87,19.5 87,14.7 "/>
</svg>
