<?xml version="1.0" encoding="utf-8"?>
<!-- Generator: Adobe Illustrator 25.2.0, SVG Export Plug-In . SVG Version: 6.00 Build 0)  -->
<svg version="1.1" id="Layer_1" xmlns="http://www.w3.org/2000/svg" xmlns:xlink="http://www.w3.org/1999/xlink" x="0px" y="0px"
	 viewBox="0 0 100 100" style="enable-background:new 0 0 100 100;" xml:space="preserve">
<rect x="0" y="0" style="fill:#33751F;" width="100" height="100"/>
<g>
	<g>
		<path style="fill:#FFFFFF;" d="M61.5,42c-2.7,1.2-6.3,1.7-10.7,1.7c-5.7,0-10.2-1.5-13.5-4.4s-4.9-6.9-4.9-11.8
			c0-5.2,1.8-9.5,5.5-12.7c3.7-3.3,8.5-4.9,14.3-4.9c3.6,0,6.7,0.4,9.2,1.2v7.1c-2.5-1.3-5.3-2-8.5-2c-3.5,0-6.3,1-8.5,2.9
			c-2.2,1.9-3.2,4.6-3.2,7.9c0,3.2,1,5.7,3,7.6c2,1.9,4.8,2.8,8.2,2.8c3.3,0,6.3-0.7,9-2.1V42z"/>
	</g>
	<g>
		<path style="fill:#FFFFFF;" d="M61.5,69.3v-6.9c1.7,1,3.5,1.8,5.5,2.3s4,0.8,6,0.8c1.2,0,2.2-0.1,3.1-0.2s1.6-0.4,2.2-0.7
			c0.6-0.3,1-0.6,1.3-1c0.3-0.4,0.4-0.8,0.4-1.2c0-0.6-0.2-1.1-0.7-1.6c-0.5-0.5-1.1-0.9-1.9-1.3c-0.8-0.4-1.8-0.8-2.9-1.2
			c-1.1-0.4-2.3-0.8-3.6-1.1c-3.2-1-5.7-2.2-7.3-3.7c-1.6-1.4-2.4-3.2-2.4-5.2c0-1.6,0.4-3,1.3-4.1c0.9-1.1,2.1-2.1,3.5-2.8
			c1.5-0.7,3.2-1.3,5.2-1.6s4.1-0.5,6.3-0.5c2.2,0,4.1,0.1,5.8,0.3c1.7,0.2,3.2,0.5,4.6,0.9v6.4c-0.7-0.4-1.5-0.7-2.3-0.9
			c-0.8-0.3-1.7-0.5-2.5-0.7c-0.9-0.2-1.7-0.3-2.6-0.4c-0.9-0.1-1.7-0.1-2.4-0.1c-1.1,0-2,0.1-2.9,0.2c-0.9,0.2-1.6,0.4-2.2,0.6
			c-0.6,0.3-1.1,0.6-1.4,1s-0.5,0.8-0.5,1.3c0,0.5,0.2,1,0.6,1.4c0.4,0.4,0.9,0.8,1.6,1.2s1.5,0.7,2.5,1.1s2.1,0.7,3.3,1.1
			c1.7,0.5,3.2,1.1,4.5,1.6c1.3,0.6,2.5,1.2,3.4,2c0.9,0.7,1.7,1.6,2.2,2.5s0.8,2,0.8,3.3c0,1.7-0.4,3.2-1.3,4.3
			c-0.9,1.2-2.1,2.1-3.6,2.8c-1.5,0.7-3.3,1.2-5.3,1.6c-2,0.3-4.1,0.5-6.3,0.5c-2.3,0-4.4-0.1-6.5-0.4C64.8,70.3,63,69.9,61.5,69.3z
			"/>
	</g>
	<path style="fill:#FFFFFF;" d="M22.9,46.8c-1.9,0.8-5.2,3.1-7.9,3.5V11.8h-2.3v38.5c-2.7-0.6-5.9-2.7-7.7-3.4
		c-0.9-0.4-1.8,0.5-1.5,1.4L13.1,74c0.3,0.8,1.4,0.8,1.7,0l9.5-25.8C24.7,47.4,23.8,46.5,22.9,46.8z"/>
	<g>
		<g>
			<polygon style="fill:#FFFFFF;" points="95.3,73.5 93.3,73.5 93.3,7.6 29,7.6 29,72.5 27,72.5 27,5.6 95.3,5.6 			"/>
		</g>
		<g>
			<rect x="28" y="73" style="fill:#FFFFFF;" width="66.2" height="1"/>
		</g>
		<g>
			<path style="fill:#FFFFFF;" d="M77.7,93.1c-0.1,0-0.2,0-0.3-0.1c-0.1-0.1-0.2-0.3-0.2-0.4V81.4c0-0.2,0.1-0.4,0.3-0.4l16.9-8.4
				c0.2-0.1,0.3-0.1,0.5,0C95,72.7,95,72.8,95,73v10.9c0,0.2-0.1,0.4-0.3,0.4L77.9,93C77.8,93.1,77.8,93.1,77.7,93.1z M78.2,81.7
				v10.1L94,83.6v-9.8L78.2,81.7z"/>
		</g>
		<g>
			<path style="fill:#FFFFFF;" d="M8.5,93.1c-0.1,0-0.2,0-0.3-0.1C8.1,92.9,8,92.8,8,92.6V81.4c0-0.2,0.1-0.4,0.3-0.5l19.5-8.6
				c0.2-0.1,0.3-0.1,0.5,0s0.2,0.2,0.2,0.4v10.9c0,0.2-0.1,0.4-0.3,0.5L8.7,93C8.7,93.1,8.6,93.1,8.5,93.1z M9,81.7v10.1l18.5-8.4
				v-9.8L9,81.7z"/>
		</g>
		<g>
			<rect x="8.5" y="81.4" style="fill:#33751F;" width="69.2" height="11.2"/>
			<path style="fill:#FFFFFF;" d="M77.7,93.1H8.5c-0.3,0-0.5-0.2-0.5-0.5V81.4c0-0.3,0.2-0.5,0.5-0.5h69.2c0.3,0,0.5,0.2,0.5,0.5
				v11.2C78.2,92.9,78,93.1,77.7,93.1z M9,92.1h68.2V81.9H9V92.1z"/>
		</g>
	</g>
</g>
</svg>
