<?xml version="1.0" encoding="iso-8859-1"?>
<!-- Generator: Adobe Illustrator 25.3.1, SVG Export Plug-In . SVG Version: 6.00 Build 0)  -->
<svg version="1.1" id="Layer_1" xmlns="http://www.w3.org/2000/svg" xmlns:xlink="http://www.w3.org/1999/xlink" x="0px" y="0px"
	 viewBox="0 0 100 100" style="enable-background:new 0 0 100 100;" xml:space="preserve">
<polygon style="fill:#33751F;" points="0,0 50,0 100,0 100,50 100,100 50,100 0,100 0,50 "/>
<path style="fill:#FFFFFF;" d="M58.2,27.6c-0.85-0.15-1.7-0.275-2.55-0.387C54.8,27.1,53.95,27,53.1,26.9l-0.1,1l-0.1,1
	c0.85,0.1,1.7,0.2,2.538,0.312C56.275,29.325,57.1,29.45,57.9,29.6l0.15-1L58.2,27.6z"/>
<path d="M57.9,30.1c0,0-0.025,0-0.038,0S57.85,30.1,57.9,30.1c-0.85-0.15-1.675-0.275-2.5-0.387C54.575,29.6,53.75,29.5,52.9,29.4
	c-0.05,0-0.125-0.025-0.188-0.062S52.6,29.25,52.6,29.2c-0.05-0.05-0.075-0.1-0.087-0.163C52.5,28.975,52.5,28.9,52.5,28.8l0.1-1
	l0.1-1c0-0.05,0.025-0.125,0.062-0.188S52.85,26.5,52.9,26.5c0.05-0.05,0.1-0.075,0.162-0.087C53.125,26.4,53.2,26.4,53.3,26.4
	c0.9,0.1,1.775,0.2,2.638,0.312C56.8,26.825,57.65,26.95,58.5,27.1c0.05,0,0.1,0.025,0.15,0.062c0.05,0.038,0.1,0.087,0.15,0.138
	s0.075,0.1,0.087,0.163C58.9,27.525,58.9,27.6,58.9,27.7l-0.2,1l-0.2,1c0,0.05-0.025,0.1-0.062,0.15C58.4,29.9,58.35,29.95,58.3,30
	c-0.1,0.05-0.175,0.075-0.238,0.087C58,30.1,57.95,30.1,57.9,30.1z M53.4,28.5c0.7,0.05,1.375,0.125,2.038,0.225
	c0.662,0.1,1.312,0.225,1.962,0.375l0.1-0.5l0.1-0.5c-0.65-0.1-1.325-0.2-2.013-0.3C54.9,27.7,54.2,27.6,53.5,27.5L53.45,28
	L53.4,28.5z"/>
<path style="fill:#FFFFFF;" d="M76.6,44.8c0,0.15,0,0.275,0,0.4s0,0.25,0,0.4l1,0.05l1,0.05c0-0.15,0-0.3,0-0.438
	c0-0.137,0-0.262,0-0.362c0-0.85-0.05-1.65-0.15-2.4c-0.1-0.75-0.25-1.45-0.45-2.1l-0.95,0.25L76.1,40.9
	c0.15,0.5,0.275,1.1,0.363,1.763C76.55,43.325,76.6,44.05,76.6,44.8z"/>
<path d="M78.5,46.1L78.5,46.1L78.5,46.1l-1-0.05l-1-0.05c-0.15,0-0.275-0.05-0.363-0.138C76.05,45.775,76,45.65,76,45.5
	c0-0.1,0-0.225,0-0.35s0-0.25,0-0.35c0-0.7-0.05-1.4-0.137-2.062C75.775,42.075,75.65,41.45,75.5,40.9
	c-0.05-0.15-0.025-0.275,0.05-0.375c0.075-0.1,0.2-0.175,0.35-0.225l0.95-0.25l0.95-0.25c0.15-0.05,0.275-0.025,0.375,0.05
	c0.1,0.075,0.175,0.2,0.225,0.35c0.2,0.7,0.35,1.45,0.45,2.237C78.95,43.225,79,44.05,79,44.9c0,0.15,0,0.3,0,0.438
	c0,0.137,0,0.262,0,0.362s-0.05,0.2-0.137,0.275C78.775,46.05,78.65,46.1,78.5,46.1z M77.1,45h0.5h0.5c0-0.05,0-0.1,0-0.15
	c0-0.05,0-0.1,0-0.15c0-0.7-0.025-1.375-0.088-2.025C77.95,42.025,77.85,41.4,77.7,40.8l-0.5,0.15l-0.5,0.15
	c0.1,0.55,0.2,1.125,0.275,1.737C77.05,43.45,77.1,44.1,77.1,44.8l0,0l0,0c0,0.05,0,0.1,0,0.138S77.1,45,77.1,45z"/>
<path style="fill:#FFFFFF;" d="M65.3,29.4c-0.8-0.25-1.6-0.5-2.425-0.737C62.05,28.425,61.2,28.2,60.3,28l-0.2,1l-0.2,1
	c0.85,0.2,1.675,0.4,2.475,0.612c0.8,0.212,1.575,0.438,2.325,0.688l0.3-0.95L65.3,29.4z"/>
<path d="M64.7,31.8c-0.05,0-0.075,0-0.1,0s-0.05,0-0.1,0c-0.75-0.25-1.525-0.475-2.325-0.688S60.55,30.7,59.7,30.5
	c-0.15-0.05-0.25-0.125-0.312-0.225S59.3,30.05,59.3,29.9l0.2-1l0.2-1c0-0.05,0.025-0.1,0.062-0.15c0.037-0.05,0.087-0.1,0.138-0.15
	c0.05-0.05,0.1-0.075,0.162-0.087C60.125,27.5,60.2,27.5,60.3,27.5c0.9,0.2,1.775,0.425,2.625,0.663
	C63.775,28.4,64.6,28.65,65.4,28.9c0.05,0,0.1,0.025,0.15,0.075c0.05,0.05,0.1,0.125,0.15,0.225s0.075,0.175,0.075,0.237
	S65.75,29.55,65.7,29.6l-0.35,0.95L65,31.5c0,0.05-0.025,0.1-0.075,0.15C64.875,31.7,64.8,31.75,64.7,31.8c0.05,0,0.05,0,0.038,0
	C64.725,31.8,64.7,31.8,64.7,31.8z M60.4,29.6c0.7,0.15,1.375,0.325,2.025,0.513C63.075,30.3,63.7,30.5,64.3,30.7l0.15-0.45
	l0.15-0.45c-0.65-0.2-1.3-0.4-1.962-0.587C61.975,29.025,61.3,28.85,60.6,28.7l-0.1,0.45L60.4,29.6z"/>
<path style="fill:#FFFFFF;" d="M75.1,38.4c0.05,0.1,0.1,0.2,0.15,0.3c0.05,0.1,0.1,0.2,0.15,0.3l0.9-0.45l0.9-0.45
	c-0.05-0.15-0.125-0.275-0.213-0.4S76.8,37.45,76.7,37.3c-0.4-0.6-0.85-1.2-1.363-1.775C74.825,34.95,74.25,34.4,73.6,33.9
	l-0.65,0.75L72.3,35.4c0.6,0.5,1.125,1,1.587,1.5C74.35,37.4,74.75,37.9,75.1,38.4z"/>
<path d="M75.4,39.5c-0.05,0-0.075,0-0.1,0s-0.05,0-0.1,0s-0.1-0.025-0.15-0.062C75,39.4,74.95,39.35,74.9,39.3
	c-0.05-0.1-0.1-0.2-0.15-0.3c-0.05-0.1-0.1-0.2-0.15-0.3c-0.35-0.5-0.725-1-1.15-1.487c-0.425-0.488-0.9-0.963-1.45-1.413
	c-0.1-0.1-0.15-0.225-0.162-0.35c-0.012-0.125,0.013-0.25,0.062-0.35l0.65-0.75l0.65-0.75c0.1-0.1,0.225-0.15,0.35-0.162
	c0.125-0.013,0.25,0.012,0.35,0.062c0.65,0.55,1.225,1.125,1.75,1.712c0.525,0.588,1,1.188,1.45,1.788
	c0.1,0.15,0.175,0.275,0.25,0.4s0.15,0.25,0.25,0.4c0.05,0.05,0.075,0.125,0.075,0.2c0,0.075-0.025,0.15-0.075,0.2
	c0,0.05-0.025,0.1-0.062,0.15C77.5,38.4,77.45,38.45,77.4,38.5l-0.9,0.45l-0.9,0.45c0,0.05-0.025,0.075-0.062,0.087
	S75.45,39.5,75.4,39.5z M73.1,35.4c0.45,0.45,0.9,0.9,1.312,1.362C74.825,37.225,75.2,37.7,75.5,38.2l0,0l0,0
	c0,0.05,0.025,0.075,0.05,0.1c0.025,0.025,0.05,0.05,0.05,0.1l0.45-0.25l0.45-0.25c-0.05-0.05-0.075-0.1-0.1-0.15
	c-0.025-0.05-0.05-0.1-0.1-0.15c-0.35-0.55-0.75-1.075-1.188-1.575S74.2,35.05,73.7,34.6L73.4,35L73.1,35.4z"/>
<path style="fill:#FFFFFF;" d="M72.9,58.8l0.9,0.45l0.9,0.45c0.4-0.8,0.775-1.6,1.113-2.4c0.338-0.8,0.637-1.6,0.887-2.4l-0.95-0.3
	l-0.95-0.3c-0.25,0.75-0.525,1.525-0.838,2.287C73.65,57.35,73.3,58.1,72.9,58.8z"/>
<path d="M74.7,60.2c-0.05,0-0.1,0-0.137-0.013C74.525,60.175,74.5,60.15,74.5,60.1l-0.9-0.45l-0.9-0.45
	c-0.1-0.05-0.175-0.15-0.213-0.275C72.45,58.8,72.45,58.65,72.5,58.5c0.35-0.75,0.7-1.5,1.025-2.25C73.85,55.5,74.15,54.75,74.4,54
	c0-0.05,0.025-0.1,0.075-0.15c0.05-0.05,0.125-0.1,0.225-0.15c0.05-0.05,0.125-0.075,0.2-0.075c0.075,0,0.15,0.025,0.2,0.075
	l0.95,0.3L77,54.3c0.15,0.05,0.25,0.15,0.3,0.263c0.05,0.112,0.05,0.237,0,0.337c-0.3,0.85-0.625,1.675-0.963,2.487
	S75.65,59,75.3,59.8c-0.05,0.05-0.1,0.1-0.15,0.15C75.1,60,75.05,60.05,75,60.1c-0.1,0.05-0.15,0.075-0.188,0.088
	C74.775,60.2,74.75,60.2,74.7,60.2z M73.6,58.6l0.45,0.2L74.5,59c0.3-0.6,0.575-1.225,0.838-1.875C75.6,56.475,75.85,55.8,76.1,55.1
	l-0.45-0.15L75.2,54.8c-0.25,0.65-0.5,1.3-0.762,1.938C74.175,57.375,73.9,58,73.6,58.6z"/>
<path style="fill:#FFFFFF;" d="M69.2,64.7l0.75,0.65L70.7,66c0.55-0.65,1.075-1.35,1.575-2.088c0.5-0.737,0.975-1.512,1.425-2.312
	l-0.85-0.5L72,60.6c-0.45,0.75-0.9,1.45-1.363,2.125C70.175,63.4,69.7,64.05,69.2,64.7z"/>
<path d="M70.8,66.4c-0.05,0-0.1,0-0.15-0.012c-0.05-0.013-0.1-0.037-0.15-0.088l-0.8-0.65L68.9,65c-0.1-0.1-0.15-0.225-0.162-0.35
	S68.75,64.4,68.8,64.3c0.5-0.6,0.975-1.225,1.425-1.888C70.675,61.75,71.1,61.05,71.5,60.3c0.05-0.1,0.15-0.175,0.275-0.213
	C71.9,60.05,72.05,60.05,72.2,60.1l0.85,0.5l0.85,0.5c0.05,0.05,0.1,0.1,0.137,0.15c0.037,0.05,0.062,0.1,0.062,0.15s0,0.125,0,0.2
	s0,0.15,0,0.2c-0.45,0.8-0.925,1.575-1.425,2.312S71.65,65.55,71.1,66.2c0,0.05-0.05,0.1-0.112,0.137
	C70.925,66.375,70.85,66.4,70.8,66.4L70.8,66.4L70.8,66.4z M69.9,64.6l0.4,0.3l0.4,0.3c0.4-0.55,0.8-1.1,1.2-1.675
	c0.4-0.575,0.8-1.175,1.2-1.825l-0.45-0.25L72.2,61.2c-0.35,0.65-0.725,1.25-1.113,1.812C70.7,63.575,70.3,64.1,69.9,64.6z"/>
<path style="fill:#FFFFFF;" d="M50.9,71.4l-0.1,1l-0.1,1c0.6,0.05,1.175,0.1,1.737,0.137S53.55,73.6,54.1,73.6
	c0.3,0,0.6,0,0.9-0.012c0.3-0.013,0.6-0.037,0.9-0.088l-0.05-1l-0.05-1c-0.75,0.1-1.55,0.125-2.375,0.1S51.75,71.5,50.9,71.4z"/>
<path d="M54.1,74.1c-0.55,0-1.125-0.025-1.712-0.062C51.8,74,51.2,73.95,50.6,73.9c-0.15,0-0.275-0.075-0.35-0.175
	c-0.075-0.1-0.1-0.225-0.05-0.325l0.1-1l0.1-1c0-0.05,0.025-0.125,0.062-0.188C50.5,71.15,50.55,71.1,50.6,71.1
	c0.05-0.05,0.1-0.075,0.162-0.088C50.825,71,50.9,71,51,71c0.85,0.1,1.675,0.15,2.475,0.162c0.8,0.012,1.575-0.013,2.325-0.062
	c0.15,0,0.275,0.05,0.362,0.137S56.3,71.45,56.3,71.6l0.05,1l0.05,1c0,0.05,0,0.125-0.013,0.2c-0.012,0.075-0.037,0.15-0.087,0.2
	c0,0-0.05,0-0.112,0.012C56.125,74.025,56.05,74.05,56,74.1c-0.3,0-0.6,0-0.912,0S54.45,74.1,54.1,74.1z M51.2,73
	c0.75,0.05,1.45,0.1,2.138,0.125C54.025,73.15,54.7,73.15,55.4,73.1l-0.05-0.5l-0.05-0.5c-0.65,0.05-1.3,0.05-1.962,0.025
	C52.675,72.1,52,72.05,51.3,72l-0.05,0.5L51.2,73z"/>
<path style="fill:#FFFFFF;" d="M57.8,71.3l0.15,1l0.15,1c0.9-0.15,1.8-0.35,2.662-0.6s1.688-0.55,2.438-0.9l-0.4-0.9L62.4,70
	c-0.7,0.3-1.45,0.575-2.225,0.8C59.4,71.025,58.6,71.2,57.8,71.3z"/>
<path d="M58.1,73.8c-0.05,0-0.1,0-0.15-0.012c-0.05-0.013-0.1-0.038-0.15-0.088s-0.1-0.1-0.138-0.15
	c-0.037-0.05-0.062-0.1-0.062-0.15l-0.15-1l-0.15-1c0-0.15,0.025-0.275,0.087-0.375S57.55,70.85,57.7,70.8
	c0.8-0.1,1.575-0.275,2.325-0.5c0.75-0.225,1.475-0.5,2.175-0.8c0.15-0.05,0.275-0.05,0.388,0c0.112,0.05,0.213,0.15,0.312,0.3
	l0.4,0.9l0.4,0.9c0.05,0.05,0.075,0.125,0.075,0.2c0,0.075-0.025,0.15-0.075,0.2c0,0.05-0.025,0.1-0.075,0.15
	c-0.05,0.05-0.125,0.1-0.225,0.15c-0.8,0.35-1.65,0.65-2.538,0.9C59.975,73.45,59.05,73.65,58.1,73.8L58.1,73.8L58.1,73.8z
	 M58.3,71.8l0.1,0.5l0.1,0.5c0.7-0.15,1.4-0.3,2.088-0.488S61.95,71.9,62.6,71.6l-0.2-0.45l-0.2-0.45
	c-0.6,0.2-1.225,0.4-1.875,0.587C59.675,71.475,59,71.65,58.3,71.8z"/>
<polygon style="fill:#FFFFFF;" points="41.7,71.6 42.2,70.7 42.7,69.8 42.15,69.5 41.6,69.2 43.9,69 46.2,68.8 46,67.45 45.8,66.1 
	39.9,67.1 34,68.1 38.45,72.55 42.9,77 43.5,76.15 44.1,75.3 42.15,73 40.2,70.7 40.95,71.15 "/>
<path d="M42.9,77.5c-0.05,0-0.125-0.025-0.2-0.05c-0.075-0.025-0.15-0.05-0.2-0.05L38.05,73l-4.45-4.4
	c-0.05-0.05-0.1-0.125-0.125-0.213S33.45,68.2,33.5,68.1c0.05-0.1,0.1-0.175,0.162-0.225S33.8,67.8,33.9,67.8l5.9-1l5.9-1
	c0.05,0,0.125,0,0.2,0.012c0.075,0.013,0.15,0.037,0.2,0.088s0.1,0.1,0.138,0.15c0.037,0.05,0.062,0.1,0.062,0.15l0.2,1.35l0.2,1.35
	c0,0.05,0,0.125-0.013,0.2c-0.013,0.075-0.037,0.15-0.087,0.2s-0.1,0.1-0.15,0.137c-0.05,0.037-0.1,0.062-0.15,0.062l-1.55,0.15
	L43.2,69.8v0.05v0.05c0,0.05,0,0.125,0,0.2c0,0.075,0,0.15,0,0.2l-0.5,0.85L42.2,72c0,0.05-0.025,0.075-0.062,0.1
	C42.1,72.125,42.05,72.15,42,72.2l1.3,1.5l1.3,1.5c0.05,0.1,0.1,0.2,0.112,0.3c0.013,0.1-0.013,0.2-0.112,0.3L44,76.6l-0.6,0.8
	c-0.05,0-0.125,0-0.213,0.013S43,77.45,42.9,77.5c0.05,0,0.075,0,0.075,0S42.95,77.5,42.9,77.5z M35.1,68.5l3.9,3.85l3.9,3.85
	l0.3-0.4l0.3-0.4l-1.85-2.2L39.8,71c-0.1-0.1-0.15-0.225-0.15-0.338c0-0.112,0.05-0.213,0.15-0.262c0.1-0.1,0.2-0.15,0.3-0.162
	c0.1-0.012,0.2,0.012,0.3,0.062l0.55,0.3l0.55,0.3l0.25-0.45L42,70l-0.3-0.2l-0.3-0.2c-0.1-0.05-0.175-0.125-0.213-0.213
	C41.15,69.3,41.15,69.2,41.2,69.1c0-0.1,0.05-0.2,0.125-0.275C41.4,68.75,41.5,68.7,41.6,68.7l2.05-0.2l2.05-0.2l-0.1-0.85
	l-0.1-0.85l-5.2,0.95L35.1,68.5z"/>
<path style="fill:#FFFFFF;" d="M50,7c-0.55,0-1.1,0.025-1.65,0.05C47.8,7.075,47.25,7.1,46.7,7.1v1.25V9.6c0.1,0,0.2,0,0.3,0
	c0.1,0,0.2,0,0.3,0v19.9v19.9H28.4H9.5c0-0.1,0-0.2,0-0.3c0-0.1,0-0.2,0-0.3H8.25H7c0,0.2,0,0.425,0,0.65s0,0.45,0,0.65
	C7,62,11.825,72.75,19.612,80.525S38.15,93.1,50,93.1s22.6-4.825,30.387-12.613S93,61.95,93,50.1s-4.8-22.625-12.575-30.438
	S61.9,7,50,7z M90.5,49.3h-6.2h-6.2c0.05-0.25,0.1-0.525,0.137-0.8s0.062-0.55,0.062-0.8l-1-0.1l-1-0.1c-0.05,0.3-0.1,0.6-0.15,0.9
	c-0.05,0.3-0.1,0.6-0.15,0.9H63.7H51.4l8-8.45l8-8.45c0.65,0.3,1.25,0.6,1.812,0.912S70.3,33.95,70.8,34.3l0.55-0.85l0.55-0.85
	c-0.45-0.3-0.95-0.6-1.475-0.9c-0.525-0.3-1.075-0.6-1.625-0.9l4.7-4.95l4.7-4.95c3.75,3.65,6.8,7.975,8.925,12.775
	S90.45,43.75,90.5,49.3z M50,9.4c5.05,0,9.9,0.925,14.375,2.625S72.95,16.2,76.5,19.3L63.1,33.45L49.7,47.6v-9.45V28.7
	c0.15,0,0.35,0,0.562,0.013C50.475,28.725,50.7,28.75,50.9,28.8l0.05-1l0.05-1c-0.25,0-0.5-0.025-0.737-0.05
	C50.025,26.725,49.8,26.7,49.6,26.7v-8.65V9.4c0.1,0,0.175,0,0.238,0S49.95,9.4,50,9.4z M9.5,51.8h18h18L32.75,64.55L20,77.3
	c-3.1-3.4-5.625-7.325-7.425-11.625C10.775,61.375,9.7,56.7,9.5,51.8z M21.7,79l12.8-12.8l12.8-12.8v8.7v8.7
	c-0.5-0.1-1.025-0.2-1.562-0.312S44.65,70.25,44.1,70.1l-0.25,0.95L43.6,72c0.65,0.15,1.275,0.3,1.888,0.438
	C46.1,72.575,46.7,72.7,47.3,72.8v8.75v8.75c-5-0.25-9.725-1.425-14.038-3.363S25.05,82.3,21.7,79z M50,90.6c-0.05,0-0.1,0-0.15,0
	c-0.05,0-0.1,0-0.15,0V72.05V53.5l7.6,7.6l7.6,7.6c-0.1,0.1-0.225,0.175-0.35,0.25S64.3,69.1,64.2,69.2l0.5,0.85l0.5,0.85
	c0.2-0.1,0.4-0.225,0.6-0.35c0.2-0.125,0.4-0.25,0.6-0.35l5.2,5.2l5.2,5.2c-3.6,3.1-7.75,5.6-12.275,7.325
	C60,89.65,55.1,90.6,50,90.6z M78.5,78.9l-5.15-5.15L68.2,68.6c0.2-0.15,0.4-0.325,0.588-0.512C68.975,67.9,69.15,67.7,69.3,67.5
	l-0.7-0.7l-0.7-0.7c-0.2,0.2-0.375,0.375-0.55,0.55C67.175,66.825,67,67,66.8,67.2l-7.7-7.7l-7.7-7.7h12.1h12.1
	c-0.05,0.1-0.075,0.2-0.088,0.3C75.5,52.2,75.5,52.3,75.5,52.4l0.95,0.25l0.95,0.25c0.05-0.2,0.1-0.375,0.15-0.55
	c0.05-0.175,0.1-0.35,0.15-0.55h6.45h6.45c-0.25,5.3-1.5,10.325-3.575,14.9C84.95,71.275,82.05,75.4,78.5,78.9z"/>
<path d="M50,93.5c-12,0-22.875-4.875-30.75-12.75S6.5,62,6.5,50c0-0.15,0-0.325,0-0.5s0-0.35,0-0.5v-0.15V48.7
	c0-0.15,0.05-0.275,0.137-0.362C6.725,48.25,6.85,48.2,7,48.2h1.25H9.5c0.05,0,0.125,0.025,0.2,0.062
	C9.775,48.3,9.85,48.35,9.9,48.4c0.05,0.05,0.075,0.1,0.088,0.162S10,48.7,10,48.8v0.05v0.05h18.4h18.4V29.5V10.1l0,0l0,0
	c-0.05,0-0.125,0-0.2-0.012c-0.075-0.012-0.15-0.038-0.2-0.088s-0.1-0.1-0.138-0.163C46.225,9.775,46.2,9.7,46.2,9.6V8.35V7.1
	c0-0.15,0.05-0.275,0.138-0.363C46.425,6.65,46.55,6.6,46.7,6.6c0.6-0.05,1.175-0.075,1.725-0.088C48.975,6.5,49.5,6.5,50,6.5
	c12,0,22.875,4.875,30.75,12.75S93.5,38,93.5,50s-4.875,22.875-12.75,30.75S62,93.5,50,93.5z M7.5,49.2c0,0.15,0,0.275,0,0.4
	s0,0.25,0,0.4c0,11.75,4.775,22.375,12.475,30.062S38.3,92.5,50,92.5s22.325-4.75,30.025-12.438S92.5,61.75,92.5,50
	s-4.75-22.375-12.438-30.062S61.75,7.5,50,7.5c-0.45,0-0.9,0-1.362,0.012C48.175,7.525,47.7,7.55,47.2,7.6v0.75V9.1l0,0l0,0
	c0.05,0,0.125,0,0.2,0.012c0.075,0.012,0.15,0.038,0.2,0.088s0.1,0.1,0.138,0.163C47.775,9.425,47.8,9.5,47.8,9.6v19.9v19.9
	c0,0.15-0.05,0.275-0.138,0.362C47.575,49.85,47.45,49.9,47.3,49.9H28.4H9.5c-0.05,0-0.125-0.025-0.2-0.062S9.15,49.75,9.1,49.7
	s-0.075-0.125-0.087-0.2C9,49.425,9,49.35,9,49.3v-0.05V49.2H8.25H7.5z M50,91.1h-0.15H49.7c-0.15,0-0.275-0.05-0.362-0.137
	S49.2,90.75,49.2,90.6V72.05V53.5c0-0.1,0.025-0.2,0.075-0.288C49.325,53.125,49.4,53.05,49.5,53s0.2-0.05,0.288-0.025
	C49.875,53,49.95,53.05,50,53.1l7.6,7.6l7.6,7.6c0.05,0.05,0.1,0.125,0.125,0.2c0.025,0.075,0.025,0.15-0.025,0.2
	s-0.075,0.125-0.1,0.2c-0.025,0.075-0.05,0.15-0.1,0.2s-0.1,0.075-0.15,0.1c-0.05,0.025-0.1,0.05-0.15,0.1l0.25,0.45l0.25,0.45
	c0.1-0.05,0.225-0.125,0.35-0.213S65.9,69.8,66,69.7c0.1-0.05,0.225-0.075,0.338-0.062C66.45,69.65,66.55,69.7,66.6,69.8l5.2,5.2
	l5.2,5.2c0.05,0.05,0.1,0.1,0.125,0.162S77.15,80.5,77.1,80.6c0,0.05-0.025,0.125-0.062,0.2C77,80.875,76.95,80.95,76.9,81
	c-3.7,3.25-7.95,5.775-12.512,7.488C59.825,90.2,54.95,91.1,50,91.1z M50.2,54.7v17.7v17.7c4.75,0,9.4-0.85,13.763-2.475
	S72.4,83.6,76,80.5l-4.85-4.85L66.3,70.8c-0.15,0.1-0.3,0.2-0.438,0.287S65.6,71.25,65.5,71.3c-0.05,0.05-0.125,0.075-0.2,0.088
	C65.225,71.4,65.15,71.4,65.1,71.4s-0.1-0.025-0.15-0.062C64.9,71.3,64.85,71.25,64.8,71.2l-0.5-0.85l-0.5-0.85
	c-0.05-0.1-0.075-0.225-0.05-0.35c0.025-0.125,0.1-0.25,0.25-0.35c0.05,0,0.075-0.025,0.1-0.05c0.025-0.025,0.05-0.05,0.1-0.05l-7-7
	L50.2,54.7z M47.2,91L47.2,91L47.2,91c-4.85-0.35-9.575-1.55-13.963-3.512C28.85,85.525,24.8,82.8,21.3,79.4
	c-0.05-0.05-0.075-0.1-0.1-0.162S21.15,79.1,21.1,79c0-0.05,0.025-0.125,0.05-0.2c0.025-0.075,0.05-0.15,0.05-0.2L34,65.8L46.8,53
	c0.05-0.05,0.15-0.1,0.25-0.125s0.2-0.025,0.25,0.025c0.1,0.05,0.175,0.125,0.225,0.212C47.575,53.2,47.6,53.3,47.6,53.4v8.7v8.7
	c0,0.05-0.025,0.125-0.062,0.2c-0.037,0.075-0.087,0.15-0.138,0.2c-0.05,0.05-0.125,0.075-0.2,0.088C47.125,71.3,47.05,71.3,47,71.3
	c-0.45-0.1-0.9-0.2-1.362-0.3c-0.463-0.1-0.938-0.2-1.438-0.3l-0.1,0.5L44,71.7c0.55,0.15,1.1,0.275,1.638,0.388
	C46.175,72.2,46.7,72.3,47.2,72.4c0.1,0,0.2,0.075,0.275,0.175S47.6,72.8,47.6,72.9v8.75v8.75c0,0.05-0.025,0.125-0.062,0.2
	c-0.037,0.075-0.087,0.15-0.138,0.2c0.05,0.05,0.05,0.1,0.013,0.137C47.375,90.975,47.3,91,47.2,91z M22.4,79
	c3.3,3.15,7.1,5.7,11.212,7.55c4.112,1.85,8.537,3,13.087,3.35v-8.3v-8.3c-0.55-0.1-1.1-0.225-1.65-0.35
	c-0.55-0.125-1.1-0.25-1.65-0.35c-0.15-0.05-0.25-0.125-0.312-0.225C43.025,72.275,43,72.15,43,72l0.25-0.95l0.25-0.95
	c0-0.05,0.025-0.1,0.062-0.15c0.037-0.05,0.088-0.1,0.138-0.15c0.05-0.05,0.1-0.075,0.162-0.088C43.925,69.7,44,69.7,44.1,69.7
	c0.45,0.1,0.875,0.2,1.3,0.3c0.425,0.1,0.85,0.2,1.3,0.3v-7.8v-7.8L34.55,66.85L22.4,79z M78.5,79.4c-0.05,0-0.125,0-0.2-0.012
	c-0.075-0.013-0.15-0.037-0.2-0.088L73,74.1l-5.1-5.2c-0.05-0.05-0.075-0.1-0.088-0.162C67.8,68.675,67.8,68.6,67.8,68.5
	c0-0.05,0.025-0.125,0.062-0.2C67.9,68.225,67.95,68.15,68,68.1c0.1-0.1,0.225-0.225,0.35-0.35s0.25-0.25,0.35-0.35l-0.35-0.35
	L68,66.7c-0.15,0.15-0.275,0.275-0.4,0.388C67.475,67.2,67.35,67.3,67.2,67.4c-0.1,0.1-0.225,0.15-0.35,0.15S66.6,67.5,66.5,67.4
	l-7.75-7.65L51,52.1c-0.05-0.05-0.1-0.15-0.125-0.25s-0.025-0.2,0.025-0.25c0.05-0.1,0.125-0.175,0.212-0.225
	C51.2,51.325,51.3,51.3,51.4,51.3h12.1h12.1c0.1,0,0.175,0.025,0.238,0.062C75.9,51.4,75.95,51.45,76,51.5
	c0.05,0.05,0.075,0.125,0.088,0.2c0.012,0.075,0.012,0.15,0.012,0.2v0.05V52l0.5,0.15l0.5,0.15c0.05-0.1,0.075-0.2,0.1-0.3
	c0.025-0.1,0.05-0.2,0.1-0.3c0.05-0.1,0.125-0.2,0.213-0.275S77.7,51.3,77.8,51.3h6.45h6.45c0.05,0,0.125,0.025,0.2,0.062
	c0.075,0.037,0.15,0.087,0.2,0.138c0.05,0.05,0.075,0.1,0.088,0.162C91.2,51.725,91.2,51.8,91.2,51.9
	c-0.2,5.2-1.4,10.225-3.475,14.863C85.65,71.4,82.7,75.65,79,79.3c-0.15,0-0.25,0.025-0.325,0.05C78.6,79.375,78.55,79.4,78.5,79.4z
	 M68.9,68.6l4.75,4.75l4.75,4.75c3.45-3.5,6.2-7.525,8.15-11.9s3.1-9.1,3.35-14h-5.95H78c-0.05,0.1-0.075,0.225-0.1,0.35
	s-0.05,0.25-0.1,0.35c-0.05,0.15-0.15,0.25-0.262,0.3c-0.113,0.05-0.238,0.05-0.338,0l-0.95-0.25L75.3,52.7
	c-0.05,0-0.1-0.025-0.15-0.062C75.1,52.6,75.05,52.55,75,52.5s-0.075-0.1-0.088-0.15C74.9,52.3,74.9,52.25,74.9,52.2H63.75H52.6
	l7.1,7.1l7.1,7.1c0.1-0.1,0.225-0.225,0.35-0.35s0.25-0.25,0.35-0.35c0.05-0.05,0.1-0.075,0.162-0.1s0.137-0.05,0.238-0.1
	c0.1,0,0.175,0,0.238,0.012C68.2,65.525,68.25,65.55,68.3,65.6l0.7,0.7l0.7,0.7c0.1,0.1,0.15,0.225,0.15,0.35S69.8,67.6,69.7,67.7
	c-0.1,0.2-0.225,0.375-0.362,0.525C69.2,68.375,69.05,68.5,68.9,68.6z M20,77.8L20,77.8L20,77.8c-0.05,0-0.125-0.025-0.2-0.062
	c-0.075-0.037-0.15-0.087-0.2-0.137c-3.2-3.55-5.75-7.6-7.55-11.963C10.25,61.275,9.2,56.6,9,51.8c0-0.05,0-0.125,0.012-0.2
	c0.012-0.075,0.038-0.15,0.088-0.2s0.1-0.1,0.163-0.138C9.325,51.225,9.4,51.2,9.5,51.2h18h18c0.1,0,0.2,0.025,0.288,0.075
	C45.875,51.325,45.95,51.4,46,51.5s0.05,0.2,0.025,0.288C46,51.875,45.95,51.95,45.9,52L33.1,64.8L20.3,77.6
	c0,0.05-0.05,0.1-0.112,0.138C20.125,77.775,20.05,77.8,20,77.8z M10,52.3c0.25,4.5,1.25,8.9,2.938,13.013S17,73.25,20,76.6
	l12.15-12.15L44.3,52.3H27.15H10z M90.5,49.8h-6.2h-6.2c-0.05,0-0.125-0.025-0.2-0.062c-0.075-0.037-0.15-0.087-0.2-0.138
	c-0.05-0.05-0.075-0.125-0.088-0.2C77.6,49.325,77.6,49.25,77.6,49.2c0.05-0.2,0.075-0.375,0.1-0.55s0.05-0.35,0.1-0.55l-0.5-0.05
	L76.8,48c-0.05,0.25-0.075,0.475-0.1,0.7s-0.05,0.45-0.1,0.7c0,0.1-0.075,0.2-0.175,0.275S76.2,49.8,76.1,49.8H63.75H51.4
	c-0.1,0-0.2-0.025-0.288-0.075C51.025,49.675,50.95,49.6,50.9,49.5s-0.05-0.2-0.025-0.288C50.9,49.125,50.95,49.05,51,49l8-8.45
	l8-8.45c0.05-0.1,0.15-0.15,0.262-0.163C67.375,31.925,67.5,31.95,67.6,32c0.55,0.25,1.1,0.525,1.625,0.812S70.25,33.4,70.7,33.7
	l0.3-0.4l0.3-0.4c-0.4-0.25-0.825-0.5-1.262-0.737C69.6,31.925,69.15,31.7,68.7,31.5c-0.05-0.05-0.1-0.1-0.15-0.163
	c-0.05-0.062-0.1-0.138-0.15-0.237c0-0.1,0-0.175,0.012-0.237C68.425,30.8,68.45,30.75,68.5,30.7l4.7-4.95l4.7-4.95
	c0.05-0.05,0.1-0.1,0.162-0.138S78.2,20.6,78.3,20.6c0.05,0,0.125,0,0.2,0.013c0.075,0.012,0.15,0.037,0.2,0.087
	c3.9,3.8,6.95,8.25,9.05,13.112C89.85,38.675,91,43.95,91.1,49.4c0,0.05,0,0.125-0.012,0.2c-0.013,0.075-0.037,0.15-0.088,0.2
	c-0.1,0-0.175,0-0.25,0C90.675,49.8,90.6,49.8,90.5,49.8z M78.7,48.8h5.65H90c-0.15-5.15-1.25-10.125-3.225-14.725
	S81.95,25.25,78.3,21.6L74,26.15l-4.3,4.55c0.45,0.25,0.9,0.5,1.338,0.75s0.863,0.5,1.262,0.75c0.05,0.05,0.1,0.1,0.137,0.15
	c0.037,0.05,0.062,0.1,0.062,0.15s0,0.125-0.012,0.2c-0.013,0.075-0.038,0.15-0.088,0.2l-0.55,0.85L71.3,34.6
	c-0.1,0.1-0.225,0.175-0.35,0.2c-0.125,0.025-0.25,0-0.35-0.1c-0.45-0.3-0.925-0.6-1.438-0.888C68.65,33.525,68.1,33.25,67.5,33
	L60,40.9l-7.5,7.9h11.55H75.6c0.05-0.25,0.1-0.475,0.137-0.7s0.062-0.45,0.062-0.7c0-0.05,0.025-0.125,0.062-0.188
	S75.95,47.1,76,47.1c0.05-0.05,0.1-0.075,0.162-0.087C76.225,47,76.3,47,76.4,47l1,0.1l1,0.1c0.15,0,0.275,0.075,0.35,0.188
	c0.075,0.112,0.1,0.262,0.05,0.412c0,0.15,0,0.325-0.012,0.5C78.775,48.475,78.75,48.65,78.7,48.8z M49.7,48.1
	c-0.05,0-0.075,0-0.1,0c-0.025,0-0.05,0-0.1,0c-0.1-0.05-0.175-0.125-0.225-0.212C49.225,47.8,49.2,47.7,49.2,47.6v-9.45V28.7
	c0-0.05,0.025-0.125,0.062-0.2c0.037-0.075,0.087-0.15,0.138-0.2s0.1-0.1,0.163-0.125S49.7,28.15,49.8,28.2c0.1,0,0.225,0,0.35,0
	s0.25,0,0.35,0l0.05-0.5l0.05-0.5c-0.15,0-0.3,0-0.438,0s-0.263,0-0.362,0c-0.15,0-0.275-0.05-0.362-0.138
	C49.35,26.975,49.3,26.85,49.3,26.7v-8.65V9.4c0-0.15,0.05-0.275,0.138-0.363C49.525,8.95,49.65,8.9,49.8,8.9h0.15h0.15
	c4.9,0,9.75,0.875,14.3,2.562s8.8,4.188,12.5,7.438c0.05,0.05,0.1,0.1,0.137,0.163S77.1,19.2,77.1,19.3c0,0.05,0,0.125-0.012,0.2
	c-0.013,0.075-0.037,0.15-0.088,0.2L63.5,33.85L50,48c-0.05,0.05-0.1,0.075-0.15,0.087C49.8,48.1,49.75,48.1,49.7,48.1z M50.2,29.2
	v8.55v8.55L63,32.8l12.8-13.5c-3.6-3-7.65-5.35-11.975-6.95S54.9,9.9,50.2,9.9v8.15v8.15c0.15,0,0.3,0,0.45,0c0.15,0,0.3,0,0.45,0
	s0.275,0.075,0.362,0.175C51.55,26.475,51.6,26.6,51.6,26.7l-0.05,1l-0.05,1c0,0.05-0.025,0.125-0.062,0.188S51.35,29,51.3,29
	c-0.05,0.05-0.1,0.075-0.162,0.087C51.075,29.1,51,29.1,50.9,29.1c-0.15,0.05-0.275,0.075-0.388,0.087
	C50.4,29.2,50.3,29.2,50.2,29.2z"/>
</svg>
