<?xml version="1.0" encoding="utf-8"?>
<!-- Generator: Adobe Illustrator 25.2.0, SVG Export Plug-In . SVG Version: 6.00 Build 0)  -->
<svg version="1.1" id="Layer_1" xmlns="http://www.w3.org/2000/svg" xmlns:xlink="http://www.w3.org/1999/xlink" x="0px" y="0px"
	 viewBox="0 0 100 100" style="enable-background:new 0 0 100 100;" xml:space="preserve">
<rect x="0" y="0" style="fill:#33751F;" width="100" height="100"/>
<g>
	<g>
		<path style="fill:#FFFFFF;" d="M84.7,71H71.6V46.9H47.4V71H34.3V11.9h13.1v23.6h24.2V11.9h13.2V71z"/>
	</g>
	<path style="fill:#FFFFFF;" d="M21.2,46.1c-1.9,0.8-5.2,3.1-7.9,3.5V11h-2.3v38.5c-2.7-0.6-5.9-2.7-7.7-3.4
		c-0.9-0.4-1.8,0.5-1.5,1.4l9.5,25.7c0.3,0.8,1.4,0.8,1.7,0l9.5-25.8C23,46.6,22.1,45.8,21.2,46.1z"/>
	<g>
		<g>
			<polygon style="fill:#FFFFFF;" points="92.9,73.9 90.9,73.9 90.9,8 26.6,8 26.6,72.9 24.6,72.9 24.6,6 92.9,6 			"/>
		</g>
		<g>
			<rect x="25.6" y="73.4" style="fill:#FFFFFF;" width="66.2" height="1"/>
		</g>
		<g>
			<path style="fill:#FFFFFF;" d="M75.3,93.5c-0.1,0-0.2,0-0.3-0.1c-0.1-0.1-0.2-0.3-0.2-0.4V81.8c0-0.2,0.1-0.4,0.3-0.4L91.9,73
				c0.2-0.1,0.3-0.1,0.5,0c0.1,0.1,0.2,0.3,0.2,0.4v10.9c0,0.2-0.1,0.4-0.3,0.4l-16.9,8.7C75.4,93.5,75.3,93.5,75.3,93.5z
				 M75.8,82.1v10.1L91.6,84v-9.8L75.8,82.1z"/>
		</g>
		<g>
			<path style="fill:#FFFFFF;" d="M6.1,93.5c-0.1,0-0.2,0-0.3-0.1c-0.1-0.1-0.2-0.3-0.2-0.4V81.8c0-0.2,0.1-0.4,0.3-0.5l19.5-8.6
				c0.2-0.1,0.3-0.1,0.5,0c0.1,0.1,0.2,0.2,0.2,0.4v10.9c0,0.2-0.1,0.4-0.3,0.5L6.3,93.5C6.2,93.5,6.2,93.5,6.1,93.5z M6.6,82.1
				v10.1l18.5-8.4V74L6.6,82.1z"/>
		</g>
		<g>
			<rect x="6.1" y="81.8" style="fill:#33751F;" width="69.2" height="11.2"/>
			<path style="fill:#FFFFFF;" d="M75.3,93.5H6.1c-0.3,0-0.5-0.2-0.5-0.5V81.8c0-0.3,0.2-0.5,0.5-0.5h69.2c0.3,0,0.5,0.2,0.5,0.5V93
				C75.8,93.3,75.5,93.5,75.3,93.5z M6.6,92.5h68.2V82.3H6.6V92.5z"/>
		</g>
	</g>
</g>
</svg>
