<?xml version="1.0" encoding="iso-8859-1"?>
<!-- Generator: Adobe Illustrator 25.3.1, SVG Export Plug-In . SVG Version: 6.00 Build 0)  -->
<svg version="1.1" id="Layer_1" xmlns="http://www.w3.org/2000/svg" xmlns:xlink="http://www.w3.org/1999/xlink" x="0px" y="0px"
	 viewBox="0 0 100 100" style="enable-background:new 0 0 100 100;" xml:space="preserve">
<polygon style="fill:#33751F;" points="0,0 50,0 100,0 100,50 100,100 50,100 0,100 0,50 "/>
<path style="fill:#FFFFFF;" d="M51.3,42.8V25.3V7.8h8.65h8.65v2.95v2.95h-6.1h-6.1v4.15V22h5.25h5.25v2.95v2.95h-5.25H56.4v7.45
	v7.45h-2.55H51.3z"/>
<path d="M56.9,43.3h-3.05H50.8v-18v-18h9.15h9.15v3.45v3.45H63h-6.1v3.65v3.65h5.25h5.25v3.45v3.45h-5.25H56.9v7.45V43.3z
	 M51.8,42.3h2.05h2.05v-7.45V27.4h5.25h5.25v-2.45V22.5h-5.25H55.9v-4.65V13.2H62h6.1v-2.45V8.3h-8.15H51.8v17V42.3z"/>
<path style="fill:#FFFFFF;" d="M72.8,42.8V25.3V7.8h9.35h9.35v2.95v2.95h-6.8h-6.8v3.9v3.9h6.35h6.35v2.95v2.95h-6.35H77.9v4.75
	v4.75h7.05H92v2.95v2.95c0,0-4.8,0-9.6,0S72.8,42.8,72.8,42.8z"/>
<path d="M92.5,43.3H82.4H72.3v-18v-18h9.85H92v3.45v3.45h-6.8h-6.8v3.4V21h6.35h6.35v3.45v3.45h-6.35H78.4v4.25v4.25h7.05h7.05v3.45
	V43.3z M73.3,42.3h9.1h9.1v-2.45V37.4h-7.05H77.4v-5.25V26.9h6.35h6.35v-2.45V22h-6.35H77.4v-4.4v-4.4h6.8H91v-2.45V8.3h-8.85H73.3
	v17V42.3z"/>
<path style="fill:#FFFFFF;" d="M78.6,67.9L45.9,45.25L13.2,22.6v-7.55V7.5h-2.6H8v42.35V92.2h2.6h2.6V75.45V58.7l24.25,16.8
	L61.7,92.3l8.45-12.2L78.6,67.9z M17.6,34.5l-2.05,3.1l-2.05,3.1l-0.1-4.55l-0.1-4.55l2.15,1.45L17.6,34.5z M13.2,47.1l4.55-6.85
	l4.55-6.85l1.75,1.2l1.75,1.2L19.55,45l-6.25,9.2l-0.05-3.55L13.2,47.1z M14.8,55.3l6.35-9.15L27.5,37l1.9,1.35l1.9,1.35L25.05,49
	l-6.25,9.3l-2-1.5L14.8,55.3z M20.6,59.8l6.5-9.35l6.5-9.35l1.8,1.25l1.8,1.25l-6.5,9.35l-6.5,9.35l-1.8-1.25L20.6,59.8z M25.9,63.5
	l6.5-9.35l6.5-9.35l1.8,1.25l1.8,1.25L36,56.65L29.5,66l-1.8-1.25L25.9,63.5z M31,67.1l6.5-9.35L44,48.4l1.8,1.25l1.8,1.25
	l-6.5,9.35l-6.5,9.35l-1.8-1.25L31,67.1z M36.1,70.6l6.5-9.35l6.5-9.35l1.8,1.25l1.8,1.25l-6.55,9.3L39.6,73l-1.75-1.2L36.1,70.6z
	 M41.4,74.2l6.5-9.35l6.5-9.35l1.8,1.25L58,58l-6.5,9.35L45,76.7l-1.8-1.25L41.4,74.2z M46.5,77.8l6.5-9.35l6.5-9.35l1.8,1.25
	l1.8,1.25l-6.5,9.35l-6.5,9.35l-1.8-1.25L46.5,77.8z M51.6,81.3l6.5-9.35l6.5-9.35l1.8,1.25l1.8,1.25l-6.5,9.35l-6.5,9.35l-1.8-1.25
	L51.6,81.3z M56.7,84.9l6.5-9.35l6.5-9.35l1.8,1.25l1.8,1.25l-6.5,9.35l-6.5,9.35l-1.8-1.25L56.7,84.9z"/>
<path d="M61.9,93L37.8,76.3L13.7,59.6v16.6v16.6h-3.1H7.5V49.9V7h3.1h3.1v7.65v7.65L46.5,45l32.8,22.7l-8.7,12.65L61.9,93z
	 M8.5,91.8h2.1h2.1V74.75V57.7l24.45,16.95L61.6,91.6l8.15-11.8L77.9,68L45.3,45.45L12.7,22.9v-7.45V8h-2.1H8.5v41.9V91.8z M60.4,88
	l-2.2-1.5L56,85l6.75-9.75l6.75-9.75l2.2,1.5l2.2,1.5l-6.75,9.75L60.4,88z M57.4,84.7l1.35,0.95l1.35,0.95l6.2-8.95l6.2-8.95
	l-1.35-0.95L69.8,66.8l-6.2,8.95L57.4,84.7z M55.3,84.5L53.1,83l-2.2-1.5l6.75-9.75L64.4,62l2.2,1.5l2.2,1.5l-6.75,9.75L55.3,84.5z
	 M52.3,81.2l1.35,0.95L55,83.1l6.2-8.95l6.2-8.95l-1.35-0.95L64.7,63.3l-6.2,8.95L52.3,81.2z M50.2,81L48,79.5L45.8,78l6.75-9.75
	l6.75-9.75l2.2,1.5l2.2,1.5l-6.75,9.75L50.2,81z M47.2,77.7l1.35,0.95l1.35,0.95l6.2-8.95l6.2-8.95l-1.35-0.95L59.6,59.8l-6.2,8.95
	L47.2,77.7z M45,77.4l-2.2-1.5l-2.2-1.5l6.75-9.75l6.75-9.75l2.2,1.5l2.2,1.5l-6.75,9.75L45,77.4z M42,74.1l1.35,0.95L44.7,76
	l6.2-8.95l6.2-8.95l-1.35-0.95L54.4,56.2l-6.2,8.95L42,74.1z M39.8,73.7l-2.2-1.5l-2.2-1.5l6.75-9.75l6.75-9.75l2.2,1.5l2.2,1.5
	l-6.75,9.75L39.8,73.7z M36.8,70.4l1.35,0.95l1.35,0.95l6.2-8.95l6.2-8.95l-1.35-0.95L49.2,52.5L43,61.45L36.8,70.4z M34.7,70.2
	l-2.2-1.5l-2.2-1.5l6.75-9.75l6.75-9.75l2.2,1.5l2.2,1.5l-6.75,9.75L34.7,70.2z M31.7,66.9l1.35,0.95l1.35,0.95l6.2-8.9l6.2-8.9
	l-1.35-0.95L44.1,49.1L37.9,58L31.7,66.9z M29.5,66.6l-2.2-1.5l-2.2-1.5l6.75-9.75l6.75-9.75l2.2,1.5l2.2,1.5l-6.75,9.75L29.5,66.6z
	 M26.5,63.3l1.35,0.95l1.35,0.95l6.2-8.95l6.2-8.95l-1.35-0.95L38.9,45.4l-6.2,8.95L26.5,63.3z M24.2,63L22,61.5L19.8,60l6.75-9.75
	l6.75-9.75l2.2,1.5l2.2,1.5l-6.75,9.75L24.2,63z M21.2,59.7l1.35,0.95l1.35,0.95l6.2-8.95l6.2-8.95l-1.35-0.95L33.6,41.8l-6.2,8.95
	L21.2,59.7z M19,59l-2.4-1.75l-2.4-1.75l6.6-9.6l6.6-9.6l2.35,1.6l2.35,1.6l-6.55,9.75L19,59z M15.5,55.2l1.6,1.2l1.6,1.2l5.95-8.9
	l5.95-8.9l-1.5-1.05l-1.5-1.05l-6.05,8.75L15.5,55.2z M12.8,55.8l-0.05-4.45L12.7,46.9l4.75-7.1l4.75-7.1l2.15,1.5l2.15,1.5
	l-6.85,10.05L12.8,55.8z M13.7,47.2l0.05,2.7l0.05,2.7l5.7-8.35l5.7-8.35L23.85,35l-1.35-0.9l-4.4,6.55L13.7,47.2z M13,42.4
	l-0.15-5.85L12.7,30.7l2.75,1.85l2.75,1.85l-2.6,4L13,42.4z M13.8,32.6l0.05,3.3l0.05,3.3l1.45-2.25l1.45-2.25l-1.5-1.05L13.8,32.6z
	"/>
</svg>
