<?xml version="1.0" encoding="iso-8859-1"?>
<!-- Generator: Adobe Illustrator 25.3.1, SVG Export Plug-In . SVG Version: 6.00 Build 0)  -->
<svg version="1.1" id="Layer_1" xmlns="http://www.w3.org/2000/svg" xmlns:xlink="http://www.w3.org/1999/xlink" x="0px" y="0px"
	 viewBox="0 0 100 100" style="enable-background:new 0 0 100 100;" xml:space="preserve">
<polygon style="fill:#33751F;" points="0,0 50,0 100,0 100,50 100,100 50,100 0,100 0,50 "/>
<polygon style="fill:#FFFFFF;" points="22,21.5 26.75,30.55 31.5,39.6 28,39.6 24.5,39.6 24.5,51.05 24.5,62.5 22.1,62.5 19.7,62.5 
	19.7,51.05 19.7,39.6 16.15,39.6 12.6,39.6 17.3,30.55 "/>
<path d="M25,63h-2.9h-2.9V51.55V40.1h-3.7h-3.7l5.1-9.85L22,20.4l5.2,9.8l5.2,9.8h-3.7H25v11.5V63z M20.2,62h1.9H24V50.5V39h3.35
	h3.35l-4.35-8.2L22,22.6l-4.3,8.25l-4.3,8.25h3.4h3.4v11.45V62z"/>
<polygon style="fill:#FFFFFF;" points="5.7,19.9 38.95,19.9 72.2,19.9 72.2,20.4 72.2,20.9 38.95,20.9 5.7,20.9 5.7,20.4 "/>
<path style="fill:#FFFFFF;" d="M5.7,20.9c-0.05,0-0.1,0-0.15-0.013C5.5,20.875,5.45,20.85,5.4,20.8s-0.1-0.1-0.137-0.163
	S5.2,20.5,5.2,20.4v-3.95V12.5c0-0.1,0.025-0.2,0.075-0.287C5.325,12.125,5.4,12.05,5.5,12l8.45-3.2l8.45-3.2
	c0.1-0.05,0.175-0.05,0.25-0.025C22.725,5.6,22.8,5.65,22.9,5.7c0.05,0.05,0.1,0.125,0.138,0.2C23.075,5.975,23.1,6.05,23.1,6.1v4.1
	v4.1c0,0.1-0.025,0.2-0.075,0.287C22.975,14.675,22.9,14.75,22.8,14.8l-8.45,3.05L5.9,20.9c0,0-0.025,0-0.062,0S5.75,20.9,5.7,20.9z
	 M6.2,12.8v3.45v3.45l7.95-2.85L22.1,14v-3.55V6.9l-7.95,2.95L6.2,12.8z"/>
<path style="fill:#FFFFFF;" d="M72.2,21c-0.05,0-0.1,0-0.15-0.013C72,20.975,71.95,20.95,71.9,20.9s-0.1-0.1-0.137-0.163
	S71.7,20.6,71.7,20.5v-3.95V12.6c0-0.1,0.025-0.2,0.075-0.287C71.825,12.225,71.9,12.15,72,12.1l9.75-3.25L91.5,5.6
	c0.05-0.05,0.125-0.05,0.213-0.025S91.9,5.65,92,5.7c0.05,0.05,0.1,0.1,0.137,0.162S92.2,6,92.2,6.1v4.1v4.1
	c0,0.1-0.025,0.2-0.075,0.287C92.075,14.675,92,14.75,91.9,14.8l-9.75,3.1L72.4,21c0,0-0.025,0-0.062,0S72.25,21,72.2,21z M72.7,13
	v3.45v3.45l9.25-2.95L91.2,14v-3.6V6.8l-9.25,3.1L72.7,13z"/>
<polygon style="fill:#33751F;" points="91.764,14.306 57.164,14.306 22.564,14.306 22.564,10.206 22.564,6.106 57.164,6.106 
	91.764,6.106 91.764,10.206 "/>
<path style="fill:#FFFFFF;" d="M91.8,14.8H57.2H22.6c-0.15,0-0.275-0.05-0.362-0.137S22.1,14.45,22.1,14.3v-4.1V6.1
	c0-0.15,0.05-0.275,0.138-0.363S22.45,5.6,22.6,5.6h34.6h34.6c0.15,0,0.275,0.05,0.363,0.137S92.3,5.95,92.3,6.1v4.1v4.1
	c0,0.15-0.075,0.275-0.175,0.363C92.025,14.75,91.9,14.8,91.8,14.8z M23.1,13.8h34.1h34.1v-3.6V6.6H57.2H23.1v3.6V13.8z"/>
<path style="fill:#FFFFFF;" d="M8.2,93.9l21.4-35.7L51,22.5l21.45,35.7L93.9,93.9H51.05H8.2z M90.3,91.9L70.65,59.15L51,26.4
	L31.4,59.15L11.8,91.9h39.25H90.3z"/>
<path d="M51,23.5l21,34.95L93,93.4H51.05H9.1l20.95-34.95L51,23.5 M10.9,92.4h40.15H91.2L71.1,58.9L51,25.4L30.95,58.9L10.9,92.4
	 M51,21.5l-0.45,0.75L50.1,23L29.2,57.95L8.3,92.9l-0.45,0.75L7.4,94.4h0.9h0.9h41.9H93h0.9h0.9l-0.45-0.75L93.9,92.9l-21-34.95
	L51.9,23l-0.45-0.75L51,21.5L51,21.5L51,21.5z M12.7,91.4l19.15-32L51,27.4l19.25,32l19.25,32H51.1H12.7L12.7,91.4L12.7,91.4z"/>
<path style="fill:#FFFFFF;" d="M30,90.2V74.75V59.3h5.35h5.35c1.35,0,2.525,0.075,3.513,0.212C45.2,59.65,46,59.85,46.6,60.1
	c0.6,0.3,1.15,0.675,1.638,1.162C48.725,61.75,49.15,62.35,49.5,63.1s0.625,1.5,0.812,2.3C50.5,66.2,50.6,67.05,50.6,68
	c0,1.15-0.15,2.2-0.438,3.15c-0.287,0.95-0.712,1.8-1.263,2.55s-1.25,1.375-2.088,1.863C45.975,76.05,45,76.4,43.9,76.6
	c0.55,0.4,1.05,0.8,1.5,1.225c0.45,0.425,0.85,0.875,1.2,1.375c0.35,0.45,0.775,1.1,1.263,1.938S48.9,83,49.5,84.2l1.55,3l1.55,3
	h-3.05H46.5l-1.85-3.35L42.8,83.5c-0.65-1.2-1.2-2.175-1.65-2.925C40.7,79.825,40.35,79.3,40.1,79s-0.5-0.575-0.75-0.8
	c-0.25-0.225-0.5-0.4-0.75-0.5s-0.6-0.175-1.038-0.225C37.125,77.425,36.6,77.4,36,77.4h-0.5H35v6.45v6.45h-2.5H30v-0.05V90.2z
	 M35.1,72.4H37h1.9c1.2,0,2.2-0.025,2.975-0.088C42.65,72.25,43.2,72.15,43.5,72s0.575-0.325,0.812-0.537S44.75,71,44.9,70.7
	c0.15-0.3,0.275-0.65,0.362-1.037C45.35,69.275,45.4,68.85,45.4,68.4c0-0.5-0.05-0.975-0.163-1.4c-0.112-0.425-0.287-0.8-0.537-1.1
	s-0.525-0.55-0.838-0.75S43.2,64.8,42.8,64.7c-0.2-0.05-0.625-0.075-1.25-0.088C40.925,64.6,40.1,64.6,39.1,64.6h-2h-2
	c0,0,0,1.95,0,3.9S35.1,72.4,35.1,72.4z"/>
<path d="M53.5,90.7h-3.6h-3.6l-1.9-3.5l-1.9-3.5c-0.65-1.2-1.2-2.175-1.638-2.925S40.1,79.5,39.9,79.2
	c-0.2-0.3-0.425-0.525-0.65-0.7c-0.225-0.175-0.45-0.3-0.65-0.4c-0.25-0.1-0.575-0.175-0.975-0.225
	c-0.4-0.05-0.875-0.075-1.425-0.075h-0.25H35.7v6.45v6.45h-3.05H29.6V74.75V58.8h5.6h5.6c1.4,0,2.6,0.075,3.612,0.225
	c1.013,0.15,1.838,0.375,2.487,0.675s1.25,0.725,1.788,1.263C49.225,61.5,49.7,62.15,50.1,62.9s0.7,1.55,0.9,2.4
	c0.2,0.85,0.3,1.75,0.3,2.7c0,1.2-0.15,2.3-0.45,3.3c-0.3,1-0.75,1.9-1.35,2.7c-0.5,0.7-1.1,1.275-1.8,1.738s-1.5,0.812-2.4,1.062
	c0.4,0.3,0.75,0.625,1.075,0.963S47,78.45,47.3,78.8c0.35,0.5,0.775,1.15,1.275,1.988c0.5,0.837,1.075,1.862,1.725,3.112l1.6,3.4
	L53.5,90.7z M46.9,89.7h2.5h2.5l-1.35-2.65L49.2,84.4c-0.6-1.2-1.15-2.2-1.638-3.012S46.65,79.95,46.3,79.5s-0.75-0.875-1.188-1.287
	S44.2,77.4,43.7,77l-0.5-0.35l-0.5-0.35l0.6-0.1l0.6-0.1c1.05-0.2,1.975-0.525,2.763-0.975C47.45,74.675,48.1,74.1,48.6,73.4
	c0.5-0.7,0.9-1.5,1.175-2.4c0.275-0.9,0.425-1.9,0.425-3c0-0.85-0.1-1.675-0.275-2.45c-0.175-0.775-0.425-1.5-0.725-2.15
	c-0.35-0.65-0.75-1.2-1.2-1.65c-0.45-0.45-0.95-0.8-1.5-1.05c-0.6-0.25-1.375-0.45-2.325-0.587C43.225,59.975,42.1,59.9,40.8,59.9
	h-5.15H30.5v14.95V89.8h2.05h2.05v-6.5v-6.5h0.75h0.75c0.6,0,1.15,0.025,1.625,0.088S38.6,77.05,38.9,77.2s0.6,0.325,0.888,0.55
	c0.287,0.225,0.562,0.5,0.812,0.85c0.25,0.3,0.6,0.85,1.05,1.625C42.1,81,42.65,82,43.3,83.2l1.8,3.25L46.9,89.7z M38.9,72.9h-2.15
	H34.6v-4.4v-4.4h2.25h2.25c1.05,0,1.9,0,2.537,0.012C42.275,64.125,42.7,64.15,42.9,64.2c0.5,0.1,0.925,0.275,1.287,0.512
	C44.55,64.95,44.85,65.25,45.1,65.6s0.45,0.775,0.587,1.25c0.138,0.475,0.213,1,0.213,1.55c0,0.5-0.05,0.975-0.15,1.412
	C45.65,70.25,45.5,70.65,45.3,71c-0.2,0.35-0.45,0.65-0.737,0.9c-0.288,0.25-0.612,0.45-0.963,0.6c-0.2,0.1-0.525,0.2-1.225,0.275
	C41.675,72.85,40.6,72.9,38.9,72.9z M35.6,71.9h1.65h1.65c1.5,0,2.5-0.05,3.175-0.112C42.75,71.725,43.1,71.65,43.3,71.6
	c0.25-0.1,0.475-0.25,0.675-0.438c0.2-0.188,0.375-0.412,0.525-0.662s0.275-0.55,0.362-0.9C44.95,69.25,45,68.85,45,68.4
	s-0.05-0.875-0.15-1.25c-0.1-0.375-0.25-0.7-0.45-0.95c-0.2-0.25-0.425-0.475-0.688-0.65c-0.263-0.175-0.562-0.3-0.912-0.35
	c-0.1,0-0.375-0.025-0.938-0.05C41.3,65.125,40.45,65.1,39.2,65.1h-1.75H35.7v3.4v3.4h-0.05H35.6z"/>
<path style="fill:#FFFFFF;" d="M78.3,90.2h-2.75H72.8l-1.1-3.5l-1.1-3.5h-5.1h-5.1l-1.05,3.5l-1.05,3.5h-2.7h-2.7l4.9-15.45
	l4.9-15.45h2.7h2.7l5.1,15.45L78.3,90.2z M68.9,78l-1.75-5.75L65.4,66.5l-1.7,5.75L62,78h3.45H68.9z"/>
<path d="M78.9,90.7h-3.3h-3.3l-1.1-3.5l-1.1-3.5h-4.7h-4.7l-1.05,3.5l-1.05,3.5h-3.25H52.1l5.1-15.95l5.1-15.95h3.05h3.05
	l5.25,15.95L78.9,90.7z M73.1,89.7h2.25h2.25l-4.9-14.95L67.8,59.8h-2.35H63.1l-4.75,14.95L53.6,89.7h2.2H58l1.05-3.5l1.05-3.5h5.4
	h5.4l1.1,3.5L73.1,89.7z M69.5,78.5h-4.1h-4.1l2.05-6.85l2.05-6.85l2.05,6.85L69.5,78.5z M62.6,77.5h2.75h2.75l-1.4-4.6l-1.4-4.6
	l-1.35,4.6L62.6,77.5z"/>
</svg>
