<?xml version="1.0" encoding="utf-8"?>
<!-- Generator: Adobe Illustrator 25.2.0, SVG Export Plug-In . SVG Version: 6.00 Build 0)  -->
<svg version="1.1" id="Layer_1" xmlns="http://www.w3.org/2000/svg" xmlns:xlink="http://www.w3.org/1999/xlink" x="0px" y="0px"
	 viewBox="0 0 100 100" style="enable-background:new 0 0 100 100;" xml:space="preserve">
<rect x="0" y="0" style="fill:#33751F;" width="100" height="100"/>
<polygon style="fill:#FFFFFF;" points="93,50.6 63.3,50.6 63.3,53.7 63.3,55.3 63.3,59.9 51.2,59.9 51.2,62.3 51.2,64.7 51.2,69.3 
	38.7,69.3 38.7,72.1 38.7,74 38.7,78.6 26.9,78.6 26.9,82.2 26.9,83.4 26.9,88 14.2,88 14.2,92.7 32.8,92.7 32.8,90.7 32.8,88 
	32.8,83.4 45.4,83.4 45.4,80.7 45.4,78.6 45.4,74 57.3,74 57.3,70.9 57.3,69.3 57.3,64.7 69.8,64.7 69.8,62.3 69.8,59.9 69.8,55.3 
	93,55.3 "/>
<path d="M33.3,93.2H13.7v-5.7h12.6v-9.4h11.9v-9.4h12.5v-9.4h12v-9.4h30.7v5.7H70.3v9.4H57.8v9.4H45.9v9.4H33.3V93.2z M14.7,92.2
	h17.6v-9.4h12.6v-9.4h11.9v-9.4h12.5v-9.4h23.2v-3.7H63.8v9.4h-12v9.4H39.2v9.4H27.4v9.4H14.7V92.2z"/>
<polygon style="fill:#FFFFFF;" points="19.8,16.9 19.8,19.2 19.8,21.6 32.2,21.6 32.2,26.5 32.2,28.9 32.2,31.2 44.1,31.2 
	44.1,36.1 44.1,38.5 44.1,40.8 56.3,40.8 56.3,45.2 56.3,48.8 56.3,49.9 74.9,49.9 74.9,45.2 62.7,45.2 62.7,40.8 62.7,40.2 
	62.7,36.1 50.8,36.1 50.8,31.2 50.8,29.9 50.8,26.5 38,26.5 38,20.3 38,20.3 38,16.9 25.6,16.9 25.6,12.5 25.6,10.7 25.6,7.3 7,7.3 
	7,12.5 19.8,12.5 "/>
<path d="M75.4,50.4H55.8v-9.1H43.6v-9.6H31.7v-9.6H19.3V13H6.5V6.8h19.6v9.6h12.4l0,9.6h12.8v9.6h11.9v9.1h12.2V50.4z M56.8,49.4
	h17.6v-3.7H62.2v-9.1H50.3V27H37.5l0-9.6H25.1V7.8H7.5V12h12.8v9.1h12.4v9.6h11.9v9.6h12.2V49.4z"/>
</svg>
