<?xml version="1.0" encoding="iso-8859-1"?>
<!-- Generator: Adobe Illustrator 25.3.1, SVG Export Plug-In . SVG Version: 6.00 Build 0)  -->
<svg version="1.1" id="Layer_1" xmlns="http://www.w3.org/2000/svg" xmlns:xlink="http://www.w3.org/1999/xlink" x="0px" y="0px"
	 viewBox="0 0 100 100" style="enable-background:new 0 0 100 100;" xml:space="preserve">
<polygon style="fill:#33751F;" points="0,0 50,0 100,0 100,50 100,100 50,100 0,100 0,50 "/>
<path style="fill:#FFFFFF;" d="M72.5,87.9h-4.75H63l-1.9-4.85l-1.9-4.85h-8.55H42.1l-1.8,4.85l-1.8,4.85h-4.6h-4.6l8.4-21.4
	l8.4-21.4h4.6h4.6l8.6,21.4L72.5,87.9z M56.5,71l-2.95-7.95L50.6,55.1l-2.95,7.95L44.7,71h5.9H56.5z"/>
<path d="M73.3,88.4H68h-5.3l-1.85-4.85L59,78.7h-8.3h-8.3l-1.8,4.85l-1.8,4.85h-5.15H28.5l8.6-21.9l8.6-21.9h4.95h4.95l8.85,21.9
	L73.3,88.4z M63.4,87.4h4.2h4.2l-8.45-20.9L54.9,45.6h-4.25H46.4l-8.2,20.9L30,87.4h4.1h4.1l1.8-4.85l1.8-4.85h8.95h8.95l1.85,4.85
	L63.4,87.4z M57.2,71.5h-6.6H44l3.25-8.9l3.25-8.9l3.35,8.9L57.2,71.5z M45.5,70.5h5.15h5.15l-2.6-6.95l-2.6-6.95l-2.55,6.95
	L45.5,70.5z"/>
<polygon style="fill:#FFFFFF;" points="17.4,27.2 22.2,36.2 27,45.2 23.45,45.2 19.9,45.2 19.9,56.7 19.9,68.2 17.5,68.2 15.1,68.2 
	15.1,56.7 15.1,45.2 11.55,45.2 8,45.2 12.7,36.2 "/>
<path d="M20.4,68.7h-2.9h-2.9V57.2V45.7h-3.7H7.2l5.1-9.8l5.1-9.8l5.2,9.8l5.2,9.8h-3.7h-3.7v11.5V68.7z M15.6,67.7h1.9h1.9V56.2
	V44.7h3.35h3.35l-4.35-8.25L17.4,28.2l-4.25,8.25L8.9,44.7h3.4h3.4v11.5v11.5h-0.05H15.6z"/>
<polygon style="fill:#FFFFFF;" points="6.1,20 39.35,20 72.6,20 72.6,20.5 72.6,21 39.35,21 6.1,21 6.1,20.5 "/>
<path style="fill:#FFFFFF;" d="M6.1,21c-0.05,0-0.1,0-0.15-0.013C5.9,20.975,5.85,20.95,5.8,20.9c-0.05-0.05-0.1-0.1-0.137-0.163
	S5.6,20.6,5.6,20.5v-3.95V12.6c0-0.1,0.025-0.2,0.075-0.287C5.725,12.225,5.8,12.15,5.9,12.1l8.45-3.2l8.45-3.2
	c0.1-0.05,0.175-0.05,0.25-0.025C23.125,5.7,23.2,5.75,23.3,5.8c0.05,0.05,0.1,0.1,0.138,0.162S23.5,6.1,23.5,6.2v4.1v4.1
	c0,0.1-0.025,0.2-0.075,0.287C23.375,14.775,23.3,14.85,23.2,14.9l-8.45,3l-8.45,3c-0.05,0.05-0.1,0.075-0.138,0.087
	C6.125,21,6.1,21,6.1,21z M6.6,12.9v3.45v3.45l7.9-2.9l7.9-2.9v-3.55V6.9l-7.9,3L6.6,12.9z"/>
<path style="fill:#FFFFFF;" d="M72.6,21.1c-0.05,0-0.1,0-0.15-0.013C72.4,21.075,72.35,21.05,72.3,21
	c-0.05-0.05-0.1-0.1-0.137-0.163S72.1,20.7,72.1,20.6v-3.95V12.7c0-0.1,0.025-0.2,0.075-0.287c0.05-0.088,0.125-0.163,0.225-0.213
	l9.75-3.25L91.9,5.7c0.05-0.05,0.125-0.05,0.213-0.025S92.3,5.75,92.4,5.8c0.05,0.05,0.1,0.1,0.137,0.162S92.6,6.1,92.6,6.2v4.1v4.1
	c0,0.1-0.025,0.2-0.075,0.287C92.475,14.775,92.4,14.85,92.3,14.9L82.55,18l-9.75,3.1c-0.05,0-0.1,0-0.137,0S72.6,21.1,72.6,21.1z
	 M73.1,13v3.45v3.45l9.25-2.95L91.6,14v-3.55V6.9l-9.25,3.05L73.1,13z"/>
<polygon style="fill:#33751F;" points="92.148,14.345 57.548,14.345 22.948,14.345 22.948,10.245 22.948,6.145 57.548,6.145 
	92.148,6.145 92.148,10.245 "/>
<path style="fill:#FFFFFF;" d="M92.1,14.8H57.5H22.9c-0.15,0-0.275-0.05-0.362-0.137S22.4,14.45,22.4,14.3v-4.05V6.2
	c0-0.15,0.05-0.275,0.138-0.363C22.625,5.75,22.75,5.7,22.9,5.7h34.6h34.6c0.15,0,0.275,0.05,0.363,0.137
	C92.55,5.925,92.6,6.05,92.6,6.2v4.1v4.1c0,0.1-0.05,0.2-0.137,0.275S92.25,14.8,92.1,14.8z M23.4,13.8h34.1h34.1v-3.55V6.7H57.5
	H23.4v3.55V13.8z"/>
<path style="fill:#FFFFFF;" d="M7.4,93.3l21.35-35.7L50.1,21.9l21.45,35.7L93,93.3H50.2H7.4z M89.5,91.3L69.85,58.55L50.2,25.8
	L30.55,58.55L10.9,91.3h39.3H89.5z"/>
<path d="M50.1,22.9l21,34.95l21,34.95H50.2H8.3l20.9-34.95L50.1,22.9 M10.1,91.8h40.15H90.4L70.3,58.3L50.2,24.8L30.15,58.3
	L10.1,91.8 M50.1,21l-0.45,0.7l-0.45,0.7L28.3,57.35L7.4,92.3l-0.45,0.75L6.5,93.8h0.9h0.9h41.95H92.2h0.9H94l-0.5-0.75L93,92.3
	L72,57.35L51,22.4l-0.45-0.7L50.1,21L50.1,21L50.1,21z M11.8,90.8l19.15-32l19.15-32l19.25,32l19.25,32H50.2H11.8L11.8,90.8
	L11.8,90.8z"/>
</svg>
