<?xml version="1.0" encoding="iso-8859-1"?>
<!-- Generator: Adobe Illustrator 25.4.1, SVG Export Plug-In . SVG Version: 6.00 Build 0)  -->
<svg version="1.1" id="Layer_1" xmlns="http://www.w3.org/2000/svg" xmlns:xlink="http://www.w3.org/1999/xlink" x="0px" y="0px"
	 viewBox="0 0 100 100" style="enable-background:new 0 0 100 100;" xml:space="preserve">
<polygon style="fill:#33751F;" points="0,0 25,0 50,0 75,0 100,0 100,25 100,50 100,75 100,100 75,100 50,100 25,100 0,100 0,75 
	0,50 0,25 "/>
<path style="fill:#FFFFFF;" d="M92.1,22.9c-0.125-0.375-0.263-0.744-0.414-1.105s-0.317-0.714-0.498-1.058s-0.378-0.678-0.592-1.001
	S90.15,19.1,89.9,18.8c-0.225-0.3-0.463-0.581-0.711-0.845s-0.508-0.511-0.777-0.742c-0.269-0.232-0.547-0.447-0.832-0.649
	C87.294,16.362,87,16.175,86.7,16c-0.3-0.175-0.613-0.325-0.933-0.451c-0.32-0.127-0.648-0.229-0.979-0.311s-0.665-0.141-0.998-0.18
	C83.456,15.019,83.125,15,82.8,15h-2.625H77.55h-2.625H72.3c-0.2,0-0.406,0.006-0.616,0.019s-0.422,0.031-0.634,0.056
	s-0.425,0.056-0.634,0.094C70.206,15.206,70,15.25,69.8,15.3s-0.406,0.106-0.614,0.169c-0.208,0.062-0.417,0.131-0.624,0.206
	c-0.206,0.075-0.409,0.156-0.604,0.244C67.762,16.006,67.575,16.1,67.4,16.2c-0.4,0.2-0.794,0.431-1.178,0.691
	c-0.384,0.259-0.759,0.547-1.122,0.859c-0.362,0.312-0.713,0.65-1.047,1.009S63.4,19.5,63.1,19.9
	c-0.025,0.025-0.394,0.494-1.037,1.317s-1.562,2.002-2.688,3.446s-2.456,3.153-3.925,5.039S52.375,33.65,50.7,35.8v-1.25V33.3v-1.25
	V30.8c0-0.975-0.169-1.9-0.473-2.739c-0.305-0.839-0.745-1.592-1.29-2.223c-0.543-0.631-1.19-1.141-1.907-1.493
	S45.525,23.8,44.7,23.8s-1.612,0.194-2.33,0.545c-0.717,0.352-1.364,0.861-1.907,1.493c-0.544,0.631-0.985,1.384-1.29,2.223
	C38.869,28.9,38.7,29.825,38.7,30.8v5.075v5.075v5.075V51.1c-1.5,1.925-2.925,3.756-4.222,5.423s-2.466,3.17-3.453,4.439
	c-0.988,1.269-1.794,2.304-2.366,3.033c-0.572,0.73-0.909,1.155-0.959,1.205c-0.2,0.25-0.419,0.475-0.652,0.672
	s-0.479,0.366-0.735,0.503c-0.257,0.137-0.522,0.244-0.793,0.316c-0.27,0.072-0.545,0.109-0.82,0.109h-1.85H21h-1.85H17.3
	c-0.35,0-0.694,0.019-1.031,0.058s-0.669,0.099-0.994,0.18s-0.644,0.185-0.956,0.311S13.7,67.625,13.4,67.8
	c-0.3,0.15-0.594,0.325-0.88,0.522s-0.564,0.416-0.832,0.653c-0.269,0.237-0.528,0.494-0.777,0.766
	C10.662,70.012,10.425,70.3,10.2,70.6s-0.444,0.612-0.653,0.936s-0.409,0.658-0.597,1.002s-0.363,0.697-0.522,1.058
	C8.269,73.956,8.125,74.325,8,74.7c-0.125,0.4-0.238,0.806-0.336,1.217c-0.098,0.411-0.183,0.827-0.252,1.246
	s-0.122,0.841-0.158,1.264C7.219,78.85,7.2,79.275,7.2,79.7s0.019,0.85,0.055,1.273c0.036,0.423,0.089,0.845,0.158,1.264
	s0.153,0.834,0.252,1.245S7.875,84.3,8,84.7c0.125,0.375,0.262,0.744,0.414,1.105c0.152,0.361,0.317,0.714,0.499,1.057
	c0.181,0.344,0.378,0.678,0.592,1.002C9.719,88.188,9.95,88.5,10.2,88.8c0.225,0.3,0.462,0.581,0.711,0.845
	c0.249,0.264,0.508,0.511,0.777,0.743c0.269,0.231,0.547,0.447,0.832,0.648c0.286,0.202,0.58,0.389,0.88,0.564
	s0.612,0.325,0.933,0.451c0.32,0.126,0.649,0.229,0.98,0.311c0.331,0.081,0.665,0.141,0.998,0.18
	c0.333,0.039,0.664,0.058,0.989,0.058h3.025h3.025h3.025H29.4c0.2,0,0.406-0.006,0.616-0.019c0.209-0.012,0.422-0.031,0.634-0.056
	s0.425-0.056,0.634-0.094S31.7,92.35,31.9,92.3s0.406-0.106,0.614-0.169c0.208-0.062,0.417-0.131,0.623-0.206
	c0.207-0.075,0.41-0.156,0.605-0.244c0.195-0.088,0.383-0.181,0.558-0.281c0.4-0.2,0.794-0.431,1.178-0.691
	c0.384-0.259,0.759-0.547,1.122-0.859s0.713-0.65,1.047-1.009S38.3,88.1,38.6,87.7l8.85-11.35L56.3,65l8.85-11.35L74,42.3
	c0.2-0.25,0.419-0.475,0.652-0.672c0.233-0.197,0.48-0.366,0.736-0.503c0.256-0.138,0.521-0.244,0.792-0.316
	C76.45,40.737,76.725,40.7,77,40.7h1.45h1.45h1.45h1.45c0.35,0,0.694-0.019,1.031-0.058s0.669-0.098,0.994-0.179
	s0.644-0.184,0.956-0.311S86.4,39.875,86.7,39.7c0.3-0.15,0.594-0.325,0.88-0.522c0.286-0.197,0.564-0.416,0.833-0.653
	c0.269-0.238,0.528-0.494,0.776-0.766c0.248-0.272,0.486-0.559,0.711-0.859s0.444-0.612,0.653-0.936
	c0.209-0.323,0.409-0.658,0.597-1.002s0.362-0.697,0.522-1.058c0.159-0.361,0.303-0.729,0.428-1.104
	c0.125-0.4,0.237-0.806,0.336-1.217s0.183-0.826,0.252-1.245s0.122-0.841,0.158-1.264S92.9,28.225,92.9,27.8
	s-0.019-0.844-0.055-1.258c-0.036-0.414-0.089-0.824-0.158-1.23s-0.153-0.809-0.252-1.211S92.225,23.3,92.1,22.9z M82.8,34.5h-1.45
	H79.9h-1.45H77c-0.3,0-0.6,0.019-0.898,0.056c-0.298,0.037-0.595,0.094-0.889,0.169c-0.294,0.075-0.585,0.169-0.871,0.281
	c-0.286,0.113-0.567,0.244-0.842,0.394s-0.544,0.319-0.806,0.505c-0.262,0.186-0.519,0.389-0.769,0.607s-0.494,0.453-0.731,0.702
	C70.956,37.462,70.725,37.725,70.5,38l-8.85,11.3L52.8,60.6l-8.85,11.3L35.1,83.2c-0.375,0.475-0.787,0.906-1.23,1.286
	c-0.442,0.38-0.914,0.708-1.408,0.976c-0.493,0.269-1.009,0.479-1.539,0.621C30.394,86.225,29.85,86.3,29.3,86.3h-3.025H23.25
	h-3.025H17.2c-0.725,0-1.413-0.188-2.036-0.525s-1.183-0.825-1.652-1.425c-0.469-0.6-0.847-1.312-1.107-2.1
	C12.144,81.463,12,80.6,12,79.7s0.144-1.762,0.405-2.55c0.261-0.787,0.639-1.5,1.107-2.1c0.469-0.6,1.028-1.088,1.652-1.425
	c0.624-0.338,1.311-0.525,2.036-0.525h1.85h1.85h1.85h1.85c0.3,0,0.6-0.019,0.899-0.056c0.299-0.037,0.595-0.094,0.889-0.169
	c0.294-0.075,0.584-0.169,0.87-0.281S27.825,72.35,28.1,72.2s0.544-0.319,0.806-0.505c0.263-0.186,0.519-0.389,0.769-0.608
	s0.494-0.453,0.731-0.701c0.237-0.248,0.469-0.51,0.694-0.785l2.825-3.625l2.825-3.625l2.825-3.625L42.4,55.1
	c2.575-3.275,5.356-6.819,8.083-10.297c2.727-3.478,5.399-6.891,7.755-9.903s4.397-5.625,5.861-7.503S66.45,24.375,66.5,24.3
	c0.375-0.475,0.787-0.906,1.23-1.286c0.442-0.38,0.914-0.708,1.407-0.977c0.494-0.268,1.01-0.478,1.539-0.62
	c0.53-0.142,1.074-0.217,1.624-0.217h2.625h2.625h2.625H82.8c0.725,0,1.412,0.188,2.036,0.525c0.624,0.337,1.183,0.825,1.652,1.425
	c0.468,0.6,0.846,1.312,1.107,2.1C87.856,26.038,88,26.9,88,27.8s-0.15,1.769-0.419,2.566c-0.269,0.797-0.656,1.522-1.131,2.134
	c-0.475,0.612-1.037,1.112-1.656,1.459C84.175,34.306,83.5,34.5,82.8,34.5z"/>
<path d="M29.3,93.1h-3.025H23.25h-3.025H17.2c-0.35,0-0.7-0.025-1.05-0.073c-0.35-0.048-0.7-0.12-1.05-0.214
	c-0.35-0.094-0.7-0.21-1.05-0.346C13.7,92.331,13.35,92.175,13,92c-0.325-0.175-0.637-0.363-0.939-0.566
	c-0.301-0.203-0.592-0.422-0.873-0.659c-0.281-0.237-0.553-0.494-0.818-0.772c-0.264-0.278-0.52-0.578-0.77-0.903
	c-0.25-0.3-0.481-0.612-0.695-0.938C8.691,87.838,8.493,87.5,8.312,87.15c-0.181-0.35-0.347-0.713-0.498-1.088
	C7.662,85.688,7.525,85.3,7.4,84.9s-0.237-0.812-0.336-1.234c-0.098-0.422-0.183-0.853-0.252-1.291s-0.122-0.881-0.158-1.328
	C6.618,80.6,6.6,80.15,6.6,79.7s0.019-0.894,0.055-1.333c0.036-0.439,0.089-0.874,0.158-1.305c0.069-0.431,0.153-0.859,0.251-1.285
	C7.162,75.35,7.275,74.925,7.4,74.5c0.125-0.4,0.269-0.788,0.428-1.163S8.163,72.6,8.35,72.25s0.387-0.688,0.597-1.012
	C9.156,70.913,9.375,70.6,9.6,70.3c0.25-0.3,0.506-0.588,0.77-0.861c0.264-0.273,0.536-0.533,0.817-0.776
	c0.281-0.244,0.572-0.472,0.874-0.683c0.302-0.211,0.614-0.405,0.939-0.58s0.656-0.331,0.994-0.467
	c0.337-0.136,0.681-0.251,1.031-0.345c0.35-0.094,0.706-0.166,1.069-0.215c0.363-0.049,0.731-0.074,1.106-0.074h1.85h1.85h1.85h1.85
	c0.25,0,0.494-0.031,0.73-0.092c0.236-0.061,0.464-0.152,0.683-0.271c0.219-0.119,0.428-0.265,0.626-0.439s0.386-0.373,0.561-0.598
	c0.05-0.05,0.381-0.469,0.944-1.188s1.356-1.737,2.331-2.987s2.131-2.731,3.419-4.375C35.181,54.706,36.6,52.9,38.1,51v-5.025V40.95
	v-5.025V30.9c0-1.05,0.181-2.044,0.509-2.944S39.412,26.25,40,25.575s1.287-1.219,2.066-1.594S43.7,23.4,44.6,23.4
	s1.756,0.212,2.534,0.595c0.778,0.383,1.478,0.936,2.066,1.617s1.062,1.49,1.391,2.386c0.328,0.895,0.509,1.877,0.509,2.902v0.875
	v0.875v0.875V34.4l2.875-3.7L56.85,27l2.875-3.7l2.875-3.7c0.325-0.4,0.662-0.781,1.013-1.142c0.35-0.361,0.712-0.702,1.087-1.021
	c0.375-0.318,0.762-0.615,1.162-0.889s0.813-0.524,1.238-0.748c0.2-0.1,0.406-0.2,0.616-0.297s0.422-0.191,0.634-0.278
	s0.425-0.169,0.634-0.241S69.4,14.85,69.6,14.8c0.225-0.05,0.45-0.094,0.674-0.131c0.223-0.037,0.445-0.069,0.664-0.094
	s0.435-0.044,0.645-0.056C71.794,14.506,72,14.5,72.2,14.5h2.625h2.625h2.625H82.7c0.35,0,0.7,0.025,1.05,0.073
	c0.35,0.049,0.7,0.121,1.05,0.215s0.7,0.209,1.05,0.345c0.35,0.136,0.7,0.292,1.05,0.467c0.325,0.175,0.637,0.363,0.939,0.566
	c0.301,0.203,0.592,0.422,0.873,0.659s0.553,0.494,0.817,0.772c0.264,0.278,0.521,0.578,0.771,0.903
	c0.25,0.3,0.481,0.612,0.695,0.938s0.411,0.663,0.592,1.013c0.182,0.35,0.347,0.713,0.498,1.088s0.289,0.762,0.414,1.162l0,0l0,0
	l0,0l0,0c0.125,0.4,0.238,0.812,0.336,1.234s0.183,0.853,0.252,1.291s0.122,0.881,0.158,1.328S93.3,27.45,93.3,27.9
	s-0.019,0.894-0.055,1.331s-0.089,0.869-0.158,1.294c-0.069,0.425-0.153,0.844-0.251,1.256C92.738,32.194,92.625,32.6,92.5,33
	s-0.269,0.787-0.428,1.162S91.738,34.9,91.55,35.25s-0.387,0.688-0.597,1.013C90.744,36.588,90.525,36.9,90.3,37.2
	c-0.25,0.3-0.506,0.587-0.77,0.861c-0.264,0.274-0.536,0.533-0.818,0.777s-0.572,0.472-0.873,0.683
	c-0.301,0.211-0.614,0.404-0.939,0.579s-0.656,0.331-0.994,0.467c-0.337,0.136-0.681,0.251-1.031,0.345
	c-0.35,0.094-0.706,0.166-1.069,0.215C83.444,41.175,83.075,41.2,82.7,41.2h-1.425H79.85h-1.425H77c-0.25,0-0.494,0.031-0.73,0.092
	c-0.236,0.061-0.464,0.151-0.682,0.27c-0.219,0.119-0.428,0.266-0.627,0.439S74.575,42.375,74.4,42.6l-8.85,11.325L56.7,65.25
	l-8.85,11.325L39,87.9c-0.325,0.4-0.662,0.781-1.013,1.142c-0.35,0.361-0.712,0.701-1.087,1.02c-0.375,0.319-0.763,0.616-1.162,0.89
	c-0.4,0.273-0.812,0.523-1.238,0.748c-0.2,0.1-0.406,0.2-0.616,0.297c-0.209,0.097-0.422,0.191-0.634,0.278
	s-0.425,0.169-0.634,0.241C32.406,92.587,32.2,92.65,32,92.7c-0.225,0.05-0.45,0.1-0.675,0.147c-0.225,0.047-0.45,0.091-0.675,0.128
	s-0.45,0.069-0.675,0.091C29.75,93.088,29.525,93.1,29.3,93.1z M17.2,67.4c-0.325,0-0.644,0.019-0.958,0.058
	c-0.314,0.039-0.623,0.099-0.929,0.18s-0.609,0.185-0.911,0.311C14.1,68.075,13.8,68.225,13.5,68.4
	c-0.275,0.15-0.55,0.319-0.822,0.505c-0.272,0.186-0.541,0.389-0.803,0.607s-0.519,0.453-0.766,0.702
	C10.863,70.462,10.625,70.725,10.4,71s-0.438,0.569-0.638,0.877c-0.2,0.308-0.387,0.63-0.562,0.961
	c-0.175,0.331-0.337,0.672-0.487,1.017C8.562,74.2,8.425,74.55,8.3,74.9c-0.125,0.375-0.238,0.763-0.336,1.158
	s-0.183,0.798-0.252,1.204s-0.122,0.815-0.158,1.223C7.519,78.894,7.5,79.3,7.5,79.7c0,0.425,0.019,0.844,0.055,1.256
	s0.089,0.819,0.158,1.219s0.153,0.794,0.252,1.181C8.063,83.744,8.175,84.125,8.3,84.5s0.262,0.738,0.413,1.088
	c0.15,0.35,0.312,0.687,0.487,1.012s0.363,0.638,0.562,0.938c0.2,0.3,0.412,0.588,0.637,0.863s0.456,0.537,0.695,0.786
	c0.239,0.248,0.486,0.483,0.743,0.702c0.256,0.218,0.522,0.421,0.798,0.607C12.913,90.681,13.2,90.85,13.5,91s0.6,0.281,0.901,0.394
	c0.302,0.113,0.605,0.206,0.911,0.281s0.615,0.131,0.93,0.169c0.314,0.038,0.633,0.056,0.958,0.056h3.025h3.025h3.025H29.3
	c0.2,0,0.4-0.006,0.6-0.019c0.2-0.012,0.4-0.031,0.6-0.056s0.4-0.056,0.6-0.094c0.2-0.037,0.4-0.081,0.6-0.131
	s0.4-0.106,0.598-0.169c0.199-0.062,0.396-0.131,0.59-0.206c0.194-0.075,0.384-0.156,0.57-0.244C33.644,90.894,33.825,90.8,34,90.7
	c0.4-0.2,0.787-0.425,1.162-0.674s0.738-0.521,1.088-0.814s0.688-0.609,1.013-0.945c0.325-0.336,0.638-0.692,0.938-1.067l8.85-11.3
	l8.85-11.3l8.85-11.3L73.6,42c0.225-0.3,0.469-0.562,0.728-0.787c0.259-0.225,0.534-0.412,0.822-0.562s0.588-0.263,0.897-0.338
	C76.356,40.238,76.675,40.2,77,40.2h1.45h1.45h1.45h1.45c0.325,0,0.644-0.019,0.958-0.058c0.314-0.039,0.623-0.098,0.929-0.179
	c0.306-0.082,0.61-0.185,0.911-0.311C85.9,39.525,86.2,39.375,86.5,39.2c0.275-0.15,0.55-0.319,0.822-0.505s0.541-0.389,0.803-0.607
	c0.262-0.219,0.519-0.453,0.766-0.702s0.484-0.511,0.709-0.786s0.438-0.569,0.637-0.877c0.2-0.308,0.388-0.629,0.562-0.96
	c0.175-0.332,0.338-0.672,0.488-1.018S91.575,33.05,91.7,32.7c0.125-0.375,0.238-0.763,0.336-1.158
	c0.098-0.395,0.183-0.798,0.252-1.204s0.122-0.815,0.158-1.223C92.481,28.706,92.5,28.3,92.5,27.9c0-0.425-0.019-0.844-0.055-1.256
	c-0.036-0.412-0.089-0.819-0.158-1.219c-0.069-0.4-0.154-0.794-0.252-1.181c-0.098-0.388-0.211-0.769-0.336-1.144l0,0l0,0l0,0l0,0
	c-0.125-0.375-0.262-0.737-0.412-1.087S90.974,21.325,90.799,21s-0.362-0.637-0.562-0.938c-0.2-0.3-0.412-0.587-0.637-0.862
	s-0.456-0.538-0.695-0.786c-0.239-0.249-0.486-0.483-0.743-0.702c-0.256-0.218-0.521-0.421-0.797-0.607
	C87.088,16.919,86.8,16.75,86.5,16.6s-0.6-0.281-0.901-0.394c-0.301-0.113-0.604-0.206-0.91-0.281
	c-0.307-0.075-0.616-0.131-0.93-0.169C83.444,15.719,83.125,15.7,82.8,15.7h-2.625H77.55h-2.625H72.3c-0.2,0-0.4,0.006-0.6,0.019
	c-0.2,0.012-0.4,0.031-0.6,0.056s-0.4,0.056-0.6,0.094c-0.2,0.038-0.4,0.081-0.6,0.131c-0.2,0.05-0.4,0.106-0.599,0.169
	s-0.396,0.131-0.59,0.206c-0.194,0.075-0.384,0.156-0.57,0.244C67.956,16.706,67.775,16.8,67.6,16.9
	c-0.4,0.2-0.787,0.425-1.162,0.673s-0.738,0.52-1.088,0.814c-0.35,0.294-0.688,0.61-1.012,0.946
	C64.012,19.669,63.7,20.025,63.4,20.4l-3.325,4.225L56.75,28.85l-3.325,4.225L50.1,37.3v-1.6v-1.6v-1.6v-1.6
	c0-0.9-0.156-1.756-0.438-2.534s-0.688-1.478-1.188-2.066s-1.094-1.062-1.75-1.391C46.069,24.581,45.35,24.4,44.6,24.4
	s-1.469,0.181-2.125,0.509s-1.25,0.803-1.75,1.391s-0.906,1.288-1.188,2.066C39.256,29.144,39.1,30,39.1,30.9V36v5.1v5.1v5.1
	l-0.025,0.05L39.05,51.4l-0.025,0.05L39,51.5c-1.5,1.925-2.925,3.756-4.222,5.423s-2.466,3.17-3.453,4.439
	c-0.987,1.269-1.794,2.304-2.366,3.033C28.388,65.125,28.05,65.55,28,65.6c-0.225,0.3-0.469,0.562-0.728,0.787
	c-0.259,0.225-0.534,0.413-0.822,0.562c-0.288,0.15-0.588,0.262-0.897,0.338C25.244,67.362,24.925,67.4,24.6,67.4h-1.85H20.9
	c0,0-0.925,0-1.85,0C18.125,67.4,17.2,67.4,17.2,67.4z M29.3,86.8h-3.025H23.25h-3.025H17.2c-0.775,0-1.519-0.2-2.198-0.561
	c-0.68-0.361-1.295-0.883-1.814-1.527s-0.941-1.41-1.233-2.258C11.663,81.606,11.5,80.675,11.5,79.7s0.156-1.906,0.441-2.755
	s0.697-1.614,1.209-2.257s1.125-1.166,1.809-1.527C15.644,72.8,16.4,72.6,17.2,72.6h1.85h1.85h1.85h1.85
	c0.275,0,0.55-0.019,0.825-0.055c0.275-0.036,0.55-0.089,0.825-0.158s0.55-0.153,0.825-0.252c0.275-0.099,0.55-0.211,0.825-0.336
	c0.275-0.15,0.537-0.312,0.789-0.488c0.252-0.175,0.492-0.362,0.724-0.562c0.231-0.2,0.453-0.412,0.667-0.637
	c0.214-0.225,0.42-0.463,0.62-0.713l5.25-6.725l5.25-6.725l5.25-6.724L51.7,42.5c1.9-2.425,3.744-4.781,5.442-6.955
	s3.252-4.164,4.571-5.857c1.319-1.694,2.403-3.09,3.164-4.077C65.638,24.625,66.075,24.05,66.1,24c0.4-0.525,0.844-0.994,1.32-1.402
	c0.477-0.408,0.986-0.755,1.518-1.036s1.084-0.497,1.648-0.642c0.564-0.145,1.139-0.22,1.714-0.22h2.625h2.625h2.625H82.8
	c0.775,0,1.519,0.2,2.198,0.561c0.68,0.361,1.295,0.883,1.814,1.526s0.94,1.409,1.233,2.258S88.5,26.825,88.5,27.8
	s-0.156,1.906-0.441,2.755c-0.284,0.848-0.697,1.614-1.209,2.257c-0.513,0.644-1.125,1.166-1.809,1.527
	C84.356,34.7,83.6,34.9,82.8,34.9h-1.45H79.9h-1.45H77c-0.275,0-0.55,0.019-0.825,0.055c-0.275,0.036-0.55,0.089-0.825,0.158
	c-0.275,0.069-0.55,0.153-0.825,0.251c-0.275,0.098-0.55,0.211-0.825,0.336c-0.275,0.15-0.538,0.312-0.789,0.487
	c-0.252,0.175-0.492,0.362-0.723,0.562c-0.231,0.2-0.453,0.413-0.668,0.638S71.1,37.85,70.9,38.1l-8.85,11.35L53.2,60.8l-8.85,11.35
	L35.5,83.5c-0.4,0.525-0.838,0.994-1.306,1.402s-0.969,0.755-1.494,1.036s-1.075,0.497-1.644,0.642
	C30.487,86.725,29.9,86.8,29.3,86.8z M17.2,73.6c-0.65,0-1.269,0.169-1.831,0.475c-0.562,0.306-1.069,0.75-1.494,1.3
	s-0.769,1.206-1.006,1.938C12.631,78.044,12.5,78.85,12.5,79.7s0.131,1.656,0.369,2.387c0.238,0.731,0.581,1.387,1.006,1.938
	s0.931,0.994,1.494,1.3C15.931,85.631,16.55,85.8,17.2,85.8h3.025h3.025h3.025H29.3c0.5,0,1-0.062,1.491-0.186
	c0.491-0.124,0.972-0.308,1.434-0.552c0.463-0.243,0.906-0.547,1.322-0.907c0.416-0.361,0.803-0.78,1.153-1.255l8.825-11.325
	L52.35,60.25l8.825-11.325L70,37.6c0.225-0.3,0.462-0.581,0.709-0.844c0.247-0.263,0.503-0.506,0.766-0.731
	c0.263-0.225,0.531-0.431,0.803-0.619c0.272-0.188,0.547-0.356,0.822-0.506c0.3-0.15,0.606-0.287,0.917-0.409
	s0.626-0.228,0.945-0.316c0.319-0.088,0.641-0.156,0.965-0.203S76.575,33.9,76.9,33.9h1.45h1.45h1.45h1.45
	c0.65,0,1.269-0.169,1.831-0.475c0.562-0.306,1.069-0.75,1.494-1.3c0.425-0.55,0.769-1.206,1.006-1.938S87.4,28.65,87.4,27.8
	s-0.131-1.656-0.369-2.388s-0.581-1.388-1.006-1.938s-0.931-0.994-1.494-1.3S83.35,21.7,82.7,21.7h-2.6h-2.6h-2.6h-2.6
	c-0.5,0-1,0.062-1.491,0.186s-0.972,0.308-1.434,0.551c-0.463,0.244-0.906,0.547-1.322,0.908S67.25,24.125,66.9,24.6
	c-0.025,0.05-0.463,0.619-1.224,1.595s-1.845,2.361-3.164,4.042s-2.872,3.659-4.57,5.824C56.243,38.225,54.4,40.575,52.5,43
	l-5.25,6.75L42,56.5l-5.25,6.75L31.5,70c-0.225,0.3-0.463,0.581-0.711,0.844s-0.508,0.506-0.776,0.731
	c-0.269,0.225-0.547,0.431-0.833,0.619c-0.286,0.188-0.58,0.356-0.88,0.506s-0.606,0.287-0.917,0.409
	c-0.311,0.122-0.626,0.228-0.945,0.316c-0.319,0.088-0.641,0.156-0.965,0.203S24.825,73.7,24.5,73.7h-1.825H20.85h-1.825H17.2
	v-0.025V73.65v-0.025V73.6z"/>
<path style="fill:#FFFFFF;" d="M44.6,22.6c0.9,0,1.75-0.212,2.519-0.597c0.769-0.384,1.456-0.941,2.031-1.628
	s1.038-1.506,1.356-2.416C50.825,17.05,51,16.05,51,15s-0.181-2.05-0.508-2.959c-0.327-0.909-0.799-1.728-1.38-2.416
	s-1.272-1.244-2.036-1.628C46.312,7.613,45.475,7.4,44.6,7.4c-0.9,0-1.75,0.213-2.519,0.597c-0.769,0.384-1.456,0.941-2.031,1.628
	s-1.037,1.506-1.356,2.416C38.375,12.95,38.2,13.95,38.2,15s0.175,2.05,0.494,2.959c0.319,0.909,0.781,1.728,1.356,2.416
	s1.263,1.244,2.031,1.628C42.85,22.388,43.7,22.6,44.6,22.6z"/>
<path d="M44.6,23.1c-0.95,0-1.856-0.225-2.681-0.633c-0.825-0.408-1.569-0.999-2.194-1.73c-0.625-0.731-1.131-1.603-1.481-2.573
	C37.894,17.194,37.7,16.125,37.7,15s0.194-2.194,0.544-3.164s0.856-1.842,1.481-2.574s1.369-1.322,2.194-1.73
	C42.744,7.125,43.65,6.9,44.6,6.9s1.856,0.225,2.681,0.633s1.569,0.999,2.194,1.73s1.131,1.603,1.481,2.573S51.5,13.875,51.5,15
	s-0.194,2.194-0.544,3.164c-0.35,0.97-0.856,1.842-1.481,2.573c-0.625,0.732-1.369,1.322-2.194,1.73
	C46.456,22.875,45.55,23.1,44.6,23.1z M44.6,7.9c-0.825,0-1.606,0.2-2.314,0.561c-0.708,0.361-1.342,0.883-1.874,1.527
	s-0.959,1.41-1.255,2.258C38.862,13.094,38.7,14.025,38.7,15s0.169,1.906,0.472,2.755c0.303,0.848,0.741,1.614,1.278,2.258
	c0.538,0.643,1.175,1.165,1.878,1.526C43.031,21.9,43.8,22.1,44.6,22.1s1.569-0.2,2.272-0.561c0.703-0.361,1.341-0.883,1.878-1.526
	c0.537-0.644,0.975-1.41,1.278-2.258C50.331,16.906,50.5,15.975,50.5,15s-0.162-1.906-0.458-2.755s-0.724-1.614-1.255-2.257
	s-1.166-1.165-1.873-1.527C46.206,8.1,45.425,7.9,44.6,7.9z"/>
</svg>
