<?xml version="1.0" encoding="utf-8"?>
<!-- Generator: Adobe Illustrator 25.2.0, SVG Export Plug-In . SVG Version: 6.00 Build 0)  -->
<svg version="1.1" id="Layer_1" xmlns="http://www.w3.org/2000/svg" xmlns:xlink="http://www.w3.org/1999/xlink" x="0px" y="0px"
	 viewBox="0 0 100 100" style="enable-background:new 0 0 100 100;" xml:space="preserve">
<polygon style="fill:#F3AA3C;" points="50.6,1.8 98,49.9 50.2,98.2 2,50 "/>
<g>
	<path d="M16.3,58.2V41.7h5.6v3.2h-3.5v2.9h3.3v3.2h-3.3V55h3.5v3.2H16.3z"/>
</g>
<g>
	<path d="M30.4,58.2h-2.4l-1.6-5.3l-1.6,5.3h-2.3l2.7-8.3l-2.6-8.2h2.4l1.5,5l1.5-5h2.3l-2.6,8L30.4,58.2z"/>
</g>
<g>
	<path d="M37.6,46.9c0,0.8-0.1,1.5-0.2,2.2c-0.1,0.7-0.3,1.3-0.5,1.7c-0.1,0.3-0.3,0.6-0.5,0.8c-0.2,0.2-0.4,0.5-0.6,0.6
		c-0.2,0.2-0.4,0.3-0.7,0.4s-0.5,0.1-0.8,0.1h-1.1v5.4h-2.1V41.7h3.2c0.5,0,0.9,0.1,1.2,0.3c0.3,0.2,0.7,0.4,0.9,0.8
		c0.3,0.4,0.6,1,0.7,1.7C37.5,45.1,37.6,45.9,37.6,46.9z M35.4,47c0-0.5-0.1-0.9-0.2-1.2c-0.1-0.3-0.2-0.6-0.4-0.7
		c-0.2-0.2-0.4-0.3-0.6-0.3c-0.2,0-0.4,0-0.7,0h-0.3v4.9h0.1c0.2,0,0.4,0,0.6,0c0.2,0,0.3,0,0.5-0.1c0.1,0,0.2-0.1,0.4-0.2
		c0.1-0.1,0.2-0.2,0.3-0.4c0.1-0.3,0.2-0.6,0.3-0.9C35.4,47.9,35.4,47.5,35.4,47z"/>
</g>
<g>
	<path d="M44.2,58.2h-5.6V41.7h2.1V55h3.5V58.2z"/>
</g>
<g>
	<path d="M52.8,49.9c0,2.7-0.4,4.8-1.1,6.3s-1.7,2.3-3,2.3c-1.3,0-2.2-0.8-3-2.3c-0.7-1.5-1.1-3.6-1.1-6.3c0-2.7,0.4-4.8,1.1-6.3
		c0.7-1.5,1.7-2.3,3-2.3c1.3,0,2.2,0.8,3,2.3S52.8,47.3,52.8,49.9z M50.6,49.9c0-1-0.1-1.8-0.2-2.5s-0.2-1.3-0.4-1.7
		c-0.2-0.5-0.4-0.8-0.6-1s-0.5-0.3-0.7-0.3c-0.3,0-0.5,0.1-0.7,0.3c-0.2,0.2-0.4,0.5-0.6,1c-0.2,0.4-0.3,1-0.4,1.7
		c-0.1,0.7-0.2,1.6-0.2,2.5c0,1,0,1.9,0.2,2.5s0.2,1.2,0.4,1.7c0.2,0.5,0.4,0.8,0.6,1c0.2,0.2,0.5,0.3,0.7,0.3
		c0.2,0,0.5-0.1,0.7-0.3c0.2-0.2,0.4-0.5,0.6-1c0.2-0.5,0.3-1,0.4-1.7C50.6,51.8,50.6,51,50.6,49.9z"/>
</g>
<g>
	<path d="M56.6,58.5c-0.6,0-1.2-0.1-1.7-0.4c-0.5-0.2-0.9-0.5-1.3-0.9v-3.9h0.2c0.4,0.7,0.9,1.2,1.4,1.6s1,0.6,1.5,0.6
		c0.1,0,0.3,0,0.5-0.1c0.2-0.1,0.4-0.1,0.5-0.2c0.1-0.1,0.3-0.3,0.4-0.5c0.1-0.2,0.2-0.5,0.2-0.9c0-0.4-0.1-0.8-0.2-1
		c-0.2-0.3-0.4-0.4-0.6-0.6c-0.3-0.1-0.6-0.3-0.9-0.4s-0.6-0.3-0.9-0.5c-0.6-0.5-1.1-1.1-1.4-1.8c-0.3-0.8-0.4-1.7-0.4-2.9
		c0-1.5,0.3-2.8,1-3.8c0.7-1,1.5-1.4,2.5-1.4c0.5,0,1,0.1,1.5,0.3c0.5,0.2,0.9,0.5,1.3,0.8v3.8h-0.2c-0.3-0.5-0.7-1-1.1-1.3
		c-0.4-0.4-0.9-0.5-1.4-0.5c-0.2,0-0.3,0-0.5,0.1c-0.1,0.1-0.3,0.2-0.5,0.3c-0.1,0.1-0.2,0.3-0.3,0.5c-0.1,0.2-0.1,0.5-0.1,0.8
		c0,0.4,0.1,0.8,0.2,1c0.2,0.2,0.4,0.5,0.9,0.7c0.3,0.1,0.5,0.2,0.8,0.4c0.3,0.1,0.5,0.3,0.8,0.5c0.6,0.4,1,1,1.3,1.7
		s0.4,1.6,0.4,2.8c0,1.6-0.3,3-1,4C58.6,58,57.7,58.5,56.6,58.5z"/>
</g>
<g>
	<path d="M65.4,58.2h-4.5v-2.9h1.2V44.6h-1.2v-2.9h4.5v2.9h-1.2v10.8h1.2V58.2z"/>
</g>
<g>
	<path d="M73.8,41.7l-2.9,16.5h-2.2l-2.9-16.5H68l1.8,11.2l1.8-11.2H73.8z"/>
</g>
<g>
	<path d="M74.5,58.2V41.7h5.6v3.2h-3.5v2.9h3.3v3.2h-3.3V55h3.5v3.2H74.5z"/>
</g>
<g>
	<path d="M84.1,58.5c-0.6,0-1.2-0.1-1.7-0.4c-0.5-0.2-0.9-0.5-1.3-0.9v-3.9h0.2c0.4,0.7,0.9,1.2,1.4,1.6s1,0.6,1.5,0.6
		c0.1,0,0.3,0,0.5-0.1c0.2-0.1,0.4-0.1,0.5-0.2c0.1-0.1,0.3-0.3,0.4-0.5c0.1-0.2,0.2-0.5,0.2-0.9c0-0.4-0.1-0.8-0.2-1
		c-0.2-0.3-0.4-0.4-0.6-0.6c-0.3-0.1-0.6-0.3-0.9-0.4s-0.6-0.3-0.9-0.5c-0.6-0.5-1.1-1.1-1.4-1.8c-0.3-0.8-0.4-1.7-0.4-2.9
		c0-1.5,0.3-2.8,1-3.8c0.7-1,1.5-1.4,2.5-1.4c0.5,0,1,0.1,1.5,0.3c0.5,0.2,0.9,0.5,1.3,0.8v3.8h-0.2c-0.3-0.5-0.7-1-1.1-1.3
		c-0.4-0.4-0.9-0.5-1.4-0.5c-0.2,0-0.3,0-0.5,0.1c-0.1,0.1-0.3,0.2-0.5,0.3c-0.1,0.1-0.2,0.3-0.3,0.5c-0.1,0.2-0.1,0.5-0.1,0.8
		c0,0.4,0.1,0.8,0.2,1c0.2,0.2,0.4,0.5,0.9,0.7c0.3,0.1,0.5,0.2,0.8,0.4c0.3,0.1,0.5,0.3,0.8,0.5c0.6,0.4,1,1,1.3,1.7
		s0.4,1.6,0.4,2.8c0,1.6-0.3,3-1,4C86.1,58,85.2,58.5,84.1,58.5z"/>
</g>
<g>
	<path d="M46.8,81h-8.2v-2.4h2.6v-7.4h-2.6v-2.3c0.4,0,0.8,0,1.1-0.1s0.7-0.1,0.9-0.3c0.3-0.1,0.5-0.4,0.6-0.6
		c0.1-0.3,0.2-0.6,0.3-0.9h2.7v11.6h2.6V81z"/>
</g>
<g>
	<path d="M52,81h-3v-3.7h3V81z"/>
</g>
<g>
	<path d="M63.6,81h-9.1v-2.3c0.8-0.7,1.5-1.3,2.1-1.9c0.6-0.6,1.2-1.2,1.6-1.7c0.6-0.7,1-1.3,1.3-1.9c0.3-0.5,0.4-1.1,0.4-1.7
		c0-0.6-0.2-1.1-0.5-1.5c-0.3-0.3-0.8-0.5-1.4-0.5c-0.3,0-0.6,0-0.9,0.1c-0.3,0.1-0.6,0.2-0.9,0.3c-0.3,0.1-0.5,0.3-0.7,0.4
		s-0.3,0.3-0.5,0.3h-0.2v-3c0.3-0.2,0.9-0.4,1.6-0.6s1.5-0.3,2.2-0.3c1.5,0,2.6,0.4,3.3,1.1c0.8,0.7,1.1,1.8,1.1,3.1
		c0,0.8-0.2,1.6-0.5,2.4c-0.3,0.8-0.9,1.6-1.7,2.5c-0.5,0.6-1,1.1-1.5,1.5s-0.8,0.7-1,0.9h5.3V81z"/>
</g>
<g>
	<path d="M48.7,26.8c0,0-1-1.3-1.3-1c-0.3,0.3-1.4,2.5-2.5,2.5c-1.1,0.1-3.2-0.3-3.9-1.1s-0.7-1.9-0.7-1.9s1.7-2.2,4.2-2.1
		C47,23.4,49,25.5,48.7,26.8z"/>
</g>
<g>
	<path d="M48.5,28.7c0,0,0.4,0.8-0.4,1.7c-0.7,0.9-1.9,2-4,1.8c-2-0.2-4.2-3.1-4.3-3.4c-0.1-0.3,0.7-0.9,1.8-0.3s1.8,0.9,3.5,0.3
		C46.8,28.2,48,27.8,48.5,28.7z"/>
</g>
<g>
	<path d="M39.1,27.9c0,0-15.4,6-15.7,6.3c-0.3,0.3,0.7,0.3,1.2,0.2c0.5-0.2,14.6-5.9,14.6-5.9S39.6,28,39.1,27.9z"/>
</g>
<g>
	<path d="M39.3,29.7c0,0-4,1.8-4.6,2.2c-0.6,0.4-3.8,2.5-3.8,2.5s-0.1,0.5,0.6,0.3S38.8,30.7,39.3,29.7z"/>
</g>
<g>
	<path d="M39.6,30.5c0,0-3.2,2.4-3.4,2.6c-0.2,0.3-1.3,1-1,1.1s1.2-0.4,1.5-0.6c0.3-0.2,3.1-2.6,3.1-2.6S40.2,30.4,39.6,30.5z"/>
</g>
<g>
	<path d="M40.3,31.3l-2.1,2c0,0,0.3,0.3,0.9,0s1.5-1.5,1.5-1.5S40.7,31.2,40.3,31.3z"/>
</g>
<g>
	<path d="M47.1,32.9c0,0-0.5,0.2-0.3,0.6c0.2,0.5,1.1,1.1,1.1,1.1s0.5-0.1,0.2-0.5C47.9,33.7,47.1,32.9,47.1,32.9z"/>
</g>
<g>
	<path d="M47.7,31.7c0,0,0.7,2.2,1.2,2.8c0.5,0.5,1.2,1.1,1.3,0.7S49,32.3,48.7,32C48.4,31.8,47.9,31.5,47.7,31.7z"/>
</g>
<g>
	<path d="M49.5,30.7l12,5.1c0,0,0.6,0,0.5-0.4S51,30.7,51,30.7S49.8,30.1,49.5,30.7z"/>
</g>
<g>
	<path d="M50.5,29.9c0,0,2.6,0.4,2.6,0.7c0,0.4-3-0.4-3-0.4S50,29.8,50.5,29.9z"/>
</g>
<g>
	<path d="M50.8,29.5c0,0,2.2,0.7,2.5,0.8s0.5-0.4,0.3-0.4C53.5,29.8,52,29,50.8,29.5z"/>
</g>
<g>
	<path d="M54.2,30c0,0-0.7,0.9-0.5,1.1s1.4-0.1,1.2-0.4C54.7,30.4,54.6,29.9,54.2,30z"/>
</g>
<g>
	<path d="M55.5,30.3c0,0,0,0.6,0.4,0.6c0.4,0,6.7,1.7,6.7,1.7s1.2-0.7,0.6-1.2S55.9,30,55.9,30S55.5,30.1,55.5,30.3z"/>
</g>
<g>
	<path d="M49.8,28.4l24.6,3.5c0,0,1.2-0.5,0.4-0.7c-0.7-0.2-22.5-3-22.5-3S50.3,27.7,49.8,28.4z"/>
</g>
<g>
	<path d="M49.9,26.4c0,0,11.8-2.2,17.1-1.8c0,0-10.4,1.8-12.5,1.8C52.4,26.4,49.9,26.4,49.9,26.4z"/>
</g>
<g>
	<path d="M49.5,24.8L64.6,19c0,0,0.2-0.6-0.3-0.5s-15,5.7-15,5.7S48.8,24.8,49.5,24.8z"/>
</g>
<g>
	<path d="M54.7,23.7l6.1-1.9c0,0,0.5-0.6-0.5-0.4c-1,0.2-5.5,1.6-5.5,1.6S53.8,23.6,54.7,23.7z"/>
</g>
<g>
	<path d="M59.8,22.5c0,0-4.6,1.5-4.8,1.6s-0.3,0.5,0.2,0.5c0.5-0.1,5-1.5,5-1.5S60.9,22.3,59.8,22.5z"/>
</g>
<g>
	<path d="M51.5,20.4c0,0,0.3,0.5,0.1,0.9S49,23.9,49,23.9s-0.5-0.2-0.2-0.6S51.2,20.4,51.5,20.4z"/>
</g>
<g>
	<path d="M47.9,23.3l8-12.4c0,0,0-1-0.7-0.3c-0.7,0.7-7.6,12.3-7.6,12.3L47.9,23.3z"/>
</g>
<g>
	<path d="M52.2,14.5l-2.7,4.8c0,0-0.1-0.4,0-0.8s2.3-4,2.3-4H52.2z"/>
</g>
<g>
	<path d="M52.6,11.6l-1.1,2.4c0,0-0.3-0.4-0.1-0.9c0.1-0.5,0.9-2.1,0.9-2.1L52.6,11.6z"/>
</g>
<g>
	<path d="M52.9,7.6l-6.5,15.2v-0.9L51.9,8C51.9,8,52.5,7.6,52.9,7.6z"/>
</g>
<g>
	<path d="M46,14.5c0,0,0.6,1.4,0.4,2.1c-0.2,0.7-0.9,5.8-0.9,5.8s-0.3-2.1-0.2-3.5c0,0-0.6,3.5-0.8,3.5c-0.2,0,0-1.5,0-1.8
		C44.5,20.3,45.4,14.9,46,14.5z"/>
</g>
<g>
	<path d="M42.2,21.8c0,0-0.8-2.1-1-2.3c-0.2-0.2-0.5-0.3-0.6,0s1.2,2.3,1.2,2.3S41.9,22.2,42.2,21.8z"/>
</g>
<g>
	<path d="M39.9,20.3c0,0,1.6,1.8,1.5,2c-0.1,0.3-0.4,0.3-0.6,0.2s-1.4-1.9-1.4-2.1C39.3,20.1,39.9,20.3,39.9,20.3z"/>
</g>
<g>
	<path d="M39.5,22.8c0,0,0.9,1.4,0.1,1.7c-0.8,0.3-1.2-0.5-1.2-0.8c0-0.3-0.4-1-0.8-1c-0.4,0-1.6-0.2-1.2,0.4
		c0.4,0.7,1.6-0.1,1.5,0.2c-0.1,0.4-0.2,0.8-0.9,0.8c-0.6-0.1-2.1-0.6-1.7-1.5S37.7,21,39.5,22.8z"/>
</g>
<g>
	<path d="M39.5,26.1L37,24.8c0,0-0.8,0.1-0.3,0.6c0.5,0.5,2.4,0.9,2.4,0.9S39.8,26.4,39.5,26.1z"/>
</g>
<g>
	<path d="M33.6,25.6c0,0,5.4,1.3,5.6,1.3s0.3,0.2,0,0.3c-0.3,0-5.1-0.7-5.6-0.8C33.2,26.3,33,25.6,33.6,25.6z"/>
</g>
<g>
	<path d="M43.3,15.8c0,0-0.4-0.2-0.6-0.2c-0.2,0-2.2,2-1.3,2.7c0.8,0.7,1.8,1.4,1.8,1.4s0.8-0.8,1.2-1.8
		C44.8,17,43.3,15.8,43.3,15.8z M43.7,17.3c-0.1,0.3-0.6,0.3-0.7,0.1c-0.2-0.2-0.6-0.3-0.6-0.2c0,0.2-0.2,1.1-0.5,1.1
		s-0.1-0.6,0-0.8s0.5-1.4,1.2-1.2C43.1,16.3,43.8,17,43.7,17.3z"/>
</g>
<g>
	<path d="M48.6,12.1c0,0-1.5,1.4-1.6,1.9c-0.1,0.5-0.3,1.1,0,1c0.3-0.1,0.5-0.9,0.7-0.7c0.2,0.2,0.4,0.9,0.1,1
		c-0.4,0.2-0.7,0.7-0.3,0.7c0.5,0.1,1.6-1.9,1.7-2.3c0.1-0.4,0.3-0.9,0-0.8c-0.3,0.1-0.5,0.7-0.6,0.4c-0.1-0.3,0.3-0.7,0.3-0.9
		C48.9,12.1,48.9,12.1,48.6,12.1z"/>
</g>
<g>
	<path d="M56.4,14.2c0,0-1.9,1.6-2.3,2c-0.4,0.5-1.4,1.4-1.2,1.9c0.2,0.5,1.1,0.5,1.4,0.3c0.4-0.1,1.3-0.2,0.8,0
		c-0.5,0.3-1.3,0.3-1.5,0.5s-0.3,0.1-0.9,0.3c-0.6,0.1-0.4,1,0.2,1c0.6,0.1,1.2-0.7,1.5-0.8c0.3,0,1.9-1.3,2.3-1.4s0.8-0.7,0.4-0.7
		c-0.4,0-2.5,0.2-2.7,0.3s-0.5-0.2-0.3-0.4c0.2-0.2,1.2-0.5,1.4-0.5s-0.2-0.3-0.2-0.5c0-0.2,0.4-0.5,0.6-0.5s0.9,0.8,1.3,0.2
		c0.4-0.6,0.4-1.3,0-1.1c-0.4,0.3,0.1,0.6-0.8,0.6s-0.3-0.7,0-0.9C56.6,14.6,56.8,14.1,56.4,14.2z"/>
</g>
<g>
	<path d="M68.6,26c0,0,1,0.1,0.6,1.1s-1.7,1.7-2,1.7s-0.3-0.4,0.2-0.8c0.5-0.4,1.3-0.7,1.2-1.1c-0.1-0.4-0.5-0.5-0.9-0.1
		S66.8,28,66.4,28c-0.3,0-0.5-0.6-0.1-0.9S67.6,25.8,68.6,26z"/>
</g>
</svg>
