<?xml version="1.0" encoding="iso-8859-1"?>
<!-- Generator: Adobe Illustrator 25.4.1, SVG Export Plug-In . SVG Version: 6.00 Build 0)  -->
<svg version="1.1" id="Layer_1" xmlns="http://www.w3.org/2000/svg" xmlns:xlink="http://www.w3.org/1999/xlink" x="0px" y="0px"
	 viewBox="0 0 100 100" style="enable-background:new 0 0 100 100;" xml:space="preserve">
<polygon style="fill:#EB3223;" points="50.6,1.8 62.45,13.825 74.3,25.85 86.15,37.875 98,49.9 86.05,61.975 74.1,74.05 
	62.15,86.125 50.2,98.2 38.15,86.15 26.1,74.1 14.05,62.05 2,50 14.15,37.95 26.3,25.9 38.45,13.85 "/>
<path style="fill:#FFFFFF;" d="M20.4,46.7h-1.25H17.9h-1.25H15.4v0.95v0.95v0.95v0.95h1.15h1.15h1.15H20v0.45v0.45v0.45v0.45h-1.15
	H17.7h-1.15H15.4v1.325v1.325v1.325V57.6h-0.55H14.3h-0.55H13.2v-3.175V51.25v-3.175V44.9h1.825h1.825h1.825H20.5v0.45v0.45v0.45
	v0.45h-0.025H20.45c0,0-0.013,0-0.025,0C20.413,46.7,20.4,46.7,20.4,46.7z"/>
<path d="M15.5,57.7h-0.625H14.25h-0.625H13v-3.225V51.25v-3.225V44.8h1.875h1.875h1.875H20.5v0.5v0.5v0.5v0.5h-1.25H18h-1.25H15.5
	v0.875v0.875v0.875V50.3h1.15h1.15h1.15h1.15v0.5v0.5v0.5v0.5h-1.15H17.8h-1.15H15.5v1.35V55c0,0,0,0.675,0,1.35
	C15.5,57.025,15.5,57.7,15.5,57.7z M13.3,57.4h0.5h0.5h0.5h0.5v-1.325V54.75v-1.325V52.1h1.15h1.15h1.15h1.15v-0.375V51.35v-0.375
	V50.6h-1.15H17.6h-1.15H15.3v-1v-1v-1v-1h1.25h1.25h1.25h1.25v-0.4v-0.4v-0.4V45h-1.75H16.8h-1.75H13.3c0,0,0,0.775,0,1.938
	s0,2.713,0,4.263s0,3.1,0,4.263C13.3,56.625,13.3,57.4,13.3,57.4z"/>
<path style="fill:#FFFFFF;" d="M33.2,52.4c0,0.875-0.112,1.644-0.338,2.305c-0.225,0.661-0.562,1.214-1.012,1.658
	c-0.45,0.444-1.012,0.778-1.688,1.001C29.487,57.588,28.7,57.7,27.8,57.7c-0.85,0-1.594-0.106-2.231-0.319
	c-0.638-0.213-1.169-0.531-1.594-0.956s-0.744-0.956-0.956-1.594C22.806,54.194,22.7,53.45,22.7,52.6v-1.925V48.75v-1.925V44.9h0.55
	h0.55h0.55h0.55v1.825v1.825v1.825V52.2c0,0.625,0.062,1.169,0.189,1.633c0.127,0.464,0.317,0.849,0.574,1.155
	c0.256,0.306,0.578,0.534,0.967,0.685C27.019,55.825,27.475,55.9,28,55.9c0.5,0,0.938-0.075,1.312-0.225
	C29.688,55.525,30,55.3,30.25,55c0.25-0.3,0.438-0.675,0.562-1.125S31,52.9,31,52.3v-1.85V48.6v-1.85V44.9h0.55h0.55h0.55h0.55
	v1.875v1.875c0,0,0,0.938,0,1.875C33.2,51.463,33.2,52.4,33.2,52.4z"/>
<path d="M27.8,57.9c-0.875,0-1.644-0.112-2.305-0.334c-0.661-0.222-1.214-0.553-1.657-0.991s-0.778-0.981-1.002-1.628
	C22.613,54.3,22.5,53.55,22.5,52.7v-1.975V48.75v-1.975V44.8h0.625h0.625h0.625H25v1.85v1.85v1.85v1.85
	c0,0.6,0.062,1.125,0.188,1.575c0.125,0.45,0.312,0.825,0.562,1.125s0.562,0.525,0.938,0.675S27.5,55.8,28,55.8
	c0.475,0,0.888-0.069,1.239-0.209s0.642-0.353,0.873-0.641s0.403-0.65,0.517-1.091C30.743,53.419,30.8,52.9,30.8,52.3v-1.9v-1.9
	v-1.9v-1.9h0.625h0.625h0.625H33.3v1.9v1.9v1.9v1.9c0,0.95-0.119,1.775-0.353,2.478c-0.234,0.703-0.584,1.284-1.047,1.747
	c-0.462,0.463-1.038,0.806-1.722,1.034C29.494,57.788,28.7,57.9,27.8,57.9z M22.8,45v1.9v1.9v1.9v1.9c0,0.85,0.1,1.588,0.303,2.216
	s0.509,1.147,0.922,1.559s0.931,0.719,1.559,0.922C26.212,57.5,26.95,57.6,27.8,57.6c0.875,0,1.638-0.106,2.289-0.32
	c0.652-0.214,1.192-0.536,1.624-0.967c0.431-0.431,0.753-0.972,0.967-1.624C32.894,54.038,33,53.275,33,52.4v-1.85V48.7v-1.85V45
	h-0.5H32h-0.5H31v1.825v1.825v1.825V52.3c0,0.625-0.062,1.169-0.189,1.633c-0.127,0.464-0.317,0.849-0.574,1.155
	c-0.256,0.306-0.578,0.534-0.967,0.685C28.881,55.925,28.425,56,27.9,56s-0.988-0.081-1.386-0.242
	c-0.399-0.161-0.733-0.402-1.002-0.721c-0.268-0.319-0.471-0.715-0.607-1.189C24.769,53.375,24.7,52.825,24.7,52.2v-1.8v-1.8v-1.8
	V45h-0.475H23.75h-0.475H22.8z"/>
<path style="fill:#FFFFFF;" d="M43.9,57.6H42h-1.9h-1.9h-1.9v-3.175V51.25v-3.175V44.9h1.825h1.825h1.825H43.6v0.45v0.45v0.45v0.45
	h-1.25H41.1h-1.25H38.6v0.9v0.9v0.9v0.9h1.15h1.15h1.15h1.15v0.45v0.45v0.45v0.45h-1.15H40.9h-1.15H38.6v0.925v0.925v0.925V55.8
	h1.325h1.325h1.325H43.9v0.45v0.45c0,0,0,0.225,0,0.45S43.9,57.6,43.9,57.6z"/>
<path d="M44,57.7h-1.95H40.1h-1.95H36.2v-3.225V51.25v-3.225V44.8h1.875h1.875h1.875H43.7v0.5v0.5v0.5v0.5h-1.25H41.2h-1.25H38.7
	v0.825v0.825v0.825V50.1h1.15H41h1.15h1.15v0.5v0.5v0.5v0.5h-1.15H41h-1.15H38.7v0.875v0.875v0.875V55.6h1.325h1.325h1.325H44v0.525
	v0.525v0.525V57.7z M36.4,57.4h1.825h1.825h1.825H43.7v-0.375V56.65v-0.375V55.9h-1.325H41.05h-1.325H38.4v-1v-1v-1v-1h1.15h1.15
	h1.15H43v-0.375V51.15v-0.375V50.4h-1.15H40.7h-1.15H38.4v-0.95V48.5v-0.95V46.6h1.25h1.25h1.25h1.25v-0.4v-0.4v-0.4V45h-1.75H39.9
	h-1.75H36.4v3.1v3.1v3.1V57.4z"/>
<path style="fill:#FFFFFF;" d="M53.7,57.6h-1.875H49.95h-1.875H46.2v-3.175V51.25v-3.175V44.9h0.55h0.55h0.55h0.55v2.725v2.725
	v2.725V55.8h1.3H51h1.3h1.3v0.45v0.45v0.45v0.45h0.025h0.025c0,0,0.013,0,0.025,0S53.7,57.6,53.7,57.6z"/>
<path d="M53.9,57.7h-1.925H50.05h-1.925H46.2v-3.225V51.25v-3.225V44.8h0.625h0.625h0.625H48.7v2.725v2.725v2.725V55.7H50h1.3h1.3
	h1.3v0.5v0.5c0,0,0,0.25,0,0.5S53.9,57.7,53.9,57.7z M46.4,57.4h1.8H50h1.8h1.8v-0.375V56.65v-0.375V55.9h-1.3H51h-1.3h-1.3v-2.725
	V50.45v-2.725V45h-0.5h-0.5h-0.5h-0.5v3.1v3.1v3.1V57.4z"/>
<path style="fill:#FFFFFF;" d="M66.5,57.8c-0.475,0-0.931-0.038-1.367-0.112c-0.436-0.075-0.851-0.188-1.245-0.338
	c-0.394-0.15-0.766-0.338-1.115-0.562C62.425,56.562,62.1,56.3,61.8,56s-0.562-0.619-0.788-0.958
	c-0.225-0.339-0.412-0.698-0.562-1.079c-0.15-0.382-0.263-0.785-0.338-1.211S60,51.875,60,51.4c0-0.5,0.037-0.981,0.112-1.441
	c0.075-0.459,0.188-0.897,0.338-1.309s0.337-0.8,0.562-1.159C61.237,47.131,61.5,46.8,61.8,46.5s0.625-0.562,0.975-0.787
	c0.35-0.225,0.725-0.412,1.125-0.562s0.825-0.263,1.275-0.338C65.625,44.738,66.1,44.7,66.6,44.7c0.475,0,0.925,0.038,1.352,0.112
	c0.426,0.075,0.829,0.188,1.21,0.338c0.382,0.15,0.741,0.338,1.08,0.562s0.658,0.487,0.957,0.787s0.556,0.619,0.771,0.958
	c0.216,0.339,0.391,0.698,0.529,1.079c0.138,0.382,0.238,0.785,0.303,1.211c0.066,0.426,0.097,0.876,0.097,1.351
	c0,0.525-0.037,1.019-0.113,1.483c-0.075,0.464-0.188,0.898-0.337,1.304c-0.15,0.407-0.337,0.786-0.562,1.137S71.4,55.7,71.1,56
	c-0.25,0.3-0.537,0.562-0.859,0.787s-0.678,0.412-1.066,0.562c-0.387,0.15-0.806,0.263-1.253,0.338S67,57.8,66.5,57.8z M66.6,46.6
	c-0.3,0-0.588,0.025-0.863,0.076s-0.537,0.13-0.787,0.236s-0.488,0.241-0.713,0.405C64.012,47.481,63.8,47.675,63.6,47.9
	s-0.375,0.463-0.525,0.714S62.8,49.132,62.7,49.413c-0.1,0.281-0.175,0.578-0.225,0.892c-0.05,0.314-0.075,0.646-0.075,0.996
	s0.025,0.681,0.073,0.995s0.12,0.611,0.215,0.893s0.21,0.547,0.345,0.798c0.136,0.251,0.292,0.488,0.467,0.713
	s0.369,0.419,0.58,0.583c0.211,0.164,0.439,0.298,0.683,0.404c0.243,0.107,0.503,0.185,0.776,0.236S66.1,56,66.4,56
	c0.325,0,0.631-0.025,0.92-0.075s0.561-0.125,0.818-0.225s0.497-0.225,0.723-0.375C69.088,55.175,69.3,55,69.5,54.8
	c0.175-0.2,0.331-0.425,0.467-0.672s0.251-0.516,0.345-0.803s0.165-0.594,0.214-0.916C70.575,52.088,70.6,51.75,70.6,51.4
	c0-0.375-0.025-0.731-0.073-1.067c-0.048-0.336-0.12-0.652-0.214-0.946s-0.209-0.566-0.345-0.814
	C69.831,48.325,69.675,48.1,69.5,47.9c-0.15-0.225-0.325-0.419-0.523-0.583c-0.198-0.164-0.42-0.298-0.664-0.404
	s-0.509-0.184-0.795-0.236C67.231,46.625,66.925,46.6,66.6,46.6z"/>
<path d="M66.5,57.9c-0.5,0-0.975-0.037-1.425-0.112C64.625,57.713,64.2,57.6,63.8,57.45s-0.775-0.337-1.125-0.562
	C62.325,56.663,62,56.4,61.7,56.1s-0.562-0.625-0.787-0.973c-0.225-0.348-0.413-0.721-0.562-1.115
	c-0.15-0.394-0.263-0.809-0.338-1.245S59.9,51.875,59.9,51.4c0-0.525,0.037-1.019,0.112-1.484c0.075-0.466,0.188-0.903,0.338-1.316
	s0.337-0.8,0.562-1.166c0.225-0.366,0.487-0.709,0.787-1.034c0.3-0.3,0.631-0.569,0.991-0.803c0.359-0.234,0.747-0.434,1.159-0.597
	s0.85-0.287,1.309-0.372C65.619,44.544,66.1,44.5,66.6,44.5c0.475,0,0.931,0.037,1.367,0.112c0.436,0.075,0.852,0.188,1.246,0.338
	s0.766,0.337,1.114,0.562C70.675,45.737,71,46,71.3,46.3s0.562,0.625,0.788,0.973c0.225,0.348,0.412,0.721,0.562,1.115
	c0.15,0.394,0.263,0.809,0.338,1.245S73.1,50.525,73.1,51c0,0.525-0.037,1.025-0.113,1.498c-0.075,0.473-0.187,0.92-0.337,1.339
	c-0.15,0.419-0.338,0.81-0.562,1.171S71.6,55.7,71.3,56c-0.3,0.325-0.625,0.606-0.975,0.845S69.6,57.282,69.2,57.438
	c-0.4,0.156-0.825,0.271-1.275,0.348C67.475,57.863,67,57.9,66.5,57.9z M66.7,44.8c-0.5,0-0.975,0.038-1.425,0.112
	C64.825,44.987,64.4,45.1,64,45.25s-0.775,0.338-1.125,0.562C62.525,46.037,62.2,46.3,61.9,46.6s-0.556,0.625-0.772,0.975
	S60.737,48.3,60.6,48.7c-0.138,0.4-0.238,0.825-0.303,1.275C60.231,50.425,60.2,50.9,60.2,51.4c0,0.45,0.037,0.888,0.111,1.308
	s0.183,0.824,0.327,1.205s0.322,0.741,0.533,1.073c0.211,0.333,0.454,0.639,0.729,0.914c0.275,0.3,0.581,0.556,0.916,0.772
	c0.334,0.216,0.697,0.391,1.084,0.528c0.388,0.138,0.8,0.237,1.234,0.303c0.434,0.066,0.891,0.097,1.366,0.097
	s0.931-0.038,1.367-0.112c0.436-0.075,0.852-0.188,1.246-0.338c0.394-0.15,0.765-0.338,1.114-0.562
	C70.575,56.362,70.9,56.1,71.2,55.8s0.556-0.625,0.772-0.975c0.216-0.35,0.391-0.725,0.528-1.125s0.238-0.825,0.303-1.275
	C72.869,51.975,72.9,51.5,72.9,51c0-0.475-0.037-0.925-0.111-1.35c-0.074-0.425-0.183-0.825-0.327-1.2s-0.322-0.725-0.533-1.05
	c-0.211-0.325-0.454-0.625-0.729-0.9s-0.575-0.519-0.9-0.73c-0.325-0.211-0.675-0.389-1.05-0.533
	c-0.375-0.144-0.775-0.253-1.2-0.326C67.625,44.838,67.175,44.8,66.7,44.8z M66.5,56.1c-0.3,0-0.594-0.025-0.877-0.076
	s-0.555-0.13-0.811-0.236s-0.497-0.241-0.717-0.405s-0.42-0.358-0.595-0.583c-0.2-0.225-0.375-0.463-0.525-0.716
	S62.7,53.562,62.6,53.275s-0.175-0.594-0.225-0.922c-0.05-0.328-0.075-0.678-0.075-1.053c0-0.35,0.025-0.688,0.075-1.011
	c0.05-0.324,0.125-0.633,0.225-0.927c0.1-0.294,0.225-0.572,0.375-0.832c0.15-0.261,0.325-0.505,0.525-0.73s0.412-0.419,0.639-0.583
	c0.227-0.164,0.467-0.298,0.724-0.404c0.256-0.107,0.528-0.185,0.817-0.236S66.275,46.5,66.6,46.5s0.631,0.025,0.92,0.076
	s0.561,0.13,0.818,0.236c0.256,0.107,0.497,0.241,0.723,0.405c0.227,0.164,0.439,0.358,0.639,0.583
	c0.175,0.2,0.331,0.425,0.467,0.675S70.418,49,70.512,49.3c0.094,0.3,0.166,0.625,0.214,0.975c0.048,0.35,0.073,0.725,0.073,1.125
	c0,0.375-0.025,0.731-0.073,1.067c-0.048,0.336-0.12,0.652-0.214,0.946s-0.209,0.566-0.345,0.814
	C70.031,54.475,69.875,54.7,69.7,54.9c-0.2,0.175-0.419,0.338-0.655,0.483s-0.489,0.273-0.757,0.379
	c-0.269,0.106-0.553,0.191-0.852,0.249C67.137,56.069,66.825,56.1,66.5,56.1z M66.6,46.7c-0.3,0-0.588,0.025-0.861,0.076
	c-0.273,0.051-0.533,0.129-0.776,0.236c-0.244,0.106-0.472,0.241-0.683,0.405c-0.211,0.164-0.405,0.358-0.58,0.583
	c-0.175,0.2-0.331,0.425-0.467,0.67c-0.136,0.245-0.251,0.511-0.345,0.793s-0.166,0.578-0.214,0.886S62.6,50.975,62.6,51.3
	c0,0.35,0.025,0.681,0.073,0.994s0.12,0.606,0.214,0.881s0.209,0.531,0.345,0.769c0.136,0.238,0.293,0.456,0.468,0.656
	s0.369,0.375,0.58,0.525c0.211,0.15,0.439,0.275,0.682,0.375c0.244,0.1,0.504,0.175,0.777,0.225C66.012,55.775,66.3,55.8,66.6,55.8
	s0.588-0.025,0.863-0.075C67.738,55.675,68,55.6,68.25,55.5s0.488-0.225,0.713-0.375S69.4,54.8,69.6,54.6
	c0.175-0.2,0.331-0.419,0.467-0.656c0.136-0.237,0.251-0.494,0.345-0.769s0.165-0.569,0.214-0.881
	C70.675,51.981,70.7,51.65,70.7,51.3c0-0.375-0.025-0.725-0.073-1.052c-0.048-0.326-0.12-0.63-0.214-0.91s-0.209-0.541-0.345-0.78
	C69.931,48.319,69.775,48.1,69.6,47.9c-0.2-0.2-0.412-0.375-0.637-0.525S68.5,47.1,68.25,47s-0.512-0.175-0.787-0.225
	C67.188,46.725,66.9,46.7,66.6,46.7z"/>
<path style="fill:#FFFFFF;" d="M77.8,57.6h-0.575H76.65h-0.575H75.5v-3.175V51.25v-3.175V44.9h0.575h0.575h0.575H77.8v3.175v3.175
	v3.175V57.6z"/>
<path d="M77.9,57.7h-0.625H76.65h-0.625H75.4v-3.225V51.25v-3.225V44.8h0.625h0.625h0.625H77.9v3.225v3.225v3.225V57.7z M75.6,57.4
	h0.5h0.5h0.5h0.5v-3.1v-3.1v-3.1V45h-0.5h-0.5h-0.5h-0.5v3.1v3.1v3.1V57.4z"/>
<path style="fill:#FFFFFF;" d="M88.5,57.6h-1.875H84.75h-1.875H81v-3.175V51.25v-3.175V44.9h0.55h0.55h0.55h0.55v2.725v2.725v2.725
	V55.8h1.3h1.3h1.3h1.3v0.45v0.45v0.45v0.45h0.025h0.025c0,0,0.012,0,0.025,0S88.5,57.6,88.5,57.6z"/>
<path d="M88.7,57.7h-1.925H84.85h-1.925H81v-3.225V51.25v-3.225V44.8h0.625h0.625h0.625H83.5v2.725v2.725v2.725V55.7h1.3h1.3h1.3
	h1.3v0.5v0.5v0.5V57.7z M81.2,57.4H83h1.8h1.8h1.8v-0.375V56.65v-0.375V55.9h-1.3h-1.3h-1.3h-1.3v-2.725V50.45v-2.725V45h-0.5h-0.5
	h-0.5h-0.5v3.1v3.1v3.1V57.4z"/>
<path style="fill:#FFFFFF;" d="M54.7,35.8c-0.025-0.1,0.025-0.263,0.122-0.458c0.097-0.195,0.241-0.423,0.403-0.654
	c0.162-0.232,0.344-0.466,0.516-0.674s0.334-0.389,0.459-0.514c0.05-0.075,0.1-0.144,0.148-0.206s0.096-0.119,0.139-0.169
	c0.044-0.05,0.084-0.094,0.12-0.131c0.036-0.037,0.067-0.069,0.092-0.094c0.05-0.075,0.087-0.144,0.114-0.206
	s0.042-0.119,0.049-0.169c0.006-0.05,0.003-0.094-0.008-0.131c-0.011-0.037-0.03-0.069-0.055-0.094
	c-0.025-0.05-0.056-0.094-0.094-0.131c-0.037-0.037-0.081-0.069-0.131-0.094s-0.106-0.044-0.169-0.056
	C56.344,32.006,56.275,32,56.2,32c-0.05,0-0.1-0.006-0.15-0.023c-0.05-0.017-0.1-0.045-0.15-0.089c-0.05-0.044-0.1-0.104-0.15-0.183
	c-0.05-0.08-0.1-0.18-0.15-0.305c0-0.025-0.006-0.056-0.016-0.091c-0.009-0.034-0.022-0.072-0.034-0.109
	c-0.013-0.038-0.025-0.075-0.034-0.109C55.506,31.056,55.5,31.025,55.5,31c-0.025-0.125-0.05-0.25-0.083-0.369
	c-0.033-0.119-0.073-0.231-0.129-0.331c-0.057-0.1-0.129-0.187-0.224-0.256c-0.095-0.069-0.214-0.119-0.364-0.144
	c-0.15,0-0.275-0.038-0.378-0.098s-0.184-0.145-0.247-0.239s-0.106-0.197-0.134-0.295C53.913,29.169,53.9,29.075,53.9,29
	c0-0.05,0.019-0.119,0.052-0.198s0.08-0.17,0.136-0.264s0.122-0.191,0.192-0.283c0.07-0.092,0.145-0.179,0.22-0.254
	c0.075-0.125,0.144-0.231,0.203-0.322c0.059-0.091,0.109-0.166,0.147-0.228s0.062-0.112,0.072-0.153
	c0.009-0.041,0.003-0.072-0.022-0.097v-0.025V27.15v-0.025V27.1l-0.025-0.025L54.85,27.05l-0.025-0.025L54.8,27h-0.025H54.75h-0.025
	H54.7c-0.05,0-0.112,0.006-0.184,0.017c-0.072,0.011-0.153,0.026-0.241,0.045s-0.181,0.041-0.278,0.064S53.8,27.175,53.7,27.2
	s-0.2,0.05-0.297,0.074c-0.097,0.023-0.191,0.045-0.278,0.064s-0.169,0.035-0.241,0.045C52.812,27.394,52.75,27.4,52.7,27.4
	c-0.025,0-0.05-0.025-0.073-0.072c-0.024-0.047-0.046-0.116-0.065-0.203c-0.018-0.087-0.034-0.194-0.045-0.316S52.5,26.55,52.5,26.4
	c0-0.1,0-0.206-0.002-0.317c-0.002-0.111-0.005-0.227-0.011-0.346c-0.006-0.118-0.015-0.24-0.029-0.364S52.425,25.125,52.4,25
	c-0.025-0.275-0.056-0.513-0.095-0.714c-0.039-0.201-0.086-0.367-0.142-0.498c-0.057-0.132-0.122-0.229-0.199-0.293
	C51.888,23.431,51.8,23.4,51.7,23.4h-0.025H51.65h-0.025H51.6h-0.025H51.55h-0.025H51.5h-0.025H51.45h-0.025H51.4v0.025v0.025v0.025
	V23.5c-0.15,0.525-0.319,1.056-0.492,1.561s-0.352,0.983-0.521,1.401c-0.169,0.419-0.328,0.779-0.464,1.046S49.675,27.95,49.6,28
	c-0.025,0-0.062-0.025-0.108-0.066c-0.045-0.041-0.099-0.097-0.155-0.159s-0.116-0.131-0.173-0.197S49.05,27.45,49,27.4
	c-0.075-0.1-0.15-0.2-0.227-0.294c-0.076-0.094-0.154-0.181-0.236-0.256c-0.082-0.075-0.166-0.137-0.255-0.181S48.1,26.6,48,26.6
	c-0.175,0.025-0.3,0.112-0.389,0.244s-0.142,0.306-0.173,0.506s-0.04,0.425-0.042,0.656c-0.001,0.231,0.005,0.469,0.005,0.694v0.075
	v0.075v0.075V29c0,0.025,0,0.05-0.002,0.075c-0.002,0.025-0.005,0.05-0.011,0.075s-0.016,0.05-0.03,0.075
	c-0.014,0.025-0.032,0.05-0.057,0.075c0,0,0,0-0.003,0c-0.003,0-0.009,0-0.022,0s-0.031,0-0.059,0s-0.066,0-0.116,0
	c-0.025,0-0.05,0-0.076-0.002c-0.026-0.002-0.054-0.005-0.085-0.011c-0.032-0.006-0.067-0.015-0.106-0.029S46.75,29.225,46.7,29.2
	c-0.05,0-0.1-0.006-0.148-0.016s-0.096-0.022-0.139-0.034c-0.044-0.013-0.084-0.025-0.12-0.034C46.256,29.106,46.225,29.1,46.2,29.1
	l0,0l0,0l0,0l0,0c-0.2,0-0.356,0.019-0.478,0.055s-0.209,0.089-0.272,0.157s-0.1,0.153-0.122,0.252S45.3,29.775,45.3,29.9
	c0,0.05,0.006,0.113,0.016,0.184c0.009,0.072,0.022,0.153,0.034,0.241c0.013,0.087,0.025,0.181,0.034,0.278
	C45.394,30.7,45.4,30.8,45.4,30.9c0.025,0.125,0.05,0.256,0.072,0.384c0.022,0.128,0.041,0.253,0.053,0.366s0.019,0.212,0.016,0.291
	c-0.003,0.078-0.016,0.134-0.041,0.159l0,0l0,0l0,0l0,0c0,0,0,0-0.002,0s-0.005,0-0.011,0c-0.006,0-0.015,0-0.029,0
	s-0.033,0-0.058,0s-0.05,0-0.075,0s-0.05,0-0.075,0c-0.025,0-0.05,0-0.075,0c-0.025,0-0.05,0-0.075,0s-0.05,0-0.075,0
	s-0.05,0-0.075,0c-0.025,0-0.05,0-0.075,0c-0.025,0-0.05,0-0.075,0c-0.05,0-0.094,0.006-0.131,0.017
	c-0.038,0.011-0.069,0.026-0.094,0.045c-0.025,0.019-0.044,0.041-0.056,0.065C44.506,32.25,44.5,32.275,44.5,32.3
	c-0.025,0.075,0,0.225,0.055,0.412c0.055,0.188,0.139,0.413,0.232,0.638s0.196,0.45,0.289,0.638s0.174,0.337,0.224,0.412
	s0.094,0.144,0.13,0.206c0.036,0.062,0.064,0.119,0.083,0.169c0.019,0.05,0.028,0.094,0.026,0.131S45.525,34.975,45.5,35
	c0,0.025-0.006,0.05-0.025,0.073c-0.019,0.024-0.05,0.046-0.1,0.065c-0.05,0.019-0.119,0.034-0.213,0.045
	C45.069,35.194,44.95,35.2,44.8,35.2c-0.025,0-0.05,0-0.075,0c-0.025,0-0.05,0-0.075,0c-0.025,0-0.05,0-0.075,0
	c-0.025,0-0.05,0-0.075,0c-0.375-0.025-0.856-0.444-1.369-1.067c-0.513-0.623-1.056-1.451-1.556-2.295
	c-0.5-0.844-0.956-1.703-1.294-2.389c-0.338-0.686-0.556-1.199-0.581-1.349c-0.025-0.075-0.044-0.156-0.058-0.239
	s-0.023-0.167-0.029-0.248c-0.007-0.081-0.01-0.16-0.011-0.23S39.6,27.25,39.6,27.2c0.075,0,0.162,0.006,0.259,0.016
	c0.097,0.009,0.203,0.022,0.316,0.034s0.231,0.025,0.353,0.034S40.775,27.3,40.9,27.3c0.2,0,0.381-0.006,0.544-0.019
	c0.162-0.013,0.306-0.031,0.431-0.056c0.125-0.025,0.231-0.056,0.319-0.094C42.281,27.094,42.35,27.05,42.4,27
	c0.075-0.075,0.119-0.2,0.136-0.37s0.008-0.386-0.024-0.642c-0.031-0.257-0.084-0.554-0.154-0.886C42.287,24.769,42.2,24.4,42.1,24
	c-0.025-0.125-0.05-0.256-0.075-0.388c-0.025-0.131-0.05-0.262-0.075-0.387s-0.05-0.244-0.075-0.35
	c-0.025-0.106-0.05-0.2-0.075-0.275c0.05,0.025,0.112,0.056,0.183,0.092c0.07,0.036,0.148,0.076,0.229,0.12
	c0.082,0.044,0.166,0.091,0.249,0.139C42.544,23,42.625,23.05,42.7,23.1c0.1,0.05,0.194,0.1,0.281,0.147
	c0.088,0.047,0.169,0.091,0.244,0.128c0.075,0.038,0.144,0.069,0.206,0.091C43.494,23.487,43.55,23.5,43.6,23.5
	c0.075,0.025,0.144,0.044,0.208,0.058s0.124,0.023,0.18,0.029c0.056,0.007,0.109,0.01,0.16,0.011C44.2,23.6,44.25,23.6,44.3,23.6
	c0.1,0,0.213-0.012,0.325-0.047c0.112-0.034,0.225-0.091,0.325-0.178s0.188-0.206,0.25-0.366c0.062-0.159,0.1-0.359,0.1-0.609
	c0.025-0.25,0.013-0.494-0.025-0.731c-0.037-0.237-0.1-0.469-0.175-0.694s-0.162-0.444-0.25-0.656S44.675,19.9,44.6,19.7
	c-0.025-0.075-0.05-0.144-0.075-0.208c-0.025-0.064-0.05-0.124-0.075-0.18c-0.025-0.056-0.05-0.109-0.075-0.16S44.325,19.05,44.3,19
	c-0.05-0.125-0.106-0.288-0.166-0.47c-0.059-0.183-0.122-0.386-0.184-0.592s-0.125-0.416-0.184-0.611S43.65,16.95,43.6,16.8
	c0.275,0.15,0.644,0.35,1.05,0.566s0.85,0.447,1.275,0.659s0.831,0.406,1.163,0.547c0.331,0.141,0.587,0.228,0.712,0.228h0.025
	h0.025h0.025H47.9l0.025-0.05l0.025-0.05l0.025-0.05L48,18.6c0.025-0.075,0.044-0.2,0.056-0.372
	c0.012-0.172,0.019-0.391,0.019-0.653s-0.006-0.569-0.019-0.916C48.044,16.312,48.025,15.925,48,15.5v-0.125V15.25v-0.125V15
	c-0.025-0.35-0.05-0.781-0.069-1.244C47.913,13.294,47.9,12.8,47.9,12.325s0.013-0.931,0.044-1.319
	c0.031-0.388,0.081-0.706,0.156-0.906c0.025-0.05,0.05-0.1,0.076-0.147s0.055-0.091,0.085-0.128
	c0.032-0.038,0.066-0.069,0.105-0.091S48.45,9.7,48.5,9.7s0.1,0.012,0.148,0.034s0.096,0.053,0.139,0.091
	c0.043,0.037,0.084,0.081,0.12,0.128S48.975,10.05,49,10.1l0.025,0.1l0.025,0.1l0.025,0.1l0.025,0.1
	c0.075,0.225,0.181,0.519,0.306,0.847s0.269,0.691,0.419,1.053s0.306,0.725,0.456,1.053c0.15,0.328,0.294,0.622,0.419,0.847
	s0.275,0.631,0.431,1.13s0.319,1.089,0.469,1.682s0.288,1.191,0.394,1.702C52.1,19.325,52.175,19.75,52.2,20v0.05v0.05v0.05v0.05
	c0.025,0.15,0.05,0.287,0.078,0.409s0.059,0.228,0.097,0.316s0.081,0.156,0.134,0.203c0.053,0.047,0.116,0.072,0.191,0.072
	c0.025,0,0.05,0,0.075-0.002c0.025-0.002,0.05-0.005,0.075-0.011c0.025-0.006,0.05-0.015,0.075-0.03
	c0.025-0.014,0.05-0.033,0.075-0.057c0.125-0.075,0.275-0.275,0.431-0.539s0.319-0.592,0.469-0.923
	c0.15-0.332,0.287-0.666,0.394-0.942c0.106-0.277,0.181-0.495,0.206-0.596c0-0.025,0.006-0.062,0.016-0.108
	c0.009-0.045,0.022-0.099,0.034-0.155c0.013-0.056,0.025-0.115,0.034-0.173C54.594,17.606,54.6,17.55,54.6,17.5
	c0.025-0.125,0.05-0.275,0.076-0.431s0.055-0.319,0.085-0.469s0.065-0.288,0.105-0.394C54.906,16.1,54.95,16.025,55,16l0,0l0,0l0,0
	l0,0c0.125,0,0.263,0.05,0.403,0.142s0.284,0.227,0.422,0.396c0.138,0.169,0.269,0.372,0.384,0.601
	c0.116,0.23,0.216,0.486,0.291,0.761c0.075,0.25,0.1,0.569,0.091,0.922c-0.009,0.353-0.053,0.741-0.116,1.128
	c-0.062,0.388-0.144,0.775-0.228,1.128C56.162,21.431,56.075,21.75,56,22l-0.025,0.075L55.95,22.15l-0.025,0.075L55.9,22.3
	c-0.025,0.1-0.044,0.194-0.055,0.281c-0.011,0.087-0.014,0.169-0.007,0.244c0.006,0.075,0.021,0.144,0.048,0.206
	C55.912,23.094,55.95,23.15,56,23.2c0.025,0.05,0.062,0.094,0.108,0.131s0.099,0.069,0.155,0.094
	c0.056,0.025,0.115,0.044,0.173,0.056C56.494,23.494,56.55,23.5,56.6,23.5c0.025,0,0.044,0,0.059,0s0.028,0,0.041,0s0.025,0,0.041,0
	s0.034,0,0.059,0s0.056-0.013,0.098-0.038c0.042-0.025,0.096-0.062,0.165-0.112c0.069-0.05,0.153-0.113,0.257-0.188
	C57.425,23.087,57.55,23,57.7,22.9c0.175-0.125,0.388-0.275,0.616-0.43c0.228-0.155,0.472-0.314,0.709-0.457
	c0.237-0.144,0.469-0.272,0.672-0.365C59.9,21.556,60.075,21.5,60.2,21.5c0.075,0.025,0.144,0.075,0.201,0.172
	s0.105,0.241,0.136,0.453s0.047,0.494,0.042,0.866c-0.005,0.372-0.029,0.834-0.079,1.409v0.075v0.075v0.075V24.7
	c0,0.05-0.037,0.15-0.102,0.284c-0.064,0.134-0.154,0.303-0.26,0.491s-0.228,0.394-0.355,0.603C59.657,26.287,59.525,26.5,59.4,26.7
	c-0.225,0.4-0.412,0.731-0.566,1.006s-0.272,0.494-0.359,0.669c-0.088,0.175-0.144,0.306-0.172,0.406
	c-0.028,0.1-0.028,0.169-0.003,0.219v0.025v0.025v0.025V29.1h0.025h0.025h0.025H58.4c0.075,0,0.163-0.013,0.261-0.036
	c0.098-0.024,0.208-0.058,0.327-0.102c0.118-0.043,0.246-0.096,0.382-0.157s0.28-0.13,0.43-0.205c0.1-0.05,0.206-0.1,0.314-0.149
	s0.217-0.096,0.324-0.139c0.106-0.043,0.209-0.084,0.304-0.12c0.095-0.036,0.183-0.067,0.258-0.092
	c0.05-0.025,0.094-0.044,0.133-0.058c0.039-0.014,0.073-0.023,0.104-0.029c0.032-0.007,0.06-0.01,0.086-0.011
	C61.35,28,61.375,28,61.4,28c0.05,0,0.088,0.006,0.116,0.017c0.028,0.011,0.047,0.026,0.059,0.045
	c0.013,0.019,0.019,0.041,0.022,0.064C61.6,28.15,61.6,28.175,61.6,28.2l0,0l0,0l0,0l0,0c0,0-0.062,0.212-0.178,0.558
	c-0.116,0.345-0.284,0.824-0.497,1.355s-0.469,1.116-0.759,1.673c-0.291,0.558-0.616,1.089-0.966,1.514
	c-0.075,0.325-0.35,0.631-0.731,0.911c-0.381,0.28-0.869,0.533-1.369,0.752c-0.5,0.219-1.013,0.403-1.444,0.545
	C55.225,35.65,54.875,35.75,54.7,35.8z M50,19.1c-0.1,0-0.188,0.031-0.264,0.086c-0.077,0.055-0.142,0.133-0.199,0.226
	c-0.056,0.094-0.103,0.204-0.142,0.321c-0.039,0.117-0.07,0.242-0.095,0.367c-0.025,0.075-0.037,0.15-0.039,0.225
	c-0.002,0.075,0.008,0.15,0.026,0.225c0.019,0.075,0.047,0.15,0.083,0.225c0.036,0.075,0.08,0.15,0.13,0.225
	c0.05,0.05,0.1,0.1,0.15,0.147c0.05,0.047,0.1,0.091,0.15,0.128s0.1,0.069,0.15,0.091s0.1,0.034,0.15,0.034
	c0.1,0,0.194-0.038,0.278-0.103c0.084-0.066,0.159-0.159,0.222-0.272s0.112-0.244,0.147-0.384C50.781,20.5,50.8,20.35,50.8,20.2
	s-0.031-0.281-0.078-0.394c-0.047-0.112-0.109-0.206-0.172-0.281s-0.125-0.131-0.172-0.169S50.3,19.3,50.3,19.3
	c-0.025-0.025-0.05-0.05-0.075-0.073c-0.025-0.023-0.05-0.045-0.075-0.064c-0.025-0.019-0.05-0.035-0.075-0.046
	C50.05,19.106,50.025,19.1,50,19.1z"/>
<path d="M48.8,10c0.025,0,0.056,0.006,0.089,0.019s0.067,0.031,0.099,0.056s0.06,0.056,0.08,0.094
	c0.02,0.038,0.032,0.081,0.032,0.131c0,0.025,0.006,0.05,0.016,0.077c0.009,0.027,0.022,0.055,0.034,0.086
	c0.013,0.031,0.025,0.065,0.034,0.104C49.194,10.606,49.2,10.65,49.2,10.7c0.1,0.225,0.219,0.519,0.348,0.847
	s0.271,0.691,0.415,1.053c0.144,0.363,0.29,0.725,0.432,1.053c0.142,0.328,0.28,0.622,0.405,0.847s0.275,0.631,0.431,1.13
	s0.319,1.089,0.469,1.682c0.15,0.594,0.287,1.191,0.394,1.702C52.2,19.525,52.275,19.95,52.3,20.2v0.05v0.05v0.05v0.05
	c0.025,0.15,0.05,0.294,0.081,0.425c0.031,0.131,0.069,0.25,0.119,0.35c0.05,0.1,0.112,0.181,0.194,0.238
	C52.775,21.469,52.875,21.5,53,21.5c0.025,0,0.05,0,0.076-0.002c0.026-0.002,0.054-0.005,0.085-0.011
	c0.031-0.006,0.066-0.015,0.105-0.029S53.35,21.425,53.4,21.4c0.125-0.1,0.281-0.325,0.447-0.611
	c0.166-0.286,0.341-0.633,0.503-0.976c0.163-0.344,0.312-0.685,0.428-0.958c0.116-0.274,0.197-0.48,0.222-0.555
	c0-0.05,0.006-0.1,0.016-0.152c0.009-0.052,0.022-0.104,0.034-0.16c0.013-0.056,0.025-0.116,0.034-0.18
	c0.009-0.064,0.016-0.133,0.016-0.208s0.006-0.188,0.019-0.316c0.013-0.128,0.031-0.272,0.056-0.409
	c0.025-0.137,0.056-0.269,0.094-0.372C55.306,16.4,55.35,16.325,55.4,16.3c0.075,0,0.175,0.044,0.288,0.127s0.237,0.205,0.362,0.361
	s0.25,0.347,0.362,0.567s0.213,0.47,0.288,0.745c0.075,0.25,0.1,0.562,0.091,0.906c-0.009,0.344-0.053,0.719-0.116,1.094
	s-0.144,0.75-0.228,1.094c-0.084,0.344-0.172,0.656-0.247,0.906l-0.025,0.075L56.15,22.25l-0.025,0.075L56.1,22.4
	c-0.025,0.125-0.037,0.244-0.041,0.353c-0.003,0.109,0.003,0.209,0.016,0.297c0.013,0.087,0.031,0.162,0.053,0.222
	c0.022,0.059,0.047,0.103,0.072,0.128c0.05,0.05,0.1,0.094,0.153,0.131c0.053,0.037,0.109,0.069,0.172,0.094
	s0.131,0.044,0.209,0.056C56.812,23.694,56.9,23.7,57,23.7c0.025,0,0.05,0,0.073,0c0.024,0,0.046,0,0.065,0c0.019,0,0.034,0,0.045,0
	c0.011,0,0.017,0,0.017,0c0.05,0,0.1-0.013,0.156-0.038c0.056-0.025,0.119-0.062,0.194-0.112s0.163-0.113,0.269-0.188
	C57.925,23.288,58.05,23.2,58.2,23.1c0.15-0.125,0.35-0.275,0.572-0.43c0.222-0.155,0.466-0.314,0.703-0.458
	c0.237-0.143,0.469-0.271,0.666-0.364C60.338,21.756,60.5,21.7,60.6,21.7c0.025,0.025,0.056,0.069,0.088,0.155
	c0.031,0.086,0.062,0.214,0.087,0.407c0.025,0.194,0.044,0.453,0.05,0.802c0.006,0.348,0,0.786-0.025,1.336v0.075v0.075v0.075V24.7
	c0,0.05-0.038,0.156-0.1,0.298c-0.062,0.142-0.15,0.32-0.25,0.514c-0.1,0.194-0.213,0.404-0.325,0.608S59.9,26.525,59.8,26.7
	c-0.25,0.45-0.45,0.812-0.608,1.108s-0.274,0.523-0.355,0.704c-0.081,0.181-0.128,0.316-0.148,0.424
	c-0.02,0.108-0.014,0.189,0.011,0.264c0.025,0.025,0.05,0.05,0.076,0.073s0.055,0.045,0.085,0.065s0.065,0.035,0.105,0.045
	C59.006,29.394,59.05,29.4,59.1,29.4c0.075,0,0.162-0.012,0.263-0.036c0.1-0.024,0.212-0.058,0.337-0.102s0.263-0.097,0.412-0.158
	c0.15-0.061,0.312-0.129,0.488-0.204c0.1-0.05,0.206-0.1,0.314-0.149s0.217-0.096,0.324-0.139c0.106-0.043,0.209-0.084,0.304-0.12
	c0.095-0.036,0.183-0.067,0.258-0.092c0.05-0.025,0.094-0.044,0.133-0.058c0.039-0.014,0.073-0.023,0.104-0.029
	c0.031-0.007,0.06-0.01,0.086-0.011S62.175,28.3,62.2,28.3l0,0l0,0l0,0l0,0c-0.05,0.15-0.144,0.444-0.275,0.822
	c-0.131,0.378-0.3,0.841-0.5,1.328s-0.431,1-0.688,1.478C60.481,32.406,60.2,32.85,59.9,33.2c-0.275,0.325-0.669,0.631-1.12,0.912
	s-0.961,0.537-1.467,0.763s-1.009,0.419-1.448,0.575c-0.439,0.156-0.814,0.275-1.064,0.35c0.025-0.075,0.075-0.175,0.148-0.298
	c0.074-0.123,0.171-0.27,0.29-0.439c0.118-0.169,0.259-0.36,0.42-0.571C55.819,34.281,56,34.05,56.2,33.8
	c0.05-0.075,0.1-0.144,0.148-0.206s0.096-0.119,0.139-0.169c0.044-0.05,0.084-0.094,0.12-0.131c0.036-0.038,0.067-0.069,0.092-0.094
	c0.05-0.1,0.087-0.188,0.114-0.266s0.042-0.147,0.048-0.209c0.007-0.063,0.004-0.119-0.007-0.172
	C56.844,32.5,56.825,32.45,56.8,32.4s-0.062-0.1-0.109-0.147s-0.103-0.091-0.166-0.128s-0.131-0.069-0.203-0.091
	C56.25,32.013,56.175,32,56.1,32c-0.025,0-0.056,0-0.091-0.006s-0.072-0.019-0.109-0.044s-0.075-0.062-0.109-0.119
	S55.725,31.7,55.7,31.6c0-0.025-0.006-0.056-0.016-0.091c-0.009-0.034-0.022-0.072-0.034-0.109s-0.025-0.075-0.034-0.109
	C55.606,31.256,55.6,31.225,55.6,31.2c-0.025-0.125-0.05-0.262-0.086-0.399c-0.036-0.136-0.083-0.271-0.151-0.389
	s-0.159-0.222-0.283-0.295S54.8,30,54.6,30c-0.1,0-0.188-0.031-0.263-0.081c-0.075-0.05-0.138-0.119-0.188-0.194
	s-0.088-0.156-0.112-0.231C54.012,29.419,54,29.35,54,29.3s0.025-0.119,0.064-0.197s0.092-0.166,0.149-0.253
	s0.116-0.175,0.167-0.253s0.095-0.147,0.12-0.197c0.075-0.125,0.144-0.231,0.203-0.325c0.059-0.094,0.109-0.175,0.147-0.25
	s0.062-0.144,0.072-0.212c0.009-0.069,0.003-0.138-0.022-0.212l0.025-0.125l0.025-0.125l0.025-0.125L55,26.9l-0.05-0.025L54.9,26.85
	l-0.05-0.025L54.8,26.8c-0.025,0-0.044,0-0.059,0s-0.028,0-0.041,0c-0.013,0-0.025,0-0.041,0s-0.034,0-0.059,0
	c-0.05,0-0.112,0.006-0.184,0.017c-0.072,0.011-0.153,0.026-0.241,0.045s-0.181,0.041-0.278,0.064C53.8,26.95,53.7,26.975,53.6,27
	s-0.194,0.044-0.283,0.059s-0.174,0.028-0.255,0.041c-0.081,0.012-0.159,0.025-0.236,0.041S52.675,27.175,52.6,27.2
	c0-0.05-0.006-0.106-0.016-0.169s-0.022-0.131-0.034-0.206s-0.025-0.156-0.034-0.244C52.506,26.494,52.5,26.4,52.5,26.3
	s0-0.206-0.002-0.317s-0.005-0.227-0.011-0.346c-0.006-0.118-0.015-0.24-0.029-0.364S52.425,25.025,52.4,24.9
	c-0.025-0.2-0.05-0.413-0.084-0.619c-0.034-0.206-0.078-0.406-0.141-0.581s-0.144-0.325-0.253-0.431
	C51.813,23.162,51.675,23.1,51.5,23.1c-0.025,0-0.05,0.006-0.075,0.016c-0.025,0.009-0.05,0.022-0.075,0.034
	c-0.025,0.013-0.05,0.025-0.075,0.034C51.25,23.194,51.225,23.2,51.2,23.2l-0.025,0.025L51.15,23.25l-0.025,0.025L51.1,23.3v0.025
	v0.025v0.025V23.4c-0.125,0.45-0.269,0.913-0.419,1.361c-0.15,0.448-0.306,0.883-0.456,1.276c-0.15,0.394-0.294,0.747-0.419,1.033
	c-0.125,0.286-0.231,0.505-0.306,0.63c-0.025-0.025-0.056-0.056-0.091-0.092s-0.072-0.076-0.109-0.12
	c-0.038-0.044-0.075-0.091-0.109-0.139S49.125,27.25,49.1,27.2c-0.1-0.1-0.194-0.206-0.284-0.309
	c-0.091-0.103-0.178-0.203-0.266-0.291s-0.175-0.163-0.266-0.216C48.194,26.331,48.1,26.3,48,26.3h-0.025H47.95h-0.025H47.9l0,0l0,0
	l0,0l0,0c-0.175,0.025-0.306,0.119-0.405,0.261c-0.098,0.142-0.164,0.333-0.207,0.551c-0.044,0.219-0.066,0.466-0.077,0.721
	C47.2,28.087,47.2,28.35,47.2,28.6v0.075v0.075v0.075V28.9c0,0.025,0,0.044,0,0.058c0,0.014,0,0.023,0,0.029c0,0.007,0,0.01,0,0.011
	s0,0.002,0,0.002l0,0l0,0l0,0l0,0c-0.025,0-0.05,0-0.076,0s-0.055,0-0.085,0s-0.065,0-0.105,0c-0.039,0-0.083,0-0.133,0
	s-0.1-0.006-0.15-0.016s-0.1-0.022-0.15-0.034s-0.1-0.025-0.15-0.034c-0.05-0.009-0.1-0.016-0.15-0.016h-0.025H46.15h-0.025H46.1
	c-0.2,0-0.363,0.025-0.494,0.072s-0.231,0.116-0.306,0.203s-0.125,0.194-0.156,0.316C45.112,29.613,45.1,29.75,45.1,29.9
	c0,0.05,0.006,0.112,0.016,0.184c0.009,0.072,0.022,0.153,0.034,0.241s0.025,0.181,0.034,0.278C45.194,30.7,45.2,30.8,45.2,30.9
	c0.025,0.075,0.044,0.163,0.058,0.256s0.023,0.194,0.029,0.294c0.007,0.1,0.01,0.2,0.011,0.294S45.3,31.925,45.3,32
	c-0.025,0-0.05,0-0.075,0c-0.025,0-0.05,0-0.075,0c-0.025,0-0.05,0-0.075,0c-0.025,0-0.05,0-0.075,0s-0.05,0-0.075,0
	s-0.05,0-0.075,0c-0.025,0-0.05,0-0.075,0c-0.025,0-0.05,0-0.075,0c-0.1,0-0.181,0.013-0.247,0.033
	c-0.066,0.02-0.116,0.048-0.153,0.079s-0.062,0.065-0.078,0.098S44.2,32.275,44.2,32.3c-0.025,0.1,0,0.281,0.055,0.5
	c0.055,0.219,0.139,0.475,0.232,0.725s0.197,0.494,0.289,0.688C44.868,34.406,44.95,34.55,45,34.6
	c0.05,0.075,0.088,0.138,0.116,0.189c0.028,0.052,0.047,0.092,0.059,0.123c0.013,0.031,0.019,0.054,0.022,0.068
	C45.2,34.994,45.2,35,45.2,35s-0.006,0.006-0.022,0.016s-0.041,0.022-0.078,0.034c-0.038,0.013-0.088,0.025-0.153,0.034
	C44.881,35.094,44.8,35.1,44.7,35.1c-0.025,0-0.05,0-0.075,0c-0.025,0-0.05,0-0.075,0c-0.025,0-0.05,0-0.075,0
	c-0.025,0-0.05,0-0.075,0c-0.35-0.025-0.8-0.425-1.283-1.022s-0.999-1.391-1.48-2.203c-0.481-0.812-0.928-1.644-1.273-2.316
	c-0.345-0.672-0.589-1.184-0.664-1.359c0.075-0.075,0.131-0.15,0.173-0.223c0.042-0.073,0.07-0.146,0.089-0.215
	s0.028-0.135,0.033-0.195C40,27.506,40,27.45,40,27.4c0.075,0,0.156,0.006,0.242,0.016c0.086,0.009,0.177,0.022,0.271,0.034
	c0.093,0.013,0.19,0.025,0.289,0.034C40.9,27.494,41,27.5,41.1,27.5c0.225,0,0.425-0.006,0.602-0.02
	c0.176-0.014,0.329-0.036,0.46-0.067c0.132-0.031,0.241-0.072,0.33-0.124c0.089-0.052,0.158-0.114,0.208-0.189
	c0.075-0.1,0.125-0.231,0.152-0.402c0.027-0.17,0.029-0.38,0.01-0.636c-0.019-0.256-0.059-0.559-0.12-0.917S42.6,24.375,42.5,23.9
	c-0.025-0.1-0.05-0.2-0.073-0.298c-0.024-0.098-0.046-0.195-0.065-0.289c-0.019-0.094-0.034-0.185-0.045-0.271
	C42.306,22.956,42.3,22.875,42.3,22.8c0.05,0.025,0.1,0.05,0.15,0.075c0.05,0.025,0.1,0.05,0.15,0.075s0.1,0.05,0.15,0.075
	c0.05,0.025,0.1,0.05,0.15,0.075c0.1,0.05,0.194,0.1,0.281,0.149c0.088,0.049,0.169,0.095,0.244,0.139s0.144,0.084,0.206,0.12
	c0.062,0.036,0.119,0.067,0.169,0.092c0.075,0.025,0.144,0.044,0.208,0.058c0.064,0.014,0.124,0.023,0.18,0.029
	c0.056,0.007,0.109,0.01,0.16,0.011C44.4,23.7,44.45,23.7,44.5,23.7c0.075,0,0.181-0.006,0.3-0.036
	c0.119-0.03,0.25-0.083,0.375-0.176s0.244-0.228,0.338-0.42s0.163-0.443,0.188-0.768c0.025-0.25,0.013-0.5-0.025-0.745
	c-0.037-0.245-0.1-0.486-0.175-0.717s-0.162-0.453-0.25-0.661S45.075,19.775,45,19.6c-0.025-0.075-0.05-0.144-0.075-0.208
	c-0.025-0.064-0.05-0.124-0.075-0.18c-0.025-0.056-0.05-0.109-0.075-0.16C44.75,19,44.725,18.95,44.7,18.9
	c-0.025-0.1-0.062-0.225-0.108-0.366s-0.099-0.297-0.155-0.459c-0.056-0.163-0.115-0.331-0.173-0.497S44.15,17.25,44.1,17.1
	c0.35,0.175,0.737,0.375,1.13,0.577c0.392,0.202,0.789,0.405,1.158,0.586c0.368,0.181,0.709,0.34,0.989,0.454
	C47.656,18.831,47.875,18.9,48,18.9c0.05,0,0.1-0.006,0.147-0.019c0.047-0.013,0.091-0.031,0.128-0.056s0.069-0.056,0.091-0.094
	C48.388,18.694,48.4,18.65,48.4,18.6c0.025-0.075,0.044-0.194,0.056-0.358c0.012-0.164,0.019-0.373,0.019-0.629
	s-0.006-0.559-0.019-0.911C48.444,16.35,48.425,15.95,48.4,15.5v-0.05V15.4v-0.05V15.3v-0.1v-0.1V15v-0.1
	c-0.025-0.325-0.05-0.744-0.069-1.2S48.3,12.75,48.3,12.275s0.013-0.931,0.044-1.312s0.081-0.688,0.156-0.863
	c0.025,0.025,0.05,0.031,0.075,0.027c0.025-0.005,0.05-0.02,0.075-0.039c0.025-0.019,0.05-0.041,0.075-0.058
	C48.75,10.012,48.775,10,48.8,10L48.8,10L48.8,10L48.8,10L48.8,10 M50.1,21.5c0.125,0,0.237-0.05,0.338-0.133
	c0.1-0.083,0.188-0.198,0.262-0.329c0.075-0.131,0.138-0.278,0.188-0.423s0.088-0.289,0.112-0.414c0-0.125-0.019-0.244-0.052-0.355
	s-0.08-0.214-0.136-0.308s-0.122-0.178-0.192-0.252c-0.07-0.073-0.145-0.136-0.22-0.186c-0.025-0.025-0.056-0.044-0.091-0.058
	c-0.034-0.014-0.072-0.023-0.109-0.029c-0.038-0.007-0.075-0.01-0.109-0.011S50.025,19,50,19c-0.075,0-0.15,0.013-0.225,0.045
	c-0.075,0.033-0.15,0.086-0.225,0.167c-0.075,0.081-0.15,0.191-0.225,0.336c-0.075,0.145-0.15,0.327-0.225,0.552
	c-0.025,0.1-0.037,0.194-0.039,0.283s0.008,0.174,0.026,0.255c0.019,0.081,0.047,0.159,0.083,0.236s0.08,0.152,0.13,0.226
	c0.075,0.075,0.144,0.137,0.209,0.189c0.066,0.052,0.128,0.092,0.191,0.123s0.125,0.053,0.191,0.067S50.025,21.5,50.1,21.5
	 M48.8,9.6c-0.05,0-0.1,0.006-0.15,0.022C48.6,9.638,48.55,9.663,48.5,9.7s-0.1,0.087-0.15,0.153C48.3,9.919,48.25,10,48.2,10.1
	c-0.075,0.2-0.125,0.538-0.156,0.955S48,11.969,48,12.487s0.013,1.059,0.031,1.564s0.044,0.974,0.069,1.349
	c0.025,0.375,0.044,0.744,0.056,1.091c0.012,0.347,0.019,0.672,0.019,0.959s-0.006,0.538-0.019,0.734
	c-0.013,0.197-0.031,0.341-0.056,0.416c0,0,0,0-0.002,0s-0.005,0-0.011,0c-0.006,0-0.015,0-0.029,0s-0.033,0-0.058,0
	c-0.125,0-0.469-0.137-0.914-0.344c-0.445-0.206-0.992-0.481-1.524-0.756s-1.047-0.55-1.43-0.756C43.75,16.537,43.5,16.4,43.5,16.4
	s0.037,0.119,0.097,0.308s0.141,0.449,0.228,0.73c0.087,0.281,0.181,0.584,0.266,0.861C44.175,18.575,44.25,18.825,44.3,19
	s0.138,0.388,0.241,0.628c0.103,0.241,0.222,0.509,0.334,0.797c0.112,0.288,0.219,0.594,0.297,0.909
	C45.25,21.65,45.3,21.975,45.3,22.3c0,0.2-0.025,0.362-0.07,0.494s-0.111,0.231-0.193,0.306s-0.179,0.125-0.286,0.156
	c-0.108,0.031-0.227,0.044-0.352,0.044c-0.05,0-0.106-0.006-0.164-0.016c-0.058-0.009-0.117-0.022-0.174-0.034
	c-0.055-0.013-0.108-0.025-0.153-0.034C43.862,23.206,43.825,23.2,43.8,23.2c-0.125-0.05-0.294-0.131-0.481-0.225
	s-0.394-0.2-0.594-0.3s-0.394-0.194-0.556-0.263S41.875,22.3,41.8,22.3l0,0l0,0l0,0l0,0c-0.075,0.025-0.056,0.288,0.008,0.675
	c0.064,0.388,0.174,0.9,0.28,1.425c0.106,0.525,0.209,1.062,0.261,1.5c0.051,0.438,0.051,0.775-0.049,0.9
	c-0.05,0.05-0.119,0.094-0.203,0.131C42.012,26.969,41.912,27,41.8,27.025c-0.112,0.025-0.237,0.044-0.372,0.056
	C41.294,27.094,41.15,27.1,41,27.1c-0.175,0-0.356-0.006-0.53-0.016s-0.339-0.022-0.483-0.034c-0.144-0.013-0.265-0.025-0.351-0.034
	C39.55,27.006,39.5,27,39.5,27s0,0.044,0.002,0.116s0.005,0.172,0.011,0.284c0.006,0.113,0.015,0.238,0.029,0.359
	C39.556,27.881,39.575,28,39.6,28.1s0.244,0.594,0.584,1.28c0.341,0.686,0.803,1.564,1.316,2.432
	c0.513,0.869,1.075,1.729,1.616,2.377c0.541,0.649,1.059,1.086,1.484,1.111c0.025,0,0.05,0,0.075,0c0.025,0,0.05,0,0.075,0
	c0.025,0,0.05,0,0.075,0c0.025,0,0.05,0,0.075,0c0.325,0,0.538-0.05,0.67-0.13s0.186-0.189,0.192-0.308s-0.035-0.247-0.089-0.364
	c-0.055-0.117-0.123-0.223-0.173-0.298s-0.125-0.225-0.209-0.411s-0.178-0.408-0.266-0.626c-0.088-0.219-0.169-0.435-0.228-0.608
	S44.7,32.25,44.7,32.2c0-0.025,0.006-0.044,0.017-0.058c0.011-0.014,0.026-0.023,0.045-0.029c0.019-0.007,0.041-0.01,0.064-0.011
	S44.875,32.1,44.9,32.1c0.05,0,0.1,0.006,0.15,0.016c0.05,0.009,0.1,0.022,0.15,0.034s0.1,0.025,0.15,0.034
	c0.05,0.009,0.1,0.016,0.15,0.016s0.094,0,0.131-0.002s0.069-0.005,0.094-0.011c0.025-0.006,0.044-0.015,0.056-0.029
	c0.012-0.014,0.019-0.033,0.019-0.058c0.025-0.075,0.019-0.225-0.005-0.416c-0.023-0.191-0.064-0.422-0.107-0.659
	c-0.044-0.237-0.091-0.481-0.127-0.697S45.5,29.925,45.5,29.8c0-0.1,0-0.188,0.009-0.263c0.009-0.075,0.028-0.138,0.066-0.188
	s0.094-0.087,0.178-0.112C45.838,29.212,45.95,29.2,46.1,29.2h0.025h0.025h0.025H46.2c0.075,0,0.156,0.006,0.239,0.016
	c0.083,0.009,0.167,0.022,0.248,0.034c0.082,0.013,0.16,0.025,0.23,0.034c0.07,0.009,0.133,0.016,0.183,0.016s0.1-0.006,0.147-0.022
	s0.091-0.041,0.128-0.078s0.069-0.087,0.091-0.153C47.487,28.981,47.5,28.9,47.5,28.8c0-0.2-0.006-0.431-0.008-0.667
	c-0.001-0.236,0.002-0.476,0.021-0.695s0.053-0.416,0.114-0.564s0.148-0.249,0.273-0.274l0,0l0,0l0,0l0,0
	c0.125,0,0.263,0.087,0.405,0.219s0.289,0.306,0.433,0.481c0.143,0.175,0.284,0.35,0.414,0.481S49.4,28,49.5,28l0,0l0,0l0,0l0,0
	c0.125,0,0.306-0.288,0.508-0.719c0.202-0.431,0.424-1.006,0.63-1.581c0.206-0.575,0.397-1.15,0.536-1.581s0.227-0.719,0.227-0.719
	s0,0,0.002,0s0.005,0,0.011,0s0.016,0,0.03,0s0.032,0,0.057,0s0.063,0.013,0.106,0.052c0.044,0.039,0.094,0.105,0.144,0.211
	c0.05,0.106,0.1,0.253,0.144,0.454s0.081,0.458,0.106,0.783c0.025,0.45,0.031,0.837,0.034,1.166
	c0.003,0.328,0.003,0.597,0.016,0.809c0.013,0.212,0.037,0.369,0.091,0.472c0.053,0.103,0.134,0.153,0.259,0.153
	c0.1,0,0.256-0.019,0.439-0.047c0.183-0.028,0.392-0.066,0.599-0.103c0.206-0.038,0.409-0.075,0.579-0.103
	c0.17-0.028,0.308-0.047,0.383-0.047h0.025h0.025h0.025h0.025c0.05,0.025,0.012,0.119-0.072,0.253s-0.216,0.309-0.353,0.497
	c-0.138,0.187-0.282,0.387-0.391,0.572C53.575,28.706,53.5,28.875,53.5,29s0.019,0.25,0.056,0.369
	c0.037,0.119,0.094,0.231,0.169,0.331c0.075,0.1,0.169,0.188,0.281,0.256S54.25,30.075,54.4,30.1c0.15,0,0.263,0.05,0.348,0.134
	c0.086,0.084,0.145,0.203,0.189,0.341s0.072,0.294,0.095,0.453c0.024,0.159,0.043,0.322,0.068,0.472
	c0.05,0.15,0.1,0.269,0.152,0.362c0.051,0.094,0.104,0.163,0.16,0.213s0.115,0.081,0.179,0.1S55.724,32.2,55.8,32.2
	s0.151,0.013,0.216,0.039c0.065,0.027,0.121,0.067,0.159,0.124c0.038,0.056,0.056,0.128,0.047,0.217
	c-0.009,0.089-0.047,0.195-0.122,0.32s-0.269,0.35-0.508,0.626s-0.523,0.605-0.779,0.936s-0.484,0.666-0.611,0.955
	C54.075,35.706,54.05,35.95,54.2,36.1c0,0,0.263-0.069,0.678-0.199c0.416-0.13,0.984-0.32,1.597-0.564
	c0.612-0.243,1.269-0.54,1.859-0.882c0.591-0.342,1.116-0.73,1.466-1.155s0.675-0.963,0.966-1.53
	c0.291-0.567,0.547-1.164,0.759-1.708c0.213-0.543,0.381-1.034,0.497-1.389C62.138,28.319,62.2,28.1,62.2,28.1s0-0.019-0.006-0.047
	c-0.006-0.028-0.019-0.066-0.044-0.103c-0.025-0.038-0.062-0.075-0.119-0.103S61.9,27.8,61.8,27.8c-0.025,0-0.056,0-0.092,0.002
	s-0.076,0.005-0.12,0.011c-0.044,0.006-0.091,0.015-0.139,0.029S61.35,27.875,61.3,27.9c-0.225,0.075-0.475,0.175-0.73,0.283
	s-0.514,0.223-0.757,0.329c-0.244,0.107-0.472,0.204-0.664,0.274S58.8,28.9,58.7,28.9l0,0l0,0l0,0l0,0
	c-0.1,0-0.019-0.231,0.159-0.587c0.178-0.356,0.453-0.837,0.741-1.337s0.588-1.019,0.816-1.45C60.644,25.094,60.8,24.75,60.8,24.6
	s0.019-0.419,0.036-0.741c0.017-0.322,0.033-0.697,0.026-1.059c-0.007-0.363-0.035-0.712-0.105-0.984
	c-0.07-0.272-0.183-0.466-0.358-0.516h-0.025h-0.025h-0.025H60.3c-0.2,0-0.494,0.125-0.828,0.312
	C59.137,21.8,58.762,22.05,58.4,22.3s-0.712,0.5-0.997,0.688C57.119,23.175,56.9,23.3,56.8,23.3c0,0-0.006,0-0.017,0
	c-0.011,0-0.026,0-0.045,0s-0.04,0-0.064,0c-0.023,0-0.049,0-0.074,0c-0.075,0-0.156-0.012-0.234-0.042s-0.153-0.077-0.216-0.146
	s-0.112-0.16-0.141-0.277c-0.028-0.117-0.034-0.26-0.009-0.436c0.05-0.2,0.137-0.506,0.234-0.872
	c0.097-0.366,0.203-0.791,0.291-1.228s0.156-0.888,0.178-1.303C56.725,18.581,56.7,18.2,56.6,17.9
	c-0.075-0.275-0.181-0.538-0.306-0.777c-0.125-0.239-0.269-0.455-0.419-0.636s-0.306-0.328-0.456-0.43
	C55.269,15.956,55.125,15.9,55,15.9h-0.025H54.95h-0.025H54.9c-0.125,0.05-0.219,0.188-0.291,0.372
	c-0.072,0.184-0.122,0.416-0.159,0.653s-0.062,0.481-0.084,0.691C54.344,17.825,54.325,18,54.3,18.1s-0.106,0.319-0.219,0.594
	s-0.256,0.606-0.406,0.931s-0.306,0.644-0.444,0.894S52.975,20.95,52.9,21c-0.025,0-0.044,0.006-0.059,0.016
	s-0.028,0.022-0.041,0.034c-0.013,0.013-0.025,0.025-0.041,0.034S52.725,21.1,52.7,21.1c-0.05,0-0.094-0.031-0.133-0.086
	c-0.039-0.055-0.073-0.133-0.104-0.226s-0.059-0.203-0.086-0.32S52.325,20.225,52.3,20.1c-0.025-0.175-0.1-0.556-0.208-1.047
	s-0.248-1.091-0.404-1.703s-0.328-1.238-0.499-1.778c-0.17-0.541-0.34-0.997-0.489-1.272c-0.15-0.25-0.325-0.606-0.506-1.006
	c-0.181-0.4-0.369-0.844-0.544-1.269c-0.175-0.425-0.338-0.831-0.469-1.156C49.05,10.544,48.95,10.3,48.9,10.2
	c0.125-0.075,0.2-0.15,0.237-0.22c0.038-0.07,0.038-0.136,0.013-0.193c-0.025-0.056-0.075-0.103-0.138-0.135
	C48.95,9.619,48.875,9.6,48.8,9.6L48.8,9.6L48.8,9.6L48.8,9.6L48.8,9.6z M50.1,21.2c-0.05,0-0.125-0.025-0.206-0.072
	s-0.169-0.116-0.244-0.203s-0.137-0.194-0.169-0.316S49.45,20.35,49.5,20.2c0.025-0.125,0.056-0.237,0.092-0.336
	s0.076-0.183,0.12-0.251c0.044-0.069,0.091-0.122,0.139-0.158S49.95,19.4,50,19.4c0.025,0,0.044,0,0.059,0.002
	s0.028,0.005,0.041,0.011c0.013,0.006,0.025,0.015,0.041,0.029s0.034,0.033,0.059,0.058c0,0,0.025,0.019,0.062,0.055
	s0.088,0.089,0.138,0.157s0.1,0.153,0.138,0.251s0.062,0.211,0.062,0.336c0,0.1-0.019,0.206-0.05,0.309
	c-0.031,0.103-0.075,0.203-0.125,0.291c-0.05,0.088-0.106,0.163-0.162,0.217C50.206,21.169,50.15,21.2,50.1,21.2L50.1,21.2
	L50.1,21.2L50.1,21.2L50.1,21.2z"/>
<polygon style="fill:#FFFFFF;" points="42.3,38 46.975,38 51.65,38 56.325,38 61,38 61,38.275 61,38.55 61,38.825 61,39.1 
	56.325,39.1 51.65,39.1 46.975,39.1 42.3,39.1 42.3,38.825 42.3,38.55 42.3,38.275 "/>
<path d="M60.8,38.2v0.2v0.2v0.2V39h-4.6h-4.6H47h-4.6v-0.2v-0.2v-0.2v-0.2H47h4.6h4.6L60.8,38.2 M61.1,37.8h-4.75H51.6h-4.75H42.1
	v0.375v0.375v0.375V39.3h4.75h4.75h4.75h4.75v-0.375V38.55v-0.375V37.8L61.1,37.8L61.1,37.8L61.1,37.8L61.1,37.8z"/>
</svg>
