<?xml version="1.0" encoding="utf-8"?>
<!-- Generator: Adobe Illustrator 25.2.0, SVG Export Plug-In . SVG Version: 6.00 Build 0)  -->
<svg version="1.1" id="Layer_1" xmlns="http://www.w3.org/2000/svg" xmlns:xlink="http://www.w3.org/1999/xlink" x="0px" y="0px"
	 viewBox="0 0 100 100" style="enable-background:new 0 0 100 100;" xml:space="preserve">
<g>
	<path d="M44.7,71.2h-3.5V60.6H29.1v10.6h-3.5V49.6h3.5v8.5h12.1v-8.5h3.5V71.2z"/>
</g>
<g>
	<path d="M72.6,71.2h-3.5V52.6l-6.8,12.7h-2.1l-6.8-12.7v18.6h-3.3V49.6h4.8l6.6,12l6.3-12h4.9V71.2z"/>
</g>
<polygon style="fill:#75140C;" points="3.6,48.8 15.9,48.8 15.9,36.6 "/>
<polygon style="fill:#75140C;" points="24.3,28.2 24.3,48.8 35.3,48.8 35.3,17.3 "/>
<polygon style="fill:#75140C;" points="50.2,2.6 43.7,9 43.7,48.8 56.6,48.8 56.6,9 "/>
<polygon style="fill:#75140C;" points="65,17.4 65,48.8 75.3,48.8 75.3,27.7 "/>
<polygon style="fill:#75140C;" points="84,36.4 84,48.8 96.4,48.8 "/>
</svg>
