<?xml version="1.0" encoding="utf-8"?>
<!-- Generator: Adobe Illustrator 25.2.0, SVG Export Plug-In . SVG Version: 6.00 Build 0)  -->
<svg version="1.1" id="Layer_1" xmlns="http://www.w3.org/2000/svg" xmlns:xlink="http://www.w3.org/1999/xlink" x="0px" y="0px"
	 viewBox="0 0 100 100" style="enable-background:new 0 0 100 100;" xml:space="preserve">
<g>
	<path d="M20.5,51.9l2,0.9c-0.3,1.6-0.8,2.7-1.6,3.4c-0.7,0.7-1.6,1.1-2.7,1.1c-1.3,0-2.4-0.6-3.3-1.7c-1-1.3-1.4-3.1-1.4-5.4
		c0-2.4,0.5-4.3,1.5-5.6c0.8-1.2,2-1.8,3.4-1.8c1.2,0,2.1,0.4,2.9,1.3c0.6,0.6,1,1.6,1.2,2.8l-2.1,0.7c-0.1-0.8-0.4-1.3-0.8-1.7
		s-0.9-0.6-1.4-0.6c-0.8,0-1.4,0.4-1.9,1.1s-0.7,2-0.7,3.7c0,1.8,0.2,3,0.7,3.8c0.5,0.7,1.1,1.1,1.8,1.1c0.5,0,1-0.2,1.4-0.7
		C20.1,53.7,20.4,52.9,20.5,51.9z"/>
</g>
<g>
	<path d="M24.3,57V43h2.1v5.5h4.1V43h2.1v14h-2.1v-6.1h-4.1V57H24.3z"/>
</g>
<g>
	<path d="M34.8,57V43.1h2.1v11.5h5.2V57H34.8z"/>
</g>
<g>
	<path d="M42.1,50.1c0-1.7,0.2-3,0.7-4.1s1-1.9,1.7-2.4c0.7-0.5,1.6-0.8,2.6-0.8c1.5,0,2.7,0.6,3.6,1.9c0.9,1.3,1.4,3,1.4,5.4
		c0,2.3-0.5,4.2-1.5,5.5c-0.9,1.2-2,1.7-3.5,1.7c-1.5,0-2.7-0.6-3.5-1.7C42.6,54.2,42.1,52.4,42.1,50.1z M44.3,50
		c0,1.6,0.3,2.8,0.8,3.6s1.2,1.2,2,1.2c0.8,0,1.5-0.4,2-1.2c0.5-0.8,0.8-2,0.8-3.7c0-1.6-0.3-2.8-0.8-3.6c-0.5-0.8-1.2-1.2-2.1-1.2
		c-0.8,0-1.5,0.4-2.1,1.2C44.5,47.2,44.3,48.4,44.3,50z"/>
</g>
<g>
	<path d="M53.8,57V43h4.4c1.1,0,1.9,0.1,2.4,0.4c0.5,0.3,0.9,0.7,1.2,1.3c0.3,0.6,0.5,1.4,0.5,2.2c0,1.1-0.2,2-0.7,2.6
		c-0.5,0.7-1.1,1.1-2,1.3c0.4,0.4,0.8,0.7,1.1,1.2c0.3,0.4,0.7,1.2,1.2,2.3L63,57h-2.5L59,54c-0.5-1.1-0.9-1.8-1.1-2.1
		c-0.2-0.3-0.4-0.5-0.6-0.6c-0.2-0.1-0.6-0.2-1-0.2h-0.4V57H53.8z M55.8,49h1.5c0.9,0,1.5,0,1.8-0.1s0.5-0.3,0.6-0.6
		c0.2-0.3,0.2-0.7,0.2-1.1c0-0.4-0.1-0.8-0.2-1.1c-0.2-0.3-0.4-0.5-0.7-0.6c-0.2-0.1-0.8-0.1-1.7-0.1h-1.6V49z"/>
</g>
<g>
	<path d="M64.1,57V43h2.1v14H64.1z"/>
</g>
<g>
	<path d="M68.2,57V43h2l4.2,9.4V43h1.9v14h-2.1l-4.2-9.1V57H68.2z"/>
</g>
<g>
	<path d="M78.6,57V43h7.7v2.4h-5.6v3.1h5.2v2.4h-5.2v3.8h5.8V57H78.6z"/>
</g>
<g>
	<path d="M53.3,85v1.5h-5c0.1-0.6,0.2-1.1,0.5-1.6c0.3-0.5,0.8-1.2,1.6-2c0.6-0.7,1-1.1,1.2-1.3c0.2-0.3,0.3-0.7,0.3-1
		c0-0.4-0.1-0.6-0.3-0.8c-0.2-0.2-0.4-0.3-0.7-0.3c-0.6,0-1,0.4-1,1.3l-1.4-0.2c0.1-0.9,0.3-1.5,0.8-1.9c0.4-0.4,1-0.6,1.7-0.6
		c0.8,0,1.4,0.2,1.8,0.7c0.4,0.5,0.6,1,0.6,1.6c0,0.3-0.1,0.7-0.2,1c-0.1,0.3-0.3,0.6-0.5,1c-0.2,0.3-0.6,0.7-1.1,1.2
		c-0.5,0.5-0.8,0.8-0.9,0.9c-0.1,0.2-0.2,0.3-0.3,0.4H53.3z"/>
</g>
<g>
	<path d="M46,21.6c0,0,1.6-0.6,2.4-0.1c0.8,0.5,0.1,1.7-0.6,2c-0.7,0.3-1.8-0.3-2-0.6C45.7,22.6,45.7,21.9,46,21.6z"/>
</g>
<g>
	<path d="M50.5,21.6c0,0,1-0.6,2.1-0.1c1,0.5,0.6,1.8-0.1,2C51.6,23.8,49.8,23.3,50.5,21.6z"/>
</g>
<g>
	<path d="M49,24.4c0,0-0.4,0.7-0.4,1.2c0,0.5,0.4,1.2,0.9,1.1c0.5-0.1,0.7-0.4,0.8-1.1C50.4,24.8,50.2,24,49,24.4z"/>
</g>
<g>
	<path d="M52.7,27.8c0.8-0.3,6.4-2.3,6.5-2.6c0.1-0.3,0.1-1-0.3-1.3c-0.4-0.3-2.1,0.2-2.8,0.7c-0.6,0.5-3,1.5-3,1.5s1.1-1.3,1.2-1.8
		c0-0.6,0.3-1.7,0.4-2.1c0.1-0.4,1.2-2.4,1.1-3.4c0-1-0.2-2.5-0.2-2.5s-1.1-2.6-3.9-2.7s-5.9-0.1-7.5,1.3c-1.6,1.4-0.7,4.8-0.7,4.8
		s1,4,1.1,4.5c0,0.5,0.6,1.6,0.6,1.6l-4.4-2.6c0,0-0.9,0.3-0.8,1.2c0.1,0.9,6.4,3.3,6.4,3.3s0.2,1,0,1.2c-0.2,0.1-1.3,1.2-2.3,1.6
		c-1.1,0.4-3.2,1-3.2,1.8c0,0.8,0.9,1.4,1.4,1.2c0.6-0.1,5.2-3.4,5.2-3.4s2.7-0.2,4.4,0.4c1.7,0.6,4.3,3.2,5.1,3
		c0.8-0.2,1.3-1.4,1.1-1.7c-0.2-0.3-5.5-2.8-5.5-2.8S51.9,28.1,52.7,27.8z M53.2,26.7c0.2-0.1,4.2-2,4.2-2s0.9-0.4,0.9,0
		c0.1,0.4,0.3,0.3-0.7,0.7c-1,0.4-4.4,1.7-4.6,1.7C52.8,27.2,53,26.9,53.2,26.7z M46.1,27.1c-0.4,0-4.3-2-4.6-2.1
		c-0.3-0.1-1.7-0.5-0.4-1c0,0,4.2,2.2,4.5,2.4C45.9,26.5,46.5,27.1,46.1,27.1z M46.2,30.3c-0.1,0.1-2.7,1.5-3.4,2.1
		c-0.7,0.6-0.9,0.2-0.9-0.2c0-0.4,0.8-0.7,1.1-0.8c0.2-0.1,3.2-1.7,3.2-1.7C46.5,29.8,46.3,30.2,46.2,30.3z M47.2,29.3
		c-0.7-0.1-0.7-2-0.2-1.7c0,0,0.5,1.3,0.7,1.4S47.9,29.3,47.2,29.3z M51.3,29.4c-0.4,0.2-2.5,0.3-2.8,0.2c-0.3,0-0.2-0.4,0.3-0.4
		c0.5,0,1.9,0,2.2-0.3c0.3-0.3,0.8-1.1,1.1-0.9C52.1,28.1,51.7,29.2,51.3,29.4z M54.9,30.9c0.4,0.2,2.2,1.4,2.2,1.4s0.2,0.4-0.3,0.5
		s-2.4-2-3.7-2.5c-1.3-0.4-1.4-0.7-1-0.8C52.5,29.5,54.5,30.7,54.9,30.9z M50.7,28.1c-0.6,0.6-1.8,0.4-2.3,0.3
		c-0.5-0.2-1.8-2.4-1.8-2.4c-0.7-0.6-1.6-1.2-1.7-1.7c-0.1-0.5-0.1-4.4,0-4.7c0-0.3-0.4-1-0.5-0.3c-0.1,0.7-0.3,0.8-0.3,0.8
		l-0.2-1.7c0,0-0.2-1.3,0.9-2.7c1.1-1.4,5.1-1.6,7.2-1.2c2.1,0.4,3.1,2.2,3.3,3.2c0.1,1-0.1,2.5-0.3,2.8c-0.2,0.3-0.2-0.9-0.3-1
		c-0.1-0.1-0.7,0-0.7,0s0,2.7,0,3.8c0,1.2-0.6,1.8-1.1,2.3C52.3,26,51.3,27.5,50.7,28.1z"/>
</g>
</svg>
