<?xml version="1.0" encoding="utf-8"?>
<!-- Generator: Adobe Illustrator 25.2.0, SVG Export Plug-In . SVG Version: 6.00 Build 0)  -->
<svg version="1.1" id="Layer_1" xmlns="http://www.w3.org/2000/svg" xmlns:xlink="http://www.w3.org/1999/xlink" x="0px" y="0px"
	 viewBox="0 0 100 100" style="enable-background:new 0 0 100 100;" xml:space="preserve">
<polygon points="49.8,-0.1 66.2,17.2 49.8,34.6 33.5,17.3 "/>
<g>
	<path d="M14.9,52.2V39h1.7v13.2H14.9z"/>
</g>
<g>
	<path d="M18.2,52.2V39h1.7l3.5,8.8V39H25v13.2h-1.7l-3.4-8.6v8.6H18.2z"/>
</g>
<g>
	<path d="M26.8,52.2V39h1.7v5.2h3.4V39h1.7v13.2h-1.7v-5.8h-3.4v5.8H26.8z"/>
</g>
<g>
	<path d="M42.9,52.2h-1.9l-0.7-3h-3.4l-0.7,3h-1.8L37.7,39h1.8L42.9,52.2z M39.8,47l-1.2-4.9L37.5,47H39.8z"/>
</g>
<g>
	<path d="M43.9,52.2V39.1h1.7v10.8h4.2v2.2H43.9z"/>
</g>
<g>
	<path d="M58.7,52.2h-1.9l-0.7-3h-3.4l-0.7,3h-1.8L53.5,39h1.8L58.7,52.2z M55.5,47l-1.2-4.9L53.2,47H55.5z"/>
</g>
<g>
	<path d="M60.6,52.2V41.2h-2.5V39h6.7v2.2h-2.5v10.9H60.6z"/>
</g>
<g>
	<path d="M65.8,52.2V39h1.7v13.2H65.8z"/>
</g>
<g>
	<path d="M68.8,45.7c0-1.6,0.2-2.9,0.5-3.9c0.4-1,0.8-1.8,1.4-2.3c0.6-0.5,1.3-0.7,2.1-0.7c1.2,0,2.2,0.6,3,1.8
		c0.8,1.2,1.1,2.9,1.1,5c0,2.2-0.4,3.9-1.2,5.2c-0.7,1.1-1.7,1.6-2.9,1.6c-1.2,0-2.2-0.5-2.9-1.6C69.2,49.5,68.8,47.8,68.8,45.7z
		 M70.6,45.6c0,1.5,0.2,2.7,0.7,3.4c0.5,0.8,1,1.1,1.7,1.1c0.7,0,1.2-0.4,1.7-1.1s0.7-1.9,0.7-3.5c0-1.5-0.2-2.7-0.6-3.4
		c-0.4-0.7-1-1.1-1.7-1.1c-0.7,0-1.3,0.4-1.7,1.1C70.8,42.9,70.6,44,70.6,45.6z"/>
</g>
<g>
	<path d="M78.4,52.2V39h1.7l3.5,8.8V39h1.6v13.2h-1.7L80,43.6v8.6H78.4z"/>
</g>
<g>
	<path d="M24.3,66.7v-12h1.8v4.7h3.6v-4.7h1.8v12h-1.8v-5.3h-3.6v5.3H24.3z"/>
</g>
<g>
	<path d="M41.6,66.7h-2l-0.8-2.7h-3.6l-0.7,2.7h-1.9l3.5-12H38L41.6,66.7z M38.2,61.9L37,57.4l-1.2,4.5H38.2z"/>
</g>
<g>
	<path d="M41.8,66.7v-2.2l4.8-7.8h-4.2v-2h6.6v1.9l-5,8.1h5.2v2H41.8z"/>
</g>
<g>
	<path d="M58.5,66.7h-2l-0.8-2.7h-3.6l-0.7,2.7h-1.9l3.5-12h1.9L58.5,66.7z M55.1,61.9l-1.3-4.5l-1.2,4.5H55.1z"/>
</g>
<g>
	<path d="M59.4,66.7v-12h3.9c1,0,1.7,0.1,2.1,0.3c0.4,0.2,0.8,0.6,1,1.1s0.4,1.2,0.4,1.9c0,0.9-0.2,1.7-0.6,2.3
		c-0.4,0.6-1,0.9-1.8,1.1c0.4,0.3,0.7,0.6,1,1s0.6,1,1,2l1.1,2.3h-2.2L64.1,64c-0.5-0.9-0.8-1.5-1-1.8c-0.2-0.2-0.4-0.4-0.5-0.5
		c-0.2-0.1-0.5-0.1-0.9-0.1h-0.4v5H59.4z M61.2,59.7h1.4c0.8,0,1.4,0,1.6-0.1c0.2-0.1,0.4-0.2,0.5-0.5s0.2-0.6,0.2-1
		c0-0.4-0.1-0.7-0.2-0.9c-0.1-0.2-0.3-0.4-0.6-0.5c-0.2-0.1-0.7-0.1-1.5-0.1h-1.4V59.7z"/>
</g>
<g>
	<path d="M68.5,54.6h3.3c0.8,0,1.5,0.1,1.9,0.3c0.4,0.2,0.8,0.6,1.2,1c0.4,0.5,0.6,1.1,0.9,1.9c0.2,0.8,0.3,1.7,0.3,2.9
		c0,1-0.1,1.9-0.3,2.7c-0.2,0.8-0.5,1.4-0.8,1.8c-0.3,0.4-0.7,0.8-1.2,1c-0.5,0.2-1.1,0.3-1.8,0.3h-3.4V54.6z M70.4,56.7v8h1.4
		c0.6,0,1-0.1,1.3-0.2c0.3-0.1,0.5-0.3,0.6-0.5c0.2-0.2,0.3-0.6,0.4-1.2c0.1-0.5,0.2-1.2,0.2-2.1c0-0.9-0.1-1.6-0.2-2.1
		c-0.1-0.5-0.3-0.9-0.5-1.2c-0.2-0.3-0.5-0.5-0.9-0.6c-0.3-0.1-0.8-0.1-1.5-0.1H70.4z"/>
</g>
<g>
	<path d="M52.4,83.6c0,0.5-0.1,1.1-0.2,1.5s-0.3,0.9-0.6,1.2c-0.3,0.3-0.6,0.6-0.9,0.8c-0.3,0.2-0.7,0.3-1.1,0.3
		c-0.5,0-0.9-0.1-1.2-0.4c-0.4-0.2-0.7-0.6-0.9-1s-0.4-1-0.6-1.6c-0.1-0.6-0.2-1.4-0.2-2.2c0-1,0.1-1.8,0.3-2.6
		c0.2-0.8,0.4-1.4,0.7-2s0.7-1,1.2-1.3c0.5-0.3,1-0.5,1.5-0.5c0.6,0,1.1,0.1,1.5,0.3v2.1c-0.4-0.3-0.9-0.5-1.4-0.5
		c-0.3,0-0.6,0.1-0.8,0.2c-0.2,0.2-0.5,0.4-0.6,0.7s-0.3,0.7-0.4,1.1c-0.1,0.4-0.2,0.9-0.2,1.4h0c0.4-0.7,1-1.1,1.7-1.1
		c0.3,0,0.6,0.1,0.9,0.2c0.3,0.2,0.5,0.4,0.7,0.7c0.2,0.3,0.3,0.7,0.5,1.1C52.3,82.6,52.4,83.1,52.4,83.6z M50.6,83.8
		c0-1.2-0.4-1.8-1.1-1.8c-0.2,0-0.3,0-0.4,0.1c-0.1,0.1-0.2,0.2-0.3,0.3c-0.1,0.2-0.2,0.3-0.2,0.5c-0.1,0.2-0.1,0.4-0.1,0.7
		c0,0.3,0,0.5,0.1,0.8c0.1,0.2,0.1,0.4,0.2,0.6c0.1,0.2,0.2,0.3,0.3,0.4c0.1,0.1,0.3,0.2,0.4,0.2c0.2,0,0.3,0,0.4-0.1
		c0.1-0.1,0.2-0.2,0.3-0.4c0.1-0.2,0.2-0.4,0.2-0.6C50.6,84.3,50.6,84,50.6,83.8z"/>
</g>
<g>
	<path style="fill:#FFFFFF;" d="M46.3,21.8c0,0,1.5,1.3,2.9,1.2c1.4-0.1,2.5-0.5,2.7-0.7s0.4,0.5,0.1,0.7c-0.3,0.3-1.7,1-2.7,1
		c-1,0-2.8-1.3-3-1.6C46.1,22.2,46.3,21.8,46.3,21.8z"/>
</g>
<g>
	<path style="fill:#FFFFFF;" d="M40.3,22.1c0,0,0.8-0.4,1.4-0.2c0.7,0.3,2.1,0.4,2.4,0.2c0.4-0.3,1.2-0.5,1.3-0.1
		c0.1,0.4-3.4,2.8-3.7,2.9c-0.3,0.1-0.6-0.5-0.6-0.9C41.2,23.6,40.1,23.3,40.3,22.1z"/>
</g>
<g>
	<path style="fill:#FFFFFF;" d="M40.6,15.2c0,0-0.4,1.9-0.8,2.3s-0.7,1.1-0.1,1.1c0.5,0,3.4,0.5,3.9,0.6c0.5,0.2,1.2,0.6,1.3,0.3
		c0.1-0.3-3.2-3.2-3.3-3.8C41.5,15.2,41,14.2,40.6,15.2z"/>
</g>
<g>
	<path style="fill:#FFFFFF;" d="M53.5,18.8c0,0,3.9-2.9,4.1-3.3c0.2-0.5,0.7-0.6,0.7,0.1c0,0.7-0.1,1.1,0.2,1.5s0.9,0.5,0.7,0.9
		c-0.2,0.4-1.3,0.5-2.1,0.6c-0.8,0.1-3.4,1-3.4,1S53.2,19.3,53.5,18.8z"/>
</g>
<g>
	<path style="fill:#FFFFFF;" d="M53.4,21.8c0,0,1.3,0.3,1.9,0.3s1.5-0.2,2-0.3c0.5-0.1,1.3-0.4,1.1,0.3c-0.2,0.7-0.7,1.2-0.9,2.2
		s-0.7,0.6-1,0.4c-0.3-0.2-2-1.7-2.5-1.9C53.5,22.5,52.9,22.2,53.4,21.8z"/>
</g>
<g>
	<path style="fill:#FFFFFF;" d="M54.5,10.2c-1.1-2.7-5.7-3-5.7-3c-2.3,0.1-4.4,2.3-4.7,2.8c-0.3,0.5,0,1.3,0.2,1.6s0.2,3,0.4,3.8
		c0.2,0.7,1,3,1.8,4.2c0.7,1.2,3.3,2,4.7,0.8s2.5-4.2,2.5-4.2s0-2.8,0.6-4.2C54.7,10.6,54.5,10.2,54.5,10.2z M48.3,15.2
		c-0.3,0.3-0.7,0.7-0.9,0.8c-0.2,0.1-0.9-0.5-1.1-0.7c-0.2-0.2-0.9-0.8,0-1.2c0,0,1.6-0.3,1.9,0C48.5,14.3,48.6,14.9,48.3,15.2z
		 M50,18.7c-0.1,1.1-0.8,0.9-1,0.8c-0.2-0.1-0.5-0.7-0.5-1.2c0-0.5,0.2-1,0.8-0.9C49.3,17.4,50.1,17.7,50,18.7z M52.4,15
		c-0.2,0.2-0.8,0.7-1,0.9c-0.3,0.2-0.7-0.3-0.9-0.5c-0.2-0.2-1-1-0.3-1.5c0,0,1.7-0.1,2,0.2C52.5,14.5,52.7,14.8,52.4,15z"/>
</g>
</svg>
