<?xml version="1.0" encoding="iso-8859-1"?>
<!-- Generator: Adobe Illustrator 25.4.1, SVG Export Plug-In . SVG Version: 6.00 Build 0)  -->
<svg version="1.1" id="Layer_1" xmlns="http://www.w3.org/2000/svg" xmlns:xlink="http://www.w3.org/1999/xlink" x="0px" y="0px"
	 viewBox="0 0 100 100" style="enable-background:new 0 0 100 100;" xml:space="preserve">
<polygon style="fill:#EB3223;" points="31.4,21.5 31.4,35.75 31.4,50 31.4,64.25 31.4,78.5 33.25,80.325 35.1,82.15 36.95,83.975 
	38.8,85.8 38.8,67.9 38.8,50 38.8,32.1 38.8,14.2 36.95,16.025 35.1,17.85 33.25,19.675 "/>
<polygon style="fill:#EB3223;" points="16.6,36.2 16.6,43.1 16.6,50 16.6,56.9 16.6,63.8 18.45,65.65 20.3,67.5 22.15,69.35 
	24,71.2 24,60.6 24,50 24,39.4 24,28.8 22.15,30.65 20.3,32.5 18.45,34.35 "/>
<polygon style="fill:#EB3223;" points="2.6,50 4.25,51.625 5.9,53.25 7.55,54.875 9.2,56.5 9.2,53.25 9.2,50 9.2,46.75 9.2,43.5 
	7.55,45.125 5.9,46.75 4.25,48.375 "/>
<polygon style="fill:#EB3223;" points="50.6,2.5 49.5,3.6 48.4,4.7 47.3,5.8 46.2,6.9 46.2,28.45 46.2,50 46.2,71.55 46.2,93.1 
	47.3,94.2 48.4,95.3 49.5,96.4 50.6,97.5 51.35,96.7 52.1,95.9 52.85,95.1 53.6,94.3 53.6,72.125 53.6,49.95 53.6,27.775 53.6,5.6 
	52.85,4.825 52.1,4.05 51.35,3.275 "/>
<polygon style="fill:#EB3223;" points="61,13 61,31.45 61,49.9 61,68.35 61,86.8 62.875,84.9 64.75,83 66.625,81.1 68.5,79.2 
	68.5,64.525 68.5,49.85 68.5,35.175 68.5,20.5 66.625,18.625 64.75,16.75 62.875,14.875 "/>
<polygon style="fill:#EB3223;" points="75.8,27.9 75.8,38.825 75.8,49.75 75.8,60.675 75.8,71.6 77.675,69.7 79.55,67.8 
	81.425,65.9 83.3,64 83.3,56.85 83.3,49.7 83.3,42.55 83.3,35.4 81.425,33.525 79.55,31.65 77.675,29.775 "/>
<polygon style="fill:#EB3223;" points="90.6,42.8 90.6,46.225 90.6,49.65 90.6,53.075 90.6,56.5 92.3,54.775 94,53.05 95.7,51.325 
	97.4,49.6 95.7,47.9 94,46.2 92.3,44.5 "/>
<path d="M19.8,41.9h-0.775H18.25h-0.775H16.7v1v1v1v1h0.725h0.725h0.725H19.6v0.475v0.475v0.475V47.8h-0.725H18.15h-0.725H16.7v1.4
	v1.4V52v1.4h-0.35H16h-0.35H15.3v-3.325V46.75v-3.325V40.1h1.125h1.125h1.125H19.8v0.45V41v0.45V41.9z"/>
<path style="fill:#FFFFFF;" d="M16.8,53.6h-0.4H16h-0.4h-0.4v-3.425V46.75v-3.425V39.9h1.2h1.2h1.2H20v0.525v0.525v0.525V42h-0.775
	H18.45h-0.775H16.9v0.95v0.95v0.95v0.95h0.725h0.725h0.725H19.8v0.55v0.55v0.55V48h-0.725H18.35h-0.725H16.9v1.4v1.4v1.4v1.4h-0.025
	H16.85h-0.025H16.8z M15.4,53.3h0.275h0.275h0.275H16.5v-1.4v-1.4v-1.4v-1.4h0.725h0.725h0.725H19.4v-0.4v-0.4v-0.4v-0.4h-0.725
	H17.95h-0.725H16.5v-1.075V43.95v-1.075V41.8h0.775h0.775h0.775H19.6v-0.4V41v-0.4v-0.4h-1.075H17.45h-1.075H15.3v3.275v3.275v3.275
	V53.3h0.025h0.025h0.025H15.4z"/>
<path d="M25.9,53.5h-1.15H23.6h-1.15H21.3v-3.35V46.8v-3.35V40.1h0.35H22h0.35h0.35v2.875v2.875v2.875V51.6h0.8h0.8h0.8h0.8v0.475
	v0.475c0,0,0,0.237,0,0.475C25.9,53.263,25.9,53.5,25.9,53.5z"/>
<path style="fill:#FFFFFF;" d="M26,53.6h-1.225H23.55h-1.225H21.1v-3.425V46.75v-3.425V39.9h0.4h0.4h0.4h0.4v2.875v2.875v2.875V51.4
	h0.825h0.825h0.825H26v0.55v0.55v0.55V53.6z M21.4,53.3h1.1h1.1h1.1h1.1v-0.4v-0.4v-0.4v-0.4H25h-0.8h-0.8h-0.8v-2.875V45.95v-2.875
	V40.2h-0.275H22.05h-0.275H21.5v3.275v3.275v3.275V53.3h-0.025H21.45h-0.025H21.4z"/>
<path d="M34.3,53.5h-0.375H33.55h-0.375H32.8l-0.2-0.875l-0.2-0.875l-0.2-0.875L32,50h-0.825H30.35h-0.825H28.7l-0.175,0.875
	L28.35,51.75l-0.175,0.875L28,53.5h-0.375H27.25h-0.375H26.5l0.775-3.35l0.775-3.35l0.775-3.35L29.6,40.1H30h0.4h0.4h0.4l0.775,3.35
	l0.775,3.35l0.775,3.35L34.3,53.5z M31.7,48.2l-0.3-1.325l-0.3-1.325l-0.3-1.325L30.5,42.9c0-0.05-0.006-0.106-0.016-0.167
	s-0.022-0.126-0.034-0.195c-0.013-0.069-0.025-0.141-0.034-0.214C30.406,42.25,30.4,42.175,30.4,42.1l0,0l0,0l0,0l0,0
	c0,0.1-0.006,0.188-0.016,0.266s-0.022,0.147-0.034,0.209s-0.025,0.119-0.034,0.172C30.306,42.8,30.3,42.85,30.3,42.9l-0.275,1.325
	L29.75,45.55l-0.275,1.325L29.2,48.2h0.625h0.625h0.625H31.7z"/>
<path style="fill:#FFFFFF;" d="M34.5,53.6h-0.45H33.6h-0.45H32.7l-0.2-0.85l-0.2-0.85l-0.2-0.85l-0.2-0.85h-0.775H30.35h-0.775H28.8
	l-0.175,0.85L28.45,51.9l-0.175,0.85L28.1,53.6h-0.45H27.2h-0.45H26.3v-0.05V53.5v-0.05V53.4l0.8-3.375l0.8-3.375l0.8-3.375
	l0.8-3.375h0.45h0.45h0.45h0.45l0.8,3.425l0.8,3.425l0.8,3.425L34.5,53.6z M32.9,53.3h0.325h0.325h0.325H34.2L33.425,50l-0.775-3.3
	l-0.775-3.3L31.1,40.1h-0.35H30.4h-0.35H29.7l-0.775,3.3l-0.775,3.3L27.375,50L26.6,53.3h0.325h0.325h0.325H27.9l0.175-0.85
	l0.175-0.85l0.175-0.85L28.6,49.9h0.875h0.875h0.875H32.1l0.2,0.85l0.2,0.85l0.2,0.85L32.9,53.3z M31.8,48.4h-0.725H30.35h-0.725
	H28.9l0.3-1.375l0.3-1.375l0.3-1.375l0.3-1.375c0-0.05,0.006-0.106,0.016-0.167s0.022-0.126,0.034-0.195
	c0.012-0.069,0.025-0.141,0.034-0.215C30.194,42.25,30.2,42.175,30.2,42.1v-0.025V42.05v-0.025V42h0.05h0.05h0.05h0.05v0.025v0.025
	v0.025V42.1c0,0.1,0.006,0.194,0.016,0.28c0.009,0.086,0.022,0.164,0.034,0.233s0.025,0.128,0.034,0.176
	c0.009,0.048,0.016,0.086,0.016,0.111l0.325,1.375l0.325,1.375l0.325,1.375L31.8,48.4z M29.3,48.1h0.575h0.575h0.575H31.6
	l-0.275-1.3l-0.275-1.3l-0.275-1.3L30.5,42.9l0,0l0,0l0,0l0,0l0,0l0,0l0,0l0,0l-0.3,1.3l-0.3,1.3l-0.3,1.3L29.3,48.1z"/>
<path d="M44.4,53.5h-0.35H43.7h-0.35H43v-2.175V49.15v-2.175V44.8c0-0.175,0-0.362,0.002-0.561c0.002-0.198,0.005-0.408,0.011-0.627
	s0.016-0.447,0.03-0.683c0.014-0.236,0.032-0.479,0.057-0.729l0,0l0,0l0,0l0,0c-0.025,0.15-0.05,0.287-0.073,0.414
	c-0.024,0.127-0.046,0.242-0.065,0.349c-0.019,0.106-0.034,0.203-0.045,0.292S42.9,43.425,42.9,43.5L42.275,46l-0.625,2.5L41.025,51
	L40.4,53.5h-0.25H39.9h-0.25H39.4l-0.625-2.475L38.15,48.55l-0.625-2.475L36.9,43.6c-0.025-0.075-0.044-0.156-0.059-0.245
	s-0.028-0.186-0.041-0.292c-0.013-0.107-0.025-0.222-0.041-0.349S36.725,42.45,36.7,42.3l0,0l0,0l0,0l0,0c0,0.125,0,0.275,0,0.448
	s0,0.37,0,0.59s0,0.459,0,0.72c0,0.261,0,0.542,0,0.842v2.175v2.175v2.175V53.6h-0.325H36.05h-0.325H35.4v-3.375V46.85v-3.375V40.1
	h0.5h0.5h0.5h0.5l0.55,2.225l0.55,2.225l0.55,2.225L39.6,49c0.05,0.175,0.094,0.338,0.131,0.487c0.037,0.15,0.069,0.288,0.094,0.413
	s0.044,0.237,0.056,0.338c0.012,0.1,0.019,0.188,0.019,0.262l0,0l0,0l0,0l0,0c0.025-0.175,0.056-0.338,0.089-0.489
	c0.033-0.152,0.067-0.292,0.099-0.423c0.031-0.132,0.059-0.254,0.079-0.368C40.188,49.106,40.2,49,40.2,48.9l0.55-2.225l0.55-2.225
	l0.55-2.225L42.4,40h0.475h0.475h0.475H44.3v3.375v3.375v3.375V53.5h0.025h0.025h0.025H44.4z"/>
<path style="fill:#FFFFFF;" d="M44.6,53.6h-0.4h-0.4h-0.4H43v-2.2v-2.2V47v-2.2c0-0.075,0-0.156,0-0.242c0-0.086,0-0.177,0-0.271
	s0-0.191,0-0.289s0-0.198,0-0.298l-0.625,2.475L41.75,48.65l-0.625,2.475L40.5,53.6h-0.3h-0.3h-0.3h-0.3v-0.025V53.55v-0.025V53.5
	l-0.625-2.45L38.05,48.6l-0.625-2.45L36.8,43.7c0,0.075,0,0.156,0,0.242c0,0.086,0,0.177,0,0.271s0,0.191,0,0.289s0,0.198,0,0.298
	V47v2.2v2.2v2.2h-0.375H36.05h-0.375H35.3v-3.425V46.75v-3.425V39.9h0.55h0.55h0.55h0.55l0.55,2.25l0.55,2.25l0.55,2.25l0.55,2.25
	c0.025,0.1,0.05,0.194,0.073,0.283c0.024,0.089,0.046,0.174,0.065,0.255c0.019,0.081,0.034,0.159,0.045,0.236
	C39.894,49.75,39.9,49.825,39.9,49.9c0.025-0.1,0.05-0.2,0.073-0.297c0.024-0.097,0.046-0.191,0.065-0.278
	c0.019-0.087,0.034-0.169,0.045-0.241C40.094,49.013,40.1,48.95,40.1,48.9l0.575-2.25l0.575-2.25l0.575-2.25L42.4,39.9h0.525h0.525
	h0.525H44.5v3.425v3.425v3.425V53.6h0.025h0.025h0.025H44.6z M43.2,53.3h0.275h0.275h0.275H44.3v-3.275V46.75v-3.275V40.2h-0.425
	H43.45h-0.425H42.6l-0.55,2.2l-0.55,2.2l-0.55,2.2L40.4,49c-0.025,0.1-0.05,0.206-0.075,0.32c-0.025,0.114-0.05,0.236-0.075,0.368
	s-0.05,0.272-0.075,0.423c-0.025,0.151-0.05,0.314-0.075,0.489v0.025v0.025v0.025V50.7h-0.05H40h-0.05H39.9v-0.025V50.65v-0.025
	V50.6c0-0.075-0.013-0.162-0.033-0.263c-0.02-0.1-0.048-0.212-0.079-0.337s-0.065-0.263-0.098-0.412
	c-0.033-0.15-0.065-0.312-0.09-0.488l-0.55-2.2l-0.55-2.2l-0.55-2.2l-0.55-2.2h-0.425H36.55h-0.425H35.7v3.3v3.3v3.3v3.3h0.25h0.25
	h0.25h0.25v-2.125V49.25v-2.125V45c0-0.3,0-0.581,0-0.842s0-0.501,0-0.72s0-0.415,0-0.589s0-0.323,0-0.448v-0.025v-0.025v-0.026
	V42.3h0.05h0.05h0.05h0.05v0.025v0.025v0.025V42.4c0.025,0.15,0.044,0.287,0.059,0.414s0.028,0.242,0.041,0.349
	c0.013,0.106,0.025,0.203,0.041,0.292c0.016,0.089,0.034,0.17,0.059,0.245l0.625,2.45l0.625,2.45l0.625,2.45L39.6,53.5h0.2H40h0.2
	h0.2l0.625-2.475l0.625-2.475l0.625-2.475L42.9,43.6c0.025-0.05,0.044-0.119,0.059-0.201s0.028-0.18,0.041-0.285
	c0.013-0.106,0.025-0.222,0.041-0.343c0.016-0.12,0.034-0.245,0.059-0.37v-0.025V42.35v-0.025V42.3h0.05h0.05h0.05h0.05v0.025v0.025
	v0.025V42.4c-0.025,0.25-0.044,0.494-0.058,0.73s-0.023,0.464-0.029,0.683s-0.009,0.428-0.011,0.627S43.2,44.825,43.2,45
	c0,0,0,0.519,0,1.297s0,1.816,0,2.853s0,2.075,0,2.853C43.2,52.781,43.2,53.3,43.2,53.3z"/>
<path d="M55.5,53.5h-0.35H54.8h-0.35H54.1v-2.175V49.15v-2.175V44.8c0-0.175,0-0.362,0.002-0.561
	c0.002-0.198,0.005-0.408,0.011-0.627s0.016-0.447,0.03-0.683c0.014-0.236,0.032-0.479,0.057-0.729l0,0l0,0l0,0l0,0
	c-0.025,0.15-0.05,0.287-0.073,0.414c-0.024,0.127-0.046,0.242-0.065,0.349c-0.018,0.106-0.034,0.203-0.045,0.292S54,43.425,54,43.5
	L53.375,46l-0.625,2.5L52.125,51L51.5,53.5h-0.25H51h-0.25H50.5L49.875,51l-0.625-2.5L48.625,46L48,43.5
	c-0.025-0.075-0.044-0.156-0.059-0.245s-0.028-0.186-0.041-0.292c-0.013-0.107-0.025-0.222-0.041-0.349S47.825,42.35,47.8,42.2l0,0
	l0,0l0,0l0,0c0,0.125,0,0.275,0,0.448s0,0.37,0,0.59s0,0.459,0,0.72c0,0.261,0,0.542,0,0.842v2.175v2.175v2.175V53.5h-0.325H47.15
	h-0.325H46.5v-3.35V46.8v-3.35V40.1H47h0.5H48h0.5l0.55,2.225l0.55,2.225l0.55,2.225L50.7,49c0.05,0.175,0.094,0.338,0.131,0.487
	c0.038,0.15,0.069,0.288,0.094,0.413s0.044,0.237,0.056,0.337C50.994,50.338,51,50.425,51,50.5l0,0l0,0l0,0l0,0
	c0.025-0.175,0.056-0.338,0.089-0.489c0.033-0.152,0.067-0.292,0.099-0.423c0.031-0.132,0.059-0.254,0.079-0.368S51.3,49,51.3,48.9
	l0.55-2.225l0.55-2.225l0.55-2.225L53.5,40h0.475h0.475h0.475H55.4v3.375v3.375v3.375V53.5h0.025h0.025h0.025H55.5z"/>
<path style="fill:#FFFFFF;" d="M55.6,53.6h-0.4h-0.4h-0.4H54v-2.2v-2.2V47v-2.2c0-0.075,0-0.156,0-0.242c0-0.086,0-0.177,0-0.271
	s0-0.191,0-0.289s0-0.198,0-0.298l-0.625,2.475L52.75,48.65l-0.625,2.475L51.5,53.6h-0.3h-0.3h-0.3h-0.3v-0.025V53.55v-0.025V53.5
	l-0.625-2.45L49.05,48.6l-0.625-2.45L47.8,43.7c0,0.075,0,0.156,0,0.242c0,0.086,0,0.177,0,0.271s0,0.191,0,0.289s0,0.198,0,0.298
	V47v2.2v2.2v2.2h-0.375H47.05h-0.375H46.3v-3.425V46.75v-3.425V39.9h0.55h0.55h0.55h0.55l0.55,2.25l0.55,2.25l0.55,2.25l0.55,2.25
	c0.025,0.1,0.05,0.194,0.073,0.283c0.024,0.089,0.046,0.174,0.065,0.255c0.019,0.081,0.034,0.159,0.045,0.236
	C50.894,49.75,50.9,49.825,50.9,49.9c0.025-0.1,0.05-0.2,0.073-0.297c0.024-0.097,0.046-0.191,0.065-0.278
	c0.019-0.087,0.034-0.169,0.045-0.241C51.094,49.013,51.1,48.95,51.1,48.9l0.575-2.25l0.575-2.25l0.575-2.25L53.4,39.9h0.525h0.525
	h0.525H55.5v3.425v3.425v3.425V53.6h0.025h0.025h0.025H55.6z M54.2,53.3h0.275h0.275h0.275H55.3v-3.275V46.75v-3.275V40.2h-0.425
	H54.45h-0.425H53.6l-0.525,2.2l-0.525,2.2l-0.525,2.2L51.5,49c-0.025,0.1-0.05,0.206-0.075,0.32
	c-0.025,0.114-0.05,0.236-0.075,0.368s-0.05,0.272-0.075,0.423c-0.025,0.151-0.05,0.314-0.075,0.489v0.025v0.025v0.025V50.7h-0.05
	H51.1h-0.05H51v-0.025V50.65v-0.025V50.6c0-0.075-0.013-0.162-0.033-0.263c-0.02-0.1-0.048-0.212-0.079-0.337
	s-0.065-0.263-0.098-0.412c-0.033-0.15-0.065-0.312-0.09-0.488l-0.55-2.2l-0.55-2.2l-0.55-2.2l-0.55-2.2h-0.425H47.65h-0.425H46.8
	v3.3v3.3v3.3v3.3h0.25h0.25h0.25h0.25v-2.125V49.25v-2.125V45c0-0.3,0-0.581,0-0.842s0-0.501,0-0.72s0-0.415,0-0.589
	s0-0.323,0-0.448v-0.025v-0.025v-0.026V42.3h0.05h0.05h0.05H48v0.025v0.025v0.025V42.4c0.025,0.15,0.044,0.287,0.059,0.414
	s0.028,0.242,0.041,0.349c0.013,0.106,0.025,0.203,0.041,0.292s0.034,0.17,0.059,0.245l0.625,2.45l0.625,2.45l0.625,2.45L50.7,53.5
	h0.2h0.2h0.2h0.2l0.625-2.475l0.625-2.475l0.625-2.475L54,43.6c0.025-0.05,0.044-0.119,0.059-0.201s0.028-0.18,0.041-0.285
	c0.013-0.106,0.025-0.222,0.041-0.343c0.016-0.12,0.034-0.245,0.059-0.37v-0.025V42.35v-0.025V42.3h0.05h0.05h0.05h0.05v0.025v0.025
	v0.025V42.4c-0.025,0.25-0.044,0.494-0.058,0.73s-0.023,0.464-0.029,0.683s-0.009,0.428-0.011,0.627S54.3,44.825,54.3,45v2.075
	v2.075v2.075V53.3h-0.025H54.25c0,0-0.013,0-0.025,0C54.213,53.3,54.2,53.3,54.2,53.3z"/>
<path d="M64.4,53.5h-0.375H63.65h-0.375H62.9l-0.2-0.875l-0.2-0.875l-0.2-0.875L62.1,50h-0.825H60.45h-0.825H58.8l-0.175,0.85
	L58.45,51.7l-0.175,0.85L58.1,53.4h-0.375H57.35h-0.375H56.6l0.775-3.35l0.775-3.35l0.775-3.35L59.7,40h0.4h0.4h0.4h0.4l0.775,3.375
	l0.775,3.375l0.775,3.375L64.4,53.5z M61.8,48.2l-0.3-1.325l-0.3-1.325l-0.3-1.325L60.6,42.9c0-0.05-0.006-0.106-0.016-0.167
	c-0.009-0.061-0.022-0.126-0.034-0.195s-0.025-0.14-0.034-0.214C60.506,42.25,60.5,42.175,60.5,42.1l0,0l0,0l0,0l0,0
	c0,0.1-0.006,0.188-0.016,0.266s-0.022,0.147-0.034,0.209s-0.025,0.119-0.034,0.172C60.406,42.8,60.4,42.85,60.4,42.9l-0.275,1.325
	L59.85,45.55l-0.275,1.325L59.3,48.2h0.625h0.625h0.625H61.8z"/>
<path style="fill:#FFFFFF;" d="M64.6,53.6h-0.45H63.7h-0.45H62.8l-0.2-0.85l-0.2-0.85l-0.2-0.85L62,50.2h-0.775H60.45h-0.775H58.9
	l-0.175,0.85L58.55,51.9l-0.175,0.85L58.2,53.6h-0.45H57.3h-0.45H56.4v-0.05V53.5v-0.05V53.4l0.8-3.375L58,46.65l0.8-3.375
	l0.8-3.375h0.45h0.45h0.45h0.45l0.8,3.425L63,46.75l0.8,3.425L64.6,53.6z M63,53.3h0.325h0.325h0.325H64.3L63.525,50l-0.775-3.3
	l-0.775-3.3L61.2,40.1h-0.35H60.5h-0.35H59.8l-0.775,3.3l-0.775,3.3L57.475,50L56.7,53.3h0.325h0.325h0.325H58l0.175-0.85
	l0.175-0.85l0.175-0.85L58.7,49.9h0.875h0.875h0.875H62.2l0.2,0.85l0.2,0.85l0.2,0.85L63,53.3z M61.9,48.4h-0.725H60.45h-0.725H59
	l0.3-1.375l0.3-1.375l0.3-1.375l0.3-1.375c0-0.05,0.006-0.106,0.016-0.167s0.022-0.126,0.034-0.195s0.025-0.141,0.034-0.214
	S60.3,42.175,60.3,42.1v-0.025V42.05v-0.025V42h0.05h0.05h0.05h0.05v0.025v0.025v0.025V42.1c0,0.1,0.006,0.194,0.016,0.28
	c0.009,0.086,0.022,0.164,0.034,0.233s0.025,0.128,0.034,0.176c0.009,0.048,0.016,0.086,0.016,0.111l0.325,1.375l0.325,1.375
	l0.325,1.375L61.9,48.4z M59.4,48.1h0.575h0.575h0.575H61.7l-0.275-1.3l-0.275-1.3l-0.275-1.3L60.6,42.9l0,0l0,0l0,0l0,0l0,0l0,0
	l0,0l0,0l-0.3,1.3L60,45.5l-0.3,1.3L59.4,48.1z"/>
<path d="M65.6,53.5v-3.35V46.8v-3.35V40.1h0.675h0.675h0.675H68.3c0.2,0,0.388,0.019,0.564,0.056
	c0.176,0.037,0.342,0.094,0.498,0.169c0.157,0.075,0.304,0.169,0.443,0.281c0.139,0.112,0.27,0.244,0.395,0.394
	s0.231,0.306,0.32,0.47c0.089,0.164,0.161,0.336,0.217,0.517s0.097,0.372,0.124,0.574c0.027,0.202,0.039,0.414,0.039,0.639
	c0,0.2-0.006,0.388-0.02,0.566c-0.014,0.178-0.036,0.347-0.068,0.509s-0.072,0.319-0.123,0.472S70.575,45.05,70.5,45.2
	s-0.15,0.287-0.228,0.412s-0.159,0.237-0.247,0.338s-0.181,0.188-0.284,0.263c-0.103,0.075-0.216,0.137-0.341,0.188l0,0l0,0l0,0l0,0
	c0.15,0.025,0.287,0.062,0.416,0.114c0.128,0.052,0.247,0.117,0.359,0.198s0.219,0.178,0.322,0.292
	C70.6,47.118,70.7,47.25,70.8,47.4c0.075,0.15,0.144,0.306,0.205,0.47c0.061,0.164,0.114,0.336,0.158,0.517s0.078,0.372,0.102,0.574
	c0.023,0.202,0.035,0.414,0.035,0.639c0,0.275-0.019,0.544-0.055,0.803c-0.036,0.259-0.089,0.509-0.158,0.747
	s-0.154,0.462-0.252,0.672s-0.211,0.403-0.336,0.578c-0.15,0.175-0.306,0.331-0.469,0.467s-0.331,0.251-0.506,0.345
	c-0.175,0.094-0.356,0.166-0.543,0.215C68.794,53.475,68.6,53.5,68.4,53.5h-0.7H67h-0.7H65.6z M66.9,41.8v0.95v0.95v0.95v0.95h0.225
	h0.225h0.225H67.8c0.125,0,0.244-0.013,0.355-0.036c0.111-0.023,0.214-0.058,0.307-0.102c0.094-0.043,0.179-0.097,0.252-0.157
	s0.136-0.13,0.186-0.205c0.075-0.1,0.138-0.206,0.189-0.319c0.051-0.113,0.092-0.231,0.123-0.356s0.053-0.256,0.067-0.394
	S69.3,43.75,69.3,43.6c0-0.275-0.031-0.519-0.092-0.73c-0.061-0.211-0.152-0.389-0.271-0.533c-0.119-0.144-0.265-0.253-0.439-0.326
	S68.125,41.9,67.9,41.9h-0.25H67.4h-0.25H66.9v-0.025V41.85v-0.025V41.8z M66.9,47.4v1.05v1.05v1.05v1.05h0.3h0.3h0.3h0.3
	c0.125,0,0.244-0.013,0.356-0.037c0.113-0.025,0.219-0.062,0.319-0.113c0.1-0.05,0.194-0.112,0.281-0.188S69.225,51.1,69.3,51
	s0.137-0.206,0.189-0.32c0.051-0.114,0.092-0.236,0.123-0.368s0.053-0.272,0.067-0.423c0.014-0.151,0.021-0.314,0.021-0.489
	c0-0.35-0.037-0.656-0.113-0.919C69.512,48.219,69.4,48,69.25,47.825c-0.15-0.175-0.338-0.306-0.562-0.394S68.2,47.3,67.9,47.3
	h-0.25H67.4h-0.25H66.9v0.025v0.025v0.025V47.4z"/>
<path style="fill:#FFFFFF;" d="M68.2,53.6h-0.7h-0.7h-0.7h-0.7v-3.425V46.75v-3.425V39.9h0.7h0.7h0.7h0.7
	c0.2,0,0.394,0.019,0.58,0.056c0.186,0.037,0.364,0.094,0.533,0.169c0.169,0.075,0.328,0.169,0.476,0.281S70.075,40.65,70.2,40.8
	s0.231,0.312,0.32,0.486c0.089,0.173,0.161,0.358,0.217,0.551c0.057,0.194,0.097,0.397,0.124,0.608
	c0.027,0.211,0.039,0.43,0.039,0.655c0,0.2-0.006,0.394-0.02,0.58c-0.014,0.186-0.036,0.364-0.068,0.532s-0.072,0.328-0.123,0.477
	c-0.051,0.149-0.114,0.286-0.189,0.411c-0.05,0.125-0.106,0.244-0.169,0.355c-0.062,0.111-0.131,0.214-0.206,0.308
	s-0.156,0.178-0.244,0.251C69.794,46.088,69.7,46.15,69.6,46.2c0.125,0.05,0.244,0.106,0.356,0.17
	c0.113,0.064,0.219,0.136,0.319,0.218c0.1,0.081,0.194,0.171,0.281,0.273s0.169,0.214,0.244,0.339c0.1,0.15,0.181,0.312,0.247,0.486
	c0.066,0.173,0.116,0.358,0.153,0.551c0.037,0.194,0.062,0.397,0.078,0.608c0.016,0.211,0.022,0.43,0.022,0.655
	c0,0.3-0.019,0.581-0.056,0.847s-0.094,0.516-0.169,0.753s-0.169,0.463-0.281,0.678C70.681,51.994,70.55,52.2,70.4,52.4
	c-0.125,0.2-0.269,0.375-0.428,0.525c-0.159,0.15-0.334,0.275-0.522,0.375s-0.388,0.175-0.597,0.225S68.425,53.6,68.2,53.6z
	 M65.7,53.3h0.65H67h0.65h0.65c0.2,0,0.394-0.019,0.58-0.058s0.364-0.098,0.533-0.179s0.328-0.184,0.477-0.311
	c0.148-0.127,0.285-0.277,0.41-0.452s0.238-0.362,0.336-0.562s0.183-0.413,0.252-0.638c0.068-0.225,0.122-0.463,0.158-0.713
	s0.055-0.512,0.055-0.787c0-0.225-0.012-0.438-0.036-0.639s-0.058-0.392-0.101-0.574c-0.045-0.181-0.098-0.353-0.159-0.517
	c-0.061-0.164-0.13-0.32-0.205-0.47c-0.075-0.125-0.162-0.244-0.259-0.353c-0.097-0.109-0.203-0.209-0.316-0.297
	s-0.231-0.162-0.353-0.222c-0.122-0.059-0.247-0.103-0.372-0.128h-0.025H69.25h-0.025H69.2v-0.05V46.3v-0.05V46.2h0.025h0.025h0.025
	H69.3c0.1-0.05,0.2-0.112,0.299-0.186c0.099-0.073,0.196-0.158,0.289-0.252s0.184-0.197,0.27-0.308s0.167-0.229,0.242-0.354
	s0.138-0.263,0.189-0.409c0.051-0.147,0.092-0.303,0.123-0.466s0.053-0.331,0.067-0.503S70.8,43.375,70.8,43.2
	c0-0.225-0.012-0.438-0.039-0.638c-0.027-0.2-0.067-0.387-0.123-0.562c-0.057-0.175-0.128-0.338-0.217-0.487
	c-0.089-0.15-0.195-0.288-0.32-0.413s-0.25-0.237-0.38-0.336c-0.13-0.099-0.264-0.183-0.407-0.252
	c-0.145-0.069-0.298-0.121-0.465-0.157C68.681,40.319,68.5,40.3,68.3,40.3h-0.625H67.05h-0.625H65.8v3.25v3.25v3.25v3.25h-0.025
	H65.75h-0.025H65.7z M68.1,51.8h-0.325H67.45h-0.325H66.8v-1.125V49.55v-1.125V47.3h0.275h0.275h0.275H67.9
	c0.325,0,0.606,0.044,0.845,0.133c0.239,0.089,0.436,0.224,0.593,0.405c0.156,0.181,0.271,0.409,0.348,0.686
	C69.763,48.8,69.8,49.125,69.8,49.5c0,0.175-0.012,0.344-0.034,0.505c-0.022,0.161-0.053,0.314-0.091,0.458
	c-0.038,0.143-0.081,0.278-0.128,0.401S69.45,51.1,69.4,51.2c-0.075,0.1-0.156,0.188-0.245,0.263
	c-0.089,0.075-0.186,0.137-0.292,0.188c-0.106,0.05-0.222,0.087-0.349,0.112C68.387,51.787,68.25,51.8,68.1,51.8z M67.1,51.6h0.275
	h0.275h0.275H68.2c0.125,0,0.237-0.013,0.341-0.036c0.103-0.024,0.197-0.058,0.284-0.102c0.088-0.043,0.169-0.096,0.247-0.157
	s0.153-0.13,0.228-0.205c0.075-0.1,0.137-0.206,0.189-0.319c0.051-0.113,0.092-0.231,0.123-0.356s0.053-0.256,0.067-0.394
	S69.7,49.75,69.7,49.6c0-0.325-0.031-0.613-0.097-0.861c-0.066-0.248-0.166-0.458-0.303-0.626c-0.137-0.169-0.312-0.297-0.528-0.383
	C68.556,47.644,68.3,47.6,68,47.6h-0.225H67.55h-0.225H67.1v1v1v1V51.6z M67.8,45.8h-0.25H67.3h-0.25H66.8v-1.025V43.75v-1.025V41.7
	h0.275h0.275h0.275H67.9c0.25,0,0.475,0.038,0.672,0.112c0.197,0.075,0.366,0.188,0.503,0.338s0.244,0.338,0.316,0.562
	S69.5,43.2,69.5,43.5c0,0.175-0.006,0.338-0.02,0.489c-0.014,0.152-0.036,0.292-0.068,0.423c-0.031,0.132-0.072,0.254-0.123,0.368
	S69.175,45,69.1,45.1c-0.075,0.125-0.156,0.231-0.245,0.32c-0.089,0.089-0.186,0.161-0.292,0.217
	c-0.106,0.056-0.222,0.097-0.349,0.124C68.088,45.787,67.95,45.8,67.8,45.8z M67.1,45.5h0.2h0.2h0.2h0.2
	c0.1,0,0.2-0.013,0.297-0.036c0.097-0.024,0.191-0.058,0.278-0.102c0.088-0.043,0.169-0.096,0.241-0.157S68.85,45.075,68.9,45
	c0.075-0.075,0.138-0.162,0.189-0.263c0.051-0.1,0.092-0.212,0.123-0.337s0.053-0.263,0.067-0.412
	c0.014-0.15,0.021-0.312,0.021-0.488c0-0.275-0.025-0.513-0.076-0.714s-0.13-0.367-0.235-0.498s-0.241-0.228-0.405-0.292
	C68.419,41.931,68.225,41.9,68,41.9h-0.225H67.55h-0.225H67.1v0.9v0.9v0.9V45.5z"/>
<path d="M77.4,53.5h-1.15H75.1h-1.15H72.8v-3.35V46.8v-3.35V40.1h0.35h0.35h0.35h0.35v2.875v2.875v2.875V51.6H75h0.8h0.8h0.8v0.475
	v0.475v0.475L77.4,53.5L77.4,53.5L77.4,53.5z"/>
<path style="fill:#FFFFFF;" d="M77.5,53.6h-1.225H75.05h-1.225H72.6v-3.425V46.75v-3.425V39.9H73h0.4h0.4h0.4v2.875v2.875v2.875
	V51.4H75h0.8h0.8h0.8v0.55v0.55v0.55v0.55h0.025h0.025h0.025H77.5z M72.9,53.3H74h1.1h1.1h1.1v-0.4v-0.4v-0.4v-0.4h-0.825H75.65
	h-0.825H74v-2.875V45.95v-2.875V40.2h-0.275H73.45h-0.275H72.9v3.275v3.275v3.275V53.3z"/>
<path d="M83.3,53.5h-1.175H80.95h-1.175H78.6v-3.35V46.8v-3.35V40.1h1.125h1.125h1.125H83.1v0.475v0.475v0.475V42h-0.775H81.55
	h-0.775H80v0.95v0.95v0.95v0.95h0.725h0.725h0.725H82.9v0.475v0.475v0.475V47.7h-0.725H81.45h-0.725H80v1v1v1v1h0.825h0.825h0.825
	H83.3v0.45v0.45v0.45V53.5z"/>
<path style="fill:#FFFFFF;" d="M83.4,53.6h-1.225H80.95h-1.225H78.5v-3.425V46.75v-3.425V39.9h1.2h1.2h1.2h1.2v0.525v0.525v0.525V42
	h-0.775H81.75h-0.775H80.2v0.875v0.875v0.875V45.5h0.7h0.7h0.7H83v0.525v0.525v0.525V47.6h-0.725H81.55h-0.725H80.1v0.925v0.925
	v0.925V51.3h0.825h0.825h0.825H83.4v0.575v0.575v0.575V53.6z M78.7,53.3h1.1h1.1H82h1.1v-0.4v-0.4v-0.4v-0.4h-0.825H81.45h-0.825
	H79.8v-1.05V49.6v-1.05V47.5h0.725h0.725h0.725H82.7v-0.4v-0.4v-0.4v-0.4h-0.725H81.25h-0.725H79.8v-1v-1v-1v-1h0.8h0.8h0.8H83v-0.4
	v-0.4v-0.4v-0.4h-1.075H80.85h-1.075H78.7v3.25v3.25v3.25V53.3z"/>
<path d="M19.8,67.6v-0.525V66.55v-0.525V65.5c0.05,0.05,0.1,0.094,0.152,0.134s0.104,0.078,0.16,0.116s0.115,0.075,0.18,0.116
	C20.356,65.906,20.425,65.95,20.5,66c0.075,0.025,0.15,0.056,0.225,0.091c0.075,0.034,0.15,0.072,0.225,0.109
	s0.15,0.075,0.225,0.109c0.075,0.034,0.15,0.066,0.225,0.091s0.15,0.05,0.225,0.073s0.15,0.045,0.225,0.064
	c0.075,0.019,0.15,0.035,0.225,0.046c0.075,0.011,0.15,0.017,0.225,0.017c0.075,0.025,0.15,0.044,0.223,0.058
	s0.146,0.024,0.215,0.03c0.069,0.006,0.134,0.009,0.195,0.01C22.994,66.7,23.05,66.7,23.1,66.7c0.225,0,0.438-0.006,0.636-0.02
	c0.199-0.014,0.383-0.036,0.552-0.068s0.322-0.072,0.458-0.123S25,66.375,25.1,66.3s0.194-0.156,0.278-0.245
	s0.159-0.186,0.222-0.292c0.062-0.106,0.112-0.222,0.147-0.349C25.781,65.288,25.8,65.15,25.8,65c0-0.075-0.006-0.15-0.017-0.224
	c-0.011-0.074-0.026-0.146-0.045-0.215c-0.019-0.068-0.041-0.134-0.064-0.195S25.625,64.25,25.6,64.2s-0.056-0.1-0.094-0.15
	c-0.038-0.05-0.081-0.1-0.131-0.15s-0.106-0.1-0.169-0.15c-0.062-0.05-0.131-0.1-0.206-0.15s-0.15-0.1-0.225-0.148
	c-0.075-0.048-0.15-0.095-0.225-0.139s-0.15-0.084-0.225-0.12s-0.15-0.068-0.225-0.093c-0.1-0.05-0.194-0.094-0.284-0.134
	c-0.091-0.041-0.178-0.078-0.266-0.116s-0.175-0.075-0.266-0.116C23.194,62.694,23.1,62.65,23,62.6s-0.2-0.106-0.3-0.166
	c-0.1-0.059-0.2-0.122-0.3-0.184s-0.2-0.125-0.3-0.184s-0.2-0.116-0.3-0.166s-0.194-0.106-0.283-0.167s-0.174-0.126-0.255-0.195
	c-0.081-0.069-0.159-0.141-0.235-0.215S20.875,61.175,20.8,61.1s-0.144-0.15-0.208-0.227s-0.123-0.154-0.179-0.236
	c-0.057-0.082-0.11-0.166-0.161-0.255S20.15,60.2,20.1,60.1s-0.087-0.2-0.116-0.302c-0.028-0.101-0.047-0.204-0.059-0.31
	c-0.013-0.106-0.019-0.216-0.022-0.33C19.9,59.044,19.9,58.925,19.9,58.8c0-0.15,0.006-0.294,0.02-0.431s0.036-0.269,0.067-0.394
	s0.072-0.244,0.124-0.356S20.225,57.4,20.3,57.3s0.15-0.2,0.228-0.299s0.159-0.195,0.247-0.29c0.087-0.093,0.181-0.184,0.284-0.27
	c0.103-0.086,0.216-0.167,0.341-0.242c0.1-0.075,0.206-0.144,0.319-0.206s0.231-0.119,0.356-0.169s0.256-0.094,0.394-0.131
	c0.138-0.038,0.281-0.069,0.431-0.094s0.294-0.05,0.434-0.073c0.141-0.024,0.278-0.046,0.416-0.065
	c0.138-0.018,0.275-0.034,0.416-0.045S24.45,55.4,24.6,55.4c0.325,0,0.631,0.006,0.917,0.02s0.551,0.036,0.795,0.068
	s0.465,0.072,0.664,0.123c0.199,0.051,0.374,0.114,0.524,0.189v0.525v0.525v0.525V57.9c-0.175-0.125-0.369-0.237-0.578-0.336
	c-0.209-0.098-0.434-0.183-0.672-0.252c-0.237-0.069-0.487-0.122-0.747-0.157C25.244,57.119,24.975,57.1,24.7,57.1
	c-0.075,0-0.15,0-0.225,0.002c-0.075,0.002-0.15,0.005-0.225,0.011c-0.075,0.006-0.15,0.015-0.225,0.029
	c-0.075,0.014-0.15,0.033-0.225,0.058s-0.15,0.05-0.223,0.075c-0.074,0.025-0.146,0.05-0.215,0.075
	c-0.069,0.025-0.134,0.05-0.195,0.075C23.106,57.45,23.05,57.475,23,57.5s-0.1,0.056-0.15,0.092c-0.05,0.036-0.1,0.076-0.15,0.12
	c-0.05,0.044-0.1,0.091-0.15,0.139C22.5,57.9,22.45,57.95,22.4,58s-0.087,0.106-0.116,0.167c-0.028,0.061-0.047,0.126-0.059,0.195
	s-0.019,0.141-0.022,0.214C22.2,58.65,22.2,58.725,22.2,58.8s0.006,0.144,0.017,0.208c0.011,0.064,0.026,0.124,0.045,0.18
	c0.019,0.056,0.041,0.109,0.064,0.16C22.35,59.4,22.375,59.45,22.4,59.5s0.056,0.1,0.092,0.15c0.036,0.05,0.076,0.1,0.12,0.15
	c0.044,0.05,0.091,0.1,0.139,0.15s0.098,0.1,0.149,0.15s0.106,0.094,0.167,0.134c0.061,0.041,0.126,0.078,0.195,0.116
	c0.069,0.037,0.141,0.075,0.215,0.116c0.073,0.041,0.149,0.084,0.224,0.134s0.156,0.094,0.242,0.134
	c0.086,0.041,0.177,0.078,0.271,0.116s0.191,0.075,0.289,0.116C24.6,61.006,24.7,61.05,24.8,61.1s0.206,0.106,0.316,0.166
	s0.222,0.122,0.334,0.184s0.225,0.125,0.334,0.184S26,61.75,26.1,61.8s0.194,0.106,0.283,0.167c0.089,0.061,0.174,0.126,0.255,0.195
	c0.081,0.069,0.159,0.141,0.236,0.215c0.076,0.074,0.152,0.149,0.226,0.223s0.144,0.15,0.208,0.226
	c0.064,0.077,0.123,0.155,0.179,0.236c0.056,0.082,0.11,0.166,0.161,0.255C27.7,63.406,27.75,63.5,27.8,63.6s0.094,0.2,0.131,0.302
	c0.038,0.102,0.069,0.205,0.094,0.311s0.044,0.216,0.056,0.33c0.012,0.114,0.019,0.232,0.019,0.357c0,0.15-0.006,0.3-0.02,0.447
	s-0.036,0.291-0.067,0.428c-0.031,0.138-0.072,0.269-0.124,0.391C27.838,66.288,27.775,66.4,27.7,66.5s-0.15,0.2-0.228,0.299
	s-0.159,0.196-0.247,0.289c-0.087,0.094-0.181,0.184-0.284,0.27c-0.103,0.086-0.216,0.167-0.341,0.242
	c-0.1,0.075-0.212,0.144-0.333,0.206s-0.248,0.119-0.379,0.169s-0.265,0.094-0.399,0.131c-0.133,0.038-0.264,0.069-0.389,0.094
	c-0.15,0.025-0.3,0.05-0.45,0.073c-0.15,0.023-0.3,0.045-0.45,0.064s-0.3,0.034-0.45,0.045c-0.15,0.011-0.3,0.017-0.45,0.017
	c-0.05,0-0.106,0-0.167,0c-0.061,0-0.127,0-0.196,0c-0.069,0-0.14,0-0.214,0s-0.148,0-0.223,0s-0.15-0.006-0.226-0.016
	s-0.155-0.022-0.236-0.034c-0.081-0.012-0.166-0.024-0.255-0.033S21.6,68.3,21.5,68.3c-0.075-0.025-0.15-0.044-0.225-0.059
	c-0.075-0.016-0.15-0.028-0.225-0.041s-0.15-0.025-0.225-0.041c-0.075-0.016-0.15-0.034-0.225-0.059
	c-0.1-0.075-0.194-0.137-0.28-0.191c-0.086-0.053-0.164-0.097-0.232-0.134c-0.069-0.038-0.128-0.069-0.177-0.097
	C19.862,67.65,19.825,67.625,19.8,67.6z"/>
<path style="fill:#FFFFFF;" d="M23.1,68.4c-0.05,0-0.106,0-0.167,0c-0.061,0-0.127,0-0.196,0c-0.069,0-0.14,0-0.214,0
	s-0.148,0-0.223,0s-0.15-0.006-0.226-0.016s-0.155-0.022-0.236-0.034c-0.081-0.013-0.166-0.025-0.255-0.034
	C21.494,68.306,21.4,68.3,21.3,68.3c-0.075-0.025-0.15-0.044-0.225-0.059C21,68.225,20.925,68.213,20.85,68.2
	s-0.15-0.025-0.225-0.041c-0.075-0.016-0.15-0.034-0.225-0.059s-0.144-0.05-0.208-0.075c-0.064-0.025-0.124-0.05-0.18-0.075
	c-0.056-0.025-0.109-0.05-0.16-0.075S19.75,67.825,19.7,67.8h-0.025H19.65h-0.025H19.6v-0.625V66.55v-0.625V65.3l0.05,0.05
	l0.05,0.05l0.05,0.05l0.05,0.05c0.05,0.05,0.1,0.094,0.152,0.134s0.104,0.078,0.16,0.116c0.056,0.037,0.116,0.075,0.18,0.116
	S20.425,65.95,20.5,66c0.075,0.025,0.144,0.056,0.209,0.089c0.066,0.033,0.128,0.067,0.191,0.099s0.125,0.06,0.191,0.08
	c0.066,0.02,0.134,0.033,0.209,0.033c0.075,0.025,0.15,0.05,0.225,0.073c0.075,0.023,0.15,0.045,0.225,0.064s0.15,0.034,0.225,0.045
	c0.075,0.011,0.15,0.017,0.225,0.017c0.075,0.025,0.15,0.044,0.223,0.058c0.073,0.014,0.146,0.024,0.215,0.03
	c0.069,0.006,0.134,0.009,0.195,0.01C22.894,66.6,22.95,66.6,23,66.6c0.225,0,0.431-0.006,0.62-0.02
	c0.189-0.014,0.361-0.036,0.518-0.068s0.297-0.072,0.423-0.123c0.126-0.051,0.239-0.114,0.339-0.189s0.188-0.15,0.262-0.23
	c0.075-0.08,0.138-0.164,0.188-0.258s0.087-0.197,0.112-0.314S25.5,65.15,25.5,65c0-0.075-0.006-0.144-0.017-0.208
	c-0.011-0.064-0.026-0.123-0.045-0.179c-0.019-0.056-0.041-0.11-0.064-0.161C25.35,64.4,25.325,64.35,25.3,64.3
	s-0.056-0.1-0.094-0.15c-0.038-0.05-0.081-0.1-0.131-0.15c-0.05-0.05-0.106-0.1-0.169-0.15c-0.062-0.05-0.131-0.1-0.206-0.15
	s-0.15-0.094-0.225-0.134c-0.075-0.041-0.15-0.078-0.225-0.116c-0.075-0.038-0.15-0.075-0.225-0.116
	c-0.075-0.041-0.15-0.084-0.225-0.134c-0.1-0.05-0.194-0.094-0.284-0.134c-0.091-0.041-0.178-0.078-0.266-0.116
	s-0.175-0.075-0.266-0.116C22.894,62.794,22.8,62.75,22.7,62.7s-0.206-0.106-0.314-0.166c-0.108-0.059-0.217-0.122-0.323-0.184
	c-0.106-0.063-0.21-0.125-0.305-0.184S21.575,62.05,21.5,62c-0.1-0.05-0.194-0.106-0.283-0.167s-0.174-0.126-0.255-0.195
	c-0.081-0.069-0.159-0.141-0.236-0.215S20.575,61.275,20.5,61.2s-0.144-0.15-0.208-0.226c-0.064-0.076-0.123-0.155-0.179-0.236
	c-0.057-0.081-0.11-0.166-0.161-0.255C19.9,60.394,19.85,60.3,19.8,60.2s-0.087-0.2-0.116-0.302
	c-0.028-0.101-0.047-0.204-0.059-0.31c-0.013-0.107-0.019-0.216-0.022-0.33C19.6,59.144,19.6,59.025,19.6,58.9
	c0-0.15,0.006-0.294,0.02-0.433s0.036-0.273,0.067-0.404c0.031-0.132,0.072-0.26,0.124-0.386S19.925,57.425,20,57.3
	c0.075-0.1,0.156-0.2,0.242-0.299s0.177-0.195,0.271-0.29c0.094-0.093,0.19-0.184,0.289-0.27C20.9,56.356,21,56.275,21.1,56.2
	c0.125-0.075,0.25-0.144,0.375-0.206s0.25-0.119,0.375-0.169s0.25-0.094,0.375-0.131c0.125-0.038,0.25-0.069,0.375-0.094
	c0.15-0.025,0.3-0.05,0.45-0.073c0.15-0.024,0.3-0.046,0.45-0.065c0.15-0.018,0.3-0.034,0.45-0.045c0.15-0.011,0.3-0.017,0.45-0.017
	c0.35,0,0.669,0.006,0.961,0.022c0.292,0.016,0.558,0.041,0.801,0.078c0.244,0.037,0.466,0.088,0.671,0.153S27.225,55.8,27.4,55.9
	h0.025h0.025h0.025H27.5v0.525v0.525v0.525V58l-0.05-0.025L27.4,57.95l-0.05-0.025L27.3,57.9c-0.175-0.125-0.363-0.231-0.562-0.32
	c-0.2-0.089-0.413-0.161-0.638-0.217c-0.225-0.056-0.462-0.097-0.712-0.124c-0.25-0.027-0.513-0.039-0.788-0.039
	c-0.075,0-0.15,0-0.225,0.002c-0.075,0.002-0.15,0.005-0.225,0.011c-0.075,0.006-0.15,0.015-0.225,0.029
	c-0.075,0.014-0.15,0.033-0.225,0.058s-0.15,0.044-0.223,0.061s-0.146,0.033-0.215,0.051c-0.069,0.019-0.134,0.041-0.195,0.071
	S22.95,57.55,22.9,57.6c-0.05,0.025-0.1,0.056-0.15,0.092c-0.05,0.036-0.1,0.076-0.15,0.12c-0.05,0.044-0.1,0.091-0.15,0.139
	C22.4,58,22.35,58.05,22.3,58.1c-0.025,0.05-0.05,0.1-0.073,0.152c-0.024,0.051-0.045,0.104-0.065,0.16
	c-0.018,0.056-0.034,0.116-0.045,0.18C22.106,58.656,22.1,58.725,22.1,58.8s0.006,0.144,0.017,0.208
	c0.011,0.064,0.026,0.124,0.045,0.18c0.019,0.056,0.041,0.109,0.064,0.16C22.25,59.4,22.275,59.45,22.3,59.5s0.056,0.1,0.092,0.148
	s0.076,0.096,0.12,0.139c0.044,0.043,0.091,0.084,0.14,0.12S22.75,59.975,22.8,60c0.05,0.05,0.106,0.094,0.167,0.134
	c0.061,0.041,0.126,0.078,0.195,0.116c0.069,0.037,0.141,0.075,0.215,0.116c0.074,0.041,0.149,0.084,0.224,0.134
	s0.156,0.094,0.242,0.134c0.086,0.041,0.177,0.078,0.271,0.116s0.191,0.075,0.289,0.116C24.5,60.906,24.6,60.95,24.7,61
	c0.125,0.05,0.244,0.106,0.358,0.166c0.114,0.059,0.224,0.122,0.33,0.184s0.209,0.125,0.311,0.184C25.8,61.594,25.9,61.65,26,61.7
	c0.1,0.075,0.2,0.144,0.298,0.209c0.098,0.066,0.195,0.128,0.289,0.191s0.184,0.125,0.27,0.191c0.086,0.066,0.167,0.134,0.243,0.209
	c0.075,0.075,0.15,0.156,0.222,0.241c0.072,0.084,0.141,0.172,0.203,0.259s0.119,0.175,0.166,0.259
	c0.047,0.084,0.084,0.166,0.109,0.241c0.05,0.1,0.094,0.2,0.131,0.302c0.038,0.102,0.069,0.205,0.094,0.311s0.044,0.216,0.056,0.33
	c0.013,0.114,0.019,0.233,0.019,0.358c0,0.175-0.006,0.338-0.02,0.491c-0.014,0.153-0.036,0.297-0.067,0.434
	s-0.072,0.268-0.124,0.396c-0.052,0.128-0.114,0.253-0.189,0.378s-0.15,0.238-0.228,0.341c-0.078,0.103-0.159,0.197-0.247,0.284
	s-0.181,0.169-0.284,0.247c-0.103,0.078-0.216,0.153-0.341,0.228s-0.25,0.144-0.377,0.206s-0.255,0.119-0.386,0.169
	c-0.131,0.05-0.265,0.094-0.404,0.131C25.294,68.144,25.15,68.175,25,68.2c-0.15,0.025-0.3,0.05-0.451,0.074
	s-0.305,0.046-0.461,0.064c-0.156,0.019-0.316,0.034-0.48,0.045C23.444,68.394,23.275,68.4,23.1,68.4z M19.9,67.5
	c0.05,0.025,0.1,0.05,0.15,0.073c0.05,0.023,0.1,0.045,0.15,0.064c0.05,0.019,0.1,0.034,0.15,0.045c0.05,0.011,0.1,0.017,0.15,0.017
	c0.075,0.025,0.15,0.05,0.225,0.073c0.075,0.023,0.15,0.045,0.225,0.064c0.075,0.019,0.15,0.034,0.225,0.045
	c0.075,0.011,0.15,0.017,0.225,0.017c0.075,0.025,0.15,0.044,0.225,0.058c0.075,0.014,0.15,0.024,0.225,0.03
	c0.075,0.007,0.15,0.011,0.225,0.012C22.15,68,22.225,68,22.3,68s0.15,0,0.223,0s0.146,0,0.215,0s0.135,0,0.195,0
	c0.061,0,0.117,0,0.167,0c0.15,0,0.3-0.006,0.45-0.017c0.15-0.011,0.3-0.026,0.45-0.045c0.15-0.019,0.3-0.04,0.45-0.064
	c0.15-0.023,0.3-0.049,0.45-0.073s0.294-0.056,0.431-0.093s0.269-0.082,0.394-0.132s0.244-0.106,0.356-0.169
	c0.112-0.062,0.219-0.131,0.319-0.206s0.2-0.15,0.297-0.227c0.097-0.077,0.191-0.155,0.278-0.236
	c0.087-0.082,0.169-0.166,0.241-0.255C27.287,66.394,27.35,66.3,27.4,66.2s0.1-0.206,0.147-0.319
	c0.047-0.112,0.091-0.231,0.128-0.356c0.038-0.125,0.069-0.256,0.091-0.394C27.787,64.994,27.8,64.85,27.8,64.7
	c0-0.125-0.006-0.244-0.019-0.356c-0.013-0.113-0.031-0.219-0.056-0.319c-0.025-0.1-0.056-0.194-0.094-0.281S27.55,63.575,27.5,63.5
	c-0.05-0.1-0.1-0.194-0.152-0.283s-0.104-0.174-0.16-0.255c-0.056-0.081-0.116-0.159-0.18-0.235
	c-0.064-0.076-0.133-0.152-0.208-0.227s-0.15-0.15-0.226-0.223c-0.076-0.074-0.155-0.146-0.236-0.215s-0.166-0.135-0.255-0.195
	C25.994,61.806,25.9,61.75,25.8,61.7s-0.2-0.106-0.302-0.166c-0.101-0.059-0.205-0.122-0.31-0.184s-0.215-0.125-0.33-0.184
	S24.625,61.05,24.5,61c-0.1-0.05-0.2-0.1-0.298-0.148c-0.098-0.049-0.195-0.096-0.289-0.139c-0.094-0.043-0.185-0.084-0.271-0.12
	S23.475,60.525,23.4,60.5c-0.075-0.05-0.15-0.094-0.225-0.134c-0.075-0.041-0.15-0.078-0.225-0.116
	c-0.075-0.037-0.15-0.075-0.225-0.116C22.65,60.094,22.575,60.05,22.5,60c-0.05-0.05-0.1-0.1-0.15-0.15
	c-0.05-0.05-0.1-0.1-0.15-0.15c-0.05-0.05-0.1-0.1-0.15-0.15c-0.05-0.05-0.1-0.1-0.15-0.15c-0.025-0.05-0.05-0.106-0.073-0.167
	s-0.046-0.126-0.065-0.195c-0.018-0.069-0.034-0.141-0.045-0.215C21.706,58.75,21.7,58.675,21.7,58.6s0.006-0.15,0.019-0.223
	c0.013-0.074,0.031-0.146,0.056-0.215c0.025-0.069,0.056-0.134,0.094-0.195C21.906,57.906,21.95,57.85,22,57.8s0.1-0.1,0.15-0.15
	c0.05-0.05,0.1-0.1,0.15-0.15s0.1-0.1,0.15-0.15c0.05-0.05,0.1-0.1,0.15-0.15c0.075-0.025,0.144-0.05,0.211-0.075
	c0.067-0.025,0.133-0.05,0.202-0.075c0.069-0.025,0.14-0.05,0.22-0.075c0.08-0.025,0.167-0.05,0.267-0.075
	c0.075-0.025,0.15-0.044,0.226-0.058s0.155-0.023,0.236-0.029s0.166-0.009,0.255-0.011C24.306,56.8,24.4,56.8,24.5,56.8
	c0.275,0,0.537,0.013,0.787,0.039c0.25,0.027,0.488,0.067,0.713,0.123c0.225,0.056,0.438,0.128,0.638,0.218
	c0.2,0.089,0.388,0.195,0.562,0.32v-0.425V56.65v-0.425V55.8c-0.15-0.075-0.319-0.138-0.508-0.189
	c-0.189-0.052-0.399-0.092-0.63-0.123c-0.231-0.032-0.484-0.053-0.76-0.068c-0.277-0.014-0.577-0.02-0.902-0.02
	c-0.15,0-0.294,0.006-0.434,0.017c-0.141,0.011-0.278,0.026-0.416,0.045s-0.275,0.041-0.416,0.064
	C22.994,55.55,22.85,55.575,22.7,55.6c-0.125,0.025-0.25,0.056-0.375,0.094s-0.25,0.081-0.375,0.131s-0.25,0.106-0.375,0.169
	s-0.25,0.131-0.375,0.206c-0.1,0.075-0.2,0.15-0.297,0.227s-0.191,0.154-0.278,0.236c-0.087,0.082-0.169,0.166-0.241,0.255
	C20.312,57.006,20.25,57.1,20.2,57.2c-0.075,0.1-0.138,0.206-0.189,0.319c-0.052,0.112-0.092,0.231-0.123,0.356
	s-0.053,0.256-0.067,0.394S19.8,58.55,19.8,58.7c0,0.125,0.006,0.244,0.017,0.356c0.011,0.112,0.026,0.219,0.045,0.319
	c0.019,0.1,0.041,0.194,0.065,0.281S19.975,59.825,20,59.9s0.062,0.15,0.108,0.225c0.045,0.075,0.099,0.15,0.155,0.225
	c0.056,0.075,0.115,0.15,0.173,0.225c0.058,0.075,0.114,0.15,0.164,0.225c0.075,0.075,0.15,0.144,0.226,0.209
	s0.154,0.128,0.236,0.191s0.165,0.125,0.254,0.191S21.5,61.525,21.6,61.6c0.1,0.05,0.2,0.106,0.3,0.166
	c0.1,0.059,0.2,0.122,0.3,0.184s0.2,0.125,0.3,0.184c0.1,0.059,0.2,0.116,0.3,0.166s0.2,0.1,0.298,0.148
	c0.098,0.049,0.195,0.096,0.289,0.139c0.094,0.043,0.185,0.084,0.271,0.12c0.086,0.036,0.167,0.067,0.242,0.092
	c0.1,0.05,0.194,0.094,0.281,0.134c0.087,0.041,0.169,0.078,0.244,0.116s0.144,0.075,0.206,0.116
	c0.062,0.041,0.119,0.084,0.169,0.134c0.075,0.05,0.144,0.1,0.206,0.15c0.062,0.05,0.119,0.1,0.169,0.15s0.094,0.1,0.131,0.15
	c0.037,0.05,0.069,0.1,0.094,0.15c0.05,0.05,0.087,0.106,0.116,0.167c0.028,0.061,0.047,0.126,0.059,0.195
	c0.013,0.069,0.019,0.141,0.022,0.215C25.6,64.55,25.6,64.625,25.6,64.7c0,0.15-0.012,0.294-0.039,0.43
	c-0.027,0.136-0.067,0.264-0.124,0.382c-0.056,0.119-0.128,0.229-0.217,0.327c-0.089,0.099-0.195,0.186-0.32,0.261
	s-0.256,0.144-0.399,0.205c-0.142,0.061-0.295,0.114-0.465,0.158c-0.168,0.044-0.353,0.078-0.557,0.101
	c-0.205,0.023-0.43,0.036-0.68,0.036c-0.075,0-0.15,0-0.225-0.002c-0.075-0.001-0.15-0.005-0.225-0.01
	c-0.075-0.007-0.15-0.016-0.225-0.03c-0.075-0.014-0.15-0.033-0.225-0.058s-0.15-0.044-0.225-0.059s-0.15-0.028-0.225-0.041
	s-0.15-0.025-0.225-0.041C21.15,66.344,21.075,66.325,21,66.3s-0.15-0.05-0.225-0.076c-0.075-0.026-0.15-0.054-0.225-0.086
	c-0.075-0.032-0.15-0.066-0.225-0.105S20.175,65.95,20.1,65.9c-0.05-0.025-0.1-0.05-0.149-0.075
	c-0.049-0.025-0.096-0.05-0.139-0.075c-0.043-0.025-0.084-0.05-0.12-0.075c-0.036-0.025-0.067-0.05-0.092-0.075v0.475v0.475v0.475
	V67.5h0.075h0.075c0,0,0.038,0,0.075,0C19.862,67.5,19.9,67.5,19.9,67.5z"/>
<path d="M35.6,68.3c-0.45,0-0.881-0.037-1.292-0.113c-0.411-0.075-0.801-0.188-1.17-0.337c-0.369-0.15-0.716-0.338-1.04-0.563
	C31.775,67.062,31.475,66.8,31.2,66.5s-0.519-0.619-0.73-0.958c-0.211-0.339-0.389-0.698-0.533-1.079
	c-0.144-0.382-0.253-0.785-0.326-1.211C29.538,62.825,29.5,62.375,29.5,61.9c0-0.5,0.038-0.975,0.111-1.425s0.183-0.875,0.327-1.275
	s0.322-0.775,0.533-1.125c0.211-0.35,0.455-0.675,0.73-0.975s0.582-0.562,0.916-0.787c0.334-0.225,0.696-0.413,1.084-0.562
	s0.8-0.263,1.234-0.338s0.891-0.112,1.366-0.112c0.45,0,0.875,0.037,1.277,0.112s0.779,0.188,1.135,0.338
	c0.356,0.15,0.691,0.337,1.005,0.562c0.314,0.225,0.608,0.487,0.883,0.787s0.513,0.619,0.714,0.958s0.367,0.699,0.498,1.08
	c0.131,0.381,0.228,0.784,0.292,1.21c0.064,0.427,0.095,0.876,0.095,1.352c0,0.5-0.038,0.981-0.111,1.441
	c-0.074,0.459-0.183,0.897-0.327,1.309c-0.144,0.413-0.322,0.8-0.532,1.159C40.519,65.969,40.275,66.3,40,66.6
	c-0.275,0.275-0.575,0.519-0.898,0.73c-0.323,0.211-0.67,0.389-1.039,0.533c-0.369,0.144-0.76,0.253-1.171,0.326
	C36.481,68.263,36.05,68.3,35.6,68.3z M35.7,57.1c-0.3,0-0.581,0.025-0.847,0.076s-0.516,0.13-0.753,0.236
	c-0.237,0.107-0.462,0.241-0.678,0.405S33,58.174,32.8,58.399c-0.175,0.225-0.331,0.463-0.467,0.714s-0.251,0.517-0.345,0.799
	c-0.094,0.281-0.166,0.578-0.214,0.893S31.7,61.45,31.7,61.8s0.025,0.681,0.073,0.995s0.121,0.611,0.215,0.893
	s0.21,0.547,0.345,0.798s0.292,0.489,0.467,0.714s0.362,0.419,0.564,0.583c0.201,0.164,0.417,0.299,0.648,0.405
	c0.231,0.106,0.479,0.184,0.743,0.236C35.019,66.475,35.3,66.5,35.6,66.5s0.588-0.025,0.861-0.075
	c0.273-0.05,0.533-0.125,0.777-0.225c0.243-0.1,0.472-0.225,0.683-0.375s0.405-0.325,0.58-0.525c0.175-0.2,0.331-0.419,0.467-0.658
	c0.136-0.239,0.251-0.499,0.345-0.78s0.165-0.584,0.214-0.911S39.6,62.275,39.6,61.9s-0.019-0.731-0.058-1.067
	c-0.039-0.336-0.098-0.652-0.179-0.946c-0.081-0.294-0.185-0.565-0.311-0.814S38.775,58.6,38.6,58.4s-0.369-0.381-0.58-0.541
	c-0.211-0.159-0.439-0.297-0.682-0.409c-0.244-0.112-0.503-0.2-0.777-0.259C36.287,57.131,36,57.1,35.7,57.1z"/>
<path style="fill:#FFFFFF;" d="M35.6,68.4c-0.475,0-0.925-0.037-1.35-0.113c-0.425-0.075-0.825-0.187-1.2-0.337
	s-0.725-0.338-1.05-0.562S31.375,66.9,31.1,66.6s-0.519-0.625-0.73-0.974c-0.211-0.348-0.389-0.72-0.533-1.114
	c-0.143-0.394-0.253-0.809-0.326-1.245C29.438,62.831,29.4,62.375,29.4,61.9c0-0.5,0.038-0.981,0.111-1.441
	c0.073-0.459,0.183-0.897,0.327-1.309s0.322-0.8,0.533-1.159C30.581,57.631,30.825,57.3,31.1,57s0.581-0.562,0.917-0.787
	s0.702-0.412,1.096-0.562c0.394-0.15,0.815-0.263,1.264-0.338S35.3,55.2,35.8,55.2c0.45,0,0.881,0.038,1.292,0.112
	c0.411,0.075,0.801,0.188,1.17,0.338c0.369,0.15,0.716,0.338,1.04,0.562C39.625,56.438,39.925,56.7,40.2,57s0.519,0.625,0.73,0.973
	c0.211,0.348,0.389,0.721,0.533,1.115c0.143,0.393,0.253,0.809,0.326,1.245S41.9,61.225,41.9,61.7c0,0.525-0.037,1.019-0.111,1.483
	s-0.183,0.898-0.327,1.304s-0.322,0.784-0.533,1.136C40.719,65.975,40.475,66.3,40.2,66.6c-0.3,0.3-0.619,0.562-0.958,0.787
	c-0.339,0.225-0.699,0.413-1.08,0.562c-0.381,0.15-0.784,0.263-1.211,0.338C36.525,68.363,36.075,68.4,35.6,68.4z M35.8,55.4
	c-0.475,0-0.925,0.037-1.35,0.112s-0.825,0.188-1.2,0.338s-0.725,0.337-1.05,0.562c-0.325,0.225-0.625,0.487-0.9,0.787
	s-0.519,0.625-0.73,0.973c-0.211,0.348-0.389,0.721-0.533,1.115c-0.143,0.394-0.253,0.809-0.326,1.245
	C29.638,60.969,29.6,61.425,29.6,61.9c0,0.45,0.031,0.881,0.095,1.294c0.064,0.412,0.161,0.806,0.293,1.181
	c0.131,0.375,0.296,0.731,0.498,1.069S30.925,66.1,31.2,66.4c0.275,0.275,0.569,0.519,0.883,0.73
	c0.314,0.211,0.648,0.389,1.004,0.532c0.356,0.144,0.735,0.253,1.136,0.327C34.625,68.062,35.05,68.1,35.5,68.1
	s0.881-0.037,1.292-0.111c0.411-0.074,0.802-0.183,1.171-0.327c0.368-0.144,0.715-0.321,1.039-0.532s0.623-0.455,0.898-0.73
	c0.275-0.3,0.519-0.625,0.73-0.975c0.211-0.35,0.389-0.725,0.533-1.125c0.144-0.4,0.253-0.825,0.327-1.275
	c0.074-0.45,0.111-0.925,0.111-1.425c0-0.45-0.031-0.888-0.095-1.308s-0.161-0.824-0.293-1.205c-0.132-0.381-0.297-0.74-0.499-1.073
	C40.513,57.681,40.275,57.375,40,57.1c-0.25-0.275-0.531-0.519-0.839-0.73c-0.308-0.211-0.642-0.389-0.999-0.533
	c-0.356-0.144-0.734-0.253-1.129-0.326C36.638,55.438,36.225,55.4,35.8,55.4z M35.6,66.6c-0.3,0-0.588-0.025-0.861-0.076
	s-0.533-0.13-0.777-0.235s-0.472-0.241-0.683-0.405c-0.211-0.164-0.404-0.358-0.579-0.583s-0.331-0.462-0.467-0.714
	c-0.136-0.252-0.251-0.517-0.345-0.799c-0.094-0.281-0.166-0.578-0.215-0.892C31.625,62.581,31.6,62.25,31.6,61.9
	s0.025-0.688,0.073-1.011c0.049-0.324,0.121-0.633,0.215-0.927s0.209-0.572,0.345-0.833s0.292-0.504,0.467-0.729
	c0.2-0.225,0.406-0.419,0.623-0.583c0.217-0.164,0.445-0.298,0.689-0.404c0.244-0.106,0.503-0.185,0.783-0.236
	S35.375,57.1,35.7,57.1c0.3,0,0.587,0.025,0.861,0.076s0.533,0.13,0.777,0.236c0.243,0.107,0.472,0.241,0.683,0.405
	c0.211,0.164,0.405,0.358,0.58,0.582c0.175,0.2,0.331,0.425,0.467,0.675s0.251,0.525,0.345,0.825s0.165,0.625,0.214,0.976
	C39.675,61.225,39.7,61.6,39.7,62c0,0.375-0.025,0.731-0.073,1.067c-0.048,0.336-0.12,0.651-0.214,0.945
	c-0.094,0.294-0.21,0.566-0.346,0.814C38.931,65.075,38.775,65.3,38.6,65.5c-0.2,0.15-0.412,0.294-0.638,0.425
	c-0.225,0.131-0.462,0.25-0.712,0.35s-0.513,0.181-0.787,0.237C36.188,66.569,35.9,66.6,35.6,66.6z M35.7,57.3
	c-0.275,0-0.544,0.025-0.803,0.075c-0.259,0.05-0.509,0.125-0.747,0.225s-0.463,0.225-0.672,0.375S33.075,58.3,32.9,58.5
	s-0.331,0.419-0.467,0.656s-0.251,0.494-0.345,0.769c-0.094,0.275-0.166,0.569-0.214,0.881S31.8,61.45,31.8,61.8
	s0.019,0.681,0.058,0.994s0.099,0.606,0.18,0.881c0.081,0.275,0.184,0.531,0.311,0.769c0.126,0.237,0.277,0.456,0.451,0.656
	s0.362,0.375,0.562,0.525C33.562,65.775,33.775,65.9,34,66s0.463,0.175,0.713,0.225c0.25,0.05,0.512,0.075,0.787,0.075
	c0.3,0,0.581-0.025,0.845-0.075c0.264-0.05,0.511-0.125,0.742-0.225c0.232-0.1,0.447-0.225,0.649-0.375
	c0.202-0.15,0.389-0.325,0.564-0.525s0.325-0.419,0.452-0.656c0.127-0.238,0.23-0.494,0.311-0.769
	c0.081-0.275,0.14-0.569,0.179-0.881C39.281,62.481,39.3,62.15,39.3,61.8c0-0.375-0.019-0.725-0.058-1.052s-0.098-0.63-0.179-0.91
	c-0.082-0.281-0.185-0.541-0.311-0.78C38.625,58.819,38.475,58.6,38.3,58.4c-0.125-0.2-0.281-0.369-0.463-0.509
	c-0.181-0.141-0.388-0.253-0.612-0.341s-0.469-0.15-0.725-0.191S35.975,57.3,35.7,57.3z"/>
<path d="M51.2,68.1h-1.775H47.65h-1.775H44.1v-3.15V61.8v-3.15V55.5h0.525h0.525h0.525H46.2v2.7v2.7v2.7v2.7h1.25h1.25h1.25h1.25
	v0.45v0.45c0,0,0,0.225,0,0.45S51.2,68.1,51.2,68.1z"/>
<path style="fill:#FFFFFF;" d="M51.3,68.2h-1.825H47.65h-1.825H44V65v-3.2v-3.2v-3.2h0.6h0.6h0.6h0.6v2.7v2.7v2.7v2.7h1.25h1.25
	h1.25h1.25v0.5v0.5v0.5v0.5h-0.025H51.35h-0.025H51.3z M44.2,67.9h1.7h1.7h1.7H51v-0.375V67.15v-0.375V66.4h-1.25H48.5h-1.25H46
	v-2.7V61v-2.7v-2.7h-0.475H45.05h-0.475H44.1v3.075v3.075v3.075V67.9h0.025h0.025h0.025H44.2z"/>
<path d="M55.2,68.1h-0.55H54.1h-0.55H53v-3.15V61.8v-3.15V55.5h0.55h0.55h0.55h0.55v3.15v3.15c0,0,0,1.575,0,3.15
	C55.2,66.525,55.2,68.1,55.2,68.1z"/>
<path style="fill:#FFFFFF;" d="M55.3,68.2h-0.6h-0.6h-0.6h-0.6V65v-3.2v-3.2v-3.2h0.6h0.6h0.6h0.6v3.2v3.2V65V68.2z M53.1,67.9
	h0.475h0.475h0.475H55v-3.075V61.75v-3.075V55.6h-0.475H54.05h-0.475H53.1v3.075v3.075v3.075V67.9z"/>
<path d="M58.3,68.1v-3.15V61.8v-3.15V55.5h0.925h0.925h0.925H62c1.175,0,2.206,0.125,3.092,0.377s1.626,0.63,2.22,1.136
	s1.04,1.141,1.339,1.905C68.95,59.681,69.1,60.575,69.1,61.6c0,0.475-0.044,0.931-0.13,1.367c-0.086,0.436-0.214,0.852-0.382,1.246
	c-0.169,0.394-0.378,0.765-0.627,1.114C67.713,65.675,67.425,66,67.1,66.3s-0.681,0.562-1.067,0.788
	c-0.386,0.225-0.801,0.412-1.245,0.562c-0.444,0.15-0.916,0.262-1.415,0.337C62.875,68.062,62.35,68.1,61.8,68.1h-0.875H60.05
	h-0.875H58.3z M60.5,57.3v2.25v2.25v2.25v2.25h0.425h0.425h0.425H62.2c0.375,0,0.731-0.025,1.067-0.075
	c0.336-0.05,0.652-0.125,0.946-0.225c0.294-0.1,0.566-0.225,0.814-0.375C65.276,65.475,65.5,65.3,65.7,65.1s0.374-0.419,0.525-0.658
	c0.15-0.239,0.275-0.499,0.375-0.78c0.1-0.281,0.175-0.584,0.225-0.911c0.05-0.327,0.075-0.677,0.075-1.052
	c0-0.725-0.094-1.362-0.283-1.911c-0.189-0.549-0.473-1.008-0.854-1.377c-0.382-0.368-0.86-0.646-1.436-0.831
	C63.75,57.394,63.075,57.3,62.3,57.3c0,0-0.112,0-0.281,0s-0.394,0-0.619,0s-0.45,0-0.619,0C60.612,57.3,60.5,57.3,60.5,57.3z"/>
<path style="fill:#FFFFFF;" d="M61.9,68.2h-0.925H60.05h-0.925H58.2V65v-3.2v-3.2v-3.2h0.95h0.95h0.95H62
	c1.2,0,2.25,0.131,3.15,0.392s1.65,0.651,2.25,1.17c0.6,0.519,1.05,1.166,1.35,1.94c0.3,0.774,0.45,1.674,0.45,2.699
	c0,0.5-0.044,0.975-0.13,1.425S68.856,63.9,68.688,64.3c-0.169,0.4-0.379,0.775-0.627,1.125S67.525,66.1,67.2,66.4
	s-0.681,0.562-1.067,0.787c-0.386,0.225-0.801,0.412-1.245,0.562c-0.444,0.15-0.916,0.263-1.415,0.338
	C62.975,68.162,62.45,68.2,61.9,68.2z M58.5,67.9h0.85h0.85h0.85h0.85c0.55,0,1.069-0.037,1.558-0.111
	c0.489-0.074,0.949-0.183,1.38-0.327c0.431-0.144,0.834-0.321,1.21-0.532c0.376-0.211,0.726-0.455,1.051-0.73
	s0.606-0.581,0.845-0.916c0.239-0.334,0.436-0.697,0.593-1.084c0.157-0.388,0.272-0.8,0.348-1.234C68.963,62.531,69,62.075,69,61.6
	c0-1-0.144-1.875-0.431-2.625S67.85,57.6,67.275,57.1s-1.294-0.875-2.156-1.125C64.256,55.725,63.25,55.6,62.1,55.6h-0.9h-0.9h-0.9
	h-0.9v3.075v3.075v3.075V67.9z M62.2,66.4h-0.45H61.3h-0.45H60.4v-2.325V61.75v-2.325V57.1h0.475h0.475h0.475H62.3
	c0.8,0,1.5,0.094,2.1,0.281c0.6,0.188,1.1,0.469,1.5,0.844s0.7,0.844,0.9,1.406s0.3,1.219,0.3,1.969
	c0,0.375-0.025,0.731-0.076,1.067c-0.051,0.336-0.13,0.652-0.235,0.946c-0.106,0.294-0.241,0.566-0.405,0.814
	C66.219,64.675,66.025,64.9,65.8,65.1c-0.225,0.225-0.469,0.419-0.731,0.583s-0.544,0.298-0.844,0.404
	c-0.3,0.106-0.619,0.185-0.956,0.236C62.931,66.375,62.575,66.4,62.2,66.4z M60.6,66.2H61h0.4h0.4h0.4
	c0.375,0,0.725-0.025,1.052-0.075c0.327-0.05,0.63-0.125,0.911-0.225c0.281-0.1,0.54-0.225,0.779-0.375
	C65.181,65.375,65.4,65.2,65.601,65c0.2-0.2,0.375-0.419,0.525-0.656c0.15-0.238,0.275-0.494,0.375-0.769s0.175-0.569,0.225-0.881
	s0.075-0.644,0.075-0.994c0-0.725-0.094-1.356-0.281-1.895c-0.188-0.539-0.469-0.986-0.844-1.342
	c-0.375-0.356-0.844-0.622-1.407-0.799C63.706,57.488,63.05,57.4,62.3,57.4h-0.4h-0.4h-0.4h-0.4v2.2v2.2V64v2.2h-0.025H60.65
	c0,0-0.013,0-0.025,0S60.6,66.2,60.6,66.2z"/>
<path d="M70.9,67.6v-0.525V66.55v-0.525V65.5c0.05,0.05,0.1,0.094,0.151,0.134s0.104,0.078,0.16,0.116
	c0.056,0.037,0.116,0.075,0.18,0.116S71.525,65.95,71.6,66c0.075,0.025,0.15,0.056,0.225,0.091c0.075,0.034,0.15,0.072,0.225,0.109
	c0.075,0.037,0.15,0.075,0.225,0.109c0.075,0.034,0.15,0.066,0.225,0.091s0.15,0.05,0.225,0.073s0.15,0.045,0.225,0.064
	c0.075,0.019,0.15,0.034,0.225,0.045c0.075,0.011,0.15,0.017,0.225,0.017c0.075,0.025,0.15,0.044,0.224,0.058
	s0.146,0.024,0.215,0.03c0.069,0.007,0.134,0.01,0.195,0.011S74.15,66.7,74.2,66.7c0.225,0,0.438-0.006,0.636-0.02
	c0.199-0.014,0.383-0.036,0.552-0.068s0.322-0.072,0.458-0.123c0.136-0.051,0.254-0.114,0.354-0.189s0.194-0.156,0.278-0.245
	c0.084-0.089,0.159-0.186,0.222-0.292c0.062-0.106,0.113-0.222,0.147-0.349C76.881,65.288,76.9,65.15,76.9,65
	c0-0.075-0.006-0.15-0.017-0.224c-0.011-0.074-0.026-0.146-0.045-0.215c-0.019-0.068-0.041-0.134-0.065-0.195
	C76.75,64.306,76.725,64.25,76.7,64.2s-0.056-0.1-0.094-0.15c-0.037-0.05-0.081-0.1-0.131-0.15s-0.106-0.1-0.169-0.15
	c-0.062-0.05-0.131-0.1-0.206-0.15s-0.15-0.1-0.225-0.148c-0.075-0.048-0.15-0.095-0.225-0.139s-0.15-0.084-0.225-0.12
	s-0.15-0.068-0.225-0.093c-0.1-0.05-0.194-0.094-0.284-0.134c-0.091-0.041-0.178-0.078-0.266-0.116s-0.175-0.075-0.266-0.116
	C74.294,62.694,74.2,62.65,74.1,62.6s-0.2-0.106-0.3-0.166s-0.2-0.122-0.3-0.184s-0.2-0.125-0.3-0.184
	c-0.1-0.059-0.2-0.116-0.3-0.166s-0.194-0.106-0.283-0.167c-0.089-0.061-0.173-0.126-0.254-0.195
	c-0.082-0.069-0.16-0.141-0.236-0.215S71.975,61.175,71.9,61.1s-0.144-0.15-0.208-0.227c-0.064-0.076-0.123-0.154-0.179-0.236
	c-0.057-0.082-0.11-0.166-0.161-0.255C71.3,60.294,71.25,60.2,71.2,60.1s-0.088-0.2-0.116-0.302
	c-0.028-0.101-0.047-0.204-0.059-0.31c-0.012-0.106-0.019-0.216-0.022-0.33C71,59.044,71,58.925,71,58.8
	c0-0.15,0.006-0.294,0.02-0.431c0.014-0.138,0.036-0.269,0.068-0.394s0.072-0.244,0.123-0.356S71.325,57.4,71.4,57.3
	s0.15-0.2,0.228-0.299s0.159-0.195,0.247-0.29c0.088-0.093,0.181-0.184,0.284-0.27c0.103-0.086,0.216-0.167,0.341-0.242
	c0.1-0.075,0.206-0.144,0.319-0.206c0.113-0.062,0.231-0.119,0.356-0.169s0.256-0.094,0.394-0.131
	C73.706,55.656,73.85,55.625,74,55.6s0.294-0.05,0.434-0.073c0.141-0.024,0.278-0.046,0.416-0.065
	c0.138-0.018,0.275-0.034,0.416-0.045S75.55,55.4,75.7,55.4c0.325,0,0.631,0.006,0.917,0.02c0.286,0.014,0.552,0.036,0.796,0.068
	c0.243,0.031,0.465,0.071,0.664,0.123c0.198,0.051,0.373,0.114,0.523,0.189v0.525v0.525v0.525V57.9
	c-0.175-0.125-0.369-0.237-0.578-0.336c-0.209-0.098-0.434-0.183-0.672-0.252c-0.237-0.069-0.487-0.122-0.747-0.157
	C76.344,57.119,76.075,57.1,75.8,57.1c-0.075,0-0.15,0-0.225,0.002c-0.075,0.002-0.15,0.005-0.225,0.011
	c-0.075,0.006-0.15,0.015-0.225,0.029c-0.075,0.014-0.15,0.033-0.225,0.058s-0.15,0.05-0.224,0.075s-0.146,0.05-0.215,0.075
	c-0.069,0.025-0.134,0.05-0.195,0.075c-0.061,0.025-0.118,0.05-0.168,0.075c-0.05,0.025-0.1,0.056-0.15,0.092
	c-0.05,0.036-0.1,0.076-0.15,0.12c-0.049,0.044-0.099,0.091-0.149,0.139S73.55,57.95,73.5,58s-0.088,0.106-0.116,0.167
	c-0.028,0.061-0.047,0.126-0.059,0.195c-0.012,0.069-0.019,0.141-0.022,0.215C73.3,58.65,73.3,58.725,73.3,58.8
	s0.006,0.144,0.017,0.208c0.011,0.064,0.026,0.124,0.045,0.18c0.019,0.056,0.041,0.109,0.064,0.16
	C73.45,59.4,73.475,59.45,73.5,59.5s0.056,0.1,0.092,0.15c0.036,0.05,0.077,0.1,0.121,0.15c0.044,0.05,0.09,0.1,0.139,0.15
	C73.9,60,73.95,60.05,74,60.1s0.106,0.094,0.167,0.134c0.061,0.041,0.126,0.078,0.195,0.116c0.069,0.037,0.141,0.075,0.215,0.116
	c0.074,0.041,0.149,0.084,0.224,0.134s0.156,0.094,0.242,0.134c0.086,0.041,0.176,0.078,0.27,0.116
	c0.094,0.037,0.191,0.075,0.289,0.116C75.7,61.006,75.8,61.05,75.9,61.1s0.206,0.106,0.316,0.166s0.222,0.122,0.334,0.184
	s0.225,0.125,0.334,0.184S77.1,61.75,77.2,61.8s0.194,0.106,0.283,0.167c0.089,0.061,0.173,0.126,0.254,0.195
	c0.081,0.069,0.16,0.141,0.236,0.215c0.077,0.074,0.152,0.149,0.227,0.223s0.144,0.15,0.208,0.226
	c0.064,0.077,0.123,0.155,0.179,0.236c0.056,0.082,0.11,0.166,0.161,0.255C78.8,63.406,78.85,63.5,78.9,63.6s0.094,0.2,0.131,0.302
	c0.038,0.102,0.069,0.205,0.094,0.311c0.025,0.106,0.044,0.216,0.056,0.33c0.012,0.114,0.019,0.233,0.019,0.358
	c0,0.15-0.006,0.3-0.02,0.447c-0.014,0.147-0.036,0.291-0.068,0.428c-0.031,0.137-0.072,0.268-0.123,0.39S78.875,66.4,78.8,66.5
	s-0.15,0.2-0.228,0.299c-0.078,0.099-0.159,0.196-0.247,0.289c-0.088,0.094-0.181,0.184-0.284,0.27
	c-0.103,0.086-0.216,0.167-0.341,0.242c-0.1,0.075-0.212,0.144-0.333,0.206s-0.249,0.119-0.38,0.169
	c-0.131,0.05-0.265,0.094-0.398,0.131c-0.133,0.038-0.264,0.069-0.389,0.094c-0.15,0.025-0.3,0.05-0.45,0.073
	c-0.15,0.023-0.3,0.045-0.45,0.064c-0.15,0.019-0.3,0.035-0.45,0.046S74.55,68.4,74.4,68.4c-0.05,0-0.106,0-0.167,0
	c-0.061,0-0.127,0-0.196,0c-0.068,0-0.14,0-0.214,0s-0.149,0-0.224,0s-0.15-0.006-0.227-0.016c-0.076-0.009-0.154-0.022-0.236-0.034
	c-0.081-0.013-0.165-0.025-0.253-0.034C72.794,68.306,72.7,68.3,72.6,68.3c-0.075-0.025-0.15-0.044-0.225-0.059
	c-0.075-0.016-0.15-0.028-0.225-0.041c-0.075-0.013-0.15-0.025-0.225-0.041c-0.075-0.016-0.15-0.034-0.225-0.059
	c-0.1-0.075-0.194-0.137-0.28-0.191c-0.086-0.053-0.164-0.097-0.233-0.134c-0.069-0.038-0.128-0.069-0.176-0.097
	C70.963,67.65,70.925,67.625,70.9,67.6z"/>
<path style="fill:#FFFFFF;" d="M74.2,68.4c-0.05,0-0.106,0-0.167,0c-0.061,0-0.127,0-0.196,0c-0.069,0-0.14,0-0.214,0
	s-0.149,0-0.224,0s-0.151-0.006-0.227-0.016c-0.077-0.009-0.155-0.022-0.236-0.034c-0.08-0.013-0.164-0.025-0.253-0.034
	C72.594,68.306,72.5,68.3,72.4,68.3c-0.075-0.025-0.15-0.044-0.225-0.059c-0.075-0.016-0.15-0.028-0.225-0.041
	c-0.075-0.013-0.15-0.025-0.225-0.041c-0.075-0.016-0.15-0.034-0.225-0.059s-0.144-0.05-0.208-0.075s-0.124-0.05-0.18-0.075
	c-0.056-0.025-0.109-0.05-0.161-0.075C70.9,67.85,70.85,67.825,70.8,67.8h-0.025H70.75h-0.025H70.7v-0.625V66.55v-0.625V65.3
	l0.05,0.05l0.05,0.05l0.05,0.05l0.05,0.05c0.05,0.05,0.1,0.094,0.151,0.134s0.104,0.078,0.16,0.116s0.116,0.075,0.18,0.116
	C71.456,65.906,71.525,65.95,71.6,66c0.075,0.025,0.144,0.056,0.209,0.089c0.066,0.033,0.128,0.067,0.191,0.099
	s0.125,0.06,0.191,0.08c0.066,0.02,0.134,0.033,0.209,0.033c0.075,0.025,0.15,0.05,0.225,0.073c0.075,0.023,0.15,0.045,0.225,0.064
	c0.075,0.018,0.15,0.034,0.225,0.045c0.075,0.011,0.15,0.017,0.225,0.017c0.075,0.025,0.15,0.044,0.224,0.058
	c0.074,0.014,0.146,0.024,0.215,0.03c0.068,0.006,0.134,0.009,0.195,0.01C73.994,66.6,74.05,66.6,74.1,66.6
	c0.225,0,0.431-0.006,0.62-0.02c0.189-0.014,0.361-0.036,0.518-0.068s0.297-0.072,0.423-0.123S75.9,66.275,76,66.2
	s0.188-0.15,0.262-0.23s0.137-0.164,0.188-0.258c0.05-0.093,0.088-0.196,0.113-0.314S76.6,65.15,76.6,65
	c0-0.075-0.006-0.144-0.017-0.208c-0.011-0.064-0.026-0.123-0.045-0.179c-0.019-0.056-0.041-0.11-0.065-0.161
	C76.45,64.4,76.425,64.35,76.4,64.3s-0.056-0.1-0.094-0.15c-0.037-0.05-0.081-0.1-0.131-0.15c-0.05-0.05-0.106-0.1-0.169-0.15
	c-0.062-0.05-0.131-0.1-0.206-0.15s-0.15-0.094-0.225-0.134c-0.075-0.041-0.15-0.078-0.225-0.116s-0.15-0.075-0.225-0.116
	c-0.075-0.041-0.15-0.084-0.225-0.134c-0.1-0.05-0.194-0.094-0.284-0.134c-0.091-0.041-0.178-0.078-0.266-0.116
	s-0.175-0.075-0.266-0.116C73.994,62.794,73.9,62.75,73.8,62.7s-0.206-0.106-0.314-0.166c-0.108-0.059-0.217-0.122-0.323-0.184
	c-0.106-0.063-0.21-0.125-0.305-0.184S72.675,62.05,72.6,62c-0.1-0.05-0.194-0.106-0.283-0.167
	c-0.089-0.061-0.173-0.126-0.254-0.195c-0.081-0.069-0.16-0.141-0.236-0.215C71.75,61.35,71.675,61.275,71.6,61.2
	s-0.144-0.15-0.208-0.226c-0.064-0.076-0.123-0.155-0.179-0.236c-0.057-0.081-0.11-0.166-0.161-0.255
	C71,60.394,70.95,60.3,70.9,60.2s-0.088-0.2-0.116-0.302c-0.028-0.101-0.047-0.204-0.059-0.31c-0.013-0.107-0.019-0.216-0.022-0.33
	C70.7,59.144,70.7,59.025,70.7,58.9c0-0.15,0.006-0.294,0.02-0.433c0.014-0.139,0.036-0.273,0.068-0.404
	c0.031-0.132,0.072-0.26,0.123-0.386s0.114-0.252,0.189-0.377c0.075-0.1,0.156-0.2,0.242-0.299c0.086-0.098,0.176-0.195,0.27-0.29
	c0.094-0.093,0.191-0.184,0.29-0.27C72,56.356,72.1,56.275,72.2,56.2c0.125-0.075,0.25-0.144,0.375-0.206s0.25-0.119,0.375-0.169
	s0.25-0.094,0.375-0.131c0.125-0.038,0.25-0.069,0.375-0.094c0.15-0.025,0.3-0.05,0.45-0.073c0.15-0.024,0.3-0.046,0.45-0.065
	c0.15-0.018,0.3-0.034,0.45-0.045c0.15-0.011,0.3-0.017,0.45-0.017c0.35,0,0.669,0.006,0.961,0.022s0.558,0.041,0.802,0.078
	c0.243,0.037,0.465,0.088,0.67,0.153c0.205,0.066,0.392,0.147,0.567,0.247h0.025h0.025h0.025H78.6v0.525v0.525v0.525V58l-0.05-0.025
	L78.5,57.95l-0.05-0.025L78.4,57.9c-0.175-0.125-0.363-0.231-0.562-0.32c-0.2-0.089-0.412-0.161-0.637-0.217
	c-0.225-0.056-0.462-0.097-0.712-0.124c-0.25-0.027-0.513-0.039-0.788-0.039c-0.075,0-0.15,0-0.225,0.002
	c-0.075,0.002-0.15,0.005-0.225,0.011c-0.075,0.006-0.15,0.015-0.225,0.029c-0.075,0.014-0.15,0.033-0.225,0.058
	s-0.15,0.044-0.223,0.061s-0.146,0.033-0.215,0.051s-0.135,0.04-0.195,0.07C74.106,57.512,74.05,57.55,74,57.6
	c-0.05,0.025-0.1,0.056-0.15,0.092c-0.05,0.036-0.1,0.076-0.15,0.12c-0.05,0.044-0.1,0.091-0.15,0.139
	C73.5,58,73.45,58.05,73.4,58.1c-0.025,0.05-0.05,0.1-0.073,0.152c-0.023,0.051-0.045,0.104-0.064,0.16
	c-0.019,0.056-0.035,0.116-0.046,0.18S73.2,58.725,73.2,58.8s0.006,0.144,0.017,0.208c0.011,0.064,0.026,0.124,0.045,0.18
	c0.019,0.056,0.041,0.109,0.065,0.16C73.35,59.4,73.375,59.45,73.4,59.5s0.056,0.1,0.092,0.148c0.036,0.049,0.077,0.096,0.121,0.139
	c0.043,0.043,0.09,0.084,0.139,0.12S73.85,59.975,73.9,60c0.05,0.05,0.106,0.094,0.167,0.134c0.061,0.041,0.126,0.078,0.195,0.116
	c0.069,0.037,0.141,0.075,0.215,0.116c0.074,0.041,0.148,0.084,0.223,0.134s0.156,0.094,0.242,0.134
	c0.086,0.041,0.176,0.078,0.27,0.116c0.094,0.037,0.191,0.075,0.29,0.116C75.6,60.906,75.7,60.95,75.8,61
	c0.125,0.05,0.244,0.106,0.358,0.166c0.114,0.059,0.224,0.122,0.33,0.184s0.21,0.125,0.311,0.184S77,61.65,77.1,61.7
	c0.1,0.075,0.2,0.144,0.299,0.209c0.098,0.066,0.195,0.128,0.289,0.191s0.185,0.125,0.27,0.191c0.086,0.066,0.167,0.134,0.242,0.209
	s0.15,0.156,0.222,0.241c0.072,0.084,0.141,0.172,0.203,0.259s0.119,0.175,0.166,0.259c0.047,0.084,0.084,0.166,0.109,0.241
	c0.05,0.1,0.094,0.2,0.131,0.302c0.038,0.102,0.069,0.205,0.094,0.311s0.044,0.216,0.056,0.33c0.013,0.114,0.019,0.232,0.019,0.357
	c0,0.175-0.006,0.338-0.02,0.491c-0.014,0.153-0.036,0.297-0.068,0.434s-0.072,0.269-0.123,0.397S78.875,66.375,78.8,66.5
	s-0.15,0.238-0.228,0.341c-0.078,0.103-0.159,0.197-0.247,0.284s-0.181,0.169-0.284,0.247S77.825,67.525,77.7,67.6
	s-0.25,0.144-0.377,0.206c-0.126,0.062-0.254,0.119-0.385,0.169c-0.132,0.05-0.266,0.094-0.405,0.131
	c-0.139,0.038-0.283,0.069-0.433,0.094c-0.15,0.025-0.3,0.05-0.452,0.074c-0.152,0.023-0.305,0.046-0.461,0.064
	c-0.156,0.019-0.315,0.034-0.479,0.045C74.544,68.394,74.375,68.4,74.2,68.4z M71,67.5c0.05,0.025,0.1,0.05,0.15,0.073
	c0.05,0.023,0.1,0.045,0.15,0.064s0.1,0.034,0.15,0.045c0.05,0.011,0.1,0.017,0.15,0.017c0.075,0.025,0.15,0.05,0.225,0.073
	c0.075,0.023,0.15,0.045,0.225,0.064s0.15,0.034,0.225,0.045c0.075,0.011,0.15,0.017,0.225,0.017
	c0.075,0.025,0.15,0.044,0.225,0.058c0.075,0.014,0.15,0.024,0.225,0.03c0.075,0.007,0.15,0.011,0.225,0.012
	C73.25,68,73.325,68,73.4,68s0.15,0,0.224,0s0.146,0,0.215,0s0.135,0,0.196,0c0.061,0,0.117,0,0.167,0c0.15,0,0.3-0.006,0.45-0.017
	c0.15-0.011,0.3-0.026,0.45-0.045c0.149-0.019,0.299-0.041,0.449-0.064c0.15-0.024,0.3-0.049,0.45-0.074
	c0.15-0.025,0.294-0.056,0.431-0.094c0.137-0.037,0.269-0.081,0.394-0.131s0.244-0.106,0.356-0.169
	c0.113-0.062,0.219-0.131,0.319-0.206c0.1-0.075,0.2-0.15,0.297-0.227c0.097-0.077,0.191-0.155,0.278-0.236
	c0.088-0.081,0.169-0.165,0.241-0.254C78.387,66.394,78.45,66.3,78.5,66.2s0.1-0.206,0.147-0.319
	c0.047-0.112,0.091-0.231,0.128-0.356s0.069-0.256,0.091-0.394C78.887,64.994,78.9,64.85,78.9,64.7c0-0.125-0.006-0.244-0.019-0.356
	c-0.012-0.113-0.031-0.219-0.056-0.319c-0.025-0.1-0.056-0.194-0.094-0.281S78.65,63.575,78.6,63.5c-0.05-0.1-0.1-0.194-0.151-0.283
	s-0.104-0.174-0.16-0.255c-0.057-0.081-0.116-0.159-0.18-0.235c-0.064-0.076-0.133-0.152-0.208-0.227s-0.15-0.15-0.227-0.223
	c-0.077-0.074-0.155-0.146-0.236-0.215s-0.166-0.135-0.255-0.195S77,61.75,76.9,61.7s-0.2-0.106-0.302-0.166
	c-0.102-0.059-0.205-0.122-0.311-0.184s-0.216-0.125-0.33-0.184S75.725,61.05,75.6,61c-0.1-0.05-0.2-0.1-0.299-0.148
	c-0.098-0.049-0.195-0.096-0.289-0.139c-0.093-0.043-0.184-0.084-0.27-0.12S74.575,60.525,74.5,60.5
	c-0.075-0.05-0.15-0.094-0.225-0.134c-0.075-0.041-0.15-0.078-0.225-0.116s-0.15-0.075-0.225-0.116
	C73.75,60.094,73.675,60.05,73.6,60c-0.05-0.05-0.1-0.1-0.15-0.15c-0.05-0.05-0.1-0.1-0.15-0.15s-0.1-0.1-0.15-0.15
	c-0.05-0.05-0.1-0.1-0.15-0.15c0-0.025,0-0.062,0-0.109s0-0.103,0-0.166s0-0.131,0-0.203s0-0.147,0-0.222s0.006-0.15,0.019-0.223
	c0.012-0.074,0.031-0.146,0.056-0.215c0.025-0.069,0.056-0.134,0.094-0.195c0.038-0.061,0.081-0.117,0.131-0.167s0.1-0.1,0.15-0.15
	c0.05-0.05,0.1-0.1,0.15-0.15s0.1-0.1,0.15-0.15c0.05-0.05,0.1-0.1,0.15-0.15c0.075-0.025,0.144-0.05,0.211-0.075
	c0.067-0.025,0.133-0.05,0.201-0.075c0.069-0.025,0.141-0.05,0.221-0.075C74.613,57.05,74.7,57.025,74.8,57
	c0.075-0.025,0.15-0.044,0.227-0.058c0.077-0.014,0.155-0.023,0.236-0.029c0.081-0.006,0.165-0.01,0.254-0.011S75.7,56.9,75.8,56.9
	c0.275,0,0.538,0.013,0.788,0.039c0.25,0.027,0.487,0.067,0.712,0.124c0.225,0.056,0.438,0.128,0.637,0.217
	c0.2,0.089,0.387,0.195,0.562,0.32v-0.425V56.75v-0.425V55.9c-0.15-0.075-0.319-0.138-0.508-0.189
	c-0.189-0.052-0.398-0.092-0.629-0.123c-0.231-0.031-0.485-0.054-0.761-0.068S76.025,55.5,75.7,55.5
	c-0.15,0-0.294,0.006-0.434,0.017s-0.278,0.026-0.416,0.045c-0.138,0.019-0.275,0.041-0.416,0.064
	C74.294,55.65,74.15,55.675,74,55.7c-0.125,0.025-0.25,0.056-0.375,0.094c-0.125,0.037-0.25,0.081-0.375,0.131
	s-0.25,0.106-0.375,0.169s-0.25,0.131-0.375,0.206c-0.1,0.075-0.2,0.15-0.297,0.227s-0.191,0.154-0.278,0.236
	c-0.088,0.081-0.169,0.166-0.241,0.255C71.613,57.106,71.55,57.2,71.5,57.3c-0.075,0.1-0.137,0.206-0.189,0.319
	c-0.051,0.112-0.092,0.231-0.123,0.356s-0.053,0.256-0.067,0.394S71.1,58.65,71.1,58.8c0,0.125,0.006,0.244,0.017,0.356
	c0.011,0.112,0.026,0.219,0.045,0.319s0.04,0.194,0.064,0.281S71.275,59.925,71.3,60s0.062,0.15,0.108,0.225
	c0.045,0.075,0.098,0.15,0.154,0.225c0.056,0.075,0.116,0.15,0.174,0.225c0.058,0.075,0.114,0.15,0.164,0.225
	c0.075,0.075,0.15,0.144,0.227,0.209c0.077,0.066,0.155,0.128,0.236,0.191s0.166,0.125,0.255,0.191S72.8,61.625,72.9,61.7
	c0.1,0.05,0.2,0.106,0.3,0.166c0.1,0.059,0.2,0.122,0.3,0.184s0.2,0.125,0.3,0.184c0.1,0.059,0.2,0.116,0.3,0.166
	s0.2,0.1,0.299,0.148c0.098,0.049,0.195,0.096,0.289,0.139c0.094,0.043,0.185,0.084,0.27,0.12c0.086,0.036,0.167,0.067,0.242,0.092
	c0.1,0.05,0.194,0.094,0.281,0.134c0.088,0.041,0.169,0.078,0.244,0.116s0.144,0.075,0.206,0.116S76.05,63.35,76.1,63.4
	c0.075,0.05,0.144,0.1,0.206,0.15c0.062,0.05,0.119,0.1,0.169,0.15s0.094,0.1,0.131,0.15c0.038,0.05,0.069,0.1,0.094,0.15
	c0.05,0.05,0.088,0.106,0.116,0.167c0.028,0.061,0.047,0.126,0.059,0.195c0.012,0.069,0.019,0.141,0.022,0.215
	C76.9,64.65,76.9,64.725,76.9,64.8c0,0.15-0.013,0.294-0.039,0.43c-0.026,0.136-0.067,0.264-0.123,0.382
	c-0.056,0.119-0.129,0.229-0.218,0.327c-0.089,0.098-0.195,0.186-0.32,0.261s-0.256,0.144-0.398,0.205
	c-0.142,0.061-0.295,0.114-0.464,0.158c-0.169,0.044-0.354,0.078-0.558,0.101S74.35,66.7,74.1,66.7c-0.075,0-0.15,0-0.225-0.002
	c-0.075-0.001-0.15-0.004-0.225-0.01c-0.075-0.007-0.15-0.016-0.225-0.03c-0.075-0.014-0.15-0.033-0.225-0.058
	s-0.15-0.044-0.225-0.059s-0.15-0.028-0.225-0.041c-0.075-0.012-0.15-0.025-0.225-0.041c-0.075-0.016-0.15-0.034-0.225-0.059
	s-0.15-0.05-0.225-0.076c-0.075-0.026-0.15-0.055-0.225-0.086c-0.075-0.032-0.15-0.066-0.225-0.105
	C71.55,66.094,71.475,66.05,71.4,66c-0.05-0.025-0.1-0.05-0.148-0.075c-0.048-0.025-0.095-0.05-0.139-0.075
	c-0.044-0.025-0.085-0.05-0.121-0.075c-0.036-0.025-0.067-0.05-0.092-0.075v0.45v0.45v0.45v0.45h0.025h0.025h0.025H71z"/>
<path style="fill:#FFFFFF;" d="M54.7,34.5c-0.025-0.1,0.025-0.263,0.122-0.458c0.097-0.195,0.241-0.423,0.403-0.654
	c0.162-0.231,0.344-0.466,0.516-0.674c0.172-0.208,0.334-0.389,0.459-0.514c0.05-0.075,0.1-0.144,0.148-0.206
	c0.049-0.062,0.096-0.119,0.139-0.169c0.044-0.05,0.084-0.094,0.12-0.131c0.036-0.038,0.067-0.069,0.092-0.094
	c0.05-0.075,0.087-0.144,0.114-0.206s0.042-0.119,0.049-0.169c0.006-0.05,0.003-0.094-0.008-0.131
	c-0.011-0.037-0.03-0.069-0.055-0.094c-0.025-0.05-0.056-0.094-0.094-0.131c-0.037-0.038-0.081-0.069-0.131-0.094
	s-0.106-0.044-0.169-0.056S56.275,30.7,56.2,30.7c-0.05,0-0.1-0.006-0.15-0.023c-0.05-0.017-0.1-0.045-0.15-0.089
	c-0.05-0.044-0.1-0.104-0.15-0.183c-0.05-0.08-0.1-0.18-0.15-0.305c0-0.025-0.006-0.056-0.016-0.091
	c-0.009-0.034-0.022-0.072-0.034-0.109c-0.013-0.038-0.025-0.075-0.034-0.109C55.506,29.756,55.5,29.725,55.5,29.7
	c-0.025-0.125-0.05-0.25-0.083-0.369S55.344,29.1,55.288,29c-0.057-0.1-0.129-0.187-0.224-0.256
	c-0.095-0.069-0.214-0.119-0.364-0.144c-0.15,0-0.275-0.038-0.378-0.098s-0.184-0.145-0.247-0.239s-0.106-0.197-0.134-0.295
	C53.913,27.869,53.9,27.775,53.9,27.7c0-0.05,0.019-0.119,0.052-0.198s0.08-0.17,0.136-0.264s0.122-0.191,0.192-0.283
	c0.07-0.092,0.145-0.179,0.22-0.254c0.075-0.125,0.144-0.231,0.203-0.322c0.059-0.091,0.109-0.166,0.147-0.228
	s0.062-0.112,0.072-0.153c0.009-0.041,0.003-0.072-0.022-0.097v-0.025V25.85v-0.025V25.8l-0.025-0.025L54.85,25.75l-0.025-0.025
	L54.8,25.7h-0.025H54.75h-0.025H54.7c-0.05,0-0.112,0.006-0.184,0.017c-0.072,0.011-0.153,0.026-0.241,0.045
	s-0.181,0.041-0.278,0.064S53.8,25.875,53.7,25.9s-0.2,0.05-0.297,0.073s-0.191,0.046-0.278,0.065s-0.169,0.035-0.241,0.045
	C52.812,26.094,52.75,26.1,52.7,26.1c-0.025,0-0.05-0.025-0.073-0.072c-0.024-0.047-0.046-0.116-0.065-0.203
	c-0.018-0.088-0.034-0.194-0.045-0.316C52.506,25.388,52.5,25.25,52.5,25.1c0-0.1,0-0.206-0.002-0.317
	c-0.002-0.111-0.005-0.227-0.011-0.346c-0.006-0.118-0.015-0.24-0.029-0.364S52.425,23.825,52.4,23.7
	c-0.05-0.3-0.1-0.556-0.153-0.772c-0.053-0.216-0.109-0.391-0.172-0.528s-0.131-0.238-0.209-0.303C51.787,22.031,51.7,22,51.6,22
	h-0.025H51.55h-0.025H51.5h-0.025H51.45h-0.025H51.4h-0.025H51.35h-0.025H51.3v0.025v0.025v0.025V22.1
	c-0.15,0.525-0.319,1.056-0.492,1.561s-0.352,0.983-0.521,1.401c-0.168,0.419-0.328,0.779-0.464,1.046S49.575,26.55,49.5,26.6
	c-0.025,0-0.062-0.025-0.108-0.066c-0.045-0.041-0.099-0.097-0.155-0.159c-0.056-0.062-0.115-0.131-0.173-0.197
	C49.006,26.112,48.95,26.05,48.9,26c-0.075-0.1-0.15-0.2-0.227-0.294s-0.154-0.181-0.236-0.256
	c-0.082-0.075-0.166-0.138-0.255-0.181C48.094,25.225,48,25.2,47.9,25.2c-0.175,0.025-0.3,0.112-0.389,0.244
	s-0.142,0.306-0.173,0.506s-0.04,0.425-0.042,0.656s0.005,0.469,0.005,0.694v0.075v0.075v0.075V27.6c0,0.025,0,0.05-0.002,0.075
	c-0.002,0.025-0.005,0.05-0.011,0.075c-0.006,0.025-0.015,0.05-0.029,0.075c-0.014,0.025-0.033,0.05-0.058,0.075c0,0,0,0-0.003,0
	c-0.003,0-0.009,0-0.022,0s-0.031,0-0.059,0s-0.066,0-0.116,0c-0.025,0-0.05,0-0.076-0.002c-0.026-0.002-0.054-0.005-0.085-0.011
	c-0.032-0.006-0.067-0.015-0.106-0.029c-0.039-0.014-0.083-0.033-0.133-0.058c-0.05,0-0.1-0.006-0.148-0.016
	s-0.096-0.022-0.139-0.034c-0.043-0.013-0.084-0.025-0.12-0.034C46.156,27.706,46.125,27.7,46.1,27.7l0,0l0,0l0,0l0,0
	c-0.2,0-0.356,0.019-0.478,0.055c-0.122,0.036-0.209,0.089-0.272,0.157s-0.1,0.153-0.122,0.252C45.206,28.262,45.2,28.375,45.2,28.5
	c0,0.05,0.006,0.112,0.016,0.184c0.009,0.072,0.022,0.153,0.034,0.241c0.013,0.088,0.025,0.181,0.034,0.278
	C45.294,29.3,45.3,29.4,45.3,29.5c0.025,0.125,0.05,0.256,0.072,0.384c0.022,0.128,0.041,0.253,0.053,0.366s0.019,0.212,0.016,0.291
	S45.425,30.675,45.4,30.7l0,0l0,0l0,0l0,0c0,0,0,0-0.002,0s-0.005,0-0.011,0s-0.016,0-0.03,0s-0.032,0-0.057,0s-0.05,0-0.075,0
	s-0.05,0-0.075,0s-0.05,0-0.075,0c-0.025,0-0.05,0-0.075,0s-0.05,0-0.075,0s-0.05,0-0.075,0s-0.05,0-0.075,0
	c-0.025,0-0.05,0-0.075,0c-0.05,0-0.094,0.006-0.131,0.017c-0.037,0.011-0.069,0.026-0.094,0.045
	c-0.025,0.019-0.044,0.041-0.056,0.064C44.406,30.85,44.4,30.875,44.4,30.9c-0.025,0.075,0,0.225,0.055,0.413
	c0.055,0.188,0.139,0.412,0.232,0.637c0.094,0.225,0.197,0.45,0.29,0.638C45.069,32.775,45.15,32.925,45.2,33
	s0.094,0.144,0.13,0.206c0.036,0.062,0.064,0.119,0.083,0.169c0.019,0.05,0.028,0.094,0.026,0.131S45.425,33.575,45.4,33.6
	c0,0.025-0.006,0.05-0.025,0.073c-0.019,0.024-0.05,0.046-0.1,0.065c-0.05,0.019-0.119,0.034-0.213,0.045S44.85,33.8,44.7,33.8
	c-0.025,0-0.05,0-0.075,0c-0.025,0-0.05,0-0.075,0c-0.025,0-0.05,0-0.075,0c-0.025,0-0.05,0-0.075,0
	c-0.375-0.025-0.856-0.444-1.369-1.067c-0.513-0.623-1.056-1.451-1.556-2.295s-0.956-1.703-1.294-2.389
	c-0.338-0.686-0.556-1.199-0.581-1.349c-0.025-0.075-0.044-0.156-0.058-0.239s-0.023-0.167-0.029-0.248s-0.009-0.159-0.011-0.23
	C39.5,25.913,39.5,25.85,39.5,25.8c0.075,0,0.162,0.006,0.259,0.016c0.097,0.009,0.203,0.022,0.316,0.034s0.231,0.025,0.353,0.034
	C40.55,25.894,40.675,25.9,40.8,25.9c0.2,0,0.381-0.006,0.544-0.019c0.162-0.013,0.306-0.031,0.431-0.056s0.231-0.056,0.319-0.094
	c0.088-0.038,0.156-0.081,0.206-0.131c0.075-0.075,0.119-0.2,0.136-0.37s0.008-0.386-0.024-0.642
	c-0.031-0.256-0.084-0.553-0.154-0.886C42.188,23.369,42.1,23,42,22.6c-0.025-0.125-0.05-0.256-0.075-0.387
	c-0.025-0.131-0.05-0.263-0.075-0.388s-0.05-0.244-0.075-0.35c-0.025-0.106-0.05-0.2-0.075-0.275
	c0.05,0.025,0.112,0.056,0.183,0.092c0.07,0.036,0.148,0.076,0.229,0.12c0.082,0.044,0.166,0.091,0.249,0.139
	S42.525,21.65,42.6,21.7c0.1,0.05,0.194,0.1,0.281,0.147s0.169,0.091,0.244,0.128s0.144,0.069,0.206,0.091
	C43.394,22.087,43.45,22.1,43.5,22.1c0.075,0.025,0.144,0.044,0.208,0.058c0.064,0.014,0.124,0.023,0.18,0.029
	c0.056,0.007,0.109,0.01,0.16,0.011S44.15,22.2,44.2,22.2c0.1,0,0.213-0.013,0.325-0.047s0.225-0.091,0.325-0.178
	c0.1-0.087,0.187-0.206,0.25-0.366S45.2,21.25,45.2,21c0.025-0.25,0.013-0.494-0.025-0.731c-0.037-0.237-0.1-0.469-0.175-0.694
	c-0.075-0.225-0.162-0.444-0.25-0.656S44.575,18.5,44.5,18.3c-0.025-0.075-0.05-0.144-0.075-0.208
	c-0.025-0.064-0.05-0.124-0.075-0.18c-0.025-0.056-0.05-0.109-0.075-0.161C44.25,17.7,44.225,17.65,44.2,17.6
	c-0.05-0.125-0.106-0.288-0.166-0.47c-0.059-0.183-0.122-0.386-0.184-0.592s-0.125-0.416-0.184-0.611
	C43.606,15.731,43.55,15.55,43.5,15.4c0.275,0.15,0.644,0.35,1.05,0.566s0.85,0.447,1.275,0.659
	c0.425,0.212,0.831,0.406,1.162,0.547S47.575,17.4,47.7,17.4h0.025h0.025h0.025H47.8l0.025-0.05l0.025-0.05l0.025-0.05L47.9,17.2
	c0.025-0.075,0.044-0.2,0.056-0.372s0.019-0.391,0.019-0.653c0-0.262-0.006-0.569-0.019-0.916c-0.013-0.347-0.031-0.734-0.056-1.159
	v-0.125V13.85v-0.125V13.6c-0.025-0.35-0.05-0.781-0.069-1.244C47.813,11.894,47.8,11.4,47.8,10.925s0.012-0.931,0.044-1.319
	C47.875,9.219,47.925,8.9,48,8.7c0.025-0.05,0.05-0.1,0.076-0.147c0.026-0.047,0.054-0.091,0.085-0.128s0.066-0.069,0.105-0.091
	S48.35,8.3,48.4,8.3s0.1,0.012,0.149,0.034c0.048,0.022,0.095,0.053,0.139,0.091c0.043,0.037,0.084,0.081,0.12,0.128
	C48.844,8.6,48.875,8.65,48.9,8.7l0.025,0.1l0.025,0.1L48.975,9L49,9.1c0.075,0.225,0.181,0.519,0.306,0.847
	s0.269,0.691,0.419,1.053s0.306,0.725,0.456,1.053c0.15,0.328,0.294,0.622,0.419,0.847s0.275,0.631,0.431,1.13
	s0.319,1.089,0.469,1.682s0.287,1.19,0.394,1.701c0.106,0.511,0.181,0.936,0.206,1.186v0.05v0.05v0.05v0.05
	c0.025,0.15,0.05,0.287,0.078,0.409c0.028,0.122,0.059,0.228,0.097,0.316s0.081,0.156,0.134,0.204S52.525,19.8,52.6,19.8
	c0.025,0,0.05,0,0.075-0.002c0.025-0.002,0.05-0.005,0.075-0.011c0.025-0.006,0.05-0.015,0.075-0.03
	c0.025-0.014,0.05-0.033,0.075-0.057c0.125-0.075,0.275-0.275,0.431-0.539s0.319-0.592,0.469-0.923s0.288-0.665,0.394-0.942
	C54.3,17.019,54.375,16.8,54.4,16.7c0-0.025,0.006-0.062,0.016-0.108c0.009-0.045,0.022-0.099,0.034-0.155
	c0.013-0.056,0.025-0.115,0.034-0.173C54.494,16.206,54.5,16.15,54.5,16.1c0.025-0.125,0.05-0.275,0.076-0.431
	c0.026-0.156,0.054-0.319,0.085-0.469c0.031-0.15,0.066-0.288,0.105-0.394C54.806,14.7,54.85,14.625,54.9,14.6l0,0l0,0l0,0l0,0
	c0.125,0,0.263,0.05,0.403,0.142s0.284,0.227,0.422,0.396c0.138,0.169,0.269,0.372,0.384,0.601c0.116,0.23,0.216,0.486,0.291,0.761
	c0.075,0.25,0.1,0.569,0.091,0.922c-0.009,0.353-0.053,0.741-0.116,1.128s-0.144,0.775-0.228,1.128
	c-0.084,0.353-0.172,0.672-0.247,0.922l-0.025,0.075L55.85,20.75l-0.025,0.075L55.8,20.9c-0.025,0.1-0.044,0.194-0.055,0.281
	s-0.014,0.169-0.007,0.244c0.006,0.075,0.021,0.144,0.048,0.206S55.85,21.75,55.9,21.8c0.025,0.05,0.062,0.094,0.108,0.131
	s0.099,0.069,0.155,0.094c0.056,0.025,0.115,0.044,0.173,0.056C56.394,22.094,56.45,22.1,56.5,22.1c0.025,0,0.044,0,0.059,0
	s0.028,0,0.041,0c0.013,0,0.025,0,0.041,0s0.034,0,0.059,0s0.056-0.012,0.098-0.038c0.042-0.025,0.096-0.062,0.165-0.112
	s0.153-0.112,0.258-0.188S57.45,21.6,57.6,21.5c0.175-0.125,0.387-0.275,0.616-0.43s0.472-0.314,0.709-0.457
	c0.237-0.144,0.469-0.272,0.672-0.365S59.975,20.1,60.1,20.1c0.075,0.025,0.144,0.075,0.202,0.172
	c0.058,0.097,0.105,0.241,0.136,0.453s0.047,0.494,0.042,0.866c-0.005,0.372-0.03,0.834-0.08,1.409v0.075v0.075v0.075V23.3
	c0,0.05-0.037,0.15-0.102,0.284c-0.064,0.134-0.154,0.303-0.26,0.491s-0.228,0.394-0.355,0.603C59.556,24.887,59.425,25.1,59.3,25.3
	c-0.225,0.4-0.413,0.731-0.566,1.006c-0.153,0.275-0.272,0.494-0.359,0.669c-0.088,0.175-0.144,0.306-0.172,0.406
	c-0.028,0.1-0.028,0.169-0.003,0.219v0.025v0.025v0.025V27.7h0.025h0.025h0.025H58.3c0.075,0,0.163-0.012,0.261-0.036
	s0.208-0.058,0.326-0.102c0.119-0.043,0.247-0.096,0.383-0.157c0.136-0.061,0.28-0.13,0.43-0.205c0.1-0.05,0.206-0.1,0.314-0.149
	s0.217-0.095,0.324-0.139s0.209-0.084,0.305-0.12c0.095-0.036,0.182-0.067,0.257-0.092c0.05-0.025,0.094-0.044,0.133-0.058
	c0.039-0.014,0.073-0.023,0.104-0.029c0.032-0.007,0.06-0.01,0.086-0.011C61.25,26.6,61.275,26.6,61.3,26.6
	c0.05,0,0.087,0.006,0.116,0.017c0.028,0.011,0.047,0.026,0.059,0.045c0.013,0.019,0.019,0.041,0.022,0.064
	C61.5,26.75,61.5,26.775,61.5,26.8l0,0l0,0l0,0l0,0c0,0-0.062,0.212-0.178,0.558c-0.116,0.345-0.284,0.824-0.497,1.355
	c-0.212,0.531-0.469,1.115-0.759,1.673c-0.291,0.558-0.616,1.089-0.966,1.514c-0.075,0.35-0.35,0.675-0.73,0.969
	c-0.38,0.294-0.864,0.556-1.358,0.781s-0.997,0.412-1.414,0.556C55.181,34.35,54.85,34.45,54.7,34.5z M50,17.8
	c-0.1,0-0.188,0.031-0.264,0.086s-0.142,0.133-0.199,0.226c-0.056,0.094-0.103,0.203-0.142,0.321s-0.07,0.242-0.095,0.367
	c-0.025,0.075-0.037,0.15-0.039,0.225c-0.002,0.075,0.008,0.15,0.026,0.225c0.019,0.075,0.047,0.15,0.083,0.225
	c0.036,0.075,0.08,0.15,0.13,0.225c0.05,0.05,0.1,0.1,0.15,0.147c0.05,0.047,0.1,0.091,0.15,0.128s0.1,0.069,0.15,0.091
	C50,20.087,50.05,20.1,50.1,20.1c0.1,0,0.194-0.038,0.278-0.103c0.084-0.066,0.159-0.159,0.222-0.272s0.112-0.244,0.147-0.384
	C50.781,19.2,50.8,19.05,50.8,18.9s-0.031-0.281-0.078-0.394c-0.047-0.112-0.109-0.206-0.172-0.281s-0.125-0.131-0.172-0.169
	S50.3,18,50.3,18c-0.025-0.05-0.05-0.087-0.075-0.116c-0.025-0.028-0.05-0.047-0.075-0.059c-0.025-0.013-0.05-0.019-0.075-0.022
	C50.05,17.8,50.025,17.8,50,17.8z"/>
<path d="M48.8,8.7c0.025,0,0.056,0.006,0.089,0.019c0.033,0.012,0.067,0.031,0.099,0.056c0.031,0.025,0.059,0.056,0.079,0.094
	C49.087,8.906,49.1,8.95,49.1,9c0,0.025,0.006,0.05,0.016,0.077c0.009,0.027,0.022,0.055,0.034,0.086s0.025,0.066,0.034,0.105
	S49.2,9.35,49.2,9.4c0.1,0.225,0.219,0.519,0.348,0.847s0.271,0.691,0.415,1.053c0.143,0.363,0.29,0.725,0.432,1.053
	c0.142,0.328,0.28,0.622,0.405,0.847s0.275,0.631,0.431,1.13s0.319,1.089,0.469,1.682c0.15,0.594,0.287,1.191,0.394,1.702
	C52.2,18.225,52.275,18.65,52.3,18.9v0.05V19v0.05v0.05c0.025,0.15,0.05,0.294,0.081,0.425s0.069,0.25,0.119,0.35
	c0.05,0.1,0.112,0.181,0.194,0.238C52.775,20.169,52.875,20.2,53,20.2c0.025,0,0.05,0,0.076-0.002
	c0.026-0.002,0.054-0.005,0.085-0.011c0.031-0.006,0.066-0.015,0.105-0.029S53.35,20.125,53.4,20.1
	c0.125-0.1,0.281-0.325,0.447-0.611c0.166-0.286,0.341-0.633,0.503-0.976c0.162-0.344,0.312-0.685,0.428-0.958
	C54.894,17.281,54.975,17.075,55,17c0-0.05,0.006-0.1,0.016-0.152s0.022-0.104,0.034-0.16s0.025-0.115,0.034-0.18
	c0.009-0.064,0.016-0.133,0.016-0.208s0.006-0.188,0.019-0.316s0.031-0.272,0.056-0.409c0.025-0.137,0.056-0.269,0.094-0.372
	S55.35,15.025,55.4,15c0.075,0,0.175,0.044,0.288,0.127s0.237,0.205,0.362,0.361s0.25,0.347,0.362,0.568
	c0.112,0.22,0.213,0.47,0.288,0.744c0.075,0.25,0.1,0.562,0.091,0.906c-0.009,0.344-0.053,0.719-0.116,1.094
	s-0.144,0.75-0.228,1.094c-0.084,0.344-0.172,0.656-0.247,0.906l-0.025,0.075L56.15,20.95l-0.025,0.075L56.1,21.1
	c-0.025,0.125-0.037,0.244-0.041,0.353c-0.003,0.109,0.003,0.209,0.016,0.297c0.013,0.087,0.031,0.162,0.053,0.222
	c0.022,0.059,0.047,0.103,0.072,0.128c0.05,0.05,0.1,0.094,0.153,0.131c0.053,0.037,0.109,0.069,0.172,0.094
	c0.063,0.025,0.131,0.044,0.209,0.056C56.812,22.394,56.9,22.4,57,22.4c0.025,0,0.05,0,0.073,0c0.024,0,0.046,0,0.065,0
	c0.019,0,0.034,0,0.045,0c0.011,0,0.017,0,0.017,0c0.05,0,0.1-0.012,0.156-0.038c0.056-0.025,0.119-0.062,0.194-0.112
	s0.163-0.112,0.269-0.188C57.925,21.987,58.05,21.9,58.2,21.8c0.15-0.125,0.35-0.275,0.572-0.43
	c0.222-0.155,0.466-0.314,0.703-0.457c0.237-0.144,0.469-0.272,0.666-0.365C60.338,20.456,60.5,20.4,60.6,20.4
	c0.025,0.025,0.056,0.069,0.088,0.155s0.062,0.214,0.087,0.407s0.044,0.453,0.05,0.802c0.006,0.349,0,0.786-0.025,1.336v0.075v0.075
	v0.075V23.4c0,0.05-0.038,0.156-0.1,0.298c-0.062,0.142-0.15,0.32-0.25,0.514c-0.1,0.194-0.213,0.403-0.325,0.608
	S59.9,25.225,59.8,25.4c-0.25,0.45-0.45,0.812-0.608,1.108s-0.274,0.523-0.355,0.704c-0.081,0.182-0.128,0.316-0.148,0.424
	c-0.02,0.108-0.014,0.189,0.011,0.264c0.025,0.025,0.05,0.05,0.076,0.073s0.055,0.046,0.085,0.065s0.065,0.035,0.105,0.045
	C59.006,28.094,59.05,28.1,59.1,28.1c0.075,0,0.162-0.012,0.263-0.036c0.1-0.024,0.212-0.058,0.337-0.102
	c0.125-0.044,0.263-0.097,0.412-0.157c0.15-0.061,0.312-0.13,0.488-0.205c0.1-0.05,0.206-0.1,0.314-0.149s0.217-0.096,0.324-0.139
	c0.106-0.043,0.209-0.084,0.304-0.12c0.095-0.036,0.183-0.067,0.258-0.092c0.05-0.025,0.094-0.044,0.133-0.058
	c0.039-0.014,0.073-0.023,0.104-0.029c0.031-0.007,0.06-0.01,0.086-0.011S62.175,27,62.2,27l0,0l0,0l0,0l0,0
	c-0.05,0.15-0.144,0.444-0.275,0.822c-0.131,0.378-0.3,0.841-0.5,1.328s-0.431,1-0.688,1.478C60.481,31.106,60.2,31.55,59.9,31.9
	c-0.275,0.325-0.669,0.631-1.12,0.913s-0.961,0.537-1.467,0.763s-1.009,0.419-1.448,0.575c-0.439,0.156-0.814,0.275-1.064,0.35
	c0.025-0.075,0.075-0.175,0.148-0.298c0.074-0.123,0.171-0.27,0.29-0.439c0.118-0.169,0.259-0.36,0.42-0.571
	C55.819,32.981,56,32.75,56.2,32.5c0.05-0.075,0.1-0.144,0.148-0.206s0.096-0.119,0.139-0.169c0.044-0.05,0.084-0.094,0.12-0.131
	c0.036-0.038,0.067-0.069,0.092-0.094c0.05-0.1,0.087-0.188,0.114-0.266s0.042-0.147,0.048-0.209
	c0.007-0.062,0.004-0.119-0.007-0.172C56.844,31.2,56.825,31.15,56.8,31.1s-0.062-0.1-0.109-0.147s-0.103-0.091-0.166-0.128
	c-0.062-0.038-0.131-0.069-0.203-0.091C56.25,30.713,56.175,30.7,56.1,30.7c-0.025,0-0.056,0-0.091-0.006s-0.072-0.019-0.109-0.044
	s-0.075-0.062-0.109-0.119S55.725,30.4,55.7,30.3c0-0.025-0.006-0.056-0.016-0.091c-0.009-0.034-0.022-0.072-0.034-0.109
	s-0.025-0.075-0.034-0.109C55.606,29.956,55.6,29.925,55.6,29.9c-0.025-0.125-0.05-0.262-0.086-0.399
	c-0.036-0.136-0.083-0.271-0.151-0.389s-0.159-0.222-0.283-0.295S54.8,28.7,54.6,28.7c-0.1,0-0.188-0.031-0.263-0.081
	c-0.075-0.05-0.138-0.119-0.188-0.194s-0.088-0.156-0.112-0.231C54.012,28.119,54,28.05,54,28s0.025-0.119,0.064-0.197
	s0.092-0.166,0.149-0.253s0.116-0.175,0.167-0.253s0.095-0.147,0.12-0.197c0.075-0.125,0.144-0.231,0.203-0.325
	c0.059-0.094,0.109-0.175,0.147-0.25s0.062-0.144,0.072-0.212c0.009-0.069,0.003-0.138-0.022-0.212l0.025-0.125l0.025-0.125
	l0.025-0.125L55,25.6l-0.05-0.025L54.9,25.55l-0.05-0.025L54.8,25.5c-0.025,0-0.044,0-0.059,0s-0.028,0-0.041,0
	c-0.013,0-0.025,0-0.041,0s-0.034,0-0.059,0c-0.05,0-0.112,0.006-0.184,0.017c-0.072,0.011-0.153,0.026-0.241,0.045
	s-0.181,0.04-0.278,0.064C53.8,25.65,53.7,25.675,53.6,25.7s-0.194,0.044-0.283,0.059s-0.174,0.028-0.255,0.041
	c-0.081,0.012-0.159,0.025-0.236,0.041S52.675,25.875,52.6,25.9c0-0.05-0.006-0.106-0.016-0.169s-0.022-0.131-0.034-0.206
	s-0.025-0.156-0.034-0.244C52.506,25.194,52.5,25.1,52.5,25s0-0.206-0.002-0.317s-0.005-0.227-0.011-0.346
	c-0.006-0.118-0.015-0.24-0.029-0.364S52.425,23.725,52.4,23.6c-0.025-0.2-0.05-0.413-0.084-0.619
	c-0.034-0.206-0.078-0.406-0.141-0.581s-0.144-0.325-0.253-0.431C51.813,21.862,51.675,21.8,51.5,21.8
	c-0.025,0-0.05,0.006-0.075,0.016c-0.025,0.009-0.05,0.022-0.075,0.034c-0.025,0.013-0.05,0.025-0.075,0.034
	C51.25,21.894,51.225,21.9,51.2,21.9l-0.025,0.025L51.15,21.95l-0.025,0.025L51.1,22v0.025v0.025v0.025V22.1
	c-0.125,0.45-0.269,0.913-0.419,1.361c-0.15,0.448-0.306,0.883-0.456,1.276c-0.15,0.394-0.294,0.747-0.419,1.033
	c-0.125,0.286-0.231,0.505-0.306,0.63c-0.025-0.025-0.056-0.056-0.091-0.092s-0.072-0.076-0.109-0.12
	c-0.038-0.044-0.075-0.091-0.109-0.139S49.125,25.95,49.1,25.9c-0.1-0.1-0.194-0.206-0.284-0.309s-0.178-0.203-0.266-0.291
	c-0.087-0.087-0.175-0.162-0.266-0.216S48.1,25,48,25l0,0l0,0l0,0l0,0l0,0l0,0l0,0l0,0c-0.175,0.025-0.306,0.119-0.405,0.261
	c-0.098,0.142-0.164,0.333-0.207,0.551c-0.044,0.219-0.066,0.466-0.077,0.721C47.3,26.787,47.3,27.05,47.3,27.3v0.075v0.075v0.075
	V27.6c0,0.025,0,0.044,0,0.058s0,0.023,0,0.029c0,0.007,0,0.01,0,0.011s0,0.002,0,0.002l0,0l0,0l0,0l0,0c-0.025,0-0.05,0-0.076,0
	s-0.055,0-0.085,0c-0.032,0-0.066,0-0.105,0s-0.083,0-0.133,0s-0.1-0.006-0.15-0.016c-0.05-0.009-0.1-0.022-0.15-0.034
	s-0.1-0.025-0.15-0.034c-0.05-0.009-0.1-0.016-0.15-0.016h-0.025H46.25h-0.025H46.2c-0.2,0-0.362,0.025-0.494,0.072
	c-0.131,0.047-0.231,0.116-0.306,0.203c-0.075,0.087-0.125,0.194-0.156,0.316S45.2,28.45,45.2,28.6c0,0.05,0.006,0.113,0.016,0.184
	c0.009,0.072,0.022,0.153,0.034,0.241c0.013,0.087,0.025,0.181,0.034,0.278C45.294,29.4,45.3,29.5,45.3,29.6
	c0.025,0.075,0.044,0.163,0.058,0.256s0.023,0.194,0.029,0.294c0.007,0.1,0.01,0.2,0.011,0.294C45.4,30.537,45.4,30.625,45.4,30.7
	c-0.025,0-0.05,0-0.075,0c-0.025,0-0.05,0-0.075,0s-0.05,0-0.075,0c-0.025,0-0.05,0-0.075,0s-0.05,0-0.075,0s-0.05,0-0.075,0
	s-0.05,0-0.075,0c-0.025,0-0.05,0-0.075,0c-0.1,0-0.181,0.012-0.247,0.033c-0.066,0.02-0.116,0.049-0.153,0.08
	s-0.062,0.066-0.078,0.098C44.306,30.944,44.3,30.975,44.3,31c-0.025,0.1,0,0.281,0.055,0.5c0.055,0.219,0.139,0.475,0.232,0.725
	c0.094,0.25,0.197,0.494,0.29,0.688c0.092,0.194,0.174,0.338,0.223,0.388c0.05,0.075,0.088,0.138,0.116,0.189
	c0.028,0.052,0.047,0.092,0.059,0.123c0.013,0.032,0.019,0.054,0.022,0.068C45.3,33.694,45.3,33.7,45.3,33.7
	s-0.006,0.006-0.022,0.016c-0.016,0.009-0.041,0.022-0.078,0.034s-0.087,0.025-0.153,0.034C44.981,33.794,44.9,33.8,44.8,33.8
	c-0.025,0-0.05,0-0.075,0c-0.025,0-0.05,0-0.075,0c-0.025,0-0.05,0-0.075,0c-0.025,0-0.05,0-0.075,0
	c-0.35-0.025-0.8-0.425-1.283-1.022s-0.999-1.391-1.48-2.203c-0.481-0.812-0.928-1.644-1.273-2.316S39.875,27.075,39.8,26.9
	c-0.025-0.05-0.044-0.1-0.058-0.15c-0.014-0.05-0.023-0.1-0.029-0.15c-0.007-0.05-0.01-0.1-0.011-0.15
	C39.7,26.4,39.7,26.35,39.7,26.3c0.075,0,0.156,0.006,0.242,0.016c0.086,0.009,0.177,0.022,0.271,0.034
	c0.094,0.013,0.19,0.025,0.289,0.034S40.7,26.4,40.8,26.4c0.225,0,0.425-0.006,0.602-0.02c0.176-0.014,0.329-0.036,0.46-0.067
	s0.241-0.072,0.33-0.124S42.35,26.075,42.4,26c0.075-0.1,0.125-0.231,0.152-0.402c0.027-0.17,0.029-0.38,0.01-0.636
	c-0.018-0.256-0.059-0.559-0.12-0.917S42.3,23.275,42.2,22.8c-0.025-0.1-0.05-0.2-0.073-0.298c-0.024-0.098-0.046-0.195-0.065-0.289
	c-0.018-0.094-0.034-0.185-0.045-0.271C42.006,21.856,42,21.775,42,21.7c0.05,0.025,0.1,0.05,0.15,0.075
	c0.05,0.025,0.1,0.05,0.15,0.075s0.1,0.05,0.15,0.075c0.05,0.025,0.1,0.05,0.15,0.075c0.1,0.05,0.194,0.1,0.281,0.149
	s0.169,0.095,0.244,0.139c0.075,0.044,0.144,0.084,0.206,0.12S43.45,22.475,43.5,22.5c0.075,0.025,0.144,0.044,0.208,0.058
	s0.124,0.023,0.18,0.029c0.056,0.007,0.109,0.01,0.16,0.011S44.15,22.6,44.2,22.6c0.075,0,0.181-0.006,0.3-0.036
	c0.119-0.03,0.25-0.083,0.375-0.176s0.244-0.228,0.338-0.42s0.162-0.443,0.188-0.768c0.025-0.25,0.013-0.5-0.025-0.745
	c-0.037-0.245-0.1-0.486-0.175-0.717c-0.075-0.232-0.163-0.454-0.25-0.661s-0.175-0.402-0.25-0.577
	c-0.025-0.075-0.05-0.144-0.075-0.208c-0.025-0.064-0.05-0.123-0.075-0.179c-0.025-0.057-0.05-0.11-0.075-0.161
	C44.45,17.9,44.425,17.85,44.4,17.8c-0.025-0.1-0.062-0.225-0.108-0.366s-0.099-0.297-0.155-0.459
	c-0.056-0.162-0.115-0.331-0.173-0.497S43.85,16.15,43.8,16c0.35,0.175,0.737,0.375,1.13,0.576s0.789,0.404,1.158,0.586
	c0.368,0.181,0.709,0.341,0.989,0.455S47.575,17.8,47.7,17.8c0.05,0,0.1-0.006,0.147-0.019c0.047-0.013,0.091-0.031,0.128-0.056
	c0.037-0.025,0.069-0.056,0.091-0.094C48.087,17.594,48.1,17.55,48.1,17.5c0.025-0.075,0.044-0.194,0.056-0.358
	c0.012-0.164,0.019-0.373,0.019-0.629c0-0.257-0.006-0.56-0.019-0.911C48.144,15.25,48.125,14.85,48.1,14.4v-0.05V14.3v-0.05V14.2
	v-0.1V14v-0.1v-0.1c-0.025-0.325-0.05-0.744-0.069-1.2S48,11.65,48,11.175s0.013-0.931,0.044-1.312
	C48.075,9.481,48.125,9.175,48.2,9c0.1-0.025,0.181-0.056,0.248-0.089c0.067-0.033,0.12-0.067,0.164-0.098
	c0.044-0.031,0.078-0.06,0.108-0.08S48.775,8.7,48.8,8.7L48.8,8.7L48.8,8.7L48.8,8.7L48.8,8.7 M50.1,20.2
	c0.125,0,0.237-0.05,0.338-0.133c0.1-0.083,0.188-0.198,0.262-0.329c0.075-0.131,0.138-0.278,0.188-0.423s0.088-0.289,0.112-0.414
	c0-0.125-0.019-0.244-0.052-0.355s-0.08-0.214-0.136-0.308s-0.122-0.178-0.192-0.252c-0.07-0.073-0.145-0.136-0.22-0.186
	c-0.025-0.025-0.056-0.05-0.091-0.073s-0.072-0.045-0.109-0.065s-0.075-0.035-0.109-0.045S50.025,17.6,50,17.6
	c-0.075,0-0.15,0.012-0.225,0.045c-0.075,0.033-0.15,0.086-0.225,0.167c-0.075,0.082-0.15,0.191-0.225,0.336
	c-0.075,0.145-0.15,0.327-0.225,0.552c-0.025,0.1-0.037,0.194-0.039,0.283s0.008,0.174,0.026,0.255
	c0.019,0.081,0.047,0.159,0.083,0.235s0.08,0.152,0.13,0.227s0.106,0.144,0.167,0.205c0.061,0.061,0.126,0.114,0.195,0.157
	c0.069,0.044,0.141,0.078,0.215,0.102C49.95,20.188,50.025,20.2,50.1,20.2 M48.8,8.3c-0.05,0-0.1,0.006-0.15,0.022
	C48.6,8.337,48.55,8.363,48.5,8.4c-0.05,0.037-0.1,0.087-0.15,0.153C48.3,8.619,48.25,8.7,48.2,8.8
	c-0.075,0.2-0.125,0.537-0.156,0.955C48.013,10.172,48,10.669,48,11.187s0.013,1.059,0.031,1.564s0.044,0.974,0.069,1.349
	s0.044,0.744,0.056,1.091c0.012,0.347,0.019,0.672,0.019,0.959c0,0.288-0.006,0.538-0.019,0.734
	c-0.013,0.197-0.031,0.341-0.056,0.416c0,0,0,0-0.002,0s-0.005,0-0.011,0c-0.006,0-0.015,0-0.029,0s-0.033,0-0.058,0
	c-0.125,0-0.469-0.138-0.914-0.344c-0.445-0.206-0.992-0.481-1.524-0.756c-0.531-0.275-1.046-0.55-1.429-0.756
	C43.75,15.238,43.5,15.1,43.5,15.1s0.037,0.119,0.097,0.308c0.059,0.189,0.141,0.448,0.228,0.729
	c0.087,0.281,0.181,0.585,0.266,0.861c0.084,0.277,0.159,0.527,0.209,0.702s0.138,0.388,0.241,0.628
	c0.103,0.241,0.222,0.509,0.334,0.797c0.112,0.288,0.219,0.594,0.297,0.909C45.25,20.35,45.3,20.675,45.3,21
	c0,0.2-0.025,0.362-0.07,0.494s-0.111,0.231-0.193,0.306c-0.081,0.075-0.178,0.125-0.285,0.156C44.644,21.987,44.525,22,44.4,22
	c-0.05,0-0.106-0.006-0.164-0.016s-0.117-0.022-0.174-0.034c-0.056-0.013-0.109-0.025-0.154-0.034S43.825,21.9,43.8,21.9
	c-0.125-0.05-0.294-0.131-0.481-0.225s-0.394-0.2-0.594-0.3c-0.2-0.1-0.394-0.194-0.556-0.263C42.006,21.044,41.875,21,41.8,21l0,0
	l0,0l0,0l0,0c-0.075,0.025-0.056,0.287,0.008,0.675s0.174,0.9,0.28,1.425c0.106,0.525,0.209,1.062,0.261,1.5
	c0.051,0.438,0.051,0.775-0.049,0.9c-0.05,0.05-0.119,0.094-0.203,0.131S41.912,25.7,41.8,25.725s-0.237,0.044-0.372,0.056
	C41.294,25.794,41.15,25.8,41,25.8c-0.175,0-0.356-0.006-0.53-0.016s-0.339-0.022-0.483-0.034c-0.144-0.013-0.265-0.025-0.351-0.034
	C39.55,25.706,39.5,25.7,39.5,25.7s0,0.044,0.002,0.116s0.005,0.172,0.011,0.284c0.006,0.113,0.015,0.238,0.029,0.359
	c0.014,0.122,0.033,0.241,0.058,0.341s0.244,0.594,0.584,1.28c0.341,0.686,0.803,1.564,1.316,2.432
	c0.513,0.869,1.075,1.728,1.616,2.377c0.541,0.648,1.059,1.086,1.484,1.111c0.025,0,0.05,0,0.075,0c0.025,0,0.05,0,0.075,0
	c0.025,0,0.05,0,0.075,0c0.025,0,0.05,0,0.075,0c0.325,0,0.538-0.05,0.67-0.13s0.186-0.189,0.192-0.308s-0.035-0.247-0.089-0.364
	c-0.055-0.117-0.123-0.223-0.173-0.298s-0.125-0.225-0.209-0.411s-0.178-0.408-0.266-0.626c-0.088-0.219-0.169-0.435-0.228-0.608
	S44.7,30.95,44.7,30.9c0-0.025,0.006-0.044,0.017-0.058c0.011-0.014,0.026-0.023,0.045-0.029c0.019-0.007,0.041-0.01,0.064-0.011
	S44.875,30.8,44.9,30.8c0.05,0,0.1,0.006,0.15,0.016c0.05,0.009,0.1,0.022,0.15,0.034s0.1,0.025,0.15,0.034
	c0.05,0.009,0.1,0.016,0.15,0.016s0.094,0,0.131-0.002s0.069-0.005,0.094-0.011c0.025-0.006,0.044-0.015,0.056-0.029
	c0.012-0.014,0.019-0.033,0.019-0.058c0.025-0.075,0.019-0.225-0.005-0.416c-0.023-0.191-0.064-0.422-0.107-0.659
	c-0.044-0.237-0.091-0.481-0.127-0.697C45.525,28.812,45.5,28.625,45.5,28.5c0-0.1,0-0.188,0.009-0.263
	c0.009-0.075,0.028-0.138,0.066-0.188s0.094-0.087,0.178-0.112C45.838,27.912,45.95,27.9,46.1,27.9h0.025h0.025h0.025H46.2
	c0.075,0,0.156,0.006,0.239,0.016c0.083,0.009,0.167,0.022,0.248,0.034c0.082,0.013,0.16,0.025,0.23,0.034
	C46.987,27.994,47.05,28,47.1,28s0.1-0.006,0.147-0.022s0.091-0.041,0.128-0.078s0.069-0.087,0.091-0.153
	C47.487,27.681,47.5,27.6,47.5,27.5c0-0.2-0.006-0.431-0.008-0.667c-0.001-0.236,0.002-0.476,0.021-0.695
	c0.019-0.219,0.053-0.416,0.114-0.565s0.148-0.248,0.273-0.274l0,0l0,0l0,0l0,0c0.125,0,0.263,0.087,0.405,0.219
	s0.289,0.306,0.433,0.481c0.143,0.175,0.284,0.35,0.414,0.481C49.281,26.613,49.4,26.7,49.5,26.7l0,0l0,0l0,0l0,0
	c0.125,0,0.306-0.288,0.508-0.719s0.424-1.006,0.63-1.581s0.397-1.15,0.536-1.581c0.139-0.431,0.227-0.719,0.227-0.719s0,0,0.002,0
	s0.005,0,0.011,0s0.016,0,0.03,0s0.032,0,0.057,0s0.062,0.013,0.106,0.052c0.044,0.039,0.094,0.105,0.144,0.211
	s0.1,0.253,0.143,0.455S51.975,23.275,52,23.6c0.025,0.45,0.031,0.837,0.034,1.166s0.003,0.597,0.016,0.809
	c0.013,0.212,0.038,0.369,0.091,0.472C52.194,26.15,52.275,26.2,52.4,26.2c0.1,0,0.256-0.019,0.439-0.047s0.392-0.066,0.599-0.103
	c0.206-0.038,0.409-0.075,0.579-0.103c0.17-0.028,0.308-0.047,0.383-0.047h0.025h0.025h0.025H54.5
	c0.05,0.025,0.012,0.119-0.072,0.253c-0.084,0.134-0.216,0.309-0.353,0.497s-0.281,0.387-0.391,0.572
	C53.575,27.406,53.5,27.575,53.5,27.7s0.019,0.25,0.056,0.369c0.037,0.119,0.094,0.231,0.169,0.331
	c0.075,0.1,0.169,0.188,0.281,0.256S54.25,28.775,54.4,28.8c0.15,0,0.263,0.05,0.348,0.134c0.086,0.084,0.145,0.203,0.189,0.341
	c0.044,0.137,0.072,0.294,0.096,0.453c0.024,0.159,0.042,0.322,0.067,0.472c0.05,0.15,0.1,0.269,0.152,0.362
	c0.051,0.094,0.104,0.163,0.16,0.213s0.116,0.081,0.18,0.1c0.064,0.019,0.133,0.025,0.208,0.025s0.15,0.012,0.216,0.039
	c0.066,0.027,0.122,0.067,0.159,0.124c0.038,0.056,0.056,0.128,0.047,0.217c-0.009,0.089-0.047,0.195-0.122,0.32
	s-0.269,0.35-0.508,0.627c-0.239,0.276-0.523,0.604-0.779,0.935c-0.257,0.332-0.485,0.666-0.611,0.955
	C54.075,34.406,54.05,34.65,54.2,34.8c0,0,0.263-0.069,0.678-0.199c0.416-0.13,0.984-0.32,1.597-0.564
	c0.612-0.243,1.269-0.54,1.859-0.882c0.591-0.342,1.116-0.73,1.466-1.155s0.675-0.962,0.966-1.53
	c0.291-0.567,0.547-1.164,0.759-1.708c0.213-0.544,0.381-1.034,0.497-1.389C62.138,27.019,62.2,26.8,62.2,26.8s0-0.019-0.006-0.047
	c-0.006-0.028-0.019-0.066-0.044-0.103s-0.062-0.075-0.119-0.103S61.9,26.5,61.8,26.5c-0.025,0-0.056,0-0.092,0.002
	s-0.076,0.005-0.12,0.011c-0.044,0.006-0.091,0.015-0.139,0.029S61.35,26.575,61.3,26.6c-0.225,0.075-0.475,0.175-0.73,0.283
	s-0.514,0.223-0.757,0.329c-0.244,0.107-0.472,0.204-0.664,0.274C58.956,27.556,58.8,27.6,58.7,27.6l0,0l0,0l0,0l0,0
	c-0.1,0-0.019-0.231,0.159-0.587c0.178-0.356,0.453-0.837,0.741-1.337s0.588-1.019,0.816-1.45C60.644,23.794,60.8,23.45,60.8,23.3
	s0.019-0.419,0.036-0.741c0.017-0.322,0.033-0.697,0.026-1.059c-0.006-0.363-0.034-0.713-0.104-0.984
	C60.688,20.244,60.575,20.05,60.4,20h-0.025H60.35h-0.025H60.3c-0.2,0-0.494,0.125-0.828,0.312C59.137,20.5,58.762,20.75,58.4,21
	s-0.712,0.5-0.997,0.688C57.119,21.875,56.9,22,56.8,22c0,0-0.006,0-0.017,0c-0.011,0-0.026,0-0.045,0s-0.04,0-0.064,0
	c-0.023,0-0.049,0-0.074,0c-0.075,0-0.156-0.013-0.234-0.042s-0.153-0.077-0.216-0.146s-0.112-0.16-0.141-0.277
	c-0.028-0.117-0.034-0.26-0.009-0.435c0.05-0.2,0.137-0.506,0.234-0.872c0.097-0.366,0.203-0.791,0.291-1.228
	s0.156-0.888,0.178-1.303C56.725,17.281,56.7,16.9,56.6,16.6c-0.075-0.275-0.181-0.538-0.306-0.777
	c-0.125-0.239-0.269-0.455-0.419-0.636c-0.15-0.181-0.306-0.328-0.456-0.429C55.269,14.656,55.125,14.6,55,14.6h-0.025H54.95h-0.025
	H54.9c-0.125,0.05-0.219,0.188-0.291,0.372c-0.072,0.184-0.122,0.416-0.159,0.653s-0.062,0.481-0.084,0.691
	C54.344,16.525,54.325,16.7,54.3,16.8s-0.106,0.319-0.219,0.594c-0.112,0.275-0.256,0.606-0.406,0.931s-0.306,0.644-0.444,0.894
	S52.975,19.65,52.9,19.7c-0.025,0-0.044,0.006-0.059,0.016s-0.028,0.022-0.041,0.034s-0.025,0.025-0.041,0.034
	C52.744,19.794,52.725,19.8,52.7,19.8c-0.05,0-0.094-0.031-0.133-0.086c-0.039-0.055-0.073-0.133-0.104-0.226
	s-0.059-0.203-0.086-0.32C52.35,19.05,52.325,18.925,52.3,18.8c-0.025-0.175-0.1-0.556-0.208-1.047s-0.248-1.091-0.404-1.703
	c-0.156-0.613-0.328-1.238-0.499-1.778c-0.17-0.541-0.34-0.997-0.489-1.272c-0.15-0.25-0.325-0.606-0.506-1.006
	c-0.181-0.4-0.369-0.844-0.544-1.269c-0.175-0.425-0.338-0.831-0.469-1.156C49.05,9.244,48.95,9,48.9,8.9
	c0.1-0.075,0.162-0.15,0.195-0.22c0.033-0.07,0.036-0.136,0.017-0.193c-0.019-0.056-0.059-0.103-0.114-0.135
	C48.944,8.319,48.875,8.3,48.8,8.3L48.8,8.3L48.8,8.3L48.8,8.3L48.8,8.3z M50.1,19.9c-0.05,0-0.125-0.025-0.206-0.072
	s-0.169-0.116-0.244-0.203s-0.137-0.194-0.169-0.316S49.45,19.05,49.5,18.9c0.025-0.125,0.056-0.238,0.092-0.336
	c0.036-0.098,0.076-0.183,0.12-0.251c0.044-0.069,0.091-0.122,0.139-0.158C49.9,18.119,49.95,18.1,50,18.1
	c0.025,0,0.044,0,0.059,0.002s0.028,0.005,0.041,0.011c0.013,0.006,0.025,0.015,0.041,0.03c0.016,0.014,0.034,0.033,0.059,0.057
	c0,0,0.025,0.019,0.062,0.055s0.088,0.089,0.138,0.157s0.1,0.153,0.138,0.252C50.575,18.762,50.6,18.875,50.6,19
	c-0.025,0.1-0.056,0.206-0.092,0.309c-0.036,0.103-0.077,0.203-0.121,0.291c-0.043,0.087-0.09,0.163-0.139,0.216
	C50.2,19.869,50.15,19.9,50.1,19.9L50.1,19.9L50.1,19.9L50.1,19.9L50.1,19.9z"/>
<polygon style="fill:#FFFFFF;" points="42.2,36.7 46.875,36.7 51.55,36.7 56.225,36.7 60.9,36.7 60.9,36.975 60.9,37.25 
	60.9,37.525 60.9,37.8 56.225,37.8 51.55,37.8 46.875,37.8 42.2,37.8 42.2,37.525 42.2,37.25 42.2,36.975 "/>
<path d="M60.7,36.9v0.2v0.2v0.2v0.2h-4.575H51.55h-4.575H42.4v-0.2v-0.2v-0.2v-0.2h4.575h4.575h4.575H60.7 M61.1,36.5h-4.75H51.6
	h-4.75H42.1v0.375v0.375v0.375V38h4.75h4.75h4.75h4.75v-0.375V37.25v-0.375V36.5L61.1,36.5L61.1,36.5L61.1,36.5L61.1,36.5z"/>
</svg>
