<?xml version="1.0" encoding="utf-8"?>
<!-- Generator: Adobe Illustrator 25.2.0, SVG Export Plug-In . SVG Version: 6.00 Build 0)  -->
<svg version="1.1" id="Layer_1" xmlns="http://www.w3.org/2000/svg" xmlns:xlink="http://www.w3.org/1999/xlink" x="0px" y="0px"
	 viewBox="0 0 100 100" style="enable-background:new 0 0 100 100;" xml:space="preserve">
<g>
	<path d="M14.2,57.4H12V43.9h2.1V57.4z"/>
</g>
<g>
	<path d="M24.8,57.4h-2.2l-3.9-8.5c-0.2-0.5-0.4-0.9-0.5-1.1h0c0,0.5,0.1,1.2,0.1,2.2v7.4h-2V43.9h2.3l3.8,8.2
		c0.2,0.4,0.3,0.7,0.5,1.1h0c0-0.3-0.1-0.9-0.1-1.8v-7.4h2V57.4z"/>
</g>
<g>
	<path d="M32.5,46.4h-3.3v3.3h3.1v2.5h-3.1v5.2H27V43.9h5.5V46.4z"/>
</g>
<g>
	<path d="M39.7,57.4H34V43.9h5.5v2.5h-3.3v3h3.1v2.5h-3.1v3.1h3.5V57.4z"/>
</g>
<g>
	<path d="M48,56.9c-0.7,0.5-1.6,0.7-2.7,0.7c-1.5,0-2.6-0.6-3.4-1.8c-0.8-1.2-1.2-2.8-1.2-4.8c0-2.2,0.5-3.9,1.4-5.2
		c0.9-1.3,2.2-2,3.6-2c0.9,0,1.7,0.2,2.3,0.5v2.9c-0.6-0.5-1.4-0.8-2.2-0.8c-0.9,0-1.6,0.4-2.2,1.2c-0.5,0.8-0.8,1.9-0.8,3.2
		c0,1.3,0.3,2.3,0.8,3.1c0.5,0.8,1.2,1.2,2.1,1.2c0.8,0,1.6-0.3,2.3-0.9V56.9z"/>
</g>
<g>
	<path d="M56.3,46.4h-2.7v11h-2.1v-11h-2.7v-2.5h7.5V46.4z"/>
</g>
<g>
	<path d="M59.7,57.4h-2.1V43.9h2.1V57.4z"/>
</g>
<g>
	<path d="M65.9,57.6c-1.4,0-2.5-0.6-3.3-1.9c-0.9-1.3-1.3-2.9-1.3-4.9c0-2.1,0.4-3.8,1.3-5.2c0.9-1.3,2-2,3.4-2
		c1.4,0,2.4,0.6,3.3,1.9c0.8,1.3,1.3,2.9,1.3,5c0,2.1-0.4,3.8-1.3,5.1C68.4,56.9,67.3,57.6,65.9,57.6z M66,46.3
		c-0.7,0-1.3,0.4-1.8,1.2c-0.4,0.8-0.7,1.9-0.7,3.2c0,1.3,0.2,2.4,0.7,3.2s1,1.2,1.7,1.2c0.7,0,1.3-0.4,1.8-1.1s0.6-1.8,0.6-3.1
		c0-1.4-0.2-2.5-0.6-3.3C67.3,46.7,66.7,46.3,66,46.3z"/>
</g>
<g>
	<path d="M79.9,51.5c0,4-1.3,6.1-4,6.1c-2.6,0-3.9-2-3.9-5.9v-7.8h2.1v7.8c0,2.2,0.6,3.3,1.8,3.3c1.2,0,1.8-1.1,1.8-3.2v-7.9h2.1
		V51.5z"/>
</g>
<g>
	<path d="M81.5,56.8v-3c0.4,0.5,0.8,0.8,1.2,1c0.4,0.2,0.9,0.3,1.4,0.3c0.3,0,0.5,0,0.7-0.1c0.2-0.1,0.4-0.2,0.5-0.3
		c0.1-0.1,0.2-0.3,0.3-0.4c0.1-0.2,0.1-0.3,0.1-0.5c0-0.3-0.1-0.5-0.2-0.7c-0.1-0.2-0.2-0.4-0.4-0.6c-0.2-0.2-0.4-0.3-0.7-0.5
		s-0.5-0.3-0.8-0.5c-0.7-0.4-1.3-1-1.7-1.6c-0.4-0.6-0.5-1.4-0.5-2.3c0-0.7,0.1-1.3,0.3-1.8c0.2-0.5,0.5-0.9,0.8-1.2
		c0.3-0.3,0.7-0.6,1.2-0.7c0.4-0.2,0.9-0.2,1.4-0.2c0.5,0,0.9,0,1.3,0.1s0.7,0.2,1.1,0.4V47c-0.2-0.2-0.3-0.3-0.5-0.4
		s-0.4-0.2-0.6-0.3s-0.4-0.1-0.6-0.2c-0.2,0-0.4-0.1-0.6-0.1c-0.2,0-0.5,0-0.7,0.1s-0.4,0.2-0.5,0.3c-0.1,0.1-0.2,0.3-0.3,0.4
		c-0.1,0.2-0.1,0.4-0.1,0.6c0,0.2,0,0.4,0.1,0.6s0.2,0.3,0.4,0.5c0.2,0.2,0.3,0.3,0.6,0.5c0.2,0.2,0.5,0.3,0.7,0.5
		c0.4,0.2,0.7,0.5,1,0.7c0.3,0.3,0.6,0.5,0.8,0.9s0.4,0.7,0.5,1.1c0.1,0.4,0.2,0.9,0.2,1.4c0,0.8-0.1,1.4-0.3,1.9
		c-0.2,0.5-0.5,0.9-0.8,1.2c-0.3,0.3-0.7,0.5-1.2,0.7c-0.5,0.1-0.9,0.2-1.4,0.2c-0.5,0-1-0.1-1.5-0.2S81.9,57.1,81.5,56.8z"/>
</g>
<g>
	<path d="M44.2,26.2c0-0.1,0-0.2,0-0.3c-0.3-0.1-0.7-0.2-1.1-0.2c0,0.2,0,0.3,0,0.5c0,2.9,1.8,5.4,4.2,6.2c0.1-0.4,0.2-0.8,0.2-1.1
		C45.6,30.5,44.2,28.5,44.2,26.2z"/>
</g>
<g>
	<path d="M54.1,26.2c0,2.3-1.4,4.3-3.3,5c0,0.4,0.1,0.8,0.2,1.1c2.4-0.9,4.1-3.3,4.1-6.2c0-0.3,0-0.6-0.1-0.9
		c-0.4,0-0.7,0.1-1.1,0.3C54.1,25.8,54.1,26,54.1,26.2z"/>
</g>
<g>
	<path d="M46.1,22c0.9-0.8,1.9-1.2,3.1-1.2c1.2,0,2.3,0.5,3.1,1.2c0.3-0.3,0.5-0.6,0.7-0.9c-1-0.9-2.4-1.5-3.8-1.5
		c-1.5,0-2.8,0.6-3.8,1.5C45.6,21.5,45.8,21.8,46.1,22z"/>
</g>
<g>
	<path d="M50.5,31.4c0-0.1,0-0.2,0-0.3c0,0,0,0,0-0.1c0-0.1,0-0.2,0-0.4c0-0.1,0-0.2,0-0.3c0,0,0-0.1,0-0.1c0-0.1,0-0.2,0-0.3
		c0,0,0-0.1,0-0.1c0-0.1,0-0.2,0-0.3c0,0,0,0,0,0c0-0.1,0-0.2,0.1-0.3c0,0,0,0,0,0c0-0.1,0.1-0.2,0.1-0.3c0,0,0,0,0,0
		c0.1-0.3,0.2-0.7,0.4-1c0,0,0,0,0,0L50,27.1c-0.2,0.2-0.5,0.4-0.9,0.4c-0.3,0-0.6-0.2-0.9-0.4l-1.1,0.8c0.1,0.2,0.2,0.4,0.3,0.7
		c0,0,0,0,0,0c0.1,0.2,0.2,0.5,0.2,0.7c0,0,0,0,0,0c0,0.1,0.1,0.2,0.1,0.3c0,0,0,0,0,0.1c0,0.1,0,0.2,0.1,0.4c0,0,0,0,0,0.1
		c0,0.1,0,0.2,0,0.3c0,0,0,0.1,0,0.1c0,0.1,0,0.2,0,0.4c0,0.1,0,0.2,0,0.3c0,0,0,0,0,0c0,0.1,0,0.2,0,0.3c0,0,0,0,0,0l0,0
		c-0.2,2.6-2.1,4.6-4.5,4.9c0.2,0,0.4,0,0.6,0c2.2,0,4.2-1.2,5.3-3.1c1.1,1.9,3.1,3.1,5.3,3.1c0.2,0,0.4,0,0.5,0
		C52.7,36,50.8,34,50.5,31.4L50.5,31.4C50.5,31.4,50.5,31.4,50.5,31.4z"/>
</g>
<g>
	<path d="M44.3,25.5c1,0.3,1.9,1,2.6,1.9l1.2-0.8c0-0.1-0.1-0.3-0.1-0.4c0-0.6,0.4-1.1,0.9-1.3v-1.2c-0.1,0-0.2,0-0.2,0
		c0,0-0.1,0-0.1,0c0,0-0.1,0-0.1,0c0,0-0.1,0-0.1,0c0,0-0.1,0-0.1,0c0,0-0.1,0-0.1,0c0,0-0.1,0-0.1,0c0,0-0.1,0-0.1,0
		c0,0-0.1,0-0.1,0c0,0-0.1,0-0.1,0c0,0-0.1,0-0.1,0c0,0-0.1,0-0.1-0.1c0,0,0,0,0,0c-0.3-0.1-0.5-0.2-0.7-0.4c0,0,0,0,0,0
		c-0.1,0-0.1-0.1-0.2-0.1c0,0,0,0,0,0c-0.1,0-0.1-0.1-0.2-0.1c0,0,0,0,0,0c-1.3-1-2.1-2.6-2.1-4.4c0-2.9,2.1-5.3,4.8-5.4
		c-3.4,0.1-6,3.1-6,6.8c0,1.1,0.2,2.1,0.6,3c-3.2,0.3-5.7,3.2-5.7,6.8c0,0.2,0,0.5,0,0.7c0.3-2.8,2.4-4.9,5.1-4.9
		C43.4,25.3,43.8,25.4,44.3,25.5C44.3,25.5,44.3,25.5,44.3,25.5C44.3,25.5,44.3,25.5,44.3,25.5z"/>
</g>
<g>
	<path d="M54.8,22.7c0.4-0.9,0.6-1.9,0.6-3c0-3.7-2.7-6.7-6-6.8c2.6,0.1,4.8,2.5,4.8,5.4c0,1.8-0.8,3.5-2.1,4.4c0,0,0,0,0,0
		c-0.1,0-0.1,0.1-0.2,0.1c0,0,0,0,0,0c-0.1,0-0.1,0.1-0.2,0.1c0,0,0,0,0,0c-0.2,0.2-0.5,0.3-0.7,0.4c0,0,0,0,0,0c0,0-0.1,0-0.1,0.1
		c0,0,0,0-0.1,0c0,0-0.1,0-0.1,0c0,0-0.1,0-0.1,0c0,0-0.1,0-0.1,0c0,0-0.1,0-0.1,0c0,0-0.1,0-0.1,0c0,0-0.1,0-0.1,0c0,0-0.1,0-0.1,0
		c0,0-0.1,0-0.1,0c0,0-0.1,0-0.1,0c-0.1,0-0.1,0-0.2,0c0,0,0,0,0,0v1.2c0.5,0.1,0.9,0.7,0.9,1.3c0,0.1,0,0.3-0.1,0.4l1.1,0.7
		c1-1.5,2.5-2.4,4.3-2.4c2.7,0,5,2.3,5.2,5.2c0-0.2,0-0.4,0-0.6C60.9,25.8,58.2,22.8,54.8,22.7z"/>
</g>
</svg>
