<?xml version="1.0" encoding="utf-8"?>
<!-- Generator: Adobe Illustrator 25.2.0, SVG Export Plug-In . SVG Version: 6.00 Build 0)  -->
<svg version="1.1" id="Layer_1" xmlns="http://www.w3.org/2000/svg" xmlns:xlink="http://www.w3.org/1999/xlink" x="0px" y="0px"
	 viewBox="0 0 100 100" style="enable-background:new 0 0 100 100;" xml:space="preserve">
<g>
	<path d="M53.1,87.4c0,0.4-0.1,0.9-0.2,1.3s-0.3,0.7-0.6,1c-0.3,0.3-0.6,0.5-0.9,0.7c-0.3,0.2-0.7,0.2-1.1,0.2
		c-0.5,0-0.9-0.1-1.2-0.3c-0.4-0.2-0.7-0.5-0.9-0.8c-0.3-0.4-0.4-0.8-0.6-1.3s-0.2-1.1-0.2-1.8c0-0.8,0.1-1.5,0.3-2.1
		c0.2-0.6,0.4-1.2,0.7-1.6c0.3-0.5,0.7-0.8,1.2-1.1s1-0.4,1.5-0.4c0.6,0,1.1,0.1,1.5,0.2v1.7c-0.4-0.3-0.9-0.4-1.4-0.4
		c-0.3,0-0.6,0.1-0.8,0.2c-0.2,0.1-0.5,0.3-0.6,0.6s-0.3,0.5-0.4,0.9s-0.2,0.7-0.2,1.1h0c0.4-0.6,1-0.9,1.7-0.9
		c0.3,0,0.6,0.1,0.9,0.2s0.5,0.3,0.7,0.6c0.2,0.2,0.3,0.5,0.5,0.9C53.1,86.6,53.1,87,53.1,87.4z M51.3,87.6c0-1-0.4-1.5-1.1-1.5
		c-0.2,0-0.3,0-0.4,0.1s-0.2,0.2-0.3,0.3c-0.1,0.1-0.2,0.3-0.2,0.4c-0.1,0.2-0.1,0.4-0.1,0.6c0,0.2,0,0.4,0.1,0.6
		c0.1,0.2,0.1,0.4,0.2,0.5c0.1,0.1,0.2,0.3,0.3,0.3s0.3,0.1,0.4,0.1c0.2,0,0.3,0,0.4-0.1c0.1-0.1,0.2-0.2,0.3-0.3
		c0.1-0.1,0.2-0.3,0.2-0.5C51.3,88,51.3,87.8,51.3,87.6z"/>
</g>
<g>
	<path d="M17.4,52.2v5.4h-3.1V42h4.8c3.5,0,5.2,1.7,5.2,5c0,1.6-0.5,2.8-1.5,3.8c-1,1-2.3,1.5-4,1.5H17.4z M17.4,44.7v4.9h1.2
		c1.6,0,2.5-0.8,2.5-2.5c0-1.6-0.8-2.4-2.5-2.4H17.4z"/>
</g>
<g>
	<path d="M32.2,57.9c-2,0-3.6-0.7-4.8-2.2c-1.2-1.5-1.9-3.4-1.9-5.7c0-2.5,0.6-4.5,1.9-6s2.9-2.3,5-2.3c2,0,3.5,0.7,4.8,2.2
		c1.2,1.5,1.8,3.4,1.8,5.8c0,2.5-0.6,4.4-1.9,5.9S34.2,57.9,32.2,57.9z M32.3,44.8c-1.1,0-1.9,0.5-2.6,1.4c-0.6,0.9-1,2.2-1,3.7
		c0,1.5,0.3,2.8,1,3.7c0.6,0.9,1.5,1.4,2.5,1.4c1.1,0,1.9-0.4,2.5-1.3c0.6-0.9,0.9-2.1,0.9-3.6c0-1.6-0.3-2.9-0.9-3.8
		C34.2,45.2,33.4,44.8,32.3,44.8z"/>
</g>
<g>
	<path d="M44.3,57.6h-3.1V42h3.1V57.6z"/>
</g>
<g>
	<path d="M46.8,57v-3.5c0.6,0.5,1.2,0.9,1.8,1.2s1.3,0.4,2,0.4c0.4,0,0.7,0,1-0.1c0.3-0.1,0.5-0.2,0.7-0.3c0.2-0.1,0.3-0.3,0.4-0.5
		c0.1-0.2,0.1-0.4,0.1-0.6c0-0.3-0.1-0.6-0.2-0.8c-0.2-0.2-0.4-0.5-0.6-0.7c-0.3-0.2-0.6-0.4-0.9-0.6c-0.4-0.2-0.8-0.4-1.2-0.6
		c-1.1-0.5-1.9-1.1-2.4-1.9c-0.5-0.7-0.8-1.6-0.8-2.7c0-0.8,0.1-1.5,0.4-2.1c0.3-0.6,0.7-1.1,1.2-1.4c0.5-0.4,1.1-0.7,1.7-0.8
		c0.7-0.2,1.3-0.3,2.1-0.3c0.7,0,1.3,0,1.9,0.1c0.6,0.1,1.1,0.2,1.5,0.5v3.3c-0.2-0.2-0.5-0.3-0.8-0.5c-0.3-0.1-0.5-0.3-0.8-0.3
		s-0.6-0.2-0.9-0.2c-0.3,0-0.6-0.1-0.8-0.1c-0.4,0-0.7,0-1,0.1s-0.5,0.2-0.7,0.3c-0.2,0.1-0.4,0.3-0.5,0.5c-0.1,0.2-0.2,0.4-0.2,0.6
		c0,0.3,0.1,0.5,0.2,0.7c0.1,0.2,0.3,0.4,0.5,0.6c0.2,0.2,0.5,0.4,0.8,0.5c0.3,0.2,0.7,0.4,1.1,0.5c0.5,0.3,1,0.5,1.5,0.8
		c0.4,0.3,0.8,0.6,1.1,1s0.6,0.8,0.7,1.3c0.2,0.5,0.2,1,0.2,1.7c0,0.9-0.1,1.6-0.4,2.2c-0.3,0.6-0.7,1.1-1.2,1.4s-1.1,0.6-1.7,0.8
		s-1.4,0.2-2.1,0.2c-0.8,0-1.5-0.1-2.1-0.2C47.9,57.5,47.3,57.3,46.8,57z"/>
</g>
<g>
	<path d="M64.2,57.9c-2,0-3.6-0.7-4.8-2.2c-1.2-1.5-1.9-3.4-1.9-5.7c0-2.5,0.6-4.5,1.9-6s2.9-2.3,5-2.3c2,0,3.5,0.7,4.8,2.2
		c1.2,1.5,1.8,3.4,1.8,5.8c0,2.5-0.6,4.4-1.9,5.9S66.3,57.9,64.2,57.9z M64.4,44.8c-1.1,0-1.9,0.5-2.6,1.4c-0.6,0.9-1,2.2-1,3.7
		c0,1.5,0.3,2.8,1,3.7c0.6,0.9,1.5,1.4,2.5,1.4c1.1,0,1.9-0.4,2.5-1.3c0.6-0.9,0.9-2.1,0.9-3.6c0-1.6-0.3-2.9-0.9-3.8
		C66.3,45.2,65.4,44.8,64.4,44.8z"/>
</g>
<g>
	<path d="M85.7,57.6h-3.1l-5.7-9.8c-0.3-0.6-0.6-1-0.7-1.3h0c0.1,0.6,0.1,1.4,0.1,2.5v8.6h-2.9V42h3.3l5.4,9.5
		c0.2,0.4,0.5,0.9,0.7,1.3h0c-0.1-0.4-0.1-1.1-0.1-2.1V42h2.9V57.6z"/>
</g>
<g>
	<path d="M47.4,18.3c0,0,1.6-0.7,2.4-0.1c0.8,0.5,0.1,1.9-0.6,2.3c-0.7,0.4-1.8-0.3-2-0.7C47.1,19.5,47.1,18.6,47.4,18.3z"/>
</g>
<g>
	<path d="M51.9,18.3c0,0,1-0.7,2.1-0.1s0.6,2-0.1,2.3C53,20.7,51.2,20.2,51.9,18.3z"/>
</g>
<g>
	<path d="M50.4,21.4c0,0-0.4,0.8-0.4,1.3c0,0.5,0.4,1.3,0.9,1.2s0.7-0.5,0.8-1.2C51.8,21.9,51.6,20.9,50.4,21.4z"/>
</g>
<g>
	<path d="M54.1,25.2c0.8-0.3,6.4-2.6,6.5-2.9c0.1-0.3,0.1-1.1-0.3-1.4c-0.4-0.4-2.1,0.2-2.8,0.8c-0.6,0.5-3,1.6-3,1.6s1.1-1.4,1.2-2
		c0-0.6,0.3-1.9,0.4-2.3c0.1-0.4,1.2-2.6,1.1-3.7c0-1.1-0.2-2.8-0.2-2.8s-1.1-2.9-3.9-3s-5.9-0.1-7.5,1.4c-1.6,1.5-0.7,5.3-0.7,5.3
		s1,4.4,1.1,5c0,0.6,0.6,1.7,0.6,1.7L42,20c0,0-0.9,0.4-0.8,1.4c0.1,1,6.4,3.7,6.4,3.7s0.2,1.2,0,1.3c-0.2,0.1-1.3,1.4-2.3,1.8
		c-1.1,0.4-3.2,1.1-3.2,2c0,0.9,0.9,1.5,1.4,1.4c0.6-0.1,5.2-3.8,5.2-3.8s2.7-0.3,4.4,0.4c1.7,0.7,4.3,3.5,5.1,3.3
		c0.8-0.2,1.3-1.6,1.1-1.9c-0.2-0.3-5.5-3.1-5.5-3.1S53.3,25.5,54.1,25.2z M54.6,24c0.2-0.1,4.2-2.3,4.2-2.3s0.9-0.4,0.9,0
		c0.1,0.4,0.3,0.4-0.7,0.8c-1,0.4-4.4,1.9-4.6,1.9C54.2,24.5,54.4,24.1,54.6,24z M47.5,24.4c-0.4,0-4.3-2.2-4.6-2.4
		c-0.3-0.1-1.7-0.6-0.4-1.1c0,0,4.2,2.5,4.5,2.6C47.3,23.8,47.9,24.4,47.5,24.4z M47.6,28c-0.1,0.2-2.7,1.7-3.4,2.4
		c-0.7,0.7-0.9,0.2-0.9-0.2c0-0.4,0.8-0.7,1.1-0.9c0.2-0.1,3.2-1.9,3.2-1.9C47.9,27.4,47.7,27.8,47.6,28z M48.6,26.8
		c-0.7-0.1-0.7-2.2-0.2-1.9c0,0,0.5,1.4,0.7,1.5C49.3,26.5,49.3,26.9,48.6,26.8z M52.7,27c-0.4,0.2-2.5,0.3-2.8,0.3
		c-0.3,0-0.2-0.5,0.3-0.5c0.5,0,1.9,0,2.2-0.3c0.3-0.3,0.8-1.3,1.1-1C53.5,25.5,53.1,26.8,52.7,27z M56.3,28.6
		c0.4,0.2,2.2,1.6,2.2,1.6s0.2,0.5-0.3,0.5s-2.4-2.2-3.7-2.7c-1.3-0.5-1.4-0.7-1-0.8C53.9,27,55.9,28.3,56.3,28.6z M52.1,25.5
		c-0.6,0.7-1.8,0.5-2.3,0.3c-0.5-0.2-1.8-2.7-1.8-2.7c-0.7-0.7-1.6-1.3-1.7-1.8c-0.1-0.5-0.1-4.9,0-5.2c0-0.3-0.4-1.2-0.5-0.4
		c-0.1,0.8-0.3,0.8-0.3,0.8l-0.2-1.9c0,0-0.2-1.4,0.9-3c1.1-1.6,5.1-1.8,7.2-1.4c2.1,0.4,3.1,2.4,3.3,3.5s-0.1,2.8-0.3,3.1
		c-0.2,0.3-0.2-1-0.3-1.1c-0.1-0.1-0.7,0-0.7,0s0,3,0,4.2c0,1.3-0.6,2-1.1,2.6C53.7,23.2,52.7,24.8,52.1,25.5z"/>
</g>
</svg>
