<?xml version="1.0" encoding="utf-8"?>
<!-- Generator: Adobe Illustrator 25.2.0, SVG Export Plug-In . SVG Version: 6.00 Build 0)  -->
<svg version="1.1" id="Layer_1" xmlns="http://www.w3.org/2000/svg" xmlns:xlink="http://www.w3.org/1999/xlink" x="0px" y="0px"
	 viewBox="0 0 100 100" style="enable-background:new 0 0 100 100;" xml:space="preserve">
<polygon style="fill:#F3AA3C;" points="50.6,1.8 98,49.9 50.2,98.2 2,50 "/>
<g>
	<path d="M14.7,58.2V41.7h5.6v3.2h-3.5v2.9h3.3v3.2h-3.3V55h3.5v3.2H14.7z"/>
</g>
<g>
	<path d="M28.8,58.2h-2.4l-1.6-5.3l-1.6,5.3h-2.3l2.7-8.3l-2.6-8.2h2.4l1.5,5l1.5-5h2.3l-2.6,8L28.8,58.2z"/>
</g>
<g>
	<path d="M36,46.9c0,0.8-0.1,1.5-0.2,2.2c-0.1,0.7-0.3,1.3-0.5,1.7c-0.1,0.3-0.3,0.6-0.5,0.8c-0.2,0.2-0.4,0.5-0.6,0.6
		c-0.2,0.2-0.4,0.3-0.7,0.4s-0.5,0.1-0.8,0.1h-1.1v5.4h-2.1V41.7h3.2c0.5,0,0.9,0.1,1.2,0.3c0.3,0.2,0.7,0.4,0.9,0.8
		c0.3,0.4,0.6,1,0.7,1.7C35.9,45.1,36,45.9,36,46.9z M33.8,47c0-0.5-0.1-0.9-0.2-1.2c-0.1-0.3-0.2-0.6-0.4-0.7
		c-0.2-0.2-0.4-0.3-0.6-0.3c-0.2,0-0.4,0-0.7,0h-0.3v4.9h0.1c0.2,0,0.4,0,0.6,0c0.2,0,0.3,0,0.5-0.1c0.1,0,0.2-0.1,0.4-0.2
		c0.1-0.1,0.2-0.2,0.3-0.4c0.1-0.3,0.2-0.6,0.3-0.9C33.8,47.9,33.8,47.5,33.8,47z"/>
</g>
<g>
	<path d="M42.7,58.2h-5.6V41.7h2.1V55h3.5V58.2z"/>
</g>
<g>
	<path d="M51.2,49.9c0,2.7-0.4,4.8-1.1,6.3s-1.7,2.3-3,2.3c-1.3,0-2.2-0.8-3-2.3c-0.7-1.5-1.1-3.6-1.1-6.3c0-2.7,0.4-4.8,1.1-6.3
		c0.7-1.5,1.7-2.3,3-2.3c1.3,0,2.2,0.8,3,2.3S51.2,47.3,51.2,49.9z M49.1,49.9c0-1-0.1-1.8-0.2-2.5s-0.2-1.3-0.4-1.7
		c-0.2-0.5-0.4-0.8-0.6-1s-0.5-0.3-0.7-0.3c-0.3,0-0.5,0.1-0.7,0.3c-0.2,0.2-0.4,0.5-0.6,1c-0.2,0.4-0.3,1-0.4,1.7
		c-0.1,0.7-0.2,1.6-0.2,2.5c0,1,0,1.9,0.2,2.5s0.2,1.2,0.4,1.7c0.2,0.5,0.4,0.8,0.6,1c0.2,0.2,0.5,0.3,0.7,0.3
		c0.2,0,0.5-0.1,0.7-0.3c0.2-0.2,0.4-0.5,0.6-1c0.2-0.5,0.3-1,0.4-1.7C49,51.8,49.1,51,49.1,49.9z"/>
</g>
<g>
	<path d="M55,58.5c-0.6,0-1.2-0.1-1.7-0.4c-0.5-0.2-0.9-0.5-1.3-0.9v-3.9h0.2c0.4,0.7,0.9,1.2,1.4,1.6s1,0.6,1.5,0.6
		c0.1,0,0.3,0,0.5-0.1c0.2-0.1,0.4-0.1,0.5-0.2c0.1-0.1,0.3-0.3,0.4-0.5c0.1-0.2,0.2-0.5,0.2-0.9c0-0.4-0.1-0.8-0.2-1
		c-0.2-0.3-0.4-0.4-0.6-0.6c-0.3-0.1-0.6-0.3-0.9-0.4s-0.6-0.3-0.9-0.5c-0.6-0.5-1.1-1.1-1.4-1.8c-0.3-0.8-0.4-1.7-0.4-2.9
		c0-1.5,0.3-2.8,1-3.8c0.7-1,1.5-1.4,2.5-1.4c0.5,0,1,0.1,1.5,0.3c0.5,0.2,0.9,0.5,1.3,0.8v3.8h-0.2c-0.3-0.5-0.7-1-1.1-1.3
		c-0.4-0.4-0.9-0.5-1.4-0.5c-0.2,0-0.3,0-0.5,0.1c-0.1,0.1-0.3,0.2-0.5,0.3c-0.1,0.1-0.2,0.3-0.3,0.5c-0.1,0.2-0.1,0.5-0.1,0.8
		c0,0.4,0.1,0.8,0.2,1c0.2,0.2,0.4,0.5,0.9,0.7c0.3,0.1,0.5,0.2,0.8,0.4c0.3,0.1,0.5,0.3,0.8,0.5c0.6,0.4,1,1,1.3,1.7
		s0.4,1.6,0.4,2.8c0,1.6-0.3,3-1,4C57,58,56.1,58.5,55,58.5z"/>
</g>
<g>
	<path d="M63.9,58.2h-4.5v-2.9h1.2V44.6h-1.2v-2.9h4.5v2.9h-1.2v10.8h1.2V58.2z"/>
</g>
<g>
	<path d="M72.2,41.7l-2.9,16.5h-2.2l-2.9-16.5h2.2l1.8,11.2l1.8-11.2H72.2z"/>
</g>
<g>
	<path d="M73,58.2V41.7h5.6v3.2H75v2.9h3.3v3.2H75V55h3.5v3.2H73z"/>
</g>
<g>
	<path d="M82.6,58.5c-0.6,0-1.2-0.1-1.7-0.4c-0.5-0.2-0.9-0.5-1.3-0.9v-3.9h0.2c0.4,0.7,0.9,1.2,1.4,1.6s1,0.6,1.5,0.6
		c0.1,0,0.3,0,0.5-0.1c0.2-0.1,0.4-0.1,0.5-0.2c0.1-0.1,0.3-0.3,0.4-0.5c0.1-0.2,0.2-0.5,0.2-0.9c0-0.4-0.1-0.8-0.2-1
		c-0.2-0.3-0.4-0.4-0.6-0.6c-0.3-0.1-0.6-0.3-0.9-0.4s-0.6-0.3-0.9-0.5c-0.6-0.5-1.1-1.1-1.4-1.8c-0.3-0.8-0.4-1.7-0.4-2.9
		c0-1.5,0.3-2.8,1-3.8c0.7-1,1.5-1.4,2.5-1.4c0.5,0,1,0.1,1.5,0.3c0.5,0.2,0.9,0.5,1.3,0.8v3.8h-0.2c-0.3-0.5-0.7-1-1.1-1.3
		c-0.4-0.4-0.9-0.5-1.4-0.5c-0.2,0-0.3,0-0.5,0.1c-0.1,0.1-0.3,0.2-0.5,0.3c-0.1,0.1-0.2,0.3-0.3,0.5c-0.1,0.2-0.1,0.5-0.1,0.8
		c0,0.4,0.1,0.8,0.2,1c0.2,0.2,0.4,0.5,0.9,0.7c0.3,0.1,0.5,0.2,0.8,0.4c0.3,0.1,0.5,0.3,0.8,0.5c0.6,0.4,1,1,1.3,1.7
		s0.4,1.6,0.4,2.8c0,1.6-0.3,3-1,4C84.6,58,83.7,58.5,82.6,58.5z"/>
</g>
<g>
	<path d="M45.2,81H37v-2.4h2.6v-7.4H37v-2.3c0.4,0,0.8,0,1.1-0.1s0.7-0.1,0.9-0.3c0.3-0.1,0.5-0.4,0.6-0.6c0.1-0.3,0.2-0.6,0.3-0.9
		h2.7v11.6h2.6V81z"/>
</g>
<g>
	<path d="M50.4,81h-3v-3.7h3V81z"/>
</g>
<g>
	<path d="M61.9,76.3c0,1.5-0.4,2.7-1.2,3.6c-0.8,0.9-2,1.4-3.4,1.4c-0.7,0-1.4-0.1-1.9-0.4c-0.6-0.2-1-0.6-1.4-1
		c-0.5-0.5-0.8-1.2-1.1-2.1s-0.4-1.9-0.4-3c0-1.2,0.1-2.3,0.3-3.3c0.2-0.9,0.6-1.8,1.1-2.5c0.5-0.7,1.2-1.2,2-1.6
		c0.8-0.4,1.8-0.6,2.9-0.6c0.4,0,0.8,0,1.2,0.1c0.4,0.1,0.7,0.1,0.8,0.1v2.7h-0.2c-0.1-0.1-0.4-0.2-0.7-0.3
		c-0.3-0.1-0.7-0.2-1.1-0.2c-1,0-1.7,0.3-2.3,0.9c-0.5,0.6-0.9,1.4-1,2.5c0.4-0.3,0.8-0.5,1.2-0.7c0.4-0.2,0.9-0.3,1.4-0.3
		c0.4,0,0.9,0.1,1.3,0.2c0.4,0.1,0.7,0.3,1,0.6c0.4,0.4,0.8,0.9,1,1.5S61.9,75.3,61.9,76.3z M58.3,78.4c0.2-0.2,0.3-0.5,0.4-0.7
		c0.1-0.3,0.1-0.7,0.1-1.2c0-0.4,0-0.8-0.1-1.1c-0.1-0.3-0.2-0.5-0.4-0.7c-0.2-0.2-0.4-0.3-0.6-0.4c-0.2-0.1-0.5-0.1-0.7-0.1
		c-0.2,0-0.4,0-0.7,0.1c-0.2,0.1-0.4,0.1-0.6,0.2c0,0.1,0,0.2,0,0.3c0,0.1,0,0.3,0,0.5c0,0.8,0.1,1.4,0.2,1.9s0.3,0.9,0.5,1.1
		c0.1,0.2,0.3,0.3,0.5,0.4c0.2,0.1,0.4,0.1,0.6,0.1c0.2,0,0.3,0,0.5-0.1S58.2,78.6,58.3,78.4z"/>
</g>
<g>
	<path d="M47.9,26.7c0,0-1-1.3-1.3-1s-1.4,2.5-2.5,2.5c-1.1,0.1-3.2-0.3-3.9-1.1s-0.7-1.9-0.7-1.9s1.7-2.2,4.2-2.1
		C46.2,23.3,48.2,25.5,47.9,26.7z"/>
</g>
<g>
	<path d="M47.7,28.6c0,0,0.4,0.8-0.4,1.7s-1.9,2-4,1.8c-2-0.2-4.2-3.1-4.3-3.4s0.7-0.9,1.8-0.3s1.8,0.9,3.5,0.3S47.3,27.7,47.7,28.6
		z"/>
</g>
<g>
	<path d="M38.3,27.8c0,0-15.4,6-15.7,6.3s0.7,0.3,1.2,0.2c0.5-0.2,14.6-5.9,14.6-5.9S38.8,27.9,38.3,27.8z"/>
</g>
<g>
	<path d="M38.6,29.6c0,0-4,1.8-4.6,2.2s-3.8,2.5-3.8,2.5s-0.1,0.5,0.6,0.3C31.5,34.4,38,30.6,38.6,29.6z"/>
</g>
<g>
	<path d="M38.8,30.4c0,0-3.2,2.4-3.4,2.6c-0.2,0.3-1.3,1-1,1.1s1.2-0.4,1.5-0.6s3.1-2.6,3.1-2.6S39.4,30.3,38.8,30.4z"/>
</g>
<g>
	<path d="M39.5,31.2l-2.1,2c0,0,0.3,0.3,0.9,0c0.6-0.3,1.5-1.5,1.5-1.5S40,31.1,39.5,31.2z"/>
</g>
<g>
	<path d="M46.3,32.9c0,0-0.5,0.2-0.3,0.6s1.1,1.1,1.1,1.1s0.5-0.1,0.2-0.5C47.1,33.7,46.3,32.9,46.3,32.9z"/>
</g>
<g>
	<path d="M46.9,31.7c0,0,0.7,2.2,1.2,2.8c0.5,0.5,1.2,1.1,1.3,0.7s-1.1-2.9-1.4-3.2C47.6,31.7,47.1,31.4,46.9,31.7z"/>
</g>
<g>
	<path d="M48.7,30.6l12,5.1c0,0,0.6,0,0.5-0.4s-10.9-4.7-10.9-4.7S49,30,48.7,30.6z"/>
</g>
<g>
	<path d="M49.7,29.8c0,0,2.6,0.4,2.6,0.7c0,0.4-3-0.4-3-0.4S49.2,29.7,49.7,29.8z"/>
</g>
<g>
	<path d="M50,29.5c0,0,2.2,0.7,2.5,0.8s0.5-0.4,0.3-0.4C52.7,29.7,51.2,29,50,29.5z"/>
</g>
<g>
	<path d="M53.4,30c0,0-0.7,0.9-0.5,1.1c0.2,0.2,1.4-0.1,1.2-0.4C53.9,30.4,53.8,29.8,53.4,30z"/>
</g>
<g>
	<path d="M54.8,30.2c0,0,0,0.6,0.4,0.6c0.4,0,6.7,1.7,6.7,1.7s1.2-0.7,0.6-1.2c-0.6-0.5-7.3-1.5-7.3-1.5S54.7,30,54.8,30.2z"/>
</g>
<g>
	<path d="M49.1,28.3l24.6,3.5c0,0,1.2-0.5,0.4-0.7c-0.7-0.2-22.5-3-22.5-3S49.5,27.6,49.1,28.3z"/>
</g>
<g>
	<path d="M49.2,26.3c0,0,11.8-2.2,17.1-1.8c0,0-10.4,1.8-12.5,1.8C51.6,26.3,49.2,26.3,49.2,26.3z"/>
</g>
<g>
	<path d="M48.7,24.8l15.1-5.8c0,0,0.2-0.6-0.3-0.5c-0.5,0.1-15,5.7-15,5.7S48.1,24.7,48.7,24.8z"/>
</g>
<g>
	<path d="M53.9,23.7l6.1-1.9c0,0,0.5-0.6-0.5-0.4c-1,0.2-5.5,1.6-5.5,1.6S53,23.6,53.9,23.7z"/>
</g>
<g>
	<path d="M59.1,22.4c0,0-4.6,1.5-4.8,1.6c-0.2,0.1-0.3,0.5,0.2,0.5c0.5-0.1,5-1.5,5-1.5S60.1,22.2,59.1,22.4z"/>
</g>
<g>
	<path d="M50.7,20.3c0,0,0.3,0.5,0.1,0.9c-0.1,0.3-2.6,2.7-2.6,2.7s-0.5-0.2-0.2-0.6C48.3,22.9,50.4,20.3,50.7,20.3z"/>
</g>
<g>
	<path d="M47.2,23.2l8-12.4c0,0,0-1-0.7-0.3s-7.6,12.3-7.6,12.3L47.2,23.2z"/>
</g>
<g>
	<path d="M51.5,14.5l-2.7,4.8c0,0-0.1-0.4,0-0.8c0.1-0.4,2.3-4,2.3-4H51.5z"/>
</g>
<g>
	<path d="M51.8,11.5l-1.1,2.4c0,0-0.3-0.4-0.1-0.9c0.1-0.5,0.9-2.1,0.9-2.1L51.8,11.5z"/>
</g>
<g>
	<path d="M52.1,7.6l-6.5,15.2v-0.9l5.5-13.9C51.2,7.9,51.7,7.5,52.1,7.6z"/>
</g>
<g>
	<path d="M45.3,14.5c0,0,0.6,1.4,0.4,2.1c-0.2,0.7-0.9,5.8-0.9,5.8s-0.3-2.1-0.2-3.5c0,0-0.6,3.5-0.8,3.5s0-1.5,0-1.8
		C43.7,20.3,44.7,14.8,45.3,14.5z"/>
</g>
<g>
	<path d="M41.4,21.7c0,0-0.8-2.1-1-2.3c-0.2-0.2-0.5-0.3-0.6,0s1.2,2.3,1.2,2.3S41.1,22.1,41.4,21.7z"/>
</g>
<g>
	<path d="M39.1,20.2c0,0,1.6,1.8,1.5,2c-0.1,0.3-0.4,0.3-0.6,0.2c-0.2-0.1-1.4-1.9-1.4-2.1S39.1,20.2,39.1,20.2z"/>
</g>
<g>
	<path d="M38.8,22.7c0,0,0.9,1.4,0.1,1.7c-0.8,0.3-1.2-0.5-1.2-0.8c0-0.3-0.4-1-0.8-1c-0.4,0-1.6-0.2-1.2,0.4
		c0.4,0.7,1.6-0.1,1.5,0.2c-0.1,0.4-0.2,0.8-0.9,0.8c-0.6-0.1-2.1-0.6-1.7-1.5C35.1,21.7,36.9,20.9,38.8,22.7z"/>
</g>
<g>
	<path d="M38.8,26l-2.5-1.2c0,0-0.8,0.1-0.3,0.6c0.5,0.5,2.4,0.9,2.4,0.9S39,26.3,38.8,26z"/>
</g>
<g>
	<path d="M32.8,25.5c0,0,5.4,1.3,5.6,1.3c0.2,0,0.3,0.2,0,0.3c-0.3,0-5.1-0.7-5.6-0.8C32.4,26.2,32.2,25.5,32.8,25.5z"/>
</g>
<g>
	<path d="M42.6,15.8c0,0-0.4-0.2-0.6-0.2c-0.2,0-2.2,2-1.3,2.7c0.8,0.7,1.8,1.4,1.8,1.4s0.8-0.8,1.2-1.8
		C44,16.9,42.6,15.8,42.6,15.8z M42.9,17.2c-0.1,0.3-0.6,0.3-0.7,0.1c-0.2-0.2-0.6-0.3-0.6-0.2c0,0.2-0.2,1.1-0.5,1.1
		s-0.1-0.6,0-0.8s0.5-1.4,1.2-1.2C42.3,16.2,43.1,16.9,42.9,17.2z"/>
</g>
<g>
	<path d="M47.8,12c0,0-1.5,1.4-1.6,1.9c-0.1,0.5-0.3,1.1,0,1c0.3-0.1,0.5-0.9,0.7-0.7s0.4,0.9,0.1,1c-0.4,0.2-0.7,0.7-0.3,0.7
		c0.5,0.1,1.6-1.9,1.7-2.3c0.1-0.4,0.3-0.9,0-0.8c-0.3,0.1-0.5,0.7-0.6,0.4c-0.1-0.3,0.3-0.7,0.3-0.9S48.1,12,47.8,12z"/>
</g>
<g>
	<path d="M55.6,14.2c0,0-1.9,1.6-2.3,2c-0.4,0.5-1.4,1.4-1.2,1.9c0.2,0.5,1.1,0.5,1.4,0.3c0.4-0.1,1.3-0.2,0.8,0
		c-0.5,0.3-1.3,0.3-1.5,0.5c-0.2,0.2-0.3,0.1-0.9,0.3c-0.6,0.1-0.4,1,0.2,1s1.2-0.7,1.5-0.8c0.3,0,1.9-1.3,2.3-1.4s0.8-0.7,0.4-0.7
		c-0.4,0-2.5,0.2-2.7,0.3s-0.5-0.2-0.3-0.4c0.2-0.2,1.2-0.5,1.4-0.5c0.2,0-0.2-0.3-0.2-0.5c0-0.2,0.4-0.5,0.6-0.5s0.9,0.8,1.3,0.2
		c0.4-0.6,0.4-1.3,0-1.1c-0.4,0.3,0.1,0.6-0.8,0.6c-0.9,0-0.3-0.7,0-0.9C55.9,14.5,56.1,14.1,55.6,14.2z"/>
</g>
<g>
	<path d="M67.8,25.9c0,0,1,0.1,0.6,1.1s-1.7,1.7-2,1.7s-0.3-0.4,0.2-0.8c0.5-0.4,1.3-0.7,1.2-1.1s-0.5-0.5-0.9-0.1
		c-0.4,0.4-0.9,1.2-1.2,1.2s-0.5-0.6-0.1-0.9C65.9,26.7,66.8,25.7,67.8,25.9z"/>
</g>
</svg>
