<?xml version="1.0" encoding="utf-8"?>
<!-- Generator: Adobe Illustrator 25.2.0, SVG Export Plug-In . SVG Version: 6.00 Build 0)  -->
<svg version="1.1" id="Layer_1" xmlns="http://www.w3.org/2000/svg" xmlns:xlink="http://www.w3.org/1999/xlink" x="0px" y="0px"
	 viewBox="0 0 100 100" style="enable-background:new 0 0 100 100;" xml:space="preserve">
<g>
	<path d="M28.6,45h-5v12h-4V45h-5v-2.7h14V45z"/>
</g>
<g>
	<path d="M37.4,57.2c-2.5,0-4.6-0.7-6.2-2c-1.6-1.4-2.4-3.1-2.4-5.3c0-2.3,0.8-4.2,2.4-5.6c1.6-1.4,3.7-2.1,6.4-2.1
		c2.5,0,4.5,0.7,6.1,2.1s2.3,3.2,2.3,5.4c0,2.3-0.8,4.2-2.4,5.6C42.1,56.5,40,57.2,37.4,57.2z M37.6,44.9c-1.4,0-2.5,0.4-3.3,1.3
		c-0.8,0.9-1.2,2-1.2,3.4c0,1.5,0.4,2.6,1.2,3.4c0.8,0.8,1.9,1.3,3.2,1.3c1.4,0,2.4-0.4,3.2-1.2c0.8-0.8,1.2-2,1.2-3.4
		c0-1.5-0.4-2.7-1.2-3.5C40,45.3,38.9,44.9,37.6,44.9z"/>
</g>
<g>
	<path d="M62.8,56.9h-4.7l-3-4.8c-0.1-0.2-0.2-0.5-0.4-1h0c-0.1,0.2-0.2,0.6-0.4,1l-3,4.7h-4.7l5.6-7.3l-5.1-7.3h4.8l2.5,4.4
		c0.2,0.3,0.4,0.8,0.5,1.2h0c0.1-0.3,0.3-0.7,0.6-1.3l2.8-4.4h4.4l-5.3,7.3L62.8,56.9z"/>
</g>
<g>
	<path d="M68.8,56.9h-4V42.3h4V56.9z"/>
</g>
<g>
	<path d="M85.4,56.4c-1.3,0.5-3,0.8-5,0.8c-2.7,0-4.8-0.7-6.4-2c-1.5-1.3-2.3-3.1-2.3-5.3c0-2.3,0.9-4.2,2.6-5.7
		c1.7-1.5,4-2.2,6.8-2.2c1.7,0,3.2,0.2,4.3,0.5v3.2c-1.2-0.6-2.5-0.9-4-0.9c-1.7,0-3,0.4-4,1.3c-1,0.9-1.5,2-1.5,3.5
		c0,1.4,0.5,2.5,1.4,3.4s2.2,1.3,3.9,1.3c1.5,0,3-0.3,4.2-0.9V56.4z"/>
</g>
<g>
	<path d="M44.1,70.9C43,71.6,41.6,72,39.9,72c-1.9,0-3.3-0.6-4.4-1.7c-1.1-1.1-1.6-2.6-1.6-4.6c0-2,0.6-3.6,1.8-4.8
		c1.2-1.2,2.7-1.9,4.7-1.9c1.2,0,2.3,0.2,3.2,0.5v2.6c-0.9-0.6-2-0.8-3.3-0.8c-1.1,0-2,0.4-2.6,1.1s-1,1.8-1,3c0,1.3,0.3,2.3,0.9,3
		c0.6,0.7,1.4,1.1,2.5,1.1c0.6,0,1.1-0.1,1.5-0.3v-2.4h-2.3v-2.2h4.9V70.9z"/>
</g>
<g>
	<path d="M56.5,71.8h-2.8L52.8,69h-4.1l-0.8,2.8h-2.8l4.2-12.5h3.1L56.5,71.8z M52.2,66.8L51,62.6c-0.1-0.3-0.2-0.7-0.2-1.1h-0.1
		c0,0.4-0.1,0.7-0.2,1.1l-1.3,4.2H52.2z"/>
</g>
<g>
	<path d="M57.4,71.3v-2.8c0.5,0.4,1,0.7,1.5,1c0.5,0.2,1.1,0.3,1.7,0.3c0.3,0,0.6,0,0.9-0.1c0.2-0.1,0.4-0.2,0.6-0.3
		c0.2-0.1,0.3-0.2,0.4-0.4c0.1-0.2,0.1-0.3,0.1-0.5c0-0.2-0.1-0.5-0.2-0.7c-0.1-0.2-0.3-0.4-0.5-0.5c-0.2-0.2-0.5-0.3-0.8-0.5
		c-0.3-0.2-0.6-0.3-1-0.5c-0.9-0.4-1.6-0.9-2-1.5c-0.4-0.6-0.7-1.3-0.7-2.1c0-0.6,0.1-1.2,0.4-1.7c0.2-0.5,0.6-0.9,1-1.2
		c0.4-0.3,0.9-0.5,1.4-0.7c0.5-0.1,1.1-0.2,1.7-0.2c0.6,0,1.1,0,1.6,0.1s0.9,0.2,1.3,0.4v2.6c-0.2-0.1-0.4-0.3-0.6-0.4
		c-0.2-0.1-0.5-0.2-0.7-0.3c-0.2-0.1-0.5-0.1-0.7-0.2c-0.2,0-0.5-0.1-0.7-0.1c-0.3,0-0.6,0-0.8,0.1c-0.2,0.1-0.4,0.1-0.6,0.3
		c-0.2,0.1-0.3,0.2-0.4,0.4c-0.1,0.2-0.1,0.3-0.1,0.5c0,0.2,0.1,0.4,0.2,0.6s0.2,0.3,0.4,0.5c0.2,0.1,0.4,0.3,0.7,0.4
		c0.3,0.1,0.6,0.3,0.9,0.4c0.5,0.2,0.9,0.4,1.2,0.7s0.7,0.5,0.9,0.8c0.3,0.3,0.5,0.6,0.6,1c0.1,0.4,0.2,0.8,0.2,1.3
		c0,0.7-0.1,1.3-0.4,1.8c-0.2,0.5-0.6,0.9-1,1.1c-0.4,0.3-0.9,0.5-1.5,0.6c-0.6,0.1-1.1,0.2-1.8,0.2c-0.6,0-1.2-0.1-1.8-0.2
		C58.3,71.7,57.8,71.5,57.4,71.3z"/>
</g>
<g>
	<path d="M52.8,85.8c0,0.8-0.2,1.5-0.6,2s-1,0.8-1.7,0.8c-0.4,0-0.7-0.1-1-0.2c-0.3-0.1-0.5-0.3-0.7-0.6c-0.2-0.3-0.4-0.7-0.6-1.2
		C48.1,86.2,48,85.6,48,85c0-0.7,0.1-1.3,0.2-1.8c0.1-0.5,0.3-1,0.6-1.4c0.3-0.4,0.6-0.7,1-0.9c0.4-0.2,0.9-0.3,1.5-0.3
		c0.2,0,0.4,0,0.6,0c0.2,0,0.3,0.1,0.4,0.1v1.5h-0.1c-0.1,0-0.2-0.1-0.4-0.2c-0.2-0.1-0.4-0.1-0.6-0.1c-0.5,0-0.9,0.2-1.1,0.5
		c-0.3,0.3-0.4,0.8-0.5,1.4c0.2-0.2,0.4-0.3,0.6-0.4c0.2-0.1,0.5-0.1,0.7-0.1c0.2,0,0.4,0,0.6,0.1s0.4,0.2,0.5,0.3
		c0.2,0.2,0.4,0.5,0.5,0.8C52.7,84.9,52.8,85.3,52.8,85.8z M51,87c0.1-0.1,0.1-0.3,0.2-0.4c0-0.1,0.1-0.4,0.1-0.7
		c0-0.3,0-0.5-0.1-0.6S51,85,50.9,84.9c-0.1-0.1-0.2-0.2-0.3-0.2c-0.1,0-0.2-0.1-0.4-0.1c-0.1,0-0.2,0-0.3,0.1
		c-0.1,0-0.2,0.1-0.3,0.1c0,0,0,0.1,0,0.2s0,0.2,0,0.3c0,0.5,0,0.8,0.1,1.1c0.1,0.3,0.1,0.5,0.2,0.6c0.1,0.1,0.2,0.2,0.3,0.2
		s0.2,0.1,0.3,0.1c0.1,0,0.2,0,0.3-0.1C50.8,87.2,50.9,87.1,51,87z"/>
</g>
<g>
	<path d="M45.4,20.1c0,0,1.6-0.6,2.4-0.1c0.8,0.5,0.1,1.8-0.6,2.2c-0.7,0.4-1.8-0.3-2-0.6C45.1,21.2,45.1,20.4,45.4,20.1z"/>
</g>
<g>
	<path d="M49.9,20.1c0,0,1-0.7,2.1-0.1c1,0.5,0.6,1.9-0.1,2.2C51,22.4,49.2,21.9,49.9,20.1z"/>
</g>
<g>
	<path d="M48.5,23.1c0,0-0.4,0.8-0.4,1.2c0,0.5,0.4,1.3,0.9,1.2c0.5-0.2,0.7-0.5,0.8-1.2C49.8,23.6,49.6,22.6,48.5,23.1z"/>
</g>
<g>
	<path d="M52.1,26.8c0.8-0.3,6.4-2.5,6.5-2.8c0.1-0.3,0.1-1-0.3-1.4c-0.4-0.3-2.1,0.2-2.8,0.7c-0.6,0.5-3,1.6-3,1.6s1.1-1.4,1.2-2
		c0-0.6,0.3-1.9,0.4-2.3c0.1-0.4,1.2-2.5,1.1-3.6c0-1.1-0.2-2.7-0.2-2.7s-1.1-2.9-3.9-2.9c-2.8-0.1-5.9-0.1-7.5,1.4
		c-1.6,1.5-0.7,5.2-0.7,5.2s1,4.3,1.1,4.9c0,0.6,0.6,1.7,0.6,1.7L40,21.7c0,0-0.9,0.3-0.8,1.3c0.1,1,6.4,3.6,6.4,3.6s0.2,1.1,0,1.3
		c-0.2,0.1-1.3,1.3-2.3,1.7c-1.1,0.4-3.2,1.1-3.2,1.9c0,0.9,0.9,1.5,1.4,1.4c0.6-0.1,5.2-3.7,5.2-3.7s2.7-0.3,4.4,0.4
		c1.7,0.7,4.3,3.5,5.1,3.2s1.3-1.5,1.1-1.9c-0.2-0.3-5.5-3-5.5-3S51.3,27.1,52.1,26.8z M52.6,25.6c0.2-0.1,4.2-2.2,4.2-2.2
		s0.9-0.4,0.9,0c0.1,0.4,0.3,0.4-0.7,0.8c-1,0.4-4.4,1.9-4.6,1.9C52.3,26.2,52.4,25.8,52.6,25.6z M45.5,26c-0.4,0-4.3-2.2-4.6-2.3
		s-1.7-0.6-0.4-1c0,0,4.2,2.4,4.5,2.6C45.3,25.4,45.9,26,45.5,26z M45.6,29.5c-0.1,0.2-2.7,1.6-3.4,2.3c-0.7,0.7-0.9,0.2-0.9-0.2
		c0-0.4,0.8-0.7,1.1-0.8c0.2-0.1,3.2-1.9,3.2-1.9C45.9,28.9,45.8,29.3,45.6,29.5z M46.7,28.4c-0.7-0.1-0.7-2.1-0.2-1.9
		c0,0,0.5,1.4,0.7,1.5C47.3,28.1,47.3,28.4,46.7,28.4z M50.7,28.5c-0.4,0.2-2.5,0.3-2.8,0.3c-0.3,0-0.2-0.5,0.3-0.5
		c0.5,0,1.9,0,2.2-0.3c0.3-0.3,0.8-1.2,1.1-0.9C51.5,27.1,51.2,28.3,50.7,28.5z M54.3,30.1c0.4,0.2,2.2,1.6,2.2,1.6s0.2,0.5-0.3,0.5
		s-2.4-2.2-3.7-2.7s-1.4-0.7-1-0.8C51.9,28.6,53.9,29.9,54.3,30.1z M50.2,27.1c-0.6,0.7-1.8,0.5-2.3,0.3c-0.5-0.2-1.8-2.6-1.8-2.6
		c-0.7-0.7-1.6-1.3-1.7-1.8c-0.1-0.5-0.1-4.8,0-5.1c0-0.3-0.4-1.1-0.5-0.4c-0.1,0.8-0.3,0.8-0.3,0.8l-0.2-1.9c0,0-0.2-1.4,0.9-2.9
		c1.1-1.6,5.1-1.7,7.2-1.3c2.1,0.4,3.1,2.4,3.3,3.5s-0.1,2.7-0.3,3.1c-0.2,0.3-0.2-1-0.3-1.1s-0.7,0-0.7,0s0,2.9,0,4.1
		c0,1.2-0.6,1.9-1.1,2.5C51.7,24.8,50.7,26.4,50.2,27.1z"/>
</g>
</svg>
