<?xml version="1.0" encoding="utf-8"?>
<!-- Generator: Adobe Illustrator 25.2.0, SVG Export Plug-In . SVG Version: 6.00 Build 0)  -->
<svg version="1.1" id="Layer_1" xmlns="http://www.w3.org/2000/svg" xmlns:xlink="http://www.w3.org/1999/xlink" x="0px" y="0px"
	 viewBox="0 0 100 100" style="enable-background:new 0 0 100 100;" xml:space="preserve">
<polygon style="fill:#F8CC46;" points="50.6,3.8 96.3,49.9 50.2,96.2 3.7,50 "/>
<g>
	<path d="M23.2,49.8c-1.4,0-2.6-0.6-3.5-1.7c-0.9-1.1-1.4-2.6-1.4-4.4c0-1.9,0.5-3.4,1.4-4.6c0.9-1.2,2.2-1.8,3.7-1.8
		c1.4,0,2.6,0.6,3.5,1.7c0.9,1.1,1.3,2.6,1.3,4.4c0,1.9-0.5,3.4-1.4,4.6S24.7,49.8,23.2,49.8z M23.3,39.7c-0.8,0-1.4,0.4-1.9,1.1
		c-0.5,0.7-0.7,1.7-0.7,2.8c0,1.2,0.2,2.1,0.7,2.8c0.5,0.7,1.1,1,1.8,1c0.8,0,1.4-0.3,1.9-1c0.5-0.7,0.7-1.6,0.7-2.8
		c0-1.2-0.2-2.2-0.7-2.9C24.7,40.1,24.1,39.7,23.3,39.7z"/>
</g>
<g>
	<path d="M38.3,49.6h-2.6l-1.6-3.1c-0.1-0.2-0.2-0.4-0.3-0.6s-0.2-0.3-0.3-0.5c-0.1-0.1-0.2-0.2-0.3-0.3C33,45.1,32.9,45,32.8,45
		h-0.6v4.6h-2.3v-12h3.6c2.5,0,3.7,1.1,3.7,3.3c0,0.4-0.1,0.8-0.2,1.2s-0.3,0.7-0.5,1c-0.2,0.3-0.4,0.5-0.7,0.7
		c-0.3,0.2-0.6,0.4-0.9,0.5v0c0.2,0.1,0.3,0.1,0.4,0.3s0.3,0.3,0.4,0.4c0.1,0.2,0.3,0.3,0.4,0.5c0.1,0.2,0.2,0.4,0.3,0.6L38.3,49.6z
		 M32.1,39.6V43h1c0.5,0,0.9-0.2,1.2-0.5c0.3-0.3,0.5-0.8,0.5-1.3c0-1.1-0.5-1.6-1.6-1.6H32.1z"/>
</g>
<g>
	<path d="M47.4,48.8c-1,0.7-2.2,1-3.7,1c-1.6,0-2.9-0.5-3.8-1.6c-0.9-1.1-1.4-2.5-1.4-4.4c0-1.9,0.5-3.4,1.5-4.6
		c1-1.2,2.4-1.8,4.1-1.8c1.1,0,2,0.2,2.8,0.5v2.5c-0.8-0.5-1.7-0.8-2.9-0.8c-0.9,0-1.7,0.4-2.3,1.1c-0.6,0.7-0.9,1.7-0.9,2.9
		c0,1.2,0.3,2.2,0.8,2.9c0.5,0.7,1.3,1,2.2,1c0.5,0,1-0.1,1.3-0.3v-2.3h-2v-2.2h4.3V48.8z"/>
</g>
<g>
	<path d="M58.3,49.6h-2.5l-0.7-2.7h-3.6l-0.7,2.7h-2.5l3.7-12h2.7L58.3,49.6z M54.6,44.9l-1.1-4c-0.1-0.3-0.1-0.7-0.2-1.1h-0.1
		c0,0.4-0.1,0.7-0.2,1L52,44.9H54.6z"/>
</g>
<g>
	<path d="M68.6,49.6h-2.3l-4.2-7.6c-0.2-0.4-0.4-0.8-0.5-1h0c0,0.4,0.1,1.1,0.1,1.9v6.6h-2.1v-12H62l4,7.3c0.2,0.3,0.4,0.7,0.5,1h0
		c0-0.3-0.1-0.8-0.1-1.7v-6.7h2.1V49.6z"/>
</g>
<g>
	<path d="M73.2,49.6H71v-12h2.3V49.6z"/>
</g>
<g>
	<path d="M82.8,49.2c-0.7,0.4-1.7,0.6-2.9,0.6c-1.5,0-2.8-0.5-3.7-1.6c-0.9-1.1-1.3-2.5-1.3-4.3c0-1.9,0.5-3.5,1.5-4.7
		c1-1.2,2.3-1.8,3.9-1.8c1,0,1.8,0.1,2.5,0.4v2.6c-0.7-0.5-1.4-0.7-2.3-0.7c-0.9,0-1.7,0.4-2.3,1.1c-0.6,0.7-0.9,1.7-0.9,2.9
		c0,1.2,0.3,2.1,0.8,2.8c0.5,0.7,1.3,1,2.2,1c0.9,0,1.7-0.3,2.4-0.8V49.2z"/>
</g>
<g>
	<path d="M22.5,58.6v4.1h-2.2v-12h3.4c2.4,0,3.6,1.3,3.6,3.8c0,1.2-0.3,2.2-1,2.9c-0.7,0.7-1.6,1.1-2.8,1.1H22.5z M22.5,52.8v3.8
		h0.9c1.2,0,1.7-0.6,1.7-1.9c0-1.2-0.6-1.9-1.7-1.9H22.5z"/>
</g>
<g>
	<path d="M34.5,62.8h-5.8v-12h5.6v2.2h-3.4v2.7h3.2v2.2h-3.2v2.8h3.6V62.8z"/>
</g>
<g>
	<path d="M44.2,62.8h-2.5l-1.5-3.1c-0.1-0.2-0.2-0.4-0.3-0.6c-0.1-0.2-0.2-0.3-0.3-0.5c-0.1-0.1-0.2-0.2-0.3-0.3
		c-0.1-0.1-0.2-0.1-0.4-0.1h-0.6v4.6h-2.2v-12h3.4c2.3,0,3.5,1.1,3.5,3.3c0,0.4-0.1,0.8-0.2,1.2c-0.1,0.4-0.2,0.7-0.4,1
		c-0.2,0.3-0.4,0.5-0.7,0.7s-0.6,0.4-0.9,0.5v0c0.1,0.1,0.3,0.1,0.4,0.3s0.3,0.3,0.4,0.4c0.1,0.2,0.2,0.3,0.4,0.5s0.2,0.4,0.3,0.6
		L44.2,62.8z M38.3,52.8v3.3h0.9c0.5,0,0.8-0.2,1.1-0.5c0.3-0.3,0.4-0.8,0.4-1.3c0-1.1-0.5-1.6-1.5-1.6H38.3z"/>
</g>
<g>
	<path d="M49,63c-1.4,0-2.5-0.6-3.4-1.7c-0.9-1.1-1.3-2.6-1.3-4.4c0-1.9,0.4-3.4,1.3-4.6c0.9-1.2,2.1-1.8,3.5-1.8
		c1.4,0,2.5,0.6,3.3,1.7s1.3,2.6,1.3,4.4c0,1.9-0.4,3.4-1.3,4.6S50.4,63,49,63z M49.1,52.9c-0.8,0-1.4,0.4-1.8,1.1
		c-0.4,0.7-0.7,1.7-0.7,2.8c0,1.2,0.2,2.1,0.7,2.8c0.4,0.7,1,1,1.8,1c0.7,0,1.3-0.3,1.8-1s0.7-1.6,0.7-2.8c0-1.2-0.2-2.2-0.6-2.9
		C50.4,53.2,49.9,52.9,49.1,52.9z"/>
</g>
<g>
	<path d="M62.9,62.8h-2.6l-1.7-3.9c-0.1-0.1-0.1-0.4-0.2-0.8h0c0,0.2-0.1,0.5-0.2,0.8l-1.7,3.9H54l3.1-6l-2.8-6h2.6l1.4,3.6
		c0.1,0.3,0.2,0.6,0.3,1h0c0.1-0.2,0.2-0.6,0.3-1l1.5-3.6h2.4l-2.9,6L62.9,62.8z"/>
</g>
<g>
	<path d="M66.2,62.8h-2.2v-12h2.2V62.8z"/>
</g>
<g>
	<path d="M68.4,62.8v-12h3.4c3.4,0,5.1,2,5.1,5.9c0,1.9-0.5,3.4-1.4,4.5c-0.9,1.1-2.2,1.7-3.7,1.7H68.4z M70.6,52.9v7.6h1.1
		c0.9,0,1.7-0.4,2.2-1.1c0.5-0.7,0.8-1.7,0.8-2.9c0-1.1-0.3-2-0.8-2.7c-0.5-0.7-1.3-1-2.2-1H70.6z"/>
</g>
<g>
	<path d="M84.4,62.8h-5.8v-12h5.6v2.2h-3.4v2.7h3.2v2.2h-3.2v2.8h3.6V62.8z"/>
</g>
<g>
	<path d="M48.8,84c0,0.4-0.1,0.7-0.2,1.1s-0.3,0.6-0.5,0.8c-0.2,0.2-0.5,0.4-0.8,0.5c-0.3,0.1-0.7,0.2-1.1,0.2
		c-0.5,0-0.9-0.1-1.2-0.1s-0.6-0.2-0.8-0.3v-1.6h0.1c0.1,0.1,0.2,0.1,0.3,0.2c0.1,0.1,0.2,0.1,0.4,0.2c0.1,0.1,0.3,0.1,0.5,0.2
		c0.2,0,0.3,0.1,0.5,0.1c0.2,0,0.3,0,0.5-0.1c0.2,0,0.3-0.1,0.5-0.3c0.1-0.1,0.2-0.2,0.2-0.3s0.1-0.3,0.1-0.5c0-0.2,0-0.3-0.1-0.4
		c-0.1-0.1-0.1-0.2-0.2-0.3c-0.1-0.1-0.3-0.2-0.5-0.2c-0.2,0-0.4,0-0.5,0c-0.2,0-0.5,0-0.7,0.1s-0.4,0.1-0.6,0.1h-0.1v-4.1h4.2v1.4
		H46v1.2c0.1,0,0.2,0,0.3,0s0.2,0,0.3,0c0.3,0,0.6,0,0.8,0.1c0.3,0.1,0.5,0.2,0.7,0.3c0.2,0.2,0.4,0.4,0.6,0.7
		C48.8,83.1,48.8,83.5,48.8,84z"/>
</g>
<g>
	<path d="M51.4,86.4h-1.5v-1.9h1.5V86.4z"/>
</g>
<g>
	<path d="M57.2,86.4h-4.6v-1.2c0.4-0.4,0.7-0.7,1.1-1c0.3-0.3,0.6-0.6,0.8-0.9c0.3-0.4,0.5-0.7,0.7-1c0.1-0.3,0.2-0.6,0.2-0.9
		c0-0.3-0.1-0.6-0.3-0.8c-0.2-0.2-0.4-0.3-0.7-0.3c-0.2,0-0.3,0-0.5,0.1s-0.3,0.1-0.4,0.2c-0.1,0.1-0.3,0.2-0.4,0.2
		C53,80.9,52.9,81,52.9,81h-0.1v-1.6c0.2-0.1,0.5-0.2,0.8-0.3C54,79,54.3,79,54.7,79c0.7,0,1.3,0.2,1.7,0.6c0.4,0.4,0.6,0.9,0.6,1.6
		c0,0.4-0.1,0.9-0.3,1.3c-0.2,0.4-0.5,0.9-0.9,1.3c-0.3,0.3-0.5,0.6-0.7,0.8s-0.4,0.4-0.5,0.5h2.7V86.4z"/>
</g>
<path d="M58.6,21.1c-0.1-0.3-0.3,0.3-0.3,0.3v-3.3c0,0-0.3,0.7-0.7,0.8s-0.3-1.1-0.4-1.5c0-0.3,0-1.1-0.3-0.6s-0.8-0.6-0.8-1.3
	c-0.1-0.7-1.4-2.5-1.4-3.4c0-0.8-0.7-0.6-0.8-1.4c-0.1-0.8-0.7-0.3-1.1-0.4c-0.4,0-0.1-1.9-0.2-1.4c-0.1,0.4-0.7-0.2-0.7-0.5
	c0-0.3,0-0.9-0.5-1c-0.5-0.1-0.6-0.6-0.7-1c-0.1-0.3-0.5-0.4-0.6,0c-0.1,0.4-0.1,0.3-0.4,0.8c-0.2,0.4-0.5,0-0.5,0S49.1,8.3,49,8.8
	c-0.1,0.5-0.7-0.2-0.7-0.2s0,0.7,0,1.5s-0.4,0.6-0.8,0.7c-0.4,0.1-0.4-0.2-0.4-0.2v0.9c0,0-0.4,0.1-0.4,0.2s-0.1,2.3-0.4,2.9
	c-0.2,0.6-0.8-0.9-0.8,0c0,0.9-0.4,1.4-0.6,1.6c-0.2,0.2-0.2,2.4-0.3,3.1c-0.1,0.7-1.1,0-1.1,0s0.2,1.2,0,1.9
	c-0.2,0.7-0.8,0.1-0.8,0.4s0,3.3,0,3.3s-0.1,1.6,0.2,2.7c0,0,0,0,0,0c0.9,3.2,4,5.6,7.7,5.6c4.4,0,7.9-3.3,7.9-7.4
	C58.6,25.7,58.7,21.4,58.6,21.1z M52.6,15.9c0-0.3,0-1.1,0.3-1c0,0,1,0.5,0.6,1.6c-0.4,1.1-1.3,1.2-1.2,0.7S52.6,16.2,52.6,15.9z
	 M50,15c0.1-0.2,0.2-0.8,0.7-0.7c0,0,0.7,0.7,0.4,1.3c-0.3,0.7-0.6,1.2-0.9,0.8C49.8,16,49.9,15.3,50,15z M48.1,14.8
	c0,0,1.1,1.7,0.8,2s-0.5,0.4-0.7,0.2s-0.7-0.6-0.7-1.5C47.6,14.6,48.1,14.8,48.1,14.8z M50.7,32.3c-4,0-7.3-3-7.3-6.7
	c0-3.7,3.3-6.7,7.3-6.7c4,0,7.3,3,7.3,6.7C58,29.3,54.8,32.3,50.7,32.3z"/>
</svg>
