<?xml version="1.0" encoding="utf-8"?>
<!-- Generator: Adobe Illustrator 25.2.0, SVG Export Plug-In . SVG Version: 6.00 Build 0)  -->
<svg version="1.1" id="Layer_1" xmlns="http://www.w3.org/2000/svg" xmlns:xlink="http://www.w3.org/1999/xlink" x="0px" y="0px"
	 viewBox="0 0 100 100" style="enable-background:new 0 0 100 100;" xml:space="preserve">
<polygon style="fill:#FADC6D;" points="90.4,42 50.4,1.7 9.6,42 "/>
<g>
	<path d="M19.9,59.7h-2l-1.2-4c-0.1-0.3-0.2-0.6-0.3-0.8c-0.1-0.2-0.2-0.4-0.3-0.6C16,54.1,16,54,15.9,53.9
		c-0.1-0.1-0.2-0.1-0.3-0.1h-0.5v5.9h-1.8V44.3h2.8c1.9,0,2.9,1.4,2.9,4.2c0,0.5,0,1-0.1,1.5s-0.2,0.9-0.4,1.2
		c-0.2,0.4-0.3,0.7-0.6,0.9c-0.2,0.3-0.5,0.5-0.7,0.6v0c0.1,0.1,0.2,0.2,0.3,0.3s0.2,0.3,0.3,0.6c0.1,0.2,0.2,0.4,0.3,0.7
		s0.2,0.5,0.3,0.7L19.9,59.7z M15.1,46.9v4.3h0.8c0.4,0,0.7-0.2,0.9-0.6c0.2-0.4,0.4-1,0.4-1.6c0-1.3-0.4-2-1.2-2H15.1z"/>
</g>
<g>
	<path d="M27.6,59.7h-1.9l-0.6-3.4h-2.8l-0.6,3.4h-1.9l2.9-15.4h2.1L27.6,59.7z M24.7,53.6l-0.8-5.2c-0.1-0.4-0.1-0.8-0.1-1.4h0
		c0,0.5-0.1,0.9-0.1,1.3l-0.9,5.2H24.7z"/>
</g>
<g>
	<path d="M28.6,59.7V44.3h2.8c2.8,0,4.2,2.5,4.2,7.5c0,2.4-0.4,4.3-1.1,5.7c-0.8,1.4-1.8,2.1-3.1,2.1H28.6z M30.4,47.1v9.8h0.9
		c0.8,0,1.4-0.5,1.8-1.4c0.4-0.9,0.7-2.1,0.7-3.7c0-1.5-0.2-2.6-0.7-3.5c-0.4-0.8-1-1.3-1.8-1.3H30.4z"/>
</g>
<g>
	<path d="M38.7,59.7h-1.8V44.3h1.8V59.7z"/>
</g>
<g>
	<path d="M43.8,59.9c-1.1,0-2.1-0.7-2.8-2.2c-0.7-1.4-1.1-3.3-1.1-5.6c0-2.4,0.4-4.4,1.1-5.9S42.8,44,44,44c1.1,0,2,0.7,2.7,2.2
		s1,3.3,1,5.7c0,2.4-0.4,4.4-1.1,5.9C45.9,59.2,45,59.9,43.8,59.9z M43.9,47c-0.6,0-1.1,0.5-1.5,1.4c-0.4,0.9-0.6,2.1-0.6,3.6
		c0,1.5,0.2,2.7,0.6,3.6s0.8,1.3,1.4,1.3c0.6,0,1.1-0.4,1.5-1.3s0.5-2.1,0.5-3.6c0-1.6-0.2-2.8-0.5-3.7C45,47.4,44.5,47,43.9,47z"/>
</g>
<g>
	<path d="M55.8,59.7h-1.9l-0.6-3.4h-2.8L50,59.7H48l2.9-15.4H53L55.8,59.7z M52.9,53.6l-0.8-5.2C52,48,52,47.5,51.9,47h0
		c0,0.5-0.1,0.9-0.1,1.3l-0.9,5.2H52.9z"/>
</g>
<g>
	<path d="M62.3,59.1c-0.6,0.5-1.3,0.8-2.3,0.8c-1.2,0-2.2-0.7-2.9-2.1c-0.7-1.4-1-3.2-1-5.6c0-2.5,0.4-4.5,1.2-6
		c0.8-1.5,1.8-2.3,3-2.3c0.8,0,1.4,0.2,2,0.6v3.3c-0.5-0.6-1.1-0.9-1.8-0.9c-0.7,0-1.3,0.5-1.8,1.4C58.3,49.3,58,50.5,58,52
		c0,1.5,0.2,2.7,0.6,3.6s1,1.3,1.7,1.3c0.7,0,1.3-0.3,1.9-1V59.1z"/>
</g>
<g>
	<path d="M69.2,47.1H67v12.6h-1.8V47.1H63v-2.8h6.3V47.1z"/>
</g>
<g>
	<path d="M72.1,59.7h-1.8V44.3h1.8V59.7z"/>
</g>
<g>
	<path d="M80.5,44.3l-2.7,15.4h-2L73,44.3H75L76.6,55c0.1,0.6,0.1,1.1,0.2,1.5h0c0-0.5,0.1-1,0.2-1.6l1.6-10.7H80.5z"/>
</g>
<g>
	<path d="M86.1,59.7h-4.7V44.3H86v2.8h-2.8v3.4h2.6v2.8h-2.6v3.5h3V59.7z"/>
</g>
<g>
	<path d="M52.9,87.5l-2.7,5.9h-1.8l2.8-6h-3v-1.4h4.6V87.5z"/>
</g>
<g>
	<ellipse cx="49.7" cy="25.5" rx="2.8" ry="3.3"/>
</g>
<g>
	<path d="M56,13.5l-4.2,8.6c0.8,0.7,1.3,1.7,1.4,2.9h8.6C61.7,20.2,59.4,15.9,56,13.5z M37.5,25.1h8.6c0.1-1.2,0.6-2.3,1.4-3
		l-4.2-8.6C39.9,15.9,37.6,20.2,37.5,25.1z M51.1,29.1c-0.5,0.2-1,0.4-1.5,0.4c-0.5,0-0.9-0.1-1.3-0.3l-4.6,8.4
		c1.8,1.1,3.8,1.8,5.9,1.8c2.2,0,4.3-0.7,6.1-1.9L51.1,29.1z"/>
</g>
</svg>
