<?xml version="1.0" encoding="utf-8"?>
<!-- Generator: Adobe Illustrator 25.2.0, SVG Export Plug-In . SVG Version: 6.00 Build 0)  -->
<svg version="1.1" id="Layer_1" xmlns="http://www.w3.org/2000/svg" xmlns:xlink="http://www.w3.org/1999/xlink" x="0px" y="0px"
	 viewBox="0 0 100 100" style="enable-background:new 0 0 100 100;" xml:space="preserve">
<g>
	<path d="M22.9,56.4h-2.4v-5.2H16v5.2h-2.4V43.7H16v5.1h4.5v-5.1h2.4V56.4z"/>
</g>
<g>
	<path d="M34.8,56.4h-2.6l-0.8-2.8h-3.8l-0.8,2.8h-2.6l3.9-12.8H31L34.8,56.4z M30.9,51.4l-1.2-4.3c-0.1-0.3-0.1-0.7-0.2-1.1h-0.1
		c0,0.4-0.1,0.7-0.2,1.1l-1.2,4.3H30.9z"/>
</g>
<g>
	<path d="M45.2,56.4h-2.8l-1.7-3.3c-0.1-0.2-0.2-0.5-0.4-0.7c-0.1-0.2-0.2-0.4-0.3-0.5c-0.1-0.1-0.2-0.2-0.4-0.3
		c-0.1-0.1-0.3-0.1-0.4-0.1h-0.7v4.9h-2.4V43.7H40c2.6,0,3.9,1.2,3.9,3.5c0,0.4-0.1,0.9-0.2,1.2s-0.3,0.7-0.5,1
		c-0.2,0.3-0.5,0.6-0.8,0.8s-0.6,0.4-1,0.5v0c0.2,0.1,0.3,0.2,0.5,0.3c0.2,0.1,0.3,0.3,0.4,0.5s0.3,0.4,0.4,0.6
		c0.1,0.2,0.2,0.4,0.3,0.6L45.2,56.4z M38.6,45.8v3.5h1.1c0.5,0,0.9-0.2,1.3-0.5c0.3-0.4,0.5-0.8,0.5-1.3c0-1.1-0.6-1.7-1.7-1.7
		H38.6z"/>
</g>
<g>
	<path d="M58.5,56.4h-2.4v-7.6c0-0.8,0-1.7,0.1-2.7h-0.1c-0.1,0.8-0.2,1.3-0.3,1.7l-2.5,8.7h-2l-2.6-8.6c-0.1-0.2-0.2-0.8-0.3-1.8
		h-0.1c0.1,1.3,0.1,2.4,0.1,3.3v7.1h-2.2V43.7h3.5l2.2,7.6c0.2,0.6,0.3,1.2,0.4,1.8h0c0.1-0.7,0.3-1.3,0.4-1.8l2.2-7.5h3.5V56.4z"/>
</g>
<g>
	<path d="M67.1,46h-3.8v3.1h3.5v2.3h-3.5v5h-2.4V43.7h6.2V46z"/>
</g>
<g>
	<path d="M77.7,50.9c0,3.8-1.5,5.7-4.5,5.7c-2.9,0-4.4-1.9-4.4-5.6v-7.4h2.4v7.4c0,2.1,0.7,3.1,2,3.1c1.3,0,2-1,2-3v-7.5h2.4V50.9z"
		/>
</g>
<g>
	<path d="M86.4,56.4H80V43.7h2.4v10.4h4V56.4z"/>
</g>
<g>
	<path d="M31.2,62l0.5-0.1c0,0.3,0.1,0.5,0.2,0.7c0.1,0.2,0.2,0.3,0.4,0.4s0.4,0.2,0.6,0.2c0.2,0,0.4,0,0.6-0.1
		c0.2-0.1,0.3-0.2,0.4-0.3s0.1-0.3,0.1-0.5c0-0.2,0-0.3-0.1-0.5s-0.2-0.2-0.4-0.3c-0.1-0.1-0.4-0.1-0.7-0.3S32.1,61,32,60.8
		c-0.2-0.1-0.3-0.3-0.4-0.5c-0.1-0.2-0.1-0.4-0.1-0.7c0-0.3,0.1-0.5,0.2-0.8s0.3-0.4,0.5-0.6c0.2-0.1,0.5-0.2,0.8-0.2
		c0.3,0,0.6,0.1,0.8,0.2c0.2,0.1,0.4,0.3,0.5,0.6c0.1,0.3,0.2,0.5,0.2,0.9l-0.5,0.1c0-0.3-0.1-0.6-0.3-0.8c-0.2-0.2-0.4-0.3-0.7-0.3
		c-0.3,0-0.6,0.1-0.7,0.2c-0.2,0.2-0.2,0.4-0.2,0.6c0,0.2,0.1,0.4,0.2,0.5c0.1,0.1,0.4,0.3,0.8,0.4c0.5,0.1,0.8,0.3,0.9,0.4
		c0.2,0.1,0.4,0.3,0.5,0.6s0.2,0.5,0.2,0.8c0,0.3-0.1,0.6-0.2,0.8c-0.1,0.3-0.3,0.5-0.5,0.6s-0.5,0.2-0.8,0.2c-0.4,0-0.7-0.1-1-0.2
		c-0.3-0.1-0.5-0.4-0.6-0.7C31.3,62.7,31.2,62.3,31.2,62z"/>
</g>
<g>
	<path d="M36.4,63.7v-4.9H35v-0.6h3.3v0.6h-1.4v4.9H36.4z"/>
</g>
<g>
	<path d="M38.6,61.1c0-0.9,0.2-1.6,0.6-2.1s0.9-0.8,1.4-0.8c0.4,0,0.7,0.1,1,0.4c0.3,0.2,0.5,0.6,0.7,1c0.2,0.4,0.2,0.9,0.2,1.5
		c0,0.6-0.1,1.1-0.3,1.5c-0.2,0.4-0.4,0.8-0.7,1s-0.7,0.3-1,0.3c-0.4,0-0.7-0.1-1.1-0.4s-0.5-0.6-0.7-1C38.7,62,38.6,61.5,38.6,61.1
		z M39.2,61.1c0,0.7,0.1,1.2,0.4,1.6s0.6,0.6,1,0.6c0.4,0,0.8-0.2,1-0.6c0.3-0.4,0.4-0.9,0.4-1.6c0-0.4-0.1-0.8-0.2-1.2
		c-0.1-0.3-0.3-0.6-0.5-0.8s-0.5-0.3-0.7-0.3c-0.4,0-0.7,0.2-1,0.5C39.3,59.6,39.2,60.2,39.2,61.1z"/>
</g>
<g>
	<path d="M43.3,63.7v-5.5h1.9c0.4,0,0.7,0,0.9,0.1c0.2,0.1,0.3,0.3,0.5,0.5s0.2,0.5,0.2,0.8c0,0.4-0.1,0.7-0.3,1
		c-0.2,0.3-0.5,0.4-0.9,0.5c0.1,0.1,0.3,0.2,0.3,0.3c0.2,0.2,0.3,0.4,0.5,0.7l0.7,1.5h-0.7l-0.6-1.1c-0.2-0.3-0.3-0.6-0.4-0.8
		s-0.2-0.3-0.3-0.4c-0.1-0.1-0.2-0.1-0.3-0.1c-0.1,0-0.2,0-0.3,0h-0.6v2.4H43.3z M43.9,60.7h1.2c0.3,0,0.5,0,0.6-0.1
		s0.3-0.2,0.3-0.3c0.1-0.2,0.1-0.3,0.1-0.5c0-0.3-0.1-0.5-0.2-0.6c-0.1-0.2-0.4-0.3-0.7-0.3h-1.3V60.7z"/>
</g>
<g>
	<path d="M47.6,63.7v-5.5h3v0.6h-2.5v1.7h2.3v0.6h-2.3v1.9h2.6v0.6H47.6z"/>
</g>
<g>
	<path d="M52.3,63.7l1.6-5.5h0.6l1.7,5.5h-0.6l-0.5-1.7h-1.8l-0.5,1.7H52.3z M53.5,61.5h1.4l-0.4-1.5c-0.1-0.5-0.2-0.8-0.3-1.1
		c-0.1,0.4-0.1,0.7-0.2,1.1L53.5,61.5z"/>
</g>
<g>
	<path d="M57.2,63.7l-1.1-5.5h0.6l0.6,3.6c0.1,0.4,0.1,0.8,0.2,1.1c0.1-0.6,0.2-0.9,0.2-1l0.8-3.7h0.7l0.6,2.8
		c0.2,0.7,0.3,1.3,0.3,1.9c0.1-0.3,0.1-0.7,0.2-1.2l0.7-3.5h0.6l-1.1,5.5h-0.5l-0.9-4.2c-0.1-0.4-0.1-0.6-0.1-0.6
		c0,0.3-0.1,0.5-0.1,0.6l-0.9,4.2H57.2z"/>
</g>
<g>
	<path d="M61.3,63.7l1.6-5.5h0.6l1.7,5.5h-0.6l-0.5-1.7h-1.8l-0.5,1.7H61.3z M62.5,61.5h1.4l-0.4-1.5c-0.1-0.5-0.2-0.8-0.3-1.1
		c-0.1,0.4-0.1,0.7-0.2,1.1L62.5,61.5z"/>
</g>
<g>
	<path d="M66.4,63.7v-2.3l-1.6-3.2h0.7l0.8,1.7c0.2,0.3,0.3,0.6,0.4,0.9c0.1-0.3,0.3-0.6,0.5-1l0.8-1.6h0.6l-1.7,3.2v2.3H66.4z"/>
</g>
<g>
	<path d="M40.6,70.2v-5.5h2.8v0.6h-2.3V67h2v0.6h-2v2.5H40.6z"/>
</g>
<g>
	<path d="M44.2,70.2v-5.5H46c0.4,0,0.7,0,0.9,0.1c0.2,0.1,0.3,0.3,0.5,0.5s0.2,0.5,0.2,0.8c0,0.4-0.1,0.7-0.3,1
		c-0.2,0.3-0.5,0.4-0.9,0.5c0.1,0.1,0.3,0.2,0.3,0.3c0.2,0.2,0.3,0.4,0.5,0.7l0.7,1.5h-0.7L46.6,69c-0.2-0.3-0.3-0.6-0.4-0.8
		S46,68,45.9,67.9c-0.1-0.1-0.2-0.1-0.3-0.1c-0.1,0-0.2,0-0.3,0h-0.6v2.4H44.2z M44.7,67.1h1.2c0.3,0,0.5,0,0.6-0.1s0.3-0.2,0.3-0.3
		c0.1-0.2,0.1-0.3,0.1-0.5c0-0.3-0.1-0.5-0.2-0.6c-0.1-0.2-0.4-0.3-0.7-0.3h-1.3V67.1z"/>
</g>
<g>
	<path d="M48.2,67.5c0-0.9,0.2-1.6,0.6-2.1s0.9-0.8,1.4-0.8c0.4,0,0.7,0.1,1,0.4c0.3,0.2,0.5,0.6,0.7,1c0.2,0.4,0.2,0.9,0.2,1.5
		c0,0.6-0.1,1.1-0.3,1.5c-0.2,0.4-0.4,0.8-0.7,1s-0.7,0.3-1,0.3c-0.4,0-0.7-0.1-1.1-0.4s-0.5-0.6-0.7-1C48.3,68.4,48.2,68,48.2,67.5
		z M48.8,67.5c0,0.7,0.1,1.2,0.4,1.6s0.6,0.6,1,0.6c0.4,0,0.8-0.2,1-0.6c0.3-0.4,0.4-0.9,0.4-1.6c0-0.4-0.1-0.8-0.2-1.2
		c-0.1-0.3-0.3-0.6-0.5-0.8s-0.5-0.3-0.7-0.3c-0.4,0-0.7,0.2-1,0.5C48.9,66.1,48.8,66.7,48.8,67.5z"/>
</g>
<g>
	<path d="M52.9,70.2v-5.5h0.8l1,3.9c0.1,0.4,0.2,0.6,0.2,0.8c0-0.2,0.1-0.5,0.2-0.9l1-3.8h0.7v5.5h-0.5v-4.6l-1.2,4.6h-0.5l-1.2-4.7
		v4.7H52.9z"/>
</g>
<g>
	<path d="M31.3,77v-5.5h2.8v0.6h-2.3v1.7h2v0.6h-2V77H31.3z"/>
</g>
<g>
	<path d="M34.7,74.3c0-0.9,0.2-1.6,0.6-2.1s0.9-0.8,1.4-0.8c0.4,0,0.7,0.1,1,0.4c0.3,0.2,0.5,0.6,0.7,1c0.2,0.4,0.2,0.9,0.2,1.5
		c0,0.6-0.1,1.1-0.3,1.5c-0.2,0.4-0.4,0.8-0.7,1s-0.7,0.3-1,0.3c-0.4,0-0.7-0.1-1.1-0.4s-0.5-0.6-0.7-1
		C34.8,75.3,34.7,74.8,34.7,74.3z M35.3,74.3c0,0.7,0.1,1.2,0.4,1.6s0.6,0.6,1,0.6c0.4,0,0.8-0.2,1-0.6c0.3-0.4,0.4-0.9,0.4-1.6
		c0-0.4-0.1-0.8-0.2-1.2c-0.1-0.3-0.3-0.6-0.5-0.8S37,72,36.7,72c-0.4,0-0.7,0.2-1,0.5C35.4,72.9,35.3,73.5,35.3,74.3z"/>
</g>
<g>
	<path d="M39.3,74.3c0-0.9,0.2-1.6,0.6-2.1s0.9-0.8,1.4-0.8c0.4,0,0.7,0.1,1,0.4c0.3,0.2,0.5,0.6,0.7,1c0.2,0.4,0.2,0.9,0.2,1.5
		c0,0.6-0.1,1.1-0.3,1.5c-0.2,0.4-0.4,0.8-0.7,1s-0.7,0.3-1,0.3c-0.4,0-0.7-0.1-1.1-0.4s-0.5-0.6-0.7-1
		C39.4,75.3,39.3,74.8,39.3,74.3z M39.8,74.3c0,0.7,0.1,1.2,0.4,1.6s0.6,0.6,1,0.6c0.4,0,0.8-0.2,1-0.6c0.3-0.4,0.4-0.9,0.4-1.6
		c0-0.4-0.1-0.8-0.2-1.2c-0.1-0.3-0.3-0.6-0.5-0.8S41.6,72,41.3,72c-0.4,0-0.7,0.2-1,0.5C40,72.9,39.8,73.5,39.8,74.3z"/>
</g>
<g>
	<path d="M44,77v-5.5h1.4c0.3,0,0.6,0,0.7,0.1c0.2,0.1,0.4,0.2,0.6,0.4c0.2,0.2,0.4,0.6,0.5,0.9s0.2,0.8,0.2,1.3
		c0,0.4,0,0.8-0.1,1.1c-0.1,0.3-0.2,0.6-0.3,0.8c-0.1,0.2-0.2,0.4-0.4,0.5c-0.1,0.1-0.3,0.2-0.5,0.3S45.8,77,45.5,77H44z M44.5,76.4
		h0.9c0.3,0,0.5,0,0.7-0.1c0.2-0.1,0.3-0.2,0.4-0.3c0.1-0.2,0.2-0.4,0.3-0.7c0.1-0.3,0.1-0.6,0.1-1.1c0-0.6-0.1-1-0.2-1.3
		c-0.1-0.3-0.3-0.5-0.5-0.6c-0.1-0.1-0.4-0.1-0.7-0.1h-0.9V76.4z"/>
</g>
<g>
	<path d="M48,75.2l0.5-0.1c0,0.3,0.1,0.5,0.2,0.7c0.1,0.2,0.2,0.3,0.4,0.4s0.4,0.2,0.6,0.2c0.2,0,0.4,0,0.6-0.1
		c0.2-0.1,0.3-0.2,0.4-0.3s0.1-0.3,0.1-0.5c0-0.2,0-0.3-0.1-0.5s-0.2-0.2-0.4-0.3c-0.1-0.1-0.4-0.1-0.7-0.3s-0.7-0.2-0.8-0.3
		c-0.2-0.1-0.3-0.3-0.4-0.5c-0.1-0.2-0.1-0.4-0.1-0.7c0-0.3,0.1-0.5,0.2-0.8s0.3-0.4,0.5-0.6c0.2-0.1,0.5-0.2,0.8-0.2
		c0.3,0,0.6,0.1,0.8,0.2c0.2,0.1,0.4,0.3,0.5,0.6c0.1,0.3,0.2,0.5,0.2,0.9l-0.5,0.1c0-0.3-0.1-0.6-0.3-0.8c-0.2-0.2-0.4-0.3-0.7-0.3
		c-0.3,0-0.6,0.1-0.7,0.2c-0.2,0.2-0.2,0.4-0.2,0.6c0,0.2,0.1,0.4,0.2,0.5c0.1,0.1,0.4,0.3,0.8,0.4c0.5,0.1,0.8,0.3,0.9,0.4
		c0.2,0.1,0.4,0.3,0.5,0.6s0.2,0.5,0.2,0.8c0,0.3-0.1,0.6-0.2,0.8c-0.1,0.3-0.3,0.5-0.5,0.6s-0.5,0.2-0.8,0.2c-0.4,0-0.7-0.1-1-0.2
		c-0.3-0.1-0.5-0.4-0.6-0.7C48.1,75.9,48,75.6,48,75.2z"/>
</g>
<g>
	<path d="M53.2,77v-4.9h-1.4v-0.6h3.3v0.6h-1.4V77H53.2z"/>
</g>
<g>
	<path d="M58.4,71.5H59v3.2c0,0.6,0,1-0.1,1.3c-0.1,0.3-0.3,0.6-0.5,0.8c-0.2,0.2-0.6,0.3-1,0.3c-0.4,0-0.7-0.1-1-0.3
		c-0.2-0.2-0.4-0.4-0.5-0.8c-0.1-0.3-0.2-0.8-0.2-1.4v-3.2h0.6v3.2c0,0.5,0,0.8,0.1,1.1c0.1,0.2,0.2,0.4,0.3,0.5
		c0.2,0.1,0.4,0.2,0.6,0.2c0.4,0,0.7-0.1,0.9-0.4c0.2-0.2,0.3-0.7,0.3-1.4V71.5z"/>
</g>
<g>
	<path d="M59.9,77v-5.5h2.8v0.6h-2.3v1.7h2v0.6h-2V77H59.9z"/>
</g>
<g>
	<path d="M63.5,77v-5.5h2.8v0.6h-2.3v1.7h2v0.6h-2V77H63.5z"/>
</g>
<path d="M61.6,23.9c0.3-0.2,0.4-0.6,0.2-0.8c-0.2-0.3-0.6-0.4-0.8-0.2l-8.8,5.8c0.2-0.5,0.4-1.2,0.3-1.4c-0.1-0.4-0.7-0.7-0.6-1
	c0.1-0.3,0.7-0.7,0.6-1.2c-0.1-0.5-0.7-0.7-0.5-1.1s0.9-1.3,0.7-1.7c-0.2-0.5-1-0.6-0.9-1c0.1-0.4,0.1-1.1,0.4-1.7
	c0.3-0.7,1.5-3.2,1.5-3.6c0.1-0.5-0.5-0.1-0.5-0.1S52,19.2,51,19.8c-1,0.6-1.4,1.1-2.4,0.5S45.4,15,45.4,15s-0.4-0.3-0.5,0.2
	c0,0,1.9,4.9,1.9,5.2c0,0.3,0.1,1-0.3,1.3c-0.4,0.2,0.3,1.3,0.3,1.6c0,0.3-0.3,0.6-0.3,0.8c0,0.2,0.1,0.8,0.3,1.1
	c0.2,0.2,0.7,0.5,0.3,0.9c-0.5,0.4-0.5,0.5-0.4,1s0.4,1.1,0.4,1.1l0.2,0.6l-9-6.1c-0.3-0.2-0.6-0.1-0.8,0.2
	c-0.2,0.3-0.1,0.6,0.2,0.8l10.6,7.2l-0.5,0.6l-10.2,6.7c-0.3,0.2-0.4,0.6-0.2,0.8c0.1,0.2,0.3,0.3,0.5,0.3c0.1,0,0.2,0,0.3-0.1
	l8-5.2c0.2,0.4,0.6,1.2,0.7,1.6c0.2,0.6,0.6,1.2,0.2,1.8c-0.3,0.6-0.8,1.5-0.2,2.3c0.6,0.8,1.2,1.3,2.2,1.3c1,0.1,2.8,0.1,3.2-0.4
	c0.5-0.5,0.3-2.2,0-2.5s-0.5-1-0.1-1.3c0.3-0.3,0.5-1.8,0.2-2.1c-0.3-0.3-0.2-0.9-0.2-1.1l8.6,5.8c0.1,0.1,0.2,0.1,0.3,0.1
	c0.2,0,0.4-0.1,0.5-0.3c0.2-0.3,0.1-0.6-0.2-0.8l-10.4-7l0.3-0.8L61.6,23.9z M50.4,20.9c0.5-0.2,0.7-0.9,0.9-0.5
	c0,0,0.1,1.3-0.8,1.5C49.6,22.2,49.9,21.1,50.4,20.9z M50.1,23.1c0.4-0.4,1.3-0.8,1.3-0.8c0.5,0,0.3,0.7,0.1,0.8
	c-0.2,0.1-0.7,1-1.2,1C49.8,24.1,49.8,23.4,50.1,23.1z M51,26c-0.5,0.3-0.9,0.3-0.9-0.2s0.1-1.1,1.1-1C51.2,24.8,51.5,25.7,51,26z
	 M50.1,28.1c0.2-0.5,1.2-0.7,1.2-0.7c0.9,0.1,0.3,1.3,0.1,1.8l-0.5,0.3c-0.4,0-0.9-0.1-1-0.2C49.7,29.2,49.9,28.6,50.1,28.1z
	 M48.5,20.8c0.4,0.3,0.8,0.7,0.8,0.7s0.3,0.6-0.2,0.7S48,21.7,47.8,21C47.6,20.2,48.1,20.5,48.5,20.8z M48.5,22.9
	c0.3,0.3,0.8,0.8,0.8,0.8s0.3,0.7-0.2,0.8c-0.4,0.1-1.1-0.5-1.3-1.3C47.6,22.3,48.1,22.6,48.5,22.9z M48.5,25.2
	c0.3,0.3,0.8,0.8,0.8,0.8s0.3,0.7-0.2,0.8c-0.4,0.1-1.1-0.5-1.3-1.3C47.6,24.6,48.1,24.9,48.5,25.2z M48.2,27.1c0,0,1.2,0.7,1.1,1.6
	c0,1-0.3,1.1-0.5,1c-0.2-0.1-1.4-1.4-1.4-2C47.5,27.2,47.8,26.9,48.2,27.1z M48.8,32.9c0,0,0.6,0.3,0.5,0.9s-0.2,1-0.7,1
	c-0.5-0.1-0.9-0.4-0.8-0.9C47.7,33.3,48.3,32.8,48.8,32.9z M48.5,40.2c-0.7-0.2-0.9-1.3-0.7-1.7c0.2-0.4,0.6-0.2,0.6-0.2
	s1.1,0.4,1,1.2C49.2,40.1,49.2,40.4,48.5,40.2z M48.5,37.3c-0.3-0.3-0.8-1.3-0.6-1.6c0.1-0.3,0.7-0.3,0.7-0.3s0.9,0.6,0.9,1.4
	S48.8,37.6,48.5,37.3z M51.5,40.2c-0.3,0.4-1.6,0.3-1.6-0.4c0-0.7,1.4-1.5,1.4-1.5C52.2,38.1,51.7,39.8,51.5,40.2z M49.8,33.8
	c0,0,0-0.9,0.7-0.9c0.7,0,1.2,0.6,1.2,1c-0.1,0.4-0.3,0.9-1.1,0.9C49.8,34.9,49.8,33.8,49.8,33.8z M52.1,36.4c0,0.4-1,1.1-1.4,1.1
	c-0.4,0.1-0.4-0.4-0.4-0.8c0-0.4,1.1-1.2,1.1-1.2C52.4,35.3,52.1,36,52.1,36.4z"/>
</svg>
