<?xml version="1.0" encoding="utf-8"?>
<!-- Generator: Adobe Illustrator 25.2.0, SVG Export Plug-In . SVG Version: 6.00 Build 0)  -->
<svg version="1.1" id="Layer_1" xmlns="http://www.w3.org/2000/svg" xmlns:xlink="http://www.w3.org/1999/xlink" x="0px" y="0px"
	 viewBox="0 0 100 100" style="enable-background:new 0 0 100 100;" xml:space="preserve">
<g>
	<path d="M33.1,59.6h-3.9l-1.1-3.5h-5.6l-1.1,3.5h-3.8l5.7-15.8h4.2L33.1,59.6z M27.3,53.4l-1.7-5.3c-0.1-0.4-0.2-0.9-0.3-1.4h-0.1
		c0,0.5-0.1,0.9-0.3,1.4l-1.7,5.4H27.3z"/>
</g>
<g>
	<path d="M46,59.1c-1.1,0.6-2.6,0.8-4.5,0.8c-2.4,0-4.3-0.7-5.7-2.1c-1.4-1.4-2.1-3.3-2.1-5.7c0-2.5,0.8-4.6,2.3-6.1
		c1.6-1.6,3.6-2.4,6-2.4c1.5,0,2.8,0.2,3.9,0.6v3.4c-1.1-0.6-2.3-0.9-3.6-0.9c-1.5,0-2.7,0.5-3.6,1.4c-0.9,0.9-1.4,2.2-1.4,3.8
		c0,1.5,0.4,2.7,1.3,3.7s2,1.4,3.5,1.4c1.4,0,2.6-0.3,3.8-1V59.1z"/>
</g>
<g>
	<path d="M52.3,59.6h-3.5V43.8h3.5V59.6z"/>
</g>
<g>
	<path d="M55.9,59.6V43.8h5.6c5.6,0,8.4,2.6,8.4,7.7c0,2.5-0.8,4.4-2.3,5.9c-1.5,1.5-3.6,2.2-6.1,2.2H55.9z M59.4,46.7v10h1.8
		c1.5,0,2.7-0.5,3.6-1.4c0.9-0.9,1.3-2.2,1.3-3.8c0-1.5-0.4-2.7-1.3-3.6c-0.9-0.9-2.1-1.3-3.6-1.3H59.4z"/>
</g>
<g>
	<path d="M71.7,59v-3.5c0.6,0.5,1.3,0.9,2.1,1.2c0.7,0.3,1.5,0.4,2.3,0.4c0.4,0,0.8,0,1.2-0.1c0.3-0.1,0.6-0.2,0.8-0.3
		c0.2-0.1,0.4-0.3,0.5-0.5c0.1-0.2,0.2-0.4,0.2-0.6c0-0.3-0.1-0.6-0.3-0.8S78,54.2,77.7,54c-0.3-0.2-0.7-0.4-1.1-0.6
		c-0.4-0.2-0.9-0.4-1.3-0.6c-1.2-0.5-2.1-1.1-2.7-1.9s-0.9-1.6-0.9-2.7c0-0.8,0.2-1.5,0.5-2.1s0.8-1.1,1.3-1.5
		c0.6-0.4,1.2-0.7,2-0.8c0.7-0.2,1.5-0.3,2.4-0.3c0.8,0,1.5,0,2.2,0.1c0.6,0.1,1.2,0.3,1.7,0.5v3.3c-0.3-0.2-0.5-0.3-0.9-0.5
		c-0.3-0.1-0.6-0.3-1-0.3c-0.3-0.1-0.7-0.2-1-0.2c-0.3,0-0.6-0.1-0.9-0.1c-0.4,0-0.8,0-1.1,0.1c-0.3,0.1-0.6,0.2-0.8,0.3
		c-0.2,0.1-0.4,0.3-0.5,0.5c-0.1,0.2-0.2,0.4-0.2,0.7c0,0.3,0.1,0.5,0.2,0.7c0.1,0.2,0.3,0.4,0.6,0.6c0.3,0.2,0.6,0.4,0.9,0.6
		c0.4,0.2,0.8,0.4,1.2,0.6c0.6,0.3,1.2,0.5,1.7,0.8c0.5,0.3,0.9,0.6,1.3,1c0.4,0.4,0.6,0.8,0.8,1.3c0.2,0.5,0.3,1,0.3,1.7
		c0,0.9-0.2,1.6-0.5,2.2c-0.3,0.6-0.8,1.1-1.4,1.5s-1.2,0.6-2,0.8c-0.8,0.2-1.6,0.2-2.4,0.2c-0.9,0-1.7-0.1-2.5-0.2
		C72.9,59.5,72.3,59.3,71.7,59z"/>
</g>
<g>
	<path d="M53.9,16.4c-0.9-0.3-3.1-0.8-3.5,0.7c-0.4,1.5,0.5,2.3,0.5,2.3s9,2.7,9.4,2.8c0.4,0.1,2,1,2,1l1-4.2L53.9,16.4z M51.7,19.2
		c0,0-1.2-0.4-1-1.6c0.2-1.3,1.4-1,2.8-0.7c1.4,0.2,8.8,2.3,8.8,2.3H51.7z"/>
</g>
<g>
	<path d="M36.9,18.7c0,0,0,1.8,0.2,2.8c0.2,1,0.8,1.4,0.8,1.4s0.8-0.7,1.2-0.8c0.4-0.1,9.4-2.8,9.4-2.8s0.9-0.8,0.5-2.3
		c-0.4-1.5-2.6-0.9-3.5-0.7L36.9,18.7z M37.8,19c0,0,6.6-1.9,8-2.1c1.4-0.2,2.6-0.6,2.8,0.7c0.2,1.1-1,1.6-1,1.6L37.8,19z"/>
</g>
<g>
	<path d="M37.8,24.2c0,0,0.7,2.5-0.3,2.5C36.6,26.8,37.1,25,37.8,24.2z"/>
</g>
<g>
	<path d="M37.9,29.5c0,0,0.6,2.6-0.3,2.6c-1,0-0.5-1.3-0.4-1.5S37.9,29.5,37.9,29.5z"/>
</g>
<g>
	<path d="M40.3,31.1c0,0-1.3,3.4-1.4,3.8c-0.1,0.5,0.5-0.1,0.7-0.5C39.8,34,40.9,31.8,40.3,31.1z"/>
</g>
<g>
	<path d="M40.7,34.4l2.6-4.4c0,0,0.1-0.7-0.2-0.8c-0.3-0.1-2.6,4.7-2.6,4.7S40.4,34.3,40.7,34.4z"/>
</g>
<g>
	<path d="M35.3,29.5c0,0,1.6,4.2,1.7,4.8c0.1,0.6-0.2,0.6-0.2,0.6l-2.1-5C34.7,29.9,34.6,29.1,35.3,29.5z"/>
</g>
<g>
	<path d="M32.8,29.5l3.1,5c0,0-0.1,0.4-0.4,0.2c-0.2-0.2-3.2-4.9-3.2-4.9S32.2,29.2,32.8,29.5z"/>
</g>
<g>
	<path d="M62.6,23.1c0,0,1.5,2,1,2.5C63.1,26,62.1,25.9,62.6,23.1z"/>
</g>
<g>
	<path d="M62.9,26.9c0,0,1.4,1.4,0.8,2.1c-0.5,0.6-1,0-1-0.5S62.9,26.9,62.9,26.9z"/>
</g>
<g>
	<path d="M59.8,25.8c0,0,1.7,2.8,2.1,3.1c0.4,0.3-0.2,0.4-0.4,0.2C61.3,28.9,59.3,26.9,59.8,25.8z"/>
</g>
<g>
	<path d="M58.3,26.1c0,0,2.5,3.2,2.4,3.4c-0.1,0.2-0.5,0.2-0.6,0C60,29.2,57.9,27.1,58.3,26.1z"/>
</g>
<g>
	<path d="M64.4,29.2l1.9-3.1c0,0,0.6-0.7,0.7-0.1s-2,3.2-2,3.2S64.7,29.5,64.4,29.2z"/>
</g>
<g>
	<path d="M68.2,25.6c0,0-0.8,2.7-2.1,4c0,0-0.1,0.6,0.5,0.3c0.5-0.3,2.3-2.9,2.3-3.4S69,25.7,68.2,25.6z"/>
</g>
<g>
	<path d="M70.9,36.8c-0.8,0.1-2.8,1-3.9,1.5c-1,0.5-2.6,0.3-3.9,0.4c-1.2,0-5.4-0.3-6.5-0.5c-1.1-0.2-1-0.8-1-0.8s3-0.2,3.3-0.2
		c0.3,0,0.1-0.5,0-0.5c-0.1,0-2.3,0.1-3.8,0.1c-1.5,0-1.5-0.6-1.1-0.8c0.3-0.1,3.1-0.3,4.1-0.3s0.5-0.6,0.5-0.6s-3.7,0-4.6-0.2
		c-0.9-0.2,0-1.1,0.3-1.2c0.3-0.1,4.8,0,4.8,0l0.1-0.4c0,0-3.1-0.2-3.5-0.6c-0.4-0.4,0.4-0.8,0.4-0.8s3.9,0,5.1,0.3
		c1.1,0.3,3.7,1.4,4.3,1.7c0.6,0.3,0.8,0.4,1,0.1c0.1-0.2-0.6-1-1.2-1.3c-0.5-0.3-4.5-1.3-4.6-2c0-0.7,1.8-0.1,2.4,0
		c0.6,0.1,5.9,1.8,6.9,2.1c0.7,0.2,2,0.1,2.7,0.1l-0.1-0.7c0,0-2.6,0-3.3-0.1c-0.8-0.2-4.7-1.5-5.5-1.8c-0.8-0.3-2.7-0.8-3.7,0
		c0,0-0.1,0.7,0.1,0.7h-3.5c0,0-2.3,0.4-1.8,1.4c0,0,0,0.3-0.2,0.5c-0.2,0.2-0.9,0.2-1.3,0.6c-0.4,0.4-0.1,1.2-0.1,1.7
		c0,0.5-0.2,1.2,0.2,1.6c0.3,0.4,1.2,0.3,1.5,1c0.3,0.7,1.5,1.2,2.3,1.3c0.8,0,8.5,0,9-0.2c0.5-0.2,4.9-1.8,6.1-1.8
		c1.2,0,1.2-0.3,1.2-0.3l-0.1-0.6C72.9,36.6,71.5,36.7,70.9,36.8z"/>
</g>
<g>
	<path d="M46.5,34V38H29.8V34h4.1c0,0,0.8,2.5,2.7,2.6s2.8,0,3.9-0.6c1.1-0.6,1.8-2,1.8-2H46.5z"/>
</g>
</svg>
