<?xml version="1.0" encoding="utf-8"?>
<!-- Generator: Adobe Illustrator 25.2.0, SVG Export Plug-In . SVG Version: 6.00 Build 0)  -->
<svg version="1.1" id="Layer_1" xmlns="http://www.w3.org/2000/svg" xmlns:xlink="http://www.w3.org/1999/xlink" x="0px" y="0px"
	 viewBox="0 0 100 100" style="enable-background:new 0 0 100 100;" xml:space="preserve">
<polygon style="fill:#F3AA3C;" points="50.6,1.8 98,49.9 50.2,98.2 2,50 "/>
<g>
	<path d="M14.4,58V41.5h5.6v3.2h-3.5v2.9h3.3v3.2h-3.3v4.2h3.5V58H14.4z"/>
</g>
<g>
	<path d="M28.5,58h-2.4l-1.6-5.3L22.9,58h-2.3l2.7-8.3l-2.6-8.2h2.4l1.5,5l1.5-5h2.3l-2.6,8L28.5,58z"/>
</g>
<g>
	<path d="M35.7,46.7c0,0.8-0.1,1.5-0.2,2.2c-0.1,0.7-0.3,1.3-0.5,1.7c-0.1,0.3-0.3,0.6-0.5,0.8c-0.2,0.2-0.4,0.5-0.6,0.6
		c-0.2,0.2-0.4,0.3-0.7,0.4s-0.5,0.1-0.8,0.1h-1.1V58h-2.1V41.5h3.2c0.5,0,0.9,0.1,1.2,0.3c0.3,0.2,0.7,0.4,0.9,0.8
		c0.3,0.4,0.6,1,0.7,1.7C35.6,44.9,35.7,45.8,35.7,46.7z M33.6,46.8c0-0.5-0.1-0.9-0.2-1.2c-0.1-0.3-0.2-0.6-0.4-0.7
		c-0.2-0.2-0.4-0.3-0.6-0.3c-0.2,0-0.4,0-0.7,0h-0.3v4.9h0.1c0.2,0,0.4,0,0.6,0c0.2,0,0.3,0,0.5-0.1c0.1,0,0.2-0.1,0.4-0.2
		c0.1-0.1,0.2-0.2,0.3-0.4c0.1-0.3,0.2-0.6,0.3-0.9C33.5,47.7,33.6,47.3,33.6,46.8z"/>
</g>
<g>
	<path d="M42.4,58h-5.6V41.5h2.1v13.4h3.5V58z"/>
</g>
<g>
	<path d="M51,49.8c0,2.7-0.4,4.8-1.1,6.3s-1.7,2.3-3,2.3c-1.3,0-2.2-0.8-3-2.3c-0.7-1.5-1.1-3.6-1.1-6.3c0-2.7,0.4-4.8,1.1-6.3
		c0.7-1.5,1.7-2.3,3-2.3c1.3,0,2.2,0.8,3,2.3S51,47.1,51,49.8z M48.8,49.7c0-1-0.1-1.8-0.2-2.5s-0.2-1.3-0.4-1.7
		c-0.2-0.5-0.4-0.8-0.6-1s-0.5-0.3-0.7-0.3c-0.3,0-0.5,0.1-0.7,0.3c-0.2,0.2-0.4,0.5-0.6,1c-0.2,0.4-0.3,1-0.4,1.7
		c-0.1,0.7-0.2,1.6-0.2,2.5c0,1,0,1.9,0.2,2.5s0.2,1.2,0.4,1.7c0.2,0.5,0.4,0.8,0.6,1c0.2,0.2,0.5,0.3,0.7,0.3
		c0.2,0,0.5-0.1,0.7-0.3c0.2-0.2,0.4-0.5,0.6-1c0.2-0.5,0.3-1,0.4-1.7C48.8,51.6,48.8,50.8,48.8,49.7z"/>
</g>
<g>
	<path d="M54.8,58.3c-0.6,0-1.2-0.1-1.7-0.4c-0.5-0.2-0.9-0.5-1.3-0.9v-3.9h0.2c0.4,0.7,0.9,1.2,1.4,1.6s1,0.6,1.5,0.6
		c0.1,0,0.3,0,0.5-0.1c0.2-0.1,0.4-0.1,0.5-0.2c0.1-0.1,0.3-0.3,0.4-0.5c0.1-0.2,0.2-0.5,0.2-0.9c0-0.4-0.1-0.8-0.2-1
		c-0.2-0.3-0.4-0.4-0.6-0.6c-0.3-0.1-0.6-0.3-0.9-0.4s-0.6-0.3-0.9-0.5c-0.6-0.5-1.1-1.1-1.4-1.8c-0.3-0.8-0.4-1.7-0.4-2.9
		c0-1.5,0.3-2.8,1-3.8c0.7-1,1.5-1.4,2.5-1.4c0.5,0,1,0.1,1.5,0.3c0.5,0.2,0.9,0.5,1.3,0.8v3.8h-0.2c-0.3-0.5-0.7-1-1.1-1.3
		c-0.4-0.4-0.9-0.5-1.4-0.5c-0.2,0-0.3,0-0.5,0.1c-0.1,0.1-0.3,0.2-0.5,0.3c-0.1,0.1-0.2,0.3-0.3,0.5c-0.1,0.2-0.1,0.5-0.1,0.8
		c0,0.4,0.1,0.8,0.2,1c0.2,0.2,0.4,0.5,0.9,0.7c0.3,0.1,0.5,0.2,0.8,0.4c0.3,0.1,0.5,0.3,0.8,0.5c0.6,0.4,1,1,1.3,1.7
		s0.4,1.6,0.4,2.8c0,1.6-0.3,3-1,4C56.7,57.8,55.9,58.3,54.8,58.3z"/>
</g>
<g>
	<path d="M63.6,58h-4.5v-2.9h1.2V44.4h-1.2v-2.9h4.5v2.9h-1.2v10.8h1.2V58z"/>
</g>
<g>
	<path d="M71.9,41.5L69.1,58h-2.2L64,41.5h2.2L68,52.7l1.8-11.2H71.9z"/>
</g>
<g>
	<path d="M72.7,58V41.5h5.6v3.2h-3.5v2.9H78v3.2h-3.3v4.2h3.5V58H72.7z"/>
</g>
<g>
	<path d="M82.3,58.3c-0.6,0-1.2-0.1-1.7-0.4c-0.5-0.2-0.9-0.5-1.3-0.9v-3.9h0.2c0.4,0.7,0.9,1.2,1.4,1.6s1,0.6,1.5,0.6
		c0.1,0,0.3,0,0.5-0.1c0.2-0.1,0.4-0.1,0.5-0.2c0.1-0.1,0.3-0.3,0.4-0.5c0.1-0.2,0.2-0.5,0.2-0.9c0-0.4-0.1-0.8-0.2-1
		c-0.2-0.3-0.4-0.4-0.6-0.6c-0.3-0.1-0.6-0.3-0.9-0.4s-0.6-0.3-0.9-0.5c-0.6-0.5-1.1-1.1-1.4-1.8c-0.3-0.8-0.4-1.7-0.4-2.9
		c0-1.5,0.3-2.8,1-3.8c0.7-1,1.5-1.4,2.5-1.4c0.5,0,1,0.1,1.5,0.3c0.5,0.2,0.9,0.5,1.3,0.8v3.8h-0.2c-0.3-0.5-0.7-1-1.1-1.3
		c-0.4-0.4-0.9-0.5-1.4-0.5c-0.2,0-0.3,0-0.5,0.1c-0.1,0.1-0.3,0.2-0.5,0.3c-0.1,0.1-0.2,0.3-0.3,0.5c-0.1,0.2-0.1,0.5-0.1,0.8
		c0,0.4,0.1,0.8,0.2,1c0.2,0.2,0.4,0.5,0.9,0.7c0.3,0.1,0.5,0.2,0.8,0.4c0.3,0.1,0.5,0.3,0.8,0.5c0.6,0.4,1,1,1.3,1.7
		s0.4,1.6,0.4,2.8c0,1.6-0.3,3-1,4C84.3,57.8,83.4,58.3,82.3,58.3z"/>
</g>
<g>
	<path d="M48.5,26.6c0,0-1-1.3-1.3-1s-1.4,2.5-2.5,2.5s-3.2-0.3-3.9-1.1s-0.7-1.9-0.7-1.9s1.7-2.2,4.2-2.1
		C46.8,23.2,48.8,25.4,48.5,26.6z"/>
</g>
<g>
	<path d="M48.3,28.5c0,0,0.4,0.8-0.4,1.7s-1.9,2-4,1.8c-2-0.2-4.2-3.1-4.3-3.4c-0.1-0.3,0.7-0.9,1.8-0.3s1.8,0.9,3.5,0.3
		S47.8,27.6,48.3,28.5z"/>
</g>
<g>
	<path d="M38.9,27.7c0,0-15.4,6-15.7,6.3c-0.3,0.3,0.7,0.3,1.2,0.2c0.5-0.2,14.6-5.9,14.6-5.9S39.4,27.8,38.9,27.7z"/>
</g>
<g>
	<path d="M39.2,29.5c0,0-4,1.8-4.6,2.2c-0.6,0.4-3.8,2.5-3.8,2.5s-0.1,0.5,0.6,0.3S38.6,30.5,39.2,29.5z"/>
</g>
<g>
	<path d="M39.4,30.3c0,0-3.2,2.4-3.4,2.6c-0.2,0.3-1.3,1-1,1.1s1.2-0.4,1.5-0.6c0.3-0.2,3.1-2.6,3.1-2.6S40,30.2,39.4,30.3z"/>
</g>
<g>
	<path d="M40.1,31.1l-2.1,2c0,0,0.3,0.3,0.9,0c0.6-0.3,1.5-1.5,1.5-1.5S40.5,31,40.1,31.1z"/>
</g>
<g>
	<path d="M46.9,32.8c0,0-0.5,0.2-0.3,0.6c0.2,0.5,1.1,1.1,1.1,1.1s0.5-0.1,0.2-0.5C47.7,33.6,46.9,32.8,46.9,32.8z"/>
</g>
<g>
	<path d="M47.5,31.6c0,0,0.7,2.2,1.2,2.8c0.5,0.5,1.2,1.1,1.3,0.7c0-0.4-1.1-2.9-1.4-3.2C48.2,31.6,47.7,31.3,47.5,31.6z"/>
</g>
<g>
	<path d="M49.3,30.5l12,5.1c0,0,0.6,0,0.5-0.4s-10.9-4.7-10.9-4.7S49.6,29.9,49.3,30.5z"/>
</g>
<g>
	<path d="M50.3,29.7c0,0,2.6,0.4,2.6,0.7c0,0.4-3-0.4-3-0.4S49.8,29.6,50.3,29.7z"/>
</g>
<g>
	<path d="M50.6,29.3c0,0,2.2,0.7,2.5,0.8s0.5-0.4,0.3-0.4C53.3,29.6,51.8,28.8,50.6,29.3z"/>
</g>
<g>
	<path d="M54,29.9c0,0-0.7,0.9-0.5,1.1c0.2,0.2,1.4-0.1,1.2-0.4C54.5,30.3,54.4,29.7,54,29.9z"/>
</g>
<g>
	<path d="M55.3,30.1c0,0,0,0.6,0.4,0.6s6.7,1.7,6.7,1.7s1.2-0.7,0.6-1.2c-0.6-0.5-7.3-1.5-7.3-1.5S55.3,29.9,55.3,30.1z"/>
</g>
<g>
	<path d="M49.7,28.2l24.6,3.5c0,0,1.2-0.5,0.4-0.7c-0.7-0.2-22.5-3-22.5-3S50.1,27.5,49.7,28.2z"/>
</g>
<g>
	<path d="M49.8,26.2c0,0,11.8-2.2,17.1-1.8c0,0-10.4,1.8-12.5,1.8C52.2,26.2,49.8,26.2,49.8,26.2z"/>
</g>
<g>
	<path d="M49.3,24.6l15.1-5.8c0,0,0.2-0.6-0.3-0.5s-15,5.7-15,5.7S48.7,24.6,49.3,24.6z"/>
</g>
<g>
	<path d="M54.5,23.5l6.1-1.9c0,0,0.5-0.6-0.5-0.4c-1,0.2-5.5,1.6-5.5,1.6S53.6,23.5,54.5,23.5z"/>
</g>
<g>
	<path d="M59.7,22.3c0,0-4.6,1.5-4.8,1.6c-0.2,0.1-0.3,0.5,0.2,0.5c0.5-0.1,5-1.5,5-1.5S60.7,22.1,59.7,22.3z"/>
</g>
<g>
	<path d="M51.3,20.2c0,0,0.3,0.5,0.1,0.9c-0.1,0.3-2.6,2.7-2.6,2.7s-0.5-0.2-0.2-0.6C48.9,22.7,51,20.2,51.3,20.2z"/>
</g>
<g>
	<path d="M47.7,23.1l8-12.4c0,0,0-1-0.7-0.3c-0.7,0.7-7.6,12.3-7.6,12.3L47.7,23.1z"/>
</g>
<g>
	<path d="M52.1,14.3l-2.7,4.8c0,0-0.1-0.4,0-0.8s2.3-4,2.3-4H52.1z"/>
</g>
<g>
	<path d="M52.4,11.4l-1.1,2.4c0,0-0.3-0.4-0.1-0.9c0.1-0.5,0.9-2.1,0.9-2.1L52.4,11.4z"/>
</g>
<g>
	<path d="M52.7,7.4l-6.5,15.2v-0.9l5.5-13.9C51.8,7.8,52.3,7.4,52.7,7.4z"/>
</g>
<g>
	<path d="M45.9,14.3c0,0,0.6,1.4,0.4,2.1c-0.2,0.7-0.9,5.8-0.9,5.8s-0.3-2.1-0.2-3.5c0,0-0.6,3.5-0.8,3.5s0-1.5,0-1.8
		C44.3,20.2,45.3,14.7,45.9,14.3z"/>
</g>
<g>
	<path d="M42,21.6c0,0-0.8-2.1-1-2.3c-0.2-0.2-0.5-0.3-0.6,0c-0.1,0.3,1.2,2.3,1.2,2.3S41.7,22,42,21.6z"/>
</g>
<g>
	<path d="M39.7,20.1c0,0,1.6,1.8,1.5,2c-0.1,0.3-0.4,0.3-0.6,0.2s-1.4-1.9-1.4-2.1C39.2,19.9,39.7,20.1,39.7,20.1z"/>
</g>
<g>
	<path d="M39.3,22.6c0,0,0.9,1.4,0.1,1.7s-1.2-0.5-1.2-0.8c0-0.3-0.4-1-0.8-1c-0.4,0-1.6-0.2-1.2,0.4c0.4,0.7,1.6-0.1,1.5,0.2
		c-0.1,0.4-0.2,0.8-0.9,0.8c-0.6-0.1-2.1-0.6-1.7-1.5C35.7,21.5,37.5,20.8,39.3,22.6z"/>
</g>
<g>
	<path d="M39.3,25.9l-2.5-1.2c0,0-0.8,0.1-0.3,0.6c0.5,0.5,2.4,0.9,2.4,0.9S39.6,26.2,39.3,25.9z"/>
</g>
<g>
	<path d="M33.4,25.4c0,0,5.4,1.3,5.6,1.3s0.3,0.2,0,0.3c-0.3,0-5.1-0.7-5.6-0.8C33,26.1,32.8,25.4,33.4,25.4z"/>
</g>
<g>
	<path d="M43.1,15.7c0,0-0.4-0.2-0.6-0.2c-0.2,0-2.2,2-1.3,2.7c0.8,0.7,1.8,1.4,1.8,1.4s0.8-0.8,1.2-1.8
		C44.6,16.8,43.1,15.7,43.1,15.7z M43.5,17.1c-0.1,0.3-0.6,0.3-0.7,0.1c-0.2-0.2-0.6-0.3-0.6-0.2c0,0.2-0.2,1.1-0.5,1.1
		s-0.1-0.6,0-0.8s0.5-1.4,1.2-1.2C42.9,16.1,43.6,16.8,43.5,17.1z"/>
</g>
<g>
	<path d="M48.4,11.9c0,0-1.5,1.4-1.6,1.9c-0.1,0.5-0.3,1.1,0,1c0.3-0.1,0.5-0.9,0.7-0.7c0.2,0.2,0.4,0.9,0.1,1
		c-0.4,0.2-0.7,0.7-0.3,0.7c0.5,0.1,1.6-1.9,1.7-2.3c0.1-0.4,0.3-0.9,0-0.8c-0.3,0.1-0.5,0.7-0.6,0.4c-0.1-0.3,0.3-0.7,0.3-0.9
		S48.7,11.9,48.4,11.9z"/>
</g>
<g>
	<path d="M56.2,14.1c0,0-1.9,1.6-2.3,2c-0.4,0.5-1.4,1.4-1.2,1.9c0.2,0.5,1.1,0.5,1.4,0.3s1.3-0.2,0.8,0c-0.5,0.3-1.3,0.3-1.5,0.5
		c-0.2,0.2-0.3,0.1-0.9,0.3c-0.6,0.1-0.4,1,0.2,1c0.6,0.1,1.2-0.7,1.5-0.8c0.3,0,1.9-1.3,2.3-1.4s0.8-0.7,0.4-0.7s-2.5,0.2-2.7,0.3
		s-0.5-0.2-0.3-0.4c0.2-0.2,1.2-0.5,1.4-0.5c0.2,0-0.2-0.3-0.2-0.5c0-0.2,0.4-0.5,0.6-0.5c0.3,0,0.9,0.8,1.3,0.2
		c0.4-0.6,0.4-1.3,0-1.1c-0.4,0.3,0.1,0.6-0.8,0.6s-0.3-0.7,0-0.9C56.4,14.4,56.6,14,56.2,14.1z"/>
</g>
<g>
	<path d="M68.4,25.8c0,0,1,0.1,0.6,1.1s-1.7,1.7-2,1.7s-0.3-0.4,0.2-0.8c0.5-0.4,1.3-0.7,1.2-1.1s-0.5-0.5-0.9-0.1s-0.9,1.2-1.2,1.2
		s-0.5-0.6-0.1-0.9C66.5,26.6,67.4,25.6,68.4,25.8z"/>
</g>
</svg>
