<?xml version="1.0" encoding="iso-8859-1"?>
<!-- Generator: Adobe Illustrator 25.4.1, SVG Export Plug-In . SVG Version: 6.00 Build 0)  -->
<svg version="1.1" id="Layer_1" xmlns="http://www.w3.org/2000/svg" xmlns:xlink="http://www.w3.org/1999/xlink" x="0px" y="0px"
	 viewBox="0 0 100 100" style="enable-background:new 0 0 100 100;" xml:space="preserve">
<polygon style="fill:#EB3223;" points="50.6,3.8 62.025,15.325 73.45,26.85 84.875,38.375 96.3,49.9 84.775,61.475 73.25,73.05 
	61.725,84.625 50.2,96.2 38.575,84.65 26.95,73.1 15.325,61.55 3.7,50 15.425,38.45 27.15,26.9 38.875,15.35 "/>
<path style="fill:#FFFFFF;" d="M22.4,56.1c-0.3,0.175-0.606,0.325-0.919,0.452s-0.631,0.23-0.956,0.311
	c-0.325,0.081-0.656,0.14-0.994,0.179C19.194,57.081,18.85,57.1,18.5,57.1c-0.425,0-0.825-0.031-1.202-0.095
	s-0.73-0.161-1.061-0.293c-0.331-0.131-0.64-0.296-0.929-0.498c-0.289-0.201-0.558-0.439-0.808-0.714s-0.469-0.569-0.656-0.883
	s-0.344-0.649-0.469-1.005c-0.125-0.356-0.219-0.734-0.281-1.135C13.031,52.075,13,51.65,13,51.2s0.038-0.881,0.111-1.294
	c0.073-0.413,0.183-0.806,0.327-1.181s0.322-0.731,0.533-1.069S14.425,47,14.7,46.7s0.569-0.562,0.883-0.787
	c0.314-0.225,0.648-0.413,1.004-0.562s0.734-0.263,1.136-0.338C18.125,44.938,18.55,44.9,19,44.9c0.3,0,0.594,0.013,0.878,0.037
	C20.163,44.963,20.438,45,20.7,45.05c0.263,0.05,0.513,0.112,0.747,0.188S21.9,45.4,22.1,45.5V46v0.5V47v0.5
	c-0.225-0.15-0.456-0.281-0.695-0.394c-0.239-0.113-0.486-0.206-0.743-0.281c-0.256-0.075-0.522-0.131-0.798-0.169
	C19.587,46.619,19.3,46.6,19,46.6s-0.587,0.025-0.861,0.075S17.606,46.8,17.362,46.9s-0.472,0.225-0.683,0.375
	c-0.211,0.15-0.404,0.325-0.579,0.525c-0.2,0.2-0.369,0.419-0.509,0.655s-0.253,0.489-0.341,0.758
	c-0.087,0.269-0.15,0.553-0.191,0.851C15.019,50.362,15,50.675,15,51c0,0.35,0.019,0.675,0.058,0.978
	c0.039,0.303,0.099,0.584,0.18,0.847c0.081,0.263,0.184,0.506,0.311,0.734C15.675,53.787,15.825,54,16,54.2
	c0.175,0.2,0.356,0.375,0.549,0.525c0.192,0.15,0.396,0.275,0.615,0.375s0.454,0.175,0.708,0.225s0.53,0.075,0.83,0.075
	c0.2,0,0.388-0.013,0.566-0.036c0.178-0.024,0.347-0.058,0.509-0.102c0.162-0.044,0.318-0.097,0.471-0.157s0.303-0.13,0.453-0.205
	v-0.7v-0.7v-0.7v-0.7h-0.6h-0.6h-0.6h-0.6v-0.4v-0.4v-0.4v-0.4h1.05h1.05h1.05h1.05v1.4v1.4v1.4v1.4h-0.025H22.45h-0.025H22.4z"/>
<path d="M18.5,57.2c-0.425,0-0.831-0.038-1.217-0.111c-0.386-0.074-0.751-0.183-1.095-0.327c-0.344-0.144-0.666-0.322-0.965-0.532
	c-0.299-0.211-0.573-0.455-0.823-0.73s-0.475-0.575-0.672-0.898c-0.197-0.324-0.366-0.671-0.503-1.04
	c-0.137-0.368-0.244-0.759-0.316-1.17C12.837,51.981,12.8,51.55,12.8,51.1s0.037-0.888,0.111-1.309
	c0.073-0.422,0.183-0.828,0.327-1.216c0.144-0.387,0.321-0.756,0.532-1.103c0.211-0.347,0.455-0.672,0.73-0.972
	s0.575-0.562,0.899-0.787c0.323-0.225,0.67-0.412,1.039-0.562c0.368-0.15,0.759-0.263,1.17-0.338S18.45,44.7,18.9,44.7
	c0.325,0,0.631,0.013,0.922,0.037c0.291,0.025,0.566,0.063,0.828,0.113s0.512,0.112,0.753,0.188S21.875,45.2,22.1,45.3h0.025h0.025
	h0.025H22.2v0.575v0.575v0.575V47.6l-0.05-0.025L22.1,47.55l-0.05-0.025L22,47.5c-0.2-0.15-0.413-0.281-0.638-0.394
	c-0.225-0.112-0.462-0.206-0.712-0.281s-0.512-0.131-0.788-0.169C19.587,46.619,19.3,46.6,19,46.6c-0.275,0-0.544,0.025-0.803,0.075
	S17.688,46.8,17.45,46.9s-0.462,0.225-0.672,0.375c-0.209,0.15-0.403,0.325-0.578,0.525c-0.2,0.225-0.375,0.463-0.525,0.711
	S15.4,49.019,15.3,49.287c-0.1,0.269-0.175,0.547-0.225,0.833C15.025,50.406,15,50.7,15,51c0,0.325,0.019,0.638,0.058,0.934
	c0.039,0.297,0.099,0.578,0.18,0.841c0.081,0.262,0.184,0.506,0.311,0.728c0.126,0.222,0.276,0.422,0.451,0.597
	c0.15,0.175,0.319,0.331,0.505,0.467s0.389,0.251,0.607,0.345s0.453,0.166,0.702,0.214c0.249,0.049,0.511,0.074,0.786,0.074
	c0.175,0,0.344-0.006,0.508-0.02c0.164-0.014,0.323-0.036,0.479-0.068c0.156-0.031,0.31-0.071,0.461-0.123
	C20.2,54.938,20.35,54.875,20.5,54.8v-0.65V53.5v-0.65V52.2h-0.625H19.25h-0.625H18v-0.475V51.25v-0.475V50.3h1.125h1.125h1.125
	H22.5v1.45v1.45v1.45v1.45h-0.025H22.45h-0.025H22.4c-0.275,0.2-0.569,0.369-0.876,0.509c-0.308,0.141-0.629,0.253-0.961,0.341
	c-0.332,0.087-0.672,0.15-1.018,0.191S18.85,57.2,18.5,57.2z M18.9,45c-0.425,0-0.831,0.037-1.219,0.111
	c-0.388,0.074-0.756,0.183-1.106,0.327c-0.35,0.143-0.681,0.322-0.994,0.533s-0.606,0.455-0.881,0.73s-0.512,0.575-0.714,0.898
	c-0.202,0.324-0.367,0.671-0.499,1.04c-0.131,0.368-0.228,0.758-0.292,1.169C13.131,50.219,13.1,50.65,13.1,51.1
	c0,0.425,0.031,0.838,0.094,1.233s0.156,0.773,0.281,1.129c0.125,0.356,0.281,0.691,0.469,0.999
	c0.188,0.308,0.406,0.589,0.656,0.839c0.25,0.275,0.519,0.513,0.806,0.714c0.288,0.201,0.594,0.367,0.919,0.498
	c0.325,0.132,0.669,0.229,1.031,0.293S18.1,56.9,18.5,56.9c0.35,0,0.688-0.019,1.016-0.056c0.328-0.037,0.647-0.094,0.959-0.169
	c0.312-0.075,0.619-0.169,0.922-0.281C21.7,56.281,22,56.15,22.3,56v-1.35V53.3v-1.35V50.6h-1h-1h-1h-1v0.35v0.35v0.35V52h0.6h0.6
	h0.6h0.6v0.75v0.75v0.75V55h-0.025H20.65h-0.025H20.6c-0.15,0.075-0.306,0.144-0.469,0.205s-0.331,0.114-0.506,0.157
	c-0.175,0.044-0.356,0.078-0.544,0.102C18.894,55.487,18.7,55.5,18.5,55.5c-0.3,0-0.581-0.025-0.845-0.075S17.144,55.3,16.913,55.2
	c-0.232-0.1-0.447-0.225-0.649-0.375c-0.202-0.15-0.389-0.325-0.564-0.525s-0.325-0.419-0.451-0.656s-0.23-0.494-0.311-0.769
	c-0.082-0.275-0.141-0.569-0.18-0.881C14.719,51.681,14.7,51.35,14.7,51c0-0.325,0.025-0.638,0.075-0.938
	c0.05-0.3,0.125-0.588,0.225-0.862s0.225-0.537,0.375-0.787S15.7,47.925,15.9,47.7c0.2-0.2,0.413-0.381,0.638-0.541
	S17,46.863,17.25,46.75c0.25-0.112,0.513-0.2,0.788-0.259S18.6,46.4,18.9,46.4c0.275,0,0.544,0.019,0.805,0.055
	c0.261,0.036,0.514,0.089,0.757,0.158c0.244,0.069,0.479,0.153,0.702,0.251c0.224,0.098,0.436,0.211,0.636,0.336v-0.425V46.35
	v-0.425V45.5c-0.175-0.075-0.369-0.144-0.58-0.205c-0.211-0.061-0.439-0.114-0.682-0.157c-0.244-0.044-0.503-0.078-0.777-0.102
	C19.487,45.013,19.2,45,18.9,45z"/>
<path style="fill:#FFFFFF;" d="M34,56.9h-0.5H33h-0.5H32l-0.25-0.75L31.5,55.4l-0.25-0.75L31,53.9h-1.1h-1.1h-1.1h-1.1l-0.25,0.75
	L26.1,55.4l-0.25,0.75L25.6,56.9h-0.5h-0.5h-0.5h-0.5l1.05-2.95L25.7,51l1.05-2.95l1.05-2.95h0.525h0.525h0.525H29.9l1.025,2.95
	L31.95,51l1.025,2.95L34,56.9z M30.4,52.3L30,51.125l-0.4-1.175l-0.4-1.175L28.8,47.6c0-0.05-0.006-0.1-0.016-0.152
	c-0.009-0.051-0.022-0.104-0.034-0.16c-0.012-0.056-0.025-0.116-0.034-0.18S28.7,46.975,28.7,46.9l0,0l0,0l0,0l0,0
	c0,0.075-0.006,0.15-0.017,0.222c-0.011,0.072-0.026,0.141-0.045,0.203s-0.041,0.119-0.064,0.166
	c-0.024,0.047-0.049,0.084-0.074,0.109l-0.375,1.175L27.75,49.95l-0.375,1.175L27,52.3h0.85h0.85h0.85H30.4z"/>
<path d="M34.1,57h-0.575H32.95h-0.575H31.8l-0.25-0.75L31.3,55.5l-0.25-0.75L30.8,54h-1.05H28.7h-1.05H26.6l-0.25,0.75L26.1,55.5
	l-0.25,0.75L25.6,57h-0.575H24.45h-0.575H23.3l0.025-0.05l0.025-0.05l0.025-0.05L23.4,56.8l1.05-2.95l1.05-2.95l1.05-2.95L27.6,45
	h0.575h0.575h0.575H29.9v0.025v0.025v0.025V45.1l1.05,2.975L32,51.05l1.05,2.975L34.1,57z M32,56.8h0.45h0.45h0.45h0.45
	l-1.025-2.875L31.75,51.05l-1.025-2.875L29.7,45.3h-0.475H28.75h-0.475H27.8l-1.025,2.875L25.75,51.05l-1.025,2.875L23.7,56.8h0.45
	h0.45h0.45h0.45l0.25-0.75L26,55.3l0.25-0.75l0.25-0.75h1.125h1.125h1.125H31l0.25,0.75l0.25,0.75l0.25,0.75L32,56.8z M30.6,52.4
	h-0.95H28.7h-0.95H26.8l0.4-1.225l0.4-1.225l0.4-1.225l0.4-1.225c0.025-0.05,0.044-0.1,0.059-0.152
	c0.016-0.051,0.028-0.104,0.041-0.16c0.013-0.056,0.025-0.116,0.041-0.18s0.034-0.133,0.059-0.208v-0.025V46.75v-0.025V46.7h0.05
	h0.05h0.05h0.05v0.025v0.025v0.025V46.8c0.025,0.075,0.044,0.15,0.058,0.222c0.014,0.072,0.023,0.141,0.029,0.203
	c0.007,0.062,0.01,0.119,0.011,0.166S28.9,47.475,28.9,47.5l0.425,1.225l0.425,1.225l0.425,1.225L30.6,52.4z M27.2,52.2h0.775h0.775
	h0.775H30.3l-0.375-1.125L29.55,49.95l-0.375-1.125L28.8,47.7c0-0.025,0-0.044,0-0.059s0-0.028,0-0.041s0-0.025,0-0.041
	c0-0.016,0-0.034,0-0.059c0,0.025,0,0.044,0,0.059s0,0.028,0,0.041s0,0.025,0,0.041s0,0.034,0,0.059l-0.4,1.125L28,49.95l-0.4,1.125
	L27.2,52.2z"/>
<path style="fill:#FFFFFF;" d="M35,56.4v-0.5v-0.5v-0.5v-0.5c0.05,0.05,0.1,0.094,0.15,0.133c0.05,0.039,0.1,0.073,0.15,0.104
	s0.1,0.059,0.15,0.086c0.05,0.027,0.1,0.052,0.15,0.077c0.05,0.025,0.106,0.05,0.167,0.075c0.061,0.025,0.126,0.05,0.195,0.075
	c0.069,0.025,0.141,0.05,0.215,0.075c0.074,0.025,0.149,0.05,0.224,0.075s0.144,0.05,0.209,0.073
	c0.066,0.024,0.128,0.046,0.191,0.065c0.062,0.019,0.125,0.034,0.191,0.045c0.066,0.011,0.134,0.017,0.209,0.017
	s0.144,0.006,0.208,0.016c0.064,0.009,0.124,0.022,0.18,0.034s0.109,0.025,0.161,0.034C37.8,55.394,37.85,55.4,37.9,55.4
	c0.2,0,0.388-0.006,0.561-0.02s0.333-0.036,0.477-0.068c0.143-0.031,0.271-0.071,0.382-0.123c0.111-0.051,0.205-0.114,0.28-0.189
	s0.15-0.156,0.22-0.244c0.07-0.088,0.136-0.181,0.192-0.281s0.103-0.206,0.136-0.319c0.033-0.113,0.052-0.231,0.052-0.356
	c0-0.075-0.006-0.144-0.017-0.208c-0.011-0.064-0.026-0.124-0.045-0.18c-0.019-0.056-0.041-0.109-0.065-0.16
	C40.05,53.2,40.025,53.15,40,53.1s-0.056-0.1-0.092-0.15s-0.076-0.1-0.12-0.15c-0.044-0.05-0.091-0.1-0.139-0.15
	C39.6,52.6,39.55,52.55,39.5,52.5s-0.106-0.094-0.167-0.134c-0.061-0.041-0.126-0.078-0.195-0.116
	c-0.069-0.037-0.141-0.075-0.215-0.116C38.85,52.094,38.775,52.05,38.7,52s-0.15-0.094-0.226-0.134
	c-0.076-0.041-0.155-0.078-0.236-0.116c-0.081-0.037-0.166-0.075-0.255-0.116C37.894,51.594,37.8,51.55,37.7,51.5
	s-0.194-0.1-0.284-0.15c-0.091-0.05-0.178-0.1-0.266-0.15s-0.175-0.1-0.266-0.15C36.794,51,36.7,50.95,36.6,50.9
	c-0.075-0.05-0.15-0.106-0.225-0.166c-0.075-0.059-0.15-0.122-0.225-0.184s-0.15-0.125-0.225-0.184
	c-0.075-0.059-0.15-0.116-0.225-0.166c-0.05-0.075-0.1-0.15-0.15-0.225c-0.05-0.075-0.1-0.15-0.15-0.225s-0.1-0.15-0.15-0.225
	c-0.05-0.075-0.1-0.15-0.15-0.225c-0.025-0.075-0.044-0.156-0.058-0.242c-0.014-0.086-0.023-0.177-0.029-0.271
	s-0.009-0.191-0.011-0.289C35,48.4,35,48.3,35,48.2c0-0.15,0.006-0.287,0.02-0.416c0.014-0.128,0.036-0.247,0.068-0.359
	c0.031-0.112,0.071-0.219,0.123-0.322C35.263,47,35.325,46.9,35.4,46.8c0.05-0.1,0.106-0.194,0.169-0.283s0.131-0.174,0.206-0.255
	c0.075-0.081,0.156-0.159,0.244-0.236S36.2,45.875,36.3,45.8s0.2-0.144,0.302-0.206c0.101-0.062,0.204-0.119,0.31-0.169
	c0.107-0.05,0.216-0.094,0.33-0.131c0.114-0.038,0.233-0.069,0.358-0.094s0.25-0.05,0.375-0.073c0.125-0.024,0.25-0.046,0.375-0.065
	c0.125-0.018,0.25-0.034,0.375-0.045S38.975,45,39.1,45c0.3,0,0.575,0.006,0.828,0.02c0.253,0.014,0.484,0.036,0.697,0.068
	s0.406,0.072,0.584,0.123c0.178,0.051,0.341,0.114,0.491,0.189v0.475v0.475v0.475V47.3c-0.15-0.125-0.319-0.231-0.501-0.32
	c-0.183-0.089-0.38-0.161-0.586-0.217c-0.206-0.056-0.422-0.097-0.643-0.124S39.525,46.6,39.3,46.6c-0.075,0-0.144,0-0.209,0.002
	c-0.066,0.002-0.128,0.005-0.191,0.011c-0.062,0.006-0.125,0.015-0.191,0.029c-0.066,0.014-0.134,0.033-0.209,0.058
	s-0.144,0.044-0.208,0.061s-0.124,0.033-0.18,0.051s-0.109,0.041-0.161,0.07C37.9,46.912,37.85,46.95,37.8,47
	c-0.05,0.025-0.1,0.056-0.148,0.092s-0.096,0.076-0.139,0.12c-0.044,0.044-0.084,0.091-0.12,0.139S37.325,47.45,37.3,47.5
	s-0.05,0.1-0.073,0.152c-0.024,0.051-0.046,0.104-0.065,0.16c-0.018,0.056-0.034,0.116-0.045,0.18S37.1,48.125,37.1,48.2
	s0.006,0.144,0.017,0.208s0.026,0.124,0.045,0.18c0.019,0.056,0.041,0.109,0.065,0.16C37.25,48.8,37.275,48.85,37.3,48.9
	s0.056,0.1,0.092,0.149c0.036,0.048,0.076,0.095,0.12,0.139c0.044,0.043,0.091,0.084,0.139,0.12C37.7,49.344,37.75,49.375,37.8,49.4
	c0.05,0.05,0.1,0.094,0.152,0.134c0.051,0.041,0.104,0.078,0.16,0.116s0.116,0.075,0.18,0.116c0.064,0.041,0.133,0.084,0.208,0.134
	s0.15,0.094,0.227,0.134c0.076,0.041,0.154,0.078,0.236,0.116c0.082,0.037,0.166,0.075,0.255,0.116
	C39.306,50.306,39.4,50.35,39.5,50.4s0.2,0.1,0.299,0.152c0.098,0.051,0.196,0.104,0.29,0.16c0.094,0.056,0.184,0.116,0.27,0.18
	s0.167,0.133,0.242,0.208c0.075,0.05,0.15,0.106,0.225,0.167c0.075,0.061,0.15,0.126,0.225,0.195
	c0.075,0.069,0.15,0.141,0.225,0.214c0.075,0.073,0.15,0.148,0.225,0.224s0.144,0.151,0.206,0.225s0.119,0.15,0.169,0.225
	s0.094,0.15,0.131,0.225c0.038,0.075,0.069,0.15,0.094,0.225c0.05,0.075,0.087,0.156,0.116,0.244s0.047,0.181,0.059,0.281
	s0.019,0.206,0.022,0.319C42.3,53.756,42.3,53.875,42.3,54c0,0.15-0.006,0.294-0.019,0.431c-0.013,0.137-0.031,0.269-0.056,0.394
	s-0.056,0.244-0.094,0.356C42.094,55.294,42.05,55.4,42,55.5s-0.106,0.194-0.169,0.283s-0.131,0.174-0.206,0.255
	c-0.075,0.081-0.156,0.159-0.244,0.236S41.2,56.425,41.1,56.5s-0.2,0.138-0.302,0.192c-0.101,0.055-0.204,0.102-0.31,0.146
	c-0.106,0.043-0.216,0.084-0.33,0.126c-0.114,0.042-0.233,0.086-0.358,0.136c-0.125,0.025-0.25,0.05-0.377,0.073
	c-0.127,0.024-0.255,0.046-0.386,0.065c-0.131,0.019-0.265,0.034-0.404,0.045S38.35,57.3,38.2,57.3c-0.05,0-0.1,0-0.152,0
	c-0.051,0-0.104,0-0.16,0s-0.115,0-0.179,0s-0.133,0-0.209,0s-0.151-0.006-0.224-0.016c-0.073-0.009-0.145-0.022-0.214-0.034
	c-0.069-0.013-0.134-0.025-0.195-0.034C36.806,57.206,36.75,57.2,36.7,57.2s-0.112-0.006-0.181-0.017
	c-0.069-0.011-0.144-0.026-0.219-0.045c-0.075-0.019-0.15-0.041-0.219-0.065C36.013,57.05,35.95,57.025,35.9,57
	s-0.125-0.069-0.211-0.122c-0.086-0.053-0.183-0.116-0.277-0.178s-0.185-0.125-0.258-0.178C35.081,56.469,35.025,56.425,35,56.4z"/>
<path d="M37.9,57.2c-0.05,0-0.1,0-0.152,0c-0.051,0-0.104,0-0.16,0c-0.056,0-0.116,0-0.18,0s-0.133,0-0.208,0
	s-0.15-0.006-0.223-0.016c-0.074-0.009-0.146-0.022-0.215-0.034s-0.134-0.025-0.195-0.034C36.506,57.106,36.45,57.1,36.4,57.1
	c-0.075-0.025-0.15-0.044-0.223-0.059c-0.074-0.016-0.146-0.028-0.215-0.041c-0.069-0.013-0.134-0.025-0.195-0.041
	S35.65,56.925,35.6,56.9c-0.075-0.025-0.144-0.05-0.206-0.075c-0.062-0.025-0.119-0.05-0.169-0.075s-0.094-0.05-0.131-0.075
	C35.056,56.65,35.025,56.625,35,56.6h-0.025H34.95h-0.025H34.9V56v-0.6v-0.6v-0.6l0.05,0.05L35,54.3l0.05,0.05l0.05,0.05
	c0.05,0.05,0.1,0.094,0.15,0.133c0.05,0.039,0.1,0.073,0.15,0.104s0.1,0.059,0.15,0.086c0.05,0.027,0.1,0.052,0.15,0.077
	c0.05,0.025,0.106,0.05,0.166,0.075c0.059,0.025,0.122,0.05,0.184,0.075c0.062,0.025,0.125,0.05,0.184,0.075
	c0.059,0.025,0.116,0.05,0.166,0.075c0.075,0.025,0.144,0.05,0.209,0.073c0.066,0.024,0.128,0.046,0.191,0.065
	c0.062,0.018,0.125,0.034,0.191,0.045S37.125,55.3,37.2,55.3s0.144,0.006,0.208,0.016s0.124,0.022,0.18,0.034
	s0.11,0.025,0.161,0.034C37.8,55.394,37.85,55.4,37.9,55.4c0.175,0,0.344-0.006,0.505-0.02s0.314-0.036,0.458-0.068
	c0.143-0.031,0.278-0.071,0.401-0.123C39.388,55.138,39.5,55.075,39.6,55s0.181-0.15,0.247-0.228
	c0.066-0.078,0.116-0.159,0.153-0.247s0.062-0.181,0.078-0.284c0.016-0.103,0.022-0.216,0.022-0.341
	c0-0.075-0.006-0.144-0.017-0.208s-0.026-0.124-0.045-0.18s-0.041-0.11-0.064-0.161C39.95,53.3,39.925,53.25,39.9,53.2
	s-0.056-0.1-0.092-0.148s-0.076-0.096-0.12-0.139c-0.044-0.044-0.091-0.084-0.139-0.12S39.45,52.725,39.4,52.7
	c-0.05-0.05-0.106-0.094-0.167-0.134c-0.061-0.041-0.126-0.078-0.195-0.116c-0.069-0.038-0.141-0.075-0.215-0.116
	C38.75,52.294,38.675,52.25,38.6,52.2s-0.15-0.094-0.227-0.134c-0.076-0.041-0.154-0.078-0.236-0.116
	c-0.082-0.038-0.166-0.075-0.255-0.116C37.794,51.794,37.7,51.75,37.6,51.7s-0.2-0.1-0.299-0.152
	c-0.099-0.051-0.196-0.104-0.29-0.16s-0.184-0.116-0.27-0.18C36.656,51.144,36.575,51.075,36.5,51
	c-0.075-0.05-0.15-0.106-0.225-0.166c-0.075-0.059-0.15-0.122-0.225-0.184s-0.15-0.125-0.225-0.184
	c-0.075-0.059-0.15-0.116-0.225-0.166c-0.05-0.075-0.1-0.15-0.15-0.225c-0.05-0.075-0.1-0.15-0.15-0.225s-0.1-0.15-0.15-0.225
	c-0.05-0.075-0.1-0.15-0.15-0.225c-0.025-0.075-0.05-0.162-0.073-0.258c-0.024-0.095-0.046-0.198-0.065-0.304
	c-0.019-0.107-0.034-0.216-0.045-0.324C34.806,48.406,34.8,48.3,34.8,48.2c0-0.15,0.006-0.294,0.02-0.431s0.036-0.269,0.067-0.394
	s0.072-0.244,0.124-0.356c0.052-0.112,0.114-0.219,0.189-0.319c0.05-0.1,0.112-0.2,0.184-0.299c0.072-0.098,0.153-0.195,0.241-0.29
	s0.181-0.185,0.278-0.27C36,45.756,36.1,45.675,36.2,45.6s0.206-0.144,0.317-0.206s0.227-0.119,0.346-0.169
	c0.118-0.05,0.24-0.094,0.364-0.131S37.475,45.025,37.6,45s0.25-0.05,0.375-0.073c0.125-0.024,0.25-0.046,0.375-0.065
	c0.125-0.019,0.25-0.034,0.375-0.045c0.125-0.011,0.25-0.017,0.375-0.017c0.3,0,0.581,0.006,0.842,0.02s0.501,0.036,0.72,0.067
	s0.416,0.072,0.589,0.124c0.174,0.052,0.324,0.114,0.449,0.189h0.025h0.025h0.025H41.8v0.575v0.575v0.575V47.5l-0.05-0.05L41.7,47.4
	l-0.05-0.05L41.6,47.3c-0.15-0.125-0.312-0.231-0.487-0.32c-0.175-0.089-0.363-0.161-0.562-0.218
	c-0.2-0.056-0.413-0.097-0.638-0.123C39.688,46.612,39.45,46.6,39.2,46.6c-0.075,0-0.144,0-0.209,0.002
	c-0.066,0.002-0.128,0.005-0.191,0.011s-0.125,0.016-0.191,0.03c-0.066,0.014-0.134,0.032-0.209,0.057s-0.144,0.044-0.208,0.061
	s-0.124,0.033-0.18,0.051c-0.056,0.019-0.109,0.041-0.16,0.071C37.8,46.912,37.75,46.95,37.7,47c-0.05,0.025-0.1,0.056-0.148,0.091
	s-0.096,0.072-0.139,0.109c-0.044,0.038-0.084,0.075-0.12,0.109c-0.036,0.034-0.067,0.066-0.092,0.091
	c-0.025,0.05-0.05,0.1-0.073,0.15c-0.024,0.05-0.046,0.1-0.065,0.15c-0.018,0.05-0.034,0.1-0.045,0.15C37.006,47.9,37,47.95,37,48
	s0,0.1,0.002,0.15c0.002,0.05,0.005,0.1,0.011,0.15c0.006,0.05,0.015,0.1,0.029,0.15c0.014,0.05,0.033,0.1,0.058,0.15
	c0.025,0.05,0.05,0.094,0.076,0.134c0.027,0.041,0.055,0.078,0.085,0.116c0.032,0.037,0.066,0.075,0.105,0.116
	c0.039,0.041,0.083,0.084,0.133,0.134s0.1,0.094,0.152,0.134c0.051,0.041,0.104,0.078,0.16,0.116s0.115,0.075,0.18,0.116
	c0.064,0.041,0.133,0.084,0.208,0.134c0.075,0.025,0.15,0.056,0.227,0.092s0.154,0.076,0.236,0.12
	c0.081,0.044,0.166,0.091,0.255,0.139S39.1,50.05,39.2,50.1s0.2,0.1,0.299,0.152c0.098,0.051,0.195,0.104,0.29,0.16
	s0.185,0.116,0.27,0.18c0.086,0.064,0.167,0.133,0.242,0.208c0.1,0.05,0.194,0.106,0.281,0.167c0.088,0.061,0.169,0.126,0.244,0.195
	s0.144,0.14,0.206,0.214c0.062,0.074,0.119,0.149,0.169,0.224c0.075,0.075,0.144,0.15,0.206,0.227s0.119,0.154,0.169,0.236
	c0.05,0.082,0.094,0.166,0.131,0.255c0.038,0.089,0.069,0.183,0.094,0.283c0.05,0.1,0.087,0.2,0.116,0.3
	c0.028,0.1,0.047,0.2,0.059,0.3c0.013,0.1,0.019,0.2,0.022,0.3S42,53.7,42,53.8c0,0.15-0.006,0.294-0.02,0.433
	c-0.014,0.139-0.036,0.273-0.067,0.404s-0.072,0.259-0.124,0.386c-0.052,0.127-0.114,0.252-0.189,0.377
	c-0.05,0.1-0.112,0.2-0.184,0.297c-0.072,0.097-0.153,0.191-0.241,0.278s-0.181,0.169-0.278,0.241C40.8,56.287,40.7,56.35,40.6,56.4
	c-0.1,0.075-0.206,0.144-0.317,0.206s-0.227,0.119-0.346,0.169c-0.118,0.05-0.24,0.094-0.364,0.131S39.325,56.975,39.2,57
	c-0.025,0.025-0.081,0.05-0.161,0.073c-0.08,0.024-0.183,0.046-0.302,0.065c-0.118,0.019-0.253,0.034-0.395,0.045
	C38.2,57.194,38.05,57.2,37.9,57.2z M35.1,56.3c0.025,0.025,0.056,0.05,0.092,0.073c0.036,0.024,0.076,0.046,0.12,0.065
	c0.044,0.018,0.091,0.034,0.139,0.045S35.55,56.5,35.6,56.5c0.075,0.025,0.144,0.044,0.209,0.059S35.938,56.588,36,56.6
	s0.125,0.025,0.191,0.041s0.134,0.034,0.209,0.059s0.15,0.044,0.223,0.058c0.074,0.014,0.146,0.024,0.215,0.03
	c0.069,0.006,0.134,0.009,0.195,0.011C37.094,56.8,37.15,56.8,37.2,56.8c0.075,0,0.144,0,0.208,0s0.124,0,0.18,0s0.11,0,0.161,0
	c0.051,0,0.101,0,0.151,0c0.15,0,0.294-0.006,0.433-0.017c0.139-0.011,0.273-0.026,0.404-0.045c0.131-0.019,0.26-0.041,0.386-0.064
	s0.252-0.049,0.377-0.074s0.244-0.056,0.358-0.092s0.224-0.076,0.33-0.12c0.106-0.044,0.209-0.091,0.311-0.139
	C40.6,56.2,40.7,56.15,40.8,56.1c0.1-0.05,0.194-0.112,0.281-0.184c0.088-0.072,0.169-0.153,0.244-0.241s0.144-0.181,0.206-0.278
	C41.594,55.3,41.65,55.2,41.7,55.1s0.094-0.206,0.131-0.317c0.037-0.111,0.069-0.227,0.094-0.346
	c0.025-0.118,0.044-0.24,0.056-0.364S42,53.825,42,53.7c0-0.1-0.006-0.2-0.017-0.299s-0.026-0.195-0.045-0.29
	c-0.019-0.093-0.041-0.184-0.064-0.27c-0.024-0.086-0.049-0.167-0.074-0.242s-0.056-0.15-0.094-0.225
	c-0.037-0.075-0.081-0.15-0.131-0.225s-0.106-0.15-0.169-0.225c-0.062-0.075-0.131-0.15-0.206-0.225s-0.15-0.144-0.225-0.209
	c-0.075-0.066-0.15-0.128-0.225-0.191s-0.15-0.125-0.225-0.191c-0.075-0.066-0.15-0.134-0.225-0.209
	c-0.075-0.05-0.156-0.106-0.242-0.166c-0.086-0.059-0.177-0.122-0.271-0.184s-0.191-0.125-0.289-0.184
	C39.4,50.306,39.3,50.25,39.2,50.2s-0.194-0.094-0.283-0.134c-0.089-0.041-0.174-0.078-0.255-0.116
	c-0.081-0.038-0.159-0.075-0.236-0.116C38.35,49.794,38.275,49.75,38.2,49.7s-0.144-0.094-0.209-0.134
	c-0.066-0.041-0.128-0.078-0.191-0.116s-0.125-0.075-0.191-0.116c-0.066-0.041-0.134-0.084-0.209-0.134
	c-0.05-0.05-0.1-0.1-0.148-0.15c-0.049-0.05-0.096-0.1-0.139-0.15c-0.044-0.05-0.084-0.1-0.12-0.15
	c-0.036-0.05-0.067-0.1-0.092-0.15s-0.05-0.106-0.074-0.166c-0.023-0.059-0.045-0.122-0.064-0.184
	c-0.018-0.063-0.034-0.125-0.045-0.184C36.706,48.006,36.7,47.95,36.7,47.9c0-0.075,0.006-0.15,0.017-0.223
	c0.011-0.074,0.026-0.146,0.045-0.215s0.04-0.135,0.064-0.195c0.024-0.061,0.049-0.117,0.074-0.167s0.056-0.1,0.094-0.149
	c0.037-0.048,0.081-0.095,0.131-0.139c0.05-0.043,0.106-0.084,0.169-0.12c0.062-0.036,0.131-0.067,0.206-0.092
	c0.05-0.025,0.106-0.05,0.167-0.075c0.061-0.025,0.126-0.05,0.195-0.075c0.069-0.025,0.141-0.05,0.215-0.075s0.148-0.05,0.223-0.075
	s0.15-0.044,0.223-0.058s0.146-0.023,0.215-0.029c0.069-0.007,0.134-0.01,0.195-0.011S39.05,46.2,39.1,46.2
	c0.225,0,0.444,0.013,0.655,0.037c0.211,0.025,0.414,0.063,0.608,0.113s0.378,0.112,0.551,0.188C41.088,46.613,41.25,46.7,41.4,46.8
	v-0.4V46v-0.4v-0.4c-0.1,0-0.225-0.013-0.373-0.031c-0.148-0.019-0.32-0.044-0.514-0.069c-0.194-0.025-0.41-0.05-0.646-0.069
	S39.375,45,39.1,45c-0.125,0-0.25,0.006-0.375,0.017s-0.25,0.026-0.375,0.045s-0.25,0.041-0.375,0.064s-0.25,0.049-0.375,0.074
	s-0.244,0.056-0.358,0.094c-0.114,0.037-0.224,0.081-0.33,0.131c-0.106,0.05-0.209,0.106-0.31,0.169
	C36.5,45.656,36.4,45.725,36.3,45.8s-0.194,0.15-0.281,0.226c-0.088,0.076-0.169,0.155-0.244,0.236
	c-0.075,0.081-0.144,0.166-0.206,0.255S35.45,46.7,35.4,46.8s-0.094,0.2-0.131,0.303c-0.037,0.103-0.069,0.209-0.094,0.322
	s-0.044,0.231-0.056,0.359C35.106,47.913,35.1,48.05,35.1,48.2c0,0.1,0.006,0.2,0.017,0.299s0.026,0.195,0.045,0.29
	c0.019,0.093,0.041,0.184,0.065,0.27c0.023,0.086,0.049,0.167,0.073,0.242s0.056,0.15,0.092,0.225s0.076,0.15,0.12,0.225
	c0.044,0.075,0.091,0.15,0.139,0.225C35.7,50.05,35.75,50.125,35.8,50.2s0.106,0.144,0.167,0.208s0.126,0.124,0.195,0.18
	c0.069,0.056,0.141,0.109,0.215,0.16C36.45,50.8,36.525,50.85,36.6,50.9s0.156,0.1,0.242,0.15c0.086,0.05,0.177,0.1,0.271,0.15
	s0.191,0.1,0.289,0.15c0.098,0.05,0.198,0.1,0.298,0.15c0.075,0.05,0.156,0.094,0.241,0.134c0.084,0.041,0.172,0.078,0.259,0.116
	s0.175,0.075,0.259,0.116C38.544,51.906,38.625,51.95,38.7,52s0.15,0.094,0.223,0.134c0.074,0.041,0.146,0.078,0.215,0.116
	c0.069,0.037,0.134,0.075,0.195,0.116c0.061,0.041,0.117,0.084,0.167,0.134s0.1,0.1,0.15,0.15c0.05,0.05,0.1,0.1,0.15,0.15
	s0.1,0.1,0.15,0.15c0.05,0.05,0.1,0.1,0.15,0.15c0.025,0.05,0.05,0.106,0.073,0.167c0.024,0.061,0.046,0.126,0.065,0.195
	c0.019,0.069,0.034,0.141,0.045,0.215S40.3,53.825,40.3,53.9c0,0.15-0.013,0.287-0.037,0.414c-0.025,0.127-0.063,0.242-0.113,0.349
	c-0.05,0.106-0.112,0.203-0.188,0.292S39.8,55.125,39.7,55.2s-0.213,0.138-0.338,0.189c-0.125,0.052-0.262,0.092-0.412,0.123
	s-0.312,0.053-0.487,0.067S38.1,55.6,37.9,55.6c-0.05,0-0.106,0-0.167-0.002s-0.126-0.005-0.195-0.011
	c-0.069-0.006-0.141-0.015-0.215-0.029S37.175,55.525,37.1,55.5s-0.144-0.044-0.209-0.059S36.762,55.412,36.7,55.4
	s-0.125-0.025-0.191-0.041S36.375,55.325,36.3,55.3s-0.144-0.05-0.209-0.075c-0.066-0.025-0.128-0.05-0.191-0.075
	s-0.125-0.05-0.191-0.075C35.644,55.05,35.575,55.025,35.5,55c-0.05-0.025-0.094-0.05-0.133-0.075
	c-0.039-0.025-0.073-0.05-0.104-0.075c-0.031-0.025-0.06-0.05-0.086-0.075c-0.027-0.025-0.052-0.05-0.077-0.075v0.4v0.4v0.4V56.3z"
	/>
<path style="fill:#FFFFFF;" d="M48.8,57.1c-0.4,0-0.781-0.031-1.144-0.095c-0.363-0.064-0.706-0.161-1.031-0.293
	s-0.631-0.297-0.919-0.498c-0.288-0.201-0.556-0.439-0.806-0.714s-0.469-0.569-0.656-0.883s-0.344-0.649-0.469-1.005
	c-0.125-0.356-0.219-0.734-0.281-1.135C43.431,52.075,43.4,51.65,43.4,51.2c0-0.475,0.031-0.925,0.094-1.35s0.156-0.825,0.281-1.2
	s0.281-0.725,0.469-1.05s0.406-0.625,0.656-0.9s0.519-0.519,0.808-0.73c0.289-0.211,0.598-0.389,0.929-0.533
	c0.331-0.143,0.685-0.253,1.061-0.326S48.475,45,48.9,45c0.4,0,0.775,0.031,1.128,0.095c0.353,0.064,0.684,0.161,0.997,0.293
	s0.606,0.297,0.884,0.498c0.278,0.201,0.541,0.439,0.791,0.714s0.462,0.569,0.641,0.883c0.178,0.314,0.322,0.649,0.434,1.005
	c0.112,0.356,0.194,0.734,0.247,1.136S54.1,50.45,54.1,50.9c0,0.475-0.031,0.925-0.094,1.352c-0.062,0.426-0.156,0.829-0.281,1.21
	s-0.281,0.741-0.469,1.08S52.85,55.2,52.6,55.5c-0.2,0.25-0.438,0.475-0.706,0.672S51.325,56.537,51,56.675
	c-0.325,0.138-0.675,0.244-1.044,0.316C49.587,57.062,49.2,57.1,48.8,57.1z M48.9,46.6c-0.25,0-0.494,0.025-0.728,0.075
	S47.713,46.8,47.5,46.9s-0.412,0.225-0.597,0.375C46.719,47.425,46.55,47.6,46.4,47.8s-0.287,0.419-0.409,0.655
	s-0.228,0.489-0.316,0.758c-0.088,0.269-0.156,0.553-0.203,0.851C45.425,50.362,45.4,50.675,45.4,51s0.019,0.638,0.056,0.936
	c0.037,0.298,0.094,0.583,0.169,0.851c0.075,0.269,0.169,0.522,0.281,0.758S46.15,54,46.3,54.2s0.312,0.375,0.487,0.525
	C46.963,54.875,47.15,55,47.35,55.1c0.2,0.1,0.412,0.175,0.638,0.225c0.225,0.05,0.462,0.075,0.712,0.075
	c0.275,0,0.531-0.025,0.77-0.073s0.461-0.12,0.668-0.214s0.397-0.209,0.573-0.345c0.176-0.136,0.339-0.293,0.489-0.468
	c0.15-0.2,0.281-0.413,0.394-0.641c0.113-0.228,0.206-0.472,0.281-0.734c0.075-0.263,0.131-0.544,0.169-0.847
	C52.081,51.775,52.1,51.45,52.1,51.1s-0.019-0.681-0.056-0.994c-0.037-0.312-0.094-0.606-0.169-0.881
	c-0.075-0.275-0.169-0.531-0.281-0.769S51.35,48,51.2,47.8c-0.1-0.2-0.231-0.375-0.388-0.525c-0.156-0.15-0.338-0.275-0.537-0.375
	c-0.2-0.1-0.419-0.175-0.65-0.225C49.394,46.625,49.15,46.6,48.9,46.6z"/>
<path d="M48.8,57.2c-0.4,0-0.787-0.038-1.159-0.111c-0.372-0.074-0.728-0.183-1.066-0.327c-0.337-0.144-0.656-0.322-0.953-0.532
	c-0.297-0.211-0.572-0.455-0.822-0.73s-0.469-0.575-0.656-0.898c-0.188-0.324-0.344-0.671-0.469-1.04
	c-0.125-0.368-0.219-0.759-0.281-1.17C43.331,51.981,43.3,51.55,43.3,51.1c0-0.475,0.031-0.931,0.094-1.366
	c0.062-0.434,0.156-0.847,0.281-1.234c0.125-0.388,0.281-0.75,0.469-1.084c0.188-0.334,0.406-0.641,0.656-0.916
	c0.25-0.3,0.525-0.556,0.823-0.772c0.299-0.216,0.62-0.391,0.965-0.528s0.709-0.237,1.095-0.303
	c0.386-0.066,0.792-0.097,1.217-0.097c0.4,0,0.781,0.038,1.144,0.111c0.363,0.074,0.706,0.183,1.031,0.327
	c0.325,0.144,0.631,0.321,0.919,0.533c0.287,0.211,0.556,0.455,0.806,0.73c0.25,0.275,0.469,0.575,0.656,0.898
	c0.188,0.324,0.344,0.671,0.469,1.04c0.125,0.368,0.219,0.758,0.281,1.169C54.269,50.019,54.3,50.45,54.3,50.9
	c0,0.475-0.031,0.931-0.094,1.366c-0.062,0.434-0.156,0.847-0.281,1.234c-0.125,0.388-0.281,0.75-0.469,1.084
	c-0.188,0.334-0.406,0.641-0.656,0.916s-0.519,0.519-0.808,0.73c-0.289,0.211-0.598,0.389-0.929,0.533
	c-0.332,0.144-0.685,0.253-1.061,0.326C49.625,57.162,49.225,57.2,48.8,57.2z M49,45c-0.4,0-0.787,0.037-1.158,0.109
	s-0.724,0.178-1.055,0.316c-0.331,0.138-0.64,0.306-0.923,0.503c-0.283,0.197-0.539,0.422-0.764,0.672
	c-0.25,0.275-0.463,0.575-0.641,0.898c-0.178,0.324-0.322,0.671-0.434,1.04c-0.112,0.369-0.194,0.759-0.247,1.17
	C43.725,50.119,43.7,50.55,43.7,51c0,0.425,0.031,0.831,0.092,1.219s0.151,0.756,0.27,1.106s0.265,0.681,0.439,0.994
	s0.374,0.606,0.599,0.881s0.475,0.513,0.748,0.714c0.274,0.201,0.571,0.367,0.89,0.498c0.319,0.132,0.659,0.228,1.02,0.293
	C48.119,56.769,48.5,56.8,48.9,56.8s0.781-0.031,1.142-0.095c0.361-0.064,0.701-0.161,1.02-0.293
	c0.319-0.131,0.616-0.296,0.889-0.498s0.523-0.439,0.749-0.714c0.25-0.275,0.462-0.575,0.641-0.9
	c0.178-0.325,0.322-0.675,0.434-1.05s0.194-0.775,0.247-1.2c0.053-0.425,0.078-0.875,0.078-1.35c0-0.425-0.031-0.831-0.092-1.219
	s-0.151-0.756-0.27-1.106c-0.119-0.35-0.266-0.681-0.44-0.994S52.925,46.775,52.7,46.5c-0.225-0.225-0.475-0.431-0.747-0.614
	c-0.272-0.183-0.566-0.342-0.878-0.474c-0.312-0.131-0.644-0.234-0.991-0.304C49.737,45.037,49.375,45,49,45z M48.8,55.5
	c-0.25,0-0.494-0.025-0.728-0.075S47.612,55.3,47.4,55.2s-0.413-0.225-0.597-0.375C46.619,54.675,46.45,54.5,46.3,54.3
	s-0.287-0.419-0.409-0.655s-0.228-0.489-0.316-0.758c-0.087-0.269-0.156-0.553-0.203-0.851C45.325,51.737,45.3,51.425,45.3,51.1
	s0.019-0.638,0.058-0.938s0.098-0.588,0.179-0.862s0.184-0.537,0.311-0.787s0.277-0.487,0.452-0.713
	c0.175-0.2,0.356-0.381,0.547-0.541s0.391-0.297,0.603-0.409c0.212-0.112,0.438-0.2,0.678-0.259
	c0.241-0.059,0.497-0.091,0.772-0.091s0.537,0.025,0.786,0.075s0.483,0.125,0.701,0.225s0.422,0.225,0.607,0.375
	c0.186,0.15,0.355,0.325,0.505,0.525s0.281,0.419,0.394,0.656s0.206,0.494,0.281,0.769c0.076,0.275,0.132,0.569,0.17,0.881
	C52.381,50.319,52.4,50.65,52.4,51s-0.019,0.681-0.058,0.994c-0.039,0.312-0.098,0.606-0.179,0.881s-0.184,0.531-0.311,0.769
	S51.575,54.1,51.4,54.3c-0.15,0.2-0.319,0.375-0.505,0.525c-0.186,0.15-0.389,0.275-0.607,0.375s-0.453,0.175-0.702,0.225
	C49.338,55.475,49.075,55.5,48.8,55.5z M48.9,46.8c-0.25,0-0.487,0.025-0.713,0.075C47.963,46.925,47.75,47,47.55,47.1
	c-0.2,0.1-0.388,0.225-0.562,0.375S46.65,47.8,46.5,48s-0.281,0.412-0.394,0.639c-0.113,0.227-0.206,0.467-0.281,0.723
	c-0.075,0.257-0.131,0.528-0.169,0.818c-0.038,0.289-0.056,0.595-0.056,0.92s0.019,0.631,0.056,0.92
	c0.037,0.289,0.094,0.561,0.169,0.817c0.075,0.257,0.169,0.497,0.281,0.724C46.219,53.787,46.35,54,46.5,54.2
	s0.312,0.369,0.486,0.509c0.173,0.141,0.358,0.253,0.551,0.341c0.194,0.087,0.397,0.15,0.608,0.191S48.575,55.3,48.8,55.3
	c0.25,0,0.487-0.025,0.713-0.073c0.225-0.048,0.437-0.12,0.637-0.214c0.2-0.094,0.388-0.21,0.562-0.346
	c0.175-0.136,0.337-0.292,0.487-0.466s0.281-0.375,0.394-0.597s0.206-0.466,0.281-0.729c0.075-0.263,0.131-0.545,0.169-0.841
	c0.037-0.297,0.056-0.61,0.056-0.935c0-0.35-0.019-0.675-0.056-0.978c-0.037-0.303-0.094-0.584-0.169-0.847
	c-0.075-0.263-0.169-0.506-0.281-0.734C51.481,48.312,51.35,48.1,51.2,47.9c-0.125-0.2-0.269-0.369-0.43-0.509
	c-0.161-0.141-0.339-0.253-0.532-0.341c-0.194-0.088-0.403-0.15-0.627-0.191S49.15,46.8,48.9,46.8z"/>
<path style="fill:#FFFFFF;" d="M62.5,56.9h-1.55H59.4h-1.55H56.3v-2.95V51v-2.95V45.1h0.475h0.475h0.475H58.2v2.525v2.525v2.525
	V55.2h1.075h1.075h1.075H62.5v0.425v0.425c0,0,0,0.213,0,0.425S62.5,56.9,62.5,56.9z"/>
<path d="M62.6,57H61h-1.6h-1.6h-1.6v-3v-3v-3v-3h0.525h0.525h0.525H58.3v2.525v2.525v2.525V55.1h1.075h1.075h1.075H62.6
	c0,0,0,0.119,0,0.297s0,0.416,0,0.653s0,0.475,0,0.653S62.6,57,62.6,57z M56.4,56.8h1.475h1.475h1.475H62.3v-0.35V56.1v-0.35V55.4
	h-1.075H60.15h-1.075H58v-2.55V50.3v-2.55V45.2h-0.4h-0.4h-0.4h-0.4v2.9V51v2.9V56.8z"/>
<path style="fill:#FFFFFF;" d="M66,56.9h-0.475H65.05h-0.475H64.1v-2.95V51v-2.95V45.1h0.475h0.475h0.475H66v2.95V51v2.95V56.9z"/>
<path d="M66.1,57h-0.55H65h-0.55H63.9v-3v-3v-3v-3h0.55H65h0.55h0.55v3v3v3V57z M64.2,56.8h0.425h0.425h0.425H65.9v-2.9V51v-2.9
	v-2.9h-0.425H65.05h-0.425H64.2v2.9V51v2.9V56.8z"/>
<path style="fill:#FFFFFF;" d="M78.2,56.9h-0.5h-0.5h-0.5h-0.5l-1.325-2.175L73.55,52.55l-1.325-2.175L70.9,48.2
	c-0.025-0.05-0.05-0.1-0.075-0.152c-0.025-0.051-0.05-0.104-0.075-0.16s-0.05-0.115-0.075-0.179
	c-0.025-0.064-0.05-0.133-0.075-0.209l0,0l0,0l0,0l0,0c0,0.075,0.006,0.162,0.016,0.264s0.022,0.217,0.034,0.348
	c0.013,0.132,0.025,0.278,0.034,0.442s0.016,0.345,0.016,0.545v1.925v1.925v1.925v1.925h-0.45H69.8h-0.45H68.9v-2.925v-2.925v-2.924
	V45.1h0.55H70h0.55h0.55l1.3,2.1l1.3,2.1l1.3,2.1l1.3,2.1c0.05,0.1,0.1,0.188,0.147,0.264s0.091,0.142,0.128,0.199
	c0.038,0.056,0.069,0.103,0.091,0.142S76.7,54.175,76.7,54.2l0,0l0,0l0,0l0,0c-0.025-0.075-0.044-0.163-0.058-0.264
	c-0.014-0.101-0.024-0.217-0.03-0.348c-0.006-0.132-0.009-0.278-0.01-0.443C76.6,52.981,76.6,52.8,76.6,52.6v-1.9v-1.9v-1.9V45h0.45
	h0.45h0.45h0.45v2.975v2.975v2.975V56.9h-0.05H78.3h-0.05H78.2z"/>
<path d="M78.3,57h-0.55H77.2h-0.55H76.1v-0.025V56.95v-0.025V56.9l-1.325-2.175L73.45,52.55l-1.325-2.175L70.8,48.2
	c0-0.025-0.006-0.044-0.016-0.059s-0.022-0.028-0.034-0.041s-0.025-0.025-0.034-0.041C70.706,48.044,70.7,48.025,70.7,48
	c0,0.075,0,0.15,0,0.227s0,0.154,0,0.236c0,0.081,0,0.166,0,0.255c0,0.089,0,0.183,0,0.283v2v2v2v2h-0.5h-0.5h-0.5h-0.5v-3v-3v-3v-3
	h0.575h0.575h0.575H71v0.025v0.025v0.025V45.1l1.3,2.1l1.3,2.1l1.3,2.1l1.3,2.1c0.025,0.025,0.044,0.05,0.059,0.075
	c0.016,0.025,0.028,0.05,0.041,0.075c0.013,0.025,0.025,0.05,0.041,0.075c0.016,0.025,0.034,0.05,0.059,0.075
	c0-0.075,0-0.15,0-0.228c0-0.078,0-0.159,0-0.247s0-0.181,0-0.284s0-0.216,0-0.341v-1.925V48.85v-1.925V45h0.5h0.5h0.5h0.5v3v3v3v3
	h-0.025H78.35h-0.025H78.3z M76.2,56.8h0.45h0.45h0.45H78v-2.9V51v-2.9v-2.9h-0.375H77.25h-0.375H76.5v1.875v1.875v1.875V52.7
	c0,0.175,0,0.344,0.002,0.503c0.001,0.159,0.004,0.309,0.01,0.447c0.007,0.138,0.016,0.263,0.03,0.372
	c0.014,0.109,0.033,0.203,0.058,0.278v0.025v0.025v0.025V54.4h-0.05H76.5h-0.05H76.4l-0.025-0.025L76.35,54.35l-0.025-0.025
	L76.3,54.3c-0.025-0.025-0.05-0.062-0.076-0.109s-0.054-0.103-0.086-0.166c-0.032-0.062-0.066-0.131-0.105-0.203
	C75.994,53.75,75.95,53.675,75.9,53.6l-1.275-2.1l-1.275-2.1l-1.275-2.1L70.8,45.2h-0.5h-0.5h-0.5h-0.5v2.875v2.875v2.875V56.7
	h0.375h0.375h0.375H70.3v-1.9v-1.9V51v-1.9c0-0.2,0-0.388-0.002-0.559c-0.001-0.172-0.005-0.328-0.01-0.466
	c-0.007-0.137-0.016-0.256-0.03-0.353c-0.014-0.097-0.033-0.172-0.058-0.222v-0.025V47.45v-0.025V47.4h0.075h0.075h0.075H70.5v0.025
	v0.025v0.025V47.5c0.025,0.05,0.05,0.106,0.075,0.166c0.025,0.059,0.05,0.122,0.075,0.184s0.05,0.125,0.075,0.184
	c0.025,0.059,0.05,0.116,0.075,0.166l1.35,2.15l1.35,2.15l1.35,2.15L76.2,56.8z"/>
<path style="fill:#FFFFFF;" d="M87.2,56.9h-1.55H84.1h-1.55H81v-2.95V51v-2.95V45.1h1.5H84h1.5H87v0.425v0.425v0.425V46.8h-1.05
	H84.9h-1.05H82.8v0.825v0.825v0.825V50.1h0.95h0.95h0.95h0.95v0.4v0.4v0.4v0.4h-0.95H84.7h-0.95H82.8v0.875v0.875v0.875V55.2h1.1H85
	h1.1h1.1c0,0,0,0.106,0,0.266s0,0.372,0,0.584s0,0.425,0,0.584C87.2,56.794,87.2,56.9,87.2,56.9z"/>
<path d="M87.4,57h-1.625H84.15h-1.625H80.9v-3v-3v-3v-3h1.575h1.575h1.575H87.2v0.475v0.475v0.475V46.9h-1.05H85.1h-1.05H83v0.775
	v0.775v0.775V50h0.95h0.95h0.95h0.95v0.475v0.475v0.475V51.9h-0.95H84.9h-0.95H83v0.8v0.8v0.8v0.8h1.1h1.1h1.1h1.1v0.475v0.475
	c0,0,0,0.237,0,0.475C87.4,56.763,87.4,57,87.4,57z M81.1,56.8h1.5h1.5h1.5h1.5v-0.35V56.1v-0.35V55.4H86h-1.1h-1.1h-1.1v-0.925
	V53.55v-0.925V51.7h0.95h0.95h0.95h0.95v-0.35V51v-0.35V50.3h-0.95H84.6h-0.95H82.7v-0.9v-0.9v-0.9v-0.9h1.05h1.05h1.05h1.05v-0.35
	V46v-0.35V45.3h-1.45H84h-1.45H81.1c0,0,0,0.719,0,1.797s0,2.516,0,3.953s0,2.875,0,3.953S81.1,56.8,81.1,56.8z"/>
<path style="fill:#FFFFFF;" d="M54.9,35.8c-0.025-0.1,0.025-0.263,0.122-0.458c0.097-0.195,0.241-0.423,0.403-0.654
	c0.162-0.232,0.344-0.466,0.516-0.674s0.334-0.389,0.459-0.514c0.05-0.075,0.1-0.144,0.148-0.206s0.096-0.119,0.139-0.169
	c0.043-0.05,0.084-0.094,0.12-0.131c0.036-0.037,0.067-0.069,0.092-0.094c0.05-0.075,0.088-0.144,0.114-0.206
	c0.027-0.062,0.042-0.119,0.048-0.169c0.007-0.05,0.003-0.094-0.007-0.131c-0.011-0.037-0.03-0.069-0.055-0.094
	c-0.025-0.05-0.056-0.094-0.094-0.131s-0.081-0.069-0.131-0.094c-0.05-0.025-0.106-0.044-0.169-0.056
	C56.544,32.006,56.475,32,56.4,32c-0.05,0-0.1-0.006-0.15-0.023c-0.05-0.017-0.1-0.045-0.15-0.089c-0.05-0.044-0.1-0.104-0.15-0.183
	s-0.1-0.18-0.15-0.305c0-0.025-0.006-0.056-0.016-0.091c-0.009-0.034-0.022-0.072-0.034-0.109c-0.013-0.038-0.025-0.075-0.034-0.109
	C55.706,31.056,55.7,31.025,55.7,31c-0.025-0.125-0.05-0.25-0.083-0.369c-0.033-0.119-0.074-0.231-0.13-0.331
	c-0.056-0.1-0.128-0.188-0.223-0.256S55.05,29.925,54.9,29.9c-0.15,0-0.275-0.038-0.378-0.098s-0.184-0.145-0.247-0.239
	s-0.106-0.197-0.134-0.295C54.112,29.169,54.1,29.075,54.1,29c0-0.05,0.019-0.119,0.052-0.198s0.08-0.17,0.136-0.264
	s0.122-0.191,0.192-0.283c0.07-0.092,0.145-0.179,0.22-0.254c0.075-0.125,0.144-0.231,0.203-0.322s0.109-0.166,0.147-0.228
	c0.038-0.062,0.062-0.112,0.072-0.153c0.009-0.041,0.003-0.072-0.022-0.097v-0.025V27.15v-0.025V27.1h-0.025H55.05h-0.025H55h-0.025
	H54.95h-0.025H54.9c-0.05,0-0.112,0.006-0.184,0.017c-0.072,0.011-0.153,0.026-0.241,0.045s-0.181,0.041-0.278,0.064
	C54.1,27.25,54,27.275,53.9,27.3s-0.2,0.05-0.297,0.073c-0.097,0.024-0.191,0.045-0.278,0.065s-0.169,0.035-0.241,0.045
	C53.013,27.494,52.95,27.5,52.9,27.5c-0.025,0-0.05-0.025-0.073-0.072c-0.024-0.047-0.046-0.116-0.065-0.203
	c-0.019-0.087-0.034-0.194-0.045-0.316S52.7,26.65,52.7,26.5c0-0.1,0-0.206-0.002-0.317s-0.005-0.227-0.011-0.346
	c-0.006-0.118-0.015-0.24-0.029-0.364S52.625,25.225,52.6,25.1c-0.025-0.275-0.056-0.512-0.095-0.714
	c-0.039-0.201-0.086-0.367-0.142-0.498c-0.056-0.132-0.122-0.229-0.199-0.293C52.088,23.531,52,23.5,51.9,23.5h-0.025H51.85h-0.025
	H51.8h-0.025H51.75h-0.025H51.7h-0.025H51.65h-0.025H51.6v0.025v0.025v0.025V23.6c-0.15,0.525-0.319,1.056-0.492,1.561
	s-0.352,0.983-0.521,1.401c-0.168,0.419-0.328,0.779-0.464,1.046S49.875,28.05,49.8,28.1c-0.025,0-0.062-0.025-0.108-0.066
	c-0.045-0.041-0.099-0.097-0.155-0.159c-0.056-0.062-0.115-0.131-0.173-0.197C49.306,27.612,49.25,27.55,49.2,27.5
	c-0.075-0.1-0.15-0.2-0.227-0.294s-0.154-0.181-0.236-0.256c-0.081-0.075-0.166-0.138-0.255-0.181
	C48.394,26.725,48.3,26.7,48.2,26.7c-0.175,0.025-0.3,0.112-0.389,0.244s-0.142,0.306-0.173,0.506s-0.041,0.425-0.042,0.656
	C47.594,28.337,47.6,28.575,47.6,28.8v0.075v0.075v0.075V29.1c0,0.025,0,0.05-0.002,0.075c-0.002,0.025-0.005,0.05-0.011,0.075
	c-0.006,0.025-0.015,0.05-0.029,0.075c-0.014,0.025-0.033,0.05-0.058,0.075c0,0,0,0-0.003,0c-0.003,0-0.009,0-0.022,0
	s-0.031,0-0.059,0s-0.066,0-0.116,0c-0.025,0-0.05,0-0.076-0.002c-0.026-0.002-0.054-0.005-0.085-0.011
	c-0.031-0.006-0.066-0.015-0.105-0.029S46.95,29.325,46.9,29.3c-0.05,0-0.1-0.006-0.148-0.016s-0.096-0.022-0.139-0.034
	c-0.043-0.013-0.084-0.025-0.12-0.034C46.456,29.206,46.425,29.2,46.4,29.2l0,0l0,0l0,0l0,0c-0.2,0-0.356,0.019-0.478,0.055
	c-0.122,0.036-0.209,0.089-0.272,0.157s-0.1,0.153-0.122,0.252C45.506,29.762,45.5,29.875,45.5,30c0,0.05,0.006,0.112,0.016,0.184
	c0.009,0.072,0.022,0.153,0.034,0.241c0.013,0.088,0.025,0.181,0.034,0.278C45.594,30.8,45.6,30.9,45.6,31
	c0.025,0.125,0.05,0.256,0.072,0.384c0.022,0.128,0.041,0.253,0.053,0.366s0.019,0.213,0.016,0.291
	c-0.003,0.078-0.016,0.134-0.041,0.159l0,0l0,0l0,0l0,0c0,0,0,0-0.002,0s-0.005,0-0.011,0s-0.016,0-0.03,0s-0.032,0-0.057,0
	s-0.05,0-0.075,0s-0.05,0-0.075,0c-0.025,0-0.05,0-0.075,0c-0.025,0-0.05,0-0.075,0s-0.05,0-0.075,0s-0.05,0-0.075,0
	c-0.025,0-0.05,0-0.075,0c-0.025,0-0.05,0-0.075,0c-0.05,0-0.094,0.006-0.131,0.017c-0.038,0.011-0.069,0.026-0.094,0.045
	c-0.025,0.019-0.044,0.041-0.056,0.064C44.706,32.35,44.7,32.375,44.7,32.4c-0.025,0.075,0,0.225,0.055,0.412
	c0.055,0.188,0.139,0.412,0.232,0.638c0.094,0.225,0.197,0.45,0.289,0.638c0.092,0.188,0.174,0.338,0.224,0.412
	s0.094,0.144,0.13,0.206s0.064,0.119,0.083,0.169c0.018,0.05,0.028,0.094,0.026,0.131S45.725,35.075,45.7,35.1
	c0,0.025-0.006,0.05-0.025,0.073c-0.019,0.024-0.05,0.046-0.1,0.065c-0.05,0.019-0.119,0.034-0.213,0.045S45.15,35.3,45,35.3
	c-0.025,0-0.05,0-0.075,0c-0.025,0-0.05,0-0.075,0s-0.05,0-0.075,0c-0.025,0-0.05,0-0.075,0c-0.375-0.025-0.856-0.444-1.369-1.067
	c-0.512-0.623-1.056-1.451-1.556-2.295c-0.5-0.844-0.956-1.703-1.294-2.389c-0.338-0.686-0.556-1.199-0.581-1.349
	c0.025-0.1,0.044-0.2,0.058-0.297s0.023-0.191,0.029-0.278c0.006-0.087,0.01-0.169,0.011-0.241S40,27.25,40,27.2
	c0.075,0,0.162,0.006,0.259,0.016c0.097,0.009,0.203,0.022,0.316,0.034s0.231,0.025,0.353,0.034C41.05,27.294,41.175,27.3,41.3,27.3
	c0.2,0,0.381-0.006,0.544-0.019c0.162-0.013,0.306-0.031,0.431-0.056c0.125-0.025,0.231-0.056,0.319-0.094
	C42.681,27.094,42.75,27.05,42.8,27c0.075-0.075,0.119-0.2,0.136-0.37s0.008-0.386-0.024-0.642
	c-0.031-0.257-0.084-0.554-0.154-0.886C42.688,24.769,42.6,24.4,42.5,24c-0.025-0.125-0.05-0.256-0.075-0.388
	c-0.025-0.131-0.05-0.262-0.075-0.387s-0.05-0.244-0.075-0.35c-0.025-0.106-0.05-0.2-0.075-0.275
	c0.05,0.025,0.112,0.056,0.183,0.092c0.07,0.036,0.148,0.076,0.229,0.12c0.082,0.044,0.166,0.091,0.249,0.139
	S43.025,23.05,43.1,23.1c0.1,0.05,0.194,0.1,0.281,0.147s0.169,0.091,0.244,0.128c0.075,0.038,0.144,0.069,0.206,0.091
	C43.894,23.487,43.95,23.5,44,23.5c0.075,0.025,0.144,0.044,0.208,0.058s0.124,0.023,0.18,0.029c0.056,0.007,0.109,0.01,0.16,0.011
	S44.65,23.6,44.7,23.6c0.1,0,0.213-0.012,0.325-0.047c0.112-0.034,0.225-0.091,0.325-0.178c0.1-0.087,0.187-0.206,0.25-0.366
	c0.062-0.159,0.1-0.359,0.1-0.609c0.025-0.25,0.013-0.494-0.025-0.731c-0.037-0.237-0.1-0.469-0.175-0.694s-0.162-0.444-0.25-0.656
	S45.075,19.9,45,19.7c-0.025-0.075-0.05-0.144-0.075-0.208c-0.025-0.064-0.05-0.124-0.075-0.18c-0.025-0.056-0.05-0.109-0.075-0.16
	C44.75,19.1,44.725,19.05,44.7,19c-0.05-0.125-0.106-0.288-0.166-0.47c-0.059-0.183-0.122-0.386-0.184-0.592
	s-0.125-0.416-0.184-0.611S44.05,16.95,44,16.8c0.275,0.15,0.644,0.35,1.05,0.566s0.85,0.447,1.275,0.659s0.831,0.406,1.162,0.547
	S48.075,18.8,48.2,18.8h0.025h0.025h0.025H48.3l0.025-0.05l0.025-0.05l0.025-0.05L48.4,18.6c0.025-0.075,0.044-0.2,0.056-0.372
	s0.019-0.391,0.019-0.653s-0.006-0.569-0.019-0.916S48.425,15.925,48.4,15.5v-0.125V15.25v-0.125V15
	c-0.025-0.35-0.05-0.781-0.069-1.244C48.313,13.294,48.3,12.8,48.3,12.325s0.013-0.931,0.044-1.319
	c0.031-0.388,0.081-0.706,0.156-0.906c0.025-0.05,0.05-0.1,0.076-0.147s0.055-0.091,0.085-0.128s0.065-0.069,0.105-0.091
	S48.85,9.7,48.9,9.7s0.1,0.012,0.149,0.034c0.048,0.022,0.095,0.053,0.139,0.091c0.043,0.037,0.084,0.081,0.12,0.128
	C49.344,10,49.375,10.05,49.4,10.1l0.025,0.1l0.025,0.1l0.025,0.1l0.025,0.1c0.075,0.225,0.181,0.519,0.306,0.847
	s0.269,0.691,0.419,1.053s0.306,0.725,0.456,1.053c0.15,0.328,0.294,0.622,0.419,0.847s0.275,0.631,0.431,1.13
	S51.85,16.518,52,17.112c0.15,0.594,0.287,1.191,0.394,1.702C52.5,19.325,52.575,19.75,52.6,20v0.05v0.05v0.05v0.05
	c0.025,0.15,0.05,0.287,0.078,0.409c0.028,0.122,0.059,0.228,0.097,0.316s0.081,0.156,0.134,0.203S53.025,21.2,53.1,21.2
	c0.025,0,0.05,0,0.075-0.002c0.025-0.002,0.05-0.005,0.075-0.011c0.025-0.006,0.05-0.015,0.075-0.03
	c0.025-0.014,0.05-0.033,0.075-0.057c0.125-0.075,0.275-0.275,0.431-0.539s0.319-0.592,0.469-0.923s0.288-0.665,0.394-0.942
	C54.8,18.42,54.875,18.201,54.9,18.1c0-0.025,0.006-0.062,0.016-0.108c0.009-0.045,0.022-0.099,0.034-0.155
	c0.013-0.056,0.025-0.115,0.034-0.173C54.994,17.606,55,17.55,55,17.5c0.025-0.125,0.05-0.275,0.076-0.431
	c0.026-0.156,0.054-0.319,0.085-0.469c0.031-0.15,0.066-0.288,0.105-0.394C55.306,16.1,55.35,16.025,55.4,16l0,0l0,0l0,0l0,0
	c0.125,0,0.263,0.05,0.403,0.142s0.284,0.227,0.422,0.396c0.138,0.169,0.269,0.372,0.384,0.601c0.116,0.23,0.216,0.486,0.291,0.761
	c0.075,0.25,0.1,0.569,0.091,0.922c-0.009,0.353-0.053,0.741-0.116,1.128c-0.062,0.388-0.144,0.775-0.228,1.128
	C56.562,21.431,56.475,21.75,56.4,22l-0.025,0.075L56.35,22.15l-0.025,0.075L56.3,22.3c-0.025,0.1-0.044,0.194-0.055,0.281
	s-0.014,0.169-0.007,0.244c0.006,0.075,0.021,0.144,0.048,0.206S56.35,23.15,56.4,23.2c0.025,0.05,0.062,0.094,0.108,0.131
	s0.099,0.069,0.155,0.094c0.056,0.025,0.115,0.044,0.173,0.056C56.894,23.494,56.95,23.5,57,23.5c0.025,0,0.044,0,0.059,0
	s0.028,0,0.041,0c0.013,0,0.025,0,0.041,0s0.034,0,0.059,0s0.056-0.013,0.098-0.038c0.042-0.025,0.096-0.062,0.165-0.112
	s0.153-0.113,0.258-0.188C57.825,23.087,57.95,23,58.1,22.9c0.175-0.125,0.387-0.275,0.616-0.43s0.472-0.314,0.709-0.457
	c0.237-0.144,0.469-0.272,0.672-0.365C60.3,21.556,60.475,21.5,60.6,21.5c0.075,0.025,0.144,0.075,0.202,0.172
	c0.058,0.097,0.105,0.241,0.136,0.453s0.047,0.494,0.042,0.866c-0.005,0.372-0.03,0.834-0.08,1.409v0.075v0.075v0.075V24.7
	c0,0.05-0.037,0.15-0.102,0.284c-0.064,0.134-0.154,0.303-0.26,0.491s-0.228,0.394-0.355,0.603C60.056,26.287,59.925,26.5,59.8,26.7
	c-0.225,0.4-0.413,0.731-0.566,1.006c-0.153,0.275-0.272,0.494-0.359,0.669s-0.144,0.306-0.172,0.406
	c-0.028,0.1-0.028,0.169-0.003,0.219v0.025v0.025v0.025V29.1h0.025h0.025h0.025H58.8c0.075,0,0.163-0.013,0.261-0.036
	c0.098-0.024,0.208-0.058,0.326-0.102c0.119-0.043,0.247-0.096,0.383-0.157c0.136-0.061,0.28-0.13,0.43-0.205
	c0.1-0.05,0.206-0.1,0.314-0.149s0.217-0.096,0.324-0.139s0.209-0.084,0.305-0.12c0.095-0.036,0.182-0.067,0.257-0.092
	c0.05-0.025,0.094-0.044,0.133-0.058c0.039-0.014,0.073-0.023,0.104-0.029c0.032-0.007,0.06-0.01,0.086-0.011
	C61.75,28,61.775,28,61.8,28c0.05,0,0.087,0.006,0.116,0.017c0.028,0.011,0.047,0.026,0.059,0.045
	c0.013,0.019,0.019,0.041,0.022,0.064C62,28.15,62,28.175,62,28.2l0,0l0,0l0,0l0,0c0,0-0.062,0.212-0.178,0.558
	c-0.116,0.345-0.284,0.824-0.497,1.355c-0.212,0.531-0.469,1.115-0.759,1.673c-0.291,0.558-0.616,1.089-0.966,1.514
	c-0.125,0.325-0.438,0.631-0.847,0.911c-0.409,0.28-0.916,0.533-1.428,0.752c-0.512,0.219-1.031,0.403-1.466,0.545
	C55.425,35.65,55.075,35.75,54.9,35.8z M50.2,19.1c-0.1,0-0.188,0.031-0.264,0.086c-0.077,0.055-0.142,0.133-0.199,0.226
	s-0.103,0.203-0.142,0.32c-0.039,0.117-0.07,0.243-0.095,0.368c-0.025,0.075-0.037,0.15-0.039,0.225
	c-0.002,0.075,0.008,0.15,0.026,0.225c0.019,0.075,0.047,0.15,0.083,0.225c0.036,0.075,0.08,0.15,0.13,0.225
	c0.05,0.05,0.1,0.1,0.15,0.147c0.05,0.047,0.1,0.091,0.15,0.128s0.1,0.069,0.15,0.091c0.05,0.022,0.1,0.034,0.15,0.034
	c0.1,0,0.194-0.038,0.278-0.103s0.159-0.159,0.222-0.272s0.112-0.244,0.147-0.384C50.981,20.5,51,20.35,51,20.2
	s-0.031-0.281-0.078-0.394s-0.109-0.206-0.172-0.281s-0.125-0.131-0.172-0.169S50.5,19.3,50.5,19.3
	c-0.025-0.025-0.05-0.05-0.075-0.073c-0.025-0.023-0.05-0.045-0.075-0.064c-0.025-0.019-0.05-0.035-0.075-0.046
	C50.25,19.106,50.225,19.1,50.2,19.1z"/>
<path d="M49,10c0.025,0,0.056,0.006,0.089,0.019s0.067,0.031,0.099,0.056s0.059,0.056,0.08,0.094
	c0.02,0.038,0.032,0.081,0.032,0.131c0,0.025,0.006,0.05,0.016,0.077c0.009,0.027,0.022,0.055,0.034,0.086
	c0.013,0.031,0.025,0.065,0.034,0.104C49.394,10.606,49.4,10.65,49.4,10.7c0.1,0.225,0.219,0.519,0.348,0.847
	s0.271,0.691,0.415,1.053c0.143,0.363,0.29,0.725,0.432,1.053c0.142,0.328,0.28,0.622,0.405,0.847s0.275,0.631,0.431,1.13
	s0.319,1.089,0.469,1.682s0.288,1.191,0.394,1.702C52.4,19.525,52.475,19.95,52.5,20.2v0.05v0.05v0.05v0.05
	c0.025,0.15,0.05,0.294,0.081,0.425c0.031,0.131,0.069,0.25,0.119,0.35s0.112,0.181,0.194,0.238
	c0.081,0.056,0.181,0.087,0.306,0.087c0.025,0,0.05,0,0.076-0.002s0.055-0.005,0.085-0.011c0.032-0.006,0.066-0.015,0.105-0.029
	S53.55,21.425,53.6,21.4c0.125-0.1,0.281-0.325,0.447-0.611c0.166-0.286,0.341-0.633,0.503-0.976s0.312-0.684,0.428-0.958
	c0.116-0.274,0.197-0.48,0.222-0.555c0-0.05,0.006-0.1,0.016-0.152c0.009-0.052,0.022-0.104,0.034-0.16
	c0.013-0.056,0.025-0.116,0.034-0.18c0.009-0.064,0.016-0.133,0.016-0.208s0.006-0.188,0.019-0.316
	c0.013-0.128,0.031-0.272,0.056-0.409s0.056-0.269,0.094-0.372C55.506,16.4,55.55,16.325,55.6,16.3c0.075,0,0.175,0.044,0.288,0.127
	s0.237,0.205,0.362,0.361s0.25,0.347,0.362,0.567s0.213,0.47,0.288,0.745c0.075,0.25,0.1,0.562,0.091,0.906
	c-0.009,0.344-0.053,0.719-0.116,1.094s-0.144,0.75-0.228,1.094c-0.084,0.344-0.172,0.656-0.247,0.906l-0.025,0.075L56.35,22.25
	l-0.025,0.075L56.3,22.4c-0.025,0.125-0.037,0.244-0.041,0.353c-0.003,0.109,0.003,0.209,0.016,0.297s0.031,0.162,0.053,0.222
	c0.022,0.059,0.047,0.103,0.072,0.128c0.05,0.05,0.1,0.094,0.153,0.131c0.053,0.037,0.109,0.069,0.172,0.094
	s0.131,0.044,0.209,0.056C57.013,23.694,57.1,23.7,57.2,23.7c0.025,0,0.05,0,0.073,0c0.024,0,0.046,0,0.065,0
	c0.018,0,0.034,0,0.045,0s0.017,0,0.017,0c0.05,0,0.1-0.013,0.156-0.038s0.119-0.062,0.194-0.112
	c0.075-0.05,0.162-0.113,0.269-0.188C58.125,23.288,58.25,23.2,58.4,23.1c0.15-0.125,0.35-0.275,0.572-0.43
	c0.222-0.155,0.466-0.314,0.703-0.458c0.237-0.143,0.469-0.271,0.666-0.364S60.7,21.7,60.8,21.7
	c0.025,0.025,0.056,0.069,0.087,0.155c0.031,0.086,0.062,0.214,0.088,0.407c0.025,0.194,0.044,0.453,0.05,0.802
	c0.006,0.348,0,0.786-0.025,1.336v0.075v0.075v0.075V24.7c0,0.05-0.037,0.156-0.1,0.298c-0.062,0.142-0.15,0.32-0.25,0.514
	s-0.212,0.403-0.325,0.608C60.213,26.325,60.1,26.525,60,26.7c-0.25,0.45-0.45,0.812-0.608,1.108s-0.274,0.523-0.355,0.704
	c-0.081,0.181-0.128,0.316-0.148,0.424S58.875,29.125,58.9,29.2c0.025,0.025,0.05,0.05,0.076,0.073
	c0.026,0.024,0.054,0.045,0.085,0.065c0.031,0.018,0.066,0.034,0.105,0.045C59.206,29.394,59.25,29.4,59.3,29.4
	c0.075,0,0.163-0.012,0.263-0.036s0.212-0.058,0.337-0.102s0.263-0.097,0.412-0.158c0.15-0.061,0.313-0.129,0.488-0.204
	c0.1-0.05,0.206-0.1,0.314-0.149s0.217-0.096,0.324-0.139s0.209-0.084,0.305-0.12c0.095-0.036,0.182-0.067,0.257-0.092
	c0.05-0.025,0.094-0.044,0.133-0.058c0.039-0.014,0.073-0.023,0.104-0.029c0.032-0.007,0.06-0.01,0.086-0.011
	C62.35,28.3,62.375,28.3,62.4,28.3l0,0l0,0l0,0l0,0c-0.05,0.15-0.144,0.444-0.275,0.822c-0.131,0.378-0.3,0.841-0.5,1.328
	s-0.431,1-0.688,1.478C60.681,32.406,60.4,32.85,60.1,33.2c-0.275,0.325-0.669,0.631-1.12,0.912s-0.961,0.537-1.467,0.763
	c-0.507,0.225-1.01,0.419-1.449,0.575S55.25,35.725,55,35.8c0.025-0.075,0.075-0.175,0.148-0.298c0.074-0.123,0.171-0.27,0.29-0.439
	s0.259-0.359,0.42-0.57S56.2,34.05,56.4,33.8c0.05-0.075,0.1-0.144,0.148-0.206s0.096-0.119,0.139-0.169
	c0.043-0.05,0.084-0.094,0.12-0.131c0.036-0.038,0.067-0.069,0.092-0.094c0.05-0.1,0.088-0.188,0.114-0.266
	c0.027-0.078,0.042-0.147,0.049-0.209c0.006-0.063,0.003-0.119-0.008-0.172C57.044,32.5,57.025,32.45,57,32.4
	s-0.062-0.1-0.109-0.147s-0.103-0.091-0.166-0.128s-0.131-0.069-0.203-0.091C56.45,32.013,56.375,32,56.3,32
	c-0.025,0-0.056,0-0.091-0.006c-0.034-0.006-0.072-0.019-0.109-0.044s-0.075-0.062-0.109-0.119C55.956,31.775,55.925,31.7,55.9,31.6
	c0-0.025-0.006-0.056-0.016-0.091c-0.009-0.034-0.022-0.072-0.034-0.109c-0.013-0.038-0.025-0.075-0.034-0.109
	C55.806,31.256,55.8,31.225,55.8,31.2c-0.025-0.125-0.05-0.262-0.086-0.399c-0.036-0.136-0.083-0.271-0.151-0.389
	s-0.159-0.222-0.283-0.295S55,30,54.8,30c-0.1,0-0.188-0.031-0.263-0.081c-0.075-0.05-0.137-0.119-0.188-0.194
	c-0.05-0.075-0.088-0.156-0.112-0.231C54.212,29.419,54.2,29.35,54.2,29.3s0.025-0.119,0.064-0.197s0.092-0.166,0.149-0.253
	c0.056-0.087,0.115-0.175,0.167-0.253c0.052-0.078,0.095-0.147,0.12-0.197c0.075-0.125,0.144-0.231,0.203-0.325
	c0.059-0.094,0.109-0.175,0.147-0.25c0.037-0.075,0.062-0.144,0.072-0.212c0.009-0.069,0.003-0.138-0.022-0.212l-0.025-0.05
	L55.05,27.3l-0.025-0.05L55,27.2l-0.05-0.025L54.9,27.15l-0.05-0.025L54.8,27.1c-0.025,0-0.044,0-0.059,0s-0.028,0-0.041,0
	c-0.013,0-0.025,0-0.041,0s-0.034,0-0.059,0c-0.05,0-0.112,0.006-0.184,0.017c-0.072,0.011-0.153,0.026-0.241,0.045
	s-0.181,0.041-0.278,0.064C53.8,27.25,53.7,27.275,53.6,27.3s-0.194,0.044-0.283,0.059s-0.174,0.028-0.255,0.041
	c-0.081,0.012-0.159,0.025-0.236,0.041S52.675,27.475,52.6,27.5c0-0.05-0.006-0.106-0.016-0.169s-0.022-0.131-0.034-0.206
	s-0.025-0.156-0.034-0.244S52.5,26.7,52.5,26.6s0-0.206-0.002-0.317s-0.005-0.227-0.011-0.346c-0.006-0.118-0.015-0.24-0.029-0.364
	S52.425,25.325,52.4,25.2c-0.025-0.2-0.05-0.413-0.084-0.619c-0.034-0.206-0.078-0.406-0.141-0.581s-0.144-0.325-0.253-0.431
	C51.813,23.462,51.675,23.4,51.5,23.4c-0.025,0-0.05,0.006-0.075,0.016c-0.025,0.009-0.05,0.022-0.075,0.034
	c-0.025,0.012-0.05,0.025-0.075,0.034C51.25,23.494,51.225,23.5,51.2,23.5l-0.025,0.025L51.15,23.55l-0.025,0.025L51.1,23.6v0.025
	v0.025v0.025V23.7c-0.125,0.45-0.269,0.913-0.419,1.361c-0.15,0.448-0.306,0.883-0.456,1.276c-0.15,0.394-0.294,0.747-0.419,1.033
	c-0.125,0.286-0.231,0.505-0.306,0.63c-0.025-0.025-0.056-0.056-0.091-0.092s-0.072-0.076-0.109-0.12
	c-0.038-0.044-0.075-0.091-0.109-0.139S49.125,27.55,49.1,27.5c-0.1-0.1-0.194-0.206-0.284-0.309
	c-0.091-0.103-0.178-0.203-0.266-0.291s-0.175-0.163-0.266-0.216C48.194,26.631,48.1,26.6,48,26.6h-0.025H47.95h-0.025H47.9l0,0l0,0
	l0,0l0,0c-0.175,0.025-0.306,0.119-0.405,0.261c-0.098,0.142-0.164,0.333-0.207,0.551c-0.044,0.219-0.066,0.466-0.077,0.721
	C47.2,28.388,47.2,28.65,47.2,28.9v0.075v0.075v0.075V29.2c0,0.025,0,0.044,0,0.058c0,0.014,0,0.023,0,0.029c0,0.007,0,0.01,0,0.011
	s0,0.002,0,0.002l0,0l0,0l0,0l0,0c-0.025,0-0.05,0-0.076,0s-0.055,0-0.085,0s-0.065,0-0.105,0c-0.039,0-0.083,0-0.133,0
	s-0.1-0.006-0.15-0.016c-0.05-0.009-0.1-0.022-0.15-0.034s-0.1-0.025-0.15-0.034c-0.05-0.009-0.1-0.016-0.15-0.016h-0.025H46.15
	h-0.025H46.1c-0.2,0-0.363,0.025-0.494,0.072s-0.231,0.116-0.306,0.203s-0.125,0.194-0.156,0.316
	C45.112,29.913,45.1,30.05,45.1,30.2c0,0.05,0.006,0.112,0.016,0.184c0.009,0.072,0.022,0.153,0.034,0.241s0.025,0.181,0.034,0.278
	C45.194,31,45.2,31.1,45.2,31.2c0.025,0.075,0.044,0.163,0.058,0.256s0.023,0.194,0.029,0.294c0.007,0.1,0.01,0.2,0.011,0.294
	S45.3,32.225,45.3,32.3c-0.025,0-0.05,0-0.075,0c-0.025,0-0.05,0-0.075,0s-0.05,0-0.075,0c-0.025,0-0.05,0-0.075,0s-0.05,0-0.075,0
	s-0.05,0-0.075,0s-0.05,0-0.075,0c-0.025,0-0.05,0-0.075,0c-0.1,0-0.181,0.013-0.247,0.033s-0.116,0.048-0.153,0.079
	s-0.062,0.066-0.078,0.098c-0.016,0.033-0.022,0.064-0.022,0.09c-0.025,0.1,0,0.281,0.055,0.5c0.055,0.219,0.139,0.475,0.232,0.725
	c0.094,0.25,0.197,0.494,0.29,0.688C44.869,34.706,44.95,34.85,45,34.9c0.05,0.075,0.088,0.138,0.116,0.189
	c0.028,0.052,0.047,0.092,0.059,0.123c0.013,0.031,0.019,0.054,0.022,0.068C45.2,35.294,45.2,35.3,45.2,35.3
	s-0.006,0.006-0.022,0.016c-0.016,0.009-0.041,0.022-0.078,0.034c-0.038,0.013-0.088,0.025-0.153,0.034
	C44.881,35.394,44.8,35.4,44.7,35.4c-0.025,0-0.05,0-0.075,0c-0.025,0-0.05,0-0.075,0c-0.025,0-0.05,0-0.075,0
	c-0.025,0-0.05,0-0.075,0c-0.35-0.025-0.8-0.425-1.283-1.022s-0.999-1.391-1.48-2.203c-0.481-0.812-0.928-1.644-1.273-2.316
	S39.775,28.675,39.7,28.5c-0.025-0.05-0.044-0.1-0.058-0.15c-0.014-0.05-0.023-0.1-0.029-0.15c-0.007-0.05-0.01-0.1-0.011-0.15
	C39.6,28,39.6,27.95,39.6,27.9c0.075,0,0.156,0.006,0.242,0.016c0.086,0.009,0.177,0.022,0.271,0.034
	c0.093,0.013,0.19,0.025,0.289,0.034C40.5,27.994,40.6,28,40.7,28c0.225,0,0.425-0.006,0.602-0.02
	c0.176-0.014,0.329-0.036,0.46-0.067c0.132-0.031,0.241-0.072,0.33-0.124c0.089-0.052,0.158-0.114,0.208-0.189
	c0.075-0.1,0.125-0.231,0.152-0.402c0.027-0.17,0.029-0.38,0.01-0.636c-0.019-0.256-0.059-0.559-0.12-0.917S42.2,24.875,42.1,24.4
	c-0.025-0.1-0.05-0.2-0.073-0.298c-0.024-0.098-0.046-0.195-0.065-0.289c-0.019-0.094-0.034-0.185-0.045-0.271
	S41.9,23.375,41.9,23.3c0.05,0.025,0.1,0.05,0.15,0.075c0.05,0.025,0.1,0.05,0.15,0.075s0.1,0.05,0.15,0.075
	c0.05,0.025,0.1,0.05,0.15,0.075c0.1,0.05,0.194,0.1,0.281,0.149s0.169,0.095,0.244,0.139s0.144,0.084,0.206,0.12
	c0.062,0.036,0.119,0.067,0.169,0.092c0.075,0.025,0.144,0.044,0.208,0.058c0.064,0.014,0.124,0.023,0.18,0.029
	c0.056,0.007,0.109,0.01,0.16,0.011S44.05,24.2,44.1,24.2c0.075,0,0.181-0.006,0.3-0.036c0.119-0.03,0.25-0.083,0.375-0.176
	s0.244-0.228,0.338-0.42s0.163-0.443,0.188-0.768c0.025-0.25,0.013-0.5-0.025-0.745c-0.037-0.245-0.1-0.486-0.175-0.717
	c-0.075-0.232-0.162-0.454-0.25-0.661s-0.175-0.402-0.25-0.577c-0.025-0.075-0.05-0.144-0.075-0.208
	c-0.025-0.064-0.05-0.123-0.075-0.179c-0.025-0.056-0.05-0.11-0.075-0.161C44.35,19.5,44.325,19.45,44.3,19.4
	c-0.025-0.1-0.062-0.225-0.108-0.366s-0.099-0.297-0.155-0.459c-0.056-0.163-0.115-0.331-0.173-0.497
	C43.806,17.913,43.75,17.75,43.7,17.6c0.35,0.175,0.737,0.375,1.13,0.577c0.392,0.202,0.789,0.405,1.158,0.586
	s0.709,0.341,0.989,0.455c0.28,0.114,0.498,0.182,0.623,0.182c0.05,0,0.1-0.006,0.147-0.019c0.047-0.013,0.091-0.031,0.128-0.056
	s0.069-0.056,0.091-0.094C47.987,19.194,48,19.15,48,19.1c0.025-0.075,0.044-0.194,0.056-0.358c0.012-0.164,0.019-0.373,0.019-0.629
	c0-0.257-0.006-0.56-0.019-0.911C48.044,16.85,48.025,16.45,48,16v-0.05V15.9v-0.05V15.8v-0.1v-0.1v-0.1v-0.1
	c-0.025-0.325-0.05-0.744-0.069-1.2S47.9,13.25,47.9,12.775s0.013-0.931,0.044-1.312s0.081-0.688,0.156-0.863
	c0.175-0.1,0.312-0.188,0.422-0.262c0.109-0.075,0.191-0.138,0.253-0.188s0.106-0.087,0.141-0.112C48.95,10.012,48.975,10,49,10
	L49,10L49,10L49,10L49,10 M50.3,21.5c0.125,0,0.237-0.05,0.338-0.133c0.1-0.083,0.187-0.198,0.262-0.329s0.138-0.278,0.188-0.423
	s0.087-0.289,0.112-0.414c0-0.125-0.019-0.244-0.052-0.355s-0.08-0.214-0.136-0.308s-0.122-0.178-0.192-0.252
	S50.675,19.15,50.6,19.1c-0.025-0.025-0.056-0.044-0.091-0.058c-0.034-0.014-0.072-0.023-0.109-0.029
	c-0.037-0.007-0.075-0.01-0.109-0.011C50.256,19,50.225,19,50.2,19c-0.075,0-0.15,0.013-0.225,0.045
	c-0.075,0.033-0.15,0.086-0.225,0.167c-0.075,0.081-0.15,0.191-0.225,0.336c-0.075,0.145-0.15,0.327-0.225,0.552
	c-0.025,0.1-0.037,0.194-0.039,0.283s0.008,0.174,0.026,0.255c0.019,0.081,0.047,0.159,0.083,0.236s0.08,0.152,0.13,0.226
	c0.075,0.075,0.15,0.137,0.223,0.189c0.074,0.052,0.146,0.092,0.215,0.123c0.069,0.031,0.134,0.053,0.195,0.068
	C50.194,21.494,50.25,21.5,50.3,21.5 M49,9.6c-0.05,0-0.1,0.006-0.15,0.022C48.8,9.638,48.75,9.663,48.7,9.7s-0.1,0.087-0.15,0.153
	C48.5,9.919,48.45,10,48.4,10.1c-0.075,0.2-0.125,0.538-0.156,0.955S48.2,11.969,48.2,12.487s0.013,1.059,0.031,1.564
	s0.044,0.974,0.069,1.349c0.025,0.375,0.044,0.744,0.056,1.091c0.013,0.347,0.019,0.672,0.019,0.959s-0.006,0.538-0.019,0.734
	S48.325,18.525,48.3,18.6c0,0,0,0-0.002,0s-0.005,0-0.011,0s-0.016,0-0.03,0s-0.032,0-0.057,0c-0.125,0-0.469-0.137-0.914-0.344
	c-0.445-0.206-0.992-0.481-1.524-0.756s-1.047-0.55-1.43-0.756C43.95,16.537,43.7,16.4,43.7,16.4s0.038,0.119,0.097,0.308
	c0.059,0.189,0.141,0.449,0.228,0.73s0.181,0.584,0.266,0.861S44.45,18.825,44.5,19s0.137,0.388,0.241,0.628
	c0.103,0.241,0.222,0.509,0.334,0.797c0.112,0.288,0.219,0.594,0.297,0.909C45.45,21.65,45.5,21.975,45.5,22.3
	c0,0.2-0.025,0.362-0.07,0.494c-0.045,0.131-0.111,0.231-0.193,0.306c-0.081,0.075-0.178,0.125-0.286,0.156
	c-0.108,0.031-0.227,0.044-0.352,0.044c-0.05,0-0.106-0.006-0.164-0.016s-0.117-0.022-0.174-0.034
	c-0.056-0.013-0.108-0.025-0.153-0.034S44.025,23.2,44,23.2c-0.125-0.05-0.294-0.131-0.481-0.225s-0.394-0.2-0.594-0.3
	s-0.394-0.194-0.556-0.263C42.206,22.344,42.075,22.3,42,22.3l0,0l0,0l0,0l0,0c-0.075,0.025-0.056,0.288,0.008,0.675
	c0.064,0.388,0.174,0.9,0.28,1.425c0.106,0.525,0.209,1.062,0.261,1.5c0.051,0.438,0.051,0.775-0.049,0.9
	c-0.05,0.05-0.119,0.094-0.203,0.131C42.213,26.969,42.112,27,42,27.025c-0.112,0.025-0.237,0.044-0.372,0.056
	C41.494,27.094,41.35,27.1,41.2,27.1c-0.175,0-0.356-0.006-0.53-0.016s-0.339-0.022-0.483-0.034
	c-0.143-0.013-0.265-0.025-0.351-0.034C39.75,27.006,39.7,27,39.7,27s0,0.044,0.002,0.116s0.005,0.172,0.011,0.284
	s0.016,0.238,0.03,0.359C39.757,27.881,39.775,28,39.8,28.1s0.244,0.594,0.584,1.28s0.803,1.564,1.316,2.432
	c0.513,0.869,1.075,1.729,1.616,2.377c0.541,0.649,1.059,1.086,1.484,1.111c0.025,0,0.05,0,0.075,0c0.025,0,0.05,0,0.075,0
	s0.05,0,0.075,0c0.025,0,0.05,0,0.075,0c0.325,0,0.537-0.05,0.67-0.13s0.186-0.189,0.192-0.308s-0.035-0.247-0.089-0.364
	c-0.055-0.117-0.123-0.223-0.173-0.298s-0.125-0.225-0.209-0.411c-0.084-0.186-0.178-0.408-0.266-0.626s-0.169-0.434-0.228-0.608
	S44.9,32.25,44.9,32.2c0-0.025,0.006-0.044,0.017-0.058s0.026-0.023,0.045-0.029c0.019-0.007,0.041-0.01,0.064-0.011
	C45.05,32.1,45.075,32.1,45.1,32.1c0.05,0,0.1,0.006,0.15,0.016c0.05,0.009,0.1,0.022,0.15,0.034s0.1,0.025,0.15,0.034
	c0.05,0.009,0.1,0.016,0.15,0.016s0.094,0,0.131-0.002s0.069-0.005,0.094-0.011c0.025-0.006,0.044-0.015,0.056-0.029
	C45.994,32.144,46,32.125,46,32.1c0.025-0.075,0.019-0.225-0.005-0.416c-0.023-0.191-0.064-0.422-0.107-0.659
	c-0.044-0.237-0.091-0.481-0.127-0.697C45.725,30.112,45.7,29.925,45.7,29.8c0-0.1,0-0.188,0.009-0.263
	c0.009-0.075,0.028-0.138,0.066-0.188s0.094-0.087,0.178-0.112C46.037,29.213,46.15,29.2,46.3,29.2h0.025h0.025h0.025H46.4
	c0.075,0,0.156,0.006,0.239,0.016c0.083,0.009,0.167,0.022,0.248,0.034c0.082,0.013,0.16,0.025,0.23,0.034
	c0.07,0.009,0.133,0.016,0.183,0.016s0.1-0.006,0.147-0.022c0.047-0.016,0.091-0.041,0.128-0.078s0.069-0.087,0.091-0.153
	S47.7,28.9,47.7,28.8c0-0.2-0.006-0.431-0.008-0.667c-0.001-0.236,0.002-0.476,0.021-0.695s0.053-0.416,0.114-0.564
	s0.148-0.249,0.273-0.274l0,0l0,0l0,0l0,0c0.125,0,0.263,0.087,0.405,0.219s0.289,0.306,0.433,0.481
	c0.143,0.175,0.284,0.35,0.414,0.481C49.481,27.913,49.6,28,49.7,28l0,0l0,0l0,0l0,0c0.125,0,0.306-0.288,0.508-0.719
	s0.424-1.006,0.63-1.581c0.206-0.575,0.397-1.15,0.536-1.581s0.227-0.719,0.227-0.719s0,0,0.002,0s0.005,0,0.011,0
	c0.006,0,0.015,0,0.029,0s0.033,0,0.058,0s0.062,0.013,0.106,0.052c0.044,0.039,0.094,0.105,0.144,0.211
	c0.05,0.106,0.1,0.253,0.144,0.454s0.081,0.458,0.106,0.783c0.025,0.45,0.031,0.837,0.034,1.166s0.003,0.597,0.016,0.809
	s0.038,0.369,0.091,0.472s0.134,0.153,0.259,0.153c0.1,0,0.256-0.019,0.439-0.047c0.183-0.028,0.392-0.066,0.599-0.103
	c0.206-0.038,0.409-0.075,0.579-0.103c0.17-0.028,0.308-0.047,0.383-0.047h0.025h0.025h0.025h0.025
	c0.05,0.025,0.013,0.119-0.072,0.253c-0.084,0.134-0.216,0.309-0.353,0.497s-0.281,0.387-0.391,0.572
	C53.775,28.706,53.7,28.875,53.7,29s0.019,0.25,0.056,0.369c0.037,0.119,0.094,0.231,0.169,0.331s0.169,0.188,0.281,0.256
	S54.45,30.075,54.6,30.1c0.15,0,0.263,0.05,0.348,0.134c0.086,0.084,0.145,0.203,0.189,0.341c0.044,0.138,0.072,0.294,0.096,0.453
	c0.023,0.159,0.042,0.322,0.067,0.472c0.05,0.15,0.1,0.269,0.152,0.362c0.051,0.094,0.104,0.163,0.16,0.213
	c0.056,0.05,0.116,0.081,0.18,0.1S55.925,32.2,56,32.2s0.15,0.013,0.216,0.039c0.066,0.027,0.122,0.067,0.159,0.124
	c0.037,0.056,0.056,0.128,0.047,0.217s-0.047,0.195-0.122,0.32s-0.269,0.35-0.508,0.626c-0.239,0.277-0.523,0.605-0.779,0.936
	c-0.257,0.332-0.485,0.666-0.611,0.955C54.275,35.706,54.25,35.95,54.4,36.1c0,0,0.263-0.069,0.678-0.199
	c0.416-0.13,0.984-0.32,1.597-0.564c0.612-0.243,1.269-0.54,1.859-0.882c0.591-0.342,1.116-0.73,1.466-1.155s0.675-0.962,0.966-1.53
	c0.291-0.567,0.547-1.164,0.759-1.708s0.381-1.035,0.497-1.389S62.4,28.1,62.4,28.1s0-0.019-0.006-0.047
	c-0.006-0.028-0.019-0.066-0.044-0.103s-0.062-0.075-0.119-0.103C62.175,27.819,62.1,27.8,62,27.8c-0.025,0-0.056,0-0.092,0.002
	s-0.076,0.005-0.12,0.011c-0.044,0.006-0.091,0.015-0.139,0.029S61.55,27.875,61.5,27.9c-0.225,0.075-0.475,0.175-0.73,0.283
	c-0.255,0.108-0.514,0.223-0.757,0.329s-0.472,0.203-0.664,0.274S59,28.9,58.9,28.9l0,0l0,0l0,0l0,0c-0.1,0-0.019-0.231,0.159-0.587
	c0.178-0.356,0.453-0.837,0.741-1.337s0.588-1.019,0.816-1.45S61,24.75,61,24.6s0.019-0.419,0.036-0.741
	c0.017-0.322,0.033-0.697,0.026-1.059c-0.007-0.363-0.035-0.712-0.105-0.984c-0.07-0.272-0.183-0.466-0.358-0.516h-0.025h-0.025
	h-0.025H60.5c-0.2,0-0.494,0.125-0.828,0.312S58.963,22.05,58.6,22.3c-0.362,0.25-0.713,0.5-0.997,0.688S57.1,23.3,57,23.3
	c0,0-0.006,0-0.017,0s-0.026,0-0.045,0s-0.041,0-0.064,0s-0.049,0-0.074,0c-0.075,0-0.156-0.012-0.234-0.042
	s-0.153-0.077-0.216-0.146s-0.112-0.16-0.141-0.277c-0.028-0.117-0.034-0.26-0.009-0.435c0.05-0.2,0.137-0.506,0.234-0.872
	c0.097-0.366,0.203-0.791,0.291-1.228s0.156-0.888,0.178-1.303C56.925,18.581,56.9,18.2,56.8,17.9
	c-0.075-0.275-0.181-0.538-0.306-0.777c-0.125-0.239-0.269-0.455-0.419-0.636s-0.306-0.328-0.456-0.43
	c-0.15-0.101-0.294-0.157-0.419-0.157h-0.025H55.15h-0.025H55.1c0,0.025,0,0.144-0.002,0.314s-0.005,0.392-0.011,0.623
	c-0.006,0.232-0.015,0.472-0.029,0.68S55.025,17.9,55,18s-0.106,0.319-0.219,0.594s-0.256,0.606-0.406,0.931
	s-0.306,0.644-0.444,0.894c-0.138,0.25-0.256,0.431-0.331,0.481c-0.025,0-0.044,0.006-0.059,0.016s-0.028,0.022-0.041,0.034
	c-0.013,0.013-0.025,0.025-0.041,0.034S53.425,21,53.4,21c-0.05,0-0.094-0.031-0.133-0.086c-0.039-0.055-0.073-0.133-0.104-0.226
	s-0.059-0.203-0.086-0.32C53.05,20.25,53.025,20.125,53,20c-0.025-0.175-0.1-0.556-0.208-1.047s-0.248-1.091-0.404-1.703
	s-0.328-1.237-0.499-1.778c-0.17-0.541-0.339-0.997-0.489-1.272c-0.15-0.25-0.325-0.606-0.506-1.006
	c-0.181-0.4-0.369-0.844-0.544-1.269c-0.175-0.425-0.338-0.831-0.469-1.156C49.75,10.444,49.65,10.2,49.6,10.1
	c0-0.05-0.019-0.106-0.052-0.163s-0.08-0.112-0.136-0.162c-0.056-0.05-0.121-0.094-0.192-0.125C49.15,9.619,49.075,9.6,49,9.6
	L49,9.6L49,9.6L49,9.6L49,9.6z M50.3,21.2c-0.05,0-0.125-0.025-0.206-0.072s-0.169-0.116-0.244-0.203
	c-0.075-0.087-0.137-0.194-0.169-0.316S49.65,20.35,49.7,20.2c0.025-0.125,0.056-0.237,0.092-0.336s0.076-0.183,0.12-0.251
	c0.044-0.069,0.091-0.122,0.139-0.158S50.15,19.4,50.2,19.4c0.025,0,0.044,0,0.059,0.002s0.028,0.005,0.041,0.011
	c0.013,0.006,0.025,0.015,0.041,0.029c0.016,0.014,0.034,0.033,0.059,0.058c0,0,0.025,0.019,0.062,0.055
	c0.037,0.036,0.087,0.089,0.138,0.157s0.1,0.153,0.138,0.251c0.038,0.098,0.062,0.211,0.062,0.336c0,0.1-0.019,0.206-0.05,0.309
	c-0.031,0.103-0.075,0.203-0.125,0.291c-0.05,0.088-0.106,0.163-0.162,0.217C50.406,21.169,50.35,21.2,50.3,21.2L50.3,21.2
	L50.3,21.2L50.3,21.2L50.3,21.2z"/>
<polygon style="fill:#FFFFFF;" points="42.5,38 47.175,38 51.85,38 56.525,38 61.2,38 61.2,38.275 61.2,38.55 61.2,38.825 
	61.2,39.1 56.525,39.1 51.85,39.1 47.175,39.1 42.5,39.1 42.5,38.825 42.5,38.55 42.5,38.275 "/>
<path d="M61,38.2v0.2v0.2v0.2V39h-4.575H51.85h-4.575H42.7v-0.2v-0.2v-0.2v-0.2h4.575h4.575h4.575L61,38.2 M61.3,37.8h-4.75H51.8
	h-4.75H42.3v0.375v0.375v0.375V39.3h4.75h4.75h4.75h4.75v-0.375V38.55v-0.375V37.8L61.3,37.8L61.3,37.8L61.3,37.8L61.3,37.8z"/>
</svg>
