<?xml version="1.0" encoding="utf-8"?>
<!-- Generator: Adobe Illustrator 25.2.0, SVG Export Plug-In . SVG Version: 6.00 Build 0)  -->
<svg version="1.1" id="Layer_1" xmlns="http://www.w3.org/2000/svg" xmlns:xlink="http://www.w3.org/1999/xlink" x="0px" y="0px"
	 viewBox="0 0 100 100" style="enable-background:new 0 0 100 100;" xml:space="preserve">
<g>
	<path d="M45.5,89.8l1.8-0.1c0.1,0.7,0.4,1.3,0.9,1.6c0.4,0.3,1,0.5,1.6,0.5c0.6,0,1.1-0.1,1.5-0.3c0.4-0.2,0.8-0.5,1-0.9
		c0.3-0.4,0.5-0.9,0.7-1.5c0.2-0.6,0.3-1.3,0.3-2c0-0.1,0-0.2,0-0.3c-0.4,0.5-0.9,0.9-1.5,1.3c-0.6,0.3-1.3,0.5-2.1,0.5
		c-1.2,0-2.3-0.4-3.2-1.2c-0.9-0.8-1.3-1.8-1.3-3.1c0-1.3,0.4-2.4,1.3-3.2c0.9-0.8,2-1.2,3.4-1.2c1,0,1.9,0.2,2.7,0.7s1.4,1.1,1.8,2
		c0.4,0.9,0.6,2.1,0.6,3.7c0,1.7-0.2,3-0.6,4s-1,1.8-1.9,2.3c-0.8,0.5-1.8,0.8-2.9,0.8c-1.2,0-2.1-0.3-2.9-0.9
		C46.1,91.6,45.7,90.8,45.5,89.8z M53.1,83.9c0-0.9-0.3-1.7-0.8-2.2c-0.6-0.5-1.2-0.8-2-0.8c-0.8,0-1.5,0.3-2.1,0.9
		s-0.9,1.3-0.9,2.3c0,0.8,0.3,1.5,0.9,2c0.6,0.5,1.3,0.8,2.1,0.8c0.9,0,1.6-0.3,2.1-0.8S53.1,84.9,53.1,83.9z"/>
</g>
<polygon points="52.7,44.7 52.7,4.7 49.4,1.3 45.2,5.5 45.2,44.7 "/>
<polygon points="66.1,44.7 66.1,18.3 59.5,11.6 59.5,44.7 "/>
<polygon points="39.1,44.7 39.1,11.6 32.5,18.3 32.5,44.7 "/>
<polygon points="26.3,44.7 26.3,24.5 19.7,31.2 19.7,44.7 "/>
<polygon points="14.3,44.7 14.3,36.6 7.7,43.2 7.7,44.7 "/>
<polygon points="77.4,44.7 77.4,29.6 71.8,24 71.8,44.7 "/>
<polygon points="92.3,44.7 92.3,44.7 83.9,36.2 83.9,44.7 "/>
<rect x="7.7" y="44.2" width="83" height="0.5"/>
</svg>
