<?xml version="1.0" encoding="utf-8"?>
<!-- Generator: Adobe Illustrator 25.2.0, SVG Export Plug-In . SVG Version: 6.00 Build 0)  -->
<svg version="1.1" id="Layer_1" xmlns="http://www.w3.org/2000/svg" xmlns:xlink="http://www.w3.org/1999/xlink" x="0px" y="0px"
	 viewBox="0 0 100 100" style="enable-background:new 0 0 100 100;" xml:space="preserve">
<polygon style="fill:#F3AA3C;" points="50.6,1.8 98,49.9 50.2,98.2 2,50 "/>
<g>
	<path d="M14.8,58.2V41.7h5.6v3.2h-3.5v2.9h3.3v3.2h-3.3V55h3.5v3.2H14.8z"/>
</g>
<g>
	<path d="M28.9,58.2h-2.4l-1.6-5.3l-1.6,5.3h-2.3l2.7-8.3L21,41.7h2.4l1.5,5l1.5-5h2.3l-2.6,8L28.9,58.2z"/>
</g>
<g>
	<path d="M36.1,46.9c0,0.8-0.1,1.5-0.2,2.2c-0.1,0.7-0.3,1.3-0.5,1.7c-0.1,0.3-0.3,0.6-0.5,0.8c-0.2,0.2-0.4,0.5-0.6,0.6
		c-0.2,0.2-0.4,0.3-0.7,0.4s-0.5,0.1-0.8,0.1h-1.1v5.4h-2.1V41.7h3.2c0.5,0,0.9,0.1,1.2,0.3c0.3,0.2,0.7,0.4,0.9,0.8
		c0.3,0.4,0.6,1,0.7,1.7C36,45.1,36.1,45.9,36.1,46.9z M34,47c0-0.5-0.1-0.9-0.2-1.2c-0.1-0.3-0.2-0.6-0.4-0.7
		c-0.2-0.2-0.4-0.3-0.6-0.3c-0.2,0-0.4,0-0.7,0h-0.3v4.9h0.1c0.2,0,0.4,0,0.6,0c0.2,0,0.3,0,0.5-0.1c0.1,0,0.2-0.1,0.4-0.2
		c0.1-0.1,0.2-0.2,0.3-0.4c0.1-0.3,0.2-0.6,0.3-0.9C33.9,47.9,34,47.5,34,47z"/>
</g>
<g>
	<path d="M42.8,58.2h-5.6V41.7h2.1V55h3.5V58.2z"/>
</g>
<g>
	<path d="M51.3,49.9c0,2.7-0.4,4.8-1.1,6.3s-1.7,2.3-3,2.3c-1.3,0-2.2-0.8-3-2.3c-0.7-1.5-1.1-3.6-1.1-6.3c0-2.7,0.4-4.8,1.1-6.3
		c0.7-1.5,1.7-2.3,3-2.3c1.3,0,2.2,0.8,3,2.3S51.3,47.3,51.3,49.9z M49.2,49.9c0-1-0.1-1.8-0.2-2.5s-0.2-1.3-0.4-1.7
		c-0.2-0.5-0.4-0.8-0.6-1s-0.5-0.3-0.7-0.3c-0.3,0-0.5,0.1-0.7,0.3c-0.2,0.2-0.4,0.5-0.6,1c-0.2,0.4-0.3,1-0.4,1.7
		c-0.1,0.7-0.2,1.6-0.2,2.5c0,1,0,1.9,0.2,2.5s0.2,1.2,0.4,1.7c0.2,0.5,0.4,0.8,0.6,1c0.2,0.2,0.5,0.3,0.7,0.3
		c0.2,0,0.5-0.1,0.7-0.3c0.2-0.2,0.4-0.5,0.6-1c0.2-0.5,0.3-1,0.4-1.7C49.1,51.8,49.2,51,49.2,49.9z"/>
</g>
<g>
	<path d="M55.1,58.5c-0.6,0-1.2-0.1-1.7-0.4c-0.5-0.2-0.9-0.5-1.3-0.9v-3.9h0.2c0.4,0.7,0.9,1.2,1.4,1.6s1,0.6,1.5,0.6
		c0.1,0,0.3,0,0.5-0.1c0.2-0.1,0.4-0.1,0.5-0.2c0.1-0.1,0.3-0.3,0.4-0.5c0.1-0.2,0.2-0.5,0.2-0.9c0-0.4-0.1-0.8-0.2-1
		c-0.2-0.3-0.4-0.4-0.6-0.6c-0.3-0.1-0.6-0.3-0.9-0.4s-0.6-0.3-0.9-0.5c-0.6-0.5-1.1-1.1-1.4-1.8c-0.3-0.8-0.4-1.7-0.4-2.9
		c0-1.5,0.3-2.8,1-3.8c0.7-1,1.5-1.4,2.5-1.4c0.5,0,1,0.1,1.5,0.3c0.5,0.2,0.9,0.5,1.3,0.8v3.8h-0.2c-0.3-0.5-0.7-1-1.1-1.3
		c-0.4-0.4-0.9-0.5-1.4-0.5c-0.2,0-0.3,0-0.5,0.1c-0.1,0.1-0.3,0.2-0.5,0.3c-0.1,0.1-0.2,0.3-0.3,0.5c-0.1,0.2-0.1,0.5-0.1,0.8
		c0,0.4,0.1,0.8,0.2,1c0.2,0.2,0.4,0.5,0.9,0.7c0.3,0.1,0.5,0.2,0.8,0.4c0.3,0.1,0.5,0.3,0.8,0.5c0.6,0.4,1,1,1.3,1.7
		s0.4,1.6,0.4,2.8c0,1.6-0.3,3-1,4C57.1,58,56.2,58.5,55.1,58.5z"/>
</g>
<g>
	<path d="M64,58.2h-4.5v-2.9h1.2V44.6h-1.2v-2.9H64v2.9h-1.2v10.8H64V58.2z"/>
</g>
<g>
	<path d="M72.3,41.7l-2.9,16.5h-2.2l-2.9-16.5h2.2l1.8,11.2l1.8-11.2H72.3z"/>
</g>
<g>
	<path d="M73.1,58.2V41.7h5.6v3.2h-3.5v2.9h3.3v3.2h-3.3V55h3.5v3.2H73.1z"/>
</g>
<g>
	<path d="M82.7,58.5c-0.6,0-1.2-0.1-1.7-0.4c-0.5-0.2-0.9-0.5-1.3-0.9v-3.9h0.2c0.4,0.7,0.9,1.2,1.4,1.6s1,0.6,1.5,0.6
		c0.1,0,0.3,0,0.5-0.1c0.2-0.1,0.4-0.1,0.5-0.2c0.1-0.1,0.3-0.3,0.4-0.5c0.1-0.2,0.2-0.5,0.2-0.9c0-0.4-0.1-0.8-0.2-1
		c-0.2-0.3-0.4-0.4-0.6-0.6c-0.3-0.1-0.6-0.3-0.9-0.4s-0.6-0.3-0.9-0.5c-0.6-0.5-1.1-1.1-1.4-1.8c-0.3-0.8-0.4-1.7-0.4-2.9
		c0-1.5,0.3-2.8,1-3.8c0.7-1,1.5-1.4,2.5-1.4c0.5,0,1,0.1,1.5,0.3c0.5,0.2,0.9,0.5,1.3,0.8v3.8h-0.2c-0.3-0.5-0.7-1-1.1-1.3
		c-0.4-0.4-0.9-0.5-1.4-0.5c-0.2,0-0.3,0-0.5,0.1c-0.1,0.1-0.3,0.2-0.5,0.3c-0.1,0.1-0.2,0.3-0.3,0.5c-0.1,0.2-0.1,0.5-0.1,0.8
		c0,0.4,0.1,0.8,0.2,1c0.2,0.2,0.4,0.5,0.9,0.7c0.3,0.1,0.5,0.2,0.8,0.4c0.3,0.1,0.5,0.3,0.8,0.5c0.6,0.4,1,1,1.3,1.7
		s0.4,1.6,0.4,2.8c0,1.6-0.3,3-1,4C84.7,58,83.8,58.5,82.7,58.5z"/>
</g>
<g>
	<path d="M45.3,81h-8.2v-2.4h2.6v-7.4h-2.6v-2.3c0.4,0,0.8,0,1.1-0.1s0.7-0.1,0.9-0.3c0.3-0.1,0.5-0.4,0.6-0.6
		c0.1-0.3,0.2-0.6,0.3-0.9h2.7v11.6h2.6V81z"/>
</g>
<g>
	<path d="M50.5,81h-3v-3.7h3V81z"/>
</g>
<g>
	<path d="M61.8,76.8c0,0.7-0.1,1.3-0.3,1.9c-0.2,0.6-0.6,1-1,1.4c-0.4,0.4-1,0.7-1.5,0.9s-1.3,0.3-2.2,0.3c-1,0-1.8-0.1-2.5-0.3
		c-0.7-0.2-1.3-0.4-1.7-0.6v-3h0.3c0.5,0.3,1,0.6,1.6,0.8c0.6,0.2,1.2,0.4,1.7,0.4c0.3,0,0.6,0,1-0.1c0.4-0.1,0.6-0.2,0.9-0.4
		c0.2-0.2,0.3-0.3,0.5-0.6s0.2-0.6,0.2-1c0-0.4-0.1-0.7-0.2-1c-0.2-0.2-0.4-0.4-0.6-0.5c-0.3-0.1-0.6-0.2-1-0.2c-0.4,0-0.7,0-1,0
		h-0.5v-2.5h0.5c0.4,0,0.7,0,1-0.1c0.3,0,0.6-0.1,0.8-0.2c0.2-0.1,0.4-0.3,0.5-0.5s0.2-0.5,0.2-0.9c0-0.3-0.1-0.5-0.2-0.7
		c-0.1-0.2-0.3-0.3-0.4-0.4c-0.2-0.1-0.4-0.2-0.7-0.2c-0.3,0-0.5-0.1-0.7-0.1c-0.3,0-0.6,0-0.9,0.1c-0.3,0.1-0.6,0.2-0.9,0.3
		c-0.2,0.1-0.5,0.2-0.7,0.4c-0.3,0.2-0.4,0.3-0.6,0.4h-0.3v-3c0.4-0.2,1-0.4,1.7-0.6c0.7-0.2,1.5-0.3,2.2-0.3c0.7,0,1.4,0.1,1.9,0.2
		c0.5,0.1,1,0.4,1.4,0.6c0.4,0.3,0.7,0.7,1,1.1c0.2,0.5,0.3,1,0.3,1.5c0,0.8-0.2,1.5-0.6,2.1c-0.4,0.6-0.9,1-1.6,1.2v0.1
		c0.3,0,0.6,0.1,0.9,0.3c0.3,0.1,0.6,0.3,0.8,0.6c0.2,0.2,0.5,0.6,0.6,0.9S61.8,76.3,61.8,76.8z"/>
</g>
<g>
	<path d="M47.8,26.8c0,0-1-1.3-1.3-1c-0.3,0.3-1.4,2.5-2.5,2.5c-1.1,0.1-3.2-0.3-3.9-1.1c-0.7-0.8-0.7-1.9-0.7-1.9s1.7-2.2,4.2-2.1
		C46.1,23.4,48.1,25.5,47.8,26.8z"/>
</g>
<g>
	<path d="M47.7,28.7c0,0,0.4,0.8-0.4,1.7c-0.7,0.9-1.9,2-4,1.8c-2-0.2-4.2-3.1-4.3-3.4c-0.1-0.3,0.7-0.9,1.8-0.3
		c1.1,0.5,1.8,0.9,3.5,0.3C46,28.2,47.2,27.8,47.7,28.7z"/>
</g>
<g>
	<path d="M38.2,27.9c0,0-15.4,6-15.7,6.3c-0.3,0.3,0.7,0.3,1.2,0.2c0.5-0.2,14.6-5.9,14.6-5.9S38.7,28,38.2,27.9z"/>
</g>
<g>
	<path d="M38.5,29.7c0,0-4,1.8-4.6,2.2c-0.6,0.4-3.8,2.5-3.8,2.5s-0.1,0.5,0.6,0.3S38,30.7,38.5,29.7z"/>
</g>
<g>
	<path d="M38.7,30.5c0,0-3.2,2.4-3.4,2.6c-0.2,0.3-1.3,1-1,1.1c0.3,0.1,1.2-0.4,1.5-0.6c0.3-0.2,3.1-2.6,3.1-2.6
		S39.3,30.4,38.7,30.5z"/>
</g>
<g>
	<path d="M39.4,31.3l-2.1,2c0,0,0.3,0.3,0.9,0c0.6-0.3,1.5-1.5,1.5-1.5S39.9,31.2,39.4,31.3z"/>
</g>
<g>
	<path d="M46.2,32.9c0,0-0.5,0.2-0.3,0.6s1.1,1.1,1.1,1.1s0.5-0.1,0.2-0.5C47,33.7,46.2,32.9,46.2,32.9z"/>
</g>
<g>
	<path d="M46.8,31.7c0,0,0.7,2.2,1.2,2.8c0.5,0.5,1.2,1.1,1.3,0.7s-1.1-2.9-1.4-3.2C47.5,31.8,47,31.5,46.8,31.7z"/>
</g>
<g>
	<path d="M48.7,30.7l12,5.1c0,0,0.6,0,0.5-0.4c-0.2-0.4-10.9-4.7-10.9-4.7S48.9,30.1,48.7,30.7z"/>
</g>
<g>
	<path d="M49.6,29.9c0,0,2.6,0.4,2.6,0.7c0,0.4-3-0.4-3-0.4S49.2,29.8,49.6,29.9z"/>
</g>
<g>
	<path d="M50,29.5c0,0,2.2,0.7,2.5,0.8s0.5-0.4,0.3-0.4C52.7,29.8,51.1,29,50,29.5z"/>
</g>
<g>
	<path d="M53.4,30c0,0-0.7,0.9-0.5,1.1s1.4-0.1,1.2-0.4C53.8,30.4,53.7,29.9,53.4,30z"/>
</g>
<g>
	<path d="M54.7,30.3c0,0,0,0.6,0.4,0.6c0.4,0,6.7,1.7,6.7,1.7s1.2-0.7,0.6-1.2S55.1,30,55.1,30S54.7,30.1,54.7,30.3z"/>
</g>
<g>
	<path d="M49,28.4l24.6,3.5c0,0,1.2-0.5,0.4-0.7c-0.7-0.2-22.5-3-22.5-3S49.4,27.7,49,28.4z"/>
</g>
<g>
	<path d="M49.1,26.4c0,0,11.8-2.2,17.1-1.8c0,0-10.4,1.8-12.5,1.8C51.5,26.4,49.1,26.4,49.1,26.4z"/>
</g>
<g>
	<path d="M48.7,24.8L63.7,19c0,0,0.2-0.6-0.3-0.5s-15,5.7-15,5.7S48,24.8,48.7,24.8z"/>
</g>
<g>
	<path d="M53.8,23.7l6.1-1.9c0,0,0.5-0.6-0.5-0.4S53.9,23,53.9,23S52.9,23.6,53.8,23.7z"/>
</g>
<g>
	<path d="M59,22.5c0,0-4.6,1.5-4.8,1.6s-0.3,0.5,0.2,0.5c0.5-0.1,5-1.5,5-1.5S60.1,22.3,59,22.5z"/>
</g>
<g>
	<path d="M50.6,20.4c0,0,0.3,0.5,0.1,0.9s-2.6,2.7-2.6,2.7s-0.5-0.2-0.2-0.6C48.3,22.9,50.3,20.4,50.6,20.4z"/>
</g>
<g>
	<path d="M47.1,23.3l8-12.4c0,0,0-1-0.7-0.3s-7.6,12.3-7.6,12.3L47.1,23.3z"/>
</g>
<g>
	<path d="M51.4,14.5l-2.7,4.8c0,0-0.1-0.4,0-0.8c0.1-0.4,2.3-4,2.3-4H51.4z"/>
</g>
<g>
	<path d="M51.7,11.6l-1.1,2.4c0,0-0.3-0.4-0.1-0.9c0.1-0.5,0.9-2.1,0.9-2.1L51.7,11.6z"/>
</g>
<g>
	<path d="M52.1,7.6l-6.5,15.2v-0.9L51.1,8C51.1,8,51.6,7.6,52.1,7.6z"/>
</g>
<g>
	<path d="M45.2,14.5c0,0,0.6,1.4,0.4,2.1c-0.2,0.7-0.9,5.8-0.9,5.8s-0.3-2.1-0.2-3.5c0,0-0.6,3.5-0.8,3.5c-0.2,0,0-1.5,0-1.8
		C43.6,20.3,44.6,14.9,45.2,14.5z"/>
</g>
<g>
	<path d="M41.3,21.8c0,0-0.8-2.1-1-2.3c-0.2-0.2-0.5-0.3-0.6,0s1.2,2.3,1.2,2.3S41.1,22.2,41.3,21.8z"/>
</g>
<g>
	<path d="M39,20.3c0,0,1.6,1.8,1.5,2c-0.1,0.3-0.4,0.3-0.6,0.2s-1.4-1.9-1.4-2.1S39,20.3,39,20.3z"/>
</g>
<g>
	<path d="M38.7,22.8c0,0,0.9,1.4,0.1,1.7c-0.8,0.3-1.2-0.5-1.2-0.8c0-0.3-0.4-1-0.8-1s-1.6-0.2-1.2,0.4c0.4,0.7,1.6-0.1,1.5,0.2
		c-0.1,0.4-0.2,0.8-0.9,0.8c-0.6-0.1-2.1-0.6-1.7-1.5S36.9,21,38.7,22.8z"/>
</g>
<g>
	<path d="M38.7,26.1l-2.5-1.2c0,0-0.8,0.1-0.3,0.6s2.4,0.9,2.4,0.9S38.9,26.4,38.7,26.1z"/>
</g>
<g>
	<path d="M32.7,25.6c0,0,5.4,1.3,5.6,1.3c0.2,0,0.3,0.2,0,0.3c-0.3,0-5.1-0.7-5.6-0.8C32.3,26.3,32.1,25.6,32.7,25.6z"/>
</g>
<g>
	<path d="M42.5,15.8c0,0-0.4-0.2-0.6-0.2c-0.2,0-2.2,2-1.3,2.7c0.8,0.7,1.8,1.4,1.8,1.4s0.8-0.8,1.2-1.8
		C43.9,17,42.5,15.8,42.5,15.8z M42.9,17.3c-0.1,0.3-0.6,0.3-0.7,0.1c-0.2-0.2-0.6-0.3-0.6-0.2c0,0.2-0.2,1.1-0.5,1.1
		s-0.1-0.6,0-0.8s0.5-1.4,1.2-1.2C42.2,16.3,43,17,42.9,17.3z"/>
</g>
<g>
	<path d="M47.8,12.1c0,0-1.5,1.4-1.6,1.9c-0.1,0.5-0.3,1.1,0,1c0.3-0.1,0.5-0.9,0.7-0.7s0.4,0.9,0.1,1c-0.4,0.2-0.7,0.7-0.3,0.7
		s1.6-1.9,1.7-2.3s0.3-0.9,0-0.8c-0.3,0.1-0.5,0.7-0.6,0.4c-0.1-0.3,0.3-0.7,0.3-0.9C48,12.1,48,12.1,47.8,12.1z"/>
</g>
<g>
	<path d="M55.5,14.2c0,0-1.9,1.6-2.3,2c-0.4,0.5-1.4,1.4-1.2,1.9c0.2,0.5,1.1,0.5,1.4,0.3c0.4-0.1,1.3-0.2,0.8,0
		c-0.5,0.3-1.3,0.3-1.5,0.5s-0.3,0.1-0.9,0.3c-0.6,0.1-0.4,1,0.2,1c0.6,0.1,1.2-0.7,1.5-0.8c0.3,0,1.9-1.3,2.3-1.4
		c0.4-0.2,0.8-0.7,0.4-0.7s-2.5,0.2-2.7,0.3s-0.5-0.2-0.3-0.4c0.2-0.2,1.2-0.5,1.4-0.5s-0.2-0.3-0.2-0.5c0-0.2,0.4-0.5,0.6-0.5
		s0.9,0.8,1.3,0.2c0.4-0.6,0.4-1.3,0-1.1s0.1,0.6-0.8,0.6c-0.9,0-0.3-0.7,0-0.9C55.8,14.6,56,14.1,55.5,14.2z"/>
</g>
<g>
	<path d="M67.7,26c0,0,1,0.1,0.6,1.1c-0.4,1-1.7,1.7-2,1.7c-0.3,0-0.3-0.4,0.2-0.8c0.5-0.4,1.3-0.7,1.2-1.1
		c-0.1-0.4-0.5-0.5-0.9-0.1c-0.4,0.4-0.9,1.2-1.2,1.2c-0.3,0-0.5-0.6-0.1-0.9S66.7,25.8,67.7,26z"/>
</g>
</svg>
