<?xml version="1.0" encoding="iso-8859-1"?>
<!-- Generator: Adobe Illustrator 25.4.1, SVG Export Plug-In . SVG Version: 6.00 Build 0)  -->
<svg version="1.1" id="Layer_1" xmlns="http://www.w3.org/2000/svg" xmlns:xlink="http://www.w3.org/1999/xlink" x="0px" y="0px"
	 viewBox="0 0 100 100" style="enable-background:new 0 0 100 100;" xml:space="preserve">
<polygon style="fill:#367E7F;" points="50.6,1.4 62.7,13.525 74.8,25.65 86.9,37.775 99,49.9 86.8,62.1 74.6,74.3 62.4,86.5 
	50.2,98.7 37.9,86.525 25.6,74.35 13.3,62.175 1,50 13.4,37.85 25.8,25.7 38.2,13.55 "/>
<path style="fill:#FFFFFF;" d="M11.3,56.1v-3.05V50v-3.05V43.9h0.3h0.3h0.3h0.3l0.65,2.05L13.8,48l0.65,2.05l0.65,2.05v-2.05V48
	v-2.05V43.9h0.3h0.3H16h0.3v3.05V50v3.05v3.05h-0.325H15.65h-0.325H15l-0.625-2l-0.625-2l-0.625-2l-0.625-2v2v2v2v2
	c0,0-0.075,0-0.188,0s-0.263,0-0.413,0s-0.3,0-0.412,0C11.375,56.1,11.3,56.1,11.3,56.1z"/>
<path style="fill:#FFFFFF;" d="M17.4,50.1c0-0.375,0.006-0.731,0.02-1.069c0.014-0.338,0.036-0.656,0.067-0.956
	c0.031-0.3,0.072-0.581,0.123-0.844s0.114-0.506,0.189-0.731c0.075-0.225,0.15-0.438,0.228-0.638c0.078-0.2,0.159-0.387,0.247-0.562
	c0.087-0.175,0.181-0.338,0.284-0.487c0.103-0.15,0.216-0.288,0.341-0.413c0.1-0.125,0.212-0.231,0.334-0.32
	c0.122-0.089,0.253-0.161,0.391-0.217c0.138-0.056,0.282-0.097,0.429-0.124C20.2,43.713,20.35,43.7,20.5,43.7
	c0.225,0,0.438,0.031,0.639,0.095s0.392,0.161,0.573,0.293c0.182,0.131,0.354,0.296,0.518,0.498c0.164,0.201,0.32,0.439,0.47,0.714
	s0.281,0.581,0.394,0.917c0.113,0.336,0.206,0.702,0.281,1.096c0.075,0.393,0.131,0.815,0.169,1.264
	C23.581,49.025,23.6,49.5,23.6,50s-0.019,0.975-0.056,1.425c-0.038,0.45-0.094,0.875-0.169,1.275s-0.169,0.775-0.281,1.125
	C22.981,54.175,22.85,54.5,22.7,54.8c-0.125,0.25-0.263,0.469-0.414,0.656s-0.317,0.344-0.499,0.469s-0.378,0.219-0.592,0.281
	C20.981,56.269,20.75,56.3,20.5,56.3c-0.225,0-0.438-0.031-0.639-0.094s-0.392-0.156-0.573-0.281
	c-0.182-0.125-0.354-0.281-0.518-0.469c-0.164-0.188-0.32-0.406-0.47-0.656c-0.15-0.275-0.281-0.581-0.394-0.917
	c-0.112-0.336-0.206-0.702-0.281-1.096c-0.075-0.393-0.131-0.815-0.169-1.264C17.419,51.075,17.4,50.6,17.4,50.1z M18.8,50
	c0,0.35,0.013,0.681,0.036,0.992c0.024,0.311,0.058,0.601,0.102,0.87c0.043,0.269,0.097,0.516,0.157,0.74
	c0.061,0.223,0.13,0.424,0.205,0.598s0.163,0.331,0.259,0.467c0.097,0.136,0.203,0.251,0.316,0.345s0.231,0.166,0.353,0.214
	C20.35,54.275,20.475,54.3,20.6,54.3s0.244-0.019,0.356-0.058c0.112-0.039,0.219-0.098,0.319-0.179s0.194-0.184,0.281-0.311
	s0.169-0.277,0.244-0.452c0.075-0.175,0.144-0.375,0.205-0.598s0.114-0.471,0.157-0.74c0.044-0.269,0.079-0.559,0.102-0.87
	C22.287,50.781,22.3,50.45,22.3,50.1s-0.013-0.681-0.036-0.991c-0.024-0.309-0.058-0.597-0.102-0.859
	c-0.043-0.263-0.096-0.5-0.157-0.709C21.944,47.331,21.875,47.15,21.8,47c-0.075-0.175-0.156-0.325-0.245-0.452
	s-0.186-0.23-0.293-0.311c-0.106-0.081-0.222-0.14-0.348-0.179C20.787,46.019,20.65,46,20.5,46s-0.281,0.019-0.4,0.058
	c-0.119,0.039-0.225,0.098-0.325,0.179c-0.1,0.082-0.194,0.185-0.288,0.311S19.3,46.825,19.2,47
	c-0.075,0.125-0.138,0.287-0.189,0.483s-0.092,0.423-0.124,0.679c-0.031,0.257-0.053,0.541-0.067,0.849
	C18.806,49.319,18.8,49.65,18.8,50z"/>
<path style="fill:#FFFFFF;" d="M24.6,56.1v-3.05V50v-3.05V43.9h0.3h0.3h0.3h0.3l0.65,2.05L27.1,48l0.65,2.05l0.65,2.05v-2.05V48
	v-2.05V43.9h0.3H29h0.3h0.3v3.05V50v3.05v3.05h-0.325H28.95h-0.325H28.3l-0.625-2l-0.625-2l-0.625-2l-0.625-2v2v2v2v2
	c0,0-0.075,0-0.188,0s-0.263,0-0.413,0s-0.3,0-0.412,0C24.675,56.1,24.6,56.1,24.6,56.1z"/>
<path style="fill:#FFFFFF;" d="M30.6,52.9v-0.575V51.75v-0.575V50.6h0.6h0.6h0.6H33v0.575v0.575v0.575V52.9h-0.6h-0.6h-0.6H30.6z"/>
<path style="fill:#FFFFFF;" d="M33.9,56.1v-3.05V50v-3.05V43.9h1.075h1.075h1.075H38.2v0.525v0.525v0.525V46h-0.775H36.65h-0.775
	H35.1v0.725v0.725v0.725V48.9h0.675h0.675h0.675H37.8v0.525v0.525v0.525V51h-0.675H36.45h-0.675H35.1v1.3v1.3v1.3v1.3h-0.3h-0.3
	h-0.3h-0.3v-0.025V56.15v-0.025V56.1z"/>
<path style="fill:#FFFFFF;" d="M39.3,56.1v-3.025V50.05v-3.025V44h0.325h0.325h0.325H40.6v2.525v2.525v2.525V54.1h0.8h0.8H43h0.8
	v0.525v0.525v0.525V56.2h-1.125H41.55h-1.125H39.3v-0.025V56.15v-0.025V56.1z"/>
<path style="fill:#FFFFFF;" d="M50.4,56.1h-0.35H49.7h-0.35H49l-0.15-0.7l-0.15-0.7L48.55,54l-0.15-0.7h-0.6h-0.6h-0.6H46L45.875,54
	l-0.125,0.7l-0.125,0.7L45.5,56.1h-0.35H44.8h-0.35H44.1l0.625-3.05L45.35,50l0.625-3.05L46.6,43.9h0.35h0.35h0.35H48l0.6,3.05
	L49.2,50l0.6,3.05L50.4,56.1z M48.1,51.3l-0.225-1.125L47.65,49.05l-0.225-1.125L47.2,46.8l-0.225,1.125L46.75,49.05l-0.225,1.125
	L46.3,51.3h0.45h0.45h0.45H48.1z"/>
<path style="fill:#FFFFFF;" d="M51.1,56.1v-3.05V50v-3.05V43.9h0.475h0.475h0.475H53l0.3,2.075l0.3,2.075l0.3,2.075l0.3,2.075
	l0.275-2.075l0.275-2.075l0.275-2.075L55.3,43.9h0.475h0.475h0.475H57.2v3.05V50v3.05v3.05h-0.3h-0.3h-0.3H56v-2.4v-2.4v-2.4v-2.4
	l-0.325,2.4l-0.325,2.4l-0.325,2.4L54.7,56.1h-0.3h-0.3h-0.3h-0.3l-0.325-2.4l-0.325-2.4l-0.325-2.4L52.2,46.5v2.4v2.4v2.4v2.4
	h-0.275H51.65h-0.275H51.1z"/>
<path style="fill:#FFFFFF;" d="M58.4,56.1v-3.05V50v-3.05V43.9h0.475h0.475h0.475H60.3l0.3,2.075l0.3,2.075l0.3,2.075l0.3,2.075
	l0.275-2.075l0.275-2.075l0.275-2.075L62.6,43.9h0.475h0.475h0.475H64.5v3.05V50v3.05v3.05h-0.3h-0.3h-0.3h-0.3v-2.4v-2.4v-2.4v-2.4
	l-0.325,2.4l-0.325,2.4l-0.325,2.4L62,56.1h-0.3h-0.3h-0.3h-0.3l-0.325-2.4l-0.325-2.4l-0.325-2.4L59.5,46.5v2.4v2.4v2.4v2.4h-0.275
	H58.95h-0.275H58.4z"/>
<path style="fill:#FFFFFF;" d="M71.5,56.1h-0.35H70.8h-0.35H70.1l-0.15-0.7l-0.15-0.7L69.65,54l-0.15-0.7h-0.625H68.25h-0.625H67
	L66.875,54l-0.125,0.7l-0.125,0.7L66.5,56.1h-0.35H65.8h-0.35H65.1l0.625-3.05L66.35,50l0.625-3.05L67.6,43.9h0.35h0.35h0.35H69
	l0.625,3.05L70.25,50l0.625,3.05L71.5,56.1z M69.2,51.3l-0.225-1.125L68.75,49.05l-0.225-1.125L68.3,46.8l-0.225,1.125L67.85,49.05
	l-0.225,1.125L67.4,51.3h0.45h0.45h0.45H69.2z"/>
<path style="fill:#FFFFFF;" d="M72.2,43.9h0.625h0.625h0.625H74.7c0.175,0,0.338,0.006,0.488,0.019
	c0.15,0.013,0.287,0.031,0.412,0.056s0.237,0.056,0.338,0.094c0.1,0.037,0.188,0.081,0.262,0.131s0.144,0.112,0.208,0.186
	c0.064,0.073,0.123,0.158,0.179,0.252c0.056,0.093,0.11,0.196,0.161,0.307c0.052,0.111,0.102,0.23,0.152,0.355
	s0.094,0.256,0.131,0.392c0.038,0.136,0.069,0.276,0.094,0.42c0.025,0.144,0.044,0.291,0.056,0.44C77.194,46.7,77.2,46.85,77.2,47
	s-0.006,0.294-0.017,0.433c-0.011,0.139-0.026,0.273-0.045,0.404s-0.04,0.259-0.064,0.386C77.05,48.35,77.025,48.475,77,48.6
	c-0.05,0.125-0.1,0.237-0.15,0.341c-0.05,0.103-0.1,0.197-0.15,0.284s-0.1,0.169-0.15,0.247c-0.05,0.078-0.1,0.153-0.15,0.228
	c0.1,0.05,0.194,0.112,0.281,0.186c0.088,0.073,0.169,0.158,0.244,0.252s0.144,0.197,0.206,0.308
	c0.062,0.111,0.119,0.229,0.169,0.354s0.094,0.256,0.131,0.395c0.038,0.139,0.069,0.286,0.094,0.443
	c0.025,0.156,0.044,0.322,0.056,0.498C77.594,52.312,77.6,52.5,77.6,52.7c0,0.225-0.006,0.438-0.02,0.641
	c-0.014,0.203-0.036,0.397-0.068,0.584s-0.072,0.369-0.123,0.547C77.337,54.65,77.275,54.825,77.2,55s-0.15,0.325-0.227,0.453
	c-0.077,0.128-0.155,0.234-0.236,0.322s-0.166,0.156-0.255,0.209S76.3,56.075,76.2,56.1c-0.075,0.025-0.169,0.044-0.281,0.058
	s-0.244,0.023-0.394,0.029c-0.15,0.007-0.319,0.01-0.506,0.011C74.831,56.2,74.625,56.2,74.4,56.2h-0.55H73.3h-0.55H72.2
	c0,0,0-0.769,0-1.922s0-2.691,0-4.228c0-1.538,0-3.075,0-4.228C72.2,44.669,72.2,43.9,72.2,43.9z M73.5,46v0.7v0.7v0.7v0.7h0.2h0.2
	h0.2h0.2c0.125,0,0.238,0,0.338,0s0.187,0,0.262,0s0.138,0,0.188,0c0.05,0,0.088,0,0.113,0c0.05-0.025,0.1-0.05,0.148-0.076
	c0.048-0.026,0.095-0.054,0.139-0.085c0.044-0.032,0.085-0.066,0.121-0.105c0.036-0.039,0.067-0.083,0.092-0.133
	s0.05-0.112,0.073-0.184c0.023-0.072,0.045-0.153,0.064-0.241s0.034-0.181,0.045-0.278C75.894,47.6,75.9,47.5,75.9,47.4
	s0-0.194-0.002-0.281c-0.001-0.088-0.005-0.169-0.01-0.244c-0.007-0.075-0.016-0.144-0.03-0.206
	c-0.014-0.062-0.033-0.119-0.058-0.169s-0.05-0.1-0.076-0.147c-0.026-0.047-0.054-0.091-0.086-0.128s-0.066-0.069-0.105-0.091
	C75.494,46.112,75.45,46.1,75.4,46.1c-0.025-0.025-0.069-0.044-0.131-0.058s-0.144-0.023-0.244-0.029
	c-0.1-0.006-0.219-0.01-0.356-0.011C74.531,46,74.375,46,74.2,46h-0.175H73.85h-0.175H73.5z M73.5,50.8v0.825v0.825v0.825V54.1h0.3
	h0.3h0.3h0.3c0.125,0,0.244,0,0.353-0.002s0.209-0.005,0.297-0.011s0.162-0.016,0.222-0.03c0.059-0.014,0.103-0.032,0.128-0.057
	s0.056-0.056,0.091-0.092c0.034-0.036,0.072-0.076,0.109-0.12c0.037-0.044,0.075-0.091,0.109-0.139S76.075,53.55,76.1,53.5
	c0.025-0.075,0.05-0.15,0.073-0.227c0.023-0.076,0.045-0.154,0.064-0.236c0.019-0.082,0.035-0.166,0.046-0.255S76.3,52.6,76.3,52.5
	s-0.006-0.194-0.017-0.283c-0.011-0.089-0.026-0.174-0.045-0.255c-0.019-0.081-0.041-0.159-0.065-0.236S76.125,51.575,76.1,51.5
	s-0.05-0.138-0.076-0.191c-0.027-0.053-0.055-0.097-0.086-0.134s-0.065-0.069-0.105-0.097C75.794,51.05,75.75,51.025,75.7,51
	s-0.106-0.044-0.172-0.058c-0.066-0.014-0.141-0.023-0.228-0.029s-0.188-0.009-0.303-0.011C74.881,50.9,74.75,50.9,74.6,50.9h-0.275
	H74.05h-0.275H73.5v-0.025V50.85v-0.025V50.8z"/>
<path style="fill:#FFFFFF;" d="M78.6,56.1v-3.025V50.05v-3.025V44h0.325h0.325h0.325H79.9v2.525v2.525v2.525V54.1h0.8h0.8h0.8h0.8
	v0.525v0.525v0.525V56.2h-1.125H80.85h-1.125H78.6v-0.025V56.15v-0.025V56.1z"/>
<path style="fill:#FFFFFF;" d="M84,56.1v-3.05V50v-3.05V43.9h1.175h1.175h1.175H88.7v0.525v0.525v0.525V46h-0.85H87h-0.85H85.3
	v0.675v0.675v0.675V48.7h0.8h0.8h0.8h0.8v0.525v0.525v0.525V50.8h-0.8h-0.8h-0.8h-0.8v0.825v0.825v0.825V54.1h0.875h0.875h0.875
	H88.8v0.525v0.525v0.525V56.2h-1.2h-1.2h-1.2H84v-0.025V56.15v-0.025V56.1z"/>
<path style="fill:#FFFFFF;" d="M42.5,73.4c-0.15,0.05-0.306,0.106-0.47,0.166c-0.164,0.059-0.336,0.122-0.517,0.184
	s-0.372,0.125-0.574,0.184c-0.202,0.059-0.414,0.116-0.639,0.166s-0.45,0.1-0.674,0.147s-0.445,0.091-0.665,0.128
	c-0.218,0.037-0.434,0.069-0.645,0.091C38.106,74.488,37.9,74.5,37.7,74.5c-0.5,0-0.975-0.037-1.425-0.114
	c-0.45-0.077-0.875-0.192-1.275-0.349c-0.4-0.156-0.775-0.353-1.125-0.592c-0.35-0.239-0.675-0.521-0.975-0.846
	s-0.562-0.675-0.787-1.053c-0.225-0.378-0.413-0.784-0.563-1.222s-0.262-0.906-0.337-1.409c-0.075-0.503-0.113-1.041-0.113-1.616
	c0-0.55,0.038-1.069,0.112-1.558c0.075-0.489,0.188-0.949,0.338-1.38c0.15-0.431,0.337-0.834,0.563-1.211
	c0.225-0.377,0.487-0.727,0.787-1.052s0.625-0.613,0.975-0.861S34.6,60.779,35,60.611c0.4-0.169,0.825-0.297,1.275-0.383
	c0.45-0.086,0.925-0.13,1.425-0.13c0.275,0,0.531,0.006,0.772,0.019c0.241,0.013,0.466,0.031,0.678,0.056s0.412,0.056,0.603,0.094
	c0.191,0.037,0.372,0.081,0.547,0.131c0.175,0.05,0.344,0.106,0.511,0.169c0.167,0.062,0.333,0.131,0.502,0.206
	c0.168,0.076,0.34,0.158,0.52,0.246C42.013,61.106,42.2,61.2,42.4,61.3v0.8v0.8v0.8v0.8h-0.075H42.25h-0.075H42.1
	c-0.05-0.025-0.1-0.056-0.152-0.094c-0.051-0.037-0.104-0.081-0.16-0.131c-0.056-0.05-0.116-0.106-0.18-0.169
	S41.475,63.975,41.4,63.9c-0.075-0.05-0.15-0.1-0.223-0.15c-0.074-0.05-0.146-0.1-0.215-0.15s-0.135-0.1-0.196-0.15
	c-0.061-0.05-0.117-0.1-0.166-0.15c-0.075-0.05-0.156-0.1-0.242-0.148c-0.086-0.049-0.177-0.096-0.271-0.139
	c-0.093-0.044-0.19-0.084-0.289-0.12C39.7,62.856,39.6,62.825,39.5,62.8s-0.206-0.05-0.316-0.073
	c-0.109-0.024-0.222-0.046-0.334-0.065c-0.112-0.018-0.225-0.034-0.334-0.045S38.3,62.6,38.2,62.6c-0.125,0-0.25,0.006-0.375,0.019
	s-0.25,0.031-0.375,0.056s-0.25,0.056-0.375,0.094c-0.125,0.037-0.25,0.081-0.375,0.131s-0.237,0.106-0.342,0.169
	s-0.202,0.131-0.296,0.206s-0.184,0.156-0.277,0.244C35.694,63.606,35.6,63.7,35.5,63.8c-0.075,0.1-0.15,0.2-0.223,0.303
	c-0.074,0.103-0.146,0.209-0.215,0.322c-0.069,0.113-0.134,0.231-0.195,0.359C34.806,64.912,34.75,65.05,34.7,65.2
	s-0.094,0.3-0.131,0.453c-0.038,0.153-0.069,0.309-0.094,0.472c-0.025,0.162-0.044,0.331-0.056,0.509S34.4,67,34.4,67.2
	c0,0.4,0.025,0.775,0.073,1.125S34.593,69,34.687,69.3s0.209,0.575,0.345,0.825c0.136,0.25,0.292,0.475,0.467,0.675
	s0.375,0.375,0.595,0.525c0.22,0.15,0.461,0.275,0.717,0.375s0.528,0.175,0.812,0.225C37.906,71.975,38.2,72,38.5,72
	c0.025,0,0.05,0,0.076,0c0.026,0,0.054,0,0.085,0s0.066,0,0.105,0s0.083,0,0.133,0s0.094,0,0.133,0c0.039,0,0.073,0,0.104,0
	s0.059,0,0.086,0s0.052,0,0.077,0v-0.675V70.65v-0.675V69.3h-0.575H38.15h-0.575H37v-0.65V68v-0.65V66.7h1.375h1.375h1.375H42.5
	v1.675v1.675v1.675V73.4z"/>
<path style="fill:#FFFFFF;" d="M43.6,74.2l1.075-3.45l1.075-3.45l1.075-3.45L47.9,60.4h0.875h0.875h0.875H51.4l1.075,3.45
	l1.075,3.45l1.075,3.45L55.7,74.2h-0.825H54.05h-0.825H52.4l-0.2-0.7L52,72.8l-0.2-0.7l-0.2-0.7h-1h-1h-1h-1l-0.2,0.7l-0.2,0.7
	L47,73.5l-0.2,0.7H46h-0.8c0,0-0.4,0-0.8,0S43.6,74.2,43.6,74.2z M50.8,68.8l-0.325-1.15L50.15,66.5l-0.325-1.15L49.5,64.2
	l-0.325,1.15L48.85,66.5l-0.325,1.15L48.2,68.8h0.65h0.65h0.65H50.8z"/>
<path style="fill:#FFFFFF;" d="M60.7,74.4c-0.25,0-0.487-0.006-0.716-0.019c-0.228-0.012-0.447-0.031-0.659-0.056
	s-0.419-0.056-0.622-0.094C58.5,74.194,58.3,74.15,58.1,74.1s-0.388-0.106-0.566-0.167c-0.178-0.061-0.347-0.127-0.509-0.196
	c-0.162-0.068-0.319-0.14-0.472-0.214C56.4,73.45,56.25,73.375,56.1,73.3v-0.825V71.65v-0.825V70h0.075h0.075h0.075H56.4
	c0.15,0.15,0.306,0.288,0.469,0.416c0.162,0.128,0.331,0.247,0.506,0.359s0.356,0.219,0.544,0.322C58.106,71.2,58.3,71.3,58.5,71.4
	c0.2,0.075,0.394,0.144,0.583,0.205c0.189,0.061,0.374,0.114,0.555,0.158c0.181,0.044,0.359,0.078,0.535,0.101
	C60.35,71.887,60.525,71.9,60.7,71.9c0.05,0,0.1,0,0.152-0.002c0.051-0.001,0.104-0.005,0.16-0.01
	c0.056-0.007,0.115-0.016,0.179-0.03c0.064-0.014,0.133-0.033,0.209-0.058c0.075,0,0.144-0.006,0.208-0.017
	c0.064-0.011,0.124-0.026,0.18-0.045s0.109-0.04,0.161-0.064S62.05,71.625,62.1,71.6s0.1-0.056,0.15-0.091
	c0.05-0.034,0.1-0.072,0.15-0.109s0.1-0.075,0.15-0.109c0.05-0.034,0.1-0.066,0.15-0.091c0.05-0.05,0.088-0.1,0.116-0.151
	c0.028-0.051,0.047-0.104,0.059-0.16c0.013-0.057,0.019-0.116,0.022-0.18C62.9,70.644,62.9,70.575,62.9,70.5s-0.006-0.15-0.02-0.224
	s-0.036-0.146-0.068-0.215s-0.072-0.134-0.123-0.195c-0.051-0.061-0.114-0.117-0.189-0.167s-0.144-0.1-0.211-0.148
	c-0.067-0.049-0.133-0.096-0.202-0.14c-0.069-0.043-0.14-0.084-0.22-0.12c-0.08-0.036-0.167-0.067-0.267-0.092
	s-0.206-0.05-0.317-0.076s-0.227-0.054-0.346-0.086s-0.241-0.065-0.364-0.105C60.45,68.894,60.325,68.85,60.2,68.8
	c-0.125-0.025-0.244-0.05-0.359-0.076c-0.116-0.026-0.228-0.054-0.341-0.086s-0.225-0.066-0.341-0.105
	c-0.116-0.039-0.234-0.083-0.359-0.133c-0.25-0.1-0.481-0.206-0.694-0.319c-0.213-0.113-0.406-0.231-0.581-0.356
	s-0.331-0.256-0.469-0.394C56.919,67.194,56.8,67.05,56.7,66.9s-0.188-0.312-0.263-0.488c-0.075-0.175-0.137-0.362-0.188-0.562
	c-0.05-0.2-0.088-0.412-0.112-0.637C56.112,64.988,56.1,64.75,56.1,64.5c0-0.325,0.031-0.631,0.094-0.92s0.156-0.561,0.281-0.817
	s0.281-0.497,0.469-0.723S57.35,61.6,57.6,61.4s0.519-0.375,0.805-0.525c0.286-0.15,0.589-0.275,0.908-0.375
	c0.319-0.1,0.653-0.175,1.001-0.225c0.348-0.05,0.711-0.075,1.086-0.075c0.2,0,0.394,0.006,0.583,0.019
	c0.189,0.013,0.374,0.031,0.555,0.056c0.181,0.025,0.359,0.056,0.535,0.094S63.425,60.45,63.6,60.5s0.35,0.1,0.523,0.152
	c0.173,0.051,0.345,0.104,0.514,0.16c0.169,0.056,0.335,0.116,0.496,0.18c0.161,0.064,0.317,0.133,0.467,0.208V62v0.8v0.8v0.8
	h-0.075H65.45h-0.075H65.3c-0.125-0.1-0.25-0.2-0.378-0.299c-0.128-0.099-0.259-0.196-0.397-0.29s-0.281-0.184-0.434-0.27
	c-0.153-0.086-0.316-0.167-0.491-0.242s-0.35-0.144-0.525-0.205s-0.35-0.114-0.525-0.157c-0.175-0.044-0.35-0.079-0.525-0.102
	C61.85,62.812,61.675,62.8,61.5,62.8c-0.075,0-0.144,0-0.208,0.002s-0.124,0.005-0.18,0.011c-0.056,0.006-0.109,0.015-0.16,0.029
	S60.85,62.875,60.8,62.9s-0.106,0.044-0.166,0.061c-0.059,0.017-0.122,0.033-0.184,0.051c-0.062,0.019-0.125,0.041-0.184,0.071
	c-0.059,0.03-0.116,0.067-0.166,0.117c-0.05,0.025-0.1,0.05-0.148,0.076s-0.096,0.055-0.139,0.085
	c-0.043,0.032-0.084,0.066-0.12,0.105c-0.036,0.039-0.067,0.083-0.092,0.133s-0.05,0.1-0.074,0.152
	c-0.023,0.051-0.045,0.104-0.064,0.16c-0.019,0.056-0.034,0.116-0.045,0.18S59.4,64.225,59.4,64.3c0,0.1,0.006,0.188,0.019,0.266
	s0.031,0.147,0.056,0.209s0.056,0.119,0.094,0.172C59.606,65,59.65,65.05,59.7,65.1s0.119,0.1,0.203,0.15
	c0.084,0.05,0.184,0.1,0.297,0.15c0.112,0.05,0.237,0.1,0.372,0.15c0.134,0.05,0.278,0.1,0.428,0.15c0.1,0.025,0.2,0.05,0.3,0.075
	c0.1,0.025,0.2,0.05,0.3,0.075s0.2,0.05,0.3,0.075c0.1,0.025,0.2,0.05,0.3,0.075s0.2,0.05,0.301,0.076
	c0.102,0.027,0.205,0.055,0.311,0.086c0.107,0.031,0.216,0.066,0.33,0.105S63.375,66.35,63.5,66.4
	c0.225,0.075,0.431,0.162,0.622,0.261c0.191,0.098,0.366,0.208,0.528,0.327s0.312,0.247,0.453,0.383S65.375,67.65,65.5,67.8
	c0.1,0.15,0.188,0.312,0.262,0.486c0.075,0.173,0.137,0.358,0.188,0.551c0.05,0.194,0.088,0.397,0.113,0.608
	c0.025,0.211,0.037,0.43,0.037,0.655c0,0.35-0.031,0.681-0.094,0.994s-0.156,0.606-0.281,0.881s-0.281,0.531-0.469,0.769
	C65.069,72.981,64.85,73.2,64.6,73.4c-0.225,0.15-0.475,0.287-0.75,0.409c-0.275,0.122-0.575,0.228-0.9,0.316
	c-0.325,0.088-0.675,0.156-1.05,0.203C61.525,74.375,61.125,74.4,60.7,74.4z"/>
<path style="fill:#FFFFFF;" d="M67.8,22.5l-1.375-0.125L65.05,22.25l-1.375-0.125L62.3,22c0,0-0.038-0.062-0.119-0.153
	c-0.081-0.091-0.206-0.209-0.381-0.322s-0.4-0.219-0.681-0.284C60.838,21.175,60.5,21.15,60.1,21.2s-2.606,0.606-5.691,1.413
	c-3.084,0.806-7.047,1.863-10.959,2.913s-7.775,2.094-10.659,2.875S28,29.7,28,29.7s-0.125,0.144-0.291,0.42
	c-0.166,0.277-0.372,0.686-0.534,1.218c-0.162,0.531-0.281,1.184-0.272,1.948c0.009,0.764,0.147,1.639,0.497,2.614
	c0.325,0.975,0.869,1.575,1.502,1.927c0.633,0.351,1.355,0.454,2.036,0.435c0.681-0.019,1.321-0.159,1.792-0.295
	C33.2,37.831,33.5,37.7,33.5,37.7l7.175-1.9l7.175-1.9l7.175-1.9l7.175-1.9c0,0,0.169-0.081,0.422-0.241s0.591-0.397,0.928-0.709
	s0.675-0.7,0.928-1.159C64.731,27.531,64.9,27,64.9,26.4l0.85-0.675l0.85-0.675l0.85-0.675L68.3,23.7
	c-0.025,0.05-0.006,0.006,0.02-0.089c0.026-0.095,0.061-0.242,0.067-0.398c0.007-0.157-0.015-0.322-0.101-0.455
	C68.2,22.625,68.05,22.525,67.8,22.5z"/>
</svg>
