<?xml version="1.0" encoding="utf-8"?>
<!-- Generator: Adobe Illustrator 25.2.0, SVG Export Plug-In . SVG Version: 6.00 Build 0)  -->
<svg version="1.1" id="Layer_1" xmlns="http://www.w3.org/2000/svg" xmlns:xlink="http://www.w3.org/1999/xlink" x="0px" y="0px"
	 viewBox="0 0 100 100" style="enable-background:new 0 0 100 100;" xml:space="preserve">
<g>
	<path d="M10.4,55.9V42.5h2.7c3.5,0,5.2,2.2,5.2,6.6c0,2.1-0.5,3.7-1.4,5c-1,1.3-2.3,1.9-3.9,1.9H10.4z M12,44.4V54h1.3
		c1.1,0,2-0.4,2.6-1.3c0.6-0.9,0.9-2.1,0.9-3.7c0-3.1-1.1-4.7-3.4-4.7H12z"/>
</g>
<g>
	<path d="M27.6,55.9h-1.7l-0.8-3.4h-3.7l-0.8,3.4h-1.7l3.5-13.4h1.8L27.6,55.9z M24.6,50.7l-1.3-5.4c0-0.2-0.1-0.5-0.1-0.8h0
		c0,0.4-0.1,0.6-0.1,0.8l-1.3,5.4H24.6z"/>
</g>
<g>
	<path d="M36.9,55.9h-1.7L30.7,46c-0.1-0.2-0.2-0.5-0.3-0.8h0c0,0.3,0.1,0.9,0.1,1.8v8.8h-1.5V42.5h1.8l4.4,9.6
		c0.2,0.4,0.3,0.7,0.4,0.8h0c0-0.4-0.1-1-0.1-1.8v-8.7h1.5V55.9z"/>
</g>
<g>
	<path d="M46.6,55c-1,0.8-2.1,1.1-3.3,1.1c-1.4,0-2.5-0.6-3.4-1.9c-0.9-1.2-1.3-2.9-1.3-4.9c0-2.1,0.5-3.8,1.4-5.1
		c0.9-1.3,2.1-2,3.6-2c1,0,1.9,0.2,2.6,0.7v2.3c-0.7-0.7-1.6-1-2.6-1c-1,0-1.8,0.5-2.5,1.4c-0.6,0.9-1,2.2-1,3.7
		c0,1.5,0.3,2.8,0.8,3.6c0.6,0.9,1.3,1.3,2.2,1.3c0.6,0,1.2-0.2,1.7-0.5v-3.2h-2v-1.9h3.5V55z"/>
</g>
<g>
	<path d="M53.9,55.9h-5.3V42.5h5.1v1.9h-3.5v3.8h3.2V50h-3.2v4h3.7V55.9z"/>
</g>
<g>
	<path d="M62.9,55.9h-1.8l-1.5-3.6c-0.1-0.3-0.3-0.6-0.4-0.8s-0.3-0.4-0.4-0.6c-0.1-0.1-0.3-0.3-0.4-0.3c-0.2-0.1-0.3-0.1-0.5-0.1
		h-0.6v5.5h-1.6V42.5h3.1c0.4,0,0.9,0.1,1.2,0.2c0.4,0.1,0.7,0.4,1,0.7c0.3,0.3,0.5,0.7,0.6,1.1c0.2,0.5,0.2,1,0.2,1.6
		c0,0.5,0,0.9-0.1,1.3c-0.1,0.4-0.2,0.7-0.4,1.1c-0.2,0.3-0.4,0.6-0.7,0.8c-0.3,0.2-0.5,0.4-0.9,0.5v0c0.2,0.1,0.3,0.3,0.4,0.5
		c0.1,0.2,0.2,0.3,0.4,0.5c0.1,0.2,0.2,0.4,0.3,0.6c0.1,0.2,0.2,0.5,0.4,0.8L62.9,55.9z M57.2,44.3v4.4h1.3c0.2,0,0.5-0.1,0.7-0.2
		c0.2-0.1,0.4-0.3,0.5-0.5c0.1-0.2,0.3-0.4,0.3-0.7c0.1-0.3,0.1-0.6,0.1-1c0-0.6-0.1-1.1-0.4-1.5c-0.3-0.4-0.7-0.5-1.2-0.5H57.2z"/>
</g>
<g>
	<path d="M67.8,56.1c-1.4,0-2.4-0.6-3.3-1.9c-0.8-1.3-1.2-2.9-1.2-4.9c0-2.2,0.4-3.9,1.3-5.2c0.8-1.3,2-1.9,3.4-1.9
		c1.3,0,2.4,0.6,3.2,1.9c0.8,1.2,1.2,2.9,1.2,4.9c0,2.2-0.4,3.9-1.2,5.2C70.3,55.5,69.2,56.1,67.8,56.1z M67.8,44.2
		c-0.9,0-1.6,0.5-2.1,1.4c-0.5,0.9-0.8,2.1-0.8,3.6c0,1.5,0.3,2.7,0.8,3.6c0.5,0.9,1.2,1.4,2.1,1.4c0.9,0,1.6-0.4,2.1-1.3
		c0.5-0.9,0.8-2.1,0.8-3.6c0-1.6-0.3-2.8-0.8-3.7C69.4,44.6,68.7,44.2,67.8,44.2z"/>
</g>
<g>
	<path d="M81.3,50.5c0,3.8-1.3,5.7-3.8,5.7c-2.4,0-3.6-1.8-3.6-5.4v-8.2h1.6v7.8c0,2.6,0.7,4,2.2,4c1.4,0,2.1-1.3,2.1-3.8v-7.9h1.6
		V50.5z"/>
</g>
<g>
	<path d="M83.1,55.4v-2.3c0.1,0.2,0.3,0.4,0.5,0.5c0.2,0.1,0.4,0.3,0.6,0.4c0.2,0.1,0.4,0.2,0.7,0.2c0.2,0.1,0.4,0.1,0.6,0.1
		c0.7,0,1.1-0.2,1.5-0.5c0.3-0.3,0.5-0.8,0.5-1.4c0-0.3-0.1-0.6-0.2-0.8c-0.1-0.2-0.3-0.4-0.5-0.6s-0.4-0.4-0.7-0.6
		c-0.3-0.2-0.5-0.4-0.8-0.6c-0.3-0.2-0.6-0.5-0.9-0.7c-0.3-0.2-0.5-0.5-0.7-0.8c-0.2-0.3-0.4-0.6-0.5-1c-0.1-0.4-0.2-0.8-0.2-1.3
		c0-0.6,0.1-1.2,0.3-1.6c0.2-0.5,0.5-0.8,0.8-1.2s0.7-0.5,1.1-0.7c0.4-0.1,0.8-0.2,1.3-0.2c1,0,1.7,0.2,2.2,0.5v2.2
		c-0.5-0.5-1.2-0.8-2.1-0.8c-0.2,0-0.5,0-0.7,0.1c-0.2,0.1-0.4,0.2-0.6,0.3c-0.2,0.1-0.3,0.3-0.4,0.6c-0.1,0.2-0.2,0.5-0.2,0.8
		c0,0.3,0,0.6,0.1,0.8c0.1,0.2,0.2,0.4,0.4,0.6c0.2,0.2,0.4,0.4,0.6,0.5c0.2,0.2,0.5,0.4,0.8,0.6c0.3,0.2,0.6,0.5,0.9,0.8
		c0.3,0.3,0.5,0.6,0.8,0.9c0.2,0.3,0.4,0.7,0.5,1.1c0.1,0.4,0.2,0.8,0.2,1.4c0,0.7-0.1,1.3-0.3,1.7c-0.2,0.5-0.5,0.9-0.8,1.1
		c-0.3,0.3-0.7,0.5-1.1,0.6c-0.4,0.1-0.9,0.2-1.3,0.2c-0.2,0-0.4,0-0.6-0.1c-0.2,0-0.5-0.1-0.7-0.1c-0.2-0.1-0.5-0.1-0.7-0.2
		C83.4,55.6,83.2,55.5,83.1,55.4z"/>
</g>
<polygon style="fill:#EB3223;" points="50.8,1.3 88.7,39.4 12.8,39.4 "/>
<polygon style="fill:#EB3223;" points="11.8,59.3 89.6,59.3 50.8,98.7 "/>
</svg>
