<?xml version="1.0" encoding="iso-8859-1"?>
<!-- Generator: Adobe Illustrator 25.4.1, SVG Export Plug-In . SVG Version: 6.00 Build 0)  -->
<svg version="1.1" id="Layer_1" xmlns="http://www.w3.org/2000/svg" xmlns:xlink="http://www.w3.org/1999/xlink" x="0px" y="0px"
	 viewBox="0 0 100 100" style="enable-background:new 0 0 100 100;" xml:space="preserve">
<polygon style="fill:#EB3223;" points="6.7,54 17.6,64.825 28.5,75.65 39.4,86.475 50.3,97.3 61.05,86.5 71.8,75.7 82.55,64.9 
	93.3,54.1 71.65,54.075 50,54.05 28.35,54.025 "/>
<path d="M16.5,53.7v-0.425V52.85v-0.425V52c0.025,0.025,0.05,0.056,0.075,0.091c0.025,0.034,0.05,0.072,0.075,0.109
	s0.05,0.075,0.075,0.109c0.025,0.034,0.05,0.066,0.075,0.091s0.056,0.05,0.091,0.075c0.034,0.025,0.072,0.05,0.109,0.075
	s0.075,0.05,0.109,0.075c0.034,0.025,0.066,0.05,0.091,0.075s0.056,0.044,0.091,0.059s0.072,0.028,0.109,0.041
	c0.038,0.013,0.075,0.025,0.109,0.041s0.066,0.034,0.091,0.059s0.056,0.044,0.091,0.058c0.034,0.014,0.072,0.024,0.109,0.03
	c0.037,0.006,0.075,0.009,0.109,0.01C17.944,53,17.975,53,18,53c0.1,0,0.194-0.006,0.281-0.019s0.169-0.031,0.244-0.056
	s0.144-0.056,0.206-0.094c0.062-0.037,0.119-0.081,0.169-0.131s0.094-0.112,0.131-0.184c0.037-0.072,0.069-0.153,0.094-0.241
	c0.025-0.088,0.044-0.181,0.056-0.278C19.194,51.9,19.2,51.8,19.2,51.7c0-0.05,0-0.1-0.002-0.15c-0.002-0.05-0.005-0.1-0.011-0.15
	c-0.006-0.05-0.015-0.1-0.029-0.15c-0.014-0.05-0.033-0.1-0.058-0.15s-0.05-0.094-0.075-0.134c-0.025-0.041-0.05-0.078-0.075-0.116
	s-0.05-0.075-0.075-0.116c-0.025-0.041-0.05-0.084-0.075-0.134c-0.025-0.025-0.056-0.056-0.091-0.091
	c-0.034-0.034-0.072-0.072-0.109-0.109s-0.075-0.075-0.109-0.109c-0.034-0.034-0.066-0.066-0.091-0.091
	c-0.05-0.025-0.094-0.056-0.134-0.091c-0.041-0.034-0.078-0.072-0.116-0.109s-0.075-0.075-0.116-0.109
	c-0.041-0.034-0.084-0.066-0.134-0.091c-0.05-0.05-0.1-0.1-0.149-0.148s-0.096-0.096-0.139-0.139
	c-0.043-0.044-0.084-0.084-0.12-0.12S17.425,49.325,17.4,49.3c-0.05-0.05-0.094-0.1-0.133-0.15c-0.039-0.05-0.073-0.1-0.104-0.15
	c-0.031-0.05-0.06-0.1-0.086-0.15C17.05,48.8,17.025,48.75,17,48.7s-0.05-0.106-0.075-0.167c-0.025-0.061-0.05-0.126-0.075-0.195
	c-0.025-0.069-0.05-0.141-0.075-0.215c-0.025-0.074-0.05-0.149-0.075-0.223c-0.025-0.075-0.044-0.15-0.058-0.227
	s-0.023-0.154-0.029-0.236c-0.007-0.082-0.01-0.166-0.011-0.255C16.6,47.094,16.6,47,16.6,46.9c0-0.125,0.006-0.244,0.017-0.356
	c0.011-0.112,0.026-0.219,0.045-0.319s0.041-0.194,0.064-0.281c0.024-0.087,0.049-0.169,0.074-0.244s0.056-0.15,0.092-0.223
	s0.076-0.146,0.12-0.215s0.09-0.134,0.139-0.195C17.2,45.006,17.25,44.95,17.3,44.9s0.1-0.1,0.152-0.148
	c0.051-0.049,0.104-0.096,0.16-0.139c0.056-0.043,0.116-0.084,0.18-0.12S17.925,44.425,18,44.4s0.144-0.05,0.209-0.073
	c0.066-0.024,0.128-0.046,0.191-0.065c0.062-0.019,0.125-0.034,0.191-0.045c0.066-0.011,0.134-0.017,0.209-0.017
	c0.15,0,0.287,0.006,0.414,0.02s0.242,0.036,0.349,0.067c0.106,0.031,0.203,0.072,0.292,0.124c0.089,0.052,0.17,0.114,0.245,0.189
	v0.35v0.35v0.35V46c-0.075-0.1-0.163-0.188-0.259-0.263c-0.097-0.075-0.203-0.138-0.316-0.188s-0.231-0.087-0.353-0.112
	C19.05,45.413,18.925,45.4,18.8,45.4c-0.025,0-0.056,0-0.091,0.002c-0.034,0.002-0.072,0.005-0.109,0.011s-0.075,0.016-0.109,0.03
	S18.425,45.475,18.4,45.5c-0.025,0-0.056,0.006-0.091,0.017c-0.034,0.011-0.072,0.026-0.109,0.045
	c-0.037,0.019-0.075,0.041-0.109,0.064C18.056,45.65,18.025,45.675,18,45.7s-0.05,0.05-0.075,0.076
	c-0.025,0.027-0.05,0.055-0.075,0.085c-0.025,0.032-0.05,0.066-0.075,0.105S17.725,46.05,17.7,46.1s-0.044,0.1-0.058,0.15
	c-0.014,0.05-0.023,0.1-0.029,0.15c-0.007,0.05-0.01,0.1-0.011,0.15S17.6,46.65,17.6,46.7s0,0.1,0.002,0.15
	c0.002,0.05,0.005,0.1,0.011,0.15c0.006,0.05,0.015,0.1,0.03,0.15c0.014,0.05,0.033,0.1,0.057,0.15
	c0.025,0.05,0.044,0.094,0.059,0.133c0.016,0.039,0.028,0.073,0.041,0.104s0.025,0.059,0.041,0.086
	c0.016,0.027,0.034,0.052,0.059,0.077s0.05,0.056,0.077,0.091s0.055,0.072,0.086,0.109c0.031,0.038,0.065,0.075,0.104,0.109
	S18.25,48.075,18.3,48.1c0.025,0.025,0.056,0.056,0.092,0.091s0.076,0.072,0.12,0.109s0.09,0.075,0.139,0.109
	C18.7,48.444,18.75,48.475,18.8,48.5c0.05,0.05,0.1,0.1,0.15,0.15c0.05,0.05,0.1,0.1,0.15,0.15c0.05,0.05,0.1,0.1,0.15,0.15
	c0.05,0.05,0.1,0.1,0.15,0.15s0.094,0.1,0.134,0.152c0.041,0.051,0.078,0.104,0.116,0.16s0.075,0.116,0.116,0.18
	c0.041,0.064,0.084,0.133,0.134,0.208s0.087,0.144,0.117,0.209c0.03,0.066,0.052,0.128,0.071,0.191s0.035,0.125,0.052,0.191
	c0.017,0.066,0.035,0.134,0.06,0.209s0.044,0.15,0.058,0.227c0.014,0.076,0.023,0.154,0.029,0.236
	c0.007,0.081,0.01,0.166,0.011,0.255C20.3,51.406,20.3,51.5,20.3,51.6c0,0.125-0.006,0.244-0.017,0.358
	c-0.011,0.114-0.026,0.224-0.045,0.33c-0.019,0.106-0.041,0.209-0.064,0.311C20.15,52.7,20.125,52.8,20.1,52.9
	c-0.025,0.075-0.056,0.15-0.092,0.223c-0.036,0.074-0.076,0.146-0.12,0.215c-0.044,0.069-0.091,0.134-0.139,0.195
	S19.65,53.65,19.6,53.7s-0.1,0.1-0.152,0.149s-0.104,0.095-0.16,0.139c-0.057,0.044-0.116,0.084-0.18,0.12S18.975,54.175,18.9,54.2
	s-0.144,0.044-0.209,0.058c-0.066,0.014-0.128,0.023-0.191,0.029c-0.062,0.007-0.125,0.01-0.191,0.011
	C18.244,54.3,18.175,54.3,18.1,54.3c-0.025,0-0.05,0-0.077,0c-0.027,0-0.055,0-0.086,0s-0.066,0-0.105,0c-0.039,0-0.083,0-0.132,0
	s-0.093-0.006-0.132-0.016c-0.039-0.009-0.074-0.022-0.105-0.034s-0.059-0.025-0.086-0.034C17.35,54.206,17.325,54.2,17.3,54.2
	s-0.056-0.006-0.091-0.017c-0.034-0.011-0.072-0.026-0.109-0.045c-0.037-0.019-0.075-0.041-0.109-0.065
	C16.956,54.05,16.925,54.025,16.9,54s-0.056-0.05-0.091-0.075c-0.034-0.025-0.072-0.05-0.109-0.075s-0.075-0.05-0.109-0.075
	S16.525,53.725,16.5,53.7z"/>
<path d="M22.2,50.5v0.9v0.9v0.9v0.9h-0.25H21.7h-0.25H21.2v-2.475V49.15v-2.475V44.2h0.45h0.45h0.45H23
	c0.175,0,0.337,0.019,0.487,0.055c0.15,0.036,0.288,0.089,0.413,0.158c0.125,0.069,0.238,0.153,0.337,0.251
	c0.1,0.098,0.188,0.211,0.263,0.336s0.144,0.269,0.205,0.428c0.061,0.159,0.114,0.334,0.157,0.522
	c0.044,0.188,0.079,0.387,0.102,0.597C24.987,46.756,25,46.975,25,47.2c0,0.25-0.013,0.481-0.038,0.698s-0.062,0.42-0.112,0.614
	s-0.113,0.378-0.188,0.558c-0.075,0.18-0.163,0.355-0.263,0.53c-0.1,0.15-0.206,0.281-0.319,0.394s-0.231,0.206-0.356,0.281
	s-0.256,0.131-0.394,0.169C23.194,50.481,23.05,50.5,22.9,50.5h-0.175H22.55h-0.175H22.2z M22.2,45.6v0.9v0.9v0.9v0.9h0.15h0.15
	h0.15h0.15c0.1,0,0.194-0.013,0.281-0.036c0.087-0.024,0.169-0.058,0.244-0.102c0.075-0.044,0.144-0.097,0.206-0.157
	s0.119-0.13,0.169-0.205c0.05-0.075,0.094-0.162,0.131-0.261c0.037-0.098,0.069-0.208,0.094-0.327
	c0.025-0.118,0.044-0.246,0.056-0.382C23.994,47.594,24,47.45,24,47.3c0-0.3-0.025-0.556-0.075-0.772
	C23.875,46.312,23.8,46.137,23.7,46c-0.1-0.138-0.225-0.238-0.375-0.303S23,45.6,22.8,45.6c0,0-0.038,0-0.094,0s-0.131,0-0.206,0
	s-0.15,0-0.206,0C22.238,45.6,22.2,45.6,22.2,45.6z"/>
<path d="M28.5,54.3c-0.2,0-0.394-0.031-0.58-0.092s-0.364-0.151-0.532-0.27c-0.169-0.119-0.329-0.266-0.477-0.439
	c-0.148-0.174-0.286-0.374-0.411-0.598s-0.237-0.469-0.336-0.731c-0.098-0.263-0.183-0.544-0.251-0.844s-0.122-0.619-0.158-0.956
	C25.719,50.031,25.7,49.675,25.7,49.3c0-0.4,0.019-0.781,0.055-1.142c0.036-0.361,0.089-0.701,0.157-1.02s0.153-0.615,0.252-0.889
	c0.099-0.274,0.211-0.524,0.336-0.749s0.263-0.425,0.413-0.598s0.312-0.32,0.487-0.439s0.363-0.209,0.562-0.27
	c0.2-0.061,0.413-0.092,0.638-0.092c0.2,0,0.394,0.031,0.58,0.092s0.364,0.151,0.532,0.27s0.328,0.265,0.477,0.439
	c0.149,0.174,0.286,0.374,0.411,0.599s0.231,0.469,0.32,0.731c0.089,0.263,0.161,0.544,0.218,0.844
	c0.056,0.3,0.097,0.619,0.124,0.956c0.027,0.338,0.039,0.694,0.039,1.069c0,0.4-0.019,0.781-0.055,1.142
	c-0.036,0.361-0.089,0.701-0.157,1.02c-0.069,0.319-0.154,0.616-0.253,0.889c-0.099,0.274-0.211,0.524-0.336,0.749
	s-0.263,0.425-0.411,0.598c-0.149,0.174-0.308,0.32-0.477,0.439c-0.168,0.118-0.347,0.209-0.532,0.27S28.7,54.3,28.5,54.3z
	 M28.5,45.5c-0.125,0-0.25,0.019-0.372,0.058c-0.122,0.039-0.241,0.098-0.353,0.179c-0.113,0.082-0.219,0.185-0.316,0.311
	c-0.097,0.127-0.184,0.277-0.259,0.452s-0.144,0.362-0.205,0.562s-0.114,0.412-0.157,0.638c-0.044,0.225-0.078,0.463-0.102,0.713
	S26.7,48.925,26.7,49.2s0.013,0.537,0.036,0.787c0.024,0.25,0.058,0.487,0.102,0.713c0.043,0.225,0.097,0.438,0.157,0.638
	c0.061,0.2,0.13,0.387,0.205,0.562s0.156,0.325,0.245,0.452s0.186,0.23,0.293,0.311c0.106,0.081,0.222,0.14,0.348,0.179
	C28.213,52.881,28.35,52.9,28.5,52.9s0.287-0.019,0.414-0.058c0.127-0.039,0.242-0.098,0.349-0.179
	c0.106-0.082,0.203-0.185,0.292-0.311c0.089-0.127,0.17-0.277,0.245-0.452c0.075-0.15,0.144-0.319,0.205-0.506
	s0.114-0.394,0.157-0.619c0.044-0.225,0.079-0.469,0.102-0.731C30.287,49.781,30.3,49.5,30.3,49.2s-0.013-0.581-0.036-0.844
	c-0.024-0.263-0.058-0.506-0.102-0.731c-0.043-0.225-0.096-0.431-0.157-0.619S29.875,46.65,29.8,46.5
	c-0.075-0.175-0.156-0.325-0.245-0.452s-0.186-0.23-0.292-0.311c-0.107-0.081-0.222-0.14-0.349-0.179
	C28.787,45.519,28.65,45.5,28.5,45.5z"/>
<path d="M37.2,54.1h-0.25H36.7h-0.25H36.2l-0.7-1.825l-0.7-1.825l-0.7-1.825L33.4,46.8c-0.025-0.05-0.044-0.1-0.059-0.15
	c-0.016-0.05-0.028-0.1-0.041-0.15s-0.025-0.1-0.041-0.15c-0.016-0.05-0.034-0.1-0.059-0.15l0,0l0,0l0,0l0,0c0,0.05,0,0.119,0,0.205
	s0,0.189,0,0.308s0,0.253,0,0.402c0,0.148,0,0.311,0,0.486v1.625v1.625v1.625v1.625h-0.225H32.75h-0.225H32.3v-2.475v-2.475v-2.475
	V44.2h0.275h0.275h0.275H33.4l0.675,1.775l0.675,1.775l0.675,1.775L36.1,51.3c0.025,0.075,0.05,0.144,0.073,0.206
	c0.024,0.062,0.046,0.119,0.065,0.169c0.018,0.05,0.034,0.094,0.045,0.131c0.011,0.038,0.017,0.069,0.017,0.094l0,0l0,0l0,0l0,0
	c0-0.075,0-0.156,0-0.245s0-0.186,0-0.292c0-0.106,0-0.222,0-0.349s0-0.264,0-0.414V49v-1.6v-1.6v-1.6h0.225h0.225h0.225H37.2v2.475
	v2.475c0,0,0,1.237,0,2.475C37.2,52.862,37.2,54.1,37.2,54.1z"/>
<path d="M42.4,45.6h-0.425H41.55h-0.425H40.7v2.125v2.125v2.125V54.1h-0.25H40.2h-0.25H39.7v-2.125V49.85v-2.125V45.6h-0.425H38.85
	h-0.425H38v-0.35V44.9v-0.35V44.2h1.075h1.075h1.075H42.3v0.35v0.35v0.35v0.35h0.025h0.025h0.025H42.4z"/>
<path d="M47.4,54.1h-0.275H46.85h-0.275H46.3l-0.125-0.625L46.05,52.85l-0.125-0.625L45.8,51.6h-0.575H44.65h-0.575H43.5
	l-0.125,0.625L43.25,52.85l-0.125,0.625L43,54.1h-0.25H42.5h-0.25H42l0.55-2.475l0.55-2.475l0.55-2.475L44.2,44.2h0.275h0.275h0.275
	H45.3l0.525,2.475l0.525,2.475l0.525,2.475L47.4,54.1z M45.6,50.2l-0.2-0.975l-0.2-0.975L45,47.275L44.8,46.3
	c0-0.025,0-0.056-0.002-0.094c-0.002-0.037-0.005-0.081-0.011-0.131c-0.006-0.05-0.015-0.106-0.029-0.169S44.725,45.775,44.7,45.7
	l0,0l0,0l0,0l0,0c0,0.075-0.006,0.144-0.016,0.206c-0.009,0.062-0.022,0.119-0.034,0.169c-0.013,0.05-0.025,0.094-0.034,0.131
	C44.606,46.244,44.6,46.275,44.6,46.3l-0.2,0.975l-0.2,0.975L44,49.225L43.8,50.2h0.45h0.45h0.45H45.6z"/>
<path d="M53.1,54.1h-0.25H52.6h-0.25H52.1l-0.7-1.825l-0.7-1.825L50,48.625L49.3,46.8c-0.025-0.05-0.044-0.1-0.059-0.15
	c-0.016-0.05-0.028-0.1-0.041-0.15c-0.013-0.05-0.025-0.1-0.041-0.15c-0.016-0.05-0.034-0.1-0.059-0.15l0,0l0,0l0,0l0,0
	c0,0.05,0,0.119,0,0.205s0,0.189,0,0.308s0,0.253,0,0.402c0,0.148,0,0.311,0,0.486v1.625v1.625v1.625v1.625h-0.225H48.65h-0.225
	H48.2v-2.475v-2.475v-2.475V44.2h0.275h0.275h0.275H49.3l0.675,1.775l0.675,1.775l0.675,1.775L52,51.3
	c0.025,0.075,0.05,0.144,0.073,0.206c0.024,0.062,0.046,0.119,0.065,0.169c0.019,0.05,0.034,0.094,0.045,0.131
	c0.011,0.038,0.017,0.069,0.017,0.094l0,0l0,0l0,0l0,0c0-0.075,0-0.156,0-0.245s0-0.186,0-0.292c0-0.106,0-0.222,0-0.349
	s0-0.264,0-0.414V49v-1.6v-1.6v-1.6h0.225h0.225h0.225H53.1v2.475v2.475c0,0,0,1.237,0,2.475C53.1,52.862,53.1,54.1,53.1,54.1z"/>
<path d="M57.8,54.1H57h-0.8h-0.8h-0.8v-2.475V49.15v-2.475V44.2h0.775h0.775h0.775H57.7v0.35v0.35v0.35v0.35h-0.55H56.6h-0.55H55.5
	v0.7V47v0.7v0.7H56h0.5H57h0.5v0.35v0.35v0.35v0.35H57h-0.5H56h-0.5v0.725v0.725v0.725V52.7h0.575h0.575h0.575H57.8
	c0,0,0,0.088,0,0.219s0,0.306,0,0.481c0,0.175,0,0.35,0,0.481C57.8,54.012,57.8,54.1,57.8,54.1z"/>
<path d="M61.2,54.3c-0.2,0-0.394-0.031-0.58-0.092s-0.364-0.151-0.532-0.27c-0.169-0.119-0.329-0.266-0.477-0.439
	S59.325,53.125,59.2,52.9s-0.237-0.469-0.336-0.731c-0.098-0.263-0.183-0.544-0.251-0.844c-0.069-0.3-0.122-0.619-0.158-0.956
	C58.419,50.031,58.4,49.675,58.4,49.3c0-0.4,0.019-0.781,0.055-1.142c0.036-0.361,0.089-0.701,0.158-1.02
	c0.069-0.319,0.153-0.616,0.251-0.889c0.098-0.274,0.211-0.524,0.336-0.749s0.263-0.425,0.412-0.598
	c0.15-0.174,0.313-0.32,0.488-0.439c0.175-0.118,0.362-0.209,0.562-0.27S61.075,44.1,61.3,44.1c0.2,0,0.394,0.031,0.58,0.092
	s0.364,0.151,0.532,0.27s0.328,0.265,0.477,0.439c0.149,0.174,0.286,0.374,0.411,0.599s0.231,0.469,0.32,0.731
	c0.089,0.263,0.161,0.544,0.218,0.844c0.056,0.3,0.097,0.619,0.123,0.956C63.987,48.369,64,48.725,64,49.1
	c0,0.4-0.019,0.781-0.055,1.142c-0.036,0.361-0.089,0.701-0.158,1.02c-0.069,0.319-0.153,0.616-0.251,0.89
	c-0.098,0.274-0.211,0.524-0.336,0.749s-0.263,0.425-0.411,0.598s-0.308,0.32-0.477,0.439c-0.168,0.118-0.347,0.209-0.532,0.27
	S61.4,54.3,61.2,54.3z M61.2,45.5c-0.125,0-0.25,0.019-0.372,0.058c-0.122,0.039-0.241,0.098-0.353,0.179
	c-0.112,0.082-0.219,0.185-0.316,0.311S59.975,46.325,59.9,46.5s-0.144,0.362-0.205,0.562s-0.114,0.412-0.157,0.638
	c-0.044,0.225-0.078,0.463-0.102,0.713c-0.023,0.25-0.036,0.513-0.036,0.787s0.013,0.537,0.036,0.787
	c0.024,0.25,0.058,0.487,0.102,0.713c0.044,0.225,0.097,0.438,0.157,0.638c0.061,0.2,0.13,0.387,0.205,0.562
	s0.156,0.325,0.245,0.452s0.186,0.23,0.292,0.311c0.107,0.081,0.222,0.14,0.349,0.179C60.913,52.881,61.05,52.9,61.2,52.9
	s0.287-0.019,0.414-0.058c0.127-0.039,0.242-0.098,0.349-0.179c0.106-0.082,0.203-0.185,0.292-0.311s0.17-0.277,0.245-0.452
	c0.075-0.15,0.144-0.319,0.205-0.506s0.114-0.394,0.157-0.619c0.044-0.225,0.078-0.469,0.102-0.731C62.987,49.781,63,49.5,63,49.2
	s-0.013-0.581-0.036-0.844c-0.024-0.263-0.058-0.506-0.102-0.731c-0.043-0.225-0.096-0.431-0.157-0.619S62.575,46.65,62.5,46.5
	c-0.075-0.175-0.156-0.325-0.245-0.452s-0.186-0.23-0.292-0.311c-0.107-0.081-0.222-0.14-0.349-0.179
	C61.487,45.519,61.35,45.5,61.2,45.5z"/>
<path d="M69.5,50.1c0,0.7-0.05,1.312-0.148,1.838s-0.245,0.963-0.439,1.312s-0.435,0.612-0.721,0.787
	c-0.286,0.175-0.617,0.263-0.992,0.263s-0.7-0.081-0.977-0.245s-0.505-0.411-0.686-0.742s-0.315-0.747-0.404-1.249
	C65.044,51.563,65,50.975,65,50.3v-1.5v-1.5v-1.5v-1.5h0.25h0.25h0.25H66v1.425v1.425v1.425V50c0,0.475,0.025,0.894,0.076,1.255
	s0.129,0.664,0.235,0.908s0.241,0.428,0.405,0.552c0.164,0.123,0.358,0.185,0.583,0.185c0.2,0,0.381-0.056,0.541-0.17
	c0.159-0.114,0.297-0.286,0.409-0.518s0.2-0.522,0.259-0.873c0.059-0.351,0.091-0.764,0.091-1.239v-1.45V47.2v-1.45V44.3h0.25h0.25
	h0.25h0.25v1.45v1.45v1.45v1.45h-0.025H69.55h-0.025H69.5z"/>
<path d="M70.6,53.7v-0.425V52.85v-0.425V52c0.025,0.025,0.05,0.056,0.075,0.091c0.025,0.034,0.05,0.072,0.075,0.109
	s0.05,0.075,0.075,0.109c0.025,0.034,0.05,0.066,0.075,0.091s0.056,0.05,0.091,0.075c0.034,0.025,0.072,0.05,0.109,0.075
	s0.075,0.05,0.109,0.075c0.034,0.025,0.066,0.05,0.091,0.075s0.056,0.044,0.091,0.059c0.034,0.016,0.072,0.028,0.109,0.041
	c0.037,0.013,0.075,0.025,0.109,0.041c0.034,0.016,0.066,0.034,0.091,0.059c0.025,0,0.056,0.006,0.091,0.016
	c0.034,0.009,0.072,0.022,0.109,0.034s0.075,0.025,0.109,0.034C72.044,52.994,72.075,53,72.1,53c0.1,0,0.194-0.006,0.281-0.019
	s0.169-0.031,0.244-0.056s0.144-0.056,0.206-0.094C72.894,52.794,72.95,52.75,73,52.7s0.094-0.112,0.131-0.184
	c0.037-0.072,0.069-0.153,0.094-0.241s0.044-0.181,0.056-0.278C73.294,51.9,73.3,51.8,73.3,51.7c0-0.05,0-0.1-0.002-0.15
	c-0.001-0.05-0.004-0.1-0.01-0.15c-0.007-0.05-0.016-0.1-0.03-0.15c-0.014-0.05-0.033-0.1-0.058-0.15
	c-0.025-0.05-0.05-0.094-0.075-0.134c-0.025-0.041-0.05-0.078-0.075-0.116s-0.05-0.075-0.075-0.116
	c-0.025-0.041-0.05-0.084-0.075-0.134c-0.025-0.025-0.056-0.056-0.091-0.091c-0.034-0.034-0.072-0.072-0.109-0.109
	s-0.075-0.075-0.109-0.109c-0.034-0.034-0.066-0.066-0.091-0.091c-0.05-0.025-0.094-0.056-0.134-0.091
	c-0.041-0.034-0.078-0.072-0.116-0.109s-0.075-0.075-0.116-0.109C72.094,49.856,72.05,49.825,72,49.8
	c-0.05-0.05-0.1-0.1-0.148-0.148c-0.048-0.049-0.095-0.096-0.139-0.139c-0.044-0.044-0.085-0.084-0.121-0.12
	c-0.036-0.036-0.067-0.067-0.092-0.092c-0.05-0.05-0.094-0.1-0.133-0.15c-0.039-0.05-0.074-0.1-0.105-0.15
	c-0.031-0.05-0.059-0.1-0.086-0.15c-0.026-0.05-0.051-0.1-0.076-0.15s-0.05-0.106-0.075-0.167c-0.025-0.061-0.05-0.126-0.075-0.195
	c-0.025-0.069-0.05-0.141-0.075-0.215c-0.025-0.074-0.05-0.149-0.075-0.223s-0.044-0.15-0.058-0.226
	c-0.014-0.077-0.024-0.155-0.03-0.236c-0.006-0.082-0.009-0.166-0.011-0.255C70.7,47.094,70.7,47,70.7,46.9
	c0-0.125,0.006-0.244,0.017-0.356c0.011-0.112,0.026-0.219,0.045-0.319s0.04-0.194,0.064-0.281c0.024-0.087,0.049-0.169,0.074-0.244
	s0.056-0.15,0.092-0.223c0.036-0.074,0.077-0.146,0.121-0.215s0.091-0.134,0.139-0.195C71.3,45.006,71.35,44.95,71.4,44.9
	s0.1-0.1,0.151-0.148s0.104-0.096,0.16-0.139c0.056-0.043,0.115-0.084,0.179-0.12c0.064-0.036,0.133-0.067,0.208-0.092
	s0.144-0.05,0.209-0.074c0.066-0.023,0.128-0.045,0.191-0.064c0.062-0.019,0.125-0.034,0.191-0.045
	c0.066-0.011,0.134-0.017,0.209-0.017c0.15,0,0.288,0.006,0.414,0.02c0.127,0.014,0.242,0.036,0.348,0.067s0.203,0.072,0.293,0.123
	c0.09,0.052,0.171,0.115,0.246,0.189v0.35v0.35v0.35V46c-0.075-0.1-0.162-0.188-0.259-0.263c-0.097-0.075-0.203-0.138-0.316-0.188
	s-0.231-0.087-0.353-0.112C73.15,45.413,73.025,45.4,72.9,45.4c-0.025,0-0.056,0-0.091,0.002c-0.034,0.002-0.072,0.005-0.109,0.011
	s-0.075,0.016-0.109,0.03c-0.034,0.014-0.066,0.032-0.091,0.057c-0.025,0-0.056,0.006-0.091,0.017
	c-0.034,0.011-0.072,0.026-0.109,0.045s-0.075,0.041-0.109,0.064c-0.034,0.024-0.066,0.049-0.091,0.074s-0.05,0.05-0.075,0.076
	c-0.025,0.026-0.05,0.054-0.075,0.085c-0.025,0.031-0.05,0.066-0.075,0.105S71.825,46.05,71.8,46.1s-0.044,0.1-0.058,0.15
	c-0.014,0.05-0.024,0.1-0.03,0.15c-0.006,0.05-0.009,0.1-0.011,0.15S71.7,46.65,71.7,46.7s0,0.1,0.002,0.15
	c0.001,0.05,0.004,0.1,0.01,0.15c0.007,0.05,0.016,0.1,0.03,0.15c0.014,0.05,0.033,0.1,0.058,0.15s0.044,0.094,0.059,0.133
	c0.016,0.039,0.028,0.073,0.041,0.104s0.025,0.059,0.041,0.086C71.956,47.65,71.975,47.675,72,47.7s0.05,0.056,0.076,0.091
	c0.026,0.034,0.054,0.072,0.086,0.109c0.031,0.037,0.065,0.075,0.104,0.109c0.039,0.034,0.083,0.066,0.134,0.091
	s0.094,0.056,0.135,0.091c0.041,0.034,0.078,0.072,0.115,0.109s0.075,0.075,0.116,0.109c0.041,0.034,0.084,0.066,0.134,0.091
	c0.05,0.05,0.1,0.1,0.15,0.15c0.05,0.05,0.1,0.1,0.15,0.15c0.05,0.05,0.1,0.1,0.15,0.15c0.05,0.05,0.1,0.1,0.15,0.15
	s0.094,0.1,0.134,0.152c0.041,0.051,0.078,0.104,0.116,0.16s0.075,0.116,0.116,0.18C73.906,49.656,73.95,49.725,74,49.8
	c0.025,0.05,0.05,0.106,0.075,0.167c0.025,0.061,0.05,0.126,0.075,0.195c0.025,0.069,0.05,0.141,0.075,0.215
	c0.025,0.073,0.05,0.148,0.075,0.223s0.044,0.15,0.058,0.227c0.014,0.076,0.024,0.154,0.03,0.236
	c0.006,0.082,0.009,0.166,0.01,0.255C74.4,51.406,74.4,51.5,74.4,51.6c0,0.125-0.006,0.244-0.017,0.358
	c-0.011,0.114-0.026,0.224-0.045,0.33c-0.019,0.106-0.041,0.209-0.065,0.311C74.25,52.7,74.225,52.8,74.2,52.9
	c-0.025,0.075-0.056,0.15-0.092,0.223c-0.036,0.074-0.077,0.146-0.121,0.215c-0.044,0.069-0.09,0.134-0.139,0.195
	C73.8,53.594,73.75,53.65,73.7,53.7s-0.1,0.1-0.152,0.149s-0.104,0.095-0.16,0.139c-0.057,0.044-0.116,0.084-0.18,0.12
	S73.075,54.175,73,54.2s-0.144,0.044-0.209,0.058c-0.066,0.014-0.128,0.023-0.191,0.029c-0.062,0.007-0.125,0.01-0.191,0.011
	C72.344,54.3,72.275,54.3,72.2,54.3c-0.025,0-0.05,0-0.076,0s-0.054,0-0.086,0s-0.066,0-0.105,0s-0.083,0-0.133,0
	s-0.094-0.006-0.133-0.016c-0.039-0.009-0.074-0.022-0.105-0.034s-0.059-0.025-0.086-0.034C71.45,54.206,71.425,54.2,71.4,54.2
	s-0.056-0.006-0.091-0.017c-0.034-0.011-0.072-0.026-0.109-0.045c-0.037-0.019-0.075-0.041-0.109-0.065
	C71.056,54.05,71.025,54.025,71,54s-0.056-0.05-0.091-0.075c-0.034-0.025-0.072-0.05-0.109-0.075s-0.075-0.05-0.109-0.075
	S70.625,53.725,70.6,53.7z"/>
<path d="M78.6,54.1h-0.8H77h-0.8h-0.8v-2.475V49.15v-2.475V44.2h0.25h0.25h0.25h0.25v2.125v2.125v2.125V52.7h0.55h0.55h0.55h0.55
	v0.35v0.35v0.35V54.1z"/>
<path d="M82.9,44.2l-0.475,1.575L81.95,47.35l-0.475,1.575L81,50.5v0.9v0.9v0.9v0.9h-0.25H80.5h-0.25H80v-0.9v-0.9v-0.9v-0.9
	l-0.45-1.575L79.1,47.35l-0.45-1.575L78.2,44.2h0.275h0.275h0.275H79.3l0.275,1.05l0.275,1.05l0.275,1.05L80.4,48.4
	c0,0.025,0.006,0.05,0.016,0.08c0.009,0.03,0.022,0.064,0.034,0.108c0.012,0.044,0.025,0.097,0.034,0.164
	C80.494,48.819,80.5,48.9,80.5,49l0,0l0,0l0,0l0,0c0-0.025,0.006-0.056,0.016-0.094s0.022-0.081,0.034-0.131
	s0.025-0.106,0.034-0.169S80.6,48.475,80.6,48.4l0.3-1.05l0.3-1.05l0.3-1.05l0.3-1.05h0.275h0.275c0,0,0.137,0,0.275,0
	C82.763,44.2,82.9,44.2,82.9,44.2z"/>
<path d="M25.1,69.1c-0.125,0.125-0.25,0.237-0.378,0.336c-0.128,0.099-0.259,0.183-0.397,0.252
	c-0.138,0.069-0.281,0.121-0.434,0.157C23.737,69.881,23.575,69.9,23.4,69.9c-0.225,0-0.438-0.037-0.638-0.113
	c-0.2-0.075-0.387-0.187-0.562-0.337s-0.337-0.338-0.487-0.562S21.425,68.4,21.3,68.1s-0.237-0.625-0.336-0.975
	S20.781,66.4,20.713,66s-0.122-0.825-0.158-1.275C20.519,64.275,20.5,63.8,20.5,63.3c0-0.525,0.019-1.025,0.056-1.501
	s0.094-0.93,0.169-1.361s0.169-0.84,0.281-1.23c0.112-0.389,0.244-0.758,0.394-1.108c0.15-0.325,0.306-0.613,0.472-0.861
	s0.341-0.458,0.528-0.626c0.188-0.169,0.387-0.297,0.603-0.383c0.216-0.086,0.447-0.13,0.697-0.13c0.15,0,0.294,0.013,0.431,0.036
	c0.138,0.024,0.269,0.058,0.394,0.102c0.125,0.044,0.244,0.097,0.356,0.157c0.112,0.061,0.219,0.13,0.319,0.205v0.55v0.55v0.55v0.55
	c-0.1-0.125-0.206-0.237-0.317-0.336c-0.111-0.098-0.227-0.183-0.346-0.251c-0.119-0.069-0.24-0.122-0.364-0.158S23.925,58,23.8,58
	c-0.175,0-0.337,0.031-0.489,0.092c-0.152,0.061-0.292,0.151-0.424,0.27c-0.131,0.119-0.253,0.266-0.367,0.439
	S22.3,59.175,22.2,59.4s-0.188,0.475-0.263,0.747c-0.075,0.272-0.138,0.566-0.188,0.878s-0.087,0.644-0.112,0.991
	C21.612,62.362,21.6,62.725,21.6,63.1s0.012,0.725,0.038,1.053c0.025,0.328,0.062,0.634,0.112,0.922
	c0.05,0.288,0.112,0.556,0.188,0.809c0.075,0.253,0.163,0.491,0.263,0.716s0.206,0.419,0.319,0.583
	c0.112,0.164,0.231,0.299,0.356,0.405s0.256,0.185,0.394,0.236C23.406,67.875,23.55,67.9,23.7,67.9s0.294-0.019,0.431-0.056
	c0.137-0.037,0.269-0.094,0.394-0.169s0.244-0.169,0.356-0.281C24.994,67.281,25.1,67.15,25.2,67v0.525v0.525v0.525V69.1h-0.025
	H25.15c0,0-0.013,0-0.025,0C25.113,69.1,25.1,69.1,25.1,69.1z"/>
<path style="fill:#FFFFFF;" d="M23.4,70c-0.225,0-0.444-0.037-0.653-0.114c-0.209-0.077-0.409-0.192-0.597-0.349
	s-0.363-0.353-0.522-0.592c-0.159-0.239-0.303-0.52-0.428-0.846c-0.125-0.3-0.238-0.631-0.336-0.989
	c-0.098-0.358-0.183-0.742-0.251-1.148s-0.122-0.834-0.158-1.279S20.4,63.775,20.4,63.3c0-0.525,0.019-1.031,0.056-1.516
	c0.038-0.484,0.094-0.947,0.169-1.384s0.169-0.85,0.281-1.234c0.112-0.384,0.244-0.741,0.394-1.066
	c0.15-0.35,0.312-0.65,0.487-0.903s0.362-0.459,0.562-0.622s0.413-0.281,0.638-0.359C23.212,56.137,23.45,56.1,23.7,56.1
	c0.15,0,0.294,0.013,0.431,0.037c0.138,0.025,0.269,0.062,0.394,0.113c0.125,0.05,0.244,0.112,0.356,0.188
	C24.994,56.513,25.1,56.6,25.2,56.7l0,0l0,0l0,0l0,0v0.65V58v0.65v0.65l-0.05-0.1l-0.05-0.1L25.05,59L25,58.9
	c-0.1-0.125-0.2-0.231-0.302-0.32c-0.101-0.089-0.205-0.161-0.31-0.217c-0.107-0.056-0.216-0.097-0.33-0.124
	C23.944,58.213,23.825,58.2,23.7,58.2c-0.15,0-0.294,0.025-0.431,0.076c-0.138,0.051-0.269,0.129-0.394,0.236
	c-0.125,0.106-0.244,0.241-0.356,0.405C22.406,59.081,22.3,59.275,22.2,59.5c-0.1,0.225-0.188,0.469-0.263,0.731
	s-0.138,0.544-0.188,0.844s-0.087,0.619-0.112,0.956C21.612,62.369,21.6,62.725,21.6,63.1c0,0.35,0.012,0.688,0.038,1.011
	c0.025,0.324,0.062,0.633,0.112,0.927s0.112,0.572,0.188,0.833S22.1,66.375,22.2,66.6c0.1,0.2,0.2,0.375,0.303,0.525
	c0.103,0.15,0.209,0.275,0.322,0.375c0.112,0.1,0.231,0.175,0.359,0.225c0.128,0.05,0.266,0.075,0.416,0.075
	c0.125,0,0.25-0.019,0.373-0.055s0.245-0.089,0.364-0.158c0.119-0.069,0.235-0.153,0.346-0.251S24.9,67.125,25,67l0.05-0.075
	l0.05-0.075l0.05-0.075L25.2,66.7v0.625v0.625v0.625V69.2l0,0l0,0l0,0l0,0c-0.125,0.125-0.256,0.238-0.394,0.336
	c-0.138,0.098-0.281,0.183-0.431,0.252c-0.15,0.069-0.306,0.122-0.469,0.157S23.575,70,23.4,70z M23.6,56.2
	c-0.225,0-0.438,0.038-0.638,0.114c-0.2,0.076-0.387,0.192-0.562,0.348s-0.337,0.353-0.487,0.592
	c-0.15,0.239-0.288,0.521-0.413,0.846c-0.15,0.325-0.281,0.675-0.394,1.05s-0.206,0.775-0.281,1.2s-0.131,0.875-0.169,1.35
	c-0.037,0.475-0.056,0.975-0.056,1.5c0,0.5,0.019,0.975,0.055,1.423c0.036,0.448,0.089,0.87,0.157,1.264
	c0.069,0.394,0.153,0.76,0.252,1.096c0.099,0.336,0.211,0.642,0.336,0.917c0.125,0.3,0.262,0.562,0.411,0.787
	c0.149,0.225,0.308,0.413,0.477,0.562s0.347,0.262,0.533,0.337C23.007,69.662,23.2,69.7,23.4,69.7c0.15,0,0.294-0.012,0.433-0.039
	c0.139-0.027,0.273-0.067,0.404-0.123c0.132-0.056,0.26-0.128,0.386-0.218S24.875,69.125,25,69v-0.4v-0.4v-0.4v-0.4
	c-0.1,0.1-0.206,0.194-0.317,0.278c-0.111,0.084-0.227,0.159-0.346,0.222c-0.118,0.062-0.24,0.113-0.364,0.147
	S23.725,68.1,23.6,68.1c-0.175,0-0.337-0.031-0.489-0.092c-0.152-0.061-0.292-0.152-0.424-0.271
	c-0.131-0.118-0.253-0.265-0.367-0.439C22.206,67.125,22.1,66.925,22,66.7s-0.188-0.469-0.263-0.731
	c-0.075-0.263-0.138-0.544-0.188-0.844s-0.087-0.619-0.112-0.956C21.412,63.831,21.4,63.475,21.4,63.1
	c0-0.4,0.012-0.775,0.038-1.126c0.025-0.352,0.062-0.68,0.112-0.986s0.112-0.59,0.188-0.855C21.812,59.869,21.9,59.625,22,59.4
	c0.1-0.25,0.213-0.469,0.336-0.656s0.258-0.344,0.401-0.469c0.144-0.125,0.297-0.219,0.458-0.281
	c0.161-0.062,0.33-0.094,0.505-0.094c0.1,0,0.206,0.013,0.314,0.037c0.108,0.025,0.217,0.063,0.324,0.113
	c0.106,0.05,0.209,0.112,0.304,0.188c0.095,0.075,0.183,0.163,0.258,0.263v-0.45V57.6v-0.45V56.7
	c-0.075-0.075-0.156-0.144-0.245-0.205c-0.089-0.061-0.186-0.114-0.293-0.158s-0.222-0.078-0.348-0.101S23.75,56.2,23.6,56.2z"/>
<path d="M28.6,69.9c-0.225,0-0.438-0.037-0.638-0.114c-0.2-0.077-0.387-0.192-0.562-0.349s-0.337-0.353-0.487-0.592
	S26.625,68.325,26.5,68c-0.125-0.3-0.237-0.631-0.336-0.991s-0.183-0.747-0.251-1.159c-0.069-0.412-0.122-0.85-0.158-1.309
	C25.719,64.081,25.7,63.6,25.7,63.1c0-0.525,0.019-1.025,0.055-1.5s0.089-0.925,0.157-1.35s0.153-0.825,0.252-1.2
	c0.099-0.375,0.211-0.725,0.336-1.05s0.269-0.606,0.428-0.845s0.334-0.436,0.522-0.593s0.388-0.272,0.597-0.349
	c0.209-0.077,0.428-0.114,0.653-0.114c0.2,0,0.394,0.037,0.581,0.114s0.369,0.192,0.544,0.349s0.344,0.354,0.506,0.593
	c0.162,0.239,0.319,0.52,0.469,0.845c0.125,0.3,0.237,0.631,0.336,0.991s0.183,0.747,0.251,1.159s0.122,0.85,0.158,1.309
	C31.581,61.919,31.6,62.4,31.6,62.9c0,0.55-0.019,1.069-0.055,1.558c-0.036,0.489-0.089,0.949-0.157,1.38
	c-0.069,0.431-0.153,0.834-0.252,1.21c-0.099,0.376-0.211,0.726-0.336,1.051c-0.15,0.275-0.306,0.525-0.47,0.745
	c-0.164,0.22-0.336,0.411-0.518,0.567c-0.181,0.157-0.371,0.279-0.573,0.361C29.038,69.856,28.825,69.9,28.6,69.9z M28.7,58
	c-0.15,0-0.287,0.031-0.416,0.092c-0.128,0.061-0.247,0.151-0.359,0.27s-0.219,0.265-0.322,0.439C27.5,58.975,27.4,59.175,27.3,59.4
	s-0.181,0.469-0.247,0.731s-0.116,0.544-0.153,0.844s-0.062,0.619-0.078,0.956S26.8,62.625,26.8,63s0.013,0.731,0.036,1.069
	c0.024,0.337,0.058,0.656,0.102,0.956s0.097,0.581,0.158,0.844c0.061,0.262,0.129,0.506,0.204,0.731s0.163,0.425,0.259,0.598
	c0.097,0.173,0.203,0.32,0.316,0.439c0.112,0.119,0.231,0.21,0.353,0.271C28.35,67.969,28.475,68,28.6,68
	c0.15,0,0.288-0.025,0.416-0.076s0.247-0.129,0.359-0.235c0.112-0.107,0.219-0.241,0.322-0.405S29.9,66.925,30,66.7
	c0.075-0.225,0.144-0.469,0.205-0.731s0.114-0.544,0.157-0.844c0.044-0.3,0.078-0.619,0.102-0.956
	c0.024-0.337,0.036-0.694,0.036-1.069c0-0.4-0.013-0.775-0.036-1.126c-0.024-0.352-0.058-0.68-0.102-0.986
	c-0.043-0.306-0.097-0.591-0.157-0.855c-0.061-0.264-0.13-0.508-0.205-0.733s-0.156-0.425-0.245-0.598s-0.186-0.32-0.293-0.439
	s-0.222-0.209-0.348-0.27C28.987,58.032,28.85,58,28.7,58z"/>
<path style="fill:#FFFFFF;" d="M28.6,70c-0.225,0-0.444-0.044-0.653-0.128c-0.209-0.084-0.409-0.209-0.597-0.372
	s-0.363-0.363-0.522-0.597S26.525,68.4,26.4,68.1c-0.125-0.325-0.238-0.669-0.336-1.033c-0.098-0.364-0.183-0.749-0.251-1.155
	s-0.122-0.835-0.158-1.286C25.619,64.175,25.6,63.7,25.6,63.2c0-0.525,0.019-1.031,0.055-1.516c0.036-0.484,0.089-0.947,0.157-1.384
	s0.153-0.85,0.252-1.234c0.099-0.384,0.211-0.741,0.336-1.066c0.15-0.325,0.306-0.613,0.472-0.861s0.341-0.458,0.528-0.626
	s0.388-0.297,0.603-0.383C28.219,56.044,28.45,56,28.7,56c0.225,0,0.438,0.044,0.639,0.128c0.201,0.084,0.392,0.209,0.573,0.372
	c0.182,0.162,0.354,0.362,0.518,0.597c0.164,0.234,0.32,0.503,0.47,0.803c0.125,0.3,0.237,0.631,0.336,0.991
	s0.183,0.747,0.251,1.159s0.122,0.85,0.158,1.309C31.681,61.819,31.7,62.3,31.7,62.8c0,0.55-0.019,1.069-0.055,1.558
	c-0.036,0.489-0.089,0.948-0.157,1.379c-0.069,0.432-0.154,0.835-0.252,1.211S31.025,67.675,30.9,68
	c-0.15,0.325-0.306,0.613-0.472,0.861s-0.341,0.458-0.528,0.627c-0.188,0.168-0.387,0.297-0.603,0.382S28.85,70,28.6,70z M28.7,56.2
	c-0.225,0-0.438,0.038-0.638,0.112c-0.2,0.075-0.388,0.188-0.562,0.338s-0.337,0.338-0.487,0.562C26.862,57.438,26.725,57.7,26.6,58
	c-0.125,0.325-0.238,0.675-0.336,1.05c-0.098,0.375-0.183,0.775-0.251,1.2s-0.122,0.875-0.158,1.35S25.8,62.575,25.8,63.1
	c0,0.5,0.019,0.975,0.055,1.425c0.036,0.45,0.089,0.875,0.157,1.275c0.069,0.4,0.153,0.775,0.252,1.125
	c0.098,0.35,0.21,0.675,0.335,0.975s0.263,0.562,0.411,0.787c0.149,0.225,0.308,0.412,0.477,0.562s0.347,0.262,0.533,0.338
	c0.186,0.075,0.38,0.113,0.58,0.113s0.394-0.037,0.58-0.113c0.186-0.075,0.364-0.188,0.532-0.337
	c0.169-0.15,0.328-0.338,0.477-0.562S30.475,68.2,30.6,67.9s0.238-0.637,0.336-1.008c0.098-0.37,0.183-0.774,0.251-1.205
	c0.069-0.431,0.122-0.89,0.158-1.373c0.036-0.483,0.055-0.989,0.055-1.514c0-0.5-0.019-0.975-0.055-1.425
	c-0.036-0.45-0.089-0.875-0.157-1.275s-0.153-0.775-0.252-1.125S30.725,58.3,30.6,58c-0.1-0.3-0.219-0.562-0.353-0.787
	c-0.134-0.225-0.284-0.412-0.447-0.562s-0.337-0.263-0.522-0.338S28.9,56.2,28.7,56.2z M28.6,68.1c-0.15,0-0.294-0.031-0.43-0.092
	c-0.136-0.061-0.264-0.152-0.382-0.271c-0.119-0.118-0.229-0.265-0.327-0.439c-0.099-0.173-0.186-0.373-0.261-0.598
	s-0.144-0.469-0.205-0.731c-0.061-0.263-0.114-0.544-0.157-0.844c-0.044-0.3-0.079-0.619-0.102-0.956
	C26.713,63.831,26.7,63.475,26.7,63.1s0.013-0.731,0.036-1.069c0.024-0.338,0.058-0.656,0.102-0.956
	c0.043-0.3,0.097-0.581,0.157-0.844s0.13-0.506,0.205-0.731c0.1-0.25,0.206-0.462,0.319-0.641c0.112-0.178,0.231-0.322,0.356-0.434
	s0.256-0.194,0.394-0.247C28.406,58.125,28.55,58.1,28.7,58.1s0.294,0.031,0.431,0.092c0.137,0.061,0.269,0.151,0.394,0.27
	s0.244,0.265,0.356,0.439c0.113,0.174,0.219,0.374,0.319,0.599c0.075,0.225,0.144,0.469,0.205,0.733s0.114,0.549,0.157,0.855
	c0.044,0.306,0.078,0.634,0.102,0.986S30.7,62.8,30.7,63.2s-0.013,0.775-0.036,1.126c-0.024,0.352-0.058,0.679-0.102,0.986
	c-0.043,0.306-0.097,0.591-0.157,0.855c-0.061,0.264-0.13,0.508-0.205,0.733c-0.1,0.175-0.206,0.338-0.32,0.483
	c-0.114,0.145-0.236,0.273-0.368,0.379c-0.131,0.106-0.271,0.191-0.423,0.249C28.938,68.069,28.775,68.1,28.6,68.1z M28.7,58.2
	c-0.125,0-0.244,0.025-0.356,0.076c-0.112,0.051-0.219,0.129-0.319,0.236c-0.1,0.106-0.194,0.241-0.281,0.405
	c-0.087,0.164-0.169,0.357-0.244,0.582c-0.075,0.225-0.144,0.469-0.205,0.73s-0.114,0.539-0.157,0.832
	c-0.044,0.294-0.079,0.604-0.102,0.928C27.013,62.312,27,62.65,27,63c0,0.375,0.013,0.725,0.036,1.053
	c0.024,0.328,0.058,0.634,0.102,0.922c0.043,0.287,0.097,0.556,0.157,0.809s0.13,0.491,0.205,0.716
	c0.075,0.2,0.156,0.381,0.244,0.541c0.087,0.159,0.181,0.297,0.281,0.409s0.206,0.2,0.319,0.259
	c0.112,0.059,0.231,0.091,0.356,0.091s0.244-0.025,0.358-0.075c0.114-0.05,0.224-0.125,0.33-0.225
	c0.106-0.1,0.209-0.225,0.311-0.375S29.9,66.8,30,66.6c0.075-0.2,0.144-0.425,0.205-0.675s0.114-0.525,0.157-0.825
	c0.044-0.3,0.079-0.625,0.102-0.975C30.487,63.775,30.5,63.4,30.5,63s-0.013-0.775-0.036-1.125c-0.024-0.35-0.058-0.675-0.102-0.975
	c-0.043-0.3-0.097-0.575-0.157-0.825S30.075,59.6,30,59.4c-0.1-0.2-0.2-0.375-0.302-0.525s-0.205-0.275-0.31-0.375
	s-0.215-0.175-0.33-0.225C28.944,58.225,28.825,58.2,28.7,58.2z"/>
<path d="M39.2,69.6h-0.25H38.7h-0.25H38.2v-2.15V65.3v-2.15V61c0-0.175,0-0.362,0.002-0.561c0.002-0.198,0.005-0.408,0.011-0.627
	c0.006-0.219,0.015-0.446,0.029-0.682s0.033-0.48,0.058-0.73l0,0l0,0l0,0l0,0c-0.025,0.15-0.044,0.287-0.059,0.414
	s-0.028,0.242-0.041,0.349c-0.013,0.106-0.025,0.203-0.041,0.292c-0.016,0.089-0.034,0.17-0.059,0.245l-0.45,2.5l-0.45,2.5
	l-0.45,2.5l-0.45,2.5h-0.175H35.95h-0.175H35.6l-0.45-2.475L34.7,64.75l-0.45-2.475L33.8,59.8c-0.025-0.075-0.044-0.156-0.059-0.245
	s-0.028-0.186-0.041-0.292c-0.013-0.106-0.025-0.222-0.041-0.349S33.625,58.65,33.6,58.5l0,0l0,0l0,0l0,0c0,0.125,0,0.275,0,0.448
	c0,0.174,0,0.371,0,0.59s0,0.459,0,0.72s0,0.542,0,0.842v2.15v2.15v2.15v2.15h-0.225H33.15h-0.225H32.7v-3.35V63v-3.35V56.3h0.35
	h0.35h0.35h0.35l0.4,2.225l0.4,2.225l0.4,2.225l0.4,2.225c0.025,0.175,0.05,0.338,0.073,0.488c0.024,0.15,0.046,0.287,0.065,0.412
	c0.018,0.125,0.034,0.237,0.045,0.338c0.011,0.1,0.017,0.188,0.017,0.262l0,0l0,0l0,0l0,0c0.025-0.175,0.05-0.338,0.075-0.489
	c0.025-0.152,0.05-0.292,0.075-0.423s0.05-0.253,0.075-0.367c0.025-0.114,0.05-0.221,0.075-0.321l0.4-2.2l0.4-2.2l0.4-2.2l0.4-2.2
	h0.35h0.35h0.35h0.35c0,0,0,0.831,0,2.078s0,2.909,0,4.572c0,1.663,0,3.325,0,4.572S39.2,69.6,39.2,69.6z"/>
<path style="fill:#FFFFFF;" d="M39.3,69.8H39h-0.3h-0.3h-0.3v-2.2v-2.2v-2.2V61c0-0.05,0-0.1,0-0.15c0-0.05,0-0.1,0-0.15
	s0-0.1,0-0.15c0-0.05,0-0.1,0-0.15l-0.425,2.35L37.25,65.1l-0.425,2.35L36.4,69.8h-0.225H35.95h-0.225H35.5v-0.025V69.75v-0.025
	V69.7l-0.425-2.325L34.65,65.05l-0.425-2.325L33.8,60.4c0,0.05,0,0.1,0,0.152c0,0.051,0,0.104,0,0.16s0,0.115,0,0.179
	s0,0.133,0,0.209v2.175v2.175v2.175V69.8h-0.3h-0.3h-0.3h-0.3v-3.4V63v-3.4v-3.4H33h0.4h0.4h0.4l0.4,2.25L35,60.7l0.4,2.25l0.4,2.25
	c0,0.075,0.006,0.144,0.016,0.209c0.009,0.066,0.022,0.128,0.034,0.191s0.025,0.125,0.034,0.191C35.894,65.856,35.9,65.925,35.9,66
	c0.025-0.075,0.044-0.15,0.058-0.224s0.023-0.146,0.029-0.215c0.007-0.068,0.01-0.134,0.011-0.195S36,65.25,36,65.2l0.4-2.225
	l0.4-2.225l0.4-2.225l0.4-2.225H38h0.4h0.4h0.4v3.375v3.375v3.375V69.8h0.025h0.025c0,0,0.013,0,0.025,0S39.3,69.8,39.3,69.8z
	 M38.3,69.5h0.175h0.175h0.175H39v-3.25V63v-3.25V56.5h-0.275H38.45h-0.275H37.9l-0.4,2.175l-0.4,2.175l-0.4,2.175L36.3,65.2
	c-0.025,0.075-0.05,0.169-0.075,0.278c-0.025,0.109-0.05,0.234-0.075,0.372s-0.05,0.287-0.075,0.447
	C36.05,66.456,36.025,66.625,36,66.8v0.025v0.025v0.025V66.9h-0.05H35.9h-0.05H35.8v-0.025V66.85v-0.025V66.8
	c0-0.075-0.006-0.162-0.017-0.262c-0.011-0.1-0.026-0.213-0.045-0.338s-0.041-0.263-0.064-0.412
	c-0.024-0.15-0.049-0.312-0.074-0.488l-0.4-2.2l-0.4-2.2l-0.4-2.2L34,56.5h-0.3h-0.3h-0.3h-0.3v3.275v3.275v3.275V69.6h0.175h0.175
	h0.175H33.5v-2.15V65.3v-2.15V61c0-0.3,0-0.581,0-0.842s0-0.501,0-0.72s0-0.415,0-0.589s0-0.323,0-0.448v-0.025v-0.025v-0.026V58.3
	h0.05h0.05h0.05h0.05v0.025v0.025v0.025V58.4c0.025,0.15,0.044,0.287,0.059,0.414s0.028,0.242,0.041,0.349
	c0.013,0.106,0.025,0.203,0.041,0.292s0.034,0.17,0.059,0.245l0.45,2.45l0.45,2.45l0.45,2.45l0.45,2.45h0.125h0.125h0.125H36.2
	l0.45-2.45l0.45-2.45l0.45-2.45L38,59.7c0-0.075,0.006-0.156,0.017-0.244s0.026-0.181,0.045-0.281s0.041-0.206,0.064-0.319
	s0.049-0.231,0.074-0.356v-0.025V58.45v-0.025V58.4h0.05h0.05h0.05h0.05v0.025v0.025v0.025V58.5c0,0.25-0.006,0.494-0.016,0.73
	c-0.009,0.236-0.022,0.464-0.034,0.682s-0.025,0.428-0.034,0.627C38.306,60.737,38.3,60.925,38.3,61.1c0,0,0,0.525,0,1.312
	s0,1.838,0,2.887c0,1.05,0,2.1,0,2.888S38.3,69.5,38.3,69.5z"/>
<path d="M40.7,69.6v-3.325V62.95v-3.325V56.3h0.475h0.475h0.475H42.6c0.15,0,0.287,0.019,0.416,0.055
	c0.128,0.036,0.247,0.089,0.359,0.157c0.112,0.069,0.219,0.153,0.322,0.252C43.8,56.862,43.9,56.975,44,57.1
	c0.075,0.15,0.144,0.306,0.205,0.47c0.061,0.164,0.114,0.336,0.157,0.517s0.078,0.372,0.102,0.574
	c0.024,0.202,0.036,0.414,0.036,0.639c0,0.2-0.006,0.388-0.019,0.566c-0.013,0.178-0.031,0.347-0.056,0.509
	s-0.056,0.319-0.094,0.472C44.294,61,44.25,61.15,44.2,61.3s-0.106,0.287-0.167,0.412s-0.126,0.237-0.195,0.338
	s-0.14,0.188-0.214,0.263C43.55,62.388,43.475,62.45,43.4,62.5l0,0l0,0l0,0l0,0c0.1,0.025,0.2,0.062,0.297,0.114
	c0.097,0.052,0.191,0.117,0.278,0.198s0.169,0.178,0.241,0.292S44.35,63.35,44.4,63.5s0.1,0.306,0.147,0.47s0.091,0.336,0.128,0.518
	c0.037,0.181,0.069,0.371,0.091,0.573S44.8,65.475,44.8,65.7c0,0.275-0.013,0.544-0.037,0.803c-0.025,0.259-0.063,0.509-0.113,0.747
	s-0.112,0.463-0.188,0.672S44.3,68.325,44.2,68.5s-0.206,0.331-0.319,0.467c-0.113,0.136-0.231,0.251-0.356,0.345
	s-0.256,0.165-0.394,0.214C42.994,69.575,42.85,69.6,42.7,69.6h-0.5h-0.5h-0.5H40.7z M41.7,58.1v0.95V60v0.95v0.95h0.175h0.175
	h0.175H42.4c0.075,0,0.15-0.013,0.223-0.036c0.074-0.024,0.146-0.058,0.215-0.102c0.069-0.044,0.134-0.097,0.195-0.157
	s0.117-0.13,0.167-0.205c0.05-0.1,0.094-0.206,0.131-0.319c0.038-0.113,0.069-0.231,0.094-0.356s0.044-0.256,0.056-0.394
	C43.494,60.194,43.5,60.05,43.5,59.9c0-0.275-0.019-0.519-0.058-0.73c-0.039-0.211-0.098-0.389-0.179-0.533
	c-0.082-0.144-0.185-0.253-0.311-0.326S42.675,58.2,42.5,58.2h-0.2h-0.2h-0.2h-0.2v-0.025V58.15c0,0,0-0.013,0-0.025
	S41.7,58.1,41.7,58.1z M41.7,63.7v1.05v1.05v1.05v1.05h0.225h0.225h0.225H42.6c0.1,0,0.194-0.013,0.281-0.037
	c0.088-0.025,0.169-0.062,0.244-0.113s0.144-0.113,0.206-0.188S43.45,67.4,43.5,67.3s0.094-0.206,0.131-0.32
	c0.038-0.114,0.069-0.236,0.094-0.368s0.044-0.272,0.056-0.423c0.013-0.151,0.019-0.314,0.019-0.489c0-0.35-0.025-0.656-0.076-0.919
	c-0.051-0.262-0.129-0.481-0.236-0.656c-0.106-0.175-0.241-0.306-0.405-0.394C42.919,63.644,42.725,63.6,42.5,63.6h-0.2h-0.2h-0.2
	h-0.2v0.025v0.025c0,0,0,0.013,0,0.025S41.7,63.7,41.7,63.7z"/>
<path style="fill:#FFFFFF;" d="M42.6,69.8h-0.525H41.55h-0.525H40.5v-3.4V63v-3.4v-3.4H41h0.5H42h0.5
	c0.15,0,0.294,0.019,0.431,0.056c0.137,0.037,0.269,0.094,0.394,0.169s0.244,0.169,0.356,0.281C43.794,56.819,43.9,56.95,44,57.1
	s0.181,0.306,0.247,0.472c0.066,0.166,0.116,0.341,0.153,0.528s0.062,0.388,0.078,0.603C44.494,58.919,44.5,59.15,44.5,59.4
	c0,0.2-0.006,0.388-0.019,0.566c-0.013,0.178-0.031,0.347-0.056,0.509s-0.056,0.319-0.094,0.472C44.294,61.1,44.25,61.25,44.2,61.4
	c-0.05,0.125-0.1,0.244-0.152,0.355c-0.051,0.111-0.104,0.214-0.16,0.307s-0.116,0.178-0.18,0.252
	c-0.064,0.074-0.133,0.136-0.208,0.186c0.1,0.05,0.194,0.106,0.281,0.17s0.169,0.136,0.244,0.218
	c0.075,0.081,0.144,0.172,0.206,0.273c0.062,0.102,0.119,0.214,0.169,0.339c0.075,0.15,0.138,0.312,0.189,0.486
	c0.052,0.173,0.092,0.358,0.123,0.551c0.031,0.194,0.054,0.397,0.068,0.608c0.014,0.211,0.02,0.43,0.02,0.655
	c0,0.3-0.013,0.581-0.037,0.845c-0.025,0.264-0.063,0.511-0.113,0.743s-0.112,0.447-0.188,0.648S44.3,68.425,44.2,68.601
	c-0.1,0.2-0.206,0.375-0.32,0.525c-0.114,0.15-0.236,0.275-0.368,0.375c-0.131,0.099-0.271,0.174-0.423,0.224
	C42.938,69.775,42.775,69.8,42.6,69.8z M40.8,69.5h0.45h0.45h0.45h0.45c0.15,0,0.287-0.019,0.416-0.058
	c0.128-0.039,0.247-0.099,0.359-0.18c0.112-0.081,0.219-0.184,0.322-0.311C43.8,68.825,43.9,68.675,44,68.5s0.188-0.363,0.263-0.562
	S44.4,67.525,44.45,67.3s0.087-0.462,0.112-0.712S44.6,66.075,44.6,65.8c0-0.225-0.006-0.438-0.02-0.639
	c-0.014-0.202-0.036-0.392-0.068-0.574c-0.031-0.181-0.072-0.353-0.123-0.517s-0.114-0.32-0.189-0.47
	c-0.05-0.125-0.106-0.244-0.169-0.352c-0.062-0.108-0.131-0.205-0.206-0.286s-0.156-0.147-0.244-0.192
	C43.494,62.725,43.4,62.7,43.3,62.7h-0.025H43.25h-0.025H43.2v-0.05V62.6v-0.05V62.5h0.025h0.025h0.025H43.3
	c0.075-0.05,0.15-0.112,0.223-0.186c0.074-0.073,0.146-0.158,0.215-0.252c0.069-0.094,0.134-0.197,0.195-0.307
	s0.117-0.23,0.167-0.355s0.094-0.263,0.131-0.409c0.037-0.147,0.069-0.303,0.094-0.466s0.044-0.331,0.056-0.503
	S44.4,59.675,44.4,59.5c0-0.225-0.013-0.438-0.036-0.638c-0.024-0.2-0.058-0.388-0.102-0.562c-0.044-0.175-0.097-0.337-0.157-0.487
	s-0.13-0.288-0.205-0.413s-0.156-0.237-0.245-0.336c-0.089-0.098-0.186-0.183-0.292-0.252c-0.107-0.068-0.222-0.121-0.349-0.157
	C42.888,56.619,42.75,56.6,42.6,56.6h-0.45H41.7h-0.45H40.8c0,0,0,0.806,0,2.016s0,2.822,0,4.434s0,3.225,0,4.434
	S40.8,69.5,40.8,69.5z M42.5,68h-0.25H42h-0.25H41.5v-1.125V65.75v-1.125V63.5h0.225h0.225h0.225H42.4
	c0.225,0,0.425,0.044,0.598,0.133c0.174,0.089,0.32,0.223,0.439,0.404c0.118,0.182,0.209,0.41,0.27,0.686S43.8,65.325,43.8,65.7
	c0,0.175-0.006,0.338-0.019,0.489c-0.013,0.152-0.031,0.292-0.056,0.423c-0.025,0.132-0.056,0.254-0.094,0.368
	c-0.037,0.114-0.081,0.22-0.131,0.32c-0.05,0.125-0.106,0.231-0.17,0.32s-0.136,0.161-0.218,0.218
	c-0.081,0.056-0.172,0.096-0.273,0.123C42.737,67.988,42.625,68,42.5,68z M41.8,67.7h0.175h0.175h0.175H42.5
	c0.075,0,0.15-0.012,0.223-0.036c0.074-0.023,0.146-0.058,0.215-0.101c0.069-0.044,0.134-0.097,0.195-0.158s0.117-0.13,0.167-0.205
	c0.05-0.1,0.094-0.206,0.131-0.319c0.038-0.113,0.069-0.231,0.094-0.356s0.044-0.256,0.056-0.394
	C43.594,65.994,43.6,65.85,43.6,65.7c0-0.325-0.025-0.606-0.075-0.845S43.4,64.418,43.3,64.262s-0.225-0.272-0.375-0.348
	S42.6,63.8,42.4,63.8h-0.15H42.1h-0.15H41.8v0.975v0.975c0,0,0,0.488,0,0.975S41.8,67.7,41.8,67.7z M42.3,62h-0.2h-0.2h-0.2h-0.2v-1
	v-1v-1v-1h0.225h0.225h0.225H42.4c0.2,0,0.375,0.037,0.525,0.112c0.15,0.075,0.275,0.188,0.375,0.338s0.175,0.337,0.225,0.562
	C43.575,59.237,43.6,59.5,43.6,59.8c0,0.175-0.006,0.337-0.019,0.489s-0.031,0.292-0.056,0.424
	c-0.025,0.131-0.056,0.253-0.094,0.367c-0.038,0.114-0.081,0.22-0.131,0.32c-0.075,0.1-0.15,0.188-0.227,0.263
	c-0.077,0.075-0.155,0.138-0.236,0.188c-0.081,0.05-0.165,0.087-0.254,0.112C42.494,61.987,42.4,62,42.3,62z M41.8,61.8h0.125h0.125
	h0.125H42.3c0.075,0,0.144-0.013,0.208-0.036s0.124-0.058,0.18-0.102c0.056-0.043,0.109-0.097,0.16-0.157
	C42.9,61.444,42.95,61.375,43,61.3s0.094-0.163,0.131-0.263s0.069-0.212,0.094-0.337s0.044-0.263,0.056-0.412
	c0.012-0.15,0.019-0.313,0.019-0.488c0-0.4-0.044-0.7-0.112-0.925c-0.069-0.225-0.162-0.375-0.263-0.475s-0.206-0.15-0.3-0.175
	C42.531,58.2,42.45,58.2,42.4,58.2h-0.15H42.1h-0.15H41.8v0.9V60v0.9V61.8z"/>
<path d="M50.6,64.3c0,0.925-0.05,1.738-0.15,2.436c-0.1,0.699-0.25,1.283-0.45,1.752c-0.2,0.469-0.45,0.822-0.75,1.058
	S48.6,69.9,48.2,69.9c-0.375,0-0.706-0.113-0.992-0.338c-0.286-0.225-0.527-0.562-0.721-1.012c-0.194-0.45-0.34-1.013-0.439-1.688
	C45.95,66.188,45.9,65.4,45.9,64.5v-2.025V60.45v-2.025V56.4h0.25h0.25h0.25h0.25v1.9v1.9v1.9V64c0,0.65,0.031,1.219,0.092,1.706
	s0.151,0.894,0.27,1.219c0.119,0.325,0.266,0.569,0.439,0.731S48.075,67.9,48.3,67.9s0.419-0.081,0.583-0.242
	c0.164-0.161,0.298-0.402,0.404-0.721c0.107-0.319,0.185-0.715,0.236-1.189c0.052-0.473,0.077-1.023,0.077-1.648v-1.95V60.2v-1.95
	V56.3h0.25h0.25h0.25h0.25v2v2v2V64.3z"/>
<path style="fill:#FFFFFF;" d="M48.1,70c-0.4,0-0.75-0.119-1.05-0.353S46.5,69.062,46.3,68.6s-0.35-1.037-0.45-1.722
	c-0.1-0.684-0.15-1.478-0.15-2.378v-2.075V60.35v-2.075V56.2h0.325h0.325h0.325H47v1.95v1.95v1.95V64
	c0,0.625,0.025,1.175,0.076,1.648s0.13,0.87,0.236,1.189s0.241,0.56,0.405,0.72S48.075,67.8,48.3,67.8
	c0.2,0,0.375-0.075,0.525-0.227c0.15-0.152,0.275-0.38,0.375-0.686s0.175-0.69,0.225-1.154s0.075-1.008,0.075-1.633v-1.975v-1.975
	v-1.975V56.2h0.325h0.325h0.325H50.8v2.025v2.025v2.025V64.3c-0.025,0.95-0.1,1.781-0.225,2.494s-0.3,1.306-0.525,1.781
	c-0.225,0.475-0.5,0.831-0.825,1.069C48.9,69.881,48.525,70,48.1,70z M46,56.5v2v2v2v2c0,0.875,0.044,1.644,0.133,2.305
	c0.089,0.661,0.223,1.214,0.404,1.658c0.181,0.443,0.41,0.778,0.686,1.001C47.5,69.688,47.825,69.8,48.2,69.8
	s0.706-0.113,0.992-0.339c0.286-0.227,0.526-0.567,0.72-1.024c0.194-0.456,0.341-1.028,0.439-1.717
	c0.098-0.689,0.148-1.495,0.148-2.42v-1.95V60.4v-1.95V56.5h-0.2h-0.2h-0.2h-0.2v1.925v1.925v1.925V64.2
	c0,0.65-0.031,1.219-0.094,1.706s-0.156,0.894-0.281,1.219s-0.281,0.569-0.469,0.731C48.669,68.019,48.45,68.1,48.2,68.1
	s-0.469-0.081-0.656-0.245c-0.188-0.164-0.344-0.411-0.469-0.743c-0.125-0.331-0.219-0.747-0.281-1.248
	C46.731,65.362,46.7,64.775,46.7,64.1v-1.9v-1.9v-1.9v-1.9c0,0-0.044,0-0.109,0s-0.153,0-0.241,0c-0.088,0-0.175,0-0.241,0
	S46,56.5,46,56.5z"/>
<path d="M51.7,69.1v-0.575V67.95v-0.575V66.8c0.025,0.05,0.05,0.1,0.075,0.148c0.025,0.048,0.05,0.095,0.075,0.139
	c0.025,0.044,0.05,0.085,0.075,0.121c0.025,0.036,0.05,0.067,0.075,0.092s0.056,0.056,0.091,0.091s0.072,0.072,0.109,0.109
	s0.075,0.075,0.109,0.109c0.034,0.034,0.066,0.066,0.091,0.091c0.025,0.025,0.056,0.05,0.091,0.073
	c0.034,0.023,0.072,0.045,0.109,0.064s0.075,0.034,0.109,0.045c0.034,0.011,0.066,0.017,0.091,0.017s0.056,0.006,0.091,0.016
	c0.034,0.009,0.072,0.022,0.109,0.034s0.075,0.025,0.109,0.034c0.034,0.009,0.066,0.016,0.091,0.016c0.1,0,0.194-0.013,0.281-0.036
	c0.088-0.023,0.169-0.058,0.244-0.101s0.144-0.096,0.206-0.157s0.119-0.13,0.169-0.205s0.094-0.162,0.131-0.259
	c0.037-0.097,0.069-0.203,0.094-0.316s0.044-0.231,0.056-0.353C54.394,66.45,54.4,66.325,54.4,66.2c0-0.075,0-0.15-0.002-0.224
	s-0.005-0.146-0.011-0.215c-0.006-0.068-0.015-0.134-0.029-0.195S54.325,65.45,54.3,65.4s-0.05-0.1-0.075-0.15
	c-0.025-0.05-0.05-0.1-0.075-0.15c-0.025-0.05-0.05-0.1-0.075-0.15c-0.025-0.05-0.05-0.1-0.075-0.15s-0.056-0.1-0.091-0.15
	s-0.072-0.1-0.109-0.15c-0.037-0.05-0.075-0.1-0.109-0.15c-0.034-0.05-0.066-0.1-0.091-0.15c-0.05-0.05-0.094-0.1-0.134-0.15
	c-0.041-0.05-0.078-0.1-0.116-0.15s-0.075-0.1-0.116-0.15c-0.041-0.05-0.084-0.1-0.134-0.15s-0.1-0.106-0.15-0.166
	c-0.05-0.059-0.1-0.122-0.15-0.184s-0.1-0.125-0.15-0.184c-0.05-0.059-0.1-0.116-0.15-0.166s-0.094-0.106-0.134-0.167
	c-0.041-0.061-0.078-0.126-0.116-0.195c-0.037-0.069-0.075-0.141-0.116-0.214C52.094,62.25,52.05,62.175,52,62.1
	s-0.088-0.15-0.117-0.227c-0.03-0.076-0.052-0.154-0.071-0.236c-0.018-0.082-0.034-0.166-0.051-0.255S51.725,61.2,51.7,61.1
	s-0.044-0.2-0.058-0.302c-0.014-0.101-0.023-0.204-0.029-0.31c-0.007-0.106-0.01-0.216-0.011-0.33S51.6,59.925,51.6,59.8
	c0-0.15,0.006-0.3,0.017-0.447c0.011-0.147,0.026-0.291,0.045-0.428c0.019-0.138,0.041-0.269,0.065-0.391
	C51.75,58.413,51.775,58.3,51.8,58.2c0.025-0.125,0.056-0.237,0.092-0.341s0.076-0.197,0.12-0.284
	c0.044-0.087,0.091-0.169,0.139-0.247S52.25,57.175,52.3,57.1s0.1-0.144,0.152-0.208c0.051-0.064,0.104-0.124,0.16-0.18
	c0.056-0.056,0.116-0.109,0.18-0.16S52.925,56.45,53,56.4s0.144-0.088,0.209-0.116c0.066-0.028,0.128-0.047,0.191-0.059
	s0.125-0.019,0.191-0.022C53.656,56.2,53.725,56.2,53.8,56.2c0.15,0,0.294,0.013,0.43,0.036c0.136,0.023,0.264,0.058,0.382,0.102
	c0.119,0.043,0.228,0.097,0.327,0.157s0.186,0.13,0.261,0.205v0.55v0.55v0.55v0.55c-0.075-0.125-0.163-0.237-0.259-0.336
	c-0.097-0.098-0.203-0.183-0.316-0.252c-0.112-0.068-0.231-0.121-0.353-0.157C54.15,58.119,54.025,58.1,53.9,58.1
	c-0.025,0-0.056,0-0.091,0.002s-0.072,0.005-0.109,0.011c-0.038,0.006-0.075,0.015-0.109,0.029S53.525,58.175,53.5,58.2
	s-0.056,0.05-0.091,0.075s-0.072,0.05-0.109,0.075c-0.038,0.025-0.075,0.05-0.109,0.075c-0.034,0.025-0.066,0.05-0.091,0.075
	s-0.05,0.056-0.075,0.092c-0.025,0.036-0.05,0.076-0.075,0.12c-0.025,0.044-0.05,0.091-0.075,0.139S52.825,58.95,52.8,59
	s-0.044,0.106-0.058,0.167s-0.023,0.126-0.029,0.195s-0.009,0.141-0.011,0.214C52.7,59.65,52.7,59.725,52.7,59.8s0,0.15,0.002,0.223
	s0.005,0.146,0.011,0.215s0.016,0.134,0.03,0.195c0.014,0.061,0.032,0.117,0.057,0.167s0.044,0.1,0.059,0.15
	c0.016,0.05,0.028,0.1,0.041,0.15s0.025,0.1,0.041,0.15c0.016,0.05,0.034,0.1,0.059,0.15s0.05,0.1,0.076,0.148
	s0.055,0.096,0.085,0.139c0.032,0.044,0.066,0.084,0.105,0.12S53.35,61.675,53.4,61.7c0.05,0.05,0.094,0.1,0.134,0.15
	c0.041,0.05,0.078,0.1,0.116,0.15s0.075,0.1,0.116,0.15c0.041,0.05,0.084,0.1,0.134,0.15s0.1,0.106,0.15,0.167
	c0.05,0.061,0.1,0.126,0.15,0.195c0.05,0.069,0.1,0.141,0.15,0.215c0.05,0.073,0.1,0.148,0.15,0.223s0.1,0.15,0.148,0.225
	c0.048,0.075,0.095,0.15,0.139,0.225c0.044,0.075,0.085,0.15,0.121,0.225C54.944,63.85,54.975,63.925,55,64
	c0.025,0.075,0.056,0.156,0.089,0.242s0.067,0.177,0.099,0.271s0.059,0.191,0.08,0.289S55.3,65,55.3,65.1s0.006,0.2,0.016,0.302
	c0.009,0.102,0.022,0.205,0.034,0.311s0.025,0.216,0.034,0.33c0.009,0.114,0.016,0.232,0.016,0.357c0,0.175-0.006,0.338-0.017,0.491
	c-0.011,0.153-0.026,0.297-0.045,0.434s-0.041,0.269-0.064,0.397C55.25,67.85,55.225,67.975,55.2,68.1s-0.056,0.237-0.092,0.341
	s-0.076,0.197-0.12,0.284c-0.044,0.088-0.091,0.169-0.139,0.247S54.75,69.125,54.7,69.2s-0.106,0.144-0.166,0.206
	c-0.059,0.063-0.122,0.119-0.184,0.169s-0.125,0.094-0.184,0.131C54.106,69.744,54.05,69.775,54,69.8
	c-0.075,0.025-0.15,0.05-0.225,0.073c-0.075,0.023-0.15,0.045-0.225,0.064c-0.075,0.019-0.15,0.035-0.225,0.046S53.175,70,53.1,70
	c-0.025,0-0.05,0-0.076-0.002c-0.026-0.001-0.054-0.004-0.085-0.01c-0.031-0.007-0.066-0.016-0.105-0.03
	c-0.039-0.014-0.083-0.033-0.133-0.058c-0.025,0-0.056-0.006-0.092-0.016s-0.076-0.022-0.12-0.034
	c-0.044-0.013-0.091-0.025-0.139-0.034C52.3,69.806,52.25,69.8,52.2,69.8c-0.05-0.025-0.094-0.044-0.133-0.059
	c-0.039-0.016-0.073-0.028-0.104-0.041s-0.059-0.025-0.086-0.041S51.826,69.625,51.8,69.6s-0.038-0.062-0.044-0.106
	C51.75,69.45,51.75,69.4,51.75,69.35c0-0.05,0-0.1-0.006-0.144C51.737,69.162,51.725,69.125,51.7,69.1z"/>
<path style="fill:#FFFFFF;" d="M53.3,70c-0.025,0-0.05,0-0.076-0.002c-0.027-0.001-0.055-0.004-0.085-0.01
	c-0.032-0.007-0.066-0.016-0.105-0.03c-0.039-0.014-0.083-0.033-0.133-0.058c-0.05,0-0.094-0.006-0.134-0.017
	c-0.041-0.011-0.078-0.026-0.116-0.045s-0.075-0.04-0.116-0.064C52.494,69.75,52.45,69.725,52.4,69.7s-0.094-0.05-0.134-0.073
	c-0.041-0.023-0.078-0.045-0.116-0.064s-0.075-0.034-0.116-0.045C51.994,69.507,51.95,69.5,51.9,69.5
	c-0.025-0.025-0.056-0.05-0.091-0.075c-0.034-0.025-0.072-0.05-0.109-0.075s-0.075-0.05-0.109-0.075
	c-0.034-0.025-0.066-0.05-0.091-0.075l0,0l0,0l0,0l0,0v-0.7v-0.7v-0.7v-0.7l0.05,0.125l0.05,0.125l0.05,0.125L51.7,66.9
	c0.025,0.05,0.05,0.094,0.075,0.134c0.025,0.041,0.05,0.078,0.075,0.116s0.05,0.075,0.075,0.116C51.95,67.306,51.975,67.35,52,67.4
	c0.025,0.025,0.05,0.056,0.076,0.091c0.026,0.034,0.054,0.072,0.085,0.109c0.031,0.037,0.066,0.075,0.105,0.109
	c0.039,0.034,0.083,0.066,0.133,0.091c0.025,0.025,0.056,0.05,0.091,0.073c0.034,0.023,0.072,0.045,0.109,0.064
	c0.037,0.019,0.075,0.035,0.109,0.046C52.744,67.994,52.775,68,52.8,68s0.05,0.006,0.076,0.016s0.055,0.022,0.085,0.034
	c0.032,0.012,0.066,0.025,0.105,0.034S53.15,68.1,53.2,68.1c0.1,0,0.194-0.006,0.28-0.02c0.086-0.014,0.164-0.036,0.233-0.068
	s0.128-0.072,0.177-0.123c0.048-0.051,0.085-0.114,0.111-0.189c0.05-0.075,0.094-0.156,0.131-0.245
	c0.037-0.089,0.069-0.186,0.094-0.292c0.025-0.106,0.044-0.222,0.056-0.349S54.3,66.55,54.3,66.4c0-0.075,0-0.15-0.002-0.224
	s-0.005-0.146-0.011-0.215c-0.006-0.069-0.015-0.134-0.029-0.195S54.225,65.65,54.2,65.6s-0.05-0.1-0.075-0.15
	c-0.025-0.05-0.05-0.1-0.075-0.15c-0.025-0.05-0.05-0.1-0.075-0.15c-0.025-0.05-0.05-0.1-0.075-0.15s-0.056-0.1-0.091-0.148
	s-0.072-0.095-0.109-0.139s-0.075-0.084-0.109-0.12c-0.034-0.036-0.066-0.068-0.091-0.093c-0.05-0.05-0.094-0.1-0.134-0.148
	c-0.041-0.048-0.078-0.095-0.116-0.139s-0.075-0.084-0.116-0.12C53.094,64.056,53.05,64.025,53,64c-0.05-0.05-0.1-0.106-0.15-0.166
	c-0.05-0.059-0.1-0.122-0.15-0.184s-0.1-0.125-0.15-0.184c-0.05-0.059-0.1-0.116-0.15-0.166c-0.05-0.075-0.094-0.144-0.134-0.209
	c-0.041-0.066-0.078-0.128-0.116-0.191s-0.075-0.125-0.116-0.191c-0.041-0.066-0.084-0.134-0.134-0.209
	c-0.025-0.075-0.05-0.156-0.075-0.241C51.8,62.175,51.775,62.088,51.75,62s-0.05-0.175-0.075-0.259
	c-0.025-0.084-0.05-0.166-0.075-0.241c-0.025-0.1-0.044-0.2-0.058-0.303c-0.014-0.103-0.023-0.209-0.029-0.322
	c-0.006-0.112-0.01-0.231-0.011-0.359C51.5,60.388,51.5,60.25,51.5,60.1s0.006-0.3,0.017-0.448c0.011-0.149,0.026-0.296,0.045-0.44
	c0.019-0.144,0.041-0.284,0.064-0.42c0.024-0.136,0.049-0.267,0.074-0.392s0.056-0.244,0.092-0.356s0.076-0.219,0.12-0.319
	c0.044-0.1,0.091-0.194,0.139-0.281C52.1,57.356,52.15,57.275,52.2,57.2s0.106-0.15,0.167-0.222s0.126-0.141,0.195-0.203
	s0.14-0.119,0.214-0.166C52.85,56.562,52.925,56.525,53,56.5c0.075-0.05,0.15-0.088,0.225-0.116c0.075-0.028,0.15-0.047,0.225-0.059
	s0.15-0.019,0.225-0.022C53.75,56.3,53.825,56.3,53.9,56.3c0.175,0,0.338,0.013,0.487,0.036c0.15,0.023,0.288,0.058,0.413,0.102
	c0.125,0.043,0.237,0.097,0.338,0.157c0.1,0.061,0.188,0.13,0.262,0.205l0,0l0,0l0,0l0,0v0.675v0.675v0.675V59.5l-0.05-0.1
	l-0.05-0.1l-0.05-0.1l-0.05-0.1c-0.075-0.125-0.156-0.237-0.244-0.336c-0.088-0.098-0.181-0.183-0.281-0.251
	c-0.1-0.069-0.206-0.122-0.319-0.158S54.125,58.3,54,58.3c-0.025,0-0.056,0-0.091,0.002s-0.072,0.005-0.109,0.011
	s-0.075,0.016-0.109,0.03S53.625,58.375,53.6,58.4s-0.05,0.044-0.075,0.061c-0.025,0.017-0.05,0.033-0.075,0.051
	c-0.025,0.019-0.05,0.041-0.075,0.071c-0.025,0.03-0.05,0.067-0.075,0.117c-0.025,0.025-0.05,0.056-0.075,0.092
	c-0.025,0.036-0.05,0.076-0.075,0.12c-0.025,0.044-0.05,0.091-0.075,0.139C53.05,59.1,53.025,59.15,53,59.2
	s-0.044,0.106-0.058,0.167s-0.023,0.126-0.029,0.195c-0.006,0.069-0.01,0.141-0.011,0.215C52.9,59.85,52.9,59.925,52.9,60
	s0,0.144,0.002,0.208s0.005,0.124,0.011,0.18c0.006,0.056,0.015,0.109,0.029,0.16S52.975,60.65,53,60.7s0.044,0.1,0.059,0.15
	s0.028,0.1,0.041,0.15c0.013,0.05,0.025,0.1,0.041,0.15c0.016,0.05,0.034,0.1,0.059,0.15s0.05,0.094,0.076,0.134
	c0.026,0.041,0.054,0.078,0.085,0.116s0.066,0.075,0.105,0.116c0.039,0.041,0.083,0.084,0.133,0.134s0.094,0.094,0.134,0.134
	c0.041,0.041,0.078,0.078,0.116,0.116s0.075,0.075,0.116,0.116c0.041,0.041,0.084,0.084,0.134,0.134s0.1,0.106,0.15,0.167
	c0.05,0.061,0.1,0.126,0.15,0.195c0.05,0.069,0.1,0.141,0.15,0.214c0.05,0.073,0.1,0.148,0.15,0.224s0.1,0.151,0.148,0.225
	c0.048,0.075,0.095,0.15,0.139,0.225c0.044,0.075,0.085,0.15,0.121,0.225c0.036,0.075,0.067,0.15,0.092,0.225
	c0.025,0.075,0.056,0.156,0.089,0.242s0.067,0.176,0.099,0.27s0.06,0.19,0.08,0.289C55.488,64.9,55.5,65,55.5,65.1
	c0.025,0.1,0.044,0.206,0.058,0.317s0.023,0.226,0.029,0.345c0.006,0.119,0.01,0.241,0.011,0.365C55.6,66.25,55.6,66.375,55.6,66.5
	c0,0.175-0.006,0.344-0.017,0.505c-0.011,0.161-0.026,0.314-0.045,0.458c-0.019,0.144-0.041,0.278-0.064,0.401
	C55.45,67.988,55.425,68.1,55.4,68.2c-0.025,0.125-0.056,0.244-0.092,0.356c-0.036,0.113-0.076,0.219-0.12,0.319
	c-0.044,0.1-0.091,0.194-0.139,0.281S54.95,69.325,54.9,69.4s-0.106,0.144-0.167,0.208c-0.061,0.064-0.126,0.123-0.195,0.179
	c-0.069,0.057-0.141,0.11-0.215,0.161C54.25,70,54.175,70.05,54.1,70.1c-0.05-0.05-0.106-0.081-0.167-0.1s-0.127-0.025-0.196-0.025
	c-0.069,0-0.14,0.006-0.214,0.013C53.45,69.994,53.375,70,53.3,70z M51.8,69.1c0.025,0.025,0.05,0.05,0.075,0.075
	c0.025,0.025,0.05,0.05,0.075,0.075c0.025,0.025,0.05,0.05,0.075,0.075c0.025,0.025,0.05,0.05,0.075,0.075
	c0.025,0.025,0.056,0.05,0.091,0.073c0.034,0.023,0.072,0.045,0.109,0.064s0.075,0.034,0.109,0.045
	c0.034,0.011,0.066,0.017,0.091,0.017c0.025,0.025,0.056,0.044,0.091,0.058c0.034,0.014,0.072,0.024,0.109,0.03
	c0.037,0.006,0.075,0.009,0.109,0.01c0.034,0.002,0.066,0.002,0.091,0.002s0.056,0,0.089,0s0.067,0,0.099,0s0.06,0,0.08,0
	c0.02,0,0.032,0,0.032,0c0.075,0,0.15-0.006,0.223-0.017c0.074-0.011,0.146-0.026,0.215-0.045s0.134-0.04,0.195-0.064
	S53.95,69.525,54,69.5c0.075-0.025,0.144-0.056,0.208-0.094s0.124-0.081,0.18-0.131s0.109-0.106,0.161-0.169S54.65,68.975,54.7,68.9
	s0.1-0.15,0.149-0.228s0.095-0.159,0.139-0.247c0.044-0.088,0.084-0.181,0.12-0.284c0.036-0.103,0.067-0.216,0.092-0.341
	s0.05-0.25,0.073-0.378c0.024-0.128,0.046-0.259,0.065-0.397c0.018-0.138,0.034-0.281,0.045-0.434
	c0.011-0.153,0.017-0.316,0.017-0.491c0-0.125,0-0.244-0.002-0.358c-0.002-0.114-0.005-0.224-0.011-0.33s-0.016-0.21-0.03-0.311
	C55.343,65,55.325,64.9,55.3,64.8s-0.05-0.194-0.075-0.283c-0.025-0.089-0.05-0.173-0.075-0.254c-0.025-0.081-0.05-0.16-0.075-0.236
	C55.05,63.95,55.025,63.875,55,63.8s-0.056-0.15-0.092-0.225c-0.036-0.075-0.076-0.15-0.12-0.225
	c-0.044-0.075-0.091-0.15-0.139-0.225S54.55,62.975,54.5,62.9s-0.1-0.144-0.15-0.209c-0.05-0.066-0.1-0.128-0.15-0.191
	s-0.1-0.125-0.15-0.191c-0.05-0.066-0.1-0.134-0.15-0.209c-0.05-0.05-0.1-0.1-0.148-0.15c-0.049-0.05-0.096-0.1-0.139-0.15
	c-0.043-0.05-0.084-0.1-0.12-0.15c-0.036-0.05-0.067-0.1-0.092-0.15c-0.05-0.05-0.094-0.1-0.133-0.148
	c-0.039-0.049-0.073-0.096-0.104-0.139c-0.032-0.043-0.06-0.084-0.086-0.12C53.05,61.056,53.025,61.025,53,61
	c-0.025-0.05-0.05-0.1-0.075-0.15c-0.025-0.05-0.05-0.1-0.075-0.15s-0.05-0.1-0.075-0.15c-0.025-0.05-0.05-0.1-0.075-0.15
	s-0.044-0.106-0.058-0.167s-0.023-0.126-0.029-0.195s-0.009-0.141-0.011-0.214C52.6,59.75,52.6,59.675,52.6,59.6s0-0.15,0.002-0.223
	c0.002-0.074,0.005-0.146,0.011-0.215c0.006-0.069,0.015-0.134,0.029-0.195S52.675,58.85,52.7,58.8s0.05-0.1,0.075-0.15
	c0.025-0.05,0.05-0.1,0.075-0.15c0.025-0.05,0.05-0.1,0.075-0.15c0.025-0.05,0.05-0.1,0.075-0.15
	c0.025-0.05,0.056-0.094,0.091-0.131c0.034-0.038,0.072-0.069,0.109-0.094s0.075-0.044,0.109-0.056
	c0.034-0.013,0.066-0.019,0.091-0.019c0.05-0.025,0.094-0.044,0.134-0.058c0.041-0.014,0.078-0.023,0.116-0.029
	s0.075-0.009,0.116-0.011S53.85,57.8,53.9,57.8c0.125,0,0.244,0.013,0.356,0.037c0.112,0.025,0.219,0.063,0.319,0.113
	s0.194,0.112,0.281,0.188c0.088,0.075,0.169,0.163,0.244,0.263v-0.45V57.5v-0.45V56.6c-0.075-0.075-0.156-0.138-0.245-0.189
	c-0.089-0.052-0.186-0.092-0.292-0.123c-0.107-0.031-0.222-0.054-0.349-0.068c-0.127-0.014-0.264-0.02-0.414-0.02
	c-0.075,0-0.144,0.006-0.209,0.017c-0.066,0.011-0.128,0.026-0.191,0.045c-0.062,0.019-0.125,0.041-0.191,0.064
	S53.075,56.375,53,56.4c-0.05,0.025-0.106,0.056-0.166,0.094s-0.122,0.081-0.184,0.131s-0.125,0.106-0.184,0.169
	S52.35,56.925,52.3,57s-0.1,0.156-0.149,0.242c-0.049,0.086-0.095,0.177-0.139,0.271c-0.044,0.093-0.084,0.19-0.12,0.289
	C51.856,57.9,51.825,58,51.8,58.1s-0.05,0.213-0.073,0.334c-0.024,0.122-0.046,0.253-0.065,0.391
	c-0.018,0.138-0.034,0.281-0.045,0.428S51.6,59.55,51.6,59.7c0,0.125,0,0.244,0.002,0.358c0.002,0.114,0.005,0.224,0.011,0.33
	s0.016,0.209,0.03,0.311C51.657,60.8,51.675,60.9,51.7,61s0.05,0.194,0.075,0.283c0.025,0.089,0.05,0.174,0.075,0.255
	c0.025,0.081,0.05,0.159,0.075,0.236C51.95,61.85,51.975,61.925,52,62s0.056,0.15,0.092,0.223c0.036,0.074,0.076,0.146,0.12,0.215
	c0.044,0.069,0.091,0.134,0.139,0.195S52.45,62.75,52.5,62.8s0.1,0.106,0.15,0.166c0.05,0.059,0.1,0.122,0.15,0.184
	s0.1,0.125,0.15,0.184c0.05,0.059,0.1,0.116,0.15,0.166s0.1,0.1,0.148,0.148s0.096,0.096,0.139,0.139
	c0.043,0.044,0.084,0.084,0.12,0.12c0.036,0.036,0.067,0.067,0.092,0.092c0.05,0.05,0.094,0.1,0.134,0.15
	c0.041,0.05,0.078,0.1,0.116,0.15s0.075,0.1,0.116,0.15c0.041,0.05,0.084,0.1,0.134,0.15c0.025,0.05,0.05,0.1,0.075,0.151
	c0.025,0.051,0.05,0.104,0.075,0.16s0.05,0.115,0.075,0.179c0.025,0.064,0.05,0.133,0.075,0.208c0.025,0.05,0.044,0.106,0.058,0.169
	s0.023,0.131,0.029,0.206s0.009,0.157,0.011,0.244C54.5,66.006,54.5,66.1,54.5,66.2c0,0.15-0.006,0.294-0.019,0.43
	c-0.013,0.136-0.031,0.264-0.056,0.382s-0.056,0.228-0.094,0.327c-0.037,0.099-0.081,0.186-0.131,0.261s-0.112,0.144-0.184,0.205
	c-0.072,0.061-0.153,0.114-0.241,0.158s-0.181,0.078-0.278,0.102C53.4,68.088,53.3,68.1,53.2,68.1c-0.025,0-0.056,0-0.091-0.002
	c-0.034-0.001-0.072-0.005-0.109-0.01c-0.037-0.007-0.075-0.016-0.109-0.03C52.856,68.044,52.825,68.025,52.8,68
	c-0.05-0.025-0.094-0.044-0.134-0.061c-0.041-0.017-0.078-0.033-0.116-0.052c-0.038-0.019-0.075-0.04-0.116-0.07
	c-0.041-0.03-0.084-0.067-0.134-0.117c-0.05-0.025-0.094-0.05-0.133-0.076c-0.039-0.026-0.073-0.054-0.104-0.086
	s-0.059-0.065-0.086-0.105C51.95,67.394,51.925,67.35,51.9,67.3l-0.025-0.025L51.85,67.25l-0.025-0.025L51.8,67.2v0.475v0.475v0.475
	V69.1z"/>
<path d="M60.6,58.2h-0.425H59.75h-0.425H58.9v2.85v2.85v2.85v2.85h-0.25H58.4h-0.25H57.9v-2.85V63.9v-2.85V58.2h-0.425H57.05h-0.425
	H56.2v-0.475V57.25v-0.475V56.3h1.125h1.125h1.125H60.7v0.475v0.475v0.475V58.2h-0.025H60.65h-0.025H60.6z"/>
<path style="fill:#FFFFFF;" d="M59,69.8h-0.325H58.35h-0.325H57.7v-2.875V64.05v-2.875V58.3h-0.425H56.85h-0.425H56v-0.525V57.25
	v-0.525V56.2h1.175h1.175h1.175H60.7v0.525v0.525v0.525V58.3h-0.425H59.85h-0.425H59v2.875v2.875v2.875V69.8z M58,69.5h0.2h0.2h0.2
	h0.2v-2.85V63.8v-2.85V58.1h0.425h0.425h0.425H60.5v-0.4v-0.4v-0.4v-0.4h-1.05H58.4h-1.05H56.3v0.4v0.4v0.4v0.4h0.425h0.425h0.425
	H58v2.85v2.85v2.85V69.5z"/>
<path d="M62.5,69.6h-0.25H62h-0.25H61.5v-3.325V62.95v-3.325V56.3h0.25H62h0.25h0.25v3.325v3.325v3.325V69.6z"/>
<path style="fill:#FFFFFF;" d="M62.6,69.8h-0.325H61.95h-0.325H61.3v-3.4V63v-3.4v-3.4h0.325h0.325h0.325H62.6v3.4V63
	c0,0,0,1.7,0,3.4S62.6,69.8,62.6,69.8z M61.6,69.5h0.2H62h0.2h0.2v-3.25V63v-3.25V56.5h-0.2H62h-0.2h-0.2v3.25V63v3.25V69.5z"/>
<path d="M64,69.6v-3.325V62.95v-3.325V56.3h0.475h0.475h0.475H65.9c0.15,0,0.288,0.019,0.416,0.055
	c0.128,0.036,0.247,0.089,0.359,0.157c0.113,0.069,0.219,0.153,0.322,0.252C67.1,56.862,67.2,56.975,67.3,57.1
	c0.075,0.15,0.144,0.306,0.205,0.47c0.061,0.164,0.114,0.336,0.158,0.517c0.043,0.182,0.078,0.372,0.101,0.574
	c0.023,0.202,0.036,0.414,0.036,0.639c0,0.2-0.006,0.388-0.019,0.566c-0.012,0.178-0.031,0.347-0.056,0.509
	c-0.025,0.162-0.056,0.319-0.094,0.472C67.594,61,67.55,61.15,67.5,61.3s-0.106,0.287-0.167,0.412
	c-0.061,0.125-0.127,0.237-0.196,0.338c-0.069,0.1-0.14,0.188-0.214,0.263C66.85,62.388,66.775,62.45,66.7,62.5l0,0l0,0l0,0l0,0
	c0.1,0.025,0.2,0.062,0.297,0.114c0.097,0.052,0.191,0.117,0.278,0.198c0.088,0.082,0.169,0.179,0.241,0.293
	c0.072,0.114,0.134,0.245,0.184,0.395s0.1,0.306,0.147,0.47s0.091,0.336,0.128,0.518c0.037,0.181,0.069,0.371,0.091,0.573
	c0.022,0.201,0.034,0.414,0.034,0.639c0,0.275-0.013,0.544-0.037,0.803C68.037,66.762,68,67.012,67.95,67.25
	s-0.113,0.463-0.188,0.672S67.6,68.325,67.5,68.5s-0.206,0.331-0.319,0.467c-0.113,0.136-0.231,0.251-0.356,0.345
	s-0.256,0.165-0.394,0.214C66.294,69.575,66.15,69.6,66,69.6h-0.5H65h-0.5H64z M65,58.1v0.95V60v0.95v0.95h0.175h0.175h0.175H65.7
	c0.075,0,0.15-0.013,0.224-0.036c0.074-0.024,0.146-0.058,0.215-0.102s0.134-0.097,0.195-0.158c0.061-0.061,0.117-0.129,0.167-0.204
	c0.05-0.1,0.094-0.206,0.131-0.319c0.037-0.113,0.069-0.231,0.094-0.356s0.044-0.256,0.056-0.394
	C66.794,60.194,66.8,60.05,66.8,59.9c0-0.275-0.019-0.519-0.058-0.73c-0.039-0.211-0.099-0.389-0.18-0.533
	c-0.081-0.144-0.184-0.253-0.31-0.326C66.125,58.237,65.975,58.2,65.8,58.2h-0.2h-0.2h-0.2H65v-0.025V58.15v-0.025V58.1z M65,63.7
	v1.05v1.05v1.05v1.05h0.225h0.225h0.225H65.9c0.1,0,0.194-0.013,0.281-0.037c0.088-0.025,0.169-0.062,0.244-0.113
	s0.144-0.113,0.206-0.188S66.75,67.4,66.8,67.3s0.094-0.206,0.131-0.32c0.038-0.114,0.069-0.236,0.094-0.368
	c0.025-0.131,0.044-0.271,0.056-0.423c0.013-0.152,0.019-0.314,0.019-0.489c0-0.35-0.025-0.656-0.076-0.919s-0.13-0.481-0.235-0.656
	c-0.106-0.175-0.241-0.306-0.405-0.394C66.219,63.644,66.025,63.6,65.8,63.6h-0.2h-0.2h-0.2H65v0.025v0.025v0.025V63.7z"/>
<path style="fill:#FFFFFF;" d="M65.9,69.8h-0.525H64.85h-0.525H63.8v-3.4V63v-3.4v-3.4h0.5h0.5h0.5h0.5
	c0.15,0,0.294,0.019,0.431,0.056c0.137,0.037,0.269,0.094,0.394,0.169s0.244,0.169,0.356,0.281C67.094,56.819,67.2,56.95,67.3,57.1
	s0.181,0.306,0.247,0.472c0.066,0.166,0.116,0.341,0.153,0.528s0.062,0.388,0.078,0.603C67.794,58.919,67.8,59.15,67.8,59.4
	c0,0.2-0.006,0.388-0.019,0.566c-0.012,0.178-0.031,0.347-0.056,0.509c-0.025,0.162-0.056,0.319-0.094,0.472
	C67.594,61.1,67.55,61.25,67.5,61.4c-0.05,0.125-0.1,0.244-0.151,0.355s-0.104,0.214-0.16,0.307s-0.116,0.178-0.18,0.252
	c-0.064,0.074-0.133,0.136-0.208,0.186c0.1,0.05,0.194,0.106,0.281,0.17s0.169,0.136,0.244,0.218
	c0.075,0.081,0.144,0.172,0.206,0.273c0.062,0.102,0.119,0.214,0.169,0.339c0.075,0.15,0.137,0.312,0.189,0.486
	c0.051,0.173,0.092,0.358,0.123,0.551c0.032,0.194,0.054,0.397,0.068,0.608c0.014,0.211,0.02,0.43,0.02,0.655
	c0,0.3-0.013,0.581-0.037,0.845C68.037,66.91,68,67.157,67.95,67.388s-0.113,0.447-0.188,0.648C67.688,68.238,67.6,68.425,67.5,68.6
	c-0.075,0.2-0.169,0.375-0.278,0.525c-0.109,0.15-0.234,0.275-0.372,0.375c-0.138,0.1-0.287,0.175-0.447,0.225
	C66.244,69.775,66.075,69.8,65.9,69.8z M64.1,69.5h0.45H65h0.45h0.45c0.15,0,0.287-0.019,0.416-0.058s0.247-0.099,0.359-0.18
	c0.113-0.081,0.219-0.184,0.322-0.311C67.1,68.825,67.2,68.675,67.3,68.5s0.188-0.363,0.262-0.562
	c0.075-0.2,0.137-0.412,0.188-0.637s0.088-0.462,0.113-0.712c0.025-0.25,0.037-0.513,0.037-0.788c0-0.225-0.006-0.438-0.02-0.639
	c-0.014-0.202-0.036-0.392-0.068-0.574c-0.031-0.181-0.072-0.353-0.123-0.517c-0.052-0.164-0.114-0.32-0.189-0.47
	c-0.05-0.125-0.106-0.244-0.169-0.352c-0.062-0.108-0.131-0.205-0.206-0.286s-0.156-0.147-0.244-0.192S66.7,62.7,66.6,62.7h-0.025
	H66.55h-0.025H66.5v-0.05V62.6v-0.05V62.5h0.025h0.025h0.025H66.6c0.075-0.05,0.15-0.112,0.224-0.186
	c0.074-0.073,0.146-0.158,0.215-0.252c0.068-0.094,0.134-0.197,0.195-0.307s0.117-0.23,0.167-0.355s0.094-0.263,0.131-0.409
	c0.038-0.147,0.069-0.303,0.094-0.466s0.044-0.331,0.056-0.503C67.694,59.85,67.7,59.675,67.7,59.5c0-0.225-0.012-0.438-0.036-0.638
	s-0.058-0.388-0.101-0.562c-0.044-0.175-0.097-0.337-0.158-0.487s-0.13-0.288-0.205-0.413s-0.156-0.237-0.245-0.336
	c-0.089-0.098-0.186-0.183-0.292-0.252c-0.106-0.068-0.222-0.121-0.349-0.157C66.188,56.619,66.05,56.6,65.9,56.6h-0.45H65h-0.45
	H64.1v3.225v3.225v3.225V69.5z M65.8,68h-0.25H65.3h-0.25H64.8v-1.125V65.75v-1.125V63.5h0.225h0.225h0.225H65.7
	c0.225,0,0.425,0.044,0.598,0.133c0.173,0.089,0.32,0.223,0.439,0.404c0.119,0.182,0.21,0.41,0.271,0.686
	C67.069,65,67.1,65.325,67.1,65.7c0,0.175-0.006,0.338-0.019,0.489c-0.012,0.152-0.031,0.292-0.056,0.423
	c-0.025,0.132-0.056,0.254-0.094,0.368c-0.037,0.114-0.081,0.22-0.131,0.32c-0.05,0.125-0.106,0.231-0.17,0.32
	s-0.136,0.161-0.218,0.218c-0.081,0.056-0.172,0.096-0.273,0.123C66.038,67.988,65.925,68,65.8,68z M65.1,67.7h0.175h0.175h0.175
	H65.8c0.075,0,0.15-0.012,0.224-0.036s0.146-0.058,0.215-0.101c0.069-0.044,0.134-0.097,0.195-0.158s0.117-0.13,0.167-0.205
	c0.05-0.1,0.094-0.206,0.131-0.319c0.038-0.113,0.069-0.231,0.094-0.356s0.044-0.256,0.056-0.394
	C66.894,65.994,66.9,65.85,66.9,65.7c0-0.325-0.025-0.606-0.075-0.845c-0.05-0.239-0.125-0.436-0.225-0.593
	c-0.1-0.156-0.225-0.272-0.375-0.348c-0.15-0.077-0.325-0.115-0.525-0.115h-0.15H65.4h-0.15H65.1c0,0,0,0.244,0,0.609
	c0,0.366,0,0.853,0,1.341c0,0.488,0,0.976,0,1.342C65.1,67.456,65.1,67.7,65.1,67.7z M65.6,62h-0.2h-0.2H65h-0.2v-1v-1v-1v-1h0.225
	h0.225h0.225H65.7c0.2,0,0.375,0.037,0.525,0.112c0.15,0.075,0.275,0.188,0.375,0.338c0.1,0.15,0.175,0.337,0.225,0.562
	C66.875,59.237,66.9,59.5,66.9,59.8c0,0.175-0.006,0.337-0.019,0.489c-0.012,0.152-0.031,0.292-0.056,0.424
	c-0.025,0.131-0.056,0.253-0.094,0.367c-0.037,0.114-0.081,0.22-0.131,0.32c-0.075,0.1-0.15,0.188-0.227,0.263
	s-0.155,0.138-0.235,0.188c-0.081,0.05-0.166,0.087-0.255,0.112C65.794,61.987,65.7,62,65.6,62z M65.1,61.8h0.125h0.125h0.125H65.6
	c0.075,0,0.144-0.013,0.208-0.036s0.124-0.058,0.18-0.102c0.056-0.043,0.109-0.097,0.16-0.157s0.102-0.13,0.152-0.205
	s0.094-0.163,0.131-0.263c0.037-0.1,0.069-0.212,0.094-0.337s0.044-0.263,0.056-0.412c0.013-0.15,0.019-0.313,0.019-0.488
	c0-0.4-0.044-0.7-0.113-0.925c-0.069-0.225-0.162-0.375-0.262-0.475s-0.206-0.15-0.3-0.175C65.831,58.2,65.75,58.2,65.7,58.2h-0.15
	H65.4h-0.15H65.1v0.9V60c0,0,0,0.45,0,0.9C65.1,61.35,65.1,61.8,65.1,61.8z"/>
<path d="M72.6,69.6h-0.85H70.9h-0.85H69.2v-3.325V62.95v-3.325V56.3h0.25h0.25h0.25h0.25v2.85V62v2.85v2.85h0.575h0.575h0.575H72.5
	v0.475v0.475v0.475V69.6h0.025h0.025c0,0,0.012,0,0.025,0S72.6,69.6,72.6,69.6z"/>
<path style="fill:#FFFFFF;" d="M72.7,69.8h-0.9h-0.9H70h-0.9v-3.4V63v-3.4v-3.4h0.325h0.325h0.325H70.4v2.85v2.85v2.85v2.85h0.575
	h0.575h0.575H72.7c0,0,0,0.138,0,0.344c0,0.206,0,0.481,0,0.756c0,0.275,0,0.55,0,0.756S72.7,69.8,72.7,69.8z M69.3,69.5h0.775
	h0.775h0.775H72.4v-0.4v-0.4v-0.4v-0.4h-0.575H71.25h-0.575H70.1v-2.85V62.2v-2.85V56.5h-0.2h-0.2h-0.2h-0.2c0,0,0,0.812,0,2.031
	s0,2.844,0,4.469s0,3.25,0,4.469C69.3,68.688,69.3,69.5,69.3,69.5z"/>
<path d="M76.8,69.6h-0.85H75.1h-0.85H73.4v-3.325V62.95v-3.325V56.3h0.825h0.825h0.825H76.7v0.475v0.475v0.475V58.2h-0.575H75.55
	h-0.575H74.4v0.95v0.95v0.95V62h0.525h0.525h0.525H76.5v0.475v0.475v0.475V63.9h-0.525H75.45h-0.525H74.4v0.975v0.975v0.975V67.8H75
	h0.6h0.6h0.6v0.45v0.45c0,0,0,0.225,0,0.45C76.8,69.375,76.8,69.6,76.8,69.6z"/>
<path style="fill:#FFFFFF;" d="M77,69.8h-0.925H75.15h-0.925H73.3v-3.4V63v-3.4v-3.4h0.875h0.875h0.875H76.8v0.525v0.525v0.525V58.3
	h-0.575H75.65h-0.575H74.5v0.875v0.875v0.875V61.8h0.525h0.525h0.525H76.6v0.55v0.55v0.55V64h-0.525H75.55h-0.525H74.5v0.925v0.925
	v0.925V67.7h0.625h0.625h0.625H77v0.525v0.525v0.525V69.8z M73.6,69.5h0.8h0.8H76h0.8v-0.4v-0.4v-0.4v-0.4h-0.6h-0.6H75h-0.6v-1.05
	V65.8v-1.05V63.7h0.525h0.525h0.525H76.5v-0.4v-0.4v-0.4v-0.4h-0.525H75.45h-0.525H74.4v-1v-1v-1v-1h0.575h0.575h0.575H76.7v-0.4
	v-0.4v-0.4v-0.4h-0.75H75.2h-0.75H73.7v3.25V63v3.25v3.25h-0.025H73.65h-0.025H73.6z"/>
<path d="M61.3,30.8c-0.225,0.075-0.475,0.175-0.73,0.283s-0.514,0.223-0.757,0.329c-0.244,0.107-0.472,0.204-0.664,0.274
	C58.956,31.756,58.8,31.8,58.7,31.8s-0.019-0.219,0.159-0.556c0.178-0.337,0.453-0.794,0.741-1.269s0.588-0.969,0.816-1.381
	C60.644,28.181,60.8,27.85,60.8,27.7s0.019-0.413,0.036-0.725c0.017-0.312,0.033-0.675,0.026-1.025s-0.035-0.688-0.105-0.95
	c-0.07-0.262-0.183-0.45-0.358-0.5s-0.463,0.044-0.802,0.212c-0.339,0.169-0.729,0.413-1.111,0.663
	c-0.381,0.25-0.752,0.506-1.053,0.7S56.9,26.4,56.8,26.4c-0.075,0.025-0.169,0.031-0.264,0.014
	c-0.095-0.017-0.192-0.058-0.274-0.126c-0.081-0.069-0.146-0.166-0.179-0.296C56.05,25.862,56.05,25.7,56.1,25.5
	s0.137-0.494,0.234-0.841c0.097-0.347,0.203-0.747,0.291-1.159s0.156-0.838,0.178-1.234C56.825,21.869,56.8,21.5,56.7,21.2
	s-0.231-0.581-0.38-0.831c-0.148-0.25-0.314-0.469-0.482-0.644c-0.169-0.175-0.341-0.306-0.502-0.381S55.025,19.25,54.9,19.3
	s-0.219,0.181-0.291,0.356c-0.072,0.175-0.122,0.394-0.159,0.619s-0.062,0.456-0.084,0.656c-0.022,0.2-0.041,0.369-0.066,0.469
	s-0.106,0.312-0.219,0.578s-0.256,0.584-0.406,0.897s-0.306,0.619-0.444,0.859S52.975,24.15,52.9,24.2
	c-0.1,0.05-0.175,0.056-0.234,0.028c-0.059-0.028-0.103-0.091-0.141-0.178s-0.069-0.2-0.103-0.328
	C52.388,23.594,52.35,23.45,52.3,23.3c-0.025-0.175-0.1-0.55-0.208-1.028c-0.108-0.478-0.248-1.059-0.404-1.647
	c-0.156-0.587-0.328-1.181-0.499-1.684c-0.17-0.503-0.339-0.916-0.489-1.141c-0.15-0.25-0.325-0.594-0.506-0.975
	c-0.181-0.381-0.369-0.8-0.544-1.2s-0.338-0.781-0.469-1.087S48.95,14,48.9,13.9s-0.131-0.2-0.23-0.281
	c-0.098-0.081-0.214-0.144-0.332-0.169c-0.119-0.025-0.241-0.012-0.352,0.056C47.875,13.575,47.775,13.7,47.7,13.9
	s-0.125,0.531-0.156,0.938S47.5,15.725,47.5,16.225c0,0.5,0.013,1.019,0.031,1.5S47.575,18.65,47.6,19s0.044,0.694,0.056,1.017
	c0.012,0.323,0.019,0.627,0.019,0.896s-0.006,0.503-0.019,0.689C47.644,21.788,47.625,21.925,47.6,22s-0.319-0.019-0.745-0.202
	c-0.426-0.183-0.986-0.455-1.542-0.736s-1.109-0.572-1.524-0.792C43.375,20.05,43.1,19.9,43.1,19.9s0.037,0.113,0.097,0.292
	s0.141,0.426,0.228,0.695c0.087,0.269,0.181,0.56,0.266,0.827S43.85,22.225,43.9,22.4s0.138,0.388,0.241,0.627
	c0.103,0.239,0.222,0.505,0.334,0.786c0.112,0.281,0.219,0.578,0.297,0.879C44.85,24.994,44.9,25.3,44.9,25.6
	c-0.025,0.3-0.1,0.513-0.206,0.661c-0.106,0.148-0.244,0.233-0.394,0.277c-0.15,0.044-0.312,0.047-0.469,0.033
	S43.525,26.526,43.4,26.5c-0.125-0.05-0.294-0.131-0.481-0.225s-0.394-0.2-0.594-0.3s-0.394-0.194-0.556-0.263
	C41.606,25.644,41.475,25.6,41.4,25.6s-0.056,0.238,0.008,0.601c0.064,0.364,0.174,0.854,0.28,1.361
	c0.106,0.507,0.209,1.028,0.261,1.455C42,29.444,42,29.775,41.9,29.9s-0.325,0.2-0.606,0.242c-0.281,0.042-0.619,0.052-0.944,0.046
	c-0.325-0.007-0.638-0.028-0.869-0.049C39.25,30.119,39.1,30.1,39.1,30.1s0,0.044,0.002,0.116c0.002,0.072,0.005,0.172,0.011,0.284
	c0.006,0.112,0.015,0.237,0.029,0.359S39.175,31.1,39.2,31.2s0.244,0.575,0.584,1.233c0.341,0.658,0.803,1.499,1.316,2.33
	c0.513,0.831,1.075,1.653,1.616,2.273c0.541,0.62,1.059,1.039,1.484,1.064s0.706-0.006,0.886-0.072
	c0.18-0.066,0.258-0.166,0.276-0.278c0.019-0.112-0.021-0.237-0.079-0.353c-0.058-0.116-0.133-0.222-0.183-0.297
	s-0.125-0.219-0.209-0.395c-0.084-0.176-0.178-0.386-0.266-0.592c-0.088-0.206-0.169-0.41-0.228-0.574
	C44.338,35.375,44.3,35.25,44.3,35.2c0.025-0.05,0.1-0.062,0.2-0.059c0.1,0.003,0.225,0.022,0.35,0.034s0.25,0.019,0.35-0.003
	C45.3,35.15,45.375,35.1,45.4,35c0.025-0.075,0.019-0.219-0.005-0.4c-0.023-0.181-0.064-0.4-0.107-0.625
	c-0.044-0.225-0.091-0.456-0.127-0.662S45.1,32.925,45.1,32.8c0-0.1,0.006-0.188,0.025-0.263c0.019-0.075,0.05-0.137,0.1-0.188
	c0.05-0.05,0.119-0.088,0.213-0.112C45.531,32.212,45.65,32.2,45.8,32.2s0.306,0.025,0.456,0.051
	c0.15,0.027,0.294,0.055,0.419,0.061s0.231-0.009,0.306-0.07c0.075-0.061,0.119-0.167,0.119-0.342s-0.006-0.388-0.008-0.609
	c-0.001-0.222,0.002-0.453,0.021-0.666c0.019-0.212,0.053-0.406,0.114-0.553s0.148-0.247,0.273-0.272s0.263,0.05,0.406,0.177
	s0.294,0.305,0.444,0.486c0.15,0.181,0.3,0.365,0.444,0.504S49.075,31.2,49.2,31.2s0.306-0.275,0.508-0.688
	c0.202-0.413,0.424-0.962,0.63-1.513c0.206-0.55,0.397-1.1,0.536-1.513s0.227-0.688,0.227-0.688s0.031-0.019,0.08-0.02
	s0.114,0.014,0.183,0.082c0.068,0.069,0.14,0.191,0.2,0.402s0.111,0.511,0.136,0.936s0.031,0.794,0.034,1.108
	c0.003,0.314,0.003,0.574,0.016,0.78c0.013,0.206,0.037,0.359,0.091,0.461C51.894,30.65,51.975,30.7,52.1,30.7
	s0.306-0.025,0.511-0.061c0.205-0.036,0.433-0.083,0.651-0.127s0.428-0.084,0.595-0.108c0.167-0.023,0.293-0.029,0.343-0.004
	s0.013,0.119-0.072,0.251c-0.084,0.133-0.216,0.305-0.353,0.486c-0.138,0.182-0.281,0.372-0.391,0.543S53.2,32,53.2,32.1
	c0,0.125,0.019,0.25,0.056,0.367c0.037,0.117,0.094,0.227,0.169,0.321c0.075,0.094,0.169,0.172,0.281,0.226
	C53.819,33.069,53.95,33.1,54.1,33.1s0.263,0.05,0.348,0.133c0.086,0.083,0.145,0.199,0.189,0.33
	c0.044,0.131,0.072,0.278,0.096,0.423c0.024,0.145,0.042,0.289,0.067,0.414s0.062,0.225,0.109,0.306
	c0.047,0.081,0.103,0.144,0.166,0.194s0.131,0.087,0.203,0.119c0.072,0.031,0.147,0.056,0.222,0.081c0.075,0,0.15,0.013,0.216,0.037
	c0.066,0.025,0.122,0.062,0.159,0.113c0.037,0.05,0.056,0.112,0.047,0.188S55.875,35.6,55.8,35.7s-0.269,0.306-0.508,0.567
	c-0.239,0.261-0.523,0.577-0.779,0.896c-0.257,0.318-0.485,0.64-0.611,0.914C53.775,38.35,53.75,38.575,53.9,38.7
	c0,0,0.263-0.062,0.678-0.183c0.416-0.12,0.984-0.299,1.597-0.53c0.612-0.231,1.269-0.515,1.859-0.848
	C58.625,36.806,59.15,36.425,59.5,36s0.675-0.95,0.966-1.498c0.291-0.549,0.547-1.121,0.759-1.64
	c0.213-0.519,0.381-0.984,0.497-1.32C61.838,31.206,61.9,31,61.9,31s0.019-0.031,0.033-0.073c0.014-0.042,0.023-0.095,0.004-0.139
	c-0.018-0.044-0.065-0.079-0.164-0.083C61.675,30.7,61.525,30.725,61.3,30.8z M49.7,24.5c-0.05,0-0.125-0.025-0.206-0.072
	s-0.169-0.116-0.244-0.203s-0.138-0.194-0.169-0.316S49.05,23.65,49.1,23.5s0.1-0.287,0.152-0.405
	c0.051-0.117,0.104-0.214,0.16-0.283s0.116-0.11,0.18-0.114c0.064-0.004,0.133,0.027,0.208,0.102c0,0,0.025,0.019,0.062,0.055
	C49.9,22.89,49.95,22.944,50,23.012s0.1,0.153,0.138,0.251c0.038,0.098,0.062,0.211,0.062,0.336c0,0.1-0.019,0.206-0.05,0.309
	c-0.031,0.103-0.075,0.203-0.125,0.291c-0.05,0.088-0.106,0.163-0.163,0.217C49.806,24.469,49.75,24.5,49.7,24.5z"/>
<polygon points="41.7,40.5 46.45,40.5 51.2,40.5 55.95,40.5 60.7,40.5 60.7,40.85 60.7,41.2 60.7,41.55 60.7,41.9 55.95,41.9 
	51.2,41.9 46.45,41.9 41.7,41.9 41.7,41.55 41.7,41.2 41.7,40.85 "/>
</svg>
