<?xml version="1.0" encoding="utf-8"?>
<!-- Generator: Adobe Illustrator 25.2.0, SVG Export Plug-In . SVG Version: 6.00 Build 0)  -->
<svg version="1.1" id="Layer_1" xmlns="http://www.w3.org/2000/svg" xmlns:xlink="http://www.w3.org/1999/xlink" x="0px" y="0px"
	 viewBox="0 0 100 100" style="enable-background:new 0 0 100 100;" xml:space="preserve">
<polygon points="11.7,40.3 89.1,40.3 98,50.4 50.1,97.7 1.9,49.5 "/>
<g>
	<path style="fill:#FFFFFF;" d="M47.7,91.9c0-0.2,0-0.5,0.1-0.7c0.1-0.2,0.1-0.4,0.2-0.6s0.2-0.4,0.4-0.5c0.2-0.2,0.3-0.3,0.5-0.4
		c-0.3-0.2-0.5-0.5-0.7-0.8c-0.2-0.3-0.3-0.7-0.3-1.1c0-0.3,0.1-0.6,0.2-0.9c0.1-0.3,0.3-0.5,0.4-0.7c0.2-0.2,0.4-0.3,0.7-0.5
		c0.3-0.1,0.5-0.2,0.8-0.2c0.3,0,0.6,0.1,0.8,0.2c0.3,0.1,0.5,0.3,0.7,0.5c0.2,0.2,0.3,0.4,0.4,0.7c0.1,0.3,0.2,0.6,0.2,0.9
		c0,0.4-0.1,0.7-0.3,1.1c-0.2,0.3-0.4,0.6-0.7,0.8c0.2,0.1,0.4,0.2,0.5,0.4s0.3,0.3,0.4,0.5s0.2,0.4,0.2,0.6
		c0.1,0.2,0.1,0.5,0.1,0.7c0,0.4-0.1,0.7-0.2,1c-0.1,0.3-0.3,0.6-0.5,0.8c-0.2,0.2-0.5,0.4-0.7,0.5s-0.6,0.2-1,0.2
		c-0.3,0-0.7-0.1-0.9-0.2c-0.3-0.1-0.5-0.3-0.7-0.5c-0.2-0.2-0.4-0.5-0.5-0.8C47.8,92.6,47.7,92.2,47.7,91.9z M48.8,91.8
		c0,0.2,0,0.5,0.1,0.7c0.1,0.2,0.1,0.4,0.3,0.5c0.1,0.1,0.2,0.2,0.4,0.3c0.2,0.1,0.3,0.1,0.5,0.1c0.2,0,0.3,0,0.5-0.1
		c0.2-0.1,0.3-0.2,0.4-0.3c0.1-0.1,0.2-0.3,0.3-0.5s0.1-0.4,0.1-0.6c0-0.2,0-0.4-0.1-0.6c-0.1-0.2-0.1-0.4-0.3-0.5
		c-0.1-0.1-0.2-0.3-0.4-0.3c-0.2-0.1-0.3-0.1-0.5-0.1c-0.2,0-0.3,0-0.5,0.1s-0.3,0.2-0.4,0.3c-0.1,0.1-0.2,0.3-0.3,0.5
		S48.8,91.5,48.8,91.8z M49.1,87.9c0,0.2,0,0.3,0.1,0.5c0.1,0.2,0.1,0.3,0.2,0.4c0.1,0.1,0.2,0.2,0.3,0.3c0.1,0.1,0.2,0.1,0.4,0.1
		s0.3,0,0.4-0.1c0.1-0.1,0.2-0.2,0.3-0.3c0.1-0.1,0.2-0.2,0.2-0.4c0.1-0.2,0.1-0.3,0.1-0.5c0-0.2,0-0.3-0.1-0.5s-0.1-0.3-0.2-0.4
		c-0.1-0.1-0.2-0.2-0.3-0.3c-0.1-0.1-0.3-0.1-0.4-0.1c-0.1,0-0.3,0-0.4,0.1c-0.1,0.1-0.2,0.2-0.3,0.3s-0.2,0.2-0.2,0.4
		S49.1,87.7,49.1,87.9z"/>
</g>
<g>
	<path style="fill:#FFFFFF;" d="M18.9,58.9c-0.8,0.6-1.7,0.9-2.9,0.9c-1.5,0-2.7-0.7-3.6-2.2c-0.9-1.4-1.3-3.3-1.3-5.7
		c0-2.5,0.5-4.6,1.5-6.1s2.3-2.3,3.8-2.3c1,0,1.8,0.2,2.5,0.7v2.6c-0.7-0.6-1.5-0.9-2.3-0.9c-1.1,0-2,0.5-2.7,1.6
		c-0.7,1.1-1,2.6-1,4.4c0,1.7,0.3,3.1,1,4.2s1.5,1.5,2.5,1.5c1,0,1.8-0.4,2.5-1.1V58.9z"/>
</g>
<g>
	<path style="fill:#FFFFFF;" d="M24.9,59.9c-1.5,0-2.7-0.7-3.5-2.2S20,54.3,20,51.9c0-2.5,0.5-4.6,1.4-6.1c0.9-1.5,2.1-2.3,3.7-2.3
		c1.4,0,2.6,0.7,3.5,2.2c0.9,1.5,1.3,3.4,1.3,5.8c0,2.6-0.5,4.6-1.3,6.1S26.4,59.9,24.9,59.9z M24.9,45.8c-0.9,0-1.7,0.5-2.3,1.6
		c-0.6,1.1-0.9,2.5-0.9,4.3c0,1.8,0.3,3.2,0.9,4.2c0.6,1.1,1.3,1.6,2.2,1.6c1,0,1.8-0.5,2.3-1.5s0.8-2.5,0.8-4.3
		c0-1.9-0.3-3.3-0.8-4.4C26.7,46.3,25.9,45.8,24.9,45.8z"/>
</g>
<g>
	<path style="fill:#FFFFFF;" d="M39.6,59.6h-2L36,55.4c-0.1-0.4-0.3-0.7-0.4-1c-0.1-0.3-0.3-0.5-0.4-0.7c-0.1-0.2-0.3-0.3-0.5-0.4
		c-0.2-0.1-0.4-0.1-0.6-0.1h-0.7v6.4h-1.7V43.8h3.4c0.5,0,0.9,0.1,1.3,0.3c0.4,0.2,0.8,0.4,1.1,0.8c0.3,0.4,0.5,0.8,0.7,1.3
		s0.3,1.2,0.3,1.9c0,0.6-0.1,1.1-0.2,1.5s-0.3,0.9-0.5,1.2c-0.2,0.4-0.4,0.7-0.7,0.9s-0.6,0.5-0.9,0.6v0c0.2,0.2,0.3,0.3,0.5,0.5
		c0.1,0.2,0.3,0.4,0.4,0.6c0.1,0.2,0.2,0.4,0.4,0.7c0.1,0.3,0.3,0.6,0.4,0.9L39.6,59.6z M33.4,45.9v5.1h1.4c0.3,0,0.5-0.1,0.7-0.2
		c0.2-0.1,0.4-0.3,0.6-0.5s0.3-0.5,0.4-0.9c0.1-0.3,0.1-0.7,0.1-1.1c0-0.8-0.2-1.3-0.5-1.8s-0.8-0.6-1.3-0.6H33.4z"/>
</g>
<g>
	<path style="fill:#FFFFFF;" d="M48.7,59.6h-2l-1.6-4.2c-0.1-0.4-0.3-0.7-0.4-1c-0.1-0.3-0.3-0.5-0.4-0.7c-0.1-0.2-0.3-0.3-0.5-0.4
		c-0.2-0.1-0.4-0.1-0.6-0.1h-0.7v6.4h-1.7V43.8h3.4c0.5,0,0.9,0.1,1.3,0.3c0.4,0.2,0.8,0.4,1.1,0.8c0.3,0.4,0.5,0.8,0.7,1.3
		s0.3,1.2,0.3,1.9c0,0.6-0.1,1.1-0.2,1.5s-0.3,0.9-0.5,1.2c-0.2,0.4-0.4,0.7-0.7,0.9s-0.6,0.5-0.9,0.6v0c0.2,0.2,0.3,0.3,0.5,0.5
		c0.1,0.2,0.3,0.4,0.4,0.6c0.1,0.2,0.2,0.4,0.4,0.7c0.1,0.3,0.3,0.6,0.4,0.9L48.7,59.6z M42.5,45.9v5.1h1.4c0.3,0,0.5-0.1,0.7-0.2
		c0.2-0.1,0.4-0.3,0.6-0.5s0.3-0.5,0.4-0.9c0.1-0.3,0.1-0.7,0.1-1.1c0-0.8-0.2-1.3-0.5-1.8s-0.8-0.6-1.3-0.6H42.5z"/>
</g>
<g>
	<path style="fill:#FFFFFF;" d="M54,59.9c-1.5,0-2.7-0.7-3.5-2.2s-1.3-3.4-1.3-5.8c0-2.5,0.5-4.6,1.4-6.1c0.9-1.5,2.1-2.3,3.7-2.3
		c1.4,0,2.6,0.7,3.5,2.2c0.9,1.5,1.3,3.4,1.3,5.8c0,2.6-0.5,4.6-1.3,6.1S55.5,59.9,54,59.9z M54,45.8c-0.9,0-1.7,0.5-2.3,1.6
		c-0.6,1.1-0.9,2.5-0.9,4.3c0,1.8,0.3,3.2,0.9,4.2c0.6,1.1,1.3,1.6,2.2,1.6c1,0,1.8-0.5,2.3-1.5s0.8-2.5,0.8-4.3
		c0-1.9-0.3-3.3-0.8-4.4C55.8,46.3,55,45.8,54,45.8z"/>
</g>
<g>
	<path style="fill:#FFFFFF;" d="M60.3,59v-2.7c0.2,0.2,0.3,0.4,0.6,0.6c0.2,0.2,0.4,0.3,0.7,0.4c0.2,0.1,0.5,0.2,0.7,0.3
		c0.2,0.1,0.5,0.1,0.7,0.1c0.7,0,1.2-0.2,1.6-0.6s0.5-0.9,0.5-1.6c0-0.4-0.1-0.7-0.2-1c-0.1-0.3-0.3-0.5-0.5-0.8
		c-0.2-0.2-0.5-0.4-0.7-0.7s-0.6-0.4-0.9-0.7c-0.3-0.3-0.7-0.6-1-0.9c-0.3-0.3-0.6-0.6-0.8-1c-0.2-0.4-0.4-0.8-0.5-1.2
		c-0.1-0.4-0.2-1-0.2-1.6c0-0.7,0.1-1.4,0.3-1.9s0.5-1,0.9-1.4c0.4-0.4,0.8-0.6,1.2-0.8s0.9-0.3,1.4-0.3c1.1,0,1.9,0.2,2.3,0.6v2.6
		c-0.6-0.6-1.3-1-2.2-1c-0.3,0-0.5,0-0.8,0.1c-0.2,0.1-0.5,0.2-0.7,0.4c-0.2,0.2-0.4,0.4-0.5,0.7c-0.1,0.3-0.2,0.6-0.2,1
		c0,0.4,0,0.7,0.1,0.9c0.1,0.3,0.2,0.5,0.4,0.7c0.2,0.2,0.4,0.4,0.7,0.6c0.3,0.2,0.6,0.4,0.9,0.7c0.4,0.3,0.7,0.6,1,0.9
		c0.3,0.3,0.6,0.7,0.8,1s0.4,0.8,0.6,1.3s0.2,1,0.2,1.6c0,0.8-0.1,1.5-0.3,2c-0.2,0.6-0.5,1-0.8,1.3s-0.8,0.6-1.2,0.8
		s-0.9,0.2-1.5,0.2c-0.2,0-0.4,0-0.6-0.1c-0.2,0-0.5-0.1-0.8-0.2c-0.3-0.1-0.5-0.2-0.7-0.3C60.7,59.2,60.5,59.1,60.3,59z"/>
</g>
<g>
	<path style="fill:#FFFFFF;" d="M70.5,59.6h-1.7V43.8h1.7V59.6z"/>
</g>
<g>
	<path style="fill:#FFFFFF;" d="M81,43.8l-3.7,15.8h-1.9l-3.6-15.8h1.9l2.5,12c0.1,0.4,0.1,0.8,0.2,1.3h0c0-0.4,0.1-0.9,0.2-1.4
		l2.6-12H81z"/>
</g>
<g>
	<path style="fill:#FFFFFF;" d="M88.2,59.6h-5.7V43.8h5.5V46h-3.8v4.5h3.5v2.2h-3.5v4.7h4V59.6z"/>
</g>
<g>
	<path d="M54.2,16.5c-0.9-0.3-3-0.8-3.4,0.7c-0.4,1.5,0.5,2.3,0.5,2.3s8.8,2.7,9.2,2.8c0.4,0.1,1.9,1,1.9,1l1-4.2L54.2,16.5z
		 M52.2,19.3c0,0-1.2-0.4-1-1.6c0.2-1.3,1.4-1,2.7-0.7c1.3,0.2,8.5,2.3,8.5,2.3H52.2z"/>
</g>
<g>
	<path d="M37.7,18.8c0,0,0,1.8,0.2,2.8s0.7,1.4,0.7,1.4s0.8-0.7,1.2-0.8c0.4-0.1,9.2-2.8,9.2-2.8s0.9-0.8,0.5-2.3
		c-0.4-1.5-2.5-0.9-3.4-0.7L37.7,18.8z M38.6,19.1c0,0,6.5-1.9,7.8-2.1c1.3-0.2,2.5-0.6,2.7,0.7c0.2,1.1-1,1.6-1,1.6L38.6,19.1z"/>
</g>
<g>
	<path d="M38.6,24.3c0,0,0.7,2.5-0.3,2.5S37.9,25,38.6,24.3z"/>
</g>
<g>
	<path d="M38.7,29.5c0,0,0.6,2.6-0.3,2.6c-0.9,0-0.5-1.3-0.4-1.5C38.1,30.4,38.7,29.5,38.7,29.5z"/>
</g>
<g>
	<path d="M41.1,31.1c0,0-1.3,3.4-1.4,3.8c-0.1,0.5,0.5-0.1,0.7-0.5S41.6,31.9,41.1,31.1z"/>
</g>
<g>
	<path d="M41.5,34.5l2.6-4.4c0,0,0.1-0.7-0.2-0.8S41.4,34,41.4,34S41.1,34.3,41.5,34.5z"/>
</g>
<g>
	<path d="M36.2,29.5c0,0,1.6,4.2,1.7,4.8S37.7,35,37.7,35l-2-5C35.7,30,35.5,29.1,36.2,29.5z"/>
</g>
<g>
	<path d="M33.8,29.5l3,5c0,0-0.1,0.4-0.4,0.2c-0.2-0.2-3.1-4.9-3.1-4.9S33.2,29.2,33.8,29.5z"/>
</g>
<g>
	<path d="M62.7,23.2c0,0,1.4,2,1,2.5C63.2,26.1,62.3,26,62.7,23.2z"/>
</g>
<g>
	<path d="M63,27c0,0,1.4,1.4,0.8,2.1c-0.5,0.6-0.9,0-0.9-0.5C62.8,28.1,63,27,63,27z"/>
</g>
<g>
	<path d="M60,25.8c0,0,1.7,2.8,2,3.1c0.3,0.3-0.2,0.4-0.4,0.2C61.5,28.9,59.6,26.9,60,25.8z"/>
</g>
<g>
	<path d="M58.5,26.1c0,0,2.4,3.2,2.3,3.4s-0.5,0.2-0.6,0S58.1,27.2,58.5,26.1z"/>
</g>
<g>
	<path d="M64.4,29.2l1.8-3.1c0,0,0.6-0.7,0.7-0.1c0,0.6-2,3.2-2,3.2S64.8,29.5,64.4,29.2z"/>
</g>
<g>
	<path d="M68.1,25.7c0,0-0.8,2.7-2,4c0,0-0.1,0.6,0.5,0.3c0.5-0.3,2.3-2.9,2.3-3.4C68.8,26,68.9,25.8,68.1,25.7z"/>
</g>
<g>
	<path d="M70.8,36.9c-0.8,0.1-2.8,1-3.7,1.5c-1,0.5-2.5,0.3-3.7,0.4c-1.2,0-5.2-0.3-6.3-0.5c-1.1-0.2-1-0.8-1-0.8s2.9-0.2,3.2-0.2
		c0.3,0,0.1-0.5,0-0.5c-0.1,0-2.2,0.1-3.7,0.1c-1.5,0-1.4-0.6-1.1-0.8c0.3-0.1,3-0.3,4-0.3c1,0,0.5-0.6,0.5-0.6s-3.6,0-4.5-0.2
		c-0.9-0.2,0-1.1,0.3-1.2c0.3-0.1,4.7,0,4.7,0l0.1-0.4c0,0-3-0.2-3.4-0.6s0.4-0.8,0.4-0.8s3.8,0,4.9,0.3c1.1,0.3,3.6,1.4,4.2,1.7
		c0.6,0.3,0.8,0.4,0.9,0.1c0.1-0.2-0.6-1-1.1-1.3c-0.5-0.3-4.4-1.3-4.4-2c0-0.7,1.8-0.1,2.3,0c0.6,0.1,5.8,1.8,6.7,2.1
		c0.6,0.2,1.9,0.1,2.6,0.1l-0.1-0.7c0,0-2.5,0-3.2-0.1c-0.7-0.2-4.6-1.5-5.4-1.8s-2.6-0.8-3.5,0c0,0-0.1,0.7,0.1,0.7h-3.4
		c0,0-2.3,0.4-1.7,1.4c0,0,0,0.3-0.2,0.5c-0.2,0.2-0.9,0.2-1.3,0.6c-0.4,0.4-0.1,1.2-0.1,1.7c0,0.5-0.2,1.2,0.2,1.6
		c0.3,0.4,1.1,0.3,1.4,1c0.3,0.7,1.5,1.2,2.2,1.3c0.8,0,8.3,0,8.8-0.2c0.5-0.2,4.8-1.8,5.9-1.8c1.1,0,1.2-0.3,1.2-0.3l-0.1-0.6
		C72.7,36.6,71.4,36.8,70.8,36.9z"/>
</g>
<g>
	<path d="M47.1,34v4.1H30.9V34h4c0,0,0.7,2.5,2.6,2.6s2.7,0,3.8-0.6c1.1-0.6,1.7-2,1.7-2H47.1z"/>
</g>
</svg>
