<?xml version="1.0" encoding="iso-8859-1"?>
<!-- Generator: Adobe Illustrator 25.4.1, SVG Export Plug-In . SVG Version: 6.00 Build 0)  -->
<svg version="1.1" id="Layer_1" xmlns="http://www.w3.org/2000/svg" xmlns:xlink="http://www.w3.org/1999/xlink" x="0px" y="0px"
	 viewBox="0 0 100 100" style="enable-background:new 0 0 100 100;" xml:space="preserve">
<polygon style="fill:#FFFF00;" points="50.6,1.3 62.65,13.45 74.7,25.6 86.75,37.75 98.8,49.9 86.65,62.1 74.5,74.3 62.35,86.5 
	50.2,98.7 37.95,86.525 25.7,74.35 13.45,62.175 1.2,50 13.55,37.825 25.9,25.65 38.25,13.475 "/>
<path d="M14,51c0-0.525,0.019-1.025,0.055-1.5c0.036-0.475,0.089-0.925,0.157-1.35c0.069-0.425,0.153-0.825,0.252-1.2
	s0.211-0.725,0.336-1.05s0.262-0.631,0.411-0.919c0.148-0.287,0.308-0.556,0.476-0.806s0.347-0.481,0.533-0.694
	c0.186-0.212,0.38-0.406,0.58-0.581s0.413-0.325,0.638-0.452c0.225-0.127,0.462-0.23,0.712-0.311c0.25-0.081,0.512-0.14,0.788-0.179
	C19.212,41.919,19.5,41.9,19.8,41.9c0.425,0,0.825,0.05,1.203,0.148c0.378,0.099,0.734,0.246,1.072,0.44
	c0.337,0.194,0.656,0.434,0.959,0.72c0.303,0.286,0.591,0.617,0.866,0.992c0.275,0.4,0.512,0.837,0.714,1.314
	c0.201,0.477,0.367,0.992,0.498,1.548c0.132,0.556,0.229,1.153,0.293,1.793S25.5,50.175,25.5,50.9s-0.038,1.412-0.111,2.061
	c-0.073,0.648-0.183,1.258-0.327,1.827s-0.322,1.097-0.533,1.583C24.319,56.857,24.075,57.3,23.8,57.7
	c-0.25,0.35-0.519,0.663-0.808,0.934c-0.289,0.272-0.598,0.503-0.929,0.691c-0.332,0.188-0.685,0.331-1.061,0.428
	C20.625,59.85,20.225,59.9,19.8,59.9s-0.825-0.044-1.202-0.133c-0.377-0.089-0.73-0.223-1.061-0.404
	c-0.331-0.181-0.64-0.41-0.929-0.686C16.319,58.4,16.05,58.075,15.8,57.7c-0.3-0.4-0.562-0.844-0.788-1.328
	c-0.225-0.484-0.412-1.009-0.562-1.572s-0.262-1.162-0.337-1.797C14.038,52.369,14,51.7,14,51z M16.4,50.9
	c0,0.5,0.019,0.969,0.056,1.406c0.038,0.438,0.094,0.844,0.169,1.219s0.169,0.719,0.281,1.031S17.15,55.15,17.3,55.4
	s0.312,0.469,0.486,0.656s0.358,0.344,0.552,0.469c0.193,0.125,0.396,0.219,0.607,0.281c0.211,0.062,0.43,0.094,0.655,0.094
	s0.444-0.031,0.655-0.094s0.414-0.156,0.608-0.281c0.194-0.125,0.378-0.281,0.551-0.469c0.173-0.188,0.336-0.406,0.486-0.656
	s0.281-0.531,0.394-0.845c0.113-0.314,0.206-0.661,0.281-1.043c0.075-0.381,0.131-0.797,0.169-1.248S22.8,51.325,22.8,50.8
	c0-0.5-0.019-0.969-0.056-1.406s-0.094-0.844-0.169-1.219s-0.169-0.719-0.281-1.031C22.181,46.831,22.05,46.55,21.9,46.3
	s-0.312-0.462-0.486-0.641c-0.174-0.178-0.358-0.322-0.552-0.434c-0.194-0.112-0.396-0.194-0.607-0.247S19.825,44.9,19.6,44.9
	s-0.444,0.031-0.656,0.094s-0.419,0.156-0.619,0.281s-0.394,0.281-0.581,0.469c-0.188,0.188-0.369,0.406-0.544,0.656
	c-0.125,0.225-0.237,0.487-0.336,0.787c-0.098,0.3-0.183,0.638-0.251,1.013c-0.069,0.375-0.122,0.787-0.158,1.237
	S16.4,50.375,16.4,50.9z"/>
<path d="M26,59.6l1-2.275l1-2.275l1-2.275l1-2.275l-0.925-2.1l-0.925-2.1l-0.925-2.1L26.3,42.1H27h0.7h0.7h0.7l0.575,1.3l0.575,1.3
	l0.575,1.3l0.575,1.3l0.575-1.3l0.575-1.3l0.575-1.3l0.575-1.3h0.675h0.675h0.675H36.4l-0.925,2.075L34.55,46.25l-0.925,2.075
	L32.7,50.4l1,2.275l1,2.275l1,2.275l1,2.275h-0.725H35.25h-0.725H33.8l-0.65-1.475L32.5,56.55l-0.65-1.475L31.2,53.6l-0.65,1.475
	L29.9,56.55l-0.65,1.475L28.6,59.5h-0.65H27.3h-0.65H26v0.025v0.025v0.025V59.6z"/>
<path d="M41.2,59.6v-1.825V55.95v-1.825V52.3l-1.075-2.525L39.05,47.25l-1.075-2.525L36.9,42.2h0.7h0.7H39h0.7l0.7,1.725l0.7,1.725
	l0.7,1.725l0.7,1.725l0.675-1.725l0.675-1.725l0.675-1.725L45.2,42.2h0.675h0.675h0.675H47.9l-1.075,2.525L45.75,47.25l-1.075,2.525
	L43.6,52.3v1.825v1.825v1.825V59.6c0,0-0.15,0-0.375,0s-0.525,0-0.825,0s-0.6,0-0.825,0C41.35,59.6,41.2,59.6,41.2,59.6z"/>
<path d="M54.5,53.2v-0.725V51.75v-0.725V50.3h1.275h1.275h1.275H59.6v1.725v1.725v1.725V57.2c-0.125,0.175-0.263,0.35-0.414,0.522
	c-0.151,0.172-0.317,0.341-0.498,0.503c-0.181,0.162-0.378,0.319-0.593,0.466c-0.214,0.147-0.445,0.284-0.695,0.409
	s-0.494,0.237-0.733,0.336c-0.239,0.098-0.474,0.183-0.705,0.251c-0.231,0.069-0.459,0.122-0.686,0.158
	C55.05,59.881,54.825,59.9,54.6,59.9c-0.3,0-0.588-0.019-0.864-0.058c-0.277-0.039-0.542-0.098-0.798-0.179
	c-0.257-0.082-0.503-0.185-0.743-0.311c-0.239-0.127-0.47-0.277-0.695-0.452s-0.438-0.369-0.638-0.583
	c-0.2-0.214-0.388-0.448-0.562-0.704c-0.175-0.257-0.337-0.535-0.487-0.836c-0.15-0.302-0.287-0.627-0.412-0.977
	s-0.237-0.713-0.336-1.089c-0.099-0.377-0.183-0.767-0.252-1.174c-0.069-0.406-0.122-0.828-0.157-1.267
	c-0.036-0.439-0.055-0.895-0.055-1.37s0.019-0.938,0.055-1.384c0.036-0.447,0.089-0.878,0.157-1.291
	c0.069-0.413,0.153-0.806,0.252-1.178c0.098-0.372,0.211-0.722,0.336-1.047c0.125-0.35,0.263-0.675,0.411-0.977
	c0.149-0.301,0.308-0.579,0.477-0.835c0.168-0.257,0.346-0.491,0.532-0.705c0.186-0.214,0.38-0.408,0.58-0.583
	s0.412-0.325,0.638-0.452c0.225-0.127,0.462-0.23,0.712-0.311c0.25-0.081,0.513-0.14,0.787-0.179C53.812,41.919,54.1,41.9,54.4,41.9
	c0.35,0,0.681,0.025,0.995,0.076s0.611,0.13,0.893,0.236s0.547,0.241,0.798,0.405c0.251,0.164,0.489,0.358,0.714,0.583
	c0.2,0.225,0.388,0.469,0.559,0.734s0.328,0.553,0.466,0.866s0.256,0.65,0.353,1.016C59.275,46.181,59.35,46.575,59.4,47
	l-0.575,0.175L58.25,47.35l-0.575,0.175L57.1,47.7c-0.05-0.225-0.106-0.438-0.17-0.638c-0.064-0.2-0.136-0.387-0.218-0.562
	s-0.172-0.338-0.273-0.488c-0.101-0.15-0.214-0.287-0.339-0.412s-0.25-0.231-0.378-0.32c-0.128-0.089-0.259-0.161-0.397-0.218
	c-0.137-0.056-0.281-0.097-0.434-0.123C54.737,44.913,54.575,44.9,54.4,44.9c-0.25,0-0.487,0.031-0.713,0.092
	c-0.225,0.061-0.438,0.151-0.637,0.27c-0.2,0.119-0.388,0.266-0.563,0.439C52.312,45.875,52.15,46.075,52,46.3
	s-0.281,0.487-0.394,0.786s-0.206,0.633-0.281,1.002c-0.075,0.368-0.131,0.772-0.169,1.207C51.119,49.731,51.1,50.2,51.1,50.7
	c0,0.525,0.019,1.019,0.058,1.481c0.039,0.462,0.098,0.894,0.179,1.294c0.081,0.4,0.185,0.769,0.311,1.106
	c0.127,0.337,0.277,0.644,0.452,0.919c0.15,0.225,0.312,0.425,0.486,0.598s0.358,0.32,0.551,0.439
	c0.194,0.118,0.397,0.209,0.608,0.27S54.175,56.9,54.4,56.9c0.125,0,0.244-0.006,0.359-0.02c0.116-0.014,0.228-0.036,0.341-0.067
	s0.225-0.072,0.341-0.124s0.234-0.114,0.359-0.189s0.244-0.15,0.358-0.228s0.224-0.159,0.33-0.247
	c0.106-0.088,0.209-0.181,0.31-0.284C56.9,55.638,57,55.525,57.1,55.4v-0.55V54.3v-0.55V53.2c0,0-0.162,0-0.406,0s-0.569,0-0.894,0
	s-0.65,0-0.894,0C54.662,53.2,54.5,53.2,54.5,53.2z"/>
<path d="M61.8,59.6v-4.35V50.9v-4.35V42.2h2.175h2.175h2.175H70.5v0.725v0.725v0.725V45.1h-1.575H67.35h-1.575H64.2v0.975v0.975
	v0.975V49h1.45h1.45h1.45H70v0.725v0.725v0.725V51.9h-1.475H67.05h-1.475H64.1v1.175v1.175v1.175V56.6h1.625h1.625h1.625H70.6v0.725
	v0.725v0.725V59.5h-2.2h-2.2H64h-2.2v0.025v0.025c0,0,0,0.013,0,0.025C61.8,59.587,61.8,59.6,61.8,59.6z"/>
<path d="M72.7,59.6v-4.35V50.9v-4.35V42.2h0.575h0.575h0.575H75l1.2,2.9l1.2,2.9l1.2,2.9l1.2,2.9v-2.9V48v-2.9v-2.9h0.55h0.55h0.55
	H82v4.35v4.35v4.35v4.35h-0.6h-0.6h-0.6h-0.6l-1.175-2.85L77.25,53.9l-1.175-2.85L74.9,48.2v2.85v2.85v2.85v2.85h-0.55H73.8
	c0,0-0.275,0-0.55,0C72.975,59.6,72.7,59.6,72.7,59.6z"/>
<path d="M58.8,22.2c0.075-0.25,0.112-0.462,0.126-0.641s0.005-0.322-0.014-0.434c-0.018-0.112-0.046-0.194-0.07-0.247
	S58.8,20.8,58.8,20.8c0,0.25-0.081,0.444-0.205,0.587c-0.123,0.144-0.289,0.238-0.457,0.288c-0.169,0.05-0.341,0.056-0.477,0.025
	c-0.136-0.031-0.236-0.1-0.261-0.2s-0.062-0.219-0.108-0.345c-0.045-0.126-0.099-0.261-0.155-0.392
	c-0.056-0.132-0.115-0.26-0.173-0.374c-0.058-0.114-0.114-0.214-0.164-0.289c-0.025-0.075-0.05-0.231-0.073-0.43
	c-0.024-0.198-0.046-0.439-0.065-0.682c-0.018-0.244-0.034-0.491-0.045-0.702C56.606,18.075,56.6,17.9,56.6,17.8
	s-0.025-0.3-0.062-0.544C56.5,17.012,56.45,16.725,56.4,16.45s-0.1-0.538-0.138-0.731C56.225,15.525,56.2,15.4,56.2,15.4
	s-0.013,0.025-0.034,0.076c-0.022,0.052-0.053,0.13-0.091,0.236s-0.081,0.241-0.128,0.405C55.9,16.281,55.85,16.475,55.8,16.7
	s-0.156,0.406-0.289,0.541c-0.133,0.134-0.292,0.222-0.448,0.259c-0.156,0.038-0.309,0.025-0.429-0.041
	c-0.12-0.066-0.208-0.184-0.234-0.359c-0.05-0.15-0.125-0.306-0.209-0.456s-0.178-0.294-0.266-0.419s-0.169-0.231-0.228-0.306
	C53.637,15.844,53.6,15.8,53.6,15.8s0-0.069,0-0.184s0-0.278,0-0.466s0-0.4,0-0.616s0-0.434,0-0.634
	c0-0.225-0.019-0.475-0.048-0.714s-0.07-0.467-0.114-0.649c-0.044-0.181-0.091-0.315-0.133-0.367c-0.042-0.052-0.08-0.02-0.105,0.13
	s-0.125,0.331-0.261,0.505c-0.136,0.173-0.308,0.339-0.477,0.457c-0.168,0.119-0.334,0.191-0.457,0.177S51.8,13.325,51.8,13.1
	s-0.031-0.444-0.091-0.664c-0.059-0.22-0.147-0.442-0.259-0.673c-0.112-0.232-0.25-0.472-0.409-0.73
	C50.881,10.775,50.7,10.5,50.5,10.2c-0.225-0.275-0.381-0.613-0.489-0.964c-0.108-0.352-0.167-0.717-0.198-1.049
	c-0.031-0.331-0.035-0.628-0.03-0.842C49.787,7.131,49.8,7,49.8,7c-0.125,0.075-0.269,0.238-0.416,0.455
	c-0.147,0.217-0.297,0.489-0.434,0.783c-0.138,0.293-0.263,0.609-0.359,0.914C48.494,9.456,48.425,9.75,48.4,10
	s-0.013,0.512,0.031,0.774c0.044,0.261,0.119,0.521,0.219,0.764c0.1,0.243,0.225,0.471,0.369,0.67
	c0.144,0.198,0.306,0.367,0.481,0.492c0.175,0.1,0.287,0.344,0.344,0.655s0.056,0.689,0.006,1.057
	c-0.05,0.369-0.15,0.728-0.294,1.002S49.225,15.875,49,15.9s-0.381-0.056-0.5-0.203s-0.2-0.359-0.275-0.597s-0.144-0.5-0.238-0.747
	c-0.094-0.247-0.212-0.478-0.387-0.653c-0.175-0.15-0.344-0.262-0.498-0.347c-0.155-0.084-0.295-0.141-0.414-0.178
	c-0.119-0.037-0.216-0.056-0.283-0.066C46.338,13.1,46.3,13.1,46.3,13.1c0.025,0.25,0.062,0.5,0.105,0.748s0.089,0.495,0.132,0.74
	c0.044,0.243,0.085,0.484,0.115,0.72C46.681,15.544,46.7,15.775,46.7,16c0,0.25-0.05,0.494-0.136,0.716
	c-0.086,0.222-0.208,0.422-0.351,0.584c-0.144,0.163-0.31,0.288-0.483,0.359S45.375,17.75,45.2,17.7
	c-0.175-0.025-0.319-0.125-0.436-0.261c-0.117-0.136-0.208-0.308-0.277-0.476c-0.069-0.169-0.115-0.335-0.145-0.458
	S44.3,16.3,44.3,16.3c-0.15,0.025-0.25,0.119-0.317,0.267c-0.067,0.148-0.102,0.351-0.121,0.595
	c-0.019,0.244-0.021,0.528-0.026,0.84C43.831,18.312,43.825,18.65,43.8,19c0,0.35-0.05,0.675-0.138,0.964
	c-0.088,0.289-0.213,0.542-0.362,0.748s-0.325,0.365-0.513,0.467s-0.387,0.145-0.587,0.12s-0.375-0.088-0.525-0.168
	c-0.15-0.08-0.275-0.176-0.375-0.27c-0.1-0.093-0.175-0.183-0.225-0.25S41,20.5,41,20.5s0,0.062,0.011,0.164
	c0.011,0.101,0.033,0.242,0.077,0.398c0.043,0.156,0.109,0.328,0.207,0.493c0.098,0.164,0.23,0.32,0.405,0.445
	s0.281,0.381,0.336,0.703c0.055,0.322,0.058,0.709,0.026,1.097c-0.031,0.388-0.097,0.775-0.179,1.097
	C41.8,25.219,41.7,25.475,41.6,25.6c-0.125,0.125-0.194,0.312-0.217,0.531s-0.001,0.469,0.055,0.719
	c0.056,0.25,0.146,0.5,0.26,0.719c0.114,0.219,0.251,0.406,0.402,0.531c0.15,0.1,0.356,0.319,0.581,0.591
	c0.225,0.272,0.469,0.597,0.694,0.909s0.431,0.613,0.581,0.834C44.106,30.656,44.2,30.8,44.2,30.8l0,0l0,0l0,0l0,0
	c0.2,0.75,0.519,1.45,0.934,2.078s0.928,1.184,1.516,1.647s1.25,0.831,1.966,1.084C49.331,35.862,50.1,36,50.9,36
	c0.9,0,1.763-0.181,2.555-0.509c0.792-0.328,1.514-0.803,2.133-1.391s1.134-1.288,1.514-2.066c0.38-0.778,0.623-1.634,0.699-2.534
	l0,0l0,0l0,0l0,0c0.025-0.075,0.069-0.288,0.128-0.575s0.134-0.65,0.222-1.025s0.188-0.763,0.297-1.1s0.228-0.625,0.353-0.8
	c0.15-0.225,0.206-0.506,0.211-0.819c0.005-0.312-0.042-0.656-0.099-1.006c-0.057-0.35-0.122-0.706-0.155-1.044
	S58.725,22.475,58.8,22.2z M44.5,24.5c-0.1,0.175-0.181,0.337-0.248,0.489c-0.067,0.152-0.12,0.292-0.164,0.424
	c-0.044,0.131-0.079,0.253-0.108,0.367c-0.03,0.114-0.055,0.22-0.08,0.32s-0.106,0.156-0.208,0.17
	c-0.102,0.014-0.223-0.014-0.329-0.083c-0.107-0.069-0.197-0.178-0.236-0.326C43.088,25.712,43.1,25.525,43.2,25.3
	s0.2-0.456,0.294-0.681s0.181-0.444,0.256-0.644c0.075-0.2,0.138-0.381,0.181-0.531C43.975,23.294,44,23.175,44,23.1
	s0.013-0.212,0.041-0.373c0.028-0.161,0.072-0.346,0.134-0.515s0.144-0.322,0.247-0.42S44.65,21.65,44.8,21.7
	c0,0,0,0.131-0.005,0.339c-0.005,0.208-0.014,0.492-0.032,0.798c-0.019,0.307-0.047,0.635-0.09,0.93
	C44.631,24.062,44.575,24.325,44.5,24.5z M54.1,21.3c0.025-0.175,0.112-0.319,0.23-0.436c0.117-0.117,0.264-0.208,0.408-0.276
	c0.144-0.069,0.284-0.116,0.389-0.146C55.231,20.413,55.3,20.4,55.3,20.4s0.006,0.087,0.011,0.22
	c0.005,0.133,0.008,0.311,0.002,0.492c-0.007,0.181-0.022,0.366-0.055,0.511S55.175,21.875,55.1,21.9s-0.175,0.044-0.283,0.047
	s-0.223-0.009-0.329-0.047c-0.106-0.038-0.203-0.1-0.274-0.197C54.144,21.606,54.1,21.475,54.1,21.3z M51.3,16.7
	c0.1-0.125,0.206-0.275,0.309-0.43c0.103-0.155,0.203-0.314,0.291-0.457s0.162-0.271,0.216-0.364
	c0.053-0.092,0.084-0.148,0.084-0.148s0.019,0.069,0.048,0.181c0.03,0.113,0.07,0.269,0.114,0.444
	c0.044,0.174,0.091,0.368,0.133,0.555c0.042,0.187,0.08,0.369,0.105,0.519s0.056,0.412,0.083,0.723
	c0.027,0.311,0.049,0.671,0.055,1.015c0.006,0.344-0.003,0.671-0.039,0.92C52.662,19.906,52.6,20.075,52.5,20.1
	s-0.237,0.062-0.389,0.089c-0.152,0.026-0.317,0.042-0.473,0.023c-0.157-0.018-0.304-0.072-0.418-0.182S51.025,19.75,51,19.5
	s-0.044-0.519-0.052-0.789c-0.008-0.27-0.005-0.542,0.014-0.798c0.019-0.257,0.053-0.497,0.108-0.705
	C51.125,17,51.2,16.825,51.3,16.7z M47.7,18.3c0.05-0.15,0.1-0.294,0.147-0.425c0.047-0.131,0.091-0.25,0.128-0.35
	c0.037-0.1,0.069-0.181,0.091-0.237S48.1,17.2,48.1,17.2s0.081,0.087,0.2,0.244c0.119,0.156,0.275,0.381,0.425,0.656
	s0.294,0.6,0.388,0.956C49.206,19.413,49.25,19.8,49.2,20.2c-0.025,0.4-0.181,0.712-0.402,0.942c-0.22,0.23-0.505,0.376-0.786,0.445
	c-0.281,0.069-0.559,0.06-0.767-0.023C47.038,21.481,46.9,21.325,46.9,21.1c0-0.2,0.044-0.438,0.111-0.691
	c0.067-0.253,0.158-0.522,0.251-0.784c0.094-0.263,0.191-0.519,0.271-0.747C47.613,18.65,47.675,18.45,47.7,18.3z M50.8,34.4
	c-0.8,0-1.562-0.169-2.256-0.475c-0.694-0.306-1.319-0.75-1.844-1.3c-0.525-0.55-0.95-1.206-1.244-1.938S45,29.15,45,28.3
	c0-0.825,0.162-1.619,0.456-2.345c0.294-0.727,0.719-1.386,1.244-1.943c0.525-0.556,1.15-1.009,1.844-1.323
	C49.237,22.375,50,22.2,50.8,22.2s1.562,0.169,2.256,0.475c0.694,0.306,1.319,0.75,1.844,1.3s0.95,1.206,1.244,1.938
	S56.6,27.45,56.6,28.3s-0.162,1.656-0.456,2.388s-0.719,1.388-1.244,1.938s-1.15,0.994-1.844,1.3C52.362,34.231,51.6,34.4,50.8,34.4
	z"/>
<polygon points="43.9,36.6 47.3,36.6 50.7,36.6 54.1,36.6 57.5,36.6 57.5,36.9 57.5,37.2 57.5,37.5 57.5,37.8 54.1,37.8 50.7,37.8 
	47.3,37.8 43.9,37.8 43.9,37.5 43.9,37.2 43.9,36.9 "/>
</svg>
