<?xml version="1.0" encoding="utf-8"?>
<!-- Generator: Adobe Illustrator 25.2.0, SVG Export Plug-In . SVG Version: 6.00 Build 0)  -->
<svg version="1.1" id="Layer_1" xmlns="http://www.w3.org/2000/svg" xmlns:xlink="http://www.w3.org/1999/xlink" x="0px" y="0px"
	 viewBox="0 0 100 100" style="enable-background:new 0 0 100 100;" xml:space="preserve">
<polygon style="fill:#F3AA3C;" points="50.6,1.8 98,49.9 50.2,98.2 2,50 "/>
<g>
	<path d="M45.5,29.8h-8v-2.1H40v-6.3h-2.6v-1.9c0.4,0,0.7,0,1.1-0.1c0.4,0,0.7-0.1,0.9-0.2c0.3-0.1,0.5-0.3,0.6-0.5
		c0.1-0.2,0.2-0.5,0.2-0.8H43v9.8h2.5V29.8z"/>
</g>
<g>
	<path d="M50.6,29.8h-2.9v-3.1h2.9V29.8z"/>
</g>
<g>
	<path d="M61.6,25.8c0,0.6-0.1,1.2-0.3,1.7c-0.2,0.5-0.5,1-1,1.4c-0.4,0.4-0.9,0.7-1.5,0.9S57.5,30,56.6,30c-0.9,0-1.7-0.1-2.3-0.2
		c-0.7-0.1-1.2-0.3-1.6-0.5v-2.6H53c0.2,0.1,0.3,0.2,0.5,0.3c0.2,0.1,0.4,0.2,0.8,0.3c0.3,0.1,0.6,0.2,0.9,0.3
		c0.3,0.1,0.6,0.1,1,0.1c0.3,0,0.7,0,1-0.1s0.7-0.2,0.9-0.4c0.2-0.2,0.3-0.3,0.4-0.5c0.1-0.2,0.1-0.5,0.1-0.8c0-0.3-0.1-0.5-0.2-0.7
		s-0.3-0.4-0.5-0.5c-0.3-0.2-0.6-0.3-1-0.3c-0.4-0.1-0.7-0.1-1-0.1c-0.4,0-0.9,0-1.3,0.1s-0.8,0.1-1.1,0.2h-0.3v-6.7h8v2.2h-5.2v2
		c0.2,0,0.4,0,0.6,0c0.2,0,0.4,0,0.5,0c0.6,0,1.1,0.1,1.6,0.2c0.5,0.1,0.9,0.3,1.3,0.5c0.5,0.3,0.8,0.7,1.1,1.2
		C61.5,24.5,61.6,25.1,61.6,25.8z"/>
</g>
<g>
	<path d="M24.9,49.1c0,0.6-0.1,1.1-0.3,1.6s-0.4,0.8-0.7,1.1c-0.4,0.4-0.8,0.6-1.2,0.8s-1,0.2-1.6,0.2h-3.8V40.8h3.4
		c0.7,0,1.2,0,1.6,0.1c0.4,0.1,0.7,0.2,1,0.4c0.3,0.2,0.6,0.5,0.8,0.9c0.2,0.4,0.3,0.8,0.3,1.3c0,0.6-0.1,1.1-0.4,1.5s-0.6,0.8-1,1
		v0.1c0.6,0.2,1.1,0.5,1.4,0.9C24.7,47.6,24.9,48.2,24.9,49.1z M21.8,44.2c0-0.2,0-0.4-0.1-0.6c-0.1-0.2-0.2-0.3-0.4-0.4
		C21.2,43,21,43,20.8,43c-0.2,0-0.5,0-1,0h-0.2v2.5h0.3c0.4,0,0.7,0,0.9,0c0.2,0,0.3-0.1,0.5-0.2c0.2-0.1,0.3-0.3,0.4-0.5
		C21.8,44.7,21.8,44.4,21.8,44.2z M22.4,49c0-0.4-0.1-0.7-0.2-0.9c-0.1-0.2-0.3-0.4-0.5-0.5c-0.1-0.1-0.3-0.1-0.6-0.1
		c-0.3,0-0.6,0-1,0h-0.4v3h0.1c0.6,0,1.1,0,1.3,0c0.2,0,0.5-0.1,0.7-0.2c0.2-0.1,0.4-0.3,0.5-0.5C22.4,49.5,22.4,49.3,22.4,49z"/>
</g>
<g>
	<path d="M32.7,52.7h-6.4V40.8h2.4v9.6h4V52.7z"/>
</g>
<g>
	<path d="M32.8,52.7L36,40.8h2.6l3.2,11.9h-2.5l-0.6-2.4h-3l-0.6,2.4H32.8z M38.3,48.1l-1-3.9l-1,3.9H38.3z"/>
</g>
<g>
	<path d="M45.8,52.9c-0.7,0-1.4-0.1-1.9-0.3c-0.6-0.2-1.1-0.4-1.5-0.7v-2.8h0.2c0.5,0.5,1,0.9,1.6,1.2s1.1,0.4,1.7,0.4
		c0.1,0,0.3,0,0.5-0.1c0.2,0,0.4-0.1,0.5-0.2c0.2-0.1,0.3-0.2,0.4-0.4c0.1-0.2,0.2-0.4,0.2-0.6c0-0.3-0.1-0.5-0.3-0.7
		s-0.4-0.3-0.7-0.4c-0.3-0.1-0.7-0.2-1-0.3c-0.4-0.1-0.7-0.2-1-0.4c-0.7-0.3-1.3-0.8-1.6-1.3c-0.3-0.5-0.5-1.2-0.5-2.1
		c0-1.1,0.4-2,1.1-2.7s1.7-1,2.8-1c0.6,0,1.1,0.1,1.7,0.2c0.6,0.1,1.1,0.3,1.5,0.6v2.7h-0.2c-0.4-0.4-0.8-0.7-1.3-1
		c-0.5-0.3-1-0.4-1.6-0.4c-0.2,0-0.4,0-0.6,0.1s-0.3,0.1-0.5,0.2c-0.2,0.1-0.3,0.2-0.4,0.4c-0.1,0.2-0.2,0.4-0.2,0.6
		c0,0.3,0.1,0.5,0.3,0.7c0.2,0.2,0.5,0.3,1,0.5c0.3,0.1,0.6,0.2,0.9,0.3c0.3,0.1,0.6,0.2,1,0.4c0.7,0.3,1.2,0.7,1.5,1.2
		s0.5,1.2,0.5,2c0,1.2-0.4,2.1-1.1,2.9S47,52.9,45.8,52.9z"/>
</g>
<g>
	<path d="M53,52.7v-9.6h-2.8v-2.3h8.1v2.3h-2.8v9.6H53z"/>
</g>
<g>
	<path d="M64,52.7h-5.2v-2.1h1.4v-7.7h-1.4v-2.1H64v2.1h-1.4v7.7H64V52.7z"/>
</g>
<g>
	<path d="M73.7,52.7h-2.3l-3.7-8.3v8.3h-2.2V40.8h2.9l3.1,6.8v-6.8h2.2V52.7z"/>
</g>
<g>
	<path d="M83.7,52c-0.4,0.2-1,0.4-1.6,0.6c-0.7,0.2-1.3,0.3-2,0.3c-1.5,0-2.7-0.5-3.6-1.6s-1.3-2.6-1.3-4.6c0-1.9,0.4-3.4,1.3-4.5
		c0.9-1.1,2.1-1.7,3.7-1.7c0.8,0,1.5,0.1,2,0.3s1,0.4,1.6,0.8v2.8h-0.2c-0.1-0.1-0.3-0.3-0.5-0.5c-0.2-0.2-0.4-0.4-0.6-0.5
		c-0.2-0.2-0.5-0.3-0.8-0.4c-0.3-0.1-0.6-0.2-1-0.2c-0.4,0-0.8,0.1-1.1,0.2s-0.6,0.4-0.9,0.7c-0.3,0.3-0.5,0.7-0.6,1.2
		s-0.2,1.1-0.2,1.7c0,1.4,0.3,2.4,0.8,3.1c0.6,0.7,1.3,1,2.3,1c0.1,0,0.2,0,0.3,0c0.1,0,0.2,0,0.3,0v-2.3h-1.9v-2.2h4.2V52z"/>
</g>
<g>
	<path d="M23.6,68.6l3.2-12.8h2.6l3.2,12.8h-2.4L29.6,66h-3L26,68.6H23.6z M29.1,63.7l-1-4.2l-1,4.2H29.1z"/>
</g>
<g>
	<path d="M41.4,67.9c-0.4,0.2-1,0.5-1.6,0.7c-0.7,0.2-1.3,0.3-2,0.3c-1.5,0-2.7-0.6-3.5-1.7C33.4,66,33,64.3,33,62.2
		c0-2,0.4-3.6,1.3-4.8s2.1-1.8,3.6-1.8c0.8,0,1.4,0.1,1.9,0.3c0.5,0.2,1,0.5,1.5,0.8v3h-0.2c-0.1-0.1-0.3-0.3-0.5-0.5
		c-0.2-0.2-0.4-0.4-0.6-0.6c-0.2-0.2-0.5-0.3-0.8-0.5c-0.3-0.1-0.6-0.2-1-0.2c-0.4,0-0.8,0.1-1.1,0.3s-0.6,0.4-0.9,0.8
		c-0.2,0.3-0.4,0.8-0.6,1.3s-0.2,1.1-0.2,1.8c0,1.5,0.3,2.6,0.8,3.3c0.6,0.7,1.3,1.1,2.3,1.1c0.1,0,0.2,0,0.3,0c0.1,0,0.2,0,0.3,0
		V64h-1.8v-2.4h4.1V67.9z"/>
</g>
<g>
	<path d="M43.2,68.6V55.8h6.4v2.4h-4v2.2h3.7v2.4h-3.7v3.2h4v2.4H43.2z"/>
</g>
<g>
	<path d="M59.3,68.6H57l-3.6-8.9v8.9h-2.2V55.8h2.9l3,7.3v-7.3h2.2V68.6z"/>
</g>
<g>
	<path d="M63,68.6V58.3h-2.8v-2.4h8v2.4h-2.8v10.3H63z"/>
</g>
<g>
	<path d="M72.1,68.8c-0.7,0-1.4-0.1-1.9-0.3c-0.5-0.2-1.1-0.4-1.5-0.7v-3h0.2c0.5,0.5,1,1,1.6,1.3c0.6,0.3,1.1,0.4,1.7,0.4
		c0.1,0,0.3,0,0.5-0.1c0.2,0,0.4-0.1,0.5-0.2c0.2-0.1,0.3-0.2,0.4-0.4s0.2-0.4,0.2-0.7c0-0.3-0.1-0.6-0.3-0.8
		c-0.2-0.2-0.4-0.3-0.7-0.4c-0.3-0.1-0.7-0.2-1-0.3c-0.4-0.1-0.7-0.2-1-0.4c-0.7-0.3-1.3-0.8-1.6-1.4c-0.3-0.6-0.5-1.3-0.5-2.2
		c0-1.2,0.4-2.2,1.1-2.9c0.7-0.7,1.7-1.1,2.8-1.1c0.6,0,1.1,0.1,1.7,0.2c0.6,0.2,1.1,0.4,1.5,0.6v2.9h-0.2c-0.4-0.4-0.8-0.7-1.3-1
		c-0.5-0.3-1-0.4-1.6-0.4c-0.2,0-0.4,0-0.6,0.1s-0.3,0.1-0.5,0.2c-0.1,0.1-0.3,0.2-0.4,0.4c-0.1,0.2-0.2,0.4-0.2,0.6
		c0,0.3,0.1,0.6,0.3,0.8c0.2,0.2,0.5,0.4,1,0.5c0.3,0.1,0.6,0.2,0.9,0.3s0.6,0.2,0.9,0.4c0.7,0.3,1.1,0.8,1.5,1.3s0.5,1.3,0.5,2.1
		c0,1.3-0.4,2.3-1.1,3.1C74.4,68.4,73.4,68.8,72.1,68.8z"/>
</g>
</svg>
