<?xml version="1.0" encoding="utf-8"?>
<!-- Generator: Adobe Illustrator 25.2.0, SVG Export Plug-In . SVG Version: 6.00 Build 0)  -->
<svg version="1.1" id="Layer_1" xmlns="http://www.w3.org/2000/svg" xmlns:xlink="http://www.w3.org/1999/xlink" x="0px" y="0px"
	 viewBox="0 0 100 100" style="enable-background:new 0 0 100 100;" xml:space="preserve">
<g>
	<path d="M25.2,57.6h-2.6l-0.7-3.3h-3.7l-0.7,3.3h-2.6l3.8-15h2.8L25.2,57.6z M21.4,51.7l-1.1-5c-0.1-0.4-0.1-0.8-0.2-1.3H20
		c0,0.4-0.1,0.9-0.2,1.3l-1.1,5.1H21.4z"/>
</g>
<g>
	<path d="M32.8,57.6h-6.3v-15h2.4v12.2h3.9V57.6z"/>
</g>
<g>
	<path d="M43,57.6h-3l-3.1-6.5c-0.1-0.1-0.2-0.4-0.3-0.8h0v7.3h-2.4v-15h2.4v7.1h0c0.1-0.2,0.2-0.5,0.3-0.8l2.9-6.2h2.8L39,49.8
		L43,57.6z"/>
</g>
<g>
	<path d="M53.2,57.6h-2.6l-0.7-3.3h-3.7l-0.7,3.3h-2.6l3.8-15h2.8L53.2,57.6z M49.3,51.7l-1.1-5c-0.1-0.4-0.1-0.8-0.2-1.3H48
		c0,0.4-0.1,0.9-0.2,1.3l-1.1,5.1H49.3z"/>
</g>
<g>
	<path d="M60.8,57.6h-6.3v-15h2.4v12.2h3.9V57.6z"/>
</g>
<g>
	<path d="M64.6,57.6h-2.4v-15h2.4V57.6z"/>
</g>
<g>
	<path d="M76.4,57.6H74l-4.3-9.4c-0.3-0.5-0.4-1-0.5-1.2h0c0,0.5,0.1,1.3,0.1,2.4v8.2H67v-15h2.6l4.2,9.1c0.2,0.4,0.4,0.8,0.5,1.2h0
		c0-0.3-0.1-1-0.1-2.1v-8.3h2.2V57.6z"/>
</g>
<g>
	<path d="M85.1,57.6h-6.3v-15h6.1v2.7h-3.7v3.3h3.4v2.7h-3.4v3.4h3.9V57.6z"/>
</g>
<g>
	<path d="M53.9,16.1c-0.8-0.2-2.8-0.8-3.2,0.6c-0.4,1.4,0.4,2.1,0.4,2.1s8,2.6,8.4,2.6c0.3,0.1,1.8,0.9,1.8,0.9l0.9-3.9L53.9,16.1z
		 M52,18.7c0,0-1.1-0.4-0.9-1.5c0.2-1.3,1.2-0.9,2.5-0.7c1.2,0.2,7.8,2.1,7.8,2.1H52z"/>
</g>
<g>
	<path d="M38.8,18.3c0,0,0,1.7,0.2,2.6c0.2,0.9,0.7,1.3,0.7,1.3s0.7-0.6,1.1-0.7c0.3-0.1,8.4-2.6,8.4-2.6s0.8-0.7,0.4-2.1
		c-0.4-1.4-2.3-0.9-3.2-0.6L38.8,18.3z M39.6,18.6c0,0,5.9-1.8,7.1-2c1.2-0.2,2.3-0.6,2.5,0.7c0.2,1-0.9,1.5-0.9,1.5L39.6,18.6z"/>
</g>
<g>
	<path d="M39.6,23.4c0,0,0.6,2.3-0.2,2.3C38.5,25.8,39,24.1,39.6,23.4z"/>
</g>
<g>
	<path d="M39.7,28.3c0,0,0.6,2.5-0.3,2.4c-0.8,0-0.4-1.2-0.4-1.4C39.1,29.1,39.7,28.3,39.7,28.3z"/>
</g>
<g>
	<path d="M41.9,29.8c0,0-1.2,3.1-1.3,3.6c-0.1,0.4,0.5-0.1,0.6-0.5C41.4,32.5,42.4,30.5,41.9,29.8z"/>
</g>
<g>
	<path d="M42.2,32.9l2.3-4.1c0,0,0.1-0.7-0.1-0.7s-2.3,4.4-2.3,4.4S41.9,32.8,42.2,32.9z"/>
</g>
<g>
	<path d="M37.4,28.3c0,0,1.5,4,1.5,4.5c0.1,0.5-0.1,0.6-0.1,0.6l-1.9-4.7C36.9,28.7,36.8,27.9,37.4,28.3z"/>
</g>
<g>
	<path d="M35.2,28.3l2.8,4.6c0,0-0.1,0.4-0.3,0.2c-0.2-0.2-2.8-4.5-2.8-4.5S34.7,28,35.2,28.3z"/>
</g>
<g>
	<path d="M61.7,22.4c0,0,1.3,1.9,0.9,2.3C62.2,25.1,61.3,25,61.7,22.4z"/>
</g>
<g>
	<path d="M62,25.9c0,0,1.2,1.3,0.7,2c-0.5,0.6-0.9,0-0.9-0.5S62,25.9,62,25.9z"/>
</g>
<g>
	<path d="M59.2,24.9c0,0,1.5,2.7,1.9,2.9s-0.2,0.3-0.4,0.1S58.8,25.8,59.2,24.9z"/>
</g>
<g>
	<path d="M57.9,25.1c0,0,2.2,3,2.1,3.1c-0.1,0.2-0.4,0.2-0.5,0S57.5,26.1,57.9,25.1z"/>
</g>
<g>
	<path d="M63.3,28l1.7-2.9c0,0,0.6-0.6,0.6-0.1c0,0.6-1.8,3-1.8,3S63.6,28.3,63.3,28z"/>
</g>
<g>
	<path d="M66.7,24.7c0,0-0.8,2.5-1.9,3.8c0,0-0.1,0.6,0.4,0.3c0.5-0.3,2.1-2.7,2.1-3.2S67.4,24.8,66.7,24.7z"/>
</g>
<g>
	<path d="M69.1,35.2c-0.7,0.1-2.5,0.9-3.4,1.4c-0.9,0.5-2.3,0.3-3.4,0.4c-1.1,0-4.8-0.2-5.8-0.4c-1-0.2-0.9-0.7-0.9-0.7
		s2.7-0.2,2.9-0.2c0.3,0,0.1-0.5,0-0.5c-0.1,0-2,0.1-3.4,0.1c-1.3,0-1.3-0.6-1-0.7c0.3-0.1,2.7-0.3,3.6-0.2c0.9,0,0.4-0.5,0.4-0.5
		s-3.3,0-4.1-0.2c-0.8-0.2,0-1,0.3-1.1c0.2-0.1,4.3,0,4.3,0l0.1-0.4c0,0-2.8-0.2-3.1-0.6s0.4-0.8,0.4-0.8s3.5,0,4.5,0.2
		c1,0.3,3.3,1.3,3.9,1.6c0.6,0.3,0.7,0.4,0.9,0.1c0.1-0.2-0.6-0.9-1-1.2c-0.5-0.3-4-1.2-4.1-1.9c0-0.6,1.6-0.1,2.1,0
		c0.5,0.1,5.3,1.7,6.1,2c0.6,0.2,1.8,0.1,2.4,0L70.7,31c0,0-2.3,0-3-0.1c-0.7-0.2-4.2-1.4-4.9-1.7c-0.7-0.3-2.4-0.7-3.3,0
		c0,0-0.1,0.7,0.1,0.7h-3.1c0,0-2.1,0.3-1.6,1.3c0,0,0,0.3-0.2,0.5c-0.2,0.2-0.8,0.2-1.2,0.6c-0.4,0.4-0.1,1.1-0.1,1.6
		c0,0.4-0.2,1.2,0.2,1.5c0.3,0.4,1,0.3,1.3,0.9c0.3,0.6,1.3,1.2,2,1.2c0.7,0,7.6,0,8.1-0.2c0.5-0.2,4.4-1.7,5.4-1.7s1.1-0.2,1.1-0.2
		l-0.1-0.5C70.8,34.9,69.7,35.1,69.1,35.2z"/>
</g>
<g>
	<path d="M47.4,32.5v3.8H32.5v-3.8h3.6c0,0,0.7,2.3,2.4,2.5s2.5,0,3.5-0.6c1-0.6,1.6-1.9,1.6-1.9H47.4z"/>
</g>
</svg>
