<?xml version="1.0" encoding="utf-8"?>
<!-- Generator: Adobe Illustrator 25.2.0, SVG Export Plug-In . SVG Version: 6.00 Build 0)  -->
<svg version="1.1" id="Layer_1" xmlns="http://www.w3.org/2000/svg" xmlns:xlink="http://www.w3.org/1999/xlink" x="0px" y="0px"
	 viewBox="0 0 100 100" style="enable-background:new 0 0 100 100;" xml:space="preserve">
<g>
	<g>
		<rect x="27.5" y="49.3" width="43.1" height="2.8"/>
	</g>
	<g>
		<path d="M50,20.6c-16.2,0-29.3,13.2-29.3,29.4c0,16.3,13.1,29.4,29.3,29.4c16.2,0,29.3-13.2,29.3-29.4
			C79.3,33.7,66.2,20.6,50,20.6z M50,77c-14.8,0-26.8-12.1-26.8-27s12-27,26.8-27s26.8,12.1,26.8,27S64.8,77,50,77z"/>
	</g>
	<g>
		<rect x="24.8" y="48.6" transform="matrix(0.7175 -0.6966 0.6966 0.7175 -20.807 48.8101)" width="49.9" height="2.8"/>
	</g>
	<g>
		<rect x="24.2" y="49.3" transform="matrix(0.7175 0.6966 -0.6966 0.7175 49.1893 -19.8843)" width="49.9" height="2.8"/>
	</g>
	<g>
		<g>
			<path d="M46.8,73l-9.6-43.1H43l6.8,31.9l6.6-31.9h5.8L52.6,73H46.8z"/>
			<path style="fill:#FFFFFF;" d="M53,73.5h-6.6l-0.1-0.4l-9.8-43.7h6.9l6.4,29.9L56,29.4h6.8L53,73.5z M47.2,72.5h5l9.4-42.1h-4.7
				l-7,33.8l-7.2-33.8h-4.9L47.2,72.5z"/>
		</g>
	</g>
</g>
</svg>
