<?xml version="1.0" encoding="iso-8859-1"?>
<!-- Generator: Adobe Illustrator 25.3.1, SVG Export Plug-In . SVG Version: 6.00 Build 0)  -->
<svg version="1.1" id="Layer_1" xmlns="http://www.w3.org/2000/svg" xmlns:xlink="http://www.w3.org/1999/xlink" x="0px" y="0px"
	 viewBox="0 0 100 100" style="enable-background:new 0 0 100 100;" xml:space="preserve">
<path d="M50.2,29.2c0.622,0,1.214,0.109,1.752,0.307c0.538,0.197,1.023,0.483,1.43,0.835s0.736,0.773,0.964,1.239
	c0.228,0.467,0.354,0.98,0.354,1.518s-0.126,1.051-0.354,1.518c-0.228,0.467-0.557,0.887-0.964,1.24s-0.892,0.639-1.43,0.836
	C51.414,36.891,50.822,37,50.2,37s-1.214-0.109-1.752-0.307c-0.538-0.197-1.023-0.483-1.43-0.835s-0.736-0.773-0.964-1.24
	c-0.228-0.467-0.354-0.98-0.354-1.519s0.126-1.051,0.354-1.518c0.228-0.467,0.557-0.887,0.964-1.24s0.892-0.639,1.43-0.836
	C48.986,29.309,49.578,29.2,50.2,29.2z"/>
<path d="M59.4,41c-0.1-0.775-0.369-1.375-0.716-1.839s-0.772-0.792-1.184-1.023c-0.412-0.231-0.812-0.366-1.109-0.443
	C56.094,37.619,55.9,37.6,55.9,37.6h-2.95H50h-2.95H44.1c-0.625,0.1-1.131,0.312-1.541,0.587C42.15,38.463,41.837,38.8,41.6,39.15
	s-0.4,0.713-0.509,1.037C40.981,40.513,40.925,40.8,40.9,41l0,0l0,0l0,0l0,0v3.975v3.975v3.975V56.9c0,0.15,0.031,0.3,0.089,0.441
	c0.058,0.141,0.142,0.272,0.249,0.384c0.106,0.112,0.234,0.206,0.379,0.272c0.145,0.066,0.308,0.103,0.483,0.103h0.025h0.025h0.025
	H42.2c0.15,0,0.3-0.031,0.441-0.089c0.141-0.058,0.272-0.142,0.384-0.249c0.112-0.106,0.206-0.234,0.272-0.379
	c0.066-0.145,0.103-0.308,0.103-0.483v-3.05V50.8v-3.05V44.7v-0.05V44.6v-0.05V44.5c0-0.125,0.025-0.25,0.072-0.367
	c0.047-0.117,0.116-0.227,0.203-0.321c0.087-0.094,0.194-0.172,0.316-0.226C44.112,43.531,44.25,43.5,44.4,43.5
	c0.125,0,0.25,0.025,0.367,0.072c0.117,0.047,0.227,0.116,0.321,0.203c0.094,0.088,0.172,0.194,0.226,0.316
	C45.369,44.213,45.4,44.35,45.4,44.5v0.05v0.05v0.05v0.05v3.525v3.525v3.525V58.8v0.1V59v0.1v0.1v4.575v4.575v4.575V77.5
	c0,0.275,0.056,0.544,0.159,0.792c0.103,0.248,0.253,0.477,0.441,0.671c0.188,0.193,0.412,0.353,0.666,0.464
	C46.919,79.537,47.2,79.6,47.5,79.6s0.581-0.056,0.834-0.159C48.588,79.338,48.812,79.188,49,79s0.338-0.412,0.441-0.666
	C49.544,78.081,49.6,77.8,49.6,77.5l0.025-4.575l0.025-4.575l0.025-4.575L49.7,59.2v-0.075V59.05v-0.075V58.9
	c0-0.1,0.019-0.2,0.055-0.294c0.036-0.094,0.089-0.181,0.158-0.256c0.069-0.075,0.153-0.138,0.251-0.181
	c0.098-0.044,0.211-0.069,0.336-0.069s0.237,0.019,0.336,0.055c0.098,0.036,0.183,0.089,0.251,0.157
	c0.069,0.069,0.122,0.153,0.158,0.252c0.036,0.098,0.055,0.211,0.055,0.336v0.075v0.075v0.075V59.2l0,0l0,0l0,0l0,0v4.575v4.575
	v4.575V77.5c0,0.275,0.069,0.544,0.189,0.792c0.12,0.248,0.292,0.477,0.499,0.671c0.206,0.193,0.447,0.353,0.704,0.464
	C52.95,79.537,53.225,79.6,53.5,79.6l0,0l0,0l0,0l0,0c0.275,0,0.544-0.056,0.792-0.159c0.248-0.103,0.476-0.253,0.67-0.441
	c0.194-0.188,0.354-0.412,0.465-0.666C55.538,78.081,55.6,77.8,55.6,77.5v-4.575V68.35v-4.575V59.2v-3.625V51.95v-3.625V44.7v-0.075
	V44.55v-0.075V44.4c0-0.125,0.025-0.237,0.069-0.336c0.044-0.099,0.106-0.183,0.181-0.252c0.075-0.069,0.162-0.122,0.256-0.157
	C56.2,43.619,56.3,43.6,56.4,43.6c0.125,0,0.237,0.025,0.336,0.069c0.099,0.044,0.183,0.106,0.252,0.181
	c0.069,0.075,0.121,0.163,0.157,0.256C57.181,44.2,57.2,44.3,57.2,44.4v0.075v0.075v0.075V44.7v3.025v3.025v3.025V56.8
	c0,0.175,0.038,0.338,0.103,0.483s0.159,0.273,0.272,0.379c0.112,0.106,0.244,0.191,0.384,0.249C58.1,57.969,58.25,58,58.4,58
	c0.175,0,0.338-0.037,0.483-0.103c0.145-0.066,0.273-0.159,0.379-0.272c0.106-0.112,0.191-0.244,0.249-0.384
	C59.569,57.1,59.6,56.95,59.6,56.8l-0.05-3.95L59.5,48.9l-0.05-3.95L59.4,41L59.4,41L59.4,41L59.4,41L59.4,41z"/>
<path d="M41.6,20.5h4.225h4.225h4.225H58.5c0,0,0.1,0.006,0.264,0.038s0.392,0.087,0.648,0.188c0.257,0.1,0.541,0.244,0.818,0.45
	C60.506,21.381,60.775,21.65,61,22s1.6,2.062,3.536,4.434c1.936,2.372,4.433,5.403,6.902,8.391s4.91,5.931,6.733,8.128
	C79.994,45.15,81.2,46.6,81.2,46.6h-1.625H77.95h-1.625H74.7l-4.125-4.95L66.45,36.7l-4.125-4.95L58.2,26.8h-4h-4h-4h-4
	l-4.175,4.925L33.85,36.65l-4.175,4.925L25.5,46.5h-1.675H22.15h-1.675H18.8l5.125-6.2l5.125-6.2l5.125-6.2l5.125-6.2
	c0,0,0.044-0.075,0.134-0.188c0.091-0.112,0.228-0.263,0.416-0.413s0.425-0.3,0.716-0.413C40.856,20.575,41.2,20.5,41.6,20.5z"/>
</svg>
