<?xml version="1.0" encoding="utf-8"?>
<!-- Generator: Adobe Illustrator 25.2.0, SVG Export Plug-In . SVG Version: 6.00 Build 0)  -->
<svg version="1.1" id="Layer_1" xmlns="http://www.w3.org/2000/svg" xmlns:xlink="http://www.w3.org/1999/xlink" x="0px" y="0px"
	 viewBox="0 0 100 100" style="enable-background:new 0 0 100 100;" xml:space="preserve">
<g>
	<g>
		<path d="M30.8,70.3V29.7H49c4.6,0,8,0.4,10,1.1s3.6,2,4.9,3.8c1.3,1.8,1.9,3.9,1.9,6.5c0,3.2-1,5.7-2.9,7.7
			c-2,1.9-4.7,3.2-8.3,3.6c1.8,1,3.4,2.2,4.6,3.4c1.2,1.2,2.9,3.4,4.9,6.6l5.2,7.9H58.9l-6.2-8.8c-2.2-3.2-3.8-5.2-4.6-6
			s-1.7-1.4-2.6-1.7c-0.9-0.3-2.3-0.5-4.3-0.5h-1.8v16.9H30.8z M39.4,46.9h6.4c3.9,0,6.4-0.1,7.5-0.4s1.9-0.8,2.6-1.6
			c0.7-0.8,1-1.9,1-3.2c0-1.3-0.3-2.3-1-3.1c-0.7-0.8-1.6-1.3-2.7-1.6c-0.8-0.2-3.1-0.3-7-0.3h-6.8V46.9z"/>
	</g>
</g>
</svg>
