<?xml version="1.0" encoding="utf-8"?>
<!-- Generator: Adobe Illustrator 25.2.0, SVG Export Plug-In . SVG Version: 6.00 Build 0)  -->
<svg version="1.1" id="Layer_1" xmlns="http://www.w3.org/2000/svg" xmlns:xlink="http://www.w3.org/1999/xlink" x="0px" y="0px"
	 viewBox="0 0 100 100" style="enable-background:new 0 0 100 100;" xml:space="preserve">
<g>
	<path d="M23.4,48.4c3.6-1.3,6.3,0.2,9,1.7c2.8-3.7-0.5-7-0.6-10.6c2.9-0.2,5.1,1.6,7.4,3.6c1.2-5.3,1.2-10.3-0.3-15.3
		c3.4-0.9,6,0.2,7.7,3.7c0.2-0.1,0.3-0.1,0.5-0.2c0.2-3.7,0.5-7.4,0.8-11.8c4.7,5.6,7.4,11.7,8.4,18.7c0.2,0,0.3-0.1,0.5-0.1
		c0.1-1,0.3-2.1,0.4-3.1c0.1-1.1,0.2-2.2,0.4-3.6c4.1,3.4,5.6,7.9,6.1,13.1c2.3-0.4,3-2.2,3.6-4.1c0.3-1,0.9-1.9,1.4-2.8
		c0.7,0.8,1.5,1.5,2.1,2.4c1.9,3.1,1,6.3,0.3,9.5c-0.2,1.1-0.6,2.1-0.7,3.3c0.4-0.6,0.8-1.2,1.3-1.7c1-1.1,1.9-2.2,3-3.1
		c1.5-1.1,2.1-0.6,2.1,1.4c0,4.9-1.1,9.2-3.6,13.3c-2.1,3.4-3.6,7.2-5.5,10.8c-0.5,1-1.3,1.9-2.1,2.6c-5.5,4.7-12,4.7-18.5,4.1
		c-2.8-0.2-5.5-1-8.2-1.8c-2.6-0.8-4.5-2.8-5.6-5.7c-0.5-1.5-1.2-3-1.7-4.5C29.2,61.5,28.1,54.3,23.4,48.4z"/>
</g>
</svg>
