<?xml version="1.0" encoding="utf-8"?>
<!-- Generator: Adobe Illustrator 25.2.0, SVG Export Plug-In . SVG Version: 6.00 Build 0)  -->
<svg version="1.1" id="Layer_1" xmlns="http://www.w3.org/2000/svg" xmlns:xlink="http://www.w3.org/1999/xlink" x="0px" y="0px"
	 viewBox="0 0 100 100" style="enable-background:new 0 0 100 100;" xml:space="preserve">
<g>
	<g>
		
			<rect x="16.8" y="16.8" transform="matrix(0.7071 -0.7071 0.7071 0.7071 -20.7107 50)" style="fill:#EB3A30;" width="66.5" height="66.5"/>
	</g>
	<g>
		<path d="M73,42.2L49.6,22.4L27,42.2h3.3v24.5c0,1,0.8,1.8,1.8,1.8h35.4c1,0,1.8-0.8,1.8-1.8V42.2H73z M49.8,26.8l14.7,12.4H35.5
			L49.8,26.8z"/>
	</g>
	<g>
		<path d="M49.9,20.2c-16.2,0-29.3,13.5-29.3,30s13.1,30,29.3,30c16.2,0,29.3-13.5,29.3-30S66.1,20.2,49.9,20.2z M49.9,77.4
			c-14.6,0-26.5-12.1-26.5-27.1c0-15,11.8-27.1,26.5-27.1c14.6,0,26.5,12.1,26.5,27.1C76.4,65.2,64.6,77.4,49.9,77.4z"/>
	</g>
</g>
</svg>
