<?xml version="1.0" encoding="utf-8"?>
<!-- Generator: Adobe Illustrator 25.2.0, SVG Export Plug-In . SVG Version: 6.00 Build 0)  -->
<svg version="1.1" id="Layer_1" xmlns="http://www.w3.org/2000/svg" xmlns:xlink="http://www.w3.org/1999/xlink" x="0px" y="0px"
	 viewBox="0 0 100 100" style="enable-background:new 0 0 100 100;" xml:space="preserve">
<g>
	<g>
		<path d="M47.9,76.8H21.9v-8.8c2.2-2.6,4.2-5.1,5.9-7.5c1.8-2.4,3.3-4.6,4.6-6.7c1.7-2.8,3-5.2,3.8-7.3c0.8-2.1,1.2-4.2,1.2-6.4
			c0-2.5-0.5-4.4-1.5-5.7c-1-1.3-2.4-2-4.1-2c-0.9,0-1.8,0.2-2.6,0.5c-0.8,0.3-1.6,0.8-2.4,1.3c-0.8,0.6-1.5,1.1-2.1,1.7
			c-0.6,0.6-1,1-1.3,1.3h-0.7V25.5c1-0.7,2.6-1.5,4.7-2.2c2.1-0.8,4.2-1.1,6.1-1.1c4.2,0,7.4,1.4,9.6,4.3c2.2,2.8,3.3,6.8,3.3,12
			c0,3.2-0.5,6.3-1.5,9.3c-1,3-2.6,6.3-4.9,9.8c-1.4,2.1-2.8,4-4.2,5.7c-1.3,1.7-2.3,2.9-2.9,3.5h15V76.8z"/>
	</g>
	<g>
		<path d="M78.1,60.6c0,2.6-0.3,5-1,7.2c-0.6,2.2-1.6,4-2.8,5.5c-1.3,1.5-2.7,2.7-4.4,3.5c-1.7,0.8-3.8,1.2-6.2,1.2
			c-2.8,0-5.1-0.3-7.1-1c-2-0.7-3.6-1.5-4.8-2.3V62.9h0.9c1.3,1.2,2.8,2.3,4.6,3.2c1.8,0.9,3.4,1.4,4.8,1.4c0.9,0,1.8-0.1,2.8-0.3
			c1-0.2,1.9-0.7,2.5-1.5c0.5-0.6,1-1.3,1.3-2.2c0.3-0.9,0.5-2.1,0.5-3.7c0-1.6-0.2-2.8-0.7-3.7c-0.5-0.9-1.1-1.5-1.8-1.9
			c-0.8-0.4-1.7-0.6-2.7-0.7c-1.1,0-2-0.1-2.8-0.1h-1.5V44H61c1.1,0,2.1-0.1,3-0.2c0.9-0.1,1.7-0.4,2.3-0.9c0.6-0.5,1.1-1.1,1.5-1.9
			c0.4-0.8,0.5-1.9,0.5-3.3c0-1.1-0.2-2-0.5-2.6c-0.3-0.7-0.7-1.2-1.2-1.6c-0.6-0.4-1.2-0.7-2-0.9c-0.8-0.1-1.4-0.2-2-0.2
			c-0.9,0-1.8,0.2-2.7,0.5c-0.9,0.3-1.8,0.7-2.6,1.2c-0.7,0.4-1.4,0.9-2.1,1.5c-0.7,0.6-1.3,1.1-1.6,1.4h-0.7V25.5
			c1.2-0.8,2.9-1.6,4.9-2.3c2.1-0.7,4.2-1.1,6.3-1.1c2.1,0,3.9,0.3,5.5,0.8c1.5,0.6,2.9,1.4,4,2.4c1.2,1.1,2.1,2.6,2.7,4.3
			s0.9,3.7,0.9,5.9c0,3.1-0.6,5.7-1.8,8c-1.2,2.3-2.7,3.8-4.6,4.4v0.5c0.8,0.2,1.7,0.5,2.5,1s1.6,1.2,2.3,2.2
			c0.7,0.9,1.3,2.1,1.8,3.6C77.9,56.8,78.1,58.5,78.1,60.6z"/>
	</g>
</g>
</svg>
