<?xml version="1.0" encoding="utf-8"?>
<!-- Generator: Adobe Illustrator 25.2.0, SVG Export Plug-In . SVG Version: 6.00 Build 0)  -->
<svg version="1.1" id="Layer_1" xmlns="http://www.w3.org/2000/svg" xmlns:xlink="http://www.w3.org/1999/xlink" x="0px" y="0px"
	 viewBox="0 0 100 100" style="enable-background:new 0 0 100 100;" xml:space="preserve">
<g>
	<g>
		<path d="M35.5,46.1c0.4,0,0.9-0.2,1.3-0.5c2.1-1.8,4.2,0,4.2,0s3.8,4.8,7.3,4.9c3.5,0.1,4.8-3.4,7.1-4.4s4.4,0,4.4,0l4.4,2.7V35.3
			H69L49.5,13.9l-4.9,5.4h-2.4v-1.4H39v7.6l-8.8,9.7h5.2V46.1z M56.1,34.4h5.5v6.8h-5.5V34.4z"/>
	</g>
	<g>
		<path d="M14.6,50.5c0,0,6.6-0.6,9.1,3.2s5.9,2.9,8.3,0c2.4-2.9,6.1-4.8,9.4-1.6c3.4,3.2,7.4,4.5,9.6,3.1c2.2-1.4,6.5-4.1,6.5-4.1
			s2.6-2.1,6.5,0.4c3.9,2.5,4.1,4.9,8.2,3.9c4-1.1,4.1-3.9,9.2-5.1c0,0,1.8-0.9,3.9,1.3L74.8,62.1c0,0-8.8-3.7-13.6-4
			c-4.8-0.4-6.8,3.8-11.2,3.6s-4.4-4.3-9.1-4.5s-7.1,5.3-14.2,5L14.6,50.5z"/>
	</g>
	<g>
		<path d="M70.7,66.5l-7.5-3.9c0,0-3-1.7-5.9,0.6c-2.9,2.3-5.6,3.2-7.3,3c-1.7-0.2-8.1-4.7-8.1-4.7s-1-1-3.2,0.7S30.2,66,30.2,66
			l20.2,20.1L70.7,66.5z"/>
	</g>
</g>
</svg>
