<?xml version="1.0" encoding="iso-8859-1"?>
<!-- Generator: Adobe Illustrator 25.4.1, SVG Export Plug-In . SVG Version: 6.00 Build 0)  -->
<svg version="1.1"
	 id="svg8" xmlns:cc="http://creativecommons.org/ns#" xmlns:dc="http://purl.org/dc/elements/1.1/" xmlns:inkscape="http://www.inkscape.org/namespaces/inkscape" xmlns:rdf="http://www.w3.org/1999/02/22-rdf-syntax-ns#" xmlns:sodipodi="http://sodipodi.sourceforge.net/DTD/sodipodi-0.dtd" xmlns:svg="http://www.w3.org/2000/svg"
	 xmlns="http://www.w3.org/2000/svg" xmlns:xlink="http://www.w3.org/1999/xlink" x="0px" y="0px" viewBox="0 0 100 100"
	 style="enable-background:new 0 0 100 100;" xml:space="preserve">
<sodipodi:namedview  bordercolor="#666666" borderopacity="1.0" id="base" inkscape:current-layer="g8515" inkscape:cx="-302.11164" inkscape:cy="84.283015" inkscape:document-units="px" inkscape:guide-bbox="true" inkscape:lockguides="true" inkscape:pageopacity="0.0" inkscape:pageshadow="2" inkscape:window-height="657" inkscape:window-maximized="1" inkscape:window-width="1280" inkscape:window-x="-8" inkscape:window-y="-8" inkscape:zoom="0.765625" pagecolor="#ffffff" showgrid="false" showguides="false" units="px">
	<sodipodi:guide  id="guide5700" inkscape:locked="true" orientation="0,1" position="-0.93017576,23.874511"></sodipodi:guide>
	<sodipodi:guide  id="guide5726" inkscape:locked="true" orientation="0,1" position="-26.098869,26.473047"></sodipodi:guide>
	<sodipodi:guide  id="guide5880" inkscape:locked="true" orientation="0,1" position="104.51042,-2.9104167"></sodipodi:guide>
	<sodipodi:guide  id="guide6001" inkscape:locked="true" orientation="0,1" position="-71.093695,29.279377"></sodipodi:guide>
	<sodipodi:guide  id="guide6005" inkscape:locked="true" orientation="0,1" position="-46.304445,58.278122"></sodipodi:guide>
	<sodipodi:guide  id="guide6736" inkscape:locked="true" orientation="0,1" position="-0.10335287,20.205485"></sodipodi:guide>
	<sodipodi:guide  id="guide6738" inkscape:locked="true" orientation="0,1" position="-0.43848907,22.874513"></sodipodi:guide>
	<inkscape:grid  id="grid2386" type="xygrid"></inkscape:grid>
</sodipodi:namedview>
<g id="g1180" transform="translate(0,-229.2666)" inkscape:groupmode="layer" inkscape:label="halo:always" style="display:none;">
	<g id="g1210" inkscape:groupmode="layer" inkscape:label="-gray-halo:iter3" style="display:inline;">
		<g id="circle1208">
			<path style="fill:#919395;" d="M50,329.3c-27.6,0-50-22.4-50-50s22.4-50,50-50s50,22.4,50,50S77.6,329.3,50,329.3z M50,237.9
				c-22.8,0-41.4,18.6-41.4,41.4s18.6,41.4,41.4,41.4s41.4-18.6,41.4-41.4S72.8,237.9,50,237.9z"/>
		</g>
	</g>
	<g id="g1206" inkscape:groupmode="layer" inkscape:label="-red-halo:iter3" style="display:inline;">
		<g id="circle1204">
			<path style="fill:#C52038;" d="M50,329.3c-27.6,0-50-22.4-50-50s22.4-50,50-50s50,22.4,50,50S77.6,329.3,50,329.3z M50,237.9
				c-22.8,0-41.4,18.6-41.4,41.4s18.6,41.4,41.4,41.4s41.4-18.6,41.4-41.4S72.8,237.9,50,237.9z"/>
		</g>
	</g>
	<g id="g1202" inkscape:groupmode="layer" inkscape:label="-green-halo:iter3" style="display:inline;">
		<g id="circle1200">
			<path style="fill:#5E9C42;" d="M50,329.3c-27.6,0-50-22.4-50-50s22.4-50,50-50s50,22.4,50,50S77.6,329.3,50,329.3z M50,237.9
				c-22.8,0-41.4,18.6-41.4,41.4s18.6,41.4,41.4,41.4s41.4-18.6,41.4-41.4S72.8,237.9,50,237.9z"/>
		</g>
	</g>
	<g id="layer18" inkscape:groupmode="layer" inkscape:label="-yellow-halo:iter3" style="display:inline;">
		<g id="circle1178-4">
			<path style="fill:#FBBA16;" d="M50,329.3c-27.6,0-50-22.4-50-50s22.4-50,50-50s50,22.4,50,50S77.6,329.3,50,329.3z M50,237.9
				c-22.8,0-41.4,18.6-41.4,41.4s18.6,41.4,41.4,41.4s41.4-18.6,41.4-41.4S72.8,237.9,50,237.9z"/>
		</g>
	</g>
</g>
<path id="rect8492" inkscape:export-filename="C:\Users\Charlotte Abel\Documents\Symbology\Components\For Distribution\health-and-medical-icon_fatality-management-gray.png" inkscape:export-xdpi="300.00458" inkscape:export-ydpi="300.00458" style="fill:#003366;" d="
	M34.909,52.115h7.541h7.541h7.541h7.541c0.106,0,0.211,0.021,0.31,0.061c0.099,0.04,0.192,0.098,0.271,0.172
	c0.079,0.074,0.145,0.164,0.191,0.267c0.046,0.103,0.073,0.219,0.073,0.346v0.296v0.296v0.296v0.296c0,0.106-0.021,0.211-0.061,0.31
	c-0.04,0.099-0.098,0.192-0.172,0.271c-0.074,0.079-0.164,0.145-0.267,0.191c-0.103,0.046-0.219,0.072-0.346,0.072H57.53H49.99
	h-7.541h-7.541c-0.106,0-0.211-0.021-0.31-0.061c-0.099-0.04-0.192-0.098-0.271-0.172s-0.145-0.164-0.191-0.267
	c-0.046-0.103-0.072-0.219-0.072-0.346v-0.296v-0.296v-0.296V52.96c0-0.106,0.026-0.211,0.073-0.31
	c0.046-0.099,0.112-0.192,0.191-0.271c0.079-0.079,0.172-0.145,0.271-0.191C34.697,52.142,34.803,52.115,34.909,52.115z"/>
<path id="path8494" inkscape:connector-curvature="0" inkscape:export-filename="C:\Users\Charlotte Abel\Documents\Symbology\Components\For Distribution\health-and-medical-icon_fatality-management-gray.png" inkscape:export-xdpi="300.00458" inkscape:export-ydpi="300.00458" style="fill:#003366;" d="
	M44.794,18.574c-0.021,0-0.042,0-0.062,0c-0.02,0-0.038,0-0.054,0c-0.016,0-0.029,0-0.038,0c-0.009,0-0.014,0-0.014,0
	c-0.253,0.042-0.491,0.148-0.701,0.302s-0.392,0.358-0.535,0.595c-0.142,0.238-0.245,0.51-0.297,0.802
	c-0.051,0.292-0.051,0.603,0.012,0.92c0.042,0.317,0.137,0.613,0.272,0.877c0.135,0.264,0.309,0.496,0.51,0.686
	c0.201,0.19,0.428,0.338,0.668,0.433c0.24,0.095,0.494,0.137,0.747,0.116c0.253-0.042,0.491-0.148,0.701-0.302
	c0.21-0.155,0.392-0.358,0.534-0.596c0.143-0.237,0.246-0.509,0.297-0.801c0.052-0.292,0.052-0.603-0.012-0.92
	s-0.164-0.607-0.293-0.865s-0.288-0.482-0.467-0.666c-0.18-0.185-0.38-0.33-0.594-0.429S45.026,18.574,44.794,18.574L44.794,18.574
	L44.794,18.574L44.794,18.574L44.794,18.574z M41.33,20.348h-0.021h-0.021h-0.021h-0.021c-0.169,0.021-0.322,0.084-0.455,0.18
	s-0.247,0.222-0.337,0.37c-0.09,0.148-0.156,0.317-0.194,0.496s-0.049,0.37-0.028,0.56c0.021,0.211,0.079,0.407,0.164,0.578
	c0.084,0.172,0.195,0.319,0.322,0.436s0.269,0.201,0.417,0.246c0.148,0.045,0.301,0.05,0.449,0.008
	c0.169-0.021,0.322-0.084,0.455-0.18c0.133-0.095,0.247-0.222,0.337-0.37c0.09-0.148,0.156-0.317,0.194-0.496
	c0.038-0.18,0.049-0.37,0.028-0.56c-0.021-0.19-0.074-0.364-0.15-0.519c-0.077-0.155-0.177-0.289-0.293-0.4
	c-0.116-0.111-0.248-0.198-0.388-0.257S41.478,20.348,41.33,20.348L41.33,20.348L41.33,20.348L41.33,20.348L41.33,20.348z
	 M38.964,21.193h-0.021h-0.021h-0.021H38.88c-0.148,0.021-0.285,0.079-0.405,0.165c-0.12,0.086-0.223,0.199-0.303,0.331
	s-0.135,0.282-0.16,0.442c-0.025,0.16-0.019,0.329,0.023,0.498c0.021,0.19,0.074,0.364,0.15,0.517
	c0.077,0.153,0.177,0.285,0.293,0.391c0.116,0.106,0.248,0.185,0.388,0.232c0.14,0.048,0.288,0.063,0.436,0.042
	c0.148-0.021,0.285-0.079,0.405-0.165c0.12-0.086,0.223-0.199,0.303-0.332c0.079-0.132,0.135-0.283,0.16-0.442
	s0.019-0.328-0.023-0.497s-0.106-0.327-0.185-0.47c-0.079-0.143-0.174-0.269-0.28-0.375s-0.222-0.19-0.343-0.248
	C39.218,21.224,39.091,21.193,38.964,21.193L38.964,21.193L38.964,21.193L38.964,21.193L38.964,21.193z M36.683,22.376h-0.021
	h-0.021H36.62h-0.021c-0.148,0.021-0.285,0.079-0.405,0.165c-0.12,0.086-0.223,0.199-0.303,0.331
	c-0.079,0.132-0.135,0.282-0.16,0.442c-0.025,0.16-0.019,0.329,0.023,0.498c0.021,0.19,0.074,0.364,0.15,0.517
	c0.077,0.153,0.177,0.285,0.293,0.391s0.248,0.185,0.388,0.232c0.14,0.048,0.288,0.063,0.436,0.042s0.285-0.079,0.405-0.165
	s0.223-0.199,0.303-0.332c0.079-0.132,0.135-0.283,0.16-0.442c0.025-0.16,0.019-0.328-0.023-0.497
	c-0.021-0.169-0.069-0.327-0.137-0.47c-0.069-0.143-0.158-0.269-0.264-0.375s-0.227-0.19-0.359-0.248
	C36.973,22.407,36.831,22.376,36.683,22.376L36.683,22.376L36.683,22.376L36.683,22.376L36.683,22.376z M34.655,23.812h-0.021
	h-0.021h-0.021h-0.021c-0.127,0.021-0.243,0.074-0.345,0.152c-0.102,0.078-0.189,0.181-0.258,0.302
	c-0.068,0.122-0.118,0.262-0.146,0.414c-0.028,0.152-0.033,0.316-0.012,0.485c0.021,0.169,0.069,0.322,0.136,0.455
	c0.067,0.133,0.154,0.247,0.254,0.337c0.101,0.09,0.214,0.155,0.334,0.194c0.12,0.038,0.247,0.049,0.374,0.028
	c0.127-0.021,0.243-0.074,0.345-0.152s0.189-0.181,0.257-0.302c0.069-0.122,0.119-0.262,0.147-0.414
	c0.028-0.152,0.033-0.316,0.012-0.485c-0.021-0.148-0.063-0.285-0.123-0.408c-0.059-0.123-0.136-0.231-0.225-0.321
	c-0.09-0.09-0.193-0.161-0.305-0.21C34.903,23.838,34.782,23.812,34.655,23.812L34.655,23.812L34.655,23.812L34.655,23.812
	L34.655,23.812z M43.02,24.319c-0.908,0-1.885,0.153-2.836,0.425c-0.95,0.272-1.875,0.663-2.677,1.138
	c-0.803,0.475-1.484,1.035-1.949,1.645s-0.713,1.27-0.65,1.946c0.021,0.401,0.042,0.808,0.065,1.217s0.046,0.821,0.072,1.233
	s0.055,0.824,0.089,1.233c0.033,0.409,0.07,0.816,0.113,1.217c0.106,0.929,0.232,1.864,0.37,2.8
	c0.137,0.936,0.285,1.873,0.433,2.808c0.148,0.934,0.296,1.866,0.433,2.792c0.137,0.925,0.264,1.844,0.37,2.752
	c0.106,0.782,0.338,1.505,0.668,2.144c0.33,0.639,0.758,1.193,1.254,1.637c0.496,0.444,1.061,0.776,1.666,0.972
	c0.605,0.195,1.249,0.253,1.904,0.148c0.655-0.084,1.251-0.322,1.772-0.68c0.52-0.358,0.964-0.836,1.312-1.401
	c0.349-0.565,0.602-1.217,0.742-1.924c0.14-0.706,0.166-1.467,0.061-2.248c-0.021-0.169-0.053-0.338-0.092-0.506
	c-0.04-0.168-0.087-0.334-0.14-0.498c-0.053-0.164-0.111-0.325-0.172-0.481s-0.124-0.309-0.187-0.457
	c-0.275-0.908-0.459-1.806-0.558-2.684c-0.099-0.878-0.112-1.736-0.044-2.565c0.069-0.829,0.219-1.629,0.448-2.39
	c0.228-0.762,0.535-1.485,0.915-2.161c0.275-0.486,0.496-1.03,0.66-1.595c0.164-0.565,0.269-1.151,0.312-1.721
	s0.021-1.125-0.069-1.626s-0.248-0.95-0.481-1.31c-0.169-0.338-0.385-0.623-0.642-0.861s-0.552-0.428-0.879-0.576
	c-0.327-0.148-0.686-0.253-1.069-0.322C43.849,24.35,43.442,24.319,43.02,24.319z"/>
<path id="path8496" inkscape:connector-curvature="0" inkscape:export-filename="C:\Users\Charlotte Abel\Documents\Symbology\Components\For Distribution\health-and-medical-icon_fatality-management-gray.png" inkscape:export-xdpi="300.00458" inkscape:export-ydpi="300.00458" style="fill:#003366;" d="
	M55.27,18.574c-0.253,0-0.496,0.058-0.721,0.164c-0.224,0.106-0.43,0.259-0.61,0.449c-0.18,0.19-0.333,0.417-0.451,0.671
	c-0.119,0.253-0.203,0.533-0.246,0.829c-0.042,0.317-0.032,0.628,0.024,0.92c0.055,0.292,0.156,0.564,0.293,0.801
	c0.137,0.238,0.312,0.441,0.515,0.596c0.203,0.155,0.436,0.26,0.689,0.302c0.253,0.042,0.507,0.016,0.747-0.069
	c0.24-0.084,0.467-0.227,0.668-0.417c0.201-0.19,0.375-0.428,0.51-0.702c0.135-0.275,0.23-0.586,0.272-0.924
	c0.042-0.317,0.032-0.628-0.024-0.92c-0.055-0.292-0.156-0.564-0.293-0.802c-0.137-0.238-0.312-0.441-0.515-0.595
	c-0.203-0.154-0.436-0.26-0.689-0.302c-0.021,0-0.042,0-0.062,0s-0.038,0-0.054,0c-0.016,0-0.029,0-0.039,0
	C55.276,18.574,55.27,18.574,55.27,18.574z M58.65,20.348c-0.148,0-0.296,0.037-0.436,0.104c-0.14,0.067-0.272,0.165-0.388,0.286
	c-0.116,0.122-0.217,0.267-0.293,0.429c-0.077,0.162-0.129,0.342-0.15,0.532c-0.021,0.211-0.011,0.412,0.028,0.595
	c0.038,0.184,0.104,0.35,0.194,0.493c0.09,0.142,0.203,0.261,0.336,0.349c0.133,0.088,0.286,0.146,0.455,0.168
	c0.169,0.021,0.333,0,0.484-0.055c0.152-0.055,0.292-0.145,0.413-0.261c0.122-0.116,0.225-0.259,0.303-0.42
	c0.078-0.161,0.131-0.341,0.152-0.531c0.021-0.211,0.011-0.412-0.028-0.595s-0.104-0.35-0.194-0.493
	c-0.09-0.142-0.203-0.261-0.336-0.349c-0.133-0.088-0.286-0.146-0.455-0.168c0-0.021,0-0.037-0.001-0.049s-0.004-0.02-0.01-0.025
	c-0.005-0.005-0.013-0.008-0.025-0.009C58.687,20.348,58.671,20.348,58.65,20.348L58.65,20.348L58.65,20.348L58.65,20.348
	L58.65,20.348z M61.1,21.277c-0.148,0-0.285,0.032-0.411,0.09c-0.125,0.058-0.239,0.143-0.339,0.248
	c-0.101,0.106-0.188,0.232-0.26,0.375c-0.073,0.143-0.131,0.301-0.173,0.47c-0.021,0.19-0.016,0.37,0.013,0.533
	c0.029,0.164,0.082,0.312,0.156,0.438c0.074,0.127,0.169,0.232,0.283,0.312c0.114,0.079,0.246,0.132,0.393,0.153
	c0.148,0.021,0.296,0.005,0.436-0.042c0.14-0.048,0.272-0.127,0.388-0.232c0.116-0.106,0.217-0.238,0.293-0.391
	c0.077-0.153,0.129-0.327,0.15-0.517s0.016-0.37-0.013-0.533c-0.029-0.164-0.082-0.312-0.156-0.438
	c-0.074-0.127-0.169-0.232-0.283-0.312s-0.246-0.132-0.393-0.153c0,0-0.005,0-0.013,0c-0.008,0-0.018,0-0.029,0
	c-0.011,0-0.021,0-0.029,0C61.105,21.277,61.1,21.277,61.1,21.277L61.1,21.277L61.1,21.277L61.1,21.277L61.1,21.277z M63.297,22.376
	c-0.148,0-0.285,0.032-0.411,0.09c-0.125,0.058-0.239,0.143-0.339,0.248c-0.101,0.106-0.188,0.232-0.26,0.375
	c-0.073,0.143-0.131,0.301-0.173,0.47c-0.021,0.19-0.016,0.37,0.013,0.533s0.082,0.312,0.156,0.438
	c0.074,0.127,0.169,0.232,0.283,0.312c0.114,0.079,0.246,0.132,0.393,0.153c0.148,0.021,0.296,0.005,0.436-0.042
	c0.14-0.048,0.272-0.127,0.388-0.232c0.116-0.106,0.216-0.238,0.293-0.391c0.077-0.153,0.129-0.327,0.15-0.517
	s0.016-0.37-0.013-0.533c-0.029-0.164-0.082-0.312-0.156-0.438c-0.074-0.127-0.169-0.232-0.283-0.312
	c-0.114-0.079-0.246-0.132-0.393-0.153c0,0-0.005,0-0.013,0c-0.008,0-0.018,0-0.029,0s-0.021,0-0.029,0
	C63.302,22.376,63.297,22.376,63.297,22.376L63.297,22.376L63.297,22.376L63.297,22.376L63.297,22.376z M65.324,23.812
	c-0.127,0-0.248,0.026-0.36,0.077c-0.112,0.05-0.215,0.124-0.305,0.219c-0.09,0.095-0.167,0.211-0.226,0.346
	c-0.059,0.135-0.102,0.288-0.123,0.457c-0.021,0.169-0.016,0.333,0.012,0.484s0.078,0.292,0.147,0.413
	c0.068,0.122,0.155,0.225,0.257,0.303c0.102,0.078,0.218,0.131,0.344,0.152s0.253,0.005,0.374-0.04s0.234-0.119,0.334-0.214
	c0.101-0.095,0.188-0.211,0.255-0.341c0.067-0.129,0.115-0.272,0.136-0.42c0.021-0.169,0.016-0.333-0.012-0.484
	c-0.028-0.152-0.078-0.292-0.147-0.413c-0.068-0.122-0.155-0.225-0.257-0.303c-0.102-0.078-0.218-0.131-0.345-0.152
	c0-0.021,0-0.037-0.001-0.049s-0.004-0.02-0.01-0.025c-0.005-0.005-0.013-0.008-0.025-0.01S65.345,23.812,65.324,23.812
	L65.324,23.812L65.324,23.812L65.324,23.812L65.324,23.812z M56.96,24.319c-0.359,0-0.708,0.026-1.04,0.08
	c-0.333,0.054-0.65,0.136-0.945,0.246c-0.296,0.111-0.57,0.251-0.818,0.421c-0.248,0.17-0.47,0.371-0.66,0.603
	c0.042-0.021,0.09-0.037,0.14-0.05c0.05-0.013,0.103-0.024,0.156-0.034c0.053-0.011,0.106-0.021,0.156-0.034s0.098-0.029,0.14-0.05
	c0.063,0,0.121,0,0.177,0s0.108,0,0.161,0c0.053,0,0.106,0,0.161,0c0.055,0,0.114,0,0.177,0c0.042,0,0.09,0,0.14,0
	c0.05,0,0.103,0,0.156,0c0.053,0,0.106,0,0.156,0c0.05,0,0.098,0,0.14,0l0,0l0,0l0,0l0,0l0,0l0,0l0,0l0,0
	c0.042,0.021,0.084,0.042,0.127,0.063s0.084,0.042,0.127,0.063c0.042,0.021,0.084,0.042,0.127,0.063
	c0.042,0.021,0.084,0.042,0.127,0.063c0.148,0.063,0.29,0.137,0.426,0.222c0.136,0.084,0.265,0.18,0.386,0.285
	c0.122,0.106,0.235,0.222,0.34,0.349c0.104,0.127,0.199,0.264,0.284,0.412l0.422,0.739l0.422,0.739l0.422,0.739l0.422,0.739
	c0.106,0.169,0.19,0.349,0.255,0.533c0.065,0.185,0.109,0.375,0.136,0.565c0.026,0.19,0.034,0.38,0.025,0.565
	c-0.009,0.185-0.035,0.364-0.077,0.533c0,0.042,0,0.079-0.001,0.114c-0.001,0.034-0.004,0.066-0.01,0.098
	c-0.005,0.032-0.013,0.063-0.025,0.098c-0.012,0.034-0.028,0.071-0.049,0.114l-0.465,1.711l-0.465,1.711l-0.465,1.711l-0.465,1.711
	c-0.084,0.338-0.227,0.644-0.415,0.914c-0.187,0.269-0.42,0.502-0.684,0.692c-0.264,0.19-0.56,0.338-0.874,0.438
	s-0.647,0.153-0.985,0.153c0,0.042-0.005,0.079-0.013,0.114c-0.008,0.034-0.018,0.066-0.029,0.098
	c-0.011,0.032-0.021,0.063-0.029,0.098c-0.008,0.034-0.013,0.071-0.013,0.114c-0.063,0.148-0.127,0.301-0.187,0.458
	s-0.119,0.318-0.172,0.481c-0.053,0.163-0.1,0.33-0.14,0.498c-0.04,0.168-0.071,0.337-0.092,0.506
	c-0.106,0.782-0.079,1.542,0.061,2.248c0.14,0.706,0.393,1.359,0.742,1.924c0.349,0.565,0.792,1.043,1.312,1.401
	c0.52,0.358,1.117,0.595,1.772,0.679c0.655,0.084,1.294,0.01,1.892-0.196c0.598-0.206,1.155-0.544,1.647-0.987
	c0.491-0.444,0.916-0.993,1.25-1.621s0.577-1.336,0.704-2.096c0.106-0.908,0.227-1.827,0.358-2.752
	c0.131-0.925,0.27-1.857,0.413-2.792c0.143-0.935,0.288-1.872,0.429-2.808s0.279-1.871,0.405-2.8
	c0.042-0.38,0.079-0.776,0.112-1.182s0.062-0.82,0.088-1.237c0.027-0.417,0.05-0.837,0.073-1.252
	c0.022-0.416,0.044-0.828,0.065-1.229c0.063-0.634-0.185-1.267-0.649-1.86c-0.465-0.593-1.146-1.144-1.949-1.614
	c-0.803-0.47-1.727-0.858-2.677-1.123C58.845,24.44,57.868,24.298,56.96,24.319L56.96,24.319L56.96,24.319L56.96,24.319
	L56.96,24.319z M54.425,28.797l-0.422,0.253l-0.422,0.253l-0.422,0.253l-0.422,0.253c0.042,0.232,0.09,0.459,0.144,0.681
	c0.054,0.222,0.115,0.438,0.184,0.65c0.068,0.211,0.145,0.417,0.231,0.618c0.086,0.201,0.181,0.396,0.286,0.586
	c0.169,0.296,0.322,0.597,0.459,0.903c0.137,0.306,0.259,0.618,0.364,0.935s0.195,0.639,0.269,0.966
	c0.074,0.327,0.132,0.66,0.174,0.998l0.296-1.077l0.296-1.077l0.296-1.077l0.296-1.077c0-0.021,0-0.042,0-0.063s0-0.042,0-0.063
	s0-0.042,0-0.063s0-0.042,0-0.063l-0.401-0.697l-0.401-0.697l-0.401-0.697L54.425,28.797z"/>
<path id="path8498" inkscape:connector-curvature="0" inkscape:export-filename="C:\Users\Charlotte Abel\Documents\Symbology\Components\For Distribution\health-and-medical-icon_fatality-management-gray.png" inkscape:export-xdpi="300.00458" inkscape:export-ydpi="300.00458" style="fill:#003366;" d="
	M54.932,27.191c-0.084-0.021-0.174-0.037-0.268-0.045c-0.094-0.008-0.192-0.008-0.292,0.003c-0.1,0.011-0.203,0.032-0.307,0.066
	s-0.21,0.082-0.315,0.145l-0.739,0.422l-0.739,0.422l-0.739,0.422l-0.739,0.422c-0.084,0.042-0.164,0.095-0.236,0.156
	c-0.073,0.061-0.139,0.129-0.197,0.203c-0.058,0.074-0.108,0.153-0.149,0.235c-0.041,0.082-0.072,0.166-0.093,0.251
	c-0.021,0.021-0.037,0.042-0.05,0.063c-0.013,0.021-0.024,0.042-0.034,0.063c-0.011,0.021-0.021,0.042-0.034,0.063
	c-0.013,0.021-0.029,0.042-0.05,0.063l-0.465,1.711l-0.465,1.711l-0.465,1.711l-0.465,1.711c-0.042,0.169-0.048,0.343-0.021,0.512
	s0.084,0.333,0.169,0.481s0.195,0.28,0.327,0.385s0.285,0.185,0.454,0.227l1.288,0.338l1.288,0.338l1.288,0.338l1.288,0.338
	c0.169,0.042,0.343,0.048,0.512,0.021s0.333-0.084,0.481-0.169s0.28-0.195,0.385-0.327s0.185-0.285,0.227-0.454l0.465-1.711
	l0.465-1.711l0.465-1.711l0.465-1.711c0-0.021,0-0.042,0-0.065s0-0.046,0-0.073c0-0.027,0-0.056,0-0.089c0-0.033,0-0.07,0-0.112
	c0.021-0.084,0.032-0.174,0.033-0.267c0.001-0.092-0.007-0.187-0.023-0.283c-0.016-0.095-0.039-0.19-0.07-0.283
	c-0.03-0.092-0.067-0.182-0.11-0.267l-0.422-0.739l-0.422-0.739L56.2,28.522l-0.422-0.739c-0.042-0.063-0.095-0.127-0.156-0.187
	c-0.061-0.061-0.129-0.119-0.203-0.172c-0.074-0.053-0.153-0.1-0.235-0.14C55.101,27.244,55.017,27.212,54.932,27.191L54.932,27.191
	L54.932,27.191L54.932,27.191L54.932,27.191z"/>
<path id="path7678" style="fill:#003366;" d="M38.182,69.946v-1.702v-1.702v-1.702V63.14h0.956h0.956h0.956h0.956v0.285v0.285v0.285
	v0.285h-0.679h-0.679h-0.679h-0.679v0.402v0.402v0.402v0.402h0.587h0.587h0.587h0.587v0.285v0.285v0.285v0.285h-0.587h-0.587h-0.587
	h-0.587v0.721v0.721v0.721v0.721l-0.277,0.008l-0.277,0.008l-0.277,0.008L38.182,69.946L38.182,69.946L38.182,69.946L38.182,69.946
	L38.182,69.946z"/>
<path id="path7680" style="fill:#003366;" d="M43.312,66.526l-0.243-0.05l-0.243-0.05l-0.243-0.05l-0.243-0.05
	c0.034-0.126,0.069-0.243,0.108-0.352c0.039-0.108,0.081-0.208,0.127-0.298c0.046-0.09,0.096-0.171,0.152-0.242
	c0.056-0.071,0.116-0.131,0.183-0.182c0.067-0.059,0.143-0.109,0.226-0.151s0.175-0.077,0.273-0.104
	c0.098-0.027,0.204-0.047,0.317-0.06c0.113-0.013,0.232-0.019,0.358-0.019c0.109,0,0.214,0.004,0.313,0.013
	c0.1,0.008,0.194,0.021,0.282,0.038c0.088,0.017,0.17,0.038,0.244,0.063c0.074,0.025,0.141,0.054,0.2,0.088
	c0.059,0.034,0.113,0.069,0.163,0.107c0.05,0.038,0.096,0.079,0.138,0.123c0.042,0.044,0.08,0.091,0.113,0.142
	s0.063,0.105,0.088,0.164c0.025,0.05,0.048,0.113,0.069,0.188c0.02,0.075,0.038,0.162,0.053,0.26
	c0.015,0.099,0.026,0.209,0.034,0.33c0.008,0.121,0.012,0.253,0.012,0.396v0.377v0.377v0.377v0.377c0,0.109,0.002,0.21,0.006,0.303
	c0.004,0.093,0.009,0.179,0.015,0.259s0.013,0.153,0.021,0.221c0.008,0.068,0.016,0.131,0.025,0.19
	c0.008,0.05,0.019,0.103,0.031,0.157c0.013,0.054,0.027,0.11,0.044,0.166c0.017,0.057,0.036,0.114,0.057,0.172
	c0.021,0.058,0.044,0.117,0.069,0.175h-0.268h-0.268h-0.268h-0.268l-0.034-0.134l-0.034-0.134l-0.034-0.134l-0.034-0.134
	c-0.042,0.05-0.086,0.098-0.132,0.145c-0.046,0.046-0.094,0.09-0.145,0.132c-0.05,0.042-0.103,0.082-0.157,0.119
	c-0.054,0.038-0.111,0.073-0.17,0.107c-0.05,0.025-0.103,0.048-0.157,0.069s-0.11,0.038-0.166,0.053
	c-0.056,0.015-0.114,0.026-0.172,0.034c-0.058,0.008-0.117,0.012-0.175,0.012c-0.101,0-0.195-0.008-0.284-0.025
	c-0.089-0.017-0.173-0.042-0.253-0.075c-0.08-0.034-0.155-0.075-0.227-0.126c-0.072-0.05-0.141-0.109-0.209-0.176
	c-0.059-0.067-0.111-0.138-0.157-0.215c-0.046-0.076-0.084-0.158-0.116-0.246c-0.031-0.088-0.055-0.183-0.072-0.284
	c-0.016-0.102-0.025-0.211-0.025-0.328c0-0.067,0.004-0.134,0.012-0.2c0.008-0.066,0.019-0.131,0.034-0.194
	c0.015-0.063,0.033-0.124,0.053-0.181c0.02-0.058,0.044-0.112,0.069-0.162c0.025-0.05,0.052-0.099,0.082-0.145
	s0.062-0.09,0.098-0.132c0.036-0.042,0.074-0.082,0.117-0.119c0.042-0.038,0.089-0.073,0.139-0.107
	c0.05-0.034,0.105-0.065,0.165-0.095c0.06-0.03,0.126-0.058,0.199-0.086c0.073-0.027,0.154-0.053,0.244-0.079
	s0.188-0.051,0.297-0.076c0.126-0.025,0.241-0.052,0.346-0.081c0.105-0.028,0.201-0.058,0.286-0.087
	c0.086-0.029,0.162-0.059,0.23-0.087s0.126-0.056,0.177-0.081c0-0.067-0.002-0.128-0.006-0.183
	c-0.004-0.055-0.009-0.104-0.015-0.148c-0.006-0.044-0.014-0.083-0.022-0.117c-0.008-0.034-0.016-0.064-0.024-0.089
	c-0.008-0.025-0.019-0.048-0.031-0.069c-0.013-0.021-0.027-0.04-0.044-0.057c-0.017-0.017-0.036-0.031-0.057-0.044
	c-0.021-0.013-0.044-0.023-0.069-0.031c-0.025-0.017-0.052-0.029-0.082-0.039s-0.062-0.016-0.098-0.02
	c-0.036-0.004-0.074-0.006-0.117-0.007c-0.042-0.001-0.089-0.001-0.139-0.001s-0.096,0.002-0.139,0.007s-0.083,0.012-0.121,0.022
	c-0.038,0.01-0.073,0.024-0.108,0.041s-0.068,0.038-0.102,0.063c-0.042,0.017-0.078,0.038-0.108,0.064
	c-0.031,0.026-0.057,0.058-0.08,0.095c-0.023,0.038-0.043,0.082-0.061,0.134C43.345,66.401,43.329,66.459,43.312,66.526
	L43.312,66.526L43.312,66.526L43.312,66.526L43.312,66.526z M44.72,67.566c-0.034,0.017-0.071,0.034-0.114,0.05
	c-0.042,0.017-0.09,0.034-0.142,0.05c-0.052,0.017-0.11,0.034-0.173,0.05c-0.063,0.017-0.133,0.034-0.208,0.05
	c-0.084,0.025-0.159,0.048-0.227,0.071s-0.127,0.044-0.18,0.067c-0.052,0.023-0.097,0.047-0.136,0.074
	c-0.038,0.027-0.07,0.056-0.095,0.09c-0.025,0.034-0.048,0.065-0.069,0.096s-0.038,0.061-0.053,0.093
	c-0.015,0.032-0.026,0.064-0.034,0.099c-0.008,0.035-0.012,0.073-0.012,0.115c0,0.05,0.004,0.096,0.012,0.139
	s0.019,0.083,0.034,0.12c0.015,0.038,0.032,0.073,0.053,0.108c0.02,0.035,0.044,0.068,0.069,0.102
	c0.025,0.034,0.054,0.063,0.087,0.088c0.032,0.025,0.068,0.046,0.106,0.063c0.038,0.017,0.078,0.029,0.118,0.038
	c0.041,0.008,0.083,0.013,0.125,0.013c0.042,0,0.082-0.004,0.12-0.012c0.038-0.008,0.075-0.019,0.111-0.034
	c0.036-0.015,0.07-0.032,0.104-0.053c0.034-0.02,0.068-0.044,0.101-0.069c0.034-0.025,0.065-0.052,0.094-0.081
	s0.057-0.059,0.082-0.09c0.025-0.031,0.048-0.064,0.069-0.097c0.021-0.033,0.04-0.067,0.057-0.1
	c0.017-0.034,0.031-0.075,0.044-0.125c0.013-0.05,0.023-0.107,0.031-0.172c0.008-0.065,0.015-0.137,0.019-0.216
	c0.004-0.079,0.006-0.165,0.006-0.257v-0.067V67.7v-0.067L44.72,67.566L44.72,67.566L44.72,67.566L44.72,67.566L44.72,67.566z"/>
<path id="path7682" style="fill:#003366;" d="M48.275,65.017v0.26v0.26v0.26v0.26H48.09h-0.184h-0.184h-0.184v0.495v0.495v0.495
	v0.495c0,0.109,0,0.205,0.001,0.29s0.002,0.157,0.004,0.217c0.002,0.061,0.005,0.11,0.01,0.148c0.005,0.038,0.011,0.065,0.019,0.082
	c0.008,0.034,0.021,0.063,0.037,0.088s0.036,0.046,0.059,0.063c0.023,0.017,0.049,0.029,0.078,0.038
	c0.029,0.008,0.06,0.013,0.094,0.013c0.025,0,0.052-0.002,0.082-0.007c0.03-0.005,0.062-0.012,0.098-0.022
	c0.036-0.01,0.074-0.024,0.117-0.041c0.042-0.017,0.089-0.038,0.139-0.063l0.025,0.251l0.025,0.251l0.025,0.251l0.025,0.251
	c-0.059,0.034-0.122,0.063-0.188,0.088c-0.066,0.025-0.135,0.046-0.206,0.063c-0.071,0.017-0.145,0.029-0.219,0.038
	s-0.15,0.013-0.225,0.013c-0.067,0-0.132-0.004-0.194-0.013c-0.062-0.008-0.122-0.021-0.179-0.038
	c-0.056-0.017-0.11-0.038-0.16-0.063s-0.096-0.054-0.138-0.088c-0.042-0.034-0.08-0.069-0.114-0.108
	c-0.034-0.039-0.064-0.081-0.092-0.127c-0.027-0.046-0.051-0.096-0.073-0.152c-0.022-0.056-0.04-0.116-0.057-0.183
	c-0.008-0.042-0.017-0.096-0.025-0.163c-0.008-0.067-0.015-0.147-0.021-0.239c-0.006-0.092-0.011-0.197-0.015-0.314
	c-0.004-0.117-0.006-0.247-0.006-0.39v-0.536v-0.536V66.56v-0.536h-0.126h-0.126h-0.126h-0.126v-0.26v-0.26v-0.26v-0.26h0.126h0.126
	h0.126h0.126v-0.243v-0.243v-0.243v-0.243l0.268-0.193l0.268-0.193l0.268-0.193l0.268-0.193v0.436v0.436v0.436v0.436l0.184,0.008
	l0.184,0.008l0.184,0.008L48.275,65.017L48.275,65.017L48.275,65.017L48.275,65.017L48.275,65.017z"/>
<path id="path7684" style="fill:#003366;" d="M49.381,66.526l-0.243-0.05l-0.243-0.05l-0.243-0.05l-0.243-0.05
	c0.034-0.126,0.069-0.243,0.108-0.352c0.039-0.108,0.081-0.208,0.127-0.298c0.046-0.09,0.096-0.171,0.152-0.242
	c0.056-0.071,0.116-0.131,0.183-0.182c0.067-0.059,0.143-0.109,0.226-0.151c0.083-0.042,0.175-0.077,0.273-0.104
	c0.098-0.027,0.204-0.047,0.317-0.06c0.113-0.013,0.232-0.019,0.358-0.019c0.109,0,0.214,0.004,0.313,0.013
	c0.1,0.008,0.194,0.021,0.282,0.038c0.088,0.017,0.17,0.038,0.244,0.063c0.074,0.025,0.141,0.054,0.2,0.088
	c0.059,0.034,0.113,0.069,0.163,0.107c0.05,0.038,0.096,0.079,0.138,0.123c0.042,0.044,0.08,0.091,0.113,0.142
	s0.063,0.105,0.088,0.164c0.025,0.05,0.048,0.113,0.069,0.188c0.02,0.075,0.038,0.162,0.053,0.26
	c0.015,0.099,0.026,0.209,0.034,0.33c0.008,0.121,0.012,0.253,0.012,0.396v0.377v0.377v0.377v0.377c0,0.109,0.002,0.21,0.006,0.303
	s0.009,0.179,0.015,0.259c0.006,0.08,0.014,0.153,0.021,0.221c0.008,0.068,0.016,0.131,0.025,0.19
	c0.008,0.05,0.019,0.103,0.031,0.157s0.027,0.11,0.044,0.166c0.017,0.057,0.036,0.114,0.057,0.172
	c0.021,0.058,0.044,0.117,0.069,0.175h-0.268h-0.268h-0.268h-0.268l-0.034-0.134l-0.034-0.134l-0.034-0.134l-0.034-0.134
	c-0.042,0.05-0.086,0.098-0.132,0.145s-0.094,0.09-0.145,0.132c-0.05,0.042-0.103,0.082-0.157,0.119
	c-0.054,0.038-0.111,0.073-0.17,0.107c-0.05,0.025-0.103,0.048-0.157,0.069c-0.054,0.02-0.11,0.038-0.166,0.053
	c-0.057,0.015-0.114,0.026-0.172,0.034c-0.058,0.008-0.117,0.012-0.175,0.012c-0.101,0-0.195-0.008-0.284-0.025
	c-0.089-0.017-0.173-0.042-0.253-0.075c-0.08-0.034-0.155-0.075-0.227-0.126c-0.072-0.05-0.141-0.109-0.209-0.176
	c-0.059-0.067-0.111-0.138-0.157-0.215c-0.046-0.076-0.084-0.158-0.116-0.246c-0.032-0.088-0.056-0.183-0.072-0.284
	c-0.016-0.102-0.025-0.211-0.025-0.328c0-0.067,0.004-0.134,0.012-0.2c0.008-0.066,0.019-0.131,0.034-0.194
	c0.015-0.063,0.033-0.124,0.053-0.181s0.044-0.112,0.069-0.162c0.025-0.05,0.052-0.099,0.082-0.145s0.062-0.09,0.098-0.132
	c0.036-0.042,0.074-0.082,0.117-0.119c0.042-0.038,0.089-0.073,0.139-0.107s0.105-0.065,0.165-0.095
	c0.06-0.03,0.126-0.058,0.199-0.086c0.073-0.027,0.154-0.053,0.244-0.079c0.09-0.026,0.188-0.051,0.297-0.076
	c0.126-0.025,0.241-0.052,0.346-0.081c0.105-0.028,0.201-0.058,0.286-0.087c0.086-0.029,0.162-0.059,0.23-0.087
	c0.068-0.028,0.126-0.056,0.177-0.081c0-0.067-0.002-0.128-0.006-0.183c-0.004-0.055-0.009-0.104-0.015-0.148
	c-0.006-0.044-0.014-0.083-0.022-0.117c-0.008-0.034-0.016-0.064-0.024-0.089c-0.008-0.025-0.019-0.048-0.031-0.069
	s-0.027-0.04-0.044-0.057s-0.036-0.031-0.057-0.044c-0.021-0.013-0.044-0.023-0.069-0.031c-0.025-0.017-0.052-0.029-0.082-0.039
	s-0.062-0.016-0.098-0.02c-0.036-0.004-0.075-0.006-0.117-0.007c-0.042-0.001-0.089-0.001-0.139-0.001s-0.096,0.002-0.139,0.007
	c-0.043,0.005-0.083,0.012-0.12,0.022c-0.038,0.01-0.073,0.024-0.108,0.041c-0.035,0.017-0.068,0.038-0.102,0.063
	c-0.034,0.017-0.065,0.038-0.094,0.064c-0.029,0.026-0.057,0.058-0.082,0.095c-0.025,0.038-0.048,0.082-0.069,0.133
	C49.417,66.401,49.398,66.459,49.381,66.526L49.381,66.526L49.381,66.526L49.381,66.526L49.381,66.526z M50.823,67.566
	c-0.034,0.017-0.071,0.034-0.114,0.05c-0.042,0.017-0.09,0.034-0.142,0.05c-0.052,0.017-0.11,0.034-0.173,0.05
	c-0.063,0.017-0.133,0.034-0.208,0.05c-0.084,0.025-0.159,0.048-0.227,0.071s-0.127,0.044-0.18,0.067
	c-0.052,0.023-0.097,0.047-0.136,0.074c-0.038,0.027-0.07,0.056-0.095,0.09c-0.025,0.025-0.048,0.052-0.069,0.082
	s-0.038,0.061-0.053,0.094c-0.015,0.034-0.026,0.069-0.034,0.107c-0.008,0.038-0.012,0.078-0.012,0.119
	c0,0.05,0.004,0.096,0.012,0.139s0.019,0.083,0.034,0.12c0.015,0.038,0.033,0.073,0.053,0.108c0.02,0.035,0.044,0.068,0.069,0.102
	s0.054,0.063,0.087,0.088s0.068,0.046,0.106,0.063c0.038,0.017,0.078,0.029,0.118,0.038c0.041,0.008,0.083,0.013,0.125,0.013
	c0.042,0,0.082-0.004,0.12-0.012c0.038-0.008,0.075-0.019,0.111-0.034c0.036-0.015,0.07-0.032,0.104-0.053
	c0.034-0.02,0.068-0.044,0.101-0.069c0.034-0.025,0.065-0.052,0.094-0.081c0.029-0.029,0.057-0.059,0.082-0.09
	c0.025-0.031,0.048-0.064,0.069-0.097c0.021-0.033,0.04-0.067,0.057-0.1c0.017-0.034,0.031-0.075,0.044-0.125
	c0.013-0.05,0.023-0.107,0.031-0.172c0.008-0.065,0.015-0.137,0.019-0.216c0.004-0.079,0.006-0.165,0.006-0.257v-0.067V67.7v-0.067
	L50.823,67.566L50.823,67.566L50.823,67.566L50.823,67.566L50.823,67.566z"/>
<path id="path7686" style="fill:#003366;" d="M52.499,69.946v-1.702v-1.702v-1.702V63.14h0.268h0.268h0.268h0.268v1.702v1.702v1.702
	v1.702h-0.268h-0.268h-0.268H52.499z"/>
<path id="path7688" style="fill:#003366;" d="M54.243,64.347v-0.302v-0.302v-0.302V63.14h0.268h0.268h0.268h0.268v0.302v0.302v0.302
	v0.302h-0.268H54.78h-0.268H54.243z M54.243,69.946v-1.232v-1.232V66.25v-1.232h0.268h0.268h0.268h0.268v1.232v1.232v1.232v1.232
	h-0.268H54.78h-0.268H54.243z"/>
<path id="path7690" style="fill:#003366;" d="M57.831,65.017v0.26v0.26v0.26v0.26h-0.184h-0.184h-0.184h-0.184v0.495v0.495v0.495
	v0.495c0,0.109,0,0.205,0.001,0.29c0,0.084,0.002,0.157,0.004,0.217c0.002,0.061,0.005,0.11,0.01,0.148
	c0.005,0.038,0.011,0.065,0.02,0.082c0.008,0.034,0.021,0.063,0.037,0.088s0.036,0.046,0.059,0.063
	c0.023,0.017,0.049,0.029,0.078,0.038c0.029,0.008,0.06,0.013,0.094,0.013c0.025,0,0.052-0.002,0.082-0.007
	c0.03-0.005,0.062-0.012,0.098-0.022c0.036-0.01,0.075-0.024,0.117-0.041c0.042-0.017,0.089-0.038,0.139-0.063l0.025,0.251
	l0.025,0.251l0.025,0.251l0.025,0.251c-0.059,0.034-0.122,0.063-0.188,0.088c-0.066,0.025-0.135,0.046-0.206,0.063
	c-0.071,0.017-0.145,0.029-0.219,0.038s-0.15,0.013-0.225,0.013c-0.067,0-0.132-0.004-0.194-0.013
	c-0.062-0.008-0.122-0.021-0.179-0.038c-0.056-0.017-0.11-0.038-0.16-0.063s-0.096-0.054-0.138-0.088
	c-0.042-0.034-0.08-0.069-0.114-0.108c-0.034-0.039-0.065-0.081-0.092-0.127c-0.027-0.046-0.051-0.096-0.073-0.152
	c-0.021-0.056-0.04-0.116-0.057-0.183c-0.008-0.042-0.017-0.096-0.025-0.163c-0.008-0.067-0.015-0.147-0.021-0.239
	c-0.006-0.092-0.012-0.197-0.015-0.314c-0.004-0.117-0.006-0.247-0.006-0.39v-0.536v-0.536V66.56v-0.536h-0.126h-0.126h-0.126
	h-0.126v-0.26v-0.26v-0.26v-0.26h0.126h0.126h0.126h0.126v-0.243v-0.243v-0.243v-0.243l0.268-0.193l0.268-0.193l0.268-0.193
	l0.268-0.193v0.436v0.436v0.436v0.436l0.184,0.008l0.184,0.008l0.184,0.008L57.831,65.017L57.831,65.017L57.831,65.017
	L57.831,65.017L57.831,65.017z"/>
<path id="path7692" style="fill:#003366;" d="M57.663,65.017h0.285h0.285h0.285h0.285l0.243,0.872l0.243,0.872l0.243,0.872
	l0.243,0.872l0.235-0.872l0.235-0.872l0.235-0.872l0.235-0.872h0.277h0.277h0.277h0.277l-0.36,1.19l-0.36,1.19l-0.36,1.19
	l-0.36,1.19l-0.067,0.235l-0.067,0.235l-0.067,0.235l-0.067,0.235c-0.034,0.084-0.065,0.163-0.095,0.238
	c-0.03,0.075-0.06,0.145-0.089,0.21c-0.029,0.065-0.059,0.125-0.089,0.179c-0.03,0.054-0.062,0.102-0.095,0.144
	c-0.034,0.042-0.067,0.08-0.102,0.114c-0.035,0.035-0.07,0.066-0.108,0.095s-0.078,0.057-0.121,0.083
	c-0.043,0.026-0.089,0.051-0.139,0.076c-0.042,0.025-0.088,0.046-0.138,0.063c-0.05,0.017-0.103,0.031-0.16,0.041
	c-0.056,0.01-0.116,0.018-0.179,0.022c-0.062,0.005-0.127,0.007-0.194,0.007c-0.05,0-0.101-0.002-0.151-0.006
	c-0.05-0.004-0.101-0.009-0.151-0.015c-0.05-0.006-0.101-0.014-0.151-0.022s-0.101-0.016-0.151-0.024l-0.025-0.251l-0.025-0.251
	l-0.025-0.251l-0.025-0.251c0.042,0.008,0.082,0.017,0.12,0.025c0.038,0.008,0.075,0.015,0.111,0.021
	c0.036,0.006,0.07,0.012,0.104,0.015c0.034,0.004,0.068,0.006,0.101,0.006c0.05,0,0.098-0.004,0.145-0.013
	c0.046-0.008,0.09-0.021,0.132-0.038c0.042-0.017,0.082-0.038,0.119-0.063c0.038-0.025,0.073-0.054,0.107-0.088
	c0.034-0.034,0.065-0.073,0.095-0.12s0.058-0.1,0.085-0.161s0.053-0.129,0.079-0.205c0.026-0.076,0.051-0.16,0.076-0.252
	l-0.377-1.257l-0.377-1.257l-0.377-1.257L57.663,65.017L57.663,65.017L57.663,65.017L57.663,65.017L57.663,65.017z"/>
<path id="path7694" style="fill:#003366;" d="M28.391,79.436v-1.702v-1.702v-1.702v-1.702h0.419h0.419h0.419h0.419l0.251,1.157
	l0.251,1.157l0.251,1.157l0.251,1.157l0.251-1.157l0.251-1.157l0.251-1.157l0.251-1.157h0.419h0.419h0.419h0.419v1.702v1.702v1.702
	v1.702h-0.26h-0.26h-0.26h-0.26v-1.341v-1.341v-1.341v-1.341l-0.277,1.341l-0.277,1.341l-0.277,1.341l-0.277,1.341h-0.268h-0.268
	h-0.268h-0.268l-0.277-1.341l-0.277-1.341l-0.277-1.341l-0.277-1.341v1.341v1.341v1.341v1.341h-0.26h-0.26h-0.26L28.391,79.436
	L28.391,79.436L28.391,79.436z"/>
<path id="path7696" style="fill:#003366;" d="M35.264,76.016l-0.243-0.05l-0.243-0.05l-0.243-0.05l-0.243-0.05
	c0.034-0.126,0.069-0.243,0.108-0.352c0.039-0.108,0.081-0.208,0.127-0.298c0.046-0.09,0.096-0.171,0.152-0.241
	c0.056-0.071,0.116-0.131,0.183-0.182c0.067-0.059,0.143-0.109,0.226-0.151s0.175-0.077,0.273-0.104
	c0.098-0.027,0.204-0.047,0.317-0.06c0.113-0.013,0.232-0.019,0.358-0.019c0.109,0,0.214,0.004,0.313,0.013
	c0.1,0.008,0.194,0.021,0.282,0.038c0.088,0.017,0.17,0.038,0.244,0.063c0.074,0.025,0.141,0.054,0.2,0.088
	c0.059,0.034,0.113,0.069,0.163,0.107c0.05,0.038,0.096,0.079,0.138,0.123c0.042,0.044,0.08,0.091,0.113,0.142
	s0.063,0.105,0.088,0.164c0.025,0.05,0.048,0.113,0.069,0.188s0.038,0.162,0.053,0.261c0.015,0.098,0.026,0.208,0.034,0.329
	c0.008,0.121,0.012,0.253,0.012,0.396v0.377v0.377v0.377v0.377c0,0.109,0.002,0.21,0.006,0.303c0.004,0.093,0.009,0.179,0.015,0.259
	c0.006,0.08,0.014,0.153,0.021,0.221c0.008,0.068,0.016,0.131,0.024,0.19c0.008,0.05,0.019,0.103,0.031,0.157
	c0.013,0.054,0.027,0.11,0.044,0.166c0.017,0.057,0.036,0.114,0.057,0.172s0.044,0.117,0.069,0.175h-0.268h-0.268h-0.268h-0.268
	l-0.034-0.134l-0.034-0.134l-0.034-0.134l-0.034-0.134c-0.042,0.05-0.086,0.099-0.132,0.145s-0.094,0.09-0.145,0.132
	c-0.05,0.042-0.103,0.082-0.157,0.119s-0.111,0.073-0.17,0.107c-0.05,0.025-0.103,0.048-0.157,0.069s-0.11,0.038-0.166,0.053
	c-0.056,0.015-0.114,0.026-0.172,0.034c-0.058,0.008-0.117,0.012-0.175,0.012c-0.101,0-0.195-0.008-0.284-0.025
	c-0.089-0.017-0.173-0.042-0.253-0.075c-0.08-0.034-0.155-0.075-0.227-0.126c-0.072-0.05-0.141-0.109-0.209-0.176
	c-0.059-0.067-0.111-0.138-0.157-0.215c-0.046-0.076-0.084-0.158-0.116-0.246c-0.031-0.088-0.055-0.182-0.072-0.284
	c-0.016-0.102-0.025-0.211-0.025-0.328c0-0.067,0.004-0.134,0.012-0.2c0.008-0.066,0.019-0.131,0.034-0.194
	c0.015-0.063,0.033-0.124,0.053-0.181s0.044-0.112,0.069-0.162c0.025-0.05,0.052-0.098,0.082-0.145s0.062-0.09,0.098-0.132
	c0.036-0.042,0.074-0.082,0.117-0.119c0.042-0.038,0.088-0.073,0.139-0.107c0.05-0.034,0.105-0.065,0.165-0.095
	c0.06-0.03,0.126-0.058,0.2-0.085c0.073-0.027,0.154-0.053,0.243-0.079c0.09-0.026,0.188-0.051,0.297-0.076
	c0.126-0.025,0.241-0.052,0.346-0.081c0.105-0.028,0.201-0.058,0.286-0.087c0.086-0.029,0.162-0.059,0.23-0.087
	c0.068-0.028,0.126-0.056,0.177-0.081c0-0.067-0.002-0.128-0.006-0.183c-0.004-0.055-0.009-0.104-0.015-0.148
	c-0.006-0.044-0.014-0.083-0.022-0.117c-0.008-0.034-0.016-0.063-0.024-0.089c-0.008-0.025-0.019-0.048-0.031-0.069
	c-0.013-0.021-0.027-0.04-0.044-0.057c-0.017-0.017-0.036-0.031-0.057-0.044c-0.021-0.013-0.044-0.023-0.069-0.031
	c-0.025-0.017-0.052-0.029-0.082-0.039s-0.062-0.016-0.098-0.02c-0.036-0.004-0.074-0.006-0.117-0.007
	c-0.042-0.001-0.089-0.001-0.139-0.001c-0.05,0-0.096,0.002-0.139,0.007c-0.043,0.005-0.083,0.012-0.121,0.023
	c-0.038,0.01-0.073,0.024-0.108,0.041c-0.035,0.017-0.068,0.038-0.102,0.063c-0.034,0.017-0.065,0.04-0.094,0.069
	c-0.029,0.029-0.057,0.063-0.082,0.103c-0.025,0.04-0.048,0.085-0.069,0.135C35.3,75.902,35.281,75.957,35.264,76.016L35.264,76.016
	L35.264,76.016L35.264,76.016L35.264,76.016z M36.706,77.089c-0.034,0.017-0.071,0.034-0.114,0.05
	c-0.042,0.017-0.09,0.034-0.142,0.05s-0.11,0.034-0.173,0.05c-0.063,0.017-0.133,0.034-0.208,0.05
	c-0.084,0.025-0.159,0.048-0.227,0.071c-0.068,0.023-0.127,0.045-0.18,0.068c-0.052,0.023-0.097,0.047-0.136,0.074
	c-0.038,0.027-0.07,0.056-0.095,0.089c-0.025,0.025-0.048,0.052-0.069,0.082c-0.02,0.029-0.038,0.061-0.053,0.094
	c-0.015,0.034-0.026,0.069-0.034,0.107c-0.008,0.038-0.012,0.078-0.012,0.119c0,0.05,0.004,0.096,0.012,0.139
	c0.008,0.043,0.019,0.083,0.034,0.12c0.015,0.038,0.033,0.073,0.053,0.108s0.044,0.068,0.069,0.102
	c0.025,0.034,0.054,0.063,0.087,0.088c0.032,0.025,0.068,0.046,0.106,0.063c0.038,0.017,0.078,0.029,0.118,0.038
	c0.041,0.008,0.083,0.013,0.125,0.013c0.042,0,0.082-0.004,0.12-0.012s0.075-0.019,0.111-0.034c0.036-0.015,0.07-0.033,0.104-0.053
	s0.068-0.044,0.101-0.069c0.034-0.025,0.065-0.052,0.094-0.081c0.029-0.029,0.057-0.059,0.082-0.09s0.048-0.064,0.069-0.097
	c0.021-0.033,0.04-0.067,0.056-0.1s0.031-0.075,0.044-0.125c0.013-0.05,0.023-0.107,0.031-0.172s0.015-0.137,0.019-0.216
	c0.004-0.079,0.006-0.165,0.006-0.257V77.29v-0.067v-0.067V77.089L36.706,77.089L36.706,77.089L36.706,77.089L36.706,77.089z"/>
<path id="path7698" style="fill:#003366;" d="M42.071,79.436h-0.268h-0.268h-0.268h-0.268v-0.629v-0.629V77.55v-0.629
	c0-0.126-0.002-0.241-0.006-0.346c-0.004-0.105-0.009-0.199-0.015-0.283c-0.006-0.084-0.013-0.157-0.021-0.22
	c-0.008-0.063-0.016-0.115-0.025-0.157c-0.008-0.042-0.019-0.082-0.032-0.119s-0.029-0.072-0.048-0.103
	c-0.019-0.031-0.041-0.06-0.067-0.084s-0.055-0.046-0.089-0.062c-0.025-0.025-0.052-0.046-0.081-0.063s-0.059-0.031-0.09-0.041
	c-0.032-0.01-0.064-0.018-0.097-0.023c-0.033-0.005-0.067-0.007-0.1-0.007c-0.042,0-0.084,0.004-0.126,0.012
	c-0.042,0.008-0.084,0.019-0.126,0.034c-0.042,0.015-0.084,0.032-0.126,0.053c-0.042,0.02-0.084,0.043-0.126,0.069
	c-0.034,0.025-0.065,0.054-0.094,0.088c-0.029,0.033-0.057,0.07-0.082,0.11c-0.025,0.04-0.048,0.083-0.069,0.128
	c-0.021,0.046-0.04,0.094-0.057,0.144c-0.017,0.05-0.031,0.113-0.044,0.188c-0.013,0.074-0.023,0.16-0.031,0.257
	c-0.008,0.096-0.015,0.203-0.019,0.32s-0.006,0.242-0.006,0.376v0.562v0.562v0.562v0.562h-0.268h-0.268h-0.268h-0.268v-1.232v-1.232
	v-1.232v-1.232h0.251h0.251h0.251h0.251v0.184v0.184v0.184v0.184c0.042-0.067,0.086-0.132,0.132-0.194
	c0.046-0.062,0.094-0.12,0.145-0.175c0.05-0.054,0.103-0.105,0.157-0.15c0.054-0.045,0.111-0.085,0.17-0.118
	c0.059-0.034,0.117-0.063,0.177-0.088c0.059-0.025,0.119-0.046,0.18-0.063c0.061-0.017,0.123-0.029,0.186-0.038
	c0.063-0.008,0.128-0.013,0.195-0.013c0.075,0,0.149,0.004,0.22,0.013c0.071,0.009,0.14,0.022,0.207,0.041
	c0.067,0.019,0.132,0.043,0.195,0.073s0.124,0.066,0.182,0.107c0.05,0.042,0.098,0.086,0.144,0.133
	c0.045,0.047,0.087,0.096,0.125,0.148s0.071,0.108,0.1,0.167c0.028,0.059,0.051,0.122,0.068,0.189s0.034,0.14,0.049,0.22
	c0.016,0.08,0.03,0.166,0.043,0.258c0.013,0.092,0.023,0.191,0.03,0.295c0.007,0.105,0.012,0.216,0.012,0.333v0.763v0.763v0.763
	L42.071,79.436L42.071,79.436L42.071,79.436L42.071,79.436L42.071,79.436z"/>
<path id="path7700" style="fill:#003366;" d="M43.547,76.016l-0.243-0.05l-0.243-0.05l-0.243-0.05l-0.243-0.05
	c0.034-0.126,0.069-0.243,0.108-0.352c0.039-0.108,0.081-0.208,0.127-0.298c0.046-0.09,0.096-0.171,0.152-0.241
	s0.116-0.131,0.183-0.182c0.067-0.059,0.143-0.109,0.226-0.151c0.083-0.042,0.175-0.077,0.273-0.104
	c0.098-0.027,0.204-0.047,0.317-0.06c0.113-0.013,0.232-0.019,0.358-0.019c0.109,0,0.214,0.004,0.313,0.013
	c0.1,0.008,0.194,0.021,0.282,0.038c0.088,0.017,0.17,0.038,0.244,0.063c0.074,0.025,0.141,0.054,0.2,0.088
	c0.059,0.034,0.113,0.069,0.163,0.107c0.05,0.038,0.096,0.079,0.138,0.123c0.042,0.044,0.08,0.091,0.113,0.142
	s0.063,0.105,0.088,0.164c0.025,0.05,0.048,0.113,0.069,0.188s0.038,0.162,0.053,0.261c0.015,0.098,0.026,0.208,0.034,0.329
	c0.008,0.121,0.012,0.253,0.012,0.396v0.377v0.377v0.377v0.377c0,0.109,0.002,0.21,0.006,0.303c0.004,0.093,0.009,0.179,0.015,0.259
	c0.006,0.08,0.013,0.153,0.021,0.221c0.008,0.068,0.016,0.131,0.025,0.19c0.008,0.05,0.019,0.103,0.031,0.157
	s0.027,0.11,0.044,0.166c0.017,0.057,0.036,0.114,0.057,0.172s0.044,0.117,0.069,0.175h-0.268h-0.268h-0.268h-0.268l-0.034-0.134
	l-0.034-0.134l-0.034-0.134l-0.034-0.134c-0.042,0.05-0.086,0.099-0.132,0.145s-0.094,0.09-0.145,0.132s-0.103,0.082-0.157,0.119
	s-0.111,0.073-0.17,0.107c-0.05,0.025-0.103,0.048-0.157,0.069s-0.11,0.038-0.166,0.053c-0.057,0.015-0.114,0.026-0.172,0.034
	c-0.058,0.008-0.117,0.012-0.175,0.012c-0.101,0-0.195-0.008-0.284-0.025c-0.089-0.017-0.173-0.042-0.253-0.075
	c-0.08-0.034-0.155-0.075-0.227-0.126c-0.072-0.05-0.141-0.109-0.209-0.176c-0.059-0.067-0.111-0.138-0.157-0.215
	s-0.084-0.158-0.116-0.246c-0.031-0.088-0.055-0.182-0.072-0.284c-0.016-0.102-0.025-0.211-0.025-0.328
	c0-0.067,0.004-0.134,0.012-0.2c0.008-0.066,0.019-0.131,0.034-0.194c0.015-0.063,0.033-0.124,0.053-0.181s0.044-0.112,0.069-0.162
	c0.025-0.05,0.052-0.098,0.082-0.145c0.03-0.046,0.062-0.09,0.098-0.132c0.036-0.042,0.074-0.082,0.117-0.119
	c0.042-0.038,0.089-0.073,0.139-0.107c0.05-0.034,0.105-0.065,0.165-0.095c0.06-0.03,0.126-0.058,0.199-0.085
	c0.073-0.027,0.154-0.053,0.244-0.079c0.09-0.026,0.188-0.051,0.297-0.076c0.126-0.025,0.241-0.052,0.346-0.081
	c0.105-0.028,0.201-0.058,0.286-0.087c0.086-0.029,0.162-0.059,0.23-0.087c0.068-0.028,0.126-0.056,0.177-0.081
	c0-0.067-0.002-0.128-0.006-0.183c-0.004-0.055-0.009-0.104-0.015-0.148c-0.006-0.044-0.014-0.083-0.022-0.117
	c-0.008-0.034-0.016-0.063-0.024-0.089c-0.008-0.025-0.019-0.048-0.031-0.069c-0.013-0.021-0.027-0.04-0.044-0.057
	c-0.017-0.017-0.036-0.031-0.057-0.044c-0.021-0.013-0.044-0.023-0.069-0.031c-0.025-0.017-0.052-0.029-0.082-0.039
	c-0.03-0.009-0.062-0.016-0.098-0.02c-0.036-0.004-0.074-0.006-0.117-0.007c-0.042-0.001-0.089-0.001-0.139-0.001
	c-0.05,0-0.096,0.002-0.139,0.007c-0.043,0.005-0.083,0.012-0.121,0.023c-0.038,0.01-0.073,0.024-0.108,0.041
	c-0.035,0.017-0.068,0.038-0.102,0.063c-0.042,0.017-0.078,0.04-0.108,0.069c-0.031,0.029-0.057,0.063-0.08,0.103
	s-0.043,0.085-0.061,0.135C43.58,75.902,43.563,75.957,43.547,76.016L43.547,76.016L43.547,76.016L43.547,76.016L43.547,76.016z
	 M44.955,77.089c-0.034,0.017-0.071,0.034-0.114,0.05c-0.042,0.017-0.09,0.034-0.142,0.05c-0.052,0.017-0.11,0.034-0.173,0.05
	c-0.063,0.017-0.133,0.034-0.208,0.05c-0.084,0.025-0.159,0.048-0.227,0.071c-0.068,0.023-0.127,0.045-0.18,0.068
	c-0.052,0.023-0.098,0.047-0.136,0.074s-0.07,0.056-0.095,0.089c-0.025,0.025-0.048,0.052-0.069,0.082
	c-0.02,0.029-0.038,0.061-0.053,0.094c-0.015,0.034-0.026,0.069-0.034,0.107c-0.008,0.038-0.012,0.078-0.012,0.119
	c0,0.05,0.004,0.096,0.012,0.139c0.008,0.043,0.019,0.083,0.034,0.12c0.015,0.038,0.032,0.073,0.053,0.108s0.044,0.068,0.069,0.102
	c0.025,0.034,0.054,0.063,0.087,0.088c0.032,0.025,0.068,0.046,0.106,0.063c0.038,0.017,0.078,0.029,0.118,0.038
	c0.041,0.008,0.083,0.013,0.125,0.013c0.042,0,0.082-0.004,0.12-0.012s0.075-0.019,0.111-0.034c0.036-0.015,0.07-0.033,0.104-0.053
	c0.034-0.02,0.068-0.044,0.101-0.069c0.034-0.025,0.065-0.052,0.094-0.081c0.029-0.029,0.057-0.059,0.082-0.09
	c0.025-0.032,0.048-0.064,0.069-0.097c0.021-0.033,0.04-0.067,0.057-0.1s0.031-0.075,0.044-0.125s0.023-0.107,0.031-0.172
	c0.008-0.065,0.015-0.137,0.019-0.216c0.004-0.079,0.006-0.165,0.006-0.257V77.29v-0.067v-0.067L44.955,77.089L44.955,77.089
	L44.955,77.089L44.955,77.089L44.955,77.089z"/>
<path id="path7702" style="fill:#003366;" d="M46.564,79.771l0.31,0.042l0.31,0.042l0.31,0.042l0.31,0.042
	c0.008,0.042,0.017,0.082,0.026,0.119c0.009,0.037,0.02,0.072,0.032,0.103s0.027,0.06,0.045,0.084s0.039,0.046,0.064,0.062
	c0.025,0.017,0.052,0.031,0.082,0.044s0.062,0.023,0.098,0.031c0.036,0.008,0.074,0.015,0.117,0.019
	c0.042,0.004,0.089,0.006,0.139,0.006c0.059,0,0.115-0.002,0.169-0.006c0.054-0.004,0.105-0.01,0.153-0.019
	c0.048-0.008,0.093-0.019,0.135-0.031c0.041-0.013,0.079-0.027,0.113-0.044c0.025-0.017,0.048-0.034,0.07-0.051
	c0.021-0.018,0.041-0.037,0.06-0.058c0.019-0.021,0.037-0.044,0.054-0.07c0.017-0.026,0.034-0.056,0.051-0.089
	c0.017-0.034,0.029-0.073,0.039-0.119c0.009-0.046,0.016-0.097,0.02-0.153s0.006-0.118,0.007-0.185
	c0.001-0.067,0.001-0.138,0.001-0.214v-0.176v-0.176v-0.176v-0.176c-0.042,0.067-0.084,0.13-0.126,0.189
	c-0.042,0.059-0.085,0.113-0.129,0.163c-0.044,0.05-0.089,0.096-0.136,0.138s-0.095,0.08-0.145,0.113
	c-0.05,0.034-0.103,0.063-0.157,0.088c-0.054,0.025-0.109,0.046-0.166,0.063c-0.057,0.017-0.114,0.029-0.173,0.038
	c-0.058,0.008-0.117,0.013-0.176,0.013c-0.109,0-0.216-0.013-0.32-0.038c-0.104-0.025-0.204-0.063-0.301-0.113
	c-0.096-0.05-0.189-0.113-0.276-0.189s-0.169-0.163-0.244-0.264c-0.092-0.117-0.172-0.245-0.239-0.383s-0.123-0.285-0.167-0.443
	c-0.044-0.157-0.077-0.324-0.098-0.499c-0.022-0.176-0.032-0.36-0.032-0.553c0-0.21,0.01-0.407,0.031-0.591
	c0.021-0.184,0.052-0.356,0.094-0.516c0.042-0.159,0.094-0.306,0.157-0.44c0.063-0.134,0.136-0.256,0.22-0.365
	s0.172-0.203,0.264-0.283c0.092-0.08,0.189-0.146,0.289-0.198c0.101-0.052,0.205-0.091,0.314-0.117
	c0.109-0.026,0.222-0.038,0.34-0.038c0.059,0,0.117,0.004,0.176,0.013c0.058,0.008,0.116,0.021,0.173,0.038
	c0.056,0.017,0.112,0.038,0.166,0.063s0.106,0.054,0.157,0.088c0.05,0.034,0.101,0.071,0.15,0.113
	c0.049,0.042,0.097,0.088,0.144,0.138c0.046,0.05,0.09,0.105,0.131,0.163c0.041,0.059,0.079,0.122,0.112,0.189v-0.184v-0.184v-0.185
	v-0.185h0.251h0.251h0.251h0.251v1.107v1.107v1.107v1.107c0,0.176-0.004,0.34-0.013,0.491c-0.008,0.151-0.021,0.291-0.038,0.419
	c-0.017,0.128-0.038,0.244-0.063,0.349c-0.025,0.105-0.054,0.2-0.088,0.283c-0.034,0.084-0.071,0.161-0.113,0.233
	c-0.042,0.071-0.088,0.136-0.138,0.195c-0.05,0.059-0.105,0.111-0.163,0.157c-0.059,0.046-0.122,0.086-0.189,0.119
	c-0.067,0.042-0.14,0.078-0.221,0.107s-0.167,0.054-0.262,0.073c-0.094,0.019-0.196,0.033-0.305,0.042
	c-0.109,0.009-0.227,0.013-0.353,0.013c-0.109,0-0.214-0.004-0.314-0.012s-0.195-0.019-0.285-0.034
	c-0.09-0.015-0.175-0.033-0.254-0.053c-0.079-0.02-0.152-0.044-0.22-0.069c-0.067-0.034-0.13-0.069-0.189-0.107
	C47.054,81.101,47,81.06,46.95,81.016c-0.05-0.044-0.096-0.091-0.138-0.142c-0.042-0.051-0.08-0.105-0.113-0.164
	c-0.034-0.059-0.063-0.119-0.088-0.182c-0.025-0.063-0.046-0.128-0.063-0.195c-0.017-0.067-0.029-0.136-0.038-0.207
	c-0.008-0.071-0.013-0.145-0.013-0.22l0.017-0.034l0.017-0.034l0.017-0.034L46.564,79.771L46.564,79.771L46.564,79.771
	L46.564,79.771L46.564,79.771z M47.503,76.887c0,0.134,0.004,0.258,0.013,0.371c0.009,0.114,0.023,0.217,0.042,0.312
	s0.043,0.179,0.073,0.255s0.065,0.143,0.107,0.202c0.042,0.059,0.086,0.111,0.132,0.157s0.094,0.084,0.145,0.116
	s0.103,0.056,0.157,0.072c0.054,0.016,0.111,0.024,0.17,0.024c0.067,0,0.13-0.008,0.19-0.025s0.116-0.04,0.171-0.072
	s0.107-0.07,0.158-0.116c0.051-0.046,0.102-0.098,0.152-0.157c0.042-0.059,0.08-0.126,0.113-0.201s0.061-0.159,0.084-0.251
	c0.023-0.092,0.041-0.193,0.053-0.302c0.012-0.109,0.018-0.226,0.018-0.352s-0.006-0.245-0.018-0.357
	c-0.012-0.112-0.03-0.217-0.053-0.313c-0.023-0.096-0.051-0.184-0.084-0.263s-0.071-0.148-0.113-0.206
	c-0.042-0.059-0.088-0.111-0.137-0.157c-0.049-0.046-0.102-0.084-0.156-0.116c-0.054-0.031-0.111-0.055-0.169-0.072
	c-0.058-0.016-0.116-0.025-0.175-0.025c-0.067,0-0.13,0.008-0.189,0.025c-0.059,0.016-0.115,0.04-0.167,0.072
	s-0.102,0.07-0.148,0.116c-0.047,0.046-0.091,0.098-0.133,0.157c-0.034,0.059-0.065,0.126-0.093,0.201
	c-0.028,0.075-0.053,0.159-0.074,0.251s-0.038,0.193-0.049,0.302C47.51,76.644,47.503,76.762,47.503,76.887L47.503,76.887
	L47.503,76.887L47.503,76.887L47.503,76.887z"/>
<path id="path7704" style="fill:#003366;" d="M53.338,77.893l0.268,0.059l0.268,0.059l0.268,0.059l0.268,0.059
	c-0.034,0.126-0.073,0.243-0.119,0.352c-0.046,0.109-0.097,0.21-0.153,0.302c-0.056,0.092-0.118,0.176-0.185,0.251
	s-0.138,0.143-0.213,0.201c-0.075,0.059-0.155,0.111-0.239,0.157s-0.172,0.084-0.264,0.116c-0.092,0.032-0.189,0.056-0.289,0.072
	c-0.101,0.016-0.205,0.024-0.314,0.024c-0.151,0-0.293-0.013-0.427-0.038s-0.258-0.063-0.374-0.113
	c-0.115-0.05-0.221-0.113-0.317-0.189S51.334,79.1,51.259,79c-0.092-0.117-0.174-0.245-0.245-0.384s-0.13-0.289-0.179-0.45
	c-0.048-0.161-0.085-0.334-0.11-0.519c-0.025-0.185-0.037-0.382-0.037-0.591s0.013-0.407,0.037-0.592
	c0.025-0.185,0.061-0.359,0.11-0.523c0.048-0.163,0.108-0.316,0.179-0.46s0.152-0.278,0.245-0.403
	c0.084-0.101,0.172-0.191,0.265-0.269s0.192-0.146,0.297-0.2c0.105-0.054,0.216-0.096,0.334-0.125
	c0.118-0.028,0.244-0.043,0.378-0.043c0.143,0,0.279,0.013,0.408,0.038c0.129,0.026,0.252,0.064,0.367,0.117
	c0.115,0.052,0.223,0.118,0.323,0.199c0.1,0.08,0.192,0.174,0.276,0.283c0.092,0.126,0.174,0.264,0.245,0.416
	s0.131,0.317,0.179,0.498c0.048,0.18,0.085,0.375,0.109,0.586c0.025,0.211,0.037,0.437,0.037,0.68v0.034v0.034v0.034v0.034h-0.671
	h-0.671h-0.671h-0.671c0,0.101,0.006,0.195,0.018,0.283c0.012,0.088,0.03,0.17,0.053,0.245c0.023,0.075,0.051,0.145,0.084,0.207
	c0.033,0.063,0.071,0.119,0.113,0.17c0.042,0.05,0.086,0.096,0.132,0.137c0.046,0.041,0.094,0.076,0.145,0.106
	c0.05,0.029,0.103,0.052,0.157,0.068c0.054,0.016,0.111,0.024,0.17,0.024c0.084-0.008,0.161-0.029,0.232-0.063
	s0.135-0.081,0.191-0.142c0.057-0.061,0.106-0.135,0.148-0.224C53.279,78.113,53.313,78.011,53.338,77.893L53.338,77.893
	L53.338,77.893L53.338,77.893L53.338,77.893z M53.405,76.552c0-0.092-0.006-0.18-0.018-0.264c-0.012-0.083-0.028-0.162-0.049-0.235
	c-0.021-0.073-0.046-0.142-0.074-0.204c-0.028-0.062-0.06-0.119-0.093-0.169c-0.042-0.05-0.084-0.094-0.126-0.132
	c-0.042-0.038-0.085-0.069-0.129-0.094c-0.044-0.025-0.089-0.044-0.136-0.057s-0.095-0.019-0.145-0.019
	c-0.059,0-0.113,0.006-0.165,0.019c-0.051,0.013-0.1,0.031-0.146,0.057c-0.046,0.025-0.09,0.057-0.133,0.094
	c-0.043,0.038-0.085,0.082-0.127,0.132c-0.042,0.05-0.078,0.107-0.107,0.169c-0.03,0.062-0.054,0.129-0.073,0.2
	c-0.019,0.071-0.033,0.147-0.041,0.225c-0.009,0.079-0.013,0.16-0.013,0.244l0.394,0.008l0.394,0.008l0.394,0.009L53.405,76.552
	L53.405,76.552L53.405,76.552L53.405,76.552L53.405,76.552z"/>
<path id="path7706" style="fill:#003366;" d="M54.847,74.507h0.243h0.243h0.243h0.243v0.168v0.168v0.168v0.168
	c0.042-0.067,0.086-0.13,0.131-0.189c0.046-0.059,0.093-0.113,0.141-0.163c0.048-0.05,0.097-0.096,0.147-0.138s0.1-0.08,0.15-0.113
	c0.05-0.034,0.103-0.063,0.157-0.088s0.11-0.046,0.166-0.063c0.057-0.017,0.114-0.029,0.172-0.038
	c0.058-0.008,0.117-0.013,0.175-0.013c0.067,0,0.13,0.004,0.19,0.013c0.06,0.008,0.116,0.021,0.171,0.038
	c0.054,0.017,0.107,0.038,0.158,0.063c0.051,0.025,0.102,0.054,0.152,0.088c0.05,0.034,0.096,0.071,0.139,0.113
	s0.083,0.088,0.121,0.138c0.038,0.05,0.073,0.105,0.108,0.163c0.035,0.059,0.068,0.122,0.102,0.189
	c0.042-0.067,0.086-0.13,0.131-0.189c0.046-0.059,0.093-0.113,0.141-0.163c0.048-0.05,0.097-0.096,0.147-0.138s0.1-0.08,0.15-0.113
	c0.05-0.034,0.103-0.063,0.157-0.088s0.109-0.046,0.166-0.063c0.057-0.017,0.114-0.029,0.173-0.038
	c0.058-0.008,0.117-0.013,0.176-0.013c0.067,0,0.132,0.004,0.195,0.013c0.063,0.008,0.124,0.021,0.182,0.038
	c0.059,0.017,0.115,0.038,0.17,0.063c0.054,0.025,0.107,0.054,0.157,0.088c0.05,0.034,0.098,0.069,0.144,0.108
	c0.046,0.039,0.089,0.081,0.129,0.127c0.04,0.046,0.076,0.096,0.109,0.152c0.033,0.056,0.062,0.116,0.087,0.183
	c0.025,0.059,0.048,0.128,0.069,0.206c0.02,0.079,0.038,0.167,0.053,0.263c0.015,0.096,0.026,0.201,0.034,0.313
	c0.008,0.112,0.012,0.232,0.012,0.357v0.788v0.788v0.788v0.788h-0.268h-0.268h-0.268h-0.268v-0.704v-0.704v-0.704v-0.704
	c0-0.126-0.002-0.239-0.007-0.341c-0.005-0.102-0.012-0.192-0.022-0.271s-0.024-0.149-0.041-0.209
	c-0.017-0.06-0.038-0.11-0.063-0.152s-0.052-0.078-0.082-0.107c-0.03-0.03-0.062-0.054-0.098-0.073
	c-0.036-0.019-0.074-0.032-0.117-0.041s-0.089-0.013-0.139-0.013c-0.059,0-0.115,0.006-0.169,0.019
	c-0.054,0.013-0.105,0.033-0.154,0.06c-0.048,0.027-0.093,0.062-0.135,0.104c-0.041,0.042-0.079,0.093-0.113,0.151
	c-0.034,0.059-0.065,0.13-0.093,0.214c-0.028,0.084-0.053,0.182-0.074,0.293c-0.021,0.111-0.038,0.236-0.049,0.375
	c-0.012,0.139-0.018,0.292-0.018,0.46v0.595v0.595v0.595v0.595h-0.268h-0.268h-0.268h-0.268V78.79v-0.679v-0.679v-0.679
	c0-0.134-0.002-0.256-0.006-0.365c-0.004-0.109-0.01-0.207-0.019-0.293c-0.008-0.086-0.019-0.16-0.031-0.224
	s-0.027-0.116-0.044-0.158c-0.017-0.05-0.04-0.094-0.069-0.132c-0.029-0.038-0.063-0.069-0.103-0.094
	c-0.04-0.025-0.085-0.044-0.135-0.057s-0.104-0.019-0.163-0.019c-0.042,0-0.082,0.004-0.12,0.012
	c-0.038,0.008-0.075,0.019-0.111,0.034c-0.036,0.015-0.07,0.032-0.104,0.053c-0.034,0.02-0.068,0.043-0.101,0.069
	c-0.034,0.025-0.065,0.054-0.094,0.088c-0.029,0.033-0.057,0.07-0.082,0.11s-0.048,0.083-0.069,0.128
	c-0.021,0.046-0.04,0.094-0.057,0.144c-0.017,0.05-0.031,0.109-0.044,0.177c-0.013,0.068-0.023,0.144-0.031,0.23
	c-0.008,0.086-0.015,0.181-0.019,0.286c-0.004,0.105-0.006,0.221-0.006,0.346v0.595v0.595v0.595v0.595h-0.268h-0.268h-0.268H54.78
	l0.017-1.241l0.017-1.241l0.017-1.241L54.847,74.507L54.847,74.507L54.847,74.507L54.847,74.507L54.847,74.507z"/>
<path id="path7708" style="fill:#003366;" d="M63.766,77.893l0.268,0.059l0.268,0.059l0.268,0.059l0.268,0.059
	c-0.034,0.126-0.073,0.243-0.119,0.352c-0.046,0.109-0.097,0.21-0.153,0.302c-0.057,0.092-0.119,0.176-0.185,0.251
	s-0.138,0.143-0.213,0.201c-0.075,0.059-0.155,0.111-0.239,0.157c-0.084,0.046-0.172,0.084-0.264,0.116s-0.189,0.056-0.289,0.072
	c-0.101,0.016-0.205,0.024-0.314,0.024c-0.151,0-0.293-0.013-0.427-0.038c-0.134-0.025-0.258-0.063-0.373-0.113
	c-0.115-0.05-0.221-0.113-0.317-0.189S61.763,79.1,61.687,79c-0.092-0.117-0.174-0.245-0.245-0.384
	c-0.071-0.139-0.13-0.289-0.179-0.45c-0.048-0.161-0.085-0.334-0.11-0.519c-0.025-0.185-0.037-0.382-0.037-0.591
	s0.013-0.407,0.037-0.592c0.025-0.185,0.061-0.359,0.11-0.523c0.048-0.163,0.108-0.316,0.179-0.46s0.152-0.278,0.244-0.403
	c0.084-0.101,0.172-0.191,0.265-0.269s0.192-0.146,0.297-0.2c0.105-0.054,0.216-0.096,0.334-0.125
	c0.118-0.028,0.244-0.043,0.378-0.043c0.143,0,0.279,0.013,0.408,0.038c0.129,0.026,0.252,0.064,0.367,0.117
	c0.115,0.052,0.223,0.118,0.323,0.198c0.1,0.08,0.192,0.174,0.276,0.283c0.092,0.126,0.174,0.264,0.245,0.416
	c0.071,0.152,0.13,0.318,0.179,0.498c0.048,0.18,0.085,0.375,0.11,0.586c0.025,0.211,0.037,0.437,0.037,0.68v0.034v0.034v0.034
	v0.034h-0.671h-0.671h-0.671h-0.671c0,0.101,0.006,0.195,0.018,0.283c0.012,0.088,0.03,0.17,0.053,0.245
	c0.023,0.075,0.051,0.145,0.084,0.207c0.033,0.063,0.071,0.119,0.113,0.17c0.042,0.05,0.086,0.096,0.132,0.137
	c0.046,0.041,0.094,0.076,0.145,0.106s0.103,0.052,0.157,0.068c0.054,0.016,0.111,0.024,0.17,0.024
	c0.084-0.008,0.159-0.029,0.227-0.063s0.129-0.081,0.183-0.142c0.054-0.061,0.103-0.135,0.146-0.224
	C63.695,78.113,63.732,78.011,63.766,77.893L63.766,77.893L63.766,77.893L63.766,77.893L63.766,77.893z M63.833,76.552
	c0-0.092-0.006-0.18-0.018-0.264c-0.012-0.083-0.028-0.162-0.049-0.235c-0.021-0.073-0.046-0.142-0.074-0.204
	c-0.028-0.062-0.06-0.119-0.093-0.169c-0.042-0.05-0.084-0.094-0.126-0.132c-0.042-0.038-0.085-0.069-0.129-0.094
	c-0.044-0.025-0.089-0.044-0.136-0.057s-0.095-0.019-0.145-0.019c-0.059,0-0.113,0.006-0.165,0.019
	c-0.051,0.013-0.1,0.031-0.146,0.057c-0.046,0.025-0.09,0.057-0.133,0.094c-0.043,0.038-0.085,0.082-0.127,0.132
	c-0.042,0.05-0.078,0.107-0.107,0.169c-0.03,0.062-0.054,0.129-0.073,0.2c-0.019,0.071-0.033,0.147-0.042,0.225
	s-0.013,0.16-0.013,0.244l0.394,0.008l0.394,0.008l0.394,0.009L63.833,76.552L63.833,76.552L63.833,76.552L63.833,76.552
	L63.833,76.552z"/>
<path id="path7710" style="fill:#003366;" d="M68.997,79.436h-0.268H68.46h-0.268h-0.268v-0.629v-0.629V77.55v-0.629
	c0-0.126-0.002-0.241-0.006-0.346c-0.004-0.105-0.009-0.199-0.015-0.283c-0.006-0.084-0.013-0.157-0.021-0.22
	c-0.008-0.063-0.016-0.115-0.025-0.157c-0.008-0.042-0.019-0.082-0.032-0.119c-0.013-0.037-0.029-0.072-0.048-0.103
	c-0.019-0.032-0.041-0.06-0.067-0.085c-0.026-0.025-0.055-0.046-0.089-0.062c-0.025-0.025-0.052-0.046-0.081-0.063
	c-0.029-0.017-0.059-0.031-0.09-0.041c-0.032-0.01-0.064-0.018-0.097-0.023c-0.033-0.005-0.067-0.007-0.1-0.007
	c-0.042,0-0.084,0.004-0.126,0.012s-0.084,0.019-0.126,0.034c-0.042,0.015-0.084,0.032-0.126,0.053
	c-0.042,0.02-0.084,0.043-0.126,0.069c-0.034,0.025-0.065,0.054-0.094,0.088c-0.029,0.033-0.057,0.07-0.082,0.11
	s-0.048,0.083-0.069,0.128s-0.04,0.094-0.057,0.144c-0.017,0.05-0.031,0.113-0.044,0.188s-0.023,0.16-0.031,0.257
	c-0.008,0.096-0.015,0.203-0.019,0.32c-0.004,0.116-0.006,0.242-0.006,0.376v0.562v0.562v0.562v0.562H66.08h-0.268h-0.268h-0.268
	v-1.232v-1.232v-1.232v-1.232h0.251h0.251h0.251h0.251v0.184v0.184v0.184v0.184c0.042-0.067,0.086-0.132,0.132-0.194
	c0.046-0.062,0.094-0.12,0.145-0.175c0.05-0.054,0.103-0.105,0.157-0.15s0.111-0.085,0.17-0.118
	c0.059-0.034,0.117-0.063,0.177-0.088c0.059-0.025,0.119-0.046,0.18-0.063c0.061-0.017,0.123-0.029,0.186-0.038
	c0.063-0.008,0.128-0.013,0.195-0.013c0.075,0,0.149,0.004,0.22,0.013s0.14,0.022,0.207,0.041c0.067,0.019,0.132,0.043,0.195,0.073
	c0.063,0.03,0.124,0.066,0.182,0.107c0.05,0.042,0.099,0.086,0.144,0.133c0.045,0.047,0.087,0.096,0.125,0.148
	c0.038,0.052,0.071,0.108,0.1,0.167s0.051,0.122,0.068,0.189c0.017,0.067,0.034,0.14,0.049,0.22s0.03,0.166,0.043,0.258
	c0.013,0.092,0.023,0.191,0.03,0.295c0.007,0.105,0.012,0.216,0.012,0.333v0.763v0.763v0.763L68.997,79.436L68.997,79.436
	L68.997,79.436L68.997,79.436L68.997,79.436z"/>
<path id="path7712" style="fill:#003366;" d="M71.512,74.507v0.26v0.26v0.26v0.26h-0.184h-0.184h-0.184h-0.184v0.495v0.495v0.495
	v0.495c0,0.109,0,0.205,0,0.29c0.001,0.084,0.002,0.157,0.004,0.217c0.002,0.061,0.005,0.11,0.01,0.148s0.011,0.065,0.02,0.082
	c0.008,0.034,0.021,0.063,0.037,0.088c0.016,0.025,0.036,0.046,0.059,0.063c0.023,0.017,0.049,0.029,0.078,0.038
	c0.029,0.008,0.06,0.013,0.094,0.013c0.025,0,0.052-0.002,0.082-0.007c0.03-0.005,0.062-0.012,0.098-0.022
	c0.036-0.01,0.075-0.024,0.117-0.041c0.042-0.017,0.089-0.038,0.139-0.063l0.025,0.251l0.025,0.251l0.025,0.251l0.025,0.251
	c-0.059,0.034-0.122,0.063-0.188,0.088c-0.066,0.025-0.135,0.046-0.206,0.063c-0.071,0.017-0.145,0.029-0.219,0.038
	c-0.074,0.008-0.15,0.012-0.225,0.012c-0.067,0-0.132-0.004-0.194-0.013c-0.062-0.008-0.122-0.021-0.179-0.038
	c-0.057-0.017-0.11-0.038-0.16-0.063c-0.05-0.025-0.096-0.054-0.138-0.088c-0.042-0.034-0.08-0.069-0.114-0.108
	c-0.034-0.039-0.065-0.081-0.092-0.127s-0.051-0.096-0.073-0.152c-0.021-0.056-0.04-0.116-0.057-0.183
	c-0.008-0.042-0.017-0.096-0.025-0.163c-0.008-0.067-0.015-0.147-0.021-0.239c-0.006-0.092-0.012-0.197-0.015-0.314
	c-0.004-0.117-0.006-0.247-0.006-0.39v-0.536v-0.536v-0.536v-0.536h-0.126H69.45h-0.126h-0.126v-0.251V75.01v-0.251v-0.251h0.126
	h0.126h0.126h0.126v-0.243V74.02v-0.243v-0.243l0.268-0.193l0.268-0.193l0.268-0.193l0.268-0.193v0.436v0.436v0.436v0.436h0.184
	h0.184h0.184L71.512,74.507L71.512,74.507L71.512,74.507L71.512,74.507L71.512,74.507z"/>
</svg>
