<?xml version="1.0" encoding="iso-8859-1"?>
<!-- Generator: Adobe Illustrator 25.4.1, SVG Export Plug-In . SVG Version: 6.00 Build 0)  -->
<svg version="1.1"
	 id="svg8" inkscape:export-filename="C:\Users\Charlotte Abel\Documents\Symbology\Components\For Distribution\communications_alerts-warnings-messages.png" inkscape:export-xdpi="300.00464" inkscape:export-ydpi="300.00464" inkscape:version="0.91 r13725" sodipodi:docname="health-and-medical_public-health-with-label-clr_256x256.svg" xmlns:cc="http://creativecommons.org/ns#" xmlns:dc="http://purl.org/dc/elements/1.1/" xmlns:inkscape="http://www.inkscape.org/namespaces/inkscape" xmlns:rdf="http://www.w3.org/1999/02/22-rdf-syntax-ns#" xmlns:sodipodi="http://sodipodi.sourceforge.net/DTD/sodipodi-0.dtd" xmlns:svg="http://www.w3.org/2000/svg"
	 xmlns="http://www.w3.org/2000/svg" xmlns:xlink="http://www.w3.org/1999/xlink" x="0px" y="0px" viewBox="0 0 100 100"
	 style="enable-background:new 0 0 100 100;" xml:space="preserve">
<sodipodi:namedview  bordercolor="#666666" borderopacity="1.0" id="base" inkscape:current-layer="g8314" inkscape:cx="-302.11164" inkscape:cy="84.283015" inkscape:document-units="px" inkscape:guide-bbox="true" inkscape:lockguides="true" inkscape:pageopacity="0.0" inkscape:pageshadow="2" inkscape:window-height="657" inkscape:window-maximized="1" inkscape:window-width="1280" inkscape:window-x="-8" inkscape:window-y="-8" inkscape:zoom="0.765625" pagecolor="#ffffff" showgrid="false" showguides="false" units="px">
	<sodipodi:guide  id="guide5700" inkscape:locked="true" orientation="0,1" position="-0.93017576,23.874511"></sodipodi:guide>
	<sodipodi:guide  id="guide5726" inkscape:locked="true" orientation="0,1" position="-26.098869,26.473047"></sodipodi:guide>
	<sodipodi:guide  id="guide5880" inkscape:locked="true" orientation="0,1" position="104.51042,-2.9104167"></sodipodi:guide>
	<sodipodi:guide  id="guide6001" inkscape:locked="true" orientation="0,1" position="-71.093695,29.279377"></sodipodi:guide>
	<sodipodi:guide  id="guide6005" inkscape:locked="true" orientation="0,1" position="-46.304445,58.278122"></sodipodi:guide>
	<sodipodi:guide  id="guide6736" inkscape:locked="true" orientation="0,1" position="-0.10335287,20.205485"></sodipodi:guide>
	<sodipodi:guide  id="guide6738" inkscape:locked="true" orientation="0,1" position="-0.43848907,22.874513"></sodipodi:guide>
	<inkscape:grid  id="grid2386" type="xygrid"></inkscape:grid>
</sodipodi:namedview>
<g id="g1180" transform="translate(0,-229.2666)" inkscape:groupmode="layer" inkscape:label="halo:always" style="display:none;">
	<g id="g1210" inkscape:groupmode="layer" inkscape:label="-gray-halo:iter3" style="display:inline;">
		<g id="circle1208">
			<path style="fill:#919395;" d="M50,329.3c-27.6,0-50-22.4-50-50s22.4-50,50-50s50,22.4,50,50S77.6,329.3,50,329.3z M50,237.9
				c-22.8,0-41.4,18.6-41.4,41.4s18.6,41.4,41.4,41.4s41.4-18.6,41.4-41.4S72.8,237.9,50,237.9z"/>
		</g>
	</g>
	<g id="g1206" inkscape:groupmode="layer" inkscape:label="-red-halo:iter3" style="display:inline;">
		<g id="circle1204">
			<path style="fill:#C52038;" d="M50,329.3c-27.6,0-50-22.4-50-50s22.4-50,50-50s50,22.4,50,50S77.6,329.3,50,329.3z M50,237.9
				c-22.8,0-41.4,18.6-41.4,41.4s18.6,41.4,41.4,41.4s41.4-18.6,41.4-41.4S72.8,237.9,50,237.9z"/>
		</g>
	</g>
	<g id="g1202" inkscape:groupmode="layer" inkscape:label="-green-halo:iter3" style="display:inline;">
		<g id="circle1200">
			<path style="fill:#5E9C42;" d="M50,329.3c-27.6,0-50-22.4-50-50s22.4-50,50-50s50,22.4,50,50S77.6,329.3,50,329.3z M50,237.9
				c-22.8,0-41.4,18.6-41.4,41.4s18.6,41.4,41.4,41.4s41.4-18.6,41.4-41.4S72.8,237.9,50,237.9z"/>
		</g>
	</g>
	<g id="layer18" inkscape:groupmode="layer" inkscape:label="-yellow-halo:iter3" style="display:inline;">
		<g id="circle1178-4">
			<path style="fill:#FBBA16;" d="M50,329.3c-27.6,0-50-22.4-50-50s22.4-50,50-50s50,22.4,50,50S77.6,329.3,50,329.3z M50,237.9
				c-22.8,0-41.4,18.6-41.4,41.4s18.6,41.4,41.4,41.4s41.4-18.6,41.4-41.4S72.8,237.9,50,237.9z"/>
		</g>
	</g>
</g>
<path id="path8300" inkscape:connector-curvature="0" inkscape:export-filename="C:\Users\Charlotte Abel\Documents\Symbology\Components\For Distribution\health-and-medical-icon_public-health-gray.png" inkscape:export-xdpi="300.00458" inkscape:export-ydpi="300.00458" style="fill:#003366;" d="
	M47.666,25.924v-0.19v-0.19v-0.19v-0.19h-0.908H45.85h-0.908h-0.908c-0.084-0.338-0.222-0.65-0.403-0.927
	c-0.181-0.277-0.405-0.52-0.664-0.721c-0.259-0.201-0.552-0.359-0.87-0.467c-0.318-0.108-0.661-0.166-1.02-0.166
	c-0.359,0-0.702,0.063-1.02,0.178s-0.611,0.281-0.87,0.487c-0.259,0.206-0.483,0.452-0.664,0.725
	c-0.181,0.273-0.318,0.574-0.403,0.891h-0.908h-0.908h-0.908h-0.908v0.19v0.19v0.19v0.19h-1.141h-1.141h-1.141h-1.141v7.16v7.16
	v7.16v7.16H35.5h5.576h5.576h5.576v-7.16v-7.16v-7.16v-7.16h-1.141h-1.141h-1.141H47.666z"/>
<path id="path8302" inkscape:connector-curvature="0" inkscape:export-filename="C:\Users\Charlotte Abel\Documents\Symbology\Components\For Distribution\health-and-medical-icon_public-health-gray.png" inkscape:export-xdpi="300.00458" inkscape:export-ydpi="300.00458" style="fill:#FFFFFF;" d="
	M41.076,24.319c0.148,0,0.29,0.021,0.425,0.061c0.135,0.04,0.261,0.098,0.378,0.172c0.116,0.074,0.222,0.164,0.314,0.267
	c0.092,0.103,0.172,0.219,0.235,0.346h-0.676h-0.676H40.4h-0.676c0.063-0.127,0.143-0.243,0.235-0.346
	c0.092-0.103,0.198-0.193,0.314-0.267c0.116-0.074,0.243-0.132,0.378-0.172S40.928,24.319,41.076,24.319z"/>
<path id="path8304" inkscape:connector-curvature="0" inkscape:export-filename="C:\Users\Charlotte Abel\Documents\Symbology\Components\For Distribution\health-and-medical-icon_public-health-gray.png" inkscape:export-xdpi="300.00458" inkscape:export-ydpi="300.00458" style="fill:#FFFFFF;" d="
	M49.779,52.2h-4.351h-4.351h-4.351h-4.351v-5.978v-5.978v-5.978V28.29h0.528h0.528h0.528h0.528v0.359v0.359v0.359v0.359h3.295h3.295
	h3.295h3.295v-0.359v-0.359v-0.359V28.29h0.528h0.528h0.528h0.528c0,0,0,1.494,0,3.736s0,5.23,0,8.219c0,2.989,0,5.978,0,8.219
	S49.779,52.2,49.779,52.2z"/>
<path id="path8306" inkscape:connector-curvature="0" inkscape:export-filename="C:\Users\Charlotte Abel\Documents\Symbology\Components\For Distribution\health-and-medical-icon_public-health-gray.png" inkscape:export-xdpi="300.00458" inkscape:export-ydpi="300.00458" style="fill:#003366;" d="
	M38.795,33.781h1.141h1.141h1.141h1.141v1.141v1.141v1.141v1.141h1.141h1.141h1.141h1.141v1.141v1.141v1.141v1.141h-1.141h-1.141
	h-1.141h-1.141v1.141v1.141v1.141v1.141h-1.141h-1.141h-1.141h-1.141v-1.141v-1.141v-1.141v-1.141h-1.141h-1.141h-1.141h-1.141
	v-1.141v-1.141v-1.141v-1.141h1.141h1.141h1.141h1.141v-1.141v-1.141v-1.141V33.781z"/>
<path id="path8308" inkscape:connector-curvature="0" inkscape:export-filename="C:\Users\Charlotte Abel\Documents\Symbology\Components\For Distribution\health-and-medical-icon_public-health-gray.png" inkscape:export-xdpi="300.00458" inkscape:export-ydpi="300.00458" style="fill:#003366;" d="
	M57.129,20.939v0.359v0.359v0.359v0.359h0.676h0.676h0.676h0.676v0.887v0.887v0.887v0.887h-1.31h-1.31h-1.31h-1.31v0.359v0.359
	v0.359v0.359h0.95h0.95h0.95h0.95v4.626v4.626v4.626v4.626h0.359h0.359h0.359h0.359h0.084h0.084h0.084h0.084v0.507v0.507v0.507
	v0.507h0.169h0.169h0.169h0.169v2.302v2.302v2.302V57.1h0.359h0.359h0.359h0.359v-2.302v-2.302v-2.302v-2.302h0.169h0.169h0.169
	h0.169v-0.507v-0.507V46.37v-0.507h0.084h0.084h0.084h0.084h0.359h0.359h0.359h0.359v-4.626v-4.626v-4.626V27.36h0.972h0.972h0.972
	h0.972v-0.359v-0.359v-0.359v-0.359h-1.31H66h-1.31h-1.31v-0.887V24.15v-0.887v-0.887h0.676h0.676h0.676h0.676v-0.359v-0.359v-0.359
	v-0.359c0,0-0.56,0-1.399,0c-0.84,0-1.959,0-3.079,0s-2.239,0-3.079,0S57.129,20.939,57.129,20.939z"/>
<path id="path8310" inkscape:connector-curvature="0" inkscape:export-filename="C:\Users\Charlotte Abel\Documents\Symbology\Components\For Distribution\health-and-medical-icon_public-health-gray.png" inkscape:export-xdpi="300.00458" inkscape:export-ydpi="300.00458" style="fill:#FFFFFF;" d="
	M59.833,27.36h0.887h0.887h0.887h0.887v2.197v2.197v2.197v2.197h-0.887h-0.887H60.72h-0.887V33.95v-2.197v-2.197V27.36z"/>
<path id="path10552" style="fill:#003366;" d="M38.757,73.434v-1.76v-1.76v-1.76v-1.76h0.469h0.469h0.469h0.469
	c0.176,0,0.335,0.002,0.479,0.006c0.144,0.004,0.271,0.01,0.385,0.019c0.113,0.008,0.212,0.019,0.297,0.031s0.156,0.027,0.215,0.044
	c0.084,0.025,0.166,0.059,0.244,0.101c0.079,0.042,0.154,0.092,0.225,0.151c0.071,0.059,0.138,0.126,0.2,0.201
	c0.062,0.075,0.118,0.159,0.169,0.251c0.059,0.092,0.109,0.189,0.151,0.29c0.042,0.102,0.077,0.209,0.104,0.322
	c0.027,0.113,0.047,0.233,0.06,0.359c0.013,0.127,0.02,0.261,0.02,0.403c0,0.126-0.006,0.247-0.019,0.364
	c-0.013,0.117-0.031,0.229-0.057,0.336c-0.025,0.107-0.057,0.208-0.094,0.304c-0.038,0.096-0.082,0.186-0.132,0.27
	c-0.05,0.084-0.103,0.161-0.157,0.233c-0.054,0.072-0.111,0.138-0.17,0.199c-0.059,0.061-0.119,0.116-0.182,0.167
	c-0.063,0.051-0.128,0.097-0.195,0.139c-0.075,0.034-0.161,0.063-0.259,0.088c-0.097,0.025-0.206,0.046-0.328,0.063
	c-0.122,0.017-0.256,0.029-0.403,0.038c-0.148,0.008-0.309,0.013-0.485,0.013h-0.193h-0.193h-0.193h-0.193v0.662v0.662v0.662v0.662
	h-0.293h-0.293h-0.293H38.757L38.757,73.434L38.757,73.434L38.757,73.434L38.757,73.434z M39.897,67.566v0.503v0.503v0.503v0.503
	h0.159h0.159h0.159h0.159c0.109,0,0.21-0.002,0.301-0.006c0.092-0.004,0.174-0.01,0.248-0.019c0.073-0.008,0.137-0.019,0.191-0.031
	c0.054-0.013,0.098-0.027,0.132-0.044c0.042-0.017,0.082-0.036,0.119-0.057s0.072-0.046,0.103-0.073
	c0.032-0.027,0.06-0.058,0.084-0.092c0.025-0.034,0.046-0.072,0.062-0.114c0.025-0.042,0.046-0.086,0.063-0.131
	c0.017-0.046,0.031-0.093,0.041-0.141s0.018-0.097,0.022-0.147c0.005-0.05,0.007-0.1,0.007-0.15c0-0.059-0.004-0.115-0.012-0.17
	c-0.008-0.054-0.019-0.107-0.034-0.157c-0.015-0.05-0.032-0.098-0.053-0.145s-0.044-0.09-0.069-0.132
	c-0.025-0.042-0.052-0.08-0.081-0.114c-0.029-0.034-0.059-0.065-0.09-0.092c-0.032-0.027-0.064-0.051-0.097-0.073
	c-0.033-0.021-0.067-0.04-0.1-0.057c-0.034-0.017-0.08-0.029-0.138-0.039s-0.128-0.016-0.21-0.02
	c-0.082-0.004-0.175-0.006-0.279-0.007s-0.22-0.001-0.345-0.001h-0.126h-0.126h-0.126L39.897,67.566L39.897,67.566L39.897,67.566z"
	/>
<path id="path10554" style="fill:#003366;" d="M46.436,73.434v-0.193v-0.193v-0.193v-0.193c-0.042,0.067-0.086,0.132-0.132,0.194
	c-0.046,0.062-0.094,0.121-0.145,0.175s-0.103,0.105-0.157,0.15c-0.054,0.045-0.111,0.085-0.17,0.118
	c-0.059,0.042-0.119,0.078-0.182,0.107c-0.062,0.03-0.126,0.054-0.191,0.073c-0.065,0.019-0.131,0.032-0.198,0.041
	s-0.134,0.013-0.201,0.013c-0.067,0-0.134-0.004-0.2-0.013c-0.066-0.008-0.131-0.021-0.194-0.038
	c-0.063-0.017-0.124-0.038-0.181-0.063c-0.058-0.025-0.112-0.054-0.162-0.088c-0.05-0.034-0.098-0.071-0.145-0.113
	s-0.09-0.088-0.132-0.138c-0.042-0.05-0.082-0.105-0.119-0.163s-0.073-0.122-0.107-0.189c-0.025-0.067-0.048-0.14-0.069-0.221
	c-0.02-0.081-0.038-0.169-0.053-0.265c-0.015-0.096-0.026-0.201-0.034-0.315c-0.008-0.114-0.012-0.238-0.012-0.372v-0.805v-0.805
	v-0.805v-0.805h0.277h0.277h0.277h0.277v0.587v0.587v0.587v0.587c0,0.168,0,0.321,0.001,0.458c0.001,0.138,0.002,0.26,0.004,0.367
	c0.002,0.107,0.005,0.198,0.01,0.273c0.005,0.075,0.011,0.134,0.02,0.175c0.008,0.042,0.019,0.084,0.032,0.124
	s0.029,0.079,0.048,0.115c0.019,0.036,0.041,0.068,0.066,0.096c0.026,0.028,0.055,0.051,0.089,0.068
	c0.025,0.025,0.054,0.046,0.086,0.063c0.032,0.017,0.066,0.031,0.102,0.041c0.036,0.011,0.072,0.018,0.109,0.023
	c0.036,0.005,0.072,0.007,0.105,0.007c0.05,0,0.098-0.004,0.145-0.013s0.09-0.021,0.132-0.038c0.042-0.017,0.082-0.038,0.119-0.063
	c0.038-0.025,0.073-0.054,0.107-0.088c0.042-0.034,0.08-0.069,0.113-0.107c0.034-0.038,0.063-0.078,0.088-0.119
	c0.025-0.042,0.046-0.086,0.063-0.132c0.017-0.046,0.029-0.094,0.038-0.145c0.017-0.05,0.029-0.115,0.039-0.195
	c0.009-0.08,0.016-0.176,0.02-0.287c0.004-0.111,0.006-0.238,0.007-0.381c0.001-0.143,0.001-0.302,0.001-0.478v-0.536v-0.536V68.84
	v-0.536h0.277h0.277h0.277h0.277v1.274v1.274v1.274V73.4h-0.243h-0.243h-0.243h-0.243v0.008v0.008v0.008V73.434z"/>
<path id="path10556" style="fill:#003366;" d="M48.112,73.434v-1.76v-1.76v-1.76v-1.76h0.277h0.277h0.277h0.277v0.637v0.637v0.637
	v0.637c0.042-0.059,0.086-0.113,0.131-0.164c0.046-0.051,0.093-0.098,0.141-0.142c0.048-0.044,0.097-0.085,0.147-0.123
	c0.05-0.038,0.1-0.074,0.151-0.108s0.103-0.061,0.157-0.083c0.054-0.022,0.109-0.039,0.166-0.051
	c0.057-0.013,0.114-0.021,0.173-0.026c0.058-0.005,0.117-0.007,0.176-0.007c0.126,0,0.245,0.015,0.359,0.043
	s0.222,0.072,0.324,0.128c0.103,0.057,0.2,0.127,0.293,0.21s0.181,0.18,0.265,0.289c0.084,0.109,0.157,0.233,0.22,0.37
	c0.063,0.138,0.115,0.29,0.157,0.455c0.042,0.165,0.073,0.345,0.094,0.537c0.021,0.192,0.031,0.398,0.031,0.616
	s-0.01,0.423-0.032,0.616s-0.054,0.373-0.098,0.541c-0.044,0.168-0.099,0.323-0.167,0.465s-0.147,0.272-0.239,0.39
	c-0.084,0.117-0.174,0.22-0.269,0.308c-0.095,0.088-0.196,0.161-0.301,0.22c-0.105,0.059-0.214,0.103-0.326,0.132
	c-0.112,0.029-0.227,0.044-0.345,0.044c-0.059,0-0.117-0.004-0.176-0.013c-0.059-0.009-0.117-0.023-0.176-0.042
	s-0.117-0.043-0.176-0.073c-0.059-0.03-0.117-0.065-0.176-0.107c-0.059-0.042-0.115-0.086-0.17-0.133
	c-0.054-0.047-0.107-0.096-0.157-0.148c-0.05-0.052-0.098-0.108-0.145-0.167s-0.09-0.122-0.132-0.189v0.184v0.184v0.184v0.184
	l-0.251-0.008l-0.251-0.008l-0.251-0.008L48.112,73.434L48.112,73.434L48.112,73.434L48.112,73.434L48.112,73.434z M49.219,70.751
	c0,0.109,0.002,0.212,0.007,0.308c0.005,0.096,0.012,0.187,0.022,0.27c0.01,0.084,0.024,0.161,0.041,0.233s0.038,0.136,0.063,0.195
	c0.017,0.059,0.038,0.113,0.062,0.164c0.025,0.051,0.053,0.098,0.084,0.142c0.032,0.044,0.066,0.085,0.103,0.123
	s0.077,0.074,0.119,0.107c0.042,0.034,0.082,0.061,0.121,0.083c0.039,0.022,0.076,0.039,0.114,0.051
	c0.038,0.013,0.075,0.021,0.114,0.026s0.079,0.007,0.121,0.007c0.059,0,0.115-0.008,0.17-0.025c0.055-0.016,0.109-0.04,0.161-0.072
	c0.052-0.032,0.104-0.07,0.155-0.116c0.051-0.046,0.101-0.098,0.151-0.157c0.042-0.067,0.08-0.143,0.113-0.226
	c0.033-0.084,0.061-0.176,0.084-0.277c0.023-0.101,0.041-0.21,0.053-0.327c0.012-0.117,0.018-0.243,0.018-0.377
	c0-0.143-0.006-0.277-0.018-0.401c-0.012-0.125-0.03-0.24-0.053-0.345c-0.023-0.105-0.051-0.199-0.084-0.282
	s-0.071-0.154-0.112-0.213c-0.042-0.067-0.088-0.126-0.138-0.176c-0.05-0.05-0.103-0.092-0.16-0.126
	c-0.057-0.034-0.116-0.059-0.179-0.075c-0.062-0.017-0.127-0.025-0.194-0.025s-0.13,0.008-0.189,0.025
	c-0.059,0.016-0.115,0.04-0.167,0.072s-0.102,0.07-0.148,0.116s-0.091,0.098-0.133,0.157c-0.05,0.059-0.094,0.128-0.132,0.206
	c-0.038,0.079-0.069,0.167-0.094,0.263c-0.025,0.096-0.044,0.201-0.057,0.313C49.225,70.506,49.219,70.625,49.219,70.751z"/>
<path id="path10558" style="fill:#003366;" d="M52.673,73.434v-1.76v-1.76v-1.76v-1.76h0.277h0.277h0.277h0.277v1.76v1.76v1.76v1.76
	h-0.277h-0.277h-0.277H52.673z"/>
<path id="path10560" style="fill:#003366;" d="M54.483,67.633v-0.31v-0.31v-0.31v-0.31h0.277h0.277h0.277h0.277v0.31v0.31v0.31v0.31
	h-0.277h-0.277H54.76H54.483z M54.483,73.434v-1.274v-1.274v-1.274v-1.274h0.277h0.277h0.277h0.277v1.274v1.274v1.274v1.274h-0.277
	h-0.277H54.76H54.483z"/>
<path id="path10562" style="fill:#003366;" d="M59.915,69.812l-0.277,0.059l-0.277,0.059l-0.277,0.059l-0.277,0.059
	c-0.017-0.134-0.046-0.251-0.087-0.352s-0.093-0.184-0.156-0.251s-0.136-0.117-0.219-0.151s-0.175-0.05-0.276-0.05
	c-0.067,0-0.132,0.006-0.194,0.019c-0.062,0.013-0.122,0.033-0.179,0.06s-0.11,0.062-0.16,0.104
	c-0.05,0.042-0.096,0.093-0.138,0.151c-0.042,0.059-0.078,0.126-0.107,0.202s-0.054,0.162-0.073,0.259
	c-0.019,0.096-0.032,0.203-0.041,0.322c-0.009,0.118-0.013,0.248-0.013,0.391c0,0.151,0.004,0.291,0.013,0.421
	c0.009,0.129,0.022,0.248,0.041,0.355c0.019,0.107,0.043,0.202,0.073,0.285s0.066,0.155,0.107,0.214
	c0.042,0.059,0.088,0.111,0.138,0.157c0.05,0.046,0.103,0.084,0.16,0.116c0.056,0.032,0.116,0.056,0.179,0.072
	c0.062,0.016,0.127,0.025,0.195,0.025c0.05,0,0.098-0.004,0.145-0.013c0.046-0.008,0.09-0.021,0.132-0.038
	c0.042-0.017,0.082-0.038,0.119-0.063c0.038-0.025,0.073-0.054,0.107-0.088s0.065-0.075,0.094-0.125
	c0.029-0.05,0.057-0.107,0.082-0.172c0.025-0.065,0.048-0.137,0.069-0.216c0.021-0.079,0.04-0.165,0.057-0.257l0.277,0.059
	l0.277,0.059l0.277,0.059l0.277,0.059c-0.059,0.31-0.143,0.581-0.252,0.812c-0.109,0.231-0.245,0.423-0.406,0.576
	c-0.161,0.153-0.349,0.267-0.563,0.343s-0.455,0.114-0.724,0.114c-0.168,0-0.325-0.017-0.472-0.05
	c-0.147-0.033-0.283-0.082-0.409-0.147c-0.126-0.065-0.241-0.146-0.346-0.242c-0.105-0.096-0.199-0.207-0.283-0.333
	s-0.157-0.26-0.22-0.402c-0.063-0.142-0.115-0.292-0.157-0.449c-0.042-0.157-0.073-0.322-0.094-0.493
	c-0.021-0.171-0.031-0.349-0.031-0.534c0-0.218,0.013-0.423,0.037-0.616c0.025-0.192,0.061-0.372,0.11-0.537
	c0.048-0.166,0.108-0.318,0.179-0.455c0.071-0.138,0.152-0.261,0.245-0.37c0.092-0.117,0.193-0.218,0.301-0.303
	c0.108-0.085,0.225-0.154,0.349-0.209s0.255-0.094,0.392-0.121c0.138-0.026,0.282-0.039,0.433-0.039
	c0.126,0,0.245,0.008,0.358,0.025c0.113,0.017,0.22,0.042,0.321,0.075s0.195,0.075,0.283,0.126c0.088,0.05,0.17,0.109,0.245,0.176
	c0.075,0.059,0.145,0.13,0.208,0.212c0.063,0.082,0.121,0.176,0.174,0.278c0.052,0.103,0.1,0.215,0.142,0.335
	C59.844,69.55,59.882,69.678,59.915,69.812L59.915,69.812L59.915,69.812L59.915,69.812L59.915,69.812z"/>
<path id="path10564" style="fill:#003366;" d="M38.523,83.258v-1.76v-1.76v-1.76v-1.76h0.293h0.293h0.293h0.293v0.696v0.696v0.696
	V79h0.57h0.57h0.57h0.57v-0.696v-0.696v-0.696v-0.696h0.293h0.293h0.293h0.293v1.76v1.76v1.76v1.76h-0.293h-0.293H42.27h-0.293
	v-0.771v-0.771v-0.771v-0.771h-0.57h-0.57h-0.57h-0.57v0.771v0.771v0.771v0.771h-0.293h-0.293h-0.293H38.523L38.523,83.258
	L38.523,83.258L38.523,83.258L38.523,83.258z"/>
<path id="path10566" style="fill:#003366;" d="M46.335,81.649l0.277,0.059l0.277,0.059l0.277,0.059l0.277,0.059
	c-0.034,0.126-0.073,0.245-0.119,0.357c-0.046,0.112-0.097,0.217-0.153,0.313s-0.118,0.184-0.185,0.263s-0.138,0.148-0.213,0.206
	c-0.075,0.059-0.157,0.111-0.244,0.157c-0.087,0.046-0.179,0.084-0.276,0.116c-0.096,0.032-0.197,0.056-0.301,0.072
	c-0.104,0.016-0.211,0.025-0.32,0.025c-0.151,0-0.295-0.013-0.433-0.038c-0.137-0.025-0.267-0.063-0.389-0.113
	c-0.122-0.05-0.235-0.113-0.338-0.189s-0.198-0.163-0.282-0.264c-0.101-0.117-0.189-0.247-0.264-0.39
	c-0.075-0.143-0.138-0.298-0.189-0.465s-0.088-0.348-0.113-0.541c-0.025-0.193-0.038-0.398-0.038-0.616
	c0-0.21,0.013-0.411,0.038-0.603c0.025-0.192,0.063-0.374,0.113-0.546s0.113-0.333,0.189-0.483c0.075-0.15,0.163-0.288,0.264-0.414
	c0.084-0.109,0.174-0.203,0.27-0.283c0.096-0.08,0.199-0.146,0.308-0.198c0.109-0.052,0.224-0.091,0.346-0.117
	s0.249-0.038,0.384-0.038c0.151,0,0.293,0.015,0.428,0.043s0.26,0.072,0.377,0.128c0.117,0.056,0.226,0.127,0.327,0.21
	s0.193,0.18,0.277,0.289c0.101,0.126,0.187,0.266,0.259,0.422c0.072,0.156,0.131,0.326,0.177,0.513
	c0.046,0.187,0.08,0.389,0.102,0.607c0.022,0.218,0.032,0.453,0.032,0.705v0.042v0.042v0.042v0.042H46.78h-0.696h-0.696h-0.696
	c0,0.101,0.006,0.195,0.018,0.283c0.012,0.089,0.03,0.171,0.053,0.249c0.023,0.077,0.051,0.15,0.084,0.217s0.071,0.13,0.113,0.189
	c0.042,0.059,0.088,0.109,0.137,0.151c0.049,0.042,0.102,0.077,0.156,0.104c0.054,0.027,0.111,0.047,0.169,0.06
	c0.058,0.013,0.116,0.019,0.175,0.019c0.092-0.025,0.176-0.059,0.252-0.102c0.076-0.044,0.144-0.097,0.205-0.162
	s0.114-0.142,0.161-0.231S46.302,81.766,46.335,81.649L46.335,81.649L46.335,81.649L46.335,81.649L46.335,81.649z M46.402,80.274
	c0-0.101-0.006-0.195-0.018-0.283c-0.012-0.088-0.03-0.17-0.053-0.245s-0.051-0.145-0.084-0.207
	c-0.033-0.063-0.071-0.119-0.113-0.17c-0.042-0.05-0.084-0.094-0.127-0.132s-0.087-0.069-0.133-0.094s-0.094-0.044-0.146-0.057
	c-0.051-0.013-0.106-0.019-0.165-0.019c-0.059,0-0.115,0.006-0.17,0.019c-0.054,0.013-0.107,0.031-0.157,0.057
	s-0.098,0.057-0.145,0.094c-0.046,0.038-0.09,0.082-0.132,0.132c-0.042,0.05-0.078,0.107-0.107,0.169
	c-0.03,0.062-0.054,0.131-0.073,0.204c-0.019,0.073-0.033,0.152-0.041,0.235c-0.009,0.083-0.013,0.171-0.013,0.263l0.419,0.008
	l0.419,0.008l0.419,0.008L46.402,80.274L46.402,80.274L46.402,80.274L46.402,80.274L46.402,80.274z"/>
<path id="path10568" style="fill:#003366;" d="M48.783,79.704l-0.251-0.059l-0.251-0.059l-0.251-0.059l-0.251-0.059
	c0.034-0.126,0.071-0.243,0.113-0.352c0.042-0.109,0.088-0.21,0.138-0.302c0.05-0.092,0.105-0.176,0.163-0.251
	c0.059-0.075,0.122-0.143,0.189-0.201c0.067-0.059,0.143-0.109,0.226-0.151s0.176-0.077,0.277-0.104
	c0.101-0.027,0.21-0.047,0.327-0.06c0.117-0.013,0.243-0.019,0.377-0.019c0.117,0,0.228,0.004,0.333,0.013s0.202,0.021,0.292,0.038
	c0.09,0.017,0.173,0.038,0.248,0.063c0.075,0.025,0.142,0.054,0.201,0.088c0.059,0.034,0.115,0.069,0.169,0.107
	c0.053,0.038,0.104,0.079,0.15,0.123s0.088,0.091,0.125,0.142s0.068,0.105,0.093,0.164c0.025,0.059,0.048,0.128,0.069,0.208
	c0.02,0.08,0.038,0.171,0.053,0.274c0.015,0.103,0.026,0.217,0.034,0.343c0.008,0.126,0.012,0.265,0.012,0.415V80.4v0.394v0.394
	v0.394c0,0.109,0.002,0.212,0.006,0.308c0.004,0.096,0.009,0.187,0.015,0.27c0.006,0.084,0.013,0.161,0.021,0.233
	c0.008,0.071,0.016,0.136,0.025,0.195c0.008,0.05,0.019,0.103,0.031,0.157c0.013,0.054,0.027,0.109,0.044,0.166
	c0.017,0.056,0.036,0.114,0.057,0.172c0.021,0.058,0.044,0.117,0.069,0.176h-0.277H51.08h-0.277h-0.277l-0.034-0.143l-0.034-0.143
	l-0.034-0.143l-0.034-0.143c-0.05,0.059-0.101,0.113-0.151,0.163c-0.05,0.05-0.101,0.096-0.151,0.138
	c-0.05,0.042-0.101,0.08-0.151,0.113s-0.101,0.063-0.151,0.088c-0.05,0.025-0.103,0.048-0.157,0.069
	c-0.054,0.02-0.11,0.038-0.166,0.053c-0.057,0.015-0.114,0.026-0.172,0.034c-0.058,0.008-0.117,0.012-0.175,0.012
	c-0.101,0-0.197-0.008-0.289-0.025c-0.092-0.017-0.18-0.042-0.264-0.075c-0.084-0.034-0.163-0.075-0.239-0.126
	c-0.075-0.05-0.147-0.109-0.214-0.176c-0.067-0.067-0.126-0.14-0.176-0.22s-0.092-0.166-0.126-0.258s-0.059-0.191-0.075-0.296
	c-0.017-0.105-0.025-0.216-0.025-0.333c0-0.075,0.004-0.147,0.012-0.214s0.019-0.131,0.034-0.192
	c0.015-0.061,0.033-0.118,0.053-0.173s0.044-0.108,0.069-0.158c0.025-0.05,0.054-0.101,0.087-0.149
	c0.032-0.049,0.068-0.096,0.106-0.14c0.038-0.044,0.078-0.085,0.118-0.121c0.041-0.036,0.083-0.068,0.125-0.093
	c0.042-0.025,0.094-0.052,0.156-0.081c0.062-0.028,0.133-0.058,0.213-0.087c0.08-0.029,0.168-0.059,0.263-0.087
	c0.095-0.028,0.198-0.056,0.307-0.081c0.126-0.034,0.243-0.065,0.352-0.095c0.108-0.03,0.208-0.058,0.298-0.086
	c0.09-0.027,0.171-0.053,0.242-0.079s0.131-0.051,0.182-0.076c0-0.067-0.002-0.13-0.006-0.188c-0.004-0.058-0.009-0.11-0.015-0.156
	c-0.006-0.046-0.014-0.086-0.022-0.118c-0.008-0.032-0.016-0.058-0.024-0.074c-0.008-0.025-0.019-0.048-0.032-0.069
	c-0.013-0.021-0.029-0.04-0.048-0.057c-0.019-0.017-0.041-0.031-0.067-0.044c-0.026-0.013-0.055-0.023-0.088-0.031
	c-0.025-0.017-0.054-0.031-0.087-0.044c-0.032-0.013-0.068-0.023-0.106-0.031c-0.038-0.008-0.078-0.015-0.118-0.019
	c-0.041-0.004-0.083-0.006-0.125-0.006c-0.05,0-0.098,0.002-0.144,0.007s-0.088,0.012-0.128,0.023
	c-0.04,0.01-0.077,0.024-0.11,0.041c-0.033,0.017-0.062,0.038-0.087,0.063c-0.042,0.017-0.08,0.04-0.114,0.069
	c-0.034,0.029-0.065,0.063-0.092,0.103c-0.027,0.04-0.052,0.085-0.073,0.135C48.819,79.591,48.8,79.645,48.783,79.704L48.783,79.704
	L48.783,79.704L48.783,79.704L48.783,79.704z M50.258,80.811c-0.034,0.017-0.073,0.034-0.119,0.05
	c-0.046,0.017-0.097,0.034-0.153,0.05c-0.057,0.017-0.119,0.034-0.185,0.05c-0.067,0.017-0.138,0.034-0.213,0.05
	c-0.084,0.025-0.161,0.05-0.232,0.075c-0.071,0.025-0.135,0.05-0.191,0.075c-0.057,0.025-0.106,0.05-0.147,0.075
	c-0.041,0.025-0.075,0.05-0.1,0.075c-0.025,0.025-0.048,0.052-0.069,0.082c-0.02,0.03-0.038,0.062-0.053,0.098
	c-0.015,0.036-0.026,0.074-0.034,0.117c-0.008,0.042-0.012,0.089-0.012,0.139c0,0.05,0.004,0.098,0.012,0.145
	c0.008,0.046,0.019,0.09,0.034,0.132c0.015,0.042,0.033,0.082,0.053,0.119c0.02,0.038,0.044,0.073,0.069,0.107
	c0.034,0.034,0.067,0.063,0.101,0.088c0.034,0.025,0.069,0.046,0.104,0.063c0.036,0.017,0.072,0.029,0.111,0.038
	c0.038,0.008,0.078,0.013,0.12,0.013c0.042,0,0.082-0.004,0.121-0.012c0.039-0.008,0.076-0.019,0.114-0.034
	c0.038-0.015,0.075-0.032,0.114-0.053c0.039-0.02,0.079-0.043,0.121-0.069c0.042-0.025,0.08-0.052,0.113-0.081
	c0.034-0.029,0.063-0.059,0.088-0.09c0.025-0.032,0.046-0.064,0.063-0.097c0.017-0.033,0.029-0.067,0.038-0.1
	c0.017-0.034,0.031-0.075,0.044-0.126c0.013-0.05,0.023-0.109,0.031-0.176s0.015-0.143,0.019-0.226
	c0.004-0.084,0.006-0.176,0.006-0.277l0.008-0.075l0.008-0.075l0.008-0.075L50.258,80.811L50.258,80.811L50.258,80.811
	L50.258,80.811L50.258,80.811z"/>
<path id="path10570" style="fill:#003366;" d="M52.002,83.258v-1.76v-1.76v-1.76v-1.76h0.277h0.277h0.277h0.277v1.76v1.76v1.76v1.76
	h-0.277h-0.277h-0.277H52.002z"/>
<path id="path10572" style="fill:#003366;" d="M55.724,78.162v0.268v0.268v0.268v0.268H55.54h-0.184h-0.184h-0.184v0.511v0.511
	v0.511v0.511c0,0.109,0,0.207,0.001,0.295c0.001,0.087,0.002,0.164,0.004,0.229c0.002,0.065,0.005,0.119,0.01,0.16
	c0.005,0.041,0.011,0.071,0.019,0.087c0.008,0.034,0.021,0.063,0.037,0.088c0.016,0.025,0.036,0.046,0.059,0.063
	c0.023,0.017,0.049,0.029,0.078,0.038c0.029,0.008,0.06,0.013,0.094,0.013c0.025,0,0.052-0.002,0.082-0.007s0.062-0.012,0.098-0.022
	c0.036-0.01,0.074-0.024,0.117-0.041c0.042-0.017,0.089-0.038,0.139-0.063l0.025,0.26l0.025,0.26l0.025,0.26l0.025,0.26
	c-0.067,0.034-0.134,0.063-0.202,0.088s-0.137,0.046-0.209,0.063c-0.071,0.017-0.145,0.029-0.221,0.038
	c-0.076,0.008-0.156,0.013-0.24,0.013c-0.067,0-0.132-0.004-0.194-0.013c-0.062-0.008-0.122-0.021-0.179-0.038
	c-0.056-0.017-0.11-0.038-0.16-0.063s-0.096-0.054-0.138-0.088c-0.042-0.034-0.08-0.071-0.114-0.113
	c-0.034-0.041-0.065-0.086-0.092-0.134c-0.027-0.048-0.051-0.1-0.073-0.154c-0.021-0.054-0.04-0.111-0.057-0.169
	c-0.008-0.05-0.017-0.111-0.025-0.183c-0.008-0.072-0.015-0.155-0.021-0.249c-0.006-0.094-0.011-0.2-0.015-0.318
	c-0.004-0.118-0.006-0.248-0.006-0.39v-0.553v-0.553v-0.553v-0.553h-0.126h-0.126h-0.126h-0.126v-0.268v-0.268V78.43v-0.268h0.126
	h0.126h0.126h0.126V77.91v-0.251v-0.251v-0.251l0.277-0.193l0.277-0.193l0.277-0.193l0.277-0.193v0.453v0.453v0.453v0.453
	l0.184-0.008l0.184-0.008l0.184-0.008L55.724,78.162L55.724,78.162L55.724,78.162L55.724,78.162L55.724,78.162z"/>
<path id="path10574" style="fill:#003366;" d="M57.166,76.217v0.645v0.645v0.645v0.645c0.042-0.067,0.086-0.128,0.131-0.183
	c0.046-0.056,0.093-0.106,0.141-0.152c0.048-0.046,0.097-0.088,0.147-0.127s0.1-0.074,0.15-0.108
	c0.05-0.034,0.103-0.063,0.157-0.088c0.054-0.025,0.111-0.046,0.17-0.063c0.059-0.017,0.119-0.029,0.182-0.038
	c0.063-0.008,0.128-0.013,0.195-0.013c0.084,0,0.163,0.006,0.239,0.018c0.076,0.012,0.148,0.03,0.217,0.053
	c0.069,0.023,0.135,0.051,0.199,0.084c0.063,0.033,0.124,0.071,0.183,0.112c0.059,0.042,0.111,0.09,0.158,0.144
	s0.089,0.112,0.127,0.175c0.038,0.063,0.071,0.13,0.102,0.2c0.03,0.07,0.058,0.144,0.083,0.219c0.017,0.059,0.031,0.128,0.044,0.207
	s0.023,0.17,0.031,0.27c0.008,0.101,0.015,0.212,0.019,0.333c0.004,0.122,0.006,0.254,0.006,0.396v0.746v0.746v0.746v0.746h-0.268
	h-0.268h-0.268h-0.268v-0.671v-0.671v-0.671v-0.671c0-0.159-0.002-0.302-0.007-0.429c-0.005-0.127-0.012-0.238-0.023-0.334
	c-0.01-0.096-0.024-0.178-0.041-0.246c-0.017-0.068-0.038-0.123-0.063-0.165c-0.025-0.05-0.057-0.094-0.094-0.132
	s-0.08-0.069-0.129-0.094c-0.048-0.025-0.102-0.044-0.16-0.057c-0.058-0.013-0.121-0.019-0.188-0.019
	c-0.075,0-0.145,0.006-0.209,0.019c-0.064,0.013-0.123,0.033-0.177,0.06c-0.054,0.027-0.105,0.062-0.152,0.104
	c-0.047,0.042-0.091,0.093-0.133,0.151c-0.042,0.059-0.078,0.13-0.107,0.213c-0.03,0.083-0.054,0.179-0.073,0.286
	c-0.019,0.107-0.032,0.225-0.041,0.355c-0.009,0.129-0.013,0.27-0.013,0.421v0.637v0.637v0.637v0.637h-0.277h-0.277h-0.277h-0.277
	v-1.76v-1.76v-1.76v-1.76h0.277h0.277h0.277h0.277v0.008V76.2c0,0,0,0.004,0,0.008C57.166,76.213,57.166,76.217,57.166,76.217z"/>
</svg>
