<?xml version="1.0" encoding="iso-8859-1"?>
<!-- Generator: Adobe Illustrator 25.4.1, SVG Export Plug-In . SVG Version: 6.00 Build 0)  -->
<svg version="1.1"
	 id="svg8" xmlns:cc="http://creativecommons.org/ns#" xmlns:dc="http://purl.org/dc/elements/1.1/" xmlns:inkscape="http://www.inkscape.org/namespaces/inkscape" xmlns:rdf="http://www.w3.org/1999/02/22-rdf-syntax-ns#" xmlns:sodipodi="http://sodipodi.sourceforge.net/DTD/sodipodi-0.dtd" xmlns:svg="http://www.w3.org/2000/svg"
	 xmlns="http://www.w3.org/2000/svg" xmlns:xlink="http://www.w3.org/1999/xlink" x="0px" y="0px" viewBox="0 0 100 100"
	 style="enable-background:new 0 0 100 100;" xml:space="preserve">
<sodipodi:namedview  bordercolor="#666666" borderopacity="1.0" id="base" inkscape:current-layer="layer3" inkscape:cx="-302.11164" inkscape:cy="84.283015" inkscape:document-units="px" inkscape:guide-bbox="true" inkscape:lockguides="true" inkscape:pageopacity="0.0" inkscape:pageshadow="2" inkscape:window-height="657" inkscape:window-maximized="1" inkscape:window-width="1280" inkscape:window-x="-8" inkscape:window-y="-8" inkscape:zoom="0.765625" pagecolor="#ffffff" showgrid="false" showguides="false" units="px">
	<sodipodi:guide  id="guide5700" inkscape:locked="true" orientation="0,1" position="-0.93017576,23.874511"></sodipodi:guide>
	<sodipodi:guide  id="guide5726" inkscape:locked="true" orientation="0,1" position="-26.098869,26.473047"></sodipodi:guide>
	<sodipodi:guide  id="guide5880" inkscape:locked="true" orientation="0,1" position="104.51042,-2.9104167"></sodipodi:guide>
	<sodipodi:guide  id="guide6001" inkscape:locked="true" orientation="0,1" position="-71.093695,29.279377"></sodipodi:guide>
	<sodipodi:guide  id="guide6005" inkscape:locked="true" orientation="0,1" position="-46.304445,58.278122"></sodipodi:guide>
	<sodipodi:guide  id="guide6736" inkscape:locked="true" orientation="0,1" position="-0.10335287,20.205485"></sodipodi:guide>
	<sodipodi:guide  id="guide6738" inkscape:locked="true" orientation="0,1" position="-0.43848907,22.874513"></sodipodi:guide>
	<inkscape:grid  id="grid2386" type="xygrid"></inkscape:grid>
</sodipodi:namedview>
<g id="g1180" transform="translate(0,-229.2666)" inkscape:groupmode="layer" inkscape:label="halo:always" style="display:none;">
	<g id="g1210" inkscape:groupmode="layer" inkscape:label="-gray-halo:iter3" style="display:inline;">
		<g id="circle1208">
			<path style="fill:#919395;" d="M50,329.3c-27.6,0-50-22.4-50-50s22.4-50,50-50s50,22.4,50,50S77.6,329.3,50,329.3z M50,237.9
				c-22.8,0-41.4,18.6-41.4,41.4s18.6,41.4,41.4,41.4s41.4-18.6,41.4-41.4S72.8,237.9,50,237.9z"/>
		</g>
	</g>
	<g id="g1206" inkscape:groupmode="layer" inkscape:label="-red-halo:iter3" style="display:inline;">
		<g id="circle1204">
			<path style="fill:#C52038;" d="M50,329.3c-27.6,0-50-22.4-50-50s22.4-50,50-50s50,22.4,50,50S77.6,329.3,50,329.3z M50,237.9
				c-22.8,0-41.4,18.6-41.4,41.4s18.6,41.4,41.4,41.4s41.4-18.6,41.4-41.4S72.8,237.9,50,237.9z"/>
		</g>
	</g>
	<g id="g1202" inkscape:groupmode="layer" inkscape:label="-green-halo:iter3" style="display:inline;">
		<g id="circle1200">
			<path style="fill:#5E9C42;" d="M50,329.3c-27.6,0-50-22.4-50-50s22.4-50,50-50s50,22.4,50,50S77.6,329.3,50,329.3z M50,237.9
				c-22.8,0-41.4,18.6-41.4,41.4s18.6,41.4,41.4,41.4s41.4-18.6,41.4-41.4S72.8,237.9,50,237.9z"/>
		</g>
	</g>
	<g id="layer18" inkscape:groupmode="layer" inkscape:label="-yellow-halo:iter3" style="display:inline;">
		<g id="circle1178-4">
			<path style="fill:#FBBA16;" d="M50,329.3c-27.6,0-50-22.4-50-50s22.4-50,50-50s50,22.4,50,50S77.6,329.3,50,329.3z M50,237.9
				c-22.8,0-41.4,18.6-41.4,41.4s18.6,41.4,41.4,41.4s41.4-18.6,41.4-41.4S72.8,237.9,50,237.9z"/>
		</g>
	</g>
</g>
<path id="path10993" inkscape:connector-curvature="0" style="fill:#003366;" d="M51.064,21.806c-1.871,0-3.7,0.187-5.471,0.543
	c-1.771,0.356-3.483,0.879-5.12,1.553s-3.2,1.497-4.671,2.451c-1.471,0.954-2.851,2.039-4.123,3.237
	c-0.094,0.075-0.178,0.154-0.251,0.24c-0.074,0.085-0.137,0.177-0.189,0.275c-0.051,0.098-0.091,0.203-0.118,0.317
	c-0.027,0.113-0.041,0.235-0.041,0.366c0,0.187,0.037,0.37,0.106,0.538c0.069,0.168,0.17,0.323,0.296,0.454
	c0.126,0.131,0.278,0.239,0.45,0.313c0.172,0.075,0.364,0.117,0.569,0.117c0.112,0,0.22-0.014,0.323-0.04
	c0.103-0.026,0.201-0.063,0.295-0.11c0.094-0.047,0.182-0.103,0.267-0.166c0.084-0.063,0.164-0.133,0.239-0.208l0,0l0,0l0,0l0,0
	c1.179-1.123,2.451-2.119,3.798-2.982s2.769-1.593,4.247-2.182c1.478-0.589,3.012-1.038,4.584-1.34
	c1.572-0.302,3.181-0.456,4.809-0.456c1.628,0,3.242,0.159,4.82,0.469c1.579,0.31,3.122,0.771,4.61,1.374
	c1.488,0.604,2.919,1.35,4.273,2.23c1.354,0.88,2.631,1.895,3.81,3.037l0.636-0.374l0.636-0.374l0.636-0.374l0.636-0.374
	c-1.291-1.328-2.704-2.526-4.218-3.575s-3.131-1.95-4.829-2.684s-3.478-1.303-5.32-1.687C54.914,22.007,53.01,21.806,51.064,21.806
	L51.064,21.806L51.064,21.806L51.064,21.806L51.064,21.806z"/>
<path id="path10995" inkscape:connector-curvature="0" style="fill:#003366;" d="M23.297,45.531
	c-0.056,0.356-0.103,0.711-0.141,1.068s-0.069,0.715-0.092,1.075c-0.023,0.36-0.04,0.723-0.05,1.089
	c-0.011,0.366-0.016,0.736-0.016,1.11c0,3.012,0.477,5.913,1.359,8.63s2.168,5.253,3.787,7.536c1.618,2.283,3.569,4.313,5.779,6.02
	s4.68,3.092,7.337,4.083c0.019,0,0.033,0.005,0.044,0.012c0.012,0.007,0.021,0.016,0.03,0.026c0.009,0.009,0.019,0.019,0.03,0.026
	c0.012,0.007,0.026,0.012,0.044,0.012l0,0l0,0l0,0l0,0l0,0l0,0l0,0l0,0l0,0l0,0l0,0l0,0c0.037,0.019,0.075,0.033,0.111,0.043
	c0.036,0.011,0.071,0.018,0.104,0.023c0.033,0.005,0.063,0.007,0.09,0.008c0.027,0.001,0.051,0.001,0.069,0.001
	c0.206,0,0.398-0.042,0.57-0.117s0.324-0.182,0.451-0.313c0.126-0.131,0.227-0.285,0.296-0.454c0.069-0.168,0.106-0.351,0.106-0.538
	c0-0.15-0.023-0.295-0.067-0.432c-0.043-0.137-0.106-0.266-0.186-0.383c-0.08-0.117-0.176-0.222-0.284-0.312
	s-0.23-0.165-0.361-0.221l0.037,0.019l0.037,0.019l0.037,0.019l0.037,0.019l0,0l0,0l0,0l0,0c-2.507-0.898-4.804-2.166-6.839-3.728
	c-2.035-1.562-3.808-3.419-5.267-5.496c-1.459-2.077-2.605-4.374-3.387-6.815s-1.197-5.029-1.197-7.685
	c0-0.225,0.005-0.454,0.013-0.685c0.008-0.232,0.02-0.465,0.034-0.699c0.014-0.234,0.03-0.468,0.048-0.699
	c0.018-0.232,0.036-0.461,0.055-0.685l-0.655-0.393l-0.655-0.393l-0.654-0.393L23.297,45.531z"/>
<path id="path10997" inkscape:connector-curvature="0" style="fill:#003366;" d="M77.484,45.531c-0.206,0-0.398,0.042-0.57,0.117
	c-0.172,0.075-0.324,0.182-0.451,0.313c-0.126,0.131-0.227,0.285-0.296,0.454s-0.106,0.351-0.106,0.538l0,0l0,0l0,0l0,0
	c0,0.019,0,0.042,0.001,0.068c0.001,0.026,0.004,0.054,0.009,0.082s0.012,0.056,0.022,0.082s0.024,0.049,0.043,0.068l0,0l0,0l0,0
	l0,0v-0.037v-0.037V47.14v-0.037c0.019,0.225,0.037,0.454,0.055,0.685c0.018,0.232,0.034,0.465,0.048,0.699
	c0.014,0.234,0.026,0.468,0.034,0.699c0.008,0.232,0.013,0.461,0.013,0.685c0,2.657-0.416,5.244-1.197,7.685
	s-1.927,4.738-3.387,6.815c-1.459,2.077-3.232,3.934-5.267,5.496c-2.035,1.562-4.332,2.83-6.839,3.728v0.112v0.112v0.112v0.112
	l0.299,0.543l0.299,0.543l0.299,0.543l0.299,0.543c2.676-0.992,5.159-2.381,7.38-4.095c2.221-1.714,4.178-3.754,5.802-6.046
	c1.623-2.292,2.912-4.837,3.795-7.561c0.883-2.725,1.36-5.63,1.36-8.642c0-0.262-0.005-0.519-0.013-0.773
	c-0.008-0.254-0.02-0.504-0.034-0.752c-0.014-0.248-0.03-0.494-0.048-0.738c-0.018-0.244-0.037-0.487-0.055-0.731
	c0-0.019,0-0.033,0-0.044c0-0.012,0-0.021,0-0.03s0-0.019,0-0.03c0-0.012,0-0.026,0-0.044c-0.037-0.187-0.103-0.356-0.192-0.503
	s-0.201-0.274-0.332-0.377s-0.281-0.182-0.444-0.236S77.671,45.531,77.484,45.531L77.484,45.531L77.484,45.531L77.484,45.531
	L77.484,45.531z"/>
<path id="path10999" inkscape:connector-curvature="0" sodipodi:nodetypes="ccccccccc" style="fill:#003366;" d="M25.318,41.864
	c-0.281,0.374-0.561,0.753-0.84,1.132c-0.278,0.379-0.554,0.758-0.826,1.132c-0.271,0.374-0.538,0.744-0.798,1.104
	c-0.26,0.36-0.512,0.711-0.755,1.048l0,0l0,0l0,0l0,0l-0.711,0.973l-0.711,0.973l-0.711,0.973l-0.711,0.973
	c-0.299,0.393-0.374,0.791-0.301,1.141c0.074,0.351,0.296,0.655,0.59,0.861c0.295,0.206,0.662,0.313,1.026,0.271
	s0.724-0.234,1.005-0.627l0.805-1.104l0.805-1.104l0.805-1.104l0.805-1.104l0.561,1.235l0.561,1.235l0.561,1.235l0.561,1.235
	c0.187,0.449,0.496,0.711,0.84,0.824c0.344,0.113,0.723,0.078,1.05-0.067c0.327-0.145,0.603-0.4,0.741-0.726
	c0.138-0.326,0.138-0.724-0.087-1.154c-0.412-0.842-0.795-1.642-1.161-2.42c-0.366-0.778-0.714-1.533-1.056-2.287
	c-0.341-0.753-0.676-1.504-1.014-2.272C26.015,43.472,25.674,42.687,25.318,41.864L25.318,41.864L25.318,41.864L25.318,41.864
	L25.318,41.864z"/>
<path id="path11001" inkscape:connector-curvature="0" sodipodi:nodetypes="ccccccccc" style="fill:#003366;" d="M74.041,33.706
	c-0.187-0.43-0.374-0.861-0.561-1.289c-0.187-0.428-0.374-0.854-0.561-1.275c-0.187-0.421-0.374-0.837-0.561-1.247
	c-0.187-0.409-0.374-0.812-0.561-1.205l0,0l0,0l0,0l0,0l-0.486-1.104l-0.486-1.104l-0.486-1.104l-0.486-1.104
	c-0.187-0.449-0.496-0.711-0.84-0.824s-0.723-0.078-1.05,0.066s-0.603,0.4-0.741,0.726c-0.138,0.326-0.138,0.724,0.087,1.155
	l0.561,1.235l0.561,1.235l0.561,1.235l0.561,1.235l-1.385-0.131l-1.385-0.131l-1.385-0.131l-1.385-0.131
	c-0.486-0.056-0.87,0.08-1.141,0.318c-0.271,0.239-0.43,0.58-0.468,0.936s0.047,0.725,0.262,1.02
	c0.215,0.295,0.561,0.515,1.048,0.571c0.954,0.094,1.852,0.182,2.719,0.269c0.867,0.087,1.702,0.171,2.53,0.255
	s1.649,0.168,2.487,0.255C72.287,33.523,73.143,33.612,74.041,33.706L74.041,33.706L74.041,33.706L74.041,33.706L74.041,33.706z"/>
<path id="path11003" inkscape:connector-curvature="0" sodipodi:nodetypes="ccccccccc" style="fill:#003366;" d="M55.405,77.115
	c0.468,0.056,0.936,0.108,1.401,0.157c0.465,0.049,0.929,0.096,1.387,0.143c0.458,0.047,0.912,0.094,1.359,0.143
	c0.447,0.049,0.886,0.101,1.317,0.157l0,0l0,0l0,0l0,0l1.197,0.131l1.197,0.131l1.197,0.131l1.197,0.131
	c0.486,0.056,0.87-0.084,1.141-0.329c0.271-0.244,0.43-0.593,0.468-0.953s-0.047-0.732-0.262-1.024
	c-0.215-0.291-0.561-0.502-1.048-0.539l-1.347-0.15l-1.347-0.15l-1.347-0.15l-1.347-0.15l0.805-1.104l0.805-1.104l0.805-1.104
	l0.805-1.104c0.299-0.374,0.374-0.762,0.3-1.11c-0.074-0.347-0.296-0.654-0.591-0.865c-0.295-0.21-0.662-0.325-1.025-0.289
	c-0.364,0.036-0.724,0.223-1.004,0.616c-0.561,0.767-1.09,1.492-1.6,2.194s-1.001,1.38-1.488,2.054
	c-0.486,0.674-0.968,1.342-1.459,2.025C56.43,75.688,55.929,76.385,55.405,77.115L55.405,77.115L55.405,77.115L55.405,77.115
	L55.405,77.115z"/>
<path id="path11682" inkscape:connector-curvature="0" style="fill:#003366;" d="M71.331,54.02c0.338-0.401,0.576-0.85,0.716-1.319
	s0.182-0.957,0.129-1.438c-0.053-0.481-0.201-0.953-0.441-1.39c-0.24-0.437-0.573-0.838-0.995-1.176
	c-0.401-0.338-0.85-0.576-1.319-0.716c-0.469-0.14-0.957-0.182-1.438-0.129c-0.48,0.053-0.953,0.201-1.39,0.441
	c-0.437,0.24-0.838,0.573-1.176,0.995l0,0l0,0l0,0l0,0l-0.845,1.035l-0.845,1.035l-0.845,1.035l-0.845,1.035l-0.845,1.035
	l-0.845,1.035l-0.845,1.035l-0.845,1.035c-0.338,0.401-0.576,0.85-0.716,1.319c-0.14,0.469-0.182,0.957-0.129,1.437
	c0.053,0.481,0.201,0.953,0.441,1.39c0.24,0.437,0.573,0.838,0.995,1.176c0.401,0.338,0.85,0.576,1.319,0.716
	c0.469,0.14,0.957,0.182,1.438,0.129c0.48-0.053,0.953-0.201,1.39-0.441c0.437-0.24,0.838-0.573,1.176-0.995l0,0l0,0l0,0l0,0
	l0.845-1.035l0.845-1.035l0.845-1.035l0.845-1.035l0.845-1.035l0.845-1.035l0.845-1.035L71.331,54.02z"/>
<path id="path11007" inkscape:connector-curvature="0" style="fill:#FFFFFF;" d="M63.136,54.274l0.845-1.035l0.845-1.035
	l0.845-1.035l0.845-1.035c0.211-0.253,0.465-0.454,0.743-0.599c0.279-0.145,0.582-0.235,0.894-0.267
	c0.312-0.032,0.631-0.005,0.941,0.082c0.31,0.087,0.611,0.235,0.885,0.446c0.253,0.211,0.454,0.465,0.599,0.743
	s0.235,0.582,0.267,0.894c0.032,0.311,0.005,0.631-0.082,0.941s-0.235,0.611-0.446,0.886l-0.845,1.035l-0.845,1.035l-0.845,1.035
	L66.938,57.4l-0.95-0.782l-0.95-0.782l-0.95-0.782L63.136,54.274z"/>
<path id="path11717" inkscape:connector-curvature="0" style="fill:#FFFFFF;" d="M61.784,36.531h-0.021h-0.021h-0.021H61.7l0,0l0,0
	l0,0l0,0c-0.021,0-0.042,0-0.063,0s-0.042,0-0.063,0c-0.021,0-0.042,0-0.063,0s-0.042,0-0.063,0c-0.021,0-0.048,0-0.077,0
	c-0.029,0-0.061,0-0.092,0s-0.063,0-0.092,0c-0.029,0-0.055,0-0.077,0s-0.037,0-0.05,0c-0.013,0-0.024,0-0.034,0
	c-0.011,0-0.021,0-0.034,0c-0.013,0-0.029,0-0.05,0s-0.048,0-0.077,0.001s-0.061,0.004-0.092,0.01
	c-0.032,0.005-0.063,0.013-0.092,0.025c-0.029,0.012-0.055,0.028-0.077,0.049c-0.021,0-0.037,0-0.05,0s-0.024,0-0.034,0
	c-0.011,0-0.021,0-0.034,0c-0.013,0-0.029,0-0.05,0c-0.021,0-0.048,0.005-0.077,0.013c-0.029,0.008-0.061,0.018-0.092,0.029
	c-0.032,0.011-0.063,0.021-0.092,0.029c-0.029,0.008-0.055,0.013-0.077,0.013s-0.037,0-0.05,0.001
	c-0.013,0.001-0.024,0.004-0.034,0.01c-0.011,0.005-0.021,0.013-0.034,0.025c-0.013,0.012-0.029,0.028-0.05,0.049
	c-0.021,0.021-0.048,0.037-0.077,0.05c-0.029,0.013-0.061,0.024-0.092,0.034c-0.032,0.011-0.063,0.021-0.092,0.034
	c-0.029,0.013-0.055,0.029-0.077,0.05c0,0-0.005,0-0.013,0.001c-0.008,0.001-0.018,0.004-0.029,0.01
	c-0.011,0.005-0.021,0.013-0.029,0.025c-0.008,0.012-0.013,0.028-0.013,0.049c-0.021,0.021-0.048,0.037-0.077,0.05
	c-0.029,0.013-0.061,0.024-0.092,0.034c-0.032,0.011-0.063,0.021-0.092,0.034c-0.029,0.013-0.055,0.029-0.077,0.05
	c0,0-0.005,0-0.013,0.001c-0.008,0.001-0.018,0.004-0.029,0.01c-0.011,0.005-0.021,0.013-0.029,0.025
	c-0.008,0.012-0.013,0.028-0.013,0.049c-0.042,0.021-0.079,0.042-0.114,0.063c-0.034,0.021-0.066,0.042-0.098,0.063
	c-0.032,0.021-0.063,0.042-0.098,0.063c-0.034,0.021-0.071,0.042-0.114,0.063l0,0l0,0l0,0l0,0l0,0l0,0l0,0l0,0
	c-0.084,0.063-0.169,0.127-0.252,0.191c-0.083,0.065-0.165,0.131-0.245,0.199c-0.079,0.069-0.155,0.14-0.228,0.216
	c-0.073,0.075-0.141,0.155-0.205,0.239c-0.021,0.021-0.042,0.042-0.063,0.063c-0.021,0.021-0.042,0.042-0.063,0.063
	c-0.021,0.021-0.042,0.042-0.063,0.063s-0.042,0.042-0.063,0.063l0,0l0,0l0,0l0,0c0,0.021-0.005,0.037-0.013,0.05
	c-0.008,0.013-0.018,0.024-0.029,0.034c-0.011,0.011-0.021,0.021-0.029,0.034c-0.008,0.013-0.013,0.029-0.013,0.05
	c-0.021,0.021-0.042,0.048-0.063,0.078c-0.021,0.03-0.042,0.065-0.063,0.101c-0.021,0.037-0.042,0.077-0.063,0.118
	s-0.042,0.083-0.063,0.125c0,0,0,0.005-0.001,0.013c-0.001,0.008-0.004,0.018-0.01,0.029c-0.005,0.011-0.013,0.021-0.025,0.029
	s-0.027,0.013-0.048,0.013c-0.021,0.021-0.037,0.048-0.05,0.077c-0.013,0.029-0.024,0.061-0.034,0.092
	c-0.011,0.032-0.021,0.063-0.034,0.092c-0.013,0.029-0.029,0.055-0.05,0.077c0,0,0,0.005-0.001,0.013
	c-0.001,0.008-0.004,0.018-0.01,0.029c-0.005,0.011-0.013,0.021-0.025,0.029c-0.012,0.008-0.028,0.013-0.049,0.013
	c-0.021,0.021-0.037,0.048-0.049,0.077c-0.012,0.029-0.02,0.061-0.025,0.092c-0.005,0.032-0.008,0.063-0.009,0.092
	c-0.001,0.029-0.001,0.055-0.001,0.077s-0.005,0.042-0.013,0.062c-0.008,0.02-0.018,0.038-0.029,0.054
	c-0.011,0.016-0.021,0.029-0.029,0.038c-0.008,0.009-0.013,0.014-0.013,0.014c0,0.021-0.005,0.042-0.013,0.063
	c-0.008,0.021-0.018,0.042-0.029,0.063c-0.011,0.021-0.021,0.042-0.029,0.063c-0.008,0.021-0.013,0.042-0.013,0.063
	c0,0.021-0.005,0.042-0.013,0.063c-0.008,0.021-0.018,0.042-0.029,0.063c-0.011,0.021-0.021,0.042-0.029,0.063
	c-0.008,0.021-0.013,0.042-0.013,0.063s0,0.037,0,0.05c0,0.013,0,0.024,0,0.034c0,0.011,0,0.021,0,0.034s0,0.029,0,0.05
	c0,0.042,0,0.079-0.001,0.114c-0.001,0.034-0.004,0.066-0.01,0.098c-0.005,0.032-0.013,0.063-0.025,0.098
	c-0.012,0.034-0.027,0.071-0.048,0.114l0,0l0,0l0,0l0,0l0,0l0,0l0,0l0,0c0,0.127,0,0.259,0.003,0.393
	c0.003,0.135,0.008,0.272,0.018,0.409c0.011,0.137,0.026,0.275,0.05,0.409c0.024,0.135,0.055,0.267,0.098,0.393l0,0l0,0l0,0l0,0
	v0.021v0.021v0.021v0.021c0.021,0.042,0.037,0.09,0.05,0.14c0.013,0.05,0.024,0.103,0.034,0.156
	c0.011,0.053,0.021,0.106,0.034,0.156c0.013,0.05,0.029,0.098,0.05,0.14c0.021,0.042,0.042,0.084,0.062,0.125
	c0.02,0.041,0.038,0.08,0.054,0.117c0.016,0.037,0.029,0.072,0.039,0.102c0.009,0.03,0.015,0.057,0.015,0.078l0,0l0,0l0,0l0,0
	c0.021,0.042,0.042,0.079,0.063,0.114c0.021,0.034,0.042,0.066,0.063,0.098c0.021,0.032,0.042,0.063,0.063,0.098
	c0.021,0.034,0.042,0.071,0.063,0.114l0,0l0,0l0,0l0,0c0.021,0.042,0.042,0.079,0.063,0.112s0.042,0.062,0.063,0.088
	c0.021,0.026,0.042,0.05,0.063,0.073c0.021,0.023,0.042,0.044,0.063,0.065c0,0,0,0,0.001,0.001c0.001,0.001,0.004,0.004,0.009,0.01
	c0.005,0.005,0.014,0.013,0.025,0.025c0.012,0.012,0.028,0.028,0.049,0.049s0.042,0.048,0.063,0.077
	c0.021,0.029,0.042,0.061,0.063,0.092c0.021,0.032,0.042,0.063,0.063,0.092c0.021,0.029,0.042,0.055,0.063,0.077l0.021,0.021
	l0.021,0.021l0.021,0.021l0.021,0.021c0.021,0.021,0.042,0.042,0.065,0.063s0.046,0.042,0.072,0.063s0.055,0.042,0.089,0.063
	s0.07,0.042,0.113,0.063l0.021,0.021l0.021,0.021l0.021,0.021l0.021,0.021c0.021,0.021,0.042,0.042,0.063,0.063
	s0.042,0.042,0.063,0.063c0.021,0.021,0.042,0.042,0.063,0.063s0.042,0.042,0.063,0.063c0.021,0,0.037,0.005,0.05,0.013
	c0.013,0.008,0.024,0.018,0.034,0.029s0.021,0.021,0.034,0.029c0.013,0.008,0.029,0.013,0.05,0.013
	c0.021,0.021,0.042,0.037,0.063,0.05s0.042,0.024,0.063,0.034c0.021,0.011,0.042,0.021,0.063,0.034
	c0.021,0.013,0.042,0.029,0.063,0.05c0.021,0,0.037,0.005,0.05,0.013c0.013,0.008,0.024,0.018,0.034,0.029
	c0.011,0.011,0.021,0.021,0.034,0.029c0.013,0.008,0.029,0.013,0.05,0.013c0.021,0.021,0.042,0.037,0.063,0.05
	s0.042,0.024,0.063,0.034c0.021,0.011,0.042,0.021,0.063,0.034c0.021,0.013,0.042,0.029,0.063,0.05c0.021,0,0.042,0.005,0.063,0.013
	c0.021,0.008,0.042,0.018,0.063,0.029c0.021,0.011,0.042,0.021,0.063,0.029c0.021,0.008,0.042,0.013,0.063,0.013
	s0.042,0.005,0.063,0.013c0.021,0.008,0.042,0.018,0.063,0.029c0.021,0.011,0.042,0.021,0.063,0.029
	c0.021,0.008,0.042,0.013,0.063,0.013s0.042,0.005,0.063,0.013c0.021,0.008,0.042,0.018,0.063,0.029
	c0.021,0.011,0.042,0.021,0.063,0.029c0.021,0.008,0.042,0.013,0.063,0.013s0.042,0,0.063,0.001s0.042,0.004,0.063,0.01
	c0.021,0.005,0.042,0.013,0.063,0.025c0.021,0.012,0.042,0.028,0.063,0.049c0.021,0,0.042,0.005,0.065,0.013
	s0.046,0.018,0.072,0.029c0.026,0.011,0.055,0.021,0.088,0.029c0.033,0.008,0.07,0.013,0.113,0.013c0.021,0,0.037,0,0.05,0
	c0.013,0,0.024,0,0.034,0c0.011,0,0.021,0,0.034,0c0.013,0,0.029,0,0.05,0c0.021,0,0.048,0,0.077,0s0.061,0,0.092,0s0.063,0,0.092,0
	s0.055,0,0.077,0c0.021,0,0.037,0,0.05,0c0.013,0,0.024,0,0.034,0c0.011,0,0.021,0,0.034,0c0.013,0,0.029,0,0.05,0
	c0.042,0,0.079,0,0.114,0s0.066,0,0.098,0c0.032,0,0.063,0,0.098,0s0.071,0,0.114,0h0.021h0.021h0.021h0.021
	c0.042,0,0.079,0,0.114,0c0.034,0,0.066,0,0.098,0s0.063,0,0.098,0c0.034,0,0.071,0,0.114,0h0.021h0.021h0.021h0.021
	c0.042,0,0.079-0.005,0.114-0.013c0.034-0.008,0.066-0.018,0.098-0.029c0.032-0.011,0.063-0.021,0.098-0.029
	c0.034-0.008,0.071-0.013,0.114-0.013h0.021h0.021h0.021h0.021c0.042,0,0.084-0.005,0.125-0.014c0.041-0.009,0.08-0.022,0.117-0.038
	c0.037-0.016,0.071-0.034,0.102-0.054c0.031-0.02,0.057-0.041,0.078-0.062l0,0l0,0l0,0l0,0c0.042-0.021,0.084-0.037,0.125-0.05
	c0.041-0.013,0.08-0.024,0.117-0.034c0.037-0.011,0.071-0.021,0.102-0.034c0.03-0.013,0.057-0.029,0.078-0.05l0,0l0,0l0,0l0,0
	c0.042-0.021,0.084-0.042,0.125-0.063c0.041-0.021,0.08-0.042,0.117-0.063c0.037-0.021,0.071-0.042,0.102-0.063
	c0.03-0.021,0.057-0.042,0.078-0.063c0.042-0.021,0.084-0.042,0.125-0.063s0.08-0.042,0.117-0.063
	c0.037-0.021,0.071-0.042,0.102-0.063s0.057-0.042,0.078-0.063c0.106-0.084,0.211-0.169,0.315-0.256
	c0.104-0.087,0.207-0.177,0.307-0.272c0.101-0.095,0.198-0.195,0.292-0.304s0.184-0.224,0.268-0.351l0,0l0,0l0,0l0,0
	c0,0,0-0.005,0.001-0.013c0.001-0.008,0.004-0.018,0.009-0.029c0.005-0.011,0.013-0.021,0.025-0.029s0.028-0.013,0.049-0.013
	c0.021-0.021,0.042-0.048,0.063-0.077c0.021-0.029,0.042-0.061,0.063-0.092c0.021-0.032,0.042-0.063,0.063-0.092
	c0.021-0.029,0.042-0.055,0.063-0.077c0-0.021,0.005-0.037,0.013-0.05c0.008-0.013,0.018-0.024,0.029-0.034
	c0.011-0.011,0.021-0.021,0.029-0.034c0.008-0.013,0.013-0.029,0.013-0.05c0.021-0.021,0.037-0.042,0.05-0.065
	c0.013-0.022,0.024-0.046,0.034-0.073c0.011-0.026,0.021-0.055,0.034-0.088c0.013-0.033,0.029-0.07,0.05-0.112
	c0-0.021,0.005-0.042,0.013-0.063c0.008-0.021,0.018-0.042,0.029-0.063c0.011-0.021,0.021-0.042,0.029-0.063
	s0.013-0.042,0.013-0.063c0-0.021,0.005-0.042,0.013-0.063s0.018-0.042,0.029-0.063s0.021-0.042,0.029-0.063
	s0.013-0.042,0.013-0.063c0-0.021,0.005-0.042,0.013-0.063c0.008-0.021,0.018-0.042,0.029-0.063
	c0.011-0.021,0.021-0.042,0.029-0.063c0.008-0.021,0.013-0.042,0.013-0.063s0.005-0.042,0.013-0.063
	c0.008-0.021,0.018-0.042,0.029-0.063c0.011-0.021,0.021-0.042,0.029-0.063s0.013-0.042,0.013-0.063
	c0-0.021,0.005-0.048,0.013-0.077c0.008-0.029,0.018-0.061,0.029-0.092s0.021-0.063,0.029-0.092
	c0.008-0.029,0.013-0.055,0.013-0.077s0-0.037,0-0.05c0-0.013,0-0.024,0-0.034c0-0.011,0-0.021,0-0.034c0-0.013,0-0.029,0-0.05
	c0-0.042,0-0.079,0.001-0.114c0.001-0.034,0.004-0.066,0.009-0.098c0.005-0.032,0.013-0.063,0.025-0.098
	c0.012-0.034,0.028-0.071,0.049-0.114v-0.021v-0.021v-0.021v-0.021l0,0l0,0l0,0l0,0c0-0.127,0-0.259-0.003-0.393
	c-0.003-0.135-0.008-0.272-0.018-0.409c-0.011-0.137-0.026-0.275-0.05-0.409c-0.024-0.135-0.055-0.267-0.098-0.393l0,0l0,0l0,0l0,0
	c-0.021-0.042-0.037-0.084-0.05-0.127s-0.024-0.084-0.034-0.127c-0.011-0.042-0.021-0.084-0.034-0.127
	c-0.013-0.042-0.029-0.084-0.05-0.127c-0.021-0.042-0.042-0.084-0.062-0.127c-0.02-0.042-0.038-0.084-0.054-0.127
	s-0.029-0.084-0.038-0.127s-0.014-0.084-0.014-0.127l0,0l0,0l0,0l0,0l0,0l0,0l0,0l0,0c-0.021-0.042-0.042-0.079-0.063-0.114
	s-0.042-0.066-0.063-0.098c-0.021-0.032-0.042-0.063-0.063-0.098c-0.021-0.034-0.042-0.071-0.063-0.114l0,0l0,0l0,0l0,0
	c-0.021-0.042-0.042-0.079-0.063-0.114c-0.021-0.034-0.042-0.066-0.063-0.098s-0.042-0.063-0.063-0.098
	c-0.021-0.034-0.042-0.071-0.063-0.114c0,0,0,0,0-0.001s0-0.004,0-0.01c0-0.005,0-0.013,0-0.025s0-0.027,0-0.048
	c-0.021-0.021-0.042-0.048-0.063-0.077c-0.021-0.029-0.042-0.061-0.063-0.092c-0.021-0.032-0.042-0.063-0.063-0.092
	c-0.021-0.029-0.042-0.055-0.063-0.077l-0.021-0.021l-0.021-0.021l-0.022-0.021l-0.022-0.021c-0.021-0.021-0.042-0.042-0.063-0.063
	c-0.021-0.021-0.042-0.042-0.063-0.063c-0.021-0.021-0.042-0.042-0.063-0.063c-0.021-0.021-0.042-0.042-0.063-0.063l-0.021-0.021
	l-0.021-0.021l-0.021-0.021l-0.021-0.021c-0.021-0.021-0.042-0.042-0.063-0.063c-0.021-0.021-0.042-0.042-0.063-0.063
	c-0.021-0.021-0.042-0.042-0.063-0.063c-0.021-0.021-0.042-0.042-0.063-0.063c-0.021,0-0.037-0.005-0.05-0.013
	c-0.013-0.008-0.024-0.018-0.034-0.029c-0.011-0.011-0.021-0.021-0.034-0.029c-0.013-0.008-0.029-0.013-0.05-0.013
	c-0.021-0.021-0.042-0.037-0.063-0.05c-0.021-0.013-0.042-0.024-0.063-0.034c-0.021-0.011-0.042-0.021-0.063-0.034
	c-0.021-0.013-0.042-0.029-0.063-0.05c-0.021,0-0.037-0.005-0.05-0.013c-0.013-0.008-0.024-0.018-0.034-0.029
	c-0.011-0.011-0.021-0.021-0.034-0.029c-0.013-0.008-0.029-0.013-0.05-0.013c-0.021-0.021-0.042-0.037-0.063-0.05
	s-0.042-0.024-0.063-0.034c-0.021-0.011-0.042-0.021-0.063-0.034c-0.021-0.013-0.042-0.029-0.063-0.05
	c-0.021,0-0.042-0.005-0.062-0.013c-0.02-0.008-0.038-0.018-0.054-0.029c-0.016-0.011-0.029-0.021-0.039-0.029
	c-0.009-0.008-0.015-0.013-0.015-0.013c-0.021,0-0.042-0.005-0.063-0.013s-0.042-0.018-0.063-0.029
	c-0.021-0.011-0.042-0.021-0.063-0.029c-0.021-0.008-0.042-0.013-0.063-0.013c-0.021,0-0.042-0.005-0.063-0.013
	c-0.021-0.008-0.042-0.018-0.063-0.029c-0.021-0.011-0.042-0.021-0.063-0.029c-0.021-0.008-0.042-0.013-0.063-0.013
	c-0.021,0-0.042-0.005-0.063-0.013c-0.021-0.008-0.042-0.018-0.063-0.029c-0.021-0.011-0.042-0.021-0.063-0.029
	c-0.021-0.008-0.042-0.013-0.063-0.013c-0.021,0-0.042-0.005-0.063-0.013s-0.042-0.018-0.063-0.029
	c-0.021-0.011-0.042-0.021-0.063-0.029c-0.021-0.008-0.042-0.013-0.063-0.013s-0.042,0-0.062,0s-0.038,0-0.054,0s-0.029,0-0.038,0
	s-0.014,0-0.014,0c-0.021,0-0.048,0-0.077-0.001s-0.061-0.004-0.092-0.01c-0.032-0.005-0.063-0.013-0.092-0.025
	c-0.029-0.012-0.055-0.027-0.077-0.048c-0.021,0-0.037,0-0.05,0c-0.013,0-0.024,0-0.034,0c-0.011,0-0.021,0-0.034,0
	c-0.013,0-0.029,0-0.05,0c-0.063,0.084-0.116,0.148-0.161,0.195s-0.082,0.079-0.114,0.1c-0.032,0.021-0.059,0.032-0.083,0.037
	C61.826,36.531,61.805,36.531,61.784,36.531L61.784,36.531L61.784,36.531L61.784,36.531L61.784,36.531z"/>
<path id="path11009" inkscape:connector-curvature="0" inkscape:export-filename="C:\Users\Charlotte Abel\Documents\Symbology\Components\health-and-medical-icon_medical-supply-chain-5.png" inkscape:export-xdpi="300.00458" inkscape:export-ydpi="300.00458" style="fill:#003366;" d="
	M61.615,36.531c0.739,0,1.442,0.148,2.079,0.416s1.211,0.656,1.691,1.136c0.48,0.481,0.868,1.054,1.136,1.691
	c0.268,0.638,0.416,1.34,0.416,2.079c0,0.275-0.021,0.549-0.063,0.821s-0.106,0.541-0.19,0.805c-0.084,0.264-0.19,0.523-0.317,0.774
	c-0.127,0.251-0.275,0.494-0.444,0.726l-1.859-1.859l-1.859-1.859l-1.859-1.859l-1.859-1.859c0.232-0.169,0.475-0.317,0.726-0.444
	s0.51-0.232,0.774-0.317c0.264-0.084,0.533-0.148,0.805-0.19C61.066,36.552,61.341,36.531,61.615,36.531z M57.391,38.643
	l1.859,1.859l1.859,1.859l1.859,1.859l1.859,1.859c-0.591,0.422-1.241,0.708-1.91,0.861s-1.359,0.174-2.029,0.069
	c-0.67-0.106-1.322-0.338-1.918-0.692c-0.595-0.354-1.134-0.829-1.577-1.42c-0.338-0.465-0.591-0.972-0.76-1.5
	s-0.253-1.077-0.253-1.626c0-0.549,0.084-1.098,0.253-1.626C56.799,39.615,57.053,39.108,57.391,38.643z"/>
<path id="path11678" inkscape:connector-curvature="0" style="fill:#003366;" d="M42.267,33.828c-0.232,0-0.449,0.042-0.643,0.12
	c-0.194,0.078-0.366,0.191-0.508,0.334c-0.143,0.143-0.256,0.315-0.334,0.509c-0.078,0.194-0.12,0.411-0.12,0.643v0.19v0.19v0.19
	v0.19h-0.676H39.31h-0.676h-0.676c-0.401,0-0.787,0.084-1.139,0.236s-0.672,0.371-0.942,0.64s-0.489,0.589-0.64,0.941
	c-0.152,0.353-0.236,0.738-0.236,1.14v0.613v0.613v0.613V41.6h4.71h4.71h4.71h4.71v-0.613v-0.613v-0.613V39.15
	c0-0.401-0.084-0.787-0.236-1.139s-0.371-0.672-0.641-0.942c-0.269-0.269-0.588-0.488-0.941-0.64s-0.738-0.236-1.139-0.236h-0.676
	h-0.676h-0.676h-0.676v-0.19v-0.19v-0.19v-0.19c0-0.232-0.042-0.449-0.12-0.643c-0.078-0.194-0.192-0.366-0.334-0.508
	c-0.142-0.143-0.314-0.256-0.508-0.334c-0.194-0.078-0.411-0.12-0.643-0.12h-1.077h-1.077h-1.077H42.267z"/>
<path id="path11676" inkscape:connector-curvature="0" style="fill:#003366;" d="M35.001,42.361v4.774v4.774v4.774v4.774
	c0,0.401,0.084,0.787,0.236,1.139c0.152,0.353,0.371,0.672,0.64,0.942c0.27,0.269,0.589,0.488,0.942,0.64
	c0.353,0.152,0.738,0.236,1.139,0.236h0.676h0.676h0.676h0.676v0.19v0.19v0.19v0.19c0,0.232,0.042,0.449,0.12,0.643
	s0.191,0.366,0.334,0.508c0.143,0.143,0.315,0.256,0.509,0.334c0.194,0.078,0.411,0.12,0.643,0.12h0.169h0.169h0.169h0.169v0.317
	v0.317v0.317v0.317c0,0.127,0.026,0.248,0.074,0.359c0.048,0.111,0.116,0.211,0.201,0.296c0.084,0.084,0.185,0.153,0.296,0.201
	s0.232,0.074,0.359,0.074h0.296h0.296h0.296h0.296c0.127,0,0.248-0.026,0.359-0.074c0.111-0.048,0.211-0.116,0.296-0.201
	s0.153-0.185,0.201-0.296c0.048-0.111,0.074-0.232,0.074-0.359v-0.317v-0.317v-0.317v-0.317h0.169h0.169h0.169h0.169
	c0.232,0,0.449-0.042,0.643-0.12c0.194-0.078,0.366-0.192,0.508-0.334c0.143-0.142,0.256-0.314,0.334-0.508s0.12-0.411,0.12-0.643
	v-0.19v-0.19v-0.19v-0.19h0.676h0.676h0.676h0.676c0.401,0,0.787-0.084,1.139-0.236c0.352-0.152,0.672-0.371,0.941-0.64
	c0.27-0.27,0.489-0.589,0.641-0.942c0.152-0.353,0.236-0.738,0.236-1.139v-4.774v-4.774v-4.774v-4.774h-4.731h-4.731h-4.731H35.001z
	"/>
<path id="path11674" inkscape:connector-curvature="0" style="fill:#FFFFFF;" d="M44.464,47.684
	c0.549,0.824,1.051,1.568,1.494,2.253c0.444,0.685,0.829,1.311,1.146,1.897c0.317,0.586,0.565,1.133,0.734,1.66
	c0.169,0.527,0.259,1.034,0.259,1.541s-0.1,0.987-0.283,1.423c-0.182,0.436-0.446,0.826-0.774,1.154
	c-0.327,0.327-0.718,0.591-1.154,0.774c-0.436,0.182-0.916,0.283-1.423,0.283s-0.987-0.1-1.423-0.283
	c-0.436-0.182-0.826-0.446-1.154-0.774c-0.327-0.327-0.591-0.718-0.774-1.154c-0.182-0.436-0.283-0.916-0.283-1.423
	c0-0.486,0.09-0.982,0.259-1.505c0.169-0.523,0.417-1.072,0.734-1.663c0.317-0.591,0.702-1.225,1.146-1.917
	C43.413,49.257,43.915,48.507,44.464,47.684z"/>
<path id="path11011" inkscape:connector-curvature="0" style="fill:#003366;" d="M44.464,50.049
	c-0.106,0.169-0.243,0.364-0.389,0.574s-0.302,0.434-0.445,0.661c-0.143,0.227-0.272,0.457-0.366,0.678
	c-0.094,0.221-0.152,0.432-0.152,0.622c0,0.275,0.116,0.459,0.29,0.554c0.174,0.095,0.407,0.1,0.639,0.016s0.465-0.259,0.639-0.523
	c0.174-0.264,0.29-0.618,0.29-1.061c-0.021-0.148-0.053-0.296-0.091-0.44c-0.038-0.144-0.083-0.284-0.131-0.416
	c-0.047-0.132-0.097-0.256-0.146-0.368C44.554,50.234,44.506,50.134,44.464,50.049z"/>
<polygon id="rect11619" style="fill:#FFFFFF;stroke:#FFFFFF;stroke-width:0.034;stroke-linecap:round;stroke-linejoin:round;stroke-miterlimit:9.1177;" points="
	35.001,41.516 39.712,41.516 44.422,41.516 49.132,41.516 53.842,41.516 53.842,41.727 53.842,41.938 53.842,42.15 53.842,42.361 
	49.132,42.361 44.422,42.361 39.712,42.361 35.001,42.361 35.001,42.15 35.001,41.938 35.001,41.727 "/>
</svg>
