<?xml version="1.0" encoding="iso-8859-1"?>
<!-- Generator: Adobe Illustrator 25.4.1, SVG Export Plug-In . SVG Version: 6.00 Build 0)  -->
<svg version="1.1"
	 id="svg8" inkscape:export-filename="C:\Users\Charlotte Abel\Documents\Symbology\Components\For Distribution\communications_alerts-warnings-messages.png" inkscape:export-xdpi="300.00464" inkscape:export-ydpi="300.00464" inkscape:version="0.91 r13725" sodipodi:docname="health-and-medical_medical-care-with-label-clr_256x256.svg" xmlns:cc="http://creativecommons.org/ns#" xmlns:dc="http://purl.org/dc/elements/1.1/" xmlns:inkscape="http://www.inkscape.org/namespaces/inkscape" xmlns:rdf="http://www.w3.org/1999/02/22-rdf-syntax-ns#" xmlns:sodipodi="http://sodipodi.sourceforge.net/DTD/sodipodi-0.dtd" xmlns:svg="http://www.w3.org/2000/svg"
	 xmlns="http://www.w3.org/2000/svg" xmlns:xlink="http://www.w3.org/1999/xlink" x="0px" y="0px" viewBox="0 0 100 100"
	 style="enable-background:new 0 0 100 100;" xml:space="preserve">
<sodipodi:namedview  bordercolor="#666666" borderopacity="1.0" id="base" inkscape:current-layer="g8245" inkscape:cx="-302.11164" inkscape:cy="84.283015" inkscape:document-units="px" inkscape:guide-bbox="true" inkscape:lockguides="true" inkscape:pageopacity="0.0" inkscape:pageshadow="2" inkscape:window-height="657" inkscape:window-maximized="1" inkscape:window-width="1280" inkscape:window-x="-8" inkscape:window-y="-8" inkscape:zoom="0.765625" pagecolor="#ffffff" showgrid="false" showguides="false" units="px">
	<sodipodi:guide  id="guide5700" inkscape:locked="true" orientation="0,1" position="-0.93017576,23.874511"></sodipodi:guide>
	<sodipodi:guide  id="guide5726" inkscape:locked="true" orientation="0,1" position="-26.098869,26.473047"></sodipodi:guide>
	<sodipodi:guide  id="guide5880" inkscape:locked="true" orientation="0,1" position="104.51042,-2.9104167"></sodipodi:guide>
	<sodipodi:guide  id="guide6001" inkscape:locked="true" orientation="0,1" position="-71.093695,29.279377"></sodipodi:guide>
	<sodipodi:guide  id="guide6005" inkscape:locked="true" orientation="0,1" position="-46.304445,58.278122"></sodipodi:guide>
	<sodipodi:guide  id="guide6736" inkscape:locked="true" orientation="0,1" position="-0.10335287,20.205485"></sodipodi:guide>
	<sodipodi:guide  id="guide6738" inkscape:locked="true" orientation="0,1" position="-0.43848907,22.874513"></sodipodi:guide>
	<inkscape:grid  id="grid2386" type="xygrid"></inkscape:grid>
</sodipodi:namedview>
<g id="g1180_1_" transform="translate(0,-229.2666)" inkscape:groupmode="layer" inkscape:label="halo:always" style="display:none;">
	<g id="g1210_1_" inkscape:groupmode="layer" inkscape:label="-gray-halo:iter3" style="display:inline;">
		<g id="circle1208_1_">
			<path style="fill:#919395;" d="M50,329.3c-27.6,0-50-22.4-50-50s22.4-50,50-50s50,22.4,50,50S77.6,329.3,50,329.3z M50,237.9
				c-22.8,0-41.4,18.6-41.4,41.4s18.6,41.4,41.4,41.4s41.4-18.6,41.4-41.4S72.8,237.9,50,237.9z"/>
		</g>
	</g>
	<g id="g1206_1_" inkscape:groupmode="layer" inkscape:label="-red-halo:iter3" style="display:inline;">
		<g id="circle1204_1_">
			<path style="fill:#C52038;" d="M50,329.3c-27.6,0-50-22.4-50-50s22.4-50,50-50s50,22.4,50,50S77.6,329.3,50,329.3z M50,237.9
				c-22.8,0-41.4,18.6-41.4,41.4s18.6,41.4,41.4,41.4s41.4-18.6,41.4-41.4S72.8,237.9,50,237.9z"/>
		</g>
	</g>
	<g id="g1202_1_" inkscape:groupmode="layer" inkscape:label="-green-halo:iter3" style="display:inline;">
		<g id="circle1200_1_">
			<path style="fill:#5E9C42;" d="M50,329.3c-27.6,0-50-22.4-50-50s22.4-50,50-50s50,22.4,50,50S77.6,329.3,50,329.3z M50,237.9
				c-22.8,0-41.4,18.6-41.4,41.4s18.6,41.4,41.4,41.4s41.4-18.6,41.4-41.4S72.8,237.9,50,237.9z"/>
		</g>
	</g>
	<g id="layer18_1_" inkscape:groupmode="layer" inkscape:label="-yellow-halo:iter3" style="display:inline;">
		<g id="circle1178-4_1_">
			<path style="fill:#FBBA16;" d="M50,329.3c-27.6,0-50-22.4-50-50s22.4-50,50-50s50,22.4,50,50S77.6,329.3,50,329.3z M50,237.9
				c-22.8,0-41.4,18.6-41.4,41.4s18.6,41.4,41.4,41.4s41.4-18.6,41.4-41.4S72.8,237.9,50,237.9z"/>
		</g>
	</g>
</g>
<path id="path8221" inkscape:connector-curvature="0" inkscape:export-filename="C:\Users\Charlotte Abel\Documents\Symbology\Components\For Distribution\health-and-medical-icon_medical-care-gray.png" inkscape:export-xdpi="300.00458" inkscape:export-ydpi="300.00458" style="fill:#003366;" d="
	M58.83,20.35h1.225h1.225h1.225h1.225v1.225V22.8v1.225v1.225h1.225h1.225h1.225h1.225v1.225V27.7v1.225v1.225h-1.225H66.18h-1.225
	H63.73v1.225v1.225v1.225v1.225h-1.225H61.28h-1.225H58.83v-1.225v-1.225v-1.225v-1.225h-1.225H56.38h-1.225H53.93v-1.225V27.7
	v-1.225V25.25h1.225h1.225h1.225h1.225v-1.225V22.8v-1.225V20.35z"/>
<path id="path8223" inkscape:connector-curvature="0" inkscape:export-filename="C:\Users\Charlotte Abel\Documents\Symbology\Components\For Distribution\health-and-medical-icon_medical-care-gray.png" inkscape:export-xdpi="300.00458" inkscape:export-ydpi="300.00458" style="fill:#003366;" d="
	M38.891,30.404c-0.486,0-0.95,0.1-1.374,0.281c-0.424,0.181-0.807,0.442-1.129,0.764c-0.322,0.322-0.584,0.705-0.764,1.129
	c-0.181,0.424-0.281,0.889-0.281,1.375v0.296v0.296v0.296v0.296l0,0l0,0l0,0l0,0v2.028v2.028v2.028v2.028l1.331,0.613l1.331,0.613
	l1.331,0.613l1.331,0.613h0.359h0.359h0.359h0.359c0.084-0.063,0.169-0.127,0.253-0.187s0.169-0.119,0.253-0.172
	c0.084-0.053,0.169-0.1,0.253-0.14c0.084-0.04,0.169-0.071,0.253-0.092l1.288-0.444l1.288-0.444l1.288-0.444l1.288-0.444v-0.127
	v-0.127v-0.127v-0.127h-1.457h-1.457h-1.457h-1.457c-0.19,0-0.38-0.021-0.568-0.061s-0.372-0.098-0.552-0.172
	c-0.18-0.074-0.354-0.164-0.52-0.267s-0.325-0.219-0.473-0.346c-0.148-0.127-0.275-0.269-0.382-0.425
	c-0.107-0.156-0.194-0.325-0.263-0.504c-0.068-0.18-0.118-0.37-0.151-0.568c-0.033-0.198-0.049-0.404-0.049-0.615
	c0-0.401,0.084-0.787,0.236-1.139c0.152-0.353,0.371-0.672,0.64-0.942s0.589-0.489,0.941-0.64c0.353-0.152,0.738-0.236,1.14-0.236
	h0.591h0.591h0.591h0.591c0.021,0,0.042,0,0.062,0s0.038,0,0.054,0c0.016,0,0.029,0,0.038,0c0.009,0,0.014,0,0.014,0l0.275-1.626
	l0.275-1.626l0.275-1.626l0.275-1.626h-1.141h-1.141h-1.141H41.51h-0.655H40.2l-0.655,0L38.891,30.404z"/>
<path id="path8225" inkscape:connector-curvature="0" inkscape:export-filename="C:\Users\Charlotte Abel\Documents\Symbology\Components\For Distribution\health-and-medical-icon_medical-care-gray.png" inkscape:export-xdpi="300.00458" inkscape:export-ydpi="300.00458" style="fill:#003366;" d="
	M40.665,39.867c0,0.253,0.048,0.491,0.135,0.705c0.087,0.214,0.214,0.404,0.372,0.562c0.158,0.158,0.349,0.285,0.562,0.372
	c0.214,0.087,0.451,0.135,0.705,0.135h0.444h0.444h0.444h0.444l0.148-0.887l0.148-0.887l0.148-0.887l0.148-0.887h-0.591h-0.591
	h-0.591h-0.591c-0.253,0-0.491,0.048-0.705,0.135c-0.214,0.087-0.404,0.214-0.562,0.372c-0.158,0.158-0.285,0.349-0.372,0.562
	C40.713,39.376,40.665,39.613,40.665,39.867L40.665,39.867L40.665,39.867L40.665,39.867L40.665,39.867L40.665,39.867L40.665,39.867
	L40.665,39.867L40.665,39.867z"/>
<path id="path8227" inkscape:connector-curvature="0" inkscape:export-filename="C:\Users\Charlotte Abel\Documents\Symbology\Components\For Distribution\health-and-medical-icon_medical-care-gray.png" inkscape:export-xdpi="300.00458" inkscape:export-ydpi="300.00458" style="fill:#003366;" d="
	M49.452,30.404v1.922v1.922v1.922v1.922v0.887v0.887v0.887v0.887H49.6h0.148h0.148h0.148c0.232,0,0.459-0.048,0.669-0.135
	s0.402-0.214,0.566-0.372c0.163-0.158,0.298-0.349,0.392-0.562c0.094-0.214,0.147-0.451,0.147-0.705l0,0l0,0l0,0l0,0v-1.774v-1.774
	v-1.774V32.77c0-0.317-0.063-0.623-0.18-0.904c-0.116-0.281-0.285-0.537-0.496-0.754c-0.211-0.217-0.465-0.394-0.75-0.516
	C50.107,30.472,49.79,30.404,49.452,30.404L49.452,30.404L49.452,30.404L49.452,30.404L49.452,30.404z"/>
<path id="circle8229" inkscape:export-filename="C:\Users\Charlotte Abel\Documents\Symbology\Components\For Distribution\health-and-medical-icon_medical-care-gray.png" inkscape:export-xdpi="300.00458" inkscape:export-ydpi="300.00458" style="fill:#003366;" d="
	M43.622,20.35c0.572,0,1.116,0.116,1.611,0.325c0.495,0.209,0.941,0.513,1.316,0.887c0.375,0.375,0.678,0.821,0.887,1.316
	c0.209,0.495,0.325,1.04,0.325,1.611c0,0.572-0.116,1.116-0.325,1.611c-0.209,0.495-0.513,0.941-0.887,1.316
	c-0.375,0.375-0.821,0.678-1.316,0.887c-0.495,0.209-1.04,0.325-1.611,0.325c-0.572,0-1.116-0.116-1.611-0.325
	c-0.495-0.209-0.941-0.513-1.316-0.887c-0.375-0.375-0.678-0.821-0.887-1.316c-0.209-0.495-0.325-1.04-0.325-1.611
	s0.116-1.116,0.325-1.611c0.209-0.495,0.513-0.941,0.887-1.316c0.375-0.375,0.821-0.678,1.316-0.887
	C42.506,20.466,43.051,20.35,43.622,20.35z"/>
<path id="path8231" inkscape:connector-curvature="0" inkscape:export-filename="C:\Users\Charlotte Abel\Documents\Symbology\Components\For Distribution\health-and-medical-icon_medical-care-gray.png" inkscape:export-xdpi="300.00458" inkscape:export-ydpi="300.00458" style="fill:#003366;" d="
	M42.862,47.978c-0.063,0.084-0.121,0.169-0.173,0.253c-0.051,0.084-0.096,0.169-0.133,0.253c-0.037,0.084-0.066,0.169-0.086,0.253
	s-0.03,0.169-0.03,0.253c-0.021,0.084-0.032,0.174-0.034,0.267c-0.003,0.092,0.003,0.187,0.013,0.283
	c0.011,0.095,0.026,0.19,0.045,0.283s0.04,0.182,0.061,0.267c0.106,0.296,0.264,0.554,0.461,0.771
	c0.197,0.216,0.432,0.391,0.69,0.517c0.259,0.127,0.541,0.206,0.833,0.232c0.292,0.026,0.593,0,0.889-0.084l1.457-0.507l1.457-0.507
	l1.457-0.507l1.457-0.507l0.063,0.19l0.063,0.19l0.063,0.19l0.063,0.19l-1.457,0.507l-1.457,0.507l-1.457,0.507l-1.457,0.507
	c-0.401,0.148-0.813,0.206-1.213,0.185s-0.788-0.121-1.142-0.29c-0.354-0.169-0.673-0.407-0.936-0.702
	c-0.263-0.296-0.469-0.65-0.595-1.051c-0.042-0.148-0.074-0.29-0.096-0.43s-0.036-0.277-0.041-0.415
	c-0.005-0.137-0.002-0.275,0.007-0.415c0.009-0.14,0.025-0.283,0.046-0.43l-2.112-0.993l-2.112-0.993l-2.112-0.993l-2.112-0.993
	c-0.296-0.127-0.602-0.19-0.903-0.197c-0.301-0.007-0.597,0.044-0.871,0.144s-0.528,0.251-0.745,0.445
	c-0.217,0.194-0.396,0.431-0.523,0.706c-0.127,0.296-0.19,0.602-0.197,0.903s0.044,0.597,0.144,0.871
	c0.1,0.275,0.251,0.528,0.445,0.745c0.194,0.216,0.432,0.396,0.706,0.523l3.654,1.711l3.654,1.711l3.654,1.711l3.654,1.711
	c0.127,0.063,0.253,0.111,0.38,0.144c0.127,0.033,0.253,0.052,0.38,0.057c0.127,0.005,0.253-0.003,0.38-0.023
	s0.253-0.052,0.38-0.094l3.211-0.697l3.211-0.697l3.211-0.697l3.211-0.697l1.288,0.613l1.288,0.613l1.288,0.613l1.288,0.613
	l0.824-1.753l0.824-1.753l0.824-1.753l0.824-1.753h-0.021h-0.021h-0.021h-0.021v-0.021v-0.021v-0.021V48.4l-2.999-1.394
	l-2.999-1.394l-2.999-1.394l-2.999-1.394l-3.189,1.098l-3.189,1.098l-3.189,1.098l-3.189,1.098c-0.084,0.042-0.174,0.09-0.265,0.143
	c-0.091,0.053-0.184,0.111-0.274,0.174c-0.09,0.063-0.177,0.132-0.257,0.206C42.999,47.814,42.925,47.893,42.862,47.978
	L42.862,47.978L42.862,47.978L42.862,47.978L42.862,47.978z"/>
<path id="path8243" inkscape:connector-curvature="0" inkscape:export-filename="C:\Users\Charlotte Abel\Documents\Symbology\Components\For Distribution\health-and-medical-icon_medical-care-gray.png" inkscape:export-xdpi="300.00458" inkscape:export-ydpi="300.00458" style="fill:#FFFFFF;" d="
	M46.157,30.404l-0.486,2.788l-0.486,2.788l-0.486,2.788l-0.486,2.788c0.444,0,0.887,0,1.331,0s0.887,0,1.331,0s0.887,0,1.331,0
	s0.887,0,1.331,0v-2.788V35.98v-2.788v-2.788h-0.845h-0.845h-0.845H46.157z"/>
<path id="path8415" style="fill:#003366;" d="M36.658,71.69v-1.718v-1.718v-1.718v-1.718h0.428h0.428h0.428h0.428l0.26,1.174
	l0.26,1.174l0.26,1.174l0.26,1.174l0.251-1.174l0.251-1.174l0.251-1.174l0.251-1.174h0.428h0.428h0.428h0.428v1.718v1.718v1.718
	v1.718h-0.268h-0.268h-0.268h-0.268v-1.358v-1.358v-1.358v-1.358l-0.277,1.358l-0.277,1.358l-0.277,1.358l-0.277,1.358h-0.277
	h-0.277h-0.277h-0.277l-0.277-1.358l-0.277-1.358l-0.277-1.358l-0.277-1.358v1.358v1.358v1.358v1.358c0,0-0.067,0-0.168,0
	s-0.235,0-0.369,0c-0.134,0-0.268,0-0.369,0C36.725,71.69,36.658,71.69,36.658,71.69z"/>
<path id="path8417" style="fill:#003366;" d="M45.209,70.114l0.268,0.059l0.268,0.059l0.268,0.059l0.268,0.059
	c-0.034,0.126-0.073,0.243-0.119,0.352c-0.046,0.109-0.097,0.21-0.153,0.302c-0.057,0.092-0.119,0.176-0.185,0.251
	c-0.067,0.075-0.138,0.143-0.213,0.201c-0.075,0.059-0.155,0.111-0.239,0.157s-0.172,0.084-0.264,0.116s-0.189,0.055-0.289,0.072
	c-0.101,0.016-0.205,0.025-0.314,0.025c-0.151,0-0.293-0.013-0.428-0.038s-0.26-0.063-0.377-0.113s-0.226-0.113-0.327-0.189
	c-0.101-0.075-0.193-0.163-0.277-0.264c-0.101-0.117-0.187-0.247-0.259-0.389c-0.072-0.142-0.131-0.296-0.177-0.461
	c-0.046-0.166-0.08-0.343-0.102-0.531c-0.022-0.188-0.032-0.387-0.032-0.597s0.013-0.409,0.038-0.597
	c0.025-0.189,0.063-0.367,0.113-0.534s0.113-0.325,0.189-0.472c0.075-0.147,0.163-0.283,0.264-0.409
	c0.084-0.109,0.174-0.203,0.27-0.283c0.096-0.08,0.197-0.146,0.304-0.199c0.107-0.052,0.219-0.091,0.336-0.117
	s0.238-0.038,0.364-0.038c0.143,0,0.279,0.013,0.408,0.038s0.252,0.064,0.367,0.117c0.115,0.052,0.223,0.118,0.323,0.199
	s0.192,0.175,0.276,0.284c0.092,0.126,0.174,0.266,0.245,0.421c0.071,0.155,0.13,0.323,0.179,0.505s0.085,0.378,0.11,0.587
	c0.025,0.209,0.037,0.431,0.037,0.666v0.034v0.034v0.034v0.034H45.67h-0.679h-0.679h-0.679c0,0.101,0.006,0.195,0.018,0.283
	c0.012,0.088,0.03,0.17,0.053,0.245c0.023,0.075,0.051,0.145,0.084,0.207c0.033,0.063,0.071,0.119,0.113,0.17
	c0.042,0.05,0.086,0.096,0.132,0.137c0.046,0.041,0.094,0.076,0.145,0.106c0.05,0.029,0.103,0.052,0.157,0.068
	c0.054,0.016,0.111,0.024,0.17,0.024c0.084,0.008,0.161,0,0.233-0.025c0.071-0.025,0.136-0.065,0.195-0.122
	c0.059-0.056,0.111-0.129,0.157-0.216C45.135,70.334,45.175,70.231,45.209,70.114L45.209,70.114L45.209,70.114L45.209,70.114
	L45.209,70.114z M45.242,68.773c0-0.101-0.006-0.193-0.018-0.278c-0.012-0.085-0.028-0.162-0.049-0.234
	c-0.021-0.071-0.046-0.136-0.074-0.196c-0.028-0.06-0.06-0.114-0.093-0.165c-0.042-0.05-0.084-0.094-0.127-0.132
	c-0.043-0.038-0.087-0.069-0.133-0.094c-0.046-0.025-0.094-0.044-0.146-0.057c-0.051-0.013-0.106-0.019-0.165-0.019
	s-0.115,0.006-0.169,0.019c-0.054,0.013-0.105,0.031-0.154,0.057c-0.048,0.025-0.093,0.057-0.135,0.094
	c-0.041,0.038-0.079,0.082-0.113,0.132c-0.042,0.05-0.078,0.107-0.107,0.169c-0.03,0.062-0.054,0.131-0.073,0.204
	c-0.019,0.073-0.032,0.152-0.041,0.235c-0.009,0.083-0.013,0.171-0.013,0.264h0.402h0.402c0,0,0.201,0,0.402,0
	S45.242,68.773,45.242,68.773z"/>
<path id="path8419" style="fill:#003366;" d="M50.54,71.69h-0.251h-0.251h-0.251h-0.251v-0.184v-0.184v-0.184v-0.184
	c-0.042,0.067-0.086,0.132-0.132,0.194c-0.046,0.062-0.094,0.12-0.145,0.175c-0.05,0.054-0.103,0.105-0.157,0.15
	c-0.054,0.045-0.111,0.085-0.17,0.118c-0.059,0.034-0.117,0.063-0.176,0.088c-0.059,0.025-0.117,0.046-0.176,0.063
	c-0.059,0.017-0.117,0.029-0.176,0.038c-0.059,0.008-0.117,0.013-0.176,0.013c-0.117,0-0.231-0.015-0.34-0.043
	c-0.109-0.029-0.214-0.072-0.314-0.128c-0.101-0.056-0.197-0.127-0.289-0.21c-0.092-0.083-0.18-0.18-0.264-0.289
	c-0.084-0.117-0.157-0.245-0.22-0.384c-0.063-0.139-0.115-0.289-0.157-0.45c-0.042-0.161-0.073-0.334-0.094-0.519
	c-0.021-0.185-0.031-0.382-0.031-0.591s0.01-0.409,0.031-0.596s0.052-0.362,0.094-0.523c0.042-0.161,0.094-0.309,0.157-0.442
	c0.063-0.133,0.136-0.25,0.22-0.351c0.084-0.109,0.172-0.203,0.265-0.283c0.093-0.08,0.19-0.146,0.293-0.199
	s0.211-0.091,0.324-0.117c0.114-0.026,0.233-0.038,0.359-0.038c0.059,0,0.115,0.004,0.17,0.012c0.055,0.008,0.109,0.019,0.161,0.034
	c0.052,0.015,0.104,0.032,0.155,0.053c0.051,0.021,0.101,0.044,0.151,0.069c0.05,0.025,0.098,0.057,0.145,0.093
	s0.092,0.079,0.136,0.125s0.087,0.096,0.129,0.15c0.042,0.053,0.084,0.11,0.126,0.169v-0.62v-0.62v-0.62v-0.62h0.268h0.268h0.268
	h0.268v1.71v1.71v1.71v1.71h0.008h0.008c0,0,0.004,0,0.008,0C50.536,71.69,50.54,71.69,50.54,71.69z M47.656,69.075
	c0,0.109,0.002,0.212,0.006,0.308c0.004,0.096,0.01,0.187,0.019,0.27c0.008,0.084,0.019,0.161,0.031,0.233
	c0.013,0.071,0.027,0.136,0.044,0.195c0.017,0.059,0.038,0.111,0.062,0.159S47.87,70.33,47.9,70.37
	c0.029,0.04,0.061,0.077,0.093,0.112c0.032,0.035,0.066,0.069,0.1,0.102c0.034,0.025,0.069,0.048,0.106,0.069
	s0.076,0.038,0.116,0.053c0.04,0.015,0.081,0.026,0.122,0.034s0.083,0.012,0.125,0.012c0.059,0,0.115-0.008,0.17-0.025
	c0.054-0.016,0.107-0.04,0.157-0.072s0.098-0.07,0.145-0.116c0.046-0.046,0.09-0.098,0.132-0.157c0.042-0.067,0.08-0.14,0.113-0.221
	c0.033-0.081,0.061-0.169,0.084-0.265c0.023-0.096,0.041-0.201,0.053-0.315c0.012-0.114,0.018-0.238,0.018-0.372
	c0-0.143-0.006-0.275-0.018-0.397c-0.012-0.122-0.03-0.234-0.053-0.337c-0.023-0.103-0.051-0.196-0.084-0.28
	c-0.033-0.084-0.071-0.16-0.113-0.227c-0.042-0.067-0.086-0.124-0.133-0.171c-0.047-0.047-0.096-0.085-0.148-0.114
	s-0.108-0.05-0.167-0.064c-0.059-0.014-0.122-0.02-0.189-0.02c-0.059,0-0.117,0.008-0.175,0.025
	c-0.058,0.016-0.114,0.04-0.169,0.072c-0.054,0.031-0.107,0.07-0.156,0.116c-0.049,0.046-0.095,0.098-0.137,0.157
	c-0.042,0.059-0.078,0.128-0.107,0.206s-0.054,0.165-0.073,0.259s-0.033,0.196-0.042,0.303S47.656,68.957,47.656,69.075
	L47.656,69.075L47.656,69.075L47.656,69.075L47.656,69.075z"/>
<path id="path8421" style="fill:#003366;" d="M51.177,66.023v-0.302V65.42v-0.302v-0.302h0.268h0.268h0.268h0.268v0.302v0.302v0.302
	v0.302h-0.268h-0.268h-0.268H51.177z M51.177,71.69v-1.249v-1.249v-1.249v-1.249h0.268h0.268h0.268h0.268v1.249v1.249v1.249v1.249
	h-0.268h-0.268h-0.268H51.177z"/>
<path id="path8423" style="fill:#003366;" d="M56.509,68.169l-0.268,0.059l-0.268,0.059l-0.268,0.059l-0.268,0.059
	c-0.017-0.134-0.046-0.249-0.087-0.347s-0.093-0.177-0.156-0.24c-0.063-0.063-0.136-0.109-0.219-0.139
	c-0.083-0.03-0.175-0.045-0.276-0.045c-0.067,0-0.13,0.006-0.189,0.019s-0.115,0.033-0.167,0.06
	c-0.052,0.027-0.102,0.062-0.148,0.104s-0.091,0.093-0.133,0.151c-0.042,0.059-0.078,0.126-0.107,0.202
	c-0.03,0.076-0.054,0.161-0.073,0.255c-0.019,0.094-0.033,0.198-0.042,0.312c-0.009,0.114-0.013,0.237-0.013,0.372
	c0,0.151,0.004,0.289,0.013,0.415c0.009,0.126,0.023,0.241,0.042,0.343c0.019,0.103,0.043,0.194,0.073,0.274
	s0.065,0.149,0.107,0.208c0.042,0.059,0.086,0.111,0.133,0.157c0.047,0.046,0.096,0.084,0.148,0.116
	c0.052,0.031,0.108,0.055,0.167,0.072c0.059,0.016,0.122,0.025,0.189,0.025c0.05,0,0.098-0.004,0.145-0.013
	c0.046-0.008,0.09-0.021,0.132-0.038c0.042-0.017,0.082-0.038,0.119-0.063c0.038-0.025,0.073-0.054,0.107-0.088
	c0.034-0.034,0.065-0.075,0.094-0.125c0.029-0.049,0.055-0.106,0.078-0.169c0.023-0.063,0.043-0.132,0.059-0.206
	c0.016-0.074,0.029-0.154,0.037-0.238l0.268,0.059l0.268,0.059l0.268,0.059l0.268,0.059c-0.059,0.302-0.14,0.566-0.246,0.792
	c-0.106,0.226-0.236,0.415-0.391,0.566c-0.155,0.151-0.335,0.264-0.542,0.34c-0.206,0.075-0.439,0.113-0.699,0.113
	c-0.168,0-0.325-0.017-0.471-0.05c-0.146-0.033-0.281-0.082-0.405-0.147c-0.124-0.065-0.236-0.146-0.336-0.241
	s-0.188-0.207-0.264-0.333c-0.084-0.126-0.155-0.258-0.215-0.397c-0.06-0.139-0.108-0.285-0.146-0.438
	c-0.038-0.153-0.065-0.313-0.083-0.481s-0.026-0.344-0.026-0.529c0-0.21,0.01-0.409,0.032-0.596
	c0.021-0.188,0.054-0.364,0.098-0.527c0.044-0.163,0.1-0.314,0.167-0.452s0.147-0.261,0.239-0.37
	c0.092-0.109,0.191-0.205,0.296-0.289c0.105-0.083,0.217-0.154,0.337-0.21c0.119-0.057,0.246-0.1,0.381-0.128
	c0.135-0.029,0.277-0.043,0.428-0.043c0.117,0,0.231,0.008,0.339,0.025c0.108,0.016,0.212,0.04,0.311,0.072
	c0.099,0.032,0.192,0.07,0.279,0.116s0.169,0.098,0.244,0.157c0.075,0.067,0.145,0.143,0.208,0.226
	c0.063,0.084,0.121,0.176,0.173,0.277c0.053,0.101,0.1,0.21,0.142,0.327C56.437,67.909,56.475,68.035,56.509,68.169L56.509,68.169
	L56.509,68.169L56.509,68.169L56.509,68.169z"/>
<path id="path8425" style="fill:#003366;" d="M57.716,68.236l-0.243-0.05l-0.243-0.05l-0.243-0.05l-0.243-0.05
	c0.034-0.126,0.069-0.243,0.108-0.352s0.082-0.208,0.13-0.298c0.048-0.09,0.102-0.171,0.162-0.242s0.127-0.131,0.203-0.182
	c0.067-0.059,0.143-0.109,0.226-0.151s0.175-0.077,0.273-0.104c0.098-0.027,0.204-0.047,0.317-0.06
	c0.113-0.013,0.232-0.019,0.358-0.019c0.117,0,0.226,0.004,0.327,0.013c0.101,0.008,0.194,0.021,0.28,0.038
	c0.086,0.017,0.165,0.038,0.236,0.063c0.072,0.025,0.137,0.054,0.195,0.088c0.059,0.034,0.113,0.069,0.163,0.107
	c0.05,0.038,0.096,0.079,0.138,0.123c0.042,0.044,0.08,0.091,0.113,0.142c0.034,0.051,0.063,0.105,0.088,0.164
	c0.025,0.059,0.048,0.126,0.069,0.203s0.038,0.164,0.053,0.262c0.015,0.098,0.026,0.208,0.034,0.332
	c0.008,0.123,0.012,0.259,0.012,0.41v0.386v0.386v0.386v0.386c0,0.109,0.002,0.212,0.006,0.308c0.004,0.096,0.009,0.185,0.015,0.267
	c0.006,0.082,0.014,0.156,0.021,0.223c0.008,0.067,0.016,0.125,0.025,0.175c0.008,0.05,0.019,0.103,0.031,0.157
	c0.013,0.054,0.027,0.11,0.044,0.166c0.017,0.056,0.036,0.114,0.057,0.172c0.021,0.058,0.044,0.117,0.069,0.175h-0.268h-0.268
	h-0.268h-0.268l-0.034-0.134l-0.034-0.134l-0.034-0.134l-0.034-0.134c-0.05,0.059-0.098,0.111-0.146,0.159s-0.095,0.091-0.143,0.131
	c-0.048,0.04-0.097,0.077-0.149,0.112c-0.052,0.035-0.106,0.069-0.165,0.102c-0.05,0.025-0.103,0.048-0.157,0.069
	c-0.054,0.02-0.11,0.038-0.166,0.053c-0.057,0.015-0.114,0.026-0.172,0.034c-0.058,0.008-0.117,0.012-0.175,0.012
	c-0.101,0-0.197-0.008-0.289-0.025c-0.092-0.017-0.179-0.042-0.26-0.075c-0.082-0.034-0.158-0.075-0.229-0.126
	c-0.071-0.05-0.136-0.109-0.194-0.176c-0.067-0.067-0.124-0.14-0.171-0.22s-0.085-0.164-0.114-0.254
	c-0.029-0.09-0.05-0.186-0.064-0.286c-0.014-0.1-0.02-0.205-0.02-0.314c0-0.067,0.004-0.134,0.012-0.2
	c0.008-0.066,0.019-0.131,0.034-0.194c0.015-0.063,0.032-0.124,0.053-0.181s0.044-0.112,0.069-0.162
	c0.025-0.05,0.052-0.098,0.082-0.145s0.062-0.09,0.098-0.132c0.036-0.042,0.074-0.082,0.117-0.119
	c0.042-0.038,0.089-0.073,0.139-0.107c0.05-0.034,0.107-0.065,0.17-0.095c0.063-0.03,0.132-0.058,0.207-0.085
	s0.157-0.053,0.245-0.079c0.088-0.026,0.182-0.051,0.283-0.076c0.126-0.025,0.241-0.052,0.346-0.081
	c0.105-0.028,0.201-0.058,0.286-0.087s0.162-0.059,0.23-0.087c0.068-0.028,0.126-0.056,0.177-0.081c0-0.067-0.002-0.13-0.006-0.188
	s-0.009-0.11-0.015-0.156c-0.006-0.046-0.013-0.086-0.021-0.118c-0.008-0.032-0.016-0.058-0.025-0.074
	c-0.008-0.025-0.019-0.048-0.031-0.069s-0.027-0.04-0.044-0.057c-0.017-0.017-0.036-0.031-0.057-0.044s-0.044-0.023-0.069-0.031
	c-0.025-0.017-0.052-0.031-0.082-0.044s-0.062-0.023-0.098-0.031c-0.036-0.008-0.075-0.015-0.117-0.019
	c-0.042-0.004-0.089-0.006-0.139-0.006s-0.096,0.002-0.139,0.007c-0.043,0.005-0.083,0.012-0.12,0.022
	c-0.038,0.011-0.073,0.024-0.108,0.042s-0.068,0.038-0.102,0.063c-0.042,0.008-0.08,0.023-0.114,0.045
	c-0.034,0.021-0.065,0.05-0.092,0.085c-0.027,0.036-0.051,0.079-0.073,0.129C57.751,68.111,57.733,68.169,57.716,68.236
	L57.716,68.236L57.716,68.236L57.716,68.236L57.716,68.236z M59.158,69.309c-0.034,0.017-0.073,0.034-0.118,0.05
	c-0.045,0.017-0.095,0.034-0.15,0.05c-0.054,0.017-0.113,0.034-0.175,0.05c-0.062,0.017-0.127,0.034-0.194,0.05
	c-0.084,0.025-0.161,0.05-0.232,0.075c-0.071,0.025-0.135,0.05-0.191,0.075c-0.057,0.025-0.106,0.05-0.147,0.075
	s-0.075,0.05-0.1,0.075c-0.025,0.025-0.048,0.052-0.069,0.082c-0.02,0.029-0.038,0.061-0.053,0.094s-0.026,0.069-0.034,0.107
	c-0.008,0.038-0.012,0.078-0.012,0.119c0,0.05,0.004,0.099,0.012,0.144c0.008,0.046,0.019,0.088,0.034,0.128
	c0.015,0.04,0.032,0.077,0.053,0.11c0.02,0.033,0.044,0.062,0.069,0.087c0.025,0.034,0.054,0.063,0.087,0.088
	c0.032,0.025,0.068,0.046,0.106,0.063c0.038,0.017,0.078,0.029,0.118,0.038c0.041,0.008,0.083,0.013,0.125,0.013
	c0.042,0,0.082-0.004,0.121-0.012c0.039-0.008,0.076-0.019,0.114-0.034c0.038-0.015,0.075-0.032,0.114-0.053
	s0.079-0.044,0.121-0.069c0.034-0.025,0.067-0.052,0.099-0.081c0.032-0.029,0.062-0.059,0.089-0.09
	c0.027-0.032,0.051-0.064,0.071-0.097c0.019-0.033,0.034-0.067,0.042-0.1c0.017-0.034,0.031-0.075,0.044-0.125
	c0.013-0.05,0.023-0.107,0.031-0.172c0.008-0.065,0.015-0.137,0.019-0.216c0.004-0.079,0.006-0.165,0.006-0.257V69.51v-0.067v-0.067
	L59.158,69.309L59.158,69.309L59.158,69.309L59.158,69.309L59.158,69.309z"/>
<path id="path8427" style="fill:#003366;" d="M60.868,71.69v-1.718v-1.718v-1.718v-1.718h0.268h0.268h0.268h0.268v1.718v1.718v1.718
	v1.718h-0.268h-0.268h-0.268H60.868z"/>
<path id="path8429" style="fill:#003366;" d="M45.376,78.765l0.277,0.109l0.277,0.109l0.277,0.109l0.277,0.109
	c-0.042,0.193-0.092,0.373-0.15,0.54c-0.058,0.167-0.124,0.321-0.198,0.462c-0.073,0.14-0.154,0.267-0.242,0.38
	c-0.087,0.113-0.182,0.211-0.282,0.295c-0.101,0.092-0.207,0.172-0.32,0.239c-0.113,0.068-0.231,0.123-0.355,0.167
	c-0.124,0.044-0.253,0.076-0.386,0.098s-0.272,0.032-0.414,0.032c-0.184,0-0.36-0.017-0.528-0.051
	c-0.167-0.034-0.325-0.085-0.474-0.154c-0.149-0.069-0.288-0.156-0.418-0.261c-0.129-0.105-0.249-0.229-0.358-0.372
	c-0.134-0.168-0.251-0.348-0.352-0.541s-0.184-0.4-0.251-0.62s-0.117-0.454-0.151-0.702c-0.034-0.248-0.05-0.51-0.05-0.786
	c0-0.293,0.017-0.57,0.05-0.83s0.084-0.504,0.151-0.733c0.067-0.229,0.151-0.441,0.251-0.639s0.218-0.38,0.352-0.548
	c0.117-0.143,0.243-0.268,0.378-0.377c0.135-0.108,0.278-0.2,0.431-0.273c0.153-0.073,0.316-0.129,0.488-0.166
	c0.172-0.037,0.355-0.056,0.548-0.056c0.159,0,0.312,0.013,0.458,0.038c0.146,0.026,0.285,0.064,0.417,0.117
	c0.132,0.052,0.257,0.118,0.374,0.199c0.117,0.08,0.226,0.174,0.326,0.283c0.075,0.075,0.147,0.161,0.213,0.257
	c0.067,0.096,0.128,0.202,0.185,0.317c0.056,0.115,0.108,0.24,0.153,0.374c0.046,0.134,0.085,0.276,0.119,0.427l-0.285,0.084
	l-0.285,0.084l-0.285,0.084l-0.285,0.084c-0.017-0.092-0.038-0.18-0.063-0.263c-0.026-0.083-0.056-0.16-0.092-0.232
	c-0.036-0.071-0.076-0.136-0.123-0.194s-0.099-0.108-0.158-0.15c-0.05-0.05-0.105-0.094-0.163-0.132
	c-0.058-0.038-0.12-0.069-0.185-0.094c-0.065-0.025-0.133-0.044-0.204-0.057s-0.144-0.019-0.22-0.019
	c-0.101,0-0.199,0.01-0.294,0.032c-0.095,0.022-0.186,0.054-0.272,0.098c-0.086,0.044-0.166,0.099-0.24,0.167
	s-0.141,0.147-0.2,0.239c-0.067,0.092-0.126,0.199-0.176,0.321s-0.092,0.258-0.126,0.409s-0.059,0.316-0.075,0.497
	c-0.017,0.18-0.025,0.375-0.025,0.585c0,0.218,0.008,0.419,0.025,0.604c0.016,0.185,0.04,0.354,0.072,0.506
	c0.032,0.153,0.07,0.29,0.116,0.412c0.046,0.122,0.098,0.229,0.157,0.321c0.067,0.092,0.138,0.172,0.214,0.239
	c0.075,0.068,0.155,0.123,0.239,0.167c0.084,0.044,0.172,0.076,0.264,0.098s0.189,0.032,0.289,0.032c0.075,0,0.149-0.006,0.22-0.019
	c0.071-0.013,0.139-0.033,0.204-0.06c0.065-0.027,0.127-0.062,0.185-0.104s0.113-0.093,0.163-0.152
	c0.067-0.059,0.128-0.128,0.183-0.206c0.055-0.079,0.104-0.167,0.148-0.263c0.044-0.096,0.083-0.201,0.117-0.313
	S45.351,78.891,45.376,78.765z"/>
<path id="path8431" style="fill:#003366;" d="M47.824,77.826l-0.243-0.05l-0.243-0.05l-0.243-0.05l-0.243-0.05
	c0.034-0.126,0.069-0.243,0.108-0.352s0.082-0.208,0.131-0.298c0.048-0.09,0.102-0.171,0.162-0.242
	c0.06-0.071,0.127-0.131,0.203-0.182c0.067-0.059,0.143-0.109,0.226-0.151s0.175-0.077,0.273-0.104s0.204-0.047,0.317-0.06
	c0.113-0.013,0.232-0.02,0.358-0.02c0.117,0,0.226,0.004,0.327,0.013s0.194,0.021,0.28,0.038c0.086,0.017,0.164,0.038,0.236,0.063
	c0.072,0.025,0.137,0.054,0.196,0.088c0.059,0.034,0.113,0.069,0.163,0.107s0.096,0.079,0.138,0.123s0.08,0.091,0.113,0.142
	c0.034,0.051,0.063,0.105,0.088,0.164c0.025,0.059,0.048,0.126,0.069,0.203c0.02,0.077,0.038,0.164,0.053,0.262
	c0.015,0.099,0.026,0.209,0.034,0.332c0.008,0.123,0.012,0.259,0.012,0.41v0.386v0.386v0.386v0.386c0,0.109,0.002,0.212,0.006,0.308
	c0.004,0.096,0.009,0.185,0.015,0.267c0.006,0.082,0.014,0.156,0.022,0.223c0.008,0.067,0.016,0.125,0.025,0.175
	c0.008,0.05,0.019,0.103,0.031,0.157c0.013,0.054,0.027,0.109,0.044,0.166c0.017,0.057,0.036,0.114,0.057,0.173
	s0.044,0.117,0.069,0.176h-0.268h-0.268h-0.268h-0.268l-0.034-0.134l-0.034-0.134l-0.034-0.134L49.4,80.811
	c-0.05,0.059-0.098,0.111-0.146,0.159s-0.095,0.091-0.143,0.131s-0.097,0.077-0.149,0.112c-0.052,0.035-0.106,0.069-0.165,0.102
	c-0.05,0.025-0.103,0.048-0.157,0.069s-0.109,0.038-0.166,0.053c-0.057,0.015-0.114,0.026-0.173,0.034s-0.117,0.012-0.176,0.012
	c-0.101,0-0.197-0.008-0.289-0.025c-0.092-0.017-0.179-0.042-0.26-0.075s-0.158-0.075-0.229-0.126
	c-0.071-0.05-0.136-0.109-0.194-0.176c-0.067-0.067-0.124-0.14-0.171-0.219s-0.085-0.164-0.114-0.254
	c-0.029-0.09-0.05-0.186-0.064-0.286s-0.02-0.205-0.02-0.314c0-0.067,0.004-0.134,0.012-0.2s0.019-0.131,0.034-0.194
	c0.015-0.063,0.032-0.124,0.053-0.181s0.043-0.112,0.069-0.162c0.025-0.05,0.052-0.098,0.082-0.145
	c0.03-0.046,0.062-0.09,0.098-0.132s0.074-0.082,0.117-0.119c0.042-0.038,0.088-0.073,0.139-0.107
	c0.05-0.034,0.107-0.065,0.17-0.095c0.063-0.03,0.132-0.058,0.207-0.085c0.075-0.027,0.157-0.054,0.245-0.079
	c0.088-0.026,0.182-0.051,0.283-0.076c0.126-0.025,0.241-0.052,0.346-0.081c0.105-0.028,0.201-0.058,0.286-0.087
	c0.086-0.029,0.163-0.059,0.23-0.087s0.126-0.056,0.177-0.081c0-0.067-0.002-0.13-0.006-0.188s-0.009-0.11-0.015-0.156
	c-0.006-0.046-0.014-0.086-0.021-0.118c-0.008-0.032-0.016-0.058-0.024-0.074c-0.008-0.025-0.019-0.048-0.031-0.069
	c-0.013-0.021-0.027-0.04-0.044-0.057c-0.017-0.017-0.036-0.031-0.057-0.044c-0.021-0.013-0.044-0.023-0.069-0.031
	c-0.025-0.017-0.052-0.031-0.082-0.044c-0.03-0.013-0.062-0.023-0.098-0.031c-0.036-0.008-0.075-0.015-0.117-0.019
	c-0.042-0.004-0.089-0.006-0.139-0.006s-0.096,0.002-0.139,0.007s-0.083,0.012-0.121,0.023c-0.038,0.01-0.073,0.024-0.108,0.041
	c-0.035,0.017-0.068,0.038-0.102,0.063c-0.042,0.008-0.08,0.025-0.114,0.049c-0.034,0.024-0.065,0.056-0.092,0.093
	c-0.027,0.038-0.051,0.082-0.073,0.131C47.86,77.713,47.841,77.768,47.824,77.826L47.824,77.826L47.824,77.826L47.824,77.826
	L47.824,77.826z M49.266,78.899c-0.034,0.017-0.073,0.034-0.118,0.05c-0.045,0.017-0.095,0.034-0.15,0.05
	c-0.054,0.017-0.113,0.034-0.175,0.05c-0.062,0.017-0.127,0.034-0.194,0.05c-0.084,0.025-0.161,0.05-0.232,0.075
	c-0.071,0.025-0.135,0.05-0.191,0.075s-0.106,0.05-0.147,0.075s-0.075,0.05-0.1,0.075c-0.025,0.025-0.048,0.052-0.069,0.082
	s-0.038,0.061-0.053,0.094c-0.015,0.034-0.026,0.069-0.034,0.107c-0.008,0.038-0.012,0.078-0.012,0.119
	c0,0.05,0.004,0.099,0.012,0.144c0.008,0.046,0.019,0.088,0.034,0.128c0.015,0.04,0.033,0.077,0.053,0.11
	c0.02,0.033,0.044,0.062,0.069,0.087c0.025,0.034,0.054,0.063,0.087,0.088c0.032,0.025,0.068,0.046,0.106,0.063
	c0.038,0.017,0.078,0.029,0.118,0.038c0.041,0.008,0.083,0.013,0.125,0.013c0.042,0,0.082-0.004,0.121-0.012
	c0.039-0.008,0.076-0.019,0.114-0.034c0.038-0.015,0.075-0.033,0.114-0.053s0.079-0.044,0.121-0.069
	c0.034-0.025,0.067-0.052,0.099-0.081s0.062-0.059,0.089-0.09s0.051-0.064,0.071-0.097c0.019-0.033,0.034-0.067,0.042-0.1
	c0.017-0.034,0.031-0.075,0.044-0.125c0.013-0.05,0.023-0.107,0.031-0.172c0.008-0.065,0.015-0.137,0.019-0.217
	c0.004-0.079,0.006-0.165,0.006-0.257V79.1v-0.067v-0.067L49.266,78.899L49.266,78.899L49.266,78.899L49.266,78.899L49.266,78.899z"
	/>
<path id="path8433" style="fill:#003366;" d="M52.016,81.313h-0.268h-0.268h-0.268h-0.268v-1.249v-1.249v-1.249v-1.249h0.251h0.251
	h0.251h0.251v0.176v0.176v0.176v0.176c0.042-0.084,0.084-0.159,0.125-0.227s0.082-0.129,0.122-0.183
	c0.04-0.054,0.079-0.103,0.116-0.146s0.073-0.081,0.106-0.114c0.034-0.025,0.069-0.048,0.106-0.069s0.076-0.038,0.116-0.053
	c0.04-0.015,0.081-0.026,0.122-0.034c0.041-0.008,0.083-0.012,0.125-0.012c0.059,0,0.117,0.004,0.176,0.013s0.117,0.023,0.176,0.042
	c0.059,0.019,0.117,0.043,0.176,0.073c0.059,0.03,0.117,0.065,0.176,0.107l-0.084,0.285l-0.084,0.285l-0.084,0.285l-0.084,0.285
	c-0.042-0.034-0.084-0.063-0.126-0.088c-0.042-0.025-0.084-0.046-0.126-0.063c-0.042-0.017-0.084-0.029-0.126-0.038
	c-0.042-0.008-0.084-0.013-0.126-0.013c-0.034,0-0.067,0.004-0.101,0.012c-0.034,0.008-0.067,0.019-0.101,0.034
	c-0.034,0.015-0.067,0.033-0.101,0.053s-0.067,0.044-0.101,0.069c-0.025,0.025-0.05,0.057-0.074,0.094
	c-0.024,0.038-0.047,0.082-0.068,0.132c-0.021,0.05-0.04,0.107-0.056,0.17c-0.016,0.063-0.028,0.132-0.037,0.207
	s-0.017,0.166-0.025,0.27c-0.008,0.105-0.015,0.224-0.022,0.358c-0.006,0.134-0.011,0.283-0.015,0.446
	c-0.004,0.163-0.006,0.342-0.006,0.534v0.394v0.394v0.394v0.394h-0.008h-0.008h-0.008H52.016z"/>
<path id="path8435" style="fill:#003366;" d="M55.972,79.704l0.268,0.059l0.268,0.059l0.268,0.059l0.268,0.059
	c-0.034,0.126-0.073,0.243-0.119,0.352c-0.046,0.109-0.097,0.21-0.153,0.302c-0.057,0.092-0.119,0.176-0.185,0.251
	c-0.067,0.075-0.138,0.143-0.213,0.201c-0.075,0.059-0.155,0.111-0.239,0.157s-0.172,0.084-0.264,0.116
	c-0.092,0.032-0.189,0.056-0.289,0.072c-0.101,0.016-0.205,0.024-0.314,0.024c-0.151,0-0.293-0.013-0.428-0.038
	c-0.134-0.025-0.26-0.063-0.377-0.113c-0.117-0.05-0.226-0.113-0.327-0.189c-0.101-0.075-0.193-0.163-0.277-0.264
	c-0.101-0.117-0.187-0.247-0.259-0.389c-0.072-0.142-0.131-0.296-0.177-0.461c-0.046-0.166-0.08-0.343-0.102-0.531
	s-0.032-0.387-0.032-0.597c0-0.21,0.013-0.409,0.038-0.597c0.025-0.189,0.063-0.367,0.113-0.534c0.05-0.168,0.113-0.325,0.189-0.472
	c0.075-0.147,0.163-0.283,0.264-0.409c0.084-0.109,0.174-0.203,0.27-0.283c0.096-0.08,0.198-0.146,0.305-0.199
	c0.107-0.052,0.219-0.091,0.336-0.117c0.117-0.026,0.238-0.038,0.364-0.038c0.143,0,0.279,0.013,0.408,0.038
	c0.129,0.026,0.252,0.065,0.367,0.117c0.115,0.052,0.223,0.118,0.323,0.199c0.1,0.08,0.192,0.174,0.276,0.283
	c0.092,0.126,0.174,0.266,0.245,0.421c0.071,0.155,0.13,0.323,0.179,0.505c0.048,0.182,0.085,0.378,0.11,0.587
	c0.025,0.209,0.037,0.431,0.037,0.666v0.034v0.034V79.1v0.034h-0.679h-0.679h-0.679h-0.679c0,0.101,0.006,0.195,0.018,0.283
	c0.012,0.088,0.03,0.17,0.053,0.245c0.023,0.075,0.051,0.145,0.084,0.207c0.033,0.063,0.071,0.119,0.113,0.17
	c0.042,0.05,0.086,0.096,0.132,0.137c0.046,0.041,0.094,0.076,0.145,0.106s0.103,0.052,0.157,0.068s0.111,0.024,0.17,0.024
	c0.092,0.017,0.176,0.015,0.251-0.006c0.075-0.02,0.143-0.059,0.201-0.116c0.059-0.057,0.109-0.131,0.151-0.223
	C55.914,79.939,55.947,79.83,55.972,79.704L55.972,79.704L55.972,79.704L55.972,79.704L55.972,79.704z M56.039,78.396
	c0-0.101-0.006-0.193-0.018-0.278c-0.012-0.085-0.028-0.162-0.049-0.234s-0.046-0.136-0.074-0.196
	c-0.028-0.06-0.06-0.114-0.093-0.165c-0.042-0.05-0.084-0.094-0.127-0.132c-0.043-0.038-0.087-0.069-0.133-0.094
	c-0.046-0.025-0.094-0.044-0.146-0.057s-0.106-0.019-0.165-0.019c-0.059,0-0.115,0.006-0.169,0.019
	c-0.054,0.013-0.105,0.031-0.153,0.057c-0.048,0.025-0.093,0.057-0.135,0.094c-0.041,0.038-0.079,0.082-0.113,0.132
	c-0.042,0.05-0.078,0.107-0.107,0.169c-0.03,0.062-0.054,0.131-0.073,0.204s-0.032,0.152-0.041,0.235
	c-0.009,0.083-0.013,0.171-0.013,0.263h0.402h0.402h0.402H56.039L56.039,78.396L56.039,78.396L56.039,78.396L56.039,78.396z"/>
</svg>
