<?xml version="1.0" encoding="iso-8859-1"?>
<!-- Generator: Adobe Illustrator 25.4.1, SVG Export Plug-In . SVG Version: 6.00 Build 0)  -->
<svg version="1.1"
	 id="svg8" xmlns:cc="http://creativecommons.org/ns#" xmlns:dc="http://purl.org/dc/elements/1.1/" xmlns:inkscape="http://www.inkscape.org/namespaces/inkscape" xmlns:rdf="http://www.w3.org/1999/02/22-rdf-syntax-ns#" xmlns:sodipodi="http://sodipodi.sourceforge.net/DTD/sodipodi-0.dtd" xmlns:svg="http://www.w3.org/2000/svg"
	 xmlns="http://www.w3.org/2000/svg" xmlns:xlink="http://www.w3.org/1999/xlink" x="0px" y="0px" viewBox="0 0 100 100"
	 style="enable-background:new 0 0 100 100;" xml:space="preserve">
<sodipodi:namedview  bordercolor="#666666" borderopacity="1.0" id="base" inkscape:current-layer="g8617" inkscape:cx="-302.11164" inkscape:cy="84.283015" inkscape:document-units="px" inkscape:guide-bbox="true" inkscape:lockguides="true" inkscape:pageopacity="0.0" inkscape:pageshadow="2" inkscape:window-height="657" inkscape:window-maximized="1" inkscape:window-width="1280" inkscape:window-x="-8" inkscape:window-y="-8" inkscape:zoom="0.765625" pagecolor="#ffffff" showgrid="false" showguides="false" units="px">
	<sodipodi:guide  id="guide5700" inkscape:locked="true" orientation="0,1" position="-0.93017576,23.874511"></sodipodi:guide>
	<sodipodi:guide  id="guide5726" inkscape:locked="true" orientation="0,1" position="-26.098869,26.473047"></sodipodi:guide>
	<sodipodi:guide  id="guide5880" inkscape:locked="true" orientation="0,1" position="104.51042,-2.9104167"></sodipodi:guide>
	<sodipodi:guide  id="guide6001" inkscape:locked="true" orientation="0,1" position="-71.093695,29.279377"></sodipodi:guide>
	<sodipodi:guide  id="guide6005" inkscape:locked="true" orientation="0,1" position="-46.304445,58.278122"></sodipodi:guide>
	<sodipodi:guide  id="guide6736" inkscape:locked="true" orientation="0,1" position="-0.10335287,20.205485"></sodipodi:guide>
	<sodipodi:guide  id="guide6738" inkscape:locked="true" orientation="0,1" position="-0.43848907,22.874513"></sodipodi:guide>
	<inkscape:grid  id="grid2386" type="xygrid"></inkscape:grid>
</sodipodi:namedview>
<g id="g1180" transform="translate(0,-229.2666)" inkscape:groupmode="layer" inkscape:label="halo:always" style="display:none;">
	<g id="g1210" inkscape:groupmode="layer" inkscape:label="-gray-halo:iter3" style="display:inline;">
		<g id="circle1208">
			<path style="fill:#919395;" d="M50,329.3c-27.6,0-50-22.4-50-50s22.4-50,50-50s50,22.4,50,50S77.6,329.3,50,329.3z M50,237.9
				c-22.8,0-41.4,18.6-41.4,41.4s18.6,41.4,41.4,41.4s41.4-18.6,41.4-41.4S72.8,237.9,50,237.9z"/>
		</g>
	</g>
	<g id="g1206" inkscape:groupmode="layer" inkscape:label="-red-halo:iter3" style="display:inline;">
		<g id="circle1204">
			<path style="fill:#C52038;" d="M50,329.3c-27.6,0-50-22.4-50-50s22.4-50,50-50s50,22.4,50,50S77.6,329.3,50,329.3z M50,237.9
				c-22.8,0-41.4,18.6-41.4,41.4s18.6,41.4,41.4,41.4s41.4-18.6,41.4-41.4S72.8,237.9,50,237.9z"/>
		</g>
	</g>
	<g id="g1202" inkscape:groupmode="layer" inkscape:label="-green-halo:iter3" style="display:inline;">
		<g id="circle1200">
			<path style="fill:#5E9C42;" d="M50,329.3c-27.6,0-50-22.4-50-50s22.4-50,50-50s50,22.4,50,50S77.6,329.3,50,329.3z M50,237.9
				c-22.8,0-41.4,18.6-41.4,41.4s18.6,41.4,41.4,41.4s41.4-18.6,41.4-41.4S72.8,237.9,50,237.9z"/>
		</g>
	</g>
	<g id="layer18" inkscape:groupmode="layer" inkscape:label="-yellow-halo:iter3" style="display:inline;">
		<g id="circle1178-4">
			<path style="fill:#FBBA16;" d="M50,329.3c-27.6,0-50-22.4-50-50s22.4-50,50-50s50,22.4,50,50S77.6,329.3,50,329.3z M50,237.9
				c-22.8,0-41.4,18.6-41.4,41.4s18.6,41.4,41.4,41.4s41.4-18.6,41.4-41.4S72.8,237.9,50,237.9z"/>
		</g>
	</g>
</g>
<path id="path8569" inkscape:connector-curvature="0" style="fill:#003366;" d="M50.091,18.236c-1.31,0-2.587,0.131-3.821,0.379
	s-2.424,0.613-3.561,1.081c-1.136,0.468-2.219,1.038-3.238,1.698c-1.019,0.66-1.973,1.408-2.852,2.231
	c-0.075,0.037-0.14,0.089-0.196,0.15c-0.056,0.061-0.103,0.131-0.14,0.206c-0.037,0.075-0.065,0.154-0.084,0.234
	s-0.028,0.159-0.028,0.234c0,0.131,0.028,0.257,0.078,0.373c0.05,0.116,0.123,0.221,0.211,0.31c0.089,0.089,0.194,0.161,0.31,0.211
	s0.242,0.078,0.373,0.078c0.075,0,0.15-0.009,0.223-0.027c0.074-0.017,0.146-0.043,0.217-0.076s0.138-0.072,0.202-0.118
	s0.125-0.097,0.181-0.154l0,0l0,0l0,0l0,0c0.823-0.786,1.712-1.483,2.652-2.086s1.932-1.113,2.961-1.525
	c1.029-0.412,2.096-0.725,3.186-0.936c1.09-0.21,2.203-0.318,3.326-0.318c1.141,0,2.269,0.112,3.369,0.33
	c1.1,0.218,2.174,0.54,3.208,0.961c1.034,0.421,2.028,0.94,2.969,1.551s1.83,1.312,2.653,2.098l0.449-0.262l0.449-0.262l0.449-0.262
	l0.449-0.262c-0.898-0.898-1.88-1.712-2.934-2.428c-1.054-0.716-2.179-1.333-3.362-1.838c-1.183-0.505-2.425-0.898-3.713-1.165
	S51.457,18.236,50.091,18.236L50.091,18.236L50.091,18.236L50.091,18.236L50.091,18.236z"/>
<path id="path8571" inkscape:connector-curvature="0" style="fill:#003366;" d="M30.707,34.777c-0.037,0.243-0.07,0.491-0.098,0.741
	s-0.051,0.503-0.07,0.755c-0.019,0.253-0.033,0.505-0.042,0.755c-0.009,0.25-0.014,0.498-0.014,0.741
	c0,2.096,0.332,4.116,0.946,6.012c0.614,1.896,1.51,3.666,2.637,5.262c1.127,1.595,2.486,3.014,4.026,4.208
	c1.54,1.194,3.261,2.162,5.114,2.855c0,0,0.005,0,0.012,0.001c0.007,0.001,0.016,0.003,0.026,0.008
	c0.009,0.005,0.019,0.012,0.026,0.023c0.007,0.011,0.012,0.025,0.012,0.043l0,0l0,0l0,0l0,0l0,0l0,0l0,0l0,0l0,0l0,0l0,0l0,0
	c0.019,0,0.037,0.005,0.057,0.012c0.02,0.007,0.041,0.016,0.064,0.026c0.024,0.009,0.049,0.019,0.079,0.026s0.062,0.012,0.099,0.012
	c0.131,0,0.257-0.028,0.373-0.078c0.116-0.05,0.221-0.123,0.31-0.212c0.089-0.089,0.161-0.194,0.211-0.31
	c0.05-0.116,0.078-0.242,0.078-0.373c0-0.094-0.014-0.187-0.041-0.277c-0.027-0.09-0.067-0.176-0.118-0.256
	c-0.051-0.08-0.114-0.152-0.188-0.214s-0.158-0.113-0.251-0.151h0.019h0.019h0.019h0.019l0,0l0,0l0,0l0,0
	c-1.74-0.636-3.335-1.525-4.75-2.616s-2.65-2.385-3.67-3.83c-1.02-1.446-1.824-3.043-2.379-4.742
	c-0.554-1.699-0.858-3.5-0.877-5.352c0-0.168,0.005-0.332,0.013-0.493c0.008-0.161,0.02-0.32,0.034-0.479
	c0.014-0.159,0.031-0.318,0.048-0.479c0.018-0.161,0.036-0.325,0.055-0.493l-0.449-0.281l-0.449-0.281l-0.449-0.28L30.707,34.777z"
	/>
<path id="path8573" inkscape:connector-curvature="0" style="fill:#003366;" d="M68.503,34.777c-0.131,0-0.257,0.028-0.373,0.078
	c-0.116,0.05-0.221,0.123-0.31,0.212c-0.089,0.089-0.162,0.194-0.212,0.31s-0.078,0.242-0.078,0.373l0,0l0,0l0,0l0,0
	c0,0.019,0,0.037,0,0.056c0,0.019,0,0.037,0,0.056s0,0.037,0,0.056s0,0.037,0,0.056l0,0l0,0l0,0l0,0v-0.019v-0.019v-0.019v-0.019
	c0.019,0.168,0.037,0.332,0.055,0.493c0.018,0.161,0.034,0.32,0.048,0.479c0.014,0.159,0.025,0.318,0.034,0.479
	c0.008,0.161,0.013,0.325,0.013,0.493c0,1.852-0.29,3.653-0.835,5.352S65.5,46.494,64.48,47.94c-1.02,1.446-2.259,2.739-3.684,3.83
	c-1.424,1.091-3.033,1.98-4.792,2.616v0.075v0.075v0.075v0.075l0.206,0.374l0.206,0.374l0.206,0.374l0.206,0.374
	c1.871-0.692,3.606-1.661,5.157-2.855s2.917-2.614,4.049-4.209c1.132-1.595,2.03-3.366,2.645-5.262
	c0.615-1.896,0.947-3.916,0.947-6.012c0-0.168-0.005-0.341-0.013-0.517s-0.02-0.353-0.034-0.531
	c-0.014-0.178-0.031-0.356-0.048-0.531c-0.018-0.175-0.036-0.348-0.055-0.517V35.73v-0.019v-0.018v-0.018
	c-0.019-0.15-0.056-0.281-0.11-0.393c-0.054-0.112-0.124-0.206-0.208-0.281s-0.182-0.131-0.292-0.168S68.634,34.777,68.503,34.777
	L68.503,34.777L68.503,34.777L68.503,34.777L68.503,34.777z"/>
<path id="path8575" inkscape:connector-curvature="0" sodipodi:nodetypes="ccccccccc" style="fill:#003366;" d="M32.129,32.232
	c-0.187,0.262-0.379,0.524-0.572,0.785c-0.193,0.261-0.387,0.521-0.579,0.778c-0.192,0.257-0.382,0.512-0.565,0.763
	c-0.184,0.251-0.361,0.499-0.53,0.743l0,0l0,0l0,0l0,0l-0.505,0.692l-0.505,0.692l-0.505,0.692l-0.505,0.692
	c-0.206,0.262-0.257,0.533-0.207,0.775c0.05,0.242,0.202,0.455,0.404,0.6c0.201,0.145,0.451,0.222,0.698,0.193
	s0.49-0.165,0.677-0.446l0.561-0.767l0.561-0.767l0.561-0.767l0.561-0.767l0.393,0.861l0.393,0.861l0.393,0.861l0.393,0.861
	c0.131,0.318,0.346,0.505,0.586,0.587s0.504,0.058,0.733-0.044c0.229-0.103,0.424-0.285,0.523-0.522
	c0.099-0.236,0.104-0.526-0.046-0.844c-0.262-0.58-0.51-1.137-0.751-1.681c-0.241-0.544-0.475-1.075-0.709-1.604
	c-0.234-0.529-0.468-1.055-0.709-1.589C32.639,33.336,32.391,32.793,32.129,32.232L32.129,32.232L32.129,32.232L32.129,32.232
	L32.129,32.232z"/>
<path id="path8577" inkscape:connector-curvature="0" sodipodi:nodetypes="ccccccccc" style="fill:#003366;" d="M66.108,26.544
	c-0.131-0.299-0.262-0.599-0.393-0.897c-0.131-0.298-0.262-0.595-0.393-0.89c-0.131-0.295-0.262-0.587-0.393-0.876
	c-0.131-0.289-0.262-0.574-0.393-0.855l0,0l0,0l0,0l0,0l-0.337-0.767l-0.337-0.767l-0.337-0.767l-0.337-0.767
	c-0.131-0.318-0.346-0.505-0.586-0.588c-0.24-0.083-0.504-0.062-0.734,0.036c-0.229,0.098-0.423,0.274-0.522,0.5
	c-0.099,0.226-0.104,0.502,0.046,0.801l0.393,0.861l0.393,0.861l0.393,0.861l0.393,0.861l-0.936-0.094l-0.936-0.094l-0.936-0.094
	l-0.936-0.094c-0.337-0.037-0.603,0.061-0.793,0.23c-0.189,0.17-0.302,0.411-0.33,0.659c-0.028,0.248,0.028,0.503,0.175,0.701
	c0.147,0.198,0.386,0.338,0.723,0.357c0.636,0.075,1.244,0.145,1.837,0.213c0.593,0.068,1.171,0.133,1.746,0.199
	c0.575,0.065,1.148,0.13,1.732,0.198C64.896,26.399,65.49,26.469,66.108,26.544L66.108,26.544L66.108,26.544L66.108,26.544
	L66.108,26.544z"/>
<path id="path8579" inkscape:connector-curvature="0" sodipodi:nodetypes="ccccccccc" style="fill:#003366;" d="M53.085,56.78
	c0.318,0.037,0.641,0.075,0.965,0.111c0.324,0.036,0.649,0.071,0.972,0.104c0.323,0.033,0.643,0.063,0.957,0.09
	c0.315,0.027,0.623,0.05,0.923,0.069l0,0l0,0l0,0l0,0l0.842,0.094l0.842,0.094l0.842,0.094l0.842,0.094
	c0.337,0.037,0.603-0.061,0.793-0.23c0.189-0.17,0.302-0.411,0.33-0.659c0.028-0.248-0.028-0.503-0.175-0.701
	s-0.386-0.338-0.723-0.357l-0.936-0.094l-0.936-0.094l-0.936-0.094l-0.936-0.094l0.561-0.767l0.561-0.767l0.561-0.767l0.561-0.767
	c0.206-0.262,0.257-0.533,0.207-0.775c-0.05-0.242-0.202-0.455-0.404-0.6c-0.201-0.145-0.451-0.222-0.698-0.193
	c-0.247,0.03-0.49,0.166-0.677,0.446c-0.412,0.524-0.795,1.02-1.162,1.5c-0.367,0.481-0.718,0.946-1.064,1.409
	c-0.346,0.463-0.688,0.924-1.036,1.395C53.815,55.793,53.459,56.275,53.085,56.78L53.085,56.78L53.085,56.78L53.085,56.78
	L53.085,56.78z"/>
<path id="path8583" inkscape:connector-curvature="0" style="fill:#003366;" d="M64.234,40.7c0.232-0.275,0.396-0.586,0.492-0.914
	c0.096-0.327,0.126-0.671,0.089-1.009c-0.037-0.338-0.14-0.671-0.308-0.977c-0.168-0.306-0.4-0.586-0.696-0.818
	c-0.275-0.232-0.586-0.396-0.914-0.492c-0.327-0.096-0.671-0.126-1.009-0.089c-0.338,0.037-0.671,0.14-0.977,0.308
	c-0.306,0.168-0.586,0.4-0.818,0.696l0,0l0,0l0,0l0,0l-0.591,0.718l-0.591,0.718l-0.591,0.718l-0.591,0.718l-0.591,0.718
	l-0.591,0.718l-0.591,0.718l-0.591,0.718c-0.232,0.275-0.396,0.586-0.492,0.914c-0.096,0.327-0.126,0.671-0.089,1.009
	c0.037,0.338,0.14,0.671,0.308,0.977c0.168,0.306,0.4,0.586,0.696,0.818c0.275,0.232,0.586,0.396,0.914,0.492
	c0.327,0.096,0.671,0.126,1.009,0.089c0.338-0.037,0.671-0.14,0.977-0.308c0.306-0.168,0.586-0.4,0.818-0.696l0,0l0,0l0,0l0,0
	l0.591-0.718l0.591-0.718l0.591-0.718l0.591-0.718l0.591-0.718l0.591-0.718l0.591-0.718L64.234,40.7z"/>
<path id="path8585" inkscape:connector-curvature="0" style="fill:#FFFFFF;" d="M58.489,40.869l0.591-0.718l0.591-0.718l0.591-0.718
	l0.591-0.718c0.148-0.19,0.327-0.338,0.524-0.444c0.197-0.106,0.41-0.169,0.627-0.19c0.217-0.021,0.436,0,0.643,0.063
	c0.207,0.063,0.403,0.169,0.572,0.317c0.19,0.148,0.338,0.327,0.444,0.524c0.106,0.197,0.169,0.41,0.19,0.627s0,0.436-0.063,0.643
	c-0.063,0.207-0.169,0.403-0.317,0.572l-0.591,0.718l-0.591,0.718L61.7,42.263l-0.591,0.718l-0.655-0.528l-0.655-0.528l-0.655-0.528
	L58.489,40.869z"/>
<path id="path8587" inkscape:connector-curvature="0" style="fill:#FFFFFF;" d="M57.56,28.449c0,0-0.005,0-0.012,0s-0.015,0-0.02,0
	c-0.005,0-0.008,0-0.004,0S57.539,28.449,57.56,28.449c-0.021,0-0.037,0-0.049,0c-0.012,0-0.02,0-0.025,0c-0.005,0-0.008,0-0.009,0
	s-0.001,0-0.001,0c-0.021,0-0.037,0-0.05,0c-0.013,0-0.024,0-0.034,0c-0.011,0-0.021,0-0.034,0c-0.013,0-0.029,0-0.05,0
	c-0.021,0-0.042,0-0.063,0s-0.042,0-0.063,0s-0.042,0-0.063,0s-0.042,0-0.063,0c-0.021,0-0.037,0-0.05,0c-0.013,0-0.024,0-0.034,0
	c-0.011,0-0.021,0-0.034,0c-0.013,0-0.029,0-0.05,0s-0.042,0-0.063,0.001s-0.042,0.004-0.063,0.01
	c-0.021,0.005-0.042,0.013-0.063,0.025c-0.021,0.012-0.042,0.028-0.063,0.049c-0.021,0-0.037,0-0.05,0c-0.013,0-0.024,0-0.034,0
	c-0.011,0-0.021,0-0.034,0c-0.013,0-0.029,0-0.05,0s-0.042,0.005-0.063,0.013c-0.021,0.008-0.042,0.018-0.063,0.029
	s-0.042,0.021-0.063,0.029c-0.021,0.008-0.042,0.013-0.063,0.013h-0.021h-0.021h-0.021h-0.021c-0.021,0-0.042,0.005-0.063,0.013
	s-0.042,0.018-0.063,0.029c-0.021,0.011-0.042,0.021-0.063,0.029s-0.042,0.013-0.063,0.013h-0.021h-0.021h-0.021h-0.021
	c-0.021,0-0.042,0.005-0.063,0.014c-0.021,0.009-0.042,0.022-0.063,0.038c-0.021,0.016-0.042,0.035-0.063,0.054
	c-0.021,0.02-0.042,0.041-0.063,0.062c0,0,0,0-0.001,0c-0.001,0-0.004,0-0.01,0s-0.013,0-0.025,0s-0.027,0-0.048,0
	c-0.021,0.021-0.042,0.037-0.063,0.05s-0.042,0.024-0.063,0.034c-0.021,0.011-0.042,0.021-0.063,0.034s-0.042,0.029-0.063,0.05l0,0
	l0,0l0,0l0,0l0,0l0,0l0,0l0,0c-0.063,0.042-0.121,0.084-0.177,0.128c-0.055,0.044-0.108,0.088-0.161,0.136
	c-0.053,0.047-0.106,0.097-0.161,0.152c-0.055,0.054-0.114,0.112-0.177,0.176c-0.021,0.021-0.037,0.042-0.05,0.062
	c-0.013,0.02-0.024,0.038-0.034,0.054c-0.011,0.016-0.021,0.029-0.034,0.038s-0.029,0.014-0.05,0.014l0,0l0,0l0,0l0,0l-0.021,0.021
	l-0.021,0.021l-0.021,0.021l-0.021,0.021c-0.021,0.021-0.037,0.042-0.05,0.063c-0.013,0.021-0.024,0.042-0.034,0.063
	c-0.011,0.021-0.021,0.042-0.034,0.063c-0.013,0.021-0.029,0.042-0.05,0.063c0,0,0,0,0,0.001c0,0.001,0,0.004,0,0.01
	c0,0.005,0,0.013,0,0.025c0,0.012,0,0.028,0,0.049c-0.021,0.021-0.037,0.042-0.049,0.063c-0.012,0.021-0.02,0.042-0.025,0.063
	c-0.005,0.021-0.008,0.042-0.009,0.063c-0.001,0.021-0.001,0.042-0.001,0.063v0.021v0.021v0.021v0.021
	c0,0.021-0.005,0.042-0.013,0.063c-0.008,0.021-0.018,0.042-0.029,0.063c-0.011,0.021-0.021,0.042-0.029,0.063
	c-0.008,0.021-0.013,0.042-0.013,0.063c0,0.021,0,0.037-0.001,0.05s-0.004,0.024-0.01,0.034c-0.005,0.011-0.013,0.021-0.025,0.034
	c-0.012,0.013-0.027,0.029-0.048,0.05c0,0.021,0,0.037-0.001,0.05s-0.004,0.024-0.01,0.034c-0.005,0.011-0.013,0.021-0.025,0.034
	c-0.012,0.013-0.027,0.029-0.048,0.05c0,0.021,0,0.042-0.001,0.062c-0.001,0.02-0.004,0.038-0.01,0.054
	c-0.005,0.016-0.013,0.029-0.025,0.038c-0.012,0.009-0.028,0.014-0.049,0.014v0.021v0.021v0.021v0.021c0,0.021,0,0.042,0,0.063
	s0,0.042,0,0.063s0,0.042,0,0.063s0,0.042,0,0.063l0,0l0,0l0,0l0,0l0,0l0,0l0,0l0,0c0,0.106,0,0.206,0.001,0.302
	s0.004,0.189,0.009,0.279c0.005,0.09,0.014,0.177,0.025,0.262c0.012,0.086,0.028,0.17,0.049,0.255l0,0l0,0l0,0l0,0v0.021V32.8v0.021
	v0.021c0,0.042,0.005,0.079,0.014,0.114c0.009,0.034,0.022,0.066,0.038,0.098c0.016,0.032,0.035,0.063,0.054,0.098
	c0.02,0.034,0.041,0.071,0.062,0.114c0.021,0.021,0.037,0.048,0.05,0.077s0.024,0.061,0.034,0.092
	c0.011,0.032,0.021,0.063,0.034,0.092c0.013,0.029,0.029,0.055,0.05,0.077l0,0l0,0l0,0l0,0c0.021,0.021,0.037,0.042,0.05,0.063
	c0.013,0.021,0.024,0.042,0.034,0.063s0.021,0.042,0.034,0.063c0.013,0.021,0.029,0.042,0.05,0.063l0,0l0,0l0,0l0,0
	c0.021,0.021,0.037,0.042,0.05,0.063c0.013,0.021,0.024,0.042,0.034,0.063c0.011,0.021,0.021,0.042,0.034,0.063
	c0.013,0.021,0.029,0.042,0.05,0.063c0,0,0,0,0,0.001s0,0.004,0,0.01c0,0.005,0,0.013,0,0.025s0,0.028,0,0.049
	c0.021,0.021,0.042,0.042,0.062,0.063s0.038,0.042,0.054,0.063c0.016,0.021,0.029,0.042,0.039,0.063
	c0.009,0.021,0.015,0.042,0.015,0.063c0,0,0,0,0.001,0.001c0.001,0.001,0.004,0.004,0.009,0.01c0.005,0.005,0.014,0.013,0.025,0.025
	c0.012,0.012,0.028,0.028,0.049,0.049c0.021,0.021,0.042,0.042,0.062,0.062s0.038,0.038,0.054,0.054
	c0.016,0.016,0.029,0.029,0.039,0.038c0.009,0.009,0.015,0.014,0.015,0.014s0.005,0,0.013,0.001c0.008,0.001,0.018,0.004,0.029,0.01
	c0.011,0.005,0.021,0.013,0.029,0.025c0.008,0.012,0.013,0.028,0.013,0.049c0.021,0.021,0.042,0.037,0.062,0.05
	s0.038,0.024,0.054,0.034c0.016,0.011,0.029,0.021,0.039,0.034c0.009,0.013,0.015,0.029,0.015,0.05l0.021,0.021l0.021,0.021
	l0.021,0.021l0.021,0.021c0.021,0,0.042,0.005,0.062,0.013c0.02,0.008,0.038,0.018,0.054,0.029c0.016,0.011,0.029,0.021,0.039,0.029
	c0.009,0.008,0.015,0.013,0.015,0.013l0.021,0.021l0.021,0.021l0.021,0.021l0.021,0.021c0.021,0,0.037,0.005,0.05,0.013
	c0.013,0.008,0.024,0.018,0.034,0.029c0.011,0.011,0.021,0.021,0.034,0.029c0.013,0.008,0.029,0.013,0.05,0.013
	s0.037,0.005,0.05,0.013c0.013,0.008,0.024,0.018,0.034,0.029c0.011,0.011,0.021,0.021,0.034,0.029
	c0.013,0.008,0.029,0.013,0.05,0.013s0.037,0,0.05,0.001s0.024,0.004,0.034,0.01c0.011,0.005,0.021,0.013,0.034,0.025
	c0.013,0.012,0.029,0.028,0.05,0.049c0.021,0,0.037,0,0.05,0.001c0.013,0.001,0.024,0.004,0.034,0.01
	c0.011,0.005,0.021,0.013,0.034,0.025c0.013,0.012,0.029,0.028,0.05,0.049c0.021,0,0.037,0,0.05,0c0.013,0,0.024,0,0.034,0
	c0.011,0,0.021,0,0.034,0c0.013,0,0.029,0,0.05,0s0.042,0,0.062,0.001s0.038,0.004,0.054,0.01c0.016,0.005,0.029,0.013,0.039,0.025
	c0.009,0.012,0.015,0.028,0.015,0.049c0.021,0,0.037,0,0.05,0c0.013,0,0.024,0,0.034,0c0.011,0,0.021,0,0.034,0
	c0.013,0,0.029,0,0.05,0s0.042,0,0.063,0s0.042,0,0.063,0s0.042,0,0.063,0s0.042,0,0.063,0h0.021h0.021h0.021h0.021
	c0.021,0,0.042,0,0.063,0s0.042,0,0.063,0c0.021,0,0.042,0,0.063,0s0.042,0,0.063,0h0.021h0.021h0.021h0.021
	c0.021,0,0.042,0,0.063,0s0.042,0,0.063,0s0.042,0,0.063,0s0.042,0,0.063,0h0.021h0.021h0.021h0.021c0.021,0,0.042,0,0.065-0.001
	s0.046-0.004,0.072-0.01c0.026-0.005,0.055-0.013,0.089-0.025s0.07-0.027,0.113-0.048c0,0,0,0,0.001,0s0.004,0,0.009,0
	c0.005,0,0.014,0,0.025,0c0.012,0,0.028,0,0.049,0s0.042-0.005,0.065-0.013c0.022-0.008,0.046-0.018,0.072-0.029
	c0.027-0.011,0.056-0.021,0.089-0.029c0.033-0.008,0.07-0.013,0.112-0.013l0,0l0,0l0,0l0,0c0.021,0,0.048-0.005,0.077-0.014
	c0.029-0.009,0.061-0.022,0.092-0.038s0.063-0.034,0.092-0.054c0.029-0.02,0.055-0.041,0.077-0.062l0,0l0,0l0,0l0,0
	c0.021-0.021,0.048-0.037,0.077-0.05c0.029-0.013,0.061-0.024,0.092-0.034c0.032-0.011,0.063-0.021,0.092-0.034
	c0.029-0.013,0.055-0.029,0.077-0.05c0.021-0.021,0.042-0.042,0.065-0.062c0.022-0.02,0.046-0.038,0.072-0.054
	c0.027-0.016,0.056-0.029,0.089-0.038c0.033-0.009,0.07-0.014,0.112-0.014c0.084-0.063,0.164-0.127,0.238-0.191
	c0.074-0.065,0.143-0.131,0.206-0.2c0.063-0.068,0.121-0.14,0.174-0.215c0.053-0.075,0.1-0.154,0.143-0.239l0,0l0,0l0,0l0,0
	c0,0,0,0,0-0.001s0-0.004,0-0.01c0-0.005,0-0.013,0-0.025s0-0.027,0-0.048c0.021-0.021,0.037-0.042,0.05-0.063
	c0.013-0.021,0.024-0.042,0.034-0.063c0.011-0.021,0.021-0.042,0.034-0.063c0.013-0.021,0.029-0.042,0.05-0.063
	c0,0,0-0.005,0.001-0.013c0.001-0.008,0.004-0.018,0.009-0.029c0.005-0.011,0.013-0.021,0.025-0.029
	c0.012-0.008,0.028-0.013,0.049-0.013c0-0.021,0.005-0.042,0.013-0.062c0.008-0.02,0.018-0.038,0.029-0.054
	c0.011-0.016,0.021-0.029,0.029-0.038c0.008-0.009,0.013-0.014,0.013-0.014c0-0.021,0.005-0.037,0.013-0.05
	c0.008-0.013,0.018-0.024,0.029-0.034c0.011-0.011,0.021-0.021,0.029-0.034c0.008-0.013,0.013-0.029,0.013-0.05
	s0.005-0.037,0.013-0.05c0.008-0.013,0.018-0.024,0.029-0.034c0.011-0.011,0.021-0.021,0.029-0.034
	c0.008-0.013,0.013-0.029,0.013-0.05s0-0.037,0.001-0.05c0.001-0.013,0.004-0.024,0.009-0.034c0.005-0.011,0.013-0.021,0.025-0.034
	c0.012-0.013,0.028-0.029,0.049-0.05c0-0.021,0-0.037,0.001-0.05s0.004-0.024,0.009-0.034c0.005-0.011,0.013-0.021,0.025-0.034
	s0.028-0.029,0.049-0.05c0-0.021,0-0.042,0.001-0.063c0.001-0.021,0.004-0.042,0.009-0.063c0.005-0.021,0.013-0.042,0.025-0.063
	c0.012-0.021,0.028-0.042,0.049-0.063v-0.021v-0.021v-0.021v-0.021c0-0.021,0-0.042,0-0.063s0-0.042,0-0.063
	c0-0.021,0-0.042,0-0.063s0-0.042,0-0.063c0,0,0,0,0-0.001s0-0.004,0-0.01c0-0.005,0-0.013,0-0.025s0-0.027,0-0.048l0,0l0,0l0,0l0,0
	c0-0.106,0-0.206-0.001-0.302s-0.004-0.189-0.01-0.279c-0.005-0.09-0.013-0.177-0.025-0.262c-0.012-0.086-0.028-0.17-0.049-0.255
	l0,0l0,0l0,0l0,0c0-0.021-0.005-0.048-0.013-0.077c-0.008-0.029-0.018-0.061-0.029-0.092s-0.021-0.063-0.029-0.092
	c-0.008-0.029-0.013-0.055-0.013-0.077c0-0.021-0.005-0.048-0.014-0.077c-0.009-0.029-0.022-0.061-0.038-0.092
	c-0.016-0.032-0.034-0.063-0.054-0.092s-0.041-0.055-0.062-0.077l0,0l0,0l0,0l0,0l0,0l0,0l0,0l0,0
	c-0.021-0.021-0.037-0.042-0.05-0.065c-0.013-0.022-0.024-0.046-0.034-0.073c-0.011-0.026-0.021-0.055-0.034-0.088
	c-0.013-0.033-0.029-0.07-0.05-0.112l0,0l0,0l0,0l0,0c-0.021-0.021-0.037-0.042-0.05-0.063c-0.013-0.021-0.024-0.042-0.034-0.063
	c-0.011-0.021-0.021-0.042-0.034-0.063c-0.013-0.021-0.029-0.042-0.05-0.063l0,0l0,0l0,0l0,0c-0.021-0.021-0.037-0.042-0.05-0.063
	c-0.013-0.021-0.024-0.042-0.034-0.063c-0.011-0.021-0.021-0.042-0.034-0.063c-0.013-0.021-0.029-0.042-0.05-0.063
	c0,0,0,0-0.001-0.001s-0.004-0.004-0.01-0.01c-0.005-0.005-0.014-0.013-0.025-0.025c-0.012-0.012-0.028-0.028-0.049-0.049
	c-0.021-0.021-0.042-0.042-0.062-0.062c-0.02-0.02-0.038-0.038-0.054-0.054c-0.016-0.016-0.029-0.029-0.038-0.038
	c-0.009-0.009-0.014-0.014-0.014-0.014l-0.021-0.021l-0.021-0.021l-0.021-0.021l-0.021-0.021c-0.021-0.021-0.042-0.037-0.062-0.05
	c-0.02-0.013-0.038-0.024-0.054-0.034c-0.016-0.011-0.029-0.021-0.038-0.034c-0.009-0.013-0.014-0.029-0.014-0.05l-0.021-0.021
	l-0.021-0.021l-0.021-0.021l-0.021-0.021c-0.021-0.021-0.042-0.037-0.062-0.05c-0.02-0.013-0.038-0.024-0.054-0.034
	c-0.016-0.011-0.029-0.021-0.038-0.034s-0.014-0.029-0.014-0.05l-0.021-0.021l-0.021-0.021l-0.021-0.021l-0.021-0.021
	c-0.021,0-0.037-0.005-0.05-0.013c-0.013-0.008-0.024-0.018-0.034-0.029c-0.011-0.011-0.021-0.021-0.034-0.029
	c-0.013-0.008-0.029-0.013-0.05-0.013c-0.021,0-0.037-0.005-0.05-0.013c-0.013-0.008-0.024-0.018-0.034-0.029
	c-0.011-0.011-0.021-0.021-0.034-0.029c-0.013-0.008-0.029-0.013-0.05-0.013s-0.037-0.005-0.05-0.013
	c-0.013-0.008-0.024-0.018-0.034-0.029c-0.011-0.011-0.021-0.021-0.034-0.029c-0.013-0.008-0.029-0.013-0.05-0.013
	s-0.037-0.005-0.05-0.013c-0.013-0.008-0.024-0.018-0.034-0.029c-0.011-0.011-0.021-0.021-0.034-0.029
	c-0.013-0.008-0.029-0.013-0.05-0.013c-0.021,0-0.037,0-0.05-0.001c-0.013-0.001-0.024-0.004-0.034-0.01
	c-0.011-0.005-0.021-0.013-0.034-0.025c-0.013-0.012-0.029-0.027-0.05-0.048c-0.021,0-0.042,0-0.062-0.001
	c-0.02-0.001-0.038-0.004-0.054-0.01c-0.016-0.005-0.029-0.013-0.038-0.025c-0.009-0.012-0.014-0.028-0.014-0.049
	c-0.021,0-0.037,0-0.05,0s-0.024,0-0.034,0c-0.011,0-0.021,0-0.034,0s-0.029,0-0.05,0s-0.042,0-0.063,0s-0.042,0-0.063,0
	c-0.021,0-0.042,0-0.063,0c-0.021,0-0.042,0-0.063,0h-0.021h-0.021H57.75h-0.021c0,0.063-0.005,0.111-0.015,0.147
	s-0.023,0.06-0.039,0.076c-0.016,0.016-0.034,0.023-0.054,0.027C57.602,28.449,57.581,28.449,57.56,28.449L57.56,28.449
	L57.56,28.449L57.56,28.449L57.56,28.449z"/>
<path id="path8589" inkscape:connector-curvature="0" inkscape:export-filename="C:\Users\Charlotte Abel\Documents\Symbology\Components\health-and-medical-icon_medical-supply-chain-5.png" inkscape:export-xdpi="300.00458" inkscape:export-ydpi="300.00458" style="fill:#003366;" d="
	M57.475,28.449c0.507,0,0.993,0.106,1.436,0.296s0.845,0.465,1.183,0.803c0.338,0.338,0.613,0.739,0.803,1.183
	s0.296,0.929,0.296,1.436c0,0.19-0.016,0.38-0.046,0.569c-0.03,0.189-0.075,0.376-0.134,0.561c-0.058,0.185-0.129,0.367-0.212,0.546
	c-0.083,0.178-0.178,0.353-0.284,0.522l-1.288-1.288l-1.288-1.288l-1.288-1.288l-1.288-1.288c0.148-0.127,0.306-0.238,0.473-0.333
	s0.341-0.174,0.52-0.238c0.18-0.063,0.364-0.111,0.552-0.143S57.285,28.449,57.475,28.449z M54.518,29.97l1.288,1.288l1.288,1.288
	l1.288,1.288l1.288,1.288c-0.401,0.296-0.85,0.496-1.316,0.606c-0.466,0.11-0.949,0.128-1.42,0.059
	c-0.47-0.068-0.926-0.224-1.34-0.463c-0.413-0.239-0.783-0.561-1.078-0.962c-0.253-0.338-0.444-0.697-0.57-1.067
	c-0.127-0.37-0.19-0.75-0.19-1.13s0.063-0.76,0.19-1.13S54.265,30.308,54.518,29.97z"/>
<path id="path8591" inkscape:connector-curvature="0" style="fill:#003366;" d="M43.957,26.591c-0.148,0-0.29,0.032-0.421,0.088
	s-0.25,0.138-0.35,0.239c-0.1,0.101-0.182,0.219-0.239,0.35c-0.057,0.131-0.088,0.273-0.088,0.421v0.127v0.127v0.127v0.127h-0.465
	h-0.465h-0.465H41c-0.275,0-0.539,0.058-0.78,0.162c-0.242,0.104-0.461,0.255-0.646,0.439s-0.335,0.404-0.44,0.646
	s-0.162,0.506-0.162,0.781v0.422v0.422v0.422v0.422h3.295h3.295h3.295h3.295v-0.422v-0.422v-0.422v-0.422
	c0-0.275-0.058-0.539-0.162-0.78c-0.104-0.242-0.255-0.461-0.44-0.646s-0.404-0.335-0.645-0.44c-0.241-0.104-0.505-0.162-0.78-0.162
	H49.66h-0.465h-0.465h-0.465v-0.127v-0.127v-0.127v-0.127c0-0.148-0.032-0.29-0.089-0.421c-0.057-0.131-0.139-0.25-0.239-0.35
	c-0.1-0.1-0.219-0.182-0.349-0.239c-0.131-0.057-0.273-0.088-0.421-0.088c0,0-0.201,0-0.502,0s-0.702,0-1.104,0s-0.803,0-1.104,0
	S43.957,26.591,43.957,26.591z"/>
<path id="path8593" inkscape:connector-curvature="0" style="fill:#003366;" d="M38.888,32.589v3.316v3.316v3.316v3.316
	c0,0.275,0.058,0.539,0.162,0.78c0.104,0.242,0.255,0.461,0.439,0.646c0.185,0.185,0.404,0.335,0.646,0.44s0.506,0.162,0.781,0.162
	h0.465h0.465h0.465h0.465v0.148v0.148v0.148v0.148c0,0.148,0.032,0.29,0.088,0.421s0.138,0.25,0.239,0.35
	c0.101,0.1,0.219,0.182,0.35,0.239s0.273,0.088,0.421,0.088h0.127h0.127h0.127h0.127v0.232v0.232v0.232v0.232
	c0,0.084,0.016,0.164,0.045,0.235c0.029,0.071,0.071,0.135,0.124,0.187c0.053,0.053,0.116,0.095,0.187,0.124
	c0.071,0.029,0.15,0.045,0.235,0.045h0.211h0.211h0.211h0.211c0.084,0,0.164-0.016,0.235-0.045c0.071-0.029,0.135-0.071,0.187-0.124
	c0.053-0.053,0.095-0.116,0.124-0.187c0.029-0.071,0.045-0.15,0.045-0.235v-0.232v-0.232v-0.232v-0.232h0.127h0.127h0.127h0.127
	c0.148,0,0.29-0.032,0.421-0.089c0.131-0.057,0.249-0.139,0.349-0.239c0.1-0.101,0.182-0.219,0.239-0.35s0.089-0.273,0.089-0.421
	v-0.127v-0.127v-0.127v-0.127h0.465h0.465h0.465h0.465c0.275,0,0.539-0.058,0.78-0.162s0.461-0.255,0.646-0.44
	c0.185-0.185,0.335-0.404,0.44-0.645c0.104-0.241,0.162-0.505,0.162-0.78v-3.337v-3.337v-3.337v-3.337h-3.253h-3.253
	c0,0-1.626,0-3.253,0C40.514,32.589,38.888,32.589,38.888,32.589z"/>
<path id="path8595" inkscape:connector-curvature="0" style="fill:#FFFFFF;" d="M45.478,36.307c0.38,0.57,0.729,1.088,1.038,1.566
	c0.309,0.478,0.578,0.916,0.8,1.328c0.222,0.412,0.396,0.797,0.515,1.17c0.119,0.372,0.182,0.731,0.182,1.09
	c0,0.359-0.074,0.697-0.206,1.002c-0.132,0.305-0.322,0.577-0.554,0.804c-0.232,0.227-0.507,0.409-0.808,0.534
	c-0.301,0.125-0.628,0.194-0.966,0.194c-0.359,0-0.697-0.069-1.002-0.194c-0.305-0.125-0.577-0.307-0.804-0.534
	c-0.227-0.227-0.409-0.499-0.534-0.804s-0.194-0.643-0.194-1.002s0.063-0.718,0.182-1.09c0.119-0.372,0.293-0.758,0.515-1.17
	c0.222-0.412,0.491-0.85,0.8-1.328C44.749,37.394,45.098,36.877,45.478,36.307z"/>
<path id="path8598" inkscape:connector-curvature="0" style="fill:#003366;" d="M45.478,37.912
	c-0.084,0.106-0.185,0.238-0.288,0.384s-0.209,0.308-0.304,0.472c-0.095,0.163-0.18,0.33-0.24,0.487
	c-0.061,0.157-0.098,0.305-0.098,0.432c0,0.19,0.079,0.322,0.198,0.393c0.119,0.071,0.277,0.082,0.436,0.029
	c0.158-0.053,0.317-0.169,0.436-0.351c0.119-0.182,0.198-0.43,0.198-0.747c0-0.106-0.011-0.211-0.029-0.314
	s-0.045-0.203-0.077-0.298c-0.032-0.095-0.069-0.185-0.108-0.267S45.52,37.975,45.478,37.912z"/>
<polygon id="rect8600" style="fill:#FFFFFF;stroke:#FFFFFF;stroke-width:0.034;stroke-linecap:round;stroke-linejoin:round;stroke-miterlimit:9.1177;" points="
	38.888,31.998 42.183,31.998 45.478,31.998 48.773,31.998 52.068,31.998 52.068,32.146 52.068,32.293 52.068,32.441 52.068,32.589 
	48.773,32.589 45.478,32.589 42.183,32.589 38.888,32.589 38.888,32.441 38.888,32.293 38.888,32.146 "/>
<path id="path9120" style="fill:#003366;" d="M38.511,68.907v-1.593v-1.593v-1.593v-1.593h0.394h0.394h0.394h0.394l0.235,1.09
	l0.235,1.09l0.235,1.09l0.235,1.09l0.235-1.09l0.235-1.09l0.235-1.09l0.235-1.09h0.394h0.394h0.394h0.394v1.593v1.593v1.593v1.593
	h-0.243h-0.243h-0.243h-0.243v-1.249v-1.249V65.16v-1.249l-0.26,1.249l-0.26,1.249l-0.26,1.249l-0.26,1.249h-0.251h-0.251h-0.251
	h-0.251l-0.26-1.249l-0.26-1.249l-0.26-1.249l-0.26-1.249v1.249v1.249v1.249v1.249c0.008,0-0.048,0-0.138,0c-0.09,0-0.212,0-0.336,0
	c-0.124,0-0.248,0-0.342,0C38.574,68.907,38.511,68.907,38.511,68.907z"/>
<path id="path9122" style="fill:#003366;" d="M46.391,67.465l0.251,0.05l0.251,0.05l0.251,0.05l0.251,0.05
	c-0.034,0.117-0.071,0.226-0.114,0.327c-0.042,0.101-0.09,0.194-0.142,0.28s-0.11,0.164-0.173,0.236
	c-0.063,0.072-0.133,0.137-0.208,0.196c-0.067,0.059-0.14,0.109-0.219,0.151c-0.079,0.042-0.162,0.077-0.25,0.104
	c-0.088,0.027-0.18,0.047-0.276,0.06c-0.095,0.013-0.194,0.019-0.294,0.019c-0.143,0-0.277-0.013-0.402-0.037
	c-0.126-0.025-0.243-0.061-0.352-0.11c-0.109-0.048-0.21-0.108-0.302-0.179c-0.092-0.071-0.176-0.152-0.251-0.245
	c-0.092-0.109-0.172-0.228-0.239-0.358c-0.068-0.13-0.123-0.27-0.167-0.421c-0.044-0.151-0.076-0.312-0.098-0.484
	c-0.021-0.172-0.032-0.354-0.032-0.547s0.01-0.375,0.032-0.548c0.021-0.172,0.054-0.335,0.098-0.488
	c0.044-0.153,0.1-0.296,0.167-0.431c0.068-0.135,0.147-0.26,0.24-0.378c0.075-0.101,0.157-0.187,0.245-0.259
	s0.181-0.131,0.279-0.177c0.098-0.046,0.202-0.08,0.311-0.102c0.109-0.022,0.222-0.032,0.339-0.032c0.134,0,0.262,0.013,0.383,0.038
	c0.121,0.025,0.235,0.063,0.342,0.113c0.107,0.05,0.206,0.113,0.298,0.189c0.092,0.075,0.176,0.163,0.251,0.264
	c0.092,0.117,0.172,0.247,0.239,0.39s0.123,0.298,0.167,0.465s0.077,0.348,0.098,0.541c0.021,0.193,0.032,0.398,0.032,0.616v0.034
	v0.034v0.034v0.034h-0.629H46.14h-0.629h-0.629c0,0.092,0.006,0.178,0.018,0.258c0.012,0.08,0.028,0.155,0.049,0.224
	c0.021,0.069,0.046,0.133,0.074,0.192c0.028,0.059,0.06,0.114,0.093,0.164c0.042,0.05,0.084,0.094,0.127,0.132
	c0.043,0.038,0.087,0.069,0.133,0.094s0.094,0.044,0.146,0.057c0.051,0.013,0.106,0.019,0.165,0.019
	c0.101-0.008,0.189-0.027,0.266-0.058s0.143-0.072,0.199-0.127c0.056-0.054,0.104-0.122,0.143-0.202
	C46.334,67.668,46.366,67.574,46.391,67.465L46.391,67.465L46.391,67.465L46.391,67.465L46.391,67.465z M46.458,66.224
	c0-0.092-0.006-0.178-0.018-0.258c-0.012-0.08-0.028-0.153-0.049-0.22c-0.021-0.067-0.046-0.128-0.074-0.182
	c-0.028-0.054-0.06-0.103-0.093-0.145c-0.034-0.042-0.069-0.08-0.107-0.113s-0.078-0.061-0.119-0.084
	c-0.042-0.023-0.086-0.041-0.132-0.053c-0.046-0.012-0.094-0.018-0.145-0.018c-0.05,0-0.101,0.006-0.15,0.018
	s-0.097,0.03-0.144,0.053c-0.046,0.023-0.09,0.051-0.131,0.084c-0.041,0.033-0.079,0.071-0.112,0.113
	c-0.034,0.05-0.065,0.105-0.093,0.163s-0.052,0.122-0.071,0.189c-0.019,0.067-0.033,0.138-0.039,0.214s-0.007,0.155,0.002,0.239
	h0.369h0.369h0.369H46.458z"/>
<path id="path9124" style="fill:#003366;" d="M51.354,68.907h-0.235h-0.235H50.65h-0.235v-0.168v-0.168v-0.168v-0.168
	c-0.042,0.067-0.084,0.13-0.126,0.188s-0.085,0.112-0.129,0.16c-0.044,0.048-0.089,0.091-0.136,0.128s-0.095,0.069-0.145,0.094
	c-0.05,0.034-0.103,0.063-0.156,0.088s-0.108,0.046-0.162,0.063c-0.054,0.017-0.109,0.029-0.162,0.038
	c-0.053,0.008-0.106,0.013-0.156,0.013c-0.109,0-0.214-0.013-0.314-0.038s-0.197-0.064-0.289-0.117
	c-0.092-0.052-0.18-0.118-0.264-0.199s-0.163-0.175-0.239-0.284c-0.075-0.109-0.143-0.228-0.201-0.358
	c-0.058-0.13-0.107-0.27-0.147-0.421c-0.04-0.151-0.07-0.312-0.091-0.484c-0.02-0.172-0.031-0.354-0.031-0.547
	c0-0.193,0.01-0.375,0.031-0.546s0.051-0.332,0.091-0.48c0.04-0.149,0.089-0.286,0.147-0.411c0.058-0.125,0.125-0.238,0.201-0.339
	c0.075-0.101,0.155-0.189,0.239-0.264c0.084-0.075,0.173-0.138,0.268-0.189c0.094-0.05,0.194-0.088,0.299-0.113
	c0.105-0.025,0.216-0.038,0.334-0.038c0.05,0,0.101,0.004,0.151,0.012s0.101,0.019,0.151,0.034c0.05,0.015,0.101,0.033,0.151,0.053
	s0.101,0.044,0.151,0.069c0.05,0.025,0.098,0.054,0.145,0.088s0.09,0.07,0.132,0.11c0.042,0.04,0.082,0.083,0.119,0.128
	s0.073,0.094,0.107,0.144v-0.57v-0.57v-0.57v-0.57h0.251h0.251h0.251h0.251v1.593v1.593v1.593v1.593h-0.008H51.37h-0.008
	L51.354,68.907L51.354,68.907L51.354,68.907z M48.671,66.526c0,0.101,0.002,0.197,0.006,0.288c0.004,0.091,0.01,0.177,0.019,0.257
	c0.008,0.08,0.019,0.153,0.031,0.219c0.013,0.066,0.027,0.125,0.044,0.175c0.017,0.05,0.036,0.098,0.057,0.144
	c0.021,0.046,0.044,0.088,0.069,0.128s0.052,0.076,0.082,0.109c0.029,0.033,0.061,0.062,0.094,0.087
	c0.034,0.025,0.067,0.048,0.101,0.068c0.034,0.02,0.069,0.038,0.104,0.053c0.036,0.015,0.072,0.026,0.111,0.034
	c0.038,0.008,0.078,0.012,0.12,0.012c0.059,0,0.113-0.008,0.165-0.025c0.051-0.016,0.1-0.04,0.146-0.072
	c0.046-0.032,0.09-0.07,0.133-0.116c0.043-0.046,0.085-0.098,0.127-0.157c0.042-0.059,0.078-0.126,0.107-0.201
	c0.03-0.075,0.054-0.158,0.073-0.248c0.019-0.09,0.033-0.187,0.042-0.292c0.009-0.104,0.013-0.215,0.013-0.333
	c0-0.134-0.004-0.258-0.013-0.371c-0.009-0.114-0.023-0.217-0.042-0.312c-0.019-0.094-0.043-0.179-0.073-0.255
	c-0.03-0.076-0.065-0.143-0.107-0.202c-0.042-0.059-0.086-0.109-0.132-0.151s-0.094-0.077-0.145-0.104
	c-0.05-0.027-0.103-0.047-0.157-0.06c-0.054-0.013-0.111-0.019-0.17-0.019c-0.059,0-0.115,0.006-0.17,0.019
	c-0.054,0.013-0.107,0.033-0.157,0.06c-0.05,0.027-0.098,0.062-0.145,0.104c-0.046,0.042-0.09,0.093-0.132,0.151
	c-0.025,0.05-0.05,0.109-0.074,0.176s-0.046,0.143-0.064,0.226c-0.019,0.084-0.035,0.176-0.046,0.277S48.671,66.409,48.671,66.526
	L48.671,66.526L48.671,66.526L48.671,66.526L48.671,66.526z"/>
<path id="path9126" style="fill:#003366;" d="M51.957,63.676v-0.285v-0.285v-0.285v-0.285h0.251h0.251h0.251h0.251v0.285v0.285
	v0.285v0.285h-0.251H52.46h-0.251H51.957z M51.957,68.907V67.75v-1.157v-1.157V64.28h0.251h0.251h0.251h0.251v1.157v1.157v1.157
	v1.157h-0.251H52.46h-0.251H51.957z"/>
<path id="path9128" style="fill:#003366;" d="M56.886,65.654l-0.243,0.05l-0.243,0.05l-0.243,0.05l-0.243,0.05
	c-0.017-0.117-0.044-0.222-0.081-0.313c-0.037-0.091-0.084-0.169-0.141-0.232c-0.057-0.063-0.123-0.111-0.198-0.144
	c-0.075-0.032-0.159-0.049-0.251-0.049c-0.059,0-0.115,0.006-0.17,0.019s-0.107,0.031-0.157,0.057
	c-0.05,0.025-0.098,0.057-0.145,0.094c-0.046,0.038-0.09,0.082-0.132,0.132c-0.042,0.05-0.078,0.111-0.107,0.181
	c-0.03,0.07-0.054,0.15-0.073,0.238c-0.019,0.088-0.033,0.184-0.042,0.288c-0.009,0.104-0.013,0.215-0.013,0.332
	c0,0.134,0.004,0.26,0.013,0.377s0.023,0.225,0.042,0.323c0.019,0.099,0.043,0.188,0.073,0.267c0.03,0.079,0.065,0.148,0.107,0.207
	c0.034,0.059,0.071,0.109,0.113,0.151c0.042,0.042,0.088,0.077,0.138,0.104s0.105,0.047,0.163,0.06
	c0.059,0.013,0.122,0.02,0.189,0.02c0.05,0,0.096-0.004,0.139-0.013c0.043-0.008,0.083-0.021,0.121-0.038
	c0.038-0.017,0.073-0.038,0.108-0.063c0.035-0.025,0.068-0.054,0.102-0.088s0.063-0.073,0.089-0.119s0.049-0.097,0.07-0.153
	c0.021-0.057,0.04-0.119,0.058-0.185c0.018-0.067,0.035-0.138,0.051-0.213l0.243,0.05l0.243,0.05l0.243,0.05l0.243,0.05
	c-0.05,0.277-0.124,0.52-0.221,0.729c-0.097,0.209-0.217,0.384-0.362,0.524c-0.145,0.14-0.313,0.246-0.507,0.317
	c-0.193,0.071-0.411,0.106-0.654,0.106c-0.151,0-0.293-0.015-0.427-0.044c-0.134-0.029-0.258-0.073-0.373-0.132
	c-0.115-0.059-0.221-0.132-0.317-0.22c-0.096-0.088-0.182-0.191-0.258-0.308c-0.075-0.117-0.14-0.241-0.195-0.371
	c-0.055-0.13-0.1-0.266-0.136-0.409c-0.036-0.143-0.062-0.291-0.079-0.446c-0.017-0.155-0.026-0.316-0.026-0.484
	c0-0.201,0.01-0.388,0.031-0.561c0.021-0.173,0.052-0.334,0.094-0.483c0.042-0.149,0.094-0.286,0.157-0.413
	c0.063-0.127,0.136-0.245,0.22-0.354c0.084-0.101,0.174-0.191,0.271-0.269s0.201-0.146,0.312-0.2
	c0.111-0.054,0.23-0.096,0.356-0.125c0.126-0.028,0.26-0.043,0.403-0.043c0.109,0,0.214,0.006,0.314,0.019
	c0.1,0.013,0.195,0.033,0.285,0.06c0.09,0.027,0.175,0.062,0.254,0.104c0.079,0.042,0.152,0.093,0.22,0.151
	c0.059,0.084,0.115,0.17,0.169,0.259s0.105,0.183,0.154,0.281c0.048,0.099,0.093,0.203,0.135,0.313S56.853,65.529,56.886,65.654
	L56.886,65.654L56.886,65.654L56.886,65.654L56.886,65.654z"/>
<path id="path9130" style="fill:#003366;" d="M57.993,65.722l-0.226-0.05l-0.226-0.05l-0.226-0.05l-0.226-0.05
	c0.025-0.117,0.057-0.226,0.093-0.327s0.079-0.193,0.125-0.277c0.046-0.084,0.096-0.159,0.15-0.226
	c0.053-0.067,0.11-0.126,0.169-0.176c0.067-0.05,0.138-0.094,0.215-0.132c0.077-0.038,0.16-0.069,0.25-0.094
	c0.09-0.025,0.188-0.044,0.294-0.057c0.106-0.013,0.222-0.019,0.347-0.019c0.109,0,0.21,0.004,0.303,0.012s0.179,0.019,0.259,0.034
	c0.08,0.015,0.153,0.033,0.221,0.053c0.068,0.02,0.131,0.044,0.19,0.069c0.059,0.034,0.111,0.067,0.158,0.102
	c0.047,0.035,0.089,0.072,0.127,0.111s0.071,0.083,0.102,0.13c0.03,0.048,0.058,0.1,0.083,0.159c0.025,0.05,0.046,0.111,0.063,0.182
	c0.017,0.071,0.031,0.153,0.041,0.245c0.01,0.092,0.018,0.195,0.022,0.308s0.007,0.237,0.007,0.371v0.352v0.352v0.352v0.352
	c0,0.101,0,0.195,0.001,0.283s0.002,0.17,0.004,0.245c0.002,0.075,0.005,0.145,0.01,0.207c0.005,0.063,0.011,0.119,0.019,0.17
	c0.008,0.05,0.019,0.101,0.031,0.151c0.012,0.051,0.026,0.102,0.04,0.155c0.015,0.052,0.031,0.106,0.047,0.161
	c0.016,0.055,0.033,0.111,0.05,0.17h-0.251h-0.251h-0.251h-0.251l-0.034-0.126l-0.034-0.126l-0.034-0.126l-0.034-0.126
	c-0.042,0.05-0.086,0.098-0.131,0.144c-0.045,0.046-0.091,0.089-0.137,0.129c-0.046,0.04-0.092,0.076-0.137,0.109
	c-0.045,0.033-0.089,0.062-0.131,0.087c-0.05,0.025-0.101,0.048-0.151,0.069s-0.102,0.038-0.155,0.053
	c-0.052,0.015-0.106,0.026-0.161,0.034c-0.055,0.008-0.112,0.012-0.17,0.012c-0.092,0-0.18-0.008-0.264-0.025
	s-0.163-0.04-0.239-0.072c-0.075-0.032-0.147-0.07-0.214-0.116c-0.067-0.046-0.13-0.098-0.189-0.157
	c-0.059-0.059-0.109-0.124-0.151-0.195s-0.077-0.149-0.104-0.233c-0.027-0.084-0.047-0.174-0.06-0.27
	c-0.013-0.096-0.019-0.199-0.019-0.308c0-0.067,0.002-0.132,0.007-0.194c0.005-0.062,0.012-0.122,0.022-0.179
	c0.01-0.057,0.024-0.11,0.041-0.16c0.017-0.05,0.038-0.096,0.063-0.138c0.025-0.042,0.052-0.084,0.082-0.125
	c0.029-0.041,0.061-0.082,0.094-0.122c0.034-0.04,0.069-0.079,0.107-0.116c0.038-0.037,0.078-0.073,0.119-0.106
	c0.042-0.025,0.09-0.052,0.145-0.08c0.055-0.028,0.117-0.056,0.186-0.083c0.069-0.027,0.146-0.053,0.23-0.077
	c0.084-0.024,0.177-0.045,0.277-0.061c0.117-0.025,0.224-0.05,0.322-0.075c0.097-0.025,0.185-0.05,0.265-0.075
	c0.08-0.025,0.151-0.05,0.215-0.075c0.064-0.025,0.12-0.05,0.171-0.075c0-0.067-0.002-0.128-0.006-0.182s-0.009-0.103-0.015-0.145
	c-0.006-0.042-0.013-0.078-0.021-0.107c-0.008-0.029-0.016-0.052-0.025-0.069c-0.008-0.017-0.019-0.034-0.031-0.05
	c-0.013-0.017-0.027-0.034-0.044-0.05c-0.017-0.017-0.036-0.034-0.057-0.05c-0.021-0.017-0.044-0.034-0.069-0.05
	c-0.025-0.017-0.052-0.029-0.082-0.039s-0.061-0.016-0.094-0.02c-0.034-0.004-0.069-0.006-0.107-0.007s-0.078-0.001-0.119-0.001
	c-0.042,0-0.084,0.002-0.125,0.007c-0.041,0.005-0.081,0.012-0.118,0.022c-0.038,0.01-0.073,0.024-0.106,0.041
	s-0.062,0.038-0.087,0.063c-0.017,0.008-0.034,0.023-0.05,0.044s-0.034,0.048-0.05,0.082c-0.017,0.034-0.034,0.074-0.051,0.12
	C58.026,65.61,58.01,65.663,57.993,65.722L57.993,65.722L57.993,65.722L57.993,65.722L57.993,65.722z M59.334,66.694
	c-0.034,0.017-0.071,0.031-0.113,0.045c-0.042,0.014-0.088,0.026-0.138,0.039c-0.05,0.013-0.105,0.025-0.163,0.039
	c-0.059,0.014-0.122,0.028-0.189,0.045c-0.075,0.017-0.145,0.036-0.207,0.056c-0.063,0.02-0.119,0.042-0.17,0.065
	c-0.05,0.023-0.094,0.047-0.132,0.072c-0.038,0.025-0.069,0.05-0.094,0.075c-0.025,0.025-0.046,0.052-0.063,0.081
	s-0.031,0.059-0.041,0.09c-0.01,0.031-0.018,0.064-0.023,0.097c-0.005,0.033-0.007,0.067-0.007,0.1c0,0.042,0.004,0.084,0.012,0.125
	c0.008,0.041,0.019,0.081,0.034,0.118c0.015,0.038,0.032,0.073,0.053,0.106c0.02,0.032,0.044,0.062,0.069,0.087
	c0.025,0.034,0.052,0.061,0.082,0.083s0.061,0.039,0.094,0.051c0.034,0.013,0.069,0.021,0.107,0.026
	c0.038,0.005,0.078,0.007,0.119,0.007c0.034,0,0.067-0.002,0.101-0.007c0.034-0.005,0.069-0.012,0.104-0.023
	c0.036-0.01,0.072-0.024,0.111-0.041c0.038-0.017,0.078-0.038,0.12-0.063c0.034-0.025,0.065-0.05,0.094-0.076
	s0.057-0.052,0.082-0.079c0.025-0.027,0.048-0.056,0.069-0.085c0.021-0.03,0.04-0.061,0.057-0.095s0.029-0.073,0.039-0.12
	c0.009-0.047,0.016-0.1,0.02-0.161c0.004-0.061,0.006-0.129,0.007-0.205c0.001-0.076,0.001-0.16,0.001-0.252l-0.008-0.05
	l-0.008-0.05l-0.008-0.05L59.334,66.694L59.334,66.694L59.334,66.694L59.334,66.694L59.334,66.694z"/>
<path id="path9132" style="fill:#003366;" d="M60.91,68.907v-1.593v-1.593v-1.593v-1.593h0.251h0.251h0.251h0.251v1.593v1.593v1.593
	v1.593h-0.251h-0.251h-0.251H60.91z"/>
<path id="path9134" style="fill:#003366;" d="M29.324,75.747l0.26-0.034l0.26-0.034l0.26-0.034l0.26-0.034
	c0.025,0.201,0.069,0.377,0.131,0.528c0.062,0.151,0.141,0.277,0.238,0.377s0.21,0.176,0.338,0.226
	c0.129,0.05,0.273,0.075,0.433,0.075c0.075,0,0.149-0.004,0.219-0.013c0.07-0.009,0.137-0.022,0.2-0.041
	c0.063-0.019,0.122-0.043,0.175-0.073s0.102-0.066,0.144-0.107c0.042-0.042,0.08-0.086,0.113-0.133s0.061-0.096,0.084-0.148
	c0.023-0.052,0.041-0.108,0.053-0.167c0.012-0.059,0.018-0.122,0.018-0.189c0-0.034-0.002-0.067-0.006-0.1
	c-0.004-0.033-0.01-0.065-0.019-0.097c-0.008-0.032-0.019-0.062-0.031-0.091c-0.013-0.029-0.027-0.056-0.044-0.081
	c-0.017-0.025-0.036-0.048-0.057-0.07s-0.044-0.041-0.069-0.06c-0.025-0.019-0.052-0.037-0.082-0.054
	c-0.029-0.017-0.061-0.034-0.094-0.051c-0.034-0.017-0.078-0.036-0.133-0.057c-0.055-0.021-0.121-0.046-0.199-0.073
	c-0.077-0.027-0.166-0.058-0.268-0.092c-0.101-0.034-0.214-0.072-0.34-0.114c-0.109-0.034-0.212-0.067-0.308-0.101
	c-0.096-0.034-0.185-0.069-0.267-0.104c-0.082-0.036-0.156-0.072-0.223-0.111c-0.067-0.038-0.125-0.078-0.176-0.12
	c-0.05-0.042-0.098-0.086-0.145-0.133c-0.046-0.047-0.09-0.096-0.132-0.148s-0.082-0.108-0.119-0.167
	c-0.038-0.059-0.073-0.122-0.107-0.189c-0.034-0.067-0.061-0.134-0.083-0.202s-0.039-0.136-0.051-0.205
	c-0.013-0.069-0.021-0.139-0.026-0.211c-0.005-0.072-0.007-0.145-0.007-0.22c0-0.084,0.004-0.168,0.013-0.25
	s0.022-0.165,0.041-0.244c0.019-0.08,0.043-0.157,0.073-0.232c0.03-0.074,0.065-0.146,0.107-0.213s0.086-0.132,0.133-0.194
	s0.097-0.121,0.152-0.175s0.113-0.105,0.177-0.15c0.064-0.045,0.133-0.085,0.209-0.118c0.067-0.034,0.14-0.063,0.219-0.088
	s0.162-0.046,0.25-0.063c0.088-0.017,0.18-0.029,0.276-0.038c0.095-0.008,0.194-0.013,0.294-0.013c0.151,0,0.295,0.01,0.433,0.031
	s0.267,0.052,0.389,0.094c0.122,0.042,0.235,0.094,0.338,0.157c0.104,0.063,0.198,0.136,0.282,0.22
	c0.084,0.084,0.159,0.176,0.225,0.277c0.066,0.101,0.123,0.211,0.169,0.33s0.082,0.248,0.106,0.387
	c0.024,0.139,0.037,0.288,0.037,0.447l-0.26,0.017l-0.26,0.017l-0.26,0.017l-0.26,0.017c-0.008-0.084-0.021-0.161-0.038-0.233
	c-0.017-0.071-0.038-0.136-0.063-0.195c-0.025-0.059-0.054-0.111-0.088-0.157s-0.071-0.086-0.113-0.119
	c-0.042-0.034-0.086-0.063-0.133-0.088c-0.047-0.025-0.097-0.046-0.152-0.063c-0.054-0.017-0.113-0.029-0.177-0.038
	c-0.064-0.008-0.133-0.013-0.209-0.013c-0.067,0-0.132,0.004-0.194,0.012c-0.062,0.008-0.122,0.019-0.179,0.034
	c-0.057,0.015-0.11,0.032-0.16,0.053c-0.05,0.02-0.096,0.044-0.138,0.069c-0.042,0.034-0.078,0.067-0.107,0.101
	c-0.03,0.034-0.054,0.069-0.073,0.104c-0.019,0.036-0.033,0.072-0.041,0.111s-0.013,0.078-0.013,0.12s0.004,0.084,0.013,0.125
	c0.008,0.041,0.021,0.081,0.038,0.118c0.017,0.038,0.038,0.073,0.063,0.106s0.054,0.062,0.088,0.087
	c0.034,0.034,0.08,0.065,0.138,0.096c0.058,0.031,0.128,0.061,0.21,0.093c0.082,0.032,0.175,0.064,0.279,0.099
	c0.104,0.035,0.22,0.073,0.345,0.115c0.134,0.042,0.258,0.082,0.371,0.121c0.114,0.039,0.217,0.078,0.312,0.118
	s0.179,0.081,0.255,0.124c0.076,0.044,0.143,0.09,0.202,0.14c0.059,0.042,0.113,0.088,0.164,0.138s0.098,0.103,0.142,0.16
	c0.044,0.057,0.085,0.116,0.123,0.179c0.038,0.062,0.074,0.127,0.107,0.194c0.034,0.067,0.063,0.138,0.088,0.213
	c0.025,0.075,0.046,0.154,0.063,0.235s0.029,0.167,0.038,0.254c0.008,0.087,0.013,0.177,0.013,0.27c0,0.134-0.01,0.264-0.031,0.39
	c-0.021,0.126-0.052,0.247-0.094,0.365c-0.042,0.117-0.094,0.231-0.157,0.34c-0.063,0.109-0.136,0.214-0.22,0.314
	c-0.084,0.092-0.18,0.174-0.289,0.245c-0.109,0.071-0.231,0.13-0.365,0.179c-0.134,0.048-0.281,0.085-0.44,0.11
	c-0.159,0.025-0.331,0.037-0.516,0.037c-0.319-0.017-0.601-0.075-0.849-0.177c-0.248-0.101-0.46-0.245-0.639-0.431
	c-0.178-0.187-0.322-0.416-0.431-0.689S29.366,76.108,29.324,75.747L29.324,75.747L29.324,75.747L29.324,75.747L29.324,75.747z"/>
<path id="path9136" style="fill:#003366;" d="M36.533,77.826V77.65v-0.176v-0.176v-0.176c-0.034,0.059-0.071,0.115-0.112,0.169
	c-0.041,0.054-0.085,0.105-0.131,0.153c-0.046,0.048-0.094,0.093-0.144,0.135c-0.049,0.041-0.1,0.079-0.15,0.113
	c-0.059,0.034-0.117,0.063-0.176,0.088s-0.117,0.046-0.176,0.063c-0.059,0.017-0.117,0.029-0.176,0.038
	c-0.059,0.008-0.117,0.013-0.176,0.013s-0.117-0.004-0.175-0.013c-0.058-0.008-0.116-0.021-0.172-0.038
	c-0.057-0.017-0.112-0.038-0.166-0.063c-0.054-0.025-0.106-0.054-0.157-0.088s-0.096-0.069-0.139-0.108
	c-0.042-0.039-0.081-0.081-0.117-0.127s-0.068-0.096-0.098-0.152c-0.03-0.056-0.057-0.116-0.083-0.183
	c-0.025-0.059-0.046-0.126-0.063-0.2c-0.017-0.074-0.031-0.156-0.041-0.244c-0.01-0.088-0.018-0.182-0.022-0.282
	c-0.005-0.1-0.007-0.204-0.007-0.313v-0.729v-0.729v-0.729v-0.729h0.251h0.251h0.251h0.251v0.528v0.528v0.528v0.528
	c0,0.151,0,0.289,0.001,0.414s0.002,0.236,0.004,0.332c0.002,0.096,0.005,0.178,0.01,0.244c0.005,0.066,0.011,0.116,0.019,0.15
	c0.008,0.042,0.019,0.082,0.031,0.119c0.013,0.037,0.027,0.072,0.044,0.103c0.017,0.032,0.036,0.06,0.057,0.084
	s0.044,0.046,0.069,0.062c0.025,0.025,0.052,0.046,0.081,0.063c0.029,0.017,0.059,0.031,0.09,0.041
	c0.031,0.01,0.064,0.018,0.097,0.022c0.033,0.005,0.067,0.007,0.1,0.007c0.042,0,0.084-0.004,0.125-0.012
	c0.041-0.008,0.082-0.019,0.122-0.034c0.04-0.015,0.078-0.032,0.116-0.053s0.073-0.044,0.106-0.069
	c0.034-0.034,0.065-0.067,0.094-0.101c0.029-0.034,0.055-0.069,0.078-0.104c0.023-0.036,0.043-0.072,0.059-0.111
	c0.016-0.038,0.029-0.078,0.037-0.12c0.008-0.05,0.017-0.113,0.025-0.189c0.008-0.075,0.015-0.163,0.021-0.264
	c0.006-0.101,0.012-0.214,0.015-0.34c0.004-0.126,0.006-0.264,0.006-0.415v-0.486v-0.486v-0.486v-0.486h0.251h0.251h0.251h0.251
	v1.157v1.157v1.157v1.157l-0.235,0.008l-0.235,0.008l-0.235,0.008L36.533,77.826L36.533,77.826L36.533,77.826L36.533,77.826
	L36.533,77.826z"/>
<path id="path9138" style="fill:#003366;" d="M38.109,73.199h0.235h0.235h0.235h0.235v0.168v0.168v0.168v0.168
	c0.034-0.059,0.069-0.115,0.107-0.169s0.078-0.105,0.119-0.154c0.042-0.048,0.086-0.093,0.132-0.135
	c0.046-0.041,0.094-0.079,0.145-0.113c0.05-0.034,0.103-0.063,0.157-0.088s0.11-0.046,0.166-0.063
	c0.056-0.017,0.114-0.029,0.172-0.038c0.058-0.008,0.117-0.013,0.175-0.013c0.109,0,0.214,0.013,0.314,0.038
	c0.101,0.025,0.197,0.063,0.289,0.113c0.092,0.05,0.18,0.113,0.264,0.189c0.084,0.075,0.163,0.163,0.239,0.264
	c0.075,0.101,0.143,0.214,0.201,0.338c0.058,0.125,0.107,0.261,0.147,0.408c0.04,0.147,0.07,0.304,0.091,0.47
	c0.02,0.167,0.031,0.343,0.031,0.527c0,0.201-0.01,0.39-0.031,0.566s-0.051,0.34-0.091,0.49c-0.04,0.151-0.089,0.289-0.147,0.415
	c-0.058,0.126-0.125,0.239-0.201,0.34c-0.075,0.109-0.155,0.203-0.239,0.283c-0.084,0.08-0.172,0.146-0.264,0.199
	c-0.092,0.052-0.189,0.091-0.289,0.117s-0.205,0.038-0.314,0.038c-0.05,0-0.101-0.002-0.15-0.007
	c-0.05-0.005-0.099-0.012-0.147-0.022c-0.048-0.01-0.095-0.024-0.141-0.041c-0.046-0.017-0.09-0.038-0.131-0.063
	c-0.042-0.025-0.084-0.054-0.126-0.088c-0.042-0.034-0.085-0.073-0.129-0.117c-0.044-0.044-0.089-0.093-0.136-0.148
	c-0.047-0.055-0.095-0.116-0.145-0.183v0.578v0.578v0.578v0.578h-0.251h-0.251H38.36h-0.251v-1.584v-1.584v-1.584V73.199
	L38.109,73.199L38.109,73.199L38.109,73.199L38.109,73.199z M39.081,75.412c0,0.134,0.006,0.258,0.018,0.371
	c0.012,0.114,0.03,0.217,0.053,0.312c0.023,0.094,0.051,0.179,0.084,0.255c0.033,0.076,0.071,0.143,0.112,0.202
	c0.042,0.059,0.086,0.111,0.132,0.157c0.046,0.046,0.094,0.084,0.145,0.116s0.103,0.055,0.157,0.072
	c0.054,0.016,0.111,0.025,0.17,0.025c0.059,0,0.115-0.006,0.169-0.019c0.054-0.013,0.105-0.033,0.154-0.06
	c0.048-0.027,0.093-0.062,0.135-0.104c0.041-0.042,0.079-0.093,0.113-0.151c0.042-0.059,0.078-0.126,0.107-0.201
	s0.054-0.159,0.073-0.251c0.019-0.092,0.033-0.193,0.041-0.302c0.009-0.109,0.013-0.226,0.013-0.352s-0.004-0.241-0.013-0.347
	c-0.009-0.106-0.022-0.202-0.041-0.29c-0.019-0.088-0.043-0.168-0.073-0.24s-0.066-0.137-0.108-0.196
	c-0.042-0.059-0.086-0.109-0.131-0.151c-0.046-0.042-0.093-0.077-0.141-0.104c-0.048-0.027-0.097-0.047-0.147-0.06
	c-0.05-0.013-0.1-0.019-0.15-0.019c-0.059,0-0.115,0.006-0.17,0.019c-0.054,0.013-0.107,0.033-0.157,0.06
	c-0.05,0.027-0.098,0.062-0.145,0.104s-0.09,0.093-0.132,0.151c-0.042,0.059-0.08,0.124-0.113,0.195
	c-0.033,0.071-0.061,0.149-0.084,0.233c-0.023,0.084-0.041,0.174-0.053,0.27C39.088,75.2,39.081,75.303,39.081,75.412L39.081,75.412
	L39.081,75.412L39.081,75.412L39.081,75.412z"/>
<path id="path9140" style="fill:#003366;" d="M42.166,73.199h0.235h0.235h0.235h0.235v0.168v0.168v0.168v0.168
	c0.034-0.059,0.069-0.115,0.107-0.169c0.038-0.054,0.078-0.105,0.119-0.154c0.042-0.048,0.086-0.093,0.132-0.135
	c0.046-0.041,0.094-0.079,0.145-0.113s0.103-0.063,0.157-0.088s0.109-0.046,0.166-0.063c0.057-0.017,0.114-0.029,0.173-0.038
	s0.117-0.013,0.176-0.013c0.109,0,0.214,0.013,0.314,0.038c0.101,0.025,0.197,0.063,0.289,0.113c0.092,0.05,0.18,0.113,0.264,0.189
	c0.084,0.075,0.163,0.163,0.239,0.264c0.075,0.101,0.143,0.214,0.201,0.338c0.058,0.125,0.107,0.261,0.147,0.408
	s0.07,0.304,0.091,0.47c0.02,0.167,0.031,0.343,0.031,0.527c0,0.201-0.01,0.39-0.031,0.566s-0.051,0.34-0.091,0.49
	c-0.04,0.151-0.089,0.289-0.147,0.415c-0.058,0.126-0.125,0.239-0.201,0.34c-0.075,0.109-0.155,0.203-0.239,0.283
	c-0.084,0.08-0.172,0.146-0.264,0.199c-0.092,0.052-0.189,0.091-0.289,0.117c-0.101,0.026-0.205,0.038-0.314,0.038
	c-0.05,0-0.101-0.002-0.15-0.007c-0.05-0.005-0.099-0.012-0.147-0.022c-0.048-0.01-0.095-0.024-0.141-0.041
	c-0.046-0.017-0.089-0.038-0.131-0.063c-0.042-0.025-0.084-0.054-0.126-0.088c-0.042-0.034-0.085-0.073-0.129-0.117
	c-0.044-0.044-0.089-0.093-0.136-0.148c-0.047-0.055-0.095-0.116-0.145-0.183v0.578v0.578v0.578v0.578h-0.251h-0.251h-0.251h-0.251
	v-1.584v-1.584v-1.584L42.166,73.199L42.166,73.199L42.166,73.199L42.166,73.199L42.166,73.199z M43.139,75.412
	c0,0.134,0.006,0.258,0.018,0.371c0.012,0.114,0.03,0.217,0.053,0.312c0.023,0.094,0.051,0.179,0.084,0.255
	c0.033,0.076,0.071,0.143,0.113,0.202c0.042,0.059,0.086,0.111,0.132,0.157s0.094,0.084,0.145,0.116
	c0.05,0.031,0.103,0.055,0.157,0.072s0.111,0.025,0.17,0.025c0.059,0,0.115-0.006,0.169-0.019c0.054-0.013,0.105-0.033,0.153-0.06
	c0.048-0.027,0.093-0.062,0.135-0.104c0.041-0.042,0.079-0.093,0.113-0.151c0.042-0.059,0.078-0.126,0.107-0.201
	c0.03-0.075,0.054-0.159,0.073-0.251c0.019-0.092,0.032-0.193,0.041-0.302c0.009-0.109,0.013-0.226,0.013-0.352
	s-0.004-0.241-0.013-0.347c-0.009-0.106-0.023-0.202-0.042-0.29c-0.019-0.088-0.043-0.168-0.073-0.24s-0.065-0.137-0.107-0.196
	c-0.042-0.059-0.086-0.109-0.131-0.151s-0.093-0.077-0.141-0.104c-0.048-0.027-0.098-0.047-0.147-0.06
	c-0.05-0.013-0.1-0.019-0.15-0.019c-0.059,0-0.115,0.006-0.17,0.019c-0.054,0.013-0.107,0.033-0.157,0.06
	c-0.05,0.027-0.098,0.062-0.145,0.104c-0.046,0.042-0.09,0.093-0.132,0.151s-0.08,0.124-0.113,0.195s-0.061,0.149-0.084,0.233
	c-0.023,0.084-0.041,0.174-0.053,0.27C43.145,75.2,43.139,75.303,43.139,75.412L43.139,75.412L43.139,75.412L43.139,75.412
	L43.139,75.412z"/>
<path id="path9142" style="fill:#003366;" d="M46.257,77.826v-1.593v-1.593v-1.593v-1.593h0.251h0.251h0.251h0.251v1.593v1.593
	v1.593v1.593h-0.251H46.76h-0.251H46.257z"/>
<path id="path9144" style="fill:#003366;" d="M47.397,73.199h0.268h0.268h0.268h0.268l0.226,0.822l0.226,0.822l0.226,0.822
	l0.226,0.822l0.218-0.822l0.218-0.822l0.218-0.822l0.218-0.822h0.26h0.26h0.26h0.26l-0.335,1.107l-0.335,1.107l-0.335,1.107
	l-0.335,1.107l-0.067,0.218l-0.067,0.218l-0.067,0.218l-0.067,0.218c-0.025,0.084-0.052,0.161-0.081,0.233
	c-0.028,0.071-0.058,0.136-0.087,0.195c-0.029,0.059-0.059,0.111-0.087,0.157s-0.056,0.086-0.081,0.119
	c-0.025,0.034-0.054,0.067-0.087,0.1c-0.032,0.032-0.068,0.064-0.106,0.093c-0.038,0.029-0.078,0.057-0.118,0.081
	c-0.041,0.024-0.083,0.045-0.125,0.062c-0.042,0.017-0.086,0.034-0.133,0.049s-0.096,0.03-0.148,0.043
	c-0.052,0.013-0.108,0.023-0.167,0.03c-0.059,0.007-0.122,0.012-0.189,0.012c-0.05,0-0.098-0.002-0.146-0.006
	s-0.093-0.009-0.139-0.015c-0.046-0.006-0.092-0.014-0.139-0.021s-0.095-0.016-0.146-0.025l-0.025-0.235l-0.025-0.235l-0.025-0.235
	l-0.025-0.235c0.042,0.008,0.082,0.017,0.12,0.025c0.038,0.008,0.075,0.015,0.111,0.022c0.036,0.006,0.07,0.012,0.104,0.015
	c0.034,0.004,0.068,0.006,0.101,0.006c0.05,0,0.096-0.004,0.139-0.013c0.043-0.008,0.083-0.021,0.121-0.038s0.073-0.038,0.108-0.063
	c0.035-0.025,0.068-0.054,0.102-0.088s0.065-0.073,0.094-0.119c0.029-0.046,0.057-0.098,0.082-0.157
	c0.025-0.059,0.048-0.124,0.069-0.195s0.04-0.149,0.057-0.233l-0.352-1.157l-0.352-1.157l-0.352-1.157L47.397,73.199L47.397,73.199
	L47.397,73.199L47.397,73.199L47.397,73.199z"/>
<path id="path9146" style="fill:#003366;" d="M56.518,75.479l0.251,0.101l0.251,0.101l0.251,0.101l0.251,0.101
	c-0.042,0.176-0.09,0.342-0.145,0.496s-0.115,0.298-0.182,0.43c-0.067,0.132-0.14,0.253-0.22,0.361
	c-0.08,0.108-0.166,0.205-0.258,0.289c-0.092,0.084-0.191,0.157-0.295,0.22c-0.104,0.063-0.214,0.115-0.33,0.157
	s-0.236,0.073-0.361,0.094c-0.125,0.021-0.255,0.031-0.389,0.031c-0.168,0-0.329-0.017-0.483-0.05s-0.301-0.082-0.439-0.147
	c-0.138-0.065-0.268-0.146-0.389-0.242c-0.121-0.096-0.232-0.207-0.332-0.333c-0.126-0.151-0.235-0.314-0.327-0.491
	c-0.093-0.177-0.169-0.366-0.23-0.569c-0.061-0.203-0.106-0.42-0.136-0.651c-0.03-0.231-0.045-0.476-0.045-0.736
	c0-0.268,0.015-0.524,0.045-0.766s0.075-0.47,0.136-0.684c0.061-0.214,0.137-0.413,0.23-0.597c0.093-0.183,0.202-0.351,0.327-0.502
	c0.109-0.134,0.226-0.251,0.352-0.352c0.126-0.101,0.26-0.184,0.402-0.251s0.293-0.117,0.453-0.151
	c0.159-0.034,0.327-0.05,0.503-0.05c0.143,0,0.281,0.013,0.414,0.038c0.134,0.025,0.262,0.063,0.386,0.113
	c0.124,0.05,0.242,0.113,0.355,0.189c0.113,0.075,0.219,0.163,0.32,0.264c0.067,0.067,0.132,0.145,0.193,0.232
	c0.061,0.087,0.119,0.185,0.171,0.292s0.099,0.223,0.14,0.348c0.04,0.125,0.074,0.259,0.099,0.402l-0.26,0.075l-0.26,0.075
	l-0.26,0.075l-0.26,0.075c-0.017-0.084-0.038-0.163-0.063-0.239c-0.025-0.075-0.054-0.147-0.088-0.214
	c-0.034-0.067-0.071-0.13-0.113-0.189c-0.042-0.059-0.088-0.113-0.138-0.163c-0.05-0.05-0.103-0.092-0.157-0.127
	s-0.111-0.062-0.17-0.083c-0.059-0.021-0.119-0.036-0.182-0.045c-0.063-0.009-0.128-0.014-0.195-0.014
	c-0.092,0-0.182,0.01-0.269,0.031s-0.171,0.052-0.25,0.094c-0.08,0.042-0.155,0.094-0.225,0.157c-0.07,0.063-0.135,0.136-0.194,0.22
	c-0.059,0.084-0.111,0.182-0.157,0.295c-0.046,0.113-0.084,0.239-0.116,0.38c-0.032,0.14-0.056,0.294-0.072,0.461
	s-0.025,0.347-0.025,0.54c0,0.201,0.008,0.388,0.025,0.56c0.016,0.172,0.04,0.329,0.072,0.472c0.032,0.143,0.07,0.27,0.116,0.384
	c0.046,0.113,0.098,0.212,0.157,0.295c0.059,0.084,0.122,0.157,0.189,0.22c0.068,0.063,0.14,0.115,0.218,0.157
	c0.077,0.042,0.16,0.073,0.249,0.094c0.089,0.021,0.183,0.031,0.283,0.031c0.067,0,0.132-0.006,0.195-0.019
	c0.063-0.013,0.125-0.033,0.186-0.06c0.061-0.027,0.121-0.062,0.18-0.104c0.059-0.042,0.118-0.093,0.176-0.151
	c0.05-0.067,0.098-0.138,0.144-0.215c0.045-0.076,0.087-0.158,0.125-0.246c0.038-0.088,0.071-0.182,0.1-0.284
	C56.478,75.705,56.501,75.596,56.518,75.479z"/>
<path id="path9148" style="fill:#003366;" d="M59.032,71.455v0.587v0.587v0.587v0.587c0.042-0.059,0.084-0.113,0.126-0.163
	c0.042-0.05,0.085-0.096,0.129-0.138c0.044-0.042,0.089-0.08,0.136-0.113c0.047-0.034,0.095-0.063,0.145-0.088
	s0.101-0.048,0.151-0.069s0.102-0.038,0.155-0.053s0.106-0.026,0.161-0.034c0.055-0.008,0.111-0.012,0.17-0.012
	c0.075,0,0.147,0.004,0.215,0.013s0.133,0.022,0.196,0.041c0.063,0.019,0.124,0.043,0.183,0.073c0.06,0.03,0.118,0.066,0.177,0.107
	c0.05,0.042,0.096,0.086,0.139,0.133c0.042,0.047,0.081,0.097,0.117,0.152c0.036,0.054,0.068,0.113,0.098,0.177
	s0.057,0.133,0.082,0.209c0.017,0.05,0.031,0.111,0.044,0.182c0.013,0.071,0.023,0.153,0.031,0.245
	c0.008,0.092,0.015,0.195,0.019,0.308c0.004,0.113,0.006,0.237,0.006,0.371v0.679v0.679v0.679v0.679h-0.251H61.01h-0.251h-0.251
	v-0.612v-0.612v-0.612v-0.612c0-0.143-0.002-0.27-0.006-0.385c-0.004-0.114-0.01-0.215-0.019-0.303
	c-0.008-0.088-0.019-0.163-0.031-0.227c-0.013-0.064-0.027-0.116-0.044-0.158c-0.025-0.05-0.054-0.094-0.088-0.132
	c-0.034-0.038-0.071-0.069-0.113-0.094c-0.042-0.025-0.088-0.044-0.138-0.057s-0.105-0.019-0.163-0.019
	c-0.067,0-0.13,0.006-0.189,0.019s-0.113,0.031-0.163,0.057c-0.05,0.025-0.096,0.057-0.138,0.094
	c-0.042,0.038-0.08,0.082-0.113,0.132c-0.034,0.05-0.063,0.113-0.088,0.188c-0.025,0.075-0.046,0.162-0.063,0.26
	c-0.017,0.098-0.029,0.208-0.038,0.329c-0.008,0.121-0.013,0.253-0.013,0.396v0.578v0.578v0.578v0.578h-0.251h-0.251h-0.251h-0.251
	v-1.593V74.64v-1.593v-1.593h0.235h0.235h0.235L59.032,71.455L59.032,71.455L59.032,71.455L59.032,71.455L59.032,71.455z"/>
<path id="path9150" style="fill:#003366;" d="M62.855,74.607l-0.226-0.05l-0.226-0.05l-0.226-0.05l-0.226-0.05
	c0.025-0.117,0.057-0.226,0.093-0.327s0.079-0.193,0.125-0.277c0.046-0.084,0.096-0.159,0.15-0.226s0.11-0.126,0.169-0.176
	c0.067-0.05,0.138-0.094,0.215-0.132s0.16-0.069,0.25-0.094c0.09-0.025,0.188-0.044,0.294-0.057s0.222-0.019,0.347-0.019
	c0.109,0,0.21,0.004,0.303,0.012c0.093,0.008,0.179,0.019,0.259,0.034c0.08,0.015,0.153,0.032,0.221,0.053s0.131,0.044,0.19,0.069
	c0.059,0.034,0.111,0.067,0.158,0.102c0.047,0.035,0.089,0.072,0.127,0.111c0.038,0.04,0.071,0.083,0.102,0.13
	c0.03,0.048,0.058,0.1,0.083,0.159c0.025,0.05,0.046,0.111,0.063,0.182c0.017,0.071,0.031,0.153,0.041,0.245
	s0.018,0.195,0.023,0.308c0.005,0.113,0.007,0.237,0.007,0.371v0.352v0.352v0.352v0.352c0,0.101,0,0.195,0.001,0.283
	c0.001,0.088,0.002,0.17,0.004,0.245c0.002,0.075,0.005,0.145,0.01,0.207c0.005,0.063,0.011,0.119,0.02,0.17
	c0.008,0.05,0.019,0.101,0.031,0.151c0.012,0.051,0.026,0.102,0.04,0.155c0.015,0.052,0.031,0.106,0.047,0.161
	c0.016,0.055,0.033,0.112,0.05,0.17h-0.251h-0.251h-0.251h-0.251l-0.034-0.126l-0.034-0.126l-0.034-0.126l-0.034-0.126
	c-0.042,0.05-0.086,0.098-0.131,0.144c-0.045,0.046-0.091,0.088-0.137,0.128c-0.046,0.04-0.092,0.077-0.137,0.11
	c-0.045,0.033-0.089,0.062-0.131,0.087c-0.05,0.025-0.101,0.048-0.151,0.069s-0.102,0.038-0.155,0.053s-0.106,0.026-0.161,0.034
	c-0.055,0.008-0.111,0.012-0.17,0.012c-0.092,0-0.18-0.008-0.264-0.025s-0.163-0.04-0.239-0.072
	c-0.075-0.031-0.147-0.07-0.214-0.116c-0.067-0.046-0.13-0.098-0.189-0.157s-0.109-0.124-0.151-0.195s-0.077-0.149-0.104-0.233
	c-0.027-0.084-0.047-0.174-0.06-0.27c-0.013-0.096-0.02-0.199-0.02-0.308c0-0.067,0.002-0.132,0.007-0.194
	c0.005-0.062,0.012-0.122,0.023-0.179c0.01-0.056,0.024-0.11,0.041-0.16s0.038-0.096,0.063-0.138
	c0.025-0.05,0.052-0.096,0.082-0.139s0.061-0.083,0.094-0.12s0.069-0.073,0.107-0.108c0.038-0.035,0.078-0.068,0.119-0.102
	c0.042-0.025,0.09-0.052,0.145-0.08c0.055-0.028,0.117-0.056,0.186-0.083c0.069-0.027,0.146-0.053,0.23-0.077
	c0.084-0.024,0.177-0.045,0.277-0.061c0.117-0.025,0.224-0.05,0.322-0.075c0.097-0.025,0.185-0.05,0.265-0.075
	c0.08-0.025,0.151-0.05,0.215-0.075c0.064-0.025,0.121-0.05,0.171-0.075c0-0.067-0.002-0.128-0.006-0.182s-0.009-0.103-0.015-0.145
	c-0.006-0.042-0.014-0.078-0.022-0.107c-0.008-0.029-0.016-0.052-0.024-0.069c-0.008-0.017-0.019-0.034-0.031-0.05
	c-0.013-0.017-0.027-0.034-0.044-0.05c-0.017-0.017-0.036-0.034-0.057-0.05c-0.021-0.017-0.044-0.034-0.069-0.05
	c-0.025-0.017-0.052-0.029-0.082-0.039c-0.029-0.009-0.061-0.016-0.094-0.02c-0.034-0.004-0.069-0.006-0.107-0.007
	c-0.038-0.001-0.078-0.001-0.119-0.001c-0.042,0-0.084,0.002-0.125,0.007s-0.081,0.012-0.118,0.022
	c-0.038,0.01-0.073,0.024-0.106,0.041c-0.032,0.017-0.062,0.038-0.087,0.063c-0.008,0.008-0.021,0.023-0.036,0.044
	c-0.015,0.021-0.033,0.048-0.052,0.082c-0.019,0.034-0.039,0.074-0.059,0.12C62.891,74.496,62.872,74.549,62.855,74.607
	L62.855,74.607L62.855,74.607L62.855,74.607L62.855,74.607z M64.196,75.613c-0.034,0.017-0.071,0.031-0.113,0.045
	c-0.042,0.014-0.088,0.026-0.138,0.039s-0.105,0.025-0.163,0.039c-0.059,0.014-0.122,0.028-0.189,0.045
	c-0.075,0.017-0.145,0.036-0.207,0.056s-0.119,0.043-0.17,0.066c-0.05,0.023-0.094,0.047-0.132,0.072
	c-0.038,0.025-0.069,0.05-0.094,0.075c-0.025,0.025-0.046,0.052-0.063,0.081s-0.031,0.059-0.041,0.091
	c-0.01,0.032-0.018,0.064-0.023,0.097s-0.007,0.066-0.007,0.1c0,0.042,0.004,0.084,0.012,0.125c0.008,0.041,0.019,0.081,0.034,0.118
	c0.015,0.038,0.032,0.073,0.053,0.106c0.02,0.032,0.044,0.062,0.069,0.087c0.025,0.034,0.052,0.061,0.082,0.083
	c0.029,0.022,0.061,0.039,0.094,0.051s0.069,0.021,0.107,0.026c0.038,0.005,0.078,0.007,0.119,0.007
	c0.034,0,0.067-0.002,0.101-0.007s0.069-0.012,0.104-0.022c0.036-0.01,0.072-0.024,0.111-0.041c0.038-0.017,0.078-0.038,0.12-0.063
	c0.034-0.025,0.065-0.05,0.094-0.076c0.029-0.026,0.057-0.052,0.082-0.079c0.025-0.027,0.048-0.056,0.069-0.086
	s0.04-0.061,0.057-0.095c0.017-0.034,0.029-0.073,0.039-0.12s0.016-0.1,0.02-0.161c0.004-0.061,0.006-0.129,0.007-0.205
	s0.001-0.16,0.001-0.252l-0.008-0.05l-0.008-0.05l-0.009-0.05L64.196,75.613L64.196,75.613L64.196,75.613L64.196,75.613
	L64.196,75.613z"/>
<path id="path9152" style="fill:#003366;" d="M65.772,72.562v-0.285v-0.285v-0.285v-0.285h0.251h0.251h0.251h0.251v0.285v0.285
	v0.285v0.285h-0.251h-0.251h-0.251H65.772z M65.772,77.826v-1.157v-1.157v-1.157v-1.157h0.251h0.251h0.251h0.251v1.157v1.157v1.157
	v1.157h-0.251h-0.251h-0.251H65.772z"/>
<path id="path9154" style="fill:#003366;" d="M70.835,77.826h-0.251h-0.251h-0.251h-0.251v-0.587v-0.587v-0.587v-0.587
	c0-0.117-0.002-0.224-0.006-0.321c-0.004-0.097-0.009-0.184-0.015-0.261c-0.006-0.078-0.014-0.146-0.022-0.205
	c-0.008-0.059-0.016-0.109-0.024-0.151c-0.008-0.042-0.019-0.08-0.031-0.114c-0.013-0.035-0.027-0.066-0.044-0.095
	c-0.017-0.029-0.036-0.057-0.057-0.083c-0.021-0.026-0.044-0.051-0.069-0.076s-0.05-0.046-0.076-0.063
	c-0.026-0.017-0.052-0.031-0.079-0.041c-0.027-0.01-0.055-0.018-0.085-0.022c-0.03-0.005-0.061-0.007-0.095-0.007
	c-0.042,0-0.084,0.004-0.125,0.012c-0.041,0.008-0.082,0.019-0.122,0.034c-0.04,0.015-0.078,0.032-0.116,0.053
	s-0.073,0.044-0.106,0.069c-0.034,0.025-0.065,0.054-0.094,0.087c-0.029,0.032-0.057,0.068-0.082,0.106s-0.048,0.078-0.069,0.118
	c-0.021,0.041-0.04,0.083-0.057,0.125c-0.017,0.05-0.029,0.109-0.039,0.177s-0.016,0.146-0.02,0.234
	c-0.004,0.088-0.006,0.187-0.007,0.297s-0.001,0.232-0.001,0.366v0.52v0.52v0.52v0.52h-0.251h-0.251h-0.251h-0.251v-1.157V75.48
	v-1.157v-1.157h0.235h0.235h0.235h0.235v0.168v0.168v0.168v0.168c0.042-0.067,0.084-0.13,0.127-0.188
	c0.043-0.058,0.087-0.112,0.133-0.16c0.046-0.048,0.094-0.091,0.146-0.128s0.106-0.069,0.165-0.094
	c0.05-0.034,0.103-0.063,0.157-0.088c0.054-0.025,0.111-0.046,0.17-0.063c0.059-0.017,0.119-0.029,0.182-0.038
	c0.063-0.008,0.128-0.013,0.195-0.013c0.075,0,0.147,0.004,0.214,0.013s0.131,0.022,0.192,0.041
	c0.061,0.019,0.119,0.043,0.174,0.073c0.055,0.03,0.107,0.066,0.158,0.107c0.05,0.034,0.096,0.071,0.138,0.113
	c0.042,0.041,0.08,0.086,0.113,0.135c0.034,0.048,0.063,0.1,0.088,0.154s0.046,0.111,0.063,0.169
	c0.017,0.059,0.031,0.124,0.044,0.195c0.013,0.072,0.023,0.15,0.031,0.236c0.008,0.086,0.015,0.179,0.019,0.28
	s0.006,0.21,0.006,0.328v0.729v0.729l0,0.729L70.835,77.826L70.835,77.826L70.835,77.826L70.835,77.826L70.835,77.826z"/>
</svg>
