<?xml version="1.0" encoding="iso-8859-1"?>
<!-- Generator: Adobe Illustrator 25.4.1, SVG Export Plug-In . SVG Version: 6.00 Build 0)  -->
<svg version="1.1"
	 id="svg8" xmlns:cc="http://creativecommons.org/ns#" xmlns:dc="http://purl.org/dc/elements/1.1/" xmlns:inkscape="http://www.inkscape.org/namespaces/inkscape" xmlns:rdf="http://www.w3.org/1999/02/22-rdf-syntax-ns#" xmlns:sodipodi="http://sodipodi.sourceforge.net/DTD/sodipodi-0.dtd" xmlns:svg="http://www.w3.org/2000/svg"
	 xmlns="http://www.w3.org/2000/svg" xmlns:xlink="http://www.w3.org/1999/xlink" x="0px" y="0px" viewBox="0 0 100 100"
	 style="enable-background:new 0 0 100 100;" xml:space="preserve">
<sodipodi:namedview  bordercolor="#666666" borderopacity="1.0" id="base" inkscape:current-layer="layer3" inkscape:cx="-302.11164" inkscape:cy="84.283015" inkscape:document-units="px" inkscape:guide-bbox="true" inkscape:lockguides="true" inkscape:pageopacity="0.0" inkscape:pageshadow="2" inkscape:window-height="657" inkscape:window-maximized="1" inkscape:window-width="1280" inkscape:window-x="-8" inkscape:window-y="-8" inkscape:zoom="0.765625" pagecolor="#ffffff" showgrid="false" showguides="false" units="px">
	<sodipodi:guide  id="guide5700" inkscape:locked="true" orientation="0,1" position="-0.93017576,23.874511"></sodipodi:guide>
	<sodipodi:guide  id="guide5726" inkscape:locked="true" orientation="0,1" position="-26.098869,26.473047"></sodipodi:guide>
	<sodipodi:guide  id="guide5880" inkscape:locked="true" orientation="0,1" position="104.51042,-2.9104167"></sodipodi:guide>
	<sodipodi:guide  id="guide6001" inkscape:locked="true" orientation="0,1" position="-71.093695,29.279377"></sodipodi:guide>
	<sodipodi:guide  id="guide6005" inkscape:locked="true" orientation="0,1" position="-46.304445,58.278122"></sodipodi:guide>
	<sodipodi:guide  id="guide6736" inkscape:locked="true" orientation="0,1" position="-0.10335287,20.205485"></sodipodi:guide>
	<sodipodi:guide  id="guide6738" inkscape:locked="true" orientation="0,1" position="-0.43848907,22.874513"></sodipodi:guide>
	<inkscape:grid  id="grid2386" type="xygrid"></inkscape:grid>
</sodipodi:namedview>
<g id="g1180_1_" transform="translate(0,-229.2666)" inkscape:groupmode="layer" inkscape:label="halo:always" style="display:none;">
	<g id="g1210_1_" inkscape:groupmode="layer" inkscape:label="-gray-halo:iter3" style="display:inline;">
		<g id="circle1208_1_">
			<path style="fill:#919395;" d="M50,329.3c-27.6,0-50-22.4-50-50s22.4-50,50-50s50,22.4,50,50S77.6,329.3,50,329.3z M50,237.9
				c-22.8,0-41.4,18.6-41.4,41.4s18.6,41.4,41.4,41.4s41.4-18.6,41.4-41.4S72.8,237.9,50,237.9z"/>
		</g>
	</g>
	<g id="g1206_1_" inkscape:groupmode="layer" inkscape:label="-red-halo:iter3" style="display:inline;">
		<g id="circle1204_1_">
			<path style="fill:#C52038;" d="M50,329.3c-27.6,0-50-22.4-50-50s22.4-50,50-50s50,22.4,50,50S77.6,329.3,50,329.3z M50,237.9
				c-22.8,0-41.4,18.6-41.4,41.4s18.6,41.4,41.4,41.4s41.4-18.6,41.4-41.4S72.8,237.9,50,237.9z"/>
		</g>
	</g>
	<g id="g1202_1_" inkscape:groupmode="layer" inkscape:label="-green-halo:iter3" style="display:inline;">
		<g id="circle1200_1_">
			<path style="fill:#5E9C42;" d="M50,329.3c-27.6,0-50-22.4-50-50s22.4-50,50-50s50,22.4,50,50S77.6,329.3,50,329.3z M50,237.9
				c-22.8,0-41.4,18.6-41.4,41.4s18.6,41.4,41.4,41.4s41.4-18.6,41.4-41.4S72.8,237.9,50,237.9z"/>
		</g>
	</g>
	<g id="layer18_1_" inkscape:groupmode="layer" inkscape:label="-yellow-halo:iter3" style="display:inline;">
		<g id="circle1178-4_1_">
			<path style="fill:#FBBA16;" d="M50,329.3c-27.6,0-50-22.4-50-50s22.4-50,50-50s50,22.4,50,50S77.6,329.3,50,329.3z M50,237.9
				c-22.8,0-41.4,18.6-41.4,41.4s18.6,41.4,41.4,41.4s41.4-18.6,41.4-41.4S72.8,237.9,50,237.9z"/>
		</g>
	</g>
</g>
<path id="rect8322" inkscape:export-filename="C:\Users\Charlotte Abel\Documents\Symbology\Components\For Distribution\health-and-medical-icon_fatality-management-gray.png" inkscape:export-xdpi="300.00458" inkscape:export-ydpi="300.00458" style="fill:#003366;" d="
	M27.136,73.357h11.448h11.448H61.48h11.448c0.169,0,0.333,0.037,0.483,0.103c0.15,0.066,0.288,0.161,0.404,0.277
	c0.116,0.116,0.211,0.253,0.277,0.404c0.066,0.15,0.103,0.314,0.103,0.483v0.444v0.444v0.444v0.444c0,0.169-0.037,0.333-0.103,0.483
	c-0.066,0.15-0.161,0.288-0.277,0.404c-0.116,0.116-0.253,0.211-0.404,0.277c-0.15,0.066-0.314,0.103-0.483,0.103H61.48H50.032
	H38.584H27.136c-0.169,0-0.333-0.037-0.483-0.103c-0.15-0.066-0.288-0.161-0.404-0.277s-0.211-0.253-0.277-0.404
	c-0.066-0.15-0.103-0.314-0.103-0.483v-0.444v-0.444v-0.444v-0.444c0-0.19,0.037-0.364,0.103-0.519
	c0.066-0.155,0.161-0.289,0.277-0.4c0.116-0.111,0.253-0.198,0.404-0.257C26.803,73.389,26.967,73.357,27.136,73.357z"/>
<path id="path8320" inkscape:connector-curvature="0" inkscape:export-filename="C:\Users\Charlotte Abel\Documents\Symbology\Components\For Distribution\health-and-medical-icon_fatality-management-gray.png" inkscape:export-xdpi="300.00458" inkscape:export-ydpi="300.00458" style="fill:#003366;" d="
	M42.006,22.411c-0.021,0-0.042,0-0.063,0c-0.021,0-0.042,0-0.063,0s-0.042,0-0.063,0s-0.042,0-0.063,0
	c-0.401,0.063-0.766,0.222-1.083,0.454s-0.586,0.539-0.797,0.898c-0.211,0.359-0.364,0.771-0.449,1.215
	c-0.084,0.444-0.1,0.919-0.037,1.405s0.206,0.94,0.409,1.344c0.203,0.404,0.467,0.758,0.774,1.043
	c0.306,0.285,0.655,0.502,1.027,0.631c0.372,0.129,0.768,0.172,1.17,0.108s0.766-0.222,1.083-0.454s0.586-0.539,0.797-0.898
	c0.211-0.359,0.364-0.771,0.449-1.215c0.084-0.444,0.1-0.919,0.037-1.405c-0.063-0.444-0.195-0.861-0.382-1.237
	c-0.186-0.376-0.427-0.712-0.707-0.992c-0.28-0.28-0.599-0.504-0.944-0.658C42.756,22.495,42.386,22.411,42.006,22.411
	L42.006,22.411L42.006,22.411L42.006,22.411L42.006,22.411z M36.852,25.114c-0.021,0-0.037,0-0.05,0s-0.024,0-0.034,0
	c-0.011,0-0.021,0-0.034,0c-0.013,0-0.029,0-0.05,0c-0.253,0.042-0.486,0.143-0.689,0.288c-0.203,0.145-0.378,0.335-0.515,0.557
	s-0.238,0.475-0.293,0.747s-0.066,0.562-0.024,0.858c0.042,0.317,0.132,0.607,0.259,0.862s0.29,0.474,0.481,0.648
	c0.19,0.174,0.407,0.304,0.639,0.379s0.481,0.096,0.734,0.054c0.253-0.042,0.486-0.143,0.689-0.288
	c0.203-0.145,0.378-0.335,0.515-0.557c0.137-0.222,0.238-0.475,0.293-0.747c0.055-0.272,0.066-0.562,0.024-0.858
	c-0.042-0.275-0.127-0.539-0.244-0.779s-0.268-0.457-0.442-0.636c-0.174-0.18-0.373-0.322-0.585-0.415S37.084,25.093,36.852,25.114
	L36.852,25.114L36.852,25.114L36.852,25.114L36.852,25.114z M33.219,26.466c-0.021,0-0.037,0-0.05,0c-0.013,0-0.024,0-0.034,0
	c-0.011,0-0.021,0-0.034,0c-0.013,0-0.029,0-0.05,0c-0.232,0.021-0.444,0.1-0.627,0.224c-0.184,0.124-0.339,0.293-0.461,0.494
	c-0.122,0.201-0.209,0.433-0.255,0.684s-0.051,0.52-0.009,0.795c0.042,0.275,0.127,0.533,0.243,0.764
	c0.116,0.231,0.264,0.434,0.433,0.598c0.169,0.164,0.359,0.288,0.56,0.361c0.201,0.073,0.412,0.094,0.623,0.052
	c0.232-0.021,0.444-0.1,0.627-0.224s0.339-0.293,0.46-0.494c0.121-0.201,0.208-0.433,0.254-0.684s0.051-0.52,0.009-0.795
	c-0.021-0.253-0.084-0.491-0.181-0.705c-0.096-0.214-0.226-0.404-0.379-0.562s-0.33-0.285-0.521-0.372
	C33.636,26.514,33.43,26.466,33.219,26.466L33.219,26.466L33.219,26.466L33.219,26.466L33.219,26.466z M29.839,28.24
	c-0.021,0-0.037,0-0.05,0c-0.013,0-0.024,0-0.034,0c-0.011,0-0.021,0-0.034,0c-0.013,0-0.029,0-0.05,0
	c-0.232,0.021-0.444,0.1-0.627,0.224s-0.339,0.293-0.461,0.494s-0.209,0.433-0.255,0.684c-0.046,0.251-0.051,0.52-0.009,0.795
	c0.042,0.275,0.127,0.533,0.243,0.764s0.264,0.434,0.433,0.598c0.169,0.164,0.359,0.288,0.56,0.361
	c0.201,0.073,0.412,0.094,0.623,0.052c0.232-0.021,0.444-0.1,0.627-0.224c0.184-0.124,0.339-0.293,0.461-0.494
	c0.121-0.201,0.208-0.433,0.254-0.684c0.046-0.251,0.051-0.52,0.009-0.795c-0.021-0.253-0.084-0.491-0.181-0.705
	c-0.096-0.214-0.226-0.404-0.379-0.562c-0.153-0.158-0.33-0.285-0.521-0.372S30.051,28.24,29.839,28.24L29.839,28.24L29.839,28.24
	L29.839,28.24L29.839,28.24z M26.713,30.353c-0.021,0-0.037,0-0.05,0s-0.024,0-0.034,0c-0.011,0-0.021,0-0.034,0
	c-0.013,0-0.029,0-0.05,0c-0.211,0.021-0.401,0.095-0.565,0.21c-0.164,0.115-0.301,0.271-0.407,0.456
	c-0.106,0.185-0.18,0.399-0.216,0.63c-0.037,0.231-0.037,0.479,0.005,0.732s0.121,0.486,0.228,0.69
	c0.107,0.205,0.242,0.382,0.395,0.524c0.153,0.142,0.324,0.251,0.505,0.318c0.181,0.067,0.371,0.094,0.561,0.073
	c0.211-0.021,0.401-0.095,0.565-0.21c0.164-0.115,0.301-0.271,0.407-0.456c0.106-0.185,0.18-0.398,0.217-0.629
	c0.037-0.231,0.037-0.479-0.005-0.733c-0.021-0.232-0.079-0.449-0.166-0.643c-0.087-0.194-0.203-0.366-0.341-0.509
	c-0.137-0.142-0.296-0.256-0.467-0.334S26.903,30.353,26.713,30.353L26.713,30.353L26.713,30.353L26.713,30.353L26.713,30.353z
	 M39.471,31.113c-1.373,0-2.851,0.232-4.292,0.644c-1.44,0.412-2.842,1.003-4.062,1.721c-1.22,0.718-2.257,1.563-2.969,2.482
	c-0.712,0.919-1.097,1.912-1.012,2.925c0.021,0.613,0.053,1.236,0.091,1.861s0.083,1.254,0.131,1.877
	c0.047,0.623,0.097,1.241,0.146,1.846s0.096,1.196,0.139,1.766c0.169,1.394,0.364,2.799,0.572,4.209
	c0.207,1.41,0.427,2.825,0.643,4.24c0.216,1.415,0.43,2.83,0.627,4.24s0.376,2.815,0.524,4.209c0.169,1.162,0.528,2.244,1.032,3.207
	c0.504,0.962,1.154,1.804,1.904,2.485c0.75,0.681,1.6,1.202,2.506,1.52c0.906,0.318,1.867,0.434,2.838,0.308
	c0.972-0.148,1.864-0.523,2.647-1.075s1.456-1.281,1.989-2.136c0.534-0.855,0.927-1.838,1.15-2.896
	c0.223-1.059,0.276-2.194,0.128-3.356c-0.042-0.253-0.09-0.507-0.145-0.759s-0.119-0.503-0.193-0.751s-0.158-0.494-0.256-0.735
	c-0.098-0.242-0.209-0.48-0.335-0.712c-0.422-1.373-0.702-2.73-0.85-4.058s-0.164-2.627-0.058-3.884
	c0.106-1.257,0.333-2.471,0.671-3.63c0.338-1.159,0.787-2.263,1.336-3.298c0.422-0.739,0.76-1.563,1.009-2.418
	c0.248-0.855,0.407-1.743,0.47-2.609s0.032-1.711-0.1-2.482c-0.132-0.771-0.364-1.468-0.702-2.038
	c-0.211-0.486-0.507-0.898-0.871-1.242c-0.364-0.345-0.797-0.622-1.283-0.839c-0.486-0.216-1.024-0.372-1.6-0.474
	C40.717,31.161,40.105,31.113,39.471,31.113z"/>
<path id="path8324" inkscape:connector-curvature="0" inkscape:export-filename="C:\Users\Charlotte Abel\Documents\Symbology\Components\For Distribution\health-and-medical-icon_fatality-management-gray.png" inkscape:export-xdpi="300.00458" inkscape:export-ydpi="300.00458" style="fill:#003366;" d="
	M57.974,22.411c-0.38,0-0.745,0.084-1.081,0.24c-0.337,0.156-0.645,0.383-0.914,0.668c-0.27,0.285-0.499,0.628-0.678,1.016
	c-0.178,0.388-0.305,0.821-0.368,1.286c-0.063,0.486-0.048,0.961,0.037,1.405c0.084,0.444,0.238,0.855,0.449,1.215
	c0.211,0.359,0.481,0.665,0.797,0.898s0.681,0.391,1.083,0.454s0.792,0.021,1.158-0.108s0.706-0.346,1.008-0.631
	c0.301-0.285,0.562-0.639,0.769-1.043c0.207-0.404,0.36-0.858,0.445-1.344c0.063-0.486,0.048-0.961-0.037-1.405
	c-0.084-0.444-0.238-0.855-0.449-1.215s-0.481-0.665-0.797-0.898s-0.681-0.391-1.083-0.454c-0.042-0.021-0.079-0.037-0.112-0.049
	c-0.033-0.012-0.062-0.02-0.089-0.025c-0.026-0.005-0.05-0.008-0.072-0.01C58.016,22.411,57.995,22.411,57.974,22.411z
	 M63.128,25.114c-0.232,0-0.459,0.053-0.672,0.15s-0.411,0.24-0.585,0.42c-0.174,0.18-0.324,0.396-0.442,0.642
	s-0.202,0.52-0.244,0.816c-0.042,0.317-0.032,0.623,0.024,0.906c0.055,0.283,0.156,0.541,0.293,0.763s0.312,0.407,0.515,0.541
	c0.203,0.135,0.436,0.219,0.689,0.24c0.253,0.042,0.502,0.016,0.734-0.066c0.232-0.082,0.449-0.219,0.639-0.399
	c0.19-0.18,0.354-0.401,0.481-0.652c0.127-0.251,0.217-0.531,0.259-0.826c0.042-0.317,0.032-0.623-0.024-0.906
	c-0.055-0.283-0.156-0.541-0.293-0.763s-0.312-0.407-0.515-0.541c-0.203-0.135-0.436-0.219-0.689-0.24
	c0-0.021-0.005-0.037-0.014-0.049c-0.009-0.012-0.022-0.02-0.038-0.025c-0.016-0.005-0.035-0.008-0.054-0.009
	C63.17,25.114,63.149,25.114,63.128,25.114L63.128,25.114L63.128,25.114L63.128,25.114L63.128,25.114z M66.761,26.466
	c-0.211,0-0.417,0.048-0.61,0.135c-0.193,0.087-0.372,0.214-0.531,0.372s-0.296,0.349-0.404,0.562
	c-0.108,0.214-0.187,0.451-0.23,0.705c-0.042,0.275-0.037,0.544,0.009,0.795c0.046,0.251,0.133,0.483,0.254,0.684
	s0.277,0.37,0.46,0.494c0.183,0.124,0.395,0.203,0.627,0.224c0.232,0.021,0.459-0.011,0.671-0.087
	c0.211-0.077,0.407-0.198,0.576-0.356s0.312-0.354,0.418-0.578c0.106-0.224,0.175-0.478,0.196-0.752
	c0.042-0.275,0.037-0.544-0.009-0.795s-0.133-0.483-0.254-0.684c-0.121-0.201-0.277-0.37-0.461-0.494
	c-0.184-0.124-0.395-0.203-0.627-0.224c0.021,0,0.032,0,0.034,0s-0.003,0-0.013,0c-0.011,0-0.027,0-0.046,0
	C66.803,26.466,66.782,26.466,66.761,26.466L66.761,26.466L66.761,26.466L66.761,26.466L66.761,26.466z M70.14,28.24
	c-0.211,0-0.417,0.048-0.61,0.135c-0.193,0.087-0.372,0.214-0.531,0.372c-0.158,0.158-0.296,0.349-0.404,0.562
	c-0.108,0.214-0.187,0.451-0.23,0.705c-0.042,0.275-0.037,0.544,0.009,0.795s0.133,0.483,0.254,0.684
	c0.121,0.201,0.277,0.37,0.46,0.494c0.183,0.124,0.395,0.203,0.627,0.224s0.459-0.011,0.671-0.087
	c0.211-0.077,0.407-0.198,0.576-0.356c0.169-0.158,0.312-0.354,0.418-0.578c0.106-0.224,0.175-0.478,0.196-0.752
	c0.042-0.275,0.037-0.544-0.009-0.795c-0.046-0.251-0.133-0.483-0.254-0.684s-0.277-0.37-0.461-0.494
	c-0.184-0.124-0.395-0.203-0.627-0.224c0,0,0,0-0.001,0s-0.004,0-0.01,0c-0.005,0-0.014,0-0.025,0
	C70.177,28.24,70.161,28.24,70.14,28.24L70.14,28.24L70.14,28.24L70.14,28.24L70.14,28.24z M73.266,30.353
	c-0.19,0-0.375,0.042-0.548,0.12c-0.173,0.078-0.334,0.191-0.477,0.334c-0.143,0.142-0.267,0.314-0.366,0.508
	c-0.099,0.194-0.173,0.411-0.215,0.643c-0.042,0.253-0.037,0.496,0.007,0.721c0.044,0.224,0.125,0.43,0.236,0.61
	c0.111,0.18,0.251,0.333,0.411,0.451c0.16,0.119,0.339,0.203,0.529,0.246c0.211,0.021,0.417-0.005,0.609-0.073
	s0.368-0.176,0.522-0.319c0.153-0.142,0.282-0.319,0.379-0.524c0.096-0.205,0.16-0.437,0.181-0.69
	c0.042-0.253,0.037-0.496-0.007-0.721s-0.126-0.43-0.237-0.61c-0.111-0.18-0.251-0.333-0.41-0.451
	c-0.16-0.119-0.339-0.203-0.529-0.246c0.021,0,0.032,0,0.034,0s-0.003,0-0.013,0c-0.011,0-0.026,0-0.045,0
	C73.308,30.353,73.287,30.353,73.266,30.353L73.266,30.353L73.266,30.353L73.266,30.353L73.266,30.353z M60.509,31.113
	c-0.549,0-1.083,0.037-1.591,0.115s-0.992,0.197-1.441,0.36c-0.449,0.164-0.863,0.373-1.234,0.63
	c-0.371,0.257-0.698,0.564-0.973,0.923c0.084-0.021,0.164-0.042,0.24-0.063c0.077-0.021,0.15-0.042,0.224-0.063
	s0.148-0.042,0.224-0.063c0.077-0.021,0.156-0.042,0.24-0.063c0.084,0,0.169,0,0.252,0.001c0.083,0.001,0.165,0.004,0.244,0.01
	c0.079,0.005,0.156,0.013,0.228,0.025c0.073,0.012,0.141,0.028,0.205,0.049c0.084,0,0.164,0,0.239,0.001
	c0.075,0.001,0.146,0.004,0.215,0.01c0.069,0.005,0.135,0.013,0.2,0.025s0.128,0.028,0.191,0.049l0,0l0,0l0,0l0,0l0,0l0,0l0,0l0,0
	c0.063,0.021,0.132,0.048,0.203,0.078c0.071,0.03,0.145,0.065,0.219,0.101c0.074,0.037,0.148,0.077,0.219,0.118
	c0.071,0.041,0.14,0.083,0.203,0.125c0.211,0.106,0.417,0.222,0.615,0.35c0.198,0.128,0.388,0.268,0.568,0.421
	c0.18,0.153,0.349,0.32,0.504,0.501c0.156,0.181,0.298,0.376,0.425,0.588l0.655,1.119l0.655,1.119l0.655,1.119l0.655,1.119
	c0.148,0.275,0.269,0.554,0.364,0.837c0.095,0.283,0.164,0.568,0.206,0.853c0.042,0.285,0.058,0.57,0.048,0.853
	c-0.011,0.283-0.048,0.562-0.111,0.837c0,0.063,0,0.121-0.001,0.177s-0.004,0.108-0.01,0.161c-0.005,0.053-0.013,0.106-0.025,0.161
	c-0.012,0.055-0.028,0.114-0.049,0.177l-0.676,2.598l-0.676,2.598l-0.676,2.598l-0.676,2.598c-0.127,0.507-0.343,0.972-0.628,1.382
	c-0.285,0.411-0.639,0.767-1.04,1.058c-0.401,0.29-0.85,0.515-1.325,0.661c-0.475,0.146-0.977,0.215-1.484,0.194
	c-0.021,0.063-0.037,0.121-0.05,0.177c-0.013,0.055-0.024,0.108-0.034,0.161c-0.011,0.053-0.021,0.106-0.034,0.161
	c-0.013,0.055-0.029,0.114-0.05,0.177c-0.106,0.232-0.206,0.47-0.3,0.711c-0.094,0.242-0.181,0.487-0.26,0.735
	c-0.079,0.248-0.151,0.499-0.212,0.751c-0.062,0.252-0.114,0.506-0.157,0.759c-0.169,1.162-0.132,2.302,0.081,3.368
	c0.213,1.065,0.601,2.056,1.134,2.917c0.534,0.861,1.212,1.592,2.005,2.14c0.793,0.548,1.701,0.912,2.694,1.039
	c0.972,0.148,1.933,0.048,2.838-0.26c0.906-0.308,1.756-0.823,2.506-1.504c0.75-0.681,1.399-1.528,1.904-2.501
	s0.863-2.071,1.032-3.254c0.148-1.394,0.327-2.799,0.524-4.209c0.197-1.41,0.41-2.825,0.627-4.24c0.217-1.415,0.436-2.83,0.643-4.24
	s0.403-2.815,0.572-4.209c0.063-0.591,0.121-1.199,0.174-1.814c0.053-0.615,0.1-1.238,0.143-1.861
	c0.042-0.623,0.079-1.246,0.111-1.861c0.032-0.615,0.058-1.222,0.079-1.814c0.106-1.014-0.259-2.007-0.952-2.925
	c-0.693-0.919-1.715-1.764-2.924-2.482c-1.209-0.718-2.606-1.31-4.048-1.721C63.392,31.345,61.903,31.113,60.509,31.113
	L60.509,31.113L60.509,31.113L60.509,31.113L60.509,31.113z M56.791,37.957l-0.655,0.38l-0.655,0.38l-0.655,0.38l-0.655,0.38
	c0.063,0.338,0.137,0.676,0.223,1.011c0.086,0.335,0.183,0.668,0.294,0.995c0.111,0.327,0.235,0.65,0.374,0.964
	s0.292,0.62,0.461,0.916c0.232,0.444,0.449,0.898,0.648,1.362c0.199,0.465,0.381,0.94,0.545,1.426s0.309,0.982,0.434,1.489
	s0.231,1.024,0.316,1.552l0.444-1.648l0.444-1.648l0.444-1.648l0.444-1.648c0-0.021,0-0.048,0-0.077c0-0.029,0-0.061,0-0.092
	c0-0.032,0-0.063,0-0.092c0-0.029,0-0.055,0-0.077l-0.613-1.077l-0.613-1.077l-0.613-1.077L56.791,37.957z"/>
<path id="path8326" inkscape:connector-curvature="0" inkscape:export-filename="C:\Users\Charlotte Abel\Documents\Symbology\Components\For Distribution\health-and-medical-icon_fatality-management-gray.png" inkscape:export-xdpi="300.00458" inkscape:export-ydpi="300.00458" style="fill:#003366;" d="
	M57.467,35.506c-0.148-0.042-0.296-0.069-0.444-0.079c-0.148-0.011-0.296-0.005-0.444,0.016s-0.296,0.058-0.444,0.111
	c-0.148,0.053-0.296,0.121-0.444,0.206l-1.119,0.655l-1.119,0.655l-1.119,0.655l-1.119,0.655c-0.127,0.084-0.243,0.174-0.349,0.269
	c-0.106,0.095-0.201,0.195-0.285,0.301s-0.158,0.216-0.222,0.333c-0.063,0.116-0.116,0.238-0.158,0.364
	c-0.021,0.042-0.042,0.079-0.062,0.114c-0.02,0.034-0.038,0.066-0.054,0.098c-0.016,0.032-0.029,0.063-0.038,0.098
	c-0.009,0.034-0.014,0.071-0.014,0.114l-0.697,2.598l-0.697,2.598l-0.697,2.598l-0.697,2.598c-0.063,0.275-0.074,0.544-0.037,0.799
	s0.121,0.495,0.248,0.711c0.127,0.216,0.296,0.409,0.502,0.569s0.449,0.287,0.723,0.371l1.964,0.528l1.964,0.528l1.964,0.528
	l1.964,0.528c0.275,0.063,0.544,0.074,0.799,0.037c0.255-0.037,0.495-0.121,0.711-0.248c0.217-0.127,0.41-0.296,0.569-0.502
	c0.16-0.206,0.287-0.449,0.371-0.723l0.697-2.598l0.697-2.598l0.697-2.598l0.697-2.598c0.021-0.042,0.037-0.084,0.049-0.127
	c0.012-0.042,0.02-0.084,0.025-0.127c0.005-0.042,0.008-0.084,0.009-0.127c0.001-0.042,0.001-0.084,0.001-0.127
	c0.021-0.127,0.032-0.259,0.032-0.393s-0.011-0.272-0.032-0.409c-0.021-0.137-0.053-0.275-0.095-0.409
	c-0.042-0.135-0.095-0.267-0.158-0.393l-0.697-1.141l-0.697-1.141l-0.697-1.141l-0.697-1.141c-0.063-0.127-0.143-0.248-0.235-0.36
	c-0.092-0.112-0.198-0.215-0.314-0.305c-0.116-0.09-0.243-0.167-0.378-0.226C57.757,35.57,57.615,35.528,57.467,35.506
	L57.467,35.506L57.467,35.506L57.467,35.506L57.467,35.506z"/>
</svg>
