<?xml version="1.0" encoding="iso-8859-1"?>
<!-- Generator: Adobe Illustrator 25.4.1, SVG Export Plug-In . SVG Version: 6.00 Build 0)  -->
<svg version="1.1"
	 id="svg8" xmlns:cc="http://creativecommons.org/ns#" xmlns:dc="http://purl.org/dc/elements/1.1/" xmlns:inkscape="http://www.inkscape.org/namespaces/inkscape" xmlns:rdf="http://www.w3.org/1999/02/22-rdf-syntax-ns#" xmlns:sodipodi="http://sodipodi.sourceforge.net/DTD/sodipodi-0.dtd" xmlns:svg="http://www.w3.org/2000/svg"
	 xmlns="http://www.w3.org/2000/svg" xmlns:xlink="http://www.w3.org/1999/xlink" x="0px" y="0px" viewBox="0 0 100 100"
	 style="enable-background:new 0 0 100 100;" xml:space="preserve">
<sodipodi:namedview  bordercolor="#666666" borderopacity="1.0" id="base" inkscape:current-layer="g3043" inkscape:cx="-302.11164" inkscape:cy="84.283015" inkscape:document-units="px" inkscape:guide-bbox="true" inkscape:lockguides="true" inkscape:pageopacity="0.0" inkscape:pageshadow="2" inkscape:window-height="657" inkscape:window-maximized="1" inkscape:window-width="1280" inkscape:window-x="-8" inkscape:window-y="-8" inkscape:zoom="0.765625" pagecolor="#ffffff" showgrid="false" showguides="false" units="px">
	<sodipodi:guide  id="guide5700" inkscape:locked="true" orientation="0,1" position="-0.93017576,23.874511"></sodipodi:guide>
	<sodipodi:guide  id="guide5726" inkscape:locked="true" orientation="0,1" position="-26.098869,26.473047"></sodipodi:guide>
	<sodipodi:guide  id="guide5880" inkscape:locked="true" orientation="0,1" position="104.51042,-2.9104167"></sodipodi:guide>
	<sodipodi:guide  id="guide6001" inkscape:locked="true" orientation="0,1" position="-71.093695,29.279377"></sodipodi:guide>
	<sodipodi:guide  id="guide6005" inkscape:locked="true" orientation="0,1" position="-46.304445,58.278122"></sodipodi:guide>
	<sodipodi:guide  id="guide6736" inkscape:locked="true" orientation="0,1" position="-0.10335287,20.205485"></sodipodi:guide>
	<sodipodi:guide  id="guide6738" inkscape:locked="true" orientation="0,1" position="-0.43848907,22.874513"></sodipodi:guide>
	<inkscape:grid  id="grid2386" type="xygrid"></inkscape:grid>
</sodipodi:namedview>
<g id="g1180" transform="translate(0,-229.2666)" inkscape:groupmode="layer" inkscape:label="halo:always" style="display:none;">
	<g id="g1210" inkscape:groupmode="layer" inkscape:label="-gray-halo:iter3" style="display:inline;">
		<g id="circle1208">
			<path style="fill:#919395;" d="M50,329.3c-27.6,0-50-22.4-50-50s22.4-50,50-50s50,22.4,50,50S77.6,329.3,50,329.3z M50,237.9
				c-22.8,0-41.4,18.6-41.4,41.4s18.6,41.4,41.4,41.4s41.4-18.6,41.4-41.4S72.8,237.9,50,237.9z"/>
		</g>
	</g>
	<g id="g1206" inkscape:groupmode="layer" inkscape:label="-red-halo:iter3" style="display:inline;">
		<g id="circle1204">
			<path style="fill:#C52038;" d="M50,329.3c-27.6,0-50-22.4-50-50s22.4-50,50-50s50,22.4,50,50S77.6,329.3,50,329.3z M50,237.9
				c-22.8,0-41.4,18.6-41.4,41.4s18.6,41.4,41.4,41.4s41.4-18.6,41.4-41.4S72.8,237.9,50,237.9z"/>
		</g>
	</g>
	<g id="g1202" inkscape:groupmode="layer" inkscape:label="-green-halo:iter3" style="display:inline;">
		<g id="circle1200">
			<path style="fill:#5E9C42;" d="M50,329.3c-27.6,0-50-22.4-50-50s22.4-50,50-50s50,22.4,50,50S77.6,329.3,50,329.3z M50,237.9
				c-22.8,0-41.4,18.6-41.4,41.4s18.6,41.4,41.4,41.4s41.4-18.6,41.4-41.4S72.8,237.9,50,237.9z"/>
		</g>
	</g>
	<g id="layer18" inkscape:groupmode="layer" inkscape:label="-yellow-halo:iter3" style="display:inline;">
		<g id="circle1178-4">
			<path style="fill:#FBBA16;" d="M50,329.3c-27.6,0-50-22.4-50-50s22.4-50,50-50s50,22.4,50,50S77.6,329.3,50,329.3z M50,237.9
				c-22.8,0-41.4,18.6-41.4,41.4s18.6,41.4,41.4,41.4s41.4-18.6,41.4-41.4S72.8,237.9,50,237.9z"/>
		</g>
	</g>
</g>
<path id="path3029" inkscape:connector-curvature="0" style="fill:#003366;" d="M65.689,45.376l-7.836,0.008l-7.836,0.008
	l-7.836,0.008l-7.836,0.008l-0.084,0.042l-0.084,0.042l-0.084,0.042l-0.084,0.042c-0.319,0.503-0.64,1.005-0.961,1.505
	c-0.321,0.5-0.643,0.999-0.964,1.499c-0.321,0.499-0.641,0.998-0.958,1.499s-0.632,1.002-0.942,1.505l0.076,0.151l0.076,0.151
	l0.076,0.151l0.076,0.151h0.025h0.025h0.025h0.025l0,0l0,0l0,0l0,0c3.239,0.008,6.479,0.017,9.721,0.023
	c3.242,0.006,6.484,0.01,9.727,0.01c3.243,0,6.485-0.004,9.727-0.015s6.482-0.027,9.721-0.052l0.084-0.151l0.084-0.151l0.084-0.151
	l0.084-0.151c-0.31-0.512-0.625-1.019-0.942-1.524s-0.637-1.007-0.958-1.508s-0.643-1.002-0.964-1.502
	c-0.322-0.501-0.643-1.002-0.961-1.506l-0.076-0.034l-0.076-0.034l-0.076-0.034L65.689,45.376z"/>
<path id="path3031" inkscape:connector-curvature="0" style="fill:#003366;" d="M34.546,43.832c0.017-0.252,0.078-1.296,0.159-2.728
	s0.185-3.252,0.285-5.053c0.101-1.802,0.199-3.586,0.273-4.947c0.073-1.361,0.122-2.298,0.122-2.407v-0.084v-0.084v-0.084v-0.084
	h0.336h0.336h0.336h0.336c0.319,0,0.562,0,0.748,0.003c0.186,0.003,0.314,0.008,0.402,0.018c0.088,0.011,0.136,0.026,0.163,0.05
	c0.026,0.024,0.03,0.055,0.03,0.097c0,0.025,0.013,0.271,0.035,0.692c0.023,0.422,0.055,1.019,0.095,1.749
	c0.04,0.73,0.087,1.592,0.139,2.542c0.052,0.95,0.109,1.988,0.167,3.071c0.059,1.082,0.115,2.116,0.167,3.06
	s0.099,1.796,0.139,2.515c0.04,0.72,0.072,1.306,0.095,1.716c0.023,0.411,0.035,0.646,0.035,0.662c0,0.008-0.063,0.017-0.177,0.025
	s-0.279,0.015-0.482,0.022c-0.203,0.006-0.446,0.011-0.715,0.015c-0.269,0.004-0.565,0.006-0.875,0.006h-0.562h-0.562h-0.562h-0.562
	l0.025-0.193l0.025-0.193l0.025-0.193L34.546,43.832z"/>
<path id="path3033" inkscape:connector-curvature="0" style="fill:#003366;" d="M43.439,43.832c0.017-0.176,0.078-1.204,0.159-2.652
	c0.082-1.448,0.185-3.316,0.285-5.172c0.101-1.856,0.199-3.701,0.273-5.103c0.073-1.402,0.122-2.36,0.122-2.444
	c0-0.034,0.013-0.059,0.049-0.078s0.096-0.031,0.19-0.04c0.094-0.008,0.223-0.013,0.398-0.015s0.395-0.002,0.672-0.002h0.327h0.327
	h0.327h0.327l0.017,0.201l0.017,0.201l0.017,0.201l0.017,0.201c0.008,0.159,0.065,1.185,0.145,2.638
	c0.08,1.453,0.184,3.332,0.287,5.199c0.103,1.867,0.205,3.721,0.281,5.123c0.076,1.402,0.126,2.352,0.126,2.411
	c0,0.008-0.061,0.017-0.171,0.025c-0.11,0.008-0.27,0.015-0.467,0.022c-0.197,0.006-0.432,0.011-0.693,0.015
	s-0.548,0.006-0.851,0.006h-0.545h-0.545h-0.545h-0.545v-0.185v-0.185l0-0.185L43.439,43.832z"/>
<path id="path3035" inkscape:connector-curvature="0" style="fill:#003366;" d="M52.332,43.832c0.017-0.176,0.078-1.204,0.159-2.652
	c0.082-1.448,0.185-3.316,0.285-5.172c0.101-1.856,0.199-3.701,0.273-5.103c0.073-1.402,0.122-2.36,0.122-2.444
	c0-0.034,0.013-0.059,0.049-0.078s0.096-0.031,0.19-0.04c0.094-0.008,0.223-0.013,0.398-0.015c0.175-0.002,0.395-0.002,0.672-0.002
	h0.327h0.327h0.327h0.327l0.017,0.201l0.017,0.201l0.017,0.201l0.017,0.201c0.008,0.159,0.065,1.185,0.145,2.638
	c0.08,1.453,0.184,3.332,0.287,5.199c0.103,1.867,0.204,3.721,0.281,5.123c0.076,1.402,0.127,2.352,0.127,2.411
	c0,0.008-0.061,0.017-0.171,0.025c-0.11,0.008-0.27,0.015-0.467,0.022c-0.197,0.006-0.432,0.011-0.693,0.015
	c-0.261,0.004-0.548,0.006-0.851,0.006h-0.545h-0.545h-0.545h-0.545v-0.185v-0.185c0,0,0-0.092,0-0.185
	C52.332,43.925,52.332,43.832,52.332,43.832z"/>
<path id="path3037" inkscape:connector-curvature="0" style="fill:#003366;" d="M61.159,43.832c0.017-0.252,0.078-1.296,0.159-2.728
	s0.185-3.252,0.285-5.053c0.101-1.802,0.199-3.586,0.273-4.947c0.073-1.361,0.122-2.298,0.122-2.407v-0.084v-0.084v-0.084v-0.084
	h0.336h0.336h0.336h0.336c0.319,0,0.562,0,0.748,0.003c0.186,0.003,0.314,0.008,0.402,0.018c0.088,0.01,0.136,0.026,0.163,0.05
	c0.026,0.024,0.03,0.055,0.03,0.097c0,0.025,0.013,0.271,0.035,0.692c0.023,0.422,0.055,1.019,0.095,1.749
	c0.04,0.73,0.087,1.592,0.139,2.542s0.109,1.988,0.167,3.071c0.059,1.082,0.115,2.116,0.167,3.06
	c0.052,0.943,0.099,1.796,0.139,2.515c0.04,0.72,0.072,1.306,0.095,1.716c0.023,0.411,0.035,0.646,0.035,0.662
	c0,0.008-0.063,0.017-0.177,0.025c-0.114,0.008-0.279,0.015-0.482,0.022c-0.203,0.006-0.446,0.011-0.715,0.015
	c-0.269,0.004-0.565,0.006-0.875,0.006h-0.562h-0.562H61.62h-0.562l0.025-0.193l0.025-0.193l0.025-0.193L61.159,43.832z"/>
<path id="path3039" inkscape:connector-curvature="0" style="fill:#003366;" d="M50.05,20.005l-2.249,0.822l-2.249,0.822
	l-2.249,0.822l-2.249,0.822c-1.217,0.445-2.391,0.875-3.473,1.271c-1.082,0.396-2.072,0.759-2.92,1.07
	c-0.847,0.31-1.552,0.568-2.064,0.755c-0.512,0.187-0.831,0.302-0.906,0.327c-0.008,0-0.017,0.002-0.025,0.005
	c-0.008,0.003-0.017,0.007-0.025,0.012c-0.008,0.004-0.017,0.008-0.025,0.012c-0.008,0.003-0.017,0.005-0.025,0.005
	c-0.008,0-0.015,0.002-0.02,0.006c-0.006,0.004-0.011,0.009-0.017,0.015c-0.006,0.006-0.014,0.014-0.023,0.022
	c-0.01,0.008-0.023,0.016-0.039,0.025c-0.008,0.008-0.019,0.017-0.031,0.027c-0.012,0.01-0.026,0.023-0.04,0.04
	c-0.015,0.017-0.031,0.038-0.047,0.065c-0.016,0.027-0.033,0.061-0.05,0.103c-0.008,0.042-0.008,0.084-0.003,0.124
	c0.006,0.04,0.017,0.079,0.032,0.115c0.015,0.036,0.033,0.068,0.051,0.096s0.037,0.051,0.054,0.068
	c0.017,0.017,0.031,0.029,0.045,0.039c0.014,0.009,0.026,0.016,0.039,0.02c0.013,0.004,0.025,0.006,0.039,0.007
	s0.028,0.001,0.045,0.001c0.017,0.008,0.034,0.015,0.05,0.019c0.017,0.005,0.034,0.008,0.05,0.01
	c0.017,0.002,0.034,0.003,0.05,0.004c0.017,0.001,0.034,0.001,0.05,0.001c0.067,0.008,0.153,0.015,0.262,0.02
	c0.109,0.005,0.241,0.009,0.401,0.014c0.159,0.004,0.346,0.008,0.564,0.014s0.468,0.012,0.753,0.02
	c0.579,0.008,1.305,0.015,2.212,0.019c0.907,0.005,1.996,0.008,3.3,0.01c1.305,0.002,2.825,0.003,4.597,0.004
	s3.793,0.001,6.101,0.001c1.946,0,3.698,0,5.272-0.001s2.971-0.002,4.209-0.004c1.238-0.002,2.316-0.005,3.252-0.01
	c0.937-0.005,1.731-0.011,2.403-0.019c0.336,0,0.64-0.002,0.915-0.005c0.275-0.003,0.522-0.007,0.742-0.012
	c0.22-0.004,0.414-0.008,0.585-0.012c0.17-0.003,0.317-0.005,0.443-0.005c0.059,0,0.113-0.002,0.164-0.005
	c0.05-0.003,0.096-0.007,0.138-0.012c0.042-0.004,0.08-0.008,0.113-0.012c0.034-0.003,0.063-0.005,0.088-0.005
	c0.017,0,0.029,0.002,0.041,0.004c0.012,0.002,0.024,0.003,0.038,0.001c0.015-0.002,0.033-0.007,0.057-0.018
	c0.025-0.011,0.056-0.028,0.098-0.053c0.008-0.008,0.019-0.017,0.031-0.026c0.012-0.009,0.026-0.02,0.041-0.033
	c0.015-0.013,0.03-0.027,0.047-0.045c0.016-0.018,0.033-0.039,0.05-0.064s0.027-0.057,0.033-0.091
	c0.005-0.034,0.005-0.071,0.001-0.106c-0.004-0.036-0.013-0.07-0.024-0.1c-0.012-0.03-0.026-0.055-0.043-0.072
	c-0.025-0.042-0.048-0.071-0.069-0.092s-0.04-0.034-0.057-0.042s-0.031-0.013-0.044-0.017c-0.013-0.004-0.023-0.008-0.031-0.017
	c-0.059-0.025-0.363-0.138-0.863-0.322s-1.197-0.439-2.04-0.747c-0.843-0.308-1.833-0.67-2.921-1.068
	c-1.088-0.398-2.273-0.832-3.506-1.285l-2.282-0.839l-2.282-0.839l-2.282-0.839L50.05,20.005z"/>
<path id="path12704" style="fill:#003366;" d="M31.525,67.566v-0.293v-0.293v-0.293v-0.293h0.62h0.62h0.62h0.62v0.696v0.696v0.696
	v0.696c-0.059,0.075-0.126,0.147-0.201,0.215c-0.075,0.068-0.158,0.133-0.248,0.196c-0.09,0.063-0.188,0.124-0.292,0.183
	c-0.104,0.06-0.215,0.118-0.333,0.177c-0.117,0.05-0.233,0.096-0.347,0.137c-0.114,0.041-0.227,0.076-0.341,0.106
	c-0.113,0.029-0.226,0.052-0.341,0.068c-0.114,0.016-0.229,0.024-0.347,0.024c-0.143,0-0.281-0.008-0.415-0.025
	c-0.134-0.017-0.264-0.042-0.39-0.075s-0.247-0.075-0.365-0.126c-0.117-0.05-0.231-0.109-0.34-0.176s-0.212-0.145-0.309-0.232
	c-0.097-0.087-0.188-0.183-0.274-0.288c-0.086-0.105-0.167-0.218-0.243-0.338c-0.076-0.121-0.147-0.248-0.214-0.382
	c-0.059-0.143-0.111-0.289-0.157-0.441c-0.046-0.151-0.084-0.307-0.116-0.469c-0.032-0.161-0.056-0.328-0.072-0.5
	s-0.024-0.351-0.024-0.535c0-0.193,0.008-0.377,0.025-0.554c0.016-0.177,0.04-0.347,0.072-0.51c0.032-0.163,0.07-0.321,0.116-0.473
	c0.046-0.152,0.098-0.299,0.156-0.441c0.067-0.134,0.138-0.26,0.214-0.377c0.075-0.117,0.155-0.226,0.239-0.327
	c0.084-0.101,0.172-0.193,0.264-0.277s0.189-0.159,0.289-0.226c0.101-0.067,0.207-0.126,0.32-0.176s0.231-0.092,0.355-0.126
	s0.252-0.059,0.386-0.075c0.134-0.017,0.272-0.025,0.414-0.025c0.168,0,0.329,0.01,0.483,0.032s0.301,0.054,0.439,0.098
	c0.138,0.044,0.268,0.099,0.389,0.167s0.232,0.147,0.332,0.239c0.101,0.084,0.193,0.178,0.277,0.283
	c0.084,0.105,0.159,0.222,0.226,0.349c0.067,0.128,0.126,0.267,0.176,0.419s0.092,0.315,0.126,0.491l-0.285,0.067l-0.285,0.067
	l-0.285,0.067l-0.285,0.067c-0.025-0.092-0.052-0.178-0.083-0.258c-0.03-0.08-0.064-0.155-0.102-0.224s-0.08-0.133-0.127-0.192
	c-0.047-0.059-0.1-0.114-0.158-0.164c-0.059-0.05-0.119-0.094-0.182-0.132c-0.063-0.038-0.128-0.069-0.195-0.094
	c-0.067-0.025-0.136-0.044-0.207-0.057c-0.071-0.013-0.145-0.019-0.22-0.019c-0.126,0-0.245,0.013-0.358,0.037
	c-0.113,0.025-0.22,0.061-0.321,0.11s-0.195,0.108-0.283,0.179c-0.088,0.071-0.17,0.152-0.245,0.244
	c-0.075,0.092-0.143,0.199-0.201,0.32c-0.058,0.121-0.107,0.255-0.147,0.401c-0.04,0.147-0.07,0.306-0.09,0.477
	s-0.031,0.353-0.031,0.546c0,0.21,0.01,0.407,0.031,0.591c0.021,0.184,0.052,0.356,0.094,0.516s0.094,0.306,0.157,0.44
	c0.063,0.134,0.136,0.256,0.22,0.365c0.067,0.092,0.143,0.174,0.225,0.245c0.083,0.071,0.173,0.131,0.269,0.179
	c0.096,0.048,0.199,0.085,0.307,0.109c0.108,0.025,0.221,0.037,0.338,0.037c0.059,0,0.117-0.004,0.176-0.012
	s0.117-0.019,0.176-0.034c0.059-0.015,0.117-0.032,0.176-0.053c0.059-0.02,0.117-0.044,0.176-0.069
	c0.059-0.025,0.117-0.054,0.175-0.087c0.058-0.032,0.114-0.068,0.169-0.106c0.054-0.038,0.107-0.078,0.156-0.118
	c0.049-0.041,0.095-0.083,0.137-0.125v-0.218v-0.218v-0.218v-0.218l-0.327-0.017L32.178,67.6l-0.327-0.017L31.525,67.566
	L31.525,67.566L31.525,67.566L31.525,67.566L31.525,67.566z"/>
<path id="path12706" style="fill:#003366;" d="M34.408,67.532c0-0.126,0.006-0.247,0.019-0.365c0.013-0.118,0.031-0.232,0.057-0.343
	c0.025-0.111,0.057-0.219,0.094-0.324c0.038-0.105,0.082-0.208,0.132-0.308c0.05-0.101,0.105-0.195,0.163-0.283
	c0.058-0.088,0.12-0.17,0.185-0.245c0.065-0.075,0.133-0.145,0.204-0.207c0.071-0.063,0.144-0.119,0.22-0.17
	c0.075-0.05,0.155-0.094,0.238-0.132c0.083-0.038,0.17-0.069,0.261-0.094c0.09-0.025,0.183-0.044,0.279-0.057
	c0.096-0.013,0.194-0.019,0.295-0.019c0.168,0,0.325,0.017,0.473,0.05c0.148,0.033,0.286,0.082,0.416,0.147
	c0.13,0.065,0.251,0.146,0.366,0.242s0.221,0.207,0.322,0.333c0.092,0.134,0.174,0.272,0.245,0.415
	c0.071,0.143,0.13,0.289,0.179,0.44c0.048,0.151,0.085,0.306,0.11,0.465c0.025,0.159,0.037,0.323,0.037,0.49
	c0,0.134-0.006,0.264-0.019,0.39c-0.013,0.126-0.031,0.247-0.057,0.365c-0.025,0.117-0.057,0.231-0.094,0.34
	c-0.038,0.109-0.082,0.214-0.132,0.314s-0.105,0.197-0.163,0.288c-0.058,0.091-0.12,0.177-0.185,0.257
	c-0.065,0.08-0.133,0.153-0.204,0.219c-0.071,0.066-0.144,0.125-0.22,0.175c-0.084,0.05-0.168,0.094-0.252,0.132
	c-0.084,0.038-0.169,0.069-0.255,0.094c-0.086,0.025-0.173,0.044-0.262,0.057c-0.089,0.013-0.179,0.019-0.271,0.019
	c-0.151,0-0.298-0.015-0.439-0.044c-0.141-0.029-0.278-0.073-0.408-0.132c-0.13-0.059-0.254-0.132-0.37-0.22
	c-0.116-0.088-0.225-0.191-0.326-0.308c-0.109-0.117-0.203-0.247-0.283-0.389s-0.146-0.296-0.198-0.461
	c-0.052-0.166-0.091-0.343-0.117-0.531C34.421,67.941,34.408,67.742,34.408,67.532z M35.515,67.599c0,0.126,0.006,0.245,0.019,0.358
	c0.013,0.113,0.031,0.218,0.057,0.317c0.025,0.098,0.057,0.19,0.094,0.273s0.082,0.159,0.132,0.226s0.103,0.126,0.158,0.176
	c0.055,0.05,0.113,0.092,0.174,0.126c0.061,0.034,0.125,0.059,0.192,0.075c0.068,0.017,0.139,0.025,0.214,0.025
	c0.067,0,0.132-0.008,0.195-0.025c0.063-0.017,0.124-0.042,0.182-0.075s0.115-0.075,0.17-0.126c0.054-0.05,0.107-0.109,0.157-0.176
	s0.094-0.14,0.132-0.221c0.038-0.081,0.069-0.169,0.094-0.265c0.025-0.096,0.044-0.201,0.057-0.315
	c0.013-0.114,0.019-0.238,0.019-0.372c0-0.126-0.006-0.243-0.019-0.353c-0.013-0.11-0.031-0.211-0.057-0.306
	c-0.025-0.094-0.057-0.181-0.094-0.261s-0.082-0.153-0.132-0.221c-0.05-0.067-0.103-0.126-0.157-0.176
	c-0.054-0.05-0.111-0.092-0.17-0.126s-0.119-0.059-0.182-0.075c-0.063-0.017-0.128-0.025-0.195-0.025
	c-0.067,0-0.132,0.008-0.195,0.025c-0.063,0.017-0.124,0.042-0.182,0.075c-0.059,0.034-0.115,0.075-0.17,0.126
	c-0.054,0.05-0.107,0.109-0.157,0.176c-0.059,0.059-0.109,0.128-0.151,0.206s-0.077,0.167-0.104,0.263
	c-0.027,0.097-0.047,0.201-0.06,0.314C35.521,67.354,35.515,67.474,35.515,67.599L35.515,67.599L35.515,67.599L35.515,67.599
	L35.515,67.599z"/>
<path id="path12708" style="fill:#003366;" d="M40.243,70.114l-0.419-1.266l-0.419-1.266l-0.419-1.266l-0.419-1.266h0.285h0.285
	h0.285h0.285l0.193,0.645l0.193,0.645l0.193,0.645l0.193,0.645l0.059,0.218l0.059,0.218l0.059,0.218l0.059,0.218l0.059-0.218
	l0.059-0.218l0.059-0.218l0.059-0.218l0.201-0.645l0.201-0.645l0.201-0.645l0.201-0.645h0.277h0.277h0.277h0.277l-0.411,1.266
	l-0.411,1.266l-0.411,1.266l-0.411,1.266h-0.243h-0.243h-0.243H40.243z"/>
<path id="path12710" style="fill:#003366;" d="M45.541,68.505l0.268,0.059l0.268,0.059l0.268,0.059l0.268,0.059
	c-0.034,0.126-0.073,0.243-0.119,0.353c-0.046,0.11-0.097,0.211-0.153,0.306c-0.057,0.094-0.118,0.181-0.185,0.261
	c-0.067,0.08-0.138,0.153-0.213,0.221c-0.075,0.059-0.155,0.111-0.239,0.157c-0.084,0.046-0.172,0.084-0.264,0.116
	c-0.092,0.031-0.189,0.055-0.289,0.072s-0.205,0.025-0.314,0.025c-0.151,0-0.293-0.013-0.428-0.038
	c-0.134-0.025-0.26-0.063-0.377-0.113c-0.117-0.05-0.226-0.113-0.327-0.189c-0.101-0.075-0.193-0.163-0.277-0.264
	c-0.101-0.117-0.189-0.247-0.264-0.39c-0.075-0.143-0.138-0.298-0.189-0.465s-0.088-0.348-0.113-0.541
	c-0.025-0.193-0.038-0.398-0.038-0.616c0-0.21,0.013-0.409,0.038-0.597c0.025-0.189,0.063-0.367,0.113-0.534
	s0.113-0.325,0.189-0.472s0.163-0.283,0.264-0.409c0.084-0.109,0.174-0.203,0.27-0.283c0.096-0.08,0.199-0.146,0.308-0.199
	c0.109-0.052,0.224-0.091,0.346-0.117s0.249-0.038,0.384-0.038c0.151,0,0.293,0.015,0.428,0.043c0.134,0.029,0.26,0.072,0.377,0.128
	c0.117,0.057,0.226,0.127,0.327,0.21s0.193,0.18,0.277,0.289c0.101,0.126,0.187,0.266,0.259,0.421
	c0.072,0.155,0.131,0.325,0.177,0.509c0.046,0.184,0.08,0.384,0.102,0.597c0.022,0.214,0.032,0.442,0.032,0.685v0.042v0.042v0.042
	v0.042h-0.687H45.34h-0.687h-0.687c0,0.101,0.006,0.195,0.018,0.283c0.012,0.089,0.03,0.171,0.053,0.249
	c0.023,0.077,0.051,0.15,0.084,0.217s0.071,0.13,0.113,0.189c0.042,0.059,0.086,0.109,0.133,0.151
	c0.047,0.042,0.096,0.077,0.148,0.104c0.052,0.027,0.108,0.047,0.167,0.06c0.059,0.013,0.122,0.019,0.189,0.019
	c0.075-0.017,0.147-0.046,0.213-0.088c0.067-0.042,0.128-0.096,0.185-0.163c0.057-0.067,0.108-0.146,0.154-0.239
	C45.467,68.727,45.507,68.622,45.541,68.505L45.541,68.505L45.541,68.505L45.541,68.505L45.541,68.505z M45.574,67.163
	c0-0.101-0.006-0.195-0.018-0.282c-0.012-0.087-0.03-0.168-0.053-0.241s-0.051-0.139-0.084-0.198
	c-0.033-0.058-0.071-0.109-0.112-0.151c-0.042-0.05-0.084-0.094-0.127-0.132c-0.043-0.038-0.087-0.069-0.133-0.094
	c-0.046-0.025-0.094-0.044-0.146-0.057c-0.051-0.013-0.106-0.019-0.165-0.019s-0.115,0.006-0.169,0.019
	c-0.054,0.013-0.105,0.031-0.154,0.057c-0.048,0.025-0.093,0.057-0.135,0.094c-0.041,0.038-0.079,0.082-0.113,0.132
	c-0.042,0.05-0.078,0.107-0.107,0.169c-0.03,0.062-0.054,0.131-0.073,0.204c-0.019,0.073-0.032,0.152-0.041,0.235
	c-0.009,0.083-0.013,0.171-0.013,0.264h0.411h0.411h0.411L45.574,67.163L45.574,67.163L45.574,67.163z"/>
<path id="path12712" style="fill:#003366;" d="M48.19,70.114h-0.277h-0.277H47.36h-0.277v-1.266v-1.266v-1.266v-1.266h0.251h0.251
	h0.251h0.251v0.176v0.176v0.176v0.176c0.042-0.084,0.084-0.161,0.125-0.232c0.041-0.071,0.082-0.135,0.122-0.191
	c0.04-0.057,0.079-0.106,0.116-0.147c0.037-0.041,0.073-0.075,0.106-0.1c0.034-0.025,0.069-0.048,0.106-0.069
	s0.076-0.038,0.116-0.053c0.04-0.015,0.081-0.026,0.122-0.034c0.041-0.008,0.083-0.012,0.125-0.012c0.059,0,0.119,0.006,0.181,0.018
	s0.123,0.03,0.184,0.053c0.061,0.023,0.121,0.051,0.178,0.084c0.057,0.033,0.112,0.071,0.162,0.113l-0.084,0.293l-0.084,0.293
	l-0.084,0.293l-0.084,0.293c-0.042-0.034-0.084-0.065-0.126-0.093c-0.042-0.028-0.084-0.053-0.126-0.074
	c-0.042-0.021-0.084-0.038-0.126-0.049c-0.042-0.012-0.084-0.018-0.126-0.018c-0.042,0-0.082,0.004-0.119,0.012
	c-0.038,0.008-0.073,0.019-0.107,0.034s-0.065,0.032-0.094,0.053c-0.029,0.02-0.057,0.044-0.082,0.069
	c-0.025,0.025-0.05,0.057-0.074,0.094c-0.024,0.038-0.047,0.082-0.068,0.132c-0.021,0.05-0.04,0.107-0.056,0.17
	c-0.016,0.063-0.028,0.132-0.037,0.207c-0.017,0.075-0.029,0.166-0.039,0.271c-0.009,0.105-0.016,0.226-0.02,0.362
	c-0.004,0.136-0.006,0.288-0.007,0.456c-0.001,0.168-0.001,0.353-0.001,0.554v0.394v0.394v0.394V70.114z"/>
<path id="path12714" style="fill:#003366;" d="M53.555,70.114h-0.277h-0.277h-0.277h-0.277v-0.645v-0.645v-0.645v-0.645
	c0-0.126-0.002-0.243-0.006-0.351c-0.004-0.108-0.009-0.206-0.015-0.294c-0.006-0.088-0.013-0.166-0.021-0.232
	c-0.008-0.066-0.016-0.121-0.025-0.162c-0.008-0.042-0.021-0.082-0.037-0.119c-0.016-0.038-0.035-0.073-0.056-0.107
	c-0.021-0.034-0.044-0.065-0.068-0.094c-0.024-0.029-0.049-0.057-0.074-0.082c-0.025-0.025-0.052-0.046-0.081-0.063
	c-0.029-0.017-0.059-0.031-0.091-0.041c-0.032-0.01-0.064-0.018-0.097-0.023s-0.066-0.007-0.1-0.007
	c-0.042,0-0.084,0.004-0.126,0.012c-0.042,0.008-0.084,0.019-0.126,0.034c-0.042,0.015-0.084,0.032-0.126,0.053
	c-0.042,0.02-0.084,0.044-0.126,0.069c-0.034,0.025-0.067,0.054-0.099,0.088s-0.062,0.071-0.089,0.113
	c-0.027,0.042-0.051,0.088-0.071,0.138c-0.019,0.05-0.034,0.105-0.042,0.163c-0.017,0.05-0.031,0.113-0.044,0.188
	c-0.013,0.075-0.023,0.162-0.031,0.26c-0.008,0.099-0.015,0.209-0.019,0.33c-0.004,0.121-0.006,0.253-0.006,0.396v0.57v0.57v0.57
	v0.57h-0.277h-0.277h-0.277h-0.277v-1.266v-1.266v-1.266v-1.266h0.251h0.251h0.251h0.251v0.184v0.184v0.184v0.184
	c0.042-0.075,0.086-0.145,0.132-0.208c0.046-0.063,0.094-0.121,0.145-0.173c0.05-0.052,0.103-0.1,0.157-0.142s0.111-0.08,0.17-0.114
	c0.059-0.034,0.117-0.063,0.177-0.088s0.12-0.046,0.183-0.063c0.063-0.017,0.128-0.029,0.196-0.038s0.139-0.013,0.215-0.013
	c0.084,0,0.163,0.006,0.239,0.018c0.075,0.012,0.147,0.03,0.214,0.053c0.067,0.023,0.13,0.051,0.189,0.084
	c0.059,0.033,0.113,0.071,0.163,0.113c0.059,0.042,0.111,0.086,0.158,0.133s0.089,0.096,0.127,0.148
	c0.038,0.052,0.071,0.108,0.102,0.167c0.03,0.059,0.058,0.122,0.083,0.189c0.025,0.067,0.046,0.14,0.063,0.221
	s0.031,0.167,0.041,0.262c0.01,0.094,0.018,0.196,0.022,0.305s0.007,0.227,0.007,0.352v0.788v0.788v0.788L53.555,70.114
	L53.555,70.114L53.555,70.114L53.555,70.114L53.555,70.114z"/>
<path id="path12716" style="fill:#003366;" d="M54.158,65.051h0.251h0.251h0.251h0.251v0.176v0.176v0.176v0.176
	c0.042-0.067,0.086-0.13,0.132-0.189c0.046-0.059,0.094-0.113,0.145-0.163c0.05-0.05,0.103-0.096,0.157-0.138
	c0.054-0.042,0.111-0.08,0.17-0.113c0.05-0.034,0.103-0.063,0.157-0.088c0.054-0.025,0.111-0.046,0.17-0.063
	c0.059-0.017,0.119-0.029,0.182-0.038c0.063-0.008,0.128-0.013,0.195-0.013c0.067,0,0.132,0.004,0.195,0.013
	c0.063,0.008,0.124,0.021,0.182,0.038c0.059,0.017,0.115,0.038,0.17,0.063c0.054,0.025,0.107,0.054,0.157,0.088
	s0.098,0.071,0.144,0.113s0.088,0.088,0.128,0.138c0.04,0.05,0.076,0.105,0.109,0.163s0.062,0.122,0.087,0.189
	c0.042-0.067,0.086-0.13,0.132-0.189c0.046-0.059,0.094-0.113,0.145-0.163c0.05-0.05,0.103-0.096,0.157-0.138
	c0.054-0.042,0.111-0.08,0.17-0.113c0.05-0.034,0.103-0.063,0.157-0.088s0.109-0.046,0.166-0.063
	c0.057-0.017,0.114-0.029,0.173-0.038c0.058-0.008,0.117-0.013,0.176-0.013c0.067,0,0.134,0.004,0.2,0.013
	c0.066,0.008,0.131,0.021,0.194,0.038c0.063,0.017,0.124,0.038,0.181,0.063c0.058,0.025,0.112,0.054,0.162,0.088
	c0.05,0.034,0.098,0.071,0.144,0.113s0.089,0.087,0.129,0.135c0.04,0.048,0.076,0.099,0.109,0.153
	c0.033,0.054,0.062,0.111,0.087,0.169c0.025,0.059,0.048,0.128,0.069,0.206c0.02,0.079,0.038,0.167,0.053,0.263
	c0.015,0.096,0.026,0.201,0.034,0.313c0.008,0.112,0.012,0.232,0.012,0.357v0.805v0.805v0.805v0.805h-0.277h-0.277h-0.277h-0.277
	V69.36v-0.721v-0.721v-0.721c0-0.126-0.002-0.241-0.007-0.346c-0.005-0.105-0.012-0.199-0.022-0.283
	c-0.01-0.084-0.024-0.157-0.041-0.22c-0.017-0.063-0.038-0.115-0.063-0.157c-0.025-0.042-0.052-0.08-0.082-0.113
	s-0.062-0.061-0.098-0.084c-0.036-0.023-0.074-0.041-0.117-0.053c-0.042-0.012-0.089-0.018-0.139-0.018
	c-0.059,0-0.115,0.006-0.17,0.019c-0.054,0.013-0.107,0.033-0.157,0.06c-0.05,0.027-0.098,0.062-0.145,0.104
	c-0.046,0.042-0.09,0.093-0.132,0.151c-0.034,0.059-0.065,0.13-0.093,0.215c-0.028,0.085-0.053,0.183-0.074,0.297
	s-0.038,0.241-0.049,0.385c-0.012,0.144-0.018,0.303-0.018,0.479v0.604v0.604v0.604v0.604h-0.277h-0.277H56.95h-0.277v-0.696v-0.696
	V67.96v-0.696c0-0.134-0.002-0.258-0.006-0.37c-0.004-0.113-0.01-0.214-0.019-0.304c-0.008-0.09-0.019-0.169-0.031-0.235
	c-0.013-0.067-0.027-0.121-0.044-0.163c-0.017-0.05-0.04-0.094-0.069-0.132c-0.029-0.038-0.063-0.069-0.103-0.094
	c-0.04-0.025-0.085-0.044-0.135-0.057s-0.104-0.019-0.163-0.019c-0.042,0-0.082,0.004-0.12,0.012
	c-0.038,0.008-0.075,0.019-0.111,0.034c-0.036,0.015-0.07,0.032-0.104,0.053s-0.068,0.044-0.101,0.069
	c-0.034,0.025-0.065,0.054-0.094,0.087c-0.029,0.033-0.057,0.07-0.082,0.109c-0.025,0.04-0.048,0.083-0.069,0.128
	c-0.021,0.046-0.04,0.094-0.057,0.144s-0.031,0.111-0.044,0.181s-0.023,0.15-0.031,0.238c-0.008,0.088-0.015,0.184-0.019,0.288
	c-0.004,0.104-0.006,0.215-0.006,0.332v0.612v0.612v0.612v0.612h-0.277h-0.277h-0.277h-0.277v-1.241v-1.241v-1.24L54.158,65.051
	L54.158,65.051L54.158,65.051L54.158,65.051L54.158,65.051z"/>
<path id="path12718" style="fill:#003366;" d="M63.312,68.505l0.268,0.059l0.268,0.059l0.268,0.059l0.268,0.059
	c-0.034,0.126-0.073,0.243-0.119,0.353s-0.097,0.211-0.153,0.306c-0.057,0.094-0.119,0.181-0.185,0.261
	c-0.067,0.08-0.138,0.153-0.213,0.221c-0.075,0.059-0.155,0.111-0.239,0.157c-0.084,0.046-0.172,0.084-0.264,0.116
	c-0.092,0.031-0.189,0.055-0.289,0.072s-0.205,0.025-0.314,0.025c-0.151,0-0.293-0.013-0.428-0.038
	c-0.134-0.025-0.26-0.063-0.377-0.113c-0.117-0.05-0.226-0.113-0.327-0.189c-0.101-0.075-0.193-0.163-0.277-0.264
	c-0.101-0.117-0.189-0.247-0.264-0.39c-0.075-0.143-0.138-0.298-0.189-0.465s-0.088-0.348-0.113-0.541
	c-0.025-0.193-0.038-0.398-0.038-0.616c0-0.21,0.013-0.409,0.038-0.597c0.025-0.189,0.063-0.367,0.113-0.534
	s0.113-0.325,0.189-0.472c0.075-0.147,0.163-0.283,0.264-0.409c0.084-0.109,0.174-0.203,0.27-0.283
	c0.096-0.08,0.199-0.146,0.308-0.199c0.109-0.052,0.224-0.091,0.346-0.117s0.249-0.038,0.384-0.038c0.151,0,0.293,0.015,0.428,0.043
	c0.134,0.029,0.26,0.072,0.377,0.128c0.117,0.057,0.226,0.127,0.327,0.21s0.193,0.18,0.277,0.289
	c0.101,0.126,0.187,0.266,0.259,0.421c0.072,0.155,0.131,0.325,0.177,0.509c0.046,0.184,0.08,0.384,0.102,0.597
	s0.032,0.442,0.032,0.685v0.042v0.042v0.042v0.042h-0.687h-0.687h-0.687h-0.687c0,0.101,0.006,0.195,0.018,0.283
	c0.012,0.089,0.03,0.171,0.053,0.249c0.023,0.077,0.051,0.15,0.084,0.217s0.071,0.13,0.113,0.189
	c0.042,0.059,0.086,0.109,0.133,0.151c0.047,0.042,0.096,0.077,0.148,0.104c0.052,0.027,0.108,0.047,0.167,0.06
	c0.059,0.013,0.122,0.019,0.189,0.019c0.075-0.017,0.147-0.046,0.213-0.088c0.067-0.042,0.128-0.096,0.185-0.163
	c0.056-0.067,0.108-0.146,0.153-0.239C63.239,68.727,63.279,68.622,63.312,68.505L63.312,68.505L63.312,68.505L63.312,68.505
	L63.312,68.505z M63.379,67.163c0-0.101-0.006-0.195-0.018-0.282c-0.012-0.087-0.03-0.168-0.053-0.241
	c-0.023-0.073-0.051-0.139-0.084-0.198c-0.033-0.058-0.071-0.108-0.113-0.15c-0.042-0.05-0.084-0.094-0.127-0.132
	c-0.043-0.038-0.087-0.069-0.133-0.094s-0.094-0.044-0.146-0.057c-0.051-0.013-0.106-0.019-0.165-0.019s-0.115,0.006-0.169,0.019
	s-0.105,0.031-0.153,0.057c-0.048,0.025-0.093,0.057-0.135,0.094c-0.041,0.038-0.079,0.082-0.113,0.132
	c-0.042,0.05-0.078,0.107-0.107,0.169c-0.03,0.062-0.054,0.131-0.073,0.204c-0.019,0.073-0.033,0.152-0.042,0.235
	c-0.009,0.083-0.013,0.171-0.013,0.264h0.411h0.411h0.411H63.379z"/>
<path id="path12720" style="fill:#003366;" d="M68.677,70.114h-0.277h-0.277h-0.277h-0.277v-0.645v-0.645v-0.645v-0.645
	c0-0.126-0.002-0.243-0.006-0.351c-0.004-0.108-0.009-0.206-0.015-0.294c-0.006-0.088-0.014-0.166-0.021-0.232
	s-0.016-0.121-0.024-0.162c-0.008-0.042-0.021-0.082-0.037-0.119c-0.016-0.038-0.035-0.073-0.056-0.107s-0.044-0.065-0.068-0.094
	c-0.024-0.029-0.049-0.057-0.074-0.082s-0.052-0.046-0.081-0.063c-0.029-0.017-0.059-0.031-0.09-0.041
	c-0.031-0.01-0.064-0.018-0.097-0.023s-0.067-0.007-0.1-0.007c-0.042,0-0.084,0.004-0.126,0.012
	c-0.042,0.008-0.084,0.019-0.126,0.034c-0.042,0.015-0.084,0.032-0.126,0.053s-0.084,0.044-0.126,0.069
	c-0.034,0.025-0.067,0.054-0.099,0.088s-0.062,0.071-0.089,0.113c-0.027,0.042-0.051,0.088-0.071,0.138
	c-0.019,0.05-0.034,0.105-0.042,0.163c-0.017,0.05-0.031,0.113-0.044,0.188c-0.013,0.075-0.023,0.162-0.031,0.26
	c-0.008,0.099-0.015,0.209-0.019,0.33c-0.004,0.121-0.006,0.253-0.006,0.396v0.57v0.57v0.57v0.57h-0.277h-0.277h-0.277h-0.277
	v-1.266v-1.266v-1.266v-1.266h0.251h0.251h0.251h0.251v0.184v0.184v0.184v0.184c0.042-0.075,0.086-0.145,0.132-0.208
	c0.046-0.063,0.094-0.121,0.145-0.173c0.05-0.052,0.103-0.1,0.157-0.142c0.054-0.043,0.111-0.08,0.17-0.114s0.117-0.063,0.177-0.088
	c0.06-0.025,0.12-0.046,0.183-0.063c0.063-0.017,0.128-0.029,0.196-0.038c0.068-0.008,0.139-0.013,0.215-0.013
	c0.084,0,0.163,0.006,0.239,0.018c0.075,0.012,0.147,0.03,0.214,0.053c0.067,0.023,0.13,0.051,0.189,0.084
	c0.059,0.033,0.113,0.071,0.163,0.113c0.059,0.042,0.111,0.086,0.158,0.133c0.047,0.047,0.089,0.096,0.127,0.148
	c0.038,0.052,0.071,0.108,0.102,0.167c0.03,0.059,0.058,0.122,0.083,0.189c0.025,0.067,0.046,0.14,0.063,0.221
	c0.017,0.08,0.031,0.167,0.041,0.262s0.018,0.196,0.022,0.305c0.005,0.109,0.007,0.227,0.007,0.352v0.788v0.788l0,0.788
	L68.677,70.114L68.677,70.114L68.677,70.114L68.677,70.114L68.677,70.114z"/>
<path id="path12722" style="fill:#003366;" d="M71.259,65.051v0.268v0.268v0.268v0.268h-0.184H70.89h-0.184h-0.184v0.511v0.511
	v0.511v0.511c0,0.109,0,0.207,0.001,0.295c0.001,0.087,0.002,0.164,0.004,0.229c0.002,0.065,0.005,0.118,0.01,0.16
	c0.005,0.041,0.011,0.071,0.02,0.087c0.008,0.034,0.021,0.063,0.037,0.088c0.016,0.025,0.036,0.046,0.059,0.063
	c0.023,0.017,0.049,0.029,0.078,0.038c0.029,0.008,0.06,0.013,0.094,0.013c0.025,0,0.052-0.002,0.082-0.007
	c0.03-0.005,0.062-0.012,0.098-0.022c0.036-0.01,0.075-0.024,0.117-0.041s0.089-0.038,0.139-0.063l0.025,0.26l0.025,0.26l0.025,0.26
	l0.025,0.26c-0.067,0.034-0.134,0.063-0.202,0.088s-0.137,0.046-0.209,0.063c-0.071,0.017-0.145,0.029-0.221,0.038
	c-0.076,0.008-0.156,0.013-0.24,0.013c-0.067,0-0.132-0.004-0.194-0.013c-0.062-0.008-0.122-0.021-0.179-0.038
	c-0.056-0.017-0.11-0.038-0.16-0.063c-0.05-0.025-0.096-0.054-0.138-0.088s-0.08-0.071-0.114-0.113
	c-0.034-0.041-0.065-0.086-0.092-0.134c-0.027-0.048-0.051-0.1-0.073-0.154c-0.021-0.054-0.04-0.111-0.057-0.169
	c-0.008-0.042-0.017-0.098-0.025-0.168c-0.008-0.07-0.015-0.152-0.021-0.247c-0.006-0.094-0.012-0.2-0.015-0.316
	c-0.004-0.116-0.006-0.242-0.006-0.376v-0.562v-0.562v-0.562v-0.562H69.29h-0.126h-0.126h-0.126v-0.268v-0.268v-0.268v-0.268h0.126
	h0.126h0.126h0.126v-0.251v-0.251v-0.251v-0.251l0.277-0.193l0.277-0.193l0.277-0.193l0.277-0.193v0.444v0.444v0.444v0.444h0.184
	h0.184h0.184L71.259,65.051L71.259,65.051L71.259,65.051L71.259,65.051L71.259,65.051z"/>
<path id="path12724" style="fill:#003366;" d="M35.247,77.592l0.285-0.034l0.285-0.034l0.285-0.034l0.285-0.034
	c0.034,0.226,0.084,0.423,0.151,0.591s0.152,0.307,0.255,0.418c0.103,0.111,0.223,0.194,0.362,0.249
	c0.139,0.055,0.296,0.082,0.472,0.082c0.084,0,0.166-0.006,0.244-0.018c0.079-0.012,0.154-0.03,0.225-0.053
	c0.071-0.023,0.138-0.051,0.2-0.084s0.118-0.071,0.169-0.113s0.094-0.088,0.132-0.138c0.038-0.05,0.069-0.103,0.094-0.16
	c0.025-0.057,0.044-0.116,0.057-0.179c0.013-0.062,0.019-0.127,0.019-0.195c0-0.042-0.002-0.082-0.006-0.119
	c-0.004-0.038-0.01-0.073-0.019-0.107c-0.008-0.034-0.019-0.065-0.031-0.094c-0.013-0.029-0.027-0.057-0.044-0.082
	c-0.017-0.025-0.036-0.05-0.057-0.075c-0.022-0.025-0.046-0.049-0.073-0.072c-0.027-0.023-0.058-0.045-0.092-0.065
	c-0.034-0.02-0.072-0.039-0.114-0.056c-0.034-0.017-0.082-0.038-0.144-0.062c-0.062-0.025-0.137-0.053-0.225-0.084
	c-0.088-0.032-0.189-0.066-0.301-0.103s-0.236-0.077-0.37-0.119c-0.126-0.034-0.241-0.069-0.347-0.106
	c-0.106-0.037-0.202-0.076-0.29-0.116c-0.088-0.04-0.168-0.081-0.24-0.122c-0.072-0.041-0.137-0.083-0.196-0.125
	c-0.059-0.042-0.113-0.088-0.164-0.138c-0.051-0.05-0.098-0.103-0.142-0.16c-0.044-0.056-0.085-0.116-0.123-0.179
	c-0.038-0.062-0.074-0.127-0.107-0.195c-0.034-0.075-0.063-0.151-0.088-0.226c-0.025-0.075-0.046-0.151-0.063-0.226
	c-0.017-0.075-0.029-0.151-0.038-0.226c-0.008-0.075-0.013-0.151-0.013-0.226c0-0.092,0.006-0.184,0.018-0.276
	c0.012-0.091,0.03-0.181,0.053-0.269c0.023-0.088,0.051-0.174,0.084-0.257c0.033-0.083,0.071-0.162,0.113-0.238
	c0.042-0.075,0.088-0.147,0.138-0.214c0.05-0.067,0.105-0.13,0.163-0.189c0.059-0.059,0.122-0.113,0.189-0.163
	c0.067-0.05,0.138-0.096,0.214-0.138c0.075-0.042,0.155-0.078,0.239-0.107c0.084-0.03,0.173-0.054,0.268-0.073
	c0.094-0.019,0.194-0.032,0.299-0.041c0.105-0.009,0.216-0.013,0.334-0.013c0.168,0,0.327,0.01,0.477,0.032
	c0.15,0.021,0.292,0.054,0.424,0.098c0.132,0.044,0.255,0.1,0.367,0.167s0.215,0.147,0.308,0.24
	c0.092,0.092,0.174,0.193,0.245,0.303c0.071,0.11,0.132,0.229,0.182,0.359c0.05,0.13,0.09,0.27,0.119,0.422s0.048,0.315,0.057,0.491
	l-0.285,0.017l-0.285,0.017l-0.285,0.017l-0.285,0.017c-0.017-0.092-0.036-0.178-0.057-0.257c-0.022-0.079-0.046-0.151-0.073-0.216
	c-0.027-0.065-0.058-0.123-0.092-0.172c-0.034-0.05-0.072-0.092-0.114-0.125c-0.042-0.034-0.088-0.065-0.138-0.093
	c-0.05-0.028-0.105-0.053-0.163-0.074c-0.059-0.021-0.122-0.038-0.189-0.049s-0.138-0.018-0.214-0.018s-0.147,0.004-0.214,0.013
	c-0.067,0.008-0.13,0.021-0.189,0.038c-0.059,0.017-0.113,0.038-0.163,0.063c-0.05,0.025-0.096,0.054-0.138,0.088
	c-0.042,0.034-0.08,0.069-0.113,0.106c-0.033,0.037-0.061,0.076-0.084,0.116c-0.023,0.04-0.041,0.081-0.053,0.122
	c-0.012,0.041-0.018,0.083-0.018,0.125c0,0.05,0.004,0.096,0.013,0.139c0.009,0.043,0.022,0.083,0.041,0.12
	c0.019,0.038,0.043,0.073,0.073,0.108s0.066,0.068,0.107,0.102c0.042,0.034,0.094,0.067,0.158,0.101
	c0.063,0.034,0.138,0.069,0.224,0.104c0.086,0.036,0.183,0.072,0.293,0.111s0.231,0.078,0.365,0.12
	c0.143,0.042,0.277,0.084,0.401,0.126s0.24,0.085,0.345,0.13c0.105,0.044,0.199,0.089,0.282,0.136
	c0.083,0.047,0.154,0.095,0.213,0.145c0.067,0.042,0.13,0.09,0.189,0.143c0.059,0.053,0.113,0.111,0.163,0.171
	c0.05,0.061,0.096,0.125,0.138,0.19c0.042,0.066,0.08,0.133,0.113,0.2c0.034,0.075,0.063,0.153,0.088,0.234
	c0.025,0.081,0.046,0.165,0.063,0.253c0.017,0.088,0.029,0.18,0.038,0.278s0.013,0.2,0.013,0.309c0,0.151-0.013,0.295-0.037,0.434
	s-0.061,0.272-0.11,0.4c-0.048,0.128-0.108,0.25-0.179,0.368c-0.071,0.118-0.152,0.231-0.245,0.34
	c-0.092,0.101-0.197,0.189-0.315,0.264s-0.249,0.138-0.393,0.189c-0.145,0.05-0.303,0.088-0.475,0.113
	c-0.172,0.025-0.359,0.038-0.56,0.038c-0.36-0.008-0.679-0.065-0.957-0.17s-0.514-0.258-0.711-0.459
	c-0.197-0.201-0.354-0.451-0.473-0.748C35.368,78.331,35.289,77.986,35.247,77.592L35.247,77.592L35.247,77.592L35.247,77.592
	L35.247,77.592z"/>
<path id="path12726" style="fill:#003366;" d="M42.825,78.262l0.268,0.059l0.268,0.059l0.268,0.059l0.268,0.059
	c-0.034,0.126-0.073,0.243-0.119,0.353c-0.046,0.11-0.097,0.211-0.153,0.306c-0.057,0.094-0.119,0.181-0.185,0.261
	c-0.067,0.08-0.138,0.153-0.213,0.221c-0.075,0.059-0.155,0.111-0.239,0.157s-0.172,0.084-0.264,0.116
	c-0.092,0.032-0.189,0.056-0.289,0.072c-0.101,0.016-0.205,0.024-0.314,0.024c-0.151,0-0.293-0.013-0.428-0.038
	c-0.134-0.025-0.26-0.063-0.377-0.113c-0.117-0.05-0.226-0.113-0.327-0.189s-0.193-0.163-0.277-0.264
	c-0.101-0.117-0.189-0.247-0.264-0.39c-0.075-0.143-0.138-0.298-0.189-0.465s-0.088-0.348-0.113-0.541s-0.038-0.398-0.038-0.616
	c0-0.21,0.013-0.409,0.038-0.597s0.063-0.367,0.113-0.534s0.113-0.325,0.189-0.472c0.075-0.147,0.163-0.283,0.264-0.409
	c0.084-0.109,0.174-0.203,0.27-0.283c0.096-0.08,0.199-0.146,0.308-0.198c0.109-0.052,0.224-0.091,0.346-0.117
	c0.122-0.026,0.249-0.038,0.384-0.038c0.151,0,0.293,0.015,0.428,0.043s0.26,0.072,0.377,0.128c0.117,0.057,0.226,0.127,0.327,0.21
	c0.101,0.083,0.193,0.18,0.277,0.289c0.101,0.126,0.187,0.266,0.259,0.421c0.072,0.155,0.131,0.325,0.177,0.509
	c0.046,0.184,0.08,0.384,0.102,0.597c0.022,0.214,0.032,0.442,0.032,0.685v0.042v0.042v0.042v0.042h-0.687h-0.687h-0.687h-0.687
	c0,0.101,0.006,0.195,0.018,0.283c0.012,0.089,0.03,0.171,0.053,0.249c0.023,0.077,0.051,0.15,0.084,0.217s0.071,0.13,0.113,0.189
	c0.042,0.059,0.086,0.109,0.133,0.151c0.047,0.042,0.096,0.077,0.148,0.104c0.052,0.027,0.108,0.047,0.167,0.06
	c0.059,0.013,0.122,0.019,0.189,0.019c0.075-0.025,0.147-0.059,0.213-0.102c0.067-0.044,0.128-0.097,0.185-0.162
	c0.056-0.065,0.108-0.141,0.153-0.231C42.751,78.482,42.791,78.38,42.825,78.262L42.825,78.262L42.825,78.262L42.825,78.262
	L42.825,78.262z M42.892,76.887c0-0.101-0.006-0.195-0.018-0.282c-0.012-0.087-0.03-0.168-0.053-0.241
	c-0.023-0.073-0.051-0.139-0.084-0.198c-0.033-0.058-0.071-0.108-0.113-0.15c-0.042-0.05-0.084-0.094-0.127-0.132
	c-0.043-0.038-0.087-0.069-0.133-0.094c-0.046-0.025-0.094-0.044-0.146-0.057c-0.051-0.013-0.106-0.019-0.165-0.019
	s-0.115,0.006-0.169,0.019c-0.054,0.013-0.105,0.031-0.153,0.057c-0.048,0.025-0.093,0.057-0.135,0.094
	c-0.041,0.038-0.079,0.082-0.113,0.132c-0.042,0.05-0.078,0.107-0.107,0.169c-0.03,0.062-0.054,0.131-0.073,0.204
	c-0.019,0.073-0.033,0.152-0.042,0.235c-0.009,0.083-0.013,0.171-0.013,0.264h0.411h0.411h0.411L42.892,76.887L42.892,76.887
	L42.892,76.887L42.892,76.887L42.892,76.887z"/>
<path id="path12728" style="fill:#003366;" d="M45.474,79.872h-0.277h-0.277h-0.277h-0.277v-1.266V77.34v-1.266v-1.266h0.251h0.251
	h0.251h0.251v0.176v0.176v0.176v0.176c0.042-0.084,0.084-0.161,0.125-0.232c0.041-0.071,0.082-0.135,0.122-0.191
	c0.04-0.057,0.079-0.106,0.116-0.147c0.037-0.041,0.073-0.075,0.106-0.1c0.034-0.025,0.069-0.048,0.106-0.069
	s0.076-0.038,0.116-0.053c0.04-0.015,0.081-0.026,0.122-0.034c0.041-0.008,0.083-0.012,0.125-0.012c0.059,0,0.119,0.006,0.181,0.018
	c0.061,0.012,0.123,0.03,0.184,0.053c0.061,0.023,0.121,0.051,0.178,0.084s0.111,0.071,0.162,0.112l-0.084,0.293l-0.084,0.293
	l-0.084,0.293l-0.084,0.293c-0.042-0.034-0.084-0.065-0.126-0.093c-0.042-0.028-0.084-0.053-0.126-0.074
	c-0.042-0.021-0.084-0.038-0.126-0.049c-0.042-0.012-0.084-0.018-0.126-0.018c-0.042,0-0.082,0.004-0.119,0.012
	c-0.038,0.008-0.073,0.019-0.107,0.034c-0.034,0.015-0.065,0.033-0.094,0.053s-0.057,0.044-0.082,0.069s-0.05,0.057-0.074,0.094
	c-0.024,0.038-0.047,0.082-0.068,0.132c-0.021,0.05-0.04,0.107-0.056,0.17c-0.016,0.063-0.028,0.132-0.037,0.207
	c-0.008,0.075-0.017,0.166-0.025,0.271c-0.008,0.105-0.015,0.226-0.021,0.362c-0.006,0.136-0.012,0.288-0.015,0.456
	c-0.004,0.168-0.006,0.353-0.006,0.554v0.394v0.394v0.394L45.474,79.872L45.474,79.872L45.474,79.872L45.474,79.872L45.474,79.872z"
	/>
<path id="path12730" style="fill:#003366;" d="M48.223,79.872l-0.419-1.266l-0.419-1.266l-0.419-1.266l-0.419-1.266h0.285h0.285
	h0.285h0.285l0.193,0.645l0.193,0.645l0.193,0.645l0.193,0.645l0.059,0.218l0.059,0.218l0.059,0.218l0.059,0.218l0.059-0.218
	l0.059-0.218l0.059-0.218l0.059-0.218l0.201-0.645l0.201-0.645l0.201-0.645l0.201-0.645h0.277h0.277h0.277h0.277l-0.411,1.266
	l-0.411,1.266l-0.411,1.266l-0.411,1.266h-0.243H48.71h-0.243H48.223L48.223,79.872L48.223,79.872L48.223,79.872L48.223,79.872z"/>
<path id="path12732" style="fill:#003366;" d="M51.107,74.104v-0.31v-0.31v-0.31v-0.31h0.277h0.277h0.277h0.277v0.31v0.31v0.31v0.31
	h-0.277H51.66h-0.277H51.107z M51.107,79.872v-1.266V77.34v-1.266v-1.266h0.277h0.277h0.277h0.277v1.266v1.266v1.266v1.266h-0.277
	H51.66h-0.277H51.107z"/>
<path id="path12734" style="fill:#003366;" d="M56.506,76.284l-0.268,0.059l-0.268,0.059l-0.268,0.059l-0.268,0.059
	c-0.017-0.134-0.046-0.251-0.087-0.352s-0.093-0.184-0.156-0.251s-0.136-0.117-0.219-0.151s-0.175-0.05-0.276-0.05
	c-0.067,0-0.132,0.006-0.194,0.019s-0.121,0.033-0.175,0.06c-0.054,0.027-0.105,0.062-0.15,0.104s-0.085,0.093-0.118,0.151
	c-0.042,0.059-0.078,0.126-0.107,0.202s-0.054,0.161-0.073,0.255c-0.019,0.094-0.032,0.198-0.041,0.312
	c-0.009,0.114-0.013,0.237-0.013,0.371c0,0.151,0.004,0.291,0.013,0.421s0.023,0.248,0.042,0.355s0.043,0.202,0.073,0.285
	c0.03,0.083,0.065,0.155,0.107,0.213c0.042,0.059,0.086,0.111,0.133,0.157s0.097,0.084,0.152,0.116
	c0.054,0.032,0.113,0.056,0.177,0.072c0.064,0.016,0.133,0.024,0.209,0.024c0.05,0,0.098-0.004,0.145-0.013
	c0.046-0.008,0.09-0.021,0.132-0.038c0.042-0.017,0.082-0.038,0.119-0.063c0.038-0.025,0.073-0.054,0.107-0.088
	c0.034-0.034,0.065-0.075,0.094-0.125c0.029-0.049,0.057-0.106,0.082-0.169c0.025-0.063,0.048-0.132,0.069-0.206
	c0.021-0.074,0.04-0.154,0.057-0.238l0.268,0.059l0.268,0.059l0.268,0.059l0.268,0.059c-0.059,0.302-0.143,0.566-0.251,0.792
	c-0.109,0.226-0.243,0.415-0.402,0.566c-0.159,0.151-0.344,0.264-0.553,0.34c-0.21,0.075-0.444,0.113-0.704,0.113
	c-0.168,0-0.325-0.017-0.472-0.05s-0.283-0.082-0.409-0.147c-0.126-0.065-0.241-0.146-0.346-0.241
	c-0.105-0.096-0.199-0.207-0.283-0.333c-0.084-0.126-0.157-0.26-0.22-0.401c-0.063-0.141-0.115-0.29-0.157-0.445
	c-0.042-0.155-0.073-0.316-0.094-0.483c-0.021-0.167-0.031-0.338-0.031-0.514c0-0.218,0.01-0.421,0.032-0.611
	c0.022-0.19,0.054-0.366,0.098-0.529c0.044-0.163,0.099-0.314,0.167-0.454s0.147-0.267,0.239-0.385
	c0.092-0.117,0.193-0.218,0.301-0.303c0.108-0.085,0.223-0.154,0.345-0.209s0.249-0.094,0.382-0.121s0.271-0.039,0.414-0.039
	c0.117,0,0.231,0.008,0.339,0.025s0.212,0.04,0.311,0.072c0.099,0.032,0.192,0.07,0.279,0.116s0.169,0.098,0.244,0.157
	c0.084,0.075,0.159,0.157,0.227,0.246c0.068,0.089,0.129,0.184,0.183,0.286c0.054,0.103,0.103,0.213,0.146,0.331
	C56.434,76.024,56.472,76.15,56.506,76.284L56.506,76.284L56.506,76.284L56.506,76.284L56.506,76.284z"/>
<path id="path12736" style="fill:#003366;" d="M59.322,78.262l0.268,0.059l0.268,0.059l0.268,0.059l0.268,0.059
	c-0.034,0.126-0.073,0.243-0.119,0.353c-0.046,0.11-0.097,0.211-0.153,0.306c-0.057,0.094-0.118,0.181-0.185,0.261
	c-0.067,0.08-0.138,0.153-0.213,0.221c-0.075,0.059-0.155,0.111-0.239,0.157s-0.172,0.084-0.264,0.116
	c-0.092,0.032-0.189,0.056-0.289,0.072c-0.101,0.016-0.205,0.024-0.314,0.024c-0.151,0-0.293-0.013-0.428-0.038
	c-0.134-0.025-0.26-0.063-0.377-0.113c-0.117-0.05-0.226-0.113-0.327-0.189s-0.193-0.163-0.277-0.264
	c-0.101-0.117-0.189-0.247-0.264-0.39c-0.075-0.143-0.138-0.298-0.189-0.465s-0.088-0.348-0.113-0.541
	c-0.025-0.193-0.038-0.398-0.038-0.616c0-0.21,0.013-0.409,0.038-0.597c0.025-0.189,0.063-0.367,0.113-0.534
	s0.113-0.325,0.189-0.472c0.075-0.147,0.163-0.283,0.264-0.409c0.084-0.109,0.174-0.203,0.27-0.283
	c0.096-0.08,0.199-0.146,0.308-0.198c0.109-0.052,0.224-0.091,0.346-0.117c0.122-0.026,0.249-0.038,0.384-0.038
	c0.151,0,0.293,0.015,0.428,0.043s0.26,0.072,0.377,0.128c0.117,0.057,0.226,0.127,0.327,0.21c0.101,0.083,0.193,0.18,0.277,0.289
	c0.101,0.126,0.187,0.266,0.259,0.421c0.072,0.155,0.131,0.325,0.177,0.509c0.046,0.184,0.08,0.384,0.102,0.597
	c0.022,0.214,0.032,0.442,0.032,0.685v0.042v0.042v0.042v0.042H59.8h-0.696h-0.696h-0.696c0,0.101,0.006,0.195,0.018,0.283
	c0.012,0.089,0.03,0.171,0.053,0.249c0.023,0.078,0.051,0.15,0.084,0.217s0.071,0.13,0.113,0.189
	c0.042,0.059,0.086,0.109,0.133,0.151c0.047,0.042,0.096,0.077,0.148,0.104s0.108,0.047,0.167,0.06
	c0.059,0.013,0.122,0.019,0.189,0.019c0.084-0.025,0.161-0.059,0.233-0.102c0.071-0.044,0.136-0.097,0.195-0.162
	c0.059-0.065,0.111-0.141,0.157-0.231C59.249,78.482,59.289,78.38,59.322,78.262L59.322,78.262L59.322,78.262L59.322,78.262
	L59.322,78.262z M59.389,76.887c0-0.101-0.006-0.195-0.018-0.282c-0.012-0.087-0.03-0.168-0.053-0.241
	c-0.023-0.073-0.051-0.139-0.084-0.198s-0.071-0.109-0.113-0.151c-0.042-0.05-0.084-0.094-0.127-0.132
	c-0.043-0.038-0.087-0.069-0.133-0.094c-0.046-0.025-0.094-0.044-0.146-0.057c-0.051-0.013-0.106-0.019-0.165-0.019
	s-0.115,0.006-0.169,0.019c-0.054,0.013-0.105,0.031-0.154,0.057c-0.048,0.025-0.093,0.057-0.135,0.094
	c-0.041,0.038-0.079,0.082-0.113,0.132c-0.042,0.05-0.078,0.107-0.107,0.169c-0.03,0.062-0.054,0.131-0.073,0.204
	c-0.019,0.073-0.033,0.152-0.041,0.235c-0.009,0.083-0.013,0.171-0.013,0.264h0.411h0.411h0.411L59.389,76.887L59.389,76.887
	L59.389,76.887L59.389,76.887L59.389,76.887z"/>
<path id="path12738" style="fill:#003366;" d="M60.529,78.43l0.277-0.05l0.277-0.05l0.277-0.05l0.277-0.05
	c0.025,0.134,0.063,0.251,0.113,0.352s0.112,0.184,0.185,0.251s0.158,0.117,0.254,0.151c0.096,0.034,0.203,0.05,0.32,0.05
	c0.067,0,0.13-0.004,0.189-0.012c0.059-0.008,0.113-0.019,0.163-0.034c0.05-0.015,0.096-0.033,0.138-0.053
	c0.042-0.02,0.08-0.044,0.113-0.069s0.063-0.052,0.088-0.082c0.025-0.029,0.046-0.061,0.063-0.094
	c0.017-0.034,0.029-0.069,0.038-0.107c0.008-0.038,0.013-0.078,0.013-0.119c0-0.025-0.002-0.05-0.006-0.075
	c-0.004-0.025-0.01-0.049-0.019-0.072c-0.008-0.023-0.019-0.045-0.031-0.066c-0.013-0.02-0.027-0.039-0.044-0.056
	c-0.017-0.017-0.036-0.034-0.058-0.05s-0.047-0.032-0.076-0.046c-0.029-0.015-0.063-0.028-0.102-0.04
	c-0.039-0.012-0.083-0.023-0.133-0.031c-0.226-0.059-0.432-0.117-0.616-0.175s-0.348-0.116-0.49-0.172
	c-0.143-0.057-0.264-0.112-0.365-0.166s-0.18-0.106-0.239-0.157c-0.075-0.067-0.143-0.14-0.201-0.22
	c-0.058-0.08-0.107-0.166-0.147-0.258c-0.04-0.092-0.07-0.191-0.091-0.295c-0.02-0.105-0.031-0.216-0.031-0.333
	c0-0.117,0.008-0.228,0.026-0.334c0.017-0.105,0.043-0.205,0.079-0.299c0.036-0.094,0.081-0.183,0.136-0.268
	c0.055-0.084,0.12-0.164,0.196-0.239c0.075-0.067,0.159-0.128,0.251-0.181c0.092-0.053,0.193-0.1,0.302-0.137
	c0.109-0.038,0.226-0.067,0.352-0.087c0.126-0.02,0.26-0.03,0.402-0.03c0.134,0,0.26,0.006,0.378,0.019s0.228,0.033,0.331,0.06
	c0.103,0.027,0.198,0.062,0.287,0.104c0.088,0.042,0.17,0.093,0.246,0.151c0.067,0.05,0.13,0.109,0.189,0.176
	s0.113,0.143,0.163,0.226c0.05,0.084,0.096,0.176,0.138,0.277s0.08,0.21,0.113,0.327l-0.26,0.059l-0.26,0.059l-0.26,0.059
	l-0.26,0.059c-0.025-0.101-0.059-0.189-0.102-0.264s-0.095-0.138-0.158-0.189c-0.063-0.05-0.136-0.088-0.221-0.113
	c-0.085-0.025-0.181-0.038-0.29-0.038c-0.067,0-0.13,0.002-0.188,0.007c-0.058,0.005-0.112,0.012-0.16,0.023
	c-0.048,0.01-0.091,0.024-0.128,0.041c-0.037,0.017-0.069,0.038-0.094,0.063c-0.025,0.017-0.048,0.036-0.069,0.057
	c-0.02,0.021-0.038,0.044-0.053,0.069c-0.015,0.025-0.026,0.052-0.034,0.082c-0.008,0.029-0.012,0.061-0.012,0.094
	c0,0.025,0.004,0.05,0.012,0.075c0.008,0.025,0.019,0.049,0.034,0.072c0.015,0.023,0.033,0.045,0.053,0.065
	c0.02,0.02,0.044,0.039,0.069,0.056c0.025,0.017,0.065,0.038,0.119,0.062s0.122,0.051,0.204,0.081
	c0.082,0.029,0.177,0.061,0.285,0.093c0.108,0.032,0.23,0.066,0.364,0.1c0.151,0.042,0.291,0.086,0.42,0.133
	c0.129,0.047,0.246,0.096,0.351,0.148c0.105,0.052,0.197,0.108,0.276,0.167c0.079,0.059,0.144,0.122,0.194,0.189
	c0.05,0.059,0.096,0.124,0.137,0.194c0.041,0.071,0.076,0.147,0.106,0.229c0.029,0.082,0.052,0.169,0.068,0.261
	s0.024,0.188,0.024,0.289c0,0.126-0.01,0.245-0.031,0.358s-0.052,0.22-0.094,0.321s-0.094,0.195-0.157,0.283
	c-0.063,0.088-0.136,0.17-0.22,0.245s-0.176,0.143-0.276,0.201c-0.1,0.058-0.208,0.107-0.323,0.147
	c-0.115,0.04-0.238,0.07-0.367,0.091c-0.129,0.02-0.265,0.031-0.408,0.031c-0.134,0-0.262-0.008-0.384-0.025
	c-0.122-0.017-0.237-0.042-0.346-0.075c-0.109-0.034-0.212-0.075-0.308-0.126c-0.096-0.05-0.187-0.109-0.27-0.176
	c-0.092-0.067-0.174-0.14-0.247-0.221s-0.137-0.167-0.193-0.261c-0.056-0.094-0.106-0.196-0.149-0.305
	C60.601,78.673,60.563,78.556,60.529,78.43L60.529,78.43L60.529,78.43L60.529,78.43L60.529,78.43z"/>
</svg>
