<?xml version="1.0" encoding="iso-8859-1"?>
<!-- Generator: Adobe Illustrator 25.4.1, SVG Export Plug-In . SVG Version: 6.00 Build 0)  -->
<svg version="1.1"
	 id="svg8" inkscape:export-filename="C:\Users\Charlotte Abel\Documents\Symbology\Components\For Distribution\communications_alerts-warnings-messages.png" inkscape:export-xdpi="300.00464" inkscape:export-ydpi="300.00464" inkscape:version="0.91 r13725" sodipodi:docname="safety-and-security_fire-services-with-label-clr_256x256.svg" xmlns:cc="http://creativecommons.org/ns#" xmlns:dc="http://purl.org/dc/elements/1.1/" xmlns:inkscape="http://www.inkscape.org/namespaces/inkscape" xmlns:rdf="http://www.w3.org/1999/02/22-rdf-syntax-ns#" xmlns:sodipodi="http://sodipodi.sourceforge.net/DTD/sodipodi-0.dtd" xmlns:svg="http://www.w3.org/2000/svg"
	 xmlns="http://www.w3.org/2000/svg" xmlns:xlink="http://www.w3.org/1999/xlink" x="0px" y="0px" viewBox="0 0 100 100"
	 style="enable-background:new 0 0 100 100;" xml:space="preserve">
<sodipodi:namedview  bordercolor="#666666" borderopacity="1.0" id="base" inkscape:current-layer="g7799" inkscape:cx="-302.11164" inkscape:cy="84.283015" inkscape:document-units="px" inkscape:guide-bbox="true" inkscape:lockguides="true" inkscape:pageopacity="0.0" inkscape:pageshadow="2" inkscape:window-height="657" inkscape:window-maximized="1" inkscape:window-width="1280" inkscape:window-x="-8" inkscape:window-y="-8" inkscape:zoom="0.765625" pagecolor="#ffffff" showgrid="false" showguides="false" units="px">
	<sodipodi:guide  id="guide5700" inkscape:locked="true" orientation="0,1" position="-0.93017576,23.874511"></sodipodi:guide>
	<sodipodi:guide  id="guide5726" inkscape:locked="true" orientation="0,1" position="-26.098869,26.473047"></sodipodi:guide>
	<sodipodi:guide  id="guide5880" inkscape:locked="true" orientation="0,1" position="104.51042,-2.9104167"></sodipodi:guide>
	<sodipodi:guide  id="guide6001" inkscape:locked="true" orientation="0,1" position="-71.093695,29.279377"></sodipodi:guide>
	<sodipodi:guide  id="guide6005" inkscape:locked="true" orientation="0,1" position="-46.304445,58.278122"></sodipodi:guide>
	<sodipodi:guide  id="guide6736" inkscape:locked="true" orientation="0,1" position="-0.10335287,20.205485"></sodipodi:guide>
	<sodipodi:guide  id="guide6738" inkscape:locked="true" orientation="0,1" position="-0.43848907,22.874513"></sodipodi:guide>
	<inkscape:grid  id="grid2386" type="xygrid"></inkscape:grid>
</sodipodi:namedview>
<g id="g1180" transform="translate(0,-229.2666)" inkscape:groupmode="layer" inkscape:label="halo:always" style="display:none;">
	<g id="g1210" inkscape:groupmode="layer" inkscape:label="-gray-halo:iter3" style="display:inline;">
		<g id="circle1208">
			<path style="fill:#919395;" d="M50,329.3c-27.6,0-50-22.4-50-50s22.4-50,50-50s50,22.4,50,50S77.6,329.3,50,329.3z M50,237.9
				c-22.8,0-41.4,18.6-41.4,41.4s18.6,41.4,41.4,41.4s41.4-18.6,41.4-41.4S72.8,237.9,50,237.9z"/>
		</g>
	</g>
	<g id="g1206" inkscape:groupmode="layer" inkscape:label="-red-halo:iter3" style="display:inline;">
		<g id="circle1204">
			<path style="fill:#C52038;" d="M50,329.3c-27.6,0-50-22.4-50-50s22.4-50,50-50s50,22.4,50,50S77.6,329.3,50,329.3z M50,237.9
				c-22.8,0-41.4,18.6-41.4,41.4s18.6,41.4,41.4,41.4s41.4-18.6,41.4-41.4S72.8,237.9,50,237.9z"/>
		</g>
	</g>
	<g id="g1202" inkscape:groupmode="layer" inkscape:label="-green-halo:iter3" style="display:inline;">
		<g id="circle1200">
			<path style="fill:#5E9C42;" d="M50,329.3c-27.6,0-50-22.4-50-50s22.4-50,50-50s50,22.4,50,50S77.6,329.3,50,329.3z M50,237.9
				c-22.8,0-41.4,18.6-41.4,41.4s18.6,41.4,41.4,41.4s41.4-18.6,41.4-41.4S72.8,237.9,50,237.9z"/>
		</g>
	</g>
	<g id="layer18" inkscape:groupmode="layer" inkscape:label="-yellow-halo:iter3" style="display:inline;">
		<g id="circle1178-4">
			<path style="fill:#FBBA16;" d="M50,329.3c-27.6,0-50-22.4-50-50s22.4-50,50-50s50,22.4,50,50S77.6,329.3,50,329.3z M50,237.9
				c-22.8,0-41.4,18.6-41.4,41.4s18.6,41.4,41.4,41.4s41.4-18.6,41.4-41.4S72.8,237.9,50,237.9z"/>
		</g>
	</g>
</g>
<path id="path7791" inkscape:connector-curvature="0" inkscape:export-filename="C:\Users\Charlotte Abel\Documents\Symbology\Components\For Distribution\safety-and-security_fire-services-with-label.png" inkscape:export-xdpi="300.00464" inkscape:export-ydpi="300.00464" style="fill:#003366;" d="
	M50.455,18.482c-0.042,0-0.079,0-0.114,0s-0.066,0-0.098,0c-0.032,0-0.063,0-0.098,0c-0.034,0-0.071,0-0.114,0
	c-0.549,0-1.109,0.069-1.666,0.19c-0.557,0.121-1.112,0.296-1.65,0.507c-0.539,0.211-1.061,0.459-1.555,0.729
	c-0.494,0.269-0.958,0.56-1.381,0.855c-0.465,0.338-0.935,0.655-1.411,0.939c-0.477,0.284-0.96,0.534-1.451,0.74
	s-0.99,0.367-1.498,0.471c-0.508,0.104-1.025,0.152-1.553,0.131c-0.169,0-0.322,0.005-0.454,0.013s-0.243,0.018-0.327,0.029
	c-0.084,0.011-0.143,0.021-0.169,0.029c-0.026,0.008-0.021,0.013,0.021,0.013c0.338,0.275,0.655,0.581,0.957,0.904
	c0.302,0.323,0.59,0.664,0.87,1.007c0.28,0.343,0.552,0.689,0.822,1.023c0.271,0.334,0.54,0.656,0.815,0.952
	c0.106,0.127,0.206,0.248,0.297,0.36s0.173,0.215,0.242,0.305c0.068,0.09,0.124,0.167,0.162,0.226s0.059,0.102,0.059,0.123
	s-0.063,0.09-0.165,0.187c-0.102,0.098-0.242,0.224-0.395,0.362c-0.153,0.137-0.319,0.285-0.474,0.425
	c-0.154,0.14-0.297,0.272-0.403,0.378l0,0l0,0l0,0l0,0l0,0l0,0l0,0l0,0l0,0l0,0l0,0l0,0l0,0l0,0l0,0l0,0
	c-0.106,0.127-0.238,0.28-0.378,0.438s-0.288,0.322-0.425,0.47c-0.137,0.148-0.264,0.28-0.362,0.375
	c-0.098,0.095-0.166,0.153-0.187,0.153c-0.021,0-0.069-0.021-0.135-0.059c-0.066-0.038-0.15-0.094-0.246-0.163
	c-0.095-0.068-0.201-0.15-0.309-0.241c-0.108-0.091-0.219-0.191-0.325-0.297c-0.317-0.275-0.65-0.549-0.987-0.826
	s-0.681-0.557-1.019-0.842c-0.338-0.285-0.671-0.576-0.987-0.874c-0.317-0.298-0.618-0.605-0.892-0.921
	c-0.021-0.042-0.037-0.048-0.049-0.021c-0.012,0.026-0.02,0.084-0.025,0.169c-0.005,0.084-0.008,0.195-0.01,0.327
	c-0.001,0.132-0.001,0.285-0.001,0.454c0.021,0.528-0.026,1.046-0.131,1.554c-0.104,0.508-0.266,1.007-0.472,1.498
	c-0.206,0.491-0.456,0.975-0.74,1.451c-0.284,0.477-0.601,0.947-0.939,1.411c-0.317,0.549-0.623,1.072-0.903,1.583
	c-0.28,0.511-0.533,1.01-0.745,1.511c-0.211,0.501-0.38,1.006-0.491,1.527c-0.111,0.522-0.164,1.06-0.143,1.631
	c0,0.549,0.069,1.109,0.19,1.666c0.121,0.557,0.296,1.112,0.507,1.65s0.459,1.061,0.729,1.555s0.56,0.958,0.855,1.381
	c0.338,0.465,0.655,0.935,0.939,1.411c0.284,0.477,0.534,0.96,0.74,1.451c0.206,0.491,0.367,0.99,0.472,1.498
	c0.104,0.508,0.152,1.026,0.131,1.554c0,0.169,0.005,0.322,0.013,0.454c0.008,0.132,0.018,0.243,0.029,0.327
	c0.011,0.084,0.021,0.143,0.029,0.169c0.008,0.026,0.013,0.021,0.013-0.021c0.275-0.338,0.581-0.655,0.904-0.957
	c0.323-0.302,0.664-0.59,1.008-0.87c0.343-0.28,0.689-0.552,1.023-0.823s0.656-0.54,0.952-0.815c0.127-0.106,0.248-0.206,0.36-0.297
	c0.112-0.091,0.215-0.173,0.305-0.242c0.09-0.068,0.167-0.124,0.226-0.162c0.059-0.038,0.102-0.059,0.123-0.059
	s0.09,0.063,0.187,0.165s0.224,0.241,0.362,0.394c0.137,0.153,0.285,0.319,0.425,0.474c0.14,0.154,0.272,0.297,0.378,0.403l0,0l0,0
	l0,0l0,0l0,0l0,0l0,0l0,0l0,0l0,0l0,0l0,0c0.127,0.106,0.28,0.238,0.438,0.378c0.158,0.14,0.322,0.288,0.47,0.425
	c0.148,0.137,0.28,0.264,0.375,0.362c0.095,0.098,0.153,0.166,0.153,0.187c0,0.021-0.021,0.069-0.059,0.135s-0.094,0.15-0.163,0.246
	c-0.069,0.095-0.151,0.201-0.242,0.309s-0.191,0.219-0.297,0.325c-0.275,0.317-0.549,0.65-0.826,0.987s-0.557,0.681-0.842,1.019
	c-0.285,0.338-0.575,0.671-0.874,0.988c-0.298,0.317-0.604,0.618-0.921,0.893c-0.042,0.021-0.048,0.037-0.021,0.049
	c0.026,0.012,0.084,0.02,0.169,0.025c0.084,0.005,0.195,0.008,0.327,0.01c0.132,0.001,0.285,0.001,0.454,0.001
	c0.528-0.021,1.046,0.026,1.554,0.131c0.508,0.104,1.007,0.266,1.498,0.472c0.491,0.206,0.975,0.456,1.451,0.74
	c0.477,0.284,0.947,0.601,1.411,0.939c0.549,0.317,1.072,0.623,1.583,0.903c0.511,0.28,1.01,0.533,1.511,0.745
	c0.501,0.211,1.006,0.38,1.527,0.491c0.522,0.111,1.06,0.164,1.631,0.143c0.549,0,1.109-0.069,1.666-0.19
	c0.557-0.121,1.112-0.296,1.65-0.507c0.539-0.211,1.061-0.459,1.555-0.729s0.958-0.56,1.381-0.855
	c0.465-0.338,0.935-0.655,1.411-0.939c0.477-0.284,0.96-0.535,1.451-0.741c0.491-0.206,0.99-0.367,1.498-0.471
	c0.508-0.104,1.026-0.152,1.554-0.131c0.169,0,0.322-0.005,0.454-0.013c0.132-0.008,0.243-0.018,0.327-0.029
	c0.084-0.011,0.143-0.021,0.169-0.029c0.026-0.008,0.021-0.013-0.021-0.013c-0.338-0.275-0.655-0.581-0.957-0.904
	c-0.302-0.323-0.59-0.664-0.87-1.008c-0.28-0.343-0.552-0.689-0.823-1.023c-0.271-0.334-0.54-0.656-0.815-0.952
	c-0.106-0.127-0.206-0.248-0.297-0.36s-0.173-0.215-0.242-0.305c-0.068-0.09-0.124-0.167-0.162-0.226
	c-0.038-0.059-0.059-0.102-0.059-0.123c0-0.021,0.063-0.09,0.165-0.187c0.102-0.098,0.241-0.224,0.394-0.362
	c0.153-0.137,0.319-0.285,0.474-0.425c0.154-0.14,0.297-0.272,0.403-0.378l0,0l0,0l0,0l0,0l0,0l0,0l0,0l0,0l0,0l0,0l0,0l0,0
	c0.106-0.127,0.238-0.28,0.378-0.438c0.14-0.158,0.288-0.322,0.425-0.47s0.264-0.28,0.362-0.375s0.166-0.153,0.187-0.153
	c0.021,0,0.069,0.021,0.135,0.059c0.066,0.038,0.15,0.094,0.246,0.163c0.095,0.068,0.201,0.15,0.309,0.242
	c0.108,0.091,0.219,0.192,0.325,0.297c0.317,0.275,0.65,0.549,0.987,0.826c0.338,0.277,0.681,0.557,1.019,0.842
	c0.338,0.285,0.671,0.576,0.987,0.874c0.317,0.298,0.618,0.605,0.892,0.921c0.021,0.042,0.037,0.048,0.049,0.021
	s0.02-0.084,0.025-0.169c0.006-0.085,0.009-0.196,0.01-0.328c0.001-0.132,0.001-0.285,0.001-0.454
	c-0.021-0.528,0.026-1.046,0.131-1.554c0.104-0.508,0.266-1.007,0.472-1.499c0.206-0.491,0.456-0.974,0.74-1.45
	c0.284-0.477,0.601-0.946,0.939-1.411c0.317-0.549,0.623-1.072,0.903-1.583c0.28-0.511,0.533-1.01,0.745-1.512
	c0.211-0.502,0.38-1.006,0.491-1.528s0.164-1.06,0.143-1.63c0-0.549-0.069-1.109-0.19-1.666c-0.121-0.557-0.296-1.112-0.507-1.65
	c-0.211-0.539-0.459-1.061-0.729-1.555c-0.269-0.494-0.56-0.958-0.855-1.381c-0.338-0.465-0.655-0.935-0.939-1.411
	c-0.284-0.477-0.535-0.96-0.741-1.451c-0.206-0.491-0.367-0.99-0.471-1.498c-0.104-0.508-0.152-1.026-0.131-1.554
	c0-0.169-0.005-0.322-0.013-0.454c-0.008-0.132-0.018-0.243-0.029-0.327c-0.011-0.084-0.021-0.143-0.029-0.169
	c-0.008-0.026-0.013-0.021-0.013,0.021c-0.275,0.338-0.581,0.655-0.904,0.957c-0.323,0.302-0.664,0.59-1.008,0.87
	c-0.343,0.28-0.689,0.552-1.023,0.823c-0.334,0.271-0.656,0.54-0.952,0.815c-0.127,0.106-0.248,0.206-0.36,0.297
	c-0.112,0.091-0.215,0.173-0.305,0.242c-0.09,0.068-0.167,0.124-0.226,0.162c-0.059,0.038-0.102,0.059-0.123,0.059
	c-0.021,0-0.09-0.063-0.187-0.165c-0.098-0.102-0.224-0.242-0.362-0.395c-0.137-0.153-0.285-0.319-0.425-0.474
	c-0.14-0.154-0.272-0.297-0.378-0.403l0,0l0,0l0,0l0,0l-2.577,2.598l-2.577,2.598l-2.577,2.598l-2.577,2.598l0,0l0,0l0,0l0,0
	l2.577-2.577l2.577-2.577l2.577-2.577l2.577-2.577l0,0l0,0l0,0l0,0c-0.127-0.106-0.28-0.238-0.438-0.378
	c-0.158-0.14-0.322-0.288-0.47-0.425c-0.148-0.137-0.28-0.264-0.375-0.362c-0.095-0.098-0.153-0.166-0.153-0.187
	s0.021-0.069,0.059-0.135s0.094-0.15,0.163-0.246c0.068-0.095,0.15-0.201,0.241-0.309c0.091-0.108,0.191-0.219,0.297-0.325
	c0.275-0.317,0.549-0.65,0.826-0.987c0.277-0.338,0.557-0.681,0.842-1.019c0.285-0.338,0.576-0.671,0.874-0.987
	s0.605-0.618,0.921-0.892c0.042-0.021,0.048-0.037,0.021-0.049c-0.026-0.012-0.084-0.02-0.169-0.025
	c-0.084-0.005-0.195-0.008-0.327-0.009c-0.132-0.001-0.285-0.001-0.454-0.001c-0.528,0.021-1.046-0.026-1.554-0.131
	c-0.508-0.104-1.007-0.266-1.498-0.472s-0.974-0.457-1.451-0.741c-0.477-0.284-0.947-0.6-1.412-0.938
	c-0.528-0.338-1.03-0.655-1.517-0.94c-0.487-0.285-0.96-0.539-1.429-0.75c-0.47-0.211-0.938-0.38-1.414-0.496
	C51.448,18.545,50.962,18.482,50.455,18.482L50.455,18.482L50.455,18.482L50.455,18.482L50.455,18.482z"/>
<path id="path7795" inkscape:connector-curvature="0" inkscape:export-filename="C:\Users\Charlotte Abel\Documents\Symbology\Components\For Distribution\safety-and-security_fire-services-with-label.png" inkscape:export-xdpi="300.00464" inkscape:export-ydpi="300.00464" style="fill:#FFFFFF;" d="
	M46.315,25.579c0.803,0.465,1.505,0.972,2.116,1.523c0.611,0.552,1.131,1.149,1.569,1.793c0.438,0.644,0.795,1.336,1.079,2.078
	c0.284,0.742,0.495,1.534,0.643,2.379c0.084-0.19,0.169-0.444,0.239-0.743c0.07-0.3,0.125-0.646,0.151-1.021
	c0.027-0.375,0.024-0.779-0.022-1.194c-0.046-0.416-0.136-0.844-0.284-1.266c1.711,0.95,3.137,1.98,4.308,3.061
	c1.171,1.081,2.087,2.214,2.779,3.37c0.692,1.156,1.159,2.337,1.432,3.513c0.273,1.176,0.352,2.349,0.268,3.489
	c-0.106,1.267-0.391,2.408-0.84,3.42c-0.449,1.012-1.061,1.897-1.822,2.652c-0.76,0.755-1.669,1.381-2.709,1.876
	s-2.213,0.859-3.501,1.092l0,0l0,0l0,0l0,0c-0.148,0.021-0.301,0.042-0.457,0.062s-0.314,0.038-0.473,0.054
	c-0.158,0.016-0.317,0.029-0.473,0.038c-0.156,0.009-0.309,0.015-0.457,0.015c-0.253,0-0.502-0.011-0.747-0.03
	c-0.246-0.02-0.488-0.049-0.731-0.085c-0.243-0.037-0.486-0.082-0.731-0.134c-0.246-0.052-0.494-0.11-0.747-0.173
	c-1.035-0.275-2.022-0.681-2.921-1.204c-0.899-0.523-1.709-1.162-2.39-1.901c-0.681-0.739-1.233-1.579-1.615-2.503
	c-0.382-0.924-0.593-1.933-0.593-3.01c0-1.753,0.491-3.269,1.213-4.664c0.722-1.395,1.675-2.67,2.599-3.943
	c0.924-1.273,1.819-2.543,2.425-3.928C46.231,28.81,46.547,27.311,46.315,25.579L46.315,25.579L46.315,25.579L46.315,25.579
	L46.315,25.579z"/>
<path id="path7797" inkscape:connector-curvature="0" inkscape:export-filename="C:\Users\Charlotte Abel\Documents\Symbology\Components\For Distribution\safety-and-security_fire-services-with-label.png" inkscape:export-xdpi="300.00464" inkscape:export-ydpi="300.00464" style="fill:#003366;" d="
	M47.667,32.253c0.507,0.338,0.95,0.708,1.336,1.11c0.385,0.403,0.713,0.838,0.987,1.308c0.275,0.47,0.496,0.975,0.671,1.515
	c0.174,0.54,0.301,1.116,0.385,1.728c0.063-0.148,0.121-0.333,0.168-0.547c0.046-0.214,0.08-0.457,0.096-0.721
	c0.016-0.264,0.013-0.549-0.015-0.848c-0.028-0.298-0.081-0.61-0.165-0.927c1.077,0.697,1.975,1.447,2.712,2.231
	s1.312,1.603,1.745,2.437c0.433,0.834,0.724,1.684,0.891,2.532c0.166,0.848,0.209,1.692,0.145,2.516
	c-0.063,0.908-0.238,1.727-0.515,2.454c-0.277,0.727-0.657,1.364-1.133,1.907c-0.475,0.544-1.046,0.995-1.703,1.353
	c-0.657,0.358-1.402,0.622-2.226,0.791l0,0l0,0l0,0l0,0c-0.084,0.021-0.174,0.037-0.268,0.049c-0.094,0.012-0.192,0.02-0.292,0.025
	c-0.1,0.005-0.203,0.008-0.307,0.01s-0.21,0.001-0.315,0.001c-0.148,0-0.301-0.005-0.457-0.017
	c-0.156-0.012-0.314-0.031-0.473-0.057S48.617,51.043,48.462,51c-0.156-0.043-0.309-0.096-0.457-0.159
	c-0.655-0.19-1.278-0.481-1.844-0.858c-0.566-0.378-1.076-0.842-1.503-1.381c-0.428-0.539-0.774-1.151-1.013-1.824
	s-0.371-1.407-0.371-2.189c0.021-1.246,0.343-2.323,0.805-3.318c0.462-0.994,1.064-1.905,1.645-2.819
	c0.581-0.913,1.141-1.829,1.518-2.834S47.815,33.52,47.667,32.253L47.667,32.253L47.667,32.253L47.667,32.253L47.667,32.253z"/>
<path id="path11997" style="fill:#003366;" d="M44.307,71.858v-1.643v-1.643v-1.643v-1.643h0.922h0.922h0.922h0.922v0.277v0.277
	v0.277v0.277h-0.654h-0.654h-0.654H45.38v0.394v0.394v0.394v0.394h0.562h0.562h0.562h0.562v0.277v0.277v0.277v0.277h-0.562h-0.562
	h-0.562H45.38v0.696v0.696v0.696v0.696h-0.268h-0.268h-0.268L44.307,71.858L44.307,71.858L44.307,71.858L44.307,71.858
	L44.307,71.858z"/>
<path id="path11999" style="fill:#003366;" d="M48.498,66.426v-0.293v-0.293v-0.293v-0.293h0.26h0.26h0.26h0.26v0.293v0.293v0.293
	v0.293h-0.26h-0.26h-0.26H48.498z M48.498,71.858v-1.19v-1.19v-1.19v-1.19h0.26h0.26h0.26h0.26v1.19v1.19v1.19v1.19h-0.26h-0.26
	h-0.26H48.498z"/>
<path id="path12001" style="fill:#003366;" d="M51.181,71.858h-0.26h-0.26h-0.26h-0.26v-1.19v-1.19v-1.19v-1.19h0.243h0.243h0.243
	h0.243v0.168v0.168v0.168v0.168c0.042-0.075,0.082-0.147,0.12-0.213c0.038-0.066,0.075-0.127,0.111-0.181
	c0.036-0.054,0.07-0.103,0.104-0.144s0.068-0.074,0.101-0.1c0.034-0.025,0.067-0.048,0.102-0.069c0.035-0.02,0.07-0.038,0.108-0.053
	s0.078-0.026,0.121-0.034s0.089-0.012,0.139-0.012c0.059,0,0.117,0.004,0.175,0.013c0.058,0.009,0.116,0.022,0.172,0.041
	c0.056,0.019,0.112,0.043,0.166,0.073c0.054,0.03,0.106,0.066,0.157,0.108l-0.084,0.277l-0.084,0.277l-0.084,0.277l-0.084,0.277
	c-0.042-0.034-0.084-0.063-0.125-0.088c-0.041-0.025-0.082-0.046-0.122-0.063c-0.04-0.017-0.079-0.029-0.116-0.038
	c-0.037-0.008-0.073-0.013-0.106-0.013s-0.067,0.004-0.1,0.012c-0.033,0.008-0.066,0.019-0.097,0.034
	c-0.032,0.015-0.062,0.032-0.091,0.053c-0.029,0.02-0.056,0.044-0.081,0.069c-0.025,0.025-0.05,0.057-0.074,0.094
	s-0.047,0.08-0.068,0.128c-0.021,0.048-0.04,0.102-0.056,0.16s-0.028,0.121-0.037,0.188c-0.008,0.067-0.017,0.151-0.025,0.25
	c-0.008,0.1-0.015,0.215-0.022,0.345c-0.006,0.13-0.011,0.275-0.015,0.433s-0.006,0.33-0.006,0.514l-0.008,0.369l-0.008,0.369
	l-0.008,0.369L51.181,71.858L51.181,71.858L51.181,71.858L51.181,71.858L51.181,71.858z"/>
<path id="path12003" style="fill:#003366;" d="M54.97,70.349l0.26,0.05l0.26,0.05l0.26,0.05l0.26,0.05
	c-0.034,0.117-0.071,0.228-0.114,0.333c-0.042,0.104-0.09,0.202-0.142,0.292c-0.052,0.09-0.11,0.173-0.173,0.248
	s-0.133,0.142-0.208,0.201c-0.075,0.059-0.153,0.109-0.234,0.151c-0.081,0.042-0.165,0.077-0.253,0.104
	c-0.088,0.027-0.18,0.047-0.278,0.06c-0.097,0.013-0.2,0.019-0.309,0.019c-0.143,0-0.279-0.013-0.408-0.037
	c-0.129-0.025-0.25-0.061-0.364-0.11c-0.113-0.048-0.218-0.108-0.313-0.179c-0.095-0.071-0.181-0.152-0.257-0.245
	c-0.092-0.109-0.174-0.231-0.245-0.364c-0.071-0.134-0.13-0.279-0.179-0.436c-0.048-0.157-0.085-0.326-0.109-0.506
	c-0.025-0.18-0.037-0.37-0.037-0.572c0-0.201,0.013-0.392,0.037-0.572c0.025-0.18,0.061-0.35,0.11-0.509
	c0.048-0.159,0.108-0.308,0.179-0.446c0.071-0.138,0.152-0.266,0.245-0.384c0.075-0.101,0.159-0.189,0.25-0.264
	s0.19-0.138,0.294-0.189c0.105-0.05,0.216-0.088,0.332-0.113s0.238-0.038,0.364-0.038c0.143,0,0.277,0.013,0.402,0.038
	c0.126,0.025,0.243,0.063,0.352,0.113c0.109,0.05,0.21,0.113,0.302,0.189c0.092,0.075,0.176,0.163,0.251,0.264
	c0.092,0.117,0.172,0.249,0.239,0.396c0.068,0.146,0.123,0.306,0.167,0.48c0.044,0.174,0.076,0.362,0.098,0.562
	c0.021,0.201,0.032,0.414,0.032,0.64v0.034v0.034v0.034v0.034h-0.645h-0.645h-0.645h-0.645c0,0.092,0.006,0.18,0.018,0.264
	c0.012,0.083,0.03,0.162,0.053,0.235c0.023,0.073,0.051,0.142,0.084,0.204c0.033,0.062,0.071,0.119,0.112,0.169
	c0.042,0.05,0.086,0.094,0.132,0.132s0.094,0.069,0.145,0.094c0.05,0.025,0.103,0.044,0.157,0.057s0.111,0.019,0.17,0.019
	c0.075,0.008,0.145,0,0.208-0.024s0.121-0.064,0.173-0.118c0.052-0.054,0.099-0.124,0.142-0.206
	C54.898,70.554,54.936,70.458,54.97,70.349L54.97,70.349L54.97,70.349L54.97,70.349L54.97,70.349z M55.037,69.041
	c0-0.092-0.006-0.178-0.018-0.258c-0.012-0.08-0.028-0.155-0.049-0.224c-0.021-0.069-0.046-0.133-0.074-0.192
	c-0.028-0.059-0.06-0.114-0.093-0.164c-0.034-0.05-0.071-0.092-0.112-0.127c-0.041-0.035-0.085-0.062-0.131-0.083
	c-0.046-0.021-0.094-0.036-0.144-0.045c-0.049-0.009-0.1-0.014-0.15-0.014c-0.059,0-0.113,0.006-0.164,0.019
	c-0.051,0.013-0.098,0.031-0.142,0.057s-0.085,0.057-0.123,0.094c-0.038,0.038-0.074,0.082-0.108,0.132
	c-0.042,0.05-0.078,0.105-0.107,0.164s-0.054,0.123-0.073,0.192c-0.019,0.069-0.033,0.144-0.042,0.224s-0.013,0.166-0.013,0.258
	h0.386h0.386h0.386h0.386v-0.008v-0.008v-0.008V69.041z"/>
<path id="path12005" style="fill:#003366;" d="M36.226,78.899l0.268-0.034l0.268-0.034l0.268-0.034l0.268-0.034
	c0.034,0.21,0.082,0.394,0.146,0.553c0.064,0.159,0.144,0.292,0.24,0.399c0.096,0.107,0.21,0.188,0.341,0.242
	c0.131,0.054,0.28,0.081,0.447,0.081c0.084,0,0.163-0.006,0.238-0.018c0.075-0.012,0.145-0.03,0.21-0.053s0.125-0.051,0.179-0.084
	c0.054-0.033,0.102-0.071,0.144-0.113c0.05-0.042,0.092-0.088,0.127-0.137s0.062-0.102,0.083-0.156s0.036-0.111,0.045-0.169
	c0.009-0.058,0.014-0.116,0.014-0.175c0-0.034-0.002-0.067-0.006-0.1c-0.004-0.033-0.01-0.065-0.019-0.097
	c-0.008-0.031-0.019-0.062-0.031-0.091c-0.013-0.029-0.027-0.056-0.044-0.081c-0.017-0.025-0.036-0.05-0.057-0.075
	c-0.021-0.025-0.044-0.049-0.069-0.072c-0.025-0.023-0.052-0.045-0.082-0.066c-0.029-0.02-0.061-0.039-0.094-0.056
	c-0.034-0.017-0.08-0.036-0.138-0.057s-0.128-0.046-0.21-0.073c-0.082-0.027-0.175-0.058-0.279-0.092
	c-0.104-0.034-0.22-0.072-0.345-0.114c-0.117-0.034-0.226-0.069-0.327-0.106s-0.193-0.076-0.277-0.116s-0.159-0.081-0.226-0.122
	c-0.067-0.041-0.126-0.083-0.176-0.125c-0.05-0.042-0.101-0.086-0.149-0.133c-0.049-0.047-0.096-0.096-0.14-0.148
	s-0.085-0.108-0.121-0.167c-0.036-0.059-0.067-0.122-0.093-0.189c-0.034-0.067-0.063-0.136-0.088-0.207
	c-0.025-0.071-0.046-0.143-0.063-0.216c-0.017-0.073-0.029-0.148-0.038-0.223c-0.008-0.075-0.013-0.15-0.013-0.226
	c0-0.092,0.004-0.18,0.013-0.265c0.009-0.085,0.022-0.167,0.041-0.246c0.019-0.08,0.043-0.157,0.073-0.234s0.066-0.152,0.107-0.227
	c0.042-0.075,0.088-0.145,0.138-0.208c0.05-0.063,0.103-0.121,0.16-0.173c0.057-0.052,0.116-0.099,0.179-0.142
	c0.062-0.042,0.127-0.08,0.195-0.114c0.067-0.034,0.14-0.065,0.22-0.093c0.079-0.028,0.164-0.053,0.254-0.074
	c0.09-0.021,0.186-0.038,0.286-0.049s0.205-0.018,0.314-0.018c0.159,0,0.31,0.01,0.452,0.031c0.142,0.021,0.275,0.052,0.399,0.094
	c0.124,0.042,0.238,0.094,0.342,0.157s0.199,0.136,0.282,0.22c0.092,0.084,0.172,0.178,0.24,0.282
	c0.068,0.104,0.125,0.218,0.171,0.342c0.046,0.124,0.082,0.257,0.108,0.399c0.026,0.142,0.043,0.293,0.051,0.452l-0.277,0.017
	l-0.277,0.017l-0.277,0.017l-0.277,0.017c-0.008-0.092-0.023-0.176-0.042-0.252s-0.044-0.144-0.071-0.205
	c-0.027-0.061-0.057-0.114-0.089-0.161c-0.032-0.047-0.065-0.086-0.099-0.12s-0.073-0.063-0.119-0.088
	c-0.046-0.025-0.097-0.046-0.153-0.063c-0.057-0.017-0.119-0.029-0.185-0.038c-0.067-0.008-0.138-0.013-0.213-0.013
	c-0.075,0-0.147,0.004-0.213,0.012c-0.067,0.008-0.128,0.019-0.185,0.034c-0.057,0.015-0.108,0.032-0.154,0.053
	c-0.046,0.02-0.085,0.043-0.119,0.069c-0.042,0.034-0.078,0.067-0.107,0.102c-0.03,0.035-0.054,0.07-0.073,0.108
	c-0.019,0.038-0.032,0.078-0.041,0.121c-0.009,0.043-0.013,0.089-0.013,0.139c0,0.042,0.004,0.084,0.013,0.125
	c0.008,0.041,0.021,0.082,0.038,0.122c0.017,0.04,0.038,0.079,0.063,0.116c0.025,0.037,0.054,0.073,0.088,0.106
	s0.08,0.067,0.138,0.101c0.059,0.034,0.13,0.067,0.214,0.101c0.084,0.034,0.18,0.067,0.289,0.101
	c0.109,0.034,0.231,0.067,0.365,0.101c0.134,0.042,0.26,0.084,0.377,0.126c0.117,0.042,0.225,0.084,0.323,0.126
	c0.098,0.042,0.187,0.084,0.267,0.126c0.079,0.042,0.148,0.084,0.207,0.126c0.059,0.042,0.115,0.088,0.169,0.138
	s0.105,0.103,0.154,0.16c0.048,0.057,0.093,0.116,0.135,0.179c0.041,0.062,0.079,0.127,0.113,0.194s0.063,0.138,0.088,0.214
	c0.025,0.075,0.046,0.155,0.063,0.239c0.017,0.084,0.029,0.172,0.038,0.264c0.008,0.092,0.013,0.189,0.013,0.289
	c0,0.143-0.01,0.279-0.032,0.409c-0.021,0.13-0.054,0.255-0.098,0.375c-0.044,0.12-0.1,0.234-0.167,0.343
	c-0.068,0.109-0.147,0.214-0.24,0.315c-0.084,0.101-0.182,0.187-0.294,0.259c-0.112,0.072-0.238,0.131-0.376,0.177
	s-0.289,0.08-0.452,0.102c-0.162,0.022-0.336,0.032-0.521,0.032c-0.335,0.008-0.633-0.034-0.893-0.125
	c-0.26-0.091-0.482-0.232-0.666-0.42c-0.184-0.189-0.331-0.425-0.44-0.709C36.33,79.608,36.259,79.276,36.226,78.899L36.226,78.899
	L36.226,78.899L36.226,78.899L36.226,78.899z"/>
<path id="path12007" style="fill:#003366;" d="M43.368,79.536l0.26,0.05l0.26,0.05l0.26,0.05l0.26,0.05
	c-0.034,0.117-0.071,0.228-0.114,0.333c-0.042,0.104-0.09,0.202-0.142,0.292s-0.11,0.173-0.173,0.248s-0.133,0.142-0.208,0.201
	c-0.075,0.059-0.153,0.109-0.234,0.151c-0.081,0.042-0.165,0.077-0.253,0.104c-0.088,0.027-0.18,0.047-0.278,0.06
	c-0.097,0.013-0.2,0.019-0.309,0.019c-0.143,0-0.279-0.013-0.408-0.037c-0.129-0.025-0.25-0.061-0.364-0.11
	c-0.113-0.048-0.218-0.108-0.313-0.179c-0.095-0.071-0.181-0.152-0.257-0.245c-0.092-0.109-0.174-0.231-0.245-0.364
	c-0.071-0.134-0.13-0.279-0.179-0.436c-0.048-0.157-0.085-0.326-0.11-0.505c-0.025-0.18-0.037-0.37-0.037-0.572
	s0.013-0.392,0.037-0.572c0.025-0.18,0.061-0.35,0.11-0.509c0.048-0.159,0.108-0.308,0.179-0.446
	c0.071-0.138,0.152-0.266,0.244-0.384c0.075-0.101,0.159-0.189,0.25-0.264c0.091-0.075,0.19-0.138,0.294-0.189
	c0.105-0.05,0.216-0.088,0.332-0.113c0.116-0.025,0.238-0.038,0.364-0.038c0.143,0,0.277,0.013,0.402,0.038
	c0.126,0.025,0.243,0.063,0.352,0.113c0.109,0.05,0.21,0.113,0.302,0.189c0.092,0.075,0.176,0.163,0.251,0.264
	c0.092,0.117,0.172,0.249,0.239,0.396c0.068,0.146,0.123,0.307,0.167,0.481c0.044,0.174,0.076,0.361,0.098,0.562
	c0.021,0.201,0.032,0.414,0.032,0.641v0.034v0.034v0.034V79h-0.645H43.15h-0.645h-0.645c0,0.092,0.006,0.18,0.018,0.264
	c0.012,0.083,0.03,0.162,0.053,0.235c0.023,0.073,0.051,0.142,0.084,0.204c0.033,0.062,0.071,0.119,0.113,0.169
	c0.042,0.05,0.086,0.094,0.132,0.132c0.046,0.038,0.094,0.069,0.145,0.094s0.103,0.044,0.157,0.057
	c0.054,0.013,0.111,0.019,0.17,0.019c0.075,0.008,0.147,0.002,0.213-0.019c0.066-0.021,0.127-0.058,0.181-0.11
	c0.054-0.052,0.103-0.12,0.144-0.205S43.343,79.654,43.368,79.536L43.368,79.536L43.368,79.536L43.368,79.536L43.368,79.536z
	 M43.435,78.262c0-0.092-0.006-0.178-0.018-0.258c-0.012-0.08-0.028-0.154-0.049-0.224c-0.021-0.069-0.046-0.133-0.074-0.192
	c-0.028-0.059-0.06-0.114-0.093-0.164c-0.034-0.05-0.071-0.092-0.112-0.127c-0.041-0.035-0.085-0.062-0.131-0.083
	c-0.046-0.021-0.094-0.036-0.144-0.045c-0.049-0.009-0.1-0.014-0.15-0.014c-0.059,0-0.113,0.006-0.164,0.019
	c-0.051,0.013-0.098,0.031-0.142,0.057c-0.044,0.025-0.085,0.057-0.123,0.094c-0.038,0.038-0.074,0.082-0.107,0.132
	c-0.042,0.05-0.078,0.105-0.107,0.164c-0.03,0.059-0.054,0.123-0.073,0.192c-0.019,0.069-0.033,0.143-0.042,0.224
	s-0.013,0.166-0.013,0.258l0.386-0.008l0.386-0.008l0.386-0.008L43.435,78.262L43.435,78.262L43.435,78.262L43.435,78.262
	L43.435,78.262z"/>
<path id="path12009" style="fill:#003366;" d="M45.883,81.045h-0.26h-0.26h-0.26h-0.26v-1.19v-1.19v-1.19v-1.19h0.243h0.243h0.243
	h0.243v0.168v0.168v0.168v0.168c0.042-0.075,0.082-0.147,0.12-0.213c0.038-0.066,0.075-0.127,0.11-0.181
	c0.036-0.054,0.07-0.103,0.104-0.144c0.034-0.041,0.068-0.074,0.101-0.1c0.034-0.025,0.067-0.048,0.102-0.069
	c0.035-0.02,0.07-0.038,0.108-0.053c0.038-0.015,0.078-0.026,0.121-0.034c0.043-0.008,0.089-0.012,0.139-0.012
	c0.059,0,0.117,0.004,0.176,0.013c0.058,0.009,0.116,0.023,0.173,0.042c0.057,0.019,0.112,0.043,0.166,0.073
	s0.106,0.065,0.157,0.107l-0.084,0.277l-0.084,0.277l-0.084,0.277l-0.084,0.277c-0.042-0.034-0.084-0.063-0.125-0.088
	c-0.041-0.025-0.082-0.046-0.122-0.063c-0.04-0.017-0.079-0.029-0.116-0.038c-0.037-0.008-0.073-0.013-0.106-0.013
	s-0.067,0.004-0.1,0.012c-0.033,0.008-0.065,0.019-0.097,0.034c-0.032,0.015-0.062,0.033-0.091,0.053
	c-0.029,0.02-0.056,0.044-0.081,0.069c-0.025,0.025-0.05,0.057-0.074,0.094c-0.024,0.037-0.047,0.08-0.068,0.129
	c-0.021,0.048-0.04,0.102-0.056,0.16c-0.016,0.058-0.028,0.121-0.037,0.188c-0.008,0.067-0.017,0.151-0.025,0.25
	c-0.008,0.1-0.015,0.215-0.022,0.345c-0.006,0.13-0.011,0.275-0.015,0.433c-0.004,0.158-0.006,0.33-0.006,0.514v0.369v0.369v0.369
	v0.369h-0.008h-0.008h-0.008H45.883z"/>
<path id="path12011" style="fill:#003366;" d="M48.498,81.045l-0.394-1.19l-0.394-1.19l-0.394-1.19l-0.394-1.19h0.268h0.268h0.268
	h0.268l0.184,0.612l0.184,0.612l0.184,0.612l0.184,0.612l0.05,0.201l0.05,0.201l0.05,0.201l0.05,0.201l0.059-0.201l0.059-0.201
	l0.059-0.201l0.059-0.201l0.184-0.612l0.184-0.612l0.184-0.612l0.184-0.612h0.268h0.268h0.268h0.268l-0.386,1.19l-0.386,1.19
	l-0.386,1.19l-0.386,1.19h-0.235h-0.235h-0.235H48.498z"/>
<path id="path12013" style="fill:#003366;" d="M51.214,75.647v-0.293V75.06v-0.293v-0.293h0.26h0.26h0.26h0.26v0.293v0.293v0.293
	v0.293h-0.26h-0.26h-0.26H51.214z M51.214,81.045v-1.19v-1.19v-1.19v-1.19h0.26h0.26h0.26h0.26v1.19v1.19v1.19v1.19h-0.26h-0.26
	h-0.26H51.214z"/>
<path id="path12015" style="fill:#003366;" d="M56.311,77.692l-0.251,0.059l-0.251,0.059l-0.251,0.059l-0.251,0.059
	c-0.017-0.126-0.044-0.235-0.082-0.327c-0.038-0.093-0.086-0.169-0.145-0.23c-0.059-0.061-0.128-0.106-0.207-0.136
	s-0.17-0.045-0.27-0.045c-0.067,0-0.13,0.006-0.189,0.019c-0.059,0.013-0.113,0.033-0.163,0.06c-0.05,0.027-0.096,0.062-0.138,0.104
	c-0.042,0.042-0.08,0.093-0.113,0.151c-0.042,0.05-0.078,0.111-0.107,0.182c-0.03,0.071-0.054,0.153-0.073,0.245
	c-0.019,0.092-0.033,0.195-0.042,0.308c-0.009,0.113-0.013,0.237-0.013,0.371c0,0.143,0.004,0.275,0.013,0.396
	s0.023,0.233,0.042,0.333c0.019,0.101,0.043,0.191,0.073,0.27s0.065,0.149,0.107,0.207c0.042,0.059,0.086,0.109,0.133,0.151
	c0.047,0.042,0.096,0.077,0.148,0.104c0.052,0.027,0.108,0.047,0.167,0.06c0.059,0.013,0.122,0.019,0.189,0.019
	c0.05,0,0.098-0.004,0.144-0.013c0.046-0.008,0.088-0.021,0.128-0.038c0.04-0.017,0.077-0.038,0.11-0.063
	c0.033-0.025,0.062-0.054,0.087-0.088c0.034-0.034,0.063-0.073,0.089-0.119c0.026-0.046,0.049-0.099,0.07-0.157
	s0.04-0.124,0.058-0.195s0.035-0.149,0.051-0.233l0.251,0.05l0.251,0.05l0.251,0.05l0.251,0.05c-0.05,0.285-0.126,0.534-0.226,0.748
	s-0.226,0.392-0.377,0.534s-0.327,0.249-0.528,0.321c-0.201,0.071-0.428,0.107-0.679,0.107c-0.159,0-0.308-0.015-0.446-0.045
	s-0.266-0.075-0.384-0.136c-0.117-0.061-0.224-0.137-0.321-0.23c-0.096-0.093-0.182-0.202-0.258-0.328
	c-0.075-0.117-0.143-0.243-0.201-0.376c-0.058-0.133-0.107-0.273-0.147-0.42c-0.04-0.147-0.07-0.3-0.09-0.458
	c-0.02-0.158-0.031-0.322-0.031-0.489c0-0.201,0.01-0.392,0.032-0.572c0.021-0.18,0.054-0.348,0.098-0.505
	c0.044-0.157,0.099-0.303,0.167-0.437s0.147-0.255,0.239-0.364c0.084-0.109,0.176-0.203,0.276-0.283
	c0.1-0.08,0.208-0.146,0.323-0.199c0.115-0.052,0.238-0.091,0.367-0.117s0.265-0.038,0.408-0.038c0.117,0,0.228,0.008,0.333,0.025
	c0.105,0.016,0.203,0.04,0.295,0.072c0.092,0.032,0.178,0.07,0.258,0.116c0.08,0.046,0.153,0.098,0.22,0.157
	c0.067,0.059,0.13,0.126,0.189,0.202c0.059,0.076,0.113,0.161,0.163,0.255c0.05,0.094,0.096,0.198,0.138,0.312
	C56.24,77.434,56.277,77.558,56.311,77.692L56.311,77.692L56.311,77.692L56.311,77.692L56.311,77.692z"/>
<path id="path12017" style="fill:#003366;" d="M58.96,79.536l0.26,0.05l0.26,0.05l0.26,0.05l0.26,0.05
	c-0.034,0.117-0.071,0.228-0.114,0.333c-0.042,0.104-0.09,0.202-0.142,0.292c-0.052,0.09-0.11,0.173-0.173,0.248
	s-0.133,0.142-0.208,0.201c-0.075,0.059-0.153,0.109-0.234,0.151c-0.081,0.042-0.165,0.077-0.253,0.104
	c-0.088,0.027-0.18,0.047-0.278,0.06c-0.097,0.013-0.2,0.019-0.309,0.019c-0.143,0-0.279-0.013-0.408-0.037
	c-0.129-0.025-0.25-0.061-0.364-0.11c-0.113-0.048-0.218-0.108-0.313-0.179c-0.095-0.071-0.181-0.152-0.257-0.245
	c-0.092-0.109-0.174-0.231-0.245-0.364c-0.071-0.134-0.13-0.279-0.179-0.436c-0.048-0.157-0.085-0.326-0.11-0.506
	s-0.037-0.37-0.037-0.572c0-0.201,0.013-0.392,0.037-0.572c0.025-0.18,0.061-0.35,0.11-0.509c0.048-0.159,0.108-0.308,0.179-0.446
	c0.071-0.138,0.152-0.266,0.245-0.384c0.075-0.101,0.159-0.189,0.25-0.264c0.091-0.075,0.19-0.138,0.294-0.189
	c0.105-0.05,0.216-0.088,0.332-0.113c0.116-0.025,0.238-0.038,0.364-0.038c0.143,0,0.277,0.013,0.402,0.038
	c0.126,0.025,0.243,0.063,0.352,0.113c0.109,0.05,0.21,0.113,0.302,0.189c0.092,0.075,0.176,0.163,0.251,0.264
	c0.092,0.117,0.172,0.249,0.239,0.396c0.068,0.146,0.123,0.307,0.167,0.481c0.044,0.174,0.076,0.361,0.098,0.562
	c0.021,0.201,0.032,0.414,0.032,0.641v0.034v0.034v0.034V79h-0.645h-0.645h-0.645h-0.645c0,0.092,0.006,0.18,0.018,0.264
	c0.012,0.083,0.03,0.162,0.053,0.235c0.023,0.073,0.051,0.141,0.084,0.204c0.033,0.062,0.071,0.119,0.113,0.169
	c0.042,0.05,0.086,0.094,0.132,0.132s0.094,0.069,0.145,0.094s0.103,0.044,0.157,0.057c0.054,0.013,0.111,0.019,0.17,0.019
	c0.075,0.008,0.147,0.002,0.213-0.019c0.066-0.021,0.127-0.058,0.181-0.11c0.054-0.052,0.103-0.12,0.143-0.205
	S58.935,79.654,58.96,79.536L58.96,79.536L58.96,79.536L58.96,79.536L58.96,79.536z M59.027,78.262c0-0.092-0.006-0.178-0.018-0.258
	c-0.012-0.08-0.028-0.154-0.049-0.224c-0.021-0.069-0.046-0.133-0.074-0.192c-0.028-0.059-0.06-0.114-0.093-0.164
	c-0.034-0.05-0.071-0.092-0.112-0.127c-0.041-0.035-0.085-0.062-0.131-0.083c-0.046-0.021-0.094-0.036-0.144-0.045
	c-0.049-0.009-0.1-0.014-0.15-0.014c-0.059,0-0.113,0.006-0.164,0.019c-0.051,0.013-0.098,0.031-0.142,0.057
	c-0.044,0.025-0.085,0.057-0.123,0.094c-0.038,0.038-0.074,0.082-0.108,0.132c-0.042,0.05-0.078,0.105-0.107,0.164
	c-0.03,0.059-0.054,0.123-0.073,0.192c-0.019,0.069-0.032,0.143-0.041,0.224c-0.009,0.08-0.013,0.166-0.013,0.258l0.386-0.008
	l0.386-0.008l0.386-0.008L59.027,78.262L59.027,78.262L59.027,78.262L59.027,78.262L59.027,78.262z"/>
<path id="path12019" style="fill:#003366;" d="M60.133,79.704l0.26-0.05l0.26-0.05l0.26-0.05l0.26-0.05
	c0.025,0.126,0.061,0.235,0.107,0.327c0.047,0.093,0.104,0.169,0.174,0.23c0.069,0.061,0.15,0.106,0.242,0.136
	c0.093,0.03,0.198,0.045,0.315,0.045c0.059,0,0.115-0.002,0.169-0.007c0.054-0.005,0.105-0.012,0.153-0.022
	c0.048-0.01,0.093-0.024,0.135-0.041s0.079-0.038,0.113-0.063c0.034-0.025,0.061-0.052,0.083-0.081
	c0.022-0.029,0.039-0.059,0.051-0.091c0.013-0.031,0.021-0.064,0.026-0.097c0.005-0.033,0.007-0.067,0.007-0.1
	c0-0.025-0.002-0.05-0.006-0.074c-0.004-0.024-0.009-0.047-0.015-0.068c-0.006-0.021-0.014-0.04-0.022-0.056
	c-0.008-0.016-0.016-0.028-0.024-0.037c-0.017-0.017-0.036-0.031-0.057-0.045c-0.021-0.014-0.046-0.026-0.073-0.039
	c-0.027-0.013-0.058-0.025-0.092-0.039c-0.034-0.014-0.072-0.028-0.114-0.045c-0.21-0.059-0.402-0.115-0.577-0.17
	c-0.174-0.055-0.331-0.108-0.467-0.161c-0.136-0.052-0.253-0.104-0.348-0.155c-0.095-0.051-0.168-0.102-0.219-0.152
	c-0.075-0.067-0.14-0.138-0.195-0.214c-0.055-0.076-0.1-0.157-0.136-0.242c-0.036-0.086-0.062-0.177-0.079-0.274
	c-0.017-0.097-0.026-0.2-0.026-0.309c0-0.109,0.008-0.214,0.026-0.314c0.017-0.1,0.043-0.195,0.079-0.285
	c0.036-0.09,0.081-0.175,0.136-0.254c0.055-0.079,0.12-0.152,0.195-0.22c0.067-0.067,0.145-0.126,0.232-0.176
	c0.087-0.05,0.183-0.092,0.288-0.126c0.105-0.034,0.218-0.059,0.338-0.075c0.121-0.017,0.248-0.025,0.382-0.025
	c0.126,0,0.245,0.006,0.358,0.019s0.218,0.031,0.317,0.057c0.098,0.025,0.19,0.057,0.273,0.094c0.083,0.038,0.159,0.082,0.226,0.132
	c0.067,0.05,0.13,0.107,0.188,0.171c0.058,0.064,0.112,0.135,0.16,0.215c0.048,0.08,0.091,0.168,0.128,0.265
	c0.037,0.097,0.069,0.204,0.094,0.322l-0.243,0.059l-0.243,0.059l-0.243,0.059l-0.243,0.059c-0.025-0.092-0.059-0.174-0.101-0.245
	c-0.042-0.071-0.094-0.13-0.154-0.179c-0.061-0.048-0.131-0.085-0.211-0.11c-0.08-0.025-0.17-0.037-0.271-0.037
	c-0.067,0-0.128,0.002-0.183,0.006c-0.055,0.004-0.104,0.01-0.148,0.019c-0.044,0.008-0.083,0.019-0.117,0.031
	c-0.034,0.013-0.063,0.027-0.089,0.044c-0.025,0.017-0.048,0.036-0.069,0.056s-0.038,0.043-0.053,0.066
	c-0.015,0.023-0.026,0.047-0.034,0.072c-0.008,0.025-0.012,0.05-0.012,0.075s0.002,0.05,0.007,0.075
	c0.005,0.025,0.012,0.049,0.023,0.072c0.01,0.023,0.024,0.045,0.041,0.066s0.038,0.039,0.063,0.056
	c0.025,0.017,0.063,0.036,0.113,0.057c0.05,0.021,0.113,0.046,0.189,0.073c0.075,0.027,0.163,0.058,0.264,0.092
	c0.101,0.034,0.214,0.072,0.34,0.114c0.143,0.042,0.275,0.086,0.396,0.132c0.121,0.046,0.231,0.094,0.329,0.145
	c0.099,0.05,0.186,0.103,0.261,0.157c0.075,0.054,0.138,0.111,0.188,0.17c0.05,0.059,0.094,0.122,0.132,0.189
	s0.069,0.138,0.094,0.214c0.025,0.075,0.044,0.155,0.057,0.239c0.013,0.084,0.019,0.172,0.019,0.264c0,0.117-0.01,0.228-0.031,0.334
	c-0.02,0.105-0.051,0.205-0.091,0.299c-0.04,0.094-0.089,0.183-0.147,0.268c-0.058,0.084-0.125,0.164-0.201,0.239
	c-0.075,0.075-0.159,0.14-0.251,0.195c-0.092,0.055-0.193,0.1-0.302,0.136c-0.109,0.036-0.226,0.062-0.352,0.079
	c-0.126,0.017-0.26,0.026-0.402,0.026c-0.126,0-0.245-0.008-0.359-0.025s-0.222-0.04-0.324-0.072c-0.103-0.032-0.2-0.07-0.293-0.116
	c-0.093-0.046-0.181-0.098-0.265-0.157c-0.092-0.067-0.174-0.14-0.246-0.22c-0.072-0.08-0.135-0.166-0.19-0.258
	c-0.054-0.092-0.1-0.191-0.139-0.296C60.19,79.932,60.159,79.821,60.133,79.704L60.133,79.704L60.133,79.704L60.133,79.704
	L60.133,79.704z"/>
</svg>
