<?xml version="1.0" encoding="iso-8859-1"?>
<!-- Generator: Adobe Illustrator 25.4.1, SVG Export Plug-In . SVG Version: 6.00 Build 0)  -->
<svg version="1.1"
	 id="svg8" xmlns:cc="http://creativecommons.org/ns#" xmlns:dc="http://purl.org/dc/elements/1.1/" xmlns:inkscape="http://www.inkscape.org/namespaces/inkscape" xmlns:rdf="http://www.w3.org/1999/02/22-rdf-syntax-ns#" xmlns:sodipodi="http://sodipodi.sourceforge.net/DTD/sodipodi-0.dtd" xmlns:svg="http://www.w3.org/2000/svg"
	 xmlns="http://www.w3.org/2000/svg" xmlns:xlink="http://www.w3.org/1999/xlink" x="0px" y="0px" viewBox="0 0 100 100"
	 style="enable-background:new 0 0 100 100;" xml:space="preserve">
<sodipodi:namedview  bordercolor="#666666" borderopacity="1.0" id="base" inkscape:current-layer="layer3" inkscape:cx="-302.11164" inkscape:cy="84.283015" inkscape:document-units="px" inkscape:guide-bbox="true" inkscape:lockguides="true" inkscape:pageopacity="0.0" inkscape:pageshadow="2" inkscape:window-height="657" inkscape:window-maximized="1" inkscape:window-width="1280" inkscape:window-x="-8" inkscape:window-y="-8" inkscape:zoom="0.765625" pagecolor="#ffffff" showgrid="false" showguides="false" units="px">
	<sodipodi:guide  id="guide5700" inkscape:locked="true" orientation="0,1" position="-0.93017576,23.874511"></sodipodi:guide>
	<sodipodi:guide  id="guide5726" inkscape:locked="true" orientation="0,1" position="-26.098869,26.473047"></sodipodi:guide>
	<sodipodi:guide  id="guide5880" inkscape:locked="true" orientation="0,1" position="104.51042,-2.9104167"></sodipodi:guide>
	<sodipodi:guide  id="guide6001" inkscape:locked="true" orientation="0,1" position="-71.093695,29.279377"></sodipodi:guide>
	<sodipodi:guide  id="guide6005" inkscape:locked="true" orientation="0,1" position="-46.304445,58.278122"></sodipodi:guide>
	<sodipodi:guide  id="guide6736" inkscape:locked="true" orientation="0,1" position="-0.10335287,20.205485"></sodipodi:guide>
	<sodipodi:guide  id="guide6738" inkscape:locked="true" orientation="0,1" position="-0.43848907,22.874513"></sodipodi:guide>
	<inkscape:grid  id="grid2386" type="xygrid"></inkscape:grid>
</sodipodi:namedview>
<g id="g1180" transform="translate(0,-229.2666)" inkscape:groupmode="layer" inkscape:label="halo:always" style="display:none;">
	<g id="g1210" inkscape:groupmode="layer" inkscape:label="-gray-halo:iter3" style="display:inline;">
		<g id="circle1208">
			<path style="fill:#919395;" d="M50,329.3c-27.6,0-50-22.4-50-50s22.4-50,50-50s50,22.4,50,50S77.6,329.3,50,329.3z M50,237.9
				c-22.8,0-41.4,18.6-41.4,41.4s18.6,41.4,41.4,41.4s41.4-18.6,41.4-41.4S72.8,237.9,50,237.9z"/>
		</g>
	</g>
	<g id="g1206" inkscape:groupmode="layer" inkscape:label="-red-halo:iter3" style="display:inline;">
		<g id="circle1204">
			<path style="fill:#C52038;" d="M50,329.3c-27.6,0-50-22.4-50-50s22.4-50,50-50s50,22.4,50,50S77.6,329.3,50,329.3z M50,237.9
				c-22.8,0-41.4,18.6-41.4,41.4s18.6,41.4,41.4,41.4s41.4-18.6,41.4-41.4S72.8,237.9,50,237.9z"/>
		</g>
	</g>
	<g id="g1202" inkscape:groupmode="layer" inkscape:label="-green-halo:iter3" style="display:inline;">
		<g id="circle1200">
			<path style="fill:#5E9C42;" d="M50,329.3c-27.6,0-50-22.4-50-50s22.4-50,50-50s50,22.4,50,50S77.6,329.3,50,329.3z M50,237.9
				c-22.8,0-41.4,18.6-41.4,41.4s18.6,41.4,41.4,41.4s41.4-18.6,41.4-41.4S72.8,237.9,50,237.9z"/>
		</g>
	</g>
	<g id="layer18" inkscape:groupmode="layer" inkscape:label="-yellow-halo:iter3" style="display:inline;">
		<g id="circle1178-4">
			<path style="fill:#FBBA16;" d="M50,329.3c-27.6,0-50-22.4-50-50s22.4-50,50-50s50,22.4,50,50S77.6,329.3,50,329.3z M50,237.9
				c-22.8,0-41.4,18.6-41.4,41.4s18.6,41.4,41.4,41.4s41.4-18.6,41.4-41.4S72.8,237.9,50,237.9z"/>
		</g>
	</g>
</g>
<path id="path3787" inkscape:connector-curvature="0" inkscape:export-filename="C:\Users\Charlotte Abel\Documents\Symbology\Components\For Distribution\safety-and-security_community-safety-gray.png" inkscape:export-xdpi="300.00464" inkscape:export-ydpi="300.00464" style="fill:#003366;" d="
	M50.201,26.635c-1.056,0-2.065,0.217-2.983,0.607c-0.919,0.391-1.748,0.956-2.445,1.653c-0.697,0.697-1.262,1.526-1.653,2.445
	c-0.391,0.919-0.607,1.927-0.607,2.983l0,0l0,0l0,0l0,0c0,1.056,0.217,2.065,0.607,2.983c0.391,0.919,0.956,1.748,1.653,2.445
	c0.697,0.697,1.526,1.262,2.445,1.653c0.919,0.391,1.927,0.607,2.983,0.607l0,0l0,0l0,0l0,0c1.056,0,2.065-0.217,2.983-0.607
	c0.919-0.391,1.748-0.956,2.445-1.653s1.262-1.526,1.653-2.445c0.391-0.919,0.607-1.927,0.607-2.983l0,0l0,0l0,0l0,0
	c0-1.056-0.211-2.065-0.595-2.983c-0.384-0.919-0.941-1.748-1.633-2.445c-0.692-0.697-1.518-1.262-2.441-1.653
	C52.297,26.852,51.278,26.635,50.201,26.635L50.201,26.635L50.201,26.635L50.201,26.635L50.201,26.635z"/>
<path id="path3783" inkscape:connector-curvature="0" inkscape:export-filename="C:\Users\Charlotte Abel\Documents\Symbology\Components\For Distribution\safety-and-security_community-safety-gray.png" inkscape:export-xdpi="300.00464" inkscape:export-ydpi="300.00464" style="fill:#003366;" d="
	M64.986,30.606c-0.76,0-1.484,0.153-2.141,0.43c-0.657,0.277-1.249,0.679-1.745,1.175c-0.496,0.496-0.898,1.088-1.175,1.745
	c-0.277,0.657-0.43,1.381-0.43,2.141s0.153,1.484,0.43,2.141c0.277,0.657,0.679,1.249,1.175,1.745
	c0.496,0.496,1.088,0.898,1.745,1.175c0.657,0.277,1.381,0.43,2.141,0.43l0,0l0,0l0,0l0,0c0.76,0,1.484-0.153,2.141-0.43
	c0.657-0.277,1.249-0.679,1.745-1.175c0.496-0.496,0.898-1.088,1.175-1.745c0.277-0.657,0.43-1.381,0.43-2.141l0,0l0,0l0,0l0,0
	c0-0.739-0.153-1.452-0.43-2.106c-0.277-0.653-0.679-1.247-1.175-1.749c-0.496-0.502-1.088-0.911-1.745-1.195
	C66.47,30.765,65.747,30.606,64.986,30.606z"/>
<path id="path3779" inkscape:connector-curvature="0" inkscape:export-filename="C:\Users\Charlotte Abel\Documents\Symbology\Components\For Distribution\safety-and-security_community-safety-gray.png" inkscape:export-xdpi="300.00464" inkscape:export-ydpi="300.00464" style="fill:#003366;" d="
	M63.212,43.871c-0.338,0-0.681,0.016-1.026,0.049c-0.345,0.033-0.691,0.083-1.034,0.151c-0.343,0.069-0.684,0.156-1.017,0.263
	c-0.334,0.107-0.661,0.234-0.978,0.382c0.908,0.676,1.732,1.447,2.461,2.294c0.729,0.848,1.362,1.772,1.89,2.754
	c0.528,0.982,0.95,2.022,1.257,3.102c0.306,1.08,0.496,2.199,0.56,3.34l1.098-0.803l1.098-0.803l1.098-0.803l1.098-0.803l0,0l0,0
	l0,0l0,0c0.169-0.127,0.343-0.243,0.523-0.347s0.364-0.197,0.554-0.276c0.19-0.079,0.385-0.146,0.586-0.197
	c0.201-0.052,0.407-0.088,0.618-0.11l0,0l0,0l0,0l0,0l0,0l0,0l0,0l0,0c0.021,0,0.042,0,0.063,0c0.021,0,0.042,0,0.063,0
	c0.021,0,0.042,0,0.063,0c0.021,0,0.042,0,0.063,0l0.169-1.119l0.169-1.119l0.169-1.119l0.169-1.119
	c-0.465-0.57-0.993-1.083-1.57-1.53s-1.202-0.831-1.862-1.142c-0.66-0.312-1.354-0.552-2.069-0.714s-1.449-0.246-2.188-0.246
	l-0.507-0.021l-0.507-0.021l-0.507-0.021L63.212,43.871z"/>
<path id="path3777" inkscape:connector-curvature="0" inkscape:export-filename="C:\Users\Charlotte Abel\Documents\Symbology\Components\For Distribution\safety-and-security_community-safety-gray.png" inkscape:export-xdpi="300.00464" inkscape:export-ydpi="300.00464" style="fill:#003366;" d="
	M49.103,44.293c-1.669,0-3.263,0.338-4.717,0.95c-1.454,0.613-2.766,1.5-3.87,2.598c-1.103,1.098-1.998,2.408-2.617,3.865
	s-0.962,3.063-0.962,4.752v0.296v0.296v0.296v0.296l1.479,1.077l1.479,1.077l1.479,1.077l1.479,1.077h3.654h3.654h3.654h3.654
	l1.225-0.887l1.225-0.887l1.225-0.887l1.225-0.887l0,0l0,0l0,0l0,0l0.275-0.19l0.275-0.19l0.275-0.19l0.275-0.19v-0.296v-0.296
	v-0.296v-0.296c0-1.669-0.338-3.263-0.95-4.717s-1.5-2.766-2.598-3.87c-1.098-1.103-2.408-1.998-3.865-2.617
	c-1.457-0.619-3.063-0.962-4.752-0.962H50.75h-0.549h-0.549H49.103z"/>
<path id="path10535-9" inkscape:connector-curvature="0" inkscape:export-filename="C:\Users\Charlotte Abel\Documents\Symbology\Components\For Distribution\safety-and-security_community-safety-gray.png" inkscape:export-xdpi="300.00464" inkscape:export-ydpi="300.00464" style="fill:#003366;" d="
	M72.675,56.037L72.675,56.037L72.675,56.037L72.675,56.037L72.675,56.037c-0.063,0-0.121,0.005-0.174,0.014
	c-0.053,0.009-0.1,0.022-0.143,0.038c-0.042,0.016-0.079,0.035-0.111,0.054c-0.032,0.02-0.058,0.041-0.079,0.062l0,0l0,0l0,0l0,0
	l-0.317,0.232l-0.317,0.232l-0.317,0.232l-0.317,0.232h0.296h0.296h0.296h0.296l0.169-0.127l0.169-0.127l0.169-0.127l0.169-0.127
	l0,0l0,0l0,0l0,0c0.106-0.063,0.18-0.121,0.23-0.174c0.05-0.053,0.077-0.1,0.087-0.143c0.011-0.042,0.005-0.079-0.008-0.111
	c-0.013-0.032-0.034-0.058-0.055-0.079L72.992,56.1l-0.021-0.021l-0.021-0.021l-0.021-0.021l0,0l0,0l0,0l0,0l0,0l0,0l0,0l0,0
	c0,0-0.005,0-0.016,0s-0.026,0-0.048,0c-0.021,0-0.048,0-0.079,0C72.754,56.037,72.717,56.037,72.675,56.037L72.675,56.037
	L72.675,56.037L72.675,56.037L72.675,56.037z"/>
<path id="path10798" inkscape:connector-curvature="0" inkscape:export-filename="C:\Users\Charlotte Abel\Documents\Symbology\Components\For Distribution\safety-and-security_community-safety-gray.png" inkscape:export-xdpi="300.00464" inkscape:export-ydpi="300.00464" style="fill:#003366;" d="
	M78.673,40.407c-0.338-0.021-0.671,0.026-0.982,0.129c-0.312,0.103-0.602,0.261-0.855,0.462s-0.47,0.444-0.634,0.716
	c-0.164,0.272-0.275,0.573-0.317,0.89l-0.359,2.429l-0.359,2.429l-0.359,2.429l-0.359,2.429c0.169,0.063,0.333,0.137,0.491,0.222
	s0.312,0.18,0.459,0.285c0.148,0.106,0.29,0.222,0.428,0.349c0.137,0.127,0.269,0.264,0.396,0.412l0,0l0,0l0,0l0,0l0,0l0,0l0,0l0,0
	c0.401,0.486,0.665,1.035,0.804,1.608c0.139,0.573,0.152,1.17,0.051,1.75c-0.1,0.581-0.314,1.146-0.629,1.655
	c-0.315,0.51-0.733,0.964-1.24,1.323l0,0l0,0l0,0l0,0l-1.373,0.993l-1.373,0.993l-1.373,0.993l-1.373,0.993l-0.084-0.106
	l-0.084-0.106l-0.084-0.106l-0.084-0.106l0,0l0,0l0,0l0,0l-0.232-0.296l-0.232-0.296l-0.232-0.296l-0.232-0.296l1.394-1.014
	l1.394-1.014l1.394-1.014l1.394-1.014c0.296-0.211,0.533-0.465,0.71-0.742c0.177-0.277,0.293-0.578,0.346-0.884
	c0.053-0.306,0.042-0.618-0.034-0.916s-0.219-0.583-0.43-0.837c-0.063-0.084-0.132-0.158-0.206-0.224s-0.153-0.124-0.238-0.177
	c-0.084-0.053-0.174-0.1-0.269-0.145s-0.195-0.087-0.301-0.129c-0.084-0.021-0.164-0.042-0.24-0.062
	c-0.077-0.02-0.15-0.038-0.224-0.054c-0.074-0.016-0.148-0.029-0.224-0.038c-0.077-0.009-0.156-0.014-0.24-0.014
	c-0.021,0-0.048,0-0.077,0s-0.061,0-0.092,0c-0.032,0-0.063,0-0.092,0c-0.029,0-0.055,0-0.077,0
	c-0.127,0.021-0.253,0.048-0.378,0.08c-0.124,0.033-0.246,0.072-0.362,0.12c-0.116,0.048-0.227,0.103-0.33,0.168
	c-0.103,0.065-0.198,0.139-0.283,0.223l-1.457,1.056l-1.457,1.056l-1.457,1.056l-1.457,1.056l0,0l0,0l0,0l0,0l-1.669,1.225
	l-1.669,1.225L60.149,62.5l-1.669,1.225l0,0l0,0l0,0l0,0l-0.275,0.19l-0.275,0.19l-0.275,0.19l-0.275,0.19l-0.232,3.189
	l-0.232,3.189l-0.232,3.189l-0.232,3.189h2.408h2.408h2.408h2.408l0.148-0.95l0.148-0.95l0.148-0.95l0.148-0.95l2.788-2.619
	l2.788-2.619l2.788-2.619l2.788-2.619c0.106-0.106,0.206-0.217,0.298-0.333c0.092-0.116,0.177-0.238,0.251-0.364
	s0.137-0.259,0.187-0.396c0.05-0.137,0.087-0.28,0.108-0.428l0.655-4.52l0.655-4.52l0.655-4.52l0.655-4.52
	c0.042-0.359,0.011-0.708-0.084-1.032c-0.095-0.325-0.253-0.626-0.465-0.89c-0.211-0.264-0.475-0.491-0.782-0.668
	c-0.306-0.177-0.655-0.304-1.035-0.367c-0.021,0-0.042,0-0.063,0c-0.021,0-0.042,0-0.063,0c-0.021,0-0.042,0-0.063,0
	C78.716,40.407,78.695,40.407,78.673,40.407L78.673,40.407L78.673,40.407L78.673,40.407L78.673,40.407z"/>
<path id="path10798-5" inkscape:connector-curvature="0" inkscape:export-filename="C:\Users\Charlotte Abel\Documents\Symbology\Components\For Distribution\safety-and-security_community-safety-gray.png" inkscape:export-xdpi="300.00464" inkscape:export-ydpi="300.00464" style="fill:#003366;" d="
	M21.644,40.407c0.338-0.021,0.671,0.026,0.982,0.129c0.312,0.103,0.602,0.261,0.855,0.462s0.47,0.444,0.634,0.716
	s0.275,0.573,0.317,0.89l0.359,2.429l0.359,2.429l0.359,2.429l0.359,2.429c-0.169,0.063-0.333,0.137-0.491,0.222
	s-0.312,0.18-0.459,0.285s-0.29,0.222-0.428,0.349s-0.269,0.264-0.396,0.412l0,0l0,0l0,0l0,0l0,0l0,0l0,0l0,0
	c-0.401,0.486-0.665,1.035-0.804,1.608s-0.152,1.17-0.052,1.75c0.101,0.581,0.315,1.146,0.63,1.655s0.733,0.964,1.24,1.323l0,0l0,0
	l0,0l0,0l1.373,0.993l1.373,0.993l1.373,0.993l1.373,0.993l0.084-0.106l0.084-0.106l0.084-0.106l0.084-0.106l0,0l0,0l0,0l0,0
	l0.232-0.296l0.232-0.296l0.232-0.296l0.232-0.296l-1.394-1.014l-1.394-1.014l-1.394-1.014l-1.394-1.014
	c-0.296-0.211-0.533-0.465-0.71-0.742c-0.177-0.277-0.293-0.578-0.346-0.884c-0.053-0.306-0.042-0.618,0.034-0.916
	c0.077-0.298,0.219-0.583,0.43-0.837c0.063-0.084,0.132-0.158,0.206-0.224s0.153-0.124,0.238-0.177
	c0.084-0.053,0.174-0.1,0.269-0.145s0.195-0.087,0.301-0.129c0.084-0.021,0.164-0.042,0.24-0.062c0.077-0.02,0.15-0.038,0.224-0.054
	c0.074-0.016,0.148-0.029,0.224-0.038s0.156-0.014,0.24-0.014c0.021,0,0.048,0,0.077,0s0.061,0,0.092,0s0.063,0,0.092,0
	s0.055,0,0.077,0c0.127,0.021,0.253,0.048,0.378,0.08s0.246,0.072,0.362,0.12c0.116,0.048,0.227,0.103,0.33,0.168
	s0.198,0.139,0.283,0.223l1.457,1.056l1.457,1.056l1.457,1.056l1.457,1.056l0,0l0,0l0,0l0,0l1.669,1.225l1.669,1.225l1.669,1.225
	l1.669,1.225l0,0l0,0l0,0l0,0l0.275,0.19l0.275,0.19l0.275,0.19l0.275,0.19l0.232,3.189l0.232,3.189l0.232,3.189l0.232,3.189h-2.408
	h-2.408h-2.408h-2.408l-0.148-0.95l-0.148-0.95l-0.148-0.95l-0.148-0.95l-2.788-2.598l-2.788-2.598l-2.788-2.598l-2.788-2.598
	c-0.106-0.106-0.206-0.216-0.298-0.333c-0.092-0.116-0.177-0.238-0.251-0.364c-0.074-0.127-0.137-0.259-0.187-0.396
	c-0.05-0.137-0.087-0.28-0.108-0.428l-0.655-4.541l-0.655-4.541l-0.655-4.541l-0.655-4.541c-0.042-0.359-0.011-0.708,0.084-1.032
	c0.095-0.325,0.253-0.626,0.465-0.89c0.211-0.264,0.475-0.491,0.782-0.668c0.306-0.177,0.655-0.304,1.035-0.367
	c0.021,0,0.042,0,0.063,0s0.042,0,0.063,0s0.042,0,0.063,0S21.623,40.407,21.644,40.407L21.644,40.407L21.644,40.407L21.644,40.407
	L21.644,40.407z"/>
<path id="path3783-3" inkscape:connector-curvature="0" inkscape:export-filename="C:\Users\Charlotte Abel\Documents\Symbology\Components\For Distribution\safety-and-security_community-safety-gray.png" inkscape:export-xdpi="300.00464" inkscape:export-ydpi="300.00464" style="fill:#003366;" d="
	M35.416,30.606c0.76,0,1.484,0.153,2.141,0.43c0.657,0.277,1.249,0.679,1.745,1.175c0.496,0.496,0.898,1.088,1.175,1.745
	c0.277,0.657,0.43,1.381,0.43,2.141s-0.153,1.484-0.43,2.141s-0.679,1.249-1.175,1.745c-0.496,0.496-1.088,0.898-1.745,1.175
	s-1.381,0.43-2.141,0.43l0,0l0,0l0,0l0,0c-0.76,0-1.484-0.153-2.141-0.43s-1.249-0.679-1.745-1.175s-0.898-1.088-1.175-1.745
	c-0.277-0.657-0.43-1.381-0.43-2.141l0,0l0,0l0,0l0,0c0-0.739,0.153-1.452,0.43-2.106c0.277-0.653,0.679-1.247,1.175-1.749
	c0.496-0.502,1.088-0.911,1.745-1.195S34.655,30.606,35.416,30.606z"/>
<path id="path3779-1" inkscape:connector-curvature="0" inkscape:export-filename="C:\Users\Charlotte Abel\Documents\Symbology\Components\For Distribution\safety-and-security_community-safety-gray.png" inkscape:export-xdpi="300.00464" inkscape:export-ydpi="300.00464" style="fill:#003366;" d="
	M37.19,43.871c0.338,0,0.681,0.016,1.026,0.049c0.345,0.033,0.691,0.083,1.034,0.151c0.343,0.069,0.684,0.156,1.017,0.263
	s0.661,0.234,0.978,0.382c-0.908,0.676-1.732,1.447-2.461,2.294c-0.729,0.848-1.362,1.772-1.89,2.754
	c-0.528,0.982-0.95,2.022-1.257,3.102c-0.306,1.08-0.496,2.199-0.56,3.34l-1.119-0.803l-1.119-0.803l-1.119-0.803L30.6,52.995l0,0
	l0,0l0,0l0,0c-0.169-0.127-0.343-0.243-0.523-0.347s-0.364-0.197-0.554-0.276c-0.19-0.079-0.385-0.146-0.586-0.197
	c-0.201-0.052-0.407-0.088-0.618-0.11l0,0l0,0l0,0l0,0l0,0l0,0l0,0l0,0c-0.021,0-0.042,0-0.063,0s-0.042,0-0.063,0
	c-0.021,0-0.042,0-0.063,0c-0.021,0-0.042,0-0.063,0l-0.19-1.141l-0.19-1.141l-0.19-1.141l-0.19-1.141
	c0.465-0.57,0.993-1.083,1.57-1.53c0.577-0.448,1.202-0.831,1.862-1.142c0.66-0.312,1.354-0.552,2.069-0.714
	c0.714-0.162,1.449-0.246,2.188-0.246h0.549h0.549h0.549H37.19z"/>
</svg>
