<?xml version="1.0" encoding="iso-8859-1"?>
<!-- Generator: Adobe Illustrator 25.4.1, SVG Export Plug-In . SVG Version: 6.00 Build 0)  -->
<svg version="1.1"
	 id="svg8" xmlns:cc="http://creativecommons.org/ns#" xmlns:dc="http://purl.org/dc/elements/1.1/" xmlns:inkscape="http://www.inkscape.org/namespaces/inkscape" xmlns:rdf="http://www.w3.org/1999/02/22-rdf-syntax-ns#" xmlns:sodipodi="http://sodipodi.sourceforge.net/DTD/sodipodi-0.dtd" xmlns:svg="http://www.w3.org/2000/svg"
	 xmlns="http://www.w3.org/2000/svg" xmlns:xlink="http://www.w3.org/1999/xlink" x="0px" y="0px" viewBox="0 0 100 100"
	 style="enable-background:new 0 0 100 100;" xml:space="preserve">
<sodipodi:namedview  bordercolor="#666666" borderopacity="1.0" id="base" inkscape:current-layer="layer3" inkscape:cx="-140.5" inkscape:cy="148.61928" inkscape:document-units="px" inkscape:guide-bbox="true" inkscape:lockguides="false" inkscape:pageopacity="0.0" inkscape:pageshadow="2" inkscape:window-height="657" inkscape:window-maximized="1" inkscape:window-width="1280" inkscape:window-x="-8" inkscape:window-y="-8" inkscape:zoom="1" pagecolor="#ffffff" showgrid="false" showguides="true" units="px">
	<sodipodi:guide  id="guide5700" inkscape:locked="false" orientation="0,1" position="-0.93017576,23.874511"></sodipodi:guide>
	<sodipodi:guide  id="guide5726" inkscape:locked="false" orientation="0,1" position="-26.098869,26.473047"></sodipodi:guide>
	<sodipodi:guide  id="guide5880" inkscape:locked="false" orientation="0,1" position="104.51042,-2.9104167"></sodipodi:guide>
	<sodipodi:guide  id="guide6001" inkscape:locked="false" orientation="0,1" position="-44.807735,29.092289"></sodipodi:guide>
	<sodipodi:guide  id="guide6005" inkscape:locked="false" orientation="0,1" position="-46.304445,58.278122"></sodipodi:guide>
	<sodipodi:guide  id="guide6736" inkscape:locked="false" orientation="0,1" position="-0.10335287,20.205485"></sodipodi:guide>
	<sodipodi:guide  id="guide6738" inkscape:locked="false" orientation="0,1" position="-0.43848907,22.874513"></sodipodi:guide>
	<inkscape:grid  id="grid2386" type="xygrid"></inkscape:grid>
</sodipodi:namedview>
<g id="g1180" transform="translate(0,-229.2666)" inkscape:groupmode="layer" inkscape:label="halo:always" style="display:none;">
	<g id="g1210" inkscape:groupmode="layer" inkscape:label="-gray-halo:iter3" style="display:inline;">
		<g id="circle1208">
			<path style="fill:#919395;" d="M50,329.3c-27.6,0-50-22.4-50-50s22.4-50,50-50s50,22.4,50,50S77.6,329.3,50,329.3z M50,237.9
				c-22.8,0-41.4,18.6-41.4,41.4s18.6,41.4,41.4,41.4s41.4-18.6,41.4-41.4S72.8,237.9,50,237.9z"/>
		</g>
	</g>
	<g id="g1206" inkscape:groupmode="layer" inkscape:label="-red-halo:iter3" style="display:inline;">
		<g id="circle1204">
			<path style="fill:#C52038;" d="M50,329.3c-27.6,0-50-22.4-50-50s22.4-50,50-50s50,22.4,50,50S77.6,329.3,50,329.3z M50,237.9
				c-22.8,0-41.4,18.6-41.4,41.4s18.6,41.4,41.4,41.4s41.4-18.6,41.4-41.4S72.8,237.9,50,237.9z"/>
		</g>
	</g>
	<g id="g1202" inkscape:groupmode="layer" inkscape:label="-green-halo:iter3" style="display:inline;">
		<g id="circle1200">
			<path style="fill:#5E9C42;" d="M50,329.3c-27.6,0-50-22.4-50-50s22.4-50,50-50s50,22.4,50,50S77.6,329.3,50,329.3z M50,237.9
				c-22.8,0-41.4,18.6-41.4,41.4s18.6,41.4,41.4,41.4s41.4-18.6,41.4-41.4S72.8,237.9,50,237.9z"/>
		</g>
	</g>
	<g id="layer18" inkscape:groupmode="layer" inkscape:label="-yellow-halo:iter3" style="display:inline;">
		<g id="circle1178-4">
			<path style="fill:#FBBA16;" d="M50,329.3c-27.6,0-50-22.4-50-50s22.4-50,50-50s50,22.4,50,50S77.6,329.3,50,329.3z M50,237.9
				c-22.8,0-41.4,18.6-41.4,41.4s18.6,41.4,41.4,41.4s41.4-18.6,41.4-41.4S72.8,237.9,50,237.9z"/>
		</g>
	</g>
</g>
<path id="path1376-7" inkscape:connector-curvature="0" style="fill:#003366;" d="M32.2,27l-0.85,0.625L30.5,28.25l-0.85,0.625
	L28.8,29.5c-0.475,0.35-0.944,0.694-1.386,1.017c-0.442,0.323-0.858,0.627-1.227,0.896c-0.368,0.269-0.69,0.503-0.945,0.689
	C24.987,32.287,24.8,32.425,24.7,32.5l-0.175,0.15L24.35,32.8l-0.175,0.15L24,33.1l0.425,0.55l0.425,0.55l0.425,0.55L25.7,35.3
	c0.55,0.725,0.944,1.338,1.231,1.88c0.288,0.542,0.469,1.014,0.594,1.458s0.194,0.86,0.256,1.289S27.9,40.8,28,41.3
	c0,0.55,0.013,0.925,0.003,1.266c-0.009,0.341-0.041,0.647-0.128,1.059c-0.087,0.413-0.231,0.931-0.466,1.697S26.85,47.1,26.4,48.5
	c-0.5,1.225-0.906,2.331-1.237,3.342c-0.331,1.011-0.587,1.927-0.788,2.771c-0.2,0.844-0.344,1.615-0.45,2.339
	C23.819,57.675,23.75,58.35,23.7,59c-0.125,1.95,0.119,3.8,0.705,5.516c0.586,1.716,1.514,3.297,2.757,4.709
	c1.244,1.413,2.803,2.656,4.652,3.697S35.8,74.8,38.2,75.4c0.25,0.075,0.581,0.156,0.966,0.242s0.822,0.176,1.284,0.27
	c0.462,0.094,0.95,0.191,1.434,0.289C42.369,76.3,42.85,76.4,43.3,76.5c0.975,0.175,1.781,0.331,2.467,0.483
	c0.686,0.152,1.252,0.299,1.746,0.455c0.493,0.156,0.915,0.321,1.314,0.51C49.225,78.137,49.6,78.35,50,78.6
	c0.075,0.05,0.15,0.094,0.223,0.134c0.074,0.041,0.146,0.078,0.215,0.116c0.069,0.038,0.134,0.075,0.195,0.116
	c0.061,0.041,0.117,0.084,0.167,0.134c0.05-0.025,0.106-0.056,0.167-0.092c0.061-0.036,0.126-0.077,0.195-0.121
	s0.14-0.091,0.214-0.139C51.45,78.7,51.525,78.65,51.6,78.6c0.4-0.25,0.775-0.456,1.173-0.637c0.398-0.181,0.82-0.338,1.314-0.488
	s1.059-0.294,1.745-0.45c0.686-0.156,1.493-0.325,2.468-0.525c0.425-0.075,0.888-0.162,1.359-0.256s0.953-0.194,1.416-0.294
	c0.462-0.1,0.906-0.2,1.303-0.294c0.397-0.094,0.747-0.181,1.022-0.256c2.375-0.6,4.5-1.438,6.344-2.478
	c1.844-1.041,3.406-2.284,4.656-3.697c1.25-1.412,2.188-2.994,2.781-4.709S78.025,60.95,77.9,59
	c-0.025-0.625-0.075-1.287-0.169-2.006C77.638,56.275,77.5,55.5,77.3,54.65s-0.463-1.775-0.806-2.794
	c-0.344-1.019-0.769-2.131-1.294-3.356c-0.45-1.4-0.775-2.412-1.009-3.178s-0.378-1.284-0.466-1.697
	c-0.088-0.412-0.119-0.719-0.128-1.059C73.588,42.225,73.6,41.85,73.6,41.3c0.1-0.525,0.15-0.981,0.205-1.416
	c0.055-0.434,0.114-0.847,0.233-1.284c0.119-0.438,0.297-0.9,0.59-1.434c0.292-0.534,0.699-1.141,1.273-1.866l0.425-0.55l0.425-0.55
	l0.425-0.55l0.425-0.55l-0.175-0.15l-0.175-0.15l-0.175-0.15l-0.175-0.15c-0.1-0.075-0.294-0.219-0.556-0.413
	c-0.262-0.194-0.594-0.437-0.969-0.712s-0.794-0.581-1.231-0.9s-0.894-0.65-1.344-0.975l-0.925-0.625l-0.925-0.625l-0.926-0.625
	L69.1,27l-0.25,0.15L68.6,27.3l-0.25,0.15L68.1,27.6c-0.65,0.4-1.375,0.781-2.134,1.128c-0.759,0.347-1.553,0.659-2.341,0.922
	c-0.787,0.263-1.569,0.475-2.303,0.622S59.9,30.5,59.3,30.5c-0.55,0-1.188-0.069-1.866-0.192c-0.678-0.123-1.397-0.301-2.109-0.52
	s-1.419-0.478-2.072-0.764C52.6,28.738,52,28.425,51.5,28.1c-0.075-0.05-0.15-0.094-0.225-0.131
	c-0.075-0.037-0.15-0.069-0.225-0.094c-0.075-0.025-0.15-0.044-0.225-0.056C50.75,27.806,50.675,27.8,50.6,27.8
	s-0.144,0-0.211,0.005c-0.067,0.005-0.133,0.014-0.201,0.033c-0.069,0.019-0.141,0.047-0.221,0.089
	c-0.08,0.042-0.167,0.098-0.267,0.173c-0.5,0.325-1.1,0.638-1.753,0.924c-0.653,0.286-1.359,0.545-2.072,0.764
	s-1.431,0.397-2.109,0.52C43.088,30.431,42.45,30.5,41.9,30.5c-0.575,0-1.244-0.075-1.966-0.214s-1.497-0.342-2.284-0.598
	s-1.588-0.565-2.359-0.917s-1.516-0.745-2.191-1.17l-0.225-0.15l-0.225-0.15l-0.225-0.15L32.2,27z M44.1,32.3
	c1.45,0.75,2.713,1.575,3.806,2.478c1.094,0.903,2.019,1.884,2.794,2.947s1.4,2.206,1.894,3.434C53.087,42.388,53.45,43.7,53.7,45.1
	c0.175-0.325,0.338-0.744,0.466-1.233s0.222-1.049,0.259-1.655c0.038-0.606,0.019-1.259-0.078-1.935
	C54.25,39.6,54.075,38.9,53.8,38.2c3.05,1.575,5.594,3.269,7.684,5.041c2.091,1.772,3.728,3.622,4.966,5.509
	c1.238,1.888,2.075,3.812,2.566,5.734c0.491,1.922,0.634,3.841,0.484,5.716c-0.175,2.05-0.675,3.9-1.47,5.547
	c-0.795,1.647-1.886,3.091-3.243,4.328c-1.356,1.238-2.978,2.269-4.836,3.091S56,74.6,53.7,75l0,0l0,0l0,0l0,0
	c-0.275,0.05-0.55,0.094-0.825,0.131c-0.275,0.038-0.55,0.069-0.825,0.094c-0.275,0.025-0.55,0.044-0.825,0.056
	C50.95,75.294,50.675,75.3,50.4,75.3c-0.45,0-0.894-0.012-1.333-0.039c-0.439-0.026-0.874-0.067-1.305-0.123
	c-0.431-0.056-0.859-0.128-1.285-0.218c-0.427-0.089-0.852-0.195-1.277-0.32c-1.85-0.45-3.619-1.113-5.231-1.964
	c-1.612-0.852-3.069-1.892-4.294-3.098c-1.225-1.206-2.219-2.578-2.906-4.092S31.7,62.275,31.7,60.5
	c0-2.875,0.881-5.356,2.177-7.641c1.295-2.284,3.005-4.372,4.661-6.459c1.657-2.087,3.259-4.175,4.342-6.459
	C43.963,37.656,44.525,35.175,44.1,32.3z"/>
<path id="path1380-6" inkscape:connector-curvature="0" style="fill:#003366;" d="M62.059,64.133l-5.704,0.005l-5.704,0.005
	l-5.704,0.005l-5.704,0.005l-0.062,0.033l-0.062,0.033l-0.062,0.033l-0.062,0.033c-0.233,0.361-0.466,0.722-0.7,1.085
	s-0.468,0.726-0.702,1.09c-0.234,0.364-0.467,0.729-0.699,1.094c-0.232,0.365-0.462,0.731-0.69,1.096l0.057,0.109l0.057,0.109
	l0.057,0.109l0.057,0.109h0.019h0.019h0.019h0.019h0.005h0.005h0.005h0.005c2.358,0.009,4.718,0.018,7.078,0.024
	c2.36,0.006,4.721,0.009,7.082,0.009c2.361,0,4.722-0.004,7.082-0.012c2.36-0.008,4.72-0.021,7.078-0.04l0.062-0.109l0.062-0.109
	l0.062-0.109l0.062-0.109c-0.228-0.37-0.458-0.738-0.69-1.104c-0.232-0.366-0.465-0.731-0.698-1.095
	c-0.234-0.364-0.468-0.728-0.702-1.092c-0.234-0.364-0.468-0.728-0.7-1.094l-0.062-0.028l-0.062-0.028l-0.062-0.028L62.059,64.133z"
	/>
<path id="path1382-3" inkscape:connector-curvature="0" style="fill:#003366;" d="M39.376,63.032c0.014-0.18,0.059-0.94,0.119-1.982
	c0.06-1.043,0.134-2.368,0.206-3.682c0.072-1.313,0.143-2.614,0.195-3.607c0.052-0.993,0.087-1.677,0.087-1.758v-0.062V51.88v-0.062
	v-0.062h0.247h0.247h0.247h0.247c0.228,0,0.403,0,0.539,0.002c0.135,0.002,0.23,0.006,0.297,0.014
	c0.066,0.008,0.104,0.021,0.126,0.04s0.026,0.044,0.026,0.077c0,0.019,0.008,0.198,0.024,0.505c0.015,0.307,0.038,0.743,0.066,1.274
	s0.063,1.159,0.102,1.851c0.039,0.692,0.083,1.447,0.131,2.235c0.047,0.788,0.091,1.541,0.13,2.229s0.074,1.309,0.102,1.834
	c0.028,0.524,0.051,0.951,0.066,1.25s0.024,0.468,0.024,0.478c0,0.005-0.046,0.011-0.13,0.017c-0.083,0.006-0.204,0.013-0.352,0.019
	c-0.148,0.006-0.324,0.011-0.519,0.015s-0.408,0.006-0.632,0.006h-0.408h-0.408h-0.408h-0.408l0.009-0.142l0.009-0.142l0.009-0.142
	L39.376,63.032z"/>
<path id="path1384-6" inkscape:connector-curvature="0" style="fill:#003366;" d="M45.849,63.032
	c0.009-0.128,0.052-0.877,0.111-1.931c0.059-1.054,0.133-2.415,0.207-3.766c0.074-1.351,0.146-2.694,0.2-3.712
	c0.054-1.019,0.09-1.714,0.09-1.771c0-0.019,0.009-0.036,0.036-0.05c0.027-0.014,0.071-0.026,0.139-0.036s0.163-0.017,0.289-0.021
	s0.285-0.007,0.485-0.007h0.237h0.237h0.237h0.237l0.009,0.142l0.009,0.142l0.009,0.142l0.009,0.142
	c0.009,0.114,0.052,0.86,0.111,1.918c0.059,1.058,0.133,2.428,0.207,3.788c0.074,1.361,0.146,2.713,0.2,3.735
	c0.054,1.022,0.09,1.715,0.09,1.758c0,0.005-0.045,0.011-0.126,0.017c-0.081,0.006-0.199,0.013-0.343,0.019
	c-0.145,0.006-0.317,0.011-0.507,0.015c-0.19,0.004-0.399,0.006-0.618,0.006h-0.399h-0.399h-0.399h-0.399l0.009-0.133l0.009-0.133
	l0.009-0.133L45.849,63.032z"/>
<path id="path1386-9" inkscape:connector-curvature="0" style="fill:#003366;" d="M52.34,63.032
	c0.009-0.128,0.052-0.877,0.111-1.931c0.059-1.054,0.133-2.415,0.207-3.766c0.074-1.351,0.146-2.694,0.2-3.712
	c0.054-1.019,0.09-1.714,0.09-1.771c0-0.019,0.009-0.036,0.036-0.05c0.027-0.014,0.071-0.026,0.139-0.036s0.163-0.017,0.289-0.021
	s0.285-0.007,0.485-0.007h0.237h0.237h0.237h0.237l0.009,0.142l0.009,0.142l0.009,0.142l0.009,0.142
	c0.009,0.114,0.052,0.86,0.111,1.918c0.059,1.058,0.133,2.428,0.207,3.788c0.074,1.361,0.146,2.713,0.2,3.735
	c0.054,1.022,0.09,1.715,0.09,1.758c0,0.005-0.045,0.011-0.126,0.017c-0.081,0.006-0.199,0.013-0.343,0.019
	c-0.145,0.006-0.317,0.011-0.507,0.015c-0.19,0.004-0.399,0.006-0.618,0.006h-0.399H53.1h-0.399h-0.399l0.009-0.133l0.009-0.133
	l0.009-0.133L52.34,63.032z"/>
<path id="path1388-7" inkscape:connector-curvature="0" style="fill:#003366;" d="M58.737,63.032c0.014-0.18,0.059-0.94,0.119-1.982
	c0.06-1.043,0.134-2.368,0.206-3.682c0.072-1.313,0.143-2.614,0.195-3.607c0.052-0.993,0.087-1.677,0.087-1.758v-0.062V51.88v-0.062
	v-0.062h0.247h0.247h0.247h0.247c0.228,0,0.403,0,0.539,0.002c0.135,0.002,0.23,0.006,0.297,0.014
	c0.066,0.008,0.104,0.021,0.126,0.04s0.026,0.044,0.026,0.077c0,0.019,0.008,0.198,0.024,0.505c0.015,0.307,0.038,0.743,0.066,1.274
	s0.063,1.159,0.102,1.851c0.039,0.692,0.083,1.447,0.131,2.235c0.043,0.788,0.084,1.541,0.123,2.229
	c0.038,0.687,0.073,1.309,0.103,1.834c0.03,0.524,0.054,0.951,0.071,1.25s0.026,0.468,0.026,0.478c0,0.005-0.046,0.011-0.13,0.017
	c-0.083,0.006-0.204,0.013-0.352,0.019c-0.148,0.006-0.325,0.011-0.519,0.015c-0.195,0.004-0.408,0.006-0.631,0.006h-0.408h-0.408
	h-0.408h-0.408l0.009-0.142l0.009-0.142l0.009-0.142L58.737,63.032z"/>
<path id="path1390-8" inkscape:connector-curvature="0" style="fill:#003366;" d="M50.67,45.683l-1.637,0.598l-1.637,0.598
	l-1.637,0.598l-1.637,0.598c-0.887,0.323-1.743,0.635-2.53,0.922c-0.787,0.288-1.507,0.551-2.123,0.776
	c-0.616,0.225-1.128,0.413-1.5,0.549c-0.372,0.136-0.605,0.22-0.662,0.239c-0.005,0-0.011,0.001-0.017,0.003
	c-0.007,0.002-0.014,0.005-0.021,0.009c-0.007,0.004-0.014,0.008-0.021,0.012c-0.007,0.004-0.012,0.009-0.017,0.014
	c-0.005,0-0.009,0.001-0.014,0.003s-0.009,0.005-0.014,0.009c-0.005,0.004-0.009,0.008-0.014,0.012s-0.009,0.009-0.014,0.014
	c-0.005,0.005-0.012,0.011-0.02,0.019c-0.009,0.008-0.019,0.018-0.029,0.031c-0.011,0.013-0.022,0.029-0.033,0.049
	s-0.022,0.044-0.031,0.072c-0.009,0.028-0.011,0.058-0.006,0.087c0.004,0.029,0.015,0.058,0.028,0.086
	c0.013,0.027,0.029,0.053,0.045,0.075c0.016,0.022,0.033,0.041,0.047,0.056c0.014,0.009,0.026,0.018,0.036,0.025
	s0.019,0.013,0.028,0.018c0.008,0.005,0.016,0.008,0.024,0.011s0.016,0.004,0.026,0.004c0.014,0.005,0.027,0.008,0.039,0.011
	c0.012,0.003,0.023,0.004,0.034,0.006c0.011,0.001,0.021,0.002,0.03,0.002c0.01,0,0.019,0,0.029,0
	c0.052,0.005,0.116,0.009,0.196,0.014c0.08,0.004,0.175,0.009,0.29,0.012c0.115,0.004,0.25,0.006,0.408,0.009
	c0.158,0.002,0.34,0.003,0.548,0.003c0.418,0.005,0.943,0.008,1.602,0.011c0.659,0.003,1.451,0.004,2.401,0.006
	c0.95,0.001,2.059,0.002,3.351,0.002c1.292,0,2.768,0,4.453,0c1.419,0,2.695,0,3.842,0c1.147,0,2.164-0.001,3.065-0.002
	c0.9-0.001,1.684-0.003,2.364-0.006c0.68-0.003,1.255-0.006,1.739-0.011c0.242,0,0.461-0.001,0.66-0.003
	c0.199-0.002,0.377-0.004,0.536-0.007c0.159-0.002,0.299-0.005,0.422-0.007c0.123-0.002,0.228-0.003,0.319-0.003
	c0.047,0,0.09-0.001,0.129-0.003c0.039-0.002,0.073-0.004,0.104-0.007s0.058-0.005,0.082-0.007c0.024-0.002,0.046-0.003,0.065-0.003
	c0.009,0,0.018,0.001,0.027,0.002c0.009,0.001,0.018,0.001,0.03-0.002s0.026-0.007,0.044-0.016c0.018-0.009,0.041-0.022,0.069-0.041
	c0.005-0.005,0.012-0.009,0.02-0.015c0.009-0.006,0.019-0.013,0.029-0.023s0.022-0.021,0.033-0.037s0.022-0.034,0.031-0.058
	c0.009-0.019,0.015-0.043,0.018-0.069c0.003-0.026,0.003-0.054,0.001-0.081c-0.002-0.027-0.007-0.054-0.014-0.077
	s-0.015-0.044-0.024-0.058c-0.019-0.028-0.036-0.05-0.05-0.066c-0.015-0.016-0.028-0.027-0.04-0.034s-0.023-0.011-0.033-0.012
	c-0.01-0.002-0.02-0.002-0.029-0.002c-0.043-0.014-0.263-0.095-0.626-0.228c-0.363-0.133-0.868-0.32-1.481-0.545
	c-0.612-0.225-1.331-0.49-2.121-0.78c-0.79-0.29-1.651-0.606-2.548-0.933l-1.666-0.607l-1.666-0.607l-1.666-0.607L50.67,45.683z"/>
</svg>
