<?xml version="1.0" encoding="iso-8859-1"?>
<!-- Generator: Adobe Illustrator 25.4.1, SVG Export Plug-In . SVG Version: 6.00 Build 0)  -->
<svg version="1.1"
	 id="svg8" inkscape:export-filename="C:\Users\Charlotte Abel\Documents\Symbology\Components\For Distribution\communications_alerts-warnings-messages.png" inkscape:export-xdpi="300.00464" inkscape:export-ydpi="300.00464" inkscape:version="0.91 r13725" sodipodi:docname="safety-and-security_search-and-rescue-with-label-clr_256x256.svg" xmlns:cc="http://creativecommons.org/ns#" xmlns:dc="http://purl.org/dc/elements/1.1/" xmlns:inkscape="http://www.inkscape.org/namespaces/inkscape" xmlns:rdf="http://www.w3.org/1999/02/22-rdf-syntax-ns#" xmlns:sodipodi="http://sodipodi.sourceforge.net/DTD/sodipodi-0.dtd" xmlns:svg="http://www.w3.org/2000/svg"
	 xmlns="http://www.w3.org/2000/svg" xmlns:xlink="http://www.w3.org/1999/xlink" x="0px" y="0px" viewBox="0 0 100 100"
	 style="enable-background:new 0 0 100 100;" xml:space="preserve">
<sodipodi:namedview  bordercolor="#666666" borderopacity="1.0" id="base" inkscape:current-layer="layer7" inkscape:cx="-225.85189" inkscape:cy="84.283015" inkscape:document-units="px" inkscape:guide-bbox="true" inkscape:lockguides="true" inkscape:pageopacity="0.0" inkscape:pageshadow="2" inkscape:window-height="657" inkscape:window-maximized="1" inkscape:window-width="1280" inkscape:window-x="-8" inkscape:window-y="-8" inkscape:zoom="0.765625" pagecolor="#ffffff" showgrid="false" showguides="false" units="px">
	<sodipodi:guide  id="guide5700" inkscape:locked="true" orientation="0,1" position="-0.93017576,23.874511"></sodipodi:guide>
	<sodipodi:guide  id="guide5726" inkscape:locked="true" orientation="0,1" position="-26.098869,26.473047"></sodipodi:guide>
	<sodipodi:guide  id="guide5880" inkscape:locked="true" orientation="0,1" position="104.51042,-2.9104167"></sodipodi:guide>
	<sodipodi:guide  id="guide6001" inkscape:locked="true" orientation="0,1" position="-71.093695,29.279377"></sodipodi:guide>
	<sodipodi:guide  id="guide6005" inkscape:locked="true" orientation="0,1" position="-46.304445,58.278122"></sodipodi:guide>
	<sodipodi:guide  id="guide6736" inkscape:locked="true" orientation="0,1" position="-0.10335287,20.205485"></sodipodi:guide>
	<sodipodi:guide  id="guide6738" inkscape:locked="true" orientation="0,1" position="-0.43848907,22.874513"></sodipodi:guide>
	<inkscape:grid  id="grid2386" type="xygrid"></inkscape:grid>
</sodipodi:namedview>
<g id="g1180" transform="translate(0,-229.2666)" inkscape:groupmode="layer" inkscape:label="halo:always" style="display:none;">
	<g id="g1210" inkscape:groupmode="layer" inkscape:label="-gray-halo:iter3" style="display:inline;">
		<g id="circle1208">
			<path style="fill:#919395;" d="M50,329.3c-27.6,0-50-22.4-50-50s22.4-50,50-50s50,22.4,50,50S77.6,329.3,50,329.3z M50,237.9
				c-22.8,0-41.4,18.6-41.4,41.4s18.6,41.4,41.4,41.4s41.4-18.6,41.4-41.4S72.8,237.9,50,237.9z"/>
		</g>
	</g>
	<g id="g1206" inkscape:groupmode="layer" inkscape:label="-red-halo:iter3" style="display:inline;">
		<g id="circle1204">
			<path style="fill:#C52038;" d="M50,329.3c-27.6,0-50-22.4-50-50s22.4-50,50-50s50,22.4,50,50S77.6,329.3,50,329.3z M50,237.9
				c-22.8,0-41.4,18.6-41.4,41.4s18.6,41.4,41.4,41.4s41.4-18.6,41.4-41.4S72.8,237.9,50,237.9z"/>
		</g>
	</g>
	<g id="g1202" inkscape:groupmode="layer" inkscape:label="-green-halo:iter3" style="display:inline;">
		<g id="circle1200">
			<path style="fill:#5E9C42;" d="M50,329.3c-27.6,0-50-22.4-50-50s22.4-50,50-50s50,22.4,50,50S77.6,329.3,50,329.3z M50,237.9
				c-22.8,0-41.4,18.6-41.4,41.4s18.6,41.4,41.4,41.4s41.4-18.6,41.4-41.4S72.8,237.9,50,237.9z"/>
		</g>
	</g>
	<g id="layer18" inkscape:groupmode="layer" inkscape:label="-yellow-halo:iter3" style="display:inline;">
		<g id="circle1178-4">
			<path style="fill:#FBBA16;" d="M50,329.3c-27.6,0-50-22.4-50-50s22.4-50,50-50s50,22.4,50,50S77.6,329.3,50,329.3z M50,237.9
				c-22.8,0-41.4,18.6-41.4,41.4s18.6,41.4,41.4,41.4s41.4-18.6,41.4-41.4S72.8,237.9,50,237.9z"/>
		</g>
	</g>
</g>
<path id="path14841" style="fill:#003366;" d="M32.426,69.946l0.277-0.034l0.277-0.034l0.277-0.034l0.277-0.034
	c0.034,0.218,0.084,0.409,0.151,0.572c0.067,0.163,0.151,0.3,0.251,0.409c0.101,0.109,0.218,0.191,0.352,0.245
	c0.134,0.054,0.285,0.082,0.453,0.082c0.084,0,0.163-0.006,0.239-0.018c0.075-0.012,0.147-0.03,0.214-0.053
	c0.067-0.023,0.13-0.051,0.189-0.084c0.059-0.033,0.113-0.071,0.163-0.113c0.05-0.042,0.094-0.088,0.132-0.138
	s0.069-0.103,0.094-0.16c0.025-0.056,0.044-0.116,0.057-0.179s0.019-0.127,0.019-0.195c0-0.042-0.002-0.082-0.006-0.119
	c-0.004-0.038-0.01-0.073-0.019-0.107c-0.008-0.034-0.019-0.065-0.031-0.094c-0.013-0.029-0.027-0.057-0.044-0.082
	c-0.017-0.025-0.036-0.05-0.057-0.075c-0.021-0.025-0.044-0.049-0.069-0.072c-0.025-0.023-0.052-0.045-0.082-0.065
	s-0.061-0.039-0.094-0.056c-0.034-0.017-0.08-0.038-0.138-0.062c-0.059-0.025-0.13-0.053-0.214-0.084
	c-0.084-0.032-0.18-0.066-0.289-0.103c-0.109-0.037-0.231-0.077-0.365-0.119c-0.117-0.034-0.228-0.069-0.333-0.106
	s-0.202-0.076-0.292-0.116c-0.09-0.04-0.173-0.081-0.248-0.122c-0.075-0.041-0.142-0.083-0.201-0.125
	c-0.059-0.042-0.113-0.088-0.164-0.138c-0.051-0.05-0.098-0.103-0.142-0.16c-0.044-0.057-0.085-0.116-0.123-0.179
	c-0.038-0.062-0.074-0.127-0.108-0.194c-0.034-0.067-0.063-0.136-0.088-0.207c-0.025-0.071-0.046-0.145-0.063-0.22
	c-0.017-0.075-0.029-0.153-0.038-0.233c-0.008-0.08-0.013-0.161-0.013-0.245c0-0.092,0.006-0.182,0.018-0.27
	c0.012-0.088,0.03-0.174,0.053-0.258c0.023-0.084,0.051-0.166,0.084-0.245c0.033-0.08,0.071-0.157,0.113-0.233
	c0.042-0.075,0.088-0.147,0.138-0.213c0.05-0.067,0.105-0.128,0.163-0.185c0.059-0.057,0.122-0.108,0.189-0.154
	c0.067-0.046,0.138-0.085,0.214-0.119c0.075-0.042,0.155-0.078,0.239-0.107s0.172-0.054,0.264-0.073
	c0.092-0.019,0.189-0.032,0.289-0.041s0.205-0.013,0.314-0.013c0.168,0,0.325,0.01,0.472,0.032s0.284,0.054,0.412,0.098
	c0.128,0.044,0.246,0.1,0.356,0.167s0.21,0.147,0.302,0.24c0.092,0.092,0.174,0.193,0.245,0.302s0.132,0.228,0.182,0.356
	c0.05,0.128,0.09,0.265,0.119,0.412s0.048,0.304,0.057,0.472l-0.285,0.017l-0.285,0.017l-0.285,0.017l-0.285,0.017
	c-0.008-0.092-0.023-0.178-0.043-0.257s-0.045-0.151-0.074-0.217c-0.029-0.065-0.063-0.123-0.1-0.172
	c-0.037-0.05-0.076-0.092-0.118-0.125c-0.042-0.033-0.088-0.065-0.138-0.093s-0.105-0.054-0.163-0.075
	c-0.059-0.021-0.122-0.038-0.189-0.049s-0.138-0.018-0.214-0.018c-0.075,0-0.147,0.004-0.214,0.013
	c-0.067,0.008-0.13,0.021-0.189,0.038c-0.059,0.017-0.113,0.038-0.163,0.063c-0.05,0.025-0.096,0.054-0.138,0.088
	c-0.042,0.034-0.078,0.069-0.107,0.106s-0.054,0.076-0.073,0.116c-0.019,0.04-0.032,0.081-0.041,0.122
	c-0.009,0.041-0.013,0.083-0.013,0.125c0,0.05,0.004,0.096,0.013,0.139c0.009,0.043,0.023,0.083,0.042,0.12
	c0.019,0.038,0.043,0.073,0.073,0.108c0.03,0.035,0.065,0.068,0.107,0.102c0.034,0.034,0.082,0.067,0.144,0.101
	c0.062,0.034,0.137,0.069,0.225,0.104c0.088,0.036,0.189,0.072,0.301,0.111c0.112,0.038,0.236,0.078,0.37,0.12
	c0.143,0.042,0.275,0.084,0.397,0.126c0.122,0.042,0.234,0.085,0.337,0.129c0.103,0.044,0.196,0.089,0.28,0.136
	c0.084,0.047,0.159,0.095,0.227,0.145c0.067,0.042,0.128,0.088,0.183,0.138c0.056,0.05,0.106,0.105,0.152,0.163
	c0.046,0.059,0.088,0.122,0.127,0.189c0.039,0.067,0.074,0.138,0.108,0.214s0.063,0.153,0.088,0.233
	c0.025,0.08,0.046,0.163,0.063,0.249s0.029,0.175,0.038,0.268c0.008,0.093,0.013,0.189,0.013,0.29c0,0.151-0.01,0.295-0.032,0.434
	c-0.021,0.138-0.054,0.27-0.098,0.396c-0.044,0.126-0.1,0.245-0.167,0.358s-0.147,0.22-0.239,0.321
	c-0.092,0.101-0.197,0.189-0.314,0.264s-0.247,0.138-0.39,0.189c-0.143,0.05-0.298,0.088-0.465,0.113
	c-0.168,0.025-0.348,0.038-0.541,0.038c-0.36,0-0.679-0.05-0.956-0.15c-0.277-0.1-0.513-0.248-0.708-0.445
	c-0.195-0.197-0.349-0.442-0.462-0.735C32.533,70.672,32.459,70.332,32.426,69.946L32.426,69.946L32.426,69.946L32.426,69.946
	L32.426,69.946z"/>
<path id="path14843" style="fill:#003366;" d="M39.836,70.584l0.268,0.059l0.268,0.059l0.268,0.059l0.268,0.059
	c-0.034,0.126-0.073,0.243-0.119,0.352c-0.046,0.109-0.097,0.21-0.153,0.302c-0.057,0.092-0.118,0.176-0.185,0.251
	c-0.067,0.075-0.138,0.143-0.213,0.201c-0.075,0.059-0.155,0.111-0.239,0.157c-0.084,0.046-0.172,0.084-0.264,0.116
	c-0.092,0.032-0.189,0.056-0.289,0.072c-0.101,0.016-0.205,0.025-0.314,0.025c-0.151,0-0.293-0.013-0.427-0.038
	c-0.134-0.025-0.258-0.063-0.374-0.113c-0.115-0.05-0.221-0.113-0.317-0.189c-0.096-0.075-0.182-0.163-0.257-0.264
	c-0.092-0.117-0.174-0.245-0.245-0.384c-0.071-0.139-0.13-0.289-0.179-0.45c-0.048-0.161-0.085-0.334-0.11-0.519
	c-0.025-0.185-0.037-0.382-0.037-0.591c0-0.21,0.013-0.407,0.037-0.592c0.025-0.185,0.061-0.359,0.11-0.523
	c0.048-0.163,0.108-0.316,0.179-0.46s0.152-0.278,0.245-0.403c0.084-0.109,0.174-0.203,0.27-0.283
	c0.096-0.08,0.197-0.146,0.304-0.199s0.219-0.091,0.336-0.117c0.117-0.026,0.239-0.038,0.364-0.038c0.143,0,0.279,0.013,0.408,0.038
	s0.252,0.064,0.367,0.117c0.115,0.052,0.223,0.118,0.323,0.199s0.192,0.175,0.276,0.284c0.092,0.126,0.174,0.264,0.245,0.416
	c0.071,0.152,0.131,0.317,0.179,0.498c0.048,0.18,0.085,0.375,0.109,0.586c0.025,0.211,0.037,0.437,0.037,0.68v0.034v0.034v0.034
	v0.034h-0.671h-0.671h-0.671h-0.671c0,0.101,0.006,0.195,0.018,0.283c0.012,0.088,0.03,0.17,0.053,0.245
	c0.023,0.075,0.051,0.145,0.084,0.207c0.033,0.063,0.071,0.119,0.113,0.17c0.042,0.05,0.086,0.096,0.132,0.137
	c0.046,0.041,0.094,0.076,0.145,0.106c0.05,0.029,0.103,0.052,0.157,0.068s0.111,0.024,0.17,0.024
	c0.084-0.008,0.159-0.029,0.227-0.063c0.068-0.034,0.129-0.081,0.183-0.142s0.103-0.135,0.146-0.224S39.803,70.701,39.836,70.584
	L39.836,70.584L39.836,70.584L39.836,70.584L39.836,70.584z M39.903,69.242c0-0.092-0.006-0.18-0.018-0.264
	c-0.012-0.083-0.028-0.162-0.049-0.235c-0.021-0.073-0.046-0.142-0.074-0.204c-0.028-0.062-0.06-0.119-0.093-0.169
	c-0.042-0.05-0.084-0.094-0.127-0.132s-0.087-0.069-0.133-0.094c-0.046-0.025-0.094-0.044-0.146-0.057s-0.106-0.019-0.165-0.019
	c-0.059,0-0.113,0.006-0.165,0.019c-0.051,0.013-0.1,0.031-0.146,0.057c-0.046,0.025-0.09,0.057-0.133,0.094
	c-0.043,0.038-0.085,0.082-0.127,0.132c-0.042,0.05-0.078,0.107-0.107,0.169s-0.054,0.131-0.073,0.204s-0.033,0.152-0.041,0.235
	c-0.009,0.083-0.013,0.171-0.013,0.264c0,0,0.101,0,0.251,0s0.352,0,0.553,0c0.201,0,0.402,0,0.553,0S39.903,69.242,39.903,69.242z"
	/>
<path id="path14845" style="fill:#003366;" d="M42.217,68.706l-0.243-0.05l-0.243-0.05l-0.243-0.05l-0.243-0.05
	c0.034-0.126,0.069-0.243,0.108-0.352c0.039-0.108,0.081-0.208,0.127-0.298c0.046-0.09,0.096-0.171,0.152-0.241
	c0.056-0.071,0.116-0.131,0.183-0.182c0.067-0.059,0.143-0.109,0.226-0.151s0.175-0.077,0.273-0.104
	c0.098-0.027,0.204-0.047,0.317-0.06c0.113-0.013,0.232-0.019,0.358-0.019c0.117,0,0.226,0.004,0.327,0.013
	c0.101,0.008,0.194,0.021,0.28,0.038c0.086,0.017,0.164,0.038,0.236,0.063c0.072,0.025,0.137,0.054,0.196,0.088
	c0.059,0.034,0.113,0.069,0.163,0.107c0.05,0.038,0.096,0.079,0.138,0.123c0.042,0.044,0.08,0.091,0.113,0.142
	s0.063,0.105,0.088,0.164c0.025,0.05,0.048,0.113,0.069,0.189s0.038,0.163,0.053,0.264c0.015,0.101,0.026,0.214,0.034,0.34
	c0.008,0.126,0.012,0.264,0.012,0.415v0.386v0.386v0.386v0.386c0,0.109,0.002,0.21,0.006,0.303c0.004,0.093,0.009,0.179,0.015,0.259
	c0.006,0.08,0.013,0.153,0.021,0.221c0.008,0.068,0.016,0.131,0.025,0.19c0.008,0.05,0.019,0.103,0.031,0.157
	c0.013,0.054,0.027,0.11,0.044,0.166c0.017,0.057,0.036,0.114,0.057,0.172s0.044,0.117,0.069,0.175h-0.268H44.43h-0.268h-0.268
	l-0.034-0.134l-0.034-0.134l-0.034-0.134l-0.034-0.134c-0.042,0.05-0.086,0.099-0.132,0.145s-0.094,0.09-0.145,0.132
	c-0.05,0.042-0.103,0.082-0.157,0.119c-0.054,0.038-0.111,0.073-0.17,0.107c-0.05,0.025-0.103,0.048-0.157,0.069
	s-0.11,0.038-0.166,0.053c-0.056,0.014-0.114,0.026-0.172,0.034c-0.058,0.008-0.117,0.012-0.175,0.012
	c-0.101,0-0.195-0.008-0.284-0.025c-0.089-0.017-0.173-0.042-0.253-0.075c-0.08-0.034-0.155-0.075-0.227-0.126
	c-0.072-0.05-0.141-0.109-0.209-0.176s-0.124-0.14-0.171-0.22s-0.085-0.164-0.114-0.254c-0.029-0.09-0.05-0.186-0.064-0.286
	c-0.014-0.1-0.02-0.205-0.02-0.314c0-0.067,0.004-0.134,0.012-0.2c0.008-0.066,0.019-0.131,0.034-0.194
	c0.015-0.063,0.033-0.124,0.053-0.181s0.044-0.112,0.069-0.162c0.025-0.05,0.052-0.098,0.082-0.145s0.062-0.09,0.098-0.132
	c0.036-0.042,0.074-0.082,0.117-0.119c0.042-0.038,0.089-0.073,0.139-0.107c0.05-0.034,0.105-0.065,0.165-0.095
	c0.06-0.03,0.126-0.058,0.199-0.085c0.073-0.027,0.154-0.053,0.244-0.079s0.188-0.051,0.297-0.076
	c0.126-0.025,0.241-0.052,0.346-0.081c0.105-0.028,0.201-0.058,0.286-0.087c0.086-0.029,0.162-0.059,0.23-0.087
	c0.068-0.028,0.126-0.056,0.177-0.081c0-0.067-0.002-0.128-0.006-0.183s-0.009-0.104-0.015-0.148
	c-0.006-0.044-0.014-0.083-0.022-0.117c-0.008-0.034-0.016-0.063-0.024-0.089c-0.008-0.025-0.019-0.048-0.031-0.069
	s-0.027-0.04-0.044-0.057c-0.017-0.017-0.036-0.031-0.057-0.044c-0.021-0.013-0.044-0.023-0.069-0.031
	c-0.025-0.017-0.052-0.031-0.082-0.044s-0.062-0.023-0.098-0.031c-0.036-0.008-0.075-0.014-0.117-0.019s-0.089-0.006-0.139-0.006
	s-0.096,0.002-0.139,0.007c-0.043,0.005-0.083,0.012-0.121,0.022c-0.038,0.01-0.073,0.024-0.108,0.041
	c-0.035,0.017-0.068,0.038-0.102,0.063c-0.042,0.008-0.078,0.025-0.108,0.049s-0.057,0.056-0.08,0.093
	c-0.023,0.038-0.043,0.082-0.061,0.131C42.25,68.593,42.234,68.647,42.217,68.706L42.217,68.706L42.217,68.706L42.217,68.706
	L42.217,68.706z M43.659,69.779c-0.034,0.017-0.071,0.034-0.114,0.05c-0.042,0.017-0.09,0.034-0.142,0.05
	c-0.052,0.017-0.11,0.034-0.173,0.05c-0.063,0.017-0.133,0.034-0.208,0.05c-0.084,0.025-0.159,0.048-0.227,0.071
	c-0.068,0.023-0.127,0.045-0.18,0.068c-0.052,0.023-0.097,0.047-0.136,0.074c-0.038,0.027-0.07,0.056-0.095,0.089
	c-0.025,0.025-0.048,0.052-0.069,0.082c-0.02,0.029-0.038,0.061-0.053,0.094c-0.015,0.034-0.026,0.069-0.034,0.107
	c-0.008,0.038-0.012,0.078-0.012,0.119c0,0.05,0.004,0.096,0.012,0.139c0.008,0.043,0.019,0.083,0.034,0.12
	c0.015,0.038,0.033,0.073,0.053,0.108c0.02,0.035,0.044,0.068,0.069,0.102c0.025,0.034,0.054,0.063,0.087,0.088
	c0.032,0.025,0.068,0.046,0.106,0.063c0.038,0.017,0.078,0.029,0.118,0.038c0.041,0.008,0.083,0.013,0.125,0.013
	c0.042,0,0.082-0.004,0.12-0.012c0.038-0.008,0.075-0.019,0.111-0.034c0.036-0.015,0.07-0.032,0.104-0.053s0.068-0.044,0.101-0.069
	c0.034-0.025,0.067-0.052,0.099-0.081c0.032-0.029,0.062-0.059,0.089-0.09c0.027-0.032,0.051-0.064,0.071-0.097
	c0.019-0.033,0.034-0.067,0.042-0.1c0.017-0.034,0.031-0.075,0.044-0.125s0.023-0.107,0.031-0.172
	c0.008-0.065,0.015-0.137,0.019-0.216c0.004-0.079,0.006-0.165,0.006-0.257V69.98v-0.067l0-0.067L43.659,69.779L43.659,69.779
	L43.659,69.779L43.659,69.779L43.659,69.779z"/>
<path id="path14847" style="fill:#003366;" d="M46.375,72.159h-0.268h-0.268H45.57h-0.268v-1.241v-1.241v-1.241v-1.241h0.251h0.251
	h0.251h0.251v0.176v0.176v0.176v0.176c0.042-0.084,0.084-0.159,0.125-0.227s0.082-0.127,0.122-0.18
	c0.04-0.052,0.079-0.097,0.116-0.136s0.073-0.07,0.106-0.095s0.069-0.048,0.106-0.069s0.076-0.038,0.116-0.053
	c0.04-0.015,0.081-0.026,0.122-0.034s0.083-0.012,0.125-0.012c0.059,0,0.117,0.004,0.176,0.013c0.059,0.009,0.117,0.022,0.176,0.041
	s0.117,0.043,0.176,0.073c0.059,0.03,0.117,0.066,0.176,0.108l-0.084,0.285l-0.084,0.285l-0.084,0.285l-0.084,0.285
	c-0.042-0.034-0.084-0.063-0.126-0.088c-0.042-0.025-0.084-0.046-0.126-0.063c-0.042-0.017-0.084-0.029-0.126-0.038
	c-0.042-0.008-0.084-0.013-0.126-0.013c-0.034,0-0.067,0.004-0.101,0.012s-0.067,0.019-0.101,0.034
	c-0.034,0.015-0.067,0.032-0.101,0.053c-0.034,0.02-0.067,0.043-0.101,0.069c-0.025,0.025-0.05,0.057-0.074,0.094
	c-0.024,0.038-0.047,0.082-0.068,0.132c-0.021,0.05-0.04,0.107-0.056,0.17c-0.016,0.063-0.028,0.132-0.037,0.207
	s-0.017,0.163-0.025,0.266c-0.008,0.102-0.015,0.218-0.021,0.35c-0.006,0.132-0.011,0.28-0.015,0.445
	c-0.004,0.165-0.006,0.347-0.006,0.549c-0.008-0.008-0.015,0.082-0.019,0.222c-0.005,0.14-0.008,0.329-0.01,0.52
	c-0.002,0.191-0.004,0.383-0.004,0.527C46.375,72.063,46.375,72.159,46.375,72.159z"/>
<path id="path14849" style="fill:#003366;" d="M51.472,68.672l-0.268,0.059l-0.268,0.059l-0.268,0.059l-0.268,0.059
	c-0.017-0.126-0.046-0.237-0.087-0.333c-0.041-0.096-0.093-0.177-0.156-0.241c-0.063-0.065-0.136-0.114-0.219-0.147
	s-0.175-0.05-0.276-0.05c-0.067,0-0.13,0.006-0.189,0.019c-0.059,0.013-0.115,0.033-0.167,0.06
	c-0.052,0.027-0.102,0.062-0.148,0.104c-0.047,0.042-0.091,0.093-0.133,0.151c-0.042,0.059-0.078,0.126-0.107,0.202
	s-0.054,0.161-0.073,0.255c-0.019,0.094-0.033,0.198-0.042,0.312c-0.009,0.114-0.013,0.237-0.013,0.371
	c0,0.151,0.004,0.289,0.013,0.415c0.009,0.126,0.023,0.24,0.042,0.343c0.019,0.103,0.043,0.194,0.073,0.274
	c0.03,0.08,0.065,0.149,0.107,0.208c0.042,0.059,0.086,0.111,0.133,0.157c0.047,0.046,0.096,0.084,0.148,0.116
	c0.052,0.032,0.108,0.056,0.167,0.072c0.059,0.016,0.122,0.025,0.189,0.025c0.05,0,0.098-0.004,0.145-0.013
	c0.046-0.008,0.09-0.021,0.132-0.038c0.042-0.017,0.082-0.038,0.119-0.063c0.038-0.025,0.073-0.054,0.107-0.088
	s0.065-0.073,0.094-0.12c0.029-0.047,0.055-0.1,0.078-0.161s0.043-0.129,0.059-0.205c0.016-0.076,0.029-0.16,0.037-0.252L50.7,70.34
	l0.268,0.059l0.268,0.059l0.268,0.059c-0.05,0.302-0.128,0.564-0.232,0.787s-0.235,0.408-0.393,0.554
	c-0.157,0.147-0.341,0.256-0.55,0.328c-0.209,0.072-0.444,0.108-0.704,0.108c-0.168,0-0.323-0.017-0.466-0.05
	s-0.276-0.082-0.397-0.147c-0.122-0.065-0.233-0.146-0.334-0.241c-0.102-0.096-0.194-0.207-0.278-0.333s-0.155-0.258-0.215-0.396
	c-0.06-0.138-0.108-0.283-0.146-0.434c-0.038-0.151-0.065-0.308-0.083-0.472c-0.018-0.163-0.026-0.333-0.026-0.509
	c0-0.21,0.01-0.409,0.032-0.596c0.021-0.188,0.054-0.364,0.098-0.527c0.044-0.163,0.1-0.314,0.167-0.452s0.147-0.261,0.239-0.37
	c0.092-0.109,0.191-0.205,0.296-0.289c0.105-0.083,0.217-0.154,0.337-0.21c0.12-0.057,0.246-0.1,0.381-0.128
	s0.277-0.043,0.428-0.043c0.117,0,0.231,0.008,0.339,0.025c0.108,0.016,0.212,0.04,0.311,0.072c0.098,0.032,0.192,0.07,0.279,0.116
	s0.169,0.098,0.245,0.157c0.075,0.067,0.147,0.143,0.213,0.226c0.066,0.084,0.127,0.176,0.181,0.277
	c0.055,0.101,0.103,0.21,0.144,0.327C51.413,68.412,51.446,68.538,51.472,68.672L51.472,68.672L51.472,68.672L51.472,68.672
	L51.472,68.672z"/>
<path id="path14851" style="fill:#003366;" d="M52.947,65.319v0.629v0.629v0.629v0.629c0.042-0.059,0.086-0.115,0.132-0.169
	c0.046-0.054,0.093-0.105,0.141-0.154c0.048-0.048,0.097-0.093,0.147-0.134c0.05-0.041,0.1-0.079,0.15-0.113
	s0.103-0.063,0.157-0.088c0.054-0.025,0.11-0.046,0.166-0.063c0.056-0.017,0.114-0.029,0.172-0.038
	c0.058-0.008,0.117-0.013,0.175-0.013c0.084,0,0.163,0.006,0.239,0.018c0.075,0.012,0.147,0.03,0.214,0.053s0.13,0.051,0.189,0.084
	c0.059,0.033,0.113,0.071,0.163,0.113c0.05,0.042,0.098,0.088,0.144,0.139c0.046,0.051,0.088,0.106,0.128,0.167
	c0.04,0.061,0.077,0.127,0.11,0.199c0.033,0.072,0.062,0.149,0.087,0.233c0.017,0.059,0.031,0.128,0.044,0.207
	c0.013,0.079,0.023,0.168,0.031,0.267c0.009,0.099,0.015,0.207,0.019,0.323c0.004,0.117,0.006,0.243,0.006,0.377v0.729v0.729v0.729
	v0.729h-0.268h-0.268h-0.268h-0.268v-0.654v-0.654v-0.654v-0.654c0-0.151-0.002-0.287-0.006-0.409
	c-0.004-0.122-0.01-0.23-0.019-0.324c-0.008-0.094-0.019-0.175-0.031-0.243s-0.027-0.122-0.044-0.164
	c-0.025-0.05-0.057-0.094-0.094-0.132c-0.037-0.038-0.08-0.069-0.128-0.094c-0.048-0.025-0.102-0.044-0.16-0.057
	c-0.058-0.013-0.121-0.019-0.188-0.019c-0.067,0-0.132,0.006-0.194,0.019c-0.062,0.013-0.121,0.033-0.175,0.06
	c-0.054,0.027-0.105,0.062-0.15,0.104c-0.045,0.042-0.085,0.093-0.118,0.151c-0.042,0.059-0.078,0.128-0.107,0.208
	c-0.03,0.08-0.054,0.171-0.073,0.274c-0.019,0.103-0.032,0.217-0.041,0.343c-0.009,0.126-0.013,0.265-0.013,0.415v0.62v0.62v0.62
	v0.62h-0.268H52.41h-0.268h-0.268v-1.71v-1.71v-1.71v-1.71h0.268h0.268h0.268H52.947L52.947,65.319L52.947,65.319L52.947,65.319
	L52.947,65.319z"/>
<path id="path14853" style="fill:#003366;" d="M58.781,68.706l-0.243-0.05l-0.243-0.05l-0.243-0.05l-0.243-0.05
	c0.034-0.126,0.069-0.243,0.108-0.352c0.039-0.108,0.081-0.208,0.127-0.298c0.046-0.09,0.096-0.171,0.152-0.241
	c0.056-0.071,0.116-0.131,0.183-0.182c0.067-0.059,0.143-0.109,0.226-0.151c0.083-0.042,0.174-0.077,0.273-0.104
	c0.099-0.027,0.204-0.047,0.317-0.06c0.113-0.013,0.232-0.019,0.358-0.019c0.117,0,0.226,0.004,0.327,0.013
	c0.101,0.008,0.194,0.021,0.28,0.038c0.086,0.017,0.164,0.038,0.236,0.063c0.072,0.025,0.137,0.054,0.196,0.088
	c0.059,0.034,0.113,0.069,0.163,0.107c0.05,0.038,0.096,0.079,0.138,0.123c0.042,0.044,0.08,0.091,0.113,0.142
	c0.034,0.051,0.063,0.105,0.088,0.164c0.025,0.05,0.048,0.113,0.069,0.189s0.038,0.163,0.053,0.264
	c0.015,0.101,0.026,0.214,0.034,0.34c0.008,0.126,0.012,0.264,0.012,0.415v0.386v0.386v0.386v0.386c0,0.109,0.002,0.21,0.006,0.303
	c0.004,0.093,0.009,0.179,0.015,0.259c0.006,0.08,0.014,0.153,0.022,0.221c0.008,0.068,0.016,0.131,0.024,0.19
	c0.008,0.05,0.019,0.103,0.031,0.157c0.013,0.054,0.027,0.11,0.044,0.166c0.017,0.057,0.036,0.114,0.057,0.172
	c0.021,0.058,0.044,0.117,0.069,0.175h-0.268h-0.268h-0.268h-0.268l-0.034-0.134l-0.034-0.134l-0.034-0.134l-0.034-0.134
	c-0.042,0.05-0.086,0.099-0.132,0.145c-0.046,0.046-0.094,0.09-0.145,0.132s-0.103,0.082-0.157,0.119
	c-0.054,0.038-0.111,0.073-0.17,0.107c-0.05,0.025-0.103,0.048-0.157,0.069s-0.109,0.038-0.166,0.053
	c-0.057,0.015-0.114,0.026-0.172,0.034c-0.058,0.008-0.117,0.012-0.175,0.012c-0.101,0-0.195-0.008-0.284-0.025
	c-0.089-0.017-0.173-0.042-0.253-0.075c-0.08-0.034-0.155-0.075-0.227-0.126c-0.072-0.05-0.141-0.109-0.209-0.176
	c-0.067-0.067-0.124-0.14-0.171-0.219s-0.085-0.164-0.114-0.254c-0.029-0.09-0.05-0.186-0.064-0.286
	c-0.014-0.1-0.02-0.205-0.02-0.314c0-0.067,0.004-0.134,0.012-0.2c0.008-0.066,0.019-0.131,0.034-0.194
	c0.015-0.063,0.032-0.124,0.053-0.181s0.044-0.112,0.069-0.162c0.025-0.05,0.052-0.098,0.082-0.145
	c0.03-0.046,0.062-0.09,0.098-0.132c0.036-0.042,0.075-0.082,0.117-0.119c0.042-0.038,0.089-0.073,0.139-0.107
	s0.105-0.065,0.165-0.095s0.126-0.058,0.199-0.085c0.073-0.027,0.154-0.053,0.244-0.079s0.188-0.051,0.297-0.076
	c0.126-0.025,0.241-0.052,0.346-0.081c0.105-0.028,0.201-0.058,0.286-0.087s0.162-0.059,0.23-0.087
	c0.068-0.028,0.126-0.056,0.177-0.081c0-0.067-0.002-0.128-0.006-0.183c-0.004-0.055-0.009-0.104-0.015-0.148
	c-0.006-0.044-0.013-0.083-0.021-0.117c-0.008-0.034-0.016-0.063-0.025-0.089c-0.008-0.025-0.019-0.048-0.031-0.069
	s-0.027-0.04-0.044-0.057c-0.017-0.017-0.036-0.031-0.057-0.044c-0.021-0.013-0.044-0.023-0.069-0.031
	c-0.025-0.017-0.052-0.031-0.082-0.044c-0.03-0.013-0.062-0.023-0.098-0.031c-0.036-0.008-0.074-0.015-0.117-0.019
	c-0.042-0.004-0.089-0.006-0.139-0.006s-0.096,0.002-0.139,0.007c-0.043,0.005-0.083,0.012-0.12,0.022
	c-0.038,0.01-0.073,0.024-0.108,0.041c-0.035,0.017-0.068,0.038-0.102,0.063c-0.034,0.008-0.065,0.025-0.094,0.049
	s-0.057,0.056-0.082,0.093c-0.025,0.038-0.048,0.082-0.069,0.131C58.817,68.593,58.798,68.647,58.781,68.706L58.781,68.706
	L58.781,68.706L58.781,68.706L58.781,68.706z M60.223,69.779c-0.034,0.017-0.071,0.034-0.114,0.05
	c-0.042,0.017-0.09,0.034-0.142,0.05c-0.052,0.017-0.11,0.034-0.173,0.05c-0.063,0.017-0.133,0.034-0.208,0.05
	c-0.084,0.025-0.159,0.048-0.227,0.071c-0.068,0.023-0.127,0.045-0.18,0.068c-0.052,0.023-0.097,0.047-0.136,0.074
	c-0.038,0.027-0.07,0.056-0.095,0.089c-0.025,0.025-0.048,0.052-0.069,0.082s-0.038,0.061-0.053,0.094
	c-0.015,0.034-0.026,0.069-0.034,0.107c-0.008,0.038-0.012,0.078-0.012,0.119c0,0.05,0.004,0.096,0.012,0.139
	c0.008,0.043,0.019,0.083,0.034,0.12c0.015,0.038,0.032,0.073,0.053,0.108c0.02,0.035,0.044,0.068,0.069,0.102
	c0.025,0.034,0.054,0.063,0.087,0.088c0.032,0.025,0.068,0.046,0.106,0.063c0.038,0.017,0.078,0.029,0.118,0.038
	c0.041,0.008,0.083,0.013,0.125,0.013c0.042,0,0.082-0.004,0.12-0.012c0.038-0.008,0.075-0.019,0.111-0.034
	c0.036-0.015,0.07-0.032,0.104-0.053s0.068-0.044,0.101-0.069c0.034-0.025,0.067-0.052,0.099-0.081
	c0.032-0.029,0.062-0.059,0.089-0.09c0.027-0.032,0.051-0.064,0.071-0.097c0.019-0.033,0.034-0.067,0.042-0.1
	c0.017-0.034,0.031-0.075,0.044-0.125s0.023-0.107,0.031-0.172c0.008-0.065,0.015-0.137,0.019-0.216
	c0.004-0.079,0.006-0.165,0.006-0.257V69.98v-0.067l0-0.067L60.223,69.779L60.223,69.779L60.223,69.779L60.223,69.779L60.223,69.779
	z"/>
<path id="path14855" style="fill:#003366;" d="M65.622,72.159h-0.268h-0.268h-0.268h-0.268v-0.629v-0.629v-0.629v-0.629
	c0-0.126-0.002-0.241-0.006-0.346c-0.004-0.105-0.009-0.199-0.015-0.283c-0.006-0.084-0.014-0.157-0.022-0.22
	c-0.008-0.063-0.016-0.115-0.024-0.157c-0.008-0.042-0.019-0.082-0.032-0.119c-0.013-0.038-0.029-0.073-0.048-0.107
	s-0.041-0.065-0.067-0.094c-0.026-0.029-0.055-0.057-0.088-0.082c-0.025-0.025-0.052-0.046-0.081-0.063
	c-0.029-0.017-0.059-0.031-0.09-0.041c-0.031-0.01-0.064-0.018-0.097-0.023c-0.033-0.005-0.067-0.007-0.1-0.007
	c-0.042,0-0.084,0.004-0.126,0.012c-0.042,0.008-0.084,0.019-0.126,0.034c-0.042,0.015-0.084,0.032-0.126,0.053
	c-0.042,0.02-0.084,0.043-0.126,0.069c-0.034,0.025-0.065,0.054-0.094,0.088c-0.029,0.033-0.057,0.07-0.082,0.11
	c-0.025,0.04-0.048,0.083-0.069,0.128c-0.021,0.046-0.04,0.094-0.057,0.144c-0.017,0.05-0.031,0.113-0.044,0.188
	c-0.013,0.075-0.023,0.162-0.031,0.261c-0.008,0.099-0.015,0.209-0.019,0.33c-0.004,0.121-0.006,0.253-0.006,0.395v0.562v0.562
	v0.562v0.562h-0.268h-0.268h-0.268H61.9v-1.241v-1.241v-1.241v-1.241h0.251h0.251h0.251h0.251v0.184v0.184v0.184v0.184
	c0.042-0.067,0.086-0.132,0.132-0.194c0.046-0.062,0.094-0.12,0.145-0.175c0.05-0.054,0.103-0.105,0.157-0.15
	s0.111-0.085,0.17-0.118c0.059-0.034,0.117-0.063,0.177-0.088c0.059-0.025,0.119-0.046,0.18-0.063
	c0.061-0.017,0.122-0.029,0.186-0.038c0.063-0.008,0.128-0.013,0.195-0.013c0.075,0,0.149,0.004,0.22,0.013s0.14,0.022,0.207,0.041
	c0.067,0.019,0.132,0.043,0.195,0.073c0.063,0.03,0.124,0.066,0.182,0.107c0.05,0.042,0.098,0.086,0.144,0.133
	c0.045,0.047,0.087,0.096,0.125,0.148c0.038,0.052,0.071,0.108,0.1,0.167c0.028,0.059,0.051,0.122,0.068,0.189
	c0.025,0.067,0.046,0.14,0.063,0.22c0.017,0.08,0.031,0.166,0.041,0.258c0.01,0.092,0.018,0.191,0.023,0.295
	c0.005,0.105,0.007,0.216,0.007,0.333v0.771v0.771v0.771L65.622,72.159L65.622,72.159L65.622,72.159L65.622,72.159L65.622,72.159z"
	/>
<path id="path14857" style="fill:#003366;" d="M70.014,72.159h-0.251h-0.251H69.26h-0.251v-0.184v-0.184v-0.184v-0.184
	c-0.042,0.067-0.086,0.132-0.131,0.194c-0.046,0.062-0.093,0.121-0.141,0.175c-0.048,0.054-0.097,0.105-0.147,0.15
	c-0.05,0.045-0.1,0.085-0.15,0.118c-0.059,0.034-0.117,0.063-0.176,0.088c-0.059,0.025-0.117,0.046-0.176,0.063
	c-0.059,0.017-0.117,0.029-0.176,0.038c-0.059,0.008-0.117,0.013-0.176,0.013c-0.117,0-0.228-0.015-0.334-0.043
	s-0.206-0.072-0.303-0.128c-0.096-0.057-0.189-0.127-0.278-0.21c-0.089-0.083-0.175-0.18-0.259-0.289
	c-0.084-0.117-0.157-0.245-0.22-0.384c-0.063-0.139-0.115-0.289-0.157-0.45c-0.042-0.161-0.073-0.334-0.094-0.519
	c-0.021-0.185-0.031-0.382-0.031-0.591s0.01-0.407,0.031-0.591s0.052-0.356,0.094-0.516s0.094-0.306,0.157-0.44
	c0.063-0.134,0.136-0.256,0.22-0.365c0.084-0.109,0.172-0.203,0.264-0.283c0.092-0.08,0.189-0.146,0.289-0.199
	c0.101-0.052,0.205-0.091,0.314-0.117c0.109-0.026,0.222-0.038,0.34-0.038c0.059,0,0.115,0.004,0.17,0.012
	c0.055,0.008,0.109,0.019,0.161,0.034c0.052,0.015,0.104,0.032,0.155,0.053s0.101,0.044,0.151,0.069
	c0.05,0.025,0.098,0.057,0.145,0.093c0.047,0.036,0.092,0.077,0.136,0.121c0.044,0.044,0.087,0.091,0.129,0.14
	s0.084,0.099,0.126,0.15v-0.612v-0.612v-0.612v-0.612h0.268h0.268h0.268h0.268v1.71v1.71v1.71L70.014,72.159L70.014,72.159
	L70.014,72.159L70.014,72.159L70.014,72.159z M67.131,69.578c0,0.109,0.002,0.212,0.006,0.308c0.004,0.096,0.01,0.187,0.019,0.27
	c0.008,0.084,0.019,0.161,0.031,0.233s0.027,0.136,0.044,0.195c0.017,0.05,0.038,0.098,0.062,0.145s0.051,0.09,0.081,0.132
	c0.029,0.042,0.061,0.082,0.093,0.119c0.032,0.038,0.066,0.073,0.1,0.107c0.034,0.025,0.069,0.048,0.106,0.069
	s0.076,0.038,0.116,0.053c0.04,0.015,0.081,0.026,0.122,0.034c0.041,0.008,0.083,0.012,0.125,0.012c0.059,0,0.115-0.008,0.17-0.025
	s0.107-0.04,0.157-0.072c0.05-0.031,0.099-0.07,0.145-0.116c0.046-0.046,0.09-0.098,0.132-0.157c0.042-0.067,0.08-0.14,0.113-0.221
	c0.033-0.08,0.061-0.167,0.084-0.262c0.023-0.094,0.041-0.196,0.053-0.305c0.012-0.109,0.018-0.227,0.018-0.353
	c0-0.143-0.006-0.275-0.018-0.397c-0.012-0.122-0.03-0.234-0.053-0.337c-0.023-0.103-0.051-0.196-0.085-0.28
	c-0.033-0.084-0.071-0.16-0.113-0.227s-0.086-0.124-0.133-0.171s-0.096-0.085-0.148-0.114c-0.052-0.029-0.108-0.05-0.167-0.064
	c-0.059-0.014-0.122-0.02-0.189-0.02c-0.059,0-0.117,0.008-0.175,0.025c-0.058,0.016-0.114,0.04-0.169,0.072
	c-0.054,0.031-0.107,0.07-0.156,0.116c-0.049,0.046-0.095,0.098-0.137,0.157c-0.034,0.05-0.065,0.111-0.093,0.182
	s-0.053,0.151-0.074,0.241c-0.021,0.09-0.038,0.19-0.05,0.299C67.137,69.334,67.131,69.452,67.131,69.578L67.131,69.578
	L67.131,69.578L67.131,69.578L67.131,69.578z"/>
<path id="path14859" style="fill:#003366;" d="M39.031,81.682v-1.71v-1.71v-1.71v-1.71h0.595h0.595h0.595h0.595
	c0.151,0,0.291,0.004,0.421,0.013c0.13,0.008,0.249,0.021,0.358,0.038c0.109,0.017,0.207,0.038,0.295,0.063
	c0.088,0.025,0.166,0.054,0.233,0.088s0.13,0.071,0.189,0.114c0.059,0.042,0.115,0.09,0.167,0.142
	c0.052,0.052,0.102,0.11,0.148,0.173c0.047,0.063,0.091,0.133,0.133,0.208c0.042,0.075,0.08,0.155,0.113,0.238
	c0.033,0.083,0.061,0.17,0.084,0.261c0.023,0.09,0.041,0.184,0.053,0.279s0.018,0.194,0.018,0.295c0,0.134-0.008,0.262-0.025,0.383
	c-0.017,0.121-0.042,0.235-0.075,0.342s-0.075,0.207-0.126,0.298c-0.05,0.092-0.109,0.175-0.176,0.251
	c-0.067,0.084-0.138,0.159-0.215,0.226s-0.16,0.126-0.25,0.176c-0.09,0.05-0.188,0.092-0.294,0.126
	c-0.106,0.034-0.222,0.059-0.347,0.075c0.059,0.042,0.115,0.086,0.17,0.132c0.054,0.046,0.107,0.093,0.157,0.141
	c0.05,0.048,0.098,0.097,0.145,0.147c0.046,0.05,0.09,0.1,0.132,0.15c0.042,0.05,0.086,0.111,0.133,0.182
	c0.047,0.071,0.096,0.153,0.148,0.245c0.052,0.092,0.108,0.195,0.167,0.308c0.059,0.113,0.122,0.237,0.189,0.371l0.168,0.335
	l0.168,0.335l0.168,0.335l0.168,0.335h-0.335h-0.335h-0.335h-0.335l-0.201-0.369l-0.201-0.369l-0.201-0.369l-0.201-0.369
	c-0.075-0.134-0.145-0.256-0.207-0.365c-0.063-0.109-0.119-0.205-0.17-0.289c-0.05-0.084-0.094-0.155-0.132-0.214
	c-0.038-0.059-0.069-0.105-0.094-0.138c-0.025-0.034-0.05-0.065-0.076-0.094c-0.026-0.029-0.052-0.055-0.079-0.078
	c-0.027-0.023-0.056-0.043-0.086-0.059c-0.03-0.016-0.061-0.029-0.095-0.037c-0.034-0.017-0.069-0.029-0.108-0.039
	c-0.039-0.009-0.081-0.016-0.127-0.02c-0.046-0.004-0.096-0.006-0.152-0.007c-0.056-0.001-0.116-0.001-0.183-0.001h-0.059h-0.059
	h-0.058h-0.058v0.713v0.713v0.713v0.713h-0.277h-0.277h-0.277L39.031,81.682L39.031,81.682L39.031,81.682L39.031,81.682
	L39.031,81.682z M40.138,77.759h0.21h0.21h0.21h0.21c0.126,0,0.241-0.002,0.345-0.006c0.104-0.004,0.198-0.009,0.279-0.015
	s0.152-0.013,0.21-0.021c0.058-0.008,0.104-0.016,0.138-0.025c0.034-0.008,0.067-0.021,0.1-0.037
	c0.032-0.016,0.064-0.036,0.093-0.059c0.029-0.023,0.057-0.049,0.081-0.078c0.024-0.029,0.045-0.06,0.062-0.094
	c0.025-0.034,0.046-0.069,0.063-0.107c0.017-0.038,0.031-0.079,0.041-0.123c0.01-0.044,0.018-0.091,0.022-0.142
	s0.007-0.105,0.007-0.164c0-0.05-0.002-0.101-0.007-0.15c-0.005-0.049-0.012-0.097-0.022-0.144c-0.01-0.046-0.024-0.09-0.041-0.131
	c-0.017-0.041-0.038-0.079-0.063-0.112c-0.025-0.034-0.05-0.065-0.076-0.094c-0.026-0.029-0.053-0.055-0.083-0.078
	c-0.029-0.023-0.061-0.043-0.095-0.059c-0.035-0.016-0.072-0.029-0.114-0.037c-0.025-0.008-0.063-0.017-0.113-0.025
	c-0.05-0.008-0.113-0.015-0.189-0.021c-0.075-0.006-0.163-0.011-0.264-0.015s-0.214-0.006-0.34-0.006h-0.218h-0.218h-0.218h-0.218
	c0,0,0,0.109,0,0.272c0,0.163,0,0.381,0,0.599c0,0.218,0,0.436,0,0.599S40.138,77.759,40.138,77.759z"/>
<path id="path14861" style="fill:#003366;" d="M46.576,80.106l0.268,0.059l0.268,0.059l0.268,0.059l0.268,0.059
	c-0.034,0.126-0.073,0.243-0.119,0.352c-0.046,0.109-0.097,0.21-0.153,0.302c-0.056,0.092-0.118,0.176-0.185,0.251
	c-0.067,0.075-0.138,0.143-0.213,0.201c-0.075,0.059-0.155,0.111-0.239,0.157s-0.172,0.084-0.264,0.116
	c-0.092,0.032-0.189,0.056-0.289,0.072c-0.101,0.016-0.205,0.025-0.314,0.025c-0.151,0-0.293-0.013-0.427-0.038
	c-0.134-0.025-0.258-0.063-0.374-0.113c-0.115-0.05-0.221-0.113-0.317-0.189s-0.182-0.163-0.257-0.264
	c-0.092-0.117-0.174-0.245-0.245-0.384c-0.071-0.139-0.13-0.289-0.179-0.45c-0.048-0.161-0.085-0.334-0.11-0.519
	c-0.025-0.185-0.037-0.382-0.037-0.591s0.013-0.407,0.037-0.592c0.025-0.185,0.061-0.359,0.11-0.523
	c0.048-0.163,0.108-0.316,0.179-0.46s0.152-0.278,0.245-0.403c0.084-0.109,0.174-0.203,0.27-0.283
	c0.096-0.08,0.197-0.146,0.304-0.199c0.107-0.052,0.219-0.091,0.336-0.117c0.117-0.026,0.239-0.038,0.364-0.038
	c0.143,0,0.279,0.013,0.408,0.038c0.129,0.026,0.252,0.064,0.367,0.117c0.115,0.052,0.223,0.118,0.323,0.198
	c0.1,0.08,0.192,0.174,0.276,0.283c0.092,0.126,0.174,0.264,0.245,0.416c0.071,0.152,0.131,0.317,0.179,0.498
	c0.048,0.18,0.085,0.375,0.109,0.586c0.025,0.211,0.037,0.437,0.037,0.68v0.034v0.034v0.034v0.034h-0.671h-0.671h-0.671h-0.671
	c0,0.101,0.006,0.195,0.018,0.283c0.012,0.088,0.03,0.17,0.053,0.245s0.051,0.145,0.084,0.207s0.071,0.119,0.113,0.17
	c0.042,0.05,0.086,0.096,0.132,0.137s0.094,0.076,0.145,0.106c0.05,0.029,0.103,0.052,0.157,0.068s0.111,0.024,0.17,0.024
	c0.084,0,0.161-0.015,0.232-0.045s0.135-0.075,0.191-0.136c0.057-0.061,0.106-0.137,0.148-0.23S46.551,80.232,46.576,80.106
	L46.576,80.106L46.576,80.106L46.576,80.106L46.576,80.106z M46.643,78.799c0-0.092-0.006-0.18-0.018-0.264
	c-0.012-0.083-0.028-0.162-0.049-0.235c-0.021-0.073-0.046-0.141-0.074-0.204c-0.028-0.062-0.06-0.119-0.093-0.17
	c-0.042-0.05-0.084-0.094-0.127-0.132c-0.043-0.038-0.087-0.069-0.133-0.094s-0.094-0.044-0.146-0.057
	c-0.051-0.013-0.106-0.019-0.165-0.019s-0.113,0.006-0.165,0.019s-0.1,0.031-0.146,0.057c-0.046,0.025-0.09,0.057-0.133,0.094
	c-0.043,0.038-0.085,0.082-0.127,0.132c-0.042,0.05-0.078,0.107-0.107,0.169s-0.054,0.131-0.073,0.204s-0.033,0.152-0.041,0.235
	c-0.009,0.083-0.013,0.171-0.013,0.263h0.402h0.402h0.402H46.643L46.643,78.799L46.643,78.799L46.643,78.799L46.643,78.799z"/>
<path id="path14863" style="fill:#003366;" d="M47.783,80.274l0.268-0.05l0.268-0.05l0.268-0.05l0.268-0.05
	c0.025,0.126,0.061,0.237,0.108,0.333c0.047,0.096,0.106,0.176,0.177,0.241c0.071,0.065,0.155,0.114,0.253,0.147
	c0.097,0.033,0.209,0.05,0.334,0.05c0.067,0,0.128-0.002,0.183-0.007c0.056-0.005,0.106-0.012,0.152-0.022
	c0.046-0.01,0.088-0.024,0.127-0.041c0.039-0.017,0.074-0.038,0.108-0.063c0.034-0.025,0.063-0.052,0.088-0.082
	c0.025-0.029,0.046-0.061,0.063-0.094c0.017-0.034,0.029-0.069,0.038-0.107c0.008-0.038,0.013-0.078,0.013-0.119
	c0-0.025-0.002-0.05-0.006-0.075c-0.004-0.025-0.01-0.049-0.019-0.072c-0.008-0.023-0.019-0.045-0.031-0.065
	c-0.013-0.02-0.027-0.039-0.044-0.056c-0.017-0.017-0.036-0.031-0.057-0.045c-0.021-0.014-0.046-0.026-0.073-0.039
	c-0.027-0.013-0.058-0.025-0.092-0.039c-0.034-0.014-0.072-0.028-0.114-0.045c-0.218-0.059-0.417-0.117-0.597-0.175
	s-0.34-0.116-0.481-0.172c-0.14-0.057-0.261-0.112-0.361-0.166s-0.18-0.106-0.238-0.157c-0.075-0.067-0.14-0.14-0.195-0.22
	c-0.055-0.079-0.1-0.164-0.136-0.254c-0.036-0.09-0.062-0.186-0.079-0.286s-0.026-0.205-0.026-0.314
	c0-0.117,0.008-0.228,0.026-0.333c0.017-0.105,0.043-0.203,0.079-0.295c0.036-0.092,0.081-0.178,0.136-0.258
	c0.055-0.08,0.12-0.153,0.196-0.22s0.157-0.126,0.246-0.176s0.185-0.092,0.29-0.126c0.105-0.034,0.218-0.059,0.341-0.075
	c0.123-0.017,0.255-0.025,0.397-0.025c0.134,0,0.26,0.006,0.377,0.019s0.226,0.031,0.327,0.057c0.101,0.025,0.193,0.057,0.277,0.094
	c0.084,0.038,0.159,0.082,0.226,0.132c0.067,0.05,0.13,0.109,0.188,0.176c0.058,0.067,0.112,0.143,0.16,0.226
	c0.048,0.084,0.091,0.176,0.128,0.277c0.037,0.101,0.069,0.21,0.094,0.327l-0.251,0.059l-0.251,0.059l-0.251,0.059l-0.251,0.059
	c-0.025-0.101-0.059-0.189-0.102-0.264s-0.095-0.138-0.158-0.189c-0.063-0.05-0.136-0.088-0.221-0.113
	c-0.085-0.025-0.181-0.038-0.29-0.038c-0.067,0-0.128,0.002-0.183,0.006c-0.056,0.004-0.106,0.01-0.152,0.019
	c-0.046,0.008-0.088,0.019-0.127,0.031c-0.039,0.013-0.074,0.027-0.108,0.044c-0.025,0.017-0.048,0.036-0.069,0.057
	s-0.038,0.044-0.053,0.069c-0.015,0.025-0.026,0.052-0.034,0.082c-0.008,0.029-0.012,0.061-0.012,0.094
	c0,0.025,0.004,0.05,0.012,0.075c0.008,0.025,0.019,0.049,0.034,0.072c0.015,0.023,0.033,0.045,0.053,0.065
	c0.02,0.02,0.044,0.039,0.069,0.056c0.025,0.017,0.065,0.038,0.118,0.062s0.121,0.051,0.2,0.081c0.08,0.029,0.172,0.061,0.276,0.093
	s0.219,0.066,0.345,0.1c0.151,0.042,0.289,0.086,0.415,0.132s0.239,0.094,0.34,0.145s0.189,0.103,0.264,0.157
	c0.075,0.054,0.138,0.111,0.189,0.17c0.05,0.059,0.094,0.124,0.132,0.194s0.069,0.146,0.094,0.225
	c0.025,0.08,0.044,0.163,0.057,0.25c0.013,0.087,0.019,0.177,0.019,0.269c0,0.117-0.01,0.231-0.031,0.339
	c-0.021,0.108-0.052,0.212-0.094,0.311c-0.042,0.099-0.094,0.192-0.157,0.279c-0.063,0.087-0.136,0.169-0.22,0.244
	c-0.084,0.075-0.174,0.143-0.271,0.201c-0.097,0.058-0.201,0.107-0.312,0.147c-0.111,0.04-0.23,0.07-0.356,0.09
	c-0.126,0.02-0.26,0.031-0.403,0.031c-0.134,0-0.26-0.008-0.378-0.025c-0.118-0.017-0.229-0.042-0.334-0.075
	c-0.105-0.034-0.203-0.075-0.297-0.126c-0.093-0.05-0.181-0.109-0.265-0.176c-0.075-0.05-0.147-0.111-0.213-0.182
	c-0.066-0.071-0.127-0.151-0.181-0.241c-0.054-0.09-0.103-0.19-0.144-0.298C47.842,80.517,47.808,80.4,47.783,80.274L47.783,80.274
	L47.783,80.274L47.783,80.274L47.783,80.274z"/>
<path id="path14865" style="fill:#003366;" d="M55.629,78.229l-0.268,0.059l-0.268,0.059l-0.268,0.059l-0.268,0.059
	c-0.017-0.126-0.046-0.237-0.087-0.333s-0.093-0.176-0.156-0.241c-0.063-0.065-0.136-0.114-0.219-0.147s-0.175-0.05-0.276-0.05
	c-0.067,0-0.13,0.006-0.189,0.019c-0.059,0.013-0.115,0.033-0.167,0.06c-0.052,0.027-0.102,0.062-0.148,0.104
	c-0.047,0.042-0.091,0.093-0.133,0.151c-0.042,0.059-0.078,0.126-0.107,0.202s-0.054,0.161-0.073,0.255
	c-0.019,0.094-0.032,0.198-0.041,0.312c-0.009,0.114-0.013,0.237-0.013,0.372c0,0.151,0.004,0.289,0.013,0.415
	s0.023,0.241,0.042,0.343c0.019,0.103,0.043,0.194,0.073,0.274c0.03,0.08,0.065,0.149,0.107,0.208
	c0.042,0.059,0.086,0.111,0.133,0.157s0.096,0.084,0.148,0.116c0.052,0.032,0.108,0.056,0.167,0.072
	c0.059,0.016,0.122,0.024,0.189,0.024c0.05,0,0.098-0.004,0.145-0.013c0.046-0.008,0.09-0.021,0.132-0.038
	c0.042-0.017,0.082-0.038,0.119-0.063s0.073-0.054,0.107-0.088s0.065-0.073,0.094-0.12c0.029-0.047,0.055-0.1,0.078-0.161
	c0.023-0.061,0.043-0.129,0.059-0.205c0.016-0.076,0.029-0.16,0.037-0.252l0.268,0.059l0.268,0.059l0.268,0.059l0.268,0.059
	c-0.05,0.302-0.128,0.564-0.232,0.787c-0.104,0.223-0.235,0.408-0.393,0.554c-0.157,0.147-0.341,0.256-0.55,0.328
	c-0.209,0.072-0.444,0.108-0.704,0.108c-0.168,0-0.323-0.017-0.466-0.05s-0.276-0.082-0.397-0.147
	c-0.122-0.065-0.233-0.146-0.334-0.241c-0.102-0.096-0.194-0.207-0.278-0.333c-0.084-0.126-0.155-0.258-0.215-0.396
	c-0.06-0.138-0.108-0.283-0.146-0.434c-0.038-0.151-0.065-0.308-0.083-0.472c-0.018-0.163-0.026-0.333-0.026-0.509
	c0-0.21,0.01-0.409,0.032-0.596c0.021-0.188,0.054-0.364,0.098-0.527c0.044-0.163,0.1-0.314,0.167-0.452
	c0.068-0.137,0.147-0.261,0.24-0.37c0.092-0.109,0.191-0.205,0.296-0.289c0.105-0.083,0.217-0.154,0.337-0.21
	c0.119-0.056,0.246-0.099,0.381-0.128c0.135-0.029,0.277-0.043,0.428-0.043c0.117,0,0.231,0.008,0.339,0.025
	c0.108,0.016,0.212,0.04,0.311,0.072c0.099,0.032,0.192,0.07,0.279,0.116c0.087,0.046,0.169,0.098,0.244,0.157
	c0.075,0.059,0.145,0.128,0.208,0.207c0.063,0.08,0.121,0.17,0.173,0.27c0.052,0.101,0.1,0.212,0.142,0.333
	C55.558,77.954,55.596,78.086,55.629,78.229L55.629,78.229L55.629,78.229L55.629,78.229L55.629,78.229z"/>
<path id="path14867" style="fill:#003366;" d="M58.681,81.682v-0.184v-0.184v-0.184v-0.184c-0.034,0.067-0.071,0.13-0.113,0.189
	c-0.042,0.059-0.088,0.115-0.138,0.167c-0.05,0.052-0.105,0.102-0.163,0.148c-0.059,0.047-0.122,0.091-0.189,0.133
	c-0.059,0.034-0.119,0.065-0.182,0.093c-0.062,0.028-0.126,0.053-0.191,0.074c-0.065,0.021-0.131,0.038-0.198,0.049
	c-0.067,0.012-0.134,0.018-0.201,0.018s-0.132-0.004-0.195-0.013c-0.063-0.008-0.124-0.021-0.182-0.038
	c-0.059-0.017-0.115-0.038-0.17-0.063c-0.054-0.025-0.107-0.054-0.157-0.088c-0.05-0.034-0.098-0.071-0.144-0.113
	c-0.046-0.042-0.088-0.088-0.128-0.138c-0.04-0.05-0.077-0.105-0.11-0.163c-0.033-0.059-0.062-0.122-0.087-0.189
	c-0.025-0.067-0.048-0.14-0.069-0.22s-0.038-0.166-0.053-0.258c-0.015-0.092-0.026-0.191-0.034-0.295
	c-0.008-0.105-0.012-0.216-0.012-0.333v-0.78v-0.78v-0.78v-0.78h0.268h0.268h0.268h0.268v0.57v0.57v0.57v0.57
	c0,0.159,0,0.306,0.001,0.439c0.001,0.133,0.002,0.253,0.004,0.357c0.002,0.105,0.005,0.195,0.01,0.269
	c0.005,0.074,0.011,0.133,0.02,0.175c0.008,0.042,0.019,0.082,0.032,0.119s0.029,0.073,0.048,0.107s0.041,0.065,0.067,0.094
	c0.026,0.029,0.055,0.057,0.088,0.082c0.025,0.025,0.052,0.046,0.082,0.063c0.029,0.017,0.061,0.031,0.094,0.041
	s0.069,0.018,0.107,0.022c0.038,0.005,0.078,0.007,0.119,0.007c0.042,0,0.084-0.004,0.126-0.013
	c0.042-0.008,0.084-0.021,0.126-0.038c0.042-0.017,0.084-0.038,0.126-0.063c0.042-0.025,0.084-0.054,0.126-0.088
	c0.042-0.034,0.08-0.069,0.113-0.106s0.063-0.076,0.088-0.116c0.025-0.04,0.046-0.081,0.063-0.122s0.029-0.083,0.038-0.125
	c0.008-0.05,0.017-0.115,0.025-0.195c0.008-0.08,0.015-0.174,0.021-0.283c0.006-0.109,0.012-0.232,0.015-0.37
	c0.004-0.138,0.006-0.291,0.006-0.459v-0.52v-0.52v-0.52v-0.52h0.268h0.268h0.268h0.268v1.241v1.241v1.241v1.241l-0.243-0.017
	l-0.243-0.017l-0.243-0.017L58.681,81.682L58.681,81.682L58.681,81.682L58.681,81.682L58.681,81.682z"/>
<path id="path14869" style="fill:#003366;" d="M62.738,80.106l0.268,0.059l0.268,0.059l0.268,0.059l0.268,0.059
	c-0.034,0.126-0.073,0.243-0.119,0.352c-0.046,0.109-0.097,0.21-0.153,0.302c-0.057,0.092-0.119,0.176-0.185,0.251
	c-0.067,0.075-0.138,0.143-0.213,0.201c-0.075,0.059-0.155,0.111-0.239,0.157s-0.172,0.084-0.264,0.116
	c-0.092,0.031-0.189,0.055-0.289,0.072s-0.205,0.025-0.314,0.025c-0.151,0-0.293-0.013-0.427-0.038
	c-0.134-0.025-0.258-0.063-0.373-0.113c-0.115-0.05-0.221-0.113-0.317-0.189c-0.096-0.075-0.182-0.163-0.257-0.264
	c-0.092-0.117-0.174-0.245-0.245-0.384c-0.071-0.139-0.13-0.289-0.179-0.45c-0.048-0.161-0.085-0.334-0.11-0.519
	c-0.025-0.185-0.037-0.382-0.037-0.591s0.013-0.407,0.037-0.592c0.025-0.185,0.061-0.359,0.11-0.523
	c0.048-0.163,0.108-0.316,0.179-0.46c0.071-0.144,0.152-0.278,0.244-0.403c0.084-0.109,0.174-0.203,0.27-0.283
	c0.096-0.08,0.198-0.146,0.305-0.199c0.107-0.052,0.219-0.091,0.336-0.117c0.117-0.026,0.238-0.038,0.364-0.038
	c0.143,0,0.279,0.013,0.408,0.038c0.129,0.026,0.252,0.064,0.367,0.117c0.115,0.052,0.223,0.118,0.323,0.199
	c0.1,0.08,0.192,0.174,0.276,0.283c0.092,0.126,0.174,0.264,0.245,0.416s0.13,0.317,0.179,0.498c0.048,0.18,0.085,0.375,0.11,0.586
	s0.037,0.437,0.037,0.68v0.034v0.034v0.034v0.034h-0.671h-0.671h-0.671h-0.671c0,0.101,0.006,0.195,0.018,0.283
	s0.03,0.17,0.053,0.245c0.023,0.075,0.051,0.145,0.084,0.207s0.071,0.119,0.113,0.17c0.042,0.05,0.086,0.096,0.132,0.137
	s0.094,0.076,0.145,0.106s0.103,0.052,0.157,0.068s0.111,0.024,0.17,0.024c0.084,0,0.161-0.015,0.232-0.045s0.135-0.075,0.191-0.136
	c0.056-0.061,0.106-0.137,0.147-0.23C62.679,80.341,62.713,80.232,62.738,80.106L62.738,80.106L62.738,80.106L62.738,80.106
	L62.738,80.106z M62.805,78.799c0-0.092-0.006-0.18-0.018-0.264c-0.012-0.083-0.028-0.162-0.049-0.235s-0.046-0.141-0.074-0.204
	c-0.028-0.062-0.06-0.119-0.093-0.17c-0.042-0.05-0.084-0.094-0.127-0.132s-0.087-0.069-0.133-0.094s-0.094-0.044-0.146-0.057
	c-0.051-0.013-0.106-0.019-0.165-0.019s-0.113,0.006-0.165,0.019c-0.051,0.013-0.1,0.031-0.146,0.057
	c-0.046,0.025-0.09,0.057-0.133,0.094c-0.043,0.038-0.085,0.082-0.127,0.132c-0.042,0.05-0.078,0.107-0.107,0.169
	c-0.03,0.062-0.054,0.131-0.073,0.204c-0.019,0.073-0.033,0.152-0.042,0.235c-0.009,0.083-0.013,0.171-0.013,0.263h0.402H62h0.402
	H62.805L62.805,78.799L62.805,78.799L62.805,78.799L62.805,78.799z"/>
<path id="path8271-4" inkscape:connector-curvature="0" inkscape:export-filename="C:\Users\Charlotte Abel\Documents\Symbology\Components\For Distribution\safety-and-security_search-and-rescue-v3-with-label.png" inkscape:export-xdpi="300.00461" inkscape:export-ydpi="300.00461" sodipodi:nodetypes="cccccccccccccccccccccsccccc" style="fill:#003366;" d="
	M44.8,53.7v-1.95V49.8v-1.95V45.9h-1.975H40.85h-1.975H36.9h-1.975H32.95h-1.975H29v-1.575V42.75v-1.575V39.6v-1.575V36.45v-1.575
	V33.3h1.95h1.95h1.95h1.95c1.075,0,2.106,0,3.048-0.002c0.942-0.002,1.795-0.005,2.514-0.011c0.719-0.006,1.303-0.015,1.708-0.029
	c0.405-0.014,0.63-0.033,0.63-0.058c0.05,0,0.094-0.356,0.131-0.992c0.038-0.636,0.069-1.552,0.094-2.671
	c0.025-1.119,0.044-2.441,0.056-3.889S45,22.625,45,21v-0.85V19.3v-0.85V17.6h1.575h1.575h1.575H51.3h1.575h1.575h1.575H57.6v1.95
	v1.95v1.95v1.95v1.95v1.95v1.95v1.95h1.975h1.975h1.975H65.5h1.975h1.975h1.975H73.4v0.95v0.95v0.95V37c0,0.525,0,1.094-0.002,1.673
	c-0.001,0.58-0.005,1.17-0.01,1.739c-0.007,0.569-0.016,1.116-0.03,1.608c-0.014,0.492-0.033,0.93-0.058,1.28v0.625v0.625v0.625
	V45.8h-1.95H69.4h-1.95H65.5c-1.075,0-2.1,0-3.034,0s-1.778,0-2.491,0s-1.294,0-1.703,0s-0.647,0-0.672,0s-0.044,0.112-0.058,0.376
	s-0.023,0.68-0.029,1.285c-0.006,0.607-0.01,1.404-0.011,2.43C57.5,50.919,57.5,52.175,57.5,53.7v1.95v1.95v1.95v1.95h-1.575H54.35
	h-1.575H51.2h-1.575H48.05h-1.575H44.9l-0.025-1.95L44.85,57.6l-0.025-1.95L44.8,53.7L44.8,53.7L44.8,53.7L44.8,53.7L44.8,53.7z"/>
<path id="path14834" style="fill:#FFFFFF;" d="M39.728,41.64l0.384-0.059l0.384-0.059l0.384-0.059l0.384-0.059
	c0.021,0.176,0.048,0.345,0.081,0.504c0.033,0.159,0.073,0.31,0.121,0.449c0.048,0.14,0.104,0.268,0.17,0.384
	c0.065,0.116,0.14,0.218,0.225,0.306c0.064,0.088,0.139,0.161,0.223,0.222c0.084,0.06,0.177,0.108,0.279,0.144
	c0.101,0.037,0.21,0.063,0.326,0.079c0.116,0.017,0.238,0.024,0.366,0.024s0.25-0.007,0.366-0.024
	c0.116-0.017,0.225-0.042,0.326-0.079s0.194-0.084,0.278-0.145c0.084-0.06,0.159-0.133,0.223-0.221
	c0.064-0.088,0.123-0.176,0.174-0.264c0.052-0.088,0.097-0.176,0.134-0.264c0.038-0.088,0.067-0.176,0.087-0.264
	s0.031-0.176,0.031-0.264c0-0.059-0.005-0.117-0.015-0.176c-0.009-0.059-0.022-0.117-0.038-0.176
	c-0.016-0.059-0.034-0.117-0.054-0.176s-0.042-0.117-0.063-0.176c-0.021-0.059-0.053-0.11-0.093-0.156
	c-0.04-0.046-0.088-0.086-0.141-0.123c-0.053-0.036-0.112-0.069-0.173-0.1c-0.061-0.031-0.125-0.06-0.189-0.09
	c-0.043-0.029-0.101-0.059-0.176-0.09c-0.075-0.031-0.165-0.064-0.272-0.101c-0.107-0.037-0.229-0.077-0.368-0.123
	c-0.139-0.046-0.293-0.097-0.464-0.155c-0.213-0.059-0.41-0.132-0.591-0.215c-0.181-0.083-0.346-0.174-0.496-0.27
	c-0.149-0.095-0.282-0.194-0.4-0.291c-0.117-0.097-0.218-0.192-0.304-0.28c-0.128-0.147-0.24-0.301-0.336-0.462
	c-0.096-0.161-0.176-0.33-0.24-0.506c-0.064-0.176-0.112-0.359-0.144-0.55c-0.032-0.191-0.048-0.389-0.048-0.594
	c0-0.147,0.005-0.286,0.017-0.42c0.012-0.134,0.031-0.262,0.058-0.386c0.026-0.125,0.061-0.246,0.105-0.365
	c0.044-0.119,0.097-0.236,0.161-0.354c0.064-0.117,0.133-0.227,0.208-0.33s0.155-0.198,0.24-0.286
	c0.085-0.088,0.176-0.169,0.272-0.242s0.197-0.139,0.304-0.198c0.107-0.059,0.218-0.11,0.336-0.154
	c0.117-0.044,0.24-0.081,0.368-0.11s0.261-0.051,0.4-0.066c0.139-0.015,0.282-0.022,0.432-0.022c0.256,0,0.49,0.022,0.706,0.064
	c0.216,0.042,0.413,0.104,0.594,0.185c0.181,0.081,0.346,0.18,0.498,0.296s0.29,0.247,0.418,0.394
	c0.128,0.147,0.24,0.308,0.336,0.484c0.096,0.176,0.176,0.367,0.24,0.572c0.064,0.205,0.112,0.425,0.144,0.66
	c0.032,0.235,0.048,0.484,0.048,0.748l-0.384-0.029l-0.384-0.029l-0.384-0.029l-0.384-0.029c-0.021-0.147-0.048-0.279-0.079-0.398
	c-0.031-0.119-0.065-0.225-0.102-0.32c-0.038-0.096-0.078-0.18-0.119-0.255c-0.041-0.075-0.084-0.141-0.127-0.2
	c-0.064-0.059-0.133-0.11-0.208-0.154c-0.075-0.044-0.155-0.081-0.24-0.11c-0.085-0.029-0.176-0.051-0.272-0.066
	c-0.096-0.015-0.197-0.022-0.304-0.022s-0.213,0.007-0.317,0.022c-0.104,0.015-0.205,0.037-0.301,0.066
	c-0.096,0.029-0.186,0.066-0.269,0.11c-0.083,0.044-0.157,0.095-0.221,0.154c-0.043,0.029-0.08,0.066-0.112,0.11
	c-0.032,0.044-0.059,0.095-0.08,0.154c-0.021,0.059-0.037,0.125-0.048,0.198c-0.011,0.073-0.016,0.154-0.016,0.242
	c0,0.059,0.005,0.117,0.016,0.176c0.011,0.059,0.027,0.117,0.048,0.176s0.048,0.117,0.08,0.176c0.032,0.059,0.069,0.117,0.112,0.176
	c0.043,0.059,0.107,0.117,0.191,0.176c0.084,0.059,0.188,0.117,0.311,0.176c0.122,0.059,0.263,0.117,0.422,0.176
	s0.334,0.117,0.526,0.176s0.373,0.117,0.542,0.178c0.169,0.06,0.327,0.123,0.471,0.188c0.144,0.066,0.274,0.136,0.39,0.211
	c0.116,0.075,0.217,0.156,0.302,0.244c0.085,0.059,0.171,0.125,0.253,0.198s0.163,0.154,0.237,0.242
	c0.075,0.088,0.144,0.183,0.205,0.286s0.115,0.213,0.157,0.33c0.043,0.117,0.085,0.242,0.125,0.374
	c0.04,0.132,0.077,0.271,0.109,0.418c0.032,0.147,0.059,0.301,0.077,0.462s0.029,0.33,0.029,0.506c0,0.147-0.005,0.293-0.017,0.44
	s-0.03,0.293-0.057,0.44c-0.026,0.147-0.061,0.293-0.105,0.44c-0.044,0.147-0.098,0.293-0.162,0.44
	c-0.064,0.147-0.133,0.279-0.209,0.398c-0.076,0.119-0.158,0.225-0.249,0.32c-0.091,0.096-0.189,0.18-0.297,0.255
	c-0.108,0.075-0.225,0.141-0.353,0.2c-0.107,0.059-0.224,0.11-0.35,0.154c-0.127,0.044-0.263,0.081-0.407,0.11
	c-0.144,0.029-0.295,0.051-0.454,0.066c-0.158,0.015-0.324,0.022-0.494,0.022c-0.256,0-0.496-0.022-0.719-0.064
	c-0.224-0.042-0.432-0.105-0.623-0.186c-0.192-0.08-0.368-0.179-0.528-0.295s-0.304-0.247-0.432-0.394
	c-0.149-0.147-0.277-0.315-0.388-0.506c-0.111-0.191-0.204-0.403-0.283-0.638s-0.146-0.491-0.204-0.77
	C39.819,42.263,39.771,41.963,39.728,41.64z"/>
<path id="path14836" style="fill:#FFFFFF;" d="M54.733,45.277h-0.426H53.88h-0.426h-0.426l-0.171-0.616l-0.171-0.616l-0.171-0.616
	l-0.171-0.616h-0.789h-0.789H49.98h-0.789l-0.171,0.616l-0.171,0.616l-0.171,0.616l-0.171,0.616h-0.426h-0.426h-0.426h-0.426
	l0.767-2.727l0.767-2.727l0.767-2.727l0.767-2.727H50.3h0.426h0.426h0.426l0.789,2.727l0.789,2.727l0.789,2.727L54.733,45.277
	L54.733,45.277L54.733,45.277L54.733,45.277L54.733,45.277z M51.749,40.937l-0.277-1.026l-0.277-1.026l-0.277-1.026l-0.277-1.026
	l-0.277,1.026l-0.277,1.026L49.81,39.91l-0.277,1.026h0.554h0.554h0.554H51.749z"/>
<path id="path14838" style="fill:#FFFFFF;" d="M55.586,45.277v-2.727v-2.727v-2.727v-2.727h0.853h0.853h0.853h0.853
	c0.213,0,0.41,0.007,0.593,0.022c0.182,0.015,0.35,0.037,0.504,0.066c0.155,0.029,0.296,0.066,0.425,0.11
	c0.129,0.044,0.246,0.095,0.353,0.154s0.202,0.125,0.29,0.198c0.088,0.073,0.168,0.154,0.242,0.242
	c0.075,0.088,0.144,0.183,0.21,0.286s0.131,0.213,0.194,0.33c0.064,0.117,0.117,0.242,0.161,0.374
	c0.044,0.132,0.078,0.271,0.105,0.418c0.026,0.147,0.045,0.301,0.057,0.462c0.012,0.161,0.018,0.33,0.018,0.506
	c0,0.205-0.011,0.403-0.032,0.592c-0.021,0.189-0.053,0.369-0.096,0.538c-0.043,0.168-0.096,0.326-0.16,0.471
	c-0.064,0.145-0.139,0.277-0.224,0.394c-0.085,0.147-0.181,0.271-0.288,0.379s-0.224,0.2-0.352,0.28
	c-0.128,0.081-0.266,0.151-0.416,0.215c-0.149,0.064-0.309,0.123-0.48,0.182c0.085,0.059,0.165,0.125,0.241,0.196
	c0.076,0.071,0.148,0.148,0.217,0.229s0.136,0.165,0.201,0.251c0.065,0.086,0.13,0.175,0.194,0.263
	c0.064,0.088,0.128,0.191,0.194,0.308c0.067,0.117,0.136,0.249,0.21,0.396c0.075,0.147,0.155,0.308,0.242,0.484
	s0.184,0.367,0.29,0.572l0.234,0.528l0.234,0.528l0.234,0.528l0.234,0.528h-0.469h-0.469h-0.469h-0.469l-0.298-0.586l-0.298-0.586
	l-0.298-0.586l-0.298-0.586c-0.107-0.205-0.202-0.396-0.289-0.57c-0.087-0.174-0.164-0.332-0.233-0.472
	c-0.069-0.139-0.13-0.26-0.185-0.361c-0.055-0.101-0.103-0.181-0.145-0.24c-0.043-0.059-0.085-0.11-0.128-0.156
	c-0.043-0.046-0.085-0.086-0.128-0.123c-0.043-0.036-0.085-0.069-0.128-0.1c-0.043-0.031-0.085-0.06-0.128-0.09
	s-0.091-0.051-0.144-0.068c-0.053-0.017-0.112-0.028-0.176-0.035c-0.064-0.007-0.133-0.011-0.208-0.012
	c-0.075-0.002-0.155-0.002-0.24-0.002h-0.085h-0.085h-0.085h-0.085v1.144v1.144v1.144v1.144h-0.426h-0.426h-0.426h-0.426v-0.029
	v-0.029c0,0,0-0.015,0-0.029C55.586,45.291,55.586,45.277,55.586,45.277z M57.205,38.943h0.298h0.298h0.298h0.298
	c0.192,0,0.368,0,0.526-0.002c0.158-0.002,0.3-0.006,0.422-0.013c0.123-0.007,0.227-0.018,0.311-0.034
	c0.084-0.016,0.148-0.038,0.191-0.068c0.043-0.029,0.085-0.059,0.126-0.09c0.041-0.031,0.081-0.064,0.118-0.101
	c0.037-0.037,0.072-0.077,0.103-0.123c0.031-0.046,0.058-0.097,0.079-0.155s0.043-0.117,0.063-0.178s0.038-0.123,0.054-0.189
	c0.016-0.066,0.03-0.135,0.039-0.21c0.009-0.075,0.015-0.156,0.015-0.244s-0.005-0.176-0.016-0.262
	c-0.011-0.086-0.027-0.17-0.048-0.251c-0.021-0.081-0.048-0.158-0.08-0.23s-0.069-0.138-0.112-0.196s-0.085-0.11-0.129-0.156
	c-0.044-0.046-0.089-0.086-0.137-0.122c-0.048-0.037-0.099-0.07-0.154-0.101s-0.113-0.061-0.177-0.09c-0.043,0-0.096,0-0.163,0
	s-0.147,0-0.242,0s-0.208,0-0.338,0s-0.28,0-0.45,0h-0.32h-0.32h-0.32h-0.32v0.704v0.704v0.704v0.704h0.021h0.021h0.021H57.205z"/>
</svg>
