<?xml version="1.0" encoding="iso-8859-1"?>
<!-- Generator: Adobe Illustrator 25.4.1, SVG Export Plug-In . SVG Version: 6.00 Build 0)  -->
<svg version="1.1"
	 id="svg8" xmlns:cc="http://creativecommons.org/ns#" xmlns:dc="http://purl.org/dc/elements/1.1/" xmlns:inkscape="http://www.inkscape.org/namespaces/inkscape" xmlns:rdf="http://www.w3.org/1999/02/22-rdf-syntax-ns#" xmlns:sodipodi="http://sodipodi.sourceforge.net/DTD/sodipodi-0.dtd" xmlns:svg="http://www.w3.org/2000/svg"
	 xmlns="http://www.w3.org/2000/svg" xmlns:xlink="http://www.w3.org/1999/xlink" x="0px" y="0px" viewBox="0 0 100 100"
	 style="enable-background:new 0 0 100 100;" xml:space="preserve">
<sodipodi:namedview  bordercolor="#666666" borderopacity="1.0" id="base" inkscape:current-layer="layer3" inkscape:cx="-302.11164" inkscape:cy="84.283015" inkscape:document-units="px" inkscape:guide-bbox="true" inkscape:lockguides="true" inkscape:pageopacity="0.0" inkscape:pageshadow="2" inkscape:window-height="657" inkscape:window-maximized="1" inkscape:window-width="1280" inkscape:window-x="-8" inkscape:window-y="-8" inkscape:zoom="0.765625" pagecolor="#ffffff" showgrid="false" showguides="false" units="px">
	<sodipodi:guide  id="guide5700" inkscape:locked="true" orientation="0,1" position="-0.93017576,23.874511"></sodipodi:guide>
	<sodipodi:guide  id="guide5726" inkscape:locked="true" orientation="0,1" position="-26.098869,26.473047"></sodipodi:guide>
	<sodipodi:guide  id="guide5880" inkscape:locked="true" orientation="0,1" position="104.51042,-2.9104167"></sodipodi:guide>
	<sodipodi:guide  id="guide6001" inkscape:locked="true" orientation="0,1" position="-71.093695,29.279377"></sodipodi:guide>
	<sodipodi:guide  id="guide6005" inkscape:locked="true" orientation="0,1" position="-46.304445,58.278122"></sodipodi:guide>
	<sodipodi:guide  id="guide6736" inkscape:locked="true" orientation="0,1" position="-0.10335287,20.205485"></sodipodi:guide>
	<sodipodi:guide  id="guide6738" inkscape:locked="true" orientation="0,1" position="-0.43848907,22.874513"></sodipodi:guide>
	<inkscape:grid  id="grid2386" type="xygrid"></inkscape:grid>
</sodipodi:namedview>
<g id="g1180" transform="translate(0,-229.2666)" inkscape:groupmode="layer" inkscape:label="halo:always" style="display:none;">
	<g id="g1210" inkscape:groupmode="layer" inkscape:label="-gray-halo:iter3" style="display:inline;">
		<g id="circle1208">
			<path style="fill:#919395;" d="M50,329.3c-27.6,0-50-22.4-50-50s22.4-50,50-50s50,22.4,50,50S77.6,329.3,50,329.3z M50,237.9
				c-22.8,0-41.4,18.6-41.4,41.4s18.6,41.4,41.4,41.4s41.4-18.6,41.4-41.4S72.8,237.9,50,237.9z"/>
		</g>
	</g>
	<g id="g1206" inkscape:groupmode="layer" inkscape:label="-red-halo:iter3" style="display:inline;">
		<g id="circle1204">
			<path style="fill:#C52038;" d="M50,329.3c-27.6,0-50-22.4-50-50s22.4-50,50-50s50,22.4,50,50S77.6,329.3,50,329.3z M50,237.9
				c-22.8,0-41.4,18.6-41.4,41.4s18.6,41.4,41.4,41.4s41.4-18.6,41.4-41.4S72.8,237.9,50,237.9z"/>
		</g>
	</g>
	<g id="g1202" inkscape:groupmode="layer" inkscape:label="-green-halo:iter3" style="display:inline;">
		<g id="circle1200">
			<path style="fill:#5E9C42;" d="M50,329.3c-27.6,0-50-22.4-50-50s22.4-50,50-50s50,22.4,50,50S77.6,329.3,50,329.3z M50,237.9
				c-22.8,0-41.4,18.6-41.4,41.4s18.6,41.4,41.4,41.4s41.4-18.6,41.4-41.4S72.8,237.9,50,237.9z"/>
		</g>
	</g>
	<g id="layer18" inkscape:groupmode="layer" inkscape:label="-yellow-halo:iter3" style="display:inline;">
		<g id="circle1178-4">
			<path style="fill:#FBBA16;" d="M50,329.3c-27.6,0-50-22.4-50-50s22.4-50,50-50s50,22.4,50,50S77.6,329.3,50,329.3z M50,237.9
				c-22.8,0-41.4,18.6-41.4,41.4s18.6,41.4,41.4,41.4s41.4-18.6,41.4-41.4S72.8,237.9,50,237.9z"/>
		</g>
	</g>
</g>
<path id="path8393" inkscape:connector-curvature="0" inkscape:export-filename="C:\Users\Charlotte Abel\Documents\Symbology\Components\safety-and-security_law-enforcement-security-3.png" inkscape:export-xdpi="300.00458" inkscape:export-ydpi="300.00458" style="fill:#003366;" d="
	M30.003,23.66l-0.911,0.683l-0.911,0.683L27.27,25.71l-0.911,0.683c-0.497,0.373-0.999,0.745-1.479,1.1
	c-0.48,0.354-0.938,0.691-1.347,0.991c-0.409,0.3-0.768,0.564-1.051,0.774s-0.49,0.365-0.594,0.448l-0.207,0.145l-0.207,0.145
	l-0.207,0.145l-0.207,0.145l0.455,0.58l0.455,0.58l0.455,0.58l0.455,0.58c0.6,0.807,1.03,1.48,1.343,2.07
	c0.313,0.59,0.51,1.097,0.644,1.573s0.207,0.921,0.272,1.387c0.065,0.466,0.122,0.952,0.225,1.511c0,0.6,0.016,1.009,0.008,1.38
	c-0.008,0.371-0.039,0.705-0.132,1.156c-0.093,0.45-0.248,1.017-0.505,1.854s-0.613,1.944-1.11,3.476
	c-0.559,1.325-1.009,2.525-1.373,3.624c-0.364,1.098-0.641,2.095-0.853,3.011c-0.212,0.916-0.359,1.751-0.464,2.529
	c-0.105,0.777-0.167,1.497-0.208,2.18c-0.145,2.111,0.119,4.119,0.758,5.984c0.639,1.864,1.653,3.585,3.009,5.122
	c1.356,1.537,3.053,2.89,5.058,4.02s4.318,2.035,6.906,2.676c0.29,0.062,0.657,0.145,1.075,0.239c0.418,0.094,0.886,0.2,1.378,0.309
	c0.491,0.109,1.006,0.22,1.517,0.325c0.511,0.105,1.018,0.203,1.494,0.286c1.056,0.207,1.93,0.388,2.675,0.56
	c0.745,0.172,1.361,0.335,1.899,0.505c0.538,0.171,0.999,0.35,1.433,0.553c0.435,0.203,0.844,0.431,1.278,0.7
	c0.083,0.041,0.16,0.083,0.234,0.124c0.074,0.041,0.144,0.083,0.211,0.124c0.067,0.041,0.132,0.083,0.195,0.124
	c0.063,0.041,0.125,0.083,0.188,0.124c0.062-0.041,0.124-0.083,0.188-0.124c0.063-0.041,0.128-0.083,0.196-0.124
	c0.067-0.041,0.137-0.083,0.211-0.124c0.074-0.041,0.151-0.083,0.234-0.124c0.435-0.269,0.838-0.497,1.267-0.7
	c0.428-0.203,0.881-0.382,1.414-0.553c0.533-0.171,1.146-0.333,1.895-0.505c0.749-0.172,1.634-0.353,2.71-0.56
	c0.476-0.083,0.988-0.181,1.506-0.286c0.517-0.105,1.04-0.216,1.537-0.325c0.497-0.108,0.968-0.214,1.382-0.309
	c0.414-0.094,0.771-0.177,1.04-0.239c2.587-0.642,4.895-1.542,6.894-2.665c1.999-1.123,3.689-2.468,5.039-4
	c1.35-1.532,2.362-3.25,3.005-5.118c0.643-1.868,0.918-3.886,0.793-6.018c-0.041-0.683-0.104-1.402-0.208-2.18
	c-0.105-0.778-0.252-1.613-0.464-2.53c-0.212-0.916-0.489-1.912-0.853-3.01c-0.364-1.098-0.815-2.299-1.373-3.623
	c-0.497-1.532-0.854-2.639-1.11-3.476s-0.411-1.404-0.505-1.854c-0.093-0.45-0.124-0.784-0.132-1.155
	c-0.008-0.371,0.008-0.78,0.008-1.381c0.104-0.559,0.16-1.05,0.225-1.523c0.065-0.472,0.137-0.925,0.272-1.406
	c0.135-0.481,0.331-0.991,0.644-1.577c0.313-0.586,0.743-1.248,1.343-2.035l0.455-0.58l0.455-0.58l0.455-0.58l0.455-0.58
	l-0.207-0.145l-0.207-0.145l-0.207-0.145l-0.207-0.145c-0.103-0.083-0.305-0.238-0.582-0.448s-0.629-0.474-1.032-0.774
	c-0.404-0.3-0.859-0.636-1.343-0.99c-0.484-0.354-0.996-0.727-1.514-1.1l-0.911-0.683l-0.911-0.683l-0.911-0.683l-0.911-0.683
	l-0.29,0.166l-0.29,0.166l-0.29,0.166l-0.29,0.166c-0.704,0.435-1.49,0.844-2.313,1.212c-0.823,0.369-1.682,0.697-2.531,0.972
	c-0.849,0.274-1.687,0.494-2.468,0.645s-1.506,0.234-2.127,0.234c-0.6,0-1.294-0.078-2.031-0.216
	c-0.737-0.138-1.519-0.338-2.295-0.581c-0.776-0.243-1.547-0.53-2.264-0.844c-0.717-0.314-1.379-0.656-1.938-1.008
	c-0.103-0.062-0.191-0.114-0.27-0.156s-0.149-0.076-0.216-0.102c-0.067-0.026-0.132-0.044-0.201-0.056
	c-0.069-0.012-0.141-0.017-0.224-0.017c-0.083,0-0.16,0.005-0.235,0.017c-0.075,0.012-0.147,0.03-0.22,0.055
	c-0.072,0.026-0.145,0.059-0.22,0.102c-0.075,0.043-0.153,0.095-0.235,0.157c-0.538,0.352-1.19,0.693-1.903,1.008
	c-0.713,0.314-1.487,0.602-2.268,0.845c-0.781,0.243-1.57,0.442-2.314,0.581c-0.744,0.138-1.442,0.216-2.043,0.216
	c-0.642,0-1.377-0.083-2.162-0.234c-0.785-0.151-1.621-0.371-2.465-0.645c-0.843-0.274-1.694-0.603-2.511-0.972
	c-0.816-0.369-1.598-0.778-2.301-1.212l-0.29-0.166l-0.29-0.166l-0.29-0.166L30.003,23.66z"/>
<path id="path8395" inkscape:connector-curvature="0" inkscape:export-filename="C:\Users\Charlotte Abel\Documents\Symbology\Components\safety-and-security_law-enforcement-security-3.png" inkscape:export-xdpi="300.00458" inkscape:export-ydpi="300.00458" style="fill:#FFFFFF;" d="
	M50.04,34.093l-1.47,2.919l-1.47,2.919l-1.47,2.919l-1.47,2.919l-3.291,0.476l-3.291,0.476l-3.291,0.476l-3.291,0.476l2.38,2.277
	l2.38,2.277l2.38,2.277l2.38,2.277l-0.559,3.208L39.4,63.197l-0.559,3.208l-0.559,3.208l2.939-1.511l2.939-1.511l2.939-1.511
	l2.939-1.511l2.919,1.511l2.919,1.511l2.919,1.511l2.919,1.511l-0.559-3.208l-0.559-3.208l-0.559-3.208l-0.559-3.208l2.38-2.277
	l2.38-2.277l2.38-2.277l2.38-2.277l-3.271-0.476L62.46,46.72l-3.271-0.476l-3.271-0.476l-1.47-2.919l-1.47-2.919l-1.47-2.919
	L50.04,34.093z"/>
</svg>
