<?xml version="1.0" encoding="utf-8"?>
<!-- Generator: Adobe Illustrator 25.2.0, SVG Export Plug-In . SVG Version: 6.00 Build 0)  -->
<svg version="1.1" id="Layer_1" xmlns="http://www.w3.org/2000/svg" xmlns:xlink="http://www.w3.org/1999/xlink" x="0px" y="0px"
	 viewBox="0 0 100 100" style="enable-background:new 0 0 100 100;" xml:space="preserve">
<g>
	<path d="M36.7,42.3l8.6-12.7c0,0,6.7-7.5,15,0c0,0,4,3.7,6.2,9.8c0,0-4.8-4.4-10.6,0.1S46.6,62,59.7,67.7c0,0,3.5,2.2,7.1-1.5
		c3.5-3.7,7.3-0.4,7.3-0.4s-6.8,3.7-2,8.1c0,0,2.1,0.8,4-2c1.9-2.8,5.4-2.8,5.4-2.8s-1.9,2.3-1.9,3.5s1,3.8,3.1,3.7s5.9-4.5,5.9-4.5
		v6.4H36.3L36.7,42.3z"/>
	<polygon points="14,78.1 14,65.5 27.9,65.5 27.9,63.6 14,63.6 14,51.5 33,51.5 33,49.6 14,49.6 14,37.5 27.5,37.5 27.5,36 14,36 
		14,22.3 32.5,22.3 32.5,20.5 14,20.5 11.4,20.5 11.4,22.3 11.4,78.1 11.4,79.5 14,79.5 33,79.5 33,78.1 	"/>
</g>
</svg>
