<?xml version="1.0" encoding="utf-8"?>
<!-- Generator: Adobe Illustrator 25.2.0, SVG Export Plug-In . SVG Version: 6.00 Build 0)  -->
<svg version="1.1" id="Layer_1" xmlns="http://www.w3.org/2000/svg" xmlns:xlink="http://www.w3.org/1999/xlink" x="0px" y="0px"
	 viewBox="0 0 100 100" style="enable-background:new 0 0 100 100;" xml:space="preserve">
<g>
	<polygon points="15.8,78.1 15.8,65.5 29.8,65.5 29.8,63.6 15.8,63.6 15.8,51.5 34.9,51.5 34.9,49.6 15.8,49.6 15.8,37.5 29.3,37.5 
		29.3,36 15.8,36 15.8,22.3 34.3,22.3 34.3,20.5 15.8,20.5 13.2,20.5 13.2,22.3 13.2,78.1 13.2,79.5 15.8,79.5 34.9,79.5 34.9,78.1 
			"/>
	<path d="M86.8,35.6l-5.4-6.7c-0.4-0.5-1.1-0.5-1.5,0l-4.6,6.3c-0.4,0.5-1.1,0.5-1.5,0l-4.6-6.3c-0.4-0.5-1.1-0.5-1.5,0l-4.6,6.3
		c-0.4,0.5-1.1,0.5-1.5,0l-4.6-6.3c-0.4-0.5-1.1-0.5-1.5,0l-4.6,6.3c-0.4,0.5-1.1,0.5-1.5,0L45,28.9c-0.4-0.5-1.1-0.5-1.5,0
		l-4.2,5.9v6.5l4.2-5.9c0.4-0.5,1.1-0.5,1.5,0l4.6,6.3c0.4,0.5,1.1,0.5,1.5,0l4.6-6.3c0.4-0.5,1.1-0.5,1.5,0l4.6,6.3
		c0.4,0.5,1.1,0.5,1.5,0l4.6-6.3c0.4-0.5,1.1-0.5,1.5,0l4.6,6.3c0.4,0.5,1.1,0.5,1.5,0l4.6-6.3c0.4-0.5,1.1-0.5,1.5,0l5.2,6
		c0.1,0.1,0.1,0.1,0.2,0.2V35.6z"/>
	<path d="M86.8,51.4l-5.4-6.7c-0.4-0.5-1.1-0.5-1.5,0L75.3,51c-0.4,0.5-1.1,0.5-1.5,0l-4.6-6.3c-0.4-0.5-1.1-0.5-1.5,0L63.2,51
		c-0.4,0.5-1.1,0.5-1.5,0l-4.6-6.3c-0.4-0.5-1.1-0.5-1.5,0L51.1,51c-0.4,0.5-1.1,0.5-1.5,0L45,44.7c-0.4-0.5-1.1-0.5-1.5,0l-4.2,5.9
		v6.5l4.2-5.9c0.4-0.5,1.1-0.5,1.5,0l4.6,6.3c0.4,0.5,1.1,0.5,1.5,0l4.6-6.3c0.4-0.5,1.1-0.5,1.5,0l4.6,6.3c0.4,0.5,1.1,0.5,1.5,0
		l4.6-6.3c0.4-0.5,1.1-0.5,1.5,0l4.6,6.3c0.4,0.5,1.1,0.5,1.5,0l4.6-6.3c0.4-0.5,1.1-0.5,1.5,0l5.2,6c0.1,0.1,0.1,0.1,0.2,0.2V51.4z
		"/>
	<path d="M86.8,67.2l-5.4-6.7c-0.4-0.5-1.1-0.5-1.5,0l-4.6,6.3c-0.4,0.5-1.1,0.5-1.5,0l-4.6-6.3c-0.4-0.5-1.1-0.5-1.5,0l-4.6,6.3
		c-0.4,0.5-1.1,0.5-1.5,0l-4.6-6.3c-0.4-0.5-1.1-0.5-1.5,0l-4.6,6.3c-0.4,0.5-1.1,0.5-1.5,0L45,60.5c-0.4-0.5-1.1-0.5-1.5,0
		l-4.2,5.9V73l4.2-5.9c0.4-0.5,1.1-0.5,1.5,0l4.6,6.3c0.4,0.5,1.1,0.5,1.5,0l4.6-6.3c0.4-0.5,1.1-0.5,1.5,0l4.6,6.3
		c0.4,0.5,1.1,0.5,1.5,0l4.6-6.3c0.4-0.5,1.1-0.5,1.5,0l4.6,6.3c0.4,0.5,1.1,0.5,1.5,0l4.6-6.3c0.4-0.5,1.1-0.5,1.5,0l5.2,6
		c0.1,0.1,0.1,0.1,0.2,0.2V67.2z"/>
</g>
</svg>
