<?xml version="1.0" encoding="utf-8"?>
<!-- Generator: Adobe Illustrator 25.2.0, SVG Export Plug-In . SVG Version: 6.00 Build 0)  -->
<svg version="1.1" id="Layer_1" xmlns="http://www.w3.org/2000/svg" xmlns:xlink="http://www.w3.org/1999/xlink" x="0px" y="0px"
	 viewBox="0 0 100 100" style="enable-background:new 0 0 100 100;" xml:space="preserve">
<path d="M77.8,47.1C72,47.2,63,47,63,47l-5.3-7.8l0,0H61v-2.5h-5.2l-3-4.1c0,0-0.4-1.1,0.3-1.6h1.6v-2.5h-4.9l-8.3-11.3h-4.4
	l11,24.6c0,0,1.5,4-1,4.7L26,47.9l-9-9.7l-1.7,0.1c0,0,3.5,7,4.1,9.6L16,50l3.4,2.1c-0.6,2.6-4.1,9.6-4.1,9.6l1.7,0.1l9-9.7
	l21.1,1.4c2.5,0.7,1,4.7,1,4.7l-11,24.6h4.4l8.3-11.3h4.9v-2.5h-1.6c-0.7-0.5-0.3-1.6-0.3-1.6l3-4.1H61v-2.5h-3.3l0,0L63,53
	c0,0,9-0.2,14.8-0.1s6.9-2.9,6.9-2.9S83.7,47.1,77.8,47.1z"/>
</svg>
