<?xml version="1.0" encoding="utf-8"?>
<!-- Generator: Adobe Illustrator 25.2.0, SVG Export Plug-In . SVG Version: 6.00 Build 0)  -->
<svg version="1.1" id="Layer_1" xmlns="http://www.w3.org/2000/svg" xmlns:xlink="http://www.w3.org/1999/xlink" x="0px" y="0px"
	 viewBox="0 0 100 100" style="enable-background:new 0 0 100 100;" xml:space="preserve">
<path d="M69.2,62.5c-1,1.9-1.9,3.5-2.8,5.2c-0.8,1.5-1.8,1.7-3.2,0.8c-3.5-2.2-7.1-4.3-10.9-6.6c-1.2,2.3-2.4,4.7-5.2,5
	c-1.4,0.2-3,0.1-4.2-0.5c-2.9-1.4-3.2-5.5-0.9-10.8c-2.8-1.7-5.7-3.5-8.6-5.2c-4.5-2.7-4.5-2.3-1.8-7.1c0.5-0.9,0.9-1.7,1.5-2.8
	c-4.3-0.6-8.3-1.2-12.4-1.8c-2.5-0.4-5-0.7-7.5-1.1c-2-0.3-2.5-1.3-1.6-3.1c1-1.9,2.1-3.9,3.2-5.7c2-3.4,5.3-4.8,9-5.2
	c13-1.4,26-2.7,39-4c3.1-0.3,5.7,0.8,7.4,3.4c1.3,2.1,2.4,4.4,3.4,6.7c4.5,10.3,8.7,20.8,13.4,31c3.3,7,1.4,12.8-2.5,18.6
	c-0.9,1.3-2,1.1-3.2-0.5c-3.6-4.9-7.2-9.7-10.7-14.6C70.2,63.8,69.8,63.3,69.2,62.5z M64,65.2c0.9-1.6,1.8-3.1,2.4-4.6
	c0.2-0.6,0.2-1.6-0.2-2.1c-3.3-4.6-6.7-9.3-10.1-13.8c-0.4-0.6-1.3-1.1-2.1-1.2c-3.9-0.6-7.9-1.1-11.8-1.7c-5.9-0.9-5.9-0.9-8.5,4.4
	c-0.1,0.1,0,0.2-0.1,0.5c3.3,2,6.6,4,9.9,6c3.5-5.3,5.9-6.6,9.1-4.7c1.1,0.6,2.1,1.7,2.6,2.8c1.3,2.9,0.1,5.5-1.4,8.2
	C57.3,61.1,60.6,63.1,64,65.2z"/>
</svg>
