<?xml version="1.0" encoding="utf-8"?>
<!-- Generator: Adobe Illustrator 25.2.0, SVG Export Plug-In . SVG Version: 6.00 Build 0)  -->
<svg version="1.1" id="Layer_1" xmlns="http://www.w3.org/2000/svg" xmlns:xlink="http://www.w3.org/1999/xlink" x="0px" y="0px"
	 viewBox="0 0 100 100" style="enable-background:new 0 0 100 100;" xml:space="preserve">
<path d="M57.7,70.6h-9.1v-3.8h-3v3.8H31.4v-3.8h-3v3.8h-8.3l-1.8-1.8c-0.6-0.6-1.5-0.6-2.1,0s-0.6,1.5,0,2.1l2.7,2.7h38.8
	c0.8,0,1.5-0.7,1.5-1.5S58.5,70.6,57.7,70.6z"/>
<ellipse cx="82.3" cy="51.6" rx="1.8" ry="2.2"/>
<path d="M86.9,45.1l4.7-8.4h-9.2l-7.5,10.4H63.6L55,37.6v-3.3H38.6c0,0-5.5,6.3-6.2,7c-0.8,0.8-4.7,1.6-6.7,1.8S20.3,48,20.3,48h6.4
	l0,1.3h0.9v5.8h-0.8l0,0.8c0,0-11.6,0-13.6,0s-3.8,1.2-4,3.8c-0.1,2.6,2.3,4.5,2.3,4.5h41.4l15.6-10.7H74l5.1,6.4h6l7.4-8.7
	L86.9,45.1z M82.3,56.8c-2.5,0-4.5-2.3-4.5-5.2s2-5.2,4.5-5.2c2.5,0,4.5,2.3,4.5,5.2S84.8,56.8,82.3,56.8z"/>
<path d="M84,28H51.5c-0.8-1-2-1.6-3.3-1.6H45c-1.3,0-2.5,0.6-3.3,1.6H9.1c-0.9,0-1.5,0.7-1.5,1.5c0,0.9,0.7,1.5,1.5,1.5h31.6v1.5
	h11.8V31H84c0.9,0,1.5-0.7,1.5-1.5C85.5,28.6,84.8,28,84,28z"/>
</svg>
