<?xml version="1.0" encoding="utf-8"?>
<!-- Generator: Adobe Illustrator 25.2.0, SVG Export Plug-In . SVG Version: 6.00 Build 0)  -->
<svg version="1.1" id="Layer_1" xmlns="http://www.w3.org/2000/svg" xmlns:xlink="http://www.w3.org/1999/xlink" x="0px" y="0px"
	 viewBox="0 0 100 100" style="enable-background:new 0 0 100 100;" xml:space="preserve">
<path style="fill:#4D4D4D;" d="M75.6,63.3c0,0-29.3-0.1-36.3,0s-7.7,2.8-7.7,2.8s0.8,2.7,7.7,2.8s36.3,0,36.3,0s5.1,0,5-2.8
	C80.7,63.3,75.6,63.3,75.6,63.3z"/>
<path style="fill:#4D4D4D;" d="M75.6,31.9c0,0-29.3-0.1-36.3,0s-7.7,2.8-7.7,2.8s0.8,2.7,7.7,2.8s36.3,0,36.3,0s5.1,0,5-2.8
	C80.7,31.9,75.6,31.9,75.6,31.9z"/>
<g>
	<path d="M62.7,82.2c-1.6,0-3.5-0.8-3.9-2.9c-0.3-2-1.4-22.2-1.5-24.7l-27.4-1.4c-1.6,6.3-6.7,8.2-6.7,8.2l-0.3,0.1v-9.6l-3.6-1.3
		v-1.2l3.6-1.3v-9.6l0.3,0.1c0.1,0,5.1,1.9,6.7,8.2l27.4-1.4c0.1-2.5,1.2-22.7,1.5-24.7c0.3-2.1,2.3-2.9,3.9-2.9
		c1.5,0,3.1,0.4,3.8,5.6c0.6,4.7,2.1,20.2,2.3,22.2c0.9,0,4.4,0.2,7.4,1.6V44h1.4v4c0.9,0.5,1.5,1.2,2.1,1.9l0.1,0.1l-0.1,0.1
		c-0.5,0.7-1.2,1.3-2.1,1.9v4h-1.4v-3.3c-3,1.4-6.5,1.6-7.4,1.6c-0.2,2-1.7,17.5-2.3,22.2C65.8,81.7,64.1,82.2,62.7,82.2z"/>
	<path style="fill:#FFFFFF;" d="M62.7,18.1c1.3,0,2.9,0.3,3.5,5.4s2.3,22.4,2.3,22.4s4.4,0.1,7.9,1.8v-3.4h0.9v3.9
		c0.8,0.5,1.6,1.1,2.1,1.9c-0.6,0.8-1.3,1.4-2.1,1.9v3.9h-0.9v-3.4c-3.5,1.7-7.9,1.8-7.9,1.8s-1.7,17.3-2.3,22.4
		c-0.6,5.1-2.2,5.4-3.5,5.4s-3.3-0.6-3.6-2.7c-0.3-2.1-1.5-24.9-1.5-24.9l-27.9-1.4c-1.5,6.4-6.6,8.3-6.6,8.3v-9.4l-3.6-1.3V50v-0.4
		l3.6-1.3v-9.4c0,0,5.1,1.9,6.6,8.3l27.9-1.4c0,0,1.2-22.8,1.5-24.9C59.4,18.7,61.3,18.1,62.7,18.1 M62.7,17.6
		c-1.7,0-3.8,0.8-4.1,3.1c-0.3,1.9-1.3,21.2-1.5,24.5l-27,1.4c-1.7-6.3-6.6-8.1-6.8-8.2l-0.7-0.2v0.7v9l-3.3,1.2l-0.3,0.1v0.3V50
		v0.4v0.3l0.3,0.1l3.3,1.2v9v0.7l0.7-0.2c0.2-0.1,5.1-1.9,6.8-8.2l27,1.4c0.2,3.3,1.2,22.5,1.5,24.5c0.3,2.3,2.4,3.1,4.1,3.1
		c2,0,3.4-1,4-5.8c0.6-4.6,2-19.2,2.2-22c1.1-0.1,4.2-0.3,7-1.5v2.6v0.5h0.5h0.9h0.5v-0.5v-3.6c0.8-0.5,1.5-1.2,2-1.9L80,50
		l-0.2-0.3c-0.5-0.7-1.2-1.3-2-1.9v-3.6v-0.5h-0.5h-0.9h-0.5v0.5v2.6c-2.8-1.2-5.8-1.4-7-1.5c-0.3-2.7-1.7-17.4-2.2-22
		C66.1,18.6,64.6,17.6,62.7,17.6L62.7,17.6z"/>
</g>
</svg>
