<?xml version="1.0" encoding="iso-8859-1"?>
<!-- Generator: Adobe Illustrator 25.4.1, SVG Export Plug-In . SVG Version: 6.00 Build 0)  -->
<svg version="1.1" id="Layer_1" xmlns="http://www.w3.org/2000/svg" xmlns:xlink="http://www.w3.org/1999/xlink" x="0px" y="0px"
	 viewBox="0 0 100 100" style="enable-background:new 0 0 100 100;" xml:space="preserve">
<path d="M50.9,14.1c0,0,0.394,2.031,1.308,5.25c0.914,3.219,2.348,7.625,4.429,12.375s4.809,9.844,8.311,14.437
	C68.45,50.756,72.725,54.85,77.9,57.6c0,0-0.612-0.088-1.584-0.216s-2.303-0.297-3.741-0.459s-2.981-0.319-4.378-0.422
	S65.55,56.35,64.7,56.4c-0.85,0.05-1.856,0.006-2.928-0.158c-1.072-0.164-2.209-0.448-3.322-0.879s-2.2-1.009-3.172-1.761
	C54.306,52.85,53.45,51.925,52.8,50.8h-1.2h-1.2h-1.2H48c0,0-0.131,0.356-0.459,0.889s-0.853,1.242-1.641,1.949
	c-0.787,0.706-1.838,1.409-3.216,1.929c-1.378,0.52-3.084,0.858-5.184,0.833s-4.112,0.088-5.95,0.27
	c-1.837,0.183-3.5,0.436-4.9,0.693s-2.538,0.516-3.325,0.711C22.538,58.269,22.1,58.4,22.1,58.4s1.312-0.662,3.388-2.181
	C27.562,54.7,30.4,52.325,33.45,48.9s6.312-7.9,9.237-13.619C45.613,29.562,48.2,22.6,49.9,14.2h0.25h0.25h0.25h0.25v-0.025V14.15
	v-0.025V14.1z"/>
<path d="M50.3,63.1c1.409,0,2.75,0.319,3.971,0.896s2.319,1.412,3.242,2.443c0.923,1.032,1.67,2.26,2.186,3.624
	S60.5,72.926,60.5,74.5s-0.285,3.073-0.802,4.437s-1.263,2.592-2.186,3.624c-0.923,1.032-2.021,1.866-3.242,2.443
	C53.05,85.581,51.708,85.9,50.3,85.9s-2.75-0.319-3.971-0.896s-2.319-1.412-3.242-2.443c-0.923-1.032-1.67-2.26-2.186-3.624
	S40.1,76.074,40.1,74.5s0.285-3.074,0.802-4.437s1.263-2.592,2.186-3.624c0.923-1.032,2.021-1.866,3.242-2.443
	C47.55,63.419,48.892,63.1,50.3,63.1z"/>
</svg>
