<?xml version="1.0" encoding="utf-8"?>
<!-- Generator: Adobe Illustrator 25.2.0, SVG Export Plug-In . SVG Version: 6.00 Build 0)  -->
<svg version="1.1" id="Layer_1" xmlns="http://www.w3.org/2000/svg" xmlns:xlink="http://www.w3.org/1999/xlink" x="0px" y="0px"
	 viewBox="0 0 100 100" style="enable-background:new 0 0 100 100;" xml:space="preserve">
<path d="M81.2,49.2v-6.9h-1.2v6.6l-9.6-2c0,0-1.8-19.8-3.6-23.4C65,20,61,22,61,22s-2.8,1.3-3,2.7s-1.5,22.2-1.5,22.2l-27.1,1.7
	c0,0-2.7-7.4-8-8.1V49c0,0-2.7,0.7-3.6,1c0.8,0.3,3.6,1,3.6,1v8.6c5.3-0.7,8-8.1,8-8.1l27.1,1.7c0,0,1.3,20.9,1.5,22.2s3,2.7,3,2.7
	s4,2,5.7-1.6c1.7-3.6,3.6-23.4,3.6-23.4l9.6-2v6.6h1.2v-6.9c0.7-0.3,1-0.8,1-0.8S81.9,49.5,81.2,49.2z"/>
</svg>
