<?xml version="1.0" encoding="utf-8"?>
<!-- Generator: Adobe Illustrator 25.2.0, SVG Export Plug-In . SVG Version: 6.00 Build 0)  -->
<svg version="1.1" id="Layer_1" xmlns="http://www.w3.org/2000/svg" xmlns:xlink="http://www.w3.org/1999/xlink" x="0px" y="0px"
	 viewBox="0 0 100 100" style="enable-background:new 0 0 100 100;" xml:space="preserve">
<path d="M73.8,82.9C60.9,78,53.9,66.1,53.8,66c-0.1-0.2-0.4-0.3-0.7-0.2c0,0-0.1,0.1-0.1,0.1l2.6-7.1h3.9v-1.5h-0.9v-1.3h0
	c14-15.5,12.4-23,12.4-23c0-9.3-10.1-16.8-22.6-16.8s-22.6,7.5-22.6,16.8c0,0.4,0,0.8,0.1,1.3l-0.1,0c0.5,7.2,12.7,21.7,12.7,21.7
	v1.3h-1v1.5h4.3l2.9,7.5h-1.2l1.8,5.6h6.8l1.1-4.9c1.4,2.3,8.4,12.5,20.2,16.9c0.1,0,0.1,0,0.2,0c0.2,0,0.4-0.1,0.5-0.3
	C74.2,83.3,74,83,73.8,82.9z M42.7,58.7h12.2l-2.7,7.5h-6.5L42.7,58.7z"/>
</svg>
