<?xml version="1.0" encoding="utf-8"?>
<!-- Generator: Adobe Illustrator 25.2.0, SVG Export Plug-In . SVG Version: 6.00 Build 0)  -->
<svg version="1.1" id="Layer_1" xmlns="http://www.w3.org/2000/svg" xmlns:xlink="http://www.w3.org/1999/xlink" x="0px" y="0px"
	 viewBox="0 0 100 100" style="enable-background:new 0 0 100 100;" xml:space="preserve">
<path style="fill:#969696;" d="M20.3,63.6l0.5-0.5l0.7,0.7l-0.5,0.5l1,1l0.5-0.5l0.7,0.7L22.8,66l1,1l0.5-0.5l0.7,0.7l-0.5,0.5l1,1
	l0.5-0.5l0.7,0.7l-0.5,0.5l1,1l0.5-0.5l0.7,0.7l-0.5,0.5l1,1l0.5-0.5l0.7,0.7L29.6,73l1,1l0.6-0.6l0.7,0.7l-0.6,0.6l1,1l0.6-0.6
	l0.7,0.7L33,76.4l1,1l0.6-0.6l0.7,0.7l-0.6,0.6l1,1l0.6-0.6l0.7,0.7l-0.6,0.6l1,1l0.6-0.6l0.7,0.7l-0.6,0.6l1,1l0.6-0.6l0.7,0.7
	l-0.6,0.6l1,1l0.7-0.7l0.7,0.7l-0.7,0.7l1,1l0.7-0.7l0.7,0.7l-0.7,0.7l1,1l0.7-0.7l0.7,0.7l-0.7,0.7l1,1l0.7-0.7l0.7,0.7l-0.7,0.7
	l1,1l0.7-0.7l0.7,0.7L48.3,92l1,1l0.7-0.7l0.7,0.7L50,93.7l32.6-31.6h-1l-0.7,0.7l-0.7-0.7h-2l-0.7,0.7l-0.7-0.7h-2L74,62.8
	l-0.7-0.7h-2l-0.7,0.7l-0.7-0.7h-2l-0.7,0.7l-0.7-0.7h-2l-0.7,0.7L63,62.1h-2l-0.7,0.7l-0.7-0.7h-2l-0.7,0.7l-0.7-0.7h-2l-0.7,0.7
	l-0.7-0.7h-2L50,62.8l-0.7-0.7h-2l-0.7,0.7l-0.7-0.7h-2l-0.7,0.7l-0.7-0.7h-2l-0.7,0.7L39,62.1h-2l-0.7,0.7l-0.7-0.7h-2l-0.7,0.7
	l-0.7-0.7h-2l-0.7,0.7l-0.7-0.7h-2L26,62.8l-0.7-0.7h-2l-0.7,0.7l-0.7-0.7h-2l-0.5,0.5L20.3,63.6z M79.2,63.1l0.7,0.7l-0.7,0.7
	l-0.7-0.7L79.2,63.1z M77.4,64.8l0.7,0.7l-0.7,0.7l-0.7-0.7L77.4,64.8z M29.4,69.7L28.7,69l0.7-0.7l0.7,0.7L29.4,69.7z M32.8,73.1
	l-0.7-0.7l0.7-0.7l0.7,0.7L32.8,73.1z M36.3,76.6l-0.7-0.7l0.7-0.7l0.7,0.7L36.3,76.6z M39.7,80L39,79.3l0.7-0.7l0.7,0.7L39.7,80z
	 M39.7,76.6L39,75.8l0.7-0.7l0.7,0.7L39.7,76.6z M39.7,73.1L39,72.4l0.7-0.7l0.7,0.7L39.7,73.1z M41.4,74.9l-0.7-0.7l0.7-0.7
	l0.7,0.7L41.4,74.9z M42.1,77.6l-0.7,0.7l-0.7-0.7l0.7-0.7L42.1,77.6z M41.4,71.4l-0.7-0.7l0.7-0.7l0.7,0.7L41.4,71.4z M43.1,83.4
	l-0.7-0.7l0.7-0.7l0.7,0.7L43.1,83.4z M43.1,80l-0.7-0.7l0.7-0.7l0.7,0.7L43.1,80z M43.1,76.6l-0.7-0.7l0.7-0.7l0.7,0.7L43.1,76.6z
	 M43.1,73.1l-0.7-0.7l0.7-0.7l0.7,0.7L43.1,73.1z M43.1,69.7L42.4,69l0.7-0.7l0.7,0.7L43.1,69.7z M44.8,78.3l-0.7-0.7l0.7-0.7
	l0.7,0.7L44.8,78.3z M45.6,81l-0.7,0.7L44.1,81l0.7-0.7L45.6,81z M44.8,74.9l-0.7-0.7l0.7-0.7l0.7,0.7L44.8,74.9z M44.8,71.4
	l-0.7-0.7l0.7-0.7l0.7,0.7L44.8,71.4z M44.8,68l-0.7-0.7l0.7-0.7l0.7,0.7L44.8,68z M75.7,63.1l0.7,0.7l-0.7,0.7L75,63.8L75.7,63.1z
	 M75.7,66.5l0.7,0.7L75.7,68L75,67.3L75.7,66.5z M74,64.8l0.7,0.7L74,66.3l-0.7-0.7L74,64.8z M74,68.2l0.7,0.7L74,69.7L73.3,69
	L74,68.2z M72.3,63.1l0.7,0.7l-0.7,0.7l-0.7-0.7L72.3,63.1z M72.3,66.5l0.7,0.7L72.3,68l-0.7-0.7L72.3,66.5z M72.3,70l0.7,0.7
	l-0.7,0.7l-0.7-0.7L72.3,70z M70.6,64.8l0.7,0.7l-0.7,0.7l-0.7-0.7L70.6,64.8z M70.6,68.2l0.7,0.7l-0.7,0.7L69.8,69L70.6,68.2z
	 M70.6,71.7l0.7,0.7l-0.7,0.7l-0.7-0.7L70.6,71.7z M68.9,63.1l0.7,0.7l-0.7,0.7l-0.7-0.7L68.9,63.1z M68.9,66.5l0.7,0.7L68.9,68
	l-0.7-0.7L68.9,66.5z M68.9,70l0.7,0.7l-0.7,0.7l-0.7-0.7L68.9,70z M68.9,73.4l0.7,0.7l-0.7,0.7l-0.7-0.7L68.9,73.4z M67.1,64.8
	l0.7,0.7l-0.7,0.7l-0.7-0.7L67.1,64.8z M67.1,68.2l0.7,0.7l-0.7,0.7L66.4,69L67.1,68.2z M67.1,71.7l0.7,0.7l-0.7,0.7l-0.7-0.7
	L67.1,71.7z M67.1,75.1l0.7,0.7l-0.7,0.7l-0.7-0.7L67.1,75.1z M65.4,63.1l0.7,0.7l-0.7,0.7l-0.7-0.7L65.4,63.1z M65.4,66.5l0.7,0.7
	L65.4,68l-0.7-0.7L65.4,66.5z M65.4,70l0.7,0.7l-0.7,0.7l-0.7-0.7L65.4,70z M65.4,73.4l0.7,0.7l-0.7,0.7l-0.7-0.7L65.4,73.4z
	 M65.4,76.8l0.7,0.7l-0.7,0.7l-0.7-0.7L65.4,76.8z M63.7,64.8l0.7,0.7l-0.7,0.7L63,65.5L63.7,64.8z M63.7,68.2l0.7,0.7l-0.7,0.7
	L63,69L63.7,68.2z M63.7,71.7l0.7,0.7l-0.7,0.7L63,72.4L63.7,71.7z M63.7,75.1l0.7,0.7l-0.7,0.7L63,75.8L63.7,75.1z M63.7,78.5
	l0.7,0.7L63.7,80L63,79.3L63.7,78.5z M62,63.1l0.7,0.7L62,64.6l-0.7-0.7L62,63.1z M62,66.5l0.7,0.7L62,68l-0.7-0.7L62,66.5z M62,70
	l0.7,0.7L62,71.4l-0.7-0.7L62,70z M62,73.4l0.7,0.7L62,74.9l-0.7-0.7L62,73.4z M62,76.8l0.7,0.7L62,78.3l-0.7-0.7L62,76.8z M62,80.3
	l0.7,0.7L62,81.7L61.3,81L62,80.3z M60.3,64.8l0.7,0.7l-0.7,0.7l-0.7-0.7L60.3,64.8z M60.3,68.2L61,69l-0.7,0.7L59.5,69L60.3,68.2z
	 M60.3,71.7l0.7,0.7l-0.7,0.7l-0.7-0.7L60.3,71.7z M60.3,75.1l0.7,0.7l-0.7,0.7l-0.7-0.7L60.3,75.1z M60.3,78.5l0.7,0.7L60.3,80
	l-0.7-0.7L60.3,78.5z M60.3,82l0.7,0.7l-0.7,0.7l-0.7-0.7L60.3,82z M58.6,63.1l0.7,0.7l-0.7,0.7l-0.7-0.7L58.6,63.1z M58.6,66.5
	l0.7,0.7L58.6,68l-0.7-0.7L58.6,66.5z M58.6,70l0.7,0.7l-0.7,0.7l-0.7-0.7L58.6,70z M58.6,73.4l0.7,0.7l-0.7,0.7l-0.7-0.7L58.6,73.4
	z M58.6,76.8l0.7,0.7l-0.7,0.7l-0.7-0.7L58.6,76.8z M58.6,80.3l0.7,0.7l-0.7,0.7L57.8,81L58.6,80.3z M58.6,83.7l0.7,0.7l-0.7,0.7
	l-0.7-0.7L58.6,83.7z M56.9,64.8l0.7,0.7l-0.7,0.7l-0.7-0.7L56.9,64.8z M56.9,68.2l0.7,0.7l-0.7,0.7L56.1,69L56.9,68.2z M56.9,71.7
	l0.7,0.7l-0.7,0.7l-0.7-0.7L56.9,71.7z M56.9,75.1l0.7,0.7l-0.7,0.7l-0.7-0.7L56.9,75.1z M56.9,78.5l0.7,0.7L56.9,80l-0.7-0.7
	L56.9,78.5z M56.9,82l0.7,0.7l-0.7,0.7l-0.7-0.7L56.9,82z M56.9,85.4l0.7,0.7l-0.7,0.7l-0.7-0.7L56.9,85.4z M55.1,63.1l0.7,0.7
	l-0.7,0.7l-0.7-0.7L55.1,63.1z M55.1,66.5l0.7,0.7L55.1,68l-0.7-0.7L55.1,66.5z M55.1,70l0.7,0.7l-0.7,0.7l-0.7-0.7L55.1,70z
	 M55.1,73.4l0.7,0.7l-0.7,0.7l-0.7-0.7L55.1,73.4z M55.1,76.8l0.7,0.7l-0.7,0.7l-0.7-0.7L55.1,76.8z M55.1,80.3l0.7,0.7l-0.7,0.7
	L54.4,81L55.1,80.3z M55.1,83.7l0.7,0.7l-0.7,0.7l-0.7-0.7L55.1,83.7z M55.1,87.1l0.7,0.7l-0.7,0.7l-0.7-0.7L55.1,87.1z M53.4,64.8
	l0.7,0.7l-0.7,0.7l-0.7-0.7L53.4,64.8z M53.4,68.2l0.7,0.7l-0.7,0.7L52.7,69L53.4,68.2z M53.4,71.7l0.7,0.7l-0.7,0.7l-0.7-0.7
	L53.4,71.7z M53.4,75.1l0.7,0.7l-0.7,0.7l-0.7-0.7L53.4,75.1z M53.4,78.5l0.7,0.7L53.4,80l-0.7-0.7L53.4,78.5z M53.4,82l0.7,0.7
	l-0.7,0.7l-0.7-0.7L53.4,82z M53.4,85.4l0.7,0.7l-0.7,0.7l-0.7-0.7L53.4,85.4z M53.4,88.8l0.7,0.7l-0.7,0.7l-0.7-0.7L53.4,88.8z
	 M51.7,63.1l0.7,0.7l-0.7,0.7L51,63.8L51.7,63.1z M51.7,66.5l0.7,0.7L51.7,68L51,67.3L51.7,66.5z M51.7,70l0.7,0.7l-0.7,0.7L51,70.7
	L51.7,70z M51.7,73.4l0.7,0.7l-0.7,0.7L51,74.1L51.7,73.4z M51.7,76.8l0.7,0.7l-0.7,0.7L51,77.6L51.7,76.8z M51.7,80.3l0.7,0.7
	l-0.7,0.7L51,81L51.7,80.3z M51.7,83.7l0.7,0.7l-0.7,0.7L51,84.4L51.7,83.7z M51.7,87.1l0.7,0.7l-0.7,0.7L51,87.9L51.7,87.1z
	 M51.7,90.6l0.7,0.7L51.7,92L51,91.3L51.7,90.6z M50,64.8l0.7,0.7L50,66.3l-0.7-0.7L50,64.8z M50,68.2l0.7,0.7L50,69.7L49.2,69
	L50,68.2z M50,71.7l0.7,0.7L50,73.1l-0.7-0.7L50,71.7z M50,75.1l0.7,0.7L50,76.6l-0.7-0.7L50,75.1z M50,78.5l0.7,0.7L50,80l-0.7-0.7
	L50,78.5z M50,82l0.7,0.7L50,83.4l-0.7-0.7L50,82z M50,85.4l0.7,0.7L50,86.9l-0.7-0.7L50,85.4z M50,88.8l0.7,0.7L50,90.3l-0.7-0.7
	L50,88.8z M48.3,63.1l0.7,0.7l-0.7,0.7l-0.7-0.7L48.3,63.1z M48.3,66.5l0.7,0.7L48.3,68l-0.7-0.7L48.3,66.5z M48.3,70l0.7,0.7
	l-0.7,0.7l-0.7-0.7L48.3,70z M48.3,73.4l0.7,0.7l-0.7,0.7l-0.7-0.7L48.3,73.4z M48.3,76.8l0.7,0.7l-0.7,0.7l-0.7-0.7L48.3,76.8z
	 M48.3,80.3L49,81l-0.7,0.7L47.5,81L48.3,80.3z M48.3,83.7l0.7,0.7l-0.7,0.7l-0.7-0.7L48.3,83.7z M48.3,87.1l0.7,0.7l-0.7,0.7
	l-0.7-0.7L48.3,87.1z M46.6,64.8l0.7,0.7l-0.7,0.7l-0.7-0.7L46.6,64.8z M46.6,68.2l0.7,0.7l-0.7,0.7L45.8,69L46.6,68.2z M46.6,71.7
	l0.7,0.7l-0.7,0.7l-0.7-0.7L46.6,71.7z M46.6,75.1l0.7,0.7l-0.7,0.7l-0.7-0.7L46.6,75.1z M46.6,78.5l0.7,0.7L46.6,80l-0.7-0.7
	L46.6,78.5z M46.6,82l0.7,0.7l-0.7,0.7l-0.7-0.7L46.6,82z M46.6,85.4l0.7,0.7l-0.7,0.7l-0.7-0.7L46.6,85.4z M44.8,63.1l0.7,0.7
	l-0.7,0.7l-0.7-0.7L44.8,63.1z M44.8,83.7l0.7,0.7l-0.7,0.7l-0.7-0.7L44.8,83.7z M43.1,64.8l0.7,0.7l-0.7,0.7l-0.7-0.7L43.1,64.8z
	 M41.4,63.1l0.7,0.7l-0.7,0.7l-0.7-0.7L41.4,63.1z M41.4,66.5l0.7,0.7L41.4,68l-0.7-0.7L41.4,66.5z M41.4,80.3l0.7,0.7l-0.7,0.7
	L40.7,81L41.4,80.3z M39.7,64.8l0.7,0.7l-0.7,0.7L39,65.5L39.7,64.8z M39.7,68.2l0.7,0.7l-0.7,0.7L39,69L39.7,68.2z M38,63.1
	l0.7,0.7L38,64.6l-0.7-0.7L38,63.1z M38.7,67.3L38,68l-0.7-0.7l0.7-0.7L38.7,67.3z M38,70l0.7,0.7L38,71.4l-0.7-0.7L38,70z
	 M38.7,74.1L38,74.9l-0.7-0.7l0.7-0.7L38.7,74.1z M38,76.8l0.7,0.7L38,78.3l-0.7-0.7L38,76.8z M36.3,64.8l0.7,0.7l-0.7,0.7l-0.7-0.7
	L36.3,64.8z M37,69l-0.7,0.7L35.5,69l0.7-0.7L37,69z M36.3,71.7l0.7,0.7l-0.7,0.7l-0.7-0.7L36.3,71.7z M34.5,63.1l0.7,0.7l-0.7,0.7
	l-0.7-0.7L34.5,63.1z M34.5,66.5l0.7,0.7L34.5,68l-0.7-0.7L34.5,66.5z M35.3,70.7l-0.7,0.7l-0.7-0.7l0.7-0.7L35.3,70.7z M34.5,73.4
	l0.7,0.7l-0.7,0.7l-0.7-0.7L34.5,73.4z M32.8,64.8l0.7,0.7l-0.7,0.7l-0.7-0.7L32.8,64.8z M32.8,68.2l0.7,0.7l-0.7,0.7L32.1,69
	L32.8,68.2z M31.1,63.1l0.7,0.7l-0.7,0.7l-0.7-0.7L31.1,63.1z M31.8,67.3L31.1,68l-0.7-0.7l0.7-0.7L31.8,67.3z M31.1,70l0.7,0.7
	l-0.7,0.7l-0.7-0.7L31.1,70z M29.4,64.8l0.7,0.7l-0.7,0.7l-0.7-0.7L29.4,64.8z M27.7,63.1l0.7,0.7l-0.7,0.7l-0.7-0.7L27.7,63.1z
	 M27.7,66.5l0.7,0.7L27.7,68l-0.7-0.7L27.7,66.5z M26,64.8l0.7,0.7L26,66.3l-0.7-0.7L26,64.8z M24.2,63.1l0.7,0.7l-0.7,0.7l-0.7-0.7
	L24.2,63.1z"/>
<rect x="19.9" y="59.8" style="fill:#969696;" width="60.8" height="1.9"/>
<path d="M51.1,60.4C51.1,60.4,51.1,60.4,51.1,60.4l2.2,0.1l-1-6.9l5.2-0.9l1.1,7.8l10.3,0.1l-7.6-46.4l-24.9,4.1l6.3,38.4
	C45.1,57.1,49.5,58,51.1,60.4z M63.7,44.6l-5.2,0.9L56.7,35l5.2-0.9L63.7,44.6z M59.5,18.7l1.8,10.5L55.9,30l-1.8-10.5L59.5,18.7z
	 M52,19.9l1.8,10.5l-5.4,0.9l-1.8-10.5L52,19.9z M38.9,22l5.4-0.9l1.8,10.5l-5.4,0.9L38.9,22z M43.8,47.9L42,37.4l5.2-0.9L49,47.1
	L43.8,47.9z M54.6,35.4l1.7,10.5l-5.2,0.9l-1.7-10.5L54.6,35.4z"/>
<ellipse cx="32.9" cy="37.8" rx="2.4" ry="2"/>
<path d="M28,50.2v-6c0,0,0.8-3.2,3.1-3.1c2.3,0.1,4.4-0.3,5.3,1.2c0.9,1.5,2.1,4.8,0.8,7.6c0,0-1-0.4-1-2.3c0-1.9-1-1.4-1-1.4
	s1.2,11.2,0.2,14.1c0,0-1.8-0.3-1.7-2.9s-0.1-5.2-1-5.2c-0.9,0-1.3,8.5-1.3,8.5l-1.4-0.3c0,0,0-11.3,0-12S29,47.6,29,48.7
	S29.3,50.6,28,50.2z"/>
</svg>
