<?xml version="1.0" encoding="utf-8"?>
<!-- Generator: Adobe Illustrator 25.2.0, SVG Export Plug-In . SVG Version: 6.00 Build 0)  -->
<svg version="1.1" id="Layer_1" xmlns="http://www.w3.org/2000/svg" xmlns:xlink="http://www.w3.org/1999/xlink" x="0px" y="0px"
	 viewBox="0 0 100 100" style="enable-background:new 0 0 100 100;" xml:space="preserve">
<path d="M37.6,53.6c0-0.2,0-0.4,0-0.6c-0.8-0.3-1.7-0.4-2.6-0.5c0,0.4,0,0.7,0,1.1c0,6.5,4.3,12,10.2,13.9c0.3-0.8,0.4-1.7,0.5-2.6
	C41,63.3,37.6,58.8,37.6,53.6z"/>
<path d="M61.5,53.6c0,5.2-3.4,9.6-8,11.3c0.1,0.9,0.3,1.7,0.6,2.5c5.8-1.9,10-7.4,10-13.8c0-0.7,0-1.3-0.1-1.9
	c-0.9,0.1-1.7,0.3-2.6,0.6C61.5,52.6,61.5,53.1,61.5,53.6z"/>
<path d="M42,44.3c2.1-1.7,4.7-2.7,7.5-2.7c2.9,0,5.5,1,7.5,2.7c0.6-0.6,1.2-1.2,1.7-2c-2.5-2.1-5.7-3.3-9.3-3.3
	c-3.5,0-6.7,1.3-9.3,3.3C40.8,43.1,41.3,43.7,42,44.3z"/>
<path d="M52.6,65.1c0-0.2-0.1-0.5-0.1-0.8c0,0,0-0.1,0-0.1c0-0.3,0-0.5,0-0.8c0-0.3,0-0.5,0-0.8c0-0.1,0-0.1,0-0.2
	c0-0.2,0-0.4,0.1-0.6c0-0.1,0-0.1,0-0.2c0-0.2,0.1-0.5,0.1-0.7c0,0,0,0,0-0.1c0.1-0.3,0.1-0.5,0.2-0.8c0,0,0,0,0-0.1
	c0.1-0.2,0.1-0.5,0.2-0.7c0,0,0-0.1,0-0.1c0.3-0.8,0.6-1.5,1-2.1c0,0,0,0,0,0l-2.5-1.6c-0.5,0.5-1.3,0.9-2.1,0.9
	c-0.8,0-1.6-0.3-2.1-0.9l-2.8,1.7c0.3,0.5,0.6,1,0.8,1.5c0,0,0,0,0,0c0.2,0.5,0.4,1,0.6,1.5c0,0,0,0.1,0,0.1
	c0.1,0.2,0.1,0.5,0.2,0.7c0,0,0,0.1,0,0.1c0.1,0.3,0.1,0.5,0.1,0.8c0,0,0,0.1,0,0.1c0,0.2,0.1,0.5,0.1,0.7c0,0.1,0,0.1,0,0.2
	c0,0.3,0,0.5,0,0.8c0,0.2,0,0.4,0,0.6c0,0,0,0,0,0c0,0.2,0,0.4,0,0.6c0,0,0,0,0,0l0,0c-0.6,5.8-5.1,10.3-10.9,11
	c0.5,0.1,1,0.1,1.6,0.1c5.4,0,10.1-2.8,12.8-7c2.7,4.2,7.4,7,12.8,7c0.4,0,0.9,0,1.3-0.1C58.2,75.6,53.4,71,52.6,65.1L52.6,65.1
	C52.6,65.1,52.6,65.1,52.6,65.1z"/>
<path d="M37.7,52c2.5,0.7,4.7,2.2,6.2,4.2l2.8-1.7c-0.1-0.3-0.2-0.6-0.2-0.9c0-1.4,1-2.5,2.3-2.8v-2.7c-0.2,0-0.4,0-0.6,0
	c-0.1,0-0.2,0-0.3,0c-0.1,0-0.2,0-0.3,0c-0.1,0-0.2,0-0.3,0c-0.1,0-0.2,0-0.3,0c-0.1,0-0.2,0-0.3-0.1c-0.1,0-0.2,0-0.2-0.1
	c-0.1,0-0.2-0.1-0.3-0.1c-0.1,0-0.1,0-0.2-0.1c-0.1,0-0.2-0.1-0.3-0.1c-0.1,0-0.1,0-0.2-0.1c-0.1,0-0.2-0.1-0.4-0.1c0,0-0.1,0-0.1,0
	c-0.6-0.2-1.2-0.5-1.8-0.9c0,0,0,0,0,0c-0.1-0.1-0.3-0.2-0.4-0.3c0,0,0,0,0,0c-0.1-0.1-0.3-0.2-0.4-0.3c0,0,0,0,0,0
	c-3.1-2.2-5.1-5.8-5.1-9.9c0-6.5,5.1-11.8,11.5-12.1c-8.1,0.3-14.6,7-14.6,15.2c0,2.4,0.6,4.7,1.6,6.7C28.1,46.4,22,53,22,60.9
	c0,0.5,0,1,0.1,1.6c0.7-6.2,5.9-10.9,12.2-10.9C35.5,51.6,36.6,51.7,37.7,52C37.7,52,37.7,52,37.7,52C37.7,52,37.7,52,37.7,52z"/>
<path d="M63.3,45.7c1-2,1.5-4.3,1.5-6.7c0-8.2-6.5-14.9-14.6-15.2c6.4,0.3,11.5,5.6,11.5,12.1c0,4.1-2,7.7-5.1,9.9c0,0,0,0,0,0
	c-0.1,0.1-0.3,0.2-0.4,0.3c0,0,0,0,0,0c-0.1,0.1-0.3,0.2-0.4,0.3c0,0,0,0,0,0c-0.6,0.3-1.2,0.6-1.8,0.9c0,0,0,0-0.1,0
	c-0.1,0-0.2,0.1-0.4,0.1c-0.1,0-0.1,0-0.2,0.1c-0.1,0-0.2,0.1-0.3,0.1c-0.1,0-0.1,0-0.2,0.1c-0.1,0-0.2,0.1-0.3,0.1
	c-0.1,0-0.2,0-0.2,0.1c-0.1,0-0.2,0-0.3,0.1c-0.1,0-0.2,0-0.3,0c-0.1,0-0.2,0-0.3,0c-0.1,0-0.2,0-0.3,0c-0.1,0-0.2,0-0.3,0
	c-0.2,0-0.4,0-0.5,0c0,0,0,0,0,0v2.7c1.3,0.3,2.3,1.5,2.3,2.8c0,0.3-0.1,0.6-0.2,0.9l2.6,1.6c2.3-3.3,6.1-5.4,10.4-5.4
	c6.6,0,12.1,5.1,12.7,11.6c0-0.4,0.1-0.9,0.1-1.3C78,52.7,71.5,45.9,63.3,45.7z"/>
</svg>
