<?xml version="1.0" encoding="utf-8"?>
<!-- Generator: Adobe Illustrator 25.2.0, SVG Export Plug-In . SVG Version: 6.00 Build 0)  -->
<svg version="1.1" id="Layer_1" xmlns="http://www.w3.org/2000/svg" xmlns:xlink="http://www.w3.org/1999/xlink" x="0px" y="0px"
	 viewBox="0 0 100 100" style="enable-background:new 0 0 100 100;" xml:space="preserve">
<path d="M80.7,38.4L49.9,24.3L19.3,37.9v1.9h3.7v23.6v1.6v0.4h53.1v-0.4v-1.6V39.8h4.7V38.4z M50,26.6l22.9,10.9H26.5L50,26.6z
	 M73.9,63.4H25.1V39.8h48.7V63.4z"/>
<path d="M29,48.8c0-1.4-1.7-2.3-1.7-2.3l0,0c0.5-0.4,0.8-1,0.8-1.8c0-1.2-0.8-2.2-1.9-2.2s-1.9,1-1.9,2.2c0,1,0.6,1.8,1.3,2.1
	l-2.6,0.5L22.9,64l2,0.2c0,0,0.5-0.2,0.5-0.9c0-0.8,0.8-0.8,0.8-0.6c0,0.2,0.2,1.3,1.2,1.2s0.8-0.9,0.8-0.9s-0.1-7.4,0.1-7.5
	s1.1-1,1.1-2S29,50.2,29,48.8z"/>
<path d="M50.5,50.2c0-1.2-0.4-2.8-0.9-3c-0.6-0.2-0.8-0.6-0.8-0.6s0.6-0.6,0.6-1.6c-0.1-2-1.8-2.4-1.8-2.4c-1.3,0-2,1.5-2,2.3
	s0.4,1.1,0.4,1.3c0,0.2-0.2,0.7-0.2,0.7c-0.7,0-1,0.6-1.2,1.2c-0.2-0.5-0.4-0.9-0.7-1c-0.6-0.2-0.9-0.6-0.9-0.6s0.6-0.6,0.6-1.6
	c-0.1-2-2-2.4-2-2.4c-1.5,0-2.3,1.5-2.3,2.3s0.4,1.1,0.5,1.3c0,0.2-0.3,0.7-0.3,0.7C37.9,47,38,49.4,38,49.4s-0.4,4-0.3,4.9
	c0,0.9,1.2,1.1,1.2,1.1s0,5.2,0,6.1s0.1,2.3,1.1,2.3c0.8,0,1-0.7,1.1-1.6c0-0.3,0.5-0.2,0.5-0.2s0,1.7,1.1,1.7
	c1.1,0,1.2-0.9,1.2-0.9l0.2-7.3c0.1,0,0.3-0.1,0.6-0.4c0.3,0.2,0.5,0.2,0.5,0.2s0,5.2,0,6.1s0.1,2.3,0.9,2.3c0.7,0,0.9-0.7,1-1.6
	c0-0.3,0.5-0.2,0.5-0.2s0,1.7,1,1.7c1,0,1-0.9,1-0.9l0.2-7.3c0.3-0.1,1.2-0.8,1.2-2.3S50.5,51.4,50.5,50.2z"/>
<path d="M70,42.6c0,0,1.8,0.3,1.9,2.4c0,1-0.6,1.6-0.6,1.6s0.3,0.4,0.9,0.6c0.6,0.2,1,1.8,1,3s0.5,1.6,0.5,3.1s-1,2.2-1.3,2.3
	l-0.2,7.3c0,0,0,0.9-1.1,0.9S70,61.9,70,61.9s-0.5-0.1-0.5,0.2c-0.1,0.9-0.3,1.6-1.1,1.6c-0.9,0-1-1.5-1-2.3s0-6.1,0-6.1
	s-1.1-0.1-1.2-1.1c0-0.9,0.3-4.9,0.3-4.9s0-2.4,1.5-2.5c0,0,0.3-0.5,0.3-0.7c0-0.2-0.5-0.6-0.5-1.3C67.8,44.1,68.6,42.6,70,42.6z"/>
<path d="M36.8,50.8c0-1.2-0.4-2.7-0.9-2.9c-0.6-0.2-0.8-0.5-0.8-0.5s0.6-0.6,0.6-1.6c-0.1-1.9-1.8-2.2-1.8-2.2c-1.3,0-2,1.5-2,2.1
	c0,0.7,0.4,1.1,0.4,1.3S32,47.7,32,47.7c-1.4,0.1-1.4,2.4-1.4,2.4s-0.3,3.8-0.3,4.7c0,0.9,1.1,1,1.1,1s0,5,0,5.8s0.5,2.3,1.4,2.1
	c0.3,0,0.5-0.3,0.7-0.5c0-0.1,0.1-0.2,0.1-0.4c0-0.6,0.2-0.9,0.4-0.9s0.2,1.3,0.2,1.3l0,0c0.1,0.3,0.4,0.5,0.7,0.5c1,0,1-0.8,1-0.8
	l0.2-6.9c0.3-0.1,1.2-0.8,1.2-2.2S36.8,51.9,36.8,50.8z"/>
<path d="M57.9,50.8c0-1.2-0.3-2.7-0.9-2.9c-0.5-0.2-0.7-0.5-0.7-0.5s0.5-0.6,0.5-1.6c-0.1-1.9-1.7-2.2-1.7-2.2
	c-1.2,0-1.9,1.5-1.9,2.1c0,0.7,0.4,1.1,0.4,1.3c0,0.2-0.2,0.7-0.2,0.7c-1.3,0.1-1.3,2.4-1.3,2.4s-0.3,3.8-0.3,4.7c0,0.9,1,1,1,1
	s0,5,0,5.8s0.5,2.3,1.3,2.1c0.3,0,0.5-0.3,0.6-0.5c0-0.1,0.1-0.2,0.1-0.4c0-0.6,0.2-0.9,0.4-0.9s0.1,1.3,0.1,1.3l0,0
	c0.1,0.3,0.4,0.5,0.7,0.5c0.9,0,1-0.8,1-0.8l0.2-6.9c0.2-0.1,1.1-0.8,1.1-2.2S57.9,51.9,57.9,50.8z"/>
<path d="M65.1,50.8c0-1.2-0.3-2.7-0.9-2.9c-0.5-0.2-0.7-0.5-0.7-0.5s0.5-0.6,0.5-1.6c-0.1-1.9-1.7-2.2-1.7-2.2
	c-1.2,0-1.9,1.5-1.9,2.1c0,0.7,0.4,1.1,0.4,1.3c0,0.2-0.2,0.7-0.2,0.7c-1.3,0.1-1.3,2.4-1.3,2.4S59,53.8,59,54.7c0,0.9,1,1,1,1
	s0,5,0,5.8s0.5,2.3,1.3,2.1c0.3,0,0.5-0.3,0.6-0.5c0-0.1,0.1-0.2,0.1-0.4c0-0.6,0.2-0.9,0.4-0.9s0.1,1.3,0.1,1.3l0,0
	c0.1,0.3,0.4,0.5,0.7,0.5c0.9,0,1-0.8,1-0.8l0.2-6.9c0.2-0.1,1.1-0.8,1.1-2.2S65.1,51.9,65.1,50.8z"/>
</svg>
