<?xml version="1.0" encoding="utf-8"?>
<!-- Generator: Adobe Illustrator 25.2.0, SVG Export Plug-In . SVG Version: 6.00 Build 0)  -->
<svg version="1.1" id="Layer_1" xmlns="http://www.w3.org/2000/svg" xmlns:xlink="http://www.w3.org/1999/xlink" x="0px" y="0px"
	 viewBox="0 0 100 100" style="enable-background:new 0 0 100 100;" xml:space="preserve">
<polygon points="60.5,32.3 67.1,32.3 66.1,55.9 61.2,55.9 "/>
<ellipse cx="63.8" cy="62.3" rx="3.9" ry="3.6"/>
<path style="fill:#010101;" d="M51.5,29.5v38.3H54V29.5H51.5z M53.3,66.4h-1.2V30.7h1.2V66.4z"/>
<path style="fill:#010101;" d="M51.5,29.5l1.3,1.6l19.6-3.3l0,42.5l-21.1-3.9l-17.5,2.2L45,74.2l28.8-3V25.8L51.5,29.5z M45.5,73
	l-7.9-3.9l13.2-1.6l17.8,3.2L45.5,73z"/>
<ellipse cx="40.9" cy="33.8" rx="2.7" ry="3.1"/>
<path d="M37,35.6c0,0,0.4,3.6,5.1,3l1,5.8l4.4,4.4l-1.3,1.6l-4.5-4.3l-1.3-5.3c0,0-0.5-0.1-0.8,0.9c-0.3,1-2.6,9.2-2.6,9.2l4.1,6
	l2.8,9.1l-2.4,1.4l-2.8-9.5l-4.9-6.7l-1.1,8.1l-4,7.5L26.2,65l3.9-7l1.2-9.2l4.2-9.3c0,0-0.3-0.5-1.5,0.2c-1.2,0.7-1.8,1.5-1.8,1.5
	l-2.7,6.5l-2.3-1.2l3.9-8.8L37,35.6z"/>
</svg>
