<?xml version="1.0" encoding="utf-8"?>
<!-- Generator: Adobe Illustrator 25.2.0, SVG Export Plug-In . SVG Version: 6.00 Build 0)  -->
<svg version="1.1" id="Layer_1" xmlns="http://www.w3.org/2000/svg" xmlns:xlink="http://www.w3.org/1999/xlink" x="0px" y="0px"
	 viewBox="0 0 100 100" style="enable-background:new 0 0 100 100;" xml:space="preserve">
<path style="fill:#E7443A;" d="M50,22.5c-14.8,0-26.8,12.3-26.8,27.5c0,15.2,12,27.5,26.8,27.5s26.8-12.3,26.8-27.5
	C76.8,34.9,64.8,22.5,50,22.5z M27.3,50.1c0-5.5,1.8-10.5,4.9-14.5l32.4,32.3c-3.9,3.4-9,5.5-14.6,5.5
	C37.5,73.4,27.3,62.9,27.3,50.1z M67.4,65.1L35.3,32.3c4-3.5,9.1-5.6,14.7-5.6c12.5,0,22.7,10.4,22.7,23.3
	C72.7,55.8,70.7,61,67.4,65.1z"/>
<path d="M40.2,74.9c-0.7,0-1.3-0.6-1.3-1.3V59.1l-2.6-4.8l0-12.1c0-1.5,1.2-2.7,2.6-2.8l0-3.7c0,0-0.1-0.8,0.3-1.2
	c0.2-0.2,0.4-0.3,0.7-0.3c0.1,0,0.1,0,0.2,0c1,0,2.6,0.6,2.6,2c0.1,1,0,2.5,0,3.2h4.7v-5.7c0-0.6,0.5-1.1,1.1-1.1h0.2
	c0.6,0,1.1,0.5,1.1,1.1v5.8H56v-14c-0.3-0.1-1.2-0.4-1.3-1.2c-0.1-0.9,1.2-1.6,2.4-1.7c0.1,0,0.2,0,0.3,0c1.1,0,2.4,0.7,2.6,1.5
	c0.2,0.8-0.9,1.7-1.1,1.9l0,13.6c1.4,0.2,2.4,1.3,2.4,2.7v12l-2.7,4.5l0,0v14.8c0,0.7-0.6,1.3-1.3,1.3H40.2z M59.9,52.3v-1.8H38.2
	v1.8H59.9z M59.9,49.4v-1.8H38.2v1.8H59.9z M59.9,46.6v-1.8H38.2v1.8H59.9z M59.9,43.7v-1.8H38.2v1.8H59.9z"/>
<path style="fill:#FFFFFF;" d="M57.4,22.6c1,0,2.3,0.7,2.5,1.4c0.2,0.8-1.1,1.8-1.1,1.8l0,13.8c1.3,0.1,2.4,1.2,2.4,2.6v12l-2.8,4.5
	h0.1v14.8c0,0.6-0.5,1.2-1.2,1.2H40.2c-0.6,0-1.2-0.5-1.2-1.2V59.1l-2.6-4.8v-12c0-1.4,1.2-2.6,2.6-2.6l0-3.8c0,0-0.1-1.3,0.8-1.4
	c0.1,0,0.1,0,0.2,0c1,0,2.4,0.6,2.5,1.9c0.1,1.1,0,2.8,0,3.4h5v-5.8c0-0.6,0.5-1,1-1h0.2c0.5,0,0.9,0.4,0.9,0.9v5.9h6.4V25.4
	c0,0-1.2-0.3-1.3-1.2c-0.1-0.9,1.2-1.5,2.3-1.6C57.2,22.6,57.3,22.6,57.4,22.6 M38.1,43.8h22v-2.1h-22V43.8 M38.1,46.7h22v-2.1h-22
	V46.7 M38.1,49.6h22v-2.1h-22V49.6 M38.1,52.4h22v-2.1h-22V52.4 M57.4,22.4c-0.1,0-0.2,0-0.3,0c-1.3,0.1-2.6,0.8-2.5,1.9
	c0.1,0.8,0.9,1.2,1.3,1.3v13.8H50v-5.6c0-0.7-0.5-1.2-1.2-1.2h-0.2c-0.7,0-1.3,0.6-1.3,1.3v5.5h-4.4c0-0.8,0-2.1,0-3.1
	c-0.1-1.5-1.7-2.1-2.8-2.1c-0.1,0-0.1,0-0.2,0c-0.3,0-0.6,0.1-0.7,0.4c-0.4,0.5-0.3,1.3-0.3,1.3l0,3.6c-1.5,0.1-2.6,1.4-2.6,2.9v12
	v0.1l0,0.1l2.6,4.8v14.4c0,0.8,0.6,1.4,1.4,1.4h17.1c0.8,0,1.4-0.6,1.4-1.4V58.8v0l2.7-4.3l0-0.1v-0.1v-12c0-1.4-1-2.6-2.4-2.8
	L59,26c0.3-0.3,1.3-1.2,1.1-2C59.9,23.1,58.4,22.4,57.4,22.4L57.4,22.4z M38.3,42h21.5v1.6H38.3V42L38.3,42z M38.3,44.9h21.5v1.6
	H38.3V44.9L38.3,44.9z M38.3,47.7h21.5v1.6H38.3V47.7L38.3,47.7z M38.3,50.6h21.5v1.6H38.3V50.6L38.3,50.6z"/>
</svg>
