<?xml version="1.0" encoding="utf-8"?>
<!-- Generator: Adobe Illustrator 25.2.0, SVG Export Plug-In . SVG Version: 6.00 Build 0)  -->
<svg version="1.1" id="Layer_1" xmlns="http://www.w3.org/2000/svg" xmlns:xlink="http://www.w3.org/1999/xlink" x="0px" y="0px"
	 viewBox="0 0 100 100" style="enable-background:new 0 0 100 100;" xml:space="preserve">
<path style="fill:#ABAFB7;" d="M71,32.5H29c-9.6,0-17.3,7.7-17.3,17.3v0.4c0,9.6,7.7,17.3,17.3,17.3h42c9.6,0,17.3-7.7,17.3-17.3
	v-0.4C88.3,40.3,80.6,32.5,71,32.5z M84,49.7c0,7.4-6,13.4-13.4,13.4H29.5c-7.4,0-13.4-6-13.4-13.4v0c0-7.4,6-13.4,13.4-13.4h41.1
	C78,36.3,84,42.3,84,49.7L84,49.7z"/>
</svg>
