<?xml version="1.0" encoding="utf-8"?>
<!-- Generator: Adobe Illustrator 25.2.0, SVG Export Plug-In . SVG Version: 6.00 Build 0)  -->
<svg version="1.1" id="Layer_1" xmlns="http://www.w3.org/2000/svg" xmlns:xlink="http://www.w3.org/1999/xlink" x="0px" y="0px"
	 viewBox="0 0 100 100" style="enable-background:new 0 0 100 100;" xml:space="preserve">
<polygon points="47.7,18.5 50.6,25.6 49.3,26.8 53.5,32.4 51.9,34.2 57.4,43.3 48.8,35.8 50.1,34.4 45.3,30 47.2,28 41.9,23.3 "/>
<path d="M57,61.5l0,0.3l0.3,0l0,4.8c0,0,0.1,0.4,0.4,0.4l-1.3,1.5l0-8.1c0,0-0.1-0.6-0.6-0.6c-0.5,0-0.8,0-0.8,0s-0.3-0.2-0.1-0.4
	s0.5-0.2,0.5-0.8c0-0.6,0-0.8,0-0.8s0-0.4-0.4-0.4c-0.4,0-0.9,0-0.9,0s-0.3,1.6,0,1.9c0.3,0.2,0.3,0.4,0.3,0.4h-3.1
	c0,0-0.1-0.2,0.2-0.4c0.3-0.1,0.8,0.1,1.1-0.6c0.2-0.8,0.5,0,0.6-0.4c0.1-0.5,0-2.4,0-2.4H52c0,0-0.2,0.7-0.3,0.8h-5.9
	c0,0,0.1-0.7-0.4-0.7c-0.4,0-1,0-1,0l0,2.2c0,0,0.4,1,0.6,1c0.3,0,0.4-0.2,0.4-0.6c0-0.4,0.2-0.8,0.4-0.8c0.2,0,0.2,0,0.2,0v2h-2.9
	v-0.5c0,0,0.4-0.4,0.3-1c0-0.5,0.1-0.9-0.3-0.9c-0.4,0-1.1-0.2-1.2,0.9c-0.1,1.1,0.4,1.2,0.4,1.2l0,0.2l-0.9,0c0,0-1,0.4-0.8,1.3
	l-2,0.1v5.7l1.5,1.7V68l-0.7-0.9c0,0,0.4-0.4,0.4-1c0-0.6,0.1-4.6,0.1-4.6l0.2-0.1h0.7L40.5,76c0,0-0.8,0.5-0.7,1
	c0.1,0.5,1,1.5,1.3,1.5v2.3c0,0,0.1,0.5,0.7,0.5c0.6,0,1.9,0,1.9,0v-1.8c0,0,0.6-0.3,1.2-1.2h6.6c0,0,0.6,1.3,0.9,1.4v1.3
	c0,0,0.1,0.4,0.6,0.4c0.5,0,1.9,0,1.9,0s0.3-0.1,0.3-0.7c0-0.6,0-2.1,0-2.1s0.6-0.1,0.9-0.8c0,0,0.6-0.2,0.6-0.6
	c0-0.4,0-0.9-0.6-1.2l0-6.8l2.1-2.1c0,0,0.2-0.1,0.2-0.3c0-0.2,0-5.4,0-5.4H57z M51.4,57.7h0.4l0,0.5H52V59h-0.6V57.7z M48.9,61.8
	c0-0.3,0.2-0.5,0.4-0.5h6.4c0.2,0,0.4,0.2,0.4,0.5v4.8c0,0.3-0.2,0.5-0.4,0.5h-6.4c-0.2,0-0.4-0.2-0.4-0.5V61.8z M55.8,74.3v1.2
	c0,0.3-0.2,0.6-0.5,0.6h-1.7c-0.3,0-0.5-0.3-0.5-0.6v-1.2c0-0.3,0.2-0.6,0.5-0.6h1.7C55.6,73.7,55.8,74,55.8,74.3z M52.5,74.4h-8.4
	c-0.1,0-0.2-0.1-0.2-0.3V74c0-0.2,0.1-0.3,0.2-0.3h8.4c0.1,0,0.2,0.1,0.2,0.3v0.2C52.7,74.3,52.6,74.4,52.5,74.4z M52.7,75.5v0.2
	c0,0.2-0.1,0.3-0.2,0.3h-8.4c-0.1,0-0.2-0.1-0.2-0.3v-0.2c0-0.2,0.1-0.3,0.2-0.3h8.4C52.6,75.2,52.7,75.3,52.7,75.5z M41.2,61.8
	c0-0.3,0.2-0.5,0.4-0.5h6.2c0.2,0,0.4,0.2,0.4,0.5v4.8c0,0.3-0.2,0.5-0.4,0.5h-6.2c-0.2,0-0.4-0.2-0.4-0.5V61.8z M40.8,74.3
	c0-0.3,0.2-0.6,0.5-0.6H43c0.3,0,0.5,0.3,0.5,0.6v1.2c0,0.3-0.2,0.6-0.5,0.6h-1.7c-0.3,0-0.5-0.3-0.5-0.6V74.3z M56.3,77.1
	c0,0.2-0.1,0.3-0.3,0.3h-2.7c-0.1,0.1,0,0.7,0,0.7l0,0c0,0.1,0,0.1,0,0.2c0,0.5-0.3,0.8-0.7,0.8c-0.4,0-0.7-0.4-0.7-0.8
	c0-0.1,0-0.3,0.1-0.4l0,0c0.1-0.1,0-0.5,0-0.5h-7.3c-0.1,0.1-0.2,0.2-0.3,0.4c-0.1,0.2-0.1,0.8-0.5,1.1c-0.1,0.1-0.2,0.2-0.4,0.2
	c-0.2,0-0.3,0-0.3-0.1c-0.2-0.1-0.3-0.3-0.3-0.6c0-0.2,0.1-0.4,0.2-0.6l0,0c0,0,0.4-0.2,0.1-0.4h-2.8c-0.1,0-0.3-0.2-0.3-0.3
	c0-0.2,0.1-0.3,0.3-0.3h15.6C56.2,76.7,56.3,76.9,56.3,77.1z"/>
<rect x="21.4" y="46.6" width="56.2" height="1.2"/>
<rect x="20.8" y="50.8" width="58.4" height="1"/>
<rect x="71.7" y="45.2" width="1.3" height="25.4"/>
<rect x="25.4" y="45.2" width="1.3" height="24.2"/>
<polygon points="76.2,47.2 69.2,52.4 68.1,52.4 73.7,46.8 "/>
<polygon points="30.3,47.6 23.8,52.4 22.7,52.4 28.3,46.8 "/>
</svg>
