<?xml version="1.0" encoding="utf-8"?>
<!-- Generator: Adobe Illustrator 25.2.0, SVG Export Plug-In . SVG Version: 6.00 Build 0)  -->
<svg version="1.1" id="Layer_1" xmlns="http://www.w3.org/2000/svg" xmlns:xlink="http://www.w3.org/1999/xlink" x="0px" y="0px"
	 viewBox="0 0 100 100" style="enable-background:new 0 0 100 100;" xml:space="preserve">
<path style="fill:#424040;" d="M43.8,44.4V50h7.1v-5.6H43.8z M47,49.4h-2.1v-2H47V49.4z M47,47h-2.1v-2H47V47z M49.9,49.4h-2.1v-2
	h2.1V49.4z M49.9,47h-2.1v-2h2.1V47z"/>
<polygon style="fill:#424040;" points="52.4,43.7 52.4,52.5 53,52.5 53,44.4 59.8,44.4 59.8,52.5 60.4,52.5 60.4,43.7 "/>
<path style="fill:#4D4D4D;" d="M51.9,32.3l-2.5,2v-1.4H43v6.6l-3.8,3.1h2.7v10.3h20.6V42.5h3.2L51.9,32.3z M44.5,33.4h3.4v2.1
	l-3.4,2.8V33.4z M50.4,49.6h-6v-5h6V49.6z M59.9,52.5h-7.3V44h7.3V52.5z"/>
<rect x="42.4" y="42.5" style="fill:#424040;" width="0.6" height="10.4"/>
<rect x="61.9" y="42.5" style="fill:#424040;" width="0.6" height="10.4"/>
<rect x="42.5" y="42.5" style="fill:#424040;" width="19.9" height="0.5"/>
<rect x="42.5" y="52.4" style="fill:#424040;" width="19.9" height="0.4"/>
<path style="fill:#E7443A;" d="M52.5,24.7c-11.4,0-20.6,7.9-20.6,17.7S41.1,60,52.5,60s20.6-7.9,20.6-17.7S63.9,24.7,52.5,24.7z
	 M36.6,42.6c0-3.3,1.3-6.3,3.4-8.7l22.5,19.7c-2.7,1.9-6.2,3.1-10,3.1C43.8,56.7,36.6,50.4,36.6,42.6z M64.1,52.4l-22.4-20
	c2.9-2.4,6.7-3.9,11-3.9c8.8,0,16,6.3,16,14.1C68.6,46.4,66.9,49.9,64.1,52.4z"/>
<path d="M33,75.3c-2.8,0-5.1-0.9-6.8-2.7s-2.5-4.1-2.5-7c0-3.1,0.9-5.6,2.6-7.4c1.7-1.8,4.1-2.8,7-2.8c2.8,0,5,0.9,6.6,2.7
	c1.7,1.8,2.5,4.1,2.5,7c0,3.1-0.9,5.6-2.6,7.4S35.9,75.3,33,75.3z M33.2,58.3c-1.8,0-3.3,0.7-4.4,2c-1.1,1.3-1.7,3-1.7,5.2
	c0,2.1,0.5,3.9,1.6,5.2c1.1,1.3,2.5,2,4.3,2c1.9,0,3.4-0.6,4.4-1.9c1.1-1.2,1.6-3,1.6-5.2c0-2.3-0.5-4.1-1.6-5.3
	C36.5,58.9,35,58.3,33.2,58.3z"/>
<path style="fill:#FFFFFF;" d="M33,75.6c-2.9,0-5.2-0.9-7-2.8c-1.7-1.8-2.6-4.3-2.6-7.2c0-3.1,0.9-5.7,2.7-7.6
	c1.8-1.9,4.2-2.8,7.2-2.8c2.8,0,5.1,0.9,6.8,2.8c1.7,1.8,2.6,4.2,2.6,7.2c0,3.2-0.9,5.8-2.6,7.6C38.3,74.6,35.9,75.6,33,75.6z
	 M33.3,55.7c-2.9,0-5.2,0.9-6.9,2.7c-1.7,1.8-2.5,4.2-2.5,7.2c0,2.8,0.8,5.1,2.5,6.8c1.6,1.7,3.9,2.6,6.6,2.6c2.8,0,5.1-0.9,6.7-2.7
	c1.7-1.8,2.5-4.2,2.5-7.3c0-2.8-0.8-5.1-2.5-6.8C38.2,56.6,36,55.7,33.3,55.7z M33,72.8c-1.8,0-3.3-0.7-4.5-2
	c-1.1-1.3-1.7-3.1-1.7-5.3c0-2.2,0.6-4,1.7-5.4c1.2-1.4,2.7-2.1,4.6-2.1c1.9,0,3.4,0.7,4.5,2c1.1,1.3,1.6,3.1,1.6,5.5
	c0,2.3-0.6,4.1-1.7,5.4C36.5,72.1,35,72.8,33,72.8z M33.2,58.5c-1.7,0-3.1,0.6-4.2,1.9c-1.1,1.3-1.6,3-1.6,5c0,2.1,0.5,3.8,1.6,5
	c1,1.2,2.4,1.9,4.1,1.9c1.8,0,3.2-0.6,4.3-1.8c1-1.2,1.6-2.9,1.6-5.1c0-2.2-0.5-4-1.5-5.2C36.3,59.1,34.9,58.5,33.2,58.5z"/>
<path d="M59.7,74.2c-1.5,0.8-3.3,1.1-5.5,1.1c-2.8,0-5.1-0.9-6.8-2.6c-1.7-1.8-2.6-4.1-2.6-6.9c0-3.1,1-5.6,2.9-7.5
	c1.9-1.9,4.4-2.8,7.3-2.8c1.9,0,3.5,0.3,4.7,0.8v3.2c-1.3-0.8-2.8-1.2-4.4-1.2c-2.1,0-3.8,0.7-5.2,2c-1.3,1.3-2,3.1-2,5.3
	c0,2.1,0.6,3.8,1.8,5.1c1.2,1.3,2.8,1.9,4.8,1.9c1.8,0,3.5-0.4,4.8-1.3V74.2z"/>
<path style="fill:#FFFFFF;" d="M54.2,75.6c-2.9,0-5.3-0.9-7-2.7c-1.8-1.8-2.6-4.2-2.6-7.1c0-3.1,1-5.7,3-7.6c2-1.9,4.5-2.9,7.5-2.9
	c1.9,0,3.5,0.3,4.8,0.8l0.2,0.1v3.8l-0.4-0.2c-1.3-0.7-2.7-1.1-4.2-1.1c-2,0-3.7,0.6-5,1.9c-1.3,1.3-1.9,3-1.9,5.2
	c0,2,0.6,3.7,1.8,4.9c1.2,1.2,2.7,1.8,4.7,1.8c1.8,0,3.4-0.4,4.7-1.2l0.4-0.2v3.6l-0.1,0.1C58.3,75.2,56.5,75.6,54.2,75.6z M55,55.7
	c-2.9,0-5.3,0.9-7.1,2.8c-1.9,1.8-2.8,4.3-2.8,7.3c0,2.8,0.8,5.1,2.5,6.8c1.7,1.7,3.9,2.6,6.6,2.6c2.1,0,3.8-0.3,5.3-1v-2.4
	c-1.3,0.7-2.8,1.1-4.6,1.1c-2.1,0-3.8-0.7-5-2c-1.3-1.3-1.9-3.1-1.9-5.2c0-2.3,0.7-4.1,2-5.5c1.4-1.4,3.2-2.1,5.3-2.1
	c1.5,0,2.9,0.3,4.1,1v-2.6C58.3,55.9,56.8,55.7,55,55.7z"/>
<path d="M76.3,74.2c-1.5,0.8-3.3,1.1-5.5,1.1c-2.8,0-5.1-0.9-6.8-2.6c-1.7-1.8-2.6-4.1-2.6-6.9c0-3.1,1-5.6,2.9-7.5
	c1.9-1.9,4.4-2.8,7.3-2.8c1.9,0,3.5,0.3,4.7,0.8v3.2c-1.3-0.8-2.8-1.2-4.4-1.2c-2.1,0-3.8,0.7-5.2,2c-1.3,1.3-2,3.1-2,5.3
	c0,2.1,0.6,3.8,1.8,5.1c1.2,1.3,2.8,1.9,4.8,1.9c1.8,0,3.5-0.4,4.8-1.3V74.2z"/>
<path style="fill:#FFFFFF;" d="M70.8,75.6c-2.9,0-5.3-0.9-7-2.7c-1.8-1.8-2.6-4.2-2.6-7.1c0-3.1,1-5.7,3-7.6c2-1.9,4.5-2.9,7.5-2.9
	c1.9,0,3.5,0.3,4.8,0.8l0.2,0.1v3.8l-0.4-0.2c-1.3-0.7-2.7-1.1-4.2-1.1c-2,0-3.7,0.6-5,1.9c-1.3,1.3-1.9,3-1.9,5.2
	c0,2,0.6,3.7,1.8,4.9c1.2,1.2,2.7,1.8,4.7,1.8c1.8,0,3.4-0.4,4.7-1.2l0.4-0.2v3.6l-0.1,0.1C74.9,75.2,73,75.6,70.8,75.6z M71.6,55.7
	c-2.9,0-5.3,0.9-7.1,2.8c-1.9,1.8-2.8,4.3-2.8,7.3c0,2.8,0.8,5.1,2.5,6.8c1.7,1.7,3.9,2.6,6.6,2.6c2.1,0,3.8-0.3,5.3-1v-2.4
	c-1.3,0.7-2.8,1.1-4.6,1.1c-2.1,0-3.8-0.7-5-2c-1.3-1.3-1.9-3.1-1.9-5.2c0-2.3,0.7-4.1,2-5.5c1.4-1.4,3.2-2.1,5.3-2.1
	c1.5,0,2.9,0.3,4.1,1v-2.6C74.9,55.9,73.4,55.7,71.6,55.7z"/>
</svg>
