<?xml version="1.0" encoding="utf-8"?>
<!-- Generator: Adobe Illustrator 25.2.0, SVG Export Plug-In . SVG Version: 6.00 Build 0)  -->
<svg version="1.1" id="Layer_1" xmlns="http://www.w3.org/2000/svg" xmlns:xlink="http://www.w3.org/1999/xlink" x="0px" y="0px"
	 viewBox="0 0 100 100" style="enable-background:new 0 0 100 100;" xml:space="preserve">
<path d="M64.4,31.2l0.1,0.4l0.6,0l0.8,7.2c0,0,0.2,0.6,0.8,0.6l-2.2,2.6l-1.4-12.1c0,0-0.3-0.9-1.4-0.8c-1,0.1-1.6,0.2-1.6,0.2
	s-0.6-0.3-0.2-0.5c0.4-0.2,1-0.4,0.8-1.3c-0.1-0.8-0.2-1.2-0.2-1.2s-0.1-0.6-0.8-0.5C59,25.7,58,25.8,58,25.8s-0.3,2.5,0.3,2.8
	c0.6,0.2,0.6,0.6,0.6,0.6l-6,0.7c0,0-0.3-0.3,0.3-0.6c0.5-0.3,1.7,0,2-1.2c0.3-1.2,0.9-0.1,1-0.8c0.1-0.7-0.4-3.6-0.4-3.6l-2.1,0.3
	c0,0-0.2,1-0.3,1.3l-11.6,1.4c0,0,0-1.1-0.8-1c-0.9,0.1-2,0.2-2,0.2l0.3,3.3c0,0,0.9,1.4,1.5,1.3c0.5-0.1,0.8-0.5,0.7-1
	c0-0.6,0.3-1.2,0.7-1.3c0.4,0,0.4,0,0.4,0l0.4,3L36.9,32l-0.1-0.8c0,0,0.6-0.7,0.5-1.5c-0.2-0.8,0.1-1.3-0.7-1.3
	c-0.8,0.1-2.2,0-2.2,1.7c0,1.7,1.1,1.7,1.1,1.7l0,0.4l-1.9,0.2c0,0-1.8,0.8-1.4,2.2l-3.8,0.6l1.1,8.6l3.2,2.2l-0.1-0.8L31,43.9
	c0,0,0.6-0.7,0.6-1.5c0-0.9-0.6-6.9-0.6-6.9l0.4-0.2l1.3-0.2l2,21.7c0,0-1.5,0.9-1.2,1.6c0.2,0.8,2.3,2,2.9,2l0.4,3.4
	c0,0,0.4,0.7,1.5,0.6C39.3,64.3,42,64,42,64l-0.3-2.7c0,0,1.1-0.5,2.1-2.1l13-1.6c0,0,1.4,1.8,2.1,1.9l0.3,2c0,0,0.3,0.6,1.3,0.5
	c1-0.1,3.8-0.5,3.8-0.5s0.5-0.2,0.4-1.1c-0.1-0.9-0.4-3.2-0.4-3.2s1.2-0.3,1.6-1.5c0,0,1.1-0.4,1-1c-0.1-0.6-0.3-1.3-1.3-1.6
	L64.4,43l3.7-3.6c0,0,0.4-0.2,0.3-0.4c0-0.3-1-8.1-1-8.1L64.4,31.2z M52.8,26.9l0.8-0.1l0,0.7l0.4,0l0.1,1.1L53,28.7L52.8,26.9z
	 M48.5,33.6c-0.1-0.4,0.2-0.8,0.6-0.8l12.5-1.5c0.4-0.1,0.8,0.2,0.8,0.7l0.9,7.2c0.1,0.4-0.2,0.8-0.6,0.8l-12.5,1.5
	c-0.4,0.1-0.8-0.2-0.8-0.7L48.5,33.6z M64.5,50.6l0.2,1.8c0.1,0.5-0.3,1-0.8,1l-3.4,0.4c-0.5,0.1-1-0.3-1-0.8l-0.2-1.8
	c-0.1-0.5,0.3-1,0.8-1l3.4-0.4C64,49.8,64.4,50.1,64.5,50.6z M58,51.6l-16.4,2c-0.2,0-0.4-0.1-0.5-0.4l0-0.3c0-0.2,0.1-0.4,0.4-0.5
	l16.4-2c0.2,0,0.4,0.1,0.5,0.4l0,0.3C58.4,51.4,58.2,51.6,58,51.6z M58.6,53.1l0,0.3c0,0.2-0.1,0.4-0.4,0.5l-16.4,2
	c-0.2,0-0.4-0.1-0.5-0.4l0-0.3c0-0.2,0.1-0.4,0.4-0.5l16.4-2C58.4,52.7,58.6,52.9,58.6,53.1z M33.5,35.4c-0.1-0.4,0.2-0.8,0.6-0.8
	l12.1-1.5c0.4-0.1,0.8,0.2,0.8,0.6l0.9,7.2c0.1,0.4-0.2,0.8-0.6,0.8l-12.1,1.5c-0.4,0.1-0.8-0.2-0.8-0.6L33.5,35.4z M35.1,54.3
	c-0.1-0.5,0.3-1,0.8-1l3.4-0.4c0.5-0.1,1,0.3,1,0.8l0.2,1.8c0.1,0.5-0.3,1-0.8,1l-3.4,0.4c-0.5,0.1-1-0.3-1-0.8L35.1,54.3z M66,54.6
	c0,0.3-0.2,0.5-0.4,0.6l-5.2,0.6c-0.2,0.1,0.1,1,0.1,1l0,0c0,0.1,0.1,0.2,0.1,0.3c0.1,0.7-0.5,1.3-1.3,1.4c-0.8,0.1-1.5-0.4-1.6-1.1
	c0-0.2,0-0.4,0.1-0.6l0,0c0.2-0.2,0-0.8,0-0.8l-14.2,1.8c-0.2,0.2-0.4,0.4-0.5,0.6c-0.1,0.3-0.1,1.3-0.8,1.8
	c-0.2,0.2-0.4,0.3-0.7,0.4c-0.4,0.1-0.6,0-0.7-0.1c-0.4-0.2-0.6-0.4-0.7-0.8c0-0.3,0.1-0.7,0.4-0.9l0,0c0,0,0.7-0.4,0-0.5L35,59
	c-0.3,0-0.5-0.2-0.6-0.4c0-0.3,0.2-0.5,0.4-0.6l30.5-3.8C65.7,54.1,65.9,54.3,66,54.6z"/>
<rect x="13.7" y="60.3" width="69.6" height="1.5"/>
<polygon style="fill:#FFFFFF;" points="83.3,63.4 49.7,97.5 12.9,61.1 28.9,60.7 84.8,61.1 "/>
</svg>
