<?xml version="1.0" encoding="utf-8"?>
<!-- Generator: Adobe Illustrator 25.2.0, SVG Export Plug-In . SVG Version: 6.00 Build 0)  -->
<svg version="1.1" id="Layer_1" xmlns="http://www.w3.org/2000/svg" xmlns:xlink="http://www.w3.org/1999/xlink" x="0px" y="0px"
	 viewBox="0 0 100 100" style="enable-background:new 0 0 100 100;" xml:space="preserve">
<ellipse cx="50.2" cy="48.2" rx="6" ry="6.9"/>
<path d="M63.7,23l-9.1,18.1c1.7,1.5,2.8,3.7,3,6.2h18.6C76.1,37,71.1,28,63.7,23z M23.7,47.2h18.6c0.2-2.6,1.4-4.8,3.1-6.3l-9-18.1
	C28.9,27.9,23.9,36.9,23.7,47.2z M53.2,55.7c-1,0.5-2.1,0.8-3.2,0.8c-1,0-2-0.2-2.8-0.6l-10,17.5c3.8,2.4,8.2,3.7,12.8,3.7
	c4.8,0,9.3-1.4,13.2-4L53.2,55.7z"/>
<line x1="45.4" y1="41" x2="36.4" y2="22.9"/>
<line x1="54.7" y1="41.1" x2="63.7" y2="23"/>
<line x1="37.2" y1="73.4" x2="47.2" y2="55.9"/>
<line x1="63.2" y1="73.1" x2="53.2" y2="55.7"/>
</svg>
