<?xml version="1.0" encoding="utf-8"?>
<!-- Generator: Adobe Illustrator 25.2.0, SVG Export Plug-In . SVG Version: 6.00 Build 0)  -->
<svg version="1.1" id="Layer_1" xmlns="http://www.w3.org/2000/svg" xmlns:xlink="http://www.w3.org/1999/xlink" x="0px" y="0px"
	 viewBox="0 0 100 100" style="enable-background:new 0 0 100 100;" xml:space="preserve">
<path d="M18.5,56V40.8H24c1.7,0,3,0.3,4,1c1,0.6,1.5,1.5,1.5,2.5c0,0.9-0.3,1.6-0.8,2.3c-0.6,0.6-1.3,1.1-2.3,1.4v0
	c1.2,0.1,2.1,0.5,2.9,1.2c0.7,0.7,1.1,1.5,1.1,2.6c0,1.3-0.6,2.4-1.8,3.2S25.9,56,24.1,56H18.5z M21.4,42.8v4.3h1.9
	c1,0,1.8-0.2,2.4-0.6c0.6-0.4,0.9-1,0.9-1.8c0-1.3-1-2-3-2H21.4z M21.4,49.2V54h2.5c1.1,0,1.9-0.2,2.5-0.7c0.6-0.4,0.9-1,0.9-1.8
	c0-1.6-1.2-2.4-3.7-2.4H21.4z"/>
<path d="M43.2,56h-9.7V40.8h9.3V43h-6.5v4.3h6v2.1h-6v4.5h6.9V56z"/>
<path d="M65.6,56h-2.4l-1.2-3.9h-5.1L55.8,56h-2.4l4.9-15.2h2.4L65.6,56z M61.5,50.1L59.7,44c-0.1-0.2-0.1-0.5-0.2-1h0
	c-0.1,0.4-0.1,0.7-0.2,1l-1.8,6.1H61.5z"/>
<path d="M81.5,56h-2.2v-9.9c0-0.8,0-1.8,0.1-3h0c-0.1,0.7-0.3,1.1-0.4,1.4L75.1,56h-1.5l-3.9-11.3c-0.1-0.3-0.2-0.8-0.3-1.5h0
	c0,0.6,0.1,1.6,0.1,3V56h-2V40.8h3.1L73.9,51c0.3,0.8,0.4,1.4,0.5,1.7h0c0.2-0.8,0.4-1.4,0.5-1.8l3.5-10.1h2.9V56z"/>
<polygon points="54.9,36.7 54.9,21.5 43.1,21.5 43.1,36.7 45.5,36.7 45.5,63.4 43.1,63.4 43.1,78.5 54.9,78.5 54.9,63.4 52.9,63.4 
	52.9,36.7 "/>
</svg>
