<?xml version="1.0" encoding="utf-8"?>
<!-- Generator: Adobe Illustrator 25.2.0, SVG Export Plug-In . SVG Version: 6.00 Build 0)  -->
<svg version="1.1" id="Layer_1" xmlns="http://www.w3.org/2000/svg" xmlns:xlink="http://www.w3.org/1999/xlink" x="0px" y="0px"
	 viewBox="0 0 100 100" style="enable-background:new 0 0 100 100;" xml:space="preserve">
<path d="M50.5,71.5c7.8,0,14.6-4,18-9.9v-3H32.4v2.8C35.7,67.4,42.6,71.5,50.5,71.5z"/>
<path style="fill:#E7443A;" d="M49.4,20.9c-15.6,0-28.3,13.1-28.3,29.1s12.7,29.1,28.3,29.1C65,79.1,77.7,66.1,77.7,50
	S65,20.9,49.4,20.9z M27.1,50c0-5.5,1.9-10.5,4.9-14.4L63.2,68c-3.8,3.1-8.6,5-13.8,5C37.1,73,27.1,62.7,27.1,50z M67,64.1
	L35.7,31.9c3.8-3.1,8.6-4.9,13.7-4.9c12.3,0,22.3,10.3,22.3,23C71.7,55.3,69.9,60.2,67,64.1z"/>
<circle cx="42.3" cy="28.7" r="1.8"/>
<path d="M40.3,30.6c1.2,1.8-0.1,4,0.8,5.6c1,1.6,2.2,2.5,1.7,2.9c-0.5,0.4-1.2,0.6-2-0.5s-1.4-4.2-1.4-4.2s-1.6,0.3-2,2.6
	c-0.4,2.3-0.6,10.8-0.6,10.8s-0.2,0.7-1,1.1c-0.8,0.4-0.8-6-0.8-6.8s-0.4-2.5-0.7-3.1c-0.4-0.7-1.2-2.7-0.4-4.4
	C34.5,32.9,39,28.8,40.3,30.6z"/>
<path style="fill:#FFFFFF;" d="M45.1,24.6c0.5,0,1,0.3,1.2,0.7c0.1,0.3,0,0.6-0.3,1l-0.2,0.2l0.1,0.3c0.3,0.8,0.6,1.7,0.6,2.2
	c-0.8-0.5-4.3-2.9-9.1-3.3c0,0,0,0,0,0c0.3-0.2,1-0.4,1.8-0.4c0.1,0,0.2,0,0.4,0c2.4,0.2,3.8,0.3,3.8,0.3l0.3,0l0.2-0.2
	C43.7,25.3,44.3,24.6,45.1,24.6 M45.1,24.1c-1.1,0-1.8,0.9-1.8,0.9s-1.3-0.1-3.8-0.3c-0.1,0-0.3,0-0.4,0c-2.2,0-3.4,1.4-1.8,1.4
	c5.2,0.4,9,3.3,9,3.3c0.2,0.1,0.3,0.2,0.4,0.2c0.8,0-0.4-3.1-0.4-3.1C47.6,25.2,46.2,24.1,45.1,24.1L45.1,24.1z"/>
<path d="M45.7,24.1c0,0-0.1,1.3-0.3,1.5c-0.1,0.2,0.5,2,1,1C46.8,25.5,47.3,23.8,45.7,24.1z"/>
<polygon points="49.6,40.9 78.9,56.7 21.5,56.7 "/>
</svg>
