<?xml version="1.0" encoding="utf-8"?>
<!-- Generator: Adobe Illustrator 25.2.0, SVG Export Plug-In . SVG Version: 6.00 Build 0)  -->
<svg version="1.1" id="Layer_1" xmlns="http://www.w3.org/2000/svg" xmlns:xlink="http://www.w3.org/1999/xlink" x="0px" y="0px"
	 viewBox="0 0 100 100" style="enable-background:new 0 0 100 100;" xml:space="preserve">
<polygon points="83.1,61.9 49.5,96 12.7,59.5 28.6,59.2 84.5,59.5 "/>
<path d="M45.3,32.2c0,0,1.3,2.4,6.2,3.6c4.8,1.3,4.4,1.7,4.7,2.3s2.6,8.7,2.6,8.7s0.4,1.6-0.9,1.8s-2.7-7.4-2.7-7.4s-1.5-1.4-3-1.7
	c-1.5-0.2-2.4-0.8-2.5-0.1s2.9,5.5,2.9,6.2S52.2,52,52,53c-0.2,0.9,0.1,2.1-1.3,2S50,48.5,50,48.5s0.1-2.3-0.4-3s-3.6-5.1-4.8-6.4
	c-1.1-1.3-3.7-3.4-3.7-3.4l-2.5,2c0,0-1,0.6-2.1-0.2s-3.7-4.2-3.7-4.2s-0.8-1.2,0-1.7c0.8-0.5,3.5,3.1,4.3,3.1s1.8,0.3,3.1-2.1
	c0,0-2.2-1.3-2.3-3.1s0.6-3.4,2.3-2.9c1.7,0.5,1.8,3,1.8,3s1.2,0.1,2-1.3c0.8-1.3,2.9-1.2,4.2-0.7s3.3,2,3.3,2s0.6,1.4-0.9,1.3
	c-1.5-0.1-3-1.4-4.5-1.2S45.3,32.2,45.3,32.2z"/>
</svg>
