<?xml version="1.0" encoding="utf-8"?>
<!-- Generator: Adobe Illustrator 25.2.0, SVG Export Plug-In . SVG Version: 6.00 Build 0)  -->
<svg version="1.1" id="Layer_1" xmlns="http://www.w3.org/2000/svg" xmlns:xlink="http://www.w3.org/1999/xlink" x="0px" y="0px"
	 viewBox="0 0 100 100" style="enable-background:new 0 0 100 100;" xml:space="preserve">
<path d="M46.4,28.6c0,0,1.9,3.2,9,4.9c7,1.7,6.4,2.3,6.8,3.1S66,48.5,66,48.5s0.6,2.2-1.3,2.4c-1.9,0.2-4-10-4-10s-2.2-1.9-4.4-2.2
	c-2.2-0.3-3.6-1-3.6-0.1s4.3,7.4,4.3,8.5c0,1-0.4,8.7-0.6,10s0.2,2.9-1.8,2.8c-2-0.1-1-8.8-1-8.8s0.1-3.1-0.6-4s-5.3-7-7-8.7
	c-1.6-1.7-5.5-4.6-5.5-4.6l-3.6,2.8c0,0-1.5,0.7-3-0.3c-1.5-1-5.4-5.8-5.4-5.8s-1.2-1.6,0-2.3c1.2-0.7,5.1,4.2,6.2,4.2
	s2.6,0.4,4.5-2.8c0,0-3.1-1.8-3.4-4.3s0.8-4.6,3.4-4c2.5,0.7,2.7,4.1,2.7,4.1s1.8,0.1,2.9-1.7c1.1-1.8,4.2-1.6,6.1-1
	s4.9,2.7,4.9,2.7s0.8,1.9-1.3,1.8c-2.2-0.1-4.4-1.9-6.5-1.6S46.4,28.6,46.4,28.6z"/>
<polygon style="fill:#969696;" points="85,61.5 85,60.1 51,60.1 51,94.6 "/>
<polygon points="51.9,94.3 51.9,61.4 85.1,61.4 86.3,60.1 50.4,60.1 50.4,95.7 "/>
</svg>
