<?xml version="1.0" encoding="utf-8"?>
<!-- Generator: Adobe Illustrator 25.2.0, SVG Export Plug-In . SVG Version: 6.00 Build 0)  -->
<svg version="1.1" id="Layer_1" xmlns="http://www.w3.org/2000/svg" xmlns:xlink="http://www.w3.org/1999/xlink" x="0px" y="0px"
	 viewBox="0 0 100 100" style="enable-background:new 0 0 100 100;" xml:space="preserve">
<path d="M31.2,63.7h-0.9V70c0,0.8-0.1,1.4-0.3,1.8c-0.2,0.4-0.5,0.6-0.9,0.6c-0.4,0-0.7-0.2-0.9-0.6c-0.2-0.4-0.3-1-0.3-1.8V54.9
	c0-0.9,0.1-1.5,0.4-1.9c0.2-0.4,0.6-0.6,1.1-0.6h4c0.5,0,1,0,1.4,0.1c0.4,0.1,0.7,0.2,1,0.5c0.4,0.3,0.7,0.6,1,1.1
	c0.3,0.5,0.5,1,0.7,1.7c0.2,0.6,0.2,1.3,0.2,2c0,1.5-0.3,2.6-0.8,3.5c-0.5,0.9-1.3,1.5-2.3,1.9c0.4,0.4,0.8,0.9,1.2,1.7
	c0.4,0.7,0.7,1.5,1.1,2.3c0.3,0.8,0.5,1.6,0.7,2.2c0.2,0.7,0.3,1.1,0.3,1.4c0,0.3-0.1,0.5-0.2,0.8c-0.1,0.3-0.2,0.5-0.4,0.6
	c-0.2,0.1-0.4,0.2-0.6,0.2c-0.3,0-0.5-0.1-0.7-0.3c-0.2-0.2-0.3-0.5-0.5-0.8c-0.1-0.3-0.3-0.8-0.5-1.4l-1-2.7
	c-0.3-1-0.7-1.7-0.9-2.2c-0.3-0.5-0.6-0.9-0.8-1C32,63.8,31.6,63.7,31.2,63.7z M32.6,55.4h-2.2v5.4h2.2c0.6,0,1.1-0.1,1.5-0.2
	c0.4-0.2,0.7-0.4,0.9-0.8s0.3-0.9,0.3-1.6c0-0.5-0.1-1-0.3-1.4s-0.4-0.7-0.7-0.9C34,55.5,33.4,55.4,32.6,55.4z"/>
<path d="M45.2,52.1c1.2,0,2.3,0.4,3.2,1.2c0.9,0.8,1.6,2,2,3.5c0.5,1.5,0.7,3.3,0.7,5.4c0,1.5-0.1,2.9-0.4,4.1
	c-0.3,1.2-0.6,2.3-1.1,3.2c-0.5,0.9-1.1,1.6-1.9,2.1c-0.7,0.5-1.6,0.7-2.5,0.7c-0.9,0-1.8-0.2-2.5-0.7c-0.7-0.5-1.4-1.2-1.9-2.1
	c-0.5-0.9-0.9-2-1.1-3.3c-0.3-1.3-0.4-2.6-0.4-4.1c0-1.5,0.1-2.9,0.4-4.2c0.3-1.3,0.6-2.3,1.2-3.2c0.5-0.9,1.1-1.6,1.8-2
	C43.5,52.4,44.3,52.1,45.2,52.1z M48.7,62.2c0-1.4-0.1-2.7-0.4-3.7c-0.3-1.1-0.7-1.9-1.2-2.4c-0.5-0.5-1.1-0.8-1.8-0.8
	c-0.5,0-0.9,0.1-1.3,0.4s-0.8,0.7-1.1,1.3s-0.5,1.3-0.7,2.2c-0.2,0.9-0.3,1.9-0.3,3c0,1.1,0.1,2.1,0.3,3c0.2,0.9,0.4,1.7,0.7,2.2
	c0.3,0.6,0.7,1,1.1,1.3c0.4,0.3,0.9,0.4,1.3,0.4c0.6,0,1.2-0.3,1.7-0.8c0.5-0.5,0.9-1.3,1.2-2.4C48.6,65.1,48.7,63.8,48.7,62.2z"/>
<path d="M58.5,52.1c1.2,0,2.3,0.4,3.2,1.2c0.9,0.8,1.6,2,2,3.5c0.5,1.5,0.7,3.3,0.7,5.4c0,1.5-0.1,2.9-0.4,4.1
	c-0.3,1.2-0.6,2.3-1.1,3.2c-0.5,0.9-1.1,1.6-1.9,2.1c-0.7,0.5-1.6,0.7-2.5,0.7c-0.9,0-1.8-0.2-2.5-0.7c-0.7-0.5-1.4-1.2-1.9-2.1
	c-0.5-0.9-0.9-2-1.1-3.3c-0.3-1.3-0.4-2.6-0.4-4.1c0-1.5,0.1-2.9,0.4-4.2c0.3-1.3,0.6-2.3,1.2-3.2c0.5-0.9,1.1-1.6,1.8-2
	C56.8,52.4,57.6,52.1,58.5,52.1z M62,62.2c0-1.4-0.1-2.7-0.4-3.7c-0.3-1.1-0.7-1.9-1.2-2.4c-0.5-0.5-1.1-0.8-1.8-0.8
	c-0.5,0-0.9,0.1-1.3,0.4s-0.8,0.7-1.1,1.3s-0.5,1.3-0.7,2.2c-0.2,0.9-0.3,1.9-0.3,3c0,1.1,0.1,2.1,0.3,3c0.2,0.9,0.4,1.7,0.7,2.2
	c0.3,0.6,0.7,1,1.1,1.3c0.4,0.3,0.9,0.4,1.3,0.4c0.6,0,1.2-0.3,1.7-0.8c0.5-0.5,0.9-1.3,1.2-2.4C61.8,65.1,62,63.8,62,62.2z"/>
<path d="M73.7,55.5h-4.8v5h4c0.4,0,0.6,0.1,0.8,0.4c0.2,0.3,0.3,0.6,0.3,1.1c0,0.5-0.1,0.8-0.3,1.1s-0.5,0.4-0.8,0.4h-4V70
	c0,0.8-0.1,1.4-0.3,1.8s-0.5,0.6-0.9,0.6c-0.4,0-0.7-0.2-0.9-0.6s-0.3-1-0.3-1.8V54.9c0-0.6,0.1-1,0.2-1.4c0.1-0.4,0.3-0.6,0.5-0.8
	c0.2-0.2,0.5-0.2,0.8-0.2h5.7c0.4,0,0.7,0.1,0.9,0.4c0.2,0.3,0.3,0.7,0.3,1.1c0,0.5-0.1,0.8-0.3,1.1C74.4,55.4,74.1,55.5,73.7,55.5z
	"/>
<path d="M49.9,9.5L15.5,49.1h69L49.9,9.5z M49,45.7L35.8,29.3L49,14.1V45.7z M50.4,13.5l13.4,15.3L50.4,46.3V13.5z M64.9,30.1
	l14.6,16.7H51.7L64.9,30.1z M34.7,30.5l13.1,16.3H20.5L34.7,30.5z"/>
</svg>
