<?xml version="1.0" encoding="utf-8"?>
<!-- Generator: Adobe Illustrator 25.2.0, SVG Export Plug-In . SVG Version: 6.00 Build 0)  -->
<svg version="1.1" id="Layer_1" xmlns="http://www.w3.org/2000/svg" xmlns:xlink="http://www.w3.org/1999/xlink" x="0px" y="0px"
	 viewBox="0 0 100 100" style="enable-background:new 0 0 100 100;" xml:space="preserve">
<path style="fill:#010101;" d="M53.9,27.8v41.5h1.9V27.8H53.9z M55.3,67.8h-0.9V29.1h0.9V67.8z"/>
<path style="fill:#010101;" d="M53.9,27.8l1,1.7L70,25.9l0,46.1l-16.2-4.2l-13.5,2.4l8.6,6L71.1,73V23.8L53.9,27.8z M49.3,75
	l-6.1-4.2l10.2-1.7l13.7,3.5L49.3,75z"/>
<path d="M69.1,52.7C68.7,50.5,65.6,42,65.6,42L64,39.9c0,0,0.9-0.3,0.9-1.2s-0.3,0.3-1,0.3c-0.7-0.1-1.9-0.7-2-1.6
	c0-0.9-0.6-0.9-0.6-0.9l-0.3,0.7H50c0,0-0.2-0.9-1.2-0.7V40l1.7,2h4.4v3.5c0,0,2.3-0.2,2.4,0.3c0.1,0.5-0.2,3.3,1.7,3.7
	c1.9,0.4,3.3-0.4,3.6-2.6c0,0,0.6-0.7,1.2-0.2c0.6,0.6,0.8,7,0.8,7s0,1,1.7,1S69.5,54.9,69.1,52.7z M61.5,47.8
	c-0.5,1.4-1.6,1.7-3,0.9c-1.4-0.8,0-3.4,0-3.4c1.9-0.2,1.3,1.6,1.3,2.1s-1.3,1.3-0.3,0.9s0.9-1.4,1.1-2c0.2-0.6,0.9-0.3,0.9-0.3
	S62,46.4,61.5,47.8z"/>
<ellipse cx="42.7" cy="36.5" rx="2.5" ry="3.1"/>
<path d="M39,38.2c0,0,0.4,3.6,4.7,3l0.9,5.8l4.1,4.4l-1.2,1.6l-4.2-4.3l-1.2-5.3c0,0-0.5-0.1-0.7,0.9S39,53.5,39,53.5l3.9,6l2.6,9.1
	L43.2,70l-2.6-9.5L36,53.7l-1,8.1l-3.8,7.5l-2.3-1.7l3.6-7l1.1-9.2l4-9.3c0,0-0.3-0.5-1.4,0.2s-1.7,1.5-1.7,1.5L32,50.4l-2.1-1.2
	l3.7-8.8L39,38.2z"/>
</svg>
