<?xml version="1.0" encoding="utf-8"?>
<!-- Generator: Adobe Illustrator 25.2.0, SVG Export Plug-In . SVG Version: 6.00 Build 0)  -->
<svg version="1.1" id="Layer_1" xmlns="http://www.w3.org/2000/svg" xmlns:xlink="http://www.w3.org/1999/xlink" x="0px" y="0px"
	 viewBox="0 0 100 100" style="enable-background:new 0 0 100 100;" xml:space="preserve">
<path d="M61.7,22.6l-4.9,23.8h-3.3l-3.4-16.6c-0.1-0.7-0.2-1.5-0.3-2.3h0c0,0.8-0.1,1.5-0.3,2.3l-3.4,16.7h-3.4l-5-23.8H41L44.2,40
	c0.1,0.7,0.2,1.5,0.2,2.3h0.1c0-0.6,0.1-1.3,0.3-2.3l3.6-17.4h3l3.4,17.5c0.1,0.6,0.2,1.3,0.3,2.1h0c0-0.6,0.1-1.3,0.3-2.2l3.2-17.5
	H61.7z"/>
<path d="M49.6,63.8l6.9-10.1c0.3-0.5,0-1.1-0.6-1.1h-2.5v-4.1H46v4.1h-2.7c-0.5,0-0.9,0.6-0.6,1.1L49.6,63.8z"/>
<path d="M30,44.1l-13.1,5l27,32.4c0.3,0.4,0.9,0.4,1.2,0l0.5-0.4c0.3-0.3,0.3-0.8,0-1.1l-6.7-7.8l9-2.8l-0.8,6.3l1.6,0.2l0.9-5.7
	l1.4,1.4l1-1.1L30,44.1z M20.2,50.2l8.9-3.4l-1.9,11.6L20.2,50.2z M30.8,48.2l6.6,8l-8.4,3.3L30.8,48.2z M36.4,69.8l-7-8.4l8.8-2.8
	L36.4,69.8z M38.2,70.4l2-10.9l6.4,8L38.2,70.4z"/>
<path d="M70.8,47.7L51.2,63.8c0,0-0.5,2,1.3,1.7l6.4-5.2l0.3,11.9L54.7,69c0,0-1-0.1-1.3,0.3c-0.3,0.4-0.3,1.2,0.4,1.6
	c0.6,0.5,4.3,3,4.3,3s-1.9,2.1-1.5,2.3c0.5,0.2,1.6,0.9,2.9,0c1.3-0.9,23.6-19.3,23.6-19.3L70.8,47.7z M61.1,72.1l-0.4-11.9l8.2,5.5
	L61.1,72.1z M61.9,58.1l8.1-6.7l0.3,12.4L61.9,58.1z M72,51.4l7.9,5.8L72,63V51.4z"/>
</svg>
