<?xml version="1.0" encoding="utf-8"?>
<!-- Generator: Adobe Illustrator 25.2.0, SVG Export Plug-In . SVG Version: 6.00 Build 0)  -->
<svg version="1.1" id="Layer_1" xmlns="http://www.w3.org/2000/svg" xmlns:xlink="http://www.w3.org/1999/xlink" x="0px" y="0px"
	 viewBox="0 0 100 100" style="enable-background:new 0 0 100 100;" xml:space="preserve">
<path d="M62.2,56.4v-7.7h-4V43h1.8v-4.7h-2.2c-0.5-4.3-3.9-7.7-8.1-7.7s-7.6,3.3-8.1,7.7h-2.1V43h2.1v5.7h-3.9v7.7h4.4v10.3h-3v1.6
	h20.8v-1.6h-1.8V56.4H62.2z"/>
<path style="fill:#E7443A;" d="M50,23.6c-15.2,0-27.4,11.8-27.4,26.4S34.8,76.4,50,76.4S77.4,64.6,77.4,50S65.2,23.6,50,23.6z
	 M27.4,50c0-5,1.7-9.5,4.6-13.2l31.8,30.4c-3.8,2.8-8.6,4.5-13.8,4.5C37.5,71.7,27.4,62,27.4,50z M67.5,63.8L35.1,33.6
	c4-3.3,9.2-5.4,14.9-5.4c12.5,0,22.6,9.7,22.6,21.7C72.6,55.2,70.7,60.1,67.5,63.8z"/>
<path style="fill:#FFFFFF;" d="M50,76.9c-15.4,0-27.9-12.1-27.9-26.9S34.6,23.1,50,23.1S77.9,35.2,77.9,50S65.4,76.9,50,76.9z
	 M50,24.1c-14.9,0-26.9,11.6-26.9,25.9S35.1,75.9,50,75.9S76.9,64.3,76.9,50S64.9,24.1,50,24.1z M50,72.2c-12.8,0-23.1-10-23.1-22.2
	c0-4.9,1.6-9.6,4.7-13.5l0.3-0.4l32.6,31.2l-0.5,0.4C60,70.6,55.2,72.2,50,72.2z M32.1,37.6c-2.7,3.6-4.2,7.9-4.2,12.4
	c0,11.7,9.9,21.2,22.1,21.2c4.7,0,9.2-1.4,13-4.1L32.1,37.6z M67.5,64.5L34.4,33.6l0.4-0.4c4.2-3.5,9.6-5.5,15.2-5.5
	c12.8,0,23.1,10,23.1,22.2c0,5.1-1.9,10.2-5.3,14.1L67.5,64.5z M35.9,33.6l31.5,29.4c3-3.7,4.7-8.3,4.7-13.1
	c0-11.7-9.9-21.2-22.1-21.2C44.8,28.8,39.9,30.5,35.9,33.6z"/>
</svg>
