<?xml version="1.0" encoding="utf-8"?>
<!-- Generator: Adobe Illustrator 25.2.0, SVG Export Plug-In . SVG Version: 6.00 Build 0)  -->
<svg version="1.1" id="Layer_1" xmlns="http://www.w3.org/2000/svg" xmlns:xlink="http://www.w3.org/1999/xlink" x="0px" y="0px"
	 viewBox="0 0 100 100" style="enable-background:new 0 0 100 100;" xml:space="preserve">
<path style="fill:#010101;" d="M53.8,67.5L50,70.9V32.6c0-1.7-1.1-3.7-2.9-5.4c-2.5-2.4-5.8-3.7-8.9-3.5c-6.2,0.4-10.4,4.8-14.5,9
	c-4.6,4.7-3.6,13.3-3.5,13.6c0.1,0.5,0.6,0.9,1.1,0.9c0.5-0.1,0.9-0.6,0.9-1.1c0-0.1-0.9-8,3-12c3.8-4,7.8-8.1,13.2-8.4
	c2.6-0.2,5.3,0.9,7.5,2.9c1.4,1.3,2.3,2.8,2.3,3.9v38.4l-3.8-3.5l-0.1,0.2c0,0,3.5,10,4.6,14.7c0.1,0.3,0.4,0.3,0.5,0
	c1.1-4.7,4.6-14.7,4.6-14.7L53.8,67.5z"/>
<polygon points="49.9,93.9 94,49.8 53.9,49.8 53.9,84.7 43,84.7 43,49.8 5,49.8 5,50.8 "/>
</svg>
