<?xml version="1.0" encoding="utf-8"?>
<!-- Generator: Adobe Illustrator 25.2.0, SVG Export Plug-In . SVG Version: 6.00 Build 0)  -->
<svg version="1.1" id="Layer_1" xmlns="http://www.w3.org/2000/svg" xmlns:xlink="http://www.w3.org/1999/xlink" x="0px" y="0px"
	 viewBox="0 0 100 100" style="enable-background:new 0 0 100 100;" xml:space="preserve">
<path d="M79.2,54.8c-1.1,0-2-0.7-2.4-1.7l0,0c-0.1-0.2-6.5-19.5-20.5-22.1c-12.6-2.3-18.2-0.1-23,4.3c-6.7,6-10.7,17.7-10.8,17.8
	c-0.4,1.3-1.9,2-3.2,1.6c-1.3-0.4-2-1.9-1.6-3.2c0.2-0.5,4.5-13.1,12.2-20c7-6.2,14.6-7.7,27.2-5.4c16.9,3.1,24,24.5,24.3,25.4
	c0.4,1.3-0.3,2.7-1.6,3.1C79.8,54.8,79.5,54.8,79.2,54.8z"/>
<polygon points="45.3,46.1 42.5,42.9 44.9,40 38.8,40 38.8,37.1 33.3,43.4 38.8,49.3 38.8,46.1 "/>
<polygon points="53.9,46.1 56.7,42.9 54.3,40 60.4,40 60.4,37.1 65.8,43.4 60.4,49.3 60.4,46.1 "/>
<path d="M33.3,59.4h-3.5v12.8h-2V59.4h-3.5v-2.1h9.1V59.4z"/>
<path d="M44.6,72.1h-2.4l-2-4c-0.2-0.4-0.3-0.7-0.5-0.9s-0.3-0.5-0.5-0.6c-0.2-0.2-0.4-0.3-0.6-0.4s-0.4-0.1-0.7-0.1h-0.8v6h-2V57.3
	h4c0.6,0,1.1,0.1,1.6,0.2s0.9,0.4,1.3,0.8c0.4,0.3,0.6,0.8,0.8,1.3s0.3,1.1,0.3,1.8c0,0.5-0.1,1-0.2,1.4c-0.1,0.4-0.3,0.8-0.5,1.2
	c-0.2,0.3-0.5,0.6-0.9,0.9c-0.3,0.2-0.7,0.4-1.1,0.6v0c0.2,0.2,0.4,0.3,0.6,0.5s0.3,0.4,0.5,0.6c0.1,0.2,0.3,0.4,0.4,0.7
	c0.1,0.2,0.3,0.5,0.5,0.9L44.6,72.1z M37.1,59.3v4.8h1.7c0.3,0,0.6-0.1,0.9-0.2c0.3-0.1,0.5-0.3,0.7-0.5c0.2-0.2,0.3-0.5,0.5-0.8
	c0.1-0.3,0.2-0.7,0.2-1.1c0-0.7-0.2-1.3-0.6-1.7c-0.4-0.4-0.9-0.6-1.6-0.6H37.1z"/>
<path d="M55.5,66.1c0,4.2-1.6,6.3-4.9,6.3c-3.1,0-4.7-2-4.7-6v-9.1h2v8.6c0,2.9,0.9,4.4,2.8,4.4c1.8,0,2.7-1.4,2.7-4.2v-8.8h2V66.1z
	"/>
<path d="M57.8,71.6V69c0.2,0.2,0.4,0.4,0.7,0.6c0.3,0.2,0.5,0.3,0.8,0.4c0.3,0.1,0.6,0.2,0.9,0.3c0.3,0.1,0.6,0.1,0.8,0.1
	c0.9,0,1.5-0.2,1.9-0.5s0.6-0.8,0.6-1.5c0-0.4-0.1-0.7-0.2-0.9c-0.1-0.3-0.3-0.5-0.6-0.7c-0.3-0.2-0.5-0.4-0.9-0.6s-0.7-0.4-1.1-0.6
	c-0.4-0.3-0.8-0.5-1.2-0.8c-0.4-0.3-0.7-0.6-0.9-0.9c-0.3-0.3-0.5-0.7-0.6-1.1c-0.2-0.4-0.2-0.9-0.2-1.5c0-0.7,0.1-1.3,0.4-1.8
	c0.3-0.5,0.6-0.9,1-1.3c0.4-0.3,0.9-0.6,1.5-0.7s1.1-0.2,1.7-0.2c1.3,0,2.2,0.2,2.8,0.5V60c-0.7-0.6-1.6-0.9-2.7-0.9
	c-0.3,0-0.6,0-0.9,0.1c-0.3,0.1-0.6,0.2-0.8,0.3c-0.2,0.2-0.4,0.4-0.6,0.6c-0.1,0.2-0.2,0.6-0.2,0.9c0,0.3,0.1,0.6,0.2,0.9
	c0.1,0.2,0.3,0.5,0.5,0.7s0.5,0.4,0.8,0.6c0.3,0.2,0.7,0.4,1.1,0.6c0.4,0.3,0.8,0.6,1.2,0.9c0.4,0.3,0.7,0.6,1,1
	c0.3,0.4,0.5,0.8,0.7,1.2c0.2,0.4,0.3,0.9,0.3,1.5c0,0.8-0.1,1.4-0.4,1.9c-0.3,0.5-0.6,0.9-1,1.3c-0.4,0.3-0.9,0.6-1.5,0.7
	c-0.6,0.1-1.1,0.2-1.8,0.2c-0.2,0-0.5,0-0.8-0.1s-0.6-0.1-0.9-0.2s-0.6-0.2-0.9-0.3C58.2,71.8,58,71.7,57.8,71.6z"/>
<path d="M67.4,71.6V69c0.2,0.2,0.4,0.4,0.7,0.6c0.3,0.2,0.5,0.3,0.8,0.4c0.3,0.1,0.6,0.2,0.9,0.3c0.3,0.1,0.6,0.1,0.8,0.1
	c0.9,0,1.5-0.2,1.9-0.5s0.6-0.8,0.6-1.5c0-0.4-0.1-0.7-0.2-0.9c-0.1-0.3-0.3-0.5-0.6-0.7c-0.3-0.2-0.5-0.4-0.9-0.6s-0.7-0.4-1.1-0.6
	c-0.4-0.3-0.8-0.5-1.2-0.8c-0.4-0.3-0.7-0.6-0.9-0.9c-0.3-0.3-0.5-0.7-0.6-1.1c-0.2-0.4-0.2-0.9-0.2-1.5c0-0.7,0.1-1.3,0.4-1.8
	c0.3-0.5,0.6-0.9,1-1.3c0.4-0.3,0.9-0.6,1.5-0.7s1.1-0.2,1.7-0.2c1.3,0,2.2,0.2,2.8,0.5V60c-0.7-0.6-1.6-0.9-2.7-0.9
	c-0.3,0-0.6,0-0.9,0.1c-0.3,0.1-0.6,0.2-0.8,0.3c-0.2,0.2-0.4,0.4-0.6,0.6c-0.1,0.2-0.2,0.6-0.2,0.9c0,0.3,0.1,0.6,0.2,0.9
	c0.1,0.2,0.3,0.5,0.5,0.7s0.5,0.4,0.8,0.6c0.3,0.2,0.7,0.4,1.1,0.6c0.4,0.3,0.8,0.6,1.2,0.9c0.4,0.3,0.7,0.6,1,1
	c0.3,0.4,0.5,0.8,0.7,1.2c0.2,0.4,0.3,0.9,0.3,1.5c0,0.8-0.1,1.4-0.4,1.9c-0.3,0.5-0.6,0.9-1,1.3c-0.4,0.3-0.9,0.6-1.5,0.7
	c-0.6,0.1-1.1,0.2-1.8,0.2c-0.2,0-0.5,0-0.8-0.1s-0.6-0.1-0.9-0.2S68.3,72,68,71.9C67.8,71.8,67.5,71.7,67.4,71.6z"/>
<path d="M21.3,54.8c-0.1,0-0.1,0-0.2,0c-0.1,0-0.1-0.1-0.2-0.1c0-0.1-0.1-0.1-0.1-0.2c0-0.1,0-0.1,0-0.2c0-0.1,0-0.1,0-0.2
	c0-0.1,0.1-0.1,0.1-0.2c0.1,0,0.1-0.1,0.2-0.1c0.2-0.1,0.4,0,0.5,0.1c0.1,0.1,0.2,0.2,0.2,0.4c0,0.1,0,0.1,0,0.2
	c0,0.1-0.1,0.1-0.1,0.2C21.6,54.7,21.5,54.8,21.3,54.8z"/>
<path d="M22.8,54.2c0-0.3,0.2-0.5,0.5-0.5l0,0c0.3,0,0.5,0.2,0.5,0.5l0,0c0,0.3-0.2,0.5-0.5,0.5l0,0c0,0,0,0,0,0l0,0
	C23,54.7,22.8,54.5,22.8,54.2z M24.8,54.2c0-0.3,0.2-0.5,0.5-0.5l0,0c0.3,0,0.5,0.2,0.5,0.5l0,0c0,0.3-0.2,0.5-0.5,0.5l0,0l0,0l0,0
	C25,54.7,24.8,54.5,24.8,54.2z M26.8,54.2c0-0.3,0.2-0.5,0.5-0.5l0,0c0.3,0,0.5,0.2,0.5,0.5l0,0c0,0.3-0.2,0.5-0.5,0.5l0,0
	c0,0,0,0,0,0l0,0C27,54.7,26.8,54.5,26.8,54.2z M28.8,54.2c0-0.3,0.2-0.5,0.5-0.5l0,0c0.3,0,0.5,0.2,0.5,0.5l0,0
	c0,0.3-0.2,0.5-0.5,0.5l0,0h0l0,0C29,54.7,28.8,54.5,28.8,54.2z M30.8,54.2c0-0.3,0.2-0.5,0.5-0.5l0,0c0.3,0,0.5,0.2,0.5,0.5l0,0
	c0,0.3-0.2,0.5-0.5,0.5l0,0l0,0l0,0C31,54.7,30.8,54.5,30.8,54.2z M32.8,54.2c0-0.3,0.2-0.5,0.5-0.5l0,0c0.3,0,0.5,0.2,0.5,0.5l0,0
	c0,0.3-0.2,0.5-0.5,0.5l0,0C33,54.7,32.8,54.5,32.8,54.2z M34.8,54.2c0-0.3,0.2-0.5,0.5-0.5l0,0c0.3,0,0.5,0.2,0.5,0.5l0,0
	c0,0.3-0.2,0.5-0.5,0.5l0,0C35,54.7,34.8,54.4,34.8,54.2z M36.8,54.2c0-0.3,0.2-0.5,0.5-0.5l0,0c0.3,0,0.5,0.2,0.5,0.5l0,0
	c0,0.3-0.2,0.5-0.5,0.5l0,0l0,0l0,0C37,54.7,36.8,54.4,36.8,54.2z M38.8,54.1c0-0.3,0.2-0.5,0.5-0.5l0,0c0.3,0,0.5,0.2,0.5,0.5l0,0
	c0,0.3-0.2,0.5-0.5,0.5l0,0l0,0l0,0C39,54.6,38.8,54.4,38.8,54.1z M40.8,54.1c0-0.3,0.2-0.5,0.5-0.5l0,0c0.3,0,0.5,0.2,0.5,0.5l0,0
	c0,0.3-0.2,0.5-0.5,0.5l0,0c0,0,0,0,0,0l0,0C41,54.6,40.8,54.4,40.8,54.1z M42.8,54.1c0-0.3,0.2-0.5,0.5-0.5l0,0
	c0.3,0,0.5,0.2,0.5,0.5l0,0c0,0.3-0.2,0.5-0.5,0.5l0,0h0l0,0C43,54.6,42.8,54.4,42.8,54.1z M44.8,54.1c0-0.3,0.2-0.5,0.5-0.5l0,0
	c0.3,0,0.5,0.2,0.5,0.5l0,0c0,0.3-0.2,0.5-0.5,0.5l0,0l0,0l0,0C45,54.6,44.8,54.4,44.8,54.1z M46.8,54.1c0-0.3,0.2-0.5,0.5-0.5l0,0
	c0.3,0,0.5,0.2,0.5,0.5l0,0c0,0.3-0.2,0.5-0.5,0.5l0,0l0,0l0,0C47,54.6,46.8,54.4,46.8,54.1z M48.8,54.1c0-0.3,0.2-0.5,0.5-0.5l0,0
	c0.3,0,0.5,0.2,0.5,0.5l0,0c0,0.3-0.2,0.5-0.5,0.5l0,0h0l0,0C49,54.6,48.8,54.4,48.8,54.1z M50.8,54.1c0-0.3,0.2-0.5,0.5-0.5l0,0
	c0.3,0,0.5,0.2,0.5,0.5l0,0c0,0.3-0.2,0.5-0.5,0.5l0,0c0,0,0,0,0,0l0,0C51,54.6,50.8,54.3,50.8,54.1z M52.8,54.1
	c0-0.3,0.2-0.5,0.5-0.5l0,0c0.3,0,0.5,0.2,0.5,0.5l0,0c0,0.3-0.2,0.5-0.5,0.5l0,0l0,0l0,0C53,54.5,52.8,54.3,52.8,54.1z M54.8,54
	c0-0.3,0.2-0.5,0.5-0.5l0,0c0.3,0,0.5,0.2,0.5,0.5l0,0c0,0.3-0.2,0.5-0.5,0.5l0,0c0,0,0,0,0,0l0,0C55,54.5,54.8,54.3,54.8,54z
	 M56.8,54c0-0.3,0.2-0.5,0.5-0.5l0,0c0.3,0,0.5,0.2,0.5,0.5l0,0c0,0.3-0.2,0.5-0.5,0.5l0,0c0,0,0,0,0,0l0,0
	C57,54.5,56.8,54.3,56.8,54z M58.8,54c0-0.3,0.2-0.5,0.5-0.5l0,0c0.3,0,0.5,0.2,0.5,0.5l0,0c0,0.3-0.2,0.5-0.5,0.5l0,0l0,0l0,0
	C59,54.5,58.8,54.3,58.8,54z M60.8,54c0-0.3,0.2-0.5,0.5-0.5l0,0c0.3,0,0.5,0.2,0.5,0.5l0,0c0,0.3-0.2,0.5-0.5,0.5l0,0
	C61,54.5,60.8,54.3,60.8,54z M62.8,54c0-0.3,0.2-0.5,0.5-0.5l0,0c0.3,0,0.5,0.2,0.5,0.5l0,0c0,0.3-0.2,0.5-0.5,0.5l0,0h0l0,0
	C63,54.5,62.8,54.3,62.8,54z M64.8,54c0-0.3,0.2-0.5,0.5-0.5l0,0c0.3,0,0.5,0.2,0.5,0.5l0,0c0,0.3-0.2,0.5-0.5,0.5l0,0l0,0l0,0
	C65,54.5,64.8,54.2,64.8,54z M66.8,54c0-0.3,0.2-0.5,0.5-0.5l0,0c0.3,0,0.5,0.2,0.5,0.5l0,0c0,0.3-0.2,0.5-0.5,0.5l0,0l0,0l0,0
	C67,54.5,66.8,54.2,66.8,54z M68.8,53.9c0-0.3,0.2-0.5,0.5-0.5l0,0c0.3,0,0.5,0.2,0.5,0.5l0,0c0,0.3-0.2,0.5-0.5,0.5l0,0
	c0,0,0,0,0,0l0,0C69,54.4,68.8,54.2,68.8,53.9z M70.7,53.9c0-0.3,0.2-0.5,0.5-0.5l0,0c0.3,0,0.5,0.2,0.5,0.5l0,0
	c0,0.3-0.2,0.5-0.5,0.5l0,0c0,0,0,0,0,0l0,0C71,54.4,70.7,54.2,70.7,53.9z M72.7,53.9c0-0.3,0.2-0.5,0.5-0.5l0,0
	c0.3,0,0.5,0.2,0.5,0.5l0,0c0,0.3-0.2,0.5-0.5,0.5l0,0l0,0l0,0C73,54.4,72.7,54.2,72.7,53.9z M74.7,53.9c0-0.3,0.2-0.5,0.5-0.5l0,0
	c0.3,0,0.5,0.2,0.5,0.5l0,0c0,0.3-0.2,0.5-0.5,0.5l0,0l0,0l0,0C75,54.4,74.7,54.2,74.7,53.9z M76.7,53.9c0-0.3,0.2-0.5,0.5-0.5l0,0
	c0.3,0,0.5,0.2,0.5,0.5l0,0c0,0.3-0.2,0.5-0.5,0.5l0,0h0l0,0C77,54.4,76.7,54.2,76.7,53.9z"/>
<path d="M79.2,54.4c-0.1,0-0.3,0-0.4-0.1c-0.1-0.1-0.1-0.2-0.1-0.4s0.1-0.3,0.1-0.4c0.2-0.2,0.5-0.2,0.7,0c0.1,0.1,0.2,0.2,0.2,0.4
	s0,0.3-0.2,0.4C79.5,54.3,79.4,54.4,79.2,54.4z"/>
</svg>
