<?xml version="1.0" encoding="utf-8"?>
<!-- Generator: Adobe Illustrator 25.2.0, SVG Export Plug-In . SVG Version: 6.00 Build 0)  -->
<svg version="1.1" id="Layer_1" xmlns="http://www.w3.org/2000/svg" xmlns:xlink="http://www.w3.org/1999/xlink" x="0px" y="0px"
	 viewBox="0 0 100 100" style="enable-background:new 0 0 100 100;" xml:space="preserve">
<path d="M34.3,43.9l-0.6-2.4h-4.9l-0.6,2.4c-0.2,0.9-0.4,1.6-0.6,1.9c-0.2,0.3-0.4,0.5-0.8,0.5c-0.3,0-0.6-0.2-0.8-0.5
	c-0.2-0.4-0.4-0.8-0.4-1.2c0-0.3,0-0.5,0.1-0.8s0.1-0.7,0.3-1.1l3.1-12.2c0.1-0.4,0.2-0.8,0.3-1.3c0.1-0.5,0.3-0.9,0.4-1.2
	c0.1-0.3,0.3-0.6,0.6-0.8c0.2-0.2,0.5-0.3,0.8-0.3c0.3,0,0.6,0.1,0.9,0.3c0.2,0.2,0.4,0.5,0.6,0.8c0.1,0.3,0.3,0.7,0.4,1
	c0.1,0.4,0.2,0.9,0.4,1.5l3.2,12.2c0.2,0.9,0.4,1.6,0.4,2c0,0.4-0.1,0.8-0.4,1.2c-0.2,0.4-0.5,0.5-0.8,0.5c-0.2,0-0.4-0.1-0.5-0.2
	c-0.1-0.1-0.3-0.3-0.3-0.4c-0.1-0.2-0.2-0.5-0.3-0.8C34.5,44.5,34.4,44.2,34.3,43.9z M29.4,38.6H33l-1.8-7.8L29.4,38.6z"/>
<path d="M45.1,30.3h-2.7V44c0,0.8-0.1,1.4-0.3,1.8c-0.2,0.4-0.5,0.6-0.9,0.6c-0.4,0-0.7-0.2-0.9-0.6s-0.3-1-0.3-1.7V30.3h-2.7
	c-0.4,0-0.7-0.1-0.9-0.4c-0.2-0.3-0.3-0.7-0.3-1.1c0-0.5,0.1-0.9,0.3-1.2c0.2-0.3,0.5-0.4,0.9-0.4h7.8c0.4,0,0.7,0.1,0.9,0.4
	s0.3,0.7,0.3,1.1c0,0.5-0.1,0.9-0.3,1.1C45.8,30.2,45.5,30.3,45.1,30.3z"/>
<path d="M55.6,30.3h-2.7V44c0,0.8-0.1,1.4-0.3,1.8c-0.2,0.4-0.5,0.6-0.9,0.6c-0.4,0-0.7-0.2-0.9-0.6s-0.3-1-0.3-1.7V30.3h-2.7
	c-0.4,0-0.7-0.1-0.9-0.4c-0.2-0.3-0.3-0.7-0.3-1.1c0-0.5,0.1-0.9,0.3-1.2c0.2-0.3,0.5-0.4,0.9-0.4h7.8c0.4,0,0.7,0.1,0.9,0.4
	s0.3,0.7,0.3,1.1c0,0.5-0.1,0.9-0.3,1.1C56.3,30.2,56,30.3,55.6,30.3z"/>
<path d="M58.4,44V29.2c0-0.8,0.1-1.4,0.3-1.7c0.2-0.4,0.5-0.6,0.9-0.6c0.4,0,0.7,0.2,0.9,0.6c0.2,0.4,0.3,1,0.3,1.7V44
	c0,0.8-0.1,1.4-0.3,1.7c-0.2,0.4-0.5,0.6-0.9,0.6c-0.4,0-0.6-0.2-0.9-0.6C58.5,45.4,58.4,44.8,58.4,44z"/>
<path d="M73.9,40.1c0,0.6-0.1,1.2-0.3,1.9c-0.2,0.7-0.5,1.4-0.9,2.1c-0.4,0.7-0.9,1.2-1.6,1.6c-0.6,0.4-1.4,0.6-2.2,0.6
	c-0.6,0-1.2-0.1-1.7-0.3c-0.5-0.2-1-0.5-1.4-0.9c-0.4-0.4-0.8-0.9-1.2-1.6c-0.3-0.6-0.6-1.3-0.8-2c-0.2-0.7-0.4-1.5-0.5-2.3
	c-0.1-0.8-0.2-1.7-0.2-2.6c0-1.5,0.1-2.9,0.4-4.1s0.7-2.2,1.2-3.1c0.5-0.9,1.1-1.5,1.9-1.9c0.7-0.4,1.5-0.7,2.3-0.7
	c1,0,1.8,0.3,2.6,0.9c0.8,0.6,1.3,1.4,1.8,2.3c0.4,0.9,0.6,1.7,0.6,2.5c0,0.4-0.1,0.8-0.3,1.2s-0.4,0.5-0.7,0.5
	c-0.3,0-0.5-0.1-0.7-0.3c-0.2-0.2-0.3-0.6-0.5-1.2c-0.3-0.9-0.7-1.6-1.1-2.1c-0.4-0.5-1-0.7-1.6-0.7c-1,0-1.8,0.6-2.4,1.8
	s-0.9,2.9-0.9,5.1c0,1.5,0.1,2.7,0.4,3.7c0.3,1,0.6,1.7,1.1,2.2c0.5,0.5,1,0.7,1.7,0.7c0.7,0,1.3-0.3,1.8-0.8
	c0.5-0.5,0.9-1.3,1.1-2.4c0.1-0.5,0.2-0.9,0.4-1.2c0.2-0.3,0.4-0.5,0.7-0.5c0.3,0,0.5,0.2,0.8,0.5C73.8,39.2,73.9,39.6,73.9,40.1z"
	/>
<rect x="29" y="49.5" width="42" height="1.5"/>
<path d="M31.7,50.2l3.3-5.4l-0.2-0.1L26,48.2c-3.1,0.7-6.1,1.4-9.2,2c3.1,0.7,6.1,1.4,9.2,2l8.8,3.5l0.2-0.1L31.7,50.2z"/>
<path d="M68.3,50.2L65,44.8l0.2-0.1l8.8,3.5c3.1,0.7,6.1,1.4,9.2,2c-3.1,0.7-6.1,1.4-9.2,2l-8.8,3.5L65,55.7L68.3,50.2z"/>
<path style="fill:#AEAEAE;" d="M61.6,53.1v-0.9H38.4v1l-10.7,8.9h5.4v14.2l4.2,4.8h26.9l4.4-4.4V62.2h4.7L61.6,53.1z M39.6,69.5H35
	v-4h4.5V69.5z M43.4,80.5h-3.3v-7.4h3.3V80.5z M48.2,69.5h-4.5v-4h4.5V69.5z M57.3,69.5h-4.5v-4h4.5V69.5z M61.4,80.5h-3.3v-7.4h3.3
	V80.5z M65.9,69.5h-4.5v-4h4.5V69.5z M30.2,61.4l8.7-7.6h22.3l9.5,7.6L30.2,61.4z"/>
</svg>
