<?xml version="1.0" encoding="utf-8"?>
<!-- Generator: Adobe Illustrator 25.2.0, SVG Export Plug-In . SVG Version: 6.00 Build 0)  -->
<svg version="1.1" id="Layer_1" xmlns="http://www.w3.org/2000/svg" xmlns:xlink="http://www.w3.org/1999/xlink" x="0px" y="0px"
	 viewBox="0 0 100 100" style="enable-background:new 0 0 100 100;" xml:space="preserve">
<path style="fill:#E7443A;" d="M50,20.8c-16.2,0-29.5,13.1-29.5,29.2c0,16.1,13.2,29.2,29.5,29.2S79.5,66.1,79.5,50
	C79.5,33.9,66.2,20.8,50,20.8z M49.6,73.3c-12.7,0-23-10.3-23-23c0-5.3,1.8-10.2,4.8-14.1l31.9,32.6C59.5,71.6,54.7,73.3,49.6,73.3z
	 M67.7,64.5L35.6,32c3.9-3,8.7-4.7,14-4.7c12.7,0,23,10.3,23,23C72.6,55.6,70.8,60.6,67.7,64.5z"/>
<g>
	<path d="M68.6,35.5l-7.9,32.2h-5.4l-5.5-22.5c-0.2-1-0.4-2-0.4-3.1h-0.1c-0.1,1.1-0.2,2.1-0.5,3.1l-5.5,22.6h-5.5l-8.1-32.2h5.3
		l5.2,23.6c0.2,1,0.3,2,0.4,3.1h0.1c0.1-0.8,0.2-1.8,0.6-3.1l5.9-23.6h4.9l5.5,23.8c0.2,0.8,0.3,1.8,0.4,2.9H58c0-0.7,0.2-1.7,0.5-3
		l5.1-23.7H68.6z"/>
	<path style="fill:#FFFFFF;" d="M60.9,68h-5.8l-5.5-22.7c-0.1-0.4-0.2-0.8-0.2-1.3c-0.1,0.4-0.2,0.8-0.3,1.2L43.5,68h-5.9l0-0.2
		l-8.2-32.5h5.8l5.3,23.8c0.1,0.5,0.2,1,0.3,1.5c0.1-0.4,0.2-0.9,0.3-1.5l6-23.8h5.3l5.5,24c0.1,0.4,0.2,0.8,0.2,1.2
		c0.1-0.4,0.2-0.8,0.3-1.3l5.2-23.9h5.5L60.9,68z M55.5,67.5h5l7.8-31.7h-4.4l-5.1,23.5c-0.3,1.2-0.4,2.2-0.5,2.9l0,0.2h-0.5l0-0.2
		c-0.1-1.1-0.2-2-0.4-2.8l-5.4-23.6h-4.5l-5.9,23.4c-0.3,1.3-0.5,2.3-0.6,3.1l0,0.2h-0.6l0-0.2c-0.1-1.1-0.2-2.1-0.4-3.1l-5.2-23.4
		H30l8,31.7h5.2l5.5-22.4c0.3-1,0.4-2,0.5-3.1l0-0.2h0.6l0,0.2c0.1,1.1,0.2,2.2,0.4,3.1L55.5,67.5z"/>
</g>
</svg>
