<?xml version="1.0" encoding="utf-8"?>
<!-- Generator: Adobe Illustrator 25.2.0, SVG Export Plug-In . SVG Version: 6.00 Build 0)  -->
<svg version="1.1" id="Layer_1" xmlns="http://www.w3.org/2000/svg" xmlns:xlink="http://www.w3.org/1999/xlink" x="0px" y="0px"
	 viewBox="0 0 100 100" style="enable-background:new 0 0 100 100;" xml:space="preserve">
<ellipse cx="49.6" cy="43.5" rx="3.2" ry="3"/>
<path d="M55.3,41.7l-3.6,5.7l-4.3,0.1L43,42.3c0,0-1.4-0.6-1,0.9s4.9,6.2,4.9,6.2S46,62.8,46,63.7c0,0.9,1.7,1.4,2.1,0
	c0.3-1.4,0.6-8,0.6-8l1.2,0c0,0,0.5,8.2,0.8,8.8s1.8,1,1.9-0.9s-1.5-9.4-1.4-11.3c0.1-1.9,4.3-8.1,4.3-8.1l0.8-1.6
	C56.3,42.7,56.8,41.1,55.3,41.7z"/>
<path d="M50,21.5c-16.3,0-29.5,12.7-29.5,28.5S33.7,78.5,50,78.5c16.3,0,29.5-12.7,29.5-28.5S66.3,21.5,50,21.5z M50,23
	c15.4,0,28,12.1,28,27H22C22,35.1,34.6,23,50,23z M50,77c-14.7,0-26.8-11-27.9-25h55.8C76.8,66,64.7,77,50,77z"/>
</svg>
