<?xml version="1.0" encoding="utf-8"?>
<!-- Generator: Adobe Illustrator 25.2.0, SVG Export Plug-In . SVG Version: 6.00 Build 0)  -->
<svg version="1.1" id="Layer_1" xmlns="http://www.w3.org/2000/svg" xmlns:xlink="http://www.w3.org/1999/xlink" x="0px" y="0px"
	 viewBox="0 0 100 100" style="enable-background:new 0 0 100 100;" xml:space="preserve">
<path d="M49.6,62.7l6.9-10.1c0.3-0.5,0-1.1-0.6-1.1h-2.5v-4.1H46v4.1h-2.7c-0.5,0-0.9,0.6-0.6,1.1L49.6,62.7z"/>
<path d="M30,43l-13.1,5l27,32.4c0.3,0.4,0.9,0.4,1.2,0l0.5-0.4c0.3-0.3,0.3-0.8,0-1.1l-6.7-7.8l9-2.8l-0.8,6.3l1.6,0.2l0.9-5.7
	l1.4,1.4l1-1.1L30,43z M20.2,49l8.9-3.4l-1.9,11.6L20.2,49z M30.8,47l6.6,8l-8.4,3.3L30.8,47z M36.4,68.7l-7-8.4l8.8-2.8L36.4,68.7z
	 M38.2,69.3l2-10.9l6.4,8L38.2,69.3z"/>
<path d="M70.8,46.5L51.2,62.7c0,0-0.5,2,1.3,1.7l6.4-5.2L59.1,71l-4.3-3.2c0,0-1-0.1-1.3,0.3c-0.3,0.4-0.3,1.2,0.4,1.6
	c0.6,0.5,4.3,3,4.3,3s-1.9,2.1-1.5,2.3c0.5,0.2,1.6,0.9,2.9,0c1.3-0.9,23.6-19.3,23.6-19.3L70.8,46.5z M61.1,70.9L60.7,59l8.2,5.5
	L61.1,70.9z M61.9,57l8.1-6.7l0.3,12.4L61.9,57z M72,50.2l7.9,5.8L72,61.8V50.2z"/>
</svg>
