<?xml version="1.0" encoding="utf-8"?>
<!-- Generator: Adobe Illustrator 25.2.0, SVG Export Plug-In . SVG Version: 6.00 Build 0)  -->
<svg version="1.1" id="Layer_1" xmlns="http://www.w3.org/2000/svg" xmlns:xlink="http://www.w3.org/1999/xlink" x="0px" y="0px"
	 viewBox="0 0 100 100" style="enable-background:new 0 0 100 100;" xml:space="preserve">
<path style="fill:#75140C;" d="M38.7,40.7c5.6-1.3,6.4,5.4,6.4,5.4s9-2.1,4.2-8.5s-2.8-11.3-2.8-11.3s3.1,2.8,8.7,6.4
	c5.6,3.6,1.3,15.9,2.4,12.1s7.7-7.2,7.7-7.2s1.3,6.4-1.8,9.6c-3,3.3-3.4,7.7-3.4,7.7c2.5-4.5,7.1-5.1,7.1-5.1c1.3,6.5-3.5,20-3.5,20
	s-5.9,9.3-21,6.2c0,0-15.1-2.3-11.5-15.2c0,0,0.6,2.5,3.1,2.5s4-4.5,4-4.5s-5.6-3.4-5-7.8s3.1-9.6,3.1-9.6L38.7,40.7z"/>
<path style="fill:#75140C;" d="M33,39.2l5.8-9.4c0,0,1-2.1-0.7-4.9s-2.8-2.5-2.8-2.5l-4.5,10.4C30.7,32.7,29.5,36.5,33,39.2z"/>
<path style="fill:#75140C;" d="M59.3,16.6c0,0-4.5,5.3-1.9,10.4s4.2,6.6,4.2,6.6s2.3-3.5,2.3-4.6S61.7,18.6,59.3,16.6z"/>
<path d="M22.7,41v15.6h7c0.6,0,1,0.2,1.3,0.5c0.3,0.3,0.4,0.8,0.4,1.3c0,0.5-0.1,1-0.4,1.3c-0.3,0.3-0.7,0.5-1.3,0.5h-8.3
	c-0.7,0-1.3-0.2-1.6-0.6c-0.3-0.4-0.5-1.1-0.5-2V41c0-0.9,0.2-1.5,0.5-2c0.3-0.4,0.7-0.7,1.2-0.7c0.5,0,0.9,0.2,1.3,0.7
	C22.6,39.5,22.7,40.1,22.7,41z"/>
<path style="fill:#FFFFFF;" d="M29.7,60.7h-8.3c-0.9,0-1.6-0.3-2-0.8c-0.4-0.5-0.6-1.3-0.6-2.3V41c0-1,0.2-1.7,0.6-2.3
	c0.4-0.6,1-0.9,1.6-0.9c0.7,0,1.2,0.3,1.7,0.9c0.4,0.5,0.6,1.3,0.6,2.3v15.1h6.5c0.7,0,1.3,0.2,1.7,0.7c0.4,0.4,0.6,1,0.6,1.6
	c0,0.7-0.2,1.2-0.6,1.6C31,60.5,30.4,60.7,29.7,60.7z M21,38.9c-0.3,0-0.6,0.1-0.8,0.4c-0.2,0.4-0.4,0.9-0.4,1.7v16.5
	c0,0.8,0.1,1.4,0.4,1.7c0.2,0.3,0.6,0.4,1.2,0.4h8.3c0.4,0,0.7-0.1,0.9-0.3c0.2-0.2,0.3-0.5,0.3-0.9c0-0.4-0.1-0.7-0.3-1
	c-0.2-0.2-0.5-0.3-0.9-0.3h-7.5V41c0-0.8-0.1-1.3-0.4-1.7C21.6,39,21.4,38.9,21,38.9z"/>
<path d="M40,38.4c1.8,0,3.3,0.5,4.5,1.4s2.2,2.2,2.9,3.9s1,3.6,1,5.9c0,1.7-0.2,3.2-0.5,4.5c-0.4,1.4-0.9,2.5-1.6,3.5
	c-0.7,1-1.6,1.8-2.6,2.3c-1,0.5-2.2,0.8-3.6,0.8c-1.3,0-2.5-0.3-3.6-0.8c-1-0.5-1.9-1.3-2.6-2.3c-0.7-1-1.2-2.2-1.6-3.6
	c-0.4-1.4-0.5-2.9-0.5-4.5c0-1.7,0.2-3.2,0.6-4.5c0.4-1.4,0.9-2.6,1.6-3.5c0.7-1,1.6-1.7,2.6-2.2C37.5,38.6,38.7,38.4,40,38.4z
	 M44.9,49.4c0-1.6-0.2-2.9-0.6-4.1s-1-2-1.7-2.6c-0.7-0.6-1.6-0.9-2.6-0.9c-0.7,0-1.3,0.2-1.9,0.5c-0.6,0.3-1.1,0.8-1.5,1.4
	s-0.8,1.4-1,2.4s-0.4,2.1-0.4,3.3c0,1.2,0.1,2.3,0.4,3.3c0.2,1,0.6,1.8,1,2.5c0.4,0.6,1,1.1,1.5,1.5c0.6,0.3,1.2,0.5,1.9,0.5
	c0.9,0,1.7-0.3,2.4-0.8c0.7-0.6,1.3-1.4,1.8-2.6C44.6,52.6,44.9,51.1,44.9,49.4z"/>
<path style="fill:#FFFFFF;" d="M40,61.1c-1.4,0-2.7-0.3-3.8-0.9c-1.1-0.6-2.1-1.4-2.8-2.4c-0.7-1-1.3-2.3-1.7-3.7
	c-0.4-1.4-0.6-3-0.6-4.6c0-1.7,0.2-3.3,0.6-4.7c0.4-1.4,1-2.7,1.7-3.7c0.8-1,1.7-1.8,2.8-2.4c1.1-0.5,2.3-0.8,3.7-0.8
	c1.9,0,3.5,0.5,4.8,1.4c1.3,1,2.4,2.3,3,4.1c0.7,1.7,1,3.8,1,6.1c0,1.7-0.2,3.3-0.5,4.7c-0.4,1.4-0.9,2.7-1.7,3.7
	c-0.8,1.1-1.7,1.9-2.8,2.4C42.7,60.8,41.4,61.1,40,61.1z M40,38.9c-1.2,0-2.3,0.2-3.2,0.7c-0.9,0.5-1.8,1.2-2.4,2.1
	c-0.7,0.9-1.2,2-1.5,3.4c-0.4,1.3-0.5,2.8-0.5,4.4c0,1.6,0.2,3,0.5,4.4c0.3,1.3,0.9,2.5,1.5,3.4c0.7,0.9,1.5,1.6,2.4,2.1
	c1,0.5,2.1,0.8,3.3,0.8c1.2,0,2.4-0.2,3.3-0.7c1-0.5,1.8-1.2,2.4-2.1c0.7-0.9,1.2-2.1,1.5-3.4c0.3-1.3,0.5-2.8,0.5-4.4
	c0-2.2-0.3-4.1-0.9-5.7c-0.6-1.6-1.5-2.8-2.7-3.6C43,39.3,41.6,38.9,40,38.9z M40,57.6c-0.8,0-1.5-0.2-2.1-0.5
	c-0.6-0.4-1.2-0.9-1.7-1.6c-0.5-0.7-0.8-1.6-1.1-2.6c-0.3-1-0.4-2.2-0.4-3.4c0-1.2,0.1-2.4,0.4-3.4c0.3-1,0.6-1.9,1.1-2.6
	c0.5-0.7,1-1.2,1.7-1.6c0.7-0.4,1.4-0.6,2.1-0.6c1.1,0,2,0.3,2.9,1c0.8,0.6,1.4,1.6,1.9,2.8c0.4,1.2,0.6,2.6,0.6,4.3
	c0,1.8-0.2,3.3-0.7,4.5c-0.5,1.2-1.1,2.2-1.9,2.8C41.9,57.3,41,57.6,40,57.6z M40,42.3c-0.6,0-1.2,0.1-1.7,0.4
	c-0.5,0.3-1,0.7-1.3,1.3c-0.4,0.6-0.7,1.3-0.9,2.2c-0.2,0.9-0.4,2-0.4,3.2c0,1.2,0.1,2.2,0.4,3.2c0.2,0.9,0.6,1.7,1,2.3
	c0.4,0.6,0.9,1,1.4,1.3c0.5,0.3,1,0.4,1.6,0.4c0.8,0,1.5-0.2,2.1-0.7c0.7-0.5,1.2-1.3,1.6-2.4c0.4-1.1,0.6-2.5,0.6-4.1
	c0-1.5-0.2-2.8-0.6-3.9c-0.4-1.1-0.9-1.9-1.6-2.4C41.6,42.6,40.8,42.3,40,42.3z"/>
<path d="M61.2,57.8l-0.8-2.7h-6.9l-0.8,2.8c-0.3,1.1-0.6,1.8-0.8,2.2c-0.2,0.4-0.6,0.6-1.1,0.6c-0.4,0-0.8-0.2-1.1-0.6
	c-0.3-0.4-0.5-0.9-0.5-1.4c0-0.3,0-0.6,0.1-0.9s0.2-0.7,0.4-1.3l4.3-14c0.1-0.4,0.3-0.9,0.4-1.4c0.2-0.6,0.4-1,0.6-1.4
	c0.2-0.4,0.5-0.7,0.8-0.9c0.3-0.2,0.7-0.3,1.2-0.3c0.5,0,0.9,0.1,1.2,0.3c0.3,0.2,0.6,0.5,0.8,0.9c0.2,0.4,0.4,0.8,0.5,1.2
	c0.1,0.4,0.3,1,0.5,1.7l4.4,13.9c0.3,1.1,0.5,1.8,0.5,2.3c0,0.5-0.2,1-0.5,1.4c-0.3,0.4-0.7,0.6-1.2,0.6c-0.3,0-0.5-0.1-0.7-0.2
	c-0.2-0.1-0.4-0.3-0.5-0.5c-0.1-0.2-0.3-0.5-0.4-1C61.5,58.5,61.3,58.1,61.2,57.8z M54.4,51.8h5.1L56.9,43L54.4,51.8z"/>
<path style="fill:#FFFFFF;" d="M63.2,61.1c-0.4,0-0.7-0.1-1-0.3c-0.3-0.2-0.5-0.4-0.6-0.7c-0.2-0.2-0.3-0.6-0.5-1.1
	c-0.2-0.4-0.3-0.8-0.4-1.2l0,0L60,55.6h-6.2L53.2,58c-0.3,1.1-0.6,1.9-0.9,2.3c-0.2,0.4-0.7,0.8-1.5,0.8c-0.6,0-1.1-0.3-1.5-0.8
	c-0.4-0.5-0.6-1.1-0.6-1.7c0-0.3,0-0.7,0.1-1c0.1-0.3,0.2-0.8,0.4-1.3L54,40.9c0.2-0.6,0.4-1.1,0.6-1.5c0.2-0.4,0.5-0.8,0.9-1.1
	c0.8-0.6,2.2-0.6,3,0c0.4,0.3,0.7,0.6,0.9,1.1c0.2,0.4,0.4,0.8,0.5,1.2c0.1,0.4,0.3,1,0.5,1.7l4.4,13.9c0.4,1.1,0.5,1.9,0.5,2.5
	c0,0.6-0.2,1.2-0.6,1.7C64.4,60.8,63.8,61.1,63.2,61.1z M61.7,57.7c0.1,0.3,0.2,0.7,0.4,1.1c0.2,0.5,0.3,0.7,0.4,0.9
	c0.1,0.1,0.2,0.3,0.3,0.3c0.1,0.1,0.3,0.1,0.4,0.1c0.3,0,0.6-0.1,0.8-0.4c0.3-0.3,0.4-0.7,0.4-1.1c0-0.3-0.1-0.9-0.5-2.1l-4.4-13.9
	c-0.2-0.7-0.4-1.2-0.5-1.7c-0.1-0.4-0.3-0.8-0.5-1.1c-0.2-0.3-0.4-0.5-0.6-0.7c-0.5-0.3-1.3-0.3-1.8,0c-0.3,0.2-0.5,0.4-0.6,0.7
	c-0.2,0.3-0.4,0.8-0.5,1.3l-4.8,15.4c-0.2,0.5-0.3,1-0.4,1.3c-0.1,0.3-0.1,0.5-0.1,0.8c0,0.4,0.1,0.7,0.4,1c0.3,0.4,0.6,0.4,0.8,0.4
	c0.4,0,0.6-0.2,0.7-0.3c0.1-0.2,0.4-0.8,0.8-2.1l0.9-3.1h7.6L61.7,57.7z M60.2,52.3h-6.4l3.2-11.2L60.2,52.3z M55.1,51.3h3.7
	l-1.9-6.5L55.1,51.3z"/>
<path d="M69.5,38.7H74c1.2,0,2.2,0.1,3,0.4c0.8,0.3,1.6,0.8,2.3,1.5c1.8,1.9,2.7,4.8,2.7,8.7c0,1.3-0.1,2.5-0.3,3.5
	c-0.2,1.1-0.5,2-0.8,2.9c-0.4,0.9-0.8,1.6-1.4,2.3c-0.5,0.5-1,0.9-1.5,1.2c-0.5,0.3-1.1,0.5-1.7,0.7s-1.3,0.2-2.1,0.2h-4.5
	c-0.6,0-1.1-0.1-1.4-0.4c-0.3-0.2-0.5-0.6-0.6-1c-0.1-0.4-0.1-1-0.1-1.7V41.4c0-0.9,0.2-1.6,0.5-2C68.3,39,68.8,38.7,69.5,38.7z
	 M70.9,42.2v14.6h2.6c0.6,0,1,0,1.3-0.1c0.3,0,0.7-0.1,1-0.3c0.3-0.2,0.6-0.4,0.9-0.7c1.1-1.2,1.7-3.4,1.7-6.4
	c0-2.1-0.3-3.7-0.8-4.8c-0.5-1.1-1.1-1.7-1.9-2c-0.7-0.3-1.6-0.4-2.7-0.4H70.9z"/>
<path style="fill:#FFFFFF;" d="M74.1,60.7h-4.5c-0.7,0-1.3-0.2-1.7-0.5c-0.4-0.3-0.7-0.8-0.8-1.3c-0.1-0.5-0.2-1.1-0.2-1.8V41.4
	c0-1.1,0.2-1.8,0.6-2.3c0.4-0.5,1.1-0.8,2-0.8H74c1.2,0,2.3,0.1,3.2,0.4c0.9,0.3,1.7,0.9,2.5,1.7c1.8,2,2.8,5,2.8,9.1
	c0,1.3-0.1,2.5-0.3,3.6c-0.2,1.1-0.5,2.1-0.9,3c-0.4,0.9-0.9,1.7-1.5,2.4c-0.5,0.6-1,1-1.6,1.4c-0.6,0.3-1.2,0.6-1.9,0.7
	C75.6,60.7,74.9,60.7,74.1,60.7z M69.5,39.2c-0.6,0-1,0.1-1.2,0.4c-0.3,0.3-0.4,0.9-0.4,1.7v15.8c0,0.7,0,1.2,0.1,1.6
	c0.1,0.3,0.2,0.6,0.4,0.7c0.2,0.2,0.6,0.3,1.1,0.3h4.5c0.7,0,1.4-0.1,2-0.2c0.6-0.1,1.1-0.3,1.6-0.6c0.5-0.3,0.9-0.7,1.4-1.1
	c0.5-0.6,1-1.4,1.3-2.2c0.4-0.8,0.6-1.7,0.8-2.8c0.2-1,0.3-2.2,0.3-3.5c0-3.8-0.8-6.6-2.5-8.4c-0.6-0.7-1.3-1.2-2.1-1.4
	c-0.8-0.3-1.7-0.4-2.8-0.4H69.5z M73.5,57.3h-3.1V41.7h2.8c1.1,0,2.1,0.2,2.9,0.5c0.9,0.3,1.6,1.1,2.1,2.3c0.5,1.1,0.8,2.8,0.8,5
	c0,3.2-0.6,5.4-1.9,6.7c-0.3,0.3-0.7,0.6-1.1,0.8c-0.4,0.2-0.8,0.3-1.2,0.3C74.5,57.3,74.1,57.3,73.5,57.3z M71.4,56.3h2.1
	c0.5,0,1,0,1.3-0.1c0.3,0,0.6-0.1,0.9-0.3c0.3-0.1,0.5-0.3,0.7-0.5c1.1-1.1,1.6-3.2,1.6-6c0-2-0.2-3.6-0.7-4.5
	c-0.4-0.9-1-1.5-1.6-1.8c-0.7-0.3-1.5-0.4-2.5-0.4h-1.8V56.3z"/>
<path d="M49,81.1l-0.4-7c-0.1-1.4-0.1-2.4-0.1-2.9c0-0.8,0.2-1.4,0.5-1.9c0.3-0.5,0.8-0.7,1.3-0.7c0.7,0,1.1,0.3,1.3,0.9
	c0.2,0.6,0.3,1.4,0.3,2.5c0,0.6,0,1.3-0.1,2l-0.5,7.2c-0.1,0.9-0.2,1.5-0.3,2c-0.2,0.5-0.5,0.7-0.9,0.7c-0.4,0-0.7-0.2-0.9-0.7
	C49.2,82.7,49.1,82.1,49,81.1z M50.3,90.8c-0.5,0-0.9-0.2-1.2-0.6c-0.4-0.4-0.5-0.9-0.5-1.6c0-0.6,0.2-1.1,0.5-1.5
	c0.3-0.4,0.7-0.6,1.2-0.6c0.5,0,0.9,0.2,1.2,0.6c0.3,0.4,0.5,0.9,0.5,1.5c0,0.7-0.2,1.2-0.5,1.6C51.2,90.6,50.8,90.8,50.3,90.8z"/>
<path style="fill:#FFFFFF;" d="M50.3,91.3c-0.6,0-1.2-0.2-1.6-0.7c-0.4-0.5-0.7-1.1-0.7-2c0-0.7,0.2-1.3,0.6-1.9
	c0.9-1.1,2.4-1.1,3.3,0c0.4,0.5,0.6,1.1,0.6,1.9c0,0.8-0.2,1.5-0.6,1.9C51.5,91,50.9,91.3,50.3,91.3z M50.3,86.9
	c-0.3,0-0.6,0.1-0.8,0.4c-0.3,0.3-0.4,0.7-0.4,1.2c0,0.6,0.1,1,0.4,1.3c0.5,0.6,1.2,0.6,1.7,0c0.3-0.3,0.4-0.7,0.4-1.3
	c0-0.5-0.1-0.9-0.4-1.2C50.9,87,50.6,86.9,50.3,86.9z M50.3,84.3c-0.6,0-1.1-0.4-1.3-1c-0.2-0.5-0.3-1.2-0.4-2.2l0,0l-0.4-7
	c-0.1-1.4-0.1-2.4-0.1-3c0-0.9,0.2-1.7,0.6-2.2c0.4-0.6,1-0.9,1.7-0.9c0.9,0,1.5,0.4,1.8,1.2c0.2,0.6,0.4,1.5,0.4,2.7
	c0,0.7,0,1.3-0.1,2L52,81.2c-0.1,0.9-0.2,1.6-0.4,2.1C51.3,84.2,50.6,84.3,50.3,84.3z M49.5,81.1c0.1,0.9,0.2,1.5,0.3,1.9
	c0.1,0.3,0.3,0.3,0.4,0.3c0.1,0,0.3,0,0.4-0.4c0.2-0.4,0.3-1,0.3-1.8l0.5-7.2c0.1-0.7,0.1-1.3,0.1-1.9c0-1-0.1-1.8-0.3-2.3
	c-0.1-0.4-0.4-0.6-0.9-0.6c-0.4,0-0.7,0.2-0.9,0.5c-0.3,0.4-0.4,0.9-0.4,1.6c0,0.6,0,1.6,0.1,2.9L49.5,81.1z"/>
</svg>
