<?xml version="1.0" encoding="utf-8"?>
<!-- Generator: Adobe Illustrator 25.2.0, SVG Export Plug-In . SVG Version: 6.00 Build 0)  -->
<svg version="1.1" id="Layer_1" xmlns="http://www.w3.org/2000/svg" xmlns:xlink="http://www.w3.org/1999/xlink" x="0px" y="0px"
	 viewBox="0 0 100 100" style="enable-background:new 0 0 100 100;" xml:space="preserve">
<path style="fill:#EB3223;" d="M44.8,49.4c0,0,4.5-0.9,2.1-4.2c-2.4-3.3-4.9-4.6-4.4-8.5c0,0,1.9-0.5,3.3,1.3
	c1.4,1.8,3.9,0.1,1.8-3.6s-5.2-5.3-5.2-5.3s3.7-1.2,5.5,0s2.3,3.3,4.2,2.2s4-2.7,4-2.7s1.3,4,1.5,5.7s1,8.1,1,8.7
	c0,0.6,1.8,2.2-1.2,5.4s-4.4,4.8-6.7,4.9C48.5,53.4,44.8,49.4,44.8,49.4z"/>
<path d="M50.7,53.5c-2.4,0-5.9-3.8-6.1-4l-0.3-0.3l0.4-0.1c0,0,2-0.4,2.5-1.6c0.2-0.6,0-1.4-0.6-2.2c-0.6-0.8-1.2-1.5-1.8-2.2
	c-1.7-1.9-3-3.5-2.6-6.4l0-0.2l0.2,0c0.1,0,2.1-0.5,3.6,1.4c0.5,0.6,1.1,0.8,1.6,0.5c0.7-0.5,0.9-1.8-0.3-3.8
	c-2.1-3.6-5-5.2-5.1-5.2L41.7,29l0.6-0.2c0.2,0,3.8-1.2,5.7,0c0.6,0.4,1.1,0.9,1.5,1.4c0.8,0.9,1.3,1.5,2.5,0.8
	c1.9-1.1,3.9-2.7,4-2.7l0.3-0.2l0.1,0.3c0.1,0.2,1.3,4,1.6,5.7c0.2,1.6,1,8.1,1,8.8c0,0.1,0.1,0.2,0.1,0.4c0.4,0.9,1.1,2.5-1.4,5.2
	c-3,3.3-4.5,4.9-6.9,5C50.8,53.5,50.7,53.5,50.7,53.5z M45.2,49.5c0.9,0.9,3.8,3.6,5.5,3.5c2.2-0.1,3.6-1.7,6.5-4.9
	c2.2-2.4,1.6-3.8,1.3-4.6c-0.1-0.2-0.2-0.4-0.2-0.6c0-0.6-0.8-7-1-8.7c-0.2-1.4-1.1-4.3-1.4-5.3c-0.6,0.5-2.2,1.6-3.7,2.5
	c-1.5,0.9-2.2,0-3.1-0.9c-0.4-0.4-0.8-0.9-1.4-1.3c-1.3-0.8-3.6-0.4-4.7-0.1c1,0.6,3.1,2.2,4.7,5.1c1.3,2.3,1,3.9,0.1,4.5
	c-0.7,0.5-1.6,0.2-2.3-0.6c-1.1-1.4-2.4-1.3-2.9-1.2c-0.3,2.6,0.9,4,2.5,5.9c0.6,0.7,1.2,1.4,1.8,2.3c0.7,1,0.9,1.9,0.6,2.7
	C47.2,48.7,45.9,49.3,45.2,49.5z"/>
<path style="fill:#EB3223;" d="M46.5,20.3c0,0,4,1.9,2.2,5.9c0,0-1.5,0.5-2.2-1.6S45.3,21.3,46.5,20.3z"/>
<path d="M48.3,26.5c-0.2,0-0.5,0-0.8-0.2c-0.6-0.3-1-0.8-1.2-1.7l-0.2-0.5c-0.6-1.8-0.9-3,0.2-4l0.1-0.1l0.1,0.1c0,0,4.2,2,2.3,6.2
	l0,0.1l-0.1,0C48.8,26.4,48.6,26.5,48.3,26.5z M46.5,20.6c-0.8,0.8-0.5,1.6,0,3.4l0.2,0.5c0.5,1.6,1.5,1.6,1.8,1.5
	C49.9,22.7,47.2,20.9,46.5,20.6z"/>
<path style="fill:#EB3223;" d="M40.1,17l2.9,5.2c0,0-0.1,1.1-1.5,0C40.2,21.1,38.9,18.7,40.1,17z"/>
<path d="M42.5,22.9c-0.3,0-0.7-0.2-1.1-0.5c-1.4-1.1-2.8-3.6-1.5-5.5l0.2-0.3l3.2,5.6l0,0.1c0,0.2-0.1,0.5-0.5,0.7
	C42.7,22.9,42.6,22.9,42.5,22.9z M40.1,17.5C39.4,19,40.6,21,41.7,22c0.6,0.5,0.8,0.4,0.9,0.4c0.1,0,0.1-0.1,0.1-0.2L40.1,17.5z"/>
<path d="M63.3,82v-9.2h5.3v3.9l10.2-10.2V33.2H53.6V83h8.6L63.3,82z M70.8,37.8h5.3v10.6h-5.3V37.8z M70.8,54.1h5.3v10.6h-5.3V54.1z
	 M63.3,37.8h5.3v10.6h-5.3V37.8z M63.3,54.1h5.3v10.6h-5.3V54.1z M61.2,64.8h-5.3V54.1h5.3V64.8z M55.9,48.4V37.8h5.3v10.6H55.9z"/>
<path d="M21.1,33.2v31.4l9.7,9.6v-1.4h5.3v6.6l3.7,3.6h6.5V33.2H21.1z M28.7,64.8h-5.3V54.1h5.3V64.8z M28.7,48.4h-5.3V37.8h5.3
	V48.4z M36.1,64.8h-5.3V54.1h5.3V64.8z M36.1,48.4h-5.3V37.8h5.3V48.4z M43.6,64.8h-5.3V54.1h5.3V64.8z M43.6,48.4h-5.3V37.8h5.3
	V48.4z"/>
</svg>
