<?xml version="1.0" encoding="utf-8"?>
<!-- Generator: Adobe Illustrator 25.2.0, SVG Export Plug-In . SVG Version: 6.00 Build 0)  -->
<svg version="1.1" id="Layer_1" xmlns="http://www.w3.org/2000/svg" xmlns:xlink="http://www.w3.org/1999/xlink" x="0px" y="0px"
	 viewBox="0 0 100 100" style="enable-background:new 0 0 100 100;" xml:space="preserve">
<path d="M32.8,34l-5.4,21.5h-2.8L19.2,34H22l3.7,16.3c0.1,0.5,0.2,1.1,0.3,1.8h0c0-0.6,0.2-1.2,0.3-1.8L30.1,34H32.8z"/>
<path d="M41,55.8c-2.2,0-3.9-1-5.2-3c-1.3-2-2-4.6-2-7.8c0-3.5,0.7-6.2,2-8.3s3.2-3.1,5.5-3.1c2.1,0,3.8,1,5.1,3c1.3,2,2,4.6,2,7.8
	c0,3.5-0.7,6.3-2,8.3C45,54.8,43.2,55.8,41,55.8z M41.1,36.8c-1.4,0-2.5,0.7-3.4,2.2c-0.9,1.5-1.3,3.4-1.3,5.8
	c0,2.4,0.4,4.3,1.3,5.8c0.8,1.5,2,2.2,3.3,2.2c1.5,0,2.6-0.7,3.4-2.1c0.8-1.4,1.3-3.3,1.3-5.8c0-2.6-0.4-4.5-1.2-5.9
	C43.6,37.4,42.5,36.8,41.1,36.8z"/>
<path d="M53.7,55.4h-2.6V34h2.6V55.4z"/>
<path d="M57.4,55.4V34h4.4c5.6,0,8.4,3.5,8.4,10.5c0,3.3-0.8,6-2.3,8c-1.5,2-3.6,3-6.2,3H57.4z M59.9,37v15.4h2
	c1.8,0,3.1-0.7,4.1-2.1c1-1.4,1.5-3.3,1.5-5.8c0-5-1.8-7.5-5.5-7.5H59.9z"/>
<path d="M72.2,54.6v-3.7c0.2,0.3,0.5,0.6,0.8,0.8c0.3,0.2,0.7,0.4,1,0.6s0.7,0.3,1.1,0.4c0.4,0.1,0.7,0.1,1,0.1
	c1.1,0,1.8-0.2,2.4-0.7c0.5-0.5,0.8-1.2,0.8-2.2c0-0.5-0.1-1-0.3-1.3c-0.2-0.4-0.4-0.7-0.7-1c-0.3-0.3-0.7-0.6-1.1-0.9
	c-0.4-0.3-0.9-0.6-1.3-0.9c-0.5-0.4-1-0.8-1.4-1.2c-0.4-0.4-0.8-0.8-1.2-1.3c-0.3-0.5-0.6-1-0.8-1.6c-0.2-0.6-0.3-1.3-0.3-2.1
	c0-1,0.2-1.9,0.5-2.6c0.3-0.7,0.7-1.4,1.3-1.8c0.5-0.5,1.1-0.8,1.8-1.1c0.7-0.2,1.4-0.4,2.1-0.4c1.6,0,2.7,0.3,3.5,0.8v3.5
	c-0.9-0.9-2-1.3-3.3-1.3c-0.4,0-0.7,0-1.1,0.1c-0.4,0.1-0.7,0.3-1,0.5c-0.3,0.2-0.5,0.5-0.7,0.9c-0.2,0.4-0.3,0.8-0.3,1.3
	c0,0.5,0.1,0.9,0.2,1.2c0.1,0.3,0.3,0.7,0.6,1c0.3,0.3,0.6,0.6,1,0.8c0.4,0.3,0.8,0.6,1.4,0.9c0.5,0.4,1,0.8,1.5,1.2
	c0.5,0.4,0.9,0.9,1.2,1.4s0.6,1.1,0.8,1.7c0.2,0.6,0.3,1.4,0.3,2.2c0,1.1-0.2,2-0.5,2.8c-0.3,0.7-0.7,1.4-1.3,1.8
	c-0.5,0.5-1.1,0.8-1.8,1s-1.4,0.3-2.2,0.3c-0.3,0-0.6,0-0.9-0.1c-0.4-0.1-0.7-0.1-1.1-0.2c-0.4-0.1-0.8-0.2-1.1-0.4
	C72.7,55,72.4,54.8,72.2,54.6z"/>
<polygon points="14.3,58 15.4,59.6 84.4,59.6 85.5,58 "/>
<path style="fill:none;stroke:#000000;stroke-miterlimit:10;" d="M50.1,92.5l34.3-33.7H15L50.1,92.5z M59.6,64v12.9H42.2V64H59.6z"
	/>
<path style="fill:#969696;" d="M50.1,92.5l34.3-33.7H15L50.1,92.5z M59.6,64v12.9H42.2V64H59.6z"/>
</svg>
