<?xml version="1.0" encoding="utf-8"?>
<!-- Generator: Adobe Illustrator 25.2.0, SVG Export Plug-In . SVG Version: 6.00 Build 0)  -->
<svg version="1.1" id="Layer_1" xmlns="http://www.w3.org/2000/svg" xmlns:xlink="http://www.w3.org/1999/xlink" x="0px" y="0px"
	 viewBox="0 0 100 100" style="enable-background:new 0 0 100 100;" xml:space="preserve">
<path d="M59.5,45.6h-2.9V30.2c0-1.3,0.1-2.8,0.2-4.6h0c-0.2,1-0.3,1.8-0.5,2.2l-5.3,17.8h-2l-5.3-17.6c-0.1-0.5-0.3-1.3-0.5-2.4h0
	c0.1,1,0.1,2.5,0.1,4.7v15.4h-2.7V21.8h4.2l4.7,15.8c0.4,1.2,0.6,2.1,0.7,2.7H50c0.3-1.2,0.6-2.2,0.7-2.8l4.8-15.8h4V45.6z"/>
<path d="M49.6,63.4l6.9-10.1c0.3-0.5,0-1.1-0.6-1.1h-2.5v-4.1H46v4.1h-2.7c-0.5,0-0.9,0.6-0.6,1.1L49.6,63.4z"/>
<path d="M30,43.8l-13.1,5l27,32.4c0.3,0.4,0.9,0.4,1.2,0l0.5-0.4c0.3-0.3,0.3-0.8,0-1.1l-6.7-7.8l9-2.8l-0.8,6.3l1.6,0.2l0.9-5.7
	l1.4,1.4l1-1.1L30,43.8z M20.2,49.8l8.9-3.4L27.2,58L20.2,49.8z M30.8,47.8l6.6,8l-8.4,3.3L30.8,47.8z M36.4,69.5l-7-8.4l8.8-2.8
	L36.4,69.5z M38.2,70l2-10.9l6.4,8L38.2,70z"/>
<path d="M70.8,47.3L51.2,63.4c0,0-0.5,2,1.3,1.7l6.4-5.2l0.3,11.9l-4.3-3.2c0,0-1-0.1-1.3,0.3c-0.3,0.4-0.3,1.2,0.4,1.6
	c0.6,0.5,4.3,3,4.3,3s-1.9,2.1-1.5,2.3c0.5,0.2,1.6,0.9,2.9,0c1.3-0.9,23.6-19.3,23.6-19.3L70.8,47.3z M61.1,71.7l-0.4-11.9l8.2,5.5
	L61.1,71.7z M61.9,57.8L70,51l0.3,12.4L61.9,57.8z M72,51l7.9,5.8L72,62.6V51z"/>
</svg>
