<?xml version="1.0" encoding="iso-8859-1"?>
<!-- Generator: Adobe Illustrator 25.4.1, SVG Export Plug-In . SVG Version: 6.00 Build 0)  -->
<svg version="1.1"
	 id="svg8" xmlns:cc="http://creativecommons.org/ns#" xmlns:dc="http://purl.org/dc/elements/1.1/" xmlns:inkscape="http://www.inkscape.org/namespaces/inkscape" xmlns:rdf="http://www.w3.org/1999/02/22-rdf-syntax-ns#" xmlns:sodipodi="http://sodipodi.sourceforge.net/DTD/sodipodi-0.dtd" xmlns:svg="http://www.w3.org/2000/svg"
	 xmlns="http://www.w3.org/2000/svg" xmlns:xlink="http://www.w3.org/1999/xlink" x="0px" y="0px" viewBox="0 0 100 100"
	 style="enable-background:new 0 0 100 100;" xml:space="preserve">
<sodipodi:namedview  bordercolor="#666666" borderopacity="1.0" id="base" inkscape:current-layer="g8984" inkscape:cx="68.752664" inkscape:cy="96.653061" inkscape:document-units="px" inkscape:guide-bbox="true" inkscape:lockguides="true" inkscape:pageopacity="0.0" inkscape:pageshadow="2" inkscape:window-height="657" inkscape:window-maximized="1" inkscape:window-width="1280" inkscape:window-x="-8" inkscape:window-y="-8" inkscape:zoom="0.765625" pagecolor="#ffffff" showgrid="false" showguides="false" units="px">
	<sodipodi:guide  id="guide5700" inkscape:locked="true" orientation="0,1" position="-0.93017576,23.874511"></sodipodi:guide>
	<sodipodi:guide  id="guide5726" inkscape:locked="true" orientation="0,1" position="-26.098869,26.473047"></sodipodi:guide>
	<sodipodi:guide  id="guide5880" inkscape:locked="true" orientation="0,1" position="104.51042,-2.9104167"></sodipodi:guide>
	<sodipodi:guide  id="guide6001" inkscape:locked="true" orientation="0,1" position="-71.093695,29.279377"></sodipodi:guide>
	<sodipodi:guide  id="guide6005" inkscape:locked="true" orientation="0,1" position="-46.304445,58.278122"></sodipodi:guide>
	<sodipodi:guide  id="guide6736" inkscape:locked="true" orientation="0,1" position="-0.10335287,20.205485"></sodipodi:guide>
	<sodipodi:guide  id="guide6738" inkscape:locked="true" orientation="0,1" position="-0.43848907,22.874513"></sodipodi:guide>
	<inkscape:grid  id="grid2386" type="xygrid"></inkscape:grid>
</sodipodi:namedview>
<g id="g1180_1_" transform="translate(0,-229.2666)" inkscape:groupmode="layer" inkscape:label="halo:always" style="display:none;">
	<g id="g1210_1_" inkscape:groupmode="layer" inkscape:label="-gray-halo:iter3" style="display:inline;">
		<g id="circle1208_1_">
			<path style="fill:#919395;" d="M50,329.3c-27.6,0-50-22.4-50-50s22.4-50,50-50s50,22.4,50,50S77.6,329.3,50,329.3z M50,237.9
				c-22.8,0-41.4,18.6-41.4,41.4s18.6,41.4,41.4,41.4s41.4-18.6,41.4-41.4S72.8,237.9,50,237.9z"/>
		</g>
	</g>
	<g id="g1206_1_" inkscape:groupmode="layer" inkscape:label="-red-halo:iter3" style="display:inline;">
		<g id="circle1204_1_">
			<path style="fill:#C52038;" d="M50,329.3c-27.6,0-50-22.4-50-50s22.4-50,50-50s50,22.4,50,50S77.6,329.3,50,329.3z M50,237.9
				c-22.8,0-41.4,18.6-41.4,41.4s18.6,41.4,41.4,41.4s41.4-18.6,41.4-41.4S72.8,237.9,50,237.9z"/>
		</g>
	</g>
	<g id="g1202_1_" inkscape:groupmode="layer" inkscape:label="-green-halo:iter3" style="display:inline;">
		<g id="circle1200_1_">
			<path style="fill:#5E9C42;" d="M50,329.3c-27.6,0-50-22.4-50-50s22.4-50,50-50s50,22.4,50,50S77.6,329.3,50,329.3z M50,237.9
				c-22.8,0-41.4,18.6-41.4,41.4s18.6,41.4,41.4,41.4s41.4-18.6,41.4-41.4S72.8,237.9,50,237.9z"/>
		</g>
	</g>
	<g id="layer18_1_" inkscape:groupmode="layer" inkscape:label="-yellow-halo:iter3" style="display:inline;">
		<g id="circle1178-4_1_">
			<path style="fill:#FBBA16;" d="M50,329.3c-27.6,0-50-22.4-50-50s22.4-50,50-50s50,22.4,50,50S77.6,329.3,50,329.3z M50,237.9
				c-22.8,0-41.4,18.6-41.4,41.4s18.6,41.4,41.4,41.4s41.4-18.6,41.4-41.4S72.8,237.9,50,237.9z"/>
		</g>
	</g>
</g>
<path id="path8033" inkscape:connector-curvature="0" style="fill:#003366;" d="M31.624,18.251c-0.02,0-0.045,0-0.073,0
	s-0.058,0-0.088,0s-0.06,0-0.088,0c-0.028,0-0.053,0-0.073,0c0,0,0,0-0.001,0c-0.001,0-0.004,0-0.008,0c-0.005,0-0.013,0-0.024,0
	s-0.026,0-0.046,0l0,0l0,0l0,0l0,0c-0.141,0.04-0.271,0.095-0.387,0.164c-0.115,0.069-0.216,0.152-0.296,0.247
	c-0.08,0.096-0.141,0.204-0.176,0.323c-0.035,0.119-0.045,0.249-0.025,0.39v0.261v0.261v0.261v0.261l-0.1,5.722l-0.1,5.722
	l-0.1,5.723l-0.1,5.723l0,0l0,0l0,0l0,0c-0.301,0.06-0.572,0.125-0.811,0.195c-0.238,0.069-0.444,0.142-0.615,0.217
	c-0.171,0.075-0.306,0.153-0.404,0.232s-0.158,0.159-0.178,0.24l0,0l0,0l0,0l0,0v0.02v0.02v0.02v0.02v8.634v8.634v8.634v8.634
	c0,0.201,0.03,0.387,0.083,0.552s0.128,0.311,0.218,0.432c0.09,0.12,0.196,0.216,0.309,0.281c0.113,0.065,0.233,0.1,0.354,0.1h4.457
	h4.457h4.457h4.457c0.141,0,0.271-0.04,0.388-0.112s0.22-0.174,0.305-0.3c0.085-0.126,0.153-0.274,0.199-0.436
	c0.046-0.162,0.071-0.338,0.071-0.518v-8.634v-8.634v-8.634v-8.634v-0.02v-0.02v-0.02v-0.02l0,0l0,0l0,0l0,0
	c-0.02-0.08-0.075-0.156-0.166-0.228c-0.09-0.073-0.216-0.143-0.376-0.213c-0.161-0.07-0.356-0.141-0.587-0.213
	c-0.231-0.073-0.497-0.148-0.798-0.228v-0.582v-0.582v-0.582V40.98V40.8v-0.181v-0.181v-0.181c0-0.1-0.03-0.191-0.085-0.271
	s-0.136-0.151-0.236-0.211c-0.1-0.06-0.221-0.11-0.356-0.151c-0.136-0.04-0.286-0.07-0.447-0.09l0,0l0,0l0,0l0,0c0,0,0,0-0.001,0
	s-0.004,0-0.009,0c-0.005,0-0.012,0-0.023,0c-0.011,0-0.026,0-0.046,0c-0.04,0-0.075,0-0.108,0s-0.063,0-0.093,0
	c-0.03,0-0.06,0-0.093,0c-0.033,0-0.068,0-0.108,0h-0.08h-0.08h-0.08h-0.08h-0.08h-0.08h-0.08h-0.08c-0.04,0-0.075,0-0.108,0
	c-0.033,0-0.063,0-0.093,0c-0.03,0-0.06,0-0.093,0s-0.068,0-0.108,0h-0.02h-0.02h-0.02h-0.02l0,0l0,0l0,0l0,0
	c-0.161,0.02-0.311,0.055-0.447,0.102s-0.256,0.104-0.356,0.17c-0.1,0.065-0.181,0.138-0.236,0.214
	c-0.055,0.076-0.085,0.157-0.085,0.237v0.181v0.181V40.8v0.181l-0.02,0.502l-0.02,0.502l-0.02,0.502l-0.02,0.502
	c-0.161-0.02-0.326-0.035-0.496-0.046s-0.343-0.019-0.519-0.023c-0.176-0.005-0.354-0.007-0.533-0.009
	c-0.179-0.001-0.36-0.002-0.541-0.002l0.02-0.883l0.02-0.883l0.02-0.883l0.02-0.883v-0.181v-0.181v-0.181v-0.181
	c0-0.1-0.03-0.191-0.085-0.271s-0.136-0.151-0.236-0.211c-0.1-0.06-0.221-0.11-0.356-0.151c-0.136-0.04-0.286-0.07-0.447-0.09l0,0
	l0,0l0,0l0,0c0,0,0,0-0.001,0c-0.001,0-0.004,0-0.009,0c-0.005,0-0.012,0-0.023,0c-0.011,0-0.026,0-0.046,0c-0.04,0-0.075,0-0.108,0
	s-0.063,0-0.093,0c-0.03,0-0.06,0-0.093,0c-0.033,0-0.068,0-0.108,0h-0.08h-0.08h-0.08h-0.08h-0.08h-0.08h-0.08h-0.08
	c-0.04,0-0.075,0-0.108,0c-0.033,0-0.063,0-0.093,0c-0.03,0-0.06,0-0.093,0s-0.068,0-0.108,0h-0.02h-0.02h-0.02h-0.02l0,0l0,0l0,0
	l0,0c-0.161,0.02-0.311,0.055-0.447,0.102c-0.136,0.046-0.256,0.104-0.356,0.17c-0.1,0.065-0.181,0.138-0.236,0.214
	c-0.055,0.076-0.085,0.157-0.085,0.237v0.181v0.181v0.181v0.181l-0.02,0.883l-0.02,0.883l-0.02,0.883l-0.02,0.883
	c-0.181,0-0.361,0.005-0.542,0.013c-0.181,0.008-0.361,0.018-0.542,0.028c-0.181,0.01-0.361,0.02-0.542,0.028
	c-0.181,0.008-0.361,0.013-0.542,0.013l0,0l0,0l0,0l0,0l-0.1-5.602l-0.1-5.602l-0.1-5.602l-0.1-5.602V20.32v-0.261v-0.261v-0.261
	c0-0.141-0.025-0.276-0.07-0.402s-0.11-0.241-0.191-0.341s-0.176-0.186-0.281-0.251c-0.105-0.065-0.221-0.11-0.341-0.131l0,0l0,0
	l0,0l0,0c0,0,0,0-0.001,0s-0.004,0-0.009,0c-0.005,0-0.012,0-0.023,0c-0.011,0-0.026,0-0.046,0c-0.02,0-0.045,0-0.073,0
	s-0.058,0-0.088,0c-0.03,0-0.06,0-0.088,0c-0.028,0-0.053,0-0.073,0h-0.06h-0.06h-0.06h-0.06l-0.04-0.04l-0.04-0.04l-0.04-0.04
	L31.624,18.251z"/>
<path id="path8035" inkscape:connector-curvature="0" style="fill:#FFFFFF;" d="M30.741,50.136h3.554h3.554h3.554h3.554
	c0.08,0,0.156,0.025,0.223,0.07c0.068,0.045,0.128,0.11,0.178,0.191c0.05,0.08,0.09,0.176,0.118,0.281
	c0.028,0.105,0.043,0.221,0.043,0.341c0,0.12-0.015,0.236-0.043,0.341c-0.028,0.105-0.068,0.201-0.118,0.281
	s-0.11,0.146-0.178,0.191c-0.068,0.045-0.143,0.07-0.223,0.07h-3.554h-3.554h-3.554h-3.554c-0.08,0-0.156-0.025-0.223-0.07
	c-0.068-0.045-0.128-0.11-0.178-0.191c-0.05-0.08-0.09-0.176-0.118-0.281s-0.043-0.221-0.043-0.341c0-0.12,0.015-0.236,0.043-0.341
	c0.028-0.105,0.068-0.201,0.118-0.281c0.05-0.08,0.11-0.146,0.178-0.191S30.66,50.136,30.741,50.136z"/>
<path id="path8037" inkscape:connector-curvature="0" style="fill:#FFFFFF;" d="M30.741,53.028h3.554h3.554h3.554h3.554
	c0.08,0,0.156,0.025,0.223,0.07c0.068,0.045,0.128,0.11,0.178,0.191s0.09,0.176,0.118,0.281c0.028,0.105,0.043,0.221,0.043,0.341
	s-0.015,0.236-0.043,0.341c-0.028,0.105-0.068,0.201-0.118,0.281s-0.11,0.146-0.178,0.191c-0.068,0.045-0.143,0.07-0.223,0.07
	h-3.554h-3.554h-3.554h-3.554c-0.08,0-0.156-0.025-0.223-0.07s-0.128-0.11-0.178-0.191c-0.05-0.08-0.09-0.176-0.118-0.281
	c-0.028-0.105-0.043-0.221-0.043-0.341s0.015-0.236,0.043-0.341s0.068-0.201,0.118-0.281c0.05-0.08,0.11-0.146,0.178-0.191
	S30.66,53.028,30.741,53.028z"/>
<path id="path8039" inkscape:connector-curvature="0" style="fill:#FFFFFF;" d="M31.383,58.891h3.233h3.233h3.233h3.233
	c0.161,0,0.316,0.05,0.459,0.141c0.143,0.09,0.274,0.221,0.384,0.381c0.11,0.161,0.201,0.351,0.264,0.562s0.098,0.442,0.098,0.683
	v1.325v1.325v1.325v1.325c0,0.241-0.035,0.472-0.098,0.683c-0.063,0.211-0.153,0.402-0.264,0.562
	c-0.11,0.161-0.241,0.291-0.384,0.381c-0.143,0.09-0.299,0.141-0.459,0.141h-3.233h-3.233h-3.233h-3.233
	c-0.161,0-0.316-0.05-0.459-0.141s-0.274-0.221-0.384-0.381s-0.201-0.351-0.264-0.562c-0.063-0.211-0.098-0.442-0.098-0.683v-1.325
	v-1.325v-1.325v-1.325c0-0.241,0.03-0.472,0.087-0.683c0.057-0.211,0.139-0.402,0.245-0.562c0.105-0.161,0.233-0.291,0.38-0.381
	C31.037,58.941,31.203,58.891,31.383,58.891z"/>
<path id="path8043" inkscape:connector-curvature="0" inkscape:export-filename="C:\Users\Charlotte Abel\Documents\Symbology\Components\communications_responder-communications-3.png" inkscape:export-xdpi="300.00458" inkscape:export-ydpi="300.00458" style="fill:#003366;" d="
	M53.071,18.18l-1.701,1.352l-1.701,1.352l-1.701,1.352l-1.701,1.352l0.779,0.594l0.779,0.594l0.779,0.594l0.779,0.594l-3.155,1.188
	l-3.155,1.188l-3.155,1.188l-3.155,1.188l1.762-1.373l1.762-1.373l1.762-1.373l1.762-1.373c-0.246-0.184-0.497-0.374-0.75-0.566
	c-0.254-0.192-0.51-0.387-0.766-0.581c-0.256-0.195-0.512-0.389-0.766-0.581s-0.505-0.382-0.75-0.566
	c1.045-0.389,2.064-0.789,3.073-1.192c1.009-0.403,2.008-0.811,3.012-1.216c1.004-0.404,2.013-0.806,3.043-1.199
	C50.935,18.933,51.985,18.549,53.071,18.18L53.071,18.18L53.071,18.18L53.071,18.18L53.071,18.18z"/>
<path id="path8045" inkscape:connector-curvature="0" style="fill:#003366;" d="M58.385,14.248c-0.017,0-0.038,0-0.062,0
	s-0.049,0-0.075,0c-0.026,0-0.051,0-0.075,0s-0.045,0-0.062,0c0,0,0,0-0.001,0c-0.001,0-0.003,0-0.008,0c-0.004,0-0.011,0-0.02,0
	s-0.022,0-0.039,0l0,0l0,0l0,0l0,0c-0.119,0.034-0.23,0.081-0.328,0.14c-0.098,0.059-0.183,0.129-0.252,0.21
	c-0.068,0.081-0.119,0.172-0.149,0.274c-0.03,0.101-0.038,0.212-0.021,0.331v0.222v0.222v0.222v0.222l-0.085,4.86l-0.085,4.86
	l-0.085,4.861l-0.085,4.861l0,0l0,0l0,0l0,0c-0.256,0.051-0.486,0.107-0.689,0.165c-0.203,0.059-0.377,0.12-0.522,0.184
	c-0.145,0.064-0.26,0.13-0.343,0.197c-0.083,0.067-0.134,0.135-0.151,0.204l0,0l0,0l0,0l0,0v0.017v0.017v0.017v0.017v7.333v7.333
	v7.333v7.333c0,0.171,0.026,0.328,0.07,0.469s0.109,0.264,0.185,0.367s0.166,0.183,0.262,0.239s0.198,0.085,0.301,0.085h3.786h3.786
	h3.786h3.786c0.119,0,0.23-0.034,0.329-0.095c0.099-0.061,0.186-0.148,0.259-0.254s0.13-0.232,0.17-0.37s0.061-0.287,0.061-0.44
	v-7.333v-7.333v-7.333v-7.333v-0.017v-0.017v-0.017v-0.017l0,0l0,0l0,0l0,0c-0.017-0.068-0.064-0.132-0.141-0.194
	c-0.077-0.062-0.183-0.122-0.32-0.181s-0.303-0.119-0.499-0.181c-0.196-0.062-0.422-0.126-0.678-0.194l-0.017-0.529l-0.017-0.529
	l-0.017-0.529l-0.017-0.529v-0.153v-0.153v-0.153v-0.153c0-0.085-0.026-0.162-0.072-0.23s-0.115-0.128-0.2-0.179
	c-0.085-0.051-0.188-0.094-0.303-0.128s-0.243-0.06-0.379-0.077l0,0l0,0l0,0l0,0c0,0,0,0-0.001,0s-0.003,0-0.008,0
	c-0.004,0-0.01,0-0.02,0c-0.01,0-0.022,0-0.039,0c-0.034,0-0.064,0-0.092,0s-0.053,0-0.079,0s-0.051,0-0.079,0
	c-0.028,0-0.058,0-0.092,0H68.89h-0.068h-0.068h-0.068h-0.068h-0.068h-0.068h-0.068c-0.034,0-0.064,0-0.092,0s-0.053,0-0.079,0
	s-0.051,0-0.079,0c-0.028,0-0.058,0-0.092,0h-0.017h-0.017H68.02h-0.017l0,0l0,0l0,0l0,0c-0.136,0.017-0.264,0.047-0.379,0.086
	c-0.115,0.039-0.217,0.089-0.303,0.144c-0.085,0.055-0.153,0.117-0.2,0.182s-0.072,0.133-0.072,0.201v0.153v0.153v0.153v0.153
	l0.034,0.46l0.034,0.46l0.034,0.46l0.034,0.46c-0.136-0.017-0.277-0.03-0.421-0.039c-0.144-0.01-0.291-0.016-0.44-0.021
	c-0.149-0.004-0.3-0.006-0.453-0.007s-0.306-0.001-0.459-0.001l-0.034-0.75l-0.034-0.75l-0.034-0.75l-0.034-0.75v-0.153v-0.153
	v-0.153v-0.153c0-0.085-0.026-0.162-0.072-0.23c-0.047-0.068-0.115-0.128-0.2-0.179c-0.085-0.051-0.188-0.094-0.303-0.128
	s-0.243-0.06-0.379-0.077l0,0l0,0l0,0l0,0c0,0,0,0-0.001,0s-0.003,0-0.007,0c-0.004,0-0.011,0-0.021,0s-0.022,0-0.039,0
	c-0.034,0-0.064,0-0.092,0c-0.028,0-0.053,0-0.079,0s-0.051,0-0.079,0c-0.028,0-0.058,0-0.092,0h-0.068h-0.068h-0.068h-0.068h-0.068
	h-0.068h-0.068h-0.068c-0.034,0-0.064,0-0.092,0c-0.028,0-0.053,0-0.079,0s-0.051,0-0.079,0c-0.028,0-0.058,0-0.092,0h-0.017h-0.017
	h-0.017h-0.017l0,0l0,0l0,0l0,0c-0.136,0.017-0.264,0.047-0.379,0.086c-0.115,0.039-0.217,0.089-0.303,0.144
	c-0.085,0.055-0.153,0.117-0.2,0.182C62.026,31.438,62,31.506,62,31.574v0.153v0.153v0.153v0.153l-0.017,0.75l-0.017,0.75
	l-0.017,0.75l-0.017,0.75c-0.153,0-0.307,0.004-0.46,0.011s-0.307,0.015-0.46,0.023c-0.153,0.009-0.307,0.017-0.46,0.023
	c-0.153,0.006-0.307,0.011-0.46,0.011l0,0l0,0l0,0l0,0l-0.051-4.775l-0.051-4.775l-0.051-4.775l-0.051-4.775v-0.222v-0.222v-0.222
	v-0.222c0-0.119-0.021-0.234-0.06-0.341c-0.038-0.107-0.094-0.205-0.162-0.29s-0.149-0.158-0.239-0.213
	c-0.09-0.055-0.188-0.094-0.29-0.111l0,0l0,0l0,0l0,0c0,0,0,0-0.001,0s-0.003,0-0.007,0c-0.004,0-0.011,0-0.021,0s-0.022,0-0.039,0
	s-0.038,0-0.062,0s-0.049,0-0.075,0s-0.051,0-0.075,0s-0.045,0-0.062,0h-0.051h-0.051h-0.051H58.59l-0.051-0.017l-0.051-0.017
	l-0.051-0.017L58.385,14.248z"/>
<path id="path8047" inkscape:connector-curvature="0" style="fill:#FFFFFF;" d="M57.635,41.329h3.019h3.019h3.019h3.019
	c0.068,0,0.132,0.021,0.19,0.06c0.058,0.038,0.109,0.094,0.151,0.162c0.043,0.068,0.077,0.149,0.1,0.239
	c0.023,0.09,0.036,0.188,0.036,0.29c0,0.102-0.013,0.2-0.036,0.29c-0.023,0.09-0.058,0.171-0.1,0.239s-0.094,0.124-0.151,0.162
	c-0.058,0.038-0.122,0.06-0.19,0.06H66.69h-3.019h-3.019h-3.019c-0.068,0-0.132-0.021-0.19-0.06
	c-0.058-0.038-0.109-0.094-0.151-0.162s-0.077-0.149-0.1-0.239c-0.023-0.09-0.036-0.188-0.036-0.29
	c-0.017-0.102-0.013-0.2,0.007-0.29c0.02-0.09,0.056-0.171,0.103-0.239c0.047-0.068,0.105-0.124,0.168-0.162
	C57.498,41.351,57.566,41.329,57.635,41.329z"/>
<path id="path8049" inkscape:connector-curvature="0" style="fill:#FFFFFF;" d="M57.635,43.785h3.019h3.019h3.019h3.019
	c0.068,0,0.132,0.021,0.19,0.06s0.109,0.094,0.151,0.162s0.077,0.149,0.1,0.239c0.023,0.09,0.036,0.188,0.036,0.29
	c0,0.102-0.013,0.2-0.036,0.29c-0.023,0.09-0.058,0.171-0.1,0.239s-0.094,0.124-0.151,0.162c-0.058,0.038-0.122,0.06-0.19,0.06
	H66.69h-3.019h-3.019h-3.019c-0.068,0-0.132-0.021-0.19-0.06c-0.058-0.038-0.109-0.094-0.151-0.162s-0.077-0.149-0.1-0.239
	s-0.036-0.188-0.036-0.29c-0.017-0.102-0.013-0.2,0.007-0.29c0.02-0.09,0.056-0.171,0.103-0.239
	c0.047-0.068,0.105-0.124,0.168-0.162S57.566,43.785,57.635,43.785z"/>
<path id="path8051" inkscape:connector-curvature="0" style="fill:#FFFFFF;" d="M58.18,48.765h2.746h2.746h2.746h2.746
	c0.136,0,0.269,0.043,0.39,0.119s0.232,0.188,0.326,0.324c0.094,0.136,0.171,0.298,0.224,0.478c0.053,0.179,0.083,0.375,0.083,0.58
	v1.126v1.126v1.126v1.126c0,0.205-0.03,0.401-0.083,0.58s-0.13,0.341-0.224,0.478c-0.094,0.136-0.205,0.247-0.326,0.324
	c-0.122,0.077-0.254,0.119-0.39,0.119h-2.746h-2.746h-2.746H58.18c-0.136,0-0.269-0.043-0.39-0.119
	c-0.122-0.077-0.232-0.188-0.326-0.324s-0.171-0.298-0.224-0.478c-0.053-0.179-0.083-0.375-0.083-0.58v-1.126v-1.126v-1.126v-1.126
	c-0.017-0.205,0-0.401,0.045-0.58c0.045-0.179,0.117-0.341,0.211-0.478s0.209-0.247,0.339-0.324
	C57.882,48.807,58.027,48.765,58.18,48.765z"/>
</svg>
