<?xml version="1.0" encoding="iso-8859-1"?>
<!-- Generator: Adobe Illustrator 25.4.1, SVG Export Plug-In . SVG Version: 6.00 Build 0)  -->
<svg version="1.1"
	 id="svg8" inkscape:export-filename="C:\Users\Charlotte Abel\Documents\Symbology\Components\For Distribution\communications_alerts-warnings-messages.png" inkscape:export-xdpi="300.00464" inkscape:export-ydpi="300.00464" inkscape:version="0.91 r13725" sodipodi:docname="communications_911-dispatch-with-label-clr_256x256.svg" xmlns:cc="http://creativecommons.org/ns#" xmlns:dc="http://purl.org/dc/elements/1.1/" xmlns:inkscape="http://www.inkscape.org/namespaces/inkscape" xmlns:rdf="http://www.w3.org/1999/02/22-rdf-syntax-ns#" xmlns:sodipodi="http://sodipodi.sourceforge.net/DTD/sodipodi-0.dtd" xmlns:svg="http://www.w3.org/2000/svg"
	 xmlns="http://www.w3.org/2000/svg" xmlns:xlink="http://www.w3.org/1999/xlink" x="0px" y="0px" viewBox="0 0 100 100"
	 style="enable-background:new 0 0 100 100;" xml:space="preserve">
<path id="path8002_1_" inkscape:connector-curvature="0" style="fill:#003366;" d="M68.8,24.6c0.05-0.025,0.094-0.05,0.133-0.077
	c0.039-0.027,0.074-0.055,0.105-0.086s0.06-0.066,0.086-0.105c0.026-0.039,0.051-0.082,0.076-0.132
	c0.25-0.475,0.363-1.013,0.372-1.575c0.009-0.562-0.084-1.15-0.247-1.725s-0.394-1.138-0.659-1.65S68.1,18.275,67.8,17.9
	c-1.025-1.275-2.3-2.262-3.736-3.017c-1.436-0.755-3.033-1.277-4.702-1.621s-3.41-0.51-5.133-0.551
	C52.506,12.668,50.8,12.75,49.2,12.9c-1.425,0.125-3.131,0.319-4.886,0.645c-1.755,0.326-3.558,0.786-5.176,1.442
	c-1.619,0.656-3.053,1.51-4.071,2.624S33.45,20.1,33.5,21.8c0,0.2,0.013,0.425,0.042,0.659c0.03,0.234,0.077,0.478,0.146,0.716
	s0.16,0.469,0.277,0.678s0.26,0.397,0.436,0.547c0.325,0.25,0.688,0.425,1.073,0.545s0.795,0.186,1.214,0.218
	c0.419,0.031,0.847,0.028,1.271,0.01S38.8,25.125,39.2,25.1c0.275-0.025,0.656-0.044,1.086-0.07c0.43-0.027,0.908-0.061,1.377-0.118
	s0.928-0.135,1.32-0.248C43.375,24.55,43.7,24.4,43.9,24.2c0.2-0.175,0.331-0.375,0.416-0.591c0.084-0.216,0.122-0.447,0.134-0.684
	s0-0.481-0.016-0.722C44.419,21.963,44.4,21.725,44.4,21.5v-0.375V20.75v-0.375V20c0-0.075,0.188-0.163,0.475-0.251
	c0.288-0.089,0.675-0.18,1.075-0.26c0.4-0.081,0.812-0.153,1.15-0.205c0.337-0.052,0.6-0.083,0.7-0.083
	c0.3-0.05,0.606-0.094,0.916-0.131c0.309-0.038,0.622-0.069,0.934-0.094s0.625-0.044,0.934-0.056C50.894,18.906,51.2,18.9,51.5,18.9
	s0.6,0.006,0.9,0.019c0.3,0.013,0.6,0.031,0.9,0.056s0.6,0.056,0.9,0.094c0.3,0.038,0.6,0.081,0.9,0.131
	c0.075,0.025,0.312,0.075,0.628,0.139s0.709,0.142,1.097,0.224c0.388,0.081,0.769,0.165,1.059,0.242
	C58.175,19.881,58.375,19.95,58.4,20c0,0,0,0.119,0.003,0.306s0.009,0.444,0.022,0.719c0.012,0.275,0.031,0.569,0.059,0.831
	c0.028,0.263,0.066,0.494,0.116,0.644c0.075,0.35,0.144,0.675,0.233,0.972c0.089,0.297,0.199,0.566,0.355,0.803
	s0.36,0.444,0.636,0.616S60.45,25.2,60.9,25.3c0.175,0.025,0.344,0.044,0.509,0.059c0.166,0.016,0.328,0.028,0.491,0.041
	s0.325,0.025,0.491,0.041c0.166,0.016,0.334,0.034,0.509,0.059c0.3,0,0.6,0,0.898-0.002s0.595-0.005,0.89-0.011
	c0.294-0.006,0.585-0.015,0.87-0.03s0.567-0.033,0.843-0.057c0.15-0.075,0.331-0.137,0.53-0.195
	c0.198-0.058,0.414-0.111,0.632-0.168s0.44-0.116,0.651-0.186S68.625,24.7,68.8,24.6L68.8,24.6L68.8,24.6L68.8,24.6L68.8,24.6z"/>
<path style="fill:#003366;" d="M44.1,40.5c0,0.6-0.013,1.188-0.037,1.761c-0.025,0.573-0.062,1.133-0.113,1.677
	c-0.05,0.543-0.112,1.071-0.187,1.582C43.688,46.031,43.6,46.525,43.5,47s-0.213,0.931-0.336,1.37s-0.258,0.861-0.401,1.268
	c-0.144,0.406-0.297,0.797-0.458,1.173c-0.161,0.376-0.33,0.739-0.505,1.089c-0.2,0.325-0.406,0.631-0.62,0.919
	c-0.214,0.287-0.436,0.556-0.667,0.806c-0.231,0.25-0.472,0.481-0.724,0.694C39.537,54.531,39.275,54.725,39,54.9
	s-0.556,0.331-0.845,0.467c-0.289,0.136-0.586,0.251-0.892,0.345s-0.622,0.166-0.949,0.214C35.988,55.975,35.65,56,35.3,56
	c-0.425,0-0.831-0.025-1.22-0.073s-0.761-0.12-1.117-0.214c-0.356-0.094-0.697-0.21-1.024-0.346C31.612,55.231,31.3,55.075,31,54.9
	v-1.25V52.4v-1.25V49.9c0.275,0.225,0.562,0.425,0.862,0.598s0.612,0.32,0.938,0.439c0.325,0.118,0.663,0.209,1.013,0.27
	S34.525,51.3,34.9,51.3s0.737-0.044,1.083-0.131c0.345-0.088,0.673-0.219,0.979-0.394c0.307-0.175,0.591-0.394,0.849-0.656
	C38.069,49.856,38.3,49.55,38.5,49.2c0.225-0.35,0.419-0.737,0.583-1.164c0.164-0.426,0.298-0.892,0.404-1.398
	c0.106-0.507,0.185-1.054,0.236-1.643c0.052-0.589,0.077-1.22,0.077-1.895h-0.025H39.75h-0.025H39.7
	c-0.225,0.45-0.481,0.844-0.767,1.181s-0.602,0.619-0.946,0.844c-0.343,0.225-0.715,0.394-1.114,0.506
	C36.475,45.744,36.05,45.8,35.6,45.8c-0.2,0-0.4-0.013-0.598-0.037c-0.199-0.025-0.396-0.063-0.59-0.113s-0.385-0.112-0.571-0.188
	S33.474,45.3,33.3,45.2s-0.343-0.213-0.506-0.336s-0.319-0.258-0.469-0.401c-0.15-0.144-0.294-0.297-0.431-0.458
	c-0.138-0.161-0.269-0.33-0.394-0.505s-0.244-0.362-0.356-0.561c-0.112-0.199-0.219-0.408-0.319-0.627
	c-0.1-0.219-0.194-0.447-0.281-0.683c-0.087-0.236-0.169-0.479-0.244-0.729s-0.137-0.506-0.189-0.77
	c-0.052-0.264-0.092-0.536-0.123-0.818s-0.053-0.572-0.067-0.873C29.906,38.137,29.9,37.825,29.9,37.5
	c0-0.35,0.012-0.694,0.036-1.031s0.058-0.669,0.102-0.994s0.097-0.644,0.158-0.956c0.061-0.312,0.129-0.619,0.204-0.919
	c0.1-0.3,0.2-0.588,0.305-0.862c0.105-0.275,0.214-0.538,0.332-0.788c0.119-0.25,0.247-0.488,0.389-0.712
	c0.142-0.225,0.299-0.438,0.474-0.638c0.15-0.2,0.313-0.394,0.486-0.58s0.358-0.364,0.552-0.532
	c0.194-0.169,0.396-0.328,0.607-0.477c0.211-0.149,0.43-0.286,0.655-0.411s0.456-0.231,0.692-0.32
	c0.236-0.089,0.477-0.161,0.721-0.218s0.491-0.097,0.739-0.123C36.6,27.912,36.85,27.9,37.1,27.9c0.275,0,0.544,0.019,0.806,0.056
	c0.262,0.038,0.519,0.094,0.769,0.169s0.494,0.169,0.731,0.281S39.875,28.65,40.1,28.8s0.438,0.312,0.641,0.489
	s0.397,0.367,0.584,0.573s0.369,0.428,0.547,0.667c0.178,0.239,0.353,0.496,0.528,0.771c0.15,0.275,0.294,0.562,0.43,0.864
	c0.136,0.301,0.264,0.617,0.382,0.948c0.119,0.332,0.229,0.679,0.327,1.043S43.725,34.9,43.8,35.3
	c0.025,0.35,0.056,0.725,0.089,1.122c0.033,0.397,0.067,0.816,0.098,1.253c0.032,0.438,0.06,0.894,0.08,1.366
	C44.087,39.513,44.1,40,44.1,40.5z M39.5,37.3c0-0.175-0.006-0.344-0.017-0.509c-0.011-0.166-0.026-0.328-0.045-0.491
	s-0.041-0.325-0.064-0.491c-0.024-0.166-0.049-0.334-0.074-0.509c-0.025-0.15-0.056-0.294-0.094-0.433
	c-0.037-0.139-0.081-0.273-0.131-0.404c-0.05-0.132-0.106-0.26-0.169-0.386S38.775,33.825,38.7,33.7
	c-0.05-0.1-0.106-0.2-0.169-0.299s-0.131-0.195-0.206-0.29c-0.075-0.093-0.156-0.184-0.244-0.27
	C37.994,32.756,37.9,32.675,37.8,32.6c-0.075-0.075-0.156-0.138-0.242-0.189c-0.086-0.052-0.177-0.092-0.271-0.123
	s-0.191-0.053-0.289-0.067C36.9,32.207,36.8,32.2,36.7,32.2s-0.194,0.006-0.284,0.019c-0.091,0.013-0.178,0.031-0.266,0.056
	s-0.175,0.056-0.266,0.094C35.794,32.406,35.7,32.45,35.6,32.5c-0.075,0.05-0.15,0.106-0.223,0.169
	c-0.074,0.062-0.146,0.131-0.215,0.206s-0.134,0.156-0.195,0.244C34.906,33.206,34.85,33.3,34.8,33.4s-0.1,0.206-0.15,0.317
	s-0.1,0.227-0.15,0.346c-0.05,0.118-0.1,0.24-0.15,0.364c-0.05,0.123-0.1,0.248-0.15,0.373c-0.025,0.15-0.05,0.3-0.073,0.45
	c-0.024,0.15-0.046,0.3-0.065,0.45c-0.018,0.15-0.034,0.3-0.045,0.45C34.006,36.3,34,36.45,34,36.6c0,0.175,0.006,0.344,0.017,0.508
	c0.011,0.164,0.026,0.323,0.045,0.479c0.019,0.157,0.041,0.31,0.064,0.461C34.15,38.2,34.175,38.35,34.2,38.5
	c0.025,0.125,0.056,0.25,0.094,0.373c0.037,0.123,0.081,0.245,0.131,0.364c0.05,0.119,0.106,0.235,0.169,0.346
	S34.725,39.8,34.8,39.9c0.05,0.1,0.106,0.194,0.169,0.281c0.062,0.088,0.131,0.169,0.206,0.244s0.156,0.144,0.244,0.206
	C35.506,40.694,35.6,40.75,35.7,40.8s0.194,0.094,0.284,0.131c0.091,0.038,0.178,0.069,0.266,0.094s0.175,0.044,0.266,0.056
	C36.606,41.094,36.7,41.1,36.8,41.1s0.2-0.006,0.299-0.019s0.195-0.031,0.29-0.056s0.185-0.056,0.27-0.094
	c0.086-0.038,0.167-0.081,0.242-0.131s0.15-0.106,0.223-0.167c0.074-0.061,0.146-0.126,0.215-0.195
	c0.069-0.069,0.134-0.141,0.195-0.215C38.594,40.15,38.65,40.075,38.7,40c0.05-0.1,0.1-0.2,0.148-0.302
	c0.049-0.101,0.096-0.204,0.139-0.31c0.044-0.106,0.084-0.216,0.12-0.33c0.036-0.114,0.067-0.233,0.092-0.358
	c0.05-0.075,0.094-0.169,0.131-0.275c0.038-0.106,0.069-0.225,0.094-0.35s0.044-0.256,0.056-0.388S39.5,37.425,39.5,37.3z"/>
<path style="fill:#003366;" d="M54.6,27.5v6.975v6.975v6.975V55.4h-1.125H52.35h-1.125H50.1v-5.275V44.85v-5.275V34.3
	c-0.05,0.075-0.106,0.15-0.169,0.223c-0.062,0.074-0.131,0.146-0.206,0.215s-0.156,0.134-0.244,0.195
	C49.394,34.994,49.3,35.05,49.2,35.1s-0.194,0.106-0.284,0.166c-0.091,0.059-0.178,0.122-0.266,0.184s-0.175,0.125-0.266,0.184
	S48.2,35.75,48.1,35.8s-0.2,0.1-0.3,0.148c-0.1,0.049-0.2,0.096-0.3,0.139c-0.1,0.044-0.2,0.084-0.3,0.12
	c-0.1,0.036-0.2,0.067-0.3,0.092s-0.2,0.05-0.3,0.075s-0.2,0.05-0.3,0.075c-0.1,0.025-0.2,0.05-0.3,0.075
	c-0.1,0.025-0.2,0.05-0.3,0.075v-1.275V34.05v-1.275V31.5c0.3-0.125,0.594-0.25,0.881-0.378c0.287-0.128,0.569-0.259,0.844-0.397
	c0.275-0.137,0.544-0.281,0.806-0.434C48.494,30.138,48.75,29.975,49,29.8s0.5-0.356,0.747-0.542
	c0.247-0.186,0.491-0.377,0.728-0.571c0.238-0.193,0.469-0.39,0.691-0.589C51.388,27.9,51.6,27.7,51.8,27.5h0.7h0.7h0.7H54.6
	L54.6,27.5L54.6,27.5L54.6,27.5L54.6,27.5z"/>
<path style="fill:#003366;" d="M66.7,27.5v6.975v6.975v6.975V55.4h-1.125H64.45h-1.125H62.2v-5.275V44.85v-5.275V34.3
	c-0.05,0.075-0.106,0.15-0.169,0.223c-0.062,0.074-0.131,0.146-0.206,0.215s-0.156,0.134-0.244,0.195
	C61.494,34.994,61.4,35.05,61.3,35.1c-0.075,0.075-0.156,0.144-0.242,0.208c-0.086,0.064-0.177,0.124-0.271,0.18
	s-0.191,0.11-0.289,0.161C60.4,35.7,60.3,35.75,60.2,35.8s-0.2,0.1-0.3,0.148c-0.1,0.049-0.2,0.096-0.3,0.139
	c-0.1,0.044-0.2,0.084-0.3,0.12c-0.1,0.036-0.2,0.067-0.3,0.092s-0.2,0.05-0.3,0.075s-0.2,0.05-0.3,0.075
	c-0.1,0.025-0.2,0.05-0.3,0.075c-0.1,0.025-0.2,0.05-0.3,0.075v-1.275V34.05v-1.275V31.5c0.3-0.125,0.594-0.25,0.881-0.378
	c0.288-0.128,0.569-0.259,0.844-0.397s0.544-0.281,0.806-0.434c0.263-0.153,0.519-0.316,0.769-0.491s0.5-0.356,0.747-0.542
	c0.247-0.186,0.491-0.377,0.728-0.571c0.238-0.193,0.469-0.39,0.691-0.589C63.487,27.9,63.7,27.7,63.9,27.5h0.7h0.7H66H66.7
	L66.7,27.5L66.7,27.5L66.7,27.5L66.7,27.5z"/>
<sodipodi:namedview  bordercolor="#666666" borderopacity="1.0" id="base" inkscape:current-layer="g11863" inkscape:cx="-71.856488" inkscape:cy="84.283015" inkscape:document-units="px" inkscape:guide-bbox="true" inkscape:lockguides="true" inkscape:pageopacity="0.0" inkscape:pageshadow="2" inkscape:window-height="648" inkscape:window-maximized="0" inkscape:window-width="962" inkscape:window-x="305" inkscape:window-y="0" inkscape:zoom="0.765625" pagecolor="#ffffff" showgrid="false" showguides="false" units="px">
	<sodipodi:guide  id="guide5700" inkscape:locked="true" orientation="0,1" position="-0.93017576,23.874511"></sodipodi:guide>
	<sodipodi:guide  id="guide5726" inkscape:locked="true" orientation="0,1" position="-26.098869,26.473047"></sodipodi:guide>
	<sodipodi:guide  id="guide5880" inkscape:locked="true" orientation="0,1" position="104.51042,-2.9104167"></sodipodi:guide>
	<sodipodi:guide  id="guide6001" inkscape:locked="true" orientation="0,1" position="-71.093695,29.279377"></sodipodi:guide>
	<sodipodi:guide  id="guide6005" inkscape:locked="true" orientation="0,1" position="-46.304445,58.278122"></sodipodi:guide>
	<sodipodi:guide  id="guide6736" inkscape:locked="true" orientation="0,1" position="-0.10335287,20.205485"></sodipodi:guide>
	<sodipodi:guide  id="guide6738" inkscape:locked="true" orientation="0,1" position="-0.43848907,22.874513"></sodipodi:guide>
	<inkscape:grid  id="grid2386" type="xygrid"></inkscape:grid>
</sodipodi:namedview>
<g id="layer4" inkscape:groupmode="layer" inkscape:label="background:always">
	<g id="g7852" inkscape:groupmode="layer" inkscape:label=":iter4" style="display:none;">
		
			<circle id="circle7850" inkscape:export-filename="C:\Users\Charlotte Abel\Documents\Symbology\Components\For Distribution\transportation-icon_highway-roadway-gray.png" inkscape:export-xdpi="300" inkscape:export-ydpi="300" style="display:inline;fill:#FFFFFF;" cx="50" cy="50" r="106.5">
		</circle>
	</g>
</g>
<g id="g1180" transform="translate(0,-229.2666)" inkscape:groupmode="layer" inkscape:label="halo:always" style="display:none;">
	<g id="g1210" inkscape:groupmode="layer" inkscape:label="-gray-halo:iter3" style="display:inline;">
		
			<circle id="circle1208" inkscape:export-filename="C:\Users\Charlotte Abel\Documents\Symbology\Components\For Distribution\transportation-icon_highway-roadway-gray.png" inkscape:export-xdpi="300" inkscape:export-ydpi="300" style="fill:none;stroke:#919395;stroke-width:21.9669;stroke-miterlimit:15.1181;" cx="50" cy="279.3" r="117">
		</circle>
	</g>
	<g id="g1206" inkscape:groupmode="layer" inkscape:label="-red-halo:iter3" style="display:inline;">
		
			<circle id="circle1204" inkscape:export-filename="C:\Users\Charlotte Abel\Documents\Symbology\Components\For Distribution\transportation-icon_highway-roadway-red.png" inkscape:export-xdpi="300" inkscape:export-ydpi="300" style="fill:none;stroke:#C52038;stroke-width:21.9669;stroke-miterlimit:15.1181;" cx="50" cy="279.3" r="117">
		</circle>
	</g>
	<g id="g1202" inkscape:groupmode="layer" inkscape:label="-green-halo:iter3" style="display:inline;">
		
			<circle id="circle1200" inkscape:export-filename="C:\Users\Charlotte Abel\Documents\Symbology\Components\For Distribution\transportation-icon_highway-roadway-green.png" inkscape:export-xdpi="300" inkscape:export-ydpi="300" style="fill:none;stroke:#5E9C42;stroke-width:21.9669;stroke-miterlimit:15.1181;" cx="50" cy="279.3" r="117">
		</circle>
	</g>
	<g id="layer18" inkscape:groupmode="layer" inkscape:label="-yellow-halo:iter3" style="display:inline;">
		
			<circle id="circle1178-4" inkscape:export-filename="C:\Users\Charlotte Abel\Documents\Symbology\Components\For Distribution\transportation-icon_highway-roadway-amber.png" inkscape:export-xdpi="300" inkscape:export-ydpi="300" style="fill:none;stroke:#FBBA16;stroke-width:21.9669;stroke-miterlimit:15.1181;" cx="50" cy="279.3" r="117">
		</circle>
	</g>
</g>
<g id="layer8" inkscape:groupmode="layer" inkscape:label="border:always" style="display:none;">
	<g id="g2274" transform="translate(0,-229.2666)" inkscape:groupmode="layer" inkscape:label=":iter2" style="display:inline;">
		
			<path id="circle2272" inkscape:connector-curvature="0" inkscape:export-filename="C:\Users\Charlotte Abel\Documents\Symbology\Components\For Distribution\transportation-icon_highway-roadway-gray.png" inkscape:export-xdpi="300" inkscape:export-ydpi="300" style="fill:#003366;" d="
			M50,171.1c-59.7,0-108.1,48.5-108.1,108.1c0,59.7,48.5,108.1,108.1,108.1s108.1-48.5,108.1-108.1S109.7,171.1,50,171.1L50,171.1z
			 M50,175.6c57.2,0,103.7,46.5,103.7,103.7S107.2,383,50,383S-53.7,336.5-53.7,279.3S-7.2,175.6,50,175.6L50,175.6z"/>
	</g>
</g>
<path id="path3382" style="fill:#003366;" d="M34.591,71.875l0.31-0.042l0.31-0.042l0.31-0.042l0.31-0.042
	c0.017,0.151,0.044,0.283,0.082,0.396c0.038,0.113,0.086,0.207,0.145,0.283c0.059,0.075,0.128,0.132,0.207,0.17
	s0.17,0.057,0.27,0.057c0.067,0,0.132-0.008,0.195-0.026c0.063-0.017,0.124-0.043,0.182-0.079c0.059-0.036,0.115-0.081,0.17-0.136
	s0.107-0.12,0.157-0.196c0.042-0.075,0.082-0.17,0.118-0.283s0.07-0.247,0.1-0.4c0.029-0.153,0.054-0.326,0.074-0.519
	s0.035-0.407,0.043-0.642c-0.042,0.059-0.084,0.113-0.126,0.163c-0.042,0.05-0.085,0.096-0.129,0.138
	c-0.044,0.042-0.089,0.08-0.136,0.113s-0.095,0.063-0.145,0.088c-0.05,0.025-0.101,0.048-0.152,0.069s-0.104,0.038-0.158,0.053
	c-0.054,0.015-0.111,0.026-0.171,0.034c-0.06,0.008-0.123,0.012-0.19,0.012c-0.126,0-0.247-0.015-0.365-0.044
	c-0.118-0.029-0.232-0.073-0.343-0.132c-0.111-0.059-0.219-0.132-0.324-0.22c-0.105-0.088-0.208-0.191-0.309-0.308
	c-0.092-0.117-0.174-0.245-0.245-0.384c-0.071-0.138-0.13-0.287-0.179-0.446c-0.048-0.159-0.085-0.329-0.11-0.509
	c-0.025-0.18-0.037-0.371-0.037-0.572c0-0.21,0.013-0.411,0.038-0.602c0.025-0.191,0.063-0.373,0.113-0.542
	c0.05-0.17,0.113-0.328,0.189-0.473c0.075-0.145,0.163-0.277,0.264-0.394c0.101-0.126,0.207-0.235,0.321-0.327
	s0.233-0.169,0.358-0.23c0.126-0.061,0.258-0.106,0.396-0.136c0.138-0.03,0.283-0.045,0.434-0.045c0.168,0,0.327,0.019,0.479,0.057
	s0.297,0.096,0.435,0.174c0.138,0.077,0.27,0.175,0.397,0.293s0.248,0.256,0.366,0.416c0.109,0.159,0.203,0.344,0.283,0.554
	c0.08,0.21,0.146,0.446,0.199,0.708c0.052,0.262,0.091,0.55,0.117,0.865c0.026,0.315,0.038,0.656,0.038,1.025
	c0,0.377-0.015,0.725-0.043,1.045c-0.029,0.32-0.072,0.613-0.128,0.879c-0.057,0.266-0.127,0.506-0.21,0.721
	c-0.083,0.215-0.18,0.406-0.289,0.574c-0.109,0.159-0.228,0.3-0.358,0.421c-0.129,0.121-0.269,0.223-0.417,0.304
	c-0.149,0.082-0.307,0.144-0.474,0.185s-0.343,0.062-0.528,0.062c-0.126,0-0.245-0.01-0.359-0.031s-0.222-0.052-0.324-0.094
	c-0.103-0.042-0.2-0.094-0.293-0.157c-0.093-0.063-0.181-0.136-0.265-0.22c-0.075-0.092-0.145-0.193-0.207-0.302
	c-0.063-0.109-0.119-0.228-0.17-0.356c-0.05-0.128-0.094-0.265-0.132-0.412C34.648,72.2,34.616,72.043,34.591,71.875L34.591,71.875
	L34.591,71.875L34.591,71.875L34.591,71.875z M37.475,68.488c0-0.126-0.006-0.245-0.019-0.358s-0.031-0.219-0.057-0.317
	c-0.025-0.098-0.057-0.19-0.094-0.273c-0.038-0.083-0.082-0.159-0.132-0.226s-0.101-0.126-0.151-0.176
	c-0.051-0.05-0.102-0.092-0.155-0.126c-0.052-0.034-0.106-0.059-0.161-0.075c-0.055-0.017-0.111-0.025-0.17-0.025
	c-0.059,0-0.115,0.006-0.17,0.019c-0.054,0.013-0.107,0.033-0.157,0.06c-0.05,0.027-0.098,0.062-0.145,0.104
	c-0.046,0.042-0.09,0.093-0.132,0.151c-0.042,0.059-0.078,0.126-0.107,0.201s-0.054,0.159-0.073,0.251
	c-0.019,0.092-0.033,0.193-0.042,0.302c-0.009,0.109-0.013,0.226-0.013,0.352c0,0.134,0.006,0.258,0.018,0.371
	c0.012,0.114,0.03,0.217,0.053,0.312c0.023,0.094,0.051,0.179,0.084,0.255c0.033,0.076,0.071,0.143,0.113,0.202
	c0.042,0.059,0.086,0.111,0.133,0.157c0.047,0.046,0.096,0.084,0.148,0.116c0.052,0.032,0.108,0.056,0.167,0.072
	c0.059,0.016,0.122,0.025,0.189,0.025c0.059,0,0.115-0.006,0.17-0.019c0.054-0.013,0.107-0.033,0.157-0.06
	c0.05-0.027,0.098-0.062,0.145-0.104c0.046-0.042,0.09-0.093,0.132-0.151c0.05-0.059,0.092-0.124,0.127-0.195
	c0.035-0.072,0.062-0.15,0.083-0.236c0.021-0.086,0.036-0.179,0.045-0.28C37.471,68.715,37.475,68.606,37.475,68.488L37.475,68.488
	L37.475,68.488L37.475,68.488L37.475,68.488z"/>
<path id="path3384" style="fill:#003366;" d="M42.505,73.753h-0.319h-0.319h-0.319H41.23v-1.459v-1.459v-1.459v-1.459
	c-0.117,0.134-0.239,0.26-0.365,0.377c-0.126,0.117-0.257,0.225-0.393,0.323c-0.136,0.098-0.278,0.187-0.425,0.267
	c-0.147,0.079-0.3,0.148-0.459,0.207V68.74v-0.352v-0.352v-0.352c0.084-0.034,0.17-0.075,0.258-0.125
	c0.088-0.05,0.178-0.107,0.27-0.172c0.092-0.065,0.187-0.137,0.283-0.217c0.096-0.079,0.195-0.165,0.295-0.257
	c0.092-0.092,0.178-0.189,0.257-0.289c0.079-0.1,0.151-0.204,0.217-0.311c0.065-0.107,0.123-0.217,0.172-0.329
	c0.05-0.113,0.091-0.228,0.125-0.345h0.26h0.26h0.26h0.26c0,0,0,0.507,0,1.268c0,0.761,0,1.775,0,2.789s0,2.029,0,2.789
	C42.505,73.246,42.505,73.753,42.505,73.753z"/>
<path id="path3386" style="fill:#003366;" d="M46.662,73.753h-0.319h-0.319h-0.319h-0.319v-1.459v-1.459v-1.459v-1.459
	c-0.117,0.134-0.239,0.26-0.365,0.377c-0.126,0.117-0.257,0.225-0.393,0.323c-0.136,0.098-0.278,0.188-0.425,0.267
	c-0.147,0.079-0.3,0.148-0.46,0.207V68.74v-0.352v-0.352v-0.352c0.084-0.034,0.17-0.075,0.258-0.125
	c0.088-0.05,0.178-0.107,0.27-0.172c0.092-0.065,0.187-0.137,0.283-0.217c0.096-0.079,0.195-0.165,0.295-0.257
	c0.092-0.092,0.178-0.189,0.257-0.289c0.079-0.1,0.151-0.204,0.216-0.311s0.123-0.217,0.172-0.33s0.092-0.228,0.125-0.345h0.26h0.26
	h0.26h0.26c0-0.008,0,0.495,0,1.254c0,0.759,0,1.774,0,2.791c0,1.016,0,2.034,0,2.797C46.662,73.243,46.662,73.753,46.662,73.753z"
	/>
<path id="path3388" style="fill:#003366;" d="M51.39,69.662l-0.285-0.067l-0.285-0.067l-0.285-0.067l-0.285-0.067
	c0.034-0.151,0.073-0.289,0.119-0.416s0.098-0.242,0.157-0.347c0.059-0.105,0.124-0.199,0.195-0.284s0.149-0.16,0.233-0.227
	s0.174-0.126,0.272-0.176c0.098-0.05,0.204-0.092,0.319-0.126c0.115-0.034,0.24-0.059,0.376-0.075
	c0.136-0.017,0.283-0.025,0.442-0.025c0.134,0,0.26,0.004,0.378,0.013c0.118,0.009,0.228,0.022,0.331,0.041
	c0.103,0.019,0.198,0.043,0.286,0.073c0.089,0.03,0.17,0.066,0.246,0.107c0.067,0.034,0.13,0.073,0.189,0.118
	c0.059,0.045,0.113,0.094,0.163,0.146c0.05,0.052,0.096,0.108,0.138,0.165c0.042,0.057,0.08,0.116,0.113,0.175
	c0.034,0.067,0.061,0.147,0.083,0.239c0.022,0.092,0.039,0.197,0.051,0.314c0.013,0.117,0.021,0.247,0.026,0.39
	c0.005,0.143,0.007,0.298,0.007,0.465v0.453v0.453v0.453v0.453c0,0.126,0.002,0.243,0.006,0.353
	c0.004,0.109,0.009,0.211,0.015,0.305c0.006,0.094,0.014,0.181,0.022,0.261s0.016,0.154,0.024,0.221
	c0.008,0.059,0.019,0.119,0.032,0.182s0.029,0.126,0.048,0.191c0.019,0.065,0.041,0.131,0.067,0.197
	c0.026,0.067,0.055,0.134,0.088,0.201h-0.31h-0.31h-0.31h-0.31l-0.042-0.159l-0.042-0.159l-0.042-0.159l-0.042-0.159
	c-0.05,0.067-0.103,0.128-0.157,0.183c-0.054,0.056-0.111,0.106-0.17,0.152c-0.059,0.046-0.119,0.088-0.182,0.127
	c-0.063,0.039-0.128,0.074-0.195,0.108c-0.059,0.034-0.119,0.063-0.182,0.088c-0.062,0.025-0.126,0.046-0.191,0.063
	s-0.131,0.029-0.197,0.038c-0.066,0.008-0.133,0.012-0.2,0.012c-0.117,0-0.228-0.01-0.334-0.031
	c-0.105-0.02-0.205-0.051-0.299-0.091s-0.183-0.089-0.268-0.147c-0.084-0.058-0.164-0.125-0.239-0.201
	c-0.075-0.075-0.14-0.159-0.195-0.25c-0.055-0.091-0.1-0.19-0.136-0.294c-0.036-0.105-0.062-0.216-0.079-0.332
	c-0.017-0.116-0.026-0.238-0.026-0.364c0-0.084,0.004-0.163,0.012-0.24s0.019-0.15,0.034-0.221c0.015-0.071,0.032-0.14,0.053-0.209
	c0.02-0.068,0.044-0.135,0.069-0.202c0.034-0.059,0.069-0.115,0.107-0.17c0.038-0.054,0.078-0.107,0.119-0.157
	c0.042-0.05,0.086-0.098,0.132-0.145c0.046-0.046,0.094-0.09,0.145-0.132c0.059-0.034,0.124-0.067,0.195-0.101
	c0.072-0.034,0.15-0.067,0.236-0.101c0.086-0.034,0.179-0.067,0.28-0.101c0.101-0.034,0.21-0.067,0.327-0.101
	c0.143-0.034,0.277-0.067,0.401-0.1c0.125-0.033,0.24-0.065,0.345-0.097s0.199-0.062,0.282-0.091
	c0.083-0.029,0.154-0.056,0.213-0.081c0-0.084-0.002-0.159-0.006-0.227c-0.004-0.068-0.009-0.127-0.015-0.18
	c-0.006-0.052-0.013-0.097-0.021-0.136c-0.008-0.038-0.016-0.07-0.025-0.095c-0.008-0.025-0.021-0.05-0.037-0.074
	s-0.036-0.047-0.059-0.068c-0.023-0.021-0.049-0.04-0.078-0.056s-0.06-0.028-0.094-0.037c-0.034-0.017-0.069-0.031-0.107-0.044
	s-0.078-0.023-0.119-0.031c-0.042-0.008-0.086-0.015-0.132-0.019s-0.094-0.006-0.145-0.006c-0.059,0-0.113,0.004-0.164,0.012
	s-0.098,0.019-0.142,0.034c-0.044,0.015-0.085,0.032-0.123,0.053c-0.038,0.02-0.074,0.043-0.108,0.069
	c-0.059,0.034-0.109,0.071-0.152,0.113c-0.044,0.042-0.08,0.088-0.112,0.138c-0.031,0.05-0.057,0.105-0.08,0.163
	S51.407,69.595,51.39,69.662L51.39,69.662L51.39,69.662L51.39,69.662L51.39,69.662z M53.067,70.936
	c-0.042,0.017-0.088,0.034-0.139,0.051c-0.051,0.017-0.106,0.035-0.167,0.054c-0.061,0.019-0.127,0.039-0.199,0.06
	c-0.072,0.021-0.149,0.045-0.233,0.07c-0.101,0.025-0.191,0.05-0.271,0.076c-0.081,0.026-0.152,0.052-0.215,0.079
	c-0.063,0.027-0.117,0.055-0.165,0.085c-0.047,0.03-0.087,0.061-0.121,0.095c-0.034,0.034-0.061,0.069-0.083,0.106
	c-0.022,0.037-0.039,0.076-0.051,0.116c-0.013,0.04-0.021,0.081-0.026,0.122s-0.007,0.083-0.007,0.125
	c0,0.059,0.004,0.113,0.013,0.165c0.008,0.051,0.021,0.1,0.038,0.146c0.017,0.046,0.038,0.09,0.063,0.133
	c0.025,0.043,0.054,0.085,0.088,0.127c0.034,0.034,0.069,0.065,0.107,0.093s0.078,0.053,0.119,0.074
	c0.042,0.021,0.086,0.038,0.132,0.049c0.046,0.012,0.094,0.018,0.145,0.018c0.042,0,0.086-0.004,0.131-0.012
	c0.045-0.008,0.091-0.019,0.137-0.034c0.046-0.015,0.092-0.033,0.137-0.053c0.045-0.02,0.089-0.044,0.131-0.069
	c0.042-0.034,0.082-0.067,0.119-0.101c0.037-0.034,0.072-0.069,0.103-0.104c0.032-0.036,0.06-0.072,0.084-0.111
	c0.025-0.038,0.046-0.078,0.062-0.12s0.031-0.092,0.044-0.151c0.013-0.059,0.023-0.126,0.031-0.201
	c0.008-0.075,0.015-0.159,0.019-0.251c0.004-0.092,0.006-0.193,0.006-0.302l-0.008-0.084l-0.008-0.084l-0.008-0.083L53.067,70.936
	L53.067,70.936L53.067,70.936L53.067,70.936L53.067,70.936z"/>
<path id="path3390" style="fill:#003366;" d="M59.471,73.753h-0.319h-0.319h-0.319h-0.319v-0.746v-0.746v-0.746v-0.746
	c0-0.151-0.002-0.289-0.006-0.415c-0.004-0.126-0.009-0.239-0.015-0.34c-0.006-0.101-0.014-0.189-0.022-0.264
	c-0.008-0.075-0.016-0.138-0.024-0.189c-0.008-0.05-0.021-0.096-0.037-0.139s-0.036-0.083-0.059-0.12
	c-0.023-0.038-0.049-0.073-0.078-0.108s-0.06-0.068-0.094-0.102c-0.034-0.025-0.067-0.048-0.101-0.069
	c-0.034-0.02-0.069-0.038-0.104-0.053c-0.036-0.015-0.072-0.026-0.111-0.034c-0.038-0.008-0.078-0.012-0.12-0.012
	c-0.05,0-0.101,0.004-0.15,0.013s-0.099,0.021-0.147,0.038c-0.048,0.017-0.095,0.038-0.141,0.063
	c-0.046,0.025-0.089,0.054-0.131,0.088c-0.042,0.034-0.082,0.071-0.119,0.113c-0.037,0.041-0.072,0.087-0.103,0.135
	s-0.06,0.1-0.084,0.153s-0.046,0.11-0.062,0.169s-0.031,0.132-0.044,0.22c-0.013,0.087-0.023,0.189-0.031,0.304
	c-0.008,0.115-0.015,0.244-0.019,0.386c-0.004,0.142-0.006,0.297-0.006,0.465v0.662v0.662v0.662v0.662h-0.319h-0.319h-0.319h-0.319
	v-1.467v-1.467v-1.467v-1.467h0.293h0.293h0.293h0.293v0.218v0.218v0.218v0.218c0.05-0.084,0.103-0.161,0.157-0.233
	c0.054-0.072,0.111-0.138,0.17-0.198c0.059-0.061,0.119-0.116,0.182-0.167s0.128-0.097,0.195-0.139
	c0.067-0.042,0.136-0.078,0.207-0.107s0.143-0.054,0.216-0.073s0.148-0.033,0.223-0.041c0.075-0.009,0.15-0.013,0.226-0.013
	c0.092,0,0.18,0.006,0.265,0.019c0.084,0.013,0.165,0.031,0.242,0.057c0.077,0.025,0.152,0.057,0.224,0.094
	c0.072,0.038,0.141,0.082,0.208,0.132c0.067,0.05,0.128,0.103,0.183,0.158s0.104,0.113,0.148,0.174
	c0.044,0.061,0.083,0.125,0.117,0.192s0.064,0.139,0.089,0.214c0.025,0.075,0.046,0.159,0.063,0.251s0.031,0.193,0.041,0.302
	c0.01,0.109,0.018,0.226,0.023,0.352c0.005,0.126,0.007,0.26,0.007,0.402v0.914v0.914v0.914L59.471,73.753L59.471,73.753
	L59.471,73.753L59.471,73.753L59.471,73.753z"/>
<path id="path3392" style="fill:#003366;" d="M64.669,73.753h-0.293h-0.293h-0.293h-0.293v-0.218v-0.218v-0.218v-0.218
	c-0.05,0.084-0.103,0.161-0.157,0.233c-0.054,0.072-0.111,0.138-0.17,0.198c-0.059,0.061-0.119,0.116-0.182,0.167
	c-0.063,0.051-0.128,0.097-0.195,0.139s-0.134,0.078-0.201,0.107s-0.134,0.054-0.201,0.073c-0.067,0.019-0.134,0.033-0.201,0.042
	c-0.067,0.009-0.134,0.013-0.201,0.013c-0.134,0-0.264-0.017-0.39-0.05c-0.126-0.034-0.247-0.084-0.365-0.151
	c-0.117-0.067-0.231-0.151-0.34-0.251c-0.109-0.101-0.214-0.218-0.314-0.352s-0.189-0.283-0.264-0.446
	c-0.075-0.163-0.138-0.342-0.189-0.534c-0.05-0.193-0.088-0.4-0.113-0.622c-0.025-0.222-0.038-0.459-0.038-0.71
	c0-0.251,0.013-0.486,0.037-0.705c0.025-0.219,0.061-0.422,0.11-0.611c0.048-0.189,0.108-0.363,0.179-0.523
	c0.071-0.16,0.152-0.307,0.245-0.441c0.101-0.126,0.205-0.237,0.315-0.333s0.224-0.177,0.343-0.242
	c0.119-0.065,0.244-0.114,0.375-0.147c0.13-0.033,0.267-0.05,0.409-0.05c0.067,0,0.132,0.004,0.195,0.013s0.125,0.021,0.186,0.038
	c0.061,0.017,0.121,0.038,0.18,0.063s0.118,0.054,0.176,0.088c0.059,0.034,0.115,0.071,0.17,0.113
	c0.055,0.042,0.109,0.088,0.161,0.138c0.052,0.05,0.104,0.105,0.154,0.163c0.051,0.059,0.101,0.122,0.151,0.189v-0.729V67.03V66.3
	v-0.729h0.319h0.319h0.319h0.319l0.008,2.045l0.008,2.045l0.009,2.045L64.669,73.753L64.669,73.753L64.669,73.753L64.669,73.753
	L64.669,73.753z M61.282,70.668c0,0.134,0.002,0.26,0.007,0.377c0.005,0.117,0.012,0.225,0.023,0.323
	c0.01,0.098,0.024,0.187,0.041,0.267s0.038,0.148,0.063,0.207c0.025,0.067,0.052,0.128,0.081,0.183
	c0.029,0.056,0.059,0.106,0.09,0.152c0.031,0.046,0.064,0.088,0.097,0.127s0.067,0.074,0.1,0.108
	c0.042,0.034,0.086,0.063,0.131,0.088c0.046,0.025,0.093,0.046,0.141,0.063c0.048,0.017,0.098,0.029,0.147,0.038
	c0.05,0.008,0.1,0.013,0.15,0.013c0.067,0,0.134-0.008,0.2-0.026c0.066-0.017,0.131-0.043,0.194-0.079
	c0.063-0.036,0.124-0.081,0.181-0.136s0.112-0.12,0.162-0.196c0.05-0.075,0.094-0.159,0.132-0.253
	c0.038-0.093,0.069-0.196,0.094-0.309c0.025-0.113,0.044-0.237,0.057-0.372c0.013-0.135,0.019-0.282,0.019-0.441
	c0-0.168-0.006-0.323-0.019-0.466c-0.013-0.143-0.031-0.274-0.057-0.393c-0.025-0.119-0.057-0.227-0.094-0.324
	s-0.082-0.183-0.132-0.259c-0.05-0.075-0.103-0.14-0.158-0.195c-0.056-0.055-0.114-0.1-0.177-0.136
	c-0.063-0.036-0.13-0.062-0.202-0.079c-0.072-0.017-0.15-0.026-0.234-0.026c-0.075,0-0.147,0.008-0.214,0.026
	c-0.068,0.017-0.131,0.043-0.192,0.079c-0.061,0.036-0.119,0.081-0.174,0.136s-0.107,0.12-0.158,0.195
	c-0.05,0.075-0.094,0.159-0.132,0.251c-0.038,0.092-0.069,0.193-0.094,0.302c-0.025,0.109-0.044,0.226-0.056,0.352
	C61.288,70.391,61.282,70.525,61.282,70.668L61.282,70.668L61.282,70.668L61.282,70.668L61.282,70.668z"/>
<path id="path3394" style="fill:#003366;" d="M32.546,76.972h0.612h0.612h0.612h0.612c0.151,0,0.293,0.004,0.428,0.013
	c0.134,0.008,0.26,0.021,0.377,0.038c0.117,0.017,0.226,0.038,0.327,0.063c0.101,0.025,0.193,0.054,0.277,0.088
	c0.075,0.034,0.151,0.073,0.226,0.119s0.149,0.099,0.223,0.157c0.073,0.059,0.146,0.124,0.217,0.195
	c0.071,0.071,0.14,0.149,0.207,0.233c0.067,0.084,0.13,0.172,0.189,0.265c0.059,0.093,0.115,0.192,0.167,0.297
	c0.052,0.105,0.102,0.216,0.148,0.334c0.047,0.118,0.091,0.244,0.133,0.378c0.034,0.134,0.065,0.275,0.093,0.422
	c0.028,0.147,0.053,0.301,0.074,0.463s0.038,0.33,0.049,0.507c0.012,0.176,0.018,0.361,0.018,0.554c0,0.176-0.004,0.346-0.013,0.51
	c-0.009,0.164-0.023,0.322-0.042,0.475c-0.019,0.153-0.043,0.301-0.073,0.444c-0.03,0.143-0.065,0.281-0.107,0.415
	c-0.042,0.126-0.086,0.245-0.132,0.358s-0.094,0.22-0.145,0.321c-0.05,0.101-0.103,0.195-0.157,0.283
	c-0.054,0.088-0.111,0.17-0.17,0.245s-0.122,0.147-0.188,0.213s-0.137,0.128-0.21,0.185c-0.073,0.057-0.15,0.108-0.229,0.153
	c-0.079,0.046-0.161,0.085-0.244,0.119s-0.174,0.065-0.271,0.093c-0.097,0.028-0.201,0.053-0.312,0.074
	c-0.111,0.021-0.229,0.038-0.356,0.049c-0.126,0.012-0.26,0.018-0.403,0.018h-0.629h-0.629h-0.629h-0.629l-0.008-2.02l-0.008-2.02
	l-0.008-2.02L32.546,76.972L32.546,76.972L32.546,76.972L32.546,76.972L32.546,76.972z M33.887,78.313v1.341v1.341v1.341v1.341
	h0.251h0.251h0.251h0.251c0.109,0,0.21-0.002,0.302-0.007c0.093-0.005,0.178-0.012,0.255-0.022c0.077-0.01,0.148-0.024,0.211-0.041
	c0.063-0.017,0.12-0.038,0.17-0.063c0.05-0.017,0.096-0.038,0.139-0.062c0.043-0.025,0.083-0.053,0.121-0.084
	s0.073-0.066,0.108-0.103c0.035-0.037,0.068-0.077,0.102-0.119s0.065-0.09,0.094-0.144c0.029-0.054,0.057-0.114,0.082-0.179
	s0.048-0.135,0.069-0.21c0.021-0.075,0.04-0.155,0.057-0.238c0.017-0.084,0.034-0.176,0.049-0.277s0.03-0.21,0.043-0.327
	c0.013-0.117,0.023-0.243,0.03-0.377c0.007-0.134,0.012-0.277,0.012-0.428c0-0.151-0.002-0.293-0.007-0.428
	c-0.005-0.134-0.012-0.26-0.023-0.377s-0.024-0.226-0.041-0.327c-0.017-0.101-0.038-0.193-0.063-0.277
	c-0.017-0.084-0.038-0.163-0.062-0.239s-0.053-0.147-0.084-0.214c-0.032-0.067-0.066-0.13-0.103-0.189s-0.077-0.113-0.119-0.163
	c-0.042-0.05-0.086-0.096-0.133-0.138c-0.047-0.042-0.096-0.08-0.148-0.113c-0.052-0.034-0.108-0.063-0.167-0.088
	c-0.059-0.025-0.122-0.046-0.189-0.063c-0.05-0.008-0.109-0.017-0.177-0.025c-0.068-0.008-0.146-0.015-0.234-0.022
	c-0.088-0.006-0.187-0.012-0.297-0.015c-0.11-0.004-0.232-0.006-0.366-0.006h-0.159h-0.159h-0.159H33.887L33.887,78.313
	L33.887,78.313L33.887,78.313L33.887,78.313z"/>
<path id="path3396" style="fill:#003366;" d="M38.749,78.38v-0.352v-0.352v-0.352v-0.352h0.319h0.319h0.319h0.319v0.36v0.36v0.36
	v0.36h-0.319h-0.319h-0.319h-0.319v-0.008v-0.008v-0.008V78.38z M38.749,85.053v-1.467v-1.467v-1.467v-1.467h0.319h0.319h0.319
	h0.319v1.467v1.467v1.467v1.467h-0.319h-0.319h-0.319H38.749z"/>
<path id="path3398" style="fill:#003366;" d="M40.359,83.376l0.319-0.059l0.319-0.059l0.319-0.059l0.319-0.059
	c0.025,0.151,0.065,0.283,0.12,0.396c0.055,0.113,0.125,0.207,0.211,0.283c0.086,0.075,0.188,0.132,0.305,0.17
	c0.118,0.038,0.252,0.057,0.403,0.057c0.075,0,0.147-0.004,0.213-0.012c0.067-0.008,0.128-0.019,0.185-0.034
	c0.057-0.015,0.108-0.032,0.154-0.053c0.046-0.02,0.085-0.043,0.119-0.069s0.065-0.054,0.093-0.087
	c0.028-0.033,0.054-0.07,0.075-0.109s0.038-0.083,0.049-0.128c0.012-0.046,0.018-0.094,0.018-0.144c0-0.034-0.002-0.065-0.006-0.094
	c-0.004-0.029-0.01-0.057-0.019-0.082c-0.008-0.025-0.019-0.048-0.031-0.069c-0.013-0.021-0.027-0.04-0.044-0.057
	c-0.017-0.017-0.038-0.034-0.063-0.05c-0.025-0.017-0.054-0.034-0.088-0.05c-0.034-0.017-0.071-0.034-0.113-0.05
	c-0.042-0.017-0.088-0.034-0.138-0.05c-0.26-0.067-0.497-0.134-0.71-0.201s-0.404-0.133-0.572-0.198
	c-0.168-0.065-0.312-0.129-0.434-0.191c-0.122-0.062-0.22-0.123-0.295-0.182c-0.084-0.075-0.159-0.159-0.225-0.251
	c-0.066-0.092-0.123-0.191-0.169-0.298c-0.046-0.107-0.082-0.221-0.106-0.342s-0.037-0.249-0.037-0.383
	c0-0.134,0.01-0.262,0.031-0.384s0.052-0.237,0.094-0.346c0.042-0.109,0.094-0.212,0.157-0.308s0.136-0.187,0.22-0.27
	c0.084-0.084,0.178-0.157,0.283-0.22c0.105-0.063,0.22-0.115,0.346-0.157c0.126-0.042,0.262-0.073,0.409-0.094
	c0.147-0.021,0.304-0.031,0.472-0.031c0.159,0,0.308,0.008,0.447,0.025c0.139,0.016,0.268,0.04,0.387,0.072
	c0.119,0.032,0.229,0.07,0.33,0.116c0.101,0.046,0.193,0.098,0.277,0.157c0.084,0.059,0.161,0.128,0.233,0.207
	s0.136,0.168,0.195,0.267c0.059,0.098,0.111,0.206,0.157,0.323c0.046,0.117,0.086,0.243,0.119,0.377l-0.302,0.067l-0.302,0.067
	l-0.302,0.067l-0.302,0.067c-0.025-0.117-0.063-0.22-0.113-0.308s-0.113-0.161-0.189-0.22c-0.075-0.059-0.163-0.103-0.264-0.132
	c-0.101-0.029-0.214-0.044-0.34-0.044c-0.075,0-0.147,0.002-0.213,0.007s-0.128,0.012-0.185,0.023
	c-0.056,0.01-0.108,0.024-0.153,0.041c-0.046,0.017-0.085,0.038-0.119,0.063c-0.033,0.025-0.063,0.05-0.088,0.076
	s-0.046,0.052-0.063,0.079c-0.017,0.027-0.029,0.056-0.038,0.086c-0.008,0.03-0.013,0.061-0.013,0.095s0.004,0.065,0.012,0.095
	c0.008,0.03,0.019,0.058,0.034,0.086c0.015,0.027,0.033,0.053,0.053,0.079s0.044,0.051,0.069,0.076
	c0.034,0.025,0.082,0.052,0.145,0.082c0.063,0.029,0.142,0.061,0.236,0.094s0.204,0.069,0.33,0.107s0.269,0.078,0.428,0.119
	c0.176,0.05,0.337,0.103,0.485,0.157s0.28,0.111,0.4,0.17c0.12,0.059,0.225,0.119,0.318,0.182c0.093,0.063,0.172,0.128,0.24,0.195
	c0.059,0.067,0.111,0.143,0.157,0.225c0.046,0.083,0.084,0.173,0.116,0.269c0.032,0.096,0.056,0.199,0.072,0.307
	c0.016,0.108,0.025,0.221,0.025,0.338c0,0.143-0.013,0.279-0.037,0.409c-0.025,0.13-0.061,0.254-0.11,0.371
	s-0.108,0.228-0.179,0.333c-0.071,0.105-0.152,0.203-0.244,0.295c-0.092,0.092-0.195,0.172-0.308,0.239s-0.237,0.123-0.371,0.167
	c-0.134,0.044-0.279,0.077-0.434,0.098c-0.155,0.021-0.321,0.032-0.497,0.032c-0.151,0-0.298-0.01-0.439-0.031
	c-0.141-0.02-0.278-0.051-0.408-0.09c-0.13-0.04-0.254-0.089-0.37-0.148s-0.225-0.125-0.326-0.201
	c-0.084-0.067-0.163-0.145-0.238-0.233c-0.074-0.088-0.144-0.187-0.206-0.296c-0.063-0.109-0.119-0.228-0.169-0.358
	C40.434,83.668,40.392,83.527,40.359,83.376L40.359,83.376L40.359,83.376L40.359,83.376L40.359,83.376z"/>
<path id="path3400" style="fill:#003366;" d="M45.422,79.185h0.293h0.293h0.293h0.293v0.218v0.218v0.218v0.218
	c0.042-0.075,0.086-0.147,0.133-0.214s0.096-0.131,0.148-0.192c0.052-0.061,0.108-0.119,0.167-0.174
	c0.059-0.055,0.122-0.107,0.189-0.158c0.067-0.042,0.134-0.08,0.202-0.113c0.068-0.033,0.136-0.061,0.205-0.084
	c0.069-0.023,0.139-0.041,0.211-0.053s0.145-0.018,0.22-0.018c0.134,0,0.264,0.017,0.39,0.05c0.126,0.033,0.247,0.082,0.365,0.147
	c0.117,0.065,0.231,0.146,0.34,0.242c0.109,0.096,0.214,0.207,0.314,0.333c0.101,0.134,0.189,0.281,0.264,0.44
	c0.075,0.159,0.138,0.331,0.189,0.516c0.05,0.184,0.088,0.381,0.113,0.591c0.025,0.21,0.038,0.432,0.038,0.666
	c0,0.251-0.013,0.488-0.038,0.71c-0.025,0.222-0.063,0.43-0.113,0.622c-0.05,0.193-0.113,0.371-0.189,0.534
	c-0.075,0.163-0.163,0.312-0.264,0.446s-0.205,0.251-0.314,0.352c-0.109,0.101-0.222,0.184-0.34,0.251
	c-0.117,0.067-0.239,0.117-0.365,0.151c-0.126,0.034-0.256,0.05-0.39,0.05c-0.067,0-0.132-0.004-0.195-0.012
	c-0.063-0.008-0.124-0.019-0.182-0.034c-0.059-0.015-0.115-0.032-0.17-0.053c-0.054-0.02-0.107-0.043-0.157-0.069
	c-0.05-0.034-0.103-0.071-0.157-0.114s-0.111-0.091-0.17-0.146c-0.059-0.054-0.119-0.115-0.182-0.183
	c-0.063-0.068-0.128-0.144-0.195-0.227v0.738v0.738v0.738v0.738h-0.31h-0.31h-0.31h-0.31v-2.02v-2.02v-2.02V79.185L45.422,79.185
	L45.422,79.185L45.422,79.185L45.422,79.185z M46.696,82.035c0,0.168,0.006,0.323,0.019,0.466c0.013,0.144,0.033,0.276,0.06,0.397
	c0.027,0.122,0.062,0.233,0.104,0.334s0.093,0.194,0.151,0.278c0.05,0.075,0.105,0.143,0.163,0.201
	c0.058,0.058,0.12,0.107,0.185,0.147c0.065,0.04,0.133,0.07,0.204,0.09c0.071,0.02,0.144,0.031,0.22,0.031
	c0.075,0,0.147-0.008,0.214-0.026c0.068-0.017,0.132-0.043,0.192-0.079c0.061-0.036,0.118-0.081,0.173-0.136s0.107-0.12,0.158-0.195
	c0.05-0.075,0.094-0.161,0.132-0.258c0.038-0.096,0.069-0.203,0.094-0.321c0.025-0.117,0.044-0.245,0.057-0.384
	c0.013-0.138,0.019-0.287,0.019-0.446c0-0.151-0.006-0.293-0.019-0.427c-0.013-0.134-0.031-0.258-0.057-0.373
	c-0.025-0.115-0.057-0.221-0.094-0.317s-0.082-0.182-0.132-0.257s-0.103-0.14-0.158-0.195c-0.055-0.055-0.113-0.1-0.174-0.136
	c-0.061-0.036-0.125-0.062-0.192-0.08c-0.068-0.017-0.139-0.026-0.214-0.026c-0.075,0-0.149,0.008-0.22,0.026
	c-0.071,0.017-0.139,0.043-0.204,0.079c-0.065,0.036-0.127,0.081-0.185,0.136c-0.058,0.055-0.113,0.12-0.163,0.195
	c-0.059,0.059-0.109,0.13-0.151,0.213c-0.042,0.083-0.077,0.179-0.104,0.286c-0.027,0.107-0.047,0.225-0.06,0.355
	C46.702,81.744,46.696,81.884,46.696,82.035L46.696,82.035L46.696,82.035L46.696,82.035L46.696,82.035z"/>
<path id="path3402" style="fill:#003366;" d="M51.592,80.995l-0.285-0.067l-0.285-0.067l-0.285-0.067l-0.285-0.067
	c0.034-0.151,0.073-0.289,0.119-0.416c0.046-0.127,0.098-0.242,0.157-0.347c0.059-0.105,0.124-0.199,0.195-0.284
	c0.071-0.085,0.149-0.16,0.233-0.227s0.174-0.126,0.272-0.176c0.098-0.05,0.204-0.092,0.319-0.126
	c0.115-0.034,0.24-0.059,0.376-0.075c0.136-0.017,0.283-0.025,0.442-0.025c0.134,0,0.26,0.004,0.378,0.013
	c0.118,0.009,0.228,0.023,0.33,0.042c0.103,0.019,0.198,0.043,0.287,0.073c0.088,0.03,0.17,0.066,0.246,0.107
	c0.067,0.034,0.13,0.073,0.189,0.118c0.059,0.045,0.113,0.094,0.163,0.146s0.096,0.108,0.138,0.165
	c0.042,0.057,0.08,0.116,0.113,0.174c0.034,0.067,0.061,0.147,0.083,0.239c0.022,0.092,0.039,0.197,0.051,0.314
	c0.013,0.117,0.021,0.247,0.026,0.39c0.005,0.143,0.007,0.298,0.007,0.465v0.453v0.453v0.453v0.453c0,0.126,0.002,0.243,0.006,0.353
	c0.004,0.109,0.009,0.211,0.015,0.305c0.006,0.094,0.014,0.181,0.022,0.261c0.008,0.08,0.016,0.154,0.024,0.221
	c0.008,0.059,0.019,0.119,0.032,0.182s0.029,0.126,0.048,0.191c0.019,0.065,0.041,0.131,0.067,0.197
	c0.026,0.066,0.055,0.134,0.089,0.201h-0.31h-0.31h-0.31h-0.31l-0.042-0.159l-0.042-0.159l-0.042-0.159l-0.042-0.159
	c-0.05,0.067-0.103,0.128-0.157,0.183c-0.054,0.056-0.111,0.106-0.17,0.152c-0.059,0.046-0.119,0.088-0.182,0.127
	c-0.063,0.039-0.128,0.074-0.195,0.108c-0.059,0.034-0.119,0.063-0.182,0.088c-0.062,0.025-0.126,0.046-0.191,0.063
	c-0.065,0.017-0.131,0.029-0.197,0.038c-0.066,0.008-0.133,0.013-0.201,0.013c-0.117,0-0.228-0.01-0.334-0.031
	c-0.105-0.02-0.205-0.051-0.299-0.09c-0.094-0.04-0.183-0.089-0.268-0.147c-0.084-0.058-0.164-0.125-0.239-0.201
	c-0.075-0.075-0.14-0.159-0.195-0.25c-0.055-0.091-0.1-0.19-0.136-0.294c-0.036-0.105-0.062-0.216-0.079-0.332
	s-0.026-0.238-0.026-0.364c0-0.084,0.004-0.163,0.012-0.24c0.008-0.076,0.019-0.15,0.034-0.221c0.015-0.071,0.032-0.14,0.053-0.209
	c0.02-0.068,0.044-0.135,0.069-0.202c0.025-0.067,0.057-0.128,0.093-0.184s0.077-0.107,0.121-0.155
	c0.044-0.048,0.091-0.093,0.14-0.137c0.049-0.044,0.099-0.085,0.15-0.127c0.059-0.034,0.124-0.067,0.195-0.101
	c0.072-0.034,0.15-0.067,0.236-0.101c0.086-0.034,0.179-0.067,0.28-0.101c0.101-0.034,0.21-0.067,0.328-0.101
	c0.143-0.034,0.277-0.067,0.401-0.1c0.125-0.033,0.24-0.065,0.345-0.097c0.105-0.031,0.199-0.062,0.282-0.091
	c0.083-0.029,0.154-0.056,0.213-0.081c0-0.084-0.002-0.159-0.006-0.227c-0.004-0.068-0.009-0.127-0.015-0.18
	c-0.006-0.052-0.013-0.097-0.021-0.136c-0.008-0.038-0.016-0.07-0.025-0.095s-0.021-0.05-0.037-0.074
	c-0.016-0.024-0.036-0.047-0.059-0.068c-0.023-0.021-0.049-0.04-0.078-0.056c-0.029-0.016-0.061-0.028-0.094-0.037
	c-0.034-0.017-0.069-0.031-0.107-0.044s-0.078-0.023-0.119-0.031c-0.042-0.008-0.086-0.015-0.132-0.019s-0.094-0.006-0.145-0.006
	c-0.059,0-0.113,0.004-0.164,0.012c-0.051,0.008-0.098,0.019-0.142,0.034c-0.044,0.015-0.085,0.033-0.123,0.053
	c-0.038,0.02-0.074,0.043-0.107,0.068c-0.05,0.025-0.094,0.057-0.134,0.094c-0.039,0.038-0.074,0.082-0.105,0.132
	c-0.031,0.05-0.06,0.107-0.086,0.17C51.642,80.851,51.617,80.92,51.592,80.995L51.592,80.995L51.592,80.995L51.592,80.995
	L51.592,80.995z M53.302,82.236c-0.042,0.017-0.088,0.034-0.139,0.051c-0.051,0.017-0.106,0.035-0.167,0.054
	c-0.061,0.019-0.127,0.039-0.199,0.06c-0.072,0.022-0.149,0.045-0.233,0.07c-0.101,0.025-0.191,0.05-0.271,0.076
	c-0.081,0.026-0.152,0.052-0.215,0.079c-0.063,0.027-0.117,0.055-0.165,0.085s-0.087,0.061-0.121,0.095
	c-0.034,0.034-0.061,0.069-0.083,0.106c-0.022,0.037-0.039,0.076-0.051,0.116c-0.013,0.04-0.021,0.081-0.026,0.122
	c-0.005,0.041-0.007,0.083-0.007,0.125c0,0.059,0.004,0.113,0.013,0.165c0.008,0.051,0.021,0.1,0.038,0.146s0.038,0.09,0.063,0.133
	s0.054,0.085,0.088,0.127c0.034,0.034,0.069,0.065,0.107,0.093c0.038,0.028,0.078,0.053,0.119,0.074
	c0.042,0.021,0.086,0.038,0.132,0.049s0.094,0.018,0.145,0.018c0.042,0,0.086-0.004,0.131-0.012
	c0.045-0.008,0.091-0.019,0.137-0.034c0.046-0.015,0.092-0.032,0.137-0.053c0.045-0.02,0.089-0.043,0.131-0.069
	c0.042-0.025,0.082-0.054,0.119-0.087c0.037-0.032,0.072-0.068,0.103-0.106c0.031-0.038,0.06-0.078,0.084-0.118
	c0.025-0.041,0.046-0.083,0.063-0.125c0.017-0.042,0.032-0.092,0.044-0.151c0.013-0.059,0.023-0.126,0.031-0.201
	c0.008-0.075,0.015-0.159,0.019-0.251s0.006-0.193,0.006-0.302l-0.008-0.084l-0.008-0.084L53.31,82.32L53.302,82.236L53.302,82.236
	L53.302,82.236L53.302,82.236L53.302,82.236z"/>
<path id="path3404" style="fill:#003366;" d="M57.527,79.185v0.31v0.31v0.31v0.31h-0.218h-0.218h-0.218h-0.218v0.595v0.595v0.595
	v0.595c0,0.126,0,0.239,0.001,0.339s0.002,0.187,0.004,0.261s0.005,0.133,0.01,0.179c0.005,0.046,0.011,0.077,0.02,0.094
	c0.017,0.034,0.036,0.065,0.057,0.093s0.044,0.053,0.069,0.074s0.052,0.038,0.082,0.049s0.061,0.018,0.094,0.018
	c0.025,0,0.057-0.002,0.093-0.007c0.036-0.005,0.077-0.012,0.121-0.022c0.044-0.01,0.091-0.024,0.14-0.041
	c0.049-0.017,0.099-0.038,0.149-0.064l0.025,0.302l0.025,0.302l0.025,0.302l0.025,0.302c-0.075,0.042-0.153,0.078-0.233,0.107
	c-0.08,0.03-0.161,0.054-0.245,0.073s-0.17,0.033-0.258,0.042c-0.088,0.009-0.178,0.013-0.27,0.013
	c-0.084,0-0.161-0.004-0.234-0.013c-0.072-0.009-0.139-0.023-0.202-0.042c-0.063-0.019-0.122-0.043-0.177-0.073
	c-0.056-0.03-0.108-0.066-0.158-0.107c-0.05-0.042-0.096-0.086-0.138-0.133c-0.042-0.047-0.08-0.097-0.113-0.152
	c-0.034-0.054-0.063-0.113-0.088-0.177s-0.046-0.133-0.063-0.209c-0.017-0.05-0.029-0.115-0.039-0.195s-0.016-0.174-0.02-0.283
	c-0.004-0.109-0.006-0.233-0.007-0.371c-0.001-0.138-0.001-0.291-0.001-0.459V82.37v-0.637v-0.637v-0.637h-0.143h-0.143H54.92
	h-0.143v-0.31v-0.31v-0.31v-0.31h0.143h0.143h0.143h0.143v-0.293v-0.293v-0.293v-0.293l0.319-0.226l0.319-0.226l0.319-0.226
	l0.319-0.226v0.52v0.52v0.52v0.52l0.226-0.008l0.226-0.008l0.226-0.008L57.527,79.185L57.527,79.185L57.527,79.185L57.527,79.185
	L57.527,79.185z"/>
<path id="path3406" style="fill:#003366;" d="M62.087,80.928l-0.31,0.067l-0.31,0.067l-0.31,0.067l-0.31,0.067
	c-0.025-0.151-0.061-0.283-0.108-0.396s-0.106-0.207-0.177-0.283c-0.071-0.075-0.155-0.132-0.253-0.17s-0.209-0.057-0.334-0.057
	c-0.075,0-0.149,0.008-0.219,0.025c-0.07,0.017-0.137,0.042-0.2,0.075c-0.063,0.034-0.122,0.075-0.175,0.126
	c-0.053,0.05-0.102,0.109-0.144,0.176c-0.05,0.067-0.094,0.145-0.132,0.233c-0.038,0.089-0.069,0.188-0.094,0.299
	c-0.025,0.111-0.044,0.234-0.057,0.368c-0.013,0.135-0.019,0.281-0.019,0.441c0,0.176,0.006,0.337,0.019,0.485
	c0.013,0.148,0.031,0.282,0.057,0.403s0.057,0.231,0.094,0.328s0.082,0.183,0.132,0.259s0.103,0.14,0.158,0.195
	c0.056,0.055,0.114,0.1,0.177,0.136s0.13,0.062,0.202,0.079c0.072,0.017,0.15,0.026,0.234,0.026c0.059,0,0.115-0.004,0.17-0.013
	s0.107-0.023,0.157-0.042c0.05-0.019,0.098-0.043,0.145-0.073c0.046-0.03,0.09-0.066,0.132-0.108c0.042-0.042,0.08-0.092,0.114-0.15
	c0.034-0.058,0.065-0.124,0.092-0.198c0.027-0.073,0.051-0.154,0.073-0.242c0.021-0.087,0.04-0.182,0.057-0.282l0.31,0.067
	l0.31,0.067l0.31,0.067l0.31,0.067c-0.067,0.352-0.163,0.66-0.289,0.924c-0.126,0.264-0.281,0.484-0.465,0.66
	c-0.184,0.176-0.398,0.308-0.641,0.396c-0.243,0.088-0.516,0.132-0.817,0.132c-0.193,0-0.375-0.019-0.546-0.057
	s-0.33-0.094-0.477-0.17c-0.147-0.075-0.281-0.17-0.401-0.283c-0.121-0.113-0.227-0.245-0.32-0.396
	c-0.092-0.151-0.174-0.308-0.245-0.472s-0.13-0.335-0.179-0.513c-0.048-0.178-0.085-0.363-0.11-0.557s-0.037-0.394-0.037-0.604
	c0-0.251,0.013-0.488,0.038-0.71c0.026-0.222,0.064-0.428,0.117-0.619c0.052-0.191,0.118-0.366,0.199-0.524
	c0.08-0.159,0.175-0.301,0.284-0.427c0.109-0.134,0.226-0.249,0.352-0.347c0.126-0.097,0.26-0.177,0.402-0.24
	c0.143-0.063,0.293-0.109,0.453-0.139c0.159-0.03,0.327-0.045,0.503-0.045c0.143,0,0.277,0.008,0.403,0.026
	c0.127,0.017,0.246,0.043,0.359,0.079s0.22,0.081,0.322,0.136c0.102,0.055,0.198,0.12,0.29,0.195
	c0.075,0.067,0.149,0.147,0.218,0.238c0.07,0.092,0.136,0.195,0.197,0.311c0.061,0.116,0.116,0.242,0.165,0.38
	C62.011,80.62,62.053,80.769,62.087,80.928L62.087,80.928L62.087,80.928L62.087,80.928L62.087,80.928z"/>
<path id="path3408" style="fill:#003366;" d="M63.83,76.972v0.746v0.746v0.746v0.746c0.05-0.075,0.103-0.145,0.157-0.209
	c0.054-0.064,0.109-0.123,0.166-0.177c0.057-0.054,0.114-0.105,0.173-0.152c0.058-0.047,0.117-0.091,0.176-0.133
	c0.059-0.034,0.119-0.065,0.182-0.093c0.063-0.028,0.128-0.053,0.195-0.074c0.067-0.021,0.136-0.038,0.207-0.049
	c0.071-0.012,0.145-0.018,0.22-0.018c0.092,0,0.182,0.006,0.27,0.019c0.087,0.013,0.172,0.031,0.254,0.057s0.16,0.057,0.235,0.094
	c0.075,0.038,0.146,0.082,0.213,0.132c0.067,0.05,0.128,0.107,0.183,0.169s0.104,0.131,0.148,0.204
	c0.044,0.073,0.083,0.152,0.117,0.235c0.034,0.083,0.063,0.171,0.089,0.263c0.017,0.067,0.034,0.147,0.049,0.239
	s0.03,0.197,0.043,0.314c0.013,0.117,0.023,0.247,0.03,0.39c0.007,0.143,0.012,0.298,0.012,0.465v0.863v0.863v0.863v0.863H66.63
	h-0.319h-0.319h-0.319v-0.771v-0.771v-0.771v-0.771c0-0.176-0.002-0.337-0.007-0.483c-0.005-0.146-0.012-0.276-0.023-0.389
	c-0.01-0.113-0.024-0.21-0.041-0.288c-0.017-0.079-0.038-0.139-0.063-0.181c-0.034-0.059-0.071-0.111-0.114-0.157
	s-0.091-0.084-0.146-0.116c-0.054-0.032-0.115-0.056-0.183-0.072c-0.068-0.016-0.144-0.025-0.227-0.025
	c-0.084,0-0.161,0.008-0.234,0.025c-0.072,0.017-0.139,0.042-0.202,0.075c-0.063,0.034-0.122,0.075-0.177,0.126
	c-0.056,0.05-0.108,0.109-0.158,0.176c-0.042,0.067-0.08,0.147-0.113,0.24c-0.033,0.093-0.061,0.2-0.084,0.322
	c-0.023,0.122-0.041,0.258-0.053,0.41c-0.012,0.152-0.018,0.32-0.018,0.504v0.738v0.738v0.738v0.738h-0.319h-0.319h-0.319h-0.319
	v-2.037v-2.037v-2.037v-2.037h0.319h0.319h0.319H63.83L63.83,76.972L63.83,76.972L63.83,76.972L63.83,76.972z"/>
<g id="g8010" inkscape:groupmode="layer" inkscape:label="communications_911-dispatch" style="display:none;">
	
		<g id="g8008" transform="matrix(0.8279824,0,0,0.8279824,7.3591483,4.852775)" inkscape:export-filename="C:\Users\Charlotte Abel\Documents\Symbology\Components\For Distribution\communications_911-dispatch-gray.png" inkscape:export-xdpi="300.00458" inkscape:export-ydpi="300.00458" style="display:inline;">
		<path id="path8002" inkscape:connector-curvature="0" style="fill:#003366;" d="M116.5,13.4c0.6-0.4,1.3-0.9,1.5-1.4
			c3.6-6.8-0.6-17.1-5.1-22.8c-14.7-18.4-44.1-20.1-67.2-18c-20.5,1.9-57.4,7.7-56.8,32c0,3,0.5,7.1,3.2,9.4
			c4.6,3.7,11.7,3,17.2,2.4c4.1-0.5,14-0.4,17-3.2C29,9.3,28,5.1,28.1,2l0.1-5.5c0-0.9,11-2.8,12.3-2.9c4.5-0.8,9-1.2,13.5-1.2
			c4.4,0,8.9,0.3,13.1,1.1c1.2,0.2,11.7,2.2,11.8,3.1c0,0,0.1,6.7,0.6,9c1,4.9,1.9,8.7,8.2,10.1c2.4,0.5,4.6,0.5,7.1,0.6
			c4.2,0,8.6,0.1,12.8-0.5C110,15.2,114.1,14.9,116.5,13.4L116.5,13.4z"/>
		<g style="enable-background:new    ;">
			<path style="fill:#003366;" d="M27.4,69.4c0,8.7-0.7,16.6-2.2,23.4c-1.4,6.9-3.5,12.7-6.3,17.5c-2.8,4.8-6.1,8.4-10.1,10.9
				S0.3,125-4.7,125c-6,0-11.2-1.3-15.6-3.8v-17.8c3.9,3.4,8.5,5.1,14,5.1c5.6,0,10-2.5,13.1-7.6c3.2-5.1,4.8-12.4,4.8-22l-0.3-0.1
				C8,85.3,3.1,88.5-3.6,88.5c-3,0-5.8-0.8-8.4-2.3s-4.8-3.6-6.6-6.3c-1.9-2.7-3.3-5.9-4.4-9.6c-1-3.7-1.6-7.8-1.6-12.2
				c0-5.2,0.6-9.9,1.9-14.1c1.3-4.3,3-7.9,5.3-11c2.3-3.1,5-5.4,8.2-7.1c3.2-1.7,6.7-2.5,10.6-2.5c4,0,7.6,1,10.8,3.1s5.9,5.1,8.2,9
				c2.2,3.9,4,8.8,5.1,14.5C26.9,55.6,27.4,62.1,27.4,69.4z M11,57.8c0-2.5-0.2-4.9-0.7-7.1c-0.5-2.2-1.1-4.1-2-5.7
				c-0.9-1.6-1.9-2.9-3.1-3.8c-1.2-0.9-2.6-1.4-4.1-1.4c-1.4,0-2.7,0.4-3.9,1.2C-4,41.8-5,43-5.9,44.4s-1.5,3.2-2,5.2
				c-0.5,2-0.7,4.2-0.7,6.5c0,2.6,0.2,4.8,0.7,6.8c0.5,2,1.2,3.7,2,5C-5,69.3-4,70.3-2.7,71c1.2,0.7,2.6,1.1,4.1,1.1
				c1.4,0,2.7-0.4,3.9-1.1c1.2-0.8,2.2-1.8,3-3.1c0.8-1.3,1.5-2.8,2-4.5C10.8,61.7,11,59.9,11,57.8z"/>
			<path style="fill:#003366;" d="M75,22.7v100.6H58.8V47.1c-0.9,1.1-1.9,2-3.2,3c-1.2,0.9-2.5,1.8-3.9,2.5
				c-1.4,0.8-2.8,1.4-4.3,1.9s-2.9,0.9-4.4,1.1V37.3c4.2-1.6,8.2-3.8,11.9-6.3c3.7-2.6,7.1-5.4,10.1-8.4h10C75,22.6,75,22.7,75,22.7
				z"/>
			<path style="fill:#003366;" d="M135.6,22.7v100.6h-16.2V47.1c-0.9,1.1-1.9,2-3.2,3c-1.2,0.9-2.5,1.8-3.9,2.5
				c-1.4,0.8-2.8,1.4-4.3,1.9s-2.9,0.9-4.4,1.1V37.3c4.2-1.6,8.2-3.8,11.9-6.3c3.7-2.6,7.1-5.4,10.1-8.4h10V22.7z"/>
		</g>
	</g>
</g>
</svg>
