<?xml version="1.0" encoding="iso-8859-1"?>
<!-- Generator: Adobe Illustrator 25.4.1, SVG Export Plug-In . SVG Version: 6.00 Build 0)  -->
<svg version="1.1"
	 id="svg8" xmlns:cc="http://creativecommons.org/ns#" xmlns:dc="http://purl.org/dc/elements/1.1/" xmlns:inkscape="http://www.inkscape.org/namespaces/inkscape" xmlns:rdf="http://www.w3.org/1999/02/22-rdf-syntax-ns#" xmlns:sodipodi="http://sodipodi.sourceforge.net/DTD/sodipodi-0.dtd" xmlns:svg="http://www.w3.org/2000/svg"
	 xmlns="http://www.w3.org/2000/svg" xmlns:xlink="http://www.w3.org/1999/xlink" x="0px" y="0px" viewBox="0 0 100 100"
	 style="enable-background:new 0 0 100 100;" xml:space="preserve">
<sodipodi:namedview  bordercolor="#666666" borderopacity="1.0" id="base" inkscape:current-layer="layer3" inkscape:cx="111.63198" inkscape:cy="84.283015" inkscape:document-units="px" inkscape:guide-bbox="true" inkscape:lockguides="true" inkscape:pageopacity="0.0" inkscape:pageshadow="2" inkscape:window-height="648" inkscape:window-maximized="0" inkscape:window-width="962" inkscape:window-x="305" inkscape:window-y="0" inkscape:zoom="0.765625" pagecolor="#ffffff" showgrid="false" showguides="false" units="px">
	<sodipodi:guide  id="guide5700" inkscape:locked="true" orientation="0,1" position="-0.93017576,23.874511"></sodipodi:guide>
	<sodipodi:guide  id="guide5726" inkscape:locked="true" orientation="0,1" position="-26.098869,26.473047"></sodipodi:guide>
	<sodipodi:guide  id="guide5880" inkscape:locked="true" orientation="0,1" position="104.51042,-2.9104167"></sodipodi:guide>
	<sodipodi:guide  id="guide6001" inkscape:locked="true" orientation="0,1" position="-71.093695,29.279377"></sodipodi:guide>
	<sodipodi:guide  id="guide6005" inkscape:locked="true" orientation="0,1" position="-46.304445,58.278122"></sodipodi:guide>
	<sodipodi:guide  id="guide6736" inkscape:locked="true" orientation="0,1" position="-0.10335287,20.205485"></sodipodi:guide>
	<sodipodi:guide  id="guide6738" inkscape:locked="true" orientation="0,1" position="-0.43848907,22.874513"></sodipodi:guide>
	<inkscape:grid  id="grid2386" type="xygrid"></inkscape:grid>
</sodipodi:namedview>
<g id="g1180" transform="translate(0,-229.2666)" inkscape:groupmode="layer" inkscape:label="halo:always" style="display:none;">
	<g id="g1210" inkscape:groupmode="layer" inkscape:label="-gray-halo:iter3" style="display:inline;">
		
			<circle id="circle1208" inkscape:export-filename="C:\Users\Charlotte Abel\Documents\Symbology\Components\For Distribution\transportation-icon_highway-roadway-gray.png" inkscape:export-xdpi="300" inkscape:export-ydpi="300" style="fill:none;stroke:#919395;stroke-width:21.9669;stroke-miterlimit:15.1181;" cx="50" cy="279.3" r="117">
		</circle>
	</g>
	<g id="g1206" inkscape:groupmode="layer" inkscape:label="-red-halo:iter3" style="display:inline;">
		
			<circle id="circle1204" inkscape:export-filename="C:\Users\Charlotte Abel\Documents\Symbology\Components\For Distribution\transportation-icon_highway-roadway-red.png" inkscape:export-xdpi="300" inkscape:export-ydpi="300" style="fill:none;stroke:#C52038;stroke-width:21.9669;stroke-miterlimit:15.1181;" cx="50" cy="279.3" r="117">
		</circle>
	</g>
	<g id="g1202" inkscape:groupmode="layer" inkscape:label="-green-halo:iter3" style="display:inline;">
		
			<circle id="circle1200" inkscape:export-filename="C:\Users\Charlotte Abel\Documents\Symbology\Components\For Distribution\transportation-icon_highway-roadway-green.png" inkscape:export-xdpi="300" inkscape:export-ydpi="300" style="fill:none;stroke:#5E9C42;stroke-width:21.9669;stroke-miterlimit:15.1181;" cx="50" cy="279.3" r="117">
		</circle>
	</g>
	<g id="layer18" inkscape:groupmode="layer" inkscape:label="-yellow-halo:iter3" style="display:inline;">
		
			<circle id="circle1178-4" inkscape:export-filename="C:\Users\Charlotte Abel\Documents\Symbology\Components\For Distribution\transportation-icon_highway-roadway-amber.png" inkscape:export-xdpi="300" inkscape:export-ydpi="300" style="fill:none;stroke:#FBBA16;stroke-width:21.9669;stroke-miterlimit:15.1181;" cx="50" cy="279.3" r="117">
		</circle>
	</g>
</g>
<path id="path8002" inkscape:connector-curvature="0" style="fill:#003366;" d="M74.3,35.3c0.05-0.025,0.106-0.056,0.162-0.092
	c0.056-0.036,0.112-0.076,0.162-0.12c0.05-0.044,0.094-0.091,0.125-0.139S74.8,34.85,74.8,34.8c0.35-0.65,0.512-1.375,0.533-2.13
	s-0.101-1.539-0.32-2.308c-0.219-0.768-0.535-1.521-0.902-2.214c-0.367-0.692-0.786-1.323-1.211-1.848
	c-1.375-1.725-3.094-3.056-5.033-4.07s-4.099-1.711-6.355-2.167s-4.61-0.672-6.936-0.723C52.25,19.288,49.95,19.4,47.8,19.6
	c-1.925,0.175-4.225,0.438-6.589,0.876c-2.364,0.439-4.792,1.055-6.973,1.936c-2.181,0.882-4.116,2.028-5.493,3.53
	S26.55,29.3,26.6,31.6c0,0.275,0.012,0.581,0.047,0.898c0.034,0.317,0.091,0.645,0.178,0.964s0.206,0.628,0.366,0.908
	c0.159,0.28,0.359,0.53,0.609,0.73c0.425,0.35,0.913,0.594,1.436,0.759c0.523,0.166,1.083,0.253,1.652,0.291
	c0.569,0.038,1.147,0.025,1.707-0.009S33.7,36.05,34.2,36c0.375-0.05,0.888-0.081,1.464-0.117s1.217-0.077,1.848-0.146
	c0.632-0.069,1.254-0.165,1.793-0.314S40.3,35.075,40.6,34.8c0.25-0.225,0.412-0.494,0.517-0.789s0.152-0.617,0.171-0.948
	c0.019-0.331,0.009-0.672,0.001-1.005C41.281,31.725,41.275,31.4,41.3,31.1v-0.525V30.05v-0.525V29c0-0.1,0.256-0.212,0.648-0.327
	c0.392-0.114,0.92-0.23,1.464-0.336c0.544-0.106,1.104-0.203,1.558-0.279c0.455-0.076,0.805-0.133,0.93-0.158
	c0.425-0.075,0.85-0.144,1.273-0.205s0.846-0.114,1.265-0.157c0.418-0.044,0.834-0.078,1.245-0.102S50.5,27.4,50.9,27.4
	c0.425,0,0.844,0.006,1.258,0.02c0.414,0.014,0.823,0.036,1.229,0.067s0.809,0.072,1.211,0.124S55.4,27.725,55.8,27.8
	c0.125,0.025,0.462,0.087,0.898,0.172s0.971,0.191,1.49,0.303c0.519,0.113,1.022,0.231,1.395,0.341
	c0.373,0.109,0.617,0.209,0.617,0.284c0,0,0,0.156,0.003,0.405c0.003,0.248,0.009,0.589,0.022,0.958
	c0.013,0.368,0.031,0.765,0.059,1.126c0.028,0.361,0.066,0.686,0.116,0.911c0.1,0.475,0.194,0.919,0.316,1.325
	s0.272,0.775,0.484,1.1c0.212,0.325,0.487,0.606,0.859,0.838S62.9,35.975,63.5,36.1c0.225,0.05,0.444,0.088,0.661,0.116
	c0.217,0.028,0.433,0.047,0.651,0.059c0.219,0.013,0.441,0.019,0.671,0.022C65.712,36.3,65.95,36.3,66.2,36.3c0.4,0,0.8,0,1.2-0.003
	c0.4-0.003,0.8-0.009,1.2-0.022c0.4-0.012,0.8-0.031,1.2-0.059c0.4-0.028,0.8-0.066,1.2-0.116c0.2-0.025,0.45-0.05,0.727-0.083
	c0.276-0.033,0.579-0.073,0.885-0.129c0.306-0.056,0.616-0.128,0.905-0.223C73.806,35.569,74.075,35.45,74.3,35.3L74.3,35.3
	L74.3,35.3L74.3,35.3L74.3,35.3z"/>
<path style="fill:#003366;" d="M41,56.7c0,0.825-0.019,1.625-0.055,2.402c-0.036,0.777-0.089,1.529-0.158,2.26
	c-0.069,0.732-0.153,1.441-0.251,2.13c-0.098,0.689-0.211,1.358-0.336,2.008s-0.269,1.269-0.43,1.859
	c-0.161,0.591-0.339,1.153-0.532,1.691c-0.194,0.537-0.403,1.05-0.627,1.541C38.388,71.081,38.15,71.55,37.9,72
	c-0.25,0.45-0.519,0.875-0.805,1.273c-0.286,0.398-0.589,0.77-0.908,1.114c-0.319,0.344-0.653,0.66-1.001,0.946
	c-0.348,0.286-0.711,0.542-1.086,0.767s-0.763,0.425-1.162,0.598c-0.4,0.173-0.812,0.32-1.238,0.439
	c-0.425,0.119-0.862,0.21-1.312,0.271C29.938,77.469,29.475,77.5,29,77.5c-0.575,0-1.125-0.031-1.652-0.092
	c-0.527-0.061-1.03-0.152-1.511-0.271c-0.481-0.118-0.94-0.265-1.379-0.439C24.019,76.525,23.6,76.325,23.2,76.1v-1.675V72.75
	v-1.675V69.4c0.35,0.325,0.725,0.606,1.122,0.845c0.397,0.239,0.816,0.436,1.253,0.593s0.894,0.272,1.366,0.348
	C27.413,71.263,27.9,71.3,28.4,71.3c0.525,0,1.019-0.056,1.483-0.17c0.464-0.114,0.899-0.286,1.305-0.518
	c0.406-0.231,0.784-0.521,1.136-0.873C32.675,69.387,33,68.975,33.3,68.5s0.562-1,0.787-1.577c0.225-0.577,0.413-1.205,0.562-1.886
	c0.15-0.681,0.263-1.415,0.338-2.204C35.062,62.044,35.1,61.2,35.1,60.3h-0.025H35.05h-0.025H35c-0.3,0.6-0.644,1.125-1.03,1.575
	S33.157,62.7,32.688,63c-0.469,0.3-0.978,0.525-1.527,0.675c-0.549,0.15-1.136,0.225-1.761,0.225c-0.275,0-0.55-0.019-0.822-0.056
	c-0.272-0.037-0.541-0.094-0.803-0.169s-0.519-0.169-0.766-0.281C26.763,63.281,26.525,63.15,26.3,63
	c-0.225-0.125-0.45-0.275-0.672-0.444S25.188,62.2,24.975,62c-0.212-0.2-0.419-0.412-0.616-0.631S23.975,60.925,23.8,60.7
	c-0.175-0.25-0.344-0.513-0.503-0.787c-0.159-0.275-0.309-0.562-0.447-0.863c-0.138-0.3-0.263-0.612-0.372-0.938
	S22.275,57.45,22.2,57.1c-0.1-0.35-0.188-0.706-0.263-1.07c-0.075-0.364-0.137-0.736-0.188-1.118s-0.087-0.772-0.112-1.173
	S21.6,52.925,21.6,52.5c0-0.475,0.012-0.944,0.039-1.405c0.027-0.461,0.067-0.914,0.124-1.358s0.128-0.878,0.217-1.301
	c0.089-0.423,0.195-0.835,0.32-1.236c0.125-0.4,0.256-0.787,0.397-1.161s0.291-0.733,0.453-1.076
	c0.163-0.344,0.337-0.672,0.528-0.983c0.191-0.311,0.397-0.604,0.622-0.879c0.225-0.275,0.456-0.537,0.695-0.787
	c0.239-0.25,0.486-0.487,0.743-0.713c0.257-0.225,0.522-0.438,0.799-0.638c0.277-0.2,0.564-0.387,0.865-0.562
	c0.3-0.15,0.606-0.281,0.92-0.394s0.636-0.206,0.968-0.281c0.331-0.075,0.672-0.132,1.023-0.169
	c0.351-0.038,0.713-0.057,1.088-0.057c0.375,0,0.738,0.025,1.089,0.075c0.352,0.05,0.692,0.125,1.024,0.225
	c0.331,0.1,0.653,0.225,0.967,0.375c0.314,0.15,0.62,0.325,0.92,0.525c0.3,0.2,0.588,0.419,0.864,0.658
	c0.277,0.239,0.542,0.499,0.798,0.78c0.256,0.282,0.503,0.584,0.742,0.911s0.471,0.676,0.696,1.051s0.431,0.769,0.62,1.181
	c0.189,0.412,0.361,0.844,0.518,1.294c0.156,0.45,0.297,0.919,0.423,1.406s0.239,0.994,0.34,1.519c0.1,0.5,0.188,1.031,0.263,1.589
	s0.138,1.142,0.188,1.748c0.049,0.607,0.087,1.235,0.112,1.88C40.987,55.362,41,56.025,41,56.7z M34.9,52.3
	c0-0.225-0.006-0.45-0.019-0.675c-0.013-0.225-0.031-0.45-0.056-0.675s-0.056-0.45-0.094-0.675c-0.037-0.225-0.081-0.45-0.131-0.675
	c-0.05-0.2-0.106-0.394-0.167-0.581s-0.126-0.369-0.195-0.544c-0.069-0.175-0.141-0.344-0.215-0.506
	C33.95,47.806,33.875,47.65,33.8,47.5c-0.075-0.15-0.156-0.294-0.244-0.43c-0.087-0.136-0.181-0.264-0.281-0.382
	s-0.206-0.228-0.319-0.327S32.725,46.175,32.6,46.1s-0.244-0.144-0.361-0.205c-0.117-0.061-0.233-0.114-0.351-0.157
	c-0.119-0.044-0.241-0.078-0.371-0.102C31.388,45.612,31.25,45.6,31.1,45.6c-0.125,0-0.25,0.006-0.373,0.022
	s-0.245,0.041-0.364,0.078c-0.119,0.038-0.235,0.088-0.346,0.153S29.8,46,29.7,46.1c-0.1,0.1-0.2,0.194-0.298,0.288
	c-0.098,0.094-0.195,0.188-0.289,0.287c-0.094,0.1-0.184,0.206-0.27,0.325c-0.086,0.119-0.168,0.25-0.243,0.4
	c-0.075,0.125-0.15,0.263-0.223,0.409c-0.073,0.147-0.146,0.303-0.215,0.466c-0.069,0.163-0.135,0.331-0.195,0.503
	C27.906,48.95,27.85,49.125,27.8,49.3c-0.05,0.2-0.094,0.4-0.131,0.6c-0.038,0.2-0.069,0.4-0.094,0.6s-0.044,0.4-0.056,0.6
	c-0.013,0.2-0.019,0.4-0.019,0.6c0,0.225,0.006,0.45,0.019,0.674c0.013,0.224,0.031,0.446,0.056,0.665
	c0.025,0.218,0.056,0.434,0.094,0.645C27.706,53.894,27.75,54.1,27.8,54.3c0.05,0.175,0.106,0.35,0.167,0.522
	c0.061,0.172,0.126,0.341,0.195,0.503c0.069,0.163,0.141,0.319,0.215,0.466c0.074,0.147,0.149,0.284,0.224,0.409
	s0.156,0.244,0.244,0.356c0.088,0.112,0.181,0.219,0.281,0.319c0.1,0.1,0.206,0.194,0.319,0.281
	c0.112,0.088,0.231,0.169,0.356,0.244s0.25,0.138,0.375,0.189c0.125,0.052,0.25,0.092,0.375,0.123
	c0.125,0.031,0.25,0.053,0.375,0.067c0.125,0.014,0.25,0.021,0.375,0.021s0.25-0.006,0.373-0.02
	c0.123-0.014,0.245-0.036,0.364-0.067c0.118-0.031,0.234-0.072,0.345-0.124S32.6,57.475,32.7,57.4s0.2-0.156,0.299-0.242
	c0.098-0.086,0.195-0.177,0.29-0.271c0.094-0.094,0.185-0.191,0.27-0.289C33.644,56.5,33.725,56.4,33.8,56.3
	c0.075-0.125,0.144-0.25,0.208-0.378s0.124-0.259,0.18-0.397c0.056-0.137,0.109-0.281,0.16-0.434
	C34.4,54.938,34.45,54.775,34.5,54.6c0.075-0.2,0.138-0.394,0.189-0.584c0.052-0.191,0.092-0.378,0.123-0.566
	s0.053-0.375,0.067-0.566C34.894,52.694,34.9,52.5,34.9,52.3z"/>
<path style="fill:#003366;" d="M55.2,39.2v9.425v9.425v9.425V76.9h-1.5h-1.5h-1.5h-1.5v-7.125V62.65v-7.125V48.4
	c-0.075,0.1-0.156,0.2-0.244,0.299c-0.087,0.099-0.181,0.196-0.281,0.29c-0.1,0.094-0.206,0.184-0.319,0.27S48.125,49.425,48,49.5
	s-0.244,0.156-0.359,0.239c-0.116,0.083-0.228,0.167-0.341,0.248c-0.112,0.082-0.225,0.16-0.341,0.23
	c-0.116,0.07-0.234,0.133-0.359,0.183c-0.125,0.075-0.25,0.144-0.377,0.208s-0.255,0.124-0.386,0.18s-0.266,0.11-0.405,0.161
	C45.293,51,45.15,51.05,45,51.1c-0.125,0.05-0.256,0.094-0.391,0.133c-0.134,0.039-0.272,0.073-0.409,0.104
	c-0.138,0.031-0.275,0.059-0.409,0.086c-0.134,0.027-0.266,0.052-0.391,0.077v-1.7v-1.7v-1.7v-1.7c0.4-0.15,0.794-0.312,1.181-0.486
	c0.387-0.173,0.769-0.358,1.144-0.551c0.375-0.193,0.744-0.397,1.106-0.608c0.362-0.211,0.719-0.43,1.069-0.655
	s0.694-0.462,1.03-0.711c0.336-0.248,0.664-0.508,0.983-0.776c0.318-0.269,0.628-0.547,0.926-0.833
	c0.298-0.286,0.586-0.58,0.861-0.88h0.875h0.875h0.875H55.2L55.2,39.2L55.2,39.2L55.2,39.2L55.2,39.2z"/>
<path style="fill:#003366;" d="M71.5,39.2v9.425v9.425v9.425V76.9H70h-1.5H67h-1.5v-7.125V62.65v-7.125V48.4
	c-0.075,0.1-0.156,0.2-0.244,0.299c-0.088,0.099-0.181,0.196-0.281,0.29c-0.1,0.094-0.206,0.185-0.319,0.27
	c-0.113,0.086-0.231,0.167-0.356,0.242c-0.125,0.1-0.244,0.194-0.359,0.281c-0.116,0.088-0.228,0.169-0.341,0.244
	s-0.225,0.144-0.341,0.206c-0.116,0.062-0.234,0.119-0.359,0.169c-0.125,0.075-0.25,0.144-0.377,0.208s-0.255,0.124-0.386,0.18
	s-0.266,0.11-0.405,0.161C61.593,51,61.45,51.05,61.3,51.1c-0.125,0.05-0.256,0.094-0.391,0.133
	c-0.134,0.039-0.272,0.073-0.409,0.104c-0.137,0.031-0.275,0.059-0.409,0.086c-0.134,0.027-0.266,0.052-0.391,0.077v-1.7v-1.7v-1.7
	v-1.7c0.4-0.15,0.794-0.312,1.181-0.486s0.769-0.358,1.144-0.551c0.375-0.193,0.744-0.397,1.106-0.608
	c0.363-0.211,0.719-0.43,1.069-0.655s0.694-0.463,1.03-0.711s0.664-0.508,0.982-0.776c0.319-0.269,0.629-0.547,0.927-0.833
	S67.725,39.5,68,39.2h0.875h0.875h0.875H71.5L71.5,39.2L71.5,39.2L71.5,39.2L71.5,39.2L71.5,39.2L71.5,39.2L71.5,39.2L71.5,39.2z"/>
</svg>
