<?xml version="1.0" encoding="utf-8"?>
<!-- Generator: Adobe Illustrator 25.2.0, SVG Export Plug-In . SVG Version: 6.00 Build 0)  -->
<svg version="1.1" id="Layer_1" xmlns="http://www.w3.org/2000/svg" xmlns:xlink="http://www.w3.org/1999/xlink" x="0px" y="0px"
	 viewBox="0 0 100 100" style="enable-background:new 0 0 100 100;" xml:space="preserve">
<polygon points="85.8,26.7 85.8,22.8 21.4,46.1 21.1,46.1 21.1,46.2 14.2,48.7 14.2,53.4 21.1,50.8 21.1,77.2 22.4,77.2 26.9,77.2 
	85.8,77.2 85.8,72.8 26.9,72.8 26.9,48.7 "/>
<path d="M76.5,58.1h-8.9l-4.5-8.5h6.5v-1.9H46.4v1.9H53l-4.4,8.5h-9v2.1h7.9l-4.3,8.3H47l4.2-8.3h14l4.2,8.3h3.8l-4.4-8.3h7.8V58.1z
	 M52.3,58.1l4.3-8.5h3.4l4.3,8.5H52.3z"/>
</svg>
