<?xml version="1.0" encoding="utf-8"?>
<!-- Generator: Adobe Illustrator 25.2.0, SVG Export Plug-In . SVG Version: 6.00 Build 0)  -->
<svg version="1.1" id="Layer_1" xmlns="http://www.w3.org/2000/svg" xmlns:xlink="http://www.w3.org/1999/xlink" x="0px" y="0px"
	 viewBox="0 0 100 100" style="enable-background:new 0 0 100 100;" xml:space="preserve">
<path d="M52,60.5h-9.1L38.6,52h7v-2.3H20.7V52h6.6l-4,8.5h-9.1V63h7.9l-4,8.4h3.1l4-8.4h15l4.3,8.4h3.8L44.1,63H52V60.5z M26.4,60.5
	l4.1-8.5h4l4.4,8.5H26.4z"/>
<path d="M72.5,60.5c7.5,3.8,13.4,1.4,13.4,1.4c-14.2-8.5-11.2-19.3-11.2-19.3c4.2,4,9.1,3.6,9.1,3.6c-12.5-9.5-14-24.7-14-24.7
	c-0.7,13.2-13.8,25-13.8,25c2.7-0.2,9.5-3.2,9.5-3.2c1.2,10.1-12,18.8-12,18.8c6.3,2.1,10.4-0.9,11.9-1.5s1.9,0.6,1.9,0.6v11.4h-53
	v6.1h66.5v-6.1h-9.1c0-1.4,0-8.8,0-9.8C71.5,61.5,72.5,60.5,72.5,60.5z"/>
</svg>
