<?xml version="1.0" encoding="utf-8"?>
<!-- Generator: Adobe Illustrator 25.2.0, SVG Export Plug-In . SVG Version: 6.00 Build 0)  -->
<svg version="1.1" id="Layer_1" xmlns="http://www.w3.org/2000/svg" xmlns:xlink="http://www.w3.org/1999/xlink" x="0px" y="0px"
	 viewBox="0 0 100 100" style="enable-background:new 0 0 100 100;" xml:space="preserve">
<path d="M67.7,78.1c0,0-4.1,0.5-3.8-3s3.8-4.7,3.8-4.7s0-38.7,0-41.9S66,25.7,66,25.7H54.1v-4c0-4-2.6-2.5-2.6-2.5
	s-10.2,9.6-13.5,13.2C34.6,36,32,42.1,32,42.1s-0.3,27.7,0,32.4c0.3,4.8,4.9,6.1,4.9,6.1s28.5,1,30.2,0
	C68.8,79.6,67.7,78.1,67.7,78.1z M54.1,55.3V29h10.2l0.2,38.8H38.9L54.1,55.3z M61.4,77.2H38.1c0,0-2.7-0.2-2.4-6h26.4
	C62.1,71.2,59.8,75.2,61.4,77.2z"/>
</svg>
