<?xml version="1.0" encoding="utf-8"?>
<!-- Generator: Adobe Illustrator 25.2.0, SVG Export Plug-In . SVG Version: 6.00 Build 0)  -->
<svg version="1.1" id="Layer_1" xmlns="http://www.w3.org/2000/svg" xmlns:xlink="http://www.w3.org/1999/xlink" x="0px" y="0px"
	 viewBox="0 0 100 100" style="enable-background:new 0 0 100 100;" xml:space="preserve">
<circle cx="23" cy="35.6" r="2.7"/>
<path d="M48.7,62.2c-1.5,0-2.7,1.2-2.7,2.7c0,1.5,1.2,2.7,2.7,2.7c1.5,0,2.7-1.2,2.7-2.7C51.4,63.4,50.2,62.2,48.7,62.2z"/>
<path d="M59.7,33.7c1.3,0.7,2.9,0.2,3.6-1.1s0.2-2.9-1.1-3.6s-2.9-0.2-3.6,1.1C57.9,31.4,58.4,33,59.7,33.7z"/>
<path d="M71.4,66.7c-1.3-0.7-2.9-0.2-3.6,1.1s-0.2,2.9,1.1,3.6s2.9,0.2,3.6-1.1S72.7,67.4,71.4,66.7z"/>
<path d="M81.6,25.2L60.5,21c-3.6-0.7-7.1,1.6-7.8,5.2l-2.3,11.5l-3.7-12.6c-1-3.5-4.7-5.5-8.3-4.5l-20.6,6.1c-3.5,1-5.5,4.7-4.5,8.3
	L25,74.8c1,3.5,4.7,5.5,8.3,4.5l15.9-4.7c0.2,0.1,0.4,0.1,0.6,0.2L70.9,79c3.6,0.7,7.1-1.6,7.8-5.2L86.8,33
	C87.5,29.4,85.2,25.9,81.6,25.2z M27.6,72.6l-10.9-37c-0.8-2.6,0.7-5.3,3.3-6.1l18-5.3c2.6-0.8,5.3,0.7,6.1,3.3l10.9,37
	c0.8,2.6-0.7,5.3-3.3,6.1l-18,5.3C31.1,76.7,28.4,75.2,27.6,72.6z M83.5,33.9L76,71.7c-0.5,2.7-3.1,4.4-5.8,3.9l-14.9-3
	c2.6-1.5,4-4.6,3.1-7.7l-6.1-20.8l3.1-15.8c0.5-2.7,3.1-4.4,5.8-3.9l18.4,3.7C82.3,28.7,84,31.3,83.5,33.9z"/>
<path d="M66.3,43.1c-1.5-2.1-5.6-4.4-8.9-1.6c-3.3,2.7-1.7,7.2-1.7,7.2s4.6,7.5,6,10.2c1.4,2.6,3.1,0.7,3.1,0.7l7-5.6
	c0,0,6.6-4.6,2.6-9.8C70.5,38.8,66.3,43.1,66.3,43.1z"/>
<path d="M34.5,38.4c-0.9-0.9-2.4-0.5-2.7,0.7l-3.5,11.7c-0.3,1,0,2.1,0.8,2.8l8.9,8.2c0.9,0.9,2.5,0.4,2.8-0.8L44,49.4
	c0.2-1,0-2.1-0.8-2.8L34.5,38.4z"/>
</svg>
