<?xml version="1.0" encoding="utf-8"?>
<!-- Generator: Adobe Illustrator 25.2.0, SVG Export Plug-In . SVG Version: 6.00 Build 0)  -->
<svg version="1.1" id="Layer_1" xmlns="http://www.w3.org/2000/svg" xmlns:xlink="http://www.w3.org/1999/xlink" x="0px" y="0px"
	 viewBox="0 0 100 100" style="enable-background:new 0 0 100 100;" xml:space="preserve">
<path d="M87.8,40.3c-5.4-22.1-36.1-19.9-55.7-16.7C12.5,26.9,11.8,46,11.8,46L11,61.8c2.7,8.4,8.4,15.8,39,16.6s37.8-12,37.8-12
	S90.5,52,87.8,40.3z M85.6,65.7l-1,0.6l-0.1-6.1c0,0-2.7,0-2.8,2.7c-0.1,2.7-0.1,6.2-0.1,6.2s-0.4,1.1-2.2,1.4l-0.3-7.2l-4.3,2.2v7
	c0,0-1.9,0.9-2.7,0.9l-0.2-6.9c0,0-3.8,0.5-5.2,1.3l-0.1,7.1h-3v-6.9h-6.2c0,0-1,2.9-0.8,7.4h-2.3v-7.1l-7.9,0.1l-0.2,7h-2.4
	l0.1-6.3c0,0-0.6-1.5-1.5-1.5c-1,0-5.4,0-5.4,0l-0.1,6.9c0,0-2.8,0.6-3.1-1.1c-0.2-1.8-0.2-6.5-0.2-6.5s-3.9-1.6-4.6-1.2
	c-0.7,0.4-1.2,5.7-1.3,6.9c0,0-2.1-0.1-2.3-1c-0.2-0.9-0.2-6.9-0.2-6.9l-3.9-1.4L21.2,70c0,0-2.3,0.5-2.6-1.4
	c-0.2-1.9,0.1-6.7,0.1-6.7l-2.6-1.6l-0.3,5.9l-1.9-1.4V47.5c0,0-0.5-16.8,20.2-21.1c20.6-4.2,50.5-1.4,51.6,17.7
	C86.6,63.3,85.6,65.7,85.6,65.7z"/>
<path d="M80.3,38.9c-0.1,1.7-2.6,3.2-2.6,3.2L69.6,33c0,0-3.1-1.9-20.4-2.3S29.6,35,29.6,35l-6.7,7.2c-1.2,0-3.1-3.6-3.1-3.6
	c-1.2,0.1-0.4,1.6-0.4,1.6s2.7,3.7,7.2,5.9s18.7,3.5,22.4,3.6c3.7,0.1,18.6-1.2,24.6-3.3c6-2.1,7.5-5.7,7.8-6.7S80.3,38.9,80.3,38.9
	z M69.2,46l-4.1-9.1h-30L30.7,46c-2.6-0.1-5.4-2.3-5.4-2.3l7.3-8.9c0,0,6.7-1.7,19.4-1.8s16.1,2.3,16.1,2.3l7.1,8.2
	C73.7,45,69.2,46,69.2,46z"/>
</svg>
