<?xml version="1.0" encoding="utf-8"?>
<!-- Generator: Adobe Illustrator 25.2.0, SVG Export Plug-In . SVG Version: 6.00 Build 0)  -->
<svg version="1.1" id="Layer_1" xmlns="http://www.w3.org/2000/svg" xmlns:xlink="http://www.w3.org/1999/xlink" x="0px" y="0px"
	 viewBox="0 0 100 100" style="enable-background:new 0 0 100 100;" xml:space="preserve">
<path d="M69.2,26.4C66.1,20.9,58.7,17,50.1,17s-16,3.9-19.1,9.4H10.4V83h79.1V26.4H69.2z M87.3,80.9H13.2v-52h16.6h1.3h1.1
	c2.2-5.4,9.4-9.4,17.8-9.4s15.6,4,17.8,9.4h0.8h1.6h17V80.9z"/>
<path d="M64.7,38.7H34.2c-1.2,0-2.2-1-2.2-2.2v-0.3c0-1.2,1-2.2,2.2-2.2h30.5c1.2,0,2.2,1,2.2,2.2v0.3
	C66.9,37.7,65.9,38.7,64.7,38.7z"/>
<path d="M29.8,47H19c-0.9,0-1.6-0.7-1.6-1.6v0c0-0.9,0.7-1.6,1.6-1.6h10.9c0.9,0,1.6,0.7,1.6,1.6v0C31.4,46.3,30.7,47,29.8,47z"/>
<path d="M50.5,47H35.1c-0.9,0-1.6-0.7-1.6-1.6v0c0-0.9,0.7-1.6,1.6-1.6h15.5c0.9,0,1.6,0.7,1.6,1.6v0C52.1,46.3,51.4,47,50.5,47z"/>
<path d="M34.7,54.5H19.2c-0.9,0-1.6-0.7-1.6-1.6v0c0-0.9,0.7-1.6,1.6-1.6h15.5c0.9,0,1.6,0.7,1.6,1.6v0
	C36.3,53.8,35.6,54.5,34.7,54.5z"/>
<path d="M40.1,69.6H19.2c-0.9,0-1.6-0.7-1.6-1.6v0c0-0.9,0.7-1.6,1.6-1.6h20.8c0.9,0,1.6,0.7,1.6,1.6v0
	C41.6,68.9,40.9,69.6,40.1,69.6z"/>
<path d="M80.8,69.6H60.5c-0.9,0-1.6-0.7-1.6-1.6v0c0-0.9,0.7-1.6,1.6-1.6h20.3c0.9,0,1.6,0.7,1.6,1.6v0
	C82.4,68.9,81.7,69.6,80.8,69.6z"/>
<path d="M55.1,69.6h-9.8c-0.9,0-1.6-0.7-1.6-1.6v0c0-0.9,0.7-1.6,1.6-1.6h9.8c0.9,0,1.6,0.7,1.6,1.6v0C56.7,68.9,56,69.6,55.1,69.6z
	"/>
<path d="M80.7,54.5H60.1c-0.9,0-1.6-0.7-1.6-1.6v0c0-0.9,0.7-1.6,1.6-1.6h20.5c0.9,0,1.6,0.7,1.6,1.6v0
	C82.2,53.8,81.5,54.5,80.7,54.5z"/>
<path d="M65.3,47H55.2c-0.9,0-1.6-0.7-1.6-1.6l0,0c0-0.9,0.7-1.6,1.6-1.6h10.2c0.9,0,1.6,0.7,1.6,1.6l0,0C66.9,46.3,66.2,47,65.3,47
	z"/>
<path d="M55.1,54.5H39.9c-0.9,0-1.6-0.7-1.6-1.6v0c0-0.9,0.7-1.6,1.6-1.6h15.1c0.9,0,1.6,0.7,1.6,1.6v0C56.7,53.8,56,54.5,55.1,54.5
	z"/>
<path d="M81.4,47H70.1c-0.9,0-1.6-0.7-1.6-1.6l0,0c0-0.9,0.7-1.6,1.6-1.6h11.3c0.9,0,1.6,0.7,1.6,1.6v0C82.9,46.3,82.2,47,81.4,47z"
	/>
<path d="M29.8,62.1H19c-0.9,0-1.6-0.7-1.6-1.6l0,0c0-0.9,0.7-1.6,1.6-1.6h10.9c0.9,0,1.6,0.7,1.6,1.6l0,0
	C31.4,61.4,30.7,62.1,29.8,62.1z"/>
<path d="M50.5,62.1H35.1c-0.9,0-1.6-0.7-1.6-1.6v0c0-0.9,0.7-1.6,1.6-1.6h15.5c0.9,0,1.6,0.7,1.6,1.6v0
	C52.1,61.4,51.4,62.1,50.5,62.1z"/>
<path d="M65.3,62.1H55.2c-0.9,0-1.6-0.7-1.6-1.6v0c0-0.9,0.7-1.6,1.6-1.6h10.2c0.9,0,1.6,0.7,1.6,1.6v0
	C66.9,61.4,66.2,62.1,65.3,62.1z"/>
<path d="M81.4,62.1H70.1c-0.9,0-1.6-0.7-1.6-1.6v0c0-0.9,0.7-1.6,1.6-1.6h11.3c0.9,0,1.6,0.7,1.6,1.6v0
	C82.9,61.4,82.2,62.1,81.4,62.1z"/>
<path d="M29.8,77.1H19c-0.9,0-1.6-0.7-1.6-1.6l0,0c0-0.9,0.7-1.6,1.6-1.6h10.9c0.9,0,1.6,0.7,1.6,1.6l0,0
	C31.4,76.4,30.7,77.1,29.8,77.1z"/>
<path d="M50.5,77.1H35.1c-0.9,0-1.6-0.7-1.6-1.6v0c0-0.9,0.7-1.6,1.6-1.6h15.5c0.9,0,1.6,0.7,1.6,1.6v0
	C52.1,76.4,51.4,77.1,50.5,77.1z"/>
<path d="M65.3,77.1H55.2c-0.9,0-1.6-0.7-1.6-1.6v0c0-0.9,0.7-1.6,1.6-1.6h10.2c0.9,0,1.6,0.7,1.6,1.6v0
	C66.9,76.4,66.2,77.1,65.3,77.1z"/>
<path d="M81.4,77.1H70.1c-0.9,0-1.6-0.7-1.6-1.6v0c0-0.9,0.7-1.6,1.6-1.6h11.3c0.9,0,1.6,0.7,1.6,1.6v0
	C82.9,76.4,82.2,77.1,81.4,77.1z"/>
</svg>
