<?xml version="1.0" encoding="utf-8"?>
<!-- Generator: Adobe Illustrator 25.2.0, SVG Export Plug-In . SVG Version: 6.00 Build 0)  -->
<svg version="1.1" id="Layer_1" xmlns="http://www.w3.org/2000/svg" xmlns:xlink="http://www.w3.org/1999/xlink" x="0px" y="0px"
	 viewBox="0 0 100 100" style="enable-background:new 0 0 100 100;" xml:space="preserve">
<path d="M83.3,62.2l-2.6-12.4c-0.3-1.6-2.2-2.2-3.4-1.2l-10.6,8.7c-1.3,1.1-0.9,3.2,0.8,3.7l3.9,1.1c-1.3,2.3-7,11.6-17.6,13.3V34.7
	c3.8-1.2,6.5-4.3,6.5-7.9c0-4.7-4.5-8.4-10-8.4c-5.5,0-10,3.8-10,8.4c0,3.7,2.8,6.8,6.6,7.9v40.6c-9.4-1.6-15.5-9.5-17.8-13.1l3.8-1
	c1.5-0.6,1.8-2.5,0.7-3.6l-11.2-8.9c-1.2-1.1-3.1-0.5-3.5,1.1l-2.3,12.5c-0.4,1.7,1.2,3.1,2.8,2.5l3.2-0.9
	c1.6,3.2,10,17.7,27.6,17.7c18.3,0,26-15.5,27.1-17.8l3.3,0.9C82.2,65.1,83.7,63.8,83.3,62.2z M50.3,30.8c-2.5,0-4.5-1.8-4.5-4
	c0-2.2,2-4,4.5-4s4.5,1.8,4.5,4C54.8,29,52.8,30.8,50.3,30.8z"/>
</svg>
