<?xml version="1.0" encoding="utf-8"?>
<!-- Generator: Adobe Illustrator 25.2.0, SVG Export Plug-In . SVG Version: 6.00 Build 0)  -->
<svg version="1.1" id="Layer_1" xmlns="http://www.w3.org/2000/svg" xmlns:xlink="http://www.w3.org/1999/xlink" x="0px" y="0px"
	 viewBox="0 0 100 100" style="enable-background:new 0 0 100 100;" xml:space="preserve">
<path d="M40.2,79.5c-7.8,0-15-7.2-21.4-21.5c-3.4-7.6-4.2-14-2.2-18.1c0.9-1.9,2.3-3.1,4-3.6c0.9-0.2,1.7-0.3,2.4-0.3
	c0.6,0,1.2,0.1,1.7,0.1c0.6,0.1,1.1,0.1,1.8,0.1c1.1,0,2.3-0.2,3.7-0.5c3.2-0.7,4.6-2.6,6.2-4.6c1.1-1.4,2.2-2.8,3.9-3.9
	c1-0.6,1.9-1,2.8-1c2.3,0,3.5,2.1,3.9,3.5c0.7,1.5,8.9,19.6,9.4,23.4c1,7.7-1.1,18.2-7.2,23.1C46.1,78.5,43.1,79.5,40.2,79.5
	C40.2,79.5,40.2,79.5,40.2,79.5z"/>
<path style="fill:#FFFFFF;" d="M43.2,27.4c2.2,0,2.9,2.8,2.9,2.8s8.9,19.4,9.4,23.2c0.9,7.1-0.8,17.3-6.9,22.2c-3,2-5.8,2.9-8.4,2.9
	c-9.1,0-15.9-10.7-20.5-20.9c-5.9-13.1-2.6-19.3,1.1-20.3c0.9-0.2,1.6-0.3,2.2-0.3c1.2,0,2.1,0.3,3.5,0.3c1,0,2.2-0.1,4-0.5
	c5.7-1.3,6.4-5.9,10.4-8.6C41.8,27.6,42.6,27.4,43.2,27.4 M43.2,25.4c-1.1,0-2.2,0.4-3.3,1.1c-1.8,1.2-3,2.7-4.1,4.1
	c-1.6,2-2.8,3.6-5.6,4.2c-1.4,0.3-2.5,0.5-3.5,0.5c-0.7,0-1.2-0.1-1.7-0.1c-0.6-0.1-1.1-0.1-1.8-0.1c-0.9,0-1.7,0.1-2.7,0.4
	c-2,0.5-3.6,2-4.7,4.1c-1.5,3.1-2.3,8.8,2.2,18.9c6.5,14.7,14,22.1,22.3,22.1c3.1,0,6.4-1.1,9.5-3.3l0.1,0l0.1,0
	c3.1-2.5,5.4-6.4,6.7-11.3c1.1-4.1,1.4-8.7,0.9-12.7c-0.5-3.9-8.3-21.1-9.5-23.6C47.5,27.9,46,25.4,43.2,25.4L43.2,25.4z"/>
<path d="M65.3,69c-2.1,0-4.4-0.4-6.8-1.2C50.2,64.6,47.3,48.7,47,44.9c-0.3-3.8,0-19.2,0-19.8c0-0.2,0-2.2,1.3-3.5
	c0.7-0.7,1.6-1.1,2.8-1.1c0.6,0,1.2,0.1,1.9,0.3c1.6,0.5,3,1.1,4.3,1.7c2.3,1,4.6,2,7.9,2c0.3,0,0.6,0,0.9,0c3.1-0.2,4.2-1.1,5.3-2
	c1-0.8,2.1-1.7,4.2-1.7l0.1,0c1.7,0,3.5,0.9,5,2.6c3.4,3.9,4.6,10.9,3.4,19.2C82.4,53.9,78.7,69,65.3,69z"/>
<path style="fill:#FFFFFF;" d="M51,21.5c0.5,0,1,0.1,1.6,0.3c4.5,1.3,7,3.7,12.5,3.7c0.3,0,0.6,0,1,0c6.2-0.3,5.5-3.6,9.5-3.7
	c0,0,0.1,0,0.1,0c4,0,9.4,6.6,7.4,20.7C81.3,54.7,77.3,68,65.3,68c-2,0-4.1-0.3-6.5-1.1c-7.5-3-10.5-18.2-10.8-22
	c-0.3-3.8,0-19.7,0-19.7S47.8,21.5,51,21.5 M51,19.5L51,19.5c-1.4,0-2.6,0.5-3.5,1.4c-1.5,1.5-1.6,3.8-1.5,4.2c0,1-0.3,16.1,0,19.9
	c0,0.2,2.2,19.8,12,23.7l0.1,0l0.1,0c2.5,0.8,4.9,1.2,7.1,1.2C81.1,70,84.1,49.5,85,42.7c1.2-8.6-0.1-15.9-3.7-20
	c-1.7-1.9-3.7-3-5.7-3l-0.1,0c-2.5,0.1-3.8,1.1-4.8,2c-1.1,0.9-2,1.6-4.7,1.8c-0.3,0-0.6,0-0.9,0c-3.1,0-5.2-0.9-7.5-1.9
	c-1.3-0.6-2.7-1.2-4.4-1.7C52.4,19.6,51.6,19.5,51,19.5L51,19.5z"/>
<path style="fill:#FFFFFF;" d="M70.3,43.5c0,0,0.8-3.1,2.6-3.1c1.8,0,2.8,1.5,2.8,1.5l3.5-4.2c0,0-2.1-2.9-6.1-2.8S65.9,41,65.9,41
	L70.3,43.5z"/>
<path style="fill:#FFFFFF;" d="M63.8,41l-4.2,2.8l-2.5-3.1c0,0-1.7-1.3-3,1l-3.5-4.1c0,0,2.3-3,6.2-3C60.7,34.7,63.8,41,63.8,41z"/>
<path style="fill:#FFFFFF;" d="M58,50c0,0,2.2,4.9,7.7,4.6c5.4-0.3,7.8-4.6,7.8-4.6l4.1,3c0,0-3.7,6.5-11.6,7.1s-12.7-8.3-12.7-8.3
	L58,50z"/>
<path style="fill:#FFFFFF;" d="M39.1,42.4c0,0,1.6,2.1,3.5,1.8c1.9-0.3,3.3-2.4,3.3-2.4l1.4,1.9c0,0-1.7,3.4-4.9,3.3
	c-3.2-0.1-5.4-2.6-5.4-2.6L39.1,42.4z"/>
<path style="fill:#FFFFFF;" d="M29.2,45.8h3.4c0,0-0.5,4.8-3.4,6.4c-2.9,1.6-5.7,0.3-5.7,0.3v-3.1c0,0,2.9,0.5,4,0
	S29.2,45.8,29.2,45.8z"/>
<path style="fill:#FFFFFF;" d="M31.7,69.3c0,0,3-6.9,7.7-8.9c4.9-2.1,12.5,0.8,12.5,0.8L49.7,64c0,0-7.1-3-10.2-0.4
	c-3.1,2.6-4.7,6.4-4.7,6.4L31.7,69.3z"/>
</svg>
