<?xml version="1.0" encoding="utf-8"?>
<!-- Generator: Adobe Illustrator 25.2.0, SVG Export Plug-In . SVG Version: 6.00 Build 0)  -->
<svg version="1.1" id="Layer_1" xmlns="http://www.w3.org/2000/svg" xmlns:xlink="http://www.w3.org/1999/xlink" x="0px" y="0px"
	 viewBox="0 0 100 100" style="enable-background:new 0 0 100 100;" xml:space="preserve">
<path d="M61.7,68c0.2-0.4,0.3-0.8,0.3-1.3c0-1.6-1-2.6-2.8-2.6c-0.9,0-1.8,0.4-2.4,1l0,0c0,0-1.5,1.6-1.7,1.3
	c-0.2-0.3-0.8-3.1-0.8-3.1c4,0.4,6.2-1.7,6.2-4.2s-2.3-4.6-5-4.6s-5,2.1-5,4.6c0,0.7,0.2,1.4,0.5,2.1l0,0c0,0-3.2,0.2-4.2,0.9
	c-0.8,0.5-4.7,5.1-6.9,7.6c-0.5,0.3-0.9,0.8-1.1,1.3c0,0,0,0,0,0l0,0c-0.2,0.4-0.3,0.9-0.3,1.4c0,0.3,0.1,0.6,0.1,0.9
	c0,0.2,0,0.3,0.2,0.5c0.2,0.3,0.4,0.6,0.6,0.9c0.4,0.8,1.1,2.4,1.1,2.4c-1.8,0-4.9,0.5-4.9,2.2c0,1.7,0.7,2.9,4.2,2.9l12.6-0.1
	c1.5,0,2.4-0.4,2.4-1.8c0-0.4-0.1-0.7-0.2-1c0,0-0.7-0.7-0.7-0.7c-1.2-1-5.5-3.8-5.5-3.8l3.4-3.5c0,0,1.7,2.3,3.3,2.3
	c1.1,0,3.8-2.5,5.4-4C61,68.9,61.4,68.5,61.7,68C61.6,68,61.7,68,61.7,68L61.7,68z"/>
<polygon points="87.4,58.8 49.7,45.9 12.6,58.8 13.9,61.3 50,48.7 86.2,61.3 "/>
<path d="M54,37.8h9l-4.7-6.5l4.2-6.4h-8.9l-4.9-6.8l-4.5,6.8h-8.7l4.5,6.3l-4.5,6.7h9.2l4.8,6.8L54,37.8z M59.9,36.3h-4.8l2.3-3.5
	L59.9,36.3z M52.9,36.3h-7.1l-3.5-5l3.3-4.9h7.2l3.5,4.8L52.9,36.3z M59.4,26.4l-2.2,3.3l-2.4-3.3H59.4z M49,21.2l2.7,3.7h-5.1
	L49,21.2z M38.7,26.4h4.5l-2.2,3.3L38.7,26.4z M38.9,36.3l2.3-3.5l2.5,3.5H38.9z M46.8,37.8h5l-2.4,3.7L46.8,37.8z"/>
</svg>
