<?xml version="1.0" encoding="utf-8"?>
<!-- Generator: Adobe Illustrator 25.2.0, SVG Export Plug-In . SVG Version: 6.00 Build 0)  -->
<svg version="1.1" id="Layer_1" xmlns="http://www.w3.org/2000/svg" xmlns:xlink="http://www.w3.org/1999/xlink" x="0px" y="0px"
	 viewBox="0 0 100 100" style="enable-background:new 0 0 100 100;" xml:space="preserve">
<polygon style="fill:#808080;" points="49.9,16.3 87.2,29.2 87.2,30 12.8,30 12.8,29 "/>
<path style="fill:#808080;" d="M20.7,76.6h-2c-1.4,0-2.4-1.1-2.4-2.4V34.3c0-1.4,1.1-2.4,2.4-2.4h2c1.4,0,2.4,1.1,2.4,2.4v39.8
	C23.1,75.5,22,76.6,20.7,76.6z"/>
<path style="fill:#808080;" d="M79.5,76.6h-2c-1.4,0-2.4-1.1-2.4-2.4V34.3c0-1.4,1.1-2.4,2.4-2.4h2c1.4,0,2.4,1.1,2.4,2.4v39.8
	C82,75.5,80.9,76.6,79.5,76.6z"/>
<path style="fill:#808080;" d="M83.9,83.7H16.1c-1.3,0-2.4-1.1-2.4-2.4v-1.7c0-1.3,1.1-2.4,2.4-2.4h67.8c1.3,0,2.4,1.1,2.4,2.4v1.7
	C86.3,82.7,85.2,83.7,83.9,83.7z"/>
<polygon points="61.5,34.1 60.6,34.1 58.9,34.1 49.6,55 40.3,34.1 38,34.1 37.6,34.1 28.8,34.1 28.8,74.6 38,74.6 38,46 45.8,64.6 
	52.4,64.6 60.6,45.5 60.6,74.6 69.8,74.6 69.8,34.1 "/>
</svg>
