<?xml version="1.0" encoding="utf-8"?>
<!-- Generator: Adobe Illustrator 25.2.0, SVG Export Plug-In . SVG Version: 6.00 Build 0)  -->
<svg version="1.1" id="Layer_1" xmlns="http://www.w3.org/2000/svg" xmlns:xlink="http://www.w3.org/1999/xlink" x="0px" y="0px"
	 viewBox="0 0 100 100" style="enable-background:new 0 0 100 100;" xml:space="preserve">
<ellipse cx="41.7" cy="33.6" rx="4.8" ry="4.1"/>
<path d="M42.1,40.3l22.3-3.2c0,0,1-0.6-0.8-1.5C61.8,34.6,38,20.9,38,20.9l-2.3,3c0,0-2.1,0.3-2.2-1.4l2.7-4l32.4,18.8
	c0,0,2.1,2.1-0.8,3c-2.9,0.9-15.2,2.3-15.2,2.3l5.5,18c0,0,0.5,2.8-0.6,9s-2,10.1-2,10.1s-0.4,1.8-3.2,1.1s-1.6-4.3-1.6-4.3l2-11.4
	c0,0,0.5-4.1-0.7-6.1L34.9,81c0,0-1.6,1.1-3.2,0c-1.6-1.1-1.1-3.2-0.5-3.9c0.5-0.7,14.7-19,14.7-19L41,43.2
	C41,43.2,39.7,40.6,42.1,40.3z"/>
</svg>
