<?xml version="1.0" encoding="utf-8"?>
<!-- Generator: Adobe Illustrator 25.2.0, SVG Export Plug-In . SVG Version: 6.00 Build 0)  -->
<svg version="1.1" id="Layer_1" xmlns="http://www.w3.org/2000/svg" xmlns:xlink="http://www.w3.org/1999/xlink" x="0px" y="0px"
	 viewBox="0 0 100 100" style="enable-background:new 0 0 100 100;" xml:space="preserve">
<polygon points="33.4,73.7 33.4,76.4 28.6,76.4 "/>
<path d="M43.8,51.6l-11.2-6.6c0.5-0.6,0.8-1.3,0.8-2.2c0-2-1.6-3.5-3.5-3.5c-2,0-3.5,1.6-3.5,3.5c0,0.8,0.3,1.5,0.7,2.1l-10.9,6.7
	H7.7v1.4L12,58h3.1v7.2h2.1V58h9.1v2.4l3.9-2.4H41v7.2H43V58h4.9l4-5v-1.5H43.8z M19.4,51.6l8.8-5.7c0.5,0.3,1.1,0.4,1.7,0.4
	c0.6,0,1.1-0.2,1.6-0.4l8.5,5.7H19.4z"/>
<polygon points="43,76.1 43,73.7 46.4,73.7 48.6,68.1 47.8,67.1 36.4,67.1 35.4,68.4 38,73.7 41,73.7 41,76.1 26.3,76.1 17.2,76.1 
	17.2,73.7 20.3,73.7 22.5,68.1 21.6,67.1 10.2,67.1 9.3,68.4 11.9,73.7 15.1,73.7 15.1,76.1 10.2,76.1 7.7,79.5 7.7,80.9 51.9,80.9 
	51.9,79.6 49.7,76.1 "/>
<polygon points="33.4,68.5 26.3,73 26.3,76.1 33.4,71.7 "/>
<polygon points="26.3,70.9 33.4,66.5 33.4,63.3 26.3,67.8 "/>
<polygon points="33.4,58.1 26.3,62.6 26.3,65.7 33.4,61.3 "/>
<path style="fill:#808080;" d="M87.3,39c-1.1,0-2.1,0.4-2.9,1c-0.4-1.8-1.2-3.5-2.2-5.1c2.6-0.1,4.7-2.3,4.7-5c0-2.8-2.2-5-5-5
	c-2.8,0-5,2.2-5,5c0,0,0,0.1,0,0.1c-1.4-0.8-3-1.4-4.7-1.8c1.3-0.9,2.2-2.4,2.2-4.1c0-2.8-2.2-5-5-5c-2.8,0-5,2.2-5,5
	c0,1.7,0.8,3.2,2.1,4.1c-1.9,0.3-3.6,1-5.2,1.9c-0.1-2.7-2.3-4.8-5-4.8c-2.8,0-5,2.2-5,5c0,2.7,2.1,4.8,4.7,5c-0.9,1.4-1.6,3-2,4.7
	c-0.8-0.6-1.8-1-2.9-1c-2.8,0-5,2.2-5,5s2.2,5,5,5c1.2,0,2.3-0.4,3.1-1.1c0.6,1.9,1.5,3.7,2.7,5.3C56.6,53.1,56.3,53,56,53
	c-2.8,0-5,2.2-5,5c0,2.8,2.2,5,5,5s5-2.2,5-5c0-0.5-0.1-0.9-0.2-1.4c0.8,0.5,1.7,1,2.7,1.4l-4.7,11.8h20.7l-4.6-11.7
	c0.8-0.3,1.5-0.6,2.2-1.1c-0.1,0.3-0.1,0.6-0.1,1c0,2.8,2.2,5,5,5c2.8,0,5-2.2,5-5c0-2.8-2.2-5-5-5c-0.1,0-0.2,0-0.4,0
	c1.2-1.5,2.1-3.3,2.6-5.2c0.9,0.7,1.9,1.1,3.1,1.1c2.8,0,5-2.2,5-5S90.1,39,87.3,39z M51.1,46.5c-1.4,0-2.5-1.1-2.5-2.5
	s1.1-2.5,2.5-2.5s2.5,1.1,2.5,2.5S52.5,46.5,51.1,46.5z M81.9,27.4c1.4,0,2.5,1.1,2.5,2.5s-1.1,2.5-2.5,2.5s-2.5-1.1-2.5-2.5
	S80.5,27.4,81.9,27.4z M69.4,21.6c1.4,0,2.5,1.1,2.5,2.5s-1.1,2.5-2.5,2.5s-2.5-1.1-2.5-2.5S68.1,21.6,69.4,21.6z M53.8,30.3
	c0-1.4,1.1-2.5,2.5-2.5s2.5,1.1,2.5,2.5s-1.1,2.5-2.5,2.5S53.8,31.6,53.8,30.3z M56,60.5c-1.4,0-2.5-1.1-2.5-2.5s1.1-2.5,2.5-2.5
	s2.5,1.1,2.5,2.5S57.3,60.5,56,60.5z M75.7,67.3H62.4l2.9-7.3l0,0l1.4-3.6l0,0l0.1-0.2l0.3-0.7l0,0l2-5l2.1,5.2l0,0l1.2,3l0,0
	L75.7,67.3z M81.9,55.5c1.4,0,2.5,1.1,2.5,2.5s-1.1,2.5-2.5,2.5s-2.5-1.1-2.5-2.5S80.5,55.5,81.9,55.5z M73.9,55.8l-3.8-9.6
	c1-0.4,1.7-1.3,1.7-2.5c0-1.5-1.2-2.7-2.7-2.7c-1.5,0-2.7,1.2-2.7,2.7c0,1.1,0.7,2.1,1.7,2.5l-3.8,9.6c-4.8-1.9-8.3-6.7-8.3-12.2
	c0-7.2,5.9-13.1,13.1-13.1c7.2,0,13.1,5.9,13.1,13.1C82.3,49.1,78.8,53.9,73.9,55.8z M87.3,46.5c-1.4,0-2.5-1.1-2.5-2.5
	s1.1-2.5,2.5-2.5s2.5,1.1,2.5,2.5S88.7,46.5,87.3,46.5z"/>
</svg>
