<?xml version="1.0" encoding="utf-8"?>
<!-- Generator: Adobe Illustrator 25.2.0, SVG Export Plug-In . SVG Version: 6.00 Build 0)  -->
<svg version="1.1" id="Layer_1" xmlns="http://www.w3.org/2000/svg" xmlns:xlink="http://www.w3.org/1999/xlink" x="0px" y="0px"
	 viewBox="0 0 100 100" style="enable-background:new 0 0 100 100;" xml:space="preserve">
<path d="M59.5,30.9c4.1,0,7.4-2.9,7.4-6.5c0-3.6-3.3-6.5-7.4-6.5s-7.4,2.9-7.4,6.5C52.2,28,55.5,30.9,59.5,30.9z"/>
<path d="M84.3,79.5l-20.6-1.7l9.5-35.1c1.4-0.5,2.7-1.7,2.7-3.1c0-1.8-1.5-3.2-3.3-3.2c-0.2,0-0.3,0-0.4,0l0,0l-0.1,0
	c-0.3,0-0.6,0.1-0.9,0.3L59.9,40l-9.8-10.2l-0.1,0c-0.8-1-2-1.6-3.3-1.6c-0.8,0-1.6,0.2-2.3,0.7l0,0l-0.1,0c0,0-0.1,0.1-0.1,0.1
	L20.5,45.1c0,0-0.1,0-0.1,0.1c-0.8,0.4-1.5,0.9-2,1.5c-0.7,0.8-1.3,2-1.1,3.6c0,0.1,0,0.1,0,0.2c0,0,0,0,0,0c0,0,0,0,0,0
	c0.1,0.6,0.3,1.1,0.5,1.6c1.1,2.4,3.4,2.9,3.4,2.9l22.1,3.7c0,0-7.7,10.2-9.7,13.1c-1.2,1.7-1,2.9-0.6,3.5L15.9,74
	c-0.7-0.1-1.3,0.4-1.3,1.1l0,0.2c-0.1,0.7,0.4,1.3,1.1,1.3l68.4,5.6c0.7,0.1,1.3-0.4,1.3-1.1l0-0.2C85.5,80.2,85,79.6,84.3,79.5z
	 M52.6,57.5c0.1-0.1,0.1-0.2,0.2-0.3l0,0h0c0.2-0.3,0.3-0.7,0.3-1.1c0-1.1-0.7-1.9-1.7-2.2l0-0.1l-18.3-3.2l16.5-11
	c0,0,4.9,5.7,6.7,6.9c1.9,1.2,5,0,5,0l10-3.1l-9.9,34.4l-21.5-1.8L52.6,57.5z"/>
</svg>
