<?xml version="1.0" encoding="utf-8"?>
<!-- Generator: Adobe Illustrator 25.2.0, SVG Export Plug-In . SVG Version: 6.00 Build 0)  -->
<svg version="1.1" id="Layer_1" xmlns="http://www.w3.org/2000/svg" xmlns:xlink="http://www.w3.org/1999/xlink" x="0px" y="0px"
	 viewBox="0 0 100 100" style="enable-background:new 0 0 100 100;" xml:space="preserve">
<path d="M60,67.9c0.2-0.4,0.3-0.8,0.3-1.3c0-1.7-1-2.6-2.8-2.6c-0.9,0-1.8,0.4-2.4,1l0,0c0,0-1.5,1.6-1.7,1.3
	c-0.2-0.3-0.8-3.1-0.8-3.1c4,0.4,6.2-1.7,6.2-4.3c0-2.6-2.3-4.7-5-4.7s-5,2.1-5,4.7c0,0.8,0.2,1.5,0.5,2.1l0,0c0,0-3.2,0.2-4.2,0.9
	c-0.8,0.6-4.7,5.2-6.9,7.7c-0.5,0.3-0.9,0.8-1.1,1.3c0,0,0,0,0,0l0,0c-0.2,0.4-0.3,0.9-0.3,1.4c0,0.3,0.1,0.6,0.1,0.9
	c0,0.2,0,0.3,0.2,0.5c0.2,0.3,0.4,0.6,0.6,0.9c0.4,0.8,1.1,2.5,1.1,2.5C37,77,34,77.5,34,79.2c0,1.7,0.7,3,4.2,3l12.6-0.1
	c1.5,0,2.4-0.4,2.4-1.9c0-0.4-0.1-0.7-0.2-1c0,0-0.7-0.8-0.7-0.8c-1.2-1-5.5-3.9-5.5-3.9l3.4-3.6c0,0,1.7,2.4,3.3,2.3
	c1.1,0,3.8-2.5,5.4-4.1C59.3,68.8,59.7,68.4,60,67.9C60,67.9,60,67.9,60,67.9L60,67.9z"/>
<polygon points="87.4,59.4 49.7,44.7 12.6,59.4 13.9,62.4 50,47.9 86.2,62.4 "/>
<path d="M42.2,17.8c0,0-2.7,12.3,5.4,17.1c7.5,4.5,15.4,0.4,15.4,0.4s-8.8,11.1-19.7,4.5C32,33.1,39.4,19.7,42.2,17.8z"/>
<polygon points="55.5,24.2 59.8,23.8 57.4,27.4 59.1,31.4 54.9,30.4 51.7,33.2 51.5,28.9 47.9,26.7 51.9,25.1 52.9,20.8 "/>
</svg>
