<?xml version="1.0" encoding="utf-8"?>
<!-- Generator: Adobe Illustrator 25.2.0, SVG Export Plug-In . SVG Version: 6.00 Build 0)  -->
<svg version="1.1" id="Layer_1" xmlns="http://www.w3.org/2000/svg" xmlns:xlink="http://www.w3.org/1999/xlink" x="0px" y="0px"
	 viewBox="0 0 100 100" style="enable-background:new 0 0 100 100;" xml:space="preserve">
<circle cx="64.6" cy="43.5" r="1.9"/>
<circle cx="63.3" cy="49.3" r="1.9"/>
<circle cx="69.2" cy="49.3" r="1.9"/>
<circle cx="74.7" cy="49.3" r="1.9"/>
<circle cx="80.6" cy="49.5" r="1.9"/>
<circle cx="86" cy="49.5" r="1.9"/>
<circle cx="59.6" cy="54.2" r="1.9"/>
<circle cx="66.4" cy="54.8" r="1.9"/>
<circle cx="72.6" cy="55.1" r="1.9"/>
<circle cx="78.7" cy="55.3" r="1.9"/>
<circle cx="84.7" cy="55.3" r="1.9"/>
<circle cx="82" cy="61.1" r="1.9"/>
<circle cx="75.8" cy="60.5" r="1.9"/>
<circle cx="78.4" cy="65.8" r="1.9"/>
<circle cx="74.4" cy="70.2" r="1.9"/>
<circle cx="67.5" cy="69" r="1.9"/>
<circle cx="69.8" cy="73.9" r="1.9"/>
<circle cx="69.2" cy="60.2" r="1.9"/>
<circle cx="62.2" cy="59.3" r="1.9"/>
<circle cx="54.7" cy="57" r="1.9"/>
<circle cx="56.5" cy="62.1" r="1.9"/>
<circle cx="59.3" cy="67" r="1.9"/>
<circle cx="62.2" cy="71.9" r="1.9"/>
<circle cx="58.4" cy="78.6" r="1.9"/>
<circle cx="56.3" cy="73.6" r="1.9"/>
<circle cx="52.4" cy="79.4" r="1.9"/>
<circle cx="52.8" cy="68.1" r="1.9"/>
<circle cx="49.6" cy="63.3" r="1.9"/>
<circle cx="49.6" cy="57.6" r="1.9"/>
<circle cx="44.5" cy="57" r="1.9"/>
<circle cx="40.3" cy="54.2" r="1.9"/>
<circle cx="37.8" cy="59.2" r="1.9"/>
<circle cx="35.2" cy="64" r="1.9"/>
<circle cx="32.7" cy="69.1" r="1.9"/>
<circle cx="30.5" cy="73.8" r="1.9"/>
<circle cx="43.3" cy="62.3" r="1.9"/>
<circle cx="40.7" cy="67.1" r="1.9"/>
<circle cx="37.9" cy="72" r="1.9"/>
<circle cx="35.8" cy="76.6" r="1.9"/>
<circle cx="41.4" cy="78.5" r="1.9"/>
<circle cx="43.8" cy="73.6" r="1.9"/>
<circle cx="46.4" cy="68.3" r="1.9"/>
<circle cx="49.7" cy="73.8" r="1.9"/>
<circle cx="47.2" cy="79.4" r="1.9"/>
<circle cx="36.5" cy="49.3" r="1.9"/>
<circle cx="35.4" cy="43.4" r="1.9"/>
<circle cx="29.7" cy="43.5" r="1.9"/>
<circle cx="24.6" cy="43.4" r="1.9"/>
<circle cx="18.9" cy="43.5" r="1.9"/>
<circle cx="13.7" cy="43.5" r="1.9"/>
<circle cx="14" cy="49.6" r="1.9"/>
<circle cx="19.6" cy="49.5" r="1.9"/>
<circle cx="25.4" cy="49.6" r="1.9"/>
<circle cx="30.9" cy="49.5" r="1.9"/>
<circle cx="27.4" cy="55.1" r="1.9"/>
<circle cx="21.3" cy="55.3" r="1.9"/>
<circle cx="15.5" cy="55.5" r="1.9"/>
<circle cx="18.2" cy="61" r="1.9"/>
<circle cx="24.3" cy="60.7" r="1.9"/>
<circle cx="30.7" cy="60.2" r="1.9"/>
<circle cx="28" cy="65.1" r="1.9"/>
<circle cx="21.3" cy="65.9" r="1.9"/>
<circle cx="25.6" cy="70.3" r="1.9"/>
<circle cx="33.7" cy="54.7" r="1.9"/>
<circle cx="64.3" cy="76.8" r="1.9"/>
<circle cx="64.8" cy="64.4" r="1.9"/>
<circle cx="72" cy="65.3" r="1.9"/>
<circle cx="69.8" cy="43.5" r="1.9"/>
<circle cx="75.4" cy="43.5" r="1.9"/>
<circle cx="81" cy="43.5" r="1.9"/>
<circle cx="86.3" cy="43.5" r="1.9"/>
<circle cx="50.5" cy="21.4" r="2.7"/>
<path d="M45.8,28.3c0,0-0.6-2.5,1.4-2.7c2-0.2,6.4,0,6.4,0s1.8-0.2,1.7,2.7h-1.1c0,0,0.2-0.7-0.6-0.6c-0.8,0-6.3,0.1-6.3,0.1
	s-0.6-0.1-0.5,0.6H45.8z"/>
<path d="M58.1,34.7h-3.6v-4.3c0-0.6-0.5-1.2-1.2-1.2h-6c-0.6,0-1.2,0.5-1.2,1.2v4.3H43v3.7h1.7v10.3h11.8V38.4h1.5V34.7z"/>
</svg>
