<?xml version="1.0" encoding="utf-8"?>
<!-- Generator: Adobe Illustrator 25.2.0, SVG Export Plug-In . SVG Version: 6.00 Build 0)  -->
<svg version="1.1" id="Layer_1" xmlns="http://www.w3.org/2000/svg" xmlns:xlink="http://www.w3.org/1999/xlink" x="0px" y="0px"
	 viewBox="0 0 100 100" style="enable-background:new 0 0 100 100;" xml:space="preserve">
<path d="M53,22.1c0,0-3.2-1.2-6.4,0s-27,8.2-27,8.2v35.6c0,0,0.4,1.3,2.5,1.3c0.3,0,2.1,0,4.8,0c0.7,0.5,1.3,1.2,1.3,1.2v1.1
	c-1.9,0.4-3.3,2.2-3.3,4.4c0,2.5,1.8,4.4,3.9,4.4s3.9-2,3.9-4.4c0-2.1-1.3-3.9-3.1-4.3v-1.1c0.5-0.7,1.4-1.2,1.4-1.2
	c10.5,0,28,0,38.7,0c0.7,0.5,1.3,1.2,1.3,1.2v1.1c-1.9,0.4-3.3,2.2-3.3,4.4c0,2.5,1.8,4.4,3.9,4.4c2.2,0,3.9-2,3.9-4.4
	c0-2.1-1.4-3.9-3.1-4.3v-1.1c0.5-0.7,1.4-1.2,1.4-1.2c3.2,0,5.2,0,5.2,0s1.3-0.3,1.3-1.8c0-1.6,0-35.1,0-35.1L53,22.1z M36.3,50.3
	h-8.2V38.7h8.2V50.3z M53.2,50.3h-8.3V38.7h8.3V50.3z M61.6,38.7h10.2v22.5H61.6V38.7z"/>
</svg>
