<?xml version="1.0" encoding="utf-8"?>
<!-- Generator: Adobe Illustrator 25.2.0, SVG Export Plug-In . SVG Version: 6.00 Build 0)  -->
<svg version="1.1" id="Layer_1" xmlns="http://www.w3.org/2000/svg" xmlns:xlink="http://www.w3.org/1999/xlink" x="0px" y="0px"
	 viewBox="0 0 100 100" style="enable-background:new 0 0 100 100;" xml:space="preserve">
<ellipse style="fill:#808080;" cx="50" cy="33.2" rx="20.1" ry="15.9"/>
<path style="fill:#808080;" d="M65,46.9c-4,2.8-9.3,4.5-15,4.5s-11-1.7-15-4.5C25,51.8,18.1,62,18.1,73.9v5.6c0,1.7,1.4,3.1,3.1,3.1
	h57.5c1.7,0,3.1-1.4,3.1-3.1v-5.6C81.9,62,75,51.8,65,46.9z"/>
<path d="M34.6,54.4v-1c0-1,0.8-1.8,1.8-1.8h16c1,0,1.8,0.8,1.8,1.8v1H34.6z"/>
<path style="fill:#FFFFFF;" d="M52.4,52.1c0.7,0,1.3,0.6,1.3,1.3v0.5H35.1v-0.5c0-0.7,0.6-1.3,1.3-1.3H52.4 M52.4,51.1h-16
	c-1.3,0-2.3,1-2.3,2.3v1.5h20.6v-1.5C54.7,52.1,53.7,51.1,52.4,51.1L52.4,51.1z"/>
<path d="M59.7,54.4v-1c0-1,0.8-1.8,1.8-1.8h2.3c1,0,1.8,0.8,1.8,1.8v1H59.7z"/>
<path style="fill:#FFFFFF;" d="M63.9,52.1c0.7,0,1.3,0.6,1.3,1.3v0.5h-5v-0.5c0-0.7,0.6-1.3,1.3-1.3H63.9 M63.9,51.1h-2.3
	c-1.3,0-2.3,1-2.3,2.3v1.5h7v-1.5C66.2,52.1,65.2,51.1,63.9,51.1L63.9,51.1z"/>
<path d="M30.8,79.6c-1.4,0-2.5-1.1-2.5-2.5V57.9c0-1.4,1.1-2.5,2.5-2.5h38.8c1.4,0,2.5,1.1,2.5,2.5v19.3c0,1.4-1.1,2.5-2.5,2.5H30.8
	z"/>
<path style="fill:#FFFFFF;" d="M69.7,55.9c1.1,0,2,0.9,2,2v19.3c0,1.1-0.9,2-2,2H30.8c-1.1,0-2-0.9-2-2V57.9c0-1.1,0.9-2,2-2H69.7
	 M69.7,54.9H30.8c-1.6,0-3,1.3-3,3v19.3c0,1.6,1.3,3,3,3h38.8c1.6,0,3-1.3,3-3V57.9C72.6,56.2,71.3,54.9,69.7,54.9L69.7,54.9z"/>
<path style="fill:#999999;" d="M66.4,62.6h-7.4c-0.8,0-1.5-0.7-1.5-1.5V60c0-0.8,0.7-1.5,1.5-1.5h7.4c0.8,0,1.5,0.7,1.5,1.5v1.1
	C67.9,62,67.2,62.6,66.4,62.6z"/>
<ellipse style="fill:#838383;" cx="42.2" cy="67.8" rx="10.5" ry="8.9"/>
<ellipse style="fill:#FFFFFF;" cx="42.2" cy="67.8" rx="8.9" ry="7.6"/>
</svg>
